<svg width="18" height="19" viewBox="0 0 18 19" fill="none" xmlns="http://www.w3.org/2000/svg">
<path d="M11.4588 3.3564L13.8143 2.2466C14.7882 1.79361 15.8074 2.76753 15.4224 3.76409L14.4485 6.18754C14.222 6.75377 14.4711 7.4106 15.0147 7.68239L17.3476 8.83749C18.2988 9.31312 18.1856 10.7174 17.1664 11.0345L14.675 11.7819C14.0861 11.9631 13.7237 12.5519 13.8596 13.1635L14.4032 15.7002C14.6297 16.742 13.4519 17.5348 12.5686 16.9232L10.4396 15.451C9.94129 15.0886 9.23917 15.2019 8.85413 15.6775L7.20075 17.6706C6.52127 18.5087 5.18498 18.0783 5.09438 17.0138L4.91319 14.4092C4.86789 13.7976 4.36961 13.322 3.73543 13.2994L1.17608 13.2767C0.111572 13.2541 -0.409357 11.9404 0.383362 11.2156L2.30854 9.47167C2.76152 9.06398 2.82947 8.36186 2.44443 7.86358L0.836344 5.80251C0.17952 4.98714 0.904292 3.76409 1.9688 3.92263L4.52815 4.33032C5.13968 4.42091 5.72855 4.03588 5.86445 3.447L6.47598 0.910299C6.72512 -0.131561 8.12936 -0.335403 8.65029 0.593211L9.94129 2.85812C10.2357 3.4017 10.8926 3.60554 11.4588 3.3564Z" fill="#D9E476"/>
<path d="M6.20421 9.85673C6.62951 9.85673 6.97428 9.51196 6.97428 9.08666C6.97428 8.66136 6.62951 8.31659 6.20421 8.31659C5.77892 8.31659 5.43414 8.66136 5.43414 9.08666C5.43414 9.51196 5.77892 9.85673 6.20421 9.85673Z" fill="#005796"/>
<path d="M11.3229 9.85673C11.7482 9.85673 12.093 9.51196 12.093 9.08666C12.093 8.66136 11.7482 8.31659 11.3229 8.31659C10.8976 8.31659 10.5529 8.66136 10.5529 9.08666C10.5529 9.51196 10.8976 9.85673 11.3229 9.85673Z" fill="#005796"/>
</svg>
