<svg width="75" height="75" viewBox="0 0 75 75" fill="none" xmlns="http://www.w3.org/2000/svg">
<g clip-path="url(#clip0)">
<path d="M68.7129 60.1861H64.9918C64.2941 60.1861 63.7515 59.6079 63.7515 58.8646C63.7515 56.6898 62.0718 54.9004 60.0304 54.9004C57.989 54.9004 56.3094 56.6898 56.3094 58.8646C56.3094 59.6079 55.7667 60.1861 55.069 60.1861H22.8457C22.148 60.1861 21.6053 59.6079 21.6053 58.8646C21.6053 56.6898 19.9257 54.9004 17.8842 54.9004C15.8428 54.9004 14.1632 56.6898 14.1632 58.8646C14.1632 59.6079 13.6205 60.1861 12.9228 60.1861H6.72106C5.73911 60.1861 4.78301 59.7731 4.08531 59.0298C3.38761 58.2865 3 57.2955 3 56.2218V54.9004C3 53.8543 3.38761 52.8357 4.08531 52.0924C4.78301 51.3491 5.71327 50.9362 6.72106 50.9362V25.8569C6.72106 24.095 7.36708 22.4433 8.52991 21.1769C9.69274 19.9381 11.2949 19.2499 12.9228 19.2499H56.1802C57.4722 19.2499 58.6609 19.9656 59.3586 21.1494L67.8085 35.795C68.4028 36.8411 68.7387 38.0249 68.7387 39.2637V50.9912C69.7207 50.9912 70.6768 51.4042 71.3745 52.1475C72.0722 52.8908 72.4598 53.8818 72.4598 54.9555V56.2769C72.4598 57.323 72.0722 58.3416 71.3745 59.0849C70.651 59.7731 69.7207 60.1861 68.7129 60.1861ZM66.103 57.5432H68.7129C69.0488 57.5432 69.3589 57.4056 69.5915 57.1578C69.8241 56.9101 69.9533 56.5797 69.9533 56.2218V54.9004C69.9533 54.5425 69.8241 54.2122 69.5915 53.9644C69.3589 53.7167 69.0488 53.579 68.7129 53.579H67.4725C66.7748 53.579 66.2322 53.0009 66.2322 52.2576V39.2087C66.2322 38.4654 66.0513 37.7496 65.6895 37.144L57.2396 22.4983C57.0071 22.1129 56.6195 21.8652 56.1802 21.8652H12.9228C11.9409 21.8652 10.9848 22.2781 10.2871 23.0214C9.58938 23.7647 9.20177 24.7558 9.20177 25.8294V52.2576C9.20177 53.0009 8.65911 53.579 7.96141 53.579H6.72106C6.38513 53.579 6.07504 53.7167 5.84248 53.9644C5.60991 54.2122 5.48071 54.5425 5.48071 54.9004V56.2218C5.48071 56.5797 5.60991 56.9101 5.84248 57.1578C6.07504 57.4056 6.38513 57.5432 6.72106 57.5432H11.8117C12.3802 54.5425 14.8867 52.2576 17.8842 52.2576C20.8818 52.2576 23.3883 54.5425 23.9568 57.5432H53.9579C54.5264 54.5425 57.0329 52.2576 60.0304 52.2576C63.0279 52.2576 65.5345 54.5425 66.103 57.5432Z" fill="#0061BB"/>
<path d="M60.0304 65.4717C57.0329 65.4717 54.5264 63.1867 53.9579 60.186H23.9568C23.3883 63.1867 20.8818 65.4717 17.8842 65.4717C14.8867 65.4717 12.3802 63.1867 11.8117 60.186H6.72106C5.73911 60.186 4.78301 59.7731 4.08531 59.0298C3.38761 58.2865 3 57.2954 3 56.2218V54.9004C3 52.7256 4.67965 50.9362 6.72106 50.9362H68.7129C70.7543 50.9362 72.434 52.7256 72.434 54.9004V56.2218C72.434 57.2679 72.0463 58.2865 71.3487 59.0298C70.651 59.7731 69.7207 60.186 68.7129 60.186H66.103C65.5345 63.2142 63.0279 65.4717 60.0304 65.4717ZM22.8457 57.5432H55.0949C55.7926 57.5432 56.3352 58.1213 56.3352 58.8646C56.3352 61.0394 58.0149 62.8288 60.0563 62.8288C62.0977 62.8288 63.7773 61.0394 63.7773 58.8646C63.7773 58.1213 64.32 57.5432 65.0177 57.5432H68.7387C69.0747 57.5432 69.3848 57.4056 69.6173 57.1578C69.8499 56.91 69.9791 56.5797 69.9791 56.2218V54.9004C69.9791 54.1846 69.4106 53.579 68.7387 53.579H6.72106C6.0492 53.579 5.48071 54.1846 5.48071 54.9004V56.2218C5.48071 56.5797 5.60991 56.91 5.84248 57.1578C6.07504 57.4056 6.38513 57.5432 6.72106 57.5432H12.9228C13.6205 57.5432 14.1632 58.1213 14.1632 58.8646C14.1632 61.0394 15.8428 62.8288 17.8842 62.8288C19.9257 62.8288 21.6053 61.0394 21.6053 58.8646C21.6053 58.1488 22.148 57.5432 22.8457 57.5432Z" fill="#0061BB"/>
<path d="M66.2321 37.7496H50.1075C49.4098 37.7496 48.8672 37.1715 48.8672 36.4282V24.5355C48.8672 23.7922 49.4098 23.2141 50.1075 23.2141H58.79C59.4877 23.2141 60.0304 23.7922 60.0304 24.5355C60.0304 25.2788 59.4877 25.8569 58.79 25.8569H51.3479V35.1068H66.2321C66.9298 35.1068 67.4725 35.6849 67.4725 36.4282C67.4725 37.144 66.9298 37.7496 66.2321 37.7496Z" fill="#0061BB"/>
<path d="M31.1147 46.6141H25.5589C24.8612 46.6141 24.3186 46.036 24.3186 45.2927V40.6953H20.0032C19.3055 40.6953 18.7628 40.1172 18.7628 39.3739V33.4551C18.7628 32.7118 19.3055 32.1337 20.0032 32.1337H24.3186V27.5363C24.3186 26.793 24.8612 26.2148 25.5589 26.2148H31.1147C31.8124 26.2148 32.355 26.793 32.355 27.5363V32.1337H36.6704C37.3681 32.1337 37.9108 32.7118 37.9108 33.4551V39.3739C37.9108 40.1172 37.3681 40.6953 36.6704 40.6953H32.355V45.2927C32.355 46.036 31.8124 46.6141 31.1147 46.6141ZM26.7993 43.9713H29.8743V39.3739C29.8743 38.6306 30.417 38.0525 31.1147 38.0525H35.4301V34.7765H31.1147C30.417 34.7765 29.8743 34.1984 29.8743 33.4551V28.8577H26.7993V33.4551C26.7993 34.1984 26.2566 34.7765 25.5589 34.7765H21.2435V38.0525H25.5589C26.2566 38.0525 26.7993 38.6306 26.7993 39.3739V43.9713Z" fill="#0061BB"/>
<path d="M53.8286 21.8927H46.3865C45.6888 21.8927 45.1461 21.3146 45.1461 20.5713V16.6071C45.1461 15.8638 45.6888 15.2856 46.3865 15.2856H53.8286C54.5263 15.2856 55.0689 15.8638 55.0689 16.6071V20.5713C55.0689 21.287 54.5263 21.8927 53.8286 21.8927ZM47.6268 19.2499H52.5882V17.9285H47.6268V19.2499Z" fill="#0061BB"/>
<path d="M52.5882 17.9285H47.6268C46.9291 17.9285 46.3865 17.3503 46.3865 16.607V13.9642C46.3865 11.7894 48.0661 10 50.1075 10C52.149 10 53.8286 11.7894 53.8286 13.9642V16.607C53.8286 17.3228 53.2859 17.9285 52.5882 17.9285ZM48.8672 15.2856H51.3479V13.9642C51.3479 13.2485 50.7794 12.6428 50.1075 12.6428C49.4357 12.6428 48.8672 13.2485 48.8672 13.9642V15.2856V15.2856Z" fill="#0061BB"/>
</g>
<defs>
<clipPath id="clip0">
<rect width="69.434" height="55.4717" fill="white" transform="translate(3 10)"/>
</clipPath>
</defs>
</svg>
