<svg width="75" height="75" viewBox="0 0 75 75" fill="none" xmlns="http://www.w3.org/2000/svg">
<g clip-path="url(#clip0)">
<path d="M5.35914 41.6929H1.33978C0.586155 41.6929 0 41.0391 0 40.2663V28.8533C0 28.0508 0.586155 27.4266 1.33978 27.4266H5.35914C6.11276 27.4266 6.69892 28.0508 6.69892 28.8533V40.2663C6.69892 41.0391 6.08485 41.6929 5.35914 41.6929ZM2.67957 38.8397H4.01935V30.2799H2.67957V38.8397Z" fill="#0061BB"/>
<path d="M12.058 38.8397H5.35907C4.60544 38.8397 4.01929 38.2155 4.01929 37.4131V31.7065C4.01929 30.9041 4.60544 30.2799 5.35907 30.2799H12.058C12.8116 30.2799 13.3978 30.9041 13.3978 31.7065V37.4131C13.3978 38.1858 12.7837 38.8397 12.058 38.8397ZM6.69886 35.9864H10.7182V33.1332H6.69886V35.9864Z" fill="#0061BB"/>
<path d="M16.0774 43.1196H12.058C11.3044 43.1196 10.7183 42.4954 10.7183 41.6929V27.4266C10.7183 26.6242 11.3044 26 12.058 26H16.0774C16.831 26 17.4172 26.6242 17.4172 27.4266V41.6929C17.4172 42.4657 16.8031 43.1196 16.0774 43.1196ZM13.3978 40.2663H14.7376V28.8533H13.3978V40.2663Z" fill="#0061BB"/>
<path d="M42.873 41.6929H16.0773C15.3237 41.6929 14.7375 41.0688 14.7375 40.2663V28.8533C14.7375 28.0508 15.3237 27.4266 16.0773 27.4266H42.873C43.6266 27.4266 44.2128 28.0508 44.2128 28.8533V40.2663C44.1849 41.0391 43.5987 41.6929 42.873 41.6929ZM17.4171 38.8397H41.5332V30.2799H17.4171V38.8397Z" fill="#0061BB"/>
<path d="M49.5441 38.8397H42.8452C42.0915 38.8397 41.5054 38.2155 41.5054 37.4131V31.7065C41.5054 30.9041 42.0915 30.2799 42.8452 30.2799H49.5441C50.2977 30.2799 50.8839 30.9041 50.8839 31.7065V37.4131C50.8839 38.1858 50.2977 38.8397 49.5441 38.8397ZM44.1849 35.9864H48.2043V33.1332H44.1849V35.9864Z" fill="#0061BB"/>
<path d="M70.9807 35.9864H49.5441C48.7905 35.9864 48.2043 35.3623 48.2043 34.5598C48.2043 33.7573 48.7905 33.1332 49.5441 33.1332H70.9807C71.7343 33.1332 72.3205 33.7573 72.3205 34.5598C72.3205 35.3326 71.7343 35.9864 70.9807 35.9864Z" fill="#0061BB"/>
<path d="M71.6506 48.8261C69.8083 48.8261 68.3011 47.2212 68.3011 45.2596C68.3011 43.1196 70.0875 39.018 70.4503 38.2156C70.6736 37.7103 71.1481 37.4131 71.6506 37.4131C72.1809 37.4131 72.6275 37.74 72.8508 38.2156C73.2136 39.018 75 43.1196 75 45.2596C75 47.2212 73.4928 48.8261 71.6506 48.8261ZM71.6506 42.5252C71.2598 43.6546 70.9807 44.6948 70.9807 45.2596C70.9807 45.6459 71.2877 45.9729 71.6506 45.9729C72.0134 45.9729 72.3204 45.6459 72.3204 45.2596C72.3204 44.6948 72.0413 43.6546 71.6506 42.5252Z" fill="#0061BB"/>
<path d="M21.4366 41.693C20.683 41.693 20.0968 41.0688 20.0968 40.2663V35.9864C20.0968 35.184 20.683 34.5598 21.4366 34.5598C22.1902 34.5598 22.7764 35.184 22.7764 35.9864V40.2663C22.7764 41.0391 22.1623 41.693 21.4366 41.693Z" fill="#0061BB"/>
<path d="M26.7957 41.693C26.0421 41.693 25.4559 41.0688 25.4559 40.2663V35.9864C25.4559 35.184 26.0421 34.5598 26.7957 34.5598C27.5493 34.5598 28.1355 35.184 28.1355 35.9864V40.2663C28.1355 41.0391 27.5214 41.693 26.7957 41.693Z" fill="#0061BB"/>
<path d="M32.1548 41.693C31.4012 41.693 30.8151 41.0688 30.8151 40.2663V35.9864C30.8151 35.184 31.4012 34.5598 32.1548 34.5598C32.9085 34.5598 33.4946 35.184 33.4946 35.9864V40.2663C33.4946 41.0391 32.8806 41.693 32.1548 41.693Z" fill="#0061BB"/>
<path d="M37.514 41.693C36.7603 41.693 36.1742 41.0688 36.1742 40.2663V35.9864C36.1742 35.184 36.7603 34.5598 37.514 34.5598C38.2676 34.5598 38.8538 35.184 38.8538 35.9864V40.2663C38.8538 41.0391 38.2397 41.693 37.514 41.693Z" fill="#0061BB"/>
</g>
<defs>
<clipPath id="clip0">
<rect width="75" height="22.8261" fill="white" transform="translate(0 26)"/>
</clipPath>
</defs>
</svg>
