<svg width="22" height="16" viewBox="0 0 22 16" fill="none" xmlns="http://www.w3.org/2000/svg">
<path d="M9.09172 11.66C9.09172 12.74 8.73172 13.6 8.01172 14.24C7.29172 14.88 6.41172 15.2 5.37172 15.2C3.97172 15.2 2.85172 14.78 2.01172 13.94C1.17172 13.1 0.751719 11.84 0.751719 10.16C0.751719 8.56 0.971719 7.18 1.41172 6.02C1.89172 4.82 2.45172 3.82 3.09172 3.02C3.77172 2.22 4.47172 1.6 5.19172 1.16C5.91172 0.679998 6.55172 0.339999 7.11172 0.139999L8.91172 2.6C7.79172 3.16 6.81172 3.88 5.97172 4.76C5.17172 5.64 4.77172 6.76 4.77172 8.12C4.93172 8.08 5.17172 8.06 5.49172 8.06C6.41172 8.06 7.23172 8.4 7.95172 9.08C8.71172 9.76 9.09172 10.62 9.09172 11.66ZM21.0917 11.66C21.0917 12.74 20.7317 13.6 20.0117 14.24C19.2917 14.88 18.4117 15.2 17.3717 15.2C15.9717 15.2 14.8517 14.78 14.0117 13.94C13.1717 13.1 12.7517 11.84 12.7517 10.16C12.7517 8.56 12.9717 7.18 13.4117 6.02C13.8917 4.82 14.4517 3.82 15.0917 3.02C15.7717 2.22 16.4717 1.6 17.1917 1.16C17.9117 0.679998 18.5517 0.339999 19.1117 0.139999L20.9117 2.6C19.7917 3.16 18.8117 3.88 17.9717 4.76C17.1717 5.64 16.7717 6.76 16.7717 8.12C16.9317 8.08 17.1717 8.06 17.4917 8.06C18.4117 8.06 19.2317 8.4 19.9517 9.08C20.7117 9.76 21.0917 10.62 21.0917 11.66Z" fill="#0061BB"/>
</svg>
