<svg width="22" height="16" viewBox="0 0 22 16" fill="none" xmlns="http://www.w3.org/2000/svg">
<path d="M0.931719 4.26C0.931719 3.18 1.29172 2.32 2.01172 1.68C2.73172 1.04 3.61172 0.719998 4.65172 0.719998C6.05172 0.719998 7.17172 1.14 8.01172 1.98C8.85172 2.82 9.27172 4.08 9.27172 5.76C9.27172 7.36 9.03172 8.76 8.55172 9.96C8.11172 11.12 7.55172 12.1 6.87172 12.9C6.23172 13.7 5.55172 14.34 4.83172 14.82C4.11172 15.26 3.47172 15.58 2.91172 15.78L1.11172 13.32C2.23172 12.76 3.19172 12.04 3.99172 11.16C4.83172 10.28 5.25172 9.16 5.25172 7.8C5.09172 7.84 4.85172 7.86 4.53172 7.86C3.61172 7.86 2.77172 7.52 2.01172 6.84C1.29172 6.16 0.931719 5.3 0.931719 4.26ZM12.9317 4.26C12.9317 3.18 13.2917 2.32 14.0117 1.68C14.7317 1.04 15.6117 0.719998 16.6517 0.719998C18.0517 0.719998 19.1717 1.14 20.0117 1.98C20.8517 2.82 21.2717 4.08 21.2717 5.76C21.2717 7.36 21.0317 8.76 20.5517 9.96C20.1117 11.12 19.5517 12.1 18.8717 12.9C18.2317 13.7 17.5517 14.34 16.8317 14.82C16.1117 15.26 15.4717 15.58 14.9117 15.78L13.1117 13.32C14.2317 12.76 15.1917 12.04 15.9917 11.16C16.8317 10.28 17.2517 9.16 17.2517 7.8C17.0917 7.84 16.8517 7.86 16.5317 7.86C15.6117 7.86 14.7717 7.52 14.0117 6.84C13.2917 6.16 12.9317 5.3 12.9317 4.26Z" fill="#0061BB"/>
</svg>
