<svg width="75" height="75" viewBox="0 0 75 75" fill="none" xmlns="http://www.w3.org/2000/svg">
<path d="M55.5275 38.8576C55.6522 37.9844 55.5275 36.9865 54.9042 36.238L50.7905 30.6247C49.9179 29.3773 48.422 28.6289 46.8015 28.7536L38.6987 29.0031L40.8179 23.5146L46.3028 17.0281C48.048 14.9075 48.048 11.9137 46.4275 9.79314C46.0535 9.29418 45.3056 8.91996 44.6823 8.91996C43.9343 8.91996 43.311 9.16944 42.9371 9.79314L39.0727 14.4085C39.8206 12.2879 39.0727 9.79314 37.2028 8.421C36.7042 8.04678 35.9562 7.92204 35.3329 8.04678C34.7096 8.17152 34.211 8.67048 33.9617 9.29418L32.9644 11.4148C32.2165 10.2921 31.0946 9.41892 29.5987 9.16944C28.6014 9.0447 27.7288 9.6684 27.4795 10.6663L23.8644 26.1341L20.4986 36.3628C20 37.9844 19.8753 39.606 20.1247 41.2277L22.2438 52.8285V66.9241C22.2438 67.5478 22.7425 68.1715 23.4904 68.1715C24.1137 68.1715 24.737 67.6726 24.737 66.9241V52.8285C24.737 52.7037 24.737 52.7037 24.737 52.579L22.4932 40.9782C22.2438 39.7308 22.3685 38.4834 22.7425 37.236L26.1082 26.8825V26.7578L29.7233 11.6642C30.4713 11.9137 30.9699 12.6622 30.9699 13.5353L30.8452 15.9054V16.0301L28.2274 21.8929C28.2274 22.0177 28.2274 22.0177 28.1028 22.1424L26.7315 28.3794C26.6069 28.7536 26.7315 29.0031 26.8562 29.2526C26.9808 29.5021 27.3548 29.7516 27.6041 29.7516C27.7288 29.7516 27.7288 29.7516 27.8535 29.7516C28.2274 29.7516 28.6014 29.5021 28.8507 29.2526L27.4795 32.2464C27.2302 32.8701 27.3548 33.6185 27.9781 33.868C28.1028 33.9927 28.3521 33.9927 28.4767 33.9927C28.9754 33.9927 29.3493 33.7432 29.5987 33.369L35.0836 22.8909L44.6823 11.4148C45.5549 12.6622 45.5549 14.2838 44.5576 15.4064L38.948 22.0177C38.8233 22.1424 38.8233 22.2672 38.6987 22.3919L36.0809 29.3773C35.5822 29.5021 35.2083 29.7516 34.7096 30.001L28.7261 34.6164C28.4767 34.8659 28.3521 35.1154 28.2274 35.3649C28.1028 35.6143 28.2274 35.9886 28.4767 36.238C28.9754 36.8617 29.7233 36.8617 30.222 36.4875L36.3302 31.8721C36.5795 31.6227 36.9535 31.4979 37.3275 31.4979L47.1754 31.1237C47.9234 31.1237 48.6713 31.4979 49.0453 31.9969L53.159 37.6102C53.2837 37.8597 53.4083 37.9844 53.2837 38.2339L51.6631 45.843C51.1645 45.7183 50.7905 45.4688 50.5412 45.0946C50.1672 44.5956 50.0426 44.0967 50.1672 43.473L50.7905 39.606C50.7905 39.2318 50.7905 38.8576 50.5412 38.6081L47.0508 34.6164C46.8015 34.3669 46.4275 34.1175 45.9289 34.2422L37.5768 35.4896C37.2028 35.4896 36.8288 35.8638 36.7042 36.238L34.3357 41.6019C33.3384 43.8472 33.837 46.342 35.4576 48.0884L38.3247 51.2069C39.0727 52.08 40.0699 52.579 41.1918 52.9532C41.3165 52.9532 41.4412 52.9532 41.5658 52.9532L45.4302 52.7037C46.8015 52.7037 48.1727 51.9553 48.9206 50.7079L49.17 50.2089C49.7932 49.0863 51.1645 48.5873 52.4111 48.7121L49.7932 54.3254C49.5439 54.8243 49.0453 55.1985 48.422 55.3233C47.4247 55.448 38.948 56.3212 37.8261 56.6954L33.9617 57.6933C33.5877 57.8181 33.3384 57.9428 33.2137 58.1923C33.0891 58.4418 32.9644 58.816 33.0891 59.0655C33.2137 59.5644 33.7124 59.9387 34.211 59.9387C34.3357 59.9387 34.4603 59.9387 34.4603 59.9387L36.9535 59.315L37.8261 67.0489C37.9507 67.6726 38.4494 68.1715 39.0727 68.1715H39.1973C39.8206 68.0468 40.3192 67.5478 40.3192 66.7994L39.4466 58.816C41.3165 58.5665 45.1809 58.0676 48.796 57.6933C50.1672 57.5686 51.4138 56.6954 52.0371 55.3233L54.9042 49.3358C55.1535 48.9615 55.1535 48.4626 55.0289 47.9636C54.9042 47.4647 54.5302 47.2152 54.0316 46.9657H53.907V46.841L55.5275 38.8576ZM48.5467 46.7162C48.6713 46.9657 48.9206 47.0904 49.0453 47.3399C48.1727 47.8389 47.5494 48.4626 47.0508 49.3358L46.8015 49.8347C46.5521 50.3337 45.9289 50.5832 45.4302 50.5832H45.3056L41.6905 50.8326C41.0672 50.7079 40.5686 50.3337 40.0699 49.8347L37.2028 46.7162C36.2055 45.7183 35.9562 44.0967 36.4548 42.8493L38.574 38.1091L45.6795 37.1112L48.2974 40.105L47.7987 43.3482C47.5494 44.4709 47.7987 45.7183 48.5467 46.7162ZM29.2247 28.8784L30.5959 22.7661L35.9562 10.6663C36.8288 11.4148 37.2028 12.7869 36.7042 13.9096L33.5877 21.0198L33.2137 21.394C33.2137 21.5187 33.0891 21.5187 33.0891 21.6435L29.2247 29.0031C29.1 29.0031 29.2247 29.0031 29.2247 28.8784Z" fill="#0061BB"/>
</svg>
