<svg width="75" height="75" viewBox="0 0 75 75" fill="none" xmlns="http://www.w3.org/2000/svg">
<g clip-path="url(#clip0)">
<path d="M66.1869 26.0304H8.07653C7.47098 26.0304 7 25.5246 7 24.8742V20.2495C7 18.3225 8.45781 16.7809 10.2296 16.7809H64.0339C65.8057 16.7809 67.2635 18.3466 67.2635 20.2495V24.8742C67.2635 25.5005 66.7925 26.0304 66.1869 26.0304ZM9.15307 23.7181H65.1104V20.2495C65.1104 19.6232 64.617 19.0933 64.0339 19.0933H10.2296C9.64648 19.0933 9.15307 19.6232 9.15307 20.2495V23.7181V23.7181Z" fill="#0061BB"/>
<path d="M63.4955 19.0933H51.6537C50.8014 19.0933 49.9716 18.732 49.366 18.0816C48.7605 17.4313 48.4241 16.5641 48.4241 15.6247V14.4686C48.4241 13.5532 48.7605 12.662 49.366 12.0117C49.9716 11.3613 50.779 11 51.6537 11H63.4955C64.3478 11 65.1776 11.3613 65.7832 12.0117C66.3887 12.662 66.7251 13.5292 66.7251 14.4686V15.6247C66.7251 16.54 66.3887 17.4313 65.7832 18.0816C65.1776 18.732 64.3702 19.0933 63.4955 19.0933ZM51.6537 13.3124C51.3621 13.3124 51.093 13.4328 50.8911 13.6496C50.6893 13.8664 50.5771 14.1554 50.5771 14.4686V15.6247C50.5771 15.9379 50.6893 16.2269 50.8911 16.4437C51.093 16.6605 51.3621 16.7809 51.6537 16.7809H63.4955C63.7871 16.7809 64.0562 16.6605 64.2581 16.4437C64.4599 16.2269 64.5721 15.9379 64.5721 15.6247V14.4686C64.5721 14.1554 64.4599 13.8664 64.2581 13.6496C64.0562 13.4328 63.7871 13.3124 63.4955 13.3124H51.6537V13.3124Z" fill="#0061BB"/>
<path d="M61.8808 30.6551H12.3827C9.4222 30.6551 7 28.0537 7 24.8742C7 24.2238 7.47098 23.718 8.07653 23.718H66.1869C66.7925 23.718 67.2635 24.2238 67.2635 24.8742C67.2635 28.0537 64.8637 30.6551 61.8808 30.6551ZM9.33249 26.0304C9.78105 27.3793 10.9697 28.3428 12.3827 28.3428H61.8808C63.2937 28.3428 64.4824 27.3793 64.931 26.0304H9.33249Z" fill="#0061BB"/>
<path d="M52.1919 53.7547C51.9676 53.7547 51.7658 53.6824 51.5639 53.5379L21.421 30.4142C20.9276 30.0529 20.8154 29.3303 21.1743 28.8004C21.5107 28.2705 22.1835 28.15 22.677 28.5354L52.8199 51.6591C53.3133 52.0204 53.4254 52.743 53.0666 53.273C52.8648 53.5861 52.5283 53.7547 52.1919 53.7547Z" fill="#0061BB"/>
<path d="M22.0715 53.7547C21.7351 53.7547 21.3987 53.5861 21.1968 53.273C20.8604 52.7431 20.9725 52.0205 21.4435 51.6591L51.5865 28.5355C52.0799 28.1742 52.7527 28.2946 53.0891 28.8004C53.4255 29.3303 53.3134 30.053 52.8424 30.4143L22.6995 53.5379C22.4976 53.7066 22.2733 53.7547 22.0715 53.7547Z" fill="#0061BB"/>
<path d="M56.4982 57.2233C55.8926 57.2233 55.4216 56.7175 55.4216 56.0671V54.9109C55.4216 54.2847 54.9282 53.7548 54.3451 53.7548H19.9184C19.3353 53.7548 18.8419 54.2847 18.8419 54.9109V56.0671C18.8419 56.7175 18.3709 57.2233 17.7654 57.2233C17.1598 57.2233 16.6888 56.7175 16.6888 56.0671V54.9109C16.6888 53.0081 18.1466 51.4424 19.9184 51.4424H54.3675C56.1393 51.4424 57.5971 53.0081 57.5971 54.9109V56.0671C57.5747 56.7175 57.1037 57.2233 56.4982 57.2233Z" fill="#0061BB"/>
<path d="M17.7654 64.1604C15.388 64.1604 13.4592 62.0889 13.4592 59.5357C13.4592 56.9824 15.388 54.9109 17.7654 54.9109C20.1427 54.9109 22.0715 56.9824 22.0715 59.5357C22.0715 62.0889 20.1427 64.1604 17.7654 64.1604ZM17.7654 57.2233C16.5767 57.2233 15.6123 58.2591 15.6123 59.5357C15.6123 60.8123 16.5767 61.8481 17.7654 61.8481C18.954 61.8481 19.9184 60.8123 19.9184 59.5357C19.9184 58.2591 18.954 57.2233 17.7654 57.2233Z" fill="#0061BB"/>
<path d="M56.4982 64.1604C54.1208 64.1604 52.192 62.0889 52.192 59.5357C52.192 56.9824 54.1208 54.9109 56.4982 54.9109C58.8755 54.9109 60.8043 56.9824 60.8043 59.5357C60.8043 62.0889 58.8755 64.1604 56.4982 64.1604ZM56.4982 57.2233C55.3095 57.2233 54.3451 58.2591 54.3451 59.5357C54.3451 60.8123 55.3095 61.8481 56.4982 61.8481C57.6868 61.8481 58.6512 60.8123 58.6512 59.5357C58.6512 58.2591 57.6868 57.2233 56.4982 57.2233Z" fill="#0061BB"/>
</g>
<defs>
<clipPath id="clip0">
<rect width="60.2635" height="53.1604" fill="white" transform="translate(7 11)"/>
</clipPath>
</defs>
</svg>
