<svg width="125" height="29" viewBox="0 0 125 29" fill="none" xmlns="http://www.w3.org/2000/svg">
<path d="M54.7995 11.0362C52.7671 11.0362 51.1581 11.8487 49.7185 13.5592H49.6762L51.4122 1.79946H46.1618L42.3934 27.3289H47.6438L48.8293 19.2467C49.0834 17.4079 50.0572 15.4836 52.132 15.4836C54.2491 15.4836 54.2067 17.4079 53.9527 19.2467L52.7671 27.3289H57.9751L59.4147 17.6645C59.9652 13.6875 58.5256 11.0362 54.7995 11.0362V11.0362ZM71.0164 11.0362C66.2741 11.0362 61.7012 14.0724 60.8967 19.4605C60.0922 24.8486 63.8183 27.842 68.5182 27.842C73.2605 27.842 77.8334 24.8059 78.6379 19.4605C79.4423 14.1152 75.7586 11.0362 71.0164 11.0362V11.0362ZM73.1334 19.4605C72.837 21.4704 71.3551 23.0098 69.238 23.0098C67.1209 23.0098 66.1047 21.4704 66.4011 19.4605C66.6975 17.5362 68.1795 15.9112 70.2965 15.9112C72.4136 15.9112 73.4298 17.5362 73.1334 19.4605ZM101.629 11.0362C99.597 11.0362 97.4799 12.0625 96.1673 14.0296C95.4051 11.9342 93.7115 11.0362 91.5944 11.0362C89.689 11.0362 88.08 11.7632 86.5557 13.5165H86.5134L86.8098 11.5494H81.6018L79.273 27.3289H84.5233L85.6242 19.8026C85.8783 18.0493 86.2593 15.3553 88.5881 15.3553C90.9169 15.3553 90.5359 18.0493 90.2395 19.8026L89.1386 27.3289H94.3889L95.4898 19.8026C95.7862 17.921 96.2096 15.4836 98.6231 15.4836C100.825 15.4836 100.401 18.1776 100.147 19.8026L99.0465 27.3289H104.297L105.779 17.2796C106.287 13.6875 105.355 11.0362 101.629 11.0362V11.0362ZM116.576 11.0362C111.791 11.0362 107.938 14.2007 107.176 19.4605C106.372 24.8914 109.59 27.842 114.459 27.842C117.804 27.842 121.361 26.1315 122.758 22.4111H117.719C116.999 23.4374 116.11 23.8651 115.009 23.8651C112.85 23.8651 111.918 22.625 112.257 20.3585H123.266L123.351 19.7598C124.155 14.4573 121.699 11.0362 116.576 11.0362V11.0362ZM112.85 17.1941C113.4 15.5691 114.798 14.7138 116.322 14.7138C117.719 14.7138 118.862 15.6974 118.905 17.1941H112.85ZM44.2564 1.7567C42.9015 1.11526 41.5042 0.68763 39.9799 0.473816L38.9637 7.23034C40.6997 7.52968 42.1817 8.51322 43.0285 10.0527L44.2564 1.7567V1.7567ZM35.7881 28.5262C37.3124 28.3552 38.7097 27.9275 40.488 27.3716L41.7159 19.0329C40.361 20.4868 38.5827 21.4704 36.8043 21.7697L35.7881 28.5262Z" fill="white"/>
<path d="M80.3315 0.473816C78.5955 0.473816 77.1559 1.97051 76.9018 3.63826C76.6478 5.39154 77.664 6.84547 79.4 6.84547C81.136 6.84547 82.5756 5.39154 82.8296 3.63826C83.0837 1.92775 82.1098 0.473816 80.3315 0.473816V0.473816ZM81.6441 3.5955C81.517 4.49352 80.5855 5.69088 79.5693 5.69088C78.5955 5.69088 78.0027 4.53628 78.1297 3.5955C78.2567 2.61196 79.1459 1.62841 80.1621 1.62841C81.1783 1.62841 81.7711 2.61196 81.6441 3.5955V3.5955ZM91.2556 4.70733H91.2133L88.6728 0.473816H87.8683L86.9368 6.67442H88.1223L88.7151 2.56919L91.2556 6.80271H92.1024L92.9916 0.602104H91.8484L91.2556 4.70733ZM99.0041 0.602104H97.8186L96.9294 6.67442H99.7663L99.9356 5.64812H98.2843L99.0041 0.602104ZM104.127 6.67442H105.271L106.16 0.602104H105.017L104.127 6.67442ZM114.416 4.70733H114.374L111.834 0.473816H111.029L110.098 6.67442H111.283L111.876 2.56919L114.416 6.80271H115.263L116.153 0.602104H115.009L114.416 4.70733ZM123.943 1.62841L124.07 0.602104H120.979L120.09 6.67442H123.224L123.351 5.64812H121.445L121.657 4.02313H123.52L123.689 2.99682H121.826L121.996 1.62841H123.943Z" fill="white"/>
<path d="M14.829 0.473793H4.41297L0.263489 28.569H7.08049L8.47776 19.2467H12.3309C18.301 19.2467 22.0694 16.3388 23.0433 9.71056C23.9325 3.25338 20.4604 0.473793 14.829 0.473793ZM15.8452 9.92438C15.3371 13.3454 12.9236 13.3454 10.4255 13.3454H9.3246L10.3408 6.3323H11.484C14.1515 6.37506 16.3956 6.37506 15.8452 9.92438ZM38.5403 0.43103C35.026 0.43103 31.2576 2.05602 28.3783 4.75007C25.6261 7.35861 23.8054 10.9079 23.255 14.5428C22.6622 18.5197 23.4244 21.9835 25.7531 24.6348C27.9549 27.1578 31.0882 28.569 34.5602 28.569C34.9836 28.569 35.3647 28.5262 35.7881 28.4834L36.8043 21.7269C36.4232 21.7697 36.0845 21.8124 35.7034 21.8124C31.681 21.8124 29.3945 18.7763 30.0297 14.5428C30.6648 10.3948 33.7981 7.14479 37.7782 7.14479C38.2016 7.14479 38.5827 7.18755 38.9637 7.27308L39.9799 0.516556C39.5142 0.473793 39.0484 0.43103 38.5403 0.43103Z" fill="white"/>
</svg>
