<svg width="85" height="85" viewBox="0 0 85 85" fill="none" xmlns="http://www.w3.org/2000/svg">
<path d="M26.3456 43.7091C24.5453 47.973 19.3338 49.7734 14.6909 47.7835C10.0479 45.7937 7.77383 40.7717 9.66891 36.5078C11.4692 32.3386 16.6807 30.4436 21.3237 32.4334C25.9666 34.4232 28.1459 39.4452 26.3456 43.7091Z" fill="#F6B37F"/>
<path d="M69.2691 48.6363C68.3216 53.1845 63.5839 56.0271 58.6566 54.9848C53.7294 54.0373 50.5078 49.4891 51.3606 45.0356C52.3081 40.4874 57.0458 37.6448 61.973 38.5924C66.9002 39.6347 70.2166 44.1828 69.2691 48.6363Z" fill="#F6B37F"/>
<path d="M27.4827 7.41844C23.3135 9.50302 18.3863 23.4319 16.7755 31.865C15.1647 40.2981 11.185 53.6584 18.3863 64.6498C24.5453 74.0305 47.76 80.4738 55.2456 69.8613C61.4994 60.9544 66.9951 33.5705 65.858 21.9158C64.721 10.2611 41.0325 0.596148 27.4827 7.41844Z" fill="#F8C499"/>
<path d="M31.936 22.9582C32.694 30.1595 39.1373 35.4657 46.3386 34.7077C53.5399 33.9496 58.8461 27.5064 58.0881 20.3051C57.3301 13.1038 50.8868 7.79755 43.6855 8.55558C36.4842 9.31361 31.178 15.7569 31.936 22.9582Z" fill="url(#paint0_radial)"/>
<path d="M30.8939 47.9732C29.0935 52.0476 24.3558 53.9427 20.2814 52.2371C16.1122 50.4368 14.2171 45.6991 16.0175 41.6247C17.8178 37.5503 22.5555 35.6552 26.6299 37.3608C30.7043 39.1611 32.5994 43.8988 30.8939 47.9732Z" fill="url(#paint1_radial)"/>
<path d="M60.836 55.6483C59.0357 59.7228 54.298 61.6178 50.2236 59.9123C46.1492 58.1119 44.2541 53.3742 45.9596 49.2998C47.76 45.2254 52.4977 43.3303 56.5721 45.0359C60.7413 46.8362 62.6364 51.5739 60.836 55.6483Z" fill="url(#paint2_radial)"/>
<path d="M43.6856 55.743C43.5909 55.743 43.5909 55.743 43.4961 55.743C40.464 55.2692 36.8633 54.7007 36.2001 54.2269C36.1053 54.1322 34.0207 52.5213 35.8211 48.3522C35.9158 48.0679 36.2948 47.9732 36.5791 48.0679C36.8633 48.1627 36.9581 48.5417 36.8633 48.8259C35.5368 51.9528 36.6738 53.0899 36.8633 53.2794C37.0529 53.3741 38.1899 53.7532 43.5909 54.6059C44.2542 53.6584 43.7804 47.6889 43.0224 42.3827C43.0224 42.0984 43.2119 41.8141 43.4961 41.7194C43.7804 41.6246 44.0646 41.9089 44.1594 42.1932C45.7702 52.9951 44.7279 55.0797 44.3489 55.364C44.2542 55.6482 43.9699 55.743 43.6856 55.743Z" fill="#005796"/>
<path d="M66.0475 26.2745C66.0475 24.6637 65.9527 23.2424 65.858 21.9158C65.2894 15.9463 60.836 10.8296 50.6026 7.22893C43.0222 4.48107 33.6416 4.0073 27.1036 7.32369C22.9344 9.40828 18.2915 23.4319 16.7754 31.865C16.7754 31.865 20.9446 30.1594 25.019 23.1476C28.9987 16.1358 31.3675 10.6401 31.3675 10.6401C31.3675 10.6401 39.3268 6.75516 49.0865 11.6824C57.8039 16.0411 66.0475 26.2745 66.0475 26.2745Z" fill="#A8B5A8"/>
<path d="M29.7567 25.2321C29.1882 25.2321 28.7145 25.1374 28.7145 25.1374C28.3354 25.0426 28.0512 24.6636 28.1459 24.2846C28.2407 23.9056 28.6197 23.6213 28.9987 23.7161C28.9987 23.7161 31.7466 24.1898 34.4944 22.2948C34.8735 22.1053 35.2525 22.2 35.5367 22.4843C35.7262 22.8633 35.6315 23.2423 35.3472 23.5266C33.1679 24.9479 30.9885 25.2321 29.7567 25.2321Z" fill="#666666"/>
<path d="M37.6213 31.9597L30.1358 33.381C29.3777 36.3184 30.3253 39.161 32.4099 39.7295C34.3997 40.2981 36.7685 38.3082 37.5266 35.3709C37.8108 34.1391 37.9056 33.002 37.6213 31.9597Z" fill="white"/>
<path d="M36.6738 35.0865C36.1053 37.3606 34.305 38.8767 32.6942 38.4976C31.0833 38.0239 30.3253 35.8445 30.9886 33.5704C31.5571 31.2963 33.3574 29.7803 34.9683 30.254C36.4843 30.6331 37.3371 32.8124 36.6738 35.0865Z" fill="#005796"/>
<path d="M56.5722 39.8244C55.8141 42.7618 53.4453 44.7516 51.4554 44.1831C49.4656 43.6146 48.4233 40.7719 49.1813 37.8346C49.9394 34.8972 52.2135 32.9073 54.2981 33.4759C56.3826 34.0444 57.4249 36.887 56.5722 39.8244Z" fill="white"/>
<path d="M55.7194 39.8243C55.1508 42.0984 53.3505 43.6145 51.7397 43.1407C50.1289 42.7617 49.3708 40.4876 50.0341 38.2135C50.6026 35.9394 52.403 34.4233 54.0138 34.8971C55.5299 35.2761 56.2879 37.5502 55.7194 39.8243Z" fill="#005796"/>
<path d="M49.2761 51.2896C48.8024 51.2896 48.3286 51.1948 47.8548 51.0053C45.6755 50.2473 44.6332 47.7837 45.3912 45.6043C45.9597 43.9935 47.5706 42.8564 49.2761 42.8564C49.7499 42.8564 50.2237 42.9512 50.6974 43.1407C52.8768 43.8987 53.9191 46.3623 53.161 48.5417C52.5925 50.2473 51.0765 51.2896 49.2761 51.2896ZM49.3709 44.3725C48.2338 44.3725 47.2863 45.1305 46.8125 46.1728C46.3388 47.5941 47.002 49.1102 48.4233 49.6787C48.7076 49.7735 48.9919 49.8682 49.3709 49.8682C50.5079 49.8682 51.5502 49.1102 51.9292 48.0679C52.4978 46.6466 51.7397 45.1305 50.4132 44.562C49.9394 44.4673 49.6551 44.3725 49.3709 44.3725Z" fill="#864443"/>
<path d="M35.8209 47.689C35.3472 47.689 34.8734 47.5942 34.3996 47.4047C32.2203 46.6467 31.178 44.1831 31.936 42.0037C32.5045 40.3929 34.1154 39.2559 35.8209 39.2559C36.2947 39.2559 36.7685 39.3506 37.2422 39.5401C38.2845 39.9191 39.1373 40.6772 39.5163 41.7195C39.9901 42.7618 39.9901 43.8988 39.6111 44.9411C39.1373 46.5519 37.5265 47.689 35.8209 47.689ZM35.8209 40.7719C34.6839 40.7719 33.7363 41.53 33.2626 42.5722C32.7888 43.9936 33.4521 45.5096 34.8734 46.0781C35.1577 46.1729 35.4419 46.2677 35.8209 46.2677C36.958 46.2677 38.0003 45.5096 38.3793 44.4673C38.6636 43.8041 38.5688 43.046 38.2845 42.3827C38.0003 41.7195 37.4318 41.2457 36.7685 40.9614C36.4842 40.8667 36.1052 40.7719 35.8209 40.7719Z" fill="#864443"/>
<path d="M20.8499 22.5791C20.8499 22.5791 24.0715 17.6519 29.7567 14.8093C39.2321 10.0716 58.2777 18.6942 58.2777 18.6942L51.0764 23.4319C51.0764 23.4319 54.1085 26.3693 59.699 27.5063C66.9003 29.0224 69.4586 23.7161 69.4586 23.7161C69.4586 23.7161 73.2488 17.2729 67.8478 13.2932C65.1 11.2086 63.0154 12.2509 59.9832 12.2509C56.2878 12.3457 52.9715 6.56567 43.9698 5.90239C38.6636 5.52338 33.6416 7.70272 30.041 10.7348C24.1662 15.8516 20.8499 22.5791 20.8499 22.5791Z" fill="#A8B5A8"/>
<path d="M63.4894 24.0951C63.2998 24.0951 63.1103 24.0003 63.0156 23.8108C62.8261 23.5266 62.9208 23.1475 63.2051 22.958C67.7533 20.0207 65.6687 16.42 65.5739 16.2305C65.3844 15.9462 65.4792 15.5672 65.7635 15.3777C66.0477 15.1882 66.4267 15.283 66.6162 15.5672C66.6162 15.662 69.4589 20.3049 63.8684 23.9056C63.6789 24.0951 63.5841 24.0951 63.4894 24.0951Z" fill="white"/>
<path d="M56.6669 24.2847C56.3826 24.2847 56.1931 24.0952 56.0984 23.9057C56.0036 23.6214 56.1931 23.2424 56.4774 23.1476C56.4774 23.1476 58.8462 22.2949 60.5518 20.7788C62.2574 19.2627 62.5416 17.1781 62.5416 17.1781C62.6364 16.8939 62.9207 16.6096 63.2049 16.7044C63.4892 16.7991 63.7735 17.0834 63.6787 17.3677C63.6787 17.4624 63.2997 19.8313 61.3098 21.6316C59.4148 23.3372 56.9512 24.2847 56.8564 24.2847C56.7617 24.1899 56.7617 24.2847 56.6669 24.2847Z" fill="white"/>
<path d="M20.8498 24.8532C20.6603 24.8532 20.4708 24.7584 20.3761 24.5689C20.1866 24.2847 20.2813 23.9056 20.5656 23.7161C20.5656 23.7161 21.7974 22.8633 23.7872 19.4522C26.0613 15.4725 26.6298 11.3981 26.6298 11.3981C26.6298 11.1139 27.0088 10.8296 27.2931 10.8296C27.5774 10.8296 27.8616 11.2086 27.8616 11.4929C27.8616 11.6824 27.2931 15.8516 24.9243 20.0207C22.8397 23.7161 21.4184 24.6637 21.3236 24.7584C21.1341 24.8532 20.9446 24.8532 20.8498 24.8532Z" fill="white"/>
<path d="M57.4249 14.9988C57.3301 14.9988 57.2354 14.9988 57.1406 14.904C57.0458 14.904 51.0763 11.8719 44.7278 10.5453C38.3793 9.31355 32.7888 10.1663 32.6941 10.1663C32.4098 10.2611 32.0308 9.97682 32.0308 9.69256C31.936 9.4083 32.2203 9.02928 32.5046 9.02928C32.7888 9.02928 38.3793 8.08174 44.9173 9.4083C51.4554 10.7349 57.6144 13.767 57.6144 13.8617C57.8986 14.0512 57.9934 14.3355 57.8986 14.7145C57.8039 14.904 57.6144 14.9988 57.4249 14.9988Z" fill="white"/>
<path d="M46.1493 46.6467C46.0545 46.6467 46.0545 46.6467 45.9598 46.6467L39.327 45.1306C38.948 45.0358 38.6637 44.6568 38.7585 44.2778C38.8532 43.8988 39.2322 43.6145 39.6113 43.7093L46.244 45.2253C46.6231 45.3201 46.9073 45.6991 46.8126 46.0781C46.7178 46.4571 46.4336 46.6467 46.1493 46.6467Z" fill="#864443"/>
<path d="M32.4099 42.2879C32.3152 42.2879 32.1257 42.2879 32.0309 42.1931L16.4913 31.8649C16.1122 31.6754 16.0175 31.2016 16.3018 30.8226C16.4913 30.4436 16.965 30.3489 17.3441 30.6331L32.789 40.9613C33.168 41.1508 33.2627 41.6246 32.9785 42.0036C32.8837 42.1931 32.5994 42.2879 32.4099 42.2879Z" fill="#864443"/>
<path d="M52.9715 46.8361C52.6873 46.8361 52.4978 46.7413 52.3083 46.4571C52.1187 46.078 52.2135 45.699 52.5925 45.4148L64.2473 38.2135C64.6263 38.024 65.0053 38.1187 65.2896 38.4977C65.4791 38.8767 65.3843 39.2558 65.0053 39.54L53.3505 46.7413C53.161 46.8361 53.0663 46.8361 52.9715 46.8361Z" fill="#864443"/>
<path d="M24.3558 59.8174C24.261 59.8174 24.261 59.8174 24.1663 59.8174C23.9768 59.7227 23.7873 59.4384 23.882 59.2489C23.882 59.1542 25.0191 56.3115 27.7669 52.6161C29.1882 50.6263 31.9361 48.0679 32.0309 47.9732C32.2204 47.7837 32.5046 47.7837 32.6941 47.9732C32.8836 48.1627 32.8836 48.447 32.6941 48.6365C32.6941 48.6365 29.9463 51.1948 28.525 53.0899C25.8718 56.6906 24.7348 59.4384 24.7348 59.5332C24.7348 59.6279 24.5453 59.8174 24.3558 59.8174Z" fill="#005796"/>
<path d="M70.2167 71.5669C70.6904 71.0932 70.9747 70.4299 70.9747 69.6719C70.9747 68.1558 69.8377 67.0187 68.5111 67.0187C67.1845 67.0187 66.0475 68.2505 66.0475 69.6719C66.0475 70.1456 66.237 70.6194 66.4265 70.9984C65.2895 70.9984 64.0577 70.8089 63.2049 70.4299C61.4993 69.6718 59.9832 68.5348 59.9832 68.5348C59.9832 68.5348 59.7937 69.9561 61.7836 72.4197C62.2573 72.9882 62.7311 73.462 63.1101 73.9358C63.0154 74.1253 62.8259 74.1253 62.7311 74.3148C61.6888 75.3571 61.4993 76.8732 62.3521 77.7259C62.9206 78.2945 63.7734 78.3892 64.6262 78.0102C65.0052 78.863 65.7632 79.5263 66.616 79.5263C67.5636 79.5263 68.3216 78.7682 68.7006 77.8207C69.1744 77.9154 69.6482 78.0102 70.1219 78.0102C72.3013 78.0102 74.1016 76.5889 74.1016 74.7886C74.1016 73.083 72.396 71.6617 70.2167 71.5669Z" fill="white"/>
<path d="M65.6685 71.4722C65.1948 71.4722 64.342 71.3775 63.1102 70.9984C61.0256 70.3352 59.2253 68.6296 59.2253 68.5348C59.0358 68.3453 59.0358 68.0611 59.2253 67.8716C59.4148 67.6821 59.699 67.6821 59.8885 67.8716C59.8885 67.8716 61.5941 69.4824 63.4892 70.1457C65.2895 70.7142 66.1423 70.6194 66.1423 70.6194C66.4266 70.5247 66.6161 70.7142 66.7108 70.9984C66.8056 71.2827 66.6161 71.4722 66.3318 71.567C66.2371 71.4722 66.0475 71.4722 65.6685 71.4722Z" fill="#005796"/>
<path d="M63.1101 74.1253C63.0153 74.1253 62.9206 74.1253 62.9206 74.0306C62.9206 74.0306 61.8783 73.462 61.0255 72.4197C60.078 71.1879 59.6042 70.2404 59.6042 70.2404C59.5094 69.9561 59.6042 69.6719 59.7937 69.5771C60.078 69.4824 60.3622 69.5771 60.457 69.7666C60.457 69.7666 60.836 70.6194 61.7835 71.7565C62.4468 72.6093 63.2996 73.083 63.2996 73.083C63.5839 73.1778 63.5839 73.462 63.4891 73.7463C63.3943 74.0306 63.2996 74.1253 63.1101 74.1253Z" fill="#005796"/>
<path d="M66.7109 80C66.0476 80 65.2895 79.621 64.8158 78.9577C64.6263 78.7682 64.5315 78.484 64.4368 78.1997C64.2472 78.3892 63.963 78.5787 63.584 78.6735C62.9207 78.7682 62.3522 78.5787 61.6889 78.0102C61.0256 77.4417 60.9309 76.4941 61.4046 75.6414C61.4994 75.3571 61.9732 74.5991 62.5417 74.6938C62.7312 74.6938 62.9207 74.9781 62.9207 75.1676C62.9207 75.3571 62.8259 75.6414 62.5417 75.6414C62.3522 75.8309 62.0679 76.2099 62.0679 76.6836C62.0679 76.9679 62.1627 77.1574 62.3522 77.3469C62.7312 77.7259 63.0154 77.8207 63.3945 77.7259C63.8682 77.6312 64.2472 76.8732 64.342 76.6836C64.4368 76.4941 64.721 76.3046 64.9105 76.3994C65.1948 76.4941 65.2895 76.6836 65.2895 76.9679C65.2895 76.9679 65.1948 77.8207 65.5738 78.3892C65.9528 78.863 66.4266 79.1472 66.8056 79.0525C67.1846 79.0525 67.4689 78.7682 67.7531 78.3892C68.2269 77.5364 67.8479 76.5889 67.8479 76.5889C67.7531 76.3994 67.8479 76.1151 68.0374 76.0204C68.2269 75.9256 68.5112 76.0204 68.7007 76.2099C68.7954 76.3046 70.0272 78.1997 71.8276 77.5364C72.7751 77.1574 73.1541 76.3994 73.3436 75.8309C73.5331 74.8833 73.3436 73.841 72.7751 73.1777C71.7328 72.0407 70.2167 72.0407 70.2167 72.0407C70.0272 72.0407 69.8377 71.9459 69.743 71.7564C69.6482 71.5669 69.6482 71.3774 69.8377 71.1879C69.8377 71.1879 70.7853 70.0509 70.5958 69.0086C70.501 68.44 70.122 68.1558 69.743 67.9663C69.2692 67.682 68.7007 67.682 68.1322 67.8715C67.5636 68.061 67.1846 68.3453 67.0899 68.7243C66.9004 69.1981 67.1846 69.7666 67.1846 69.7666C67.2794 69.9561 67.1846 70.3351 66.9951 70.4299C66.8056 70.5246 66.4266 70.4299 66.3318 70.2404C66.3318 70.2404 65.8581 69.2928 66.1423 68.44C66.4266 67.7768 66.9004 67.303 67.7531 67.0187C68.5112 66.7345 69.364 66.8292 70.122 67.2082C70.7853 67.5873 71.259 68.1558 71.4486 68.8191C71.6381 69.6719 71.3538 70.5246 70.9748 71.0932C71.6381 71.1879 72.5856 71.5669 73.3436 72.4197C74.1017 73.2725 74.4807 74.6938 74.1964 75.9256C73.9122 77.0627 73.1541 77.9155 72.1118 78.2945C70.7853 78.7682 69.6482 78.3892 68.8902 77.7259C68.8902 78.105 68.7954 78.484 68.5112 78.7682C68.1322 79.4315 67.4689 79.8105 66.8056 79.9053C66.8056 80 66.7109 80 66.7109 80Z" fill="#005796"/>
<path d="M18.9548 45.1305C18.9548 45.1305 14.3118 53.0898 17.6282 53.7531C21.7027 54.6059 18.102 46.6466 18.9548 45.1305Z" fill="#CCEAFB"/>
<path d="M37.0528 67.0187C35.3472 66.6397 30.799 63.7023 32.7888 61.902C34.4944 60.2912 35.4419 62.66 38.4741 63.3233C41.5062 63.9866 42.9275 62.1863 43.5908 63.7023C44.7278 66.3554 41.1272 68.061 37.0528 67.0187Z" fill="#E94954"/>
<path d="M38.3794 31.0122C38.3794 31.0122 35.6315 29.5909 32.4099 30.1594C29.1883 30.8227 27.3879 31.5807 27.3879 31.5807C27.3879 31.5807 29.8515 33.381 32.7889 33.1915C37.2424 32.8125 38.3794 31.0122 38.3794 31.0122Z" fill="#F8C499"/>
<path d="M31.2728 33.8549C29.8515 33.8549 29.0935 33.5706 29.0935 33.5706C28.8092 33.4758 28.6197 33.0968 28.7145 32.8126C28.8092 32.5283 29.1882 32.3388 29.4725 32.4335C29.4725 32.4335 30.7991 32.9073 33.8312 32.3388C36.8633 31.7703 37.8109 30.5385 37.8109 30.5385C38.0004 30.2542 38.3794 30.1595 38.6636 30.349C38.9479 30.5385 39.0427 30.9175 38.8531 31.2017C38.7584 31.3913 37.6213 32.9073 34.0207 33.4758C32.9784 33.8549 32.0309 33.8549 31.2728 33.8549Z" fill="#005796"/>
<path d="M51.2659 33.1916C51.2659 33.1916 54.0138 31.865 56.5722 33.9496C59.1305 36.0342 60.2676 39.1611 60.2676 39.1611C60.2676 39.1611 57.2354 39.6349 54.7718 38.024C50.9817 35.5604 51.2659 33.1916 51.2659 33.1916Z" fill="#F8C499"/>
<path d="M57.8987 40.2035C57.8987 40.2035 57.804 40.2035 57.8987 40.2035C57.7092 40.2035 56.0984 39.9192 53.3505 37.8346C50.5079 35.5605 50.2236 33.7602 50.2236 33.5707C50.2236 33.1917 50.4131 32.9074 50.7922 32.9074C51.1712 32.9074 51.4554 33.0969 51.4554 33.4759C51.4554 33.5707 51.7397 34.992 54.1085 36.8871C56.4774 38.7822 57.8987 39.0664 57.8987 39.0664C58.2777 39.1612 58.4672 39.4454 58.3725 39.7297C58.4672 39.9192 58.183 40.2035 57.8987 40.2035Z" fill="#005796"/>
<path d="M17.5335 42.0037C17.4387 42.0037 17.4387 42.0037 17.5335 42.0037C17.2492 41.909 17.0597 41.7194 17.0597 41.4352L17.9125 36.3185C17.9125 36.0342 18.1967 35.9395 18.481 35.9395C18.7653 35.9395 18.86 36.2237 18.86 36.508L18.0072 41.6247C17.9125 41.909 17.723 42.0037 17.5335 42.0037Z" fill="#005796"/>
<path d="M18.9548 44.0882C18.9548 44.0882 18.8601 44.0882 18.9548 44.0882C18.5758 44.0882 18.4811 43.804 18.4811 43.6145L19.8076 35.6551C19.8076 35.3709 20.0919 35.2761 20.3762 35.2761C20.6604 35.2761 20.7552 35.5604 20.7552 35.8446L19.4286 43.7092C19.3339 43.9935 19.1444 44.0882 18.9548 44.0882Z" fill="#005796"/>
<path d="M59.8885 34.1391C59.7937 34.1391 59.7937 34.1391 59.699 34.1391C59.6042 34.1391 56.8564 33.2864 54.298 29.0224C54.1085 28.6434 54.2032 28.2644 54.5823 27.9801C54.9613 27.7906 55.3403 27.8854 55.6246 28.2644C57.8039 31.9598 60.078 32.7178 60.1727 32.7178C60.5518 32.8126 60.7413 33.2864 60.6465 33.6654C60.457 33.9496 60.1728 34.1391 59.8885 34.1391Z" fill="#666666"/>
<defs>
<radialGradient id="paint0_radial" cx="0" cy="0" r="1" gradientUnits="userSpaceOnUse" gradientTransform="translate(45.0036 21.6449) rotate(174.215) scale(13.146)">
<stop stop-color="#ED7768"/>
<stop offset="1" stop-color="#F8C499"/>
</radialGradient>
<radialGradient id="paint1_radial" cx="0" cy="0" r="1" gradientUnits="userSpaceOnUse" gradientTransform="translate(23.4003 44.7841) rotate(23.2806) scale(8.08456)">
<stop stop-color="#F29D88"/>
<stop offset="1" stop-color="#F8C499"/>
</radialGradient>
<radialGradient id="paint2_radial" cx="0" cy="0" r="1" gradientUnits="userSpaceOnUse" gradientTransform="translate(53.4284 52.4606) rotate(23.2806) scale(8.08295)">
<stop stop-color="#F29D88"/>
<stop offset="1" stop-color="#F8C499"/>
</radialGradient>
</defs>
</svg>
