<svg width="85" height="85" viewBox="0 0 85 85" fill="none" xmlns="http://www.w3.org/2000/svg">
<path d="M25.6385 52.5433C25.6385 58.811 20.5869 63.8626 14.3192 63.8626C8.05156 63.8626 3 58.811 3 52.5433C3 46.2756 8.05156 41.2241 14.3192 41.2241C20.5869 41.2241 25.6385 46.2756 25.6385 52.5433Z" fill="#B1B1B2"/>
<path d="M81.767 51.7014C81.767 57.9691 76.7155 63.0206 70.4478 63.0206C64.1801 63.0206 59.1285 57.9691 59.1285 51.7014C59.1285 45.4337 64.1801 40.3821 70.4478 40.3821C76.7155 40.3821 81.767 45.4337 81.767 51.7014Z" fill="#B1B1B2"/>
<path d="M20.087 53.2881C20.9259 49.7171 18.7111 46.1421 15.1401 45.3032C11.5691 44.4643 7.99414 46.6791 7.15523 50.2501C6.31631 53.8211 8.53109 57.396 12.1021 58.2349C15.6731 59.0739 19.248 56.8591 20.087 53.2881Z" fill="#F6B37F"/>
<path d="M77.5573 52.5434C77.5573 56.1917 74.5638 59.1852 70.9154 59.1852C67.2671 59.1852 64.2736 56.1917 64.2736 52.5434C64.2736 48.895 67.2671 45.9015 70.9154 45.9015C74.5638 45.9015 77.5573 48.895 77.5573 52.5434Z" fill="#F6B37F"/>
<path d="M62.4027 26.5372C62.4027 26.5372 72.0381 30.8404 74.6574 35.7984C77.2768 40.7564 72.0381 46.2757 72.0381 46.2757L62.4027 26.5372Z" fill="#B1B1B2"/>
<path d="M12.1676 45.3402C11.5128 60.4013 24.5159 73.2173 41.2609 73.9657C58.0059 74.7141 72.038 63.1142 72.6928 48.0531C73.3477 32.9919 60.3446 20.1759 43.6931 19.4275C26.9481 18.5856 12.916 30.279 12.1676 45.3402Z" fill="#F8C499"/>
<path d="M26.7611 23.0759C26.7611 23.0759 34.432 10.6341 42.29 11.0083C50.148 11.3825 53.7028 20.2695 59.6898 20.5501C65.6769 20.8308 70.9155 18.8663 70.9155 18.8663C70.9155 18.8663 69.8865 27.6597 62.4027 29.7178C54.6383 31.7758 47.7157 28.221 41.5416 25.6017C33.0288 21.9533 26.7611 23.0759 26.7611 23.0759Z" fill="#B1B1B2"/>
<path d="M12.1677 45.3402C19.1837 36.5467 22.645 32.15 27.0417 22.9823C27.0417 22.9823 18.2482 22.7952 13.8515 29.4371C7.86447 38.6983 12.1677 45.3402 12.1677 45.3402Z" fill="#B1B1B2"/>
<path d="M57.3511 25.7889C57.164 25.7889 56.8834 25.7889 56.6963 25.7889C52.8608 25.6018 48.8383 23.076 45.2835 20.9244C43.2254 19.6147 41.2609 18.4922 39.7642 18.0244C36.1158 16.9019 31.7191 21.9534 31.7191 21.9534C31.4385 22.2341 31.0643 22.2341 30.7836 22.047C30.503 21.8599 30.503 21.3921 30.6901 21.2051C30.8772 20.9244 35.6481 15.4051 40.1384 16.8083C41.7287 17.3696 43.7867 18.5857 45.8448 19.8954C49.306 22.047 53.1415 24.4792 56.6963 24.5728C61.5608 24.7599 66.4252 22.3276 66.4252 22.3276C66.7059 22.1405 67.0801 22.3276 67.2671 22.6083C67.4542 22.8889 67.2672 23.2631 66.9865 23.4502C66.893 23.5437 62.2156 25.7889 57.3511 25.7889Z" fill="white"/>
<path d="M50.5222 27.0048C50.4286 27.0048 50.4286 27.0048 50.3351 27.0048C47.0609 25.9758 43.6932 24.1984 40.3255 21.579C37.9868 19.8016 36.2094 21.579 36.0223 21.7661C35.7417 22.0468 35.3675 22.0468 35.0868 21.7661C34.8062 21.4855 34.8062 21.1113 35.0868 20.9242C36.0223 19.8952 38.4545 18.5855 41.0739 20.55C44.348 23.0758 47.5286 24.7597 50.7093 25.6951C51.0834 25.7887 51.2705 26.1629 51.0834 26.4435C50.9899 26.8177 50.7093 27.0048 50.5222 27.0048Z" fill="white"/>
<path d="M15.6289 54.2271C14.974 57.7819 17.4063 61.2432 21.0546 61.8044C24.6094 62.4593 28.0707 60.027 28.632 56.3787C29.2868 52.8239 26.8546 49.3626 23.2062 48.8013C19.6514 48.1465 16.2837 50.5788 15.6289 54.2271Z" fill="url(#paint0_radial)"/>
<path d="M55.6672 54.695C55.0124 58.2498 57.4446 61.7111 61.0929 62.2724C64.6478 62.9272 68.109 60.495 68.6703 56.8466C69.3251 53.2918 66.8929 49.8305 63.2445 49.2693C59.6897 48.708 56.2285 51.1402 55.6672 54.695Z" fill="url(#paint1_radial)"/>
<path d="M41.9157 56.0046C41.8222 56.0046 41.7286 56.0046 41.6351 55.9111C40.8867 55.5369 39.577 54.2272 39.9512 52.4498C40.3254 50.5788 41.0738 48.1466 41.0738 48.0531C41.1673 47.7724 41.5415 47.5853 41.8222 47.6789C42.1028 47.7724 42.2899 48.1466 42.1964 48.4273C42.1964 48.4273 41.448 50.8595 41.0738 52.7304C40.7932 54.1336 42.1028 54.882 42.1028 54.882C42.3835 55.0691 42.477 55.4433 42.2899 55.724C42.2899 55.8175 42.1028 56.0046 41.9157 56.0046Z" fill="#005796"/>
<path d="M53.422 64.7045C53.2349 64.7045 53.0478 64.5174 52.9543 64.3303C52.9543 64.3303 52.4865 62.6465 51.364 60.9626C50.0543 59.0917 48.8382 58.5304 48.8382 58.5304C48.5575 58.4368 48.464 58.1562 48.5575 57.8755C48.6511 57.5949 48.9317 57.5013 49.2124 57.5949C49.3059 57.5949 50.7091 58.2497 52.2059 60.4013C53.422 62.1787 53.8897 63.9561 53.8897 64.0497C53.9833 64.3303 53.7962 64.611 53.5156 64.611C53.5156 64.7045 53.422 64.7045 53.422 64.7045Z" fill="#005796"/>
<path d="M33.6836 63.9561C33.59 63.9561 33.4965 63.9561 33.4965 63.8625C33.2158 63.769 33.1223 63.4884 33.3094 63.2077C33.3094 63.2077 33.8707 62.1787 34.619 61.1497C35.461 60.0271 36.49 58.811 36.49 58.7174C36.6771 58.5303 36.9577 58.5303 37.1448 58.6239C37.3319 58.811 37.3319 59.0916 37.2384 59.2787C37.2384 59.2787 36.2093 60.4948 35.3674 61.6174C34.619 62.5529 34.1513 63.4884 34.1513 63.5819C34.0578 63.8625 33.8707 63.9561 33.6836 63.9561Z" fill="#005796"/>
<path d="M13.1967 39.1661H13.1031C12.729 39.0725 12.5419 38.7919 12.6354 38.4177C12.6354 38.2306 13.5709 34.3952 15.3483 31.5887C17.1257 28.7823 21.2418 25.8824 21.4289 25.7888C21.7095 25.6017 22.0837 25.6953 22.2708 25.9759C22.4579 26.2565 22.3643 26.6307 22.0837 26.8178C22.0837 26.8178 18.0612 29.6243 16.3773 32.2436C14.6935 34.8629 13.8515 38.6048 13.8515 38.6984C13.758 38.979 13.4773 39.1661 13.1967 39.1661Z" fill="white"/>
<path d="M28.9126 48.895C28.7256 48.895 28.4449 48.8015 28.3514 48.6144C28.1643 48.3338 28.3514 47.9596 28.632 47.7725L30.503 46.837C30.9707 46.5563 31.8126 46.2757 32.561 45.9951C33.0287 45.808 33.4965 45.6209 33.7771 45.5273C33.3094 45.1531 32.2804 44.6854 31.3449 44.4048C30.0352 44.0306 28.4449 44.2177 28.4449 44.2177C28.1643 44.3112 27.7901 44.0306 27.7901 43.7499C27.6965 43.4693 27.9772 43.0951 28.2578 43.0951C28.3514 43.0951 30.1288 42.8145 31.6255 43.2822C31.8126 43.2822 35.0868 44.4048 35.1803 45.6209C35.1803 45.9951 34.9932 46.2757 34.7126 46.4628C34.2449 46.6499 33.59 46.9305 32.9352 47.2112C32.1868 47.4918 31.4384 47.7725 30.9707 48.0531L29.0997 48.9886C29.0997 48.895 29.0062 48.895 28.9126 48.895Z" fill="#005796"/>
<path d="M27.8836 46.3693C27.6965 46.3693 27.4159 46.2758 27.3223 45.9951C27.2288 45.7145 27.3223 45.3403 27.603 45.2467C27.6965 45.2467 29.9416 44.2177 32.7481 44.6854C33.3093 44.779 33.59 44.779 33.8706 44.8725C34.0577 44.6854 34.4319 44.5919 34.619 44.779C34.8997 44.9661 34.9932 45.3403 34.8997 45.6209C34.7126 46.1822 34.0577 46.1822 32.561 45.9016C30.1287 45.4338 28.0707 46.3693 28.0707 46.3693C28.0707 46.3693 27.9771 46.3693 27.8836 46.3693Z" fill="#005796"/>
<path d="M56.6028 48.7078C56.5092 48.7078 56.4157 48.7079 56.3221 48.6143C56.3221 48.6143 54.9189 47.9595 53.9834 47.5853C53.048 47.3046 52.4867 47.1175 52.0189 46.9304C51.5512 46.7434 51.0835 46.6498 50.6157 46.4627C50.2415 46.2756 50.0544 45.995 50.0544 45.7143C50.0544 44.4982 53.3286 43.1885 53.5157 43.1885C55.0125 42.6273 56.7899 42.8144 56.8834 42.8144C57.2576 42.8144 57.4447 43.095 57.4447 43.4692C57.4447 43.8434 57.1641 44.0305 56.7899 44.0305C56.7899 44.0305 55.1996 43.9369 53.8899 44.4047C52.9544 44.7789 52.0189 45.3401 51.4577 45.7143C51.7383 45.8079 52.0189 45.9014 52.2996 45.995C52.7673 46.1821 53.4222 46.3692 54.3576 46.6498C55.3867 47.024 56.6963 47.6788 56.7899 47.6788C57.0705 47.8659 57.2576 48.1466 57.0705 48.5208C56.977 48.6143 56.7899 48.7078 56.6028 48.7078Z" fill="#005796"/>
<path d="M51.0835 46.2757C50.7093 46.2757 50.4287 46.1821 50.3351 45.9015C50.148 45.6208 50.2416 45.2467 50.5222 45.0596C50.7093 44.8725 51.0835 44.8725 51.2706 45.0596C51.4577 45.0596 51.8319 44.966 52.2996 44.8725C55.1061 44.2176 57.4447 45.0596 57.5383 45.0596C57.8189 45.1531 58.006 45.5273 57.9125 45.8079C57.8189 46.0886 57.4447 46.2757 57.1641 46.1821C57.1641 46.1821 55.1061 45.4338 52.6738 45.995C52.019 46.0886 51.4577 46.2757 51.0835 46.2757Z" fill="#005796"/>
<path d="M49.6802 38.6984C49.119 38.6984 48.4641 38.6048 47.8093 38.5113C44.8158 37.8565 42.8513 36.7339 41.7287 35.3307C40.8868 36.0791 39.6707 36.8274 37.8933 37.4823C32.4675 39.5403 28.0708 36.8274 27.8837 36.7339C27.603 36.5468 27.5095 36.1726 27.6966 35.892C27.8837 35.6113 28.2579 35.5178 28.5385 35.7049C28.5385 35.7049 32.6546 38.2306 37.5191 36.3597C39.2965 35.7049 40.419 34.9565 41.1674 34.3017C40.6061 33.2726 40.419 32.2436 40.5126 31.3081C40.6061 29.9985 41.261 29.5307 41.6352 29.3436C42.1964 29.1565 42.7577 29.2501 43.319 29.7178C43.8803 30.2791 44.1609 31.0275 43.9738 31.7759C43.9738 31.8694 43.9738 31.963 43.8803 31.963C43.7867 32.5243 43.5061 33.4597 42.7577 34.3952C43.6932 35.6113 45.4706 36.7339 48.1835 37.2952C52.5802 38.2306 55.0124 35.3307 55.106 35.1436C55.2931 34.8629 55.6673 34.8629 55.9479 35.05C56.2286 35.2371 56.2286 35.6113 56.0415 35.892C55.7608 36.1726 53.6092 38.6984 49.6802 38.6984ZM42.1029 30.4662C42.0093 30.4662 42.0093 30.4662 42.1029 30.4662C41.9158 30.5598 41.7287 30.8404 41.6352 31.4017C41.5416 32.0565 41.7287 32.7113 41.9158 33.3662C42.3835 32.7113 42.4771 32.1501 42.5706 31.7759C42.5706 31.6823 42.5706 31.5888 42.6642 31.4952C42.7577 31.121 42.5706 30.7469 42.3835 30.5598C42.29 30.4662 42.1964 30.4662 42.1029 30.4662Z" fill="#005796"/>
<path d="M43.2255 66.669C45.2835 66.8561 47.248 67.2303 49.2125 66.5754C51.177 65.8271 51.9254 63.0206 50.2416 61.2432C48.4642 59.4658 45.4706 61.5239 43.8803 61.9916C42.29 62.4594 40.6062 62.3658 38.8288 61.4303C37.1449 60.4949 35.7417 60.8691 34.8998 62.8335C34.3385 64.1432 34.8062 65.9206 37.2385 66.669C39.1094 67.2303 41.0739 66.4819 43.2255 66.669Z" fill="#E94954"/>
<defs>
<radialGradient id="paint0_radial" cx="0" cy="0" r="1" gradientUnits="userSpaceOnUse" gradientTransform="translate(22.1506 55.2934) rotate(-170.329) scale(6.59836)">
<stop stop-color="#F29D88"/>
<stop offset="1" stop-color="#F8C499"/>
</radialGradient>
<radialGradient id="paint1_radial" cx="0" cy="0" r="1" gradientUnits="userSpaceOnUse" gradientTransform="translate(62.1628 55.8241) rotate(-170.329) scale(6.60061)">
<stop stop-color="#F29D88"/>
<stop offset="1" stop-color="#F8C499"/>
</radialGradient>
</defs>
</svg>
