<svg width="85" height="85" viewBox="0 0 85 85" fill="none" xmlns="http://www.w3.org/2000/svg">
<path d="M7 43.5246L21.1847 13.3101C21.1847 13.3101 37.3298 19.9988 45.1717 24.3811C52.8983 28.7633 55.7814 32.4536 56.9346 35.5673C58.0878 38.681 57.0499 44.1012 56.9346 45.0238C56.8193 46.0617 57.5112 76.6221 57.5112 76.6221H42.1733C42.1733 76.6221 37.6758 67.3963 36.9838 60.5923C36.2919 53.7883 37.9064 46.8689 37.9064 46.523C37.9064 46.177 32.1403 46.523 26.0282 46.523C20.0314 46.6383 7 43.5246 7 43.5246Z" fill="#F8C499"/>
<path d="M56.9346 45.1392C55.7814 53.2117 58.0878 54.7109 49.8999 54.7109C41.7121 54.7109 36.4072 46.0617 36.4072 37.8738C36.4072 29.686 39.175 23.8045 46.7862 26.6876C57.5112 30.8392 58.2032 36.2593 56.9346 45.1392Z" fill="url(#paint0_radial)"/>
<path d="M47.9395 43.0633C49.4387 42.0254 49.3233 40.4109 49.3233 39.4883C49.3233 38.5658 49.9 38.4504 50.2459 37.0666C50.5919 35.6827 50.3612 34.5295 48.7467 33.3762C47.2475 32.3383 45.5177 32.223 44.2492 32.4537C42.9806 32.6843 42.404 32.6843 38.1371 30.6085C33.7548 28.5327 24.6443 25.5343 15.5339 25.1884L11.6129 33.1456C11.6129 33.1456 29.1419 34.7601 32.9476 35.452C36.7532 36.144 41.1355 37.1819 41.3661 37.8738C41.5967 38.5658 41.0201 41.4488 42.058 43.0633C42.9806 44.1012 46.4403 44.2166 47.9395 43.0633Z" fill="white"/>
<path d="M53.9362 41.5642C54.5128 41.5642 54.9741 40.1803 54.8588 39.373C54.8588 38.5658 54.2822 38.6811 54.8588 37.5279C55.4354 36.3747 55.7814 35.7981 55.4354 34.7602C55.0894 33.7223 51.3991 32.4537 51.0532 33.261C50.5919 34.4142 51.5145 38.7964 51.7451 39.9497C52.2064 41.1029 53.3596 41.5642 53.9362 41.5642Z" fill="white"/>
<path d="M54.0516 53.9037C54.3975 49.2908 54.3975 45.3699 53.7056 43.5247C53.0137 41.6795 52.0911 41.7949 51.7451 42.0255C48.7467 44.2166 48.8621 45.1392 46.0943 45.1392C44.5951 45.1392 43.4419 45.6005 43.4419 46.2924C43.3266 46.9844 43.9032 48.1376 44.9411 48.4836C45.979 48.8295 47.1322 48.5989 47.8242 49.5215C48.5161 50.444 48.7468 71.4327 48.7468 73.7392C48.7468 76.1609 48.7468 76.7376 48.7468 76.7376H54.8588C54.8588 76.7376 54.7435 73.7392 54.5129 69.9335C54.3975 66.0126 53.8209 58.6319 54.0516 53.9037Z" fill="white"/>
<path d="M47.9395 55.2875C47.9395 52.5198 47.9395 50.9053 47.2476 49.9827C46.6709 49.0601 45.633 49.4061 44.3645 48.9448C44.1338 48.8295 43.4419 49.0601 43.5572 50.6746C43.7879 52.6351 45.5177 55.1722 45.7484 62.0916C45.979 69.1262 45.8637 76.7375 45.8637 76.7375H47.9395C47.9395 76.7375 47.9395 69.4722 47.9395 68.5496C47.9395 67.627 47.9395 57.94 47.9395 55.2875Z" fill="white"/>
<path d="M78.0387 33.607L71.2346 36.2594L74.6943 39.7191C74.925 39.9497 75.0403 40.411 74.925 40.757C74.8096 41.1029 74.4637 41.3336 74.1177 41.4489L61.6629 42.8328H61.5476C61.2016 42.8328 60.7403 42.6021 60.625 42.2562C60.5096 41.7949 60.625 41.3336 60.9709 41.1029L66.8524 37.5279L64.3153 34.9908C64.0846 34.7602 63.9693 34.2989 64.0846 33.9529C64.2 33.607 64.5459 33.3763 64.8919 33.261L77.3467 31.8771C77.808 31.8771 78.154 32.1078 78.3846 32.4537C78.5 32.915 78.3846 33.3763 78.0387 33.607Z" fill="#005796"/>
<path d="M52.437 19.1916L60.279 9.38921C60.5096 9.04325 60.9709 8.92792 61.4322 9.04325C61.7782 9.15857 62.1241 9.61986 62.0088 10.0811L59.8177 16.7698H63.9693C64.3153 16.7698 64.6612 17.0005 64.8919 17.3465C65.0072 17.6924 65.0072 18.0384 64.7765 18.3844L56.9346 28.1868C56.704 28.4174 56.4733 28.5327 56.1274 28.5327C56.012 28.5327 55.8967 28.5327 55.7814 28.4174C55.4354 28.3021 55.0895 27.8408 55.2048 27.3795L57.8572 20.6908H53.2443C52.8983 20.6908 52.5524 20.4602 52.3217 20.1142C52.2064 19.8836 52.2064 19.4223 52.437 19.1916Z" fill="#005796"/>
<defs>
<radialGradient id="paint0_radial" cx="0" cy="0" r="1" gradientUnits="userSpaceOnUse" gradientTransform="translate(46.8602 40.3529) scale(12.5876)">
<stop offset="0.7486" stop-color="#ED7768"/>
<stop offset="1" stop-color="#F8C499"/>
</radialGradient>
</defs>
</svg>
