<svg width="85" height="85" viewBox="0 0 85 85" fill="none" xmlns="http://www.w3.org/2000/svg">
<path d="M32.3681 52.219C31.6181 56.8128 26.9305 59.9065 21.868 59.0628C16.8055 58.219 13.4305 53.8128 14.1805 49.219C14.9305 44.6252 19.618 41.5315 24.6805 42.3752C29.743 43.1252 33.1181 47.5315 32.3681 52.219Z" fill="#F6B37F"/>
<path d="M73.712 46.4065C73.8995 51.094 69.9619 55.0315 64.8994 55.219C59.8369 55.4065 55.5244 51.844 55.3369 47.1565C55.1494 42.4689 59.0869 38.5314 64.1494 38.3439C69.2119 38.1564 73.5245 41.7189 73.712 46.4065Z" fill="#F6B37F"/>
<path d="M25.0555 16.7813C21.493 19.8751 19.8993 34.6876 20.368 43.3127C20.8368 51.9377 23.4618 71.6253 35.5556 76.9691C45.0244 81.0941 56.6494 78.4691 62.1807 70.3128C69.0245 60.6565 70.0557 32.9064 66.212 21.7501C62.3682 10.5938 36.7743 6.75002 25.0555 16.7813Z" fill="#F8C499"/>
<path d="M21.107 52.3205C22.4624 64.9177 33.984 74.1999 46.8611 72.8738C59.7382 71.5478 69.2265 60.2767 67.871 47.6795C66.5156 35.0823 54.994 25.8001 42.1169 27.1262C29.2398 28.3196 19.887 39.5907 21.107 52.3205Z" fill="url(#paint0_radial)"/>
<path d="M19.5242 20.0626C17.4617 23.5313 17.9304 28.8751 18.6804 33.2814C19.5242 37.6877 20.4617 42.7502 20.4617 42.7502L22.5242 34.8751C25.0555 31.7814 37.0555 22.3126 37.0555 22.3126C37.0555 22.3126 36.493 23.8126 36.3055 24.9376C35.8368 27.5626 36.9618 28.8751 36.9618 28.8751C36.9618 28.8751 38.1805 27.6564 39.2118 25.8751C40.243 24.0938 42.3055 22.5001 42.3055 22.5001L40.5243 27.7501C40.5243 27.7501 42.493 27.0001 44.0868 25.7813C45.5868 24.6563 47.1806 23.3438 47.1806 23.3438L46.0556 28.1251C46.0556 28.1251 57.4931 23.6251 58.9931 19.3126C61.5244 12 51.3993 7.31252 51.3993 7.31252C49.2431 6.18751 46.5243 6.75002 39.2118 8.34377C33.493 9.46878 31.3367 3 31.3367 3C31.3367 3 25.5242 6.09376 26.2742 10.4063C26.743 13.2188 28.243 12.4688 28.243 12.4688C28.243 12.4688 21.4929 16.5938 19.5242 20.0626Z" fill="#005796"/>
<path d="M55.1494 11.5312C55.1494 11.5312 66.7745 13.875 68.462 19.5938C70.2432 25.3126 68.3682 36.7501 68.3682 36.7501C68.3682 36.7501 63.962 32.3438 61.6182 29.5313C56.6494 23.6251 55.1494 11.5312 55.1494 11.5312Z" fill="#005796"/>
<path d="M30.3992 38.3439C29.7429 38.3439 29.3679 38.3439 29.3679 38.2502C28.9929 38.2502 28.8054 37.8752 28.8054 37.5939C28.8054 37.2189 29.1804 37.0314 29.4617 37.0314C29.4617 37.0314 31.7117 37.3127 33.8679 36.5627C36.493 35.7189 37.1492 34.5939 37.1492 34.5939C37.3367 34.3127 37.7117 34.2189 37.993 34.3127C38.2742 34.5002 38.368 34.7814 38.2742 35.1564C38.1805 35.3439 37.4305 36.6564 34.3367 37.6877C32.7429 38.2502 31.3367 38.3439 30.3992 38.3439Z" fill="#005796"/>
<path d="M59.462 38.3439C58.5245 38.3439 57.0245 38.2501 55.6182 37.7814C52.5245 36.7501 51.6807 35.3439 51.6807 35.2501C51.4932 34.9689 51.6807 34.5938 51.962 34.4063C52.2432 34.2188 52.6182 34.4063 52.8057 34.6876C52.8057 34.6876 53.462 35.8126 56.087 36.6564C58.337 37.4064 60.4932 37.1251 60.4932 37.1251C60.8682 37.1251 61.1495 37.3126 61.1495 37.6876C61.1495 38.0626 60.962 38.3439 60.587 38.3439C60.4932 38.2501 60.0245 38.3439 59.462 38.3439Z" fill="#005796"/>
<path d="M38.8368 45.469C38.7431 48.5627 36.9618 51.0002 34.8993 51.0002C32.743 51.0002 31.1493 48.3752 31.1493 45.3752C31.243 42.2814 33.0243 39.8439 35.0868 39.8439C37.2431 39.8439 38.9306 42.3752 38.8368 45.469Z" fill="white"/>
<path d="M37.9931 45.1877C37.8993 47.5314 36.5868 49.5002 34.8993 49.4065C33.2118 49.4065 31.993 47.4377 31.993 45.0002C32.0868 42.6564 33.3993 40.6877 35.0868 40.7814C36.7743 40.8752 38.0868 42.8439 37.9931 45.1877Z" fill="#005796"/>
<path d="M58.8994 45.7502C58.8057 48.844 57.0244 51.2815 54.9619 51.2815C52.8057 51.1877 51.2119 48.6565 51.2119 45.5627C51.3057 42.4689 53.0869 40.0314 55.1494 40.0314C57.3057 40.1252 58.9932 42.6564 58.8994 45.7502Z" fill="white"/>
<path d="M58.0557 45.469C57.9619 47.8128 56.6494 49.7815 54.9619 49.6878C53.2744 49.6878 52.0557 47.719 52.0557 45.2815C52.1494 42.9377 53.4619 40.969 55.1494 41.0627C56.8369 41.1565 58.1494 43.1252 58.0557 45.469Z" fill="#005796"/>
<path d="M67.6182 29.2501C67.2432 29.2501 66.9619 28.8751 66.9619 28.5001C66.9619 28.4063 67.1494 23.4376 66.1181 21C65.1806 18.75 62.1806 18 62.1806 18C61.8056 17.9063 61.6181 17.5313 61.7119 17.1563C61.8056 16.7813 62.1806 16.5938 62.5556 16.6875C62.7431 16.6875 66.3057 17.625 67.4307 20.5313C68.5557 23.2501 68.3682 28.4063 68.3682 28.5938C68.2744 28.9688 67.9932 29.2501 67.6182 29.2501Z" fill="white"/>
<path d="M22.9929 27.2814C22.7116 27.2814 22.4304 27.0939 22.3366 26.8126C22.2429 26.4376 22.4304 26.0626 22.7116 25.9689C22.7116 25.9689 26.2742 24.6564 30.3992 21.5626C34.5242 18.4688 39.7742 14.0626 39.868 13.9688C40.1492 13.6876 40.618 13.7813 40.8055 14.0626C41.0867 14.3438 40.993 14.8126 40.7117 15.0001C40.618 15.0001 35.3679 19.5001 31.2429 22.5939C27.0242 25.6876 23.3679 27.0939 23.1804 27.1876C23.1804 27.1876 23.0866 27.2814 22.9929 27.2814Z" fill="white"/>
<path d="M49.9931 24.7502C49.7119 24.7502 49.5244 24.5627 49.3369 24.3752C49.1494 24.0002 49.3369 23.6252 49.7119 23.4377C49.7119 23.4377 50.7431 22.8752 52.8994 20.4376C55.1494 17.9064 56.2744 15.8439 56.2744 15.8439C56.4619 15.4689 56.8369 15.3751 57.2119 15.5626C57.5869 15.7501 57.6806 16.1251 57.4931 16.5001C57.3994 16.5939 56.2744 18.7501 53.9306 21.3751C51.5869 24.0002 50.3681 24.6564 50.2744 24.6564C50.1806 24.6564 50.0869 24.7502 49.9931 24.7502Z" fill="white"/>
<path d="M39.7744 21.0938C39.4931 21.0938 39.2119 20.9063 39.1181 20.6251C39.0244 20.2501 39.2119 19.875 39.5869 19.7813C39.5869 19.7813 43.2431 18.6563 46.2432 16.4063C49.2432 14.25 50.6494 12 50.6494 12C50.8369 11.7188 51.3057 11.625 51.5869 11.8125C51.8682 12 51.9619 12.4688 51.7744 12.75C51.6807 12.8438 50.2744 15.1875 46.9932 17.5313C43.8057 19.875 40.0556 21.0001 39.8681 21.0938C39.9619 21.0001 39.8681 21.0938 39.7744 21.0938Z" fill="white"/>
<path d="M24.7386 47.0029C24.7386 47.0029 24.9731 50.484 23.9126 52.9944C22.9357 55.5472 22.4577 58.9828 26.231 59.0013C30.7592 58.9816 27.9182 48.4021 24.7386 47.0029Z" fill="white"/>
<path d="M63.824 35.0017C63.824 35.0017 63.9638 37.0763 63.3317 38.5724C62.7496 40.0938 62.4647 42.1413 64.7135 42.1523C67.4121 42.1406 65.7189 35.8356 63.824 35.0017Z" fill="white"/>
<path d="M45.8681 70.5003C43.8056 70.594 37.5244 69.0003 39.1181 66.1878C40.5244 63.7503 41.1806 66.2815 44.9306 66.0003C48.6807 65.719 50.7432 62.9065 52.0557 64.4065C54.3994 67.0315 50.8369 70.219 45.8681 70.5003Z" fill="#E94954"/>
<path d="M44.1805 61.0315C43.4305 61.0315 42.6805 60.9377 42.0243 60.844C41.8368 60.7502 41.5555 60.6565 41.2743 60.2815C40.3368 58.5002 42.868 51.0002 43.7118 48.6564C43.8055 48.3752 44.1805 48.1877 44.4618 48.2814C44.743 48.3752 44.9305 48.7502 44.8368 49.0314C43.0555 54.0002 41.8368 58.7815 42.3055 59.5315C43.993 59.9065 46.618 59.5315 46.618 59.5315C46.9931 59.4377 47.2743 59.719 47.2743 60.094C47.3681 60.469 47.0868 60.7502 46.7118 60.7502C46.8055 60.844 45.5868 61.0315 44.1805 61.0315Z" fill="#005796"/>
<path d="M62.1807 43.8752C62.1807 43.8752 59.3682 45.0939 56.2744 43.9689C53.1807 42.9377 51.2119 41.0627 51.2119 41.0627C51.2119 41.0627 53.4619 37.6876 56.1807 38.9064C58.8994 40.1252 62.1807 43.8752 62.1807 43.8752Z" fill="#F8C499"/>
<path d="M39.2118 39.1876C39.2118 39.1876 35.9306 38.1564 32.8368 39.1876C29.7431 40.2189 27.6805 42.7502 27.6805 42.7502C27.6805 42.7502 30.3056 44.2502 33.2118 43.5939C37.4306 42.6564 39.2118 39.1876 39.2118 39.1876Z" fill="#F8C499"/>
<path d="M30.3993 44.5315C29.8368 44.5315 29.5555 44.4377 29.5555 44.4377C29.1805 44.344 28.993 44.0627 29.0868 43.6877C29.1805 43.3127 29.4618 43.1252 29.8368 43.2189C29.8368 43.2189 31.243 43.5002 34.1493 42.5627C37.0555 41.6252 37.8055 40.3127 37.8055 40.3127C37.993 40.0314 38.368 39.9377 38.6493 40.0314C38.9305 40.2189 39.1181 40.5002 38.9305 40.8752C38.8368 41.0627 37.993 42.6564 34.5243 43.7814C32.5555 44.4377 31.243 44.5315 30.3993 44.5315Z" fill="#005796"/>
<path d="M59.1807 44.5314C58.337 44.5314 57.0245 44.4376 55.1495 43.7814C51.6807 42.6564 50.8369 41.0626 50.7432 40.8751C50.5557 40.5939 50.7432 40.2188 51.0245 40.0313C51.3057 39.8438 51.6807 40.0313 51.8682 40.3126C51.8682 40.3126 52.6182 41.6251 55.5245 42.5626C58.4307 43.5001 59.837 43.2189 59.837 43.2189C60.1182 43.1251 60.4932 43.3126 60.587 43.6876C60.6807 43.9689 60.4932 44.3439 60.1182 44.4376C60.0245 44.5314 59.7432 44.5314 59.1807 44.5314Z" fill="#005796"/>
<defs>
<radialGradient id="paint0_radial" cx="0" cy="0" r="1" gradientUnits="userSpaceOnUse" gradientTransform="translate(44.5424 49.9427) rotate(174.34) scale(23.5019 23.0011)">
<stop stop-color="#ED7768"/>
<stop offset="1" stop-color="#F8C499"/>
</radialGradient>
</defs>
</svg>
