<svg width="85" height="85" viewBox="0 0 85 85" fill="none" xmlns="http://www.w3.org/2000/svg">
<path d="M38.2108 27.8481L37.4542 26.0106L39.6159 24.6055L40.2644 24.9297L38.2108 27.8481Z" fill="#E0A269"/>
<path d="M45.0202 17.688C44.1555 18.0122 43.7232 18.8769 44.0474 19.7416C44.3717 20.6063 45.2364 21.0387 46.1011 20.7144L52.154 18.5527C53.0186 18.2284 53.451 17.3637 53.1267 16.499C52.8025 15.6343 51.8297 15.202 51.0731 15.5262L45.0202 17.688Z" fill="#F6B37F"/>
<path d="M23.8351 21.6872L31.8336 27.632C33.9953 28.0643 36.5894 26.7673 39.5078 24.6055L40.1563 25.0379L38.8593 25.7945C38.1026 26.2268 37.7784 27.1996 38.2107 27.9562C38.6431 28.7128 39.6159 29.0371 40.3725 28.6047L45.1283 26.0106C46.3173 25.3621 45.7768 24.2812 45.4526 23.6327L47.0739 22.8761C48.2628 22.3357 47.6143 21.2548 47.29 20.6063L48.9114 19.8497C49.8841 19.4173 49.8841 18.4445 49.3437 17.4718L50.3165 17.0394C51.3974 16.6071 51.8297 15.4181 51.2893 14.4453L49.5599 10.7704C49.0194 9.47331 47.6143 8.82479 46.2092 9.04097C33.8872 11.6351 24.2675 21.1467 23.8351 21.6872Z" fill="#F8C499"/>
<path d="M45.5606 23.6327L43.6151 20.9305L46.8577 22.9841L45.5606 23.6327Z" fill="#E0A269"/>
<path d="M47.3981 20.4982L45.5607 17.9041L48.8033 19.9578L47.3981 20.4982Z" fill="#E0A269"/>
<path d="M49.3437 17.4717L47.5062 14.8776L50.7488 16.8232L49.3437 17.4717Z" fill="#E0A269"/>
<path d="M23.8352 21.6872L21.7815 28.1724C21.7815 28.1724 10.5404 43.737 10.3243 54.1133C10 64.3816 10 64.3816 10 64.3816C10 64.3816 15.6205 68.8132 26.2131 71.1911C36.8056 73.569 46.5334 68.4889 46.5334 68.4889L56.5855 67.6242C56.5855 67.6242 58.6392 74.1094 64.584 75.2984C70.5288 76.4874 69.3398 75.2984 69.3398 75.2984L69.4479 44.7097C69.4479 44.7097 66.9619 41.4671 62.8546 40.6024C54.8562 38.873 53.451 45.034 53.451 45.034C53.451 45.034 48.6952 42.6561 39.832 44.7097C29.4557 46.9796 29.4557 52.2758 29.4557 52.2758V36.387L32.6983 26.9835L23.8352 21.6872Z" fill="#F8C499"/>
<path d="M37.346 52.1677L33.6711 49.8978C37.0218 48.3846 41.2372 47.1957 45.7768 46.7633C49.0195 46.439 52.2621 46.439 55.0723 46.8714L37.346 52.1677Z" fill="#F6B37F"/>
<path d="M18.5389 57.464L15.1882 60.1662C14.8639 56.4912 15.2962 52.1677 16.4852 47.7361C17.3499 44.4935 18.4308 41.5752 19.8359 39.0892L18.5389 57.464Z" fill="#F6B37F"/>
<path d="M32.8064 56.8154C33.4549 62.9764 38.9674 67.516 45.1283 66.8675C51.2893 66.219 55.8289 60.7065 55.1804 54.5456C54.5319 48.3846 49.0195 43.8449 42.8585 44.4935C36.6975 45.142 32.1579 50.6544 32.8064 56.8154Z" fill="url(#paint0_radial)"/>
<path d="M58.7473 22.4437L61.3414 23.2003L58.7473 28.6047L60.0443 33.3605L56.1532 35.7384L52.4782 39.3053L55.0723 33.7929L56.9098 30.8745L55.2885 26.2268L58.7473 22.4437Z" fill="#005796"/>
<path d="M42.8585 30.4421L47.5063 29.037V31.6311L48.8033 35.4141L48.2629 38.3325L48.371 41.6832L46.8577 37.792L46.2092 35.5222L43.1828 33.9009L42.8585 30.4421Z" fill="#005796"/>
<path d="M70.8531 23.8488L74.6361 26.9833L68.4752 30.9825L65.2326 36.7111L59.0716 39.4133L63.8274 34.2251L65.2326 29.4693L70.8531 23.8488Z" fill="#005796"/>
<defs>
<radialGradient id="paint0_radial" cx="0" cy="0" r="1" gradientUnits="userSpaceOnUse" gradientTransform="translate(43.958 55.6723) rotate(174.215) scale(11.2305)">
<stop offset="0.4581" stop-color="#ED7768"/>
<stop offset="0.852" stop-color="#F4AA87"/>
<stop offset="1" stop-color="#F8C499" stop-opacity="0"/>
</radialGradient>
</defs>
</svg>
