<svg width="85" height="85" viewBox="0 0 85 85" fill="none" xmlns="http://www.w3.org/2000/svg">
<path d="M38.1959 69.0836C36.3284 68.6183 35.3947 67.8737 35.3947 66.2915C35.3947 64.7094 36.6085 63.4995 38.1959 63.4995H53.0424C54.6297 63.4995 55.8436 64.8024 55.8436 66.2915C55.8436 67.8737 55.3767 68.5252 53.0424 69.0836C49.961 69.642 49.0273 69.8282 45.4791 69.7351C41.8375 69.642 38.1959 69.0836 38.1959 69.0836Z" fill="#005796"/>
<path d="M23.8163 23.4797C23.8163 23.4797 17.3735 34.7411 11.3975 37.9054C2.34024 42.745 -2.79534 51.3074 1.59325 56.147C5.79508 60.7074 14.6656 58.2876 19.9879 49.0737C25.497 39.8599 27.0844 27.2955 27.0844 27.2955L23.8163 23.4797Z" fill="#7B431D"/>
<path d="M54.1629 17.151C54.1629 17.151 63.3135 26.2718 70.0365 27.7609C80.0275 29.9015 87.3107 36.8817 84.3227 42.745C81.5215 48.2361 72.3708 48.3292 64.6208 40.8837C56.9641 33.3451 52.0153 21.6183 52.0153 21.6183L54.1629 17.151Z" fill="#7B431D"/>
<path d="M39.3164 14.9173C29.232 16.9648 23.2561 21.7114 21.8555 26.551C20.4549 31.4836 21.7621 42.1866 25.0302 47.3985C27.738 51.6797 30.726 55.4955 30.726 55.4955L61.913 50.2836C61.913 50.2836 62.9401 47.5846 64.0606 41.6282C65.1811 35.5787 64.9943 22.642 57.8979 17.9886C53.0424 14.8242 47.5333 13.2421 39.3164 14.9173Z" fill="#D17935"/>
<path d="M49.1207 44.5133C49.1207 44.5133 46.7863 43.2103 45.946 38.4638C45.1056 33.8103 47.7201 27.4816 46.8797 22.8282C46.0394 18.1747 44.3586 15.5688 39.4098 16.4064C34.461 17.3371 32.6869 19.943 34.5543 25.9925C35.7682 30.0876 40.3435 37.0678 40.717 39.7668C41.0905 42.4658 39.97 46.0024 39.97 46.0024L49.1207 44.5133Z" fill="white"/>
<path d="M36.6087 65.9193C31.8466 65.2679 28.0182 62.755 27.3646 57.2639C26.6176 50.1906 37.3556 44.8857 44.3587 43.7689C53.416 42.3728 60.419 43.7689 63.5938 49.5392C66.7685 55.3094 62.7534 60.149 57.7112 62.755C51.0816 66.1985 44.6388 67.0362 36.6087 65.9193Z" fill="white"/>
<path d="M42.958 66.85C40.9038 66.85 38.8496 66.6639 36.5152 66.3847C32.5001 65.8263 27.6447 63.8718 26.8977 57.357C26.1507 50.2837 36.702 44.6065 44.2653 43.3966C54.2563 41.8144 60.9792 43.8619 64.0606 49.4461C65.2744 51.6797 65.5546 53.9134 64.9009 56.1471C64.0606 58.9391 61.5395 61.5451 57.8979 63.4065C53.1358 65.7332 48.3737 66.85 42.958 66.85ZM50.3346 43.7689C48.5605 43.7689 46.5062 43.955 44.3586 44.2342C40.6237 44.7926 36.3285 46.5609 33.1537 48.7015C30.4459 50.5629 27.3646 53.4481 27.8314 57.2639C28.485 63.1273 32.967 64.9886 36.6086 65.454C38.8496 65.7332 40.9038 65.9193 42.8647 65.9193C48.0936 65.9193 52.6689 64.8025 57.431 62.4758C60.7925 60.8005 63.1268 58.3807 63.8738 55.7748C64.4341 53.8203 64.2473 51.8659 63.1268 49.8184C60.9792 45.8164 56.684 43.7689 50.3346 43.7689Z" fill="#BEB4AA"/>
<path d="M50.1478 61.0797C50.1478 61.0797 49.6809 62.6619 47.9068 63.0342C46.4128 63.4064 45.1056 62.1035 45.1056 62.1035L47.5333 59.7767L50.1478 61.0797Z" fill="#E94954"/>
<path d="M43.7051 62.5688C42.1177 62.5688 40.8105 61.7311 40.7171 61.7311C40.5303 61.6381 40.5303 61.3589 40.6237 61.1727C40.7171 60.9866 40.9972 60.9866 41.184 61.0796C41.184 61.0796 43.2382 62.2895 44.9189 61.6381C46.5063 60.9866 47.1599 59.2183 47.1599 59.2183C47.2533 59.1252 47.3466 59.0321 47.44 58.9391C47.6268 58.9391 47.7201 59.0321 47.8135 59.1252C47.8135 59.2183 48.7473 60.6143 50.8949 60.7074H50.9882C52.8557 60.7074 53.416 59.3113 53.5093 59.2183C53.6027 59.0321 53.7895 58.9391 53.9762 59.0321C54.163 59.1252 54.2563 59.3113 54.163 59.4975C54.163 59.5905 53.3226 61.4519 50.8949 61.4519C49.2141 61.4519 48.0936 60.6143 47.6268 60.0559C47.2533 60.7074 46.5063 61.8242 45.199 62.2895C44.6388 62.5688 44.1719 62.5688 43.7051 62.5688Z" fill="#45372A"/>
<path d="M47.44 59.7767C47.2533 59.7767 47.0665 59.6836 47.0665 59.4975L45.7593 52.4242C45.7593 52.2381 45.8527 52.0519 46.0394 51.9589C46.2261 51.9589 46.4129 52.0519 46.5063 52.2381L47.8135 59.3113C47.8135 59.4975 47.7201 59.6836 47.44 59.7767Z" fill="#45372A"/>
<path d="M40.3435 51.3075C40.717 53.2619 43.4248 54.4718 46.4128 53.9134C49.4008 53.355 51.5484 51.3075 51.1749 49.353C50.8014 47.3055 48.0935 46.1887 45.1056 46.7471C42.1176 47.3055 39.97 49.353 40.3435 51.3075Z" fill="#005796"/>
<path d="M28.6718 39.2084C29.232 42.2797 31.5664 44.5134 33.8073 44.048C36.1417 43.6758 37.5423 40.7906 36.982 37.7193C36.4218 34.648 34.0875 32.4144 31.7531 32.8797C29.5121 33.252 28.1115 36.1371 28.6718 39.2084Z" fill="white"/>
<path d="M29.6989 39.0223C30.0724 41.349 31.8465 42.9312 33.5272 42.652C35.208 42.3728 36.2351 40.2322 35.8616 37.9054C35.4881 35.5787 33.714 33.9965 32.0332 34.2757C30.2591 34.648 29.232 36.6955 29.6989 39.0223Z" fill="#005796"/>
<path d="M35.7682 30.7391C35.7682 30.7391 32.22 30.646 29.5121 32.6005C26.8043 34.5549 25.4037 37.5332 25.4037 37.5332C25.4037 37.5332 28.3917 38.1846 31.0995 36.7886C35.0212 34.648 35.7682 30.7391 35.7682 30.7391Z" fill="#B16429"/>
<path d="M27.8314 38.7431C27.4579 38.7431 27.2711 38.4639 27.1777 38.1847C27.1777 37.8124 27.4579 37.5332 27.738 37.5332C27.738 37.5332 29.232 37.4401 31.7531 35.6718C34.3675 33.9035 34.741 32.4144 34.741 32.4144C34.8344 32.0421 35.1145 31.8559 35.488 31.949C35.8615 32.0421 36.0483 32.3213 35.9549 32.6936C35.9549 32.8797 35.5814 34.7411 32.5001 36.7886C29.6055 38.65 27.9247 38.7431 27.8314 38.7431Z" fill="#005796"/>
<path d="M50.3345 35.858C50.8948 38.9293 53.2291 41.1629 55.4701 40.6976C57.8045 40.3253 59.2051 37.4401 58.6448 34.3689C58.0846 31.2976 55.7502 29.0639 53.5093 29.5293C51.1749 29.9015 49.7743 32.7867 50.3345 35.858Z" fill="white"/>
<path d="M51.3616 35.6719C51.7351 37.9986 53.5092 39.5808 55.1899 39.3016C56.8707 39.0224 57.8978 36.8818 57.5243 34.555C57.1508 32.2283 55.3767 30.6461 53.696 30.9253C52.0152 31.2045 50.9881 33.3451 51.3616 35.6719Z" fill="#005796"/>
<path d="M49.1206 29.6223C49.1206 29.6223 52.202 27.9471 55.5634 28.4124C58.9249 28.8778 61.446 31.0184 61.446 31.0184C61.446 31.0184 59.1116 32.9728 56.0303 32.8797C51.5483 32.7867 49.1206 29.6223 49.1206 29.6223Z" fill="#B16429"/>
<path d="M56.8707 33.5313C56.2171 33.5313 55.4701 33.5313 54.6298 33.3451C50.9882 32.8798 49.7743 31.3907 49.6809 31.2976C49.4942 31.0184 49.4942 30.6461 49.7743 30.46C50.0544 30.2738 50.4279 30.2739 50.6147 30.5531C50.6147 30.5531 51.6418 31.763 54.7231 32.1352C57.8045 32.5075 59.1117 31.9491 59.2051 31.9491C59.4852 31.856 59.8587 31.9491 60.0455 32.3214C60.1388 32.6006 60.0455 32.9729 59.7653 33.159C59.7653 33.159 58.8316 33.5313 56.8707 33.5313Z" fill="#005796"/>
<path d="M26.991 22.642C26.991 22.642 22.9759 30.0876 26.6175 30.646C31.2862 31.3905 27.3645 22.8282 26.991 22.642Z" fill="#CCEAFB"/>
<path d="M50.3336 24.7933C50.0795 24.7933 49.8253 24.6667 49.8253 24.4133L47.9191 13.9C47.9191 13.6467 48.0461 13.3933 48.3003 13.2667C48.5545 13.2667 48.8086 13.3933 48.9357 13.6467L50.8419 24.16C50.969 24.4133 50.7149 24.6667 50.3336 24.7933C50.4607 24.7933 50.3336 24.7933 50.3336 24.7933Z" fill="#005796"/>
<path d="M46.0128 23.5267C45.7587 23.5267 45.5045 23.4 45.5045 23.1467L43.5983 12.6333C43.5983 12.38 43.7254 12.1267 43.9795 12C44.2337 12 44.4878 12.1267 44.6149 12.38L46.5212 22.8933C46.6482 23.1467 46.3941 23.4 46.0128 23.5267C46.1399 23.5267 46.1399 23.5267 46.0128 23.5267Z" fill="#005796"/>
<path d="M42.0732 23.9067C41.8191 23.9067 41.5649 23.7801 41.5649 23.5267L39.6587 13.0134C39.6587 12.7601 39.7858 12.5067 40.0399 12.3801C40.2941 12.3801 40.5483 12.5067 40.6753 12.7601L42.5816 23.2734C42.7087 23.6534 42.4545 23.9067 42.0732 23.9067C42.2003 23.9067 42.2003 23.9067 42.0732 23.9067Z" fill="#005796"/>
<path d="M54.29 25.2391C54.0359 25.2391 53.7817 25.1124 53.7817 24.8591L52.1296 15.2324C52.1296 14.9791 52.2567 14.7257 52.5109 14.5991C52.765 14.5991 53.0192 14.7257 53.1463 14.9791L54.7983 24.6057C54.7983 24.9857 54.6713 25.2391 54.29 25.2391Z" fill="#005796"/>
<path d="M30.5392 71.7826C30.3525 71.8757 30.0723 71.9688 29.7922 71.8757C25.4036 70.6658 25.0301 70.0143 24.8434 69.7351C24.2831 68.8044 24.0964 66.1054 24.8434 63.4995C24.9368 63.1272 24.9368 62.9411 24.8434 62.9411C24.6566 62.6619 23.6295 62.5688 22.9759 62.4757C22.4157 62.3827 21.6687 62.2896 21.0151 62.1034C20.2681 61.9173 19.7078 61.452 19.4277 60.8005C18.5873 58.9391 20.2681 55.8678 20.5482 55.2163C20.8283 54.751 21.3886 54.5648 21.8554 54.844C22.3223 55.1233 22.509 55.6817 22.2289 56.147C21.5753 57.2638 20.8283 59.3114 21.2018 60.0559C21.2018 60.149 21.2952 60.2421 21.4819 60.2421C22.0422 60.4282 22.6958 60.4282 23.256 60.5213C24.5633 60.7074 25.7771 60.8935 26.4308 61.8242C26.8042 62.3827 26.8976 63.1272 26.6175 63.9648C26.0573 66.1985 26.244 68.1529 26.4308 68.7114C26.8976 68.9906 28.7651 69.6421 30.2591 70.1074C30.726 70.2005 31.0995 70.7589 30.9127 71.2242C30.9127 71.4104 30.8193 71.6896 30.5392 71.7826Z" fill="#005796"/>
<path d="M23.7229 73.0857C23.5362 73.1788 23.3494 73.2719 23.1627 73.1788C22.6024 73.1788 19.7078 72.9927 18.4006 71.6897C17.3735 70.5729 18.1205 68.8045 18.7741 67.1293C18.9608 66.5709 19.3343 65.8263 19.3343 65.454C18.8675 65.0818 17 64.6164 15.2259 64.3372C14.6656 64.2441 14.3855 63.7788 14.3855 63.3135C14.4789 62.755 14.9457 62.4758 15.4126 62.4758C18.9608 62.9412 20.9217 63.7788 21.2018 64.9887C21.3886 65.7333 21.0151 66.6639 20.5482 67.7808C20.2681 68.5253 19.6144 70.0144 19.8012 70.3867C20.3614 70.9451 22.1355 71.2243 23.256 71.3174C23.8163 71.3174 24.1898 71.7828 24.1898 72.3412C24.1898 72.6204 24.003 72.8996 23.7229 73.0857Z" fill="#005796"/>
<path d="M67.5153 68.5253C67.2352 68.5253 67.0484 68.3392 66.8617 68.1531C66.5815 67.6877 66.6749 67.1293 67.1418 66.8501C68.8225 65.7333 70.69 64.2441 71.1569 63.6857C70.9701 63.0342 69.3828 61.1729 68.5424 60.056C67.9822 59.3115 67.702 58.5669 67.7954 57.8224C67.9822 56.3333 69.3828 55.2164 70.7834 54.0996L71.0635 53.8204C71.2503 53.7273 71.2503 53.6343 71.2503 53.6343C71.2503 53.0758 69.8496 51.8659 68.6358 51.2145C68.1689 50.9352 67.9822 50.3768 68.2623 49.9115C68.5424 49.4461 69.1026 49.26 69.5695 49.5392C70.1298 49.8184 73.0244 51.5867 73.1177 53.4481C73.1177 53.9135 73.0244 54.658 72.2774 55.3095L71.9972 55.5887C70.8768 56.4263 69.7563 57.357 69.6629 58.0085C69.6629 58.1016 69.6629 58.3808 70.0364 58.8461C72.184 61.5451 73.2111 62.8481 73.0244 63.9649C73.0244 64.3372 72.931 65.0818 68.1689 68.4323C67.9822 68.5253 67.7954 68.6184 67.5153 68.5253Z" fill="#005796"/>
<path d="M74.4251 66.3846C74.1449 66.3846 73.8648 66.1985 73.6781 65.8262C73.3979 65.3608 73.6781 64.8024 74.1449 64.5232C75.172 64.0579 76.666 63.0341 76.9462 62.2896C76.9462 61.9173 75.7323 60.8005 75.172 60.242C74.2383 59.4044 73.5847 58.6599 73.3979 57.9153C73.1178 56.7054 74.6118 55.2163 77.5998 53.2618C78.0666 52.9826 78.6269 53.1688 78.907 53.5411C79.1871 54.0064 79.0004 54.5648 78.6269 54.844C77.0395 55.7747 75.5455 56.9846 75.2654 57.543C75.4522 57.8222 76.0124 58.3806 76.4793 58.7529C77.7865 60.0559 79.1871 61.3589 78.7203 62.7549C78.0666 64.4301 75.5455 65.8262 74.9853 66.1054C74.7986 66.3846 74.6118 66.3846 74.4251 66.3846Z" fill="#005796"/>
</svg>
