<svg width="247" height="150" viewBox="0 0 247 150" fill="none" xmlns="http://www.w3.org/2000/svg">
<path d="M40.3846 78.1656L42.1669 78.8339L43.1694 77.0517C43.8377 75.8264 44.9516 75.715 46.0655 76.272C48.1819 77.2745 49.63 80.9503 48.9616 83.4009L46.8452 91.3096L40.1618 86.854C37.8227 85.2945 36.5974 80.9503 38.0454 78.9453C38.491 78.1656 39.2707 77.8314 40.3846 78.1656Z" fill="#9ED5D5"/>
<path d="M35.8177 76.0492L35.5949 77.8314L37.4885 78.4998C38.7138 78.9453 39.1593 79.9478 38.8252 81.0617C38.2682 83.2895 35.2607 85.1831 32.9215 85.0718L25.1242 84.4034L27.909 77.2745C28.9115 74.7125 32.5873 72.8189 34.7038 73.9328C35.5949 74.1556 36.0404 74.9353 35.8177 76.0492Z" fill="#F7CD9D"/>
<path fill-rule="evenodd" clip-rule="evenodd" d="M58.9867 51.6548C57.7614 51.5434 56.6475 51.6548 55.4223 51.8776C55.3109 51.8776 55.1995 51.9889 55.1995 52.1003C55.1995 52.2117 55.1995 52.3231 55.1995 52.4345C55.3109 52.5459 55.4223 52.6573 55.5336 52.7687C56.6475 53.5484 57.7614 54.4395 58.8753 55.1079C61.1031 56.5559 62.9968 58.2268 64.8904 60.009C65.4473 60.566 65.8929 61.0115 66.4498 61.5685C66.6726 61.7912 67.0068 61.7912 67.341 61.6799C68.3435 61.2343 69.2346 60.566 70.1257 59.8976C72.1307 58.3382 74.2471 56.8901 76.2521 55.3306C76.8091 54.8851 77.4774 54.5509 78.1458 54.2167C79.0369 53.7712 79.928 53.5484 80.9305 53.6598C81.5988 53.6598 81.933 54.1053 81.8216 54.6623C81.8216 54.9965 81.7102 55.3306 81.5988 55.7762C81.5988 56.1104 81.4874 56.4445 81.4874 56.6673C81.4874 56.8901 81.7102 57.0015 81.933 56.8901C82.1558 56.7787 82.3786 56.5559 82.6013 56.4445C83.0469 56.1104 83.4925 56.1104 83.938 56.2218C84.8291 56.3331 85.1633 56.7787 85.0519 57.6698C84.9405 58.2268 84.7178 58.6723 84.495 59.1179C84.3836 59.4521 84.1608 59.6748 83.938 59.8976C83.6039 60.4546 83.7153 60.7887 84.3836 60.9001C84.7178 61.0115 85.1633 61.0115 85.4975 61.1229C85.7203 61.1229 85.8317 61.5685 85.8317 61.7912C85.7203 62.014 85.6089 62.2368 85.3861 62.4596C84.7178 63.1279 84.0494 63.6849 83.2697 64.1304C80.9305 65.4671 78.4799 66.1354 75.918 66.2468C73.9129 66.3582 71.7965 66.581 69.7915 66.581C68.5662 66.581 67.4523 67.1379 66.4498 67.9177C65.4473 68.6974 64.4448 69.4771 63.4423 70.2569C61.7715 71.5935 59.7665 72.3733 57.8728 73.153C56.7589 73.5986 55.7564 73.3758 54.7539 72.7074C54.5311 72.4847 54.197 72.3733 53.9742 72.1505C52.9717 71.0366 51.8578 70.0341 50.9667 68.9202C49.1844 66.8038 47.5136 64.6874 45.7313 62.571C44.7288 61.3457 43.6149 60.1204 42.501 58.8951C40.9416 57.3357 39.1594 55.999 37.1543 54.8851C36.0404 54.2167 34.9265 53.7712 33.5899 53.5484C32.8101 53.3256 32.0304 53.3256 31.2507 53.5484C30.2482 53.7712 29.4684 54.2167 28.9115 54.9965C28.8001 55.2192 28.4659 55.2192 28.4659 54.9965C27.7976 52.5459 27.2407 50.0953 27.4634 47.5334C27.4634 47.0878 27.5748 46.6422 27.6862 46.3081C28.0204 45.1942 28.4659 44.4144 29.5798 43.8575C30.1368 43.6347 30.6937 43.3005 31.2507 43.0778C33.5899 42.4094 35.9291 42.4094 38.2682 43.1892C40.1619 43.8575 41.6099 44.9714 43.1694 46.0853C43.5036 46.3081 43.8377 46.6422 44.1719 46.865C44.2833 46.9764 44.6175 46.865 44.6175 46.6422C44.6175 46.4195 44.6175 46.0853 44.6175 45.8625C44.6175 44.86 44.8402 43.9689 45.2858 43.0778C46.8452 39.8475 48.9617 37.0627 51.9692 34.9463C53.0831 33.8324 54.4197 33.1641 55.9792 32.7185C59.6551 31.4932 63.1081 29.9338 66.5612 28.3743C68.0093 27.706 69.5688 27.0376 71.1282 26.4807C71.6852 26.2579 72.2421 26.1465 72.7991 26.0351C73.356 25.9237 73.6902 26.2579 73.8016 26.8149C74.0243 27.4832 73.9129 28.0402 73.5788 28.5971C73.1332 29.3768 72.5763 29.9338 72.0193 30.6021C71.6852 30.9363 71.351 31.2705 71.0168 31.6046C70.9054 31.8274 71.0168 32.273 71.351 32.1616C71.6852 32.1616 72.1307 32.0502 72.4649 32.0502C73.356 32.0502 74.1357 31.9388 75.0268 31.9388C75.4724 31.9388 76.0294 32.0502 76.1407 32.6071C76.2521 33.0527 75.918 33.3869 75.5838 33.721C75.0268 34.278 74.2471 34.6121 73.5788 34.9463C73.2446 35.1691 72.7991 35.3919 72.4649 35.6147C72.3535 35.8374 72.3535 36.0602 72.3535 36.1716C72.3535 36.283 72.4649 36.3944 72.5763 36.3944C73.0218 36.3944 73.4674 36.5058 74.0243 36.5058C74.9155 36.5058 75.8066 36.8399 76.4749 37.3969C76.5863 37.5083 76.6977 37.6197 76.8091 37.7311C77.0319 37.9538 77.0319 38.5108 76.8091 38.7336C76.4749 39.0677 76.0294 39.2905 75.5838 39.5133C75.1382 39.7361 74.5813 39.9589 74.1357 40.1816C73.5788 40.5158 73.5788 40.9614 74.0243 41.2955C74.3585 41.5183 74.6927 41.7411 74.9155 41.9639C75.1382 42.1866 75.361 42.4094 75.4724 42.7436C75.6952 43.1892 75.5838 43.8575 75.1382 44.1917C74.4699 44.7486 73.8016 45.0828 73.0218 45.3056C71.7965 45.6397 70.4599 45.9739 69.2346 46.3081C69.0118 46.4195 68.6776 46.4195 68.4549 46.5308C68.2321 46.6422 68.1207 46.7536 68.1207 46.9764C68.1207 47.1992 68.3435 47.3106 68.4549 47.422C68.789 47.5334 69.0118 47.6447 69.346 47.7561C69.9029 47.9789 70.0143 48.6473 69.4574 48.9814C69.2346 49.2042 69.0118 49.427 68.6776 49.5384C68.3435 49.7611 67.8979 49.8725 67.5637 50.0953C64.8904 50.9864 61.9943 51.5434 58.9867 51.6548ZM34.2582 45.4169C34.2582 44.9714 33.8126 44.5258 33.2557 44.6372C32.8101 44.7486 32.3646 45.1942 32.476 45.6397C32.5874 46.0853 33.0329 46.4195 33.4785 46.3081C33.924 46.3081 34.2582 45.8625 34.2582 45.4169Z" fill="#F5B9CC"/>
<path fill-rule="evenodd" clip-rule="evenodd" d="M32.0304 64.4646C31.919 64.2418 31.6962 64.019 31.5848 63.7963C29.914 61.3457 28.6887 58.6723 28.0204 55.7762C27.7976 54.8851 27.5748 53.994 27.352 53.2142C27.1292 52.4345 27.1292 52.4345 26.2381 52.4345C26.1267 52.4345 26.0153 52.4345 25.6812 52.4345C25.0128 52.5459 24.2331 52.5459 23.342 52.6573C20.78 53.1028 18.4408 53.7712 16.213 55.2193C15.4333 55.7762 14.5422 56.4445 13.8739 57.1129C11.7575 58.8951 9.64105 60.566 7.41326 62.2368C6.18797 63.1279 4.85129 64.019 3.62601 64.9102C2.84628 65.4671 2.06655 66.1354 1.28682 66.8038C0.952653 67.0266 0.618484 67.3607 0.395705 67.6949C-0.272634 68.4746 -0.0498544 69.143 0.729874 69.6999C0.952653 69.8113 1.06404 69.9227 1.28682 69.9227C1.84377 70.0341 2.28933 70.1455 2.84628 70.0341C3.7374 69.8113 4.7399 69.5885 5.63102 69.3657C5.8538 69.3657 6.07658 69.3657 6.18797 69.5885C6.18797 69.6999 6.29936 69.9227 6.18797 70.0341C6.07658 70.2569 5.8538 70.591 5.63102 70.8138C5.18546 71.3708 4.7399 72.0391 4.40574 72.7074C4.18296 73.0416 4.18296 73.3758 4.07157 73.7099C3.96018 74.0441 4.29435 74.4897 4.7399 74.4897C5.29685 74.4897 5.74241 74.3783 6.29936 74.1555C6.85631 73.8213 7.52465 73.4872 8.0816 73.153C8.30438 73.0416 8.52716 72.9302 8.74993 72.8188C8.86132 72.8188 8.97271 72.8188 9.0841 72.9302C9.19549 73.0416 9.30688 73.2644 9.19549 73.3758C8.97271 73.8213 8.74993 74.2669 8.52715 74.6011C8.0816 75.4922 7.97021 76.4947 8.0816 77.4972C8.19299 77.9428 8.63854 78.2769 9.0841 78.0541C9.52966 77.9428 9.97522 77.72 10.3094 77.4972C10.8663 77.163 11.3119 76.8289 11.7575 76.6061C12.0916 76.3833 12.5372 76.6061 12.5372 77.0516C12.6486 77.6086 12.6486 78.1655 12.8714 78.7225C13.0941 79.5022 13.8739 79.8364 14.6536 79.5022C15.3219 79.168 15.9903 78.7225 16.4358 78.2769C17.4383 77.2744 18.4408 76.3833 19.332 75.3808C19.5547 75.158 19.6661 75.0466 19.8889 74.8238C20.0003 74.7125 20.2231 74.8238 20.3345 74.8238C20.4459 74.9352 20.5572 75.0466 20.5572 75.158C20.5572 75.4922 20.4459 75.9377 20.3345 76.2719C20.2231 76.9402 20.6686 77.2744 21.337 77.0516C21.8939 76.9402 22.4509 76.6061 22.8964 76.2719C23.5648 75.715 24.2331 75.0466 24.9014 74.4897C26.6837 72.7074 28.1317 70.7024 29.357 68.586C30.0254 67.4721 30.8051 66.3582 31.8076 65.4671C32.0304 64.9102 32.1418 64.6874 32.0304 64.4646Z" fill="#E1A8B9"/>
<path fill-rule="evenodd" clip-rule="evenodd" d="M43.6149 72.7073C46.7338 73.9326 50.0755 74.044 53.64 74.2668C54.0855 74.1554 54.8653 74.1554 55.5336 74.044C55.645 74.044 56.0906 73.9326 56.0906 73.8212C56.3133 73.7098 56.9817 73.3757 56.9817 73.3757C55.7564 73.2643 54.4197 72.5959 53.8628 72.039C52.5261 70.8137 51.4122 69.3656 50.1869 67.9176C48.1819 65.467 46.1769 63.1278 44.0605 60.7886C42.9466 59.5633 41.8327 58.3381 40.6074 57.2242C39.0479 55.7761 37.2657 54.5508 35.2607 53.6597C34.3696 53.2141 33.3671 52.88 32.3645 52.6572C31.4734 52.4344 30.5823 52.6572 29.6912 52.9914C28.4659 53.4369 27.352 54.9964 28.2431 56.4444C28.3545 56.6672 28.3545 56.89 28.4659 57.1128C30.1367 61.3456 32.4759 65.467 35.929 68.3631C36.0404 68.1404 40.496 71.8162 43.6149 72.7073Z" fill="#FBF7CE"/>
<path fill-rule="evenodd" clip-rule="evenodd" d="M29.1343 44.0803C29.1343 44.303 29.1343 44.4144 29.1343 44.6372C28.9116 45.5283 28.5774 46.4194 28.3546 47.3106C28.0204 48.6472 27.6863 48.7586 26.5724 47.8675C26.1268 47.5333 25.7926 47.0878 25.3471 46.6422C24.9015 46.1967 25.0129 45.7511 25.4585 45.5283C26.5724 44.9714 27.6863 44.4144 28.8002 43.9689C28.8002 43.9689 29.023 44.0803 29.1343 44.0803Z" fill="#F5EF74"/>
<path fill-rule="evenodd" clip-rule="evenodd" d="M34.2582 45.417C34.2582 45.8626 34.0354 46.1967 33.5899 46.3081C33.1443 46.4195 32.5874 46.0853 32.5874 45.6398C32.476 45.1942 32.8101 44.7487 33.3671 44.6373C33.7013 44.6373 34.1468 44.9714 34.2582 45.417Z" fill="#005796"/>
<path d="M21.3369 59.5635C18.775 60.9001 16.3244 62.571 14.3194 64.6874C13.651 65.3557 14.6535 66.2468 15.3219 65.6899C17.3269 63.7963 19.6661 62.1254 22.1167 60.7887C22.8964 60.3432 22.1167 59.1179 21.3369 59.5635Z" fill="#005796"/>
<path d="M25.2357 65.2443C23.6762 66.024 22.2282 67.0266 21.2256 68.4746C21.0029 68.8088 20.8915 69.143 21.2256 69.4771C21.4484 69.6999 22.0054 69.8113 22.2282 69.4771C22.7851 68.8088 23.342 68.2518 24.0104 67.6949C24.0104 67.6949 24.1218 67.5835 24.1218 67.6949C24.0104 67.6949 24.2332 67.6949 24.2332 67.5835C24.3446 67.4721 24.4559 67.4721 24.4559 67.3607C24.5673 67.2493 24.7901 67.1379 25.0129 67.0266C25.3471 66.8038 25.7926 66.581 26.1268 66.4696C26.461 66.3582 26.5724 65.8013 26.3496 65.4671C26.0154 65.1329 25.5698 65.0215 25.2357 65.2443Z" fill="#005796"/>
<path d="M58.9867 40.4045C61.1031 39.402 63.2195 38.5109 65.4473 37.8425C66.3384 37.6197 65.8929 36.2831 65.1132 36.5058C62.774 37.1742 60.5462 38.0653 58.3184 39.1792C57.9842 39.2906 57.8728 39.8475 58.0956 40.1817C58.3184 40.5159 58.6526 40.5159 58.9867 40.4045Z" fill="#005796"/>
<path d="M58.207 46.6423C60.6576 45.6398 63.3309 44.9714 66.0043 44.7487C66.3384 44.7487 66.6726 44.4145 66.6726 44.0803C66.6726 43.7461 66.3384 43.3006 66.0043 43.412C63.2195 43.6348 60.4348 44.3031 57.8728 45.3056C57.5387 45.417 57.3159 45.7512 57.4273 46.1967C57.4273 46.4195 57.8728 46.7537 58.207 46.6423Z" fill="#005796"/>
<path d="M74.1357 60.566C74.2471 60.4546 74.3585 60.3432 74.4699 60.2318C74.5813 60.2318 74.5812 60.1204 74.6926 60.1204C74.6926 60.1204 74.804 60.009 74.6926 60.1204C74.5812 60.1204 74.6926 60.1204 74.6926 60.1204C74.9154 59.8976 75.2496 59.7863 75.4724 59.5635C75.6951 59.4521 76.0293 59.2293 76.2521 59.1179C76.3635 59.1179 76.3635 59.0065 76.4749 59.0065C76.5863 59.0065 76.4749 59.0065 76.4749 59.0065H76.5863C76.6977 58.8951 76.9204 58.8951 77.0318 58.7837C77.366 58.6724 77.5888 58.3382 77.4774 57.8926C77.366 57.5585 77.0318 57.3357 76.5863 57.4471C75.2496 57.8926 74.0243 58.6724 73.0218 59.5635C72.799 59.7863 72.799 60.3432 73.0218 60.566C73.4673 60.7888 73.9129 60.7888 74.1357 60.566Z" fill="#005796"/>
<path d="M75.6952 63.2393C76.6977 62.9051 77.7002 62.571 78.7027 62.2368C79.0369 62.1254 79.2597 61.7912 79.1483 61.3457C79.0369 61.0115 78.7027 60.7887 78.2572 60.9001C77.2547 61.2343 76.2522 61.5685 75.2497 61.9026C74.9155 62.014 74.6927 62.3482 74.8041 62.7938C74.9155 63.1279 75.361 63.3507 75.6952 63.2393Z" fill="#005796"/>
<path d="M27.1292 50.6523C27.2406 57.5584 30.1368 64.3532 35.3721 69.0316C37.8227 71.2594 40.8302 72.9302 43.9491 74.0441C47.5136 75.2694 51.1894 75.3808 54.9767 75.2694C55.8678 75.2694 55.8678 73.8213 54.9767 73.8213C51.5236 74.0441 48.2933 73.9327 44.9516 72.9302C41.8327 71.9277 38.8252 70.2569 36.3746 68.1405C31.4734 63.7963 28.5773 57.3357 28.5773 50.7637C28.5773 49.7612 27.1292 49.7612 27.1292 50.6523Z" fill="#005796"/>
<path d="M37.7113 67.2493C36.5974 68.8088 35.7063 70.4796 35.1493 72.2619C35.0379 72.596 35.2607 73.0416 35.5949 73.153C35.929 73.2644 36.3746 73.0416 36.486 72.7074C37.0429 71.0366 37.8227 69.4771 38.9366 68.0291C39.1593 67.6949 38.9366 67.2493 38.7138 67.0265C38.2682 66.8038 37.9341 66.9152 37.7113 67.2493Z" fill="#005796"/>
<path d="M34.3695 71.4822C33.4784 71.7049 32.5873 71.9277 31.6962 72.2619C31.362 72.3733 31.1392 72.7074 31.2506 73.153C31.362 73.4872 31.6962 73.71 32.1417 73.5986C33.0329 73.3758 33.924 73.153 34.8151 72.8188C35.1493 72.7074 35.372 72.3733 35.2607 71.9277C35.1493 71.5936 34.8151 71.3708 34.3695 71.4822Z" fill="#005796"/>
<path d="M34.2582 72.9303C34.1468 73.9328 34.0354 74.9353 33.8126 75.9378C33.8126 76.1606 33.8126 76.272 33.924 76.4948C34.0354 76.6061 34.1468 76.8289 34.3695 76.8289C34.7037 76.9403 35.1493 76.7175 35.2607 76.3834C35.372 75.3809 35.4834 74.3784 35.7062 73.3758C35.7062 73.1531 35.7062 73.0417 35.5948 72.8189C35.4834 72.7075 35.372 72.4847 35.1493 72.4847C34.8151 72.3733 34.3695 72.5961 34.2582 72.9303Z" fill="#005796"/>
<path d="M35.1493 72.9302C35.5948 73.4871 36.0404 74.0441 36.4859 74.601C36.5973 74.7124 36.8201 74.8238 36.9315 74.8238C37.1543 74.8238 37.2657 74.7124 37.3771 74.601C37.4884 74.4896 37.5998 74.2669 37.5998 74.1555C37.5998 74.0441 37.5998 74.0441 37.5998 73.9327C37.5998 73.8213 37.4884 73.7099 37.3771 73.5985C36.9315 73.0416 36.4859 72.4846 36.0404 71.9277C35.929 71.8163 35.7062 71.7049 35.5948 71.7049C35.372 71.7049 35.2607 71.8163 35.1493 71.9277C35.0379 72.0391 34.9265 72.2618 34.9265 72.3732C34.9265 72.4846 34.9265 72.4846 34.9265 72.596C34.9265 72.8188 35.0379 72.8188 35.1493 72.9302Z" fill="#005796"/>
<path d="M42.5011 69.143C42.7238 71.148 42.9466 73.153 43.058 75.0466C43.058 75.3808 43.3922 75.7149 43.7263 75.7149C44.0605 75.7149 44.5061 75.3808 44.3947 75.0466C44.1719 73.0416 43.9491 71.0366 43.8377 69.143C43.8377 68.8088 43.5036 68.4746 43.1694 68.4746C42.8352 68.4746 42.3897 68.8088 42.5011 69.143Z" fill="#005796"/>
<path d="M42.9466 73.9327C42.2783 74.601 41.6099 75.2694 40.9416 75.9377C40.7188 76.1605 40.7188 76.7175 40.9416 76.9402C41.2758 77.163 41.6099 77.163 41.9441 76.9402C42.6124 76.2719 43.2808 75.6036 43.9491 74.9352C44.1719 74.7124 44.1719 74.1555 43.9491 73.9327C43.7263 73.7099 43.2808 73.7099 42.9466 73.9327Z" fill="#005796"/>
<path d="M43.2808 75.4923C43.3922 75.715 43.5036 75.9378 43.615 76.0492C43.615 76.0492 43.615 76.0492 43.615 76.1606C43.615 76.0492 43.615 76.0492 43.615 76.1606V76.272C43.615 76.3834 43.7264 76.4948 43.7264 76.6062C43.7264 76.7175 43.8378 76.8289 43.8378 76.9403V77.0517V77.1631C43.8378 77.0517 43.8378 77.0517 43.8378 77.1631C43.8378 77.3859 43.8378 77.6087 43.8378 77.8314C43.8378 78.1656 44.1719 78.4998 44.5061 78.4998C44.8403 78.4998 45.1744 78.1656 45.1744 77.8314C45.1744 76.8289 44.9517 75.715 44.2833 74.8239C44.0605 74.4897 43.615 74.3784 43.2808 74.6011C43.1694 74.7125 43.058 75.1581 43.2808 75.4923Z" fill="#005796"/>
<path d="M43.9491 75.8264C44.6175 75.9378 45.2858 76.0491 45.9541 76.1605C46.1769 76.1605 46.2883 76.1605 46.5111 76.0491C46.6225 75.9378 46.8453 75.8264 46.8453 75.6036C46.8453 75.3808 46.8453 75.2694 46.7339 75.0466C46.6225 74.9352 46.5111 74.7125 46.2883 74.7125C45.62 74.6011 44.9516 74.4897 44.2833 74.3783C44.0605 74.3783 43.9491 74.3783 43.7263 74.4897C43.615 74.6011 43.3922 74.7125 43.3922 74.9352C43.3922 75.158 43.3922 75.2694 43.5036 75.4922C43.615 75.6036 43.8377 75.8264 43.9491 75.8264Z" fill="#005796"/>
<path d="M32.8101 84.4034L34.9265 84.8489L36.486 83.0667C37.4885 81.8414 38.9366 81.5072 40.1619 81.9528C42.6124 82.7325 43.9491 85.8514 42.8352 88.302L39.1594 95.9879L31.4735 92.5348C28.8001 91.3095 27.7976 87.4109 29.8026 85.4059C30.471 84.5147 31.4735 84.0692 32.8101 84.4034Z" fill="#F08B6B"/>
<path d="M108.221 88.1906L107.441 86.5197L109.223 85.4058C110.337 84.6261 110.449 83.5122 109.892 82.5097C108.667 80.5047 105.102 79.2794 102.651 80.0591L94.9656 82.7325L99.8667 89.0817C101.649 91.3095 105.993 92.312 107.887 90.7525C108.444 90.0842 108.667 89.3045 108.221 88.1906Z" fill="#F08B6B"/>
<path d="M65.5587 86.6312L65.7815 88.4134L63.8878 89.0817C62.6626 89.5273 62.217 90.5298 62.5512 91.6437C63.1081 93.8715 66.1156 95.7651 68.4548 95.6537L76.2521 94.9854L73.4674 87.8564C72.4649 85.2945 68.789 83.4009 66.6726 84.5148C65.8929 84.8489 65.4473 85.5173 65.5587 86.6312Z" fill="#F7CD9D"/>
<path d="M115.573 108.018L116.798 109.243L115.684 110.914C114.904 112.028 115.239 113.031 116.13 113.81C117.912 115.258 121.476 114.924 123.259 113.253L128.939 108.018L122.367 104.008C120.028 102.56 115.907 103.451 114.904 105.456C114.793 106.347 114.793 107.238 115.573 108.018Z" fill="#D8C24A"/>
<path d="M139.744 85.8514V87.0767L138.519 87.8564C137.739 88.302 137.405 89.0817 137.516 89.8614C137.739 91.4209 139.41 92.4234 140.97 91.9778L145.759 90.5298L144.423 85.74C143.977 84.0692 141.749 83.1781 140.413 84.1806C139.967 84.5147 139.633 85.0717 139.744 85.8514Z" fill="#F9D0DB"/>
<path d="M166.032 112.362L165.587 111.583L166.478 111.026C167.035 110.691 167.146 110.134 166.812 109.578C166.144 108.575 164.25 108.018 163.025 108.352L159.015 109.578L161.688 112.696C162.579 113.81 164.918 114.256 165.809 113.588C166.144 113.253 166.366 112.808 166.032 112.362Z" fill="#F7CD9D"/>
<path d="M33.3671 47.0878C34.2283 47.0878 34.9265 46.3896 34.9265 45.5283C34.9265 44.6671 34.2283 43.9689 33.3671 43.9689C32.5058 43.9689 31.8076 44.6671 31.8076 45.5283C31.8076 46.3896 32.5058 47.0878 33.3671 47.0878Z" fill="#005796"/>
<path d="M231.435 123.336C222.535 132.274 208.067 130.85 198.23 124.776C197.402 124.256 198.103 122.951 198.877 123.389C208.133 129.135 221.822 130.841 230.276 122.32C230.973 121.735 232.077 122.668 231.435 123.336Z" fill="#D9E476"/>
<path d="M239.892 117.919C240.641 118.501 241.085 119.527 240.808 120.553L240.337 122.19L241.475 123.354C242.141 123.992 242.335 124.824 242.197 125.517C241.948 127.487 239.369 128.486 237.593 127.266L232.433 123.857L235.205 118.642C236.092 117.088 238.477 116.699 239.892 117.919Z" fill="#D9E476"/>
<path d="M225.468 130.413C224.721 129.836 224.283 128.814 224.566 127.786L224.964 126.204L223.887 125.13C223.223 124.497 223.034 123.667 223.121 122.891C223.382 120.922 225.971 119.908 227.742 121.116L232.89 124.492L230.083 129.719C229.269 131.221 226.933 131.707 225.468 130.413Z" fill="#D9E476"/>
<path d="M239.842 132.258C239.204 132.924 238.261 133.312 237.179 132.952L235.543 132.481L234.406 133.48C233.713 134.063 232.881 134.257 232.187 134.119C230.107 133.704 229.025 131.18 230.161 129.46L232.516 123.801L238.869 127.737C240.561 128.652 241.117 130.926 239.842 132.258Z" fill="#F7CD9D"/>
<path d="M225.45 116.657C226.092 115.988 227.039 115.594 228.203 115.891L229.839 116.352L230.983 115.347C231.681 114.761 232.515 114.562 233.209 114.696C235.289 115.099 236.358 117.613 235.21 119.338L232.932 124.45L226.536 121.193C224.763 120.345 224.22 118.077 225.45 116.657Z" fill="#F7CD9D"/>
<path d="M121.794 20.1417C109.353 21.8873 98.643 11.9778 94.4056 1.16086C94.0534 0.242893 95.3914 -0.374458 95.749 0.444179C99.7183 10.6472 109.639 20.31 121.473 18.6277C122.379 18.5824 122.705 19.997 121.794 20.1417Z" fill="#D9E476"/>
<path d="M131.812 20.8132C132.06 21.7287 131.798 22.8156 130.96 23.4692L129.6 24.4938L129.808 26.1082C129.957 27.0181 129.612 27.7999 129.085 28.2707C127.702 29.6947 125.04 28.9427 124.355 26.9007L122.282 21.0739L127.632 18.5729C129.274 17.8648 131.414 18.9878 131.812 20.8132Z" fill="#D9E476"/>
<path d="M112.802 22.1256C112.552 21.2109 112.812 20.1261 113.651 19.4752L114.912 18.4488L114.694 16.9361C114.543 16.0273 114.887 15.2474 115.42 14.6786C116.803 13.2594 119.471 14.0153 120.162 16.0556L122.25 21.8776L116.894 24.3646C115.35 25.0744 113.198 24.0487 112.802 22.1256Z" fill="#D9E476"/>
<path d="M123.15 32.241C122.241 32.3897 121.253 32.1334 120.606 31.1952L119.581 29.835L118.072 29.9497C117.168 29.9986 116.386 29.6537 115.915 29.1262C114.503 27.5437 115.155 24.8763 117.097 24.1852L122.381 21.0795L125.091 28.0442C125.894 29.7924 124.97 31.9436 123.15 32.241Z" fill="#F7CD9D"/>
<path d="M121.03 11.0913C121.941 10.9446 122.93 11.2024 123.681 12.1461L124.71 13.506L126.221 13.3944C127.127 13.3473 127.911 13.6931 128.383 14.2206C129.801 15.8033 129.153 18.465 127.209 19.1512L122.343 21.8665L119.188 15.3831C118.281 13.6303 119.202 11.4845 121.03 11.0913Z" fill="#F7CD9D"/>
</svg>
