<svg width="312" height="247" viewBox="0 0 312 247" fill="none" xmlns="http://www.w3.org/2000/svg">
<g clip-path="url(#clip0)">
<path d="M228.943 77.1876C230.013 80.8325 227.872 84.5847 224.233 85.6568C220.594 86.7288 216.848 84.5847 215.778 81.047C214.707 77.402 216.848 73.6498 220.487 72.5778C224.126 71.5057 227.872 73.6498 228.943 77.1876Z" fill="#F6B37F"/>
<path d="M87.6597 63.787C87.6597 63.787 86.0542 60.3564 88.837 57.4619C91.6199 54.5673 92.048 51.8872 92.2621 50.1719C92.4761 48.4567 91.834 45.2405 93.6535 46.7414C95.4731 48.2423 96.0082 50.8152 95.4731 53.2809C95.0449 55.6394 93.4394 56.1754 93.4394 56.1754C93.4394 56.1754 97.6137 54.889 101.467 53.7097C105.32 52.5305 111.635 50.4936 113.133 51.244C114.632 51.9944 117.094 51.8872 118.057 52.8521C118.913 53.9241 118.592 54.7818 112.598 56.7114C106.604 58.6411 98.7911 61.6429 94.5098 64.9662C90.2285 68.1824 89.6933 73.9714 89.6933 73.9714L83.9135 72.8994L87.6597 63.787Z" fill="#F8C499"/>
<path d="M244.891 116.317H74.8158V132.934H244.891V116.317Z" fill="#BD7729"/>
<path d="M242.536 122.857H75.2439C74.8158 122.857 74.4947 122.535 74.4947 122.106C74.4947 121.678 74.8158 121.356 75.2439 121.356H242.536C242.964 121.356 243.285 121.678 243.285 122.106C243.285 122.535 242.857 122.857 242.536 122.857Z" fill="white"/>
<path d="M163.76 132.72C163.332 132.72 163.011 132.398 163.011 131.969V123.071C163.011 122.642 163.332 122.321 163.76 122.321C164.188 122.321 164.509 122.642 164.509 123.071V131.969C164.509 132.398 164.188 132.72 163.76 132.72Z" fill="white"/>
<path d="M176.604 112.351C174.891 110.421 174.463 108.491 174.463 108.491H147.919C147.919 108.491 147.919 108.706 146.635 111.279C145.35 113.852 143.21 114.388 143.21 114.388V115.245L179.387 114.388C179.494 114.388 177.353 113.208 176.604 112.351Z" fill="#D9EEF0"/>
<path d="M179.494 114.388H143.317V116.317H179.494V114.388Z" fill="#A4CCF1"/>
<path d="M203.255 106.347C203.255 107.741 202.078 108.92 200.686 108.92L123.302 109.135C121.91 109.135 120.733 107.955 120.733 106.562L120.519 55.5322C120.519 54.1385 121.696 52.9593 123.087 52.9593L200.472 52.7449C201.863 52.7449 203.041 53.9241 203.041 55.3178L203.255 106.347Z" fill="#D9EEF0"/>
<path d="M125.977 109.885C125.656 109.885 125.335 109.563 125.335 109.242C125.335 108.92 125.656 108.599 125.977 108.599L184.845 108.384C185.166 108.384 185.487 108.706 185.487 109.027C185.487 109.349 185.166 109.671 184.845 109.671L125.977 109.885Z" fill="#005796"/>
<path d="M199.295 102.488C199.295 103.774 198.224 104.846 196.94 104.846L126.941 105.061C125.656 105.061 124.586 103.989 124.586 102.702L124.479 60.142C124.479 58.8555 125.549 57.7835 126.834 57.7835L196.833 57.5691C198.117 57.5691 199.188 58.6411 199.188 59.9276L199.295 102.488Z" fill="#A5C4E1"/>
<path d="M139.678 105.168H135.182L165.151 57.6763H169.647L139.678 105.168Z" fill="white"/>
<path d="M132.613 105.168H130.259L156.268 64.323H158.622L132.613 105.168Z" fill="white"/>
<path d="M165.365 77.402H159.586L172.215 57.6763H177.995L165.365 77.402Z" fill="white"/>
<path d="M252.918 167.883H250.67V230.919H252.918V167.883Z" fill="#005796"/>
<path d="M241.68 168.204H239.432V231.241H241.68V168.204Z" fill="#005796"/>
<path d="M280.532 168.419H278.285V231.455H280.532V168.419Z" fill="#005796"/>
<path d="M269.187 168.419H266.939V231.455H269.187V168.419Z" fill="#005796"/>
<path d="M283.636 167.454C283.636 169.277 282.138 170.777 280.318 170.777H239.218C237.398 170.777 235.9 169.277 235.9 167.454C235.9 165.632 237.398 164.131 239.218 164.131H280.318C282.245 164.131 283.636 165.632 283.636 167.454Z" fill="#A4CCF1"/>
<path d="M61.7578 182.999H50.1983V220.199H61.7578V182.999Z" fill="#005796"/>
<path d="M59.8312 227.489C59.8312 229.847 57.7976 231.777 55.3358 231.777C52.8741 231.777 50.8405 229.847 50.8405 227.489C50.8405 225.13 52.8741 223.201 55.3358 223.201C57.7976 223.201 59.8312 225.13 59.8312 227.489Z" fill="#005796"/>
<path d="M40.5653 227.489C40.5653 229.847 38.5317 231.777 36.07 231.777C33.6082 231.777 31.5746 229.847 31.5746 227.489C31.5746 225.13 33.6082 223.201 36.07 223.201C38.5317 223.201 40.5653 225.13 40.5653 227.489Z" fill="#005796"/>
<path d="M56.1921 218.698H54.6936V225.452H56.1921V218.698Z" fill="#005796"/>
<path d="M56.1921 218.698L54.2655 218.805L35.1067 223.308L37.0333 223.522L56.1921 218.698Z" fill="#005796"/>
<path d="M70.3204 227.489C70.3204 229.847 72.354 231.777 74.8158 231.777C77.2775 231.777 79.3111 229.847 79.3111 227.489C79.3111 225.13 77.2775 223.201 74.8158 223.201C72.354 223.201 70.3204 225.13 70.3204 227.489Z" fill="#005796"/>
<path d="M54.8007 218.698L56.6202 218.805L75.8861 223.308L73.8525 223.522L54.8007 218.698Z" fill="#005796"/>
<path d="M102.644 140.224C102.644 144.941 98.791 148.693 94.1886 148.693H44.3115C39.602 148.693 35.8559 144.834 35.8559 140.224C35.8559 135.507 39.602 131.755 44.3115 131.755H94.1886C98.8981 131.755 102.644 135.507 102.644 140.224Z" fill="#A4CCF1"/>
<path d="M39.9231 97.0204L18.1955 96.806C18.1955 96.806 9.73995 96.5916 5.56568 102.166C2.3547 106.669 2.78283 109.135 2.78283 115.567C2.78283 121.999 9.20479 173.779 9.20479 173.779C9.20479 173.779 9.20478 182.677 14.3423 184.392C19.2658 186 33.1801 185.357 33.1801 185.357L96.1152 185.679L97.3996 169.491L70.8556 160.915L73.3173 151.481L39.9231 97.0204Z" fill="#A4CCF1"/>
<path d="M55.6569 70.4337L52.66 78.5812L42.4919 69.8976L44.7396 66.7887L55.6569 70.4337Z" fill="#F6B37F"/>
<path d="M85.412 64.7518L93.9746 67.5392L92.9043 71.7202L84.0206 68.2896L85.412 64.7518Z" fill="#ABDDF5"/>
<path d="M45.7029 83.0839C49.1279 85.228 74.9228 91.1243 74.9228 91.1243L84.3417 66.36L94.6168 70.3266L83.5924 98.8431C83.5924 98.8431 82.094 102.059 79.8463 102.702C76.6353 103.56 70.6415 101.309 70.6415 101.309C68.8219 100.88 39.2809 93.59 39.2809 93.59L45.7029 83.0839Z" fill="white"/>
<path d="M78.1338 103.453C74.9228 103.453 70.8556 101.952 70.4274 101.845C68.3938 101.309 39.388 94.2332 39.0669 94.126C38.8528 94.126 38.7458 93.9116 38.6388 93.8044C38.5317 93.59 38.6388 93.4828 38.6388 93.2684L45.1677 82.7623C45.2748 82.6551 45.3818 82.5479 45.4888 82.5479C45.5959 82.5479 45.8099 82.5479 45.917 82.6551C48.4858 84.2631 65.5039 88.4441 74.4947 90.481L83.6995 66.2527C83.8065 66.1455 83.9135 66.0383 84.0206 65.9311C84.1276 65.8239 84.3417 65.8239 84.4487 65.9311L94.7238 69.8977C95.0449 70.0049 95.152 70.3265 95.0449 70.6481L84.1276 99.0574C84.0206 99.2718 82.4151 102.595 79.9533 103.238C79.4182 103.453 78.883 103.453 78.1338 103.453ZM40.1372 93.2684C44.8466 94.4476 69.143 100.451 70.7485 100.773C70.7485 100.773 70.7485 100.773 70.8556 100.773C70.8556 100.773 75.0298 102.274 78.1338 102.274C78.776 102.274 79.3111 102.166 79.7393 102.059C81.6659 101.523 83.1643 98.5214 83.1643 98.5214L93.9746 70.5409L84.7698 67.0032L75.565 91.2315C75.458 91.4459 75.1369 91.6603 74.9228 91.5531C73.9595 91.3387 50.9475 86.0856 46.024 83.7271L40.1372 93.2684Z" fill="#BEB4AA"/>
<path d="M52.3389 76.2227C52.3389 76.2227 57.0484 83.5126 58.6538 91.2313C60.2593 98.9501 60.9015 109.242 60.9015 109.242L46.3451 83.9414L52.3389 76.2227Z" fill="#ABDDF5"/>
<path d="M57.5835 85.0135C57.6906 83.0838 57.3695 79.4389 53.0881 75.9011L52.0178 82.3334L57.3695 86.3C57.3695 86.3 57.4765 85.764 57.5835 85.0135Z" fill="#E94954"/>
<path d="M42.4919 69.8976L54.3725 75.2578L52.0178 82.2261C52.0178 82.2261 49.9842 82.5478 44.7396 80.5109C38.8528 78.1524 38.6387 78.0452 38.6387 78.0452L42.4919 69.8976Z" fill="#D9EEF2"/>
<path d="M101.895 224.594C101.895 224.594 116.666 225.13 126.406 225.452C135.931 225.773 145.136 225.773 145.136 225.773L144.815 226.524L102.109 225.452L101.895 224.594Z" fill="#38393B"/>
<path d="M120.091 211.515C120.091 211.515 125.335 214.303 133.042 215.375C142.139 216.661 143.317 216.875 145.457 219.234C147.491 221.378 145.136 225.773 145.136 225.773C145.136 225.773 135.931 225.773 126.406 225.452C116.666 225.023 101.895 224.701 101.895 224.701C101.895 224.701 101.146 220.413 101.36 217.948C101.574 214.946 120.091 211.515 120.091 211.515Z" fill="#B27B41"/>
<path d="M125.977 217.626C125.656 217.626 125.335 217.304 125.335 216.983C125.335 216.875 125.335 215.267 126.406 214.195C127.369 213.338 128.439 213.338 128.974 213.445C129.295 213.552 129.509 213.874 129.402 214.195C129.295 214.517 128.974 214.731 128.653 214.624C128.653 214.624 128.011 214.517 127.262 215.16C126.62 215.803 126.62 216.875 126.62 216.983C126.62 217.411 126.298 217.626 125.977 217.626Z" fill="white"/>
<path d="M130.152 218.484C129.831 218.484 129.509 218.162 129.509 217.84C129.509 217.733 129.509 216.125 130.58 215.16C131.543 214.303 132.72 214.303 133.149 214.41C133.47 214.517 133.684 214.839 133.577 215.16C133.47 215.482 133.149 215.696 132.827 215.589C132.827 215.589 132.185 215.482 131.436 216.125C130.794 216.768 130.794 217.84 130.794 217.84C130.794 218.162 130.58 218.484 130.152 218.484Z" fill="white"/>
<path d="M133.791 219.02C133.47 219.02 133.149 218.698 133.149 218.376C133.149 218.269 133.149 216.661 134.219 215.696C135.182 214.839 136.253 214.839 136.788 214.946C137.109 215.053 137.323 215.375 137.216 215.696C137.109 216.018 136.788 216.232 136.467 216.125C136.467 216.125 135.824 216.018 135.075 216.661C134.433 217.304 134.433 218.376 134.433 218.376C134.433 218.805 134.112 219.02 133.791 219.02Z" fill="white"/>
<path d="M64.9688 145.263C64.9688 145.263 70.3204 142.797 74.8158 146.227L79.9533 146.549C79.9533 146.549 102.537 150.194 111.849 151.588C120.947 152.874 117.843 172.171 117.843 172.171C114.846 197.793 122.124 212.694 122.124 212.694C122.124 212.694 120.84 212.587 118.485 213.874C115.809 215.375 114.311 217.948 109.601 218.805C102.751 219.984 99.8614 218.591 99.8614 218.591C99.8614 218.591 100.397 203.368 100.718 194.898C101.36 179.139 102.43 167.668 102.43 167.668L68.929 165.524C49.449 164.667 44.9537 151.159 47.8436 144.191C52.8741 131.969 63.6844 138.509 63.6844 138.509L64.9688 145.263Z" fill="#005796"/>
<path d="M106.497 213.981C104.357 213.981 102.537 213.981 102.537 213.981C102.216 213.981 101.895 213.659 101.895 213.338C101.895 213.016 102.216 212.695 102.537 212.695C102.537 212.695 106.497 212.802 109.922 212.695C113.24 212.587 118.913 210.336 119.02 210.229C119.341 210.122 119.769 210.229 119.876 210.55C119.984 210.872 119.876 211.301 119.555 211.408C119.341 211.515 113.669 213.874 110.03 213.981C108.852 213.981 107.568 213.981 106.497 213.981Z" fill="white"/>
<path d="M99.9684 219.02C99.6473 219.02 99.4333 218.698 99.4333 218.376C99.4333 218.269 100.183 203.046 100.29 194.791C100.397 180.747 101.574 170.67 102.002 168.097L69.1431 165.953C59.9382 165.846 52.2319 162.201 48.6998 155.983C46.024 151.373 46.024 146.12 48.5928 141.51C48.6998 141.189 49.128 141.189 49.342 141.296C49.6631 141.403 49.6631 141.832 49.5561 142.046C47.2014 146.335 47.2014 151.159 49.6631 155.34C52.9811 161.129 60.3664 164.667 69.2501 164.774L102.751 166.918C102.858 166.918 103.072 167.025 103.179 167.132C103.286 167.24 103.286 167.454 103.286 167.561C103.286 167.668 101.681 178.496 101.574 194.684C101.467 203.046 100.718 218.162 100.718 218.376C100.504 218.805 100.29 219.02 99.9684 219.02Z" fill="#005796"/>
<path d="M81.1307 228.99C81.1307 228.99 96.9715 229.418 106.711 229.847C116.237 230.169 125.442 230.169 125.442 230.169L125.121 230.919L81.3448 229.954L81.1307 228.99Z" fill="#38393B"/>
<path d="M100.397 215.911C100.397 215.911 105.641 218.698 113.348 219.77C122.445 221.056 123.623 221.271 125.763 223.629C127.797 225.773 125.442 230.169 125.442 230.169C125.442 230.169 116.237 230.169 106.711 229.847C96.9715 229.418 81.1307 229.204 81.1307 229.204C81.1307 229.204 81.4518 224.916 81.5588 222.343C81.8799 219.341 100.397 215.911 100.397 215.911Z" fill="#B27B41"/>
<path d="M125.442 230.812C125.335 230.812 125.228 230.812 125.121 230.705C124.8 230.49 124.693 230.169 124.907 229.847C125.549 228.775 126.727 225.452 125.335 224.058C123.302 221.914 122.231 221.7 113.24 220.413C105.534 219.341 100.29 216.661 100.075 216.447C99.7544 216.232 99.6473 215.911 99.8614 215.589C100.075 215.267 100.397 215.16 100.718 215.375C100.718 215.375 105.962 218.055 113.455 219.127C122.659 220.413 123.944 220.735 126.298 223.201C128.653 225.666 126.191 230.276 126.084 230.491C125.87 230.705 125.656 230.812 125.442 230.812Z" fill="white"/>
<path d="M106.283 222.021C105.962 222.021 105.641 221.7 105.641 221.378C105.641 221.271 105.641 219.663 106.711 218.591C107.675 217.733 108.745 217.733 109.28 217.84C109.601 217.948 109.815 218.269 109.708 218.591C109.601 218.912 109.28 219.127 108.959 219.02C108.959 219.02 108.317 218.912 107.568 219.556C106.926 220.199 106.926 221.271 106.926 221.378C106.926 221.7 106.604 222.021 106.283 222.021Z" fill="white"/>
<path d="M110.458 222.772C110.137 222.772 109.815 222.45 109.815 222.129C109.815 222.021 109.815 220.413 110.886 219.448C111.849 218.591 113.026 218.591 113.455 218.698C113.776 218.805 113.99 219.127 113.883 219.448C113.776 219.77 113.455 219.984 113.133 219.877C113.133 219.877 112.491 219.77 111.742 220.413C111.1 221.056 111.1 222.129 111.1 222.129C111.1 222.45 110.886 222.772 110.458 222.772Z" fill="white"/>
<path d="M114.097 223.415C113.776 223.415 113.455 223.093 113.455 222.772C113.455 222.665 113.455 221.056 114.525 220.092C115.488 219.234 116.559 219.234 117.094 219.341C117.415 219.448 117.629 219.77 117.522 220.092C117.415 220.413 117.094 220.628 116.773 220.52C116.773 220.52 116.13 220.413 115.381 221.056C114.739 221.7 114.739 222.772 114.739 222.772C114.739 223.093 114.418 223.415 114.097 223.415Z" fill="white"/>
<path d="M50.9475 140.224C50.9475 140.224 52.446 144.941 56.9413 148.372L60.2593 150.73C60.2593 150.73 84.1276 154.161 93.4395 155.661C100.825 156.841 98.1489 176.352 98.1489 176.352C95.152 201.974 102.43 216.875 102.43 216.875C102.43 216.875 101.146 216.768 98.7911 218.055C96.1153 219.556 94.6168 222.129 89.9074 222.986C83.0573 224.165 80.1674 222.772 80.1674 222.772C80.1674 222.772 80.7026 207.549 81.0237 199.079C81.6659 183.32 82.7362 171.849 82.7362 171.849L49.235 169.705C29.9691 168.848 25.3667 155.447 28.2566 148.372C33.2871 136.15 44.0974 142.69 44.0974 142.69L50.9475 140.224Z" fill="#005796"/>
<path d="M86.8034 218.376C84.6628 218.376 82.8432 218.376 82.8432 218.376C82.5221 218.376 82.201 218.055 82.201 217.733C82.201 217.412 82.5221 217.09 82.8432 217.09C82.8432 217.09 86.8034 217.197 90.2285 217.09C93.5465 216.983 99.2192 214.731 99.3262 214.624C99.6473 214.517 100.075 214.624 100.182 214.946C100.29 215.267 100.183 215.696 99.8614 215.803C99.6473 215.911 93.9746 218.269 90.3355 218.376C89.1581 218.376 87.8737 218.376 86.8034 218.376Z" fill="white"/>
<path d="M80.2744 223.308C79.9533 223.308 79.7393 222.986 79.7393 222.665C79.7393 222.557 80.4885 207.334 80.5955 199.079C80.7026 185.036 81.8799 174.958 82.3081 172.385L49.4491 170.241C40.2443 170.134 32.5379 166.489 29.0058 160.271C26.33 155.662 26.33 150.408 28.8988 145.799C29.0058 145.477 29.434 145.477 29.648 145.584C29.9691 145.691 29.9691 146.12 29.8621 146.335C27.5074 150.623 27.5074 155.447 29.9691 159.628C33.2871 165.417 40.6724 168.955 49.5561 169.062L83.0573 171.206C83.1643 171.206 83.3784 171.313 83.4854 171.421C83.5925 171.528 83.5925 171.742 83.5925 171.849C83.5925 171.957 81.987 182.784 81.8799 198.972C81.7729 207.334 81.0237 222.45 81.0237 222.665C80.8096 223.093 80.5955 223.308 80.2744 223.308Z" fill="#005796"/>
<path d="M56.0851 83.6199C56.0851 83.6199 58.5468 85.9784 60.4734 88.5513C65.2899 94.9836 66.8954 110.957 66.8954 110.957L60.6875 103.346C60.7945 103.238 55.978 89.8378 56.0851 83.6199Z" fill="#E94954"/>
<path d="M86.2682 146.228C72.0329 143.333 69.036 143.333 69.036 143.333C69.3571 141.939 68.2868 122.535 66.8953 112.029C66.1461 106.24 55.1218 89.409 55.1218 89.409C48.9139 81.4758 41.1005 72.8994 41.1005 72.8994L38.6387 78.0453C36.8192 79.9749 33.6082 84.2631 32.3238 93.59C31.7887 97.4493 29.3269 129.718 28.3636 136.365C27.8284 139.795 26.437 158.771 26.437 158.771C26.437 158.771 24.4034 173.136 44.6326 172.278C52.2319 171.957 72.247 173.029 72.247 173.029C72.247 173.029 72.1399 169.491 74.8158 161.879C77.7056 154.053 86.6964 154.804 86.6964 154.804C92.3691 155.447 98.791 155.34 98.4699 165.953C98.4699 165.953 98.684 158.556 103.5 154.804C107.675 151.695 113.026 151.481 113.026 151.481C113.026 151.481 90.4425 147.085 86.2682 146.228Z" fill="white"/>
<path d="M72.247 173.458C72.0329 173.458 56.9413 172.6 48.0576 172.6C46.6662 172.6 45.5959 172.6 44.6326 172.707C43.9904 172.707 43.4552 172.707 42.92 172.707C36.3911 172.707 31.5746 170.992 28.6847 167.668C25.1526 163.595 25.7948 158.663 25.9019 158.449C26.0089 157.698 27.4003 139.474 27.8284 136.043C28.3636 132.398 29.3269 120.713 30.1832 110.421C30.9324 102.166 31.4676 94.9836 31.7887 93.2683C32.7519 86.3 34.9996 81.0469 38.2106 77.5092L40.6724 72.4705C40.7794 72.2561 40.8864 72.1489 41.1005 72.1489C41.3146 72.1489 41.5286 72.1489 41.6357 72.3633C41.7427 72.4705 49.5561 81.0469 55.764 88.8729C56.2991 89.6233 66.8953 105.918 67.6446 111.708C68.8219 121.356 69.8923 138.723 69.7852 142.583C71.1766 142.69 75.565 143.226 86.4823 145.477C90.6566 146.335 113.24 150.623 113.455 150.623C113.776 150.73 113.99 150.945 113.883 151.266C113.883 151.588 113.669 151.802 113.347 151.802C113.347 151.802 108.103 151.909 104.143 155.018C99.5403 158.449 99.3262 165.417 99.3262 165.739C99.3262 165.846 99.3262 165.846 99.3262 165.953C99.2192 166.168 99.0051 166.275 98.7911 166.275C98.47 166.275 98.2559 166.06 98.2559 165.739C98.577 156.412 93.5465 155.983 88.3019 155.34C87.8737 155.34 87.4456 155.233 87.0175 155.233C87.0175 155.233 86.8034 155.233 86.3753 155.233C84.4487 155.233 77.9197 155.769 75.672 161.879C73.2103 168.633 73.1032 172.171 73.1032 172.707V172.814C72.7821 173.243 72.5681 173.458 72.247 173.458ZM48.0576 171.421C55.871 171.421 68.7149 172.064 71.6048 172.278C71.7118 170.885 72.1399 167.454 74.2806 161.558C76.8494 154.589 83.9135 154.053 86.0542 154.053C86.4823 154.053 86.8034 154.053 86.8034 154.053C87.2315 154.053 87.6597 154.161 88.0878 154.161C92.4761 154.589 97.3996 155.125 98.7911 161.236C99.5403 158.878 100.825 156.09 103.286 154.161C105.427 152.553 107.782 151.695 109.708 151.266C103.179 150.087 89.3722 147.407 86.1612 146.764C72.247 143.869 69.143 143.869 69.036 143.869C68.8219 143.869 68.7149 143.762 68.6079 143.655C68.5008 143.547 68.5008 143.333 68.5008 143.119C68.8219 141.832 67.7516 122.642 66.3602 112.029C65.611 106.454 54.8007 89.8377 54.6936 89.6233C49.5561 83.0838 43.1341 76.0083 41.2075 73.8642L39.0669 78.1524L38.9598 78.2596C35.8559 81.583 33.8223 86.7288 32.7519 93.4827C32.5379 95.198 31.8957 102.595 31.1465 110.528C30.2902 120.82 29.3269 132.505 28.7917 136.15C28.3636 139.474 26.8652 158.234 26.8652 158.449C26.8652 158.556 26.223 163.166 29.4339 166.811C32.1098 169.92 36.6051 171.421 42.813 171.421C43.3482 171.421 43.8833 171.421 44.5255 171.421C45.4888 171.528 46.6662 171.421 48.0576 171.421Z" fill="#BEB4AA"/>
<path d="M66.2532 118.354C66.3602 119.319 67.1094 119.962 67.9657 119.855C68.8219 119.748 69.4641 118.997 69.3571 118.033C69.2501 117.068 68.5008 116.425 67.6446 116.425C66.7883 116.639 66.1461 117.497 66.2532 118.354Z" fill="#005796"/>
<path d="M67.0024 137.329C67.1094 138.294 67.8587 138.938 68.7149 138.83C69.5712 138.723 70.2134 137.973 70.1063 137.008C69.9993 136.043 69.2501 135.4 68.3938 135.507C67.5376 135.507 66.8954 136.365 67.0024 137.329Z" fill="#005796"/>
<path d="M95.473 157.484C95.366 157.484 95.152 157.377 95.0449 157.27C93.9746 156.197 84.4487 154.268 78.776 153.303C78.4549 153.196 78.2408 152.981 78.3478 152.66C78.3478 152.338 78.6689 152.124 78.99 152.231C81.5588 152.66 94.2957 154.911 95.9012 156.519C96.1152 156.733 96.1152 157.055 95.9012 157.377C95.7941 157.377 95.5801 157.484 95.473 157.484Z" fill="#BEB4AA"/>
<path d="M39.388 144.941C39.1739 144.941 39.0669 144.834 38.9599 144.727C38.7458 144.512 38.8528 144.083 39.0669 143.976L47.9506 137.758C48.1647 137.544 48.5928 137.651 48.6998 137.866C48.9139 138.08 48.8069 138.509 48.5928 138.616L39.7091 144.834C39.602 144.941 39.495 144.941 39.388 144.941Z" fill="#BEB4AA"/>
<path d="M64.9688 112.78C64.7547 112.78 64.6477 112.672 64.5406 112.565C64.5406 112.458 59.5101 106.133 56.1921 101.309C52.8741 96.5916 49.0209 93.2682 49.0209 93.2682C48.8069 93.161 48.8068 92.8394 48.8068 92.625L49.7701 89.5161L47.8436 90.5881C47.7365 90.6953 47.5225 90.6953 47.4154 90.5881C47.3084 90.5881 47.0943 90.4809 47.0943 90.2665C47.0943 90.2665 45.2748 86.4071 42.9201 83.8342C40.5653 81.1541 37.8895 79.2244 37.7825 79.2244C37.5684 79.01 37.4614 78.6884 37.6755 78.474C37.8895 78.2595 38.2106 78.1523 38.4247 78.3668C38.5317 78.474 41.2075 80.4036 43.6693 83.191C45.5959 85.3351 47.0943 88.2296 47.7365 89.4089L50.4123 87.908C50.6264 87.8008 50.8405 87.8008 51.0545 88.0152C51.2686 88.1224 51.2686 88.444 51.2686 88.6584L49.9842 92.8394C50.9475 93.697 54.2655 96.6988 57.1554 100.88C60.4734 105.704 65.5039 112.029 65.5039 112.029C65.718 112.243 65.611 112.672 65.3969 112.887C65.1828 112.78 65.0758 112.78 64.9688 112.78Z" fill="#BEB4AA"/>
<path d="M63.0425 148.8C63.0425 153.517 59.2964 157.27 54.5869 157.27H8.56293C3.8535 157.27 0.107361 153.517 0.107361 148.8C0.107361 144.083 3.8535 140.331 8.56293 140.331H54.5869C59.1894 140.331 63.0425 144.191 63.0425 148.8Z" fill="#77ACDD"/>
<path d="M220.273 211.73C222.414 214.195 221.557 216.876 221.557 216.876C221.557 216.876 220.38 220.735 218.025 222.772C215.671 224.809 211.817 228.454 211.817 228.454C211.817 228.454 202.292 233.492 198.652 232.527C195.12 231.563 193.087 229.311 193.087 229.311C193.087 229.311 198.545 225.345 203.362 221.593C207.001 218.698 212.674 214.088 212.46 212.909C209.998 192.326 207.964 172.922 207.643 169.062C207.429 166.596 207.322 165.632 208.928 164.452C210.854 162.951 231.297 151.159 231.297 151.159L234.294 165.203L220.166 174.851C220.166 174.851 220.915 177.424 220.915 186.001C220.701 196.078 220.273 211.73 220.273 211.73Z" fill="#F8C499"/>
<path d="M221.129 213.016C221.129 213.016 222.521 215.589 223.056 217.626C223.591 219.663 223.912 221.485 223.912 221.485C223.912 221.485 223.163 222.343 222.2 222.879C221.343 223.415 221.343 223.415 221.343 223.415C221.343 223.415 218.132 223.522 217.597 223.951C217.062 224.38 212.781 229.954 208.392 232.206C204.111 234.35 199.509 235.422 196.512 235.744C193.836 235.958 190.197 235.744 188.484 235.315C186.665 234.779 191.909 229.418 194.05 228.132C196.833 226.417 198.545 224.916 198.545 224.916C198.545 224.916 202.506 227.382 205.396 227.06C209.891 226.417 216.099 219.877 216.099 219.877C216.099 219.877 221.343 214.517 221.129 213.016Z" fill="#E9E362"/>
<path d="M232.689 220.842C233.652 223.308 234.401 225.345 234.401 225.345C234.401 225.345 233.117 230.598 230.762 232.635C228.515 234.779 224.768 238.531 224.768 238.531C224.768 238.531 215.457 243.998 211.817 243.141C208.178 242.39 206.038 240.139 206.038 240.139C206.038 240.139 211.282 235.851 215.885 231.884C219.417 228.775 224.875 224.058 224.661 222.772C221.236 202.296 218.454 182.999 217.811 179.247C217.49 176.781 217.383 175.923 218.882 174.637C220.701 173.136 235.579 160.915 235.579 160.915L236.97 173.565L230.548 179.139C230.548 179.139 231.404 187.18 231.726 195.756C232.368 205.833 232.689 220.842 232.689 220.842Z" fill="#F8C499"/>
<path d="M220.808 201.331C220.808 201.331 218.025 183.213 217.49 179.461C217.169 176.995 217.062 175.709 218.775 174.315C220.594 172.814 235.472 160.593 235.472 160.593L236.221 161.558C236.221 161.558 221.45 173.779 219.524 175.28C218.239 176.352 218.239 176.995 218.668 179.354C219.203 183.213 221.986 201.224 221.986 201.224L220.808 201.331Z" fill="#005796"/>
<path d="M206.359 167.454L207.536 176.566C207.536 176.566 209.035 179.354 218.346 182.141C227.765 184.928 232.261 183.428 232.261 183.428L231.726 179.247L258.484 165.095C258.484 165.095 265.762 165.631 266.939 160.164C268.545 152.981 265.334 138.401 265.334 138.401C265.334 138.401 245.961 139.474 240.074 141.618L237.826 147.728C237.826 147.728 229.05 151.588 225.09 153.517C214.279 158.77 205.717 163.916 206.359 167.454Z" fill="#005796"/>
<path d="M233.438 222.772C233.438 222.772 234.937 225.237 235.579 227.274C236.221 229.311 236.649 231.134 236.649 231.134C236.649 231.134 235.9 231.991 235.044 232.635C234.187 233.278 234.187 233.278 234.187 233.278C234.187 233.278 230.976 233.599 230.441 233.921C230.013 234.35 225.946 240.246 221.772 242.605C217.597 244.963 213.102 246.357 210.105 246.786C207.429 247.214 203.79 247.107 201.97 246.786C200.151 246.357 205.074 240.782 207.108 239.281C209.784 237.459 211.496 235.851 211.496 235.851C211.496 235.851 215.564 238.102 218.346 237.566C222.842 236.708 228.729 229.847 228.729 229.847C228.729 229.847 233.759 224.273 233.438 222.772Z" fill="#E9E362"/>
<path d="M285.777 108.277L279.783 113.208L284.921 117.711L290.272 113.316C290.272 113.316 293.269 111.493 296.373 110.314C298.3 109.671 301.939 107.527 301.939 107.527C301.939 107.527 308.575 105.275 309.859 104.954C309.859 104.954 311.893 104.31 311.679 103.024C311.465 101.737 309.645 101.952 309.645 101.952L301.725 104.632L309.966 99.0574C309.966 99.0574 312.535 97.5565 311.786 96.27C310.93 94.8764 309.217 95.734 309.217 95.734L300.012 101.309L307.719 94.2331C307.719 94.2331 310.287 92.5179 308.896 91.1242C307.719 89.9449 305.578 91.9818 305.578 91.9818L298.086 97.8781L297.765 98.0925L302.795 89.7305C302.795 89.7305 304.401 87.9081 303.009 86.9432C301.939 86.1928 300.869 88.0153 300.869 88.0153C299.263 90.3738 294.982 96.0556 294.982 96.0556C294.982 96.0556 293.697 97.6637 293.269 97.4493C292.734 97.1277 292.52 93.1611 291.236 92.089C289.844 91.017 289.202 92.5179 289.309 96.6989C289.416 101.416 288.988 104.525 285.777 108.277Z" fill="#F8C499"/>
<path d="M241.466 138.294C242.857 133.041 245.212 124.358 245.426 117.175C245.64 109.885 243.285 102.488 243.285 102.488L246.282 97.7709L251.955 97.0204H259.019C259.019 97.0204 264.156 96.6988 264.906 100.665C265.655 104.632 265.655 107.955 264.585 111.707C263.621 115.46 264.263 131.755 265.12 135.507C265.12 135.507 265.976 138.402 266.725 146.549V152.874L239.218 152.017C239.325 151.909 240.074 143.547 241.466 138.294Z" fill="#005796"/>
<path d="M257.841 96.4844V82.5478L247.887 82.2262V96.1628L241.144 97.3421C241.144 97.3421 243.606 104.096 253.132 104.096C264.263 104.096 266.297 97.2349 266.297 97.2349L257.841 96.4844Z" fill="#F6B37F"/>
<path d="M256.129 100.88C256.129 100.88 259.447 99.5934 260.517 96.5916C260.517 96.5916 267.153 95.5196 269.187 97.2348C272.184 99.8078 276.786 121.892 276.786 121.892C276.786 121.892 276.465 126.073 273.468 126.18C271.328 126.18 269.294 124.894 269.294 124.894L265.441 109.027C265.441 109.027 265.869 111.6 265.334 116.317C264.799 121.142 264.692 126.073 265.762 130.683C266.725 135.293 269.401 148.693 269.401 148.693C269.401 148.693 267.903 148.8 265.548 149.229C264.049 149.551 260.41 149.229 260.41 149.229" fill="#E9E362"/>
<path d="M270.043 121.142C273.04 117.175 285.242 107.741 285.242 107.741L290.165 113.959L276.679 126.395C276.679 126.395 273.896 129.182 270.685 126.931C267.474 124.679 270.043 121.142 270.043 121.142Z" fill="#E9E362"/>
<path d="M246.496 148.372C246.496 148.372 243.927 149.015 240.716 148.479C236.756 147.728 236.756 147.728 236.756 147.728C236.756 147.728 239.539 137.758 240.181 131.755C240.93 125.323 239.004 118.461 238.576 113.637C238.04 108.813 240.288 105.275 240.288 105.275L236.542 97.5565C239.004 95.9484 244.891 96.5917 244.891 96.5917C245.854 99.5934 249.279 100.88 249.279 100.88C249.279 100.88 251.527 101.952 256.236 100.88C261.052 99.8078 261.052 99.8078 261.052 99.8078L263.3 147.943L260.517 149.229C260.41 149.336 250.67 149.872 246.496 148.372Z" fill="#E9E362"/>
<path d="M214.6 102.381L242.001 107.634L244.569 96.4844L217.383 94.4475C217.383 94.5547 215.564 102.273 214.6 102.381Z" fill="#E9E362"/>
<path d="M81.4518 48.671C80.8096 53.0664 76.4213 56.0681 71.6048 55.4249C66.7883 54.6745 63.4703 50.6007 64.1125 46.0981C64.7547 41.7027 69.143 38.701 73.9595 39.3442C78.776 40.0946 82.094 44.2756 81.4518 48.671Z" fill="#F6B37F"/>
<path d="M42.813 43.7396C42.1708 48.135 37.7825 51.1368 32.966 50.4935C28.1496 49.7431 24.8316 45.6693 25.4738 41.1667C26.116 36.7713 30.5043 33.7696 35.3208 34.4128C40.0302 35.1632 43.4552 39.3442 42.813 43.7396Z" fill="#F6B37F"/>
<path d="M37.4614 14.3655C37.4614 14.3655 30.6113 36.9857 30.8254 49.4215C31.0394 59.3915 37.6755 70.0048 49.5561 71.7201C63.7914 73.757 70.9626 65.931 73.1033 58.1051C75.9931 47.599 76.5283 29.3742 76.2072 21.441C75.8861 15.1159 72.9962 14.5799 72.9962 14.5799L37.4614 14.3655Z" fill="#F8C499"/>
<path d="M49.6631 45.7765C49.0209 49.9575 45.1678 52.852 40.9935 52.316C36.8192 51.6728 33.9293 47.8134 34.4645 43.6324C35.1067 39.4514 38.9599 36.5569 43.1341 37.0929C47.4154 37.7362 50.3053 41.5955 49.6631 45.7765Z" fill="url(#paint0_radial)"/>
<path d="M74.2806 48.8854C73.6384 53.0664 69.7852 55.9609 65.611 55.4249C61.4367 54.7817 58.5468 50.9223 59.082 46.7413C59.7242 42.5603 63.5774 39.6658 67.7516 40.2018C72.0329 40.7378 74.9228 44.5972 74.2806 48.8854Z" fill="url(#paint1_radial)"/>
<path d="M49.8772 38.4866C49.449 41.3811 47.5225 43.5252 45.4888 43.3108C43.4552 42.9892 42.1708 40.4163 42.599 37.5217C43.0271 34.6272 44.9537 32.4831 46.9873 32.6975C49.0209 32.9119 50.3053 35.592 49.8772 38.4866Z" fill="white"/>
<path d="M49.8772 37.9505C49.5561 40.2018 48.0576 41.9171 46.4521 41.7027C44.8466 41.4883 43.8833 39.4514 44.2044 37.2001C44.5255 34.9488 46.024 33.2335 47.6295 33.5551C49.1279 33.6623 50.1983 35.592 49.8772 37.9505Z" fill="#005796"/>
<path d="M68.2868 40.8451C67.8586 43.7396 65.9321 45.8837 63.8984 45.6693C61.8648 45.3477 60.5804 42.7748 61.0086 39.8803C61.4367 36.9857 63.3633 34.8416 65.3969 35.056C67.3235 35.3776 68.6079 37.9506 68.2868 40.8451Z" fill="white"/>
<path d="M68.1797 40.309C67.8587 42.5603 66.3602 44.2756 64.7547 44.0612C63.1492 43.8468 62.1859 41.8099 62.507 39.5586C62.8281 37.3073 64.3266 35.592 65.9321 35.8064C67.5376 36.0209 68.5008 38.0577 68.1797 40.309Z" fill="#005796"/>
<path d="M54.6937 54.3529C52.7671 54.0313 50.1983 53.2809 50.0913 53.1737C49.7702 53.0665 49.5561 52.6377 49.6631 52.316C49.7702 51.9944 50.1983 51.78 50.5194 51.8872C51.5897 52.2088 54.4796 53.0665 55.978 53.0665C56.2991 52.2088 55.764 48.3495 54.8007 44.3829C54.6937 43.9541 54.9077 43.6324 55.3359 43.5252C55.657 43.418 56.0851 43.6324 56.1921 44.0613C56.7273 45.991 58.2257 52.5305 57.1554 54.0313C56.9413 54.3529 56.6202 54.4601 56.2991 54.5674C55.764 54.4601 55.2288 54.4601 54.6937 54.3529Z" fill="#005796"/>
<path d="M40.4583 17.26L33.5012 34.7344C33.5012 34.7344 34.1434 34.8416 32.3239 34.7344C32.3239 34.7344 32.645 16.0807 33.9293 13.8294C35.2137 11.6853 44.8467 3.32336 50.7335 1.82249C56.6203 0.321624 59.5101 0.857648 62.9352 1.60808C66.4673 2.25131 67.3235 2.68013 67.3235 2.68013L61.4367 5.25305C61.4367 5.25305 68.7149 5.03864 72.8892 6.00348C77.1705 6.96833 78.5619 8.25478 78.5619 8.25478L70.3204 9.21963C70.3204 9.21963 76.9564 10.0773 79.9534 10.9349C82.9503 11.7925 84.2347 13.4006 84.2347 13.4006L77.8127 15.3303C77.8127 15.3303 79.3112 19.8329 78.883 23.3707C78.0268 29.4813 75.7791 39.6658 75.7791 39.6658L74.3877 39.773C74.3877 39.773 75.458 26.158 75.351 23.0491C75.2439 19.9401 74.2806 18.1176 74.2806 18.1176C74.2806 18.1176 67.2165 18.5465 56.9414 18.1176C45.81 17.796 40.4583 17.26 40.4583 17.26Z" fill="#005796"/>
<path d="M40.3513 13.2935C40.1372 13.2935 40.0302 13.1863 39.9232 13.0791C39.6021 12.7575 39.6021 12.2214 39.9232 12.007C40.0302 11.8998 42.9201 9.32692 48.6998 6.6468C52.339 5.03872 56.5132 4.18108 56.6203 4.07388C57.0484 3.96667 57.4765 4.28829 57.5835 4.71711C57.6906 5.14593 57.3695 5.57475 56.9414 5.68195C56.9414 5.68195 52.7671 6.53959 49.342 8.14766C43.7763 10.6134 40.9935 13.1863 40.9935 13.1863C40.7794 13.2935 40.5654 13.2935 40.3513 13.2935Z" fill="white"/>
<path d="M78.883 23.4779L38.5317 17.5816L33.2871 16.8312C33.2871 16.8312 33.5012 14.6871 33.9293 13.9366L78.883 20.4761C78.883 20.4761 79.2041 21.977 78.883 23.4779Z" fill="#3E3A39"/>
<path d="M56.763 12.2276L55.9144 18.0621L57.2914 18.2618L58.14 12.4272L56.763 12.2276Z" fill="#86B3E0"/>
<path d="M65.611 9.21967C64.9688 13.6151 60.7945 16.724 56.4062 16.0808C52.0179 15.4376 48.9139 11.2566 49.5561 6.86116C50.1983 2.46576 53.7304 -0.535975 58.1187 0.107255C62.6141 0.750484 66.2532 4.71706 65.611 9.21967Z" fill="#F4F4F3"/>
<path d="M59.4031 7.61164C59.2961 8.46928 58.4398 9.11251 57.5835 9.0053C56.7273 8.8981 56.0851 8.04046 56.1921 7.18282C56.2992 6.32518 57.1554 5.68195 58.0117 5.78916C58.975 5.89636 59.6172 6.754 59.4031 7.61164Z" fill="#3E3A39"/>
<path d="M60.4734 20.7978L51.9108 19.5114L52.339 16.6168L60.9016 17.7961L60.4734 20.7978Z" fill="#86B3E0"/>
<path d="M36.4981 23.5851C36.2841 23.5851 36.07 23.3707 35.963 23.1563L33.7153 18.9753C33.5012 18.5465 33.6082 18.1176 34.0364 17.9032C34.4645 17.6888 34.8926 17.796 35.1067 18.2248L37.3544 22.4058C37.5685 22.8346 37.4614 23.2635 37.0333 23.4779C36.8192 23.5851 36.6052 23.5851 36.4981 23.5851Z" fill="white"/>
<path d="M35.2137 26.8012C34.9997 26.8012 34.7856 26.5868 34.6786 26.3724L33.0731 23.2635C32.859 22.8347 32.966 22.4058 33.3942 22.1914C33.8223 21.977 34.2504 22.0842 34.4645 22.513L36.07 25.622C36.284 26.0508 36.177 26.4796 35.7489 26.694C35.5348 26.8012 35.3208 26.9084 35.2137 26.8012Z" fill="white"/>
<path d="M70.7485 32.6975C69.036 32.6975 66.6813 32.3759 65.1829 30.9822C62.8281 28.6237 62.7211 27.1229 62.7211 27.0157C62.7211 26.6941 62.9352 26.3724 63.3633 26.3724C63.6844 26.3724 64.0055 26.5868 64.0055 27.0157C64.0055 27.0157 64.1125 28.1949 66.1461 30.1246C68.1798 32.0543 72.6751 31.4111 72.7822 31.4111C73.1033 31.3039 73.4244 31.6255 73.5314 31.9471C73.5314 32.2687 73.3173 32.5903 72.9962 32.6975C72.6751 32.5903 71.8189 32.6975 70.7485 32.6975Z" fill="#005796"/>
<path d="M45.3818 28.6238C45.2748 28.6238 45.1678 28.6238 45.0607 28.6238C41.7427 28.4094 40.6724 27.2301 40.5654 27.1229C40.3513 26.9085 40.3513 26.4797 40.6724 26.2653C40.8865 26.0509 41.3146 26.0509 41.5287 26.3725C41.5287 26.3725 42.3849 27.2301 45.1678 27.4445C48.0576 27.6589 51.0546 24.1212 51.0546 24.1212C51.2686 23.9068 51.6967 23.7996 51.9108 24.014C52.1249 24.2284 52.2319 24.6572 52.0178 24.8716C51.8038 25.086 48.6998 28.6238 45.3818 28.6238Z" fill="#005796"/>
<path d="M52.9811 57.3546C57.1554 57.9978 60.2593 60.3563 59.9382 62.6076C59.6171 64.9661 55.978 66.2526 51.8038 65.7166C47.6295 65.0733 44.5256 62.7148 44.8466 60.4635C45.1677 58.105 48.8069 56.7114 52.9811 57.3546Z" fill="#E94954"/>
<path d="M37.6754 81.3686C37.6754 81.3686 29.8621 81.1541 26.33 85.8712C23.6542 89.5161 27.4003 111.922 27.4003 111.922L37.6754 81.3686Z" fill="white"/>
<path d="M27.5074 112.351C27.4003 112.351 27.4003 112.351 27.5074 112.351C27.2933 112.351 27.0792 112.136 27.0792 111.922C27.0792 111.815 26.1159 106.24 25.4737 100.237C24.6175 92.1962 24.8315 87.2648 26.0089 85.6567C29.3269 81.1541 36.177 80.9397 37.5684 80.9397H37.7825C37.8895 80.9397 38.1036 81.0469 38.1036 81.1541C38.2106 81.2613 38.2106 81.3685 38.2106 81.5829L27.9355 112.029C27.8285 112.244 27.6144 112.351 27.5074 112.351ZM37.0333 81.9045C35.1067 82.0117 29.4339 82.4406 26.6511 86.1927C24.7245 88.7657 26.437 102.917 27.5074 109.992L37.0333 81.9045Z" fill="#BEB4AA"/>
<path d="M32.752 50.8152C33.8223 50.8152 34.0364 52.2088 34.0364 52.2088C34.0364 52.2088 34.5715 51.1368 35.4278 51.1368C36.7122 51.1368 36.6051 52.5305 36.6051 52.5305C36.6051 52.5305 37.1403 51.78 37.6755 51.8872C39.0669 52.1016 38.8528 53.4953 39.0669 54.3529C39.0669 54.3529 38.9599 55.5322 38.9599 57.9979C38.9599 59.7132 38.6388 62.0717 39.388 62.6077C39.388 62.6077 43.9904 66.6815 44.7396 68.9328C45.8099 72.149 44.2045 73.8642 44.2045 73.8642L43.1341 80.6181L36.3911 78.2596L37.6755 73.757C37.6755 73.757 35.3207 69.1472 30.5043 64.7518C28.3636 62.8221 28.6847 60.2492 28.7918 57.6763C28.8988 54.1385 29.541 52.5305 30.2902 52.2088C31.0394 51.8872 31.4676 52.5305 31.4676 52.5305C31.4676 52.5305 31.4676 50.8152 32.752 50.8152Z" fill="#F8C499"/>
<path d="M42.2779 80.7253C42.1708 80.7253 42.1708 80.7253 42.0638 80.7253C41.8497 80.6181 41.7427 80.4037 41.8497 80.1893L44.0974 74.293C44.0974 74.1858 45.2748 72.0417 44.2045 69.04C43.4552 66.8959 39.0669 62.9293 38.9599 62.9293C38.2106 62.3932 38.3177 60.7852 38.4247 59.0699C38.4247 58.6411 38.4247 58.2123 38.4247 57.8906C38.4247 55.7465 38.5317 54.5673 38.5317 54.2457C38.5317 54.1385 38.5317 53.9241 38.5317 53.7097C38.4247 52.7448 38.3177 52.316 37.5684 52.2088C37.3544 52.2088 37.1403 51.8872 37.2473 51.6728C37.2473 51.4584 37.5684 51.2439 37.7825 51.3511C39.281 51.5656 39.388 52.9592 39.495 53.7097C39.495 53.9241 39.495 54.0313 39.495 54.1385V54.2457C39.495 54.2457 39.388 55.4249 39.388 57.8906C39.388 58.3195 39.388 58.6411 39.388 59.0699C39.281 60.1419 39.281 61.8572 39.6021 62.1788C39.8161 62.3932 44.3115 66.3598 45.0607 68.7183C46.2381 72.0417 44.9537 74.5074 44.8467 74.6146L42.706 80.4037C42.599 80.6181 42.3849 80.7253 42.2779 80.7253Z" fill="#005796"/>
<path d="M36.07 60.4636C35.8559 60.4636 35.6418 60.2492 35.6418 60.0348C35.6418 59.9275 35.5348 58.3195 35.6418 56.6042C35.8559 54.0313 36.07 53.1736 36.07 53.0664C36.177 52.852 36.3911 52.6376 36.6051 52.7448C36.8192 52.852 37.0333 53.0664 36.9262 53.2808C36.9262 53.2808 36.7122 54.1385 36.6051 56.6042C36.4981 58.2123 36.6051 59.9275 36.6051 59.9275C36.6051 60.2492 36.3911 60.4636 36.07 60.4636C36.177 60.4636 36.177 60.4636 36.07 60.4636Z" fill="#005796"/>
<path d="M33.7153 60.142C33.5012 60.142 33.2871 59.9276 33.2871 59.7132C33.2871 59.606 33.1801 57.7835 33.2871 56.2826C33.3942 54.7818 33.6082 53.1737 33.6082 53.1737C33.6082 52.9593 33.8223 52.7449 34.1434 52.7449C34.3575 52.7449 34.5715 52.9593 34.5715 53.2809C34.5715 53.2809 34.3575 54.889 34.2504 56.3898C34.1434 57.7835 34.2504 59.7132 34.2504 59.7132C34.1434 59.9276 34.0364 60.142 33.7153 60.142Z" fill="#005796"/>
<path d="M31.5746 60.4636C31.3605 60.4636 31.1465 60.3564 31.1465 60.142C31.1465 60.0347 30.8254 58.7483 30.8254 57.3546C30.8254 55.961 31.1465 53.4953 31.1465 53.388C31.1465 53.1736 31.3605 52.9592 31.6816 52.9592C31.8957 52.9592 32.1098 53.1736 32.1098 53.4953C32.1098 53.4953 31.7887 55.961 31.7887 57.3546C31.7887 58.7483 32.1098 59.9275 32.1098 60.0347C32.1098 60.142 32.0027 60.3564 31.5746 60.4636C31.6816 60.4636 31.6816 60.4636 31.5746 60.4636Z" fill="#005796"/>
<path d="M36.177 74.1858L34.7856 78.0452L43.0271 80.8325L44.0974 77.5091L36.177 74.1858Z" fill="#ABDDF5"/>
<path d="M29.8621 119.319C29.8621 119.319 27.9355 121.57 25.9019 121.57C25.2597 121.57 24.6175 121.463 23.8683 121.142C17.1252 118.247 21.5135 110.421 21.5135 110.421L33.8223 77.402L43.6693 81.1541L36.4981 102.702C32.966 111.815 30.7183 118.461 29.8621 119.319Z" fill="white"/>
<path d="M25.9019 121.999C25.1526 121.999 24.4034 121.785 23.6542 121.463C21.8346 120.713 20.5502 119.426 20.0151 117.818C18.8377 114.495 20.8713 110.528 21.0854 110.099L33.3942 77.1876C33.3942 77.0804 33.5012 76.9732 33.6082 76.9732C33.7152 76.9732 33.8223 76.866 33.9293 76.9732L43.7763 80.7254C43.9904 80.8326 44.0974 81.047 44.0974 81.2614L36.9262 102.81C36.07 105.168 35.2137 107.312 34.4645 109.242C32.0027 115.781 30.8254 118.997 30.0761 119.748C30.0761 119.748 28.1496 121.999 25.9019 121.999ZM34.0363 77.938L21.9417 110.528C21.9417 110.528 21.9417 110.528 21.9417 110.636C21.9417 110.636 19.801 114.495 20.8713 117.604C21.2995 118.997 22.3698 120.07 24.0823 120.713C24.7245 121.034 25.3667 121.142 25.9019 121.142V121.57V121.142C27.6144 121.142 29.4339 118.997 29.4339 118.997C30.0761 118.354 31.6816 114.173 33.6082 108.813C34.3574 106.883 35.1067 104.739 36.07 102.381L43.0271 81.2614L34.0363 77.938Z" fill="#BEB4AA"/>
<path d="M282.673 55.5322C283.743 59.1771 281.603 62.9293 278.071 64.0014C274.432 65.0734 270.685 62.9293 269.615 59.3916C268.545 55.7466 270.685 51.9944 274.325 50.9224C277.964 49.7431 281.71 51.8872 282.673 55.5322Z" fill="#F6B37F"/>
<path d="M219.31 73.221C222.842 88.2297 239.218 97.1277 255.808 93.1611C272.398 89.1945 282.994 73.8642 279.355 58.8556C275.823 43.8469 259.447 34.9489 242.857 38.9155C226.267 42.7748 215.671 58.2123 219.31 73.221Z" fill="#F8C499"/>
<path d="M234.937 25.6221C234.937 25.6221 236.756 29.4814 239.111 31.4111C241.465 33.3408 244.569 33.1264 244.569 33.1264C244.569 33.1264 242.536 37.9506 237.933 36.0209C230.976 33.1264 234.937 25.6221 234.937 25.6221Z" fill="#005796"/>
<path d="M272.291 32.5904C271.542 38.0578 263.621 41.5956 254.631 40.5235C245.533 39.3443 238.79 33.984 239.539 28.4094C240.288 22.9419 248.209 19.4042 257.199 20.4762C266.19 21.6555 272.933 27.0157 272.291 32.5904Z" fill="#005796"/>
<path d="M259.661 39.4515C259.554 39.4515 259.447 39.4515 259.34 39.4515C258.591 39.237 257.734 38.2722 257.199 37.3074C256.664 36.3425 255.594 33.7696 256.557 31.1967C258.591 25.9436 266.511 25.4076 266.832 25.3004C267.153 25.3004 267.474 25.5148 267.474 25.8364C267.474 26.1581 267.26 26.4797 266.939 26.4797C266.832 26.4797 259.447 27.0157 257.627 31.6255C256.878 33.6624 257.734 35.8065 258.163 36.5569C258.698 37.629 259.34 38.2722 259.554 38.2722C259.875 38.3794 260.089 38.701 259.982 39.0226C259.982 39.237 259.875 39.3442 259.661 39.4515Z" fill="white"/>
<path d="M256.129 37.629C256.022 37.7362 255.808 37.7362 255.701 37.629C255.487 37.5218 249.386 34.52 250.242 28.9454C251.205 23.3707 256.878 22.0843 256.878 22.0843C257.199 21.9771 257.52 22.1915 257.627 22.5131C257.734 22.8347 257.52 23.1563 257.199 23.2635C256.985 23.2635 252.169 24.4428 251.42 29.1598C250.67 33.8768 256.129 36.5569 256.236 36.5569C256.557 36.6641 256.664 37.093 256.557 37.3074C256.343 37.4146 256.236 37.5218 256.129 37.629Z" fill="white"/>
<path d="M251.527 35.8065C251.42 35.8065 251.312 35.9137 251.205 35.8065C251.098 35.8065 247.352 34.8416 245.212 30.9823C242.857 26.9085 247.245 22.7275 247.459 22.6203C247.673 22.4059 248.102 22.4059 248.316 22.6203C248.53 22.8347 248.53 23.2635 248.316 23.4779C248.316 23.4779 244.462 27.1229 246.282 30.4462C248.209 33.8768 251.527 34.7344 251.527 34.7344C251.848 34.8416 252.062 35.1632 251.955 35.4849C251.848 35.5921 251.741 35.8065 251.527 35.8065Z" fill="white"/>
<path d="M276.786 51.244C270.899 36.3426 253.988 28.5166 236.649 35.2705C219.738 41.9172 212.353 59.3916 218.239 74.2931C218.239 74.2931 226.588 62.8222 232.047 56.0683C237.505 49.3143 240.181 44.3829 240.181 44.3829C240.181 44.3829 250.135 46.9558 258.163 48.6711C266.725 50.6008 276.786 51.244 276.786 51.244Z" fill="#005796"/>
<path d="M240.181 43.8469C239.86 43.9541 239.539 43.8469 239.432 43.5253L236.97 37.2002C236.863 36.8786 236.97 36.557 237.291 36.4497C237.612 36.3425 237.933 36.4497 238.04 36.7714L240.502 43.0965C240.609 43.3109 240.395 43.7397 240.181 43.8469Z" fill="white"/>
<path d="M218.989 67.3248C218.775 67.432 218.561 67.3248 218.454 67.2176C218.239 67.0032 218.132 66.6816 218.346 66.36C218.346 66.36 219.631 64.6447 224.768 58.6412C229.906 52.6377 236.863 41.81 236.97 41.7028C237.184 41.3812 237.505 41.3812 237.826 41.4884C238.147 41.7028 238.147 42.0245 238.04 42.3461C237.933 42.4533 230.869 53.3882 225.732 59.4988C220.594 65.5023 219.31 67.2176 219.31 67.2176C219.203 67.2176 219.096 67.3248 218.989 67.3248Z" fill="white"/>
<path d="M219.096 60.7852C218.989 60.8924 218.775 60.8924 218.668 60.7852C218.346 60.678 218.239 60.2492 218.346 60.0348C218.346 59.9276 221.022 54.2457 225.197 48.8855C228.193 44.9189 233.759 40.6307 233.973 40.4163C234.187 40.2019 234.615 40.3091 234.829 40.5235C235.044 40.7379 234.937 41.1667 234.722 41.3812C234.615 41.3812 229.157 45.6693 226.16 49.5287C222.093 54.7818 219.524 60.4636 219.524 60.4636C219.417 60.678 219.31 60.7852 219.096 60.7852Z" fill="white"/>
<path d="M270.792 45.3478C270.685 45.3478 270.685 45.3478 270.578 45.3478C270.578 45.3478 265.334 45.5622 257.734 44.7046C249.386 43.7397 239.86 42.1316 239.753 42.1316C239.432 42.0244 239.218 41.81 239.218 41.4884C239.325 41.1668 239.539 40.9524 239.86 40.9524C239.967 40.9524 249.493 42.5605 257.734 43.5253C265.227 44.3829 270.364 44.1685 270.471 44.1685C270.792 44.1685 271.114 44.383 271.114 44.7046C271.114 45.0262 271.007 45.2406 270.792 45.3478Z" fill="white"/>
<path d="M264.37 40.7379C264.263 40.8451 264.049 40.8451 263.942 40.7379C263.942 40.7379 260.945 39.2371 254.845 38.4866C248.744 37.7362 241.787 37.9506 241.787 37.9506C241.465 37.9506 241.144 37.7362 241.144 37.4146C241.144 37.093 241.358 36.7714 241.68 36.7714C241.787 36.7714 248.744 36.4497 254.952 37.3074C261.267 38.0578 264.37 39.5587 264.478 39.6659C264.799 39.7731 264.906 40.2019 264.692 40.4163C264.585 40.6307 264.478 40.7379 264.37 40.7379Z" fill="white"/>
<path d="M202.078 26.9084L207.322 29.6958L208.821 38.5938L215.671 40.2019L217.704 47.1702L213.744 44.1684L205.61 41.9171L204.432 33.4479L199.295 30.2318L202.078 26.9084Z" fill="#E94960"/>
<path d="M196.298 51.1367L196.619 47.2773H201.114L208.928 49.9575L216.099 49.7431L209.035 53.924L202.613 51.2439L196.298 51.1367Z" fill="#E94960"/>
<path d="M219.203 26.9084L224.019 27.9805L221.772 36.8785L222.2 41.9171L217.811 37.3073L219.203 26.9084Z" fill="#E94960"/>
<path d="M225.09 79.8676C225.518 83.6198 228.836 86.1927 232.475 85.7639C236.221 85.3351 238.79 82.0117 238.469 78.3668C238.04 74.6146 234.722 72.0417 231.083 72.3633C227.337 72.7921 224.768 76.1155 225.09 79.8676Z" fill="url(#paint2_radial)"/>
<path d="M263.193 67.0031C263.621 70.6481 266.939 73.3282 270.578 73.0066C274.217 72.5778 276.893 69.2544 276.572 65.5023C276.144 61.7501 272.826 59.1772 269.187 59.4988C265.548 59.9276 262.872 63.251 263.193 67.0031Z" fill="url(#paint3_radial)"/>
<path d="M244.676 71.3985C244.569 71.3985 244.569 71.3985 244.462 71.3985C243.606 71.0769 242.108 70.112 242.215 68.1823C242.322 66.2526 242.536 63.6797 242.536 63.5725C242.536 63.2509 242.857 63.0365 243.178 63.0365C243.499 63.0365 243.713 63.3581 243.713 63.6797C243.713 63.6797 243.392 66.2526 243.392 68.1823C243.285 69.6832 244.891 70.2192 244.891 70.2192C245.212 70.3264 245.426 70.648 245.212 70.9697C245.212 71.2913 244.891 71.3985 244.676 71.3985Z" fill="#005796"/>
<path d="M253.881 63.5725C253.667 63.5725 253.453 63.4653 253.239 63.2509C252.811 62.6077 253.239 62.0717 253.667 61.5356C255.38 59.3915 260.089 56.497 260.196 56.3898C260.624 56.1754 261.16 56.2826 261.374 56.7114C261.588 57.1402 261.481 57.6763 261.052 57.8907C261.052 57.8907 258.912 59.2843 256.985 60.678C258.163 60.3564 259.554 60.2492 261.16 60.3564C261.588 60.3564 262.016 60.7852 261.909 61.3212C261.909 61.75 261.481 62.1789 260.945 62.0717C257.734 61.8572 255.487 62.8221 254.523 63.3581C254.523 63.4653 254.202 63.5725 253.881 63.5725Z" fill="#005796"/>
<path d="M230.441 71.1841C230.12 71.1841 229.799 70.9697 229.692 70.648C229.478 70.2192 229.692 69.6832 230.12 69.4688C230.762 69.1472 231.404 68.9328 232.154 68.8256C230.655 68.6111 228.729 68.6112 228.729 68.6112C228.301 68.6112 227.872 68.1823 227.872 67.7535C227.872 67.3247 228.301 66.8959 228.729 66.8959C228.836 66.8959 231.619 66.8959 233.331 67.3247C236.542 68.1823 236.756 68.3967 236.863 68.7184C236.97 68.9328 236.97 69.1472 236.97 69.3616C236.863 69.6832 236.542 70.0048 236.114 70.0048C236.114 70.0048 233.117 70.0048 230.869 71.0769C230.762 71.1841 230.548 71.1841 230.441 71.1841Z" fill="#005796"/>
<path d="M240.93 82.2262C241.787 83.8343 242.429 84.2631 242.429 84.2631C242.429 84.2631 243.82 86.4072 247.566 81.4758C250.135 78.1524 262.23 80.7253 262.23 80.7253C262.23 80.7253 266.404 79.6533 263.621 74.6147C260.838 69.576 252.062 77.402 246.496 78.2596C241.68 79.0101 239.111 78.7956 240.93 82.2262Z" fill="#EA5769"/>
<path d="M225.946 64.0013C225.304 64.0013 224.982 63.8941 224.875 63.8941C224.554 63.7869 224.34 63.4653 224.447 63.1437C224.554 62.8221 224.875 62.6077 225.197 62.7149C225.304 62.7149 227.337 63.2509 229.799 61.3212C231.404 60.0348 231.726 57.3547 231.726 57.2474C231.726 56.9258 232.047 56.7114 232.368 56.7114C232.689 56.7114 232.903 57.033 232.903 57.3547C232.903 57.4619 232.475 60.678 230.548 62.1789C228.729 63.7869 227.016 64.0013 225.946 64.0013Z" fill="#005796"/>
<path d="M252.811 52.9593C250.67 52.9593 249.279 51.4584 249.279 51.4584C249.065 51.244 249.065 50.8152 249.279 50.6008C249.493 50.3864 249.921 50.3864 250.135 50.6008C250.242 50.708 251.42 51.8872 253.239 51.6728C255.701 51.3512 257.627 49.6359 257.734 49.5287C257.949 49.3143 258.377 49.3143 258.591 49.5287C258.805 49.7431 258.805 50.172 258.591 50.3864C258.484 50.4936 256.343 52.4233 253.453 52.7449C253.132 52.9593 253.025 52.9593 252.811 52.9593Z" fill="#005796"/>
<path d="M221.022 51.5656C221.879 51.9944 221.557 53.1737 221.557 53.1737C221.557 53.1737 222.414 52.5304 223.056 52.8521C224.126 53.3881 223.484 54.4601 223.484 54.4601C223.484 54.4601 224.233 54.0313 224.661 54.3529C225.732 55.1034 225.09 56.0682 224.875 56.9258C224.875 56.9258 224.34 57.7835 223.377 59.8204C222.735 61.214 221.45 63.0365 221.879 63.787C221.879 63.787 225.518 68.9328 225.197 71.1841C224.875 74.293 221.772 75.3651 221.772 75.3651L218.454 83.2982L215.564 80.7253L217.704 71.0769C217.704 71.0769 215.885 67.5391 213.637 61.9645C212.674 59.4988 213.958 57.5691 215.028 55.5322C216.42 52.6376 217.597 51.6728 218.346 51.6728C219.096 51.6728 219.203 52.316 219.203 52.316C219.203 52.316 219.952 51.0296 221.022 51.5656Z" fill="#F8C499"/>
<path d="M221.343 82.655C221.022 82.5478 220.808 82.3334 220.915 82.119L222.521 73.9714C222.521 73.8642 222.628 73.6498 222.842 73.6498C222.842 73.6498 224.126 73.0066 224.447 70.3264C224.661 68.7184 222.307 65.2878 221.45 64.1086C221.45 64.1086 221.45 64.1086 221.45 64.0014C221.022 63.1437 221.664 61.9645 222.414 60.5708C222.628 60.2492 222.735 59.9276 222.949 59.6059C223.805 57.7835 224.34 56.9258 224.447 56.7114C224.447 56.6042 224.554 56.497 224.554 56.2826C224.875 55.5322 224.982 55.1033 224.447 54.7817C224.233 54.6745 224.126 54.3529 224.34 54.1385C224.447 53.9241 224.768 53.8169 224.982 54.0313C226.16 54.8889 225.732 56.0682 225.518 56.7114C225.518 56.8186 225.411 56.9258 225.411 57.1402V57.2474C225.411 57.2474 224.875 58.2123 223.912 60.142C223.805 60.4636 223.591 60.7852 223.377 61.1068C222.949 61.8573 222.2 63.2509 222.414 63.5725C222.949 64.2158 225.839 68.1823 225.625 70.4336C225.304 73.0066 224.126 74.0786 223.698 74.4002L222.093 82.3334C221.771 82.4406 221.557 82.655 221.343 82.655Z" fill="#005796"/>
<path d="M220.166 60.8925C220.059 60.8925 220.059 60.8925 219.952 60.8925C219.738 60.7852 219.631 60.4636 219.631 60.2492C219.631 60.142 220.166 58.7484 221.022 57.4619C222.2 55.425 222.735 54.7818 222.735 54.6746C222.949 54.4602 223.163 54.4602 223.377 54.5674C223.591 54.7818 223.591 54.9962 223.484 55.2106C223.484 55.2106 222.949 55.8538 221.879 57.7835C221.129 59.07 220.594 60.4636 220.594 60.4636C220.594 60.7853 220.38 60.8925 220.166 60.8925Z" fill="#005796"/>
<path d="M218.346 59.7131C218.239 59.7131 218.239 59.7131 218.132 59.7131C217.918 59.6059 217.811 59.2843 217.918 59.0699C217.918 58.9627 218.561 57.4618 219.31 56.2826C219.952 55.1033 220.808 53.9241 220.808 53.8169C220.915 53.6024 221.236 53.4952 221.45 53.7096C221.664 53.8168 221.772 54.1385 221.557 54.3529C221.557 54.3529 220.701 55.6393 220.166 56.7114C219.524 57.8906 218.882 59.3915 218.882 59.3915C218.668 59.6059 218.561 59.7131 218.346 59.7131Z" fill="#005796"/>
<path d="M216.527 59.07C216.527 59.07 216.42 59.07 216.527 59.07C216.206 58.9628 215.992 58.7484 216.099 58.534C216.099 58.534 216.42 57.2475 216.955 56.0682C217.49 54.889 218.668 52.9593 218.775 52.9593C218.882 52.7449 219.203 52.6377 219.417 52.8521C219.631 52.9593 219.738 53.2809 219.524 53.4953C219.524 53.4953 218.346 55.425 217.811 56.4971C217.276 57.5691 217.062 58.7484 217.062 58.7484C216.955 58.9628 216.741 59.07 216.527 59.07Z" fill="#005796"/>
<path d="M221.343 97.342L223.912 76.0082L216.42 74.293L211.603 95.9483C211.603 95.9483 209.998 101.201 214.6 102.381C219.524 103.774 221.343 97.342 221.343 97.342Z" fill="#E9E362"/>
</g>
<defs>
<radialGradient id="paint0_radial" cx="0" cy="0" r="1" gradientUnits="userSpaceOnUse" gradientTransform="translate(42.0978 44.721) rotate(8.29801) scale(7.67424 7.68608)">
<stop stop-color="#F29D88"/>
<stop offset="1" stop-color="#F8C499"/>
</radialGradient>
<radialGradient id="paint1_radial" cx="0" cy="0" r="1" gradientUnits="userSpaceOnUse" gradientTransform="translate(66.7355 47.7473) rotate(8.29801) scale(7.67434 7.68618)">
<stop stop-color="#F29D88"/>
<stop offset="1" stop-color="#F8C499"/>
</radialGradient>
<radialGradient id="paint2_radial" cx="0" cy="0" r="1" gradientUnits="userSpaceOnUse" gradientTransform="translate(231.811 79.0911) rotate(173.64) scale(6.72843 6.739)">
<stop stop-color="#F29D88"/>
<stop offset="1" stop-color="#F8C499"/>
</radialGradient>
<radialGradient id="paint3_radial" cx="0" cy="0" r="1" gradientUnits="userSpaceOnUse" gradientTransform="translate(269.923 66.2457) rotate(173.64) scale(6.7311 6.74168)">
<stop stop-color="#F29D88"/>
<stop offset="1" stop-color="#F8C499"/>
</radialGradient>
<clipPath id="clip0">
<rect width="312" height="247" fill="white"/>
</clipPath>
</defs>
</svg>
