<svg width="238" height="181" viewBox="0 0 238 181" fill="none" xmlns="http://www.w3.org/2000/svg">
<path fill-rule="evenodd" clip-rule="evenodd" d="M210.874 76.902C211.447 76.902 212.02 76.7874 212.594 76.902C213.281 77.0167 213.969 77.1313 214.657 77.3606C217.179 78.5071 219.472 79.8828 221.307 81.9465C221.421 82.1758 221.651 82.2904 221.765 82.4051C224.975 85.8444 228.185 89.1692 231.51 92.6086C232.771 93.8697 234.147 95.1308 235.408 96.3919C235.981 96.9651 236.669 97.653 237.243 98.2262C237.472 98.4555 237.357 98.7995 237.128 98.9141C235.752 99.4873 234.376 99.4873 233.001 99.1434C231.625 98.7995 230.364 98.2262 229.217 97.5384C228.071 96.8505 227.039 96.048 225.893 95.3601C225.663 95.2454 225.434 95.1308 225.09 94.9015C224.861 94.7868 224.517 95.0161 224.517 95.2454C224.517 95.4747 224.517 95.8187 224.631 96.048C224.746 96.7358 224.975 97.5384 225.09 98.2262C225.09 98.5702 225.09 99.0288 224.975 99.3727C224.975 99.7166 224.631 99.9459 224.402 99.8313C223.944 99.7166 223.37 99.602 222.912 99.4873C221.536 98.9141 220.16 98.1116 219.128 97.0798C219.014 96.9651 218.784 96.7358 218.555 96.6212C218.441 96.6212 218.326 96.6212 218.211 96.7358L218.097 96.8505C218.211 97.1944 218.326 97.5384 218.326 97.8823C218.555 98.7995 218.441 99.7166 218.211 100.634C218.097 101.207 217.638 101.551 217.065 101.436C216.606 101.322 216.033 101.207 215.574 101.092C214.313 100.634 213.052 99.8313 212.135 98.7995C211.906 98.5702 211.676 98.6848 211.676 98.9141C211.676 99.1434 211.676 99.3727 211.562 99.602C211.333 100.405 210.874 100.634 209.957 100.634C209.384 100.634 208.925 100.405 208.466 100.175C206.861 99.3727 205.371 98.3409 203.995 97.1944C202.161 95.704 200.212 94.099 198.377 92.4939C197.804 92.0353 197.346 91.5768 196.887 91.1182C196.772 91.0035 196.658 90.6596 196.772 90.4303C197.002 89.6278 197.231 88.8252 197.575 87.9081C198.377 85.6152 198.721 83.2076 198.721 80.8C198.721 80.5707 198.721 80.4561 198.721 80.2268C198.721 79.6536 198.951 79.195 199.524 78.9657C200.212 78.7364 200.785 78.3924 201.473 78.1632C204.11 77.246 206.861 76.7874 209.613 76.5581C210.071 76.902 210.415 76.902 210.874 76.902Z" fill="#8BC2BF"/>
<path fill-rule="evenodd" clip-rule="evenodd" d="M198.951 79.9975C198.836 80.9146 198.836 82.405 198.721 83.7808C198.721 84.2394 198.492 84.698 198.377 85.1565C198.377 85.2712 198.034 85.3858 197.919 85.2712C197.69 84.9272 197.346 84.698 197.116 84.354C196.085 83.2076 194.709 82.6343 193.104 82.5197C191.728 82.405 190.467 82.6343 189.206 83.2076C187.945 83.7808 186.913 84.4687 185.881 85.3858C183.473 87.4495 181.41 89.9717 179.805 92.7232C178.544 94.9015 177.856 97.1944 177.397 99.602C177.168 100.863 176.939 102.239 177.053 103.615C177.053 104.188 176.939 104.532 176.365 104.646C175.678 104.876 174.99 105.22 174.302 105.449C173.958 105.564 173.614 105.907 173.499 106.251C173.155 107.971 172.697 109.576 172.467 111.411C172.353 112.557 172.009 113.703 171.78 114.85C171.665 115.423 171.321 115.996 171.092 116.57C170.977 116.799 170.633 116.799 170.518 116.684C170.175 116.34 169.831 115.996 169.487 115.767C169.257 115.652 169.028 115.652 168.799 115.767C168.569 115.996 168.34 116.34 168.111 116.57C167.882 116.799 167.652 116.914 167.423 117.028C166.964 117.257 166.391 116.914 166.391 116.455C166.391 115.882 166.391 115.308 166.506 114.735C166.506 114.506 166.621 114.277 166.506 114.047C166.506 113.933 166.277 113.818 166.162 113.818C166.047 113.818 165.818 113.933 165.703 114.047C165.474 114.277 165.245 114.506 164.901 114.735C164.442 115.079 163.984 115.308 163.525 115.423C163.066 115.538 162.608 115.194 162.608 114.621C162.608 114.277 162.723 113.818 162.837 113.474C162.952 113.13 163.066 112.786 163.181 112.557C163.296 112.328 163.41 111.984 163.066 111.754C162.837 111.525 162.493 111.64 162.264 111.754C161.805 111.984 161.461 112.213 161.003 112.328C160.544 112.557 159.971 112.672 159.512 112.786C159.054 112.786 158.481 113.016 158.251 112.442C158.022 112.098 158.366 111.64 158.595 111.296C159.168 110.264 159.856 109.462 160.774 108.774C162.952 107.169 165.015 105.334 167.538 104.188C168.455 103.729 168.913 103.041 168.799 102.01C168.684 99.7166 168.913 97.4237 169.487 95.1308C169.945 93.1818 170.633 91.3474 171.55 89.6277C172.009 88.7106 172.582 87.7934 173.155 86.9909C173.614 86.303 174.073 85.5005 174.531 84.8126C174.76 84.5833 174.416 84.0101 174.072 84.1247C173.155 84.2394 172.238 84.2394 171.321 84.4687C169.143 84.8126 166.964 85.0419 164.786 85.5005C163.181 85.8444 161.576 85.9591 159.971 85.8444C159.627 85.8444 159.398 85.8444 159.054 85.7298C157.907 85.3858 157.334 84.8126 157.793 83.5515C157.907 83.4368 157.907 83.2076 157.907 83.0929C157.907 82.9783 157.793 82.8636 157.678 82.8636C157.449 82.8636 157.105 82.9783 156.876 83.0929C155.385 83.4368 153.895 83.4368 152.404 83.0929C152.29 83.0929 152.06 82.9783 151.946 82.9783C151.258 82.749 151.029 82.2904 151.258 81.6025C151.487 80.6853 151.946 79.7682 152.634 79.0803C152.748 78.9656 152.978 78.7363 153.092 78.6217C153.092 78.5071 153.092 78.3924 153.092 78.2778L152.978 78.1631C152.634 78.1631 152.29 78.2778 151.946 78.2778C150.685 78.6217 149.309 78.6217 147.933 78.5071C147.245 78.3924 146.443 78.5071 145.87 77.7045C145.87 76.902 146.328 76.4434 146.787 75.8702C147.131 75.4116 147.475 75.0677 147.819 74.7237C148.048 74.4944 148.162 74.2651 148.392 74.0359C148.506 73.8066 148.392 73.348 148.162 73.348C147.933 73.348 147.704 73.348 147.475 73.348C146.557 73.4626 145.64 73.4626 144.723 73.5773C143.118 73.6919 141.513 73.8066 139.908 73.348C138.532 73.004 137.386 72.5455 136.354 71.6283C136.125 71.399 136.01 71.1697 135.781 70.9404C135.666 70.8258 135.781 70.3672 135.895 70.3672C136.125 70.2525 136.469 70.1379 136.698 70.0232C137.156 69.9086 137.73 69.7939 138.188 69.6793C140.367 69.2207 142.43 68.6475 144.608 67.9596C148.736 66.6985 152.863 65.3227 157.105 64.0616C157.793 63.8323 158.595 63.6031 159.283 63.4884C160.659 63.1445 162.149 62.9152 163.525 63.0298C163.984 63.0298 164.328 63.0298 164.786 63.0298C166.162 62.9152 167.423 63.3738 168.569 63.947C170.748 65.0935 172.582 66.4692 174.416 68.0743C175.219 68.7621 175.907 69.45 176.595 70.1379C177.397 70.9404 177.97 71.8576 178.544 72.7747C178.773 73.1187 179.002 73.5773 179.346 73.9212C179.576 74.1505 179.805 74.6091 180.149 74.4944C180.378 74.3798 180.493 74.0359 180.607 73.8066C181.295 72.4308 182.212 71.399 183.473 70.5965C185.996 68.7621 188.862 68.0743 192.072 68.4182C193.792 68.6475 195.397 69.3354 196.658 70.5965C197.46 71.6283 197.002 71.2843 196.543 71.399C195.397 71.6283 194.938 72.6601 194.823 73.5773C194.48 75.1823 194.594 75.8702 196.543 75.7555C197.002 75.7555 197.346 75.6409 197.804 75.6409C198.721 75.5263 198.836 75.6409 198.836 76.5581C198.721 77.1313 198.836 78.2778 198.951 79.9975ZM192.531 71.7429C192.531 71.1697 191.957 70.8258 191.269 70.9404C190.811 71.0551 190.352 71.399 190.352 71.8576C190.352 72.4308 190.925 73.004 191.499 73.004C192.072 72.7747 192.531 72.3162 192.531 71.7429Z" fill="#9ED5D5"/>
<path fill-rule="evenodd" clip-rule="evenodd" d="M191.843 97.1945C192.072 97.8823 191.613 98.4556 191.04 98.9142C190.467 99.3727 189.779 99.8313 189.206 100.175" fill="#FBF7CE"/>
<path fill-rule="evenodd" clip-rule="evenodd" d="M193.104 96.7358C193.218 96.6212 193.333 96.5066 193.448 96.3919C194.365 95.0162 195.282 93.5258 196.085 92.15C196.887 90.7742 197.46 89.3985 197.804 87.7934C197.919 87.3349 198.148 86.4177 198.263 86.0738C198.607 84.1248 196.199 83.2076 194.479 82.749C193.562 82.5197 192.187 82.2904 190.811 82.749C189.091 82.9783 187.257 84.3541 185.996 85.5005C181.524 89.2838 178.544 93.8697 177.626 99.7167C177.397 100.863 177.283 102.01 177.283 103.156C177.283 103.844 175.792 104.99 178.888 103.959C180.951 103.385 182.9 102.812 184.849 102.239C185.422 102.01 185.996 101.78 186.684 101.551C186.569 101.436 191.04 98.9141 193.104 96.7358Z" fill="#FBF7CE"/>
<path d="M204.798 89.3985C206.747 91.0035 208.696 92.4939 210.874 93.755C211.676 94.2136 212.364 92.9525 211.562 92.4939C209.498 91.2328 207.549 89.8571 205.715 88.3667C205.371 88.1374 205.027 88.0227 204.683 88.3667C204.568 88.596 204.568 89.1692 204.798 89.3985Z" fill="#005796"/>
<path d="M209.04 87.4494C211.103 88.7106 213.167 89.9717 215.23 91.1181C216.033 91.5767 216.721 90.3156 215.918 89.857C213.855 88.5959 211.791 87.3348 209.727 86.1883C208.925 85.7298 208.237 86.9909 209.04 87.4494Z" fill="#005796"/>
<path d="M213.74 84.1248C216.836 85.7298 219.816 87.7934 222.453 90.0864C223.141 90.6596 224.173 89.6278 223.485 89.0546C220.734 86.647 217.753 84.5834 214.543 82.8637C213.625 82.5197 212.938 83.7808 213.74 84.1248Z" fill="#005796"/>
<path d="M155.844 69.9087C158.481 69.2208 161.003 68.5329 163.64 67.845C164.557 67.6157 164.098 66.24 163.296 66.4693C160.659 67.1572 158.137 67.845 155.5 68.5329C154.583 68.7622 154.927 70.138 155.844 69.9087Z" fill="#005796"/>
<path d="M159.398 77.0167C161.576 76.0995 163.64 75.0677 165.818 74.1505C166.162 74.0359 166.277 73.4627 166.047 73.1187C165.818 72.7748 165.474 72.6601 165.015 72.8894C162.837 73.8066 160.774 74.8384 158.595 75.7556C158.251 75.8702 158.137 76.4435 158.366 76.7874C158.71 77.0167 159.054 77.1313 159.398 77.0167Z" fill="#005796"/>
<path d="M198.034 76.3289C198.377 82.1758 198.836 88.1374 195.282 93.1819C192.301 97.4238 187.371 100.175 182.442 101.436C181.524 101.666 181.983 103.041 182.786 102.812C188.059 101.551 193.104 98.6849 196.314 94.2137C200.212 88.8253 199.868 82.6344 199.524 76.3289C199.409 75.4117 197.919 75.4117 198.034 76.3289Z" fill="#005796"/>
<path d="M166.047 108.774C166.964 108.086 167.882 107.398 168.684 106.71C168.799 106.595 168.913 106.366 168.913 106.251C168.913 106.022 168.799 105.908 168.684 105.793C168.569 105.678 168.34 105.564 168.226 105.564C167.996 105.564 167.882 105.678 167.767 105.793C166.85 106.481 165.933 107.169 165.13 107.857C165.015 107.971 164.901 108.2 164.901 108.315C164.901 108.544 165.015 108.659 165.13 108.774C165.245 108.888 165.474 109.003 165.589 109.003C165.703 109.003 165.818 108.888 166.047 108.774Z" fill="#005796"/>
<path d="M168.913 111.525C169.257 110.608 169.601 109.691 169.945 108.888C170.06 108.774 169.945 108.43 169.831 108.315C169.716 108.2 169.601 107.971 169.372 107.971C169.143 107.971 169.028 107.971 168.799 108.086C168.684 108.2 168.569 108.315 168.455 108.544C168.111 109.462 167.767 110.379 167.423 111.181C167.308 111.296 167.423 111.64 167.538 111.754C167.652 111.869 167.767 112.098 167.996 112.098C168.226 112.098 168.34 112.098 168.57 111.984C168.684 111.869 168.799 111.64 168.913 111.525Z" fill="#005796"/>
<path d="M191.843 96.1626C192.301 98.2262 192.645 100.29 192.76 102.353C192.76 102.697 193.104 103.041 193.448 103.041C193.792 103.041 194.136 102.697 194.136 102.353C194.021 100.175 193.677 97.8823 193.218 95.8187C193.104 94.9015 191.728 95.2454 191.843 96.1626Z" fill="#005796"/>
<path d="M192.416 100.863C191.384 101.322 190.352 101.78 189.435 102.239C189.32 102.353 189.091 102.468 189.091 102.697C189.091 102.812 189.091 103.041 189.206 103.271C189.32 103.385 189.435 103.615 189.664 103.615C189.894 103.615 190.008 103.615 190.238 103.5C191.269 103.041 192.301 102.583 193.218 102.124C193.333 102.01 193.562 101.895 193.562 101.666C193.562 101.551 193.562 101.322 193.448 101.092C193.333 100.978 193.218 100.748 192.989 100.748C192.76 100.748 192.531 100.748 192.416 100.863Z" fill="#005796"/>
<path d="M192.301 102.124C192.187 103.041 192.072 103.959 191.957 104.99C191.957 105.105 192.072 105.334 192.187 105.449C192.301 105.564 192.531 105.678 192.645 105.678C192.874 105.678 192.989 105.564 193.104 105.449C193.218 105.334 193.333 105.105 193.333 104.99C193.448 104.073 193.562 103.156 193.677 102.124C193.677 102.01 193.562 101.78 193.448 101.666C193.333 101.551 193.104 101.436 192.989 101.436C192.76 101.436 192.645 101.551 192.531 101.666C192.301 101.78 192.301 101.895 192.301 102.124Z" fill="#005796"/>
<path d="M192.989 102.353C193.906 103.041 194.709 103.844 195.626 104.532C195.741 104.646 195.97 104.761 196.085 104.761C196.314 104.761 196.428 104.646 196.543 104.532C196.772 104.302 196.887 103.729 196.543 103.5C195.626 102.812 194.823 102.01 193.906 101.322C193.792 101.207 193.562 101.092 193.448 101.092C193.218 101.092 193.104 101.207 192.989 101.322C192.76 101.666 192.645 102.124 192.989 102.353Z" fill="#005796"/>
<path d="M187.486 98.5702C187.601 100.634 187.027 102.583 185.996 104.303C185.537 105.105 186.798 105.793 187.257 104.99C188.403 103.041 189.091 100.748 188.976 98.5702C188.976 98.2263 188.633 97.8823 188.289 97.8823C187.83 97.7677 187.486 98.1116 187.486 98.5702Z" fill="#005796"/>
<path d="M186.454 103.959C185.537 104.303 184.505 104.761 183.703 105.334C183.588 105.449 183.473 105.564 183.359 105.793C183.359 105.908 183.359 106.137 183.473 106.366C183.703 106.71 184.161 106.825 184.505 106.595C184.849 106.366 185.308 106.022 185.652 105.908C185.766 105.908 185.881 105.793 185.996 105.793H186.11C186.225 105.793 186.11 105.793 186.11 105.793C186.11 105.793 186.11 105.793 186.225 105.793C186.454 105.678 186.684 105.564 186.913 105.564C187.257 105.449 187.486 105.105 187.371 104.646C187.257 104.073 186.798 103.844 186.454 103.959Z" fill="#005796"/>
<path d="M185.881 105.105C185.881 105.22 185.996 105.449 185.996 105.564C185.996 105.449 185.996 105.449 185.996 105.334C185.996 105.564 185.996 105.793 185.996 106.022C185.996 105.908 185.996 105.908 185.996 105.793C185.996 106.022 185.881 106.251 185.881 106.366C185.881 106.366 185.881 106.251 185.996 106.251C185.881 106.481 185.766 106.595 185.652 106.825L185.766 106.71C185.766 106.71 185.766 106.71 185.652 106.825C185.537 106.939 185.422 107.169 185.422 107.283C185.422 107.513 185.537 107.627 185.652 107.742C185.881 107.971 186.454 108.086 186.684 107.742C187.027 107.283 187.257 106.825 187.371 106.366C187.486 105.793 187.486 105.334 187.257 104.761C187.142 104.417 186.798 104.188 186.34 104.302C186.11 104.302 185.766 104.761 185.881 105.105Z" fill="#005796"/>
<path d="M186.798 104.99C187.142 105.678 187.486 106.366 187.945 106.939C188.174 107.283 188.633 107.398 188.976 107.169C189.32 106.939 189.435 106.595 189.206 106.137C188.862 105.449 188.518 104.761 188.059 104.188C187.83 103.844 187.371 103.729 187.027 103.959C186.684 104.303 186.569 104.646 186.798 104.99Z" fill="#005796"/>
<path d="M205.027 70.9405C203.537 70.7112 201.931 71.2844 200.785 72.7748L199.18 74.9531L196.658 74.8384C195.167 74.8384 193.906 75.4117 193.104 76.3288C190.811 78.8511 192.187 82.8637 195.511 83.7808L204.798 86.1884L208.581 77.246C209.727 74.6091 208.008 71.3991 205.027 70.9405Z" fill="#EC6B74"/>
<path d="M111.361 84.1248L112.278 85.8445L114.342 85.1566C115.718 84.698 116.635 85.3859 117.093 86.5324C118.01 88.8253 116.52 92.494 114.342 93.8697L107.234 98.3409L105.285 90.3157C104.597 87.4495 106.775 83.3223 109.183 82.8637C109.985 82.6344 110.788 82.9783 111.361 84.1248Z" fill="#9ED5D5"/>
<path d="M139.679 91.806L139.449 93.6404L141.398 94.3282C142.659 94.7868 143.118 95.8186 142.774 96.9651C142.201 99.258 139.105 101.207 136.698 101.092L128.673 100.404L131.539 93.0671C132.571 90.4303 136.354 88.4813 138.532 89.6277C139.449 89.9717 139.908 90.7742 139.679 91.806Z" fill="#F7CD9D"/>
<path d="M88.2025 113.818L86.9414 115.079L88.0878 116.799C88.8904 117.945 88.5464 118.977 87.6293 119.78C85.7949 121.27 82.1262 120.926 80.2919 119.206L74.4449 113.818L81.2091 109.691C83.6166 108.2 87.8585 109.118 88.8904 111.181C89.1197 112.213 89.005 113.13 88.2025 113.818Z" fill="#D8C24A"/>
<path d="M63.4389 91.1182V92.3793L64.7 93.1818C65.5025 93.6404 65.8465 94.4429 65.7318 95.2454C65.5025 96.8505 63.7828 97.8823 62.1778 97.4237L57.248 95.8187L58.6238 90.8889C59.0824 89.1692 61.3753 88.252 62.751 89.2838C63.095 89.6278 63.4389 90.3156 63.4389 91.1182Z" fill="#F9D0DB"/>
<path d="M36.2678 118.289L36.7264 117.487L35.8092 116.914C35.236 116.57 35.1213 115.996 35.4653 115.423C36.1531 114.391 38.1021 113.818 39.3632 114.162L43.4905 115.423L40.739 118.633C39.8218 119.78 37.4142 120.238 36.4971 119.55C36.1531 119.206 36.0385 118.863 36.2678 118.289Z" fill="#F7CD9D"/>
<path d="M23.7713 106.939L23.1981 107.513L24.1153 107.742C24.6885 107.856 24.6885 108.2 24.2299 108.544C23.4274 109.232 21.2491 109.92 19.988 109.805L15.9754 109.576L19.1855 107.283C20.332 106.481 22.8542 105.907 23.7713 106.251C24.1153 106.251 24.1153 106.595 23.7713 106.939Z" fill="#6CC5CB"/>
<path fill-rule="evenodd" clip-rule="evenodd" d="M195.626 75.7556C195.511 75.7556 195.053 75.7556 194.823 75.5263C194.594 75.4116 194.25 75.0677 194.25 74.7238C194.021 72.8894 194.709 71.5137 196.199 70.3672C196.887 69.794 197.804 69.9086 198.607 70.2526C199.983 70.9404 201.244 71.743 202.275 73.0041C202.619 73.348 202.505 74.0359 202.046 74.2652C200.097 75.0677 198.034 75.8702 195.626 75.7556Z" fill="#F5EF74"/>
<path d="M191.384 73.2333C192.271 73.2333 192.989 72.5147 192.989 71.6283C192.989 70.7419 192.271 70.0233 191.384 70.0233C190.498 70.0233 189.779 70.7419 189.779 71.6283C189.779 72.5147 190.498 73.2333 191.384 73.2333Z" fill="#005796"/>
<path d="M28.453 162.19C16.1605 159.639 4.92448 168.889 0.0846219 179.464C-0.318761 180.362 0.978843 181.067 1.38186 180.269C5.91945 170.292 16.3546 161.24 28.0474 163.688C28.9472 163.792 29.3524 162.394 28.453 162.19Z" fill="#D9E476"/>
<path d="M38.5533 162.123C38.8569 161.224 38.6612 160.123 37.864 159.42L36.5683 158.315L36.8747 156.716C37.0782 155.817 36.7814 155.016 36.2833 154.514C34.9893 153.009 32.2869 153.598 31.479 155.595L29.0566 161.285L34.2455 164.106C35.8423 164.912 38.0462 163.921 38.5533 162.123Z" fill="#D9E476"/>
<path d="M19.6622 159.648C19.3587 160.547 19.5545 161.647 20.3519 162.35L21.5479 163.455L21.2421 164.954C21.0387 165.853 21.3356 166.654 21.8334 167.256C23.1278 168.761 25.8304 168.172 26.6381 166.176L29.0601 160.486L23.8702 157.665C22.3731 156.859 20.1695 157.75 19.6622 159.648Z" fill="#D9E476"/>
<path d="M30.6004 150.191C29.7012 149.988 28.7004 150.184 27.9968 151.081L26.8917 152.377L25.3925 152.171C24.4929 152.067 23.6917 152.364 23.1898 152.862C21.6838 154.356 22.1732 157.058 24.07 157.865L29.1566 161.286L32.2834 154.498C33.1901 152.801 32.3988 150.598 30.6004 150.191Z" fill="#F7CD9D"/>
<path d="M27.218 171.177C28.1173 171.381 29.1182 171.185 29.9217 170.288L31.0268 168.993L32.5261 169.199C33.4259 169.303 34.2271 169.006 34.729 168.508C36.2349 167.014 35.7452 164.313 33.848 163.505L29.159 160.486L25.6347 166.771C24.6281 168.467 25.4198 170.67 27.218 171.177Z" fill="#F7CD9D"/>
<path d="M189.772 29.8438C196.454 19.2268 210.916 17.5635 221.901 21.424C222.829 21.7572 222.438 23.1807 221.583 22.9166C211.239 19.2542 197.474 20.4776 191.133 30.5919C190.584 31.3114 189.295 30.6325 189.772 29.8438Z" fill="#D9E476"/>
<path d="M182.722 37.0895C181.864 36.6847 181.207 35.7802 181.254 34.7183L181.356 33.0184L179.992 32.1301C179.203 31.653 178.832 30.8834 178.816 30.1765C178.629 28.2004 180.928 26.6626 182.927 27.4657L188.706 29.6678L187.139 35.3619C186.612 37.0714 184.369 37.9714 182.722 37.0895Z" fill="#D9E476"/>
<path d="M194.039 21.7668C194.897 22.1722 195.555 23.0771 195.509 24.139L195.477 25.7664L196.769 26.5866C197.559 27.0642 197.93 27.834 198.019 28.61C198.207 30.5862 195.91 32.1222 193.91 31.3176L188.13 29.1112L189.693 23.4187C190.149 21.7819 192.319 20.8146 194.039 21.7668Z" fill="#D9E476"/>
<path d="M179.644 23.0847C180.121 22.2958 180.957 21.7109 182.091 21.8264L183.791 21.9291L184.682 20.7063C185.232 19.9865 186.001 19.6152 186.708 19.5991C188.829 19.5507 190.436 21.7773 189.702 23.7038L188.637 29.74L181.579 27.2842C179.728 26.7607 178.69 24.6625 179.644 23.0847Z" fill="#F7CD9D"/>
<path d="M197.109 35.2096C196.633 35.9981 195.798 36.5824 194.594 36.5382L192.894 36.4343L192.004 37.6563C191.455 38.3757 190.686 38.7463 189.979 38.7619C187.858 38.8087 186.249 36.5809 186.982 34.6551L188.055 29.1853L195.03 31.0118C196.95 31.4645 197.99 33.5634 197.109 35.2096Z" fill="#F7CD9D"/>
</svg>
