<svg width="416" height="162" viewBox="0 0 416 162" fill="none" xmlns="http://www.w3.org/2000/svg">
<g clip-path="url(#clip0)">
<path d="M385.528 102.69C385.528 102.69 384.664 99.1255 387.748 97.0362C390.833 94.9469 391.696 92.4889 392.19 91.0141C392.683 89.5393 392.683 86.3439 394.164 88.0645C395.521 89.7851 395.521 92.2431 394.657 94.3324C393.794 96.4217 392.313 96.6675 392.313 96.6675C392.313 96.6675 396.384 96.1759 400.209 95.8072C404.033 95.4385 410.325 94.7011 411.559 95.6843C412.792 96.6675 415.136 96.9133 415.753 98.1423C416.37 99.2484 416 99.9858 409.955 100.723C403.91 101.338 396.261 102.813 391.696 105.025C387.132 107.237 385.528 112.522 385.528 112.522L382.69 111.416L385.528 102.69Z" fill="#F8C499"/>
<path d="M371.711 139.437L377.139 142.264C382.444 139.929 379.729 134.644 379.729 134.644C379.729 134.644 373.191 120.756 368.996 109.941C366.406 103.304 361.471 101.461 361.471 101.461L357.646 116.946L365.912 132.555L371.711 139.437Z" fill="white"/>
<path d="M392.437 106.254L380.47 140.666C380.47 140.666 376.892 145.705 373.068 142.51C370.97 140.789 365.789 132.555 365.789 132.555L371.34 133.906L384.294 103.058L392.437 106.254Z" fill="white"/>
<path d="M290.534 100.723L281.034 110.432L285.476 114.734C285.476 114.734 301.144 100.723 300.403 98.1423C299.663 95.3156 298.553 91.8744 290.534 100.723Z" fill="#63CC74"/>
<path d="M286.093 110.556C285.229 107.114 284.735 95.9303 285.599 92.4891C286.463 89.0479 286.463 81.9196 285.846 78.2326C285.106 74.5456 280.294 74.9143 280.294 74.9143H273.632L268.327 75.6517L265.613 80.0761C265.613 80.0761 267.834 86.9586 267.711 93.7181C267.587 100.478 265.49 108.589 264.009 113.382C264.009 113.382 262.529 114.734 262.899 119.404L287.696 119.527C286.833 113.259 286.093 110.556 286.093 110.556Z" fill="#FDDC91"/>
<path d="M279.184 74.2997V61.3951L269.808 61.0264V73.9309L263.763 74.7913C263.763 74.7913 265.86 81.4279 274.743 81.4279C285.106 81.4279 287.079 75.0371 287.079 75.0371L279.184 74.2997Z" fill="#F6B37F"/>
<path d="M291.274 119.404C291.274 119.404 287.45 106.745 286.463 102.567C285.476 98.3882 285.599 97.2821 286.093 92.8577C286.586 88.4333 286.216 85.9753 286.216 85.9753L294.852 99.3714C294.852 99.3714 295.962 101.338 297.936 100.723C300.65 99.863 300.157 97.2821 300.157 97.2821C300.157 97.2821 292.508 77.3722 289.794 75.0371C287.943 73.4394 281.651 74.4226 281.651 74.4226C280.664 77.2493 277.58 78.3554 277.58 78.3554L280.418 98.634L281.158 119.404H291.274Z" fill="#63CC74"/>
<path d="M268.327 119.281L268.081 98.6341L270.918 78.3554C270.918 78.3554 268.204 77.0035 267.34 74.1768C267.34 74.1768 261.419 73.6852 259.075 75.16C255.991 77.1264 245.504 92.7348 245.504 92.7348C245.504 92.7348 241.556 95.0699 244.024 96.5447C245.751 97.528 246.985 101.829 246.985 101.829L262.406 85.7295C262.406 85.7295 262.036 88.0646 262.529 92.6119C263.023 97.0364 263.146 98.0196 262.159 102.321C261.172 106.623 258.705 119.158 258.705 119.158L268.327 119.281Z" fill="#63CC74"/>
<path d="M255.127 48.7363C255.99 55.4959 251.179 61.6409 244.394 62.5012C237.609 63.3615 231.44 58.5684 230.576 51.8088C229.713 45.0493 234.524 38.9043 241.31 38.044C248.095 37.1837 254.263 41.9768 255.127 48.7363Z" fill="#B1B1B2"/>
<path d="M315.948 40.3792C316.811 47.1387 312 53.2837 305.215 54.144C298.429 55.0043 292.261 50.2112 291.397 43.4517C290.534 36.6921 295.345 30.5471 302.13 29.6868C308.916 28.8265 315.084 33.6196 315.948 40.3792Z" fill="#B1B1B2"/>
<path d="M249.205 48.6134C249.699 52.5462 246.861 56.2332 242.913 56.7248C238.966 57.2164 235.265 54.3897 234.771 50.4569C234.278 46.524 237.115 42.837 241.063 42.3454C245.011 41.7309 248.712 44.5576 249.205 48.6134Z" fill="#F6B37F"/>
<path d="M311.507 41.8538C312 45.7866 309.162 49.4736 305.215 49.9652C301.267 50.4568 297.566 47.6301 297.072 43.6973C296.579 39.7645 299.416 36.0774 303.364 35.5858C307.312 35.0942 311.013 37.9209 311.507 41.8538Z" fill="#F6B37F"/>
<path d="M291.644 15.7988C291.644 15.7988 302.747 19.24 306.202 24.1561C309.779 29.195 304.721 35.8316 304.721 35.8316L291.644 15.7988Z" fill="#B1B1B2"/>
<path d="M239.582 42.7142C240.816 59.06 256.607 71.2272 274.866 69.8753C293.125 68.5234 306.818 54.0211 305.585 37.6753C304.351 21.3295 288.56 9.1623 270.301 10.5142C252.043 11.8661 238.349 26.3684 239.582 42.7142Z" fill="#F8C499"/>
<path d="M252.413 16.7821C252.413 16.7821 259.075 2.27981 267.711 1.66531C276.346 1.05081 281.281 10.1455 287.82 9.65386C294.358 9.16226 299.786 6.33554 299.786 6.33554C299.786 6.33554 299.786 16.0447 291.891 19.2401C283.749 22.5584 275.73 19.6088 268.698 17.5195C259.075 14.6928 252.413 16.7821 252.413 16.7821Z" fill="#B1B1B2"/>
<path d="M239.582 42.7141C245.998 32.2676 249.205 27.1057 252.783 16.6592C252.783 16.6592 243.283 17.6424 239.336 25.3851C234.031 36.0775 239.582 42.7141 239.582 42.7141Z" fill="#B1B1B2"/>
<path d="M284.365 15.7989C280.418 15.7989 276.1 13.8325 272.152 11.989C269.808 10.8828 267.464 9.89964 265.86 9.53094C261.789 8.79353 257.594 14.8157 257.594 14.9386C257.348 15.3073 256.977 15.3073 256.607 15.1844C256.237 14.9386 256.237 14.5699 256.361 14.2012C256.607 13.9554 260.925 7.31872 265.983 8.30193C267.834 8.67063 270.178 9.77674 272.645 10.8828C276.716 12.7264 281.158 14.8157 284.982 14.5699C290.287 14.2012 295.222 10.8828 295.345 10.8828C295.715 10.637 296.085 10.7599 296.332 11.1286C296.579 11.4973 296.455 11.8661 296.085 12.1119C295.839 12.2348 290.781 15.5531 285.106 16.0447C284.982 15.7989 284.612 15.7989 284.365 15.7989Z" fill="white"/>
<path d="M278.567 17.7654C274.743 17.1509 270.918 15.5532 266.847 13.2181C264.133 11.6204 262.406 13.8326 262.159 14.0784C261.912 14.3242 261.542 14.4471 261.172 14.2013C260.925 13.9555 260.802 13.5868 261.049 13.2181C261.912 11.9891 264.38 10.2685 267.464 11.9891C271.288 14.2013 274.989 15.6761 278.567 16.2906C278.937 16.4135 279.184 16.6593 279.184 17.028C279.184 17.5196 278.937 17.7654 278.567 17.7654Z" fill="white"/>
<path d="M244.517 51.8089C244.27 55.7417 247.355 59.1829 251.426 59.3058C255.374 59.5516 258.828 56.4791 258.951 52.4234C259.198 48.4905 256.114 45.0493 252.043 44.9264C248.095 44.8035 244.641 47.876 244.517 51.8089Z" fill="url(#paint0_radial)"/>
<path d="M287.943 47.1387C287.696 51.0715 290.781 54.5127 294.852 54.6356C298.8 54.7585 302.254 51.8089 302.377 47.7532C302.624 43.8204 299.54 40.3791 295.469 40.2562C291.521 40.1333 288.19 43.2059 287.943 47.1387Z" fill="url(#paint1_radial)"/>
<path d="M273.262 55.25C273.139 55.25 273.139 55.25 273.015 55.25C272.152 55.0042 270.425 53.8981 270.548 51.9317C270.548 49.8423 270.795 47.1385 270.795 47.0156C270.795 46.6469 271.165 46.4011 271.535 46.4011C271.905 46.4011 272.152 46.7698 272.152 47.1385C272.152 47.1385 271.905 49.9652 271.905 51.9317C271.905 53.5294 273.509 54.021 273.509 54.021C273.879 54.1439 274.002 54.5126 273.879 54.8813C273.756 55.0042 273.509 55.25 273.262 55.25Z" fill="#005796"/>
<path d="M287.943 34.6028C287.82 34.6028 287.573 34.4799 287.573 34.2341C287.573 33.9883 287.696 33.8654 287.82 33.7425C287.82 33.7425 289.3 33.4967 290.04 33.0051C290.657 32.6364 290.904 31.7761 290.904 31.7761C291.027 31.5303 291.151 31.5303 291.397 31.5303C291.644 31.6532 291.644 31.7761 291.644 32.0219C291.644 32.0219 291.274 33.0051 290.534 33.6196C289.67 34.357 288.066 34.6028 287.943 34.6028C288.066 34.6028 287.943 34.6028 287.943 34.6028Z" fill="#005796"/>
<path d="M286.339 34.1111C286.216 34.1111 285.969 33.9882 285.969 33.7424C285.969 33.4966 286.093 33.3737 286.216 33.2508C286.216 33.2508 287.696 33.005 288.437 32.5134C289.053 32.1447 289.3 31.2844 289.3 31.2844C289.423 31.0386 289.547 31.0386 289.794 31.0386C290.04 31.1615 290.04 31.2844 290.04 31.5302C290.04 31.5302 289.67 32.5134 288.93 33.1279C287.943 33.7424 286.463 34.1111 286.339 34.1111Z" fill="#005796"/>
<path d="M289.053 38.5354C288.807 35.0942 286.586 32.3904 283.995 32.5133C281.404 32.6362 279.554 35.5858 279.677 39.0271C279.924 42.4683 282.145 45.1721 284.735 45.0492C287.326 44.9263 289.3 41.9767 289.053 38.5354Z" fill="white"/>
<path d="M288.683 38.5356C288.56 35.9547 286.833 33.9883 284.982 34.1112C283.008 34.2341 281.651 36.4463 281.775 39.0272C281.898 41.6081 283.625 43.5745 285.476 43.4516C287.45 43.2058 288.807 41.1165 288.683 38.5356Z" fill="#005796"/>
<path d="M254.017 38.7815C253.4 38.7815 252.66 38.7815 251.919 38.5357C251.056 38.167 250.439 37.3067 250.439 37.3067C250.316 37.1838 250.316 36.938 250.562 36.8151C250.686 36.6922 250.932 36.6922 251.056 36.938C251.056 36.938 251.549 37.6754 252.166 37.9212C253.03 38.2899 254.51 38.167 254.51 38.167C254.757 38.167 254.88 38.2899 254.88 38.5357C254.88 38.7815 254.757 38.9044 254.51 38.9044C254.633 38.7815 254.387 38.7815 254.017 38.7815Z" fill="#005796"/>
<path d="M255.497 37.7984C254.88 37.7984 254.14 37.7984 253.4 37.5526C252.536 37.1839 251.919 36.3236 251.919 36.3236C251.796 36.2007 251.796 35.9548 252.043 35.8319C252.166 35.709 252.413 35.709 252.536 35.9548C252.536 35.9548 253.03 36.6923 253.646 36.9381C254.51 37.3068 255.99 37.1839 255.99 37.1839C256.237 37.1839 256.361 37.3068 256.361 37.5526C256.361 37.7984 256.237 37.9213 255.99 37.9213C255.99 37.7984 255.744 37.7984 255.497 37.7984Z" fill="#005796"/>
<path d="M253.77 42.7143C253.153 39.2731 254.633 36.2006 257.224 35.709C259.692 35.2174 262.282 37.6754 263.023 40.9937C263.639 44.4349 262.159 47.5074 259.568 47.999C256.977 48.6135 254.387 46.1555 253.77 42.7143Z" fill="white"/>
<path d="M255.744 42.4685C255.25 39.8876 256.361 37.5525 258.334 37.1838C260.185 36.8151 262.159 38.6586 262.652 41.1166C263.146 43.6975 262.036 46.0326 260.062 46.4013C258.211 46.77 256.237 45.0494 255.744 42.4685Z" fill="#005796"/>
<path d="M284.859 58.3226C284.612 58.3226 284.489 58.1997 284.365 57.9539C284.365 57.9539 283.625 56.1104 282.268 54.5127C280.664 52.6691 279.184 52.1775 279.184 52.1775C278.937 52.0546 278.814 51.8088 278.814 51.563C278.937 51.3172 279.184 51.1943 279.431 51.1943C279.554 51.1943 281.158 51.8088 283.008 53.7753C284.612 55.4959 285.352 57.4623 285.352 57.4623C285.476 57.7081 285.352 58.0768 285.106 58.0768C284.982 58.3226 284.982 58.3226 284.859 58.3226Z" fill="#005796"/>
<path d="M264.626 60.0431H264.503C264.256 59.9202 264.133 59.6744 264.133 59.4286C264.133 59.4286 264.626 58.1996 265.243 56.9706C265.983 55.6187 266.97 54.1438 266.97 54.1438C267.094 53.898 267.464 53.7751 267.711 54.0209C267.957 54.1438 268.081 54.5125 267.834 54.7583C267.834 54.7583 266.847 56.2332 266.107 57.5851C265.49 58.6912 264.996 59.7973 264.996 59.7973C264.996 59.9202 264.75 60.0431 264.626 60.0431Z" fill="#005796"/>
<path d="M239.706 35.9546C239.212 35.9546 238.966 35.5859 238.966 35.2172C238.966 35.0943 239.459 30.7928 240.939 27.4745C242.543 24.1561 246.614 20.592 246.738 20.3462C246.985 20.1004 247.478 20.1004 247.725 20.3462C247.972 20.592 247.972 21.0836 247.725 21.3294C247.725 21.3294 243.654 24.8935 242.297 27.9661C240.816 31.0386 240.446 35.2172 240.446 35.2172C240.323 35.7088 240.076 35.9546 239.706 35.9546Z" fill="white"/>
<path d="M273.879 56.479C276.47 56.2332 278.69 57.2165 278.814 58.6913C278.937 60.1661 276.963 61.518 274.249 61.7638C271.658 62.0096 269.438 61.0264 269.191 59.5516C269.191 58.1997 271.165 56.7249 273.879 56.479Z" fill="#E94954"/>
<path d="M251.549 33.7424C251.179 33.7424 250.932 33.4965 250.932 33.1278C250.932 32.7591 251.179 32.3904 251.549 32.3904C251.549 32.3904 254.633 31.8988 257.224 28.9492C258.581 27.4744 259.198 25.8767 259.198 25.8767C259.321 25.508 259.692 25.3851 260.062 25.508C260.432 25.6309 260.555 25.9996 260.432 26.3683C260.432 26.4912 259.692 28.2118 258.211 29.9324C255.127 33.2507 251.796 33.7424 251.549 33.7424C251.673 33.7424 251.549 33.7424 251.549 33.7424Z" fill="#5A689D"/>
<path d="M290.781 28.3349C289.67 28.3349 287.45 28.212 284.982 27.1059C282.021 25.8769 281.034 23.5417 281.034 23.4188C280.911 23.0501 281.034 22.6814 281.405 22.5585C281.775 22.4356 282.145 22.5585 282.268 22.9272C282.268 23.0501 283.132 24.8937 285.476 25.8769C288.683 27.2288 291.397 26.983 291.397 26.983C291.767 26.983 292.138 27.2288 292.138 27.5975C292.138 27.9662 291.891 28.3349 291.521 28.3349C291.521 28.212 291.151 28.3349 290.781 28.3349Z" fill="#5A689D"/>
<path d="M329.518 98.7568C329.518 98.7568 320.389 101.706 317.552 105.025C309.779 113.997 301.267 126.655 301.267 126.655C301.267 126.655 297.442 130.834 300.897 136.61C306.819 146.565 312.37 158.855 312.37 158.855L321.253 153.325C321.253 153.325 312.247 133.169 312.123 131.448C312 129.728 322.61 122.108 322.61 122.108L321.746 158.855L342.719 158.241V112.153C342.719 112.153 335.687 105.639 329.518 98.7568Z" fill="white"/>
<path d="M361.964 113.259C362.211 108.097 362.828 101.952 362.828 101.952L355.179 98.7569L330.999 97.405L320.883 102.567C320.883 102.567 321.376 105.025 321.746 108.835C322.24 112.522 322.486 122.354 322.486 122.354L321.376 159.593L362.088 160.576L361.471 122.231C361.718 122.108 361.594 117.807 361.964 113.259Z" fill="#FDDC91"/>
<path d="M337.044 95.1928L338.031 82.9027L348.517 82.4111V95.6844L352.465 97.6508C352.465 97.6508 351.355 107.729 342.225 107.36C339.881 107.237 330.135 98.2653 330.135 98.2653L337.044 95.1928Z" fill="#F6B37F"/>
<path d="M342.225 115.84C333.59 115.84 330.875 104.656 330.875 104.533L331.862 104.287C331.862 104.41 334.453 115.103 342.595 114.734C346.05 114.611 348.641 112.89 350.368 109.695C351.725 107.237 351.971 104.779 351.971 104.779L352.958 104.902C352.958 105.025 351.601 115.348 342.595 115.84C342.595 115.84 342.472 115.84 342.225 115.84Z" fill="#005796"/>
<path d="M333.466 105.271L331.122 107.729L329.272 98.0194L336.921 94.4553L340.251 99.1255L342.225 105.639L344.076 99.0026L348.517 95.0698L356.906 99.4943L352.342 107.36L350.121 105.271C350.121 105.271 348.764 113.259 341.732 113.136C336.18 112.89 333.466 105.271 333.466 105.271Z" fill="white"/>
<path d="M352.342 108.097C352.218 108.097 352.095 108.097 351.972 107.974L344.94 101.338C344.693 101.215 344.693 100.846 344.94 100.723C345.063 100.478 345.433 100.478 345.556 100.723L352.095 106.991L356.289 99.3714C356.413 99.1256 356.66 99.0027 356.906 99.1256C357.153 99.2485 357.276 99.4943 357.153 99.7401L352.712 107.974C352.712 107.974 352.588 108.097 352.342 108.097C352.465 108.097 352.342 108.097 352.342 108.097Z" fill="#005796"/>
<path d="M342.966 108.343C342.842 108.343 342.596 108.22 342.596 108.097L338.031 101.092L331.492 107.729C331.369 107.852 331.122 107.852 330.999 107.852C330.875 107.852 330.752 107.606 330.629 107.483L329.025 98.3882C329.025 98.1424 329.148 97.8966 329.395 97.7737C329.642 97.7737 329.888 97.8966 330.012 98.1424L331.492 106.254L337.784 99.863C337.907 99.7401 338.031 99.7401 338.154 99.7401C338.278 99.7401 338.401 99.863 338.524 99.9859L343.459 107.483C343.582 107.729 343.582 107.974 343.336 108.097C343.212 108.22 343.089 108.343 342.966 108.343Z" fill="#005796"/>
<path d="M232.427 157.872C228.356 157.872 222.928 157.503 222.681 157.503C222.434 157.503 222.311 157.258 222.311 157.012V144.476C222.311 144.23 222.558 143.984 222.804 143.984C223.051 143.984 223.298 144.23 223.298 144.476V156.643C225.395 156.766 234.524 157.258 236.498 156.766C236.868 156.643 236.868 156.643 236.868 156.643C236.868 156.152 234.401 154.431 231.687 153.202C231.44 153.079 231.317 152.833 231.44 152.587C231.563 152.342 231.81 152.219 232.057 152.342C233.784 153.202 237.855 155.168 237.732 156.643C237.732 157.012 237.485 157.381 236.745 157.626C235.881 157.872 234.278 157.872 232.427 157.872Z" fill="#45372A"/>
<path d="M218.856 125.426C218.856 125.426 210.344 129.359 205.533 128.745C198.13 127.761 191.469 130.711 192.085 135.504C192.702 139.929 198.871 142.141 205.903 139.068C212.935 135.873 219.227 129.113 219.227 129.113L218.856 125.426Z" fill="#7B431D"/>
<path d="M241.063 128.622C241.063 128.622 247.478 135.504 252.289 136.61C259.445 138.454 264.626 143.616 262.282 147.794C260.062 151.727 253.523 151.481 248.095 145.951C242.667 140.42 239.459 131.817 239.459 131.817L241.063 128.622Z" fill="#7B431D"/>
<path d="M228.232 122.477C220.83 122.6 215.896 125.181 214.292 128.499C212.688 131.817 212.195 139.683 213.922 143.739C215.279 147.18 217.006 150.252 217.006 150.252L239.953 150.498C239.953 150.498 241.063 148.655 242.543 144.599C244.024 140.42 245.628 131.203 241.186 127.024C237.979 124.074 234.278 122.231 228.232 122.477Z" fill="#B16429"/>
<path d="M239.829 150.867L216.883 150.621C216.759 150.621 216.636 150.498 216.512 150.375C216.512 150.375 214.785 147.303 213.428 143.861C213.181 143.247 212.318 140.912 212.318 138.331C212.318 138.085 212.565 137.839 212.811 137.839C213.058 137.839 213.305 138.085 213.305 138.331C213.305 140.174 213.798 142.264 214.292 143.493C215.402 146.32 216.759 148.9 217.129 149.638L239.582 149.884C239.953 149.269 240.816 147.549 242.05 144.23C242.42 143.37 242.913 141.649 243.284 139.191C243.284 138.945 243.53 138.823 243.777 138.823C244.024 138.823 244.147 139.068 244.147 139.314C243.9 141.158 243.407 143.001 242.913 144.476C241.433 148.655 240.323 150.375 240.199 150.498C240.076 150.867 239.953 150.867 239.829 150.867Z" fill="#005796"/>
<path d="M231.07 145.582C231.07 145.582 229.59 144.353 229.59 140.912C229.59 137.471 232.304 133.292 232.304 129.851C232.304 126.41 231.44 124.32 227.862 124.32C224.161 124.32 222.681 125.918 223.174 130.588C223.544 133.661 225.888 139.191 225.765 141.158C225.642 143.124 224.408 145.582 224.408 145.582H231.07Z" fill="white"/>
<path d="M233.044 139.56C233.044 141.895 234.401 143.739 236.128 143.739C237.855 143.739 239.212 141.895 239.212 139.56C239.212 137.225 237.855 135.381 236.128 135.381C234.401 135.381 233.044 137.225 233.044 139.56Z" fill="white"/>
<path d="M234.894 138.454C234.894 140.174 235.881 141.526 237.115 141.526C238.349 141.526 239.336 140.174 239.336 138.454C239.336 136.733 238.349 135.381 237.115 135.381C235.881 135.381 234.894 136.733 234.894 138.454Z" fill="#005796"/>
<path d="M215.402 139.929C215.402 142.141 216.759 144.107 218.486 144.107C220.214 144.107 221.571 142.264 221.571 139.929C221.571 137.594 220.214 135.75 218.486 135.75C216.759 135.75 215.402 137.594 215.402 139.929Z" fill="white"/>
<path d="M217.129 138.823C217.129 140.543 218.116 141.895 219.35 141.895C220.584 141.895 221.571 140.543 221.571 138.823C221.571 137.102 220.584 135.75 219.35 135.75C218.116 135.75 217.129 137.102 217.129 138.823Z" fill="#005796"/>
<path d="M219.473 159.101C216.142 157.995 213.798 155.783 214.045 151.727C214.415 146.565 222.804 144.23 227.862 144.353C234.524 144.476 239.336 146.442 240.816 150.99C242.297 155.537 238.842 158.487 234.894 159.716C229.713 161.19 225.025 160.945 219.473 159.101Z" fill="white"/>
<path d="M228.232 161.067C225.518 161.067 222.681 160.576 219.35 159.47C214.292 157.872 213.552 154.431 213.675 151.85C214.045 146.811 221.941 144.107 227.492 144.107C227.616 144.107 227.739 144.107 227.862 144.107C235.264 144.23 239.706 146.565 241.186 150.99C241.803 152.71 241.68 154.431 240.939 155.906C239.953 157.749 237.855 159.347 235.018 160.207C232.674 160.699 230.453 161.067 228.232 161.067ZM227.492 144.722C224.778 144.722 221.571 145.459 219.103 146.565C217.006 147.548 214.539 149.146 214.292 151.85C214.045 156.151 217.006 157.995 219.473 158.855C222.681 159.838 225.395 160.33 228.109 160.33C230.33 160.33 232.427 159.961 234.648 159.347C237.238 158.609 239.212 157.135 240.076 155.414C240.693 154.062 240.816 152.71 240.323 151.113C238.966 147.057 234.648 144.845 227.616 144.722C227.739 144.722 227.616 144.722 227.492 144.722Z" fill="#BEB4AA"/>
<path d="M229.96 156.643C229.96 156.643 229.466 157.749 228.109 157.749C226.999 157.749 226.259 156.766 226.259 156.766L228.356 155.414L229.96 156.643Z" fill="#E94954"/>
<path d="M230.947 157.012C230.823 157.012 230.576 157.012 230.33 157.012C229.096 156.766 228.479 156.029 228.109 155.537C227.739 156.029 227.122 156.643 226.135 156.889C224.531 157.258 223.174 155.906 223.051 155.906C222.928 155.783 222.928 155.66 223.051 155.537C223.174 155.414 223.298 155.414 223.421 155.537C223.421 155.537 224.655 156.643 226.012 156.397C227.246 156.151 227.862 154.922 227.862 154.922C227.862 154.8 227.986 154.8 228.109 154.8C228.232 154.8 228.356 154.922 228.356 154.922C228.356 154.922 228.849 156.151 230.33 156.397C231.687 156.643 232.304 155.66 232.304 155.66C232.427 155.537 232.55 155.537 232.674 155.537C232.797 155.66 232.797 155.783 232.797 155.906C232.921 156.151 232.304 157.012 230.947 157.012Z" fill="#45372A"/>
<path d="M228.232 155.414C228.109 155.414 227.986 155.291 227.986 155.168V150.007C227.986 149.884 228.109 149.761 228.232 149.761C228.356 149.761 228.479 149.884 228.479 150.007V155.168C228.479 155.168 228.356 155.414 228.232 155.414Z" fill="#45372A"/>
<path d="M224.285 148.409C224.285 149.883 226.135 151.112 228.232 151.112C230.453 151.112 232.18 149.883 232.18 148.409C232.18 146.934 230.33 145.705 228.232 145.705C226.012 145.828 224.285 146.934 224.285 148.409Z" fill="#005796"/>
<path d="M242.543 153.571C240.569 153.571 238.719 154.431 238.966 156.766C239.212 159.101 241.31 159.347 242.913 159.347C244.394 159.347 245.874 158.364 245.874 156.643C245.998 154.8 245.011 153.571 242.543 153.571Z" fill="white"/>
<path d="M242.913 159.47C241.803 159.47 238.966 159.47 238.719 156.643C238.595 155.66 238.842 154.923 239.336 154.308C239.953 153.571 241.186 153.202 242.543 153.202C244.887 153.202 246.244 154.431 246.244 156.52C246.244 158.487 244.517 159.47 242.913 159.47ZM242.543 153.816C241.31 153.816 240.323 154.185 239.829 154.8C239.459 155.291 239.212 155.906 239.336 156.643C239.582 158.61 241.31 158.978 243.037 158.978C244.394 158.978 245.751 158.118 245.751 156.643C245.628 154.8 244.517 153.816 242.543 153.816Z" fill="#BEB4AA"/>
<path d="M241.433 159.224C241.31 159.224 241.186 159.101 241.186 158.978L240.939 156.397C240.939 156.274 241.063 156.151 241.186 156.029C241.31 156.029 241.433 156.151 241.556 156.274L241.803 158.855C241.68 158.978 241.556 159.224 241.433 159.224Z" fill="#BEB4AA"/>
<path d="M243.654 159.347C243.407 159.347 243.407 159.224 243.407 158.978L243.654 156.152C243.654 156.029 243.777 155.906 244.024 155.906C244.147 155.906 244.27 156.029 244.27 156.274L244.024 159.101C243.9 159.224 243.777 159.347 243.654 159.347Z" fill="#BEB4AA"/>
<path d="M213.428 153.571C215.402 153.571 217.253 154.431 217.006 156.766C216.759 159.101 214.662 159.347 213.058 159.347C211.454 159.347 210.097 158.364 210.097 156.643C210.097 154.8 211.084 153.571 213.428 153.571Z" fill="white"/>
<path d="M213.058 159.47C211.454 159.47 209.727 158.487 209.727 156.52C209.727 154.431 211.084 153.202 213.428 153.202C214.785 153.202 215.896 153.571 216.636 154.308C217.129 154.923 217.376 155.66 217.253 156.643C217.006 159.47 214.168 159.47 213.058 159.47ZM213.428 153.816C211.454 153.816 210.344 154.8 210.344 156.52C210.344 158.118 211.701 158.855 213.058 158.855C214.785 158.855 216.512 158.61 216.759 156.52C216.883 155.783 216.636 155.168 216.266 154.677C215.649 154.185 214.662 153.816 213.428 153.816Z" fill="#BEB4AA"/>
<path d="M214.662 159.224C214.415 159.224 214.292 159.101 214.415 158.855L214.662 156.274C214.662 156.151 214.785 156.029 215.032 156.029C215.155 156.029 215.279 156.151 215.279 156.397L215.032 158.978C214.909 159.101 214.785 159.224 214.662 159.224Z" fill="#BEB4AA"/>
<path d="M212.441 159.347C212.318 159.347 212.195 159.224 212.195 159.101L211.824 156.274C211.824 156.152 211.948 156.029 212.071 155.906C212.195 155.906 212.318 156.029 212.441 156.152L212.811 158.978C212.688 159.224 212.565 159.347 212.441 159.347Z" fill="#BEB4AA"/>
<path d="M340.868 110.924C340.868 111.416 341.238 111.784 341.732 111.784C342.225 111.784 342.596 111.416 342.596 110.924C342.596 110.432 342.225 110.064 341.732 110.064C341.238 110.064 340.868 110.432 340.868 110.924Z" fill="white"/>
<path d="M344.446 160.33C344.94 160.33 345.186 158.61 344.199 158.61L286.586 152.71C285.599 152.71 261.049 149.884 260.555 150.007L261.172 156.275C261.172 156.275 261.172 157.749 262.406 157.749L328.408 160.207H344.446V160.33Z" fill="#BFBBBA"/>
<path d="M329.765 160.207C329.272 160.33 328.902 160.207 327.915 160.207L265.12 157.749C264.133 157.749 264.626 157.627 265.12 157.627L281.158 154.923C281.651 154.8 285.352 153.571 286.339 153.571L343.829 159.47C344.569 159.47 344.323 159.962 343.953 160.085L329.765 160.207Z" fill="#E8E2DF"/>
<path d="M331.122 157.626C331.246 158.61 330.505 160.084 329.518 160.084L263.269 156.889C262.282 156.889 261.419 156.152 261.295 155.168L255.497 108.712C255.374 107.729 256.731 106.868 257.718 106.868H323.967C324.954 106.868 325.817 107.606 325.941 108.589L331.122 157.626Z" fill="#F0EDEA"/>
<path d="M330.382 158.364C330.505 159.347 329.765 160.084 328.778 160.084L261.542 157.626C260.555 157.626 260.679 156.889 260.555 155.906L255.374 109.449C255.25 108.466 255.99 107.729 256.977 107.729H323.227C324.214 107.729 325.077 108.466 325.2 109.449L330.382 158.364Z" fill="#E1DDDA"/>
<path d="M395.027 29.6868C393.917 28.8265 393.3 27.9662 393.3 26.983C395.027 25.6311 396.878 24.4021 398.605 23.0501C401.072 21.0837 402.306 19.486 402.553 18.1341C402.8 17.028 402.306 16.0448 401.319 15.0616C400.455 14.0784 399.345 13.4639 398.112 13.2181C395.521 12.7265 392.56 13.8326 388.982 16.4135C387.872 15.4303 387.255 14.57 387.008 13.8326C388.489 12.112 390.339 10.883 392.437 10.0227C394.534 9.28526 396.754 9.03946 398.852 9.40816C401.196 9.77687 403.046 10.883 404.65 12.4807C406.254 14.3242 406.994 16.4135 406.501 18.7486C406.13 20.9608 404.65 23.173 402.059 25.3853C399.962 27.2288 397.618 28.7036 395.027 29.6868ZM392.56 32.3906C393.917 32.6364 395.521 33.6196 397.248 35.2173C397.125 35.7089 396.754 36.5692 396.014 37.6753C395.274 38.7814 394.781 39.3959 394.287 39.7647C392.313 38.9043 390.833 37.9211 389.599 36.6921C390.092 35.586 391.079 34.1112 392.56 32.3906Z" fill="#E94954"/>
<path d="M362.458 70.3668C362.705 75.2828 367.393 79.0927 372.821 78.724C378.249 78.3553 382.444 74.1767 382.074 69.1378C381.827 64.2217 377.139 60.4118 371.711 60.7805C366.406 61.1492 362.211 65.4508 362.458 70.3668Z" fill="#F6B37F"/>
<path d="M316.071 60.7806C315.331 65.6966 319.032 70.3669 324.46 71.1043C329.888 71.9646 334.823 68.5233 335.563 63.7302C336.304 58.8142 332.603 54.144 327.174 53.4066C321.746 52.5462 316.811 55.8646 316.071 60.7806Z" fill="#F6B37F"/>
<path d="M373.191 31.6532C376.645 35.3402 376.522 51.0715 375.042 60.2891C373.561 69.3837 372.451 82.5341 361.101 91.0143C351.478 98.2654 329.148 96.299 324.46 83.3944C319.402 69.7524 323.597 43.5746 328.902 32.2677C334.33 20.8379 361.964 19.7318 373.191 31.6532Z" fill="#F8C499"/>
<path d="M354.932 73.0706C355.179 77.8638 359.374 81.5508 364.185 81.1821C368.996 80.9363 372.697 76.7576 372.327 71.9645C372.081 67.1714 367.886 63.4844 363.075 63.8531C358.263 64.0989 354.562 68.2775 354.932 73.0706Z" fill="url(#paint2_radial)"/>
<path d="M322.98 69.7523C323.227 74.5454 327.421 78.2324 332.232 77.8637C337.044 77.6179 340.745 73.4393 340.375 68.6461C340.128 63.853 335.934 60.166 331.122 60.5347C326.434 60.9034 322.733 64.9591 322.98 69.7523Z" fill="url(#paint3_radial)"/>
<path d="M346.667 77.3722C345.31 77.3722 341.979 76.7577 339.141 76.1432C338.771 76.0203 338.524 75.8974 338.401 75.5287C337.537 73.5623 341.979 64.8364 343.459 62.2554C343.582 62.0096 343.953 61.8867 344.323 62.0096C344.569 62.1325 344.693 62.5012 344.569 62.8699C341.855 67.9089 339.265 73.8081 339.511 75.0371C345.31 76.2661 346.667 76.1432 346.79 76.1432C347.037 76.0203 348.641 75.2829 348.394 71.7188C348.394 71.3501 348.641 71.1043 349.011 71.1043C349.381 71.1043 349.627 71.3501 349.627 71.7188C349.874 76.6348 347.16 77.3722 347.037 77.4951C347.037 77.3722 346.79 77.3722 346.667 77.3722Z" fill="#005796"/>
<path d="M327.174 36.5692C327.791 34.9715 328.408 33.6196 329.025 32.2677C331.862 26.3685 338.154 22.9272 349.874 22.9272C358.633 22.9272 368.256 25.8769 373.684 31.6532C377.139 35.3402 376.645 51.1944 375.165 60.2891C375.165 60.2891 371.587 57.0937 369.983 48.4906C368.503 39.8876 368.133 33.4967 368.133 33.4967C368.133 33.4967 361.471 26.7372 349.874 28.0891C339.265 29.1952 327.174 36.5692 327.174 36.5692Z" fill="#B1B1B2"/>
<path d="M332.479 47.8759C331.862 47.8759 331.492 47.753 330.999 47.753C330.629 47.6301 330.382 47.1385 330.505 46.7698C330.629 46.4011 331.122 46.1553 331.492 46.2782C331.616 46.2782 335.07 47.1385 337.167 43.3286C337.414 42.9599 337.907 42.837 338.278 42.9599C338.648 43.2057 338.771 43.6973 338.648 44.066C336.797 47.0156 334.33 47.8759 332.479 47.8759Z" fill="#666666"/>
<path d="M365.419 50.9486C365.419 50.9486 365.295 50.9486 365.419 50.9486C365.172 50.9486 360.977 50.5799 359.374 46.2784C359.25 45.9097 359.497 45.4181 359.867 45.2952C360.237 45.1723 360.731 45.4181 360.854 45.7868C362.088 49.228 365.295 49.4738 365.419 49.4738C365.912 49.4738 366.159 49.8425 366.159 50.3341C366.159 50.5799 365.789 50.9486 365.419 50.9486Z" fill="#666666"/>
<path d="M352.465 58.5682C352.218 61.8866 353.822 64.5904 356.043 64.8362C358.263 65.082 360.361 62.5011 360.607 59.3056C360.854 55.9873 359.25 53.1606 357.03 53.0377C354.809 52.7919 352.712 55.3728 352.465 58.5682Z" fill="white"/>
<path d="M353.699 58.6911C353.452 61.1491 354.686 63.3613 356.536 63.4842C358.263 63.6071 359.867 61.7636 360.114 59.1827C360.361 56.6018 359.127 54.5125 357.276 54.3896C355.549 54.2667 353.945 56.1102 353.699 58.6911Z" fill="#005796"/>
<path d="M331.492 56.1102C331.246 59.4286 332.849 62.1324 335.07 62.3782C337.291 62.624 339.388 60.0431 339.635 56.8476C339.881 53.5293 338.278 50.8255 336.057 50.5797C333.836 50.3339 331.739 52.9148 331.492 56.1102Z" fill="white"/>
<path d="M332.726 56.233C332.479 58.8139 333.713 60.9032 335.44 61.0261C337.167 61.1491 338.771 59.3055 339.018 56.7246C339.264 54.1437 338.031 52.0544 336.304 51.9315C334.453 51.8086 332.849 53.775 332.726 56.233Z" fill="#005796"/>
<path d="M336.427 69.8753C333.96 69.8753 331.986 67.9089 331.986 65.4509C331.986 64.2219 332.479 63.1158 333.343 62.2555C334.206 61.3952 335.317 60.9036 336.427 60.9036C338.894 60.9036 340.992 62.87 340.992 65.328C340.992 67.786 338.894 69.8753 336.427 69.8753ZM336.427 62.5013C335.687 62.5013 334.947 62.7471 334.33 63.3616C333.713 63.9761 333.466 64.7135 333.466 65.4509C333.466 67.0486 334.823 68.4005 336.304 68.4005V69.1379V68.4005C337.907 68.4005 339.141 67.0486 339.141 65.4509C339.388 63.7303 338.031 62.5013 336.427 62.5013Z" fill="#864443"/>
<path d="M351.478 71.2271C349.011 71.2271 347.037 69.2607 347.037 66.8027C347.037 65.5737 347.53 64.4676 348.27 63.6073C349.134 62.747 350.244 62.2554 351.478 62.2554C353.945 62.2554 355.919 64.2218 355.919 66.6798C355.919 67.9088 355.426 69.0149 354.562 69.8752C353.822 70.7355 352.712 71.2271 351.478 71.2271ZM351.478 63.7302C350.614 63.7302 349.998 64.0989 349.381 64.5905C348.887 65.205 348.517 65.9424 348.517 66.6798C348.517 68.2775 349.874 69.5065 351.355 69.5065V70.2439V69.5065C352.095 69.5065 352.835 69.2607 353.329 68.6462C353.945 68.0317 354.192 67.2943 354.192 66.5569C354.316 65.0821 353.082 63.7302 351.478 63.7302Z" fill="#864443"/>
<path d="M374.425 49.3507C374.425 49.3507 372.944 43.2056 368.256 38.2896C360.361 30.0552 337.907 31.7759 337.907 31.7759L343.459 39.2728C343.459 39.2728 339.265 41.1163 333.219 40.256C325.447 39.1499 324.707 32.882 324.707 32.882C324.707 32.882 323.227 24.8934 330.135 22.927C333.713 21.8209 335.44 23.6644 338.401 24.7705C342.102 26.2453 347.53 21.5751 357.03 24.2789C362.581 25.8766 366.776 29.9323 369.367 34.2339C373.438 41.3621 374.425 49.3507 374.425 49.3507Z" fill="#B1B1B2"/>
<path d="M330.752 35.3402C330.505 35.3402 330.382 35.2173 330.259 35.0944C325.941 29.441 330.505 25.754 330.629 25.6311C330.875 25.3853 331.369 25.5082 331.492 25.754C331.739 25.9998 331.616 26.4914 331.369 26.6143C331.246 26.7372 327.791 29.5639 331.246 34.2341C331.492 34.4799 331.369 34.9715 331.122 35.0944C330.999 35.3402 330.875 35.3402 330.752 35.3402Z" fill="white"/>
<path d="M337.661 37.9211C337.537 37.9211 337.414 37.9211 337.291 37.7982C337.167 37.6753 334.947 35.9547 333.713 33.4967C332.356 30.9158 332.849 28.4578 332.849 28.3349C332.973 27.9661 333.219 27.7203 333.59 27.8432C333.96 27.9662 334.206 28.212 334.083 28.5807C334.083 28.5807 333.713 30.7929 334.823 32.8822C335.934 35.0944 338.031 36.815 338.031 36.815C338.278 37.0608 338.401 37.4295 338.154 37.6753C338.031 37.9211 337.907 37.9211 337.661 37.9211Z" fill="white"/>
<path d="M373.808 51.6858C373.561 51.6858 373.438 51.5629 373.314 51.44C373.191 51.3171 372.204 49.8423 371.34 45.295C370.477 40.1332 371.464 35.7087 371.464 35.5858C371.587 35.2171 371.834 34.9713 372.204 35.0942C372.574 35.2171 372.821 35.4629 372.698 35.8316C372.698 35.8316 371.711 40.1332 372.574 45.0492C373.314 49.2278 374.301 50.5797 374.301 50.5797C374.548 50.8255 374.425 51.3171 374.178 51.44C374.055 51.6858 373.931 51.6858 373.808 51.6858Z" fill="white"/>
<path d="M367.269 32.6363C367.146 32.6363 367.023 32.6363 366.899 32.5134C366.899 32.5134 361.471 29.5638 354.562 28.4577C347.654 27.4745 340.498 28.3348 340.375 28.3348C340.005 28.3348 339.635 28.089 339.635 27.7203C339.635 27.3516 339.881 26.9829 340.251 26.9829C340.498 26.9829 347.654 26.1226 354.809 27.1058C361.964 28.089 367.393 31.1615 367.516 31.2844C367.886 31.4073 367.886 31.8989 367.763 32.1447C367.639 32.5134 367.393 32.6363 367.269 32.6363Z" fill="white"/>
<path d="M347.407 67.0486L340.005 66.1883C339.511 66.1883 339.265 65.6967 339.265 65.328C339.265 64.8364 339.758 64.5906 340.128 64.5906L347.407 65.4509C347.9 65.4509 348.147 65.9425 348.147 66.3112C348.147 66.6799 347.777 67.0486 347.407 67.0486Z" fill="#864443"/>
<path d="M355.673 66.8028C355.302 66.8028 354.932 66.557 354.932 66.1883C354.809 65.8196 355.056 65.328 355.549 65.2051L375.042 60.4119C375.412 60.289 375.905 60.5348 376.028 61.0264C376.152 61.3951 375.905 61.8867 375.412 62.0096L355.919 66.8028C355.796 66.8028 355.673 66.8028 355.673 66.8028Z" fill="#864443"/>
<path d="M333.219 63.853C332.973 63.853 332.849 63.7301 332.603 63.6072L323.103 54.0209C322.733 53.6522 322.856 53.1606 323.103 52.9148C323.473 52.669 323.967 52.669 324.214 52.9148L333.713 62.5011C334.083 62.8698 333.96 63.3614 333.713 63.6072C333.59 63.7301 333.343 63.853 333.219 63.853Z" fill="#864443"/>
<path d="M356.043 87.3273C355.796 87.3273 355.549 87.0815 355.549 86.8357C355.549 86.8357 355.426 83.5173 354.069 78.97C353.329 76.512 351.478 72.9479 351.478 72.9479C351.355 72.7021 351.478 72.4563 351.725 72.3334C351.972 72.2105 352.218 72.3334 352.342 72.5792C352.465 72.7021 354.192 76.2662 354.932 78.8471C356.289 83.5173 356.413 86.8357 356.413 86.9586C356.536 87.0815 356.289 87.2044 356.043 87.3273Z" fill="#005796"/>
<path d="M249.699 52.5462C250.809 52.792 250.686 54.1439 250.686 54.1439C250.686 54.1439 251.302 53.1607 252.166 53.2836C253.523 53.5294 253.153 54.8813 253.153 54.8813C253.153 54.8813 253.893 54.2668 254.387 54.3897C255.744 54.8813 255.374 56.1103 255.25 56.9706C255.25 56.9706 255.004 58.0767 254.51 60.5348C254.14 62.2554 253.4 64.4676 254.017 65.205C254.017 65.205 259.445 69.6294 259.692 72.0874C260.185 75.4057 257.224 77.4951 257.224 77.4951L254.14 84.3775L247.972 81.305L251.302 73.0706C251.302 73.0706 248.835 70.8584 244.764 65.5737C243.037 63.2386 243.777 60.7806 244.27 58.3225C245.011 54.8813 245.874 53.4065 246.738 53.2836C247.478 53.1607 247.848 53.7752 247.848 53.7752C247.848 53.7752 248.465 52.1775 249.699 52.5462Z" fill="#F8C499"/>
<path d="M254.263 84.9921C254.14 84.9921 254.14 84.9921 254.017 84.9921C253.77 84.8692 253.646 84.5005 253.77 84.2547L256.854 78.1096C256.854 78.1096 259.075 74.5455 258.705 71.473C258.458 69.6295 255.127 66.8028 253.77 65.8196C253.77 65.8196 253.77 65.8196 253.647 65.8196C252.906 65.0822 253.276 63.4845 253.647 61.8867C253.77 61.518 253.893 61.0264 253.893 60.6577C254.263 58.4455 254.51 57.3394 254.633 57.0936C254.633 56.9707 254.633 56.7249 254.633 56.602C254.757 55.6188 254.757 55.2501 254.017 55.0043C253.77 54.8814 253.647 54.6356 253.647 54.2669C253.77 54.0211 254.017 53.8982 254.387 53.8982C255.867 54.3898 255.744 55.7417 255.744 56.602C255.744 56.7249 255.744 56.9707 255.744 57.0936V57.2165C255.744 57.2165 255.497 58.3226 255.004 60.7806C254.88 61.1493 254.88 61.6409 254.757 62.0096C254.51 62.9929 254.14 64.5906 254.387 64.9593C255.127 65.4509 259.321 68.7692 259.692 71.3501C260.185 74.7913 257.964 78.3554 257.718 78.7241L254.633 84.8692C254.633 84.8692 254.387 84.9921 254.263 84.9921Z" fill="#005796"/>
<path d="M251.426 62.7469C251.426 62.7469 251.302 62.7469 251.426 62.7469C251.056 62.7469 250.809 62.5011 250.932 62.1324C250.932 62.0095 251.179 60.4118 251.549 58.8141C252.166 56.2332 252.536 55.4958 252.536 55.3729C252.66 55.1271 252.906 55.0042 253.276 55.1271C253.523 55.25 253.646 55.4958 253.523 55.8645C253.523 55.8645 253.153 56.7248 252.536 59.0599C252.166 60.6576 251.919 62.2553 251.919 62.2553C251.919 62.5011 251.673 62.7469 251.426 62.7469Z" fill="#005796"/>
<path d="M249.082 62.0095C248.712 62.0095 248.465 61.6408 248.588 61.395C248.588 61.2721 248.835 59.4286 249.205 58.0767C249.575 56.6019 250.069 55.1271 250.069 55.0042C250.192 54.7584 250.439 54.5126 250.686 54.6355C250.932 54.7584 251.179 55.0042 251.056 55.25C251.056 55.25 250.562 56.8477 250.192 58.1996C249.822 59.5515 249.575 61.395 249.575 61.5179C249.575 61.7637 249.329 62.0095 249.082 62.0095Z" fill="#005796"/>
<path d="M246.985 61.8866C246.738 61.8866 246.491 61.6408 246.491 61.395C246.491 61.395 246.368 59.9202 246.614 58.5682C246.861 57.0934 247.601 54.7583 247.601 54.7583C247.725 54.5125 247.972 54.2667 248.218 54.3896C248.465 54.5125 248.712 54.7583 248.588 55.0041C248.588 55.0041 247.848 57.3392 247.601 58.6912C247.355 60.0431 247.478 61.2721 247.478 61.2721C247.478 61.6408 247.231 61.8866 246.985 61.8866Z" fill="#005796"/>
<path d="M242.173 93.3494L249.575 75.8975L257.471 78.8471L247.972 100.355C247.972 100.355 246.738 103.304 244.27 103.796C241.803 104.288 240.076 102.444 239.953 100.601C239.953 98.6341 242.173 93.3494 242.173 93.3494Z" fill="#63CC74"/>
<path d="M250.809 94.4556H250.686C250.439 94.3327 250.439 94.2098 250.439 93.964L256.237 79.9533C256.361 79.7075 256.484 79.7075 256.731 79.7075C256.977 79.8304 256.977 79.9533 256.977 80.1991L251.179 94.2098C251.056 94.4556 250.932 94.4556 250.809 94.4556Z" fill="#005796"/>
<path d="M348.517 87.4501C348.147 87.4501 347.9 87.2043 347.777 86.8356C347.777 86.7127 346.79 83.7631 342.472 82.5341C340.251 81.9196 338.648 82.9028 338.524 83.0257C338.154 83.2715 337.661 83.1486 337.414 82.7799C337.167 82.4112 337.291 81.9196 337.661 81.6738C337.784 81.6738 340.005 80.199 342.842 81.0593C348.147 82.4112 349.257 86.2211 349.257 86.4669C349.381 86.8356 349.134 87.3272 348.764 87.4501C348.641 87.4501 348.517 87.4501 348.517 87.4501Z" fill="#E94954"/>
<path d="M220.46 133.415C220.46 133.415 220.954 134.521 218.24 136.733C215.525 139.068 214.168 138.7 214.168 138.7L214.539 134.03L220.46 133.415Z" fill="#B16429"/>
<path d="M214.415 139.068C214.292 139.068 214.292 139.068 214.292 139.068C214.168 139.068 214.045 138.945 214.045 138.7C214.045 138.577 214.168 138.454 214.415 138.454C214.415 138.454 215.649 138.577 218.24 136.487C220.337 134.767 220.337 133.415 220.337 133.292C220.337 133.169 220.46 133.046 220.584 133.046C220.707 133.046 220.83 133.169 220.83 133.292C220.83 133.415 220.83 135.013 218.61 136.856C216.142 138.945 214.785 139.068 214.415 139.068Z" fill="#005796"/>
<path d="M235.265 133.415C235.265 133.415 234.771 134.521 237.485 136.733C240.199 139.068 241.556 138.7 241.556 138.7L241.186 134.03L235.265 133.415Z" fill="#B16429"/>
<path d="M241.31 139.068C240.816 139.068 239.459 138.946 237.238 136.979C234.894 135.136 235.018 133.415 235.018 133.415C235.018 133.292 235.141 133.169 235.265 133.169C235.388 133.169 235.511 133.292 235.511 133.415C235.511 133.415 235.511 134.89 237.609 136.61C240.199 138.7 241.433 138.577 241.433 138.577C241.556 138.577 241.68 138.7 241.803 138.823C241.803 138.946 241.68 139.068 241.556 139.191C241.556 139.068 241.433 139.068 241.31 139.068Z" fill="#005796"/>
<path d="M32.3227 118.913L47.8671 105.393L48.484 91.137C48.484 91.137 45.0297 92.6118 42.809 94.9469C38.4911 99.4942 29.8553 111.784 29.8553 111.784L27.1412 116.209L32.3227 118.913Z" fill="#005796"/>
<path d="M86.9751 118.913L91.7865 117.929C87.962 99.0028 78.0925 95.6845 75.1317 93.2264C72.911 91.5058 67.4828 90.2768 67.4828 90.2768L55.516 89.4165L50.0878 90.7684C50.0878 90.7684 44.4128 92.3661 41.9454 96.0531C40.3416 98.3883 37.9976 105.148 37.9976 105.148C37.9976 105.148 39.3547 104.165 36.2705 110.678L47.8671 105.517C52.3084 96.4219 47.8671 105.517 47.8671 105.517C47.8671 105.517 47.8671 107.483 47.8671 109.081C47.6204 114.611 48.6074 116.823 49.1008 121.002C49.5943 125.181 47.1269 141.404 47.1269 141.404C47.1269 141.404 53.5421 143.616 61.5611 143.001C69.5801 142.387 73.4045 140.42 73.4045 140.42C73.4045 140.42 69.8268 126.533 70.3203 121.617C70.3203 121.125 72.1708 114.98 72.0475 111.416C71.9241 107.852 71.0605 102.567 71.0605 102.567C71.0605 102.567 74.3915 106.623 75.5018 106.623L86.9751 118.913Z" fill="#0061BB"/>
<path d="M55.2693 89.4164L55.0225 76.266L64.5219 75.7744L64.8921 89.4164L68.5931 90.6454C68.5931 90.6454 68.5931 94.824 61.0676 95.0698C53.172 95.3156 51.1981 90.5225 51.1981 90.5225L55.2693 89.4164Z" fill="#F6B37F"/>
<path d="M72.1708 22.0669C70.9371 18.9943 71.3072 14.447 71.3072 14.447C71.3072 14.447 63.7817 19.3631 68.7165 25.7539C71.9241 29.9325 76.3653 26.4913 76.3653 26.4913C76.3653 26.4913 73.4045 25.1394 72.1708 22.0669Z" fill="#005796"/>
<path d="M72.1708 26.2455C72.0474 26.2455 71.9241 26.2455 71.9241 26.1226C71.8007 26.1226 69.5801 24.8935 68.8398 22.8042C67.8529 20.1004 69.0866 17.7653 69.0866 17.6424C69.21 17.3966 69.7034 17.2737 69.9502 17.3966C70.1969 17.5195 70.3203 18.0111 70.1969 18.2569C70.1969 18.2569 69.21 20.2233 69.9502 22.3126C70.567 23.9103 72.4176 24.8935 72.4176 24.8935C72.6643 25.0164 72.7877 25.3851 72.6643 25.7539C72.6643 26.1226 72.4176 26.2455 72.1708 26.2455Z" fill="white"/>
<path d="M94.7473 21.3296C86.9751 15.4303 77.7224 14.57 74.1447 19.3632C70.567 24.1563 74.0214 32.7593 81.7936 38.5357C89.5658 44.4349 98.8185 45.2952 102.396 40.5021C105.974 35.8319 102.643 27.2288 94.7473 21.3296Z" fill="#005796"/>
<path d="M87.2218 40.2561C87.0984 40.2561 86.9751 40.2561 86.8517 40.1332C86.2349 39.5187 85.9881 38.1668 85.9881 37.0607C85.9881 35.8317 86.3582 32.8821 88.5789 31.0386C93.2669 27.2286 100.916 30.9157 101.286 31.0386C101.656 31.1615 101.779 31.5302 101.533 31.8989C101.409 32.2676 101.039 32.3905 100.669 32.1447C100.546 32.1447 93.3903 28.7035 89.3191 32.0218C87.4686 33.4966 87.2218 35.9546 87.0985 36.9378C87.0985 38.2897 87.3452 39.15 87.4686 39.2729C87.7153 39.5187 87.7153 39.8874 87.4686 40.1332C87.5919 40.2561 87.3452 40.2561 87.2218 40.2561Z" fill="white"/>
<path d="M84.7544 36.692C84.5077 36.692 84.3843 36.5691 84.261 36.4462C84.1376 36.2004 79.9431 30.1783 83.7675 25.508C87.5919 20.8378 93.3903 22.6813 93.637 22.6813C94.0071 22.8042 94.1305 23.1729 94.0071 23.4187C93.8837 23.7874 93.5136 23.9103 93.2669 23.7874C93.0202 23.6645 87.962 22.1897 84.7544 26.2454C81.5468 30.1783 85.2479 35.5859 85.2479 35.5859C85.4947 35.8317 85.3713 36.3233 85.1245 36.4462C85.0012 36.692 84.8778 36.692 84.7544 36.692Z" fill="white"/>
<path d="M81.4235 32.6364C81.3001 32.6364 81.0534 32.6364 81.0534 32.5135C80.93 32.3906 77.9691 29.5638 77.9691 24.8936C77.9691 19.8547 84.261 18.3799 84.5077 18.3799C84.8778 18.257 85.2479 18.5028 85.2479 18.8715C85.3713 19.2402 85.1245 19.6089 84.7544 19.6089C84.7544 19.6089 79.2028 20.9608 79.2028 24.8936C79.2028 29.0722 81.7936 31.6532 81.917 31.6532C82.1637 31.899 82.1637 32.2677 81.917 32.5135C81.7936 32.6364 81.6702 32.6364 81.4235 32.6364Z" fill="white"/>
<path d="M32.5694 47.0156C28.4982 46.4011 24.7971 49.2278 24.3037 53.2835C23.6868 57.3392 26.5243 61.0263 30.5955 61.5179C34.6667 62.1324 38.3677 59.3057 38.8612 55.2499C39.478 51.1942 36.6406 47.5072 32.5694 47.0156Z" fill="#F6B37F"/>
<path d="M96.3511 56.1103C92.2799 55.4958 88.5789 58.3225 87.962 62.3783C87.3452 66.434 90.1827 70.121 94.2538 70.6126C98.325 71.2271 102.026 68.4004 102.52 64.3447C103.136 60.2889 100.299 56.6019 96.3511 56.1103Z" fill="#F6B37F"/>
<path d="M67.8529 24.8936C49.3476 22.3127 32.446 33.9883 30.102 50.8257C27.6346 67.786 40.7117 83.6402 59.0937 86.2211C77.5991 88.802 94.3772 77.1264 96.8446 60.1661C99.312 43.3287 86.2349 27.4745 67.8529 24.8936Z" fill="#F8C499"/>
<path d="M42.9324 54.5126C42.4389 54.3897 42.0688 54.2668 41.5753 54.2668C38.121 53.898 34.9134 55.8645 33.8031 59.3057C32.5694 63.1156 34.6667 67.1713 38.4911 68.4003C42.3155 69.6293 46.3867 67.54 47.6204 63.7301C48.8541 59.7973 46.7568 55.7416 42.9324 54.5126Z" fill="url(#paint4_radial)"/>
<path d="M86.605 61.2721C86.1115 61.1492 85.618 61.0263 85.2479 61.0263C81.7936 60.6576 78.586 62.624 77.4757 66.0652C76.242 69.8751 78.3392 73.9309 82.1637 75.1599C85.9881 76.3889 90.0593 74.2996 91.293 70.4896C92.5267 66.5568 90.4294 62.5011 86.605 61.2721Z" fill="url(#paint5_radial)"/>
<path d="M61.0676 70.1211C60.9442 70.1211 60.8209 70.1211 60.6975 69.9982C59.9573 69.5066 58.6002 68.0318 59.0937 66.0653C59.7105 63.976 60.6975 61.3951 60.6975 61.2722C60.8209 60.9035 61.191 60.7806 61.5611 60.9035C61.9312 61.0264 62.0546 61.3951 61.9312 61.7638C61.9312 61.7638 60.9442 64.4676 60.4508 66.434C60.0807 67.9089 61.4377 68.8921 61.4377 68.8921C61.6845 69.1379 61.8078 69.5066 61.6845 69.7524C61.5611 69.9982 61.3143 70.1211 61.0676 70.1211Z" fill="#005796"/>
<path d="M80.93 59.1829C80.5599 59.1829 80.1898 59.1829 80.1898 59.1829C79.943 59.1829 79.8197 58.9371 79.8197 58.8142C79.8197 58.5684 80.0664 58.4455 80.1898 58.4455C80.1898 58.4455 81.6702 58.5684 82.5338 58.1997C83.1506 57.9539 83.6441 57.2165 83.6441 57.2165C83.7675 57.0936 84.0142 56.9707 84.1376 57.0936C84.261 57.2165 84.3843 57.4623 84.261 57.5852C84.261 57.5852 83.6441 58.4455 82.7805 58.8142C82.2871 59.06 81.5468 59.1829 80.93 59.1829Z" fill="#005796"/>
<path d="M79.5729 58.0768C79.0795 58.0768 78.8327 58.0768 78.8327 58.0768C78.586 58.0768 78.4626 57.831 78.4626 57.7081C78.4626 57.4623 78.7094 57.3394 78.8327 57.3394C78.8327 57.3394 80.3132 57.4623 81.1767 57.2165C81.7936 56.9707 82.287 56.3562 82.287 56.3562C82.4104 56.2333 82.6572 56.1104 82.7805 56.2333C82.9039 56.3562 83.0273 56.602 82.9039 56.7249C82.9039 56.7249 82.2871 57.5852 81.3001 57.9539C80.8066 58.0768 80.0664 58.0768 79.5729 58.0768Z" fill="#005796"/>
<path d="M76.9822 55.9874C74.3915 55.4958 71.8007 57.8309 71.0605 61.2721C70.3203 64.7134 71.8007 67.9088 74.3915 68.4004C76.9822 68.892 79.5729 66.5569 80.3132 63.1157C81.0534 59.6744 79.5729 56.479 76.9822 55.9874Z" fill="white"/>
<path d="M76.6121 56.725C74.7616 56.3563 72.7877 58.0769 72.1708 60.6578C71.6774 63.2387 72.7877 65.5738 74.6382 65.9425C76.4887 66.3112 78.4626 64.5906 79.0795 62.0097C79.573 59.5517 78.4626 57.2166 76.6121 56.725Z" fill="#005796"/>
<path d="M46.5101 54.3898C46.3867 54.3898 44.7829 54.0211 43.9193 53.4066C43.0557 52.7921 42.809 51.8089 42.809 51.8089C42.6856 51.5631 42.809 51.4402 43.0557 51.3173C43.3025 51.1944 43.4258 51.3173 43.5492 51.5631C43.5492 51.5631 43.796 52.4234 44.4128 52.7921C45.153 53.2837 46.6334 53.6524 46.6334 53.6524C46.8802 53.6524 47.0035 53.8982 46.8802 54.144C46.8802 54.2669 46.7568 54.3898 46.5101 54.3898Z" fill="#005796"/>
<path d="M48.2372 53.7753C48.1139 53.7753 46.5101 53.4066 45.6465 52.7921C44.7829 52.3005 44.5362 51.1944 44.5362 51.1944C44.4128 50.9486 44.5362 50.8257 44.7829 50.7028C45.0297 50.5799 45.153 50.7028 45.2764 50.9486C45.2764 50.9486 45.5231 51.8089 46.14 52.1776C46.8802 52.6692 48.3606 53.0379 48.3606 53.0379C48.6074 53.0379 48.7307 53.2837 48.6074 53.5295C48.6074 53.6524 48.3606 53.7753 48.2372 53.7753Z" fill="#005796"/>
<path d="M49.9644 52.1776C47.3737 51.9318 45.0296 54.6356 44.7829 58.1998C44.5362 61.7639 46.3867 64.7135 48.9775 64.9593C51.5682 65.2051 53.9122 62.5013 54.1589 58.9372C54.4057 55.373 52.5551 52.3005 49.9644 52.1776Z" fill="white"/>
<path d="M49.9644 52.9149C47.9905 52.792 46.2633 54.7584 46.14 57.3393C45.8932 59.9202 47.3737 62.1324 49.2242 62.3782C51.1981 62.5011 52.9253 60.5347 53.0486 57.9538C53.4187 55.25 51.9383 53.0378 49.9644 52.9149Z" fill="#005796"/>
<path d="M67.8529 24.4019C48.6074 21.6981 32.446 33.9882 30.102 50.9485C30.102 50.9485 43.9193 44.8035 52.6785 41.3622C61.3144 37.921 66.4959 34.8485 66.4959 34.8485C66.4959 34.8485 74.3915 42.4684 80.93 48.3676C87.8387 54.5126 96.968 60.4119 96.968 60.4119C99.312 43.3287 87.5919 27.1058 67.8529 24.4019Z" fill="#005796"/>
<path d="M66.6192 34.1112C66.1257 34.1112 65.879 33.7425 66.0024 33.3738L66.9893 26.1227C66.9893 25.754 67.3594 25.5082 67.7295 25.6311C68.0996 25.6311 68.3464 25.9998 68.223 26.3685L67.236 33.6196C67.236 33.8654 66.9893 34.1112 66.6192 34.1112Z" fill="white"/>
<path d="M34.5433 44.8035C34.2966 44.8035 34.0498 44.6806 33.9265 44.4348C33.8031 44.0661 33.9265 43.6974 34.2966 43.5745C34.2966 43.5745 36.3938 42.7142 44.4128 39.8875C52.3084 36.9378 64.6453 30.6699 64.7687 30.547C65.1388 30.4241 65.5089 30.547 65.6323 30.7928C65.7556 31.1615 65.6323 31.5302 65.3855 31.6531C65.2622 31.776 52.9253 38.1668 44.9063 40.9936C37.0107 43.9432 34.9134 44.6806 34.79 44.6806C34.6667 44.8035 34.5433 44.8035 34.5433 44.8035Z" fill="white"/>
<path d="M38.121 38.7813C37.8743 38.7813 37.7509 38.6584 37.6275 38.5355C37.3808 38.2897 37.5042 37.7981 37.7509 37.6752C37.7509 37.6752 43.3025 33.7424 49.9644 30.9156C54.8992 28.8263 62.3013 27.7202 62.548 27.7202C62.9181 27.7202 63.1649 27.966 63.2882 28.2118C63.2882 28.5805 63.0415 28.8263 62.7948 28.9492C62.6714 28.9492 55.2693 30.0553 50.4579 32.0217C43.9193 34.8485 38.4911 38.6584 38.3677 38.6584C38.3677 38.7813 38.2444 38.7813 38.121 38.7813Z" fill="white"/>
<path d="M94.3772 51.5631C94.2538 51.5631 94.1305 51.5631 94.1305 51.4402C94.1305 51.4402 89.0724 48.8593 82.5338 44.0661C75.255 38.7814 67.2361 32.2677 67.1127 32.1448C66.866 31.899 66.7426 31.5303 66.9893 31.2845C67.2361 31.0387 67.6062 30.9158 67.8529 31.1616C67.9763 31.2845 75.9953 37.6753 83.1507 42.96C89.6892 47.7532 94.624 50.2112 94.624 50.3341C94.9941 50.457 95.1174 50.8257 94.8707 51.1944C94.8707 51.4402 94.624 51.5631 94.3772 51.5631Z" fill="white"/>
<path d="M90.7995 44.0661C90.5528 44.0661 90.4294 43.9432 90.306 43.8203C90.306 43.8203 88.2088 40.8707 83.0273 36.9379C77.7224 33.005 71.1839 29.5638 71.0605 29.5638C70.6904 29.4409 70.567 29.0722 70.8138 28.7035C70.9371 28.3348 71.3072 28.2119 71.6773 28.4577C71.8007 28.4577 78.4626 31.8989 83.7675 35.9547C89.1957 40.0104 91.293 42.96 91.4164 43.0829C91.6631 43.3287 91.5397 43.8203 91.293 43.9432C91.0463 43.9432 90.9229 44.0661 90.7995 44.0661Z" fill="white"/>
<path d="M71.5066 96.9177L48.5645 97.4062L48.6568 101.707L71.5988 101.218L71.5066 96.9177Z" fill="white"/>
<path d="M68.9632 98.6341H71.4306L71.554 91.5058L68.9632 90.6455V98.6341Z" fill="white"/>
<path d="M51.1981 99.1256L48.6073 99.2485L48.484 91.26L51.0747 90.3997L51.1981 99.1256Z" fill="white"/>
<path d="M74.6382 143.862C72.4175 132.186 71.0605 127.762 70.4436 123.46C69.8268 119.159 72.911 114.611 72.7876 109.695C72.6643 106.5 71.6773 100.355 71.6773 100.355L48.6073 100.601C48.6073 100.601 47.0035 108.097 47.0035 110.924C47.1269 114.365 48.8541 120.265 48.8541 123.337C48.9774 126.41 45.3998 135.504 43.9193 144.107C43.4258 147.303 42.9324 151.236 42.9324 157.995L76.1186 157.872C75.6251 150.744 75.255 146.688 74.6382 143.862Z" fill="#E9E362"/>
<path d="M88.8256 121.862L72.7877 104.287L75.0083 93.2263C75.0083 93.2263 82.4104 97.1591 83.1507 99.9859C84.1376 103.919 85.7414 107.237 85.7414 107.237L94.5006 118.913L88.8256 121.862Z" fill="#0061BB"/>
<path d="M118.311 78.4784C115.72 73.5624 107.208 80.6907 107.208 80.6907C110.045 78.7242 120.902 83.5174 118.311 78.4784Z" fill="#79C1E6"/>
<path d="M101.039 87.573C104.74 91.0142 109.058 97.7738 110.662 93.718C112.389 89.5394 101.039 87.573 101.039 87.573Z" fill="#79C1E6"/>
<path d="M18.382 25.2622C18.382 25.2622 11.72 18.2568 10.7331 22.8041C9.86951 26.2454 13.9407 23.5415 18.382 25.2622Z" fill="#79C1E6"/>
<path d="M9.74614 40.5019C11.8434 45.4179 14.6809 37.7981 19.9858 36.2004C19.9858 36.2004 7.64886 35.5859 9.74614 40.5019Z" fill="#79C1E6"/>
<path d="M22.6999 16.7821C20.1091 22.1897 28.6216 20.592 31.9525 23.2958C31.9525 23.1729 24.7971 12.4806 22.6999 16.7821Z" fill="#79C1E6"/>
<path d="M80.93 51.3174C79.8197 51.3174 78.2159 51.0716 76.7355 49.8426C75.1317 48.4907 74.6382 46.6472 74.6382 46.5243C74.5148 46.1556 74.7616 45.9098 75.1317 45.7869C75.5018 45.664 75.7485 45.9098 75.8719 46.2785C75.8719 46.2785 76.242 47.8762 77.5991 48.8594C79.9431 50.7029 82.4104 49.8426 82.4104 49.8426C82.7806 49.7197 83.0273 49.8426 83.1507 50.2113C83.274 50.58 83.1507 50.8258 82.7805 50.9487C82.7805 51.0716 82.0403 51.3174 80.93 51.3174Z" fill="#005796"/>
<path d="M50.828 46.4014C48.6074 46.4014 47.1269 45.2952 47.0036 45.1723C46.7568 44.9265 46.6335 44.5578 46.8802 44.312C47.1269 44.0662 47.497 43.9433 47.7438 44.1891C47.8671 44.312 49.9644 45.7869 52.6785 44.8036C54.2823 44.1891 55.1459 42.8372 55.1459 42.8372C55.2693 42.5914 55.7628 42.4685 56.0095 42.5914C56.2562 42.7143 56.3796 43.2059 56.2562 43.4517C56.2562 43.5746 55.2693 45.1723 53.172 45.9098C52.3084 46.2785 51.5682 46.4014 50.828 46.4014Z" fill="#005796"/>
<path d="M62.6714 74.9142C62.0546 74.2997 61.3143 73.8081 60.5741 73.8081C59.3404 73.8081 59.2171 75.16 59.0937 76.389V77.0035C58.9703 78.1096 59.2171 79.2157 59.8339 79.8302C60.204 80.1989 60.5741 80.4447 61.0676 80.4447H61.191C62.4247 80.4447 63.4116 79.0928 63.535 77.2493C63.6584 76.5119 63.2882 75.6516 62.6714 74.9142Z" fill="#E94954"/>
<path d="M92.1566 73.1935C91.1696 70.121 90.1827 69.0149 89.4425 68.892C88.7023 68.7691 88.5789 69.3836 88.5789 69.3836C88.5789 69.3836 87.962 68.0317 86.8517 68.4004C85.8648 68.7691 86.1115 69.8752 86.1115 69.8752C86.1115 69.8752 85.3713 69.1378 84.6311 69.2607C83.5208 69.6294 84.0142 70.8584 84.0142 70.8584C84.0142 70.8584 83.274 70.3668 82.9039 70.6126C81.6702 71.2271 82.2871 72.3332 82.4104 73.0706C82.4104 73.0706 82.7805 74.0538 83.5208 76.1431C84.0142 77.6179 85.0012 79.5844 84.3843 80.3218C84.3843 80.3218 80.5599 84.1317 80.4365 86.3439C80.4365 89.4164 81.917 91.6286 81.917 91.6286L83.7675 98.1424L90.1827 96.6676L87.7153 87.3271C87.7153 87.3271 89.6892 84.992 92.7734 79.8302C93.8837 77.495 92.8968 75.4057 92.1566 73.1935Z" fill="#F8C499"/>
<path d="M92.7734 73.808C92.6501 73.5622 92.6501 73.3164 92.5267 73.0706C91.5397 70.121 90.5528 68.6462 89.4425 68.5233C88.949 68.5233 88.7022 68.6462 88.4555 68.7691C88.0854 68.2775 87.4686 67.7859 86.605 68.1546C85.9881 68.4004 85.7414 68.892 85.618 69.2607C85.2479 69.0149 84.8778 68.892 84.3843 69.0149C84.0142 69.1378 83.6441 69.3836 83.5207 69.7523C83.3974 69.8752 83.3974 70.121 83.3974 70.2439C83.1506 70.121 82.7805 70.121 82.5338 70.2439C81.3001 70.8584 81.5468 71.9645 81.6702 72.7019C81.6702 72.8248 81.7936 72.9477 81.7936 73.0706C81.7936 73.1935 82.1637 74.1767 82.9039 76.2661C83.0273 76.6348 83.1506 77.0035 83.274 77.3722C83.6441 78.3554 84.1376 79.7073 83.8909 80.076C83.7675 80.1989 80.3132 83.763 80.3132 86.0981C80.3132 88.5561 81.0534 90.7683 81.1767 90.8912C81.1767 91.0141 81.3001 91.137 81.5468 91.137H81.6702C81.917 91.0141 81.917 90.8912 81.917 90.6454C81.917 90.6454 81.1767 88.4332 81.1767 86.0981C81.1767 84.3775 83.6441 81.4279 84.6311 80.5676C85.1245 79.8302 84.6311 78.4783 84.1376 77.1264C84.0142 76.7577 83.8909 76.389 83.7675 76.1432C83.0273 74.0538 82.7805 73.0706 82.6572 73.0706C82.6572 72.9477 82.6572 72.8248 82.5338 72.7019C82.2871 71.8416 82.2871 71.35 83.0273 71.1042C83.1506 70.9813 83.6441 71.2271 83.7675 71.35H83.8909C83.7675 71.4729 83.7675 71.7187 83.8909 71.8416C83.8909 71.8416 84.261 72.579 85.1245 74.6683C85.618 76.0203 85.9881 77.4951 85.9881 77.4951C85.9881 77.7409 86.2349 77.8638 86.4816 77.8638H86.605C86.8517 77.7409 86.9751 77.4951 86.9751 77.2493C86.9751 77.2493 86.605 75.7745 85.9881 74.2996C85.1245 72.0874 84.7544 71.35 84.7544 71.35C84.6311 71.2271 84.5077 71.1042 84.3843 71.1042C84.3843 70.9813 84.5077 70.9813 84.3843 70.8584C84.3843 70.7355 84.261 70.3668 84.3843 70.121C84.5077 69.9981 84.6311 69.8752 84.8778 69.7523C85.3713 69.5065 85.9881 70.2439 85.9881 70.2439C86.1115 70.3668 86.2349 70.3668 86.3582 70.3668C86.4816 70.2439 86.605 70.121 86.605 69.9981C86.605 69.9981 86.4816 69.1378 87.0984 68.892C87.962 68.6462 88.3321 69.6294 88.3321 69.6294C88.3321 69.7523 88.5789 69.8752 88.7023 69.8752C88.8256 69.8752 88.949 69.7523 89.0724 69.6294C89.0724 69.5065 89.1957 69.2607 89.5658 69.2607C89.5658 69.2607 89.5658 69.2607 89.6892 69.2607C89.9359 69.2607 90.9229 69.6294 92.1566 73.3164C92.2799 73.5622 92.28 73.808 92.4033 74.0538C93.0202 76.0203 93.7604 77.7409 92.6501 79.7073C89.6892 84.7462 87.7153 87.0813 87.7153 87.0813C87.5919 87.2042 87.5919 87.45 87.7153 87.5729C87.8387 87.6958 88.0854 87.6958 88.2088 87.5729C88.3321 87.45 90.306 85.1149 93.2669 80.076C94.1305 77.8638 93.3903 75.7745 92.7734 73.808Z" fill="#005796"/>
<path d="M86.7284 70.7354C86.605 70.4896 86.3582 70.3667 86.1115 70.4896C85.8648 70.6125 85.7414 70.8583 85.8648 71.1041C85.8648 71.1041 86.4816 72.456 86.9751 73.685C87.4686 74.914 87.8387 76.5118 87.8387 76.5118C87.8387 76.7576 88.0854 76.8805 88.3321 76.8805H88.4555C88.7023 76.7576 88.8256 76.5118 88.8256 76.266C88.8256 76.1431 88.3321 74.5453 87.8387 73.3163C87.3452 72.0873 86.7284 70.7354 86.7284 70.7354Z" fill="#005796"/>
<path d="M89.6892 76.1432C89.6892 76.389 89.9359 76.6348 90.1827 76.6348C90.4294 76.6348 90.6762 76.389 90.6762 76.1432C90.6762 76.1432 90.5528 74.9142 90.1827 73.5623C89.8126 72.3333 88.8256 70.244 88.8256 70.244C88.7023 69.9982 88.4555 69.8753 88.2088 69.9982C87.962 70.1211 87.8387 70.3669 87.962 70.6127C87.962 70.6127 88.949 72.702 89.1957 73.8081C89.6892 74.9142 89.6892 76.1432 89.6892 76.1432Z" fill="#005796"/>
<path d="M86.9751 118.913C87.4686 121.371 89.8126 123.091 92.1566 122.6C94.5006 122.108 96.1044 119.65 95.6109 117.192L89.3191 91.26L82.0403 92.2432L86.9751 118.913Z" fill="#0061BB"/>
<path d="M89.0724 57.0935C89.0724 57.0935 84.3843 65.8195 87.4686 66.1882C90.6762 66.434 89.0724 57.0935 89.0724 57.0935Z" fill="white"/>
<path d="M36.8873 51.4402C36.8873 51.4402 32.1993 60.1661 35.2835 60.5348C38.4911 60.9035 36.8873 51.4402 36.8873 51.4402Z" fill="white"/>
<path d="M22.8232 97.8967L32.9395 108.835C32.9395 108.835 39.7248 114.365 32.3227 118.913C28.9917 121.002 25.1673 113.874 25.1673 113.874L16.7782 103.059L22.8232 97.8967Z" fill="#0061BB"/>
<path d="M34.1732 109.695L24.3037 99.986C24.1803 99.8631 23.9336 99.8631 23.8102 99.986C23.6868 100.109 23.6868 100.355 23.8102 100.478L33.6797 110.187C33.8031 110.31 33.9264 110.31 34.1732 110.31C34.1732 110.31 34.2965 110.31 34.2965 110.187C34.4199 110.064 34.4199 109.818 34.1732 109.695Z" fill="#005796"/>
<path d="M10.7331 83.2714C10.6097 82.4111 10.9798 81.1821 10.4864 80.6905C9.86952 80.1989 8.38909 81.5508 8.51246 83.6401C8.51246 84.7462 8.7592 86.7126 8.7592 86.7126C8.7592 86.7126 7.52551 88.5561 8.38909 90.8912C9.25267 93.2264 12.4603 96.9134 12.4603 96.9134C12.4603 96.9134 13.694 91.8744 13.694 89.908C13.694 87.8187 11.5967 87.0813 10.7331 83.2714Z" fill="#F8C499"/>
<path d="M9.99289 85.7296C9.99289 85.7296 6.41519 83.0257 5.5516 82.0425C5.05813 81.428 4.68802 80.9364 4.68802 80.9364L4.93476 78.97C5.05813 77.9868 5.30487 76.8807 4.68802 76.1433C3.5777 74.5456 2.96086 75.4059 2.46738 77.8639C2.22064 78.97 2.22064 80.199 2.09727 81.1822C2.09727 82.1654 4.19455 84.2547 4.19455 84.2547L9.99289 89.0479V85.7296Z" fill="#F8C499"/>
<path d="M13.2005 90.6455L13.694 92.7348L11.5967 98.3882L7.40214 98.8798C7.40214 98.8798 1.6038 92.1203 1.35706 90.7684C1.11032 89.4165 3.82444 88.6791 3.82444 88.6791L11.8434 87.9417L13.2005 90.6455Z" fill="#F8C499"/>
<path d="M9.00593 94.7013C9.00593 94.7013 8.88256 94.7013 9.00593 94.7013C8.75919 94.5784 8.63582 94.4555 8.75919 94.3326C8.75919 94.3326 9.1293 93.4723 8.88256 91.9975C8.63582 90.5227 6.78529 88.9249 6.78529 88.9249L4.56465 86.8356C4.44128 86.7127 4.44128 86.5898 4.56465 86.4669C4.68802 86.344 4.81139 86.344 4.93476 86.4669L7.1554 88.5562C7.27876 88.5562 9.1293 90.2768 9.4994 91.8746C9.74614 93.5952 9.37604 94.4555 9.25267 94.5784C9.25267 94.5784 9.1293 94.7013 9.00593 94.7013Z" fill="#45372A"/>
<path d="M37.3808 92.7348C37.3808 88.4333 32.8161 83.6402 20.726 83.0257C9.4994 82.4112 2.22063 87.573 2.59074 93.2265C2.83748 97.7738 6.78528 99.6173 6.78528 99.6173C6.78528 99.6173 6.53854 103.427 9.4994 104.902C12.3369 106.377 13.2005 106.254 19.739 106.5C26.2776 106.746 29.2384 105.762 30.8422 104.042C33.0629 101.707 32.5694 99.3715 32.5694 99.3715C32.5694 99.3715 37.2574 98.2654 37.3808 92.7348Z" fill="#F29D88"/>
<path d="M32.5694 99.3714C32.5694 99.3714 33.0629 101.707 30.8422 104.042C29.2384 105.762 26.1542 106.745 19.739 106.5C13.2005 106.254 12.3369 106.377 9.4994 104.902C6.66192 103.55 6.78529 99.6172 6.78529 99.6172L6.04507 99.2485C6.04507 99.2485 6.04507 102.075 6.04507 103.304C6.04507 105.394 7.89561 107.36 10.9798 107.606C14.4342 107.852 26.8944 108.466 30.2254 106.991C33.5563 105.516 33.433 102.198 33.433 102.198V99.0027L32.5694 99.3714Z" fill="#C9C29F"/>
<path d="M18.9988 107.729C18.5053 107.483 17.1483 108.22 16.9015 109.204C16.5314 110.31 17.0249 111.416 17.8885 111.662C18.7521 111.907 19.739 111.293 19.9858 110.187C20.2325 109.081 19.4923 107.975 18.9988 107.729Z" fill="#C9C29F"/>
<path d="M22.8232 109.326C22.5765 108.22 21.3428 107.606 20.726 107.729C20.2325 107.729 19.3689 108.958 19.6157 110.064C19.8624 111.17 20.8493 111.907 21.7129 111.661C22.6999 111.539 23.07 110.432 22.8232 109.326Z" fill="#C9C29F"/>
<path d="M1.48043 91.8746C1.48043 91.8746 0.123376 89.0479 0.246745 88.1876C0.370113 87.2044 1.2337 86.7128 2.22065 86.8357C3.2076 86.9586 8.38909 88.4334 8.38909 88.4334C8.38909 88.4334 9.25268 89.0479 8.7592 89.9082C8.63583 90.2769 6.29182 90.3998 4.93476 90.0311H2.71412L2.46739 91.6288L1.48043 91.8746Z" fill="#F8C499"/>
<path d="M2.09727 88.3105C2.09727 88.3105 1.35705 86.5899 1.48042 85.7296C1.60379 84.7464 2.46737 84.3777 3.45433 84.3777C4.44128 84.5006 9.1293 86.3441 9.1293 86.3441C9.1293 86.3441 9.74614 86.9586 9.4994 87.4502C9.25266 87.9418 7.77224 88.3105 6.53855 88.0647C5.18149 87.8189 4.93475 88.0647 4.93475 88.0647L4.68801 88.5563L2.09727 88.3105Z" fill="#F8C499"/>
<path d="M3.08422 85.238C3.08422 85.238 2.46737 84.2548 2.71411 83.3945C3.08422 82.5342 3.70106 81.9197 4.68801 82.2884C5.67496 82.5342 8.63582 84.1319 8.63582 84.1319C8.63582 84.1319 9.62277 84.7464 9.4994 85.4838C9.25266 86.467 8.01897 85.8525 6.78528 85.3609C5.5516 84.8693 5.42823 85.6067 5.42823 85.6067L5.30486 86.0983L3.08422 85.238Z" fill="#F8C499"/>
<path d="M8.01897 88.4335C7.64887 88.4335 7.40213 88.4335 7.40213 88.4335C7.27876 88.4335 7.15539 88.3106 7.15539 88.0648C7.15539 87.9419 7.27876 87.819 7.5255 87.819C7.77223 87.819 8.63582 87.9419 9.00592 87.6961C9.12929 87.5732 9.12929 87.5732 9.12929 87.4503C9.25266 86.9587 8.26571 86.4671 8.26571 86.4671C8.26571 86.4671 7.03202 85.8526 5.9217 85.4839C4.56464 85.1152 3.20759 84.6236 3.20759 84.6236C3.08422 84.6236 2.46737 84.5007 2.09727 84.7465C1.9739 84.8694 1.85053 84.9923 1.85053 85.1152C1.72716 86.0984 1.85053 86.59 1.85053 86.59C1.85053 86.7129 1.85053 86.8358 1.72716 86.9587C1.60379 86.9587 1.48042 86.9587 1.35705 86.8358C1.35705 86.8358 1.11031 86.2213 1.35705 85.1152C1.48042 84.7465 1.60379 84.5007 1.85053 84.3778C2.46737 84.0091 3.33095 84.132 3.33095 84.132C3.33095 84.132 4.81138 84.6236 6.16844 84.9923C7.27876 85.361 8.51245 85.9755 8.51245 85.9755C8.51245 85.9755 9.74614 86.4671 9.62277 87.4503C9.62277 87.6961 9.4994 87.9419 9.25266 88.0648C9.00592 88.4335 8.51245 88.4335 8.01897 88.4335Z" fill="#005796"/>
<path d="M7.1554 90.6456L2.71411 90.3998C2.59075 90.3998 2.46738 90.2769 2.46738 90.154C2.46738 89.9082 2.59075 89.7853 2.71411 89.7853L7.1554 90.0311C7.1554 90.0311 7.5255 90.0311 8.14235 89.9082C8.38908 89.9082 8.63582 89.7853 8.63582 89.5395C8.63582 89.5395 8.63582 89.4166 8.63582 89.1708C8.51245 88.6792 7.5255 88.4334 7.27876 88.3105L6.41518 88.0647C6.29181 88.0647 6.16844 87.8189 6.16844 87.696C6.16844 87.5731 6.41518 87.4502 6.53855 87.4502L7.40213 87.8189C7.5255 87.8189 8.88256 88.1876 9.1293 89.0479C9.25267 89.4166 9.1293 89.7853 9.1293 89.9082C9.00593 90.154 8.63582 90.3998 8.26572 90.5227C7.64887 90.6456 7.27876 90.6456 7.1554 90.6456Z" fill="#005796"/>
<path d="M2.09727 92.4892C1.9739 92.4892 1.9739 92.4892 1.85053 92.3663L0.370105 90.0312C0.370105 90.0312 -0.370108 88.9251 0.123368 87.819C0.246737 87.4503 0.616843 87.0816 0.740212 87.0816C0.740212 87.0816 1.11032 86.7129 1.85053 86.7129C1.85053 86.7129 2.46738 86.8358 3.45433 87.0816L4.44128 87.3274C4.56465 87.3274 4.68802 87.4503 4.68802 87.6961C4.68802 87.819 4.56465 87.9419 4.31791 87.9419L3.33096 87.6961C2.34401 87.4503 1.85053 87.4503 1.85053 87.4503C1.35706 87.4503 1.11032 87.6961 1.11032 87.6961C0.98695 87.819 0.740212 88.0648 0.616843 88.3106C0.246737 89.1709 0.863581 90.0312 0.863581 90.0312L2.34401 92.3663C2.46738 92.4892 2.34401 92.6121 2.22064 92.735C2.22064 92.4892 2.09727 92.4892 2.09727 92.4892Z" fill="#005796"/>
<path d="M8.26572 85.9754C7.64888 85.9754 7.1554 85.8525 7.1554 85.8525C7.03203 85.8525 6.90866 85.7296 6.90866 85.4838C6.90866 85.3609 7.03203 85.238 7.27877 85.238C7.27877 85.238 7.77225 85.3609 8.51246 85.3609C8.88257 85.3609 9.1293 85.238 9.25267 85.1151C9.25267 84.9922 9.25267 84.9922 9.25267 84.9922C9.1293 84.8693 8.14235 84.1319 7.03203 83.6403C6.04508 83.1487 4.44128 82.5342 3.82444 82.5342C2.96086 82.6571 2.96086 84.2548 2.96086 84.2548C2.96086 84.3777 2.83749 84.5006 2.71412 84.5006C2.59075 84.5006 2.46738 84.3777 2.46738 84.2548C2.46738 84.1319 2.34401 82.2884 3.70107 81.9197C4.56465 81.7968 6.90866 82.9029 7.1554 83.0258C7.89561 83.3945 9.49941 84.1319 9.62278 84.7464C9.62278 84.9922 9.62278 85.1151 9.49941 85.3609C9.25267 85.6067 8.88257 85.8525 8.38909 85.8525C8.38909 85.9754 8.38909 85.9754 8.26572 85.9754Z" fill="#005796"/>
<path d="M86.605 113.874C86.4816 113.874 86.2349 113.751 86.2349 113.628L81.5468 92.3661C81.5468 92.1203 81.6702 91.9974 81.7936 91.8745C82.0403 91.8745 82.1637 91.9974 82.2871 92.1203L86.9751 113.382C87.0985 113.628 86.8517 113.874 86.605 113.874C86.7283 113.874 86.605 113.874 86.605 113.874Z" fill="#005796"/>
<path d="M183.45 134.152L169.015 103.919L171.853 84.1318C174.567 84.9921 178.391 86.5899 181.352 90.2769C185.3 95.1929 190.112 110.433 190.112 110.433L195.17 128.13C195.17 128.13 198.13 136.979 193.072 138.577C187.767 140.175 183.45 134.152 183.45 134.152Z" fill="#A7DADE"/>
<path d="M120.531 135.75L134.966 105.517L132.128 85.7295C129.414 86.5898 125.59 88.1875 122.629 91.8745C118.681 96.7906 113.87 112.03 113.87 112.03L108.811 129.728C108.811 129.728 105.974 136.979 111.155 138.577C116.337 140.175 120.531 135.75 120.531 135.75Z" fill="#A7DADE"/>
<path d="M154.335 154.923L153.471 97.8966C153.471 97.8966 145.329 90.6454 138.05 82.7798C138.05 82.7798 127.563 86.3439 124.356 90.1538L130.524 109.695L130.154 155.906L154.335 154.923Z" fill="#A7DADE"/>
<path d="M176.664 157.995L175.431 109.081C175.431 109.081 175.307 104.165 175.554 98.8798C175.801 92.8577 176.541 86.2211 176.541 86.2211L167.535 82.2882L139.777 81.1821L128.304 87.2043C128.304 87.2043 128.921 90.031 129.414 94.3325C130.031 98.634 130.524 109.818 130.524 109.818L130.031 157.995H176.664Z" fill="#005796"/>
<path d="M146.562 78.6012L147.549 64.4676L159.639 63.7302L159.886 78.9699L164.451 81.1821C164.451 81.1821 163.34 92.8577 152.854 92.489C150.14 92.3661 138.79 82.2882 138.79 82.2882L146.562 78.6012Z" fill="#F6B37F"/>
<path d="M152.854 108.097L139.9 89.6624L140.764 89.0479L152.854 106.008L164.204 89.1708L165.191 89.7853L152.854 108.097Z" fill="white"/>
<path d="M159.886 78.2326L154.828 82.9028L152.854 90.5226L150.51 83.0257L146.562 77.741L137.803 81.9196L140.641 94.7013L143.478 91.26L142.738 90.1539L152.854 102.813L161.983 89.7852L164.574 92.1204L169.632 83.1486L159.886 78.2326Z" fill="#A7DADE"/>
<path d="M164.451 93.2264C164.327 93.2264 164.204 93.2264 164.081 93.1035L155.815 85.6065C155.568 85.3607 155.568 85.1149 155.815 84.8691C156.062 84.6233 156.308 84.6233 156.555 84.8691L164.204 91.9974L168.892 83.1485C169.015 82.9027 169.386 82.7798 169.632 82.9027C169.879 83.0256 170.002 83.3943 169.879 83.6401L164.944 93.1035C164.821 92.9806 164.697 93.1035 164.451 93.2264Z" fill="#005796"/>
<path d="M140.641 95.1929H140.517C140.27 95.1929 140.147 94.9471 140.147 94.8242L137.556 82.5342C137.433 82.2884 137.68 81.9197 137.926 81.9197C138.173 81.7968 138.543 82.0426 138.543 82.2884L140.887 93.4723L147.549 85.7296C147.673 85.6067 147.796 85.4838 147.919 85.4838C148.043 85.4838 148.289 85.6067 148.289 85.7296L153.964 92.612C154.211 92.8578 154.088 93.2265 153.841 93.3494C153.594 93.5952 153.224 93.4723 153.101 93.2265L147.796 86.8357L140.887 94.9471C140.887 95.1929 140.764 95.1929 140.641 95.1929Z" fill="#005796"/>
<path d="M153.224 94.7012C152.731 94.7012 152.361 95.1928 152.361 95.6844C152.361 96.176 152.854 96.6676 153.348 96.6676C153.841 96.6676 154.335 96.176 154.335 95.6844C154.088 95.0699 153.718 94.7012 153.224 94.7012Z" fill="white"/>
<path d="M176.664 155.414H130.278V156.643H176.664V155.414Z" fill="white"/>
<path d="M126.206 41.4851C120.778 41.4851 116.46 45.5408 116.584 50.4569C116.584 55.3729 121.025 59.3057 126.33 59.3057C131.758 59.3057 136.076 55.25 135.953 50.334C135.953 45.4179 131.511 41.4851 126.206 41.4851Z" fill="#F6B47F"/>
<path d="M176.911 35.5859C175.801 30.7927 170.743 27.8431 165.561 28.9492C160.256 30.0553 156.925 34.8485 157.912 39.7645C159.023 44.5576 164.081 47.5073 169.386 46.4011C174.567 45.1721 178.021 40.379 176.911 35.5859Z" fill="#F6B47F"/>
<path d="M164.698 13.218C158.652 2.40278 131.265 3.01728 120.902 15.4303C117.694 19.2402 118.804 34.9715 120.902 43.8203C122.999 52.6692 130.894 72.3333 144.465 75.6516C155.075 78.2325 165.068 73.6852 169.386 64.2219C174.69 53.0379 170.743 24.0333 164.698 13.218Z" fill="#F8C59A"/>
<path d="M146.439 0.927932C143.972 0.067627 141.257 1.29663 133.855 4.24625C128.304 6.45847 124.973 0.067627 124.973 0.067627C124.973 0.067627 119.421 4.24625 121.148 8.67068C122.135 11.4974 123.616 10.3913 123.616 10.3913C123.616 10.3913 117.324 15.9218 115.843 19.8547C114.363 23.9104 115.72 29.318 117.447 33.7424C119.051 38.1669 121.025 43.2058 121.025 43.2058L121.642 34.6027C123.616 30.9157 134.472 18.9943 134.472 18.9943C134.472 18.9943 134.102 20.715 134.102 21.944C134.102 24.7707 135.459 25.8768 135.459 25.8768C135.459 25.8768 136.446 24.402 137.31 22.3127C138.05 20.3463 139.9 18.2569 139.9 18.2569L139.037 24.0333C139.037 24.0333 141.011 22.9272 142.368 21.3295C143.725 19.8546 145.082 18.2569 145.082 18.2569L144.835 23.4188C144.835 23.4188 155.938 16.6592 156.679 11.8661C157.789 3.87755 146.439 0.927932 146.439 0.927932Z" fill="#005796"/>
<path d="M166.671 10.5142C163.834 4.86079 151.25 4.61499 151.25 4.61499C151.25 4.61499 153.964 13.5867 160.133 18.7486C163.217 21.2066 169.262 26.1226 169.262 26.1226C169.262 26.1226 169.509 16.1677 166.671 10.5142Z" fill="#005796"/>
<path d="M132.992 45.0493C132.498 45.0493 132.005 45.0493 131.511 45.1722C127.44 45.9096 124.356 49.4737 124.479 53.6524C124.479 53.7753 124.479 53.8982 124.479 54.0211C125.343 55.9875 126.33 58.1997 127.563 60.1661C129.044 61.3951 131.018 62.2554 133.238 62.1325C138.05 62.1325 141.874 58.1997 141.874 53.5295C141.628 48.8592 137.68 45.0493 132.992 45.0493Z" fill="url(#paint6_radial)"/>
<path d="M171.73 45.1722C170.249 42.4684 167.412 40.6248 164.081 40.7477C163.587 40.7477 163.094 40.7477 162.6 40.8706C158.529 41.608 155.445 45.1722 155.568 49.3508C155.568 54.1439 159.516 57.9538 164.327 57.9538C167.535 57.9538 170.372 56.1103 171.853 53.5294C171.853 50.8256 171.853 47.9989 171.73 45.1722Z" fill="url(#paint7_radial)"/>
<path d="M147.919 54.3897C147.549 54.3897 147.302 54.1439 147.302 53.7752C147.302 53.4065 147.549 53.1607 147.919 53.0378C147.919 53.0378 150.14 52.9149 151.867 52.1775C152.114 51.563 150.263 47.5073 147.796 43.4516C147.549 43.2058 147.673 42.7142 148.043 42.5913C148.289 42.3455 148.783 42.4684 148.906 42.8371C150.017 44.6806 153.718 50.5798 153.101 52.6691C152.977 53.1607 152.607 53.2836 152.484 53.4065C150.387 54.2668 148.043 54.3897 147.919 54.3897Z" fill="#005796"/>
<path d="M157.049 29.9326C153.471 29.9326 150.88 27.3516 150.88 27.2287C150.633 26.9829 150.633 26.6142 150.88 26.3684C151.127 26.1226 151.497 26.1226 151.744 26.3684C151.744 26.3684 153.964 28.8264 157.172 28.7035C160.133 28.5806 160.873 27.2287 160.996 27.1058C161.12 26.86 161.613 26.7371 161.86 26.86C162.23 26.9829 162.23 27.3516 162.107 27.7203C162.107 27.8432 160.996 29.8097 157.172 29.9326C157.172 29.9326 157.172 29.9326 157.049 29.9326Z" fill="#005796"/>
<path d="M129.414 33.7426C128.55 33.7426 128.057 33.6197 127.934 33.6197C127.563 33.4968 127.44 33.1281 127.44 32.8823C127.563 32.5136 127.934 32.3907 128.18 32.3907C128.18 32.3907 129.784 32.7594 132.868 32.022C136.569 31.0387 138.173 28.3349 138.297 28.3349C138.42 27.9662 138.913 27.9662 139.16 28.0891C139.53 28.212 139.53 28.7036 139.407 28.9494C139.283 29.0723 137.556 32.1449 133.238 33.251C131.635 33.6197 130.278 33.7426 129.414 33.7426Z" fill="#005796"/>
<path d="M140.27 41.4851C139.777 38.2897 137.68 35.9546 135.459 36.2004C133.238 36.5691 131.758 39.3958 132.251 42.5912C132.745 45.7866 134.842 48.1217 137.186 47.8759C139.407 47.5072 140.764 44.6805 140.27 41.4851Z" fill="white"/>
<path d="M139.407 40.379C139.037 37.921 137.31 36.0775 135.582 36.3233C133.855 36.5691 132.745 38.7813 133.115 41.2393C133.485 43.6973 135.212 45.5408 136.939 45.295C138.667 45.0492 139.777 42.837 139.407 40.379Z" fill="#005796"/>
<path d="M161.243 38.1667C160.75 34.9713 158.529 32.6362 156.308 32.882C154.088 33.2507 152.607 36.0774 153.101 39.2728C153.594 42.4683 155.815 44.8034 158.036 44.5576C160.38 44.3118 161.737 41.4851 161.243 38.1667Z" fill="white"/>
<path d="M160.38 37.0606C160.009 34.6026 158.282 32.7591 156.555 33.0049C154.828 33.2507 153.718 35.4629 154.088 37.9209C154.458 40.379 156.185 42.2225 157.912 41.9767C159.639 41.7309 160.75 39.5187 160.38 37.0606Z" fill="#005796"/>
<path d="M167.412 20.7149C167.042 20.7149 166.795 20.4691 166.671 20.1004C166.671 20.1004 165.931 14.8157 164.451 12.4806C163.094 10.2684 159.886 10.1455 159.763 10.1455C159.393 10.1455 159.023 9.77676 159.023 9.40806C159.023 9.03936 159.393 8.67065 159.763 8.67065C159.886 8.67065 163.834 8.91646 165.561 11.7432C167.165 14.3241 168.028 19.7317 168.028 19.9775C168.152 20.3462 167.905 20.7149 167.412 20.7149Z" fill="white"/>
<path d="M120.655 26.7371C120.408 26.7371 120.161 26.6142 120.038 26.3684C119.791 25.9997 119.915 25.631 120.285 25.3852C120.285 25.3852 123.739 23.2959 127.563 19.486C131.388 15.5531 135.953 10.0226 135.953 9.89971C136.199 9.6539 136.693 9.531 136.939 9.77681C137.186 10.0226 137.31 10.5142 137.063 10.76C137.063 10.76 132.375 16.4134 128.55 20.3463C124.726 24.402 121.148 26.4913 121.025 26.4913C120.902 26.7371 120.778 26.7371 120.655 26.7371Z" fill="white"/>
<path d="M148.289 19.2402C148.043 19.2402 147.796 19.1173 147.673 18.8715C147.426 18.5028 147.549 18.1341 147.919 17.8882C147.919 17.8882 148.906 17.1508 150.757 14.2012C152.607 11.1287 153.471 8.79359 153.471 8.79359C153.594 8.42489 153.964 8.17909 154.335 8.30199C154.705 8.42489 154.951 8.79359 154.828 9.1623C154.828 9.2852 153.964 11.6203 151.991 14.8157C150.017 18.0111 148.906 18.8715 148.783 18.8715C148.536 19.1173 148.413 19.2402 148.289 19.2402Z" fill="white"/>
<path d="M136.94 17.2738C136.693 17.2738 136.446 17.1509 136.323 16.9051C136.199 16.5364 136.323 16.1677 136.693 15.9219C136.693 15.9219 140.27 14.0783 143.108 11.2516C145.822 8.42491 146.932 5.84399 146.932 5.84399C147.056 5.47529 147.549 5.35239 147.919 5.47529C148.289 5.59819 148.413 6.08979 148.289 6.45849C148.289 6.58139 147.179 9.28521 144.218 12.2348C141.257 15.1844 137.68 17.1509 137.433 17.1509C137.186 17.2738 137.063 17.2738 136.94 17.2738Z" fill="white"/>
<path d="M179.378 114.98C179.378 114.98 180.119 114.734 179.995 113.874C179.872 113.013 178.391 111.907 174.69 110.924C171.976 110.187 169.386 109.204 166.795 110.924C160.873 114.734 153.224 119.896 153.224 119.896L143.108 121.739L143.972 129.482L153.101 126.778C153.101 126.778 154.581 127.762 158.282 127.516C160.873 127.27 166.548 120.879 166.548 120.879C167.288 120.265 169.756 121.248 171.483 121.739C174.074 122.477 175.184 122.723 175.184 122.723C176.171 122.846 177.404 123.337 178.021 121.985C178.268 121.494 177.651 120.633 177.651 120.633C177.651 120.633 179.132 121.125 179.378 119.773C179.625 118.913 178.638 118.052 178.638 118.052C178.638 118.052 179.995 118.298 180.365 117.069C180.982 115.594 179.378 114.98 179.378 114.98Z" fill="#F8C59A"/>
<path d="M144.095 129.605C143.848 129.605 143.601 129.482 143.601 129.236C143.478 128.991 143.725 128.622 143.972 128.499L152.977 126.041C153.101 126.041 153.348 126.041 153.471 126.041C153.594 126.164 156.308 127.639 161.12 125.058C163.34 123.952 166.055 120.265 166.178 120.265C166.178 120.265 166.178 120.142 166.301 120.142C167.165 119.404 168.769 119.896 170.496 120.51C170.989 120.633 171.359 120.756 171.73 120.879C174.074 121.494 175.184 121.862 175.431 121.862C175.554 121.862 175.801 121.862 175.924 121.985C176.911 122.108 177.405 122.231 177.651 121.494C177.775 121.248 178.145 121.125 178.391 121.248C178.638 121.371 178.762 121.739 178.638 121.985C177.898 123.583 176.541 123.337 175.677 123.214C175.554 123.214 175.307 123.214 175.184 123.091H175.06C175.06 123.091 173.827 122.723 171.359 122.108C170.989 121.985 170.496 121.862 170.002 121.739C169.015 121.494 167.412 120.879 166.918 121.125C166.548 121.616 163.834 125.058 161.613 126.164C156.925 128.622 153.841 127.639 153.101 127.27L144.218 129.728C144.218 129.605 144.218 129.605 144.095 129.605Z" fill="#46382A"/>
<path d="M177.034 120.756C176.911 120.756 176.911 120.756 176.788 120.633C176.788 120.633 175.924 120.264 173.333 119.404C171.606 118.913 169.879 118.544 169.879 118.544C169.509 118.544 169.386 118.175 169.386 117.929C169.386 117.561 169.756 117.438 170.002 117.438C170.126 117.438 171.853 117.806 173.58 118.298C176.294 119.158 177.158 119.65 177.158 119.65C177.405 119.773 177.528 120.142 177.405 120.387C177.528 120.633 177.281 120.756 177.034 120.756Z" fill="#005796"/>
<path d="M177.775 118.175C177.651 118.175 177.651 118.175 177.528 118.175C177.528 118.175 175.924 117.561 174.444 117.069C172.963 116.578 170.989 116.209 170.989 116.209C170.743 116.086 170.496 115.84 170.496 115.594C170.619 115.349 170.866 115.103 171.113 115.103C171.236 115.103 173.21 115.471 174.69 115.963C176.171 116.455 177.898 117.069 177.898 117.069C178.145 117.192 178.391 117.561 178.268 117.807C178.145 118.052 177.898 118.175 177.775 118.175Z" fill="#005796"/>
<path d="M178.268 115.594C178.145 115.594 178.145 115.594 178.021 115.594C178.021 115.594 175.554 114.611 174.074 114.242C172.716 113.874 171.236 113.874 171.236 113.874C170.866 113.874 170.619 113.628 170.619 113.259C170.619 112.891 170.866 112.645 171.236 112.645C171.359 112.645 172.716 112.645 174.32 113.013C175.801 113.382 178.268 114.365 178.391 114.365C178.638 114.488 178.885 114.857 178.762 115.103C178.638 115.471 178.391 115.594 178.268 115.594Z" fill="#005796"/>
<path d="M115.967 138.577C112.883 139.314 108.565 137.717 108.071 134.03C107.084 127.147 124.232 122.846 124.232 122.846L149.646 118.175L152.237 127.884C152.237 127.884 144.218 131.571 125.219 136.365L115.967 138.577Z" fill="#A7DADE"/>
<path d="M152.237 128.499C151.99 128.499 151.744 128.376 151.62 128.007L149.4 119.158L126.947 122.968C126.577 122.968 126.33 122.845 126.206 122.477C126.206 122.108 126.33 121.862 126.7 121.739L149.77 117.929C150.14 117.929 150.387 118.052 150.51 118.421L152.854 127.762C152.977 128.13 152.731 128.376 152.361 128.499H152.237Z" fill="#005796"/>
<path d="M153.101 119.404C153.101 119.404 145.575 113.997 139.777 109.941C137.186 108.22 134.595 109.081 131.881 109.818C128.18 110.678 126.7 111.662 126.577 112.645C126.453 113.505 127.193 113.751 127.193 113.751C127.193 113.751 125.466 114.365 125.836 115.717C126.083 116.823 127.563 116.7 127.563 116.7C127.563 116.7 126.577 117.438 126.7 118.298C127.07 119.65 128.427 119.281 128.427 119.281C128.427 119.281 127.81 120.019 127.934 120.633C128.55 122.108 129.907 121.616 130.771 121.494C130.771 121.494 132.005 121.125 134.595 120.51C136.446 120.142 138.79 119.158 139.53 119.896C139.53 119.896 144.958 126.41 147.549 126.778C151.25 127.147 152.731 126.287 152.731 126.287L161.86 129.359L162.97 121.616L153.101 119.404Z" fill="#F8C59A"/>
<path d="M161.86 129.482H161.737L152.977 126.778C152.114 127.147 149.03 128.007 144.465 125.426C142.244 124.197 139.654 120.756 139.284 120.265C138.913 120.019 137.186 120.51 136.199 120.756C135.706 120.879 135.336 121.002 134.842 121.125C132.251 121.739 131.141 121.985 131.141 122.108H131.018C130.894 122.108 130.648 122.108 130.524 122.108C129.661 122.231 128.18 122.477 127.563 120.879C127.44 120.633 127.563 120.265 127.934 120.142C128.18 120.019 128.55 120.142 128.674 120.51C128.921 121.248 129.414 121.248 130.401 121.125C130.524 121.125 130.771 121.125 130.894 121.002C131.141 120.879 132.375 120.633 134.595 120.142C134.966 120.019 135.459 119.896 135.829 119.773C137.556 119.281 139.16 118.913 140.024 119.527C140.024 119.527 140.024 119.527 140.147 119.65C140.147 119.65 142.861 123.337 144.958 124.566C149.77 127.27 152.484 125.795 152.607 125.795C152.731 125.672 152.854 125.672 153.101 125.795L162.107 128.499C162.353 128.622 162.6 128.868 162.477 129.236C162.353 129.359 162.107 129.482 161.86 129.482Z" fill="#005796"/>
<path d="M129.167 119.65C128.921 119.65 128.797 119.527 128.674 119.281C128.55 119.036 128.674 118.667 128.921 118.544C128.921 118.544 129.784 118.175 132.498 117.315C134.225 116.823 136.076 116.578 136.076 116.578C136.446 116.578 136.693 116.701 136.693 117.069C136.693 117.438 136.569 117.684 136.199 117.684C136.199 117.684 134.472 117.93 132.745 118.421C130.154 119.159 129.291 119.527 129.291 119.527C129.291 119.65 129.291 119.65 129.167 119.65Z" fill="#005796"/>
<path d="M128.674 117.069C128.427 117.069 128.18 116.946 128.18 116.701C128.057 116.455 128.18 116.086 128.55 115.963C128.674 115.963 130.278 115.349 131.758 114.857C133.362 114.365 135.212 114.12 135.336 114.12C135.706 114.12 135.953 114.243 135.953 114.611C135.953 114.98 135.829 115.226 135.459 115.226C135.459 115.226 133.485 115.594 132.005 115.963C130.524 116.332 128.921 116.946 128.797 116.946C128.797 117.069 128.674 117.069 128.674 117.069Z" fill="#005796"/>
<path d="M128.18 114.488C127.934 114.488 127.687 114.365 127.687 114.12C127.563 113.874 127.687 113.505 128.057 113.382C128.18 113.382 130.648 112.399 132.128 112.153C133.732 111.784 135.089 111.907 135.212 111.907C135.582 111.907 135.829 112.153 135.829 112.522C135.829 112.891 135.582 113.136 135.212 113.136C135.212 113.136 135.212 113.136 135.089 113.136C134.842 113.136 133.609 113.136 132.375 113.382C130.894 113.751 128.427 114.611 128.427 114.611C128.304 114.488 128.304 114.488 128.18 114.488Z" fill="#005796"/>
<path d="M189.371 138.7C195.91 139.929 194.059 135.873 194.676 132.186C195.786 125.303 181.846 123.214 181.846 123.214L156.679 117.929L153.841 127.516C153.841 127.516 160.009 129.359 176.047 135.013L189.371 138.7Z" fill="#A7DADE"/>
<path d="M153.841 128.13H153.718C153.348 128.007 153.224 127.761 153.348 127.393L156.062 118.052C156.185 117.806 156.432 117.561 156.802 117.684L179.749 122.231C180.119 122.354 180.242 122.6 180.242 122.968C180.242 123.337 179.872 123.46 179.502 123.46L157.172 119.035L154.705 127.761C154.335 127.884 154.088 128.13 153.841 128.13Z" fill="#005796"/>
<path d="M147.549 65.0821C147.426 65.0821 147.302 65.0821 147.179 64.9592C146.809 64.8362 146.809 64.3446 146.932 64.0988C147.179 63.6072 149.523 59.5515 152.114 59.4286C154.458 59.3057 156.432 60.9034 156.432 61.0263C156.679 61.2721 156.802 61.6408 156.555 61.8866C156.308 62.1324 155.938 62.2553 155.692 62.0095C155.692 62.0095 153.964 60.6576 152.114 60.6576C150.757 60.6576 148.906 63.1156 148.043 64.5904C148.043 64.9592 147.796 65.0821 147.549 65.0821Z" fill="#005796"/>
</g>
<defs>
<radialGradient id="paint0_radial" cx="0" cy="0" r="1" gradientUnits="userSpaceOnUse" gradientTransform="translate(251.7 52.1692) rotate(-177.316) scale(7.21347 7.18623)">
<stop stop-color="#F29D88"/>
<stop offset="1" stop-color="#F8C499"/>
</radialGradient>
<radialGradient id="paint1_radial" cx="0" cy="0" r="1" gradientUnits="userSpaceOnUse" gradientTransform="translate(295.188 47.4568) rotate(-177.316) scale(7.21732 7.19004)">
<stop stop-color="#F29D88"/>
<stop offset="1" stop-color="#F8C499"/>
</radialGradient>
<radialGradient id="paint2_radial" cx="0" cy="0" r="1" gradientUnits="userSpaceOnUse" gradientTransform="translate(363.593 72.5341) rotate(176.665) scale(8.72471 8.69184)">
<stop stop-color="#F29D88"/>
<stop offset="1" stop-color="#F8C499"/>
</radialGradient>
<radialGradient id="paint3_radial" cx="0" cy="0" r="1" gradientUnits="userSpaceOnUse" gradientTransform="translate(331.717 69.2793) rotate(176.665) scale(8.72731 8.69442)">
<stop stop-color="#F29D88"/>
<stop offset="1" stop-color="#F8C499"/>
</radialGradient>
<radialGradient id="paint4_radial" cx="0" cy="0" r="1" gradientUnits="userSpaceOnUse" gradientTransform="translate(40.7047 61.4734) scale(7.29382 7.26614)">
<stop stop-color="#F29D88"/>
<stop offset="1" stop-color="#F8C499"/>
</radialGradient>
<radialGradient id="paint5_radial" cx="0" cy="0" r="1" gradientUnits="userSpaceOnUse" gradientTransform="translate(84.4002 68.2213) scale(7.2948 7.26712)">
<stop stop-color="#F29D88"/>
<stop offset="1" stop-color="#F8C499"/>
</radialGradient>
<radialGradient id="paint6_radial" cx="0" cy="0" r="1" gradientUnits="userSpaceOnUse" gradientTransform="translate(133.003 53.665) scale(8.64162 8.60883)">
<stop stop-color="#F29D88"/>
<stop offset="1" stop-color="#F8C59A"/>
</radialGradient>
<radialGradient id="paint7_radial" cx="0" cy="0" r="1" gradientUnits="userSpaceOnUse" gradientTransform="translate(163.648 49.2784) scale(8.40735 8.37544)">
<stop stop-color="#F29D88"/>
<stop offset="1" stop-color="#F8C59A"/>
</radialGradient>
<clipPath id="clip0">
<rect width="416" height="161" fill="white" transform="translate(0 0.067627)"/>
</clipPath>
</defs>
</svg>
