<svg width="254" height="281" viewBox="0 0 254 281" fill="none" xmlns="http://www.w3.org/2000/svg">
<g clip-path="url(#clip0)">
<path d="M5.62361 74.461V223.784C5.62361 226.458 14.1929 230.067 27.9842 230.067C41.7754 230.067 50.3447 226.324 50.3447 223.784V74.461H5.62361Z" fill="white"/>
<path d="M27.9842 135.554C38.5588 135.554 47.1313 132.86 47.1313 129.538C47.1313 126.216 38.5588 123.522 27.9842 123.522C17.4095 123.522 8.83711 126.216 8.83711 129.538C8.83711 132.86 17.4095 135.554 27.9842 135.554Z" fill="#D6E8F4"/>
<path d="M8.83711 133.014C8.83711 136.356 19.8166 138.094 27.9842 138.094C38.5619 138.094 47.1313 136.356 47.1313 133.014V220.442C47.1313 220.442 42.5788 224.185 26.7791 224.185C10.9794 224.185 8.70322 220.442 8.70322 220.442V133.014H8.83711Z" fill="#D6E8F4"/>
<path d="M29.5909 237.019H23.8334L25.1724 271.108C25.1724 271.108 25.4402 272.444 26.2435 272.444C27.0469 272.444 27.1808 271.241 27.1808 271.241L29.5909 237.019Z" fill="#B7B8B8"/>
<path d="M19.4149 236.35C19.4149 237.687 22.7623 238.756 26.7791 238.756C30.796 238.756 34.1434 237.687 34.1434 236.35V231.27H19.4149V236.35Z" fill="white"/>
<path d="M26.7791 239.826C22.4945 239.826 18.2098 238.756 18.2098 236.35V231.27C18.2098 230.602 18.7454 230.067 19.4149 230.067H34.1434C34.8129 230.067 35.3484 230.602 35.3484 231.27V236.35C35.2146 238.756 31.0638 239.826 26.7791 239.826ZM20.6199 236.217C21.0216 236.618 23.1639 237.553 26.7791 237.553C30.3943 237.553 32.5366 236.618 32.9383 236.217V232.34H20.6199V236.217Z" fill="#A4CCF1"/>
<path d="M27.9842 232.34C16.0675 232.34 3.3474 229.265 3.3474 223.65V73.2579C3.3474 72.5895 3.88298 72.0547 4.55246 72.0547H51.5498C52.2193 72.0547 52.7549 72.5895 52.7549 73.2579V223.784C52.621 229.399 39.9009 232.34 27.9842 232.34ZM5.62362 74.461V223.784C5.62362 226.458 14.1929 230.067 27.9842 230.067C41.7754 230.067 50.3448 226.324 50.3448 223.784V74.461H5.62362Z" fill="#A4CCF1"/>
<path d="M51.4159 170.311V191.433C51.4159 194.775 40.8382 197.449 27.8503 197.449C14.8624 197.449 4.28465 194.775 4.28465 191.433V170.311C4.28465 170.311 12.9879 173.787 27.9842 173.787C43.2483 173.653 51.4159 170.311 51.4159 170.311Z" fill="#A4CCF1"/>
<path d="M1.20506 74.3274C1.20506 79.0063 13.2557 82.883 28.252 82.883C43.2483 82.883 55.2989 79.0063 55.2989 74.3274V65.7717H1.20506V74.3274Z" fill="white"/>
<path d="M28.1181 84.0862C14.4607 84.0862 0 80.6104 0 74.3273V65.7717C0 65.1033 0.535582 64.5685 1.20506 64.5685H55.165C55.8345 64.5685 56.3701 65.1033 56.3701 65.7717V74.3273C56.3701 80.6104 41.7754 84.0862 28.1181 84.0862ZM2.27623 66.8411V74.3273C2.27623 75.9315 4.95414 77.9368 9.37269 79.2736C14.3268 80.8778 21.0216 81.6799 28.1181 81.6799C35.2146 81.6799 41.9093 80.7441 46.8635 79.2736C51.282 77.9368 53.9599 75.9315 53.9599 74.3273V66.8411H2.27623Z" fill="#A4CCF1"/>
<path d="M28.1181 74.1936C43.0557 74.1936 55.165 70.3631 55.165 65.6379C55.165 60.9128 43.0557 57.0823 28.1181 57.0823C13.1805 57.0823 1.07117 60.9128 1.07117 65.6379C1.07117 70.3631 13.1805 74.1936 28.1181 74.1936Z" fill="white"/>
<path d="M28.1181 75.3968C14.4607 75.3968 0 71.921 0 65.638C0 59.3549 14.4607 55.8792 28.1181 55.8792C41.7754 55.8792 56.2362 59.3549 56.2362 65.638C56.3701 72.0547 41.7754 75.3968 28.1181 75.3968ZM28.1181 58.2854C21.0216 58.2854 14.3268 59.2212 9.37269 60.6917C4.95414 62.0285 2.27623 64.0338 2.27623 65.638C2.27623 67.2421 4.95414 69.2474 9.37269 70.5842C14.3268 72.1884 21.0216 72.9905 28.1181 72.9905C35.2146 72.9905 41.9093 72.0547 46.8635 70.5842C51.282 69.2474 53.9599 67.2421 53.9599 65.638C53.9599 64.0338 51.282 62.0285 46.8635 60.6917C41.9093 59.0875 35.2146 58.2854 28.1181 58.2854Z" fill="#A4CCF1"/>
<path d="M16.4692 63.3654C16.4692 65.3706 21.5572 66.9748 27.8503 66.9748C34.1434 66.9748 39.2314 65.3706 39.2314 63.3654V43.8478H16.4692V63.3654Z" fill="#A4CCF1"/>
<path d="M12.7201 44.9172C12.7201 47.5908 19.5488 49.7298 27.8503 49.7298C36.1518 49.7298 42.9805 47.5908 42.9805 44.9172V36.0942H12.7201V44.9172Z" fill="white"/>
<path d="M27.9842 50.9329C19.8166 50.9329 11.6489 48.9277 11.6489 44.9172V36.0942C11.6489 35.4258 12.1845 34.8911 12.854 34.8911H43.1144C43.7839 34.8911 44.3195 35.4258 44.3195 36.0942V45.0509C44.3195 48.9277 36.0179 50.9329 27.9842 50.9329ZM13.9252 37.1636V44.9172C13.9252 46.1204 18.8793 48.5266 27.8503 48.5266C36.9552 48.5266 41.7754 46.1204 41.7754 44.9172V37.1636H13.9252Z" fill="#A4CCF1"/>
<path d="M43.1144 36.0942C43.1144 38.7678 36.2857 40.9067 27.9842 40.9067C19.6827 40.9067 12.7201 38.7678 12.7201 36.0942C12.7201 33.4205 19.5488 31.2816 27.8503 31.2816C36.1518 31.2816 43.1144 33.4205 43.1144 36.0942Z" fill="white"/>
<path d="M27.9842 41.9762C19.8166 41.9762 11.6489 39.971 11.6489 35.9605C11.6489 31.9501 19.8166 29.9448 27.9842 29.9448C36.1518 29.9448 44.3195 32.0837 44.3195 36.0942C44.3195 40.1047 36.0179 41.9762 27.9842 41.9762ZM27.9842 32.3511C18.8793 32.3511 14.059 34.7574 14.059 35.9605C14.059 37.1637 19.0132 39.5699 27.9842 39.5699C37.0891 39.5699 41.9093 37.1637 41.9093 35.9605C41.9093 34.7574 36.9552 32.3511 27.9842 32.3511Z" fill="#A4CCF1"/>
<path d="M12.3184 91.8397C12.1845 91.8397 12.0506 91.8397 11.9167 91.8397L4.95415 89.4334C4.28467 89.1661 4.01688 88.4977 4.28467 87.9629C4.55246 87.2945 5.22194 87.0272 5.75752 87.2945L12.7201 89.5671C13.3896 89.8345 13.6574 90.5029 13.3896 91.0376C13.2557 91.5724 12.854 91.8397 12.3184 91.8397Z" fill="#A4CCF1"/>
<path d="M12.3184 106.01C12.1845 106.01 12.0506 106.01 11.9167 106.01L4.95415 103.604C4.28467 103.336 4.01688 102.668 4.28467 102.133C4.55246 101.465 5.22194 101.197 5.75752 101.465L12.7201 103.871C13.3896 104.138 13.6574 104.807 13.3896 105.342C13.2557 105.743 12.854 106.01 12.3184 106.01Z" fill="#A4CCF1"/>
<path d="M12.3184 119.646C12.1845 119.646 12.0506 119.646 11.9167 119.646L4.95414 117.239C4.28466 116.972 4.01687 116.304 4.15077 115.635C4.41856 114.967 5.08804 114.699 5.62362 114.967L12.5862 117.373C13.2557 117.64 13.5235 118.309 13.2557 118.843C13.2557 119.378 12.854 119.646 12.3184 119.646Z" fill="#A4CCF1"/>
<path d="M12.3184 133.816C12.1845 133.816 12.0506 133.816 11.9167 133.816L4.95415 131.41C4.28467 131.142 4.01688 130.474 4.28467 129.939C4.55246 129.271 5.22194 129.003 5.75752 129.271L12.7201 131.677C13.3896 131.944 13.6574 132.613 13.3896 133.147C13.2557 133.549 12.854 133.816 12.3184 133.816Z" fill="#A4CCF1"/>
<path d="M12.3184 151.596C12.1845 151.596 12.0506 151.596 11.9167 151.596L4.95415 149.189C4.28467 148.922 4.01688 148.254 4.28467 147.719C4.55246 147.05 5.22194 146.783 5.75752 147.05L12.7201 149.457C13.3896 149.724 13.6574 150.393 13.3896 150.927C13.2557 151.195 12.854 151.596 12.3184 151.596Z" fill="#A4CCF1"/>
<path d="M12.3184 165.766C12.1845 165.766 12.0506 165.766 11.9167 165.766L4.95415 163.36C4.28467 163.092 4.01688 162.424 4.28467 161.889C4.55246 161.221 5.22194 160.953 5.75752 161.221L12.7201 163.627C13.3896 163.894 13.6574 164.563 13.3896 165.098C13.2557 165.365 12.854 165.766 12.3184 165.766Z" fill="#A4CCF1"/>
<path d="M12.3184 221.244C12.1845 221.244 12.0506 221.244 11.9167 221.244L4.95415 218.838C4.28467 218.57 4.01688 217.902 4.28467 217.367C4.55246 216.699 5.22194 216.432 5.75752 216.699L12.7201 219.105C13.3896 219.373 13.6574 220.041 13.3896 220.576C13.2557 220.977 12.854 221.244 12.3184 221.244Z" fill="#A4CCF1"/>
<path d="M12.3184 221.244C12.1845 221.244 12.0506 221.244 11.9167 221.244L4.95415 218.838C4.28467 218.57 4.01688 217.902 4.28467 217.367C4.55246 216.699 5.22194 216.432 5.75752 216.699L12.7201 219.105C13.3896 219.373 13.6574 220.041 13.3896 220.576C13.2557 220.977 12.854 221.244 12.3184 221.244Z" fill="#A4CCF1"/>
<path d="M12.3184 210.282C12.1845 210.282 12.0506 210.282 11.9167 210.282L4.95415 207.876C4.28467 207.609 4.01688 206.94 4.28467 206.405C4.55246 205.737 5.22194 205.47 5.75752 205.737L12.7201 208.143C13.3896 208.411 13.6574 209.079 13.3896 209.614C13.2557 210.015 12.854 210.282 12.3184 210.282Z" fill="#A4CCF1"/>
<path d="M12.3184 210.282C12.1845 210.282 12.0506 210.282 11.9167 210.282L4.95415 207.876C4.28467 207.609 4.01688 206.94 4.28467 206.405C4.55246 205.737 5.22194 205.47 5.75752 205.737L12.7201 208.143C13.3896 208.411 13.6574 209.079 13.3896 209.614C13.2557 210.015 12.854 210.282 12.3184 210.282Z" fill="#A4CCF1"/>
<path d="M35.884 93.1765C35.7501 91.0376 34.4112 89.2997 32.6705 89.4334C31.0638 89.5671 29.8587 91.3049 29.9926 93.5775C30.1265 95.7164 31.5994 97.4543 33.2061 97.3206C34.8129 97.187 36.0179 95.4491 35.884 93.1765Z" fill="#005796"/>
<path d="M47.8007 93.1765C47.6668 91.0376 46.3279 89.2997 44.5872 89.4334C42.9805 89.5671 41.7754 91.3049 41.9093 93.5775C42.0432 95.7164 43.5161 97.4543 45.1228 97.3206C46.7296 97.187 47.9346 95.4491 47.8007 93.1765Z" fill="#005796"/>
<path d="M38.428 108.015C33.2061 108.015 30.796 104.272 30.6621 104.138C30.3943 103.737 30.5282 103.336 30.9299 103.069C31.3316 102.802 31.7333 102.935 32.0011 103.336C32.135 103.47 34.5451 107.347 40.3026 106.411C43.5161 105.876 45.5245 103.203 45.5245 103.203C45.7923 102.935 46.194 102.802 46.5957 103.069C46.8635 103.336 46.9974 103.737 46.7296 104.138C46.5957 104.272 44.3195 107.213 40.5704 107.882C39.767 108.015 39.0975 108.015 38.428 108.015Z" fill="#005796"/>
<path d="M27.9842 148.254C30.6621 149.189 67.3495 154.804 67.3495 154.804C67.3495 154.804 74.0443 163.36 77.9272 159.483C80.3374 157.077 71.0986 151.729 71.0986 151.729C71.0986 151.729 73.7765 150.66 73.6426 149.056C73.6426 147.452 64.9394 150.794 64.9394 150.794C64.9394 150.794 35.7501 144.644 29.3231 143.575C29.3231 143.575 25.8418 143.174 25.4402 145.313C25.1724 147.986 27.9842 148.254 27.9842 148.254Z" fill="white"/>
<path d="M75.5171 160.953C71.902 160.953 67.8851 156.141 67.0817 155.205C64.0021 154.67 30.796 149.59 27.8503 148.655C27.5825 148.655 26.2435 148.387 25.5741 147.452C25.1724 146.917 25.0385 146.248 25.1724 145.446C25.4402 144.109 26.7791 143.307 28.7876 143.307C29.1892 143.307 29.5909 143.307 29.5909 143.307C35.7501 144.377 62.9309 150.125 65.0733 150.526C66.0105 150.259 70.8308 148.387 72.9731 148.387C74.0443 148.387 74.3121 148.922 74.3121 149.189C74.3121 150.526 73.107 151.328 72.1697 151.863C74.0443 152.932 78.4628 156.007 78.8645 158.28C78.9984 158.815 78.7306 159.349 78.3289 159.884C77.3917 160.552 76.5883 160.953 75.5171 160.953ZM28.6537 144.109C27.7164 144.109 26.1096 144.243 25.9757 145.58C25.8419 146.115 25.9757 146.516 26.2435 146.917C26.7791 147.719 27.9842 147.853 27.9842 147.853C27.9842 147.853 27.9842 147.853 28.1181 147.853C30.796 148.788 67.0817 154.403 67.4834 154.403C67.6173 154.403 67.7512 154.537 67.7512 154.537C67.7512 154.537 72.1697 160.018 75.5171 160.018C76.3205 160.018 76.99 159.75 77.5256 159.082C77.7934 158.814 77.7934 158.547 77.7934 158.28C77.5256 156.275 72.7053 153.066 70.8308 152.13C70.6969 151.997 70.563 151.863 70.563 151.729C70.563 151.596 70.6969 151.462 70.8308 151.328C71.5003 151.061 73.107 150.125 73.107 149.189C73.107 149.189 72.9731 149.189 72.7053 149.189C70.6969 149.189 65.0733 151.328 65.0733 151.328C64.9394 151.328 64.9394 151.328 64.8055 151.328C64.5377 151.328 35.6162 145.179 29.3231 144.109C29.3231 144.109 29.0553 144.109 28.6537 144.109Z" fill="#005796"/>
<path d="M117.426 202.395C117.426 202.395 117.426 243.569 116.757 247.98C116.088 252.526 110.062 257.606 104.572 260.948C99.0828 264.29 95.8693 266.295 95.8693 266.295C95.8693 266.295 104.974 265.225 108.455 266.83C111.937 268.434 113.811 269.637 113.811 269.637C113.811 269.637 117.962 265.092 120.774 263.488C123.586 261.75 126.531 260.68 126.531 260.68C126.531 260.68 126.531 256.536 126.264 252.258C126.13 247.98 129.477 218.971 129.611 212.688C129.745 201.726 129.611 198.518 129.611 198.518L117.426 202.395Z" fill="#F6B37F"/>
<path d="M95.7354 266.429C95.7354 266.429 99.8861 263.889 108.322 266.963C111.937 268.3 113.677 269.771 113.677 269.771C113.677 269.771 117.828 265.225 120.64 263.621C123.452 261.883 126.397 260.814 126.397 260.814C126.397 260.814 126.665 263.087 126.397 265.493C126.13 267.899 125.728 270.038 125.728 270.038C125.728 270.038 124.523 270.573 123.318 270.84C122.113 271.107 122.113 271.107 122.113 271.107C122.113 271.107 118.632 269.904 117.962 270.038C117.293 270.305 116.489 271.642 111.401 273.781C106.313 275.92 101.359 275.385 97.8777 275.519C94.7981 275.519 90.6473 274.984 88.6389 274.316C86.7644 273.38 93.0575 267.364 95.7354 266.429Z" fill="#22AC38"/>
<path d="M124.255 205.202C124.255 205.202 124.255 246.376 123.586 250.788C122.916 255.333 116.891 260.413 111.401 263.755C105.911 267.097 102.698 269.102 102.698 269.102C102.698 269.102 111.803 268.033 115.284 269.637C118.765 271.241 120.64 272.444 120.64 272.444C120.64 272.444 124.791 267.899 127.603 266.295C130.414 264.557 133.36 263.488 133.36 263.488C133.36 263.488 133.36 259.344 133.092 255.066C132.958 250.788 136.306 221.779 136.44 215.496C136.574 204.534 136.44 201.325 136.44 201.325L124.255 205.202Z" fill="#F8C499"/>
<path d="M102.564 269.236C102.564 269.236 106.715 266.696 115.15 269.771C118.765 271.108 120.506 272.578 120.506 272.578C120.506 272.578 124.657 268.033 127.469 266.429C130.28 264.691 133.226 263.621 133.226 263.621C133.226 263.621 133.494 265.894 133.226 268.3C132.958 270.706 132.557 272.845 132.557 272.845C132.557 272.845 131.352 273.38 130.147 273.648C128.941 273.915 128.941 273.915 128.941 273.915C128.941 273.915 125.46 272.712 124.791 272.845C124.121 273.113 123.318 274.45 118.23 276.589C113.142 278.727 108.188 278.193 104.706 278.326C101.627 278.326 97.476 277.792 95.4676 277.123C93.5931 276.187 99.8861 270.172 102.564 269.236Z" fill="#22AC38"/>
<path d="M95.7354 277.391C95.4676 277.391 95.3337 277.123 95.3337 276.99C95.3337 276.856 95.3337 275.118 97.6099 272.311C98.815 270.706 103.769 267.632 108.991 264.29C113.142 261.75 117.293 258.942 119.167 257.338C123.184 253.862 123.184 250.921 123.184 250.921L123.853 205.336C123.853 205.069 124.121 204.935 124.255 204.935C124.523 204.935 124.657 205.202 124.657 205.336L123.987 250.921C123.987 251.055 123.987 254.264 119.703 258.007C117.828 259.611 113.677 262.284 109.393 264.958C104.439 268.166 99.3506 271.375 98.1455 272.845C96.1371 275.385 96.1371 276.99 96.1371 276.99C96.1371 277.123 95.8693 277.391 95.7354 277.391Z" fill="#005796"/>
<path d="M68.6885 152.932L72.3036 152.13L65.7428 154.403H61.7259C61.3242 155.74 63.7343 156.141 64.9394 156.274C66.1444 156.408 67.7512 157.344 67.7512 157.344L70.1613 158.948C70.1613 158.948 72.5714 161.622 74.3121 160.552C76.8561 159.082 85.1576 155.071 85.1576 155.071L93.9947 148.655L89.9779 144.109L82.7475 148.922C82.7475 148.922 78.4628 149.457 77.1239 149.189C74.7138 148.655 74.7138 150.125 71.7681 149.991C64.8055 149.991 64.5377 152.932 68.6885 152.932Z" fill="#F8C499"/>
<path d="M137.243 157.745C134.699 148.521 131.084 145.446 131.084 145.446L112.606 148.521C112.606 148.521 109.661 145.179 110.062 152.799C110.598 160.419 110.062 163.092 109.928 184.481C109.794 201.593 109.527 215.362 109.527 215.362H138.18C138.18 215.496 143.938 182.075 137.243 157.745Z" fill="#FFE991"/>
<path d="M118.765 108.015C129.477 108.55 136.172 100.395 136.172 100.395L134.163 96.7859L134.699 76.8673L120.372 75.9315L120.774 93.0428L116.489 100.529L118.765 108.015Z" fill="#F6B37F"/>
<path d="M133.226 97.9891L134.699 97.3207L135.101 94.246C135.101 90.6365 134.565 90.6365 132.021 90.6365H123.05C120.506 90.6365 118.498 90.2355 118.498 94.1123L118.632 96.7859L115.954 99.5932C114.079 101.197 108.322 106.678 104.84 112.828C102.028 117.774 108.188 130.875 108.188 130.875L111.401 133.549C111.401 133.549 117.828 140.767 119.435 133.014C120.372 128.87 124.657 133.415 126.13 130.875C127.603 132.212 130.414 121.517 131.753 115.635C135.101 101.866 133.226 97.9891 133.226 97.9891Z" fill="#FFE991"/>
<path d="M126.531 96.3849C124.121 96.3849 122.648 96.2512 122.648 96.2512C122.381 96.2512 122.247 95.9838 122.247 95.7165C122.247 95.4491 122.514 95.3154 122.782 95.3154C122.782 95.3154 125.862 95.4491 130.28 95.3154C130.548 95.3154 130.682 95.4491 130.682 95.7165C130.682 95.9838 130.548 96.1175 130.28 96.1175C128.808 96.3849 127.603 96.3849 126.531 96.3849Z" fill="#005796"/>
<path d="M108.188 130.741L108.857 157.879L137.109 157.745C137.109 157.745 134.431 146.649 132.155 139.163C129.879 131.811 139.385 108.015 139.385 108.015C139.385 108.015 143.001 97.0533 134.833 94.1122C134.833 94.1122 133.092 98.6574 122.515 99.7269C120.506 99.9943 120.506 99.9943 120.506 99.9943C120.506 99.9943 113.008 108.283 110.866 115.635C108.589 122.988 108.188 130.741 108.188 130.741Z" fill="#63CC74"/>
<path d="M136.574 97.187L132.958 97.4544C132.958 97.4544 134.565 94.1123 130.414 102.133C128.808 105.475 114.347 123.923 114.347 123.923C114.347 123.923 104.439 131.944 97.8777 136.49C91.9863 140.5 83.5509 145.58 83.5509 145.58L88.505 153.735C88.505 153.735 113.945 137.158 123.184 129.672C131.486 122.988 137.645 108.149 137.645 108.149L138.046 99.0585L136.574 97.187Z" fill="#63CC74"/>
<path d="M108.188 140.901C108.054 140.901 107.92 140.767 107.786 140.634C107.652 140.366 107.786 140.099 107.92 139.965C107.92 139.965 113.945 136.49 122.916 129.003C128.004 124.725 136.038 110.02 136.172 109.887C136.306 109.619 136.574 109.619 136.841 109.753C137.109 109.887 137.109 110.154 136.975 110.422C136.707 111.09 128.808 125.528 123.586 129.805C114.481 137.292 108.589 140.767 108.455 140.767C108.322 140.901 108.322 140.901 108.188 140.901Z" fill="#005796"/>
<path d="M108.322 129.404C108.188 129.404 108.054 129.404 107.92 129.271C107.786 129.003 107.786 128.736 108.054 128.602L114.749 123.79C115.552 122.72 128.54 105.208 130.013 102C130.147 101.732 130.414 101.732 130.682 101.866C130.95 102 130.95 102.267 130.816 102.534C129.209 105.743 115.954 123.656 115.418 124.324C115.418 124.324 115.418 124.458 115.284 124.458L108.589 129.271C108.455 129.404 108.455 129.404 108.322 129.404Z" fill="#005796"/>
<path d="M63.3326 152.13C63.3326 152.13 73.107 147.719 73.6426 149.189C74.3121 150.927 71.768 152.264 71.768 152.264C71.768 152.264 70.1613 153.2 67.6173 152.933C64.9394 152.665 64.9394 152.665 64.9394 152.665L63.3326 152.13Z" fill="white"/>
<path d="M68.8224 153.334C68.6885 153.334 68.6885 153.334 68.8224 153.334C68.4207 153.334 68.2868 153.066 68.2868 152.933C68.2868 152.665 68.5546 152.531 68.6885 152.531C68.6885 152.531 68.6885 152.531 68.8224 152.531C70.2952 152.531 71.6342 151.863 71.6342 151.863C71.6342 151.863 73.7765 150.66 73.2409 149.323C72.8392 148.788 69.0901 149.858 65.2072 151.328C64.9394 151.462 64.6716 151.328 64.6716 151.061C64.5377 150.794 64.6716 150.526 64.9394 150.526C72.3036 147.585 73.9104 148.254 74.1782 149.056C75.1154 151.061 72.3036 152.665 72.1697 152.665C71.902 152.665 70.4291 153.334 68.8224 153.334Z" fill="#45372A"/>
<path d="M157.06 44.1151C164.424 60.9591 153.846 79.1399 134.967 85.6903C115.954 92.3744 97.6099 87.4282 91.049 72.9905C83.6848 56.2802 92.5219 36.0942 110.732 28.0733C128.941 20.186 149.695 27.2712 157.06 44.1151Z" fill="#F8C499"/>
<path d="M169.914 56.2802C173.663 63.7664 171.654 72.3221 163.754 76.4662C155.721 80.4767 144.741 78.4714 140.992 70.9852C137.243 63.499 140.724 54.1413 148.624 50.1308C156.658 46.1204 166.164 48.794 169.914 56.2802Z" fill="#B1B1B2"/>
<path d="M123.987 49.5961C113.677 41.1741 121.176 33.0195 121.176 33.0195C121.042 32.7522 107.518 28.7417 114.079 26.7365C132.289 21.1218 149.829 26.3354 157.595 45.0509C164.826 62.1623 152.239 74.461 152.239 74.461C152.239 74.461 147.553 69.6484 141.528 62.5633C137.109 57.216 134.431 52.5371 134.431 52.5371C134.431 52.5371 130.95 55.3445 123.987 49.5961Z" fill="#B1B1B2"/>
<path d="M108.188 44.1151C107.92 44.1151 107.652 43.9814 107.652 43.7141C107.652 43.5804 106.045 40.5057 102.832 40.2383C100.823 40.1046 99.3506 41.0404 99.3506 41.0404C99.0828 41.3078 98.6811 41.1741 98.4133 40.9067C98.1455 40.6394 98.2794 40.2383 98.5472 39.971C98.6811 39.971 100.422 38.6341 102.832 38.9015C106.983 39.1689 108.723 42.912 108.723 43.1793C108.857 43.4467 108.723 43.8477 108.455 44.1151C108.322 44.1151 108.188 44.1151 108.188 44.1151Z" fill="#5A689D"/>
<path d="M112.874 64.9696C113.677 69.2474 117.694 72.0548 121.845 71.2527C126.13 70.4506 128.941 66.4401 128.138 62.1623C127.335 57.8844 123.318 55.0771 119.167 55.8792C114.882 56.6813 112.071 60.8254 112.874 64.9696Z" fill="url(#paint0_radial)"/>
<path d="M90.3796 71.6537C90.2457 71.6537 90.1118 71.6537 89.9779 71.52C89.1745 70.9853 87.7016 69.3811 88.3711 67.2422C89.0406 65.1032 90.1118 62.2959 90.1118 62.1622C90.2457 61.7612 90.6473 61.6275 91.049 61.7612C91.4507 61.8949 91.5846 62.2959 91.4507 62.697C91.4507 62.697 90.3796 65.5043 89.7101 67.6432C89.1745 69.2474 90.7812 70.3168 90.7812 70.3168C91.049 70.5842 91.1829 70.9853 90.9151 71.2526C90.7812 71.52 90.5134 71.6537 90.3796 71.6537Z" fill="#005796"/>
<path d="M143.67 53.2055C141.126 53.2055 132.155 52.4034 126.397 41.1741C126.264 40.9068 126.397 40.372 126.665 40.2384C126.933 40.1047 127.469 40.2384 127.603 40.5057C134.03 52.8045 144.206 51.735 144.206 51.735C144.607 51.735 144.875 52.0024 145.009 52.2698C145.009 52.6708 144.741 52.9382 144.473 53.0718C144.34 53.2055 144.206 53.2055 143.67 53.2055Z" fill="white"/>
<path d="M155.988 55.4781C155.855 55.4781 155.855 55.4781 155.721 55.4781C155.453 55.3445 148.892 52.8045 140.456 46.3877C140.189 46.1204 140.055 45.7193 140.323 45.452C140.59 45.1846 140.992 45.0509 141.26 45.3183C149.561 51.6014 156.122 54.275 156.256 54.275C156.658 54.4087 156.792 54.8097 156.658 55.2108C156.524 55.3445 156.256 55.4781 155.988 55.4781Z" fill="#45372A"/>
<path d="M141.929 52.9381C143.804 56.8149 142.197 61.6275 138.18 63.3654C134.297 65.2369 129.611 63.6327 127.736 59.6223C125.862 55.7455 127.469 51.0666 131.486 49.195C135.368 47.4572 140.055 49.0614 141.929 52.9381Z" fill="#F8C499"/>
<path d="M160.943 61.7612C160.943 61.7612 165.093 35.9605 135.101 23.3944C120.372 17.245 110.464 23.6618 104.037 19.9187C97.7438 16.1756 98.5472 14.4377 98.5472 14.4377C98.5472 14.4377 89.7101 24.8649 97.8777 33.8216C104.439 41.0404 111.133 35.8268 119.167 37.2973C124.657 38.3668 165.227 64.8359 160.943 61.7612Z" fill="#B1B1B2"/>
<path d="M103.635 51.6013C103.501 51.6013 103.367 51.4677 103.234 51.334C103.234 51.0666 103.234 50.9329 103.501 50.7992C103.501 50.7992 104.974 50.3982 105.644 49.8635C106.179 49.4624 106.447 48.5266 106.447 48.5266C106.447 48.2593 106.715 48.2593 106.849 48.2593C107.116 48.2593 107.116 48.5266 107.116 48.6603C107.116 48.6603 106.849 49.7298 106.045 50.3982C105.376 51.0666 103.769 51.4677 103.635 51.6013C103.769 51.6013 103.635 51.6013 103.635 51.6013Z" fill="#005796"/>
<path d="M101.895 51.0666C101.761 51.0666 101.627 50.9329 101.493 50.7993C101.493 50.5319 101.493 50.3982 101.761 50.2645C101.761 50.2645 103.234 49.8635 103.903 49.1951C104.439 48.794 104.706 47.8582 104.706 47.8582C104.706 47.5909 104.974 47.5909 105.108 47.5909C105.376 47.5909 105.376 47.8582 105.376 47.9919C105.376 47.9919 105.108 49.0614 104.305 49.7298C103.635 50.6656 102.162 51.0666 101.895 51.0666C102.028 51.0666 102.028 51.0666 101.895 51.0666Z" fill="#005796"/>
<path d="M105.242 55.3444C104.706 51.8687 102.162 49.3287 99.4845 49.7298C96.9404 50.1308 95.3337 53.3392 95.8693 56.8149C96.4048 60.2907 98.9489 62.8306 101.627 62.4296C104.171 62.0286 105.778 58.8202 105.242 55.3444Z" fill="white"/>
<path d="M103.1 56.0128C102.698 53.4729 100.823 51.6013 98.815 51.8687C96.9404 52.1361 95.7354 54.5423 96.1371 57.0823C96.5388 59.6223 98.4133 61.4938 100.422 61.2265C102.296 60.9591 103.501 58.6865 103.1 56.0128Z" fill="#005796"/>
<path d="M106.045 77.6694C105.51 77.6694 105.108 77.6694 105.108 77.6694C104.706 77.6694 104.305 77.1347 104.439 76.7336C104.439 76.3326 104.974 75.9315 105.376 76.0652C105.376 76.0652 108.322 76.4662 110.598 74.5947C114.749 71.2526 114.347 66.3064 114.213 66.1727C114.213 65.7717 114.481 65.3706 115.016 65.2369C115.418 65.2369 115.82 65.5043 115.954 66.039C115.954 66.3064 116.489 72.0547 111.669 75.9315C109.527 77.402 107.25 77.6694 106.045 77.6694Z" fill="#E94954"/>
<path d="M119.837 68.98C119.703 68.98 119.569 68.98 119.435 68.8463C119.435 68.8463 118.096 67.3758 116.088 66.4401C113.811 65.3706 112.338 65.3706 112.338 65.3706C112.071 65.3706 111.803 65.2369 111.803 64.8359C111.803 64.5685 111.937 64.3011 112.338 64.3011C112.472 64.3011 114.213 64.1675 116.757 65.5043C118.899 66.5737 120.372 68.0442 120.372 68.1779C120.506 68.4453 120.506 68.7126 120.372 68.98C119.97 68.8463 119.97 68.98 119.837 68.98Z" fill="#005796"/>
<path d="M149.695 50.6656C149.428 50.6656 149.16 50.3982 149.026 50.1309C149.026 49.9972 143.67 34.8911 123.987 30.7469C118.632 29.6775 114.882 30.2122 111.535 30.7469C109.125 31.148 107.116 31.4153 105.108 31.0143C100.02 30.0785 98.6811 24.7312 98.6811 24.5975C98.5472 24.1965 98.815 23.7955 99.2167 23.7955C99.6183 23.6618 100.02 23.9291 100.02 24.3302C100.02 24.4639 101.225 29.0091 105.376 29.8112C107.116 30.2122 109.125 29.8112 111.267 29.5438C114.615 29.0091 118.632 28.4743 124.255 29.5438C144.875 33.8216 150.365 49.8635 150.365 49.9972C150.499 50.3982 150.231 50.7993 149.829 50.7993C149.829 50.6656 149.695 50.6656 149.695 50.6656Z" fill="white"/>
<path d="M152.105 45.452C151.838 45.452 151.57 45.1846 151.436 44.9172C151.436 44.9172 149.695 38.2331 142.197 32.4848C134.699 26.6028 123.987 25.3996 123.853 25.3996C123.452 25.3996 123.184 24.9986 123.184 24.5975C123.184 24.1965 123.586 23.9291 123.987 23.9291C124.389 23.9291 135.101 25.266 143.001 31.2817C150.9 37.431 152.641 44.2488 152.775 44.5162C152.909 44.9172 152.641 45.3183 152.239 45.3183C152.239 45.452 152.105 45.452 152.105 45.452Z" fill="white"/>
<path d="M155.319 73.5252C149.695 73.5252 147.419 68.3116 147.285 68.1779C147.151 67.7769 147.285 67.3758 147.687 67.2422C148.089 67.1085 148.49 67.2422 148.624 67.6432C148.758 67.9106 150.9 72.8568 156.524 72.0547C159.871 71.52 162.281 70.3169 163.62 68.4453C165.495 65.9053 165.093 62.8307 165.093 62.8307C165.093 62.4296 165.227 62.0286 165.629 62.0286C166.031 62.0286 166.432 62.1622 166.432 62.5633C166.432 62.697 166.968 66.1727 164.692 69.2474C163.085 71.52 160.273 72.8568 156.658 73.3916C156.256 73.3916 155.721 73.5252 155.319 73.5252Z" fill="white"/>
<path d="M158.399 64.8359H158.265C157.863 64.7022 157.595 64.4348 157.729 64.0338C157.729 63.9001 158.399 60.8254 155.319 58.8202C151.302 56.1465 148.892 58.9538 148.758 59.0875C148.49 59.3549 148.089 59.3549 147.821 59.2212C147.553 58.9538 147.553 58.5528 147.687 58.2854C147.687 58.2854 151.168 54.4086 156.122 57.7507C159.871 60.2907 159.068 64.3011 159.068 64.4348C159.068 64.7022 158.8 64.8359 158.399 64.8359Z" fill="white"/>
<path d="M205.53 259.878C205.53 259.878 200.843 262.418 193.747 263.487C185.445 264.824 188.525 265.225 186.517 267.364C184.642 269.37 182.768 273.113 182.768 273.113C182.768 273.113 191.203 272.979 199.906 272.578C208.877 272.043 221.999 265.76 221.999 265.76C221.999 265.76 221.463 260.546 221.329 258.274C221.062 255.6 205.53 259.878 205.53 259.878Z" fill="white"/>
<path d="M182.901 273.514C182.768 273.514 182.634 273.38 182.5 273.38C182.366 273.246 182.366 273.113 182.5 272.979C182.634 272.845 184.374 269.102 186.249 267.097C186.784 266.562 186.918 266.161 187.052 265.76C187.454 264.557 187.856 264.022 193.747 263.087C200.576 262.017 205.262 259.477 205.396 259.477C205.396 259.477 205.396 259.477 205.53 259.477C205.931 259.343 214.501 257.071 219.053 257.071C219.723 257.071 221.865 257.071 221.865 258.408C221.999 260.68 222.535 265.894 222.535 265.894C222.535 266.028 222.401 266.295 222.267 266.295C221.731 266.562 208.877 272.578 200.04 273.113C191.337 273.514 182.901 273.514 182.901 273.514ZM205.664 260.279C205.128 260.547 200.576 262.953 193.881 264.022C188.257 264.958 188.123 265.359 187.856 266.161C187.722 266.562 187.588 267.097 186.918 267.765C185.579 269.236 184.24 271.642 183.571 272.845C185.713 272.845 192.81 272.712 199.906 272.311C207.94 271.91 219.723 266.562 221.597 265.76C221.463 264.691 221.062 260.547 220.928 258.541C220.928 258.274 220.392 258.007 218.919 258.007C214.769 257.873 206.467 260.012 205.664 260.279Z" fill="#BEB4AA"/>
<path d="M222.401 262.953V269.37C222.401 269.37 222.535 274.049 217.179 274.182L185.178 274.316C185.178 274.316 181.83 274.316 181.562 273.781C181.562 273.781 179.286 268.568 183.973 265.493C189.73 261.75 196.827 260.68 202.45 261.349C202.45 261.349 201.111 265.226 211.555 265.627C218.116 265.894 222.401 262.953 222.401 262.953Z" fill="#B27B41"/>
<path d="M223.338 170.044C221.062 169.375 222.133 191.433 221.731 205.47C221.329 216.966 222.133 260.413 222.133 260.413C222.133 260.413 219.589 262.151 212.626 262.552C207.538 262.819 203.387 259.21 203.387 259.21C203.387 259.21 204.994 225.121 204.325 201.058C204.325 201.058 204.191 166.969 201.915 145.446C201.379 139.698 210.484 151.997 210.484 151.997L236.058 145.313C239.405 150.392 226.284 165.766 226.284 165.766L223.338 170.044Z" fill="#005796"/>
<path d="M195.22 261.482C195.22 261.482 198.835 261.349 200.308 259.611C201.513 258.14 202.316 256.402 202.316 256.402C202.316 256.402 204.726 257.606 205.931 258.408C207.137 259.343 206.065 260.279 204.325 262.151C202.584 264.022 198.299 264.557 198.299 264.557L195.22 261.482Z" fill="#B27B41"/>
<path d="M214.367 266.963C214.367 266.963 209.681 269.503 202.584 270.573C194.283 271.909 197.362 272.311 195.354 274.449C193.479 276.455 191.605 280.198 191.605 280.198C191.605 280.198 200.04 280.064 208.743 279.663C217.714 279.128 230.836 272.845 230.836 272.845C230.836 272.845 230.3 267.632 230.167 265.359C230.033 262.685 214.367 266.963 214.367 266.963Z" fill="white"/>
<path d="M191.739 280.733C191.605 280.733 191.471 280.599 191.337 280.599C191.203 280.465 191.203 280.332 191.337 280.198C191.471 280.064 193.211 276.321 195.086 274.316C195.621 273.781 195.755 273.38 195.755 272.979C196.157 271.776 196.559 271.241 202.45 270.305C209.279 269.236 213.965 266.696 214.099 266.696C214.099 266.696 214.099 266.696 214.233 266.696C214.635 266.562 223.204 264.29 227.756 264.29C228.426 264.29 230.568 264.29 230.568 265.626C230.702 267.899 231.238 273.113 231.238 273.113C231.238 273.246 231.104 273.514 230.97 273.514C230.434 273.781 217.58 279.797 208.743 280.332C200.308 280.599 191.872 280.733 191.739 280.733ZM214.635 267.364C214.099 267.632 209.547 270.038 202.852 271.107C197.228 272.043 197.094 272.444 196.827 273.246C196.693 273.647 196.559 274.182 195.889 274.851C194.55 276.321 193.211 278.727 192.542 279.93C194.684 279.93 201.781 279.797 208.877 279.396C216.911 278.995 228.694 273.647 230.568 272.845C230.434 271.776 230.033 267.632 229.899 265.626C229.899 265.359 229.363 265.092 227.89 265.092C223.606 264.958 215.304 267.231 214.635 267.364Z" fill="#BEB4AA"/>
<path d="M231.372 269.637V276.054C231.372 276.054 231.506 280.733 226.15 280.866L194.149 281C194.149 281 190.801 281 190.533 280.465C190.533 280.465 188.257 275.252 192.944 272.177C198.701 268.434 205.798 267.364 211.421 268.033C211.421 268.033 210.082 271.91 220.526 272.311C226.953 272.578 231.372 269.637 231.372 269.637Z" fill="#B27B41"/>
<path d="M214.635 156.007C214.635 156.007 212.358 154.269 212.225 160.018C211.689 183.679 211.421 207.876 211.421 207.876C211.957 231.939 212.358 266.028 212.358 266.028C212.358 266.028 216.509 269.637 221.597 269.37C228.56 268.969 231.104 267.231 231.104 267.231C231.104 267.231 230.3 223.784 230.702 212.287C231.104 198.251 232.577 177.396 233.38 175.257C238.468 162.558 233.782 156.676 233.782 156.676L214.635 156.007Z" fill="#005796"/>
<path d="M204.057 268.166C204.057 268.166 207.672 268.033 209.145 266.295C210.35 264.824 211.153 263.087 211.153 263.087C211.153 263.087 213.563 264.29 214.769 265.092C215.974 266.028 214.902 266.963 213.162 268.835C211.421 270.706 207.136 271.241 207.136 271.241L204.057 268.166Z" fill="#B27B41"/>
<path d="M211.287 262.017C211.019 262.017 210.752 261.75 210.752 261.482L210.886 165.9L207.27 157.745C207.137 157.478 207.27 157.21 207.538 157.077C207.806 156.943 208.074 157.077 208.208 157.344L211.823 165.632C211.823 165.766 211.823 165.766 211.823 165.9L211.689 261.616C211.823 261.75 211.689 262.017 211.287 262.017Z" fill="white"/>
<path d="M221.329 58.5529L224.677 78.4715C224.677 78.4715 219.723 79.541 215.706 79.942C211.689 80.2094 209.948 79.942 209.948 79.942L207.27 63.6328L221.329 58.5529Z" fill="#F6B37F"/>
<path d="M236.46 158.681C235.255 150.393 234.987 97.8554 234.317 92.9092C232.443 81.1452 228.158 82.482 224.811 80.8778C220.928 79.1399 212.492 77.2684 209.413 79.0062C209.413 79.0062 203.521 90.1019 201.915 112.026C201.111 122.854 203.923 161.221 203.923 161.221L234.585 159.75L236.46 158.681Z" fill="white"/>
<path d="M232.309 85.2893C232.309 85.2893 229.631 81.1451 226.685 79.6746C226.417 79.5409 226.284 79.4072 226.15 79.2736C225.346 79.8083 217.982 84.3535 212.091 90.2355C206.467 95.8502 202.986 101.064 202.986 101.064C202.986 101.064 200.442 107.614 201.111 124.057C202.048 146.649 202.316 163.493 202.316 163.493C202.316 163.493 203.387 164.295 217.446 163.894C230.3 163.627 236.995 162.424 236.995 162.424L237.397 102.133C237.531 98.5238 234.451 89.0324 232.309 85.2893Z" fill="#FDDC91"/>
<path d="M226.15 79.2736L226.284 79.1399C226.284 79.1399 223.873 77.6694 226.15 79.2736Z" fill="#D9CE91"/>
<path d="M228.56 80.7441C228.426 80.7441 218.785 86.8935 212.492 93.1765C206.869 98.7912 202.182 105.208 202.182 105.208C202.182 105.208 201.915 107.079 201.781 108.015C201.781 108.149 207.94 99.7269 213.43 94.1123C219.589 87.9629 229.363 81.6799 229.363 81.6799L228.56 80.7441Z" fill="#005796"/>
<path d="M224.677 73.5253L209.279 79.0062L210.886 88.364C210.886 88.364 215.706 86.6261 219.187 85.1556C225.882 82.2146 228.158 80.4767 228.158 80.4767L224.677 73.5253Z" fill="white"/>
<path d="M227.89 80.0757C227.89 80.0757 225.48 81.9472 218.919 84.7545C216.108 85.9577 212.492 87.2945 211.153 87.8292L209.681 79.0062C209.681 78.7388 209.413 78.6052 209.145 78.6052C208.877 78.6052 208.743 78.8725 208.743 79.1399L210.35 88.4976C210.35 88.6313 210.484 88.765 210.618 88.765C210.752 88.765 210.752 88.765 210.886 88.765H211.019C211.019 88.765 215.84 87.0271 219.321 85.5566C226.016 82.6156 228.426 80.7441 228.56 80.7441L227.89 80.0757Z" fill="#005796"/>
<path d="M208.877 88.4977C208.877 89.0324 208.475 89.4335 207.94 89.4335C207.404 89.4335 207.003 89.0324 207.003 88.4977C207.003 87.963 207.404 87.5619 207.94 87.5619C208.342 87.4282 208.877 87.963 208.877 88.4977Z" fill="white"/>
<path d="M202.316 161.622C202.316 161.622 206.065 161.889 214.367 161.889C215.572 161.889 217.045 161.889 218.384 161.889C229.229 161.756 239.004 160.419 239.138 160.419C239.539 160.419 239.807 160.018 239.673 159.75C239.673 159.349 239.271 159.082 239.004 159.216C238.87 159.216 229.229 160.419 218.518 160.686C207.672 160.82 202.316 160.285 202.316 160.285V161.622Z" fill="#005796"/>
<path d="M192.006 14.9724C197.63 3.20841 224.409 -3.07465 237.531 7.88729C241.548 11.2293 243.422 27.6723 243.021 37.2974C242.619 46.9225 241.28 58.1518 230.702 68.3116C221.597 77.001 204.459 78.4715 197.362 70.7179C192.676 65.638 191.069 55.8792 191.069 55.8792C191.069 55.8792 188.391 56.1466 188.391 53.7403C188.391 52.1361 190.935 41.8426 190.935 41.8426C190.935 41.8426 189.194 33.5543 189.998 25.667C190.266 20.5871 190.801 17.5124 192.006 14.9724Z" fill="#F8C499"/>
<path d="M194.818 56.4139C193.345 56.4139 191.337 56.2802 188.659 56.1465C188.257 56.1465 187.989 55.8792 187.722 55.6118C187.32 54.9434 186.918 52.4034 191.069 41.1741C191.203 40.7731 191.605 40.6394 192.006 40.7731C192.408 40.9068 192.542 41.3078 192.408 41.7089C190.4 47.1898 188.391 53.6066 188.793 54.8097C194.952 55.2108 196.157 55.0771 196.425 54.9434C196.559 54.8097 198.166 53.874 197.496 50.1308C197.362 49.7298 197.63 49.3288 198.032 49.3288C198.433 49.1951 198.835 49.4624 198.835 49.8635C199.772 54.9434 197.094 56.1465 196.96 56.2802C196.693 56.4139 196.023 56.4139 194.818 56.4139Z" fill="#005796"/>
<path d="M194.283 14.1704C194.684 12.4325 191.471 15.3735 191.872 14.0367C194.015 7.61993 200.174 3.20842 212.225 1.73791C221.196 0.668454 231.506 2.54001 237.933 7.75361C241.949 11.0957 246.77 35.4258 240.209 54.0077C240.209 54.0077 226.685 40.9068 222.936 32.6185C216.108 17.5124 215.036 10.962 215.036 10.962C215.036 10.962 215.304 8.02098 212.76 7.0852C202.584 3.07473 194.283 14.1704 194.283 14.1704Z" fill="#B1B1B2"/>
<path d="M208.609 27.2712C208.208 27.2712 207.806 27.0039 207.672 26.6028C207.672 26.4691 206.601 23.3944 202.852 22.9934C202.316 22.9934 201.915 22.4587 202.048 22.0576C202.048 21.5229 202.584 21.1218 202.986 21.2555C207.94 21.6566 209.279 25.9344 209.413 26.0681C209.547 26.6028 209.279 27.0039 208.877 27.2712C208.877 27.2712 208.743 27.2712 208.609 27.2712Z" fill="#666666"/>
<path d="M194.55 36.0943C194.818 39.57 196.827 42.11 199.237 41.9763C201.647 41.8426 203.254 38.9016 203.12 35.5595C202.852 32.0838 200.843 29.5438 198.433 29.6775C196.157 29.8112 194.416 32.7522 194.55 36.0943Z" fill="white"/>
<path d="M194.952 36.7627C195.354 39.4363 196.96 41.3079 198.835 41.1742C200.576 40.9068 201.915 38.6342 201.513 35.9606C201.245 33.2869 199.504 31.4154 197.63 31.6828C195.889 31.8164 194.684 34.2227 194.952 36.7627Z" fill="#005796"/>
<path d="M199.103 46.7888C197.094 46.7888 195.354 45.5857 194.55 43.7141C193.613 41.1741 194.952 38.5005 197.362 37.5647C197.898 37.431 198.433 37.2974 198.969 37.2974C200.977 37.2974 202.718 38.5005 203.521 40.5057C204.459 43.0457 203.12 45.7193 200.71 46.6551C200.174 46.6551 199.638 46.7888 199.103 46.7888ZM198.969 39.0352C198.567 39.0352 198.299 39.0352 198.032 39.1689C196.559 39.7036 195.755 41.4415 196.291 42.912C196.693 44.1152 197.898 44.7836 199.103 44.7836C199.371 44.7836 199.772 44.7836 200.04 44.6499C201.513 44.1152 202.316 42.3773 201.781 40.9068C201.379 39.8373 200.308 39.0352 198.969 39.0352Z" fill="#864443"/>
<path d="M188.659 45.3183C187.454 45.3183 186.517 44.2488 186.115 42.511C185.579 40.5057 185.713 37.8321 187.052 36.4953C187.588 35.9605 188.123 35.8268 188.525 35.8268C189.73 35.8268 190.667 36.8963 191.069 38.6342C191.605 40.6394 191.471 43.313 190.132 44.6499C189.596 45.1846 189.061 45.3183 188.659 45.3183ZM188.391 37.6984C188.391 37.6984 188.257 37.6984 188.391 37.6984C187.722 38.3668 187.454 40.372 187.856 42.1099C188.123 43.0457 188.525 43.5804 188.659 43.5804C188.659 43.5804 188.659 43.5804 188.793 43.4467C189.328 42.7783 189.73 40.9068 189.195 39.1689C188.927 38.0994 188.525 37.6984 188.391 37.6984Z" fill="#864443"/>
<path d="M238.602 28.7417C238.602 28.7417 237.129 22.325 232.309 17.1114C224.275 8.42202 200.843 9.75884 200.843 9.75884L206.467 17.6461C206.467 17.6461 202.048 19.5176 195.889 18.4482C187.722 17.1114 187.186 10.5609 187.186 10.5609C187.186 10.5609 185.847 2.27264 193.077 0.267403C196.827 -0.668372 198.567 1.0695 201.647 2.40632C205.53 4.01051 211.287 -0.802054 220.928 2.27264C226.685 4.01051 230.97 8.28834 233.514 12.9672C237.665 20.4534 238.602 28.7417 238.602 28.7417Z" fill="#B1B1B2"/>
<path d="M193.479 13.3683C193.211 13.3683 193.077 13.2346 192.81 13.1009C188.391 7.0852 193.211 3.20842 193.345 3.20842C193.613 2.94106 194.149 3.07474 194.416 3.3421C194.684 3.60947 194.55 4.14419 194.283 4.41156C194.149 4.54524 190.533 7.48625 194.015 12.2988C194.283 12.5662 194.149 13.1009 193.881 13.3683C193.747 13.3683 193.613 13.3683 193.479 13.3683Z" fill="white"/>
<path d="M200.576 16.1756C200.442 16.1756 200.174 16.1756 200.04 16.0419C199.906 15.9082 197.63 14.0367 196.425 11.363C195.086 8.68939 195.622 6.01575 195.622 5.88206C195.755 5.48102 196.157 5.21365 196.559 5.34734C196.96 5.48102 197.228 5.88206 197.094 6.28311C197.094 6.28311 196.693 8.55571 197.764 10.8283C198.835 13.1009 200.977 14.9725 201.111 14.9725C201.379 15.2398 201.513 15.7745 201.245 16.0419C200.977 16.1756 200.843 16.1756 200.576 16.1756Z" fill="white"/>
<path d="M240.477 28.608C240.343 28.608 240.075 28.4744 239.941 28.3407C239.807 28.207 238.602 26.7365 237.129 22.1913C235.522 16.9777 236.058 12.2988 236.058 12.0314C236.058 11.6304 236.46 11.363 236.861 11.363C237.263 11.363 237.531 11.7641 237.531 12.1651C237.531 12.1651 237.129 16.844 238.602 21.6566C239.807 25.8007 241.012 27.1375 241.012 27.1375C241.28 27.4049 241.28 27.9396 241.012 28.207C240.878 28.608 240.61 28.608 240.477 28.608Z" fill="white"/>
<path d="M231.372 11.2294C231.238 11.2294 231.104 11.2294 230.97 11.0957C230.97 11.0957 225.346 7.8873 218.25 6.68416C211.153 5.48102 203.655 6.28312 203.521 6.28312C203.12 6.28312 202.718 6.01575 202.718 5.61471C202.718 5.21366 202.986 4.81261 203.387 4.81261C203.655 4.81261 211.153 4.01052 218.518 5.34734C225.882 6.55048 231.506 9.75886 231.773 9.89254C232.175 10.1599 232.309 10.5609 232.041 10.962C231.907 11.0957 231.639 11.2294 231.372 11.2294Z" fill="white"/>
<path d="M203.387 42.1099C202.986 42.1099 202.584 41.8426 202.45 41.4415C202.316 40.9068 202.584 40.5058 203.12 40.3721L225.748 34.4901C226.284 34.3564 226.685 34.6237 226.819 35.1585C226.953 35.6932 226.685 36.0942 226.15 36.2279L203.521 42.1099C203.655 42.1099 203.521 42.1099 203.387 42.1099Z" fill="#864443"/>
<path d="M223.472 45.7194C225.212 49.9972 229.497 50.1309 234.317 48.2593C239.004 46.2541 240.61 40.9068 238.87 36.629C237.129 32.2175 232.577 30.6133 227.756 32.6185C223.07 34.3564 221.731 41.3079 223.472 45.7194Z" fill="#F8C499"/>
<path d="M206.735 51.4677C207.672 56.4139 212.358 59.6223 217.313 58.8202C222.267 58.0181 225.48 53.2056 224.677 48.2593C223.74 43.3131 219.053 40.1047 214.099 40.9068C209.145 41.8426 205.798 46.5215 206.735 51.4677Z" fill="url(#paint1_radial)"/>
<path d="M204.057 64.0338C201.647 64.0338 199.906 63.098 199.772 63.098C199.237 62.8307 199.103 62.2959 199.371 61.7612C199.638 61.2265 200.174 61.0928 200.71 61.3602C200.71 61.3602 203.521 62.697 206.333 61.7612C211.555 59.8897 212.894 54.676 212.894 54.676C213.028 54.1413 213.563 53.874 214.099 54.0076C214.635 54.1413 214.902 54.676 214.769 55.2108C214.769 55.4781 213.296 61.3602 207.003 63.6328C205.931 63.9001 204.994 64.0338 204.057 64.0338Z" fill="#E94954"/>
<path d="M217.714 59.6223C217.446 59.6223 217.179 59.4886 217.179 59.2212C217.179 59.2212 216.375 57.3497 214.769 55.7455C212.894 53.874 211.287 53.4729 211.287 53.3392C211.019 53.2055 210.752 52.9382 210.886 52.5371C211.019 52.2698 211.287 52.0024 211.689 52.1361C211.823 52.1361 213.564 52.6708 215.706 54.8097C217.446 56.5476 218.384 58.6865 218.384 58.6865C218.518 58.9539 218.384 59.3549 218.116 59.4886C217.982 59.4886 217.848 59.6223 217.714 59.6223Z" fill="#005796"/>
<path d="M194.952 41.8426H190.4C189.864 41.8426 189.462 41.4415 189.462 40.9068C189.462 40.3721 189.864 39.971 190.4 39.971H194.952C195.488 39.971 195.889 40.3721 195.889 40.9068C195.889 41.4415 195.488 41.8426 194.952 41.8426Z" fill="#864443"/>
<path d="M190.533 281C190.266 281 190.132 280.866 189.998 280.733C189.998 280.733 187.989 276.188 191.337 272.845C193.345 270.84 197.63 269.236 200.04 268.835C201.111 268.701 201.915 268.568 202.718 268.434C204.994 268.167 206.333 268.033 207.672 266.83C209.547 265.092 210.886 262.819 210.886 262.819C211.019 262.552 211.421 262.552 211.555 262.686C211.823 262.819 211.957 263.22 211.689 263.354C211.689 263.488 210.216 265.627 208.342 267.498C206.735 268.969 205.128 269.236 202.852 269.503C202.048 269.637 201.245 269.637 200.174 269.904C198.032 270.305 193.881 271.776 192.006 273.648C189.195 276.455 190.935 280.332 190.935 280.332C191.069 280.599 190.935 280.866 190.667 281C190.667 281 190.667 281 190.533 281Z" fill="#005796"/>
<path d="M242.351 124.859L224.275 100.262C222.133 95.9839 223.472 86.3587 228.56 85.6903C232.978 85.0219 235.522 90.3692 235.522 90.3692L252.259 119.913C252.259 119.913 255.607 123.656 253.063 128.469C250.519 133.549 238.066 157.478 238.066 157.478L229.631 151.596L235.121 140.099C239.004 132.746 242.351 124.859 242.351 124.859Z" fill="white"/>
<path d="M232.844 151.061C236.727 151.596 237.799 154.002 239.405 157.745C241.012 161.488 240.61 162.424 239.004 164.429C237.397 166.568 232.443 168.707 229.631 168.172C226.819 167.638 225.212 166.434 226.284 164.028C227.355 161.622 228.828 155.071 228.694 154.269C228.56 153.467 227.087 153.735 225.614 153.2C224.007 152.665 223.338 149.056 225.48 149.724C228.158 150.526 230.97 150.794 232.844 151.061Z" fill="#F8C499"/>
<path d="M232.844 167.638C232.711 167.504 232.711 167.103 232.844 166.969C232.844 166.969 233.782 166.167 235.121 164.697C235.389 164.429 235.924 163.627 236.192 162.959C236.594 162.29 236.861 161.622 236.861 161.622C236.995 161.354 237.263 161.354 237.397 161.354C237.665 161.488 237.665 161.756 237.531 162.023C237.531 162.023 236.326 164.429 235.656 165.365C234.317 166.835 233.38 167.771 233.38 167.771C233.246 167.905 233.246 167.905 233.112 167.905C233.112 167.905 232.978 167.771 232.844 167.638Z" fill="#005796"/>
<path d="M229.229 168.039C229.095 167.771 229.095 167.504 229.229 167.37C229.229 167.37 230.702 165.9 232.175 164.563C232.844 163.894 233.38 162.959 233.782 162.157C234.183 161.354 234.451 160.82 234.451 160.82C234.585 160.552 234.853 160.419 234.987 160.552C235.255 160.686 235.255 160.953 235.255 161.221C235.255 161.221 234.183 163.761 232.711 165.365C231.372 166.835 229.765 168.306 229.765 168.306C229.631 168.44 229.631 168.44 229.497 168.44C229.363 168.172 229.229 168.039 229.229 168.039Z" fill="#005796"/>
<path d="M226.819 166.969C226.685 166.702 226.685 166.434 226.953 166.301C226.953 166.301 227.355 166.033 227.89 165.499C228.426 164.964 229.095 164.162 229.631 163.226C230.702 161.354 231.907 158.681 231.907 158.681C232.041 158.413 232.309 158.28 232.443 158.413C232.711 158.547 232.711 158.814 232.711 159.082C232.711 159.082 231.506 161.755 230.3 163.761C229.095 165.766 227.489 167.103 227.489 167.103C227.355 167.103 227.355 167.236 227.221 167.236C227.087 167.103 226.953 167.103 226.819 166.969Z" fill="#005796"/>
<path d="M236.058 99.9943C235.79 106.812 232.577 112.293 228.962 112.159C225.212 112.026 222.535 106.277 222.668 99.4596C222.936 92.6418 226.15 87.1608 229.765 87.2945C233.514 87.4282 236.326 93.1765 236.058 99.9943Z" fill="white"/>
<path d="M242.351 125.26C242.217 125.26 242.083 125.26 242.083 125.127L224.007 100.395C223.873 100.262 223.873 99.9943 224.141 99.8606C224.275 99.727 224.543 99.727 224.677 99.9943L242.753 124.726C242.887 124.859 242.887 125.127 242.619 125.26C242.485 125.26 242.485 125.26 242.351 125.26Z" fill="#005796"/>
</g>
<defs>
<radialGradient id="paint0_radial" cx="0" cy="0" r="1" gradientUnits="userSpaceOnUse" gradientTransform="translate(120.492 63.6376) rotate(169.75) scale(7.78089 7.76928)">
<stop stop-color="#F29D88"/>
<stop offset="1" stop-color="#F8C499"/>
</radialGradient>
<radialGradient id="paint1_radial" cx="0" cy="0" r="1" gradientUnits="userSpaceOnUse" gradientTransform="translate(215.629 49.9238) rotate(169.769) scale(9.07572 9.06216)">
<stop stop-color="#F29D88"/>
<stop offset="1" stop-color="#F8C499"/>
</radialGradient>
<clipPath id="clip0">
<rect width="254" height="281" fill="white"/>
</clipPath>
</defs>
</svg>
