<svg width="989" height="203" viewBox="0 0 989 203" fill="none" xmlns="http://www.w3.org/2000/svg">
<path fill-rule="evenodd" clip-rule="evenodd" d="M215.874 75.902C216.447 75.902 217.02 75.7874 217.593 75.902C218.281 76.0167 218.969 76.1313 219.657 76.3606C222.179 77.5071 224.472 78.8828 226.307 80.9465C226.421 81.1758 226.651 81.2904 226.765 81.4051C229.975 84.8444 233.185 88.1692 236.51 91.6086C237.771 92.8697 239.147 94.1308 240.408 95.3919C240.981 95.9651 241.669 96.653 242.242 97.2262C242.472 97.4555 242.357 97.7995 242.128 97.9141C240.752 98.4873 239.376 98.4873 238.001 98.1434C236.625 97.7995 235.364 97.2262 234.217 96.5384C233.071 95.8505 232.039 95.048 230.892 94.3601C230.663 94.2454 230.434 94.1308 230.09 93.9015C229.861 93.7868 229.517 94.0161 229.517 94.2454C229.517 94.4747 229.517 94.8187 229.631 95.048C229.746 95.7358 229.975 96.5384 230.09 97.2262C230.09 97.5702 230.09 98.0288 229.975 98.3727C229.975 98.7166 229.631 98.9459 229.402 98.8313C228.943 98.7166 228.37 98.602 227.912 98.4873C226.536 97.9141 225.16 97.1116 224.128 96.0798C224.014 95.9651 223.784 95.7358 223.555 95.6212C223.44 95.6212 223.326 95.6212 223.211 95.7358L223.097 95.8505C223.211 96.1944 223.326 96.5384 223.326 96.8823C223.555 97.7995 223.44 98.7166 223.211 99.6338C223.096 100.207 222.638 100.551 222.065 100.436C221.606 100.322 221.033 100.207 220.574 100.092C219.313 99.6338 218.052 98.8313 217.135 97.7995C216.906 97.5702 216.676 97.6848 216.676 97.9141C216.676 98.1434 216.676 98.3727 216.562 98.602C216.332 99.4045 215.874 99.6338 214.957 99.6338C214.383 99.6338 213.925 99.4045 213.466 99.1752C211.861 98.3727 210.371 97.3409 208.995 96.1944C207.161 94.704 205.212 93.099 203.377 91.4939C202.804 91.0353 202.346 90.5768 201.887 90.1182C201.772 90.0035 201.658 89.6596 201.772 89.4303C202.002 88.6278 202.231 87.8252 202.575 86.9081C203.377 84.6152 203.721 82.2076 203.721 79.8C203.721 79.5707 203.721 79.4561 203.721 79.2268C203.721 78.6536 203.951 78.195 204.524 77.9657C205.212 77.7364 205.785 77.3924 206.473 77.1632C209.11 76.246 211.861 75.7874 214.613 75.5581C215.071 75.902 215.415 75.902 215.874 75.902Z" fill="#8BC2BF"/>
<path fill-rule="evenodd" clip-rule="evenodd" d="M203.951 78.9975C203.836 79.9146 203.836 81.405 203.721 82.7808C203.721 83.2394 203.492 83.698 203.377 84.1565C203.377 84.2712 203.033 84.3858 202.919 84.2712C202.689 83.9272 202.346 83.698 202.116 83.354C201.084 82.2076 199.709 81.6343 198.104 81.5197C196.728 81.405 195.467 81.6343 194.206 82.2076C192.945 82.7808 191.913 83.4687 190.881 84.3858C188.473 86.4495 186.41 88.9717 184.805 91.7232C183.544 93.9015 182.856 96.1944 182.397 98.602C182.168 99.8631 181.939 101.239 182.053 102.615C182.053 103.188 181.939 103.532 181.365 103.646C180.677 103.876 179.99 104.22 179.302 104.449C178.958 104.564 178.614 104.907 178.499 105.251C178.155 106.971 177.697 108.576 177.467 110.411C177.353 111.557 177.009 112.703 176.779 113.85C176.665 114.423 176.321 114.996 176.092 115.57C175.977 115.799 175.633 115.799 175.518 115.684C175.174 115.34 174.83 114.996 174.487 114.767C174.257 114.652 174.028 114.652 173.799 114.767C173.569 114.996 173.34 115.34 173.111 115.57C172.881 115.799 172.652 115.914 172.423 116.028C171.964 116.257 171.391 115.914 171.391 115.455C171.391 114.882 171.391 114.308 171.506 113.735C171.506 113.506 171.62 113.277 171.506 113.047C171.506 112.933 171.276 112.818 171.162 112.818C171.047 112.818 170.818 112.933 170.703 113.047C170.474 113.277 170.245 113.506 169.901 113.735C169.442 114.079 168.984 114.308 168.525 114.423C168.066 114.538 167.608 114.194 167.608 113.621C167.608 113.277 167.722 112.818 167.837 112.474C167.952 112.13 168.066 111.786 168.181 111.557C168.296 111.328 168.41 110.984 168.066 110.754C167.837 110.525 167.493 110.64 167.264 110.754C166.805 110.984 166.461 111.213 166.003 111.328C165.544 111.557 164.971 111.672 164.512 111.786C164.054 111.786 163.48 112.016 163.251 111.442C163.022 111.098 163.366 110.64 163.595 110.296C164.168 109.264 164.856 108.462 165.773 107.774C167.952 106.169 170.015 104.334 172.538 103.188C173.455 102.729 173.913 102.041 173.799 101.01C173.684 98.7166 173.913 96.4237 174.487 94.1308C174.945 92.1818 175.633 90.3474 176.55 88.6277C177.009 87.7106 177.582 86.7934 178.155 85.9909C178.614 85.303 179.072 84.5005 179.531 83.8126C179.76 83.5833 179.416 83.0101 179.072 83.1247C178.155 83.2394 177.238 83.2394 176.321 83.4687C174.143 83.8126 171.964 84.0419 169.786 84.5005C168.181 84.8444 166.576 84.9591 164.971 84.8444C164.627 84.8444 164.398 84.8444 164.054 84.7298C162.907 84.3858 162.334 83.8126 162.793 82.5515C162.907 82.4368 162.907 82.2076 162.907 82.0929C162.907 81.9783 162.793 81.8636 162.678 81.8636C162.449 81.8636 162.105 81.9783 161.875 82.0929C160.385 82.4368 158.895 82.4368 157.404 82.0929C157.29 82.0929 157.06 81.9783 156.946 81.9783C156.258 81.749 156.028 81.2904 156.258 80.6025C156.487 79.6853 156.946 78.7682 157.634 78.0803C157.748 77.9656 157.977 77.7364 158.092 77.6217C158.092 77.5071 158.092 77.3924 158.092 77.2778L157.977 77.1631C157.634 77.1631 157.29 77.2778 156.946 77.2778C155.685 77.6217 154.309 77.6217 152.933 77.5071C152.245 77.3924 151.443 77.5071 150.869 76.7045C150.869 75.902 151.328 75.4434 151.787 74.8702C152.131 74.4116 152.474 74.0677 152.818 73.7237C153.048 73.4944 153.162 73.2651 153.392 73.0359C153.506 72.8066 153.392 72.348 153.162 72.348C152.933 72.348 152.704 72.348 152.474 72.348C151.557 72.4626 150.64 72.4626 149.723 72.5773C148.118 72.6919 146.513 72.8066 144.908 72.348C143.532 72.004 142.386 71.5455 141.354 70.6283C141.124 70.399 141.01 70.1697 140.781 69.9404C140.666 69.8258 140.781 69.3672 140.895 69.3672C141.124 69.2525 141.468 69.1379 141.698 69.0232C142.156 68.9086 142.73 68.7939 143.188 68.6793C145.366 68.2207 147.43 67.6475 149.608 66.9596C153.736 65.6985 157.863 64.3227 162.105 63.0616C162.793 62.8323 163.595 62.6031 164.283 62.4884C165.659 62.1445 167.149 61.9152 168.525 62.0298C168.984 62.0298 169.327 62.0298 169.786 62.0298C171.162 61.9152 172.423 62.3738 173.569 62.947C175.748 64.0935 177.582 65.4692 179.416 67.0743C180.219 67.7621 180.907 68.45 181.595 69.1379C182.397 69.9404 182.97 70.8576 183.544 71.7747C183.773 72.1187 184.002 72.5773 184.346 72.9212C184.575 73.1505 184.805 73.6091 185.149 73.4944C185.378 73.3798 185.493 73.0359 185.607 72.8066C186.295 71.4308 187.212 70.399 188.473 69.5965C190.996 67.7621 193.862 67.0743 197.072 67.4182C198.792 67.6475 200.397 68.3354 201.658 69.5965C202.46 70.6283 202.002 70.2843 201.543 70.399C200.397 70.6283 199.938 71.6601 199.823 72.5773C199.479 74.1823 199.594 74.8702 201.543 74.7555C202.002 74.7555 202.346 74.6409 202.804 74.6409C203.721 74.5263 203.836 74.6409 203.836 75.5581C203.721 76.1313 203.836 77.2778 203.951 78.9975ZM197.53 70.7429C197.53 70.1697 196.957 69.8258 196.269 69.9404C195.811 70.0551 195.352 70.399 195.352 70.8576C195.352 71.4308 195.925 72.004 196.499 72.004C197.072 71.7747 197.53 71.3162 197.53 70.7429Z" fill="#9ED5D5"/>
<path fill-rule="evenodd" clip-rule="evenodd" d="M196.843 96.1945C197.072 96.8823 196.613 97.4556 196.04 97.9142C195.467 98.3727 194.779 98.8313 194.206 99.1753" fill="#FBF7CE"/>
<path fill-rule="evenodd" clip-rule="evenodd" d="M198.104 95.7359C198.218 95.6212 198.333 95.5066 198.448 95.3919C199.365 94.0162 200.282 92.5258 201.084 91.15C201.887 89.7742 202.46 88.3985 202.804 86.7934C202.919 86.3349 203.148 85.4177 203.263 85.0738C203.607 83.1248 201.199 82.2076 199.479 81.749C198.562 81.5197 197.186 81.2904 195.811 81.749C194.091 81.9783 192.257 83.3541 190.996 84.5005C186.524 88.2838 183.544 92.8697 182.626 98.7167C182.397 99.8631 182.282 101.01 182.282 102.156C182.282 102.844 180.792 103.99 183.887 102.959C185.951 102.385 187.9 101.812 189.849 101.239C190.422 101.01 190.996 100.78 191.683 100.551C191.569 100.436 196.04 97.9141 198.104 95.7359Z" fill="#FBF7CE"/>
<path d="M209.798 88.3985C211.747 90.0035 213.695 91.4939 215.874 92.755C216.676 93.2136 217.364 91.9525 216.562 91.4939C214.498 90.2328 212.549 88.8571 210.715 87.3667C210.371 87.1374 210.027 87.0227 209.683 87.3667C209.568 87.596 209.568 88.1692 209.798 88.3985Z" fill="#005796"/>
<path d="M214.039 86.4494C216.103 87.7106 218.167 88.9717 220.23 90.1181C221.033 90.5767 221.721 89.3156 220.918 88.857C218.855 87.5959 216.791 86.3348 214.727 85.1883C213.925 84.7298 213.237 85.9909 214.039 86.4494Z" fill="#005796"/>
<path d="M218.74 83.1248C221.835 84.7298 224.816 86.7934 227.453 89.0864C228.141 89.6596 229.173 88.6278 228.485 88.0546C225.733 85.647 222.753 83.5834 219.542 81.8637C218.625 81.5197 217.937 82.7808 218.74 83.1248Z" fill="#005796"/>
<path d="M160.844 68.9087C163.48 68.2208 166.003 67.5329 168.64 66.845C169.557 66.6157 169.098 65.24 168.296 65.4693C165.659 66.1572 163.137 66.845 160.5 67.5329C159.583 67.7622 159.926 69.138 160.844 68.9087Z" fill="#005796"/>
<path d="M164.398 76.0167C166.576 75.0995 168.64 74.0677 170.818 73.1505C171.162 73.0359 171.276 72.4627 171.047 72.1187C170.818 71.7748 170.474 71.6601 170.015 71.8894C167.837 72.8066 165.773 73.8384 163.595 74.7556C163.251 74.8702 163.137 75.4435 163.366 75.7874C163.71 76.0167 164.054 76.1313 164.398 76.0167Z" fill="#005796"/>
<path d="M203.033 75.3288C203.377 81.1758 203.836 87.1374 200.282 92.1818C197.301 96.4237 192.371 99.1752 187.442 100.436C186.524 100.666 186.983 102.041 187.785 101.812C193.059 100.551 198.104 97.6848 201.314 93.2136C205.212 87.8252 204.868 81.6343 204.524 75.3288C204.409 74.4116 202.919 74.4116 203.033 75.3288Z" fill="#005796"/>
<path d="M171.047 107.774C171.964 107.086 172.881 106.398 173.684 105.71C173.799 105.595 173.913 105.366 173.913 105.251C173.913 105.022 173.799 104.908 173.684 104.793C173.569 104.678 173.34 104.564 173.225 104.564C172.996 104.564 172.881 104.678 172.767 104.793C171.85 105.481 170.932 106.169 170.13 106.857C170.015 106.971 169.901 107.2 169.901 107.315C169.901 107.544 170.015 107.659 170.13 107.774C170.245 107.888 170.474 108.003 170.589 108.003C170.703 108.003 170.818 107.888 171.047 107.774Z" fill="#005796"/>
<path d="M173.913 110.525C174.257 109.608 174.601 108.691 174.945 107.888C175.06 107.774 174.945 107.43 174.83 107.315C174.716 107.2 174.601 106.971 174.372 106.971C174.143 106.971 174.028 106.971 173.799 107.086C173.684 107.2 173.569 107.315 173.455 107.544C173.111 108.462 172.767 109.379 172.423 110.181C172.308 110.296 172.423 110.64 172.538 110.754C172.652 110.869 172.767 111.098 172.996 111.098C173.225 111.098 173.34 111.098 173.569 110.984C173.684 110.869 173.799 110.64 173.913 110.525Z" fill="#005796"/>
<path d="M196.843 95.1626C197.301 97.2262 197.645 99.2899 197.76 101.353C197.76 101.697 198.104 102.041 198.448 102.041C198.792 102.041 199.135 101.697 199.135 101.353C199.021 99.1752 198.677 96.8823 198.218 94.8187C198.104 93.9015 196.728 94.2454 196.843 95.1626Z" fill="#005796"/>
<path d="M197.416 99.8631C196.384 100.322 195.352 100.78 194.435 101.239C194.32 101.353 194.091 101.468 194.091 101.697C194.091 101.812 194.091 102.041 194.206 102.271C194.32 102.385 194.435 102.615 194.664 102.615C194.894 102.615 195.008 102.615 195.237 102.5C196.269 102.041 197.301 101.583 198.218 101.124C198.333 101.01 198.562 100.895 198.562 100.666C198.562 100.551 198.562 100.322 198.448 100.092C198.333 99.9777 198.218 99.7484 197.989 99.7484C197.76 99.7484 197.53 99.7484 197.416 99.8631Z" fill="#005796"/>
<path d="M197.301 101.124C197.186 102.041 197.072 102.959 196.957 103.99C196.957 104.105 197.072 104.334 197.186 104.449C197.301 104.564 197.53 104.678 197.645 104.678C197.874 104.678 197.989 104.564 198.104 104.449C198.218 104.334 198.333 104.105 198.333 103.99C198.448 103.073 198.562 102.156 198.677 101.124C198.677 101.01 198.562 100.78 198.448 100.666C198.333 100.551 198.104 100.436 197.989 100.436C197.76 100.436 197.645 100.551 197.53 100.666C197.301 100.78 197.301 100.895 197.301 101.124Z" fill="#005796"/>
<path d="M197.989 101.353C198.906 102.041 199.709 102.844 200.626 103.532C200.74 103.646 200.97 103.761 201.084 103.761C201.314 103.761 201.428 103.646 201.543 103.532C201.772 103.302 201.887 102.729 201.543 102.5C200.626 101.812 199.823 101.01 198.906 100.322C198.791 100.207 198.562 100.092 198.448 100.092C198.218 100.092 198.104 100.207 197.989 100.322C197.76 100.666 197.645 101.124 197.989 101.353Z" fill="#005796"/>
<path d="M192.486 97.5702C192.601 99.6338 192.027 101.583 190.996 103.303C190.537 104.105 191.798 104.793 192.257 103.99C193.403 102.041 194.091 99.7485 193.976 97.5702C193.976 97.2263 193.632 96.8823 193.288 96.8823C192.83 96.7677 192.486 97.1116 192.486 97.5702Z" fill="#005796"/>
<path d="M191.454 102.959C190.537 103.302 189.505 103.761 188.703 104.334C188.588 104.449 188.473 104.564 188.359 104.793C188.359 104.908 188.359 105.137 188.473 105.366C188.703 105.71 189.161 105.825 189.505 105.595C189.849 105.366 190.308 105.022 190.652 104.908C190.766 104.908 190.881 104.793 190.996 104.793H191.11C191.225 104.793 191.11 104.793 191.11 104.793C191.11 104.793 191.11 104.793 191.225 104.793C191.454 104.678 191.683 104.564 191.913 104.564C192.257 104.449 192.486 104.105 192.371 103.646C192.257 103.073 191.798 102.844 191.454 102.959Z" fill="#005796"/>
<path d="M190.881 104.105C190.881 104.22 190.996 104.449 190.996 104.564C190.996 104.449 190.996 104.449 190.996 104.334C190.996 104.564 190.996 104.793 190.996 105.022C190.996 104.908 190.996 104.908 190.996 104.793C190.996 105.022 190.881 105.251 190.881 105.366C190.881 105.366 190.881 105.251 190.996 105.251C190.881 105.481 190.766 105.595 190.652 105.825L190.766 105.71C190.766 105.71 190.766 105.71 190.652 105.825C190.537 105.939 190.422 106.169 190.422 106.283C190.422 106.513 190.537 106.627 190.652 106.742C190.881 106.971 191.454 107.086 191.683 106.742C192.027 106.283 192.257 105.825 192.371 105.366C192.486 104.793 192.486 104.334 192.257 103.761C192.142 103.417 191.798 103.188 191.34 103.302C191.11 103.302 190.766 103.761 190.881 104.105Z" fill="#005796"/>
<path d="M191.798 103.99C192.142 104.678 192.486 105.366 192.945 105.939C193.174 106.283 193.632 106.398 193.976 106.169C194.32 105.939 194.435 105.595 194.206 105.137C193.862 104.449 193.518 103.761 193.059 103.188C192.83 102.844 192.371 102.729 192.027 102.959C191.683 103.303 191.569 103.646 191.798 103.99Z" fill="#005796"/>
<path d="M210.027 69.9405C208.536 69.7112 206.931 70.2844 205.785 71.7748L204.18 73.9531L201.658 73.8384C200.167 73.8384 198.906 74.4117 198.104 75.3288C195.811 77.8511 197.186 81.8637 200.511 82.7808L209.798 85.1884L213.581 76.246C214.727 73.6091 213.008 70.3991 210.027 69.9405Z" fill="#EC6B74"/>
<path d="M116.361 83.1248L117.278 84.8445L119.342 84.1566C120.717 83.698 121.635 84.3859 122.093 85.5324C123.01 87.8253 121.52 91.494 119.342 92.8697L112.234 97.3409L110.285 89.3157C109.597 86.4495 111.775 82.3223 114.183 81.8637C114.985 81.6344 115.788 81.9783 116.361 83.1248Z" fill="#9ED5D5"/>
<path d="M144.679 90.806L144.449 92.6404L146.398 93.3282C147.659 93.7868 148.118 94.8186 147.774 95.9651C147.201 98.258 144.105 100.207 141.698 100.092L133.672 99.4045L136.539 92.0671C137.57 89.4303 141.354 87.4813 143.532 88.6277C144.449 88.9717 144.908 89.7742 144.679 90.806Z" fill="#F7CD9D"/>
<path d="M93.2024 112.818L91.9413 114.079L93.0877 115.799C93.8902 116.945 93.5463 117.977 92.6291 118.78C90.7948 120.27 87.1261 119.926 85.2918 118.206L79.4448 112.818L86.209 108.691C88.6165 107.2 92.8584 108.118 93.8902 110.181C94.1195 111.213 94.0049 112.13 93.2024 112.818Z" fill="#D8C24A"/>
<path d="M68.4388 90.1182V91.3793L69.6999 92.1818C70.5024 92.6404 70.8464 93.4429 70.7317 94.2454C70.5024 95.8505 68.7827 96.8823 67.1777 96.4237L62.2479 94.8187L63.6236 89.8889C64.0822 88.1692 66.3752 87.252 67.7509 88.2838C68.0948 88.6278 68.4388 89.3156 68.4388 90.1182Z" fill="#F9D0DB"/>
<path d="M41.2677 117.289L41.7262 116.487L40.8091 115.914C40.2358 115.57 40.1212 114.996 40.4651 114.423C41.153 113.391 43.102 112.818 44.3631 113.162L48.4904 114.423L45.7389 117.633C44.8217 118.78 42.4141 119.238 41.4969 118.55C41.153 118.206 41.0384 117.863 41.2677 117.289Z" fill="#F7CD9D"/>
<path d="M28.7712 105.939L28.198 106.513L29.1152 106.742C29.6884 106.856 29.6884 107.2 29.2298 107.544C28.4273 108.232 26.249 108.92 24.9879 108.805L20.9753 108.576L24.1854 106.283C25.3318 105.481 27.8541 104.907 28.7712 105.251C29.1152 105.251 29.1152 105.595 28.7712 105.939Z" fill="#6CC5CB"/>
<path fill-rule="evenodd" clip-rule="evenodd" d="M200.626 74.7556C200.511 74.7556 200.053 74.7556 199.823 74.5263C199.594 74.4116 199.25 74.0677 199.25 73.7238C199.021 71.8894 199.709 70.5137 201.199 69.3672C201.887 68.794 202.804 68.9086 203.607 69.2526C204.982 69.9404 206.243 70.743 207.275 72.0041C207.619 72.348 207.505 73.0359 207.046 73.2652C205.097 74.0677 203.033 74.8702 200.626 74.7556Z" fill="#F5EF74"/>
<path d="M196.384 72.2333C197.27 72.2333 197.989 71.5147 197.989 70.6283C197.989 69.7419 197.27 69.0233 196.384 69.0233C195.497 69.0233 194.779 69.7419 194.779 70.6283C194.779 71.5147 195.497 72.2333 196.384 72.2333Z" fill="#005796"/>
<path d="M872.591 81.1518L870.808 81.8201L869.806 80.0379C869.138 78.8126 868.024 78.7012 866.91 79.2582C864.793 80.2607 863.345 83.9365 864.014 86.3871L866.13 94.2958L872.813 89.8402C875.153 88.2807 876.378 83.9365 874.93 81.9315C874.484 81.1518 873.705 80.8176 872.591 81.1518Z" fill="#9ED5D5"/>
<path d="M877.158 79.0354L877.38 80.8176L875.487 81.486C874.262 81.9315 873.816 82.934 874.15 84.0479C874.707 86.2757 877.715 88.1694 880.054 88.058L887.851 87.3896L885.066 80.2607C884.064 77.6987 880.388 75.8051 878.272 76.919C877.38 77.1418 876.935 77.9215 877.158 79.0354Z" fill="#F7CD9D"/>
<path fill-rule="evenodd" clip-rule="evenodd" d="M853.989 54.641C855.214 54.5296 856.328 54.641 857.553 54.8638C857.664 54.8638 857.776 54.9751 857.776 55.0865C857.776 55.1979 857.776 55.3093 857.776 55.4207C857.664 55.5321 857.553 55.6435 857.442 55.7549C856.328 56.5346 855.214 57.4257 854.1 58.0941C851.872 59.5421 849.979 61.213 848.085 62.9952C847.528 63.5522 847.082 63.9977 846.526 64.5547C846.303 64.7774 845.969 64.7774 845.634 64.6661C844.632 64.2205 843.741 63.5522 842.85 62.8838C840.845 61.3244 838.728 59.8763 836.723 58.3168C836.166 57.8713 835.498 57.5371 834.83 57.2029C833.938 56.7574 833.047 56.5346 832.045 56.646C831.377 56.646 831.042 57.0916 831.154 57.6485C831.154 57.9827 831.265 58.3168 831.376 58.7624C831.376 59.0966 831.488 59.4307 831.488 59.6535C831.488 59.8763 831.265 59.9877 831.042 59.8763C830.82 59.7649 830.597 59.5421 830.374 59.4307C829.928 59.0966 829.483 59.0966 829.037 59.208C828.146 59.3193 827.812 59.7649 827.923 60.656C828.035 61.213 828.258 61.6585 828.48 62.1041C828.592 62.4383 828.815 62.661 829.037 62.8838C829.371 63.4408 829.26 63.7749 828.592 63.8863C828.258 63.9977 827.812 63.9977 827.478 64.1091C827.255 64.1091 827.144 64.5547 827.144 64.7774C827.255 65.0002 827.366 65.223 827.589 65.4458C828.258 66.1141 828.926 66.6711 829.706 67.1166C832.045 68.4533 834.495 69.1216 837.057 69.233C839.062 69.3444 841.179 69.5672 843.184 69.5672C844.409 69.5672 845.523 70.1242 846.526 70.9039C847.528 71.6836 848.531 72.4633 849.533 73.2431C851.204 74.5797 853.209 75.3595 855.103 76.1392C856.216 76.5848 857.219 76.362 858.221 75.6936C858.444 75.4709 858.778 75.3595 859.001 75.1367C860.004 74.0228 861.118 73.0203 862.009 71.9064C863.791 69.79 865.462 67.6736 867.244 65.5572C868.247 64.3319 869.36 63.1066 870.474 61.8813C872.034 60.3219 873.816 58.9852 875.821 57.8713C876.935 57.2029 878.049 56.7574 879.385 56.5346C880.165 56.3118 880.945 56.3118 881.725 56.5346C882.727 56.7574 883.507 57.2029 884.064 57.9827C884.175 58.2055 884.509 58.2055 884.509 57.9827C885.178 55.5321 885.735 53.0815 885.512 50.5196C885.512 50.074 885.401 49.6284 885.289 49.2943C884.955 48.1804 884.509 47.4006 883.396 46.8437C882.839 46.6209 882.282 46.2868 881.725 46.064C879.385 45.3956 877.046 45.3956 874.707 46.1754C872.813 46.8437 871.365 47.9576 869.806 49.0715C869.472 49.2943 869.138 49.6284 868.803 49.8512C868.692 49.9626 868.358 49.8512 868.358 49.6284C868.358 49.4057 868.358 49.0715 868.358 48.8487C868.358 47.8462 868.135 46.9551 867.69 46.064C866.13 42.8337 864.014 40.0489 861.006 37.9325C859.892 36.8186 858.556 36.1503 856.996 35.7047C853.32 34.4794 849.867 32.92 846.414 31.3605C844.966 30.6922 843.407 30.0239 841.847 29.4669C841.29 29.2441 840.733 29.1327 840.176 29.0213C839.619 28.91 839.285 29.2441 839.174 29.8011C838.951 30.4694 839.062 31.0264 839.397 31.5833C839.842 32.363 840.399 32.92 840.956 33.5883C841.29 33.9225 841.624 34.2567 841.959 34.5908C842.07 34.8136 841.959 35.2592 841.624 35.1478C841.29 35.1478 840.845 35.0364 840.51 35.0364C839.619 35.0364 838.84 34.925 837.948 34.925C837.503 34.925 836.946 35.0364 836.835 35.5933C836.723 36.0389 837.057 36.3731 837.392 36.7072C837.948 37.2642 838.728 37.5984 839.397 37.9325C839.731 38.1553 840.176 38.3781 840.51 38.6009C840.622 38.8236 840.622 39.0464 840.622 39.1578C840.622 39.2692 840.51 39.3806 840.399 39.3806C839.954 39.3806 839.508 39.492 838.951 39.492C838.06 39.492 837.169 39.8261 836.5 40.3831C836.389 40.4945 836.278 40.6059 836.166 40.7173C835.943 40.94 835.943 41.497 836.166 41.7198C836.5 42.0539 836.946 42.2767 837.392 42.4995C837.837 42.7223 838.394 42.9451 838.84 43.1678C839.397 43.502 839.397 43.9476 838.951 44.2817C838.617 44.5045 838.283 44.7273 838.06 44.9501C837.837 45.1729 837.614 45.3956 837.503 45.7298C837.28 46.1754 837.392 46.8437 837.837 47.1779C838.505 47.7348 839.174 48.069 839.954 48.2918C841.179 48.6259 842.515 48.9601 843.741 49.2943C843.964 49.4057 844.298 49.4057 844.52 49.5171C844.743 49.6284 844.855 49.7398 844.855 49.9626C844.855 50.1854 844.632 50.2968 844.52 50.4082C844.186 50.5196 843.964 50.6309 843.629 50.7423C843.072 50.9651 842.961 51.6335 843.518 51.9676C843.741 52.1904 843.964 52.4132 844.298 52.5246C844.632 52.7474 845.077 52.8587 845.412 53.0815C848.085 53.9726 850.981 54.5296 853.989 54.641ZM878.717 48.4032C878.717 47.9576 879.163 47.512 879.72 47.6234C880.165 47.7348 880.611 48.1804 880.499 48.6259C880.388 49.0715 879.942 49.4057 879.497 49.2943C879.051 49.2943 878.717 48.8487 878.717 48.4032Z" fill="#F5B9CC"/>
<path fill-rule="evenodd" clip-rule="evenodd" d="M880.945 67.4508C881.056 67.228 881.279 67.0052 881.39 66.7825C883.061 64.3319 884.287 61.6585 884.955 58.7624C885.178 57.8713 885.401 56.9802 885.623 56.2004C885.846 55.4207 885.846 55.4207 886.737 55.4207C886.849 55.4207 886.96 55.4207 887.294 55.4207C887.962 55.5321 888.742 55.5321 889.633 55.6435C892.195 56.0891 894.534 56.7574 896.762 58.2055C897.542 58.7624 898.433 59.4307 899.101 60.0991C901.218 61.8813 903.334 63.5522 905.562 65.223C906.787 66.1141 908.124 67.0052 909.349 67.8964C910.129 68.4533 910.909 69.1216 911.688 69.79C912.023 70.0128 912.357 70.3469 912.58 70.6811C913.248 71.4608 913.025 72.1292 912.245 72.6861C912.023 72.7975 911.911 72.9089 911.688 72.9089C911.132 73.0203 910.686 73.1317 910.129 73.0203C909.238 72.7975 908.235 72.5747 907.344 72.352C907.122 72.352 906.899 72.352 906.787 72.5747C906.787 72.6861 906.676 72.9089 906.787 73.0203C906.899 73.2431 907.122 73.5772 907.344 73.8C907.79 74.357 908.235 75.0253 908.57 75.6936C908.792 76.0278 908.792 76.362 908.904 76.6962C909.015 77.0303 908.681 77.4759 908.235 77.4759C907.678 77.4759 907.233 77.3645 906.676 77.1417C906.119 76.8075 905.451 76.4734 904.894 76.1392C904.671 76.0278 904.448 75.9164 904.225 75.805C904.114 75.805 904.003 75.805 903.891 75.9164C903.78 76.0278 903.668 76.2506 903.78 76.362C904.003 76.8075 904.225 77.2531 904.448 77.5873C904.894 78.4784 905.005 79.4809 904.894 80.4834C904.782 80.929 904.337 81.2631 903.891 81.0404C903.446 80.929 903 80.7062 902.666 80.4834C902.109 80.1492 901.663 79.8151 901.218 79.5923C900.884 79.3695 900.438 79.5923 900.438 80.0378C900.327 80.5948 900.327 81.1517 900.104 81.7087C899.881 82.4884 899.101 82.8226 898.322 82.4884C897.653 82.1543 896.985 81.7087 896.539 81.2631C895.537 80.2606 894.534 79.3695 893.643 78.367C893.421 78.1442 893.309 78.0328 893.086 77.81C892.975 77.6987 892.752 77.81 892.641 77.81C892.529 77.9214 892.418 78.0328 892.418 78.1442C892.418 78.4784 892.529 78.9239 892.641 79.2581C892.752 79.9265 892.307 80.2606 891.638 80.0378C891.081 79.9265 890.524 79.5923 890.079 79.2581C889.411 78.7012 888.742 78.0328 888.074 77.4759C886.292 75.6936 884.844 73.6886 883.618 71.5722C882.95 70.4583 882.17 69.3444 881.168 68.4533C880.945 67.8964 880.834 67.6736 880.945 67.4508Z" fill="#E1A8B9"/>
<path fill-rule="evenodd" clip-rule="evenodd" d="M869.36 75.6936C866.241 76.9189 862.9 77.0303 859.335 77.2531C858.89 77.1417 858.11 77.1417 857.442 77.0303C857.33 77.0303 856.885 76.9189 856.885 76.8075C856.662 76.6961 855.994 76.3619 855.994 76.3619C857.219 76.2505 858.556 75.5822 859.113 75.0253C860.449 73.8 861.563 72.3519 862.788 70.9038C864.793 68.4533 866.798 66.1141 868.915 63.7749C870.029 62.5496 871.143 61.3243 872.368 60.2104C873.927 58.7624 875.71 57.5371 877.715 56.646C878.606 56.2004 879.608 55.8662 880.611 55.6434C881.502 55.4207 882.393 55.6434 883.284 55.9776C884.509 56.4232 885.623 57.9826 884.732 59.4307C884.621 59.6535 884.621 59.8763 884.509 60.099C882.839 64.3318 880.499 68.4533 877.046 71.3494C876.935 71.1266 872.479 74.8025 869.36 75.6936Z" fill="#FBF7CE"/>
<path fill-rule="evenodd" clip-rule="evenodd" d="M883.841 47.0665C883.841 47.2892 883.841 47.4006 883.841 47.6234C884.064 48.5145 884.398 49.4057 884.621 50.2968C884.955 51.6334 885.289 51.7448 886.403 50.8537C886.849 50.5195 887.183 50.074 887.628 49.6284C888.074 49.1829 887.962 48.7373 887.517 48.5145C886.403 47.9576 885.289 47.4006 884.175 46.9551C884.175 46.9551 883.952 47.0665 883.841 47.0665Z" fill="#F5EF74"/>
<path fill-rule="evenodd" clip-rule="evenodd" d="M878.717 48.4032C878.717 48.8488 878.94 49.1829 879.385 49.2943C879.831 49.4057 880.388 49.0715 880.388 48.626C880.499 48.1804 880.165 47.7349 879.608 47.6235C879.274 47.6235 878.829 47.9576 878.717 48.4032Z" fill="#005796"/>
<path d="M891.638 62.5496C894.2 63.8863 896.651 65.5571 898.656 67.6735C899.324 68.3419 898.322 69.233 897.653 68.676C895.648 66.7824 893.309 65.1116 890.859 63.7749C890.079 63.3293 890.859 62.104 891.638 62.5496Z" fill="#005796"/>
<path d="M887.74 68.2305C889.299 69.0103 890.747 70.0128 891.75 71.4608C891.972 71.795 892.084 72.1292 891.75 72.4633C891.527 72.6861 890.97 72.7975 890.747 72.4633C890.19 71.795 889.633 71.2381 888.965 70.6811C888.965 70.6811 888.854 70.5697 888.854 70.6811C888.965 70.6811 888.742 70.6811 888.742 70.5697C888.631 70.4583 888.519 70.4583 888.519 70.3469C888.408 70.2355 888.185 70.1242 887.962 70.0128C887.628 69.79 887.183 69.5672 886.849 69.4558C886.514 69.3444 886.403 68.7875 886.626 68.4533C886.96 68.1191 887.405 68.0077 887.74 68.2305Z" fill="#005796"/>
<path d="M853.989 43.3906C851.872 42.3881 849.756 41.497 847.528 40.8287C846.637 40.6059 847.082 39.2692 847.862 39.492C850.201 40.1603 852.429 41.0514 854.657 42.1653C854.991 42.2767 855.103 42.8337 854.88 43.1678C854.657 43.502 854.323 43.502 853.989 43.3906Z" fill="#005796"/>
<path d="M854.768 49.6285C852.318 48.626 849.644 47.9576 846.971 47.7349C846.637 47.7349 846.303 47.4007 846.303 47.0665C846.303 46.7324 846.637 46.2868 846.971 46.3982C849.756 46.621 852.541 47.2893 855.103 48.2918C855.437 48.4032 855.659 48.7374 855.548 49.1829C855.548 49.4057 855.103 49.7399 854.768 49.6285Z" fill="#005796"/>
<path d="M838.84 63.5522C838.728 63.4408 838.617 63.3294 838.505 63.218C838.394 63.218 838.394 63.1066 838.283 63.1066C838.283 63.1066 838.171 62.9952 838.283 63.1066C838.394 63.1066 838.283 63.1066 838.283 63.1066C838.06 62.8838 837.726 62.7725 837.503 62.5497C837.28 62.4383 836.946 62.2155 836.723 62.1041C836.612 62.1041 836.612 61.9927 836.5 61.9927C836.389 61.9927 836.5 61.9927 836.5 61.9927H836.389C836.278 61.8813 836.055 61.8813 835.943 61.7699C835.609 61.6586 835.387 61.3244 835.498 60.8788C835.609 60.5447 835.943 60.3219 836.389 60.4333C837.726 60.8788 838.951 61.6586 839.953 62.5497C840.176 62.7725 840.176 63.3294 839.953 63.5522C839.508 63.775 839.062 63.775 838.84 63.5522Z" fill="#005796"/>
<path d="M837.28 66.2255C836.278 65.8914 835.275 65.5572 834.273 65.223C833.938 65.1116 833.716 64.7775 833.827 64.3319C833.938 63.9977 834.273 63.7749 834.718 63.8863C835.721 64.2205 836.723 64.5547 837.726 64.8888C838.06 65.0002 838.283 65.3344 838.171 65.78C838.06 66.1141 837.614 66.3369 837.28 66.2255Z" fill="#005796"/>
<path d="M885.846 53.6385C885.735 60.5447 882.839 67.3394 877.603 72.0178C875.153 74.2456 872.145 75.9164 869.026 77.0303C865.462 78.2556 861.786 78.367 857.999 78.2556C857.108 78.2556 857.108 76.8076 857.999 76.8076C861.452 77.0303 864.682 76.9189 868.024 75.9164C871.143 74.9139 874.15 73.2431 876.601 71.1267C881.502 66.7825 884.398 60.3219 884.398 53.7499C884.398 52.7474 885.846 52.7474 885.846 53.6385Z" fill="#005796"/>
<path d="M875.264 70.2355C876.378 71.795 877.269 73.4658 877.826 75.2481C877.937 75.5822 877.715 76.0278 877.38 76.1392C877.046 76.2506 876.601 76.0278 876.489 75.6936C875.932 74.0228 875.153 72.4633 874.039 71.0153C873.816 70.6811 874.039 70.2355 874.262 70.0128C874.707 69.79 875.041 69.9014 875.264 70.2355Z" fill="#005796"/>
<path d="M878.606 74.4684C879.497 74.6911 880.388 74.9139 881.279 75.2481C881.613 75.3595 881.836 75.6937 881.725 76.1392C881.613 76.4734 881.279 76.6962 880.834 76.5848C879.942 76.362 879.051 76.1392 878.16 75.805C877.826 75.6937 877.603 75.3595 877.715 74.9139C877.826 74.5798 878.16 74.357 878.606 74.4684Z" fill="#005796"/>
<path d="M878.717 75.9164C878.829 76.9189 878.94 77.9214 879.163 78.924C879.163 79.1467 879.163 79.2581 879.051 79.4809C878.94 79.5923 878.829 79.8151 878.606 79.8151C878.272 79.9265 877.826 79.7037 877.715 79.3695C877.603 78.367 877.492 77.3645 877.269 76.362C877.269 76.1392 877.269 76.0278 877.38 75.805C877.492 75.6936 877.603 75.4709 877.826 75.4709C878.16 75.3595 878.606 75.5823 878.717 75.9164Z" fill="#005796"/>
<path d="M877.826 75.9164C877.38 76.4733 876.935 77.0303 876.489 77.5872C876.378 77.6986 876.155 77.81 876.044 77.81C875.821 77.81 875.71 77.6986 875.598 77.5872C875.487 77.4758 875.375 77.2531 875.375 77.1417C875.375 77.0303 875.375 77.0303 875.375 76.9189C875.375 76.8075 875.487 76.6961 875.598 76.5847C876.044 76.0278 876.489 75.4708 876.935 74.9139C877.046 74.8025 877.269 74.6911 877.38 74.6911C877.603 74.6911 877.715 74.8025 877.826 74.9139C877.937 75.0253 878.049 75.248 878.049 75.3594C878.049 75.4708 878.049 75.4708 878.049 75.5822C878.049 75.805 877.937 75.805 877.826 75.9164Z" fill="#005796"/>
<path d="M870.474 72.1292C870.252 74.1342 870.029 76.1392 869.917 78.0328C869.917 78.367 869.583 78.7011 869.249 78.7011C868.915 78.7011 868.469 78.367 868.581 78.0328C868.803 76.0278 869.026 74.0228 869.138 72.1292C869.138 71.795 869.472 71.4608 869.806 71.4608C870.14 71.4608 870.586 71.795 870.474 72.1292Z" fill="#005796"/>
<path d="M870.029 76.9189C870.697 77.5873 871.365 78.2556 872.034 78.9239C872.257 79.1467 872.257 79.7037 872.034 79.9264C871.7 80.1492 871.365 80.1492 871.031 79.9264C870.363 79.2581 869.695 78.5898 869.026 77.9214C868.803 77.6986 868.803 77.1417 869.026 76.9189C869.249 76.6961 869.695 76.6961 870.029 76.9189Z" fill="#005796"/>
<path d="M869.695 78.4785C869.583 78.7012 869.472 78.924 869.36 79.0354C869.36 79.0354 869.36 79.0354 869.36 79.1468C869.36 79.0354 869.36 79.0354 869.36 79.1468V79.2582C869.36 79.3696 869.249 79.481 869.249 79.5924C869.249 79.7037 869.138 79.8151 869.138 79.9265V80.0379V80.1493C869.138 80.0379 869.138 80.0379 869.138 80.1493C869.138 80.3721 869.138 80.5949 869.138 80.8176C869.138 81.1518 868.803 81.486 868.469 81.486C868.135 81.486 867.801 81.1518 867.801 80.8176C867.801 79.8151 868.024 78.7012 868.692 77.8101C868.915 77.4759 869.36 77.3646 869.695 77.5873C869.806 77.6987 869.917 78.1443 869.695 78.4785Z" fill="#005796"/>
<path d="M869.026 78.8126C868.358 78.924 867.69 79.0353 867.021 79.1467C866.798 79.1467 866.687 79.1467 866.464 79.0353C866.353 78.924 866.13 78.8126 866.13 78.5898C866.13 78.367 866.13 78.2556 866.241 78.0328C866.353 77.9214 866.464 77.6987 866.687 77.6987C867.355 77.5873 868.024 77.4759 868.692 77.3645C868.915 77.3645 869.026 77.3645 869.249 77.4759C869.36 77.5873 869.583 77.6987 869.583 77.9215C869.583 78.1442 869.583 78.2556 869.472 78.4784C869.36 78.5898 869.138 78.8126 869.026 78.8126Z" fill="#005796"/>
<path d="M880.165 87.3896L878.049 87.8351L876.489 86.0529C875.487 84.8276 874.039 84.4934 872.813 84.939C870.363 85.7187 869.026 88.8376 870.14 91.2882L873.816 98.9741L881.502 95.521C884.175 94.2957 885.178 90.3971 883.173 88.3921C882.504 87.5009 881.502 87.0554 880.165 87.3896Z" fill="#F08B6B"/>
<path d="M804.754 91.1768L805.534 89.5059L803.752 88.392C802.638 87.6123 802.527 86.4984 803.084 85.4959C804.309 83.4909 807.873 82.2656 810.324 83.0453L818.01 85.7187L813.109 92.0679C811.326 94.2957 806.982 95.2982 805.089 93.7387C804.532 93.0704 804.309 92.2907 804.754 91.1768Z" fill="#F08B6B"/>
<path d="M847.417 89.6174L847.194 91.3996L849.087 92.0679C850.313 92.5135 850.758 93.516 850.424 94.6299C849.867 96.8577 846.86 98.7513 844.52 98.6399L836.723 97.9716L839.508 90.8427C840.51 88.2807 844.186 86.3871 846.303 87.501C847.082 87.8351 847.528 88.5035 847.417 89.6174Z" fill="#F7CD9D"/>
<path d="M797.403 111.004L796.177 112.229L797.291 113.9C798.071 115.014 797.737 116.017 796.846 116.796C795.063 118.245 791.499 117.91 789.717 116.24L784.036 111.004L790.608 106.994C792.947 105.546 797.068 106.437 798.071 108.442C798.182 109.333 798.182 110.224 797.403 111.004Z" fill="#D8C24A"/>
<path d="M773.231 88.8376V90.0629L774.456 90.8426C775.236 91.2882 775.57 92.0679 775.459 92.8476C775.236 94.4071 773.565 95.4096 772.006 94.964L767.216 93.516L768.553 88.7262C768.998 87.0554 771.226 86.1643 772.563 87.1668C773.008 87.5009 773.342 88.0579 773.231 88.8376Z" fill="#F9D0DB"/>
<path d="M746.943 115.348L747.389 114.569L746.498 114.012C745.941 113.678 745.829 113.121 746.163 112.564C746.832 111.561 748.725 111.004 749.951 111.338L753.961 112.564L751.287 115.683C750.396 116.797 748.057 117.242 747.166 116.574C746.832 116.24 746.609 115.794 746.943 115.348Z" fill="#F7CD9D"/>
<path d="M879.608 50.074C878.747 50.074 878.049 49.3758 878.049 48.5145C878.049 47.6533 878.747 46.9551 879.608 46.9551C880.47 46.9551 881.168 47.6533 881.168 48.5145C881.168 49.3758 880.47 50.074 879.608 50.074Z" fill="#005796"/>
<path d="M28.4485 184.212C16.1585 181.663 4.92188 190.919 0.0800728 201.5C-0.323476 202.399 0.97375 203.104 1.3769 202.305C5.91634 192.323 16.3522 183.264 28.0426 185.71C28.9422 185.814 29.3477 184.416 28.4485 184.212Z" fill="#D9E476"/>
<path d="M38.5488 184.152C38.8524 183.253 38.6567 182.152 37.8595 181.449L36.5639 180.344L36.8702 178.745C37.0737 177.846 36.7769 177.045 36.2789 176.543C34.9848 175.038 32.2824 175.627 31.4746 177.624L29.0521 183.314L34.241 186.135C35.8378 186.941 38.0417 185.95 38.5488 184.152Z" fill="#D9E476"/>
<path d="M19.6584 181.677C19.3549 182.576 19.5505 183.677 20.3478 184.38L21.5434 185.485L21.2375 186.984C21.034 187.883 21.3308 188.684 21.8284 189.286C23.1225 190.791 25.8248 190.202 26.6327 188.205L29.0552 182.514L23.8663 179.694C22.3695 178.888 20.1659 179.779 19.6584 181.677Z" fill="#D9E476"/>
<path d="M30.5959 172.22C29.6967 172.017 28.6959 172.213 27.9923 173.11L26.8872 174.406L25.388 174.2C24.4884 174.096 23.6872 174.393 23.1853 174.891C21.6794 176.385 22.1687 179.087 24.0655 179.895L29.1521 183.315L32.2789 176.527C33.1856 174.831 32.3943 172.628 30.5959 172.22Z" fill="#F7CD9D"/>
<path d="M27.213 193.207C28.1122 193.411 29.113 193.215 29.9165 192.318L31.0217 191.022L32.5209 191.228C33.4205 191.332 34.2216 191.035 34.7236 190.537C36.2295 189.043 35.7402 186.341 33.8433 185.533L29.1552 182.515L25.6304 188.801C24.6237 190.497 25.415 192.7 27.213 193.207Z" fill="#F7CD9D"/>
<path d="M954.995 147.047C963.84 155.953 978.318 154.433 988.194 148.279C989.026 147.753 988.333 146.449 987.556 146.892C978.263 152.713 964.561 154.511 956.161 146.021C955.467 145.438 954.358 146.381 954.995 147.047Z" fill="#D9E476"/>
<path d="M946.538 141.524C945.789 142.107 945.345 143.133 945.622 144.159L946.093 145.796L944.955 146.96C944.289 147.598 944.095 148.43 944.233 149.123C944.482 151.092 947.061 152.092 948.837 150.872L953.997 147.462L951.225 142.247C950.338 140.694 947.953 140.305 946.538 141.524Z" fill="#D9E476"/>
<path d="M960.928 154.011C961.677 153.428 962.121 152.402 961.844 151.376L961.457 149.795L962.539 148.714C963.205 148.076 963.399 147.244 963.316 146.467C963.067 144.498 960.488 143.499 958.713 144.718L953.553 148.128L956.324 153.343C957.128 154.841 959.458 155.314 960.928 154.011Z" fill="#D9E476"/>
<path d="M946.588 155.864C947.226 156.529 948.169 156.918 949.251 156.558L950.887 156.087L952.024 157.086C952.717 157.669 953.549 157.863 954.243 157.725C956.323 157.309 957.406 154.786 956.269 153.066L953.914 147.407L947.561 151.343C945.869 152.258 945.313 154.532 946.588 155.864Z" fill="#F7CD9D"/>
<path d="M960.989 140.226C960.351 139.56 959.408 139.172 958.243 139.476L956.607 139.947L955.47 138.948C954.777 138.366 953.945 138.171 953.251 138.31C951.171 138.725 950.088 141.248 951.225 142.968L953.47 148.072L959.878 144.774C961.653 143.915 962.208 141.641 960.989 140.226Z" fill="#F7CD9D"/>
<path d="M791.242 23.1276C803.664 24.9269 814.319 15.0076 818.511 4.15272C818.859 3.23151 817.522 2.60626 817.168 3.42763C813.241 13.6664 803.373 23.3408 791.556 21.6073C790.652 21.5585 790.332 22.9789 791.242 23.1276Z" fill="#D9E476"/>
<path d="M781.164 23.7994C780.915 24.7149 781.177 25.8019 782.016 26.4554L783.376 27.48L783.167 29.0945C783.018 30.0043 783.363 30.7861 783.891 31.2569C785.273 32.6809 787.935 31.929 788.62 29.8869L790.694 24.0601L785.344 21.5591C783.701 20.851 781.561 21.974 781.164 23.7994Z" fill="#D9E476"/>
<path d="M800.169 25.1251C800.418 24.2096 800.156 23.1227 799.318 22.4691L798.057 21.4389L798.272 19.9243C798.42 19.0144 798.076 18.2327 797.542 17.6619C796.16 16.238 793.498 16.9899 792.812 19.032L790.739 24.8588L796.089 27.3598C797.632 28.0736 799.778 27.0504 800.169 25.1251Z" fill="#D9E476"/>
<path d="M789.825 35.2272C790.735 35.3759 791.722 35.1196 792.37 34.1814L793.394 32.8212L794.903 32.9359C795.808 32.9848 796.589 32.64 797.06 32.1124C798.473 30.5299 797.821 27.8625 795.878 27.1714L790.594 24.0657L787.884 31.0304C787.082 32.7786 788.005 34.9298 789.825 35.2272Z" fill="#F7CD9D"/>
<path d="M791.93 14.074C791.02 13.9253 790.033 14.1816 789.286 15.1255L788.261 16.4857L786.752 16.3709C785.848 16.3221 785.066 16.6669 784.595 17.1944C783.183 18.777 783.835 21.4443 785.777 22.1354L790.639 24.8644L793.777 18.3763C794.679 16.6224 793.756 14.4712 791.93 14.074Z" fill="#F7CD9D"/>
<path d="M194.772 28.8556C201.461 18.235 215.922 16.5609 226.902 20.4125C227.829 20.7449 227.437 22.1685 226.582 21.9051C216.243 18.2511 202.479 19.4848 196.133 29.6026C195.583 30.3224 194.295 29.6445 194.772 28.8556Z" fill="#D9E476"/>
<path d="M187.722 36.0895C186.864 35.6847 186.207 34.7802 186.254 33.7183L186.356 32.0184L184.992 31.1301C184.203 30.653 183.832 29.8834 183.816 29.1765C183.629 27.2004 185.928 25.6626 187.927 26.4657L193.706 28.6678L192.139 34.3619C191.612 36.0714 189.369 36.9714 187.722 36.0895Z" fill="#D9E476"/>
<path d="M199.043 20.7657C199.901 21.1705 200.558 22.0749 200.512 23.1369L200.478 24.7645L201.77 25.5837C202.559 26.0608 202.93 26.8303 203.018 27.6063C203.205 29.5825 200.906 31.1203 198.907 30.3172L193.128 28.1151L194.695 22.421C195.153 20.7838 197.324 19.8147 199.043 20.7657Z" fill="#D9E476"/>
<path d="M184.644 22.0847C185.121 21.2958 185.957 20.7109 187.091 20.8264L188.791 20.9291L189.682 19.7063C190.232 18.9865 191.001 18.6152 191.708 18.5991C193.829 18.5507 195.436 20.7773 194.702 22.7038L193.637 28.74L186.579 26.2842C184.728 25.7607 183.69 23.6625 184.644 22.0847Z" fill="#F7CD9D"/>
<path d="M202.108 34.205C201.631 34.9939 200.796 35.5788 199.592 35.5356L197.892 35.4329L197.001 36.6557C196.452 37.3755 195.682 37.7467 194.975 37.7629C192.854 37.8113 191.247 35.5847 191.981 33.6582L193.059 28.1875L200.032 30.0087C201.952 30.4599 202.99 32.5581 202.108 34.205Z" fill="#F7CD9D"/>
</svg>
