<svg width="440" height="150" viewBox="0 0 440 150" fill="none" xmlns="http://www.w3.org/2000/svg">
<path d="M105.107 106.916C100.317 104.321 95.526 101.033 90.9095 97.14C86.2931 93.2468 82.1993 89.1807 78.8023 84.7684C77.3216 82.9517 75.4925 82 73.1407 82C70.876 82 69.134 82.9517 67.7404 84.9415C64.866 89.0076 61.2077 92.9873 56.6784 97.14C52.1491 101.206 47.3585 104.753 42.3936 107.695C41.6097 108.127 41.2613 108.819 41.0871 109.684C41 109.858 41 110.031 41 110.204C41 110.896 41.2613 111.501 41.6968 112.02C42.3065 112.799 43.0905 113.318 44.0486 113.491C44.3099 113.578 44.6583 113.664 44.9196 113.664C45.5293 113.664 46.139 113.491 46.7487 113.145C48.4908 112.107 50.1457 110.982 51.8007 109.771C51.8878 109.684 51.9749 109.771 52.062 109.771C52.1491 109.858 52.2362 109.944 52.2362 110.031C52.2362 111.415 52.7588 112.539 53.7169 113.491C54.675 114.443 55.8074 114.962 57.201 114.962H69.3082C69.8308 114.962 70.005 115.221 70.005 115.654V124.392C70.005 124.911 69.7437 125.084 69.3082 125.084H51.7136C50.9296 125.084 50.2328 125.344 49.6231 125.949C49.0134 126.555 48.7521 127.247 48.7521 128.025C48.7521 128.804 49.0134 129.583 49.6231 130.188C50.2328 130.794 50.9296 131.053 51.7136 131.053H69.2211C69.7437 131.053 69.9179 131.313 69.9179 131.746V141.003C69.9179 141.522 69.6566 141.695 69.2211 141.695H45.8777C45.0067 141.695 44.3099 141.954 43.7002 142.56C43.0905 143.165 42.8291 143.858 42.8291 144.723C42.8291 145.588 43.0905 146.28 43.7002 146.885C44.3099 147.491 45.0067 147.751 45.8777 147.751H102.233C103.104 147.751 103.801 147.491 104.41 146.885C105.02 146.28 105.281 145.588 105.281 144.723C105.281 143.858 105.02 143.165 104.41 142.56C103.801 141.954 103.104 141.695 102.233 141.695H77.9313C77.4087 141.695 77.2345 141.435 77.2345 141.003V131.832C77.2345 131.313 77.4958 131.14 77.9313 131.14H95.8744C96.6583 131.14 97.3551 130.88 97.9648 130.275C98.5745 129.669 98.8358 128.977 98.8358 128.112C98.8358 127.333 98.5745 126.641 97.9648 126.036C97.3551 125.43 96.6583 125.17 95.8744 125.17H77.9313C77.4087 125.17 77.2345 124.911 77.2345 124.478V115.654C77.2345 115.135 77.4958 114.962 77.9313 114.962H90.8224C92.2161 114.962 93.3484 114.443 94.3065 113.491C95.2647 112.539 95.7873 111.415 95.7873 110.031C95.7873 109.858 95.8744 109.771 95.9615 109.771C96.0486 109.684 96.1357 109.684 96.2228 109.771C97.7906 110.896 99.2714 111.847 100.752 112.712C101.362 113.059 102.059 113.318 102.668 113.318C102.93 113.318 103.278 113.232 103.626 113.145C104.672 112.885 105.456 112.366 106.065 111.501C106.501 110.896 106.675 110.29 106.675 109.598C106.675 109.338 106.675 109.079 106.588 108.906C106.501 108.041 105.978 107.349 105.107 106.916ZM94.3936 108.733C94.3065 108.819 94.3065 108.906 94.2194 108.906H53.7169C53.6298 108.906 53.5427 108.819 53.5427 108.733C53.4556 108.646 53.5427 108.56 53.6298 108.473C57.6365 105.532 61.2948 102.417 64.6918 99.0433C68.0888 95.6692 70.876 92.4682 73.1407 89.3537C73.2278 89.1807 73.402 89.1807 73.5762 89.1807C73.7504 89.1807 73.9246 89.2672 74.0117 89.3537C78.6281 95.6692 85.4221 101.985 94.3936 108.473C94.4807 108.56 94.4807 108.646 94.3936 108.733Z" fill="#0061BB"/>
<path d="M178.534 136.677C172.96 133.649 168.256 129.15 164.511 123.181C164.25 122.748 164.337 122.402 164.772 122.142C168.518 120.066 172.176 117.644 175.747 115.048C176.531 114.443 176.879 113.664 176.879 112.712C176.879 111.847 176.531 111.155 175.834 110.55C175.137 109.944 174.266 109.598 173.221 109.598H173.134C172.089 109.598 171.218 109.944 170.434 110.55C167.821 112.712 164.946 114.789 161.811 116.865C161.375 117.125 161.027 117.038 160.853 116.606C159.459 113.664 158.327 110.55 157.456 107.349C157.369 107.176 157.456 107.089 157.543 106.916C157.63 106.743 157.804 106.743 157.978 106.743H165.208C165.992 106.743 166.688 106.483 167.298 105.878C167.908 105.272 168.169 104.58 168.169 103.802C168.169 103.023 167.908 102.331 167.298 101.725C166.688 101.12 165.992 100.86 165.208 100.86H130.454C129.67 100.86 128.973 101.12 128.363 101.725C127.754 102.331 127.492 103.023 127.492 103.802C127.492 104.58 127.754 105.272 128.363 105.878C128.973 106.483 129.67 106.743 130.454 106.743H140.471C140.558 106.743 140.645 106.83 140.645 106.916C140.645 107.003 140.645 107.089 140.558 107.176C135.07 110.29 128.189 112.885 120.002 115.048C119.305 115.221 118.782 115.654 118.521 116.433C118.26 117.125 118.347 117.817 118.782 118.336C119.305 119.115 120.002 119.72 120.873 120.066C121.395 120.239 121.831 120.326 122.353 120.326C122.702 120.326 123.137 120.239 123.486 120.153C128.625 118.595 133.328 116.779 137.596 114.789C138.032 114.529 138.467 114.616 138.816 114.962C139.338 115.394 139.861 115.913 140.471 116.519C140.819 116.865 140.819 117.125 140.384 117.471C137.945 119.115 134.896 120.845 131.238 122.489C127.58 124.132 124.008 125.603 120.524 126.641C119.827 126.901 119.305 127.333 119.044 128.112C118.782 128.804 118.869 129.496 119.305 130.102C119.827 130.88 120.437 131.399 121.221 131.746C121.657 131.919 122.092 131.919 122.528 131.919C122.963 131.919 123.399 131.832 123.834 131.746C131.238 128.804 137.771 125.344 143.519 121.537C143.868 121.277 144.216 121.364 144.477 121.796C145 122.575 145.436 123.44 145.784 124.305C146.045 124.738 145.958 125.084 145.523 125.344C142.213 128.198 138.119 130.967 133.067 133.562C128.015 136.158 123.05 138.234 117.998 139.791C117.302 140.051 116.779 140.57 116.518 141.262C116.43 141.522 116.343 141.868 116.343 142.127C116.343 142.56 116.43 142.992 116.692 143.425C117.214 144.29 117.911 144.896 118.869 145.242C119.392 145.415 119.827 145.501 120.263 145.501C120.698 145.501 121.134 145.415 121.657 145.242C126.099 143.598 130.628 141.435 135.157 139.013C139.687 136.504 143.781 133.908 147.352 131.226C147.526 131.14 147.613 131.14 147.787 131.14C147.961 131.226 148.049 131.313 148.049 131.486C148.136 132.438 148.223 133.389 148.223 134.254C148.223 135.552 148.136 136.763 147.874 137.888C147.352 139.791 146.568 141.176 145.523 141.954C144.477 142.992 142.91 143.425 140.645 143.425C139.513 143.425 138.293 143.425 137.161 143.338C136.464 143.252 135.854 143.598 135.419 144.204C134.983 144.809 134.809 145.501 135.07 146.28C135.332 147.318 135.767 148.097 136.551 148.789C137.335 149.481 138.119 149.827 139.164 149.827C140.209 149.913 141.168 149.913 142.039 149.913C143.868 149.913 145.348 149.74 146.568 149.308C147.787 148.875 149.094 148.183 150.4 147.145C152.229 145.847 153.449 143.858 154.32 141.176C154.93 139.099 155.278 136.85 155.278 134.514C155.278 133.822 155.278 133.043 155.191 132.178C154.93 128.891 153.797 125.43 151.968 121.71C150.139 117.99 147.613 114.702 144.39 111.847C144.216 111.761 144.216 111.588 144.216 111.415C144.216 111.242 144.303 111.069 144.477 110.982C146.829 109.598 148.833 108.214 150.662 106.743C150.749 106.656 150.749 106.656 150.836 106.656C150.923 106.656 150.923 106.656 150.923 106.743C155.452 123.959 163.03 135.812 173.657 142.387C174.266 142.733 174.963 142.992 175.573 142.992C175.834 142.992 176.183 142.906 176.618 142.819C177.663 142.56 178.447 141.954 179.144 141.089C179.667 140.483 179.841 139.878 179.841 139.186C179.841 139.013 179.841 138.84 179.754 138.58C179.754 137.802 179.318 137.109 178.534 136.677Z" fill="#0061BB"/>
<path d="M120.873 103.715C121.831 103.715 122.615 103.369 123.224 102.677C123.834 101.985 124.183 101.206 124.183 100.341V95.4097C124.183 94.8906 124.444 94.7176 124.879 94.7176H171.305C171.827 94.7176 172.002 94.9771 172.002 95.4097V100.341C172.002 101.293 172.35 102.158 173.047 102.763C173.744 103.455 174.528 103.802 175.486 103.802C176.444 103.802 177.315 103.455 177.925 102.763C178.621 102.071 178.97 101.293 178.97 100.341V94.7176C178.97 92.9873 178.36 91.5165 177.141 90.3054C175.921 89.0942 174.441 88.4886 172.698 88.4886H152.229C151.794 88.4886 151.62 88.229 151.62 87.883V85.7201C151.62 84.7685 151.271 83.9033 150.575 83.2112C149.878 82.5191 149.007 82.173 148.049 82.173C147.09 82.173 146.219 82.5191 145.523 83.2112C144.826 83.9033 144.477 84.7685 144.477 85.7201V87.7099C144.477 88.1425 144.216 88.3155 143.868 88.3155H123.834C122.092 88.3155 120.611 88.9211 119.392 90.1323C118.173 91.3435 117.563 92.8143 117.563 94.5445V100.254C117.563 101.206 117.911 101.985 118.608 102.59C119.044 103.369 119.915 103.715 120.873 103.715Z" fill="#0061BB"/>
<path d="M210.588 86.4122C210.588 85.9797 210.501 85.5471 210.327 85.1145C209.978 84.3359 209.281 83.7303 208.41 83.4708C208.062 83.3842 207.626 83.2977 207.365 83.2977C206.843 83.2977 206.32 83.3842 205.884 83.6438C205.013 83.9898 204.404 84.682 203.968 85.5471C200.31 94.1985 195.606 101.639 189.945 107.868C189.161 108.646 188.725 109.684 188.638 110.809C188.551 111.069 188.551 111.242 188.551 111.415C188.551 112.366 188.812 113.232 189.248 114.01C189.683 114.875 190.38 115.394 191.338 115.481C191.513 115.481 191.6 115.481 191.774 115.481C192.471 115.481 193.168 115.221 193.69 114.616C194.997 113.145 196.216 111.588 197.436 109.944C197.523 109.858 197.61 109.771 197.697 109.858C197.784 109.858 197.871 109.944 197.871 110.117V146.453C197.871 147.318 198.219 148.097 198.829 148.702C199.439 149.308 200.223 149.654 201.181 149.654C202.139 149.654 202.836 149.308 203.533 148.702C204.142 148.097 204.491 147.318 204.491 146.453V100.168C204.491 99.7354 204.578 99.3028 204.839 98.8702C206.93 95.1501 208.759 91.3435 210.414 87.6234C210.501 87.1909 210.588 86.7583 210.588 86.4122Z" fill="#0061BB"/>
<path d="M254.836 139.618C252.049 137.715 249.348 135.466 246.735 132.784C244.122 130.102 241.858 127.333 240.028 124.478C239.941 124.305 239.941 124.219 240.028 124.046C240.116 123.873 240.203 123.873 240.464 123.873H252.92C253.791 123.873 254.487 123.613 255.097 123.008C255.707 122.402 255.968 121.71 255.968 120.845C255.968 119.98 255.707 119.288 255.097 118.682C254.487 118.076 253.791 117.73 252.92 117.73H236.719C236.196 117.73 236.022 117.471 236.022 117.038V110.463C236.022 109.944 236.283 109.771 236.719 109.771H245.951C247.693 109.771 249.174 109.165 250.394 107.954C251.613 106.743 252.223 105.272 252.223 103.542V91.8626C252.223 90.1323 251.613 88.6616 250.394 87.4504C249.174 86.2392 247.693 85.6336 245.951 85.6336H220.169C218.427 85.6336 216.946 86.2392 215.727 87.4504C214.508 88.6616 213.898 90.1323 213.898 91.8626V103.369C213.898 105.099 214.508 106.57 215.727 107.781C216.946 108.992 218.427 109.598 220.169 109.598H228.444C228.966 109.598 229.141 109.858 229.141 110.29V116.865C229.141 117.384 228.879 117.557 228.444 117.557H211.807C210.936 117.557 210.24 117.903 209.63 118.509C209.02 119.115 208.759 119.893 208.759 120.672C208.759 121.537 209.02 122.229 209.63 122.835C210.24 123.44 210.936 123.7 211.807 123.7H224.786C224.96 123.7 225.047 123.786 225.134 123.873C225.221 124.046 225.221 124.132 225.134 124.305C223.131 127.247 220.692 130.102 217.992 132.697C215.291 135.379 212.417 137.542 209.456 139.359C208.759 139.878 208.323 140.57 208.149 141.435C208.149 141.608 208.149 141.695 208.149 141.868C208.149 142.56 208.41 143.165 208.846 143.771C209.543 144.55 210.327 145.069 211.285 145.242C211.546 145.328 211.807 145.328 211.982 145.328C212.678 145.328 213.375 145.155 213.985 144.723C219.472 140.83 224.35 135.725 228.705 129.496C228.792 129.41 228.792 129.41 228.967 129.41C229.054 129.496 229.141 129.496 229.141 129.669V146.453C229.141 147.405 229.489 148.27 230.186 148.875C230.883 149.567 231.667 149.914 232.625 149.914C233.583 149.914 234.367 149.567 235.064 148.875C235.76 148.183 236.109 147.405 236.109 146.453V129.41C236.109 129.323 236.196 129.237 236.283 129.237C236.37 129.237 236.457 129.237 236.544 129.237C240.638 135.552 245.255 140.743 250.394 144.896C251.09 145.415 251.787 145.588 252.484 145.588C252.658 145.588 252.832 145.588 253.094 145.501C254.139 145.328 254.923 144.896 255.62 144.117C256.142 143.511 256.404 142.906 256.404 142.127C256.404 142.041 256.404 141.954 256.404 141.781C255.968 140.83 255.533 140.137 254.836 139.618ZM220.779 103.542C220.256 103.542 220.082 103.282 220.082 102.85V92.3817C220.082 91.8626 220.343 91.6896 220.779 91.6896H244.296C244.819 91.6896 244.993 91.9491 244.993 92.3817V102.763C244.993 103.282 244.732 103.455 244.296 103.455H220.779V103.542Z" fill="#0061BB"/>
<path d="M280.792 107.868C280.531 107.522 280.444 107.089 280.618 106.656C282.099 102.85 284.102 97.3995 286.541 90.1323C286.802 89.4402 286.802 88.6615 286.454 87.9694C286.193 87.2773 285.67 86.7582 285.06 86.3257L283.58 85.4605C283.231 85.2875 282.796 85.201 282.36 85.201C282.186 85.201 282.012 85.201 281.838 85.2875C281.75 85.2875 281.663 85.2875 281.663 85.2875H271.734C269.992 85.2875 268.511 85.8931 267.291 87.1043C266.072 88.3155 265.462 89.7862 265.462 91.5165V146.885C265.462 147.664 265.724 148.443 266.333 149.048C266.943 149.654 267.64 149.913 268.511 149.913C269.295 149.913 270.079 149.654 270.688 149.048C271.298 148.443 271.559 147.751 271.559 146.885V92.2086C271.559 91.6895 271.821 91.5165 272.256 91.5165H278.789C278.963 91.5165 279.05 91.603 279.224 91.6895C279.312 91.8626 279.399 92.0356 279.312 92.2086C278.266 95.9287 277.221 99.2163 276.35 102.071C276.002 103.196 275.827 104.321 275.827 105.532C275.827 107.954 276.524 110.463 278.005 113.058C279.573 115.913 280.357 118.768 280.357 121.796C280.357 124.219 279.921 125.776 278.963 126.382C278.353 126.814 277.57 126.987 276.699 126.987C276.437 127.074 276.176 127.074 276.002 127.074C275.305 127.074 274.782 127.333 274.434 127.939C274.085 128.544 273.911 129.15 274.085 129.842C274.347 130.794 274.782 131.486 275.479 132.092C276.089 132.697 276.786 132.957 277.57 132.957C277.657 132.957 277.657 132.957 277.744 132.957C278.441 132.957 278.963 132.87 279.486 132.784C281.054 132.611 282.36 132.092 283.58 131.313C285.583 129.929 286.628 126.987 286.628 122.489C286.454 117.298 284.538 112.366 280.792 107.868Z" fill="#0061BB"/>
<path d="M290.896 92.6412H294.816C294.38 92.7277 294.293 92.9873 294.467 93.4198C295.077 94.8041 295.6 96.2748 296.035 97.9186C296.122 98.0916 296.035 98.1781 295.948 98.3511C295.861 98.4376 295.687 98.5242 295.513 98.5242H288.37C287.586 98.5242 286.889 98.7837 286.367 99.3893C285.844 99.9084 285.496 100.6 285.496 101.293C285.496 102.071 285.757 102.677 286.367 103.196C286.889 103.715 287.586 104.061 288.37 104.061H327.392C328.176 104.061 328.873 103.802 329.395 103.196C329.918 102.677 330.266 101.985 330.266 101.293C330.266 100.514 330.005 99.9084 329.395 99.3893C328.873 98.8702 328.176 98.5242 327.392 98.5242H319.466C319.291 98.5242 319.117 98.4376 319.03 98.3511C318.943 98.2646 318.943 98.0916 319.03 97.9186C319.117 97.832 319.379 97.1399 320.075 95.9287C320.685 94.7175 321.208 93.7659 321.556 92.9873C321.643 92.8142 321.643 92.6412 321.382 92.6412H325.824C326.521 92.6412 327.218 92.3817 327.74 91.8626C328.263 91.3435 328.524 90.7379 328.524 89.9593C328.524 89.1806 328.263 88.575 327.74 88.056C327.218 87.5369 326.608 87.1908 325.824 87.1908H311.365C311.017 87.1908 310.843 87.0178 310.843 86.6717V85.5471C310.843 84.5954 310.494 83.8168 309.884 83.2112C309.275 82.6056 308.404 82.2595 307.533 82.2595C306.575 82.2595 305.791 82.6056 305.181 83.2112C304.571 83.8168 304.223 84.6819 304.223 85.5471V86.6717C304.223 87.0178 304.049 87.1908 303.613 87.1908H290.809C290.112 87.1908 289.415 87.4504 288.893 88.056C288.37 88.575 288.022 89.2672 288.022 89.9593C288.022 90.7379 288.283 91.3435 288.893 91.8626C289.503 92.3817 290.199 92.6412 290.896 92.6412ZM300.739 92.9007C300.826 92.7277 301 92.6412 301.087 92.6412H314.065C314.24 92.6412 314.414 92.7277 314.501 92.9007C314.588 93.0738 314.588 93.2468 314.501 93.4198C314.24 94.0254 313.63 95.4962 312.585 97.9186C312.41 98.3511 312.062 98.5242 311.539 98.5242H303.178C302.655 98.5242 302.394 98.2646 302.307 97.832C301.784 96.1883 301.348 94.631 300.826 93.3333C300.652 93.1603 300.652 92.9873 300.739 92.9007Z" fill="#0061BB"/>
<path d="M327.74 133.216H311.714C311.191 133.216 311.017 132.957 311.017 132.524V129.323C311.017 128.804 311.278 128.631 311.714 128.631H319.466C321.295 128.631 322.776 128.025 323.995 126.814C325.214 125.603 325.824 124.132 325.824 122.402V113.837C325.824 112.107 325.214 110.636 323.995 109.425C322.776 108.214 321.295 107.608 319.466 107.608H296.384C294.642 107.608 293.161 108.214 291.941 109.425C290.722 110.636 290.112 112.107 290.112 113.837V122.402C290.112 124.132 290.722 125.603 291.941 126.814C293.161 128.025 294.642 128.631 296.384 128.631H303.613C304.136 128.631 304.31 128.891 304.31 129.323V132.524C304.31 133.043 304.049 133.216 303.613 133.216H287.76C286.977 133.216 286.28 133.476 285.757 134.081C285.235 134.601 284.886 135.293 284.886 136.071C284.886 136.85 285.147 137.455 285.757 137.975C286.28 138.494 286.977 138.753 287.76 138.753H303.613C304.136 138.753 304.31 139.013 304.31 139.445V146.453C304.31 147.405 304.658 148.183 305.268 148.789C305.878 149.394 306.662 149.74 307.62 149.74C308.578 149.74 309.362 149.394 309.972 148.789C310.581 148.183 310.93 147.318 310.93 146.453V139.445C310.93 138.926 311.191 138.753 311.626 138.753H327.653C328.35 138.753 329.047 138.494 329.57 137.975C330.092 137.455 330.441 136.763 330.441 136.071C330.441 135.293 330.179 134.601 329.57 134.081C328.96 133.562 328.437 133.216 327.74 133.216ZM296.297 112.712C296.297 112.193 296.558 112.02 296.993 112.02H318.595C319.117 112.02 319.291 112.28 319.291 112.712V115.308C319.291 115.827 319.03 116 318.595 116H296.993C296.471 116 296.297 115.74 296.297 115.308V112.712ZM296.993 124.219C296.471 124.219 296.297 123.959 296.297 123.527V120.845C296.297 120.326 296.558 120.153 296.993 120.153H318.595C319.117 120.153 319.291 120.412 319.291 120.845V123.527C319.291 124.046 319.03 124.219 318.595 124.219H296.993Z" fill="#0061BB"/>
<path d="M404.042 112.366C403.432 111.761 402.648 111.415 401.69 111.415H388.625C388.102 111.415 387.928 111.155 387.928 110.723V106.743C387.928 106.224 388.102 105.878 388.451 105.532C393.067 101.552 397.509 96.7939 401.69 91.1705C402.126 90.5649 402.3 89.8728 402.126 89.0941C402.039 88.3155 401.603 87.7099 400.993 87.1908L399.687 86.2392C399.164 85.8931 398.729 85.7201 398.206 85.7201C397.945 85.7201 397.683 85.8066 397.509 85.8931C397.422 85.8931 397.335 85.8931 397.248 85.8931H370.159C369.288 85.8931 368.504 86.2392 367.894 86.8448C367.285 87.4504 366.936 88.229 366.936 89.0941C366.936 89.9593 367.285 90.7379 367.894 91.3435C368.504 91.9491 369.288 92.2952 370.159 92.2952H391.673C391.848 92.2952 391.935 92.3817 392.022 92.4682C392.109 92.6412 392.109 92.7277 392.022 92.8142C389.409 96.3613 386.621 99.3893 383.747 102.071C383.573 102.158 383.486 102.244 383.312 102.244C382.702 102.244 382.179 102.504 381.657 102.936C381.221 103.369 380.96 103.975 380.96 104.58V110.809C380.96 111.328 380.699 111.501 380.263 111.501H367.72C366.762 111.501 366.065 111.847 365.369 112.453C364.759 113.059 364.41 113.837 364.41 114.789C364.41 115.654 364.759 116.433 365.369 117.038C365.978 117.644 366.762 117.99 367.72 117.99H380.263C380.786 117.99 380.96 118.249 380.96 118.682V141.695C380.96 142.214 380.873 142.56 380.611 142.819C380.437 142.992 380.002 143.165 379.392 143.165C378.782 143.165 377.911 143.165 376.692 143.165C375.734 143.165 374.688 143.165 373.469 143.165C372.685 143.165 371.988 143.511 371.553 144.204C371.117 144.896 371.03 145.588 371.291 146.366C371.727 147.405 372.337 148.183 373.208 148.875C373.992 149.481 374.95 149.827 375.908 149.827H375.995C379.915 149.74 382.789 149.308 384.531 148.616C385.75 148.01 386.709 147.232 387.144 146.193C387.667 145.155 387.928 143.684 387.928 141.781V118.595C387.928 118.076 388.189 117.903 388.625 117.903H401.69C402.648 117.903 403.345 117.557 404.042 116.952C404.652 116.346 405 115.567 405 114.702C405 113.751 404.652 112.972 404.042 112.366Z" fill="#0061BB"/>
<path d="M359.097 130.275C358.749 129.929 358.575 129.583 358.836 129.15C362.059 121.45 364.062 111.674 365.02 99.6488C365.107 99.0432 364.933 98.5242 364.585 98.0916C364.236 97.659 363.714 97.3995 363.191 97.2265C362.407 97.0534 361.013 97.0534 359.097 97.0534H352.129C351.955 97.0534 351.781 96.9669 351.693 96.7939C351.606 96.6209 351.519 96.4478 351.606 96.2748C352.652 91.5165 353.348 88.1425 353.697 86.1527C353.784 85.9796 353.784 85.7201 353.784 85.5471C353.784 84.9415 353.61 84.3359 353.174 83.8168C352.652 83.1247 351.955 82.6921 350.997 82.6056C350.822 82.6056 350.735 82.6056 350.561 82.6056C349.864 82.6056 349.168 82.8651 348.558 83.2112C347.774 83.8168 347.338 84.5089 347.164 85.4606C346.554 88.6616 345.945 92.2952 345.161 96.3613C345.074 96.8804 344.812 97.0534 344.29 97.0534H340.37C339.499 97.0534 338.715 97.313 338.106 97.9186C337.496 98.5242 337.147 99.3028 337.147 100.168C337.147 101.033 337.496 101.812 338.106 102.417C338.715 103.023 339.499 103.369 340.37 103.369H342.983C343.157 103.369 343.332 103.455 343.419 103.542C343.506 103.628 343.506 103.802 343.506 103.975C341.677 112.28 340.109 118.941 338.802 123.959C338.715 124.305 338.628 124.651 338.628 124.997C338.628 125.517 338.715 126.036 338.977 126.468C339.325 127.333 339.935 127.939 340.719 128.371L341.241 128.631C341.851 128.977 342.461 128.977 343.07 128.718C343.68 128.458 344.028 128.025 344.203 127.42C344.29 127.247 344.377 127.16 344.551 127.247C345.858 128.025 347.6 129.323 349.777 130.88C350.126 131.14 350.213 131.486 349.951 131.919C347.338 136.417 344.203 139.878 340.544 142.387C340.022 142.733 339.673 143.165 339.499 143.684C339.238 144.204 339.238 144.723 339.238 145.242C339.325 145.761 339.499 146.28 339.848 146.799C340.457 147.578 341.154 148.01 342.112 148.27C342.374 148.356 342.635 148.443 342.896 148.443C343.506 148.443 344.116 148.27 344.725 147.837C348.906 144.723 352.39 140.916 355.265 136.244C355.526 135.812 355.787 135.725 356.223 136.071C357.791 137.455 359.184 138.753 360.491 140.137C361.101 140.743 361.797 141.089 362.668 141.089H362.755C363.626 141.003 364.323 140.656 364.846 140.051C365.456 139.272 365.717 138.407 365.717 137.542C365.717 136.417 365.369 135.552 364.672 134.774C362.93 133.476 361.101 131.919 359.097 130.275ZM353.348 125.084C353.174 125.517 352.826 125.603 352.477 125.343C351.084 124.392 349.08 123.094 346.38 121.45C346.032 121.191 345.858 120.845 345.945 120.412C347.687 113.405 348.993 107.954 349.777 104.148C349.864 103.715 350.126 103.542 350.648 103.542H357.442C357.616 103.542 357.791 103.628 357.878 103.802C357.965 103.975 358.052 104.148 358.052 104.321C357.181 112.193 355.613 119.114 353.348 125.084Z" fill="#0061BB"/>
<path d="M23.6963 31.8723C23.9587 31.7854 24.221 31.6986 24.4833 31.6986C25.0079 31.6986 25.5326 31.8723 25.9698 32.2197C26.6693 32.7407 27.1065 33.3487 27.2814 34.2171C27.2814 34.3908 27.2814 34.5645 27.2814 34.7382C27.2814 35.4329 27.1065 36.1277 26.6693 36.8225C26.1447 37.6041 25.4452 38.1252 24.4833 38.2988L18.1002 40.1226C17.663 40.2963 17.4881 40.5568 17.4881 41.0779V59.4023C17.4881 61.2261 17.2258 62.6156 16.7886 63.5709C16.3514 64.613 15.5644 65.3078 14.5151 65.8289C13.0286 66.6105 10.5803 67.0447 7.25755 67.1315C7.17011 67.1315 7.17011 67.1315 7.08267 67.1315C6.12083 67.1315 5.33386 66.871 4.63434 66.2631C3.84738 65.6552 3.32273 64.8736 2.97297 63.9183C2.71065 63.1367 2.79809 62.4419 3.32273 61.7471C3.75994 61.1392 4.37202 60.7918 5.15898 60.7918C5.85851 60.7918 6.55803 60.7918 7.08267 60.7918C8.04452 60.7918 8.6566 60.7918 9.00636 60.7918C9.531 60.7918 9.88076 60.705 10.1431 60.4444C10.4054 60.2708 10.4928 59.8365 10.4928 59.3155V43.1622C10.4928 42.9885 10.4054 42.8148 10.318 42.728C10.1431 42.5543 9.9682 42.5543 9.70588 42.5543L4.72178 43.9438C4.37202 44.0306 4.02226 44.1175 3.6725 44.1175C3.06041 44.1175 2.53577 43.9438 2.01113 43.6833C1.13672 43.1622 0.524642 42.4674 0.262321 41.5121C0.174881 41.2516 0.0874404 40.9042 0.0874404 40.5568C0.0874404 39.9489 0.262321 39.4278 0.612083 38.9068C1.13672 38.0383 1.83625 37.5172 2.71065 37.3435C4.89666 36.7356 7.25755 36.1277 9.70588 35.5198C10.2305 35.3461 10.4054 35.0856 10.4054 34.5645V21.7114C10.4054 21.1903 10.1431 21.0166 9.70588 21.0166H3.23529C2.36089 21.0166 1.57393 20.6692 0.961844 20.0613C0.349762 19.3665 0 18.5849 0 17.6296C0 16.7612 0.349762 15.9796 0.961844 15.3716C1.57393 14.7637 2.36089 14.4163 3.23529 14.4163H9.70588C10.2305 14.4163 10.4054 14.1558 10.4054 13.7216V3.56066C10.4928 2.60536 10.8426 1.73691 11.4547 1.04215C12.1542 0.347382 12.9412 0 13.903 0C14.8649 0 15.7393 0.347382 16.3514 1.04215C17.1383 1.73691 17.4881 2.60536 17.4881 3.56066V13.7216C17.4881 14.2427 17.7504 14.4163 18.1876 14.4163H23.6089C24.4833 14.4163 25.2703 14.7637 25.8824 15.3716C26.4944 15.9796 26.8442 16.7612 26.8442 17.6296C26.8442 18.4981 26.4944 19.2797 25.8824 19.9745C25.2703 20.5824 24.4833 20.9298 23.6089 20.9298H18.1876C17.663 20.9298 17.4881 21.1903 17.4881 21.6245V32.7407C17.4881 32.9144 17.5755 33.0881 17.663 33.175C17.8378 33.2618 18.0127 33.2618 18.1876 33.2618L23.6963 31.8723ZM64.2687 5.90549C65.2305 5.90549 66.1049 6.25287 66.717 6.94764C67.4165 7.6424 67.7663 8.42401 67.7663 9.37931C67.7663 10.3346 67.4165 11.1162 66.717 11.811C66.0175 12.5057 65.2305 12.8531 64.2687 12.8531H55.787C55.2623 12.8531 55.0874 13.1137 55.0874 13.5479V58.447C55.0874 60.705 54.8251 62.355 54.213 63.5709C53.601 64.7867 52.5517 65.6552 51.1526 66.1762C49.1415 67.0447 45.6439 67.4789 40.5723 67.5658C40.4849 67.5658 40.4849 67.5658 40.3975 67.5658C39.2607 67.5658 38.2989 67.2184 37.337 66.5236C36.3752 65.8289 35.7631 64.8736 35.3259 63.7446C35.0636 63.3972 34.9762 63.0498 34.9762 62.7024C34.9762 62.1814 35.151 61.7471 35.5008 61.2261C36.0254 60.5313 36.725 60.1839 37.5994 60.1839H37.6868C39.0858 60.1839 41.7091 60.1839 45.7313 60.1839C46.4308 60.1839 46.9555 60.0102 47.2178 59.7497C47.4801 59.4891 47.655 58.9681 47.655 58.3601V13.5479C47.655 13.0268 47.3927 12.8531 46.9555 12.8531H31.0413C30.0795 12.8531 29.2051 12.5057 28.593 11.811C27.8935 11.1162 27.5437 10.3346 27.5437 9.37931C27.5437 8.42401 27.8935 7.6424 28.593 6.94764C29.2925 6.25287 30.0795 5.90549 31.0413 5.90549H64.2687Z" fill="#0061BB"/>
<path d="M92.5994 14.1558C92.0747 14.1558 91.8998 14.4163 91.8998 14.8506V29.8748C91.8998 45.507 88.752 57.2312 82.4563 65.0473C81.9316 65.742 81.1447 66.0894 80.2703 66.0894C79.3959 66.0894 78.5215 65.742 77.8219 65.1341C77.2099 64.5262 76.8601 63.7446 76.7727 62.8761C76.7727 62.7024 76.7727 62.6156 76.7727 62.5287C76.7727 61.834 76.9475 61.1392 77.3847 60.5313C80.7949 56.189 83.0684 50.7178 84.2051 44.2912C84.2051 44.1175 84.1176 44.0306 84.0302 43.9438C83.9428 43.857 83.7679 43.857 83.6804 43.9438C81.8442 44.986 80.0954 46.0281 78.2591 47.1571C77.7345 47.4176 77.2973 47.5913 76.8601 47.5913C76.5103 47.5913 76.1606 47.5045 75.8108 47.3308C74.9364 46.9834 74.4118 46.3755 74.1494 45.5939C73.9746 45.1596 73.9746 44.7254 73.9746 44.378C73.9746 43.857 74.062 43.4227 74.3243 42.9017C74.6741 42.0332 75.3736 41.4253 76.248 40.9911C77.7345 40.2963 80.5326 38.9936 84.4674 36.9093C84.9046 36.7356 85.0795 36.3882 85.0795 35.8672C85.1669 33.175 85.2544 31.1775 85.2544 29.8748V14.2427C85.2544 12.5057 85.8665 11.0294 87.0906 9.81354C88.3148 8.5977 89.8013 7.98978 91.5501 7.98978H107.202C107.727 7.98978 107.901 7.72925 107.901 7.29502V3.64751C107.901 2.60536 108.251 1.82375 108.951 1.04215C109.65 0.347382 110.525 0 111.486 0C112.448 0 113.323 0.347382 114.022 1.04215C114.722 1.73691 115.072 2.60536 115.072 3.64751V7.29502C115.072 7.81609 115.334 7.98978 115.771 7.98978H138.68C139.555 7.98978 140.254 8.33716 140.866 8.94508C141.479 9.553 141.741 10.3346 141.741 11.1162C141.741 11.9847 141.479 12.6794 140.866 13.2874C140.254 13.8953 139.555 14.1558 138.68 14.1558H92.5994ZM83.9428 24.4036C84.0302 24.751 84.1176 25.1852 84.1176 25.4457C84.1176 25.9668 84.0302 26.401 83.8553 26.9221C83.5056 27.7037 82.8935 28.3985 82.1065 28.8327C81.407 29.1801 80.7075 29.1801 80.0079 28.8327C79.3084 28.4853 78.8712 27.9642 78.6089 27.2695C77.7345 24.4904 76.5978 21.6245 75.2862 18.8455C74.9364 18.1507 74.9364 17.4559 75.1113 16.6743C75.3736 15.8927 75.8108 15.3716 76.5103 15.0243C77.2099 14.6769 77.9968 14.6769 78.7838 14.8506C79.5707 15.1111 80.0954 15.5453 80.4452 16.3269C81.9316 19.3665 83.1558 22.0587 83.9428 24.4036ZM129.762 39.341C130.024 39.2542 130.286 39.2542 130.548 39.2542C131.073 39.2542 131.598 39.341 132.035 39.6015L133.084 40.0358C133.696 40.2963 134.134 40.8174 134.396 41.4253C134.658 42.0332 134.571 42.6411 134.308 43.249C131.773 48.8072 128.1 53.41 123.203 57.1443C123.029 57.2312 123.029 57.318 123.029 57.4917C123.029 57.6654 123.116 57.7522 123.291 57.8391C127.663 59.4891 132.997 60.705 139.205 61.4866C139.992 61.5734 140.517 62.0077 140.866 62.7024C141.216 63.3972 141.129 64.0919 140.692 64.7867C140.079 65.742 139.293 66.5236 138.331 67.0447C137.544 67.3921 136.757 67.6526 135.97 67.6526C135.707 67.6526 135.445 67.6526 135.27 67.5658C127.925 66.4368 121.63 64.613 116.471 62.0077C116.121 61.7471 115.684 61.7471 115.246 61.9208C110.262 64.2656 104.316 66.0894 97.2337 67.3921C96.9714 67.4789 96.7091 67.4789 96.5342 67.4789C95.8347 67.4789 95.2226 67.3052 94.6105 66.9578C93.7361 66.5236 93.124 65.9157 92.6868 65.0473C92.5119 64.6999 92.4245 64.3525 92.4245 64.0051C92.4245 63.7446 92.5119 63.3972 92.5994 63.0498C92.8617 62.355 93.3863 62.0077 94.0858 61.9208C99.7695 61.0524 104.841 59.7497 109.213 57.9259C109.388 57.8391 109.475 57.7522 109.563 57.5785C109.563 57.4049 109.563 57.318 109.388 57.1443C107.027 55.1469 104.928 52.7152 103.092 50.023C102.83 49.5019 102.655 48.9808 102.655 48.4598C102.655 48.1124 102.742 47.6782 102.83 47.2439C103.267 46.2018 104.054 45.5939 105.191 45.3333C105.191 45.2465 105.191 45.2465 105.103 45.2465H101.868C100.469 45.2465 99.3323 44.7254 98.3704 43.7701C97.4086 42.8148 96.8839 41.6858 96.8839 40.2963C96.8839 39.8621 96.7965 39.5147 96.7091 39.2542L96.6216 39.1673C96.097 38.2988 95.8347 37.4304 95.8347 36.4751C95.8347 36.1277 95.8347 35.6935 95.9221 35.3461C96.2719 33.9566 96.9714 32.9144 98.1955 32.1328C99.8569 31.0907 100.994 29.9617 101.518 28.7458C102.13 27.53 102.393 26.1405 102.393 24.4904V24.3167C102.393 22.5798 103.005 21.1034 104.229 19.8876C105.453 18.6718 106.94 18.0639 108.688 18.0639H122.417C124.165 18.0639 125.652 18.6718 126.876 19.8876C128.1 21.1034 128.712 22.5798 128.712 24.3167V29.2669C128.712 30.0485 128.8 30.5696 128.975 30.8301C129.149 31.0038 129.587 31.1775 130.286 31.1775H134.483C135.008 31.1775 135.358 31.0038 135.62 30.5696C135.795 30.1354 135.97 29.1801 136.057 27.7905C136.145 27.0958 136.407 26.5747 137.107 26.2273C137.719 25.8799 138.418 25.7931 139.03 26.0536C139.905 26.401 140.604 27.0089 141.041 27.7037C141.479 28.3116 141.653 28.9195 141.653 29.6143C141.653 29.788 141.653 29.9617 141.566 30.2222C141.216 32.7407 140.517 34.4776 139.555 35.4329C138.593 36.3882 137.107 36.9093 135.183 36.9093H129.062C126.264 36.9093 124.34 36.3882 123.378 35.3461C122.417 34.304 121.892 32.3934 121.892 29.5275V24.5773C121.892 24.0562 121.63 23.8825 121.192 23.8825H109.388C108.863 23.8825 108.688 24.143 108.688 24.5773V24.8378C108.688 31.5249 105.191 36.3014 98.1081 39.2542C98.0207 39.341 97.9332 39.341 98.0207 39.4278C98.0207 39.5147 98.1081 39.5147 98.1955 39.5147H129.412C129.587 39.4278 129.674 39.4278 129.762 39.341ZM125.477 45.7676C125.564 45.5939 125.564 45.507 125.477 45.3333C125.389 45.2465 125.302 45.1596 125.127 45.1596H107.989C107.814 45.1596 107.639 45.2465 107.552 45.3333C107.464 45.4202 107.464 45.5939 107.552 45.7676C109.475 48.9808 112.099 51.7599 115.421 54.0179C115.858 54.2784 116.296 54.2784 116.645 54.0179C120.58 51.5862 123.466 48.894 125.477 45.7676Z" fill="#0061BB"/>
<path d="M198.665 7.03448C198.665 7.55556 198.927 7.72925 199.364 7.72925H211.955C212.83 7.72925 213.617 8.07663 214.229 8.68455C214.841 9.29246 215.191 10.0741 215.191 10.9425C215.191 11.811 214.841 12.5926 214.229 13.2005C213.617 13.8084 212.83 14.069 211.955 14.069H199.364C198.839 14.069 198.665 14.3295 198.665 14.7637V18.4112C198.665 19.3665 198.315 20.235 197.615 20.8429C196.916 21.5377 196.129 21.8851 195.167 21.8851C194.205 21.8851 193.418 21.5377 192.719 20.8429C192.019 20.1481 191.669 19.3665 191.669 18.4112V14.7637C191.669 14.2427 191.407 14.069 190.97 14.069H173.569C173.045 14.069 172.87 14.3295 172.87 14.7637V18.4981C172.87 19.4534 172.52 20.235 171.82 20.8429C171.121 21.5377 170.334 21.8851 169.372 21.8851C168.41 21.8851 167.623 21.5377 167.011 20.8429C166.399 20.1481 166.049 19.3665 166.049 18.4981V14.7637C166.049 14.2427 165.787 14.069 165.35 14.069H152.758C151.884 14.069 151.097 13.8084 150.485 13.2005C149.873 12.5926 149.523 11.811 149.523 10.9425C149.523 10.0741 149.873 9.29246 150.485 8.68455C151.097 8.07663 151.884 7.72925 152.758 7.72925H165.35C165.874 7.72925 166.049 7.46871 166.049 7.03448V3.38697C166.049 2.43167 166.399 1.65006 167.011 0.9553C167.623 0.347382 168.498 0 169.372 0C170.334 0 171.121 0.347382 171.82 0.9553C172.52 1.56322 172.87 2.43167 172.87 3.38697V7.03448C172.87 7.55556 173.132 7.72925 173.569 7.72925H190.97C191.494 7.72925 191.669 7.46871 191.669 7.03448V3.38697C191.669 2.43167 192.019 1.65006 192.719 1.04215C193.418 0.347382 194.205 0 195.167 0C196.129 0 196.916 0.347382 197.615 1.04215C198.315 1.73691 198.665 2.51852 198.665 3.38697V7.03448ZM159.841 67.9131C158.879 67.9131 158.18 67.5658 157.48 66.9578C156.868 66.3499 156.518 65.4815 156.518 64.613V30.8301C156.518 29.0932 157.13 27.6169 158.355 26.401C159.579 25.1852 161.065 24.5773 162.814 24.5773H202.424C204.261 24.5773 205.747 25.1852 206.971 26.401C208.196 27.6169 208.808 29.0932 208.808 30.8301V64.4393C208.808 65.3946 208.458 66.2631 207.846 66.871C207.234 67.5658 206.359 67.9131 205.397 67.9131H204.785C203.998 67.9131 203.299 67.6526 202.687 67.0447C202.162 66.5236 201.812 65.8289 201.812 64.9604C201.812 64.7867 201.725 64.6999 201.55 64.6999H163.514C163.339 64.6999 163.251 64.7867 163.251 64.9604C163.251 65.742 162.989 66.4368 162.377 67.0447C161.852 67.5658 161.153 67.9131 160.278 67.9131H159.841ZM178.816 31.6117C178.816 31.0907 178.553 30.917 178.116 30.917H163.951C163.426 30.917 163.251 31.1775 163.251 31.6117V40.47C163.251 40.9911 163.514 41.1647 163.951 41.1647H178.116C178.641 41.1647 178.816 40.9042 178.816 40.47V31.6117ZM163.164 57.8391C163.164 58.3601 163.426 58.5338 163.863 58.5338H178.029C178.553 58.5338 178.728 58.2733 178.728 57.8391V48.1124C178.728 47.5913 178.466 47.4176 178.029 47.4176H163.863C163.339 47.4176 163.164 47.6782 163.164 48.1124V57.8391ZM201.2 41.1647C201.725 41.1647 201.9 40.9042 201.9 40.47V31.6117C201.9 31.0907 201.638 30.917 201.2 30.917H186.248C185.723 30.917 185.548 31.1775 185.548 31.6117V40.47C185.548 40.9911 185.811 41.1647 186.248 41.1647H201.2ZM185.548 57.8391C185.548 58.3601 185.811 58.5338 186.248 58.5338H201.2C201.725 58.5338 201.9 58.2733 201.9 57.8391V48.1124C201.9 47.5913 201.638 47.4176 201.2 47.4176H186.248C185.723 47.4176 185.548 47.6782 185.548 48.1124V57.8391Z" fill="#0061BB"/>
<path d="M272.814 60.2708H281.121C282.17 60.2708 282.957 59.8365 283.307 58.9681C283.744 58.0996 284.006 56.1022 284.181 53.0626C284.269 52.3678 284.618 51.7599 285.231 51.4125C285.843 51.0651 286.542 50.9783 287.329 51.3257C288.291 51.673 289.078 52.3678 289.69 53.2363C290.127 53.931 290.302 54.6258 290.302 55.4943C290.302 55.6679 290.302 55.7548 290.302 55.9285C289.865 60.1839 289.078 63.0498 287.854 64.613C286.63 66.1762 284.618 66.9578 281.733 66.9578H271.94C268.267 66.9578 265.906 66.3499 264.595 65.0473C263.37 63.7446 262.758 61.3129 262.758 57.8391V38.3857C262.758 37.8646 262.496 37.6909 262.059 37.6909H251.041C250.517 37.6909 250.254 37.9515 250.254 38.3857C249.817 41.7727 249.205 44.7254 248.506 47.2439C247.806 49.7625 246.757 52.3678 245.358 54.8863C243.959 57.4049 242.122 59.6628 239.762 61.6603C237.401 63.6577 234.603 65.3946 231.192 66.9578C230.668 67.1315 230.143 67.2184 229.706 67.2184C229.181 67.2184 228.744 67.1315 228.307 67.0447C227.345 66.6973 226.471 66.0026 225.858 65.1341C225.509 64.613 225.334 64.0919 225.334 63.5709C225.334 63.3103 225.334 63.0498 225.421 62.7893C225.684 62.0077 226.208 61.3997 226.995 61.0524C229.881 59.9234 232.329 58.5338 234.34 56.9706C236.351 55.4074 237.925 53.5837 239.062 51.5862C240.199 49.5888 241.073 47.5045 241.598 45.507C242.122 43.5096 242.647 41.1647 242.909 38.3857C242.997 38.212 242.909 38.0383 242.735 37.8646C242.56 37.6909 242.385 37.6909 242.21 37.6909H227.87C226.908 37.6909 226.121 37.3435 225.509 36.7356C224.897 36.1277 224.547 35.3461 224.547 34.3908C224.547 33.4355 224.897 32.6539 225.509 32.046C226.121 31.4381 226.908 31.0907 227.87 31.0907H252.79C253.315 31.0907 253.49 30.8301 253.49 30.3959V18.2375C253.49 17.7165 253.227 17.5428 252.79 17.5428H240.024C239.499 17.5428 239.237 17.7165 238.975 18.1507C237.75 20.9298 236.439 23.3614 235.127 25.4457C234.603 26.2273 233.903 26.6616 232.941 26.9221C232.679 27.0089 232.329 27.0958 232.067 27.0958C231.455 27.0958 230.843 26.9221 230.143 26.5747C229.356 26.1405 228.919 25.5326 228.657 24.6641C228.569 24.4036 228.569 24.143 228.569 23.9693C228.569 23.3614 228.744 22.8404 229.006 22.3193C232.067 17.7165 234.515 11.9847 236.439 5.12388C236.701 4.16858 237.226 3.38697 238.1 2.8659C238.712 2.51852 239.412 2.25798 240.024 2.25798C240.286 2.25798 240.548 2.25798 240.723 2.34483C241.685 2.51852 242.385 2.95275 242.909 3.8212C243.259 4.34227 243.434 4.86335 243.434 5.47126C243.434 5.7318 243.347 6.07918 243.259 6.42656C242.822 7.90294 242.385 9.20562 241.948 10.3346C241.86 10.5083 241.948 10.5951 242.035 10.7688C242.122 10.9425 242.297 11.0294 242.472 11.0294H252.615C253.14 11.0294 253.315 10.7688 253.315 10.3346V3.47382C253.315 2.51852 253.665 1.65006 254.364 1.04215C255.064 0.347382 255.851 0 256.812 0C257.774 0 258.649 0.347382 259.261 1.04215C259.96 1.73691 260.31 2.51852 260.31 3.47382V10.0741C260.31 10.5951 260.572 10.7688 261.01 10.7688H280.596C281.558 10.7688 282.345 11.1162 282.957 11.7241C283.569 12.3321 283.919 13.2005 283.919 14.069C283.919 15.0243 283.569 15.8059 282.957 16.4138C282.345 17.0217 281.471 17.3691 280.596 17.3691H261.01C260.485 17.3691 260.31 17.6296 260.31 18.0639V30.2222C260.31 30.7433 260.572 30.917 261.01 30.917H286.017C286.979 30.917 287.766 31.2644 288.466 31.8723C289.078 32.4802 289.428 33.3487 289.428 34.2171C289.428 35.1724 289.078 35.954 288.466 36.5619C287.854 37.1699 286.979 37.5172 286.017 37.5172H270.191C269.666 37.5172 269.491 37.7778 269.491 38.212V57.4917C269.491 58.6207 269.666 59.3154 270.016 59.6628C270.715 60.0971 271.502 60.2708 272.814 60.2708Z" fill="#0061BB"/>
<path d="M318.72 32.6539C319.42 32.4802 320.119 32.567 320.819 33.0013C321.518 33.4355 321.868 34.0434 321.955 34.9119C321.955 35.0856 321.955 35.1724 321.955 35.3461C321.955 36.0409 321.781 36.7356 321.431 37.2567C320.906 38.0383 320.294 38.5594 319.507 38.8199C318.021 39.341 316.709 39.7752 315.397 40.2094C314.96 40.3831 314.785 40.6437 314.785 41.1647V60.0971C314.785 61.9208 314.523 63.3103 314.086 64.3525C313.649 65.3078 312.862 66.0894 311.812 66.6105C310.326 67.3052 307.965 67.6526 304.642 67.7395H304.555C303.593 67.7395 302.806 67.4789 302.107 66.871C301.407 66.2631 300.882 65.4815 300.62 64.5262C300.358 63.8314 300.445 63.1367 300.882 62.5287C301.32 61.9208 301.932 61.5734 302.719 61.5734C303.418 61.6603 304.03 61.6603 304.555 61.6603C305.517 61.6603 306.129 61.6603 306.566 61.5734C307.091 61.5734 307.353 61.4866 307.615 61.3129C307.79 61.1392 307.878 60.705 307.878 60.1839V43.5096C307.878 43.3359 307.79 43.1622 307.615 43.0753C307.44 42.9885 307.353 42.9885 307.178 42.9885C304.467 43.857 302.894 44.378 302.281 44.4649C301.932 44.6386 301.582 44.7254 301.232 44.7254C300.62 44.7254 300.095 44.5517 299.571 44.2912C298.609 43.7701 298.084 43.0754 297.822 42.12C297.735 41.7727 297.647 41.4253 297.647 41.0779C297.647 40.47 297.822 39.8621 298.172 39.341C298.696 38.4725 299.396 37.8646 300.358 37.6041C302.194 37.1699 304.467 36.5619 307.178 35.7803C307.615 35.6066 307.79 35.3461 307.79 34.825V21.1034C307.79 20.5824 307.528 20.4087 307.091 20.4087H300.882C300.008 20.4087 299.221 20.1481 298.609 19.5402C297.997 18.9323 297.647 18.1507 297.647 17.2822C297.647 16.4138 297.997 15.6322 298.609 15.0243C299.221 14.4163 300.008 14.069 300.882 14.069H307.091C307.615 14.069 307.79 13.8084 307.79 13.3742V3.38697C307.79 2.43167 308.14 1.65006 308.839 0.9553C309.539 0.347382 310.326 0 311.288 0C312.25 0 313.037 0.347382 313.736 0.9553C314.436 1.56322 314.785 2.43167 314.785 3.38697V13.2874C314.785 13.8084 315.048 13.9821 315.485 13.9821H319.332C320.207 13.9821 320.994 14.3295 321.606 14.9374C322.218 15.5453 322.568 16.3269 322.568 17.1954C322.568 18.0639 322.218 18.8455 321.606 19.4534C320.994 20.0613 320.207 20.3218 319.332 20.3218H315.485C314.96 20.3218 314.785 20.5824 314.785 21.0166V33.0013C314.785 33.175 314.873 33.3487 315.048 33.4355C315.223 33.5224 315.31 33.5223 315.485 33.5223L318.72 32.6539ZM355.707 31.5249C355.97 31.4381 356.232 31.3512 356.494 31.3512C357.019 31.3512 357.456 31.4381 357.893 31.6117L359.03 32.1328C359.73 32.3934 360.167 32.8276 360.517 33.4355C360.779 34.0434 360.866 34.7382 360.604 35.3461C358.068 42.5543 354.221 48.7203 348.975 53.931C348.625 54.2784 348.625 54.5389 349.062 54.7995C353.172 57.318 357.806 59.3155 363.052 60.705C363.839 60.8787 364.451 61.3997 364.714 62.1814C364.801 62.4419 364.889 62.7893 364.889 63.0498C364.889 63.5709 364.714 64.092 364.364 64.5262C363.665 65.4815 362.703 66.1762 361.653 66.6105C361.041 66.871 360.517 66.9578 359.905 66.9578L358.506 66.871C352.822 65.0472 347.75 62.6156 343.291 59.4891C342.941 59.2286 342.504 59.2286 342.067 59.4891C337.345 62.6156 331.924 65.1341 325.803 67.0447C325.453 67.2184 325.016 67.2184 324.666 67.2184C324.054 67.2184 323.529 67.0447 322.917 66.7842C321.955 66.3499 321.256 65.6552 320.731 64.7867C320.469 64.3525 320.294 63.9183 320.294 63.3972C320.294 63.1367 320.382 62.7893 320.556 62.4419C320.906 61.6603 321.518 61.0524 322.305 60.8787C327.727 59.4891 332.536 57.4917 336.82 54.7995C337.258 54.5389 337.345 54.2784 336.995 53.8442C334.11 50.8046 331.574 47.2439 329.475 43.3359C329.213 42.728 329.038 42.2069 329.038 41.599C329.038 41.0779 329.126 40.6437 329.3 40.1226C329.825 39.0805 330.612 38.2989 331.749 37.9515C331.836 37.9515 331.836 37.9515 331.836 37.8646C331.836 37.7778 331.836 37.7778 331.749 37.7778H328.514C327.552 37.7778 326.852 37.5172 326.24 36.9093C325.628 36.3014 325.366 35.6066 325.366 34.7382C325.366 33.8697 325.628 33.0881 326.24 32.4802C326.852 31.8723 327.639 31.5249 328.514 31.5249H355.533C355.533 31.5249 355.62 31.5249 355.707 31.5249ZM336.645 9.20562C336.121 9.20562 335.946 9.46616 335.946 9.90038V10.3346C335.946 18.1507 333.41 24.3167 328.426 28.659C327.814 29.1801 327.114 29.3538 326.502 29.3538C326.327 29.3538 326.153 29.3538 325.978 29.2669C325.016 29.0932 324.229 28.659 323.617 27.9642C323.092 27.4432 322.83 26.7484 322.83 26.0536C322.83 25.0983 323.18 24.3167 323.879 23.7088C327.639 20.4087 329.563 15.8927 329.563 10.1609V9.11877C329.563 7.38186 330.175 5.90549 331.399 4.68966C332.623 3.47382 334.11 2.8659 335.859 2.8659H348.362C350.199 2.8659 351.685 3.47382 352.909 4.68966C354.134 5.90549 354.746 7.38186 354.746 9.11877V19.7139C354.746 20.6692 354.833 21.1903 355.008 21.4508C355.183 21.6245 355.533 21.7982 356.057 21.7982H359.293C359.817 21.7982 360.167 21.4508 360.429 20.8429C360.604 20.235 360.779 18.8455 360.866 16.7612C360.954 16.0664 361.216 15.5453 361.828 15.2848C362.44 14.9374 363.052 14.9374 363.665 15.1111C364.539 15.4585 365.238 16.0664 365.763 16.848C366.2 17.4559 366.375 18.1507 366.375 18.7586C366.375 18.9323 366.375 19.0192 366.375 19.1928C366.025 22.3193 365.326 24.4904 364.364 25.6194C363.402 26.8352 361.916 27.3563 359.905 27.3563H354.92C352.21 27.3563 350.374 26.8352 349.412 25.7931C348.45 24.751 348.013 22.7535 348.013 19.7139V9.90038C348.013 9.37931 347.75 9.20562 347.313 9.20562H336.645ZM351.948 38.4725C352.035 38.2988 352.035 38.212 351.948 38.0383C351.86 37.8646 351.773 37.8646 351.598 37.8646H334.634C334.459 37.8646 334.285 37.9515 334.197 38.0383C334.11 38.212 334.11 38.2988 334.197 38.4725C336.208 42.6411 338.919 46.4623 342.329 49.7625C342.679 50.1098 343.116 50.1098 343.378 49.8493C347.051 46.5492 349.936 42.728 351.948 38.4725Z" fill="#0061BB"/>
<path d="M387.623 3.3001C387.973 2.43164 388.672 1.82372 389.547 1.3895C390.071 1.12896 390.509 1.04211 391.033 1.04211C391.383 1.04211 391.733 1.12896 392.083 1.21581C392.957 1.47634 393.569 2.08426 394.006 2.86587C394.181 3.3001 394.269 3.73432 394.269 4.16855C394.269 4.51593 394.181 4.95016 394.006 5.38439C392.345 9.11874 390.509 12.9399 388.41 16.6743C388.148 17.1085 388.06 17.5428 388.06 17.977V64.5261C388.06 65.3946 387.711 66.1762 387.099 66.7841C386.486 67.392 385.699 67.7394 384.738 67.7394C383.776 67.7394 383.076 67.392 382.377 66.7841C381.765 66.1762 381.415 65.3946 381.415 64.5261V28.0511C381.415 27.8774 381.327 27.7905 381.24 27.7905C381.153 27.7905 381.065 27.7905 380.978 27.8774C379.754 29.5274 378.529 31.0906 377.218 32.567C376.693 33.1749 376.081 33.4355 375.294 33.4355C375.119 33.4355 375.032 33.4355 374.857 33.4355C373.895 33.2618 373.195 32.8276 372.758 31.9591C372.234 31.1775 372.059 30.309 372.059 29.3537C372.059 29.18 372.059 28.9195 372.146 28.7458C372.234 27.6168 372.671 26.5747 373.458 25.7931C379.229 19.4534 383.863 11.9846 387.623 3.3001ZM438.863 36.4751C439.475 37.083 439.738 37.8646 439.738 38.6462C439.738 39.5147 439.475 40.2094 438.863 40.8173C438.251 41.4253 437.552 41.6858 436.677 41.6858H424.086C423.911 41.6858 423.736 41.7726 423.649 41.8595C423.561 41.9463 423.561 42.12 423.649 42.2937C425.572 45.1596 427.758 47.9387 430.381 50.6309C433.005 53.3231 435.715 55.5811 438.513 57.4917C439.213 58.0127 439.65 58.7075 439.825 59.6628C439.825 59.8365 439.825 59.9233 439.825 60.0102C439.825 60.7918 439.563 61.4866 439.038 62.0076C438.339 62.7892 437.552 63.2235 436.502 63.3972C436.327 63.484 436.153 63.484 435.89 63.484C435.191 63.484 434.491 63.2235 433.792 62.7892C428.633 58.7075 423.998 53.4968 419.889 47.0702C419.801 46.9834 419.714 46.9834 419.626 47.0702C419.539 47.0702 419.451 47.1571 419.451 47.2439V64.4393C419.451 65.3946 419.102 66.2631 418.402 66.871C417.703 67.5657 416.916 67.9131 415.954 67.9131C414.992 67.9131 414.205 67.5657 413.505 66.871C412.806 66.1762 412.456 65.3946 412.456 64.4393V47.6781C412.456 47.5913 412.369 47.5044 412.281 47.4176C412.194 47.3307 412.106 47.4176 412.019 47.5044C407.647 53.8442 402.75 58.8812 397.242 62.7892C396.63 63.2235 395.93 63.3972 395.23 63.3972C394.968 63.3972 394.706 63.3972 394.531 63.3103C393.569 63.1366 392.695 62.7024 392.083 61.8339C391.558 61.226 391.383 60.6181 391.383 59.9233C391.383 59.7496 391.383 59.6628 391.383 59.4891C391.558 58.5338 391.995 57.839 392.695 57.4048C395.668 55.5811 398.466 53.3231 401.264 50.7177C403.974 48.0255 406.423 45.2465 408.434 42.2937C408.521 42.12 408.521 42.0332 408.434 41.8595C408.347 41.6858 408.259 41.6858 408.084 41.6858H395.056C394.181 41.6858 393.482 41.4253 392.87 40.8173C392.257 40.2094 391.995 39.5147 391.995 38.6462C391.995 37.7777 392.257 37.083 392.87 36.4751C393.482 35.8671 394.181 35.5198 395.056 35.5198H411.757C412.281 35.5198 412.456 35.2592 412.456 34.825V28.2247C412.456 27.7037 412.194 27.53 411.757 27.53H403.45C401.701 27.53 400.215 26.9221 398.99 25.7062C397.766 24.4904 397.154 23.014 397.154 21.2771V9.63982C397.154 7.90291 397.766 6.42653 398.99 5.2107C400.215 3.99486 401.701 3.38694 403.45 3.38694H429.332C431.081 3.38694 432.567 3.99486 433.792 5.2107C435.016 6.42653 435.628 7.90291 435.628 9.63982V21.1903C435.628 22.9272 435.016 24.4035 433.792 25.6194C432.567 26.8352 431.081 27.4431 429.332 27.4431H420.064C419.539 27.4431 419.364 27.7037 419.364 28.1379V34.7382C419.364 35.2592 419.626 35.4329 420.064 35.4329H436.327C437.464 35.5198 438.251 35.8671 438.863 36.4751ZM404.499 9.46612C403.975 9.46612 403.8 9.72666 403.8 10.1609V20.6692C403.8 21.1903 404.062 21.364 404.499 21.364H428.108C428.633 21.364 428.808 21.1034 428.808 20.6692V10.1609C428.808 9.63981 428.545 9.46612 428.108 9.46612H404.499Z" fill="#0061BB"/>
</svg>
