<?xml version="1.0" encoding="utf-8"?>
<!-- Generator: Adobe Illustrator 26.3.1, SVG Export Plug-In . SVG Version: 6.00 Build 0)  -->
<svg version="1.1" id="圖層_1" xmlns="http://www.w3.org/2000/svg" xmlns:xlink="http://www.w3.org/1999/xlink" x="0px" y="0px"
	 viewBox="0 0 396 52.6" style="enable-background:new 0 0 396 52.6;" xml:space="preserve">
<g>
	<g>
		<path d="M306.8,35.3c-0.5,2.6-1.5,5.7-3,9.1l-3.7-1.2c1.5-3.6,2.5-6.6,2.9-9L306.8,35.3z M313.4,32.9h-11.5
			c-0.4,0-0.5-0.2-0.5-0.6V2.7c0-0.3,0.2-0.5,0.5-0.5h11.5c0.4,0,0.6,0.2,0.6,0.5v29.7C314,32.7,313.8,32.9,313.4,32.9z M310.2,11.2
			V5.9c0-0.1-0.1-0.1-0.2-0.1h-4.6c-0.1,0-0.1,0-0.1,0.1v5.3C305.3,11.2,310.2,11.2,310.2,11.2z M310.2,20.2v-5.3h-5v5.3H310.2z
			 M305.2,23.8V29c0,0.1,0,0.2,0.1,0.2h4.6c0.1,0,0.2-0.1,0.2-0.2v-5.2H305.2z M311.9,34.6c1.1,2,2.1,4.4,2.9,7.4l-3.5,1.1
			c-1-3.1-1.9-5.6-2.8-7.2L311.9,34.6z M321.7,44.3h-3.8v-6.4h-2.6v-3.3h2.6V22.3c0-0.6,0.3-0.8,0.9-0.8H329v-2.7h-13.2v-3.3h7.3V13
			h-5.5V9.7h5.5V7.3h-6.9V4h6.9V1h3.8v3h8.3V0.8h3.8V4h6.6v3.3H339v2.4h5.6V13H339v2.6h7.4v3.3h-13.6v2.7h10.4
			c0.6,0,0.9,0.3,0.9,0.8v12.2h2.3v3.3h-2.3v2.5c0,1.5-0.6,2.6-1.8,3.4c-1.6,1-4.3,1.1-8.3,0.4l-0.2-4c2.9,0.7,4.7,0.9,5.4,0.4
			c0.7-0.4,1-1,1-1.7v-1h-18.6v6.4H321.7z M329,24.8h-7c-0.2,0-0.3,0.1-0.3,0.3v3.1h7.3V24.8z M329,34.6v-3.1h-7.3v3.1H329z
			 M335.2,7.3H327v2.4h8.3L335.2,7.3L335.2,7.3z M335.2,15.6V13H327v2.6H335.2z M332.8,28.2h7.5v-3.1c0-0.2-0.1-0.3-0.3-0.3h-7.1
			v3.4H332.8z M340.3,34.6v-3.1h-7.5v3.1H340.3z"/>
		<path d="M359,13.5h-3.3c-0.6,4.1-1.2,6.8-1.7,8.3l-4.1-0.6c1.6-4.9,2.4-10.3,2.4-16.4V2.4h4v2.4c0,1.1-0.1,2.7-0.2,4.7h3V0.8h4.3
			v8.8h4.3v4h-4.3V25c1.5-0.8,2.7-1.6,3.8-2.3l2.4,3.3c-1.8,1.1-3.9,2.3-6.3,3.4v15.2H359V31.2c-2.2,0.9-4.4,1.8-6.7,2.6l-2.3-3.6
			c3.6-1.2,6.6-2.3,8.9-3.3V13.5H359z M381.8,10.4c-0.2,1.9-0.5,3.8-0.8,5.5c-1.5,6.4-5.5,12.8-12.1,19.3l-3.6-2.2
			c4.7-4.6,8-8.6,9.9-12.2c1.2-2.5,2.1-6,2.6-10.4h-3.5c-1.5,4.1-3.1,7.4-4.9,9.9l-4.1-1.5c3.9-5.6,6.2-11.5,6.9-17.9l4.2,0.6
			c-0.4,1.8-0.7,3.4-1,4.9h19.1c0.3,0,0.6,0.1,0.8,0.2c0.5,0.3,0.7,1,0.7,2.1c0,6.9-0.1,13.1-0.2,18.4c-0.3,8.9-2,14.4-5.1,16.4
			c-1.9,1.3-5.6,1.2-10.9-0.2l-0.2-4.7c4.6,1.5,7.5,1.8,8.7,1c0.8-0.6,1.6-1.8,2.3-3.6c0.6-1.9,1-5.1,1.1-9.5
			c0.3-10,0.3-15.3,0-15.7c-0.1-0.2-0.3-0.3-0.5-0.3h-2c-0.2,6.3-1.7,12.7-4.5,19.1c-2.8,5.4-6.9,9.9-12.3,13.6l-3.4-3
			c10.2-5.7,15.5-15.6,15.9-29.7L381.8,10.4L381.8,10.4z"/>
	</g>
	<g>
		<g>
			<g>
				<polygon points="295.8,34.3 245.3,34.3 246,31.7 296.5,31.7 				"/>
				<polygon points="294.4,39.3 243.9,39.3 244.6,36.8 295.1,36.8 				"/>
				<polygon points="293.1,44.4 242.6,44.4 243.3,41.9 293.8,41.9 				"/>
			</g>
			<path d="M192.9,9.6c0.2-0.9,0.2-1.5-0.1-1.9s-0.9-0.6-1.8-0.6c-1,0-1.7,0.2-2.2,0.5c-0.5,0.4-0.9,1-1.1,1.9l-1.6,6.5h-15.4
				l0.7-3.1c1.3-4.7,3.6-8,6.9-10c3.3-2,8.3-2.9,14.8-2.9c6.1,0,10.4,1,12.9,2.9s3.2,4.8,2.2,8.7c-1.2,4.5-6.5,10.5-16,17.8
				c-1.8,1.5-3.2,2.6-4.2,3.3c-3.4,2.7-5.8,4.8-7.1,6.3c-1.4,1.5-2.2,2.9-2.6,4.2c0,0.1-0.1,0.3-0.1,0.4c0,0.2,0,0.3-0.1,0.4h21.4
				l-1.9,7.2H161l2.2-8.3c0.5-2.1,1.7-4.1,3.3-6.1c1.7-2,4.7-4.8,9.1-8.2c1-0.8,2.4-1.9,4.2-3.3c7.4-5.7,11.4-9.7,12-11.9L192.9,9.6
				z"/>
			<polygon points="217.8,51.3 221.1,38.8 198.9,38.8 200.8,31.7 223,1.1 244.1,1.1 236.5,29.2 223.8,29.2 230.8,9.1 229.3,9.1 
				214.5,31.7 243.3,31.7 241.4,38.8 233.9,38.8 230.6,51.3 			"/>
			<path d="M246.7,29.2l7.5-28.1h13.7l-3.6,13.5h0.2c1.4-1.4,3-2.5,4.7-3.1c1.8-0.7,3.8-1,6-1c3,0,5.1,0.6,6.3,1.7
				c1.2,1.2,1.5,2.9,0.9,5.1l-3.2,11.9h-13.8l2.4-9c0.2-0.9,0.2-1.6-0.1-1.9c-0.3-0.3-0.9-0.5-1.8-0.5s-1.5,0.2-2,0.6
				s-0.9,1-1.1,1.8l-2.4,9C260.4,29.2,246.7,29.2,246.7,29.2z"/>
		</g>
	</g>
</g>
<g>
	<path d="M12.9,24.6h1.5c3.4,0,6.2,0,5.6,4.5c-0.6,4.3-3.7,4.3-6.9,4.3h-1.5L12.9,24.6z M0,52.6h8.7l1.8-11.7h4.9
		c7.6,0,12.4-3.7,13.6-12c1.2-8.1-3.2-11.6-10.4-11.6H5.3L0,52.6z"/>
	<path d="M65.1,18.9l-2.2,14.8H63c1.9-2.2,3.9-3.2,6.5-3.2c4.8,0,6.6,3.3,5.8,8.4l-1.8,12.2h-6.7l1.5-10.2c0.3-2.3,0.4-4.7-2.3-4.7
		c-2.6,0-3.8,2.4-4.2,4.7l-1.5,10.2h-6.7l4.8-32.2C58.4,18.9,65.1,18.9,65.1,18.9z"/>
	<path d="M89.2,36.7c2.7,0,4,2.1,3.6,4.5c-0.4,2.5-2.2,4.5-4.9,4.5c-2.7,0-4-1.9-3.6-4.5C84.6,38.7,86.5,36.7,89.2,36.7z M90.1,30.5
		c-6,0-11.9,3.8-12.9,10.6s3.7,10.6,9.7,10.6s11.9-3.8,12.9-10.6C100.8,34.4,96.1,30.5,90.1,30.5z"/>
	<path d="M109.8,33.7L109.8,33.7c2-2.2,4.1-3.1,6.5-3.1c2.7,0,4.9,1.2,5.8,3.8c1.7-2.5,4.4-3.8,6.9-3.8c4.8,0,5.9,3.3,5.2,7.9
		l-1.9,12.7h-6.7l1.4-9.5c0.3-2.1,0.9-5.4-1.9-5.4c-3.1,0-3.6,3.1-4,5.4l-1.4,9.5H113l1.4-9.5c0.3-2.2,0.8-5.6-2.1-5.6
		c-3,0-3.5,3.4-3.8,5.6l-1.4,9.5h-6.7l3-19.9h6.7L109.8,33.7z"/>
	<path d="M143.3,38.3c0.7-2.1,2.5-3.1,4.4-3.1c1.8,0,3.3,1.2,3.3,3.1H143.3z M156.7,41.6c1-6.8-2.1-11-8.6-11c-6.1,0-11,4-12,10.6
		c-1,6.9,3.1,10.6,9.3,10.6c4.3,0,8.8-2.1,10.6-6.8h-6.4c-0.9,1.3-2,1.8-3.5,1.8c-2.7,0-3.9-1.6-3.5-4.4h14L156.7,41.6z"/>
	<path d="M101.7,18.7c1.3,0,2.1,1.2,1.9,2.5c-0.2,1.2-1.4,2.6-2.6,2.6c-1.3,0-2-1.5-1.8-2.6C99.3,19.9,100.4,18.7,101.7,18.7z
		 M100.8,25.2c2.2,0,4-1.8,4.4-4c0.3-2.1-1-4-3.2-4s-4,1.9-4.4,4C97.3,23.4,98.6,25.2,100.8,25.2z"/>
	<path d="M111.5,17.2h1.1l3.2,5.3l0,0l0.8-5.1h1.5l-1.1,7.8h-1.1l-3.2-5.3l0,0l-0.8,5.2h-1.5L111.5,17.2z"/>
	<path d="M124.8,23.7h2.1l-0.2,1.3h-3.6l1.1-7.6h1.5L124.8,23.7z"/>
	<path d="M133.7,25h-1.5l1.1-7.6h1.5L133.7,25z"/>
	<path d="M141,17.2h1.1l3.2,5.3l0,0l0.8-5.1h1.5l-1.1,7.8h-1.1l-3.2-5.3l0,0l-0.8,5.2h-1.5L141,17.2z"/>
	<path d="M155,18.7l-0.2,1.7h2.4l-0.2,1.3h-2.4l-0.3,2.1h2.5l-0.2,1.3h-3.9l1.1-7.6h3.9l-0.2,1.3L155,18.7L155,18.7z"/>
	<g>
		<path d="M54.5,29.3l1.6-10.5c-1.7-0.8-3.5-1.4-5.4-1.6l-1.3,8.5C51.5,26.2,53.4,27.4,54.5,29.3z"/>
		<path d="M52.8,40.6c-1.7,1.8-4,3.1-6.3,3.4l-1.3,8.5c1.9-0.2,3.7-0.8,6-1.5L52.8,40.6z"/>
	</g>
	<path d="M45.3,52.5l1.3-8.5c-0.5,0.1-0.9,0.1-1.4,0.1c-5.1,0-8-3.8-7.2-9.2c0.8-5.2,4.8-9.3,9.9-9.3c0.5,0,1,0.1,1.5,0.1l1.3-8.5
		c-0.6-0.1-1.2-0.1-1.8-0.1c-4.5,0-9.3,2.1-12.9,5.5c-3.5,3.3-5.8,7.7-6.5,12.3c-0.7,5,0.2,9.4,3.2,12.7c2.8,3.2,6.8,5,11.2,5
		C44.2,52.6,44.8,52.6,45.3,52.5z"/>
</g>
</svg>
