<?xml version="1.0" encoding="utf-8"?>
<!-- Generator: Adobe Illustrator 26.3.1, SVG Export Plug-In . SVG Version: 6.00 Build 0)  -->
<svg version="1.1" id="圖層_1" xmlns="http://www.w3.org/2000/svg" xmlns:xlink="http://www.w3.org/1999/xlink" x="0px" y="0px"
	 viewBox="0 0 168 168" style="enable-background:new 0 0 168 168;" xml:space="preserve">
<style type="text/css">
	.st0{fill:#FF8080;stroke:#010918;stroke-width:2.1896;stroke-linecap:round;stroke-linejoin:round;stroke-miterlimit:10;}
	.st1{fill:#FFFFFF;stroke:#010918;stroke-width:2.1896;stroke-linecap:round;stroke-linejoin:round;stroke-miterlimit:10;}
	.st2{fill:none;stroke:#010918;stroke-width:2.1896;stroke-linecap:round;stroke-linejoin:round;stroke-miterlimit:10;}
	.st3{fill:#FF8080;}
	.st4{fill:#010918;}
	.st5{fill:#FFFFFF;}
	.st6{fill:#FEEFCE;}
	.st7{fill:#AA7158;}
	.st8{fill-rule:evenodd;clip-rule:evenodd;}
	.st9{fill-rule:evenodd;clip-rule:evenodd;fill:#FFFFFF;}
	.st10{fill:#2A2D32;}
	.st11{fill:#949494;}
	.st12{fill:#2AABE2;stroke:#010918;stroke-width:1.9395;stroke-linecap:round;stroke-linejoin:round;stroke-miterlimit:10;}
	.st13{fill:#FFFFFF;stroke:#010918;stroke-width:1.3289;stroke-linecap:round;stroke-linejoin:round;stroke-miterlimit:10;}
	.st14{fill:#FFFFFF;stroke:#010918;stroke-width:1.3289;stroke-linecap:round;stroke-linejoin:round;stroke-miterlimit:9.9999;}
</style>
<g>
	<g>
		<g>
			<g>
				<g>
					<g>
						<path class="st0" d="M136.1,64.8c0,0-1.7-0.8-2.2-4.7c-0.3-2-0.9-3.2-1.9-5c-0.1-0.2-0.2-0.3-0.3-0.5
							c-0.5-0.9-1.2-1.7-1.8-2.5c-1.8-2.4-2.9-5.4-2.8-8.7c0.2-7.3,6.5-13.1,13.8-12.8c7.1,0.3,12.7,6.1,12.7,13.2
							c0,3.1-1.1,6-2.9,8.3c-0.5,0.6-0.9,1.2-1.3,1.9c-0.1,0.1-0.1,0.2-0.2,0.3c-1.3,2.1-2.1,3.8-2.5,6.2c-0.6,3.5-2.1,4.3-2.1,4.3"
							/>
						<path class="st1" d="M145,64.8v5.1c0,0.8-0.7,1.5-1.5,1.5h-1v0.8c0,0.6-0.5,1-1,1h-2.4c-0.6,0-1-0.5-1-1v-0.8h-1.4
							c-0.6,0-1.1-0.5-1.1-1.1v-5.5H145z"/>
					</g>
				</g>
			</g>
		</g>
		<line class="st2" x1="140.3" y1="64.8" x2="140.3" y2="45.2"/>
	</g>
</g>
<g>
	<g>
		<polygon class="st3" points="41.4,38.4 41.4,56.3 26.7,62.8 12,56.3 12,38.4 		"/>
		<path class="st4" d="M26.7,63.8c-0.1,0-0.3,0-0.4-0.1l-14.7-6.5C11.2,57,11,56.7,11,56.3V38.4c0-0.5,0.4-1,1-1c0.5,0,1,0.4,1,1
			v17.3l13.7,6l13.7-6V38.4c0-0.5,0.4-1,1-1s1,0.4,1,1v17.9c0,0.4-0.2,0.7-0.6,0.9l-14.7,6.5C26.9,63.8,26.8,63.8,26.7,63.8z"/>
	</g>
	<g>
		<polygon class="st3" points="41.4,38.4 26.8,33.4 12,38.4 26.7,44 		"/>
		<path class="st4" d="M26.7,45c-0.1,0-0.2,0-0.3-0.1l-14.7-5.6c-0.4-0.1-0.6-0.5-0.6-0.9s0.3-0.8,0.7-0.9l14.8-5.1
			c0.2-0.1,0.4-0.1,0.6,0l14.6,5.1c0.4,0.1,0.7,0.5,0.7,0.9s-0.2,0.8-0.6,0.9L27,44.9C26.9,45,26.8,45,26.7,45z M14.9,38.5L26.7,43
			l11.8-4.5l-11.7-4.1L14.9,38.5z"/>
	</g>
	<g>
		<path class="st5" d="M26.7,44v18.8V44z"/>
		<path class="st4" d="M26.7,63.8c-0.5,0-1-0.4-1-1V44c0-0.5,0.4-1,1-1c0.5,0,1,0.4,1,1v18.8C27.6,63.4,27.2,63.8,26.7,63.8z"/>
	</g>
</g>
<g>
	<path class="st5" d="M127,106.7H43.6c-0.1-7.6,2.8-15.1,9-19.8c3.4-2.6,7.5-4.2,11.6-5.6c2.9-1,7.3-2.3,8.9-5.2
		c1.5-2.8,1-7.5,1.1-10.7c0.1,0.1,0.2,0.2,0.3,0.3c3,3.4,6.8,5.7,10.9,5.7s7.9-2.3,10.9-5.7c0.1-0.1,0.1-0.2,0.2-0.2
		c0.1,4.6-0.6,10.2,3.6,13.1c1.9,1.4,4.3,2,6.6,2.8c4.2,1.4,8.4,3,11.9,5.8C124.4,92,127.2,99.3,127,106.7z"/>
	<path class="st6" d="M73,75.5c1.5-2.8,1-7.5,1.1-10.7c0.1,0.1,0.2,0.2,0.3,0.3c3,3.4,6.8,5.7,10.9,5.7s7.9-2.3,10.9-5.7
		c0.1-0.1,0.1-0.2,0.2-0.2c0.1,4.6-0.6,10.2,3.6,13.1c1.9,1.4-3.1,9.8-14.7,9.8C73.5,87.8,71.4,78.5,73,75.5z"/>
	<polygon class="st5" points="85.1,87.8 66.6,91.7 73.2,74.6 	"/>
	<polygon class="st5" points="85.2,87.8 103.7,91.7 97.1,74.6 	"/>
	<path class="st7" d="M73,75.5c-0.7,1.3-1.9,2.3-3.3,3c-5.8-5.3-9.6-13.6-9.6-22.8c0-8.2,6.9-12.8,6.9-12.8s0.6,6.9,0.8,8.3l0,0
		c0.4,2,0.9,4,1.7,5.9c0.9,2.3,2.1,4.5,3.5,6.4c0.3,0.5,0.7,0.9,1,1.3C74,68,74.5,72.7,73,75.5z"/>
	<path class="st7" d="M110.3,55.7c0,9.3-3.7,17.5-9.6,22.9c-0.3-0.1-0.6-0.3-0.8-0.5c-4.2-3-3.5-8.5-3.6-13.1
		c0.4-0.4,0.7-0.9,1.1-1.4c1.4-1.9,2.6-4.1,3.5-6.4c0.1-0.2,0.2-0.4,0.2-0.7c0.7-1.8,1.2-3.6,1.5-5.4c0.1-0.6,0.2-2.8,0.3-4.8
		c0.1-2,0.2-3.8,0.2-3.8s-0.1-0.1-0.3-0.3c0.1,0,0.3,0.2,0.7,0.5c1,0.8,2.8,2.5,4.4,4.9l0,0c0.6,0.9,1.1,1.9,1.5,3
		C109.9,52.1,110.3,53.8,110.3,55.7z"/>
</g>
<path class="st6" d="M102.7,42.1L102.7,42.1c-1.1-2.2-2.2-4.4-3.3-6.5c-0.8-1.7-1.6-3.5-2.3-5.2c-2.2-0.7-4.3-1.4-6.5-2.2
	c-3.8,0.5-7.5,1-11.3,1.5c-3.8,4.3-7.6,8.6-11.5,12.9l-0.7,0.2l0.7,8v0.1c0,0.1,0,0.1,0,0.2l0,0c0.4,2,0.9,4,1.7,5.9
	c0.9,2.3,2.1,4.5,3.5,6.4c0.3,0.4,0.7,0.9,1,1.3c0.1,0.1,0.2,0.2,0.3,0.3c3,3.4,6.8,5.6,10.9,5.6s7.9-2.2,10.9-5.7
	c0.1-0.1,0.1-0.2,0.2-0.2c0,0.8,0,0.8,0,0c0.4-0.4,0.7-0.9,1.1-1.4c1.4-1.9,2.6-4.1,3.5-6.4c0.1-0.2,0.2-0.4,0.2-0.7l0,0
	c0.7-1.8,1.2-3.6,1.5-5.4c0.3-1.8,0.3-3.3,0.3-4.8C102.9,44.6,102.8,43.2,102.7,42.1z"/>
<g>
	<path class="st7" d="M72,47.6c1.5-2.9,0.3-7.6,3.9-10.6c5-3.2,13.5-3.7,19.1-0.1c3.1,3.2,2.3,9.9,6.1,12l4.3,0.6
		c0,0,0.1-10-1.7-16.2c-1.8-6.2-6.7-8.2-6.7-8.2s-1.1-2.9-4.1-3.4c-1.9-0.3-4.4-0.8-7.5-0.8c-1.8,0-4.7,0.6-6.4,1.1
		c-3.5,1.1-6.1,3.2-8.6,5.7c-8.3,8.5-2.7,22-2.8,22H69C70,49.4,71.3,49.2,72,47.6z"/>
	<path d="M90.3,35c-0.1,0-0.1,0-0.2,0c-0.2-0.1-0.3-0.4-0.2-0.6c0.5-1.1,1.8-1.9,3-2c0.2,0,0.5,0.2,0.5,0.4s-0.2,0.5-0.4,0.5
		c-0.8,0-1.9,0.7-2.2,1.5C90.6,34.9,90.5,35,90.3,35z"/>
	<path d="M82.6,35c-0.1,0-0.2,0-0.3-0.1c-1.3-1.3-2.1-4.4-0.4-6.3c0.2-0.2,0.4-0.2,0.6,0s0.2,0.4,0,0.6c-1.4,1.5-0.5,4.2,0.4,5
		c0.2,0.2,0.2,0.5,0,0.6C82.9,35,82.8,35,82.6,35z"/>
	<path d="M79,35.9L79,35.9c-1.4-0.2-2.3-2.2-2.3-3.8c0-0.2,0.2-0.4,0.5-0.4c0.2,0,0.4,0.2,0.4,0.5c0,1.4,0.8,2.8,1.4,2.9
		c0.2,0,0.4,0.3,0.4,0.5C79.4,35.8,79.2,35.9,79,35.9z"/>
	<path d="M100,47.2c-0.1,0-0.2,0-0.2-0.1c-1.9-1.2-2.5-3.5-3.1-5.7c-0.6-2.4-1.2-4.7-3.3-5.1c-0.2-0.1-0.4-0.3-0.3-0.5
		s0.3-0.4,0.5-0.3c2.6,0.6,3.3,3.2,4,5.8c0.5,2.1,1.1,4.2,2.7,5.2c0.2,0.1,0.3,0.4,0.1,0.6C100.3,47.1,100.2,47.2,100,47.2z"/>
	<path d="M71.7,48.1c-0.1,0-0.2,0-0.3-0.1c-0.2-0.2-0.2-0.4,0-0.6c1-1.2,1.2-2.9,1.4-4.6c0.3-2.6,0.6-5.2,3.4-6.5
		c0.2-0.1,0.5,0,0.6,0.2s0,0.5-0.2,0.6c-2.3,1.1-2.6,3.3-2.9,5.8c-0.2,1.8-0.5,3.7-1.6,5.1C71.9,48,71.8,48.1,71.7,48.1z"/>
</g>
<g>
	<path class="st4" d="M126.9,106.9H43.5c-0.5,0-0.8-0.4-0.8-0.8c-0.1-8.4,3.2-15.9,9.3-20.5c3.6-2.8,8-4.4,11.9-5.7l0.6-0.2
		c2.7-0.9,6.5-2.2,7.8-4.6c1.1-2,1-5.2,1-8c0-0.8,0-1.6,0-2.4c0-0.4,0.2-0.7,0.6-0.8c0.3-0.1,0.7,0,0.9,0.3c0.1,0.1,0.2,0.2,0.2,0.3
		c3,3.5,6.6,5.4,10.2,5.4c4.6,0,8.1-2.9,10.2-5.4c0.1-0.1,0.2-0.2,0.3-0.3c0.2-0.2,0.6-0.3,0.9-0.2c0.3,0.1,0.5,0.4,0.5,0.7
		c0,0.7,0,1.4,0,2.2c0,4,0,8,3.2,10.3c1.7,1.2,3.7,1.8,5.7,2.5l0.6,0.2c3.9,1.3,8.3,2.9,12.1,5.9c5.8,4.6,9.1,12,8.9,20.2
		C127.7,106.5,127.3,106.9,126.9,106.9z M44.3,105.2H126c-0.1-7.3-3.1-13.9-8.3-18c-3.6-2.8-7.9-4.4-11.6-5.7l-0.6-0.2
		c-2.1-0.7-4.3-1.4-6.1-2.7c-3.9-2.8-3.9-7.5-3.9-11.7c0,0,0,0,0-0.1c-3.1,3.1-6.7,4.7-10.3,4.7c-3.6,0-7.2-1.7-10.3-4.7
		c0,0.1,0,0.1,0,0.2c0,3,0.1,6.4-1.2,8.8c-1.6,3-5.7,4.4-8.7,5.4l-0.6,0.2c-3.7,1.3-7.9,2.8-11.4,5.4
		C47.6,91.1,44.4,97.7,44.3,105.2z"/>
	<path class="st4" d="M66.6,92.5c-0.2,0-0.5-0.1-0.6-0.3c-0.2-0.2-0.3-0.6-0.1-0.8l6.6-17.1c0.1-0.3,0.3-0.5,0.6-0.5
		c0.3-0.1,0.6,0,0.8,0.3l11.9,13.2c0.2,0.2,0.3,0.5,0.2,0.8c-0.1,0.3-0.3,0.5-0.6,0.6l-18.5,3.9C66.8,92.5,66.7,92.5,66.6,92.5z
		 M73.5,76.2L68,90.6l15.6-3.3L73.5,76.2z"/>
	<path class="st4" d="M89.3,82.1l7.2-8c0.2-0.2,0.5-0.3,0.8-0.3c0.3,0.1,0.5,0.2,0.6,0.5l6.6,17.1c0.1,0.3,0.1,0.6-0.1,0.8
		c-0.2,0.2-0.4,0.3-0.6,0.3c-0.1,0-0.1,0-0.2,0L85,88.6c-0.3-0.1-0.5-0.3-0.6-0.6c-0.1-0.3,0-0.6,0.2-0.8L89.3,82.1 M86.8,87.3
		l15.6,3.3l-5.5-14.4L86.8,87.3z"/>
	<path class="st4" d="M69.7,79.4c-0.2,0-0.4-0.1-0.6-0.2c-6.3-5.7-9.8-14.2-9.8-23.5c0-8.5,7-13.3,7.3-13.5c0.2-0.2,0.6-0.2,0.8-0.1
		c0.3,0.1,0.4,0.4,0.5,0.7c0,0.1,0.6,6.6,0.8,8.2v0.1l0,0c0.4,2,0.9,3.9,1.6,5.7c0.9,2.3,2,4.4,3.4,6.2c0.3,0.4,0.6,0.8,1,1.2
		c0.1,0.2,0.2,0.4,0.2,0.6c0,0.7,0,1.5,0,2.3c0,3,0.1,6.4-1.2,8.7c-0.7,1.3-1.9,2.4-3.6,3.4C70,79.3,69.8,79.4,69.7,79.4z
		 M66.3,44.5c-1.9,1.7-5.4,5.5-5.4,11.1c0,8.5,3.2,16.4,8.9,21.8c1.2-0.7,2-1.5,2.4-2.4c1.1-2,1-5.1,1-7.9c0-0.7,0-1.4,0-2.1
		c-0.3-0.4-0.6-0.7-0.9-1.1c-1.4-1.9-2.7-4.2-3.6-6.6c-0.8-1.9-1.3-3.9-1.7-6v-0.1C66.9,50.3,66.5,46.7,66.3,44.5z"/>
	<path class="st4" d="M100.7,79.4c-0.1,0-0.3,0-0.4-0.1c-0.3-0.2-0.6-0.4-0.9-0.6c-3.9-2.8-3.9-7.5-3.9-11.7c0-0.7,0-1.4,0-2.1
		c0-0.2,0.1-0.4,0.2-0.6c0.4-0.4,0.7-0.8,1-1.3c1.4-1.8,2.5-3.9,3.4-6.2c0.8-1.9,1.3-3.9,1.7-5.9c0,0,0,0,0-0.1
		c0.2-0.9,0.4-5.8,0.5-8.1l-0.1-0.1c-0.3-0.3-0.3-0.8,0-1.1s0.8-0.4,1.1-0.1c0.3,0.2,7.9,5.7,7.9,14.2c0,9.2-3.6,17.8-9.9,23.5
		C101.1,79.3,100.9,79.4,100.7,79.4z M97.1,65.2c0,0.6,0,1.2,0,1.8c0,4,0,8,3.2,10.3c0.1,0.1,0.2,0.1,0.2,0.2
		c5.6-5.4,8.8-13.3,8.8-21.8c0-5.4-3.5-9.5-5.6-11.5c-0.1,2.2-0.3,6-0.4,7c0,0,0,0,0,0.1c-0.4,2.2-1,4.3-1.8,6.3
		c-0.9,2.4-2.2,4.6-3.6,6.6C97.7,64.4,97.4,64.8,97.1,65.2z"/>
</g>
<g>
	<path d="M84.9,57.2c-0.1,0-0.2,0-0.3-0.1c-0.2-0.1-0.2-0.4-0.1-0.6c0.5-0.6,0.7-1,0.7-1.3c0-0.2-0.2-0.4-0.5-0.6
		c-0.4-0.3-0.9-0.8-1.1-1.5c-0.4-1.6,0.3-3.7,0.7-4.6c0.1-0.2,0.3-0.3,0.5-0.2s0.3,0.3,0.2,0.5c-0.4,0.9-1,2.8-0.7,4.1
		c0.1,0.5,0.5,0.8,0.9,1.1s0.8,0.6,0.8,1.2c0.1,0.5-0.2,1.1-0.9,1.9C85.2,57.2,85.1,57.2,84.9,57.2z"/>
	<path d="M76.3,45c-0.1,0-0.2-0.1-0.3-0.2c-0.1-0.2-0.1-0.4,0.1-0.6c0.1-0.1,1.9-1.4,4.3-0.4c0.2,0.1,0.3,0.3,0.2,0.5
		c-0.1,0.2-0.3,0.3-0.5,0.2c-2-0.8-3.5,0.2-3.6,0.3C76.5,45,76.4,45,76.3,45z"/>
	<path d="M91.9,44.5c-0.1,0-0.2,0-0.2-0.1c-0.1,0-1.6-1-3.6,0c-0.2,0.1-0.4,0-0.5-0.2s0-0.4,0.2-0.5c2.4-1.2,4.3,0,4.4,0.1
		c0.2,0.1,0.2,0.4,0.1,0.5C92.1,44.4,92,44.5,91.9,44.5z"/>
	<path class="st8" d="M77.1,50.4c0-0.8,0.5-1.5,1.2-1.5c0.6,0,1.2,0.6,1.2,1.4c0,0.8-0.5,1.5-1.2,1.5C77.7,51.8,77.1,51.2,77.1,50.4
		z"/>
	<path class="st8" d="M89.3,50.1c0-0.8,0.5-1.5,1.2-1.5c0.6,0,1.2,0.6,1.2,1.4c0,0.8-0.4,1.5-1.2,1.5C89.9,51.6,89.3,50.9,89.3,50.1
		z"/>
	<path class="st9" d="M84.9,60.3c-2.3,0-4.5-0.4-4.5-0.4s1,4.2,4.5,4.3c3.3,0.2,4.5-4.3,4.5-4.3S87.2,60.3,84.9,60.3z"/>
	<path d="M85.1,64.7c-0.1,0-0.1,0-0.2,0c-3.7-0.2-4.8-4.5-4.9-4.6c0-0.1,0-0.3,0.1-0.4c0.1-0.1,0.2-0.1,0.4-0.1c0,0,2.2,0.4,4.4,0.4
		c2.2,0,4.4-0.4,4.4-0.4c0.1,0,0.3,0,0.4,0.1s0.1,0.2,0.1,0.4C89.7,60.2,88.5,64.7,85.1,64.7z M81,60.4c0.4,1.1,1.6,3.3,3.9,3.5
		c2.3,0.1,3.5-2.3,3.9-3.5c-0.8,0.1-2.3,0.3-3.9,0.3S81.8,60.5,81,60.4z"/>
</g>
<g>
	<path class="st10" d="M87.9,64.7c-0.4,0-0.8-0.3-0.8-0.7c-0.1-0.5,0.3-0.9,0.7-0.9c6.3-0.8,11.9-4.8,15-10.6
		c0.2-0.4,0.7-0.6,1.1-0.3c0.4,0.2,0.6,0.7,0.3,1.1C101,59.5,94.9,63.8,87.9,64.7C88,64.7,88,64.7,87.9,64.7z"/>
	<path class="st4" d="M106,41.5c-0.4,0-0.8-0.3-0.8-0.8C104.3,30,95.7,22,85.3,22C75,22,66.4,30,65.5,40.7c0,0.5-0.4,0.8-0.9,0.8
		s-0.8-0.4-0.8-0.9c1-11.5,10.2-20.2,21.5-20.2s20.5,8.7,21.5,20.2C106.9,41,106.5,41.4,106,41.5L106,41.5z"/>
	<path class="st10" d="M86.6,66.4H84c-1.2,0-2.2-1-2.2-2.2c0-1.2,1-2.2,2.2-2.2h2.6c1,0,1.9,0.7,2.1,1.6c0,0.1,0.1,0.3,0.1,0.6
		C88.8,65.4,87.8,66.4,86.6,66.4z M84.1,63.7c-0.3,0-0.5,0.2-0.5,0.5c0,0.3,0.2,0.5,0.5,0.5h2.6c0.3,0,0.5-0.2,0.5-0.5v-0.1
		c-0.1-0.2-0.3-0.4-0.5-0.4C86.7,63.7,84.1,63.7,84.1,63.7z"/>
	<g>
		<path class="st11" d="M67.9,51.4c0.1,0.8-0.5,1.4-1.2,1.5l-2,0.2c-0.8,0.1-1.4-0.5-1.5-1.2l-0.7-8.3l-0.1-1.3
			c-0.1-0.8,0.5-1.4,1.2-1.5l1.2-0.1l0.9-0.1c0.8-0.1,1.4,0.5,1.5,1.2L67.9,51.4z"/>
		<path class="st11" d="M63,50.5l-1.4,0.1c-0.8,0.1-1.4-0.5-1.5-1.2l-0.4-4.3c-0.1-0.8,0.5-1.4,1.2-1.5l1.4-0.1L63,50.5z"/>
		<path class="st11" d="M108.3,42.2l-0.1,1.3l-0.7,8.3c-0.1,0.8-0.7,1.3-1.5,1.2l-2-0.2c-0.1,0-0.2,0-0.3-0.1
			c-0.6-0.2-1-0.8-0.9-1.4l0.8-9.6c0.1-0.8,0.7-1.3,1.5-1.2l1,0.1l1,0.1C107.8,40.8,108.3,41.5,108.3,42.2z"/>
		<path class="st11" d="M107.5,50.5l1.4,0.1c0.8,0.1,1.4-0.5,1.5-1.2l0.4-4.3c0.1-0.8-0.5-1.4-1.2-1.5l-1.4-0.1L107.5,50.5z"/>
		<path class="st11" d="M88,64.2c0,0.8-0.6,1.4-1.4,1.4H84c-0.8,0-1.4-0.6-1.4-1.4c0-0.8,0.6-1.4,1.4-1.4h2.6c0.6,0,1.2,0.4,1.3,1
			C88,63.9,88,64.1,88,64.2z"/>
	</g>
	<g>
		<path class="st4" d="M64.5,53.9c-1.1,0-2.1-0.9-2.2-2l-0.8-9.6c-0.1-0.6,0.1-1.2,0.5-1.6c0.4-0.4,0.9-0.7,1.5-0.8l2-0.2h0.2
			c1.2,0,2.1,0.9,2.2,2l0.8,9.6c0.1,0.6-0.1,1.1-0.5,1.6c-0.4,0.4-0.9,0.7-1.5,0.8L64.5,53.9L64.5,53.9z M65.6,41.4l-2.1,0.2
			c-0.2,0-0.3,0.1-0.4,0.2C63,41.9,63,42,63,42.2l0.8,9.6c0,0.3,0.3,0.5,0.5,0.5l0,0l2.1-0.2c0.1,0,0.3-0.1,0.4-0.2
			c0.1-0.1,0.1-0.2,0.1-0.4l-0.8-9.6C66.2,41.6,65.9,41.4,65.6,41.4z"/>
		<path class="st4" d="M61.5,51.5c-1.1,0-2.1-0.9-2.2-2L59,45.2c-0.1-1.2,0.8-2.3,2-2.4l1.4-0.1c0.5,0,0.9,0.3,0.9,0.8l0.6,7
			c0,0.2,0,0.4-0.2,0.6c-0.1,0.2-0.3,0.3-0.6,0.3l-1.4,0.1C61.6,51.5,61.6,51.5,61.5,51.5z M61.6,44.4h-0.5c-0.3,0-0.5,0.3-0.5,0.6
			l0.4,4.3c0,0.3,0.3,0.5,0.5,0.5h0.6L61.6,44.4z"/>
		<path class="st4" d="M106.1,53.9c-0.1,0-0.1,0-0.2,0l-2-0.2c-0.2,0-0.4,0-0.6-0.1c-0.9-0.3-1.5-1.2-1.4-2.2l0.8-9.6
			c0.1-1.1,1.1-2,2.2-2c0,0,0.1,0,0.2,0l2.1,0.2c0.6,0,1.1,0.3,1.5,0.8s0.6,1,0.5,1.6l-0.8,9.6C108.1,53,107.2,53.9,106.1,53.9z
			 M104.9,41.4c-0.3,0-0.6,0.2-0.6,0.5l-0.8,9.6c0,0.3,0.1,0.5,0.3,0.5h0.2l2.1,0.2c0.3,0,0.5-0.2,0.5-0.5l0.8-9.6
			c0-0.1,0-0.3-0.1-0.4c-0.1-0.1-0.2-0.2-0.4-0.2L104.9,41.4L104.9,41.4z"/>
		<path class="st4" d="M109,51.5L109,51.5c-0.1,0-0.1,0-0.2,0l-1.4-0.1c-0.2,0-0.4-0.1-0.6-0.3c-0.1-0.2-0.2-0.4-0.2-0.6l0.6-7
			c0-0.5,0.4-0.8,0.9-0.8l1.4,0.1c1.2,0.1,2.1,1.2,2,2.4l-0.4,4.3C111.1,50.6,110.1,51.5,109,51.5z M108.4,49.8h0.6
			c0.3,0,0.5-0.2,0.5-0.5l0.4-4.3c0-0.3-0.2-0.6-0.5-0.6h-0.5L108.4,49.8z"/>
	</g>
</g>
<path class="st12" d="M132,140.5v3.9c0,2.1-1.7,3.9-3.9,3.9H42.5c-2.1,0-3.9-1.7-3.9-3.9v-3.9V99.7v-3.9c0-2.1,1.7-3.9,3.9-3.9h85.6
	c2.1,0,3.9,1.7,3.9,3.9v3.9V140.5z"/>
<g>
	<g>
		<path class="st13" d="M89.2,129.6v-14.9h-9.5c-0.4,0-0.8,0.4-0.8,0.8v1.7c0,0.4,0.4,0.8,0.8,0.8H83v11.5h-3.3
			c-0.4,0-0.8,0.4-0.8,0.8v1.7c0,0.4,0.4,0.8,0.8,0.8h12.8c0.4,0,0.8-0.4,0.8-0.8v-1.7c0-0.4-0.4-0.8-0.8-0.8h-3.3V129.6z"/>
		<ellipse class="st14" cx="86.1" cy="108.3" rx="3.4" ry="3.4"/>
	</g>
</g>
</svg>
