<?xml version="1.0" encoding="utf-8"?>
<!-- Generator: Adobe Illustrator 26.3.1, SVG Export Plug-In . SVG Version: 6.00 Build 0)  -->
<svg version="1.1" id="圖層_2" xmlns="http://www.w3.org/2000/svg" xmlns:xlink="http://www.w3.org/1999/xlink" x="0px" y="0px"
	 viewBox="0 0 36 36" style="enable-background:new 0 0 36 36;" xml:space="preserve">
<path d="M18,0C8.1,0,0,8.1,0,18s8.1,18,18,18c9.9,0,18-8.1,18-18S27.9,0,18,0z M25.4,14.3l-9.1,8.1c-0.2,0.2-0.5,0.3-0.7,0.2
	c-0.2,0-0.4-0.1-0.5-0.2l-4.2-3.5c-0.4-0.3-0.4-0.8-0.1-1.1c0.3-0.3,0.9-0.3,1.2,0l3.5,3l8.6-7.5c0.3-0.3,0.9-0.3,1.2,0
	C25.7,13.5,25.7,14,25.4,14.3z"/>
</svg>
