<svg id="圖層_1" data-name="圖層 1" xmlns="http://www.w3.org/2000/svg" viewBox="0 0 344.33 477.74"><defs><style>.cls-1{fill:#483a35;}.cls-2{fill:#da9300;}.cls-3{fill:#f6bbaa;}.cls-4{fill:#f4afac;}.cls-5{fill:#ac4e00;}.cls-6{fill:#feebc8;}.cls-7{fill:#ea5753;}.cls-8{fill:#f7cb83;}.cls-9{fill:#a4a8ab;}.cls-10{fill:#dddfe1;}.cls-11{fill:#ffed95;}.cls-12{fill:#0c0103;}.cls-13{fill:#79bd28;}.cls-14{fill:#fff;}.cls-15{fill:#00a9e5;}.cls-16{fill:none;stroke:#483a35;stroke-miterlimit:10;}</style></defs><path class="cls-1" d="M1126.14,185.66c-8-10-4.81-21.22-3.49-23.66,2.5-2.1,5-3.72,7.71-6-20.13,6.3-27.09,9.8-41.65,22.6-12.13-9.9-23.65-24.45-28.4-32.42a41.68,41.68,0,0,0,11.2,23.33,6.44,6.44,0,0,0-2.45.56,159.23,159.23,0,0,0-15.45-5c-4-8-9.9-14-17.55-16.66a138.9,138.9,0,0,1,6.06,14.36,75.36,75.36,0,0,0-11.73-1c4.08,1,10.31,2.6,12.44,3.28,1.05,3.42,2.27,8.6,2.77,10.88a25.76,25.76,0,0,0-3.34,1.51c-3.83-8.57-18.12,5.76-16.94,29.14a16.8,16.8,0,0,0-5.13-2.42,108.87,108.87,0,0,0-14.77-16.3c.68-2.62,1.36-4.75,1.91-7.18,21.22-6.62,26-47.64,25.31-58.12-.47-12.75-28.55-36.56-58.13-40.26,10.34-7.9-.52-22.2-22.73-18.65,5.47-7,7.71-15.55,8-24.58-.19-7.51-2.37-14.83-8.1-19.64-3.69-3.29-9.95-2.63-14-.66-9.09,4.55-16.49,13.19-24.25,19.38A97.91,97.91,0,0,1,902,25.67c1.34-12.25-6.21-14.66-8.94-14.57-.26-.4-.51-.84-.75-1.18a2.57,2.57,0,0,0,0,1.25c-7,1.54-10.38,8.32-9.83,15.66-2.41-.35-10-1.43-15.74-.77,4,1,11,2.27,16.22,3.76a21.54,21.54,0,0,0,2.66,6.31c-.4.14-.71.26-1,.41-2.22-2.18-7.48,1.4-8.61,6.92-1.92,1.12-4.13,1.92-5.4,3.36a5.41,5.41,0,0,1-1.85-2.7,4.58,4.58,0,0,0,1.49,3.28c-.11.17-.18.45-.37.8A6.6,6.6,0,0,1,867.43,46a4.22,4.22,0,0,0,2,2.54c-.26.25-.45.46-.6.61a23.7,23.7,0,0,0-2.9-2.56c-.58-4.92-6.38-25.91-13.25-36.7C854.92,14.27,863,33.47,865,46.11a14.38,14.38,0,0,0-2.94-1.1c-3.82-9.95-13.45-28.9-19.88-36.74a247.83,247.83,0,0,1,19,36.53,7.37,7.37,0,0,0-8.62,4.72c-1.65,5.34-.06,11.2,2,16a72.07,72.07,0,0,0,16.94,21.35c-3.76-.26-20-3.32-27.81-7.44,12.16-4.78,8.06-16.61,1.52-23.53,3.22-8.91-1.58-13.9-4.62-16.47-2.21-2-5.27-3.17-7.64-4.75a19,19,0,0,0-6.06-4.08A23.48,23.48,0,0,0,817,29.29c-7.65.59-13.45,7.31-15.82,13.9-1.64,4.09-2,10.74-3.09,11.87-3,3.55-5.93,7.31-6.4,11.92-.29,6,6,6.69,7.71,6.59,3.59,10.74,14.11,5.06,25,6-.54,1.21.15,6.39,3.95,5.14,1.62,3.58,4.58,2.1,5.93.59a3.66,3.66,0,0,0,3.23.2c5,4.12,18.17,13.78,32.28,16-.14.18-.45.55-.58.75a42.05,42.05,0,0,0-16,7.45c-3.18-2-9-3.37-15.88,3.56a8.54,8.54,0,0,1-.66-3c.33-1.72,1.26-3.5.66-5.08-1-2.54-4.21-2.39-6.26-.2a3.09,3.09,0,0,0-2.5-1.18c-7.46,1.35-6.3,17.2-.73,25.76-9.73,5.16-20,26.68-10.34,39,5.62,7.21,12.51,1.82,15.51-.87-2.94,17.54,5.61,47.45,10,54.91-13,4.8-17.32,8.56-15.16,12.72,4.57,8.38,30.46,22.15,63.67,22.36,4.42,6.62,13.4,6.8,19.19,5.51,11.13,5.34,25.21,2.36,30.65.46,4.47,15.43,15.3,33.08,25.54,43.69-4,5.46-11.25,16.36-15,30.11-.07,0-23.23-20.81-41-9a10.67,10.67,0,0,0,5.21.86c-11.73,9.42-19.5,27.2-20.1,37.1-3.1-4.68-8-16.83-13.38-19.77,7.57-19-7-30.86-18.58-16-2.44-3.8-15.65-5.37-15.09,11.86-15.64,1.75-8.56,22.34,4.16,16.17.39,2.9,6.44,30.25,34.79,40.43,4.67,1.52,11.26,2.44,15.68-.26,4.61-3.1,3.29-9.23,2.44-13.71,2.17-3.62,9.94-11.46,12.31-13.13,46.36,7.87,74.25,31.91,85.72,45.15-1.83,1.24-25.22,14.57-36.35,22.68-10.12,6.95-2.69,14.38,4,18.38a37.14,37.14,0,0,1-18.52-3,17.76,17.76,0,0,1,1.91-1.06c-18,1-56.93-5.81-71.3,5.93,2.67,2.1,3.66,3.47,4.09,5.67-5.14,1.71-19,4.89-17.27,11.07,6,11.94,43.47-5.74,52.45-.59-2.39.56-9.69,3-10.28,5.8,14.59,10.46,60.39-2.88,61.55-9.1-.15-3-12.46-3.14-13-7.44-.19-2.71,14.7-2,21.09-1.85,12.88,4.78,25.91,7.12,33.67,5.07,5.22,9.31,15.22,2.06,18.39-2,10.67,8.24,22.33-14.95,12.26-20.1-.76-6.73-12.13-4.37-18.53,2a5.5,5.5,0,0,0-.73.19c-5.28-5.13-11.89-2.35-21-5.84,5.72-.34,29.89-2.15,34.73-8.83a23,23,0,0,1,.59,5.8c10.86-14.68-2-34.86-6.65-45.47,8.68,3.05,17.12.28,23.13-2.64,25.25-13.58,29.7-10.55,43.29-7.31,1-9.89-7.73-21.54-27.08-25.17-8.37-1.32-15.82,1.58-23.26,3.56-6.13,1.25-13.38,2.1-19.64.59a84.16,84.16,0,0,0-2.7-20.23c-.14-4.14,3-25.64,9.88-35.52,6.28-3.36,27.31-14.68,37.17-29.59,11.39-19.29-4.9-24.79-16.74-19.17,1-1.06,1.78-1.86,2.91-3.16,10.36-2.82,34.37-5.95,39.92-7.58a51.43,51.43,0,0,0-8-2.77c8.17-1.19,16.27-1,24.58-1.19.9-6.94-4.75-15.88-4.75-15.88A31.34,31.34,0,0,1,1119,233c-.53-5.35-4.15-10.1-7.57-13.44,5.23-.09,21.61-1.81,22-15.82C1133.72,196.86,1130.09,190.93,1126.14,185.66ZM900.55,31.54a15.92,15.92,0,0,0,.86-1.9,41.51,41.51,0,0,0,2.69,3.25C902.72,32.38,901.71,32,900.55,31.54ZM921.66,78c.12-.25.39-.7.39-.7,5.05.78,11.44-.92,16.29-2.89a9.52,9.52,0,0,0,.79,7.12A54.49,54.49,0,0,0,921.66,78Zm83.48,110.91a86.78,86.78,0,0,1,13.24,15,20,20,0,0,0-5.88,0,74.46,74.46,0,0,0-9-8.27C1004.09,193.13,1004.53,191.25,1005.14,188.86Zm-27.92,93.07a69.68,69.68,0,0,1-15.49-17.29,80.3,80.3,0,0,0,17-3.07C979.05,264.37,977.88,275.81,977.22,281.93Zm62.45-29.26c-7.59-9-26.25,5.13-38.14,19.72-.44-1.84-2.22-9.72-3.23-14.77a29.36,29.36,0,0,0,6.88-3.34c26.48-6.28,20.29-15-9.12-26.91,1.91-10.41,4.29-20.75,7.12-30.84a82.42,82.42,0,0,1,8.11,7.65c-2.25.63-4.32,1.82-4.45,4a5,5,0,0,0,2,.38c-2.17,7.36-1.24,27.32,29.73,41.73.48.73.9,1.41,1.31,2.06Zm22.22-79a12,12,0,0,0-5.42-.29c-.47-1.9-.88-3.13-1.37-4.6a74,74,0,0,1,9.27,3.47C1063.47,172.73,1062.81,173.09,1061.89,173.67Z" transform="translate(-789.14 -8.27)"/><path class="cls-2" d="M892.82,12.89a52.13,52.13,0,0,0,8,15.74,14.3,14.3,0,0,1-.79,2.7c-5.61-1.79-13.71-3.89-16.47-4.37C883,21.7,886,13.67,892.82,12.89Z" transform="translate(-789.14 -8.27)"/><path class="cls-2" d="M900.91,24A75.69,75.69,0,0,1,894,12.88C897.19,13.15,900.79,16.44,900.91,24Z" transform="translate(-789.14 -8.27)"/><path class="cls-2" d="M912.84,38.58a15.15,15.15,0,0,0-3,3.56c8.77-6.33,16.08-14.56,25.24-20.23,4.41-2.57,11.07-3.76,15.62-.59a15,15,0,0,1,5.33,7c-2.76-2.7-7.44-2.37-10.87-1.25-7.18,2.57-13.57,7.71-18.65,13.77-4,4.76-7.48,10.15-6.32,15.82a127.05,127.05,0,0,0-32.06,2.72,16.87,16.87,0,0,1,8.33-2.26c-4.43-1.27-9.77,2.07-10.4,2.73-.85.23-1.18.35-2.25.63a11.36,11.36,0,0,0-6-3.16c-.24-3.78-5.5-6.74-7.82-4.76a2.83,2.83,0,0,0-2-1.12,7,7,0,0,1,2.08-2.49,9.78,9.78,0,0,0,6,.52,6.9,6.9,0,0,0-1.94-.37,10.84,10.84,0,0,1-3-1.8c2.24-2.37,7.66-3.94,8.11-6.13-.64.5-1.94,1.4-2.26,1.68.4-2.4,3.27-5.41,5.11-5.92,1.58-.45,2.61,1.26.25,4a4.1,4.1,0,0,0,2.57-3.69,64.53,64.53,0,0,1,15.35-1.64,80.31,80.31,0,0,0-24.51-8.7c11.32.39,29.34,7.86,31.82,7.51a9.92,9.92,0,0,0-1.91-1c-2.8-2.63-9-11.5-10.94-17.52C898,22.86,907.66,34.67,912.84,38.58Z" transform="translate(-789.14 -8.27)"/><path class="cls-3" d="M957.12,31.73c1.38,3.09,1.38,6.52,1,10.48-1.39,11.86-7.25,23.39-18,29.38a36.5,36.5,0,0,1-17.79,5,44.32,44.32,0,0,0,3.49-9.55,18.25,18.25,0,0,0,2.44-1.39c4.91.74,9.16,1.59,13.64,2.51A60.42,60.42,0,0,0,929.18,65a21,21,0,0,0,7.91-11.47c-2.39,4-12.3,12.13-15.7,4,2.05.06,4.82.25,7,.38a29.06,29.06,0,0,0-7.25-1.25,12.54,12.54,0,0,1,1.38-8.57C927.4,39.31,936,31.53,945.13,28c2.76-.92,6.58-1.58,9.15.27A8.13,8.13,0,0,1,957.12,31.73Z" transform="translate(-789.14 -8.27)"/><path class="cls-2" d="M897.09,34.89A42.07,42.07,0,0,0,886.21,36a14.8,14.8,0,0,1-2.17-5.8A105.11,105.11,0,0,1,897.09,34.89Z" transform="translate(-789.14 -8.27)"/><path class="cls-4" d="M828.89,32.85c3,3.24,9,4.28,12,8,2.83,3,4.48,7.84,3.36,12-.71,2.66-2.79,6-6.06,3.76-2.11-1.91-.92-5.31-2.64-7.87-.39-.59-2.26-3.56-7.91,1.47-7.51,6.33-13,15.29-21.94,19.77-4,1.85-10.11,2.83-11.86-2.43-1.48-5.16,4.81-8.9,5.8-14,.92-5.73,2.5-13,7.77-17.66C812.87,30.94,822.23,28.83,828.89,32.85Z" transform="translate(-789.14 -8.27)"/><path class="cls-1" d="M898.87,46.09c7.51-6.38,4.47-8.78-2.84-8.89C909.3,34.92,905.22,43.43,898.87,46.09Z" transform="translate(-789.14 -8.27)"/><path class="cls-2" d="M861.64,46.09c.79,2.38,1.63,4.68,2.37,7.19-.9,1.33-1.16,3.93-1,5.6a17,17,0,0,1-4.81-2.11,6.29,6.29,0,0,0,1.51,1.78c-1.76.94-3.66,2.4-4.1,4C849.58,51.4,856.48,44.13,861.64,46.09Z" transform="translate(-789.14 -8.27)"/><path class="cls-2" d="M865.19,47.41c.33,1.5.57,3,.77,4.34a4.54,4.54,0,0,0-1.53,1.07c-.73-2.62-1.19-4.23-1.94-6.59A11.72,11.72,0,0,1,865.19,47.41Z" transform="translate(-789.14 -8.27)"/><path class="cls-1" d="M882.33,51.83c.85,1.71,3.36,3.17,5.52,3.75,1.09-.1,2.47-.24,3.64-.39-2.78,1.62-8.53,2.19-11.6-1.85,1.78,1.12,4.15,2.74,6.66,2.48-2.4-.87-5.77-3.47-5.74-6.37.42.76.82,1.34,1.25,2,1.83-2.54,5.57-2.38,7.45-5.08C888.11,49.86,884.37,49.32,882.33,51.83Z" transform="translate(-789.14 -8.27)"/><path class="cls-2" d="M872.71,49.11a9.18,9.18,0,0,1-2.31-.64,2,2,0,0,1,.29-.66A8.41,8.41,0,0,0,872.71,49.11Z" transform="translate(-789.14 -8.27)"/><path class="cls-5" d="M836.4,56.64c2.23,4.43,7.27,1.86,8.37.13,6.47,7.7,8.71,22.07-6.79,22.67-1.14-2.19-3.27-2.4-4.42.92-.78-1.59-2.62-2.43-4.15-1.06-.31-1.29-2.7-5-4.94-.46-7.49-1.79-20.23,3.39-24.42-5.3,5.14-.24,13-6.37,17.57-11.43,4.41-5,8.69-10.81,14.82-14C835.05,47.16,835.08,54.4,836.4,56.64Z" transform="translate(-789.14 -8.27)"/><path class="cls-2" d="M868.45,49.56a5.63,5.63,0,0,0-1.2,1.88,3.25,3.25,0,0,0-.67.12c-.15-1.31-.26-2.31-.44-3.59A12.13,12.13,0,0,1,868.45,49.56Z" transform="translate(-789.14 -8.27)"/><path class="cls-1" d="M902.69,50.64c-2-.11-6.35,1.53-8,3C895.81,51.86,900.09,49.46,902.69,50.64Z" transform="translate(-789.14 -8.27)"/><path class="cls-6" d="M869.54,53.21c-.69,2.62,1.88,4.28,2.57,6.19,1.91-1.45,5.17,2.3,5.67-1.18a8.33,8.33,0,0,1,5.14,2.57c-1.43.59-2.41.91-3.47,1.43l-.13.58c1.47-.54,2.88-.95,4.33-1.34a4.9,4.9,0,0,1,.58.71,2.3,2.3,0,0,0-.33.92c-2,.49-3.12.75-4,1l-.26.61c1.76-.3,2.74-.43,4.25-.67a5.11,5.11,0,0,0,2.07,3.63c-3.35,3-12.85,4-14.85-4.23a3.58,3.58,0,0,0,.26,2.44,5,5,0,0,1-5.53-2C860.65,56.58,866.8,50.32,869.54,53.21Z" transform="translate(-789.14 -8.27)"/><path class="cls-2" d="M927.79,64.74c-11.33-1.51-27.14-3-42.63-1.78a3.61,3.61,0,0,1,1.07-2.22,112.25,112.25,0,0,1,34.14-3.33c3,6.61,8.62,6.09,14.8-.77A18.7,18.7,0,0,1,927.79,64.74Z" transform="translate(-789.14 -8.27)"/><path class="cls-6" d="M861.11,59.4c3.36,9.69,7.31,18.52,13.64,26.89a9,9,0,0,0-.84,1.44c-6.59-5.47-16.07-18.45-17.82-23.94.19-2.32,2.78-4.06,4.23-4.72A5.24,5.24,0,0,0,861.11,59.4Z" transform="translate(-789.14 -8.27)"/><path class="cls-2" d="M925.38,66.37c-1.11,3.09-6.68,16.37-13.6,20.64a4.06,4.06,0,0,0-3.16-.46c9-10.41,4.81-18.71-1.45-20.1a23.11,23.11,0,0,0,2.78-.86c-7.13-1.9-24.23,5.58-24.85-1.72,12.57-1.36,30.7,0,41.64,1.59A14,14,0,0,1,925.38,66.37Z" transform="translate(-789.14 -8.27)"/><path class="cls-7" d="M975.29,79.18c-5.84,10.45-37.92,11.16-35.7-5.48a38.29,38.29,0,0,0,11.14-8.83C973.46,62,980,73.37,975.29,79.18Z" transform="translate(-789.14 -8.27)"/><path class="cls-6" d="M907.26,86.82a12.28,12.28,0,0,0-4.44,3.75c-2.31.86-5.93,1.59-7.51,1.06a5.42,5.42,0,0,0,1.51-2.51c-2.63,2.57-5.73,5.21-9.22,6.46.72-6.19,1.78-12.78,5.07-18.19,1.85-3.23,4-6.39,5.41-9.88,2.83-.4,4.78-.73,7.47-.93C915.12,69.58,914.84,78.83,907.26,86.82Z" transform="translate(-789.14 -8.27)"/><path class="cls-2" d="M828.82,79.83a6.09,6.09,0,0,0-.73,4.22C822.55,84.84,826.08,72.83,828.82,79.83Z" transform="translate(-789.14 -8.27)"/><path class="cls-4" d="M939.74,82.63c9.1,8,25.84,6.41,33.79.69,18.36,2.8,50.65,18.87,58.25,39.28.56,21.27-8.91,44.74-20.82,54.1-9.58,7.26-11.8-4.53-11.21-13.64-.06-7.58,1.28-16.6-4.35-22.54-2-2.24-4.09-3.38-8-2.7-7.57,1.71-13.44,7.91-19.63,12.52-7.19,5.67-14.3,12.78-24.45,10.94-7.31-1.9-8.06-6.6-8.3-11.47-.31-5.31,5.46-18.55-6.46-16.54-6.72,1.52-12.19,5.87-17.2,10.94-8.83,8.3-16.21,19.57-27.21,24.84-5.74,3-12.75,3-19.58-.13-6.58-3.49-13-8.69-19.57-9.35-5.8-.2-9.22,4.94-13.64,7.9-9,6.46-15.7-.87-14.82-14.69,3.16-23.16,27.09-30.93,38-23-1.83,5.76,1.86,10.54,1.19,16.28-.59,9.5,3.83,9.31,5.86,7.77,11-1,18.78-10.32,26.36-18.12a13.75,13.75,0,0,0-.72,5.34c2-6.46,6.3-17.39,9.14-19.93,3.76,0,3.12-3.87,4.3-4.91,1.64,2.86,3.5,3.64,4.57,3.15s1.47-2.23,1-5.2c8-3.87,15.51-2.06,20.55-.06a5.19,5.19,0,0,0-2-1.65,43.63,43.63,0,0,1,18.18,0c-1.58-1.19-6.64-2.72-11.33-2.37,1-2.84-.51-5-2.57-7.18-5.47-5.08-10.41-10.68-16.14-15.42a27.64,27.64,0,0,0,8.3-8.7C924.5,78.51,934.94,80.47,939.74,82.63Z" transform="translate(-789.14 -8.27)"/><path class="cls-2" d="M837.91,80.69a28.4,28.4,0,0,0,4.62-.92,78.22,78.22,0,0,0,30,8.21,5.57,5.57,0,0,0,1,.48,11.93,11.93,0,0,0-.22,9.09,20.47,20.47,0,0,0-3.14,3.17c-13.49-3.69-25-10.15-31.76-15.48a4.74,4.74,0,0,0,2-1.65c-1.12.2-2.11,1.12-3.36,1-4.39,0-2.76-6.64-.59-5.66C837.19,79.37,837.45,80.1,837.91,80.69Z" transform="translate(-789.14 -8.27)"/><path class="cls-2" d="M833.3,81.54a4.89,4.89,0,0,0,.46,3c-5.12,5.59-6.25-7.25-1.78-4.62A2.82,2.82,0,0,1,833.3,81.54Z" transform="translate(-789.14 -8.27)"/><path class="cls-7" d="M889.25,82.67c-1.52,4.48-2.23,9.46-3.17,13.7-3.41,8.85-15.5,3.69-11.4-8,.93-2.31,3.23-4.48,5.8-4.55a7.09,7.09,0,0,0-.86,5.47C879.47,86.87,884.54,78.45,889.25,82.67Z" transform="translate(-789.14 -8.27)"/><path class="cls-2" d="M912.51,89.12c3.29,2.57,5.6,6,8.89,8.7,3.13,3.24,9.19,6.56,9.1,12.32a32,32,0,0,0-6.73,1.78,19.11,19.11,0,0,0-17.85,1.45c-.07-.24-.17-.5-.17-.5a10.89,10.89,0,0,0,4-7,32.61,32.61,0,0,1-5.4,7.78,1.75,1.75,0,0,0,.72-.27c1.07,2,.71,4.62-.34,5.1s-3.22-1.44-4.4-4.57a2.44,2.44,0,0,0,0,1.47c-2.24,1.36-.47,4.15-3.32,4.8-1.82.22-2.85-2.13-1.72-6.86-1.48,2.21-1.81,4.61-.79,6.39-.83.49-2.62-.24-2.31-2.7.33-2.64,2.57-4.55,4.09-6.72s2-5.34,4.94-6.07c3.69-1.12,9.56.26,16.08-2-9.26,1.67-15.61-2-19,2.37-1.78,3.3-4.28,6.07-6.26,9.29-3,6,1.45,7.81,2.79,6.61a1.22,1.22,0,0,0,.52.43c-3.3,4-5.22,8.52-7,13-6.52,6.78-19.27,18.48-25.7,18.91,2.48-3,6.46-10.59,5.14-16.05a10.6,10.6,0,0,0,.58-2.24c1.35.82,1.87,3.29,2.32,5.37a6,6,0,0,0-2.24-6.26c.44-2.67.19-4.59-1-5.47,2.31-8.59,11.15-10.57,15.49-10.87a3.72,3.72,0,0,0-2.44-.63C891.2,108,894.92,97.94,892.07,94.4a28.5,28.5,0,0,0,2.24-1.79,13.66,13.66,0,0,0,7.65-.79,2.12,2.12,0,0,0-.33,1.72C903.41,90.64,908.66,85.71,912.51,89.12Z" transform="translate(-789.14 -8.27)"/><path class="cls-1" d="M1047.53,136.37c3.29-10.37,7-38.4-4.22-44.55C1056.44,96.42,1051.15,131.43,1047.53,136.37Z" transform="translate(-789.14 -8.27)"/><path class="cls-8" d="M878.44,116.87A15.32,15.32,0,0,0,870.2,121c-7.74,3.52-20.8-2.46-17.33-8.3,3-5.54,13.49-8.73,22-10.74a10.43,10.43,0,0,0-4.41.06,16.55,16.55,0,0,1,3.23-3.8c4.93,7.36,11.83,3.39,13.62-1.2a17,17,0,0,0,4.23-2.25C894.48,97.37,888.72,110.12,878.44,116.87Z" transform="translate(-789.14 -8.27)"/><path class="cls-1" d="M1057.48,132c2.45-12.09,3.61-30.56-1-36.25C1063.74,100.49,1059.54,129.49,1057.48,132Z" transform="translate(-789.14 -8.27)"/><path class="cls-8" d="M835.74,105.6c1,2.76-1.43,4.45-2.57,8-1.38,3.3-2.8,12.69-2.53,14.45-.87.43-1.58.79-2.31,1.23-3.57-5.74-4.45-13.37-3.47-19.3.84-4.63,4.33-6.29,5.48-4.22a5.85,5.85,0,0,0-1.26,5.53C830.43,103.26,835.07,103.6,835.74,105.6Z" transform="translate(-789.14 -8.27)"/><path class="cls-2" d="M852.67,110.28c-6.55,8,7,15.12,16.67,11.66a13.9,13.9,0,0,0-2.76,5.8c-1.74-.43-3.37,1-4.55,2.83-1.12-3.34-4.74-5.39-7.12-1.52-7.48-7.11-20.79-2.73-23.37-1.35.43-9.13,3.47-14.92,4.07-15.84.85,2.4,1.71,4.28,3.36,5.66-.42-1-.84-2.14-1.33-3.11A13.62,13.62,0,0,1,852.67,110.28Z" transform="translate(-789.14 -8.27)"/><path class="cls-1" d="M945,143.35c-6.29-8.56,6.24-12.69,3.17-19.57C953.78,130.05,941.75,134.65,945,143.35Z" transform="translate(-789.14 -8.27)"/><path class="cls-8" d="M861.47,131.86a3.71,3.71,0,0,0-.49,1.81c1.53-2.41,3.55-4.49,4.75-4.71,1.76-.31,2.45,2.85.59,10.23a5.36,5.36,0,0,0,.78-1.4c.72,2.15-1.48,9.1-4.74,13.67-2.64,3.58-6.73,3.11-5.6-6.46.2-4.61-1.71-8.37-1.52-13C855.74,128.47,859.72,126.39,861.47,131.86Z" transform="translate(-789.14 -8.27)"/><path class="cls-5" d="M934.78,141.18c-.79,5.93-3.49,13.44,1,18.45,3.75,4.88,10,5.33,16.41,3.16,9.62-3.69,17-12.58,25.56-18.58,3-2.24,6-4.28,9.82-5.2,2.31-.4,4.81-.14,6.53,1.45,3.88,3.88,4.44,8.73,4.08,15.15-.53,5.93-.86,13,.26,18.72.66,3.17,2.5,6.78,7.58,6.59-.72,1.7-1.48,3.56-2.17,5.6a85.13,85.13,0,0,0-11.27-8c2.51,2,9.08,7.39,10.92,9-.39,1.13-.64,1.82-.9,2.63a12.37,12.37,0,0,0-4.48,1.19c-5.22-3.8-11.38-8.16-15.56-9.69,3,1.92,11,7,14.76,10.1-3.64,1.73-11,6.47-15.55,1.37-6-7.91,1.59-17.8-2.24-26.23a15.17,15.17,0,0,0-1.45-2.7c.34,1.62.81,3.15,1.12,4.87-2.48-2.48-5.2-3.44-9.29-2.17-12,3.56-17.66,16.61-27.61,23.33-2.83,1.78-7.18,1.45-9.95-.27-3-1.84-4.35-5-4.61-8.3-.59-6.19-.61-13.86-6.39-16.8-4.09-1.91-8.68-1.18-12.72,1.91-8.11,5.93-12.32,14.69-17.66,22.34-1.29,2.14-4.77,3.95-7.25-.53-2.17-3.49-3.16-9.29-8.37-9.55-4,.17-6.85,4.41-9.29,7.44-2.83,3.56-6.19,6.85-10.15,8.77a4.41,4.41,0,0,1-3.42.19c-2.31-1-2.71-3.82-3.5-6-1.18-3.89-1.43-8.8-5.14-10.94-4.27-2.43-8.86,4.07-9.42,5.14a87.54,87.54,0,0,1-.46-16.74c6.37-5.25,10.88-8.63,19.5-2.5,6.79,4.28,13.45,9.55,22.34,9.09,14.76-1.12,23.66-15.49,33.87-25.57,5.8-6.26,13.2-13.09,20.63-13.64C932.56,134.15,935.44,135.6,934.78,141.18Z" transform="translate(-789.14 -8.27)"/><path class="cls-1" d="M1009.84,162.93c9.15,2.35,9-17.68,14-25.24C1020,146.72,1020.2,167.9,1009.84,162.93Z" transform="translate(-789.14 -8.27)"/><path class="cls-9" d="M1051.42,164.57c-3.33-.77-4.89-1-7.45-1.45a75.17,75.17,0,0,0-5.93-13C1044.88,153.34,1050,161.57,1051.42,164.57Z" transform="translate(-789.14 -8.27)"/><path class="cls-9" d="M1088.19,179.07a28,28,0,0,0-3.89,4c10.07-7.52,24.08-18.41,41-24.64-20,10.7-21.83,32.78-31.16,39.2a6.88,6.88,0,0,0,4-2.11c0,7.76,7.38,5.16,10.74,1.78a8.53,8.53,0,0,1-1.93,3.84,4.59,4.59,0,0,0-1.63,2.49c2.7-1.19,7.21-5.43,9.62-3.43-.06,2-5.73,5-8.23,5.47.15.42.47.65,1.31.61,1.52.46,3.43.78,4.29,2.29-2.16,1.46-6.26-.62-7.25-.44a1.3,1.3,0,0,0,.5.54c-.53,1.18-1.2,2.07-.83,3.79-10.9.29-30.16,1.58-44.5,6.08a4.92,4.92,0,0,1-.87-3.12c11.17-5.73,30.12-12.55,38.78-14.56-10,1.22-27.5,8-38.66,13.38.36-2.95,3.4-8,6.11-9.75-2,.68-6,4.43-7.18,8.68l-1-.11c5.55-7.31,11-26.5,4.79-29.07-3-1.2-7,2.27-9.16,4.55.43-1.86-1.19-4.5-4.68-.2,1.23-4.49-2-9.91-6.87,1.33-.34-1.77-2.8-3.79-5,1-1.32-2.82-5.07-5.08-9.43,7,1.52-14.16,11.77-21.32,12.92-11.73a9.29,9.29,0,0,0,2.5-7.71c5.08-2.5,17-4.79,18.39-3.88a18.63,18.63,0,0,0-6.59,7.77c14.11-12.75,18.47-4.83,16.14,5.54,5.18-6.62,6.85-16.65,2.29-18.06a51.59,51.59,0,0,1-10.39-18.32C1068.42,160.69,1079.56,172.7,1088.19,179.07Z" transform="translate(-789.14 -8.27)"/><path class="cls-1" d="M797,160.55c-3.1,16,1.67,33.24,15.16,37.23C805.84,197.72,790.3,188.33,797,160.55Z" transform="translate(-789.14 -8.27)"/><path class="cls-9" d="M1068.08,170.49a25.07,25.07,0,0,0-2.65,1.2c-5.42-2.7-17.11-6.08-28.58-8.76C1047.33,163.84,1061.25,168.17,1068.08,170.49Z" transform="translate(-789.14 -8.27)"/><path class="cls-3" d="M1121,163.27c-6,16.6,8.29,27.4,9.94,34.12,4.52,17.34-16.22,21.42-20.3,21.35a20.88,20.88,0,0,1-4.35-5.21,94.62,94.62,0,0,1,10.68.66c-2.39-.71-5-1.32-11.14-1.64a3.85,3.85,0,0,1,.3-3.48c3.66,1.29,6.49,1,7.54-.41-.53-1.78-2.89-2.89-3.82-3.09,2.3-1.18,6.26-2.64,5.93-5.94-2.73-2.06-5.8-.07-6.85.46A8.73,8.73,0,0,0,1110,195c-5.67,5.92-11.4,5.55-10.81-.2C1102.52,190.08,1114.78,166.11,1121,163.27Z" transform="translate(-789.14 -8.27)"/><path class="cls-6" d="M923.18,167.61c2.84,3.88,3,9.56,3.23,13.7.36,5.39,3.16,9,7.45,10.54,11.17,3.8,17.15-9.16,24.58-16.4,8.47-8.58,17.2-10.11,20.95-4.62.79,7.45-3.23,15,.4,21.82,5,7.7,13.7,2,18.25-.33,1.09.8,3.1,2.57,3.1,2.57-1.32,4.54-2.44,9.09-3.43,13.77-4.81,3.23-10.68,6.59-16.8,4a12.46,12.46,0,0,1-7-6.59c-3-7.58-.13-15.75.33-23.52,1.29-9.1-8.59-12.48-17.46,5.6-3.89,6.85-8,14.69-15.88,17.79-4.55,2-10.28.79-14-2.11-6.85-5.93-2.89-16.58-6.46-23.92-2.52-4.24-8-5.19-16.6,8.37-4.87,6.62-9.36,15.55-17.93,18.12-3,.9-7.12.94-8.17-4.41-.72-4.55.6-9.1-.39-13.45-.41-1.54-1.48-3.56-4.09-1.91-2,1.39-2.71,2.75-4,5-4,6.66-8.17,14.17-15.55,18-2.37,1-7.89,2.24-7.71-10.28.2-2.7.13-6.19-2.57-7.51-2.8-.93-5.76,3.94-6.52,7.45a84.7,84.7,0,0,1-2.11-13.65c4.1-8.58,9-7.32,10.15-5,2.3,4.08,2.44,8.76,4.54,13a5.13,5.13,0,0,0,3.69,2.77c3.43.26,5.8-1.92,8.31-3.89,4.35-3.3,6.24-8.14,10.54-11.4a5.19,5.19,0,0,1,5.07-.6c3.17,1.78,3.76,5.61,5.8,8.37,5.12,7.65,8.64,1,11-2.37,4.74-7.12,9.29-15.48,17-20.16C914.42,164.31,920.35,164.05,923.18,167.61Z" transform="translate(-789.14 -8.27)"/><path class="cls-9" d="M1053.23,168.13a39.11,39.11,0,0,1,2.4,5.34,47.93,47.93,0,0,0-9.24,2.21,75.44,75.44,0,0,0-1.71-10.06C1047.78,166.48,1049.91,167.1,1053.23,168.13Z" transform="translate(-789.14 -8.27)"/><path class="cls-5" d="M972.47,187.57c-.85,7.05-2.79,15,1.45,21.55a14.23,14.23,0,0,0,7.84,5.34c6.07,1.51,10.66-1.57,15.62-4.62-.86,5.6-1.85,11-2.5,17-23.28-7.31-85.6-24.15-150.91-4.67A139.59,139.59,0,0,1,837.25,201c1.07-4.94,4.94-10.83,7-7.38.93,1.71.6,4.08.6,6-.28,15.47,8.08,12.3,11.66,9.95,7.38-5.07,10.41-13.11,14.76-20,2.66-3.73,4.53-2.75,4.94-1.45,1.26,4.29-.33,9.1.27,13.64,1.9,10.44,11.62,6.4,15,3.69,7.77-7,12.12-16.14,18.64-24,4.75-4.73,8-3,9.3-1.19,3.07,5.4.46,13.05,3.09,19.24,4.63,11.48,16.41,9.89,21.09,7.12,8-4.81,11.6-13.64,15.75-21.15C966.44,172.94,975.59,172.78,972.47,187.57Z" transform="translate(-789.14 -8.27)"/><path class="cls-10" d="M1046.61,192c3-5.32,7.14-7.41,4.79-1.47-4.6,6.21-7.7,15-5.78,24.07-1.19.36-1.86.6-2.84,1a11,11,0,0,0-8.83-3.1c-.51-2.14,2.51-17.41,2.63-19.71,1.72-6.37,4.68-4.45,4.36-.39C1045,182,1049.66,180.82,1046.61,192Z" transform="translate(-789.14 -8.27)"/><path class="cls-11" d="M1062.16,200.16c-.25-1.6-.72-2.54-1.71-2.77-3.27-.76-9.54,5.73-7.84,15.77a36.27,36.27,0,0,0-6.27,1.23c-2.59-14.72,7.9-27.92,13.9-29.65C1065.6,183.52,1063.64,196.42,1062.16,200.16Z" transform="translate(-789.14 -8.27)"/><path class="cls-11" d="M1035.68,192.38a73.13,73.13,0,0,1-1,7.51c-3.14-2.24-7.7,2.84-5.53,12.82a17.45,17.45,0,0,0-2.43-1,27.22,27.22,0,0,1,3.61-19.4C1033.35,188,1035.3,189,1035.68,192.38Z" transform="translate(-789.14 -8.27)"/><path class="cls-12" d="M1067.1,201.21a29.27,29.27,0,0,0,7.31-10.48C1074.66,191.91,1072.53,198.61,1067.1,201.21Z" transform="translate(-789.14 -8.27)"/><path class="cls-8" d="M1002.36,191l-1,3s-1.31-1.1-2.46-2.09A9.68,9.68,0,0,1,1002.36,191Z" transform="translate(-789.14 -8.27)"/><path class="cls-13" d="M1060.31,198.21c.78.32,1.2,1.59,1.28,3.7a21.88,21.88,0,0,1-1.4,4.14c-.64-6.08-6.79.66-5.63,7l-1.26.08C1051.66,205.29,1057.52,197.06,1060.31,198.21Z" transform="translate(-789.14 -8.27)"/><path class="cls-13" d="M1034.46,201.18c-.27,1.59-.4,2.65-.64,3.79-3.62-3.58-4.34,8.2-.86,7.35l.06.32a2.15,2.15,0,0,1-3.37.3C1027.34,201.25,1033.74,198.42,1034.46,201.18Z" transform="translate(-789.14 -8.27)"/><path class="cls-9" d="M1019.37,205.37a35.82,35.82,0,0,1,3.41,6.31,3.86,3.86,0,0,0-2.08,1.65,98.37,98.37,0,0,0-7.31-8.3A22.92,22.92,0,0,1,1019.37,205.37Z" transform="translate(-789.14 -8.27)"/><path class="cls-9" d="M1012.2,205.17c2.64,2.7,5.65,5.72,8.18,8.63-1.39,2.5-1.24,7.47,3.21,11.51-.6,6.85,1.93,12.87,5.95,18-11.56-7.56-22.14-20.56-19.82-34.85a1.24,1.24,0,0,0,.79-.66,5.08,5.08,0,0,1-2.79-.14C1008.36,206.08,1011,205.35,1012.2,205.17Z" transform="translate(-789.14 -8.27)"/><path class="cls-9" d="M1025.32,207.34a30.47,30.47,0,0,0,.73,4.27,8.59,8.59,0,0,0-2.57-.05,29.63,29.63,0,0,0-2.62-5.92A16,16,0,0,1,1025.32,207.34Z" transform="translate(-789.14 -8.27)"/><path class="cls-14" d="M1030,214c-4.4,3.89,4.11,7.64,5.85,9.72a5.23,5.23,0,0,0,.42-1.87c2.47-.13,9.34-1.14,6.9-5.64,4.36-1.65,10.5-2,14.94-2a8.61,8.61,0,0,0-.17.92,60.27,60.27,0,0,0-6.67,4l0,.63a73.18,73.18,0,0,1,6.68-3.49,6.77,6.77,0,0,0,.57,3,78.73,78.73,0,0,0-7.59,3.4l-.21.74c2.58-1.14,6-2.45,8.19-3.22a5.36,5.36,0,0,0,2.61,2.11c-3.12,6.52-20.11,11.89-27.47,4a3.89,3.89,0,0,0,1,2c-15.44-.88-17.46-14.89-10.87-15.49A11.05,11.05,0,0,1,1030,214Z" transform="translate(-789.14 -8.27)"/><path class="cls-9" d="M1104.92,213.53c2.13,5.52,10.44,10.88,11.93,15.95-1.49-1.52-3.36-2.9-5.4-3,.9,1.67,5.4,11.73,6.26,17.13-4-.37-18-1.1-27.81,2,3.28.83,6.52,2.24,7.58,2.57-4.3.57-13.48,2-22.23,3.53,3.88-2.78,10-7.87,11.75-17.57a18.25,18.25,0,0,1,1.32,3c4.28-7.78.2-15.26-3.36-18.32,3-.24,5.4-.26,8.23-.39-16.91-3.35-28.86,6.09-32.41,1.07C1076.71,214.53,1097.82,213.56,1104.92,213.53Z" transform="translate(-789.14 -8.27)"/><path class="cls-15" d="M1016.42,239.89c7.53,4.66,2.41,10.51-10.47,13.38,1.53-2.13.59-5.21-.93-7.12-2.89-3.69-7.11-5.93-11.26-7.44-4.68-1.52-9.43-2.84-13.78-5.08-7.57-4.74-15.08-9.93-24.77-9.29-4.86.71-6.7,3.13-6.94,6.61-7.54-2.62-20-7.32-28.53-2.63-17.18-1.5-54,.1-76.09,9.07,25.32-6.49,49.57-8.15,75.05-8.17-2.48,2.64-2.91,6.63,3.3,12.45a9.69,9.69,0,0,0,1.06,5.19,43.09,43.09,0,0,0-11.74.81c-19.08-6.79-24.16,1.67-20.56,8.87C865,255.33,827.3,241.46,829,232.78c.47-1.55,1.68-2.3,3.43-3.36C879.66,204.88,977.46,215,1016.42,239.89Z" transform="translate(-789.14 -8.27)"/><path class="cls-14" d="M1088.38,235.68a21.1,21.1,0,0,0-1.71-3.5c-.91,4.44-3.63,14-13.79,20-4.26,1.12-6.85,1.79-10.26,2.83a9.76,9.76,0,0,0,2-3.3c-2.24,1-5.49,6.51-8.9,8.5-3.14,1.67-6.23,2.19-9.15,0s-7.17-11.49-9.23-13.24a3.2,3.2,0,0,0,.53,1.91,44.55,44.55,0,0,1-6.26-4.23c-4.35-5.34-7.6-11.6-7.32-18.83a17.79,17.79,0,0,0,8.63,3c6.34,5.57,8.64,22.87,15.92,26.89a3.38,3.38,0,0,0-1.29.72c19.64,0,24.37-32.13,30.91-37a45.38,45.38,0,0,1,5.53-.53C1087.85,222.63,1091,228.93,1088.38,235.68Z" transform="translate(-789.14 -8.27)"/><path class="cls-14" d="M979.39,234.75c7.38,3.76,16.08,4.55,22.41,10.68,1.38,1.51,2.43,3.29,2,5.47-.65,3.14-3.5,4.41-5.67,5.79a14.74,14.74,0,0,0-1-3.29,17.44,17.44,0,0,0-.13,2,4.63,4.63,0,0,0-3.1,3c-.73-.74-1.58-5.16-1.84-5.66-.27,1.91-.19,4-.92,5.73-1.26-.77-1.67-3.14-2.05-3.89-.45,1.91-.78,6.76-2.35,6.66-1-1.12-.19-4-1.8-5.54a4.32,4.32,0,0,0-2.83,4.35,3.51,3.51,0,0,0-3.08-1.58,3.86,3.86,0,0,0-.39,2c-16.41,3.79-40.65,4.14-41.21-4.66,6.47,1,9.92.46,12-.07-6.65-.26-24.86-2.88-26.75-13.5,3.08,2.7,9.5,5.66,16.67,5.33-16.7-3.64-23.14-13.39-18.19-17.23,3.67-2.85,14.24-1.75,27,1.55.15,5,10,14.55,20,12.19-5.6-1.45-11.4-2.7-15.49-7.58-1.32-1.91-2.5-4.08-1.84-6.59.92-2.7,3.51-3.42,6.19-3.49C965.55,226.65,972.21,231.26,979.39,234.75Z" transform="translate(-789.14 -8.27)"/><path class="cls-7" d="M1064.66,242.59c-3.19,5.83-8.16,11.39-14.71,12.86-3.73-2.16-5.26-7.43-5.26-7.43-.11-3.8,5.35-9.24,8.11-5.56-.6.57-1.5,2.68-1.19,3.23C1055.36,237.16,1064.29,236.63,1064.66,242.59Z" transform="translate(-789.14 -8.27)"/><path class="cls-14" d="M892.88,249.79c2.14-3,8.18-4.14,16.77-1.51a10.26,10.26,0,0,0-3.84,2.76c-2.57,3.27,1,9.62,3.66,11.39C895.19,263.13,889.45,254.54,892.88,249.79Z" transform="translate(-789.14 -8.27)"/><path class="cls-14" d="M923.44,247.67c2.75,5.36,7.9,7.12,12.88,8.05,0,4.47,4.13,6.42,5.64,6.91-7.71,2.43-31.28,4.63-34.07-8.5C907,247.49,923,247.54,923.44,247.67Z" transform="translate(-789.14 -8.27)"/><path class="cls-9" d="M1039.23,253.36a54,54,0,0,0-4.29,6.3,65.57,65.57,0,0,0,5.67-5.73c2.64,4.82,6,11.17,12.26,9.16-3.75,2.8-7.26,5.11-10.69,7.41a12.93,12.93,0,0,0,2.45-7c-.4,1-.92,2-1.39,3,.7-6.59-8.88-7.21-20.49.4,3.57-9.41-13.48.08-20.7,7.87l-.21-1C1013.42,260.89,1029.88,246.53,1039.23,253.36Z" transform="translate(-789.14 -8.27)"/><path class="cls-9" d="M997.05,256.36c1.5,14.91,5.29,30.87,8.45,44.12a41.16,41.16,0,0,0-.41-8.53c14.79-5.27,32.59-15.74,41.38-21.88,6.33-3.69,11.73-9.29,19-10.74,12-1.67,18.76,9.55-.6,27.22-8.9,8.76-63.05,43.38-80.06,36.57a11.41,11.41,0,0,0,4.42-.79c-18.94-12.88-5.06-50.41-9.56-62.93,1.22.09,2.17,1.18,3.1,2.17-.13-1.78.2-3.95,2-4.74.66,1.78.4,4.83,1.87,5.39,2-.33,2.33-2.59,2.61-4.34a4.14,4.14,0,0,0,1.89,1.67c.81-.47,1-1.66,1.3-2.91a6.09,6.09,0,0,0,1.66,3.51C994.56,257.86,996.05,256.55,997.05,256.36Z" transform="translate(-789.14 -8.27)"/><path class="cls-10" d="M1039.88,271.92A306.86,306.86,0,0,1,1005,291c-1-5.95-1.61-10.13-2.76-15.23,7.58-7.67,23.57-17.07,19-8.07a22.48,22.48,0,0,0-5.46,5.24C1031.37,260.62,1048.11,257.67,1039.88,271.92Z" transform="translate(-789.14 -8.27)"/><path class="cls-9" d="M960.74,264.8C965,273,972,280.09,977,283.25c-.33,4.22-.92,8.37-1,12.72a94.81,94.81,0,0,0-8.76,10.61c-7.12-8.76-19.9-30.41-25-43.16l.73-.29C948.3,265.23,954.61,265.26,960.74,264.8Z" transform="translate(-789.14 -8.27)"/><path class="cls-10" d="M976,297.09c.08,9.53,1.52,20,10.94,24.84a31.22,31.22,0,0,1-5.93.33c6.63,7.73,26.75.86,26.75.86-2.83,8.43-5.8,16.8-7,25.76-1.65,11.67-7.71,23.6-19,28.4a20.35,20.35,0,0,1-20.76-2.63c-5.54-4.55-6.85-10.64-8.1-17.73-1.39-10.47,1-21.28,4.94-30.44C962.19,316.27,972,301.3,976,297.09Z" transform="translate(-789.14 -8.27)"/><path class="cls-9" d="M1027.63,341.24c2.5,12.39,2.42,36.81,1.45,40.45a10.65,10.65,0,0,0-2.82-4c5.83,21.11,22.06,37.5,16.39,59.68a11.31,11.31,0,0,0-.86-4.68c-8.4,6.26-27.64,7.23-40.32,10.15a4.2,4.2,0,0,1-.33-2.57c-2.77.33-6,1.06-8.83.26,1.58-.39,3.56-1.18,4.15-2.89-1.76-1.67-6.13-1.33-7.91-1a4.15,4.15,0,0,0,2-2.64c-.91.4-4.88,2.19-7.38,1.78,1.22-.51,4.15-3.45,1.12-4.28A137,137,0,0,0,1004.5,418a36.64,36.64,0,0,0,3.42,3.56c-6.61-12.42-31.24-41.64-88.43-50.48a36.32,36.32,0,0,1,7.25-3.95c-10,1.29-18.12,10.74-21.15,16.8-2-6.54-6.5-12.58-8.7-15.81,3.41-17,11-27.88,21.35-39.81a11.6,11.6,0,0,1-4.55-.32c9.36-3.66,25.86.67,37.69,11-1.77,10.67-1.12,22.08,3.89,31.1,4.16,7.23,11.47,10.48,19.38,10.08,11.46-1,20.89-10.67,24.58-21,2.24-6.19,2.83-13.11,4.48-19.5,1.71-5.73,3.42-11.47,5.47-17.07,9.42-3.56,17.17-7.54,27.08-13.24C1030.59,316.59,1028,331.55,1027.63,341.24Z" transform="translate(-789.14 -8.27)"/><path class="cls-14" d="M873.65,326.39c5.48-1.25,12.48,3.88,7.42,23a9,9,0,0,0,1.26-1.91c4,2.1,10.1,19.27,17.26,28.59,2.8,4.24,6.35,12.05,4.81,18.12-.69,3.76-9.76,7.93-27.74-2.83-16.23-9.71-22.8-32.09-23.06-32.82.3-.19.85-.52.85-1-15.1,5.29-16.34-13.4-5.6-14.36.54,6.56,6.31,12.82,12.46,7.12-16.69,6.28-12.08-28.07,2.06-18.72-5.71,10.37-.33,16.94,3.54,17.8C857.8,338.67,866.41,327.54,873.65,326.39Z" transform="translate(-789.14 -8.27)"/><path class="cls-14" d="M1087.53,365.69c7.65,3.94,13,10.34,13.37,18.38-4.36-2.26-11.53-6.82-26.37-2a12.9,12.9,0,0,1,3.24-3.64c-1.13.14-3.49,0-4.15-1.12a19.08,19.08,0,0,1,6.06-1.58c-2.43-.2-5-.26-6.78-2,.15-.49,4-1.24,6.78-3.89-3.44.15-7.78-.22-8.3-.66.77-.88,3.82-1.64,5.67-2.43a28,28,0,0,1-7-.66c2-.64,2.66-1.1,3-1.91-2.35-1.62-5-1.71-8.36-1.52a6,6,0,0,1,2-1.73C1076.62,359.32,1086.47,365.09,1087.53,365.69Z" transform="translate(-789.14 -8.27)"/><path class="cls-9" d="M1065.52,361.21a4.59,4.59,0,0,0-1.93,2.12c5.52-.38,8.07.67,8.52,1.24a16.92,16.92,0,0,1-3.63,1.51c.83.94,3,1.22,5.2,1.2-1.38.58-2.83,1-3.62,2.23,2,1.12,4.77,1.3,7.2,1.11-1.41,1.39-4.88,2-5.48,3.17a4.86,4.86,0,0,0,3.19,2.07,3.94,3.94,0,0,0-2.21,1.49,3.64,3.64,0,0,0,3.43,1.85c-1.61.79-2.23,1.66-3.46,3.53-8.56,3-16.5,8.66-25.27,11a24.51,24.51,0,0,1-13.11-.26c-2.29-5-2.94-7.08-4.3-9.73.86-3.65,1.59-11.71,1.46-19.07C1043.69,369.18,1061.28,361.64,1065.52,361.21Z" transform="translate(-789.14 -8.27)"/><path class="cls-14" d="M980.25,436.26a14.58,14.58,0,0,0,8.63-.85,16.21,16.21,0,0,1-4.22,2.7c3.43-.58,8.52-1.27,10.55-.4-.13,1.32-4,2.24-5.93,2.57,3.16,1.65,7.81,1.5,11.26.59a4,4,0,0,0,.46,3,24.74,24.74,0,0,1,3.43-.68c7.52,3.49,19.91,3.53,21.8,6-2.41.39-5.15,2-5.85,3,4.08-2,10.56-4.07,14.3-1.06,6.06,5.43-6.46,27.92-17.9,17.45a4.42,4.42,0,0,0,1.49-1c-10.15,1.45-19.91-.81-29.19-3.56-8-3.16-16.54-5.87-22.54-13-7.24-7.31,13.11-16.61,16.94-19C986,431.78,984.75,435.17,980.25,436.26Z" transform="translate(-789.14 -8.27)"/><path class="cls-14" d="M1045.68,446.46c-1.39-.41-7.1-.33-9.36,1.86,8.58-2.12,11.22.21,12,4.31,1.23,6.89-6.16,18-13.41,13.68,4.68-7.17,7.31-18-5.41-17.74C1036.58,442.69,1044.13,443.39,1045.68,446.46Z" transform="translate(-789.14 -8.27)"/><path class="cls-14" d="M1038,216.42c-.11.64-1.62.9-3.37.58s-3.06-1.1-2.94-1.74,1.63-.91,3.37-.59S1038.15,215.77,1038,216.42Z" transform="translate(-789.14 -8.27)"/><path class="cls-1" d="M791.11,170.07c-2.51,12.23,0,28.53,11,31.59C795.62,201.59,784.64,191.51,791.11,170.07Z" transform="translate(-789.14 -8.27)"/><path class="cls-14" d="M875.24,56.14c-.4.62-1.59.08-2.38-.46s-1.07-1.9-.7-2.32,1.2-.15,2.17.71S875.54,55.67,875.24,56.14Z" transform="translate(-789.14 -8.27)"/><path class="cls-2" d="M884.37,61.24,885,61a5.44,5.44,0,0,0-.44.68A3,3,0,0,0,884.37,61.24Z" transform="translate(-789.14 -8.27)"/><path class="cls-16" d="M855.09,364.13s1.58-10.51,11.21-10.16c0,0,7.89-1.23,12.62,9.81,0,0,5.26,11.74,11,17.88,0,0,12.8,11.91,5.79,16.65" transform="translate(-789.14 -8.27)"/></svg>