<svg id="圖層_1" data-name="圖層 1" xmlns="http://www.w3.org/2000/svg" viewBox="0 0 326.55 174.76"><defs><style>.cls-1{fill:#231815;}.cls-2{fill:#fff;}</style></defs><path class="cls-1" d="M967.42,238.13a64,64,0,1,0,64-64A64.07,64.07,0,0,0,967.42,238.13Z" transform="translate(-794.58 -162.89)"/><path class="cls-1" d="M1031.41,303a64.82,64.82,0,1,1,64.82-64.82A64.9,64.9,0,0,1,1031.41,303Zm0-128a63.16,63.16,0,1,0,63.15,63.15A63.22,63.22,0,0,0,1031.41,175Z" transform="translate(-794.58 -162.89)"/><path class="cls-2" d="M1031.41,299.42a61.29,61.29,0,1,1,61.28-61.29A61.36,61.36,0,0,1,1031.41,299.42Zm0-120.36a59.07,59.07,0,1,0,59.06,59.07A59.14,59.14,0,0,0,1031.41,179.06Z" transform="translate(-794.58 -162.89)"/><path class="cls-2" d="M1086.13,238.13a54.73,54.73,0,1,1-54.72-54.73A54.73,54.73,0,0,1,1086.13,238.13Z" transform="translate(-794.58 -162.89)"/><path class="cls-2" d="M1095.1,335.49h-2v-8.66H1091v-1.77h6.23v1.77h-2.1Z" transform="translate(-794.58 -162.89)"/><path class="cls-2" d="M1106.15,329h0l-2.36,6.6h-.7l-2.29-6.6h0l-.93,6.46h-2l1.76-10.72H1101l2.56,6.88,2.47-6.88h1.47l1.55,10.72h-2Z" transform="translate(-794.58 -162.89)"/><path class="cls-1" d="M979.49,295.12c.17,3.64.36,9.3.25,13.75-.08,3.55-.24,10.15-1.39,11h0c-.7,0-1.33-1.43-1.47-1.94a2.38,2.38,0,0,0-1.5-1.63,2.35,2.35,0,0,0-2.19.33l-7.66,5.68a2.35,2.35,0,0,0-.85,2.58c1.09,3.66,6,10.56,16.69,10.38a9.91,9.91,0,0,0,7.39-3.49c2.24-2.45,3.79-6.12,4.88-10.3l2.08,12.73a2.36,2.36,0,0,0,2.78,1.95l10-1.95a2.28,2.28,0,0,0,.26.45,2.34,2.34,0,0,0,1.57,1l12.16,1.79a2.37,2.37,0,0,0,2.67-1.88l1.55-7.81,4,8.59a2.37,2.37,0,0,0,3.08,1.18l9.33-4a2.35,2.35,0,0,0,1.41-2.31l.69,3.94A2.37,2.37,0,0,0,1048,337l10-2.1a2.39,2.39,0,0,0,1.86-2.62l-.71-5.51,5.69,6.72a2.36,2.36,0,0,0,3.34.27l1.85-1.57-.07.91a2.38,2.38,0,0,0,2.19,2.52l10,.74a2.37,2.37,0,0,0,2.53-2.16l2-23.14,12.15-12a2.36,2.36,0,0,0,.7-1.67,2.32,2.32,0,0,0-.68-1.68l-7.66-7.72a2.35,2.35,0,0,0-1.72-.7,2.38,2.38,0,0,0-1.69.76l-7.4,8-6.64-9.44a2.37,2.37,0,0,0-3.29-.58l-5.59,3.86a16.66,16.66,0,0,0-2-1.3c-7.66-4-18.62-3-24-.94a2.35,2.35,0,0,0-1.48,2.07,42.53,42.53,0,0,0-18.51-4.51,2.38,2.38,0,0,0-2.23,1.95l-1.82,10.1a2.57,2.57,0,0,0,0-.62l-1.73-9a2.36,2.36,0,0,0-2.85-1.86l-14.55,3.37c0-.19,0-.33,0-.38a2.41,2.41,0,0,0-.94-1.72,2.37,2.37,0,0,0-1.91-.42L981.18,289a2.38,2.38,0,0,0-1.87,2.45s.06,1,.14,2.62Zm89.91,14.23,2,3.06-.32,4.67-3.65-4A17.51,17.51,0,0,0,1069.4,309.35Zm-58.61,10h0l-.2-1,.45-.15Zm3.93-21.72-1.14,6.26a2.33,2.33,0,0,0-1.12-1.31,2.37,2.37,0,0,0-2-.09l-2.63,1.1-.45-2.57,5.8-1.8A2.34,2.34,0,0,0,1014.72,297.68Zm29.68,32.82-4-11.35a19.66,19.66,0,0,0,1.69-1.71l2.29,13.14S1044.41,330.52,1044.4,330.5Z" transform="translate(-794.58 -162.89)"/><path class="cls-1" d="M983.07,332.8c-10.34,0-15.09-6.7-16.16-10.29a2.2,2.2,0,0,1,.8-2.41l7.65-5.68a2.21,2.21,0,0,1,3.47,1.23c.11.4.76,2.14,1.62,2,1.29-.08,1.48-8.1,1.55-11.12h0c.17-7.11-.42-17.3-.43-17.4a2.22,2.22,0,0,1,1.75-2.3l11.61-2.47a2.25,2.25,0,0,1,1.79.39,2.22,2.22,0,0,1,.88,1.61c.1,1.33,2.43,32.76-6.85,43a9.86,9.86,0,0,1-7.3,3.45Zm-11.29-10.2c1.2,2.1,4.36,5.94,11.6,5.76a5.46,5.46,0,0,0,4.09-2c6.06-6.66,6.36-27.1,5.87-37.1l-7.24,1.54c.17,3.34.46,10.38.33,15.87-.19,8.12-.35,15.13-5.73,15.43a5.43,5.43,0,0,1-4.85-2.53Z" transform="translate(-794.58 -162.89)"/><path class="cls-1" d="M984.22,306.62c.17-7.28-.44-17.58-.44-17.58l11.61-2.47s3.4,43.76-12,44c-11.72.19-14.38-8.7-14.38-8.7l7.66-5.68s1,3.86,3.88,3.7C983.85,319.71,984.05,313.92,984.22,306.62Z" transform="translate(-794.58 -162.89)"/><path class="cls-2" d="M983.06,331.42c-11.91,0-14.8-9.21-14.83-9.3a.83.83,0,0,1,.31-.91l7.65-5.68a.79.79,0,0,1,.77-.12.84.84,0,0,1,.53.58s.88,3.25,3,3.08c2.57-.15,2.71-6.41,2.86-12.47h0c.17-7.16-.43-17.41-.44-17.51a.83.83,0,0,1,.66-.86l11.61-2.48a.82.82,0,0,1,.67.15.83.83,0,0,1,.33.6c.1,1.31,2.38,32.16-6.5,41.92a8.47,8.47,0,0,1-6.29,3Zm-13-9.25c.77,1.85,4,7.78,13.37,7.58a6.82,6.82,0,0,0,5.09-2.45c7.57-8.31,6.45-34.4,6.13-39.72l-10,2.12c.13,2.47.54,10.81.4,16.95l-.83,0,.83,0c-.18,7.43-.33,13.85-4.43,14.08-2.44.11-3.74-1.87-4.33-3.2Z" transform="translate(-794.58 -162.89)"/><path class="cls-1" d="M1084.47,333.91h-.17l-10-.73a2.22,2.22,0,0,1-2-2.37l1.43-20.73-11.07-16.7a2.23,2.23,0,0,1,.59-3.05l9.45-6.54a2.22,2.22,0,0,1,3.07.54l6.76,9.6,7.51-8.12a2.26,2.26,0,0,1,1.59-.71h0a2.16,2.16,0,0,1,1.57.66l7.66,7.71a2.21,2.21,0,0,1,.65,1.57,2.26,2.26,0,0,1-.66,1.57l-12.2,12.08-2,23.2A2.22,2.22,0,0,1,1084.47,333.91Zm-7.64-5,5.61.42,1.85-21.83a2.31,2.31,0,0,1,.65-1.39l11.2-11.09-4.46-4.5-7.81,8.43a2.35,2.35,0,0,1-1.77.71,2.24,2.24,0,0,1-1.67-.94l-7.07-10-5.85,4.05,10.28,15.52a2.15,2.15,0,0,1,.36,1.37Z" transform="translate(-794.58 -162.89)"/><polygon class="cls-1" points="279.33 122.71 269.88 129.25 281.36 146.58 279.88 168.06 289.88 168.8 291.92 144.79 304.7 132.13 297.04 124.42 287.66 134.54 279.33 122.71"/><path class="cls-2" d="M1084.46,332.52h-.06l-10-.74a.83.83,0,0,1-.77-.88l1.46-21.21-11.32-17.09a.83.83,0,0,1,.22-1.14l9.45-6.54a.83.83,0,0,1,1.15.2l7.74,11,8.68-9.38a.86.86,0,0,1,.6-.27c.22-.08.44.09.6.25l7.66,7.72a.83.83,0,0,1,.24.58.8.8,0,0,1-.25.59l-12.56,12.45-2,23.7A.84.84,0,0,1,1084.46,332.52Zm-9.11-2.33,8.35.61,2-23.19a.85.85,0,0,1,.25-.52L1098.1,295l-6.46-6.51-8.79,9.49a.93.93,0,0,1-.66.26.82.82,0,0,1-.63-.35l-7.86-11.16-8.09,5.61,11,16.65a.84.84,0,0,1,.13.52Z" transform="translate(-794.58 -162.89)"/><path class="cls-1" d="M1035,335.21a2.21,2.21,0,0,1-2-1.29l-4.18-9-1.63,8.26a2.2,2.2,0,0,1-2.5,1.76l-12.16-1.78a2.22,2.22,0,0,1-1.86-2.59l8.27-45.75A2.21,2.21,0,0,1,1021,283c3.08-.11,17.1,1.06,24.2,8.86a15.13,15.13,0,0,1,3.83,12.73h0a20.29,20.29,0,0,1-6.63,12.23l4,11.44a2.21,2.21,0,0,1-1.22,2.76l-9.32,4A2.07,2.07,0,0,1,1035,335.21Zm-19.57-6.12,7.81,1.15,2.55-12.87a2.21,2.21,0,0,1,4.18-.5l6.13,13.23,5.44-2.34-3.82-11a2.21,2.21,0,0,1,.84-2.56,16.12,16.12,0,0,0,6.09-10.25h0a10.71,10.71,0,0,0-2.71-9.15c-4.75-5.22-14.3-7.07-19-7.38Zm31.42-24.81h0Zm-17.29,5.31a2.21,2.21,0,0,1-2.18-2.58l1.54-9.5A2.25,2.25,0,0,1,1030,296a2.22,2.22,0,0,1,1.88-.17,6.86,6.86,0,0,1,4.41,7h0a7.14,7.14,0,0,1-6.58,6.76Zm4.51-7h0Z" transform="translate(-794.58 -162.89)"/><path class="cls-1" d="M1046.81,304.28c2.22-16.48-21.23-19.26-25.74-19.07L1012.8,331l12.16,1.79,3-14.94,7,15.19,9.32-4-4.51-12.91A18.18,18.18,0,0,0,1046.81,304.28ZM1034,302.61a5,5,0,0,1-4.51,4.76l1.55-9.51A4.67,4.67,0,0,1,1034,302.61Z" transform="translate(-794.58 -162.89)"/><path class="cls-2" d="M1035,333.82a.84.84,0,0,1-.76-.48l-6-12.87-2.46,12.43a.85.85,0,0,1-.94.66l-12.16-1.78a.83.83,0,0,1-.7-1l8.27-45.75a.81.81,0,0,1,.78-.68c4-.21,16.86,1.53,23.13,8.41a13.75,13.75,0,0,1,3.47,11.61h0a18.92,18.92,0,0,1-6.87,12l4.3,12.33a.82.82,0,0,1-.45,1l-9.32,4A.78.78,0,0,1,1035,333.82Zm-7-16.85a.83.83,0,0,1,.75.48l6.7,14.45,7.87-3.38L1039,316.34a.83.83,0,0,1,.31-1,17.49,17.49,0,0,0,6.69-11.21h0a12.18,12.18,0,0,0-3.06-10.26c-5.48-6-16.88-7.83-21.17-7.88l-8,44.23,10.53,1.54,2.8-14.16a.83.83,0,0,1,.72-.66Zm18.89-12.69h0Zm-17.29,3.92a.83.83,0,0,1-.82-1l1.55-9.51a.83.83,0,0,1,.4-.58.82.82,0,0,1,.7-.07,5.45,5.45,0,0,1,3.51,5.61h0a5.77,5.77,0,0,1-5.29,5.51Zm2.18-9-1.16,7.11a4.1,4.1,0,0,0,2.66-3.74A3.6,3.6,0,0,0,1031.7,299.17Zm2.33,3.44h0Z" transform="translate(-794.58 -162.89)"/><path class="cls-1" d="M1049.65,334.59a2.24,2.24,0,0,1-2.19-1.84l-7.83-44.87a2.22,2.22,0,0,1,1.39-2.46c5.3-2,16.2-3.09,23.82.93a13.3,13.3,0,0,1,7.09,8.71c1.88,7.83-.76,13.2-2.56,15.75l7.5,8.19a2.25,2.25,0,0,1,.58,1.66l-.29,3.9a2.2,2.2,0,0,1-.78,1.52l-6.16,5.26a2.09,2.09,0,0,1-1.62.52,2.19,2.19,0,0,1-1.51-.77l-6-7.11.78,6a2.21,2.21,0,0,1-1.75,2.45l-10,2.1A2.3,2.3,0,0,1,1049.65,334.59ZM1044.33,289l7.11,40.72,5.75-1.21-1.47-11.43a2.21,2.21,0,0,1,3.89-1.71l9.43,11.14,3.76-3.21.15-2-8.15-8.91a2.22,2.22,0,0,1,.12-3.11c.18-.18,4.73-4.71,2.7-13.17a8.89,8.89,0,0,0-4.84-5.83C1057.41,287.45,1049.29,287.7,1044.33,289ZM1075,324.4h0ZM1056.13,308a2.22,2.22,0,0,1-.8-.15,2.19,2.19,0,0,1-1.38-1.66l-1.6-8.58a2.21,2.21,0,0,1,.49-1.85,2.43,2.43,0,0,1,1.75-.77c2.15.07,5.94,1.18,6.57,4.94.69,4.16-3.24,7.28-3.69,7.62A2.19,2.19,0,0,1,1056.13,308Z" transform="translate(-794.58 -162.89)"/><path class="cls-1" d="M1075,324.39l.28-3.89-8.79-9.61s5.71-5.38,3.33-15.31c-2.65-11.05-20.37-11-28-8.09l7.84,44.88,10-2.1-1.73-13.46,10.86,12.84Zm-18.82-18.63-1.6-8.58s4,.13,4.44,3.09S1056.13,305.76,1056.13,305.76Z" transform="translate(-794.58 -162.89)"/><path class="cls-2" d="M1049.65,333.2a.86.86,0,0,1-.47-.14.84.84,0,0,1-.35-.55L1041,287.64a.82.82,0,0,1,.52-.92c5.87-2.25,16.21-2.56,22.69.86a11.78,11.78,0,0,1,6.38,7.8c2,8.5-1.56,13.79-3,15.51l8.28,9.05a.83.83,0,0,1,.21.62l-.28,3.9a.9.9,0,0,1-.29.57l-6.17,5.26a.88.88,0,0,1-.6.19.78.78,0,0,1-.57-.29l-9.05-10.69,1.37,10.67a.84.84,0,0,1-.65.92l-10,2.09A.52.52,0,0,1,1049.65,333.2Zm-6.9-45.16,7.57,43.34,8.41-1.76-1.64-12.7a.85.85,0,0,1,.49-.87.83.83,0,0,1,1,.22l10.33,12.21,5.26-4.49.24-3.2-8.56-9.34a.84.84,0,0,1,0-1.17c.22-.21,5.33-5.2,3.09-14.51a10.18,10.18,0,0,0-5.54-6.72C1057,285.67,1047.61,286.42,1042.75,288ZM1075,324.4h0Zm-18.82-17.8a.8.8,0,0,1-.3-.06.86.86,0,0,1-.52-.62l-1.6-8.58a.84.84,0,0,1,.18-.7.77.77,0,0,1,.66-.29c.19,0,4.64.19,5.24,3.79.57,3.41-3,6.17-3.16,6.29A.82.82,0,0,1,1056.13,306.6Zm-.57-8.42,1.11,5.93a4.76,4.76,0,0,0,1.48-3.7A3.07,3.07,0,0,0,1055.56,298.18Z" transform="translate(-794.58 -162.89)"/><path class="cls-1" d="M1000.14,333.72a2.22,2.22,0,0,1-2.19-1.86l-6.73-41.3a2.22,2.22,0,0,1,1.69-2.51l19.45-4.51a2.22,2.22,0,0,1,2.68,1.74l1.72,9a2.2,2.2,0,0,1-1.52,2.53l-5.92,1.83.5,2.88,2.81-1.16a2.19,2.19,0,0,1,1.87.08,2.23,2.23,0,0,1,1.14,1.5l2.23,10.25a2.22,2.22,0,0,1-1.52,2.59l-3.88,1.19.27,1.3,6-1.23a2.18,2.18,0,0,1,1.66.33,2.22,2.22,0,0,1,.95,1.41l1.85,9.19a2.19,2.19,0,0,1-.33,1.67,2.26,2.26,0,0,1-1.42.95l-20.93,4.07A2,2,0,0,1,1000.14,333.72Zm-4.2-41.82,6,37,16.49-3.21-1-4.83-6,1.22a2.21,2.21,0,0,1-2.61-1.73l-1.12-5.43a2.23,2.23,0,0,1,1.52-2.57l3.86-1.18-1.23-5.67L1009,306.7a2.23,2.23,0,0,1-3-1.67l-1.3-7.53a2.23,2.23,0,0,1,1.53-2.5l5.89-1.82-.92-4.8Z" transform="translate(-794.58 -162.89)"/><polygon class="cls-1" points="205.56 168.61 226.49 164.53 224.64 155.34 216.43 157.01 215.31 151.57 221.12 149.79 218.9 139.54 213.53 141.76 212.23 134.23 220 131.82 218.28 122.81 198.83 127.31 205.56 168.61"/><path class="cls-2" d="M1000.14,332.34a.87.87,0,0,1-.47-.15.84.84,0,0,1-.35-.55l-6.73-41.3a.83.83,0,0,1,.64-.94l19.44-4.51a.85.85,0,0,1,.64.11.88.88,0,0,1,.37.55l1.72,9a.83.83,0,0,1-.57.95l-7.08,2.19,1,5.79,4.41-1.83a.85.85,0,0,1,.7,0,.84.84,0,0,1,.43.56l2.22,10.25a.82.82,0,0,1-.57,1l-5.08,1.57.8,3.88,7.39-1.5a.87.87,0,0,1,.63.12.84.84,0,0,1,.35.53l1.85,9.19a.82.82,0,0,1-.12.63.8.8,0,0,1-.53.35l-20.93,4.08Zm-5.78-41.5,6.46,39.68,19.27-3.75-1.52-7.56-7.4,1.51a.84.84,0,0,1-1-.65l-1.11-5.44a.84.84,0,0,1,.57-1l5.08-1.56-1.86-8.53-4.44,1.84a.86.86,0,0,1-.72,0,.8.8,0,0,1-.42-.59l-1.3-7.53a.82.82,0,0,1,.57-.93l7.07-2.19-1.42-7.43Z" transform="translate(-794.58 -162.89)"/><path class="cls-1" d="M1026.11,241.56a2.13,2.13,0,0,0-4-.16l-4.86,12.4-5.49-11.91a2.1,2.1,0,0,0-2.13-1.23,2.12,2.12,0,0,0-1.86,1.61l-1.68,6.91c-.41-.46-.81-.93-1.25-1.36a17.48,17.48,0,0,0-12.39-5.2A17,17,0,0,0,982,246.46l-2-3.62a2.12,2.12,0,0,0-2.32-1.06l-23.29,5a2.14,2.14,0,0,0-1.63,1.65l-2.4,11.73a2.13,2.13,0,0,0,2.47,2.52l8.54-1.59L967,287.88a2.12,2.12,0,0,0,2.44,1.66l11.19-2a2.14,2.14,0,0,0,1.4-.9,2.11,2.11,0,0,0,.32-1.62l-.14-.68a16.61,16.61,0,0,0,20.34.55l8.11,1.64a2.15,2.15,0,0,0,2.45-1.44l1.31-4.07,1.35,3a2.12,2.12,0,0,0,3.81.11l2.43-4.61,1.76,5a2.19,2.19,0,0,0,1.15,1.24,2.13,2.13,0,0,0,1.68,0l9.57-4a2.12,2.12,0,0,0,1.22-2.57ZM996,265.2c0,3.67-1,6.38-2,7.45a.79.79,0,0,1-1.38,0c-1.07-1.05-2.17-3.74-2.21-7.41-.05-5.09,1.91-7.86,2.73-7.87S995.91,260.11,996,265.2Z" transform="translate(-794.58 -162.89)"/><path class="cls-1" d="M970.53,287.79a2.2,2.2,0,0,1-2.16-1.76l-5.57-26.65-8.45,1.56a2.21,2.21,0,0,1-2.58-2.62l2.4-11.73a2.23,2.23,0,0,1,1.7-1.73l23.29-5a2.24,2.24,0,0,1,2.42,1.11l5.61,10.38a2.22,2.22,0,0,1-1.5,3.23l-7.4,1.53,5.61,27.1a2.21,2.21,0,0,1-1.79,2.63l-11.19,2Zm-6-33.21a2.21,2.21,0,0,1,2.16,1.77L972.27,283l6.82-1.19-5.59-27a2.23,2.23,0,0,1,.32-1.67,2.18,2.18,0,0,1,1.4-.95l6.66-1.38-3.41-6.29-20.24,4.38L956.78,256l7.34-1.36A1.9,1.9,0,0,1,964.53,254.58Z" transform="translate(-794.58 -162.89)"/><polygon class="cls-1" points="161.76 84.14 185.05 79.09 190.66 89.47 181.09 91.45 187.15 120.72 175.96 122.68 169.94 93.91 159.36 95.87 161.76 84.14"/><path class="cls-2" d="M970.54,286.41a.83.83,0,0,1-.82-.66l-5.84-28-9.78,1.81a.83.83,0,0,1-1-1l2.4-11.74a.84.84,0,0,1,.64-.64l23.28-5a.81.81,0,0,1,.91.41L986,252a.86.86,0,0,1,0,.75.82.82,0,0,1-.59.46L976.65,255l5.89,28.46a.81.81,0,0,1-.13.64.84.84,0,0,1-.54.35l-11.19,1.95Zm-6-30.44a.83.83,0,0,1,.82.66l5.85,28,9.55-1.67-5.88-28.44a.76.76,0,0,1,.12-.62.87.87,0,0,1,.52-.36l8.48-1.75-4.78-8.85-22.15,4.8-2,10,9.36-1.74Z" transform="translate(-794.58 -162.89)"/><path class="cls-1" d="M1012.54,284.83a2.25,2.25,0,0,1-.44,0l-10.87-2.19a2.22,2.22,0,0,1-1.72-2.7l9.61-39.51a2.21,2.21,0,0,1,1.94-1.69,2.25,2.25,0,0,1,2.23,1.28l5.4,11.72,4.78-12.2a2.28,2.28,0,0,1,2.15-1.41,2.22,2.22,0,0,1,2,1.58l11.29,37.68a2.22,2.22,0,0,1-1.27,2.68l-9.58,4a2.22,2.22,0,0,1-1.75,0,2.19,2.19,0,0,1-1.19-1.29l-1.7-4.83-2.33,4.42a2.05,2.05,0,0,1-2,1.18,2.2,2.2,0,0,1-2-1.29l-1.26-2.74-1.24,3.84A2.22,2.22,0,0,1,1012.54,284.83Zm-8.18-6.13,6.68,1.35,2.39-7.39a2.21,2.21,0,0,1,2-1.53,2.16,2.16,0,0,1,2.15,1.29l1.74,3.82,2.6-4.92a2.32,2.32,0,0,1,2.12-1.18,2.2,2.2,0,0,1,1.93,1.47l2.6,7.42,5.57-2.32-8.87-29.61-4.33,11.06a2.23,2.23,0,0,1-2,1.41,2.07,2.07,0,0,1-2.08-1.29l-4.91-10.66Z" transform="translate(-794.58 -162.89)"/><polygon class="cls-1" points="207.08 117.53 217.96 119.72 220.96 110.45 224.58 118.37 229.28 109.46 232.66 119.08 242.23 115.09 230.95 77.42 224.27 94.46 216.69 78.02 207.08 117.53"/><path class="cls-2" d="M1012.54,283.48l-.17,0-10.88-2.19a.86.86,0,0,1-.67-1l9.61-39.51a.89.89,0,0,1,.76-.66.92.92,0,0,1,.87.5l6.73,14.6,5.94-15.16a1,1,0,0,1,.84-.55.89.89,0,0,1,.79.62l11.28,37.68a.86.86,0,0,1-.49,1l-9.58,4a.85.85,0,0,1-.68,0,.79.79,0,0,1-.46-.5l-2.73-7.75-3.77,7.16a1.15,1.15,0,0,1-.79.46.86.86,0,0,1-.76-.51l-2.7-5.9-2.32,7.16A.86.86,0,0,1,1012.54,283.48Zm-9.82-3.73,9.23,1.86,2.77-8.53a.86.86,0,0,1,.77-.6.83.83,0,0,1,.84.5l2.89,6.32,3.87-7.35a.87.87,0,0,1,1.59.11l3.07,8.77,8-3.34L1025.42,243l-5.76,14.71a.87.87,0,0,1-.78.55.76.76,0,0,1-.81-.5l-6.54-14.19Z" transform="translate(-794.58 -162.89)"/><path class="cls-1" d="M1064.11,252.63a15.72,15.72,0,0,1-6.9-.31c-9.55,8-15.75,5.51-15.75,5.51l-.71-.35c-3.58-1.76-3.88-7.15-4.68-11-11.78-7.66-17-20.86-18-30.78a7.91,7.91,0,0,0-.39.94,6.75,6.75,0,0,1,.44-7.52c-4.94-7.38-12.81-15.76-23.46-26.07,5.06,3.73,17.92,16.09,24.29,25.33a6.78,6.78,0,0,1,2.61-1,75.74,75.74,0,0,0-9.17-12.55c4,3.24,8.34,9.93,8.34,9.93,5.88-1.76,8.76,5.46,8.76,5.46,1.59-10.71,7.49-18.67,15-21.8,5.76-2.31,6,.12,6.09.69a8.56,8.56,0,0,1,2-.61,12.08,12.08,0,0,0,1.15-5.69,95.38,95.38,0,0,0-10.11-3.19,29.29,29.29,0,0,1,10,.53c-.09-4.64-2.53-12.61-7.09-17.24,15.69,4.51,18.42,17,19.57,21.69a27.15,27.15,0,0,1,3.19,2c-2.08-3.54-2-5.19-2-5.19,4.14,3.89,10.92,10.93,14.58,13.42,16.07-5.59,30.39-4,39.1,5.8-3.56-.77-12.5-1.29-15.78-.48-2.21,8.42,20.12,34.73-10.38,31.49,0,0,5.13,6.43,5,12.45a25.37,25.37,0,0,0-3.94-3.89c2.15,3.36,4.2,7.46,4.22,11.75,0,0-4.58-3.4-12.68-3.63-5.6-.16-12.63,2.21-22,4.18Z" transform="translate(-794.58 -162.89)"/><path class="cls-1" d="M1023.77,207.43c-.42-.08-1.53-.15-1.53-.15-.31-.46-1-1.49-1.31-2A5.53,5.53,0,0,1,1023.77,207.43Z" transform="translate(-794.58 -162.89)"/><path class="cls-2" d="M1047.26,163.35c6.64,5.36,7.29,11.72,7.68,17.06a76,76,0,0,1,10.23,3.8C1063,177.83,1058,167.3,1047.26,163.35Z" transform="translate(-794.58 -162.89)"/><path class="cls-2" d="M1077.33,197a16.16,16.16,0,0,1-2.67.36c.8-.3,4.41-1.68,5.88-2.18a123.1,123.1,0,0,1-12.67-12.66,59.25,59.25,0,0,0,5.51,7.44c-10.57-6.48-21.15-9.93-25.58-10l-1.28-.1c7.18,1.42,21,6.74,25.69,11.63a83.24,83.24,0,0,0-21.74-2c0,1.78-2,4.28-4,4.87.7-1.11,3.54-5.72-2.64-3.85-4.8,1.49-8,5.68-10.48,9.79-1.86,3.45-3.56,7.63-3.54,11.51-1.78-2.93-3.44-6.91-8.6-7a5.55,5.55,0,0,1,3.1,2.63,1.48,1.48,0,0,1,.37.32,5,5,0,0,0-2.08,0,84.43,84.43,0,0,1,4.63,9.32,6.74,6.74,0,0,1,3.17.48c.12-1.68.17-2.51.31-3.92.37-5.47,2.7-11.73,7.44-14.42,2.9-1.35,4,.81,4,.81a5.52,5.52,0,0,0-.28-3.33,3.65,3.65,0,0,1,1.06,3c.72-1.64,3.37-3.62,3.43-.21,1-1.3,2.72-2.66,4.25-2.44.57.83-.23,3-1.09,4.18a1.59,1.59,0,0,1,1.12.18,5.53,5.53,0,0,1-1.27,4.62c3.68-2.59,7.69-2.52,8.6,1.24a16.41,16.41,0,0,0,0-5.93c2.51,3.27,1.2,8.24-.72,11.87-2.25,4.65-6.31,7.55-9.4,11.39,0,0,.75.09,1.91.36,3.39-3.58,9.49-3.54,12.36-2.75-4-.36-10.06.85-11.29,4.52,11.38-1.94,24.32-2.42,28.34-2.16-9.28.46-24.8,2.67-28.66,3.17a1.69,1.69,0,0,0,.1,1.08c8-.88,23.88-1.11,34.64,1.87-13.72-2.11-27.47-1.55-34.45-1.07,1.38,2.2,7,5.85,16.58,2.38-.51.76-1.53,1.07-2.33,1.53,5.36,2.58,14.72,8.31,2.22,17.2,1.35-.14,21.65-9.34,32-.13,0,0-2.43-10.78-11-16.24a9.59,9.59,0,0,1,5.1,2.56,11,11,0,0,1,4.75,3.63,34,34,0,0,0-10.62-14.55,2.82,2.82,0,0,1,1.53.51c-1-2.75.38-6.62,2.15-7.32,3.93,2,5.92.79,6.31.48a15.65,15.65,0,0,0-5.92-2c5.67-1.09,6.6-3.59,6.37-4.05-.88-1.2-4.68,1.32-5.76,2.21,2.2-1.73,3.85-5.57,2-6.48-1.31-.08-2.89,2.57-3.6,5.69a12.59,12.59,0,0,0-2.52-8.14,29.23,29.23,0,0,0-3.37,2.62c1.38-3.64,14.45-15,34.83-9.73C1104.64,187.53,1084.54,195.5,1077.33,197Z" transform="translate(-794.58 -162.89)"/><path class="cls-2" d="M1055,183.33a9.91,9.91,0,0,1-1.67,5,44.22,44.22,0,0,1,13.51.64A81.76,81.76,0,0,0,1055,183.33Z" transform="translate(-794.58 -162.89)"/><path class="cls-2" d="M1088.67,206.64a7,7,0,0,1,2.57,4.88c.74-2.13,2.56-3,3.32-2.62,1.23.83,1.52,2.67.45,4.47,1.37-.39,3.06-.6,3.47.13.76.86-2.15,3.71-3.94,4.26a7.28,7.28,0,0,1,3.74,2.11c-1.91,1.8-4.51,1.49-6.91.38a8.58,8.58,0,0,0-1.13,7.2,27.29,27.29,0,0,1,3.84,3.31c28.49,2.88,6.05-21.07,10.69-30.57C1100.56,200.84,1092.92,203.45,1088.67,206.64Z" transform="translate(-794.58 -162.89)"/><path class="cls-1" d="M1056.8,199.13c2,.78,6.1-.47,8.22,1.14,1.71,1.31,2.46,5.08-3.68,11.63,4.6-1.53,13.76-11.62,9.29-15.51a1.57,1.57,0,0,1,1.37.39C1068.21,192,1064.06,198.49,1056.8,199.13Z" transform="translate(-794.58 -162.89)"/><path class="cls-2" d="M1045.18,202.08c1.62-4.49-.79-5.1-2.26-.32.36,2-5.82,9.78-8,19.42.17.26.42.55.57.78a14.38,14.38,0,0,1,4.36,1.26c.55-3.5,5-12.47,7.9-15.74,1.24-1.57,2.59-4,2.45-5.54,0,0-1.35-.28-3.07,1.8a4,4,0,0,1,1.42-2,8.28,8.28,0,0,0,1.79-4.14C1048.21,198.23,1046.72,200.05,1045.18,202.08Z" transform="translate(-794.58 -162.89)"/><path class="cls-2" d="M1033,207.81c2.6-1.05,4,3.94.46,11.86a10.17,10.17,0,0,1,1,1,52.63,52.63,0,0,1,6.68-16.46,3.87,3.87,0,0,0,.91-2.78C1040.9,197.37,1034.76,201.66,1033,207.81Z" transform="translate(-794.58 -162.89)"/><path class="cls-2" d="M1048.87,208.12a20.05,20.05,0,0,0-3.25,4.32c2.57-.87,4.68,5.77-3,12.5a8,8,0,0,1,.83.7,6.82,6.82,0,0,1,3.81-1c3.55-4.8,8.2-8.14,10-14.24a4.15,4.15,0,0,0-1.58-4.74C1053,204.5,1050.63,206.35,1048.87,208.12Z" transform="translate(-794.58 -162.89)"/><path class="cls-2" d="M1032.66,208.63a7.72,7.72,0,0,0-.43,1.62c1.45-1.82,2.66,1.58.19,8.53.2.17.35.28.52.45C1036.39,211.24,1034.47,207.16,1032.66,208.63Z" transform="translate(-794.58 -162.89)"/><path class="cls-2" d="M1045.26,213l-1,1.71c2.94-.57,2.54,4-2.35,9.58.22.18.44.33.56.44C1050.26,216.21,1046.8,212.15,1045.26,213Z" transform="translate(-794.58 -162.89)"/><path class="cls-2" d="M1019.36,209.25c2,3,3.9,6,5.68,8.86a4,4,0,0,1,1.57-.74,66.11,66.11,0,0,0-4.74-9.44A4.64,4.64,0,0,0,1019.36,209.25Z" transform="translate(-794.58 -162.89)"/><path class="cls-2" d="M1018.64,209.92a6.28,6.28,0,0,0-1.09,4.64,4.27,4.27,0,0,1,.77-1.3,66.49,66.49,0,0,0,4.25,14.81,11.73,11.73,0,0,1,.58-3,6.35,6.35,0,0,1,1.38-6.57C1022.6,215.64,1018.64,209.92,1018.64,209.92Z" transform="translate(-794.58 -162.89)"/><path class="cls-2" d="M1029.23,232.72a5.33,5.33,0,0,1-.52-2.31c2.78,6.82,13.32,14.13,23.81,2.55a6.79,6.79,0,0,1-3.28-3.19c-1.29.06-2.64,0-3.94.07a22.79,22.79,0,0,1,3.78-.69,7.19,7.19,0,0,1-.15-1c-1.14.05-2.94,0-2.94,0a24.43,24.43,0,0,1,3-.81,2.45,2.45,0,0,1,.22-1,9.06,9.06,0,0,0-5.43-.33,2.37,2.37,0,0,1,.62,1.64c-2.54-2-5.24-4.13-8.69-4.76,4.64,4.33,2,6.77-.45,6.7-1.66-.1-3.45-2-6.41-1.75-.47-1.76-2.89-4-1.49-6.56.78-1.24,3.48-1.72,6.8.37C1026.25,212.5,1018.23,223.66,1029.23,232.72Z" transform="translate(-794.58 -162.89)"/><path class="cls-2" d="M1059.26,234.78c-3.6,2.8-4.33,7.63-6.72,11.5-1.88,3.32-4,7.78-8.27,7.64-1.78-.14-2.3-1.35-3-2.92-1.33-3.48-2.54-8.6-5.14-11.19a14.16,14.16,0,0,1-6.66-6.38,14.78,14.78,0,0,1-6-7.15,9.11,9.11,0,0,0-.27,3.14c1.21,3.14,5.17,9.24,12.57,16.24a7.66,7.66,0,0,1,0-2.76c1.65,4.11,2.15,10.13,5.48,12.5,4.62,3,12.33-1.57,17.11-4.58a2.7,2.7,0,0,1-.73,1.13c1.24.42,6.31-.38,7.83-.66,11.88-9,6.87-12.67-1.4-17.22A16.79,16.79,0,0,1,1059.26,234.78Z" transform="translate(-794.58 -162.89)"/><path class="cls-1" d="M1053,233.19a14.56,14.56,0,0,1-15.77,7,13.93,13.93,0,0,1,3.33,5.55c.69-2.41,3-5.27,6.71-4.1a6.88,6.88,0,0,1,6.84-1.56,15.8,15.8,0,0,1,4.17-5.32A14.85,14.85,0,0,1,1053,233.19Z" transform="translate(-794.58 -162.89)"/><path class="cls-2" d="M1044.66,247.79a10.45,10.45,0,0,1,2.14-5.67c-1.57-.59-5.26.81-5.7,5.6.66,2,1,5.57,4,5.41,1.76-.2,3-2,3.88-3.45a100.75,100.75,0,0,0,4.79-9C1051.75,240.16,1046.87,241.45,1044.66,247.79Z" transform="translate(-794.58 -162.89)"/><path class="cls-2" d="M1028.94,222c-.34.66.71,1.74,2.19,2.53s3,.86,3.4.21-.65-1.8-2.14-2.6S1029.29,221.33,1028.94,222Z" transform="translate(-794.58 -162.89)"/><path class="cls-1" d="M994.21,286.36c-10.53,0-19.18-10.11-19.32-22.64s8.39-22.94,19-23.06c0,0,.12,0,.17,0,10.53,0,19.18,10.12,19.31,22.65s-8.38,22.93-19,23.05Zm-.27-41.27c-8.17.09-14.72,8.43-14.61,18.58s6.84,18.48,15,18.26,14.71-8.43,14.6-18.58-6.77-18.26-14.88-18.26Zm.74,30.45c-4,0-7.16-5.18-7.24-12.1s2.95-12.21,7-12.26,7.22,5.17,7.29,12.11h0c.08,6.94-2.94,12.21-7,12.25Zm-.16-19.92h0c-.79,0-2.7,2.75-2.64,7.77s2,7.72,2.8,7.72h0c.79,0,2.69-2.74,2.64-7.78h0C997.28,258.31,995.32,255.62,994.52,255.62Z" transform="translate(-794.58 -162.89)"/><path class="cls-1" d="M993.91,242.88c-9.4.1-16.92,9.42-16.8,20.82s7.85,20.54,17.25,20.44,16.92-9.42,16.8-20.81S1003.31,242.78,993.91,242.88Zm5.64,20.43c.05,5.5-2.11,10-4.84,10s-5-4.41-5.05-9.91,2.11-10,4.84-10S999.49,257.81,999.55,263.31Z" transform="translate(-794.58 -162.89)"/><path class="cls-2" d="M994.21,285c-9.77,0-17.8-9.51-17.93-21.27s7.78-21.56,17.62-21.67h0c9.81-.12,18,9.44,18.09,21.28s-7.78,21.55-17.62,21.66Zm-.29-41.27c-8.93.1-16.09,9.06-16,20s7.41,19.62,16.27,19.63h.14c8.93-.1,16.09-9.06,16-20s-7.4-19.63-16.27-19.63Zm.77,30.45c-3.22,0-5.79-4.7-5.86-10.73s2.42-10.82,5.66-10.86h0c3.22,0,5.79,4.7,5.86,10.73s-2.42,10.82-5.66,10.86Zm-.17-19.93h0c-1.94,0-4.06,3.8-4,9.18s2.26,9.08,4.2,9.08h0c1.95,0,4.07-3.79,4-9.17S996.46,254.23,994.52,254.23Z" transform="translate(-794.58 -162.89)"/><path class="cls-1" d="M1071.62,256.81c-.06-.1-.11-.22-.18-.32a1.55,1.55,0,0,0-1.41-.62l-3.19.31a1.54,1.54,0,0,0-1.24.89l-1.76,3.73a3.71,3.71,0,0,0-2.76.58,6.25,6.25,0,0,0-1.82,2.05c-.09-.06-.15-.14-.25-.2a2.93,2.93,0,0,0-2.46-.36,3.26,3.26,0,0,0-1.15.62,1.84,1.84,0,0,0-.62,0l-1.94.36a1.54,1.54,0,0,0-.78.43h0l-2-.12a1.52,1.52,0,0,0-1.34.63l-.17.22a3.55,3.55,0,0,0-1.38-.21c-1.17.08-3.39.67-5.13,3.85-.83,1.51-2.57,5.28-.72,7.45a3.59,3.59,0,0,0,2.6,1.31,3.32,3.32,0,0,0,.55,0l-1.37,4a1.54,1.54,0,0,0,.35,1.57,1.52,1.52,0,0,0,1.54.41,91.38,91.38,0,0,0,24.28-10.81,1.55,1.55,0,0,0,.62-.86,8.94,8.94,0,0,0,.27-1.48,6.66,6.66,0,0,0,0-1.54,1.54,1.54,0,0,0-1-1.23,1.53,1.53,0,0,0-1,0,68.48,68.48,0,0,1,3.49-9.36c0-.07,0-.14.06-.2Z" transform="translate(-794.58 -162.89)"/><path class="cls-1" d="M1047.16,280.32a1.11,1.11,0,0,1-1.05-1.47l1.5-4.35a1,1,0,0,1,.18-.34,4.31,4.31,0,0,1-1.24.16,3.21,3.21,0,0,1-2.3-1.16c-1.67-2,0-5.53.77-7,1.63-3,3.69-3.54,4.77-3.61a3.09,3.09,0,0,1,1.52.31l.36-.51a1.1,1.1,0,0,1,1-.45l2,.13.19,0a1.13,1.13,0,0,1,.71-.45l1.93-.36a1.13,1.13,0,0,1,.66.07,3.1,3.1,0,0,1,1.16-.68,2.54,2.54,0,0,1,2.11.32,1.66,1.66,0,0,1,.56.52,6.22,6.22,0,0,1,2-2.38,3.31,3.31,0,0,1,2.78-.48l1.9-4a1.1,1.1,0,0,1,.89-.63l3.18-.32a1.12,1.12,0,0,1,1,.45,1.09,1.09,0,0,1,.12,1.1c-1.84,4.16-3.74,9.26-3.65,10.39l0,0c0-.06.15-.16.27-.26a1.12,1.12,0,0,1,1.11-.2,1.15,1.15,0,0,1,.71.87,6.45,6.45,0,0,1,0,1.44,8.93,8.93,0,0,1-.26,1.41,1.09,1.09,0,0,1-.44.61,91.6,91.6,0,0,1-24.16,10.76A1.06,1.06,0,0,1,1047.16,280.32Zm2.34-4.5-.59,1.7a97.51,97.51,0,0,0,17-7.18A91.38,91.38,0,0,1,1049.5,275.82Zm.18-2.58c-.2.14-.43.28-.67.42l1-.23A2.89,2.89,0,0,1,1049.68,273.24Zm.28-8.45h0c-.5,0-1.8.34-3,2.47s-1.44,4-1,4.46a.93.93,0,0,0,.71.38h.07a4.45,4.45,0,0,0,2.36-1.21,2.35,2.35,0,0,1-.92-.23h0a1.81,1.81,0,0,1-1.05-1.6,3.51,3.51,0,0,1,1.54-3,2.45,2.45,0,0,1,2.58-.07,1.11,1.11,0,0,1,.53,1.25c-.4,1.54-.78,2.77-1.64,3.33l.12,0a1.11,1.11,0,0,1,.71.83s.1,0,.25,0,.71-.56,1-1.12a1.12,1.12,0,0,1,.46-.5,1.1,1.1,0,0,1-.52-.6,6,6,0,0,1,.23-4,1.13,1.13,0,0,1-.61.27,1.17,1.17,0,0,1-.86-.27A1.7,1.7,0,0,0,1050,264.79Zm7.54,5.9-.35.67.85-.3-.11-.06A4.08,4.08,0,0,1,1057.5,270.69Zm-3.7-.82a1.25,1.25,0,0,1,.36.4l0,.11,1.13-.36,1.13-2.13a1.11,1.11,0,0,1,2.06.28c0,.19.31,1.11,1,1a3.67,3.67,0,0,0,.83-.3,1.77,1.77,0,0,1-.51-.43c-.66-.78-.39-1.95,0-3.43a7.49,7.49,0,0,0,.33-2.31.51.51,0,0,1-.18.07,2,2,0,0,0-.76.82,1.12,1.12,0,0,1-.93.63,1.06,1.06,0,0,1-1-.52l-.09-.13-.37.07c-.18,1.57-.7,4.54-2.07,5.72A2.27,2.27,0,0,1,1053.8,269.87Zm14.8-2.7a2.84,2.84,0,0,1,.08.34,2.7,2.7,0,0,1-.12,1.26l0,.08c.68-.41,1.19-.73,1.49-.93l0-.1a2.2,2.2,0,0,1-.36,0A2,2,0,0,1,1068.6,267.17Zm-5.25.58a3.25,3.25,0,0,0,1.05,0,3.54,3.54,0,0,0,1.9-1.14l.37-.35a1.13,1.13,0,0,1,1.39,0c-.32-1.35.68-4.77,3-10.17l-.68.06-2.08,4.43a1.13,1.13,0,0,1-.69.59,1.09,1.09,0,0,1-.9-.13,1.25,1.25,0,0,0-1.51-.06c-1.45,1-2.44,4.41-2.12,6.27a1.16,1.16,0,0,1,0,.32,1.13,1.13,0,0,1,.27.22S1063.34,267.75,1063.35,267.75Zm2.18-1.15a1.87,1.87,0,0,1-.73-.15,2.09,2.09,0,0,1-1.07-2.83c.49-1.48,1.93-2.75,3.5-2.29a1.09,1.09,0,0,1,.79,1.27c-.35,1.82-.62,3.21-1.64,3.77A1.71,1.71,0,0,1,1065.53,266.6Zm.06-2.22-.4,1,.41-1Z" transform="translate(-794.58 -162.89)"/><path class="cls-1" d="M1069.15,266c-.69-1.42,3.67-11.26,3.67-11.26l-3.19.32-2.35,5c-3.54-2.23-5.84,4.29-5.31,7.34-.85.66-1,.61-1.29.31-.7-.81,1.42-5,.16-5.81-1.62-1-2.67,1.2-2.67,1.2l-.48-.77-1.94.37s-.44,6.29-2.62,6.12c-.85-2.25,1.45-5.68,1.45-5.68l-2-.12-1,1.33a2.84,2.84,0,0,0-1.74-.69c-1.15.08-2.66.84-3.87,3.05s-1.83,4.61-.89,5.71c1.79,2.11,4.76-.77,4.76-.77s.1.85,1.3.89,2-1.78,2-1.78l.49.93,2.45-.77,1.34-2.53s.48,2.25,2.3,1.85a5,5,0,0,0,2.78-1.74s.49.55,2,.32a5.27,5.27,0,0,0,2.81-1.72,1.55,1.55,0,0,1,.21.58,1.39,1.39,0,0,1-.07.69s-9.94,4.73-18.85,6.47l-1.5,4.35a91.4,91.4,0,0,0,23.84-10.6,8,8,0,0,0,.22-1.22,5.3,5.3,0,0,0,0-1.16S1069.83,267.44,1069.15,266Zm-20.54,3.62c-1.13-.51.3-3.66,2.08-2.66C1050.1,269.27,1049.68,270.13,1048.61,269.65Zm16.58-4.23c-1.33-.51.15-3.48,1.74-3C1066.56,264.29,1066.28,265.83,1065.19,265.42Z" transform="translate(-794.58 -162.89)"/><path class="cls-2" d="M1047.16,279.57a.38.38,0,0,1-.26-.11.36.36,0,0,1-.08-.36l1.5-4.36a.37.37,0,0,1,.27-.24,88.2,88.2,0,0,0,16.46-5.4,3,3,0,0,1-.43.09,3.19,3.19,0,0,1-2-.19,5.42,5.42,0,0,1-2.78,1.61,1.94,1.94,0,0,1-1.52-.24,2.72,2.72,0,0,1-.91-1.08l-1,1.82a.34.34,0,0,1-.21.18l-2.46.77a.36.36,0,0,1-.42-.18l-.18-.33a2.51,2.51,0,0,1-2,1.37,1.73,1.73,0,0,1-1.42-.66,5.09,5.09,0,0,1-3.15,1.31,2.44,2.44,0,0,1-1.76-.9c-1.41-1.66.3-5.1.86-6.11,1.46-2.67,3.23-3.17,4.16-3.24a2.94,2.94,0,0,1,1.68.54l.76-1a.32.32,0,0,1,.31-.15l2,.12a.38.38,0,0,1,.3.2.36.36,0,0,1,0,.36s-2,3.05-1.49,5.1a.87.87,0,0,0,.36-.2c1.09-.94,1.56-4.34,1.64-5.57a.38.38,0,0,1,.3-.33l1.93-.36a.36.36,0,0,1,.37.16l.18.28a2.72,2.72,0,0,1,1.35-1.06,1.78,1.78,0,0,1,1.5.24c.94.56.56,2.17.19,3.73-.17.77-.45,1.93-.26,2.15l.09.09a1.87,1.87,0,0,0,.54-.33c-.31-2.4.87-6.24,2.78-7.52a2.62,2.62,0,0,1,2.76-.16l2.18-4.64a.38.38,0,0,1,.29-.2l3.19-.33a.37.37,0,0,1,.37.51c-2.11,4.76-4.06,10.16-3.68,11a.77.77,0,0,0,.49.47,1.56,1.56,0,0,0,1-.38.38.38,0,0,1,.37-.07.37.37,0,0,1,.23.28,6.35,6.35,0,0,1,0,1.25,7.39,7.39,0,0,1-.23,1.28.31.31,0,0,1-.15.2,92.19,92.19,0,0,1-23.94,10.66Zm1.77-4.4-1.2,3.5a92.48,92.48,0,0,0,23-10.29,7,7,0,0,0,.17-1,4.44,4.44,0,0,0,0-.5,1.63,1.63,0,0,1-1.06.19,1.45,1.45,0,0,1-1-.87h0c-.66-1.36,2.34-8.5,3.42-11l-2.37.24-2.27,4.81a.35.35,0,0,1-.22.19.36.36,0,0,1-.29,0,1.94,1.94,0,0,0-2.32-.05c-1.74,1.16-2.82,4.89-2.45,7a.36.36,0,0,1-.13.34c-.68.54-1.25.9-1.79.27s-.18-1.51.11-2.78.63-2.66.14-3a1.11,1.11,0,0,0-.93-.16,2.47,2.47,0,0,0-1.22,1.21.38.38,0,0,1-.3.2.36.36,0,0,1-.33-.17l-.36-.55-1.42.26c-.1,1-.53,4.63-1.87,5.79a1.44,1.44,0,0,1-1.11.39.36.36,0,0,1-.31-.23c-.71-1.87.54-4.4,1.16-5.48l-1.22-.08-.85,1.17a.37.37,0,0,1-.25.15.41.41,0,0,1-.28-.09,2.37,2.37,0,0,0-1.47-.6c-.78,0-2.29.49-3.58,2.86s-1.67,4.45-.94,5.31a1.74,1.74,0,0,0,1.25.64c1.43.08,3-1.42,3-1.44a.4.4,0,0,1,.38-.08.36.36,0,0,1,.23.3c0,.05.11.54,1,.57h0c.78,0,1.45-1.12,1.64-1.56a.42.42,0,0,1,.33-.21.35.35,0,0,1,.32.19l.35.66,2-.64,1.27-2.4a.34.34,0,0,1,.37-.19.35.35,0,0,1,.3.28c0,.08.43,1.91,1.87,1.58a4.75,4.75,0,0,0,2.57-1.6.39.39,0,0,1,.27-.15.37.37,0,0,1,.29.12h0s.43.4,1.71.2a4.2,4.2,0,0,0,2.31-1.34,3.85,3.85,0,0,1,.32-.3.38.38,0,0,1,.29-.08.42.42,0,0,1,.25.16,2.3,2.3,0,0,1,.26.72,1.78,1.78,0,0,1-.09.88.35.35,0,0,1-.18.2C1067.57,268.77,1057.73,273.41,1048.93,275.17Zm18.3-7.42a6.16,6.16,0,0,1-1.08.87l1.06-.48a1.18,1.18,0,0,0,0-.38Zm-18.11,2.39a1.51,1.51,0,0,1-.65-.16h0a1.06,1.06,0,0,1-.61-1,2.72,2.72,0,0,1,1.2-2.29,1.69,1.69,0,0,1,1.81,0,.36.36,0,0,1,.17.4c-.45,1.72-.79,2.64-1.45,2.95A1,1,0,0,1,1049.12,270.14Zm-.36-.82c.3.14.44.1.52.06.38-.18.7-1.12,1-2.18a1,1,0,0,0-.82.13,2,2,0,0,0-.87,1.63C1048.59,269.15,1048.65,269.27,1048.76,269.32Zm16.77-3.47a1.17,1.17,0,0,1-.47-.1h0c-.67-.25-.92-1-.62-1.9.37-1.12,1.46-2.13,2.59-1.81a.36.36,0,0,1,.25.42c-.31,1.62-.55,2.86-1.27,3.26A1,1,0,0,1,1065.53,265.85Zm1-3.14c-.62.06-1.18.77-1.37,1.37-.07.19-.24.84.19,1h0a.35.35,0,0,0,.34,0C1066.05,264.88,1066.28,263.81,1066.5,262.71Z" transform="translate(-794.58 -162.89)"/><path class="cls-1" d="M1003.65,236.59a1.58,1.58,0,0,0-1-.25c-.31-.35-1.27-.76-1.74-.08a79.92,79.92,0,0,1-3.66.12,2.52,2.52,0,0,0-1.17-.53,12.88,12.88,0,0,0-.55-5.36,10.64,10.64,0,0,0-.44-2,4.51,4.51,0,0,0,4.2-.39,6.94,6.94,0,0,0-1.06,2.17,1.14,1.14,0,0,0,.56,1.14c.69.29,1-.63,2-.55.44.3,1.37,2.37,2.93,1.64.31-.2.65-.48.59-.89a1.47,1.47,0,0,0-.88-1.11,3.23,3.23,0,0,1,.29-1.56c.93.58,1.32.17,1.47-.16a1.16,1.16,0,0,0-.13-1,2.26,2.26,0,0,0-2.22-.76c-.29-.09-.38-.41-.55-.63a3.71,3.71,0,0,0-3.08-1.54,47.36,47.36,0,0,1-11-2.18c1.31-.81,2.61-1.55,3.94-2.39,4-2.42,5.22-5,5.31-5.54a5.26,5.26,0,0,0,3-1.44c.85.06,1.75.18,2.57.25a15.81,15.81,0,0,0-2.41-.42,10.56,10.56,0,0,0,3.32-7.24,10.21,10.21,0,0,0-1.3-5.21,6.81,6.81,0,0,0-3.77-3.27,2.9,2.9,0,0,0-2.42.85c-1.68,1.6-3.06,3.45-4.77,5-.3.26-.58.49-.67.55a4,4,0,0,0-.85-.46c-.74-1.78-1.49-1.38-1.82-1.19a5,5,0,0,1,.44-1.35,3.35,3.35,0,0,0-.88,1.56,3.92,3.92,0,0,0-.36.33l-.08,0a3.69,3.69,0,0,1,0-1.48,19.31,19.31,0,0,0,4.14-3.7,32.77,32.77,0,0,1-7.79,4.45,7.34,7.34,0,0,0,3.09-3.35,19.09,19.09,0,0,1-5.12,3.72l0,0a7.24,7.24,0,0,1,.46-2.16,4.39,4.39,0,0,0-.78,2,.88.88,0,0,0-.75,0,6.79,6.79,0,0,1,.17-1.89,3.7,3.7,0,0,0-.47,2,2.12,2.12,0,0,0-.76.91c-.5-.62-.82-1-1.22-1.57-1.26-1.62-2.34-3.54-4.29-4.45a2.61,2.61,0,0,0-2.34,0,9.63,9.63,0,0,0-3.94,4.1,9.1,9.1,0,0,0-.45,7,9.82,9.82,0,0,0,2.35,3.74,37.28,37.28,0,0,0-4.77.92,39.71,39.71,0,0,1,5-.74,8.8,8.8,0,0,0,2.1,1.34c-.07,2.72,1.93,4.62,3.95,6.24a36.83,36.83,0,0,0,6,3.56c.19.19.36.41.51.56a6.26,6.26,0,0,0-6.82,2.12,4.28,4.28,0,0,0-1.05-2.14,1.07,1.07,0,0,0-.95-.27,1.14,1.14,0,0,0-.71.62,2.15,2.15,0,0,0,.48,2.12.82.82,0,0,1-.17.35c-.71-.06-1.33-1.27-1.84-1.22a1,1,0,0,0-.93.69,1.13,1.13,0,0,0,.14,1.11c.36.47.93.54,1.33.92a2.29,2.29,0,0,1-.51.52c-.36.29-.86.28-1.11.71a1,1,0,0,0,.7,1.29,1.82,1.82,0,0,0,1.73-.81,1.78,1.78,0,0,0,2.11.52,3,3,0,0,0,1.19.24,2.38,2.38,0,0,0,2.57.5c.54-.25,1.23-1.52.35-2.13,1.15,0,2.27-.78,4.34-.69a9,9,0,0,1,1.39.25c.44,1.2,1.8,1.9,2.58,2.88.17,2.51-1.94,4.32-3.62,5.89a8.28,8.28,0,0,0-2.69,4.63,7.72,7.72,0,0,1-3.54,1.47,4.32,4.32,0,0,1-3.16-.58,1.71,1.71,0,0,1-.7-1.8c.5-2,2.21-3.52,2.76-5.48a2.37,2.37,0,0,0-.38-2.21,3.18,3.18,0,0,0-2.67-.91,9.79,9.79,0,0,0-4.65,1.8,10.29,10.29,0,0,1,4.69-1.06c.69.11,1.62.32,1.79,1,.18,1.06-.61,1.73-1.07,2.69-1.05,1.87-2.58,3.91-2,6a2.9,2.9,0,0,0,1.56,1.77,8.15,8.15,0,0,0,7.66-.85,4.7,4.7,0,0,0,2.46,1.92,8.11,8.11,0,0,0,4,.32,19.52,19.52,0,0,0,3.3-.89c.38,0,.75.07,1.1.12,2.74.51,5.63,1.45,8.47.76a2.71,2.71,0,0,0,1.63-1.18,1.7,1.7,0,0,0,1.78-.1,4.49,4.49,0,0,0,1.69-3.36A5.19,5.19,0,0,0,1003.65,236.59Zm-16.53-34a5.65,5.65,0,0,0-2.09-.25,10.46,10.46,0,0,0,2.21-1.06A3.57,3.57,0,0,0,987.12,202.57Z" transform="translate(-794.58 -162.89)"/><path class="cls-2" d="M968.71,200.55a2.34,2.34,0,0,1,2.44-.75c2.47.64,4.29,3,5,5.31a3.82,3.82,0,0,1-.16,2.63.7.7,0,0,1-.76.33,3.73,3.73,0,0,1-2.48-1.8c-.83,1.91,1.3,3.2,2.22,3.13a5.21,5.21,0,0,1-.67,1,26.17,26.17,0,0,0-4.67-.29c1.52.15,3,.24,4.52.51l-.3.27a5,5,0,0,0-1.31,1,18.44,18.44,0,0,0-2.42.09,8.07,8.07,0,0,1-2-3,9.88,9.88,0,0,1-.41-6.17A11.88,11.88,0,0,1,968.71,200.55Z" transform="translate(-794.58 -162.89)"/><path class="cls-2" d="M971.16,229.23a2.37,2.37,0,0,0,.93-.9,1.6,1.6,0,0,1,.26.27.26.26,0,0,0,0-.29c-.46-.64-1.45-.78-1.58-1.66s.44-1.07.63-.93c.43.28.66.74,1.11.92a1.43,1.43,0,0,0,.57.16,1.87,1.87,0,0,1-.26.3.84.84,0,0,0,.78-.52c.25.22.46.46.71.7-.42-.91-1.6-1.69-1.06-2.85a.72.72,0,0,1,.7-.44c.59.14.73.79.91,1.25.28.73.44,1.83,1.15,2.39a3.38,3.38,0,0,1,.92,1.16,4,4,0,0,1-.57-.23,1.81,1.81,0,0,0,1.59.72c.65,0,1.34.45.75,1.14a2.43,2.43,0,0,1-3.1-.54.64.64,0,0,0,.17.42,3.12,3.12,0,0,1-1.73-.7,1.42,1.42,0,0,0,.45.6,2.51,2.51,0,0,1-2-.58.4.4,0,0,0,.07.16,1.81,1.81,0,0,1-1.46.52c-.3-.07-.69-.29-.67-.62S970.94,229.37,971.16,229.23Z" transform="translate(-794.58 -162.89)"/><path class="cls-2" d="M970.92,198a2.42,2.42,0,0,1,1.66-.68c1.46.17,2.59,1.37,3.55,2.37a35.29,35.29,0,0,0,3.35,3.66,3.85,3.85,0,0,0-.07,1.94,3.44,3.44,0,0,1,1-2.33,6.66,6.66,0,0,0,.5,1.43,2.78,2.78,0,0,0-.75,1.09c-1,2.38,1,6.38,1.13,6.69l-.32.11c-.27-1.31-1.65-2.86-4.45-2,3.45-.47,4.11,1.7,4,2.45a16.32,16.32,0,0,0-5.36-2.12,1.81,1.81,0,0,1,.39-.22,2.3,2.3,0,0,0-.66.14l-.22,0a2.6,2.6,0,0,0,.58-1.39.64.64,0,0,0-.21.22,2.72,2.72,0,0,1-2.18-2.31,2.85,2.85,0,0,0,2.31,1.39,1.15,1.15,0,0,0,1.14-.83,4.86,4.86,0,0,0-.21-3.61,8.71,8.71,0,0,0-3.25-3.89,3.79,3.79,0,0,0-3.56-.32A7.55,7.55,0,0,1,970.92,198Z" transform="translate(-794.58 -162.89)"/><path class="cls-2" d="M972.38,212.17a2.56,2.56,0,0,0-.42,1.1,5.43,5.43,0,0,1-1.62-1.1C971,212.14,971.73,212.14,972.38,212.17Z" transform="translate(-794.58 -162.89)"/><path class="cls-2" d="M974,237.69a8.94,8.94,0,0,0,1.38-2.65,1.53,1.53,0,0,0-.58-1.58,3.59,3.59,0,0,0-2.63-.52c1.14-.32,2.71-.31,3.52.81a1.92,1.92,0,0,1,.18,1.6c-.57,2-2.21,3.62-2.58,5.71a2.21,2.21,0,0,0,.6,2.13c1.66,1.27,4.13.85,5.79-.08.4-.25.82-.58,1.21-.83a2.67,2.67,0,0,0,.16,1.36,10.51,10.51,0,0,1-5.65,1.25c-1.14-.17-2.47-.49-3-1.64a3.84,3.84,0,0,1,.26-3A27.75,27.75,0,0,1,974,237.69Z" transform="translate(-794.58 -162.89)"/><path class="cls-2" d="M973.05,212.18a23,23,0,0,1,7.33,1.26c-.93,2.16-3.67,1.17-5.27-.18a2.73,2.73,0,0,0,.53.68c-.78.14-3.21.8-.85,4.05C971.53,215.08,972.65,212.73,973.05,212.18Z" transform="translate(-794.58 -162.89)"/><path class="cls-2" d="M974.94,210.71a19.16,19.16,0,0,1,5.58,2.11,1.37,1.37,0,0,1-.07.47,19.86,19.86,0,0,0-7.23-1.43A6.14,6.14,0,0,1,974.94,210.71Z" transform="translate(-794.58 -162.89)"/><path class="cls-2" d="M975.7,214c.71.5,2.29,1.43,3.56,1,1,.66,2,5,3.13,7.16,1.71,2.94,3.84.9,4.67-1.28a24.83,24.83,0,0,1,2.94-6,7.31,7.31,0,0,0,3.16-.65c1.17,0,2.92,1,1.51,3.05a17,17,0,0,1-1.6,1.58,45.47,45.47,0,0,1-6,4.21c.45-.49.86-.88,1.31-1.37-1.32.77-2.3,2.13-3.8,2.58-.9.19-1.61-.51-2.3-1a16.26,16.26,0,0,0-1.34-1.17,9,9,0,0,0,.61.81,29.53,29.53,0,0,1-4.34-2.75C972.28,216,974.15,214.32,975.7,214Z" transform="translate(-794.58 -162.89)"/><path class="cls-2" d="M982.47,223.94c1.82,1.58,3,.64,4.16-.39.47-.29.94-.57,1.48-.87a41.73,41.73,0,0,0,9.28,2.39l3,.25c.92.16,1.42,1,2,1.67.53.38,1.27.18,1.82.44a1.4,1.4,0,0,1,.77.88c.1.35-.3,1.06-1.11.41,0-.39-.13-.44-.25-.31a2.44,2.44,0,0,0-.29,2,6.51,6.51,0,0,1-1.1-.79c.21.6.87,1,1.38,1.38.81.67.07,1.14-.35,1.08-1.21-.1-1.83-1.41-3-1.75h0a2.55,2.55,0,0,0,.38.32,2,2,0,0,0-1.44.35c-.14.09-.81.09-.57-.64a19.83,19.83,0,0,0,1.1-2.76.7.7,0,0,0-.07-.59,2.76,2.76,0,0,1-.18.64,6.53,6.53,0,0,1-4.41.64c-1.52-3.32-4.44-4.57-6.37-4.42a11.24,11.24,0,0,1,1.65.45c-.18.13-.38.69.41,1.57a4.16,4.16,0,0,0-2.52-.67,1,1,0,0,0-.78.91c-.26,1.92,1.64,3.09,2.83,4.22,1.52,2.21-1,5.33-1.08,6a2,2,0,0,0-1.12-.6,4.33,4.33,0,0,1,1.59,1.84,10.21,10.21,0,0,1-2.92,0c.84.87,4.3,0,6.32-.08a7.45,7.45,0,0,1,4.5,1.59,2.77,2.77,0,0,1,.29.25,11,11,0,0,1,.36,1.51,6.58,6.58,0,0,0,0-1.47,11.24,11.24,0,0,1,2.18,4.07c.23.66.2,1.45.75,1.95a10.91,10.91,0,0,1-4.83.15,22.32,22.32,0,0,0-6.82-.46l1,.06c-2.23.68-4.83,1.07-7,.14a2.94,2.94,0,0,1-1.84-2.49,5.9,5.9,0,0,1,1.08-3.19c1.68-2.63,4.84-4.65,4.66-8.06a7,7,0,0,0,.7.76c-.68-1.42-2-2.43-3-3.71.35.08.72.05,1,.14a9,9,0,0,0-7.56.1c-.44-.12-.87.08-1.32,0-.31-.9-1.28-1.48-1.48-2.44C977.42,223.81,981.42,223.9,982.47,223.94Z" transform="translate(-794.58 -162.89)"/><path class="cls-1" d="M980.05,214.69c1,2.77,3.4,3,4.16,2,1.3,1.78,4.2-.2,4.91-2.08a3.56,3.56,0,0,0,.78.26c-.89.59-2.27,3.62-2.94,5.36,0,0-.57-2-2.23-1.22a1.86,1.86,0,0,0-3,.66,11.21,11.21,0,0,0-2.32-4.71A2.69,2.69,0,0,0,980.05,214.69Z" transform="translate(-794.58 -162.89)"/><path class="cls-2" d="M980.87,213.63c.11,0,.63.26.79.31a6.61,6.61,0,0,0-.74-.45,1.59,1.59,0,0,0,.06-.36,4.08,4.08,0,0,1,.42.21,3.06,3.06,0,0,0-.41-.4,3.34,3.34,0,0,0,0-.5,5.23,5.23,0,0,1,2.21-.11,1,1,0,0,0-.4,1.77c.66.42,1.71.58,1.68,1,0-.39,1.88-.79,1.91-1.64a.94.94,0,0,0-.69-.92,3.9,3.9,0,0,1,2.31.14,1.47,1.47,0,0,0,0,.51c-.38.2-.78.41-1.06.59l1.09-.42a1.72,1.72,0,0,0,.25.45c-.36.13-.69.21-1,.34l1.16-.18a2.17,2.17,0,0,0,.57.56c-.87,1.8-3.23,3.44-4.71,2-1.26,1-3.54-.24-4-2A2.54,2.54,0,0,0,980.87,213.63Z" transform="translate(-794.58 -162.89)"/><path class="cls-2" d="M980.67,205.12a1,1,0,0,1,1.13-.28,2.6,2.6,0,0,1,1.47,1.86,9,9,0,0,1,0,3.91c.15-2.6-2.84-3-1.15,1.35a3.68,3.68,0,0,0-.72.1C980.2,209.64,979.82,206.09,980.67,205.12Z" transform="translate(-794.58 -162.89)"/><path class="cls-2" d="M981.3,202.66a7.85,7.85,0,0,0,.18,1.37,1.28,1.28,0,0,0-.5.24,5,5,0,0,1-.33-1.49A.81.81,0,0,1,981.3,202.66Z" transform="translate(-794.58 -162.89)"/><path class="cls-2" d="M981.05,204.52a1.07,1.07,0,0,1,.45-.41c0,.11.09.31.15.49a1.14,1.14,0,0,0-.55,0Z" transform="translate(-794.58 -162.89)"/><path class="cls-2" d="M985.41,220.14a2.77,2.77,0,0,0-.52-1c1.71-.41,1.84,1.67,1.84,1.67-.46,1-1.19,2.4-2.43,2.49s-2.37-2.95-2.47-3.34C983,217.91,984.71,219.18,985.41,220.14Z" transform="translate(-794.58 -162.89)"/><path class="cls-2" d="M981.65,202.72a1.61,1.61,0,0,1,.67.44,1.48,1.48,0,0,0-.49-.78,11.48,11.48,0,0,0,3.39-2,9.44,9.44,0,0,1-2.13,1.81,14.54,14.54,0,0,0,4.94-2,13.14,13.14,0,0,1-3.9,2.24,3.45,3.45,0,0,0-1.26.5,14.11,14.11,0,0,1,4.26-.15c0,.05,0,.14,0,.23a1.93,1.93,0,0,0-.43,1,2.36,2.36,0,0,1,.54-.64,4.22,4.22,0,0,0,.92,1.38,2.33,2.33,0,0,0-1.78.76,6.61,6.61,0,0,0-1.18,3.73,10.76,10.76,0,0,0,.29,3.06l-.2.1a2.91,2.91,0,0,0-1.57-.17,2,2,0,0,0-.64-.22,9.64,9.64,0,0,0,.45-5.37,2.74,2.74,0,0,0-1.76-2A4.54,4.54,0,0,1,981.65,202.72Z" transform="translate(-794.58 -162.89)"/><path class="cls-2" d="M986.31,206.18A2.31,2.31,0,0,1,988,205a1.14,1.14,0,0,1,.87.25c.92,1.12-.18,5.09-1.25,7.17a3.06,3.06,0,0,0-1.22-.25c1.66-2.41,0-4.92-.9-2.25A8,8,0,0,1,986.31,206.18Z" transform="translate(-794.58 -162.89)"/><path class="cls-1" d="M987.06,213.73" transform="translate(-794.58 -162.89)"/><path class="cls-2" d="M988.07,225.41c1-.33,2.46.63,3.61,1.13-.85-.63-1.64-1.81-1.12-2.19a7.35,7.35,0,0,1,3.8,3.39,12.54,12.54,0,0,1,1.08,4.3,2.47,2.47,0,0,0,.07-.92,18.28,18.28,0,0,1,0,6.35,6.81,6.81,0,0,0-4.32-.17c-.44.1-.86.22-1.32.28a2.68,2.68,0,0,0-.51-1.11c.4-1.26,2.54-3.35,1.35-5.77.33.29.6.54.94.86-1.07-2-4.24-2.91-3.94-5.57A.65.65,0,0,1,988.07,225.41Z" transform="translate(-794.58 -162.89)"/><path class="cls-2" d="M989.62,206.84a2.75,2.75,0,0,0-1.46-2.75,3.79,3.79,0,0,1,0-1.3c.4-.29,1.45-.36,2.1,2a3.41,3.41,0,0,0-.06-1.14,2.22,2.22,0,0,1,.66.24,2.12,2.12,0,0,0-.35.33c1.12-.28,3.47-2.53,4.5-3.67s2-2.58,3.59-2.77c1.21-.09,2.75,1.43,3.56,2.69a7.66,7.66,0,0,1,.43.86,3.15,3.15,0,0,0-2.37-1.2c-2.47,0-4.54,2-5.47,4.33a5.3,5.3,0,0,0-.38,3.09c.26,1,1.21,1.75,3.31.92-.35.85-1.89,1.09-2.75.86a.9.9,0,0,0,.3.21,4.18,4.18,0,0,0,.28,1.28l-.22,0a3.54,3.54,0,0,0-1.62-.12,5.12,5.12,0,0,1,1,.23,50,50,0,0,0-6.19,2c-.1-.86,1-1.84,1.83-2.18a2.82,2.82,0,0,0-2.33,1.82,1.88,1.88,0,0,0-.24-.14A15.25,15.25,0,0,0,989.62,206.84Z" transform="translate(-794.58 -162.89)"/><path class="cls-2" d="M987.82,202.93a4.73,4.73,0,0,0,.37,1.68,4,4,0,0,1-.64-1.46A2.61,2.61,0,0,1,987.82,202.93Z" transform="translate(-794.58 -162.89)"/><path class="cls-2" d="M988.53,213.18a38.9,38.9,0,0,1,6.58-2,3.8,3.8,0,0,1,1.6,1.61,27.39,27.39,0,0,0-7.91.92A1,1,0,0,1,988.53,213.18Z" transform="translate(-794.58 -162.89)"/><path class="cls-2" d="M988.17,204.13a1.61,1.61,0,0,1,.52.74.74.74,0,0,0-.31-.1A3.69,3.69,0,0,1,988.17,204.13Z" transform="translate(-794.58 -162.89)"/><path class="cls-2" d="M989,213.88a30.46,30.46,0,0,1,7.86-.78c.27,1.16-.5,2.82-1.81,4,.46-.72.9-2.72-1.59-3a2.36,2.36,0,0,0,.84-.78C992.78,214.18,990,215,989,213.88Z" transform="translate(-794.58 -162.89)"/><path class="cls-1" d="M994.52,213.24" transform="translate(-794.58 -162.89)"/><path class="cls-1" d="M994.61,213.2" transform="translate(-794.58 -162.89)"/><path class="cls-2" d="M996.07,236.22a3,3,0,0,1,1.12.29c-.56.87.4,2.22.64,2.7a7,7,0,0,0-2.17-1.67A6.82,6.82,0,0,0,996.07,236.22Z" transform="translate(-794.58 -162.89)"/><path class="cls-2" d="M995.33,204.16c1.09-1.95,3-4,5.36-3.72a2.81,2.81,0,0,1,2.26,1.89,9.7,9.7,0,0,1,.31,3.67,10.83,10.83,0,0,1-2.47,6.06,9,9,0,0,1-.91.95c-1.17-.12-1.66-.16-2.49-.19a3.85,3.85,0,0,0-1.39-1.71l-.08-.12c1.35-.25,2.92-.45,4.26-.62a23.6,23.6,0,0,0-4.39.39,3,3,0,0,1-.45-1.22c2.13.37,2.67-.8,2.67-1.67-1.19,1.25-3.41.67-3.52-.53A5.85,5.85,0,0,1,995.33,204.16Z" transform="translate(-794.58 -162.89)"/><path class="cls-2" d="M1000.19,237.57a2.69,2.69,0,0,0-.8-1.1,1,1,0,0,1,1.23.19,8.12,8.12,0,0,1,1.93,6.37,4.35,4.35,0,0,1-.66,2,1.06,1.06,0,0,1-.53.38,1.58,1.58,0,0,1-.57-1,14.84,14.84,0,0,0-1.85-4.63c-.45-.83-1.25-1.51-1.42-2.49C997.41,236.69,998.23,235.58,1000.19,237.57Z" transform="translate(-794.58 -162.89)"/><path class="cls-2" d="M997.47,213.11c.7,0,1.49,0,2.21.11a5.74,5.74,0,0,1-2.19,1.29A3.79,3.79,0,0,0,997.47,213.11Z" transform="translate(-794.58 -162.89)"/><path class="cls-2" d="M1003.27,237.74a2.56,2.56,0,0,0-.41-1.15,2.94,2.94,0,0,1,1.77,1.84,6.78,6.78,0,0,1,0,5.25c-.53,1.27-2.06,1.56-2.35,1.15,1.29-2.16.77-5.33-.34-7.42a3.2,3.2,0,0,0-.77-1C1001.83,235.78,1003,237,1003.27,237.74Z" transform="translate(-794.58 -162.89)"/><path class="cls-1" d="M1003.1,213.51" transform="translate(-794.58 -162.89)"/><path class="cls-2" d="M985.44,213.18c0,.21-.52.46-1.08.46s-1-.27-1-.49.49-.39,1-.39S985.44,213,985.44,213.18Z" transform="translate(-794.58 -162.89)"/><path class="cls-2" d="M882.6,239.33c-3.27,0-6.22,1.25-15.39,7.78v35.14c15.86-17.73,20.36-29.86,20.36-36.07C887.57,241.82,885.55,239.33,882.6,239.33Z" transform="translate(-794.58 -162.89)"/><path class="cls-2" d="M883.84,216c0-6.22-7.15-11.35-16.63-12v32.5C879.18,229.54,883.84,222.54,883.84,216Z" transform="translate(-794.58 -162.89)"/><path class="cls-2" d="M912,202.22c-.16-.62-.31-.85-.62-.93l-11.2-2.95L898.62,192c-.07-.31-.15-.54-.46-.62l-11.51-3.11-1.4-6.07a.86.86,0,0,0-.62-.78l-29.9-5.54a4.09,4.09,0,0,0-1.48,0l-29.9,5.54a.86.86,0,0,0-.62.78l-1.4,6.07-11.51,3.11c-.31.08-.39.31-.46.62l-1.56,6.38-11.2,2.95c-.31.08-.46.31-.62.93a80.44,80.44,0,0,0-1.4,15.09c0,44.79,23.33,83.67,58.16,106.84a3.11,3.11,0,0,0,1.25.62,3,3,0,0,0,1.24-.62c34.84-23.17,58.17-62,58.17-106.84A80.44,80.44,0,0,0,912,202.22ZM849.64,303.55c0,.31-.32.47-.63.15-8.55-9.79-14.3-21.76-18.19-34.82l-5.91,3.73c-1.55,1.09-2.79.62-3.73-1.09-7.93-14-13.06-37-13.52-53.18a2.8,2.8,0,0,1,.77-2,75.73,75.73,0,0,1,6.84-7.15c.47-.47.94-.15.94.62,0,19.9,3.42,38.41,8.86,50.53.47.94.93.94,1.55.47l1.71-1.09c-3.26-14.46-5.13-33.74-4.66-56,0-.78.16-1.09.62-1.4a54.24,54.24,0,0,1,7.47-3.89c.77-.31.93-.15.93.47-.47,32.34,2.18,54.73,7.93,72.61.15.47.62.31.62-.16-.31-6.53-.31-12.28-.31-19.28l-.31-55.81c0-.63.15-.94.78-1.09a60.58,60.58,0,0,1,7.77-1.4.41.41,0,0,1,.47.46Zm9.33.15c-.32.32-.63.16-.63-.15V194.24a.41.41,0,0,1,.47-.46c20.83,1.4,34.21,10.1,34.21,22.7a21.15,21.15,0,0,1-5.45,14.15c6.85,1.86,9.49,7,9.49,13.84C897.06,256.59,888.2,276.65,859,303.7Z" transform="translate(-794.58 -162.89)"/></svg>