<svg enable-background="new 0 0 90.7 90.7" viewBox="0 0 90.7 90.7" xmlns="http://www.w3.org/2000/svg" xmlns:xlink="http://www.w3.org/1999/xlink"><linearGradient id="a" gradientTransform="matrix(1 0 0 -1 0 91.5986)" gradientUnits="userSpaceOnUse" x1="11.1535" x2="97.8298" y1="12.0435" y2="98.7198"><stop offset=".0011048" stop-color="#fbe18a"/><stop offset=".2094" stop-color="#fcbb45"/><stop offset=".3765" stop-color="#f75274"/><stop offset=".5238" stop-color="#d53692"/><stop offset=".7394" stop-color="#8f39ce"/><stop offset="1" stop-color="#5b4fe9"/></linearGradient><circle cx="45.4" cy="45.4" fill="url(#a)" r="40.1"/><g fill="#fff"><circle cx="59.6" cy="31.4" r="3.1"/><path d="m45.7 32.3c-7.2 0-13.1 5.9-13.1 13.1s5.9 13.1 13.1 13.1 13.1-5.9 13.1-13.1-5.8-13.1-13.1-13.1zm0 21.5c-4.6 0-8.4-3.8-8.4-8.4s3.8-8.4 8.4-8.4 8.4 3.8 8.4 8.4-3.7 8.4-8.4 8.4z"/><path d="m56.1 72h-21.2c-8.8 0-16-7.2-16-16v-21.2c0-8.8 7.2-16 16-16h21.2c8.8 0 16 7.2 16 16v21.2c0 8.8-7.2 16-16 16zm-21.2-48.2c-6 0-11 4.9-11 11v21.2c0 6 4.9 11 11 11h21.2c6 0 11-4.9 11-11v-21.2c0-6-4.9-11-11-11z"/></g></svg>