<svg width="255" height="199" viewBox="0 0 255 199" fill="none" xmlns="http://www.w3.org/2000/svg">
<path d="M1.2155 102.243C8.70812 95.4405 19.0945 93.3972 29.1191 95.1301C41.8824 97.4838 52.7854 104.829 62.5775 113.882C68.1841 118.977 74.3849 123.633 81.3866 125.753C93.8657 123.167 100.661 126.038 116.318 122.339C128.668 119.262 142.413 108.011 149.234 106.562C150.577 103.795 152.851 101.027 155.047 98.6994C153.212 96.1389 150.19 87.0346 145.642 85.7414C145.771 85.5086 147.942 86.1294 149.053 86.1552C146.908 84.5775 143.42 83.3102 140.578 82.8187C141.483 81.4221 144.17 79.5857 149.983 80.1288C148.071 78.5511 145.771 77.2062 143.42 76.5854C148.743 74.3611 152.231 78.9908 161.093 82.3014C159.129 67.5588 176.775 63.9895 163.237 46.3501C175.277 48.1864 184.578 59.9805 188.195 65.4896C189.823 62.5152 191.218 60.4978 191.761 59.1529C190.676 56.7992 189.255 54.3939 188.04 52.1178C189.952 52.5833 191.761 53.9024 193.569 54.756C193.931 53.1782 195.455 49.8935 194.551 47.1518C193.001 43.8153 187.472 39.6253 184.346 34.9956C181.839 31.297 182.124 28.0381 182.33 26.1242C183.028 21.9083 186.748 12.7523 191.89 12.6489C193.853 10.0107 195.92 8.66575 198.194 8.8468C200.364 9.02785 201.63 10.6832 201.656 12.5713C202.354 12.3902 204.602 12.8558 205.092 15.2612C205.79 18.8304 204.162 21.8307 204.421 25.7879C206.668 27.2881 208.348 31.116 206.823 34.737C210.931 38.1769 212.482 40.5047 212.094 43.4532C211.577 47.1518 207.444 50.6435 206.333 52.5834C204.55 55.7129 204.214 58.377 202.87 62.748C202.948 62.8256 203.103 63.0067 203.206 63.1101C204.421 62.179 205.661 61.0927 206.927 60.084C214.445 53.0748 225.607 43.8671 225.322 38.0993C225.426 35.7974 223.411 33.8317 221.421 32.9523C219.768 32.2281 217.261 32.4609 215.324 31.3488C213.644 30.34 213.799 28.8399 213.929 27.9605C214.316 25.6327 217.572 22.8135 222.506 23.874C220.078 18.5718 218.579 12.6747 221.912 7.7605C224.961 3.0532 229.405 0.673682 232.686 0.104667C235.967 -0.464348 237.182 1.6048 236.949 3.64808C236.536 7.13976 232.428 10.2176 231.859 12.6747C234.598 11.097 237.982 10.6832 240.153 11.2263C248.911 5.87241 254.234 9.80378 254.001 12.0281C253.536 15.5198 249.557 16.6061 247.077 18.3907C246.612 18.7787 242.866 21.3134 242.84 24.2102C242.762 28.3485 246.896 31.8919 244.855 38.2287C243.305 43.117 239.481 43.8412 234.391 49.0917C229.12 54.8335 216.538 70.1711 210.079 77.1544C210.156 77.4648 210.208 77.7235 210.311 78.0338C211.965 78.8356 215.634 82.2756 217.236 84.7327C214.91 83.1291 211.784 81.2151 210.776 80.6979C210.802 80.9048 210.828 81.2927 210.854 81.5255C214.91 85.0172 219.768 91.7936 220 95.5957C218.837 94.199 213.774 86.6208 210.751 84.474C210.725 84.681 210.647 85.0689 210.596 85.4052C213.153 89.5176 214.859 93.9145 215.66 98.7511C216.822 99.7857 216.461 101.544 216.125 102.812C216.745 103.769 217.158 105.321 216.641 106.381C216.383 105.916 215.995 104.596 214.419 104.648C214.213 105.89 212.611 110.985 206.617 116.934C209.691 116.83 211.81 118.201 212.818 120.555C215.195 120.141 218.14 119.339 220.129 116.96C222.067 114.658 222.248 111.399 220.362 109.562C221.731 110.183 222.739 112.252 221.912 114.839C221.008 117.658 218.553 120.193 212.921 121.072C212.921 121.15 213.102 122.003 212.818 122.546C212.637 122.469 212.482 122.262 212.249 122.314C212.353 123.115 212.353 123.995 211.887 124.719C215.324 125.857 222.429 126.193 228.371 124.926C231.394 124.279 233.874 123.115 235.657 121.667C240.024 118.072 237.492 111.632 233.254 107.959C236.846 109.304 241.16 117.865 236.148 122.029C230.593 126.504 220.801 127.512 211.526 125.21C211.293 125.495 210.931 125.909 210.492 125.857C210.311 125.676 210.337 125.417 210.389 124.9C210.337 124.9 210.286 124.874 210.234 124.874C206.281 130.668 196.928 131.159 191.735 129.995C187.575 130.461 181.736 131.133 174.554 125.34C173.908 125.081 172.977 124.9 172.512 124.874C170.394 127.693 167.345 141.557 157.32 147.997C147.554 154.282 132.879 152.652 129.934 153.299C129.804 153.402 129.675 153.506 129.469 153.661C133.68 153.428 137.039 153.713 138.744 157.075C138.201 156.946 137.633 156.713 137.013 156.558C140.656 159.274 139.286 163.438 138.46 163.903C138.253 162.998 137.814 161.808 137.271 161.084C134.61 169.154 124.017 171.844 121.097 175.025C123.991 174.844 135.204 175.956 140.604 180.948C146.185 182.862 149.621 186.664 149.621 190.725C149.621 194.32 146.004 197.579 142.051 196.854C139.752 198.872 133.99 200.579 130.037 196.311C124.069 196.622 121.382 193.182 121.02 192.613C114.147 191.526 106.862 192.871 100.015 193.311C95.4676 193.621 90.3519 189.483 95.39 183.56C99.7048 178.698 107.662 172.775 110.66 168.274C108.36 167.886 105.26 168.119 102.96 167.938C95.235 170.576 88.285 170.344 82.9885 168.895C75.1858 167.111 67.874 164.731 59.2704 165.015C50.3309 165.197 44.2335 169.335 36.8442 168.016C30.4626 166.878 27.6206 161.032 28.1631 158.679C28.6023 158.937 29.1966 160.024 29.5841 160.463C28.4732 157.179 29.6358 155.291 30.4367 153.558C29.5066 153.79 28.4215 154.101 27.4139 154.23C25.657 156.791 22.1173 158.989 17.8026 158.446C13.9788 157.955 11.1368 155.316 10.7234 151.902C8.11389 150.169 6.58952 148.411 6.04695 145.54C5.42687 142.333 6.53785 140.289 8.21724 139.074C6.69287 134.47 9.87078 129.788 13.4362 128.34C16.2266 127.228 19.7921 128.133 20.4896 132.116C36.7926 122.546 48.0315 124.021 52.3979 125.055C53.0955 125.236 57.6427 126.529 56.7643 132.013C56.5834 134.108 52.372 139.462 51.5194 143.574C54.6198 141.479 63.3526 134.03 66.4789 132.09C54.1031 125.728 53.483 117.425 41.5207 109.381C31.2893 102.527 15.9682 98.777 2.01644 104.571C0.621265 105.191 -1.26482 105.062 1.2155 102.243Z" fill="black"/>
</svg>
