<svg width="86" height="73" viewBox="0 0 86 73" fill="none" xmlns="http://www.w3.org/2000/svg">
<path d="M7.30001 16.4482C12.4382 15.2898 19.797 18.7648 24.7544 19.64C24.961 18.7905 25.7873 16.7571 26.252 15.8819C26.0196 15.3671 24.5995 13.2563 22.8954 11.9951C20.5974 9.96156 18.067 9.6012 19.9261 7.79936C21.2171 6.4866 24.8319 6.2292 29.1697 7.439C29.3504 6.58956 29.4795 6.15197 29.5312 5.50846C29.8152 6.07475 29.8668 6.89845 29.8668 7.64492C30.3574 7.79936 30.8222 7.92807 31.3644 8.15973C33.3526 4.96791 36.6317 1.26128 39.9625 0C38.1035 1.2098 34.876 5.09661 33.0685 8.88046C34.1272 9.39527 34.9018 9.8586 35.7538 10.4249C38.0777 9.6012 40.6339 8.82898 43.1642 9.11213C42.7511 8.72602 42.3896 8.36566 42.1314 8.13399C42.9835 8.15973 43.6032 8.82898 44.0679 9.26657C44.7134 9.39527 45.3073 9.62694 45.5655 9.7299C45.4106 8.9062 44.7909 7.61918 44.3778 7.07863C45.643 7.51622 46.3401 9.67842 46.4692 10.1417C49.6451 11.9178 52.5886 14.3117 54.6026 17.4263C55.119 17.5293 55.7645 17.8639 56.2551 17.9669C56.4874 17.8639 56.694 17.8124 56.978 17.8124C57.5719 17.2461 58.0883 17.0917 58.4756 17.0402C59.7408 14.0286 58.0883 7.3103 52.2271 8.6488C57.3137 6.6153 60.7994 12.3297 58.9662 17.0145C59.7408 17.0917 60.5154 17.6065 60.7736 18.0441C65.4987 14.1573 68.7262 3.98977 61.4965 2.57405C68.3647 2.31664 67.3835 13.3078 61.0576 18.4044C62.9941 23.7327 60.2055 30.0134 57.0813 35.3159C57.1071 35.7793 57.0555 36.3456 57.0297 36.5772C62.6843 34.5695 68.0032 33.8745 72.4185 34.1576C73.5804 34.2606 74.7681 34.2091 75.7751 33.8745C78.5895 33.4111 80.5518 35.3674 82.824 36.2941C83.8568 36.7574 85.1995 36.603 85.9482 37.5554C86.1806 38.1474 85.5609 39.3829 83.1597 39.177C83.3404 39.7433 84.2183 40.1809 83.7535 40.7472C83.108 41.3649 82.0752 41.1333 81.2232 40.9274C79.7256 41.5709 78.3571 40.5927 77.1952 39.8463C76.9628 40.2066 76.7046 41.0046 75.7751 41.5194C75.1038 41.9312 74.5874 41.854 73.8902 41.5966C72.8058 40.9274 74.2259 40.2066 74.4325 39.3572C74.1484 38.8424 73.4255 38.2761 73.3738 37.89C72.057 38.1731 66.0925 40.67 63.3814 42.8064C67.9774 48.2891 65.7311 53.9006 64.5175 56.6805C71.4631 54.3639 70.6885 60.6446 68.0032 64.0166C73.8902 63.2958 73.5287 66.3332 73.4513 66.6678C73.5546 66.7708 75.2845 68.1608 72.8058 69.4478C71.6955 70.0141 69.7332 69.8082 67.7967 70.2715C64.9048 70.9922 62.2453 72.3565 60.7736 72.0991C57.1329 71.3011 60.4637 66.6936 60.8252 64.7116C49.077 66.7193 43.2675 71.6357 37.4321 72.8456C33.0169 73.6435 32.4747 70.0141 32.6038 69.0874C31.3644 69.9111 27.6205 70.22 27.3623 67.7232C26.2262 66.8738 25.8905 65.6125 26.6651 64.7373C27.5688 63.5532 29.9701 63.8879 31.1579 63.1414C32.8878 61.8286 35.728 59.0487 38.1035 60.5159C38.1809 60.2585 38.2842 59.9238 38.3875 59.6664C33.43 59.7179 29.6086 55.2391 23.3602 53.8233C17.8346 52.5621 14.4006 54.2352 13.1096 54.5698C13.3419 53.7461 16.3113 50.9147 23.3343 52.0472C29.6345 53.4115 34.2563 57.9418 40.04 56.9122C41.7441 55.2391 44.1196 54.1065 46.1335 52.8195C46.495 52.0215 46.5983 50.6315 46.5983 50.0395C42.6736 49.3445 38.2584 48.7782 34.1013 49.0099C32.9394 49.0613 32.4489 50.2969 31.1579 50.2712C30.4607 50.2712 29.7119 50.0395 29.0922 50.4513C28.8599 50.683 27.9303 51.8156 27.1815 51.5324C26.5877 51.1721 26.2004 50.2969 26.691 49.6019C26.2778 49.4732 25.7614 49.4989 25.3741 49.2673C24.8577 49.0099 23.7216 48.2891 24.0315 47.0536C24.2897 46.4358 23.954 46.4616 24.1348 46.024C24.4446 45.2775 25.5291 45.5092 25.684 45.5349C26.1229 45.0201 27.1815 44.8399 27.7496 44.9944C28.4467 45.1745 28.9115 45.6379 29.1955 45.5349C31.1579 44.3508 32.1648 45.1488 32.8362 45.0716C33.4558 44.6082 34.1272 44.1192 34.7727 43.7588C33.0944 43.3212 31.9066 42.7292 31.2353 42.4203C20.0552 49.5247 9.70128 41.854 6.31884 38.4563C2.44582 34.2091 0.0187213 28.9066 1.02571 22.9348C1.49047 21.725 3.01387 17.3491 7.30001 16.4482Z" fill="black"/>
</svg>
