<?xml version="1.0" encoding="utf-8"?>
<!-- Generator: Adobe Illustrator 23.0.3, SVG Export Plug-In . SVG Version: 6.00 Build 0)  -->
<svg version="1.1" id="分離模式" xmlns="http://www.w3.org/2000/svg" xmlns:xlink="http://www.w3.org/1999/xlink" x="0px"
	 y="0px" viewBox="0 0 90.7 90.7" style="enable-background:new 0 0 90.7 90.7;" xml:space="preserve">
<style type="text/css">
	.st0{fill:url(#SVGID_1_);}
	.st1{fill:#FFFFFF;}
</style>
<g>
	
		<linearGradient id="SVGID_1_" gradientUnits="userSpaceOnUse" x1="11.1535" y1="12.0435" x2="97.8298" y2="98.7198" gradientTransform="matrix(1 0 0 -1 0 91.5986)">
		<stop  offset="1.104800e-03" style="stop-color:#FBE18A"/>
		<stop  offset="0.2094" style="stop-color:#FCBB45"/>
		<stop  offset="0.3765" style="stop-color:#F75274"/>
		<stop  offset="0.5238" style="stop-color:#D53692"/>
		<stop  offset="0.7394" style="stop-color:#8F39CE"/>
		<stop  offset="1" style="stop-color:#5B4FE9"/>
	</linearGradient>
	<circle class="st0" cx="45.4" cy="45.4" r="40.1"/>
	<g>
		<circle class="st1" cx="59.6" cy="31.4" r="3.1"/>
		<path class="st1" d="M45.7,32.3c-7.2,0-13.1,5.9-13.1,13.1s5.9,13.1,13.1,13.1s13.1-5.9,13.1-13.1S53,32.3,45.7,32.3z M45.7,53.8
			c-4.6,0-8.4-3.8-8.4-8.4s3.8-8.4,8.4-8.4s8.4,3.8,8.4,8.4C54.1,50,50.4,53.8,45.7,53.8z"/>
		<g>
			<path class="st1" d="M56.1,72H34.9c-8.8,0-16-7.2-16-16V34.8c0-8.8,7.2-16,16-16h21.2c8.8,0,16,7.2,16,16V56
				C72.1,64.8,64.9,72,56.1,72z M34.9,23.8c-6,0-11,4.9-11,11V56c0,6,4.9,11,11,11h21.2c6,0,11-4.9,11-11V34.8c0-6-4.9-11-11-11
				H34.9z"/>
		</g>
	</g>
</g>
</svg>
