<?xml version="1.0" encoding="utf-8"?>
<!-- Generator: Adobe Illustrator 24.3.0, SVG Export Plug-In . SVG Version: 6.00 Build 0)  -->
<svg version="1.1" id="群組_16" xmlns="http://www.w3.org/2000/svg" xmlns:xlink="http://www.w3.org/1999/xlink" x="0px" y="0px"
	 viewBox="0 0 390 160" style="enable-background:new 0 0 390 160;" xml:space="preserve">
<style type="text/css">
	.st0{fill-rule:evenodd;clip-rule:evenodd;fill:#1E1E1E;}
	.st1{fill-rule:evenodd;clip-rule:evenodd;}
	.st2{fill:#FEFCF7;}
	.st3{fill-rule:evenodd;clip-rule:evenodd;fill:#FFFFFF;}
	.st4{clip-path:url(#SVGID_2_);}
	.st5{fill:#FFFFFF;}
	.st6{fill:#DED05E;}
	.st7{fill:#EA5753;}
	.st8{fill:#A4A8AB;}
	.st9{fill:#DDDFE1;}
	.st10{fill:#79BC28;}
	.st11{fill:#FFED95;}
	.st12{fill:#F6BBAA;}
	.st13{fill:#B0DDE1;}
	.st14{fill:#0C0103;}
	.st15{fill:#1C1D1D;}
</style>
<g>
	<path id="形狀_512_拷貝_4" class="st0" d="M198.4,67.3c-0.6-2.3-6.2-4.5-6.2-4.5c1.6,0.2,3.3,0.1,4.8-0.3
		c0.7-0.2,1.4-0.4,2-0.7c-0.5-0.6-1-1.3-1.4-2c-1.3-2.5-2-5.3-1.8-8.1c0.2-3.2,1.6-6.2,4-8.3c1.6-1.4,3.5-2.6,5.5-3.4
		c-0.8-2.4-1-5-0.3-7.5c0.6-2.6,2.1-5,4.3-6.6c1.4-1,2.9-1.7,4.6-2.1c0.6-0.1,1.1-0.2,1.7-0.3c1.1-0.1,2.3-0.1,3.4,0.1
		c3.3-2.4-2.3-9.1-2.3-9.1s7.2,5.7,9.7,5.1c0,0,0,0,0,0c3.1-0.8,5.7-4.8,9.3-13c0,0-2.3,7.8-1.7,10.3c0.5,2.1,3.5,2.4,5.9,1.8l0.1,0
		c0,0-2.3,2.1-3,3.7c-0.2,0.4-0.2,0.9,0.1,1.3c1.2,0.3,2.4,0.8,3.4,1.5c4,2.4,6.3,6.8,6.1,11.4c1.5,0.4,3,1.1,4.4,1.8
		c1.4,0.8,2.6,1.8,3.7,2.9c1.9,2,3,4.7,3.1,7.4c0,1.2-0.1,2.3-0.4,3.5c0.9,1.2,3.1,2.8,8.1,3.3c-0.7,0.1-1.4,0.2-2.1,0.4
		c-1.4,0.3-3,1-3.5,2.1c-0.7,1.7,1.6,4.2,8.2,7c0,0-10.2-3.4-13.7-2.6c-0.3,0.1-0.6,0.2-0.9,0.5c-1.6,1.6-0.9,4.4,3,13
		c0,0-4.5-5.5-6.2-5.2c0,0,0,0-0.1,0c-1.1,0.3-2.1,2.9-3,6.9c0,0,0.1-6.4-1.2-7.3c-0.3-0.2-0.6-0.3-0.9-0.3
		c-0.8,0.9-1.8,1.7-2.8,2.3c-1,0.6-2.2,1.1-3.4,1.4c-0.6,0.1-1.2,0.3-1.9,0.3c-1.6,0.1-3.2,0.1-4.7-0.2c-1.4-0.3-2.8-0.7-4.1-1.3
		c-1.7,1.7-3.9,2.9-6.3,3.5c-0.4,0.1-0.8,0.2-1.2,0.3c-2.3,0.4-4.7,0.2-7-0.6c-1.5-0.5-2.9-1.3-4.1-2.3c-0.4-0.1-0.8,0-1.1,0.1
		c-0.4,0.1-0.7,0.3-1,0.5c-1.8,1.4-2.6,8-2.6,8c-0.4-6.3-0.8-8.3-2.8-9.3c-0.3-0.1-0.7-0.2-1.1,0c-3.1,0.8-9.8,7-9.8,7
		C197.1,72.8,198.9,69.1,198.4,67.3z M246.7,69.6c0.5,0.3,1,0.9,1.3,3.1c0.9-2.1,1.6-2.7,2.3-2.8c0,0,0.1,0,0.1,0
		c0.6-0.1,1.3,0.2,2.3,0.9c0.4,0.3,0.9,0.7,1.3,1.1c-0.7-1.5-1.2-3.1-1.6-4.8c-0.2-0.9-0.3-1.8-0.2-2.7c0.1-0.7,0.5-1.4,1-2
		c0.4-0.3,0.8-0.6,1.3-0.7c1.3-0.2,2.6-0.2,4,0c0.9,0.1,2,0.3,3.2,0.6c-0.9-0.7-1.7-1.5-2.2-2.6c-0.3-0.6-0.3-1.3,0-2
		c0.5-1,1.4-1.7,2.4-2.1c-0.5-0.1-0.9-0.3-1.3-0.5c-1.1-0.4-2.1-1-2.9-1.8c0,0-0.1-0.1-0.1-0.1c-0.2,0.7-0.5,1.3-0.9,1.9
		c-0.9,1.6-2.1,2.9-3.5,4c-1.4,1-2.9,1.8-4.5,2.4c0.1,2.8-0.8,5.5-2.6,7.8C246.2,69.3,246.4,69.4,246.7,69.6z M221.1,24
		c1.6,0.5,3.1,1.2,4.4,2.1c1.5-1.2,3.2-2,5.1-2.5c0.1,0,0.3-0.1,0.4-0.1c1.7-0.4,3.5-0.4,5.3-0.1c-0.1-0.5-0.1-0.9,0.1-1.4
		c0.4-0.8,0.9-1.6,1.5-2.3c-0.6,0-1.1-0.1-1.7-0.2c-1.4-0.2-2.5-1.2-2.9-2.5c-0.2-1.2-0.2-2.4,0-3.5c-0.5,1-1.1,1.9-1.7,2.8
		c-1.6,2.3-3.2,3.6-4.9,4.1c0,0,0,0,0,0c-1.1,0.1-2.1-0.1-3.1-0.6c-1.2-0.5-2.3-1.1-3.3-1.8c-0.1-0.1-0.3-0.2-0.4-0.3
		c1,2,1.3,3.6,0.8,4.9c-0.1,0.4-0.3,0.8-0.6,1.1h0l-0.1,0C220.5,23.9,220.8,24,221.1,24L221.1,24z M202.8,71.8
		c1.2,0.7,2.1,1.9,2.4,3.2c0.1,0.5,0.2,1,0.3,1.5c0.5-1.7,1.1-2.8,1.8-3.3c0.5-0.4,1.1-0.7,1.8-0.7c-0.9-1-1.6-2.1-2.2-3.3
		c-0.5-1.1-0.9-2.4-1.1-3.6c-2.3-0.4-4.4-1.5-6.1-3.2c-0.8,0.4-1.6,0.7-2.4,0.9c-0.5,0.1-1,0.2-1.5,0.3c0.7,0.4,1.3,0.9,2,1.4
		c0.7,0.5,1.2,1.3,1.5,2.1c0.1,0.7,0.1,1.5-0.1,2.2c-0.3,0.9-0.7,1.9-1.2,2.7c-0.4,0.7-0.8,1.4-1.4,2.2c1.3-1.1,2.9-1.9,4.5-2.5
		C201.6,71.5,202.2,71.5,202.8,71.8L202.8,71.8z M191.9,32.9c-0.3-0.2-0.4-0.5-0.3-0.8c0,0,0,0,0,0l0,0c0.2-0.3,0.5-0.4,0.8-0.2
		c0,0,0,0,0,0l5.7,3.9L191.9,32.9z M195.4,28.6L195.4,28.6c0.2-0.2,0.6-0.2,0.8,0c0,0,0,0,0,0l5,6.1l-5.8-5.3
		C195.2,29.3,195.2,28.9,195.4,28.6C195.4,28.7,195.4,28.7,195.4,28.6L195.4,28.6z M190.6,37.4c-0.3-0.1-0.5-0.4-0.4-0.7
		c0,0,0,0,0,0l0,0c0.1-0.3,0.5-0.5,0.8-0.3c0,0,0,0,0,0l9.3,2.4L190.6,37.4z M260.6,29.3c0.3-0.1,0.7,0,0.8,0.3c0,0,0,0,0,0l0,0
		c0.1,0.3,0,0.7-0.3,0.8c0,0,0,0,0,0l-8.8,3L260.6,29.3z M259.9,26.4l-10.1,6.2l9.4-7.2c0.3-0.2,0.6-0.2,0.9,0.1c0,0,0,0,0,0l0,0
		C260.2,25.8,260.2,26.2,259.9,26.4C259.9,26.4,259.9,26.4,259.9,26.4L259.9,26.4z M253.9,26.1l-3.3,2.8l2.1-3.3
		c0.2-0.3,0.6-0.3,0.9-0.1c0,0,0,0,0,0c0.2,0,0.4,0.1,0.4,0.3C254,25.9,254,26.1,253.9,26.1L253.9,26.1z M227.5,76.8l1.2,9.2
		c0,0.3-0.2,0.6-0.6,0.6c-0.3,0.1-0.5-0.1-0.6-0.3c0,0,0-0.1,0-0.1L227.5,76.8z M231.6,81.9c-0.3,0.1-0.7-0.1-0.7-0.4c0,0,0,0,0,0
		l-1.7-4.8l2.9,4.5C232.1,81.4,232,81.8,231.6,81.9C231.6,81.9,231.6,81.9,231.6,81.9L231.6,81.9z M225,76.3l-2.4,6
		c-0.1,0.3-0.4,0.5-0.7,0.5c-0.3-0.1-0.5-0.4-0.5-0.7c0,0,0,0,0-0.1L225,76.3z"/>
	<g>
		<path id="野餐吃甚麼_個巧克力_拷貝_3_" class="st1" d="M21.3,45h1.4l-0.1,1.7h-1.4L21.3,45z M21.6,40.3h1.4L23,41.9
			h-1.4L21.6,40.3z M28,41.9h-1.4l0.1-1.6h1.4L28,41.9z M27.6,46.7h-1.4l0.1-1.7h1.4L27.6,46.7z M25.9,55.9h4.8l0.3-3.9h-4.8
			l0.1-1.9H31L32,36.8H18.4l-0.9,13.3h4.7L22,52h-4.6l-0.3,3.9h4.6l-0.2,2.6c-2.1,0.2-4,0.3-5.6,0.4l0.2,4.3c4-0.5,9.5-1.1,14.6-1.7
			l0.2-3.8c-1.7,0.2-3.4,0.3-5.2,0.5L25.9,55.9z M42.7,46.7L42,46.8H42l1-1c-0.7-0.5-1.5-1-2.2-1.5c1.9-1.7,3.5-3.6,4.9-5.7l-2.6-2
			l-0.9,0.2H33l-0.3,3.9H39c-0.5,0.6-0.9,1.2-1.5,1.8c-0.7-0.4-1.5-0.7-2.2-1l-2.9,2.7c1.6,0.8,3.2,1.6,4.7,2.6h-5.3l-0.3,4.1h3.5
			l-0.6,8.5c0,0.4-0.2,0.5-0.6,0.5c-1,0-2,0-3.1-0.1c0.5,1.4,0.8,2.8,0.9,4.3c2.2,0,3.8-0.1,5.2-0.7c1.4-0.7,1.8-1.9,1.9-3.8
			l0.6-8.6h1.2c-0.3,1.4-0.6,2.7-0.9,3.6l3.5,0.7c0.9-2.6,1.7-5.3,2.3-8L42.7,46.7z M59.1,42c-0.7,0.7-1.6,1.4-2.4,1.9
			c-0.5-0.5-1.1-0.9-1.7-1.3c0.2-0.2,0.5-0.4,0.7-0.6H59.1z M61.8,39.6l-0.6,0.1h-1.4l0-0.7h4.7l0.2-2.5h-4.7l0.1-1h-3.6l-0.3,4
			l-1.8-0.3c-1.2,1.5-2.8,2.7-4.5,3.5c0.8,0.6,1.5,1.4,2,2.3c0.3-0.2,0.6-0.4,0.9-0.6c0.4,0.3,0.9,0.7,1.3,1.1
			c-1.2,0.6-2.5,1-3.8,1.4c0.7,0.8,1.4,1.7,1.9,2.6c4.7-1.5,9.4-4.3,11.9-8.6L61.8,39.6z M57,51.6c1-0.4,2.1-1,3.1-1.5L60,51.2h7.5
			l0.1-1c1,0.5,2,1,3,1.4L57,51.6L57,51.6z M71.4,58.4c-0.4,0.3-0.7,0.6-1.1,0.8c-0.8-0.3-1.6-0.6-2.4-0.8H71.4L71.4,58.4z M58.8,60
			l0.1-1.6h4.7l-1.1,1.2l0.3,0.1L58.8,60z M59.1,55.7h9.1l0,0.6h-9.1L59.1,55.7z M59.3,53.7h9.1l0,0.5h-9.1L59.3,53.7z M61.6,49.2
			c0.7-0.4,1.4-0.9,2.1-1.4c0.7,0.5,1.4,0.9,2.1,1.4H61.6L61.6,49.2z M72.2,39.3c-0.5,0.6-1,1.1-1.6,1.5c-1.1-0.6-2.2-1.1-3.3-1.5
			H72.2L72.2,39.3z M77.4,45c-1.1-0.9-2.3-1.8-3.6-2.5c1.5-1.5,2.8-3.3,3.6-5.3l-2.3-1l-0.7,0.1h-9l-0.2,2.9h2l-2.5,2.3
			c0.8,0.4,1.7,0.8,2.6,1.3c-0.6,0.3-1.3,0.5-1.9,0.7c0.2,0.2,0.4,0.5,0.6,0.7l-1.9-1c-3.3,3.4-9.2,5.9-14.6,7.3
			c0.8,0.9,1.5,1.9,2,3.1c1.2-0.4,2.5-0.8,3.7-1.3l-0.5,6.8c0,0.8-0.4,1.6-1.1,1.9c0.5,0.9,0.9,1.9,1,2.9c0.8-0.4,2.1-0.6,9.4-1.3
			c0-0.8,0.1-1.7,0.2-2.5c3.3,1,6.5,2.4,9.5,4.1l2.2-2.5c-0.9-0.5-1.8-0.9-2.7-1.3c0.9-0.6,1.9-1.3,2.8-2l-2.8-1.9
			c-0.3,0.3-0.7,0.7-1.1,1l0.4-5.3c1.1,0.4,2.2,0.7,3.2,1c0.7-1.1,1.6-2.1,2.6-3.1c-4.2-0.9-9.2-2.6-12.2-4.5
			c0.2-0.2,0.4-0.4,0.5-0.5c0.2,0.4,0.4,0.7,0.6,1.1c1.2-0.4,2.4-1,3.5-1.6c1.4,0.8,2.7,1.8,3.9,2.8L77.4,45z M89.1,52.1h-1.6
			l0.7-9.9h1.6L89.1,52.1z M99.6,59.2c-1.2,0-1.9-0.2-1.8-1c0.1-1,0.9-2.4,11.7-9.9c0.2-0.2,0.4-0.5,0.6-0.8l-2.8-1.7l-1,0.1h-9.4
			c0.7-0.8,1.3-1.6,1.9-2.5H111l0.3-4.1h-10c0.5-1,0.9-2,1.3-2.9l-4.2-1c-1.1,2.9-2.7,5.6-4.8,7.9L94,38h-9.5l-1.5,20.8h4l0.2-2.5
			h5.5l0.8-10.8c0.7,0.6,1.4,1.3,2.1,2c0.2-0.2,0.4-0.4,0.6-0.7L96,50.1h4.5c-6.6,5.3-7.1,7.1-7.2,8.8c-0.2,2.8,1.7,4.6,6.2,4.6h5.3
			c3.7,0,5.5-1.2,6.3-6.9c-1.3-0.3-2.6-0.7-3.8-1.4c-0.4,3.6-0.9,4-2,4H99.6L99.6,59.2z M122.7,54.5h3.5c-0.5,1.4-1.6,2.3-3.7,2.9
			L122.7,54.5z M124.8,60.1c-2.1,0-2.5-0.5-2.4-1.7l0.1-0.7c0.9,0.7,1.8,1.6,2.6,2.5H124.8z M126.1,49.6h7.9l-0.1,1.2H126
			L126.1,49.6z M134.6,41.5l-0.1,1h-7.9l0.1-1H134.6L134.6,41.5z M126.4,45.5h7.9l-0.1,1h-7.9L126.4,45.5z M143.5,54.5l0.3-3.6h-5.4
			l0.7-9.3h4.7L144,38h-4.7l0.2-2.5H135l-0.2,2.5h-7.9l0.2-2.5h-4.4l-0.2,2.5h-4.9l-0.2,3.5h4.9l-0.7,9.3h-5.6l-0.3,3.6h2.5
			l-0.3,3.8c-0.3,4.2,1.6,5.6,6.9,5.6h10.7c2.3,0,5.4-0.1,6.6-0.4c-0.1-1-0.2-2.6-0.2-3.8c-2.2,0.3-4.3,0.4-6.5,0.4h-10.2
			c2.4-1,4.3-3,4.9-5.6h1.7l0,0.7c-0.2,3,0.5,4.2,3.9,4.2h3c0.8,0,1.7-0.1,2.5-0.2c-0.1-0.9-0.1-2.3-0.1-3.2
			c-0.8,0.2-1.5,0.2-2.3,0.2h-2.7c-0.6,0-0.7-0.3-0.6-0.9l0-0.7H143.5L143.5,54.5z M176,50.4c-0.4,0-0.4-0.2-0.3-0.7l0.2-2.8h-2.3
			l-0.2,2.8c-0.1,1.6,0.1,2.4,1.9,2.4h0.9c0.4,0,0.9,0,1.3-0.2c0-0.6,0-1.2,0-1.7c-0.4,0.1-0.8,0.2-1.2,0.1H176L176,50.4z
			 M172.6,52.3l0.4-6.1h4l0.2-3.2h-4l0.1-1.1h-3.2l-0.1,1.1h-3.5l-0.2,3.2h3.5l-0.4,6.1H172.6L172.6,52.3z M155.5,41.4h21.9l0.3-3.8
			h-10c-0.1-0.8-0.3-1.7-0.5-2.5l-4.5,0.8c0.1,0.5,0.2,1.1,0.3,1.7h-11.2l-0.6,8.2c-0.3,4.4-0.9,11-3.1,15.4
			c1.2,0.7,2.3,1.6,3.3,2.6c2.6-4.9,3.6-13,3.9-18L155.5,41.4z M158.5,47h-2.3l-0.1,1.1c0,1.2-0.5,2.3-1.4,3.1
			c0.7,0.4,1.4,1,1.9,1.6c1.4-1.3,1.7-3.1,1.8-4.6L158.5,47z M168.4,57.7c0.4,0.5,0.8,1.1,1.3,1.6l-6.6,0.4c3.2-1.5,6.3-3.2,9.2-5.2
			l-3-2.2c-1.3,1-2.7,1.9-4,2.8l-3.8,0.1c1.5-0.7,3-1.6,4.4-2.5l-1.7-1.1h0.4c0.4,0,0.8,0,1.2-0.1c0-0.2,0-0.3,0-0.5
			c0.6,0.4,1.1,0.9,1.6,1.4c1.5-1.2,1.8-2.9,1.9-4.4l0.1-1.2H167l-0.1,1c0,1-0.5,2-1.2,2.6c0-0.2,0-0.5,0-0.7
			c-0.3,0.1-0.6,0.1-0.9,0.1c-0.2,0-0.3-0.2-0.2-0.6l0.2-2.3h-2.2l-0.2,2.2c-0.1,0.8,0,1.5,0.4,1.8c-0.3,0.2-0.6,0.5-0.9,0.7
			l0.4-5.7h3.5l0.2-3.2h-3.5l0.1-1.1h-3.2l-0.1,1.1h-3l-0.2,3.2h3l-0.4,6h2.9c-1.2,0.8-2.5,1.5-3.8,2.1c-0.7,0.4-1.4,0.6-2.1,0.7
			c0.3,1,0.6,2.1,0.8,3.2c0.5-0.2,1.2-0.3,4.5-0.6c-1.2,0.6-2.2,1.1-2.8,1.3c-1.2,0.6-2.4,1-3.7,1.3c0.3,1.1,0.6,2.3,0.8,3.4
			c1.2-0.4,3-0.4,16.9-1.4c0.3,0.5,0.7,1,0.9,1.4l3.5-1.7c-1.1-1.5-3.1-4-4.6-5.7L168.4,57.7z M257.4,35.5c-1.5,4.1-3.8,7.8-6.7,11
			c0.7,1.5,1.3,3.2,1.7,4.8c0.5-0.6,1.1-1.2,1.6-1.8l-1,14.5h4.2l1.5-21.6c1-1.8,1.9-3.7,2.7-5.7L257.4,35.5z M270.1,54.5h-1.9
			l0.2-2.3h1.9L270.1,54.5z M274.4,47l0.2-3.1h-3.1l0.2-2.9h-3.3l-0.2,2.9h-2.8l-0.2,3.1h2.8l-0.2,2.2h-2.3l-0.6,8.1h8.2l0.6-8.1
			h-2.6l0.2-2.2H274.4L274.4,47z M263.8,58.5l1.2-17.9h10.2l-1.3,17.9H263.8L263.8,58.5z M261.4,36.9L259.5,64h4l0.1-1.7h10.2
			l-0.1,1.5h4.2l1.9-26.9L261.4,36.9L261.4,36.9z M292.1,53.3l0.7-9.8h3l0.3-4.3H285l-0.3,4.3h3.7l-0.7,10.5c-1.5,0.2-3,0.5-4.2,0.6
			l0.6,4.5c3.4-0.7,7.7-1.5,11.7-2.4l-0.1-4.2L292.1,53.3z M313.2,41.6l0.3-4.4h-16.6l-0.3,4.4h3.3c-0.8,3.3-1.8,6.8-2.7,9.3h10
			c-0.6,4.8-1.2,7.4-2,8c-0.5,0.3-1,0.4-1.6,0.4c-1.1,0-3.5,0-5.9-0.2c0.9,1.3,1.4,2.9,1.5,4.5c1.9,0.1,3.8,0.1,5.7-0.1
			c1.7-0.2,2.8-0.5,4-1.7c1.3-1.4,2.1-4.9,3-13.2l0.2-1.9H303c0.5-1.6,0.9-3.4,1.4-5.1H313.2z M325.8,47.4h11.8l-0.2,2.4h-11.7
			L325.8,47.4z M337.5,59.6c-0.9,0-1.1-0.1-1-1.2l0.3-4.7h4.7l0.7-10H334l0.1-1.9h11.2l0.3-3.9h-11.2l0.2-2.3h-4.5l-0.2,2.3h-10.8
			l-0.3,3.9h10.8l-0.1,1.9h-7.7l-0.7,10h3.6c-0.6,3.2-1.7,5.2-8.5,6.4c1,1.2,1.8,2.6,2.2,4.1c8.3-1.9,10.1-5.5,11-10.5h2.9l-0.3,4.8
			c-0.3,3.9,0.6,5.2,4.5,5.2h3.3c3.2,0,4.4-1.3,5.3-6.3c-1.4-0.3-2.7-0.9-3.9-1.7c-0.4,3.4-0.6,3.9-1.5,3.9L337.5,59.6L337.5,59.6z
			 M365.8,41.6l0.4-6h-4.7l-0.4,6h-8.9l-0.3,4.5h8.7c-0.9,5.1-3.3,11-10.7,14.6c1.2,1,2.3,2.2,3.2,3.6c8.6-4.5,11.3-11.9,12.2-18.2
			h7.5c-1,8.1-1.8,11.9-2.8,12.7c-0.4,0.4-0.9,0.5-1.4,0.5c-0.8,0-2.5,0-4.3-0.2c0.8,1.4,1.2,2.9,1.2,4.5c1.6,0.1,3.2,0,4.8-0.1
			c1.4-0.1,2.7-0.8,3.5-1.9c1.5-1.7,2.4-6.3,3.8-18.1c0.1-0.6,0.2-2,0.2-2H365.8L365.8,41.6z"/>
		<path id="野餐吃甚麼_個巧克力_拷貝_1_" d="M167.1,35.1c0.2,0.8,0.4,1.6,0.5,2.5h10l-0.3,3.8h-21.9l-0.3,4.4
			c-0.3,5-1.3,13-3.9,18c-1-1-2.1-1.9-3.3-2.6c2.2-4.4,2.7-10.9,3.1-15.4l0.6-8.2h11.2c-0.1-0.6-0.2-1.2-0.3-1.7L167.1,35.1
			 M334.6,35.4l-0.2,2.3h11.2l-0.3,3.9h-11.2l-0.1,1.9h8.3l-0.7,10h-4.7l-0.3,4.7c-0.1,1.1,0.1,1.2,1,1.2l0,0h2.2
			c0.9,0,1.1-0.5,1.5-3.9c1.2,0.8,2.5,1.4,3.9,1.7c-0.8,5-2,6.3-5.3,6.3h-3.3c-3.9,0-4.8-1.3-4.5-5.2l0.3-4.8h-2.9
			c-0.9,5-2.7,8.6-11,10.5c-0.5-1.5-1.2-2.9-2.2-4.1c6.8-1.2,7.9-3.2,8.5-6.4h-3.6l0.7-10h7.7l0.1-1.9h-10.8l0.3-3.9H330l0.2-2.3
			H334.6 M325.6,49.8h11.7l0.2-2.4h-11.8L325.6,49.8 M98.4,35.5l4.2,1.1c-0.4,1-0.9,2-1.3,2.9h10l-0.3,4.1H98.9
			c-0.6,0.9-1.2,1.7-1.9,2.5h9.4l1-0.1l2.8,1.7c-0.2,0.3-0.4,0.5-0.6,0.8c-10.8,7.6-11.6,9-11.7,9.9c-0.1,0.7,0.6,1,1.8,1h0h5.7
			c1.1,0,1.6-0.4,2-4c1.2,0.7,2.5,1.1,3.8,1.4c-0.8,5.7-2.6,6.9-6.3,6.9h-5.3c-4.5,0-6.4-1.8-6.2-4.6c0.1-1.8,0.6-3.5,7.2-8.8H96
			l0.2-3.2c-0.2,0.2-0.4,0.4-0.6,0.7c-0.7-0.7-1.4-1.3-2.1-2l-0.8,10.8h-5.5L87,58.8h-4L84.5,38H94l-0.4,5.3
			C95.7,41.1,97.3,38.4,98.4,35.5 M87.5,52.1h1.6l0.7-9.9h-1.6L87.5,52.1 M139.5,35.5l-0.2,2.5h4.7l-0.2,3.5h-4.7l-0.7,9.3h5.4
			l-0.3,3.6h-7.9l0,0.7c0,0.7,0,0.9,0.6,0.9h2.7c0.8,0,1.5-0.1,2.3-0.2c0,1,0,2.3,0.1,3.2c-0.7,0.2-1.5,0.2-2.2,0.2
			c-0.1,0-0.2,0-0.3,0h-3c-3.4,0-4.1-1.2-3.9-4.2l0-0.7h-1.7c-0.6,2.5-2.5,4.6-4.9,5.6h10.2c0.1,0,0.1,0,0.2,0
			c2.1,0,4.2-0.1,6.3-0.4c0,1.2,0.1,2.8,0.2,3.8c-1.2,0.3-4.2,0.4-6.6,0.4H125c-5.4,0-7.2-1.3-6.9-5.6l0.3-3.8h-2.5l0.3-3.6h5.6
			l0.7-9.3h-4.9l0.2-3.5h4.9l0.2-2.5h4.4l-0.2,2.5h7.9l0.2-2.5H139.5 M126.6,42.5h7.9l0.1-1h0h-7.9L126.6,42.5 M126.3,46.5h7.9
			l0.1-1h-7.9L126.3,46.5 M126,50.8h7.9l0.1-1.2h-7.9L126,50.8 M122.5,57.4c2.1-0.6,3.2-1.5,3.7-2.9h-3.5L122.5,57.4 M124.8,60.1
			h0.2c-0.8-0.9-1.6-1.7-2.6-2.5l-0.1,0.7C122.3,59.6,122.7,60.1,124.8,60.1 M60,35.5l-0.1,1.1h4.7L64.5,39h-4.7l0,0.7h1.4l0.6-0.1
			l2.3,1.3c-2.5,4.3-7.2,7-11.9,8.6c-0.5-1-1.1-1.8-1.9-2.6c1.3-0.4,2.6-0.8,3.8-1.4c-0.4-0.4-0.9-0.7-1.3-1.1
			c-0.3,0.2-0.6,0.4-0.9,0.6c-0.5-0.9-1.2-1.6-2-2.3c1.7-0.8,3.3-2,4.5-3.5l1.8,0.3l0.3-4H60 M56.7,43.9c0.9-0.6,1.7-1.2,2.4-1.9
			h-3.5c-0.2,0.2-0.5,0.4-0.7,0.6C55.6,43,56.2,43.4,56.7,43.9 M257.4,35.5l3.9,1.2c-0.8,1.9-1.7,3.8-2.7,5.7l-1.5,21.6H253l1-14.5
			c-0.5,0.7-1,1.3-1.6,1.8c-0.4-1.7-1-3.3-1.7-4.8C253.6,43.4,255.9,39.6,257.4,35.5 M366.2,35.5l-0.4,6h0h12.1c0,0-0.1,1.4-0.2,2
			c-1.4,11.8-2.3,16.4-3.8,18.1c-0.8,1.1-2.1,1.8-3.5,1.9c-1.1,0.1-2.1,0.2-3.2,0.2c-0.5,0-1.1,0-1.6,0c0-1.6-0.4-3.1-1.2-4.5
			c1.8,0.2,3.5,0.2,4.3,0.2c0,0,0.1,0,0.1,0c0.5,0,0.9-0.2,1.3-0.5c0.9-0.9,1.8-4.7,2.8-12.7h-7.5c-0.9,6.3-3.6,13.6-12.2,18.2
			c-0.9-1.3-2-2.6-3.2-3.6c7.4-3.6,9.8-9.5,10.7-14.6h-8.7l0.3-4.5h8.9l0.4-6H366.2 M75.1,36.3l2.3,1c-0.8,2-2,3.8-3.6,5.3
			c1.3,0.7,2.5,1.6,3.6,2.5l-2.8,2.7c-1.2-1.1-2.5-2-3.9-2.8c-1.1,0.6-2.3,1.2-3.5,1.6c-0.2-0.4-0.4-0.8-0.6-1.1
			c-0.2,0.2-0.4,0.4-0.5,0.5c3,1.8,8,3.6,12.2,4.5c-1,0.9-1.8,1.9-2.6,3.1c-1-0.3-2.1-0.6-3.2-1.1l-0.4,5.3c0.4-0.4,0.8-0.7,1.1-1.1
			l2.8,1.9c-0.9,0.7-1.9,1.3-2.8,2c0.9,0.4,1.8,0.8,2.7,1.3l-2.2,2.5c-3-1.7-6.2-3.1-9.5-4.1c-0.1,0.8-0.2,1.7-0.2,2.5
			c-7.3,0.7-8.6,0.9-9.4,1.3c-0.1-1-0.5-2-1-2.9c0.7-0.4,1.2-1.1,1.1-1.9l0.5-6.8c-1.2,0.5-2.5,0.9-3.7,1.3c-0.5-1.1-1.2-2.2-2-3.1
			c5.4-1.4,11.4-3.9,14.6-7.3l1.9,1c-0.2-0.3-0.4-0.5-0.6-0.7c0.7-0.2,1.3-0.4,1.9-0.7c-0.9-0.5-1.8-0.9-2.6-1.3l2.5-2.3h-2l0.2-2.9
			h9L75.1,36.3 M70.6,40.8c0.6-0.5,1.1-1,1.6-1.5h-4.8C68.4,39.7,69.5,40.2,70.6,40.8 M61.6,49.2h4.2c-0.8-0.4-1.5-0.9-2.1-1.4
			C63,48.3,62.3,48.8,61.6,49.2L61.6,49.2 M57,51.6h13.5c-1-0.4-2-0.9-3-1.4l-0.1,1H60l0.1-1.1C59.1,50.6,58.1,51.1,57,51.6L57,51.6
			 M59.2,54.3h9.1l0-0.5h-9.1L59.2,54.3 M59.1,56.3h9.1l0-0.6h-9.1L59.1,56.3 M70.3,59.3c0.4-0.3,0.7-0.5,1-0.8h0h-3.5
			C68.7,58.7,69.5,59,70.3,59.3 M58.8,60l4-0.3l-0.3-0.1l1.1-1.2h-4.7L58.8,60 M43,36.6l2.6,2c-1.4,2.1-3.1,4-4.9,5.7
			c0.8,0.5,1.5,1,2.2,1.5l-1,1H42l0.6-0.1l2.9,0.6c-0.6,2.7-1.4,5.4-2.3,8l-3.5-0.7c0.3-1,0.6-2.3,0.9-3.6h-1.2l-0.6,8.6
			c-0.1,2-0.6,3.2-1.9,3.8C35.6,64,34,64,31.8,64c-0.1-1.5-0.4-2.9-0.9-4.3c0.7,0.1,1.4,0.1,2.1,0.1c0.3,0,0.6,0,0.9,0
			c0.4,0,0.6-0.1,0.6-0.5l0.6-8.5h-3.5l0.3-4.1h5.3c-1.5-1-3.1-1.9-4.7-2.6l2.9-2.7c0.7,0.3,1.4,0.6,2.2,1c0.5-0.6,1-1.1,1.5-1.8
			h-6.3l0.3-3.9h9.1L43,36.6 M32,36.8L31,50.1h-4.7L26.2,52h4.8l-0.3,3.9h-4.8l-0.2,2.3c1.7-0.1,3.5-0.3,5.2-0.5l-0.2,3.8
			c-5.1,0.7-10.6,1.3-14.6,1.7L15.9,59c1.6-0.1,3.5-0.3,5.6-0.4l0.2-2.6h-4.6l0.3-3.9H22l0.1-1.9h-4.7l0.9-13.3H32 M26.6,41.9H28
			l0.1-1.6h-1.4L26.6,41.9 M21.5,41.9H23l0.1-1.6h-1.4L21.5,41.9 M26.2,46.7h1.4l0.1-1.7h-1.4L26.2,46.7 M21.2,46.7h1.4l0.1-1.7
			h-1.4L21.2,46.7 M261.4,36.9L261.4,36.9l18.3,0l-1.9,26.9h-4.2l0.1-1.5h-10.2l-0.1,1.7h-4L261.4,36.9 M263.8,58.5L263.8,58.5h10.2
			l1.3-17.9h-10.2L263.8,58.5 M313.5,37.2l-0.3,4.4h-8.8c-0.4,1.7-0.9,3.5-1.4,5.1h9.1l-0.2,1.9c-1,8.3-1.7,11.8-3,13.2
			c-1.2,1.2-2.3,1.6-4,1.7c-1.1,0.1-2.2,0.1-3.3,0.1c-0.8,0-1.6,0-2.4-0.1c-0.1-1.6-0.6-3.2-1.5-4.5c2.4,0.2,4.8,0.2,5.9,0.2
			c0.1,0,0.2,0,0.2,0c0.5,0,1-0.1,1.4-0.4c0.8-0.6,1.4-3.2,2-8h-10c0.9-2.5,1.9-6,2.7-9.3h-3.3l0.3-4.4H313.5 M296.1,39.2l-0.3,4.3
			h-3l-0.7,9.8l3.6-0.6l0.1,4.2c-4,0.9-8.3,1.7-11.7,2.4l-0.6-4.5c1.2-0.2,2.6-0.4,4.2-0.6l0.7-10.5h-3.7l0.3-4.3H296.1 M271.7,41
			l-0.2,2.9h3.1l-0.2,3.1h0h-3.1l-0.2,2.2h2.6l-0.6,8.1h-8.2l0.6-8.1h2.3L268,47h-2.8l0.2-3.1h2.8l0.2-2.9H271.7 M268.2,54.5h1.9
			l0.2-2.3h-1.9L268.2,54.5 M173.4,41.8l-0.1,1.1h4l-0.2,3.2h-4l-0.4,6.1h-3.2l0.4-6.1h-3.5l0.2-3.2h3.5l0.1-1.1H173.4 M162.5,41.8
			l-0.1,1.1h3.5l-0.2,3.2h-3.5l-0.4,5.7c0.3-0.2,0.6-0.4,0.9-0.7c-0.4-0.4-0.4-1-0.4-1.8l0.2-2.2h2.2l-0.2,2.3c0,0.4,0,0.6,0.2,0.6
			c0.3,0,0.6-0.1,0.9-0.1c0,0.2,0,0.5,0,0.7c0.8-0.7,1.2-1.6,1.2-2.6l0.1-1h2.3l-0.1,1.2c-0.1,1.4-0.4,3.2-1.9,4.4
			c-0.5-0.5-1-1-1.6-1.4c0,0.2,0,0.3,0,0.5c-0.3,0.1-0.7,0.1-1,0.1c-0.1,0-0.1,0-0.2,0h-0.4l1.7,1.1c-1.4,0.9-2.9,1.8-4.4,2.5
			l3.8-0.1c1.4-0.9,2.8-1.8,4-2.8l3,2.2c-2.9,2-6,3.8-9.2,5.2l6.6-0.4c-0.5-0.6-0.9-1.1-1.3-1.6l3.2-1.5c1.4,1.7,3.5,4.2,4.6,5.7
			l-3.5,1.7c-0.2-0.4-0.5-0.9-0.9-1.4c-13.9,1-15.7,1-16.9,1.4c-0.2-1.2-0.4-2.3-0.8-3.4c1.3-0.3,2.5-0.7,3.7-1.3
			c0.6-0.2,1.6-0.7,2.8-1.3c-3.3,0.2-4,0.4-4.5,0.6c-0.2-1.1-0.4-2.1-0.8-3.2c0.7-0.1,1.4-0.4,2.1-0.7c1.3-0.6,2.6-1.3,3.8-2.1h-2.9
			l0.4-5.9h-3l0.2-3.2h3l0.1-1.1H162.5 M175.8,47l-0.2,2.8c0,0.4,0,0.7,0.3,0.7h0h0.2c0,0,0.1,0,0.1,0c0.4,0,0.8,0,1.1-0.1
			c0,0.5,0,1.1,0,1.7c-0.4,0.1-0.7,0.2-1.1,0.2c-0.1,0-0.1,0-0.2,0h-0.9c-1.7,0-2-0.8-1.9-2.4l0.2-2.8H175.8 M158.5,47l-0.1,1.2
			c-0.1,1.5-0.4,3.3-1.8,4.6c-0.5-0.6-1.2-1.2-1.9-1.6c0.9-0.8,1.4-1.9,1.4-3.1l0.1-1.1H158.5 M172.6,52.3L172.6,52.3L172.6,52.3
			 M143.5,54.5L143.5,54.5L143.5,54.5 M169.3,31.7l-2.7,0.5l-4.5,0.8l-3.1,0.5l0.2,1.1h-7.5h-2.8l-0.2,2.8l-0.6,8.2
			c-0.2,2.7-0.5,7.7-1.8,11.8l0.2-2.7l0.3-3.6l0.2-3.2h-3.2h-2.2l0.2-3.3h1.9h2.8l0.2-2.8l0.2-3.5l0.2-3.2H144h-1.5l0.2-2.5h-3.2
			H135h-2.8L132,35h-1.9l0.2-2.5h-3.2h-4.4h-2.8l-0.2,2.5h-2.1h-2.8l-0.2,2.8l-0.2,3.5l-0.2,3.2h3.2h1.7l-0.2,3.3h-2.8h-2.5l0.8-1.2
			l-0.6-0.3l0.2-2.5l0.3-4.1l0.2-3.2h-3.2h-5.4l0.8-2l-3.3-0.8l-4.2-1.1l-2.6-0.6l-0.9,2.5c-0.1,0.2-0.1,0.4-0.2,0.6H94h-9.5h-2.8
			l-0.2,2.8l-0.4,6.3l-1.7-1.4c-0.3-0.3-0.7-0.6-1.1-0.8c0.8-1.1,1.4-2.3,1.9-3.5l1.1-2.8l-2.7-1.1l-2.3-1l-0.8-0.3l-0.9,0.2
			l-0.4,0.1h-8.7h-2.3l0.1-0.9H60h-3.6h-2.8l-0.2,2.8l0,0.6l-0.2,0L52,37.2c-1,1.2-2.1,2.1-3.5,2.7l-0.3,0.1l1.5-2.2l-2.3-1.7
			l-2.6-2l-1.1-0.8l-1.3,0.3l-0.6,0.1H33h-2.8l0,0H18.4h-2.8l-0.2,2.8l-0.9,13.3l-0.2,3.2h0.1l-0.2,2.6l0,0.4l-1.3,0.1l0.1,2.9
			l0.2,4.3l0.1,3.2l3.2-0.4c1.3-0.2,2.9-0.3,4.5-0.5c2.5-0.3,5.2-0.6,8-0.9L29,67h2.8c2.4,0,4.5-0.1,6.5-1c3.3-1.6,3.5-4.9,3.6-6.3
			L42,58l0.7,0.1l2.5,0.5l0.9-2.4c0.4-1.2,0.8-2.4,1.2-3.7l0,0c0.6,0.7,1.1,1.4,1.5,2.3l1.1,2.4l2-0.6l-0.1,2l-2.4,1.2l1.7,2.8
			c0.3,0.5,0.5,1.1,0.6,1.8l0.5,3.9l3.6-1.6c0.6-0.3,3.8-0.6,8.5-1.1l2.7-0.3l0-1.1c1.8,0.7,3.6,1.6,5.3,2.5l2.1,1.2l1.6-1.8
			l2.2-2.5l1.8-2h3.1h4h2.8l0.2-2.5h0.2c0,1.8,0.6,3.3,1.8,4.6c1.6,1.7,4.1,2.6,7.4,2.6h5.3c5.5,0,8.2-2.6,9.2-9.1h1.1l0,0.5
			c-0.2,2.7,0.4,4.8,1.8,6.3c2,2.2,5.3,2.5,8.2,2.5h10.7c4.9,0,6.5-0.2,7.3-0.5l2.5-0.7l-0.3-2.6c0,0,0-0.1,0-0.1l1.4,0.8
			c1,0.6,1.9,1.3,2.6,2.1l2.9,3l0.6-1.2l3.3-1.2c0.5-0.2,2.6-0.3,7.5-0.6c1.8-0.1,4-0.3,6.8-0.5l1.2,2.2l2.6-1.3l3.5-1.7l3.1-1.6
			l-2-2.8c-0.8-1.1-2-2.7-3.3-4.2l1.2-0.8c0.5,0,1.1-0.1,1.6-0.3l2.2-0.7l-0.1-2.3c0-0.4,0-0.9,0-1.4l0-0.1l0.1-4l-0.3,0.1l0-0.1
			l0.1-2h0l0.2-2.8l0.3-3.8l0.2-3.2h-3.2h-7.6c0-0.1-0.1-0.2-0.1-0.3L169.3,31.7L169.3,31.7z M45.4,43.8c0.1-0.2,0.3-0.3,0.4-0.5
			l1.5,1.2l-0.1,0l-1-0.2l-0.2,0L45.4,43.8L45.4,43.8z M79.2,47.5l0.3-0.3l1.5-1.4l-0.1,2L79.2,47.5L79.2,47.5z M108.7,52.6
			c0.8-0.5,1.6-1.1,2.5-1.8l0.2-0.1l0.2-0.2c0.4-0.4,0.7-0.8,1-1.3l0.6-0.9l-0.2,2.3l-0.2,3.3l-1.2-0.2
			C110.6,53.5,109.7,53.1,108.7,52.6L108.7,52.6L108.7,52.6z M77.7,56l0.6-0.9c0.6-0.9,1.3-1.8,2.1-2.5l0.1-0.1l-0.4,5.1L77.7,56
			L77.7,56L77.7,56z M103.8,56.2c0.1-0.1,0.3-0.2,0.4-0.3c0,0.1,0,0.2-0.1,0.3L103.8,56.2L103.8,56.2z M144.9,57.5h1.4
			c-0.3,0.9-0.6,1.7-0.9,2.4l-0.3,0.7c0-0.3,0-0.6,0-1L144.9,57.5L144.9,57.5z M79.1,60.1l0.9-0.7l-0.1,1.1L79.1,60.1L79.1,60.1z
			 M255.6,31.8l-1,2.7c-1.4,3.7-3.4,7.1-6.1,10.1l-1.3,1.5l0.8,1.8c0.6,1.4,1.1,2.8,1.5,4.3l1,4.2l-0.5,7.6l-0.2,3.2h3.2h4.2h2.8
			l0-0.1h3.5h2.8l0.1-1.7h4.2l-0.1,1.5h3.2h4.2h2.8l0.2-2.8l0.3-4.3l0,0l0.4,3.1l3.1-0.6l0.9-0.2c2.7-0.5,6-1.2,9.2-1.8l0.4,0.6
			c0.6,0.9,0.9,1.9,1,3l0.1,2.7l2.7,0.1c0.8,0,1.7,0.1,2.5,0.1c1.2,0,2.4,0,3.5-0.1l0.1,0l0.1,0c1.9-0.2,4-0.7,5.8-2.7
			c0.7-0.8,1.3-1.8,1.8-3.2L314,62c0.8,0.9,1.3,1.9,1.7,3.1l0.9,2.6l2.7-0.6c4.9-1.1,8-2.9,10-5.2c0.2,1,0.6,2,1.4,2.9
			c1.6,1.8,4,2,5.9,2h3.3c4.1,0,6.1-2,7.1-4.5l1,0.8c1,0.8,1.9,1.8,2.6,2.9l1.5,2.3l2.4-1.3c2.9-1.5,5.4-3.4,7.4-5.7
			c0.4,0.8,0.6,1.7,0.6,2.6l0.1,2.8l2.8,0.2c0.6,0,1.2,0.1,1.8,0.1c1.2,0,2.4-0.1,3.5-0.2c2.2-0.2,4.2-1.3,5.5-3
			c1.9-2.2,2.9-6.3,4.4-19.6c0.1-0.7,0.2-1.9,0.2-2.2l0.3-3.3h-3.3H369l0.2-2.8l0.2-3.2h-3.2h-4.7h-2.8l-0.2,2.8l-0.2,3.2h-6.1h-2.8
			l-0.2,2.8l-0.3,4.5l-0.2,3.2h3.2h4.8c-1.5,4-4.1,6.9-8.2,8.9l-0.5,0.3c0-0.1,0-0.2,0.1-0.4l0.4-2.7l-2.7-0.7
			c-0.4-0.1-0.9-0.2-1.3-0.4l0-0.2l0.6-9.1h0.1h2.8l0.2-2.8l0.3-3.9l0.2-3.2h-3.2h-7.9l0.2-2.3h-3.2h-4.5h-2.8l-0.2,2.3h-8h-2.5
			l0-0.6h-3.2h-16.6H294l-0.1,2H285h-2.3l0.2-2.3h-3.2h-17.6l-3.8-1.2L255.6,31.8L255.6,31.8z M315.4,44.6h0.3l0,0.1h3.1l-0.6,8.7
			l-0.2,3.2c-0.6,0.2-1.3,0.3-2.2,0.5l-2.1,0.4c0.4-2.1,0.8-4.8,1.2-8.5l0.2-1.9L315.4,44.6L315.4,44.6z M282.1,46.5h2.7h0.5l-0.3,5
			c-0.6,0.1-1.2,0.2-1.7,0.2l-1.4,0.2L282.1,46.5L282.1,46.5z M367.8,49.1h1.6c-0.6,4.4-1.1,6.4-1.4,7.3c-0.7,0-1.7,0-2.8-0.1
			C366.4,54.1,367.2,51.7,367.8,49.1L367.8,49.1z M298.8,53.9h4.9c-0.2,1.2-0.4,1.9-0.5,2.3c-0.9,0-2.6,0-4.4-0.1L298.8,53.9
			L298.8,53.9z"/>
	</g>
	<g>
		<path id="野餐吃甚麼_個巧克力__3_" class="st0" d="M21.3,45h1.4l-0.1,1.7h-1.4L21.3,45z M21.6,40.3h1.4L23,41.9h-1.4
			L21.6,40.3z M28,41.9h-1.4l0.1-1.6h1.4L28,41.9z M27.6,46.7h-1.4l0.1-1.7h1.4L27.6,46.7z M25.9,55.9h4.8l0.3-3.9h-4.8l0.1-1.9H31
			L32,36.8H18.4l-0.9,13.3h4.7L22,52h-4.6l-0.3,3.9h4.6l-0.2,2.6c-2.1,0.2-4,0.3-5.6,0.4l0.2,4.3c4-0.5,9.5-1.1,14.6-1.7l0.2-3.8
			c-1.7,0.2-3.4,0.3-5.2,0.5L25.9,55.9z M42.7,46.7L42,46.8H42l1-1c-0.7-0.5-1.5-1-2.2-1.5c1.9-1.7,3.5-3.6,4.9-5.7l-2.6-2l-0.9,0.2
			H33l-0.3,3.9H39c-0.5,0.6-0.9,1.2-1.5,1.8c-0.7-0.4-1.5-0.7-2.2-1l-2.9,2.7c1.6,0.8,3.2,1.6,4.7,2.6h-5.3l-0.3,4.1h3.5l-0.6,8.5
			c0,0.4-0.2,0.5-0.6,0.5c-1,0-2,0-3.1-0.1c0.5,1.4,0.8,2.8,0.9,4.3c2.2,0,3.8-0.1,5.2-0.7c1.4-0.7,1.8-1.9,1.9-3.8l0.6-8.6h1.2
			c-0.3,1.4-0.6,2.7-0.9,3.6l3.5,0.7c0.9-2.6,1.7-5.3,2.3-8L42.7,46.7z M59.1,42c-0.7,0.7-1.6,1.4-2.4,1.9c-0.5-0.5-1.1-0.9-1.7-1.3
			c0.2-0.2,0.5-0.4,0.7-0.6H59.1z M61.8,39.6l-0.6,0.1h-1.4l0-0.7h4.7l0.2-2.5h-4.7l0.1-1h-3.6l-0.3,4l-1.8-0.3
			c-1.2,1.5-2.8,2.7-4.5,3.5c0.8,0.6,1.5,1.4,2,2.3c0.3-0.2,0.6-0.4,0.9-0.6c0.4,0.3,0.9,0.7,1.3,1.1c-1.2,0.6-2.5,1-3.8,1.4
			c0.7,0.8,1.4,1.7,1.9,2.6c4.7-1.5,9.4-4.3,11.9-8.6L61.8,39.6z M57,51.6c1-0.4,2.1-1,3.1-1.5L60,51.2h7.5l0.1-1c1,0.5,2,1,3,1.4
			L57,51.6L57,51.6z M71.4,58.4c-0.4,0.3-0.7,0.6-1.1,0.8c-0.8-0.3-1.6-0.6-2.4-0.8H71.4L71.4,58.4z M58.8,60l0.1-1.6h4.7l-1.1,1.2
			l0.3,0.1L58.8,60z M59.1,55.7h9.1l0,0.6h-9.1L59.1,55.7z M59.3,53.7h9.1l0,0.5h-9.1L59.3,53.7z M61.6,49.2
			c0.7-0.4,1.4-0.9,2.1-1.4c0.7,0.5,1.4,0.9,2.1,1.4H61.6L61.6,49.2z M72.2,39.3c-0.5,0.6-1,1.1-1.6,1.5c-1.1-0.6-2.2-1.1-3.3-1.5
			H72.2L72.2,39.3z M77.4,45c-1.1-0.9-2.3-1.8-3.6-2.5c1.5-1.5,2.8-3.3,3.6-5.3l-2.3-1l-0.7,0.1h-9l-0.2,2.9h2l-2.5,2.3
			c0.8,0.4,1.7,0.8,2.6,1.3c-0.6,0.3-1.3,0.5-1.9,0.7c0.2,0.2,0.4,0.5,0.6,0.7l-1.9-1c-3.3,3.4-9.2,5.9-14.6,7.3
			c0.8,0.9,1.5,1.9,2,3.1c1.2-0.4,2.5-0.8,3.7-1.3l-0.5,6.8c0,0.8-0.4,1.6-1.1,1.9c0.5,0.9,0.9,1.9,1,2.9c0.8-0.4,2.1-0.6,9.4-1.3
			c0-0.8,0.1-1.7,0.2-2.5c3.3,1,6.5,2.4,9.5,4.1l2.2-2.5c-0.9-0.5-1.8-0.9-2.7-1.3c0.9-0.6,1.9-1.3,2.8-2l-2.8-1.9
			c-0.3,0.3-0.7,0.7-1.1,1l0.4-5.3c1.1,0.4,2.2,0.7,3.2,1c0.7-1.1,1.6-2.1,2.6-3.1c-4.2-0.9-9.2-2.6-12.2-4.5
			c0.2-0.2,0.4-0.4,0.5-0.5c0.2,0.4,0.4,0.7,0.6,1.1c1.2-0.4,2.4-1,3.5-1.6c1.4,0.8,2.7,1.8,3.9,2.8L77.4,45z M89.1,52.1h-1.6
			l0.7-9.9h1.6L89.1,52.1z M99.6,59.2c-1.2,0-1.9-0.2-1.8-1c0.1-1,0.9-2.4,11.7-9.9c0.2-0.2,0.4-0.5,0.6-0.8l-2.8-1.7l-1,0.1h-9.4
			c0.7-0.8,1.3-1.6,1.9-2.5H111l0.3-4.1h-10c0.5-1,0.9-2,1.3-2.9l-4.2-1c-1.1,2.9-2.7,5.6-4.8,7.9L94,38h-9.5l-1.5,20.8h4l0.2-2.5
			h5.5l0.8-10.8c0.7,0.6,1.4,1.3,2.1,2c0.2-0.2,0.4-0.4,0.6-0.7L96,50.1h4.5c-6.6,5.3-7.1,7.1-7.2,8.8c-0.2,2.8,1.7,4.6,6.2,4.6h5.3
			c3.7,0,5.5-1.2,6.3-6.9c-1.3-0.3-2.6-0.7-3.8-1.4c-0.4,3.6-0.9,4-2,4H99.6L99.6,59.2z M122.7,54.5h3.5c-0.5,1.4-1.6,2.3-3.7,2.9
			L122.7,54.5z M124.8,60.1c-2.1,0-2.5-0.5-2.4-1.7l0.1-0.7c0.9,0.7,1.8,1.6,2.6,2.5H124.8z M126.1,49.6h7.9l-0.1,1.2H126
			L126.1,49.6z M134.6,41.5l-0.1,1h-7.9l0.1-1H134.6L134.6,41.5z M126.4,45.5h7.9l-0.1,1h-7.9L126.4,45.5z M143.5,54.5l0.3-3.6h-5.4
			l0.7-9.3h4.7L144,38h-4.7l0.2-2.5H135l-0.2,2.5h-7.9l0.2-2.5h-4.4l-0.2,2.5h-4.9l-0.2,3.5h4.9l-0.7,9.3h-5.6l-0.3,3.6h2.5
			l-0.3,3.8c-0.3,4.2,1.6,5.6,6.9,5.6h10.7c2.3,0,5.4-0.1,6.6-0.4c-0.1-1-0.2-2.6-0.2-3.8c-2.2,0.3-4.3,0.4-6.5,0.4h-10.2
			c2.4-1,4.3-3,4.9-5.6h1.7l0,0.7c-0.2,3,0.5,4.2,3.9,4.2h3c0.8,0,1.7-0.1,2.5-0.2c-0.1-0.9-0.1-2.3-0.1-3.2
			c-0.8,0.2-1.5,0.2-2.3,0.2h-2.7c-0.6,0-0.7-0.3-0.6-0.9l0-0.7H143.5L143.5,54.5z M176,50.4c-0.4,0-0.4-0.2-0.3-0.7l0.2-2.8h-2.3
			l-0.2,2.8c-0.1,1.6,0.1,2.4,1.9,2.4h0.9c0.4,0,0.9,0,1.3-0.2c0-0.6,0-1.2,0-1.7c-0.4,0.1-0.8,0.2-1.2,0.1H176L176,50.4z
			 M172.6,52.3l0.4-6.1h4l0.2-3.2h-4l0.1-1.1h-3.2l-0.1,1.1h-3.5l-0.2,3.2h3.5l-0.4,6.1H172.6L172.6,52.3z M155.5,41.4h21.9l0.3-3.8
			h-10c-0.1-0.8-0.3-1.7-0.5-2.5l-4.5,0.8c0.1,0.5,0.2,1.1,0.3,1.7h-11.2l-0.6,8.2c-0.3,4.4-0.9,11-3.1,15.4
			c1.2,0.7,2.3,1.6,3.3,2.6c2.6-4.9,3.6-13,3.9-18L155.5,41.4z M158.5,47h-2.3l-0.1,1.1c0,1.2-0.5,2.3-1.4,3.1
			c0.7,0.4,1.4,1,1.9,1.6c1.4-1.3,1.7-3.1,1.8-4.6L158.5,47z M168.4,57.7c0.4,0.5,0.8,1.1,1.3,1.6l-6.6,0.4c3.2-1.5,6.3-3.2,9.2-5.2
			l-3-2.2c-1.3,1-2.7,1.9-4,2.8l-3.8,0.1c1.5-0.7,3-1.6,4.4-2.5l-1.7-1.1h0.4c0.4,0,0.8,0,1.2-0.1c0-0.2,0-0.3,0-0.5
			c0.6,0.4,1.1,0.9,1.6,1.4c1.5-1.2,1.8-2.9,1.9-4.4l0.1-1.2H167l-0.1,1c0,1-0.5,2-1.2,2.6c0-0.2,0-0.5,0-0.7
			c-0.3,0.1-0.6,0.1-0.9,0.1c-0.2,0-0.3-0.2-0.2-0.6l0.2-2.3h-2.2l-0.2,2.2c-0.1,0.8,0,1.5,0.4,1.8c-0.3,0.2-0.6,0.5-0.9,0.7
			l0.4-5.7h3.5l0.2-3.2h-3.5l0.1-1.1h-3.2l-0.1,1.1h-3l-0.2,3.2h3l-0.4,6h2.9c-1.2,0.8-2.5,1.5-3.8,2.1c-0.7,0.4-1.4,0.6-2.1,0.7
			c0.3,1,0.6,2.1,0.8,3.2c0.5-0.2,1.2-0.3,4.5-0.6c-1.2,0.6-2.2,1.1-2.8,1.3c-1.2,0.6-2.4,1-3.7,1.3c0.3,1.1,0.6,2.3,0.8,3.4
			c1.2-0.4,3-0.4,16.9-1.4c0.3,0.5,0.7,1,0.9,1.4l3.5-1.7c-1.1-1.5-3.1-4-4.6-5.7L168.4,57.7z M257.4,35.5c-1.5,4.1-3.8,7.8-6.7,11
			c0.7,1.5,1.3,3.2,1.7,4.8c0.5-0.6,1.1-1.2,1.6-1.8l-1,14.5h4.2l1.5-21.6c1-1.8,1.9-3.7,2.7-5.7L257.4,35.5z M270.1,54.5h-1.9
			l0.2-2.3h1.9L270.1,54.5z M274.4,47l0.2-3.1h-3.1l0.2-2.9h-3.3l-0.2,2.9h-2.8l-0.2,3.1h2.8l-0.2,2.2h-2.3l-0.6,8.1h8.2l0.6-8.1
			h-2.6l0.2-2.2H274.4L274.4,47z M263.8,58.5l1.2-17.9h10.2l-1.3,17.9H263.8L263.8,58.5z M261.4,36.9L259.5,64h4l0.1-1.7h10.2
			l-0.1,1.5h4.2l1.9-26.9L261.4,36.9L261.4,36.9z M292.1,53.3l0.7-9.8h3l0.3-4.3H285l-0.3,4.3h3.7l-0.7,10.5c-1.5,0.2-3,0.5-4.2,0.6
			l0.6,4.5c3.4-0.7,7.7-1.5,11.7-2.4l-0.1-4.2L292.1,53.3z M313.2,41.6l0.3-4.4h-16.6l-0.3,4.4h3.3c-0.8,3.3-1.8,6.8-2.7,9.3h10
			c-0.6,4.8-1.2,7.4-2,8c-0.5,0.3-1,0.4-1.6,0.4c-1.1,0-3.5,0-5.9-0.2c0.9,1.3,1.4,2.9,1.5,4.5c1.9,0.1,3.8,0.1,5.7-0.1
			c1.7-0.2,2.8-0.5,4-1.7c1.3-1.4,2.1-4.9,3-13.2l0.2-1.9H303c0.5-1.6,0.9-3.4,1.4-5.1H313.2z M325.8,47.4h11.8l-0.2,2.4h-11.7
			L325.8,47.4z M337.5,59.6c-0.9,0-1.1-0.1-1-1.2l0.3-4.7h4.7l0.7-10H334l0.1-1.9h11.2l0.3-3.9h-11.2l0.2-2.3h-4.5l-0.2,2.3h-10.8
			l-0.3,3.9h10.8l-0.1,1.9h-7.7l-0.7,10h3.6c-0.6,3.2-1.7,5.2-8.5,6.4c1,1.2,1.8,2.6,2.2,4.1c8.3-1.9,10.1-5.5,11-10.5h2.9l-0.3,4.8
			c-0.3,3.9,0.6,5.2,4.5,5.2h3.3c3.2,0,4.4-1.3,5.3-6.3c-1.4-0.3-2.7-0.9-3.9-1.7c-0.4,3.4-0.6,3.9-1.5,3.9L337.5,59.6L337.5,59.6z
			 M365.8,41.6l0.4-6h-4.7l-0.4,6h-8.9l-0.3,4.5h8.7c-0.9,5.1-3.3,11-10.7,14.6c1.2,1,2.3,2.2,3.2,3.6c8.6-4.5,11.3-11.9,12.2-18.2
			h7.5c-1,8.1-1.8,11.9-2.8,12.7c-0.4,0.4-0.9,0.5-1.4,0.5c-0.8,0-2.5,0-4.3-0.2c0.8,1.4,1.2,2.9,1.2,4.5c1.6,0.1,3.2,0,4.8-0.1
			c1.4-0.1,2.7-0.8,3.5-1.9c1.5-1.7,2.4-6.3,3.8-18.1c0.1-0.6,0.2-2,0.2-2H365.8L365.8,41.6z"/>
		<path id="野餐吃甚麼_個巧克力__1_" class="st2" d="M167.1,35.1c0.2,0.8,0.4,1.6,0.5,2.5h10l-0.3,3.8h-21.9l-0.3,4.4
			c-0.3,5-1.3,13-3.9,18c-1-1-2.1-1.9-3.3-2.6c2.2-4.4,2.7-10.9,3.1-15.4l0.6-8.2h11.2c-0.1-0.6-0.2-1.2-0.3-1.7L167.1,35.1
			 M334.6,35.4l-0.2,2.3h11.2l-0.3,3.9h-11.2l-0.1,1.9h8.3l-0.7,10h-4.7l-0.3,4.7c-0.1,1.1,0.1,1.2,1,1.2l0,0h2.2
			c0.9,0,1.1-0.5,1.5-3.9c1.2,0.8,2.5,1.4,3.9,1.7c-0.8,5-2,6.3-5.3,6.3h-3.3c-3.9,0-4.8-1.3-4.5-5.2l0.3-4.8h-2.9
			c-0.9,5-2.7,8.6-11,10.5c-0.5-1.5-1.2-2.9-2.2-4.1c6.8-1.2,7.9-3.2,8.5-6.4h-3.6l0.7-10h7.7l0.1-1.9h-10.8l0.3-3.9H330l0.2-2.3
			H334.6 M325.6,49.8h11.7l0.2-2.4h-11.8L325.6,49.8 M98.4,35.5l4.2,1.1c-0.4,1-0.9,2-1.3,2.9h10l-0.3,4.1H98.9
			c-0.6,0.9-1.2,1.7-1.9,2.5h9.4l1-0.1l2.8,1.7c-0.2,0.3-0.4,0.5-0.6,0.8c-10.8,7.6-11.6,9-11.7,9.9c-0.1,0.7,0.6,1,1.8,1h0h5.7
			c1.1,0,1.6-0.4,2-4c1.2,0.7,2.5,1.1,3.8,1.4c-0.8,5.7-2.6,6.9-6.3,6.9h-5.3c-4.5,0-6.4-1.8-6.2-4.6c0.1-1.8,0.6-3.5,7.2-8.8H96
			l0.2-3.2c-0.2,0.2-0.4,0.4-0.6,0.7c-0.7-0.7-1.4-1.3-2.1-2l-0.8,10.8h-5.5L87,58.8h-4L84.5,38H94l-0.4,5.3
			C95.7,41.1,97.3,38.4,98.4,35.5 M87.5,52.1h1.6l0.7-9.9h-1.6L87.5,52.1 M139.5,35.5l-0.2,2.5h4.7l-0.2,3.5h-4.7l-0.7,9.3h5.4
			l-0.3,3.6h-7.9l0,0.7c0,0.7,0,0.9,0.6,0.9h2.7c0.8,0,1.5-0.1,2.3-0.2c0,1,0,2.3,0.1,3.2c-0.7,0.2-1.5,0.2-2.2,0.2
			c-0.1,0-0.2,0-0.3,0h-3c-3.4,0-4.1-1.2-3.9-4.2l0-0.7h-1.7c-0.6,2.5-2.5,4.6-4.9,5.6h10.2c0.1,0,0.1,0,0.2,0
			c2.1,0,4.2-0.1,6.3-0.4c0,1.2,0.1,2.8,0.2,3.8c-1.2,0.3-4.2,0.4-6.6,0.4H125c-5.4,0-7.2-1.3-6.9-5.6l0.3-3.8h-2.5l0.3-3.6h5.6
			l0.7-9.3h-4.9l0.2-3.5h4.9l0.2-2.5h4.4l-0.2,2.5h7.9l0.2-2.5H139.5 M126.6,42.5h7.9l0.1-1h0h-7.9L126.6,42.5 M126.3,46.5h7.9
			l0.1-1h-7.9L126.3,46.5 M126,50.8h7.9l0.1-1.2h-7.9L126,50.8 M122.5,57.4c2.1-0.6,3.2-1.5,3.7-2.9h-3.5L122.5,57.4 M124.8,60.1
			h0.2c-0.8-0.9-1.6-1.7-2.6-2.5l-0.1,0.7C122.3,59.6,122.7,60.1,124.8,60.1 M60,35.5l-0.1,1.1h4.7L64.5,39h-4.7l0,0.7h1.4l0.6-0.1
			l2.3,1.3c-2.5,4.3-7.2,7-11.9,8.6c-0.5-1-1.1-1.8-1.9-2.6c1.3-0.4,2.6-0.8,3.8-1.4c-0.4-0.4-0.9-0.7-1.3-1.1
			c-0.3,0.2-0.6,0.4-0.9,0.6c-0.5-0.9-1.2-1.6-2-2.3c1.7-0.8,3.3-2,4.5-3.5l1.8,0.3l0.3-4H60 M56.7,43.9c0.9-0.6,1.7-1.2,2.4-1.9
			h-3.5c-0.2,0.2-0.5,0.4-0.7,0.6C55.6,43,56.2,43.4,56.7,43.9 M257.4,35.5l3.9,1.2c-0.8,1.9-1.7,3.8-2.7,5.7l-1.5,21.6H253l1-14.5
			c-0.5,0.7-1.1,1.3-1.6,1.8c-0.4-1.7-1-3.3-1.7-4.8C253.6,43.4,255.9,39.6,257.4,35.5 M366.2,35.5l-0.4,6h0h12.1c0,0-0.1,1.4-0.2,2
			c-1.4,11.8-2.3,16.4-3.8,18.1c-0.8,1.1-2.1,1.8-3.5,1.9c-1.1,0.1-2.1,0.2-3.2,0.2c-0.5,0-1.1,0-1.6,0c0-1.6-0.4-3.1-1.2-4.5
			c1.8,0.2,3.5,0.2,4.3,0.2c0,0,0.1,0,0.1,0c0.5,0,0.9-0.2,1.3-0.5c0.9-0.9,1.8-4.7,2.8-12.7h-7.5c-0.9,6.3-3.6,13.6-12.2,18.2
			c-0.9-1.3-2-2.6-3.2-3.6c7.4-3.6,9.8-9.5,10.7-14.6h-8.7l0.3-4.5h8.9l0.4-6H366.2 M75.1,36.3l2.3,1c-0.8,2-2,3.8-3.6,5.3
			c1.3,0.7,2.5,1.6,3.6,2.5l-2.8,2.7c-1.2-1.1-2.5-2-3.9-2.8c-1.1,0.6-2.3,1.2-3.5,1.6c-0.2-0.4-0.4-0.8-0.6-1.1
			c-0.2,0.2-0.4,0.4-0.5,0.5c3,1.8,8,3.6,12.2,4.5c-1,0.9-1.8,1.9-2.6,3.1c-1-0.3-2.1-0.6-3.2-1l-0.4,5.3c0.4-0.4,0.8-0.7,1.1-1.1
			l2.8,1.9c-0.9,0.7-1.9,1.3-2.8,2c0.9,0.4,1.8,0.8,2.7,1.3l-2.2,2.5c-3-1.7-6.2-3.1-9.5-4.1c-0.1,0.8-0.2,1.7-0.2,2.5
			c-7.3,0.7-8.6,0.9-9.4,1.3c-0.1-1-0.5-2-1-2.9c0.7-0.4,1.2-1.1,1.1-1.9l0.5-6.8c-1.2,0.5-2.5,0.9-3.7,1.3c-0.5-1.1-1.2-2.2-2-3.1
			c5.4-1.4,11.4-3.9,14.6-7.3l1.9,1c-0.2-0.3-0.4-0.5-0.6-0.7c0.7-0.2,1.3-0.4,1.9-0.7c-0.9-0.5-1.8-0.9-2.6-1.3l2.5-2.3h-2l0.2-2.9
			h9L75.1,36.3 M70.6,40.8c0.6-0.5,1.1-1,1.6-1.5h-4.8C68.4,39.7,69.5,40.2,70.6,40.8 M61.6,49.2h4.2c-0.8-0.4-1.5-0.9-2.1-1.4
			C63,48.3,62.3,48.8,61.6,49.2L61.6,49.2 M57,51.6h13.5c-1-0.4-2-0.9-3-1.4l-0.1,1H60l0.1-1.1C59.1,50.6,58.1,51.1,57,51.6L57,51.6
			 M59.2,54.3h9.1l0-0.5h-9.1L59.2,54.3 M59.1,56.3h9.1l0-0.6h-9.1L59.1,56.3 M70.3,59.3c0.4-0.3,0.7-0.5,1.1-0.8h0h-3.5
			C68.7,58.7,69.5,59,70.3,59.3 M58.8,60l4-0.3l-0.3-0.1l1.1-1.2h-4.7L58.8,60 M43,36.6l2.6,2c-1.4,2.1-3.1,4-4.9,5.7
			c0.8,0.5,1.5,1,2.2,1.5l-1,1H42l0.6-0.1l2.9,0.6c-0.6,2.7-1.4,5.4-2.3,8l-3.5-0.7c0.3-1,0.6-2.3,0.9-3.6h-1.2l-0.6,8.6
			c-0.1,2-0.6,3.2-1.9,3.8C35.6,64,34,64,31.8,64c-0.1-1.5-0.4-2.9-0.9-4.3c0.7,0.1,1.4,0.1,2.1,0.1c0.3,0,0.6,0,0.9,0
			c0.4,0,0.6-0.1,0.6-0.5l0.6-8.5h-3.5l0.3-4.1h5.3c-1.5-1-3.1-1.9-4.7-2.6l2.9-2.7c0.7,0.3,1.4,0.6,2.2,1c0.5-0.6,1-1.1,1.5-1.8
			h-6.3l0.3-3.9h9.1L43,36.6 M32,36.8L31,50.1h-4.7L26.2,52h4.8l-0.3,3.9h-4.8l-0.2,2.3c1.7-0.1,3.5-0.3,5.2-0.5l-0.2,3.8
			c-5.1,0.7-10.6,1.3-14.6,1.7L15.9,59c1.6-0.1,3.5-0.3,5.6-0.4l0.2-2.6h-4.6l0.3-3.9H22l0.1-1.9h-4.7l0.9-13.3H32 M26.6,41.9H28
			l0.1-1.6h-1.4L26.6,41.9 M21.5,41.9H23l0.1-1.6h-1.4L21.5,41.9 M26.2,46.7h1.4l0.1-1.7h-1.4L26.2,46.7 M21.2,46.7h1.4l0.1-1.7
			h-1.4L21.2,46.7 M261.4,36.9L261.4,36.9l18.3,0l-1.9,26.9h-4.2l0.1-1.5h-10.2l-0.1,1.7h-4L261.4,36.9 M263.8,58.5L263.8,58.5h10.2
			l1.3-17.9h-10.2L263.8,58.5 M313.5,37.2l-0.3,4.4h-8.8c-0.4,1.7-0.9,3.5-1.4,5.1h9.1l-0.2,1.9c-1,8.3-1.7,11.8-3,13.2
			c-1.2,1.2-2.3,1.6-4,1.7c-1.1,0.1-2.2,0.1-3.3,0.1c-0.8,0-1.6,0-2.4-0.1c-0.1-1.6-0.6-3.2-1.5-4.5c2.4,0.2,4.8,0.2,5.9,0.2
			c0.1,0,0.2,0,0.2,0c0.5,0,1-0.1,1.4-0.4c0.8-0.6,1.4-3.1,2-8h-10c0.9-2.5,1.9-6,2.7-9.3h-3.3l0.3-4.4H313.5 M296.1,39.2l-0.3,4.3
			h-3l-0.7,9.8l3.6-0.6l0.1,4.2c-4,0.9-8.3,1.7-11.7,2.4l-0.6-4.5c1.2-0.2,2.6-0.4,4.2-0.6l0.7-10.5h-3.7l0.3-4.3H296.1 M271.7,41
			l-0.2,2.9h3.1l-0.2,3.1h0h-3.1l-0.2,2.2h2.6l-0.6,8.1h-8.2l0.6-8.1h2.3L268,47h-2.8l0.2-3.1h2.8l0.2-2.9H271.7 M268.2,54.5h1.9
			l0.2-2.3h-1.9L268.2,54.5 M173.4,41.8l-0.1,1.1h4l-0.2,3.2h-4l-0.4,6.1h-3.2l0.4-6.1h-3.5l0.2-3.2h3.5l0.1-1.1H173.4 M162.5,41.8
			l-0.1,1.1h3.5l-0.2,3.2h-3.5l-0.4,5.7c0.3-0.2,0.6-0.4,0.9-0.7c-0.4-0.4-0.4-1-0.3-1.8l0.2-2.2h2.2l-0.2,2.3c0,0.4,0,0.6,0.2,0.6
			c0.3,0,0.6-0.1,0.9-0.1c0,0.2,0,0.5,0,0.7c0.8-0.7,1.2-1.6,1.2-2.6l0.1-1h2.3l-0.1,1.2c-0.1,1.4-0.4,3.2-1.9,4.4
			c-0.5-0.5-1-1-1.6-1.4c0,0.2,0,0.3,0,0.5c-0.3,0.1-0.7,0.1-1,0.1c-0.1,0-0.1,0-0.2,0h-0.4l1.7,1.1c-1.4,0.9-2.9,1.8-4.4,2.5
			l3.8-0.1c1.4-0.9,2.8-1.8,4-2.8l3,2.2c-2.9,2-6,3.8-9.2,5.2l6.6-0.4c-0.5-0.6-0.9-1.1-1.3-1.6l3.2-1.5c1.4,1.7,3.5,4.2,4.6,5.7
			l-3.5,1.7c-0.2-0.4-0.5-0.9-0.9-1.4c-13.9,1-15.7,1-16.9,1.4c-0.2-1.2-0.4-2.3-0.8-3.4c1.3-0.3,2.5-0.7,3.7-1.3
			c0.6-0.2,1.6-0.7,2.8-1.3c-3.3,0.2-4,0.4-4.5,0.6c-0.2-1.1-0.4-2.1-0.8-3.2c0.7-0.1,1.4-0.4,2.1-0.7c1.3-0.6,2.6-1.3,3.8-2.1h-2.9
			l0.4-6h-3l0.2-3.2h3l0.1-1.1H162.5 M175.8,47l-0.2,2.8c0,0.4,0,0.7,0.3,0.7h0h0.2c0,0,0.1,0,0.1,0c0.4,0,0.8,0,1.1-0.1
			c0,0.5,0,1.1,0,1.7c-0.4,0.1-0.7,0.2-1.1,0.2c-0.1,0-0.1,0-0.2,0h-0.9c-1.7,0-2-0.8-1.9-2.4l0.2-2.8H175.8 M158.5,47l-0.1,1.2
			c-0.1,1.5-0.4,3.3-1.8,4.6c-0.5-0.6-1.2-1.2-1.9-1.6c0.9-0.8,1.4-1.9,1.4-3.1l0.1-1.1H158.5 M172.6,52.3L172.6,52.3L172.6,52.3
			 M143.5,54.5L143.5,54.5L143.5,54.5 M168.4,33.2l-1.6,0.3l-4.5,0.8l-1.8,0.3l0.3,1.3h-9.1h-1.6l-0.1,1.6l-0.6,8.2
			c-0.2,3.4-0.7,10.3-2.9,14.7l-0.7,1.5l1.4,0.8c1.1,0.6,2,1.4,2.9,2.3l1.7,1.8l1.1-2.2c0.1-0.2,0.3-0.5,0.4-0.8c0,0,0,0.1,0,0.1
			l0.3,2.1l2-0.7c0.7-0.2,2.2-0.3,7.9-0.7c2-0.1,4.4-0.3,7.5-0.5c0.1,0.1,0.2,0.3,0.2,0.4L172,66l1.5-0.8l3.5-1.7l1.8-0.9l-1.1-1.7
			c-1-1.4-2.6-3.5-4.1-5.2l1.8-1.2l-0.9-0.7c0.3,0,0.6,0,0.7,0h0.9c0.1,0,0.2,0,0.2,0c0.5,0,1.1-0.1,1.6-0.2l1.3-0.4l0-1.4
			c0-0.5,0-1,0-1.5l0-0.1l0-2.3l-1.7,0.4l0-0.5h1.2l0.1-1.6l0.2-3.2h0l0.1-1.6l0.3-3.8l0.1-1.9h-1.9h-8.6c-0.1-0.4-0.2-0.8-0.3-1.2
			L168.4,33.2L168.4,33.2z M256.4,33.4l-0.6,1.6c-1.4,3.9-3.6,7.4-6.3,10.5l-0.8,0.9l0.5,1c0.7,1.4,1.2,3,1.6,4.5l0.8,3.1l0.4-0.5
			l-0.7,9.5l-0.1,1.9h1.9h4.2h1.6l0-0.1h0.7h4h1.6l0.1-1.6l0-0.1h6.7l-0.1,1.5h1.9h4.2h1.6l0.1-1.6l1.9-26.9l0.1-1.9h-1.9h-17.8l0,0
			l-3.9-1.2L256.4,33.4L256.4,33.4z M97.3,33.4l-0.5,1.5c-0.3,0.8-0.6,1.5-1,2.2l0.1-0.8H94h-9.5h-1.6l-0.1,1.6L82,49.4l-3.2-0.7
			c-0.7-0.1-1.4-0.3-2.1-0.5l2-1.9l1.4-1.4l-1.5-1.3c-0.7-0.5-1.3-1-2-1.5c1-1.3,1.9-2.7,2.5-4.3l0.6-1.6l-1.6-0.7l-2.3-1l-0.5-0.2
			l-0.5,0.1l-0.5,0.1h-8.8h-1.6l0,0.1h-2l0.1-1.1H60h-3.6h-1.6l-0.1,1.6l-0.1,2l-0.8-0.2L53,38c-1.1,1.3-2.4,2.3-3.9,3.1l-2.5,1.2
			l2.2,1.7c0.4,0.3,0.8,0.7,1.1,1.1c0,0,0,0,0,0l-2.5,0.7l-1.3-0.3l-0.5-0.1L44,44.4c-0.2-0.1-0.3-0.2-0.5-0.4
			c1.3-1.4,2.5-2.9,3.6-4.5l0.9-1.4l-1.3-1l-2.6-2l-0.6-0.5l-0.8,0.2l-0.8,0.2H33h-1.6l0,0h-13h-1.6l-0.1,1.6L15.7,50l-0.1,1.9h0.1
			l0,0.1l-0.3,3.9l-0.1,1.5l-1.2,0.1l0.1,1.7l0.2,4.3l0.1,1.9l1.9-0.2c1.3-0.2,2.9-0.3,4.5-0.5c2.9-0.3,6.1-0.7,9.2-1.1
			c0,0.2,0.1,0.5,0.1,0.7l0.1,1.6h1.6c2.3,0,4.2-0.1,5.9-0.9c2.3-1.1,2.8-3.3,2.9-5.3l0.2-3.1l2.1,0.4l1.5,0.3l0.5-1.4
			c0.7-1.9,1.3-3.8,1.8-5.8l1.5,1.7c0.7,0.8,1.3,1.7,1.7,2.6l0.6,1.4l1.5-0.5c0.4-0.1,0.8-0.3,1.2-0.4L53,59l0,0.1l0,0.1
			c0,0.1-0.1,0.2-0.2,0.3l-1.7,0.8l1,1.6c0.4,0.7,0.7,1.4,0.8,2.2l0.3,2.3l2.1-0.9c0.6-0.3,2.1-0.5,8.9-1.2l1.6-0.1l0-1.6
			c0-0.1,0-0.1,0-0.2c2.5,0.9,4.9,2,7.1,3.3l1.2,0.7l0.9-1l2.2-2.5l1.5-1.6l-1.9-1.1c0,0-0.1,0-0.1-0.1c0.1-0.1,0.2-0.2,0.4-0.3
			l2.1-1.5l-2.1-1.4l-2.8-1.9l-0.1-0.1l0-0.3c0.4,0.1,0.8,0.2,1.2,0.3l1.2,0.4l0.7-1.1c0.7-1,1.4-1.9,2.3-2.8l2.4-2.3l-0.6,9.3
			l-0.1,1.9h1.9h4h1.6l0.1-1.6l0.1-0.8h2.7c0,0.2-0.1,0.5-0.1,0.7c-0.1,1.7,0.4,3.2,1.4,4.3c1.4,1.5,3.5,2.2,6.5,2.2h5.3
			c4.9,0,7.1-2.3,8-8.4l0.2-1.7l-1.7-0.3c-1.1-0.2-2.2-0.6-3.2-1.2l-1.8-1c1.2-0.9,2.5-1.8,4.1-2.9l0.1-0.1l0.1-0.1
			c0.3-0.3,0.6-0.7,0.9-1.1l1-1.5l-1.6-0.9l-1.3-0.8h1.3h1.6l0.1-1.6l0.3-4.1l0.1-1.9h-1.9H104c0.1-0.2,0.2-0.4,0.2-0.5l0.8-1.9
			l-2-0.5l-4.2-1.1L97.3,33.4L97.3,33.4z M46.9,49.4c0.2-0.6,0.3-1.2,0.4-1.8l0.3-1.1L49,48c0.2,0.2,0.4,0.5,0.6,0.7
			c-0.2,0-0.4,0.1-0.5,0.1L46.9,49.4L46.9,49.4z M94.8,51.8h1c-0.4,0.4-0.7,0.7-1.1,1L94.8,51.8L94.8,51.8z M32.7,52.6h0.6l-0.4,5.4
			c-0.1,0-0.2,0-0.2,0l0-0.3l0.1-2l-0.3,0L32.7,52.6L32.7,52.6z M100.3,57.5c0.8-0.8,2.5-2.2,5.4-4.3l-0.2,1.9
			c-0.1,1.4-0.3,2.1-0.4,2.5H100.3L100.3,57.5z M336.5,33.7h-1.9h-4.5h-1.6l-0.1,1.6l0,0.7h-9.2h-1.6l-0.1,1.6l-0.3,3.9l-0.1,1.9
			h1.9h1.2l-0.7,10l-0.1,1.9h1.9h1.3c-0.7,1.2-2.3,2.2-6.4,2.9l-3,0.5l1.9,2.3c0.9,1,1.5,2.2,1.9,3.5l0.5,1.5l1.6-0.4
			c7.1-1.6,10-4.5,11.5-8.6l-0.1,1.1c-0.1,2-0.1,4.1,1.2,5.5c1.3,1.4,3.4,1.6,5,1.6h3.3c4.8,0,6.2-2.9,7-7.8l0.3-1.6l-1.6-0.4
			c-0.8-0.2-1.6-0.5-2.3-0.8l0.1-1.1l0.7-10l0-0.2h1.2h1.6l0.1-1.6l0.3-3.9l0.1-1.9h-1.9h-9.3l0-0.5L336.5,33.7L336.5,33.7z
			 M338.5,55.4h1l0,0.1c0,0.5-0.2,1.6-0.3,2.3l-0.9,0L338.5,55.4L338.5,55.4z M141.4,33.7h-1.9H135h-1.6l-0.1,1.6l-0.1,0.9h-4.4
			l0-0.7l0.1-1.9h-1.9h-4.4h-1.6l-0.1,1.6l-0.1,0.9h-3.3H116l-0.1,1.6l-0.2,3.5l-0.1,1.9h1.9h3l-0.4,5.8h-3.9h-1.6l-0.1,1.6
			l-0.3,3.6l-0.1,1.9h1.9h0.6l-0.1,1.9c-0.1,1.5-0.1,3.7,1.4,5.3c1.7,1.8,4.6,2.1,7.3,2.1h10.7c4.9,0,6.3-0.2,7-0.4l1.5-0.4
			l-0.2-1.5c-0.1-0.7-0.2-1.9-0.2-3.6l-0.1-1.9l-0.8,0.1c0-0.3,0-0.6,0-0.9c0-0.2,0-0.5,0-0.7h0.6h1.6l0.1-1.6l0.3-3.6l0.1-1.9h-1.9
			h-3.5l0.4-5.8h3.1h1.6l0.1-1.6l0.2-3.5l0.1-1.9H144h-2.8l0-0.7L141.4,33.7L141.4,33.7z M130.3,58.3c0,0,0.1-0.1,0.1-0.1
			c0,0,0,0.1,0,0.1H130.3L130.3,58.3z M368.1,33.8h-1.9h-4.7h-1.6l-0.1,1.6l-0.3,4.4h-7.3h-1.6l-0.1,1.6l-0.3,4.5l-0.1,1.9h1.9h6.5
			c-1.4,5.2-4.5,8.9-9.3,11.3l-2.4,1.2l2.1,1.7c1.1,0.9,2.1,2,2.9,3.2l0.9,1.3l1.4-0.7c3.4-1.8,6.1-4,8.2-6.8l0.6,1.1
			c0.6,1.1,1,2.4,1,3.7l0,1.6l1.6,0.1c0.6,0,1.2,0.1,1.7,0.1c1.1,0,2.3-0.1,3.4-0.2c1.8-0.2,3.5-1.1,4.7-2.5c1.7-2,2.6-6.1,4.1-18.9
			c0.1-0.6,0.2-1.9,0.2-2.1l0.2-1.9h-1.9h-10.2l0.3-4.2L368.1,33.8L368.1,33.8z M366.8,47.8h4c-1,7.3-1.6,9.3-2,9.7c0,0-0.1,0-0.1,0
			l-0.1,0l-0.1,0c-0.8,0-2.4,0-4.2-0.1l-1.2-0.1C364.9,54.6,366.1,51.4,366.8,47.8L366.8,47.8z M315.4,35.4h-1.9h-16.6h-1.6
			l-0.1,1.6l0,0.4h-10h-1.6l-0.1,1.6l-0.3,4.3l-0.1,1.9h1.9h1.8l-0.5,7.3c-1,0.2-1.9,0.3-2.8,0.4l-1.8,0.2l0.3,1.8l0.6,4.5l0.3,1.8
			l1.8-0.4l0.9-0.2c2.9-0.6,6.6-1.3,10-2l0.9,1.3c0.7,1.1,1.1,2.3,1.2,3.6l0.1,1.6l1.6,0.1c0.8,0,1.6,0.1,2.5,0.1
			c1.1,0,2.3,0,3.5-0.1l0,0l0,0c2-0.2,3.6-0.7,5.1-2.3c1.6-1.8,2.4-4.9,3.5-14.2l0.2-1.9l0.2-2h-2h-6.8c0.1-0.5,0.3-1.1,0.4-1.6h7.4
			h1.6l0.1-1.6l0.3-4.4L315.4,35.4L315.4,35.4z M294.4,45.3h1.4h1.2c-0.5,1.9-1.1,3.7-1.6,5.1l-0.2,0.6l-1.2,0.2L294.4,45.3
			L294.4,45.3z M297.5,52.7h7.6c-0.5,3.3-0.8,4.4-1.1,4.8c-0.1,0-0.2,0-0.3,0c0,0,0,0-0.1,0l-0.1,0h-0.1c-0.7,0-3.3,0-5.7-0.2
			l-0.2,0l0-0.5L297.5,52.7L297.5,52.7z"/>
	</g>
	<path id="吃" class="st3" d="M216.4,52.5l-1.9,0.2l-1.1-11.8l1.9-0.2L216.4,52.5z M230.4,59.8c-1.4,0.1-2.3-0.1-2.4-0.9
		c-0.1-1.2,0.6-2.9,12-13.1c0.2-0.3,0.4-0.6,0.6-1l-3.7-1.6l-1.1,0.3l-11.2,1c0.7-1,1.3-2.1,1.8-3.2l14.4-1.4l-0.5-4.8l-11.9,1.1
		c0.4-1.2,0.7-2.4,1-3.6l-5.2-0.8c-0.7,3.5-2.1,6.9-4.2,9.8l-0.6-6.4l-11.3,1l2.3,24.8l4.7-0.4l-0.3-2.9l6.5-0.6l-1.2-12.9
		c1,0.6,2,1.3,2.9,2.1c0.2-0.3,0.4-0.5,0.6-0.9l0.4,3.9l5.3-0.5c-6.8,7.1-7.1,9.1-6.9,11.3c0.3,3.3,2.9,5.3,8.2,4.8l6.4-0.6
		c4.4-0.4,6.3-2.1,6.2-8.9c-1.6-0.2-3.3-0.6-4.8-1.2c0.3,4.3-0.3,4.9-1.6,5L230.4,59.8z"/>
</g>
<g>
	<path id="矩形_11_拷貝_3_" class="st1" d="M226,92.8L53,83.9l6.9,58.7l162.8-5.2L226,92.8z"/>
	<path id="矩形_11_拷貝_1_" d="M54.1,85L225,93.8l-3.3,42.7l-161,5.1L54.1,85 M53,83.9l6.9,58.7l162.8-5.2l3.4-44.6L53,83.9
		L53,83.9z"/>
</g>
<g>
	<path id="矩形_11_3_" class="st3" d="M226.9,89.1L53.4,84.8l7.3,54.2l162.8-5.2L226.9,89.1z"/>
	<path id="矩形_11_1_" d="M55.4,86.6L225,90.8l-3.2,41.2l-159.6,5.1L55.4,86.6 M53.4,84.8l7.3,54.2l162.8-5.2l3.4-44.6L53.4,84.8
		L53.4,84.8z"/>
</g>
<path id="偷偷說...鐵盒還能收藏拉_" class="st1" d="M81.1,97c-0.8,1.7-1.8,3.3-3.1,4.7c0.2,0.5,0.3,1,0.4,1.6
	c0.3-0.3,0.5-0.5,0.8-0.8l-1,5.9h1.4l1.5-8.5c0.5-0.8,1-1.7,1.4-2.5L81.1,97z M82.3,105.1c0.1-0.2,0.1-0.5,0.1-0.7h1.2l-0.1,0.7
	H82.3z M84,102.7l-0.1,0.6h-1.2l0.1-0.6H84L84,102.7z M85.4,101.6h-3.7l-0.5,2.6c-0.1,1.3-0.6,2.5-1.3,3.5c0.3,0.2,0.7,0.4,0.9,0.7
	c0.5-0.7,0.9-1.5,1.1-2.4h1.3l-0.2,0.9c0,0.1-0.1,0.2-0.1,0.2c0,0,0,0,0,0c-0.1,0-0.4,0-0.7,0c0.1,0.4,0.2,0.8,0.1,1.2
	c0.5,0,0.9,0,1.3-0.2c0.4-0.2,0.6-0.6,0.6-1.1L85.4,101.6z M86.8,107c0,0.1-0.1,0.2-0.2,0.2c0,0,0,0,0,0c-0.2,0-0.7,0-1.2,0
	c0.1,0.4,0.2,0.8,0.1,1.2c0.6,0,1.2,0,1.8-0.2c0.4-0.2,0.7-0.7,0.7-1.2l1-5.5h-1.2L86.8,107z M87,101.9h-1.1l-0.8,4.5h1.1L87,101.9z
	 M83.9,99.9c0.7-0.4,1.4-0.9,2-1.4c0.5,0.5,1,1,1.7,1.4H83.9z M86.1,96.9c-1.3,1.3-2.9,2.2-4.7,2.8c0.3,0.3,0.5,0.7,0.7,1.1
	c0.3-0.1,0.7-0.3,1-0.4l-0.1,0.7h4.8l0.2-1c0.3,0.2,0.7,0.4,1,0.5c0.3-0.4,0.6-0.8,1-1.1c-1.2-0.3-2.2-1-3.1-1.8
	c0.1-0.1,0.2-0.2,0.3-0.3L86.1,96.9z M93.7,97c-0.8,1.7-1.8,3.3-3.1,4.7c0.2,0.5,0.3,1,0.4,1.6c0.3-0.3,0.5-0.5,0.8-0.8l-1,5.9h1.4
	l1.5-8.5c0.5-0.8,1-1.7,1.4-2.5L93.7,97z M94.8,105.1c0.1-0.2,0.1-0.5,0.1-0.7h1.2l-0.1,0.7H94.8L94.8,105.1z M96.5,102.7l-0.1,0.6
	h-1.2l0.1-0.6H96.5z M97.9,101.6h-3.7l-0.5,2.6c-0.1,1.3-0.6,2.5-1.3,3.5c0.3,0.2,0.7,0.4,0.9,0.7c0.5-0.7,0.9-1.5,1.1-2.4h1.3
	l-0.2,0.9c0,0.1-0.1,0.2-0.1,0.2c0,0,0,0,0,0c-0.1,0-0.4,0-0.7,0c0.1,0.4,0.2,0.8,0.1,1.2c0.5,0,0.9,0,1.3-0.2
	c0.4-0.2,0.6-0.6,0.6-1.1L97.9,101.6z M99.3,107c0,0.1-0.1,0.2-0.2,0.2c0,0,0,0,0,0c-0.2,0-0.7,0-1.2,0c0.1,0.4,0.2,0.8,0.1,1.2
	c0.6,0,1.2,0,1.8-0.2c0.4-0.2,0.7-0.7,0.7-1.2l1-5.5h-1.2L99.3,107z M99.6,101.9h-1.1l-0.8,4.5h1.1L99.6,101.9z M96.4,99.9
	c0.7-0.4,1.4-0.9,2-1.4c0.5,0.5,1,1,1.7,1.4H96.4L96.4,99.9z M98.6,96.9c-1.3,1.3-2.9,2.2-4.7,2.8c0.3,0.3,0.5,0.7,0.7,1.1
	c0.3-0.1,0.7-0.3,1-0.4l-0.1,0.7h4.8l0.2-1c0.3,0.2,0.7,0.4,1,0.5c0.3-0.4,0.6-0.8,1-1.1c-1.2-0.3-2.2-1-3.1-1.8
	c0.1-0.1,0.2-0.2,0.3-0.3L98.6,96.9z M109.8,101.5h2.2l-0.2,1.4h-2.2L109.8,101.5z M105.3,106.6h-1.2l0.2-1.4h1.2L105.3,106.6z
	 M111.9,107c-0.2,0-0.2,0-0.1-0.4l0.4-2.4h0.8l0.6-3.5c0.1,0.1,0.1,0.3,0.2,0.4l1.2-0.8c-0.5-1.2-1.2-2.2-2-3.2l-1.1,0.7
	c0.6,0.8,1.1,1.7,1.6,2.5h-4.2c0.8-0.8,1.5-1.7,2.2-2.7l-1.3-0.4c-0.6,1-1.3,1.8-2.2,2.5L108,99h-2.2l1-0.3
	c-0.1-0.5-0.2-1.1-0.4-1.6l-1.3,0.4c0.1,0.5,0.3,1,0.3,1.5h-1.8l-0.2,1.2h3.8l-0.1,0c0.3,0.3,0.6,0.7,0.8,1c0.2-0.1,0.3-0.3,0.5-0.4
	l-0.6,3.3h0.8c-0.4,1.4-0.8,2.5-2.5,3.2l0.6-3.3h-3.6l-0.7,4.2h1.2l0.1-0.5h2.4l0-0.3c0.2,0.3,0.4,0.7,0.5,1
	c2.1-0.9,2.8-2.4,3.4-4.3h0.6l-0.4,2.4c-0.2,1.3-0.1,1.7,1,1.7h0.8c0.9,0,1.3-0.5,1.7-2.1c-0.4-0.1-0.8-0.3-1.2-0.6
	c-0.2,1.2-0.3,1.3-0.5,1.3H111.9L111.9,107z M103.4,103.5h3.5l0.2-1.1h-3.5L103.4,103.5z M107.3,100.7h-3.5l-0.2,1.1h3.5
	L107.3,100.7z M116.3,107.5c0.7,0,1.2-0.5,1.3-1.2c0.1-0.5-0.1-1-0.6-1.1c-0.1,0-0.2,0-0.3,0c-0.7,0-1.2,0.5-1.3,1.2
	c-0.1,0.5,0.1,1,0.6,1.1C116.1,107.5,116.2,107.5,116.3,107.5L116.3,107.5z M120.6,107.5c0.7,0,1.2-0.5,1.3-1.2
	c0.1-0.5-0.1-1-0.6-1.1c-0.1,0-0.2,0-0.3,0c-0.7,0-1.2,0.5-1.3,1.2c-0.1,0.5,0.1,1,0.6,1.1C120.4,107.5,120.5,107.5,120.6,107.5
	L120.6,107.5z M124.9,107.5c0.7,0,1.2-0.5,1.3-1.2c0.1-0.5-0.1-1-0.6-1.1c-0.1,0-0.2,0-0.3,0c-0.7,0-1.2,0.5-1.3,1.2
	c-0.1,0.5,0.1,1,0.6,1.1C124.7,107.5,124.8,107.5,124.9,107.5L124.9,107.5z M101.3,117.1c-0.2-0.8-0.4-1.5-0.8-2.3l-1.4,0.6
	c0.3,0.7,0.6,1.5,0.7,2.3L101.3,117.1z M93.1,120.9h1.6l-0.1,0.7H93L93.1,120.9z M91.5,122.7h4.3l0.5-2.9H92L91.5,122.7z
	 M95.2,126.3l-1.5,0.2l0.1-0.4h1.3l0.2-1.2H94l0.1-0.7c0.6-0.1,1.2-0.2,1.8-0.3l-0.8-1c-1.4,0.3-2.7,0.4-4.1,0.5l0-0.1l-1.1-0.3
	c-0.3,0.9-0.6,1.7-0.9,2.6l0.9,0.3c0.3-0.6,0.7-1.5,1.1-2.4c0.1,0.3,0.1,0.6,0.2,0.9c0.5,0,0.9,0,1.4-0.1l-0.1,0.5h-1.4l-0.2,1.2
	h1.4l-0.1,0.6c-0.7,0.1-1.3,0.1-1.8,0.2l0.1-1c-0.6,0.1-1.1,0.2-1.7,0.3l0.6-3.6h1.6l0.3-1.5h-1.6l0.2-1.1h1.1l0.2-1.4
	c0,0.1,0.1,0.2,0.2,0.2l0.3-0.4l-0.2,1.1h5.1c-0.3,2.1-0.5,4.2-0.6,6.2c-0.3,0.4-0.7,0.8-1,1.1L95.2,126.3z M88.6,118.3
	c0.5-0.5,0.9-1,1.3-1.5c0.5,0.4,1,0.9,1.5,1.5H88.6L88.6,118.3z M99.1,120.5c-0.3,0.9-0.7,1.7-1.1,2.5c0.1-1.1,0.2-2.3,0.5-3.7h2.4
	l0.3-1.4h-2.5c0.2-1.1,0.4-2.2,0.6-3.4h-1.7c-0.2,1.2-0.4,2.3-0.6,3.4h-1.6l0.2-0.8h1.3l0.2-1.4h-1.3l0.2-1.2h-1.6l-0.2,1.2h-1.3
	l-0.2,1.4h1.3l-0.1,0.8H92l0.5-0.7c-0.5-0.6-1.1-1.1-1.7-1.6c0.1-0.2,0.2-0.4,0.4-0.5l-1.1-0.6c-2.1,0.3-3.5,2.2-3.2,4.3
	c0,0.3,0.1,0.6,0.2,0.9c0.2-0.2,0.4-0.4,0.7-0.6l-0.1,0.8h1l-0.2,1.1h-1.8l-0.3,1.5h1.8l-0.7,3.8c-0.8,0.1-1.5,0.3-2.1,0.4l0,1.6
	c1.3-0.3,3.1-0.7,4.8-1.1l0,0.9l3.8-0.5l-0.1,0.1c0.4,0.3,0.7,0.7,1,1.1c0.5-0.4,1-0.9,1.5-1.3c0.1,0.7,0.6,1.2,1.3,1.2
	c1.1,0,1.7-0.5,2.3-3.1c-0.4-0.2-0.7-0.5-1-0.9c-0.3,1.7-0.6,2.3-0.8,2.3c-0.2,0-0.3-0.4-0.4-1.1c1.1-1.5,2-3.2,2.7-5L99.1,120.5z
	 M86.3,123.3c0.1,0.9,0.1,1.8,0,2.6l1.1-0.4c0-0.9,0-1.7,0-2.6L86.3,123.3z M104.6,124.8h1.4l-0.4,2h-1.4L104.6,124.8z M109,124.8
	l-0.4,2h-1.4l0.4-2H109z M112.1,124.8l-0.4,2h-1.4l0.4-2H112.1L112.1,124.8z M114.1,123.4h-10.9l-0.6,3.4h-1.4l-0.3,1.7h13.7
	l0.3-1.7h-1.4L114.1,123.4z M111.8,121.5h-5.7l0.1-0.8h5.7L111.8,121.5z M104.8,119.5l-0.6,3.2h9l0.6-3.2H104.8L104.8,119.5z
	 M108.1,117.6c0.6-0.4,1.2-0.8,1.8-1.2c0.5,0.4,1,0.8,1.5,1.2H108.1L108.1,117.6z M110.1,114.3c-1.7,1.7-4.8,3.2-7.8,4.2
	c0.4,0.4,0.7,0.9,0.9,1.4c1.2-0.4,2.3-0.9,3.4-1.4l-0.1,0.4h5.9l0.1-0.5c0.9,0.6,1.8,1,2.8,1.4c0.5-0.6,1-1.1,1.5-1.6
	c-2.1-0.6-4-1.5-5.8-2.8c0.1-0.1,0.3-0.3,0.4-0.4L110.1,114.3z M130,116.9h-1l0.2-1h1L130,116.9z M127.7,116.9h-0.9l0.2-1h0.9
	L127.7,116.9z M125.4,116.9h-0.9l0.2-1h0.9L125.4,116.9z M131.9,114.9h-8.5l-0.5,3h8.5L131.9,114.9z M122.1,116.8
	c-0.4-0.8-0.9-1.6-1.5-2.3l-1.5,0.8c0.5,0.8,1,1.6,1.4,2.4L122.1,116.8z M129.6,122.8c-0.4,0.3-1,0.7-1.5,1c-0.3-0.2-0.7-0.5-1-0.7
	l-1.2,0.8c0.3,0.2,0.5,0.4,0.8,0.6l-2.1,0.6l0.2-1.1c0.6-0.3,1.3-0.7,1.9-1.1L129.6,122.8L129.6,122.8z M124.4,121.1h4.2l-0.1,0.8
	h-4.2L124.4,121.1z M130.4,125.6c-0.3-0.3-0.8-0.7-1.3-1.1c0.6-0.3,1.2-0.7,1.8-1.1l-0.8-0.7l0.5-2.6H123l-0.5,2.8h2.2
	c-1.2,0.6-2.4,1-3.7,1.4c0.3,0.3,0.5,0.7,0.7,1c0.5-0.2,1.1-0.4,1.6-0.6l-0.1,0.4c0,0.4-0.3,0.7-0.7,0.8c0.1,0.3,0.2,0.6,0.3,0.9
	c-1.3-0.2-2.2-0.6-2.6-1.7c0.5-1,0.9-2,1.2-3.1l-0.7-0.3l-0.3,0h-0.9c0.8-1,1.9-2.4,2.6-3.3l-0.2,1.1h9.8l0.2-1.2h-9.8l0,0l-1-0.4
	l-0.3,0.1h-2.7l-0.3,1.4h1.8c-0.5,0.7-1,1.3-1.6,1.9c-0.2,0.2-0.5,0.4-0.8,0.5c0.1,0.5,0.2,1,0.3,1.4c0.3-0.2,0.6-0.2,1-0.2h0.9
	c-0.6,1.8-1.7,3.3-3.2,4.4c0.4,0.3,0.7,0.7,1,1.2c0.8-0.6,1.5-1.3,2.1-2.2c0.9,1.6,2.6,1.9,5.4,1.9c1.8,0,3.7,0,5.3-0.1
	c0.2-0.6,0.5-1.2,0.9-1.7c-1.8,0.2-4.3,0.3-5.9,0.3c-0.6,0-1.2,0-1.9-0.1c0.5-0.2,1.4-0.5,3.7-1.1c0-0.3,0-0.7,0-1.1
	c0.9,0.7,1.8,1.4,2.3,1.9L130.4,125.6z M145.5,121.2c0.5,0,1,0,1.6-0.1c0-0.4,0.1-1.1,0.1-1.5c-0.5,0.1-0.9,0.1-1.4,0.1h-2.2
	c-0.5,0-0.5-0.2-0.4-0.8l0.2-1h3.7l0.3-1.6h-3.7l0.3-1.8h-1.8l-0.8,4.3c-0.3,1.7,0.1,2.4,1.9,2.4L145.5,121.2L145.5,121.2z
	 M135.4,122.8c0.5,0.5,1,0.9,1.4,1.5l0.9-0.7l-0.1,0.5c-1,0.5-2,0.9-2.7,1.2c0.2-0.6,0.3-1.3,0.5-1.9L135.4,122.8z M138,121.5
	l-0.3,1.7c-0.4-0.5-0.9-0.9-1.4-1.3l-0.9,0.6l0.2-1.1L138,121.5L138,121.5z M140,119.9h-5.8l-0.6,3.4c-0.2,1.5-0.7,3-1.6,4.2
	c0.4,0.4,0.8,0.8,1,1.2c0.7-0.8,1.3-1.8,1.6-2.9l0.2,1.1c0.8-0.4,1.6-1,2.5-1.5l-0.3,1.6c0,0.1-0.1,0.3-0.3,0.3c0,0,0,0-0.1,0
	c-0.2,0-0.8,0-1.3,0c0.2,0.5,0.3,0.9,0.3,1.4c0.7,0.1,1.5,0,2.1-0.3c0.5-0.3,0.9-0.8,0.9-1.4L140,119.9z M138.4,116.1
	c0.1,0.4,0.3,0.8,0.4,1.2l-2.3,0.2c0.8-0.8,1.6-1.6,2.3-2.5l-1.7-0.5c-0.7,1-1.4,1.9-2.3,2.7c-0.3,0.3-0.6,0.5-0.9,0.6
	c0.1,0.5,0.2,1.3,0.3,1.6c0.5-0.2,1.1-0.3,5-0.6c0.1,0.4,0.2,0.7,0.2,1l1.7-0.6c-0.3-1.2-0.7-2.4-1.2-3.5L138.4,116.1z M142.4,127
	c-0.6,0-0.7-0.1-0.6-0.6l0.3-1.7h3.8l0.3-1.6h-3.8l0.3-1.5h-1.8l-0.8,4.8c-0.3,1.7,0.1,2.2,1.9,2.2h2.2c1.4,0,2-0.6,2.6-2.6
	c-0.5-0.1-1-0.3-1.5-0.7c-0.3,1.4-0.5,1.7-1,1.7L142.4,127L142.4,127z M160.6,119c-0.5,1.4-1.1,2.8-1.9,4.1
	c-0.4-1.2-0.7-2.4-0.8-3.7c0.1-0.1,0.2-0.3,0.2-0.4L160.6,119L160.6,119z M163.3,119l0.3-1.7h-4.6c0.4-0.8,0.7-1.7,1-2.5l-1.8-0.3
	c-0.7,2.3-1.8,4.4-3.4,6.2l1.1-6H154l-1.5,8.3l-1.7,0.5l1.3-7.4h-1.8l-1.3,7.3c-0.1,0.5-0.3,0.9-0.8,1.1c0.2,0.5,0.4,1.1,0.4,1.7
	c0.4-0.3,0.9-0.5,3.5-1.4l-0.7,3.9h1.8l1.3-7.6c0.3,0.4,0.6,0.9,0.8,1.4c0.3-0.3,0.7-0.7,1-1.1c0.1,1.1,0.4,2.3,0.9,3.3
	c-1,1.1-2.2,2-3.6,2.6c0.4,0.4,0.7,0.9,0.9,1.5c1.3-0.6,2.5-1.5,3.5-2.5c0.6,1,1.4,1.8,2.3,2.4c0.4-0.6,0.9-1.1,1.5-1.5
	c-1-0.6-1.9-1.4-2.5-2.4c1.2-1.8,2.2-3.7,2.9-5.7L163.3,119L163.3,119z M168.1,117.6h1.8l0.1-0.8h1.9l0.3-1.5h-1.9l0.2-0.9h-1.8
	l-0.2,0.9h-2.8l-0.3,1.5h2.8L168.1,117.6z M169.6,125.2h0.8l-0.1,0.8h-0.8L169.6,125.2z M171.1,121.4l-0.1,0.7h-0.8l0.1-0.7H171.1z
	 M171.9,123.2l-0.2,0.9h-1.9l0.2-0.9L171.9,123.2L171.9,123.2z M175.8,117.5h0.2l0.1-0.6h1.2l-1,0.7c0.2,0.2,0.5,0.4,0.7,0.6h-1.3
	L175.8,117.5z M176.4,120.3c-0.3,0.9-0.7,1.9-1.2,2.8c0-1,0.1-2.1,0.3-3.3h3.1l0.3-1.5h-0.7l0.5-0.3c-0.3-0.4-0.6-0.7-0.9-1h1.2
	l0.3-1.5h-2.8l0.2-0.9h-1.8l-0.2,0.9h-1.9l-0.3,1.5h1.9l-0.1,0.4h-0.1l-0.1,0.9h-6.5l-0.4,2.5h-0.8l0.4-2.3h-1.3l-0.7,3.8h2.1
	l-0.1,0.6l-0.1,0.3H164l-0.3,1.5h0.7l-0.1,0.3c-0.2,1.2-0.6,2.3-1.4,3.2c0.3,0.2,0.6,0.4,0.9,0.7c1-1.1,1.6-2.4,1.8-3.8l0.1-0.4h0.7
	c-0.3,1.3-0.7,2.5-1.4,3.5c0.4,0.2,0.9,0.4,1.2,0.7c1.2-1.6,1.7-4.1,2-6l0.5-3h5.1c-0.2,1.8-0.3,3.7-0.2,5.6
	c-0.3,0.4-0.7,0.8-1.1,1.1l0.1-0.4h-1.2l0.1-0.8h1.2l0.5-3h-1.2l0.1-0.7h1.1l0.2-1.1h-4.4l-1.2,6.8h1.3v0h2.6
	c-0.3,0.2-0.6,0.4-0.9,0.6c0.4,0.3,0.8,0.7,1.1,1.1c0.7-0.5,1.3-1,1.9-1.6c0.3,1,0.8,1.6,1.5,1.6c1.1,0,1.6-0.4,2.3-2.7
	c-0.4-0.2-0.8-0.4-1-0.8c-0.3,1.4-0.6,1.9-0.8,1.9c-0.3,0-0.5-0.5-0.7-1.5c1.1-1.6,2-3.3,2.7-5.1L176.4,120.3z M194.6,117h-4.8
	l1.7-0.5c-0.1-0.8-0.2-1.5-0.4-2.3l-1.8,0.4c0.2,0.8,0.2,1.6,0.3,2.3h-3.4l-0.3,1.7h8.4L194.6,117z M188.3,125.5
	c0.1-2.1,0.1-4.1,0-6.2l-1.6,0.4c0,2.1,0,4.2-0.2,6.3L188.3,125.5z M184.8,122.7l0.1-1.6l-1.4,0.3l0.4-2.3h1.4l0.3-1.7h-1.4l0.5-2.9
	H183l-0.5,2.9h-1.7l-0.3,1.7h1.7l-0.5,2.7c-0.7,0.2-1.4,0.3-2,0.4l0.2,1.7l1.5-0.4l-0.6,3.2c0,0.1-0.1,0.3-0.2,0.3c0,0,0,0,0,0
	c-0.2,0-0.7,0-1.2,0c0.2,0.5,0.2,1.1,0.2,1.6c0.7,0.1,1.5,0,2.2-0.3c0.6-0.3,0.9-0.9,0.9-1.5l0.6-3.7L184.8,122.7z M190.6,126.4
	c0.9-1.9,1.9-4.6,2.7-6.8l-1.9-0.3c-0.7,2.4-1.5,4.8-2.5,7.1h-5.1l-0.3,1.7h9.4l0.3-1.7H190.6L190.6,126.4z M196.6,123.5h1.5
	l1.3-5.6l0.5-2.1h-2.3l-0.3,2.1L196.6,123.5z M196.7,127.6c0.8,0,1.5-0.6,1.7-1.5c0.2-0.6-0.2-1.2-0.8-1.4c-0.1,0-0.2,0-0.3,0
	c-0.8,0-1.5,0.6-1.6,1.5c-0.2,0.6,0.2,1.2,0.8,1.4C196.4,127.6,196.6,127.6,196.7,127.6L196.7,127.6z"/>
<g>
	<defs>
		<rect id="SVGID_1_" x="167.4" y="19.5" width="224.7" height="133.2"/>
	</defs>
	<clipPath id="SVGID_2_">
		<use xlink:href="#SVGID_1_"  style="overflow:visible;"/>
	</clipPath>
	<g class="st4">
		<g>
			<path class="st5" d="M272.4,86.1c0.7-1.2,5.6-3,5.7-1.7C277.4,84.2,273.6,85.1,272.4,86.1z"/>
			<path class="st5" d="M264.5,90c-0.5-0.1-0.7-1.2-0.4-2.6c0.3-1.3,0.9-2.3,1.4-2.2c0.5,0.1,0.7,1.2,0.4,2.6
				C265.6,89.1,265,90.1,264.5,90z"/>
			<path class="st5" d="M258.6,89.2c-0.4-0.1-0.6-1.1-0.3-2.3c0.2-1.2,0.8-2.1,1.2-2c0.4,0.1,0.6,1.1,0.3,2.3
				C259.6,88.4,259,89.3,258.6,89.2z"/>
			<path class="st5" d="M312.6,207.7c-0.8-1-2.9-2.5-4.3-2.6C310,204.7,313.1,206.9,312.6,207.7z"/>
			<path class="st6" d="M232,103.6c0.6,0.3,1.2,0.9,1.9,1.5c0.7-0.5,1.5-1,2.2-1.3c-0.6-0.6-1.3-1.1-1.9-1.6
				C233.7,102.5,232.9,103,232,103.6z"/>
			<path class="st5" d="M233.9,102C233.9,102,233.9,102,233.9,102C233.9,102,233.9,102.1,233.9,102C233.9,102.1,233.9,102,233.9,102
				z"/>
			<path class="st6" d="M236.2,107.6c0.6,0.8,1.2,1.6,1.7,2.4c0.5-0.6,1.3-1.2,1.9-1.5c-0.3-0.6-0.9-1.4-1.6-2.3
				C237.6,106.6,236.9,107.1,236.2,107.6z"/>
			<path class="st6" d="M238,105.9c-0.5-0.7-1.1-1.3-1.7-2c-0.6,0.3-1.3,0.8-2.1,1.3c0.6,0.6,1.3,1.3,1.9,2.1
				C236.6,106.9,237.3,106.4,238,105.9z"/>
			<path class="st6" d="M240,108.5c0.1,0,0.2,0,0.3,0l1.2-3.8c-0.6,0.2-1.7,0.7-3,1.4C239.2,107,239.7,107.9,240,108.5z"/>
			<path class="st6" d="M240.1,108.7c0,0.1,0.1,0.1,0.1,0.2l0.1-0.3C240.2,108.7,240.1,108.7,240.1,108.7z"/>
			<path class="st6" d="M239.9,108.8c-0.5,0.3-1.3,0.8-1.9,1.4c0.4,0.7,0.7,1.3,0.9,1.8c0.1,0,0.1-0.1,0.2-0.1
				c0.1-0.1,0.2-0.2,0.3-0.4l0.7-2.5C240,109,240,108.9,239.9,108.8z"/>
			<path class="st6" d="M237.8,110.4c-0.1,0.1-0.2,0.2-0.3,0.3c0.5,0.5,0.9,1.1,1.1,1.5c0.1,0,0.1-0.1,0.2-0.1
				C238.6,111.7,238.3,111.1,237.8,110.4z"/>
			<path class="st6" d="M237.7,110.3c-0.5-0.7-1-1.5-1.7-2.4c-0.5,0.4-1,0.8-1.4,1.3c1.1,0.3,2.2,0.9,2.8,1.5
				C237.5,110.5,237.6,110.4,237.7,110.3z"/>
			<path class="st6" d="M235.8,107.6c-0.6-0.7-1.2-1.4-1.9-2.1c-0.7,0.5-1.4,1.1-2.1,1.8c0.5,0.6,0.9,1.2,1.2,1.7
				c0.5,0,1,0.1,1.4,0.2C234.7,108.7,235.2,108.1,235.8,107.6z"/>
			<path class="st6" d="M233.7,105.3c-0.6-0.5-1.2-1.1-1.8-1.6c-0.7,0.5-1.4,1.1-2,1.7c0.5,0.4,1.1,1,1.7,1.6
				C232.2,106.4,232.9,105.8,233.7,105.3z"/>
			<path class="st6" d="M231.6,107.4c-0.6,0.5-1.1,1.1-1.7,1.8c0.8-0.2,1.8-0.3,2.9-0.3C232.4,108.5,232,108,231.6,107.4z"/>
			<path class="st6" d="M231.4,107.2c-0.5-0.6-1.1-1.2-1.6-1.7c-0.2,0.2-0.4,0.4-0.5,0.6l0.1,3.3c0.1,0,0.2-0.1,0.3-0.1
				C229.9,108.7,230.5,108,231.4,107.2z"/>
			<path class="st6" d="M229.6,105.4c-0.1-0.1-0.3-0.2-0.4-0.4l0,1C229.3,105.8,229.5,105.6,229.6,105.4z"/>
			<path class="st6" d="M229.7,105.3c0.5-0.6,1.2-1.2,1.9-1.7c-0.1,0-0.1-0.1-0.2-0.1c-0.7,0.2-1.3,0.3-1.9,0.3c-0.1,0-0.3,0-0.4,0
				l0,1.3C229.3,105,229.5,105.1,229.7,105.3z"/>
			<path class="st6" d="M231.8,103.4c0.2-0.1,0.4-0.3,0.6-0.4c-0.3,0.1-0.5,0.2-0.8,0.3C231.6,103.4,231.7,103.4,231.8,103.4z"/>
			<path class="st6" d="M234.2,101.9c0.1-0.1,0.2-0.1,0.3-0.1c0,0-0.1-0.1-0.1-0.1C234.3,101.8,234.2,101.8,234.2,101.9
				C234.1,101.9,234.1,101.9,234.2,101.9z"/>
			<path class="st6" d="M234.3,102.1c0.7,0.5,1.3,1,2,1.7c0.4-0.2,0.8-0.3,1.1-0.3c-0.9-0.2-1.8-0.7-2.8-1.5
				C234.5,101.9,234.4,102,234.3,102.1z"/>
			<path class="st6" d="M236.5,103.9c0.6,0.6,1.2,1.3,1.8,2c1.2-0.7,2.5-1.3,3.3-1.3l0.7-2.4c-0.9,0.7-2.1,1.4-4.2,1.4
				c-0.2,0-0.4,0-0.5,0C237.3,103.5,236.9,103.6,236.5,103.9z"/>
			<path class="st7" d="M265.9,115.6c0.5-3.3,2.4-8.2,5.1-8.4c-0.2,0.1-0.8,0.4-1.5,1.2c0.6,0.3,1.2,1,1.6,1.6
				c0.2-0.7,0.3-1.5,0.4-2.1c0.2-0.9,0.3-1.9,0.4-2.8c-1.2-1.6-2.5-2.2-3.8-1.8c-3.9,1.2-7.2,11.1-7.3,13.7c-0.5-2.6,1.4-8.1,4-11.5
				c-3.7,0.6-6.7,5.4-8.4,12.5c-0.4,1.5-1,4.7-1.1,8.2c-0.1,4,1.2,8.8,2.8,10.7c3.3,3.6,7.8,1,8-3.6
				C266.5,127.1,264.7,123.5,265.9,115.6z"/>
			<path class="st5" d="M259.2,109.1c0.2-0.2,0.3-0.5,0.5-0.7c0-1.6-1.3-7.5-3.5-10.9c2.2,1.9,3.8,8,3.9,10.4
				c0.4-0.4,0.7-0.8,1.1-1.1c0-1.3-0.7-7.2-3.8-10.3c-0.2-0.1-0.4-0.3-0.5-0.4c-1.1,0.2-2.3,0-3.4-0.6
				C257.4,100.9,258.6,106.6,259.2,109.1z"/>
			<path class="st8" d="M253.3,95.4c-1.4-0.9-2.6-2.3-2.8-3.8c-0.3-0.1-1.2-0.2-2.2-0.3c0.7,2.2,2.7,4.6,4.8,7.3
				c2.1,2.7,4.2,5.7,5.4,8.5C257.7,104.5,256.3,99.9,253.3,95.4z"/>
			<path class="st8" d="M248.2,88.5c-0.3,0.8-0.3,1.5-0.1,2.4c1,0.1,1.9,0.2,2.3,0.3c0-0.7,0.3-1.4,0.8-1.9c0.3-0.3,0.7-0.6,1.2-0.8
				c-0.2-0.3-0.7-0.9-1.3-1.6C249.8,87,248.6,87.5,248.2,88.5z"/>
			<path class="st8" d="M251.7,86.9c0.5,0.6,0.9,1.1,1.2,1.5c0.6-0.2,1.3-0.3,2-0.3C254.2,87.3,253,86.9,251.7,86.9z"/>
			<path class="st5" d="M255.2,88.5c-1.3-0.2-2.8,0.2-3.6,1c-2.2,2.2,1.4,6.4,5,6.2c-0.3-0.3-0.5-0.7-0.6-1.1
				c0.2,0.3,1.4,2.1,4.8,2.2c1.9,0.1,3.6-0.3,5.2-1.3c2.7,0.2,5.4,0.5,8,0.9c-0.7,2.1-1,5-1.3,7.2c-0.2,1.4-0.4,2.8-0.6,4.2
				c-0.7,4.2-2.3,9.5-5.6,11.6c0,0.8,0,1.7,0,2.5c0,0,0.1,0,0.1,0c3.1-1.2,5.1-6.1,6.7-10.7c-0.1,1.8-1.8,8.3-5.1,10.7
				c1.5-0.1,2.9-0.6,4.2-1.2c2.2-2.3,3.6-8.8,4.8-14.9c0.6-3.2,1.3-6.3,2.1-8.8c-4.9-1.2-11.5-2.3-19.1-2.1c-1.1,0-0.7-0.4,0.1-0.4
				c2.3-0.1,4.6,0,6.9,0.2c0.3-0.3,0.6-0.5,0.9-0.7c-1-0.1-1.8-0.6-2.1-1.3c-0.2-0.5-0.2-0.9-0.1-1.4c-0.4,0.2-0.9,0.3-1.3,0.5
				c0,0.2,0.1,0.4,0.1,0.6c-0.1-0.2-0.1-0.4-0.2-0.5c-1.3,0.5-2.5,1-3.5,1.6c-0.6,0.3-0.9-0.1,0.2-0.6c0.9-0.4,2-0.9,3.2-1.4
				c-0.5-0.7-1.4-1.3-2.2-1.6c-1.1-0.3-2.1-0.2-3,0.4c1,0.3,1.8,0.8,1.8,1.2c0,0.9-2.4,1.5-3.7,1.9c-0.5,0.1-0.7,0.5-0.8,0.5
				c-0.6-0.1-2.9-2-2.8-3c0.1-1.1,2.3-1.2,4.2-0.8C257.1,89.2,256.2,88.7,255.2,88.5z"/>
			<path class="st5" d="M279.4,96.6c0.6-1.9,1.3-3.4,2.2-4.4c-1.9-0.2-3.7,0-5.3,0.2c-0.8,0.6-1.5,1.6-2.1,3.1
				C276.1,95.8,277.8,96.2,279.4,96.6z"/>
			<path class="st9" d="M267.6,73.6c-0.6,0.5-2.1,2.9-2.7,4.7c0,0,0.8-4.9-0.1-3c-0.3,0.7-0.9,2.4-1.1,3.8l0-0.1
				c-0.6,3.5-2.4,8.4-3.5,10.2c0.6-0.1,1.3-0.1,1.9,0.1c0.2,0.1,0.4,0.1,0.6,0.2c-0.2-3.3,1.9-8.6,5-12.4c0.6-0.7,1.1-1.2,1.5-1.6
				c0-0.2,0-0.3-0.1-0.3c-0.1,0-0.9,0.2-3,3.1C264.9,79.9,268.9,72.5,267.6,73.6z"/>
			<path class="st10" d="M261,85c0-1.1-0.5-2-1.1-2.1c-0.6-0.1-1.4,0.4-2.1,2.2c-0.5,1.3-0.6,3.1-0.4,4c0.3,0.2,0.5,0.5,0.7,0.9
				c0.1,0,0.1,0,0.2,0c0.4-0.4,0.9-0.6,1.4-0.8c0.2-0.2,0.4-0.6,0.6-1C260.6,87.5,261.1,86.2,261,85z"/>
			<path class="st11" d="M267.9,77.3c-1.6,2-3,4.4-3.9,6.8c0.3-0.5,0.6-0.8,0.9-1.1c1-0.7,3-0.5,2.5,3.9c-0.2,1.6-0.8,2.7-1.2,3.3
				c0.5-0.6,1.2-1.3,2.1-1.8c4.3-6.2,5.8-14,3.4-13.8C270.8,74.5,269.4,75.5,267.9,77.3z"/>
			<path class="st10" d="M267.2,86.9c0.5-4.1-1.3-4.5-2.5-3.3c-0.5,0.5-0.9,1.2-1.2,2.2c-0.4,1.5-0.6,2.9-0.5,4
				c0.5,0.3,0.8,0.7,1.1,1.1c0.6-0.4,1.3-0.5,1.8-0.4C266.2,90,267,88.9,267.2,86.9z"/>
			<path class="st5" d="M264.2,90.9c0.1,0.1,0.1,0.2,0.2,0.4c0.5-0.2,1.1-0.4,1.7-0.6c0,0,0,0,0,0C265.6,90.6,264.9,90.6,264.2,90.9
				z"/>
			<path class="st5" d="M266.1,90.4C266.1,90.4,266.1,90.4,266.1,90.4C266.1,90.4,266.1,90.4,266.1,90.4
				C266.1,90.4,266.1,90.4,266.1,90.4z"/>
			<path class="st5" d="M253.8,90.6c-0.2,1.1,3.2,1.3,3.3,0.4C257.2,89.9,254,89.6,253.8,90.6z"/>
			<path class="st11" d="M256.7,88.6c0.2,0.1,0.4,0.2,0.5,0.4c-0.1-1,0-2.6,0.4-3.8c0.6-1.6,1.4-2.5,2.3-2.4c0.8,0.1,1.3,1,1.3,2.3
				c0,0.5-0.1,1-0.2,1.6c1.5-3.6,3-9.1,2.5-10.9c-0.4-1.3-2.1,0.1-3,1.1C257.5,80.3,256.6,85.2,256.7,88.6z"/>
			<path class="st8" d="M276.4,67.9c2,1.2,4,2.6,5.5,4.3c-0.9-1.5-2.5-3.7-5-5.9C276.8,66.9,276.6,67.4,276.4,67.9z"/>
			<path class="st8" d="M276.4,57.9c0.5,2,0.9,5,0.6,7.5c2.2,1.6,4.2,3.3,5.6,5C282.2,68.2,280.7,63.1,276.4,57.9z"/>
			<path class="st12" d="M303.6,88.3c1.1-3.3,1.7-7.1,2.2-10.5c0.1-0.5,0.1-1,0.2-1.5c0.5-3.6,1.2-5.9,2.2-7.4
				c-7.5,4-13.9,10.9-16.9,16.9c0.3,0.7,0.8,1,1.4,1.1c2,0.1,3.3-2,3.3-2c0.2,0.2,0.1,2.5-3.6,5.2c2.9-0.7,5.4,1,5.1,1.5
				c0,0-3.5-1-6.4,1.9c2.1-0.6,4-0.1,5.1,0.6c0.9,0.5,1,1.4,0.8,1.2c-1.2-1.4-5.7,1.6-6.4,3.5c0.4,0.3,0.8,0.5,1.3,0.7
				C297.5,98.4,301.6,93.9,303.6,88.3z"/>
			<path class="st8" d="M296.2,106.2c-2.3-3-4.7-5.2-8.6-5.8c2-0.4,3.9,0.4,5.6,1.8c1.1-0.1,3.2-0.6,4.2-1.4
				c-3.4,0.6-8.6-1.1-8.8-4.3c0.3,0.7,0.8,1.4,1.5,2c0.3-1.5,3.1-4,5.8-4c-3.1-1.6-6-0.2-6-0.2c0.3-0.8,1.7-3.3,6-3.5
				c-2.4-1.2-5.1-0.3-5.5,0.1c0.2-0.8,2.7-1.3,4.7-4.7c-1.6,1.3-3.3,1.4-4.2,0c-0.4,0.7-0.7,1.5-0.9,2.2c-0.1-0.7,0.2-1.7,0.6-2.8
				c0,0,0,0,0,0l0,0c2.2-5.5,9.9-14.8,20.4-18.7c-5.3,0.8-17.9,5.5-25.3,12.9c0.6-1,1.4-2,2.3-2.9c-2.6-3.6-3.2-7.2-3.5-9.4
				c-0.1,3.3,1,7.4,1.2,8.3c-0.6-0.9-0.4-0.9-1.2-2.2c-0.3-0.4-0.6-0.9-1-1.4c-1.1-1.5-2.7-3.2-5.1-5c1.4,1.4,5,5.4,4.6,7.3
				c0-0.1-0.1-0.4-0.3-0.8c-2.1-2.8-7.2-5.9-10.1-7.4c1.2,0.8,2.3,1.6,3.2,2.3c0.7,0.2,1.2,0.7,1.6,1.3c2.5,2.1,3.2,3.4,3.1,3.7
				c-0.1-0.1-1.5-0.7-2.2-1c0.3,2.4-0.4,5.3-2.1,6.6c1.1-1.7,2.7-4.7,1-8.5c-0.2-0.4-0.9-1.4-1.8-1.7c-1.1-0.4-2.2,0.3-3,1.5
				c0.6-0.7,1.5-1.3,2.8-1.2c-0.5,0.2-1,0.7-1,1c0.9-0.6,2.7,0.2,3,1.3c-0.4-0.5-1.1-0.8-1.5-0.6c0.9,0.6,2.4,4-0.8,9
				c0.4-0.9,2.2-5.2,0.2-7.7c-1.4-1.8-3-0.9-3.9,0.7c0,0,0-0.3,0.2-0.8c-1.7,0-4,1.1-4,1.1c0-0.2-0.1-3.8-2.2-3.2
				c1.3,0.7,1.1,3.3,0.8,4.1c0-0.8-1.1-2.6-3.1-1.3c-1.2,0.8-2.4,2.6-3.2,4.7c0.2-0.3,0.5-0.6,0.8-0.9c0.6-0.7,1.2-1.2,1.6-1.5
				c1.7-1.1,2.3,0,2,0.4c0,0-0.1-0.2-0.3-0.3c0.3,0.4,0.4,1,0.3,1.8c0.3-1.2,0.8-2.6,1.3-2.4c0.3,0.1,0.4,0.8,0.2,1.7
				c0.9-1.9,2.1-3.2,2.5-3.3c0.7-0.2-0.3,2.2-0.9,3.5c0.7-1,2.2-2,2.3-1.4c0,0.1,0,0.1,0,0.2c1.1-1,2-1.2,2.6-1.2
				c-0.1-0.1-0.3-0.2-0.5-0.2c-0.2-0.1,1.1-1.1,1.7,0.8c0.9,2.7-1,8.5-4.3,13.3c3.6-2.1,9.1-3.4,11.2-2.3
				c-5.1-0.3-11.5,2.1-13.4,4.7c7.5-2.8,17.3-5.4,20-4.8c-2.3,0.1-12.2,2.4-20.3,5.4c-0.2,0.5-0.3,1-0.1,1.5
				c0.8,1.8,3.6,0.8,5.5,0.4c1.8-0.4,9.2-2.7,13.2-0.2c-1.1-0.3-2.1-0.4-3.1-0.5c-0.8,0.9-1.5,2.5-2.1,4.4c4,1,6.8,2.2,7.5,3.1
				c-0.9-0.5-3.6-1.6-7.7-2.6c-0.8,2.6-1.4,5.9-2.1,9c-1.2,5.8-2.5,11.6-4.5,14.2c3.8-2.1,6.8-5.8,7.5-7.2c1.1-4.6,4.2-10.2,8.6-9.5
				c0.3,0.1,0.7,0.2,1,0.3C291.2,103.7,293.6,104,296.2,106.2z"/>
			<path class="st8" d="M277.9,70.9c0.1,0.3,0.2,0.7,0.3,1.1c0.3,0.1,0.8,0.3,1.2,0.5C278.9,72,278.4,71.4,277.9,70.9z"/>
			<path class="st5" d="M339.7,72.3c-0.2,0-0.5,0.2-0.6,0.2c-2.3,2.9-5.6,8.6-6.7,18c-0.3-3,1.2-10.3,4.1-15.4c0-0.2,0-0.6,0.1-0.8
				c-1.9,3.1-3.6,5.1-5.2,10.9c-1.1,4.1-1.5,8.1-1.7,12.1c0.1-0.4,0.3-0.5,0.5-0.5c0.8,0.1,1.1,2.6,1.3,5.1c0.3-3.7,0.9-8,1.9-5
				c0.2,0.5,0.3,1.1,0.4,1.9c0.2-2.6,0.6-4,1.2-4c0.2,0,0.4,0.2,0.6,0.6c-0.2-1.8-0.3-3.5-0.4-5.3C334.9,80.9,337.7,74.7,339.7,72.3
				z"/>
			<path class="st8" d="M337,116.8c0.2-8.8-0.6-14.6-1.2-19.8c-0.3-1.1-0.7-1.9-0.9-1.9c-0.1,0-0.4,0.1-0.7,2.6
				c-0.1,1.2-0.4,6.6-0.4,6.6c-0.5,1.3,0.1-4.6-0.7-7.2c-0.6-1.8-1-0.9-1.5,7.6c0,0.5-0.1,0.3-0.2-0.4c-0.2-2.7-0.5-7.1-1.3-7.2
				c0,0-0.3-0.1-0.5,1.4c0,1.2-0.1,2.4-0.1,3.6c-0.1,3.5-0.2,7.2-0.6,11c-0.6,5.1-2,12-4.8,16.4c4.2,0.6,7.7,2.7,10.3,5.8
				C336.2,129.4,336.8,123.2,337,116.8z"/>
			<path class="st8" d="M331.4,169.7c3.2-6.7,6.1-14.8,6.1-21.7c0-6-2.4-11.3-7.6-14.7c-9-5.9-18.9-0.7-23.6,3.8
				c2.7,1.7,5.5,3,8.3,4c-4.3-0.6-8.8-3.1-12.1-5.7c-5.2-4-8.6-8.7-10-12.7c-0.3,2.1-0.6,4.4-0.9,7.1c-0.3,3.1-0.6,10.3-0.8,15
				c0.4,0.5,0.8,0.9,1.3,1.3c5.1,4.7,11.3,6.4,11.3,6.4c0,0.4-3.2,0.3-5.5-0.5c0.7,0.3,2.2,1.1,3.1,1.5c1.5,0.7,3.3,1.6,5.1,2.5
				c4.5,2.3,7.3,4.2,8.8,6.1c1.8,2.1,1.8,4.1,1.4,5.3c-0.3,1.1-0.9,2-1.3,2.4c2.2,4.6,1.8,14.6,0.9,21.4c0.1,0,0.2,0,0.4,0
				c0.4,0.2,0.7,0.9,0.7,2.2c0.3-1.4,0.7-2.3,1.2-2.5c1.1-0.5,1.2,1.8,1,3.5c0.4-1.2,0.9-2.1,1.5-2.5c0.9-0.6,1.5,0.2,1.7,1.3
				C324.4,184.9,328.6,175.5,331.4,169.7z"/>
			<path class="st5" d="M292.1,208.8c0.4,1.3,2.1,3.3,6.3,3.4c-0.7-0.6-1.2-1.4-1.4-2.2c-0.5-2.2,1.2-5.2,5-5.9
				c4.3-0.8,8.2,2.1,8.5,3.8c0,0-3.2-4.1-8.2-3.1c-2,0.4-3.4,1.2-4.1,2.5c-1.5,3,1,5.8,5.2,6c4,0.2,10-2.3,13.8-4.8
				c2.6-1.7,5.6-4.3,5.7-7c0.1-1.6-0.7-2.7-0.9-4.2c-0.2,0.8-0.4,1.3-0.5,1.9c-0.1-1,0.3-3,0.6-4.5c0-0.2,0.1-0.3,0.1-0.5
				c0-1.2-0.5-2.4-1.3-1.8c-0.7,0.5-1.7,2.6-2.1,5.3c0,0.1-0.2-0.1-0.1-0.4c0-0.2,0.7-6.9-0.4-6c-1,0.8-1.5,6.3-1.5,6.3
				c0,0-0.1,0-0.1-0.2c0-0.1,0-0.3,0.1-1.8c0.1-0.7,0.1-1.5,0.1-2.1c0-1-0.2-1.8-0.6-1.9c-0.1,0-0.2,0-0.3,0.1
				c-0.5,3.7-1.1,6.4-1.5,6.7c0,0,0-0.2,0.1-0.6c-1,0.8-4.5,2.8-11.5,3.5c0.1,0.1,0.2,0.3,0.3,0.5c-0.8-0.8-3.6-1.4-6.2-0.8
				c-1.4,0.3-3.2,1-4.3,3c0.1-0.1,0.1-0.1,0.2-0.2c2.8-2.2,8.1-2.2,9.5-0.2c-2.2-1.5-6.5-1-8.9,0.9
				C292.6,205.3,291.4,206.7,292.1,208.8z"/>
			<path class="st5" d="M308.3,192.7c-1,0.9-4.8,1.8-7.7,1.9c-1.8,0-1.7-0.1-3-0.6c-2.6-1.1-8.4-3.3-10.9-0.9c4-1.6,8.1,0.4,9,2.2
				c-3.4-2.7-7.5-2.3-9.8-0.9c-2,1.2-3.1,3.2-2.7,4.9c0.1,0.6,0.5,1.2,1.1,1.7c0.1-1.7,1.4-3.4,4.2-4.4c3.6-1.3,6.9-0.1,7.6,1.7
				c-1.9-1.5-4.8-1.9-7.2-1.1c-1.9,0.7-3.4,2.1-3.7,3.4c-0.2,0.9,0,1.8,0.6,2.6c0.9,1.3,3,2.4,5.7,2.3c0.1-0.2,0.3-0.5,0.5-0.7
				c0.7-3.4,3.5-4.4,5-4.7c1.8-0.4,4.3-0.3,5.6,0.6c6.8-0.7,11.1-3,12.1-3.7c0.1-0.5,0.1-1,0.2-1.7c0-1.9-0.5-5.3-1.4-4.6
				c-0.8,0.6-1.3,4.8-1.5,6.4c0,0.1-0.1,0.3-0.1-0.1c0-0.2,0-0.6,0-0.9c0-2-0.2-4.9-0.9-5.3c-0.5-0.3-1.5,3.6-1.8,5.3
				c0,0.2-0.2-0.1-0.2-0.1c0.1-1.2,0.1-3.4-0.2-4.7c-0.1,2.4-0.4,4.4-0.7,4.6C308.2,194.9,308.2,193.9,308.3,192.7z"/>
			<path class="st8" d="M308.9,188.5c0,0.6,0,1.1,0,1.7c0.3,0.7,0.4,2.3,0.4,3.8c0.5-2.1,1-3.3,1.5-3.5c1-0.4,1.1,2.9,1.2,4
				c0.3-1.7,0.7-3.5,1.3-4c1-0.7,1.6,1.1,1.8,3c0.8-6.4,1.8-17.5-0.5-23.4c-2.7,0.6-7.4-0.6-9.4-1.2c-0.2-0.1-0.4-0.1-0.6-0.2
				C307.8,174.1,308.9,182.4,308.9,188.5z"/>
			<path class="st9" d="M304.5,167.8c5.2,1.7,9.3,1.9,10.4,1.8c0.4-0.4,1.1-1.4,1.2-2.7c0.2-1.5-0.2-3-1.4-4.4
				c-1.5-1.8-4.3-3.7-8.8-6c-9.3-4.8-9.4-4.9-9.4-5.2c1.1,0.5,4.2,1.2,5.8,1.1c-1.8-0.5-7.4-2.4-11.5-7.3c-0.1,2.4-0.1,4.1-0.1,4.1
				c-0.5,0-1.1-2.7-1.4-5.4c-0.5,5.1-0.8,10.5-1,14.8C293.8,163.3,299.6,166.2,304.5,167.8z"/>
			<path class="st5" d="M279.9,164.8c0,0.7,0.1,1.3,0.1,1.9c0.1,1.6,1.5,9.2,6.3,13.4c-0.3-0.2-0.6-0.3-1-0.5
				c1.9,5.6,6.9,6.5,8.2,6.3c-2.2-1.1-4.4-3-6.3-5.6c2.2,1.9,7.1,6.8,11.6,6c2.7-0.5,2.9-4,0.8-5.5c-0.1,0.1-0.2,0.1-0.4,0.1
				c-1.6,0.6-3.5,0.5-5.1-0.1c-1.6-0.6-3.7-3.1-3.5-4c0.2,0.4,1.3,2.2,2.9,3.1c2.3,1.3,7.1,1.1,8.6-2.6c0.2-0.6,0.5-1.6,0.1-2.7
				c-1.5-4.4-7-3-7.4-1.1c0.1,0.3,0.2,0.7,0.3,1c0.8,0.2,2,1.1,2.1,2.5c-0.3-0.6-1.2-1.7-2-2.1c0.2,1.1,0.3,2,0.1,2.8
				c0-0.1-1.7-10.1-9.2-12.1c0.5-0.1,1-0.1,1.4-0.1c-0.1-0.8-0.2-1.8-0.2-2.8c-0.2-1.4-0.5-2.7-1.1-3.1c-1.1-0.9-1.2,3.2-1.2,5.4
				c0,0-0.1,0-0.2-0.2c-0.2-1.2-0.6-5.1-1.6-6c-0.6-0.6-1.1,3.4-0.7,6.9c0,0-0.2-0.1-0.2-0.2c-0.4-1.4-1.2-6.9-2-6
				C280,160.1,279.9,162.7,279.9,164.8z"/>
			<path class="st9" d="M277.9,147.7c-0.1-1.8-0.2-3.7-0.3-5.6c-0.1-4.2-0.1-8.5,0.1-12.5c-0.7-3.2-2.5-5-3.1-4.2
				c-0.9,1.2-0.4,6.8,0.1,8.7c-0.1,0.3-0.8-1-1.3-2.1c-0.8-1.9-2-4.6-3-6.1c-0.7-1.1-1-1-1.1-1c-0.4,0.2-0.4,2,0,3.6
				c0.2,0.5,0.4,1,0.7,1.7C272.3,135.8,275,143.1,277.9,147.7z"/>
			<path class="st8" d="M252.4,146.1c2.1,2.3,3.3,3.6,6.3,3.7c-0.3,0.6-3.9,0.2-4.8,0c1.7,1.5,4.5,1.4,6,1
				c6.6-1.6,9.6-11.9,11.8-13.9c-0.6-1.7-1.2-3.3-1.8-4.9c-0.9-1.4-2.2-3.4-3-4.3c0.7,0.2,1.7,1.6,2.4,2.8c-0.1-0.2-0.1-0.3-0.2-0.5
				c-1-2.6-1.8-5.3-2.1-5.8c0.6,0.6,0.7,1,1.6,3.1c-0.1-0.8,0-1.5,0.1-2c0.3-1.1,1.1-0.5,1.8,0.5c0.9,1.3,1.6,3.1,3.6,7.5
				c-0.4-2.3-0.8-6.8,0.1-7.9c0.8-1.1,2.5,0.5,3.4,3.4c0.3-4.3,0.8-8.1,1.8-10.8c-0.4,4.3-0.9,9.6-1.1,13.7
				c-0.5,10.6,0.3,18.8,1,26.4c0.1,1,0.2,2.1,0.3,3.1c0.1-0.9,0.3-1.5,0.5-1.9c1-1.1,1.7,1.9,2,3.3c0-1.5,0.2-4.9,1.4-3.9
				c0.5,0.4,1.1,1.9,1.4,3.7c0.1-1.6,0.3-3.9,1.5-2.9c0.4,0.3,0.7,0.9,0.9,1.6c-0.1-8.3,1.5-19.9,1.9-21c0-0.3,0.1-0.5,0.1-0.7
				c-0.2,0.7,0.2,5.1,0.8,7.7c0-3.7,0-12.1,0.6-17.3c0.4-3.6,0.8-6.5,1.2-9c0.5-3.1,0.9-5.5,0.8-7.7c0-3.4-1.5-8.3-4.3-8.4
				c-3.7-0.1-6.8,5.3-8.5,12.1c0-0.6,0-1.3,0.2-2c-2.6,4.1-8.7,8.5-13.3,7.9c-0.1,0.1-0.3,0.1-0.4,0.1c0.2,4.3,0.9,8.1,0.8,10.4
				c-0.2,5.4-5.6,8.9-9.5,4.6c-0.8-0.8-1.3-1.8-1.8-2.8c-1.3-1.4-4.3-4.9-6.4-8.5c0.8,2.2,1.6,5.3,0.9,6.1c-0.5,0.5-2.1-2.2-2.5-2.8
				c0.6,1.7,1.4,4.1,1,5c-0.6,1.5-2.9-2.7-3.7-4.1c0.1,0.2,0.1,0.4,0.2,0.6c0.5,1.5,1.1,3.1,0.8,3.7c-0.3,0.6-1.2-0.2-2-1.3
				C246.1,136.9,249.2,142.5,252.4,146.1z"/>
			<path class="st5" d="M243.3,131.3c0.7,1.2,2.5,3.9,2.8,3.2c0.3-0.5-0.3-2.2-0.8-3.5c-0.2-0.5-0.4-1.1-0.5-1.5
				c0,0,0.1-0.3,0.1-0.3c0.6,1.2,3.4,6.4,3.9,5.2c0.5-1.1-1.7-6.5-1.7-6.6c0,0,0-0.4,0.1-0.3c0.1,0.2,0.1,0.4,0.6,1.2
				c0.4,0.7,2.4,4,2.7,3.2c0.4-1.1-0.7-4.6-1.5-6.8c-0.5-0.9-0.9-1.8-1.2-2.7c-0.4,1-0.9,1.6-1.4,1.9c2.1-3.3,1.4-9.6-0.5-12.8
				c-0.9-1.5-2-2.4-3.2-2.3c-0.9,0-1.3,0.6-1.9,1.6c-0.4,0.6-0.8,1.2-1.4,1.7c-0.6,0.5-1.3,0.8-2,1.1c-0.9,0.4-1.6,0.7-1.9,1.4
				c-0.4,1-0.1,2,0.3,2.6c0.8,1.3,2.4,2.3,3.8,2.4c0.9,0.1,2.2-0.6,3.2-1.6c1.5-1.5,2.4-4,2.1-6c1.7,2.3-1.3,8.6-5.6,8.3
				c-0.5,0-1-0.2-1.5-0.4c0,0.4-0.1,0.8-0.3,1.2c4.7-1.4,8.9,1.1,7.7,5.6c-0.4,1.4-1.1,2.3-2.5,3.1
				C242.9,130.6,243.1,130.9,243.3,131.3z"/>
			<path class="st5" d="M242.2,129.6c1.2-0.7,2-1.6,2.3-2.8c0.4-1.5,0.1-2.8-0.9-3.6c-1.4-1.3-4-1.8-6.4-1.1c0,0,0,0.1-0.1,0.1
				c0.7,1.2,0.7,2.4,0.2,3.6c-0.2,0.4-0.4,0.8-0.7,1.2c-0.1,0.7-0.4,2.1-0.7,3.8C237.1,131,240,130.9,242.2,129.6z"/>
			<path class="st6" d="M236,127.6c-0.8,0.7-1.9,1.1-3.1,1.2c0.2,0.1,0.3,0.3,0.5,0.4c0.8-0.4,1.7-0.5,2.3-0.3
				C235.8,128.4,236,128,236,127.6z"/>
			<path class="st6" d="M231.3,131c0.4,0.4,0.9,0.9,1.3,1.5c0.7-0.4,1.4-0.7,1.9-0.8c-0.3-0.7-0.7-1.5-1.1-2.1
				C232.7,129.9,231.9,130.4,231.3,131z"/>
			<path class="st6" d="M235.7,129c-0.4,0-1.2,0.2-2.1,0.5c0.4,0.6,0.8,1.4,1.1,2.1c0.1,0,0.2,0,0.3,0
				C235.3,130.7,235.5,129.8,235.7,129z"/>
			<path class="st6" d="M235.1,131.8c-0.1,0-0.1,0-0.2,0.1c0,0.1,0.1,0.3,0.1,0.4C235,132.1,235,131.9,235.1,131.8z"/>
			<path class="st6" d="M234.9,132.6c-0.1-0.2-0.2-0.4-0.3-0.7c-0.5,0.2-1.2,0.4-1.9,0.8c0.5,0.7,1,1.5,1.2,2.3
				c0.1,0,0.3-0.1,0.4-0.1C234.5,134.1,234.7,133.3,234.9,132.6z"/>
			<path class="st6" d="M234.3,135c-0.1,0-0.2,0.1-0.3,0.1c0.1,0.2,0.1,0.4,0.2,0.5C234.2,135.4,234.3,135.2,234.3,135z"/>
			<path class="st6" d="M230.9,137.8c0,0.7,0.1,1.3,0.4,1.6c0.3,0.4,0.7,0.6,1,0.6c0.3-0.1,0.9-0.4,1.3-2.2c0.1-0.6,0.3-1.2,0.5-1.9
				c-0.1-0.2-0.2-0.5-0.3-0.7c-0.5,0.2-1.3,0.5-1.9,1c0.6,0.9,1.1,2,1.1,2.8c-0.1-0.6-0.7-1.7-1.3-2.7c-0.3,0.2-0.5,0.5-0.8,0.7
				C230.9,137.5,230.9,137.7,230.9,137.8z"/>
			<path class="st6" d="M230.8,136.7c0.2-0.2,0.4-0.4,0.7-0.6c-0.2-0.4-0.5-0.8-0.7-1.1C230.8,135.7,230.8,136.3,230.8,136.7z"/>
			<path class="st6" d="M230.8,134.8c0.3,0.3,0.6,0.7,0.9,1.2c0.6-0.4,1.3-0.8,2-1c-0.3-0.7-0.8-1.4-1.3-2.1
				c-0.6,0.3-1.2,0.8-1.7,1.3C230.7,134.4,230.8,134.6,230.8,134.8z"/>
			<path class="st6" d="M230.7,133.9c0.4-0.5,0.9-0.9,1.5-1.3c-0.4-0.5-0.8-1-1.2-1.5c-0.1,0.1-0.3,0.3-0.4,0.5
				C230.7,132.4,230.7,133.2,230.7,133.9z"/>
			<path class="st6" d="M230.6,131.4c0.1-0.1,0.2-0.3,0.3-0.4c-0.1-0.1-0.2-0.2-0.3-0.3C230.6,130.9,230.6,131.2,230.6,131.4z"/>
			<path class="st6" d="M230.6,130.4c0.2,0.1,0.3,0.3,0.5,0.4c0.5-0.6,1.3-1.1,2.1-1.5c-0.1-0.2-0.3-0.4-0.4-0.5c-0.4,0-0.9,0-1.4,0
				c-0.3,0-0.6-0.1-0.9-0.1C230.5,129.1,230.6,129.7,230.6,130.4z"/>
			<path class="st5" d="M229.7,129.9c0-0.6,0-1.1-0.1-1.4c-1.7-0.5-3.2-1.4-3.2-3.1c0.3,1.3,2.8,2.6,5,2.7c2.4,0.2,4.3-0.8,5.2-2.6
				c0.5-1.1,0.4-2.5-0.5-3.6c-1.3-1.7-4-2.7-6.2-2.4c-3.3,0.5-5.2,2.3-5.3,4.5C224.5,126.2,226.2,128.8,229.7,129.9z"/>
			<path class="st5" d="M225,121.2c1-1.1,2.7-1.9,4.9-2.2c2.6-0.4,5.4,0.7,6.9,2.6c0,0,0,0.1,0.1,0.1c0.4-0.4,0.5-1.1,0.5-1.4
				c-1.7-1-3-2.9-2.6-4.7l0,0c-0.2-0.2-1.8-1-3.9-1c-1.4,0-3.5,0.3-5.1,1.9C224.6,117.5,224.1,119.3,225,121.2z"/>
			<path class="st5" d="M226.3,112.5c-0.6,1.1-0.6,2.3-0.5,2.8c1.7-1.3,3.7-1.5,5.1-1.5c1.8,0,3.3,0.4,4.1,0.8
				c0.6-1.2,1.8-1.6,2.9-2.1c-0.1-0.9-1.7-2.6-4.5-2.8C229.5,109.4,227,111.2,226.3,112.5z"/>
			<path class="st13" d="M221.4,101.6c0.6,0.4,0.3,2.1,2.1,3.2c1.8,1.1,3.8-0.6,5-0.6l0-0.6c-1.2-0.3-2.5-1.1-2.6-2
				c0.3,0.3,3.8,3.3,8.2-0.4c1.3-1.1,2-2.5,2-4.1c0.1-2.7-1.3-5-2-5.8c1.1,0.4,2.8,3.2,2.7,5.8c0,1.6-0.7,3-1.9,4.2
				c3,2.5,5.5,1.2,7.5,0.1c1-0.6,1.8-1.1,2.4-0.4c-0.6-0.1-1.1,0.2-1.7,0.6l-1.1,3.6l0,0c0.4,0.4,0.7,0.5,1.1,0.4
				c1.6-0.2,0.8-2.6,2.2-3.8c0.7-0.5,1.4-1,1.7-2.2c0.4-1.8,0-5.3-3-7.1c-0.1,0.1-0.1,0.2-0.2,0.3c-1.5,1.9-3.4,1.9-4,2.8
				c-0.1-0.4,0.3-0.9,1.5-1.6c1.7-0.9,2.6-2.3,2.8-3.9c0.8-5.9-2.7-10.7-8.8-11.4c-6.8-0.8-11.9,4.6-11.8,10.8
				c0.6-0.3,1.3-0.7,1.5-1.1c0.2-0.3-0.1-0.8-0.4-1.1c0.9,0,1.1,0.7,0.7,1.4c-0.9,2-6,1.8-6.1,4.9c0,0.8,0.2,1.6,0.2,2.3
				c0,0.9-0.7,1.8-1,2.8C217.8,100.9,220.5,101,221.4,101.6z"/>
			<path class="st5" d="M265.8,86.5c0.1-0.6-0.1-1.1-0.4-1.1c-0.3-0.1-0.6,0.4-0.7,1c-0.1,0.6,0.1,1.1,0.4,1.1
				C265.4,87.5,265.7,87,265.8,86.5z"/>
			<path class="st5" d="M259.8,86c0.1-0.5,0-1-0.3-1c-0.3-0.1-0.6,0.3-0.7,0.8c-0.1,0.5,0,1,0.3,1C259.4,86.9,259.7,86.6,259.8,86z"
				/>
		</g>
		<g>
			<path class="st14" d="M272.4,86.1c0.7-1.2,5.6-3,5.7-1.7C277.4,84.2,273.6,85.1,272.4,86.1z"/>
			<path class="st14" d="M264.1,87.4c-0.3,1.3-0.1,2.5,0.4,2.6c0.5,0.1,1.1-0.9,1.4-2.2c0.3-1.3,0.1-2.5-0.4-2.6
				C265,85.1,264.3,86.1,264.1,87.4z M264.7,86.3c0.1-0.6,0.4-1,0.7-1c0.3,0.1,0.5,0.6,0.4,1.1c-0.1,0.6-0.4,1-0.7,1
				C264.7,87.4,264.6,86.9,264.7,86.3z"/>
			<path class="st14" d="M258.6,89.2c0.4,0.1,1-0.8,1.2-2c0.2-1.2,0.1-2.2-0.3-2.3c-0.4-0.1-1,0.8-1.2,2
				C258,88.1,258.2,89.1,258.6,89.2z M258.8,85.9c0.1-0.5,0.4-0.9,0.7-0.8c0.3,0.1,0.4,0.5,0.3,1c-0.1,0.5-0.4,0.9-0.7,0.8
				C258.8,86.8,258.7,86.4,258.8,85.9z"/>
			<path class="st14" d="M312.6,207.7c-0.8-1-2.9-2.5-4.3-2.6C310,204.7,313.1,206.9,312.6,207.7z"/>
			<path class="st15" d="M219.3,101.9c0.9,0.4,1.8,0.4,2.1,0.6c0.1,0.1,0.4,2.3,1.7,3.1c2.1,1.3,3.9-0.4,5.5-0.6l0.1,4.7
				c-2,0.8-2.9,2.1-3.3,3c-0.6,1.3-0.6,2.7-0.3,3.3c0,0-0.1,0.1-0.1,0.1c-1.3,1.3-2,3.6-0.6,5.9c-0.4,0.6-0.6,1.3-0.7,2.1
				c-0.2,2.9,2.4,5.8,6,6.8c0.1,2.7,0.3,6.5,0.3,7c0,2.2,1.3,2.9,2.2,2.9c1.3,0,2-1.5,2.3-2.8c0.4-1.9,0.9-4.3,1.3-6.3
				c0.3,0.1,0.8,0.1,1.3,0.1c1.5,0,3.5-0.3,5.2-1.2c1.6,2.6,6.8,15.8,12.6,19c-0.7,0-2.4-0.4-3.2-0.7c-0.1,0,3.1,4.1,8.6,2.8
				c6.6-1.6,9.9-11.8,11.7-14.3c1.6,4.1,3.5,8.4,6,12c0.3,3.7,0.6,7.1,0.8,9.5c0.5,5.4-0.2,7.8,1.2,12.3c0.9,2.9,2.5,5.9,4.5,7.7
				c2.4,7.3,7.8,8.6,9.7,7.3c1.4,0.6,2.8,1,3.9,0.9c4.2-0.1,4.9-4.5,2.1-6.6c2.4-1.4,3.9-4.1,2.4-6.7c-2.3-4.3-7.2-2.9-8-0.7
				c-1.2-3.2-3.6-6.7-6.4-7.4c-0.1-1.3-0.1-3.5,0-6.1c5.4,4.8,11.1,7.3,15.4,8.8c3.9,7.3,4.6,17.4,4.6,23.7
				c-0.8,0.8-4.2,1.5-7.1,1.7c-2.3,0.2-2.1,0-3.5-0.7c-7.7-3.8-12.3-1.3-12.9,0.9c-2,1.4-3,3.5-2.6,5.4c0.2,1.1,0.9,1.9,2,2.6
				c0.1,0.6,0.4,1.2,0.8,1.7c0.8,1.1,2.5,2.7,6,2.7c-0.2,0.8-0.2,1.6,0.2,2.6c0.7,2.1,3.6,4.4,8.1,3.8c1.1,0.7,2.5,1.1,4.4,1.2
				c0.2,0,0.4,0,0.6,0c4.2,0,9.8-2.4,13.6-4.9c2.9-1.9,6-4.9,6.1-8c0.1-1.7-1.2-4-1.4-5.5c0.1-0.4,0.2-0.9,0.4-1.4
				c1.1-4.3,3.4-11.7,9.1-23.8c3.2-7,6.4-15,6.7-22.3c0.1-4.7-1.3-9-3.9-12.3c2.1-6.1,3.1-12.3,3.3-18.9c0.4-12.8-1.8-19.2-2-26.8
				c-0.2-5,0.2-12.4,3.6-17.8c-2,2.3-4.8,8.6-4.5,17.8c0.1,1.8,0.2,3.6,0.4,5.3c-0.2-0.4-0.4-0.6-0.6-0.6c-0.6,0-1.1,1.4-1.2,4
				c-0.1-0.8-0.2-1.4-0.4-1.9c-1-3-1.7,1.2-1.9,5c-0.2-2.5-0.6-5-1.3-5.1c-0.2,0-0.4,0.1-0.5,0.5c0.2-4,0.6-8,1.7-12.1
				c1.6-5.8,3.3-7.7,5.2-10.9c-2.6,1.9-5.4,8.1-6.1,10.7c-1.6,5.8-1.7,11.3-1.9,17c-0.1,3.5-0.2,7.2-0.6,10.9
				c-0.6,5.2-2,12.2-4.9,16.4c-2.7-0.2-5.7,0.2-8.7,1.4c-4.2,1.7-7.3,4.6-8.5,5.9c-5.6-3.7-10.5-8.9-13-15.4c0-0.1,0-0.3,0.1-0.4
				c0.5-3.1,0.9-5.6,0.8-7.8c0-3.3-0.9-6.7-2.7-8.4c1.6,0.2,4.2,0.9,6.6,3.3c0.2,0.2-0.7-1.7-1.5-2.8c-0.8-1-1.6-1.9-2.5-2.7
				c3.4,0.2,6.1-2.9,5.2-2.5c-1.5,0.6-3.7,0.5-6-0.2c3.5-0.6,6.4-2.2,8.5-4.7c4.1-5.1,4.7-11.2,5.4-17.2c0.1-0.5,0.1-1,0.2-1.5
				c0.5-4.1,1.6-7,3.1-8.4c0.7-0.3,1.3-0.6,2-0.8c3.3-1.2,0.5-1.2-3.1-0.5c-6.2,1.2-15.2,4.8-20.5,10c-1.5-2.5-2.4-5-2.9-6.9
				c-0.6-2.4-0.7-4.8-0.7-4.8c-0.3,0.3-1,4.7-0.1,8.4c-0.3-0.6-0.7-1.2-1.2-1.8c-1.3-8.3-6.5-14.7-8-15.7c-0.2-0.1,0,0.3,0.1,1
				c0.5,1.9,1.2,5.5,1,8.4c-0.6-0.4-1.1-0.8-1.7-1.1c-1.2-0.7-2.5-1.1-1.8-0.6c1.3,0.8,2.5,1.7,3.5,2.6c-0.1,0.7-0.2,1.3-0.4,1.8
				c-1.3-0.7-2.5-1.3-3.6-1.8c-2.1-1-2.8-0.8-2.4-0.6c1.6,0.7,3.2,1.7,4.8,3c-1.5-0.1-2.8,1.2-3.6,3.3c-0.8,0-2.7,0.3-3.7,0.9
				c0-0.7-0.2-1.9-0.9-2.6c-0.5-0.4-1.2-0.6-2-0.2c-0.3-0.1-0.8-0.1-1.3,0c0.5,0.2,0.7,0.6,0.8,0.8c-0.7-0.4-2.3,0.4-2.6,1
				c0.5-0.2,1.1,0.1,1.1,0.1c-1.8,1.5-2.7,2.8-3.7,6.3c-2.3,3.3-3,7.3-3,10.2c-0.1,0-0.2-0.1-0.3-0.1c-1-1.4-2.9-2.1-4.6-2.1
				c-3.1-3.3-8.8-8.5-11.2-8.7c3.8,1.8,8.1,6,10.6,8.7c-1.6,0.2-2.9,0.9-3.3,2.4c-0.2,0.7-0.2,1.5,0,2.3c-0.9,0-1.8,0-2.5,0
				c0.9-3.4,0-8.3-4.1-11.2c-3.7-2.6-9.1-2.9-12.8-0.3c-4.1,2.9-4.9,7-4.5,10c-1.1,0.4-2.5,0.8-3.5,1.7c-0.7,0.6-1.2,1.4-1.2,2.2
				c0,0.9,0.3,1.8,0.3,2.4c0,0.6-0.8,1.8-1.1,2.8C217.3,100.3,218.2,101.3,219.3,101.9z M247.4,91.3c0.3,0.9,0.7,1.9,1.3,2.9
				c1.4,2.3,3.2,4.3,4,5.4c2.5,3.3,5.2,6.7,6.2,10.1c-1.5,2.3-2.5,5.2-3.2,8.1c-0.6,2.5-2,9.7-0.3,15.4c-2-2.4-6-7.6-7.4-11.3
				c0.8-2.7,0.7-7.1-1.4-10.6c-1.1-1.8-2.5-2.8-4-2.7c-0.9,0-1.5,0.5-1.9,1l1.1-3.7c0.4,0.4,0.9,0.6,1.3,0.6c0.7,0,1.3-0.4,1.6-1.1
				c0.6-1.3-0.1-2.1,1-2.8c0.8-0.5,1.7-1.1,2.1-2.7c0.6-2.6-0.1-6.7-3.4-8.1c0.1-0.1,0.1-0.2,0.2-0.4
				C245.4,91.2,246.4,91.2,247.4,91.3z M229.2,105c0.1,0.1,0.3,0.2,0.4,0.4c-0.2,0.2-0.3,0.4-0.4,0.6L229.2,105z M229.1,103.7
				c0.1,0,0.3,0,0.4,0c0.6,0,1.2-0.1,1.9-0.3c0.1,0,0.1,0.1,0.2,0.1c-0.7,0.6-1.4,1.2-1.9,1.7c-0.2-0.1-0.4-0.3-0.6-0.3L229.1,103.7
				z M231.8,107.3c0.7-0.7,1.4-1.3,2.1-1.8c0.7,0.7,1.3,1.4,1.9,2.1c-0.6,0.5-1.1,1.1-1.4,1.5c-0.4-0.1-0.9-0.2-1.4-0.2
				C232.7,108.4,232.3,107.8,231.8,107.3z M232.8,109c-1.1,0-2.1,0.1-2.9,0.3c0.5-0.6,1.1-1.2,1.7-1.8
				C232,108,232.4,108.5,232.8,109z M235.8,117.7c-0.4-0.6-0.7-1.6-0.3-2.6c0.3-0.6,1-1,1.9-1.4c0.6-0.3,1.3-0.6,2-1.1
				c0.6-0.5,1-1.1,1.4-1.7c0.6-1,1-1.5,1.9-1.6c1.1-0.1,2.3,0.8,3.2,2.3c1.9,3.2,2.5,9.5,0.5,12.8c0.5-0.2,1-0.9,1.4-1.9
				c0.3,0.9,0.7,1.8,1.2,2.7c0.8,2.2,1.9,5.7,1.5,6.8c-0.3,0.8-2.3-2.5-2.7-3.2c-0.5-0.8-0.5-1-0.6-1.2c0-0.1-0.1,0.3-0.1,0.3
				c0,0,2.2,5.4,1.7,6.6c-0.5,1.2-3.3-4.1-3.9-5.2c0-0.1-0.1,0.2-0.1,0.3c0.1,0.4,0.3,1,0.5,1.5c0.5,1.3,1,3,0.8,3.5
				c-0.3,0.7-2.1-2-2.8-3.2c-0.2-0.4-0.4-0.7-0.5-1c1.4-0.8,2.1-1.7,2.5-3.1c1.2-4.5-3-7-7.7-5.6c0.2-0.4,0.3-0.8,0.3-1.2
				c0.5,0.2,1,0.4,1.5,0.4c4.2,0.3,7.2-6.1,5.6-8.3c0.2,1.9-0.7,4.5-2.1,6c-1,1.1-2.3,1.7-3.2,1.6
				C238.2,120.1,236.6,119,235.8,117.7z M236.1,103.8c-0.7,0.3-1.4,0.7-2.2,1.3c-0.7-0.6-1.3-1.2-1.9-1.5c0.8-0.6,1.6-1.1,2.1-1.4
				C234.8,102.7,235.5,103.2,236.1,103.8z M236.3,104c0.6,0.6,1.2,1.3,1.7,2c-0.7,0.4-1.4,0.9-2,1.4c-0.6-0.7-1.2-1.5-1.9-2.1
				C234.9,104.7,235.7,104.3,236.3,104z M238.2,106.2c0.7,0.9,1.2,1.7,1.6,2.3c-0.6,0.2-1.4,0.9-1.9,1.5c-0.5-0.8-1-1.6-1.7-2.4
				C236.9,107.1,237.6,106.6,238.2,106.2z M238.4,106.1c1.3-0.8,2.4-1.3,3-1.4l-1.2,3.8c-0.1,0-0.2,0-0.3,0
				C239.7,107.9,239.2,107,238.4,106.1z M240.2,108.9c0-0.1,0-0.1-0.1-0.2c0.1,0,0.1,0,0.2-0.1L240.2,108.9z M239.3,111.6
				c-0.1,0.1-0.2,0.3-0.3,0.4c-0.1,0-0.1,0.1-0.2,0.1c-0.2-0.5-0.5-1.1-0.9-1.8c0.7-0.7,1.4-1.2,1.9-1.4c0.1,0.1,0.1,0.2,0.2,0.3
				L239.3,111.6z M238.6,112.2c-0.2-0.4-0.5-0.9-1.1-1.5c0.1-0.1,0.2-0.2,0.3-0.3c0.5,0.7,0.8,1.3,1,1.7
				C238.7,112.1,238.7,112.2,238.6,112.2z M234.6,109.2c0.4-0.5,0.9-0.9,1.4-1.3c0.7,0.9,1.3,1.7,1.7,2.4c-0.1,0.1-0.2,0.3-0.3,0.4
				C236.8,110,235.6,109.4,234.6,109.2z M231.6,107c-0.6-0.6-1.2-1.2-1.7-1.6c0.6-0.6,1.3-1.2,2-1.7c0.6,0.5,1.2,1,1.8,1.6
				C232.9,105.8,232.2,106.4,231.6,107z M231.6,103.3c0.3-0.1,0.5-0.2,0.8-0.3c-0.2,0.1-0.4,0.3-0.6,0.4
				C231.7,103.4,231.6,103.4,231.6,103.3z M233.9,102.1C233.9,102.1,233.9,102,233.9,102.1C233.9,102,233.9,102,233.9,102.1
				C233.9,102,233.9,102.1,233.9,102.1z M234.1,101.9c0.1-0.1,0.2-0.1,0.2-0.2c0,0,0.1,0.1,0.1,0.1
				C234.4,101.8,234.3,101.9,234.1,101.9C234.1,101.9,234.1,101.9,234.1,101.9z M237.4,103.4c-0.3,0-0.7,0.1-1.1,0.3
				c-0.6-0.6-1.3-1.2-2-1.7c0.1,0,0.2-0.1,0.2-0.2C235.6,102.7,236.5,103.2,237.4,103.4z M238,103.5c2,0,3.3-0.7,4.2-1.4l-0.7,2.4
				c-0.8,0-2,0.6-3.3,1.3c-0.5-0.7-1.1-1.3-1.8-2c0.4-0.2,0.8-0.4,1-0.5C237.7,103.4,237.9,103.5,238,103.5z M266.5,121.9
				C266.4,121.9,266.4,121.9,266.5,121.9c-0.1-0.8-0.1-1.7-0.1-2.5c3.4-2,4.9-7.4,5.6-11.6c0.2-1.4,0.4-2.8,0.6-4.2
				c0.3-2.3,0.7-5.1,1.3-7.2c-2.6-0.4-5.3-0.7-8-0.9c-1.6,1.1-3.3,1.4-5.2,1.3c-3.3-0.1-4.6-1.9-4.8-2.2c0.1,0.4,0.3,0.8,0.6,1.1
				c-3.5,0.2-7.2-3.9-5-6.2c0.8-0.8,2.3-1.2,3.6-1c1,0.1,1.9,0.6,2.4,1.4c-1.9-0.4-4-0.3-4.2,0.8c-0.1,1,2.2,2.9,2.8,3
				c0,0,0.3-0.4,0.8-0.5c1.3-0.4,3.7-0.9,3.7-1.9c0-0.4-0.8-0.9-1.8-1.2c0.9-0.6,2-0.7,3-0.4c0.8,0.3,1.7,0.8,2.2,1.6
				c-1.2,0.5-2.2,0.9-3.2,1.4c-1,0.5-0.7,0.9-0.2,0.6c1.1-0.5,2.3-1.1,3.5-1.6c0.1,0.2,0.2,0.4,0.2,0.5c0-0.2,0-0.4-0.1-0.6
				c0.4-0.2,0.9-0.3,1.3-0.5c-0.1,0.5-0.1,1,0.1,1.4c0.3,0.7,1.1,1.2,2.1,1.3c-0.3,0.2-0.6,0.5-0.9,0.7c-2.2-0.2-4.5-0.2-6.9-0.2
				c-0.8,0-1.2,0.5-0.1,0.4c7.6-0.2,14.2,0.9,19.1,2.1c-0.8,2.5-1.5,5.5-2.1,8.8c-1.2,6.1-2.6,12.6-4.8,14.9
				c-1.3,0.7-2.7,1.1-4.2,1.2c3.3-2.4,5-8.9,5.1-10.7C271.6,115.8,269.6,120.7,266.5,121.9z M281.6,92.2c-0.8,1-1.6,2.5-2.2,4.4
				c-1.6-0.4-3.3-0.8-5.1-1.1c0.6-1.5,1.3-2.6,2.1-3.1C277.9,92.1,279.7,92,281.6,92.2z M266.3,90.2c0.4-0.6,0.9-1.6,1.2-3.3
				c0.5-4.3-1.5-4.6-2.5-3.9c-0.3,0.2-0.6,0.6-0.9,1.1c0.9-2.3,2.2-4.8,3.9-6.8c1.5-1.8,2.9-2.8,3.9-2.9c2.4-0.2,1,7.7-3.4,13.8
				C267.5,88.9,266.8,89.5,266.3,90.2z M269.2,75.5c-0.5,0.4-1,0.9-1.5,1.6c-3.1,3.7-5.2,9.1-5,12.4c-0.2-0.1-0.4-0.2-0.6-0.2
				c-0.6-0.2-1.3-0.2-1.9-0.1c1.1-1.8,2.9-6.6,3.5-10.2l0,0.1c0.3-1.3,0.8-3.1,1.1-3.8c0.9-2,0.1,3,0.1,3c0.6-1.8,2.1-4.2,2.7-4.7
				c1.2-1.1-2.7,6.3-1.6,4.7c2.1-3,2.9-3.1,3-3.1C269.2,75.2,269.2,75.4,269.2,75.5z M259.7,89.3c-0.5,0.2-1,0.4-1.4,0.8
				c-0.1,0-0.1,0-0.2,0c-0.2-0.3-0.4-0.6-0.7-0.9c-0.2-0.8-0.1-2.7,0.4-4c0.6-1.8,1.5-2.3,2.1-2.2c0.7,0.1,1.1,0.9,1.1,2.1
				c0,1.2-0.4,2.5-0.8,3.3C260.1,88.7,259.9,89.1,259.7,89.3z M266,90.7c-0.6,0.2-1.1,0.4-1.7,0.6c0-0.1-0.1-0.3-0.2-0.4
				C264.9,90.6,265.6,90.6,266,90.7C266,90.6,266,90.6,266,90.7z M263,89.7c-0.1-1.1,0.1-2.5,0.5-4c0.3-0.9,0.8-1.7,1.2-2.2
				c1.1-1.2,3-0.7,2.5,3.3c-0.3,2-1,3.1-1.3,3.5c-0.5,0-1.1,0-1.8,0.4C263.9,90.4,263.5,90,263,89.7z M266.2,90.4
				C266.1,90.4,266.1,90.4,266.2,90.4C266.1,90.4,266.1,90.4,266.2,90.4C266.1,90.4,266.1,90.4,266.2,90.4z M257.1,91
				c-0.1,1-3.5,0.7-3.3-0.4C254,89.6,257.2,89.9,257.1,91z M253.3,95.4c3,4.5,4.5,9.1,5.2,11.8c-1.2-2.9-3.3-5.8-5.4-8.5
				c-2.1-2.7-4.1-5.1-4.8-7.3c1.1,0.1,2,0.2,2.2,0.3C250.7,93.1,251.8,94.5,253.3,95.4z M259.2,109.1c-0.6-2.5-1.8-8.2-5.7-13.6
				c1.1,0.6,2.3,0.8,3.4,0.6c0.2,0.1,0.3,0.3,0.5,0.4c3.1,3.1,3.8,9,3.8,10.3c-0.4,0.3-0.8,0.7-1.1,1.1c-0.1-2.4-1.7-8.5-3.9-10.4
				c2.3,3.4,3.5,9.3,3.5,10.9C259.5,108.7,259.4,108.9,259.2,109.1z M266.2,133.3c-0.2,4.6-4.7,7.1-8,3.6c-1.7-1.8-2.9-6.7-2.8-10.7
				c0.1-3.5,0.7-6.7,1.1-8.2c1.7-7.2,4.7-12,8.4-12.5c-2.5,3.4-4.4,8.9-4,11.5c0.1-2.6,3.4-12.5,7.3-13.7c1.3-0.4,2.6,0.2,3.8,1.8
				c-0.1,0.9-0.3,1.9-0.4,2.8c-0.1,0.7-0.3,1.4-0.4,2.1c-0.4-0.6-1.1-1.3-1.6-1.6c0.7-0.8,1.3-1.1,1.5-1.2c-2.7,0.3-4.6,5.2-5.1,8.4
				C264.7,123.5,266.5,127.1,266.2,133.3z M251.2,86.9c0.6,0.7,1.1,1.3,1.3,1.6c-0.5,0.2-0.9,0.5-1.2,0.8c-0.5,0.5-0.8,1.2-0.8,1.9
				c-0.4-0.1-1.3-0.2-2.3-0.3c-0.2-0.8-0.2-1.6,0.1-2.4C248.6,87.5,249.8,87,251.2,86.9z M254.9,88.1c-0.7,0-1.4,0-2,0.3
				c-0.2-0.4-0.6-0.9-1.2-1.5C253,86.9,254.2,87.3,254.9,88.1z M260.6,76.8c0.9-1,2.6-2.4,3-1.1c0.6,1.9-1,7.4-2.5,10.9
				c0.1-0.5,0.2-1,0.2-1.6c0-1.2-0.6-2.1-1.3-2.3c-0.9-0.1-1.7,0.7-2.3,2.4c-0.4,1.2-0.6,2.9-0.4,3.8c-0.2-0.1-0.3-0.2-0.5-0.4
				C256.6,85.2,257.5,80.3,260.6,76.8z M277.9,70.9c0.5,0.5,1,1,1.5,1.6c-0.5-0.2-1-0.4-1.2-0.5C278.1,71.6,278,71.3,277.9,70.9z
				 M276.9,66.3c2.4,2.2,4,4.4,5,5.9c-1.5-1.7-3.5-3.2-5.5-4.3C276.6,67.4,276.8,66.9,276.9,66.3z M282.6,70.4
				c-1.4-1.6-3.3-3.4-5.6-5c0.3-2.5-0.1-5.5-0.6-7.5C280.7,63.1,282.2,68.2,282.6,70.4z M291.6,99.3c-0.4-0.2-0.9-0.4-1.3-0.7
				c0.7-1.9,5.2-4.9,6.4-3.5c0.2,0.2,0.1-0.6-0.8-1.2c-1.1-0.7-3-1.2-5.1-0.6c3-2.9,6.4-1.9,6.4-1.9c0.3-0.5-2.2-2.2-5.1-1.5
				c3.7-2.7,3.8-5,3.6-5.2c0,0-1.3,2.1-3.3,2c-0.6,0-1.1-0.4-1.4-1.1c3.1-6,9.5-12.9,16.9-16.9c-1,1.5-1.7,3.9-2.2,7.4
				c-0.1,0.5-0.1,1-0.2,1.5c-0.4,3.4-1,7.2-2.2,10.5C301.6,93.9,297.5,98.4,291.6,99.3z M290,104c-0.3-0.2-0.6-0.3-1-0.3
				c-4.3-0.8-7.4,4.9-8.6,9.5c-0.7,1.3-3.7,5-7.5,7.2c2.1-2.6,3.4-8.4,4.5-14.2c0.6-3.1,1.3-6.4,2.1-9c4,1,6.8,2.1,7.7,2.6
				c-0.8-0.9-3.5-2.1-7.5-3.1c0.6-1.9,1.3-3.5,2.1-4.4c1,0.1,2.1,0.3,3.1,0.5c-4-2.6-11.3-0.3-13.2,0.2c-1.8,0.4-4.7,1.4-5.5-0.4
				c-0.2-0.5-0.2-1,0.1-1.5c8.2-3,18.1-5.3,20.3-5.4c-2.7-0.5-12.5,2.1-20,4.8c1.9-2.5,8.3-5,13.4-4.7c-2.1-1.2-7.6,0.2-11.2,2.3
				c3.2-4.8,5.2-10.6,4.3-13.3c-0.6-1.9-2-0.9-1.7-0.8c0.1,0.1,0.3,0.1,0.5,0.2c-0.6,0-1.4,0.2-2.6,1.2c0-0.1,0-0.1,0-0.2
				c-0.1-0.6-1.6,0.5-2.3,1.4c0.6-1.3,1.6-3.7,0.9-3.5c-0.3,0.1-1.6,1.4-2.5,3.3c0.2-0.9,0.1-1.6-0.2-1.7c-0.5-0.2-1,1.2-1.3,2.4
				c0-0.8-0.1-1.5-0.3-1.8c0.2,0.1,0.3,0.3,0.3,0.3c0.3-0.4-0.4-1.5-2-0.4c-0.5,0.3-1,0.8-1.6,1.5c-0.3,0.3-0.5,0.6-0.8,0.9
				c0.8-2.1,2-3.9,3.2-4.7c2-1.3,3.1,0.5,3.1,1.3c0.3-0.8,0.6-3.4-0.8-4.1c2.1-0.6,2.2,3,2.2,3.2c0,0,2.3-1.2,4-1.1
				c-0.2,0.5-0.2,0.8-0.2,0.8c0.9-1.6,2.5-2.5,3.9-0.7c1.9,2.5,0.2,6.8-0.2,7.7c3.2-5,1.7-8.4,0.8-9c0.5-0.2,1.1,0.1,1.5,0.6
				c-0.3-1.2-2-1.9-3-1.3c0.1-0.3,0.6-0.7,1-1c-1.3-0.1-2.2,0.5-2.8,1.2c0.9-1.2,2-1.9,3-1.5c0.9,0.3,1.6,1.3,1.8,1.7
				c1.7,3.9,0.1,6.9-1,8.5c1.7-1.3,2.4-4.2,2.1-6.6c0.7,0.3,2.1,0.9,2.2,1c0.1-0.3-0.6-1.6-3.1-3.7c-0.4-0.6-0.9-1.1-1.6-1.3
				c-0.9-0.7-2-1.5-3.2-2.3c2.9,1.5,8,4.6,10.1,7.4c0.2,0.4,0.3,0.7,0.3,0.8c0.4-1.9-3.2-5.9-4.6-7.3c2.4,1.9,4,3.6,5.1,5
				c0.4,0.5,0.7,1,1,1.4c0.8,1.3,0.6,1.3,1.2,2.2c-0.3-0.9-1.3-5-1.2-8.3c0.3,2.2,0.9,5.8,3.5,9.4c-0.9,0.9-1.7,1.9-2.3,2.9
				c7.3-7.4,20-12.1,25.3-12.9c-10.5,3.8-18.2,13.2-20.4,18.7l0,0c0,0,0,0,0,0c-0.5,1.1-0.7,2.1-0.6,2.8c0.2-0.7,0.6-1.4,0.9-2.2
				c0.9,1.5,2.7,1.4,4.2,0c-2,3.4-4.6,3.9-4.7,4.7c0.5-0.4,3.1-1.3,5.5-0.1c-4.3,0.2-5.8,2.6-6,3.5c0,0,2.8-1.4,6,0.2
				c-2.7-0.1-5.5,2.4-5.8,4c-0.7-0.5-1.3-1.2-1.5-2c0.2,3.2,5.4,4.9,8.8,4.3c-1,0.8-3.1,1.3-4.2,1.4c-1.7-1.3-3.6-2.2-5.6-1.8
				c4,0.7,6.4,2.8,8.6,5.8C293.6,104,291.2,103.7,290,104z M334.3,135.3c-2.6-3.1-6.2-5.2-10.3-5.8c2.9-4.4,4.2-11.2,4.8-16.4
				c0.5-3.8,0.6-7.5,0.6-11c0-1.2,0.1-2.4,0.1-3.6c0.2-1.4,0.5-1.4,0.5-1.4c0.7,0.1,1.1,4.4,1.3,7.2c0,0.7,0.2,0.8,0.2,0.4
				c0.5-8.5,0.9-9.4,1.5-7.6c0.9,2.6,0.3,8.5,0.7,7.2c0,0,0.2-5.4,0.4-6.6c0.3-2.5,0.6-2.6,0.7-2.6c0.2,0,0.6,0.8,0.9,1.9
				c0.6,5.2,1.5,11,1.2,19.8C336.8,123.2,336.2,129.4,334.3,135.3z M322.5,193.4c-0.1-1.1-0.8-2-1.7-1.3c-0.5,0.4-1.1,1.3-1.5,2.5
				c0.1-1.7,0.1-4-1-3.5c-0.5,0.2-0.9,1.1-1.2,2.5c0-1.3-0.2-2-0.7-2.2c-0.1-0.1-0.3-0.1-0.4,0c0.9-6.8,1.3-16.8-0.9-21.4
				c0.4-0.4,1-1.3,1.3-2.4c0.3-1.2,0.3-3.2-1.4-5.3c-1.5-1.9-4.3-3.8-8.8-6.1c-1.8-0.9-3.6-1.8-5.1-2.5c-0.9-0.4-2.4-1.2-3.1-1.5
				c2.3,0.8,5.5,0.9,5.5,0.5c0,0-6.2-1.6-11.3-6.4c-0.4-0.4-0.9-0.9-1.3-1.3c0.2-4.7,0.4-11.8,0.8-15c0.3-2.7,0.6-5.1,0.9-7.1
				c1.4,3.9,4.8,8.7,10,12.7c3.4,2.6,7.8,5,12.1,5.7c-2.8-1-5.6-2.4-8.3-4c4.7-4.5,14.6-9.7,23.6-3.8c5.2,3.4,7.6,8.7,7.6,14.7
				c0,6.9-3,15-6.1,21.7C328.6,175.5,324.4,184.9,322.5,193.4z M293.6,204.4c2.4-1.9,6.8-2.3,8.9-0.9c-1.4-2-6.6-2-9.5,0.2
				c-0.1,0.1-0.1,0.1-0.2,0.2c1-2.1,2.9-2.7,4.3-3c2.5-0.6,5.3,0,6.2,0.8c-0.1-0.2-0.1-0.3-0.3-0.5c7-0.7,10.4-2.7,11.5-3.5
				c0,0.3-0.1,0.5-0.1,0.6c0.4-0.3,1-3,1.5-6.7c0.1-0.1,0.2-0.2,0.3-0.1c0.4,0.2,0.6,0.9,0.6,1.9c0,0.7,0,1.4-0.1,2.1
				c-0.1,1.4-0.1,1.6-0.1,1.8c0,0.1,0.1,0.2,0.1,0.2c0,0,0.5-5.4,1.5-6.3c1.2-0.9,0.5,5.8,0.4,6c0,0.2,0.1,0.4,0.1,0.4
				c0.3-2.7,1.3-4.8,2.1-5.3c0.8-0.6,1.3,0.6,1.3,1.8c0,0.2-0.1,0.3-0.1,0.5c-0.3,1.6-0.7,3.6-0.6,4.5c0.1-0.6,0.3-1.1,0.5-1.9
				c0.2,1.6,1,2.6,0.9,4.2c-0.1,2.7-3.1,5.3-5.7,7c-3.9,2.5-9.8,5.1-13.8,4.8c-4.2-0.2-6.7-3-5.2-6c0.6-1.3,2-2.1,4.1-2.5
				c5-0.9,8.2,3.1,8.2,3.1c-0.3-1.7-4.2-4.6-8.5-3.8c-3.8,0.7-5.5,3.7-5,5.9c0.2,0.8,0.7,1.6,1.4,2.2c-4.3-0.1-5.9-2.1-6.3-3.4
				C291.4,206.7,292.6,205.3,293.6,204.4z M308.3,192.7c0,1.2,0,2.2-0.1,3.1c0.3-0.2,0.6-2.2,0.7-4.6c0.3,1.3,0.2,3.5,0.2,4.7
				c0,0.1,0.1,0.4,0.2,0.1c0.3-1.7,1.3-5.6,1.8-5.3c0.6,0.4,0.8,3.3,0.9,5.3c0,0.3,0,0.7,0,0.9c0,0.4,0.1,0.2,0.1,0.1
				c0.3-1.6,0.7-5.7,1.5-6.4c0.9-0.7,1.4,2.7,1.4,4.6c-0.1,0.7-0.2,1.2-0.2,1.7c-1.1,0.8-5.3,3.1-12.1,3.7c-1.4-0.9-3.9-1-5.6-0.6
				c-1.5,0.4-4.3,1.3-5,4.7c-0.2,0.2-0.3,0.5-0.5,0.7c-2.7,0-4.8-1.1-5.7-2.3c-0.6-0.8-0.8-1.7-0.6-2.6c0.3-1.3,1.8-2.7,3.7-3.4
				c2.4-0.8,5.3-0.4,7.2,1.1c-0.8-1.8-4-3-7.6-1.7c-2.7,1-4,2.6-4.2,4.4c-0.6-0.5-1-1-1.1-1.7c-0.4-1.7,0.7-3.7,2.7-4.9
				c2.3-1.4,6.4-1.8,9.8,0.9c-0.8-1.9-5-3.8-9-2.2c2.6-2.4,8.4-0.2,10.9,0.9c1.3,0.6,1.1,0.7,3,0.6
				C303.5,194.5,307.3,193.6,308.3,192.7z M304.7,168.7c0.2,0.1,0.4,0.1,0.6,0.2c2,0.6,6.6,1.9,9.4,1.2c2.3,5.9,1.3,17,0.5,23.4
				c-0.1-1.9-0.8-3.8-1.8-3c-0.7,0.5-1.1,2.2-1.3,4c0-1.1-0.1-4.4-1.2-4c-0.5,0.2-1,1.5-1.5,3.5c0-1.5-0.1-3.1-0.4-3.8
				c0-0.6,0-1.1,0-1.7C308.9,182.4,307.8,174.1,304.7,168.7z M288.2,158.6c0.2-4.3,0.6-9.6,1-14.8c0.3,2.7,0.9,5.5,1.4,5.4
				c0,0,0.1-1.7,0.1-4.1c4.1,4.9,9.7,6.8,11.5,7.3c-1.6,0-4.7-0.6-5.8-1.1c0,0.3,0.1,0.4,9.4,5.2c4.4,2.3,7.3,4.1,8.8,6
				c1.2,1.4,1.6,2.9,1.4,4.4c-0.2,1.3-0.9,2.3-1.2,2.7c-1.1,0.1-5.1-0.2-10.4-1.8C299.6,166.2,293.8,163.3,288.2,158.6z M280,166.7
				c0-0.6-0.1-1.2-0.1-1.9c0-2.1,0.1-4.7,0.7-5.3c0.8-0.8,1.6,4.6,2,6c0,0.1,0.2,0.3,0.2,0.2c-0.5-3.5,0-7.5,0.7-6.9
				c1,0.9,1.3,4.8,1.6,6c0,0.1,0.1,0.2,0.2,0.2c0-2.2,0.1-6.2,1.2-5.4c0.5,0.4,0.9,1.7,1.1,3.1c0,1,0.1,2,0.2,2.8
				c-0.5-0.1-1,0-1.4,0.1c7.5,2,9.2,12,9.2,12.1c0.2-0.7,0.1-1.7-0.1-2.8c0.8,0.5,1.7,1.5,2,2.1c-0.1-1.4-1.2-2.3-2.1-2.5
				c-0.1-0.3-0.2-0.7-0.3-1c0.5-1.9,6-3.4,7.4,1.1c0.4,1.1,0.1,2.1-0.1,2.7c-1.5,3.6-6.2,3.9-8.6,2.6c-1.6-0.9-2.7-2.6-2.9-3.1
				c-0.2,0.8,1.9,3.4,3.5,4c1.6,0.6,3.6,0.7,5.1,0.1c0.1,0,0.2-0.1,0.4-0.1c2.1,1.5,1.9,5-0.8,5.5c-4.5,0.7-9.4-4.2-11.6-6
				c1.9,2.6,4.1,4.5,6.3,5.6c-1.2,0.2-6.2-0.7-8.2-6.3c0.3,0.2,0.6,0.4,1,0.5C281.5,175.9,280.1,168.3,280,166.7z M277.6,142.1
				c0.1,1.9,0.2,3.8,0.3,5.6c-2.9-4.6-5.6-12-7.9-17.4c-0.3-0.6-0.5-1.2-0.7-1.7c-0.4-1.6-0.5-3.4,0-3.6c0.1,0,0.4-0.1,1.1,1
				c1,1.5,2.2,4.1,3,6.1c0.5,1.1,1.2,2.4,1.3,2.1c-0.5-1.9-1-7.6-0.1-8.7c0.6-0.8,2.3,1,3.1,4.2
				C277.5,133.6,277.5,137.9,277.6,142.1z M252.4,146.1c-3.2-3.6-6.3-9.2-8.1-12.8c0.8,1.1,1.6,1.9,2,1.3c0.3-0.6-0.2-2.1-0.8-3.7
				c-0.1-0.2-0.1-0.4-0.2-0.6c0.7,1.4,3,5.6,3.7,4.1c0.4-0.8-0.4-3.2-1-5c0.4,0.6,2,3.4,2.5,2.8c0.7-0.8-0.2-3.9-0.9-6.1
				c2.1,3.6,5.1,7.1,6.4,8.5c0.5,1,1,2,1.8,2.8c3.9,4.3,9.3,0.8,9.5-4.6c0.1-2.3-0.6-6.1-0.8-10.4c0.1,0,0.3-0.1,0.4-0.1
				c4.6,0.6,10.7-3.8,13.3-7.9c-0.1,0.8-0.2,1.5-0.2,2c1.6-6.8,4.7-12.1,8.5-12.1c2.8,0,4.2,5,4.3,8.4c0,2.2-0.4,4.6-0.8,7.7
				c-0.4,2.5-0.8,5.4-1.2,9c-0.6,5.2-0.6,13.6-0.6,17.3c-0.6-2.6-0.9-7-0.8-7.7c-0.1,0.2-0.1,0.4-0.1,0.7c-0.3,1.1-2,12.6-1.9,21
				c-0.2-0.7-0.5-1.3-0.9-1.6c-1.2-1-1.5,1.4-1.5,2.9c-0.3-1.8-0.9-3.2-1.4-3.7c-1.1-1-1.3,2.4-1.4,3.9c-0.3-1.4-1-4.4-2-3.3
				c-0.3,0.3-0.5,1-0.5,1.9c-0.1-1.1-0.2-2.1-0.3-3.1c-0.7-7.6-1.5-15.8-1-26.4c0.2-4.1,0.7-9.5,1.1-13.7c-1,2.7-1.5,6.5-1.8,10.8
				c-0.9-2.9-2.6-4.5-3.4-3.4c-0.9,1.2-0.4,5.7-0.1,7.9c-2-4.4-2.7-6.2-3.6-7.5c-0.7-1-1.5-1.6-1.8-0.5c-0.1,0.5-0.2,1.2-0.1,2
				c-0.9-2.1-1-2.5-1.6-3.1c0.3,0.5,1.1,3.2,2.1,5.8c0.1,0.2,0.1,0.3,0.2,0.5c-0.8-1.3-1.8-2.6-2.4-2.8c0.8,0.9,2.2,2.9,3,4.3
				c0.6,1.5,1.2,3.2,1.8,4.9c-2.2,2-5.3,12.3-11.8,13.9c-1.5,0.4-4.3,0.5-6-1c0.9,0.2,4.5,0.6,4.8,0
				C255.7,149.7,254.5,148.4,252.4,146.1z M236,130.8c0.3-1.7,0.6-3.1,0.7-3.8c0.3-0.3,0.5-0.7,0.7-1.2c0.5-1.2,0.4-2.5-0.2-3.6
				c0,0,0-0.1,0.1-0.1c2.4-0.7,5-0.1,6.4,1.1c1,0.9,1.3,2.2,0.9,3.6c-0.3,1.2-1.1,2.1-2.3,2.8C240,130.9,237.1,131,236,130.8z
				 M233.9,134.9c-0.3-0.7-0.7-1.5-1.2-2.3c0.7-0.4,1.4-0.6,1.9-0.8c0.1,0.2,0.2,0.5,0.3,0.7c-0.2,0.8-0.4,1.5-0.5,2.3
				C234.2,134.9,234.1,134.9,233.9,134.9z M234.3,135c-0.1,0.2-0.1,0.4-0.2,0.7c0-0.2-0.1-0.4-0.2-0.5
				C234.1,135,234.2,135,234.3,135z M233.7,129.5c0.9-0.4,1.6-0.5,2.1-0.5c-0.2,0.8-0.4,1.7-0.6,2.6c-0.1,0-0.2,0-0.3,0
				C234.5,130.9,234.1,130.1,233.7,129.5z M234.5,131.7c-0.6,0.1-1.3,0.4-1.9,0.8c-0.4-0.5-0.8-1-1.3-1.5c0.7-0.6,1.4-1.1,2.1-1.4
				C233.8,130.2,234.2,131,234.5,131.7z M235.1,131.8c0,0.2-0.1,0.3-0.1,0.5c0-0.1-0.1-0.3-0.1-0.4
				C234.9,131.8,235,131.8,235.1,131.8z M233.7,135c-0.7,0.2-1.4,0.5-2,1c-0.3-0.5-0.7-0.9-0.9-1.2c0-0.2,0-0.4,0-0.6
				c0.5-0.5,1.1-1,1.7-1.3C232.9,133.6,233.4,134.3,233.7,135z M231.5,136.1c-0.3,0.2-0.5,0.4-0.7,0.6c0-0.5,0-1.1-0.1-1.7
				C231,135.4,231.2,135.7,231.5,136.1z M230.7,133.9c0-0.8-0.1-1.5-0.1-2.3c0.1-0.2,0.3-0.3,0.4-0.5c0.4,0.4,0.8,0.9,1.2,1.5
				C231.6,133,231.1,133.5,230.7,133.9z M230.6,130.7c0.1,0.1,0.2,0.2,0.3,0.3c-0.1,0.1-0.2,0.3-0.3,0.4
				C230.6,131.2,230.6,130.9,230.6,130.7z M230.5,128.7c0.3,0.1,0.6,0.1,0.9,0.1c0.5,0,1,0,1.4,0c0.1,0.1,0.3,0.3,0.4,0.5
				c-0.8,0.4-1.6,0.9-2.1,1.5c-0.2-0.2-0.3-0.3-0.5-0.4C230.6,129.7,230.5,129.1,230.5,128.7z M233,128.8c1.2-0.1,2.2-0.5,3.1-1.2
				c-0.1,0.4-0.2,0.8-0.3,1.3c-0.6-0.2-1.4,0-2.3,0.3C233.3,129.1,233.1,128.9,233,128.8z M230.9,137.8c0-0.1,0-0.4,0-0.7
				c0.2-0.3,0.5-0.5,0.8-0.7c0.6,1,1.2,2.1,1.3,2.7c-0.1-0.9-0.6-1.9-1.1-2.8c0.7-0.5,1.4-0.8,1.9-1c0.1,0.3,0.2,0.5,0.3,0.7
				c-0.2,0.7-0.3,1.3-0.5,1.9c-0.4,1.8-1.1,2.2-1.3,2.2c-0.3,0.1-0.7-0.1-1-0.6C231,139.1,230.9,138.5,230.9,137.8z M224.6,124.1
				c0.1-2.2,2-4,5.3-4.5c2.3-0.4,4.9,0.6,6.2,2.4c0.8,1.1,1,2.5,0.5,3.6c-0.8,1.9-2.7,2.8-5.2,2.6c-2.2-0.2-4.6-1.4-5-2.7
				c0,1.7,1.5,2.7,3.2,3.1c0,0.3,0,0.8,0.1,1.4C226.2,128.8,224.5,126.2,224.6,124.1z M225.6,116.5c1.7-1.7,3.7-2,5.1-1.9
				c2.1,0,3.7,0.8,3.9,1l0,0c-0.4,1.8,1,3.7,2.6,4.7c0.1,0.3-0.1,1-0.5,1.4c0,0,0-0.1-0.1-0.1c-1.5-1.9-4.4-3-6.9-2.6
				c-2.1,0.3-3.8,1.1-4.9,2.2C224.1,119.3,224.6,117.5,225.6,116.5z M233.4,109.8c2.7,0.3,4.4,1.9,4.5,2.8c-1.1,0.5-2.3,0.9-2.9,2.1
				c-0.7-0.4-2.3-0.8-4.1-0.8c-1.4,0-3.4,0.2-5.1,1.5c-0.1-0.5-0.1-1.7,0.5-2.8C227,111.2,229.5,109.4,233.4,109.8z M229.3,109.4
				l-0.1-3.3c0.2-0.2,0.3-0.4,0.5-0.6c0.5,0.5,1.1,1.1,1.6,1.7c-0.8,0.8-1.5,1.5-1.8,2.1C229.5,109.3,229.4,109.4,229.3,109.4z
				 M218.5,98.6c0.3-1,1-2,1-2.8c0-0.7-0.2-1.5-0.2-2.3c0.1-3.1,5.1-2.9,6.1-4.9c0.3-0.7,0.2-1.4-0.7-1.4c0.3,0.3,0.6,0.8,0.4,1.1
				c-0.2,0.4-0.9,0.8-1.5,1.1c-0.1-6.2,4.9-11.6,11.8-10.8c6.1,0.8,9.6,5.6,8.8,11.4c-0.2,1.5-1,2.9-2.8,3.9
				c-1.2,0.7-1.6,1.2-1.5,1.6c0.6-0.9,2.5-0.9,4-2.8c0.1-0.1,0.1-0.2,0.2-0.3c3,1.9,3.4,5.3,3,7.1c-0.3,1.2-1,1.6-1.7,2.2
				c-1.5,1.2-0.6,3.6-2.2,3.8c-0.4,0.1-0.7,0-1.1-0.4l0,0l1.1-3.6c0.5-0.4,1.1-0.7,1.7-0.6c-0.6-0.7-1.4-0.2-2.4,0.4
				c-2,1.1-4.5,2.5-7.5-0.1c1.2-1.2,1.9-2.6,1.9-4.2c0.1-2.7-1.6-5.4-2.7-5.8c0.8,0.8,2.1,3.1,2,5.8c0,1.6-0.7,2.9-2,4.1
				c-4.4,3.8-7.8,0.8-8.2,0.4c0.1,0.9,1.4,1.7,2.6,2l0,0.6c-1.1,0-3.2,1.7-5,0.6c-1.9-1.1-1.5-2.8-2.1-3.2
				C220.5,101,217.8,100.9,218.5,98.6z"/>
			<path class="st14" d="M341.3,70.2c-0.1,0-7.2,5.7-9,20.4C331.9,86.2,335.4,72.4,341.3,70.2z"/>
		</g>
	</g>
</g>
</svg>
