<?xml version="1.0" encoding="utf-8"?>
<!-- Generator: Adobe Illustrator 24.3.0, SVG Export Plug-In . SVG Version: 6.00 Build 0)  -->
<svg version="1.1" id="群組_16" xmlns="http://www.w3.org/2000/svg" xmlns:xlink="http://www.w3.org/1999/xlink" x="0px" y="0px"
	 viewBox="0 0 600 180" style="enable-background:new 0 0 600 180;" xml:space="preserve">
<style type="text/css">
	.st0{fill-rule:evenodd;clip-rule:evenodd;fill:#1E1E1E;}
	.st1{fill-rule:evenodd;clip-rule:evenodd;}
	.st2{fill:#FEFCF7;}
	.st3{fill-rule:evenodd;clip-rule:evenodd;fill:#FFFFFF;}
	.st4{clip-path:url(#SVGID_2_);}
	.st5{fill:#FFFFFF;}
	.st6{fill:#DED05E;}
	.st7{fill:#EA5753;}
	.st8{fill:#A4A8AB;}
	.st9{fill:#DDDFE1;}
	.st10{fill:#79BC28;}
	.st11{fill:#FFED95;}
	.st12{fill:#F6BBAA;}
	.st13{fill:#B0DDE1;}
	.st14{fill:#0C0103;}
	.st15{fill:#1C1D1D;}
</style>
<path id="形狀_512_拷貝_4" class="st0" d="M302.1,98.5c-0.8-3.3-8.8-6.5-8.8-6.5c2.3,0.3,4.6,0.2,6.9-0.4c1-0.2,2-0.6,2.9-1
	c-0.8-0.9-1.4-1.9-2-2.9c-1.9-3.6-2.8-7.5-2.6-11.6c0.3-4.5,2.4-8.8,5.8-11.8c2.3-2.1,5-3.7,7.9-4.8c-1.2-3.5-1.4-7.2-0.5-10.8
	c0.8-3.8,3-7.1,6.2-9.4c2-1.4,4.2-2.4,6.5-3c0.8-0.2,1.6-0.3,2.5-0.4c1.6-0.2,3.3-0.1,4.9,0.1c4.6-3.5-3.2-13-3.2-13
	s10.4,8.1,13.8,7.3l0,0c4.4-1.2,8.1-6.9,13.3-18.6c0,0-3.3,11.1-2.4,14.7c0.7,2.9,5,3.4,8.4,2.6h0.1c0,0-3.3,2.9-4.2,5.3
	c-0.2,0.6-0.2,1.3,0.1,1.9c1.7,0.5,3.4,1.2,4.9,2.1c5.7,3.4,9,9.6,8.8,16.3c2.2,0.6,4.3,1.5,6.3,2.6s3.7,2.5,5.3,4.2
	c2.7,2.9,4.2,6.6,4.4,10.6c0.1,1.7-0.1,3.3-0.5,5c1.3,1.7,4.4,4,11.5,4.7c-1,0.1-2,0.3-3,0.5c-2,0.5-4.3,1.4-5,3.1
	c-1,2.4,2.3,5.9,11.8,9.9c0,0-14.5-4.9-19.6-3.7c-0.5,0.1-0.9,0.3-1.3,0.6c-2.3,2.3-1.3,6.3,4.3,18.5c0,0-6.5-7.9-8.8-7.5h-0.1
	c-1.5,0.4-3,4.1-4.3,9.9c0,0,0.2-9.2-1.7-10.4c-0.4-0.2-0.8-0.4-1.3-0.5c-1.2,1.3-2.5,2.4-4,3.3s-3.1,1.5-4.8,2
	c-0.9,0.2-1.8,0.4-2.7,0.5c-2.2,0.2-4.5,0.1-6.7-0.4c-2-0.4-4-1-5.8-1.8c-2.5,2.5-5.6,4.2-9,5c-0.6,0.1-1.2,0.3-1.8,0.4
	c-3.4,0.5-6.8,0.2-10-0.8c-2.1-0.7-4.1-1.8-5.8-3.3c-0.5-0.1-1.1,0-1.6,0.1s-1,0.4-1.4,0.7c-2.5,2-3.8,11.4-3.8,11.4
	c-0.6-8.9-1.2-11.9-3.9-13.3c-0.5-0.2-1-0.2-1.5-0.1c-4.4,1.1-13.9,10-13.9,10C300.1,106.4,302.8,101.2,302.1,98.5z M371,101.8
	c0.7,0.4,1.4,1.3,1.9,4.4c1.2-3.1,2.3-3.8,3.2-4c0.1,0,0.1,0,0.2,0c0.9-0.1,1.9,0.2,3.2,1.2c0.6,0.5,1.3,1,1.8,1.5
	c-1-2.2-1.8-4.5-2.3-6.8c-0.3-1.3-0.4-2.6-0.3-3.9c0.2-1.1,0.7-2,1.4-2.8c0.5-0.5,1.2-0.8,1.8-1c1.9-0.3,3.8-0.3,5.7,0
	c1.3,0.2,2.8,0.5,4.5,0.8c-1.3-0.9-2.4-2.2-3.1-3.7c-0.4-0.9-0.4-1.9,0-2.8c0.7-1.4,2-2.4,3.4-3c-0.6-0.2-1.3-0.4-1.9-0.7
	c-1.5-0.6-2.9-1.5-4.1-2.6c-0.1-0.1-0.1-0.1-0.2-0.2c-0.3,1-0.7,1.9-1.2,2.8c-1.3,2.2-3,4.2-5.1,5.7c-1.9,1.4-4.1,2.6-6.4,3.4
	c0.1,4-1.2,7.9-3.7,11.1C370.3,101.4,370.7,101.6,371,101.8z M334.5,36.8c2.2,0.7,4.4,1.7,6.3,2.9c2.1-1.7,4.6-2.9,7.3-3.5
	c0.2,0,0.4-0.1,0.6-0.1c2.5-0.5,5-0.6,7.5-0.1c-0.1-0.7-0.1-1.3,0.2-2c0.5-1.2,1.3-2.3,2.2-3.3c-0.8,0-1.6-0.1-2.4-0.3
	c-1.9-0.3-3.5-1.7-4.1-3.6c-0.3-1.7-0.2-3.4,0.1-5.1c-0.7,1.4-1.6,2.7-2.5,4c-2.3,3.3-4.5,5.1-7,5.8c0,0,0,0-0.1,0
	c-1.5,0.2-3-0.1-4.4-0.8c-1.6-0.8-3.2-1.6-4.7-2.6c-0.2-0.1-0.4-0.2-0.6-0.4c1.4,2.8,1.8,5.2,1.2,7c-0.2,0.6-0.5,1.1-0.9,1.6l0,0
	l-0.1,0.1C333.6,36.5,334,36.6,334.5,36.8L334.5,36.8z M308.3,104.9c1.8,0.9,3,2.6,3.4,4.6c0.2,0.7,0.3,1.4,0.4,2.1
	c0.8-2.4,1.6-3.9,2.6-4.7c0.7-0.6,1.6-0.9,2.5-1c-1.3-1.4-2.3-3-3.1-4.7c-0.7-1.6-1.3-3.4-1.5-5.1c-3.3-0.5-6.3-2.1-8.7-4.5
	c-1.1,0.6-2.2,1-3.4,1.3c-0.7,0.2-1.4,0.3-2.1,0.4c1,0.6,1.9,1.2,2.8,2c1,0.8,1.7,1.8,2.1,3c0.2,1,0.2,2.1-0.2,3.1
	c-0.4,1.4-1,2.7-1.7,3.9c-0.5,1-1.2,2-1.9,3.2c1.9-1.6,4.1-2.8,6.4-3.6C306.7,104.6,307.5,104.6,308.3,104.9L308.3,104.9z
	 M292.8,49.5c-0.4-0.2-0.6-0.7-0.4-1.2l0,0v-0.1c0.2-0.4,0.8-0.6,1.2-0.3l0,0l8.1,5.6L292.8,49.5z M297.8,43.3L297.8,43.3
	c0.3-0.3,0.9-0.3,1.2,0c0,0,0,0,0,0.1l7.1,8.8l-8.3-7.6C297.5,44.3,297.4,43.7,297.8,43.3C297.8,43.4,297.8,43.3,297.8,43.3
	L297.8,43.3z M290.8,55.8c-0.4-0.1-0.7-0.6-0.5-1.1l0,0v-0.1c0.2-0.4,0.7-0.7,1.1-0.5l0,0l13.3,3.4L290.8,55.8z M390.9,44.3
	c0.4-0.2,1,0,1.2,0.4l0,0l0,0c0.2,0.4,0,0.9-0.4,1.1l0,0L379.1,50L390.9,44.3z M389.9,40.1l-14.5,8.8l13.4-10.2
	c0.4-0.3,0.9-0.3,1.2,0.1l0,0l0,0C390.4,39.2,390.3,39.8,389.9,40.1L389.9,40.1L389.9,40.1z M381.3,39.8l-4.7,4l3-4.8
	c0.3-0.4,0.9-0.4,1.2-0.1l0,0c0.3-0.1,0.5,0.1,0.6,0.4C381.5,39.5,381.5,39.6,381.3,39.8L381.3,39.8z M343.6,112.1l1.8,13.1
	c0,0.5-0.4,0.9-0.8,0.9c-0.4,0.1-0.8-0.1-0.9-0.5v-0.1L343.6,112.1z M349.5,119.4c-0.5,0.1-0.9-0.2-1.1-0.6c0,0,0,0,0-0.1l-2.5-6.9
	l4.1,6.4C350.3,118.7,350,119.2,349.5,119.4L349.5,119.4L349.5,119.4z M340.1,111.4l-3.5,8.6c-0.1,0.5-0.5,0.8-1,0.7s-0.8-0.5-0.7-1
	v-0.1L340.1,111.4z"/>
<g id="野餐吃甚麼_個巧克力_拷貝">
	<path class="st1" d="M233.4,94.9c-1.3-1.3-2.7-2.4-4.2-3.3l-1.6-0.9l0.8-1.7c3.1-6.4,3.8-16.4,4.2-21.2l1-13.6H249l-0.5-2l10.3-1.8
		l0.5,1.7c0.2,0.7,0.4,1.4,0.5,2.1h14.8l-0.7,9.4l0,0l-0.5,6.9h-1.8l-0.1,1.9l2.4-0.6v2.8c0,0.7,0,1.4,0,2.2l0.1,1.6l-1.5,0.4
		c-0.7,0.2-1.4,0.3-2.1,0.3c-0.1,0-0.2,0-0.4,0h-1.2c-0.6,0-1.2-0.1-1.7-0.2v0.4h-0.5l1.6,1.2l-2.4,1.6c2.1,2.5,4.7,5.7,6.1,7.7
		l1.3,1.9l-8.7,4.4l-0.9-1.7c-0.1-0.2-0.3-0.5-0.5-0.8c-4.6,0.3-8.2,0.6-11.1,0.7c-8.1,0.5-10.3,0.7-11.3,1l-2.3,0.8l-0.4-2.4
		c-0.1-0.6-0.2-1.2-0.3-1.8c-0.4,0.9-0.8,1.7-1.2,2.5l-1.3,2.5L233.4,94.9z M239.6,86.3c0.1,0,0.2-0.1,0.3-0.1c0,0-0.1-0.6-0.1-0.7
		C239.7,85.7,239.7,86,239.6,86.3z M521.4,95.2c-1.2-1.8-2.6-3.3-4.2-4.7l-2.4-2l2.8-1.4c7.3-3.6,11.8-9.1,13.7-17h-12.1l0.7-10.4
		h12.7l0.6-8.6h10.7l-0.6,8.6h17.3l-0.2,2.2c0,0.2-0.2,2.1-0.3,3c-2.2,18.2-3.4,24-5.8,26.8c-1.6,2-3.9,3.2-6.4,3.4
		c-1.5,0.2-3.2,0.3-4.8,0.3c-0.8,0-1.6,0-2.4-0.1l-1.8-0.1v-1.8c0-1.9-0.6-3.9-1.5-5.6l-1.2-2.3c-3,4.2-7,7.6-12,10.3l-1.6,0.8
		L521.4,95.2z M539.2,84.9c2.5,0.2,4.9,0.2,6,0.2h0.1c0.2,0,0.4-0.1,0.5-0.2c0.5-0.5,1.5-3.2,3-14.7h-6.7c-1,5.6-2.9,10.4-5.5,14.5
		L539.2,84.9z M123.1,95.9c-3.5-1.9-7.2-3.6-10.9-4.9c0,0.3,0,0.6,0,0.9v1.8l-1.8,0.2c-9.8,0.9-11.9,1.3-12.8,1.7l-2.4,1L94.8,94
		c-0.2-1.2-0.6-2.4-1.2-3.4l-1.1-1.9l1.9-1c0.3-0.2,0.5-0.5,0.5-0.9v-0.1l0.5-6.8c-0.8,0.3-1.6,0.5-2.5,0.8l-1.7,0.5l-0.7-1.6
		c-0.6-1.4-1.5-2.7-2.5-3.9l-2.2-2.5l3.2-0.8c0.5-0.1,1-0.3,1.5-0.4c-0.4-0.6-0.9-1.2-1.4-1.7l-2.3-2.4L90,67
		c0.3-0.1,0.5-0.1,0.8-0.2c-0.6-0.8-1.3-1.6-2.1-2.2l-2.5-2l2.9-1.4c2.2-1.1,4.2-2.6,5.8-4.5l0.8-0.9l1.4,0.3l0.4-5.3h9.2l-0.1,1.5
		h3.8v-0.2h14.5l1.4-0.2l5.7,2.4l-0.7,1.8c-0.9,2.3-2.2,4.5-3.8,6.4c1.1,0.8,2.3,1.6,3.3,2.4l1.8,1.4l-5.1,4.9
		c1.3,0.4,2.6,0.7,3.8,0.9l3.7,0.8l-2.8,2.6c-1.3,1.2-2.4,2.6-3.4,4l-0.8,1.2l-1.4-0.4c-0.7-0.2-1.5-0.4-2.2-0.7l-0.1,1.4l6.9,4.5
		c0,0-3.1,2.2-3.5,2.5c0.3,0.1,0.6,0.3,0.8,0.5l2.2,1.2l-5.9,6.6L123.1,95.9z M120,69.1c-0.1-0.1-0.2-0.2-0.4-0.2c0,0-0.1,0-0.1,0.1
		C119.7,69,119.9,69,120,69.1z M471.7,94.6c-0.6-1.9-1.6-3.6-2.8-5.1l-2.2-2.6l3.4-0.6c7-1.2,9-2.9,9.9-5.2h-4.8l1.2-17H472l0.7-9.6
		h15.4l0.2-3.4h10.4l-0.2,3.4h15.9l-0.7,9.6h-4.1l-1.2,17c1.2,0.6,2.4,1.1,3.6,1.4l1.8,0.4l-0.3,1.8c-1.1,6.8-3,10.7-9.5,10.7h-4.8
		c-2.2,0-5-0.2-6.8-2.1s-1.8-4.7-1.6-7.5l0.3-4.7H491c-1.7,7.4-5.3,12.3-16.9,14.9l-1.8,0.4L471.7,94.6z M503.6,85.5
		c0.2-0.9,0.5-3,0.5-3.8l0.1-0.7h-2.4l-0.3,4.5H503.6z M377.9,95.9l1.2-17.1l-1,1l-0.9-3.5c-0.6-2.2-1.3-4.4-2.3-6.5l-0.5-1.2l0.9-1
		c4-4.4,7.1-9.5,9.2-15.1l0.7-1.8l7.5,2.4h27.7l-3,42.4h-9.9l0.2-2.1H397l-0.2,2.5h-9V96h-9.9V95.9z M409.7,63.2l0.1-0.7h-1.1v0.7
		H409.7z M399.9,63.2l0.1-0.7h-0.8l-0.1,0.7H399.9z M62.2,95.9L62.1,94c0-0.5-0.1-1-0.2-1.6c-4.6,0.6-9.4,1.1-13.7,1.6
		c-2.3,0.3-4.4,0.5-6.4,0.7L39.7,95l-0.4-10.2l1.9-0.1c1.6-0.1,3.4-0.3,5.4-0.4h-5.7l0.6-8.3h-0.1L43,53h20.9l0,0h14.7l2-0.5l6,4.5
		l-1.1,1.6C83.9,61,82,63.2,80,65.3c0.4,0.3,0.8,0.6,1.2,0.9l1.8,1.3l-0.1,0.1l3.3,0.7l-0.5,2c-0.9,3.9-2,7.9-3.4,11.7l-0.6,1.6
		l-5.2-1l-0.3,5c-0.2,2.8-0.8,5.6-3.9,7.1c-2.3,1.1-5,1.2-8.2,1.2C64.1,95.9,62.2,95.9,62.2,95.9z M64.7,85.9c0.3,0,0.7,0,1,0
		c0.1,0,0.2,0,0.3,0l0.6-8.8h-1.9l-0.4,5.6h0.5L64.7,85.9z M197.2,95.5c-5.2,0-8.2-0.8-10-2.8c-1.5-1.6-2.1-4-1.9-7.3l0.2-3.2h-3.6
		l0.6-9.2h7.9l0.7-9.3h-7l0.6-9h7l0.3-3.6h10.3l-0.3,3.6h7.3l0.3-3.6H220l-0.3,3.6h6.7l-0.6,9h-6.7l-0.7,9.3h7.7l-0.5,7.3l-2-0.1v2
		h-1.4c0,0.4,0,1,0,1.5c0,0.6,0,1.3,0,1.8l1.1-0.1l0.1,2.2c0.1,2.4,0.2,4.2,0.3,5.2l0.2,1.7l-1.7,0.4c-0.5,0.1-2.2,0.6-9.9,0.6
		H197.2z M205.7,86.2c-0.3-0.6-0.5-1.2-0.6-1.9c-0.4,0.7-0.8,1.3-1.3,1.9H205.7z M449.4,95.3c-1.2,0-2.3,0-3.5-0.1l-1.8-0.1
		l-0.1-1.8c-0.1-1.9-0.7-3.8-1.8-5.4l-1.5-2.1c-5,1.1-10.2,2.1-14.5,2.9l-3.4,0.7l-1.5-10.5l2-0.3c1.3-0.2,2.7-0.4,4.2-0.6h0.2
		l0.8-11.3h-5.2l0.7-10.2h16.7l0.2-2.9h27.8L468,63.9h-12.8c-0.3,1.2-0.6,2.3-0.9,3.3h12.6l-0.6,4.9c-1.5,13.1-2.6,17.6-4.8,20
		c-2.1,2.2-4.2,2.8-7,3.1C452.7,95.3,451,95.3,449.4,95.3z M444,84.8c3.5,0.3,7.2,0.3,8.2,0.3h0.1h0.2c0.3,0,0.5-0.1,0.8-0.2
		c0.3-0.4,0.9-1.9,1.7-7.8h-12l0.2,7.6L444,84.8z M438.1,76.1l2.6-0.5l0.4-1.2c1-2.7,2.1-6.5,3.2-10.7h-1.1l-0.2,2.8h-4.3
		L438.1,76.1z M160.7,95.1c-4.1,0-7.1-1-8.9-3c-1.4-1.5-2-3.5-1.9-5.7c0-0.5,0.1-1,0.2-1.5h-5l-0.2,3.5h-9.7l2.4-33.8H155l-0.2,3
		c1-1.7,1.8-3.4,2.5-5.3l0.6-1.7l10,2.5l-0.9,2.1c-0.2,0.5-0.4,1-0.6,1.5h13.2l-0.7,9.8h-5.6l5.3,3.1l-1.1,1.8
		c-0.3,0.5-0.7,1-1.2,1.4l-0.1,0.1l-0.1,0.1c-10.2,7.4-14.1,10.6-15.3,12c0.1,0,8.4,0,8.4,0c0.2-0.3,0.5-1.3,0.7-4l0.3-3l2.7,1.5
		c1.5,0.8,3.1,1.4,4.8,1.7l1.9,0.4l-0.3,1.9c-1.3,8.6-4.2,11.6-11,11.6H160.7z M153.3,79.3c0.9-1,2-2.1,3.4-3.3h-3.1l0.3-4.1
		l-0.1-0.1L153.3,79.3z"/>
	<path d="M257.4,52.6c0.3,1.2,0.6,2.3,0.8,3.5h14.3l-0.4,5.4h-31.3l-0.4,6.3c-0.5,7.1-1.9,18.6-5.6,25.7c-1.4-1.4-3-2.7-4.7-3.7
		c3.1-6.3,3.9-15.6,4.4-22l0.8-11.7h16c-0.1-0.8-0.3-1.7-0.4-2.4L257.4,52.6 M496.6,53l-0.2,3.4h15.9l-0.4,5.6H496l-0.2,2.7h11.9
		l-1,14.3h-6.8l-0.5,6.8c-0.1,1.6,0.1,1.7,1.4,1.7l0,0h3.2c1.3,0,1.6-0.7,2.1-5.6c1.7,1.1,3.6,2,5.6,2.4c-1.2,7.1-2.9,9-7.5,9h-4.8
		c-5.6,0-6.8-1.9-6.4-7.5l0.5-6.9h-4.1c-1.3,7.1-3.8,12.2-15.7,14.9c-0.7-2.1-1.8-4.1-3.2-5.8c9.7-1.7,11.2-4.6,12.2-9.1h-5.2
		l1-14.3h11l0.2-2.7h-15.4l0.4-5.6H490l0.2-3.4h6.4 M483.8,73.5h16.8l0.2-3.4H484L483.8,73.5 M159.2,53.1l6,1.5
		c-0.6,1.4-1.2,2.8-1.9,4.2h14.2l-0.4,5.8h-17.3c-0.8,1.2-1.8,2.5-2.7,3.6h13.4l1.4-0.2l4,2.4c-0.3,0.4-0.6,0.8-0.9,1.1
		c-15.4,10.8-16.6,12.8-16.7,14.2c-0.1,1,0.9,1.4,2.6,1.4l0,0h8.2c1.5,0,2.3-0.6,2.8-5.8c1.7,0.9,3.5,1.6,5.4,2
		c-1.2,8.1-3.7,9.9-9,9.9h-7.6c-6.4,0-9.1-2.6-8.8-6.6c0.2-2.5,0.9-5,10.3-12.6h-6.4l0.3-4.6c-0.3,0.3-0.6,0.6-0.9,0.9
		c-1-1-2-1.9-3-2.8L151.1,83h-7.9l-0.2,3.5h-5.7l2.1-29.8h13.5l-0.5,7.6C155.4,61.1,157.7,57.2,159.2,53.1 M143.6,76.9h2.2l1-14.2
		h-2.2L143.6,76.9 M217.9,53.1l-0.3,3.6h6.7l-0.4,5h-6.7L216.4,75h7.7l-0.4,5.2h-11.3l-0.1,1c-0.1,1,0,1.3,0.9,1.3h3.8
		c1.1,0,2.2-0.1,3.3-0.3c0,1.4,0,3.3,0.1,4.6c-1,0.2-2.1,0.3-3.2,0.3c-0.1,0-0.3,0-0.4,0h-4.3c-4.8,0-5.8-1.7-5.5-6l0.1-0.9h-2.4
		c-0.9,3.6-3.5,6.6-7,8h14.6c0.1,0,0.2,0,0.3,0c3,0,6-0.2,9-0.6c0.1,1.7,0.2,4,0.3,5.4c-1.7,0.4-6,0.5-9.4,0.5h-15.2
		c-7.7,0-10.3-1.9-9.9-7.9l0.4-5.4h-3.6l0.4-5.2h7.9l0.9-13.3h-7l0.4-5h7l0.3-3.6h6.3l-0.3,3.6h11.3l0.3-3.6L217.9,53.1 M199.5,63.1
		h11.3l0.1-1.4l0,0h-11.3L199.5,63.1 M199.1,68.9h11.3l0.1-1.4h-11.3L199.1,68.9 M198.6,75H210l0.1-1.8h-11.3L198.6,75 M193.6,84.4
		c2.9-0.9,4.6-2.1,5.3-4.2h-5L193.6,84.4 M197,88.2h0.3c-1.1-1.3-2.3-2.5-3.7-3.5l-0.1,1.1C193.4,87.5,193.9,88.2,197,88.2
		 M104.3,53.1l-0.1,1.5h6.7l-0.2,3.6H104l-0.1,1h2.1l0.9-0.2l3.3,1.8c-3.6,6.1-10.3,10.1-17,12.2c-0.7-1.4-1.6-2.6-2.7-3.7
		c1.9-0.5,3.7-1.2,5.4-2c-0.6-0.5-1.3-1.1-1.9-1.6c-0.4,0.3-0.8,0.6-1.3,0.8c-0.8-1.2-1.8-2.3-2.9-3.2c2.5-1.2,4.7-2.9,6.4-5
		l2.5,0.5l0.4-5.7H104.3 M99.6,65.1c1.2-0.8,2.4-1.7,3.5-2.8h-5c-0.3,0.3-0.6,0.6-1,0.9C98,63.8,98.9,64.4,99.6,65.1 M386.4,53.2
		L392,55c-1.1,2.8-2.4,5.5-3.8,8.1L386,93.9h-6l1.4-20.7c-0.8,1-1.5,1.8-2.3,2.6c-0.6-2.4-1.4-4.7-2.4-6.9
		C381,64.3,384.2,59,386.4,53.2 M541.8,53.2l-0.6,8.6l0,0h17.2c0,0-0.2,2.1-0.3,2.9c-2,16.9-3.3,23.4-5.4,25.8c-1.2,1.6-3,2.6-5,2.7
		c-1.5,0.2-3.1,0.3-4.6,0.3c-0.8,0-1.5,0-2.3-0.1c0-2.3-0.6-4.5-1.7-6.5c2.6,0.2,5,0.2,6.2,0.2c0.1,0,0.1,0,0.2,0
		c0.7,0,1.4-0.3,1.9-0.7c1.3-1.3,2.5-6.7,3.9-18.2h-10.7c-1.3,8.9-5.1,19.5-17.4,25.9c-1.3-1.9-2.8-3.6-4.6-5.1
		c10.5-5.2,14-13.6,15.3-20.8h-12.4l0.4-6.4h12.7l0.6-8.6L541.8,53.2 M125.9,54.2l3.3,1.4c-1.2,2.9-2.9,5.4-5.1,7.6
		c1.8,1,3.5,2.2,5.2,3.6l-4,3.8c-1.7-1.5-3.6-2.9-5.5-4c-1.6,0.9-3.3,1.7-5,2.3c-0.2-0.6-0.5-1.1-0.8-1.6c-0.3,0.2-0.5,0.5-0.8,0.8
		c4.3,2.6,11.4,5.1,17.5,6.4c-1.4,1.3-2.6,2.8-3.7,4.4c-1.5-0.4-3-0.9-4.6-1.5l-0.5,7.6c0.6-0.5,1.1-1,1.6-1.5l4.1,2.7
		c-1.3,0.9-2.7,1.9-4,2.8c1.3,0.5,2.6,1.1,3.8,1.9l-3.2,3.5c-4.3-2.4-8.9-4.4-13.6-5.8c-0.2,1.2-0.3,2.4-0.3,3.6
		c-10.4,1-12.2,1.3-13.4,1.9c-0.2-1.5-0.7-2.9-1.5-4.2c1-0.5,1.7-1.6,1.6-2.8l0.7-9.7c-1.8,0.7-3.5,1.3-5.3,1.8
		c-0.7-1.6-1.7-3.1-2.9-4.4c7.7-1.9,16.2-5.5,20.9-10.4l2.6,1.4c-0.3-0.4-0.6-0.8-0.9-1.1c0.9-0.3,1.8-0.6,2.7-1
		c-1.3-0.7-2.5-1.3-3.7-1.9l3.6-3.3h-2.8l0.3-4.1H125L125.9,54.2 M119.6,60.7c0.8-0.7,1.6-1.4,2.3-2.2l0,0H115
		C116.4,59.1,118,59.9,119.6,60.7 M106.7,72.7h6c-1.1-0.6-2.1-1.3-3-2C108.7,71.4,107.7,72.1,106.7,72.7L106.7,72.7 M100.1,76.1
		h19.3c-1.5-0.6-2.9-1.3-4.3-2l-0.1,1.5h-10.6l0.1-1.6C103.1,74.7,101.6,75.5,100.1,76.1L100.1,76.1 M103.2,79.9h13l0.1-0.7h-13
		L103.2,79.9 M103,82.8h13l0.1-0.8h-13L103,82.8 M119.1,87.1c0.5-0.4,1-0.8,1.5-1.2l0,0h-5C116.8,86.3,118,86.7,119.1,87.1
		 M102.7,88.1l5.7-0.4l-0.4-0.1l1.6-1.7h-6.7L102.7,88.1 M80.1,54.7l3.8,2.8c-2,3-4.4,5.7-7.1,8.2c1.1,0.7,2.2,1.4,3.2,2.1l-1.4,1.5
		h0.1l0.9-0.2l4.2,0.8c-0.9,3.9-2,7.7-3.3,11.4l-5-1c0.4-1.4,0.9-3.2,1.3-5.2h-1.7l-0.9,12.3c-0.2,2.8-0.8,4.5-2.7,5.5
		c-1.9,0.9-4.3,1-7.4,1c-0.1-2.1-0.6-4.1-1.3-6.1c1,0.1,2,0.1,3,0.1c0.4,0,0.9,0,1.3,0c0.6,0,0.8-0.1,0.9-0.6l0.8-12.1h-5l0.4-5.9
		h7.6c-2.2-1.4-4.4-2.7-6.8-3.8l4.1-3.9c1,0.4,2,0.9,3.1,1.5c0.8-0.8,1.5-1.6,2.1-2.5h-9l0.4-5.5h13L80.1,54.7 M64.3,55L63,74h-6.8
		L56,76.8h6.8l-0.4,5.6h-6.8l-0.2,3.3c2.5-0.2,5-0.5,7.4-0.7l-0.3,5.5c-7.3,0.9-15.2,1.8-20.9,2.5l-0.3-6.1c2.2-0.2,5-0.4,8-0.6
		l0.3-3.8h-6.5l0.4-5.6H50l0.2-2.8h-6.7l1.3-19h19.5 M56.6,62.2h2l0.2-2.3h-2L56.6,62.2 M49.4,62.2h2.1l0.2-2.3h-2.1L49.4,62.2
		 M56.1,69.1h2l0.2-2.4h-2L56.1,69.1 M48.9,69.1H51l0.2-2.4h-2.1L48.9,69.1 M392,55.1L392,55.1h26.2l-2.7,38.4h-5.9l0.1-2.1h-14.6
		l-0.2,2.5h-5.7L392,55.1 M395.5,86L395.5,86h14.6l1.8-25.6h-14.6L395.5,86 M466.5,55.5l-0.4,6.3h-12.5c-0.6,2.5-1.3,5-1.9,7.3h13
		l-0.3,2.7c-1.4,11.9-2.4,16.8-4.3,18.9c-1.7,1.8-3.3,2.2-5.7,2.5c-1.6,0.1-3.2,0.2-4.8,0.2c-1.1,0-2.3,0-3.4-0.1
		c-0.1-2.3-0.8-4.5-2.1-6.4c3.4,0.3,6.9,0.3,8.4,0.3c0.1,0,0.2,0,0.3,0c0.7,0,1.4-0.2,1.9-0.6c1.1-0.9,1.9-4.5,2.8-11.4h-14.3
		c1.3-3.6,2.7-8.6,3.9-13.4h-4.7l0.4-6.3L466.5,55.5 M441.7,58.4l-0.4,6.2H437l-1,13.9l5.1-0.9l0.1,6c-5.7,1.2-11.9,2.4-16.7,3.4
		l-0.9-6.4c1.7-0.2,3.8-0.6,6-0.9l1.1-15.1h-5.2l0.4-6.2L441.7,58.4 M406.8,61l-0.3,4.1h4.4l-0.3,4.4l0,0h-4.4l-0.2,3.2h3.7
		l-0.8,11.6h-11.8l0.8-11.6h3.3l0.2-3.2h-4l0.3-4.4h4L402,61H406.8 M401.8,80.2h2.8l0.2-3.3H402L401.8,80.2 M266.3,62.2l-0.1,1.6
		h5.8l-0.3,4.6h-5.8l-0.6,8.7h-4.6l0.6-8.7h-4.9l0.3-4.6h4.9l0.1-1.6L266.3,62.2 M250.7,62.2l-0.1,1.6h5l-0.3,4.6h-5l-0.6,8.1
		c0.5-0.3,0.9-0.6,1.4-1c-0.5-0.5-0.6-1.4-0.5-2.6l0.2-3.2h3.2l-0.2,3.2c0,0.6,0,0.8,0.3,0.9c0.4,0,0.9-0.1,1.3-0.2
		c0,0.3,0,0.7,0,1.1c1.1-0.9,1.8-2.3,1.8-3.8l0.1-1.5h3.3l-0.1,1.7c-0.1,2-0.6,4.6-2.8,6.2c-0.7-0.8-1.4-1.5-2.3-2.1
		c0,0.2,0,0.5,0,0.7c-0.5,0.1-0.9,0.2-1.4,0.2c-0.1,0-0.2,0-0.2,0h-0.6l2.4,1.6c-2,1.4-4.1,2.6-6.3,3.6l5.5-0.2c2-1.3,4-2.6,5.8-4
		l4.3,3.1c-4.2,2.9-8.6,5.4-13.1,7.5l9.5-0.6c-0.7-0.8-1.3-1.6-1.9-2.3l4.6-2.1c2.1,2.4,5,6,6.5,8.2l-4.9,2.5
		c-0.3-0.6-0.8-1.3-1.2-1.9c-19.8,1.4-22.4,1.4-24.1,2c-0.3-1.6-0.6-3.3-1.1-4.9c1.8-0.4,3.6-1,5.3-1.9c0.8-0.3,2.3-1,4-1.9
		c-4.7,0.4-5.7,0.6-6.4,0.8c-0.3-1.5-0.6-3-1.1-4.5c1.1-0.2,2.1-0.5,3-1.1c1.9-0.9,3.7-1.9,5.5-3.1h-4.1l0.6-8.5h-4.3l0.3-4.6h4.3
		l0.1-1.6L250.7,62.2 M269.8,69.5l-0.3,4c0,0.6,0,0.9,0.5,0.9l0,0h0.2h0.1c0.6,0,1.1-0.1,1.6-0.2c0,0.8,0,1.6,0,2.4
		c-0.5,0.2-1,0.2-1.6,0.2c-0.1,0-0.2,0-0.3,0h-1.3c-2.5,0-2.8-1.2-2.7-3.4l0.3-3.9H269.8 M245.1,69.6l-0.1,1.7
		c-0.1,2.1-0.6,4.7-2.6,6.5c-0.8-0.9-1.7-1.7-2.7-2.3c1.3-1.1,2-2.7,2-4.4l0.1-1.5L245.1,69.6 M265.3,77.1L265.3,77.1L265.3,77.1
		 M223.7,80.2L223.7,80.2L223.7,80.2 M260.3,48.1l-3.5,0.6l-6.5,1.1l-4.1,0.7l0.4,1.6h-11.1h-3.7l-0.3,3.7l-0.8,11.7
		c-0.3,4.7-1,14.5-4,20.5l-1,2c0-0.7-0.1-1.5-0.1-2.5l-0.1-3.3h2l0.3-3.7l0.4-5.2l0.3-4.3H224h-3.4l0.4-5.3h3h3.7L228,62l0.4-5
		l0.3-4.3h-4.3H222l0.3-3.6H218h-6.4h-3.7l-0.3,3.6h-3.3l0.3-3.6h-4.3H194h-3.7l-0.3,3.6h-3.3H183l-0.3,3.7l-0.4,5l-0.3,4.3h4.3h2.7
		l-0.4,5.3h-4.2h-3.7l-0.3,3.7l-0.3,5l-2-0.4c-1.5-0.3-2.9-0.8-4.2-1.5l-0.5-0.3c1.2-0.9,2.5-1.8,3.9-2.8l0.3-0.2l0.2-0.2
		c0.5-0.5,1-1.1,1.5-1.8l2.3-3.5l-0.8-0.5h0.1l0.3-3.7l0.4-5.8l0.3-4.3h-4.3h-8.1l1.2-3l-4.5-1.1l-6-1.5l-3.5-0.9l-1.2,3.4
		c-0.1,0.3-0.3,0.7-0.4,1h-2.2h-13.5h-3.7l-0.3,3.7l-0.7,9.6l-2.9-2.4c-0.6-0.5-1.1-0.9-1.7-1.3c1.1-1.6,2.1-3.4,2.8-5.2l1.5-3.7
		l-3.7-1.5l-3.3-1.4l-1.1-0.4l-1.2,0.2l-0.6,0.1H112h-3.6l0.1-1.3h-4.3H99h-3.7L95,52.7l0.1,1.3l-0.4-0.1l-1.5,1.8
		c-1.4,1.7-3.1,3-5.1,4l-1.3,0.6c0.1-0.2,0.3-0.4,0.4-0.6l2.2-3.2l-3.1-2.3l-3.8-2.8l-1.5-1l-1.8,0.4L78.3,51H65.7H62l0,0H44.9h-3.7
		l-0.3,3.7l-1.3,19L39.2,78h0.1L39,82.1v0.8L37.2,83l0.2,3.9l0.3,6.1l0.2,4.3l4.3-0.5c1.9-0.2,4.1-0.5,6.4-0.7
		c3.6-0.4,7.7-0.9,11.7-1.4l0.2,3.2h3.7c3.4,0,6.4-0.1,9.1-1.4c4.5-2.2,4.8-6.8,5-8.8l0.2-2.7l1.3,0.3l3.4,0.7l1.2-3.2
		c0.7-1.9,1.3-3.8,1.9-5.7l0.3,0.4c0.9,1,1.6,2.1,2.2,3.3l1.5,3.2l3-1l-0.2,3.4L89.5,88l2.2,3.7c0.5,0.8,0.8,1.7,0.9,2.6l0.7,5.2
		l4.8-2.1c0.8-0.4,4.1-0.8,12.2-1.5l3.6-0.3v-1.7c2.7,1.1,5.4,2.4,8,3.8l2.8,1.5l2.1-2.4l3.2-3.5l2.8-3.2v0.3h4.3h5.7h3.7l0.2-3.5
		h0.9c0,2.6,0.8,4.9,2.4,6.6c2.2,2.4,5.7,3.6,10.4,3.6h7.6c7.7,0,11.5-3.8,12.9-12.9h2.1l-0.1,1.1c-0.3,3.8,0.5,6.7,2.4,8.8
		c2.8,3.1,7.4,3.5,11.5,3.5H212c7,0,9.2-0.3,10.4-0.6l3.4-0.9l-0.4-3.5c0-0.2,0-0.4-0.1-0.7l2.4,1.4c1.4,0.8,2.7,1.8,3.8,3l3.9,4
		l1-2l0.1,0.4l4.5-1.6c0.8-0.3,3.5-0.4,10.8-0.9c2.6-0.2,5.8-0.4,9.8-0.7l1.7,3.1l3.5-1.7l4.9-2.5l4.1-2.1l-2.6-3.8
		c-1.2-1.7-3-4-4.8-6.2l2.1-1.4c0.8,0,1.5-0.2,2.3-0.4l3-0.9l-0.1-3.1c0-0.6,0-1.4,0-2.1v-0.2l0.1-5.3l-0.5,0.1v-0.5l0.2-3.2l0,0
		l0.3-3.7l0.4-5.4l0.3-4.3h-4.3h-11.1c-0.1-0.2-0.1-0.4-0.2-0.6L260.3,48.1L260.3,48.1z M83,65c0.3-0.4,0.7-0.8,1-1.2l2.8,2.2
		l-0.7,0.2L84.5,66l-0.4-0.1L83,65L83,65z M131.2,70.4l0.8-0.8l2.6-2.5l-0.3,3.9l-2.9-0.6C131.3,70.5,131.3,70.4,131.2,70.4
		L131.2,70.4z M129.2,82.5l1-1.5c0.9-1.3,1.9-2.6,3.1-3.7l0.6-0.6l-0.6,8.5l-3.8-2.5L129.2,82.5L129.2,82.5z M166,83
		c0.5-0.4,1.1-0.9,1.8-1.4c-0.1,0.6-0.1,1.1-0.2,1.4H166L166,83z M131.1,88.3l2.2-1.6l-0.2,2.7L131.1,88.3L131.1,88.3z M383.9,48.2
		l-1.3,3.6c-2,5.4-4.9,10.2-8.8,14.5l-1.8,2l1.1,2.4c0.9,2,1.6,4.1,2.2,6.2l1.5,6L376,93.8l-0.3,4.3h4.3h5.9h3.7V98h5.3h3.7l0.2-2.5
		h6.6l-0.1,2.1h4.3h5.9h3.7l0.3-3.7l0.6-8.8l0.4,2.7l0.6,4.2l4.1-0.8l1.3-0.3c3.9-0.8,8.7-1.7,13.3-2.7l0.7,1
		c0.9,1.3,1.4,2.8,1.4,4.4l0.2,3.6l3.6,0.2c1.2,0.1,2.4,0.1,3.6,0.1c1.7,0,3.4-0.1,5-0.2h0.1h0.1c3.1-0.3,5.7-1.1,8.2-3.7
		c1.1-1.2,1.9-2.7,2.7-5l1.9,2.3c1.1,1.3,1.9,2.8,2.5,4.5l1.1,3.5l3.6-0.8c7.3-1.7,11.8-4.3,14.5-7.8c0.3,1.7,0.9,3.3,2.1,4.6
		c2.3,2.4,5.6,2.7,8.2,2.7h4.8c5.9,0,8.6-2.9,10-6.7l1.7,1.4c1.5,1.2,2.7,2.6,3.8,4.2l2,3l3.2-1.7c4.3-2.2,7.9-5.1,10.8-8.5
		c0.7,1.3,1,2.8,1.1,4.3l0.1,3.7l3.7,0.2c0.8,0.1,1.7,0.1,2.6,0.1c1.7,0,3.4-0.1,5-0.3c3-0.3,5.8-1.8,7.7-4.1c2.7-3.1,4-9,6.2-27.8
		c0.2-1,0.3-2.7,0.4-3.1l0.4-4.4h-4.4h-12.9l0.3-4.3l0.3-4.3h-4.3h-6.7h-3.7l-0.3,3.7l-0.3,4.9h-9h-3.7l-0.3,3.7l-0.4,6.4l-0.3,4.3
		h4.3h7.3c-2.1,6-5.9,10.3-11.9,13.2l-1.3,0.6c0.1-0.4,0.1-0.7,0.2-1.1l0.6-3.6l-3.6-0.9c-0.7-0.2-1.4-0.4-2-0.7v-0.5l0.9-13.3h0.4
		h3.7l0.3-3.7l0.4-5.6l0.3-4.3h-4.3h-11.6L501,49h-4.3h-6.4h-3.7l-0.2,3.4h-11.7H471l-0.3,3.7l-0.4,5.6L470,66h4.3h0.1l-0.9,12.7
		l-0.3,4.3h1.6c-1.2,0.4-2.8,0.8-4.9,1.2l-3.4,0.6c0.6-3,1.2-7.1,1.8-12.6l0.3-2.7l0.4-3.8h0.8l0.3-3.7l0.4-6.3l0.3-4.3h-4.3h-23.8
		H439l-0.2,2.9h-12.9h-3.5l0.2-3.3h-4.3H393l-5.4-1.7L383.9,48.2L383.9,48.2z M440.7,68.6h0.3c-0.1,0.5-0.3,0.9-0.4,1.3L440.7,68.6
		L440.7,68.6z M421.3,68.6h4.1h1l-0.5,7.6c-1,0.2-1.9,0.3-2.7,0.4l-2.4,0.3L421.3,68.6L421.3,68.6z M543.8,72.2h2.8
		c-1,6.9-1.7,9.8-2.1,10.9c-1.1,0-2.8,0-4.6-0.2C541.7,79.7,543,76.2,543.8,72.2L543.8,72.2z M445.1,79.2h7.6
		c-0.3,2.1-0.6,3.2-0.8,3.9c-1.2,0-3.9,0-6.7-0.2L445.1,79.2L445.1,79.2z"/>
</g>
<g id="野餐吃甚麼_個巧克力_">
	<path class="st0" d="M123.6,95.1c-3.9-2.2-8.1-4-12.3-5.4c-0.1,0.8-0.1,1.5-0.1,2.3v0.9l-0.9,0.1c-10,0.9-12,1.3-13.1,1.8L96,95.3
		L95.8,94c-0.2-1.3-0.6-2.6-1.3-3.8l-0.6-0.9l1-0.5c0.7-0.3,1.1-1,1.1-1.8v-0.1l0.6-8.2c-1.2,0.4-2.5,0.9-3.9,1.3l-0.8,0.3l-0.4-0.8
		c-0.7-1.5-1.6-2.9-2.7-4.1l-1.1-1.2l1.6-0.4c1-0.2,1.9-0.5,2.8-0.8c-0.6-1.1-1.4-2.1-2.2-3l-1.2-1.2l1.6-0.4
		c0.7-0.2,1.4-0.4,2.1-0.6L92,67.2c-0.7-1.1-1.6-2.1-2.7-3l-1.3-1l1.5-0.7c2.3-1.1,4.5-2.8,6.1-4.8l0.4-0.5l2,0.4l0.4-5.5h7.2
		l-0.1,1.5h5.9v-0.2h13.7l1.2-0.2l4.5,1.9l-0.4,0.9c-1.1,2.6-2.5,5-4.4,7c1.5,0.9,2.9,1.9,4.2,3l0.9,0.7l-5.5,5.2l-0.7-0.6
		c-1.5-1.3-3.2-2.5-4.9-3.6c-0.8,0.5-1.7,0.9-2.5,1.3c3.9,1.8,8.9,3.4,13.6,4.5l1.9,0.4l-1.4,1.3c-1.3,1.3-2.5,2.7-3.6,4.2l-0.4,0.6
		l-0.7-0.2c-1-0.3-2.2-0.7-3.4-1.1l-0.3,3.7l0.2-0.3l6,3.9l-1.2,0.9c-0.8,0.6-1.7,1.2-2.5,1.8c0.8,0.4,1.5,0.8,2.3,1.2l1.1,0.6
		l-4.5,5L123.6,95.1z M103.7,87l1.9-0.1L103.7,87L103.7,87z M93.7,67.1c0.1,0,0.1-0.1,0.2-0.1l0,0C93.9,67,93.8,67,93.7,67.1z
		 M110.2,62.5c-0.4,0.5-0.8,1.1-1.2,1.6c0.2-0.2,0.3-0.3,0.5-0.5l0.5-0.5l1.4,0.7l0.3-0.1c0.2-0.1,0.4-0.1,0.5-0.2
		c-0.6-0.3-1.2-0.6-1.7-0.8L110.2,62.5z M99.1,63.4c0.2,0.2,0.4,0.3,0.6,0.5c0.2-0.2,0.5-0.3,0.7-0.5H99.1z M111.3,60.2l0.8-0.7
		h-1.3v-0.3h-1.4L111.3,60.2z M522.2,94.7c-1.2-1.8-2.7-3.5-4.4-4.9l-1.2-1l1.4-0.7c7.9-3.9,12.7-10.1,14.5-18.9h-12.3l0.6-8.4h12.7
		l0.6-8.6h8.7l-0.6,8.6h17.2l-0.1,1.1c0,0.1-0.2,2.1-0.3,2.9c-2.1,17.9-3.4,23.8-5.6,26.3c-1.3,1.7-3.4,2.9-5.7,3
		c-1.5,0.2-3.1,0.3-4.7,0.3c-0.8,0-1.6,0-2.4-0.1l-0.9-0.1v-0.9c0-2.1-0.6-4.2-1.6-6l-0.9-1.6l1.9,0.2c2.6,0.2,5,0.2,6.1,0.2h0.2
		c0.4,0,0.9-0.2,1.2-0.5c1.5-1.4,2.9-11.7,3.5-16.5h-8.7c-2,12.1-7.8,20.6-17.8,25.8l-0.8,0.4L522.2,94.7z M234.1,94.2
		c-1.3-1.4-2.8-2.6-4.5-3.5l-0.8-0.5l0.4-0.8c2.8-5.8,3.7-14.2,4.3-21.6l0.9-12.6h15.8c-0.1-0.4-0.2-0.8-0.2-1.2l-0.2-1l8.4-1.5
		l0.2,0.9c0.3,0.9,0.5,1.9,0.7,2.8h14.6l-0.5,7.4h-5.8v0.3h5.8l-0.5,6.6h-1.8l-0.3,4c0.4,0,0.8-0.1,1.2-0.2L273,73v1.5
		c0,0.7,0,1.5,0,2.2v0.8l-0.7,0.2c-0.6,0.2-1.2,0.3-1.9,0.3c-0.1,0-0.2,0-0.3,0h-1.2c-1.1,0-2-0.2-2.6-0.7l-0.1,0.9h-2.7l3,2.2
		l-1.2,0.8c-0.3,0.2-0.6,0.4-1,0.6l0.2,0.3c2.2,2.5,5.1,6,6.6,8.2l0.7,0.9l-6.8,3.4l-0.5-0.9c-0.2-0.4-0.5-0.9-0.9-1.4
		c-4.9,0.3-8.7,0.6-11.7,0.8c-8.7,0.6-10.5,0.7-11.6,1.1l-1.1,0.4l-0.2-1.2c-0.3-1.6-0.6-3.2-1-4.8l-0.1-0.3c-0.6,2-1.4,3.9-2.2,5.6
		l-0.6,1.2L234.1,94.2z M239.7,81.1c-0.4,2.2-0.9,4.4-1.5,6.5l0.6-0.1c0.8-0.2,1.5-0.4,2.3-0.6l-0.2-1.2c-0.3-1.5-0.6-3-1.1-4.4
		L239.7,81.1z M258.4,85.4c-0.6,0.4-1.3,0.7-1.9,1l2.6-0.2C258.8,86,258.6,85.7,258.4,85.4L258.4,85.4z M256.1,78.6
		c-0.8,0.6-1.7,1.1-2.6,1.6h0.8c1-0.6,1.9-1.3,2.8-1.8l-0.2-0.3L256.1,78.6z M240.4,77.2c-0.1,1-0.3,1.9-0.5,2.9l0.7-0.1
		c0.9-0.2,1.8-0.5,2.7-1c0.8-0.4,1.6-0.8,2.3-1.2H244v-0.4c-0.3,0.4-0.6,0.7-1,1.1l-0.8,0.7l-0.7-0.8
		C241.3,78,240.8,77.6,240.4,77.2z M254.8,72.8c0.1,0,0.3,0,0.4-0.1l0.6-0.1c0.2-0.5,0.3-1,0.3-1.6l0.1-1.6H255L254.8,72.8z
		 M260.7,62.8v-0.3h-9v0.3h5H260.7z M245.1,62.8v-0.3h-3.3v0.3H245.1z M472.7,94.3c-0.7-2-1.7-3.8-3-5.5l-1.1-1.3l1.7-0.3
		c8.4-1.5,10.2-3.7,11.1-7.2h-5l1.2-16.3h11V63h-15.4l0.5-7.6h15.4l0.2-3.4h8.4l-0.2,3.4h15.9l-0.5,7.6H497v0.7h11.8L507.6,80h-6.8
		l-0.4,5.9c0,0.3,0,0.5,0,0.6c0.1,0,0.2,0,0.5,0h3.2c0.2,0,0.2,0,0.2,0c0.4-0.3,0.7-3.4,0.9-4.7l0.2-1.6l1.4,0.9
		c1.6,1.1,3.4,1.8,5.3,2.3l0.9,0.2l-0.1,0.9c-1.2,7.5-3.3,9.9-8.5,9.9h-4.8c-3,0-4.9-0.6-6.1-1.8c-1.5-1.6-1.6-4.2-1.4-6.7l0.4-5.8
		h-2.2c-1.5,7.5-4.9,12.3-16.3,14.9l-0.9,0.2L472.7,94.3z M499.6,72.5l0.1-1.4H485l-0.1,1.4H499.6z M379,94.9l1.3-18.8
		c-0.1,0.1-1.6,1.7-1.6,1.7l-0.4-1.8c-0.6-2.3-1.4-4.5-2.3-6.7l-0.3-0.6l0.4-0.5c4.1-4.5,7.2-9.7,9.4-15.4l0.3-0.9l6.8,2.1h26.8
		l-2.8,40.4h-7.9l0.2-2.1h-12.6l-0.2,2.5h-7.7l2.4-34.5c-0.5,1-1,2-1.5,3l-2.2,31.6H379z M403.6,79.2l0.1-1.3H403l-0.1,1.3H403.6z
		 M410.1,71.8l0.1-1.2h-3.1l-0.1,1.2H410.1z M400.3,71.8l0.1-1.2h-2.8l-0.1,1.2H400.3z M410.7,64.2l0.2-2.7h-3.1l-0.2,2.7H410.7z
		 M400.8,64.2l0.2-2.7h-2.8l-0.2,2.7H400.8z M63.1,94.9L63,94c-0.1-0.9-0.2-1.7-0.3-2.6h-0.1c-4.9,0.6-10,1.2-14.6,1.7
		c-2.3,0.3-4.4,0.5-6.4,0.7L40.7,94l-0.3-8.1l1-0.1c2-0.2,4.5-0.3,7.1-0.6l0.1-1.9H42l0.5-7.6H49l0.1-0.8h-6.7l1.5-21h20.9l0,0h13.8
		l1.7-0.4l4.9,3.6L84.7,58c-1.8,2.7-3.9,5.2-6.2,7.4c0.7,0.5,1.5,1,2.2,1.5l0.9,0.7L81,68.2l4.1,0.8l-0.2,1c-0.9,3.9-2,7.8-3.4,11.5
		l-0.3,0.8l-5.4-1.1l-0.4,6.1c-0.2,2.9-0.8,5.1-3.3,6.3c-2.1,1-4.7,1.1-7.8,1.1h-1.2V94.9z M63.7,86.8c0.7,0,1.4,0.1,2.1,0.1
		c0.4,0,0.8,0,1.2,0l0.8-10.8h-3.9l-0.5,7.2h-6.8l-0.1,1.2c1.1-0.1,2.1-0.2,3.2-0.3c1-0.1,2-0.2,3-0.3l1.1-0.1L63.7,86.8z
		 M62.8,75.8l0.1-0.8h-5.7l-0.1,0.8H62.8z M68.3,68.2c-1.2-0.7-2.4-1.3-3.6-1.9l-0.1-0.1l-0.1,1.9L68.3,68.2L68.3,68.2z M50,68.1
		v-0.4l0,0V68.1L50,68.1z M64.6,64.5l3.1-3h-2.9L64.6,64.5z M72,61.8c0.1-0.1,0.2-0.2,0.3-0.3h-0.8C71.6,61.6,71.8,61.7,72,61.8z
		 M50.5,61.2v-0.3h-0.1L50.5,61.2L50.5,61.2z M197.2,94.5c-4.9,0-7.6-0.8-9.3-2.5c-1.3-1.4-1.9-3.5-1.6-6.5l0.3-4.3H183l0.5-7.2h7.9
		l0.8-11.3h-7l0.5-7h7l0.3-3.6h8.3l-0.3,3.6h9.3l0.3-3.6h8.4l-0.3,3.6h6.7l-0.5,7h-6.7L217.4,74h7.7l-0.4,6.3l-1-0.1v1h-2.4v1
		c0,0.5,0,1,0,1.5c0,1,0,2.1,0.1,2.9l1.1-0.1v1.1c0.1,2.5,0.2,4.2,0.3,5.3l0.1,0.9l-0.8,0.2c-1.4,0.4-4.6,0.5-9.6,0.5
		C212.5,94.5,197.2,94.5,197.2,94.5z M208,87.2c-0.3-0.2-0.5-0.4-0.8-0.6c-1.3-1.4-1.3-3.5-1.2-5.4h-0.6c-0.7,2.4-2.2,4.5-4.1,6H208
		z M194.7,82.9c1.1-0.5,1.9-1,2.5-1.7h-2.4L194.7,82.9z M217,81.5c1,0,2.1-0.1,3.1-0.3l0,0h-6.8v0.3H217z M449.4,94.3
		c-1.1,0-2.3,0-3.4-0.1h-0.9v-0.9c-0.1-2.1-0.8-4.2-2-5.9l-1.2-1.7l2.1,0.2c3.6,0.3,7.3,0.3,8.3,0.3c0.2,0,0.3,0,0.3,0
		c0.5,0,1-0.1,1.4-0.4c0.7-0.5,1.4-3.7,2.2-9.5h-14.6l0.5-1.3c1.1-3,2.4-7.4,3.6-12h-3.3l-0.2,2.8h-4.3L437,77.3l5-0.9l0.2,8
		l-0.8,0.2c-5.2,1.1-10.8,2.2-15.4,3.1l-2.4,0.5l-1.2-8.5l1-0.1c1.3-0.2,2.7-0.4,4.2-0.6l0.9-0.1l0.9-13.2h-5.2l0.6-8.2h16.7
		l0.2-2.9h25.8l-0.6,8.3h-12.7c-0.5,2-1,3.8-1.4,5.3h12.8l-0.4,3.8c-1.5,12.7-2.6,17.2-4.6,19.4c-1.9,2-3.7,2.5-6.3,2.8
		C452.6,94.3,451,94.3,449.4,94.3z M160.7,94.1c-3.8,0-6.6-0.9-8.2-2.6c-1.2-1.3-1.7-3-1.6-5c0.1-0.8,0.2-1.7,0.5-2.6h-7.2l-0.2,3.5
		h-7.7l2.2-31.8H154l-0.4,5.6c2-2.6,3.5-5.5,4.7-8.6l0.3-0.8l8,2l-0.4,1.1c-0.4,0.9-0.8,1.9-1.2,2.8h13.7l-0.5,7.8h-17.7
		c-0.4,0.5-0.8,1.1-1.2,1.6h11.3l1.7-0.2l5.2,3.1l-0.6,0.9c-0.3,0.5-0.6,0.9-1,1.2l-0.1,0.1h-0.1c-14.2,10-16.2,12.4-16.3,13.5
		c0,0.1,0.2,0.3,1.6,0.3h8.2c0.7,0,1.3,0,1.8-4.9l0.2-1.5l1.3,0.7c1.6,0.9,3.3,1.5,5.1,1.9l0.9,0.2l-0.1,1c-1.2,8-3.7,10.7-10,10.7
		C168.4,94.1,160.7,94.1,160.7,94.1z M152.1,82.5c1.1-1.8,3.2-4.1,7.3-7.6h-4.7l0.2-3.5l-0.5-0.5c-0.5-0.5-1-1-1.4-1.4L152.1,82.5z
		 M144.9,75.9l0.9-12.2h-0.2l-0.9,12.2H144.9z"/>
	<path class="st2" d="M257.4,52.6c0.3,1.2,0.6,2.3,0.8,3.5h14.3l-0.4,5.4h-31.3l-0.4,6.3c-0.5,7.1-1.9,18.6-5.6,25.7
		c-1.4-1.4-3-2.7-4.7-3.7c3.1-6.3,3.9-15.6,4.4-22l0.8-11.7h16c-0.1-0.8-0.3-1.7-0.4-2.4L257.4,52.6 M496.6,53l-0.2,3.4h15.9
		l-0.4,5.6H496l-0.2,2.7h11.9l-1,14.3h-6.8l-0.5,6.8c-0.1,1.6,0.1,1.7,1.4,1.7l0,0h3.2c1.3,0,1.6-0.7,2.1-5.6c1.7,1.1,3.6,2,5.6,2.4
		c-1.2,7.1-2.9,9-7.5,9h-4.8c-5.6,0-6.8-1.9-6.4-7.5l0.5-6.9h-4.1c-1.3,7.1-3.8,12.2-15.7,14.9c-0.7-2.1-1.8-4.1-3.2-5.8
		c9.7-1.7,11.2-4.6,12.2-9.1h-5.2l1-14.3h11l0.2-2.7h-15.4l0.4-5.6H490l0.2-3.4h6.4 M483.8,73.5h16.8l0.2-3.4H484L483.8,73.5
		 M159.2,53.1l6,1.5c-0.6,1.4-1.2,2.8-1.9,4.2h14.2l-0.4,5.8h-17.3c-0.8,1.2-1.8,2.5-2.7,3.6h13.4l1.4-0.2l4,2.4
		c-0.3,0.4-0.6,0.8-0.9,1.1c-15.4,10.8-16.6,12.8-16.7,14.2c-0.1,1,0.9,1.4,2.6,1.4l0,0h8.2c1.5,0,2.3-0.6,2.8-5.8
		c1.7,0.9,3.5,1.6,5.4,2c-1.2,8.1-3.7,9.9-9,9.9h-7.6c-6.4,0-9.1-2.6-8.8-6.6c0.2-2.5,0.9-5,10.3-12.6h-6.4l0.3-4.6
		c-0.3,0.3-0.6,0.6-0.9,0.9c-1-1-2-1.9-3-2.8L151.1,83h-7.9l-0.2,3.5h-5.7l2.1-29.8h13.5l-0.5,7.6C155.4,61.1,157.7,57.2,159.2,53.1
		 M143.6,76.9h2.2l1-14.2h-2.2L143.6,76.9 M217.9,53.1l-0.3,3.6h6.7l-0.4,5h-6.7L216.4,75h7.7l-0.4,5.2h-11.3l-0.1,1
		c-0.1,1,0,1.3,0.9,1.3h3.8c1.1,0,2.2-0.1,3.3-0.3c0,1.4,0,3.3,0.1,4.6c-1,0.2-2.1,0.3-3.2,0.3c-0.1,0-0.3,0-0.4,0h-4.3
		c-4.8,0-5.8-1.7-5.5-6l0.1-0.9h-2.4c-0.9,3.6-3.5,6.6-7,8h14.6c0.1,0,0.2,0,0.3,0c3,0,6-0.2,9-0.6c0.1,1.7,0.2,4,0.3,5.4
		c-1.7,0.4-6,0.5-9.4,0.5h-15.2c-7.7,0-10.3-1.9-9.9-7.9l0.4-5.4h-3.6l0.4-5.2h7.9l0.9-13.3h-7l0.4-5h7l0.3-3.6h6.3l-0.3,3.6h11.3
		l0.3-3.6L217.9,53.1 M199.5,63.1h11.3l0.1-1.4l0,0h-11.3L199.5,63.1 M199.1,68.9h11.3l0.1-1.4h-11.3L199.1,68.9 M198.6,75H210
		l0.1-1.8h-11.3L198.6,75 M193.6,84.4c2.9-0.9,4.6-2.1,5.3-4.2h-5L193.6,84.4 M197,88.2h0.3c-1.1-1.3-2.3-2.5-3.7-3.5l-0.1,1.1
		C193.4,87.5,193.9,88.2,197,88.2 M104.3,53.1l-0.1,1.5h6.7l-0.2,3.6H104l-0.1,1h2.1l0.9-0.2l3.3,1.8c-3.6,6.1-10.3,10.1-17,12.2
		c-0.7-1.4-1.6-2.6-2.7-3.7c1.9-0.5,3.7-1.2,5.4-2c-0.6-0.5-1.3-1.1-1.9-1.6c-0.4,0.3-0.8,0.6-1.3,0.8c-0.8-1.2-1.8-2.3-2.9-3.2
		c2.5-1.2,4.7-2.9,6.4-5l2.5,0.5l0.4-5.7H104.3 M99.6,65.1c1.2-0.8,2.4-1.7,3.5-2.8h-5c-0.3,0.3-0.6,0.6-1,0.9
		C98,63.8,98.9,64.4,99.6,65.1 M386.4,53.2L392,55c-1.1,2.8-2.4,5.5-3.8,8.1L386,93.9h-6l1.4-20.7c-0.8,1-1.5,1.8-2.3,2.6
		c-0.6-2.4-1.4-4.7-2.4-6.9C381,64.3,384.2,59,386.4,53.2 M541.8,53.2l-0.6,8.6l0,0h17.2c0,0-0.2,2.1-0.3,2.9
		c-2,16.9-3.3,23.4-5.4,25.8c-1.2,1.6-3,2.6-5,2.7c-1.5,0.2-3.1,0.3-4.6,0.3c-0.8,0-1.5,0-2.3-0.1c0-2.3-0.6-4.5-1.7-6.5
		c2.6,0.2,5,0.2,6.2,0.2c0.1,0,0.1,0,0.2,0c0.7,0,1.4-0.3,1.9-0.7c1.3-1.3,2.5-6.7,3.9-18.2h-10.7c-1.3,8.9-5.1,19.5-17.4,25.9
		c-1.3-1.9-2.8-3.6-4.6-5.1c10.5-5.2,14-13.6,15.3-20.8h-12.4l0.4-6.4h12.7l0.6-8.6L541.8,53.2 M125.9,54.2l3.3,1.4
		c-1.2,2.9-2.9,5.4-5.1,7.6c1.8,1,3.5,2.2,5.2,3.6l-4,3.8c-1.7-1.5-3.6-2.9-5.5-4c-1.6,0.9-3.3,1.7-5,2.3c-0.2-0.6-0.5-1.1-0.8-1.6
		c-0.3,0.2-0.5,0.5-0.8,0.8c4.3,2.6,11.4,5.1,17.5,6.4c-1.4,1.3-2.6,2.8-3.7,4.4c-1.5-0.4-3-0.9-4.6-1.5l-0.5,7.6
		c0.6-0.5,1.1-1,1.6-1.5l4.1,2.7c-1.3,0.9-2.7,1.9-4,2.8c1.3,0.5,2.6,1.1,3.8,1.9l-3.2,3.5c-4.3-2.4-8.9-4.4-13.6-5.8
		c-0.2,1.2-0.3,2.4-0.3,3.6c-10.4,1-12.2,1.3-13.4,1.9c-0.2-1.5-0.7-2.9-1.5-4.2c1-0.5,1.7-1.6,1.6-2.8l0.7-9.7
		c-1.8,0.7-3.5,1.3-5.3,1.8c-0.7-1.6-1.7-3.1-2.9-4.4c7.7-1.9,16.2-5.5,20.9-10.4l2.6,1.4c-0.3-0.4-0.6-0.8-0.9-1.1
		c0.9-0.3,1.8-0.6,2.7-1c-1.3-0.7-2.5-1.3-3.7-1.9l3.6-3.3h-2.8l0.3-4.1H125L125.9,54.2 M119.6,60.7c0.8-0.7,1.6-1.4,2.3-2.2l0,0
		H115C116.4,59.1,118,59.9,119.6,60.7 M106.7,72.7h6c-1.1-0.6-2.1-1.3-3-2C108.7,71.4,107.7,72.1,106.7,72.7L106.7,72.7 M100.1,76.1
		h19.3c-1.5-0.6-2.9-1.3-4.3-2l-0.1,1.5h-10.6l0.1-1.6C103.1,74.7,101.6,75.5,100.1,76.1L100.1,76.1 M103.2,79.9h13l0.1-0.7h-13
		L103.2,79.9 M103,82.8h13l0.1-0.8h-13L103,82.8 M119.1,87.1c0.5-0.4,1-0.8,1.5-1.2l0,0h-5C116.8,86.3,118,86.7,119.1,87.1
		 M102.7,88.1l5.7-0.4l-0.4-0.1l1.6-1.7h-6.7L102.7,88.1 M80.1,54.7l3.8,2.8c-2,3-4.4,5.7-7.1,8.2c1.1,0.7,2.2,1.4,3.2,2.1l-1.4,1.5
		h0.1l0.9-0.2l4.2,0.8c-0.9,3.9-2,7.7-3.3,11.4l-5-1c0.4-1.4,0.9-3.2,1.3-5.2h-1.7l-0.9,12.3c-0.2,2.8-0.8,4.5-2.7,5.5
		c-1.9,0.9-4.3,1-7.4,1c-0.1-2.1-0.6-4.1-1.3-6.1c1,0.1,2,0.1,3,0.1c0.4,0,0.9,0,1.3,0c0.6,0,0.8-0.1,0.9-0.6l0.8-12.1h-5l0.4-5.9
		h7.6c-2.2-1.4-4.4-2.7-6.8-3.8l4.1-3.9c1,0.4,2,0.9,3.1,1.5c0.8-0.8,1.5-1.6,2.1-2.5h-9l0.4-5.5h13L80.1,54.7 M64.3,55L63,74h-6.8
		L56,76.8h6.8l-0.4,5.6h-6.8l-0.2,3.3c2.5-0.2,5-0.5,7.4-0.7l-0.3,5.5c-7.3,0.9-15.2,1.8-20.9,2.5l-0.3-6.1c2.2-0.2,5-0.4,8-0.6
		l0.3-3.8h-6.5l0.4-5.6H50l0.2-2.8h-6.7l1.3-19h19.5 M56.6,62.2h2l0.2-2.3h-2L56.6,62.2 M49.4,62.2h2.1l0.2-2.3h-2.1L49.4,62.2
		 M56.1,69.1h2l0.2-2.4h-2L56.1,69.1 M48.9,69.1H51l0.2-2.4h-2.1L48.9,69.1 M392,55.1L392,55.1h26.2l-2.7,38.4h-5.9l0.1-2.1h-14.6
		l-0.2,2.5h-5.7L392,55.1 M395.5,86L395.5,86h14.6l1.8-25.6h-14.6L395.5,86 M466.5,55.5l-0.4,6.3h-12.5c-0.6,2.5-1.3,5-1.9,7.3h13
		l-0.3,2.7c-1.4,11.9-2.4,16.8-4.3,18.9c-1.7,1.8-3.3,2.2-5.7,2.5c-1.6,0.1-3.2,0.2-4.8,0.2c-1.1,0-2.3,0-3.4-0.1
		c-0.1-2.3-0.8-4.5-2.1-6.4c3.4,0.3,6.9,0.3,8.4,0.3c0.1,0,0.2,0,0.3,0c0.7,0,1.4-0.2,1.9-0.6c1.1-0.9,1.9-4.5,2.8-11.4h-14.3
		c1.3-3.6,2.7-8.6,3.9-13.4h-4.7l0.4-6.3L466.5,55.5 M441.7,58.4l-0.4,6.2H437l-1,13.9l5.1-0.9l0.1,6c-5.7,1.2-11.9,2.4-16.7,3.4
		l-0.9-6.4c1.7-0.2,3.8-0.6,6-0.9l1.1-15.1h-5.2l0.4-6.2L441.7,58.4 M406.8,61l-0.3,4.1h4.4l-0.3,4.4l0,0h-4.4l-0.2,3.2h3.7
		l-0.8,11.6h-11.8l0.8-11.6h3.3l0.2-3.2h-4l0.3-4.4h4L402,61H406.8 M401.8,80.2h2.8l0.2-3.3H402L401.8,80.2 M266.3,62.2l-0.1,1.6
		h5.8l-0.3,4.6h-5.8l-0.6,8.7h-4.6l0.6-8.7h-4.9l0.3-4.6h4.9l0.1-1.6L266.3,62.2 M250.7,62.2l-0.1,1.6h5l-0.3,4.6h-5l-0.6,8.1
		c0.5-0.3,0.9-0.6,1.4-1c-0.5-0.5-0.6-1.4-0.5-2.6l0.2-3.2h3.2l-0.2,3.2c0,0.6,0,0.8,0.3,0.9c0.4,0,0.9-0.1,1.3-0.2
		c0,0.3,0,0.7,0,1.1c1.1-0.9,1.8-2.3,1.8-3.8l0.1-1.5h3.3l-0.1,1.7c-0.1,2-0.6,4.6-2.8,6.2c-0.7-0.8-1.4-1.5-2.3-2.1
		c0,0.2,0,0.5,0,0.7c-0.5,0.1-0.9,0.2-1.4,0.2c-0.1,0-0.2,0-0.2,0h-0.6l2.4,1.6c-2,1.4-4.1,2.6-6.3,3.6l5.5-0.2c2-1.3,4-2.6,5.8-4
		l4.3,3.1c-4.2,2.9-8.6,5.4-13.1,7.5l9.5-0.6c-0.7-0.8-1.3-1.6-1.9-2.3l4.6-2.1c2.1,2.4,5,6,6.5,8.2l-4.9,2.5
		c-0.3-0.6-0.8-1.3-1.2-1.9c-19.8,1.4-22.4,1.4-24.1,2c-0.3-1.6-0.6-3.3-1.1-4.9c1.8-0.4,3.6-1,5.3-1.9c0.8-0.3,2.3-1,4-1.9
		c-4.7,0.4-5.7,0.6-6.4,0.8c-0.3-1.5-0.6-3-1.1-4.5c1.1-0.2,2.1-0.5,3-1.1c1.9-0.9,3.7-1.9,5.5-3.1h-4.1l0.6-8.5h-4.3l0.3-4.6h4.3
		l0.1-1.6L250.7,62.2 M269.8,69.5l-0.3,4c0,0.6,0,0.9,0.5,0.9l0,0h0.2h0.1c0.6,0,1.1-0.1,1.6-0.2c0,0.8,0,1.6,0,2.4
		c-0.5,0.2-1,0.2-1.6,0.2c-0.1,0-0.2,0-0.3,0h-1.3c-2.5,0-2.8-1.2-2.7-3.4l0.3-3.9H269.8 M245.1,69.6l-0.1,1.7
		c-0.1,2.1-0.6,4.7-2.6,6.5c-0.8-0.9-1.7-1.7-2.7-2.3c1.3-1.1,2-2.7,2-4.4l0.1-1.5L245.1,69.6 M265.3,77.1L265.3,77.1L265.3,77.1
		 M223.7,80.2L223.7,80.2L223.7,80.2 M258.8,50.3l-1.8,0.3l-6.5,1.1l-2.1,0.4l0.5,2h-13.6h-1.9l-0.1,1.9l-0.8,11.7
		c-0.3,4.8-1,14.9-4.2,21.2l-0.8,1.7l1.6,0.9c1.6,0.9,3,2,4.2,3.3l1.9,2l1.3-2.5c0.4-0.8,0.8-1.7,1.2-2.5c0.1,0.6,0.2,1.2,0.3,1.8
		l0.4,2.4l2.3-0.8c1-0.4,3.2-0.5,11.3-1c2.9-0.2,6.5-0.4,11.1-0.7c0.2,0.3,0.4,0.6,0.5,0.8l0.9,1.7l1.7-0.9l4.9-2.5l2.1-1l-1.3-1.9
		c-1.4-2.1-4-5.3-6.1-7.7l0,0l2.4-1.6l-1.6-1.2h0.5v-0.4c0.5,0.1,1.1,0.2,1.7,0.2h1.2c0.1,0,0.2,0,0.3,0c0.7,0,1.4-0.1,2.1-0.3
		l1.5-0.4l-0.1-1.6c0-0.7,0-1.4,0-2.2v-0.2v-2.6l-2.4,0.6l0.1-1.9h1.8l0.1-1.9l0.3-4.6v-0.4l0,0l0.1-1.9l0.4-5.4l0.1-2.1h-2.1h-12.7
		c-0.2-0.7-0.3-1.4-0.5-2.1L258.8,50.3L258.8,50.3z M239.6,86.3c0.1-0.3,0.1-0.5,0.2-0.8c0,0.1,0.1,0.3,0.1,0.4l0.1,0.3
		C239.8,86.2,239.7,86.2,239.6,86.3L239.6,86.3z M385.2,50.7l-0.7,1.8c-2.1,5.6-5.2,10.7-9.2,15.1l-0.9,1l0.5,1.2
		c1,2.1,1.7,4.3,2.3,6.5l0.9,3.5l1-1l-1,15l-0.1,2.1h2.1h5.9h1.9v-0.1h1.5h5.7h1.9l0-1.8v-0.6h10.6l-0.2,2.1h2.1h5.9h1.9l0.1-1.9
		l2.7-38.4l0.1-2.1h-2.1h-25.5h-0.1l-5.6-1.8L385.2,50.7L385.2,50.7z M408.7,62.4h1.1l-0.1,0.7h-1.1L408.7,62.4L408.7,62.4z
		 M399.2,62.4h0.8l-0.1,0.7h-0.8L399.2,62.4L399.2,62.4z M157.9,50.7l-0.6,1.7c-0.7,1.8-1.5,3.6-2.5,5.3l0.1-0.8l0.1-2.1h-2.1h-13.5
		h-1.9l-0.1,1.9l-2.1,29.8l-0.1,2.1h2.1h5.7h1.9l0.1-1.9l0.1-1.7h5c-0.1,0.5-0.2,1-0.2,1.5c-0.2,2.3,0.5,4.3,1.9,5.7
		c1.8,2,4.8,3,8.9,3h7.6c6.8,0,9.7-3,11-11.6l0.3-1.9l-1.9-0.4c-1.7-0.3-3.3-0.9-4.8-1.7l-2.7-1.5l-0.3,3c-0.3,2.7-0.6,3.6-0.7,4
		h-0.1H161c-0.1,0-0.1,0-0.2,0c1.2-1.4,5.1-4.7,15.4-11.9l0.1-0.1l0.1-0.1c0.4-0.4,0.8-0.9,1.2-1.4l1.1-1.8l-1.8-1.1l-3.5-2.1h3.7
		h1.9l0.1-1.9l0.4-5.8l0.1-2.1h-2.1h-11.1c0.2-0.5,0.4-1,0.6-1.5l0.9-2.1l-2.2-0.6l-6-1.5L157.9,50.7L157.9,50.7z M153.3,79.3
		l0.5-7.5l0.1,0.1l-0.1,2l-0.1,2.1h2.1h1C155.3,77.2,154.2,78.3,153.3,79.3L153.3,79.3z M498.8,51h-2.1h-6.4h-1.9l-0.1,1.9l-0.1,1.5
		h-13.5h-1.9l-0.1,1.9l-0.4,5.6l-0.2,2.1h2.1h2.2v0.5l-1,14.3l-0.2,2.1h2.1h2.6c-0.9,2.2-2.9,3.9-9.9,5.2l-3.4,0.6l2.2,2.6
		c1.3,1.5,2.2,3.3,2.8,5.1l0.6,1.7l1.8-0.4c11.5-2.6,15.2-7.5,16.9-14.9h0.3l-0.3,4.7c-0.2,2.8-0.1,5.6,1.6,7.5s4.5,2.1,6.8,2.1h4.8
		c6.5,0,8.4-3.9,9.5-10.7l0.3-1.8l-1.8-0.4c-1.3-0.3-2.5-0.8-3.7-1.4l0.1-1.9l1-14.3l0.1-0.8h2.2h1.9l0.1-1.9l0.4-5.6l0.1-2.1h-2.1
		h-13.8l0.1-1.2L498.8,51L498.8,51z M501.7,81h2.4l-0.1,0.7c-0.1,0.8-0.3,2.8-0.5,3.8h-2.2L501.7,81L501.7,81z M220,51.1h-2.1h-6.4
		h-1.9l-0.1,1.9l-0.1,1.7h-7.3l0.1-1.5l0.1-2.1h-2.1h-6.3H192l-0.1,1.9l-0.1,1.7h-5.1h-1.9l-0.1,1.9l-0.4,5l-0.1,2.1h2.1h4.9
		l-0.7,9.3h-6.1h-1.9l-0.1,1.9l-0.4,5.2l-0.2,2.1h2.1h1.4l-0.2,3.2c-0.2,3.3,0.4,5.6,1.9,7.2c1.8,2,4.8,2.8,10,2.8h15.2
		c7.7,0,9.3-0.4,9.9-0.6l1.7-0.4l-0.2-1.7c-0.1-1-0.2-2.8-0.3-5.2l-0.1-2.2l-1.1,0.1c0-0.6,0-1.2,0-1.8c0-0.5,0-1,0-1.5h1.4h1.9
		l0.1-1.9l0.4-5.2l0.1-2.1h-2h-5.5l0.7-9.3h4.8h1.9l0.1-1.9l0.4-5l0.1-2.1h-2.1h-4.6l0.1-1.5L220,51.1L220,51.1z M203.8,86.2
		c0.5-0.6,1-1.2,1.3-1.9c0.1,0.7,0.3,1.3,0.6,1.9H203.8L203.8,86.2z M106.5,51.1h-2.1h-5.2h-1.9L97.2,53L97,56.4l-0.3-0.1l-1.2-0.2
		L94.7,57c-1.6,1.9-3.5,3.4-5.8,4.5L86,62.9l2.5,2c0.8,0.6,1.5,1.4,2.1,2.2c-0.3,0.1-0.5,0.2-0.8,0.2l-3.2,0.9l2.3,2.4
		c0.5,0.5,1,1.1,1.4,1.7c-0.5,0.1-1,0.3-1.5,0.4l-3.2,0.8l2.2,2.5c1,1.1,1.9,2.4,2.5,3.9l0.7,1.6l1.7-0.5c0.9-0.3,1.7-0.5,2.5-0.8
		l-0.5,6.6v0.1V87c0,0.4-0.2,0.7-0.5,0.9l-1.9,1l1.1,1.9c0.6,1,1,2.2,1.2,3.4l0.4,2.6l2.4-1c1-0.4,3.1-0.8,12.8-1.7l1.8-0.2v-1.8
		c0-0.3,0-0.6,0-0.9c3.8,1.3,7.4,3,10.9,4.9l1.4,0.8l1.1-1.2l3.2-3.5l1.7-1.8l-2.2-1.2c-0.3-0.2-0.5-0.3-0.8-0.5
		c0.4-0.3,0.8-0.5,1.2-0.8l2.4-1.7l-2.4-1.6l-4.1-2.7l-0.4-0.3l0.1-1.4c0.8,0.3,1.5,0.5,2.2,0.7l1.4,0.4l0.8-1.2
		c1-1.5,2.1-2.8,3.4-4l2.8-2.6l-3.7-0.8c-1.3-0.3-2.6-0.6-3.8-0.9l3.5-3.3l1.7-1.6l-1.8-1.4c-1.1-0.9-2.2-1.7-3.3-2.4
		c1.6-1.9,2.9-4.1,3.8-6.4l0.7-1.8l-1.8-0.8l-3.3-1.4l-0.5-0.2l-0.6,0.1l-0.8,0.1h-12.7h-1.9v0.2h-3.8L106.5,51.1L106.5,51.1z
		 M119.6,68.9C119.6,68.9,119.7,68.9,119.6,68.9c0.2,0,0.3,0.1,0.5,0.1C119.9,69,119.7,69,119.6,68.9L119.6,68.9z M543.9,51.2h-2.1
		h-6.7h-1.9l-0.1,1.9l-0.5,6.8h-10.8h-1.9l-0.1,1.9l-0.4,6.4l-0.2,2.1h2.1h10c-2,7.9-6.5,13.5-13.7,17l-2.8,1.4l2.4,2
		c1.6,1.3,3,2.9,4.2,4.7l1,1.5l1.6-0.8c5-2.6,9-6,12-10.3l1.2,2.3c0.9,1.7,1.5,3.6,1.5,5.5v1.8l1.8,0.1c0.8,0,1.6,0.1,2.4,0.1
		c1.6,0,3.2-0.1,4.8-0.3c2.5-0.2,4.8-1.5,6.3-3.4c2.4-2.7,3.6-8.6,5.8-26.8c0.1-0.9,0.3-2.8,0.3-3l0.2-2.2h-2.2H543l0.5-6.5
		L543.9,51.2L543.9,51.2z M542.2,70.2h6.7c-1.5,11.5-2.5,14.2-3,14.8c-0.1,0.1-0.3,0.2-0.5,0.2h-0.1h-0.1c-1.1,0-3.5,0-6-0.2
		l-2.5-0.2C539.3,80.6,541.2,75.8,542.2,70.2L542.2,70.2z M80.5,52.5l-0.9,0.2L78.5,53H65.7h-1.9l0,0h-19H43l-0.1,1.9l-1.3,19
		L41.4,76h0.1v0.6l-0.4,5.6L41,84.3h2.1h3.5c-2,0.2-3.8,0.3-5.4,0.4l-1.9,0.1l0.1,1.9l0.3,6.1l0.1,2.2l2.1-0.3
		c1.9-0.2,4.1-0.5,6.4-0.7c4.3-0.5,9.1-1,13.7-1.6c0.1,0.5,0.1,1,0.2,1.6l0.1,1.9h1.9c3.3,0,5.9-0.1,8.3-1.2
		c3.1-1.5,3.7-4.3,3.9-7.1l0.3-5l3.5,0.7l1.7,0.3l0.6-1.6c1.4-3.8,2.5-7.7,3.4-11.7l0.5-2l-2-0.4l-1.3-0.3l0.1-0.1l-1.8-1.3
		c-0.4-0.3-0.8-0.6-1.2-0.9c2-2.1,3.9-4.3,5.5-6.7l1.1-1.6L85,55.9l-3.8-2.8L80.5,52.5L80.5,52.5z M64.8,77.1h1.9l-0.6,8.8
		c-0.1,0-0.2,0-0.3,0c-0.3,0-0.7,0-1,0V85l0.1-2.3h-0.5v-0.3L64.8,77.1L64.8,77.1z M468.6,53.5h-2.1h-23.8h-1.9l-0.1,1.9l-0.1,1
		h-14.8H424l-0.1,1.9l-0.4,6.2l-0.2,2.1h2.1h3.1l-0.8,11.3h-0.1c-1.5,0.2-3,0.5-4.2,0.6l-2,0.3l0.3,2l0.9,6.4l0.3,2.1l2.1-0.4
		l1.3-0.3c4.3-0.8,9.6-1.9,14.6-3l1.5,2.1c1.1,1.6,1.7,3.5,1.8,5.4l0.1,1.8l1.8,0.1c1.2,0.1,2.3,0.1,3.5,0.1c1.6,0,3.3-0.1,4.9-0.2
		l0,0l0,0c2.8-0.3,4.9-0.9,6.9-3.1c2.2-2.4,3.3-6.9,4.9-20l0.3-2.7l0.3-2.2h-2.2h-10.3c0.3-1,0.6-2.1,0.9-3.3h11h1.9l0.1-1.9
		l0.4-6.3L468.6,53.5L468.6,53.5z M443.3,63.8h1.1c-1.1,4.1-2.2,7.9-3.2,10.7l-0.4,1.2l0,0l-2.6,0.5l0.7-9.5h2.5h1.9l0.1-1.9
		L443.3,63.8L443.3,63.8z M443.1,77.2h12c-0.8,5.6-1.4,7.3-1.7,7.8c-0.2,0.1-0.5,0.2-0.7,0.2h-0.1h-0.1h-0.1c-1,0-4.7,0-8.2-0.3
		l-0.8-0.1v-1.2l-0.1-6L443.1,77.2L443.1,77.2z"/>
</g>
<path id="吃" class="st3" d="M327.8,77.5l-2.7,0.3l-1.6-16.9l2.7-0.3L327.8,77.5z M347.7,87.8c-2,0.2-3.3-0.1-3.4-1.3
	c-0.2-1.7,0.9-4.2,17.1-18.7c0.3-0.4,0.6-0.9,0.8-1.4L357,64l-1.6,0.4l-16,1.5c0.9-1.5,1.8-3,2.6-4.6l20.6-1.9l-0.7-6.9l-17,1.6
	c0.6-1.7,1.1-3.4,1.5-5.2l-7.5-1.1c-1,5.1-3,9.8-6,14.1l-0.9-9.1l-16.1,1.5l3.3,35.4l6.7-0.6l-0.4-4.2l9.4-0.9l-1.7-18.4
	c1.4,0.9,2.8,1.9,4.1,3c0.3-0.4,0.6-0.8,0.9-1.2l0.5,5.5l7.6-0.7c-9.7,10.1-10.1,13.1-9.8,16.1c0.4,4.7,4.2,7.5,11.8,6.8l9.1-0.9
	c6.3-0.6,9-2.9,8.8-12.7c-2.3-0.2-4.6-0.8-6.8-1.7c0.4,6.1-0.4,6.9-2.2,7.1L347.7,87.8z"/>
<g id="矩形_11_拷貝">
	<polygon class="st1" points="52.1,117.2 436.3,124.8 429.3,160.7 66.6,165.1 	"/>
	<path d="M54.2,118.7l380.4,7.6l-6.5,32.9l-360.3,4.5L54.2,118.7 M50.1,115.6l15.4,51l365-4.5l7.6-38.8L50.1,115.6L50.1,115.6z"/>
</g>
<g id="矩形_11">
	<polygon class="st3" points="53.2,117.2 438.3,120.9 431.2,156.7 68.5,161.2 	"/>
	<path d="M55.3,118.7l381.1,3.7l-6.5,32.8l-360.4,4.5L55.3,118.7 M51.1,115.6l16.4,47l365-4.5l7.7-38.8L51.1,115.6L51.1,115.6z"/>
</g>
<path id="偷偷說...鐵盒還能收藏拉_" class="st1" d="M131.2,132.6c-1.1,2.4-2.5,4.6-4.3,6.6c0.3,0.7,0.5,1.4,0.6,2.2
	c0.4-0.4,0.7-0.8,1.1-1.2l-1.5,8.3h1.9l2.1-11.9c0.7-1.1,1.3-2.3,1.9-3.4L131.2,132.6z M132.8,143.8c0.1-0.3,0.1-0.6,0.2-1h1.7
	l-0.2,1H132.8z M135.2,140.5l-0.2,0.9h-1.7l0.2-0.9H135.2L135.2,140.5z M137.1,139H132l-0.6,3.6c-0.2,1.7-0.8,3.4-1.8,4.9
	c0.5,0.3,0.9,0.6,1.3,1c0.7-1,1.3-2.1,1.6-3.3h1.9l-0.2,1.3c0,0.1-0.1,0.2-0.2,0.2l0,0c-0.1,0-0.5,0-1,0c0.2,0.5,0.2,1.1,0.2,1.7
	c0.6,0.1,1.3,0,1.8-0.3s0.8-0.9,0.8-1.5L137.1,139z M139.1,146.4c0,0.2-0.1,0.3-0.3,0.3l0,0c-0.2,0-1,0-1.7,0
	c0.2,0.5,0.2,1.1,0.2,1.7c0.8,0.1,1.7,0,2.5-0.3c0.6-0.3,1-0.9,1-1.6l1.4-7.7h-1.7L139.1,146.4z M139.4,139.4h-1.6l-1.1,6.2h1.5
	L139.4,139.4z M135.1,136.7c1-0.6,1.9-1.2,2.8-1.9c0.7,0.7,1.5,1.4,2.3,1.9H135.1z M138.1,132.4c-1.8,1.8-4.1,3.1-6.5,3.9
	c0.4,0.5,0.7,1,1,1.5c0.5-0.2,0.9-0.4,1.4-0.6l-0.2,1h6.6l0.2-1.3c0.5,0.3,0.9,0.5,1.4,0.8c0.4-0.6,0.9-1.1,1.4-1.6
	c-1.6-0.5-3.1-1.3-4.3-2.5c0.1-0.2,0.3-0.3,0.4-0.4L138.1,132.4z M148.6,132.6c-1.1,2.4-2.5,4.6-4.3,6.6c0.3,0.7,0.5,1.4,0.6,2.2
	c0.4-0.4,0.7-0.8,1.1-1.2l-1.5,8.3h1.9l2.1-11.9c0.7-1.1,1.3-2.3,1.9-3.4L148.6,132.6z M150.3,143.8c0.1-0.3,0.1-0.6,0.2-1h1.7
	l-0.2,1H150.3L150.3,143.8z M152.6,140.5l-0.2,0.9h-1.7l0.2-0.9H152.6z M154.5,139h-5.1l-0.6,3.6c-0.2,1.7-0.8,3.4-1.8,4.9
	c0.5,0.3,0.9,0.6,1.3,1c0.7-1,1.3-2.1,1.6-3.3h1.9l-0.2,1.3c0,0.1-0.1,0.2-0.2,0.2l0,0c-0.1,0-0.5,0-1,0c0.2,0.5,0.2,1.1,0.2,1.7
	c0.6,0.1,1.3,0,1.8-0.3s0.8-0.9,0.8-1.5L154.5,139z M156.5,146.4c0,0.2-0.1,0.3-0.3,0.3l0,0c-0.2,0-1,0-1.7,0
	c0.2,0.5,0.2,1.1,0.2,1.7c0.8,0.1,1.7,0,2.5-0.3c0.6-0.3,1-0.9,1-1.6l1.4-7.7h-1.7L156.5,146.4z M156.9,139.4h-1.5l-1.1,6.2h1.5
	L156.9,139.4z M152.5,136.7c1-0.6,1.9-1.2,2.8-1.9c0.7,0.7,1.5,1.4,2.3,1.9H152.5L152.5,136.7z M155.5,132.4
	c-1.8,1.8-4.1,3.1-6.5,3.9c0.4,0.5,0.7,1,1,1.5c0.5-0.2,0.9-0.4,1.4-0.6l-0.2,1h6.6l0.2-1.3c0.5,0.3,0.9,0.5,1.4,0.8
	c0.4-0.6,0.9-1.1,1.4-1.6c-1.6-0.5-3.1-1.3-4.3-2.5c0.1-0.2,0.3-0.3,0.4-0.4L155.5,132.4z M171.1,138.9h3l-0.3,1.9h-3L171.1,138.9z
	 M164.7,145.9h-1.6l0.3-1.9h1.6L164.7,145.9z M173.9,146.4c-0.2,0-0.3-0.1-0.2-0.5l0.6-3.4h1.1l0.9-4.9c0.1,0.2,0.2,0.4,0.2,0.6
	l1.7-1.1c-0.7-1.6-1.7-3.1-2.8-4.5l-1.6,0.9c0.8,1.1,1.5,2.3,2.2,3.5h-5.8c1.1-1.1,2.2-2.4,3-3.7l-1.8-0.6c-0.8,1.3-1.8,2.5-3,3.5
	l0.2-0.9h-3l1.4-0.5c-0.1-0.8-0.3-1.5-0.5-2.2l-1.8,0.5c0.2,0.7,0.4,1.4,0.4,2.1h-2.5l-0.3,1.6h5.3l-0.1,0.1
	c0.4,0.4,0.8,0.9,1.2,1.4c0.2-0.2,0.5-0.4,0.7-0.6l-0.8,4.6h1.1c-0.5,2-1.2,3.5-3.4,4.4l0.8-4.6h-5l-1,5.9h1.7l0.1-0.7h3.3l0.1-0.4
	c0.3,0.4,0.6,0.9,0.8,1.4c3-1.2,4-3.3,4.7-6h0.8l-0.6,3.4c-0.3,1.8-0.1,2.4,1.5,2.4h1.1c1.2,0,1.8-0.6,2.4-2.9
	c-0.6-0.1-1.1-0.4-1.6-0.8c-0.3,1.6-0.4,1.8-0.7,1.8h-0.8V146.4z M162.1,141.6h4.8l0.3-1.5h-4.8L162.1,141.6z M167.6,137.8h-4.8
	l-0.3,1.5h4.8L167.6,137.8z M180.1,147.2c0.9,0,1.7-0.7,1.9-1.6c0.2-0.7-0.2-1.4-0.9-1.6c-0.1,0-0.3-0.1-0.4,0
	c-0.9,0-1.7,0.7-1.8,1.6c-0.2,0.7,0.2,1.4,0.9,1.6C179.8,147.2,179.9,147.2,180.1,147.2L180.1,147.2z M186,147.2
	c0.9,0,1.7-0.7,1.9-1.6c0.2-0.7-0.2-1.4-0.9-1.6c-0.1,0-0.3-0.1-0.4,0c-0.9,0-1.7,0.7-1.8,1.6c-0.2,0.7,0.2,1.4,0.9,1.6
	C185.8,147.2,185.9,147.2,186,147.2L186,147.2z M192,147.2c0.9,0,1.7-0.7,1.9-1.6c0.2-0.7-0.2-1.4-0.9-1.6c-0.1,0-0.3-0.1-0.4,0
	c-0.9,0-1.7,0.7-1.8,1.6c-0.2,0.7,0.2,1.4,0.9,1.6C191.7,147.2,191.8,147.2,192,147.2L192,147.2z M218.2,132.8
	c-0.2-1.1-0.6-2.1-1.1-3.1l-2,0.8c0.5,1,0.8,2.1,0.9,3.2L218.2,132.8z M206.9,138h2.2l-0.2,1h-2.2L206.9,138z M204.7,140.5h5.9
	l0.7-4h-5.9L204.7,140.5z M209.8,145.4l-2,0.2l0.1-0.6h1.8l0.3-1.6h-1.8l0.2-0.9c0.8-0.1,1.7-0.2,2.5-0.4l-1.1-1.4
	c-1.9,0.4-3.8,0.6-5.7,0.7v-0.1l-1.5-0.5c-0.4,1.2-0.8,2.4-1.3,3.6l1.2,0.5c0.4-0.8,1-2.1,1.5-3.3c0.1,0.4,0.2,0.9,0.2,1.3
	c0.6,0,1.3,0,2-0.1l-0.1,0.7h-1.9l-0.3,1.6h1.9l-0.1,0.8c-0.9,0.1-1.7,0.2-2.5,0.2l0.2-1.4c-0.8,0.1-1.5,0.3-2.3,0.5l0.9-4.9h2.2
	l0.4-2.1h-2.2l0.3-1.5h1.6l0.3-1.9c0.1,0.1,0.1,0.2,0.2,0.3l0.4-0.6l-0.3,1.6h7.1c-0.5,2.9-0.7,5.8-0.8,8.7c-0.4,0.5-0.9,1-1.4,1.5
	L209.8,145.4z M200.6,134.4c0.6-0.6,1.2-1.3,1.8-2c0.7,0.6,1.4,1.3,2,2H200.6L200.6,134.4z M215.1,137.5c-0.4,1.2-1,2.4-1.6,3.5
	c0.1-1.5,0.3-3.2,0.7-5.2h3.4l0.3-2h-3.4c0.2-1.5,0.5-3,0.9-4.7H213c-0.3,1.7-0.6,3.3-0.8,4.7H210l0.2-1.2h1.8l0.3-1.9h-1.8l0.3-1.6
	h-2.2l-0.3,1.6h-1.9l-0.3,1.9h1.9l-0.2,1.2h-2.4l0.6-1c-0.7-0.8-1.5-1.6-2.4-2.2c0.2-0.3,0.3-0.5,0.5-0.8l-1.5-0.8
	c-2.9,0.4-4.9,3.1-4.4,6c0.1,0.4,0.2,0.8,0.3,1.2c0.3-0.2,0.6-0.5,0.9-0.8l-0.2,1.1h1.4l-0.3,1.5h-2.5l-0.4,2.1h2.5l-0.9,5.3
	c-1.1,0.2-2.1,0.4-2.9,0.5v2.3c1.9-0.4,4.3-1,6.6-1.6l-0.1,1.3l5.3-0.6l-0.1,0.1c0.5,0.5,1,1,1.4,1.5c0.7-0.6,1.4-1.2,2.1-1.8
	c0.1,0.9,0.8,1.6,1.8,1.7c1.6,0,2.3-0.6,3.2-4.3c-0.5-0.3-1-0.7-1.4-1.2c-0.5,2.3-0.8,3.1-1.1,3.1s-0.5-0.5-0.5-1.6
	c1.6-2.2,2.8-4.5,3.8-7L215.1,137.5z M197.5,141.4c0.1,1.2,0.1,2.4,0,3.7l1.5-0.5c0.1-1.2,0-2.4-0.1-3.6L197.5,141.4z M222.9,143.4
	h1.9l-0.5,2.8h-1.9L222.9,143.4z M229,143.4l-0.5,2.8h-1.9l0.5-2.8H229z M233.2,143.4l-0.5,2.8h-1.9l0.5-2.8H233.2L233.2,143.4z
	 M236,141.4h-15.2l-0.8,4.7h-2l-0.4,2.3h19.1l0.4-2.3h-1.9L236,141.4z M232.8,138.9h-7.9l0.2-1.2h7.9L232.8,138.9z M223.2,136
	l-0.8,4.5h12.5l0.8-4.5H223.2L223.2,136z M227.7,133.4c0.8-0.5,1.7-1.1,2.4-1.6c0.7,0.6,1.3,1.1,2.1,1.6H227.7L227.7,133.4z
	 M230.4,128.8c-2.4,2.4-6.6,4.5-10.8,5.8c0.5,0.6,0.9,1.3,1.2,2c1.6-0.6,3.2-1.2,4.7-2l-0.1,0.6h8.2l0.1-0.7
	c1.2,0.8,2.6,1.4,3.9,1.9c0.6-0.8,1.4-1.5,2.1-2.2c-2.9-0.8-5.6-2.1-8-3.8c0.2-0.2,0.4-0.4,0.6-0.6L230.4,128.8z M258.2,132.4h-1.4
	l0.2-1.4h1.4L258.2,132.4z M254.9,132.4h-1.3l0.2-1.4h1.3L254.9,132.4z M251.8,132.4h-1.3l0.2-1.4h1.3L251.8,132.4z M260.8,129.7
	h-11.9l-0.7,4.1h11.9L260.8,129.7z M247.1,132.3c-0.6-1.1-1.3-2.2-2.1-3.2l-2.1,1.1c0.7,1.1,1.4,2.2,1.9,3.4L247.1,132.3z
	 M257.5,140.7c-0.6,0.4-1.4,0.9-2,1.3c-0.5-0.3-0.9-0.7-1.4-1l-1.7,1.1c0.4,0.3,0.7,0.6,1.1,0.9l-2.9,0.8l0.3-1.5
	c0.9-0.5,1.8-1,2.6-1.5L257.5,140.7L257.5,140.7z M250.3,138.2h5.9l-0.2,1.1h-5.9L250.3,138.2z M258.7,144.5
	c-0.5-0.4-1.1-0.9-1.9-1.5c0.9-0.4,1.7-0.9,2.5-1.5l-1.2-1l0.6-3.7h-10.4l-0.7,3.9h3.1c-1.6,0.8-3.4,1.4-5.1,1.9
	c0.4,0.4,0.7,0.9,0.9,1.4c0.8-0.2,1.5-0.5,2.2-0.8l-0.1,0.5c-0.1,0.5-0.4,1-0.9,1.2c0.2,0.4,0.3,0.8,0.3,1.3c-1.8-0.3-3-0.9-3.6-2.4
	c0.7-1.4,1.2-2.8,1.7-4.3l-1-0.4l-0.4,0.1h-1.2c1.2-1.4,2.7-3.4,3.6-4.6l-0.3,1.5h13.6l0.3-1.6h-13.6l0,0l-1.4-0.6l-0.4,0.1h-3.8
	l-0.4,2h2.5c-0.7,0.9-1.4,1.8-2.2,2.7c-0.3,0.3-0.7,0.6-1.1,0.7c0.2,0.7,0.3,1.3,0.4,2c0.4-0.2,0.9-0.3,1.3-0.3h1.2
	c-0.8,2.5-2.4,4.6-4.5,6.2c0.5,0.5,1,1,1.4,1.6c1.1-0.8,2.1-1.8,2.9-3c1.2,2.2,3.6,2.6,7.5,2.6c2.5,0,5.2-0.1,7.4-0.2
	c0.3-0.8,0.7-1.6,1.2-2.3c-2.5,0.2-5.9,0.4-8.2,0.4c-0.9,0-1.7,0-2.6-0.1c0.7-0.3,1.9-0.6,5.1-1.6c0-0.4,0-1,0-1.5
	c1.2,0.9,2.4,2,3.1,2.7L258.7,144.5z M279.7,138.4c0.7,0,1.5,0,2.2-0.2c0-0.6,0.1-1.5,0.1-2.1c-0.7,0.1-1.3,0.2-2,0.2h-3.1
	c-0.7,0-0.8-0.3-0.6-1.1l0.2-1.4h5.2l0.4-2.2H277l0.4-2.5h-2.5l-1.1,6c-0.4,2.3,0.1,3.3,2.6,3.3H279.7L279.7,138.4z M265.6,140.7
	c0.7,0.6,1.3,1.3,1.9,2l1.2-1l-0.1,0.7c-1.4,0.7-2.7,1.3-3.8,1.7c0.3-0.9,0.5-1.8,0.6-2.7L265.6,140.7z M269.3,138.8l-0.4,2.4
	c-0.6-0.6-1.3-1.2-1.9-1.8l-1.2,0.9l0.3-1.5L269.3,138.8L269.3,138.8z M272,136.6h-8l-0.8,4.8c-0.2,2.1-1,4.1-2.2,5.8
	c0.6,0.5,1.1,1.1,1.5,1.7c1-1.2,1.7-2.5,2.2-4l0.3,1.5c1.1-0.6,2.2-1.3,3.4-2.1l-0.4,2.2c0,0.2-0.2,0.4-0.3,0.4c0,0,0,0-0.1,0
	c-0.3,0-1.1,0-1.8-0.1c0.2,0.6,0.4,1.3,0.4,2c1,0.1,2,0,3-0.4c0.7-0.3,1.2-1.1,1.2-1.9L272,136.6z M269.7,131.4
	c0.2,0.5,0.4,1.1,0.6,1.7l-3.1,0.2c1.2-1.1,2.2-2.3,3.2-3.5l-2.4-0.7c-0.9,1.4-2,2.6-3.2,3.8c-0.4,0.4-0.8,0.7-1.3,0.8
	c0.1,0.6,0.3,1.8,0.4,2.3c0.7-0.3,1.5-0.4,7-0.9c0.1,0.5,0.2,0.9,0.3,1.3l2.4-0.9c-0.4-1.7-1-3.3-1.7-4.9L269.7,131.4z M275.3,146.5
	c-0.8,0-1-0.1-0.8-0.9l0.4-2.3h5.3l0.4-2.2h-5.3l0.4-2.1h-2.5l-1.2,6.6c-0.4,2.3,0.1,3,2.6,3h3c2,0,2.8-0.8,3.5-3.6
	c-0.7-0.2-1.4-0.5-2-0.9c-0.4,1.9-0.7,2.3-1.4,2.3L275.3,146.5L275.3,146.5z M300.6,135.4c-0.6,2-1.5,3.9-2.6,5.6
	c-0.6-1.6-1-3.3-1.1-5.1c0.1-0.2,0.2-0.4,0.3-0.6L300.6,135.4L300.6,135.4z M304.3,135.4l0.4-2.4h-6.4c0.5-1.1,0.9-2.3,1.4-3.5
	l-2.5-0.4c-0.9,3.2-2.5,6.1-4.7,8.7l1.5-8.3h-2.5l-2,11.6l-2.4,0.7l1.8-10.3h-2.5l-1.8,10.2c-0.1,0.6-0.5,1.2-1,1.5
	c0.3,0.7,0.5,1.5,0.6,2.3c0.5-0.4,1.3-0.8,4.9-1.9l-1,5.4h2.5l1.9-10.6c0.5,0.6,0.9,1.3,1.2,2c0.5-0.5,0.9-1,1.4-1.5
	c0.2,1.6,0.6,3.1,1.2,4.6c-1.4,1.5-3.1,2.7-5,3.6c0.5,0.6,0.9,1.3,1.2,2.1c1.8-0.9,3.4-2.1,4.8-3.5c0.8,1.3,1.9,2.5,3.2,3.3
	c0.6-0.8,1.3-1.5,2.1-2.1c-1.4-0.8-2.6-2-3.4-3.4c1.7-2.4,3.1-5.1,4-7.9L304.3,135.4L304.3,135.4z M311,133.5h2.5l0.2-1.1h2.6
	l0.4-2.1H314l0.2-1.2h-2.5l-0.2,1.2h-3.9l-0.4,2.1h3.9L311,133.5z M313.1,143.9h1.2l-0.2,1.1h-1.2L313.1,143.9z M315.2,138.7l-0.2,1
	h-1.2l0.2-1H315.2z M316.3,141.2l-0.2,1.2h-2.7l0.2-1.2H316.3L316.3,141.2z M321.7,133.3h0.3l0.2-0.9h1.6l-1.4,0.9
	c0.3,0.3,0.6,0.6,0.9,0.9h-1.8L321.7,133.3z M322.6,137.1c-0.5,1.3-1,2.6-1.7,3.8c0-1.3,0.2-2.9,0.4-4.6h4.3l0.4-2.1h-1l0.7-0.5
	c-0.3-0.5-0.8-1-1.3-1.4h1.7l0.4-2.1h-3.8l0.2-1.2h-2.5l-0.2,1.2h-2.7l-0.4,2.1h2.7l-0.1,0.6h-0.1l-0.2,1.2h-9.1l-0.6,3.4h-1.1
	l0.6-3.2h-1.8l-0.9,5.2h3l-0.1,0.9l-0.1,0.4h-3.8l-0.4,2h1l-0.1,0.5c-0.2,1.6-0.9,3.2-2,4.4c0.5,0.3,0.9,0.6,1.2,1
	c1.3-1.5,2.2-3.3,2.5-5.3l0.1-0.6h1c-0.3,1.7-1,3.4-2,4.9c0.6,0.3,1.2,0.6,1.7,1c1.6-2.2,2.4-5.7,2.8-8.3l0.7-4.2h7.1
	c-0.3,2.6-0.4,5.1-0.3,7.7c-0.5,0.6-1,1.1-1.5,1.6l0.1-0.6h-1.7l0.2-1.1h1.6l0.7-4.2h-1.6l0.2-1h1.5l0.3-1.6h-6.1l-1.7,9.4h1.8l0,0
	h3.6c-0.4,0.3-0.8,0.6-1.2,0.8c0.6,0.4,1.1,0.9,1.6,1.5c1-0.7,1.8-1.4,2.6-2.3c0.4,1.4,1.1,2.2,2.1,2.2c1.5,0,2.3-0.6,3.1-3.8
	c-0.6-0.2-1.1-0.6-1.5-1.1c-0.4,2-0.8,2.7-1.1,2.7c-0.4,0-0.7-0.7-0.9-2.1c1.6-2.2,2.8-4.6,3.8-7.1L322.6,137.1z M347.8,132.6h-6.7
	l2.3-0.6c-0.1-1.1-0.3-2.1-0.5-3.2l-2.5,0.6c0.2,1.1,0.3,2.2,0.4,3.3h-4.7l-0.4,2.4h11.7L347.8,132.6z M339.1,144.3
	c0.2-2.9,0.2-5.7,0-8.6l-2.3,0.5c0.1,2.9,0,5.8-0.3,8.7L339.1,144.3z M334.3,140.4l0.1-2.3l-1.9,0.4l0.6-3.2h2l0.4-2.3h-2l0.7-4
	h-2.5l-0.7,4h-2.3l-0.4,2.3h2.3l-0.7,3.8c-1,0.2-1.9,0.4-2.7,0.6l0.2,2.4l2.1-0.5l-0.8,4.5c0,0.2-0.1,0.4-0.3,0.4c0,0,0,0-0.1,0
	c-0.3,0-1,0-1.7,0c0.2,0.7,0.3,1.5,0.3,2.3c1,0.1,2.1-0.1,3-0.5c0.8-0.4,1.2-1.3,1.2-2.1l0.9-5.1L334.3,140.4z M342.3,145.6
	c1.2-2.6,2.6-6.3,3.7-9.5l-2.6-0.4c-0.9,3.4-2.1,6.7-3.4,9.9h-7.1l-0.4,2.4h13.1l0.4-2.4H342.3L342.3,145.6z M350.7,141.7h2l1.8-7.8
	l0.6-2.9H352l-0.4,2.9L350.7,141.7z M350.7,147.3c1.2,0,2.1-0.9,2.3-2c0.2-0.9-0.3-1.7-1.1-2c-0.2,0-0.3-0.1-0.5-0.1
	c-1.1,0-2.1,0.9-2.3,2c-0.2,0.8,0.2,1.7,1.1,2C350.4,147.3,350.6,147.3,350.7,147.3L350.7,147.3z"/>
<g>
	<g>
		<defs>
			<rect id="SVGID_1_" x="361.2" y="35" width="231" height="138"/>
		</defs>
		<clipPath id="SVGID_2_">
			<use xlink:href="#SVGID_1_"  style="overflow:visible;"/>
		</clipPath>
		<g class="st4">
			<g>
				<path class="st5" d="M469,99.2c0.8-1.3,5.9-3.2,6-1.9C474.3,97.1,470.3,98.1,469,99.2z"/>
				<path class="st5" d="M460.7,103.3c-0.5-0.1-0.8-1.3-0.4-2.7c0.3-1.4,1-2.5,1.4-2.4c0.5,0.1,0.8,1.3,0.4,2.7
					C461.9,102.4,461.2,103.4,460.7,103.3z"/>
				<path class="st5" d="M454.5,102.5c-0.4-0.1-0.6-1.2-0.3-2.5c0.2-1.3,0.9-2.2,1.3-2.2c0.4,0.1,0.6,1.2,0.3,2.5
					S455,102.6,454.5,102.5z"/>
				<path class="st5" d="M511.4,230.5c-0.8-1.1-3-2.7-4.5-2.9C508.6,227.2,511.9,229.6,511.4,230.5z"/>
				<path class="st6" d="M426.6,118c0.6,0.3,1.3,0.9,1.9,1.6c0.8-0.5,1.5-1.1,2.3-1.3c-0.6-0.7-1.3-1.2-2.1-1.8
					C428.2,116.8,427.5,117.3,426.6,118z"/>
				<path class="st5" d="M428.5,116.3L428.5,116.3L428.5,116.3L428.5,116.3z"/>
				<path class="st6" d="M431,122.4c0.6,0.9,1.3,1.8,1.7,2.5c0.5-0.7,1.4-1.3,2.1-1.5c-0.3-0.7-1-1.5-1.6-2.5
					C432.4,121.3,431.7,121.8,431,122.4z"/>
				<path class="st6" d="M432.9,120.5c-0.5-0.7-1.2-1.4-1.8-2.1c-0.6,0.3-1.4,0.9-2.2,1.4c0.6,0.7,1.3,1.4,1.9,2.2
					C431.3,121.6,432.1,121.1,432.9,120.5z"/>
				<path class="st6" d="M434.9,123.3c0.1,0,0.2,0,0.3,0l1.2-4.1c-0.6,0.2-1.8,0.8-3.1,1.5C434,121.7,434.6,122.6,434.9,123.3z"/>
				<path class="st6" d="M435,123.5c0,0.1,0.1,0.1,0.1,0.2l0.1-0.3C435.1,123.5,435.1,123.5,435,123.5z"/>
				<path class="st6" d="M434.9,123.6c-0.5,0.3-1.3,0.9-2.1,1.5c0.4,0.8,0.8,1.4,0.9,2c0.1,0,0.1-0.1,0.2-0.1
					c0.1-0.1,0.2-0.2,0.3-0.4l0.8-2.6C435,123.8,434.9,123.7,434.9,123.6z"/>
				<path class="st6" d="M432.6,125.3c-0.1,0.1-0.2,0.2-0.3,0.3c0.5,0.5,1,1.2,1.2,1.5c0.1,0,0.1-0.1,0.2-0.1
					C433.5,126.8,433.1,126.1,432.6,125.3z"/>
				<path class="st6" d="M432.5,125.2c-0.4-0.8-1.1-1.6-1.8-2.6c-0.5,0.4-1,0.9-1.5,1.4c1.1,0.2,2.3,1,3,1.6
					C432.3,125.4,432.4,125.3,432.5,125.2z"/>
				<path class="st6" d="M430.5,122.3c-0.5-0.8-1.3-1.5-1.9-2.3c-0.8,0.5-1.5,1.2-2.3,1.9c0.5,0.7,1,1.3,1.2,1.9
					c0.5,0,1.1,0.1,1.5,0.2C429.3,123.5,429.8,122.9,430.5,122.3z"/>
				<path class="st6" d="M428.2,119.8c-0.5-0.5-1.2-1.1-1.9-1.6c-0.8,0.5-1.5,1.2-2.1,1.8c0.5,0.4,1.2,1.1,1.7,1.8
					C426.7,121.1,427.5,120.4,428.2,119.8z"/>
				<path class="st6" d="M426.1,122.2c-0.6,0.5-1.2,1.2-1.7,2c0.9-0.2,1.8-0.3,3-0.3C427,123.3,426.6,122.7,426.1,122.2z"/>
				<path class="st6" d="M425.8,121.9c-0.5-0.7-1.1-1.3-1.7-1.8c-0.2,0.2-0.4,0.4-0.5,0.7l0.1,3.5c0.1,0,0.2-0.1,0.3-0.1
					C424.3,123.6,425,122.7,425.8,121.9z"/>
				<path class="st6" d="M424,120c-0.1-0.1-0.3-0.2-0.4-0.4v1C423.7,120.4,423.8,120.2,424,120z"/>
				<path class="st6" d="M424.1,119.8c0.5-0.5,1.3-1.3,2.1-1.9c-0.1,0-0.1-0.1-0.2-0.1c-0.8,0.2-1.4,0.3-2.1,0.3c-0.1,0-0.3,0-0.4,0
					v1.3C423.7,119.5,423.9,119.6,424.1,119.8z"/>
				<path class="st6" d="M426.3,117.9c0.2-0.1,0.4-0.3,0.6-0.4c-0.3,0.1-0.5,0.2-0.9,0.3C426.2,117.8,426.2,117.8,426.3,117.9z"/>
				<path class="st6" d="M428.7,116.2c0.1-0.1,0.2-0.1,0.3-0.1L429,116C428.9,116,428.9,116.1,428.7,116.2L428.7,116.2z"/>
				<path class="st6" d="M429,116.3c0.6,0.5,1.4,1.1,2.1,1.8c0.4-0.2,0.9-0.3,1.2-0.3c-1-0.2-1.9-0.8-3-1.6
					C429.2,116.2,429.1,116.3,429,116.3z"/>
				<path class="st6" d="M431.2,118.3c0.6,0.7,1.3,1.4,1.8,2.1c1.3-0.8,2.6-1.4,3.5-1.4l0.8-2.6c-1,0.8-2.3,1.5-4.4,1.5
					c-0.2,0-0.3,0-0.5,0S431.7,118.1,431.2,118.3z"/>
				<path class="st7" d="M462.2,130.9c0.5-3.5,2.6-8.8,5.4-9.1c-0.2,0.1-0.8,0.4-1.5,1.3c0.5,0.3,1.3,1.1,1.7,1.8
					c0.2-0.8,0.3-1.5,0.4-2.3c0.2-1,0.3-2,0.4-3c-1.3-1.8-2.7-2.3-4-1.9c-4.1,1.3-7.6,12-7.7,14.8c-0.5-2.9,1.5-8.8,4.2-12.4
					c-4,0.7-7,5.8-8.9,13.5c-0.4,1.6-1.1,5.1-1.1,8.9c-0.1,4.3,1.2,9.6,3,11.5c3.5,3.8,8.2,1.1,8.4-3.8
					C462.9,143.4,460.9,139.5,462.2,130.9z"/>
				<path class="st5" d="M455.2,123.9c0.2-0.2,0.3-0.4,0.5-0.8c0-1.8-1.3-8.1-3.7-11.8c2.3,2.1,4.1,8.7,4.1,11.3
					c0.3-0.4,0.8-0.9,1.2-1.2c0-1.4-0.8-7.8-4-11.1c-0.2-0.1-0.4-0.2-0.5-0.4c-1.2,0.2-2.5,0-3.6-0.7
					C453.3,115.1,454.5,121.3,455.2,123.9z"/>
				<path class="st8" d="M448.9,109.2c-1.5-0.9-2.7-2.4-2.9-4.1c-0.3-0.1-1.2-0.2-2.4-0.3c0.8,2.3,2.9,4.9,5.1,7.9
					c2.2,3,4.4,6.2,5.7,9.2C453.6,119,452.1,113.9,448.9,109.2z"/>
				<path class="st8" d="M443.6,101.7c-0.3,0.8-0.3,1.6-0.1,2.5c1.1,0.1,2.1,0.2,2.5,0.3c0-0.8,0.3-1.5,0.9-2.1
					c0.3-0.3,0.8-0.7,1.3-0.9c-0.2-0.3-0.8-1-1.4-1.8C445.3,100.1,444,100.6,443.6,101.7z"/>
				<path class="st8" d="M447.3,100c0.5,0.7,1,1.2,1.2,1.6c0.6-0.2,1.4-0.3,2.2-0.2C449.9,100.4,448.6,100,447.3,100z"/>
				<path class="st5" d="M451,101.7c-1.4-0.2-2.9,0.2-3.8,1.1c-2.4,2.4,1.5,6.8,5.2,6.7c-0.2-0.3-0.4-0.8-0.5-1.2
					c0.2,0.3,1.5,2.2,5.1,2.4c2.1,0.1,3.8-0.3,5.5-1.4c2.8,0.2,5.7,0.5,8.4,1c-0.6,2.3-1.1,5.4-1.4,7.8c-0.2,1.4-0.4,3-0.6,4.5
					c-0.8,4.5-2.4,10.3-5.9,12.5c0,0.9,0,1.9,0,2.7h0.1c3.3-1.3,5.4-6.6,7.1-11.5c-0.1,1.9-1.8,9-5.4,11.5c1.5-0.1,3-0.7,4.4-1.3
					c2.4-2.5,3.8-9.6,5.1-16c0.6-3.5,1.4-6.8,2.3-9.5c-5.1-1.3-12.1-2.5-20.1-2.3c-1.2,0-0.8-0.4,0.1-0.4c2.5-0.1,4.9,0,7.2,0.2
					c0.3-0.3,0.6-0.5,1-0.8c-1.1-0.1-1.9-0.7-2.3-1.4c-0.2-0.5-0.2-1-0.1-1.5c-0.4,0.2-1,0.3-1.4,0.5c0,0.2,0.1,0.4,0.1,0.7
					c-0.1-0.2-0.1-0.4-0.2-0.5c-1.3,0.5-2.6,1.1-3.8,1.8c-0.6,0.3-1-0.1,0.2-0.7c1-0.4,2.1-1,3.3-1.5c-0.5-0.8-1.4-1.4-2.4-1.6
					c-1.1-0.3-2.3-0.2-3.2,0.4c1.1,0.3,1.8,0.9,1.8,1.3c0,1-2.5,1.5-3.9,2c-0.5,0.1-0.8,0.5-0.9,0.5c-0.6-0.1-3-2.2-2.9-3.3
					c0.1-1.2,2.4-1.3,4.4-0.9C452.9,102.4,452.1,101.9,451,101.7z"/>
				<path class="st5" d="M476.5,110.4c0.6-2.1,1.4-3.7,2.3-4.7c-1.9-0.1-3.9,0-5.5,0.2c-0.9,0.7-1.6,1.8-2.2,3.4
					C473,109.6,474.7,110,476.5,110.4z"/>
				<path class="st9" d="M464,85.6c-0.6,0.5-2.3,3.1-2.8,5.1c0,0,0.9-5.4-0.1-3.2c-0.3,0.7-1,2.6-1.2,4.1v-0.1
					c-0.6,3.8-2.5,9-3.7,11c0.6-0.1,1.3-0.1,2.1,0.1c0.2,0.1,0.4,0.1,0.5,0.2c-0.2-3.5,2.1-9.3,5.3-13.4c0.5-0.8,1.1-1.3,1.6-1.8
					c0-0.2,0-0.3-0.1-0.3s-1,0.1-3.2,3.4C461.1,92.4,465.3,84.5,464,85.6z"/>
				<path class="st10" d="M457.1,98c0-1.2-0.5-2.1-1.2-2.2c-0.6-0.1-1.5,0.4-2.2,2.4c-0.5,1.4-0.6,3.4-0.4,4.3
					c0.2,0.2,0.5,0.5,0.8,1c0.1,0,0.1,0,0.2,0c0.4-0.3,1-0.7,1.5-0.9c0.2-0.2,0.3-0.7,0.5-1.1C456.7,100.6,457.1,99.2,457.1,98z"/>
				<path class="st11" d="M464.3,89.6c-1.7,2.2-3.1,4.8-4.1,7.3c0.3-0.5,0.6-0.9,1-1.2c1.1-0.8,3.2-0.4,2.6,4.2
					c-0.2,1.8-0.8,2.9-1.2,3.5c0.5-0.7,1.3-1.3,2.2-2c4.5-6.7,6-15.2,3.6-14.9C467.4,86.7,465.9,87.6,464.3,89.6z"/>
				<path class="st10" d="M463.6,100c0.5-4.4-1.4-4.9-2.6-3.6c-0.4,0.5-1,1.3-1.3,2.3c-0.4,1.6-0.6,3.1-0.5,4.3
					c0.5,0.3,0.9,0.8,1.2,1.2c0.6-0.4,1.4-0.4,1.8-0.4C462.5,103.4,463.3,102.2,463.6,100z"/>
				<path class="st5" d="M460.4,104.4c0.1,0.1,0.1,0.2,0.2,0.4c0.5-0.2,1.2-0.4,1.7-0.7l0,0C461.9,103.9,461.1,104,460.4,104.4z"/>
				<path class="st5" d="M462.4,103.8L462.4,103.8C462.4,103.8,462.4,103.7,462.4,103.8C462.4,103.7,462.4,103.8,462.4,103.8z"/>
				<path class="st5" d="M449.5,103.9c-0.2,1.2,3.3,1.4,3.5,0.4C453,103.1,449.7,102.8,449.5,103.9z"/>
				<path class="st11" d="M452.5,101.7c0.2,0.1,0.3,0.2,0.5,0.3c-0.1-1,0-2.7,0.4-4.1c0.6-1.8,1.5-2.7,2.5-2.5
					c0.8,0.1,1.4,1.1,1.4,2.4c0,0.5-0.1,1.1-0.2,1.6c1.5-3.8,3.2-9.8,2.6-11.8c-0.4-1.4-2.2,0.1-3.1,1.2
					C453.4,92.9,452.4,98.2,452.5,101.7z"/>
				<path class="st8" d="M473.2,79.4c2.1,1.2,4.2,2.7,5.8,4.7c-1-1.6-2.7-4-5.3-6.4C473.7,78.3,473.5,78.9,473.2,79.4z"/>
				<path class="st8" d="M473.3,68.6c0.5,2.2,1,5.4,0.6,8.1c2.4,1.8,4.4,3.6,5.8,5.4C479.4,79.8,477.8,74.2,473.3,68.6z"/>
				<path class="st12" d="M501.9,101.5c1.2-3.5,1.8-7.7,2.3-11.4c0.1-0.5,0.1-1.1,0.2-1.6c0.5-3.8,1.2-6.4,2.3-8
					c-7.9,4.3-14.6,11.8-17.8,18.2c0.3,0.7,0.8,1.1,1.5,1.2c2.2,0.1,3.5-2.1,3.5-2.1c0.2,0.2,0.1,2.6-3.9,5.6c3-0.8,5.7,1.1,5.4,1.6
					c0,0-3.7-1-6.8,2.1c2.2-0.7,4.2-0.1,5.3,0.7c0.9,0.5,1,1.4,0.9,1.2c-1.3-1.4-5.9,1.8-6.7,3.8c0.4,0.3,0.9,0.5,1.3,0.8
					C495.5,112.4,499.8,107.5,501.9,101.5z"/>
				<path class="st8" d="M494.1,120.8c-2.4-3.3-5-5.6-9.1-6.3c2.1-0.4,4.1,0.4,5.8,1.9c1.2-0.1,3.3-0.7,4.4-1.5
					c-3.6,0.7-9.1-1.1-9.3-4.6c0.2,0.8,0.9,1.5,1.6,2.1c0.3-1.6,3.3-4.4,6.2-4.3c-3.3-1.8-6.3-0.2-6.3-0.2c0.2-0.9,1.8-3.5,6.4-3.7
					c-2.5-1.3-5.3-0.3-5.8,0.1c0.2-0.9,2.9-1.4,5-5.1c-1.6,1.4-3.6,1.5-4.4,0c-0.4,0.8-0.8,1.5-1,2.3c0-0.8,0.2-1.9,0.6-3.1l0,0l0,0
					c2.3-5.9,10.4-16,21.5-20.1c-5.6,0.9-18.9,5.9-26.7,14c0.6-1.1,1.5-2.1,2.4-3.1c-2.7-3.8-3.3-7.7-3.7-10.1c-0.1,3.6,1,8,1.3,8.9
					c-0.6-1-0.4-1-1.3-2.4c-0.3-0.4-0.6-1-1.1-1.5c-1.2-1.5-2.9-3.4-5.4-5.4c1.5,1.5,5.3,5.8,4.9,7.9c0-0.1-0.1-0.4-0.3-0.9
					c-2.3-3-7.7-6.4-10.7-8c1.3,0.9,2.4,1.8,3.3,2.4c0.6,0.2,1.3,0.8,1.6,1.4c2.6,2.3,3.3,3.6,3.2,4c-0.1-0.1-1.6-0.8-2.3-1.1
					c0.3,2.6-0.4,5.7-2.2,7.1c1.1-1.8,2.8-5.1,1.1-9.2c-0.2-0.4-1-1.5-1.9-1.9c-1.1-0.4-2.3,0.3-3.2,1.6c0.6-0.8,1.6-1.4,3-1.3
					c-0.4,0.2-1,0.8-1.1,1.1c1-0.7,2.8,0.2,3.1,1.4c-0.4-0.5-1.2-0.9-1.6-0.7c1,0.7,2.6,4.3-0.9,9.7c0.4-1,2.3-5.6,0.2-8.4
					c-1.5-2-3.1-1-4.1,0.8c0,0,0-0.3,0.2-0.9c-1.7,0-4.2,1.2-4.2,1.2c0-0.2-0.1-4.1-2.4-3.5c1.4,0.8,1.2,3.6,0.8,4.4
					c0-0.9-1.1-2.7-3.2-1.4c-1.3,0.9-2.5,2.7-3.3,5.1c0.2-0.3,0.5-0.7,0.9-1c0.6-0.8,1.2-1.2,1.7-1.5c1.7-1.1,2.4,0,2.2,0.4
					c0,0-0.1-0.1-0.3-0.3c0.3,0.4,0.4,1.1,0.3,2c0.3-1.3,0.9-2.7,1.4-2.5c0.3,0.1,0.4,0.9,0.2,1.9c1-2,2.3-3.4,2.6-3.5
					c0.6-0.2-0.3,2.4-1,3.8c0.8-1.1,2.3-2.2,2.5-1.5c0,0.1,0,0.1,0,0.2c1.2-1.1,2.1-1.3,2.7-1.3c-0.1-0.1-0.3-0.2-0.4-0.2
					c-0.2-0.1,1.2-1.2,1.8,0.9c1,2.9-1.1,9.1-4.5,14.3c3.8-2.3,9.6-3.7,11.8-2.4c-5.4-0.3-12.1,2.3-14.1,5.1
					c7.9-3,18.2-5.8,21.1-5.3c-2.4,0.1-12.8,2.5-21.4,5.8c-0.2,0.5-0.3,1.1-0.1,1.6c0.9,2,3.8,0.9,5.7,0.4c1.9-0.4,9.6-3,13.8-0.1
					c-1.2-0.3-2.3-0.4-3.3-0.5c-0.9,1-1.6,2.7-2.2,4.8c4.2,1.1,7.1,2.4,7.9,3.3c-1-0.5-3.8-1.8-8.1-2.9c-0.9,2.9-1.5,6.4-2.2,9.8
					c-1.2,6.3-2.6,12.5-4.7,15.4c4-2.3,7.1-6.3,7.9-7.7c1.2-4.9,4.4-11.1,9.1-10.2c0.3,0.1,0.6,0.2,1,0.3
					C488.9,118.1,491.4,118.4,494.1,120.8z"/>
				<path class="st8" d="M474.8,82.7c0.1,0.3,0.2,0.8,0.3,1.2c0.3,0.1,0.9,0.3,1.3,0.5C475.9,83.8,475.4,83.3,474.8,82.7z"/>
				<path class="st5" d="M539.9,84.2c-0.2,0-0.4,0.2-0.6,0.2c-2.4,3.2-5.9,9.3-7,19.5c-0.3-3.2,1.3-11.1,4.3-16.6
					c0-0.2,0-0.7,0.1-0.9c-2.1,3.4-3.9,5.5-5.5,11.8c-1.2,4.4-1.6,8.7-1.8,13.1c0.1-0.4,0.3-0.5,0.5-0.5c0.8,0.1,1.2,2.7,1.4,5.5
					c0.3-4.1,1-8.7,2.1-5.4c0.2,0.5,0.3,1.2,0.4,2.1c0.2-2.9,0.6-4.4,1.3-4.4c0.2,0,0.4,0.2,0.6,0.7c-0.2-1.9-0.3-3.8-0.4-5.8
					C534.9,93.5,537.8,86.8,539.9,84.2z"/>
				<path class="st8" d="M537,132.3c0.2-9.6-0.6-15.7-1.3-21.4c-0.3-1.2-0.8-2.1-1-2.1c-0.1,0-0.4,0.1-0.8,2.7
					c-0.1,1.2-0.3,7.1-0.3,7.1c-0.5,1.4,0.1-4.9-0.8-7.8c-0.6-1.9-1.1-1-1.6,8.2c0,0.5-0.1,0.3-0.2-0.4c-0.2-3-0.5-7.7-1.4-7.7
					c0,0-0.3-0.1-0.5,1.4c0,1.3-0.1,2.6-0.1,3.8c-0.1,3.8-0.2,7.8-0.6,11.9c-0.6,5.5-2.1,13-5.1,17.7c4.4,0.7,8.2,3,10.9,6.3
					C536.3,145.9,536.8,139.2,537,132.3z"/>
				<path class="st8" d="M531.2,189.4c3.3-7.3,6.5-15.9,6.5-23.4c0-6.5-2.5-12.2-8-15.9c-9.5-6.4-19.9-0.8-24.8,4.1
					c2.8,1.9,5.7,3.3,8.7,4.4c-4.5-0.7-9.2-3.3-12.7-6.2c-5.4-4.3-9.1-9.5-10.5-13.7c-0.3,2.2-0.6,4.7-1,7.7
					c-0.3,3.4-0.6,11.1-0.9,16.2c0.4,0.4,0.9,1,1.3,1.4c5.4,5.2,11.9,6.9,11.9,6.9c0,0.4-3.3,0.3-5.7-0.4c0.8,0.3,2.3,1.1,3.2,1.6
					c1.6,0.8,3.5,1.6,5.4,2.7c4.7,2.5,7.7,4.6,9.3,6.6c1.8,2.3,1.8,4.4,1.5,5.7c-0.3,1.2-0.9,2.1-1.3,2.5c2.4,4.9,1.9,15.8,1,23.2
					c0.1,0,0.2,0,0.4,0c0.4,0.2,0.6,1,0.8,2.4c0.3-1.5,0.8-2.5,1.3-2.7c1.2-0.5,1.2,2,1.1,3.8c0.4-1.3,1-2.3,1.5-2.7
					c1-0.7,1.6,0.2,1.7,1.4C523.7,205.9,528.3,195.7,531.2,189.4z"/>
				<path class="st5" d="M489.8,231.7c0.4,1.4,2.2,3.6,6.7,3.7c-0.8-0.7-1.2-1.5-1.4-2.4c-0.5-2.3,1.2-5.6,5.2-6.4
					c4.5-0.9,8.6,2.3,9,4.1c0,0-3.3-4.4-8.6-3.4c-2.2,0.4-3.6,1.3-4.3,2.7c-1.6,3.3,1.1,6.3,5.5,6.5c4.2,0.2,10.5-2.5,14.6-5.3
					c2.7-1.8,5.8-4.6,5.9-7.6c0.1-1.8-0.8-2.9-1-4.6c-0.2,0.9-0.3,1.4-0.5,2c-0.1-1,0.3-3.2,0.6-4.9c0-0.2,0.1-0.3,0.1-0.5
					c0-1.3-0.5-2.5-1.4-2c-0.8,0.5-1.8,2.7-2.2,5.7c0,0.1-0.2-0.1-0.1-0.4c0-0.2,0.8-7.5-0.4-6.5c-1.1,0.9-1.6,6.7-1.6,6.7
					s-0.1,0-0.1-0.2c0-0.1,0-0.3,0.1-1.9c0.1-0.8,0.1-1.5,0.1-2.3c0-1.1-0.2-1.9-0.6-2.1c-0.1,0-0.2,0-0.3,0.1
					c-0.5,4-1.2,6.9-1.6,7.3c0,0,0-0.2,0.1-0.5c-1.1,0.9-4.7,3.1-12.1,3.7c0.1,0.1,0.2,0.3,0.2,0.4c-0.9-0.9-3.8-1.5-6.5-0.9
					c-1.4,0.3-3.5,1-4.5,3.3c0.1-0.1,0.1-0.1,0.2-0.2c3-2.3,8.5-2.3,9.9-0.2c-2.3-1.5-6.8-1.1-9.4,0.9
					C490.3,227.9,489.1,229.4,489.8,231.7z"/>
				<path class="st5" d="M506.8,214.2c-1,1-5.1,2-8.1,2.1c-1.9,0-1.7-0.1-3.1-0.7c-2.7-1.2-8.9-3.5-11.6-1c4.2-1.8,8.5,0.4,9.4,2.4
					c-3.6-2.9-7.9-2.4-10.3-1c-2.2,1.3-3.2,3.4-2.9,5.3c0.1,0.7,0.5,1.3,1.2,1.8c0.1-1.9,1.5-3.6,4.4-4.7c3.8-1.3,7.2-0.1,8,1.9
					c-1.9-1.6-5.1-2.1-7.6-1.2c-2.1,0.8-3.6,2.2-3.9,3.6c-0.2,1,0,2,0.6,2.9c1,1.4,3.1,2.5,6,2.5c0.1-0.2,0.3-0.5,0.5-0.8
					c0.8-3.6,3.7-4.7,5.3-5.1c1.8-0.4,4.5-0.3,5.9,0.7c7.2-0.8,11.7-3.2,12.7-4.1c0.1-0.5,0.1-1.1,0.2-1.9c0-2.1-0.5-5.7-1.5-4.9
					c-0.9,0.7-1.3,5.2-1.6,6.8c0,0.1-0.1,0.3-0.1-0.1c0-0.2,0-0.7,0-1c0-2.1-0.2-5.3-0.9-5.7c-0.5-0.3-1.5,3.8-1.8,5.7
					c0,0.2-0.2-0.1-0.2-0.1c0.1-1.3,0.1-3.6-0.2-5.2c-0.1,2.5-0.4,4.7-0.8,4.9C506.8,216.7,506.8,215.6,506.8,214.2z"/>
				<path class="st8" d="M507.6,209.7c0,0.7,0,1.2,0,1.9c0.3,0.8,0.4,2.5,0.4,4.2c0.5-2.2,1.1-3.6,1.6-3.8c1.1-0.4,1.2,3.2,1.2,4.3
					c0.3-1.9,0.8-3.7,1.4-4.3c1.1-0.8,1.7,1.2,1.8,3.3c0.9-6.9,1.9-18.9-0.5-25.3c-2.8,0.7-7.8-0.7-9.8-1.3
					c-0.2-0.1-0.4-0.1-0.6-0.2C506.3,194.2,507.4,203.1,507.6,209.7z"/>
				<path class="st9" d="M502.9,187.3c5.5,1.8,9.8,2.1,10.9,2c0.4-0.4,1.1-1.5,1.3-3c0.2-1.6-0.2-3.2-1.4-4.7c-1.6-2-4.5-4-9.3-6.5
					c-9.8-5.2-9.9-5.3-9.9-5.6c1.1,0.5,4.4,1.2,6,1.2c-1.9-0.5-7.8-2.5-12.1-7.9c-0.1,2.6-0.1,4.4-0.1,4.4c-0.4,0-1.2-3-1.4-5.8
					c-0.5,5.5-0.9,11.3-1.1,15.9C491.6,182.5,497.7,185.7,502.9,187.3z"/>
				<path class="st5" d="M477,184.1c0,0.7,0.1,1.4,0.1,2.1c0.1,1.8,1.6,9.9,6.7,14.5c-0.3-0.1-0.6-0.3-1-0.5c2.1,6,7.3,7,8.6,6.8
					c-2.3-1.2-4.6-3.3-6.6-6c2.3,2,7.4,7.4,12.2,6.5c2.9-0.4,3-4.3,0.9-5.9c-0.1,0.1-0.2,0.1-0.3,0.1c-1.6,0.7-3.7,0.5-5.4-0.1
					c-1.6-0.7-3.9-3.4-3.7-4.3c0.2,0.4,1.3,2.3,3.1,3.3c2.5,1.4,7.4,1.1,9.1-2.7c0.2-0.7,0.5-1.8,0.1-3c-1.5-4.8-7.3-3.2-7.9-1.1
					c0.1,0.3,0.2,0.8,0.3,1.1c0.9,0.2,2.1,1.2,2.2,2.6c-0.3-0.7-1.3-1.8-2.2-2.3c0.2,1.1,0.3,2.2,0.1,3c0-0.1-1.7-10.9-9.7-13.1
					c0.5-0.1,1-0.1,1.5-0.1c-0.1-0.9-0.2-2-0.2-3c-0.2-1.4-0.5-2.9-1.1-3.4c-1.1-1-1.2,3.4-1.2,5.8c0,0-0.1,0-0.2-0.2
					c-0.2-1.3-0.6-5.5-1.6-6.5c-0.6-0.7-1.2,3.6-0.6,7.5c0,0-0.2-0.1-0.2-0.2c-0.4-1.5-1.2-7.5-2.1-6.5
					C477.1,179.1,476.9,181.9,477,184.1z"/>
				<path class="st9" d="M474.8,165.7c-0.1-2-0.2-4.1-0.3-6c-0.1-4.5-0.1-9.2,0.1-13.4c-0.8-3.5-2.6-5.4-3.2-4.6
					c-1,1.3-0.4,7.4,0.1,9.5c-0.1,0.3-0.9-1.1-1.4-2.3c-0.9-2.1-2.2-4.9-3.1-6.5c-0.8-1.2-1.1-1.1-1.2-1.1c-0.4,0.2-0.4,2.2,0,4
					c0.2,0.5,0.4,1.1,0.8,1.8C469,152.8,471.8,160.7,474.8,165.7z"/>
				<path class="st8" d="M448,163.9c2.2,2.5,3.5,4,6.7,4c-0.3,0.5-4.1,0.2-5,0c1.7,1.6,4.7,1.5,6.4,1.1c6.9-1.6,10.1-12.9,12.4-15.1
					c-0.6-1.9-1.3-3.6-1.9-5.3c-0.9-1.5-2.3-3.7-3.1-4.7c0.8,0.2,1.7,1.6,2.6,3.1c-0.1-0.2-0.1-0.3-0.2-0.5
					c-1.1-2.7-1.8-5.7-2.3-6.3c0.6,0.7,0.8,1.1,1.6,3.4c-0.1-0.9,0-1.6,0.1-2.1c0.3-1.2,1.2-0.5,1.9,0.5c1,1.4,1.7,3.3,3.8,8
					c-0.3-2.4-0.9-7.4,0.1-8.6c0.9-1.2,2.7,0.5,3.6,3.7c0.3-4.6,0.9-8.8,1.8-11.6c-0.4,4.6-1,10.3-1.2,14.8
					c-0.5,11.4,0.3,20.3,1.1,28.6c0.1,1.1,0.2,2.2,0.2,3.4c0.1-0.9,0.2-1.6,0.5-2c1.1-1.2,1.8,2,2.2,3.5c0-1.6,0.2-5.3,1.4-4.2
					c0.5,0.4,1.1,2.1,1.4,4c0.1-1.6,0.3-4.3,1.6-3.2c0.4,0.3,0.6,1,0.9,1.8c-0.1-9,1.6-21.4,1.9-22.6c0-0.3,0.1-0.5,0.1-0.8
					c-0.2,0.7,0.2,5.5,0.9,8.4c0-4.1,0-13.1,0.6-18.7c0.4-4,0.9-7,1.3-9.8c0.5-3.3,0.9-5.9,0.9-8.4c0-3.6-1.6-9-4.5-9
					c-3.9-0.1-7.2,5.7-9,13.1c0-0.7,0-1.4,0.2-2.2c-2.7,4.5-9.2,9.2-14,8.6c-0.1,0.1-0.3,0.1-0.4,0.1c0.2,4.6,0.9,8.8,0.9,11.2
					c-0.2,5.8-5.9,9.6-10,4.9c-0.8-0.9-1.4-2-1.9-3.1c-1.4-1.5-4.4-5.4-6.7-9.2c0.8,2.4,1.7,5.7,1,6.6c-0.5,0.5-2.3-2.4-2.6-3.1
					c0.6,1.9,1.4,4.5,1.1,5.4c-0.6,1.6-3.1-3-3.9-4.5c0.1,0.2,0.1,0.4,0.2,0.7c0.5,1.6,1.2,3.3,0.9,4c-0.3,0.7-1.3-0.2-2.1-1.4
					C441.4,154,444.6,160,448,163.9z"/>
				<path class="st5" d="M438.4,148c0.8,1.3,2.6,4.2,3,3.4c0.3-0.5-0.3-2.4-0.9-3.8c-0.2-0.5-0.4-1.2-0.5-1.6c0,0,0.1-0.3,0.1-0.2
					c0.6,1.2,3.6,6.9,4.1,5.6c0.5-1.2-1.7-7-1.7-7s0-0.4,0.1-0.3c0.1,0.2,0.1,0.4,0.6,1.3c0.4,0.8,2.5,4.4,2.8,3.5
					c0.4-1.2-0.8-4.9-1.6-7.4c-0.5-1-1-2-1.3-2.9c-0.4,1-1,1.8-1.5,2c2.2-3.5,1.5-10.3-0.4-13.8c-1-1.6-2.2-2.5-3.3-2.5
					c-1,0-1.4,0.7-2.1,1.8c-0.3,0.7-0.8,1.3-1.4,1.9c-0.6,0.5-1.4,0.9-2.1,1.2c-0.9,0.4-1.6,0.8-1.9,1.4c-0.4,1.1-0.1,2.2,0.3,2.9
					c0.9,1.4,2.6,2.5,4,2.6c1,0.1,2.3-0.7,3.3-1.8c1.5-1.6,2.5-4.4,2.3-6.5c1.7,2.4-1.4,9.3-5.8,9c-0.5,0-1.1-0.2-1.6-0.4
					c0,0.4-0.1,0.9-0.3,1.3c4.9-1.4,9.4,1.2,8.1,6c-0.4,1.4-1.2,2.4-2.6,3.3C437.9,147.2,438.1,147.5,438.4,148z"/>
				<path class="st5" d="M437.3,146.1c1.3-0.8,2.1-1.8,2.4-3c0.4-1.6,0.1-3-1-4c-1.4-1.3-4.2-2-6.7-1.2c0,0,0,0.1-0.1,0.1
					c0.6,1.3,0.8,2.6,0.2,4c-0.2,0.4-0.4,0.9-0.8,1.3c-0.1,0.8-0.4,2.2-0.8,4.1C431.9,147.5,435,147.5,437.3,146.1z"/>
				<path class="st6" d="M430.8,144c-0.9,0.8-1.9,1.1-3.2,1.3c0.1,0.1,0.3,0.3,0.5,0.4c0.9-0.4,1.7-0.5,2.4-0.3
					C430.6,144.8,430.7,144.4,430.8,144z"/>
				<path class="st6" d="M425.7,147.6c0.4,0.4,1,1,1.3,1.5c0.8-0.4,1.4-0.7,2.1-0.9c-0.3-0.8-0.8-1.5-1.2-2.2
					C427.2,146.4,426.5,146.9,425.7,147.6z"/>
				<path class="st6" d="M430.5,145.4c-0.4,0-1.2,0.2-2.2,0.5c0.4,0.7,0.9,1.4,1.2,2.3c0.1,0,0.2,0,0.3,0
					C430,147.2,430.3,146.3,430.5,145.4z"/>
				<path class="st6" d="M429.7,148.4c-0.1,0-0.1,0-0.2,0.1c0,0.1,0.1,0.3,0.1,0.4C429.6,148.7,429.7,148.6,429.7,148.4z"/>
				<path class="st6" d="M429.5,149.3c-0.1-0.2-0.2-0.4-0.3-0.8c-0.5,0.2-1.3,0.4-1.9,0.9c0.5,0.8,1,1.6,1.3,2.4
					c0.1,0,0.3-0.1,0.4-0.1C429.2,150.9,429.4,150.2,429.5,149.3z"/>
				<path class="st6" d="M429,151.9c-0.1,0-0.2,0.1-0.3,0.1c0.1,0.2,0.1,0.4,0.2,0.5C428.9,152.4,428.9,152.2,429,151.9z"/>
				<path class="st6" d="M425.3,155c0,0.8,0.1,1.3,0.4,1.8s0.8,0.7,1.1,0.7c0.3-0.1,1-0.4,1.4-2.4c0.1-0.7,0.3-1.3,0.4-2.1
					c-0.1-0.2-0.2-0.4-0.3-0.8c-0.5,0.2-1.3,0.5-2.1,1.1c0.5,1,1.1,2.1,1.2,3.1c-0.1-0.7-0.8-1.8-1.4-2.9c-0.3,0.2-0.5,0.5-0.9,0.8
					C425.3,154.6,425.3,154.9,425.3,155z"/>
				<path class="st6" d="M425.3,153.8c0.2-0.2,0.4-0.4,0.6-0.7c-0.2-0.4-0.5-0.8-0.8-1.2C425.2,152.7,425.3,153.4,425.3,153.8z"/>
				<path class="st6" d="M425.2,151.7c0.3,0.3,0.6,0.8,1,1.3c0.6-0.4,1.4-0.9,2.2-1c-0.3-0.7-0.9-1.5-1.4-2.3
					c-0.6,0.3-1.3,0.9-1.7,1.4C425.2,151.3,425.2,151.5,425.2,151.7z"/>
				<path class="st6" d="M425.2,150.8c0.3-0.5,1-1,1.6-1.4c-0.4-0.5-0.9-1.1-1.2-1.5c-0.1,0.1-0.3,0.3-0.4,0.5
					C425.1,149.1,425.2,150,425.2,150.8z"/>
				<path class="st6" d="M425.1,148.1c0.1-0.1,0.2-0.3,0.3-0.4c-0.1-0.1-0.2-0.2-0.3-0.3C425.1,147.5,425.1,147.9,425.1,148.1z"/>
				<path class="st6" d="M425.1,147c0.2,0.1,0.3,0.3,0.5,0.4c0.5-0.5,1.4-1.2,2.3-1.5c-0.1-0.2-0.3-0.4-0.4-0.5c-0.4,0-1,0-1.5,0
					c-0.3,0-0.6-0.1-1-0.1C425,145.6,425,146.2,425.1,147z"/>
				<path class="st5" d="M424.1,146.4c0-0.7,0-1.2-0.1-1.5c-1.8-0.5-3.3-1.5-3.3-3.4c0.3,1.4,2.9,2.7,5.2,3c2.6,0.2,4.5-0.9,5.4-2.9
					c0.5-1.2,0.3-2.7-0.5-3.8c-1.4-1.9-4.2-3-6.6-2.5c-3.5,0.5-5.5,2.4-5.6,4.8C418.6,142.4,420.4,145.2,424.1,146.4z"/>
				<path class="st5" d="M419.1,137c1.1-1.2,2.9-2.1,5.2-2.4c2.7-0.4,5.7,0.8,7.3,2.9c0,0,0,0.1,0.1,0.1c0.3-0.4,0.5-1.2,0.4-1.5
					c-1.7-1.1-3.1-3.2-2.8-5.1l0,0c-0.2-0.2-1.9-1-4.1-1.1c-1.5,0-3.7,0.3-5.4,2.1C418.7,133,418.2,135,419.1,137z"/>
				<path class="st5" d="M420.5,127.6c-0.6,1.2-0.6,2.5-0.5,3.1c1.8-1.3,3.9-1.6,5.4-1.6c1.8,0,3.5,0.4,4.3,0.9
					c0.6-1.2,1.9-1.8,3-2.2c-0.1-1-1.8-2.7-4.7-3.1C423.9,124.2,421.3,126.2,420.5,127.6z"/>
				<path class="st13" d="M415.4,115.8c0.6,0.4,0.3,2.2,2.3,3.5c1.8,1.2,4.1-0.7,5.3-0.7V118c-1.3-0.3-2.7-1.2-2.8-2.2
					c0.3,0.3,4,3.6,8.6-0.4c1.4-1.2,2.2-2.6,2.2-4.4c0.1-3-1.3-5.4-2.2-6.3c1.1,0.4,2.9,3.4,2.8,6.3c0,1.8-0.8,3.3-2.1,4.5
					c3.1,2.7,5.8,1.3,7.9,0.1c1.1-0.7,1.8-1.2,2.5-0.4c-0.6-0.1-1.2,0.2-1.7,0.7l-1.1,3.8l0,0c0.4,0.4,0.8,0.5,1.2,0.4
					c1.7-0.2,0.8-2.7,2.4-4.1c0.6-0.5,1.4-1,1.7-2.3c0.4-2,0-5.7-3.1-7.7c-0.1,0.1-0.1,0.2-0.2,0.3c-1.5,2.1-3.6,2-4.2,3
					c-0.1-0.4,0.3-1,1.6-1.8c1.8-1,2.7-2.5,2.9-4.2c0.9-6.4-2.8-11.5-9.3-12.4c-7.2-0.9-12.5,4.9-12.4,11.6c0.6-0.3,1.4-0.7,1.6-1.1
					c0.2-0.3-0.1-0.9-0.4-1.2c1,0,1.2,0.8,0.8,1.5c-1,2.2-6.3,2-6.4,5.3c0,0.9,0.2,1.8,0.2,2.5c0,0.9-0.8,1.9-1.1,3.1
					C411.6,115.1,414.4,115.2,415.4,115.8z"/>
				<path class="st5" d="M462.1,99.5c0.1-0.7-0.1-1.2-0.4-1.2c-0.3,0-0.6,0.4-0.8,1c-0.1,0.7,0.1,1.2,0.4,1.2
					C461.7,100.6,462,100.1,462.1,99.5z"/>
				<path class="st5" d="M455.7,99.1c0.1-0.5,0-1.1-0.3-1.1c-0.3-0.1-0.6,0.3-0.8,0.9c-0.1,0.5,0,1.1,0.3,1.1S455.6,99.6,455.7,99.1
					z"/>
			</g>
			<g>
				<path class="st14" d="M469,99.2c0.8-1.3,5.9-3.2,6-1.9C474.3,97.1,470.3,98.1,469,99.2z"/>
				<path class="st14" d="M460.3,100.5c-0.3,1.4-0.1,2.6,0.4,2.7c0.5,0.1,1.2-1,1.4-2.4c0.3-1.4,0.1-2.6-0.4-2.7
					C461.2,98,460.6,99.1,460.3,100.5z M460.9,99.3c0.1-0.7,0.4-1.1,0.8-1c0.3,0,0.5,0.7,0.4,1.2c-0.1,0.7-0.4,1.1-0.8,1
					C461,100.5,460.8,100,460.9,99.3z"/>
				<path class="st14" d="M454.5,102.5c0.4,0.1,1.1-0.9,1.3-2.2s0.1-2.4-0.3-2.5c-0.4-0.1-1.1,0.9-1.3,2.2
					C453.9,101.3,454,102.4,454.5,102.5z M454.8,98.9c0.1-0.5,0.4-1,0.8-0.9s0.4,0.5,0.3,1.1c-0.1,0.5-0.4,1-0.8,0.9
					C454.8,99.8,454.7,99.4,454.8,98.9z"/>
				<path class="st14" d="M511.4,230.5c-0.8-1.1-3-2.7-4.5-2.9C508.6,227.2,511.9,229.6,511.4,230.5z"/>
				<path class="st15" d="M413.1,116.1c0.9,0.4,1.9,0.4,2.2,0.7c0.1,0.1,0.3,2.4,1.8,3.4c2.3,1.4,4.1-0.4,5.7-0.7l0.1,5.1
					c-2.1,0.9-3,2.2-3.5,3.2c-0.6,1.4-0.5,2.9-0.3,3.6c0,0-0.1,0-0.1,0.1c-1.4,1.4-2.1,4-0.6,6.4c-0.4,0.7-0.6,1.4-0.6,2.3
					c-0.2,3.2,2.5,6.3,6.4,7.4c0.1,2.9,0.2,7,0.2,7.6c0,2.3,1.4,3.2,2.4,3.2c1.4,0,2.1-1.5,2.4-3c0.4-2.1,1-4.6,1.4-6.8
					c0.3,0.1,0.9,0.1,1.4,0.1c1.5,0,3.7-0.3,5.5-1.2c1.7,2.7,7.1,17.1,13.3,20.5c-0.6,0-2.6-0.3-3.3-0.7c-0.1,0,3.3,4.5,9.1,3.1
					c6.9-1.8,10.5-12.7,12.3-15.5c1.6,4.4,3.7,9.1,6.3,13c0.3,4.1,0.6,7.7,0.9,10.3c0.5,5.8-0.2,8.4,1.3,13.3c1,3.2,2.6,6.4,4.7,8.2
					c2.6,7.9,8.2,9.3,10.1,7.9c1.5,0.7,2.9,1,4.1,1c4.4-0.1,5.2-4.8,2.2-7.1c2.6-1.5,4.1-4.4,2.6-7.3c-2.5-4.7-7.6-3.2-8.4-0.8
					c-1.3-3.5-3.8-7.1-6.8-8c-0.1-1.4-0.1-3.7,0-6.6c5.6,5.3,11.7,7.9,16.2,9.5c4.1,7.9,4.9,18.8,4.9,25.6c-0.9,0.8-4.4,1.6-7.4,1.9
					c-2.5,0.2-2.3,0-3.7-0.8c-8.1-4.1-13-1.3-13.6,1c-2.1,1.5-3.1,3.8-2.7,5.8c0.2,1.1,1,2.1,2.2,2.7c0.1,0.7,0.4,1.2,0.8,1.9
					c0.8,1.1,2.7,3,6.4,3c-0.2,0.9-0.2,1.8,0.2,2.9c0.8,2.2,3.9,4.7,8.5,4.1c1.1,0.8,2.7,1.2,4.6,1.3c0.2,0,0.4,0,0.6,0
					c4.4,0,10.3-2.6,14.4-5.3c3-2,6.3-5.4,6.5-8.6c0.1-1.9-1.2-4.4-1.5-5.9c0.1-0.4,0.2-1,0.4-1.5c1.2-4.6,3.6-12.6,9.5-25.7
					c3.5-7.6,6.8-16.3,7-24.1c0.1-5.1-1.4-9.8-4.1-13.3c2.2-6.6,3.3-13.3,3.5-20.4c0.4-13.8-1.8-20.8-2.2-29
					c-0.2-5.4,0.2-13.4,3.8-19.2c-2.2,2.5-5.1,9.3-4.7,19.2c0.1,2,0.2,3.8,0.4,5.8c-0.2-0.4-0.4-0.7-0.6-0.7c-0.6,0-1.1,1.5-1.3,4.4
					c-0.1-0.9-0.2-1.5-0.4-2.1c-1.1-3.3-1.7,1.3-2.1,5.4c-0.2-2.7-0.6-5.4-1.4-5.5c-0.2,0-0.4,0.1-0.5,0.5c0.2-4.3,0.6-8.6,1.8-13.1
					c1.6-6.3,3.5-8.4,5.5-11.8c-2.7,2.1-5.6,8.8-6.4,11.5c-1.7,6.3-1.8,12.2-1.9,18.5c-0.1,3.8-0.2,7.8-0.6,11.8
					c-0.6,5.6-2.2,13.2-5.2,17.7c-2.9-0.2-5.9,0.2-9.2,1.5c-4.4,1.9-7.7,4.9-9,6.4c-5.9-4-11.1-9.7-13.7-16.6c0-0.1,0-0.3,0.1-0.4
					c0.5-3.4,0.9-6,0.9-8.5c0-3.5-1-7.3-2.9-9c1.7,0.2,4.4,1,6.9,3.6c0.2,0.2-0.8-1.9-1.5-3s-1.7-2.1-2.7-3c3.6,0.2,6.4-3.1,5.4-2.7
					c-1.5,0.5-3.9,0.5-6.3-0.2c3.7-0.7,6.8-2.4,9-5.1c4.3-5.5,5-12.2,5.7-18.6c0.1-0.5,0.1-1.1,0.2-1.6c0.5-4.5,1.6-7.6,3.3-9.1
					c0.6-0.3,1.4-0.7,2.1-0.9c3.5-1.3,0.5-1.3-3.2-0.5c-6.5,1.3-16.1,5.2-21.6,10.8c-1.6-2.7-2.6-5.4-3.1-7.5
					c-0.6-2.6-0.8-5.3-0.8-5.3c-0.3,0.3-1.1,5.1-0.1,9c-0.3-0.7-0.8-1.3-1.3-2c-1.4-9-6.8-15.9-8.4-16.9c-0.2-0.1,0,0.3,0.1,1.1
					c0.5,2,1.3,5.9,1.1,9.1c-0.5-0.4-1.2-0.9-1.8-1.2c-1.2-0.8-2.6-1.1-1.9-0.7c1.4,0.9,2.6,1.9,3.7,2.9c-0.1,0.7-0.2,1.3-0.4,2
					c-1.3-0.8-2.6-1.4-3.8-2c-2.2-1-2.9-0.8-2.5-0.7c1.6,0.8,3.3,1.9,5.1,3.3c-1.6-0.1-2.9,1.2-3.8,3.5c-0.9,0-2.8,0.3-3.9,1
					c0-0.8-0.2-2.1-1-2.7c-0.5-0.4-1.3-0.7-2.1-0.1c-0.3-0.1-0.8-0.1-1.3,0c0.5,0.2,0.8,0.7,0.9,0.9c-0.6-0.4-2.4,0.4-2.8,1.1
					c0.5-0.2,1.2,0.1,1.2,0.1c-1.8,1.5-2.9,3.1-3.9,6.8c-2.5,3.6-3.2,7.9-3.1,11.1c-0.1,0-0.2-0.1-0.3-0.1c-1.1-1.4-3-2.2-4.9-2.2
					c-3.2-3.6-9.3-9.2-11.8-9.3c4,2,8.5,6.5,11.1,9.3c-1.6,0.1-3,1-3.5,2.5c-0.2,0.8-0.2,1.6,0,2.5c-1,0-1.8,0-2.7,0
					c1-3.6,0-9-4.3-12.1c-4-2.9-9.6-3.1-13.5-0.3c-4.3,3.1-5.2,7.6-4.7,10.8c-1.2,0.4-2.7,0.9-3.7,1.9c-0.8,0.7-1.3,1.5-1.3,2.4
					c0,1,0.3,2,0.3,2.5c0,0.7-0.9,1.9-1.2,3.1C410.9,114.4,412,115.6,413.1,116.1z M442.7,104.7c0.3,1,0.8,2.1,1.4,3.1
					c1.4,2.4,3.3,4.7,4.2,5.8c2.6,3.5,5.5,7.1,6.5,10.9c-1.5,2.5-2.7,5.6-3.3,8.7c-0.6,2.7-2.1,10.4-0.3,16.6
					c-2.1-2.5-6.3-8.1-7.8-12.2c0.9-3,0.8-7.6-1.5-11.4c-1.2-2-2.6-3.1-4.2-3c-0.9,0-1.5,0.5-2.1,1.1l1.2-4.1c0.4,0.4,1,0.7,1.4,0.7
					c0.8,0,1.3-0.4,1.6-1.1c0.6-1.4-0.1-2.2,1.1-3c0.9-0.5,1.8-1.2,2.3-2.9c0.6-2.7-0.1-7.1-3.6-8.8c0.1-0.1,0.1-0.2,0.1-0.4
					C440.6,104.6,441.7,104.6,442.7,104.7z M423.6,119.6c0.1,0.1,0.3,0.2,0.4,0.4c-0.2,0.2-0.3,0.4-0.4,0.7V119.6z M423.5,118.1
					c0.1,0,0.3,0,0.4,0c0.6,0,1.3-0.1,2.1-0.3c0.1,0,0.1,0.1,0.2,0.1c-0.8,0.5-1.5,1.3-2.1,1.9c-0.2-0.1-0.4-0.3-0.5-0.3
					L423.5,118.1z M426.3,121.9c0.8-0.8,1.5-1.3,2.3-1.9c0.8,0.8,1.4,1.5,1.9,2.3c-0.6,0.5-1.2,1.2-1.4,1.6c-0.4-0.1-1-0.1-1.5-0.2
					C427.2,123.3,426.8,122.6,426.3,121.9z M427.3,123.8c-1.2,0-2.2,0.1-3,0.3c0.5-0.7,1.2-1.3,1.7-2
					C426.6,122.7,427,123.3,427.3,123.8z M430.5,133.3c-0.4-0.7-0.8-1.8-0.3-2.9c0.3-0.7,1.1-1.1,1.9-1.4c0.6-0.3,1.4-0.7,2.1-1.2
					c0.6-0.5,1.1-1.2,1.4-1.9c0.6-1,1.1-1.6,2.1-1.8c1.2-0.1,2.4,0.8,3.3,2.5c1.9,3.4,2.7,10.2,0.4,13.8c0.5-0.2,1.1-1,1.5-2
					c0.3,0.9,0.8,1.9,1.3,2.9c0.9,2.4,2.1,6.2,1.6,7.4c-0.3,0.9-2.4-2.7-2.8-3.5c-0.5-0.9-0.5-1.1-0.6-1.3c0-0.1-0.1,0.2-0.1,0.3
					c0,0,2.3,5.8,1.7,7c-0.5,1.3-3.5-4.4-4.1-5.6c0-0.1-0.1,0.2-0.1,0.2c0.1,0.4,0.3,1.1,0.5,1.6c0.5,1.4,1.1,3.3,0.9,3.8
					c-0.3,0.8-2.2-2.1-3-3.4c-0.2-0.4-0.4-0.8-0.5-1c1.4-0.9,2.3-1.9,2.6-3.3c1.3-4.8-3.2-7.6-8.1-6c0.2-0.4,0.3-0.9,0.3-1.3
					c0.5,0.2,1.1,0.4,1.6,0.4c4.4,0.3,7.6-6.6,5.8-9c0.2,2.1-0.8,4.8-2.3,6.5c-1.1,1.1-2.4,1.9-3.3,1.8
					C433.1,135.8,431.3,134.7,430.5,133.3z M430.8,118.2c-0.8,0.3-1.5,0.8-2.3,1.3c-0.6-0.7-1.4-1.2-1.9-1.6
					c0.9-0.7,1.7-1.2,2.2-1.5C429.5,117,430.2,117.5,430.8,118.2z M431,118.4c0.6,0.7,1.3,1.4,1.8,2.1c-0.8,0.4-1.5,1-2.1,1.5
					c-0.6-0.8-1.3-1.5-1.9-2.2C429.6,119.3,430.4,118.7,431,118.4z M433.1,120.8c0.8,1,1.3,1.9,1.6,2.5c-0.6,0.2-1.4,1-2.1,1.5
					c-0.5-0.9-1.1-1.8-1.7-2.5C431.7,121.8,432.4,121.3,433.1,120.8z M433.3,120.7c1.3-0.8,2.5-1.3,3.1-1.5l-1.2,4.1
					c-0.1,0-0.2,0-0.3,0C434.6,122.6,434,121.7,433.3,120.7z M435.1,123.7c0-0.1,0-0.1-0.1-0.2c0.1,0,0.1,0,0.2-0.1L435.1,123.7z
					 M434.3,126.7c-0.1,0.1-0.2,0.3-0.3,0.4c0,0-0.1,0.1-0.2,0.1c-0.2-0.5-0.5-1.2-0.9-2c0.6-0.7,1.5-1.2,2.1-1.5
					c0.1,0.1,0.1,0.2,0.2,0.3L434.3,126.7z M433.5,127.3c-0.2-0.4-0.5-1-1.2-1.5c0.1-0.1,0.2-0.2,0.3-0.3c0.4,0.8,0.9,1.4,1.1,1.8
					C433.6,127.2,433.5,127.2,433.5,127.3z M429.3,124c0.4-0.5,1-1,1.5-1.4c0.8,0.9,1.3,1.9,1.8,2.6c-0.1,0.1-0.2,0.3-0.3,0.4
					C431.6,125,430.4,124.2,429.3,124z M426.1,121.7c-0.5-0.7-1.2-1.3-1.7-1.8c0.6-0.7,1.4-1.2,2.1-1.8c0.6,0.5,1.3,1.1,1.9,1.6
					C427.5,120.4,426.7,121.1,426.1,121.7z M426.1,117.8c0.2-0.1,0.5-0.2,0.9-0.3c-0.2,0.1-0.4,0.3-0.6,0.4
					C426.2,117.8,426.2,117.8,426.1,117.8z M428.4,116.3C428.5,116.3,428.5,116.3,428.4,116.3C428.5,116.3,428.5,116.3,428.4,116.3
					C428.5,116.3,428.5,116.3,428.4,116.3z M428.7,116.1c0.1-0.1,0.2-0.1,0.2-0.2l0.1,0.1C429.1,116.1,429,116.1,428.7,116.1
					C428.7,116.2,428.7,116.2,428.7,116.1z M432.2,117.8c-0.3,0-0.8,0.1-1.2,0.3c-0.6-0.7-1.4-1.3-2.1-1.8c0.1,0,0.2-0.1,0.2-0.2
					C430.3,117.1,431.2,117.6,432.2,117.8z M432.9,117.9c2.2,0,3.5-0.8,4.4-1.5l-0.8,2.6c-0.9,0-2.2,0.5-3.5,1.4
					c-0.5-0.7-1.2-1.4-1.8-2.1c0.4-0.2,0.9-0.4,1.1-0.4S432.6,117.9,432.9,117.9z M462.9,137.8C462.8,137.8,462.8,137.8,462.9,137.8
					c-0.1-0.9-0.1-1.8-0.1-2.7c3.6-2.2,5.2-8,5.9-12.5c0.2-1.5,0.4-3.1,0.6-4.5c0.3-2.4,0.8-5.5,1.4-7.8c-2.7-0.4-5.5-0.8-8.4-1
					c-1.6,1.1-3.5,1.5-5.5,1.4c-3.6-0.1-4.9-2.1-5.1-2.4c0.1,0.4,0.3,0.9,0.5,1.2c-3.8,0.2-7.6-4.3-5.2-6.7c0.9-0.9,2.4-1.3,3.8-1.1
					c1.1,0.1,1.9,0.7,2.5,1.4c-2.1-0.4-4.2-0.3-4.4,0.9c-0.1,1.1,2.3,3.2,2.9,3.3c0,0,0.3-0.4,0.9-0.5c1.4-0.4,3.9-1,3.9-2
					c0-0.4-0.8-0.9-1.8-1.3c1-0.7,2.1-0.8,3.2-0.4c0.9,0.2,1.7,0.9,2.4,1.6c-1.2,0.5-2.4,1-3.3,1.5c-1.1,0.5-0.8,0.9-0.2,0.7
					c1.2-0.5,2.4-1.2,3.8-1.8c0.1,0.2,0.2,0.4,0.2,0.5c0-0.2,0-0.4-0.1-0.7c0.4-0.2,0.9-0.3,1.4-0.5c-0.1,0.5-0.1,1,0.1,1.5
					c0.3,0.8,1.2,1.3,2.3,1.4c-0.3,0.2-0.6,0.5-1,0.8c-2.4-0.2-4.7-0.2-7.2-0.2c-0.9,0-1.2,0.5-0.1,0.4c8-0.2,15,1,20.1,2.3
					c-0.9,2.6-1.5,5.9-2.3,9.5c-1.3,6.6-2.7,13.6-5.1,16c-1.4,0.8-2.9,1.2-4.4,1.3c3.6-2.6,5.3-9.7,5.4-11.5
					C468.2,131.3,466.1,136.5,462.9,137.8z M478.7,105.7c-0.9,1.1-1.6,2.7-2.3,4.7c-1.6-0.4-3.5-0.8-5.4-1.1
					c0.5-1.6,1.3-2.7,2.2-3.4C474.8,105.7,476.7,105.6,478.7,105.7z M462.6,103.5c0.4-0.7,1-1.8,1.2-3.5c0.5-4.7-1.5-4.9-2.6-4.2
					c-0.3,0.2-0.6,0.7-1,1.2c1-2.5,2.4-5.2,4.1-7.3c1.5-2,3.1-3,4.1-3.1c2.5-0.2,1.1,8.2-3.6,14.9
					C463.9,102.2,463.2,102.8,462.6,103.5z M465.7,87.6c-0.4,0.4-1,1-1.6,1.8c-3.2,4.1-5.5,9.8-5.3,13.4c-0.2-0.1-0.4-0.2-0.5-0.2
					c-0.6-0.2-1.3-0.2-2.1-0.1c1.2-2,3-7.1,3.7-11v0.1c0.3-1.4,0.9-3.3,1.2-4.1c1-2.1,0.1,3.2,0.1,3.2c0.6-2,2.3-4.5,2.8-5.1
					c1.3-1.2-2.9,6.8-1.7,5.1c2.3-3.2,3.1-3.4,3.2-3.4C465.7,87.3,465.7,87.5,465.7,87.6z M455.7,102.6c-0.5,0.2-1.1,0.4-1.5,0.9
					c-0.1,0-0.1,0-0.2,0c-0.2-0.3-0.4-0.7-0.8-1c-0.2-0.9-0.1-2.9,0.4-4.3c0.6-2,1.6-2.5,2.2-2.4c0.6,0.1,1.2,1,1.2,2.2
					c0,1.3-0.4,2.7-0.8,3.6C456.1,101.9,455.8,102.3,455.7,102.6z M462.3,104c-0.6,0.2-1.2,0.4-1.7,0.7c0-0.1-0.1-0.2-0.2-0.4
					C461.1,104,461.9,103.9,462.3,104L462.3,104z M459.2,102.9c-0.1-1.2,0.1-2.7,0.5-4.3c0.3-1,0.9-1.8,1.3-2.3
					c1.2-1.3,3.1-0.8,2.6,3.6c-0.2,2.2-1.1,3.4-1.4,3.8c-0.5,0-1.2,0-1.8,0.4C460.1,103.7,459.7,103.3,459.2,102.9z M462.5,103.7
					C462.4,103.7,462.4,103.8,462.5,103.7C462.4,103.8,462.4,103.8,462.5,103.7C462.4,103.8,462.4,103.7,462.5,103.7z M452.9,104.4
					c-0.1,1-3.7,0.8-3.5-0.4C449.7,102.8,453,103.1,452.9,104.4z M448.9,109.2c3.1,4.8,4.7,9.8,5.5,12.7c-1.3-3.1-3.6-6.3-5.7-9.2
					c-2.2-3-4.3-5.6-5.1-7.9c1.2,0.1,2.1,0.2,2.4,0.3C446.2,106.7,447.4,108.2,448.9,109.2z M455.2,123.9c-0.6-2.7-1.9-8.8-5.9-14.6
					c1.1,0.7,2.4,0.9,3.6,0.7c0.2,0.1,0.3,0.3,0.5,0.4c3.2,3.3,4,9.7,4,11.1c-0.4,0.3-0.8,0.8-1.2,1.2c-0.1-2.6-1.8-9.2-4.1-11.3
					c2.4,3.7,3.7,10.1,3.7,11.8C455.5,123.5,455.3,123.7,455.2,123.9z M462.5,150.1c-0.2,4.9-5,7.7-8.4,3.8c-1.7-2-3-7.3-3-11.5
					c0.1-3.8,0.8-7.3,1.1-8.9c1.8-7.7,5-13,8.9-13.5c-2.7,3.6-4.6,9.6-4.2,12.4c0.1-2.9,3.6-13.5,7.7-14.8c1.4-0.4,2.7,0.2,4,1.9
					c-0.1,1-0.3,2-0.4,3c-0.1,0.8-0.3,1.5-0.4,2.3c-0.4-0.7-1.1-1.4-1.7-1.8c0.8-0.8,1.3-1.2,1.5-1.3c-2.8,0.3-4.9,5.6-5.4,9.1
					C460.9,139.5,462.9,143.4,462.5,150.1z M446.7,100c0.6,0.8,1.2,1.4,1.4,1.8c-0.4,0.2-0.9,0.5-1.3,0.9c-0.5,0.5-0.9,1.3-0.9,2.1
					c-0.4-0.1-1.4-0.2-2.5-0.3c-0.2-0.9-0.2-1.8,0.1-2.5C444,100.6,445.3,100.1,446.7,100z M450.7,101.3c-0.8,0-1.5,0-2.2,0.2
					c-0.2-0.3-0.6-1-1.2-1.6C448.6,100,449.9,100.4,450.7,101.3z M456.6,89.1c1-1.1,2.7-2.6,3.1-1.2c0.6,2-1.1,7.9-2.6,11.8
					c0.1-0.5,0.2-1.1,0.2-1.6c0-1.3-0.5-2.3-1.4-2.4c-0.9-0.1-1.8,0.8-2.5,2.5c-0.4,1.3-0.6,3.1-0.4,4.1c-0.2-0.1-0.3-0.2-0.5-0.3
					C452.4,98.2,453.4,92.9,456.6,89.1z M474.8,82.7c0.5,0.5,1.1,1.1,1.6,1.8c-0.5-0.2-1-0.4-1.3-0.5C475.1,83.5,475,83,474.8,82.7z
					 M473.8,77.8c2.6,2.4,4.2,4.7,5.3,6.4c-1.6-1.9-3.7-3.4-5.8-4.7C473.5,78.9,473.7,78.3,473.8,77.8z M479.8,82.2
					c-1.5-1.8-3.6-3.6-5.8-5.4c0.3-2.7-0.1-5.9-0.6-8.1C477.8,74.2,479.4,79.8,479.8,82.2z M489.3,113.4c-0.4-0.2-1-0.4-1.3-0.8
					c0.8-2,5.4-5.3,6.7-3.8c0.2,0.2,0.1-0.7-0.9-1.2c-1.1-0.7-3.1-1.3-5.3-0.7c3.1-3.1,6.8-2.1,6.8-2.1c0.3-0.5-2.4-2.3-5.4-1.6
					c4-3,4-5.4,3.9-5.6c0,0-1.3,2.3-3.5,2.1c-0.6,0-1.2-0.4-1.5-1.2c3.2-6.5,9.9-14,17.8-18.2c-1.1,1.6-1.7,4.2-2.3,8
					c-0.1,0.5-0.1,1.1-0.2,1.6c-0.4,3.7-1.1,7.8-2.3,11.4C499.8,107.5,495.5,112.4,489.3,113.4z M487.6,118.4
					c-0.3-0.2-0.6-0.3-1-0.3c-4.5-0.8-7.9,5.3-9.1,10.2c-0.8,1.4-3.9,5.4-7.9,7.7c2.2-2.7,3.6-9.1,4.7-15.4c0.6-3.4,1.4-6.9,2.2-9.8
					c4.2,1.1,7.1,2.3,8.1,2.9c-0.8-1-3.8-2.2-7.9-3.3c0.6-2.1,1.4-3.8,2.2-4.8c1.1,0.1,2.2,0.3,3.3,0.5c-4.2-2.7-11.9-0.3-13.8,0.1
					s-4.9,1.5-5.7-0.4c-0.2-0.5-0.2-1.1,0.1-1.6c8.6-3.3,19-5.7,21.4-5.8c-2.8-0.5-13.2,2.2-21.1,5.3c2.1-2.7,8.7-5.4,14.1-5.1
					c-2.2-1.2-8,0.2-11.8,2.4c3.3-5.2,5.4-11.4,4.5-14.3c-0.6-2.1-2.1-1-1.8-0.9c0.1,0.1,0.3,0.1,0.4,0.2c-0.6,0-1.5,0.2-2.7,1.3
					c0-0.1,0-0.1,0-0.2c-0.1-0.7-1.7,0.5-2.5,1.5c0.6-1.4,1.7-4,1-3.8c-0.3,0.1-1.6,1.5-2.6,3.5c0.2-1,0.1-1.8-0.2-1.9
					c-0.5-0.2-1.1,1.3-1.4,2.5c0-0.9-0.1-1.6-0.3-2c0.2,0.1,0.3,0.3,0.3,0.3c0.3-0.4-0.4-1.6-2.2-0.4c-0.4,0.3-1.1,0.9-1.7,1.5
					c-0.3,0.3-0.5,0.7-0.9,1c0.9-2.3,2.1-4.2,3.3-5.1c2.2-1.4,3.3,0.5,3.2,1.4c0.3-0.9,0.5-3.6-0.8-4.4c2.3-0.7,2.4,3.3,2.4,3.5
					c0,0,2.5-1.2,4.2-1.2c-0.2,0.5-0.2,0.9-0.2,0.9c1-1.8,2.6-2.7,4.1-0.8c2.1,2.6,0.2,7.4-0.2,8.4c3.5-5.4,1.7-9,0.9-9.7
					c0.4-0.2,1.2,0.1,1.6,0.7c-0.3-1.2-2.2-2.1-3.1-1.4c0.1-0.3,0.6-0.8,1.1-1.1c-1.4-0.1-2.4,0.5-3,1.3c0.9-1.3,2.1-2,3.2-1.6
					c1,0.3,1.7,1.4,1.9,1.9c1.7,4.2,0.1,7.5-1.1,9.2c1.7-1.4,2.5-4.5,2.2-7.1c0.8,0.3,2.2,1,2.3,1.1c0.1-0.3-0.6-1.6-3.2-4
					c-0.4-0.7-1-1.1-1.6-1.4c-1-0.8-2.1-1.5-3.3-2.4c3,1.6,8.4,4.9,10.7,8c0.2,0.4,0.3,0.8,0.3,0.9c0.4-2.1-3.3-6.4-4.9-7.9
					c2.5,2,4.2,3.8,5.4,5.4c0.4,0.5,0.8,1.1,1.1,1.5c0.9,1.4,0.6,1.4,1.3,2.4c-0.3-0.9-1.4-5.4-1.3-8.9c0.3,2.4,1,6.3,3.7,10.1
					c-1,1-1.7,2-2.4,3.1c7.8-7.9,21.1-13.1,26.7-14c-11,4.2-19.1,14.3-21.5,20.1l0,0l0,0c-0.4,1.2-0.8,2.3-0.6,3.1
					c0.2-0.8,0.5-1.5,1-2.3c1,1.6,2.8,1.5,4.4,0c-2.1,3.6-4.7,4.2-5,5.1c0.5-0.4,3.2-1.4,5.8-0.1c-4.5,0.2-6,2.9-6.4,3.7
					c0,0,2.9-1.5,6.3,0.2c-2.8-0.1-5.7,2.6-6.2,4.3c-0.8-0.5-1.4-1.3-1.6-2.1c0.2,3.4,5.7,5.3,9.3,4.6c-1.1,0.9-3.2,1.4-4.4,1.5
					c-1.7-1.4-3.8-2.3-5.8-1.9c4.2,0.7,6.7,3.1,9.1,6.3C491.4,118.4,488.9,118.1,487.6,118.4z M534.2,152.3
					c-2.7-3.3-6.5-5.6-10.9-6.3c3-4.7,4.4-12.1,5.1-17.7c0.5-4.1,0.5-8,0.6-11.9c0-1.3,0.1-2.6,0.1-3.8c0.2-1.5,0.5-1.4,0.5-1.4
					c0.8,0.1,1.2,4.8,1.4,7.7c0,0.8,0.2,0.9,0.2,0.4c0.5-9.2,1-10.1,1.6-8.2c1,2.7,0.2,9.2,0.8,7.8c0,0,0.2-5.8,0.3-7.1
					c0.2-2.6,0.6-2.7,0.8-2.7c0.2,0,0.6,0.9,1,2.1c0.6,5.6,1.5,11.9,1.3,21.4C536.8,139.2,536.3,145.9,534.2,152.3z M521.8,215
					c-0.1-1.2-0.9-2.1-1.7-1.4c-0.5,0.4-1.1,1.4-1.5,2.7c0.1-1.9,0.1-4.4-1.1-3.8c-0.5,0.2-1,1.2-1.3,2.7c0-1.4-0.2-2.2-0.8-2.4
					c-0.1-0.1-0.3-0.1-0.4,0c1-7.4,1.4-18.1-1-23.2c0.4-0.4,1.1-1.4,1.3-2.5c0.3-1.3,0.3-3.4-1.5-5.7c-1.6-2-4.5-4.1-9.3-6.6
					c-1.9-1-3.8-1.9-5.4-2.7c-1-0.4-2.6-1.2-3.2-1.6c2.4,0.9,5.7,1,5.7,0.4c0,0-6.5-1.8-11.9-6.9c-0.4-0.4-1-1-1.3-1.4
					c0.2-5.1,0.4-12.7,0.9-16.2c0.3-3,0.6-5.5,1-7.7c1.4,4.3,5.1,9.5,10.5,13.7c3.6,2.7,8.2,5.5,12.7,6.2c-2.9-1.1-5.9-2.5-8.7-4.4
					c5-4.8,15.3-10.5,24.8-4.1c5.5,3.7,8,9.5,8,15.9c0,7.5-3.1,16.2-6.5,23.4C528.3,195.7,523.7,205.9,521.8,215z M491.5,227
					c2.6-2,7.1-2.5,9.4-0.9c-1.5-2.2-7-2.2-9.9,0.2c-0.1,0.1-0.1,0.1-0.2,0.2c1.1-2.2,3-3,4.5-3.3c2.7-0.7,5.6,0,6.5,0.9
					c-0.1-0.2-0.1-0.3-0.2-0.4c7.3-0.8,11-2.9,12.1-3.7c0,0.3-0.1,0.5-0.1,0.5c0.4-0.3,1.1-3.2,1.6-7.3c0.1-0.1,0.2-0.1,0.3-0.1
					c0.3,0.2,0.6,1,0.6,2.1c0,0.7,0,1.5-0.1,2.3c-0.1,1.5-0.1,1.8-0.1,1.9c0,0.1,0.1,0.2,0.1,0.2s0.5-5.8,1.6-6.7
					c1.3-1,0.4,6.3,0.4,6.5s0.1,0.4,0.1,0.4c0.3-3,1.4-5.2,2.2-5.7c0.9-0.7,1.4,0.5,1.4,2c0,0.2-0.1,0.3-0.1,0.5
					c-0.3,1.6-0.8,3.8-0.6,4.9c0.1-0.7,0.3-1.2,0.5-2c0.2,1.6,1,2.9,1,4.6c-0.1,3-3.2,5.8-5.9,7.6c-4.1,2.7-10.4,5.5-14.6,5.3
					c-4.4-0.2-7.1-3.2-5.5-6.5c0.6-1.3,2.2-2.3,4.3-2.7c5.3-1,8.6,3.3,8.6,3.4c-0.3-1.8-4.4-4.9-9-4.1c-4,0.8-5.8,4.1-5.2,6.4
					c0.2,0.9,0.6,1.6,1.4,2.4c-4.5-0.1-6.3-2.3-6.7-3.7C489.1,229.4,490.3,227.9,491.5,227z M506.8,214.2c0,1.3,0,2.4-0.1,3.3
					c0.3-0.1,0.6-2.4,0.8-4.9c0.3,1.4,0.2,3.8,0.2,5.2c0,0.1,0.1,0.4,0.2,0.1c0.3-1.9,1.4-6,1.8-5.7c0.6,0.4,0.9,3.5,0.9,5.7
					c0,0.3,0,0.8,0,1c0,0.4,0.1,0.2,0.1,0.1c0.3-1.8,0.8-6.2,1.6-6.8c1-0.7,1.4,3,1.5,4.9c-0.1,0.7-0.2,1.3-0.2,1.9
					c-1.2,0.9-5.6,3.3-12.7,4.1c-1.4-1-4.1-1.1-5.9-0.7c-1.5,0.3-4.5,1.4-5.3,5.1c-0.2,0.2-0.3,0.4-0.5,0.8c-2.9,0-5.1-1.2-6-2.5
					c-0.6-0.9-0.9-1.9-0.6-2.9c0.3-1.4,1.9-3,3.9-3.6c2.5-0.9,5.6-0.4,7.6,1.2c-0.8-1.9-4.2-3.2-8-1.9c-2.9,1-4.2,2.9-4.4,4.7
					c-0.6-0.4-1.1-1.1-1.2-1.8c-0.3-1.9,0.8-4,2.9-5.3c2.4-1.5,6.7-2,10.3,1c-0.9-2.1-5.2-4.2-9.4-2.4c2.7-2.5,8.7-0.2,11.6,1
					c1.4,0.5,1.2,0.8,3.1,0.7C501.7,216.2,505.8,215.2,506.8,214.2z M503.1,188.4c0.2,0.1,0.4,0.1,0.6,0.2c2.1,0.7,7,2,9.8,1.3
					c2.4,6.4,1.3,18.4,0.5,25.3c-0.1-2.1-0.8-4.1-1.8-3.3c-0.6,0.5-1.1,2.4-1.4,4.3c0-1.2-0.1-4.7-1.2-4.3c-0.5,0.2-1.1,1.5-1.6,3.8
					c0-1.6-0.1-3.4-0.4-4.2c0-0.7,0-1.2,0-1.9C507.4,203.1,506.3,194.2,503.1,188.4z M485.7,177.4c0.2-4.6,0.5-10.4,1.1-15.9
					c0.3,2.9,1,5.9,1.4,5.8c0,0,0.1-1.9,0.1-4.4c4.3,5.3,10.3,7.4,12.1,7.9c-1.6,0-5-0.7-6-1.2c0,0.3,0.1,0.4,9.9,5.6
					c4.6,2.4,7.7,4.5,9.3,6.5c1.2,1.5,1.6,3.2,1.4,4.7c-0.2,1.4-1,2.5-1.3,3c-1.1,0.1-5.4-0.2-10.9-2
					C497.7,185.7,491.6,182.5,485.7,177.4z M477.1,186.2c0-0.7-0.1-1.3-0.1-2.1c0-2.3,0.1-5.1,0.8-5.7c0.9-0.9,1.6,4.9,2.1,6.5
					c0,0.1,0.2,0.3,0.2,0.2c-0.5-3.8,0-8,0.6-7.5c1.1,1,1.4,5.2,1.6,6.5c0,0.1,0.1,0.2,0.2,0.2c0-2.3,0.1-6.7,1.2-5.8
					c0.5,0.4,0.9,1.9,1.1,3.4c0,1.1,0.1,2.1,0.2,3c-0.5-0.1-1,0-1.5,0.1c8,2.2,9.7,13,9.7,13.1c0.1-0.8,0.1-1.9-0.1-3
					c0.9,0.5,1.7,1.6,2.2,2.3c-0.1-1.4-1.3-2.5-2.2-2.6c-0.1-0.3-0.2-0.8-0.3-1.1c0.5-2.1,6.3-3.6,7.9,1.1c0.4,1.2,0.1,2.3-0.1,3
					c-1.5,4-6.6,4.2-9.1,2.7c-1.7-1-2.8-2.9-3.1-3.3c-0.2,0.9,2.1,3.6,3.7,4.3c1.7,0.7,3.8,0.8,5.4,0.1c0.1,0,0.2-0.1,0.3-0.1
					c2.2,1.6,2.1,5.4-0.9,5.9c-4.7,0.8-9.8-4.5-12.2-6.5c1.9,2.7,4.3,4.8,6.6,6c-1.3,0.2-6.6-0.8-8.6-6.8c0.3,0.2,0.6,0.4,1,0.5
					C478.7,196.1,477.2,188,477.1,186.2z M474.5,159.6c0.1,2.1,0.2,4.1,0.3,6c-3-4.9-5.8-12.9-8.3-18.8c-0.3-0.7-0.5-1.3-0.8-1.8
					c-0.4-1.8-0.4-3.6,0-4c0.1,0,0.4-0.1,1.2,1.1c1.1,1.5,2.3,4.4,3.1,6.5c0.5,1.2,1.3,2.5,1.4,2.3c-0.4-2.1-1-8.1-0.1-9.5
					c0.6-0.9,2.5,1.1,3.2,4.6C474.4,150.4,474.4,155,474.5,159.6z M448,163.9c-3.5-4-6.6-10-8.5-13.8c0.9,1.1,1.7,2.1,2.1,1.4
					c0.3-0.7-0.2-2.3-0.9-4c-0.1-0.2-0.1-0.4-0.2-0.7c0.8,1.5,3.2,6,3.9,4.5c0.3-0.9-0.4-3.5-1.1-5.4c0.3,0.7,2.2,3.6,2.6,3.1
					c0.8-0.8-0.2-4.2-1-6.6c2.3,3.8,5.3,7.7,6.7,9.2c0.4,1.1,1.1,2.2,1.9,3.1c4.1,4.6,9.8,0.9,10-4.9c0.1-2.4-0.5-6.6-0.9-11.2
					c0.1,0,0.3-0.1,0.4-0.1c4.9,0.7,11.3-4.1,14-8.6c-0.1,0.8-0.2,1.5-0.2,2.2c1.7-7.4,5-13.1,9-13.1c2.9,0,4.4,5.4,4.5,9
					c0,2.3-0.3,4.9-0.9,8.4c-0.4,2.7-0.9,5.8-1.3,9.8c-0.5,5.6-0.6,14.6-0.6,18.7c-0.6-2.7-1-7.6-0.9-8.4c-0.1,0.2-0.1,0.4-0.1,0.8
					c-0.3,1.2-2.1,13.6-1.9,22.6c-0.2-0.8-0.5-1.4-0.9-1.8c-1.3-1.1-1.5,1.4-1.6,3.2c-0.3-1.9-0.9-3.5-1.4-4
					c-1.2-1.1-1.4,2.6-1.4,4.2c-0.3-1.5-1.1-4.7-2.2-3.5c-0.3,0.3-0.4,1.1-0.5,2c-0.1-1.1-0.2-2.3-0.2-3.4
					c-0.8-8.1-1.6-17.1-1.1-28.6c0.2-4.5,0.8-10.2,1.2-14.8c-1,2.9-1.6,7-1.8,11.6c-1-3.2-2.7-4.8-3.6-3.7c-1,1.2-0.4,6.2-0.1,8.6
					c-2.1-4.7-2.9-6.7-3.8-8c-0.8-1.1-1.5-1.8-1.9-0.5c-0.1,0.5-0.2,1.3-0.1,2.1c-0.9-2.3-1.1-2.7-1.6-3.4c0.3,0.5,1.2,3.5,2.3,6.3
					c0.1,0.2,0.1,0.3,0.2,0.5c-0.8-1.3-1.8-2.9-2.6-3.1c0.9,1,2.3,3.2,3.1,4.7c0.6,1.6,1.2,3.4,1.9,5.3c-2.3,2.2-5.5,13.3-12.4,15.1
					c-1.6,0.4-4.5,0.5-6.4-1.1c0.9,0.2,4.7,0.7,5,0C451.5,167.9,450.1,166.4,448,163.9z M430.7,147.4c0.3-1.9,0.6-3.4,0.8-4.1
					c0.3-0.3,0.5-0.8,0.8-1.3c0.5-1.3,0.4-2.6-0.2-4c0,0,0-0.1,0.1-0.1c2.5-0.8,5.3-0.1,6.7,1.2c1,1,1.3,2.3,1,4
					c-0.3,1.2-1.1,2.3-2.4,3C435,147.5,431.9,147.5,430.7,147.4z M428.5,151.8c-0.3-0.8-0.8-1.6-1.3-2.4c0.8-0.4,1.4-0.7,1.9-0.9
					c0.1,0.2,0.2,0.5,0.3,0.8c-0.2,0.8-0.4,1.6-0.5,2.5C428.9,151.8,428.7,151.8,428.5,151.8z M429,151.9c-0.1,0.2-0.1,0.4-0.1,0.7
					c0-0.2-0.1-0.4-0.2-0.5C428.7,151.9,428.9,151.9,429,151.9z M428.3,146c1-0.3,1.7-0.5,2.2-0.5c-0.2,0.9-0.4,1.8-0.6,2.9
					c-0.1,0-0.2,0-0.3,0C429.2,147.4,428.7,146.7,428.3,146z M429.2,148.3c-0.6,0.1-1.3,0.4-2.1,0.9c-0.4-0.5-0.9-1.1-1.3-1.5
					c0.8-0.7,1.5-1.1,2.3-1.4C428.4,146.8,428.9,147.6,429.2,148.3z M429.7,148.4c0,0.2-0.1,0.3-0.1,0.5c0-0.1-0.1-0.3-0.1-0.4
					C429.6,148.4,429.7,148.4,429.7,148.4z M428.3,151.9c-0.8,0.2-1.5,0.5-2.2,1c-0.3-0.5-0.6-1-1-1.3c0-0.2,0-0.4,0-0.7
					c0.5-0.5,1.2-1,1.7-1.4C427.5,150.4,428,151.3,428.3,151.9z M425.9,153.1c-0.3,0.2-0.5,0.4-0.6,0.7c0-0.5,0-1.1-0.1-1.9
					C425.4,152.3,425.7,152.7,425.9,153.1z M425.2,150.8c0-0.8-0.1-1.6-0.1-2.4c0.1-0.2,0.3-0.3,0.4-0.5c0.4,0.4,0.9,1,1.2,1.5
					C426.2,149.7,425.5,150.3,425.2,150.8z M425.1,147.3c0.1,0.1,0.2,0.2,0.3,0.3c-0.1,0.1-0.2,0.3-0.3,0.4
					C425.1,147.9,425.1,147.5,425.1,147.3z M425,145.1c0.3,0.1,0.6,0.1,1,0.1c0.5,0,1,0,1.5,0c0.1,0.1,0.3,0.3,0.4,0.5
					c-0.9,0.4-1.6,1-2.3,1.5c-0.2-0.2-0.3-0.3-0.5-0.4C425,146.2,425,145.6,425,145.1z M427.6,145.2c1.3-0.1,2.4-0.5,3.2-1.3
					c-0.1,0.4-0.2,0.9-0.3,1.4c-0.6-0.2-1.5,0-2.4,0.3C427.9,145.6,427.7,145.3,427.6,145.2z M425.3,155c0-0.1,0-0.3,0-0.8
					c0.2-0.3,0.5-0.5,0.9-0.8c0.6,1.1,1.3,2.2,1.4,2.9c-0.1-0.9-0.5-2.1-1.2-3.1c0.8-0.5,1.5-0.9,2.1-1.1c0.1,0.3,0.2,0.5,0.3,0.8
					c-0.2,0.8-0.3,1.4-0.4,2.1c-0.4,2-1.2,2.3-1.4,2.4c-0.3,0.1-0.8-0.1-1.1-0.7C425.5,156.3,425.3,155.7,425.3,155z M418.7,140.2
					c0.1-2.4,2.2-4.3,5.6-4.8c2.4-0.3,5.2,0.7,6.6,2.5c0.9,1.2,1,2.6,0.5,3.8c-0.9,2-2.9,3.1-5.4,2.9c-2.3-0.2-4.9-1.5-5.2-3
					c0,1.9,1.5,2.9,3.3,3.4c0,0.3,0,0.8,0.1,1.5C420.4,145.2,418.6,142.4,418.7,140.2z M419.8,131.9c1.7-1.8,3.9-2.1,5.4-2.1
					c2.2,0,3.9,0.9,4.1,1.1l0,0c-0.4,2,1,4.1,2.8,5.1c0.1,0.3-0.1,1.1-0.4,1.5c0,0,0-0.1-0.1-0.1c-1.6-2.1-4.6-3.3-7.3-2.9
					c-2.3,0.3-4,1.2-5.2,2.4C418.2,135,418.7,133,419.8,131.9z M428,124.7c2.9,0.3,4.6,2.1,4.7,3.1c-1.2,0.5-2.4,1-3,2.2
					c-0.8-0.4-2.4-0.9-4.3-0.9c-1.4,0-3.6,0.2-5.4,1.6c-0.1-0.5-0.1-1.9,0.5-3.1C421.3,126.2,423.9,124.2,428,124.7z M423.7,124.2
					l-0.1-3.5c0.1-0.2,0.3-0.4,0.5-0.7c0.5,0.5,1.2,1.2,1.7,1.8c-0.9,0.9-1.5,1.6-1.8,2.3C423.9,124.2,423.8,124.2,423.7,124.2z
					 M412.2,112.6c0.3-1.1,1.1-2.1,1.1-3.1c0-0.8-0.2-1.6-0.2-2.5c0.1-3.4,5.4-3.2,6.4-5.3c0.3-0.8,0.2-1.5-0.8-1.5
					c0.3,0.3,0.6,0.9,0.4,1.2c-0.2,0.4-1,0.9-1.6,1.1c-0.1-6.7,5.2-12.5,12.4-11.6c6.5,0.8,10,6,9.3,12.4c-0.2,1.6-1.1,3.2-2.9,4.2
					c-1.3,0.7-1.7,1.3-1.6,1.8c0.6-1,2.7-1,4.2-3c0.1-0.1,0.1-0.2,0.2-0.3c3.2,2,3.6,5.7,3.1,7.7c-0.3,1.3-1.1,1.8-1.7,2.3
					c-1.5,1.3-0.6,3.8-2.4,4.1c-0.4,0-0.8,0-1.2-0.4l0,0l1.1-3.8c0.5-0.4,1.1-0.7,1.7-0.7c-0.6-0.8-1.4-0.2-2.5,0.4
					c-2.1,1.2-4.7,2.6-7.9-0.1c1.3-1.3,1.9-2.9,2.1-4.5c0.1-2.9-1.7-5.9-2.8-6.3c0.9,0.9,2.2,3.3,2.2,6.3c0,1.6-0.8,3.2-2.2,4.4
					c-4.6,4.1-8.2,0.9-8.6,0.4c0.1,1,1.5,1.9,2.8,2.2v0.7c-1.2,0-3.5,1.8-5.3,0.7c-1.9-1.2-1.6-3-2.3-3.5
					C414.4,115.2,411.6,115.1,412.2,112.6z"/>
				<path class="st14" d="M541.7,81.9c-0.1,0-7.7,6.2-9.5,22.1C531.7,99.2,535.4,84.2,541.7,81.9z"/>
			</g>
		</g>
	</g>
</g>
</svg>
