<?xml version="1.0" encoding="utf-8"?>
<!-- Generator: Adobe Illustrator 26.1.0, SVG Export Plug-In . SVG Version: 6.00 Build 0)  -->
<svg version="1.1" id="圖層_1" xmlns="http://www.w3.org/2000/svg" xmlns:xlink="http://www.w3.org/1999/xlink" x="0px" y="0px"
	 viewBox="0 0 988.5 509.9" style="enable-background:new 0 0 988.5 509.9;" xml:space="preserve">
<style type="text/css">
	.st0{fill:#FFFFFF;}
	.st1{fill:#C9973F;}
</style>
<g>
	<path class="st0" d="M156.3,132.5v18.7H4.3v-18.7h19v-28.8H139v28.8H156.3z M35.8,29H7V10.9h28.8V4h22.6v6.9h17.9V29H58.4V35H35.8
		V29z M106.6,65.4c-2.6,4.5-5.4,8.6-8.3,12.5h49.9v19.2h-52V80.3c-1.9,2.2-4,4.3-6.1,6.2c-1.9-3.4-6.2-9.8-9.9-14.6v10.2H65.8v4.5
		h19.4v13.1H15V37.1h69.6v13.1H65.8v4.2h14.4v11.2C88,57.4,93.8,46.2,97,34.2l20.5,5c-0.6,2.4-1.4,4.6-2.2,7h37.3v19.2H106.6z
		 M33.6,50.2v4.2h13.3v-4.2H33.6z M62.1,65.9H33.6v4.8h28.5V65.9z M46.9,82.2H33.6v4.5h13.3V82.2z M44.8,132.5h10.9v-12.3H44.8
		V132.5z M74.9,120.2v12.3h11.2v-12.3H74.9z M102.2,28.8h-20V10.7h20V4h22.6v6.7H153v18.1h-28.2V35h-22.6V28.8z M105.3,120.2v12.3
		h11v-12.3H105.3z"/>
	<path class="st0" d="M208,38.2c-2.6,11.5-9.8,22.4-25.3,29.6c-2.7-4.5-8.8-11.2-13.3-14.9c9.9-3.5,14.7-9,17-14.7h-18.1V20.5h19.8
		V5.6h21v14.9h6.4V5.1h20v15.4h9.3V5.1h21v15.4h6.2V5h20.6v15.5h19.8v17.8h-19.8v2.1c0,4.6,0.3,6.6,2.9,6.6h7.7
		c2.7,0,7.2-0.5,9.6-1.3c0.3,5.3,0.8,12.6,1.6,17.4c-2.7,1-7,1.3-10.9,1.3h-10.1C275.7,64.3,272,57,272,40v-1.8h-6.2v24.2h-50.2
		V38.2H208z M311.7,67.8V105h-15.2v21.6c0,9.6-2.1,15.2-9,18.2c-7,3-15.7,3.2-26.6,3.2c-1-6.1-4.2-14.6-7-20
		c5.9,0.3,14.6,0.3,16.6,0.3c2.2,0,3-0.5,3-2.2v-12h-22.9v41.8h-23v-41.8h-20v32.3h-22.6V105h-15.5V67.8H311.7z M191,86.4V96h36.6
		v-7.2h23V96h38.4v-9.6H191z M235.5,38.2v7.4h9.3v-7.4H235.5z"/>
	<path class="st0" d="M417.6,71.2c-1,0.8-2.1,1.6-3.2,2.4c15.2,6.1,41,11.7,63.8,14.6c-5.3,3.4-12.6,10.1-16,14.2
		c-7.4-1.3-14.9-2.9-22.4-4.8v31.8c3-2.1,5.9-4.2,8.2-6.1l15.7,8.3c-5.3,3-10.7,6.1-16,8.8c4.6,1.8,8.6,3.5,12,5.1l-10.2,11.7
		c-10.6-5.6-31.8-13-48.3-17l7.7-8.3h-31.7v4.8l21.1-3.2c-1,4.3-1.8,11.2-1.9,14.7c-31.5,5.3-37.1,6.6-40.3,8.2
		c-0.8-4.2-3.7-11.5-6.1-14.1c3-1.4,6.4-3.8,6.4-10.2V98.4c-7.7,1.9-15.5,3.5-23.4,4.8c-1.4-4.5-5-11.5-8.2-15.7
		c25.9-2.7,52.6-9.9,68.6-19.8c-13,2.6-16.2,3.4-18.4,4.6v-0.6c-0.6-4-3-10.4-4.6-12.3c2.4-1,4.8-2.9,4.8-8.8v-2.1
		c-9,15.7-23.2,27-40.8,34.2c-1.8-3.5-6.9-10.7-10.1-13.9c11.2-3.8,21-9.6,28-17c-14.2,1.3-17.8,2.1-20.3,2.9
		c-0.8-2.4-3.5-8.6-5.6-12c3.7-0.6,6.1-2.1,10.1-5c1.3-0.8,3.4-2.4,5.9-4.5c-6.4,0.6-8.6,1.1-10.4,1.8c-0.6-2.6-3.2-9-4.8-12.5
		c2.2-0.5,4.2-1.8,6.4-3.7c2.4-2.1,9.1-8.8,13.3-16.2l13.3,7.7c-3.2,4-7.5,8.3-12,12.2l5.6-0.2c2.6-2.9,5.1-5.8,7.2-8.6l13.3,8.6
		c-5.8,6.6-13.3,13.3-21.4,19l7.5-0.5c1.1-1.9,1.9-4,2.7-6.1l12.2,2.2V10.7h12.6c-0.5-1.6-1.1-3-1.6-4.5l18.2-3.7
		c1.3,2.4,2.6,5.4,3.4,8.2h16v35.8h-5.3c3,2.9,5.9,6.1,8.3,9.1v-48h32l2.6-0.8l13.6,5.6c-3,8-6.7,15.7-10.1,23
		C472.3,41.8,475,48.3,475,53c0,6.1-2.1,10.2-6.6,13c-2.4,1.4-5.6,2.4-8.5,2.9c-2.9,0.3-7,0.5-10.9,0.2c-0.2-4.2-1.8-9.8-4.2-13.6
		V75h-18.1V65l-8.8,4.2c-0.8-1.8-1.9-3.7-3.2-5.6l-9.4,1.8L417.6,71.2z M438.1,97.1c-7.7-2.1-15.4-4.3-22.7-6.9v5h-34.7v-4.3
		c-6.2,2.2-13,4.3-19.7,6.2H438.1z M417.9,107.5h-40.8v2.6h40.8V107.5z M377.1,121.8h40.8V119h-40.8V121.8z M406.7,87.2
		c-3-1.1-6.1-2.4-8.8-3.7c-2.6,1.3-5.1,2.6-7.8,3.7H406.7z M393.9,20.5v3.4h12.5v-3.4H393.9z M393.9,33.4v3.2h12.5v-3.2H393.9z
		 M405.1,52c-1.1-1-2.1-1.9-3-2.9l5.4-2.6h-13.6v7.4L405.1,52z M420,132c3.7,1,7.4,1.9,11.2,3c1.6-1,3.2-2.1,4.8-3H420z M445,22.2
		v32.2c2.6,0.2,5.1,0.3,6.7,0.3c1.4-0.2,2.7-0.3,3.7-0.8c1.3-0.8,1.9-1.8,1.9-3.7c0-2.6-2.6-6.4-9.9-12c1.9-5.4,3.7-10.9,5.3-16H445
		z"/>
	<path class="st0" d="M614.1,156.2c-11.8-4.5-27.7-9.3-46.2-13.9c-17.8,7.8-40.6,11.5-70.2,13.9c-1.6-6.1-5-13.6-8.5-18.4
		c15.7-0.8,29.3-1.9,41.1-4c-8.2-1.8-16.5-3.4-25-4.8c3.2-3.2,6.7-6.9,10.2-10.9h-28v-17.4h41.9c2.9-4,5.6-8.2,7.8-12h-22.7V38.1
		h89.8v50.6h-54.6l11.4,3c-1.8,2.9-3.7,5.9-5.8,9h29.1c1.3-2.6,2.6-5.3,3.7-8.2l21.8,5.6l-1.1,2.6h22.1v17.4h-32.2
		c-3.4,4.5-7,8.5-11.2,12c17.1,4.2,32.5,8.3,44.5,12.2L614.1,156.2z M511.7,50.6h-22.2v-35H547c-1-2.7-2.2-5.4-3.4-7.7l23.5-4
		c2.2,3.4,4.3,7.8,5.6,11.7h57.9v35h-23.4V34.1h-95.7V50.6z M536.3,56.8h45.1v-4.6h-45.1V56.8z M536.3,74.6h45.1v-4.6h-45.1V74.6z
		 M540.3,120c6.7,1.3,13.6,2.6,20.3,4c3.4-1.8,6.4-3.7,9.3-5.9h-28L540.3,120z"/>
</g>
<g>
	<g>
		<path class="st0" d="M988.5,379.5c0-39.6-19.8-74.6-49.8-95.2c-7.1-15.4-18.5-27.4-35.4-32.7c-0.2-0.1-0.5-0.1-0.8-0.2
			c0,0-0.1,0-0.1,0c-2.8-0.2-5.9-0.4-8.2,1.6c-2.3,2.1-2.4,5.2-2.3,8.2l0.1,4.7c-5.4-0.8-10.8-1.2-16.4-1.2c-2,0-3.9,0.1-5.9,0.2
			l0-0.7c0-0.1,0-0.2,0-0.3c-0.6-4.1-2.3-8-6.3-9.6c-1.3-0.5-2.7-0.7-4.1-0.6c-1.2,0.1-2.4,0.4-3.5,0.9c-2.1,1-4.2,2.9-4.6,5.3
			c0,0.2-0.1,0.5-0.1,0.8v84.8c0,0.3-0.1,0.7-0.4,0.9c-0.2,0.2-0.4,0.3-0.6,0.3c-0.2,0-0.5-0.1-0.6-0.3c-0.2-0.3-0.4-0.6-0.4-0.9
			v-82.9c0-4.1-2.2-7.3-6-8.7c-1.2-0.4-2.5-0.7-3.8-0.6c-1.3,0-2.5,0.2-3.7,0.7c-3.7,1.4-6.2,4.5-6.2,8.6v83c0,0.3-0.1,0.7-0.4,0.9
			c-0.2,0.2-0.4,0.3-0.6,0.3h0c0,0-0.1,0-0.1,0c-0.2,0-0.4-0.1-0.5-0.3c-0.2-0.2-0.3-0.5-0.4-0.8c0,0,0-0.1,0-0.1v-84.8
			c0,0,0-0.1,0-0.1c-0.1-2.7-2.4-5-4.7-6c-1.1-0.5-2.3-0.8-3.5-0.9c-1.4-0.1-2.8,0.1-4.1,0.6c-3.9,1.6-5.7,5.5-6.3,9.5
			c0,0.1,0,0.3,0,0.4l-1.6,23.9c-27.1,21-44.6,54.1-44.6,91.5c0,43.7,24,81.7,59.4,101.1l-0.4,8.7c0,0,0,0.1,0,0.1
			c-0.6,7.3,1.5,14.6,8,18.4c2.4,1.4,5.2,2.2,8,2.2c2.8,0,5.6-0.7,8-2.1c5.8-3.3,8.6-9.1,8.8-15.5c6.8,1.3,13.8,2,21,2
			c6.5,0,12.9-0.6,19.1-1.7l0,0.1c-0.4,6.6,2.1,12.5,8,15.5c2.5,1.3,5.3,1.8,8.1,1.7c2.8-0.1,5.6-0.9,8.1-2.3
			c6.7-3.8,9.4-10.7,8.7-18.3c-0.1-2.5-0.2-5.1-0.4-7.6C963.6,462.6,988.5,424,988.5,379.5z M822.5,471.9
			c-31.2-18.6-52.1-53-52.1-92.5c0-32.3,14.1-61.3,36.3-80.9l-2.9,44.4c-0.8,6-0.2,11.3,3.4,16.2c1.8,2.5,4.2,4.7,6.5,6.8
			c2.2,2,4.4,4,6.2,6.4c1.8,2.4,3.5,5.2,4.8,7.9c0.6,1.5,1.5,3.7,1.5,5.3L822.5,471.9z M846.9,377.1c-1.1,2.6-2.1,5.8-2,8.7
			l1.9,104.2c0,0,0,0.1,0,0.1c0,0,0,0.1,0,0.1c0.3,4.2-0.9,8.5-4.7,10.6c-1.3,0.7-2.8,1.1-4.3,1.1c-1.4,0-2.9-0.4-4.1-1.1
			c-3.7-2.2-4.5-6.9-4.2-10.9c0-0.1,0-0.3,0-0.4l4.3-103.8c0.1-3-0.9-6.2-2.1-8.9c-1.5-3.3-3.5-6.7-5.8-9.6c-2.2-2.8-4.6-5-7.2-7.4
			c-5.4-4.9-8.5-8.2-7.4-16.2c0-0.1,0-0.2,0-0.3l5.2-78.8c0.2-1.1,0.6-3.4,2.1-3.3c0.3,0,0.9,0.1,1,0.4c0.2,0.4,0,2.3,0,2.8v80.8
			c0,0,0,0.1,0,0.1c0,2.3,0.9,4.6,2.5,6.3c1.6,1.7,3.7,2.7,5.9,2.7c0.1,0,0.1,0,0.2,0c0,0,0.1,0,0.1,0c2.4,0,4.6-1,6.3-2.8
			c1.6-1.7,2.5-4,2.5-6.4v-83c0-0.6,0.4-1,1-1.2c0.4-0.1,0.7-0.2,1.1-0.2c0.4,0,0.7,0.1,1.1,0.2c0.6,0.2,0.9,0.7,0.9,1.3v82.9
			c0,2.4,0.9,4.7,2.5,6.4c1.6,1.7,3.9,2.8,6.3,2.8c2.4,0,4.6-1,6.3-2.8c1.6-1.7,2.5-4,2.5-6.4v-80.8c0-0.6-0.1-2.9,0.3-3.3
			c0.3-0.2,1,0.1,1.3,0.2c0.9,0.4,1.3,2.4,1.5,3.2l5.2,78.8c0,0.1,0,0.3,0,0.4c1.1,7.9-2,11.2-7.4,16c-2.7,2.5-5.3,4.9-7.5,7.9
			C850.2,370.6,848.3,373.9,846.9,377.1z M875.6,486.6c-7.2,0-14.3-0.8-21.2-2.2l-1.8-98.7c0-1.7,0.7-3.8,1.4-5.4
			c1.1-2.6,2.7-5.3,4.5-7.6c1.9-2.5,4.2-4.6,6.5-6.8c2.3-2.1,4.7-4.2,6.5-6.8c3.6-4.9,4.2-10.3,3.4-16.2l-4.7-70.4
			c1.8-0.1,3.6-0.2,5.4-0.2c5.6,0,11.1,0.5,16.5,1.3l2.5,211.1C888.5,486,882.1,486.6,875.6,486.6z M915.1,500.7
			c-1.4,0.8-3,1.2-4.6,1.3c-1.5,0.1-3-0.2-4.3-0.9c-3-1.5-3.9-4.7-3.7-7.9c0,0,0-0.1,0-0.1c0-0.1,0-0.1,0-0.2l-2.7-231.8
			c0,0,0-0.1,0-0.1c0-0.6-0.1-1.2-0.1-1.9c0.6,0,1.3,0.1,1.8,0.2c17.1,5.6,27.6,19.2,33.3,36.1c5,15,6.1,32.1,4.8,47.9
			c-1.1,13.9-4.3,29.5-10.3,42.1c-2.4,5-7.7,14.6-13.9,15.3c0,0-0.1,0-0.1,0c-1.9,0.3-3.3,1.9-3.3,3.9c-0.2,16.1,2,32.1,4.2,48
			c1.7,12.2,3.4,24.6,3.8,37c0,0.2,0,0.3,0,0.5C920.2,494.3,918.9,498.5,915.1,500.7z M926.4,473.3c-0.7-7.3-1.8-14.6-2.7-21.8
			c-2-14.5-4-29.2-4.1-43.8c7.6-2.9,13.2-11.8,16.6-18.9c6.4-13.5,9.9-30.1,11.1-44.9c1.2-15.2,0.4-31.4-3.7-46.2
			c22.8,19.6,37.3,49,37.3,81.8C980.9,419.9,958.9,455,926.4,473.3z M926.1,326.9c0.5,11.9-0.9,24-3.9,35.5c-0.6,2.2,0.7,4.4,2.8,5
			c2.1,0.6,4.3-0.7,4.9-2.9c3.2-12.3,4.7-25.2,4.2-37.9c-0.5-11.9-2.8-23.9-7.2-35c-0.8-2.1-3.2-3.1-5.2-2.2c-2,0.8-3,3.2-2.2,5.3
			C923.6,304.9,925.7,315.9,926.1,326.9z"/>
	</g>
</g>
<g>
	<path class="st1" d="M124.9,191.7v134H92.2v-55.2H41.5v55.2H8.8v-134h32.7v52.5h50.8v-52.5H124.9z"/>
	<path class="st1" d="M229.4,302h-50l-8,23.7h-34.2l48.5-134h37.8l48.5,134h-34.6L229.4,302z M221,276.8l-16.6-49.1l-16.4,49.1H221z
		"/>
	<path class="st1" d="M316.2,191.7v80.2c0,8,2,14.2,5.9,18.5c3.9,4.3,9.7,6.5,17.4,6.5c7.6,0,13.5-2.2,17.6-6.5
		c4.1-4.3,6.1-10.5,6.1-18.5v-80.2h32.7v80c0,12-2.5,22.1-7.6,30.4c-5.1,8.3-11.9,14.5-20.5,18.7c-8.6,4.2-18.2,6.3-28.7,6.3
		c-10.6,0-20-2.1-28.4-6.2c-8.3-4.1-14.9-10.4-19.8-18.7c-4.8-8.3-7.3-18.5-7.3-30.5v-80H316.2z"/>
	<path class="st1" d="M438.4,322.3c-7.8-3.2-14-7.9-18.6-14.1c-4.6-6.2-7.1-13.7-7.4-22.5h34.8c0.5,5,2.2,8.8,5.2,11.4
		c2.9,2.6,6.7,3.9,11.5,3.9c4.8,0,8.7-1.1,11.5-3.3c2.8-2.2,4.2-5.3,4.2-9.3c0-3.3-1.1-6-3.3-8.2c-2.2-2.2-5-3.9-8.2-5.3
		c-3.2-1.4-7.9-3-13.8-4.8c-8.7-2.7-15.7-5.3-21.2-8c-5.5-2.7-10.2-6.6-14.1-11.8c-3.9-5.2-5.9-12-5.9-20.4
		c0-12.5,4.5-22.2,13.6-29.3c9-7.1,20.8-10.6,35.3-10.6c14.8,0,26.7,3.5,35.7,10.6c9,7.1,13.9,16.9,14.5,29.5h-35.3
		c-0.3-4.3-1.8-7.7-4.8-10.2c-2.9-2.5-6.7-3.7-11.3-3.7c-3.9,0-7.1,1.1-9.5,3.2c-2.4,2.1-3.6,5.1-3.6,9.1c0,4.3,2,7.7,6.1,10.1
		c4.1,2.4,10.4,5,19.1,7.8c8.7,2.9,15.7,5.7,21.1,8.4c5.4,2.7,10.1,6.6,14,11.6c3.9,5.1,5.9,11.6,5.9,19.7c0,7.6-1.9,14.6-5.8,20.8
		c-3.9,6.2-9.5,11.2-16.9,14.9c-7.4,3.7-16.1,5.5-26.2,5.5C455,327,446.2,325.4,438.4,322.3z"/>
	<path class="st1" d="M11.9,396c5.7-10.4,13.7-18.5,24-24.3c10.2-5.8,21.9-8.7,34.8-8.7c15.9,0,29.5,4.2,40.9,12.6
		c11.3,8.4,18.9,19.9,22.7,34.4H98.4c-2.7-5.6-6.5-9.9-11.4-12.8c-4.9-2.9-10.5-4.4-16.7-4.4c-10.1,0-18.2,3.5-24.4,10.5
		c-6.2,7-9.4,16.4-9.4,28.1c0,11.7,3.1,21.1,9.4,28.1c6.2,7,14.4,10.5,24.4,10.5c6.2,0,11.8-1.5,16.7-4.4c4.9-2.9,8.7-7.2,11.4-12.8
		h35.9c-3.8,14.5-11.4,25.9-22.7,34.3c-11.3,8.3-25,12.5-40.9,12.5c-13,0-24.6-2.9-34.8-8.7c-10.2-5.8-18.2-13.8-24-24.2
		c-5.7-10.3-8.6-22.1-8.6-35.3C3.3,418.2,6.1,406.4,11.9,396z"/>
	<path class="st1" d="M183.9,364.6v80.2c0,8,2,14.2,5.9,18.5c3.9,4.3,9.7,6.5,17.4,6.5s13.5-2.2,17.6-6.5c4.1-4.3,6.1-10.5,6.1-18.5
		v-80.2h32.7v80c0,12-2.5,22.1-7.6,30.4c-5.1,8.3-11.9,14.5-20.5,18.7c-8.6,4.2-18.2,6.3-28.7,6.3c-10.6,0-20-2.1-28.4-6.2
		c-8.3-4.1-14.9-10.4-19.8-18.7c-4.8-8.3-7.3-18.5-7.3-30.5v-80H183.9z"/>
	<path class="st1" d="M316.6,364.6v134H284v-134H316.6z"/>
	<path class="st1" d="M360,495.2c-7.8-3.2-14-7.9-18.6-14.1c-4.6-6.2-7.1-13.7-7.4-22.5h34.8c0.5,5,2.2,8.8,5.2,11.4
		c2.9,2.6,6.7,3.9,11.5,3.9c4.8,0,8.7-1.1,11.5-3.3c2.8-2.2,4.2-5.3,4.2-9.3c0-3.3-1.1-6-3.3-8.2c-2.2-2.2-5-3.9-8.2-5.3
		c-3.2-1.4-7.9-3-13.8-4.8c-8.7-2.7-15.7-5.3-21.2-8c-5.5-2.7-10.2-6.6-14.1-11.8c-3.9-5.2-5.9-12-5.9-20.4
		c0-12.5,4.5-22.2,13.6-29.3c9-7.1,20.8-10.6,35.3-10.6c14.8,0,26.7,3.5,35.7,10.6c9,7.1,13.9,16.9,14.5,29.5h-35.3
		c-0.3-4.3-1.8-7.7-4.8-10.2c-2.9-2.5-6.7-3.7-11.3-3.7c-3.9,0-7.1,1.1-9.5,3.2c-2.4,2.1-3.6,5.1-3.6,9.1c0,4.3,2,7.7,6.1,10.1
		c4.1,2.4,10.4,5,19.1,7.8c8.7,2.9,15.7,5.7,21.1,8.4c5.4,2.7,10.1,6.6,14,11.6c3.9,5.1,5.9,11.6,5.9,19.7c0,7.6-1.9,14.6-5.8,20.8
		c-3.9,6.2-9.5,11.2-16.9,14.9c-7.4,3.7-16.1,5.5-26.2,5.5C376.5,500,367.7,498.4,360,495.2z"/>
	<path class="st1" d="M485.4,364.6v134h-32.7v-134H485.4z"/>
	<path class="st1" d="M626.5,498.7h-32.7L539.3,416v82.7h-32.7v-134h32.7l54.6,83.1v-83.1h32.7V498.7z"/>
	<path class="st1" d="M680.4,390.8v27.1h43.7v25.2h-43.7v29.4h49.5v26.2h-82.1v-134h82.1v26.2H680.4z"/>
</g>
</svg>
