<?xml version="1.0" encoding="utf-8"?>
<!-- Generator: Adobe Illustrator 26.1.0, SVG Export Plug-In . SVG Version: 6.00 Build 0)  -->
<svg version="1.1" xmlns="http://www.w3.org/2000/svg" xmlns:xlink="http://www.w3.org/1999/xlink" x="0px" y="0px"
	 viewBox="0 0 988.5 509.9" style="enable-background:new 0 0 988.5 509.9;" xml:space="preserve">
<style type="text/css">
	.st0{fill:#FFFFFF;}
	.st1{fill:#C9973F;}
	.st2{fill-rule:evenodd;clip-rule:evenodd;fill:#FFFFFF;}
</style>
<g id="圖層_1">
	<g>
		<g>
			<path class="st0" d="M98.3,130.7H47.2L39,154.9H4.1L53.7,18h38.6l49.5,136.9h-35.3L98.3,130.7z M89.7,105l-17-50.1L56,105H89.7z"
				/>
			<path class="st0" d="M253.7,96.5c4.8,6.2,7.2,13.2,7.2,21.2c0,11.4-4,20.5-12,27.2c-8,6.7-19.1,10-33.4,10h-63.8V18h61.6
				c13.9,0,24.8,3.2,32.7,9.6c7.9,6.4,11.8,15,11.8,25.9c0,8.1-2.1,14.8-6.3,20.1c-4.2,5.3-9.8,9-16.9,11.1
				C242.6,86.4,248.9,90.3,253.7,96.5z M185.1,73.4h21.8c5.5,0,9.7-1.2,12.6-3.6c2.9-2.4,4.4-5.9,4.4-10.6s-1.5-8.3-4.4-10.7
				c-2.9-2.5-7.1-3.7-12.6-3.7h-21.8V73.4z M222.6,124.2c3.1-2.5,4.6-6.2,4.6-11c0-4.8-1.6-8.6-4.8-11.3c-3.2-2.7-7.6-4.1-13.2-4.1
				h-24.2V128h24.6C215.3,128,219.6,126.7,222.6,124.2z"/>
			<path class="st0" d="M304.5,147.3c-10.7-6-19.2-14.3-25.5-25.1c-6.3-10.7-9.5-22.8-9.5-36.2c0-13.4,3.2-25.4,9.5-36.1
				c6.3-10.7,14.8-19,25.5-25c10.7-6,22.5-9,35.4-9s24.7,3,35.4,9c10.7,6,19.2,14.3,25.3,25c6.2,10.7,9.3,22.7,9.3,36.1
				c0,13.4-3.1,25.4-9.4,36.2c-6.2,10.7-14.7,19.1-25.3,25.1c-10.7,6-22.4,9-35.3,9S315.3,153.3,304.5,147.3z M366.2,114.9
				c6.6-7.3,9.8-16.9,9.8-28.9c0-12.1-3.3-21.7-9.8-29c-6.6-7.2-15.3-10.8-26.2-10.8c-11.1,0-19.9,3.6-26.4,10.7
				c-6.6,7.2-9.8,16.8-9.8,29.1c0,12.1,3.3,21.7,9.8,29c6.6,7.2,15.4,10.8,26.4,10.8C350.9,125.9,359.6,122.2,366.2,114.9z"/>
			<path class="st0" d="M456.2,18v81.9c0,8.2,2,14.5,6,18.9c4,4.4,9.9,6.6,17.7,6.6c7.8,0,13.8-2.2,17.9-6.6
				c4.2-4.4,6.2-10.7,6.2-18.9V18h33.3v81.7c0,12.2-2.6,22.6-7.8,31c-5.2,8.5-12.2,14.8-21,19.1c-8.8,4.3-18.6,6.4-29.3,6.4
				c-10.8,0-20.4-2.1-29-6.3c-8.5-4.2-15.2-10.6-20.2-19.1c-4.9-8.5-7.4-18.9-7.4-31.1V18H456.2z"/>
			<path class="st0" d="M654.3,18v26.7H618v110.2h-33.3V44.7h-36.3V18H654.3z"/>
		</g>
		<g>
			<path class="st1" d="M124.4,191.6v134H91.7v-55.2H40.9v55.2H8.3v-134h32.7v52.5h50.8v-52.5H124.4z"/>
			<path class="st1" d="M228.8,302h-50l-8,23.7h-34.2l48.5-134h37.8l48.5,134h-34.6L228.8,302z M220.4,276.7l-16.6-49.1l-16.4,49.1
				H220.4z"/>
			<path class="st1" d="M315.7,191.6v80.2c0,8,2,14.2,5.9,18.5c3.9,4.3,9.7,6.5,17.4,6.5c7.6,0,13.5-2.2,17.6-6.5
				c4.1-4.3,6.1-10.5,6.1-18.5v-80.2h32.7v80c0,12-2.5,22.1-7.6,30.4c-5.1,8.3-11.9,14.5-20.5,18.7c-8.6,4.2-18.2,6.3-28.7,6.3
				c-10.6,0-20-2.1-28.4-6.2c-8.3-4.1-14.9-10.4-19.8-18.7c-4.8-8.3-7.3-18.5-7.3-30.5v-80H315.7z"/>
			<path class="st1" d="M437.9,322.2c-7.8-3.2-14-7.9-18.6-14.1c-4.6-6.2-7.1-13.7-7.4-22.5h34.8c0.5,5,2.2,8.8,5.2,11.4
				c2.9,2.6,6.7,3.9,11.5,3.9c4.8,0,8.7-1.1,11.5-3.3c2.8-2.2,4.2-5.3,4.2-9.3c0-3.3-1.1-6-3.3-8.2c-2.2-2.2-5-3.9-8.2-5.3
				c-3.2-1.4-7.9-3-13.8-4.8c-8.7-2.7-15.7-5.3-21.2-8c-5.5-2.7-10.2-6.6-14.1-11.8c-3.9-5.2-5.9-12-5.9-20.4
				c0-12.5,4.5-22.2,13.6-29.3c9-7.1,20.8-10.6,35.3-10.6c14.8,0,26.7,3.5,35.7,10.6c9,7.1,13.9,16.9,14.5,29.5h-35.3
				c-0.3-4.3-1.8-7.7-4.8-10.2c-2.9-2.5-6.7-3.7-11.3-3.7c-3.9,0-7.1,1.1-9.5,3.2c-2.4,2.1-3.6,5.1-3.6,9.1c0,4.3,2,7.7,6.1,10.1
				c4.1,2.4,10.4,5,19.1,7.8c8.7,2.9,15.7,5.7,21.1,8.4c5.4,2.7,10.1,6.6,14,11.6c3.9,5.1,5.9,11.6,5.9,19.7
				c0,7.6-1.9,14.6-5.8,20.8c-3.9,6.2-9.5,11.2-16.9,14.9c-7.4,3.7-16.1,5.5-26.2,5.5C454.4,327,445.7,325.4,437.9,322.2z"/>
			<path class="st1" d="M11.3,396c5.7-10.4,13.7-18.5,24-24.3c10.2-5.8,21.9-8.7,34.8-8.7c15.9,0,29.5,4.2,40.9,12.6
				c11.3,8.4,18.9,19.9,22.7,34.4H97.8c-2.7-5.6-6.5-9.9-11.4-12.8c-4.9-2.9-10.5-4.4-16.7-4.4c-10.1,0-18.2,3.5-24.4,10.5
				c-6.2,7-9.4,16.4-9.4,28.1c0,11.7,3.1,21.1,9.4,28.1c6.2,7,14.4,10.5,24.4,10.5c6.2,0,11.8-1.5,16.7-4.4
				c4.9-2.9,8.7-7.2,11.4-12.8h35.9c-3.8,14.5-11.4,25.9-22.7,34.3c-11.3,8.3-25,12.5-40.9,12.5c-13,0-24.6-2.9-34.8-8.7
				C25,485.1,17,477,11.3,466.7c-5.7-10.3-8.6-22.1-8.6-35.3C2.7,418.1,5.6,406.3,11.3,396z"/>
			<path class="st1" d="M183.4,364.5v80.2c0,8,2,14.2,5.9,18.5c3.9,4.3,9.7,6.5,17.4,6.5s13.5-2.2,17.6-6.5
				c4.1-4.3,6.1-10.5,6.1-18.5v-80.2H263v80c0,12-2.5,22.1-7.6,30.4c-5.1,8.3-11.9,14.5-20.5,18.7c-8.6,4.2-18.2,6.3-28.7,6.3
				c-10.6,0-20-2.1-28.4-6.2c-8.3-4.1-14.9-10.4-19.8-18.7c-4.8-8.3-7.3-18.5-7.3-30.5v-80H183.4z"/>
			<path class="st1" d="M316.1,364.5v134h-32.7v-134H316.1z"/>
			<path class="st1" d="M359.4,495.2c-7.8-3.2-14-7.9-18.6-14.1c-4.6-6.2-7.1-13.7-7.4-22.5h34.8c0.5,5,2.2,8.8,5.2,11.4
				c2.9,2.6,6.7,3.9,11.5,3.9c4.8,0,8.7-1.1,11.5-3.3c2.8-2.2,4.2-5.3,4.2-9.3c0-3.3-1.1-6-3.3-8.2c-2.2-2.2-5-3.9-8.2-5.3
				c-3.2-1.4-7.9-3-13.8-4.8c-8.7-2.7-15.7-5.3-21.2-8c-5.5-2.7-10.2-6.6-14.1-11.8c-3.9-5.2-5.9-12-5.9-20.4
				c0-12.5,4.5-22.2,13.6-29.3c9-7.1,20.8-10.6,35.3-10.6c14.8,0,26.7,3.5,35.7,10.6c9,7.1,13.9,16.9,14.5,29.5h-35.3
				c-0.3-4.3-1.8-7.7-4.8-10.2c-2.9-2.5-6.7-3.7-11.3-3.7c-3.9,0-7.1,1.1-9.5,3.2c-2.4,2.1-3.6,5.1-3.6,9.1c0,4.3,2,7.7,6.1,10.1
				c4.1,2.4,10.4,5,19.1,7.8c8.7,2.9,15.7,5.7,21.1,8.4c5.4,2.7,10.1,6.6,14,11.6c3.9,5.1,5.9,11.6,5.9,19.7
				c0,7.6-1.9,14.6-5.8,20.8c-3.9,6.2-9.5,11.2-16.9,14.9c-7.4,3.7-16.1,5.5-26.2,5.5C376,499.9,367.2,498.3,359.4,495.2z"/>
			<path class="st1" d="M484.9,364.5v134h-32.7v-134H484.9z"/>
			<path class="st1" d="M626,498.6h-32.7l-54.6-82.7v82.7h-32.7v-134h32.7l54.6,83.1v-83.1H626V498.6z"/>
			<path class="st1" d="M679.8,390.7v27.1h43.7V443h-43.7v29.4h49.5v26.2h-82.1v-134h82.1v26.2H679.8z"/>
		</g>
		<g>
			<g>
				<path class="st2" d="M864.8,436.8c-3.1,0-5.7,2.5-5.7,5.4v26.7c0,3,2.6,5.4,5.7,5.4c3.1,0,5.7-2.5,5.7-5.4v-26.7
					C870.5,439.2,868,436.8,864.8,436.8z M818.4,436.8c-3.1,0-5.7,2.5-5.7,5.4v26.7c0,3,2.6,5.4,5.7,5.4c3.1,0,5.7-2.5,5.7-5.4
					v-26.7C824.1,439.2,821.6,436.8,818.4,436.8z M911.2,436.8c-3.1,0-5.7,2.5-5.7,5.4v26.7c0,3,2.6,5.4,5.7,5.4
					c3.1,0,5.7-2.5,5.7-5.4v-26.7C916.9,439.2,914.3,436.8,911.2,436.8z M968.1,324.7c-10.9-10.1-25.5-15.6-40.7-15.6
					c-2.5,0-5,0.2-7.5,0.5c-0.5,0.1-1,0.1-1.5,0.2c-0.9,0.1-1.8-0.3-2.3-1.1c-4.4-7.9-10.9-14.7-18.8-19.6c-9.7-6.1-21-9.3-32.5-9.3
					c-11.6,0-22.9,3.2-32.5,9.3c-7.8,5-14.3,11.7-18.8,19.6c-0.4,0.8-1.3,1.2-2.3,1.1c-0.5-0.1-1-0.1-1.5-0.2
					c-2.5-0.3-5-0.5-7.5-0.5c-15.2,0-29.8,5.5-40.7,15.6c-10.8,10-17,23.4-17,37.8c0,11.4,3.9,22.2,11,31.3
					c6.1,7.8,14.4,13.9,23.8,17.6c0.8,0.3,1.3,1.1,1.3,1.9v68.4c0,4.2,1.8,8.2,5,11.2c3.2,2.9,7.4,4.6,11.9,4.6h134.6
					c4.4,0,8.7-1.6,11.9-4.6c3.2-2.9,5-6.9,5-11.2v-68.4c0-0.9,0.5-1.6,1.3-1.9c9.4-3.8,17.6-9.9,23.8-17.6c7.1-9.1,11-20,11-31.3
					C985.1,348.1,979,334.6,968.1,324.7z M965.8,387.8c-5.9,7.5-14.2,13-23.6,15.9c-1.7,0.5-3,1.9-3.5,3.5c0,0.2-0.1,0.3-0.2,0.5
					v74.1c0,1.5-0.7,2.9-1.8,4c-1.2,1.1-2.9,1.8-4.6,1.8H797.5c-1.7,0-3.4-0.6-4.6-1.8c-1.1-1.1-1.8-2.5-1.8-4v-73.3
					c0-2.3-1.7-4.3-4-4.9c-0.1,0-0.1,0-0.2,0c-9.1-2.9-17.2-8.4-23-15.7c-5.8-7.3-8.9-16.2-8.9-25.3c0-11.6,5-22.5,13.8-30.6
					c9-8.3,21-12.8,33.5-12.8c2.1,0,4.2,0.1,6.2,0.3c2,0.2,4.1,0.6,6.1,1.1c2.6,0.6,5.3-0.7,6.2-3.1c0,0,0,0,0-0.1
					c3.5-8.2,9.6-15.1,17.3-20c7.9-5,17.2-7.6,26.8-7.6c9.5,0,18.8,2.6,26.8,7.6c7.8,4.9,13.9,11.9,17.4,20.2
					c0.8,1.9,2.7,3.2,4.9,3.1c0.2,0,0.3,0,0.5,0l0.8-0.2c2-0.5,4-0.9,6.1-1.1c2.1-0.2,4.1-0.3,6.2-0.3c12.5,0,24.5,4.5,33.5,12.8
					c8.8,8.1,13.8,19,13.8,30.6C974.7,371.6,971.6,380.5,965.8,387.8z"/>
			</g>
		</g>
	</g>
</g>
<g id="圖層_2">
</g>
</svg>
