<?xml version="1.0" encoding="utf-8"?>
<!-- Generator: Adobe Illustrator 23.0.3, SVG Export Plug-In . SVG Version: 6.00 Build 0)  -->
<svg version="1.1" id="分離模式" xmlns="http://www.w3.org/2000/svg" xmlns:xlink="http://www.w3.org/1999/xlink" x="0px"
	 y="0px" viewBox="0 0 90.7 90.7" style="enable-background:new 0 0 90.7 90.7;" xml:space="preserve">
<style type="text/css">
	.st0{fill:#2BAC38;}
	.st1{fill:#FFFFFF;}
</style>
<path class="st0" d="M86.8,42.5C86.8,24.1,68.2,9,45.4,9S4,24.1,4,42.5c0,16.6,14.8,30.4,34.6,33.1c1.3,0.3,3.2,0.9,3.7,2
	c0.3,1.2,0.4,2.5,0.1,3.7L42,84.8c-0.1,1.1-0.8,4.1,3.6,2.2c4.5-1.8,23.8-14,32.5-24l0,0C83.9,56.6,86.8,50,86.8,42.5"/>
<g>
	<path class="st1" d="M36.5,33h-3.1c-0.4,0-0.8,0.4-0.8,0.8v19.1c0,0.4,0.4,0.8,0.8,0.8h3.1c0.4,0,0.8-0.4,0.8-0.8V34
		C37.3,33.4,37,33,36.5,33"/>
	<path class="st1" d="M57.6,33h-3.1c-0.4,0-0.8,0.4-0.8,0.8v11.4L45,33.4v-0.1l0,0l0,0l0,0l0,0l0,0l0,0l0,0l0,0h-3.8
		c-0.4,0-0.8,0.4-0.8,0.8v18.8c0,0.4,0.4,0.8,0.8,0.8h3.1c0.4,0,0.8-0.4,0.8-0.8V41.6l8.8,11.8c0,0.1,0.1,0.1,0.3,0.1l0,0l0,0h0.3
		h0.3h3.1c0.4,0,0.8-0.4,0.8-0.8V34C58.5,33.4,58.2,33,57.6,33"/>
	<path class="st1" d="M29.1,49h-8.3V34c0-0.4-0.4-0.8-0.8-0.8h-3.1c-0.4,0-0.8,0.4-0.8,0.8V53l0,0c0,0.3,0.1,0.4,0.3,0.6l0,0
		c0.1,0.1,0.4,0.3,0.6,0.3h12.4c0.4,0,0.8-0.4,0.8-0.8V50C29.9,49.4,29.7,49,29.1,49L29.1,49"/>
	<path class="st1" d="M74.5,37.9c0.4,0,0.8-0.4,0.8-0.8l0,0V34c0-0.4-0.4-0.8-0.8-0.8H62.1c-0.3,0-0.4,0.1-0.6,0.3l0,0
		c-0.1,0.1-0.3,0.4-0.3,0.6l0,0V53l0,0c0,0.3,0.1,0.4,0.3,0.6l0,0c0.1,0.1,0.4,0.3,0.6,0.3h12.4c0.4,0,0.8-0.4,0.8-0.8V50
		c0-0.4-0.4-0.8-0.8-0.8l0,0h-8.3v-3.2h8.3c0.4,0,0.8-0.4,0.8-0.8l0,0V42c0-0.4-0.4-0.8-0.8-0.8l0,0h-8.3V38h8.3V37.9z"/>
</g>
</svg>
