<?xml version="1.0" encoding="utf-8"?>
<!-- Generator: Adobe Illustrator 26.1.0, SVG Export Plug-In . SVG Version: 6.00 Build 0)  -->
<svg version="1.1" id="圖層_1" xmlns="http://www.w3.org/2000/svg" xmlns:xlink="http://www.w3.org/1999/xlink" x="0px" y="0px"
	 viewBox="0 0 173 22.9" style="enable-background:new 0 0 173 22.9;" xml:space="preserve">
<style type="text/css">
	.st0{fill:#FFFFFF;}
</style>
<g>
	<g>
		<path class="st0" d="M8.1,7.4H2.3L0,22.9h3.8l0.8-5.2h2.2c3.3,0,5.4-1.6,6-5.3C13.2,8.9,11.3,7.4,8.1,7.4z M8.7,12.6
			c-0.3,1.9-1.6,1.9-3,1.9H5l0.6-3.9h0.6C7.7,10.6,9,10.6,8.7,12.6z M30.4,13.2c-1.1,0-2,0.4-2.8,1.4h0l1-6.5h-2.9l-2.1,14.1h2.9
			l0.7-4.5c0.2-1,0.7-2.1,1.8-2.1c1.2,0,1.2,1.1,1,2.1l-0.7,4.5h2.9l0.8-5.3C33.3,14.7,32.5,13.2,30.4,13.2z M39.4,13.2
			c-2.6,0-5.2,1.7-5.6,4.7c-0.4,3,1.6,4.7,4.3,4.7c2.6,0,5.2-1.7,5.6-4.7C44.1,14.9,42,13.2,39.4,13.2z M40.6,17.9
			c-0.2,1.1-1,2-2.2,2c-1.2,0-1.7-0.9-1.6-2c0.2-1.1,1-2,2.2-2C40.2,15.9,40.7,16.8,40.6,17.9z M56.5,13.2c-1.1,0-2.3,0.6-3,1.7
			c-0.4-1.2-1.4-1.7-2.6-1.7c-1.1,0-2,0.4-2.8,1.4h0l0.2-1.1h-2.9L44,22.2h2.9l0.6-4.2c0.1-1,0.4-2.5,1.7-2.5c1.3,0,1.1,1.5,0.9,2.5
			l-0.6,4.2h2.9l0.6-4.2c0.2-1,0.4-2.4,1.7-2.4c1.2,0,1,1.5,0.8,2.4L55,22.2h2.9l0.8-5.6C59,14.7,58.5,13.2,56.5,13.2z M64.8,13.2
			c-2.7,0-4.8,1.8-5.2,4.7c-0.4,3,1.3,4.7,4.1,4.7c1.9,0,3.9-0.9,4.6-3h-2.8c-0.4,0.6-0.9,0.8-1.5,0.8c-1.2,0-1.7-0.7-1.5-1.9h6.1
			l0-0.3C69,15.1,67.6,13.2,64.8,13.2z M62.7,16.6c0.3-0.9,1.1-1.4,1.9-1.4c0.8,0,1.4,0.5,1.4,1.4H62.7z M20.9,11.1
			c0.2,0,0.5,0,0.7,0.1c1,0.2,1.8,0.7,2.3,1.6l0.7-4.6c-0.8-0.4-1.5-0.6-2.4-0.7c-0.3,0-0.5,0-0.8,0c-2,0-4.1,0.9-5.6,2.4
			c-1.5,1.5-2.6,3.4-2.9,5.4c-0.3,2.2,0.1,4.1,1.4,5.6c1.2,1.4,3,2.2,4.9,2.2c0.2,0,0.5,0,0.7,0c0.8-0.1,1.6-0.3,2.6-0.6l0.7-4.6
			c-0.7,0.8-1.7,1.3-2.7,1.5c-0.2,0-0.4,0.1-0.6,0.1c-2.3,0-3.5-1.7-3.2-4C16.9,12.9,18.7,11.1,20.9,11.1z M44.5,10.8
			c1,0,1.8-0.8,1.9-1.8c0.1-0.9-0.4-1.7-1.4-1.7c-1,0-1.8,0.8-1.9,1.7C43,10,43.6,10.8,44.5,10.8z M43.8,9C43.9,8.5,44.4,8,45,8
			c0.6,0,0.9,0.5,0.8,1.1c-0.1,0.5-0.6,1.1-1.1,1.1S43.8,9.5,43.8,9z M49.7,8.5L49.7,8.5l1.4,2.3h0.5l0.5-3.4h-0.6l-0.3,2.2h0
			l-1.4-2.3h-0.5l-0.5,3.4h0.6L49.7,8.5z M55.9,10.2H55l0.4-2.8h-0.6l-0.5,3.3h1.6L55.9,10.2z M58.2,10.7h0.6l0.5-3.3h-0.6
			L58.2,10.7z M62.5,8.5L62.5,8.5l1.4,2.3h0.5l0.5-3.4h-0.6l-0.3,2.2h0l-1.4-2.3H62l-0.5,3.4h0.6L62.5,8.5z M67.1,10.7h1.7l0.1-0.6
			h-1.1l0.1-0.9h1L69,8.7h-1L68.1,8h1.1l0.1-0.6h-1.7L67.1,10.7z M130.4,14.6h5.2c0.2,0,0.3-0.1,0.3-0.3V0.9c0-0.1-0.1-0.2-0.3-0.2
			h-5.2c-0.1,0-0.2,0.1-0.2,0.2v13.5C130.2,14.5,130.2,14.6,130.4,14.6z M131.9,2.3C131.9,2.3,131.9,2.3,131.9,2.3l2.1-0.1
			c0.1,0,0.1,0,0.1,0.1v2.4h-2.2V2.3z M131.9,6.4h2.2v2.4h-2.2V6.4z M131.9,10.5h2.2v2.4c0,0.1,0,0.1-0.1,0.1H132c0,0-0.1,0-0.1-0.1
			V10.5z M147.2,5.5h2.6V4.1h-2.6V2.9h3V1.5h-3V0h-1.7v1.5h-3.7V0.1H140v1.4h-3.1v1.5h3.1v1.1h-2.5v1.5h2.5v1.2h-3.3v1.5h5.9v1.2
			H138c-0.3,0-0.4,0.1-0.4,0.4v5.6h-1.2v1.5h1.2v2.9h1.7v-2.9h8.4v0.5c0,0.3-0.2,0.6-0.5,0.8c-0.3,0.2-1.1,0.1-2.4-0.2l0.1,1.8
			c1.8,0.3,3,0.2,3.8-0.2c0.5-0.3,0.8-0.9,0.8-1.5v-1.1h1.1v-1.5h-1.1V9.8c0-0.3-0.1-0.4-0.4-0.4h-4.7V8.2h6.2V6.8h-3.3V5.5z
			 M142.6,15.4h-3.3v-1.5h3.3V15.4z M142.6,12.5h-3.3V11c0-0.1,0-0.1,0.1-0.1h3.1V12.5z M147.8,15.4h-3.4v-1.5h3.4V15.4z
			 M147.6,10.9c0.1,0,0.2,0,0.2,0.1v1.4h-3.4v-1.6H147.6z M145.5,6.8h-3.7V5.5h3.7V6.8z M145.5,4.1h-3.7V2.9h3.7V4.1z M133.4,16
			c0.4,0.8,0.8,1.9,1.3,3.3l1.6-0.5c-0.4-1.4-0.8-2.5-1.3-3.4L133.4,16z M129.6,19.3l1.7,0.5c0.7-1.6,1.1-2.9,1.3-4.2l-1.7-0.5
			C130.7,16.3,130.3,17.7,129.6,19.3z M172.7,2.6c-0.1-0.1-0.2-0.1-0.4-0.1h-8.7c0.1-0.7,0.3-1.4,0.5-2.2l-1.9-0.3
			c-0.4,2.9-1.4,5.6-3.2,8.1l1.9,0.7c0.8-1.1,1.5-2.6,2.2-4.5h1.6c-0.2,2-0.6,3.6-1.2,4.7c-0.8,1.6-2.3,3.5-4.5,5.6l1.7,1
			c3-2.9,4.8-5.9,5.5-8.8c0.1-0.8,0.3-1.6,0.4-2.5h1.3c-0.2,6.4-2.6,10.9-7.2,13.5l1.5,1.3c2.4-1.7,4.3-3.7,5.6-6.2
			c1.3-2.9,2-5.8,2-8.7h0.9c0.1,0,0.2,0,0.2,0.1c0.1,0.2,0.1,2.6,0,7.1c0,2-0.2,3.4-0.5,4.3c-0.3,0.8-0.7,1.4-1,1.6
			c-0.5,0.4-1.9,0.2-3.9-0.4l0.1,2.1c2.4,0.6,4.1,0.7,5,0.1c1.4-0.9,2.2-3.4,2.3-7.5c0.1-2.4,0.1-5.2,0.1-8.4
			C173,3.1,172.9,2.7,172.7,2.6z M159.9,10c-0.5,0.3-1.1,0.7-1.7,1V5.8h1.9V4h-1.9V0h-1.9v4h-1.3c0.1-0.9,0.1-1.6,0.1-2.1V0.8h-1.8
			v1.1c0,2.8-0.4,5.3-1.1,7.5l1.9,0.3c0.2-0.7,0.5-1.9,0.7-3.8h1.5v6.1c-1.1,0.4-2.4,0.9-4.1,1.5l1,1.7c1-0.4,2-0.8,3-1.2v6h1.9V13
			c1.1-0.5,2-1,2.8-1.5L159.9,10z M108.1,15.1h19.7l0.3-1.1h-19.7L108.1,15.1z M107.5,17.3h19.7l0.3-1.1h-19.7L107.5,17.3z
			 M106.9,19.5h19.7l0.3-1.1h-19.7L106.9,19.5z M79.8,17.6c0.5-0.7,2-2,3.4-3.2c0.4-0.3,1-0.8,1.8-1.4c4.1-3.2,6.4-5.8,6.9-7.8
			c0.5-1.7,0.1-3-1-3.8c-1.1-0.8-3-1.3-5.6-1.3c-2.8,0-5,0.4-6.4,1.3c-1.4,0.9-2.4,2.3-3,4.4l-0.3,1.4h6.7L83,4.3
			c0.1-0.4,0.3-0.7,0.5-0.8c0.2-0.2,0.5-0.2,0.9-0.2c0.4,0,0.6,0.1,0.8,0.3c0.1,0.2,0.2,0.4,0.1,0.8l-0.5,1.7c-0.3,1-2,2.7-5.2,5.2
			c-0.8,0.6-1.4,1.1-1.8,1.4c-1.9,1.5-3.2,2.7-3.9,3.6c-0.7,0.9-1.2,1.8-1.4,2.7l-1,3.6h15.9l1-3.9l-9.3,0
			C79.1,18.7,79.3,18.2,79.8,17.6z M94.7,14l6.5-9.9h0.6l-3,8.8l5.5,0l3.3-12.3h-9.2L88.7,14l-0.9,3.3h9.7l-1.4,5.2h5.6l1.4-5.2h3.2
			l0.9-3.3L94.7,14z M115.7,9c0.1-0.4,0.3-0.6,0.5-0.8C116.4,8,116.7,8,117,8c0.4,0,0.7,0.1,0.8,0.2c0.1,0.1,0.1,0.4,0,0.8l-1,3.9h6
			l1.4-5.2c0.3-1,0.1-1.7-0.4-2.2c-0.5-0.5-1.4-0.8-2.7-0.8c-1,0-1.8,0.1-2.6,0.4c-0.8,0.3-1.5,0.7-2.1,1.4h-0.1l1.6-5.9h-6
			l-3.3,12.3h6L115.7,9z"/>
	</g>
</g>
</svg>
