<?xml version="1.0" encoding="utf-8"?>
<!-- Generator: Adobe Illustrator 26.2.1, SVG Export Plug-In . SVG Version: 6.00 Build 0)  -->
<svg version="1.1" id="圖層_1" xmlns="http://www.w3.org/2000/svg" xmlns:xlink="http://www.w3.org/1999/xlink" x="0px" y="0px"
	 viewBox="0 0 401 194.8" style="enable-background:new 0 0 401 194.8;" xml:space="preserve">
<style type="text/css">
	.st0{display:none;fill:#221E1F;}
	.st1{fill:#FFFFFF;}
</style>
<rect y="0" class="st0" width="401" height="194.8"/>
<g>
	<g>
		<path class="st1" d="M234,69.2c0-12.3-6.1-23.2-15.5-29.6c-2.2-4.8-5.8-8.5-11-10.2c-0.1,0-0.2,0-0.2,0l0,0
			c-0.9-0.1-1.8-0.1-2.5,0.5s-0.7,1.6-0.7,2.5v1.5c-1.7-0.2-3.4-0.4-5.1-0.4c-0.6,0-1.2,0-1.8,0.1v-0.2v-0.1c-0.2-1.3-0.7-2.5-2-3
			c-0.4-0.2-0.8-0.2-1.3-0.2c-0.4,0-0.7,0.1-1.1,0.3c-0.7,0.3-1.3,0.9-1.4,1.7c0,0.1,0,0.2,0,0.2v26.4c0,0.1,0,0.2-0.1,0.3
			s-0.1,0.1-0.2,0.1c-0.1,0-0.1,0-0.2-0.1c-0.1-0.1-0.1-0.2-0.1-0.3V32.9c0-1.3-0.7-2.3-1.9-2.7c-0.4-0.1-0.8-0.2-1.2-0.2
			s-0.8,0.1-1.2,0.2c-1.2,0.4-1.9,1.4-1.9,2.7v25.8c0,0.1,0,0.2-0.1,0.3s-0.1,0.1-0.2,0.1l0,0l0,0c-0.1,0-0.1,0-0.2-0.1
			c-0.1-0.1-0.1-0.2-0.1-0.3l0,0V32.3l0,0c0-0.8-0.8-1.5-1.5-1.9c-0.3-0.2-0.7-0.3-1.1-0.3c-0.4,0-0.9,0-1.3,0.2
			c-1.2,0.5-1.8,1.7-1.9,3v0.1l-0.5,7.5c-8.4,6.5-13.9,16.8-13.9,28.4c0,13.6,7.5,25.4,18.5,31.4l-0.1,2.7l0,0
			c-0.2,2.3,0.5,4.5,2.5,5.7c0.8,0.4,1.6,0.7,2.5,0.7s1.7-0.2,2.5-0.7c1.8-1,2.7-2.8,2.7-4.8c2.1,0.4,4.3,0.6,6.5,0.6
			c2,0,4-0.2,5.9-0.5l0,0c-0.1,2,0.6,3.9,2.5,4.8c0.8,0.4,1.7,0.6,2.5,0.5c0.9,0,1.7-0.3,2.5-0.7c2.1-1.2,2.9-3.3,2.7-5.7
			c0-0.8-0.1-1.6-0.1-2.4C226.3,95.1,234,83.1,234,69.2z M182.4,98c-9.7-5.8-16.2-16.5-16.2-28.7c0-10.1,4.4-19.1,11.3-25.2
			l-0.9,13.8c-0.2,1.9-0.1,3.5,1.1,5c0.6,0.8,1.3,1.5,2,2.1s1.4,1.2,1.9,2c0.6,0.7,1.1,1.6,1.5,2.5c0.2,0.5,0.5,1.1,0.5,1.6
			L182.4,98z M190,68.5c-0.4,0.8-0.7,1.8-0.6,2.7l0.6,32.4l0,0l0,0c0.1,1.3-0.3,2.6-1.5,3.3c-0.4,0.2-0.9,0.4-1.3,0.4
			c-0.4,0-0.9-0.1-1.3-0.3c-1.2-0.7-1.4-2.1-1.3-3.4v-0.1l1.4-32.3c0-0.9-0.3-1.9-0.7-2.8c-0.5-1-1.1-2.1-1.8-3s-1.4-1.6-2.2-2.3
			c-1.7-1.5-2.6-2.6-2.3-5V58l1.6-24.5c0.1-0.4,0.2-1.1,0.6-1c0.1,0,0.3,0,0.3,0.1c0.1,0.1,0,0.7,0,0.9v25.1l0,0
			c0,0.7,0.3,1.4,0.8,1.9s1.1,0.8,1.8,0.9c0,0,0,0,0.1,0l0,0c0.7,0,1.4-0.3,1.9-0.9c0.5-0.5,0.8-1.2,0.8-2V32.8
			c0-0.2,0.1-0.3,0.3-0.4c0.1,0,0.2-0.1,0.4-0.1c0.1,0,0.2,0,0.3,0.1c0.2,0.1,0.3,0.2,0.3,0.4v25.8c0,0.7,0.3,1.5,0.8,2
			s1.2,0.9,1.9,0.9s1.4-0.3,1.9-0.9c0.5-0.5,0.8-1.2,0.8-2V33.5c0-0.2,0-0.9,0.1-1s0.3,0,0.4,0.1c0.3,0.1,0.4,0.7,0.5,1l1.6,24.5
			v0.1c0.3,2.5-0.6,3.5-2.3,5c-0.9,0.8-1.6,1.5-2.3,2.4C191,66.5,190.4,67.5,190,68.5z M198.9,102.5c-2.3,0-4.5-0.2-6.6-0.7
			l-0.6-30.7c0-0.5,0.2-1.2,0.4-1.7c0.4-0.8,0.8-1.7,1.4-2.4c0.6-0.8,1.3-1.4,2-2.1s1.5-1.3,2-2.1c1.1-1.5,1.3-3.2,1.1-5L197.3,36
			c0.6,0,1.1,0,1.7,0c1.7,0,3.5,0.1,5.1,0.4l0.8,65.7C202.9,102.3,200.9,102.5,198.9,102.5z M211.2,106.9c-0.4,0.2-0.9,0.4-1.4,0.4
			s-0.9-0.1-1.3-0.3c-0.9-0.5-1.2-1.5-1.2-2.5l0,0c0,0,0,0,0-0.1l-0.8-72.1l0,0c0-0.2,0-0.4,0-0.6c0.2,0,0.4,0,0.6,0
			c5.3,1.7,8.6,6,10.3,11.2c1.6,4.7,1.9,10,1.5,14.9c-0.4,4.3-1.4,9.2-3.2,13.1c-0.7,1.6-2.4,4.5-4.3,4.8l0,0c-0.6,0.1-1,0.6-1,1.2
			c-0.1,5,0.6,10,1.3,14.9c0.5,3.8,1.1,7.7,1.2,11.5c0,0,0,0.1,0,0.2C212.8,105,212.4,106.3,211.2,106.9z M214.7,98.4
			c-0.2-2.3-0.5-4.5-0.8-6.8c-0.6-4.5-1.2-9.1-1.3-13.6c2.4-0.9,4.1-3.7,5.2-5.9c2-4.2,3.1-9.4,3.5-14c0.4-4.7,0.1-9.8-1.2-14.4
			c7.1,6.1,11.6,15.2,11.6,25.4C231.7,81.8,224.8,92.7,214.7,98.4z M214.6,52.9c0.2,3.7-0.3,7.5-1.2,11c-0.2,0.7,0.2,1.4,0.9,1.6
			s1.3-0.2,1.5-0.9c1-3.8,1.5-7.8,1.3-11.8c-0.2-3.7-0.9-7.4-2.3-10.9c-0.3-0.6-1-1-1.6-0.7s-0.9,1-0.7,1.7
			C213.8,46,214.5,49.5,214.6,52.9z"/>
	</g>
</g>
<g>
	<path class="st1" d="M133.44,129.43c-0.4,2.3-0.79,4.43-1.15,6.41h5.9v2.05c-0.22,5.62-1.3,10.47-3.2,14.61
		c1.91,1.51,3.49,2.84,4.71,4.07l-2.56,2.95c-1.12-1.15-2.45-2.38-3.96-3.67c-1.73,2.74-3.85,5.08-6.44,7.09l-2.59-3.2
		c2.45-1.8,4.5-3.89,6.08-6.34c-1.62-1.33-3.38-2.7-5.29-4.1c1.04-3.02,1.98-6.3,2.84-9.83h-3.31v-3.64h4.1
		c0.43-2.2,0.83-4.46,1.19-6.77L133.44,129.43z M134.52,139.47h-2.99c-0.79,3.46-1.62,6.34-2.48,8.67c1.04,0.72,2.02,1.4,2.92,2.09
		C133.36,147.07,134.23,143.47,134.52,139.47z M146.57,144.08v-3.96c1.73-1.58,3.42-3.46,5.08-5.62h-11.73v-3.67h16.05v3.67
		c-1.66,2.38-3.53,4.64-5.62,6.77v2.81h6.88v3.67h-6.88v10.33c0,2.81-1.08,4.21-3.17,4.21h-5.4l-0.97-3.56
		c1.44,0.04,3.06,0.07,4.82,0.07c0.61,0,0.94-0.61,0.94-1.84v-9.21h-7.67v-3.67H146.57z"/>
	<path class="st1" d="M172.93,138.07v2.92c-1.08,1.8-2.38,3.56-3.82,5.36h4.18v2.45c-0.5,2.59-1.04,4.75-1.69,6.41
		c0.29,0.22,0.54,0.43,0.79,0.65c1.15,1.01,2.23,1.73,3.24,2.16c1.04,0.36,2.52,0.58,4.46,0.65c1.94,0.04,4.18,0.07,6.7,0.07
		c2.59,0,5.98-0.11,10.15-0.29l-0.86,3.53h-8.82c-2.45,0-4.9-0.07-7.31-0.14c-2.45-0.07-4.28-0.32-5.54-0.79
		c-1.51-0.58-2.84-1.44-4.07-2.63c-0.25-0.25-0.54-0.36-0.83-0.36c-0.65,0-1.76,1.55-3.28,4.64l-2.7-2.52
		c1.62-3.1,3.17-4.93,4.68-5.54c0.65-1.58,1.15-3.28,1.55-5.15h-5.08v-2.81c1.66-1.87,3.06-3.6,4.14-5.22h-4.71v-3.38H172.93z
		 M172.71,134.65l-2.41,2.41c-1.3-1.58-3.13-3.35-5.47-5.22l2.45-2.3C169.4,131.23,171.2,132.92,172.71,134.65z M195.82,136.66
		h-1.94v1.51h-7.13v1.33h7.45v11.23h-7.45v1.44h9.11v3.06h-9.11v2.95h-3.6v-2.95h-9.11v-3.06h9.11v-1.44h-7.49v-11.23h7.49v-1.33
		h-7.05v-1.33h-2.12v-6.37h21.85V136.66z M183.15,135.26v-1.76h-5.58v1.76H183.15z M183.15,143.83v-1.51h-3.89v1.51H183.15z
		 M183.15,146.45h-3.89v1.44h3.89V146.45z M186.75,135.26h5.47v-1.76h-5.47V135.26z M186.75,143.83h3.85v-1.51h-3.85V143.83z
		 M190.6,146.45h-3.85v1.44h3.85V146.45z"/>
	<path class="st1" d="M203.78,148.87v-3.38h32.14v3.38h-13.79v3.02h9.93v3.31h-9.93v3.46c1.62,0.14,3.49,0.22,5.58,0.22
		c3.2,0,5.9-0.07,8.1-0.14l-1.04,3.53c-2.52,0-4.79-0.04-6.8-0.07c-5.98-0.04-10.04-0.5-12.27-1.37c-1.73-0.72-3.24-2.12-4.61-4.14
		c-1.37,2.41-3.1,4.43-5.15,6.05l-2.45-3.13c3.24-2.52,5.4-5.83,6.55-10.01l3.56,0.61c-0.32,1.26-0.72,2.45-1.15,3.56
		c1.37,2.12,2.95,3.46,4.71,4.03c0.36,0.11,0.76,0.22,1.19,0.32v-9.25H203.78z M231.17,130.44v13.14h-22.53v-13.14H231.17z
		 M227.47,135.51v-1.91h-15.08v1.91H227.47z M227.47,138.46h-15.08v1.94h15.08V138.46z"/>
	<path class="st1" d="M243.74,147.53l-1.26-4.03c3.71-4.07,6.44-8.85,8.24-14.36l3.49,1.66c-0.94,2.81-2.16,5.47-3.67,7.99v23.9
		h-3.74v-18.57C245.83,145.27,244.82,146.42,243.74,147.53z M254.94,144.19l-3.24-2.02c2.66-4,4.54-8.24,5.62-12.74l3.53,0.76
		c-0.29,1.08-0.61,2.16-0.94,3.2h15.01v2.45c-0.54,2.16-1.22,4.28-2.05,6.41l-3.6-1.04c0.72-1.22,1.3-2.63,1.8-4.21h-12.45
		C257.53,139.62,256.3,142.03,254.94,144.19z M260.12,145.05c-1.26,4.93-2.88,9.25-4.82,12.96l-3.53-1.26
		c1.87-3.31,3.53-7.52,4.97-12.63L260.12,145.05z M258.03,162.44l-0.83-3.53c1.44,0.14,2.84,0.25,4.14,0.25
		c0.86,0,1.3-0.47,1.3-1.37v-18.32h3.64v19.22c0,2.48-1.22,3.74-3.67,3.74H258.03z M275.85,157.15l-3.31,1.48
		c-1.29-5.18-2.77-9.79-4.39-13.79l3.31-1.12C273.15,147.89,274.63,152.39,275.85,157.15z"/>
</g>
</svg>
