<?xml version="1.0" encoding="utf-8"?>
<!-- Generator: Adobe Illustrator 26.1.0, SVG Export Plug-In . SVG Version: 6.00 Build 0)  -->
<svg version="1.1" id="圖層_1" xmlns="http://www.w3.org/2000/svg" xmlns:xlink="http://www.w3.org/1999/xlink" x="0px" y="0px"
	 viewBox="0 0 401 194.8" style="enable-background:new 0 0 401 194.8;" xml:space="preserve">
<style type="text/css">
	.st0{fill:#FFFFFF;}
	.st1{fill:#C9973F;}
	.st2{fill-rule:evenodd;clip-rule:evenodd;fill:#FFFFFF;}
</style>
<g>
	<path class="st0" d="M82.2,74.4V79h-38v-4.7H49v-7.2h28.9v7.2L82.2,74.4L82.2,74.4z M52.1,48.5h-7.2V44h7.2v-1.7h5.6V44h4.5v4.5
		h-4.5V50h-5.6V48.5z M69.7,57.6c-0.6,1.1-1.4,2.2-2.1,3.1h12.5v4.8h-13v-4.2c-0.5,0.6-1,1.1-1.5,1.6c-0.5-0.8-1.6-2.4-2.5-3.6v2.6
		h-3.6V63h4.8v3.3H46.9V50.5h17.4v3.3h-4.7v1h3.6v2.8c2-2,3.4-4.8,4.2-7.8l5.1,1.2c-0.2,0.6-0.4,1.2-0.6,1.8h9.3v4.8H69.7z
		 M51.5,53.8v1h3.3v-1H51.5z M58.6,57.7h-7.1v1.2h7.1V57.7z M54.8,61.8h-3.3v1.1h3.3V61.8z M54.3,74.4H57v-3.1h-2.7V74.4z
		 M61.8,71.3v3.1h2.8v-3.1H61.8z M68.7,48.4h-5v-4.5h5v-1.7h5.6v1.7h7v4.5h-7V50h-5.6V48.4z M69.4,71.3v3.1h2.8v-3.1H69.4z"/>
	<path class="st0" d="M97.1,50.8c-0.6,2.9-2.4,5.6-6.3,7.4c-0.7-1.1-2.2-2.8-3.3-3.7c2.5-0.9,3.7-2.2,4.2-3.7h-4.5v-4.4h5v-3.7h5.2
		v3.7H99v-3.8h5v3.8h2.3v-3.8h5.2v3.8h1.6v-3.9h5.2v3.9h5v4.4h-5v0.5c0,1.2,0.1,1.6,0.7,1.6h1.9c0.7,0,1.8-0.1,2.4-0.3
		c0.1,1.3,0.2,3.2,0.4,4.4c-0.7,0.2-1.8,0.3-2.7,0.3h-2.5c-4.4,0-5.4-1.8-5.4-6.1v-0.4h-1.6v6H99v-6H97.1z M123,58.2v9.3h-3.8v5.4
		c0,2.4-0.5,3.8-2.2,4.6c-1.8,0.8-3.9,0.8-6.6,0.8c-0.2-1.5-1-3.6-1.8-5c1.5,0.1,3.6,0.1,4.2,0.1s0.8-0.1,0.8-0.6v-3h-5.7v10.4H102
		V69.8h-5v8.1h-5.6V67.5h-3.9v-9.3H123z M92.9,62.8v2.4h9.2v-1.8h5.8v1.8h9.6v-2.4C117.5,62.8,92.9,62.8,92.9,62.8z M104,50.8v1.8
		h2.3v-1.8H104z"/>
	<path class="st0" d="M165.2,73.3V79H129v-5.7h14.8v-6.6H133v-5.6h10.9v-5.9h-13.2v-5.7h14.9c-1.6-1.4-3.6-3-5.4-4.1L145,42
		c2.6,1.6,6.1,4,7.9,5.9l-2.2,1.6h12.5v5.7h-13v5.9h10.9v5.6h-10.9v6.6H165.2z"/>
	<path class="st0" d="M208.1,45.6v4.8H178v7.3c0,6.6-0.6,16.8-3.7,23.1c-0.9-1-3.3-2.8-4.4-3.3c2.6-5.6,2.8-13.9,2.8-19.8V45.6h14.8
		c-0.4-0.7-0.8-1.3-1.3-1.9l4.6-2c1,1.1,2,2.5,2.6,3.8h14.7V45.6z M193.5,73.8l0.1,4.4c-5.4,0.6-11.1,1.3-15.4,1.7l-0.8-4.6
		c2.3-0.2,5.3-0.4,8.4-0.7c0.6-1.6,1.1-3.5,1.4-4.9l4.8,0.8c-0.5,1.2-1,2.5-1.4,3.6L193.5,73.8z M188.4,51v1.6h4.9v3.8h-4.9v0.9h4.3
		v3.8H179v-3.8h4.2v-0.9h-4.8v-3.8h4.8V51H188.4z M192.5,69.5h-13.3v-7.3h13.3V69.5z M180.4,75c-0.1-1.1-0.6-2.9-1.2-4.3l4.4-0.9
		c0.6,1.3,1.2,3,1.4,4.2L180.4,75z M187.6,65.2h-3.9v1.2h3.9V65.2z M195.4,72c-0.2-2.2-1.3-5.8-2.4-8.5l4.3-1.3
		c1.2,2.6,2.3,6.1,2.7,8.3L195.4,72z M205.5,56.3h2.6v4.8h-2.6v13.5c0,2.6-0.5,3.9-2.1,4.8c-1.6,0.8-3.8,0.9-6.8,0.9
		c-0.2-1.4-0.9-3.7-1.6-5.1c1.7,0.1,3.7,0.1,4.3,0c0.6,0,0.8-0.2,0.8-0.7V61.1h-6.3v-4.8h6.3v-5.2h5.3v5.2H205.5z"/>
	<path class="st0" d="M226.7,71.6c2.4-0.4,4.8-0.8,7.2-1.2l0.3,5c-7,1.3-14.6,2.6-20.2,3.6l-1.2-5.3c2.4-0.3,5.2-0.7,8.4-1.2v-4.6
		h-7v-5h7v-3.2h5.5v3.2h6.8v5h-6.8V71.6z M213.3,44.4h21.1v5h-4.9c1.9,2.5,3.9,5.6,4.8,7.8l-4.4,2.8c-0.2-0.5-0.4-1-0.7-1.6
		c-10.3,0.8-12.1,0.9-13.4,1.4c-0.3-1.1-1.2-3.7-1.8-5.2c0.6-0.2,1.3-0.8,1.9-1.7c0.4-0.5,1.1-1.9,1.8-3.6h-4.3v-4.9H213.3z
		 M226.6,53.8c-0.6-1-1.3-1.9-1.9-2.8l2.7-1.6h-3.6c-0.8,1.6-1.8,3.2-2.8,4.7L226.6,53.8z M240.9,70.4h-5.4V46.1h5.4V70.4z
		 M248.7,42.6v30.9c0,2.8-0.5,4.3-2.2,5.2c-1.7,0.9-4.1,1.1-7.3,1.1c-0.2-1.5-1.2-4-2-5.5c2,0.1,4.2,0.1,4.8,0.1c0.7,0,1-0.2,1-0.9
		V42.6H248.7z"/>
	<path class="st0" d="M267.4,44.1c-1,2.6-2.2,5.4-3.6,8v28h-5.5V60.8c-0.6,0.8-1.3,1.6-2,2.3c-0.5-1.4-2.1-4.7-3-6.1
		c3.4-3.5,6.8-9,8.7-14.5L267.4,44.1z M281.8,54.5v19.4c0,2.6-0.4,4.2-2,5.2c-1.6,0.9-3.6,1.2-6.3,1.2c-0.2-1.7-1.1-4.3-2-5.8
		c1.6,0,3.2,0,3.8,0c0.5,0,0.7-0.1,0.7-0.6V54.5h-3.8c-1.2,2.2-2.4,4.2-3.7,5.7c-1-1-3.4-3-4.7-3.8c3.1-3.2,5.6-8.6,7-14l5.7,1.3
		c-0.5,1.8-1.1,3.7-1.8,5.4h12.5L288,49l4.1,0.7c-0.4,3.4-1.2,7.3-1.7,9.8l-5-0.9c0.2-1.1,0.4-2.6,0.5-4.2h-4.1V54.5z M275,61.8
		c-1.1,5-3.1,10.1-5.2,13.3c-1.1-0.9-3.6-2.4-4.9-3.1c2.1-2.7,3.7-7.1,4.5-11.4L275,61.8z M287.6,60.1c2,4.1,3.5,9.3,4,12.9l-5.6,2
		c-0.3-3.5-1.8-9-3.6-13.1L287.6,60.1z"/>
	<path class="st0" d="M330.5,62.6c-1.4,1.1-3,2.2-4.6,3.3c1.4,4.3,4.2,8,8.6,9.8c-1.3,1.1-3,3.3-3.8,4.8c-4.6-2.3-7.5-6.4-9.4-11.7
		l-0.8,0.5c1,4.6,0,9-2,10.8c-1.5,1.6-2.9,2.1-5.1,2.1c-0.9,0-2,0-3.2,0c-0.1-1.5-0.5-3.7-1.5-5.2c-3.1,1.5-6.4,2.8-9.3,3.7
		c-0.6-1.4-1.9-3.5-3-4.8c6.3-1.4,13.9-4.6,17.9-7.8c-0.1-0.3-0.2-0.6-0.3-0.8c-4,2.4-9.8,4.9-14.2,6.3c-0.6-1.3-1.8-3.2-2.8-4.4
		c4.9-1,11.4-3.3,14.8-5.5c-0.2-0.2-0.4-0.5-0.6-0.7c-3.4,1.7-7.2,3-10.8,3.9c-0.6-1.1-2-3.4-2.9-4.5c4.2-0.8,8.5-2,12-3.6H304v-4.9
		h22v4.9h-8.3c-0.6,0.6-1.4,1.2-2.2,1.7c1.3,1.3,2.4,2.7,3.2,4.2c2.5-1.8,5.1-3.9,7-5.8L330.5,62.6z M303.2,56.8h-5.7v-9.6h14.3
		c-0.2-0.6-0.5-1.2-0.7-1.7l6.2-1.8c0.6,1,1.2,2.3,1.6,3.5h13.9v9.6h-6v-4.4h-23.6L303.2,56.8L303.2,56.8z M314.2,75.9
		c0.4-0.4,0.7-1.3,0.8-2.5c-1.8,1.2-3.8,2.3-6,3.4c1.2,0.1,2.3,0.2,3.2,0.2C313.1,76.9,313.7,76.8,314.2,75.9z"/>
	<path class="st0" d="M340.5,77.6c-0.8-0.8-1.3-1.8-1.3-2.9c0-1.2,0.4-2.2,1.3-3c0.8-0.8,1.9-1.2,3.3-1.2c1.3,0,2.4,0.4,3.2,1.2
		c0.8,0.8,1.3,1.8,1.3,3s-0.4,2.1-1.3,2.9c-0.8,0.8-1.9,1.2-3.2,1.2C342.4,78.8,341.4,78.4,340.5,77.6z M347.8,46.1l-0.9,21.3h-6.4
		l-0.9-21.3C339.6,46.1,347.8,46.1,347.8,46.1z"/>
</g>
<g>
	<path class="st1" d="M81.1,92.6V133h-9.9v-16.7H55.9V133H46V92.6h9.9v15.9h15.3V92.6H81.1z"/>
	<path class="st1" d="M112.7,125.9H97.6l-2.4,7.2H84.8l14.6-40.5h11.4l14.6,40.5H115L112.7,125.9z M110.1,118.3l-5-14.8l-5,14.8
		H110.1z"/>
	<path class="st1" d="M138.9,92.6v24.2c0,2.4,0.6,4.3,1.8,5.6c1.2,1.3,2.9,2,5.2,2s4.1-0.7,5.3-2s1.8-3.2,1.8-5.6V92.6h9.9v24.2
		c0,3.6-0.8,6.7-2.3,9.2c-1.5,2.5-3.6,4.4-6.2,5.7c-2.6,1.3-5.5,1.9-8.7,1.9s-6-0.6-8.6-1.9c-2.5-1.2-4.5-3.1-6-5.7
		c-1.5-2.5-2.2-5.6-2.2-9.2V92.6H138.9z"/>
	<path class="st1" d="M175.8,132c-2.3-1-4.2-2.4-5.6-4.3c-1.4-1.9-2.1-4.2-2.2-6.8h10.5c0.2,1.5,0.7,2.6,1.6,3.4
		c0.9,0.8,2,1.2,3.5,1.2s2.6-0.3,3.5-1c0.8-0.7,1.3-1.6,1.3-2.8c0-1-0.3-1.8-1-2.5s-1.5-1.2-2.5-1.6s-2.4-0.9-4.2-1.4
		c-2.6-0.8-4.7-1.6-6.4-2.4s-3.1-2-4.3-3.6s-1.8-3.6-1.8-6.2c0-3.8,1.4-6.7,4.1-8.9c2.7-2.1,6.3-3.2,10.7-3.2
		c4.5,0,8.1,1.1,10.8,3.2s4.2,5.1,4.4,8.9h-10.7c-0.1-1.3-0.6-2.3-1.4-3.1c-0.9-0.7-2-1.1-3.4-1.1c-1.2,0-2.2,0.3-2.9,1
		c-0.7,0.6-1.1,1.5-1.1,2.7c0,1.3,0.6,2.3,1.8,3.1c1.2,0.7,3.2,1.5,5.8,2.4s4.7,1.7,6.4,2.5c1.6,0.8,3,2,4.2,3.5s1.8,3.5,1.8,5.9
		c0,2.3-0.6,4.4-1.8,6.3s-2.9,3.4-5.1,4.5c-2.2,1.1-4.9,1.7-7.9,1.7C180.8,133.4,178.2,133,175.8,132z"/>
	<path class="st1" d="M47,154.3c1.7-3.1,4.1-5.6,7.2-7.3c3.1-1.7,6.6-2.6,10.5-2.6c4.8,0,8.9,1.3,12.3,3.8s5.7,6,6.9,10.4H73.1
		c-0.8-1.7-2-3-3.4-3.9c-1.5-0.9-3.2-1.3-5-1.3c-3,0-5.5,1.1-7.4,3.2c-1.9,2.1-2.8,4.9-2.8,8.5c0,3.5,0.9,6.4,2.8,8.5
		c1.9,2.1,4.3,3.2,7.4,3.2c1.9,0,3.6-0.4,5-1.3c1.5-0.9,2.6-2.2,3.4-3.9h10.8c-1.2,4.4-3.4,7.8-6.9,10.4c-3.4,2.5-7.5,3.8-12.3,3.8
		c-3.9,0-7.4-0.9-10.5-2.6c-3.1-1.7-5.5-4.2-7.2-7.3s-2.6-6.7-2.6-10.7C44.4,161,45.3,157.4,47,154.3z"/>
	<path class="st1" d="M98.9,144.8V169c0,2.4,0.6,4.3,1.8,5.6c1.2,1.3,2.9,2,5.2,2s4.1-0.7,5.3-2c1.2-1.3,1.8-3.2,1.8-5.6v-24.2h9.9
		V169c0,3.6-0.8,6.7-2.3,9.2s-3.6,4.4-6.2,5.7s-5.5,1.9-8.7,1.9s-6-0.6-8.6-1.9c-2.5-1.2-4.5-3.1-6-5.7c-1.5-2.5-2.2-5.6-2.2-9.2
		v-24.2H98.9z"/>
	<path class="st1" d="M139,144.8v40.5h-9.9v-40.5H139z"/>
	<path class="st1" d="M152.1,184.2c-2.3-1-4.2-2.4-5.6-4.3c-1.4-1.9-2.1-4.2-2.2-6.8h10.5c0.2,1.5,0.7,2.6,1.6,3.4
		c0.9,0.8,2,1.2,3.5,1.2s2.6-0.3,3.5-1c0.8-0.7,1.3-1.6,1.3-2.8c0-1-0.3-1.8-1-2.5s-1.5-1.2-2.5-1.6c-1-0.4-2.4-0.9-4.2-1.4
		c-2.6-0.8-4.7-1.6-6.4-2.4c-1.7-0.8-3.1-2-4.3-3.6s-1.8-3.6-1.8-6.2c0-3.8,1.4-6.7,4.1-8.9c2.7-2.1,6.3-3.2,10.7-3.2
		c4.5,0,8.1,1.1,10.8,3.2c2.7,2.1,4.2,5.1,4.4,8.9h-10.7c-0.1-1.3-0.6-2.3-1.4-3.1c-0.9-0.7-2-1.1-3.4-1.1c-1.2,0-2.2,0.3-2.9,1
		c-0.7,0.6-1.1,1.5-1.1,2.7c0,1.3,0.6,2.3,1.8,3.1c1.2,0.7,3.2,1.5,5.8,2.4s4.7,1.7,6.4,2.5c1.6,0.8,3,2,4.2,3.5s1.8,3.5,1.8,5.9
		c0,2.3-0.6,4.4-1.8,6.3c-1.2,1.9-2.9,3.4-5.1,4.5c-2.2,1.1-4.9,1.7-7.9,1.7C157.1,185.7,154.5,185.2,152.1,184.2z"/>
	<path class="st1" d="M190,144.8v40.5h-9.9v-40.5H190z"/>
	<path class="st1" d="M232.6,185.3h-9.9l-16.5-25v25h-9.9v-40.5h9.9l16.5,25.1v-25.1h9.9V185.3z"/>
	<path class="st1" d="M248.9,152.7v8.2h13.2v7.6h-13.2v8.9h14.9v7.9H239v-40.5h24.8v7.9L248.9,152.7L248.9,152.7z"/>
</g>
<g>
	<g>
		<path class="st2" d="M316.5,172.6c-0.9,0-1.7,0.7-1.7,1.6v7.9c0,0.9,0.8,1.6,1.7,1.6c0.9,0,1.7-0.7,1.7-1.6v-7.9
			C318.2,173.4,317.4,172.6,316.5,172.6z M302.7,172.6c-0.9,0-1.7,0.7-1.7,1.6v7.9c0,0.9,0.8,1.6,1.7,1.6s1.7-0.7,1.7-1.6v-7.9
			C304.4,173.4,303.6,172.6,302.7,172.6z M330.3,172.6c-0.9,0-1.7,0.7-1.7,1.6v7.9c0,0.9,0.8,1.6,1.7,1.6c0.9,0,1.7-0.7,1.7-1.6
			v-7.9C332,173.4,331.2,172.6,330.3,172.6z M347.2,139.3c-3.3-3-7.6-4.6-12.1-4.6c-0.7,0-1.5,0.1-2.2,0.1c-0.1,0-0.3,0-0.4,0.1
			c-0.3,0-0.5-0.1-0.7-0.3c-1.3-2.4-3.2-4.4-5.6-5.8c-2.9-1.8-6.2-2.8-9.7-2.8c-3.4,0-6.8,0.9-9.7,2.8c-2.3,1.5-4.3,3.5-5.6,5.8
			c-0.1,0.2-0.4,0.4-0.7,0.3c-0.1,0-0.3,0-0.4-0.1c-0.7-0.1-1.5-0.1-2.2-0.1c-4.5,0-8.9,1.6-12.1,4.6s-5.1,7-5.1,11.2
			c0,3.4,1.2,6.6,3.3,9.3c1.8,2.3,4.3,4.1,7.1,5.2c0.2,0.1,0.4,0.3,0.4,0.6V186c0,1.3,0.6,2.5,1.5,3.3c0.9,0.9,2.2,1.4,3.5,1.4h40.1
			c1.3,0,2.6-0.5,3.5-1.4c1-0.9,1.5-2.1,1.5-3.3v-20.3c0-0.3,0.2-0.5,0.4-0.6c2.8-1.1,5.2-2.9,7.1-5.2c2.1-2.7,3.3-5.9,3.3-9.3
			C352.3,146.2,350.4,142.2,347.2,139.3z M346.5,158.1c-1.8,2.2-4.2,3.9-7,4.7c-0.5,0.2-0.9,0.6-1,1c0,0,0,0.1-0.1,0.1v22
			c0,0.5-0.2,0.9-0.5,1.2c-0.4,0.3-0.9,0.5-1.4,0.5h-40.1c-0.5,0-1-0.2-1.4-0.5c-0.3-0.3-0.5-0.7-0.5-1.2v-21.8
			c0-0.7-0.5-1.3-1.2-1.4c0,0,0,0-0.1,0c-2.7-0.9-5.1-2.5-6.8-4.7c-1.7-2.2-2.6-4.8-2.6-7.5c0-3.5,1.5-6.7,4.1-9.1
			c2.7-2.5,6.3-3.8,10-3.8c0.6,0,1.2,0,1.8,0.1c0.6,0.1,1.2,0.2,1.8,0.3c0.8,0.2,1.6-0.2,1.9-0.9l0,0c1-2.4,2.9-4.5,5.1-6
			c2.4-1.5,5.1-2.3,8-2.3c2.8,0,5.6,0.8,8,2.3c2.3,1.5,4.1,3.5,5.2,6c0.2,0.6,0.8,0.9,1.5,0.9h0.1l0.2-0.1c0.6-0.1,1.2-0.3,1.8-0.3
			c0.6-0.1,1.2-0.1,1.8-0.1c3.7,0,7.3,1.3,10,3.8c2.6,2.4,4.1,5.6,4.1,9.1C349.1,153.3,348.2,155.9,346.5,158.1z"/>
	</g>
</g>
</svg>
