<?xml version="1.0" encoding="utf-8"?>
<!-- Generator: Adobe Illustrator 24.1.1, SVG Export Plug-In . SVG Version: 6.00 Build 0)  -->
<svg version="1.1" id="レイヤー_1" xmlns="http://www.w3.org/2000/svg" xmlns:xlink="http://www.w3.org/1999/xlink" x="0px"
	 y="0px" width="207px" height="193px" viewBox="0 0 207 193" style="enable-background:new 0 0 207 193;" xml:space="preserve">
<style type="text/css">
	.st0{fill-rule:evenodd;clip-rule:evenodd;fill:#C7B5AB;}
	.st1{fill:#C7B5AB;}
</style>
<g id="レイヤー_1_1_">
</g>
<g id="design">
	<g>
		<g>
			<path class="st0" d="M204.7,120.1c-6.7-1.2-14.7,2.1-21.5,3.5c-8.2,1.7-16.3,3.5-24.4,5.3c-16.2,3.7-32.4,7.8-48.4,12.3
				c-35.2,9.8-70.1,21.4-101.9,39.3c-2.4,1.3-4.9,2.9-6,5.4c-1.2,2.5-0.1,6.1,2.6,6.6c2.9,0.6,5-2.6,7.1-4.8c1.9-2.1,4.5-3.5,7-4.9
				c22.2-12.2,46.2-20.8,70.5-28.3c18.6-5.7,37.4-10.8,56.4-15.3c16.9-4,36.6-9.9,53.2-9.9c1.4,0,2.8,0,4.2,0
				c0.7-0.9,2.5-2.3,3.5-2.8C206.7,123.2,205.7,122.3,204.7,120.1z"/>
		</g>
	</g>
</g>
<g>
	<g>
		<path class="st1" d="M-144.8,108.5c0-2.9-0.2-3.5-1.9-4.5c-1-0.7-3.7,0.6-5.2,1.3c-0.2,0.6-0.4,1.3-0.6,1.9h-3.2
			c-0.2,0.4-0.4,0.9-0.6,1.3h-1.9v0.6c-1.9,0.4-3.9,0.9-5.8,1.3v0.6h-3.9v0.6h-3.9v0.6c-2.2,0.4-4.3,0.9-6.5,1.3v0.6h-1.9v0.6h-2.6
			v0.6h-1.3c-0.2,0.4-0.4,0.9-0.6,1.3h-2.6v0.6c-1.3,0.2-2.6,0.4-3.9,0.6c0.3-2.8,1.9-4.1,3.2-5.8h0.6v-0.6h-0.6
			c0.4-0.9,1-0.9,1.3-1.3v-1.3h0.6c0.9-1.1,1.1-1.3,1.3-3.2h1.3c0.3-2,0.4-2.1,1.3-3.2h0.6v-1.3c0.4-0.2,0.9-0.4,1.3-0.6v-1.9
			c0.9-0.6,1.7-1.3,2.6-1.9v-1.3c0.4-0.2,0.9-0.4,1.3-0.6c0.2-0.9,0.4-1.7,0.6-2.6c0.4-0.2,0.9-0.4,1.3-0.6v-1.3
			c0.6-0.4,1.3-0.9,1.9-1.3v-1.3c0.4-0.2,0.9-0.4,1.3-0.6v-1.3c0.4-0.2,0.9-0.4,1.3-0.6v-1.3c0.4-0.2,0.9-0.4,1.3-0.6v-1.9
			c0.4-0.2,0.9-0.4,1.3-0.6v-1.3c0.4-0.6,2.1-0.9,1.9-1.9h-0.6v-0.6h1.3c0.2-1.1,0.4-2.2,0.6-3.2c0.4-0.2,0.9-0.4,1.3-0.6v-1.9
			c0.4-0.2,0.9-0.4,1.3-0.6c-0.2-0.4-0.4-0.9-0.6-1.3c0.6-0.4,1.3-0.9,1.9-1.3c0.8-1.6-0.1-3.2,0.6-4.5c0.4-0.2,0.9-0.4,1.3-0.6
			c0.2-1.5,0.4-3,0.6-4.5h0.6c0.4-1.3,0.9-2.6,1.3-3.9h0.6v-3.9c0.7-2,2.4-6.2,1.3-9.7h-0.6v-5.2h-0.6v-1.9
			c-0.4-0.2-0.9-0.4-1.3-0.6v-1.3h-0.6v-1.3h-0.6c-1.1-1.3-2.2-2.6-3.2-3.9c-1.1-0.2-2.2-0.4-3.2-0.6v-0.6c-3.2-1-7.3,1.3-9.1,1.9
			h-2.6c-0.2,0.4-0.4,0.9-0.6,1.3h-1.3v0.6h-1.3v0.6c-0.6,0.2-1.3,0.4-1.9,0.6v1.3h-1.9c-0.2,0.6-0.4,1.3-0.6,1.9h-0.6v1.3
			c-1.1,0.9-2.2,1.7-3.2,2.6v1.3c-0.9,0.6-1.7,1.3-2.6,1.9v2.6h-0.6c0.2,0.6,0.4,1.3,0.6,1.9c1.3,0.4,0.6-0.1,1.3,0.6
			c5.5,0,2.4-0.4,3.9-3.9c0.7-1.6,2.1-1.8,2.6-3.9h1.3c0.7-2.2,2.2-2.1,3.2-3.9h1.3v-1.3c1.5-0.2,1.7-0.1,2.6-0.6v-0.6h2.6v-0.6h5.2
			c0.1,0,0.2-1,1.3-0.6c0.2,0.4,0.4,0.9,0.6,1.3h1.3c0.4,1.3,0.9,2.6,1.3,3.9c0.4,0.2,0.9,0.4,1.3,0.6c0.2,2.6,0.4,5.2,0.6,7.8h0.6
			v2.6h-0.6v2.6h-0.6v1.3h-0.6V54h-0.6c-0.2,1.5-0.4,3-0.6,4.5h-1.3c-0.4,3.8-2.3,5.2-2.6,9.1h-1.3c-0.8,6.9-5.9,9.5-7.1,15.6h-1.3
			v0.6h-0.6v1.9c-0.4,0.2-0.9,0.4-1.3,0.6v1.3c-0.4,0.2-0.9,0.4-1.3,0.6v1.9h-1.3c-0.5,1.7-1.6,3.4-2.6,4.5
			c-0.4,0.2-0.9,0.4-1.3,0.6v1.9h-0.6c-0.2,0.6-0.4,1.3-0.6,1.9l-1.9,1.3v1.9c-0.4,0.2-0.9,0.4-1.3,0.6c-1.1,1.7-1.8,3.3-2.6,5.2
			h-1.3c-0.2,1.1-0.4,2.2-0.6,3.2c-0.4,0.2-0.9,0.4-1.3,0.6v1.9c-0.4,0.2-0.9,0.4-1.3,0.6c-1.4,1.6-2.9,3.2-3.2,5.8h-1.3
			c-0.5,1.7-1,2.1-1.9,3.2h-0.6c-1.9,2.7-2,4.3-1.3,7.8h3.2c1.5-1.7,3-3.5,4.5-5.2h1.3c0.2-0.4,0.4-0.9,0.6-1.3
			c0.9-0.2,1.7-0.4,2.6-0.6v-0.6c0.9-0.2,1.7-0.4,2.6-0.6v-0.6h1.9v-0.6h1.3v-0.6c1.9-0.4,3.9-0.9,5.8-1.3v-0.6h1.3v-0.6
			c1.3-0.2,2.6-0.4,3.9-0.6v-0.6c3.9-0.4,7.8-0.9,11.7-1.3v-0.6h1.9c0.2-0.4,0.4-0.9,0.6-1.3h2.6v-0.6h1.9v-0.6h1.3v-0.6h2.6
			c0.2-0.4,0.4-0.9,0.6-1.3c0.9-0.2,1.7-0.4,2.6-0.6c0.2-0.4,0.4-0.9,0.6-1.3h3.2C-144.6,108.9-145.7,108.8-144.8,108.5z
			 M-105.2,29.3c-0.2,0-0.2-0.9-1.3-0.6v0.6h-1.9v0.6h-1.3v0.6h-7.1v0.6h-2.6v0.6h-1.9v0.6h-1.9v0.6h-1.9v0.6
			c-1.9,0.2-3.9,0.4-5.8,0.6c-1.3,1.1-2.6,2.2-3.9,3.2c-0.2,1.1-0.4,2.2-0.6,3.2c0,0,0.9,0.7,0.6,1.9h-0.6v3.9h-0.6v3.2h-0.6v10.4
			h-0.6v2.6h-0.6V65h-0.6v3.2c-0.2,0.4-0.9,0-1.3,1.9h0.6v1.9c0.2,0.3,0.9,0.5,1.3,1.3h3.2c1.7-3.2,3.5-6.5,5.2-9.7
			c1.9-0.4,3.9-0.9,5.8-1.3c0.2,0.4,0.4,0.9,0.6,1.3c1.7,0.2,3.5,0.4,5.2,0.6V65h1.3v0.6c0.6,0.2,1.3,0.4,1.9,0.6
			c0.4,1.5,0.5,1.6,1.3,2.6h0.6c0.2,0.9,0.4,1.7,0.6,2.6h0.6v2.6h-0.6v8.4h-0.6c-0.4,1.9-0.9,3.9-1.3,5.8c-2.4,5.3-8.2,9.2-16.2,9.1
			v0.6h-0.6c0.2,1.3,0.4,2.6,0.6,3.9c1.3,0.4,0.6-0.1,1.3,0.6c7.3-0.1,10.1-2.4,14.9-4.5c0.2-0.6,0.4-1.3,0.6-1.9h1.3
			c0.5-3.3,1-1.8,2.6-3.9h0.6v-1.9h0.6v-1.3h0.6c0.2-2.2,0.4-4.3,0.6-6.5h0.6c0.2-3.7,0.4-7.4,0.6-11h-0.6v-3.2h-0.6
			c-0.2-0.9-0.4-1.7-0.6-2.6h-0.6c-0.2-1.1-0.4-2.2-0.6-3.2h-0.6c-0.4-0.6-0.9-1.3-1.3-1.9c-5-1.5-10-3-14.9-4.5v0.6h-1.9v0.6h-2.6
			v0.6h-0.6c0.2-4.1,0.4-8.2,0.6-12.3c0.5-1.4,1.6-2.7,1.9-4.5c2-0.5,2.8-1.1,4.5-1.9v-0.6h3.2v-0.6h1.3v-0.6h1.9v-0.6h8.4v-0.6h1.9
			v-0.6h3.2v-0.6c0.6-0.2,1.3-0.4,1.9-0.6v-4.5H-105.2z"/>
	</g>
</g>
<g>
	<g>
		<path class="st1" d="M331.1,154.3v-0.4c-1.1,0.3-2.1,0.5-3.2,0.8c-0.3,0.4-0.5,0.8-0.8,1.2h-2v0.4h-0.8v0.4h-2v0.4h-1.2v0.4h-3.2
			v0.4H315v0.4h-2v0.4h-2v0.4h-2v0.4h-0.8v0.4c-1.6,0.3-3.2,0.5-4.7,0.8c0.1-0.5,0.3-1.1,0.4-1.6h0.8c0.2-0.9,0.3-1,0.8-1.6h0.4
			v-0.8c0.3-0.1,0.5-0.3,0.8-0.4v-0.8c0.5-0.4,1.1-0.8,1.6-1.2c0.1-0.5,0.3-1.1,0.4-1.6c0.5-0.3,1.1-0.5,1.6-0.8v-1.2h0.8
			c0.3-1.9,0.6-1.2,1.6-2.4h0.4v-0.8c0.4-0.3,0.8-0.5,1.2-0.8V146l0.8-0.4v-0.8h0.4l0.8-1.2h0.8c0.3-1.3,0.9-1.5,1.2-2.8h0.8v-1.2
			c0.8-0.2,0.3,0.1,0.8-0.4h0.4v-1.2h0.8c0.5-1.8,1.7-2.3,2-4.3h0.8v-1.6c0.8-0.2,0.3,0.1,0.8-0.4h0.4v-1.6h0.4v-0.8
			c0.4-0.3,0.8-0.5,1.2-0.8c0.1-0.8,0.3-1.6,0.4-2.4h0.4v-0.8l0.8-0.4V124h0.4v-1.2h0.4c0.8-2,0.8-4.3,0.8-7.1v-3.5h-0.4v-0.8h-0.4
			v-1.2c-0.3-0.1-0.5-0.3-0.8-0.4V109c-0.7-0.5-1.3-1.1-2-1.6V107c-1-0.6-0.7,0.4-1.6-0.8c-3.7,0.1-5.4,0.5-7.9,1.6h-1.2
			c-0.1,0.3-0.3,0.5-0.4,0.8h-0.8v0.4c-0.5,0.4-0.7,0.3-1.6,0.4v1.2h-0.4c-1,1.3-1.9,1.1-2.4,3.2c-0.4,0.1-0.8,0.3-1.2,0.4
			c-0.2,0.5-0.2-0.1-0.4,0.4v1.2h-0.4c0.1,0.9,0.2,1,0.4,1.6c1.5,0.3,1.6,0.3,3.2,0c-0.1-1.7-0.2-2.4,1.2-2.8
			c0.3-1.1,0.4-1.3,1.6-1.6v-0.8c0.4-0.1,0.8-0.3,1.2-0.4v-0.4h1.2c0.1-0.3,0.3-0.5,0.4-0.8c0.5-0.1,1.1-0.3,1.6-0.4v-0.4h1.6v-0.4
			h3.5c0.1,0.3,0.3,0.5,0.4,0.8h0.8c0.2,1.2,0.7,2.1,1.2,3.2h0.4c0.5,1.3,0,6.7-0.4,7.5h-0.4v0.8h-0.4c-0.1,1.1-0.3,2.1-0.4,3.2
			h-0.4c-0.1,0.5-0.3,1.1-0.4,1.6c-0.3,0.1-0.5,0.3-0.8,0.4c-0.1,0.5-0.3,1.1-0.4,1.6c-0.3,0.1-0.5,0.3-0.8,0.4
			c-0.3,0.9-0.5,1.8-0.8,2.8c-0.3,0.1-0.5,0.3-0.8,0.4c-0.3,0.8-0.5,1.6-0.8,2.4c-0.3,0.1-0.5,0.3-0.8,0.4c-0.1,0.5-0.3,1.1-0.4,1.6
			c-0.3,0.1-0.5,0.3-0.8,0.4c-0.1,0.4-0.3,0.8-0.4,1.2h-0.4c-0.1,0.4-0.3,0.8-0.4,1.2h-0.8c-0.1,1.4-0.3,1.7-1.6,2v1.2
			c-1.6,0.4-0.5,0.1-1.2,1.2h-0.4v0.8c-0.7,0.5-1.3,1.1-2,1.6v0.8c-0.5,0.4-1.1,0.8-1.6,1.2v0.8l-0.8,0.4v0.8
			c-0.2,0.3-0.5,0.3-0.8,0.8h-0.8c-0.1,0.9,0,1.1-0.4,1.6h-0.4c-0.7,1,0.4,0.8-1.2,1.2v1.2c-1.7,0.5-1.2,1.2-2,2.4
			c-0.3,0.1-0.5,0.3-0.8,0.4v0.8c-0.3,0.1-0.5,0.3-0.8,0.4c-0.7,0.8-2.1,2.4-2.4,3.5c-1.5,0.4-3.2,2.5-3.5,3.9h-0.4
			c0.1,0.8,0.3,1.6,0.4,2.4h2c0.5-0.7,1.1-1.3,1.6-2c0.5-0.1,1.1-0.3,1.6-0.4c0.1-0.3,0.3-0.5,0.4-0.8h0.8v-0.4h0.8v-0.4
			c0.8-0.1,1.6-0.3,2.4-0.4v-0.4h1.2V163h1.2v-0.4c1.4-0.3,2.9-0.5,4.3-0.8v-0.4h1.6V161c2.8-0.1,5.5-0.3,8.3-0.4v-0.4h0.8v-0.4h1.6
			v-0.4h1.2V159h2.4l0.4-0.8h1.2v-0.4c0.8-0.4,1.6-0.4,2.8-0.4v-0.4h0.4C331.9,155.6,331.9,154.9,331.1,154.3z M361,125.5v-2h-0.4
			v-0.8h-0.4v-1.6h-0.4c-0.4-1.6-0.1-0.5-1.2-1.2v-0.4h-0.8c-0.5-0.7-1.1-1.3-1.6-2h-1.2v-0.4H350v0.4h-0.8v0.4h-3.9
			c-0.3,0.4-0.5,0.8-0.8,1.2h-1.2v0.4c-1.2,1-2.8,2.5-3.2,4.3h-0.8c-0.1,0.4-0.3,0.8-0.4,1.2h-0.4v0.8h-0.4
			c-0.1,0.8-0.3,1.6-0.4,2.4c-1.1,2.8-2.2,6-3.2,9.1c-0.5,1.7,0.1,5.3,0.8,5.9c0.8,3,5.3,4.5,9.1,3.2h1.2V146h0.8l0.4-0.8h0.8
			c0.1-0.3,0.3-0.5,0.4-0.8h0.8v-0.4c0.5-0.4,0.7-0.3,1.6-0.4c0.6-2.1,3.9-2.7,5.1-4.7h0.8c0.3-1.1,0.1-0.9,1.2-1.2
			c0.4-1.2,0.8-2.4,1.2-3.5l0.8-0.4c0.5-1.6,1.1-3.2,1.6-4.7c0.3-0.1,0.5-0.3,0.8-0.4C362.2,127.8,361.2,126,361,125.5z
			 M357.9,128.7v1.2c-0.3,0.1-0.5,0.3-0.8,0.4v1.2c-0.5,1.1-1,1.2-1.2,2.8h-0.8c-0.4,3.3-2.8,2.6-3.5,5.1c-0.8,0.1-1.6,0.3-2.4,0.4
			v0.8c-0.4,0.1-0.8,0.3-1.2,0.4l-0.4,0.8h-0.8c-0.1,0.3-0.3,0.5-0.4,0.8h-1.2l-0.4,0.8c-0.9,0.1-1.8,0.3-2.8,0.4v0.4h-0.4v-0.4
			c-1.5-0.2-2-0.7-3.2-1.2c-0.1-0.7-0.3-1.3-0.4-2h-0.8c0.5-2.6,1.1-5.3,1.6-7.9l0.8-0.4v-2h0.4c0.1-0.5,0.3-1.1,0.4-1.6h0.4v-1.2
			h0.4v-0.8l0.8-0.4v-0.8h0.4v-0.8h0.4c0.5-0.6,0.6-0.7,0.8-1.6h0.8V122c1.7,0.1,3.2,0.6,4.3,0c0.3-0.4,0.5-0.8,0.8-1.2h0.8v-0.4
			c1.6,0,3.3,0,4.3,0.4v0.8c2,0.3,1.5,1.1,3.2,1.6c0.1,1.8,0.3,3.7,0.4,5.5H357.9z"/>
	</g>
</g>
<g>
	<g>
		<path class="st1" d="M192.1,91.3c-0.6-1.6-0.7-2-2.3-3.5c-0.3-0.6-5.5-5.9-6.5-6.9c-1.4-2.6-3.2-4.2-4.6-5.7
			c0.1-0.5-1.1-1.1-1.7-1.9c-0.1-0.6-0.2-1.2-0.4-1.4s-2.1-2.3-3.2-2.2c-0.2,0.3-0.5,0.3-0.8,0.4s-0.6,0.2-0.9,0.4
			c-0.3,0.2-0.3,1.7-0.2,2.6c0.4,0,0.2,0.1,0.5,0.4c0.3,0.2,0.1,0,0.5,0.3c0.3,0.3,6.3,6,7.9,8.3c1,0.9,7.7,10,7.9,10l0.2,2.2
			c0,0.3,0.1,0.5,0.3,0.7c0.1,0.1,0.3,0.3,0.5,0.5c0.1,0.2,0.4,0.4,0.6,0.4c1.7,0.3,1.8,0.4,2.9,0.4c0.5,0,0.9-0.4,1-0.9
			C194.1,93.2,193.1,92.5,192.1,91.3z M156.1,68.7c-2.7-0.7-5.3,5.6-7,9c-0.4,0.1-2.9,4.6-3.4,6.1c-0.6,0.3-1.9,2-1.9,2.5
			c-0.4,0.1-2.1,2.3-2.5,2.4c-1.1,1.2-0.6,2.8-0.5,4.3c0.7,0.1,0.8,0.3,1.6,0.4c0-0.2,0.9-0.5,0.9-0.7c2.5-0.4,1-0.8,2.2-2.5
			c0.2,0,0.7-1,0.7-1.5c0.4-0.1,10.7-16.6,11.4-19.3C157.2,69.4,156.1,68.9,156.1,68.7z M173.4,84.8c-0.3-0.5-0.8-0.8-1.3-0.8
			c-2.3,0.2-6.2,1.3-6.4,1.6c0,0,0,0,0,0c-1.6,0.2-8.4,3.3-12.4,3.8c-0.6,0.1-1.1,0.6-1.2,1.4l-0.2,1.7c-0.1,0.4,0.2,0.9,0.7,1
			c1.3,0.4,2,0.5,3.4,0.4c0.4,0,0.8-0.3,1-0.6l0.4-0.9c1.1-0.2,0.5,0.1,1.1-0.4c0.2,0,0.7-0.3,0.9-0.3c-0.5,2.4-2.2,6-3.4,9.1
			c0,0.1-0.1,0.2-0.1,0.2c-0.4,0.5-1,2.5-1.8,4c-0.9,1.3-1.6,1.9-1.7,2.2c-0.2,0-0.9,0.3-1.1,0.3c-0.2,1.9-0.4,2.4,0.7,3.3
			c0,0.1,0.9,0.3,1.8,0.3c0.5,0,1-0.3,1.3-0.8c1.6-3.3,3.1-6.7,4.7-10c0.4-1,2.6-5.8,3.2-7.1c0.1,0,1-1.4,1.4-2
			c0.2-0.3,1.3-1.9,2.7-2.5c0,0,3.7-2.7,2.8,0.3c-0.9,3-2,7.6-2.9,11.4c-0.2,0.7-0.9,1.1-1.6,1l-2.2-0.5c-0.7-0.2-1.3,0.4-1.2,1.1
			c0.2,0.8,0.4,1.3,0.5,2.4c1.2,0.5,1.6,0.7,1.8,1.6c0.1,0.5,0.5,0.9,1,0.9c2.3,0.4,2.4,0.3,3.1-1.9c0.4,0,1-0.7,1.4-0.6
			c1.6-6.1,3.5-9.9,4.4-16.3c0.1-0.5-0.2-0.9-0.4-1.3C173.3,86.2,173.5,85.1,173.4,84.8z"/>
	</g>
</g>
<g>
	<g>
		<path class="st1" d="M51.9,27.3c-0.5-1.4-2-2.2-3.4-1.7c-3.8,1.3-8,5-9.4,6.3c-0.2,0-0.9,0.8-1.5,1.5c-0.4,0.6-1,1-1.7,1.1
			l-1.4,0.2c-1.5,0.2-2.7,1.3-3.1,2.7c-0.3,0.9-0.4,1.2,0.1,3.5c0.1,0.5,0.5,0.8,1,0.9l4.3,0.5c0.5,0.1,1.1-0.1,1.5-0.4
			c0.2-0.2,0.4-0.3,0.6-0.3c1.7,0.2-6.5,27-7.1,29.1c-1.2,4-2.7,8-3.4,12c-2.1,10.7-7.6,20.1-10,30.8c-0.9,4.2-1.4,8.4-2.2,12.6
			c-1,5.1-5.8,13.1-4.7,18c0.2,0.9,0,2.2-0.7,2.5c-0.4,0.2-0.6,0.6-0.6,1c-0.4,2.9-1.4,11.2,0.6,11.4c1.5,0.2,2.9,0.3,4.4,0.5
			c0-0.3,0.1-0.6,0.1-0.9c0.3,0,0.6,0.1,0.9,0.1c0.1-1.2,1-3.4,1.2-3.4c0-0.8,0.4-10.4,0.7-10.6c0.1-0.1,1-5,1.5-6.5
			c0.1-0.4,0.2-0.8,0.3-1.2c0.2-0.7,0.4-1.4,0.6-2.1c0.5-1.4,11.9-42.5,13-45.7c1.4-4.1,2.9-8.1,4.1-12.2c0.5-1.6,1-3.2,1.4-4.9
			c2.1-7.5,5.2-15.3,6.1-23.1c0.1-0.7,1.1-3.1,1.4-3.5c1.6-2.2,1.3-4.4,2.3-6.7c0.4-1,1.6-1.8,2.1-2.9c0.3-0.7,0.9-5.1,1.4-6.5
			c0.1-0.3,0.1-0.6-0.1-0.9C52.3,28.1,52.1,27.7,51.9,27.3z M121.9,19.3c-1.1-0.5-2.1-1.1-3.3-1.3c-1-0.1-1.5,0.3-2,0.5
			c0.1,0-1.8,0.7-1.6,0.3c-0.3,0.5-9.8,1.6-9.8,1.6c-0.3,0-6.9,1.4-7.7,1.4c-1.2-0.1-2.7,0.2-2.8,1.4c0,0.1,0,0.3-0.1,0.4
			c-0.1,0.2-0.4,0.3-0.6,0.3c-3.8,0.5-4.4,1.8-5.7,5.1c-0.9,2.3-1.6,4.7-2.5,7c-1.6,4.1-3,8.2-4.4,12.4l-2.9,8.8
			c-1.5,4.5-3,9-5,13.3c-1.2,2.6-2.6,5.4-2.2,8.3c0.1,0.5,0.5,1,1,1c1.1,0.1,2.3,0.2,3.4,0.4c0.5,0.1,1-0.3,1.2-0.8
			c1.6-4.2,4.6-6.6,6.8-9.7c0.1-0.1,0.2-0.3,0.4-0.4c3.7-1.9,7.9-3.3,11.9-2.3c1.7,0.4,3.5,1.9,4.8,3c0.7,0.6,1.8,1.6,3.4,5
			c1.1,2.4,1.5,5,1.1,7.6c-0.3,1.9-0.6,3.8-0.9,6c-0.4,3-1.4,6.3-1.4,9.4c-0.1,0.5-0.7,3.1-1.1,2.8c-0.8,2.2-1.3,2.3-2.1,4.5
			c-1.3,3.6-1.8,3.5-3.6,6.9c-0.5,1-3.2,4.7-3.5,4.9c-1.3,0.7-1.9,3.1-5,4.5c-3.2,1.4-6.3,1.6-11.7,0.6c-0.5-0.1-4.6-1-4.7,0l-0.4,4
			c0,0.2,0.1,0.4,0.1,0.7c0.5,5.1,17.5,2.6,19.4,1.1c0.6-0.5,4-2.8,4.9-3.7c1.1-1.3,4.1-4.4,4.5-5c0.3-0.4,1.1-1.9,1.4-2.1
			c1.8-1,4.6-7.8,5.5-9.7c0.8-1.9,1.9-4.8,2.2-6.8c0.3,1.3,2-4.8,2.2-5.6c1.7-7.3,3.5-8.5,2.4-15.1c-0.2-1.2-0.6-6.2-1.6-8.3
			c-0.3-0.1-1.1-1.8-1.6-2.4c-0.8-1-2.8-3.9-3.8-4.6c-4.8-3.2-11.7-7.2-22-0.8c-0.9,0.6-2.1-0.2-1.8-1.3c0.7-2.3,3.3-8.7,4-9.8
			c0.3-0.6,8.5-22,9.2-23.3c0.2-0.3,2.4-0.9,2.7-1c1.6-0.3,14.6-2.3,14.8-2.4c1-0.9,7.9,2.8,8.7,0.6c0.2-2,0.4-4.1,0.6-6.1
			C122.7,20,122.4,19.5,121.9,19.3z"/>
	</g>
</g>
<g>
	<g>
		<path class="st1" d="M108.2,251.7V251c-0.2-0.1-0.3-0.2-0.5-0.2c-0.3-0.7,0-2.1-0.5-2.6c-0.2-1-0.7-1-1.4-1.4
			c-0.1-0.2-0.2-0.3-0.2-0.5h-0.7v-0.2c-1,0.1-2.1,0.2-3.1,0.2c-0.1,0.2-0.2,0.3-0.2,0.5h-0.7c-0.1,0.2-0.2,0.3-0.2,0.5H100
			c-0.3,0.4-0.6,0.8-1,1.2c-0.4,0.1-0.8,0.2-1.2,0.2c-0.3,0.4-0.6,0.8-1,1.2c-0.2,0.1-0.3,0.2-0.5,0.2v0.5c-0.2,0.1-0.3,0.2-0.5,0.2
			v0.5c-0.2,0.2-0.5,0.3-0.7,0.5c-0.2,0.5-0.3,1-0.5,1.4c-0.2,0.1-0.3,0.2-0.5,0.2v0.5H94v0.5h-0.2v0.7c-0.2,0.1-0.3,0.2-0.5,0.2
			v0.7H93v0.5h-0.2v0.7h-0.2v0.7h-0.2v0.7h-0.2v0.7h-0.2v1.4h-0.2v0.5h-0.2v1h-0.2v2.6c-0.6,2.2,0.6,6,2.4,6.5v0.5
			c0.5,0.1,1,0.2,1.4,0.2v0.2h1v-0.2h1.2v-0.2h0.7v-0.2h0.7v-0.2H99v-0.2h0.5c0.1-0.2,0.2-0.3,0.2-0.5c0.2-0.1,0.5-0.2,0.7-0.2
			c0.2-0.2,0.3-0.5,0.5-0.7c0.7-0.5,1.2-0.5,1.4-1.4c0.2-0.1,0.5-0.2,0.7-0.2c0.1-0.4,0.2-0.8,0.2-1.2h0.2c0.1-0.2,0.2-0.5,0.2-0.7
			c0.2-0.1,0.3-0.2,0.5-0.2c0.1-0.5,0.2-1,0.2-1.4c0.2-0.1,0.3-0.2,0.5-0.2l0.2-1h0.2c0.2-0.5,0.3-1,0.5-1.4h0.2v-1.2
			c0.2-0.1,0.3-0.2,0.5-0.2v-1.2h0.2v-0.7h0.2v-0.7h0.2c0.1-1,0.2-1.9,0.2-2.9h0.2c0.2-1,0.3-2.1,0.5-3.1H108.2z M105.8,254.8v1.9
			h-0.2c-0.1,0.6-0.2,1.3-0.2,1.9H105v0.5h-0.2v0.7h-0.2c-0.1,0.5-0.2,1-0.2,1.4h-0.2v0.5c-0.2,0.1-0.3,0.2-0.5,0.2v1h-0.2v0.5
			c-0.2,0.1-0.3,0.2-0.5,0.2v0.7c-0.2,0.1-0.3,0.2-0.5,0.2c-0.1,0.3-0.2,0.6-0.2,1h-0.5v0.7h-0.2c-0.2,1-0.8,0.9-1.4,1.4l-0.7,1
			h-0.5c-0.1,0.2-0.2,0.3-0.2,0.5h-0.7c-0.1,0.2-0.2,0.3-0.2,0.5h-0.5v0.2c-0.7,0.1-1.4,0.2-2.2,0.2v-0.2c-1.2-0.3-2.7-3.1-2.2-5H93
			V263h0.2v-0.7h0.2v-1.7h0.2v-0.7H94v-0.7h0.2c0.1-0.6,0.2-1.1,0.2-1.7h0.2c0.2-0.5,0.3-1,0.5-1.4h0.2v-0.5h0.2v-0.5
			c0.2-0.1,0.3-0.2,0.5-0.2v-0.7h0.2c0.2-0.3,0.2-0.4,0.2-1c1.1-0.3,0.2-0.3,0.7-1h0.2v-0.2h1c0.8-1,1.6-2.1,2.4-3.1
			c0.5-0.1,1-0.2,1.4-0.2v-0.5c1.5-0.3,1.7-0.1,2.9,0.5c0.2,0.8,0.5,1.6,0.7,2.4v0.7c0.2,0.1,0.3,0.2,0.5,0.2
			C106.7,252.5,105.9,254.4,105.8,254.8z"/>
	</g>
</g>
<path class="st1" d="M176.1,78.8"/>
</svg>
