<?xml version="1.0" encoding="utf-8"?>
<!-- Generator: Adobe Illustrator 24.1.1, SVG Export Plug-In . SVG Version: 6.00 Build 0)  -->
<svg version="1.1" id="レイヤー_1" xmlns="http://www.w3.org/2000/svg" xmlns:xlink="http://www.w3.org/1999/xlink" x="0px"
	 y="0px" width="207px" height="193px" viewBox="0 0 207 193" style="enable-background:new 0 0 207 193;" xml:space="preserve">
<style type="text/css">
	.st0{fill-rule:evenodd;clip-rule:evenodd;fill:#C7B5AB;}
	.st1{fill:#C7B5AB;}
</style>
<g id="レイヤー_1_1_">
</g>
<g id="design">
	<g>
		<g>
			<path class="st0" d="M204.7,120.1c-6.711-1.167-14.745,2.064-21.481,3.452c-8.159,1.681-16.299,3.454-24.418,5.318
				c-16.238,3.729-32.392,7.825-48.445,12.284C75.197,150.92,40.27,162.536,8.459,180.412c-2.388,1.342-4.897,2.867-6.048,5.353
				c-1.15,2.486-0.112,6.136,2.581,6.641c2.936,0.55,5.03-2.587,7.069-4.771c1.946-2.085,4.46-3.538,6.958-4.914
				c22.208-12.236,46.234-20.822,70.466-28.285c18.611-5.732,37.417-10.834,56.373-15.295c16.899-3.977,36.564-9.942,53.242-9.942
				c1.4,0,2.8,0,4.2,0c0.7-0.9,2.5-2.3,3.5-2.8C206.7,123.2,205.7,122.3,204.7,120.1z"/>
		</g>
	</g>
</g>
<g>
	<g>
		<path class="st1" d="M-144.844,108.54c0.008-2.856-0.176-3.546-1.949-4.547c-1.007-0.75-3.711,0.594-5.196,1.299
			c-0.216,0.65-0.433,1.299-0.65,1.949h-3.248c-0.216,0.433-0.433,0.866-0.65,1.299h-1.949v0.65
			c-1.948,0.433-3.898,0.866-5.846,1.299v0.65h-3.897v0.65h-3.897v0.65c-2.165,0.433-4.331,0.866-6.495,1.299v0.65h-1.949v0.65
			h-2.598v0.65h-1.299c-0.217,0.433-0.433,0.866-0.65,1.299h-2.598v0.65c-1.299,0.217-2.598,0.433-3.897,0.65
			c0.313-2.842,1.873-4.057,3.248-5.846h0.65v-0.65h-0.65c0.395-0.918,1.039-0.886,1.299-1.299v-1.299h0.65
			c0.886-1.133,1.076-1.291,1.299-3.248h1.299c0.291-1.958,0.396-2.086,1.299-3.248h0.65v-1.299c0.433-0.217,0.866-0.433,1.299-0.65
			v-1.949c0.866-0.65,1.732-1.299,2.598-1.949v-1.299c0.433-0.216,0.866-0.433,1.299-0.65c0.216-0.866,0.433-1.732,0.65-2.598
			c0.433-0.216,0.866-0.433,1.299-0.65v-1.299c0.65-0.433,1.299-0.866,1.949-1.299v-1.299c0.433-0.217,0.866-0.433,1.299-0.65
			v-1.299c0.433-0.216,0.866-0.433,1.299-0.65v-1.299c0.433-0.217,0.866-0.433,1.299-0.65v-1.949
			c0.433-0.217,0.866-0.433,1.299-0.65V79.31c0.387-0.582,2.102-0.863,1.949-1.949h-0.65v-0.65h1.299
			c0.217-1.083,0.433-2.165,0.65-3.248c0.433-0.217,0.866-0.433,1.299-0.65v-1.949c0.433-0.217,0.866-0.433,1.299-0.65
			c-0.216-0.433-0.433-0.866-0.65-1.299c0.65-0.433,1.299-0.866,1.949-1.299c0.784-1.585-0.123-3.235,0.65-4.547
			c0.433-0.217,0.866-0.433,1.299-0.65c0.217-1.515,0.433-3.031,0.65-4.547h0.65c0.433-1.299,0.866-2.598,1.299-3.897h0.65v-3.897
			c0.654-1.978,2.368-6.231,1.299-9.743h-0.65v-5.196h-0.65V33.19c-0.433-0.217-0.866-0.433-1.299-0.65v-1.299h-0.65v-1.299h-0.65
			c-1.083-1.299-2.165-2.598-3.248-3.897c-1.083-0.217-2.165-0.433-3.248-0.65v-0.65c-3.243-1.003-7.301,1.294-9.094,1.949h-2.598
			c-0.216,0.433-0.433,0.866-0.65,1.299h-1.299v0.65h-1.299v0.65c-0.65,0.216-1.299,0.433-1.949,0.65v1.299h-1.949
			c-0.216,0.65-0.433,1.299-0.65,1.949h-0.65v1.299c-1.083,0.866-2.165,1.732-3.248,2.598v1.299
			c-0.866,0.65-1.732,1.299-2.598,1.949v2.598h-0.65c0.216,0.65,0.433,1.299,0.65,1.949c1.297,0.391,0.559-0.09,1.299,0.65
			c5.512,0.002,2.442-0.44,3.897-3.897c0.66-1.567,2.148-1.827,2.598-3.897h1.299c0.653-2.231,2.17-2.143,3.248-3.897h1.299v-1.299
			c1.484-0.205,1.662-0.104,2.598-0.65v-0.65h2.598v-0.65h5.196c0.132-0.027,0.212-0.967,1.299-0.65
			c0.217,0.433,0.433,0.866,0.65,1.299h1.299c0.433,1.299,0.866,2.598,1.299,3.897c0.433,0.217,0.866,0.433,1.299,0.65
			c0.216,2.598,0.433,5.197,0.65,7.795h0.65v2.598h-0.65v2.598h-0.65v1.299h-0.65v3.897h-0.65c-0.216,1.515-0.433,3.031-0.65,4.547
			h-1.299c-0.437,3.757-2.282,5.162-2.598,9.094h-1.299c-0.787,6.861-5.914,9.482-7.145,15.589h-1.299v0.65h-0.65v1.949
			c-0.433,0.217-0.866,0.433-1.299,0.65v1.299c-0.433,0.216-0.866,0.433-1.299,0.65v1.949h-1.299
			c-0.459,1.714-1.563,3.38-2.598,4.547c-0.433,0.216-0.866,0.433-1.299,0.65v1.949h-0.65c-0.216,0.65-0.433,1.299-0.65,1.949
			l-1.949,1.299v1.949c-0.433,0.216-0.866,0.433-1.299,0.65c-1.092,1.668-1.829,3.282-2.598,5.196h-1.299
			c-0.216,1.083-0.433,2.165-0.65,3.248c-0.433,0.216-0.866,0.433-1.299,0.65v1.949c-0.433,0.217-0.866,0.433-1.299,0.65
			c-1.417,1.562-2.935,3.195-3.248,5.846h-1.299c-0.482,1.683-1.013,2.1-1.949,3.248h-0.65c-1.874,2.682-1.974,4.275-1.299,7.795
			h3.248c1.515-1.732,3.031-3.465,4.547-5.196h1.299c0.217-0.433,0.433-0.866,0.65-1.299c0.866-0.217,1.732-0.433,2.598-0.65v-0.65
			c0.866-0.216,1.732-0.433,2.598-0.65v-0.65h1.949v-0.65h1.299v-0.65c1.948-0.433,3.898-0.866,5.846-1.299v-0.65h1.299v-0.65
			c1.299-0.217,2.598-0.433,3.897-0.65v-0.65c3.897-0.433,7.795-0.866,11.692-1.299v-0.65h1.949c0.217-0.433,0.433-0.866,0.65-1.299
			h2.598v-0.65h1.949v-0.65h1.299v-0.65h2.598c0.216-0.433,0.433-0.866,0.65-1.299c0.866-0.217,1.732-0.433,2.598-0.65
			c0.216-0.433,0.433-0.866,0.65-1.299h3.248C-144.632,108.871-145.71,108.848-144.844,108.54z M-105.222,29.295
			c-0.166-0.036-0.202-0.872-1.299-0.65v0.65h-1.949v0.65h-1.299v0.65h-7.145v0.65h-2.598v0.65h-1.949v0.65h-1.949v0.65h-1.949v0.65
			c-1.948,0.216-3.898,0.433-5.846,0.65c-1.299,1.083-2.598,2.165-3.897,3.248c-0.216,1.083-0.433,2.165-0.65,3.248
			c0,0,0.946,0.654,0.65,1.949h-0.65v3.897h-0.65v3.248h-0.65v10.393h-0.65v2.598h-0.65v1.949h-0.65v3.248
			c-0.184,0.414-0.857,0.026-1.299,1.949h0.65v1.949c0.16,0.275,0.922,0.545,1.299,1.299h3.248c1.732-3.247,3.465-6.496,5.196-9.743
			c1.948-0.433,3.898-0.866,5.846-1.299c0.217,0.433,0.433,0.866,0.65,1.299c1.732,0.216,3.465,0.433,5.196,0.65v0.65h1.299v0.65
			c0.65,0.217,1.299,0.433,1.949,0.65c0.409,1.455,0.544,1.609,1.299,2.598h0.65c0.217,0.866,0.433,1.732,0.65,2.598h0.65v2.598
			h-0.65v8.444h-0.65c-0.433,1.948-0.866,3.898-1.299,5.846c-2.397,5.328-8.23,9.187-16.239,9.094v0.65h-0.65
			c0.217,1.299,0.433,2.598,0.65,3.897c1.297,0.391,0.559-0.09,1.299,0.65c7.292-0.064,10.149-2.352,14.94-4.547
			c0.216-0.65,0.433-1.299,0.65-1.949h1.299c0.528-3.337,0.953-1.814,2.598-3.897h0.65V90.36h0.65v-1.299h0.65
			c0.216-2.165,0.433-4.331,0.65-6.495h0.65c0.217-3.68,0.433-7.362,0.65-11.042h-0.65v-3.248h-0.65
			c-0.216-0.866-0.433-1.732-0.65-2.598h-0.65c-0.217-1.083-0.433-2.165-0.65-3.248h-0.65c-0.433-0.65-0.866-1.299-1.299-1.949
			c-4.979-1.515-9.96-3.031-14.94-4.547v0.65h-1.949v0.65h-2.598v0.65h-0.65c0.217-4.113,0.433-8.228,0.65-12.341
			c0.49-1.447,1.571-2.719,1.949-4.547c2.02-0.466,2.794-1.101,4.547-1.949v-0.65h3.248v-0.65h1.299v-0.65h1.949v-0.65h8.444v-0.65
			h1.949v-0.65h3.248v-0.65c0.65-0.216,1.299-0.433,1.949-0.65V29.3h-3.247V29.295z"/>
	</g>
</g>
<g>
	<g>
		<path class="st1" d="M77.802,123.419c-1.875-0.893-4.985,0.944-6.239,2.25c-0.268,0.28-1.889,0.748-2.393,0.743
			c-1.126-0.01-4.443,1.497-5.103,1.618l-2.972,0.548c-0.099,0.019-0.178,0.078-0.255,0.143c-0.837,0.704-4.921,0.662-6.004,0.809
			c-0.328,0.044-2.449,0.331-3.178,0.445c-1.315,0.206-6.281,1.185-7.457,1.417c-1.121,0.22-2.243,0.442-3.374,0.605
			c-0.407,0.059-3.819,1.55-5.582,1.843c-1.669,0.278-3.336,0.556-5.005,0.834c-0.342,0.057-0.631-0.256-0.547-0.592l0.48-1.918
			c0.023-0.093,0.071-0.174,0.142-0.238c0.419-0.377,1.972-1.793,2.669-2.679c0.213,0,0.62-0.78,0.684-1.265
			c0.011-0.08,0.033-0.156,0.078-0.224l1.318-1.978l3.46-4.844c0.005-0.007,0.011-0.014,0.016-0.021l2.754-3.442
			c0.008-0.011,0.012-0.016,0.022-0.026c0.154-0.163,2.133-2.265,2.218-2.382c0.636-0.879,2.722-3.189,3.251-3.553
			c0.528-0.364,4.393-5.517,5.181-6.153c0.768-0.619,2.434-3.605,2.783-4.275c0.349-0.67,8.021-11.342,8.977-13.314
			c0.399-0.076,1.012-1.946,1.508-2.646c0.396-0.56,1.808-4.206,2.881-5.26c0.49-0.482,1.846-2.881,1.968-3.647
			c0.168-1.052,1.843-3.602,2.064-3.986c0.688-1.198,1.756-4.011,1.757-4.013c1.415-3.555,1.854-6.756,1.85-11.732
			c0-0.01-0.001-0.02-0.001-0.031l-0.28-4.797c0-0.284-0.259-2.184-0.381-2.44c-0.293-0.616-0.77-2.128-1.262-3.126
			c-0.03-0.062-0.078-0.106-0.129-0.153c-0.422-0.391-1.455-2.211-1.744-2.442l-2.907-2.326c0-0.231-1.646-1.033-4.075-1.869
			c-1.717-0.591-5.693,0.297-6.797,0.543c-2.17,0.484-5.036,1.003-6.992,2.023c-1.015,0.529-5.088,2.649-5.181,2.753
			c-1.126,1.266-2.672,3.451-3.465,4.215c-0.473,0.455-1.912,3.131-1.995,3.159c-0.631,0.21-1.203,0.645-1.823,0.896
			c-0.119,0.049-0.214,0.138-0.267,0.255c-0.302,0.663-0.337,0.367-0.724,1.185c0,0.54-0.213,1.088-0.415,1.306
			c-0.091,0.097-0.154,0.222-0.14,0.354c0.138,1.258,0.262,1.481,0.564,2.252c0.064,0.163,0.213,0.286,0.386,0.318
			c1.805,0.334,2.072,0.407,3.204,0.214c0.807-0.138,1.455-0.781,1.535-1.595c0.077-0.777,0.258-1.585,0.609-2.199
			c0.494-0.862,2.694-3.841,3.094-4.364c1.65-2.167,5.976-3.94,6.22-4.137c0.575-0.465,3.207-1.355,3.462-1.519
			c0.505-0.328,2.059-0.6,3.744-0.9c1.129-0.202,2.788,0.131,3.912,0.338c1.252,0.23,3.23,1.69,3.462,1.857
			c0.329,0.239,1.848,2.463,2.43,5.481c0.004,0.019,0.006,0.038,0.009,0.056c0.456,4.071,0.261,8.214-0.575,12.224
			c-0.089,0.426-1.914,5.318-2.139,6.118c-0.798,2.826-2.466,5.074-4.037,7.555c-0.653,1.032-1.317,2.085-1.624,3.266
			c-0.216,0.832-2.585,6.268-3.686,7.314c-0.026,0.025-0.053,0.049-0.081,0.073c-0.231,0.199-2.273,3.578-2.535,3.942
			c-0.877,1.221-12.975,17.038-13.534,17.763c-0.034,0.045-0.071,0.089-0.11,0.131c-0.751,0.814-9.756,12.971-10.754,13.907
			c-0.437,0.409-4.407,5.991-4.669,6.184c-1.429,1.05-2.642,2.392-3.543,3.918c-1.194,2.021-2.204,2.878-4.003,4.222
			c-1.442,1.078-3.524,4.553-4.111,5.272c-0.088,0.108-0.123,0.243-0.101,0.38l0.459,2.75c1.174,1.234,1.823,0.71,3.167,0.87
			c0.405,0.048,0.81-0.101,1.065-0.42l2.15-2.687c0.03-0.037,0.516-0.644,0.773-0.9c0.064-0.064,0.137-0.11,0.34-0.198l2.351-1.014
			c0.053-0.016,0.128-0.038,0.181-0.053c0.884-0.183,5.272-1.761,6.707-2.043c0.049-0.01,0.093-0.02,0.134-0.048
			c0.551-0.38,9.426-3.108,11.978-3.801c1.714-0.466,3.436-0.933,5.198-1.159c4.391-0.564,9.055,0.356,13.136-1.358
			c0.732-0.53,3.693-1.312,4.423-1.508c0.026-0.007,0.042-0.01,0.07-0.011c0.825-0.034,4.231-0.168,4.832-0.812
			c0.168-0.181,1.671-1.177,2.369-1.178c0.88-0.721,4.284-1.647,5.44-1.881c0.223-0.045,0.38-0.243,0.38-0.471
			C79.455,126.552,79.409,124.183,77.802,123.419z"/>
	</g>
</g>
<g>
	<g>
		<path class="st1" d="M192.068,91.336c-0.642-1.629-0.714-2.032-2.307-3.521c-0.295-0.577-5.5-5.879-6.458-6.916
			c-1.42-2.617-3.239-4.181-4.562-5.748c0.062-0.535-1.119-1.13-1.709-1.943c-0.117-0.556-0.161-1.202-0.383-1.388
			s-2.113-2.325-3.242-2.166c-0.22,0.336-0.521,0.329-0.843,0.443s-0.628,0.239-0.887,0.443c-0.259,0.203-0.288,1.738-0.214,2.642
			c0.357,0.041,0.151,0.139,0.463,0.362c0.311,0.222,0.144-0.016,0.452,0.332s6.298,5.955,7.91,8.333
			c0.989,0.91,7.689,9.953,7.867,9.973l0.238,2.164c0.023,0.277,0.146,0.536,0.349,0.726c0.148,0.138,0.318,0.302,0.461,0.517
			c0.14,0.213,0.368,0.352,0.62,0.396c1.729,0.3,1.785,0.445,2.946,0.441c0.508-0.002,0.945-0.38,1.019-0.882
			C194.124,93.246,193.101,92.467,192.068,91.336z M156.148,68.748c-2.67-0.727-5.287,5.592-7.001,8.96
			c-0.378,0.137-2.876,4.552-3.418,6.117c-0.577,0.295-1.853,1.957-1.915,2.492c-0.378,0.137-2.073,2.293-2.45,2.43
			c-1.122,1.197-0.621,2.81-0.494,4.284c0.714,0.082,0.841,0.333,1.555,0.415c0.021-0.179,0.894-0.502,0.915-0.681
			c2.488-0.381,1.044-0.757,2.184-2.453c0.179,0.021,0.659-1.009,0.721-1.545c0.378-0.137,10.718-16.606,11.448-19.299
			C157.157,69.407,156.128,68.927,156.148,68.748z M173.365,84.779c-0.253-0.516-0.773-0.847-1.346-0.808
			c-2.304,0.159-6.228,1.314-6.416,1.601c-0.011,0.001-0.023,0.003-0.035,0.004c-1.578,0.201-8.376,3.338-12.408,3.811
			c-0.612,0.072-1.085,0.572-1.178,1.385l-0.192,1.67c-0.05,0.438,0.228,0.851,0.651,0.974c1.338,0.389,1.977,0.463,3.405,0.379
			c0.41-0.024,0.781-0.271,0.955-0.643l0.442-0.947c1.106-0.199,0.452,0.127,1.133-0.412c0.178,0.021,0.68-0.325,0.859-0.304
			c-0.52,2.449-2.192,6.027-3.433,9.066c-0.027,0.067-0.091,0.156-0.135,0.213c-0.411,0.541-0.966,2.531-1.75,3.976
			c-0.872,1.298-1.64,1.856-1.681,2.213c-0.179-0.021-0.886,0.304-1.065,0.283c-0.23,1.945-0.369,2.443,0.701,3.336
			c-0.015,0.129,0.91,0.272,1.769,0.313c0.54,0.026,1.039-0.285,1.268-0.775c1.561-3.347,3.123-6.695,4.685-10.042
			c0.387-1.03,2.621-5.839,3.238-7.115c0.135,0.016,1.036-1.359,1.401-2.034c0.168-0.309,1.343-1.881,2.67-2.488
			c0,0,3.673-2.691,2.822,0.309c-0.851,3.001-2,7.609-2.927,11.413c-0.17,0.696-0.867,1.124-1.566,0.964l-2.174-0.498
			c-0.692-0.159-1.336,0.444-1.199,1.141c0.156,0.795,0.416,1.286,0.514,2.427c1.206,0.455,1.578,0.682,1.773,1.589
			c0.104,0.483,0.505,0.858,0.992,0.942c2.28,0.394,2.429,0.264,3.075-1.914c0.357,0.041,1.02-0.67,1.377-0.629
			c1.575-6.136,3.541-9.894,4.35-16.335c0.06-0.479-0.178-0.906-0.423-1.322C173.343,86.224,173.513,85.081,173.365,84.779z"/>
	</g>
</g>
<g>
	<g>
		<path class="st1" d="M128.18,58.109l-0.037-0.487c-0.067-0.873-0.621-1.634-1.432-1.965c-1.018-1.865-0.38-5.591-1.81-6.913
			c-0.86-2.528-2.088-2.407-4.116-3.532l-0.128-0.213c-0.345-0.576-0.92-0.971-1.577-1.105c-0.129-0.026-0.255-0.056-0.371-0.089
			c-0.416-0.116-0.847-0.129-1.273-0.057c-1.884,0.321-7.22,0.439-7.708,1.429c-0.15,0.306-1.891,0.742-2.335,1.189
			c-0.274,0.277-1.14,1.138-1.511,1.282c-0.415,0.16-0.761,0.467-1.027,0.824c-0.437,0.586-0.822,1.211-1.15,1.864
			c-0.107,0.214-0.213,0.437-0.395,0.592c-0.185,0.158-2.65,0.678-3.359,1.247c-0.467,0.375-0.869,1.022-1.263,1.479
			c-0.694,0.806-1.998,1.991-2.056,3.136c-0.045,0.907-2.357,3.337-2.85,3.987c-0.738,0.973-0.366,2.238-0.87,3.277
			c-0.059,0.122-1.843,2.466-1.372,2.557c-0.352-0.068-0.486,0.438-0.486,0.796s-1.63,3.354-1.64,3.81
			c-0.005,0.233-0.703,2.044-0.523,2.511c-0.491,0.546-1.234,4.337-1.461,5.342c-0.115,0.509-0.603,2.59-1.028,2.893
			c0.464,1.751-1.18,9.584-1.092,11.761c0.066,1.612,0.037,3.198,0.06,4.8c0.036,2.42,0.425,4.831,1.251,7.105
			c0.836,2.299,2.007,4.601,3.796,6.304c0.535,0.509,1.224,0.79,1.901,1.087c0.45,0.197,1.023,1.133,1.027,1.3
			c0.018,0.777,3.178,0.425,3.824,0.678c0.312,0.123,2.667-0.02,2.675-0.213l3.116-0.283c0.006-0.199,1.25-0.725,1.865-0.789
			c0.006-0.197,1.248-0.719,1.863-0.783c0.006-0.194,0.823-0.686,1.226-0.738c0.019-0.211,0.928-0.601,1.216-0.93
			c0.289-0.329,1.352-1.463,1.656-1.646c1.112-0.668,1.53-1.814,2.483-2.601c1.009-0.833,2.41-1.509,2.77-2.879
			c0.074-0.281,0.111-0.604,0.265-0.835c0.048-0.071,0.711-0.314,0.976-0.391c0.555-0.162,0.879-0.753,0.977-1.323
			s0.032-1.157,0.113-1.729c0.027-0.186,0.075-0.382,0.211-0.512c0.085-0.081,0.195-0.128,0.288-0.199
			c0.149-0.114,0.245-0.283,0.337-0.447c0.6-1.074,1.636-2.374,1.853-3.587c0.166-0.929,1.135-3.06,1.323-3.355
			c0.266-0.42,1.045-2.632,1.355-3.284c0.269-0.565,1.239-4.953,1.177-5.782c-0.017-0.232-0.028-0.488,0.116-0.671
			c0.158-0.201,1.306-5.563,1.891-5.995c-0.077-0.826,0.568-3.219,0.573-4.005c0.013-1.842,0.463-5.56,0.676-5.576
			C128.389,63.649,128.392,58.092,128.18,58.109z M122.705,70.372c0.022,0.259,0.232,1.048,0.119,1.276
			c-0.32,0.647-0.879,2.708-0.948,4.166c-0.019,0.412-0.517,2.245-0.508,2.655c-0.189,0.036-0.514,1.343-0.488,1.961
			c-0.202,0.036-0.761,2.017-0.838,2.971c-0.041,0.51-1.752,4.903-1.704,5.553c-0.208,0.044-1.292,3.623-1.787,4.092
			c-0.151,0.143-0.491,0.959-0.551,1.435c-0.06,0.477-0.708,1.052-0.939,1.473c-0.206,0.374-1.473,2.1-1.744,2.917
			c-0.051,0.155-0.155,0.276-0.291,0.365c-0.65,0.424-1.873,2.027-2.716,2.78c-0.861,0.769-2.549,2.733-3.024,3.63
			c-0.104,0.196-0.236,0.372-0.419,0.499c-1.17,0.813-2.916,1.5-3.081,1.905c-0.425,0.032-1.242,0.522-1.226,0.735
			c-1.51,0.285-3.02,0.571-4.53,0.856c-0.674,0.128-1.368-0.048-1.904-0.477c-0.683-0.546-1.603-1.22-1.712-1.318
			c-0.909-0.812-1.666-1.801-2.305-2.834c-1.46-2.364-2.346-5.123-2.181-7.92c0.027-0.464,0.546-3.778,0.435-5.229
			c-0.03-0.396,0.499-2.045,0.475-2.666c0.196-0.037,0.078-2.407,0.384-4.057c0.184-0.041,0.303-1.689,0.493-2.062
			c0.034-0.067,0.1-0.198,0.109-0.272c0.165-1.395,0.311-1.468,0.304-2.04c0.194-0.036,0.518-4.166,1.735-6.844
			c0.224-0.492,2.062-4.838,2.263-4.879c-0.115-0.456,0.846-1.282,0.641-2.05c0.48-0.016,0.805-2.271,1.643-2.935
			c0.296-0.234,0.296-1.144,0.781-1.897c0.213-0.018,0.834-0.62,1.047-0.636c-0.011-0.142,0.237-0.733,0.398-1.175
			c0.094-0.258,0.267-0.472,0.469-0.658c0.875-0.808,2.407-4.16,7.375-7.771c1.258-0.31,3.71-1.779,3.678-2.204
			c4.028-1.075,4.441-0.566,7.745,0.691c0.799,2.076,1.599,4.152,2.398,6.227c0.049,0.637,1.028,2.272,1.469,2.452
			C124.468,60.561,122.608,69.209,122.705,70.372z"/>
	</g>
</g>
<path class="st1" d="M176.147,78.83"/>
<g id="design_1_">
	<g>
		<g>
			<path class="st0" d="M204.7-103.049c-6.711-1.167-14.745,2.064-21.481,3.452c-8.159,1.681-16.299,3.454-24.418,5.318
				c-16.238,3.729-32.392,7.825-48.445,12.284C75.197-72.229,40.27-60.613,8.459-42.737c-2.388,1.342-4.897,2.867-6.048,5.353
				c-1.15,2.486-0.112,6.136,2.581,6.641c2.936,0.55,5.03-2.587,7.069-4.771c1.946-2.085,4.46-3.538,6.958-4.914
				C41.227-52.664,65.253-61.25,89.485-68.713c18.611-5.732,37.417-10.834,56.373-15.295c16.899-3.977,36.564-9.942,53.242-9.942
				c1.4,0,2.8,0,4.2,0c0.7-0.9,2.5-2.3,3.5-2.8C206.7-99.949,205.7-100.849,204.7-103.049z"/>
		</g>
	</g>
</g>
<g>
	<g>
		<path class="st1" d="M192.068-131.813c-0.642-1.629-0.714-2.032-2.307-3.521c-0.295-0.577-5.5-5.879-6.458-6.916
			c-1.42-2.617-3.239-4.181-4.562-5.748c0.062-0.535-1.119-1.13-1.709-1.943c-0.117-0.556-0.161-1.202-0.383-1.388
			s-2.113-2.325-3.242-2.166c-0.22,0.336-0.521,0.329-0.843,0.443s-0.628,0.239-0.887,0.443c-0.259,0.203-0.288,1.738-0.214,2.642
			c0.357,0.041,0.151,0.139,0.463,0.362c0.311,0.222,0.144-0.016,0.452,0.332s6.298,5.955,7.91,8.333
			c0.989,0.91,7.689,9.953,7.867,9.973l0.238,2.164c0.023,0.277,0.146,0.536,0.349,0.726c0.148,0.138,0.318,0.302,0.461,0.517
			c0.14,0.213,0.368,0.352,0.62,0.396c1.729,0.3,1.785,0.445,2.946,0.441c0.508-0.002,0.945-0.38,1.019-0.882
			C194.124-129.903,193.101-130.682,192.068-131.813z M156.148-154.401c-2.67-0.727-5.287,5.592-7.001,8.96
			c-0.378,0.137-2.876,4.552-3.418,6.117c-0.577,0.295-1.853,1.957-1.915,2.492c-0.378,0.137-2.073,2.293-2.45,2.43
			c-1.122,1.197-0.621,2.81-0.494,4.284c0.714,0.082,0.841,0.333,1.555,0.415c0.021-0.179,0.894-0.502,0.915-0.681
			c2.488-0.381,1.044-0.757,2.184-2.453c0.179,0.021,0.659-1.009,0.721-1.545c0.378-0.137,10.718-16.606,11.448-19.299
			C157.157-153.742,156.128-154.222,156.148-154.401z M173.365-138.37c-0.253-0.516-0.773-0.847-1.346-0.808
			c-2.304,0.159-6.228,1.314-6.416,1.601c-0.011,0.001-0.023,0.003-0.035,0.004c-1.578,0.201-8.376,3.338-12.408,3.811
			c-0.612,0.072-1.085,0.572-1.178,1.385l-0.192,1.67c-0.05,0.438,0.228,0.851,0.651,0.974c1.338,0.389,1.977,0.463,3.405,0.379
			c0.41-0.024,0.781-0.271,0.955-0.643l0.442-0.947c1.106-0.199,0.452,0.127,1.133-0.412c0.178,0.021,0.68-0.325,0.859-0.304
			c-0.52,2.449-2.192,6.027-3.433,9.066c-0.027,0.067-0.091,0.156-0.135,0.213c-0.411,0.541-0.966,2.531-1.75,3.976
			c-0.872,1.298-1.64,1.856-1.681,2.213c-0.179-0.021-0.886,0.304-1.065,0.283c-0.23,1.945-0.369,2.443,0.701,3.336
			c-0.015,0.129,0.91,0.272,1.769,0.313c0.54,0.026,1.039-0.285,1.268-0.775c1.561-3.347,3.123-6.695,4.685-10.042
			c0.387-1.03,2.621-5.839,3.238-7.115c0.135,0.016,1.036-1.359,1.401-2.034c0.168-0.309,1.343-1.881,2.67-2.488
			c0,0,3.673-2.691,2.822,0.309c-0.851,3.001-2,7.61-2.927,11.413c-0.17,0.696-0.867,1.124-1.566,0.964l-2.174-0.498
			c-0.692-0.159-1.336,0.444-1.199,1.141c0.156,0.795,0.416,1.286,0.514,2.427c1.206,0.455,1.578,0.682,1.773,1.589
			c0.104,0.483,0.505,0.858,0.992,0.942c2.28,0.394,2.429,0.264,3.075-1.914c0.357,0.041,1.02-0.67,1.377-0.629
			c1.575-6.136,3.541-9.894,4.35-16.335c0.06-0.479-0.178-0.906-0.423-1.322C173.343-136.925,173.513-138.068,173.365-138.37z"/>
	</g>
</g>
<g>
	<g>
		<path class="st1" d="M51.943-195.867c-0.498-1.372-1.995-2.153-3.376-1.682c-3.775,1.286-8.04,4.967-9.415,6.252
			c-0.204-0.021-0.927,0.77-1.474,1.537c-0.412,0.577-1.024,0.98-1.725,1.089l-1.421,0.222c-1.468,0.23-2.672,1.294-3.07,2.726
			c-0.26,0.934-0.404,1.194,0.143,3.464c0.116,0.482,0.527,0.846,1.021,0.897l4.332,0.454c0.525,0.055,1.068-0.066,1.479-0.398
			c0.201-0.163,0.436-0.286,0.582-0.271c1.702,0.179-6.451,26.957-7.118,29.127c-1.222,3.977-2.668,7.962-3.449,12.048
			c-2.051,10.737-7.622,20.145-10.009,30.759c-0.934,4.155-1.409,8.399-2.229,12.577c-1,5.092-5.848,13.119-4.701,18.011
			c0.212,0.905,0.009,2.155-0.708,2.506c-0.358,0.176-0.554,0.566-0.606,0.962c-0.377,2.906-1.366,11.208,0.581,11.412
			c1.458,0.153,2.917,0.306,4.375,0.459c0.031-0.292,0.061-0.584,0.092-0.875c0.292,0.031,0.584,0.061,0.875,0.092
			c0.122-1.167,0.951-3.44,1.243-3.41c0.017-0.781,0.442-10.351,0.744-10.586c0.093-0.072,1.027-5.008,1.457-6.495
			c0.115-0.399,0.231-0.799,0.346-1.198c0.206-0.711,0.411-1.422,0.643-2.124c0.454-1.376,11.881-42.52,12.981-45.687
			c1.412-4.065,2.882-8.112,4.136-12.229c0.493-1.618,0.952-3.245,1.412-4.872c2.126-7.529,5.155-15.317,6.145-23.093
			c0.092-0.72,1.07-3.055,1.396-3.507c1.569-2.175,1.331-4.439,2.323-6.688c0.437-0.991,1.582-1.816,2.114-2.9
			c0.333-0.679,0.934-5.058,1.421-6.531c0.101-0.305,0.082-0.627-0.064-0.913C52.272-195.02,52.103-195.426,51.943-195.867z
			 M121.9-203.856c-1.081-0.452-2.09-1.102-3.27-1.275c-1.003-0.148-1.477,0.31-1.997,0.462c0.134-0.039-1.805,0.717-1.595,0.298
			c-0.273,0.544-9.756,1.619-9.813,1.628c-0.295,0.049-6.888,1.431-7.658,1.359c-1.167-0.108-2.716,0.247-2.806,1.414
			c-0.011,0.141,0.002,0.29-0.063,0.416c-0.112,0.219-0.397,0.269-0.641,0.303c-3.799,0.515-4.447,1.824-5.732,5.078
			c-0.906,2.295-1.642,4.657-2.547,6.951c-1.608,4.077-3.029,8.225-4.413,12.383l-2.939,8.827c-1.493,4.484-2.99,8.979-4.977,13.267
			c-1.208,2.607-2.588,5.445-2.233,8.327c0.066,0.539,0.487,0.974,1.026,1.042c1.123,0.14,2.252,0.25,3.38,0.363
			c0.534,0.054,1.023-0.266,1.221-0.765c1.647-4.152,4.569-6.562,6.849-9.655c0.108-0.146,0.246-0.27,0.407-0.353
			c3.652-1.892,7.947-3.257,11.944-2.3c1.659,0.397,3.455,1.914,4.794,2.995c0.749,0.605,1.809,1.559,3.407,4.982
			c1.106,2.369,1.467,5.025,1.056,7.607c-0.308,1.937-0.564,3.768-0.892,5.997c-0.446,3.028-1.368,6.343-1.368,9.407
			c-0.065,0.469-0.719,3.118-1.103,2.841c-0.805,2.161-1.344,2.3-2.149,4.461c-1.333,3.577-1.8,3.538-3.595,6.901
			c-0.515,0.965-3.182,4.661-3.511,4.851c-1.287,0.746-1.851,3.064-5.043,4.468c-3.191,1.404-6.255,1.596-11.727,0.638
			c-0.511-0.089-4.558-1.008-4.66-0.043l-0.421,4.017c-0.024,0.228,0.098,0.434,0.119,0.662c0.476,5.131,17.463,2.648,19.395,1.146
			c0.631-0.49,4.032-2.769,4.861-3.734c1.095-1.274,4.056-4.404,4.479-5.013c0.281-0.404,1.096-1.87,1.444-2.064
			c1.768-0.984,4.601-7.773,5.467-9.714c0.833-1.867,1.936-4.811,2.238-6.834c0.315,1.281,1.981-4.803,2.166-5.613
			c1.66-7.277,3.465-8.466,2.406-15.117c-0.187-1.175-0.555-6.202-1.568-8.325c-0.25-0.072-1.067-1.763-1.621-2.411
			c-0.827-0.966-2.798-3.885-3.834-4.572c-4.809-3.192-11.66-7.192-21.962-0.842c-0.922,0.568-2.083-0.245-1.777-1.284
			c0.672-2.286,3.303-8.706,3.999-9.802c0.349-0.55,8.457-21.967,9.166-23.326c0.165-0.317,2.371-0.908,2.723-0.975
			c1.629-0.311,14.615-2.264,14.764-2.4c0.985-0.898,7.867,2.755,8.69,0.615c0.213-2.029,0.426-4.057,0.638-6.084
			C122.677-203.171,122.381-203.656,121.9-203.856z"/>
	</g>
</g>
<path class="st1" d="M176.147-144.319"/>
<path class="st1" d="M103.033,115.205"/>
<path class="st1" d="M103.033,115.205"/>
<g id="design_2_">
	<g>
		<g>
			<path class="st0" d="M204.7,337.632c-6.711-1.167-14.745,2.064-21.481,3.452c-8.159,1.681-16.299,3.454-24.418,5.318
				c-16.238,3.729-32.392,7.825-48.445,12.284c-35.158,9.766-70.085,21.382-101.896,39.258c-2.388,1.342-4.897,2.867-6.048,5.353
				c-1.15,2.486-0.112,6.136,2.581,6.641c2.936,0.55,5.03-2.587,7.069-4.771c1.946-2.085,4.46-3.538,6.958-4.914
				c22.208-12.236,46.234-20.822,70.466-28.285c18.611-5.732,37.417-10.834,56.373-15.295c16.899-3.977,36.564-9.942,53.242-9.942
				c1.4,0,2.8,0,4.2,0c0.7-0.9,2.5-2.3,3.5-2.8C206.7,340.732,205.7,339.832,204.7,337.632z"/>
		</g>
	</g>
</g>
<g>
	<g>
		<path class="st1" d="M192.068,308.868c-0.642-1.629-0.714-2.032-2.307-3.521c-0.295-0.577-5.5-5.879-6.458-6.916
			c-1.42-2.617-3.239-4.181-4.562-5.748c0.062-0.535-1.119-1.13-1.709-1.943c-0.117-0.556-0.161-1.202-0.383-1.388
			s-2.113-2.325-3.242-2.166c-0.22,0.336-0.521,0.329-0.843,0.443s-0.628,0.239-0.887,0.443c-0.259,0.203-0.288,1.738-0.214,2.642
			c0.357,0.041,0.151,0.139,0.463,0.362c0.311,0.222,0.144-0.016,0.452,0.332s6.298,5.955,7.91,8.333
			c0.989,0.91,7.689,9.953,7.867,9.973l0.238,2.164c0.023,0.277,0.146,0.536,0.349,0.726c0.148,0.138,0.318,0.302,0.461,0.517
			c0.14,0.213,0.368,0.352,0.62,0.396c1.729,0.3,1.785,0.445,2.946,0.441c0.508-0.002,0.945-0.38,1.019-0.882
			C194.124,310.778,193.101,309.999,192.068,308.868z M156.148,286.28c-2.67-0.727-5.287,5.592-7.001,8.96
			c-0.378,0.137-2.876,4.552-3.418,6.117c-0.577,0.295-1.853,1.957-1.915,2.492c-0.378,0.137-2.073,2.293-2.45,2.43
			c-1.122,1.197-0.621,2.81-0.494,4.284c0.714,0.082,0.841,0.333,1.555,0.415c0.021-0.179,0.894-0.502,0.915-0.681
			c2.488-0.381,1.044-0.757,2.184-2.453c0.179,0.021,0.659-1.009,0.721-1.545c0.378-0.137,10.718-16.606,11.448-19.299
			C157.157,286.939,156.128,286.458,156.148,286.28z M173.365,302.311c-0.253-0.516-0.773-0.847-1.346-0.808
			c-2.304,0.159-6.228,1.314-6.416,1.601c-0.011,0.001-0.023,0.003-0.035,0.004c-1.578,0.201-8.376,3.338-12.408,3.811
			c-0.612,0.072-1.085,0.572-1.178,1.385l-0.192,1.67c-0.05,0.438,0.228,0.851,0.651,0.974c1.338,0.389,1.977,0.463,3.405,0.379
			c0.41-0.024,0.781-0.271,0.955-0.643l0.442-0.947c1.106-0.199,0.452,0.127,1.133-0.412c0.178,0.021,0.68-0.325,0.859-0.304
			c-0.52,2.449-2.192,6.027-3.433,9.066c-0.027,0.067-0.091,0.156-0.135,0.213c-0.411,0.541-0.966,2.531-1.75,3.976
			c-0.872,1.298-1.64,1.856-1.681,2.213c-0.179-0.021-0.886,0.304-1.065,0.283c-0.23,1.945-0.369,2.443,0.701,3.336
			c-0.015,0.129,0.91,0.272,1.769,0.313c0.54,0.026,1.039-0.285,1.268-0.775c1.561-3.347,3.123-6.695,4.685-10.042
			c0.387-1.03,2.621-5.839,3.238-7.115c0.135,0.016,1.036-1.359,1.401-2.034c0.168-0.309,1.343-1.881,2.67-2.488
			c0,0,3.673-2.691,2.822,0.309c-0.851,3.001-2,7.609-2.927,11.413c-0.17,0.696-0.867,1.124-1.566,0.964l-2.174-0.498
			c-0.692-0.159-1.336,0.444-1.199,1.141c0.156,0.795,0.416,1.286,0.514,2.427c1.206,0.455,1.578,0.682,1.773,1.589
			c0.104,0.483,0.505,0.858,0.992,0.942c2.28,0.394,2.429,0.264,3.075-1.914c0.357,0.041,1.02-0.67,1.377-0.629
			c1.575-6.136,3.541-9.894,4.35-16.335c0.06-0.479-0.178-0.906-0.423-1.322C173.343,303.756,173.513,302.613,173.365,302.311z"/>
	</g>
</g>
<g>
	<g>
		<path class="st1" d="M52.418,245.949c-0.147-0.288-0.316-0.694-0.476-1.135c-0.498-1.372-1.995-2.153-3.376-1.682
			c-3.775,1.286-8.04,4.967-9.415,6.252c-0.204-0.021-0.927,0.77-1.474,1.537c-0.412,0.577-1.024,0.98-1.725,1.089l-1.421,0.222
			c-1.468,0.23-2.672,1.294-3.07,2.726c-0.26,0.934-0.404,1.194,0.143,3.464c0.116,0.482,0.527,0.846,1.021,0.897l4.332,0.454
			c0.525,0.055,1.068-0.066,1.479-0.398c0.201-0.163,0.436-0.286,0.582-0.271c1.702,0.179-6.451,26.957-7.118,29.127
			c-1.222,3.977-2.668,7.962-3.449,12.048c-2.051,10.737-7.622,20.145-10.009,30.759c-0.934,4.155-1.409,8.399-2.229,12.577
			c-1,5.092-5.848,13.119-4.701,18.011c0.212,0.905,0.009,2.155-0.708,2.506c-0.358,0.176-0.554,0.566-0.606,0.962
			c-0.377,2.906-1.366,11.208,0.581,11.412c1.458,0.153,2.917,0.306,4.375,0.459c0.031-0.292,0.061-0.584,0.092-0.875
			c0.292,0.031,0.584,0.061,0.875,0.092c0.122-1.167,0.951-3.44,1.243-3.41c0.017-0.781,0.442-10.351,0.744-10.586
			c0.093-0.072,1.027-5.008,1.457-6.495c0.115-0.399,0.231-0.799,0.346-1.198c0.206-0.711,0.411-1.422,0.643-2.124
			c0.454-1.376,11.881-42.52,12.981-45.687c1.412-4.065,2.882-8.112,4.136-12.229c0.493-1.618,0.952-3.245,1.412-4.872
			c2.126-7.529,5.155-15.317,6.145-23.093c0.092-0.72,1.07-3.055,1.396-3.507c1.569-2.175,1.331-4.439,2.323-6.688
			c0.437-0.991,1.582-1.816,2.114-2.9c0.333-0.679,0.934-5.058,1.421-6.531C52.583,246.557,52.564,246.235,52.418,245.949z"/>
	</g>
</g>
<g>
	<g>
		<path class="st1" d="M119.046,271.641l-0.05-0.659c-0.09-1.183-0.841-2.213-1.939-2.661c-1.379-2.525-0.515-7.571-2.451-9.362
			c-1.164-3.423-2.828-3.259-5.573-4.783l-0.173-0.289c-0.467-0.779-1.245-1.315-2.135-1.497c-0.174-0.036-0.345-0.077-0.503-0.121
			c-0.563-0.157-1.148-0.175-1.724-0.077c-2.551,0.435-9.778,0.594-10.437,1.935c-0.203,0.414-2.561,1.004-3.162,1.61
			c-0.371,0.375-1.543,1.542-2.047,1.736c-0.562,0.217-1.031,0.633-1.391,1.115c-0.592,0.794-1.114,1.639-1.557,2.524
			c-0.145,0.289-0.288,0.591-0.534,0.802c-0.251,0.214-3.589,0.918-4.549,1.689c-0.633,0.508-1.177,1.384-1.71,2.003
			c-0.94,1.091-2.706,2.696-2.784,4.247c-0.061,1.229-3.191,4.518-3.86,5.399c-1,1.317-0.496,3.03-1.179,4.437
			c-0.08,0.165-2.496,3.339-1.857,3.462c-0.476-0.092-0.657,0.593-0.658,1.078c0,0.485-2.207,4.542-2.221,5.159
			c-0.007,0.315-0.952,2.768-0.708,3.4c-0.665,0.739-1.671,5.873-1.978,7.234c-0.155,0.689-0.817,3.507-1.392,3.918
			c0.629,2.371-1.598,12.978-1.478,15.926c0.089,2.183,0.05,4.331,0.082,6.5c0.049,3.276,0.575,6.542,1.695,9.621
			c1.131,3.114,2.717,6.23,5.141,8.536c0.725,0.69,1.658,1.07,2.574,1.472c0.609,0.267,1.386,1.534,1.391,1.761
			c0.024,1.052,4.303,0.576,5.178,0.918c0.423,0.166,3.612-0.027,3.623-0.288l4.22-0.383c0.009-0.27,1.693-0.982,2.526-1.068
			c0.008-0.267,1.69-0.974,2.523-1.061c0.008-0.263,1.115-0.929,1.66-0.999c0.026-0.286,1.256-0.814,1.647-1.26
			c0.391-0.446,1.83-1.981,2.242-2.229c1.506-0.905,2.072-2.456,3.363-3.522c1.366-1.128,3.264-2.043,3.751-3.899
			c0.1-0.381,0.15-0.818,0.358-1.131c0.064-0.097,0.963-0.425,1.322-0.529c0.752-0.219,1.19-1.02,1.323-1.791
			c0.133-0.772,0.043-1.567,0.154-2.342c0.036-0.252,0.102-0.517,0.286-0.693c0.115-0.109,0.264-0.173,0.39-0.27
			c0.202-0.155,0.332-0.383,0.456-0.605c0.812-1.454,2.215-3.215,2.509-4.857c0.225-1.258,1.537-4.143,1.791-4.543
			c0.361-0.568,1.415-3.563,1.836-4.446c0.364-0.765,1.678-6.707,1.594-7.83c-0.023-0.314-0.037-0.661,0.158-0.909
			c0.214-0.272,1.768-7.533,2.561-8.118c-0.105-1.118,0.769-4.36,0.777-5.424c0.017-2.495,0.627-7.528,0.915-7.55
			C119.329,279.142,119.334,271.619,119.046,271.641z M111.633,288.246c0.029,0.351,0.314,1.419,0.162,1.728
			c-0.433,0.876-1.191,3.667-1.284,5.642c-0.026,0.558-0.7,3.04-0.688,3.595c-0.256,0.048-0.697,1.818-0.661,2.655
			c-0.273,0.049-1.03,2.732-1.135,4.024c-0.056,0.691-2.372,6.64-2.307,7.519c-0.282,0.06-1.75,4.906-2.42,5.541
			c-0.204,0.193-0.664,1.298-0.746,1.943s-0.959,1.425-1.272,1.994c-0.279,0.506-1.995,2.844-2.361,3.95
			c-0.069,0.209-0.21,0.373-0.394,0.494c-0.88,0.575-2.536,2.744-3.678,3.764c-1.166,1.041-3.452,3.701-4.095,4.916
			c-0.141,0.266-0.32,0.504-0.567,0.676c-1.584,1.101-3.948,2.032-4.172,2.579c-0.575,0.044-1.682,0.707-1.66,0.995
			c-2.044,0.386-4.089,0.773-6.134,1.16c-0.913,0.173-1.853-0.065-2.579-0.646c-0.925-0.74-2.17-1.652-2.318-1.784
			c-1.231-1.099-2.256-2.438-3.121-3.838c-1.977-3.201-3.176-6.938-2.954-10.724c0.037-0.628,0.739-5.117,0.59-7.08
			c-0.041-0.537,0.676-2.769,0.643-3.611c0.265-0.05,0.105-3.259,0.52-5.493c0.25-0.055,0.411-2.288,0.667-2.792
			c0.046-0.09,0.135-0.268,0.147-0.368c0.223-1.888,0.421-1.988,0.411-2.763c0.263-0.048,0.702-5.642,2.349-9.268
			c0.303-0.667,2.792-6.552,3.064-6.606c-0.156-0.618,1.145-1.736,0.868-2.776c0.65-0.022,1.091-3.076,2.224-3.975
			c0.4-0.318,0.401-1.55,1.057-2.568c0.289-0.024,1.13-0.84,1.417-0.862c-0.015-0.192,0.32-0.993,0.539-1.591
			c0.127-0.349,0.362-0.639,0.634-0.891c1.185-1.094,3.259-5.633,9.987-10.523c1.704-0.419,5.024-2.409,4.981-2.984
			c5.455-1.456,6.013-0.767,10.488,0.936c1.083,2.81,2.165,5.622,3.248,8.433c0.066,0.863,1.392,3.077,1.99,3.32
			C114.02,274.962,111.502,286.671,111.633,288.246z"/>
	</g>
</g>
<path class="st1" d="M176.147,296.362"/>
<path class="st1" d="M103.033,332.737"/>
<path class="st1" d="M103.033,332.737"/>
<path class="st1" d="M70.916,62.559"/>
</svg>
