<?xml version="1.0" encoding="utf-8"?>
<!-- Generator: Adobe Illustrator 26.2.1, SVG Export Plug-In . SVG Version: 6.00 Build 0)  -->
<svg version="1.1" id="圖層_1" xmlns="http://www.w3.org/2000/svg" xmlns:xlink="http://www.w3.org/1999/xlink" x="0px" y="0px"
	 viewBox="0 0 380.5 380.5" style="enable-background:new 0 0 380.5 380.5;" xml:space="preserve">
<style type="text/css">
	.st0{fill:#FFFFFF;}
</style>
<g>
	<path class="st0" d="M92.43,253.15c-0.2,3.78-0.65,7.15-1.41,10.07l-4.28-1.36c0.91-2.67,1.51-5.74,1.71-9.17L92.43,253.15z
		 M96.41,239.45v-2.67h-7.96v-18.99h20.75v18.99h-8.21v2.67h7.76v4.13h-7.76v2.77c3.22-0.25,6.04-0.5,8.41-0.81v4.08
		c-4.13,0.71-11.23,1.31-21.31,1.86l-0.65-4.58c3.22-0.1,6.25-0.2,8.97-0.3v-3.02h-7.35v-4.13H96.41z M96.92,221.71h-4.28v3.02
		l2.42-0.81c0.6,2.01,1.21,4.28,1.71,6.85l-2.67,0.71c-0.4-2.01-0.86-3.98-1.46-5.79v7.15h4.28V221.71z M98.22,261.56l-4.33,0.5
		c-0.05-3.73-0.15-6.65-0.25-8.71l3.93-0.45C97.87,255.01,98.12,257.88,98.22,261.56z M104.82,260.1l-4.13,1.11
		c-0.4-2.77-0.96-5.44-1.61-8.06l3.68-1.21C103.51,254.31,104.22,257.03,104.82,260.1z M105.02,221.71h-4.43v11.13h4.43V221.71z
		 M104.92,224.18c-0.25,2.52-0.76,4.99-1.46,7.4l-2.62-0.91c0.65-2.22,1.11-4.63,1.36-7.15L104.92,224.18z M110.77,258.39
		l-3.98,1.51c-0.71-2.72-1.51-5.34-2.47-7.91l3.58-0.96C109.11,253.7,110.06,256.17,110.77,258.39z M122.81,216.53v8.76h10.07v4.78
		h-10.07v7.66h8.61v24.78h-4.94v-2.01h-9.92v2.12h-4.94v-24.88h6.25v-21.21H122.81z M126.48,255.77v-13.3h-9.92v13.3H126.48z"/>
	<path class="st0" d="M166.13,244.48c-2.67,0.91-5.44,1.71-8.36,2.47v10.18c0,3.38-1.76,5.09-5.29,5.09h-5.69l-1.16-4.99
		c1.76,0.2,3.43,0.3,5.04,0.3c1.16,0,1.76-0.61,1.76-1.71v-7.61c-2.92,0.6-5.89,1.16-9.02,1.66l-0.76-5.29
		c3.42-0.5,6.7-1.11,9.77-1.76v-8.66h-9.82v-5.04h9.82v-4.68c-2.42,0.5-4.89,0.91-7.51,1.26l-1.11-4.99
		c6.95-0.75,13.2-2.22,18.64-4.43l1.81,4.94c-2.06,0.76-4.23,1.41-6.5,2.02v5.89h10.33c-0.3-3.88-0.4-8.16-0.4-12.79h5.29
		c0.05,4.84,0.2,9.07,0.5,12.79h15.06v5.04h-14.66c0.3,3.27,0.76,5.94,1.31,8.06c0.2,0.81,0.4,1.51,0.6,2.22
		c2.06-2.57,3.88-5.44,5.39-8.56l4.53,2.42c-2.22,4.53-4.89,8.51-7.96,11.84c0.5,1.21,1.06,2.27,1.61,3.07
		c1.41,2.22,2.52,3.33,3.22,3.33c0.55,0,1.11-2.57,1.71-7.61l4.68,2.47c-1.31,7.2-3.17,10.83-5.64,10.83c-2.22,0-4.53-1.51-6.9-4.48
		c-0.91-1.16-1.76-2.47-2.52-3.98c-3.42,2.82-7.25,5.04-11.43,6.65l-2.92-4.48c4.63-1.71,8.71-4.13,12.19-7.25
		c-0.55-1.61-1.06-3.27-1.51-4.99c-0.76-2.72-1.31-5.89-1.71-9.52h-10.78v7.45c2.92-0.76,5.74-1.56,8.36-2.47V244.48z
		 M187.59,223.43l-3.78,3.78c-2.06-2.22-4.99-4.53-8.82-7.05l3.53-3.37C182.05,219,185.07,221.21,187.59,223.43z"/>
	<path class="st0" d="M230.52,216.37c2.67,4.13,7.2,7.76,13.65,10.88l-2.87,4.33c-2.67-1.31-4.99-2.77-6.95-4.28v2.37h-11.53v-2.72
		c-2.32,2.02-4.89,3.73-7.66,5.14l-2.01-3.02v0.96h-4.59v8.81c1.71-0.76,3.43-1.56,5.14-2.47v5.24c-1.71,0.81-3.42,1.61-5.14,2.32
		v13.2c0,3.42-1.61,5.19-4.73,5.19h-4.28l-1.16-4.99c1.26,0.2,2.47,0.3,3.63,0.3c0.86,0,1.31-0.65,1.31-1.86v-9.82
		c-1.51,0.5-2.97,1.01-4.38,1.46l-1.26-5.04c1.91-0.4,3.78-0.91,5.64-1.51v-10.83h-5.04v-5.09h5.04v-8.61h5.24v8.61h4.59v2.37
		c5.44-2.87,9.67-6.5,12.69-10.93H230.52z M220.65,249.57h20.25v13.3h-4.78v-1.71h-11.79v1.71h-4.78v-9.82
		c-1.36,3.48-3.32,6.65-5.84,9.52l-3.93-3.53c4.63-4.68,6.95-10.73,7.05-18.08v-9.47h22.97v16.02H221.1L220.65,249.57z
		 M221.65,243.48h13.2v-2.02h-13.1C221.75,242.12,221.7,242.77,221.65,243.48z M234.85,235.67h-13.1v1.97h13.1V235.67z
		 M232.43,225.74c-1.66-1.51-3.07-3.07-4.23-4.78c-1.26,1.71-2.62,3.32-4.08,4.78H232.43z M236.11,257.23v-3.73h-11.79v3.73H236.11z
		"/>
	<path class="st0" d="M261.15,252.44c-1.11,3.32-2.52,6.6-4.23,9.82l-4.03-2.07c1.81-3.27,3.27-6.5,4.33-9.67L261.15,252.44z
		 M269.16,217.84v31.68h-14.51v-31.68H269.16z M264.48,226.7v-4.53h-5.09v4.53H264.48z M264.48,235.77v-4.94h-5.09v4.94H264.48z
		 M264.48,239.9h-5.09v5.29h5.09V239.9z M270.82,258.94l-3.78,2.57c-1.11-2.67-2.57-5.64-4.43-8.86l3.63-2.27
		C268.2,253.6,269.71,256.47,270.82,258.94z M281.75,216.32v3.27h6.35v-3.27h4.84v3.27h5.49v4.03h-5.49v2.32h4.53v3.88h-4.53v2.37
		h6.5v4.03h-12.19v2.16h9.82v12.44h2.52v4.23h-2.52v3.63c0,2.62-1.56,3.98-4.68,3.98h-3.98l-1.06-4.28l3.68,0.2
		c0.86,0,1.31-0.3,1.31-0.91v-2.62h-14.91v7.66h-4.74v-7.66h-2.77v-4.23h2.77v-12.44h9.72v-2.16h-11.99v-4.03h6.55v-2.37h-4.53
		v-3.88h4.53v-2.32h-5.54v-4.03h5.54v-3.27H281.75z M277.42,242.22v2.57h4.99v-2.57H277.42z M282.41,250.83v-2.62h-4.99v2.62H282.41
		z M288.1,225.95v-2.32h-6.35v2.32H288.1z M288.1,232.19v-2.37h-6.35v2.37H288.1z M292.33,242.22h-5.09v2.57h5.09V242.22z
		 M292.33,250.83v-2.62h-5.09v2.62H292.33z"/>
</g>
<g>
	<path class="st0" d="M169.11,283.25l2.95,9.28h-0.74c-1.79-3.34-3.68-5.74-5.67-7.2c-1.99-1.46-4.33-2.19-7.04-2.19
		c-4.18,0-7.7,1.63-10.55,4.9c-2.5,2.88-3.74,6.56-3.74,11.02c0,5.17,1.42,9.47,4.27,12.89c2.85,3.43,6.41,5.14,10.7,5.14
		c3.8,0,6.31-1.07,7.54-3.22c0.53-0.91,0.79-2.39,0.79-4.43v-0.84c0-2.64-0.49-4.41-1.48-5.33c-1.09-1.02-2.62-1.6-4.59-1.74v-0.79
		h15.82v0.79c-1.41,0.32-2.43,1.04-3.06,2.16c-0.49,0.88-0.74,2.51-0.74,4.9v4.69l1.58,2.32h-0.84c-2.39,0-5.24,0.53-8.54,1.58
		c-3.31,1.05-6.28,1.58-8.91,1.58c-5.63,0-10.02-1.56-13.18-4.69c-3.66-3.59-5.48-8.03-5.48-13.34c0-5.17,1.88-9.58,5.64-13.24
		c3.76-3.66,8.31-5.48,13.66-5.48c1.58,0,3.38,0.16,5.38,0.47c0.11,0.04,1.27,0.25,3.48,0.63c0.7,0.14,1.21,0.19,1.53,0.16
		c0.14,0,0.44-0.02,0.9-0.05H169.11z M154.5,317.84c-3.52-1.19-6.22-2.87-8.12-5.01c-3.02-3.44-4.54-7.63-4.54-12.55
		c0-4.32,1.11-8.05,3.32-11.18c1.19-1.69,3.01-3.39,5.43-5.11c-7.59,3.66-11.39,9.26-11.39,16.82c0,4.57,1.41,8.43,4.24,11.58
		C146.28,315.53,149.97,317.35,154.5,317.84z M165.74,301.7l1.5,1.11c0.93,0.67,1.4,1.41,1.4,2.21v0.84c0,0.14,0,0.28,0,0.42v3.9
		c0,1.34-0.15,2.39-0.45,3.16c-0.3,0.77-0.89,1.6-1.77,2.48c1.55-0.63,3.18-1.07,4.9-1.32v-8.65c0-0.7,0.04-1.24,0.13-1.61
		c0.09-0.37,0.52-0.85,1.29-1.45l1.48-1.11H165.74z"/>
	<path class="st0" d="M179.23,300.39c0-5.1,1.81-9.45,5.43-13.05c3.62-3.6,7.98-5.41,13.08-5.41c5.06,0,9.39,1.8,13,5.41
		c3.6,3.6,5.41,7.95,5.41,13.05c0,5.1-1.79,9.45-5.38,13.05c-3.59,3.6-7.91,5.41-12.97,5.41c-5.13,0-9.51-1.8-13.13-5.41
		C181.04,309.83,179.23,305.48,179.23,300.39z M189.94,316.26c-4.54-3.34-6.8-8.68-6.8-16.03c0-6.93,2.27-12.13,6.8-15.61
		c-3.06,1.65-5.44,3.86-7.15,6.62c-1.71,2.76-2.56,5.81-2.56,9.15c0,3.34,0.85,6.41,2.56,9.2
		C184.5,312.38,186.88,314.61,189.94,316.26z M185.77,300.2c0,5.25,1.08,9.43,3.24,12.54c2.16,3.12,5.07,4.67,8.73,4.67
		c2.95,0,5.52-1.16,7.7-3.49c2.78-2.96,4.17-7.55,4.17-13.79c0-5.25-1.08-9.44-3.24-12.57c-2.16-3.13-5.05-4.7-8.67-4.7
		c-3.62,0-6.51,1.58-8.68,4.73C186.86,290.76,185.77,294.96,185.77,300.2z M204.07,316.26c6.29-3.66,9.44-8.93,9.44-15.82
		c0-3.34-0.77-6.43-2.32-9.28s-3.62-4.97-6.22-6.38c3.76,3.23,5.64,8.37,5.64,15.4c0,4.25-0.69,7.84-2.06,10.76
		C207.68,312.8,206.18,314.57,204.07,316.26z"/>
	<path class="st0" d="M224.52,307.87l-0.05-0.69c-0.46-5.73-1.19-10.69-2.19-14.87c-0.53-2.21-0.8-3.97-0.8-5.27
		c0-1.44,0.31-2.6,0.92-3.48c0.61-0.88,1.45-1.32,2.5-1.32s1.9,0.43,2.53,1.29c0.63,0.86,0.95,2.01,0.95,3.45
		c0,0.81-0.31,2.6-0.93,5.38c-0.83,3.69-1.35,6.21-1.56,7.54c-0.38,2.29-0.57,4.71-0.57,7.28v0.69H224.52z M221.48,315.05
		c0-0.91,0.32-1.7,0.96-2.35c0.64-0.65,1.43-0.98,2.36-0.98c0.93,0,1.72,0.33,2.38,0.98c0.66,0.65,0.99,1.43,0.99,2.35
		c0,0.91-0.33,1.7-0.99,2.35c-0.66,0.65-1.46,0.98-2.38,0.98c-0.93,0-1.71-0.33-2.36-0.98C221.8,316.74,221.48,315.96,221.48,315.05
		z M224.78,301.12c0-1.83,0.07-3.97,0.21-6.43c0.07-1.09,0.3-3.25,0.7-6.49c0.14-1.16,0.21-1.88,0.21-2.16
		c0-1.79-0.52-2.69-1.55-2.69c-1.32,0-1.98,1.14-1.98,3.43c0,1.05,0.2,2.5,0.59,4.32l0.7,3.27c0.21,0.95,0.48,2.36,0.8,4.22
		C224.53,299.02,224.64,299.86,224.78,301.12z M225.33,316.94v-3.85c0-0.42-0.22-0.63-0.64-0.63c-0.61,0-1.15,0.26-1.61,0.76
		c-0.47,0.51-0.7,1.12-0.7,1.82c0,0.67,0.24,1.27,0.72,1.79c0.48,0.53,1.01,0.79,1.58,0.79
		C225.11,317.63,225.33,317.4,225.33,316.94z"/>
</g>
</svg>
