<?xml version="1.0" encoding="utf-8"?>
<!-- Generator: Adobe Illustrator 26.1.0, SVG Export Plug-In . SVG Version: 6.00 Build 0)  -->
<svg version="1.1" id="圖層_1" xmlns="http://www.w3.org/2000/svg" xmlns:xlink="http://www.w3.org/1999/xlink" x="0px" y="0px"
	 viewBox="0 0 1105.5 956" style="enable-background:new 0 0 1105.5 956;" xml:space="preserve">
<style type="text/css">
	.st0{fill:#221E1F;}
	.st1{fill:#FFFFFF;}
	.st2{fill:#F5B351;}
	.st3{fill:#C9973F;}
</style>
<g>
	<g>
		<circle class="st0" cx="529.4" cy="122.3" r="86.3"/>
		<g>
			<g>
				<path class="st1" d="M510.5,129.9c-0.1-0.6-0.1-0.6-0.3-0.9c-0.7-0.2-4.2-0.6-4.7-0.9c-0.9,0-1.1-0.1-1.6-0.5
					c-0.1-13.3-0.1-26.7-0.2-40c0-3.6,0-7.2,0-10.8c0-1.1-0.3-3.4,0.2-4.2c0.1-0.2,0.1-0.3,0.2-0.5c1.9-0.4,4.3-0.9,6.1-1.1
					c0.1-0.2,0.2-0.3,0.3-0.5c0-0.4-0.1-0.5-0.2-0.8c-9,0-17.9,0-26.9,0c-0.2,0.6-0.1,0.8,0.2,1.3c2.1,0.5,5,0.5,6.7,1.3
					c0.7,3.8,0.2,9.4,0.2,13.6c0,9.1,0,18.3,0,27.4c0,3.4,0,6.8,0,10.2c0,1.1,0.3,3.3-0.2,4.1c-0.1,0.2-0.1,0.3-0.2,0.5
					c-3.2,0.6-4.8,0.1-7.2,1.6c0,0.2,0,0.4,0,0.6c0.3,0.1,0.2,0,0.3,0.2c6.4,0,12.8,0,19.2,0C504.8,130.2,508.8,130.8,510.5,129.9z
					 M522.5,126.3c-0.1,0-0.1,0-0.2,0c0.1-0.4,0.1-0.3,0.3-0.5c0.1-0.1,0.1-0.1,0.2-0.2c1.1,1.1,2.3,2.3,3.4,3.4
					c0.1,0.1,0.1,0.1,0.2,0.2c0.7-1.5-0.2-2.3,0.3-3.8c0.1-0.3,0.4-0.5,0.5-0.9c-0.5-0.5-1-1-1.6-1.6c-0.1-0.1-0.1-0.1-0.2-0.2
					c5-5,10-10,15-15c0-8.5,0-17,0-25.5c0-2.6-0.6-8.7,0.3-10.5c2.4,0,4.2-0.5,6.1-0.8c0-0.5,0-0.9,0-1.4c-6.2,0-12.4,0-18.6,0
					c-2.3,0-6.5-0.5-8.4,0.2c0,0.4,0.1,0.7,0.2,0.9c1.4,0.3,5.7,0.6,6.4,1.1c0.5,0.2,0.5,0.4,0.8,0.8c0,6.1,0,12.2,0,18.3
					c0,2.3,0.4,6-0.5,7.5c-4.9,0-9.8,0-14.7,0c-1.4,0-4.5-0.4-5.3,0.3c-0.4,0.5-0.2,0.6-0.2,1.3c3.9,0.7,10.2,0.2,14.5,0.2
					c1.2,0,4.7-0.3,5.5,0.2c0.1,0,0.2,0,0.3,0c0.1,0.3,0.1,1.1,0.3,1.4c0,6.4,0,12.8,0,19.2c-3.4,3.4-6.9,6.8-10.3,10.2
					c-6.8,6.8-13.7,13.7-20.5,20.5c-1.4,1.4-2.5,2.9-3.9,4.2c0,0.1,0,0.2,0,0.3c6.7-2.7,11.6-6.6,16.9-10.6c2.2-1.6,3.9-3.8,6.1-5.5
					c0.7-0.7,1.4-1.5,2-2.2c2.2-1.6,4-3.7,5.9-5.6c0.7-0.7,2-1.4,2.3-2.5C526,129.1,523.1,127,522.5,126.3z M560.5,106
					c3.5-0.7,4.6-0.3,6.4-3.8c1.8-2.4,4.3-4.3,6.1-6.7c0.9-1.1,1.7-2.8,2.8-3.6c0-0.2,0-0.3,0-0.5c-1,0.3-1.6,1.5-2.2,2.2
					c-2,2.3-4.7,4.5-6.4,7c-3,0.2,7.4-8.9,7.7-10.2c-0.1-0.1-0.1-0.1-0.2-0.2c-3.3,2.5-5.8,6.2-8.9,8.9c-0.4-0.1-0.4-0.1-0.6-0.2
					c0.3-1.3,1.7-2.1,2.5-3c1.9-2.3,4.5-4.3,5.9-6.7c-1.2,0.2-1.9,1.6-2.7,2.3c-2.2,2.1-4.4,4.2-6.6,6.3c-0.1,0.1-0.4-0.1-0.6-0.2
					c0.2-1.2,1.6-1.9,2.3-2.7c2.3-2.1,4.2-4.5,6.4-6.6c-0.1-0.3,0-0.2-0.2-0.3c-4,2.7-8.3,7.3-11.9,10.8c-1.9,1.9-0.7,2.6-1.6,5.2
					c-9.6,12.1-22.1,22-32.7,33.3c-4.4,30.2,23.5,45.5,49.6,33.5c0-0.2,0-0.3,0-0.5C555,176,541,171,539.3,147.8
					c-1.8-15.5,3.1-33.7,19.7-34.6c1.6-0.4,5.6-0.7,6.7,0.2c1.6,0.5,1.7,2.8,2.2,4.4c1.2,3.6,2.5,7.8,3.3,11.4
					c1.3,0,3.1,0.1,3.9-0.3c0-3.4,0-6.9,0-10.3c0-1.1,0.3-3.3-0.2-4.1c-1.6-2.4-11.4-2.6-14.9-3.6c-1-0.2-4.2-0.3-4.8,0.2
					c-0.1,0-0.2,0-0.3,0C555.6,109.9,559.1,106.6,560.5,106z"/>
			</g>
		</g>
	</g>
	<g>
		<g>
			<path class="st2" d="M62.4,375c-15.8,10.2,3.2,19.2,19.1,0C65.7,355.7,46.6,364.7,62.4,375z M1041.5,375
				c15.8-10.2-3.2-19.2-19.1,0C1038.3,394.2,1057.4,385.2,1041.5,375z M1010.2,373.9H93.7c-0.6,0-1,0.5-1,1c0,0.6,0.5,1,1,1h916.5
				c0.6,0,1-0.5,1-1C1011.3,374.4,1010.8,373.9,1010.2,373.9z"/>
		</g>
	</g>
	<g>
		<path class="st1" d="M167.5,812.1h2l0.7,0.8c0.3,0.7-0.6,1.2-2.8,1.5c-2.3,1.8-3.6,6.3-3.9,13.4c0.1,3.1,0.8,6,2.1,8.8
			c0.3,0.9,1.2,1.8,2.6,2.8c0.7,0.5,2.4,0.3,5-0.7l0.3,1.1c-0.5,1.7-2.2,2.6-5,2.5c-5-1-7.4-6.3-7.3-15.9c0-3.5,0.7-7,2-10.5
			C164,813.5,165.4,812.2,167.5,812.1z M182.6,807.5c0.9-0.7,2.3,0.8,4,4.4l0.1,1.4l-0.3,0.3h-0.9l-1-1.3c-0.4,0-0.7,0.8-0.7,2.4
			v1.4l0.4,0.4l6.9-2.3c0.9,0.1,1.5,0.5,2,1.1v1.3c-0.3,0.6-1.2,0.9-2.6,0.9l-0.6-0.1l-5.4,2.3c-0.3,0-0.5,0.8-0.4,2.5l0.4,3.3
			l0.6,0.1l6.1-3.2c0.6,0,1-0.8,1.2-2.3h0.9c0.6,0.1,1.1,0.6,1.4,1.2v1.7c0.2,0.4-1.2,1.4-4.1,2.8l-5.4,3.1c-0.2,1.5,0,3.7,0.7,6.7
			c0.3,0.8,0.1,1.5-0.4,2h-0.7c-0.9,0.2-1.6-1.7-2-5.8l-0.6-2l-3.5,1.4l-2.6,0.1c-1.1-0.1-2.1-0.7-3.1-1.9l-0.1-0.4
			c-0.1-0.7,0.6-1.4,2-2.1h0.7c0.4,0,0.8,0.4,1.2,1.2c1.5,0.3,3.3-0.2,5.4-1.5l-0.8-6l-4.6,1.1h-0.4c-1.2-0.4-1.8-0.8-1.8-1.2
			l-0.1-0.9c-0.2-0.8,1.6-1.3,5.4-1.7l1.5-0.8v-7.6C181.2,808.3,181.7,807.6,182.6,807.5z M196.3,800.5h1.5
			c2.6-0.5,3.5,4.7,2.6,15.5c-0.6,6.9-0.1,14.1,1.7,21.5l2.3,6v0.4c0,0.6-0.4,1-1.2,1.3h-1.6c-3.7-0.8-6.8-3.5-9.3-8.1v-0.9l0.8-0.3
			c0.4-0.2,1.9,0.9,4.3,3.3l2.8,1.5c-1.6-4.6-2.5-15.4-2.6-32.6l-0.9-3.3l-0.9-0.7l-12.6,2.2l-2.5,0.1c-0.4,0.5-0.8,0.6-1.2,0.4
			l-1.5-1.1v-1.2c-0.1-0.8,3.2-1.5,9.8-1.9l8.1-1.8L196.3,800.5z"/>
		<path class="st1" d="M228.9,819.8l1.2-0.3l0.1,1.4c0.3,0.5-0.8,1.3-3.1,2.3c-3.5,2.5-5.5,5.7-5.9,9.8c0.3,1.3,1,2.2,2.3,2.7
			c0.5,0.2,2.1-0.2,4.6-1.3l0.7,0.3c0.3,1.3-1.2,2.5-4.4,3.5h-2c-2-0.6-3.2-2.3-3.8-5.2v-1.2C219.9,825.8,223.4,821.9,228.9,819.8z
			 M238.6,822.2h0.6c0.3-0.1,0.7,0.2,1.1,0.9v0.8l-1.2,1.1v0.6c1.7,3.7,5.3,5.3,10.5,4.7l0.9-1.1c-0.3-1.2-0.2-2.2,0.4-2.9h0.9
			c1,0.4,1.4,2.3,1.2,5.5c-0.6,1.1-1.1,1.5-1.7,1.2l-3.9,0.1c-5.5-0.1-9.3-2.3-11.2-6.7l-0.3-2.8
			C235.9,823.2,236.8,822.6,238.6,822.2z M238.6,807.6c0.4-0.9,3.5,0.4,9.4,3.9c1.5,0.3,2.4,0.7,2.5,1.1l0.1,1.4
			c-0.7,0.6-1.4,0.8-2,0.6l-9.6-3.9c-0.8-0.6-1.1-1.3-1-2.3L238.6,807.6z M257.5,809.7h1.5c3.2,1,5.5,3.2,6.9,6.7l0.1,1.8
			c-0.1,1.1-0.6,1.7-1.4,1.7h-0.7c0.2-2.9-1.7-5.4-5.8-7.4c-1.3-0.5-1.8-0.9-1.6-1.1l0.1-0.9L257.5,809.7z"/>
		<path class="st1" d="M288.3,803.4l6.7,2.8l1.5,1.5l0.3,2c0.9,1.2-2.6,4.6-10.7,10.2l-4.6,4.3c-1.4,1.6-2,3.3-1.8,5.3
			c2.7,4.3,6.3,6.2,11,6h0.5c2.3,0.4,4.2-1,5.7-4.2V831c-2.7,0.4-5-0.3-6.8-2.2c-0.6-0.4-1.1-1.4-1.4-2.9c-0.4-0.7,1.1-1.5,4.6-2.6
			l4.9-2.1l2-0.1c1.2,0.1,2,0.7,2.5,1.7c1.6,1-0.5,6-6.4,15c-1.1,0.9-2.4,0.9-4,0l-3.8,0.1c-5.4-0.7-9.1-3.4-11.1-7.9l-0.2-1.5
			c-1-2.1,3.9-7.5,14.7-16.1c0.9-0.7,1.5-1.7,1.7-3.1c0.3-0.6-1.1-1.4-4.3-2.3l-2-1.8l-0.1-0.6C287.2,803.8,287.6,803.4,288.3,803.4
			z M299.1,824c-1.4,0.2-3.6,1.2-6.8,2.9c0.7,1.1,1.9,1.6,3.6,1.5c1.9,0.5,3.1-0.3,3.6-2.5v-1.5L299.1,824z M309.1,826.5h0.4
			c0.5-0.2,3,1.7,7.3,5.7v0.9l-0.7,0.6h-0.8c-1.2,0-3.6-1.9-7.2-5.6v-0.9L309.1,826.5z M311.2,806.3h1.1c0.8,0.3,1.3,0.9,1.4,2v7.5
			c0.2,1.1,0.4,1.7,0.7,1.7c0.2,0.5,3.1-0.7,8.6-3.6h1c1.4,0.3,2.1,1.1,2.3,2.3c0.9,3.4-1.4,11-6.8,22.7c-0.8,1.7-2,2.8-3.5,3.3
			h-1.5l-0.7-0.7c-0.6-0.5,0-0.9,1.8-1.3c3.8-3.6,6.5-10.6,8.1-21.1l-0.7-2.2c-0.2-0.3-1.9,0.6-5.2,2.8l-3.1,1.2h-0.9
			c-2.5,0.3-3.6-4.1-3.3-13.4C310.5,807,310.7,806.5,311.2,806.3z"/>
		<path class="st1" d="M372.1,819.8h2.5c1.1,0.3,1.7,0.9,1.7,1.7c0.1,0.5-0.2,0.9-0.9,1.3c-0.8-0.7-3.9-0.4-9.3,0.9
			c-0.1,0.4-3.9,1-11.2,2c-1.9,0.4-4.2,0.2-6.8-0.6l-1.5-1.5l-0.1-0.8c-0.3-1,1.1-1.6,4.3-1.7l1.8,1.7
			C359,822.5,365.5,821.5,372.1,819.8z"/>
		<path class="st1" d="M416.8,789.1h0.9c0.7,0.1,1.4,0.7,1.9,1.7c0.2,2.6-1.2,5.6-4.1,9v0.6l0.4,0.4c0.2-0.3,1-0.4,2.3-0.3l2,1.1
			c0.8,0.7,0,2.9-2.5,6.7l0.1,0.4c-0.8,1.8-2.4,3.6-4.7,5.2c-1.6,2.4-3.2,5.6-4.9,9.7c-0.3,0.4-0.2,1.6,0.3,3.6c0,0.7-0.3,1.3-1,1.7
			h-1.4l-1.1-1c-0.7-2.6,0.9-7.2,4.9-14c-0.4,0.1-1.7,0.2-3.9,0.1c-0.6,0-1.3-0.5-2-1.2v-1.1l0.9-0.7c0.8,0.8,3.2,0.7,7.2-0.4
			c1.5-1.6,2.8-3.7,3.8-6.2l-0.3-0.3c-1.1,0-4.2,1-9.3,3.1c-0.7-0.1-1.3-0.6-1.7-1.4v-1c-0.2-0.3,0.8-1.1,3.1-2.3
			c0.7-0.1,1.8-1.2,3.3-3.2l-5.2-4.9l-0.7-1.1v-0.9l0.4-0.4h1.7c0.3-0.3,1.1,0.4,2.5,2.2l3.4,3.2c0.4,0.1,1.3-1.1,2.7-3.6v-1.1
			c-0.7,0-1.6,0.2-2.7,0.7l-0.2,0.1l0.2,1.1l-0.7,0.4h-0.7c-0.7-0.4-1.3-1-1.7-1.8v-0.9C409.6,791.3,411.8,790.2,416.8,789.1z
			 M429.3,826.6h1.5l1.7,1.4v1.5c0.5,0.4-1.4,2.9-5.5,7.3l-3.5,4.1l4.3-0.6h1.5c1.8,0.2,3.1,1,3.9,2.4c0.4,1.2-0.1,2.8-1.5,4.7
			c0,0.4,1.9,1.4,5.8,2.9l0.1,1.2l-0.8,0.9c-0.2,0.5-2.1-0.2-5.7-2l-1.7-0.6c-2.8,2.4-5.8,4.5-9.2,6.1c-0.4,0.4-1.4,0.6-2.9,0.6
			c-2.5-0.4-3.9-3.3-4.1-8.7c-0.2,0-0.3-1.8-0.2-5.3c-0.1-2,0.1-4.4,0.5-7.2l-0.5-0.4c-0.1,0.3-1.3,0.4-3.6,0.3
			c-1.2-0.1-1.9-0.5-2-1.3v-0.5c-0.1-0.5,0.6-0.9,2-1.4c1.9,1.5,7.4,0,16.5-4.4L429.3,826.6z M430.8,797.6c2,0.1,3.1,0.8,3.2,2.2
			l0.1,1.5c-0.1,1.4-1.2,3.3-3.2,5.8l1.4,1.5v1.1c-0.8,0.3-2.5,1.6-5.1,3.9c-1,0.2-2.8,1.4-5.4,3.3l0.1,0.4c0.1-0.5,1.8-0.9,5-1.1
			c1.4,0,2.7,0.4,4.1,1.1l1.1,1.4v0.9c-0.6,1.1-1.2,1.5-1.7,1.2h-3.1l-0.3-0.1l0.5-1.2c-2.4-1-4.9-0.6-7.6,1.2l2.8-0.1
			c0.1,0.5,1.2,1.6,3.2,3.2l0.1,1.8l-1.1,0.9c-0.7,0.1-1.9-0.7-3.5-2.4l-3.9-0.9c-0.5-0.5-0.8-1-0.9-1.5c-0.7-0.2-1.9,1.5-3.5,5.3
			l-1.4,0.4c-0.9-0.1-1.5-0.6-1.7-1.4v-0.7c1.5-3.4,7.4-8.6,17.7-15.7l-2.5,0.3c-0.7,0-1.2-0.5-1.5-1.5c0.2-0.3,0.7-0.5,1.5-0.7
			v-0.1l-3.3-2.3v-0.8c1.5-1.2,3.3-3,5.3-5.3C428.2,798.4,429.3,797.9,430.8,797.6z M421,842.3l-2.9,1.5l-1.7-0.3
			c-0.5,3.2-0.2,6.2,0.9,9.2l0.7,0.6c0.9,0.7,3.8-1,8.7-4.9c-1.8-0.6-3.5-1.9-5-4.1L421,842.3z M420.7,837.1c-1.1,0.3-2.2,0.9-3.2,2
			c-0.7-0.2-1.1,0-1.4,0.9v0.8l0.4,0.3c1.1-0.2,2.7-1.5,4.8-3.9L420.7,837.1L420.7,837.1z M418.3,820l-0.2,0.2v0.3h0.5l0.3-0.3
			l-0.3-0.2H418.3z M427.6,829.6c-1,0.1-3.8,1.2-8.3,3.3l-0.1,0.1c0.5,0.6,1.2,0.9,2.1,0.8l2.2-0.4c0.8,0.2,1.3,0.7,1.5,1.4h0.1
			c1.3-1.4,2.4-3.1,3.2-5.2v-0.1h-0.7V829.6z M430.3,800.8l-4.9,2.9l-0.1,0.1l2.9,1.5c0.8-0.5,1.6-1.7,2.5-3.8l-0.1-0.9L430.3,800.8
			z M426.8,843.2l-1.2,0.4v0.3l2.7,2.1c0.8-0.3,1.4-0.9,1.7-2C429.7,843.4,428.6,843.1,426.8,843.2z"/>
		<path class="st1" d="M484.3,821.2c0,2.7-1,5.4-3.1,8.1c-0.8,1.1-1.5,1.6-2,1.6c-0.8,0-1.2-0.4-1.2-1.2c0-0.2,0.5-1,1.4-2.5
			c0.9-1.4,1.3-2.1,1.3-2.3c0-0.6-0.4-0.9-1.2-0.9c-2,0-3.1-1-3.1-3.1c0-2.4,1.4-3.6,4.1-3.6c1.1,0,2,0.4,2.7,1.2
			C484,819.2,484.3,820.1,484.3,821.2z"/>
		<path class="st1" d="M529.3,805.1c0.5-0.5,2.7,0.1,6.7,2l0.1-0.1c-0.2,0.3,0.2,0.8,1.2,1.5c0.8,0.8,1.1,1.6,0.7,2.3
			c0.4,0.8-1.7,1.9-6.4,3.5l-2.9,1.4c-0.4,0.4-0.4,3.3,0,8.6l0.3,0.4l4.4-1.7l0.8-0.1l0.1,0.6c0.3,0.3-0.6,1.1-2.6,2.3
			c-0.6,0.1-1.6,0.8-2.9,2l1.1,8.5c-0.2,0.8-0.8,1.3-1.7,1.4c-0.7,0.4-4.1-1.9-10.2-6.9v-1.2c-0.3-0.8,2.2-1.9,7.3-3.3l0.9-0.4
			l-0.7-8.9l-0.1-0.1l-5.2,0.8c-0.6,0.1-1.2-0.4-1.8-1.4v-0.9c0.4-0.8,1-1.2,2-1.2l2.3,0.1l3.1-0.8l0.5-1.7l1-5
			C527.7,805.9,528.3,805.4,529.3,805.1z M526.1,828.7l-3.4,1.8v0.1l4,2.5l0.3-0.3l-0.4-4.3L526.1,828.7z M530.9,808.1
			c-0.8,0.3-1.4,1.6-1.8,3.9l0.4,0.4l4.9-2.2V810C533.4,808.7,532.2,808.1,530.9,808.1z M554.5,806h3.5c1.5,0.1,2.7,0.8,3.5,2.1
			l0.1,1.8c-0.5,3.3-2.5,5.8-6.1,7.3l-0.9,0.3c0.5,0.5,0.6,1.2,0.4,2.1c0.3,0.4-1.2,1.4-4.4,2.8l-6.5,3.3h-1.2l-1-1l-0.3,0.4l1.2,7
			c0.5,2.7,2.5,4.7,5.8,6c1.1,0.5,3.8,0.2,8.1-1l0.8,0.1v0.7c-2.8,1.6-5.7,2.5-8.7,2.6c-6.4-0.8-9.7-6.6-9.9-17.4
			c-0.1-4.1,0.6-8.1,2.1-12.1c0.6-0.6,1.5-0.9,2.5-0.8c0.8,0.1,2.4,0.8,4.7,2.2l0.4-1.7l-1.4,0.1l-0.7-0.5v-1
			C548.2,807.6,550.9,806.5,554.5,806z M543.9,812.6c-1.3,0.3-2,3.9-2.1,10.8c0-0.2,1.2-0.8,3.5-1.8c1.6-0.1,2.9-1.9,3.9-5.4v-1.1
			c-0.5-1.6-1.7-2.4-3.6-2.5H543.9z M555.6,808.4l-5,1.2l-0.4,0.3c1.3,0,2.2,1.5,2.8,4.6l1.5,0.4c1.5-0.6,2.9-2.1,4.1-4.6v-0.9
			C558.6,808.9,557.6,808.5,555.6,808.4z"/>
		<path class="st1" d="M587.7,821.7c1,0.2,1.6,0.6,1.7,1.2v0.4c0.2,0.4-1.2,1.1-4.1,2l-6.2,3.2l-2.7,0.6c-1.4-0.4-1.9-0.8-1.7-1.2
			v-0.7c-0.2-0.6,1.4-1.3,4.7-2.1l6.5-2.9L587.7,821.7z M579.1,810.1c1.4-0.7,4.3,0.4,8.7,3.3c0.4,0.2,0.6,0.8,0.6,1.7l-0.7,1.1
			c-0.3,0.6-1.3,0-2.9-1.8l-5.2-1.5l-1.2-1.1v-1.1L579.1,810.1z M592.8,829.9l0.4,0.4v1.1c0.2,0.3-1.2,2.2-4.4,5.7
			c-1.2,1.5-2.7,2.9-4.7,4.2l-2.3,0.6l-1.7-1l-0.3-1.4l0.9-1.1h1.1l0.7,0.4c1.1-0.4,4.2-3.1,9.3-8.2L592.8,829.9z M610.6,795h1.2
			l1.2,1.1c0.6,0.6-0.3,1.8-2.8,3.5c-1.1,1.6-2.6,4.7-4.6,9c1.5,0.3,5.1-0.9,10.8-3.6l2-0.1c1.1,0.2,1.8,0.8,2.2,2
			c-0.4,5.2-2.5,10.2-6.2,15.1l-1.2,0.3c-1.1,0.1-2-0.9-2.7-3.1v-0.9l0.6-0.7h0.4l1.7,1.5c1-0.4,2.5-3.7,4.6-9.9l-0.4-1.4
			c-0.2-0.3-2.7,0.7-7.6,3c-1,0.5-2.2,0.7-3.6,0.5l-1.5-0.7l-3.1,6.5l-0.1,0.8l1,1.4v0.9c-0.4,0.9-0.8,1.3-1.2,1l-1.2,0.1
			c-0.7-0.4-1.2-0.9-1.5-1.5c-1.2-0.6,1.2-6.2,7.1-16.9l3.3-6.5L610.6,795z M615.2,823.7h1.2c0.8,0,1.5,0.6,2,1.8l0.1,0.6
			c0,2.1-2.6,6.1-7.8,11.8c1.5,2,6,5.8,13.5,11.4l0.1,0.8l-0.7,0.7h-0.7l-9.8-6.8l-4.4-3.6l-7.4,7.8l-1.2,0.1l-0.7-0.7v-1.2
			c0.5,0.3,3-2.3,7.5-7.7l-3.9-4.2l-1.2-2.6v-0.6l0.4-0.7h1.2c1.4,1.8,3.2,3.7,5.4,5.7c1.7-1.6,3.8-4.7,6.1-9.4l-6.8,2.4l-2,0.3
			c-1.2-0.4-1.7-0.8-1.7-1.2v-0.9c-0.1-0.6,1.2-0.9,3.9-1.1L615.2,823.7z"/>
		<path class="st1" d="M633.8,832.7h0.5l0.6,0.6l-0.1,1.4c0.1,0.8,0.7,1.7,1.7,2.6l8.2-3.1c2.3-1,4.3-0.8,5.8,0.7l0.7,1.7
			c-1.1,3.7-3.8,6.6-7.9,8.9c-4.5,0.2-7.9-3.2-10.5-10.2V834L633.8,832.7z M645.2,821.7l1.3,0.1l0.9,0.9v0.8l-2.1,0.9l-7.5,4l-2,0.4
			l-2-1.2v-1.5l0.7-0.6h0.7l0.7,0.4C636.2,826.4,639.3,825,645.2,821.7z M646.6,813.7c1.3,0.3,1.8,0.9,1.7,1.7
			c0.2,0.7-2.7,2.1-8.7,4.4c-1.6,0.9-3.4,0.7-5.3-0.7l-0.1-0.7l0.4-0.5l0.6-0.4C637.1,818.1,640.9,816.8,646.6,813.7z M646.6,806
			h0.9l1.4,1.2v0.5c0.4,1-1.1,1.7-4.6,2c-2.5,1.7-5.4,2.4-8.7,1.8l-1-1.2c-0.1-0.5,0.5-1,1.7-1.7C636.9,809.5,640.4,808.6,646.6,806
			z M638.2,797.6c0.2-0.3,1.6,0.2,4.3,1.5l3.9,0.9c0.9,0.5,1.3,0.9,1.1,1.4v0.6c-0.1,0.7-0.8,1-2,0.9c0-0.4-1.6-0.8-4.7-1.1
			l-2.9-1.1l-0.7-1v-1.4L638.2,797.6z M646.4,836.5c-2,0.3-4.7,1.4-7.9,3.2v0.1l1.4,1.5l1.5,1.1c1.7-0.5,3.8-2.2,6.2-5l-0.1-1.1
			L646.4,836.5z M673,815.1h1c0.9-0.2,1.7,0.6,2.5,2.3v0.6l-3.3,4.6l1.6,2.2v1c0.3,0.4-1.8,2.9-6.4,7.5l-0.7,0.9v3.9
			c0.4,3.9,2.2,6.2,5.4,7.1c1.1,0.5,3.3,0.5,6.7,0c1.1,0,1.9-0.2,2.3-0.9v-0.7l0.9-1.1h1l1.1,1.1v0.9c-0.4,2.8-4.1,4-11.1,3.6
			c-3.5,0-6.3-2.3-8.6-7l-0.6-3.1h-0.1c-1.3,0.6-2.7,2.9-4.3,6.7v0.9c-0.2,0.7-0.7,1.3-1.5,1.7h-0.6l-1.2-1
			c-0.2-2.4,3.9-8.5,12.2-18.5c-0.3-0.3-1.4,0.3-3.2,2c-1.3,0.9-2.1,1.2-2.3,0.9c-0.6,0.1-1.2-0.3-1.6-1.3c-0.2-0.5,0-1.2,0.5-2.1
			l-1.5-2.8l-1.4-3.3l-0.1-2.3c-0.1-1.1,0.6-1.9,2.1-2.5h0.7c0.7,0.3,1.1,0.8,1.1,1.5l6.1-2.1L673,815.1z M665.2,804.5h1.7l0.9,1.2
			v0.8c0.3,0.4-0.4,0.8-2.1,1.2c-0.5-0.6-2.4,1.2-5.7,5.4l-1.1,1.7h-0.4l-0.9-0.7v-1.2C658.4,810.2,660.9,807.4,665.2,804.5z
			 M672.5,817.7l-4.9,1.5c-1,0.1-2.3,0.8-3.9,2l-0.5-0.1l-0.4,0.3l2.4,4.7c1.2-0.1,3.6-2.3,7.3-6.5l0.5-1.4L672.5,817.7z
			 M672.5,803.7l0.3,0.4h0.9c1.8,0.4,3.9,1.7,6.2,3.7l0.6,2.1l-0.9,0.9c-1.4-0.3-2.6-1.1-3.9-2.3l-3.8-2c-0.6-0.6-0.8-1.2-0.5-1.8
			l0.1-0.4L672.5,803.7z"/>
		<path class="st1" d="M713.3,806.6h0.8c0.3-0.2,0.4,0.3,0.4,1.4c-3.2,0.4-6.4,4.7-9.4,12.8l-0.1,0.8c0.6,1.2,1.1,1.7,1.7,1.6
			c2.3,0.2,4.7-0.5,7-2.1c-0.4-0.5-0.4-2.5,0-6.1l0.9-1c0.8-0.1,2.3,0.2,4.7,1.2l0.3,0.5c0-0.9,0.4-1.6,1.1-2
			c0.4-0.7,3.1,0.4,8.1,3.2l1.7,1.9v1.3l-0.7,0.8c-0.9,0.7-3-0.1-6.1-2.6c-0.9,1.1-3.1,2.6-6.6,4.4c0.6,3.1,2.1,6.6,4.3,10.7
			l2.9-1.5c0.4-0.1,0.8-1,1.1-2.6l1.8-0.1l7.1,3.7l0.7,1v0.8l-0.8,0.9c-0.2,0.5-2.1-0.1-5.8-1.8c-0.3-0.9-1.7-0.3-4.4,1.8l-7.8,3.2
			c-1.8,0.5-3.7,0.8-5.5,0.7c-1.4,0.4-3.4-0.6-5.9-2.9c-0.6-0.4-1-1.1-1.1-2c-0.2-1.8,2-2.7,6.5-2.5l0.6,0.8
			c0.2,0.7-0.5,1.1-2.3,1.4l-1.4,0.7c0.7,2,4.2,2.1,10.4,0.1v-0.9l0.3-0.8l-3.8-9l-5.4,1.8l-1.8,0.1c-2.1,0-3.7-1.1-4.6-3.3
			l-0.1-1.7c-0.2-1.3,2.2-5.4,7.1-12.1C709.1,808.5,710.5,807.6,713.3,806.6z M719.7,815.8l-0.7,1l-2-0.1c-0.4-0.1-0.6,0.6-0.7,2
			l0.3,1h0.3l3.7-2.9l-0.7-1H719.7z"/>
		<path class="st1" d="M765.2,810.1c0.9-0.2,1.8,0,2.8,0.6l0.1,0.9c-1.1,0.5-1.8,1.9-2,4l0.1,0.8c0-1,5.1-2.9,15.2-5.7h0.8
			c1.6-0.2,2.8,0.7,3.7,2.7c0.2,3.4-2.3,8.5-7.6,15.4l-1.6,3.1l1.2,0.9c1.7,0.4,6.2-1.1,13.3-4.4h1.1l0.6,0.7v0.4
			c0.4,0.6-1.1,1.6-4.6,2.8c-2.3,1.4-5.4,2.5-9.2,3.5h-1.2l-2.7-1.2c-0.8-1-1.1-2.1-0.8-3.3c-0.3-0.3,1.7-3.9,6.1-10.8l2.3-5.8v-0.6
			l-0.8-0.7c-1.6-0.6-5.8,0.9-12.5,4.6l1.1,1.5l-0.7,1.1h-0.7l-2.9-2.3H766c0,3.1,0.4,6.2,1.2,9.3l1.6,3.5l0.4,0.1l2.3-2.5
			c0.5-0.1,0.8,0.9,0.9,2.9c0.2,1-0.6,2-2.3,3.1H769c-3.6-0.3-5.6-6.3-6.1-18.2l0.9-5.4C764.4,810.5,764.9,810.1,765.2,810.1z"/>
		<path class="st1" d="M824,803.4l6.7,2.8l1.5,1.5l0.3,2c0.9,1.2-2.6,4.6-10.7,10.2l-4.6,4.3c-1.4,1.6-2,3.3-1.8,5.3
			c2.7,4.3,6.3,6.2,11,6h0.5c2.3,0.4,4.2-1,5.7-4.2V831c-2.7,0.4-5-0.3-6.8-2.2c-0.6-0.4-1.1-1.4-1.4-2.9c-0.4-0.7,1.1-1.5,4.6-2.6
			l4.9-2.1l2-0.1c1.2,0.1,2,0.7,2.5,1.7c1.6,1-0.5,6-6.4,15c-1.1,0.9-2.4,0.9-4,0l-3.8,0.1c-5.4-0.7-9.1-3.4-11.1-7.9l-0.2-1.5
			c-1-2.1,3.9-7.5,14.7-16.1c0.9-0.7,1.5-1.7,1.7-3.1c0.3-0.6-1.1-1.4-4.3-2.3l-2-1.8l-0.1-0.6C822.9,803.8,823.3,803.4,824,803.4z
			 M834.8,824c-1.4,0.2-3.6,1.2-6.8,2.9c0.7,1.1,1.9,1.6,3.6,1.5c1.9,0.5,3.1-0.3,3.6-2.5v-1.5L834.8,824z M844.8,826.5h0.4
			c0.5-0.2,3,1.7,7.3,5.7v0.9l-0.7,0.6H851c-1.2,0-3.6-1.9-7.2-5.6v-0.9L844.8,826.5z M846.9,806.3h1.1c0.8,0.3,1.3,0.9,1.4,2v7.5
			c0.2,1.1,0.4,1.7,0.7,1.7c0.2,0.5,3.1-0.7,8.6-3.6h1c1.4,0.3,2.1,1.1,2.3,2.3c0.9,3.4-1.4,11-6.8,22.7c-0.8,1.7-2,2.8-3.5,3.3
			h-1.5l-0.7-0.7c-0.6-0.5,0-0.9,1.8-1.3c3.8-3.6,6.5-10.6,8.1-21.1l-0.7-2.2c-0.2-0.3-1.9,0.6-5.2,2.8l-3.1,1.2h-0.9
			c-2.5,0.3-3.6-4.1-3.3-13.4C846.2,807,846.4,806.5,846.9,806.3z"/>
		<path class="st1" d="M897,787.4c1.5-0.7,4.3,0.7,8.4,4.4l-0.4,1.5c1,0.2,1.4,1.6,1.3,4.1c-1.5,5.2-7,10-16.4,14.5
			c0.1,0.6,0.6,0.6,1.5,0l0.7-0.3l9.2-1.4l6.9-1.8l0.9-0.4c0.4-0.2,0.9,0.3,1.7,1.5v0.7c-0.6,1.6-5,4.7-13.1,9.3l-2.8,2.2l-0.4,0.1
			c-0.1,0.5,0.7,0.9,2.3,1.3c0.5,0.5,1.9,1.2,4.1,1.9l0.4-0.4c0.2-0.9,0-1.5-0.4-2l1.1-2l1.3,0.1l2.5,2.1c0.9,0.9,1.3,1.6,1.1,1.9
			v0.4c0,1.4-1.4,2.5-4.1,3.3c0,0.9,0.2,1.6,0.6,2c1.4-0.5,2.7-0.8,4.1-0.9l0.7,1.2c-0.4,0.9-1.2,1.3-2.3,1.3l-2.8,0.4h-0.9l-9.2,9
			c0.2,0.6,2.2,0.3,6-0.9l2.7-0.4h2.3l1.8,1.3l0.1,2.3l-3.2,3.8l-2,1.7c0,0.7,1.4,1.4,4.3,2.1l0.4,1.2c-0.3,0.6-0.9,0.8-1.9,0.7
			l-5.6-1.8c-2.1,2.2-5.2,4.3-9.3,6.1l-2.3,0.6c-0.5,0.2-1-0.1-1.5-1.1v-0.6l0.4-0.7l1.8,0.6c2.1-0.8,4.8-2.7,8.1-5.7v-0.1l-5-2.9
			c-1-0.4-2.1-1.7-3.3-4.1v-1.4l0.6-0.5l1.2,0.2l3.3-3.6c0.3,0.2,0.9-0.4,1.7-1.8l0.8-0.9l1.4-1.8l-4.1,0.4
			c-1.7,0.4-3.7-0.4-5.8-2.3c-0.7-0.3-0.9-1.7-0.4-4.2l-3.6,2.5l-0.2,0.5l1.4,0.9l0.2,0.9l-1.1,0.7l-1.2,0.1c-1.1-0.3-1.9-0.9-2.5-2
			l-0.1-0.9c2-2.3,6.7-5.6,13.9-10.1l4.6-4c1.1,0.6,2.4-0.1,4-2.1c0.6-0.1,1.4-0.8,2.4-2.1l-4.7,0.7c-0.1-0.3-4.6,0.6-13.6,2.8
			c-0.5-0.4-1.4-0.5-2.8-0.4c-0.4,0.1-1.1-0.4-2-1.5l-0.3-0.7c0-0.5,0.4-1,1.2-1.5c4.7-0.4,9.1-2.3,13.4-5.7v0.3
			c-1.7-0.4-4.6-1.6-8.6-3.6c-1-0.3-1.8-1.1-2.4-2.4c-0.1-0.7,0.2-1.4,0.9-1.9l2.5-0.7l2,0.3l0.9-0.6c1.1,0.1,4.4-1,9.7-3.3
			c0.5,0.1,1-0.4,1.5-1.5c-0.6-0.9-2.1-1.5-4.3-1.7c-0.6-0.4-0.9-1-1.1-1.7C896.1,788,896.6,787.5,897,787.4z M891.2,797.8
			c-0.7,0.1-1.9,0.8-3.6,2v0.3c1.9,1.3,4.7,2.5,8.3,3.5l1.3-0.3v-0.1l-4.1-2.6L891.2,797.8z M891.8,823.4l-4,3.1l0.8-0.2l2,0.7v0.4
			c-0.2,1.1-1,1.8-2.4,2.1l-0.2,0.4c0.1,1.5,1.7,2.2,4.8,2.1l4.7-0.7l1.4-0.8l-0.5-2l0.7-0.7v-0.2l-4.4-1.8
			c-0.9-0.4-1.6-1.1-2.1-2.3L891.8,823.4L891.8,823.4z M902.4,842.6l-8.6,2.3l-1.2,0.5v0.1c1.1,1.4,2.9,2.4,5.3,3.1
			c1.4-0.7,3-2.4,4.9-5V843L902.4,842.6z M902.1,794.7l-0.8,0.4c-0.3-0.4-2.7,0.2-7.2,1.9v0.3l4.7,3.3l1.2,0.1
			c1.5-0.6,2.5-1.5,2.9-2.9l0.4-0.6C903.4,796.8,903,795.9,902.1,794.7z M909.3,839.4h0.8c1.6,0,3.4,1.2,5.4,3.5l0.3,1.5
			c0.1,0.4-0.3,0.6-1.3,0.6c-0.8-1.7-3.1-2.4-6.9-2.1c-0.6-0.4-0.8-1.1-0.6-2.3C907.4,840,908.1,839.6,909.3,839.4z"/>
		<path class="st1" d="M164.1,871.3h5.2l0.6,0.4c0.5,0.9-0.6,1.5-3.5,1.7c-1.2,1.3,0.9,3.3,6.4,6.2c1.6,1.7,2.3,3.7,2,6
			c-1.1,5.2-4,8.7-8.6,10.7H165c-1.2-0.2-2.1-0.8-2.6-1.8c-0.7,4.6-0.5,9.9,0.7,16c0,1.5,1,2.6,3.1,3.4c0,1.2-0.4,1.8-1.1,1.9h-1.2
			c-2.4-1.1-3.9-5.2-4.3-12.5l0.2-15.3c0.4-2.5,0.4-4.9,0.1-7.3c0-0.5,0.4-0.9,1.2-1.4h0.5c1.9,0.2,2.6,1.8,2.1,4.9l1.4,7.9l0.7,1.2
			c2.8-1.5,4.8-4.1,6.1-7.9c1.4-1.5-1-3.9-7-7.3c-1.8-1.7-2.5-3.5-2-5.4C163.2,872,163.7,871.5,164.1,871.3z M188.4,864.8
			c0.2-0.5,1.8-0.1,4.7,1.4l3.5,0.6l0.9,1.5l-0.1,1.5c1.3,0.6,1.9,1.1,1.8,1.4l0.3,0.4l-0.1,1.5l1.4,1.5v0.7
			c-0.5,1.5-3.1,4.9-7.9,10.3l-4.1,3.7l7.9-2.9l2.8-1.1h1.1l1.2,1.1v1.3c-4.2,2.9-8.1,6.7-11.8,11.6l-1,2.7l3.3-3.3
			c0.6-0.7,1.7-1.2,3.3-1.5h1.5c1.8,0.6,2.5,2.1,2.1,4.4c0.3,0.3-0.4,2.4-2,6.2c-0.5,1.2-0.8,2.6-0.9,4.2c0.9,1.4,1.6,1.9,2,1.5
			c1.9,0.2,4.2-0.3,6.9-1.7l0.7,0.6v1.1c-0.6,1.3-3,2.2-7.2,2.6h-1.2c-1.9-0.1-3.1-1.2-3.3-3.3c-0.4-1.6,0.2-5.3,1.8-11l-0.5-1.2
			h-0.3c-4.3,3.1-6,6.9-5.2,11.3c-0.3,0.7-0.7,1.1-1.2,1.1h-0.6c-1.6,0.7-2.5-1.7-2.5-7.2c-0.1-4.7,2.3-9.8,7.3-15.3l-9.4,4
			l-2.1,0.1l-1.6-0.8l-0.1-1.5c-0.1-0.3,0.8-1,2.8-2c2.3-1.3,4.7-3.3,7-6c-1.6-1.5-2.6-3.4-3.1-5.6l-1.2,0.1c-1-0.1-1.6-0.5-1.7-1.2
			v-0.4c-0.3-0.8,1.1-1.6,4.3-2.3l5.8-2.9l0.1-0.1c-0.5-0.3-1-1.2-1.4-2.7c-0.4,0.3-2-0.4-4.7-2l-0.3-1.4L188.4,864.8z M196.2,875.3
			l-4.1,2.5c-0.8,0.8-1.1,1.7-1,2.8l0.6,0.4h0.9c1.1-0.2,2.4-2,3.9-5.4l0.1-0.2L196.2,875.3L196.2,875.3z"/>
		<path class="st1" d="M233.9,871.6c1-0.1,2.2,0.2,3.5,0.8l0.1,1.2l-0.7,0.6l-1.4-0.1c-3.7,1.7-6.7,5.4-9.2,11
			c-0.1,5.7,2,9.6,6.4,11.7c0.7-0.2,1.7,0,3.1,0.5v1.4c-0.4,0.9-1.3,1.2-2.8,1c-5.6-0.6-9-5.1-10.2-13.5
			C224.7,879.9,228.4,875,233.9,871.6z M248.4,865.1h1.1c0.8,0.1,1.8,1.4,2.9,3.8c3.5-0.1,5.9,1.2,7.2,3.9c0.6,2,0.4,3.9-0.7,5.6
			l0.3,0.2l1.4-0.1c0.7,0.2,1.1,0.6,1.2,1.3v0.8c0.3,0.5-0.9,1.4-3.7,2.6l-6,3.8l0.1,3.8l0.3,0.3l4.6-2.8c2-1.3,2.7-2.8,2.1-4.6
			l0.4-0.8h0.7c1,0.9,1.5,2.2,1.4,3.9c-0.2,2-3.2,4.7-9,7.9c-0.2,1.9,0.3,7.4,1.4,16.5l1.8,1.2l0.1,1.5c-0.1,0.7-0.6,1.5-1.4,2.3
			l-1,0.1c-1.4-0.3-1.9-0.9-1.7-1.8c0.3-0.1,0-5.4-1.2-16.1l-0.4-2.3l-5.8,2.3l-1.2,0.1c-1.1-0.2-1.7-0.7-1.7-1.5l-0.1-0.4
			c0.4-1.2,1.7-1.8,4.1-1.7l4.3-2.1l0.5-0.5l-0.5-3.3l-0.1-0.1l-4,2.1h-0.4c-0.8-0.1-1.3-0.5-1.7-1.3v-0.9c-0.2-0.4,0.6-0.9,2.5-1.7
			l3.2-2l0.4-0.4v-1l-0.6-3.3c-4.1-1.5-7.3-4.2-9.8-8v-1c0.1-0.5,0.4-0.8,0.8-0.9h0.7c0.4-0.4,1.8,0.8,4.1,3.7l2.5,2.1
			c1,0.8,1.5,1.1,1.7,0.8c0.1-2.8-0.4-6.1-1.5-10.1v-0.4L248.4,865.1z M251.4,872.1l0.1,4c-0.3,0.9,0.4,1.7,2,2.3v0.8
			c-1.3,1.1-1.7,1.7-1.4,1.7v1.4c1.9-1.4,3.3-3.2,4.3-5.3c0.3-0.2,0.4-1,0.3-2.3c-0.3-0.9-1-1.6-2.2-2.1l-0.7,0.9H253l-1.2-1.2
			L251.4,872.1z"/>
		<path class="st1" d="M301.9,867.2c0.2-0.1,1.5,0.5,4,1.8l5.8,0.9l1.1,1.1v1c0.4,0.6-1.1,1.3-4.5,2l-6.2,2.1l-7.3,13l-3.5,4.4
			c-0.4,0.4-1.4,0.8-2.9,0.9c-0.1,2.4,0.2,5.4,0.9,9l1.4,3.5l1.7,1.5c1-0.4,2.1-0.6,3.2-0.6l0.1,1c-0.2,1-0.9,1.7-2.3,2h-1.7
			c-3.9-0.6-6.2-7.4-7-20.3v-1.2l0.9-0.8h0.7c1.2,0.2,1.9,1.2,2.3,2.9l0.6,0.1c2.4-1.8,5.2-6.6,8.6-14.2l-0.3-0.3l-9.5,1l-1.1-0.9
			v-1.2c1-0.4,5.1-1,12.4-1.8c0.3,0.1,0.8-1,1.5-3.2v-1.8C300.7,868.7,301.1,868,301.9,867.2z M309,888.6l6.2,0.3
			c0.7,0.2,1.4,0.7,2.1,1.4l0.1,1.1c0.3,0.8-1.6,1.8-5.9,3.1l-4.6,1.8l0.3,11.9l0.3,0.3c2.8-1.3,5.8-2.1,9-2.6h1.2l0.9,0.7v1.1
			c0.2,0.5-0.9,0.9-3.3,1.1c-0.9,0-4.9,1.6-12.1,4.7l-2.7,0.1l-2.2-1.4l-0.1-1.3c-0.2-0.4,0.8-1,3.1-1.6h0.7l0.7,1.2
			c0.8,0.1,1.5-0.1,2-0.7c-0.3,0-0.4-0.7-0.3-1.8c0.6-0.3,0.4-3.9-0.6-10.8h-1.2l-1.7-0.6l-0.1-1.5c0.4-0.6,1.4-0.9,3.1-1
			c0.4,0.1,0.6-0.6,0.6-2C304.3,889.5,305.8,888.4,309,888.6z M304.3,871.2l-0.7,1.5l3.2-0.9L304.3,871.2z M309.3,891.2
			c-0.7,0-1.2,0.5-1.5,1.5l3.2-1.4L309.3,891.2z"/>
		<path class="st1" d="M369.1,863.7c1.8,0.2,2.7,0.8,2.5,2c0.5,0.9-1.1,1.9-4.9,2.9c-5.2,3.5-8.8,8.4-10.8,14.7
			c-0.2,0.1-0.3,1.4-0.3,3.9c0.3,2,1.3,3.5,3,4.4c1.3-0.1,1.1-1.2-0.4-3.2l-1.5-4c0.4-0.9,1-1.4,1.7-1.5l1.9,0.1l-0.9-1.2v-1.4
			c2.3-4.2,6.1-7.3,11.3-9.4h0.8l1.7,1c0.6,0,0.4,3.1-0.6,9.2c-0.7,2.2-1,6-0.9,11.3l1.4,1.2v1.6l-1.5,1.9
			c0.1,6.3,1.2,12.7,3.3,19.1l-0.7,0.9h-2c-0.6,0.4-2.1-2.1-4.3-7.6l-3.5-6.8h-0.3l-12.6,10.4h-0.4l-0.5-0.4v-0.6
			c-0.2-0.3,3.9-4.1,12.2-11.4l0.8-0.7l-0.5-2.1l1.2,1.5h0.1l3.3-3.6c-4,0.8-7.9,2.1-11.8,3.9l-4.3,0.8c-0.8,0.2-1.8,0-2.9-0.4
			l-0.4-0.5v-1c0-0.6,1.2-1.2,3.5-1.7l4.4-3.2l0.3-0.6c-2.2-1.7-3.2-4.7-3.1-8.7c0.7-4.6,3.6-9.9,8.6-16c0.2-0.3-0.3-0.4-1.5-0.3
			c-1.8,0.1-3.7-0.2-5.5-0.9l-1.8-1.5c0.1-0.8,0.2-1.2,0.4-1.2c4.3,1.1,8.8,1.1,13.6,0L369.1,863.7z M358.6,894.5
			c-1,0.5-2,1.3-3.1,2.4l4.7-1.8L358.6,894.5z M359.5,886.6h-0.1v0.4l0.7,2.2h0.1C360.5,888.2,360.3,887.3,359.5,886.6z
			 M369.3,874.5c-4.4,1.5-7,4-7.7,7.6c-0.1,0.7-0.6,1-1.5,0.9c1.5,0.7,2.5,1.9,3.1,3.8c0.6,1,0,2.9-1.7,5.7c0.8-0.5,1.9-0.8,3.2-0.8
			l0.2,0.3l-0.1,1.5l0.2,0.3l4.1-1.5l0.8-17.1L369.3,874.5z M368.8,899l-3.5,2.8l5.3,9.2C370.1,909.2,369.6,905.1,368.8,899
			L368.8,899z"/>
		<path class="st1" d="M424.8,888.9c0,2.7-1,5.4-3.1,8.1c-0.8,1.1-1.5,1.6-2,1.6c-0.8,0-1.2-0.4-1.2-1.2c0-0.2,0.5-1,1.4-2.5
			c0.9-1.4,1.3-2.1,1.3-2.3c0-0.6-0.4-0.9-1.2-0.9c-2,0-3.1-1-3.1-3.1c0-2.4,1.4-3.6,4.1-3.6c1.1,0,2,0.4,2.7,1.2
			C424.5,886.8,424.8,887.7,424.8,888.9z"/>
		<path class="st1" d="M460.4,884.1c1.3-0.2,2.5,0.2,3.5,1.1l0.1,0.8l-0.8,1c1.2-0.4,2.6-0.7,4.3-0.9c3.7,0.4,5.8,1.9,6.2,4.7
			l0.1,0.1c1.3-0.7,2.1-0.9,2.5-0.7l0.1,1.1c0.7,1-2,4-8.2,8.9l-1.8,2h-1.5c-4.2-4.8-6-10.5-5.6-17.1L460.4,884.1z M467.4,889.7
			c-1,0.1-2.2,0.6-3.5,1.5c-0.7,0.8,0,2.8,2.1,5.9c1-0.2,2.3-1.4,3.7-3.5l0.4-2.5c-0.7-1-1.3-1.5-1.7-1.4H467.4z M497.8,885.2h0.9
			c0.6,0.1,1.1,0.5,1.5,1.1l0.3,1.5c0.4,0.4-4,6.4-13.4,18.1c-0.2-0.1-1.3,1.4-3.2,4.4c-0.7,1-1.5,2.4-2.2,4.3v0.7
			c0.5,1,1.3,1.5,2.2,1.5c0.8,0.6,5.7-0.5,14.6-3.3l1.2-1.2c1,0.4,1.5,1.2,1.5,2.3c0.7,1.5-2.1,2.7-8.4,3.6l-7.6,1.5h-2.5
			c-1.8-0.3-3.1-1.6-3.8-3.8c-0.4-2.6,3.5-9,11.7-19.3c1.7-1.9,3-4.1,4-6.5c-0.1-0.2-2.1,0.6-6,2.5c-1.7,1.4-4.2,2.1-7.5,2.1
			c-1-0.5-1.7-1.1-2-2v-0.8c0.4-0.8,0.8-1.2,1.3-1.2h0.8l1.1,0.8c0.3,0.7,3.9-0.7,10.8-4.3L497.8,885.2z M483,861.1
			c2.5-0.4,3.6,2.4,3.3,8.3c0,1.8,0.6,3.1,1.8,4.1c2.6,0.7,5.5,0.3,8.9-1.4h0.7c0.7,0.1,1.2,0.6,1.5,1.2l0.1,0.8
			c0.5,1.7-2.2,2.7-8.2,2.9l-2.7,0.1c-3.4,0.6-5.4-3.3-6-11.6l-0.8-3.2C481.8,861.8,482.2,861.3,483,861.1z"/>
		<path class="st1" d="M524.7,881.7c0.8,0.1,1.4,0.5,2,1.2l0.1,1.5c0.4,0.3-3.1,4.6-10.5,12.9l-0.7,1.8c0.9,1.8,4.7,2.1,11.4,0.9
			l1.8,1.1l0.5,0.8l-0.2,1.7c0.3,0.9-2.1,3.4-7.3,7.5c0,0.6,1.2,0.8,3.6,0.6l5,0.1l19.2,2.2c1.2,0.5,4.1,0.8,8.9,0.9
			c4-0.1,6.3-1.6,7-4.6l1.1-0.9h0.7l0.6,1.6c0,0.9-1,2.6-2.9,5.1c-1.6,2.1-8,2.1-19.2,0c-2.4-0.7-7.1-1.2-14.2-1.5l-3.8-0.3
			c-2,0.6-4.8,0.6-8.3,0.1c-0.7,0.2-1.5-0.6-2.4-2.5v-0.6c-0.2-0.4,0.8-1.2,3.1-2.3c1.9-1.2,3.7-3.1,5.2-5.8l-0.3-0.3l-4,0.6h-3.6
			c-2.4-0.3-3.9-1.4-4.4-3.2l-0.3-0.7v-0.7c-0.2-0.8,2.5-4.5,8.2-11c-1.7,1-3.5,1.6-5.4,2h-1.4l-1.8-1.4l-0.4-1.2l0.1-0.6l0.9-0.8
			h0.9l0.7,0.8C518,885.9,521.3,884.3,524.7,881.7z M519,866.5h1.2c0.3-0.2,2,1,5,3.5l0.8,1.1v0.4c0,0.5-0.4,0.9-1.1,1.2
			c-0.3,0.7-2.6-0.5-6.8-3.7l-0.4-1C518.3,866.8,518.7,866.3,519,866.5z M537.3,863.3l1.2,0.1c1.1,0.4,1.5,0.8,1.5,1.2
			c0.5,0.5-0.3,1.9-2.4,4.4c-2.7,1.8-3.6,4.9-2.8,9.2v6.2l0.1,1.2c0.1,4.9,0.7,9.9,1.7,15c0.2,1.4,1,2.4,2.5,2.9
			c0.5-0.8,1.8-1.5,3.9-2.2l0.1-0.7l-0.4-0.4c0.3-1.4,0.2-2.8-0.3-4.1l-3.3,1.5h-0.8c-0.9,0.1-1.5-0.4-1.7-1.4
			c-0.2-0.5,1-1.3,3.6-2.3l2.3-1.6l-0.1-3.2l-0.1-0.4l-3.2,0.9l-2-1.2l-0.2-0.4c0.1-1.1,1-1.7,2.5-1.7l0.1,0.3
			c-0.1-0.3,0.6-0.6,2-0.9c1.2,0.3,1.9-1.3,2-4.9l-0.1-0.3l-4.6,2.8l-0.7,0.1l-1.7-1.2c-0.6-0.8,0.8-2,4-3.5l7-3.2l2-0.1
			c0.5,0.2,0.9,0.6,1.1,1.2v0.4c0.3,0.7-1.1,1.3-4.3,2l-0.6,0.3v0.5l1.1,1.2l-0.8,2.5v0.1l3.7-1.5c1-0.3,1.6,0.1,1.8,1.1v0.6
			c0.2,0.4-0.8,0.9-2.9,1.7l-2.9,1.7l-0.1,0.6l-0.1,2.5l0.3,0.4c0.6,0.1,1.8-0.6,3.6-2.1l1.2-0.1l0.5,0.3v0.9
			c0.3,0.7-1.4,1.9-4.9,3.8c-0.7,0-1,2.2-0.9,6.5v0.5l0.3,0.3c2.8-0.6,5.6-2.2,8.6-4.7l0.6-0.1c0.7,0.1,1,0.4,1,1
			c-0.5,2.9-5,5.7-13.7,8.6l-2.6-0.7c-3,1.8-4.9-0.6-5.8-7.2l-0.3-1.1c-0.7-4.2-1.3-10.1-1.8-17.8l-0.4,0.7
			c-0.2,1.5-0.6,2.2-1.1,2.2l-0.9,0.1l-1.3-0.9c-0.2-0.7,0-1.6,0.7-2.8C529.1,875.7,532,870.8,537.3,863.3z M540.2,868.4
			c1.2-0.3,4.3,1,9.4,3.9l0.4,1.2c-0.2,1-0.7,1.5-1.2,1.4c-0.2,0.3-1.8-0.2-4.7-1.7l-4.4-2.1l-0.7-0.9v-0.6
			C539,869,539.5,868.6,540.2,868.4z"/>
		<path class="st1" d="M586,887.5l1.2-0.3l0.1,1.4c0.3,0.5-0.8,1.3-3.1,2.3c-3.5,2.5-5.5,5.7-5.9,9.8c0.3,1.3,1,2.2,2.3,2.7
			c0.5,0.2,2.1-0.2,4.6-1.3l0.7,0.3c0.3,1.3-1.2,2.5-4.4,3.5h-2c-2-0.6-3.2-2.3-3.8-5.2v-1.2C577,893.5,580.5,889.5,586,887.5z
			 M595.8,889.8h0.6c0.3-0.1,0.7,0.2,1.1,0.9v0.8l-1.2,1.1v0.6c1.7,3.7,5.3,5.3,10.5,4.7l0.9-1.1c-0.3-1.2-0.2-2.2,0.4-2.9h0.9
			c1,0.4,1.4,2.3,1.2,5.5c-0.6,1.1-1.1,1.5-1.7,1.2l-3.9,0.1c-5.5-0.1-9.3-2.3-11.2-6.7l-0.3-2.8C593,890.8,593.9,890.3,595.8,889.8
			z M595.8,875.3c0.4-0.9,3.5,0.4,9.4,3.9c1.5,0.3,2.4,0.7,2.5,1.1l0.1,1.4c-0.7,0.6-1.4,0.8-2,0.6l-9.6-3.9c-0.8-0.6-1.1-1.3-1-2.3
			L595.8,875.3z M614.6,877.3h1.5c3.2,1,5.5,3.2,6.9,6.7l0.1,1.8c-0.1,1.1-0.6,1.7-1.4,1.7H621c0.2-2.9-1.7-5.4-5.8-7.4
			c-1.3-0.5-1.8-0.9-1.6-1.1l0.1-0.9L614.6,877.3z"/>
		<path class="st1" d="M650,873.8h1.8c0.9,0.4,1.4,0.9,1.3,1.7c0.5,0.7-1.6,3.7-6.3,9.1l-3.9,5.1c1,1.6,1.3,2.3,0.9,2.1
			c-0.6,0.8-0.8,3-0.7,6.5l9.2-10.2l1.5-0.4c0.8,0.1,1.3,0.6,1.4,1.2v0.9c-2,0.6-5.5,4-10.4,10.4c1.5,1.4,5.3,1.7,11.1,1l0.1,0.2
			v0.9c-1.2,2-5.3,2.3-12.3,0.7l-0.2,0.3c0.3,4.3,2.1,7.5,5.4,9.7c0.7,0,1.1,0.4,1.1,1.2v0.7c-0.1,0.6-0.5,0.9-1.2,0.9h-0.6
			c-5.1-2-7.8-8.6-8-19.8c0.1-0.8,0-1.2-0.3-1.2l-2,3.2l0.6,2.6l-0.4,0.6H637c-0.6,0.1-1.1-0.5-1.7-1.8c-1.1-0.8,1.6-5.9,8.3-15.1
			l4.7-6.4v-0.4c-1.6,0.5-4.8,2.1-9.8,4.9h-0.9l-1.1-0.9v-0.7c-0.4-0.7,0.8-1.4,3.5-2.1l2.6-2l0.7,0.1L650,873.8z M642.9,865.1h0.8
			c2.7,1.2,5.1,2.8,7.1,4.9c0.5,0.4,0.7,1,0.5,1.8l-1.2,0.8h-0.9c0.4-0.6-1.6-2.2-5.8-4.7l-1.7-2L642.9,865.1z M667.9,871.8h1.5
			c0.9,0.1,1.5,0.6,1.7,1.4c0.1,0.6-0.1,1-0.7,1.1l-1.5-0.1c-2.9,1.1-4.4,4.4-4.6,9.9c0,0.7,0.4,1.6,1.2,2.5h0.4
			c1.4-0.4,2.8-1.4,4.3-2.8l0.7-3.8l-1.7-1.4L669,878c-0.3-1,2.3-2.2,7.8-3.5l2.8-0.3c1.4,0.1,2.3,0.8,2.8,2
			c1.3,1.9-2.2,7-10.2,15.3l-0.5,4.6l0.4,0.4l5.2-1.7h0.7l1.1,1.1v1.3c0.1,0.4-1.2,0.9-3.8,1.5l-2.9,1.5l-0.4,0.4
			c0,1.8,0.4,3.6,0.9,5.4c0.6,0.7,0.8,1.5,0.7,2.3l-0.9,0.9h-0.8c-1.4-0.4-2.2-1.4-2.3-2.9c0.3-0.8,0.2-2.5-0.4-5.2l-3.9,1.1
			c-0.8,0-1.5-0.4-2.3-1.1V900c-0.1-0.6,1.2-1,4-1.2l1.8-0.9l-0.1-7c-3.5,0.2-5.9-1.8-7-6.1l-0.1-1.2c-0.3-4.3,1.6-8.1,5.7-11.5
			L667.9,871.8z M679.8,906.4h0.6c0.6-0.1,1,0.4,1.2,1.5c-0.2,2-4.4,4.1-12.6,6.1l-4.4-0.8c-0.6-0.1-1-0.6-1.2-1.4
			c0.1-0.9,0.4-1.4,0.9-1.5C668.6,912,673.8,910.7,679.8,906.4z M674,885.1c-1.4,0.6-2,1.4-1.8,2.4h0.3l2-2.4H674z M674.2,880.2
			l-0.7,1.3l0.3,0.2h0.1l0.9-0.7v-0.1L674.2,880.2z M678.3,877l-2.1,0.7l-0.2,0.1l1.7,2.8h0.1l1.1-2.3
			C679.3,878.1,679.1,877.7,678.3,877z"/>
		<path class="st1" d="M725.5,888.9c0,1.5-1,3.2-3.1,5.2s-4,3-5.7,3c-3.5,0-5.3-1.3-5.3-3.9c0-1.6,0.8-2.5,2.3-2.6
			c-0.4-0.5-0.7-1.2-0.7-2.2c0-0.9,0.7-1.9,2-2.9c1.4-1,2.8-1.5,4.2-1.5C723.5,884,725.5,885.6,725.5,888.9z M722.1,889.2
			c0-1.3-0.8-1.9-2.3-1.9c-2,0-3.9,1.2-5.5,3.6c0,2.1,0.9,3.2,2.8,3.2c1,0,2.1-0.6,3.3-1.7C721.6,891.3,722.1,890.2,722.1,889.2z"/>
	</g>
	<g>
		<path class="st1" d="M207.3,337.4v14H93.9v-14h14.2v-21.5h86.3v21.5H207.3z M117.4,260.1H95.9v-13.5h21.5v-5.1h16.8v5.1h13.4v13.5
			h-13.4v4.5h-16.8V260.1z M170.1,287.4c-1.9,3.3-4.1,6.4-6.2,9.3h37.2V311h-38.8v-12.5c-1.4,1.7-3,3.2-4.5,4.7
			c-1.4-2.5-4.7-7.3-7.4-10.9v7.6h-10.7v3.3h14.4v9.8h-52.2v-46.8h51.9v9.8h-14.1v3.1h10.7v8.4c5.8-6.1,10.1-14.4,12.5-23.4
			l15.3,3.7c-0.5,1.8-1.1,3.5-1.7,5.3h27.8v14.3H170.1z M115.7,276v3.1h9.9V276H115.7z M137,287.7h-21.3v3.6H137V287.7z
			 M125.6,299.9h-9.9v3.3h9.9V299.9z M124.1,337.4h8.1v-9.2h-8.1V337.4z M146.5,328.2v9.2h8.4v-9.2H146.5z M166.9,260H152v-13.5
			h14.9v-5h16.8v5h21V260h-21v4.7h-16.8V260z M169.2,328.2v9.2h8.2v-9.2H169.2z"/>
		<path class="st1" d="M251.8,267.1c-1.9,8.6-7.3,16.7-18.9,22.1c-2-3.3-6.6-8.4-9.9-11.1c7.4-2.6,11-6.7,12.7-11h-13.5v-13.3H237
			v-11.1h15.6v11.1h4.8v-11.5h14.9v11.5h6.9v-11.5h15.6v11.5h4.7v-11.6h15.4v11.6h14.8v13.3h-14.8v1.6c0,3.5,0.2,4.9,2.1,4.9h5.7
			c2,0,5.4-0.4,7.2-1c0.2,3.9,0.6,9.4,1.2,13c-2,0.7-5.3,1-8.1,1h-7.5c-13.3,0-16-5.5-16-18.1v-1.3h-4.7v18h-37.5v-18h-5.5V267.1z
			 M329.2,289.2v27.7h-11.3V333c0,7.2-1.6,11.3-6.7,13.6c-5.3,2.3-11.7,2.4-19.8,2.4c-0.7-4.5-3.1-10.9-5.3-14.9
			c4.4,0.2,10.9,0.2,12.4,0.2c1.7,0,2.3-0.4,2.3-1.7v-9h-17.1v31.2h-17.2v-31.2h-14.9v24.1h-16.8v-30.9h-11.6v-27.7h106V289.2z
			 M239.1,303v7.2h27.3v-5.4h17.2v5.4h28.7V303H239.1z M272.3,267.1v5.5h6.9v-5.5H272.3z"/>
		<path class="st1" d="M455.2,334.3v17.1h-108v-17.1h44.3v-19.6h-32.6V298h32.6v-17.7h-39.4v-17h44.5c-4.9-4.3-10.9-8.8-16-12.3
			l14.4-10.1c7.6,4.7,18.3,12.1,23.6,17.7l-6.6,4.8h37.2v17h-38.7V298h32.6v16.7h-32.6v19.6L455.2,334.3L455.2,334.3z"/>
		<path class="st1" d="M583.1,251.5v14.3h-89.9v21.7c0,19.6-1.7,50.3-11.1,69c-2.7-2.9-9.8-8.2-13.3-9.9c7.9-16.7,8.5-41.5,8.5-59.1
			v-36.1h44c-1.1-2-2.4-3.9-3.8-5.6l13.8-5.8c3.1,3.2,5.8,7.5,7.6,11.5L583.1,251.5L583.1,251.5z M539.7,335.8l0.4,13
			c-16.1,1.9-33.2,3.8-46.1,5.1l-2.5-13.7c6.9-0.5,15.8-1.3,25.2-2.1c1.7-4.8,3.3-10.4,4.2-14.7l14.3,2.5c-1.4,3.7-3,7.4-4.3,10.9
			L539.7,335.8z M524.5,267.8v4.9H539V284h-14.6v2.7h12.9V298h-40.9v-11.2h12.7V284h-14.2v-11.3h14.2v-4.9L524.5,267.8L524.5,267.8z
			 M536.5,322.8h-39.8v-21.7h39.8V322.8z M500.6,339.2c-0.4-3.3-1.9-8.7-3.6-12.8l13-2.7c1.9,3.8,3.7,9.1,4.3,12.4L500.6,339.2z
			 M522.1,310h-11.6v3.7h11.6V310z M545.2,330.5c-0.7-6.6-3.8-17.2-7-25.3l12.9-3.8c3.5,7.9,6.9,18.1,8,24.7L545.2,330.5z
			 M575.3,283.4h7.8v14.3h-7.8V338c0,7.6-1.4,11.7-6.2,14.2c-4.8,2.4-11.3,2.7-20.3,2.7c-0.5-4.3-2.6-11-4.7-15.2
			c5.1,0.2,11.1,0.2,12.9,0.1c1.8,0,2.4-0.5,2.4-2.1v-40.1h-18.9v-14.3h18.9v-15.5h15.9L575.3,283.4L575.3,283.4z"/>
		<path class="st1" d="M638.7,329.3c7.2-1.1,14.4-2.3,21.6-3.5l1,14.8c-20.9,3.9-43.6,7.9-60.2,10.7l-3.7-15.9
			c7-0.8,15.6-2.1,24.9-3.6V318h-21v-14.9h21v-9.4h16.4v9.4h20.2V318h-20.2V329.3z M598.7,248.1h62.9v14.8h-14.7
			c5.6,7.5,11.7,16.7,14.3,23.3l-13.3,8.5c-0.5-1.4-1.2-3.1-2-4.9c-30.7,2.3-36.1,2.6-40,4.3c-1-3.3-3.7-11.1-5.5-15.5
			c1.9-0.6,3.8-2.4,5.6-5c1.1-1.6,3.3-5.6,5.5-10.6h-12.9v-14.9H598.7z M638.4,276.1c-1.9-3-3.8-5.7-5.6-8.4l8.1-4.9h-10.6
			c-2.5,4.8-5.5,9.7-8.5,14L638.4,276.1z M681.1,325.7h-16v-72.6h16V325.7z M704.5,242.5v92.3c0,8.5-1.6,12.9-6.6,15.5
			c-5.1,2.6-12.2,3.2-21.8,3.2c-0.7-4.5-3.5-11.9-5.8-16.4c6,0.2,12.4,0.2,14.4,0.2c2.1,0,2.9-0.7,2.9-2.7v-92.2L704.5,242.5
			L704.5,242.5z"/>
		<path class="st1" d="M760.2,247.1c-3,7.9-6.7,16.1-10.9,24v83.7h-16.5v-58c-1.9,2.4-3.9,4.7-5.8,6.8c-1.6-4.3-6.2-14-9.1-18.3
			c10.3-10.4,20.2-26.9,25.9-43.3L760.2,247.1z M803.2,278.1v58c0,7.9-1.2,12.7-6.1,15.5c-4.8,2.7-10.9,3.5-18.7,3.5
			c-0.7-5-3.3-12.8-5.8-17.4c4.7,0.1,9.7,0.1,11.3,0.1s2.1-0.4,2.1-1.9v-57.8h-11.5c-3.5,6.6-7.3,12.4-11.1,17.1
			c-3.1-3.1-10-8.8-14-11.5c9.2-9.7,16.7-25.8,20.8-41.8l17.1,3.9c-1.6,5.5-3.3,11-5.5,16.2H819l2.6-0.5l12.3,2.1
			c-1.3,10.3-3.5,21.8-5.1,29.4l-14.8-2.6c0.5-3.3,1.1-7.8,1.6-12.4L803.2,278.1L803.2,278.1z M783,299.8
			c-3.2,14.9-9.2,30.2-15.6,39.8c-3.2-2.7-10.6-7.3-14.7-9.3c6.3-8,11.1-21.2,13.5-33.9L783,299.8z M820.5,294.9
			c5.8,12.2,10.5,27.8,12.1,38.4l-16.7,5.8c-1-10.5-5.5-26.9-10.9-39L820.5,294.9z"/>
		<path class="st1" d="M948.5,302.2c-4.3,3.3-9.1,6.7-13.7,9.9c4.3,12.9,12.7,24,25.7,29.4c-3.8,3.2-9,9.8-11.3,14.2
			c-13.8-6.9-22.4-19.1-28.1-34.9l-2.4,1.4c2.9,13.8,0.1,27-5.8,32.4c-4.4,4.8-8.6,6.2-15.3,6.3c-2.7,0.1-6.1,0-9.4-0.1
			c-0.2-4.5-1.6-11-4.4-15.6c-9.2,4.4-19,8.4-27.7,11.1c-1.9-4.3-5.6-10.5-9-14.3c18.9-4.1,41.5-13.7,53.5-23.4
			c-0.2-0.8-0.6-1.7-1-2.5c-12.1,7.3-29.1,14.7-42.5,18.7c-1.9-3.8-5.4-9.7-8.5-13.3c14.7-2.9,33.9-9.8,44.3-16.4
			c-0.6-0.7-1.2-1.4-1.9-2.1c-10.1,5-21.5,9-32.4,11.7c-1.7-3.3-6-10.3-8.7-13.5c12.5-2.3,25.4-5.8,35.7-10.9h-16.5v-14.6h66.1v14.6
			h-24.8c-1.9,1.8-4.1,3.5-6.4,5c3.9,3.8,7,8,9.4,12.5c7.5-5.4,15.3-11.7,20.8-17.2L948.5,302.2z M867,285h-17v-28.7h42.6
			c-0.7-1.8-1.4-3.6-2.1-5.1l18.5-5.3c1.7,3.1,3.6,6.9,4.8,10.4h41.5V285h-17.8v-13H867V285z M900,341.9c1.2-1.3,2.1-3.9,2.5-7.4
			c-5.4,3.6-11.5,6.9-17.8,10c3.7,0.4,6.8,0.5,9.4,0.5C896.8,345,898.6,344.5,900,341.9z"/>
		<path class="st1" d="M978.5,347.1c-2.5-2.3-3.8-5.2-3.8-8.7s1.3-6.5,3.8-8.9s5.8-3.6,9.7-3.6s7.1,1.2,9.6,3.6s3.8,5.4,3.8,8.9
			c0,3.4-1.3,6.3-3.8,8.7c-2.5,2.3-5.7,3.5-9.6,3.5C984.3,350.6,981,349.4,978.5,347.1z M1000.2,253.1l-2.7,63.5h-19.2l-2.7-63.5
			H1000.2z"/>
	</g>
	<g>
		<path class="st3" d="M273.5,422.9V565h-34.6v-58.5h-53.8V565h-34.6V422.9h34.6v55.7h53.8v-55.7H273.5z"/>
		<path class="st3" d="M384.3,539.9h-53l-8.5,25.1h-36.2L338,422.9h40L429.4,565h-36.6L384.3,539.9z M375.4,513.2l-17.6-52l-17.4,52
			H375.4z"/>
		<path class="st3" d="M476.4,422.9v85c0,8.5,2.1,15,6.3,19.6c4.2,4.6,10.3,6.9,18.4,6.9s14.3-2.3,18.6-6.9
			c4.3-4.6,6.5-11.1,6.5-19.6v-85h34.6v84.8c0,12.7-2.7,23.4-8.1,32.2c-5.4,8.8-12.7,15.4-21.8,19.8c-9.1,4.5-19.3,6.7-30.5,6.7
			s-21.2-2.2-30.1-6.6c-8.8-4.4-15.8-11-21-19.8c-5.1-8.8-7.7-19.6-7.7-32.3v-84.8L476.4,422.9L476.4,422.9z"/>
		<path class="st3" d="M605.9,561.4c-8.2-3.4-14.8-8.4-19.7-15s-7.5-14.6-7.8-23.9h36.8c0.5,5.3,2.4,9.3,5.5,12
			c3.1,2.8,7.2,4.1,12.1,4.1c5.1,0,9.2-1.2,12.1-3.5c3-2.4,4.5-5.6,4.5-9.8c0-3.5-1.2-6.4-3.5-8.7c-2.4-2.3-5.3-4.2-8.7-5.7
			c-3.4-1.5-8.3-3.2-14.7-5.1c-9.2-2.8-16.7-5.7-22.5-8.5s-10.8-7-15-12.6c-4.2-5.5-6.3-12.8-6.3-21.7c0-13.2,4.8-23.6,14.4-31.1
			c9.6-7.5,22.1-11.2,37.4-11.2c15.7,0,28.3,3.7,37.9,11.2c9.6,7.5,14.7,17.9,15.4,31.3h-37.4c-0.3-4.6-2-8.2-5.1-10.8
			c-3.1-2.6-7.1-3.9-11.9-3.9c-4.2,0-7.6,1.1-10.1,3.3c-2.6,2.2-3.8,5.4-3.8,9.6c0,4.6,2.2,8.2,6.5,10.7c4.3,2.6,11.1,5.3,20.2,8.3
			c9.2,3.1,16.6,6.1,22.4,8.9c5.7,2.8,10.7,7,14.9,12.3c4.2,5.4,6.3,12.3,6.3,20.8c0,8.1-2.1,15.5-6.2,22.1
			c-4.1,6.6-10.1,11.9-17.9,15.8c-7.8,3.9-17.1,5.9-27.7,5.9C623.5,566.5,614.2,564.8,605.9,561.4z"/>
		<path class="st3" d="M153.7,639.6c6.1-11,14.5-19.6,25.4-25.7c10.9-6.1,23.2-9.2,36.9-9.2c16.9,0,31.3,4.5,43.3,13.4
			c12,8.9,20,21.1,24.1,36.4h-38.1c-2.8-5.9-6.9-10.5-12-13.6c-5.2-3.1-11.1-4.7-17.7-4.7c-10.7,0-19.3,3.7-25.9,11.1
			c-6.6,7.4-9.9,17.3-9.9,29.8c0,12.4,3.3,22.3,9.9,29.8c6.6,7.4,15.2,11.1,25.9,11.1c6.6,0,12.5-1.5,17.7-4.7
			c5.2-3.1,9.2-7.6,12-13.6h38.1c-4,15.4-12.1,27.5-24.1,36.3s-26.5,13.3-43.3,13.3c-13.8,0-26.1-3.1-36.9-9.2
			c-10.9-6.1-19.3-14.7-25.4-25.6c-6.1-10.9-9.1-23.4-9.1-37.4C144.6,663.1,147.6,650.6,153.7,639.6z"/>
		<path class="st3" d="M336.1,606.3v85c0,8.5,2.1,15,6.3,19.6c4.2,4.6,10.3,6.9,18.4,6.9s14.3-2.3,18.6-6.9
			c4.3-4.6,6.5-11.1,6.5-19.6v-85h34.6v84.8c0,12.7-2.7,23.4-8.1,32.2s-12.7,15.4-21.8,19.8c-9.1,4.5-19.3,6.7-30.5,6.7
			s-21.2-2.2-30.1-6.6c-8.8-4.4-15.8-11-21-19.8c-5.1-8.8-7.7-19.6-7.7-32.3v-84.8L336.1,606.3L336.1,606.3z"/>
		<path class="st3" d="M476.8,606.3v142.1h-34.6V606.3H476.8z"/>
		<path class="st3" d="M522.7,744.7c-8.2-3.4-14.8-8.4-19.7-15c-4.9-6.6-7.5-14.6-7.8-23.9H532c0.5,5.3,2.4,9.3,5.5,12
			c3.1,2.8,7.2,4.1,12.1,4.1c5.1,0,9.2-1.2,12.1-3.5c3-2.4,4.5-5.6,4.5-9.8c0-3.5-1.2-6.4-3.5-8.7c-2.4-2.3-5.3-4.2-8.7-5.7
			s-8.3-3.2-14.7-5.1c-9.2-2.8-16.7-5.7-22.5-8.5s-10.8-7-15-12.6c-4.2-5.5-6.3-12.8-6.3-21.7c0-13.2,4.8-23.6,14.4-31.1
			S532,604,547.3,604c15.7,0,28.3,3.7,37.9,11.2c9.6,7.5,14.7,17.9,15.4,31.3h-37.4c-0.3-4.6-2-8.2-5.1-10.8s-7.1-3.9-11.9-3.9
			c-4.2,0-7.6,1.1-10.1,3.3c-2.6,2.2-3.8,5.4-3.8,9.6c0,4.6,2.2,8.2,6.5,10.7c4.3,2.6,11.1,5.3,20.2,8.3c9.2,3.1,16.6,6.1,22.4,8.9
			c5.7,2.8,10.7,7,14.9,12.3c4.2,5.4,6.3,12.3,6.3,20.9c0,8.1-2.1,15.5-6.2,22.1c-4.1,6.6-10.1,11.9-17.9,15.8
			c-7.8,3.9-17.1,5.9-27.7,5.9C540.3,749.8,531,748.1,522.7,744.7z"/>
		<path class="st3" d="M655.7,606.3v142.1h-34.6V606.3H655.7z"/>
		<path class="st3" d="M805.3,748.4h-34.6l-57.9-87.7v87.7h-34.6V606.3h34.6l57.9,88.1v-88.1h34.6V748.4z"/>
		<path class="st3" d="M862.4,634v28.7h46.4v26.7h-46.4v31.2h52.4v27.7h-87v-142h87V634H862.4z"/>
	</g>
</g>
</svg>
