<?xml version="1.0" encoding="utf-8"?>
<!-- Generator: Adobe Illustrator 26.2.1, SVG Export Plug-In . SVG Version: 6.00 Build 0)  -->
<svg version="1.1" id="圖層_1" xmlns="http://www.w3.org/2000/svg" xmlns:xlink="http://www.w3.org/1999/xlink" x="0px" y="0px"
	 viewBox="0 0 687.15 111.69" style="enable-background:new 0 0 687.15 111.69;" xml:space="preserve">
<style type="text/css">
	.st0{fill:#FFFFFF;}
</style>
<g>
	<path class="st0" d="M6.56,21.69c-1.68,2.87-3.53,5.78-5.82,8.24c-0.08,0.08-0.41,0.41-0.57,0.41C0.08,30.34,0,30.26,0,30.18
		c0-0.12,0.29-0.7,0.37-0.82c0.45-0.94,0.82-1.97,1.23-2.91c0.53-1.31,1.03-2.62,1.48-3.98c1.23-3.53,2.09-7.09,2.75-10.78
		c0.12-0.66,0-1.44,0-2.09c0-0.21,0.04-0.29,0.25-0.29c0.66,0,3.12,1.02,3.77,1.31c0.33,0.12,1.64,0.61,1.64,1.11
		c0,0.45-1.03,0.78-1.35,0.9C9.18,15.58,8.16,18.98,6.56,21.69z M17.51,33.95c0,0.53,0,2.38-0.16,2.83
		c-0.66,1.89-3.57,2.13-5.21,2.34c-0.41-2.3-0.78-2.87-2.91-3.9c-0.2-0.12-0.9-0.37-0.9-0.66c0-0.12,0.12-0.16,0.25-0.16
		c0.29,0,0.57,0.08,0.86,0.12c0.98,0.16,1.97,0.33,2.91,0.33c0.98,0,1.68-0.29,1.68-1.39V3.16c0-0.49-0.12-1.48-0.37-1.93
		c-0.04-0.08-0.12-0.25-0.12-0.37c0-0.21,0.16-0.29,0.33-0.29c0.53,0,4.18,1.07,4.51,1.35c0.12,0.08,0.25,0.21,0.25,0.37
		c0,0.33-0.9,0.94-1.11,1.11V33.95z M20.87,10.54c0.08,0,0.33,0.21,0.37,0.21c4.3,3.57,9.14,10.7,9.14,16.52
		c0,1.39-0.41,3.2-2.13,3.2c-1.89,0-2.25-1.72-2.38-3.24l-0.21-2.3c-0.29-3.08-1.39-6.97-2.75-9.76c-0.53-1.15-1.11-2.42-1.8-3.53
		c-0.12-0.16-0.53-0.7-0.53-0.9C20.58,10.58,20.75,10.54,20.87,10.54z"/>
	<path class="st0" d="M48.67,29.6h-4.22v3.49c-1.07,0.37-2.17,0.66-3.28,0.9c0.08-1.56,0.25-3.12,0.25-4.67V7.54
		c0-0.61,0-1.27-0.08-1.93c-0.04-0.49-0.37-1.35-0.37-1.56c0-0.12,0.04-0.25,0.16-0.25c0.57,0,2.83,1.35,3.53,1.68h3.53
		c0.16-0.25,0.94-1.56,1.35-1.56c0.45,0,2.17,1.31,2.54,1.56c0.21,0.12,0.7,0.41,0.7,0.7c0,0.41-0.78,0.98-1.03,1.19v19.93
		c0,1.39,0.12,2.79,0.21,4.18c-1.07,0.57-2.3,0.9-3.44,1.27L48.67,29.6z M48.67,16.24V6.93h-3.81l-0.41,0.49v8.82H48.67z
		 M48.67,28.17v-10.5h-4.22v10.5H48.67z M59.45,9.59h-3.98l-0.82,0.45l-1.48-2.17c0.82,0.08,1.72,0.25,2.5,0.25h3.77V3.36
		c0-0.37-0.04-0.74-0.08-1.11c-0.04-0.53-0.45-1.23-0.45-1.52c0-0.25,0.21-0.29,0.41-0.29c0.7,0,4.71,1.07,4.71,2.05
		c0,0.33-1.02,0.9-1.27,1.02v4.59h2.3c0.16-0.21,1.48-1.8,1.93-1.8c0.33,0,0.66,0.37,0.86,0.57c0.29,0.33,1.84,1.8,1.84,2.34
		c0,0.33-0.29,0.49-0.57,0.49h-6.35v5.21h4.1c0.21-0.25,1.48-1.93,1.97-1.93c0.29,0,0.66,0.33,0.86,0.57
		c0.21,0.25,1.8,1.89,1.8,2.38c0,0.29-0.33,0.41-0.57,0.41H54.49l-0.82,0.49l-1.52-2.17c0.82,0.08,1.72,0.25,2.54,0.25h4.76V9.59z
		 M65.97,36.08c0,0.66-0.12,1.27-0.61,1.76c-0.86,0.86-2.75,1.27-3.9,1.27h-0.21c-0.08-1.23-0.21-1.8-1.23-2.54
		c-0.78-0.53-1.35-0.7-2.21-1.02c-0.16-0.04-0.29-0.12-0.29-0.29c0-0.12,0.16-0.21,0.25-0.21c1.19,0,2.38,0.33,3.57,0.33
		c0.7,0,1.35,0,1.35-0.86V23.29h-8.04l-0.82,0.45l-1.48-2.17c0.82,0.08,1.72,0.29,2.5,0.29h7.83v-2.01c0-0.41-0.04-0.86-0.08-1.27
		c-0.04-0.57-0.45-1.19-0.45-1.52c0-0.21,0.16-0.25,0.33-0.25c0.82,0,4.59,1.02,4.59,2.01c0,0.33-0.86,0.86-1.11,1.02v2.01h1.07
		c0.12-0.16,1.27-1.76,1.68-1.76c0.29,0,0.57,0.25,0.74,0.45l1.39,1.6c0.16,0.16,0.37,0.45,0.37,0.7c0,0.37-0.41,0.45-0.7,0.45
		h-4.55V36.08z M54.74,24.6c0.21,0,0.66,0.21,0.86,0.29c0.45,0.16,0.94,0.37,1.39,0.57c1.27,0.53,2.79,1.89,2.79,3.36
		c0,1.07-0.7,2.05-1.84,2.05c-0.62,0-1.19-0.41-1.39-0.98c-0.33-1.07-0.25-2.17-0.7-3.2c-0.21-0.45-1.35-1.89-1.35-1.93
		C54.49,24.64,54.65,24.6,54.74,24.6z"/>
	<path class="st0" d="M102.95,8.77c-1.19-1.19-2.54-2.09-3.94-2.99c-0.12-0.04-0.12-0.12-0.12-0.25c0-0.08,0.12-0.12,0.2-0.12
		c0.7,0,4.59,1.35,5.41,1.72c0.74-0.86,1.44-1.8,1.97-2.83H100l-0.9,0.45l-1.15-2.09c0.78,0.08,1.64,0.21,2.42,0.21h6.44
		c0.29-0.21,1.02-0.98,1.39-0.98c0.66,0,2.05,1.35,2.54,1.76c0.16,0.16,0.62,0.57,0.62,0.82c0,0.57-1.07,0.86-1.44,1.07
		c-0.98,0.98-1.93,1.97-2.95,2.95c1.23,0.82,4.22,2.79,4.22,4.35c0,0.98-0.57,1.68-1.56,1.68c-0.53,0-0.98-0.16-1.39-0.49
		c-0.57-0.45-1.03-1.02-1.52-1.56c-0.62-0.7-1.27-1.39-1.97-2.05c-1.97,1.48-3.28,2.13-5.54,3.2c0.33,0.25,0.9,0.61,0.9,1.02
		c0,0.21-0.41,0.33-0.53,0.37c2.79,2.42,5.12,3.44,8.49,4.84c1.11,0.45,2.25,0.9,3.44,1.15c0.25,0.04,1.39,0.21,1.39,0.53
		c0,0.33-0.9,0.45-1.19,0.53c-1.31,0.41-1.76,0.98-2.58,2.05c-1.48-0.74-3.08-1.48-4.39-2.46c-2.38-1.76-4.43-3.9-6.27-6.19
		c-0.98,0.7-1.97,1.35-2.99,1.97c1.27,0.29,3.81,1.11,3.81,2.75c0,0.9-0.53,1.6-1.48,1.6c-1.48,0-1.72-1.19-2.13-2.38
		c-0.29-0.82-0.41-0.94-1.03-1.52c-1.89,1.11-3.81,2.13-5.82,3.03c1.19,0.37,2.34,0.9,3.49,1.39h8.94c0.33-0.37,0.98-1.35,1.56-1.35
		c0.66,0,2.05,1.23,2.54,1.6c0.16,0.12,0.57,0.41,0.57,0.66c0,0.29-0.78,0.82-0.98,0.98v3.32c0,0.57,0.08,1.15,0.12,1.72
		c-1.15,0.37-2.34,0.74-3.57,0.86l0.08-0.45H91.39v5.04l5.82-0.98c0.08-0.04,0.16-0.04,0.21-0.04c0.12,0,0.21,0.04,0.21,0.16
		c0,0.29-0.82,0.62-1.03,0.7c-2.67,1.35-5.17,2.95-7.58,4.67l-1.84-4.02c0.66-0.41,1.03-1.02,1.03-1.8V23.7
		c0-0.78,0.04-1.8-0.25-2.5c-1.11,0.41-5.25,1.89-6.44,1.89c-0.08,0-0.21-0.04-0.21-0.12c0-0.2,0.04-0.29,0.25-0.37
		c1.68-0.78,3.36-1.6,5-2.5c2.05-1.15,8.24-5.62,9.47-7.38c0.12-0.16,0.49-0.74,0.78-0.74c0.37,0,1.68,0.98,2.01,1.23
		C100.37,11.81,101.76,10.46,102.95,8.77z M88.03,0.04L88.19,0c0.41,0.08,4.02,0.78,4.02,1.44c0,0.33-0.74,0.94-0.98,1.15v1.02
		c0.86,0,1.72,0.08,2.54,0.04c0.2-0.21,1.15-1.19,1.52-1.19c0.33,0,2.3,1.68,2.3,2.05c0,0.37-0.16,0.61-0.53,0.61
		c-1.8,0-3.61-0.12-5.37-0.12c-0.16,0-0.33,0-0.45,0c0,0.7-0.04,1.39-0.04,2.05c0,0.08,0,0.2,0.04,0.29h2.17
		c0.16-0.12,1.19-0.9,1.43-0.9c0.45,0,2.01,1.56,2.25,1.76c0.21,0.21,0.78,0.74,0.78,1.02c0,0.41-1.19,0.66-1.39,0.74
		c-3.57,3.12-6.52,5.58-10.86,7.54c-0.53,0.25-2.91,1.31-3.44,1.31c-0.12,0-0.21-0.04-0.21-0.16c0-0.21,0.86-0.66,1.03-0.74
		c1.72-1.02,3.24-2.38,4.76-3.73c1.84-1.64,3.57-3.44,5.04-5.41h-5.7c-0.16,0.25-0.37,0.49-0.57,0.74c1.19,0.33,2.42,0.82,2.42,2.25
		c0,0.9-0.7,1.52-1.56,1.52c-1.31,0-1.03-1.27-1.23-2.17c-0.04-0.29-0.16-0.57-0.25-0.82c-1.31,1.48-2.01,2.42-3.4,3.77
		c-0.16,0.12-0.74,0.78-0.9,0.78c-0.08,0-0.16-0.08-0.16-0.16l1.68-3.69c0.61-1.31,1.15-2.75,1.48-4.18
		c0.04-0.21,0.12-1.23,0.41-1.23c0.53,0,2.67,1.31,3.2,1.76l0.08-5.37C88.27,1.39,88.19,0.62,88.03,0.04z M101.6,25.42V23.7h-9.64
		l-0.57,0.37v1.35H101.6z M101.6,28.33v-1.56H91.39v1.56H101.6z M109.39,37.68c0,1.02-0.74,1.6-1.72,1.6
		c-0.41,0-0.82-0.08-1.23-0.29c-0.62-0.33-1.23-0.86-1.8-1.31c-2.21-1.72-4.8-3.16-7.3-4.47c-0.98-0.53-2.01-1.03-3.08-1.31
		c-0.21-0.04-1.27-0.33-1.43-0.45c-0.12-0.08-0.12-0.12-0.12-0.29S93.03,31,93.11,31c2.42,0,5.58,0.7,7.91,1.35
		c1.02-0.57,2.05-1.19,2.99-1.93c0.12-0.08,1.64-1.31,1.72-1.31c0.57,0,2.5,2.17,2.5,2.79c0,0.37-1.15,0.21-1.43,0.21
		c-0.45,0-3.03,0.82-3.61,0.98C104.55,33.78,109.39,35.88,109.39,37.68z"/>
	<path class="st0" d="M124.43,26.81l-0.57,0.49l-1.6-2.17c0.82,0.04,1.72,0.21,2.5,0.21h11.48V23.7c0-0.62-0.12-1.27-0.41-1.8
		c-0.04-0.12-0.12-0.25-0.16-0.41L136,21.2h-5.12v1.27c-1.19,0.41-2.42,0.7-3.65,0.86c0.08-1.02,0.21-2.13,0.21-3.2v-8.28
		c0-0.45,0-0.9-0.08-1.31c-0.04-0.37-0.33-1.27-0.33-1.48s0.29-0.25,0.45-0.25c0.21,0,0.7,0.25,0.9,0.29c1.56,0.62,1.8,0.74,3.2,1.6
		h4.59V3.44c0-0.74-0.29-1.93-0.53-2.62c-0.04-0.12-0.12-0.29-0.12-0.45c0-0.25,0.29-0.33,0.49-0.33c0.74,0,4.63,1.02,4.63,1.68
		c0,0.45-0.61,0.82-0.94,1.02v2.34h6.19c0.16-0.21,1.64-2.17,2.13-2.17c0.29,0,0.74,0.45,0.94,0.66c0.29,0.29,2.25,2.09,2.25,2.58
		c0,0.25-0.21,0.37-0.41,0.37h-11.11v4.18h5.08c0.12-0.16,1.19-1.44,1.43-1.44c0.45,0,3.36,1.89,3.36,2.25
		c0,0.49-0.7,1.07-1.03,1.35v5.41c0,1.23,0.12,2.5,0.16,3.73c-1.19,0.53-2.5,0.86-3.77,1.11l0.12-1.93h-8.32
		c0.57,0.08,3.81,0.45,3.81,1.39c0,0.37-0.53,0.7-0.82,0.9v1.85h9.06c0.21-0.21,1.6-1.97,2.05-1.97c0.41,0,2.95,2.54,2.95,3.03
		c0,0.21-0.25,0.41-0.45,0.41h-12.05c2.05,2.46,5.37,4.51,8.32,5.74c0.94,0.41,1.93,0.78,2.91,1.07c0.29,0.04,1.64,0.33,1.64,0.66
		c0,0.41-1.03,0.57-1.35,0.66c-1.07,0.37-2.3,1.44-2.99,2.3c-2.75-1.23-5.86-4.22-7.63-6.64c-0.53-0.74-1.07-1.52-1.48-2.34
		l-0.7-1.43h-0.29v7.67c0,1.39,0.12,2.83,0.21,4.22c-1.31,0.37-2.62,0.53-3.94,0.66c0.08-1.56,0.25-3.16,0.25-4.67v-5.25
		c-1.15,1.02-2.3,2.05-3.57,2.95c-2.58,1.8-5.45,3.53-8.36,4.72c-0.29,0.08-1.48,0.61-1.68,0.61c-0.12,0-0.29-0.08-0.29-0.21
		c0-0.16,0.25-0.33,0.37-0.41l1.31-0.98c3.36-2.5,6.81-5.9,9.31-9.31H124.43z M145.06,15.38v-3.2h-13.74l-0.45,0.45v2.75H145.06z
		 M145.06,19.76v-3.03h-14.19v3.03H145.06z"/>
	<path class="st0" d="M187.29,15.58c0,0,2.05-2.21,2.38-2.21c0.25,0,0.57,0.45,0.7,0.66c0.21,0.25,2.13,2.5,2.13,3.03
		c0,0.25-0.29,0.33-0.45,0.33h-11.97v17.83h9.06c0-0.04,2.05-2.25,2.42-2.25c0.21,0,0.49,0.29,0.62,0.41l2.3,2.46
		c0.12,0.16,0.25,0.33,0.25,0.53c0,0.37-0.41,0.41-0.66,0.41h-28.21l-0.7,0.7l-1.93-2.46c1.03,0.08,2.09,0.21,3.12,0.21h9.84
		l0.04-29.56c0-0.82-0.04-1.6-0.16-2.42c-0.08-0.41-0.21-1.03-0.37-1.39c-0.04-0.08-0.21-0.37-0.21-0.49c0-0.21,0.21-0.21,0.33-0.21
		c0.86,0,4.55,1.19,5.45,1.64c0.25,0.12,0.53,0.41,0.53,0.7c0,0.41-1.43,1.23-1.72,1.39c0,3.57,0.04,7.13,0.04,10.7H187.29z"/>
	<path class="st0" d="M218.78,32.31c0,1.27,0.21,2.62,0.29,3.9c-1.23,0.57-2.5,1.03-3.85,1.27l0.12-2.46h-5.49v1.6
		c-1.15,0.45-2.34,0.74-3.53,1.11c0.08-1.48,0.29-3.03,0.29-4.51V13.37c0-0.94-0.04-1.93-0.21-2.87c-0.08-0.41-0.2-0.9-0.2-1.31
		c0-0.12,0-0.41,0.2-0.41c0.49,0,2.67,1.11,3.2,1.44c0.66-1.84,2.17-6.52,2.17-8.73c0-0.29-0.04-0.62-0.04-0.94
		c0-0.21,0.04-0.45,0.29-0.45c0.41,0,3.65,1.31,4.1,1.68c0.21,0.16,0.45,0.37,0.45,0.66s-0.9,0.57-1.11,0.62
		c-1.43,2.5-2.91,5-4.51,7.42h4.02c0.12-0.16,1.15-1.72,1.48-1.72c0.45,0,2.42,1.39,2.75,1.6c0.25,0.16,0.78,0.53,0.78,0.9
		c0,0.45-0.86,0.98-1.19,1.23V32.31z M215.33,21.77v-9.88h-5l-0.49,0.49v9.39H215.33z M215.33,33.54V23.25h-5.49v10.29H215.33z
		 M229.89,10.46c0.25-0.37,0.86-1.64,1.39-1.64c0.29,0,0.66,0.21,0.9,0.37l2.34,1.44c0.25,0.16,0.57,0.41,0.57,0.74
		c0,0.37-0.98,1.23-1.23,1.44c-0.08,4.1-0.16,8.2-0.16,12.26c0,3.16,0.08,6.4-0.21,9.55c-0.08,0.86-0.25,1.76-0.7,2.5
		c-1.02,1.76-3.4,1.97-5.21,2.13c0-1.35-0.33-2.67-1.68-3.24c-0.21-0.08-1.27-0.45-1.27-0.7c0-0.29,0.21-0.37,0.45-0.37
		c0.94,0,1.85,0.25,2.79,0.25c1.72,0,1.93-0.82,2.01-2.34l0.12-2.3c0.04-0.98,0.04-1.97,0.04-2.95l0.08-15.66h-5.25
		c-0.98,1.97-2.01,4.06-3.4,5.78l-1.35,1.64c-0.08,0.12-0.33,0.41-0.49,0.41c-0.08,0-0.21-0.08-0.21-0.16
		c0-0.29,0.94-2.54,1.03-2.79c1.07-2.67,3.65-12.5,3.65-15.25c0-0.25-0.04-0.49-0.04-0.74c0-0.16,0.12-0.37,0.29-0.37
		c0.41,0,3.77,1.44,4.3,1.8c0.21,0.16,0.49,0.41,0.49,0.7c0,0.41-0.98,0.7-1.27,0.82c-0.78,2.21-1.52,4.47-2.38,6.68H229.89z
		 M221.77,18.49c0.16,0,0.41,0.12,0.53,0.21c1.76,1.11,4.18,3.28,4.18,5.54c0,1.19-0.62,2.5-1.97,2.5c-1.35,0-1.93-1.35-1.93-2.5
		c0-0.7,0.08-1.39,0.08-2.09c0-0.9-0.25-1.44-0.49-2.34c-0.12-0.45-0.57-0.53-0.57-1.15C221.61,18.53,221.65,18.49,221.77,18.49z"/>
	<path class="st0" d="M270.81,7.42c0.29-0.29,1.19-1.48,1.72-1.48c0.37,0,0.74,0.29,1.02,0.53l2.42,2.05
		c0.25,0.21,0.49,0.49,0.49,0.86c0,0.49-0.29,0.78-0.78,0.78c-0.45,0-0.86-0.12-1.27-0.12c-1.72,0-3.32,1.15-4.51,2.26
		c-0.08,0.12-0.25,0.25-0.41,0.25c-0.12,0-0.21-0.08-0.21-0.2c0-0.33,1.31-3.03,1.52-3.44H251c-0.04,0.41-0.08,0.82-0.16,1.23
		c-0.16,1.23-1.35,2.83-2.67,2.83c-1.07,0-2.42-0.49-2.42-1.76c0-1.68,2.42-2.09,3.28-3.61c0.41-0.78,0.37-1.35,0.66-2.09
		c0.66-0.12,1.02,1.64,1.07,1.93H270.81z M254.69,25.91c-2.01,1.02-4.14,2.05-6.27,2.79c-0.33,0.08-1.31,0.49-1.56,0.49
		c-0.08,0-0.16-0.04-0.16-0.08c0-0.25,0.08-0.29,0.25-0.41c2.75-1.72,5.29-3.48,7.75-5.58c1.52-1.27,3.03-2.54,4.43-3.94l-0.29-0.49
		c-2.87,1.31-5.7,2.62-8.69,3.61c-0.33,0.12-1.56,0.57-1.8,0.57c-0.16,0-0.33-0.08-0.33-0.25c0-0.29,1.48-0.98,1.76-1.15
		c2.99-1.68,5.94-3.94,8.32-6.44h-6.31l-0.7,0.74l-1.52-2.42c0.78,0.08,1.64,0.25,2.38,0.25h17.55c0.25-0.29,1.39-1.56,1.84-1.56
		c0.41,0,1.97,1.8,2.21,2.05c0.21,0.21,0.37,0.37,0.37,0.7c0,0.16-0.21,0.25-0.37,0.25h-10.95c0.41,0.25,1.07,0.57,1.07,1.15
		c0,0.53-0.78,0.37-1.15,0.37c-0.98,0.57-1.93,1.19-2.95,1.72c1.76,1.27,2.58,2.17,3.69,4.02c1.56-0.94,4.92-3.16,5.99-4.59
		c0.04-0.08,0.33-0.45,0.45-0.45c0.49,0,3.36,2.54,3.53,2.99c0.04,0.08,0.08,0.2,0.08,0.29c0,0.25-0.16,0.29-0.37,0.29
		c-0.33,0-0.7-0.08-1.03-0.16c-1.48,0.49-2.95,0.9-4.47,1.23c0.21,0.86,0.49,1.68,0.78,2.46c0.57,1.64,1.6,3.2,2.54,4.63
		c1.19,1.84,2.79,3.48,4.67,4.71c0.25,0.16,1.31,0.74,1.31,1.03c0,0.45-1.11,0.37-1.39,0.37c-1.56,0.08-2.38,0.16-3.69,1.02
		c-1.35-1.48-2.99-3.44-3.65-5.37c-0.94-2.79-1.44-5.58-1.76-8.49c-0.9,0.29-1.76,0.49-2.67,0.7c0.78,2.42,1.11,4.39,1.11,6.97
		c0,2.62-0.62,5.08-2.13,7.3c-0.86,1.27-2.5,1.76-3.94,1.97c-0.08-0.98-0.12-1.72-0.62-2.62c-0.57-1.07-2.67-1.68-2.67-2.05
		c0-0.21,0.16-0.29,0.33-0.29c1.15,0,2.3,0.37,3.44,0.37c0.33,0,0.57-0.12,0.82-0.29c0.9-0.62,1.43-3.44,1.48-4.51l0.04-1.76
		c-0.98,0.74-2.01,1.44-3.03,2.13c-2.21,1.48-7.5,3.12-10.04,3.98c-0.37,0.08-1.6,0.57-1.89,0.57c-0.16,0-0.21-0.12-0.21-0.29
		c0-0.29,1.43-0.94,1.68-1.07c1.64-0.9,3.32-1.85,4.88-2.87c1.07-0.74,2.21-1.39,3.2-2.26c1.64-1.39,3.28-2.87,4.96-4.22
		c-0.08-0.53-0.21-0.98-0.41-1.48C258.75,23.86,256.7,24.93,254.69,25.91z M261.58,6.97c-0.49,0-0.94-0.16-1.23-0.53
		c-0.86-1.07-0.21-3.65-1.85-5.33c-0.16-0.16-0.45-0.45-0.45-0.74c0-0.21,0.16-0.21,0.33-0.21c0.45,0,1.11,0.21,1.52,0.33
		c1.76,0.61,4.02,1.89,4.02,4.02C263.92,5.94,263.06,6.97,261.58,6.97z"/>
	<path class="st0" d="M300.08,9.27V3.65c0-0.61-0.04-1.89-0.41-2.42c-0.12-0.16-0.33-0.41-0.33-0.66c0-0.21,0.12-0.29,0.33-0.29
		c0.53,0,5.08,1.39,5.08,1.89c0,0.33-0.78,0.86-1.02,0.98v6.11h0.7c1.07-1.02,1.97-2.38,2.71-3.65c0.49-0.86,1.27-1.93,1.6-2.83
		c0.08-0.21,0.21-1.02,0.41-1.02c0.74,0,3.73,2.67,3.73,3.16c0,0.25-1.19,0.41-1.35,0.45c-1.93,1.23-3.73,2.58-5.62,3.9h6.72
		c0.21-0.25,1.03-1.64,1.44-1.64c0.94,0,4.18,2.3,4.18,3.2c0,0.78-1.19,0.78-1.68,0.86c-1.68,0.21-4.43,2.62-4.67,2.62
		c-0.16-0.08-0.16-0.12-0.16-0.21c0-0.33,1.15-2.91,1.35-3.4H291.3c0,0.29,0,0.61,0,0.9c-0.04,0.53-0.49,1.27-0.78,1.72
		c-0.45,0.66-1.07,1.02-1.89,1.02c-0.9,0-1.8-0.57-1.8-1.56c0-2.09,1.6-2.46,2.58-3.98c0.37-0.53,0.41-1.02,0.49-1.64
		c0-0.12,0-0.29,0.12-0.29c0.57,0,0.94,2.05,1.02,2.38H300.08z M290.98,31.69v-5.33c0-0.74-0.04-2.34-0.49-2.91
		c-0.08-0.16-0.16-0.29-0.25-0.41c-0.04-0.12-0.04-0.2-0.04-0.33c0-0.16,0.25-0.16,0.37-0.16c1.07,0,3.53,1.19,4.51,1.76h5v-1.15
		c0-0.49,0-1.64-0.29-2.13c-0.08-0.12-0.21-0.29-0.21-0.49c0-0.12,0.12-0.12,0.21-0.12c1.03,0,2.83,0.49,3.81,0.94
		c0.12,0.04,1.07,0.45,1.07,0.61c0,0.33-0.9,0.78-1.15,0.86v1.48h5.45c0.21-0.33,0.82-1.43,1.31-1.43c0.7,0,2.21,1.19,2.67,1.48
		c0.33,0.21,0.82,0.57,0.82,0.98c0,0.45-0.62,0.86-0.9,1.11v5.9c0,0.53-0.04,1.19-0.25,1.68c-0.53,1.27-2.83,1.6-4.02,1.8
		c-0.33-1.44-0.57-2.38-2.05-3.08c-0.16-0.12-1.23-0.53-1.23-0.74c0-0.16,0.08-0.25,0.25-0.25c0.74,0,1.93,0.41,2.91,0.41
		c0.86,0,0.82-0.61,0.82-1.31v-5.12h-5.78v8.77c0,1.19,0.12,2.42,0.16,3.57c-1.23,0.45-2.58,0.7-3.85,0.94
		c0.08-1.52,0.25-3.12,0.25-4.63v-8.65h-5.21l-0.41,0.37v5.17c0,1.02,0.12,2.09,0.16,3.12c-1.23,0.45-2.5,0.86-3.85,1.02
		C290.85,34.19,290.98,32.92,290.98,31.69z M295.49,8c-2.01,0-1.35-2.3-1.93-3.73c-0.16-0.37-0.37-0.74-0.61-1.07
		C292.86,3.03,292,2.13,292,2.09c0-0.08,0.16-0.16,0.25-0.16c1.23,0,2.71,0.7,3.73,1.31c0.94,0.57,1.6,1.43,1.6,2.58
		C297.58,6.89,296.59,8,295.49,8z M293.81,18.2v-3.16c0-0.41,0-0.82-0.04-1.23c-0.08-0.7-0.53-1.31-0.53-1.52
		c0-0.16,0.08-0.21,0.21-0.21c0.9,0,3.65,1.31,4.51,1.76h8.41c0.21-0.29,0.82-1.48,1.27-1.48c0.57,0,2.54,1.52,2.95,1.76
		c0.21,0.16,0.45,0.41,0.45,0.7c0,0.37-0.7,0.82-0.94,1.02v2.42c0,0.74,0.12,1.56,0.16,2.34c-1.19,0.41-2.46,0.86-3.73,1.07
		l0.16-1.48h-9.59v0.74c-1.15,0.41-2.38,0.62-3.61,0.78C293.56,20.79,293.81,19.06,293.81,18.2z M297.58,15.29l-0.49,0.45v3.03h9.59
		v-3.49H297.58z"/>
	<path class="st0" d="M345.67,22.39c-0.49,1.02-2.3,3.24-3.65,3.77c-0.25,0.12-0.53,0.08-0.66-0.12c-0.08-0.16-0.08-0.37,0.16-0.57
		c1.07-1.11,1.76-2.26,2.09-3.65c0.04-0.25,0-0.45-0.29-0.49c-0.82-0.12-1.43-0.29-2.01-0.94c-0.57-0.61-0.78-1.48-0.74-2.25
		c0-1.02,0.49-1.8,1.35-2.34c0.94-0.57,1.8-0.62,2.75-0.16c0.9,0.45,1.43,1.27,1.68,2.25C346.7,19.39,346.33,21.07,345.67,22.39z"/>
	<path class="st0" d="M397.5,18.37c0.49,0,2.83,2.34,2.83,2.71c0,0.25-0.21,0.37-0.41,0.37h-12.3c-0.25,0.61-0.25,0.53-0.74,0.98
		v3.94h5.62c0.12-0.12,1.72-1.64,2.01-1.64c0.33,0,2.75,2.21,2.75,2.75c0,0.21-0.29,0.37-0.45,0.37h-9.92v5.99
		c1.64,0.12,3.24,0.21,4.88,0.21c2.75,0,5.45-0.04,8.16-0.33c0.21,0,0.37,0.08,0.37,0.29c0,0.08-0.04,0.16-0.12,0.21
		c-1.64,1.31-2.17,1.48-2.83,3.48c-1.11,0-2.17,0.04-3.28,0.04c-1.6,0-3.16-0.04-4.76-0.12c-6.85-0.45-9.27-0.53-12.18-7.26
		c-1.27,2.95-2.09,4.06-4.67,5.99c-0.66,0.49-1.31,0.98-2.01,1.39c-0.2,0.12-1.27,0.78-1.48,0.78c-0.12,0-0.25-0.08-0.25-0.21
		c0-0.16,0.12-0.29,0.21-0.37c1.15-1.27,2.17-2.46,3.12-3.85c1.19-1.8,2.46-5.99,2.71-8.16l0.25-2.01c0-0.16,0.04-0.37,0.04-0.57
		c0-0.45-0.25-0.86-0.25-1.31c0.62-0.04,5.17,1.19,5.17,1.89c0,0.33-0.94,0.78-1.19,0.9c-0.37,1.48-0.78,2.95-1.27,4.43
		c1.8,2.5,2.91,3.24,5.86,4.18l0.04-11.97h-13.28l-0.74,0.53l-1.44-2.21c0.82,0.08,1.72,0.25,2.5,0.25h25.01
		C395.69,19.76,397.04,18.37,397.5,18.37z M390.03,2.3c0.21-0.25,1.03-1.31,1.48-1.31c0.45,0,3.36,1.76,3.36,2.26
		c0,0.41-0.78,0.82-1.02,0.98v9.63c0,1.07,0.12,2.21,0.2,3.32c-1.31,0.49-2.54,0.57-3.89,0.7l0.08-1.6H379v0.9
		c-1.19,0.41-2.46,0.49-3.73,0.7c0.08-1.52,0.25-3.07,0.25-4.59V3.61c0-0.53-0.12-1.11-0.21-1.6c-0.04-0.41-0.45-1.07-0.45-1.27
		c0-0.16,0.33-0.25,0.45-0.25c0.94,0,3.4,1.31,4.26,1.8H390.03z M390.24,8.53v-4.8h-10.87L379,4.06v4.47H390.24z M390.24,14.8V9.96
		H379v4.84H390.24z"/>
	<path class="st0" d="M415.66,4.59c0-1.02,0-2.67-0.41-3.44c0.08-0.12,0.16-0.16,0.29-0.16c0.53,0,3.94,1.72,4.51,1.97l12.63-0.04
		c0.08-0.08,1.56-1.44,1.68-1.44c0.16,0,0.57,0.25,0.74,0.33c0.33,0.2,2.83,1.48,2.83,1.93S436.77,4.8,436.49,5
		c-0.12,3.4-0.29,6.81-0.45,10.25h0.41c0.25-0.25,1.52-1.68,1.89-1.68c0.45,0,2.13,1.76,2.54,2.17c0.16,0.12,0.37,0.33,0.37,0.57
		c0,0.29-0.33,0.41-0.57,0.41h-4.67c-0.25,3.69-0.57,7.42-1.03,11.15h0.57c0.21-0.16,1.72-1.76,2.01-1.76
		c0.21,0,0.41,0.16,0.53,0.29l2.13,2.05c0.12,0.12,0.25,0.29,0.25,0.49c0,0.25-0.21,0.37-0.45,0.37h-5.17
		c-1.07,5.37-1.31,7.09-6.85,9.31c-0.62-1.8-1.07-2.91-2.91-3.65c-0.37-0.12-1.76-0.53-1.76-0.94c0-0.16,0.25-0.21,0.37-0.21
		c0.98,0.08,2.01,0.25,2.99,0.25c0.74,0,2.01,0.04,2.67-0.37c1.02-0.7,1.6-3.24,1.84-4.39h-14.64c-0.2,0.29-1.19,1.8-1.64,1.8
		c-0.29,0-3.2-2.34-3.2-2.58s1.27-0.98,1.48-1.11c0.41-1.72,0.66-3.44,0.9-5.21c0.25-1.85,0.53-3.69,0.78-5.49h-3.73l-0.7,0.53
		l-1.44-2.17c0.82,0.04,1.68,0.16,2.5,0.16c1.15,0,2.3,0,3.44,0C415.29,11.73,415.66,8.12,415.66,4.59z M431.44,27.88
		c0.21-1.52,0.49-3.03,0.62-4.55c0.16-2.21,0.29-4.43,0.53-6.6h-14.31c-0.33,1.85-0.57,3.73-0.78,5.58
		c-0.25,1.85-0.57,3.69-0.86,5.54L431.44,27.88z M432.63,15.25c0.29-3.61,0.33-7.26,0.45-10.86l-13.24-0.04l-0.57,0.45
		c-0.25,3.49-0.57,6.97-0.86,10.46H432.63z M425.79,26.36c-0.66,0-1.23-0.33-1.56-0.86c-0.29-0.49-0.49-2.75-0.7-3.65
		c-0.25-1.11-0.37-1.23-0.9-2.3c-0.25-0.37-0.57-0.7-0.78-1.11c0.57-0.16,2.34,0.98,2.79,1.27c1.52,0.98,3.08,2.58,3.08,4.51
		C427.71,25.34,426.97,26.36,425.79,26.36z M426.15,14.02c-0.62,0-1.19-0.33-1.52-0.86c-0.25-0.41-0.37-1.6-0.41-2.01
		c-0.16-1.02-0.53-1.8-0.98-2.71c-0.33-0.7-0.57-1.11-1.07-1.68c-0.04-0.04-0.16-0.16-0.16-0.25c0-0.12,0.12-0.12,0.21-0.12
		c0.62,0,2.21,1.07,2.71,1.39c0.86,0.53,2.09,1.39,2.54,2.34c0.25,0.49,0.53,1.27,0.53,1.85C428,13,427.22,14.02,426.15,14.02z"/>
	<path class="st0" d="M450.92,34.28c-0.08,0.08-0.33,0.29-0.49,0.29c-0.12-0.12-0.16-0.16-0.16-0.25c0-0.16,3.36-5.99,3.32-7.91
		c0-0.12,0-0.29,0-0.41c0-0.08,0-0.16,0.04-0.25c0.04,0,0.08,0,0.16,0c0.41,0,2.25,1.11,2.79,1.44c0.29,0.16,0.66,0.41,0.66,0.78
		c0,0.49-0.66,0.57-1.03,0.66C454.98,30.18,452.64,33.29,450.92,34.28z M454.53,24.48l-0.86,0.49l-1.52-2.17
		c0.86,0.08,1.76,0.25,2.62,0.25h2.67v-4.63h-4.84l-0.82,0.53l-1.48-2.17c0.86,0.04,1.72,0.12,2.54,0.16
		c2.13,0.04,4.31,0.04,6.48,0.04c0.37-1.39,1.6-5.78,1.6-6.97c0-0.21-0.08-0.45-0.08-0.7c0.08-0.16,0.21-0.21,0.29-0.21
		c0.7,0,3.81,1.44,3.81,2.13c0,0.45-0.74,0.62-1.07,0.7c-1.11,1.68-2.25,3.36-3.49,5h2.46c0.16-0.12,1.35-1.68,1.72-1.68
		c0.41,0,2.34,2.38,2.34,2.79c0,0.16-0.16,0.37-0.37,0.37h-7.75c0.53,0.21,1.89,0.7,2.21,1.02c0.16,0.12,0.21,0.25,0.21,0.45
		c0,0.29-0.62,0.57-0.82,0.66v2.5h1.19c0.12-0.16,1.23-1.64,1.56-1.64c0.25,0,0.62,0.41,0.74,0.57c0.25,0.29,1.6,1.64,1.6,2.13
		c0,0.29-0.25,0.37-0.45,0.37h-4.63v9.14l0.29,3.16c-1.07,0.53-2.46,1.19-3.57,1.27l0.33-3.16V24.48H454.53z M463.96,5.7
		c0.25,0,0.7,0.45,0.86,0.61s1.8,1.72,1.8,2.21c0,0.33-0.45,0.37-0.7,0.37h-12.38l-0.82,0.45l-1.56-2.17
		c0.86,0.08,1.8,0.25,2.62,0.25h8.41C462.28,7.3,463.59,5.7,463.96,5.7z M453.67,9.64c0.29,0,1.56,0.66,1.84,0.78
		c0.86,0.45,1.6,1.02,2.05,1.85c0.29,0.49,0.57,1.15,0.57,1.72c0,0.9-0.7,1.72-1.6,1.72c-0.37,0-0.66-0.16-0.9-0.41
		c-0.29-0.25-0.41-0.57-0.45-0.94c-0.25-1.76-0.33-2.42-1.35-3.9c-0.08-0.12-0.41-0.53-0.41-0.66
		C453.5,9.64,453.58,9.64,453.67,9.64z M456.21,0.29c0.33,0,1.11,0.29,1.43,0.41c1.19,0.45,2.58,0.82,3.16,2.09
		c0.21,0.45,0.41,0.98,0.41,1.48c0,0.94-0.66,1.97-1.68,1.97c-0.45,0-0.82-0.25-1.15-0.61c-0.49-0.53-0.53-1.31-0.7-2.01
		c-0.16-0.78-0.7-1.76-1.19-2.38c-0.08-0.12-0.57-0.7-0.57-0.82S456.12,0.29,456.21,0.29z M461.21,26.36c0.29,0,1.97,0.61,2.25,0.74
		c0.86,0.33,1.93,0.82,2.34,1.68c0.21,0.49,0.41,1.07,0.41,1.6c0,0.86-0.62,1.64-1.56,1.64c-0.98,0-1.23-0.82-1.48-1.6
		c-0.21-0.57-0.45-1.11-0.7-1.64c-0.37-0.82-0.78-1.31-1.39-1.97c-0.04-0.04-0.21-0.16-0.21-0.29S461.13,26.36,461.21,26.36z
		 M475.56,2.99c0.16-0.25,1.02-1.76,1.43-1.76c0.25,0,0.57,0.25,0.78,0.37c0.33,0.29,2.54,1.68,2.54,2.17
		c0,0.45-0.82,0.86-1.15,1.07v15.38c0,1.27,0.12,2.58,0.21,3.85c-1.19,0.33-2.38,0.57-3.61,0.7l0.16-2.25h-5.62v1.64L469,24.4
		c0.7,0.29,3.24,1.11,3.24,1.97c0,0.33-0.86,0.78-1.11,0.86c-0.12,0.86-0.33,1.72-0.49,2.58c-0.9,4.18-4.18,7.46-7.99,9.06
		c-0.16,0.04-0.74,0.33-0.86,0.33c-0.08,0-0.16-0.08-0.16-0.21c0-0.16,0.16-0.29,0.25-0.37c4.06-3.4,5.37-5.37,6.15-10.66
		c0.08-0.62,0.2-1.27,0.2-1.93c0-0.45-0.12-0.94-0.16-1.44c-0.29,0.04-0.61,0.08-0.94,0.12c0.08-1.48,0.21-2.99,0.21-4.51V5.12
		c0-0.49,0-1.02-0.04-1.52c-0.04-0.41-0.12-0.86-0.33-1.23c-0.16-0.21-0.25-0.37-0.25-0.66c0-0.16,0.16-0.25,0.29-0.25
		c0.62,0,3.2,1.23,3.81,1.52H475.56z M475.93,9.72V4.43l-5.62-0.04v5.33H475.93z M475.93,15.09v-4.1h-5.62v4.1H475.93z
		 M475.93,16.56h-5.62v4.47h5.62V16.56z M476.99,38.42c-0.33,0-0.66,0-0.98,0c-1.52-0.04-3.2,0.12-3.2-1.93V26.9
		c0-0.37-0.04-0.78-0.08-1.15c-0.08-0.41-0.45-1.15-0.45-1.39c0-0.16,0.12-0.2,0.29-0.2c0.57,0,2.83,0.7,3.36,0.98
		c0.21,0.12,0.41,0.29,0.41,0.57c0,0.29-0.45,0.62-0.7,0.78v8.04c0,0.94,0.33,0.86,1.15,0.86c0.49,0,1.35,0,1.76-0.33
		c0.78-0.7,1.19-2.87,1.44-3.77c0.12-0.41,0.25-0.82,0.41-1.23c0.04-0.16,0.08-0.33,0.29-0.33c0.12,0,0.21,0.16,0.16,0.29
		c-0.04,0.9-0.12,1.85-0.12,2.79c0,1.56,0.49,1.89,1.72,2.67C481.34,38.34,479.82,38.42,476.99,38.42z"/>
	<path class="st0" d="M497.37,3.48c0-0.57-0.04-1.11-0.12-1.68c-0.04-0.41-0.29-0.86-0.29-1.23c0-0.25,0.25-0.29,0.45-0.29
		c0.82,0,3.85,0.86,3.85,1.76c0,0.37-0.61,0.7-0.9,0.82v10.25h1.72V3.81c-0.04-0.45-0.08-0.9-0.12-1.35
		c-0.04-0.41-0.33-1.35-0.33-1.56c0-0.29,0.25-0.29,0.45-0.29c0.82,0,3.85,0.78,3.85,1.72c0,0.41-0.66,0.7-0.94,0.82V10
		c0.7-1.23,1.35-2.46,1.89-3.81c0.16-0.45,0.33-0.9,0.41-1.39c0-0.08,0.04-0.33,0.12-0.41c0.08-0.04,0.21-0.04,0.29-0.04
		c0.57,0,3.28,2.01,3.28,2.87c0,0.57-1.03,0.53-1.39,0.53c-1.56,1.23-3.08,2.5-4.59,3.73v1.64h1.48c0.21-0.21,1.39-1.64,1.68-1.64
		c0.25,0,2.67,2.13,2.67,2.62c0,0.33-0.37,0.49-0.66,0.49h-6.68c0.66,0.29,3.61,1.35,3.61,2.3c0,0.41-1.02,0.53-1.27,0.62
		l-3.03,3.98l1.93,0.04c0.25-0.21,1.84-1.97,2.05-1.97c0.33,0,2.09,1.97,2.38,2.3c0.16,0.16,0.33,0.37,0.33,0.62
		c0,0.37-0.29,0.45-0.61,0.45h-6.23l-0.45,0.49v3.85h2.01c0.16-0.21,1.68-1.84,1.8-1.84c0.29,0,2.25,1.84,2.58,2.17
		c0.21,0.16,0.33,0.37,0.33,0.61c0,0.37-0.25,0.49-0.57,0.49h-6.15v4.84l6.89-0.57c0.21-0.04,0.53,0.04,0.53,0.33
		c0,0.29-2.09,0.66-2.46,0.74c-2.95,0.74-5.9,1.52-8.81,2.34c-1.93,0.57-3.85,1.11-5.66,1.85l-1.64-4.18c2.67-0.04,5.33-0.08,8-0.21
		l0.04-5.12h-3.44l-0.74,0.53l-1.6-2.21c0.98,0.08,2.05,0.25,2.99,0.25h2.79v-4.35h-4.84l-0.7,0.57l-1.64-2.25
		c0.98,0.08,2.05,0.25,2.99,0.25h6.52c0.78-2.26,1.35-4.51,1.48-6.89h-10.09l-0.74,0.49l-1.56-2.21c0.94,0.08,2.01,0.25,2.99,0.25
		h3.9V3.48z M494.91,11.32c-2.01,0-1.44-2.75-1.64-3.98c-0.25-1.35-0.41-1.56-1.03-2.71c0-0.2,0.12-0.33,0.25-0.33
		c0.53,0,2.46,1.97,2.95,2.46c0.7,0.7,0.98,1.52,0.98,2.46S496.02,11.32,494.91,11.32z M497.95,20.83c-0.41,0-0.86-0.12-1.11-0.45
		c-0.45-0.45-0.45-1.52-0.49-2.05c-0.08-0.74-0.33-1.52-0.7-2.17c-0.08-0.16-0.66-0.94-0.66-1.03c0-0.12,0.08-0.2,0.21-0.2
		c0.08,0,0.57,0.16,0.66,0.16c1.27,0.57,3.69,1.97,3.69,3.61C499.54,19.84,499.26,20.83,497.95,20.83z M511.64,25.62
		c-1.43,0-1.64-1.31-1.64-2.46c0-0.66,0.04-1.31,0.04-2.01c0-0.86-0.12-1.39-0.37-2.21c-0.12-0.37-0.62-1.39-0.62-1.56
		c0-0.08,0-0.21,0.12-0.21c0.7,0,2.95,2.5,3.53,3.16c0.7,0.78,1.07,1.68,1.07,2.71C513.77,24.4,513.16,25.62,511.64,25.62z
		 M512.91,14.23l-0.74,0.57l-1.56-2.26c0.94,0.08,2.01,0.25,2.95,0.25h2.01v-7.5c0-0.49,0.04-2.38-0.08-3.03
		c-0.04-0.08-0.45-1.97-0.45-2.05c0-0.16,0.21-0.21,0.33-0.21c0.86,0,4.47,0.9,4.47,1.89c0,0.41-0.61,0.74-0.94,0.86l-0.04,10.04
		h0.29c0.16-0.25,1.39-1.97,1.72-1.97c0.25,0,0.41,0.16,0.53,0.33l1.89,2.13c0.08,0.12,0.21,0.29,0.21,0.45
		c0,0.29-0.29,0.49-0.57,0.49h-4.06v22.1c0,0.41,0,0.94-0.25,1.31c-0.21,0.37-0.9,0.78-1.27,0.98c-0.94,0.53-2.38,0.66-3.4,0.7
		c-0.08-2.13-1.23-2.5-3.08-3.2c-0.16-0.08-0.33-0.16-0.33-0.37c0-0.25,0.29-0.29,0.45-0.25c0.98,0,1.97,0.08,2.95,0.08
		c1.23,0,1.64-0.41,1.64-1.68V14.23H512.91z"/>
	<path class="st0" d="M554.2,5.37c0.04-0.08,0.16-0.12,0.25-0.12c0.33,0,2.83,0.94,3.28,1.15c0.16,0.04,1.15,0.45,1.15,0.66
		c0,0.41-0.57,0.57-0.9,0.7c-0.53,0.37-0.9,0.74-1.35,1.23c-1.07,1.23-2.25,2.34-3.4,3.48l5.12,0.04c0.16-0.25,1.03-1.43,1.39-1.43
		c0.66,0,2.87,1.93,3.32,2.71c0.08,0.12,0.37,0.57,0.37,0.7c0,0.66-1.52,0.57-1.89,0.57c-1.39,0.12-2.62,0.7-3.69,1.56
		c1.11,0.45,3.44,1.44,3.44,2.91c0,0.94-0.25,2.38-1.48,2.38c-0.49,0-0.9-0.12-1.19-0.53c-0.33-0.45-0.53-0.94-0.78-1.39
		c-0.33-0.7-0.7-1.31-1.11-1.93c-0.33-0.45-0.74-1.02-1.19-1.31c-0.21-0.12-0.45-0.25-0.57-0.45c-0.04-0.21,0.16-0.25,0.21-0.25
		c0.49,0,1.64,0.25,2.13,0.37c0.33-0.82,0.7-1.64,1.02-2.5h-21.2c-0.04,0.49-0.08,0.98-0.16,1.48c-0.16,1.07-1.27,2.09-2.38,2.09
		c-1.02,0-1.8-0.62-1.8-1.68c0-1.11,1.31-2.05,1.97-2.67c0.45-0.45,0.82-1.44,0.86-2.01c0.04-0.12,0.04-0.74,0.21-0.74
		c0.41,0,1.07,1.85,1.19,2.13h14.6C552.64,10.33,554.07,7.79,554.2,5.37z M542.92,28.09c-2.62,2.67-4.63,4.22-7.71,6.27
		c-0.04,0.04-0.12,0.08-0.21,0.08s-0.16-0.08-0.16-0.21c0-0.21,0.82-1.02,0.98-1.23c1.19-1.31,2.3-2.79,3.24-4.31
		c0.86-1.39,1.64-2.71,2.25-4.22c0.16-0.37,0.21-1.64,0.62-1.64c0.12,0,2.34,0.82,2.58,0.9c0.29,0.08,1.72,0.57,1.72,0.94
		c0,0.45-0.74,0.7-1.07,0.82l-0.37,0.37h8.2c0.25-0.25,0.98-1.19,1.39-1.19c0.62,0,3.77,1.8,3.77,2.71c0,0.33-1.35,0.57-1.56,0.57
		c-1.84,1.44-3.57,2.99-5.45,4.35c3.03,1.15,6.23,1.93,9.43,2.46l2.42,0.41c0.2,0,0.25,0.08,0.25,0.29c0,0.33-1.23,0.49-1.48,0.57
		c-1.19,0.33-2.46,1.44-3.12,2.42c-3.48-1.11-6.85-2.67-9.92-4.67c-4.43,2.38-7.3,3.77-12.38,4.43c-0.7,0.08-1.48,0.25-2.17,0.25
		c-0.08,0-0.16-0.16-0.16-0.25c4.96-1.72,8.16-3.12,12.5-6.03C545.14,30.91,544.07,29.6,542.92,28.09z M539.6,18.37
		c0,1.56-0.94,3.53-2.71,3.53c-0.98,0-1.68-0.53-1.68-1.56c0-1.43,2.38-2.21,2.99-3.61c0.21-0.37,0.33-0.78,0.45-1.19
		C539.27,15.42,539.6,17.92,539.6,18.37z M538.58,5.58c-0.41,0-2.38,0.04-2.38-0.29c0-0.16,0.08-0.21,0.25-0.25l2.05-0.25
		c2.05-0.25,4.14-0.49,6.15-0.9c1.68-0.37,7.91-1.44,9.76-2.3c0.12-0.08,1.23-0.66,1.27-0.66c0.45,0,3.03,2.71,3.32,2.99
		c0.16,0.16,0.49,0.45,0.49,0.7c-0.16,0.25-0.33,0.33-0.49,0.33c-0.7-0.04-1.43-0.04-2.17-0.04c-1.44,0-2.87,0.12-4.3,0.21
		c-3.57,0.25-7.13,0.45-10.7,0.45H538.58z M538.62,6.07c0.12,0,2.17,0.66,2.38,0.7c1.56,0.45,2.87,1.56,2.87,3.28
		c0,1.03-0.66,1.68-1.68,1.68c-1.84,0-1.84-2.05-2.3-3.36c-0.33-0.86-0.9-1.35-1.39-2.13C538.45,6.11,538.54,6.07,538.62,6.07z
		 M544.85,19.64c0,0.21,0.04,0.45,0.16,0.62c0.33,0.45,2.05,0.37,2.54,0.37c1.03,0,4.14,0,4.92-0.41c0.9-0.49,1.35-2.79,1.56-3.53
		c0-0.08,0.08-0.12,0.16-0.12c0.25,0,0.37,0.12,0.37,0.37c-0.04,0.37-0.08,0.74-0.08,1.15c0,1.27,0.66,2.05,1.93,2.3
		c-0.33,0.82-0.57,1.44-1.35,1.97c-1.48,1.07-5.74,0.94-7.59,0.94c-1.27,0-4.84,0.12-5.53-1.35c-0.21-0.37-0.25-0.78-0.25-1.19
		v-3.48c0-0.66-0.41-1.64-0.41-1.89c0-0.21,0.08-0.33,0.29-0.33s0.45,0.08,0.66,0.16c0.57,0.21,3.53,0.57,3.53,1.39
		c0,0.33-0.66,0.53-0.9,0.62V19.64z M552.23,27.31h-8.61l-0.12,0.16c1.48,1.52,2.87,2.42,4.71,3.48
		C549.69,29.81,550.96,28.7,552.23,27.31z M545.55,5.9c0.25,0,1.07,0.29,1.31,0.37c1.64,0.57,3.48,1.6,3.48,3.57
		c0,1.07-0.86,1.85-1.89,1.85c-1.6,0-1.56-1.44-1.72-2.62c-0.21-1.52-0.62-1.76-1.39-2.99C545.34,5.99,545.46,5.9,545.55,5.9z
		 M546.61,14.51c0.62,0,1.56,0.29,2.13,0.41c1.19,0.25,2.38,1.15,2.38,2.46c0,0.74-0.78,1.68-1.56,1.68c-2.01,0-1.48-2.34-2.34-3.4
		c-0.29-0.33-0.62-0.62-0.78-0.98C546.41,14.56,546.53,14.51,546.61,14.51z"/>
	<path class="st0" d="M587.78,32.31c0,1.27,0.21,2.62,0.29,3.9c-1.23,0.57-2.5,1.03-3.85,1.27l0.12-2.46h-5.49v1.6
		c-1.15,0.45-2.34,0.74-3.53,1.11c0.08-1.48,0.29-3.03,0.29-4.51V13.37c0-0.94-0.04-1.93-0.21-2.87c-0.08-0.41-0.2-0.9-0.2-1.31
		c0-0.12,0-0.41,0.2-0.41c0.49,0,2.67,1.11,3.2,1.44c0.66-1.84,2.17-6.52,2.17-8.73c0-0.29-0.04-0.62-0.04-0.94
		c0-0.21,0.04-0.45,0.29-0.45c0.41,0,3.65,1.31,4.1,1.68c0.21,0.16,0.45,0.37,0.45,0.66s-0.9,0.57-1.11,0.62
		c-1.43,2.5-2.91,5-4.51,7.42h4.02c0.12-0.16,1.15-1.72,1.48-1.72c0.45,0,2.42,1.39,2.75,1.6c0.25,0.16,0.78,0.53,0.78,0.9
		c0,0.45-0.86,0.98-1.19,1.23V32.31z M584.33,21.77v-9.88h-5l-0.49,0.49v9.39H584.33z M584.33,33.54V23.25h-5.49v10.29H584.33z
		 M598.89,10.46c0.25-0.37,0.86-1.64,1.39-1.64c0.29,0,0.66,0.21,0.9,0.37l2.34,1.44c0.25,0.16,0.57,0.41,0.57,0.74
		c0,0.37-0.98,1.23-1.23,1.44c-0.08,4.1-0.16,8.2-0.16,12.26c0,3.16,0.08,6.4-0.21,9.55c-0.08,0.86-0.25,1.76-0.7,2.5
		c-1.02,1.76-3.4,1.97-5.21,2.13c0-1.35-0.33-2.67-1.68-3.24c-0.21-0.08-1.27-0.45-1.27-0.7c0-0.29,0.21-0.37,0.45-0.37
		c0.94,0,1.85,0.25,2.79,0.25c1.72,0,1.93-0.82,2.01-2.34l0.12-2.3c0.04-0.98,0.04-1.97,0.04-2.95l0.08-15.66h-5.25
		c-0.98,1.97-2.01,4.06-3.4,5.78l-1.35,1.64c-0.08,0.12-0.33,0.41-0.49,0.41c-0.08,0-0.21-0.08-0.21-0.16
		c0-0.29,0.94-2.54,1.03-2.79c1.07-2.67,3.65-12.5,3.65-15.25c0-0.25-0.04-0.49-0.04-0.74c0-0.16,0.12-0.37,0.29-0.37
		c0.41,0,3.77,1.44,4.3,1.8c0.21,0.16,0.49,0.41,0.49,0.7c0,0.41-0.98,0.7-1.27,0.82c-0.78,2.21-1.52,4.47-2.38,6.68H598.89z
		 M590.77,18.49c0.16,0,0.41,0.12,0.53,0.21c1.76,1.11,4.18,3.28,4.18,5.54c0,1.19-0.62,2.5-1.97,2.5c-1.35,0-1.93-1.35-1.93-2.5
		c0-0.7,0.08-1.39,0.08-2.09c0-0.9-0.25-1.44-0.49-2.34c-0.12-0.45-0.57-0.53-0.57-1.15C590.61,18.53,590.65,18.49,590.77,18.49z"/>
	<path class="st0" d="M616.11,19.52l-0.62,0.62l-1.39-2.21c0.74,0.08,1.56,0.21,2.3,0.21H628v-4.18h-7.87l-0.66,0.62l-1.35-2.25
		c0.74,0.08,1.56,0.2,2.3,0.2H628V8.49h-10.13l-0.62,0.61l-1.39-2.21c0.78,0.08,1.56,0.21,2.34,0.21h9.8V3.85
		c0-0.49,0-0.98-0.04-1.48c-0.08-0.53-0.41-1.35-0.41-1.64c0-0.2,0.12-0.37,0.33-0.37c0.7,0,1.72,0.37,2.38,0.53
		c0.62,0.16,2.54,0.62,2.54,1.48c0,0.33-0.98,0.94-1.23,1.11v3.61h7.3c0.29-0.29,1.84-2.13,2.38-2.13c0.25,0,0.82,0.53,0.98,0.7
		c0.41,0.37,2.05,1.64,2.05,2.3c0,0.45-0.41,0.53-0.78,0.53h-11.93v4.02h5.33c0.25-0.25,1.68-1.93,2.17-1.93
		c0.33,0,0.78,0.45,0.98,0.66c0.37,0.37,1.89,1.64,1.89,2.21c0,0.37-0.37,0.49-0.7,0.49h-9.68v4.18h9.63
		c0.29-0.25,1.97-2.13,2.46-2.13c0.29,0,0.57,0.25,0.78,0.45l1.93,1.85c0.16,0.21,0.41,0.45,0.41,0.74c0,0.41-0.37,0.49-0.7,0.49
		h-13.45c0.66,2.67,1.31,4.63,2.42,7.13c0.9-1.03,1.8-2.05,2.62-3.08c0.53-0.66,1.03-1.35,1.23-2.13c0.08-0.21,0.25-1.03,0.53-1.03
		c0.82,0,3.94,2.87,3.94,3.69c0,0.33-0.33,0.45-0.62,0.45c-0.29,0-0.61-0.12-0.94-0.21c-2.09,1.07-4.1,2.26-6.19,3.36
		c1.56,2.5,4.43,6.23,6.81,7.87c0.94,0.61,1.89,1.19,2.83,1.8c0.16,0.12,0.33,0.25,0.33,0.49c0,0.33-1.07,0.21-1.27,0.21
		c-1.48,0-2.83,0.86-4.1,1.6c-2.87-3.2-5.74-6.72-7.05-10.87c-0.49-1.6-0.98-3.28-1.19-5c-0.16-1.44-0.29-2.87-0.49-4.31h-4.35
		c0.57,0.41,2.42,1.48,2.42,2.3c0,0.53-1.11,0.57-1.48,0.62c-0.98,0.9-1.97,1.76-2.95,2.67c0.25,0.16,1.07,0.78,1.07,1.07
		c0,0.37-0.9,0.82-1.15,0.94v6.68c2.21-0.41,4.39-1.02,6.64-1.39c0.33-0.08,0.66-0.16,1.02-0.16c0.12,0,0.33,0.04,0.33,0.21
		c0,0.29-0.86,0.7-1.07,0.82c-1.39,0.82-2.79,1.68-4.18,2.5c-0.78,0.49-1.6,0.98-2.34,1.52c-0.86,0.61-1.64,1.35-2.38,2.05
		l-2.46-4.06c0.82-0.57,0.98-1.19,0.98-2.17v-5.33c-1.11,0.82-6.4,3.98-7.38,3.98c-0.08,0-0.25-0.04-0.25-0.16
		c0-0.29,0.98-0.98,1.19-1.15c1.48-1.15,2.75-2.38,4.02-3.73c1.48-1.52,3.08-3.08,4.26-4.84c0.53-0.74,0.98-1.52,1.48-2.34H616.11z"
		/>
	<path class="st0" d="M684.04,38.01c-2.34,0.53-12.38,0.04-15.54-0.74c-2.09-0.57-5.62-2.05-6.56-3.98c-1.35,1.84-2.71,3.61-6.31,5
		l-0.21-0.37c4.18-3.12,6.03-8.98,6.56-12.63h-2.13c-0.25,0.21-1.27,1.23-1.64,1.07c-0.41-0.16-2.42-1.89-2.21-2.46l1.27-0.94
		c0.7-1.15,2.21-4.02,3.07-6.76c-1.02,0-2.01-0.04-2.99,0.04c-0.53,0.04-1.07,0.41-1.31,0.49l-0.86-1.93l1.68,0.29l3.44-0.04
		l1.52-1.35c0.29-0.25,2.05,1.52,2.62,2.05c0.53,0.57-0.82,1.02-1.19,1.39c-0.9,2.34-2.25,5.29-3.32,6.93h1.64l1.52-1.44
		c0.16-0.16,2.75,2.17,2.91,2.58c0.29,0.37-0.82,0.82-1.07,1.23c-0.94,2.67-1.56,4.39-2.67,6.19c0.9,1.07,4.84,1.68,6.76,1.89
		c3.77,0.41,10.87,0.25,15.38-0.04c0.9-0.04,1.72-0.25,2.42-0.33c0.37-0.04,0.45,0.33,0.08,0.53
		C685.4,35.34,684.41,36.45,684.04,38.01z M657.52,3.2c1.07,0.25,2.75,0.78,3.61,1.27c1.31,0.7,2.46,1.93,2.46,3.57
		c0,1.23-0.94,2.25-2.13,2.3c-1.52,0.08-1.72-1.07-1.84-2.21c-0.21-1.76-0.9-3.4-2.3-4.67C657.19,3.32,657.43,3.2,657.52,3.2z
		 M673.26,8.41l-4.55-0.04l-0.74,0.61l-1.39-2.25c0.86,0.08,1.72,0.21,2.58,0.21h4.14V4.8c0-0.7,0-1.48-0.12-2.17
		c-0.08-0.33-0.45-1.31-0.45-1.52c0-0.16,0.25-0.25,0.41-0.25c0.62,0,3.28,0.9,4.1,1.31c0.29,0.12,0.53,0.37,0.53,0.66
		c0,0.45-0.86,0.98-1.15,1.15v2.95h2.42c0.16-0.16,1.23-1.64,1.64-1.64c0.16,0,0.33,0.04,0.49,0.16c0.12,0.12,2.67,1.89,2.67,2.5
		c0,0.37-0.7,0.41-0.94,0.41h-6.27v3.61h4.35c0.21-0.21,1.52-1.72,1.93-1.72c0.25,0,0.66,0.37,0.82,0.49
		c0.29,0.29,2.05,1.56,2.05,2.21c0,0.33-0.25,0.45-0.53,0.45h-7.71c0.98,0.25,2.05,0.7,2.95,1.19c0.16,0.08,0.33,0.21,0.33,0.45
		c0,0.41-1.07,0.74-1.39,0.82l-2.05,2.91h3.03c0.21-0.21,1.11-1.44,1.56-1.44c0.41,0,2.91,1.89,2.91,2.5c0,0.29-0.33,0.37-0.57,0.37
		h-7.83v2.95h2.09c0.29-0.29,1.39-1.56,1.85-1.56c0.49,0,2.09,1.64,2.38,1.89c0.16,0.16,0.53,0.45,0.53,0.74
		c0,0.33-0.41,0.41-0.66,0.41h-6.19v2.79h4.18c0.16-0.16,1.48-1.64,1.84-1.64c0.41,0,3.12,2.17,3.12,2.71
		c0,0.29-0.29,0.37-0.57,0.37h-8.57v1.8c0,0.86,0.12,1.72,0.16,2.54c-1.23,0.45-2.46,0.74-3.73,1.02c0.2-1.76,0.29-3.61,0.2-5.37
		h-5.86l-0.74,0.62l-1.39-2.26c0.86,0.08,1.72,0.21,2.58,0.21h5.41v-2.79h-4.63l-0.74,0.57L666.33,23c0.82,0.04,1.72,0.16,2.54,0.16
		h4.22v-2.95h-5.45l-0.74,0.61l-1.39-2.25c0.82,0.08,1.72,0.21,2.54,0.21h8c0.41-2.05,0.57-3.28,0.74-5.37h-9.92l-0.74,0.57
		l-1.39-2.21c0.82,0.04,1.72,0.21,2.54,0.21h6.03L673.26,8.41z M669.28,13.57c0.49,0,1.15,0.33,1.64,0.49
		c0.86,0.29,2.5,0.94,2.5,2.09c0,1.19-0.49,2.38-1.84,2.38c-0.33,0-0.62-0.08-0.9-0.29c-1.02-0.74-0.21-2.58-1.19-3.81
		c-0.12-0.16-0.45-0.49-0.45-0.66C669.04,13.61,669.16,13.57,669.28,13.57z"/>
	<path class="st0" d="M27.55,76.84c0-0.49-0.04-0.98-0.08-1.48c-0.08-0.61-0.41-1.39-0.41-1.89c0-0.12,0.08-0.16,0.21-0.16
		c0.82,0,3.57,1.52,4.47,2.01h11.32c0.21-0.29,1.39-1.89,1.85-1.89c0.66,0,1.84,1.35,2.25,1.72c0.25,0.2,0.66,0.66,0.66,1.02
		c0,0.25-0.21,0.45-0.45,0.45H31.61l-0.74,0.53v3.69h9.96c0.25-0.25,1.35-1.8,1.8-1.8c0.33,0,0.7,0.33,0.94,0.53
		c0.33,0.29,2.05,1.6,2.05,2.17c0,0.29-0.21,0.41-0.49,0.41l-14.27,0.04v4.26h10.37c0.21-0.25,1.48-2.01,1.97-2.01
		c0.45,0,2.91,2.3,2.91,2.91c0,0.25-0.25,0.41-0.49,0.41H30.87v4.76h15.42c0.21-0.21,1.84-2.05,2.3-2.05c0.37,0,0.86,0.49,1.11,0.74
		c0.29,0.29,1.84,1.6,1.84,2.21c0,0.25-0.21,0.41-0.45,0.41H36.08c0.94,1.85,2.54,4.8,4.06,6.23c1.27-1.11,3.08-2.87,3.98-4.31
		c0.12-0.16,0.74-1.27,0.9-1.27c0.29,0,3.03,3.03,3.03,3.53c0,0.7-1.23,0.62-1.76,0.62c-1.76,0.78-3.53,1.6-5.29,2.42
		c2.83,2.62,5.74,4.88,9.18,6.64c0.25,0.12,1.19,0.49,1.19,0.86c0,0.33-1.6,0.33-1.93,0.37c-1.48,0.08-2.21,0.82-3.36,1.72
		c-1.07-0.82-2.13-1.64-3.2-2.54c-2.38-2.01-5.41-6.07-6.4-9.06c-0.53-1.68-0.94-3.44-1.31-5.21h-5.41
		c0.41,0.16,1.72,0.62,1.72,1.15c0,0.25-0.94,0.74-1.11,0.86v9.96c1.6-0.41,7.38-2.3,7.46-2.3c0.12,0,0.25,0.08,0.25,0.21
		c0,0.25-1.11,0.98-1.31,1.15c-0.78,0.57-1.64,1.11-2.46,1.68c-2.13,1.48-4.22,3.12-6.27,4.71l-2.05-4.35
		c0.78-0.57,0.82-0.94,0.82-1.89V95.7c0-0.62-0.12-1.19-0.21-1.85h-4.43l-0.74,0.57l-1.64-2.09c0.9,0.08,1.85,0.21,2.71,0.21h5.04
		V76.84z"/>
	<path class="st0" d="M62.16,88.28l-1.48-2.21c0.86,0.04,1.8,0.21,2.62,0.21h10.37c0.29-2.87,0.45-6.23,0.45-9.14
		c0-1.19-0.12-2.38-0.16-3.57c0-0.21-0.33-0.62-0.33-0.86c0-0.2,0.25-0.25,0.41-0.25c0.57,0,4.39,0.82,5,1.19
		c0.16,0.08,0.41,0.16,0.41,0.41c0,0.45-1.02,1.07-1.35,1.31c-0.16,3.65-0.41,7.26-0.7,10.91h9.22c0.25-0.29,1.56-2.09,2.05-2.09
		c0.66,0,1.97,1.56,2.42,2.01c0.21,0.21,0.74,0.78,0.74,1.11c0,0.29-0.49,0.45-0.7,0.45H77.86c0.9,4.88,3.69,10.74,6.97,14.51
		c0.86,1.02,1.84,1.97,2.83,2.87c0.74,0.7,1.43,1.44,2.25,2.01c0.7,0.49,1.48,0.9,2.21,1.31c0.12,0.08,0.25,0.16,0.25,0.29
		c0,0.45-1.07,0.33-1.35,0.33c-1.68,0.04-3.32,0.45-4.67,1.48c-4.96-5.58-7.5-9.8-8.65-17.3c-0.25-1.6-0.33-3.24-0.49-4.88
		c-0.16,1.43-0.41,2.87-0.62,4.3c-0.37,2.3-1.27,4.59-2.3,6.64c-1.19,2.34-2.71,4.43-4.71,6.07c-1.39,1.15-2.87,2.3-4.43,3.28
		c-0.53,0.33-3.16,1.97-3.65,1.97c-0.12,0-0.21-0.12-0.21-0.21c0-0.16,0.16-0.33,0.29-0.41c2.25-1.8,4.1-3.69,5.95-5.9
		c4.02-4.76,5.45-10.29,5.99-16.36H62.93L62.16,88.28z"/>
	<path class="st0" d="M112.67,85.04c-0.94,1.72-2.01,3.4-3.2,4.96c0.37,0.16,2.13,0.94,2.13,1.31c0,0.21-0.66,0.7-0.82,0.82v13.61
		c0,1.07,0.12,2.13,0.21,3.2c-1.19,0.53-2.38,0.9-3.65,1.11c0.08-1.52,0.29-3.08,0.29-4.59V92.42c-1.15,1.27-2.38,2.5-3.69,3.57
		c-0.2,0.16-1.11,0.94-1.31,0.94c-0.12,0-0.25-0.08-0.25-0.21c0-0.25,0.9-1.35,1.07-1.6c1.15-1.64,2.21-3.32,3.07-5.08
		c0.82-1.64,2.01-4.14,2.5-5.86c0.16-0.62,0.29-1.19,0.41-1.76c0.04-0.16,0.16-0.25,0.29-0.25c0.57,0,3.9,1.93,3.9,2.25
		C113.61,84.71,112.87,85,112.67,85.04z M111.48,75.48c-1.6,2.71-4.51,7.09-6.89,9.14c-0.21,0.16-0.86,0.82-1.11,0.82
		c-0.08,0-0.16-0.08-0.16-0.21c0-0.21,0.66-1.27,0.78-1.52c1.27-2.25,3.81-8.28,3.81-10.87c0-0.12,0-0.37,0.21-0.37
		c0.53,0,3.53,1.27,4.06,1.6c0.21,0.12,0.41,0.29,0.41,0.53C112.59,74.95,111.72,75.36,111.48,75.48z M132.14,108.65
		c-0.94,0.25-2.67,1.48-3.4,2.17c-1.56-0.86-5.08-3.81-6.36-5.45c-0.7,0.49-0.98,0.9-1.72,1.39c-2.13,1.44-5.33,2.75-7.83,3.36
		c-0.45,0.12-0.98,0.37-1.43,0.37c-0.08,0-0.21-0.04-0.21-0.16c0-0.41,0.98-0.74,1.31-0.9c3.36-1.72,5.66-3.65,8.16-6.48
		c-0.74-1.52-2.21-3.12-2.79-4.71c-1.56,2.05-2.91,3.57-4.88,5.17c-0.12,0.04-0.66-0.12-0.53-0.37c2.17-3.65,3.85-6.81,4.88-10.66
		c0.04-0.08,0.04-0.25,0.08-0.45c-0.74,0.25-1.56,0.78-2.38,1.23l-2.13-4.35c0.74-0.21,2.05-0.12,2.79-0.45
		c2.3-1.11,5.04-2.95,7.3-4.76c-2.46,0.57-4.59,0.86-6.97,1.76l-1.72-3.77c2.87-1.44,6.48-4.72,8.16-7.87
		c0.12-0.21,0.33-1.15,0.41-1.76c0.04-0.53,3.57,2.21,4.02,2.58c0.25,0.25,0.41,0.37,0.41,0.74c0,0.33-1.23,0.62-1.48,0.7
		c-2.13,1.76-5.66,4.43-8.49,6.03h1.44c1.72,0,3.53,0.25,5.21,0.21c0.9-0.61,1.93-1.72,2.75-2.67c0.49-0.57,0.49-1.39,0.74-2.09
		c0.04-0.08,0.08-0.29,0.21-0.29c0.41,0,4.02,3.08,4.02,3.61c0,0.41-0.94,0.49-1.23,0.53c-4.22,3.32-10.17,6.6-12.3,7.54
		c2.09,0.12,6.31-0.16,8.41-0.16h1.97c-0.86-1.6-0.86-1.68-2.09-3.03c-0.08-0.08-0.21-0.21-0.21-0.33c0-0.08,0.49-0.12,0.53-0.12
		c1.6,0.57,4.96,2.62,5.49,3.98c0.29,0.66,0.66,1.31,0.66,1.97c0,0.86-0.74,1.52-1.6,1.52c-1.19,0-1.8-1.89-2.25-2.79l-10.04,1.76
		c0.45,0.16,0.86,0.29,0.94,0.33c0.25,0.12,1.85,0.61,1.85,0.98c0,0.33-0.94,0.78-1.19,0.86l-0.41,0.66l5.37-0.04
		c0.21-0.21,1.07-1.23,1.31-1.23c0.53,0,2.13,1.39,2.54,1.68c0.29,0.2,0.86,0.66,0.86,1.02c0,0.41-1.02,0.78-1.31,0.94
		c-1.23,2.46-2.79,4.26-4.47,6.44c1.48,1.31,6.15,3.73,7.5,4.22c0.33,0.08,1.35,0.33,1.35,0.7
		C133.37,108.45,132.39,108.61,132.14,108.65z M119.43,95.9l-0.7,1.15c0.78,1.52,2.58,3.2,3.44,4.14c1.11-1.6,2.62-3.44,3.32-5.29
		H119.43z"/>
	<path class="st0" d="M170.64,86.39v7.67l0.25,1.97l-3.65,0.7l0.25-2.46v-8.57h-8.57l-0.49,0.49v7.71l0.12,2.79l-3.44,0.66
		l0.29-3.44v-9.35c-0.29,0.33-2.21,2.42-2.62,2.42c-0.08,0-0.16-0.08-0.16-0.16c0-0.21,0.57-1.03,0.7-1.23
		c0.21-0.37,0.45-0.7,0.66-1.07h-3.81v7.09c0.53-0.25,4.31-2.09,4.43-2.09s0.25,0.08,0.25,0.25c0,0.21-4.14,3.73-4.67,4.18v14.43
		c0,0.45-0.08,0.9-0.25,1.31c-0.41,1.07-2.75,1.56-3.77,1.64v-0.9c-0.08-0.78-1.15-2.01-1.84-2.34c-0.16-0.08-1.23-0.45-1.23-0.66
		s0.12-0.29,0.33-0.25c0.94,0.08,1.84,0.21,2.79,0.21c0.78,0,0.86-0.12,0.86-0.94v-9.72c-0.9,0.86-1.85,1.64-2.58,2.62l-1.97-4.51
		c1.52-0.33,3.16-0.98,4.55-1.72V84.5h-2.25l-0.74,0.53l-1.44-2.21c1.44,0.21,2.99,0.33,4.43,0.25v-7.46c0-0.45,0-0.94-0.04-1.39
		c-0.08-0.53-0.53-1.07-0.53-1.48c0-0.2,0.25-0.25,0.41-0.25c0.74,0,4.63,0.94,4.63,1.76c0,0.41-1.07,0.9-1.35,1.07v7.75
		c0.29-0.21,1.27-1.52,1.56-1.52c0.33,0,1.8,1.72,2.46,2.54c1.43-2.46,2.67-5.33,3.69-7.87c0.53-1.35,0.9-2.46,1.15-3.85
		c0.04-0.16,0.04-0.33,0.16-0.41c0.08-0.04,0.16-0.04,0.21-0.04c0.78,0,4.43,1.85,4.43,2.34c0,0.21-1.23,0.82-1.39,0.9l-1.07,1.68
		l2.99,0.04c0.25-0.25,1.23-1.35,1.64-1.35c0.29,0,3.16,1.85,3.16,2.54c0,0.57-1.07,0.98-1.43,1.19c-0.78,0.37-4.14,4.72-4.39,5
		h3.94c0.25-0.33,0.78-1.31,1.27-1.31c0.45,0,3.12,1.84,3.12,2.34C171.63,85.74,170.93,86.15,170.64,86.39z M174.04,99.72h-9.35
		c1.11,2.67,2.87,4.96,4.96,6.89c1.43,1.31,2.91,2.3,4.55,3.24c0.08,0.04,0.12,0.16,0.12,0.25c0,0.29-1.07,0.21-1.31,0.21
		c-1.39,0.04-2.46,0.57-3.57,1.35c-1.39-1.48-2.99-3.36-3.85-5.21c-0.45-0.98-1.03-2.09-1.23-3.2c-0.25-1.15-0.37-2.34-0.53-3.53
		c-0.16,0.82-0.37,1.64-0.62,2.46c-0.33,0.98-1.11,2.13-1.72,2.99c-1.15,1.56-3.08,2.75-4.76,3.65c-1.89,0.98-3.81,1.89-5.86,2.38
		c-0.33,0.08-0.74,0.29-1.07,0.29c-0.16,0-0.16-0.12-0.16-0.25c0-0.08,0.08-0.12,0.12-0.16c1.19-0.61,2.38-1.23,3.53-1.93
		c2.71-1.68,6.11-5.04,6.93-8.2l0.33-1.23h-5.94l-0.66,0.53l-1.52-2.21l2.87,0.21h5.62c0.16-0.86,0.29-2.05,0.08-2.95
		c-0.04-0.25,0-0.41-0.08-0.57c0.21-0.04,0.37-0.21,0.62-0.12c1.07,0.21,2.62,0.41,3.28,0.94c0.25,0.16,0.37,0.53,0.41,0.62
		c-0.16,0.08-0.12,0.33-0.57,0.33c-0.33,0.37-0.53,1.31-0.7,1.76h6.68c0,0,1.19-1.68,1.64-1.68c0.53,0,1.48,1.35,1.8,1.72
		c0.16,0.25,0.53,0.7,0.53,1.02C174.62,99.59,174.29,99.72,174.04,99.72z M160.35,78.31c-1.23,1.64-2.42,3.28-3.73,4.84l2.83,1.11
		h2.17c0.94-1.93,1.76-3.94,2.58-5.95H160.35z M165.97,94.76c-0.7-0.04-1.43-0.82-1.68-1.93c-0.33-1.23-0.04-1.15-0.78-2.09
		c-0.74,1.52-2.95,4.55-4.71,5.04c-0.08,0.04-0.21-0.25-0.16-0.33c2.21-3.28,2.75-5.49,2.71-7.34c0-0.45-0.04-0.94-0.16-1.39
		c0-0.08-0.16-0.53-0.16-0.57c0-0.25,0.12-0.29,0.33-0.29c0.37,0,2.99,0.7,3.49,0.86c0.25,0.12,0.53,0.29,0.53,0.57
		c0,0.29-0.57,0.66-0.82,0.78c0,0.7-0.66,0.98-0.82,1.72c1.07,0.12,3.57,0.94,3.57,3.28C167.28,93.94,166.91,94.84,165.97,94.76z"/>
	<path class="st0" d="M192.37,79.38c-2.17,0.45-4.35,0.74-6.52,1.07c-0.12,0-0.25,0-0.25-0.16c0-0.33,0.98-0.53,1.23-0.62
		c1.68-0.61,3.28-1.48,4.88-2.3c1.03-0.53,3.53-1.8,4.31-2.71c0.12-0.12,0.7-0.86,0.9-0.86c0.29,0,3.36,3.03,3.36,3.69
		c0,0.29-0.74,0.33-0.94,0.37c-1.48,0.29-2.95,0.61-4.39,0.98c0.29,0.08,1.8,0.45,1.8,0.94c0,0.45-0.66,0.66-1.02,0.86v6.11
		l6.03,0.04c-0.25-3.73-0.29-7.46-0.41-11.19c0-0.61-0.08-1.27-0.25-1.84c-0.12-0.25-0.37-0.7-0.37-0.94c0-0.2,0.08-0.33,0.29-0.33
		c0.29,0,1.8,0.45,2.13,0.53c0.53,0.12,2.79,0.74,2.79,1.39c0,0.41-0.7,0.86-0.98,1.02c-0.08,1.27-0.12,2.58-0.12,3.85
		c0,2.5,0.16,5,0.29,7.5H210c0.12-0.12,1.93-1.97,2.21-1.97c0.33,0,2.79,2.46,2.79,2.99c0,0.37-0.57,0.45-0.82,0.45h-9.02
		c0.12,2.87,0.53,5.58,1.23,8.36c0.78-1.44,2.62-4.8,2.62-6.4c0-0.08,0.04-0.21,0.08-0.33c0.61,0,3.53,1.52,4.06,2.01
		c0.12,0.12,0.25,0.29,0.25,0.49c0,0.25-0.78,0.57-0.98,0.66c-1.48,2.42-2.91,4.96-4.76,7.13c0.94,1.85,1.52,2.87,3.08,4.22
		c0.25,0.21,0.66,0.53,0.98,0.53c0.66,0,2.13-3.81,2.42-4.51c0.04-0.16,0.08-0.21,0.25-0.21c0.12,0,0.21,0.12,0.16,0.21
		c-0.25,1.64-0.53,3.85-0.53,5.54c0,1.23,0.61,2.34,0.61,3.53c0,0.66-0.41,0.94-0.98,0.94c-1.64,0-4.59-2.62-5.82-3.73
		c-1.07-0.98-2.01-2.46-2.71-3.73c-2.5,2.01-4.67,3.36-7.54,4.84c-0.16,0.08-0.37,0.16-0.53,0.16c-0.12,0-0.21-0.04-0.21-0.12
		c0-0.21,0.25-0.37,0.33-0.45c2.58-2.13,4.92-4.26,6.77-7.05c-1.31-3.94-1.85-8-2.13-12.09h-6.07v6.11c0.82-0.25,1.6-0.41,2.42-0.62
		c0.21-0.08,2.46-0.7,2.5-0.7c0.16,0,0.29,0.16,0.29,0.33c0,0.08-0.08,0.16-0.16,0.21c-1.64,0.94-3.36,1.72-5.04,2.58v12.01
		c0,1.31-0.94,1.97-2.13,2.21c-0.9,0.21-1.85,0.33-2.79,0.53c-0.04-0.37-0.08-0.7-0.16-0.98c-0.25-0.98-1.27-1.93-2.13-2.3
		c-0.2-0.04-1.23-0.37-1.23-0.57s0.08-0.37,0.33-0.33c0.86,0.08,1.68,0.25,2.54,0.25c0.66,0,2.21,0.08,2.21-0.86v-8.16
		c-1.93,0.98-3.9,1.97-5.66,3.24l-2.01-4.59c2.58-0.33,5.12-0.86,7.67-1.52v-6.85h-5.82l-0.94,0.45l-1.31-2.13
		c0.7,0.04,1.48,0.21,2.13,0.21h5.95V79.38z M210.21,82.74c-2.17,0-1.8-2.01-2.01-3.49c-0.08-0.61-0.66-1.97-1.03-2.42l-0.74-0.82
		c-0.04-0.25,0.12-0.33,0.25-0.33c0.86,0,2.05,0.57,2.83,0.94c1.35,0.66,2.83,2.17,2.83,3.73
		C212.34,81.59,211.48,82.74,210.21,82.74z"/>
	<path class="st0" d="M243.42,95.08v7.22c0,1.6,0.12,3.24,0.16,4.84c-1.23,0.45-2.54,0.86-3.89,1.07c0.08-1.6,0.25-3.24,0.25-4.84
		v-8.28h-7.05c-0.25,6.6-0.7,9.84-6.48,14.06c-0.16,0.12-0.98,0.78-1.15,0.78c-0.12,0-0.21-0.12-0.21-0.21
		c0-0.12,0.08-0.21,0.12-0.29c1.07-1.27,1.6-2.09,2.42-3.57c1.56-2.83,1.89-7.13,1.89-10.37V77.45c0-0.9-0.04-1.72-0.29-2.58
		c-0.04-0.21-0.45-1.27-0.45-1.35c0-0.16,0.08-0.21,0.25-0.21c0.98,0,4.1,1.72,5.04,2.3h16.24c0.29-0.41,0.9-1.64,1.52-1.64
		c0.66,0,2.25,1.23,2.71,1.52c0.25,0.16,0.74,0.49,0.74,0.82c0,0.57-0.74,0.9-1.15,1.19v29.68c0,0.62-0.08,1.35-0.37,1.93
		c-0.74,1.39-3.12,1.64-4.47,1.8c-0.16-1.44-0.66-2.54-2.09-3.12c-0.21-0.04-1.39-0.45-1.39-0.62c0-0.29,0.16-0.37,0.45-0.37
		c0.94,0.08,1.89,0.21,2.83,0.21c0.86,0,1.6-0.08,1.6-1.15V95.08H243.42z M239.93,93.77v-7.58h-6.89l-0.12,7.58H239.93z
		 M239.93,84.83v-7.87h-6.19l-0.7,0.53L233,84.83H239.93z M250.63,84.83v-7.87h-6.6l-0.62,0.66v7.22H250.63z M250.63,93.77v-7.58
		h-7.22v7.58H250.63z"/>
	<path class="st0" d="M267.98,97.01l-0.66,0.61l-1.27-2.21c0.74,0.04,1.52,0.16,2.25,0.16h11.52v-0.86c0-0.57-0.04-1.56-0.25-2.09
		c-0.08-0.12-0.37-0.61-0.37-0.74c0-0.29,0.45-0.29,0.66-0.29c0.86,0,4.35,0.86,4.35,1.48c0,0.37-0.74,0.82-1.02,0.94v1.56h9.1
		c0.37-0.37,1.39-1.76,1.97-1.76c0.45,0,1.97,1.48,2.38,1.8c0.21,0.21,0.57,0.53,0.57,0.86c0,0.33-0.29,0.53-0.57,0.53h-12.5
		c0.41,0.57,0.86,1.11,1.31,1.64c0.9,1.11,3.2,2.67,4.39,3.48c2.05,1.35,4.18,2.58,6.52,3.36c0.25,0.08,1.11,0.29,1.11,0.57
		c0,0.25-0.82,0.37-1.02,0.41c-1.35,0.33-2.5,1.23-3.61,2.09c-1.48-0.86-2.87-1.97-4.14-3.12c-2.95-2.67-4.02-4.84-5.49-8.45v9.64
		c0,1.19,0.12,2.46,0.21,3.69c-1.23,0.37-2.54,0.61-3.81,0.82c0.08-1.31,0.25-2.71,0.25-4.06v-6.85c-1.48,1.39-2.99,2.71-4.55,3.98
		c-2.05,1.64-5.95,3.28-8.36,4.26c-0.25,0.12-0.86,0.41-1.11,0.41c-0.08,0-0.16-0.08-0.16-0.16c0-0.25,0.7-0.66,0.86-0.78
		c3.32-2.26,8.65-7.5,10.74-10.95H267.98z M275.03,75.57c0-0.61-0.08-1.8-0.41-2.34c-0.08-0.16-0.16-0.33-0.16-0.53
		c0-0.16,0.16-0.2,0.33-0.2c0.62,0,3.98,0.9,4.43,1.19c0.16,0.12,0.41,0.29,0.41,0.49c0,0.25-1.03,0.98-1.19,1.11v2.71h6.27v-2.38
		c0-0.61-0.08-1.31-0.21-1.93c-0.08-0.33-0.33-0.66-0.33-0.98c0-0.2,0.04-0.29,0.25-0.29c0.25,0,0.53,0.08,0.78,0.16
		c0.29,0.08,3.98,0.82,3.98,1.64c0,0.33-0.94,0.9-1.19,1.07v2.71h4.59c0.29-0.29,1.39-1.8,1.97-1.8c0.25,0,0.49,0.12,0.7,0.29
		l1.84,1.6c0.25,0.25,0.49,0.53,0.49,0.86c0,0.41-0.45,0.49-0.78,0.49h-8.81l0.12,1.93c-1.19,0.37-2.42,0.61-3.61,0.86l0.21-2.79
		h-6.27v1.93c0,0.57,0.08,1.15,0.12,1.72c-1.19,0.37-2.42,0.66-3.69,0.9c0.08-0.78,0.16-1.64,0.16-2.42v-2.13h-6.48l-0.62,0.7
		l-1.43-2.34c0.82,0.08,1.68,0.2,2.5,0.2h6.03V75.57z M288.23,85.94l-3.4,0.37c-2.79,0.29-5.58,0.57-8.36,0.57
		c-1.84,0-3.65-0.08-5.49-0.16c-0.21,0-1.31,0.08-1.31-0.25c0-0.37,0.94-0.37,1.19-0.37c3.28-0.41,15.29-2.67,17.79-4.31h0.2
		c0.33,0,3.32,2.95,3.32,3.57c0,0.66-1.97,0.41-2.46,0.41S288.68,85.9,288.23,85.94z M271.34,87.29c0.04,0,0.12,0.04,0.21,0.04
		c1.93,0.66,4.55,2.21,4.55,4.55c0,1.07-0.82,2.21-2.01,2.21c-0.74,0-1.43-0.57-1.6-1.31c-0.25-1.19,0-2.42-0.41-3.61
		c-0.16-0.41-0.98-1.6-0.98-1.72C271.17,87.33,271.26,87.29,271.34,87.29z M279.91,87.09c0.53,0,2.01,0.45,2.5,0.62
		c1.19,0.33,1.8,1.07,1.8,2.3c0,0.98-0.94,1.97-1.93,1.97c-1.6,0-1.23-2.3-1.64-3.32c-0.25-0.61-1.03-1.23-1.03-1.39
		C279.62,87.13,279.83,87.09,279.91,87.09z M286.3,94.35c-0.12-0.66,3.49-5.74,3.81-8.16c0.04-0.04,0.16-0.04,0.21-0.04
		c0.49,0,4.22,1.68,4.22,2.21c0,0.45-1.02,0.61-1.35,0.74C292.45,89.71,286.92,94.3,286.3,94.35z"/>
	<path class="st0" d="M316.56,75.94c1.39,0.66,4.55,2.05,4.67,3.77c0.04,0.16,0.04,0.29,0.04,0.41c0,1.02-0.57,2.09-1.72,2.09
		c-0.7,0-1.11-0.45-1.27-1.07c-0.53-1.85-0.94-2.91-2.17-4.43c-0.66,1.11-1.31,2.3-1.97,3.4c1.23,0.61,3.08,1.52,3.08,3.12
		c0,0.86-0.78,1.8-1.68,1.8c-1.35,0-1.23-1.52-1.23-2.42c0-0.7-0.21-1.35-0.53-1.93c-0.82,1.35-1.72,2.58-2.75,3.81l2.91,1.52h2.62
		c0.12-0.21,0.9-1.35,1.19-1.35c0.41,0,2.91,1.85,2.91,2.17c0,0.33-0.86,0.78-1.11,0.94V95c0,0.94,0.04,1.89,0.08,2.83
		c-0.94,0.37-1.97,0.66-2.95,0.82l0.08-1.68h-3.53v7.58c1.15-0.41,2.3-0.82,3.44-1.31c-0.33-0.94-0.9-1.68-1.31-2.58
		c0.04-0.12,0.21-0.25,0.33-0.25c0.16,0,1.35,0.9,1.48,1.03c1.56,1.11,2.95,2.5,2.95,4.51c0,0.78-0.49,1.93-1.43,1.93
		c-1.93,0-1.64-2.01-1.76-3.32c-1.89,1.39-3.73,2.87-5.49,4.39l-2.25-3.49c0.86-0.33,1.23-1.07,1.23-1.97V88.4
		c0-0.98-0.16-2.01-0.29-2.99c-0.41,0.41-2.67,2.75-2.95,2.75c-0.12,0-0.16-0.12-0.16-0.25c0-0.25,1.44-2.67,1.68-3.03
		c1.56-2.62,4.51-9.23,4.71-12.34c0.04-0.04,0.12-0.08,0.21-0.08c0.12,0,3.77,1.6,4.02,1.76c0.21,0.12,0.37,0.33,0.37,0.53
		c0,0.37-0.9,0.7-1.15,0.78L316.56,75.94z M316.77,87.46h-2.95l-0.57,0.66v2.46h3.53V87.46z M316.77,92.05h-3.53v3.48h3.53V92.05z
		 M322.51,87.83l-0.7,0.49l-1.44-2.17c0.82,0.08,1.8,0.21,2.62,0.21h3.12c0.9-1.15,1.76-2.99,1.93-4.43c0.08,0,0.16-0.04,0.21-0.04
		c0.45,0,4.26,1.6,4.26,2.09c0,0.53-0.7,0.74-1.19,0.9c-0.45,0.57-0.98,1.07-1.27,1.48l3.49-0.04c0.25-0.21,1.72-1.89,2.13-1.89
		c0.21,0,0.66,0.45,0.78,0.57c0.33,0.37,2.01,1.93,2.01,2.38c0,0.25-0.16,0.37-0.41,0.37l-9.14,0.04c-1.03,1.31-1.93,2.01-3.12,3.2
		l0.9,0.61h5c0.29-0.33,1.11-1.56,1.52-1.56c0.33,0,2.42,1.56,2.83,1.8c0.16,0.12,0.45,0.37,0.45,0.61c0,0.37-0.9,0.94-1.15,1.15
		v13.41c0,0.94-0.53,2.21-1.07,2.67c-0.9,0.74-1.76,0.82-3.53,0.82c-0.25-1.44-0.37-2.26-1.76-2.95c-0.16-0.12-1.23-0.53-1.23-0.74
		c0-0.16-0.04-0.2,0.12-0.2c0.78,0,2.05,0.29,2.99,0.29c0.53,0,1.44,0.21,1.48-1.19v-2.54h-6.52v1.89c0,1.31,0.08,2.67,0.12,3.98
		c-1.19,0.37-2.34,0.74-3.57,1.02c0.08-1.6,0.49-2.99,0.49-4.59l-0.04-11.69c0,0.04-2.79,2.34-2.95,2.34
		c-0.08,0-0.16-0.12-0.16-0.21c2.17-2.71,4.59-6.15,5.62-8.08H322.51z M336.04,76.59c-0.62,0.33-2.01,1.8-2.79,2.26
		c1.97,0.78,4.55,2.67,4.1,4.18c-0.16,0.66-1.44,1.07-2.26,0.82c-1.15-0.37-3.73-2.83-5.12-3.53c-2.5,1.39-6.89,3.32-9.96,3.48
		c-0.04,0-0.08-0.12-0.08-0.21c2.71-0.98,6.89-3.53,8.08-4.43c-0.86-0.61-5.04-2.95-6.6-3.48c0.12-0.12,0-0.21,0.08-0.16
		c2.38,0.25,6.93,1.44,8.69,2.01c1.19-1.07,2.95-3.08,3.49-4.55c0.04-0.04,0.08-0.08,0.16-0.04c0.37,0.08,4.02,2.3,3.85,3.08
		C337.55,76.55,336.36,76.67,336.04,76.59z M332.35,96.52v-3.44h-6.07l-0.45,0.45v3.03L332.35,96.52z M332.35,101.68v-3.69h-6.52
		v3.73L332.35,101.68z"/>
	<path class="st0" d="M366.17,94.39c-0.49,1.02-2.3,3.24-3.65,3.77c-0.25,0.12-0.53,0.08-0.66-0.12c-0.08-0.16-0.08-0.37,0.16-0.57
		c1.07-1.11,1.76-2.26,2.09-3.65c0.04-0.25,0-0.45-0.29-0.49c-0.82-0.12-1.43-0.29-2.01-0.94c-0.57-0.61-0.78-1.48-0.74-2.25
		c0-1.02,0.49-1.8,1.35-2.34c0.94-0.57,1.8-0.62,2.75-0.16c0.9,0.45,1.43,1.27,1.68,2.25C367.2,91.39,366.83,93.07,366.17,94.39z"/>
	<path class="st0" d="M390.61,91.52l-0.62,0.62l-1.39-2.21c0.74,0.08,1.56,0.21,2.3,0.21h11.6v-4.18h-7.87l-0.66,0.62l-1.35-2.25
		c0.74,0.08,1.56,0.2,2.3,0.2h7.58v-4.02h-10.13l-0.62,0.61l-1.39-2.21c0.78,0.08,1.56,0.21,2.34,0.21h9.8v-3.24
		c0-0.49,0-0.98-0.04-1.48c-0.08-0.53-0.41-1.35-0.41-1.64c0-0.2,0.12-0.37,0.33-0.37c0.7,0,1.72,0.37,2.38,0.53
		c0.62,0.16,2.54,0.62,2.54,1.48c0,0.33-0.98,0.94-1.23,1.11v3.61h7.3c0.29-0.29,1.84-2.13,2.38-2.13c0.25,0,0.82,0.53,0.98,0.7
		c0.41,0.37,2.05,1.64,2.05,2.3c0,0.45-0.41,0.53-0.78,0.53h-11.93v4.02h5.33c0.25-0.25,1.68-1.93,2.17-1.93
		c0.33,0,0.78,0.45,0.98,0.66c0.37,0.37,1.89,1.64,1.89,2.21c0,0.37-0.37,0.49-0.7,0.49h-9.68v4.18h9.63
		c0.29-0.25,1.97-2.13,2.46-2.13c0.29,0,0.57,0.25,0.78,0.45l1.93,1.85c0.16,0.21,0.41,0.45,0.41,0.74c0,0.41-0.37,0.49-0.7,0.49
		h-13.45c0.66,2.67,1.31,4.63,2.42,7.13c0.9-1.03,1.8-2.05,2.62-3.08c0.53-0.66,1.03-1.35,1.23-2.13c0.08-0.21,0.25-1.03,0.53-1.03
		c0.82,0,3.94,2.87,3.94,3.69c0,0.33-0.33,0.45-0.62,0.45c-0.29,0-0.61-0.12-0.94-0.21c-2.09,1.07-4.1,2.26-6.19,3.36
		c1.56,2.5,4.43,6.23,6.81,7.87c0.94,0.61,1.89,1.19,2.83,1.8c0.16,0.12,0.33,0.25,0.33,0.49c0,0.33-1.07,0.21-1.27,0.21
		c-1.48,0-2.83,0.86-4.1,1.6c-2.87-3.2-5.74-6.72-7.05-10.87c-0.49-1.6-0.98-3.28-1.19-5c-0.16-1.44-0.29-2.87-0.49-4.31h-4.35
		c0.57,0.41,2.42,1.48,2.42,2.3c0,0.53-1.11,0.57-1.48,0.62c-0.98,0.9-1.97,1.76-2.95,2.67c0.25,0.16,1.07,0.78,1.07,1.07
		c0,0.37-0.9,0.82-1.15,0.94v6.68c2.21-0.41,4.39-1.02,6.64-1.39c0.33-0.08,0.66-0.16,1.02-0.16c0.12,0,0.33,0.04,0.33,0.21
		c0,0.29-0.86,0.7-1.07,0.82c-1.39,0.82-2.79,1.68-4.18,2.5c-0.78,0.49-1.6,0.98-2.34,1.52c-0.86,0.61-1.64,1.35-2.38,2.05
		l-2.46-4.06c0.82-0.57,0.98-1.19,0.98-2.17v-5.33c-1.11,0.82-6.4,3.98-7.38,3.98c-0.08,0-0.25-0.04-0.25-0.16
		c0-0.29,0.98-0.98,1.19-1.15c1.48-1.15,2.75-2.38,4.02-3.73c1.48-1.52,3.08-3.08,4.26-4.84c0.53-0.74,0.98-1.52,1.48-2.34H390.61z"
		/>
	<path class="st0" d="M458.54,110.01c-2.34,0.53-12.38,0.04-15.54-0.74c-2.09-0.57-5.62-2.05-6.56-3.98c-1.35,1.84-2.71,3.61-6.31,5
		l-0.21-0.37c4.18-3.12,6.03-8.98,6.56-12.63h-2.13c-0.25,0.21-1.27,1.23-1.64,1.07c-0.41-0.16-2.42-1.89-2.21-2.46l1.27-0.94
		c0.7-1.15,2.21-4.02,3.07-6.76c-1.02,0-2.01-0.04-2.99,0.04c-0.53,0.04-1.07,0.41-1.31,0.49l-0.86-1.93l1.68,0.29l3.44-0.04
		l1.52-1.35c0.29-0.25,2.05,1.52,2.62,2.05c0.53,0.57-0.82,1.02-1.19,1.39c-0.9,2.34-2.25,5.29-3.32,6.93h1.64l1.52-1.44
		c0.16-0.16,2.75,2.17,2.91,2.58c0.29,0.37-0.82,0.82-1.07,1.23c-0.94,2.67-1.56,4.39-2.67,6.19c0.9,1.07,4.84,1.68,6.76,1.89
		c3.77,0.41,10.87,0.25,15.38-0.04c0.9-0.04,1.72-0.25,2.42-0.33c0.37-0.04,0.45,0.33,0.08,0.53
		C459.9,107.34,458.91,108.45,458.54,110.01z M432.02,75.2c1.07,0.25,2.75,0.78,3.61,1.27c1.31,0.7,2.46,1.93,2.46,3.57
		c0,1.23-0.94,2.25-2.13,2.3c-1.52,0.08-1.72-1.07-1.84-2.21c-0.21-1.76-0.9-3.4-2.3-4.67C431.69,75.32,431.93,75.2,432.02,75.2z
		 M447.76,80.41l-4.55-0.04l-0.74,0.61l-1.39-2.25c0.86,0.08,1.72,0.21,2.58,0.21h4.14V76.8c0-0.7,0-1.48-0.12-2.17
		c-0.08-0.33-0.45-1.31-0.45-1.52c0-0.16,0.25-0.25,0.41-0.25c0.62,0,3.28,0.9,4.1,1.31c0.29,0.12,0.53,0.37,0.53,0.66
		c0,0.45-0.86,0.98-1.15,1.15v2.95h2.42c0.16-0.16,1.23-1.64,1.64-1.64c0.16,0,0.33,0.04,0.49,0.16c0.12,0.12,2.67,1.89,2.67,2.5
		c0,0.37-0.7,0.41-0.94,0.41h-6.27v3.61h4.35c0.21-0.21,1.52-1.72,1.93-1.72c0.25,0,0.66,0.37,0.82,0.49
		c0.29,0.29,2.05,1.56,2.05,2.21c0,0.33-0.25,0.45-0.53,0.45h-7.71c0.98,0.25,2.05,0.7,2.95,1.19c0.16,0.08,0.33,0.21,0.33,0.45
		c0,0.41-1.07,0.74-1.39,0.82l-2.05,2.91h3.03c0.21-0.21,1.11-1.44,1.56-1.44c0.41,0,2.91,1.89,2.91,2.5c0,0.29-0.33,0.37-0.57,0.37
		h-7.83v2.95h2.09c0.29-0.29,1.39-1.56,1.85-1.56c0.49,0,2.09,1.64,2.38,1.89c0.16,0.16,0.53,0.45,0.53,0.74
		c0,0.33-0.41,0.41-0.66,0.41h-6.19v2.79h4.18c0.16-0.16,1.48-1.64,1.84-1.64c0.41,0,3.12,2.17,3.12,2.71
		c0,0.29-0.29,0.37-0.57,0.37h-8.57v1.8c0,0.86,0.12,1.72,0.16,2.54c-1.23,0.45-2.46,0.74-3.73,1.02c0.2-1.76,0.29-3.61,0.2-5.37
		h-5.86l-0.74,0.62l-1.39-2.26c0.86,0.08,1.72,0.21,2.58,0.21h5.41v-2.79h-4.63l-0.74,0.57L440.83,95c0.82,0.04,1.72,0.16,2.54,0.16
		h4.22v-2.95h-5.45l-0.74,0.61l-1.39-2.25c0.82,0.08,1.72,0.21,2.54,0.21h8c0.41-2.05,0.57-3.28,0.74-5.37h-9.92l-0.74,0.57
		l-1.39-2.21c0.82,0.04,1.72,0.21,2.54,0.21h6.03L447.76,80.41z M443.78,85.57c0.49,0,1.15,0.33,1.64,0.49
		c0.86,0.29,2.5,0.94,2.5,2.09c0,1.19-0.49,2.38-1.84,2.38c-0.33,0-0.62-0.08-0.9-0.29c-1.02-0.74-0.21-2.58-1.19-3.81
		c-0.12-0.16-0.45-0.49-0.45-0.66C443.54,85.61,443.66,85.57,443.78,85.57z"/>
	<path class="st0" d="M476.87,75.48c0-0.57-0.04-1.11-0.12-1.68c-0.04-0.41-0.29-0.86-0.29-1.23c0-0.25,0.25-0.29,0.45-0.29
		c0.82,0,3.85,0.86,3.85,1.76c0,0.37-0.61,0.7-0.9,0.82v10.25h1.72v-9.31c-0.04-0.45-0.08-0.9-0.12-1.35
		c-0.04-0.41-0.33-1.35-0.33-1.56c0-0.29,0.25-0.29,0.45-0.29c0.82,0,3.85,0.78,3.85,1.72c0,0.41-0.66,0.7-0.94,0.82V82
		c0.7-1.23,1.35-2.46,1.89-3.81c0.16-0.45,0.33-0.9,0.41-1.39c0-0.08,0.04-0.33,0.12-0.41c0.08-0.04,0.21-0.04,0.29-0.04
		c0.57,0,3.28,2.01,3.28,2.87c0,0.57-1.03,0.53-1.39,0.53c-1.56,1.23-3.08,2.5-4.59,3.73v1.64h1.48c0.21-0.21,1.39-1.64,1.68-1.64
		c0.25,0,2.67,2.13,2.67,2.62c0,0.33-0.37,0.49-0.66,0.49h-6.68c0.66,0.29,3.61,1.35,3.61,2.3c0,0.41-1.02,0.53-1.27,0.62
		l-3.03,3.98l1.93,0.04c0.25-0.21,1.84-1.97,2.05-1.97c0.33,0,2.09,1.97,2.38,2.3c0.16,0.16,0.33,0.37,0.33,0.62
		c0,0.37-0.29,0.45-0.61,0.45h-6.23l-0.45,0.49v3.85h2.01c0.16-0.21,1.68-1.84,1.8-1.84c0.29,0,2.25,1.84,2.58,2.17
		c0.21,0.16,0.33,0.37,0.33,0.61c0,0.37-0.25,0.49-0.57,0.49h-6.15v4.84l6.89-0.57c0.21-0.04,0.53,0.04,0.53,0.33
		c0,0.29-2.09,0.66-2.46,0.74c-2.95,0.74-5.9,1.52-8.81,2.34c-1.93,0.57-3.85,1.11-5.66,1.85l-1.64-4.18c2.67-0.04,5.33-0.08,8-0.21
		l0.04-5.12h-3.44l-0.74,0.53l-1.6-2.21c0.98,0.08,2.05,0.25,2.99,0.25h2.79v-4.35h-4.84l-0.7,0.57l-1.64-2.25
		c0.98,0.08,2.05,0.25,2.99,0.25h6.52c0.78-2.26,1.35-4.51,1.48-6.89h-10.09l-0.74,0.49l-1.56-2.21c0.94,0.08,2.01,0.25,2.99,0.25
		h3.9V75.48z M474.41,83.32c-2.01,0-1.44-2.75-1.64-3.98c-0.25-1.35-0.41-1.56-1.03-2.71c0-0.2,0.12-0.33,0.25-0.33
		c0.53,0,2.46,1.97,2.95,2.46c0.7,0.7,0.98,1.52,0.98,2.46S475.52,83.32,474.41,83.32z M477.45,92.83c-0.41,0-0.86-0.12-1.11-0.45
		c-0.45-0.45-0.45-1.52-0.49-2.05c-0.08-0.74-0.33-1.52-0.7-2.17c-0.08-0.16-0.66-0.94-0.66-1.03c0-0.12,0.08-0.2,0.21-0.2
		c0.08,0,0.57,0.16,0.66,0.16c1.27,0.57,3.69,1.97,3.69,3.61C479.04,91.84,478.76,92.83,477.45,92.83z M491.14,97.62
		c-1.43,0-1.64-1.31-1.64-2.46c0-0.66,0.04-1.31,0.04-2.01c0-0.86-0.12-1.39-0.37-2.21c-0.12-0.37-0.62-1.39-0.62-1.56
		c0-0.08,0-0.21,0.12-0.21c0.7,0,2.95,2.5,3.53,3.16c0.7,0.78,1.07,1.68,1.07,2.71C493.27,96.4,492.66,97.62,491.14,97.62z
		 M492.41,86.23l-0.74,0.57l-1.56-2.26c0.94,0.08,2.01,0.25,2.95,0.25h2.01v-7.5c0-0.49,0.04-2.38-0.08-3.03
		c-0.04-0.08-0.45-1.97-0.45-2.05c0-0.16,0.21-0.21,0.33-0.21c0.86,0,4.47,0.9,4.47,1.89c0,0.41-0.61,0.74-0.94,0.86l-0.04,10.04
		h0.29c0.16-0.25,1.39-1.97,1.72-1.97c0.25,0,0.41,0.16,0.53,0.33l1.89,2.13c0.08,0.12,0.21,0.29,0.21,0.45
		c0,0.29-0.29,0.49-0.57,0.49h-4.06v22.1c0,0.41,0,0.94-0.25,1.31c-0.21,0.37-0.9,0.78-1.27,0.98c-0.94,0.53-2.38,0.66-3.4,0.7
		c-0.08-2.13-1.23-2.5-3.08-3.2c-0.16-0.08-0.33-0.16-0.33-0.37c0-0.25,0.29-0.29,0.45-0.25c0.98,0,1.97,0.08,2.95,0.08
		c1.23,0,1.64-0.41,1.64-1.68V86.23H492.41z"/>
	<path class="st0" d="M519.76,80.98c0.41,0.16,2.38,0.94,2.38,1.39c0,0.25-0.78,0.82-0.98,0.98v8.16c0,1.44,0.16,2.91,0.21,4.35
		c-1.03,0.37-2.17,0.61-3.28,0.82c0.04-1.48,0.16-2.99,0.16-4.51v-9.1c-1.39,1.72-2.87,3.32-4.51,4.8
		c-0.16,0.16-0.98,0.98-1.19,0.98c-0.12,0-0.21-0.25-0.21-0.33c0-0.16,0.62-1.07,0.74-1.23c0.94-1.48,1.8-2.99,2.58-4.59
		c0.9-1.89,3.89-8.2,3.77-10c0.08,0,0.12-0.04,0.21-0.04c0.33,0,4.67,1.72,4.67,2.79c0,0.45-0.98,0.53-1.27,0.53
		C521.97,77.66,520.82,79.3,519.76,80.98z M513.07,105.78c0-0.41,0.12-0.82,0.33-1.19c0.78-1.27,1.97-2.25,2.62-3.65
		c0.29-0.66,0.41-1.27,0.49-1.97c0-0.25,0.04-0.45,0.33-0.45c0.53,0,0.86,3.77,0.86,4.43c0,1.89-0.21,2.99-1.64,4.26
		c-0.33,0.29-0.78,0.57-1.23,0.57C513.85,107.79,513.07,106.73,513.07,105.78z M524.31,106.07c0,0.33,0,0.7,0.25,0.94
		s1.89,0.25,2.26,0.25c1.02,0,2.05,0.04,3.07,0.04c1.52,0,3.2,0.16,4.02-1.39c0.41-0.78,0.78-3.2,0.94-4.06
		c0.04-0.12,0.12-0.33,0.29-0.33c0.21,0,0.25,0.21,0.29,0.37c0,0.82,0,1.64,0.12,2.46c0.21,1.31,0.9,1.64,2.09,1.93
		c-0.08,0.57-0.16,1.15-0.29,1.72c-0.49,2.79-3.53,2.54-5.7,2.54c-1.97,0-3.98,0-5.99-0.04c-1.19,0-4.02,0.08-4.59-1.35
		c-0.12-0.29-0.16-0.66-0.16-0.98v-6.89c0-0.41-0.04-0.82-0.08-1.23c-0.04-0.29-0.41-1.23-0.41-1.35c0-0.21,0.29-0.21,0.41-0.21
		c0.57,0,4.63,1.07,4.63,1.64c0,0.33-0.94,0.9-1.15,1.07V106.07z M527.18,90.08c-0.94,1.31-2.09,2.5-3.2,3.69
		c-0.21,0.21-1.27,1.48-1.56,1.48c-0.12,0-0.21-0.16-0.21-0.25c0-0.2,0.62-1.35,0.74-1.6c0.7-1.39,1.31-2.79,1.89-4.18
		c0.7-1.64,1.23-3.2,1.44-4.96c0.08-0.08,0.16-0.08,0.29-0.08c0.49,0,3.36,1.8,3.65,2.09c0.16,0.16,0.21,0.29,0.21,0.49
		c0,0.29-0.9,0.41-1.07,0.41C528.61,88.15,527.92,89.1,527.18,90.08z M529.47,78.48l9.14,0.04c0.25-0.29,1.07-1.31,1.52-1.31
		c0.53,0,3.65,2.5,3.65,3.12c0,0.86-1.52,0.86-2.09,0.98c-1.68,0.29-3.44,2.83-3.77,2.83c-0.12,0-0.21-0.08-0.21-0.21
		c0-0.41,0.78-3.4,0.9-3.98h-10.13c-1.48,2.09-2.99,4.02-4.88,5.74c-0.12,0.16-0.7,0.82-0.9,0.82c-0.12,0-0.25-0.16-0.25-0.29
		s0.53-1.07,0.66-1.23c1.8-3.32,2.42-5.29,3.73-8.98c0.33-0.98,0.82-2.38,0.7-3.36c0.04,0,0.12-0.04,0.16-0.04
		c0.62,0,4.59,1.6,4.59,2.21c0,0.25-0.9,0.57-1.11,0.66C530.58,76.47,530.09,77.49,529.47,78.48z M527.92,102.87
		c-0.66-1.43-0.45-2.99-1.6-4.43c-0.21-0.21-1.15-1.23-1.15-1.48c0-0.12,0-0.21,0.12-0.21c0.29,0,1.44,0.45,1.68,0.53
		c1.85,0.7,4.26,2.42,4.26,4.63c0,0.98-0.7,1.89-1.72,1.89C528.78,103.82,528.24,103.57,527.92,102.87z M528.53,94.71
		c-0.21-0.08-1.31-0.45-1.31-0.7c0-0.16,0.25-0.25,0.41-0.25c0.7,0.04,1.39,0.04,2.09,0.04c1.11,0,1.68,0.16,1.68-1.15v-9.1
		c0-0.57,0.04-1.19-0.08-1.76c-0.08-0.41-0.33-0.86-0.33-1.27c0-0.16,0.12-0.2,0.29-0.2s0.37,0.08,0.53,0.12
		c0.29,0.08,3.89,0.78,3.89,1.48c0,0.37-0.82,0.78-1.11,0.9v11.6c0,2.75-1.76,2.87-4.18,3.03
		C530.29,95.99,529.92,95.29,528.53,94.71z M540.38,94.1c-0.66,0-1.15-0.33-1.43-0.86c-0.41-0.82-0.53-1.85-0.82-2.71
		c-0.33-1.11-0.98-2.34-1.64-3.32c-0.21-0.25-1.35-1.64-1.35-1.84c0.29-0.08,0.49,0,0.66,0.04c1.56,0.66,3.77,1.72,4.84,3.07
		c0.78,0.98,1.72,2.21,1.72,3.53C542.35,93.12,541.45,94.1,540.38,94.1z M541.65,106.19c-1.6,0-2.05-1.72-2.54-2.95
		c-0.29-0.66-0.66-1.31-0.98-1.97c-0.33-0.57-0.74-1.27-1.27-1.72c-0.21-0.16-0.57-0.41-0.74-0.62c0-0.04-0.08-0.12-0.08-0.2
		s0.16-0.16,0.21-0.16c0.37,0,1.93,0.61,2.3,0.74c2.05,0.78,4.92,2.5,4.92,5C543.46,105.25,542.63,106.19,541.65,106.19z"/>
	<path class="st0" d="M567.28,104.31c0,1.27,0.21,2.62,0.29,3.9c-1.23,0.57-2.5,1.03-3.85,1.27l0.12-2.46h-5.49v1.6
		c-1.15,0.45-2.34,0.74-3.53,1.11c0.08-1.48,0.29-3.03,0.29-4.51V85.37c0-0.94-0.04-1.93-0.21-2.87c-0.08-0.41-0.2-0.9-0.2-1.31
		c0-0.12,0-0.41,0.2-0.41c0.49,0,2.67,1.11,3.2,1.44c0.66-1.84,2.17-6.52,2.17-8.73c0-0.29-0.04-0.62-0.04-0.94
		c0-0.21,0.04-0.45,0.29-0.45c0.41,0,3.65,1.31,4.1,1.68c0.21,0.16,0.45,0.37,0.45,0.66s-0.9,0.57-1.11,0.62
		c-1.43,2.5-2.91,5-4.51,7.42h4.02c0.12-0.16,1.15-1.72,1.48-1.72c0.45,0,2.42,1.39,2.75,1.6c0.25,0.16,0.78,0.53,0.78,0.9
		c0,0.45-0.86,0.98-1.19,1.23V104.31z M563.83,93.77v-9.88h-5l-0.49,0.49v9.39H563.83z M563.83,105.54V95.25h-5.49v10.29H563.83z
		 M578.39,82.46c0.25-0.37,0.86-1.64,1.39-1.64c0.29,0,0.66,0.21,0.9,0.37l2.34,1.44c0.25,0.16,0.57,0.41,0.57,0.74
		c0,0.37-0.98,1.23-1.23,1.44c-0.08,4.1-0.16,8.2-0.16,12.26c0,3.16,0.08,6.4-0.21,9.55c-0.08,0.86-0.25,1.76-0.7,2.5
		c-1.02,1.76-3.4,1.97-5.21,2.13c0-1.35-0.33-2.67-1.68-3.24c-0.21-0.08-1.27-0.45-1.27-0.7c0-0.29,0.21-0.37,0.45-0.37
		c0.94,0,1.85,0.25,2.79,0.25c1.72,0,1.93-0.82,2.01-2.34l0.12-2.3c0.04-0.98,0.04-1.97,0.04-2.95l0.08-15.66h-5.25
		c-0.98,1.97-2.01,4.06-3.4,5.78l-1.35,1.64c-0.08,0.12-0.33,0.41-0.49,0.41c-0.08,0-0.21-0.08-0.21-0.16
		c0-0.29,0.94-2.54,1.03-2.79c1.07-2.67,3.65-12.5,3.65-15.25c0-0.25-0.04-0.49-0.04-0.74c0-0.16,0.12-0.37,0.29-0.37
		c0.41,0,3.77,1.44,4.3,1.8c0.21,0.16,0.49,0.41,0.49,0.7c0,0.41-0.98,0.7-1.27,0.82c-0.78,2.21-1.52,4.47-2.38,6.68H578.39z
		 M570.27,90.49c0.16,0,0.41,0.12,0.53,0.21c1.76,1.11,4.18,3.28,4.18,5.54c0,1.19-0.62,2.5-1.97,2.5c-1.35,0-1.93-1.35-1.93-2.5
		c0-0.7,0.08-1.39,0.08-2.09c0-0.9-0.25-1.44-0.49-2.34c-0.12-0.45-0.57-0.53-0.57-1.15C570.11,90.53,570.15,90.49,570.27,90.49z"/>
	<path class="st0" d="M615.7,77.37c0.04-0.08,0.16-0.12,0.25-0.12c0.33,0,2.83,0.94,3.28,1.15c0.16,0.04,1.15,0.45,1.15,0.66
		c0,0.41-0.57,0.57-0.9,0.7c-0.53,0.37-0.9,0.74-1.35,1.23c-1.07,1.23-2.25,2.34-3.4,3.48l5.12,0.04c0.16-0.25,1.03-1.43,1.39-1.43
		c0.66,0,2.87,1.93,3.32,2.71c0.08,0.12,0.37,0.57,0.37,0.7c0,0.66-1.52,0.57-1.89,0.57c-1.39,0.12-2.62,0.7-3.69,1.56
		c1.11,0.45,3.44,1.44,3.44,2.91c0,0.94-0.25,2.38-1.48,2.38c-0.49,0-0.9-0.12-1.19-0.53c-0.33-0.45-0.53-0.94-0.78-1.39
		c-0.33-0.7-0.7-1.31-1.11-1.93c-0.33-0.45-0.74-1.02-1.19-1.31c-0.21-0.12-0.45-0.25-0.57-0.45c-0.04-0.21,0.16-0.25,0.21-0.25
		c0.49,0,1.64,0.25,2.13,0.37c0.33-0.82,0.7-1.64,1.02-2.5h-21.2c-0.04,0.49-0.08,0.98-0.16,1.48c-0.16,1.07-1.27,2.09-2.38,2.09
		c-1.02,0-1.8-0.62-1.8-1.68c0-1.11,1.31-2.05,1.97-2.67c0.45-0.45,0.82-1.44,0.86-2.01c0.04-0.12,0.04-0.74,0.21-0.74
		c0.41,0,1.07,1.85,1.19,2.13h14.6C614.14,82.33,615.57,79.79,615.7,77.37z M604.42,100.09c-2.62,2.67-4.63,4.22-7.71,6.27
		c-0.04,0.04-0.12,0.08-0.21,0.08s-0.16-0.08-0.16-0.21c0-0.21,0.82-1.02,0.98-1.23c1.19-1.31,2.3-2.79,3.24-4.31
		c0.86-1.39,1.64-2.71,2.25-4.22c0.16-0.37,0.21-1.64,0.62-1.64c0.12,0,2.34,0.82,2.58,0.9c0.29,0.08,1.72,0.57,1.72,0.94
		c0,0.45-0.74,0.7-1.07,0.82l-0.37,0.37h8.2c0.25-0.25,0.98-1.19,1.39-1.19c0.62,0,3.77,1.8,3.77,2.71c0,0.33-1.35,0.57-1.56,0.57
		c-1.84,1.44-3.57,2.99-5.45,4.35c3.03,1.15,6.23,1.93,9.43,2.46l2.42,0.41c0.2,0,0.25,0.08,0.25,0.29c0,0.33-1.23,0.49-1.48,0.57
		c-1.19,0.33-2.46,1.44-3.12,2.42c-3.48-1.11-6.85-2.67-9.92-4.67c-4.43,2.38-7.3,3.77-12.38,4.43c-0.7,0.08-1.48,0.25-2.17,0.25
		c-0.08,0-0.16-0.16-0.16-0.25c4.96-1.72,8.16-3.12,12.5-6.03C606.64,102.91,605.57,101.6,604.42,100.09z M601.1,90.37
		c0,1.56-0.94,3.53-2.71,3.53c-0.98,0-1.68-0.53-1.68-1.56c0-1.43,2.38-2.21,2.99-3.61c0.21-0.37,0.33-0.78,0.45-1.19
		C600.77,87.42,601.1,89.92,601.1,90.37z M600.08,77.58c-0.41,0-2.38,0.04-2.38-0.29c0-0.16,0.08-0.21,0.25-0.25l2.05-0.25
		c2.05-0.25,4.14-0.49,6.15-0.9c1.68-0.37,7.91-1.44,9.76-2.3c0.12-0.08,1.23-0.66,1.27-0.66c0.45,0,3.03,2.71,3.32,2.99
		c0.16,0.16,0.49,0.45,0.49,0.7c-0.16,0.25-0.33,0.33-0.49,0.33c-0.7-0.04-1.43-0.04-2.17-0.04c-1.44,0-2.87,0.12-4.3,0.21
		c-3.57,0.25-7.13,0.45-10.7,0.45H600.08z M600.12,78.07c0.12,0,2.17,0.66,2.38,0.7c1.56,0.45,2.87,1.56,2.87,3.28
		c0,1.03-0.66,1.68-1.68,1.68c-1.84,0-1.84-2.05-2.3-3.36c-0.33-0.86-0.9-1.35-1.39-2.13C599.95,78.11,600.04,78.07,600.12,78.07z
		 M606.35,91.64c0,0.21,0.04,0.45,0.16,0.62c0.33,0.45,2.05,0.37,2.54,0.37c1.03,0,4.14,0,4.92-0.41c0.9-0.49,1.35-2.79,1.56-3.53
		c0-0.08,0.08-0.12,0.16-0.12c0.25,0,0.37,0.12,0.37,0.37c-0.04,0.37-0.08,0.74-0.08,1.15c0,1.27,0.66,2.05,1.93,2.3
		c-0.33,0.82-0.57,1.44-1.35,1.97c-1.48,1.07-5.74,0.94-7.59,0.94c-1.27,0-4.84,0.12-5.53-1.35c-0.21-0.37-0.25-0.78-0.25-1.19
		v-3.48c0-0.66-0.41-1.64-0.41-1.89c0-0.21,0.08-0.33,0.29-0.33s0.45,0.08,0.66,0.16c0.57,0.21,3.53,0.57,3.53,1.39
		c0,0.33-0.66,0.53-0.9,0.62V91.64z M613.73,99.31h-8.61L605,99.47c1.48,1.52,2.87,2.42,4.71,3.48
		C611.19,101.81,612.46,100.7,613.73,99.31z M607.05,77.9c0.25,0,1.07,0.29,1.31,0.37c1.64,0.57,3.48,1.6,3.48,3.57
		c0,1.07-0.86,1.85-1.89,1.85c-1.6,0-1.56-1.44-1.72-2.62c-0.21-1.52-0.62-1.76-1.39-2.99C606.84,77.99,606.96,77.9,607.05,77.9z
		 M608.11,86.51c0.62,0,1.56,0.29,2.13,0.41c1.19,0.25,2.38,1.15,2.38,2.46c0,0.74-0.78,1.68-1.56,1.68c-2.01,0-1.48-2.34-2.34-3.4
		c-0.29-0.33-0.62-0.62-0.78-0.98C607.91,86.56,608.03,86.51,608.11,86.51z"/>
	<path class="st0" d="M655.79,91.8c0,2.99-2.38,5.41-5.37,5.41s-5.41-2.42-5.41-5.41s2.42-5.41,5.41-5.41S655.79,88.81,655.79,91.8z
		 M647.27,91.8c0,1.72,1.43,3.16,3.16,3.16c1.72,0,3.12-1.43,3.12-3.16s-1.39-3.16-3.12-3.16C648.7,88.65,647.27,90.08,647.27,91.8z
		"/>
</g>
</svg>
