<?xml version="1.0" encoding="utf-8"?>
<!-- Generator: Adobe Illustrator 26.2.1, SVG Export Plug-In . SVG Version: 6.00 Build 0)  -->
<svg version="1.1" id="圖層_1" xmlns="http://www.w3.org/2000/svg" xmlns:xlink="http://www.w3.org/1999/xlink" x="0px" y="0px"
	 viewBox="0 0 989 164" style="enable-background:new 0 0 989 164;" xml:space="preserve">
<style type="text/css">
	.st0{fill:#FFFFFF;}
	.st1{fill:#D09C3E;}
</style>
<g>
	<g>
		<path class="st0" d="M495.7,115.4c0,12.6-12.3,24.3-25.6,24.3c13.3,0,25.6,11.7,25.6,24.3c0-12.6,12.4-24.3,25.7-24.3
			C508.1,139.7,495.7,128,495.7,115.4z M538,135.1c-2.6,0-4.8,2.1-4.8,4.6s2.1,4.6,4.8,4.6c2.6,0,4.8-2.1,4.8-4.6
			C542.7,137.2,540.6,135.1,538,135.1z M448.5,135.1c-2.6,0-4.8,2.1-4.8,4.6s2.1,4.6,4.8,4.6c2.6,0,4.7-2.1,4.7-4.6
			C453.2,137.2,451.1,135.1,448.5,135.1z M51.7,135.1c0-6-5.6-10.9-12.4-10.9h-2.6v-0.3c0-6.4-4.9-11.6-10.9-11.6
			s-10.9,5.2-10.9,11.6v0.3h-2.6c-6.8,0-12.4,4.9-12.4,10.9S5.5,146,12.3,146H15v0.4c0,6.4,4.9,11.6,10.9,11.6s10.9-5.2,10.9-11.6
			V146h2.6c3.7,0,7.1-1.5,9.4-3.8h381.9v-4.8H51.4C51.6,136.6,51.7,135.8,51.7,135.1z M976.6,124.2H974v-0.3
			c0-6.4-4.9-11.6-10.8-11.6c-6,0-10.9,5.2-10.9,11.6v0.3h-2.6c-6.8,0-12.4,4.9-12.4,10.9c0,0.7,0.1,1.5,0.3,2.2H558.4v4.8h381.8
			c2.3,2.3,5.6,3.8,9.4,3.8h2.6v0.4c0,6.4,4.9,11.6,10.9,11.6s10.8-5.2,10.8-11.6V146h2.6c6.8,0,12.4-4.9,12.4-10.9
			C989,129.1,983.4,124.2,976.6,124.2z"/>
	</g>
</g>
<g>
	<path class="st1" d="M324.18,6c-0.99,5.76-1.98,11.07-2.88,16.02h14.76v5.13c-0.54,14.04-3.24,26.19-8.01,36.54
		c4.77,3.78,8.73,7.11,11.79,10.17l-6.39,7.38c-2.79-2.88-6.12-5.94-9.9-9.18c-4.32,6.84-9.63,12.69-16.11,17.73l-6.48-8.01
		c6.12-4.5,11.25-9.72,15.21-15.84c-4.05-3.33-8.46-6.75-13.23-10.26c2.61-7.56,4.95-15.75,7.11-24.57h-8.28v-9.09h10.26
		c1.08-5.49,2.07-11.16,2.97-16.92L324.18,6z M326.88,31.11h-7.47c-1.98,8.64-4.05,15.84-6.21,21.69c2.61,1.8,5.04,3.51,7.29,5.22
		C324,50.09,326.16,41.1,326.88,31.11z M357.03,42.62v-9.9c4.32-3.96,8.55-8.64,12.69-14.04h-29.34V9.51h40.14v9.18
		c-4.14,5.94-8.82,11.61-14.04,16.92v7.02h17.19v9.18h-17.19v25.83c0,7.02-2.7,10.53-7.92,10.53h-13.5l-2.43-8.91
		c3.6,0.09,7.65,0.18,12.06,0.18c1.53,0,2.34-1.53,2.34-4.59V51.8h-19.17v-9.18H357.03z"/>
	<path class="st1" d="M422.91,27.6v7.29c-2.7,4.5-5.94,8.91-9.54,13.41h10.44v6.12c-1.26,6.48-2.61,11.88-4.23,16.02
		c0.72,0.54,1.35,1.08,1.98,1.62c2.88,2.52,5.58,4.32,8.1,5.4c2.61,0.9,6.3,1.44,11.16,1.62c4.86,0.09,10.44,0.18,16.74,0.18
		c6.48,0,14.94-0.27,25.38-0.72l-2.16,8.82h-22.05c-6.12,0-12.24-0.18-18.27-0.36c-6.12-0.18-10.71-0.81-13.86-1.98
		c-3.78-1.44-7.11-3.6-10.17-6.57c-0.63-0.63-1.35-0.9-2.07-0.9c-1.62,0-4.41,3.87-8.19,11.61l-6.75-6.3
		c4.05-7.74,7.92-12.33,11.7-13.86c1.62-3.96,2.88-8.19,3.87-12.87h-12.69V49.1c4.14-4.68,7.65-9,10.35-13.05h-11.79V27.6H422.91z
		 M422.37,19.05l-6.03,6.03c-3.24-3.96-7.83-8.37-13.68-13.05l6.12-5.76C414.09,10.5,418.59,14.73,422.37,19.05z M480.15,24.09
		h-4.86v3.78h-17.82v3.33h18.63v28.08h-18.63v3.6h22.77v7.65h-22.77v7.38h-9v-7.38H425.7v-7.65h22.77v-3.6h-18.72V31.2h18.72v-3.33
		h-17.64v-3.33h-5.31V8.61h54.63V24.09z M448.47,20.58v-4.41h-13.95v4.41H448.47z M448.47,42v-3.78h-9.72V42H448.47z M448.47,48.56
		h-9.72v3.6h9.72V48.56z M457.47,20.58h13.68v-4.41h-13.68V20.58z M457.47,42h9.63v-3.78h-9.63V42z M467.1,48.56h-9.63v3.6h9.63
		V48.56z"/>
	<path class="st1" d="M500.04,54.59v-8.46h80.37v8.46h-34.47v7.56h24.84v8.28h-24.84v8.64c4.05,0.36,8.73,0.54,13.95,0.54
		c8.01,0,14.76-0.18,20.25-0.36l-2.61,8.82c-6.3,0-11.97-0.09-17.01-0.18c-14.94-0.09-25.11-1.26-30.69-3.42
		c-4.32-1.8-8.1-5.31-11.52-10.35c-3.42,6.03-7.74,11.07-12.87,15.12l-6.12-7.83c8.1-6.3,13.5-14.58,16.38-25.02l8.91,1.53
		c-0.81,3.15-1.8,6.12-2.88,8.91c3.42,5.31,7.38,8.64,11.79,10.08c0.9,0.27,1.89,0.54,2.97,0.81V54.59H500.04z M568.53,8.52v32.85
		h-56.34V8.52H568.53z M559.26,21.21v-4.77h-37.71v4.77H559.26z M559.26,28.59h-37.71v4.86h37.71V28.59z"/>
	<path class="st1" d="M599.94,51.26l-3.15-10.08c9.27-10.17,16.11-22.14,20.61-35.91l8.73,4.14c-2.34,7.02-5.4,13.68-9.18,19.98
		v59.76h-9.36V42.71C605.16,45.59,602.65,48.47,599.94,51.26z M627.93,42.89l-8.1-5.04c6.66-9.99,11.34-20.61,14.04-31.86l8.82,1.89
		c-0.72,2.7-1.53,5.4-2.34,8.01h37.53v6.12c-1.35,5.4-3.06,10.71-5.13,16.02l-9-2.61c1.8-3.06,3.24-6.57,4.5-10.53h-31.14
		C634.41,31.47,631.35,37.5,627.93,42.89z M640.89,45.05c-3.15,12.33-7.2,23.13-12.06,32.4l-8.82-3.15
		c4.68-8.28,8.82-18.81,12.42-31.59L640.89,45.05z M635.67,88.52l-2.07-8.82c3.6,0.36,7.11,0.63,10.35,0.63
		c2.16,0,3.24-1.17,3.24-3.42V31.11h9.09v48.06c0,6.21-3.06,9.36-9.18,9.36H635.67z M680.22,75.29l-8.28,3.69
		c-3.24-12.96-6.93-24.48-10.98-34.47l8.28-2.79C673.47,52.16,677.16,63.41,680.22,75.29z"/>
</g>
</svg>
