<?xml version="1.0" encoding="utf-8"?>
<!-- Generator: Adobe Illustrator 26.1.0, SVG Export Plug-In . SVG Version: 6.00 Build 0)  -->
<svg version="1.1" id="圖層_1" xmlns="http://www.w3.org/2000/svg" xmlns:xlink="http://www.w3.org/1999/xlink" x="0px" y="0px"
	 viewBox="0 0 989 164" style="enable-background:new 0 0 989 164;" xml:space="preserve">
<style type="text/css">
	.st0{fill:#FFFFFF;}
	.st1{fill:#D09C3E;}
</style>
<g>
	<g>
		<path class="st0" d="M495.7,115.4c0,12.6-12.3,24.3-25.6,24.3c13.3,0,25.6,11.7,25.6,24.3c0-12.6,12.4-24.3,25.7-24.3
			C508.1,139.7,495.7,128,495.7,115.4z M538,135.1c-2.6,0-4.8,2.1-4.8,4.6s2.1,4.6,4.8,4.6c2.6,0,4.8-2.1,4.8-4.6
			C542.7,137.2,540.6,135.1,538,135.1z M448.5,135.1c-2.6,0-4.8,2.1-4.8,4.6s2.1,4.6,4.8,4.6c2.6,0,4.7-2.1,4.7-4.6
			C453.2,137.2,451.1,135.1,448.5,135.1z M51.7,135.1c0-6-5.6-10.9-12.4-10.9h-2.6v-0.3c0-6.4-4.9-11.6-10.9-11.6
			s-10.9,5.2-10.9,11.6v0.3h-2.6c-6.8,0-12.4,4.9-12.4,10.9S5.5,146,12.3,146H15v0.4c0,6.4,4.9,11.6,10.9,11.6s10.9-5.2,10.9-11.6
			V146h2.6c3.7,0,7.1-1.5,9.4-3.8h381.9v-4.8H51.4C51.6,136.6,51.7,135.8,51.7,135.1z M976.6,124.2H974v-0.3
			c0-6.4-4.9-11.6-10.8-11.6c-6,0-10.9,5.2-10.9,11.6v0.3h-2.6c-6.8,0-12.4,4.9-12.4,10.9c0,0.7,0.1,1.5,0.3,2.2H558.4v4.8h381.8
			c2.3,2.3,5.6,3.8,9.4,3.8h2.6v0.4c0,6.4,4.9,11.6,10.9,11.6s10.8-5.2,10.8-11.6V146h2.6c6.8,0,12.4-4.9,12.4-10.9
			C989,129.1,983.4,124.2,976.6,124.2z"/>
	</g>
</g>
<g>
	<path class="st1" d="M328.2,4.5c-1,5.9-2,11.4-3,16.6h15v4.7c-0.6,14-3.4,26.3-8.3,36.7c5,3.9,9.1,7.4,12.1,10.4l-5.8,6.7
		c-2.9-3-6.4-6.2-10.3-9.6c-4.4,7-9.9,13.1-16.5,18.2l-5.8-7.2c6.4-4.6,11.6-10.1,15.7-16.5c-4.1-3.3-8.6-6.8-13.5-10.3
		c2.7-7.7,5-16,7.2-24.9h-8.6v-8.2h10.4c1.1-5.6,2.2-11.3,3.1-17.3L328.2,4.5z M331.9,29.3h-8.4c-2.1,8.8-4.2,16.3-6.4,22.3
		c2.9,2,5.6,4,8,5.8C328.9,49.1,331.2,39.7,331.9,29.3z M362,41.7V31.3c4.5-4.1,8.9-8.9,13-14.5H345V8.6h39.9v8.3
		c-4.2,6-9,11.7-14.3,17.1v7.7h17.5V50h-17.5v26.7c0,6.7-2.6,10-7.7,10h-13.3l-2.2-8.1c3.7,0,7.7,0.1,12.1,0.1
		c1.7,0,2.6-1.5,2.6-4.6V50h-19.5v-8.3H362z"/>
	<path class="st1" d="M411.1,43.5l-7.5-2.1c2.7-9.5,4.2-19.5,4.6-30l7.6,0.5c-0.2,3.6-0.5,7.2-0.8,10.7h4.7v-18h8.3v18h6.6V31h-6.6
		v19c2.2-1,4.2-2,6.2-3v8.1c-2.1,1-4.1,2-6.2,2.9v29.7h-8.3V61.3c-4.2,1.6-8.5,3.1-13,4.4l-2-8.3c5-1.1,10.1-2.4,14.9-4.1V31h-5.8
		C413.2,35.3,412.2,39.4,411.1,43.5z M453,6.5c-0.9,4.3-1.9,8.3-3,11.9h34.3c0,31-0.5,50-1.3,57.2c-1.1,7.7-6.1,11.6-15.2,11.6
		c-1.3,0-3.5-0.2-6.7-0.4l-2-7.6c2.9,0.3,5.3,0.4,7.5,0.4c5,0,7.8-2.6,8.5-7.8c0.5-4.5,0.9-19.5,1.1-45.2h-4
		c-2,14.6-4.6,26.2-8,34.7c-4.1,9.5-10.3,18-18.4,25.6l-5.3-6.8c7.4-6.7,12.9-14.1,16.6-22.4c3.2-7.8,5.8-18.2,7.4-31.1h-5.2
		c-3.7,19.3-10.4,33.3-20.3,42.1l-5.5-6.4c8.8-7.6,14.9-19.4,18.3-35.7H447c-2.3,5.4-4.9,10-7.9,13.6l-6.3-5.3
		c5.7-7.1,9.7-17.3,12.1-30.5L453,6.5z"/>
	<path class="st1" d="M531.4,49.7c-2.5,1.2-5.1,2.2-7.6,3.3v24.5c0,5.8-3.1,8.8-9.1,8.8h-8.1l-1.9-8.3c2.4,0.4,4.8,0.5,7,0.5
		c2.3,0,3.5-1.1,3.5-3.2V56.3c-3.4,1.2-6.9,2.2-10.3,3.2l-2.2-8.6c4.2-0.9,8.4-2,12.5-3.2V28.7h-10.8v-8.3h10.8V4.6h8.5v15.8h8.4
		v8.3h-8.4v15.7c2.6-1.1,5.1-2.2,7.6-3.5V49.7z M547,87.2h-8.5V37.4c-1.8,2.6-3.8,5.1-5.9,7.6l-2.9-9c7.1-9.5,12.1-19.9,15-31.2
		l8.3,1.6c-1.3,4.5-2.8,8.8-4.6,13h13.8c-1.4-4.3-3.1-8.6-4.9-12.8l8.2-2.2c2,5.5,3.6,10.4,4.7,14.9h13.8v8.2h-14.7v10.3h12.9v8
		h-12.9v10h12.9v7.9h-12.9V75h15.7v8.2H547V87.2z M547,27.5v10.3H561V27.5H547z M547,55.9H561v-10H547V55.9z M547,75H561V63.8H547
		V75z"/>
	<path class="st1" d="M629.8,63.5h51.6c-0.7,11.3-2,18.2-3.6,20.4c-1.8,2.3-5.4,3.5-10.8,3.5c-1.1-0.1-2.3-0.2-3.8-0.4l-1.7-5.9
		l-0.4,0.1c-1.3-2.9-2.9-5.7-4.8-8.4l5.8-1.6c2,2.8,3.6,5.4,4.8,7.7l-4,1.6c1.4,0.2,2.9,0.4,4.1,0.4c2.1,0,3.5-0.5,4.2-1.4
		s1.3-4.1,1.6-9.6h-52.5l4.7-19.3h-8.2c-0.4,15.4-3.1,27.7-8.3,37l-6.5-5.7c4.3-7.6,6.6-18.2,6.8-31.8V23.7h32
		c-0.6-1.6-1.3-3.1-2.1-4.4l8.3-1.3c0.7,1.6,1.3,3.5,2.1,5.7h33.7v6.7H660v4.4h19.4v15.9h-46.5l-0.8,3.5h51.3v5.6h-52.6L629.8,63.5z
		 M623.4,9.6V4.5h8.1v5.1h10.1v7h-10.1v4.9h-8.1v-4.9h-18.7v-7H623.4z M628.3,74.9c-2.2,5-4.6,9.4-7.5,13l-6-4.4
		c2.9-3.2,5.3-7.2,7.3-11.7L628.3,74.9z M616.9,30.3v4.4h14.5v-4.4H616.9z M616.9,44.9h14.5v-4.7h-14.5V44.9z M641.9,85.2l-6.6,2.4
		c-1.1-4.5-2.3-8.8-4-13l6.2-1.6C639.4,77.4,640.9,81.4,641.9,85.2z M638.9,30.3v4.4h13.5v-4.4H638.9z M638.9,44.9h13.5v-4.7h-13.5
		V44.9z M655.3,83.1l-6.5,2.4c-1.4-4-3.1-8-5.1-11.8l6-1.7C652,76,653.9,79.7,655.3,83.1z M663.9,4.5v5.1h18.8v7h-18.8v4.9h-8.1
		v-4.9h-10.1v-7h10.1V4.5H663.9z M660,44.9h12v-4.7h-12V44.9z"/>
</g>
</svg>
