<?xml version="1.0" encoding="utf-8"?>
<!-- Generator: Adobe Illustrator 26.1.0, SVG Export Plug-In . SVG Version: 6.00 Build 0)  -->
<svg version="1.1" id="圖層_1" xmlns="http://www.w3.org/2000/svg" xmlns:xlink="http://www.w3.org/1999/xlink" x="0px" y="0px"
	 viewBox="0 0 309 94" style="enable-background:new 0 0 309 94;" xml:space="preserve">
<style type="text/css">
	.st0{fill:#231815;}
</style>
<g id="レイヤー_1">
</g>
<g id="レイヤー_3">
</g>
<g>
	<path class="st0" d="M40.9,46h0.7c0.7,0.2,1,0.5,1,1v0.4c0.2,0.6-0.8,1.1-3.2,1.5L32,52.5l-1.6,0.2l-1.4-0.5l-0.1-1
		c0.4-0.8,2-1.5,4.9-2.3c1.5-0.9,3.7-1.9,6.5-2.9L40.9,46z M42,54.8h1.1l0.1,0.6c-2,3.3-4.8,5.7-8.4,7.4h-1.4
		c-1.2-0.4-1.8-0.7-1.7-0.9l-0.2-0.8c0.1-0.5,0.4-0.8,0.9-1l1.6,0.5C36.9,59.3,39.5,57.3,42,54.8z M33.7,35.5
		c0.2-0.4,1.8,0.4,4.6,2.3l2.5,1.6c0.4,0.5,0.5,1,0.3,1.5l-0.7,0.7h-0.7c-0.5-0.6-2.4-1.7-5.7-3.2l-1-1.8V36L33.7,35.5z M57.5,37.3
		h0.6c1.3,0.5,1.7,0.8,1.4,1c0.5,1-0.1,1.8-2,2.4c-0.7,1-1.1,3-1.1,6l0.2,0.2l3.9-1c1.2,0.1,1.9,0.7,2.3,1.7
		c0.6,0.4-0.9,2.9-4.4,7.5l-5.7,9.2c0.2,0.4,1.3,0.2,3.3-0.5l4.8-1.6h0.6l0.4,0.6v0.4c0.3,0.8-1.4,1.6-5.2,2.5l-4,1.1h-1.2L50,66.2
		c-0.3,0-0.4-0.4-0.2-1.3l6.2-9.8v-0.5c-1,0.8-1.9,1-2.9,0.8c-2-0.4-4-1.1-6-2.1c-0.3-0.2-0.4-0.8-0.4-1.6c-0.2-0.3,1.2-1.1,4-2.3
		l2.7-1c0.5,0,0.6-1.3,0.4-3.8l0.1-2l-0.2-0.2l-4.4,2l-1.3,0.1c-0.9-0.2-1.4-0.5-1.4-0.8V43c-0.2-0.5,0.7-1,2.7-1.5
		c1.1-0.2,2.7-1.1,5-2.5l1.7-1.4L57.5,37.3z M51.9,29.4h0.9c0.9-0.2,2.5,0.9,4.9,3.3l0.5,1.7c0,0.7-0.3,1.2-0.9,1.3l-0.8,0.2
		c-0.7-2.1-2.1-3.4-4.1-3.9c-0.7-0.3-1.1-0.7-1.2-1.1l-0.1-0.7C51.3,29.7,51.5,29.5,51.9,29.4z M53.2,51l-2.1,1.3
		c0.3,0.3,1,0.5,2,0.5l0.7-0.8v-1H53.2z M58.7,48.9c-2.2,0.2-3,1.5-2.3,4l-0.1,1.3l2.9-5v-0.2H58.7z"/>
	<path class="st0" d="M105.8,19.1c0.3-0.5,2.3,0.1,5.8,1.8l3.5,1l3-1.1h1c0.9,0.3,1.4,0.7,1.4,1l0.1,1.1c0.2,0.4-1,1.2-3.6,2.3
		c0.2,1.6-1.2,4.6-4.2,9.1l-1.6,2l5.7-1.3h1.4c0.8,0.3,1.3,0.8,1.4,1.4v0.7c0.5,0.5-1.4,2.4-5.7,5.8l-7.5,7.2l-1,1.8v0.7
		c0.4,0.9,1.3,1.6,2.7,2h0.9c0.2,0,0.5-0.8,0.7-2.3l0.6-3.2l-0.2-1.3c-0.1-1.3,1.8-2.4,5.5-3.3c1.4-0.5,2.8-0.8,4.1-0.9h0.5
		c0.4,0,0.9,0.3,1.4,1c0.7,1.7-0.3,4-2.9,7c0.4,0.4,0.7,1.2,0.8,2.4c0.2,0.8-1.6,3.7-5.4,8.9c1.2,1,2.8,1.4,4.8,1.1l1.3,0.7v0.8
		c-0.2,1.4-2.8,1.5-8,0.1l-2.7,3.6c1.7,1.8,5.1,2.1,10,0.7c0.6,0.2,1,0.5,1.1,1v0.5c-2.1,1.8-5.7,2.3-10.6,1.3l-2-1
		c-1.4,1.7-2.4,3.5-2.8,5.5l-1,0.1c-0.5-0.2-0.8-0.4-0.9-0.8c0.1-1.2,1.2-3.4,3.3-6.4l-0.5-1.6l0.9-0.7l1,0.4l2.5-3.9l-0.6-0.8V63
		c0-0.7,0.8-1.1,2.5-1.4c1.4-1.7,2.4-3.6,3.2-5.5v-0.5l-5,1.3H108c-1.8-0.2-3.2-1.2-4.4-3.2l-0.2-2c-0.7-0.7,3.1-4.9,11.4-12.5
		l1.1-1.4l-0.2-0.2c-1.6,0.1-6.5,2.2-15,6.5h-0.7c-0.6-0.2-0.9-0.5-1.1-0.9v-1c2.9-1,6.2-3.5,10-7.4l1.4-2.5c-1.4-0.8-2.4-2-3.1-3.4
		l-1.5,0.1l-1-1v-0.8c-0.2-0.6,0.8-1.2,3.1-1.7c0.5-0.6,1.4-1.2,2.7-1.9l0.1-0.1l-5-1.8l-0.9-1.3v-0.4
		C104.9,19.6,105.2,19.3,105.8,19.1z M113.1,26.8l-2.6,1.3v0.5l1.4,1.5c0.6-0.2,1.1-1.1,1.5-2.9L113.1,26.8z M118.7,46.4l-5.3,1.7
		c-0.2,1.4,0.1,2.6,0.9,3.6l0.5,0.1c0.8,0.5,2.2-1.1,4-4.7L118.7,46.4z M121.9,60.6c1.9,0.2,3.6,1,4.9,2.4l0.1,0.6l-0.6,0.7
		c-0.1,0.4-1.5,0.1-4.2-1l-0.9-0.8v-1.1L121.9,60.6z"/>
	<path class="st0" d="M177.9,21.2h0.9c0.8,0.1,1.2,0.8,1.3,2.1l-0.1,2.1l0.2,0.2l8.3-2.5h1l0.8,0.8v0.9c-1.2,1.4-2.6,1.7-4.2,1.1
		l-6.5,2.1l-0.1,4l0.2,0.2c0.9-0.4,2.3-0.7,4.2-0.7c2.7,0.3,3.4,1.5,2.1,3.8l-3,3.4c0.6,0.8-0.7,2-3.9,3.6l-0.1,2.6l0.2,0.2
		c2.3-1,5.4-1.5,9.2-1.5l0.5,0.2c0.8,0.2,1.3,0.7,1.5,1.5l-0.5,2.4l4.8-1.4c0.8,0.2,1.1,0.5,1,1.1c-0.2,0.7-1.1,1.2-2.7,1.5
		l-0.8-0.1c-3.3,0.5-5.7,2.1-7.3,4.9l-2,2.2c0.3,1.2-0.8,2.2-3.3,3c-0.2,0.1-0.1,1.7,0.4,4.7l1,10.1l-1,1.2
		c-0.7,0.2-1.6-0.3-2.7-1.6c0-0.4-3-1.9-9.1-4.6l-1.4-1.5l-0.1-0.5l0.5-0.5c1.1,0.8,2.7,1.4,4.9,1.9c0.2-0.3,2.1,0.4,5.8,2l0.3,0.1
		l-0.1-2l0.1-0.4c-0.4-1.9-0.5-4.1-0.5-6.6l-0.4-1.5c-0.1-0.2-1.1,0.2-3,1.1c-0.6,0.4-1.3,0.5-2,0.3c-0.4-0.1-0.6-0.4-0.6-0.8v-0.5
		c0.4-0.4,2.3-1.3,5.6-2.5l-0.1-3.2l-0.4-0.4c-0.8,0.5-4,1.2-9.5,2H166l-0.7-0.9c-0.1-0.8,1.7-1.3,5.5-1.7c1.7-0.2,3.7-0.7,6.1-1.6
		l-0.1-3.7c-1.6,0.8-4.3,1.6-8.1,2.5l-2.7,0.3c-0.6,0.1-1-0.3-1.3-1.3c-0.2-0.8,1.3-1.3,4.4-1.4c2.1-0.2,4.5-0.9,7.2-2.1l0.5-0.5v-2
		l-0.8,0.1c-3-1.2-5.2-3.6-6.5-7.1v-0.7c0.5-0.8,1.3-1,2.4-0.5l-0.1,1.3c0.2,0.8,1.4,2.2,3.6,4.4h0.4c1.2,0.2,1.6-1.6,1.3-5.5
		l-0.2-0.8c-0.8-0.3-1.6,0.3-2.3,1.9c-1.1,0-1.6-0.3-1.6-1v-0.4c-0.2-0.4,1.2-1.4,4.2-3l-0.2-4l-7,0.9c-0.7,0-1.1-0.4-1.3-1.1
		c-0.1-0.8,1.3-1.3,4.1-1.6l2.5-0.1c1.7-0.1,2.4-0.6,2-1.6c0.2-0.2,0.2-1.3-0.1-3.1L177.9,21.2z M185.8,45.7l-5.5,1.4
		c-0.6-0.1-1.1,0.3-1.4,1.2l0.5,2.9l0.1,0.1l7.3-2.4c1-0.6,1.5-1.5,1.5-2.7c-0.1-0.4-0.4-0.5-0.8-0.5H185.8z M183.1,33.7l-0.7,0.2
		l-3.1,0.7l-0.1,1.7l0.2,1.4l-0.2,1l0.4,0.6c0.2-0.4,1.5-1.7,4.1-3.9L184,34L183.1,33.7z M183.6,51.9l-4,1.6c-0.3,0.4-0.4,1.4-0.1,3
		l0.6,0.1l3.8-4.4v-0.4H183.6z"/>
	<path class="st0" d="M239.5,33.6c0.4-0.2,1.1,0,2.1,0.6l0.1,1c0.3,0.6-0.8,1.3-3.4,2c-2.1,0.6-3.6,2-4.4,4.2l-0.1,0.9
		c0.1,2.5,1.6,5.2,4.5,8.2c0.4,0.4,1.1-0.1,2.3-1.5l1.3-0.2c1,0.9,0.1,2.2-2.6,3.8l-4,3.5l-3,1.8l-1.9,0.4c-0.8-0.1-1.4-0.5-1.7-1.4
		c0.2-0.8,0.9-1.5,2.1-2l1.4,0.1c1.1-0.3,2.7-1.4,4.9-3.3l-0.5-0.4c-2.8-2.2-4.6-5-5.4-8.5c-0.1-0.8,0.2-1.9,0.7-3.3l0.1-0.2
		c-1.4-0.2-2.1-0.5-2.1-0.7l-0.3-0.9c-0.2-0.6,0.5-1,2.3-1.3c1.7,0.3,3.6-0.4,5.9-2.1L239.5,33.6z M243.8,64.5h0.8l0.2,0.9
		c0.6,1.5,2.4,2.4,5.4,2.7l0.8-0.2l1.1,0.8v0.4c-0.2,0.8-1.5,1.1-3.6,1c-1.1,0.3-2.8-0.5-5.2-2.4c-0.4-0.4-0.7-1-0.8-1.7
		C242.4,65.3,242.9,64.8,243.8,64.5z M259,26.3c0.8,0,1.4,0.4,1.8,1.1c0.9,0.6-0.1,1.9-3,3.9c-3.5,3.2-6.5,9.1-8.9,17.8v0.4
		c2.4-1.3,5.6-2.6,9.6-4h0.4l0.9,0.7L260,46c-0.2-0.7-0.2-1.5,0-2.2c0.4-0.5,0.4-1.6-0.1-3.2c-2.3,0.6-4.7,2.6-7.3,6.1l-0.5,0.1
		c-0.5-0.2-0.8-0.5-1-1v-0.5c1.9-3.3,5-5.7,9.4-7.3h0.8c0.8,0.1,1.3,0.6,1.7,1.6c0.3,0.1,0,2.1-0.8,6.1l-0.2,3.2
		c-0.2,0-0.3,0.4-0.2,1.1l-0.1,1.3c-0.5,1.9-0.6,5-0.2,9.1l-0.7,0.8h-0.5c-0.8-0.3-1.3-0.8-1.5-1.4l-0.2-0.7c0,0.5-2.2,1.7-6.6,3.4
		c-2.7-0.2-4.5-3.3-5.5-9.2c-0.9-4.9,2-12.6,8.6-23.1l-4.4,1.4c-0.2,0.6-0.5,0.9-1,0.9h-0.5c-1.9-1.4-1.1-2.7,2.5-3.8
		c0-0.5,2.2-1.2,6.6-2.3L259,26.3z M259.7,47.4c0,0.6-0.9,1-2.7,1.2c-1.8,1.2-4,2-6.8,2.6c-0.5,0.2-1-0.1-1.5-0.8v0.2
		c-0.3,0.6-0.3,1.8,0,3.8l0.5,1c1.2,0.2,2.4-0.2,3.5-1c1.3-0.8,2.9-1.7,4.9-2.5l0.5-0.4l1.2,0.1l0.2-1L259.7,47.4z M258.7,53.7
		l-7.1,3.8l-1.8,0.2l1.1,2.1c0.3,0.3,1.3,0,3.2-1c0.9-0.7,1.9-1.1,3.1-1.1l1.1,0.2v-0.2c-0.2-0.8,0.2-1.8,1-3.2l-0.4-0.9H258.7z
		 M262.2,64.6c1.7,0.2,3,0.9,3.6,2l0.2,1.1l-1.4,0.7l-3.5-1.7l-0.2-1.4C261.1,64.8,261.5,64.6,262.2,64.6z"/>
</g>
</svg>
