<?xml version="1.0" encoding="utf-8"?>
<!-- Generator: Adobe Illustrator 26.5.0, SVG Export Plug-In . SVG Version: 6.00 Build 0)  -->
<svg version="1.1" id="圖層_1" xmlns="http://www.w3.org/2000/svg" xmlns:xlink="http://www.w3.org/1999/xlink" x="0px" y="0px"
	 viewBox="0 0 336.5 44.4" style="enable-background:new 0 0 336.5 44.4;" xml:space="preserve">
<style type="text/css">
	.st0{fill:#FFFFFF;}
</style>
<path class="st0" d="M10.9,20.6h1.2c2.9,0,5.3,0,4.7,3.8s-3.2,3.7-5.9,3.7H9.8L10.9,20.6z M0,44.3h7.4l1.5-10h4.2
	c6.4,0,10.5-3.1,11.6-10.2c1-6.9-2.7-9.9-8.9-9.9H4.5L0,44.3z"/>
<path class="st0" d="M55.4,15.7l-1.9,12.6h0.1c1.3-1.7,3.3-2.7,5.5-2.7c4,0,5.6,2.8,4.9,7.1l-1.5,10.4h-5.7l1.3-8.7c0.3-2,0.3-4-2-4
	s-3.3,2-3.6,4l-1.3,8.7h-5.7l4.1-27.4H55.4z"/>
<path class="st0" d="M75.9,30.8c2.3,0,3.4,1.8,3.1,3.8c-0.2,2.2-2,3.8-4.2,3.8c-2.3,0-3.4-1.6-3.1-3.8
	C71.9,32.5,73.7,30.8,75.9,30.8 M76.6,25.6c-5.1,0-10.1,3.3-11,9s3.2,9,8.3,9s10.1-3.3,11-9S81.8,25.6,76.6,25.6"/>
<path class="st0" d="M93.4,28.3h0.1c1.3-1.7,3.3-2.7,5.4-2.7c2.2-0.2,4.3,1.1,5,3.2c1.3-2,3.5-3.2,5.9-3.2c4,0,5,2.8,4.4,6.7
	l-1.6,10.8H107l1.2-8.1c0.3-1.8,0.8-4.6-1.6-4.6c-2.6,0-3.1,2.6-3.4,4.6l-1.2,8.1h-5.7l1.2-8.1c0.3-1.9,0.7-4.8-1.8-4.8
	s-2.9,2.9-3.2,4.8l-1.2,8.1h-5.8l2.5-16.9h5.7L93.4,28.3z"/>
<path class="st0" d="M121.9,32.1c0.5-1.6,2.1-2.7,3.8-2.7c1.5-0.1,2.7,1.1,2.8,2.6c0,0,0,0.1,0,0.1H121.9z M133.3,35
	c0.9-5.8-1.8-9.4-7.3-9.4c-5.2,0-9.3,3.4-10.2,9c-0.9,5.8,2.6,9,7.9,9c3.9,0.2,7.5-2.2,9-5.8h-5.5c-0.6,1-1.7,1.6-2.9,1.5
	c-2.3,0-3.4-1.3-3-3.8h11.9L133.3,35z"/>
<path class="st0" d="M46.3,24.6l1.3-8.9c-1.5-0.7-3-1.2-4.6-1.4l-1.1,7.3C43.8,21.8,45.4,22.9,46.3,24.6"/>
<path class="st0" d="M44.9,34.1c-1.4,1.5-3.3,2.5-5.3,2.9l-1.1,7.3c1.7-0.3,3.4-0.7,5.1-1.3L44.9,34.1z"/>
<path class="st0" d="M38.5,44.3l1.1-7.3c-0.4,0.1-0.8,0.1-1.2,0.1c-4.4,0-6.8-3.3-6.1-7.8s4.1-7.9,8.4-7.9c0.4,0,0.9,0,1.3,0.1
	l1.1-7.3c-0.5,0-1-0.1-1.6-0.1c-4.1,0.1-8,1.8-11,4.6c-3,2.8-4.9,6.5-5.6,10.5c-0.6,4.3,0.2,8,2.7,10.8c2.4,2.7,5.9,4.3,9.5,4.2
	C37.7,44.4,38.1,44.4,38.5,44.3"/>
<path class="st0" d="M87.4,15.4c0.9,0,1.7,0.8,1.6,1.8c0,0.1,0,0.2,0,0.3c-0.2,1.1-1.1,2-2.2,2.2c-1.1,0-1.7-1.2-1.6-2.2
	C85.4,16.4,86.3,15.5,87.4,15.4 M86.6,20.9c1.9-0.1,3.5-1.5,3.7-3.4c0.3-1.5-0.6-3-2.1-3.3c-0.2,0-0.4-0.1-0.6-0.1
	c-1.9,0.1-3.4,1.5-3.7,3.4c-0.4,1.5,0.5,2.9,2,3.3C86.1,20.9,86.4,20.9,86.6,20.9"/>
<polygon class="st0" points="95.7,14.2 96.6,14.2 99.3,18.7 99.4,18.7 100,14.3 101.3,14.3 100.3,20.9 99.4,20.9 96.7,16.4 
	96.6,16.4 96,20.8 94.7,20.8 "/>
<polygon class="st0" points="106.9,19.7 108.7,19.7 108.5,20.8 105.5,20.8 106.4,14.3 107.7,14.3 "/>
<polygon class="st0" points="114.5,20.8 113.2,20.8 114.2,14.3 115.4,14.3 "/>
<polygon class="st0" points="120.6,14.2 121.6,14.2 124.3,18.7 124.3,18.7 124.9,14.3 126.2,14.3 125.2,20.9 124.3,20.9 121.6,16.4 
	121.6,16.4 120.9,20.8 119.7,20.8 "/>
<polygon class="st0" points="132.5,15.4 132.3,16.8 134.3,16.8 134.1,17.9 132.1,17.9 131.9,19.7 133.9,19.7 133.8,20.8 130.4,20.8 
	131.4,14.3 134.7,14.3 134.6,15.4 "/>
<path class="st0" d="M257.9,30.4c-0.6,2.8-1.5,5.4-2.6,8l-3.3-1.1c1.1-2.5,2-5.2,2.6-7.9L257.9,30.4z M263.7,28.3h-10.1
	c-0.2,0-0.4-0.1-0.5-0.4c0,0,0-0.1,0-0.1V1.7c0-0.2,0.2-0.4,0.4-0.5c0,0,0,0,0.1,0h10.1c0.4,0,0.5,0.2,0.5,0.5v26.1
	C264.2,28.1,264,28.3,263.7,28.3 M260.8,9.3V4.6c0-0.1-0.1-0.1-0.2-0.1h-4c-0.1,0-0.1,0-0.1,0.1v4.7H260.8z M260.8,12.5h-4.3v4.7
	h4.3L260.8,12.5z M256.5,20.3v4.6c0,0.1,0,0.2,0.1,0.2h4c0.1,0,0.2,0,0.2-0.2v-4.6H256.5z M262.4,29.8c1.1,2.1,1.9,4.3,2.5,6.5
	l-3.1,1c-0.6-2.2-1.5-4.3-2.5-6.4L262.4,29.8z M271.1,38.3h-3.4v-5.6h-2.3v-2.9h2.3V19c0-0.5,0.2-0.7,0.8-0.7h9V16h-11.6v-2.9h6.4
	v-2.4h-4.9V7.9h4.9V5.7h-6.1V2.8h6.1V0.2h3.4v2.7h7.2V0h3.4v2.8h5.8v2.9h-5.8v2.2h5v2.9h-5v2.4h6.5V16h-12v2.3h9.1
	c0.5,0,0.8,0.2,0.8,0.7v10.8h2v2.9h-2v2.2c0.1,1.2-0.6,2.4-1.6,3c-1.4,0.8-3.8,1-7.3,0.4l-0.2-3.5c2.6,0.6,4.2,0.8,4.8,0.4
	c0.5-0.3,0.9-0.8,0.9-1.5v-0.9H271L271.1,38.3z M277.4,21.1h-6.1c-0.2,0-0.2,0.1-0.2,0.2v2.8h6.4V21.1z M277.4,27h-6.4v2.8h6.4V27z
	 M282.9,5.7h-7.2v2.2h7.2V5.7z M282.9,10.7h-7.2v2.4h7.2V10.7z M280.8,24.1h6.6v-2.8c0-0.2-0.1-0.2-0.3-0.2h-6.3V24.1z M287.4,27
	h-6.6v2.8h6.6V27z"/>
<path class="st0" d="M303.8,11.3h-2.9c-0.3,2.5-0.8,4.9-1.5,7.3l-3.6-0.5c1.5-4.7,2.2-9.6,2.1-14.5V1.5h3.5v2.1c0,1-0.1,2.4-0.2,4.1
	h2.6V0h3.8v7.7h3.8v3.5h-3.8v10.1c1.3-0.7,2.4-1.4,3.4-2l2.1,2.9c-1.8,1.1-3.6,2.1-5.5,3v13.3h-3.8V26.9c-1.9,0.8-3.9,1.6-5.9,2.3
	l-2-3.2c3.2-1.1,5.8-2,7.9-2.9L303.8,11.3z M324,8.4c-0.2,1.7-0.4,3.3-0.7,4.9c-1.3,5.6-4.9,11.3-10.7,17l-3.2-1.9
	c4.2-4,7.1-7.6,8.7-10.8c1.3-2.9,2-6,2.3-9.2h-3.1c-1,3.1-2.5,6-4.3,8.7l-3.6-1.3c3.3-4.6,5.4-10,6.1-15.7l3.7,0.5
	c-0.3,1.5-0.6,3-0.9,4.3h16.9c0.3,0,0.5,0,0.7,0.2c0.4,0.2,0.6,0.9,0.6,1.9c0,6.1-0.1,11.5-0.2,16.2c-0.3,7.8-1.8,12.7-4.5,14.5
	c-1.7,1.1-4.9,1-9.6-0.2l-0.2-4.1c4,1.3,6.6,1.6,7.7,0.9c0.9-0.8,1.6-1.9,2-3.2c0.7-2.7,1-5.5,1-8.3c0.3-8.8,0.3-13.4,0-13.9
	c-0.1-0.2-0.3-0.3-0.5-0.3h-1.8c-0.2,5.8-1.5,11.5-3.9,16.8c-2.6,4.8-6.3,9-10.8,12l-3-2.6c9-5,13.7-13.7,14-26.1L324,8.4z"/>
<polygon class="st0" points="248.6,29.3 210.2,29.3 210.8,27.1 249.1,27.1 "/>
<polygon class="st0" points="247.4,33.5 209.1,33.5 209.6,31.4 248,31.4 "/>
<polygon class="st0" points="246.3,37.8 207.9,37.8 208.5,35.7 246.8,35.7 "/>
<path class="st0" d="M165.9,8.4c0.2-0.5,0.2-1.1-0.1-1.6c-0.4-0.4-1-0.6-1.5-0.5c-0.6,0-1.3,0.1-1.8,0.5c-0.5,0.4-0.8,1-0.9,1.6
	l-1.3,5.5h-13l0.6-2.6c1.1-4,3-6.8,5.8-8.5c2.8-1.6,7-2.5,12.5-2.5c5.2,0,8.8,0.8,10.9,2.4c2.1,1.6,2.7,4.1,1.9,7.4
	c-1,3.8-5.5,8.8-13.5,15l-3.5,2.8c-2.4,1.8-4.7,3.9-6.7,6.1c-0.5,0.7-0.9,1.4-1.3,2.1h18.1l-2,7.5h-31l1.9-7
	c0.6-1.9,1.5-3.7,2.8-5.2c2.3-2.6,4.9-4.9,7.7-7c0.8-0.6,2-1.6,3.6-2.8c6.3-4.9,9.6-8.2,10.1-10.1L165.9,8.4z"/>
<polygon class="st0" points="187,43.7 189.7,33.5 170.9,33.5 172.6,27.1 191.3,1.2 209.2,1.2 202.8,25 192.1,25 197.9,8 196.7,8 
	184.1,27.1 208.5,27.1 206.8,33.5 200.5,33.5 197.8,43.7 "/>
<path class="st0" d="M211.4,25l6.4-23.7h11.6l-3.1,11.4h0.2c1.1-1.2,2.5-2.1,4-2.6c1.6-0.6,3.3-0.9,5-0.9c2.5,0,4.3,0.5,5.3,1.5
	c1,1,1.3,2.4,0.7,4.4l-2.7,10h-11.7l2-7.6c0.2-0.8,0.2-1.3,0-1.6c-0.4-0.3-1-0.5-1.5-0.4c-0.6,0-1.2,0.1-1.7,0.5
	c-0.5,0.4-0.8,0.9-0.9,1.5l-2,7.6L211.4,25z"/>
</svg>
