<?xml version="1.0" encoding="utf-8"?>
<!-- Generator: Adobe Illustrator 24.3.0, SVG Export Plug-In . SVG Version: 6.00 Build 0)  -->
<svg version="1.1" id="群組_18" xmlns="http://www.w3.org/2000/svg" xmlns:xlink="http://www.w3.org/1999/xlink" x="0px" y="0px"
	 viewBox="0 0 390 160" style="enable-background:new 0 0 390 160;" xml:space="preserve">
<style type="text/css">
	.st0{fill-rule:evenodd;clip-rule:evenodd;fill:#1E1E1E;}
	.st1{fill-rule:evenodd;clip-rule:evenodd;}
	.st2{fill:#FEFCF7;}
	.st3{fill-rule:evenodd;clip-rule:evenodd;fill:#FFFFFF;}
	.st4{fill:#0C0103;}
	.st5{fill:#D99B00;}
	.st6{fill:#F7BEAD;}
	.st7{fill:#FEEDCD;}
	.st8{fill:#FCDA94;}
	.st9{fill:#FFFFFF;}
</style>
<g>
	<path id="形狀_512_拷貝_6" class="st0" d="M179,65.8c-0.6-2.3-6.2-4.5-6.2-4.5c1.6,0.2,3.3,0.1,4.8-0.3c0.7-0.2,1.4-0.4,2-0.7
		c-0.5-0.6-1-1.3-1.4-2c-1.3-2.5-2-5.3-1.8-8.1c0.2-3.2,1.6-6.2,4-8.3c1.6-1.4,3.5-2.6,5.5-3.4c-0.8-2.4-1-5-0.3-7.5
		c0.6-2.6,2.1-5,4.3-6.6c1.4-1,2.9-1.7,4.6-2.1c0.6-0.1,1.1-0.2,1.7-0.3c1.1-0.1,2.3-0.1,3.4,0.1c3.3-2.4-2.3-9.1-2.3-9.1
		s7.2,5.7,9.7,5.1l0,0c3.1-0.8,5.7-4.8,9.3-13c0,0-2.3,7.8-1.7,10.3c0.5,2.1,3.5,2.4,5.9,1.8h0.1c0,0-2.3,2.1-3,3.7
		c-0.2,0.4-0.1,0.9,0.1,1.3c1.2,0.3,2.4,0.8,3.4,1.5c4,2.4,6.3,6.8,6.1,11.4c1.5,0.4,3,1.1,4.4,1.8c1.4,0.8,2.6,1.8,3.7,2.9
		c1.9,2,3,4.7,3.1,7.4c0,1.2-0.1,2.3-0.4,3.5c0.9,1.2,3.1,2.8,8.1,3.3c-0.7,0.1-1.4,0.2-2.1,0.4c-1.4,0.3-3,1-3.5,2.1
		c-0.7,1.7,1.6,4.2,8.2,7c0,0-10.2-3.4-13.7-2.6c-0.3,0.1-0.6,0.2-0.9,0.5c-1.6,1.6-0.9,4.4,3,13c0,0-4.5-5.5-6.2-5.2c0,0,0,0-0.1,0
		c-1.1,0.3-2.1,2.9-3,6.9c0,0,0.1-6.4-1.2-7.3c-0.3-0.2-0.6-0.3-0.9-0.3c-0.8,0.9-1.8,1.7-2.8,2.3c-1,0.6-2.2,1.1-3.4,1.4
		c-0.6,0.1-1.2,0.3-1.9,0.3c-1.6,0.1-3.2,0.1-4.7-0.2c-1.4-0.3-2.8-0.7-4.1-1.3c-1.7,1.7-3.9,2.9-6.3,3.5c-0.4,0.1-0.8,0.2-1.2,0.3
		c-2.3,0.4-4.7,0.2-7-0.6c-1.5-0.5-2.9-1.3-4.1-2.3c-0.4-0.1-0.8,0-1.1,0.1c-0.4,0.1-0.7,0.3-1,0.5c-1.8,1.4-2.6,8-2.6,8
		c-0.4-6.3-0.8-8.3-2.8-9.3c-0.3-0.1-0.7-0.2-1.1,0c-3.1,0.8-9.8,7-9.8,7C177.6,71.3,179.5,67.6,179,65.8z M227.2,68.1
		c0.5,0.3,1,0.9,1.3,3.1c0.9-2.1,1.6-2.7,2.3-2.8h0.1c0.6-0.1,1.3,0.2,2.3,0.9c0.4,0.3,0.9,0.7,1.3,1.1c-0.7-1.5-1.2-3.1-1.6-4.8
		c-0.2-0.9-0.3-1.8-0.2-2.7c0.1-0.7,0.5-1.4,1-2c0.4-0.3,0.8-0.6,1.3-0.7c1.3-0.2,2.6-0.2,4,0c0.9,0.1,2,0.3,3.2,0.6
		c-0.9-0.7-1.7-1.5-2.2-2.6c-0.3-0.6-0.3-1.3,0-2c0.5-1,1.4-1.7,2.4-2.1c-0.5-0.1-0.9-0.3-1.3-0.5c-1.1-0.4-2.1-1-2.9-1.8l-0.1-0.1
		c-0.2,0.7-0.5,1.3-0.9,1.9c-0.9,1.6-2.1,2.9-3.5,4c-1.4,1-2.9,1.8-4.5,2.4c0.1,2.8-0.8,5.5-2.6,7.8C226.8,67.8,227,67.9,227.2,68.1
		z M201.7,22.5c1.6,0.5,3.1,1.2,4.4,2.1c1.5-1.2,3.2-2,5.1-2.5c0.1,0,0.3-0.1,0.4-0.1c1.7-0.4,3.5-0.4,5.3-0.1
		c-0.1-0.5-0.1-0.9,0.1-1.4c0.4-0.8,0.9-1.6,1.5-2.3c-0.6,0-1.1-0.1-1.7-0.2c-1.4-0.2-2.5-1.2-2.9-2.5c-0.2-1.2-0.2-2.4,0.1-3.5
		c-0.5,1-1.1,1.9-1.7,2.8c-1.6,2.3-3.2,3.6-4.9,4.1l0,0c-1.1,0.1-2.1-0.1-3.1-0.6c-1.2-0.5-2.3-1.1-3.3-1.8
		c-0.1-0.1-0.3-0.2-0.4-0.3c1,2,1.3,3.6,0.8,4.9c-0.1,0.4-0.3,0.8-0.6,1.1l0,0h-0.1C201.1,22.3,201.4,22.4,201.7,22.5L201.7,22.5z
		 M183.3,70.3c1.2,0.7,2.1,1.9,2.4,3.2c0.1,0.5,0.2,1,0.3,1.5c0.5-1.7,1.1-2.8,1.8-3.3c0.5-0.4,1.1-0.7,1.8-0.7
		c-0.9-1-1.6-2.1-2.2-3.3c-0.5-1.1-0.9-2.4-1.1-3.6c-2.3-0.4-4.4-1.5-6.1-3.2c-0.8,0.4-1.6,0.7-2.4,0.9c-0.5,0.1-1,0.2-1.5,0.3
		c0.7,0.4,1.3,0.9,2,1.4s1.2,1.3,1.5,2.1c0.1,0.7,0.1,1.5-0.1,2.2c-0.3,0.9-0.7,1.9-1.2,2.7c-0.4,0.7-0.8,1.4-1.4,2.2
		c1.3-1.1,2.9-1.9,4.5-2.5C182.2,70,182.8,70,183.3,70.3L183.3,70.3z M172.5,31.4c-0.3-0.2-0.4-0.5-0.3-0.8l0,0l0,0
		c0.2-0.3,0.5-0.4,0.8-0.2l0,0l5.7,3.9L172.5,31.4z M176,27.1L176,27.1c0.2-0.2,0.6-0.2,0.8,0l0,0l5,6.1L176,28
		C175.8,27.8,175.7,27.4,176,27.1L176,27.1L176,27.1z M171.1,35.9c-0.3-0.1-0.5-0.4-0.4-0.7l0,0l0,0c0.1-0.3,0.5-0.5,0.8-0.3l0,0
		l9.3,2.4L171.1,35.9z M241.2,27.8c0.3-0.1,0.7,0,0.8,0.3l0,0l0,0c0.1,0.3,0,0.7-0.3,0.8l0,0l-8.8,3L241.2,27.8z M240.5,24.9
		L230.4,31l9.4-7.2c0.3-0.2,0.6-0.2,0.9,0.1l0,0l0,0C240.8,24.3,240.8,24.6,240.5,24.9C240.5,24.8,240.5,24.9,240.5,24.9L240.5,24.9
		z M234.5,24.6l-3.3,2.8l2.1-3.3c0.2-0.3,0.6-0.3,0.9-0.1l0,0c0.2,0,0.4,0.1,0.4,0.3C234.6,24.4,234.6,24.5,234.5,24.6L234.5,24.6z
		 M208,75.3l1.2,9.2c0,0.3-0.2,0.6-0.6,0.6c-0.3,0.1-0.5-0.1-0.6-0.3v-0.1L208,75.3z M212.2,80.4c-0.3,0.1-0.7-0.1-0.7-0.4l0,0
		l-1.7-4.8l2.9,4.5C212.7,79.9,212.5,80.3,212.2,80.4L212.2,80.4L212.2,80.4z M205.6,74.7l-2.4,6c-0.1,0.3-0.4,0.5-0.7,0.5
		s-0.5-0.4-0.5-0.7c0,0,0,0,0-0.1L205.6,74.7z"/>
	<g>
		<path id="日本進口_限量獨家_3_" class="st1" d="M34.7,56.4l0.4-5.9h12.5l-0.4,5.9H34.7z M48.3,40.8l-0.4,5.5H35.4l0.4-5.5
			H48.3L48.3,40.8z M31.6,36.3l-1.9,26.5h4.5l0.1-2h12.5l-0.1,2h4.7l1.9-26.5H31.6L31.6,36.3z M76.5,54l0.6-9.2
			c0.8,3.2,2.1,6.3,3.8,9.2H76.5L76.5,54z M67.3,54c2.1-2.9,3.9-6,5.2-9.3l0,0L71.9,54H67.3z M88.3,44.7l0.3-4.5H77.5l0.4-5.6h-4.7
			l-0.4,5.6h-11l-0.3,4.5H68c-2,4.3-5,8.3-8.4,10.7c1.1,1.1,2.1,2.2,3,3.5c1.2-0.9,2.3-2,3.3-3.1l-0.2,2.7h5.9l-0.3,4.8H76l0.3-4.8
			H82l0.2-2.5c0.7,1,1.6,2,2.5,2.8c1.1-1.4,2.3-2.7,3.8-3.9c-3-2.3-5.4-6.2-6.9-10.2H88.3L88.3,44.7z M102.4,39.1
			c-1.2-1.6-2.4-3.1-3.8-4.5l-3.4,2c1.4,1.5,2.6,3.2,3.7,4.9L102.4,39.1z M111.8,44.1h-3.3l0.1-1.4h3.3L111.8,44.1z M111.5,48.8
			h-3.3l0.1-1.4h3.3L111.5,48.8z M111.2,53.5h-3.3L108,52h3.3L111.2,53.5z M100.7,48.8l-0.7,0.1h-1.5c1-1.3,2.2-2.7,3.2-4.1
			c0.5,0.9,1,1.8,1.3,2.8c0.5-0.5,1-1,1.6-1.6l-0.8,11h17.1l0.2-3.5h-6.2L115,52h4.6l0.2-3.2h-4.6l0.1-1.4h4.5l0.2-3.2h-4.5l0.1-1.4
			h5.8l0.2-3.4H117c-0.3-1.5-0.8-2.9-1.4-4.3l-3.6,1c0.4,1.1,0.7,2.2,1,3.3h-3.8c0.6-1.1,1.2-2.3,1.7-3.5l-3.4-1
			c-1.1,2.8-2.7,5.3-4.7,7.6l-2-0.9l-0.4,0.1h-6.1l-0.2,3.4h3.4c-0.8,1.1-1.7,2.2-2.7,3.2c-0.5,0.5-1,0.8-1.7,1
			c0.4,1.1,0.8,2.3,1.1,3.4c0.6-0.3,1.3-0.5,1.9-0.5h2.1c-1.2,3.8-3.3,6.5-6.1,8.1c1,0.8,1.9,1.8,2.6,2.9c1.6-1,2.9-2.3,4-3.9
			c2.1,2.8,5.3,3.3,10.5,3.3c3.6,0,7.5-0.1,10.8-0.3c0.3-1.4,0.9-2.8,1.7-4c-3.6,0.4-8.9,0.6-12.2,0.6c-4.4,0-7.4-0.4-8.9-3
			c0.9-2.1,1.6-4.2,2.1-6.4L100.7,48.8z M132.6,55.8l1-13.9h15.1l-1,13.9L132.6,55.8L132.6,55.8z M129.3,37.5l-1.8,25.2h4.6l0.2-2.4
			h15.1l-0.2,2.4h4.8l1.8-25.2H129.3L129.3,37.5z M242.6,35.6l-0.6,0.1h-7.2L232.9,63h3.8l1.6-23.4h2.2c-0.5,1.9-1.2,4.3-1.8,6
			c1,1.5,1.5,3.3,1.4,5.2c0,0.6-0.2,1.2-0.6,1.7c-0.2,0.1-0.5,0.2-0.8,0.2c-0.4,0-0.7,0-1.1,0c0.5,1.2,0.7,2.5,0.6,3.7
			c0.6,0,1.3,0,1.9-0.1c0.7-0.1,1.3-0.3,1.9-0.7c1.1-0.8,1.6-2.1,1.7-4.2c0.2-2.2-0.3-4.3-1.5-6.1c0.9-2.3,2.1-5.3,3-7.9L242.6,35.6
			z M248.7,57.7l0.5-7.7h1.2c0.4,2.4,1,4.7,1.9,7L248.7,57.7z M255.4,39.5l-0.1,1.6h-5.4l0.1-1.6H255.4z M249.6,44.6h5.4l-0.1,1.7
			h-5.4L249.6,44.6z M257.7,50c-0.9,0.9-1.8,1.8-2.8,2.6c-0.3-0.8-0.6-1.7-0.8-2.6H257.7z M257.9,50h1l1-14.2H246l-1.5,21.3
			c-0.1,1.2-0.7,2.3-1.8,2.9c0.7,1,1.3,2.2,1.6,3.4c0.8-0.5,2.1-1,8-2.4c-0.1-1.3,0-2.6,0.1-3.9c1,2.5,2.8,4.7,5.1,6.1
			c0.9-1.4,2-2.7,3.2-3.8c-1.7-0.8-3.1-2.1-4.1-3.6c1.2-0.8,2.6-1.8,3.9-2.7L257.9,50z M286.1,38.3H275v-0.7h11.1V38.3z M285.9,41
			h-11.1v-0.7H286L285.9,41z M290.7,35.6H271l-0.5,7.5h19.7L290.7,35.6z M273.3,53.1v-0.7h4.2v0.7H273.3z M273.6,49.7h4.2v0.7h-4.2
			V49.7z M286.1,50.4H282v-0.7h4.1V50.4z M285.9,53.1h-4.1v-0.7h4.1V53.1z M281.4,58.6h8.9l0.2-2.7h-8.9v-0.6h8.4l0.5-7.8h-20.9
			l-0.5,7.8h8.3v0.6h-8.8l-0.2,2.7h8.8v0.7h-11.6l-0.2,3.1H293l0.2-3.1h-11.8V58.6z M266.6,43.8l-0.2,3H294l0.2-3H266.6z M321,56.2
			l0.4-6.4h-4.6l0.1-1.2h-3.2l-0.1,1.2h-3c0.6-0.5,1.1-1,1.6-1.6h10.6c-0.6,7.5-1,10.1-1.5,10.8c-0.1,0.1-0.2,0.2-0.3,0.3
			c-0.2-1.1-0.5-2.1-0.8-3.1H321z M316.3,57.4l0.1-1.2h2.1l-1.3,0.4c0.1,0.2,0.2,0.5,0.3,0.7L316.3,57.4z M316.7,52.4h1.3l-0.1,1.2
			h-1.3L316.7,52.4z M312.1,53.6l0.1-1.2h1.2l-0.1,1.2H312.1z M309.3,43.6h1.7c-0.8,1.3-1.9,2.5-3.1,3.5c0-2-0.4-4.1-1-6
			c1-1.2,2-2.5,2.8-3.9L309.3,43.6z M313.3,38.8h1.2l-0.1,1.6h-1.2L313.3,38.8z M317.5,38.8h1.2l-0.1,1.6h-1.2L317.5,38.8z
			 M321.7,38.8h1.3l-0.1,1.6h-1.3L321.7,38.8z M314.7,44.8c0.2-0.4,0.5-0.8,0.7-1.2h11.1l0.6-7.9h-17.2l-0.1,1.1l-3.5-1.8
			c-0.4,0.8-0.9,1.5-1.4,2.2c-0.6-0.9-1.4-1.7-2.2-2.5l-3.2,2.3c1.1,1.1,2,2.3,2.7,3.6c-1.1,1.1-2.2,2.1-3.5,3c1,0.8,2,1.8,2.7,2.8
			c0.7-0.5,1.4-1.1,2.1-1.7c0.1,0.8,0.2,1.5,0.2,2.3c-1.5,2.2-3.5,4.2-5.7,5.6c1,0.9,1.9,2,2.6,3.2c1-0.9,2-1.8,2.9-2.8
			c-0.3,2.7-0.6,4.9-1.1,5.5c-0.2,0.3-0.6,0.5-0.9,0.5c-0.9,0.1-1.7,0.1-2.6,0c0.6,1.3,0.9,2.7,0.7,4.1c1.2,0.1,2.5,0,3.7-0.3
			c0.8-0.2,1.5-0.6,2-1.3c1.6-2,2.1-6.3,2.4-10.4c0.1-0.9,0.1-1.7,0.1-2.6c0.4,0.4,0.9,0.8,1.3,1.2l-0.4,6.4h4.4l-0.1,1.5
			c-2.1,0.2-4,0.3-5.5,0.4l0.1,3.5c2.9-0.3,6.7-0.7,10.4-1.2c0,0.3,0.1,0.7,0.1,1l1.1-0.3c0.2,0.7,0.2,1.4,0.2,2.2c1,0.1,2,0,3-0.2
			c0.9-0.2,1.7-0.7,2.2-1.5c0.9-1.2,1.3-5,2.3-15.1c0-0.5,0.1-1.7,0.1-1.7L314.7,44.8L314.7,44.8z M337.7,40.8h17.8l-0.2,3.3h4.5
			l0.5-7.2h-10.5c-0.3-0.9-0.6-1.8-1-2.6l-4.8,1.3c0.2,0.4,0.3,0.8,0.4,1.3h-10.7l-0.5,7.2h4.3L337.7,40.8z M343.3,59.2
			c-0.7,0-1.4,0-2.4-0.1c1.6-0.7,3.2-1.6,4.7-2.5c-0.1,0.7-0.3,1.3-0.8,1.9C344.5,59,343.9,59.3,343.3,59.2L343.3,59.2z M354.3,45.5
			c-1.7,1.6-3.6,3-5.5,4.3c-0.5-1.2-1.3-2.2-2.2-3.2c0.6-0.4,1.2-0.8,1.7-1.3h6.3l0.3-3.7h-16.6l-0.3,3.7h4.1
			c-2.9,1.3-6,2.2-9.2,2.7c0.8,1.1,1.4,2.2,2,3.4c2.9-0.7,5.7-1.7,8.4-2.9c0.2,0.2,0.3,0.4,0.4,0.5c-2.7,1.7-7.7,3.4-11.4,4.1
			c0.8,1,1.4,2.2,1.9,3.3c3.8-1.2,7.5-2.8,11-4.7c0.1,0.2,0.1,0.4,0.2,0.6c-3.2,2.4-9.1,4.9-13.9,5.9c0.8,1.1,1.5,2.3,2,3.6
			c2.4-0.8,4.8-1.7,7.2-2.8c0.6,1.2,0.9,2.6,0.8,3.9c0.8,0,1.7,0.1,2.4,0c1.5,0.1,2.9-0.5,4-1.6c1.6-1.4,2.5-4.7,2-8.1l0.6-0.4
			c1.1,4,3.1,7,6.4,8.8c0.9-1.3,1.9-2.5,3.1-3.6c-3.2-1.4-5.1-4.2-5.9-7.4c1.2-0.8,2.5-1.7,3.6-2.5L354.3,45.5z"/>
		<path id="日本進口_限量獨家_1_" d="M348.8,34.3c0.4,0.8,0.7,1.7,1,2.6h10.5l-0.5,7.2h-4.5l0.2-3.3h-17.8l-0.2,3.3h-4.3
			l0.5-7.2h10.7c-0.1-0.5-0.3-0.9-0.4-1.3L348.8,34.3 M98.6,34.6c1.4,1.4,2.6,2.9,3.8,4.5l-3.5,2.4c-1.1-1.7-2.3-3.4-3.7-4.9
			L98.6,34.6 M77.9,34.6l-0.4,5.6h11.1l-0.3,4.5l0,0h-6.7c1.5,4,3.8,7.8,6.9,10.2c-1.4,1.1-2.7,2.4-3.8,3.9
			c-0.9-0.9-1.8-1.8-2.5-2.8L82,58.4h-5.8l-0.3,4.8h-4.7l0.3-4.8h-5.9l0.2-2.7c-1,1.2-2.1,2.2-3.3,3.1c-0.8-1.3-1.8-2.5-3-3.5
			C63,53,66,48.9,68,44.7h-6.5l0.3-4.5h11l0.4-5.6L77.9,34.6 M67.3,54h4.6l0.7-9.3l0,0C71.2,48,69.4,51.1,67.3,54 M76.5,54L76.5,54
			h4.4c-1.7-2.9-2.9-6-3.8-9.2L76.5,54 M302.7,34.7c0.8,0.8,1.6,1.6,2.2,2.5c0.5-0.7,1-1.4,1.4-2.2l3.5,1.8l0.1-1.1H327l-0.6,7.9
			h-11.1c-0.2,0.4-0.4,0.8-0.7,1.2l0,0H327c0,0-0.1,1.2-0.1,1.7c-0.9,10.1-1.4,13.9-2.3,15.1c-0.5,0.8-1.3,1.3-2.2,1.5
			c-0.8,0.1-1.5,0.2-2.3,0.2c-0.2,0-0.5,0-0.7,0c0-0.7-0.1-1.5-0.2-2.2l-1.1,0.3c0-0.3,0-0.6-0.1-1c-3.7,0.4-7.5,0.9-10.4,1.2
			l-0.1-3.5c1.5-0.1,3.4-0.2,5.5-0.4l0.1-1.5h-4.4l0.4-6.4c-0.4-0.4-0.9-0.8-1.3-1.2c0,0.8-0.1,1.7-0.1,2.6
			c-0.3,4.2-0.9,8.4-2.4,10.4c-0.5,0.6-1.2,1.1-2,1.3c-0.9,0.2-1.8,0.3-2.8,0.3c-0.3,0-0.6,0-1,0c0.1-1.4-0.1-2.9-0.7-4.1
			c0.5,0,1,0.1,1.5,0.1c0.4,0,0.8,0,1.1,0c0.4,0,0.7-0.2,0.9-0.5c0.5-0.6,0.9-2.8,1.1-5.5c-0.9,1-1.9,2-2.9,2.8
			c-0.7-1.2-1.6-2.3-2.6-3.2c2.3-1.5,4.2-3.4,5.7-5.6c0-0.8-0.1-1.5-0.2-2.3c-0.7,0.6-1.4,1.2-2.1,1.7c-0.8-1.1-1.7-2-2.7-2.8
			c1.3-0.9,2.4-1.9,3.5-3c-0.7-1.3-1.6-2.5-2.7-3.6L302.7,34.7 M307.9,47.1c1.2-1,2.2-2.2,3.1-3.5h-1.7l0.4-6.3
			c-0.9,1.3-1.8,2.6-2.8,3.9C307.6,43.1,307.9,45.1,307.9,47.1 M321.6,40.4h1.3l0.1-1.6h-1.3L321.6,40.4 M317.4,40.4h1.2l0.1-1.6
			h-1.2L317.4,40.4 M313.2,40.4h1.2l0.1-1.6h-1.2L313.2,40.4 M322.8,48.2h-10.6c-0.5,0.6-1,1.1-1.6,1.6h3l0.1-1.2h3.2l-0.1,1.2h4.6
			l-0.4,6.4h-0.8c0.4,1,0.6,2,0.8,3.1c0.1-0.1,0.2-0.2,0.3-0.3C321.8,58.3,322.2,55.7,322.8,48.2 M316.6,53.6h1.3l0.1-1.2h-1.3
			L316.6,53.6 M312.1,53.6h1.2l0.1-1.2h-1.2L312.1,53.6 M316.3,57.4l1.1-0.1c-0.1-0.2-0.2-0.5-0.3-0.7l1.3-0.4h-2.1V57.4
			 M107.4,34.9l3.4,1c-0.5,1.1-1.1,2.3-1.7,3.5h3.8c-0.3-1.1-0.6-2.2-1-3.3l3.6-1c0.6,1.4,1.1,2.8,1.4,4.3h4.7l-0.2,3.4h-5.8
			l-0.1,1.4h4.5l-0.2,3.2h-4.5l-0.1,1.4h4.6l-0.2,3.2H115l-0.1,1.5h6.2l-0.2,3.5h-17.1l0.8-11c-0.5,0.6-1,1.1-1.6,1.6
			c-0.4-1-0.8-1.9-1.3-2.8c-1,1.3-2.1,2.8-3.2,4.1h1.5l0.7-0.1l2,0.8c-0.5,2.2-1.2,4.4-2.1,6.4c1.5,2.6,4.6,2.9,8.9,3
			c3.2,0,8.5-0.2,12.2-0.6c-0.8,1.2-1.3,2.6-1.7,4c-3.3,0.2-7.2,0.3-10.8,0.3c-5.1,0-8.4-0.5-10.5-3.3c-1.1,1.5-2.4,2.8-4,3.9
			c-0.7-1.1-1.6-2.1-2.6-2.9c2.8-1.6,4.8-4.3,6.1-8.1h-2.1H96c-0.6,0-1.3,0.2-1.8,0.5c-0.3-1.2-0.6-2.3-1.1-3.4
			c0.6-0.2,1.2-0.5,1.7-1c0.9-1,1.8-2.1,2.7-3.2h-3.4l0.2-3.4h6.1l0.4-0.1l2,0.9C104.7,40.2,106.3,37.6,107.4,34.9 M108.6,44.1h3.3
			l0.1-1.4h-3.3L108.6,44.1 M108.2,48.8h3.3l0.1-1.4h-3.3L108.2,48.8 M107.9,53.5h3.3l0.1-1.5H108L107.9,53.5 M290.7,35.6l-0.5,7.5
			h-19.7l0.5-7.5H290.7 M275,38.3h11.1v-0.7H275V38.3 M274.8,41h11.1v-0.7h-11.1V41 M242.6,35.6l2.7,1.6c-0.9,2.6-2,5.6-3,7.9
			c1.2,1.8,1.7,4,1.5,6.1c-0.1,2.1-0.7,3.5-1.7,4.2c-0.6,0.4-1.2,0.6-1.9,0.7c-0.5,0.1-1,0.1-1.5,0.1c-0.1,0-0.3,0-0.4,0
			c0.1-1.3-0.1-2.6-0.6-3.7c0.2,0,0.5,0,0.7,0c0.1,0,0.2,0,0.3,0l0,0c0.3,0,0.5-0.1,0.7-0.2c0.4-0.5,0.6-1,0.6-1.7
			c0.1-1.8-0.3-3.7-1.4-5.2c0.6-1.7,1.3-4,1.8-5.9h-2.2l-1.6,23.4h-3.8l1.9-27.3h7.2L242.6,35.6 M259.9,35.8l-1,14.2h-1l2.5,3
			c-1.3,0.9-2.7,1.9-3.9,2.7c1,1.6,2.4,2.8,4.1,3.6c-1.2,1.1-2.3,2.4-3.2,3.8c-2.3-1.5-4.1-3.6-5.1-6.1c-0.1,1.3-0.2,2.6-0.1,3.9
			c-5.8,1.4-7.1,1.9-8,2.4c-0.3-1.2-0.9-2.3-1.6-3.4c1-0.6,1.7-1.7,1.8-2.9l1.5-21.3L259.9,35.8 M249.9,41.1h5.4l0.1-1.6H250
			L249.9,41.1 M249.5,46.3h5.4l0.1-1.7h-5.4L249.5,46.3 M254.9,52.6c1-0.8,1.9-1.7,2.8-2.6h-3.5C254.4,50.9,254.6,51.7,254.9,52.6
			 M248.7,57.7l3.6-0.7c-0.9-2.2-1.6-4.6-1.9-7h-1.2L248.7,57.7 M53.3,36.3l-1.9,26.5h-4.7l0.1-2H34.4l-0.1,2h-4.5l1.9-26.5H53.3
			 M35.4,46.2h12.5l0.4-5.5l0,0H35.8L35.4,46.2 M34.7,56.4h12.5l0.4-5.9H35.1L34.7,56.4 M31.6,36.3L31.6,36.3L31.6,36.3 M153.7,37.5
			L152,62.7h-4.8l0.2-2.4h-15.1l-0.2,2.4h-4.6l1.8-25.2l0,0H153.7 M132.6,55.8L132.6,55.8h15.1l1-13.9h-15.1L132.6,55.8 M354.9,41.8
			l-0.3,3.7h-6.3c-0.5,0.5-1.1,0.9-1.7,1.3c0.9,0.9,1.6,2,2.2,3.2c1.9-1.3,3.8-2.8,5.5-4.3l3.4,2.9c-1.1,0.8-2.4,1.7-3.6,2.5
			c0.9,3.2,2.8,6,5.9,7.4c-1.2,1-2.2,2.2-3.1,3.6c-3.4-1.7-5.3-4.8-6.4-8.8l-0.6,0.4c0.5,3.5-0.4,6.8-2,8.1c-1,1-2.3,1.6-3.7,1.6
			c-0.1,0-0.2,0-0.3,0c-0.2,0-0.4,0-0.6,0c-0.5,0-1.1,0-1.7,0c0-1.4-0.2-2.7-0.8-3.9c-2.3,1.1-4.7,2-7.2,2.8c-0.5-1.3-1.2-2.5-2-3.6
			c4.8-1,10.7-3.5,13.9-5.9c0-0.2-0.1-0.4-0.2-0.6c-3.5,2-7.2,3.5-11,4.7c-0.5-1.2-1.1-2.3-1.9-3.3c3.7-0.7,8.7-2.5,11.4-4.1
			c-0.1-0.2-0.3-0.4-0.4-0.5c-2.7,1.3-5.5,2.2-8.4,2.9c-0.5-1.2-1.2-2.3-2-3.4c3.2-0.5,6.2-1.4,9.2-2.7H338l0.3-3.7h16.6
			 M343.5,59.2c0.6,0,1.1-0.3,1.3-0.8c0.4-0.5,0.7-1.2,0.8-1.9c-1.5,0.9-3.1,1.8-4.7,2.5c0.9,0.1,1.7,0.1,2.4,0.1l0,0
			C343.4,59.2,343.4,59.2,343.5,59.2 M294.2,43.8l-0.2,3h-27.6l0.2-3H294.2 M290.6,47.5l-0.5,7.8h-8.4v0.6h8.9l-0.2,2.7h-8.9v0.7
			h11.8l-0.2,3.1h-27.6l0.2-3.1h11.6v-0.7h-8.8l0.2-2.7h8.8v-0.6h-8.3l0.5-7.8H290.6 M282,50.4h4.1v-0.7H282V50.4 M273.5,50.4h4.2
			v-0.7h-4.2V50.4 M281.8,53.1h4.1v-0.7h-4.1V53.1 M273.3,53.1h4.2v-0.7h-4.2V53.1 M350.4,30.7l-2.4,0.7l-4.8,1.3l-3.2,0.9l0.1,0.3
			h-6.4H331l-0.2,2.8l-0.4,5.1h-0.8l0.4-5.9l0.2-3.2H327h-17.2h-1.5l-0.7-0.3l-2.6-1.3l-0.7,1.2l-1.5-1.4l-2,1.4l-3.2,2.3l-2.9,2.1
			l2.6,2.5c0.3,0.3,0.6,0.6,0.9,1c-0.3,0.3-0.6,0.5-0.9,0.7v-0.1h-3.2h-0.8l0.4-5l0.2-3.2h-3.2H271h-2.8l-0.2,2.8l-0.4,5.4h-1.1
			h-2.8l-0.2,2.8l-0.2,3l-0.2,3.2h3.2h0.1l-0.2,3.1h-0.5l-0.2,2.8v0.6l0,0h-2.8V57l-0.7-0.3c-0.3-0.1-0.6-0.3-0.9-0.5
			c0.4-0.3,0.7-0.5,1-0.8l2.6-1.9l-2.1-2.5l-0.8-1l1-14.1l0.2-3.2h-3.2H246h-2.3l-0.6-0.3l-1.2,0.3l-0.3,0.1h-6.8H232l-0.2,2.8
			L230,62.9l-0.2,3.2h3.2h3.8h2.8l0.2-2.8l0.2-2.2l0.4,0.6c0.5,0.7,0.9,1.6,1.2,2.5l1.1,3.9l3.4-2.1c0.6-0.4,2.7-1,7.1-2l0.4-0.1
			c0.7,0.7,1.6,1.3,2.5,1.9l2.5,1.6l1.6-2.5c0.7-1,1.4-2,2.3-2.8v0.3l-0.2,3.2h3.2h27.6h2.8l0.2-2.8l0.2-2.7l0.1,0.3
			c0.4,0.8,0.5,1.7,0.5,2.6l-0.3,3l3,0.3c0.4,0,0.8,0.1,1.2,0.1c1.2,0,2.4-0.1,3.5-0.4c0.8-0.2,1.6-0.6,2.3-1.1l1.7-0.2l1.2-0.1
			c1.8-0.2,3.8-0.4,6-0.7l0.1,1.6l1.1-0.3v1l2.8,0.2c0.3,0,0.6,0,0.9,0c0.9,0,1.9-0.1,2.8-0.3c1.7-0.3,3.2-1.3,4.2-2.7
			c0.6-0.8,1-1.8,1.3-3.7l0.6,0.8c0.7,0.9,1.2,1.8,1.6,2.9l1,2.6l2.7-0.8c1.4-0.4,2.7-0.9,4.1-1.5l-0.1,2.6l3,0.1c0.6,0,1.3,0,1.9,0
			c0.2,0,0.4,0,0.6,0c0.1,0,0.2,0,0.3,0c2.2,0,4.3-0.9,5.8-2.4c0.7-0.6,1.2-1.4,1.7-2.3c1.1,1.2,2.4,2.2,4,3l2.4,1.3l1.5-2.3
			c0.7-1.1,1.6-2.1,2.5-2.9l3.7-3.2l-4.4-1.9c-1.7-0.7-2.8-2.1-3.5-3.4c0.6-0.4,1.2-0.8,1.8-1.3l3-2.3l-1.7-1.5h1.7l0.2-2.8l0.5-7.2
			l0.2-3.2h-3.2h-8.4c-0.1-0.3-0.3-0.6-0.4-0.9L350.4,30.7L350.4,30.7z M330.1,45.6c0-0.3,0.1-0.5,0.1-0.5l0.2-2.4l-0.1,1.2
			L330.1,45.6L330.1,45.6L330.1,45.6z M293.4,49.8h0.6h2.8L297,47l0.1-0.9c0.7,0.6,1.4,1.3,1.9,2c-0.8,0.8-1.6,1.5-2.6,2.1l-3.2,2.1
			l2.8,2.6c0.3,0.3,0.6,0.6,0.9,0.9l-3-0.3l0.4,0.8h-0.9v-0.2l0.2-3.2h-0.5L293.4,49.8L293.4,49.8z M329.6,50.7
			c0.1-0.6,0.1-1.2,0.2-1.8l0.7,1c0.1,0.2,0.3,0.4,0.4,0.6L329.6,50.7L329.6,50.7z M329,55.9c0.1-0.5,0.1-1,0.2-1.6l0.6,0.8
			c0.1,0.2,0.3,0.4,0.4,0.6L329,55.9L329,55.9z M99.1,30.8L97,32l-3.4,2l-3.1,1.9l1.1,1.3h-3.1h-7.9l0.2-2.3l0.2-3.2h-3.2h-4.7h-2.8
			l-0.2,2.8L70,37.2h-8.2H59L58.8,40l-0.3,4.5l-0.2,3.2h3.2h1.3c-1.5,2.2-3.2,4-5,5.2l-2.9,2l1.3-18.3l0.2-3.2h-3.2H31.6l0,0h-2.8
			l-0.2,2.8l-1.9,26.5l-0.2,3.2h3.2h4.5H37l0.1-2h6.5l-0.1,2h3.2h4.7h2.8l0.2-2.8l0.6-7.9l2.5,2.4c1,0.9,1.8,1.9,2.5,3l1.8,2.7
			l2.3-1.8h1.5h2.7L68.2,63L68,66.2h3.2h4.7h2.8l0.2-2.8l0.1-2h3h1.2l1.9,1.8l2-2.7c0.1-0.1,0.2-0.2,0.2-0.3l2.8,2.4
			c0.8,0.6,1.4,1.4,2,2.2l1.6,2.5l2.5-1.6c1-0.6,1.8-1.3,2.7-2.1c2.9,1.9,6.6,2.1,10.2,2.1c2.8,0,7-0.1,11-0.3l2.2-0.1l0.5-2.2
			c0.3-1.1,0.7-2.2,1.3-3.1l0.5-0.9l-0.2,3.4l-0.2,3.2h3.2h4.6h2.8l0.2-2.4h9l-0.2,2.4h3.2h4.8h2.8l0.2-2.8l1.8-25.2l0.2-3.2h-3.2
			h-24.4h-2.8l-0.2,2.8L125.1,55l-1,0.1l0.1-1.4l0.2-3.2h-1.6l0.1-1.5l0.2-3.2H123l0,0h1.3l0.2-2.8l0.2-3.4l0.2-3.2h-3.2h-2.4
			c-0.3-0.9-0.6-1.7-1-2.5l-1.1-2.3l-2.5,0.7l-3.1,0.8l0,0l-3.4-1l-2.6-0.8l-1,2.5c-0.3,0.7-0.6,1.4-1,2.1c-0.9-1.2-1.9-2.3-2.9-3.3
			L99.1,30.8L99.1,30.8z M91.7,38.7l0.1-1.4l1.2,1.3l0.1,0.1L91.7,38.7L91.7,38.7z M86.3,47.7h2l0.1-3l2.6,0.2V45l-0.1,1.8L89,47.2
			l1.3,3.2c0.4,0.9,0.7,1.8,0.9,2.8l-0.9-0.7C88.8,51.3,87.5,49.7,86.3,47.7L86.3,47.7z M136.3,44.9h9l-0.6,7.9h-9L136.3,44.9
			L136.3,44.9z M88.4,58.9c0.6-0.6,1.2-1.2,1.9-1.8l1.5-1.2l0.2,0.8c-0.4,0.4-0.9,0.7-1.4,1L88.4,58.9L88.4,58.9z"/>
	</g>
	<g>
		<path id="日本進口_限量獨家-2_3_" class="st0" d="M34.7,56.4l0.4-5.9h12.5l-0.4,5.9H34.7z M48.3,40.8l-0.4,5.5H35.4
			l0.4-5.5H48.3L48.3,40.8z M31.6,36.3l-1.9,26.5h4.5l0.1-2h12.5l-0.1,2h4.7l1.9-26.5H31.6L31.6,36.3z M76.5,54l0.6-9.2
			c0.8,3.2,2.1,6.3,3.8,9.2H76.5L76.5,54z M67.3,54c2.1-2.9,3.9-6,5.2-9.3l0,0L71.9,54H67.3z M88.3,44.7l0.3-4.5H77.5l0.4-5.6h-4.7
			l-0.4,5.6h-11l-0.3,4.5H68c-2,4.3-5,8.3-8.4,10.7c1.1,1.1,2.1,2.2,3,3.5c1.2-0.9,2.3-2,3.3-3.1l-0.2,2.7h5.9l-0.3,4.8H76l0.3-4.8
			H82l0.2-2.5c0.7,1,1.6,2,2.5,2.8c1.1-1.4,2.3-2.7,3.8-3.9c-3-2.3-5.4-6.2-6.9-10.2H88.3L88.3,44.7z M102.4,39.1
			c-1.2-1.6-2.4-3.1-3.8-4.5l-3.4,2c1.4,1.5,2.6,3.2,3.7,4.9L102.4,39.1z M111.8,44.1h-3.3l0.1-1.4h3.3L111.8,44.1z M111.5,48.8
			h-3.3l0.1-1.4h3.3L111.5,48.8z M111.2,53.5h-3.3L108,52h3.3L111.2,53.5z M100.7,48.8l-0.7,0.1h-1.5c1-1.3,2.2-2.7,3.2-4.1
			c0.5,0.9,1,1.8,1.3,2.8c0.5-0.5,1-1,1.6-1.6l-0.8,11h17.1l0.2-3.5h-6.2L115,52h4.6l0.2-3.2h-4.6l0.1-1.4h4.5l0.2-3.2h-4.5l0.1-1.4
			h5.8l0.2-3.4H117c-0.3-1.5-0.8-2.9-1.4-4.3l-3.6,1c0.4,1.1,0.7,2.2,1,3.3h-3.8c0.6-1.1,1.2-2.3,1.7-3.5l-3.4-1
			c-1.1,2.8-2.7,5.3-4.7,7.6l-2-0.9l-0.4,0.1h-6.1l-0.2,3.4h3.4c-0.8,1.1-1.7,2.2-2.7,3.2c-0.5,0.5-1,0.8-1.7,1
			c0.4,1.1,0.8,2.3,1.1,3.4c0.6-0.3,1.3-0.5,1.9-0.5h2.1c-1.2,3.8-3.3,6.5-6.1,8.1c1,0.8,1.9,1.8,2.6,2.9c1.6-1,2.9-2.3,4-3.9
			c2.1,2.8,5.3,3.3,10.5,3.3c3.6,0,7.5-0.1,10.8-0.3c0.3-1.4,0.9-2.8,1.7-4c-3.6,0.4-8.9,0.6-12.2,0.6c-4.4,0-7.4-0.4-8.9-3
			c0.9-2.1,1.6-4.2,2.1-6.4L100.7,48.8z M132.6,55.8l1-13.9h15.1l-1,13.9L132.6,55.8L132.6,55.8z M129.3,37.5l-1.8,25.2h4.6l0.2-2.4
			h15.1l-0.2,2.4h4.8l1.8-25.2H129.3L129.3,37.5z M242.6,35.6l-0.6,0.1h-7.2L232.9,63h3.8l1.6-23.4h2.2c-0.5,1.9-1.2,4.3-1.8,6
			c1,1.5,1.5,3.3,1.4,5.2c0,0.6-0.2,1.2-0.6,1.7c-0.2,0.1-0.5,0.2-0.8,0.2c-0.4,0-0.7,0-1.1,0c0.5,1.2,0.7,2.5,0.6,3.7
			c0.6,0,1.3,0,1.9-0.1c0.7-0.1,1.3-0.3,1.9-0.7c1.1-0.8,1.6-2.1,1.7-4.2c0.2-2.2-0.3-4.3-1.5-6.1c0.9-2.3,2.1-5.3,3-7.9L242.6,35.6
			z M248.7,57.7l0.5-7.7h1.2c0.4,2.4,1,4.7,1.9,7L248.7,57.7z M255.4,39.5l-0.1,1.6h-5.4l0.1-1.6H255.4z M249.6,44.6h5.4l-0.1,1.7
			h-5.4L249.6,44.6z M257.7,50c-0.9,0.9-1.8,1.8-2.8,2.6c-0.3-0.8-0.6-1.7-0.8-2.6H257.7z M257.9,50h1l1-14.2H246l-1.5,21.3
			c-0.1,1.2-0.7,2.3-1.8,2.9c0.7,1,1.3,2.2,1.6,3.4c0.8-0.5,2.1-1,8-2.4c-0.1-1.3,0-2.6,0.1-3.9c1,2.5,2.8,4.7,5.1,6.1
			c0.9-1.4,2-2.7,3.2-3.8c-1.7-0.8-3.1-2.1-4.1-3.6c1.2-0.8,2.6-1.8,3.9-2.7L257.9,50z M286.1,38.3H275v-0.7h11.1V38.3z M285.9,41
			h-11.1v-0.7H286L285.9,41z M290.7,35.6H271l-0.5,7.5h19.7L290.7,35.6z M273.3,53.1v-0.7h4.2v0.7H273.3z M273.6,49.7h4.2v0.7h-4.2
			V49.7z M286.1,50.4H282v-0.7h4.1V50.4z M285.9,53.1h-4.1v-0.7h4.1V53.1z M281.4,58.6h8.9l0.2-2.7h-8.9v-0.6h8.4l0.5-7.8h-20.9
			l-0.5,7.8h8.3v0.6h-8.8l-0.2,2.7h8.8v0.7h-11.6l-0.2,3.1H293l0.2-3.1h-11.8V58.6z M266.6,43.8l-0.2,3H294l0.2-3H266.6z M321,56.2
			l0.4-6.4h-4.6l0.1-1.2h-3.2l-0.1,1.2h-3c0.6-0.5,1.1-1,1.6-1.6h10.6c-0.6,7.5-1,10.1-1.5,10.8c-0.1,0.1-0.2,0.2-0.3,0.3
			c-0.2-1.1-0.5-2.1-0.8-3.1H321z M316.3,57.4l0.1-1.2h2.1l-1.3,0.4c0.1,0.2,0.2,0.5,0.3,0.7L316.3,57.4z M316.7,52.4h1.3l-0.1,1.2
			h-1.3L316.7,52.4z M312.1,53.6l0.1-1.2h1.2l-0.1,1.2H312.1z M309.3,43.6h1.7c-0.8,1.3-1.9,2.5-3.1,3.5c0-2-0.4-4.1-1-6
			c1-1.2,2-2.5,2.8-3.9L309.3,43.6z M313.3,38.8h1.2l-0.1,1.6h-1.2L313.3,38.8z M317.5,38.8h1.2l-0.1,1.6h-1.2L317.5,38.8z
			 M321.7,38.8h1.3l-0.1,1.6h-1.3L321.7,38.8z M314.7,44.8c0.2-0.4,0.5-0.8,0.7-1.2h11.1l0.6-7.9h-17.2l-0.1,1.1l-3.5-1.8
			c-0.4,0.8-0.9,1.5-1.4,2.2c-0.6-0.9-1.4-1.7-2.2-2.5l-3.2,2.3c1.1,1.1,2,2.3,2.7,3.6c-1.1,1.1-2.2,2.1-3.5,3c1,0.8,2,1.8,2.7,2.8
			c0.7-0.5,1.4-1.1,2.1-1.7c0.1,0.8,0.2,1.5,0.2,2.3c-1.5,2.2-3.5,4.2-5.7,5.6c1,0.9,1.9,2,2.6,3.2c1-0.9,2-1.8,2.9-2.8
			c-0.3,2.7-0.6,4.9-1.1,5.5c-0.2,0.3-0.6,0.5-0.9,0.5c-0.9,0.1-1.7,0.1-2.6,0c0.6,1.3,0.9,2.7,0.7,4.1c1.2,0.1,2.5,0,3.7-0.3
			c0.8-0.2,1.5-0.6,2-1.3c1.6-2,2.1-6.3,2.4-10.4c0.1-0.9,0.1-1.7,0.1-2.6c0.4,0.4,0.9,0.8,1.3,1.2l-0.4,6.4h4.4l-0.1,1.5
			c-2.1,0.2-4,0.3-5.5,0.4l0.1,3.5c2.9-0.3,6.7-0.7,10.4-1.2c0,0.3,0.1,0.7,0.1,1l1.1-0.3c0.2,0.7,0.2,1.4,0.2,2.2c1,0.1,2,0,3-0.2
			c0.9-0.2,1.7-0.7,2.2-1.5c0.9-1.2,1.3-5,2.3-15.1c0-0.5,0.1-1.7,0.1-1.7L314.7,44.8L314.7,44.8z M337.7,40.8h17.8l-0.2,3.3h4.5
			l0.5-7.2h-10.5c-0.3-0.9-0.6-1.8-1-2.6l-4.8,1.3c0.2,0.4,0.3,0.8,0.4,1.3h-10.7l-0.5,7.2h4.3L337.7,40.8z M343.3,59.2
			c-0.7,0-1.4,0-2.4-0.1c1.6-0.7,3.2-1.6,4.7-2.5c-0.1,0.7-0.3,1.3-0.8,1.9C344.5,59,343.9,59.3,343.3,59.2L343.3,59.2z M354.3,45.5
			c-1.7,1.6-3.6,3-5.5,4.3c-0.5-1.2-1.3-2.2-2.2-3.2c0.6-0.4,1.2-0.8,1.7-1.3h6.3l0.3-3.7h-16.6l-0.3,3.7h4.1
			c-2.9,1.3-6,2.2-9.2,2.7c0.8,1.1,1.4,2.2,2,3.4c2.9-0.7,5.7-1.7,8.4-2.9c0.2,0.2,0.3,0.4,0.4,0.5c-2.7,1.7-7.7,3.4-11.4,4.1
			c0.8,1,1.4,2.2,1.9,3.3c3.8-1.2,7.5-2.8,11-4.7c0.1,0.2,0.1,0.4,0.2,0.6c-3.2,2.4-9.1,4.9-13.9,5.9c0.8,1.1,1.5,2.3,2,3.6
			c2.4-0.8,4.8-1.7,7.2-2.8c0.6,1.2,0.9,2.6,0.8,3.9c0.8,0,1.7,0.1,2.4,0c1.5,0.1,2.9-0.5,4-1.6c1.6-1.4,2.5-4.7,2-8.1l0.6-0.4
			c1.1,4,3.1,7,6.4,8.8c0.9-1.3,1.9-2.5,3.1-3.6c-3.2-1.4-5.1-4.2-5.9-7.4c1.2-0.8,2.5-1.7,3.6-2.5L354.3,45.5z"/>
		<path id="日本進口_限量獨家-2_1_" class="st2" d="M348.8,34.3c0.4,0.8,0.7,1.7,1,2.6h10.5l-0.5,7.2h-4.5l0.2-3.3h-17.8
			l-0.2,3.3h-4.3l0.5-7.2h10.7c-0.1-0.5-0.3-0.9-0.4-1.3L348.8,34.3 M98.6,34.6c1.4,1.4,2.6,2.9,3.8,4.5l-3.5,2.4
			c-1.1-1.7-2.3-3.4-3.7-4.9L98.6,34.6 M77.9,34.6l-0.4,5.6h11.1l-0.3,4.5l0,0h-6.7c1.5,4,3.8,7.8,6.9,10.2
			c-1.4,1.1-2.7,2.4-3.8,3.9c-0.9-0.9-1.8-1.8-2.5-2.8L82,58.4h-5.8l-0.3,4.8h-4.7l0.3-4.8h-5.9l0.2-2.7c-1,1.1-2.1,2.2-3.3,3.1
			c-0.8-1.3-1.8-2.5-3-3.5C63,53,66,48.9,68,44.7h-6.5l0.3-4.5h11l0.4-5.6L77.9,34.6 M67.3,54h4.6l0.7-9.3l0,0
			C71.2,48,69.4,51.1,67.3,54 M76.5,54L76.5,54h4.4c-1.7-2.9-2.9-6-3.8-9.2L76.5,54 M302.7,34.7c0.8,0.8,1.6,1.6,2.2,2.5
			c0.5-0.7,1-1.4,1.4-2.2l3.5,1.8l0.1-1.1H327l-0.6,7.9h-11.1c-0.2,0.4-0.4,0.8-0.7,1.2l0,0H327c0,0-0.1,1.2-0.1,1.7
			c-0.9,10.1-1.4,13.9-2.3,15.1c-0.5,0.8-1.3,1.3-2.2,1.5c-0.8,0.1-1.5,0.2-2.3,0.2c-0.2,0-0.5,0-0.7,0c0-0.7-0.1-1.5-0.2-2.2
			l-1.1,0.3c0-0.3,0-0.6-0.1-1c-3.7,0.4-7.5,0.9-10.4,1.2l-0.1-3.5c1.5-0.1,3.4-0.2,5.5-0.4l0.1-1.5h-4.4l0.4-6.4
			c-0.4-0.4-0.9-0.8-1.3-1.2c0,0.8-0.1,1.7-0.1,2.6c-0.3,4.2-0.9,8.4-2.4,10.4c-0.5,0.6-1.2,1.1-2,1.3c-0.9,0.2-1.8,0.3-2.8,0.3
			c-0.3,0-0.6,0-1,0c0.1-1.4-0.1-2.9-0.7-4.1c0.5,0,1,0.1,1.5,0.1c0.4,0,0.8,0,1.1,0c0.4,0,0.7-0.2,0.9-0.5c0.5-0.6,0.9-2.8,1.1-5.5
			c-0.9,1-1.9,2-2.9,2.8c-0.7-1.2-1.6-2.3-2.6-3.2c2.3-1.5,4.2-3.4,5.7-5.6c0-0.8-0.1-1.5-0.2-2.3c-0.7,0.6-1.4,1.2-2.1,1.7
			c-0.8-1.1-1.7-2-2.7-2.8c1.3-0.9,2.4-1.9,3.5-3c-0.7-1.3-1.6-2.5-2.7-3.6L302.7,34.7 M307.9,47.1c1.2-1,2.2-2.2,3.1-3.5h-1.7
			l0.4-6.3c-0.9,1.3-1.8,2.6-2.8,3.9C307.6,43.1,307.9,45.1,307.9,47.1 M321.6,40.4h1.3l0.1-1.6h-1.3L321.6,40.4 M317.4,40.4h1.2
			l0.1-1.6h-1.2L317.4,40.4 M313.2,40.4h1.2l0.1-1.6h-1.2L313.2,40.4 M322.8,48.2h-10.6c-0.5,0.6-1,1.1-1.6,1.6h3l0.1-1.2h3.2
			l-0.1,1.2h4.6l-0.4,6.4h-0.8c0.4,1,0.6,2,0.8,3.1c0.1-0.1,0.2-0.2,0.3-0.3C321.8,58.3,322.2,55.7,322.8,48.2 M316.6,53.6h1.3
			l0.1-1.2h-1.3L316.6,53.6 M312.1,53.6h1.2l0.1-1.2h-1.2L312.1,53.6 M316.3,57.4l1.1-0.1c-0.1-0.2-0.2-0.5-0.3-0.7l1.3-0.4h-2.1
			V57.4 M107.4,34.9l3.4,1c-0.5,1.1-1.1,2.3-1.7,3.5h3.8c-0.3-1.1-0.6-2.2-1-3.3l3.6-1c0.6,1.4,1.1,2.8,1.4,4.3h4.7l-0.2,3.4h-5.8
			l-0.1,1.4h4.5l-0.2,3.2h-4.5l-0.1,1.4h4.6l-0.2,3.2H115l-0.1,1.5h6.2l-0.2,3.5h-17.1l0.8-11c-0.5,0.6-1,1.1-1.6,1.6
			c-0.4-1-0.8-1.9-1.3-2.8c-1,1.3-2.1,2.8-3.2,4.1h1.5l0.7-0.1l2,0.8c-0.5,2.2-1.2,4.4-2.1,6.4c1.5,2.6,4.6,2.9,8.9,3
			c3.2,0,8.5-0.2,12.2-0.6c-0.8,1.2-1.3,2.6-1.7,4c-3.3,0.2-7.2,0.3-10.8,0.3c-5.1,0-8.4-0.5-10.5-3.3c-1.1,1.5-2.4,2.8-4,3.8
			c-0.7-1.1-1.6-2.1-2.6-2.9c2.8-1.6,4.8-4.3,6.1-8.1h-2.1H96c-0.6,0-1.3,0.2-1.8,0.5c-0.3-1.2-0.6-2.3-1.1-3.4
			c0.6-0.2,1.2-0.5,1.7-1c0.9-1,1.8-2.1,2.7-3.2h-3.4l0.2-3.4h6.1l0.4-0.1l2,0.9C104.7,40.2,106.3,37.6,107.4,34.9 M108.6,44.1h3.3
			l0.1-1.4h-3.3L108.6,44.1 M108.2,48.8h3.3l0.1-1.4h-3.3L108.2,48.8 M107.9,53.5h3.3l0.1-1.5H108L107.9,53.5 M290.7,35.6l-0.5,7.5
			h-19.7l0.5-7.5H290.7 M275,38.3h11.1v-0.7H275V38.3 M274.8,41h11.1v-0.7h-11.1V41 M242.6,35.6l2.7,1.6c-0.9,2.6-2,5.6-3,7.9
			c1.2,1.8,1.7,4,1.5,6.1c-0.1,2.1-0.7,3.5-1.7,4.2c-0.6,0.4-1.2,0.6-1.9,0.7c-0.5,0.1-1,0.1-1.5,0.1c-0.1,0-0.3,0-0.4,0
			c0.1-1.3-0.1-2.6-0.6-3.7c0.2,0,0.5,0,0.7,0c0.1,0,0.2,0,0.3,0l0,0c0.3,0,0.5-0.1,0.7-0.2c0.4-0.5,0.6-1,0.6-1.7
			c0.1-1.8-0.3-3.7-1.4-5.2c0.6-1.7,1.3-4,1.8-5.9h-2.2l-1.6,23.4h-3.8l1.9-27.3h7.2L242.6,35.6 M259.9,35.8l-1,14.2h-1l2.5,3
			c-1.3,0.9-2.7,1.9-3.9,2.7c1,1.6,2.4,2.8,4.1,3.6c-1.2,1.1-2.3,2.4-3.2,3.8c-2.3-1.5-4.1-3.6-5.1-6.1c-0.1,1.3-0.2,2.6-0.1,3.9
			c-5.8,1.4-7.1,1.9-8,2.4c-0.3-1.2-0.9-2.3-1.6-3.4c1-0.6,1.7-1.7,1.8-2.9l1.5-21.3L259.9,35.8 M249.9,41.1h5.4l0.1-1.6H250
			L249.9,41.1 M249.5,46.3h5.4l0.1-1.7h-5.4L249.5,46.3 M254.9,52.6c1-0.8,1.9-1.7,2.8-2.6h-3.5C254.4,50.9,254.6,51.7,254.9,52.6
			 M248.7,57.7l3.6-0.7c-0.9-2.2-1.6-4.6-1.9-7h-1.2L248.7,57.7 M53.3,36.3l-1.9,26.5h-4.7l0.1-2H34.4l-0.1,2h-4.5l1.9-26.5H53.3
			 M35.4,46.2h12.5l0.4-5.5l0,0H35.8L35.4,46.2 M34.7,56.4h12.5l0.4-5.9H35.1L34.7,56.4 M31.6,36.3L31.6,36.3L31.6,36.3 M153.7,37.5
			L152,62.7h-4.8l0.2-2.4h-15.1l-0.2,2.4h-4.6l1.8-25.2l0,0H153.7 M132.6,55.8L132.6,55.8h15.1l1-13.9h-15.1L132.6,55.8 M354.9,41.8
			l-0.3,3.7h-6.3c-0.5,0.5-1.1,0.9-1.7,1.3c0.9,0.9,1.6,2,2.2,3.2c1.9-1.3,3.8-2.8,5.5-4.3l3.4,2.9c-1.1,0.8-2.4,1.7-3.6,2.5
			c0.9,3.2,2.8,6,5.9,7.4c-1.2,1-2.2,2.2-3.1,3.6c-3.4-1.7-5.3-4.8-6.4-8.8l-0.6,0.4c0.5,3.5-0.4,6.8-2,8.1c-1,1-2.3,1.6-3.7,1.6
			c-0.1,0-0.2,0-0.3,0c-0.2,0-0.4,0-0.6,0c-0.5,0-1.1,0-1.7,0c0-1.4-0.2-2.7-0.8-3.9c-2.3,1.1-4.7,2-7.2,2.8c-0.5-1.3-1.2-2.5-2-3.6
			c4.8-1,10.7-3.5,13.9-5.9c0-0.2-0.1-0.4-0.2-0.6c-3.5,2-7.2,3.5-11,4.7c-0.5-1.2-1.1-2.3-1.9-3.3c3.7-0.7,8.7-2.5,11.4-4.1
			c-0.1-0.2-0.3-0.4-0.4-0.5c-2.7,1.3-5.5,2.2-8.4,2.9c-0.5-1.2-1.2-2.3-2-3.4c3.2-0.5,6.2-1.4,9.2-2.7H338l0.3-3.7h16.6
			 M343.5,59.2c0.6,0,1.1-0.3,1.3-0.8c0.4-0.5,0.7-1.2,0.8-1.9c-1.5,0.9-3.1,1.8-4.7,2.5c0.9,0.1,1.7,0.1,2.4,0.1l0,0
			C343.4,59.2,343.4,59.2,343.5,59.2 M294.2,43.8l-0.2,3h-27.6l0.2-3H294.2 M290.6,47.5l-0.5,7.8h-8.4v0.6h8.9l-0.2,2.7h-8.9v0.7
			h11.8l-0.2,3.1h-27.6l0.2-3.1h11.6v-0.7h-8.8l0.2-2.7h8.8v-0.6h-8.3l0.5-7.8H290.6 M282,50.4h4.1v-0.7H282V50.4 M273.5,50.4h4.2
			v-0.7h-4.2V50.4 M281.8,53.1h4.1v-0.7h-4.1V53.1 M273.3,53.1h4.2v-0.7h-4.2V53.1 M349.7,32.2l-1.4,0.4l-4.8,1.3l-1.9,0.5l0.3,0.7
			h-8.2h-1.6l-0.1,1.6l-0.5,7.2l-0.1,1.9h1.9h2.3c-1,0.2-2,0.4-3,0.6l-2.8,0.5l1.6,2.3c0.5,0.7,0.9,1.4,1.3,2.2
			c-0.3,0.1-0.6,0.1-0.9,0.2l-2.7,0.5l1.6,2.2c0.5,0.7,0.9,1.4,1.3,2.2c-0.3,0.1-0.7,0.2-1,0.2l-2.7,0.6l1.7,2.2
			c0.7,1,1.3,2,1.8,3.2l0.6,1.5l1.6-0.5c1.9-0.6,3.8-1.3,5.6-2.1c0.1,0.5,0.1,1,0.1,1.5v1.7l1.7,0.1c0.6,0,1.2,0,1.8,0
			c0.2,0,0.4,0,0.6,0c0.1,0,0.2,0,0.3,0c1.8,0,3.6-0.8,4.9-2.1c1-0.9,1.8-2.2,2.2-3.8c1.3,1.9,2.9,3.4,4.9,4.4l1.4,0.7l0.9-1.3
			c0.8-1.2,1.7-2.3,2.8-3.2l2.1-1.8l-2.6-1.1c-2.5-1.1-3.9-3.2-4.6-5.1c0.9-0.6,1.8-1.2,2.6-1.8l1.8-1.3l-1.7-1.4l-1.5-1.2h2.3h1.6
			l0.1-1.6L362,37l0.1-1.9h-1.9H351c-0.2-0.6-0.4-1.1-0.7-1.6L349.7,32.2L349.7,32.2z M349.3,47.2h0.3
			C349.5,47.2,349.5,47.3,349.3,47.2C349.4,47.3,349.3,47.2,349.3,47.2L349.3,47.2z M98.9,32.4l-1.2,0.7l-3.4,2l-1.8,1.1l1.4,1.6
			c0.6,0.7,1.2,1.4,1.8,2.2h-1.4h-1.6l-0.1,1.6L92.3,45l-0.1,1.9h1.5c-0.1,0.1-0.1,0.1-0.2,0.2c-0.2,0.3-0.5,0.4-0.8,0.5l-2,0.5
			l0.8,1.9c0.4,1,0.8,2.1,1,3.2l0.5,2.3l2-1.1c0.2-0.1,0.4-0.2,0.6-0.2c-1.1,2.2-2.5,3.8-4.3,4.8l-2.2,1l1.9,1.6
			c0.9,0.7,1.6,1.6,2.2,2.5l1,1.4l1.5-0.9c1.2-0.8,2.2-1.7,3.2-2.7c2.4,2,5.8,2.4,10.4,2.4c4,0,7.8-0.1,10.9-0.3l1.3-0.1l0.3-1.3
			c0.3-1.2,0.8-2.4,1.4-3.5l1.9-3l-2.4,0.2l0.2-2.9l0.1-1.9h-1.6l0.2-2.8l0.1-1.9h-0.1l0.2-2.5h1.3l0.1-1.6l0.2-3.4l0.1-1.9h-1.9
			h-3.3c-0.3-1.1-0.7-2.2-1.2-3.2l-0.6-1.4l-1.4,0.4l-3.4,0.9l-0.4-0.1l-3.4-1l-1.5-0.5l-0.6,1.5c-0.6,1.4-1.2,2.7-2,3.9l0,0
			c-1.2-1.6-2.5-3.2-4-4.7L98.9,32.4L98.9,32.4z M302.9,32.5l-1.2,0.8l-3.2,2.3l-1.7,1.2l1.5,1.5c0.6,0.6,1.2,1.3,1.7,2.1
			c-0.7,0.7-1.5,1.3-2.3,1.9l-1.8,1.3l0.1-1.4h-1.9H292l0.4-6.4l0.1-1.9h-1.9H271h-1.6l-0.1,1.6l-0.5,6.6h-2.2H265l-0.1,1.6l-0.2,3
			l-0.1,1.9h1.9h1.4l-0.4,5.6H267l-0.1,1.6l-0.1,1.8h-1.2H264l-0.1,1.6l-0.2,3.1l-0.1,1.9h1.9h27.6h1.6l0.1-1.6l0.2-3.1l0.1-1.9
			h-1.9h-1l0.1-1.6l0.1-1.9h-0.5l0.4-5.6h1.7h1.6l0.1-1.6l0.2-3v-0.3l1.7,1.4c0.9,0.7,1.7,1.6,2.4,2.5l0.5,0.7c-1,1.1-2.2,2.1-3.5,3
			l-1.8,1.2l1.6,1.5c0.9,0.8,1.6,1.8,2.3,2.8l0.3,0.5c-0.1,0-0.3,0-0.4,0l-3-0.2l1.3,2.8c0.5,1,0.7,2.1,0.6,3.2l-0.2,1.8l1.8,0.1
			c0.4,0,0.7,0,1.1,0c1.1,0,2.2-0.1,3.2-0.4c0.8-0.2,1.6-0.6,2.3-1.2v0.1l1.9-0.2l1.2-0.1c2.1-0.2,4.7-0.5,7.3-0.8l0.1,1.3l1.2-0.4
			v1.5l1.6,0.1c0.3,0,0.6,0,0.8,0c0.9,0,1.7-0.1,2.6-0.2c1.4-0.2,2.6-1,3.3-2.2c1.1-1.5,1.5-4.2,2.5-15.9c0-0.5,0.1-1.6,0.1-1.6
			L329,43h-0.8l0.5-7.2l0.1-1.9H327h-17.2h-1.6V34l-1.1-0.6l-1.5-0.8l-0.8,1.5c0,0,0,0.1-0.1,0.1c-0.3-0.3-0.5-0.6-0.8-0.8
			L302.9,32.5L302.9,32.5z M79.8,32.9h-1.9h-4.7h-1.6l-0.1,1.6l-0.3,3.9h-9.4h-1.6L60.1,40l-0.3,4.5l-0.1,1.9h1.9h3.6
			c-1.9,3.2-4.2,5.8-6.5,7.5l-1.8,1.2l1.6,1.5c1,1,1.9,2,2.7,3.2l1,1.6l1.5-1.2c0.1,0,0.1-0.1,0.2-0.1l0,0h1.9h4L69.6,63l-0.3,2h1.9
			h4.7h1.6l0.1-1.6l0.2-3.2H82h1.6l0,0l1.3,1.2l1.2-1.6c1-1.3,2.2-2.5,3.5-3.6l1.7-1.4l-1.8-1.4c-2-1.6-3.9-4.1-5.3-7.1h4.1l0.1-1.7
			l1.7,0.1l0.3-4.5l0.1-1.9h-1.9h-9.2l0.3-3.7L79.8,32.9L79.8,32.9z M242.9,33.8l-0.7,0.2l-0.4,0.1h-6.9h-1.6l-0.1,1.6l-2,27.3
			l-0.1,1.9h1.9h3.8h1.6l0.1-1.6l0.4-5.1c0.6,0,1.1,0,1.7-0.1c0.8-0.1,1.5-0.4,2.2-0.7c-0.1,0.5-0.4,0.9-0.9,1.2l-1.6,1l1.1,1.5
			c0.6,0.9,1.1,1.8,1.3,2.8l0.6,2.2l2-1.2c0.7-0.4,2.1-0.9,7.4-2.2l1.1-0.3c0.8,0.8,1.7,1.6,2.7,2.2l1.5,0.9l0.9-1.5
			c0.8-1.3,1.8-2.4,2.9-3.4l1.9-1.7l-2.3-1.1c-0.9-0.4-1.7-1-2.3-1.7c0.8-0.6,1.6-1.1,2.4-1.7l1.5-1.1l-1.2-1.4l-1.2-1.4v-0.4
			l1-14.2l0.1-1.9h-1.9H246h-1.6v0.6l-0.8-0.5L242.9,33.8L242.9,33.8z M55.2,34.6h-1.9H31.6l0,0H30l-0.1,1.6L28,62.7l-0.1,1.9h1.9
			h4.5h1.6L36,63v-0.4h9v0.1l-0.1,1.9h1.9h4.7h1.6l0.1-1.6L55,36.5L55.2,34.6L55.2,34.6z M37.4,42.5h9l-0.1,2h-9L37.4,42.5
			L37.4,42.5z M36.7,52.3h9l-0.2,2.4h-9L36.7,52.3L36.7,52.3z M155.6,35.7h-1.9h-24.4h-1.6l-0.1,1.6l-1.8,25.2l-0.1,1.9h1.9h4.6h1.6
			l0.1-1.6L134,62h11.5v0.5l-0.1,1.9h1.9h4.8h1.6l0.1-1.6l1.8-25.2L155.6,35.7L155.6,35.7z M135.2,43.7h11.5L146,54.1h-11.5
			L135.2,43.7L135.2,43.7z"/>
	</g>
	<path id="超" class="st3" d="M217.1,35.5c0.1,2.4,0,3.5-0.2,3.9c-0.3,0.3-0.6,0.5-1,0.5c-0.9,0.1-1.7,0.1-2.6,0.1
		c0.5-1.4,0.9-2.8,1-4.2L217.1,35.5z M202.6,54.2l4.3-0.4l-0.4-4.5l-4.3,0.4l-0.3-3.2l4.8-0.4l-0.3-2.7c1.1,0.6,2.1,1.3,3,2
		c1.7-1.4,3-3.2,3.8-5.3c0.8,1.3,1.4,2.7,1.7,4.2c1.3-0.1,2.7-0.2,4-0.5c1-0.2,1.9-0.8,2.5-1.6c0.8-1.2,0.8-3.8,0.5-9.6
		c0-0.5-0.1-1.7-0.1-1.7l-15.9,1.5l0.4,4.3l3.1-0.3c-0.3,2.2-1.4,4.3-3.1,5.7v-0.5l-5.4,0.5l-0.2-2.6l4.8-0.4l-0.4-4.5l-4.8,0.4
		l-0.3-3.3l-4.8,0.4l0.3,3.3l-5,0.5l0.4,4.5l5-0.5l0.2,2.7l-5.8,0.5l0.4,4.5l6.6-0.6l0.9,9.3c-0.7-0.8-1.2-1.8-1.7-2.7
		c-0.1-1.5-0.2-3.2-0.3-4.8l-4.5,0.1c0.6,6,0.9,11.9-0.5,15.6c1.5,0.5,3,1.1,4.4,1.8c0.5-1.7,0.9-3.5,1-5.3
		c3.2,3.3,7.5,3.7,13.8,3.1l14-1.3c0.2-1.8,0.7-3.6,1.5-5.3c-3.8,0.6-12.6,1.4-15.9,1.7c-2.2,0.3-4.5,0.3-6.8,0L202.6,54.2z
		 M213.1,49.6l4.3-0.4l0.3,3.2l-4.3,0.4L213.1,49.6z M208.9,57.3l14.3-1.3l-1.1-11.4l-14.3,1.3L208.9,57.3z"/>
</g>
<g>
	<path id="矩形_11_拷貝_3_" class="st1" d="M115.3,89.7l231.3-9.5l-9.2,62.7l-217.6-5.5L115.3,89.7z"/>
	<path id="矩形_11_拷貝_1_" d="M344.4,82.3l-8.6,58.6l-214-5.4l-4.2-43.8L344.4,82.3 M346.7,80.2l-231.3,9.5l4.6,47.7l217.6,5.5
		L346.7,80.2L346.7,80.2z"/>
</g>
<g>
	<path id="矩形_11_3_" class="st3" d="M114.4,86.9L348,82.4l-9.8,56.6L119,133.6L114.4,86.9z"/>
	<path id="矩形_11_1_" d="M345.9,84.2l-9.2,53l-216.1-5.3l-4.3-43.2L345.9,84.2 M348,82.4l-233.6,4.5l4.6,46.7l219.2,5.4L348,82.4
		L348,82.4z"/>
</g>
<path id="偷偷說...真的很限量_賣完就沒有ㄌ_" class="st1" d="M135.6,96.8c-0.8,1.7-1.8,3.3-3.1,4.7
	c0.2,0.5,0.3,1,0.4,1.6c0.3-0.3,0.5-0.5,0.8-0.8l-1,5.9h1.4l1.5-8.5c0.5-0.8,1-1.7,1.4-2.5L135.6,96.8z M136.7,104.9
	c0.1-0.2,0.1-0.5,0.1-0.7h1.2l-0.1,0.7H136.7z M138.4,102.5l-0.1,0.6h-1.2l0.1-0.6H138.4L138.4,102.5z M139.8,101.4h-3.7l-0.5,2.6
	c-0.1,1.3-0.6,2.5-1.3,3.5c0.3,0.2,0.7,0.4,0.9,0.7c0.5-0.7,0.9-1.5,1.1-2.4h1.3l-0.2,0.9c0,0.1-0.1,0.2-0.1,0.2l0,0
	c-0.1,0-0.4,0-0.7,0c0.1,0.4,0.2,0.8,0.1,1.2c0.5,0,0.9,0,1.3-0.2c0.4-0.2,0.6-0.6,0.6-1.1L139.8,101.4z M141.2,106.8
	c0,0.1-0.1,0.2-0.2,0.2l0,0c-0.2,0-0.7,0-1.2,0c0.1,0.4,0.2,0.8,0.1,1.2c0.6,0,1.2,0,1.8-0.2c0.4-0.2,0.7-0.7,0.7-1.2l1-5.5h-1.2
	L141.2,106.8z M141.5,101.7h-1.1l-0.8,4.5h1.1L141.5,101.7z M138.3,99.7c0.7-0.4,1.4-0.9,2-1.4c0.5,0.5,1,1,1.7,1.4H138.3z
	 M140.5,96.7c-1.3,1.3-2.9,2.2-4.7,2.8c0.3,0.3,0.5,0.7,0.7,1.1c0.3-0.1,0.7-0.3,1-0.4l-0.1,0.7h4.8l0.2-1c0.3,0.2,0.7,0.4,1,0.5
	c0.3-0.4,0.6-0.8,1-1.1c-1.2-0.3-2.2-1-3.1-1.8c0.1-0.1,0.2-0.2,0.3-0.3L140.5,96.7z M148.1,96.8c-0.8,1.7-1.8,3.3-3.1,4.7
	c0.2,0.5,0.3,1,0.4,1.6c0.3-0.3,0.5-0.5,0.8-0.8l-1,5.9h1.4l1.5-8.5c0.5-0.8,1-1.7,1.4-2.5L148.1,96.8z M149.3,104.9
	c0.1-0.2,0.1-0.5,0.1-0.7h1.2l-0.1,0.7H149.3L149.3,104.9z M151,102.5l-0.1,0.6h-1.2l0.1-0.6H151z M152.3,101.4h-3.7l-0.5,2.6
	c-0.1,1.3-0.6,2.5-1.3,3.5c0.3,0.2,0.7,0.4,0.9,0.7c0.5-0.7,0.9-1.5,1.1-2.4h1.3l-0.2,0.9c0,0.1-0.1,0.2-0.1,0.2l0,0
	c-0.1,0-0.4,0-0.7,0c0.1,0.4,0.2,0.8,0.1,1.2c0.5,0,0.9,0,1.3-0.2c0.4-0.2,0.6-0.6,0.6-1.1L152.3,101.4z M153.8,106.8
	c0,0.1-0.1,0.2-0.2,0.2l0,0c-0.2,0-0.7,0-1.2,0c0.1,0.4,0.2,0.8,0.1,1.2c0.6,0,1.2,0,1.8-0.2c0.4-0.2,0.7-0.7,0.7-1.2l1-5.5h-1.2
	L153.8,106.8z M154,101.7h-1.1l-0.8,4.5h1.1L154,101.7z M150.9,99.7c0.7-0.4,1.4-0.9,2-1.4c0.5,0.5,1,1,1.7,1.4H150.9L150.9,99.7z
	 M153.1,96.7c-1.3,1.3-2.9,2.2-4.7,2.8c0.3,0.3,0.5,0.7,0.7,1.1c0.3-0.1,0.7-0.3,1-0.4l-0.1,0.7h4.8l0.2-1c0.3,0.2,0.7,0.4,1,0.5
	c0.3-0.4,0.6-0.8,1-1.1c-1.2-0.3-2.2-1-3.1-1.8c0.1-0.1,0.2-0.2,0.3-0.3L153.1,96.7z M164.3,101.3h2.2l-0.2,1.4H164L164.3,101.3z
	 M159.7,106.4h-1.2l0.2-1.4h1.2L159.7,106.4z M166.3,106.8c-0.2,0-0.2,0-0.1-0.4l0.4-2.4h0.8l0.6-3.5c0.1,0.1,0.1,0.3,0.2,0.4
	l1.2-0.8c-0.5-1.2-1.2-2.2-2-3.2l-1.1,0.7c0.6,0.8,1.1,1.7,1.6,2.5h-4.2c0.8-0.8,1.5-1.7,2.2-2.7l-1.3-0.4c-0.6,1-1.3,1.8-2.2,2.5
	l0.1-0.7h-2.2l1-0.3c-0.1-0.5-0.2-1.1-0.4-1.6l-1.3,0.4c0.1,0.5,0.3,1,0.3,1.5h-1.8l-0.2,1.2h3.8h-0.1c0.3,0.3,0.6,0.7,0.8,1
	c0.2-0.1,0.3-0.3,0.5-0.4l-0.6,3.3h0.8c-0.4,1.4-0.8,2.5-2.5,3.2l0.6-3.3h-3.6L157,108h1.2l0.1-0.5h2.4v-0.3c0.2,0.3,0.4,0.7,0.5,1
	c2.1-0.9,2.8-2.4,3.4-4.3h0.6l-0.4,2.4c-0.2,1.3-0.1,1.7,1,1.7h0.8c0.9,0,1.3-0.5,1.7-2.1c-0.4-0.1-0.8-0.3-1.2-0.6
	c-0.2,1.2-0.3,1.3-0.5,1.3h-0.3V106.8z M157.9,103.2h3.5l0.2-1.1H158L157.9,103.2z M161.8,100.5h-3.5l-0.2,1.1h3.5L161.8,100.5z
	 M170.8,107.3c0.7,0,1.2-0.5,1.3-1.2c0.1-0.5-0.1-1-0.6-1.1c-0.1,0-0.2,0-0.3,0c-0.7,0-1.2,0.5-1.3,1.2c-0.1,0.5,0.1,1,0.6,1.1
	C170.6,107.3,170.7,107.3,170.8,107.3L170.8,107.3z M175,107.3c0.7,0,1.2-0.5,1.3-1.2c0.1-0.5-0.1-1-0.6-1.1c-0.1,0-0.2,0-0.3,0
	c-0.7,0-1.2,0.5-1.3,1.2c-0.1,0.5,0.1,1,0.6,1.1C174.9,107.3,174.9,107.3,175,107.3L175,107.3z M179.3,107.3c0.7,0,1.2-0.5,1.3-1.2
	c0.1-0.5-0.1-1-0.6-1.1c-0.1,0-0.2,0-0.3,0c-0.7,0-1.2,0.5-1.3,1.2c-0.1,0.5,0.1,1,0.6,1.1C179.1,107.3,179.2,107.3,179.3,107.3
	L179.3,107.3z M142.6,120.9h6l-0.1,0.7h-6L142.6,120.9z M149.4,116l-0.1,0.7h-6l0.1-0.7H149.4L149.4,116z M148.8,119.3l-0.1,0.6h-6
	l0.1-0.6H148.8L148.8,119.3z M149,118.3h-6l0.1-0.6h6L149,118.3z M151.9,123.1l0.3-1.5h-2l1.2-6.7h-4.1c0.1-0.2,0.2-0.4,0.3-0.7h5.6
	l0.3-1.5h-5.3l0.3-0.9l-1.9-0.2c-0.1,0.3-0.2,0.7-0.3,1.1h-5.6l-0.3,1.5h5.4c-0.1,0.2-0.2,0.5-0.3,0.7h-3.6l-1.2,6.7h-2l-0.3,1.5
	h4.2c-1.4,0.7-2.9,1.2-4.5,1.6c0.4,0.4,0.7,0.8,1,1.2c1.7-0.4,3.4-1,4.9-1.8l-1.2-1h4.4l-1.2,1c1.4,0.5,2.8,1.1,4.1,1.8l1.7-1.2
	c-1.3-0.6-2.6-1.2-3.9-1.6H151.9L151.9,123.1z M156,122.7l0.5-3h2.4l-0.5,3H156z M159.2,118.2h-2.4l0.4-2.5h2.4L159.2,118.2z
	 M164.8,114c0.3-0.6,0.6-1.3,0.9-1.9l-1.7-0.4c-0.7,1.8-1.7,3.4-2.9,4.9l0.4-2.5h-2.4c0.4-0.7,0.8-1.4,1.2-2.2l-1.9-0.3
	c-0.2,0.8-0.5,1.7-0.9,2.4h-1.7l-2,11.3h1.6l0.2-1.1h4.1l1.3-7.1c0.4,0.3,0.7,0.5,1,0.8c0.7-0.7,1.2-1.6,1.8-2.4h3.3
	c-1.1,5.4-1.7,7.7-2.2,8.1c-0.2,0.2-0.5,0.3-0.7,0.3c-0.4,0-1.3,0-2.3-0.1c0.2,0.6,0.3,1.2,0.3,1.8c0.8,0,1.6,0,2.4,0
	c0.6-0.1,1.2-0.4,1.6-0.8c0.8-0.8,1.4-3.2,2.8-10c0.1-0.2,0.2-0.8,0.2-0.8L164.8,114L164.8,114z M165.3,120.9
	c-0.5-1.2-1-2.3-1.6-3.4l-1.6,0.8c0.6,1.1,1.1,2.3,1.5,3.5L165.3,120.9z M174.3,111.7c-1,1.2-2.2,2.2-3.6,3c0.3,0.5,0.5,1,0.6,1.5
	c1.7-1,3.2-2.3,4.6-3.8L174.3,111.7z M174.1,115c-1.2,1.5-2.7,2.8-4.3,3.9c0.2,0.6,0.4,1.2,0.6,1.9c0.5-0.4,1-0.8,1.6-1.2l-1.1,6.3
	h1.8l1.5-8.4c0.6-0.6,1.1-1.2,1.6-1.8L174.1,115z M177.7,116.5h3.8l-0.2,1.2h-3.8L177.7,116.5z M182,113.8l-0.2,1.2H178l0.2-1.2H182
	z M182.5,119.4c-0.7,0.6-1.5,1.2-2.3,1.7c-0.2-0.6-0.4-1.2-0.5-1.8h3.1l1.2-7h-7.4l-1.9,10.9c-0.1,0.6-0.4,1.1-0.9,1.3
	c0.3,0.4,0.4,0.9,0.5,1.4c0.4-0.2,1-0.5,4.1-1.2c0-0.6,0.1-1.1,0.2-1.6l-2.2,0.5l0.8-4.3h1c0.3,3.1,1.3,5.4,3.7,6.6
	c0.4-0.6,0.9-1.1,1.5-1.6c-1-0.4-1.9-1.1-2.5-2c0.8-0.4,1.8-1.1,2.6-1.6L182.5,119.4z M191.4,112.2l-0.3,0.1h-3.6l-2.4,13.6h1.6
	l2.1-12h1.5c-0.4,1-1,2.2-1.4,3.2c0.5,0.8,0.8,1.8,0.6,2.8c0,0.3-0.2,0.7-0.4,0.9c-0.1,0.1-0.3,0.1-0.4,0.1c-0.2,0-0.4,0-0.7,0
	c0.2,0.5,0.2,1,0.1,1.5c0.3,0,0.7,0,1,0s0.6-0.2,0.9-0.3c0.6-0.5,1-1.2,1-2c0.2-1.1,0-2.2-0.5-3.2c0.6-1.2,1.4-2.7,2-4L191.4,112.2z
	 M194,116.5h3.3l-0.2,1.2h-3.3L194,116.5z M197.8,113.8l-0.2,1.2h-3.3l0.2-1.2H197.8z M198.3,119.4c-0.6,0.5-1.3,1-2,1.5
	c-0.2-0.5-0.3-1.1-0.3-1.7h2.6l1.2-7H193l-1.9,10.9c-0.1,0.6-0.4,1.1-0.9,1.3c0.3,0.4,0.4,0.9,0.5,1.4c0.4-0.2,1-0.5,4.1-1.2
	c0-0.6,0.1-1.1,0.2-1.6l-2.2,0.5l0.8-4.3h0.9c0.2,3,1,5.3,3,6.6c0.4-0.6,0.9-1.1,1.5-1.6c-0.9-0.4-1.6-1.2-2.1-2
	c0.8-0.4,1.7-1,2.4-1.5L198.3,119.4z M212.3,113.6H206l0.1-0.5h6.3L212.3,113.6z M212.1,114.9h-6.3l0.1-0.5h6.3L212.1,114.9z
	 M214.4,112.1h-9.9l-0.7,3.8h9.9L214.4,112.1z M215.7,116.3h-13.8l-0.2,1.3h13.8L215.7,116.3z M204.4,121l0.1-0.5h2.6L207,121H204.4
	z M204.7,119h2.6l-0.1,0.5h-2.6L204.7,119z M211.7,119.6H209l0.1-0.5h2.7L211.7,119.6z M211.4,121h-2.7l0.1-0.5h2.7L211.4,121z
	 M208.2,124.2l0.1-0.5h4.7l0.2-1.2h-4.7l0.1-0.5h4.4l0.7-3.9h-10.5l-0.7,3.9h4.4l-0.1,0.5h-4.7l-0.2,1.2h4.7l-0.1,0.5h-6l-0.2,1.3
	h13.8l0.2-1.3H208.2L208.2,124.2z M222.1,122.1c1.8-0.4,3.3-1.8,3.6-3.7c0.2-1.3-0.2-2.1-1.3-2.1c-0.8,0-1.6,0.6-1.7,1.4
	c-0.1,0.6,0.2,1.2,0.8,1.3c0.1,0,0.3,0,0.4,0c0.1,0,0.1,0,0.2,0c-0.2,0.8-1,1.5-2.3,1.8L222.1,122.1z M239.4,114h-4.5l-0.2,1.1h11.1
	l0.2-1.1h-4.8l0.1-0.5h5.8l0.2-1.2h-5.7l0.1-0.7h-1.8l-0.1,0.7h-5.6l-0.2,1.2h5.6L239.4,114z M235.7,116.5h1.8l-0.1,0.7h-1.8
	L235.7,116.5z M238.9,116.5h1.9l-0.1,0.7h-1.9L238.9,116.5z M242.2,116.5h1.9l-0.1,0.7h-1.9L242.2,116.5z M233.8,118.2h11.8l0.5-2.6
	h-11.8L233.8,118.2z M235.7,122.4h6.5l-0.1,0.5h-6.5L235.7,122.4z M235.9,121h6.5l-0.1,0.5h-6.5L235.9,121z M236.2,119.6h6.5
	l-0.1,0.5h-6.5L236.2,119.6z M243.8,123.9l0.9-5.2h-10.1l-0.9,5.2h2.3c-1.5,0.4-3,0.7-4.5,0.8c0.4,0.4,0.8,0.8,1.1,1.2
	c1.7-0.3,3.5-0.8,5.1-1.4l-1.2-0.6h4.6l-1.7,0.8c1.3,0.3,2.6,0.7,3.9,1.3l2.3-0.8c-1-0.4-2.9-0.9-4.4-1.3H243.8L243.8,123.9z
	 M251.1,115h9.3l-0.4,2h1.9l0.7-3.8h-5.2c-0.1-0.6-0.3-1.2-0.5-1.7l-2,0.5c0.1,0.4,0.2,0.8,0.3,1.2h-5.6l-0.7,3.8h1.8L251.1,115z
	 M259.2,117.7l0.3-1.7h-7.9l-0.3,1.7H259.2z M257.5,124c-0.5,0-0.6-0.1-0.5-0.5l0.5-2.9h4.1l0.3-1.7h-13.6l-0.3,1.7h3.8
	c-0.5,2.2-1.2,3.2-4.7,3.8c0.3,0.5,0.6,1,0.7,1.5c4.2-0.8,5.2-2.4,5.9-5.3h2l-0.5,2.9c-0.3,1.6,0,2.2,1.8,2.2h1.9
	c1.4,0,2-0.6,2.6-2.8c-0.5-0.1-1.1-0.4-1.5-0.7c-0.3,1.6-0.5,1.8-1,1.8H257.5L257.5,124z M278.2,114.5c-0.3-0.8-0.7-1.6-1.2-2.3
	l-1.3,0.7c0.5,0.8,0.8,1.6,1.1,2.4L278.2,114.5z M271.7,113.4h-2.3c-0.1-0.6-0.2-1.2-0.4-1.7l-1.7,0.4c0.1,0.5,0.2,0.9,0.3,1.4h-2.8
	l-0.3,1.6h6.9L271.7,113.4z M264.6,120.3c-0.4,1.3-1.1,2.5-1.9,3.5c0.4,0.3,0.7,0.5,1.1,0.9c0.9-1.3,1.7-2.6,2.2-4.1L264.6,120.3z
	 M266.3,117.2h2.6l-0.2,1.3h-2.6L266.3,117.2z M270.1,119.8l0.7-4.1H265l-0.7,4.1h2.2l-0.7,4.3c0,0.1-0.1,0.2-0.2,0.2l0,0
	c-0.2,0-0.7,0-1.1,0c0.2,0.5,0.2,1,0.2,1.5c0.6,0.1,1.3,0,1.9-0.3c0.5-0.3,0.8-0.8,0.8-1.4l0.8-4.3
	C268.2,119.8,270.1,119.8,270.1,119.8z M268.2,120.6c0.3,0.9,0.5,1.8,0.6,2.8l1.4-0.6c-0.1-0.9-0.3-1.8-0.6-2.7L268.2,120.6z
	 M274.8,124.2c-0.1,0-0.2,0-0.2-0.1c0-0.2,0-0.3,0-0.5l1-5.8h-1.2c0.1-0.2,0.2-0.5,0.2-0.8h3.3l0.3-1.6H275c0.3-1.3,0.5-2.6,0.8-3.8
	h-1.7c-0.2,1.2-0.4,2.5-0.7,3.8h-1.9l-0.3,1.6h1.8c-0.8,3-2,5.8-4.4,7.7c0.4,0.3,0.8,0.7,1.1,1.1c1.8-1.6,3.2-3.6,4-5.8l-0.6,3.5
	c-0.2,1.1-0.1,1.4,0.1,1.6c0.3,0.2,0.6,0.4,1,0.4h0.9c0.3,0,0.6-0.1,0.9-0.2s0.6-0.4,0.7-0.7c0.2-0.6,0.4-1.2,0.5-1.9
	c-0.5-0.2-0.9-0.4-1.2-0.8c-0.1,0.6-0.2,1.1-0.4,1.7c0,0.2-0.1,0.3-0.2,0.4c-0.1,0-0.2,0.1-0.3,0.1L274.8,124.2L274.8,124.2z
	 M291.4,114.6c-0.1,0.7-0.4,1.3-0.7,1.9c-0.2,0.1-0.4,0.2-0.6,0.2c-0.6,0-1.1,0-1.7-0.1c0.2,0.5,0.3,1.1,0.2,1.7c0.7,0,1.3,0,2,0
	c0.5,0,1-0.2,1.3-0.5c0.5-0.5,0.9-1.5,1.5-4c0.1-0.2,0.2-0.7,0.2-0.7h-5c0.1-0.4,0.3-0.7,0.4-1.1l-1.8-0.2c-0.7,2.5-1.9,4.6-3.7,5.8
	c0.5,0.3,1,0.7,1.4,1.1c1.3-1.1,2.3-2.5,3.1-4L291.4,114.6L291.4,114.6z M284.9,113.3c-0.8-0.7-1.6-1.2-2.6-1.6l-1.2,1.3
	c0.9,0.4,1.8,1,2.5,1.7L284.9,113.3z M283.3,117.3c-0.8-0.6-1.7-1.2-2.6-1.5l-1.2,1.4c0.9,0.4,1.8,1,2.5,1.7L283.3,117.3z
	 M282.3,119.7c-1.2,1.7-2.6,3.6-3.6,4.8l1.3,1.2c1.1-1.5,2.4-3.2,3.4-4.8L282.3,119.7z M289.9,120.3c-0.5,0.7-1.2,1.3-1.9,1.8
	c-0.6-0.5-1-1.1-1.3-1.8H289.9z M291.5,118.6l-0.3,0.1h-6.8l-0.3,1.6h2.1l-1.2,0.4c0.3,0.9,0.8,1.6,1.4,2.3c-1.3,0.6-2.6,1-4,1.2
	c0.3,0.5,0.5,1.1,0.6,1.6c1.6-0.3,3.2-0.8,4.7-1.6c1.1,0.8,2.3,1.3,3.5,1.6c0.4-0.6,0.9-1.1,1.5-1.6c-1.1-0.2-2.2-0.6-3.2-1.1
	c1.3-1.1,2.4-2.4,3.2-4L291.5,118.6z M305.2,119h-5.5l0.2-1h5.5L305.2,119z M299.2,121.4c0.1-0.3,0.2-0.7,0.2-1h5.5l-0.2,1H299.2z
	 M309.3,115.2l0.3-1.7h-7.4c0.3-0.5,0.5-0.9,0.7-1.4l-1.8-0.4c-0.3,0.6-0.6,1.2-0.9,1.8h-4.1l-0.3,1.7h3.3c-1.2,1.7-2.7,3.1-4.4,4.2
	c0.4,0.4,0.7,0.9,0.9,1.4c0.8-0.5,1.5-1,2.2-1.7l-0.2,1.2c-0.3,1.4-0.6,3-2.2,4.2c0.4,0.4,0.8,0.9,1.1,1.4c1-0.8,1.8-1.8,2.2-3h5.7
	l-0.2,0.9c0,0.2-0.2,0.3-0.4,0.3l0,0c-0.3,0-1.1,0-1.9-0.1c0.2,0.6,0.2,1.2,0.2,1.7c0.9,0.1,1.9,0,2.7-0.3c0.7-0.3,0.9-0.8,1.1-1.7
	l1.3-7.5h-7.1c0.3-0.4,0.6-0.8,0.8-1.2L309.3,115.2L309.3,115.2z M317.7,116.9c0.3-0.9,0.6-1.9,0.9-2.9l-1.6-0.1
	c-0.3,1.1-0.6,2.1-0.9,3.1h-2.3c0.4-0.8,0.8-1.7,1.1-2.6l-1.5-0.4c-0.3,0.9-0.6,1.8-1.1,2.6c-0.1,0.3-0.3,0.5-0.6,0.6
	c0.1,0.4,0.2,1.1,0.3,1.4l0,0c0.5-0.2,1-0.2,1.4-0.2h1.9c-1.1,2.6-3.1,4.6-5.7,5.6c0.3,0.4,0.6,0.9,0.8,1.4c3.2-1.4,5.1-3.7,6.5-7
	h2.5c-0.8,3.2-1.4,4.7-1.9,5.1c-0.2,0.2-0.4,0.2-0.6,0.2c-0.4,0-1.1,0-1.9-0.1c0.2,0.5,0.3,1,0.3,1.6c0.7,0,1.3,0,2,0
	c0.5,0,1.1-0.3,1.4-0.6c0.7-0.6,1.4-2.4,2.5-6.9c0.1-0.2,0.2-0.7,0.2-0.7L317.7,116.9L317.7,116.9z M324.9,120.7h1.5l1.3-5.6
	l0.4-2.1h-2.2l-0.3,2.1L324.9,120.7z M324.9,124.8c0.8,0,1.5-0.6,1.7-1.5c0.2-0.6-0.2-1.2-0.8-1.4c-0.1,0-0.2,0-0.3,0
	c-0.8,0-1.5,0.6-1.6,1.5c-0.2,0.6,0.2,1.2,0.8,1.4C324.7,124.7,324.8,124.8,324.9,124.8L324.9,124.8z"/>
<g>
	<g>
		<g>
			<path class="st4" d="M114.9,110.4c-1.4,1.2-2.4,2.8-3.2,4.3c-1.1,2.3-2.3,4.7-5.5,5.7c-3.8,1.2-8.6,0.9-10.6,0.7
				c-1.5-1-3.5-1.8-6.4-2.1c-2.2-0.2-7.9-0.3-11-2c1.2-0.3,2.7-0.6,4.5-0.8c4.1-0.4,9.8-0.7,13.5,0.6c0.1,0.3,0,0.6-0.5,1.4
				c-0.9,1.7,0.8,2.7,2.4,2c1.2-0.5,1.1-1.7,2-2.2c0.5-0.3,0.7-0.7,1.9-0.2c1.5,0.5,3.3,1,4.2,0.4c0.8-0.6,0.9-1.8-0.3-2.5
				c-0.5-0.3-1.1-0.6-1.7-0.9c0.2-0.1,0.5-0.1,0.9,0c0.9,0.2,1.9,0.3,2.4-0.6c0.5-0.9-0.1-1.8-1.5-2.1c-0.8-0.2-1.8-0.5-2.6-0.8
				c0.7-0.1,1.6-0.4,1.8-1.2c0.4-1.3-0.2-2.4-1.3-2.3c-1.4,0.1-1.5,1-4.6,1.3c-1.6,0.1-2.3,1.2-2.6,1.2c-0.3,0-6.2-2.8-15.9-3.9
				c-0.6-0.1-1.2-0.1-1.7-0.2c1.2-0.8,4.1-3,5.9-7.3c2.3-5.4,3.5-12.1,1.9-17.6c-1.6-5.4-4.6-8.2-9.7-7.5c-4.2,0.6-7.9,6.4-9.1,7.7
				c-0.8,0.8-1.7,2.2-3,3.5c-0.2-0.5-1-1.6-3.5-3.6c-2.4-2-3-5.8-3-5.8c-0.9,3.1,0.2,5.5,0.9,6.6c-0.7-0.3-1.5-0.5-2.5-0.7
				c0-1-0.1-3.2-0.3-4.3c-0.3-1.4-1.4-3.4-5.5-1.3c-4,2-6.5,7.5-7.1,12c-1.6,1.2-2.7,2.5-3.4,3.8c-0.2-0.3-0.3-0.6-0.4-0.9
				c0,0,0,0.5,0.3,1.2c-0.2,0.3-0.3,0.7-0.4,1c-0.8,3.3,0.4,7.6,0.6,9.4c0.1,1.8,0.6,2.5-2.4,3.1c-1.1,0.2-1.7,0.9-2,1.7
				c-3.9-0.5-6.8-0.1-6.8-0.1c2.7,0.1,4.9,0.3,6.7,0.6c-0.1,0.9,0,1.9,0.4,2.7c-4.6,0.5-7.4,2.2-7.4,2.2c2.7-1,5.4-1.5,7.7-1.8
				c0.2,0.3,0.3,0.5,0.5,0.8c0.7,0.8,1.5,1.5,2.3,2.1c-2.5,3.1-2.6,6.2-2.1,8.2c0.6,2.6,2.4,4.7,3.6,5.3c1.4,0.6,3.5,0.6,5.2-0.1
				c1.3-0.5,1.9-1.3,2.4-2.4c0.7-1.7,0.8-3.3,0-4.2c-0.3-0.4-0.7-0.6-1.1-0.7c0.1-0.4,0.3-0.9,0.4-1.3c0.2-0.1,0.4-0.2,0.5-0.4
				c0,0,0-0.1,0.1-0.1c1.2,0.3,2.3,0.4,3.3,0.5c0.9,0.6,4.5,3,5.5,3.7c1.5,3.4,3.7,6.2,6.3,8.2c-7.9,2.7-8.8,6.9-6.7,9.5
				c0.6,0.8,1.4,1.4,2.1,1.9c-0.4,0-1,0-2.3,0c-2.2,0-3.6,1.3-3.2,3.2c0.4,1.4,1.4,2.1,2,2.4c0.5,0.7,1.4,1.4,2.8,1.8
				c4.7,1.2,10-0.2,11.1-3.3c1-2.6-0.2-5.1-0.5-5.7c2.2-0.6,5.8-1.2,11.5-1.5c8.4-0.5,12.4,0.1,15.1,0.9c0,0.3,0,0.8-0.8,1.5
				c-1.2,1-3,3.5-0.5,6c2.6,2.7,7.5,4.5,11.1,4c2.6-0.4,4-1.6,4.2-3c0.4,0,1.3-0.2,1.8-1.3c0.8-1.6-0.9-3.2-3-3.8
				c-1.9-0.6-3.6-1-4.3-1.2c0.7-0.4,1.5-1,2.3-1.7c2.3-2.1,3-4.1,0.6-7.8c-2-2.9-5.4-5.7-8.2-7.1c0-0.1-0.1-0.2-0.1-0.3
				c1.9,0.2,9.4,0.7,12.4-4c1-1.6,1.7-3.4,2.5-4.9c1.9-3.8,3.6-7,7.5-7.6C121.3,108.7,118.4,107.5,114.9,110.4z"/>
			<path class="st5" d="M49.7,78.6c3.5-3.7,5.6-3.6,6.1-1.3c0.4,1.8,0.5,3.4,0.6,4.1c-0.3-0.1-0.6-0.1-1-0.1c-6.1-0.7-8.3,2-8.3,2
				c5.4-0.8,9.8,0.6,11.8,1.4c-1.3-0.3-3.2-0.4-6-0.1c-3,0.3-5.6,1.4-7.8,2.8C45.5,86,46.8,81.7,49.7,78.6z"/>
			<path class="st5" d="M61.5,85.7c0,0-0.3-0.3-1.1-0.6c-4-3.5-11.7-2.5-11.7-2.5s1.7-1.2,6.4-0.6c4.7,0.6,8.1,2.8,8.1,2.8
				s-0.7-1-2.6-2c-1.3-1.7-1.4-3.5-1.4-3.5c0.6,1.6,2.3,3.2,4,4.5c1.2,0.9,1.6,1.3,1.7,1.6c-0.6,0.6-1.3,1.3-2.1,1.9
				c0,0,3.5-1.6,7.1-6.2c3.4-4.5,8.3-7.6,12.1-5.4c3.8,2.2,4.9,9.3,3.6,17.7c-1,7.1-5.7,11.6-7.2,12.9c-3-0.3-5.1-0.2-6.7,0
				c1.1-2.5,0.6-5.9,0.6-5.9c5.7-3.1,1.2-7.7,1.2-7.7s-0.1,3.1-1.7,3.6c-1.5,0.5-3.5-2.7-0.4-9.6c3.2-7.1,7.8-10,7.8-10
				c-2.4,0.7-7,5.1-9.1,10.7c-2.1,5.5-1.1,9.6,1.4,9.7c2.5,0.1,2.3-3.6,2.3-3.6c2,4.2-1.8,6-1.8,6.2c-0.2,3-1.2,5.6-1.8,6.9
				c-1.5,0.5-2.4,1.3-3.3,2.2c-0.6,0.6-0.9,1.3-1,2c-1.1-0.5-5.1-2.4-10.8-1.9c1.3-1.7,3.3-3.2,3.3-3.2s-1.9,0.8-3.4,2.1
				c-0.1-0.1-0.6-0.5-0.8-0.6c2-3.5,4.4-8.9,4.4-11.4c0-2.2-0.9-3.6-2.3-3.7c-0.7-0.6-1.2-1.4-1.6-2.1c0.9-0.6,2.2-1.3,3.5-1
				c2.4,0.4,2.6,4.3,2.6,4.3s0.2-4.6-2.1-5.3c-1.6-0.5-3.2,0.8-4.2,1.8c-0.4-0.8-0.5-1.5-0.5-1.5c0,0.7,0,1.3,0.2,1.8
				c-0.5,0.5-0.7,0.9-0.7,0.9s0.3-0.3,0.8-0.7c0.3,1.2,1,2,1.4,2.4c-3.3-0.7-4.2-4.3-4.2-4.3c0.5,3.1,2,4.4,3.4,4.9
				c-1.6,0.7-5.2,3.5-4,12.9c-1.3-0.2-2.9-0.1-4.5,0.7c-0.1,0-0.3-0.3-0.8-0.6c0-0.9,0-3.4,0.2-5.6c0.2-2.6,0.4-5.7-0.7-6.4
				c-0.3-0.2-0.5-0.3-0.8-0.3c-0.3-0.2-0.7-0.7-1.1-1.4c0.7-1,1.4-2,2-2.1c1.3-0.4,1.2,1.5,1.2,1.5s0.6-2.1-1-2.4
				c-0.9-0.1-1.7,1-2.5,2.5c-0.1-0.3-0.3-0.7-0.4-1.2C45.6,87.5,53.4,83.4,61.5,85.7z"/>
			<path class="st6" d="M83.3,76.5c-1.4-0.6-2.8-0.4-4.1,0.2c-0.8,0.5-4.8,3.5-7.6,9.9c-3.1,6.9-1.1,10,0.4,9.6
				c1.6-0.5,1.7-3.6,1.7-3.6s4.5,4.6-1.2,7.7c0,0,0.5,3.5-0.6,5.9c1.6-0.3,3.7-0.3,6.7,0c1.5-1.3,6.1-5.8,7.2-12.9
				C86.8,85.8,86.1,79.4,83.3,76.5z"/>
			<path class="st5" d="M58.9,114.2c0.9,0.5,1.9,1.1,2.8,1.8c-1.8,0.7-3.6,1.2-5.3,1.4c1.9-1.2,2.1-2.7,2.2-3.2
				C58.7,114.2,58.8,114.2,58.9,114.2z"/>
			<path class="st5" d="M59.7,114.2c1.6-0.1,2.9-0.3,2.9-0.3c-1.2,0.1-2.4,0.1-3.4,0c-1.4-0.9-3.1-1.8-5-2.3
				c-0.1-0.3-0.1-0.6-0.1-0.9c0.1-0.4,0.3-0.9,0.5-1.3c3-0.1,7.4,0.1,11.1,1.4c-0.2,0.9,0,1.9,0.3,2.7c-1.3,1.1-2.8,1.9-4.2,2.5
				C61.4,115.4,60.6,114.8,59.7,114.2z"/>
			<path class="st5" d="M58,113.7c-1.5-0.3-2.6-0.8-3.2-1.5C55.7,112.6,56.8,113.1,58,113.7z"/>
			<path class="st4" d="M57.1,92.6c0,0,0.1,0.1,0.1,0.1c-0.1,0-0.2,0-0.3,0L57.1,92.6z"/>
			<path class="st5" d="M43.4,94c-0.2-0.1-0.5-0.2-0.7-0.4c0.1-0.1,0.2-0.3,0.3-0.4C43.1,93.5,43.2,93.7,43.4,94z"/>
			<path class="st5" d="M42.4,91.4c0,0.4,0.1,0.9,0.4,1.5c-0.1,0.2-0.2,0.5-0.3,0.7c-0.3-0.2-0.6-0.4-0.8-0.7c0-0.1,0.1-0.2,0.1-0.4
				C41.9,92.1,42.1,91.7,42.4,91.4z"/>
			<path class="st5" d="M39.4,106.1c1.8-0.8,2.1-1.1,2-3.5c-0.1-2.2-1-6,0.1-9.4c0.2,0.2,0.5,0.5,0.8,0.7c-0.2,0.4-0.3,0.8-0.4,1.1
				c0,0,0.2-0.4,0.6-1c0.3,0.2,0.6,0.4,1,0.6c-0.4,0.5-0.8,1.2-1.2,2.3c-1,2.5-0.6,5.9,0.9,8.8c-0.2,0-0.4,0-0.6,0.1
				c-1.1,0.2-2,1.1-2.4,2.3c-0.6-0.2-1.5-0.4-2.4-0.6C37.8,106.8,38.5,106.5,39.4,106.1z"/>
			<path class="st5" d="M38.1,110.2c-0.5-1-0.6-1.7-0.6-2.2c1,0.2,1.8,0.4,2.4,0.6c-0.1,0.6-0.1,1.2,0,1.8c-0.6,0-1.1,0-1.6,0
				C38.2,110.3,38.1,110.3,38.1,110.2z"/>
			<path class="st5" d="M39.9,110.7c0.3,1.1,0.9,2.3,2.1,3.3c-0.1,0.2-0.2,0.4-0.2,0.6c-0.5-0.4-2.3-1.7-3.4-3.8
				C39,110.7,39.5,110.7,39.9,110.7z"/>
			<path class="st5" d="M45.7,117.4c0.2,1,0.8,2.2,1,2.7c-0.2,0-0.4,0-0.7,0c-0.3,0-0.5,0-0.8,0c-0.2-0.4-0.6-1.4-1.4-1.7
				c-0.3-0.7-0.7-1.7-0.9-2.2c-0.2-0.7-0.8-2.2,0.7-2.2C44.9,114,45.4,116.1,45.7,117.4z"/>
			<path class="st5" d="M43.8,122.1c0.1,0.4,0.4,0.8,0.8,1.1c-0.4,0.3-0.9,0.2-1.1,0.2c0-0.2,0-0.3-0.1-0.5c-0.3-1.6-1.1-2.5-2-2.7
				c0.1-0.4,0.3-1.3,1.6-1.4c1.3,0,1.6,1,1.7,1.4c-0.2,0.1-0.3,0.2-0.5,0.3C43.7,121,43.6,121.5,43.8,122.1z"/>
			<path class="st5" d="M48.3,120.9c0.5,0.5,0.6,1.9,0,3.6c-0.4,1.1-1.4,1.8-2.2,2.1c-1.7,0.7-3.6,0.6-4.6,0.1
				c-0.9-0.4-2.4-2.3-3-4.8c-0.4-1.9-0.3-4.7,2-7.6c0.6,0.4,1,0.6,1.4,0.8c0,0.2,0.1,0.4,0.2,0.6c0.4,1.1,1,2,1.3,2.6
				c-1.5-0.3-2.3,0.5-2.5,1.9c-0.3,0-0.5,0-0.8,0.1c-1.3,0.5-1.6,2.6,0.4,4.9c0,0-1.2-1.6-0.9-3.4c0.4-1.9,2.7-1,3.1,0.7
				c0.4,1.8-0.4,2.2-1,1.9c-0.6-0.2-1.3-1.2-1.5-1.8c0,0,0,1.1,0.9,2c0.7,0.7,2.1,0.7,2.2-0.6c0.6,0.2,1.1-0.2,1.4-0.5
				c0.2,0.1,0.5,0.2,0.7,0.2c1.7,0.2,2.6-1.5,2.6-1.5c0,0-1.2,1.1-2.5,0.8c-0.6-0.1-1-0.6-1.2-1.1c-0.1-0.3,0-0.7,0.2-0.9
				c0.3-0.3,0.6-0.4,1.2-0.4c0.4,0,1,0,1.6-0.1C47.8,120.5,48.1,120.6,48.3,120.9z"/>
			<path class="st5" d="M47.4,119.9c0,0-0.1,0-0.1,0c-0.1,0-0.1,0-0.2,0c-0.1-0.2-0.2-0.6-0.3-1.2c0.3,0.1,0.6,0.1,0.9,0.1
				C47.5,119.1,47.4,119.7,47.4,119.9z"/>
			<path class="st7" d="M46.5,117.7c0-0.1,0-0.2-0.1-0.4c-0.1-0.5-0.2-1-0.4-1.5c0.7,0.3,1.2,0.2,0.5-0.6c-0.6-0.8-0.9-2.2-0.9-2.2
				c-0.2,0.5,0,1.4,0,1.4c-0.1,0-0.2,0.1-0.2,0.1c-0.4-0.6-0.9-1.1-1.6-1.2c-0.7-0.1-1.2,0-1.6,0.2c-0.5-0.5-1.3-1.5-1.6-3
				c1,0,1.6,0,1.5,0c-0.5-0.1-1.1-0.1-1.6-0.2c-0.1-0.5-0.1-0.9-0.1-1.5c0-0.1,0-0.1,0-0.2c0.9,0.3,1.4,0.5,1.5,0.5
				c0.2,0-0.2-0.4-1.4-0.9c0.6-2.6,3.6-2.4,5.5-1.3c-0.6,0-1.1,0.1-1.5,0.2c-0.9,0.4-0.6,2.8,1.4,3.5c0.1,0,0.5-0.4,1.8-0.9
				c1.3-0.6,1.4-1.6,0.4-2.3c-0.4-0.2-0.8-0.4-1.3-0.5c0.4-0.2,3.8-1.3,7.8,0.9c-0.3,0.3-0.5,0.5-0.7,0.9c0,0,0,0,0,0.1
				c-0.9,0.1-1.9,0.3-2.9,0.6c-0.3,0.1,0.8-0.1,2.7-0.1c-0.3,0.7-0.5,1.3-0.4,1.9c-0.8-0.2-1.7-0.3-2.6-0.3c-0.2,0,0.9,0.2,2.7,0.8
				c0.3,1,1.2,1.8,2.5,2.1c0.6,0.2,1.4,0.3,2.1,0.3c-0.5,2.1-2.2,3.1-3.9,3.5c-2.5,0.1-4.4-0.1-5.1-0.2c0.2-0.6,0-1,0-1
				C48.9,118.5,47.3,118,46.5,117.7z"/>
			<path class="st8" d="M58.7,122.9c0-1.3,0.4-1,1.3-0.6c1,0.5,3.3,2.7,4.4,2.9c1.2,0.1,1-1.2,0.5-2.2c-0.5-1-1.2-2.3-0.3-2.5
				c0.8-0.3,2.3,0,4.1,0.9c1.8,0.8,5.9,3.6,10.6,4.5c4.8,0.9,7.2,2.3,8.2,4.4c0.9,2,0.7,5-4.2,5.5c-5,0.6-11.5-1.3-17.5-5.5
				C62.7,128.2,60.3,125.3,58.7,122.9z"/>
			<path class="st5" d="M105.8,133.1c2.8,4.7,1.6,5.8-3.9,10.2c0,0,1-0.3,2.2-1.1c0.6,0.3,2.1,0.9,4.3,1.9c2.6,1.2,2.8,3.4,1.4,3.6
				c0-0.3-0.1-0.5-0.2-0.8c-0.9-1.9-3.9-1.5-4.2-1.3c0,0,3.5,0.1,3.8,2c0.3,1.8-2.9,3.9-8.5,2.1c-5.6-1.8-6.7-3.8-5.7-5.5
				c0.9-1.5,1.5-3.1,1.2-4.2c0.7,0.2,1.3,0.5,1.9,0.8c0.3,0.1-0.7-1.9-9.6-3c-8.9-1-18.5,1.3-22.1,3.7c0,0,0.6-0.3,2.2-0.8
				c2.1,3.5-0.1,7.6-6.1,8.1c-6.1,0.5-7.1-2.2-6.3-3.4c0.7-1.2,4.1-0.7,4.1-0.7c-0.2-0.2-2.6-1-3.9-0.3c-0.6,0.3-1,1.2-0.9,2.1
				c-0.4-0.3-1-0.9-1-1.7c0-1.1,0.7-1.8,2.4-2c1.3-0.2,2.4-0.4,2.9-0.5c1.6,1.1,3.1,1.5,3.1,1.5c-4.4-2.7-6.4-4.7-4.6-7.6
				c1.5-2.4,5.4-4.5,6.5-5.1c0.6,0.4,1.2,0.8,1.8,1.2c4.6,2.7,13.1,5.2,17.5,4.2c4.4-1.1,5.4-3.6,4.3-6.4c-1.1-2.8-4-4.1-9.4-5.3
				c-5.4-1.2-6.8-2.4-9.5-3.8c-2.7-1.4-4.6-1.5-5.3-0.8c-0.7,0.6-0.3,1.8,0.6,3.3c0.8,1.6-0.1,1.2-1.1,0.6c-0.9-0.6-3-3-4.3-2.8
				c-0.6,0.1-0.9,0.4-1,0.8c-1.2-1.9-1.9-3.3-1.9-3.3c0.2,0.6,0.4,1.3,0.6,1.9c-0.6-0.4-2.3-1.5-3.2-2c4,0.1,6.9-0.9,9-2
				c0.4,0.4,0.9,0.7,1.3,1.1c0,0-0.4-0.5-1.2-1.2c1.9-1.1,3-2.3,3.5-2.9c0.3,0.8,0.8,1.4,1.1,1.6c0,0-2.4-3.8,1.4-6.3
				c3.8-2.5,12.3-2.4,27.9,1.6c0.5,0.1,1.3-0.9,2.9-1c2.9-0.2,3.4-1,4.5-1.2c0.7-0.1,0.9,0.5,0.7,1.3c-0.2,0.9-1.3,1.2-1.5,1.4
				c-0.4-0.1-0.6-0.2-0.6-0.2s1.4,0.9,2.8,1.4c1.4,0.5,2.1,1.1,1.6,1.6c-0.6,0.5-1.5,0.3-2.3,0.3c-0.5,0-0.7,0.2-0.9,0.3
				c-0.5-0.3-0.9-0.5-1.1-0.6c0,0,1.1,1.2,2.3,1.8c1.2,0.6,1.8,1.4,1,1.8c-0.8,0.5-2.7-0.5-3.6-0.6c-0.9-0.2-1.6-0.2-2.5,0.5
				c-1.2,0.9-1.2,1.4-1.9,1.9c-0.7,0.4-2.1,0.4-1.5-1.1c0.8-1.7-0.4-3-0.4-3s0.1,0.6,0.1,0.9c-0.6-0.5-1.7-0.8-3.2-1.1
				c-2.6-0.6-10.4-1.5-17.1,2.6c-0.1,0.1,0.6-0.2,1.8-0.5c0.6,0.5,3.2,2.2,9.8,3c7.4,0.8,9.1,3.3,10.6,5c-0.4-0.2-0.8-0.3-1.1-0.4
				C97.1,124.7,103,128.3,105.8,133.1z"/>
			<path class="st5" d="M113.3,116c-0.7,1.5-1.6,2.7-2.6,4.3c-3,4.7-11.2,3.9-12.2,3.8c-0.4-0.7-0.9-1.4-1.7-2.2
				c1.8,0.3,5.8,0.8,9.9-0.7c3.4-1.2,4.4-4,5.6-6.3c0.8-1.6,1.5-3.1,2.9-4.1c1.6-1.3,3.4-2,4.8-2.1
				C116.3,109.8,114.8,112.8,113.3,116z"/>
		</g>
		<path class="st9" d="M47.9,108.6c0,0.7-3.1,0.1-3-0.7C45,107.1,47.9,107.6,47.9,108.6z"/>
	</g>
	<path class="st4" d="M44.1,124.2c0,0,0.8,0.9,0.4,2.2c0,0,0.5,0.1,0.6-0.9C45.1,124.5,44.1,124.2,44.1,124.2z"/>
	<g>
		<path class="st9" d="M44.5,101.1c-0.1,0.6,0,1.1,0.2,1.3c0.1,0.2,0.3-0.6,0.2-1.4c0.2,0,0.4,0.1,0.5,0.3c0-0.4,0-0.7,0-1.1
			c0.2-4.4-0.2-5.5-0.5-5.7c-0.3-0.2-2.1,0.7-2.6,4.3c-0.5,3.3,0.7,5.9,1.1,6.7c0.3,0,0.6,0,0.9,0.1
			C43.6,104.6,43.6,101.6,44.5,101.1z"/>
	</g>
	<g>
		<path class="st9" d="M57.6,93.4c-0.4,0.1-1,0.1-1.8,0c-0.4,0.1-1.8,0.4-3.3,4c-1.6,3.6-1.1,7.6-1.1,8.7c0.6,0.1,1.2,0.3,1.7,0.5
			c-0.4-1.4,0.3-4.5,1.5-5.1c-0.2,0.7-0.1,1.2,0,1.4c0.2,0.5,0.4-0.1,0.3-1.5c0,0,0.1,0,0.1,0c0.4,0.1,0.7,0.5,0.7,1.1
			c0.7-1.8,1.5-3.7,2-5.9C58,95.2,57.9,94.1,57.6,93.4z"/>
	</g>
</g>
</svg>
