<?xml version="1.0" encoding="utf-8"?>
<!-- Generator: Adobe Illustrator 24.3.0, SVG Export Plug-In . SVG Version: 6.00 Build 0)  -->
<svg version="1.1" id="群組_18" xmlns="http://www.w3.org/2000/svg" xmlns:xlink="http://www.w3.org/1999/xlink" x="0px" y="0px"
	 viewBox="0 0 600 180" style="enable-background:new 0 0 600 180;" xml:space="preserve">
<style type="text/css">
	.st0{fill-rule:evenodd;clip-rule:evenodd;fill:#1E1E1E;}
	.st1{fill-rule:evenodd;clip-rule:evenodd;}
	.st2{fill:#FEFCF7;}
	.st3{fill-rule:evenodd;clip-rule:evenodd;fill:#FFFFFF;}
	.st4{fill-rule:evenodd;clip-rule:evenodd;stroke:#000000;stroke-width:3;}
	.st5{fill-rule:evenodd;clip-rule:evenodd;fill:#FFFFFF;stroke:#000000;stroke-width:2;}
	.st6{fill:#0C0103;}
	.st7{fill:#D99B00;}
	.st8{fill:#F7BEAD;}
	.st9{fill:#FEEDCD;}
	.st10{fill:#FCDA94;}
	.st11{fill:#FFFFFF;}
</style>
<path id="形狀_512_拷貝_6" class="st0" d="M275.4,92.5c-0.8-3.3-8.8-6.5-8.8-6.5c2.3,0.3,4.6,0.2,6.9-0.4c1-0.2,2-0.6,2.9-1
	c-0.8-0.9-1.4-1.9-2-2.9c-1.9-3.6-2.8-7.5-2.6-11.6c0.3-4.5,2.4-8.8,5.8-11.8c2.3-2.1,5-3.7,7.9-4.8c-1.2-3.5-1.4-7.2-0.5-10.8
	c0.8-3.8,3-7.1,6.2-9.4c2-1.4,4.2-2.4,6.5-3c0.8-0.2,1.6-0.3,2.5-0.4c1.6-0.2,3.3-0.1,4.9,0.1c4.6-3.5-3.2-13-3.2-13
	s10.3,8.1,13.8,7.3l0,0c4.4-1.2,8.1-6.9,13.3-18.6c0,0-3.3,11.1-2.4,14.7c0.7,2.9,5,3.4,8.4,2.6h0.1c0,0-3.3,2.9-4.2,5.3
	c-0.2,0.6-0.2,1.3,0.1,1.8c1.7,0.5,3.4,1.2,4.9,2.1c5.7,3.4,9,9.6,8.8,16.3c2.2,0.6,4.3,1.5,6.3,2.6s3.7,2.5,5.3,4.2
	c2.7,2.9,4.2,6.6,4.4,10.6c0.1,1.7-0.1,3.3-0.5,5c1.3,1.7,4.4,4,11.5,4.7c-1,0.1-2,0.3-3,0.5c-2,0.5-4.3,1.4-5,3.1
	c-1,2.4,2.3,5.9,11.8,9.9c0,0-14.5-4.9-19.6-3.7c-0.5,0.1-0.9,0.3-1.3,0.7c-2.3,2.3-1.3,6.3,4.3,18.5c0,0-6.5-7.9-8.8-7.5H350
	c-1.5,0.4-3,4.1-4.3,9.9c0,0,0.2-9.2-1.7-10.4c-0.4-0.2-0.8-0.4-1.3-0.5c-1.2,1.3-2.5,2.4-4,3.3s-3.1,1.5-4.8,2
	c-0.9,0.2-1.8,0.4-2.7,0.5c-2.2,0.2-4.5,0.1-6.7-0.3c-2-0.4-4-1-5.8-1.8c-2.5,2.5-5.6,4.2-9,5c-0.6,0.1-1.2,0.3-1.8,0.4
	c-3.4,0.5-6.8,0.2-10-0.8c-2.1-0.7-4.1-1.8-5.8-3.3c-0.5-0.1-1.1,0-1.6,0.1s-1,0.4-1.4,0.7c-2.5,2-3.8,11.4-3.8,11.4
	c-0.6-8.9-1.2-11.9-3.9-13.3c-0.5-0.2-1-0.2-1.5-0.1c-4.4,1.1-13.9,10-13.9,10C273.5,100.4,276.1,95.1,275.4,92.5z M344.3,95.8
	c0.7,0.4,1.4,1.3,1.9,4.4c1.2-3.1,2.3-3.8,3.2-4c0.1,0,0.1,0,0.2,0c0.9-0.2,1.9,0.2,3.2,1.2c0.6,0.5,1.3,1,1.8,1.5
	c-1-2.2-1.8-4.5-2.3-6.8c-0.3-1.3-0.4-2.6-0.3-3.9c0.2-1.1,0.7-2,1.4-2.8c0.5-0.5,1.2-0.8,1.8-1c1.9-0.3,3.8-0.3,5.7,0
	c1.3,0.2,2.8,0.5,4.5,0.8c-1.3-0.9-2.4-2.2-3.1-3.7c-0.4-0.9-0.4-1.9,0-2.8c0.7-1.4,2-2.4,3.4-3c-0.6-0.2-1.3-0.4-1.9-0.7
	c-1.5-0.6-2.9-1.5-4.1-2.6c-0.1-0.1-0.1-0.1-0.2-0.2c-0.3,1-0.7,1.9-1.2,2.8c-1.3,2.2-3,4.2-5.1,5.7c-1.9,1.4-4.1,2.6-6.4,3.4
	c0.1,4-1.2,7.9-3.7,11.1C343.7,95.4,344,95.6,344.3,95.8z M307.8,30.7c2.2,0.7,4.4,1.7,6.3,2.9c2.1-1.7,4.6-2.9,7.3-3.5
	c0.2,0,0.4-0.1,0.6-0.1c2.5-0.5,5-0.6,7.5-0.1c-0.1-0.7-0.1-1.3,0.2-2c0.5-1.2,1.3-2.3,2.1-3.3c-0.8,0-1.6-0.1-2.4-0.3
	c-1.9-0.3-3.5-1.7-4.1-3.6c-0.3-1.7-0.3-3.4,0.1-5.1c-0.7,1.4-1.6,2.7-2.5,4c-2.3,3.3-4.5,5.2-7,5.8c0,0,0,0-0.1,0
	c-1.5,0.2-3.1-0.1-4.4-0.8c-1.6-0.8-3.2-1.6-4.7-2.6c-0.2-0.1-0.4-0.2-0.6-0.4c1.4,2.8,1.8,5.2,1.2,7c-0.2,0.6-0.5,1.1-0.9,1.6l0,0
	l-0.1,0.1C306.9,30.5,307.4,30.6,307.8,30.7L307.8,30.7z M281.6,98.9c1.8,0.9,3,2.6,3.4,4.6c0.2,0.7,0.3,1.4,0.4,2.1
	c0.8-2.4,1.6-3.9,2.6-4.7c0.7-0.6,1.6-0.9,2.5-1c-1.3-1.4-2.3-3-3.1-4.7c-0.7-1.6-1.3-3.4-1.5-5.1c-3.3-0.5-6.3-2.1-8.7-4.5
	c-1.1,0.6-2.2,1-3.4,1.3c-0.7,0.2-1.4,0.3-2.1,0.4c1,0.6,1.9,1.2,2.8,2c1,0.8,1.7,1.8,2.1,3c0.2,1,0.2,2.1-0.2,3.1
	c-0.4,1.4-1,2.7-1.7,3.9c-0.5,1-1.2,2-1.9,3.2c1.9-1.6,4.1-2.8,6.4-3.6C280,98.5,280.9,98.6,281.6,98.9L281.6,98.9z M266.1,43.4
	c-0.4-0.2-0.6-0.7-0.4-1.2l0,0v-0.1c0.2-0.4,0.8-0.6,1.2-0.3l0,0l8.1,5.6L266.1,43.4z M271.1,37.3L271.1,37.3c0.3-0.3,0.9-0.3,1.2,0
	c0,0,0,0,0,0.1l7.1,8.8l-8.3-7.6C270.8,38.2,270.8,37.7,271.1,37.3L271.1,37.3L271.1,37.3z M264.2,49.8c-0.4-0.1-0.7-0.6-0.5-1.1
	l0,0v-0.1c0.2-0.4,0.7-0.7,1.1-0.5l0,0l13.3,3.4L264.2,49.8z M364.2,38.2c0.4-0.2,1,0,1.2,0.4l0,0l0,0c0.2,0.4,0,0.9-0.4,1.1l0,0
	l-12.6,4.2L364.2,38.2z M363.2,34.1l-14.5,8.8l13.4-10.2c0.4-0.3,0.9-0.3,1.2,0.1l0,0l0,0C363.7,33.2,363.6,33.8,363.2,34.1
	C363.3,34.1,363.2,34.1,363.2,34.1L363.2,34.1z M354.7,33.7l-4.7,4l3-4.8c0.3-0.4,0.9-0.4,1.2-0.1l0,0c0.3-0.1,0.5,0.1,0.6,0.4
	C354.8,33.4,354.8,33.6,354.7,33.7L354.7,33.7z M316.9,106.1l1.8,13.1c0,0.5-0.4,0.9-0.8,0.9c-0.4,0.1-0.8-0.1-0.9-0.5v-0.1
	L316.9,106.1z M322.8,113.4c-0.5,0.1-0.9-0.2-1.1-0.6l0,0l-2.5-6.9l4.1,6.4C323.6,112.7,323.3,113.2,322.8,113.4
	C322.9,113.4,322.8,113.4,322.8,113.4L322.8,113.4z M313.4,105.3l-3.5,8.6c-0.1,0.5-0.5,0.8-1,0.7s-0.8-0.5-0.7-1v-0.1L313.4,105.3z
	"/>
<g id="日本進口_限量獨家">
	<path class="st1" d="M366.8,89.6c-0.4-1.5-1.1-2.9-2-4.2l-1.2-1.8l1.8-1.1c0.9-0.5,1.5-1.5,1.6-2.5v-0.6c-0.1,0-0.1,0.1-0.2,0.1
		c-1.1,0.8-2.3,1.2-3.6,1.4c-0.8,0.1-1.7,0.2-2.5,0.2c-0.1,0-0.2,0-0.4,0l-0.7,9.6h-9.4l3-43H365l1.4-0.3l2.5,1.5l0.1-1.1h23.9
		L391.3,71l3.2,3.8l-1.8,1.3c-1.3,0.9-2.6,1.9-3.8,2.7c1.1,1.2,2.4,2.2,3.9,2.9l2.6,1.3l-2.2,2c-1.6,1.5-3,3.1-4.2,5l-1.1,1.7
		l-1.7-1.1c-1.6-1-3-2.2-4.3-3.6v0.4l-1.6,0.4c-7.7,1.8-9.8,2.5-10.8,3.1l-2.3,1.4L366.8,89.6z M377.2,78.5l0.3-0.1
		c-0.1-0.2-0.2-0.5-0.2-0.7L377.2,78.5z M153.3,89.9c-0.9-1.4-2-2.6-3.3-3.7l-2.2-1.9l2.5-1.4c2.9-1.6,5.1-4.2,6.7-7.8h-0.2
		c-0.6,0-1.1,0.1-1.6,0.4l-2.3,1.3l-0.6-2.6c-0.4-1.6-0.9-3.1-1.5-4.6l-0.9-2.1l2.2-0.5c0.5-0.1,1-0.4,1.4-0.8s0.7-0.8,1.1-1.2h-2.8
		l0.6-8.9h4.8c-1-1.4-2-2.7-3.2-3.9l-1.6-1.8l8.2-4.9l1.1,1.1c2,2.1,3.9,4.3,5.6,6.6l0.5,0.6c1.3-2,2.4-4.1,3.3-6.3l0.7-1.7l7.3,2.2
		l6.6-1.8l0.7,1.5c0.7,1.6,1.3,3.2,1.8,4.9h7.3l-0.6,8.9h-1.8l-0.3,4.6h0.1l-0.5,6.7h2.3l-0.5,6.9l3-0.3l-2.1,3.4
		c-1,1.6-1.7,3.3-2.1,5.1l-0.3,1.4l-1.5,0.1c-4.4,0.3-10,0.4-15.6,0.4c-6.7,0-11.4-0.7-14.8-3.7c-1.4,1.6-3,3-4.8,4.1l-1.7,1.1
		L153.3,89.9z M165.7,78.3c0.1,0.1,0.2,0.2,0.4,0.4l0.1-1.5C166,77.5,165.9,77.9,165.7,78.3z M164.7,66.6c0-0.1-0.1-0.1-0.1-0.2
		l-0.1,0.1L164.7,66.6z M510.1,90.9c-0.8,0-1.7,0-2.6-0.1l-2-0.1l0.1-2c0-1-0.1-1.9-0.3-2.9c-2.8,1.2-5.6,2.3-8.5,3.2l-1.8,0.6
		l-0.7-1.8c-0.6-1.7-1.5-3.2-2.6-4.7l-1.9-2.5l3.1-0.7c0.7-0.1,1.4-0.3,2.1-0.5c-0.6-1.3-1.3-2.5-2.2-3.7l-1.9-2.6l3.1-0.6
		c0.6-0.1,1.3-0.3,2-0.4c-0.6-1.3-1.4-2.6-2.2-3.7l-1.9-2.6l3.2-0.5c1.8-0.3,3.7-0.7,5.5-1.2v-0.7h-6.9l1-14.3H509l-0.5-1.2L519,45
		l0.7,1.5c0.4,0.8,0.8,1.7,1.1,2.6h15.6l-1,14.3h-6.6l5.1,4.3l-2,1.5c-1.3,0.9-2.6,1.9-4,2.8c1,2.9,3,6.2,6.9,7.9l3,1.3l-2.4,2.1
		c-1.6,1.4-2.9,2.9-4.1,4.7l-1,1.5l-1.6-0.8c-3.1-1.6-5.5-3.9-7.4-7.1c-0.6,2.7-1.7,5-3.3,6.4c-1.7,1.8-4.1,2.8-6.6,2.8
		c-0.1,0-0.3,0-0.4,0C510.7,90.9,510.4,90.9,510.1,90.9z M517.9,65.7c0.3,0.4,0.6,0.8,0.8,1.2c0.6-0.5,1.3-0.9,1.9-1.4h-2.5
		C518,65.5,517.9,65.6,517.9,65.7z M449.1,90.9c-0.5,0-1,0-1.5-0.1l-2-0.2l0.2-2c0.2-1.7-0.1-3.4-0.9-4.9l-1.5-3.2l3.5,0.3
		c0.5,0,1,0.1,1.5,0.1l-0.9-1.6c-0.9-1.5-2-2.9-3.3-4.1l-1.8-1.7l2.1-1.4c2-1.3,3.8-2.9,5.4-4.7l-1-1.4c-1-1.4-2.2-2.6-3.6-3.7
		l-2.1-1.7l2.2-1.5c1.3-0.9,2.5-1.9,3.6-3c-0.8-1.2-1.7-2.4-2.8-3.4l-1.7-1.7l7.8-5.5l1.2,1.1c0.6,0.5,1.1,1.1,1.6,1.6
		c0.1-0.3,0.3-0.5,0.4-0.8l0.9-1.7l4,2v-0.4h28.5l-0.9,13h1.1l-0.2,2.2c0,0-0.2,1.6-0.2,2.3c-1.4,15.5-2,20.4-3.6,22.5
		c-1,1.6-2.6,2.6-4.5,3c-1.2,0.2-2.4,0.3-3.6,0.3c-0.4,0-0.8,0-1.2,0l-1.9-0.1v-1.9c0-0.2,0-0.3,0-0.5l-1.8,0.5l-0.1-1.8
		c-3.9,0.5-7.8,0.9-11.1,1.3l-3.7,0.4v-0.8c-1,1.2-2.4,2-3.9,2.4C452.1,90.7,450.6,90.9,449.1,90.9z M449.3,81c0.3,0,0.6,0,1,0
		c0.1-0.1,0.2-0.4,0.3-1C450.5,79.9,449.3,81,449.3,81z M119.3,90.8l0.5-6.8h-8.5v-0.7c-0.4,0.3-0.7,0.6-1.1,0.9l-1.7,1.3l-1.2-1.8
		c-1.1-1.7-2.4-3.3-3.9-4.7l-1.8-1.7l2-1.4c3.6-2.5,7.2-6.7,9.9-11.6h-8.2l0.7-10.4h15.8l0.6-7.9h10.7l-0.6,7.9h15.9l-0.6,8.5
		l-2-0.1v2h-6.6c2.1,4.6,4.9,8.5,8.1,11l2,1.6l-2,1.6c-1.9,1.5-3.6,3.3-5,5.2l-1.3,1.8l-1.6-1.5c-0.2-0.2-0.4-0.4-0.6-0.5v0.6h-8.3
		l-0.5,6.8h-10.7V90.8z M132,73.7c-0.2-0.5-0.5-1-0.7-1.5l-0.1,1.5H132z M120.5,73.7l0.1-1.6c-0.3,0.5-0.7,1.1-1,1.6H120.5z
		 M84.3,90.3l0.2-2.8H70.7l-0.2,2.8H60.1l2.8-40l2,0.1v-2H98l-2.9,41.9H84.3z M85.2,77.2l0.3-4.4H71.7l-0.3,4.4H85.2z M86.2,62.6
		l0.3-3.9H72.7l-0.3,3.9H86.2z M227.8,90.1l0.2-3.4h-17.5l-0.2,3.4h-10.5l2.8-40h38.9l-2.8,40H227.8z M228.7,76.3l1.1-15.8h-17.5
		l-1.1,15.8H228.7z M396.5,89.8l0.6-8.5h4l0.3-4.9h0.7l0.6-9H398l0.6-8.3h5.5l0.8-11.8h32.2l-0.8,11.8h5.8l-0.6,8.3h-4.8l-0.6,9h0.7
		l-0.3,4.9h4.1l-0.6,8.5H396.5z"/>
	<path d="M518,47.5c0.6,1.2,1.1,2.5,1.4,3.7h14.9l-0.7,10.3h-6.4l0.3-4.7h-25.4l-0.3,4.7h-6.1l0.7-10.3h15.3
		c-0.2-0.7-0.4-1.3-0.6-1.8L518,47.5 M160.6,48c2,2,3.8,4.1,5.4,6.4l-5,3.5c-1.6-2.5-3.3-4.8-5.3-7L160.6,48 M131,48.1l-0.6,7.9
		h15.9l-0.4,6.4l0,0h-9.6c2.1,5.8,5.5,11.2,9.8,14.5c-2,1.6-3.8,3.5-5.4,5.5c-1.3-1.2-2.5-2.6-3.6-4l-0.3,3.6h-8.3l-0.5,6.8h-6.7
		l0.5-6.8h-8.5l0.3-3.8c-1.4,1.6-3,3.1-4.7,4.5c-1.2-1.9-2.6-3.6-4.2-5.1c4.9-3.4,9.2-9.2,12.1-15.2h-9.3L108,56h15.8l0.6-7.9H131
		 M115.8,75.7h6.6l0.9-13.3l0,0C121.4,67.1,118.9,71.6,115.8,75.7 M129,75.7L129,75.7h6.3c-2.4-4.1-4.2-8.5-5.4-13.1L129,75.7
		 M452.1,48.2c1.2,1.1,2.2,2.3,3.1,3.6c0.7-1,1.4-2.1,2-3.2l5,2.5l0.1-1.6h24.5L486,60.8h-15.9c-0.3,0.6-0.6,1.2-1,1.7l0,0l0,0H487
		c0,0-0.2,1.7-0.2,2.4c-1.3,14.4-2,19.8-3.2,21.5c-0.7,1.1-1.8,1.9-3.1,2.1c-1.1,0.2-2.2,0.3-3.3,0.3c-0.4,0-0.7,0-1.1,0
		c0-1-0.1-2.1-0.4-3.1l-1.5,0.5c0-0.4-0.1-0.9-0.1-1.4c-5.3,0.6-10.7,1.2-14.8,1.7l-0.2-5c2.2-0.1,4.9-0.3,7.8-0.6l0.2-2.1h-6.2
		l0.6-9.1c-0.6-0.6-1.3-1.1-1.9-1.7c0,1.2-0.1,2.4-0.2,3.7c-0.4,5.9-1.2,12-3.5,14.9c-0.7,0.9-1.7,1.6-2.9,1.8
		c-1.3,0.3-2.6,0.5-4,0.5c-0.5,0-0.9,0-1.4-0.1c0.2-2-0.2-4.1-1-5.9c0.7,0.1,1.4,0.1,2.1,0.1c0.5,0,1.1,0,1.6-0.1
		c0.5,0,1-0.3,1.3-0.7c0.7-0.9,1.2-4,1.6-7.8c-1.3,1.4-2.7,2.8-4.2,4c-1-1.7-2.2-3.2-3.7-4.6c3.2-2.1,6-4.9,8.2-8.1
		c0-1.1-0.1-2.2-0.3-3.3c-1,0.9-2,1.7-3,2.5c-1.1-1.5-2.4-2.9-3.9-4.1c1.8-1.3,3.5-2.7,5-4.3c-1-1.9-2.3-3.6-3.9-5.1L452.1,48.2
		 M459.6,65.9c1.7-1.4,3.2-3.2,4.4-5.1h-2.4l0.6-9c-1.2,1.9-2.6,3.8-4,5.5C459.1,60.1,459.6,63,459.6,65.9 M479.1,56.3h1.8l0.2-2.2
		h-1.8L479.1,56.3 M473.1,56.3h1.8L475,54h-1.8L473.1,56.3 M467.1,56.3h1.7L469,54h-1.7L467.1,56.3 M480.8,67.4h-15.2
		c-0.7,0.8-1.4,1.5-2.2,2.2h4.3l0.1-1.7h4.6l-0.1,1.7h6.6l-0.6,9.1h-1.1c0.5,1.4,0.9,2.9,1.2,4.4c0.1-0.1,0.3-0.3,0.4-0.4
		C479.4,81.8,479.9,78.1,480.8,67.4 M472,75.1h1.8l0.1-1.7h-1.8L472,75.1 M465.6,75.1h1.7l0.1-1.7h-1.7L465.6,75.1 M471.6,80.5
		l1.6-0.1c-0.1-0.3-0.3-0.7-0.4-1l1.9-0.6h-3L471.6,80.5 M173.2,48.4l4.9,1.5c-0.7,1.6-1.5,3.3-2.4,4.9h5.4
		c-0.4-1.6-0.9-3.2-1.4-4.7l5.2-1.4c0.9,2,1.6,4,2,6.1h6.7l-0.3,4.9H185l-0.1,1.9h6.5l-0.3,4.6h-6.5l-0.1,2h6.6l-0.3,4.6h-6.6
		l-0.1,2.1h8.8l-0.4,5.1H168l1.1-15.7c-0.7,0.8-1.5,1.6-2.2,2.3c-0.5-1.4-1.2-2.7-1.9-4c-1.4,1.9-3,4-4.5,5.8h2.1l1-0.1l2.9,1.1
		c-0.7,3.2-1.6,6.2-3,9.2c2.2,3.7,6.5,4.2,12.8,4.3c4.6,0,12.2-0.3,17.4-0.8c-1.1,1.8-1.9,3.7-2.4,5.7c-4.7,0.3-10.3,0.4-15.5,0.4
		c-7.3,0-12-0.8-14.9-4.8c-1.5,2.2-3.5,4.1-5.8,5.5c-1-1.5-2.2-2.9-3.7-4.1c4-2.2,6.9-6.2,8.7-11.5h-3c-0.1,0-0.1,0-0.2,0
		c-0.9,0-1.8,0.2-2.6,0.7c-0.4-1.7-0.9-3.3-1.5-4.9c0.9-0.2,1.8-0.7,2.4-1.4c1.4-1.4,2.6-2.9,3.8-4.5h-4.8l0.3-4.9h8.7l0.5-0.2
		l2.9,1.3C169.3,56,171.6,52.3,173.2,48.4 M174.8,61.6h4.7l0.1-1.9h-4.7L174.8,61.6 M174.3,68.2h4.7l0.1-2h-4.7L174.3,68.2
		 M173.9,75h4.7l0.1-2.1H174L173.9,75 M435,49.3L434.2,60H406l0.8-10.7H435 M412.6,53.3h15.9l0.1-0.9h-15.9L412.6,53.3 M412.3,57.1
		h15.9l0.1-0.9h-15.9L412.3,57.1 M366.3,49.5l3.9,2.3c-1.3,3.7-2.9,8.1-4.2,11.3c1.7,2.6,2.4,5.7,2.1,8.8c-0.2,3-0.9,4.9-2.5,6.1
		c-0.8,0.5-1.7,0.9-2.6,1c-0.7,0.1-1.5,0.1-2.2,0.1c-0.2,0-0.4,0-0.6,0c0.1-1.8-0.2-3.6-0.9-5.3c0.3,0,0.7,0.1,1,0.1
		c0.2,0,0.3,0,0.5,0l0,0c0.4,0,0.7-0.1,1.1-0.3c0.6-0.7,0.9-1.5,0.8-2.4c0.2-2.6-0.5-5.2-2-7.4c0.8-2.4,1.8-5.8,2.6-8.5h-3.1
		l-2.3,33.4h-5.4l2.7-39h10.2L366.3,49.5 M391,49.7L389.5,70h-1.4l3.6,4.3c-1.9,1.3-3.8,2.8-5.6,3.9c1.5,2.2,3.5,4,5.9,5.2
		c-1.7,1.6-3.3,3.4-4.5,5.4c-3.3-2.1-5.8-5.2-7.3-8.8c-0.2,1.9-0.2,3.8-0.1,5.6c-8.3,2-10.2,2.7-11.4,3.4c-0.5-1.7-1.3-3.3-2.3-4.8
		c1.5-0.9,2.4-2.4,2.5-4.1l2.1-30.4L391,49.7 M376.7,57.3h7.7l0.2-2.3h-7.7L376.7,57.3 M376.1,64.7h7.7l0.2-2.4h-7.7L376.1,64.7
		 M383.9,73.6c1.4-1.1,2.7-2.4,4-3.7h-5.1C383.1,71.2,383.5,72.5,383.9,73.6 M375,81l5.2-1c-1.3-3.2-2.2-6.5-2.7-10h-1.7L375,81
		 M95.8,50.5l-2.6,37.9h-6.7l0.2-2.8H68.8l-0.2,2.8h-6.4l2.6-37.9H95.8 M70.3,64.6h17.8l0.5-7.8l0,0H70.8L70.3,64.6 M69.3,79.2h17.8
		l0.6-8.4H69.9L69.3,79.2 M64.8,50.5L64.8,50.5L64.8,50.5 M239.3,52.1l-2.5,36h-6.9l0.2-3.4h-21.5l-0.2,3.4h-6.5l2.5-36l0,0H239.3
		 M209.1,78.3L209.1,78.3h21.5l1.4-19.8h-21.5L209.1,78.3 M526.7,58.2l-0.4,5.2h-8.9c-0.8,0.7-1.6,1.3-2.4,1.8
		c1.3,1.3,2.3,2.8,3.1,4.5c2.8-1.9,5.4-3.9,7.9-6.2l4.9,4.1c-1.6,1.2-3.4,2.4-5.2,3.6c1.2,4.6,3.9,8.6,8.5,10.6
		c-1.7,1.5-3.2,3.2-4.4,5.1c-4.8-2.5-7.6-6.9-9.2-12.5l-0.9,0.5c0.7,5-0.6,9.7-2.9,11.6c-1.4,1.5-3.3,2.3-5.3,2.3
		c-0.1,0-0.3,0-0.4,0c-0.3,0-0.6,0-0.9,0c-0.8,0-1.6,0-2.5-0.1c0.1-1.9-0.4-3.9-1.2-5.6c-3.3,1.6-6.7,2.9-10.2,4
		c-0.7-1.8-1.7-3.6-2.9-5.2c6.9-1.5,15.3-4.9,19.8-8.4c-0.1-0.3-0.2-0.6-0.3-0.9c-5,2.8-10.3,5.1-15.8,6.7c-0.7-1.7-1.6-3.3-2.7-4.8
		c5.4-1,12.4-3.5,16.3-5.9c-0.2-0.3-0.4-0.5-0.6-0.8c-3.8,1.8-7.8,3.2-11.9,4.2c-0.8-1.7-1.7-3.3-2.8-4.9c4.5-0.7,8.9-2.1,13.1-3.9
		h-5.9L503,58h23.7 M510.4,83.2c0.8,0,1.5-0.4,1.9-1.1c0.6-0.8,1-1.7,1.1-2.7c-2.1,1.3-4.4,2.5-6.7,3.6c1.3,0.1,2.4,0.2,3.4,0.2l0,0
		C510.2,83.2,510.3,83.2,510.4,83.2 M440,61.1l-0.3,4.3h-39.5l0.3-4.3L440,61.1 M434.8,66.4L434,77.6h-12l-0.1,0.9h12.7l-0.3,3.9
		h-12.7l-0.1,1h16.8l-0.3,4.5h-39.4l0.3-4.5h16.6l0.1-1H403l0.3-3.9h12.6l0.1-0.9h-11.9l0.8-11.2H434.8 M422.5,70.5h5.8l0.1-1h-5.8
		L422.5,70.5 M410.4,70.5h6.1l0.1-1h-6.1L410.4,70.5 M422.3,74.4h5.8l0.1-1h-5.8L422.3,74.4 M410.2,74.4h6.1l0.1-1h-6.1L410.2,74.4
		 M520.1,42.8l-3.2,0.9l-6.8,1.9l-4.3,1.2l0.2,0.5h-9.5h-3.7l-0.3,3.7l-0.7,10.3l-0.2,2.7l-0.7,0.1C491,63.5,491,63,491,63l0.4-4.4
		h-1.1l0.6-8.7l0.3-4.3h-4.3h-24.5h-2.3l-1-0.5l-3.4-1.8l-1,1.8l-2.2-2l-2.6,1.9l-4.6,3.2l-3.9,2.8l3.5,3.4c0.5,0.5,1,1.1,1.5,1.7
		c-0.7,0.6-1.4,1.1-2.1,1.6v-0.4H440h-1.5l0.5-7.5l0.3-4.3H435h-28.2h-3.7l-0.3,3.7l-0.6,8h-1.8h-3.7l-0.3,3.7l-0.3,4.3l-0.3,4.3
		h4.3h0.4l-0.3,5h-0.7l-0.3,3.7l-0.1,1.2H399h-3.7l-0.1,1.1l-1.3-0.7c-0.6-0.3-1.1-0.6-1.6-1c0.6-0.4,1.2-0.9,1.8-1.3l3.5-2.5
		l-2.8-3.3l-1.3-1.5L395,50l0.3-4.3H391h-19.9h-3.4l-0.8-0.5l-1.6,0.4l-0.4,0.1h-9.7h-3.7l-0.3,3.7l-2.7,39l-0.3,4.3h4.3h5.4h3.7
		l0.3-3.7l0.3-3.9l1,1.4c0.8,1.1,1.3,2.3,1.7,3.6l1.4,5.1l4.5-2.8c0.9-0.6,3.8-1.4,10.2-2.9l0.8-0.2c1.1,1,2.3,2,3.6,2.8l3.4,2.1
		l2.1-3.4c1.1-1.7,2.4-3.2,3.8-4.5l0,0l-0.1,1.2l-0.3,4.3h4.3H438h3.7l0.3-3.7l0.3-4.5v-0.4l0.6,1.4c0.6,1.2,0.8,2.5,0.7,3.9l-0.4,4
		l4,0.3c0.6,0,1.1,0.1,1.7,0.1c1.7,0,3.3-0.2,4.9-0.6c1.2-0.3,2.3-0.8,3.2-1.5l2.5-0.3l1.8-0.2c2.6-0.3,5.7-0.6,8.9-1l0.1,2.2
		l1.6-0.5v1.6l3.8,0.2c0.4,0,0.9,0,1.3,0c1.3,0,2.7-0.1,4-0.4c2.3-0.4,4.4-1.8,5.8-3.8c0.8-1.2,1.4-2.8,1.9-5.8l1.2,1.6
		c1,1.3,1.7,2.7,2.3,4.2l1.4,3.5l3.6-1.1c2.1-0.7,4.2-1.4,6.2-2.2l-0.1,3.9l3.9,0.2c0.9,0,1.8,0.1,2.7,0.1c0.3,0,0.6,0,0.9,0
		c0.1,0,0.3,0,0.4,0c3,0,5.9-1.2,8-3.4c1-0.9,1.9-2.1,2.6-3.5c1.7,1.9,3.6,3.4,5.9,4.6l3.2,1.7l2-3.1c1-1.6,2.3-3,3.7-4.2l4.9-4.2
		l-5.9-2.5c-2.7-1.1-4.3-3.2-5.2-5.3c1-0.7,1.9-1.3,2.8-2l4-3l-2.8-2.4h3l0.3-3.7l0.7-10.3l0.3-4.3h-4.3h-12.1
		c-0.2-0.5-0.4-1-0.7-1.5L520.1,42.8L520.1,42.8z M438.6,69.4h1.1h3.7l0.3-3.7l0.1-1.9L444,64c1.2,1,2.3,2.1,3.2,3.3l0,0
		c-1.2,1.2-2.5,2.2-3.9,3.2l-4.2,2.8l3.7,3.5c0.6,0.6,1.2,1.2,1.7,1.9l-4.5-0.4l0.5,1.1h-2v-0.6l0.3-4.3h-0.7L438.6,69.4L438.6,69.4
		z M490.2,71.4c0.1-1.2,0.2-2.4,0.4-3.8l1.5,2.1c0.3,0.4,0.5,0.8,0.8,1.2L490.2,71.4L490.2,71.4z M489.4,78.7c0.1-1,0.3-2.2,0.4-3.4
		l1.3,1.7c0.3,0.4,0.5,0.8,0.8,1.2L489.4,78.7L489.4,78.7z M161.2,43l-2.7,1.6l-4.8,2.9l-4.1,2.5l3.2,3.6c0.2,0.2,0.4,0.4,0.5,0.6
		h-2.6l-0.3,3.7l-0.3,4.9l-0.2,2.8l-2.7,0.6l1.7,4.3c0.6,1.4,1,2.8,1.4,4.3l0.1,0.5l-1.9-1.5c-2.2-1.7-4.3-4.3-6-7.4h3.4l0.2-4
		l3.8,0.3l0.4-6.4l0.3-4.3h-4.3h-11.6l0.3-3.7l0.3-4.3H131h-6.7h-3.7l-0.3,3.7L120,52h-12h-3.7l-0.3,3.7l-0.4,6.4l-0.3,4.3h4.3h2.5
		c-2.3,3.3-4.8,6.1-7.5,8l-4.1,2.8l3.6,3.4c1.4,1.3,2.6,2.7,3.6,4.3l2.4,3.6l3.2-2.5h2.2h4.2l-0.2,2.6l-0.3,4.3h4.3h6.7h3.7l0.3-3.7
		l0.2-3.1h4.6h1.8l2.6,2.4l2.7-3.5c0.2-0.2,0.4-0.5,0.5-0.7l4.3,3.6c1.1,0.9,2.1,2,2.9,3.3l2.2,3.3l3.3-2.1c1.4-0.9,2.7-2,3.9-3.1
		c4.2,2.7,9.4,3,14.6,3c4,0,10-0.1,15.7-0.4l2.9-0.2l0.7-2.9c0.4-1.6,1-3.1,1.9-4.5l1.4-2.2l-0.4,6l-0.3,4.3h4.3h6.5h3.7l0.2-3.4
		h13.5l-0.2,3.4h4.3h6.9h3.7l0.3-3.7l2.5-36l0.3-4.3h-4.3h-34.9h-3.7l-0.3,3.7l-1.8,25.6l-2.1,0.2l0.2-2.4L197,71h-2.3l0.2-2.5
		l0.3-4.3h-0.1v-0.6h1.8l0.3-3.7l0.3-4.9l0.3-4.3h-4.3H190c-0.4-1.3-0.9-2.5-1.5-3.8l-1.4-3.1l-3.3,0.9l-4.4,1.2h-0.1l-4.9-1.5
		l-3.5-1l-1.4,3.4c-0.5,1.2-1,2.3-1.6,3.4c-1.4-1.8-2.9-3.5-4.4-5.1L161.2,43L161.2,43z M214.2,62.4h13.5l-0.8,11.8h-13.5
		L214.2,62.4L214.2,62.4z M144.7,83.8c1.2-1.4,2.5-2.7,3.9-3.8l2.5-2l0.4,1.7c-0.7,0.6-1.4,1.1-2.1,1.5L144.7,83.8L144.7,83.8z
		 M100.1,46.5h-4.3h-31l0,0h-3.7l-0.3,3.7l-2.6,37.9l-0.3,4.3h4.3h6.4h3.7l0.2-2.8h9.8l-0.2,2.8h4.3h6.7h3.7l0.3-3.7l2.6-37.9
		L100.1,46.5L100.1,46.5z M73.6,74.8h9.8v0.4h-9.8V74.8L73.6,74.8z"/>
</g>
<g id="日本進口_限量獨家-2">
	<path class="st0" d="M367.8,89.3c-0.5-1.6-1.2-3.1-2.1-4.5l-0.6-0.9l0.9-0.6c1.2-0.7,1.9-2,2-3.3l0.3-3.9c-0.5,1.1-1.1,1.9-2,2.6
		c-0.9,0.6-2,1.1-3.1,1.2c-0.8,0.1-1.6,0.1-2.3,0.1c-0.2,0-0.4,0-0.6,0h-0.7l-0.7,9.6h-7.4l2.9-41h11l1.1-0.3l3.6,2.1l0.1-1.8H392
		L390.5,71h-0.2l2.9,3.5l-0.9,0.6c-1.6,1.1-3.2,2.3-4.7,3.3c1.3,1.7,3,3.1,4.9,4l1.3,0.7l-1.1,1c-1.7,1.5-3.2,3.3-4.4,5.2l-0.5,0.8
		l-0.8-0.5c-2.4-1.5-4.4-3.5-5.9-5.9c0,0.6,0,1.2,0,1.8v0.8l-0.8,0.2c-7.9,1.9-9.9,2.6-11.1,3.3l-1.1,0.7L367.8,89.3z M376.1,79.8
		l2.7-0.5c-1-2.5-1.7-5.1-2.1-7.8L376.1,79.8z M360.4,72.8c0.1,0,0.3,0,0.4,0c0.2,0,0.4,0,0.5-0.1c0.3-0.4,0.5-1,0.5-1.5v-0.1V71
		c0.2-2-0.3-4-1.2-5.8l-0.5,7.5C360.1,72.8,360.2,72.8,360.4,72.8z M384.1,71c0.1,0.3,0.2,0.6,0.3,0.9c0.4-0.3,0.7-0.6,1-0.9H384.1z
		 M367.1,63c0.8,1.4,1.4,2.9,1.7,4.4l0.8-11C368.8,58.5,368,60.9,367.1,63z M382.9,63.7v-0.4h-5.7v0.4H382.9z M360.9,60
		c0.4-1.2,0.8-2.5,1.1-3.8h-0.8L360.9,60z M383.5,56.3V56h-5.7v0.3H383.5z M154.1,89.4c-1-1.5-2.1-2.8-3.5-3.9l-1.1-0.9l1.3-0.7
		c3.4-1.9,6-5.2,7.7-9.7h-1.7c-0.7,0-1.5,0.2-2.1,0.6l-1.2,0.7l-0.3-1.3c-0.4-1.6-0.9-3.2-1.5-4.7l-0.4-1.1l1.1-0.3
		c0.7-0.2,1.4-0.6,1.9-1.1c0.9-0.9,1.7-1.9,2.5-2.8H153l0.5-6.9h5.8c-1.3-2-2.8-3.8-4.3-5.6l-0.8-0.9l6.5-3.9l0.6,0.6
		c2,2,3.8,4.2,5.5,6.5l0.6,0.8L164,57l2.2,1c2.5-3,4.6-6.4,6-10l0.3-0.8l6.7,2l6.1-1.7l0.4,0.8c0.8,1.8,1.5,3.6,1.9,5.5h7l-0.5,6.9
		h-1.8l-0.5,6.6h-6.5l0,0h6.6l-0.5,6.6H185V74h8.8l-0.5,7l2.1-0.2l-1.1,1.7c-1,1.7-1.8,3.5-2.3,5.4l-0.2,0.7h-0.7
		c-4.4,0.3-9.9,0.4-15.5,0.4c-6.9,0-11.7-0.7-14.9-4.2c-1.5,1.9-3.2,3.4-5.2,4.7l-0.8,0.5L154.1,89.4z M168.4,81
		c1.9,0.6,4.5,0.7,7.7,0.7c4.2,0,11.3-0.3,16.6-0.7H168.4z M164.6,78.5c0.6,0.9,1.4,1.5,2.4,2l0.9-13.4c-0.1,0.1-1.4,1.3-1.4,1.3
		l1,0.4l-0.2,0.8C166.7,72.6,165.8,75.6,164.6,78.5z M177.6,74L177.6,74l-2.7-0.1V74H177.6z M166.4,68.3l-0.5-1.3
		c-0.3-0.9-0.7-1.7-1.1-2.5c-0.7,1-1.5,2-2.3,2.9l1.1-0.2L166.4,68.3z M178.1,67.2L178.1,67.2h-2.7l0,0H178.1z M179.9,53.8
		c-0.3-1.1-0.6-2.1-1-3.1c-0.5,1-1,2.1-1.5,3.1H179.9z M510.1,89.9c-0.8,0-1.7,0-2.5-0.1h-1v-1c0-1.4-0.2-2.9-0.7-4.3
		c-3.1,1.4-6.2,2.6-9.4,3.6l-0.9,0.3l-0.3-0.9c-0.7-1.8-1.6-3.4-2.7-4.9l-0.9-1.3l1.5-0.3c1.1-0.2,2.2-0.5,3.3-0.8l-0.2-0.4
		c-0.7-1.6-1.6-3.1-2.6-4.6l-0.9-1.3l1.6-0.3c1-0.2,2.1-0.4,3.2-0.7l-0.1-0.3c-0.7-1.6-1.7-3.2-2.7-4.7l-0.9-1.3l1.6-0.3
		c2.7-0.4,5.3-1.1,7.9-1.9h-1.6l0.1-1.9H495l0.9-12.3h14.9c-0.1-0.2-0.1-0.3-0.2-0.5l-0.4-1l8.7-2.4l0.4,0.8c0.5,1,0.9,2.1,1.3,3.2
		h15.3L535,62.6h-7.2l-0.1,0.9l5.1,4.3l-1,0.8c-1.4,1.1-3,2.1-4.6,3.2c1,3.3,3.1,7.3,7.7,9.2l1.5,0.6l-1.2,1.1
		c-1.6,1.4-3.1,3.1-4.3,4.9l-0.5,0.8l-0.8-0.4c-3.8-2-6.6-5.1-8.5-9.6c-0.1,3.9-1.4,7.3-3.4,9.1c-1.5,1.6-3.7,2.6-6,2.6
		c-0.2,0-0.3,0-0.5,0C510.7,89.9,510.4,89.9,510.1,89.9z M511.3,81.8c-0.2,0.1-0.4,0.2-0.6,0.3C510.9,82.1,511.1,82,511.3,81.8z
		 M516.4,65.5c0.7,0.9,1.4,1.8,1.9,2.8c1.7-1.2,3.4-2.5,5-3.8h-5.7C517.3,64.8,516.9,65.2,516.4,65.5z M449.1,89.9
		c-0.5,0-1,0-1.4-0.1l-1-0.1l0.1-1c0.2-1.9-0.2-3.7-0.9-5.4l-0.7-1.6l1.8,0.2c0.7,0.1,1.3,0.1,2,0.1c0.5,0,1,0,1.6-0.1
		c0.2,0,0.5-0.1,0.6-0.3c0.1-0.1,0.6-0.9,1-4.4c-0.7,0.7-1.4,1.3-2.2,2l-0.9,0.8l-0.6-1c-0.9-1.6-2.1-3.1-3.5-4.4l-0.9-0.9L445,73
		c3-2,5.6-4.6,7.7-7.5c0-0.3,0-0.7-0.1-1c-0.5,0.4-1.1,0.9-1.6,1.3l-0.8,0.6l-0.6-0.8c-1.1-1.5-2.3-2.8-3.7-3.9l-1-0.8l1.1-0.8
		c1.5-1.1,3-2.3,4.3-3.7c-0.9-1.6-2-3-3.3-4.2l-0.9-0.8l6.2-4.4l0.6,0.6c0.9,0.8,1.7,1.7,2.4,2.6c0.4-0.6,0.8-1.3,1.2-2l0.5-0.8
		l4.5,2.3l0.1-1H488l-0.9,13h1.1l-0.1,1.1c0,0-0.2,1.7-0.2,2.3c-1.4,15.1-2,20.1-3.4,22c-0.8,1.3-2.2,2.2-3.8,2.5
		c-1.1,0.2-2.3,0.3-3.4,0.3c-0.4,0-0.7,0-1.1,0l-0.9-0.1v-0.9c0-0.6,0-1.2-0.1-1.8l-1.7,0.5l-0.1-1.3c0-0.1,0-0.2,0-0.3
		c-4.3,0.5-8.6,1-12.2,1.4l-2.6,0.3l-0.1-3.3c-0.4,1.1-0.9,2-1.5,2.8c-0.9,1.1-2.1,1.9-3.4,2.2C451.9,89.7,450.5,89.9,449.1,89.9z
		 M460.1,75.7c-0.2,1.6-0.4,3.2-0.7,4.8c1.7-0.1,3.8-0.3,6.7-0.5v-0.2h-6.2L460.1,75.7z M479.7,68.7c0-0.1,0-0.2,0-0.2h-6.3v0.2
		H479.7z M466.8,68.7v-0.2h-0.7c-0.1,0.1-0.1,0.2-0.2,0.2H466.8z M459.3,57.5c0.6,2,1,4.1,1.2,6.1c0.6-0.6,1.1-1.2,1.6-1.9h-1.6
		l0.4-6.4C460.4,56.1,459.9,56.8,459.3,57.5z M120.4,89.8l0.5-6.8h-8.5l0.1-2.1c-0.9,0.9-1.9,1.7-2.9,2.5l-0.9,0.7l-0.6-0.9
		c-1.2-1.8-2.5-3.4-4.1-4.9l-0.9-0.8l1-0.7c4.1-2.9,8.1-7.7,11-13.4h-8.8l0.6-8.4h15.8l0.6-7.9h8.7l-0.6,7.9h15.9l-0.5,7.4l-1-0.1v1
		h-8.1c2.2,5.5,5.3,10,9,12.8l1,0.8l-1,0.8c-1.9,1.6-3.7,3.4-5.2,5.4l-0.7,0.9l-0.8-0.8c-0.7-0.7-1.4-1.4-2.1-2.1l-0.1,2h-8.3
		l-0.5,6.8h-8.6V89.8z M133.6,74.7c-1.2-2.2-2.2-4.5-3.1-6.8l-0.5,6.8H133.6z M121.4,74.7l0.5-7c-1.2,2.4-2.6,4.7-4.2,7H121.4z
		 M85.4,89.3l0.2-2.8H69.8l-0.2,2.8h-8.4l2.7-38.9l1,0.1v-1H97l-2.8,39.9L85.4,89.3L85.4,89.3z M86.2,78.2l0.4-6.4H70.8l-0.4,6.4
		H86.2z M87.2,63.6l0.4-5.9H71.8l-0.4,5.9H87.2z M228.9,89.1l0.2-3.4h-19.5l-0.2,3.4h-8.5l2.7-38h36.9l-2.7,38H228.9z M229.7,77.3
		l1.2-17.8h-19.5l-1.2,17.8H229.7z M397.6,88.8l0.4-6.5h4l0.3-4.9h0.7l0.8-11h-4.7l0.5-6.3h5.5l0.8-11.8h30.2l-0.8,11.8h5.8
		l-0.4,6.3h-4.8l-0.8,11h0.7l-0.3,4.9h4.1l-0.5,6.5H397.6z"/>
	<path class="st2" d="M518,47.5c0.6,1.2,1.1,2.5,1.4,3.7h14.9l-0.7,10.3h-6.4l0.3-4.7h-25.4l-0.3,4.7h-6.1l0.7-10.3h15.3
		c-0.2-0.7-0.4-1.3-0.6-1.8L518,47.5 M160.6,48c2,2,3.8,4.1,5.4,6.4l-5,3.5c-1.6-2.5-3.3-4.8-5.3-7L160.6,48 M131,48.1l-0.6,7.9
		h15.9l-0.4,6.4l0,0h-9.6c2.1,5.8,5.5,11.2,9.8,14.6c-2,1.6-3.8,3.5-5.4,5.5c-1.3-1.2-2.5-2.6-3.6-4l-0.3,3.6h-8.3l-0.5,6.8h-6.7
		l0.5-6.8h-8.5l0.3-3.8c-1.4,1.6-3,3.1-4.7,4.5c-1.2-1.9-2.6-3.6-4.2-5.1c4.9-3.4,9.2-9.2,12.1-15.2h-9.3L108,56h15.8l0.6-7.9H131
		 M115.8,75.7h6.6l0.9-13.3l0,0C121.4,67.1,118.9,71.6,115.8,75.7 M129,75.7L129,75.7h6.3c-2.4-4.1-4.2-8.5-5.4-13.1L129,75.7
		 M452.1,48.2c1.2,1.1,2.2,2.3,3.1,3.6c0.7-1,1.4-2.1,2-3.2l5,2.5l0.1-1.6h24.5L486,60.8h-15.9c-0.3,0.6-0.6,1.2-1,1.7l0,0l0,0H487
		c0,0-0.2,1.7-0.2,2.4c-1.3,14.4-2,19.8-3.2,21.5c-0.7,1.1-1.8,1.9-3.1,2.1c-1.1,0.2-2.2,0.3-3.3,0.3c-0.4,0-0.7,0-1.1,0
		c0-1-0.1-2.1-0.4-3.1l-1.5,0.5c0-0.4-0.1-0.9-0.1-1.4c-5.3,0.6-10.7,1.2-14.8,1.7l-0.2-5c2.1-0.1,4.9-0.3,7.8-0.6l0.2-2.1h-6.2
		l0.6-9.1c-0.6-0.6-1.3-1.1-1.9-1.7c0,1.2-0.1,2.4-0.2,3.7c-0.4,5.9-1.2,12-3.5,14.9c-0.7,0.9-1.7,1.6-2.9,1.8
		c-1.3,0.3-2.6,0.5-4,0.5c-0.5,0-0.9,0-1.4-0.1c0.2-2-0.2-4.1-1-5.9c0.7,0.1,1.4,0.1,2.1,0.1c0.5,0,1.1,0,1.6-0.1
		c0.5,0,1-0.3,1.3-0.7c0.7-0.9,1.2-4,1.6-7.8c-1.3,1.4-2.7,2.8-4.2,4c-1-1.7-2.2-3.2-3.7-4.6c3.2-2.1,6-4.9,8.2-8.1
		c0-1.1-0.1-2.2-0.3-3.3c-1,0.9-2,1.7-3,2.5c-1.1-1.5-2.4-2.9-3.9-4.1c1.8-1.3,3.5-2.7,5-4.3c-1-1.9-2.3-3.6-3.9-5.1L452.1,48.2
		 M459.6,65.9c1.7-1.4,3.2-3.2,4.4-5.1h-2.4l0.6-9c-1.2,1.9-2.6,3.8-4,5.5C459.1,60.1,459.6,63,459.6,65.9 M479.1,56.3h1.8l0.2-2.2
		h-1.8L479.1,56.3 M473.1,56.3h1.8L475,54h-1.8L473.1,56.3 M467.1,56.3h1.7L469,54h-1.7L467.1,56.3 M480.8,67.4h-15.2
		c-0.7,0.8-1.4,1.5-2.2,2.2h4.3l0.1-1.7h4.6l-0.1,1.7h6.6l-0.6,9.1h-1.1c0.5,1.4,0.9,2.9,1.2,4.4c0.1-0.1,0.3-0.3,0.4-0.4
		C479.4,81.9,479.9,78.1,480.8,67.4 M472,75.1h1.8l0.1-1.7h-1.8L472,75.1 M465.6,75.1h1.7l0.1-1.7h-1.7L465.6,75.1 M471.6,80.5
		l1.6-0.1c-0.1-0.3-0.3-0.7-0.4-1l1.9-0.6h-3L471.6,80.5 M173.2,48.4l4.9,1.5c-0.7,1.6-1.5,3.3-2.4,4.9h5.4
		c-0.4-1.6-0.9-3.2-1.4-4.7l5.2-1.4c0.9,2,1.6,4,2,6.1h6.7l-0.3,4.9H185l-0.1,1.9h6.5l-0.3,4.6h-6.5l-0.1,2h6.6l-0.3,4.6h-6.6
		l-0.1,2.1h8.8l-0.4,5.1H168l1.1-15.7c-0.7,0.8-1.5,1.6-2.2,2.3c-0.5-1.4-1.2-2.7-1.9-4c-1.4,1.9-3,4-4.5,5.8h2.1l1-0.1l2.9,1.1
		c-0.7,3.2-1.6,6.2-3,9.2c2.2,3.7,6.5,4.2,12.8,4.3c4.6,0,12.2-0.3,17.4-0.8c-1.1,1.8-1.9,3.7-2.4,5.7c-4.7,0.3-10.3,0.4-15.5,0.4
		c-7.3,0-12-0.8-15-4.8c-1.5,2.2-3.5,4.1-5.8,5.5c-1-1.5-2.2-2.9-3.7-4.1c4-2.2,6.9-6.2,8.7-11.5h-3c-0.1,0-0.1,0-0.2,0
		c-0.9,0-1.8,0.2-2.6,0.7c-0.4-1.7-0.9-3.3-1.5-4.9c0.9-0.2,1.8-0.7,2.4-1.4c1.4-1.4,2.6-2.9,3.8-4.5h-4.8l0.3-4.9h8.7l0.5-0.2
		l2.9,1.3C169.3,56,171.6,52.3,173.2,48.4 M174.8,61.6h4.7l0.1-1.9h-4.7L174.8,61.6 M174.3,68.2h4.7l0.1-2h-4.7L174.3,68.2
		 M173.9,75h4.7l0.1-2.1H174L173.9,75 M435,49.4l-0.8,10.7H406l0.8-10.7H435 M412.6,53.3h15.9l0.1-0.9h-15.9L412.6,53.3 M412.3,57.1
		h15.9l0.1-0.9h-15.9L412.3,57.1 M366.3,49.5l3.9,2.3c-1.3,3.7-2.9,8.1-4.2,11.3c1.7,2.6,2.4,5.7,2.1,8.8c-0.2,3-1,4.9-2.5,6.1
		c-0.8,0.5-1.7,0.9-2.6,1c-0.7,0.1-1.5,0.1-2.2,0.1c-0.2,0-0.4,0-0.6,0c0.1-1.8-0.2-3.6-0.9-5.3c0.3,0,0.7,0.1,1,0.1
		c0.2,0,0.3,0,0.5,0l0,0c0.4,0,0.7-0.1,1.1-0.3c0.6-0.7,0.9-1.5,0.8-2.4c0.2-2.6-0.5-5.2-2-7.4c0.8-2.4,1.8-5.8,2.6-8.5h-3.1
		l-2.3,33.4h-5.4l2.7-39h10.2L366.3,49.5 M391,49.7L389.5,70h-1.4l3.6,4.3c-1.9,1.3-3.8,2.8-5.5,3.9c1.5,2.2,3.5,4,5.9,5.2
		c-1.7,1.6-3.3,3.4-4.5,5.4c-3.3-2.1-5.8-5.2-7.3-8.8c-0.2,1.9-0.2,3.8-0.1,5.6c-8.3,2-10.2,2.7-11.4,3.4c-0.5-1.7-1.3-3.3-2.3-4.8
		c1.5-0.9,2.4-2.4,2.5-4.1l2.1-30.4L391,49.7 M376.7,57.3h7.7l0.2-2.3h-7.7L376.7,57.3 M376.1,64.7h7.7l0.2-2.4h-7.7L376.1,64.7
		 M383.9,73.6c1.4-1.1,2.7-2.4,4-3.7h-5.1C383.1,71.2,383.5,72.5,383.9,73.6 M375,81l5.2-1c-1.3-3.2-2.2-6.5-2.7-10h-1.7L375,81
		 M95.8,50.5l-2.6,37.9h-6.7l0.2-2.8H68.8l-0.2,2.8h-6.4l2.6-37.9H95.8 M70.3,64.6h17.8l0.5-7.8l0,0H70.8L70.3,64.6 M69.3,79.2h17.8
		l0.6-8.4H69.9L69.3,79.2 M64.8,50.5L64.8,50.5L64.8,50.5 M239.3,52.1l-2.5,36h-6.9l0.2-3.4h-21.5l-0.2,3.4h-6.5l2.5-36l0,0H239.3
		 M209.1,78.3L209.1,78.3h21.5l1.4-19.8h-21.5L209.1,78.3 M526.7,58.2l-0.4,5.2h-8.9c-0.8,0.7-1.6,1.3-2.4,1.8
		c1.3,1.3,2.3,2.8,3.1,4.5c2.8-1.9,5.4-3.9,7.9-6.2l4.9,4.1c-1.6,1.2-3.4,2.4-5.2,3.6c1.2,4.6,3.9,8.6,8.5,10.6
		c-1.7,1.5-3.2,3.2-4.4,5.1c-4.8-2.5-7.6-6.9-9.2-12.5l-0.9,0.5c0.7,5-0.6,9.7-2.9,11.6c-1.4,1.5-3.3,2.3-5.3,2.3
		c-0.1,0-0.3,0-0.4,0c-0.3,0-0.6,0-0.9,0c-0.8,0-1.6,0-2.5-0.1c0.1-1.9-0.4-3.9-1.2-5.6c-3.3,1.6-6.7,2.9-10.2,4
		c-0.7-1.8-1.7-3.6-2.9-5.2c6.9-1.5,15.3-4.9,19.8-8.4c-0.1-0.3-0.2-0.6-0.3-0.9c-5,2.8-10.3,5.1-15.8,6.7c-0.7-1.7-1.6-3.3-2.7-4.8
		c5.3-1,12.4-3.5,16.3-5.9c-0.2-0.3-0.4-0.5-0.6-0.8c-3.8,1.8-7.8,3.2-11.9,4.2c-0.8-1.7-1.7-3.3-2.8-4.8c4.5-0.7,8.9-2.1,13.1-3.9
		h-5.9l0.4-5.2h23.7 M510.4,83.2c0.8,0,1.5-0.4,1.9-1.1c0.6-0.8,1-1.7,1.1-2.7c-2.1,1.3-4.4,2.5-6.6,3.6c1.3,0.1,2.4,0.2,3.4,0.2
		l0,0C510.2,83.2,510.3,83.2,510.4,83.2 M440,61.1l-0.3,4.3h-39.5l0.3-4.3L440,61.1 M434.8,66.4L434,77.6h-12l-0.1,0.9h12.7
		l-0.3,3.9h-12.7l-0.1,1h16.8l-0.3,4.5h-39.4l0.3-4.5h16.6l0.1-1H403l0.3-3.9h12.6l0.1-0.9h-11.9l0.8-11.2H434.8 M422.5,70.5h5.8
		l0.1-1h-5.8L422.5,70.5 M410.4,70.5h6.1l0.1-1h-6.1L410.4,70.5 M422.3,74.4h5.8l0.1-1h-5.8L422.3,74.4 M410.2,74.4h6.1l0.1-1h-6.1
		L410.2,74.4 M519,45.1l-1.6,0.4l-6.8,1.9l-2.1,0.6l0.5,1.2h-12.5h-1.9l-0.1,1.9l-0.7,10.3l-0.1,2.1h2.1h4.7v0.7
		c-1.8,0.5-3.6,0.9-5.5,1.2l-3.2,0.5l1.9,2.6c0.8,1.2,1.6,2.4,2.2,3.7c-0.7,0.2-1.3,0.3-2,0.4l-3.1,0.6l1.9,2.6
		c0.9,1.2,1.6,2.4,2.2,3.7c-0.7,0.2-1.4,0.3-2.1,0.5l-3.1,0.7l1.9,2.5c1.1,1.4,1.9,3,2.6,4.7l0.7,1.8l1.8-0.6c2.9-0.9,5.7-2,8.5-3.2
		c0.2,0.9,0.4,1.9,0.3,2.9l-0.1,2l2,0.1c0.8,0,1.7,0.1,2.6,0.1c0.3,0,0.6,0,0.9,0c0.1,0,0.3,0,0.4,0c2.5,0,4.9-1,6.6-2.8
		c1.6-1.4,2.7-3.7,3.3-6.4c1.9,3.1,4.3,5.5,7.4,7.1l1.6,0.8l1-1.5c1.1-1.7,2.5-3.3,4.1-4.7l2.4-2.1l-3-1.3c-3.9-1.7-5.9-5-6.9-7.9
		c1.4-1,2.8-1.9,4-2.8l2-1.5l-1.9-1.6l-3.1-2.7h4.7h1.9l0.1-1.9l0.7-10.3l0.1-2.1h-2.1h-13.5c-0.3-0.9-0.7-1.8-1.1-2.6L519,45.1
		L519,45.1z M518.1,65.5h2.5c-0.6,0.5-1.2,0.9-1.9,1.4c-0.3-0.4-0.5-0.8-0.8-1.2C517.9,65.6,518,65.5,518.1,65.5L518.1,65.5z
		 M160.9,45.5l-1.4,0.8l-4.8,2.9l-2.1,1.2l1.6,1.8c1.1,1.3,2.2,2.6,3.2,3.9h-3h-1.9l-0.1,1.9l-0.3,4.9L152,65h2.1h0.6
		c-0.3,0.4-0.7,0.8-1,1.1c-0.4,0.4-0.9,0.7-1.4,0.9l-2.2,0.5l0.9,2.1c0.6,1.5,1.1,3,1.5,4.6l0.6,2.6l2.3-1.3
		c0.5-0.3,1.1-0.4,1.6-0.4h0.1l0,0l0,0h0.1c-1.6,3.6-3.9,6.2-6.7,7.8l-2.5,1.4l2.2,1.9c1.3,1.1,2.4,2.3,3.3,3.7l1.1,1.7l1.7-1.1
		c1.8-1.1,3.4-2.5,4.8-4.1c3.4,3,8.2,3.7,14.8,3.7c5.6,0,11.2-0.2,15.6-0.4l1.5-0.1l0.3-1.4c0.4-1.8,1.2-3.5,2.1-5.1l2.1-3.4l-3,0.3
		l0.3-4.8l0.1-2.1h-2.1h-0.1l0.3-4.6l0.1-2.1H193l0.3-4.5v-0.1h1.8l0.1-1.9l0.3-4.9l0.2-2.1h-2.1h-5.2c-0.5-1.7-1-3.3-1.8-4.9
		l-0.7-1.5l-1.6,0.5l-5,1.4l-0.7-0.2l-4.9-1.5l-1.7-0.5l-0.7,1.7c-0.9,2.2-2,4.3-3.3,6.3l-0.5-0.6c-1.7-2.3-3.6-4.5-5.6-6.6
		L160.9,45.5L160.9,45.5z M164.5,66.5l0.1-0.1c0,0.1,0.1,0.1,0.1,0.2L164.5,66.5L164.5,66.5z M165.7,78.3c0.2-0.4,0.3-0.8,0.5-1.1
		l-0.1,1.5C165.9,78.6,165.8,78.4,165.7,78.3L165.7,78.3z M452.3,45.6l-1.3,0.9l-4.6,3.2l-2,1.4l1.7,1.7c1,1,2,2.2,2.8,3.4
		c-1.1,1.1-2.3,2.1-3.6,3l-2.2,1.5l2.1,1.7c1.3,1.1,2.5,2.3,3.6,3.7l1,1.4c-1.6,1.8-3.4,3.3-5.4,4.7l-2.1,1.4l1.9,1.7
		c1.3,1.2,2.4,2.6,3.3,4.1l0.9,1.6c-0.5,0-1,0-1.5-0.1l-3.5-0.3l1.5,3.2c0.7,1.5,1,3.2,0.9,4.9l-0.2,2l2,0.2c0.5,0,1,0.1,1.5,0.1
		c1.5,0,3-0.2,4.4-0.5c1.5-0.4,2.9-1.2,3.8-2.4v0.8l2.1-0.2l1.7-0.2c3.2-0.4,7.1-0.8,11-1.3l0.1,1.8l1.7-0.5c0,0.2,0,0.3,0,0.5v1.9
		l1.9,0.1c0.4,0,0.8,0,1.2,0c1.2,0,2.4-0.1,3.6-0.3c1.8-0.3,3.4-1.4,4.5-2.9c1.5-2.1,2.2-7,3.6-22.5c0.1-0.7,0.2-2.3,0.2-2.4
		l0.2-2.2H488l0.8-10.9l0.1-2.1h-2.1h-24.5h-1.9v0.4l-2.3-1.2l-1.7-0.9l-0.9,1.7c-0.1,0.3-0.3,0.5-0.4,0.8c-0.5-0.6-1.1-1.1-1.6-1.6
		L452.3,45.6L452.3,45.6z M449.3,81l1.2-1c0,0,0,0,0.1,0c-0.2,0.6-0.3,0.9-0.3,1C449.9,81,449.6,81,449.3,81L449.3,81z M133.1,46.1
		H131h-6.7h-1.9l-0.1,1.9l-0.4,6.1H108h-1.9L106,56l-0.4,6.4l-0.1,2.1h2.1h6c-2.8,4.9-6.3,9.1-9.9,11.6l-2,1.4l1.8,1.7
		c1.5,1.4,2.8,3,3.9,4.7l1.2,1.8l1.7-1.3c0.4-0.3,0.7-0.6,1.1-0.9v0.7h2.1h6.3l-0.3,4.7l-0.1,2.1h2.1h6.7h1.9l0.1-1.9l0.3-5h6.4h1.9
		v-0.6c0.2,0.2,0.4,0.4,0.6,0.5l1.6,1.5l1.3-1.8c1.5-1.9,3.1-3.7,5-5.2l2-1.6l-2-1.6c-3.1-2.4-6-6.3-8.1-11h6.6l0.1-2l1.9,0.1
		l0.4-6.4l0.1-2.1h-2.1h-13.7l0.4-5.8L133.1,46.1L133.1,46.1z M119.6,73.7c0.3-0.5,0.7-1.1,1-1.6l-0.1,1.6H119.6L119.6,73.7z
		 M131.2,73.7l0.1-1.5c0.2,0.5,0.5,1,0.7,1.5H131.2L131.2,73.7z M366.6,47.3l-0.8,0.2l-0.6,0.2h-10h-1.9l-0.1,1.9l-2.7,39l-0.1,2.1
		h2.1h5.4h1.9l0.1-1.9l0.5-7.7c0.1,0,0.2,0,0.4,0c0.8,0,1.6-0.1,2.5-0.2c1.3-0.2,2.5-0.6,3.5-1.4l0,0l0,0c0.1,0,0.1-0.1,0.2-0.1V80
		c-0.1,1.1-0.7,2-1.6,2.5l-1.8,1.1l1.2,1.8c0.9,1.3,1.6,2.7,2,4.2l0.7,2.6l2.3-1.4c1-0.6,3.1-1.3,10.8-3.1l1.6-0.4v-0.4
		c1.2,1.4,2.7,2.6,4.3,3.6l1.7,1.1l1.1-1.7c1.2-1.8,2.6-3.5,4.2-5l2.2-2l-2.6-1.3c-1.5-0.7-2.8-1.7-3.9-2.9c1.3-0.9,2.6-1.9,3.8-2.7
		l1.8-1.3l-1.4-1.7l-1.8-2.1l0.1-0.7l1.4-20.3l0.1-2.1H391h-19.9h-1.9l-0.1,1.1l-1.9-1.1L366.6,47.3L366.6,47.3z M377.2,78.5
		l0.1-0.8c0.1,0.2,0.2,0.5,0.2,0.7L377.2,78.5L377.2,78.5z M437.2,47.4H435h-28.2H405l-0.1,1.9l-0.7,9.9h-3.6h-1.9l-0.1,1.9
		l-0.3,4.3l-0.2,2.1h2.1h2.6l-0.6,9h-0.7l-0.1,1.9l-0.2,3H399h-1.9l-0.1,1.9l-0.3,4.5l-0.1,2.1h2.1h39.4h1.9l0.1-1.9l0.3-4.5
		l0.2-2.1h-2.1h-1.9l0.2-2.8l0.1-2.1h-0.7l0.6-9h2.9h1.9l0.1-1.9l0.3-4.3l0.1-2.1H440h-3.6l0.7-9.6L437.2,47.4L437.2,47.4z M98,48.5
		h-2.1h-31l0,0H63l-0.1,1.9l-2.6,37.9l-0.1,2.1h2.1h6.4h1.9l0.1-1.9l0.1-1h13.8v0.7l-0.2,2.1h2.1h6.7h1.9l0.1-1.9l2.6-37.9L98,48.5
		L98,48.5z M72.7,58.8h13.8l-0.3,3.8H72.4L72.7,58.8L72.7,58.8z M71.7,72.8h13.8l-0.3,4.4H71.4L71.7,72.8L71.7,72.8z M241.5,50.1
		h-2.1h-34.9h-1.9l-0.1,1.9L200,88l-0.1,2.1h2.1h6.5h1.9l0.1-1.9l0.1-1.5H228l-0.1,1.3l-0.1,2.1h2.1h6.9h1.9l0.1-1.9l2.5-36
		L241.5,50.1L241.5,50.1z M212.4,60.4h17.5l-1.1,15.8h-17.5L212.4,60.4L212.4,60.4z"/>
</g>
<path id="超" class="st3" d="M329.8,49.3c0.1,3.4,0,4.9-0.4,5.6c-0.4,0.4-0.9,0.7-1.4,0.7c-1.2,0.1-2.5,0.2-3.7,0.2
	c0.7-1.9,1.2-4,1.4-6L329.8,49.3z M309.1,75.9l6.1-0.6l-0.6-6.4l-6.1,0.6l-0.4-4.6l6.8-0.6l-0.4-3.8c1.5,0.8,3,1.8,4.3,2.8
	c2.5-2,4.3-4.6,5.4-7.6c1.2,1.8,2,3.9,2.4,6c1.9-0.1,3.8-0.3,5.7-0.7c1.4-0.3,2.7-1.1,3.5-2.3c1.1-1.7,1.2-5.5,0.7-13.7
	c0-0.8-0.2-2.4-0.2-2.4l-22.8,2.1l0.6,6.1l4.5-0.4c-0.4,3.2-2,6.1-4.4,8.2l-0.1-0.7l-7.7,0.7l-0.4-3.8l6.9-0.6l-0.6-6.4l-6.9,0.6
	l-0.4-4.7l-6.8,0.6l0.4,4.7l-7.1,0.7l0.6,6.4l7.1-0.7l0.4,3.8l-8.3,0.8l0.6,6.5l9.5-0.9l1.2,13.3c-1-1.2-1.8-2.5-2.4-3.9
	c-0.1-2.2-0.2-4.5-0.4-6.9l-6.5,0.2c0.8,8.6,1.2,16.9-0.8,22.2c2.1,0.7,4.2,1.5,6.2,2.6c0.8-2.5,1.2-5,1.4-7.6
	c4.6,4.8,10.8,5.3,19.7,4.4l20-1.9c0.3-2.6,1-5.2,2.1-7.6c-5.4,0.8-18.1,2-22.8,2.4c-3.2,0.4-6.4,0.4-9.6,0L309.1,75.9z M324.1,69.4
	l6.1-0.6l0.4,4.6l-6.1,0.6L324.1,69.4z M318.2,80.5l20.4-1.9l-1.5-16.3l-20.4,1.9L318.2,80.5z"/>
<path id="矩形_11_拷貝" class="st4" d="M137,117.4l399.9-7.8L521,160.7l-376.1-4.5L137,117.4z"/>
<path id="矩形_11" class="st5" d="M135.3,113.4l403.7-3.8l-17,47.1l-378.8-4.5L135.3,113.4z"/>
<path id="偷偷說...真的很限量_賣完就沒有ㄌ_" class="st1" d="M176.2,126.6c-1.1,2.4-2.5,4.6-4.3,6.6
	c0.3,0.7,0.5,1.4,0.6,2.2c0.4-0.4,0.7-0.8,1.1-1.2l-1.5,8.3h1.9l2.1-11.9c0.7-1.1,1.3-2.3,1.9-3.4L176.2,126.6z M177.8,137.8
	c0.1-0.3,0.1-0.7,0.2-1h1.7l-0.2,1H177.8z M180.2,134.5l-0.2,0.9h-1.7l0.2-0.9H180.2L180.2,134.5z M182.1,133H177l-0.6,3.6
	c-0.2,1.7-0.8,3.4-1.8,4.9c0.5,0.3,0.9,0.6,1.3,1c0.7-1,1.3-2.1,1.6-3.3h1.9l-0.2,1.3c0,0.1-0.1,0.2-0.2,0.2l0,0c-0.1,0-0.5,0-1,0
	c0.2,0.5,0.2,1.1,0.2,1.7c0.6,0.1,1.3,0,1.8-0.3s0.8-0.9,0.8-1.5L182.1,133z M184.1,140.4c0,0.2-0.1,0.3-0.3,0.3l0,0
	c-0.2,0-1,0-1.7,0c0.2,0.5,0.2,1.1,0.2,1.7c0.8,0.1,1.7,0,2.5-0.3c0.6-0.3,1-0.9,1-1.6l1.4-7.7h-1.7L184.1,140.4z M184.4,133.4h-1.6
	l-1.1,6.2h1.5L184.4,133.4z M180.1,130.6c1-0.6,1.9-1.2,2.8-1.9c0.7,0.7,1.5,1.4,2.3,1.9H180.1z M183.1,126.4
	c-1.8,1.8-4.1,3.1-6.5,3.9c0.4,0.5,0.7,1,1,1.5c0.5-0.2,0.9-0.4,1.4-0.6l-0.2,1h6.6l0.2-1.3c0.5,0.3,0.9,0.5,1.4,0.8
	c0.4-0.6,0.9-1.1,1.4-1.6c-1.6-0.5-3.1-1.3-4.3-2.5c0.1-0.2,0.3-0.3,0.4-0.4L183.1,126.4z M193.6,126.6c-1.1,2.4-2.5,4.6-4.3,6.6
	c0.3,0.7,0.5,1.4,0.6,2.2c0.4-0.4,0.7-0.8,1.1-1.2l-1.5,8.3h1.9l2.1-11.9c0.7-1.1,1.3-2.3,1.9-3.4L193.6,126.6z M195.3,137.8
	c0.1-0.3,0.1-0.7,0.2-1h1.7l-0.2,1H195.3L195.3,137.8z M197.6,134.5l-0.2,0.9h-1.7l0.2-0.9H197.6z M199.5,133h-5.1l-0.6,3.6
	c-0.2,1.7-0.8,3.4-1.8,4.9c0.5,0.3,0.9,0.6,1.3,1c0.7-1,1.3-2.1,1.6-3.3h1.9l-0.2,1.3c0,0.1-0.1,0.2-0.2,0.2l0,0c-0.1,0-0.5,0-1,0
	c0.2,0.5,0.2,1.1,0.2,1.7c0.6,0.1,1.3,0,1.8-0.3s0.8-0.9,0.8-1.5L199.5,133z M201.5,140.4c0,0.2-0.1,0.3-0.3,0.3l0,0
	c-0.2,0-1,0-1.7,0c0.2,0.5,0.2,1.1,0.2,1.7c0.8,0.1,1.7,0,2.5-0.3c0.6-0.3,1-0.9,1-1.6l1.4-7.7h-1.7L201.5,140.4z M201.9,133.4h-1.5
	l-1.1,6.2h1.5L201.9,133.4z M197.5,130.6c1-0.6,1.9-1.2,2.8-1.9c0.7,0.7,1.5,1.4,2.3,1.9H197.5L197.5,130.6z M200.5,126.4
	c-1.8,1.8-4.1,3.1-6.5,3.9c0.4,0.5,0.7,1,1,1.5c0.5-0.2,0.9-0.4,1.4-0.6l-0.2,1h6.6l0.2-1.3c0.5,0.3,0.9,0.5,1.4,0.8
	c0.4-0.6,0.9-1.1,1.4-1.6c-1.6-0.5-3.1-1.3-4.3-2.5c0.1-0.2,0.3-0.3,0.4-0.4L200.5,126.4z M216.1,132.8h3l-0.3,1.9h-3L216.1,132.8z
	 M209.7,139.9h-1.6l0.3-1.9h1.6L209.7,139.9z M218.9,140.4c-0.2,0-0.3-0.1-0.2-0.5l0.6-3.4h1.1l0.9-4.9c0.1,0.2,0.2,0.4,0.2,0.6
	l1.7-1.1c-0.7-1.6-1.7-3.1-2.8-4.5l-1.6,0.9c0.8,1.1,1.5,2.3,2.2,3.5h-5.8c1.1-1.1,2.2-2.4,3-3.7l-1.8-0.6c-0.8,1.3-1.8,2.5-3,3.5
	l0.2-0.9h-3l1.4-0.5c-0.1-0.8-0.3-1.5-0.5-2.2l-1.8,0.5c0.2,0.7,0.4,1.4,0.4,2.1h-2.5l-0.3,1.6h5.3l-0.1,0.1
	c0.4,0.4,0.8,0.9,1.2,1.4c0.2-0.2,0.5-0.4,0.7-0.6l-0.8,4.6h1.1c-0.5,2-1.2,3.5-3.4,4.4l0.8-4.6h-5l-1,5.9h1.7l0.1-0.7h3.3l0.1-0.4
	c0.3,0.4,0.6,0.9,0.8,1.4c3-1.2,4-3.3,4.7-6h0.8l-0.6,3.4c-0.3,1.8-0.1,2.4,1.5,2.4h1.1c1.2,0,1.8-0.6,2.4-2.9
	c-0.6-0.1-1.1-0.4-1.6-0.8c-0.3,1.6-0.4,1.8-0.7,1.8h-0.8V140.4z M207.1,135.5h4.8l0.3-1.5h-4.8L207.1,135.5z M212.6,131.7h-4.8
	l-0.3,1.5h4.8L212.6,131.7z M225.1,141.2c0.9,0,1.7-0.7,1.9-1.6c0.2-0.7-0.2-1.4-0.9-1.6c-0.1,0-0.3-0.1-0.4,0
	c-0.9,0-1.7,0.7-1.8,1.6c-0.2,0.7,0.2,1.4,0.9,1.6C224.8,141.2,224.9,141.2,225.1,141.2L225.1,141.2z M231,141.2
	c0.9,0,1.7-0.7,1.9-1.6c0.2-0.7-0.2-1.4-0.9-1.6c-0.1,0-0.3-0.1-0.4,0c-0.9,0-1.7,0.7-1.8,1.6c-0.2,0.7,0.2,1.4,0.9,1.6
	C230.8,141.2,230.9,141.2,231,141.2L231,141.2z M237,141.2c0.9,0,1.7-0.7,1.9-1.6c0.2-0.7-0.2-1.4-0.9-1.6c-0.1,0-0.3-0.1-0.4,0
	c-0.9,0-1.7,0.7-1.8,1.6c-0.2,0.7,0.2,1.4,0.9,1.6C236.7,141.2,236.8,141.2,237,141.2L237,141.2z M247.5,135.8h8.3l-0.2,1h-8.3
	L247.5,135.8z M257,129.1l-0.2,0.9h-8.3l0.2-0.9H257L257,129.1z M256.2,133.6l-0.1,0.8h-8.3l0.1-0.8H256.2L256.2,133.6z
	 M256.5,132.2h-8.3l0.1-0.8h8.3L256.5,132.2z M260.5,138.9l0.4-2.1h-2.7l1.6-9.3h-5.7c0.1-0.3,0.2-0.6,0.4-1h7.8l0.4-2.1h-7.4
	l0.4-1.2L253,123c-0.1,0.4-0.3,0.9-0.4,1.5h-7.8l-0.4,2.1h7.5c-0.1,0.3-0.2,0.7-0.4,1h-5.1l-1.6,9.3H242l-0.4,2.1h5.8
	c-2,1-4.1,1.7-6.3,2.2c0.5,0.5,1,1.1,1.4,1.7c2.4-0.6,4.7-1.4,6.8-2.5l-1.7-1.4h6.2l-1.6,1.4c2,0.6,3.9,1.5,5.6,2.5l2.4-1.7
	c-1.8-0.9-3.6-1.6-5.4-2.2h5.7V138.9z M266.2,138.4l0.7-4.1h3.4l-0.7,4.1H266.2z M270.7,132.1h-3.4l0.6-3.4h3.4L270.7,132.1z
	 M278.4,126.3c0.5-0.9,0.9-1.8,1.3-2.7l-2.3-0.6c-1,2.5-2.4,4.7-4.1,6.8l0.6-3.4h-3.3c0.5-0.9,1.1-2,1.6-3l-2.7-0.4
	c-0.3,1.2-0.7,2.3-1.2,3.4H266l-2.8,15.7h2.3l0.3-1.5h5.6l1.7-9.9c0.5,0.4,1,0.8,1.4,1.2c0.9-1,1.7-2.2,2.4-3.3h4.5
	c-1.5,7.5-2.4,10.6-3.1,11.3c-0.3,0.3-0.6,0.4-1,0.4c-0.5,0-1.8,0-3.1-0.1c0.3,0.8,0.5,1.6,0.4,2.4c1.1,0.1,2.2,0,3.3,0
	c0.9-0.1,1.7-0.5,2.2-1.2c1.1-1.1,1.9-4.5,3.8-13.9c0.1-0.3,0.2-1.1,0.2-1.1L278.4,126.3L278.4,126.3z M279.1,135.9
	c-0.7-1.6-1.4-3.2-2.3-4.7l-2.2,1.1c0.8,1.6,1.5,3.2,2.1,4.9L279.1,135.9z M291.6,123.1c-1.4,1.7-3.1,3.1-5,4.1
	c0.4,0.7,0.7,1.4,0.9,2.1c2.4-1.5,4.5-3.2,6.3-5.3L291.6,123.1z M291.3,127.7c-1.7,2.1-3.7,4-6,5.4c0.3,0.8,0.6,1.7,0.8,2.6
	c0.7-0.5,1.4-1.1,2.2-1.7l-1.5,8.8h2.5l2-11.6c0.8-0.8,1.5-1.6,2.2-2.5L291.3,127.7z M296.3,129.7h5.3l-0.3,1.7H296L296.3,129.7z
	 M302.3,126.1l-0.3,1.6h-5.3l0.3-1.6H302.3z M303,133.8c-1,0.8-2.1,1.6-3.2,2.3c-0.3-0.8-0.5-1.7-0.7-2.5h4.3l1.7-9.7h-10.2
	l-2.7,15.2c-0.1,0.8-0.6,1.5-1.3,1.8c0.4,0.6,0.6,1.3,0.7,2c0.6-0.3,1.4-0.6,5.7-1.7c0-0.8,0.1-1.5,0.3-2.3l-3.1,0.7l1-5.9h1.3
	c0.4,4.3,1.8,7.5,5.1,9.1c0.6-0.8,1.3-1.5,2.1-2.2c-1.4-0.5-2.6-1.5-3.4-2.7c1.1-0.6,2.5-1.5,3.6-2.2L303,133.8z M315.3,123.8
	l-0.4,0.1h-5l-3.3,18.9h2.2l2.9-16.6h2c-0.6,1.4-1.4,3.1-2,4.4c0.8,1.1,1,2.5,0.8,3.9c0,0.5-0.3,0.9-0.6,1.3
	c-0.2,0.1-0.4,0.2-0.6,0.2c-0.3,0-0.6,0-0.9,0c0.2,0.7,0.3,1.4,0.2,2.2c0.5,0,0.9,0,1.4,0c0.5-0.1,0.9-0.2,1.3-0.5
	c0.8-0.7,1.4-1.7,1.4-2.8c0.3-1.5,0-3.1-0.7-4.4c0.9-1.6,1.9-3.8,2.8-5.5L315.3,123.8z M318.9,129.7h4.6l-0.3,1.7h-4.6L318.9,129.7z
	 M324.2,126l-0.3,1.6h-4.6l0.3-1.6H324.2z M324.9,133.8c-0.9,0.8-1.8,1.5-2.8,2.1c-0.2-0.8-0.4-1.5-0.4-2.3h3.7l1.7-9.7h-9.6
	l-2.7,15.2c-0.1,0.8-0.6,1.5-1.3,1.8c0.3,0.6,0.6,1.3,0.7,2c0.6-0.3,1.4-0.6,5.7-1.7c0-0.8,0.1-1.5,0.3-2.3l-3.1,0.7l1-5.9h1.3
	c0.3,4.1,1.4,7.4,4.2,9.1c0.6-0.8,1.3-1.5,2.1-2.2c-1.2-0.6-2.3-1.6-2.9-2.8c1.1-0.6,2.3-1.4,3.3-2.1L324.9,133.8z M344.4,125.7
	h-8.8l0.1-0.7h8.8L344.4,125.7z M344.1,127.6h-8.8l0.1-0.7h8.8L344.1,127.6z M347.3,123.7h-13.7l-0.9,5.2h13.7L347.3,123.7z
	 M349,129.5h-19.1l-0.3,1.8h19.1L349,129.5z M333.4,136l0.1-0.7h3.7l-0.1,0.7H333.4z M333.9,133.3h3.7l-0.1,0.7h-3.7L333.9,133.3z
	 M343.5,134h-3.7l0.1-0.7h3.7L343.5,134z M343.2,136h-3.7l0.1-0.7h3.7L343.2,136z M338.7,140.4l0.1-0.8h6.6l0.3-1.6h-6.5l0.1-0.7
	h6.2l1-5.4h-14.6l-1,5.4h6l-0.1,0.7h-6.5l-0.3,1.6h6.5l-0.1,0.8h-8.3l-0.3,1.8H347l0.3-1.8H338.7L338.7,140.4z M357.9,137.5
	c2.5-0.6,4.5-2.6,5.1-5.1c0.3-1.8-0.3-2.9-1.8-2.9c-1.2,0-2.2,0.8-2.4,1.9c-0.2,0.8,0.3,1.7,1.1,1.9c0.2,0,0.4,0.1,0.5,0
	c0.1,0,0.2,0,0.2,0c-0.3,1.1-1.4,2-3.2,2.6L357.9,137.5z M382,126.3h-6.3l-0.3,1.5h15.4l0.3-1.5h-6.6l0.1-0.7h8l0.3-1.6h-8l0.2-1
	h-2.5l-0.2,1h-7.8l-0.3,1.6h7.8L382,126.3z M376.8,129.8h2.5l-0.2,0.9h-2.5L376.8,129.8z M381.4,129.8h2.6l-0.2,0.9h-2.6
	L381.4,129.8z M386,129.8h2.7l-0.2,0.9h-2.7L386,129.8z M374.2,132.1h16.4l0.7-3.7h-16.4L374.2,132.1z M376.9,137.9h9.1l-0.1,0.7
	h-9.1L376.9,137.9z M377.2,136h9.1l-0.1,0.7h-9.1L377.2,136z M377.5,134h9.1l-0.1,0.7h-9.1L377.5,134z M388.1,140l1.3-7.3h-14.1
	L374,140h3.2c-2,0.5-4.1,0.9-6.2,1.1c0.6,0.5,1.1,1.1,1.5,1.7c2.4-0.4,4.8-1.1,7.1-1.9l-1.7-0.9h6.3l-2.3,1.1c1.8,0.4,3.6,1,5.4,1.7
	l3.2-1.1c-1.4-0.5-4-1.3-6.1-1.8L388.1,140L388.1,140z M398.2,127.6h12.9l-0.5,2.8h2.6l0.9-5.2h-7.3c-0.2-0.8-0.4-1.6-0.7-2.4
	l-2.7,0.8c0.2,0.5,0.3,1.1,0.4,1.7h-7.7l-0.9,5.2h2.5L398.2,127.6z M409.5,131.5l0.4-2.3H399l-0.4,2.3H409.5z M407.2,140.2
	c-0.7,0-0.8-0.1-0.7-0.8l0.7-4h5.6l0.4-2.4h-18.8l-0.4,2.4h5.2c-0.7,3-1.6,4.5-6.5,5.3c0.5,0.6,0.8,1.4,0.9,2.1
	c5.8-1.1,7.2-3.4,8.2-7.4h2.8l-0.7,4.1c-0.4,2.3,0.1,3.1,2.5,3.1h2.6c2,0,2.8-0.8,3.6-3.9c-0.8-0.2-1.5-0.5-2.1-0.9
	c-0.5,2.2-0.7,2.5-1.3,2.5L407.2,140.2L407.2,140.2z M436,127c-0.4-1.2-1-2.2-1.7-3.2l-1.8,1c0.7,1,1.2,2.2,1.5,3.4L436,127z
	 M426.9,125.4h-3.1c-0.1-0.8-0.3-1.6-0.6-2.4l-2.4,0.5c0.2,0.6,0.3,1.3,0.4,1.9h-3.9l-0.4,2.2h9.7L426.9,125.4z M417,135
	c-0.6,1.8-1.5,3.4-2.7,4.9c0.5,0.4,1,0.8,1.5,1.2c1.3-1.7,2.3-3.6,3.1-5.7L417,135z M419.4,130.7h3.6l-0.3,1.8h-3.6L419.4,130.7z
	 M424.6,134.4l1-5.7h-8l-1,5.7h3l-1,5.9c0,0.2-0.1,0.3-0.3,0.3c0,0,0,0-0.1,0c-0.2,0-0.9,0-1.6,0c0.2,0.7,0.3,1.4,0.3,2.1
	c0.9,0.1,1.8,0,2.6-0.3c0.7-0.4,1.2-1.1,1.2-1.9l1.1-6h2.8V134.4z M422,135.5c0.4,1.2,0.7,2.5,0.8,3.8l2-0.9
	c-0.1-1.3-0.4-2.5-0.9-3.7L422,135.5z M431.2,140.5c-0.1,0-0.2,0-0.3-0.1c-0.1-0.2,0-0.5,0-0.7l1.4-8h-1.7c0.1-0.3,0.2-0.7,0.3-1.1
	h4.6l0.4-2.2h-4.5c0.4-1.8,0.7-3.6,1.1-5.3h-2.3c-0.3,1.7-0.6,3.5-1,5.3h-2.6l-0.4,2.2h2.5c-1.1,4.1-2.8,8-6.1,10.6
	c0.6,0.4,1.1,0.9,1.5,1.6c2.5-2.2,4.4-5,5.6-8.1l-0.9,4.9c-0.3,1.5-0.2,1.9,0.2,2.3c0.4,0.3,0.9,0.5,1.4,0.5h1.3
	c0.4,0,0.9-0.1,1.3-0.3s0.8-0.6,1-1c0.3-0.8,0.6-1.7,0.7-2.6c-0.6-0.2-1.2-0.6-1.7-1.1c-0.1,0.8-0.3,1.6-0.5,2.3
	c0,0.2-0.1,0.5-0.3,0.6c-0.1,0.1-0.2,0.1-0.4,0.1L431.2,140.5L431.2,140.5z M454.3,127.1c-0.1,0.9-0.5,1.8-1,2.6
	c-0.2,0.2-0.5,0.2-0.8,0.2c-0.8,0-1.5,0-2.3-0.1c0.3,0.7,0.4,1.5,0.3,2.3c0.9,0,1.8,0,2.8,0c0.7,0,1.3-0.3,1.8-0.8
	c0.7-0.6,1.2-2.2,2-5.6c0.1-0.3,0.2-0.9,0.2-0.9h-6.9c0.2-0.5,0.4-1,0.6-1.5l-2.6-0.3c-1,3.5-2.7,6.4-5.1,8.1c0.7,0.5,1.3,1,1.9,1.6
	c1.8-1.5,3.3-3.4,4.2-5.6H454.3L454.3,127.1z M445.2,125.3c-1.1-0.9-2.3-1.7-3.6-2.2l-1.7,1.9c1.3,0.6,2.4,1.4,3.4,2.4L445.2,125.3z
	 M442.9,130.9c-1.1-0.9-2.3-1.6-3.6-2.1l-1.6,1.9c1.3,0.6,2.5,1.4,3.5,2.3L442.9,130.9z M441.6,134.2c-1.7,2.4-3.6,5.1-5,6.6
	l1.9,1.7c1.6-2,3.3-4.4,4.7-6.7L441.6,134.2z M452.1,135.1c-0.7,1-1.6,1.8-2.6,2.5c-0.8-0.7-1.4-1.5-1.8-2.5H452.1z M454.3,132.7
	l-0.5,0.1h-9.4L444,135h2.8l-1.7,0.6c0.5,1.2,1.1,2.3,2,3.3c-1.8,0.8-3.7,1.3-5.6,1.6c0.4,0.7,0.7,1.5,0.8,2.3
	c2.3-0.4,4.5-1.2,6.6-2.2c1.5,1,3.1,1.8,4.9,2.2c0.6-0.8,1.3-1.6,2.1-2.3c-1.6-0.3-3.1-0.8-4.5-1.6c1.9-1.5,3.4-3.4,4.4-5.5
	L454.3,132.7z M473.4,133.2h-7.6l0.2-1.3h7.6L473.4,133.2z M465.1,136.6c0.1-0.5,0.2-0.9,0.3-1.4h7.6l-0.2,1.4H465.1z M479.1,127.9
	l0.4-2.4h-10.3c0.3-0.7,0.7-1.3,1-2l-2.5-0.6c-0.4,0.8-0.8,1.7-1.3,2.6h-5.7l-0.4,2.4h4.6c-1.6,2.4-3.7,4.4-6.1,5.9
	c0.5,0.6,0.9,1.3,1.3,1.9c1.1-0.7,2.1-1.5,3-2.3l-0.3,1.7c-0.3,2-0.9,4.2-3,5.8c0.6,0.5,1.1,1.2,1.5,1.9c1.4-1.1,2.5-2.5,3.1-4.2
	h7.9l-0.2,1.3c0,0.3-0.3,0.5-0.6,0.4l0,0c-0.3,0-1.6,0-2.7-0.1c0.2,0.8,0.3,1.6,0.3,2.4c1.3,0.1,2.6,0,3.8-0.4
	c0.9-0.4,1.3-1.1,1.5-2.3l1.8-10.4h-9.8c0.4-0.5,0.8-1.1,1.1-1.7L479.1,127.9L479.1,127.9z M490.8,130.3c0.5-1.3,0.9-2.6,1.3-4.1
	l-2.2-0.2c-0.4,1.6-0.8,3-1.3,4.3h-3.1c0.6-1.2,1.1-2.4,1.6-3.6l-2.1-0.6c-0.4,1.3-0.9,2.5-1.5,3.7c-0.2,0.4-0.4,0.7-0.8,0.9
	c0.1,0.5,0.3,1.5,0.4,2l0,0c0.6-0.2,1.3-0.3,2-0.3h2.7c-1.5,3.6-4.3,6.4-8,7.8c0.4,0.6,0.8,1.2,1.1,1.9c4.4-2,7.1-5.1,9.1-9.7h3.5
	c-1.2,4.5-2,6.5-2.6,7c-0.2,0.2-0.6,0.3-0.9,0.3c-0.5,0-1.5,0-2.6-0.1c0.3,0.7,0.4,1.4,0.3,2.2c0.9,0.1,1.8,0.1,2.8,0
	c0.8,0,1.5-0.4,2-0.9c1-0.9,1.9-3.4,3.5-9.5c0.1-0.3,0.2-1,0.2-1L490.8,130.3L490.8,130.3z M500.8,135.6h2l1.8-7.8l0.6-2.9h-3.1
	l-0.4,2.9L500.8,135.6z M500.8,141.2c1.2,0,2.1-0.9,2.3-2c0.2-0.9-0.3-1.7-1.1-2c-0.2,0-0.3-0.1-0.5-0.1c-1.1,0-2.1,0.9-2.3,2
	c-0.2,0.9,0.3,1.7,1.1,2C500.5,141.2,500.7,141.2,500.8,141.2L500.8,141.2z"/>
<g>
	<g>
		<g>
			<path class="st6" d="M141.4,127.8c-1.6,1.3-2.7,3.1-3.5,4.8c-1.3,2.5-2.6,5.2-6.2,6.4c-4.3,1.4-9.6,1-11.9,0.8
				c-1.6-1.1-3.9-2.1-7.1-2.4c-2.5-0.2-8.9-0.4-12.3-2.2c1.3-0.3,3-0.7,5-0.9c4.6-0.5,11-0.8,15.1,0.7c0.1,0.3,0,0.7-0.5,1.5
				c-1,1.9,0.9,3.1,2.7,2.3c1.3-0.6,1.3-1.9,2.2-2.4c0.6-0.3,0.8-0.7,2.1-0.3c1.6,0.6,3.7,1.2,4.6,0.5c0.9-0.7,1-2.1-0.3-2.7
				c-0.6-0.3-1.3-0.6-1.9-1c0.2-0.1,0.5-0.1,1,0c1,0.2,2.1,0.3,2.7-0.7c0.6-1-0.1-2-1.7-2.4c-0.9-0.2-2.1-0.6-2.9-0.9
				c0.7-0.1,1.7-0.5,2-1.4c0.5-1.4-0.2-2.6-1.4-2.5c-1.5,0.2-1.6,1.2-5.1,1.4c-1.8,0.1-2.6,1.4-2.9,1.4c-0.3,0-6.9-3.1-17.8-4.4
				c-0.7-0.1-1.3-0.1-1.9-0.2c1.3-0.9,4.6-3.4,6.6-8.1c2.6-6,3.9-13.6,2.1-19.6c-1.8-6-5.1-9.1-10.9-8.4c-4.7,0.6-8.9,7.2-10.2,8.6
				c-0.9,0.9-1.9,2.4-3.4,4c-0.3-0.5-1.1-1.7-3.9-4.1c-2.6-2.2-3.3-6.5-3.3-6.5c-1,3.4,0.2,6.1,1,7.4c-0.8-0.3-1.7-0.6-2.8-0.8
				c0-1.1-0.1-3.5-0.4-4.8c-0.4-1.6-1.6-3.8-6.2-1.4c-4.4,2.3-7.3,8.4-7.9,13.4c-1.8,1.3-3.1,2.8-3.8,4.2c-0.2-0.3-0.3-0.7-0.5-1.1
				c0,0,0,0.6,0.3,1.3c-0.2,0.4-0.3,0.7-0.4,1.1c-0.9,3.7,0.5,8.5,0.6,10.5c0.2,2,0.6,2.8-2.7,3.5c-1.2,0.3-1.9,1-2.2,1.9
				c-4.3-0.6-7.6-0.1-7.6-0.1c3,0.1,5.5,0.4,7.4,0.7c-0.2,1,0,2.1,0.5,3.1c-5.1,0.5-8.3,2.5-8.3,2.5c3.1-1.1,6.1-1.7,8.6-2
				c0.2,0.3,0.4,0.6,0.6,0.9c0.8,0.9,1.7,1.7,2.6,2.4c-2.8,3.5-2.9,6.9-2.4,9.2c0.7,2.9,2.7,5.3,4,5.9c1.5,0.7,3.9,0.7,5.8-0.1
				c1.5-0.6,2.2-1.4,2.6-2.7c0.7-1.9,0.9-3.7,0-4.7c-0.3-0.4-0.7-0.6-1.2-0.7c0.1-0.4,0.3-1,0.4-1.4c0.2-0.1,0.4-0.2,0.6-0.4
				c0,0,0.1-0.1,0.1-0.1c1.3,0.3,2.5,0.5,3.7,0.6c1,0.7,5,3.4,6.1,4.1c1.7,3.8,4.2,6.9,7.1,9.2c-8.8,3-9.8,7.7-7.5,10.6
				c0.7,0.9,1.5,1.6,2.4,2.2c-0.4,0-1.2,0-2.5,0c-2.4,0-4.1,1.5-3.5,3.6c0.4,1.6,1.6,2.4,2.2,2.7c0.5,0.8,1.5,1.6,3.1,2
				c5.2,1.4,11.1-0.3,12.4-3.7c1.1-2.9-0.2-5.7-0.5-6.3c2.4-0.6,6.5-1.4,12.9-1.7c9.4-0.5,13.9,0.1,16.9,1c0,0.3-0.1,0.9-0.9,1.6
				c-1.4,1.1-3.3,3.9-0.6,6.7c2.9,3,8.4,5.1,12.3,4.5c2.9-0.4,4.5-1.8,4.7-3.3c0.5,0,1.4-0.2,2-1.5c0.9-1.7-1-3.6-3.4-4.3
				c-2.1-0.6-4.1-1.1-4.8-1.4c0.8-0.5,1.7-1.1,2.5-1.9c2.5-2.3,3.4-4.6,0.6-8.7c-2.2-3.3-6.1-6.4-9.2-7.9c0-0.1-0.1-0.2-0.1-0.3
				c2.1,0.2,10.5,0.8,13.8-4.4c1.1-1.8,1.9-3.8,2.8-5.5c2.1-4.2,4-7.9,8.4-8.4C148.5,125.9,145.3,124.6,141.4,127.8z"/>
			<path class="st7" d="M68.6,92.3c3.9-4.1,6.3-4,6.8-1.5c0.4,2,0.6,3.8,0.7,4.5c-0.3-0.1-0.7-0.1-1.1-0.2c-6.8-0.8-9.3,2.2-9.3,2.2
				c6-0.9,11,0.6,13.2,1.5c-1.5-0.3-3.6-0.5-6.7-0.1c-3.3,0.4-6.3,1.6-8.7,3.1C63.9,100.5,65.3,95.8,68.6,92.3z"/>
			<path class="st7" d="M81.8,100.2c0,0-0.3-0.4-1.2-0.7c-4.5-3.9-13-2.8-13-2.8s1.9-1.3,7.1-0.7c5.3,0.7,9.1,3.1,9.1,3.1
				S83,98,80.8,96.9c-1.4-1.9-1.6-3.9-1.6-3.9c0.7,1.8,2.5,3.6,4.5,5.1c1.3,1,1.8,1.5,1.9,1.7c-0.7,0.7-1.5,1.4-2.4,2.1
				c0,0,3.9-1.8,7.9-7c3.8-5,9.2-8.5,13.5-6c4.3,2.5,5.5,10.4,4.1,19.8c-1.2,7.9-6.4,13-8,14.4c-3.3-0.3-5.7-0.2-7.4,0
				c1.3-2.7,0.7-6.6,0.7-6.6c6.3-3.5,1.3-8.6,1.3-8.6s-0.1,3.5-1.9,4.1c-1.7,0.5-3.9-3-0.4-10.7c3.6-7.9,8.7-11.1,8.7-11.1
				c-2.7,0.8-7.8,5.7-10.2,11.9c-2.4,6.2-1.2,10.7,1.5,10.9c2.8,0.2,2.6-4,2.6-4c2.3,4.6-2,6.7-2.1,6.9c-0.3,3.4-1.4,6.3-2,7.7
				c-1.6,0.5-2.7,1.4-3.7,2.4c-0.7,0.6-1,1.4-1.1,2.2c-1.2-0.6-5.7-2.7-12.1-2.1c1.4-1.9,3.7-3.5,3.7-3.5s-2.2,0.8-3.8,2.3
				c-0.1-0.1-0.7-0.6-0.8-0.7c2.3-3.9,4.9-10,4.9-12.7c0-2.5-1-4-2.6-4.1c-0.8-0.7-1.4-1.5-1.8-2.3c1-0.7,2.4-1.4,4-1.1
				c2.7,0.5,2.9,4.8,2.9,4.8s0.3-5.2-2.3-5.9c-1.8-0.5-3.6,0.9-4.7,2c-0.4-0.9-0.5-1.6-0.5-1.6c0,0.7,0.1,1.4,0.2,2
				c-0.5,0.6-0.8,1-0.8,1s0.3-0.4,0.9-0.8c0.4,1.3,1.1,2.2,1.6,2.7c-3.7-0.8-4.7-4.8-4.7-4.8c0.5,3.5,2.2,4.9,3.8,5.5
				c-1.8,0.8-5.9,3.9-4.5,14.4c-1.5-0.2-3.2-0.1-5.1,0.7c-0.1,0-0.4-0.3-0.9-0.6c0-1,0-3.9,0.2-6.2c0.3-2.9,0.4-6.3-0.8-7.2
				c-0.3-0.2-0.6-0.3-0.8-0.3c-0.3-0.3-0.8-0.7-1.2-1.5c0.7-1.1,1.6-2.2,2.3-2.4c1.4-0.4,1.3,1.7,1.3,1.7s0.7-2.4-1.1-2.6
				c-1-0.1-1.9,1.1-2.8,2.8c-0.2-0.4-0.3-0.8-0.4-1.3C64,102.3,72.7,97.7,81.8,100.2z"/>
			<path class="st8" d="M106.1,89.9c-1.5-0.6-3.1-0.5-4.6,0.2c-0.9,0.6-5.3,3.9-8.5,11c-3.5,7.7-1.2,11.2,0.4,10.7
				c1.8-0.6,1.9-4.1,1.9-4.1s5.1,5.1-1.3,8.6c0,0,0.6,3.9-0.7,6.6c1.8-0.3,4.1-0.3,7.4,0c1.6-1.4,6.8-6.5,8-14.4
				C110,100.3,109.2,93.2,106.1,89.9z"/>
			<path class="st7" d="M78.9,132.1c1,0.6,2.1,1.3,3.1,2c-2,0.8-4.1,1.3-5.9,1.6c2.1-1.4,2.4-3,2.4-3.6
				C78.6,132.1,78.7,132.1,78.9,132.1z"/>
			<path class="st7" d="M79.8,132c1.8-0.1,3.3-0.3,3.3-0.3c-1.4,0.1-2.7,0.1-3.8,0c-1.6-1-3.5-2-5.6-2.6c-0.1-0.3-0.2-0.6-0.1-1
				c0.1-0.5,0.3-1,0.6-1.5c3.4-0.1,8.3,0.1,12.4,1.6c-0.2,1,0,2.1,0.3,3c-1.5,1.2-3.1,2.1-4.7,2.8C81.6,133.4,80.7,132.7,79.8,132z"
				/>
			<path class="st7" d="M77.8,131.5c-1.6-0.3-2.9-0.9-3.6-1.6C75.3,130.2,76.5,130.8,77.8,131.5z"/>
			<path class="st6" d="M76.8,108c0,0,0.1,0.1,0.1,0.1c-0.1,0-0.2,0-0.3,0L76.8,108z"/>
			<path class="st7" d="M61.5,109.5c-0.3-0.1-0.5-0.2-0.8-0.4c0.1-0.2,0.2-0.3,0.3-0.5C61.1,108.9,61.3,109.2,61.5,109.5z"/>
			<path class="st7" d="M60.4,106.6c0,0.4,0.1,1,0.4,1.6c-0.1,0.2-0.2,0.5-0.3,0.8c-0.3-0.2-0.6-0.5-0.9-0.8c0-0.1,0.1-0.3,0.2-0.4
				C59.8,107.4,60.1,107,60.4,106.6z"/>
			<path class="st7" d="M57,123c2-0.9,2.3-1.2,2.2-3.9c-0.1-2.4-1.1-6.7,0.1-10.5c0.2,0.3,0.5,0.6,0.9,0.8c-0.2,0.4-0.3,0.8-0.5,1.2
				c0,0,0.2-0.5,0.6-1.1c0.3,0.2,0.7,0.4,1.1,0.6c-0.4,0.5-0.9,1.4-1.4,2.5c-1.1,2.7-0.7,6.5,1,9.8c-0.2,0-0.5,0-0.7,0.1
				c-1.3,0.2-2.3,1.2-2.7,2.6c-0.7-0.3-1.6-0.5-2.7-0.7C55.3,123.8,56,123.5,57,123z"/>
			<path class="st7" d="M55.6,127.6c-0.5-1.1-0.7-1.9-0.7-2.5c1.1,0.2,2,0.4,2.7,0.6c-0.1,0.6-0.1,1.3,0,2.1c-0.6,0-1.2,0-1.8,0
				C55.7,127.7,55.6,127.7,55.6,127.6z"/>
			<path class="st7" d="M57.6,128.1c0.3,1.3,1,2.6,2.3,3.7c-0.1,0.2-0.2,0.4-0.2,0.7c-0.6-0.4-2.5-1.9-3.8-4.3
				C56.5,128.2,57.1,128.2,57.6,128.1z"/>
			<path class="st7" d="M64.1,135.6c0.2,1.1,0.8,2.5,1.1,3c-0.3,0-0.5,0-0.7,0c-0.3,0-0.6,0-0.9,0c-0.2-0.5-0.7-1.5-1.6-1.9
				c-0.3-0.8-0.8-2-1-2.5c-0.3-0.8-0.9-2.5,0.8-2.4C63.1,131.8,63.8,134.2,64.1,135.6z"/>
			<path class="st7" d="M61.9,140.9c0.1,0.5,0.5,0.9,0.9,1.2c-0.5,0.3-1,0.2-1.3,0.2c0-0.2,0-0.4-0.1-0.6c-0.4-1.8-1.3-2.7-2.3-3
				c0.1-0.5,0.4-1.5,1.8-1.5c1.4,0,1.8,1.1,1.9,1.6c-0.2,0.1-0.3,0.2-0.5,0.4C61.8,139.6,61.7,140.2,61.9,140.9z"/>
			<path class="st7" d="M67,139.5c0.5,0.6,0.7,2.1,0,4c-0.5,1.3-1.6,2-2.5,2.3c-1.9,0.8-4,0.6-5.1,0.1c-1-0.5-2.7-2.6-3.4-5.3
				c-0.5-2.1-0.4-5.3,2.2-8.5c0.6,0.4,1.2,0.7,1.5,0.8c0,0.2,0.1,0.4,0.2,0.7c0.5,1.2,1.2,2.3,1.5,2.9c-1.7-0.3-2.6,0.6-2.8,2.1
				c-0.3,0-0.6,0-0.9,0.1c-1.5,0.5-1.8,2.9,0.5,5.5c0,0-1.4-1.7-1-3.8c0.4-2.1,3-1.2,3.5,0.8c0.5,2-0.5,2.4-1.1,2.2
				c-0.6-0.3-1.4-1.3-1.7-2.1c0,0,0,1.2,1,2.2c0.8,0.8,2.3,0.8,2.5-0.7c0.7,0.3,1.3-0.3,1.5-0.6c0.2,0.1,0.5,0.2,0.8,0.3
				c1.9,0.3,2.9-1.6,2.9-1.6c0,0.1-1.4,1.2-2.8,0.9c-0.7-0.1-1.1-0.7-1.3-1.2c-0.1-0.4,0-0.8,0.2-1.1c0.3-0.3,0.6-0.4,1.3-0.4
				c0.5,0,1.1,0,1.7-0.1C66.4,139.1,66.7,139.2,67,139.5z"/>
			<path class="st7" d="M65.9,138.5c0,0-0.1,0-0.1,0c-0.1,0-0.2,0-0.2,0c-0.1-0.2-0.2-0.7-0.4-1.4c0.3,0.1,0.6,0.1,1,0.1
				C66.1,137.6,66,138.2,65.9,138.5z"/>
			<path class="st9" d="M65,136c0-0.1-0.1-0.3-0.1-0.4c-0.1-0.6-0.2-1.1-0.4-1.7c0.8,0.4,1.3,0.2,0.6-0.7c-0.7-0.9-1-2.5-1-2.5
				c-0.2,0.6,0.1,1.5,0.1,1.5c-0.1,0-0.2,0.1-0.3,0.1c-0.4-0.7-1-1.2-1.8-1.3c-0.8-0.1-1.4,0-1.8,0.3c-0.5-0.5-1.5-1.6-1.8-3.3
				c1.1,0,1.8,0,1.7,0c-0.6-0.1-1.2-0.1-1.7-0.2c-0.1-0.5-0.1-1.1-0.1-1.7c0-0.1,0-0.1,0-0.2c1,0.3,1.5,0.5,1.6,0.5
				c0.2,0-0.2-0.5-1.5-1.1c0.7-2.9,4-2.6,6.1-1.5c-0.6,0-1.2,0.1-1.7,0.3c-1,0.5-0.6,3.2,1.6,3.9c0.2,0.1,0.6-0.4,2-1
				c1.4-0.6,1.6-1.8,0.4-2.5c-0.4-0.3-0.9-0.4-1.4-0.5c0.5-0.2,4.2-1.4,8.7,1c-0.3,0.3-0.5,0.6-0.8,1c0,0,0,0,0,0.1
				c-1,0.1-2.1,0.4-3.3,0.7c-0.4,0.1,0.9-0.1,3-0.2c-0.4,0.8-0.5,1.5-0.4,2.2c-0.9-0.2-1.9-0.3-2.9-0.3c-0.2,0,1,0.2,3,0.9
				c0.3,1.1,1.3,2,2.8,2.4c0.7,0.2,1.5,0.3,2.3,0.3c-0.6,2.4-2.4,3.5-4.4,3.9c-2.8,0.2-4.9-0.1-5.7-0.2c0.2-0.7,0-1.1,0-1.1
				C67.6,136.8,65.8,136.4,65,136z"/>
			<path class="st10" d="M78.6,141.8c0-1.4,0.5-1.1,1.5-0.7c1.1,0.5,3.7,3,5,3.2c1.3,0.2,1.1-1.3,0.5-2.4c-0.6-1.1-1.3-2.5-0.4-2.8
				c0.9-0.3,2.6,0.1,4.5,1c2,0.9,6.6,4,11.9,5c5.3,1,8.1,2.6,9.1,5c1,2.2,0.8,5.6-4.7,6.2c-5.6,0.6-12.8-1.4-19.6-6.1
				C83.1,147.7,80.4,144.4,78.6,141.8z"/>
			<path class="st7" d="M131.2,153.1c3.1,5.3,1.8,6.5-4.4,11.4c0,0,1.1-0.4,2.5-1.2c0.7,0.3,2.3,1,4.8,2.1c2.9,1.3,3.1,3.8,1.6,4
				c0-0.3-0.1-0.6-0.3-0.9c-1-2.2-4.4-1.7-4.7-1.5c0,0,3.9,0.2,4.2,2.2c0.3,2.1-3.2,4.4-9.4,2.3c-6.2-2.1-7.4-4.3-6.3-6.1
				c1-1.7,1.7-3.4,1.4-4.7c0.8,0.3,1.5,0.5,2.1,0.8c0.4,0.2-0.8-2.2-10.8-3.3c-10-1.2-20.7,1.4-24.7,4.1c0,0,0.7-0.4,2.4-0.9
				c2.3,3.9-0.1,8.5-6.9,9c-6.9,0.5-7.9-2.4-7.1-3.8c0.8-1.4,4.6-0.8,4.6-0.8c-0.2-0.2-2.9-1.2-4.4-0.3c-0.7,0.4-1.1,1.3-1,2.4
				c-0.4-0.4-1.1-1-1.1-1.9c0-1.3,0.7-2,2.6-2.2c1.4-0.2,2.7-0.5,3.2-0.6c1.8,1.2,3.5,1.7,3.5,1.7c-4.9-3-7.1-5.3-5.1-8.4
				c1.7-2.7,6-5,7.2-5.7c0.6,0.5,1.3,0.9,2,1.3c5.1,3,14.6,5.8,19.5,4.6c4.9-1.2,6-4.1,4.8-7.2c-1.2-3.1-4.4-4.6-10.5-5.9
				c-6-1.3-7.6-2.6-10.6-4.2c-3-1.6-5.1-1.7-5.9-0.9c-0.8,0.7-0.3,2,0.6,3.7c0.9,1.8-0.2,1.4-1.2,0.7c-1-0.7-3.3-3.4-4.8-3.1
				c-0.7,0.1-1,0.5-1.1,0.9c-1.4-2.1-2.1-3.7-2.1-3.7c0.2,0.7,0.4,1.4,0.7,2.1c-0.7-0.4-2.6-1.6-3.5-2.2c4.4,0.1,7.7-1,10-2.3
				c0.5,0.4,1,0.8,1.5,1.3c0,0-0.5-0.5-1.3-1.3c2.1-1.2,3.4-2.6,3.9-3.2c0.4,0.9,0.9,1.5,1.2,1.8c0,0-2.7-4.3,1.5-7
				c4.2-2.8,13.7-2.7,31.2,1.7c0.6,0.1,1.5-1,3.3-1.1c3.3-0.3,3.8-1.2,5-1.4c0.8-0.2,1,0.6,0.8,1.4c-0.3,1-1.4,1.3-1.7,1.6
				c-0.4-0.1-0.7-0.2-0.7-0.2s1.6,1,3.1,1.6c1.5,0.5,2.4,1.2,1.8,1.7c-0.6,0.5-1.7,0.3-2.6,0.4c-0.5,0-0.8,0.2-1,0.3
				c-0.6-0.3-1-0.5-1.2-0.6c0,0,1.2,1.3,2.6,2c1.4,0.7,2,1.5,1.1,2c-0.9,0.5-3-0.5-4-0.7c-1-0.2-1.8-0.2-2.7,0.6
				c-1.3,1-1.3,1.6-2.2,2.1c-0.7,0.5-2.4,0.5-1.6-1.2c0.9-1.9-0.4-3.4-0.4-3.4s0.1,0.6,0.1,1c-0.7-0.6-1.9-0.9-3.6-1.3
				c-2.9-0.6-11.7-1.7-19.1,2.9c-0.2,0.1,0.6-0.2,2-0.6c0.7,0.6,3.6,2.5,11,3.3c8.3,0.9,10.2,3.7,11.9,5.6c-0.4-0.2-0.8-0.3-1.2-0.4
				C121.5,143.8,128.1,147.9,131.2,153.1z"/>
			<path class="st7" d="M139.6,134.1c-0.8,1.7-1.8,3.1-2.9,4.8c-3.4,5.3-12.5,4.4-13.6,4.3c-0.4-0.7-1-1.6-1.9-2.4
				c2,0.4,6.5,0.9,11.1-0.8c3.8-1.4,4.9-4.5,6.2-7.1c0.9-1.8,1.7-3.4,3.2-4.6c1.8-1.5,3.8-2.2,5.3-2.3
				C143,127.2,141.3,130.5,139.6,134.1z"/>
		</g>
		<path class="st11" d="M66.5,125.8c0,0.8-3.5,0.2-3.4-0.8C63.3,124.1,66.5,124.7,66.5,125.8z"/>
	</g>
	<path class="st6" d="M62.3,143.2c0,0,0.9,1,0.4,2.5c0,0,0.6,0.1,0.6-1C63.4,143.6,62.3,143.2,62.3,143.2z"/>
	<g>
		<path class="st11" d="M62.7,117.4c-0.1,0.6,0,1.2,0.2,1.5c0.1,0.3,0.4-0.6,0.2-1.5c0.2,0,0.4,0.2,0.6,0.4c0-0.4,0-0.8,0-1.3
			c0.2-4.9-0.2-6.1-0.5-6.3c-0.4-0.2-2.3,0.8-2.9,4.9c-0.5,3.7,0.8,6.6,1.2,7.5c0.4,0,0.7,0,1,0.1C61.7,121.3,61.7,118,62.7,117.4z"
			/>
	</g>
	<g>
		<path class="st11" d="M77.4,108.8c-0.4,0.1-1.2,0.1-2,0c-0.5,0.1-2,0.5-3.7,4.5c-1.8,4-1.3,8.5-1.2,9.8c0.7,0.1,1.3,0.3,1.9,0.5
			c-0.5-1.5,0.4-5,1.7-5.7c-0.2,0.8-0.1,1.3,0,1.6c0.2,0.5,0.4-0.1,0.3-1.7c0.1,0,0.1,0,0.2,0c0.5,0.1,0.7,0.6,0.8,1.2
			c0.8-2,1.7-4.2,2.2-6.6C77.9,110.8,77.7,109.6,77.4,108.8z"/>
	</g>
</g>
</svg>
