<svg width="545" height="125" viewBox="0 0 545 125" fill="none" xmlns="http://www.w3.org/2000/svg">
<circle cx="58.7814" cy="62.1818" r="55.6237" stroke="#1F1F1F" stroke-width="5.56237"/>
<circle cx="201.178" cy="62.1818" r="55.6237" stroke="#1F1F1F" stroke-width="5.56237"/>
<circle cx="343.575" cy="62.1818" r="55.6237" stroke="#1F1F1F" stroke-width="5.56237"/>
<circle cx="485.972" cy="62.1818" r="55.6237" stroke="#1F1F1F" stroke-width="5.56237"/>
<line x1="114.961" y1="59.9566" x2="142.773" y2="59.9566" stroke="#1F1F1F" stroke-width="5.56237"/>
<line x1="257.358" y1="59.9566" x2="285.17" y2="59.9566" stroke="#1F1F1F" stroke-width="5.56237"/>
<line x1="399.755" y1="59.9566" x2="427.566" y2="59.9566" stroke="#1F1F1F" stroke-width="5.56237"/>
<path d="M57.5688 84.9005C54.1015 84.9005 51.2258 84.6557 48.9415 84.1662C46.6572 83.7175 44.842 82.9017 43.496 81.7188C42.1907 80.4951 41.2525 78.8227 40.6814 76.7015C40.1103 74.5804 39.8248 71.8678 39.8248 68.5638V52.2883C39.8248 48.9842 40.1103 46.2717 40.6814 44.1505C41.2525 42.0294 42.1907 40.3774 43.496 39.1945C44.842 37.9707 46.6572 37.1345 48.9415 36.6858C51.2258 36.1964 54.1015 35.9516 57.5688 35.9516H62.2189C65.6861 35.9516 68.5619 36.1964 70.8461 36.6858C73.1304 37.1345 74.9252 37.9707 76.2305 39.1945C77.5766 40.3774 78.5352 42.0294 79.1063 44.1505C79.6773 46.2717 79.9629 48.9842 79.9629 52.2883V68.5638C79.9629 71.8678 79.6773 74.5804 79.1063 76.7015C78.5352 78.8227 77.5766 80.4951 76.2305 81.7188C74.9252 82.9017 73.1304 83.7175 70.8461 84.1662C68.5619 84.6557 65.6861 84.9005 62.2189 84.9005H57.5688ZM57.5688 78.0476H62.2189C65.115 78.0476 67.2769 77.8233 68.7046 77.3746C70.1731 76.8851 71.1521 75.9673 71.6416 74.6212C72.1718 73.2751 72.437 71.256 72.437 68.5638V63.3018H47.3507V68.5638C47.3507 71.256 47.5954 73.2751 48.0849 74.6212C48.6152 75.9673 49.6146 76.8851 51.083 77.3746C52.5515 77.8233 54.7134 78.0476 57.5688 78.0476ZM47.3507 56.6325H72.437V52.2883C72.437 49.5961 72.1718 47.577 71.6416 46.2309C71.1521 44.844 70.1731 43.9262 68.7046 43.4775C67.2769 43.0288 65.115 42.8044 62.2189 42.8044H57.5688C54.7134 42.8044 52.5515 43.0288 51.083 43.4775C49.6146 43.9262 48.6152 44.844 48.0849 46.2309C47.5954 47.577 47.3507 49.5961 47.3507 52.2883V56.6325Z" fill="#1F1F1F"/>
<path d="M202.229 89.5506C201.332 89.5506 200.577 89.2651 199.965 88.694C199.394 88.1637 199.109 87.3887 199.109 86.3689V77.6193C197.314 78.9246 195.315 80.1892 193.113 81.4129C190.951 82.5958 188.707 83.6972 186.382 84.7169C184.057 85.7775 181.814 86.7157 179.652 87.5315C178.632 87.8578 177.735 87.8986 176.96 87.6539C176.184 87.4091 175.593 86.838 175.185 85.9406C174.777 85.0432 174.777 84.2274 175.185 83.4932C175.634 82.7182 176.368 82.1879 177.388 81.9024C179.917 81.1681 182.589 80.2503 185.403 79.149C188.259 78.0068 190.869 76.8443 193.235 75.6614H177.143C176.409 75.6614 175.797 75.4166 175.307 74.9271C174.818 74.3969 174.573 73.785 174.573 73.0916C174.573 72.3981 174.818 71.8067 175.307 71.3172C175.797 70.7869 176.409 70.5217 177.143 70.5217H199.109V67.3401C196.988 67.0545 195.499 66.3611 194.642 65.2597C193.826 64.1584 193.419 62.4248 193.419 60.0589V54.5522C193.419 52.3495 193.765 50.6975 194.459 49.5961C195.152 48.4948 196.376 47.7605 198.13 47.3934C198.293 46.8223 198.436 46.2513 198.558 45.6802C198.721 45.0683 198.844 44.5788 198.925 44.2117C199.129 43.3143 199.598 42.6821 200.333 42.315C201.067 41.9071 201.903 41.8051 202.841 42.009C203.902 42.2538 204.595 42.7433 204.922 43.4775C205.248 44.2117 205.248 44.9868 204.922 45.8026C204.881 45.9657 204.799 46.1697 204.677 46.4144C204.595 46.6592 204.514 46.9039 204.432 47.1487C206.145 47.271 207.471 47.5974 208.409 48.1276C209.388 48.6579 210.082 49.4737 210.489 50.5751C210.938 50.004 211.489 49.6573 212.142 49.5349C212.794 49.4125 213.406 49.5553 213.977 49.9632C214.059 50.004 214.12 50.0448 214.161 50.0856C214.242 50.1264 214.303 50.1672 214.344 50.208C214.874 49.3514 215.405 48.4336 215.935 47.4546C216.506 46.4756 216.934 45.7006 217.22 45.1295C217.546 44.4769 218.056 44.0486 218.75 43.8446C219.484 43.6407 220.177 43.7222 220.83 44.0894C221.442 44.4565 221.829 44.9664 221.992 45.619C222.196 46.2717 222.115 46.9039 221.748 47.5158C221.34 48.1684 220.789 49.0454 220.096 50.1468C219.402 51.2073 218.75 52.2067 218.138 53.1449C218.423 53.3489 218.688 53.5528 218.933 53.7568C219.219 53.9199 219.484 54.1035 219.729 54.3074C220.585 53.0837 221.34 52.0028 221.992 51.0646C222.645 50.1264 223.033 49.5757 223.155 49.4125C223.563 48.8007 224.114 48.4132 224.807 48.25C225.5 48.0461 226.174 48.1684 226.826 48.6171C227.438 48.9842 227.805 49.5145 227.928 50.208C228.091 50.8606 227.948 51.4725 227.499 52.0435C227.377 52.2067 227.051 52.6554 226.52 53.3896C225.99 54.0831 225.337 54.9397 224.562 55.9595C223.787 56.9792 222.971 58.0602 222.115 59.2023C221.258 60.3445 220.442 61.405 219.667 62.384L223.706 61.9557C223.665 61.7925 223.604 61.6498 223.522 61.5274C223.441 61.3642 223.379 61.2215 223.339 61.0991C223.053 60.528 223.053 59.9569 223.339 59.3859C223.624 58.774 224.073 58.3253 224.685 58.0398C225.337 57.795 225.97 57.7746 226.581 57.9786C227.234 58.1826 227.703 58.6109 227.989 59.2635C228.233 59.7938 228.519 60.4668 228.845 61.2826C229.212 62.0577 229.559 62.8531 229.885 63.6689C230.212 64.4439 230.477 65.117 230.681 65.688C230.966 66.3407 230.946 66.973 230.62 67.5848C230.334 68.1967 229.845 68.6454 229.151 68.9309C228.458 69.1757 227.785 69.1757 227.132 68.9309C226.479 68.6862 226.031 68.1763 225.786 67.4013C225.745 67.2381 225.704 67.0953 225.664 66.973C225.623 66.8098 225.562 66.6466 225.48 66.4835C224.623 66.6466 223.604 66.8302 222.421 67.0341C221.279 67.2381 220.116 67.442 218.933 67.646C217.75 67.85 216.71 68.0335 215.813 68.1967C214.956 68.319 214.405 68.4006 214.161 68.4414C213.182 68.5638 212.366 68.4414 211.713 68.0743C211.101 67.6664 210.734 67.0341 210.612 66.1775C210.449 65.4025 210.612 64.7295 211.101 64.1584C211.591 63.5465 212.305 63.1998 213.243 63.1182H213.549L216.792 58.4681C215.894 57.7746 214.874 57.02 213.732 56.2042C212.631 55.3884 211.734 54.7153 211.04 54.1851C211.081 54.2666 211.101 54.389 211.101 54.5522V60.0589C211.101 62.4248 210.693 64.1584 209.878 65.2597C209.062 66.3611 207.573 67.0545 205.411 67.3401V70.5217H227.438C228.172 70.5217 228.784 70.7869 229.274 71.3172C229.804 71.8067 230.069 72.3981 230.069 73.0916C230.069 73.785 229.804 74.3969 229.274 74.9271C228.784 75.4166 228.172 75.6614 227.438 75.6614H211.163C213.488 76.8035 216.078 77.9457 218.933 79.0878C221.829 80.1892 224.623 81.1069 227.316 81.8412C228.213 82.0859 228.825 82.5958 229.151 83.3708C229.518 84.1051 229.559 84.8597 229.274 85.6347C228.947 86.5729 228.335 87.1848 227.438 87.4703C226.581 87.7558 225.704 87.7558 224.807 87.4703C222.686 86.7769 220.442 85.8999 218.077 84.8393C215.751 83.8195 213.488 82.6774 211.285 81.4129C209.123 80.1484 207.165 78.8838 205.411 77.6193V86.3689C205.411 87.3887 205.105 88.1637 204.493 88.694C203.922 89.2651 203.168 89.5506 202.229 89.5506ZM193.48 46.5368C192.582 46.5368 191.807 46.2513 191.155 45.6802C190.543 45.0683 190.237 44.2525 190.237 43.2328V41.7031H176.776C176.042 41.7031 175.409 41.438 174.879 40.9077C174.349 40.3366 174.084 39.684 174.084 38.9497C174.084 38.2155 174.349 37.5832 174.879 37.053C175.409 36.5227 176.042 36.2575 176.776 36.2575H190.237V34.7891C190.237 33.7693 190.543 32.9739 191.155 32.4028C191.807 31.791 192.582 31.485 193.48 31.485C194.418 31.485 195.193 31.791 195.805 32.4028C196.457 32.9739 196.784 33.7693 196.784 34.7891V36.2575H207.92V34.7279C207.92 33.7489 208.246 32.9739 208.899 32.4028C209.551 31.791 210.326 31.485 211.224 31.485C212.121 31.485 212.876 31.791 213.488 32.4028C214.14 32.9739 214.467 33.7489 214.467 34.7279V36.2575H227.805C228.539 36.2575 229.172 36.5227 229.702 37.053C230.232 37.5832 230.497 38.2155 230.497 38.9497C230.497 39.684 230.232 40.3366 229.702 40.9077C229.172 41.438 228.539 41.7031 227.805 41.7031H214.467V43.2328C214.467 44.2117 214.14 45.0071 213.488 45.619C212.876 46.1901 212.121 46.4756 211.224 46.4756C210.326 46.4756 209.551 46.1901 208.899 45.619C208.246 45.0071 207.92 44.2117 207.92 43.2328V41.7031H196.784V43.2328C196.784 44.2525 196.457 45.0683 195.805 45.6802C195.193 46.2513 194.418 46.5368 193.48 46.5368ZM193.051 68.9921C192.358 69.2776 191.685 69.298 191.032 69.0533C190.42 68.8085 189.972 68.2987 189.686 67.5236C189.645 67.3197 189.584 67.1157 189.503 66.9118C189.421 66.7078 189.339 66.5039 189.258 66.2999C188.442 66.4631 187.402 66.667 186.137 66.9118C184.873 67.1157 183.588 67.3401 182.283 67.5848C181.018 67.8296 179.917 68.0335 178.979 68.1967C178.081 68.3598 177.531 68.4618 177.327 68.5026C175.287 68.8289 174.084 68.0947 173.717 66.2999C173.594 65.5249 173.757 64.8314 174.206 64.2196C174.696 63.6077 175.409 63.261 176.348 63.1794C176.429 63.1794 176.572 63.1794 176.776 63.1794C176.98 63.1386 177.225 63.0978 177.51 63.057L180.998 58.1622C180.1 57.4687 179.06 56.6937 177.877 55.8371C176.735 54.9805 175.797 54.287 175.063 53.7568C174.492 53.3489 174.145 52.7982 174.023 52.1047C173.941 51.4113 174.104 50.7994 174.512 50.2692C174.961 49.6981 175.511 49.331 176.164 49.1678C176.817 49.0046 177.449 49.1474 178.061 49.5961C178.306 49.7593 178.489 49.902 178.612 50.0244C179.183 49.1678 179.754 48.2704 180.325 47.3322C180.937 46.3532 181.406 45.5578 181.732 44.946C182.099 44.2933 182.629 43.8854 183.323 43.7222C184.016 43.5591 184.689 43.6815 185.342 44.0894C185.954 44.4565 186.341 44.9868 186.505 45.6802C186.668 46.3328 186.545 46.9447 186.137 47.5158C185.73 48.1684 185.158 49.025 184.424 50.0856C183.69 51.1054 183.017 52.0435 182.405 52.9002C182.691 53.1041 182.956 53.3081 183.2 53.512C183.486 53.716 183.731 53.8995 183.935 54.0627C184.751 52.9613 185.444 52.0028 186.015 51.1869C186.627 50.3303 186.994 49.8205 187.116 49.6573C187.565 49.0454 188.136 48.6579 188.83 48.4948C189.523 48.2908 190.196 48.4132 190.849 48.8619C191.42 49.2698 191.787 49.8205 191.95 50.5139C192.113 51.1665 191.971 51.7784 191.522 52.3495C191.359 52.5534 190.849 53.2061 189.992 54.3074C189.176 55.368 188.197 56.6325 187.055 58.101C185.913 59.5286 184.832 60.9155 183.812 62.2616L187.484 61.7721L187.239 61.2215C186.953 60.6096 186.953 60.0181 187.239 59.4471C187.524 58.8352 187.973 58.4069 188.585 58.1622C189.238 57.8766 189.87 57.8562 190.482 58.101C191.134 58.3049 191.603 58.7332 191.889 59.3859C192.134 59.9162 192.419 60.5892 192.746 61.405C193.113 62.18 193.459 62.9755 193.786 63.7913C194.112 64.5663 194.377 65.2393 194.581 65.8104C194.867 66.4631 194.846 67.0953 194.52 67.7072C194.234 68.319 193.745 68.7474 193.051 68.9921ZM202.229 62.8735C203.535 62.8735 204.371 62.7307 204.738 62.4452C205.105 62.1189 205.289 61.3846 205.289 60.2425V59.3859H199.231V60.2425C199.231 61.3846 199.415 62.1189 199.782 62.4452C200.149 62.7307 200.965 62.8735 202.229 62.8735ZM199.231 54.8581H205.289V54.3686C205.289 53.1857 205.105 52.4515 204.738 52.1659C204.371 51.8396 203.535 51.6764 202.229 51.6764C200.965 51.6764 200.149 51.8396 199.782 52.1659C199.415 52.4515 199.231 53.1857 199.231 54.3686V54.8581Z" fill="#1F1F1F"/>
<path d="M321.008 88.9999C319.866 89.1631 318.887 88.9999 318.071 88.5105C317.256 88.0618 316.746 87.2663 316.542 86.1242C316.379 85.1044 316.603 84.2274 317.215 83.4932C317.867 82.759 318.765 82.3103 319.907 82.1471C324.516 81.5352 328.371 80.4951 331.471 79.0266C334.571 77.5581 336.917 75.5798 338.507 73.0916H321.742C320.927 73.0916 320.213 72.806 319.601 72.235C319.03 71.6231 318.744 70.9297 318.744 70.1546C318.744 69.3388 319.03 68.6454 319.601 68.0743C320.213 67.4624 320.927 67.1565 321.742 67.1565H340.771C340.853 66.5854 340.914 66.0144 340.955 65.4433C341.037 64.8722 341.077 64.2808 341.077 63.6689H319.723C318.948 63.6689 318.275 63.3834 317.704 62.8123C317.133 62.2412 316.848 61.5478 316.848 60.732C316.848 59.9162 317.133 59.2431 317.704 58.7128C318.275 58.1418 318.948 57.8562 319.723 57.8562H341.077V54.5522H326.209C325.434 54.5522 324.761 54.2666 324.19 53.6956C323.619 53.1245 323.333 52.4311 323.333 51.6152C323.333 50.7994 323.619 50.1264 324.19 49.5961C324.761 49.025 325.434 48.7395 326.209 48.7395H341.077V45.5578H321.62C320.845 45.5578 320.152 45.2723 319.54 44.7012C318.969 44.1301 318.683 43.4367 318.683 42.6209C318.683 41.8051 318.969 41.132 319.54 40.6017C320.152 40.0307 320.845 39.7451 321.62 39.7451H333.001L330.859 36.8082C330.329 36.1148 330.125 35.3193 330.247 34.422C330.411 33.4838 330.88 32.7495 331.655 32.2193C332.47 31.6482 333.347 31.4034 334.286 31.485C335.224 31.5666 336.019 31.9949 336.672 32.7699C337.039 33.2186 337.467 33.8101 337.957 34.5443C338.487 35.2378 338.977 35.9312 339.425 36.6247C339.874 37.2773 340.221 37.7872 340.465 38.1543C340.833 38.6846 341.037 39.2149 341.077 39.7451H348.42C348.828 39.1333 349.276 38.4194 349.766 37.6036C350.296 36.747 350.806 35.9108 351.295 35.095C351.826 34.2792 352.234 33.6061 352.519 33.0759C353.049 32.2193 353.784 31.7094 354.722 31.5462C355.701 31.383 356.619 31.5666 357.475 32.0969C358.291 32.6272 358.821 33.3206 359.066 34.1772C359.352 35.0338 359.27 35.87 358.821 36.6858C358.577 37.0122 358.271 37.4609 357.903 38.0319C357.536 38.5622 357.128 39.1333 356.68 39.7451H367.632C368.448 39.7451 369.141 40.0307 369.712 40.6017C370.283 41.132 370.569 41.8051 370.569 42.6209C370.569 43.4367 370.283 44.1301 369.712 44.7012C369.141 45.2723 368.448 45.5578 367.632 45.5578H348.358V48.7395H362.554C363.369 48.7395 364.063 49.025 364.634 49.5961C365.205 50.1264 365.491 50.7994 365.491 51.6152C365.491 52.4311 365.205 53.1245 364.634 53.6956C364.063 54.2666 363.369 54.5522 362.554 54.5522H348.358V57.8562H369.835C370.651 57.8562 371.344 58.1418 371.915 58.7128C372.486 59.2431 372.772 59.9162 372.772 60.732C372.772 61.5478 372.486 62.2412 371.915 62.8123C371.344 63.3834 370.651 63.6689 369.835 63.6689H348.358C348.318 64.2808 348.277 64.8722 348.236 65.4433C348.236 66.0144 348.195 66.5854 348.114 67.1565H367.754C368.57 67.1565 369.264 67.4624 369.835 68.0743C370.447 68.6454 370.753 69.3388 370.753 70.1546C370.753 70.9297 370.447 71.6231 369.835 72.235C369.264 72.806 368.57 73.0916 367.754 73.0916H351.234C355.15 77.6601 361.432 80.5155 370.08 81.6576C371.303 81.8208 372.201 82.3307 372.772 83.1873C373.384 84.0439 373.547 85.0229 373.261 86.1242C372.976 87.144 372.425 87.8578 371.609 88.2657C370.793 88.7144 369.794 88.8572 368.611 88.694C363.757 88.0414 359.25 86.6137 355.089 84.411C350.928 82.2083 347.624 79.3121 345.177 75.7226C343.096 79.1898 340.037 82.0451 335.999 84.2886C331.961 86.5321 326.964 88.1026 321.008 88.9999Z" fill="#1F1F1F"/>
<path d="M485.983 86.9196C485.044 87.2867 484.127 87.3479 483.229 87.1032C482.332 86.8992 481.659 86.3282 481.21 85.39C480.802 84.5334 480.761 83.6768 481.088 82.8202C481.414 81.9228 481.985 81.3313 482.801 81.0458C485.412 80.0668 487.696 78.9654 489.654 77.7417C491.653 76.518 493.407 75.1719 494.916 73.7034C494.386 73.3771 493.855 73.0712 493.325 72.7856C492.836 72.5001 492.326 72.2146 491.795 71.929C489.552 70.7053 487.941 69.5428 486.962 68.4414C486.023 67.2993 485.554 66.0348 485.554 64.6479C485.554 63.261 485.901 61.5682 486.595 59.5694C486.921 58.672 487.206 57.7543 487.451 56.8161C487.737 55.8779 488.022 54.9397 488.308 54.0015H483.229C482.332 54.0015 481.557 53.6956 480.904 53.0837C480.292 52.4311 479.986 51.656 479.986 50.7586C479.986 49.8612 480.292 49.1066 480.904 48.4948C481.557 47.8421 482.332 47.5158 483.229 47.5158H490.021C490.551 45.4762 491.02 43.4367 491.428 41.3972C491.877 39.3168 492.305 37.3385 492.713 35.4621C492.917 34.4423 493.407 33.7285 494.182 33.3206C494.997 32.9127 495.874 32.8107 496.813 33.0147C497.669 33.1778 498.342 33.6061 498.832 34.2996C499.321 34.993 499.464 35.8496 499.26 36.8694C498.893 38.5418 498.505 40.2958 498.098 42.1314C497.69 43.9262 497.261 45.721 496.813 47.5158H512.782C513.72 47.5158 514.495 47.8421 515.107 48.4948C515.719 49.1066 516.025 49.8612 516.025 50.7586C516.025 51.656 515.719 52.4311 515.107 53.0837C514.495 53.6956 513.72 54.0015 512.782 54.0015H509.784C509.376 57.6319 508.764 60.9563 507.948 63.9748C507.133 66.9526 506.031 69.6651 504.644 72.1126C507.948 74.2745 510.926 76.5384 513.578 78.9042C514.353 79.5569 514.74 80.3523 514.74 81.2905C514.781 82.1879 514.455 83.0241 513.761 83.7991C513.108 84.4926 512.313 84.8801 511.375 84.9617C510.437 85.084 509.58 84.8189 508.805 84.1662C507.459 82.9833 506.092 81.8412 504.706 80.7398C503.36 79.6385 501.993 78.5779 500.606 77.5581C497.017 81.3925 492.142 84.513 485.983 86.9196ZM475.826 88.694C474.928 88.694 474.153 88.4085 473.501 87.8374C472.889 87.2663 472.583 86.4709 472.583 85.4512V65.5045H469.462C469.422 69.3388 469.075 72.8876 468.422 76.1509C467.77 79.4141 466.689 82.6162 465.179 85.7571C464.771 86.5729 464.119 87.144 463.221 87.4703C462.324 87.7966 461.447 87.7558 460.59 87.3479C459.53 86.7769 458.959 86.0834 458.877 85.2676C458.796 84.4518 458.959 83.6564 459.367 82.8813C460.794 80.3115 461.814 77.6805 462.426 74.9883C463.038 72.2554 463.385 69.0941 463.466 65.5045H461.631C460.815 65.5045 460.101 65.219 459.489 64.6479C458.918 64.036 458.632 63.3018 458.632 62.4452C458.632 61.6294 458.918 60.9359 459.489 60.3649C460.101 59.753 460.815 59.4471 461.631 59.4471H472.583V53.6344H470.625C468.218 53.6344 466.322 53.3692 464.935 52.839C463.548 52.2679 462.569 51.3501 461.998 50.0856C461.427 48.7803 461.141 47.0263 461.141 44.8236V37.726C461.141 36.747 461.447 35.972 462.059 35.4009C462.712 34.7891 463.487 34.4831 464.384 34.4831C465.322 34.4831 466.097 34.7891 466.709 35.4009C467.362 35.972 467.688 36.747 467.688 37.726V44.7012C467.688 45.8026 467.892 46.5572 468.3 46.9651C468.749 47.373 469.585 47.577 470.809 47.577H472.583V35.6457C472.583 34.6259 472.889 33.8305 473.501 33.2594C474.153 32.6883 474.928 32.4028 475.826 32.4028C476.723 32.4028 477.478 32.6883 478.09 33.2594C478.742 33.8305 479.069 34.6259 479.069 35.6457V85.4512C479.069 86.4709 478.742 87.2663 478.09 87.8374C477.478 88.4085 476.723 88.694 475.826 88.694ZM498.893 68.5026C500.076 66.4631 500.994 64.24 501.646 61.8333C502.34 59.4267 502.85 56.8161 503.176 54.0015H495.099C494.732 55.3068 494.345 56.5917 493.937 57.8562C493.57 59.0799 493.203 60.2629 492.836 61.405C492.428 62.7103 492.305 63.6893 492.468 64.342C492.672 64.9538 493.366 65.5657 494.549 66.1775C495.283 66.5447 495.997 66.9322 496.69 67.3401C497.424 67.7072 498.159 68.0947 498.893 68.5026Z" fill="#1F1F1F"/>
</svg>
