<svg width="70" height="615" viewBox="0 0 70 615" fill="none" xmlns="http://www.w3.org/2000/svg">
<circle cx="34.9924" cy="35.1511" r="32.8178" stroke="#1F1F1F" stroke-width="3.28178"/>
<path d="M31.7915 50.362C31.0455 50.6508 30.3957 50.6869 29.8421 50.4703C29.2886 50.2537 28.9035 49.8927 28.6869 49.3873C28.4704 48.8338 28.4583 48.3044 28.6508 47.799C28.8674 47.2695 29.3127 46.8844 29.9865 46.6438C31.8637 45.9458 33.5484 45.0915 35.0405 44.0807C36.5326 43.0699 37.8322 41.9388 38.9392 40.6873C37.3509 38.2326 36.1957 35.5251 35.4737 32.5649C35.233 32.9981 34.9923 33.4193 34.7517 33.8284C34.511 34.2135 34.2704 34.5985 34.0297 34.9836C33.7168 35.4649 33.2716 35.7898 32.694 35.9583C32.1405 36.1027 31.611 36.0185 31.1056 35.7056C30.6484 35.4409 30.3475 35.0558 30.2031 34.5504C30.0828 34.045 30.1791 33.5757 30.4919 33.1425C31.3343 31.8911 32.1284 30.4712 32.8745 28.8828C33.6206 27.2703 34.2704 25.6338 34.8239 23.9732C35.4015 22.3126 35.8226 20.7844 36.0874 19.3886C36.2318 18.6907 36.5326 18.2093 36.9899 17.9446C37.4471 17.6799 37.9645 17.6077 38.5421 17.728C39.0957 17.8243 39.5289 18.101 39.8417 18.5583C40.1546 18.9915 40.2509 19.5209 40.1305 20.1467C39.9621 20.8927 39.7816 21.6508 39.589 22.4209C39.3965 23.167 39.1679 23.9251 38.9031 24.6952H50.2384C50.816 24.6952 51.2733 24.8757 51.6102 25.2367C51.9471 25.5977 52.1156 26.0429 52.1156 26.5724C52.1156 27.1019 51.9471 27.5591 51.6102 27.9442C51.2733 28.3052 50.816 28.4857 50.2384 28.4857H48.2168C47.6633 33.1786 46.2193 37.2699 43.8849 40.7595C45.7861 42.9977 48.1807 44.8869 51.0687 46.4272C51.6222 46.716 51.9712 47.1371 52.1156 47.6907C52.26 48.2442 52.1878 48.7977 51.899 49.3512C51.5861 49.8807 51.0928 50.2056 50.4189 50.3259C49.745 50.4703 49.1073 50.35 48.5056 49.9649C47.1098 49.0985 45.8102 48.16 44.6069 47.1492C43.4036 46.1384 42.3085 45.0674 41.3218 43.9363C38.7708 46.6558 35.594 48.7977 31.7915 50.362ZM20.8894 44.8388C20.2396 45.0073 19.65 44.9471 19.1206 44.6583C18.6152 44.3695 18.2782 43.9002 18.1098 43.2504C17.9654 42.6247 18.0376 42.0712 18.3264 41.5898C18.6152 41.0844 19.0965 40.7595 19.7703 40.6151C20.3239 40.4948 20.9255 40.3624 21.5753 40.218C22.2251 40.0736 22.899 39.9172 23.5969 39.7488V26.8612H20.2757C19.6741 26.8612 19.1928 26.6687 18.8318 26.2836C18.4708 25.8745 18.2903 25.4052 18.2903 24.8757C18.2903 24.3222 18.4708 23.8529 18.8318 23.4678C19.1928 23.0587 19.6741 22.8541 20.2757 22.8541H31.4305C32.0562 22.8541 32.5376 23.0587 32.8745 23.4678C33.2355 23.8529 33.416 24.3222 33.416 24.8757C33.416 25.4052 33.2355 25.8745 32.8745 26.2836C32.5376 26.6687 32.0562 26.8612 31.4305 26.8612H27.8206V38.7019C28.5185 38.5093 29.1923 38.3409 29.8421 38.1965C30.4919 38.028 31.0936 37.8595 31.6471 37.6911C32.2006 37.5467 32.706 37.5948 33.1633 37.8355C33.6206 38.0521 33.9214 38.4371 34.0658 38.9907C34.2102 39.5201 34.1982 40.0135 34.0297 40.4707C33.8612 40.928 33.4641 41.2529 32.8384 41.4454C32.0442 41.6861 31.1177 41.9629 30.0587 42.2757C28.9998 42.5886 27.9168 42.9014 26.8098 43.2143C25.7027 43.5272 24.6318 43.828 23.5969 44.1168C22.562 44.4056 21.6596 44.6463 20.8894 44.8388ZM41.394 37.2218C42.1401 35.8981 42.7417 34.5023 43.199 33.0342C43.6562 31.5662 43.9932 30.05 44.2098 28.4857H38.5421C38.7587 30.0981 39.1077 31.6384 39.589 33.1064C40.0704 34.5504 40.672 35.9222 41.394 37.2218Z" fill="#1F1F1F"/>
<g clip-path="url(#clip0_37_11192)">
<path d="M16.4615 526.465C7.82981 514.999 7.82981 498.993 16.4615 487.526C23.8976 477.636 23.8976 463.804 16.4615 453.914C7.82981 442.447 7.82981 426.442 16.4615 414.975C23.8976 405.085 23.8976 391.253 16.4615 381.363C7.82981 369.896 7.82981 353.89 16.4615 342.424C23.8976 332.534 23.8976 318.702 16.4615 308.812C7.82981 297.345 7.82981 281.339 16.4615 269.872C23.8976 259.982 23.8976 246.151 16.4615 236.26C7.82981 224.794 7.82981 208.788 16.4615 197.321C23.8976 187.431 23.8976 173.599 16.4615 163.709C7.82981 152.242 7.82981 136.237 16.4615 124.77C23.8976 114.88 23.8976 101.048 16.4615 91.158L20.0002 88.5063C28.6319 99.9731 28.6319 115.979 20.0002 127.446C12.5641 137.336 12.5641 151.167 20.0002 161.058C28.6319 172.524 28.6319 188.53 20.0002 199.997C12.5641 209.887 12.5641 223.719 20.0002 233.609C28.6319 245.076 28.6319 261.081 20.0002 272.548C12.5641 282.438 12.5641 296.27 20.0002 306.16C28.6319 317.627 28.6319 333.633 20.0002 345.099C12.5641 354.989 12.5641 368.821 20.0002 378.711C28.6319 390.178 28.6319 406.184 20.0002 417.651C12.5641 427.541 12.5641 441.372 20.0002 451.263C28.6319 462.729 28.6319 478.735 20.0002 490.202C12.5641 500.092 12.5641 513.924 20.0002 523.814L16.4615 526.465Z" fill="#1F1F1F"/>
<path d="M33.223 526.465C24.5913 514.999 24.5913 498.993 33.223 487.526C40.6592 477.636 40.6592 463.804 33.223 453.914C24.5913 442.447 24.5913 426.442 33.223 414.975C40.6592 405.085 40.6592 391.253 33.223 381.363C24.5913 369.896 24.5913 353.89 33.223 342.424C40.6592 332.534 40.6592 318.702 33.223 308.812C24.5913 297.345 24.5913 281.339 33.223 269.872C40.6592 259.982 40.6592 246.151 33.223 236.26C24.5913 224.794 24.5913 208.788 33.223 197.321C40.6592 187.431 40.6592 173.599 33.223 163.709C24.5913 152.242 24.5913 136.237 33.223 124.77C40.6592 114.88 40.6592 101.048 33.223 91.158L36.7618 88.5063C45.3935 99.9731 45.3935 115.979 36.7618 127.446C29.3256 137.336 29.3256 151.167 36.7618 161.058C45.3935 172.524 45.3935 188.53 36.7618 199.997C29.3256 209.887 29.3256 223.719 36.7618 233.609C45.3935 245.076 45.3935 261.081 36.7618 272.548C29.3256 282.438 29.3256 296.27 36.7618 306.16C45.3935 317.627 45.3935 333.633 36.7618 345.099C29.3256 354.989 29.3256 368.821 36.7618 378.711C45.3935 390.178 45.3935 406.184 36.7618 417.651C29.3256 427.541 29.3256 441.372 36.7618 451.263C45.3935 462.729 45.3935 478.735 36.7618 490.202C29.3256 500.092 29.3256 513.924 36.7618 523.814L33.223 526.465Z" fill="#1F1F1F"/>
<path d="M51.2248 523.452L50.3523 524.106C43.1454 513.353 43.4668 498.957 51.3164 488.529L51.3169 488.528C59.1993 478.045 59.1993 463.396 51.3169 452.912L51.3164 452.911C43.1317 442.038 43.1317 426.851 51.3164 415.978L51.3169 415.977C59.1993 405.493 59.1993 390.844 51.3169 380.361L51.3164 380.36C43.1317 369.487 43.1317 354.299 51.3164 343.426L51.3169 343.426C59.1993 332.942 59.1993 318.293 51.3169 307.81L51.3164 307.809C43.1317 296.936 43.1317 281.748 51.3164 270.875L51.3169 270.874C59.1993 260.391 59.1993 245.742 51.3169 235.258L51.3164 235.258C43.1317 224.385 43.1317 209.197 51.3164 198.324L51.3169 198.323C59.1993 187.84 59.1993 173.191 51.3169 162.707L51.3164 162.707C43.1317 151.834 43.1317 136.646 51.3164 125.773L51.3169 125.772C58.8632 115.736 59.185 101.882 52.2825 91.5195L53.155 90.8656C60.3619 101.618 60.0405 116.015 52.1909 126.443L52.1903 126.444C44.3079 136.927 44.3079 151.576 52.1903 162.06L52.1909 162.06C60.3756 172.933 60.3756 188.121 52.1909 198.994L52.1903 198.995C44.3079 209.478 44.3079 224.127 52.1903 234.611L52.1909 234.612C60.3756 245.485 60.3756 260.672 52.1909 271.545L52.1903 271.546C44.3079 282.03 44.3079 296.678 52.1903 307.162L52.1909 307.163C60.3756 318.036 60.3756 333.224 52.1909 344.097L52.1903 344.097C44.3079 354.581 44.3079 369.23 52.1903 379.713L52.1909 379.714C60.3756 390.587 60.3756 405.775 52.1909 416.648L52.1903 416.648C44.3079 427.132 44.3079 441.781 52.1903 452.265L52.1909 452.265C60.3756 463.138 60.3756 478.326 52.1909 489.199L52.1903 489.2C44.6441 499.236 44.3223 513.09 51.2248 523.452Z" fill="#1F1F1F" stroke="#1F1F1F" stroke-width="3.33471"/>
</g>
<circle cx="34.9924" cy="579.821" r="32.8178" stroke="#1F1F1F" stroke-width="3.28178"/>
<path d="M25.7629 589.869C24.0301 589.869 22.6824 589.713 21.7197 589.4C20.7811 589.063 20.1193 588.485 19.7342 587.667C19.3733 586.849 19.1928 585.718 19.1928 584.274V571.097C19.1928 569.629 19.3733 568.498 19.7342 567.704C20.1193 566.886 20.7811 566.32 21.7197 566.007C22.6824 565.67 24.0301 565.502 25.7629 565.502C27.5197 565.502 28.8674 565.67 29.806 566.007C30.7687 566.32 31.4305 566.886 31.7915 567.704C32.1766 568.498 32.3691 569.629 32.3691 571.097V580.519C32.4413 580.471 32.5135 580.423 32.5857 580.375C32.6579 580.303 32.7421 580.255 32.8384 580.231C34.0417 579.605 35.233 578.895 36.4123 578.101C37.5915 577.282 38.6865 576.404 39.6973 575.465C39.2882 574.96 38.8911 574.443 38.506 573.913C38.145 573.36 37.7961 572.794 37.4592 572.217C36.8575 573.035 36.2558 573.781 35.6542 574.455C35.3172 574.84 34.8961 575.068 34.3907 575.141C33.9094 575.213 33.4521 575.092 33.0189 574.78C32.6338 574.467 32.4293 574.082 32.4052 573.624C32.3811 573.167 32.5255 572.758 32.8384 572.397C33.5123 571.627 34.1861 570.724 34.86 569.69C35.5579 568.655 36.1957 567.584 36.7733 566.477C37.3749 565.37 37.8562 564.359 38.2172 563.444C38.4338 562.915 38.7828 562.554 39.2641 562.361C39.7455 562.169 40.2388 562.169 40.7442 562.361C41.8272 562.77 42.1401 563.553 41.6828 564.708C41.5865 564.9 41.4903 565.105 41.394 565.321C41.3218 565.538 41.2255 565.767 41.1052 566.007H44.8957C45.9065 566.007 46.7247 566.26 47.3504 566.765C47.9762 567.247 48.3372 567.909 48.4334 568.751C48.5297 569.569 48.277 570.472 47.6753 571.458C47.2662 572.132 46.821 572.794 46.3397 573.444C45.8824 574.07 45.389 574.695 44.8596 575.321C46.8089 576.982 48.987 578.329 51.3936 579.364C52.0193 579.605 52.4285 580.002 52.621 580.556C52.8135 581.085 52.7774 581.626 52.5127 582.18C52.2239 582.734 51.7787 583.082 51.177 583.227C50.5753 583.347 49.9737 583.275 49.372 583.01C48.1206 582.385 46.8811 581.675 45.6538 580.88C44.4264 580.062 43.2712 579.148 42.1882 578.137C41.0811 579.172 39.8899 580.122 38.6143 580.989C37.3629 581.855 36.0633 582.637 34.7156 583.335C34.3305 583.504 33.9214 583.576 33.4882 583.552C33.055 583.528 32.682 583.383 32.3691 583.119V584.274C32.3691 585.718 32.1766 586.849 31.7915 587.667C31.4305 588.485 30.7687 589.063 29.806 589.4C28.8674 589.713 27.5197 589.869 25.7629 589.869ZM42.0799 594.923C40.2509 594.923 38.843 594.743 37.8562 594.382C36.8936 594.045 36.2197 593.419 35.8347 592.504C35.4737 591.566 35.2932 590.23 35.2932 588.497C35.2932 586.765 35.4737 585.441 35.8347 584.526C36.2197 583.588 36.8936 582.95 37.8562 582.613C38.843 582.252 40.2509 582.072 42.0799 582.072C43.9089 582.072 45.3168 582.252 46.3036 582.613C47.2903 582.95 47.9641 583.588 48.3251 584.526C48.7102 585.441 48.9027 586.765 48.9027 588.497C48.9027 590.23 48.7102 591.566 48.3251 592.504C47.9641 593.419 47.2903 594.045 46.3036 594.382C45.3168 594.743 43.9089 594.923 42.0799 594.923ZM42.0799 591.53C42.85 591.53 43.4397 591.458 43.8488 591.313C44.282 591.169 44.5708 590.88 44.7152 590.447C44.8836 589.99 44.9679 589.34 44.9679 588.497C44.9679 587.246 44.7753 586.428 44.3903 586.043C44.0052 585.658 43.2351 585.465 42.0799 585.465C40.9247 585.465 40.1546 585.67 39.7695 586.079C39.3845 586.464 39.1919 587.258 39.1919 588.461C39.1919 589.737 39.3845 590.567 39.7695 590.952C40.1546 591.337 40.9247 591.53 42.0799 591.53ZM27.2069 585.97C28.0492 585.898 28.5666 585.706 28.7591 585.393C28.9517 585.08 29.0479 584.514 29.0479 583.696V579.581H27.2069V585.97ZM27.2069 575.79H29.0479V571.711C29.0479 570.869 28.9517 570.291 28.7591 569.978C28.5666 569.665 28.0492 569.485 27.2069 569.437V575.79ZM24.2467 585.934V579.581H22.5139V583.696C22.5139 584.49 22.6102 585.044 22.8027 585.357C22.9952 585.67 23.4766 585.862 24.2467 585.934ZM22.5139 575.79H24.2467V569.437C23.4766 569.509 22.9952 569.702 22.8027 570.014C22.6102 570.327 22.5139 570.893 22.5139 571.711V575.79ZM42.2604 572.758C42.5251 572.421 42.7778 572.084 43.0185 571.747C43.2832 571.41 43.5118 571.073 43.7044 570.736C44.3542 569.678 44.0654 569.148 42.838 569.148H39.7695C40.1065 569.774 40.4795 570.4 40.8886 571.025C41.3218 571.627 41.7791 572.204 42.2604 572.758Z" fill="#1F1F1F"/>
<defs>
<clipPath id="clip0_37_11192">
<rect width="50.0207" height="437.959" fill="white" transform="translate(9.98206 88.5063)"/>
</clipPath>
</defs>
</svg>
