<svg width="70" height="615" viewBox="0 0 70 615" fill="none" xmlns="http://www.w3.org/2000/svg">
<circle cx="34.896" cy="35.1511" r="32.8178" stroke="#1F1F1F" stroke-width="3.28178"/>
<path d="M21.1902 51.084C20.5163 51.1803 19.9387 51.084 19.4574 50.7952C18.976 50.5305 18.6752 50.0612 18.5549 49.3873C18.4586 48.7857 18.591 48.2683 18.952 47.8351C19.337 47.4019 19.8665 47.1371 20.5404 47.0409C23.2599 46.6799 25.5341 46.0662 27.3632 45.1998C29.1922 44.3334 30.5761 43.1662 31.5146 41.6981H21.6234C21.142 41.6981 20.7209 41.5297 20.3599 41.1927C20.0229 40.8317 19.8545 40.4226 19.8545 39.9653C19.8545 39.484 20.0229 39.0749 20.3599 38.738C20.7209 38.377 21.142 38.1965 21.6234 38.1965H32.8503C32.8985 37.8595 32.9346 37.5226 32.9586 37.1857C33.0068 36.8487 33.0308 36.4998 33.0308 36.1388H20.4321C19.9748 36.1388 19.5777 35.9703 19.2408 35.6334C18.9038 35.2965 18.7354 34.8873 18.7354 34.406C18.7354 33.9247 18.9038 33.5276 19.2408 33.2147C19.5777 32.8778 19.9748 32.7093 20.4321 32.7093H33.0308V30.76H24.2586C23.8014 30.76 23.4043 30.5915 23.0673 30.2546C22.7304 29.9176 22.5619 29.5085 22.5619 29.0272C22.5619 28.5458 22.7304 28.1487 23.0673 27.8359C23.4043 27.499 23.8014 27.3305 24.2586 27.3305H33.0308V25.4533H21.5512C21.0939 25.4533 20.6848 25.2848 20.3238 24.9479C19.9868 24.611 19.8184 24.2019 19.8184 23.7205C19.8184 23.2392 19.9868 22.8421 20.3238 22.5292C20.6848 22.1923 21.0939 22.0238 21.5512 22.0238H28.2657L27.0022 20.2911C26.6893 19.8819 26.569 19.4126 26.6412 18.8832C26.7375 18.3297 27.0142 17.8965 27.4715 17.5836C27.9528 17.2467 28.4702 17.1023 29.0238 17.1504C29.5773 17.1985 30.0466 17.4512 30.4317 17.9085C30.6483 18.1732 30.9009 18.5222 31.1897 18.9554C31.5026 19.3645 31.7914 19.7736 32.0561 20.1828C32.3209 20.5678 32.5254 20.8687 32.6698 21.0853C32.8864 21.3981 33.0068 21.711 33.0308 22.0238H37.3628C37.6034 21.6629 37.8682 21.2417 38.157 20.7604C38.4698 20.255 38.7707 19.7616 39.0595 19.2803C39.3723 18.799 39.613 18.4019 39.7814 18.089C40.0943 17.5836 40.5275 17.2828 41.081 17.1865C41.6586 17.0902 42.2001 17.1985 42.7055 17.5114C43.1868 17.8243 43.4997 18.2334 43.6441 18.7388C43.8126 19.2442 43.7644 19.7375 43.4997 20.2189C43.3553 20.4114 43.1748 20.6761 42.9582 21.0131C42.7416 21.3259 42.501 21.6629 42.2362 22.0238H48.6981C49.1794 22.0238 49.5885 22.1923 49.9254 22.5292C50.2624 22.8421 50.4308 23.2392 50.4308 23.7205C50.4308 24.2019 50.2624 24.611 49.9254 24.9479C49.5885 25.2848 49.1794 25.4533 48.6981 25.4533H37.3267V27.3305H45.7018C46.1831 27.3305 46.5922 27.499 46.9292 27.8359C47.2661 28.1487 47.4346 28.5458 47.4346 29.0272C47.4346 29.5085 47.2661 29.9176 46.9292 30.2546C46.5922 30.5915 46.1831 30.76 45.7018 30.76H37.3267V32.7093H49.9976C50.479 32.7093 50.8881 32.8778 51.225 33.2147C51.562 33.5276 51.7304 33.9247 51.7304 34.406C51.7304 34.8873 51.562 35.2965 51.225 35.6334C50.8881 35.9703 50.479 36.1388 49.9976 36.1388H37.3267C37.3026 36.4998 37.2785 36.8487 37.2545 37.1857C37.2545 37.5226 37.2304 37.8595 37.1823 38.1965H48.7702C49.2516 38.1965 49.6607 38.377 49.9976 38.738C50.3586 39.0749 50.5391 39.484 50.5391 39.9653C50.5391 40.4226 50.3586 40.8317 49.9976 41.1927C49.6607 41.5297 49.2516 41.6981 48.7702 41.6981H39.0234C41.3337 44.3936 45.04 46.0782 50.142 46.7521C50.864 46.8483 51.3935 47.1492 51.7304 47.6546C52.0914 48.16 52.1877 48.7376 52.0192 49.3873C51.8507 49.989 51.5259 50.4102 51.0445 50.6508C50.5632 50.9156 49.9736 50.9998 49.2756 50.9035C46.4117 50.5185 43.7524 49.6761 41.2976 48.3766C38.8429 47.077 36.8935 45.3683 35.4495 43.2504C34.2221 45.2961 32.4171 46.9807 30.0346 48.3044C27.652 49.628 24.7038 50.5546 21.1902 51.084Z" fill="#1F1F1F"/>
<g clip-path="url(#clip0_37_11203)">
<path d="M16.3651 526.465C7.73344 514.999 7.73344 498.993 16.3651 487.526C23.8013 477.636 23.8013 463.804 16.3651 453.914C7.73344 442.447 7.73344 426.442 16.3651 414.975C23.8013 405.085 23.8013 391.253 16.3651 381.363C7.73344 369.896 7.73344 353.89 16.3651 342.424C23.8013 332.534 23.8013 318.702 16.3651 308.812C7.73344 297.345 7.73344 281.339 16.3651 269.872C23.8013 259.982 23.8013 246.151 16.3651 236.26C7.73344 224.794 7.73344 208.788 16.3651 197.321C23.8013 187.431 23.8013 173.599 16.3651 163.709C7.73344 152.242 7.73344 136.237 16.3651 124.77C23.8013 114.88 23.8013 101.048 16.3651 91.158L19.9039 88.5063C28.5355 99.9731 28.5355 115.979 19.9039 127.446C12.4677 137.336 12.4677 151.167 19.9039 161.058C28.5355 172.524 28.5355 188.53 19.9039 199.997C12.4677 209.887 12.4677 223.719 19.9039 233.609C28.5355 245.076 28.5355 261.081 19.9039 272.548C12.4677 282.438 12.4677 296.27 19.9039 306.16C28.5355 317.627 28.5355 333.633 19.9039 345.099C12.4677 354.989 12.4677 368.821 19.9039 378.711C28.5355 390.178 28.5355 406.184 19.9039 417.651C12.4677 427.541 12.4677 441.372 19.9039 451.263C28.5355 462.729 28.5355 478.735 19.9039 490.202C12.4677 500.092 12.4677 513.924 19.9039 523.814L16.3651 526.465Z" fill="#1F1F1F"/>
<path d="M33.1266 526.465C24.4949 514.999 24.4949 498.993 33.1266 487.526C40.5627 477.636 40.5627 463.804 33.1266 453.914C24.4949 442.447 24.4949 426.442 33.1266 414.975C40.5627 405.085 40.5627 391.253 33.1266 381.363C24.4949 369.896 24.4949 353.89 33.1266 342.424C40.5627 332.534 40.5627 318.702 33.1266 308.812C24.4949 297.345 24.4949 281.339 33.1266 269.872C40.5627 259.982 40.5627 246.151 33.1266 236.26C24.4949 224.794 24.4949 208.788 33.1266 197.321C40.5627 187.431 40.5627 173.599 33.1266 163.709C24.4949 152.242 24.4949 136.237 33.1266 124.77C40.5627 114.88 40.5627 101.048 33.1266 91.158L36.6653 88.5063C45.297 99.9731 45.297 115.979 36.6653 127.446C29.2292 137.336 29.2292 151.167 36.6653 161.058C45.297 172.524 45.297 188.53 36.6653 199.997C29.2292 209.887 29.2292 223.719 36.6653 233.609C45.297 245.076 45.297 261.081 36.6653 272.548C29.2292 282.438 29.2292 296.27 36.6653 306.16C45.297 317.627 45.297 333.633 36.6653 345.099C29.2292 354.989 29.2292 368.821 36.6653 378.711C45.297 390.178 45.297 406.184 36.6653 417.651C29.2292 427.541 29.2292 441.372 36.6653 451.263C45.297 462.729 45.297 478.735 36.6653 490.202C29.2292 500.092 29.2292 513.924 36.6653 523.814L33.1266 526.465Z" fill="#1F1F1F"/>
<path d="M51.1284 523.452L50.2559 524.106C43.049 513.353 43.3704 498.957 51.22 488.529L51.2206 488.528C59.103 478.045 59.103 463.396 51.2206 452.912L51.22 452.911C43.0353 442.038 43.0353 426.851 51.22 415.978L51.2206 415.977C59.103 405.493 59.103 390.844 51.2206 380.361L51.22 380.36C43.0353 369.487 43.0353 354.299 51.22 343.426L51.2206 343.426C59.103 332.942 59.103 318.293 51.2206 307.81L51.22 307.809C43.0353 296.936 43.0353 281.748 51.22 270.875L51.2206 270.874C59.103 260.391 59.103 245.742 51.2206 235.258L51.22 235.258C43.0353 224.385 43.0353 209.197 51.22 198.324L51.2206 198.323C59.103 187.84 59.103 173.191 51.2206 162.707L51.22 162.707C43.0353 151.834 43.0353 136.646 51.22 125.773L51.2206 125.772C58.7668 115.736 59.0886 101.882 52.1861 91.5195L53.0586 90.8656C60.2655 101.618 59.9441 116.015 52.0945 126.443L52.094 126.444C44.2116 136.927 44.2116 151.576 52.094 162.06L52.0945 162.06C60.2792 172.933 60.2792 188.121 52.0945 198.994L52.094 198.995C44.2116 209.478 44.2116 224.127 52.094 234.611L52.0945 234.612C60.2792 245.485 60.2792 260.672 52.0945 271.545L52.094 271.546C44.2116 282.03 44.2116 296.678 52.094 307.162L52.0945 307.163C60.2792 318.036 60.2792 333.224 52.0945 344.097L52.094 344.097C44.2116 354.581 44.2116 369.23 52.094 379.713L52.0945 379.714C60.2792 390.587 60.2792 405.775 52.0945 416.648L52.094 416.648C44.2116 427.132 44.2116 441.781 52.094 452.265L52.0945 452.265C60.2792 463.138 60.2792 478.326 52.0945 489.199L52.094 489.2C44.5477 499.236 44.2259 513.09 51.1284 523.452Z" fill="#1F1F1F" stroke="#1F1F1F" stroke-width="3.33471"/>
</g>
<circle cx="34.896" cy="579.821" r="32.8178" stroke="#1F1F1F" stroke-width="3.28178"/>
<path d="M34.5109 594.526C33.9574 594.743 33.4159 594.779 32.8864 594.634C32.357 594.514 31.9599 594.177 31.6951 593.624C31.4545 593.118 31.4304 592.613 31.6229 592.107C31.8155 591.578 32.1524 591.229 32.6337 591.061C34.174 590.483 35.5217 589.833 36.6769 589.111C37.8561 588.389 38.891 587.595 39.7814 586.729C39.4686 586.536 39.1557 586.356 38.8429 586.187C38.5541 586.019 38.2532 585.85 37.9404 585.682C36.6167 584.96 35.6661 584.274 35.0885 583.624C34.535 582.95 34.2582 582.204 34.2582 581.386C34.2582 580.568 34.4628 579.569 34.8719 578.39C35.0644 577.86 35.2329 577.319 35.3773 576.765C35.5458 576.212 35.7142 575.658 35.8827 575.104H32.8864C32.357 575.104 31.8997 574.924 31.5146 574.563C31.1536 574.178 30.9731 573.721 30.9731 573.191C30.9731 572.662 31.1536 572.217 31.5146 571.856C31.8997 571.47 32.357 571.278 32.8864 571.278H36.8935C37.2063 570.075 37.4831 568.871 37.7238 567.668C37.9885 566.441 38.2412 565.273 38.4819 564.166C38.6022 563.565 38.891 563.143 39.3483 562.903C39.8296 562.662 40.347 562.602 40.9005 562.722C41.4059 562.819 41.803 563.071 42.0918 563.48C42.3806 563.89 42.4649 564.395 42.3445 564.997C42.1279 565.983 41.8993 567.018 41.6586 568.101C41.418 569.16 41.1653 570.219 40.9005 571.278H50.3225C50.8761 571.278 51.3333 571.47 51.6943 571.856C52.0553 572.217 52.2358 572.662 52.2358 573.191C52.2358 573.721 52.0553 574.178 51.6943 574.563C51.3333 574.924 50.8761 575.104 50.3225 575.104H48.5537C48.313 577.246 47.952 579.208 47.4707 580.989C46.9893 582.746 46.3395 584.346 45.5213 585.79C47.4707 587.065 49.2275 588.401 50.7918 589.797C51.2491 590.182 51.4777 590.651 51.4777 591.205C51.5018 591.734 51.3093 592.228 50.9001 592.685C50.5151 593.094 50.0458 593.323 49.4922 593.371C48.9387 593.443 48.4333 593.287 47.9761 592.902C47.1819 592.204 46.3756 591.53 45.5574 590.88C44.7632 590.23 43.957 589.604 43.1387 589.003C41.0209 591.265 38.1449 593.106 34.5109 594.526ZM28.5184 595.573C27.9889 595.573 27.5317 595.404 27.1466 595.068C26.7856 594.731 26.6051 594.261 26.6051 593.66V581.891H24.764C24.7399 584.153 24.5354 586.247 24.1503 588.173C23.7653 590.098 23.1275 591.987 22.237 593.84C21.9964 594.322 21.6113 594.658 21.0819 594.851C20.5524 595.043 20.035 595.019 19.5296 594.779C18.9038 594.442 18.5669 594.033 18.5188 593.551C18.4707 593.07 18.5669 592.601 18.8076 592.143C19.6499 590.627 20.2516 589.075 20.6126 587.487C20.9736 585.874 21.1781 584.009 21.2263 581.891H20.1433C19.6619 581.891 19.2408 581.723 18.8798 581.386C18.5429 581.025 18.3744 580.592 18.3744 580.086C18.3744 579.605 18.5429 579.196 18.8798 578.859C19.2408 578.498 19.6619 578.317 20.1433 578.317H26.6051V574.888H25.4499C24.03 574.888 22.9109 574.731 22.0926 574.419C21.2744 574.082 20.6968 573.54 20.3599 572.794C20.0229 572.024 19.8545 570.989 19.8545 569.69V565.502C19.8545 564.924 20.035 564.467 20.396 564.13C20.781 563.769 21.2383 563.589 21.7677 563.589C22.3213 563.589 22.7785 563.769 23.1395 564.13C23.5246 564.467 23.7171 564.924 23.7171 565.502V569.617C23.7171 570.267 23.8375 570.712 24.0781 570.953C24.3429 571.194 24.8362 571.314 25.5582 571.314H26.6051V564.275C26.6051 563.673 26.7856 563.204 27.1466 562.867C27.5317 562.53 27.9889 562.361 28.5184 562.361C29.0478 562.361 29.4931 562.53 29.8541 562.867C30.2391 563.204 30.4317 563.673 30.4317 564.275V593.66C30.4317 594.261 30.2391 594.731 29.8541 595.068C29.4931 595.404 29.0478 595.573 28.5184 595.573ZM42.1279 583.66C42.8258 582.457 43.3673 581.145 43.7524 579.725C44.1615 578.305 44.4624 576.765 44.6549 575.104H39.8897C39.6732 575.875 39.4445 576.633 39.2039 577.379C38.9873 578.101 38.7707 578.799 38.5541 579.473C38.3134 580.243 38.2412 580.82 38.3375 581.205C38.4578 581.566 38.8669 581.927 39.5649 582.288C39.998 582.505 40.4192 582.734 40.8283 582.974C41.2615 583.191 41.6947 583.419 42.1279 583.66Z" fill="#1F1F1F"/>
<defs>
<clipPath id="clip0_37_11203">
<rect width="50.0207" height="437.959" fill="white" transform="translate(9.88568 88.5063)"/>
</clipPath>
</defs>
</svg>
