<svg width="551" height="551" viewBox="0 0 551 551" fill="none" xmlns="http://www.w3.org/2000/svg">
<g clip-path="url(#clip0_156_188186)">
<path d="M281.017 550.25L275.331 544.638L286.466 544.73L281.017 550.25Z" fill="#F8F6F1"/>
<path d="M0.000263575 272.845L5.44989 267.324L544.67 271.793L550.356 277.406L544.906 282.926L5.68617 278.458L0.000263575 272.845Z" fill="#F8F6F1"/>
<path d="M269.34 -0.000114628L275.026 5.61273L263.89 5.52045L269.34 -0.000114628Z" fill="#F8F6F1"/>
<path d="M134.823 405.935L421.136 408.307L410.237 419.349L146.194 417.161L134.823 405.935Z" fill="#F8F6F1"/>
<path d="M140.12 130.902L404.162 133.09L415.534 144.315L129.22 141.943L140.12 130.902Z" fill="#F8F6F1"/>
<path d="M205.077 475.286L353.801 476.519L342.902 487.56L216.448 486.512L205.077 475.286Z" fill="#F8F6F1"/>
<path d="M64.5685 336.583L488.471 340.096L477.571 351.137L75.9403 347.809L64.5685 336.583Z" fill="#F8F6F1"/>
<path d="M72.7849 199.113L474.416 202.441L485.788 213.667L61.8856 210.154L72.7849 199.113Z" fill="#F8F6F1"/>
<path d="M207.454 62.6904L333.908 63.7383L345.28 74.964L196.555 73.7316L207.454 62.6904Z" fill="#F8F6F1"/>
<path d="M240.204 509.962L320.134 510.624L309.234 521.665L251.575 521.188L240.204 509.962Z" fill="#F8F6F1"/>
<path d="M169.95 440.611L387.468 442.413L376.569 453.454L181.321 451.836L169.95 440.611Z" fill="#F8F6F1"/>
<path d="M99.6955 371.259L454.803 374.202L443.904 385.243L111.067 382.485L99.6955 371.259Z" fill="#F8F6F1"/>
<path d="M29.4415 301.908L522.138 305.991L511.239 317.032L40.8133 313.133L29.4415 301.908Z" fill="#F8F6F1"/>
<path d="M39.1173 233.219L509.543 237.117L520.915 248.343L28.2181 244.26L39.1173 233.219Z" fill="#F8F6F1"/>
<path d="M106.452 165.007L439.289 167.765L450.66 178.991L95.5527 176.048L106.452 165.007Z" fill="#F8F6F1"/>
<path d="M173.787 96.796L369.035 98.4139L380.406 109.64L162.888 107.837L173.787 96.796Z" fill="#F8F6F1"/>
<path d="M241.122 28.5849L298.781 29.0627L310.152 40.2884L230.222 39.626L241.122 28.5849Z" fill="#F8F6F1"/>
<path d="M257.767 527.3L303.3 527.677L292.401 538.718L269.139 538.525L257.767 527.3Z" fill="#F8F6F1"/>
<path d="M222.64 492.624L336.967 493.572L326.068 504.613L234.012 503.85L222.64 492.624Z" fill="#F8F6F1"/>
<path d="M187.513 457.948L370.635 459.466L359.735 470.507L198.885 469.174L187.513 457.948Z" fill="#F8F6F1"/>
<path d="M152.386 423.273L404.302 425.36L393.403 436.401L163.758 434.498L152.386 423.273Z" fill="#F8F6F1"/>
<path d="M82.132 353.921L471.637 357.149L460.738 368.19L93.5038 365.147L82.132 353.921Z" fill="#F8F6F1"/>
<path d="M117.259 388.597L437.97 391.255L427.07 402.296L128.631 399.823L117.259 388.597Z" fill="#F8F6F1"/>
<path d="M47.0049 319.246L505.304 323.043L494.405 334.085L58.3767 330.471L47.0049 319.246Z" fill="#F8F6F1"/>
<path d="M11.8779 284.57L538.972 288.938L528.072 299.979L23.2497 295.796L11.8779 284.57Z" fill="#F8F6F1"/>
<path d="M55.951 216.166L491.979 219.779L503.351 231.005L45.0518 227.207L55.951 216.166Z" fill="#F8F6F1"/>
<path d="M22.2838 250.271L527.107 254.455L538.478 265.68L11.3845 261.313L22.2838 250.271Z" fill="#F8F6F1"/>
<path d="M89.6184 182.06L456.852 185.103L468.224 196.329L78.7191 193.101L89.6184 182.06Z" fill="#F8F6F1"/>
<path d="M123.286 147.955L421.725 150.428L433.097 161.654L112.387 158.996L123.286 147.955Z" fill="#F8F6F1"/>
<path d="M190.621 79.7432L351.471 81.0761L362.843 92.3018L179.721 90.7843L190.621 79.7432Z" fill="#F8F6F1"/>
<path d="M156.953 113.849L386.598 115.752L397.97 126.977L146.054 124.89L156.953 113.849Z" fill="#F8F6F1"/>
<path d="M224.288 45.6381L316.344 46.401L327.716 57.6267L213.389 56.6793L224.288 45.6381Z" fill="#F8F6F1"/>
<path d="M257.956 11.5321L281.217 11.7249L292.589 22.9505L247.056 22.5732L257.956 11.5321Z" fill="#F8F6F1"/>
</g>
<defs>
<clipPath id="clip0_156_188186">
<rect width="394.872" height="383.39" fill="white" transform="translate(281.017 550.25) rotate(-135.37)"/>
</clipPath>
</defs>
</svg>
