<?xml version="1.0" encoding="UTF-8"?><svg xmlns="http://www.w3.org/2000/svg" viewBox="0 0 5815.04 1007.09"><defs><style>.d{fill:#97d5c9;}.e{fill:#30ac9c;}.f{fill:#5ec4b9;}.g{fill:none;stroke:#5ec4b9;stroke-linecap:round;stroke-linejoin:round;stroke-width:5px;}</style></defs><g id="a"/><g id="b"><g id="c"><g><path class="d" d="M1804.11,207.84c-.1-19-15.52-34.38-34.55-34.38-14.66,0-27.16,9.14-32.18,22.03-14.58,.15-26.35,12-26.35,26.61s11.92,26.63,26.63,26.63c7.69,0,14.6-3.28,19.46-8.49,3.87,1.5,8.05,2.35,12.45,2.35,8.18,0,15.69-2.86,21.61-7.61,2.66,2.17,6.05,3.47,9.75,3.47,8.54,0,15.46-6.92,15.46-15.46,0-7.45-5.26-13.66-12.27-15.13Z"/><path class="f" d="M1738.33,233.2c6.56,0,12.92-2.52,17.73-6.97,3.29,1.07,6.68,1.61,10.11,1.61,6.86,0,13.35-2.05,18.92-5.96,2.54,1.52,5.46,2.35,8.44,2.35,9.03,0,16.38-7.35,16.38-16.38,0-6.93-4.42-13.08-10.79-15.4-1.22-17.11-15.57-30.68-32.95-30.68-13.07,0-24.66,7.52-30.03,19.3-13.36,1.12-23.93,12.42-23.93,26.02,0,14.4,11.72,26.12,26.12,26.12Zm-.21-46.44c1.18-.01,2.24-.74,2.67-1.84,4.11-10.55,14.07-17.37,25.37-17.37,14.94,0,27.17,12.16,27.24,27.11,0,1.36,.97,2.54,2.3,2.82,4.87,1.02,8.4,5.38,8.4,10.36,0,5.84-4.75,10.59-10.59,10.59-2.46,0-4.77-.82-6.68-2.37-1.06-.86-2.58-.87-3.64-.01-4.89,3.93-10.78,6-17.04,6-3.33,0-6.63-.62-9.81-1.85-1.1-.43-2.35-.14-3.16,.73-3.9,4.19-9.18,6.49-14.86,6.49-11.21,0-20.33-9.12-20.33-20.33s9.03-20.21,20.12-20.32Z"/><path class="d" d="M107.82,355.03c-.1-19-15.52-34.38-34.55-34.38-14.66,0-27.16,9.14-32.18,22.03-14.58,.15-26.35,12-26.35,26.61s11.92,26.63,26.63,26.63c7.69,0,14.6-3.28,19.46-8.49,3.87,1.5,8.05,2.35,12.45,2.35,8.18,0,15.69-2.86,21.61-7.61,2.66,2.17,6.05,3.47,9.75,3.47,8.54,0,15.46-6.92,15.46-15.46,0-7.45-5.26-13.66-12.27-15.13Z"/><path class="f" d="M42.03,380.39c6.56,0,12.92-2.52,17.73-6.97,3.29,1.07,6.68,1.61,10.11,1.61,6.86,0,13.35-2.05,18.92-5.96,2.54,1.52,5.46,2.35,8.44,2.35,9.03,0,16.38-7.35,16.38-16.38,0-6.93-4.42-13.08-10.79-15.4-1.22-17.11-15.57-30.68-32.95-30.68-13.07,0-24.66,7.52-30.03,19.3-13.36,1.12-23.93,12.42-23.93,26.02,0,14.4,11.72,26.12,26.12,26.12Zm-.21-46.44c1.18-.01,2.24-.74,2.67-1.84,4.11-10.55,14.07-17.37,25.37-17.37,14.94,0,27.17,12.16,27.24,27.11,0,1.36,.97,2.54,2.3,2.82,4.87,1.02,8.4,5.38,8.4,10.36,0,5.84-4.75,10.59-10.59,10.59-2.46,0-4.77-.82-6.68-2.37-1.06-.86-2.58-.87-3.64-.01-4.89,3.93-10.78,6-17.04,6-3.33,0-6.63-.62-9.81-1.85-1.1-.43-2.35-.14-3.16,.73-3.9,4.19-9.18,6.49-14.86,6.49-11.21,0-20.33-9.12-20.33-20.33s9.03-20.21,20.12-20.32Z"/><path class="d" d="M267.96,213.76c-.1-19-15.52-34.38-34.55-34.38-14.66,0-27.16,9.14-32.18,22.03-14.58,.15-26.35,12-26.35,26.61s11.92,26.63,26.63,26.63c7.69,0,14.6-3.28,19.46-8.49,3.87,1.5,8.05,2.35,12.45,2.35,8.18,0,15.69-2.86,21.61-7.61,2.66,2.17,6.05,3.47,9.75,3.47,8.54,0,15.46-6.92,15.46-15.46,0-7.45-5.26-13.66-12.27-15.13Z"/><path class="f" d="M202.18,239.12c6.56,0,12.92-2.52,17.73-6.97,3.29,1.07,6.68,1.61,10.11,1.61,6.86,0,13.35-2.05,18.92-5.96,2.54,1.52,5.46,2.35,8.44,2.35,9.03,0,16.38-7.35,16.38-16.38,0-6.93-4.42-13.08-10.79-15.4-1.22-17.11-15.57-30.68-32.95-30.68-13.07,0-24.66,7.52-30.03,19.3-13.36,1.12-23.93,12.42-23.93,26.02,0,14.4,11.72,26.12,26.12,26.12Zm-.21-46.44c1.18-.01,2.24-.74,2.67-1.84,4.11-10.55,14.07-17.37,25.37-17.37,14.94,0,27.17,12.16,27.24,27.11,0,1.36,.97,2.54,2.3,2.82,4.87,1.02,8.4,5.38,8.4,10.36,0,5.84-4.75,10.59-10.59,10.59-2.46,0-4.77-.82-6.68-2.37-1.06-.86-2.58-.87-3.64-.01-4.89,3.93-10.78,6-17.04,6-3.33,0-6.63-.62-9.81-1.85-1.1-.43-2.35-.14-3.16,.73-3.9,4.19-9.18,6.49-14.86,6.49-11.21,0-20.33-9.12-20.33-20.33s9.03-20.21,20.12-20.32Z"/><path class="d" d="M2880.25,324.53c-.1-19-15.52-34.38-34.55-34.38-14.66,0-27.16,9.14-32.18,22.03-14.58,.15-26.35,12-26.35,26.61s11.92,26.63,26.63,26.63c7.69,0,14.6-3.28,19.46-8.49,3.87,1.5,8.05,2.35,12.45,2.35,8.18,0,15.69-2.86,21.61-7.61,2.66,2.17,6.05,3.47,9.75,3.47,8.54,0,15.46-6.92,15.46-15.46,0-7.45-5.26-13.66-12.27-15.13Z"/><path class="f" d="M2814.47,349.89c6.56,0,12.92-2.52,17.73-6.97,3.29,1.07,6.68,1.61,10.11,1.61,6.86,0,13.35-2.05,18.92-5.96,2.54,1.52,5.46,2.35,8.44,2.35,9.03,0,16.38-7.35,16.38-16.38,0-6.93-4.42-13.08-10.79-15.4-1.22-17.11-15.57-30.68-32.95-30.68-13.07,0-24.66,7.52-30.03,19.3-13.36,1.12-23.93,12.42-23.93,26.02,0,14.4,11.72,26.12,26.12,26.12Zm-.21-46.44c1.18-.01,2.24-.74,2.67-1.84,4.11-10.55,14.07-17.37,25.37-17.37,14.94,0,27.17,12.16,27.24,27.11,0,1.36,.97,2.54,2.3,2.82,4.87,1.02,8.4,5.38,8.4,10.36,0,5.84-4.75,10.59-10.59,10.59-2.46,0-4.77-.82-6.68-2.37-1.06-.86-2.58-.87-3.64-.01-4.89,3.93-10.78,6-17.04,6-3.33,0-6.63-.62-9.81-1.85-1.1-.43-2.35-.14-3.16,.73-3.9,4.19-9.18,6.49-14.86,6.49-11.21,0-20.33-9.12-20.33-20.33s9.03-20.21,20.12-20.32Z"/><g><path class="f" d="M656.74,132.1h-19.54c-1.07,0-1.93,.86-1.93,1.93s.86,1.93,1.93,1.93h19.54c1.07,0,1.93-.86,1.93-1.93s-.86-1.93-1.93-1.93Z"/><path class="f" d="M617.26,132.1h-72.7c-1.07,0-1.93,.86-1.93,1.93s.86,1.93,1.93,1.93h72.7c1.07,0,1.93-.86,1.93-1.93s-.86-1.93-1.93-1.93Z"/><path class="f" d="M1008.26,0h-19.54c-1.07,0-1.93,.86-1.93,1.93s.86,1.93,1.93,1.93h19.54c1.07,0,1.93-.86,1.93-1.93s-.86-1.93-1.93-1.93Z"/><path class="f" d="M968.79,0h-72.7c-1.07,0-1.93,.86-1.93,1.93s.86,1.93,1.93,1.93h72.7c1.07,0,1.93-.86,1.93-1.93s-.86-1.93-1.93-1.93Z"/><path class="f" d="M1364.87,172.33h-13.77c-1.07,0-1.93,.86-1.93,1.93s.86,1.93,1.93,1.93h13.77c1.07,0,1.93-.86,1.93-1.93s-.86-1.93-1.93-1.93Z"/><path class="f" d="M1337.07,172.33h-51.21c-1.07,0-1.93,.86-1.93,1.93s.86,1.93,1.93,1.93h51.21c1.07,0,1.93-.86,1.93-1.93s-.86-1.93-1.93-1.93Z"/><path class="f" d="M1478.2,30.21h-13.77c-1.07,0-1.93,.86-1.93,1.93s.86,1.93,1.93,1.93h13.77c1.07,0,1.93-.86,1.93-1.93s-.86-1.93-1.93-1.93Z"/><path class="f" d="M1543.45,30.21h-51.21c-1.07,0-1.93,.86-1.93,1.93s.86,1.93,1.93,1.93h51.21c1.07,0,1.93-.86,1.93-1.93s-.86-1.93-1.93-1.93Z"/><path class="f" d="M763.74,203.14h-13.77c-1.07,0-1.93,.86-1.93,1.93s.86,1.93,1.93,1.93h13.77c1.07,0,1.93-.86,1.93-1.93s-.86-1.93-1.93-1.93Z"/><path class="f" d="M828.99,203.14h-51.21c-1.07,0-1.93,.86-1.93,1.93s.86,1.93,1.93,1.93h51.21c1.07,0,1.93-.86,1.93-1.93s-.86-1.93-1.93-1.93Z"/></g><g><path class="f" d="M1848.22,132.1h-19.54c-1.07,0-1.93,.86-1.93,1.93s.86,1.93,1.93,1.93h19.54c1.07,0,1.93-.86,1.93-1.93s-.86-1.93-1.93-1.93Z"/><path class="f" d="M1808.75,132.1h-72.7c-1.07,0-1.93,.86-1.93,1.93s.86,1.93,1.93,1.93h72.7c1.07,0,1.93-.86,1.93-1.93s-.86-1.93-1.93-1.93Z"/><path class="f" d="M2199.74,0h-19.54c-1.07,0-1.93,.86-1.93,1.93s.86,1.93,1.93,1.93h19.54c1.07,0,1.93-.86,1.93-1.93s-.86-1.93-1.93-1.93Z"/><path class="f" d="M2160.27,0h-72.7c-1.07,0-1.93,.86-1.93,1.93s.86,1.93,1.93,1.93h72.7c1.07,0,1.93-.86,1.93-1.93s-.86-1.93-1.93-1.93Z"/><path class="f" d="M2556.36,172.33h-13.77c-1.07,0-1.93,.86-1.93,1.93s.86,1.93,1.93,1.93h13.77c1.07,0,1.93-.86,1.93-1.93s-.86-1.93-1.93-1.93Z"/><path class="f" d="M2528.55,172.33h-51.21c-1.07,0-1.93,.86-1.93,1.93s.86,1.93,1.93,1.93h51.21c1.07,0,1.93-.86,1.93-1.93s-.86-1.93-1.93-1.93Z"/><path class="f" d="M2669.69,30.21h-13.77c-1.07,0-1.93,.86-1.93,1.93s.86,1.93,1.93,1.93h13.77c1.07,0,1.93-.86,1.93-1.93s-.86-1.93-1.93-1.93Z"/><path class="f" d="M2734.94,30.21h-51.21c-1.07,0-1.93,.86-1.93,1.93s.86,1.93,1.93,1.93h51.21c1.07,0,1.93-.86,1.93-1.93s-.86-1.93-1.93-1.93Z"/><path class="f" d="M1955.23,203.14h-13.77c-1.07,0-1.93,.86-1.93,1.93s.86,1.93,1.93,1.93h13.77c1.07,0,1.93-.86,1.93-1.93s-.86-1.93-1.93-1.93Z"/><path class="f" d="M2020.48,203.14h-51.21c-1.07,0-1.93,.86-1.93,1.93s.86,1.93,1.93,1.93h51.21c1.07,0,1.93-.86,1.93-1.93s-.86-1.93-1.93-1.93Z"/></g><circle class="e" cx="1975.33" cy="673.19" r="43.27"/><circle class="e" cx="1903.79" cy="692.44" r="33.66"/><path class="e" d="M2297.83,743.51c.06-.81,.12-1.62,.12-2.44,0-18.77-15.21-33.98-33.98-33.98-12.61,0-23.59,6.89-29.46,17.09-3.8-2.3-8.24-3.64-13-3.64-13.16,0-23.95,10.11-25.07,22.98h101.38Z"/><path class="e" d="M2625.82,725.67l-41.52-80.93c-1.2-2.34-4.55-2.34-5.75,0l-41.52,80.93c-1.1,2.15,.46,4.7,2.87,4.7h83.04c2.41,0,3.98-2.55,2.87-4.7Z"/><path class="e" d="M2206.69,723.75l-41.52-80.93c-1.2-2.34-4.55-2.34-5.75,0l-41.52,80.93c-1.1,2.15,.46,4.7,2.87,4.7h83.04c2.41,0,3.98-2.55,2.87-4.7Z"/><circle class="e" cx="2837.88" cy="694.46" r="33.97"/><g><path class="f" d="M2630.79,338.93h19.68c1.62,0,2.93-1.31,2.93-2.93v-41.06c0-1.62-1.31-2.93-2.93-2.93h-19.68c-1.62,0-2.93,1.31-2.93,2.93v41.06c0,1.62,1.31,2.93,2.93,2.93Zm2.93-41.06h13.81v35.19h-13.81v-35.19Z"/><path class="f" d="M2584.36,362.99h19.68c1.62,0,2.93-1.31,2.93-2.93v-41.06c0-1.62-1.31-2.93-2.93-2.93h-19.68c-1.62,0-2.93,1.31-2.93,2.93v41.06c0,1.62,1.31,2.93,2.93,2.93Zm2.93-41.06h13.81v35.19h-13.81v-35.19Z"/><path class="f" d="M2630.79,563.5h19.68c1.62,0,2.93-1.31,2.93-2.93v-41.06c0-1.62-1.31-2.93-2.93-2.93h-19.68c-1.62,0-2.93,1.31-2.93,2.93v41.06c0,1.62,1.31,2.93,2.93,2.93Zm2.93-41.06h13.81v35.19h-13.81v-35.19Z"/><path class="f" d="M2630.79,691.85h19.68c1.62,0,2.93-1.31,2.93-2.93v-41.06c0-1.62-1.31-2.93-2.93-2.93h-19.68c-1.62,0-2.93,1.31-2.93,2.93v41.06c0,1.62,1.31,2.93,2.93,2.93Zm2.93-41.06h13.81v35.19h-13.81v-35.19Z"/><path class="f" d="M2584.36,584.03h19.68c1.62,0,2.93-1.31,2.93-2.93v-41.06c0-1.62-1.31-2.93-2.93-2.93h-19.68c-1.62,0-2.93,1.31-2.93,2.93v41.06c0,1.62,1.31,2.93,2.93,2.93Zm2.93-41.06h13.81v21.77h-13.81v-21.77Zm0,27.64h13.81v7.55h-13.81v-7.55Z"/><path class="f" d="M2584.36,455.39h19.68c1.62,0,2.93-1.31,2.93-2.93v-41.06c0-1.62-1.31-2.93-2.93-2.93h-19.68c-1.62,0-2.93,1.31-2.93,2.93v41.06c0,1.62,1.31,2.93,2.93,2.93Zm2.93-41.06h13.81v17.16h-13.81v-17.16Zm0,23.03h13.81v12.16h-13.81v-12.16Z"/><path class="f" d="M2303.33,672.05h96.81c1.62,0,2.93-1.31,2.93-2.93s-1.31-2.93-2.93-2.93h-96.81c-1.62,0-2.93,1.31-2.93,2.93s1.31,2.93,2.93,2.93Z"/><path class="f" d="M2303.33,609.46h96.81c1.62,0,2.93-1.31,2.93-2.93s-1.31-2.93-2.93-2.93h-96.81c-1.62,0-2.93,1.31-2.93,2.93s1.31,2.93,2.93,2.93Z"/><path class="f" d="M2303.33,546.88h96.81c1.62,0,2.93-1.31,2.93-2.93s-1.31-2.93-2.93-2.93h-96.81c-1.62,0-2.93,1.31-2.93,2.93s1.31,2.93,2.93,2.93Z"/><path class="f" d="M2303.33,484.3h96.81c1.62,0,2.93-1.31,2.93-2.93s-1.31-2.93-2.93-2.93h-96.81c-1.62,0-2.93,1.31-2.93,2.93s1.31,2.93,2.93,2.93Z"/><path class="f" d="M2303.33,421.72h96.81c1.62,0,2.93-1.31,2.93-2.93s-1.31-2.93-2.93-2.93h-96.81c-1.62,0-2.93,1.31-2.93,2.93s1.31,2.93,2.93,2.93Z"/><path class="f" d="M2303.33,359.14h96.81c1.62,0,2.93-1.31,2.93-2.93s-1.31-2.93-2.93-2.93h-96.81c-1.62,0-2.93,1.31-2.93,2.93s1.31,2.93,2.93,2.93Z"/><path class="f" d="M2260.96,426.28h9.78v15.65h-9.78v-15.65Zm0,48.24h9.78v10.43h-9.78v-10.43Zm0,43.02h9.78v10.43h-9.78v-10.43Zm0,43.02h9.78v10.43h-9.78v-10.43Zm0,43.02h9.78v10.43h-9.78v-10.43Zm0,43.02h9.78v10.43h-9.78v-10.43Z"/><path class="f" d="M2231.62,426.28h9.78v15.65h-9.78v-15.65Zm0,48.24h9.78v10.43h-9.78v-10.43Zm0,43.02h9.78v10.43h-9.78v-10.43Zm0,43.02h9.78v10.43h-9.78v-10.43Zm0,43.02h9.78v10.43h-9.78v-10.43Zm0,43.02h9.78v10.43h-9.78v-10.43Z"/><path class="f" d="M2202.29,426.28h9.78v15.65h-9.78v-15.65Zm0,48.24h9.78v10.43h-9.78v-10.43Zm0,43.02h9.78v10.43h-9.78v-10.43Zm0,43.02h9.78v10.43h-9.78v-10.43Zm0,43.02h9.78v10.43h-9.78v-10.43Zm0,43.02h9.78v10.43h-9.78v-10.43Z"/><path class="f" d="M2172.95,426.28h9.78v15.65h-9.78v-15.65Zm0,48.24h9.78v10.43h-9.78v-10.43Zm0,43.02h9.78v10.43h-9.78v-10.43Zm0,43.02h9.78v10.43h-9.78v-10.43Z"/><path class="f" d="M2093.1,695.61c-1.62,0-2.93,1.31-2.93,2.93v12.06c0,1.62,1.31,2.93,2.93,2.93s2.93-1.31,2.93-2.93v-12.06c0-1.62-1.31-2.93-2.93-2.93Z"/><path class="f" d="M2106.79,668.23c-1.62,0-2.93,1.31-2.93,2.93v12.06c0,1.62,1.31,2.93,2.93,2.93s2.93-1.31,2.93-2.93v-12.06c0-1.62-1.31-2.93-2.93-2.93Z"/><path class="f" d="M2093.1,640.85c-1.62,0-2.93,1.31-2.93,2.93v12.06c0,1.62,1.31,2.93,2.93,2.93s2.93-1.31,2.93-2.93v-12.06c0-1.62-1.31-2.93-2.93-2.93Z"/><path class="f" d="M2134.17,613.48c-1.62,0-2.93,1.31-2.93,2.93v12.06c0,1.62,1.31,2.93,2.93,2.93s2.93-1.31,2.93-2.93v-12.06c0-1.62-1.31-2.93-2.93-2.93Z"/><path class="f" d="M2079.41,586.1c-1.62,0-2.93,1.31-2.93,2.93v12.06c0,1.62,1.31,2.93,2.93,2.93s2.93-1.31,2.93-2.93v-12.06c0-1.62-1.31-2.93-2.93-2.93Z"/><path class="f" d="M2120.48,558.72c-1.62,0-2.93,1.31-2.93,2.93v12.06c0,1.62,1.31,2.93,2.93,2.93s2.93-1.31,2.93-2.93v-12.06c0-1.62-1.31-2.93-2.93-2.93Z"/><path class="f" d="M2093.1,558.72c-1.62,0-2.93,1.31-2.93,2.93v12.06c0,1.62,1.31,2.93,2.93,2.93s2.93-1.31,2.93-2.93v-12.06c0-1.62-1.31-2.93-2.93-2.93Z"/><path class="f" d="M2134.17,531.34c-1.62,0-2.93,1.31-2.93,2.93v12.06c0,1.62,1.31,2.93,2.93,2.93s2.93-1.31,2.93-2.93v-12.06c0-1.62-1.31-2.93-2.93-2.93Z"/><path class="f" d="M2093.1,503.96c-1.62,0-2.93,1.31-2.93,2.93v12.06c0,1.62,1.31,2.93,2.93,2.93s2.93-1.31,2.93-2.93v-12.06c0-1.62-1.31-2.93-2.93-2.93Z"/><path class="f" d="M2106.79,476.58c-1.62,0-2.93,1.31-2.93,2.93v12.06c0,1.62,1.31,2.93,2.93,2.93s2.93-1.31,2.93-2.93v-12.06c0-1.62-1.31-2.93-2.93-2.93Z"/><path class="f" d="M2134.17,449.2c-1.62,0-2.93,1.31-2.93,2.93v12.06c0,1.62,1.31,2.93,2.93,2.93s2.93-1.31,2.93-2.93v-12.06c0-1.62-1.31-2.93-2.93-2.93Z"/><path class="f" d="M2079.41,421.82c-1.62,0-2.93,1.31-2.93,2.93v12.06c0,1.62,1.31,2.93,2.93,2.93s2.93-1.31,2.93-2.93v-12.06c0-1.62-1.31-2.93-2.93-2.93Z"/><path class="f" d="M2134.17,394.44c-1.62,0-2.93,1.31-2.93,2.93v12.06c0,1.62,1.31,2.93,2.93,2.93s2.93-1.31,2.93-2.93v-12.06c0-1.62-1.31-2.93-2.93-2.93Z"/><path class="f" d="M2093.1,367.06c-1.62,0-2.93,1.31-2.93,2.93v12.06c0,1.62,1.31,2.93,2.93,2.93s2.93-1.31,2.93-2.93v-12.06c0-1.62-1.31-2.93-2.93-2.93Z"/><path class="f" d="M2518.46,449.53h-12.32c-1.62,0-2.93,1.31-2.93,2.93v278.42c0,1.62,1.31,2.93,2.93,2.93h12.32c1.62,0,2.93-1.31,2.93-2.93V452.46c0-1.62-1.31-2.93-2.93-2.93Zm-2.93,278.42h-6.45V455.39h6.45v272.55Z"/><path class="f" d="M2469.17,449.53h-12.32c-1.62,0-2.93,1.31-2.93,2.93v278.42c0,1.62,1.31,2.93,2.93,2.93h12.32c1.62,0,2.93-1.31,2.93-2.93V452.46c0-1.62-1.31-2.93-2.93-2.93Zm-2.93,278.42h-6.45V455.39h6.45v272.55Z"/><path class="f" d="M2694.14,584.03h10.25v15.65h-10.25v-15.65Zm0,44.91h10.25v13.76h-10.25v-13.76Zm0,43.02h10.25v13.76h-10.25v-13.76Z"/><path class="f" d="M2725.61,584.03h10.25v15.65h-10.25v-15.65Zm0,44.91h10.25v13.76h-10.25v-13.76Zm0,43.02h10.25v13.76h-10.25v-13.76Z"/><path class="f" d="M2910,741.8h-71.49v-23.29c17.5-1.5,31.29-16.19,31.29-34.08,0-18.87-15.35-34.22-34.22-34.22s-34.22,15.35-34.22,34.22c0,17.88,13.79,32.58,31.29,34.08v23.29h-57.24v-79.69h25.16c1.62,0,2.93-1.31,2.93-2.93s-1.31-2.93-2.93-2.93h-8.58v-116.2c0-1.62-1.31-2.93-2.93-2.93h-112.98V262.33c0-1.62-1.31-2.93-2.93-2.93h-52.93c-1.62,0-2.93,1.31-2.93,2.93v13.36h-45.51v-41.39c0-1.62-1.31-2.93-2.93-2.93s-2.93,1.31-2.93,2.93v41.39h-30.96c-1.62,0-2.93,1.31-2.93,2.93v153.44h-88.01v-153.44c0-1.62-1.31-2.93-2.93-2.93h-98.88v-29.97c0-1.62-1.31-2.93-2.93-2.93s-2.93,1.31-2.93,2.93v29.97h-23.79c-1.62,0-2.93,1.31-2.93,2.93v24.45h-22.37c-1.62,0-2.93,1.31-2.93,2.93v98.82h-127.12v-50.65c0-1.62-1.31-2.93-2.93-2.93h-93.55v-26.33c0-1.62-1.31-2.93-2.93-2.93s-2.93,1.31-2.93,2.93v26.33h-25.75c-1.62,0-2.93,1.31-2.93,2.93v143.09h-58.34c-1.62,0-2.93,1.31-2.93,2.93v58.41h-68.81c-1.62,0-2.93,1.31-2.93,2.93v81.24c0,1.62,1.31,2.93,2.93,2.93s2.93-1.31,2.93-2.93v-78.31h65.88v49.22c0,1.62,1.31,2.93,2.93,2.93s2.93-1.31,2.93-2.93v-110.56h84.09v238.66h-84.09v-29.87c13.14-.88,24.71-7.59,32.12-17.57v35.54c0,1.62,1.31,2.93,2.93,2.93h14.47c1.62,0,2.93-1.31,2.93-2.93v-218.22c0-1.62-1.31-2.93-2.93-2.93h-14.47c-1.62,0-2.93,1.31-2.93,2.93v130.75c-7.96-10.72-20.71-17.68-35.06-17.68-22.5,0-41.07,17.11-43.4,39-6.26-8.21-16.11-13.54-27.21-13.54-18.87,0-34.22,15.35-34.22,34.22,0,17.88,13.79,32.58,31.29,34.08v23.29h-72.63c-1.62,0-2.93,1.31-2.93,2.93s1.31,2.93,2.93,2.93h1088.37c1.62,0,2.93-1.31,2.93-2.93s-1.31-2.93-2.93-2.93Zm-901.28-58.24c1.76-4.73,2.72-9.83,2.72-15.17s-.96-10.44-2.72-15.17v-138.61h8.6v212.35h-8.6v-43.41Zm-111.53-2.06c-1.62,0-2.93,1.31-2.93,2.93v15.65l-12.59-12.59c-1.15-1.15-3-1.15-4.15,0-1.15,1.14-1.15,3,0,4.15l16.74,16.74v4.25c-14.26-1.47-25.42-13.56-25.42-28.2,0-15.64,12.72-28.36,28.36-28.36s28.36,12.72,28.36,28.36c0,14.65-11.16,26.73-25.42,28.2v-7.92l13.07-13.07c1.15-1.14,1.15-3,0-4.15-1.15-1.15-3-1.15-4.15,0l-8.93,8.93v-11.99c0-1.62-1.31-2.93-2.93-2.93Zm67.67,60.3h-64.73v-23.29c15.17-1.3,27.56-12.52,30.58-27.14,7.22,11.61,19.74,19.6,34.15,20.56v29.87Zm2.93-76.34c-1.62,0-2.93,1.31-2.93,2.93v22.5l-17.89-17.89c-1.15-1.15-3-1.15-4.15,0-1.15,1.14-1.15,3,0,4.15l22.04,22.04v6.83c-19.46-1.51-34.85-17.79-34.85-37.63,0-20.83,16.95-37.78,37.78-37.78,15.88,0,29.48,9.86,35.06,23.78,0,0,5.58,14.81,0,28.01-5.23,13.04-17.52,22.5-32.12,23.63v-11.61l17.27-17.27c1.15-1.15,1.15-3,0-4.15-1.15-1.15-3-1.15-4.15,0l-13.12,13.12v-17.73c0-1.62-1.31-2.93-2.93-2.93Zm87.03-168.19h-22.82v-140.16h22.82v140.16Zm99.41,174.38c-1.62,0-2.93,1.31-2.93,2.93v12.7l-6.96-6.96c-1.15-1.15-3-1.15-4.15,0-1.15,1.14-1.15,3,0,4.15l11.11,11.11v22.22h-34.09l37.02-82.23,37.02,82.23h-34.09v-10l11.36-11.36c1.15-1.14,1.15-3,0-4.15-1.15-1.15-3-1.15-4.15,0l-7.22,7.22v-24.93c0-1.62-1.31-2.93-2.93-2.93Zm44.09,70.14c.25-.43,.41-.93,.41-1.47,0-8.81,7.16-15.97,15.97-15.97s15.97,7.16,15.97,15.97c0,.54,.15,1.03,.41,1.47h-32.76Zm37.81,0c.25-.43,.41-.93,.41-1.47,0-12.76,10.38-23.14,23.14-23.14s23.14,10.38,23.14,23.14c0,.54,.15,1.03,.41,1.47h-47.1Zm48.15-296.28v279.53c-5.13-8.22-14.22-13.72-24.6-13.72-11.85,0-22.05,7.15-26.55,17.35-3.88-6.11-10.68-10.18-18.44-10.18-12.04,0-21.84,9.8-21.84,21.84,0,.54,.15,1.03,.41,1.47h-36.1v-18.12h38.57s.04,0,.06,0c.02,0,.05,0,.07,0,1.6-.02,2.9-1.33,2.9-2.93,0-.59-.18-1.15-.48-1.61l-41.38-91.91c-.47-1.05-1.52-1.73-2.67-1.73s-2.2,.68-2.67,1.73l-41.54,92.25c-.1,.2-.17,.42-.22,.65-.04,.2-.07,.41-.07,.61,0,.14,.01,.28,.03,.42,.06,.43,.21,.83,.44,1.18,.23,.35,.53,.65,.89,.88,.29,.18,.61,.32,.95,.39,.23,.05,.47,.07,.68,.07h38.57v18.12h-90.61V357.11h90.61v256.59c0,1.62,1.31,2.93,2.93,2.93s2.93-1.31,2.93-2.93v-203.01h127.12v34.82Zm31.17-163.95h20.86v21.51h-20.86v-21.51Zm97.91,460.24h-123.21V308.94h123.21v432.86Zm24.77-405.8v405.8h-18.91V308.94h18.91v27.05Zm0-32.92h-95.95v-21.51h95.95v21.51Zm130.7,368.58c-1.62,0-2.93,1.31-2.93,2.93v12.7l-6.96-6.96c-1.15-1.15-3-1.15-4.15,0-1.15,1.14-1.15,3,0,4.15l11.11,11.11v22.22h-34.09l37.02-82.23,37.02,82.23h-34.09v-10l11.36-11.36c1.15-1.14,1.15-3,0-4.15-1.15-1.15-3-1.15-4.15,0l-7.22,7.22v-24.93c0-1.62-1.31-2.93-2.93-2.93Zm101.37-381.6v451.75h-98.44v-18.12h38.57s.04,0,.07,0c.02,0,.05,0,.07,0,1.6-.02,2.9-1.33,2.9-2.93,0-.59-.18-1.15-.48-1.61l-41.38-91.91c-.47-1.05-1.52-1.73-2.67-1.73s-2.2,.68-2.67,1.73l-41.54,92.25c-.1,.2-.17,.42-.22,.65-.04,.2-.07,.41-.07,.61,0,.14,.01,.28,.03,.42,.06,.43,.21,.83,.44,1.18,.23,.35,.53,.65,.89,.88,.29,.18,.61,.32,.95,.39,.23,.05,.47,.07,.68,.07h38.57v18.12h-121.9V437.93h88.01v236.66c0,1.62,1.31,2.93,2.93,2.93s2.93-1.31,2.93-2.93V281.56h28.03v328.23c0,1.62,1.31,2.93,2.93,2.93s2.93-1.31,2.93-2.93V281.56h98.44v8.49Zm0-14.35h-47.06v-10.43h47.06v10.43Zm77.75,466.1h-71.89v-177.31h71.89v177.31Zm21.58,0h-15.71v-177.31h15.71v177.31Zm2.93-183.18h-96.4v-15.65h110.05v113.27h-10.72v-94.69c0-1.62-1.31-2.93-2.93-2.93Zm63.11,122.88c-1.62,0-2.93,1.31-2.93,2.93v15.65l-12.59-12.59c-1.15-1.15-3-1.15-4.15,0-1.15,1.14-1.15,3,0,4.15l16.74,16.74v4.26c-14.26-1.47-25.42-13.56-25.42-28.2,0-15.64,12.72-28.36,28.36-28.36s28.36,12.72,28.36,28.36c0,14.65-11.16,26.73-25.42,28.2v-7.92l13.07-13.07c1.15-1.14,1.15-3,0-4.15-1.15-1.15-3-1.15-4.15,0l-8.93,8.93v-11.99c0-1.62-1.31-2.93-2.93-2.93Z"/></g><rect class="f" x="13.45" y="742.22" width="1798.32" height="5.31"/><path class="e" d="M651.13,642.17c-11.33,0-20.54,7.5-20.54,16.72v44.59c0,9.22,9.22,16.72,20.54,16.72s20.54-7.5,20.54-16.72v-44.59c0-9.22-9.22-16.72-20.54-16.72Z"/><path class="f" d="M647.31,717.4c-10.6,0-19.22-8.62-19.22-19.22v-44.59c0-10.6,8.62-19.22,19.22-19.22s19.22,8.62,19.22,19.22v44.59c0,10.6-8.62,19.22-19.22,19.22Zm0-78.03c-7.84,0-14.22,6.38-14.22,14.22v44.59c0,7.84,6.38,14.22,14.22,14.22s14.22-6.38,14.22-14.22v-44.59c0-7.84-6.38-14.22-14.22-14.22Z"/><rect class="f" x="644.66" y="717.08" width="5.31" height="27.79"/><path class="e" d="M89.47,642.17c-11.33,0-20.54,7.5-20.54,16.72v44.59c0,9.22,9.22,16.72,20.54,16.72s20.54-7.5,20.54-16.72v-44.59c0-9.22-9.22-16.72-20.54-16.72Z"/><path class="f" d="M85.65,717.4c-10.6,0-19.22-8.62-19.22-19.22v-44.59c0-10.6,8.62-19.22,19.22-19.22s19.22,8.62,19.22,19.22v44.59c0,10.6-8.62,19.22-19.22,19.22Zm0-78.03c-7.84,0-14.22,6.38-14.22,14.22v44.59c0,7.84,6.38,14.22,14.22,14.22s14.22-6.38,14.22-14.22v-44.59c0-7.84-6.38-14.22-14.22-14.22Z"/><rect class="f" x="82.99" y="717.08" width="5.31" height="27.79"/><path class="e" d="M1731.56,642.17c-11.33,0-20.54,7.5-20.54,16.72v44.59c0,9.22,9.22,16.72,20.54,16.72s20.54-7.5,20.54-16.72v-44.59c0-9.22-9.22-16.72-20.54-16.72Z"/><path class="f" d="M1727.74,717.4c-10.6,0-19.22-8.62-19.22-19.22v-44.59c0-10.6,8.62-19.22,19.22-19.22s19.22,8.62,19.22,19.22v44.59c0,10.6-8.62,19.22-19.22,19.22Zm0-78.03c-7.84,0-14.22,6.38-14.22,14.22v44.59c0,7.84,6.38,14.22,14.22,14.22s14.22-6.38,14.22-14.22v-44.59c0-7.84-6.38-14.22-14.22-14.22Z"/><rect class="f" x="1725.08" y="717.08" width="5.31" height="27.79"/><g><path class="f" d="M136.7,613.51v134.2h84.37v-134.2h-84.37Zm79.06,128.89h-73.75v-123.58h73.75v123.58Z"/><rect class="f" x="154.67" y="635.3" width="16.32" height="5.31"/><rect class="f" x="154.67" y="674.25" width="16.32" height="5.31"/><rect class="f" x="154.67" y="713.19" width="16.32" height="5.31"/></g><g><path class="f" d="M338.78,543.85v-61.01h-10.93v-39.04h-5.31v39.04h-8.42v-10.31h-5.31v10.31h-9.66v35.85h-73.73v25.17h-9.66v203.86h128.86v-203.86h-5.85Zm-34.32-55.7h29.01v55.7h-29.01v-55.7Zm-56.18,35.85h50.87v19.86h-50.87v-19.86Zm-17.54,0h12.23v19.86h-3.46v-9.93h-5.31v9.93h-3.46v-19.86Zm108.58,218.41h-118.24v-193.24h118.24v193.24Z"/><rect class="f" x="239.99" y="566.62" width="53.94" height="5.31"/><rect class="f" x="239.99" y="607.33" width="53.94" height="5.31"/><rect class="f" x="239.99" y="648.05" width="53.94" height="5.31"/><rect class="f" x="239.99" y="688.76" width="53.94" height="5.31"/></g><g><path class="f" d="M464.85,659.52v-82.88h-40.91v-25.93h-55.9v25.93h-11.42v82.88h-17.44v88.19h143.1v-88.19h-17.44Zm-84.94-57.14h28.07v57.14h-28.07v-57.14Zm33.7,0h27.65v57.14h-27.65v-57.14Zm32.96,0h12.96v57.14h-12.96v-57.14Zm-73.22-46.35h45.28v20.62h-45.28v-20.62Zm-5.31,25.93h91.5v15.11h-97.61v-15.11h6.11Zm-6.11,20.42h12.77v57.14h-12.77v-57.14Zm115.04,140.02h-132.48v-77.57h132.48v77.57Z"/><rect class="f" x="362.46" y="695.4" width="96.68" height="5.31"/><rect class="f" x="362.46" y="711.68" width="96.68" height="5.31"/></g><g><path class="f" d="M600.12,476.22v-61.27h-17.03v-26.95h-89.2v26.95h-17.03v332.75h142.59V476.22h-19.32Zm-100.93-82.91h78.58v21.64h-78.58v-21.64Zm-17.03,349.08V420.27h112.65v55.96h-36.1v266.17h-76.55Zm101.08,0v-240.92h11.68v240.92h-11.68Zm30.9,0h-13.9v-246.23h-22.3v246.23h-13.9V481.53h50.11v260.86Z"/><rect class="f" x="495.08" y="440.76" width="5.31" height="289.6"/><rect class="f" x="527.01" y="441.11" width="5.31" height="289.6"/><rect class="f" x="558.94" y="441.47" width="5.31" height="27.77"/></g><g><path class="f" d="M701.18,302.51v85.32h-23.42v359.7h113.79l-10.62-61.46h4.94v-5.31h-5.86l-3.43-19.83h9.29v-5.31h-10.21l-3.43-19.83h13.63v-5.31h-14.55l-3.43-19.83h17.98v-5.31h-18.9l-3.43-19.83h22.32v-5.31h-23.24l-3.43-19.83h26.67v-5.31h-27.58l-3.43-19.83h31.01v-5.31h-31.93l-3.43-19.83h35.36v-5.31h-36.27l-20.22-116.97h-22.9v-80.01h94.48v437.06h5.31V302.51h-105.1Zm84.06,439.71h-102.17V393.14h41.84l60.33,349.08Z"/><rect class="f" x="696.42" y="438.68" width="21.56" height="5.31"/><rect class="f" x="696.42" y="486.12" width="35.15" height="5.31"/><rect class="f" x="696.42" y="533.56" width="41.17" height="5.31"/><rect class="f" x="696.42" y="581" width="51.08" height="5.31"/><rect class="f" x="696.42" y="628.44" width="63.47" height="5.31"/><rect class="f" x="696.42" y="675.88" width="66.66" height="5.31"/><rect class="f" x="696.42" y="723.32" width="70.91" height="5.31"/><rect class="f" x="748.21" y="353.98" width="37.66" height="5.31"/><rect class="f" x="748.21" y="404.25" width="37.66" height="5.31"/><rect class="f" x="748.21" y="454.53" width="37.66" height="5.31"/><rect class="f" x="748.21" y="479.66" width="37.66" height="5.31"/><rect class="f" x="722.19" y="353.98" width="14.66" height="5.31"/></g><g><path class="f" d="M800.96,600.96v146.57h126.39v-146.57h-126.39Zm121.08,141.26h-115.77v-135.95h115.77v135.95Z"/><path class="f" d="M900.8,637.78h-77.53v-3.89h77.53v3.89Z"/><path class="f" d="M900.8,677.43h-77.53v-3.89h77.53v3.89Z"/><path class="f" d="M900.8,717.08h-77.53v-3.89h77.53v3.89Z"/></g><g><path class="f" d="M1023.56,353.84l-25.58-42.69v-47.71h-5.31v47.71l-25.58,42.69h-45.05v393.69h146.57V353.84h-45.05Zm-67.89,388.38v-206.57h-5.31v206.57h-10.65v-86.42h-5.31v86.42h-7.05V359.15h38.59v383.07h-10.27Zm15.58,0V357.23l24.07-40.18,24.07,40.18v384.99h-48.15Zm92.05,0h-8.14V438.2h-5.31v304.02h-10.65v-138.6h-5.31v138.6h-9.17V359.15h38.59v383.07Z"/><rect class="f" x="981.97" y="433.64" width="25.15" height="5.31"/><rect class="f" x="981.97" y="529.23" width="25.15" height="5.31"/><rect class="f" x="981.97" y="624.82" width="25.15" height="5.31"/><rect class="f" x="981.97" y="720.41" width="25.15" height="5.31"/></g><g><path class="f" d="M1187.21,387.83v-21.95h-61.6v21.95h-18.76v40.36h-43.55v319.34h143.03V387.83h-19.12Zm-56.29-16.64h50.98v16.64h-50.98v-16.64Zm-24.07,371.03h-38.24V433.5h38.24v308.72Zm94.17,0h-88.86V393.14h88.86v349.08Z"/><rect class="f" x="1085.07" y="452.96" width="5.31" height="274.03"/><rect class="f" x="1140.11" y="447.31" width="52.42" height="5.31"/><rect class="f" x="1120.79" y="447.31" width="13.4" height="5.31"/><rect class="f" x="1140.11" y="501.83" width="52.42" height="5.31"/><rect class="f" x="1120.79" y="501.83" width="13.4" height="5.31"/><rect class="f" x="1140.11" y="556.35" width="52.42" height="5.31"/><rect class="f" x="1120.79" y="556.35" width="13.4" height="5.31"/><rect class="f" x="1140.11" y="610.87" width="52.42" height="5.31"/><rect class="f" x="1120.79" y="610.87" width="13.4" height="5.31"/><rect class="f" x="1140.11" y="665.39" width="52.42" height="5.31"/><rect class="f" x="1120.79" y="665.39" width="13.4" height="5.31"/><rect class="f" x="1140.11" y="719.92" width="52.42" height="5.31"/><rect class="f" x="1120.79" y="719.92" width="13.4" height="5.31"/></g><g><path class="f" d="M1404.41,239.49c-30.94,0-56.11,25.17-56.11,56.11v179.32h-80.01v272.61h192.24V295.61c0-30.94-25.17-56.11-56.11-56.11Zm-130.82,502.73V480.23h74.11l.59,.94v15.35h-12.89v14.16h12.89v6.82h0v5.31h0v12.3h-12.89v14.16h12.89v6.82h0v5.31h0v12.3h-12.89v14.16h12.89v6.82h0v5.31h0v12.3h-12.89v14.16h12.89v6.82h0v5.31h0v12.3h-12.89v14.16h12.89v6.82h0v5.31h0v12.3h-12.89v14.16h12.89v6.82h0v5.31h0v26.46h-74.7Zm74.7-236.85h-7.58v-3.54h7.58v3.54Zm0,38.59h-7.58v-3.54h7.58v3.54Zm0,38.59h-7.58v-3.54h7.58v3.54Zm0,38.59h-7.58v-3.54h7.58v3.54Zm0,38.59h-7.58v-3.54h7.58v3.54Zm0,38.59h-7.58v-3.54h7.58v3.54Zm81.6,43.9h-50.98V288.88h50.98v453.34Zm5.31,0V283.57h-61.6v458.65h-20V295.61c0-28.01,22.79-50.8,50.8-50.8s50.8,22.79,50.8,50.8v446.61h-20Z"/><rect class="f" x="1406.54" y="315.61" width="12.37" height="5.31"/><rect class="f" x="1387.42" y="334.37" width="12.37" height="5.31"/><rect class="f" x="1406.54" y="353.14" width="12.37" height="5.31"/><rect class="f" x="1387.42" y="390.66" width="12.37" height="5.31"/><rect class="f" x="1406.54" y="409.43" width="12.37" height="5.31"/><rect class="f" x="1387.42" y="446.95" width="12.37" height="5.31"/><rect class="f" x="1406.54" y="465.72" width="12.37" height="5.31"/><rect class="f" x="1387.42" y="503.25" width="12.37" height="5.31"/><rect class="f" x="1387.42" y="540.77" width="12.37" height="5.31"/><rect class="f" x="1406.54" y="559.54" width="12.37" height="5.31"/><rect class="f" x="1387.42" y="578.3" width="12.37" height="5.31"/><rect class="f" x="1387.42" y="615.83" width="12.37" height="5.31"/><rect class="f" x="1406.54" y="634.59" width="12.37" height="5.31"/><rect class="f" x="1387.42" y="672.12" width="12.37" height="5.31"/><rect class="f" x="1406.54" y="690.88" width="12.37" height="5.31"/><rect class="f" x="1387.42" y="709.65" width="12.37" height="5.31"/></g><g><path class="f" d="M1543.73,352.43v212.98l-26.86-51.19-.75-1.42h-60.91v234.72h184.06l-90.25-172v-217.8h134.18v53.98h-42.84v333.16h5.31V417.03h37.53v327.85h5.31V352.43h-144.8Zm-68.33,389.79v-201.8h21.6v201.8h-21.6Zm-5.31-207.11v207.11h-9.56v-224.1h51.34v224.1h-9.56v-207.11h-32.22Zm47.09,207.11v-5h0v-5.31h0v-18.41h0v-5.31h0v-18.41h0v-5.31h0v-18.41h0v-5.31h0v-42.13h0v-5.31h0v-18.41h0v-5.31h0v-63.35l20.82,39.67h-12.5v5.31h15.28l34.53,65.81h-45.39v5.31h48.17l9.66,18.41h-22.37v5.31h25.16l9.66,18.41h-12.58v5.31h15.37l9.66,18.41h-63.43v5.31h66.22l15.07,28.72h-113.32Z"/><path class="f" d="M1621.61,402.35h-9.2v-15.58h9.2v15.58Z"/><path class="f" d="M1584.79,442.71h-9.2v-15.58h9.2v15.58Z"/><path class="f" d="M1621.61,483.07h-9.2v-15.58h9.2v15.58Z"/><path class="f" d="M1575.59,548.21h9.2v15.58h-9.2v-15.58Z"/><path class="f" d="M1612.41,633.53h9.2v15.58h-9.2v-15.58Z"/></g><g><rect class="f" x="1255.21" y="57.74" width="15.07" height="5.31"/><rect class="f" x="1260.37" y="65.2" width="16.22" height="5.31"/><path class="f" d="M1241.51,81.13h23.89c7.72,0,14.98-3.01,20.45-8.47,3.65-3.65,6.22-8.13,7.51-13.06h8.77c4.08,0,7.39-3.32,7.39-7.39s-3.32-7.39-7.39-7.39h-8.78c-.9-3.41-2.38-6.55-4.34-9.32l4.42-6.22c1.24-1.75,1.9-3.8,1.9-5.94,0-3.32-1.61-6.44-4.32-8.37-4.61-3.28-11.03-2.19-14.31,2.42l-4.74,6.66c-2.12-.49-4.32-.75-6.57-.75h-62.28c-7.72,0-14.98,3.01-20.45,8.47-5.46,5.46-8.47,12.72-8.47,20.45,0,15.94,12.97,28.91,28.91,28.91h6.39v.36c0,8.82,7.18,16,16,16s16-7.18,16-16v-.36Zm62.71-28.91c0,1.15-.93,2.08-2.08,2.08h-20.95c-1.15,0-2.08-.93-2.08-2.08s.93-2.08,2.08-2.08h20.95c1.15,0,2.08,.93,2.08,2.08Zm-23.18-31.74c1.58-2.22,4.68-2.75,6.9-1.17,1.3,.93,2.08,2.44,2.08,4.04,0,1.03-.32,2.02-.92,2.86l-3.66,5.15c-2.39-2.29-5.17-4.17-8.21-5.54l3.81-5.35Zm-101.52,31.74c0-6.3,2.46-12.23,6.91-16.69,4.46-4.46,10.39-6.91,16.69-6.91h62.28c10.32,0,19.29,6.65,22.42,16.21h-6.64c-3.14,0-5.82,1.97-6.89,4.74h-37.74v5.31h37.74c1.07,2.77,3.75,4.74,6.89,4.74h6.64c-1.14,3.49-3.09,6.66-5.73,9.3-4.46,4.46-10.39,6.91-16.69,6.91h-62.28c-13.02,0-23.6-10.59-23.6-23.6Zm45.99,39.96c-5.89,0-10.69-4.8-10.69-10.69v-.36h21.38v.36c0,.31-.02,.62-.04,.93h-7.92v5.31h5.94c-1.94,2.69-5.1,4.45-8.67,4.45Z"/><rect class="f" x="1217.9" y="82.42" width="7.61" height="5.31"/><rect class="f" x="1215.69" y="49.56" width="14.2" height="5.31"/><rect class="f" x="1255.21" y="87.6" width="55.77" height="5.31"/><rect class="f" x="1238.57" y="102.82" width="55.77" height="5.31"/><rect class="f" x="1319.96" y="87.6" width="18.73" height="5.31"/></g><line class="g" x1="2.5" y1="866.95" x2="140.76" y2="866.95"/><line class="g" x1="311.39" y1="866.95" x2="449.64" y2="866.95"/><line class="g" x1="620.27" y1="866.95" x2="758.53" y2="866.95"/><line class="g" x1="929.16" y1="866.95" x2="1067.42" y2="866.95"/><line class="g" x1="1238.05" y1="866.95" x2="1376.3" y2="866.95"/><line class="g" x1="1548.71" y1="866.95" x2="1686.96" y2="866.95"/><line class="g" x1="1857.59" y1="866.95" x2="1995.85" y2="866.95"/><line class="g" x1="2166.48" y1="866.95" x2="2304.74" y2="866.95"/><line class="g" x1="2475.37" y1="866.95" x2="2613.62" y2="866.95"/><line class="g" x1="2784.26" y1="866.95" x2="2922.51" y2="866.95"/><line class="g" x1="13.45" y1="1004.59" x2="2912.93" y2="1004.59"/><g><rect class="f" x="482.16" y="778.5" width="107.02" height="19.95"/><rect class="f" x="482.16" y="820.4" width="107.02" height="19.95"/><rect class="f" x="482.16" y="862.3" width="107.02" height="19.95"/><rect class="f" x="482.16" y="904.2" width="107.02" height="19.95"/><rect class="f" x="482.16" y="946.1" width="107.02" height="19.95"/></g><g><rect class="f" x="2336.64" y="778.5" width="107.02" height="19.95"/><rect class="f" x="2336.64" y="820.4" width="107.02" height="19.95"/><rect class="f" x="2336.64" y="862.3" width="107.02" height="19.95"/><rect class="f" x="2336.64" y="904.2" width="107.02" height="19.95"/><rect class="f" x="2336.64" y="946.1" width="107.02" height="19.95"/></g></g><g><path class="d" d="M4694.14,207.84c-.1-19-15.52-34.38-34.55-34.38-14.66,0-27.16,9.14-32.18,22.03-14.58,.15-26.35,12-26.35,26.61s11.92,26.63,26.63,26.63c7.69,0,14.6-3.28,19.46-8.49,3.87,1.5,8.05,2.35,12.45,2.35,8.18,0,15.69-2.86,21.61-7.61,2.66,2.17,6.05,3.47,9.75,3.47,8.54,0,15.46-6.92,15.46-15.46,0-7.45-5.26-13.66-12.27-15.13Z"/><path class="f" d="M4628.36,233.2c6.56,0,12.92-2.52,17.73-6.97,3.29,1.07,6.68,1.61,10.11,1.61,6.86,0,13.35-2.05,18.92-5.96,2.54,1.52,5.46,2.35,8.44,2.35,9.03,0,16.38-7.35,16.38-16.38,0-6.93-4.42-13.08-10.79-15.4-1.22-17.11-15.57-30.68-32.95-30.68-13.07,0-24.66,7.52-30.03,19.3-13.36,1.12-23.93,12.42-23.93,26.02,0,14.4,11.72,26.12,26.12,26.12Zm-.21-46.44c1.18-.01,2.24-.74,2.67-1.84,4.11-10.55,14.07-17.37,25.37-17.37,14.94,0,27.17,12.16,27.24,27.11,0,1.36,.97,2.54,2.3,2.82,4.87,1.02,8.4,5.38,8.4,10.36,0,5.84-4.75,10.59-10.59,10.59-2.46,0-4.77-.82-6.68-2.37-1.06-.86-2.58-.87-3.64-.01-4.89,3.93-10.78,6-17.04,6-3.33,0-6.63-.62-9.81-1.85-1.1-.43-2.35-.14-3.16,.73-3.9,4.19-9.18,6.49-14.86,6.49-11.21,0-20.33-9.12-20.33-20.33s9.03-20.21,20.12-20.32Z"/><path class="d" d="M3157.99,213.76c-.1-19-15.52-34.38-34.55-34.38-14.66,0-27.16,9.14-32.18,22.03-14.58,.15-26.35,12-26.35,26.61s11.92,26.63,26.63,26.63c7.69,0,14.6-3.28,19.46-8.49,3.87,1.5,8.05,2.35,12.45,2.35,8.18,0,15.69-2.86,21.61-7.61,2.66,2.17,6.05,3.47,9.75,3.47,8.54,0,15.46-6.92,15.46-15.46,0-7.45-5.26-13.66-12.27-15.13Z"/><path class="f" d="M3092.2,239.12c6.56,0,12.92-2.52,17.73-6.97,3.29,1.07,6.68,1.61,10.11,1.61,6.86,0,13.35-2.05,18.92-5.96,2.54,1.52,5.46,2.35,8.44,2.35,9.03,0,16.38-7.35,16.38-16.38,0-6.93-4.42-13.08-10.79-15.4-1.22-17.11-15.57-30.68-32.95-30.68-13.07,0-24.66,7.52-30.03,19.3-13.36,1.12-23.93,12.42-23.93,26.02,0,14.4,11.72,26.12,26.12,26.12Zm-.21-46.44c1.18-.01,2.24-.74,2.67-1.84,4.11-10.55,14.07-17.37,25.37-17.37,14.94,0,27.17,12.16,27.24,27.11,0,1.36,.97,2.54,2.3,2.82,4.87,1.02,8.4,5.38,8.4,10.36,0,5.84-4.75,10.59-10.59,10.59-2.46,0-4.77-.82-6.68-2.37-1.06-.86-2.58-.87-3.64-.01-4.89,3.93-10.78,6-17.04,6-3.33,0-6.63-.62-9.81-1.85-1.1-.43-2.35-.14-3.16,.73-3.9,4.19-9.18,6.49-14.86,6.49-11.21,0-20.33-9.12-20.33-20.33s9.03-20.21,20.12-20.32Z"/><path class="d" d="M5770.28,324.53c-.1-19-15.52-34.38-34.55-34.38-14.66,0-27.16,9.14-32.18,22.03-14.58,.15-26.35,12-26.35,26.61s11.92,26.63,26.63,26.63c7.69,0,14.6-3.28,19.46-8.49,3.87,1.5,8.05,2.35,12.45,2.35,8.18,0,15.69-2.86,21.61-7.61,2.66,2.17,6.05,3.47,9.75,3.47,8.54,0,15.46-6.92,15.46-15.46,0-7.45-5.26-13.66-12.27-15.13Z"/><path class="f" d="M5704.5,349.89c6.56,0,12.92-2.52,17.73-6.97,3.29,1.07,6.68,1.61,10.11,1.61,6.86,0,13.35-2.05,18.92-5.96,2.54,1.52,5.46,2.35,8.44,2.35,9.03,0,16.38-7.35,16.38-16.38,0-6.93-4.42-13.08-10.79-15.4-1.22-17.11-15.57-30.68-32.95-30.68-13.07,0-24.66,7.52-30.03,19.3-13.36,1.12-23.93,12.42-23.93,26.02,0,14.4,11.72,26.12,26.12,26.12Zm-.21-46.44c1.18-.01,2.24-.74,2.67-1.84,4.11-10.55,14.07-17.37,25.37-17.37,14.94,0,27.17,12.16,27.24,27.11,0,1.36,.97,2.54,2.3,2.82,4.87,1.02,8.4,5.38,8.4,10.36,0,5.84-4.75,10.59-10.59,10.59-2.46,0-4.77-.82-6.68-2.37-1.06-.86-2.58-.87-3.64-.01-4.89,3.93-10.78,6-17.04,6-3.33,0-6.63-.62-9.81-1.85-1.1-.43-2.35-.14-3.16,.73-3.9,4.19-9.18,6.49-14.86,6.49-11.21,0-20.33-9.12-20.33-20.33s9.03-20.21,20.12-20.32Z"/><g><path class="f" d="M3546.76,132.1h-19.54c-1.07,0-1.93,.86-1.93,1.93s.86,1.93,1.93,1.93h19.54c1.07,0,1.93-.86,1.93-1.93s-.86-1.93-1.93-1.93Z"/><path class="f" d="M3507.29,132.1h-72.7c-1.07,0-1.93,.86-1.93,1.93s.86,1.93,1.93,1.93h72.7c1.07,0,1.93-.86,1.93-1.93s-.86-1.93-1.93-1.93Z"/><path class="f" d="M3898.29,0h-19.54c-1.07,0-1.93,.86-1.93,1.93s.86,1.93,1.93,1.93h19.54c1.07,0,1.93-.86,1.93-1.93s-.86-1.93-1.93-1.93Z"/><path class="f" d="M3858.81,0h-72.7c-1.07,0-1.93,.86-1.93,1.93s.86,1.93,1.93,1.93h72.7c1.07,0,1.93-.86,1.93-1.93s-.86-1.93-1.93-1.93Z"/><path class="f" d="M4254.9,172.33h-13.77c-1.07,0-1.93,.86-1.93,1.93s.86,1.93,1.93,1.93h13.77c1.07,0,1.93-.86,1.93-1.93s-.86-1.93-1.93-1.93Z"/><path class="f" d="M4227.1,172.33h-51.21c-1.07,0-1.93,.86-1.93,1.93s.86,1.93,1.93,1.93h51.21c1.07,0,1.93-.86,1.93-1.93s-.86-1.93-1.93-1.93Z"/><path class="f" d="M4368.23,30.21h-13.77c-1.07,0-1.93,.86-1.93,1.93s.86,1.93,1.93,1.93h13.77c1.07,0,1.93-.86,1.93-1.93s-.86-1.93-1.93-1.93Z"/><path class="f" d="M4433.48,30.21h-51.21c-1.07,0-1.93,.86-1.93,1.93s.86,1.93,1.93,1.93h51.21c1.07,0,1.93-.86,1.93-1.93s-.86-1.93-1.93-1.93Z"/><path class="f" d="M3653.77,203.14h-13.77c-1.07,0-1.93,.86-1.93,1.93s.86,1.93,1.93,1.93h13.77c1.07,0,1.93-.86,1.93-1.93s-.86-1.93-1.93-1.93Z"/><path class="f" d="M3719.02,203.14h-51.21c-1.07,0-1.93,.86-1.93,1.93s.86,1.93,1.93,1.93h51.21c1.07,0,1.93-.86,1.93-1.93s-.86-1.93-1.93-1.93Z"/></g><g><path class="f" d="M4738.25,132.1h-19.54c-1.07,0-1.93,.86-1.93,1.93s.86,1.93,1.93,1.93h19.54c1.07,0,1.93-.86,1.93-1.93s-.86-1.93-1.93-1.93Z"/><path class="f" d="M4698.78,132.1h-72.7c-1.07,0-1.93,.86-1.93,1.93s.86,1.93,1.93,1.93h72.7c1.07,0,1.93-.86,1.93-1.93s-.86-1.93-1.93-1.93Z"/><path class="f" d="M5089.77,0h-19.54c-1.07,0-1.93,.86-1.93,1.93s.86,1.93,1.93,1.93h19.54c1.07,0,1.93-.86,1.93-1.93s-.86-1.93-1.93-1.93Z"/><path class="f" d="M5050.3,0h-72.7c-1.07,0-1.93,.86-1.93,1.93s.86,1.93,1.93,1.93h72.7c1.07,0,1.93-.86,1.93-1.93s-.86-1.93-1.93-1.93Z"/><path class="f" d="M5446.38,172.33h-13.77c-1.07,0-1.93,.86-1.93,1.93s.86,1.93,1.93,1.93h13.77c1.07,0,1.93-.86,1.93-1.93s-.86-1.93-1.93-1.93Z"/><path class="f" d="M5418.58,172.33h-51.21c-1.07,0-1.93,.86-1.93,1.93s.86,1.93,1.93,1.93h51.21c1.07,0,1.93-.86,1.93-1.93s-.86-1.93-1.93-1.93Z"/><path class="f" d="M5559.71,30.21h-13.77c-1.07,0-1.93,.86-1.93,1.93s.86,1.93,1.93,1.93h13.77c1.07,0,1.93-.86,1.93-1.93s-.86-1.93-1.93-1.93Z"/><path class="f" d="M5624.97,30.21h-51.21c-1.07,0-1.93,.86-1.93,1.93s.86,1.93,1.93,1.93h51.21c1.07,0,1.93-.86,1.93-1.93s-.86-1.93-1.93-1.93Z"/><path class="f" d="M4845.26,203.14h-13.77c-1.07,0-1.93,.86-1.93,1.93s.86,1.93,1.93,1.93h13.77c1.07,0,1.93-.86,1.93-1.93s-.86-1.93-1.93-1.93Z"/><path class="f" d="M4910.51,203.14h-51.21c-1.07,0-1.93,.86-1.93,1.93s.86,1.93,1.93,1.93h51.21c1.07,0,1.93-.86,1.93-1.93s-.86-1.93-1.93-1.93Z"/></g><circle class="e" cx="4865.36" cy="673.19" r="43.27"/><circle class="e" cx="4793.82" cy="692.44" r="33.66"/><path class="e" d="M5187.86,743.51c.06-.81,.12-1.62,.12-2.44,0-18.77-15.21-33.98-33.98-33.98-12.61,0-23.59,6.89-29.46,17.09-3.8-2.3-8.24-3.64-13-3.64-13.16,0-23.95,10.11-25.07,22.98h101.38Z"/><path class="e" d="M5515.85,725.67l-41.52-80.93c-1.2-2.34-4.55-2.34-5.75,0l-41.52,80.93c-1.1,2.15,.46,4.7,2.87,4.7h83.04c2.41,0,3.98-2.55,2.87-4.7Z"/><path class="e" d="M5096.72,723.75l-41.52-80.93c-1.2-2.34-4.55-2.34-5.75,0l-41.52,80.93c-1.1,2.15,.46,4.7,2.87,4.7h83.04c2.41,0,3.98-2.55,2.87-4.7Z"/><circle class="e" cx="5727.91" cy="694.46" r="33.97"/><g><path class="f" d="M5520.81,338.93h19.68c1.62,0,2.93-1.31,2.93-2.93v-41.06c0-1.62-1.31-2.93-2.93-2.93h-19.68c-1.62,0-2.93,1.31-2.93,2.93v41.06c0,1.62,1.31,2.93,2.93,2.93Zm2.93-41.06h13.81v35.19h-13.81v-35.19Z"/><path class="f" d="M5474.39,362.99h19.68c1.62,0,2.93-1.31,2.93-2.93v-41.06c0-1.62-1.31-2.93-2.93-2.93h-19.68c-1.62,0-2.93,1.31-2.93,2.93v41.06c0,1.62,1.31,2.93,2.93,2.93Zm2.93-41.06h13.81v35.19h-13.81v-35.19Z"/><path class="f" d="M5520.81,563.5h19.68c1.62,0,2.93-1.31,2.93-2.93v-41.06c0-1.62-1.31-2.93-2.93-2.93h-19.68c-1.62,0-2.93,1.31-2.93,2.93v41.06c0,1.62,1.31,2.93,2.93,2.93Zm2.93-41.06h13.81v35.19h-13.81v-35.19Z"/><path class="f" d="M5520.81,691.85h19.68c1.62,0,2.93-1.31,2.93-2.93v-41.06c0-1.62-1.31-2.93-2.93-2.93h-19.68c-1.62,0-2.93,1.31-2.93,2.93v41.06c0,1.62,1.31,2.93,2.93,2.93Zm2.93-41.06h13.81v35.19h-13.81v-35.19Z"/><path class="f" d="M5474.39,584.03h19.68c1.62,0,2.93-1.31,2.93-2.93v-41.06c0-1.62-1.31-2.93-2.93-2.93h-19.68c-1.62,0-2.93,1.31-2.93,2.93v41.06c0,1.62,1.31,2.93,2.93,2.93Zm2.93-41.06h13.81v21.77h-13.81v-21.77Zm0,27.64h13.81v7.55h-13.81v-7.55Z"/><path class="f" d="M5474.39,455.39h19.68c1.62,0,2.93-1.31,2.93-2.93v-41.06c0-1.62-1.31-2.93-2.93-2.93h-19.68c-1.62,0-2.93,1.31-2.93,2.93v41.06c0,1.62,1.31,2.93,2.93,2.93Zm2.93-41.06h13.81v17.16h-13.81v-17.16Zm0,23.03h13.81v12.16h-13.81v-12.16Z"/><path class="f" d="M5193.36,672.05h96.81c1.62,0,2.93-1.31,2.93-2.93s-1.31-2.93-2.93-2.93h-96.81c-1.62,0-2.93,1.31-2.93,2.93s1.31,2.93,2.93,2.93Z"/><path class="f" d="M5193.36,609.46h96.81c1.62,0,2.93-1.31,2.93-2.93s-1.31-2.93-2.93-2.93h-96.81c-1.62,0-2.93,1.31-2.93,2.93s1.31,2.93,2.93,2.93Z"/><path class="f" d="M5193.36,546.88h96.81c1.62,0,2.93-1.31,2.93-2.93s-1.31-2.93-2.93-2.93h-96.81c-1.62,0-2.93,1.31-2.93,2.93s1.31,2.93,2.93,2.93Z"/><path class="f" d="M5193.36,484.3h96.81c1.62,0,2.93-1.31,2.93-2.93s-1.31-2.93-2.93-2.93h-96.81c-1.62,0-2.93,1.31-2.93,2.93s1.31,2.93,2.93,2.93Z"/><path class="f" d="M5193.36,421.72h96.81c1.62,0,2.93-1.31,2.93-2.93s-1.31-2.93-2.93-2.93h-96.81c-1.62,0-2.93,1.31-2.93,2.93s1.31,2.93,2.93,2.93Z"/><path class="f" d="M5193.36,359.14h96.81c1.62,0,2.93-1.31,2.93-2.93s-1.31-2.93-2.93-2.93h-96.81c-1.62,0-2.93,1.31-2.93,2.93s1.31,2.93,2.93,2.93Z"/><path class="f" d="M5150.99,426.28h9.78v15.65h-9.78v-15.65Zm0,48.24h9.78v10.43h-9.78v-10.43Zm0,43.02h9.78v10.43h-9.78v-10.43Zm0,43.02h9.78v10.43h-9.78v-10.43Zm0,43.02h9.78v10.43h-9.78v-10.43Zm0,43.02h9.78v10.43h-9.78v-10.43Z"/><path class="f" d="M5121.65,426.28h9.78v15.65h-9.78v-15.65Zm0,48.24h9.78v10.43h-9.78v-10.43Zm0,43.02h9.78v10.43h-9.78v-10.43Zm0,43.02h9.78v10.43h-9.78v-10.43Zm0,43.02h9.78v10.43h-9.78v-10.43Zm0,43.02h9.78v10.43h-9.78v-10.43Z"/><path class="f" d="M5092.32,426.28h9.78v15.65h-9.78v-15.65Zm0,48.24h9.78v10.43h-9.78v-10.43Zm0,43.02h9.78v10.43h-9.78v-10.43Zm0,43.02h9.78v10.43h-9.78v-10.43Zm0,43.02h9.78v10.43h-9.78v-10.43Zm0,43.02h9.78v10.43h-9.78v-10.43Z"/><path class="f" d="M5062.98,426.28h9.78v15.65h-9.78v-15.65Zm0,48.24h9.78v10.43h-9.78v-10.43Zm0,43.02h9.78v10.43h-9.78v-10.43Zm0,43.02h9.78v10.43h-9.78v-10.43Z"/><path class="f" d="M4983.13,695.61c-1.62,0-2.93,1.31-2.93,2.93v12.06c0,1.62,1.31,2.93,2.93,2.93s2.93-1.31,2.93-2.93v-12.06c0-1.62-1.31-2.93-2.93-2.93Z"/><path class="f" d="M4996.82,668.23c-1.62,0-2.93,1.31-2.93,2.93v12.06c0,1.62,1.31,2.93,2.93,2.93s2.93-1.31,2.93-2.93v-12.06c0-1.62-1.31-2.93-2.93-2.93Z"/><path class="f" d="M4983.13,640.85c-1.62,0-2.93,1.31-2.93,2.93v12.06c0,1.62,1.31,2.93,2.93,2.93s2.93-1.31,2.93-2.93v-12.06c0-1.62-1.31-2.93-2.93-2.93Z"/><path class="f" d="M5024.2,613.48c-1.62,0-2.93,1.31-2.93,2.93v12.06c0,1.62,1.31,2.93,2.93,2.93s2.93-1.31,2.93-2.93v-12.06c0-1.62-1.31-2.93-2.93-2.93Z"/><path class="f" d="M4969.44,586.1c-1.62,0-2.93,1.31-2.93,2.93v12.06c0,1.62,1.31,2.93,2.93,2.93s2.93-1.31,2.93-2.93v-12.06c0-1.62-1.31-2.93-2.93-2.93Z"/><path class="f" d="M5010.51,558.72c-1.62,0-2.93,1.31-2.93,2.93v12.06c0,1.62,1.31,2.93,2.93,2.93s2.93-1.31,2.93-2.93v-12.06c0-1.62-1.31-2.93-2.93-2.93Z"/><path class="f" d="M4983.13,558.72c-1.62,0-2.93,1.31-2.93,2.93v12.06c0,1.62,1.31,2.93,2.93,2.93s2.93-1.31,2.93-2.93v-12.06c0-1.62-1.31-2.93-2.93-2.93Z"/><path class="f" d="M5024.2,531.34c-1.62,0-2.93,1.31-2.93,2.93v12.06c0,1.62,1.31,2.93,2.93,2.93s2.93-1.31,2.93-2.93v-12.06c0-1.62-1.31-2.93-2.93-2.93Z"/><path class="f" d="M4983.13,503.96c-1.62,0-2.93,1.31-2.93,2.93v12.06c0,1.62,1.31,2.93,2.93,2.93s2.93-1.31,2.93-2.93v-12.06c0-1.62-1.31-2.93-2.93-2.93Z"/><path class="f" d="M4996.82,476.58c-1.62,0-2.93,1.31-2.93,2.93v12.06c0,1.62,1.31,2.93,2.93,2.93s2.93-1.31,2.93-2.93v-12.06c0-1.62-1.31-2.93-2.93-2.93Z"/><path class="f" d="M5024.2,449.2c-1.62,0-2.93,1.31-2.93,2.93v12.06c0,1.62,1.31,2.93,2.93,2.93s2.93-1.31,2.93-2.93v-12.06c0-1.62-1.31-2.93-2.93-2.93Z"/><path class="f" d="M4969.44,421.82c-1.62,0-2.93,1.31-2.93,2.93v12.06c0,1.62,1.31,2.93,2.93,2.93s2.93-1.31,2.93-2.93v-12.06c0-1.62-1.31-2.93-2.93-2.93Z"/><path class="f" d="M5024.2,394.44c-1.62,0-2.93,1.31-2.93,2.93v12.06c0,1.62,1.31,2.93,2.93,2.93s2.93-1.31,2.93-2.93v-12.06c0-1.62-1.31-2.93-2.93-2.93Z"/><path class="f" d="M4983.13,367.06c-1.62,0-2.93,1.31-2.93,2.93v12.06c0,1.62,1.31,2.93,2.93,2.93s2.93-1.31,2.93-2.93v-12.06c0-1.62-1.31-2.93-2.93-2.93Z"/><path class="f" d="M5408.49,449.53h-12.32c-1.62,0-2.93,1.31-2.93,2.93v278.42c0,1.62,1.31,2.93,2.93,2.93h12.32c1.62,0,2.93-1.31,2.93-2.93V452.46c0-1.62-1.31-2.93-2.93-2.93Zm-2.93,278.42h-6.45V455.39h6.45v272.55Z"/><path class="f" d="M5359.2,449.53h-12.32c-1.62,0-2.93,1.31-2.93,2.93v278.42c0,1.62,1.31,2.93,2.93,2.93h12.32c1.62,0,2.93-1.31,2.93-2.93V452.46c0-1.62-1.31-2.93-2.93-2.93Zm-2.93,278.42h-6.45V455.39h6.45v272.55Z"/><path class="f" d="M5584.17,584.03h10.25v15.65h-10.25v-15.65Zm0,44.91h10.25v13.76h-10.25v-13.76Zm0,43.02h10.25v13.76h-10.25v-13.76Z"/><path class="f" d="M5615.64,584.03h10.25v15.65h-10.25v-15.65Zm0,44.91h10.25v13.76h-10.25v-13.76Zm0,43.02h10.25v13.76h-10.25v-13.76Z"/><path class="f" d="M5800.03,741.8h-71.49v-23.29c17.5-1.5,31.29-16.19,31.29-34.08,0-18.87-15.35-34.22-34.22-34.22s-34.22,15.35-34.22,34.22c0,17.88,13.79,32.58,31.29,34.08v23.29h-57.24v-79.69h25.16c1.62,0,2.93-1.31,2.93-2.93s-1.31-2.93-2.93-2.93h-8.58v-116.2c0-1.62-1.31-2.93-2.93-2.93h-112.98V262.33c0-1.62-1.31-2.93-2.93-2.93h-52.93c-1.62,0-2.93,1.31-2.93,2.93v13.36h-45.51v-41.39c0-1.62-1.31-2.93-2.93-2.93s-2.93,1.31-2.93,2.93v41.39h-30.96c-1.62,0-2.93,1.31-2.93,2.93v153.44h-88.01v-153.44c0-1.62-1.31-2.93-2.93-2.93h-98.88v-29.97c0-1.62-1.31-2.93-2.93-2.93s-2.93,1.31-2.93,2.93v29.97h-23.79c-1.62,0-2.93,1.31-2.93,2.93v24.45h-22.37c-1.62,0-2.93,1.31-2.93,2.93v98.82h-127.12v-50.65c0-1.62-1.31-2.93-2.93-2.93h-93.55v-26.33c0-1.62-1.31-2.93-2.93-2.93s-2.93,1.31-2.93,2.93v26.33h-25.75c-1.62,0-2.93,1.31-2.93,2.93v143.09h-58.34c-1.62,0-2.93,1.31-2.93,2.93v58.41h-68.81c-1.62,0-2.93,1.31-2.93,2.93v81.24c0,1.62,1.31,2.93,2.93,2.93s2.93-1.31,2.93-2.93v-78.31h65.88v49.22c0,1.62,1.31,2.93,2.93,2.93s2.93-1.31,2.93-2.93v-110.56h84.09v238.66h-84.09v-29.87c13.14-.88,24.71-7.59,32.12-17.57v35.54c0,1.62,1.31,2.93,2.93,2.93h14.47c1.62,0,2.93-1.31,2.93-2.93v-218.22c0-1.62-1.31-2.93-2.93-2.93h-14.47c-1.62,0-2.93,1.31-2.93,2.93v130.75c-7.96-10.72-20.71-17.68-35.06-17.68-22.5,0-41.07,17.11-43.4,39-6.26-8.21-16.11-13.54-27.21-13.54-18.87,0-34.22,15.35-34.22,34.22,0,17.88,13.79,32.58,31.29,34.08v23.29h-72.63c-1.62,0-2.93,1.31-2.93,2.93s1.31,2.93,2.93,2.93h1088.37c1.62,0,2.93-1.31,2.93-2.93s-1.31-2.93-2.93-2.93Zm-901.28-58.24c1.76-4.73,2.72-9.83,2.72-15.17s-.96-10.44-2.72-15.17v-138.61h8.6v212.35h-8.6v-43.41Zm-111.53-2.06c-1.62,0-2.93,1.31-2.93,2.93v15.65l-12.59-12.59c-1.15-1.15-3-1.15-4.15,0-1.15,1.14-1.15,3,0,4.15l16.74,16.74v4.25c-14.26-1.47-25.42-13.56-25.42-28.2,0-15.64,12.72-28.36,28.36-28.36s28.36,12.72,28.36,28.36c0,14.65-11.16,26.73-25.42,28.2v-7.92l13.07-13.07c1.15-1.14,1.15-3,0-4.15-1.15-1.15-3-1.15-4.15,0l-8.93,8.93v-11.99c0-1.62-1.31-2.93-2.93-2.93Zm67.67,60.3h-64.73v-23.29c15.17-1.3,27.56-12.52,30.58-27.14,7.22,11.61,19.74,19.6,34.15,20.56v29.87Zm2.93-76.34c-1.62,0-2.93,1.31-2.93,2.93v22.5l-17.89-17.89c-1.15-1.15-3-1.15-4.15,0-1.15,1.14-1.15,3,0,4.15l22.04,22.04v6.83c-19.46-1.51-34.85-17.79-34.85-37.63,0-20.83,16.95-37.78,37.78-37.78,15.88,0,29.48,9.86,35.06,23.78,0,0,5.58,14.81,0,28.01-5.23,13.04-17.52,22.5-32.12,23.63v-11.61l17.27-17.27c1.15-1.15,1.15-3,0-4.15-1.15-1.15-3-1.15-4.15,0l-13.12,13.12v-17.73c0-1.62-1.31-2.93-2.93-2.93Zm87.03-168.19h-22.82v-140.16h22.82v140.16Zm99.41,174.38c-1.62,0-2.93,1.31-2.93,2.93v12.7l-6.96-6.96c-1.15-1.15-3-1.15-4.15,0-1.15,1.14-1.15,3,0,4.15l11.11,11.11v22.22h-34.09l37.02-82.23,37.02,82.23h-34.09v-10l11.36-11.36c1.15-1.14,1.15-3,0-4.15-1.15-1.15-3-1.15-4.15,0l-7.22,7.22v-24.93c0-1.62-1.31-2.93-2.93-2.93Zm44.09,70.14c.25-.43,.41-.93,.41-1.47,0-8.81,7.16-15.97,15.97-15.97s15.97,7.16,15.97,15.97c0,.54,.15,1.03,.41,1.47h-32.76Zm37.81,0c.25-.43,.41-.93,.41-1.47,0-12.76,10.38-23.14,23.14-23.14s23.14,10.38,23.14,23.14c0,.54,.15,1.03,.41,1.47h-47.1Zm48.15-296.28v279.53c-5.13-8.22-14.22-13.72-24.6-13.72-11.85,0-22.05,7.15-26.55,17.35-3.88-6.11-10.68-10.18-18.44-10.18-12.04,0-21.84,9.8-21.84,21.84,0,.54,.15,1.03,.41,1.47h-36.1v-18.12h38.57s.04,0,.06,0c.02,0,.05,0,.07,0,1.6-.02,2.9-1.33,2.9-2.93,0-.59-.18-1.15-.48-1.61l-41.38-91.91c-.47-1.05-1.52-1.73-2.67-1.73s-2.2,.68-2.67,1.73l-41.54,92.25c-.1,.2-.17,.42-.22,.65-.04,.2-.07,.41-.07,.61,0,.14,.01,.28,.03,.42,.06,.43,.21,.83,.44,1.18,.23,.35,.53,.65,.89,.88,.29,.18,.61,.32,.95,.39,.23,.05,.47,.07,.68,.07h38.57v18.12h-90.61V357.11h90.61v256.59c0,1.62,1.31,2.93,2.93,2.93s2.93-1.31,2.93-2.93v-203.01h127.12v34.82Zm31.17-163.95h20.86v21.51h-20.86v-21.51Zm97.91,460.24h-123.21V308.94h123.21v432.86Zm24.77-405.8v405.8h-18.91V308.94h18.91v27.05Zm0-32.92h-95.95v-21.51h95.95v21.51Zm130.7,368.58c-1.62,0-2.93,1.31-2.93,2.93v12.7l-6.96-6.96c-1.15-1.15-3-1.15-4.15,0-1.15,1.14-1.15,3,0,4.15l11.11,11.11v22.22h-34.09l37.02-82.23,37.02,82.23h-34.09v-10l11.36-11.36c1.15-1.14,1.15-3,0-4.15-1.15-1.15-3-1.15-4.15,0l-7.22,7.22v-24.93c0-1.62-1.31-2.93-2.93-2.93Zm101.37-381.6v451.75h-98.44v-18.12h38.57s.04,0,.07,0c.02,0,.05,0,.07,0,1.6-.02,2.9-1.33,2.9-2.93,0-.59-.18-1.15-.48-1.61l-41.38-91.91c-.47-1.05-1.52-1.73-2.67-1.73s-2.2,.68-2.67,1.73l-41.54,92.25c-.1,.2-.17,.42-.22,.65-.04,.2-.07,.41-.07,.61,0,.14,.01,.28,.03,.42,.06,.43,.21,.83,.44,1.18,.23,.35,.53,.65,.89,.88,.29,.18,.61,.32,.95,.39,.23,.05,.47,.07,.68,.07h38.57v18.12h-121.9V437.93h88.01v236.66c0,1.62,1.31,2.93,2.93,2.93s2.93-1.31,2.93-2.93V281.56h28.03v328.23c0,1.62,1.31,2.93,2.93,2.93s2.93-1.31,2.93-2.93V281.56h98.44v8.49Zm0-14.35h-47.06v-10.43h47.06v10.43Zm77.75,466.1h-71.89v-177.31h71.89v177.31Zm21.58,0h-15.71v-177.31h15.71v177.31Zm2.93-183.18h-96.4v-15.65h110.05v113.27h-10.72v-94.69c0-1.62-1.31-2.93-2.93-2.93Zm63.11,122.88c-1.62,0-2.93,1.31-2.93,2.93v15.65l-12.59-12.59c-1.15-1.15-3-1.15-4.15,0-1.15,1.14-1.15,3,0,4.15l16.74,16.74v4.26c-14.26-1.47-25.42-13.56-25.42-28.2,0-15.64,12.72-28.36,28.36-28.36s28.36,12.72,28.36,28.36c0,14.65-11.16,26.73-25.42,28.2v-7.92l13.07-13.07c1.15-1.14,1.15-3,0-4.15-1.15-1.15-3-1.15-4.15,0l-8.93,8.93v-11.99c0-1.62-1.31-2.93-2.93-2.93Z"/></g><rect class="f" x="2903.48" y="742.22" width="1798.32" height="5.31"/><path class="e" d="M3541.16,642.17c-11.33,0-20.54,7.5-20.54,16.72v44.59c0,9.22,9.22,16.72,20.54,16.72s20.54-7.5,20.54-16.72v-44.59c0-9.22-9.22-16.72-20.54-16.72Z"/><path class="f" d="M3537.34,717.4c-10.6,0-19.22-8.62-19.22-19.22v-44.59c0-10.6,8.62-19.22,19.22-19.22s19.22,8.62,19.22,19.22v44.59c0,10.6-8.62,19.22-19.22,19.22Zm0-78.03c-7.84,0-14.22,6.38-14.22,14.22v44.59c0,7.84,6.38,14.22,14.22,14.22s14.22-6.38,14.22-14.22v-44.59c0-7.84-6.38-14.22-14.22-14.22Z"/><rect class="f" x="3534.68" y="717.08" width="5.31" height="27.79"/><path class="e" d="M2979.5,642.17c-11.33,0-20.54,7.5-20.54,16.72v44.59c0,9.22,9.22,16.72,20.54,16.72s20.54-7.5,20.54-16.72v-44.59c0-9.22-9.22-16.72-20.54-16.72Z"/><path class="f" d="M2975.68,717.4c-10.6,0-19.22-8.62-19.22-19.22v-44.59c0-10.6,8.62-19.22,19.22-19.22s19.22,8.62,19.22,19.22v44.59c0,10.6-8.62,19.22-19.22,19.22Zm0-78.03c-7.84,0-14.22,6.38-14.22,14.22v44.59c0,7.84,6.38,14.22,14.22,14.22s14.22-6.38,14.22-14.22v-44.59c0-7.84-6.38-14.22-14.22-14.22Z"/><rect class="f" x="2973.02" y="717.08" width="5.31" height="27.79"/><path class="e" d="M4621.59,642.17c-11.33,0-20.54,7.5-20.54,16.72v44.59c0,9.22,9.22,16.72,20.54,16.72s20.54-7.5,20.54-16.72v-44.59c0-9.22-9.22-16.72-20.54-16.72Z"/><path class="f" d="M4617.77,717.4c-10.6,0-19.22-8.62-19.22-19.22v-44.59c0-10.6,8.62-19.22,19.22-19.22s19.22,8.62,19.22,19.22v44.59c0,10.6-8.62,19.22-19.22,19.22Zm0-78.03c-7.84,0-14.22,6.38-14.22,14.22v44.59c0,7.84,6.38,14.22,14.22,14.22s14.22-6.38,14.22-14.22v-44.59c0-7.84-6.38-14.22-14.22-14.22Z"/><rect class="f" x="4615.11" y="717.08" width="5.31" height="27.79"/><g><path class="f" d="M3026.72,613.51v134.2h84.37v-134.2h-84.37Zm79.06,128.89h-73.75v-123.58h73.75v123.58Z"/><rect class="f" x="3044.7" y="635.3" width="16.32" height="5.31"/><rect class="f" x="3044.7" y="674.25" width="16.32" height="5.31"/><rect class="f" x="3044.7" y="713.19" width="16.32" height="5.31"/></g><g><path class="f" d="M3228.8,543.85v-61.01h-10.93v-39.04h-5.31v39.04h-8.42v-10.31h-5.31v10.31h-9.66v35.85h-73.73v25.17h-9.66v203.86h128.86v-203.86h-5.85Zm-34.32-55.7h29.01v55.7h-29.01v-55.7Zm-56.18,35.85h50.87v19.86h-50.87v-19.86Zm-17.54,0h12.23v19.86h-3.46v-9.93h-5.31v9.93h-3.46v-19.86Zm108.58,218.41h-118.24v-193.24h118.24v193.24Z"/><rect class="f" x="3130.02" y="566.62" width="53.94" height="5.31"/><rect class="f" x="3130.02" y="607.33" width="53.94" height="5.31"/><rect class="f" x="3130.02" y="648.05" width="53.94" height="5.31"/><rect class="f" x="3130.02" y="688.76" width="53.94" height="5.31"/></g><g><path class="f" d="M3354.88,659.52v-82.88h-40.91v-25.93h-55.9v25.93h-11.42v82.88h-17.44v88.19h143.1v-88.19h-17.44Zm-84.94-57.14h28.07v57.14h-28.07v-57.14Zm33.7,0h27.65v57.14h-27.65v-57.14Zm32.96,0h12.96v57.14h-12.96v-57.14Zm-73.22-46.35h45.28v20.62h-45.28v-20.62Zm-5.31,25.93h91.5v15.11h-97.61v-15.11h6.11Zm-6.11,20.42h12.77v57.14h-12.77v-57.14Zm115.04,140.02h-132.48v-77.57h132.48v77.57Z"/><rect class="f" x="3252.49" y="695.4" width="96.68" height="5.31"/><rect class="f" x="3252.49" y="711.68" width="96.68" height="5.31"/></g><g><path class="f" d="M3490.15,476.22v-61.27h-17.03v-26.95h-89.2v26.95h-17.03v332.75h142.59V476.22h-19.32Zm-100.93-82.91h78.58v21.64h-78.58v-21.64Zm-17.03,349.08V420.27h112.65v55.96h-36.1v266.17h-76.55Zm101.08,0v-240.92h11.68v240.92h-11.68Zm30.9,0h-13.9v-246.23h-22.3v246.23h-13.9V481.53h50.11v260.86Z"/><rect class="f" x="3385.1" y="440.76" width="5.31" height="289.6"/><rect class="f" x="3417.04" y="441.11" width="5.31" height="289.6"/><rect class="f" x="3448.97" y="441.47" width="5.31" height="27.77"/></g><g><path class="f" d="M3591.2,302.51v85.32h-23.42v359.7h113.79l-10.62-61.46h4.94v-5.31h-5.86l-3.43-19.83h9.29v-5.31h-10.21l-3.43-19.83h13.63v-5.31h-14.55l-3.43-19.83h17.98v-5.31h-18.9l-3.43-19.83h22.32v-5.31h-23.24l-3.43-19.83h26.67v-5.31h-27.58l-3.43-19.83h31.01v-5.31h-31.93l-3.43-19.83h35.36v-5.31h-36.27l-20.22-116.97h-22.9v-80.01h94.48v437.06h5.31V302.51h-105.1Zm84.06,439.71h-102.17V393.14h41.84l60.33,349.08Z"/><rect class="f" x="3586.45" y="438.68" width="21.56" height="5.31"/><rect class="f" x="3586.45" y="486.12" width="35.15" height="5.31"/><rect class="f" x="3586.45" y="533.56" width="41.17" height="5.31"/><rect class="f" x="3586.45" y="581" width="51.08" height="5.31"/><rect class="f" x="3586.45" y="628.44" width="63.47" height="5.31"/><rect class="f" x="3586.45" y="675.88" width="66.66" height="5.31"/><rect class="f" x="3586.45" y="723.32" width="70.91" height="5.31"/><rect class="f" x="3638.24" y="353.98" width="37.66" height="5.31"/><rect class="f" x="3638.24" y="404.25" width="37.66" height="5.31"/><rect class="f" x="3638.24" y="454.53" width="37.66" height="5.31"/><rect class="f" x="3638.24" y="479.66" width="37.66" height="5.31"/><rect class="f" x="3612.22" y="353.98" width="14.66" height="5.31"/></g><g><path class="f" d="M3690.99,600.96v146.57h126.39v-146.57h-126.39Zm121.08,141.26h-115.77v-135.95h115.77v135.95Z"/><path class="f" d="M3790.83,637.78h-77.53v-3.89h77.53v3.89Z"/><path class="f" d="M3790.83,677.43h-77.53v-3.89h77.53v3.89Z"/><path class="f" d="M3790.83,717.08h-77.53v-3.89h77.53v3.89Z"/></g><g><path class="f" d="M3913.59,353.84l-25.58-42.69v-47.71h-5.31v47.71l-25.58,42.69h-45.05v393.69h146.57V353.84h-45.05Zm-67.89,388.38v-206.57h-5.31v206.57h-10.65v-86.42h-5.31v86.42h-7.05V359.15h38.59v383.07h-10.27Zm15.58,0V357.23l24.07-40.18,24.07,40.18v384.99h-48.15Zm92.05,0h-8.14V438.2h-5.31v304.02h-10.65v-138.6h-5.31v138.6h-9.17V359.15h38.59v383.07Z"/><rect class="f" x="3872" y="433.64" width="25.15" height="5.31"/><rect class="f" x="3872" y="529.23" width="25.15" height="5.31"/><rect class="f" x="3872" y="624.82" width="25.15" height="5.31"/><rect class="f" x="3872" y="720.41" width="25.15" height="5.31"/></g><g><path class="f" d="M4077.24,387.83v-21.95h-61.6v21.95h-18.76v40.36h-43.55v319.34h143.03V387.83h-19.12Zm-56.29-16.64h50.98v16.64h-50.98v-16.64Zm-24.07,371.03h-38.24V433.5h38.24v308.72Zm94.17,0h-88.86V393.14h88.86v349.08Z"/><rect class="f" x="3975.1" y="452.96" width="5.31" height="274.03"/><rect class="f" x="4030.14" y="447.31" width="52.42" height="5.31"/><rect class="f" x="4010.82" y="447.31" width="13.4" height="5.31"/><rect class="f" x="4030.14" y="501.83" width="52.42" height="5.31"/><rect class="f" x="4010.82" y="501.83" width="13.4" height="5.31"/><rect class="f" x="4030.14" y="556.35" width="52.42" height="5.31"/><rect class="f" x="4010.82" y="556.35" width="13.4" height="5.31"/><rect class="f" x="4030.14" y="610.87" width="52.42" height="5.31"/><rect class="f" x="4010.82" y="610.87" width="13.4" height="5.31"/><rect class="f" x="4030.14" y="665.39" width="52.42" height="5.31"/><rect class="f" x="4010.82" y="665.39" width="13.4" height="5.31"/><rect class="f" x="4030.14" y="719.92" width="52.42" height="5.31"/><rect class="f" x="4010.82" y="719.92" width="13.4" height="5.31"/></g><g><path class="f" d="M4294.44,239.49c-30.94,0-56.11,25.17-56.11,56.11v179.32h-80.01v272.61h192.24V295.61c0-30.94-25.17-56.11-56.11-56.11Zm-130.82,502.73V480.23h74.11l.59,.94v15.35h-12.89v14.16h12.89v6.82h0v5.31h0v12.3h-12.89v14.16h12.89v6.82h0v5.31h0v12.3h-12.89v14.16h12.89v6.82h0v5.31h0v12.3h-12.89v14.16h12.89v6.82h0v5.31h0v12.3h-12.89v14.16h12.89v6.82h0v5.31h0v12.3h-12.89v14.16h12.89v6.82h0v5.31h0v26.46h-74.7Zm74.7-236.85h-7.58v-3.54h7.58v3.54Zm0,38.59h-7.58v-3.54h7.58v3.54Zm0,38.59h-7.58v-3.54h7.58v3.54Zm0,38.59h-7.58v-3.54h7.58v3.54Zm0,38.59h-7.58v-3.54h7.58v3.54Zm0,38.59h-7.58v-3.54h7.58v3.54Zm81.6,43.9h-50.98V288.88h50.98v453.34Zm5.31,0V283.57h-61.6v458.65h-20V295.61c0-28.01,22.79-50.8,50.8-50.8s50.8,22.79,50.8,50.8v446.61h-20Z"/><rect class="f" x="4296.57" y="315.61" width="12.37" height="5.31"/><rect class="f" x="4277.45" y="334.37" width="12.37" height="5.31"/><rect class="f" x="4296.57" y="353.14" width="12.37" height="5.31"/><rect class="f" x="4277.45" y="390.66" width="12.37" height="5.31"/><rect class="f" x="4296.57" y="409.43" width="12.37" height="5.31"/><rect class="f" x="4277.45" y="446.95" width="12.37" height="5.31"/><rect class="f" x="4296.57" y="465.72" width="12.37" height="5.31"/><rect class="f" x="4277.45" y="503.25" width="12.37" height="5.31"/><rect class="f" x="4277.45" y="540.77" width="12.37" height="5.31"/><rect class="f" x="4296.57" y="559.54" width="12.37" height="5.31"/><rect class="f" x="4277.45" y="578.3" width="12.37" height="5.31"/><rect class="f" x="4277.45" y="615.83" width="12.37" height="5.31"/><rect class="f" x="4296.57" y="634.59" width="12.37" height="5.31"/><rect class="f" x="4277.45" y="672.12" width="12.37" height="5.31"/><rect class="f" x="4296.57" y="690.88" width="12.37" height="5.31"/><rect class="f" x="4277.45" y="709.65" width="12.37" height="5.31"/></g><g><path class="f" d="M4433.76,352.43v212.98l-26.86-51.19-.75-1.42h-60.91v234.72h184.06l-90.25-172v-217.8h134.18v53.98h-42.84v333.16h5.31V417.03h37.53v327.85h5.31V352.43h-144.8Zm-68.33,389.79v-201.8h21.6v201.8h-21.6Zm-5.31-207.11v207.11h-9.56v-224.1h51.34v224.1h-9.56v-207.11h-32.22Zm47.09,207.11v-5h0v-5.31h0v-18.41h0v-5.31h0v-18.41h0v-5.31h0v-18.41h0v-5.31h0v-42.13h0v-5.31h0v-18.41h0v-5.31h0v-63.35l20.82,39.67h-12.5v5.31h15.28l34.53,65.81h-45.39v5.31h48.17l9.66,18.41h-22.37v5.31h25.16l9.66,18.41h-12.58v5.31h15.37l9.66,18.41h-63.43v5.31h66.22l15.07,28.72h-113.32Z"/><path class="f" d="M4511.64,402.35h-9.2v-15.58h9.2v15.58Z"/><path class="f" d="M4474.82,442.71h-9.2v-15.58h9.2v15.58Z"/><path class="f" d="M4511.64,483.07h-9.2v-15.58h9.2v15.58Z"/><path class="f" d="M4465.62,548.21h9.2v15.58h-9.2v-15.58Z"/><path class="f" d="M4502.44,633.53h9.2v15.58h-9.2v-15.58Z"/></g><g><rect class="f" x="4145.24" y="57.74" width="15.07" height="5.31"/><rect class="f" x="4150.4" y="65.2" width="16.22" height="5.31"/><path class="f" d="M4131.53,81.13h23.89c7.72,0,14.98-3.01,20.45-8.47,3.65-3.65,6.22-8.13,7.51-13.06h8.77c4.08,0,7.39-3.32,7.39-7.39s-3.32-7.39-7.39-7.39h-8.78c-.9-3.41-2.38-6.55-4.34-9.32l4.42-6.22c1.24-1.75,1.9-3.8,1.9-5.94,0-3.32-1.61-6.44-4.32-8.37-4.61-3.28-11.03-2.19-14.31,2.42l-4.74,6.66c-2.12-.49-4.32-.75-6.57-.75h-62.28c-7.72,0-14.98,3.01-20.45,8.47-5.46,5.46-8.47,12.72-8.47,20.45,0,15.94,12.97,28.91,28.91,28.91h6.39v.36c0,8.82,7.18,16,16,16s16-7.18,16-16v-.36Zm62.71-28.91c0,1.15-.93,2.08-2.08,2.08h-20.95c-1.15,0-2.08-.93-2.08-2.08s.93-2.08,2.08-2.08h20.95c1.15,0,2.08,.93,2.08,2.08Zm-23.18-31.74c1.58-2.22,4.68-2.75,6.9-1.17,1.3,.93,2.08,2.44,2.08,4.04,0,1.03-.32,2.02-.92,2.86l-3.66,5.15c-2.39-2.29-5.17-4.17-8.21-5.54l3.81-5.35Zm-101.52,31.74c0-6.3,2.46-12.23,6.91-16.69,4.46-4.46,10.39-6.91,16.69-6.91h62.28c10.32,0,19.29,6.65,22.42,16.21h-6.64c-3.14,0-5.82,1.97-6.89,4.74h-37.74v5.31h37.74c1.07,2.77,3.75,4.74,6.89,4.74h6.64c-1.14,3.49-3.09,6.66-5.73,9.3-4.46,4.46-10.39,6.91-16.69,6.91h-62.28c-13.02,0-23.6-10.59-23.6-23.6Zm45.99,39.96c-5.89,0-10.69-4.8-10.69-10.69v-.36h21.38v.36c0,.31-.02,.62-.04,.93h-7.92v5.31h5.94c-1.94,2.69-5.1,4.45-8.67,4.45Z"/><rect class="f" x="4107.93" y="82.42" width="7.61" height="5.31"/><rect class="f" x="4105.72" y="49.56" width="14.2" height="5.31"/><rect class="f" x="4145.24" y="87.6" width="55.77" height="5.31"/><rect class="f" x="4128.6" y="102.82" width="55.77" height="5.31"/><rect class="f" x="4209.99" y="87.6" width="18.73" height="5.31"/></g><line class="g" x1="2892.53" y1="866.95" x2="3030.78" y2="866.95"/><line class="g" x1="3201.42" y1="866.95" x2="3339.67" y2="866.95"/><line class="g" x1="3510.3" y1="866.95" x2="3648.56" y2="866.95"/><line class="g" x1="3819.19" y1="866.95" x2="3957.45" y2="866.95"/><line class="g" x1="4128.08" y1="866.95" x2="4266.33" y2="866.95"/><line class="g" x1="4438.74" y1="866.95" x2="4576.99" y2="866.95"/><line class="g" x1="4747.62" y1="866.95" x2="4885.88" y2="866.95"/><line class="g" x1="5056.51" y1="866.95" x2="5194.77" y2="866.95"/><line class="g" x1="5365.4" y1="866.95" x2="5503.65" y2="866.95"/><line class="g" x1="5674.28" y1="866.95" x2="5812.54" y2="866.95"/><line class="g" x1="2903.48" y1="1004.59" x2="5802.96" y2="1004.59"/><g><rect class="f" x="3372.19" y="778.5" width="107.02" height="19.95"/><rect class="f" x="3372.19" y="820.4" width="107.02" height="19.95"/><rect class="f" x="3372.19" y="862.3" width="107.02" height="19.95"/><rect class="f" x="3372.19" y="904.2" width="107.02" height="19.95"/><rect class="f" x="3372.19" y="946.1" width="107.02" height="19.95"/></g><g><rect class="f" x="5226.67" y="778.5" width="107.02" height="19.95"/><rect class="f" x="5226.67" y="820.4" width="107.02" height="19.95"/><rect class="f" x="5226.67" y="862.3" width="107.02" height="19.95"/><rect class="f" x="5226.67" y="904.2" width="107.02" height="19.95"/><rect class="f" x="5226.67" y="946.1" width="107.02" height="19.95"/></g></g></g></g></svg>