<svg width="2000" height="160" viewBox="0 0 2000 160" fill="none" xmlns="http://www.w3.org/2000/svg">
<g clip-path="url(#clip0_75_1444)">
<path d="M789.3 130.64C788.56 130.653 787.844 130.381 787.3 129.88L779.98 123.18C779.697 122.922 779.467 122.61 779.305 122.263C779.143 121.916 779.051 121.54 779.034 121.157C779.017 120.775 779.076 120.392 779.208 120.032C779.339 119.672 779.54 119.342 779.8 119.06C780.324 118.493 781.051 118.156 781.823 118.122C782.594 118.089 783.348 118.361 783.92 118.88L791.23 125.58C791.513 125.838 791.742 126.15 791.904 126.497C792.067 126.844 792.159 127.22 792.176 127.603C792.192 127.985 792.133 128.368 792.002 128.728C791.87 129.088 791.669 129.418 791.41 129.7C791.14 129.992 790.815 130.226 790.452 130.388C790.089 130.549 789.697 130.635 789.3 130.64Z" fill="#009A90"/>
<path d="M790.02 130.64C789.616 130.642 789.216 130.559 788.846 130.397C788.476 130.235 788.143 129.998 787.87 129.7C787.351 129.128 787.079 128.375 787.113 127.603C787.146 126.831 787.483 126.104 788.05 125.58L795.37 118.88C795.942 118.361 796.696 118.089 797.467 118.122C798.239 118.156 798.966 118.493 799.49 119.06C800.009 119.632 800.281 120.386 800.248 121.157C800.214 121.929 799.877 122.656 799.31 123.18L791.99 129.88C791.452 130.372 790.749 130.643 790.02 130.64Z" fill="#009A90"/>
<path d="M787.35 116.35C787.654 116.655 788.015 116.896 788.412 117.061C788.809 117.226 789.235 117.311 789.665 117.311C790.095 117.311 790.521 117.226 790.918 117.061C791.316 116.896 791.676 116.655 791.98 116.35L796.36 111.98C796.665 111.676 796.907 111.314 797.072 110.916C797.237 110.518 797.322 110.091 797.322 109.66C797.322 109.229 797.237 108.802 797.072 108.404C796.907 108.006 796.665 107.645 796.36 107.34L791.98 102.96C791.676 102.656 791.316 102.414 790.918 102.249C790.521 102.084 790.095 102 789.665 102C789.235 102 788.809 102.084 788.412 102.249C788.015 102.414 787.654 102.656 787.35 102.96L782.97 107.34C782.665 107.645 782.424 108.006 782.259 108.404C782.094 108.802 782.009 109.229 782.009 109.66C782.009 110.091 782.094 110.518 782.259 110.916C782.424 111.314 782.665 111.676 782.97 111.98L787.35 116.35Z" fill="#FF7E97"/>
<path d="M759.23 130.64C758.491 130.649 757.776 130.377 757.23 129.88L749.92 123.18C749.637 122.922 749.408 122.61 749.245 122.263C749.083 121.916 748.991 121.54 748.974 121.157C748.957 120.775 749.016 120.392 749.148 120.032C749.279 119.672 749.48 119.342 749.74 119.06C750.264 118.493 750.991 118.156 751.763 118.122C752.534 118.089 753.288 118.361 753.86 118.88L761.17 125.58C761.453 125.838 761.682 126.15 761.844 126.497C762.007 126.844 762.099 127.22 762.116 127.603C762.132 127.985 762.073 128.368 761.942 128.728C761.81 129.088 761.609 129.418 761.35 129.7C761.079 129.993 760.752 130.228 760.387 130.39C760.022 130.551 759.629 130.636 759.23 130.64Z" fill="#009A90"/>
<path d="M759.95 130.64C759.546 130.642 759.146 130.559 758.776 130.397C758.405 130.235 758.073 129.998 757.8 129.7C757.279 129.129 757.005 128.375 757.038 127.603C757.072 126.831 757.411 126.103 757.98 125.58L765.3 118.88C765.87 118.362 766.622 118.09 767.392 118.123C768.162 118.157 768.887 118.494 769.41 119.06C769.669 119.342 769.871 119.672 770.002 120.032C770.133 120.392 770.193 120.775 770.176 121.157C770.159 121.54 770.067 121.916 769.905 122.263C769.742 122.61 769.513 122.922 769.23 123.18L761.92 129.88C761.381 130.37 760.679 130.641 759.95 130.64Z" fill="#009A90"/>
<path d="M757.27 116.35C757.574 116.655 757.936 116.897 758.334 117.062C758.732 117.226 759.159 117.311 759.59 117.311C760.021 117.311 760.447 117.226 760.845 117.062C761.244 116.897 761.605 116.655 761.91 116.35L766.28 111.98C766.586 111.676 766.829 111.315 766.994 110.917C767.16 110.518 767.245 110.091 767.245 109.66C767.245 109.229 767.16 108.802 766.994 108.404C766.829 108.005 766.586 107.644 766.28 107.34L761.91 102.96C761.605 102.655 761.244 102.413 760.845 102.249C760.447 102.084 760.021 101.999 759.59 101.999C759.159 101.999 758.732 102.084 758.334 102.249C757.936 102.413 757.574 102.655 757.27 102.96L752.9 107.34C752.595 107.645 752.353 108.006 752.188 108.404C752.023 108.802 751.938 109.229 751.938 109.66C751.938 110.091 752.023 110.518 752.188 110.916C752.353 111.314 752.595 111.676 752.9 111.98L757.27 116.35Z" fill="#F6BCCE"/>
</g>
<g clip-path="url(#clip1_75_1444)">
<path d="M1319.3 130.64C1318.56 130.653 1317.84 130.381 1317.3 129.88L1309.98 123.18C1309.7 122.922 1309.47 122.61 1309.31 122.263C1309.14 121.916 1309.05 121.54 1309.03 121.157C1309.02 120.775 1309.08 120.392 1309.21 120.032C1309.34 119.672 1309.54 119.342 1309.8 119.06C1310.32 118.493 1311.05 118.156 1311.82 118.122C1312.59 118.089 1313.35 118.361 1313.92 118.88L1321.23 125.58C1321.51 125.838 1321.74 126.15 1321.9 126.497C1322.07 126.844 1322.16 127.22 1322.18 127.603C1322.19 127.985 1322.13 128.368 1322 128.728C1321.87 129.088 1321.67 129.418 1321.41 129.7C1321.14 129.992 1320.81 130.226 1320.45 130.388C1320.09 130.549 1319.7 130.635 1319.3 130.64Z" fill="#009A90"/>
<path d="M1320.02 130.64C1319.62 130.642 1319.22 130.559 1318.85 130.397C1318.48 130.235 1318.14 129.998 1317.87 129.7C1317.35 129.128 1317.08 128.375 1317.11 127.603C1317.15 126.831 1317.48 126.104 1318.05 125.58L1325.37 118.88C1325.94 118.361 1326.7 118.089 1327.47 118.122C1328.24 118.156 1328.97 118.493 1329.49 119.06C1330.01 119.632 1330.28 120.386 1330.25 121.157C1330.21 121.929 1329.88 122.656 1329.31 123.18L1321.99 129.88C1321.45 130.372 1320.75 130.643 1320.02 130.64Z" fill="#009A90"/>
<path d="M1317.35 116.35C1317.65 116.655 1318.01 116.896 1318.41 117.061C1318.81 117.226 1319.24 117.311 1319.67 117.311C1320.1 117.311 1320.52 117.226 1320.92 117.061C1321.32 116.896 1321.68 116.655 1321.98 116.35L1326.36 111.98C1326.67 111.676 1326.91 111.314 1327.07 110.916C1327.24 110.518 1327.32 110.091 1327.32 109.66C1327.32 109.229 1327.24 108.802 1327.07 108.404C1326.91 108.006 1326.67 107.645 1326.36 107.34L1321.98 102.96C1321.68 102.656 1321.32 102.414 1320.92 102.249C1320.52 102.084 1320.1 102 1319.67 102C1319.24 102 1318.81 102.084 1318.41 102.249C1318.01 102.414 1317.65 102.656 1317.35 102.96L1312.97 107.34C1312.67 107.645 1312.42 108.006 1312.26 108.404C1312.09 108.802 1312.01 109.229 1312.01 109.66C1312.01 110.091 1312.09 110.518 1312.26 110.916C1312.42 111.314 1312.67 111.676 1312.97 111.98L1317.35 116.35Z" fill="#FF7E97"/>
<path d="M1289.23 130.64C1288.49 130.649 1287.78 130.377 1287.23 129.88L1279.92 123.18C1279.64 122.922 1279.41 122.61 1279.25 122.263C1279.08 121.916 1278.99 121.54 1278.97 121.157C1278.96 120.775 1279.02 120.392 1279.15 120.032C1279.28 119.672 1279.48 119.342 1279.74 119.06C1280.26 118.493 1280.99 118.156 1281.76 118.122C1282.53 118.089 1283.29 118.361 1283.86 118.88L1291.17 125.58C1291.45 125.838 1291.68 126.15 1291.84 126.497C1292.01 126.844 1292.1 127.22 1292.12 127.603C1292.13 127.985 1292.07 128.368 1291.94 128.728C1291.81 129.088 1291.61 129.418 1291.35 129.7C1291.08 129.993 1290.75 130.228 1290.39 130.39C1290.02 130.551 1289.63 130.636 1289.23 130.64Z" fill="#009A90"/>
<path d="M1289.95 130.64C1289.55 130.642 1289.15 130.559 1288.78 130.397C1288.41 130.235 1288.07 129.998 1287.8 129.7C1287.28 129.129 1287 128.375 1287.04 127.603C1287.07 126.831 1287.41 126.103 1287.98 125.58L1295.3 118.88C1295.87 118.362 1296.62 118.09 1297.39 118.123C1298.16 118.157 1298.89 118.494 1299.41 119.06C1299.67 119.342 1299.87 119.672 1300 120.032C1300.13 120.392 1300.19 120.775 1300.18 121.157C1300.16 121.54 1300.07 121.916 1299.9 122.263C1299.74 122.61 1299.51 122.922 1299.23 123.18L1291.92 129.88C1291.38 130.37 1290.68 130.641 1289.95 130.64Z" fill="#009A90"/>
<path d="M1287.27 116.35C1287.57 116.655 1287.94 116.897 1288.33 117.062C1288.73 117.226 1289.16 117.311 1289.59 117.311C1290.02 117.311 1290.45 117.226 1290.85 117.062C1291.24 116.897 1291.61 116.655 1291.91 116.35L1296.28 111.98C1296.59 111.676 1296.83 111.315 1296.99 110.917C1297.16 110.518 1297.25 110.091 1297.25 109.66C1297.25 109.229 1297.16 108.802 1296.99 108.404C1296.83 108.005 1296.59 107.644 1296.28 107.34L1291.91 102.96C1291.61 102.655 1291.24 102.413 1290.85 102.249C1290.45 102.084 1290.02 101.999 1289.59 101.999C1289.16 101.999 1288.73 102.084 1288.33 102.249C1287.94 102.413 1287.57 102.655 1287.27 102.96L1282.9 107.34C1282.59 107.645 1282.35 108.006 1282.19 108.404C1282.02 108.802 1281.94 109.229 1281.94 109.66C1281.94 110.091 1282.02 110.518 1282.19 110.916C1282.35 111.314 1282.59 111.676 1282.9 111.98L1287.27 116.35Z" fill="#F6BCCE"/>
</g>
<g clip-path="url(#clip2_75_1444)">
<path d="M1763.3 130.64C1762.56 130.653 1761.84 130.381 1761.3 129.88L1753.98 123.18C1753.7 122.922 1753.47 122.61 1753.31 122.263C1753.14 121.916 1753.05 121.54 1753.03 121.157C1753.02 120.775 1753.08 120.392 1753.21 120.032C1753.34 119.672 1753.54 119.342 1753.8 119.06C1754.32 118.493 1755.05 118.156 1755.82 118.122C1756.59 118.089 1757.35 118.361 1757.92 118.88L1765.23 125.58C1765.51 125.838 1765.74 126.15 1765.9 126.497C1766.07 126.844 1766.16 127.22 1766.18 127.603C1766.19 127.985 1766.13 128.368 1766 128.728C1765.87 129.088 1765.67 129.418 1765.41 129.7C1765.14 129.992 1764.81 130.226 1764.45 130.388C1764.09 130.549 1763.7 130.635 1763.3 130.64Z" fill="#009A90"/>
<path d="M1764.02 130.64C1763.62 130.642 1763.22 130.559 1762.85 130.397C1762.48 130.235 1762.14 129.998 1761.87 129.7C1761.35 129.128 1761.08 128.375 1761.11 127.603C1761.15 126.831 1761.48 126.104 1762.05 125.58L1769.37 118.88C1769.94 118.361 1770.7 118.089 1771.47 118.122C1772.24 118.156 1772.97 118.493 1773.49 119.06C1774.01 119.632 1774.28 120.386 1774.25 121.157C1774.21 121.929 1773.88 122.656 1773.31 123.18L1765.99 129.88C1765.45 130.372 1764.75 130.643 1764.02 130.64Z" fill="#009A90"/>
<path d="M1761.35 116.35C1761.65 116.655 1762.01 116.896 1762.41 117.061C1762.81 117.226 1763.24 117.311 1763.67 117.311C1764.1 117.311 1764.52 117.226 1764.92 117.061C1765.32 116.896 1765.68 116.655 1765.98 116.35L1770.36 111.98C1770.67 111.676 1770.91 111.314 1771.07 110.916C1771.24 110.518 1771.32 110.091 1771.32 109.66C1771.32 109.229 1771.24 108.802 1771.07 108.404C1770.91 108.006 1770.67 107.645 1770.36 107.34L1765.98 102.96C1765.68 102.656 1765.32 102.414 1764.92 102.249C1764.52 102.084 1764.1 102 1763.67 102C1763.24 102 1762.81 102.084 1762.41 102.249C1762.01 102.414 1761.65 102.656 1761.35 102.96L1756.97 107.34C1756.67 107.645 1756.42 108.006 1756.26 108.404C1756.09 108.802 1756.01 109.229 1756.01 109.66C1756.01 110.091 1756.09 110.518 1756.26 110.916C1756.42 111.314 1756.67 111.676 1756.97 111.98L1761.35 116.35Z" fill="#FF7E97"/>
<path d="M1733.23 130.64C1732.49 130.649 1731.78 130.377 1731.23 129.88L1723.92 123.18C1723.64 122.922 1723.41 122.61 1723.25 122.263C1723.08 121.916 1722.99 121.54 1722.97 121.157C1722.96 120.775 1723.02 120.392 1723.15 120.032C1723.28 119.672 1723.48 119.342 1723.74 119.06C1724.26 118.493 1724.99 118.156 1725.76 118.122C1726.53 118.089 1727.29 118.361 1727.86 118.88L1735.17 125.58C1735.45 125.838 1735.68 126.15 1735.84 126.497C1736.01 126.844 1736.1 127.22 1736.12 127.603C1736.13 127.985 1736.07 128.368 1735.94 128.728C1735.81 129.088 1735.61 129.418 1735.35 129.7C1735.08 129.993 1734.75 130.228 1734.39 130.39C1734.02 130.551 1733.63 130.636 1733.23 130.64Z" fill="#009A90"/>
<path d="M1733.95 130.64C1733.55 130.642 1733.15 130.559 1732.78 130.397C1732.41 130.235 1732.07 129.998 1731.8 129.7C1731.28 129.129 1731 128.375 1731.04 127.603C1731.07 126.831 1731.41 126.103 1731.98 125.58L1739.3 118.88C1739.87 118.362 1740.62 118.09 1741.39 118.123C1742.16 118.157 1742.89 118.494 1743.41 119.06C1743.67 119.342 1743.87 119.672 1744 120.032C1744.13 120.392 1744.19 120.775 1744.18 121.157C1744.16 121.54 1744.07 121.916 1743.9 122.263C1743.74 122.61 1743.51 122.922 1743.23 123.18L1735.92 129.88C1735.38 130.37 1734.68 130.641 1733.95 130.64Z" fill="#009A90"/>
<path d="M1731.27 116.35C1731.57 116.655 1731.94 116.897 1732.33 117.062C1732.73 117.226 1733.16 117.311 1733.59 117.311C1734.02 117.311 1734.45 117.226 1734.85 117.062C1735.24 116.897 1735.61 116.655 1735.91 116.35L1740.28 111.98C1740.59 111.676 1740.83 111.315 1740.99 110.917C1741.16 110.518 1741.25 110.091 1741.25 109.66C1741.25 109.229 1741.16 108.802 1740.99 108.404C1740.83 108.005 1740.59 107.644 1740.28 107.34L1735.91 102.96C1735.61 102.655 1735.24 102.413 1734.85 102.249C1734.45 102.084 1734.02 101.999 1733.59 101.999C1733.16 101.999 1732.73 102.084 1732.33 102.249C1731.94 102.413 1731.57 102.655 1731.27 102.96L1726.9 107.34C1726.59 107.645 1726.35 108.006 1726.19 108.404C1726.02 108.802 1725.94 109.229 1725.94 109.66C1725.94 110.091 1726.02 110.518 1726.19 110.916C1726.35 111.314 1726.59 111.676 1726.9 111.98L1731.27 116.35Z" fill="#F6BCCE"/>
</g>
<g clip-path="url(#clip3_75_1444)">
<path d="M1833.3 130.64C1832.56 130.653 1831.84 130.381 1831.3 129.88L1823.98 123.18C1823.7 122.922 1823.47 122.61 1823.31 122.263C1823.14 121.916 1823.05 121.54 1823.03 121.157C1823.02 120.775 1823.08 120.392 1823.21 120.032C1823.34 119.672 1823.54 119.342 1823.8 119.06C1824.32 118.493 1825.05 118.156 1825.82 118.122C1826.59 118.089 1827.35 118.361 1827.92 118.88L1835.23 125.58C1835.51 125.838 1835.74 126.15 1835.9 126.497C1836.07 126.844 1836.16 127.22 1836.18 127.603C1836.19 127.985 1836.13 128.368 1836 128.728C1835.87 129.088 1835.67 129.418 1835.41 129.7C1835.14 129.992 1834.81 130.226 1834.45 130.388C1834.09 130.549 1833.7 130.635 1833.3 130.64Z" fill="#009A90"/>
<path d="M1834.02 130.64C1833.62 130.642 1833.22 130.559 1832.85 130.397C1832.48 130.235 1832.14 129.998 1831.87 129.7C1831.35 129.128 1831.08 128.375 1831.11 127.603C1831.15 126.831 1831.48 126.104 1832.05 125.58L1839.37 118.88C1839.94 118.361 1840.7 118.089 1841.47 118.122C1842.24 118.156 1842.97 118.493 1843.49 119.06C1844.01 119.632 1844.28 120.386 1844.25 121.157C1844.21 121.929 1843.88 122.656 1843.31 123.18L1835.99 129.88C1835.45 130.372 1834.75 130.643 1834.02 130.64Z" fill="#009A90"/>
<path d="M1831.35 116.35C1831.65 116.655 1832.01 116.896 1832.41 117.061C1832.81 117.226 1833.24 117.311 1833.67 117.311C1834.1 117.311 1834.52 117.226 1834.92 117.061C1835.32 116.896 1835.68 116.655 1835.98 116.35L1840.36 111.98C1840.67 111.676 1840.91 111.314 1841.07 110.916C1841.24 110.518 1841.32 110.091 1841.32 109.66C1841.32 109.229 1841.24 108.802 1841.07 108.404C1840.91 108.006 1840.67 107.645 1840.36 107.34L1835.98 102.96C1835.68 102.656 1835.32 102.414 1834.92 102.249C1834.52 102.084 1834.1 102 1833.67 102C1833.24 102 1832.81 102.084 1832.41 102.249C1832.01 102.414 1831.65 102.656 1831.35 102.96L1826.97 107.34C1826.67 107.645 1826.42 108.006 1826.26 108.404C1826.09 108.802 1826.01 109.229 1826.01 109.66C1826.01 110.091 1826.09 110.518 1826.26 110.916C1826.42 111.314 1826.67 111.676 1826.97 111.98L1831.35 116.35Z" fill="#FF7E97"/>
<path d="M1803.23 130.64C1802.49 130.649 1801.78 130.377 1801.23 129.88L1793.92 123.18C1793.64 122.922 1793.41 122.61 1793.25 122.263C1793.08 121.916 1792.99 121.54 1792.97 121.157C1792.96 120.775 1793.02 120.392 1793.15 120.032C1793.28 119.672 1793.48 119.342 1793.74 119.06C1794.26 118.493 1794.99 118.156 1795.76 118.122C1796.53 118.089 1797.29 118.361 1797.86 118.88L1805.17 125.58C1805.45 125.838 1805.68 126.15 1805.84 126.497C1806.01 126.844 1806.1 127.22 1806.12 127.603C1806.13 127.985 1806.07 128.368 1805.94 128.728C1805.81 129.088 1805.61 129.418 1805.35 129.7C1805.08 129.993 1804.75 130.228 1804.39 130.39C1804.02 130.551 1803.63 130.636 1803.23 130.64Z" fill="#009A90"/>
<path d="M1803.95 130.64C1803.55 130.642 1803.15 130.559 1802.78 130.397C1802.41 130.235 1802.07 129.998 1801.8 129.7C1801.28 129.129 1801 128.375 1801.04 127.603C1801.07 126.831 1801.41 126.103 1801.98 125.58L1809.3 118.88C1809.87 118.362 1810.62 118.09 1811.39 118.123C1812.16 118.157 1812.89 118.494 1813.41 119.06C1813.67 119.342 1813.87 119.672 1814 120.032C1814.13 120.392 1814.19 120.775 1814.18 121.157C1814.16 121.54 1814.07 121.916 1813.9 122.263C1813.74 122.61 1813.51 122.922 1813.23 123.18L1805.92 129.88C1805.38 130.37 1804.68 130.641 1803.95 130.64Z" fill="#009A90"/>
<path d="M1801.27 116.35C1801.57 116.655 1801.94 116.897 1802.33 117.062C1802.73 117.226 1803.16 117.311 1803.59 117.311C1804.02 117.311 1804.45 117.226 1804.85 117.062C1805.24 116.897 1805.61 116.655 1805.91 116.35L1810.28 111.98C1810.59 111.676 1810.83 111.315 1810.99 110.917C1811.16 110.518 1811.25 110.091 1811.25 109.66C1811.25 109.229 1811.16 108.802 1810.99 108.404C1810.83 108.005 1810.59 107.644 1810.28 107.34L1805.91 102.96C1805.61 102.655 1805.24 102.413 1804.85 102.249C1804.45 102.084 1804.02 101.999 1803.59 101.999C1803.16 101.999 1802.73 102.084 1802.33 102.249C1801.94 102.413 1801.57 102.655 1801.27 102.96L1796.9 107.34C1796.59 107.645 1796.35 108.006 1796.19 108.404C1796.02 108.802 1795.94 109.229 1795.94 109.66C1795.94 110.091 1796.02 110.518 1796.19 110.916C1796.35 111.314 1796.59 111.676 1796.9 111.98L1801.27 116.35Z" fill="#F6BCCE"/>
</g>
<g clip-path="url(#clip4_75_1444)">
<path d="M243.62 130.64C242.881 130.651 242.166 130.379 241.62 129.88L234.31 123.18C233.74 122.658 233.399 121.932 233.363 121.159C233.328 120.387 233.6 119.632 234.12 119.06C234.645 118.493 235.372 118.156 236.143 118.122C236.915 118.089 237.668 118.361 238.24 118.88L245.56 125.58C246.127 126.104 246.464 126.831 246.498 127.603C246.531 128.375 246.259 129.128 245.74 129.7C245.469 129.992 245.141 130.226 244.777 130.388C244.412 130.55 244.019 130.635 243.62 130.64Z" fill="#009A90"/>
<path d="M244.34 130.64C243.936 130.643 243.535 130.561 243.165 130.399C242.794 130.237 242.462 129.999 242.19 129.7C241.931 129.418 241.729 129.088 241.598 128.728C241.466 128.368 241.407 127.985 241.424 127.603C241.441 127.22 241.533 126.844 241.695 126.497C241.858 126.15 242.087 125.838 242.37 125.58L249.68 118.88C250.252 118.361 251.005 118.089 251.777 118.122C252.548 118.156 253.276 118.493 253.8 119.06C254.059 119.342 254.261 119.672 254.392 120.032C254.523 120.392 254.582 120.775 254.566 121.157C254.549 121.54 254.457 121.916 254.295 122.263C254.132 122.61 253.903 122.922 253.62 123.18L246.3 129.88C245.766 130.371 245.066 130.643 244.34 130.64Z" fill="#009A90"/>
<path d="M241.66 116.35C241.964 116.655 242.326 116.897 242.724 117.062C243.122 117.226 243.549 117.311 243.98 117.311C244.411 117.311 244.837 117.226 245.235 117.062C245.634 116.897 245.995 116.655 246.3 116.35L250.67 111.98C250.975 111.676 251.216 111.314 251.381 110.916C251.546 110.518 251.631 110.091 251.631 109.66C251.631 109.229 251.546 108.802 251.381 108.404C251.216 108.006 250.975 107.645 250.67 107.34L246.3 102.96C245.995 102.655 245.634 102.413 245.235 102.249C244.837 102.084 244.411 101.999 243.98 101.999C243.549 101.999 243.122 102.084 242.724 102.249C242.326 102.413 241.964 102.655 241.66 102.96L237.28 107.34C236.975 107.645 236.733 108.006 236.568 108.404C236.403 108.802 236.318 109.229 236.318 109.66C236.318 110.091 236.403 110.518 236.568 110.916C236.733 111.314 236.975 111.676 237.28 111.98L241.66 116.35Z" fill="#FF7E97"/>
<path d="M182.23 130.64C181.491 130.651 180.775 130.379 180.23 129.88L172.92 123.18C172.349 122.658 172.009 121.932 171.973 121.159C171.938 120.387 172.21 119.632 172.73 119.06C173.254 118.493 173.981 118.156 174.753 118.122C175.525 118.089 176.278 118.361 176.85 118.88L184.17 125.58C184.737 126.104 185.074 126.831 185.108 127.603C185.141 128.375 184.869 129.128 184.35 129.7C184.079 129.992 183.751 130.226 183.387 130.388C183.022 130.55 182.629 130.635 182.23 130.64Z" fill="#009A90"/>
<path d="M182.95 130.64C182.546 130.643 182.145 130.561 181.775 130.399C181.404 130.237 181.072 129.999 180.8 129.7C180.54 129.418 180.339 129.088 180.208 128.728C180.076 128.368 180.017 127.985 180.034 127.603C180.051 127.22 180.143 126.844 180.305 126.497C180.468 126.15 180.697 125.838 180.98 125.58L188.29 118.88C188.862 118.361 189.615 118.089 190.387 118.122C191.158 118.156 191.885 118.493 192.41 119.06C192.669 119.342 192.871 119.672 193.002 120.032C193.133 120.392 193.192 120.775 193.176 121.157C193.159 121.54 193.067 121.916 192.905 122.263C192.742 122.61 192.513 122.922 192.23 123.18L184.92 129.88C184.381 130.37 183.678 130.641 182.95 130.64Z" fill="#009A90"/>
<path d="M180.27 116.35C180.575 116.655 180.936 116.897 181.334 117.062C181.733 117.226 182.159 117.311 182.59 117.311C183.021 117.311 183.448 117.226 183.846 117.062C184.244 116.897 184.606 116.655 184.91 116.35L189.28 111.98C189.585 111.676 189.827 111.314 189.992 110.916C190.157 110.518 190.241 110.091 190.241 109.66C190.241 109.229 190.157 108.802 189.992 108.404C189.827 108.006 189.585 107.645 189.28 107.34L184.91 102.96C184.606 102.655 184.244 102.413 183.846 102.249C183.448 102.084 183.021 101.999 182.59 101.999C182.159 101.999 181.733 102.084 181.334 102.249C180.936 102.413 180.575 102.655 180.27 102.96L175.89 107.34C175.585 107.645 175.344 108.006 175.179 108.404C175.014 108.802 174.929 109.229 174.929 109.66C174.929 110.091 175.014 110.518 175.179 110.916C175.344 111.314 175.585 111.676 175.89 111.98L180.27 116.35Z" fill="#FF7E97"/>
<path d="M213.54 130.64C212.801 130.651 212.086 130.379 211.54 129.88L204.22 123.18C203.653 122.656 203.316 121.929 203.283 121.157C203.249 120.386 203.521 119.632 204.04 119.06C204.565 118.493 205.292 118.156 206.063 118.122C206.835 118.089 207.588 118.361 208.16 118.88L215.47 125.58C215.753 125.838 215.982 126.15 216.145 126.497C216.307 126.844 216.399 127.22 216.416 127.603C216.433 127.985 216.374 128.368 216.242 128.728C216.111 129.088 215.91 129.418 215.65 129.7C215.381 129.992 215.055 130.226 214.692 130.388C214.329 130.549 213.937 130.635 213.54 130.64Z" fill="#009A90"/>
<path d="M214.27 130.64C213.866 130.643 213.465 130.561 213.095 130.399C212.725 130.237 212.392 129.999 212.12 129.7C211.861 129.418 211.659 129.088 211.528 128.728C211.397 128.368 211.338 127.985 211.354 127.603C211.371 127.22 211.463 126.844 211.625 126.497C211.788 126.15 212.017 125.838 212.3 125.58L219.61 118.88C220.182 118.361 220.936 118.089 221.707 118.122C222.479 118.156 223.206 118.493 223.73 119.06C224.249 119.632 224.521 120.386 224.488 121.157C224.454 121.929 224.117 122.656 223.55 123.18L216.23 129.88C215.695 130.37 214.995 130.641 214.27 130.64Z" fill="#009A90"/>
<path d="M211.59 116.35C211.894 116.655 212.254 116.896 212.652 117.061C213.049 117.226 213.475 117.311 213.905 117.311C214.335 117.311 214.761 117.226 215.158 117.061C215.555 116.896 215.916 116.655 216.22 116.35L220.6 111.98C220.905 111.676 221.146 111.314 221.311 110.916C221.476 110.518 221.561 110.091 221.561 109.66C221.561 109.229 221.476 108.802 221.311 108.404C221.146 108.006 220.905 107.645 220.6 107.34L216.22 102.96C215.916 102.656 215.555 102.414 215.158 102.249C214.761 102.084 214.335 102 213.905 102C213.475 102 213.049 102.084 212.652 102.249C212.254 102.414 211.894 102.656 211.59 102.96L207.21 107.34C206.905 107.645 206.663 108.006 206.498 108.404C206.333 108.802 206.249 109.229 206.249 109.66C206.249 110.091 206.333 110.518 206.498 110.916C206.663 111.314 206.905 111.676 207.21 111.98L211.59 116.35Z" fill="#F6BCCE"/>
</g>
<g clip-path="url(#clip5_75_1444)">
<path d="M86.6715 82.5217C79.5175 82.4119 72.6973 79.4486 67.7001 74.2787C62.7029 69.1089 59.9347 62.1526 60.0002 54.929C60.1089 47.706 63.0439 40.8198 68.1643 35.7744C73.2847 30.7289 80.1744 27.934 87.3289 28C94.4828 28.1098 101.303 31.0732 106.3 36.2431C111.297 41.4129 114.066 48.3692 114 55.5928C113.895 62.8171 110.962 69.7056 105.84 74.752C100.719 79.7983 93.8271 82.5919 86.6715 82.5217Z" fill="#009A90"/>
<path d="M85.8993 131C85.6022 130.997 85.3087 130.935 85.0356 130.816C84.7626 130.698 84.5155 130.526 84.3086 130.311C84.1017 130.096 83.9391 129.841 83.8303 129.562C83.7216 129.283 83.6687 128.985 83.6748 128.685L84.3016 76.0847V75.9998L84.5539 55.0679C84.5715 54.4739 84.8145 53.9093 85.2329 53.4912C85.6512 53.0731 86.2128 52.8335 86.8013 52.8219C87.3962 52.8419 87.9601 53.0947 88.3738 53.5267C88.7875 53.9588 89.0185 54.5364 89.0182 55.1374L88.8348 70.7205L101.991 58.3096C102.206 58.1055 102.46 57.9464 102.737 57.8414C103.013 57.7364 103.308 57.6876 103.603 57.6976C103.898 57.7077 104.189 57.7764 104.458 57.8999C104.727 58.0235 104.969 58.1994 105.171 58.4176C105.576 58.8581 105.791 59.4426 105.769 60.0431C105.748 60.6435 105.491 61.2109 105.056 61.6207L88.7583 77.0031L88.1391 128.715C88.1411 129.014 88.0847 129.31 87.9732 129.587C87.8616 129.863 87.697 130.115 87.489 130.327C87.2809 130.539 87.0333 130.708 86.7605 130.824C86.4877 130.939 86.1951 130.999 85.8993 131Z" fill="#C79F62"/>
</g>
<g clip-path="url(#clip6_75_1444)">
<path d="M1453.36 79.8646C1460.28 79.7025 1466.86 76.8334 1471.66 71.8822C1476.47 66.9309 1479.1 60.2987 1478.99 53.4301C1478.83 46.5613 1475.94 40.0341 1470.95 35.2708C1465.95 30.5075 1459.27 27.8941 1452.34 28C1445.41 28.1602 1438.83 31.0295 1434.03 35.9826C1429.22 40.9356 1426.59 47.5708 1426.7 54.4419C1426.86 61.3107 1429.76 67.8371 1434.75 72.599C1439.74 77.3609 1446.43 79.9725 1453.36 79.8646Z" fill="#68D765"/>
<path d="M1430.43 100.057C1434.97 99.9552 1439.27 98.0802 1442.41 94.8408C1445.56 91.6015 1447.28 87.2608 1447.21 82.7662C1447.1 78.2714 1445.21 73.9999 1441.94 70.8834C1438.68 67.7669 1434.3 66.0583 1429.77 66.1302C1425.23 66.2338 1420.93 68.1107 1417.79 71.3514C1414.65 74.5922 1412.93 78.9337 1413 83.4283C1413.1 87.9211 1415 92.1906 1418.26 95.3057C1421.53 98.4208 1425.9 100.129 1430.43 100.057Z" fill="#009A90"/>
<path d="M1451.98 130.494C1451.4 130.494 1450.84 130.268 1450.43 129.864C1450.02 129.46 1449.78 128.911 1449.77 128.336L1449.02 66.7329C1449.02 66.4444 1449.07 66.1576 1449.17 65.889C1449.28 65.6203 1449.44 65.3752 1449.64 65.1678C1449.84 64.9603 1450.09 64.7946 1450.35 64.6801C1450.62 64.5657 1450.91 64.5047 1451.2 64.5009C1451.78 64.5008 1452.34 64.7282 1452.75 65.1336C1453.16 65.539 1453.4 66.0897 1453.4 66.6659L1454.15 128.262C1454.16 128.551 1454.11 128.839 1454 129.108C1453.89 129.377 1453.74 129.622 1453.53 129.83C1453.33 130.037 1453.09 130.203 1452.82 130.317C1452.55 130.431 1452.26 130.491 1451.97 130.494H1451.98Z" fill="#C79F62"/>
<path d="M1453.25 76.6951C1452.76 76.6949 1452.27 76.527 1451.88 76.2189C1451.65 76.0406 1451.46 75.8196 1451.32 75.5687C1451.18 75.3178 1451.09 75.0418 1451.06 74.7565C1451.03 74.4712 1451.05 74.1821 1451.13 73.9058C1451.21 73.6295 1451.34 73.3714 1451.52 73.1462L1462.97 58.8241C1463.15 58.5989 1463.37 58.411 1463.62 58.2712C1463.88 58.1313 1464.16 58.0423 1464.44 58.0091C1464.73 57.976 1465.02 57.9993 1465.3 58.0779C1465.58 58.1564 1465.84 58.2887 1466.07 58.467C1466.29 58.6453 1466.48 58.8662 1466.62 59.1171C1466.77 59.3681 1466.86 59.644 1466.89 59.9294C1466.92 60.2147 1466.9 60.5038 1466.82 60.7801C1466.74 61.0564 1466.61 61.3145 1466.43 61.5397L1454.98 75.8618C1454.77 76.1182 1454.51 76.3259 1454.21 76.4699C1453.91 76.614 1453.59 76.6909 1453.25 76.6951Z" fill="#C79F62"/>
<path d="M1435.77 130.993C1435.19 130.993 1434.64 130.768 1434.22 130.368C1433.81 129.967 1433.57 129.422 1433.56 128.85L1432.94 96.999L1422.78 87.7286C1422.35 87.3356 1422.1 86.7899 1422.07 86.211C1422.05 85.6322 1422.26 85.0675 1422.65 84.641C1423.06 84.2224 1423.61 83.9746 1424.19 83.9497C1424.77 83.9247 1425.34 84.1245 1425.78 84.5071L1432.82 90.9428L1432.66 83.0415C1432.66 82.7536 1432.71 82.4673 1432.81 82.1992C1432.92 81.9311 1433.08 81.6863 1433.28 81.4789C1433.48 81.2715 1433.72 81.1057 1433.99 80.9908C1434.25 80.8759 1434.54 80.8143 1434.83 80.8094C1435.41 80.8093 1435.96 81.0336 1436.37 81.4342C1436.79 81.8348 1437.02 82.3798 1437.04 82.9522V83.0637L1437.29 95.9723V96.0392L1437.94 128.775C1437.94 129.063 1437.89 129.348 1437.79 129.616C1437.68 129.884 1437.52 130.128 1437.32 130.335C1437.12 130.543 1436.88 130.709 1436.62 130.824C1436.35 130.939 1436.06 131.002 1435.78 131.007L1435.77 130.993Z" fill="#C79F62"/>
</g>
<g clip-path="url(#clip7_75_1444)">
<path d="M1880.88 95.2292C1886.04 95.1118 1890.95 92.9436 1894.54 89.198C1898.12 85.4523 1900.08 80.4333 1900 75.2361C1899.88 70.0389 1897.72 65.0998 1894 61.4962C1890.27 57.8926 1885.28 55.9169 1880.12 56.0001C1874.95 56.1198 1870.04 58.2901 1866.46 62.0373C1862.88 65.7846 1860.92 70.8046 1861 76.0018C1861.12 81.1968 1863.28 86.1336 1867 89.7355C1870.72 93.3375 1875.71 95.3124 1880.88 95.2292Z" fill="#009A90"/>
<path d="M1886.96 131C1886.3 131 1885.67 130.741 1885.2 130.278C1884.73 129.814 1884.46 129.184 1884.44 128.522L1883.73 91.6934L1872.15 80.9741C1871.66 80.5197 1871.37 79.8887 1871.35 79.2193C1871.32 78.55 1871.56 77.8971 1872.01 77.4039C1872.46 76.9199 1873.09 76.6334 1873.76 76.6045C1874.42 76.5757 1875.07 76.8067 1875.57 77.2491L1883.6 84.6906L1883.42 75.5544C1883.41 75.2215 1883.47 74.8905 1883.59 74.5805C1883.71 74.2704 1883.89 73.9874 1884.12 73.7476C1884.35 73.5078 1884.62 73.3161 1884.93 73.1832C1885.23 73.0504 1885.56 72.9791 1885.89 72.9735C1886.55 72.9734 1887.18 73.2327 1887.65 73.6959C1888.12 74.1591 1888.39 74.7893 1888.4 75.4511V75.5801L1888.69 90.5062V90.5836L1889.43 128.436C1889.44 128.768 1889.38 129.099 1889.26 129.408C1889.14 129.718 1888.96 130 1888.73 130.24C1888.5 130.48 1888.23 130.672 1887.92 130.805C1887.62 130.938 1887.3 131.01 1886.97 131.017L1886.96 131Z" fill="#C79F62"/>
</g>
<g clip-path="url(#clip8_75_1444)">
<path d="M853.88 92.5043C859.046 92.3887 863.955 90.2592 867.536 86.5808C871.117 82.9023 873.078 77.974 872.991 72.8723C872.874 67.7727 870.719 62.926 866.996 59.3902C863.273 55.8544 858.284 53.9166 853.12 54C847.955 54.1134 843.045 56.2411 839.464 59.9181C835.883 63.5951 833.922 68.5225 834.009 73.6234C834.121 78.7252 836.275 83.5755 839.999 87.1137C843.722 90.6519 848.713 92.59 853.88 92.5043Z" fill="#68D765"/>
<path d="M852.849 131C852.173 131 851.524 130.737 851.043 130.269C850.562 129.8 850.287 129.164 850.278 128.496L849.71 82.7401C849.703 82.4054 849.763 82.0726 849.887 81.7609C850.011 81.4492 850.196 81.1647 850.432 80.924C850.667 80.6833 850.949 80.4909 851.26 80.3581C851.571 80.2253 851.906 80.1546 852.245 80.1501C852.921 80.1501 853.569 80.4128 854.05 80.8813C854.532 81.3499 854.806 81.9866 854.816 82.6538L855.384 128.41C855.391 128.745 855.331 129.078 855.207 129.389C855.083 129.701 854.898 129.985 854.662 130.226C854.426 130.467 854.145 130.659 853.834 130.792C853.522 130.925 853.188 130.996 852.849 131Z" fill="#C79F62"/>
<path d="M853.819 91.0626C853.238 91.0624 852.674 90.8676 852.219 90.5101C851.697 90.0844 851.361 89.4754 851.283 88.8107C851.204 88.146 851.39 87.4773 851.8 86.9445L860.341 76.317C860.55 76.0547 860.809 75.8358 861.104 75.6729C861.399 75.51 861.723 75.4063 862.059 75.3677C862.395 75.3292 862.735 75.3567 863.06 75.4485C863.384 75.5403 863.688 75.6946 863.952 75.9026C864.485 76.3217 864.828 76.9328 864.905 77.6014C864.982 78.27 864.787 78.9414 864.363 79.4681L855.83 90.0957C855.591 90.397 855.286 90.6406 854.938 90.8081C854.589 90.9756 854.207 91.0627 853.819 91.0626Z" fill="#C79F62"/>
</g>
<defs>
<clipPath id="clip0_75_1444">
<rect width="51.25" height="28.64" fill="white" transform="translate(749 102)"/>
</clipPath>
<clipPath id="clip1_75_1444">
<rect width="51.25" height="28.64" fill="white" transform="translate(1279 102)"/>
</clipPath>
<clipPath id="clip2_75_1444">
<rect width="51.25" height="28.64" fill="white" transform="translate(1723 102)"/>
</clipPath>
<clipPath id="clip3_75_1444">
<rect width="51.25" height="28.64" fill="white" transform="translate(1793 102)"/>
</clipPath>
<clipPath id="clip4_75_1444">
<rect width="82.56" height="28.64" fill="white" transform="translate(172 102)"/>
</clipPath>
<clipPath id="clip5_75_1444">
<rect width="54" height="103" fill="white" transform="translate(60 28)"/>
</clipPath>
<clipPath id="clip6_75_1444">
<rect width="66" height="103" fill="white" transform="translate(1413 28)"/>
</clipPath>
<clipPath id="clip7_75_1444">
<rect width="39" height="75" fill="white" transform="translate(1861 56)"/>
</clipPath>
<clipPath id="clip8_75_1444">
<rect width="39" height="77" fill="white" transform="translate(834 54)"/>
</clipPath>
</defs>
</svg>
