<svg width="250" height="150" viewBox="0 0 250 150" fill="none" xmlns="http://www.w3.org/2000/svg">
<g clip-path="url(#clip0_212_2062)">
<path d="M60.0765 114.439L61.6121 117.509C64.7442 119.192 70.6768 118.877 74.2364 118.342C81.8267 117.202 87.7594 110.204 89.705 103.04C91.5546 96.2346 88.5882 90.368 87.3057 83.8525C87.0536 82.5388 86.899 81.2081 86.8433 79.8713C83.9748 79.4594 81.2047 78.5264 78.6685 77.1178C75.0391 75.0921 72.8928 72.4526 70.6506 69.3132C69.2082 72.4608 68.2521 75.8112 67.8152 79.2487C67.0823 84.5102 67.7105 90.105 67.9722 95.3928C68.295 102.82 67.7541 110.765 60.0765 114.439Z" fill="#FFA94C"/>
<path d="M70.6157 69.3132C72.8579 72.4525 74.978 75.092 78.6335 77.1177C81.1805 78.5304 83.9627 79.4635 86.8433 79.8712C86.6736 74.6209 87.451 69.3831 89.1379 64.4112C91.319 57.9044 94.7215 52.4676 98.8919 47.092C94.6168 48.7933 90.3593 49.7228 86.3024 52.0379C81.9633 54.5359 78.1779 57.8991 75.1786 61.9207C73.3853 64.2041 71.8546 66.684 70.6157 69.3132V69.3132Z" fill="#FFC77F"/>
<path d="M30.0992 101.698C30.2359 103.407 30.4778 105.105 30.8234 106.784C31.5937 110.476 33.6063 113.789 36.5223 116.164C39.4383 118.539 43.0796 119.831 46.8328 119.824H50.6716C53.2176 119.823 55.7361 119.295 58.0703 118.273C60.4044 117.252 62.5042 115.757 64.2386 113.884C65.9731 112.011 67.3051 109.798 68.1516 107.385C68.9981 104.972 69.341 102.409 69.1588 99.8563C69.0367 98.1025 68.8186 96.1908 68.4871 94.2177C67.0327 86.0672 64.1179 78.2498 59.8847 71.146L36.5292 72.0931C36.5292 72.0931 28.808 85.773 30.0992 101.698Z" fill="#FFA94C"/>
<path d="M35.6741 73.9346L38.6405 82.3091C28.7469 89.7629 26.051 96.6204 25.5537 101.014C25.4767 101.597 25.2751 102.157 24.9627 102.654C24.6503 103.152 24.2345 103.575 23.7438 103.896C23.2531 104.217 22.6992 104.427 22.1201 104.512C21.541 104.597 20.9504 104.556 20.3888 104.39V104.39C19.5257 104.138 18.7692 103.607 18.2362 102.879C17.7032 102.152 17.4233 101.268 17.4399 100.365C17.5969 78.591 35.6741 73.9346 35.6741 73.9346Z" fill="#FFA94C"/>
<path d="M61.6033 109.353L48.0193 109.16L55.4089 136.345C55.3818 136.883 55.4636 137.42 55.6494 137.925C55.8353 138.43 56.1213 138.892 56.4901 139.282C56.8589 139.672 57.3028 139.983 57.7949 140.196C58.2869 140.409 58.8168 140.519 59.3524 140.519V140.519C60.2797 140.519 61.1776 140.192 61.889 139.594C62.6003 138.996 63.0798 138.166 63.2436 137.248L61.6033 109.353Z" fill="#FFA94C"/>
<path d="M47.3476 109.914L33.7548 109.529L32.4287 136.906C32.4015 137.444 32.4835 137.983 32.6699 138.488C32.8563 138.994 33.1431 139.456 33.5128 139.846C33.8826 140.237 34.3275 140.547 34.8206 140.76C35.3137 140.972 35.8445 141.081 36.3809 141.08V141.08C37.3102 141.084 38.211 140.758 38.9245 140.16C39.638 139.561 40.1183 138.729 40.2807 137.809L47.3476 109.914Z" fill="#FFA94C"/>
<path d="M33.4668 100.26C33.4668 101.768 33.5453 103.241 33.6849 104.644C33.9625 107.607 35.3281 110.359 37.5154 112.365C39.7027 114.37 42.5547 115.485 45.5153 115.492V115.492C48.4787 115.492 51.336 114.383 53.5298 112.381C55.7236 110.379 57.0965 107.627 57.3807 104.662C57.5115 103.241 57.5901 101.768 57.5901 100.277C57.5901 87.2812 52.1896 76.7231 45.5328 76.7231C38.876 76.7231 33.4668 87.2637 33.4668 100.26Z" fill="#F6F0F4"/>
<path d="M30.0992 101.698C31.2509 102.242 32.385 102.715 33.4931 103.127C43.3343 106.775 51.483 105.241 57.5378 102.382C61.6791 100.399 65.3977 97.626 68.4871 94.2177C67.0327 86.0672 64.1179 78.2498 59.8847 71.146L36.5292 72.0931C36.5292 72.0931 28.808 85.773 30.0992 101.698Z" fill="#6561D2"/>
<path d="M33.7373 99.1897C38.4485 101.584 46.1697 100.391 51.1078 99.4616C51.4655 99.3914 51.6225 99.9527 51.2561 100.023C45.9167 101.022 38.5358 102.259 33.4494 99.7071C33.1179 99.523 33.4058 99.0231 33.7373 99.1897Z" fill="white"/>
<path d="M36.6338 76.8458C42.0085 78.572 47.726 78.9276 53.2714 77.8806C53.6379 77.8105 53.7862 78.3629 53.4285 78.4331C47.7806 79.5084 41.9554 79.1559 36.4768 77.4071C36.4027 77.3861 36.34 77.3365 36.3023 77.2691C36.2647 77.2017 36.2553 77.122 36.2761 77.0475C36.2969 76.9731 36.3463 76.9101 36.4134 76.8722C36.4805 76.8344 36.5598 76.8249 36.6338 76.8458V76.8458Z" fill="white"/>
<path d="M37.7244 79.7661C42.584 80.1958 48.3683 80.9938 53.0621 79.4153C53.4198 79.3013 53.5681 79.8626 53.2191 79.9766C48.4468 81.5726 42.6363 80.7833 37.7244 80.3449C37.358 80.3098 37.358 79.731 37.7244 79.7661Z" fill="white"/>
<path d="M69.9441 54.2038L69.8743 54.1073C85.116 35.2185 78.8692 19.0306 78.8692 19.0306C70.1447 26.6159 66.9079 39.6732 65.7825 45.6626L60.4692 34.6573C60.539 34.0434 64.0899 18.3115 78.4155 15.6106C78.4155 15.6106 90.5077 43.1897 69.9441 54.2038Z" fill="#FFA94C"/>
<path d="M69.8741 54.1074L65.7998 45.7066C66.9078 39.7172 70.1621 26.6599 78.8866 19.0746C78.8691 19.0307 85.1159 35.2186 69.8741 54.1074Z" fill="#FFC492"/>
<path d="M37.3143 43.9878L25.6235 48.0743C26.4087 45.1366 32.3152 22.6437 31.2769 9.96342C19.0626 22.0474 18.0244 35.0696 23.0061 48.6004C21.3746 46.4783 12.4495 33.2105 26.9845 13.2168L32.1145 6.53467C32.1145 6.53467 41.5806 23.845 37.3143 43.9878Z" fill="#FFA94C"/>
<path d="M31.277 9.96338C32.3152 22.6612 26.4088 45.1366 25.6235 48.0742L23.2505 48.8986C23.2505 48.8986 23.1632 48.8021 23.0062 48.6004C18.0245 35.0695 19.0627 22.0473 31.277 9.96338Z" fill="#FFC492"/>
<path d="M76.2082 57.3432C57.0841 59.6934 44.0235 54.5196 44.0235 54.5196C26.496 59.8512 17.2742 59.2637 12.4059 57.2906C11.0609 55.5738 9.93536 53.6942 9.05567 51.6959C9.05567 51.6959 11.7603 53.0551 12.9381 52.0817C12.9381 52.0817 8.855 50.4419 8 48.7144C8 48.7144 12.7025 51.2311 16.3581 47.3639C16.3581 47.3639 25.7195 23.8186 46.4489 23.2399L47.4871 23.1873C49.3193 23.0382 57.0841 22.9593 64.0637 30.7901C64.0637 30.7901 70.3366 37.2004 75.17 55.2386C75.3927 55.9951 75.744 56.7071 76.2082 57.3432V57.3432Z" fill="#FFA94C"/>
<path d="M83.5543 60.2897C83.5543 60.2897 78.8692 67.5768 60.4867 73.724L54.6238 75.3113C46.3243 77.5264 37.4905 76.3637 30.0382 72.0754L29.8113 71.9527C29.8113 71.9527 18.8446 65.6827 12.3623 57.2906C17.2306 59.2637 26.4524 59.8512 43.9799 54.5195C43.9799 54.5195 57.0667 59.6933 76.1646 57.3432C77.3075 58.9129 79.4799 60.7106 83.5543 60.2897Z" fill="#FFC492"/>
<path d="M49.0052 56.1419C49.1099 57.4924 47.4348 58.7727 45.2537 58.913C43.0725 59.0533 41.2142 58.1325 41.1095 56.7821C41.0048 55.4316 42.6799 54.1513 44.861 54.0022C47.0422 53.8532 48.9005 54.7827 49.0052 56.1419Z" fill="#3E3A39"/>
<path d="M61.2195 115.693C68.0159 112.186 69.3594 101.023 68.4346 94.3493C68.3823 93.981 68.9407 93.8319 68.993 94.1914C69.9527 101.207 68.5655 112.554 61.5161 116.193C61.1584 116.369 60.8705 115.86 61.2195 115.693Z" fill="white"/>
<path d="M79.8463 66.0685C80.0993 65.8054 80.5093 66.2088 80.2476 66.4719C71.5231 75.4515 70.8077 90.8765 74.3411 102.426C74.4458 102.776 73.8962 102.934 73.7827 102.575C70.1883 90.8151 70.9211 75.2147 79.8463 66.0685Z" fill="white"/>
<path d="M77.8397 78.1787C78.3632 75.241 79.1222 70.5145 81.6872 68.5326C81.9751 68.3046 82.2631 68.8132 81.9752 69.0325C78.8343 71.4089 78.1538 79.1258 77.8921 82.5721C77.6856 86.4082 77.7147 90.2535 77.9793 94.086C77.9793 94.4631 77.421 94.4631 77.4035 94.086C77.1331 88.8245 76.9237 83.4402 77.8397 78.1787Z" fill="white"/>
<path d="M20.0223 42.5321C20.1091 42.525 20.1922 42.4943 20.2629 42.4433C20.3336 42.3923 20.3892 42.323 20.4237 42.2427C23.9437 34.8133 30.2014 29.0518 37.8727 26.1776C38.0105 26.1242 38.123 26.0203 38.1878 25.887C38.2525 25.7536 38.2646 25.6005 38.2217 25.4585C38.2135 25.3879 38.1908 25.3198 38.1549 25.2585C38.1189 25.1973 38.0707 25.1444 38.0131 25.103C37.9556 25.0617 37.8901 25.033 37.8208 25.0187C37.7515 25.0044 37.68 25.0049 37.611 25.02C29.6785 27.9855 23.2071 33.9396 19.5687 41.6201C19.5005 41.757 19.4806 41.9132 19.5123 42.063C19.544 42.2127 19.6254 42.3472 19.7432 42.4444C19.8249 42.5021 19.9225 42.5328 20.0223 42.5321V42.5321Z" fill="white"/>
<path d="M30.4045 55.4578C31.7743 55.791 33.3185 54.2477 33.8507 52.0203C34.3829 49.7929 33.7111 47.7146 32.3414 47.3814C30.9716 47.0482 29.4187 48.5828 28.8516 50.8189C28.2845 53.055 29.0261 55.1246 30.4045 55.4578Z" fill="#3E3A39"/>
<path d="M60.8967 56.6329C62.2926 56.4137 63.1301 54.388 62.7637 52.1256C62.3973 49.8631 61.0188 48.2058 59.588 48.425C58.1572 48.6442 57.3545 50.6699 57.7297 52.9411C58.1048 55.2123 59.4746 56.8609 60.8967 56.6329Z" fill="#3E3A39"/>
<path d="M53.6292 64.1306C47.6355 60.5001 43.9712 65.0075 43.9363 65.1039C43.8055 65.2702 43.7459 65.4819 43.7704 65.6924C43.795 65.9029 43.9017 66.095 44.0671 66.2264C44.2326 66.3578 44.4432 66.4177 44.6526 66.3931C44.862 66.3684 45.0531 66.2611 45.1839 66.0948C45.306 65.937 48.0542 62.5872 52.8091 65.4985C52.9873 65.6148 53.2041 65.6552 53.4119 65.6108C53.6197 65.5664 53.8014 65.4409 53.9171 65.2618C54.0328 65.0827 54.073 64.8648 54.0288 64.6559C53.9846 64.447 53.8597 64.2644 53.6815 64.1481L53.6292 64.1306Z" fill="#3E3A39"/>
<path d="M17.3863 42.3968L22.3503 46.894L36.86 30.714L31.8959 26.2167L17.3863 42.3968Z" fill="white" stroke="#C4BEBB" stroke-miterlimit="10"/>
<path d="M31.9334 46.2004L36.8108 40.7615L21.6853 27.0582L16.8078 32.4972L31.9334 46.2004Z" fill="white" stroke="#C4BEBB" stroke-miterlimit="10"/>
<path d="M20.5022 140.072L22.3082 140.422L33.4494 86.2728L30.8756 85.7642L20.5022 140.072Z" fill="#804F21"/>
<path d="M29.0375 86.9646C28.7694 88.3331 29.6558 89.661 31.0174 89.9305C32.3789 90.2 33.7 89.309 33.9681 87.9405L34.5615 84.9119C34.8296 83.5434 33.9432 82.2155 32.5816 81.946C31.2201 81.6766 29.899 82.5675 29.6308 83.936L29.0375 86.9646Z" fill="#888888"/>
<path d="M20.2143 140.607L22.4565 141.054C22.6571 141.093 22.8634 141.093 23.0636 141.052C23.2639 141.011 23.4542 140.931 23.6236 140.816C23.793 140.701 23.9381 140.554 24.0508 140.383C24.1634 140.211 24.2413 140.019 24.28 139.817L24.2014 137.467C24.3672 136.59 24.0793 135.845 23.233 135.713L21.715 135.415C21.519 135.381 21.3183 135.387 21.1244 135.431C20.9304 135.475 20.7471 135.558 20.585 135.673C20.4228 135.789 20.285 135.936 20.1795 136.105C20.074 136.275 20.0028 136.463 19.9701 136.661L19.0104 138.809C18.9404 139.207 19.0268 139.617 19.2514 139.952C19.476 140.287 19.8211 140.522 20.2143 140.607V140.607Z" fill="#595757"/>
<path d="M70.7902 141.624L72.6137 141.405L66.6461 86.4307L64.0375 86.7464L70.7902 141.624Z" fill="#804F21"/>
<path d="M62.6544 88.472C62.8182 89.857 64.0681 90.8464 65.4461 90.6817C66.8241 90.517 67.8084 89.2607 67.6445 87.8757L67.282 84.8105C67.1181 83.4255 65.8682 82.4361 64.4902 82.6008C63.1122 82.7655 62.128 84.0218 62.2918 85.4068L62.6544 88.472Z" fill="#888888"/>
<path d="M70.642 142.247L72.9016 141.975C73.3145 141.924 73.6905 141.711 73.9473 141.383C74.2041 141.054 74.3206 140.636 74.2714 140.221L73.4338 138.02C73.3291 137.143 72.8231 136.52 71.9681 136.617L70.4326 136.801C70.2313 136.826 70.0372 136.893 69.8621 136.996C69.6869 137.099 69.5344 137.236 69.4137 137.4C69.293 137.564 69.2067 137.751 69.1599 137.949C69.113 138.148 69.1068 138.354 69.1414 138.555L68.8796 140.887C68.9054 141.093 68.9716 141.292 69.0744 141.472C69.1772 141.653 69.3145 141.81 69.4784 141.937C69.6423 142.063 69.8296 142.156 70.0293 142.209C70.2291 142.262 70.4373 142.275 70.642 142.247V142.247Z" fill="#595757"/>
<path d="M33.5715 116.43L32.3151 137.941C32.2366 139.282 32.8212 140.379 33.7634 140.633L36.4942 141.378C37.7767 141.72 39.225 140.624 39.8269 138.844L45.1053 123.384L33.5715 116.43Z" fill="white" stroke="#C4BEBB" stroke-linecap="round" stroke-linejoin="round"/>
<path d="M44.8 125.032L43.7705 128.794C43.7705 128.794 32.8648 126.015 32.638 122.56C32.5046 120.47 32.8231 118.376 33.5715 116.421C33.5715 116.421 36.7036 124.103 44.8 125.032Z" fill="white" stroke="#C4BEBB" stroke-linecap="round" stroke-linejoin="round"/>
<path d="M42.3571 134.135L41.3537 137.309C41.3537 137.309 33.301 138.335 32.4286 136.538L31.4863 134.24C31.4863 134.24 38.8934 134.205 42.3571 134.135Z" fill="white" stroke="#C4BEBB" stroke-linecap="round" stroke-linejoin="round"/>
<path d="M32.3326 123.708L32.4722 129.496C32.4722 129.496 33.1004 133.398 42.3571 134.135L43.0812 131.434C43.0812 131.434 33.9903 127.549 32.3326 123.708Z" fill="white" stroke="#C4BEBB" stroke-linecap="round" stroke-linejoin="round"/>
<path d="M58.9074 75.4427C58.4495 76.2797 58.2703 77.242 58.3958 78.1888C58.5214 79.1356 58.9453 80.0171 59.6054 80.7043C66.8729 88.1756 68.7487 95.3751 68.9057 99.3914C68.9319 99.9809 69.0847 100.558 69.3537 101.082C69.6227 101.607 70.0015 102.066 70.4641 102.43C70.9267 102.793 71.4621 103.051 72.0335 103.187C72.6048 103.322 73.1986 103.332 73.774 103.215C74.6547 103.033 75.4516 102.565 76.0425 101.884C76.6335 101.203 76.9859 100.346 77.0457 99.444C78.1101 84.7995 70.4325 77.2317 65.3287 73.8643C64.811 73.5199 64.228 73.2869 63.6164 73.1799C63.0048 73.0728 62.3777 73.0941 61.7747 73.2423C61.1717 73.3906 60.6056 73.6626 60.1122 74.0412C59.6188 74.4199 59.2086 74.8971 58.9074 75.4427V75.4427Z" fill="#FFA94C"/>
<path d="M78.3457 101.461C78.2888 102.364 77.9374 103.222 77.3459 103.904C76.7545 104.586 75.956 105.052 75.074 105.232C74.5026 105.35 73.9126 105.343 73.3442 105.211C72.7757 105.079 72.2423 104.826 71.7802 104.468C71.3181 104.11 70.9383 103.656 70.6666 103.137C70.3949 102.618 70.2377 102.046 70.2057 101.461C70.2057 101.461 67.7192 87.7986 62.2926 85.4485" stroke="white" stroke-width="0.75" stroke-linecap="round" stroke-linejoin="round"/>
<path d="M104.938 70.9091C104.938 70.9091 98.7349 84.2207 89.4782 92.034C85.9884 96.0152 91.1097 95.4891 91.1097 95.4891C91.1097 95.4891 88.6581 97.5411 90.3681 98.7775C91.4063 99.6544 92.7935 98.0935 92.7935 98.0935C92.7935 98.0935 91.197 100.058 93.1512 101.294C95.1055 102.531 99.1712 99.8035 103.272 95.6908C107.372 91.578 112.694 83.0456 113.994 78.205C113.994 78.205 110.888 68.6203 104.938 70.9091Z" fill="#7BBFAD"/>
<path d="M123.033 128.847C123.033 128.847 125.493 117.254 121.794 110.923C118.095 104.592 104.72 102.811 101.727 114.86C98.7349 126.909 102.076 132.399 102.076 132.399C102.076 132.399 97.4175 133.127 97.7141 136.205C98.0108 139.283 117.746 139.361 123.033 128.847Z" fill="#7BBFAD"/>
<path d="M146.318 84.6154L146.51 84.3611L146.414 84.4839L146.51 84.3611L146.493 84.3786L146.502 84.3611L146.475 84.3874L146.484 84.3786L146.266 84.5628L146.31 84.6066L146.318 84.6154Z" fill="#1E1E1E"/>
<path d="M99.1798 95.9891C99.6073 91.3064 101.352 82.3794 101.352 82.3794C101.352 82.3794 107.224 59.3953 107.259 57.4924C109.955 58.0098 116.725 59.141 120.598 58.3693C120.598 58.3693 128.285 102.215 123.111 116.693C122.523 118.392 122.16 120.161 122.029 121.955C121.637 126.252 122.195 129.917 120.284 131.89C102.347 126.953 99.2758 113.896 98.953 109.616C98.7039 105.074 98.7797 100.52 99.1798 95.9891V95.9891Z" fill="#FFECAD"/>
<path d="M143.151 49.0916C142.776 50.1789 141.843 49.872 140.072 49.3283C140.072 49.3283 143.64 52.6957 143.125 54.8617C142.61 57.0277 140.351 55.1423 140.045 55.0897C139.74 55.0371 143.239 58.422 142.863 60.5704C142.488 62.7189 140.316 60.7633 140.316 60.7633C140.316 60.7633 144.102 65.5075 143.378 67.4367C142.253 68.5854 140.857 67.0947 140.857 67.0947C141.738 68.349 142.476 69.6992 143.055 71.1197C145.49 70.0494 147.787 68.6861 149.895 67.0596C154.537 64.4815 152.888 69.4185 152.888 69.4185C152.888 69.4185 155.418 67.463 156.247 69.4185C156.866 70.6199 155.052 71.6371 155.052 71.6371C155.052 71.6371 157.311 70.5147 158.079 72.6894C158.847 74.8642 152.408 79.7048 147.514 82.8266C145.847 83.8877 148.77 83.0809 148.246 84.5804C148.246 84.6331 148.246 84.6857 148.246 84.7295C147.679 85.3258 148.351 85.3872 147.819 85.2732L147.33 85.4574C148.543 86.7815 150.471 89.2544 149.948 90.9995C149.624 91.2874 149.201 91.4366 148.769 91.4153C148.337 91.394 147.93 91.2039 147.636 90.8855C147.234 90.447 146.946 90.1576 146.946 90.1576C147.146 90.4277 147.377 90.6722 147.636 90.8855C148.215 91.5201 148.735 92.207 149.189 92.9375C149.765 93.9196 150.122 94.9632 149.695 95.7261C148.822 97.2958 147.548 96.4101 147.13 96.0505C147.784 96.6644 150.62 99.4442 149.878 101.251C149.59 101.498 149.231 101.644 148.853 101.668C148.475 101.692 148.1 101.591 147.784 101.382C147.357 100.961 147.042 100.698 147.042 100.698C147.247 100.969 147.498 101.2 147.784 101.382C148.657 102.259 150.052 103.873 150.113 105.407C150.201 107.67 147.06 106.012 147.06 106.012C147.06 106.012 150.628 108.248 149.416 109.248C149.133 109.536 148.757 109.711 148.356 109.742C147.955 109.772 147.557 109.656 147.234 109.415C147.234 109.415 148.979 112.247 152.391 108.652C155.802 105.056 157.119 98.1288 157.939 94.8755C158.759 91.6221 158.602 80.6606 161.7 80.6606C163.122 80.6606 165.416 83.8 166.472 87.676C167.876 93.2576 168.464 99.0151 168.217 104.767C166.943 111.923 163.165 125.892 148.491 131.075C147.819 133.109 147.234 134.46 147.234 134.46C139.915 143.658 115.198 139.493 115.582 136.424C115.966 133.355 120.66 133.618 120.66 133.618C120.493 133.046 120.385 132.458 120.337 131.864V131.864C120.337 131.583 120.284 131.259 120.267 130.899C120.267 130.706 120.267 130.496 120.267 130.285C120.267 128.686 120.431 127.09 120.756 125.524V125.48L120.834 125.077C121.41 122.23 122.197 119.43 123.19 116.702C127.814 103.75 122.178 67.4016 120.913 59.79C120.764 58.913 120.677 58.3781 120.677 58.3781C116.803 59.1498 110.033 58.0186 107.337 57.5012C107.337 57.4135 107.337 57.3697 107.337 57.3784C106.521 57.3633 105.709 57.2484 104.921 57.0364" fill="#8DCEBF"/>
<path d="M141.485 113.457C140.263 113.554 139.426 115.597 139.609 118.035C139.792 120.473 140.918 122.367 142.139 122.27C143.361 122.174 144.198 120.131 144.015 117.702C143.832 115.272 142.698 113.37 141.485 113.457Z" fill="#7BBFAD"/>
<path d="M136.634 88.1933C135.421 88.2898 134.575 90.333 134.758 92.7709C134.942 95.2087 136.076 97.1028 137.288 97.0064C138.501 96.9099 139.347 94.8667 139.164 92.4376C138.981 90.0086 137.856 88.1057 136.634 88.1933Z" fill="#7BBFAD"/>
<path d="M144.538 97.015C143.771 97.0676 143.247 98.3567 143.361 99.8825C143.474 101.408 144.181 102.601 144.949 102.513C145.716 102.426 146.24 101.172 146.126 99.6458C146.013 98.1199 145.297 96.9536 144.538 97.015Z" fill="#7BBFAD"/>
<path d="M138.519 107.371C137.986 107.415 137.646 108.31 137.699 109.371C137.751 110.432 138.274 111.265 138.807 111.221C139.339 111.177 139.679 110.292 139.627 109.23C139.574 108.169 139.051 107.336 138.519 107.371Z" fill="#7BBFAD"/>
<path d="M141.843 91.2274C141.311 91.2274 140.97 92.1657 141.023 93.2268C141.075 94.2878 141.598 95.1209 142.131 95.0771C142.663 95.0332 143.003 94.1475 142.951 93.0865C142.898 92.0254 142.357 91.1923 141.843 91.2274Z" fill="#7BBFAD"/>
<path d="M147.374 114.019C146.842 114.019 146.502 114.948 146.554 116.018C146.606 117.088 147.13 117.903 147.662 117.868C148.194 117.833 148.534 116.93 148.482 115.869C148.43 114.808 147.906 113.975 147.374 114.019Z" fill="#7BBFAD"/>
<path d="M117.449 101.715C117.449 101.715 109.274 103.688 103.612 99.7949" stroke="white" stroke-linecap="round" stroke-linejoin="round"/>
<path d="M119.098 107.643C119.098 107.643 109.649 109.932 103.106 105.433" stroke="white" stroke-linecap="round" stroke-linejoin="round"/>
<path d="M119.787 114.141C119.787 114.141 108.794 116.413 101.186 111.975" stroke="white" stroke-linecap="round" stroke-linejoin="round"/>
<path d="M78.7121 50.5999C78.7121 50.5999 72.0117 59.4918 103.097 61.3509C120.895 62.4119 140.351 60.1758 141.433 53.9146" fill="#8DCEBF"/>
<path d="M120.494 57.6151C120.267 56.7382 120.136 56.2296 120.136 56.2296C116.341 57.3082 109.501 56.7382 106.77 56.4401C106.77 56.3524 106.77 56.3085 106.77 56.3261C105.956 56.369 105.139 56.319 104.336 56.177C98.8221 55.5982 85.4126 53.4498 78.7121 50.5998C70.2057 46.8904 67.7018 41.2606 68.1991 35.8763C68.3304 34.0438 69.0639 32.3071 70.2843 30.9393C72.0292 29.0627 74.4982 28.6681 76.1384 30.7464L102.975 28.861C102.975 28.861 101.457 19.0307 107.206 18.1538C112.956 17.2769 113.959 26.4056 113.811 26.7301C113.663 27.0545 121.314 27.2825 125.083 29.3608C125.083 29.3608 123.338 19.8375 130.161 18.9167C136.983 17.996 137.271 27.8876 137.323 28.6593C137.507 31.483 144.041 30.6411 143.431 34.1488C143.195 35.4116 140.394 35.6659 140.394 35.6659C140.394 35.6659 145.769 36.4376 145.402 39.0683C145.158 40.8221 141.249 41.1642 141.249 41.1642C141.249 41.1642 145.769 42.6637 145.402 45.1804C145.202 46.5572 143.282 47.8112 141.459 47.4166C141.459 47.4166 146.092 48.3636 145.751 50.5647C145.411 52.7658 141.773 52.5641 141.459 52.529C141.145 52.4939 143.858 52.9236 143.666 55.0984C143.474 57.2731 137.123 57.0276 137.123 57.0276" fill="#8DCEBF"/>
<path d="M78.8081 41.9359C80.2913 41.4273 83.3972 38.1476 81.6697 36.3499C79.9423 34.5522 75.7633 42.9794 78.8081 41.9359Z" fill="#3E3A39"/>
<path d="M73.2942 41.8307C71.9332 41.0502 69.499 37.2356 71.5493 35.7975C73.5995 34.3593 76.0511 43.4354 73.2942 41.8307Z" fill="#3E3A39"/>
<path d="M78.6685 50.5996C78.6685 50.5996 87.995 45.5924 111.185 49.3281C134.374 53.0638 130.379 54.9404 130.379 54.9404" stroke="#3E3A39" stroke-linecap="round" stroke-linejoin="round"/>
<path d="M94.8437 62.2979C92.9317 50.6248 93.9147 38.6579 97.7054 27.458C96.5596 26.9029 95.2942 26.6437 94.0236 26.7038C93.7183 26.7038 92.5405 28.5103 92.4096 28.7909C91.4763 30.6958 90.7284 32.6869 90.1761 34.7364C88.2655 41.7517 88.1433 48.0743 88.2655 55.3352C88.2655 57.1943 87.585 58.2641 88.2655 59.9916C88.501 60.5967 90.4117 60.623 91.0399 60.4652C93.0378 59.9741 93.0029 62.7276 94.9048 62.2979" fill="white"/>
<path d="M94.8437 62.2979C92.9317 50.6248 93.9147 38.6579 97.7054 27.458C96.5596 26.9029 95.2942 26.6437 94.0236 26.7038C93.7183 26.7038 92.5405 28.5103 92.4096 28.7909C91.4763 30.6958 90.7284 32.6869 90.1761 34.7364C88.2655 41.7517 88.1433 48.0743 88.2655 55.3352C88.2655 57.1943 87.585 58.2641 88.2655 59.9916C88.501 60.5967 90.4117 60.623 91.0399 60.4652C93.0378 59.9741 93.0029 62.7276 94.9048 62.2979" stroke="#C4BEBB" stroke-linecap="round" stroke-linejoin="round"/>
<path d="M90.9788 60.4651C88.5403 50.015 89.0173 39.0913 92.3573 28.8961C91.6069 28.5102 89.2601 28.9487 87.995 29.0978C87.6809 29.0978 87.1225 30.2992 87.0091 30.5622C86.1578 32.3407 85.4856 34.2002 85.0025 36.1131C83.3448 42.6023 83.5281 48.3111 83.9294 54.8441C84.0341 56.5102 84.4703 56.4489 84.6797 58.8867C84.8525 59.4239 85.1518 59.9112 85.5521 60.3073C87.7071 60.2021 89.0419 61.0702 90.9613 60.509" fill="white"/>
<path d="M90.9788 60.4651C88.5403 50.015 89.0173 39.0913 92.3573 28.8961C91.6069 28.5102 89.2601 28.9487 87.995 29.0978C87.6809 29.0978 87.1225 30.2992 87.0091 30.5622C86.1578 32.3407 85.4856 34.2002 85.0025 36.1131C83.3448 42.6023 83.5281 48.3111 83.9294 54.8441C84.0341 56.5102 84.4703 56.4489 84.6797 58.8867C84.8525 59.4239 85.1518 59.9112 85.5521 60.3073C87.7071 60.2021 89.0419 61.0702 90.9613 60.509" stroke="#C4BEBB" stroke-linecap="round" stroke-linejoin="round"/>
<path d="M102.225 62.1313C99.7207 51.6872 99.7905 38.4545 103.149 27.9314C102.382 27.5368 100.017 27.9314 98.7872 28.1156C98.4731 28.1594 97.9148 29.3696 97.8014 29.6414C96.9526 31.4911 96.2892 33.421 95.8209 35.4028C94.1807 42.12 94.3726 48.0567 94.8525 54.8528C94.9746 56.6067 95.4108 56.5278 95.6464 59.062C95.6987 59.6671 95.943 61.535 96.5712 61.6928C98.4199 62.1248 100.324 62.2667 102.216 62.1137" fill="white"/>
<path d="M102.225 62.1313C99.7207 51.6872 99.7905 38.4545 103.149 27.9314C102.382 27.5368 100.017 27.9314 98.7872 28.1156C98.4731 28.1594 97.9148 29.3696 97.8014 29.6414C96.9526 31.4911 96.2892 33.421 95.8209 35.4028C94.1807 42.12 94.3726 48.0567 94.8525 54.8528C94.9746 56.6067 95.4108 56.5278 95.6464 59.062C95.6987 59.6671 95.943 61.535 96.5712 61.6928C98.4199 62.1248 100.324 62.2667 102.216 62.1137" stroke="#C4BEBB" stroke-linecap="round" stroke-linejoin="round"/>
<path d="M96.0477 62.0874C95.4903 50.2905 97.8556 38.5391 102.931 27.8876C102.277 27.3001 99.9824 26.7827 98.7697 26.6775C98.4644 26.6775 97.6879 28.3086 97.5221 28.5716C96.377 30.3937 95.4043 32.3197 94.6169 34.3242C91.8861 41.2256 91.066 47.6271 90.307 54.9844C90.115 56.8698 89.8009 57.9572 90.307 59.7899C90.4727 60.4388 90.4291 62.2102 91.066 62.1313C93.1075 61.877 94.4424 63.0608 96.0913 62.0611" fill="white"/>
<path d="M96.0477 62.0874C95.4903 50.2905 97.8556 38.5391 102.931 27.8876C102.277 27.3001 99.9824 26.7827 98.7697 26.6775C98.4644 26.6775 97.6879 28.3086 97.5221 28.5716C96.377 30.3937 95.4043 32.3197 94.6169 34.3242C91.8861 41.2256 91.066 47.6271 90.307 54.9844C90.115 56.8698 89.8009 57.9572 90.307 59.7899C90.4727 60.4388 90.4291 62.2102 91.066 62.1313C93.1075 61.877 94.4424 63.0608 96.0913 62.0611" stroke="#C4BEBB" stroke-linecap="round" stroke-linejoin="round"/>
<path d="M128.869 26.6863L132.028 29.7555" stroke="#3E3A39" stroke-width="2" stroke-linecap="round" stroke-linejoin="round"/>
<path d="M132.193 26.8792L128.468 29.545" stroke="#3E3A39" stroke-width="2" stroke-linecap="round" stroke-linejoin="round"/>
<path d="M106.613 24.2046L109.562 27.3703" stroke="#3E3A39" stroke-width="2" stroke-linecap="round" stroke-linejoin="round"/>
<path d="M109.867 24.5552L106.081 26.993" stroke="#3E3A39" stroke-width="2" stroke-linecap="round" stroke-linejoin="round"/>
<path d="M128.494 22.2228C129.144 22.3903 129.831 22.3379 130.448 22.0737C130.577 22.0132 130.676 21.904 130.724 21.7699C130.773 21.6359 130.766 21.4881 130.706 21.359C130.646 21.2299 130.537 21.1302 130.404 21.0817C130.27 21.0331 130.123 21.0399 129.995 21.1003C129.713 21.2171 129.408 21.2645 129.104 21.2385C128.801 21.2126 128.508 21.1141 128.25 20.9512C127.947 20.7876 127.711 20.5227 127.582 20.2024C127.453 19.8822 127.439 19.5267 127.543 19.1974C127.566 19.1312 127.576 19.0611 127.572 18.991C127.568 18.921 127.55 18.8525 127.519 18.7896C127.488 18.7267 127.445 18.6706 127.392 18.6247C127.339 18.5788 127.278 18.5439 127.212 18.5222C127.145 18.4987 127.075 18.4888 127.005 18.4928C126.934 18.4969 126.865 18.515 126.802 18.546C126.739 18.577 126.682 18.6203 126.636 18.6734C126.589 18.7265 126.554 18.7884 126.531 18.8554C126.358 19.41 126.378 20.0073 126.587 20.5491C126.796 21.091 127.183 21.5451 127.683 21.8369C127.932 22.0059 128.206 22.136 128.494 22.2228V22.2228Z" fill="#3E3A39"/>
<path d="M108.506 20.0831C109.137 20.2528 109.806 20.2065 110.408 19.9515C110.952 19.7525 111.411 19.3725 111.709 18.8747C112.008 18.3769 112.127 17.7913 112.049 17.2155C112.039 17.145 112.015 17.077 111.979 17.0157C111.943 16.9544 111.895 16.9009 111.839 16.8584C111.782 16.816 111.717 16.7853 111.648 16.7684C111.579 16.7514 111.508 16.7484 111.438 16.7595C111.299 16.7833 111.174 16.8607 111.091 16.9754C111.008 17.0901 110.973 17.2329 110.993 17.3734C111.035 17.7115 110.96 18.054 110.781 18.3432C110.601 18.6323 110.328 18.8503 110.007 18.9606C109.725 19.0759 109.42 19.1226 109.117 19.0967C108.813 19.0708 108.521 18.973 108.262 18.8115C108.205 18.7706 108.14 18.7415 108.072 18.7258C108.003 18.71 107.932 18.708 107.863 18.7198C107.794 18.7316 107.727 18.757 107.668 18.7946C107.608 18.8321 107.557 18.8811 107.516 18.9387C107.475 18.9963 107.446 19.0613 107.431 19.1302C107.415 19.199 107.413 19.2703 107.425 19.3399C107.437 19.4095 107.462 19.4761 107.499 19.5359C107.537 19.5957 107.585 19.6476 107.643 19.6884C107.907 19.8665 108.199 19.9998 108.506 20.0831V20.0831Z" fill="#3E3A39"/>
<path fill-rule="evenodd" clip-rule="evenodd" d="M208.271 74.8904C214.535 83.1773 223.33 106.039 215.251 109.02C213.462 108.932 210.714 86.1763 210.714 86.1763L208.271 74.8904Z" fill="#D4703F"/>
<path fill-rule="evenodd" clip-rule="evenodd" d="M194.486 141.992C195.682 142.771 197.022 143.297 198.425 143.54C199.829 143.783 201.267 143.736 202.653 143.404C205.113 142.878 205.375 141.019 203.525 139.958C201.675 138.897 201.597 138.37 201.501 134.845C201.405 131.32 201.597 127.514 201.597 127.514L192.462 127.953C192.462 127.953 190.011 139.256 194.486 141.992Z" fill="#B56D52"/>
<path fill-rule="evenodd" clip-rule="evenodd" d="M182.49 126.892C182.403 130.241 181.434 136.95 182.141 139.949C182.848 142.948 186.503 144.456 190.046 144.895C193.588 145.333 196.545 144.281 196.153 142.422C195.76 140.563 193.614 140.922 193.256 138.186C192.898 135.45 192.907 128.83 192.907 128.83L182.49 126.892Z" fill="#B56D52"/>
<path d="M196.153 142.606C196.113 142.607 196.074 142.593 196.044 142.567C196.014 142.541 195.993 142.505 195.987 142.466C195.905 142.144 195.759 141.842 195.556 141.58C195.353 141.317 195.099 141.099 194.809 140.94C194.328 140.654 193.92 140.26 193.617 139.788C193.314 139.316 193.125 138.78 193.064 138.221C192.715 135.503 192.715 128.909 192.715 128.838C192.715 128.792 192.734 128.747 192.766 128.714C192.799 128.682 192.844 128.663 192.89 128.663C192.936 128.663 192.98 128.682 193.013 128.714C193.046 128.747 193.064 128.792 193.064 128.838C193.064 128.909 193.064 135.477 193.413 138.169C193.465 138.68 193.635 139.172 193.911 139.605C194.187 140.038 194.56 140.399 195.001 140.659C195.328 140.845 195.613 141.097 195.838 141.399C196.063 141.701 196.224 142.046 196.31 142.413C196.318 142.46 196.308 142.507 196.282 142.546C196.256 142.585 196.216 142.613 196.17 142.624L196.153 142.606Z" fill="white"/>
<path fill-rule="evenodd" clip-rule="evenodd" d="M173.085 67.8751C169.97 76.2058 165.922 108.213 164.605 116.342C163.288 124.471 165.477 125.243 169.412 127.041C173.347 128.838 197.025 135.81 210.967 129.742C216.996 127.278 217.257 126.83 216.411 116.246C216.114 112.554 212.241 78.6875 207.119 71.8212C203.813 67.3928 180.527 65.411 173.085 67.8751Z" fill="#D4703F"/>
<path d="M209.623 130.662C209.552 130.661 209.483 130.633 209.431 130.584C209.38 130.531 209.351 130.46 209.351 130.386C209.351 130.312 209.38 130.241 209.431 130.189C211.49 127.926 209.196 101.891 208.446 93.3583C208.441 93.3212 208.444 93.2835 208.454 93.2476C208.464 93.2116 208.482 93.1782 208.505 93.1494C208.529 93.1206 208.559 93.097 208.592 93.0801C208.625 93.0633 208.661 93.0535 208.699 93.0514C208.735 93.0478 208.772 93.0515 208.808 93.0623C208.843 93.0732 208.876 93.0909 208.904 93.1146C208.932 93.1382 208.956 93.1673 208.973 93.2001C208.99 93.2329 209.001 93.2688 209.004 93.3057C211.133 117.403 211.394 128.9 209.876 130.584C209.844 130.617 209.804 130.641 209.76 130.655C209.716 130.669 209.669 130.671 209.623 130.662Z" fill="white"/>
<path d="M215.067 107.749C214.995 107.749 214.926 107.722 214.873 107.673C214.819 107.625 214.786 107.558 214.78 107.485C214.387 99.26 210.74 83.9051 210.723 83.8087C210.715 83.7718 210.715 83.7337 210.722 83.6968C210.73 83.6598 210.745 83.6248 210.766 83.5937C210.787 83.5626 210.814 83.5361 210.846 83.5157C210.877 83.4954 210.913 83.4817 210.949 83.4754C210.986 83.4665 211.023 83.4651 211.06 83.4715C211.097 83.4778 211.132 83.4917 211.163 83.5123C211.194 83.5329 211.221 83.5597 211.241 83.5911C211.261 83.6225 211.275 83.6577 211.281 83.6947C211.281 83.7648 214.945 99.1986 215.347 107.371C215.351 107.447 215.327 107.521 215.278 107.578C215.229 107.636 215.16 107.672 215.085 107.678L215.067 107.749Z" fill="white"/>
<path d="M184.026 114.369C183.762 114.371 183.5 114.329 183.249 114.247C181.077 113.457 173.774 109.757 171.035 95.1385C169.499 86.8691 171.698 82.6862 173.155 80.9324C173.727 80.1734 174.458 79.55 175.296 79.106C176.135 78.6621 177.059 78.4084 178.006 78.363C178.344 78.3628 178.681 78.4041 179.009 78.4858C183.738 79.6346 185.474 85.773 187.411 94.2703C188.859 100.654 190.534 101.61 192.157 102.548C192.585 102.782 192.996 103.046 193.387 103.338C193.85 103.706 193.919 104.381 193.588 105.346C192.532 108.529 187.184 114.369 184.026 114.369ZM178.032 78.933C177.168 78.9783 176.325 79.213 175.561 79.6204C174.796 80.0279 174.13 80.5984 173.609 81.2919C172.221 82.9756 170.119 86.9919 171.619 95.0332C174.28 109.353 181.339 112.949 183.441 113.712C183.63 113.774 183.827 113.804 184.026 113.799C186.887 113.799 192.052 108.196 193.082 105.206C193.221 104.802 193.396 104.101 193.082 103.829C192.711 103.556 192.323 103.307 191.921 103.083C190.176 102.092 188.432 101.066 186.905 94.4457C185.012 86.0975 183.328 80.1081 178.922 79.0383C178.631 78.9657 178.332 78.9304 178.032 78.933V78.933Z" fill="white"/>
<path fill-rule="evenodd" clip-rule="evenodd" d="M195.071 99.7774C192.672 99.716 192.811 100.058 191.686 102.619C190.56 105.179 186.739 113.264 179.114 113.405C176.287 113.545 176.706 114.282 175.859 116.676C175.013 119.07 174.446 121.499 174.586 122.498C174.725 123.498 175.859 124.91 180.946 126.471C186.032 128.032 193.239 127.181 195.778 126.751C198.316 126.322 198.744 122.367 199.311 119.227C199.94 113.684 199.828 108.08 198.979 102.566C198.604 100.724 198.7 99.8738 195.071 99.7774Z" fill="#FFDBBD"/>
<path d="M206.526 112.335C206.116 112.394 205.697 112.325 205.327 112.138C204.956 111.952 204.651 111.655 204.453 111.289C204.255 110.923 204.172 110.505 204.217 110.091C204.262 109.677 204.432 109.286 204.704 108.972C204.976 108.657 205.338 108.434 205.739 108.332C206.141 108.229 206.565 108.253 206.953 108.399C207.341 108.546 207.675 108.808 207.911 109.151C208.147 109.494 208.272 109.901 208.271 110.318C208.302 110.817 208.137 111.309 207.81 111.686C207.484 112.064 207.022 112.297 206.526 112.335V112.335ZM206.526 108.827C206.226 108.764 205.914 108.795 205.633 108.918C205.351 109.04 205.114 109.247 204.955 109.51C204.795 109.773 204.72 110.079 204.741 110.387C204.762 110.694 204.877 110.988 205.07 111.227C205.264 111.466 205.526 111.639 205.821 111.722C206.116 111.805 206.43 111.794 206.719 111.69C207.008 111.587 207.257 111.396 207.434 111.144C207.61 110.892 207.705 110.591 207.704 110.283C207.726 109.939 207.617 109.6 207.397 109.336C207.178 109.072 206.866 108.902 206.526 108.862V108.827Z" fill="white"/>
<path d="M206.151 126.067C205.741 126.126 205.323 126.058 204.952 125.871C204.582 125.685 204.277 125.389 204.079 125.024C203.88 124.658 203.798 124.241 203.842 123.827C203.886 123.413 204.055 123.022 204.326 122.707C204.597 122.393 204.958 122.169 205.359 122.065C205.76 121.962 206.183 121.984 206.572 122.13C206.96 122.275 207.295 122.536 207.532 122.877C207.768 123.219 207.895 123.625 207.896 124.042C207.927 124.542 207.762 125.034 207.436 125.413C207.109 125.792 206.648 126.027 206.151 126.067V126.067ZM206.151 122.56C205.851 122.496 205.539 122.528 205.257 122.65C204.976 122.772 204.739 122.979 204.579 123.242C204.42 123.505 204.345 123.812 204.366 124.119C204.387 124.427 204.502 124.72 204.695 124.959C204.888 125.198 205.151 125.371 205.446 125.454C205.741 125.537 206.055 125.526 206.344 125.423C206.632 125.319 206.882 125.128 207.059 124.876C207.235 124.624 207.329 124.323 207.329 124.015C207.354 123.67 207.245 123.329 207.025 123.063C206.806 122.797 206.493 122.626 206.151 122.586V122.56Z" fill="white"/>
<path d="M199.067 106.135C197.697 102.04 194.015 99.4705 190.543 97.2694C189.845 96.831 189.208 97.9359 189.897 98.3744C192.515 100.032 195.333 101.882 196.955 104.583C199.049 108.091 198.892 113.063 194.687 114.895C191.433 116.307 187.899 115.141 185.011 113.413C182.473 111.905 179.184 109.976 178.032 107.179C177.709 106.424 176.61 107.073 176.933 107.819C178.459 111.414 183.328 114.282 186.73 115.711C189.932 117.07 193.91 117.368 196.842 115.167C199.773 112.966 200.105 109.353 199.067 106.135Z" fill="#3E3A39"/>
<path d="M173.984 108.713C173.984 108.713 181.007 120.99 192.715 119.929C204.424 118.868 208.524 103.381 199.512 100.321C190.499 97.2605 186.058 97.1641 186.058 97.1641L173.984 108.713Z" fill="white" stroke="#C4BEBB" stroke-linecap="round" stroke-linejoin="round"/>
<path d="M178.233 113.133C178.233 113.133 192.436 107.871 190.508 97.2693L196.353 99.3125C196.353 99.3125 190.709 116.272 186.058 119.324L178.233 113.133Z" fill="white" stroke="#C4BEBB" stroke-linecap="round" stroke-linejoin="round"/>
<path d="M199.512 100.321C199.512 100.321 203.429 110.625 200.07 116.798C200.07 116.798 196.58 120.797 192.715 119.929C195.346 113.387 196.586 106.365 196.353 99.3125L199.512 100.321Z" fill="white" stroke="#C4BEBB" stroke-linecap="round" stroke-linejoin="round"/>
<path d="M178.477 20.0391C178.384 20.0397 178.294 20.0088 178.222 19.9515C178.149 19.8942 178.097 19.8138 178.076 19.7234C177.777 18.3041 177.042 17.0154 175.973 16.0403C175.892 15.9713 175.84 15.8737 175.827 15.7675C175.815 15.6613 175.843 15.5543 175.907 15.4683C175.97 15.3824 176.063 15.3239 176.168 15.3047C176.273 15.2855 176.381 15.3071 176.47 15.3651C177.698 16.4534 178.542 17.9114 178.878 19.5217C178.905 19.6286 178.889 19.7418 178.833 19.8369C178.778 19.932 178.687 20.0014 178.582 20.0303L178.477 20.0391Z" fill="#3E3A39" stroke="#3E3A39" stroke-width="0.5" stroke-linecap="round" stroke-linejoin="round"/>
<path d="M180.388 19.5393C180.322 19.5386 180.258 19.5224 180.201 19.4919C180.143 19.4614 180.093 19.4175 180.056 19.3639C179.101 17.8921 178.525 16.2044 178.381 14.4531C178.377 14.3956 178.384 14.3377 178.402 14.283C178.421 14.2283 178.449 14.1777 178.487 14.1341C178.563 14.0461 178.671 13.9921 178.787 13.984C178.902 13.9758 179.017 14.0142 179.104 14.0907C179.192 14.1672 179.245 14.2755 179.253 14.3918C179.38 15.9854 179.892 17.5237 180.745 18.8728C180.808 18.9642 180.833 19.0765 180.815 19.186C180.797 19.2955 180.738 19.3938 180.649 19.4603C180.574 19.516 180.481 19.5438 180.388 19.5393V19.5393Z" fill="#3E3A39" stroke="#3E3A39" stroke-width="0.5" stroke-linecap="round" stroke-linejoin="round"/>
<path d="M173.766 18.7763H173.591C173.22 18.7399 172.862 18.6201 172.544 18.4258C172.225 18.2315 171.954 17.9677 171.75 17.6539C171.422 17.2249 171.216 16.7138 171.156 16.1758C171.096 15.6378 171.184 15.0936 171.41 14.6022C170.54 14.5067 169.728 14.1171 169.107 13.4973C168.828 13.1618 168.627 12.7683 168.519 12.3451C168.41 11.9219 168.396 11.4798 168.479 11.0507C168.492 10.4668 168.654 9.89611 168.949 9.39273C169.244 8.88936 169.661 8.46999 170.162 8.17439C170.713 7.97404 171.298 7.88709 171.882 7.91873C172.467 7.95037 173.039 8.09994 173.565 8.35855C173.48 7.89355 173.5 7.41514 173.626 6.95941C173.751 6.50368 173.978 6.08254 174.289 5.72779C175.022 5.07887 176.2 5.08764 177.779 5.72779C180.012 6.60471 180.073 8.89347 179.698 10.4018C180.221 10.3378 180.751 10.426 181.225 10.6561C181.512 10.8092 181.765 11.0208 181.966 11.2775C182.167 11.5342 182.313 11.8303 182.394 12.1468C182.505 12.4603 182.55 12.7932 182.528 13.1251C182.505 13.457 182.415 13.7806 182.263 14.0761C181.862 14.7226 181.243 15.2021 180.518 15.4265C180.466 15.4421 180.412 15.4471 180.358 15.4414C180.303 15.4358 180.251 15.4194 180.203 15.3934C180.155 15.3673 180.113 15.332 180.079 15.2896C180.045 15.2471 180.019 15.1983 180.004 15.1459C179.988 15.0935 179.983 15.0386 179.989 14.9842C179.994 14.9298 180.011 14.8771 180.037 14.8291C180.063 14.781 180.098 14.7386 180.14 14.7042C180.182 14.6698 180.231 14.6441 180.283 14.6285C180.79 14.4622 181.225 14.1245 181.513 13.6727C181.617 13.4762 181.679 13.2606 181.697 13.0389C181.715 12.8173 181.688 12.5944 181.618 12.3836C181.567 12.1757 181.474 11.9806 181.345 11.8102C181.215 11.6397 181.053 11.4977 180.867 11.3927C180.348 11.1812 179.772 11.1564 179.236 11.3225C179.161 11.3473 179.08 11.3506 179.003 11.332C178.926 11.3135 178.856 11.2737 178.8 11.2173C178.747 11.1571 178.712 11.0835 178.698 11.0047C178.685 10.9259 178.692 10.8447 178.721 10.7701C178.774 10.6385 179.986 7.5167 177.482 6.49071C176.61 6.13117 175.423 5.80671 174.865 6.3241C174.307 6.84148 174.403 8.43747 174.533 8.95485C174.554 9.03451 174.551 9.11849 174.525 9.19643C174.498 9.27436 174.45 9.34281 174.385 9.39331C174.315 9.4359 174.235 9.45842 174.154 9.45842C174.072 9.45842 173.992 9.4359 173.923 9.39331C173.923 9.39331 171.899 8.20947 170.555 8.86716C170.164 9.10312 169.839 9.4356 169.612 9.83308C169.384 10.2306 169.261 10.6799 169.255 11.1384C169.195 11.4444 169.202 11.7599 169.276 12.0628C169.35 12.3658 169.488 12.6489 169.683 12.8922C170.328 13.4642 171.16 13.7765 172.021 13.7691C172.099 13.7704 172.175 13.7931 172.241 13.8349C172.307 13.8766 172.361 13.9358 172.396 14.0059C172.43 14.0778 172.444 14.158 172.434 14.2371C172.425 14.3163 172.394 14.3912 172.344 14.4531C172.063 14.8337 171.912 15.2949 171.912 15.7685C171.912 16.2422 172.063 16.7033 172.344 17.0839C172.481 17.2979 172.663 17.4794 172.876 17.6157C173.09 17.752 173.331 17.8398 173.582 17.8731C174.308 17.8294 174.992 17.5169 175.502 16.9962C175.539 16.9505 175.585 16.9133 175.638 16.8868C175.69 16.8604 175.748 16.8453 175.807 16.8426C175.865 16.8399 175.924 16.8497 175.978 16.8712C176.033 16.8928 176.083 16.9256 176.124 16.9677C176.165 17.0097 176.197 17.06 176.218 17.1153C176.238 17.1706 176.247 17.2296 176.244 17.2885C176.24 17.3474 176.224 17.4049 176.197 17.4573C176.17 17.5097 176.132 17.5557 176.086 17.5925C175.472 18.2443 174.652 18.6625 173.766 18.7763V18.7763Z" fill="#3E3A39" stroke="#3E3A39" stroke-width="0.5" stroke-linecap="round" stroke-linejoin="round"/>
<path d="M227.299 49.3632H227.186C227.131 49.349 227.08 49.324 227.035 49.2898C226.99 49.2556 226.953 49.2128 226.924 49.1639C226.896 49.115 226.877 49.061 226.87 49.0049C226.862 48.9488 226.866 48.8918 226.88 48.8371L227.988 44.4525C228.002 44.3981 228.026 44.3468 228.059 44.3018C228.092 44.2568 228.134 44.2188 228.182 44.1903C228.23 44.1617 228.283 44.143 228.338 44.1353C228.393 44.1276 228.449 44.1311 228.503 44.1456C228.558 44.1589 228.611 44.1831 228.656 44.2169C228.702 44.2507 228.741 44.2934 228.77 44.3423C228.799 44.3913 228.819 44.4457 228.827 44.5023C228.835 44.5588 228.832 44.6164 228.817 44.6717L227.709 49.0125C227.695 49.1108 227.645 49.2005 227.57 49.265C227.494 49.3294 227.398 49.3643 227.299 49.3632V49.3632Z" fill="#3E3A39" stroke="#3E3A39" stroke-width="0.5" stroke-miterlimit="10"/>
<path d="M229.742 49.1967C229.682 49.2126 229.619 49.2126 229.559 49.1967C229.508 49.1732 229.462 49.1396 229.424 49.098C229.386 49.0564 229.357 49.0075 229.338 48.9544C229.32 48.9012 229.312 48.8448 229.315 48.7885C229.319 48.7322 229.333 48.6772 229.358 48.6267L231.286 44.6104C231.337 44.5078 231.426 44.4293 231.533 44.3916C231.641 44.3539 231.759 44.36 231.862 44.4087C231.963 44.4613 232.039 44.5505 232.077 44.6581C232.114 44.7656 232.109 44.8834 232.063 44.9874L230.126 48.995C230.086 49.0606 230.03 49.114 229.962 49.1496C229.894 49.1851 229.818 49.2014 229.742 49.1967V49.1967Z" fill="#3E3A39" stroke="#3E3A39" stroke-width="0.5" stroke-miterlimit="10"/>
<path d="M231.347 49.5473C231.235 49.5495 231.126 49.5088 231.042 49.4333C230.962 49.3514 230.917 49.2412 230.917 49.1264C230.917 49.0116 230.962 48.9015 231.042 48.8195L234.436 45.3118C234.516 45.232 234.624 45.1873 234.737 45.1873C234.85 45.1873 234.958 45.232 235.038 45.3118C235.078 45.3511 235.11 45.3981 235.132 45.45C235.154 45.502 235.166 45.5579 235.166 45.6144C235.166 45.6708 235.154 45.7267 235.132 45.7787C235.11 45.8306 235.078 45.8776 235.038 45.9169L231.653 49.4246C231.571 49.504 231.461 49.548 231.347 49.5473V49.5473Z" fill="#3E3A39" stroke="#3E3A39" stroke-width="0.5" stroke-miterlimit="10"/>
<path d="M236.704 49.0301C235.73 49.0206 234.795 48.6417 234.087 47.969C234.007 47.887 233.962 47.7768 233.962 47.6621C233.962 47.5473 234.007 47.4371 234.087 47.3552C234.17 47.2768 234.279 47.2332 234.392 47.2332C234.506 47.2332 234.615 47.2768 234.698 47.3552C235.263 47.883 236.011 48.1691 236.783 48.1532C237.399 48.0765 237.991 47.8687 238.521 47.5436C239.05 47.2185 239.505 46.7835 239.854 46.2678C240.225 45.8916 240.506 45.4358 240.677 44.9346C240.848 44.4334 240.903 43.8998 240.84 43.3739C240.534 41.6201 238.598 40.4713 238.58 40.4626C238.517 40.4279 238.463 40.3774 238.425 40.316C238.387 40.2545 238.365 40.1842 238.362 40.1118C238.357 40.0405 238.37 39.969 238.401 39.9044C238.431 39.8399 238.478 39.7844 238.536 39.7435C238.785 39.5166 238.938 39.203 238.964 38.8666C238.954 38.5001 238.872 38.1393 238.722 37.8051C238.573 37.4708 238.358 37.1699 238.092 36.9198C236.347 35.0257 233.31 37.5951 233.276 37.6214C233.2 37.6856 233.104 37.7209 233.005 37.7209C232.906 37.7209 232.81 37.6856 232.735 37.6214C232.657 37.5593 232.603 37.472 232.582 37.3744C232.562 37.2768 232.575 37.175 232.621 37.0864C232.621 37.0864 233.494 35.3852 232.918 34.2978C232.727 34.0068 232.469 33.7674 232.164 33.6007C231.86 33.434 231.52 33.3451 231.173 33.342C230.9 33.2656 230.611 33.2619 230.336 33.331C230.061 33.4002 229.808 33.5399 229.603 33.7366C228.974 34.5521 229.515 36.4288 229.777 37.0864C229.812 37.172 229.818 37.2665 229.795 37.356C229.772 37.4455 229.722 37.5252 229.65 37.5832C229.579 37.6413 229.49 37.6747 229.398 37.6784C229.307 37.6821 229.216 37.656 229.14 37.6038C229.035 37.5249 226.409 35.85 224.525 38.2703C224.017 38.835 223.657 39.5178 223.477 40.2572C223.298 40.9966 223.304 41.7694 223.495 42.5058C223.736 43.0692 224.12 43.5592 224.609 43.927C225.097 44.2947 225.673 44.5273 226.278 44.6016C226.336 44.6137 226.39 44.637 226.438 44.6702C226.487 44.7035 226.528 44.7459 226.56 44.7952C226.592 44.8444 226.614 44.8995 226.625 44.9574C226.636 45.0152 226.635 45.0746 226.623 45.1322C226.611 45.1897 226.588 45.2444 226.555 45.2929C226.522 45.3415 226.48 45.3831 226.431 45.4152C226.382 45.4474 226.327 45.4695 226.269 45.4804C226.212 45.4913 226.153 45.4906 226.095 45.4786C225.351 45.3721 224.646 45.0739 224.05 44.613C223.454 44.152 222.986 43.5439 222.693 42.8478C222.143 41.3395 222.562 39.5067 223.844 37.8318C224.374 37.0884 225.14 36.5492 226.016 36.3036C226.892 36.058 227.825 36.1207 228.66 36.4814C228.425 35.5431 228.259 34.1663 228.922 33.2982C229.213 32.9725 229.587 32.7327 230.004 32.6045C230.42 32.4763 230.864 32.4645 231.286 32.5703C231.769 32.58 232.242 32.7101 232.662 32.9488C233.082 33.1876 233.437 33.5276 233.694 33.9383C234.012 34.6527 234.07 35.4562 233.86 36.2095C235.308 35.3326 237.35 34.8328 238.737 36.3761C239.097 36.7112 239.382 37.1186 239.574 37.5719C239.767 38.0252 239.862 38.5141 239.854 39.0069C239.817 39.3725 239.688 39.7225 239.479 40.0241C240.597 40.7763 241.397 41.9207 241.721 43.2336C241.807 43.884 241.746 44.5455 241.544 45.1693C241.342 45.793 241.003 46.3632 240.552 46.8378C240.123 47.449 239.57 47.9615 238.93 48.341C238.289 48.7205 237.575 48.9584 236.835 49.0388L236.704 49.0301Z" fill="#3E3A39" stroke="#3E3A39" stroke-width="0.5" stroke-miterlimit="10"/>
<path d="M221.506 75.0396C221.769 74.5663 221.983 74.0666 222.143 73.5488C222.382 74.0279 222.675 74.478 223.015 74.8905C223.481 75.1602 223.976 75.375 224.49 75.5307C224.015 75.7744 223.568 76.0683 223.155 76.4076C222.888 76.8762 222.675 77.3733 222.518 77.8896C222.275 77.4155 221.983 76.9687 221.646 76.5567C221.18 76.2853 220.685 76.0676 220.171 75.9077C220.646 75.6679 221.094 75.3768 221.506 75.0396Z" fill="white"/>
<path d="M155.68 68.3749C156.108 67.6094 156.456 66.8012 156.718 65.9634C157.122 66.74 157.611 67.4694 158.175 68.1381C158.935 68.5705 159.739 68.9175 160.574 69.1729C159.802 69.5833 159.076 70.0773 158.41 70.6461C157.975 71.4079 157.626 72.2169 157.372 73.0576C156.962 72.2794 156.471 71.5474 155.907 70.8741C155.145 70.46 154.34 70.1306 153.507 69.892C154.285 69.4683 155.013 68.9595 155.68 68.3749V68.3749Z" fill="white"/>
<path d="M194.05 77.5299C193.999 78.2648 193.737 78.969 193.294 79.5566C192.852 80.1442 192.25 80.5899 191.56 80.8392C190.87 81.0885 190.123 81.1307 189.41 80.9607C188.697 80.7907 188.048 80.4159 187.543 79.8818C187.038 79.3478 186.699 78.6776 186.566 77.953C186.434 77.2284 186.514 76.4807 186.796 75.801C187.079 75.1213 187.553 74.539 188.159 74.125C188.765 73.7111 189.478 73.4834 190.211 73.4697C190.729 73.4822 191.239 73.5973 191.712 73.8082C192.185 74.0192 192.612 74.3219 192.969 74.6991C193.326 75.0762 193.605 75.5204 193.79 76.0062C193.976 76.4919 194.064 77.0097 194.05 77.5299V77.5299Z" fill="#E4C884"/>
<path d="M190.211 73.4697C189.302 73.4936 188.435 73.8634 187.786 74.5045C187.432 75.1699 187.254 75.916 187.271 76.6705C187.245 77.7203 187.635 78.7375 188.355 79.4988C189.075 80.26 190.066 80.7031 191.11 80.7306C192.021 80.7052 192.888 80.3321 193.535 79.6871C193.883 79.0223 194.06 78.2808 194.05 77.5299C194.074 76.4807 193.683 75.4648 192.964 74.7041C192.245 73.9433 191.255 73.4996 190.211 73.4697V73.4697Z" fill="#FFF7E8"/>
<path d="M202.146 76.9074C202.23 77.7504 202.068 78.5996 201.681 79.3523C201.295 80.105 200.699 80.729 199.967 81.1488C199.235 81.5686 198.398 81.7663 197.556 81.7179C196.715 81.6696 195.905 81.3772 195.226 80.8762C194.546 80.3753 194.025 79.6871 193.727 78.895C193.428 78.1029 193.364 77.2407 193.542 76.4128C193.72 75.5848 194.133 74.8265 194.731 74.2295C195.329 73.6325 196.087 73.2225 196.912 73.0489C197.507 72.9566 198.116 72.9833 198.701 73.1273C199.287 73.2712 199.838 73.5298 200.324 73.8881C200.81 74.2464 201.222 74.6975 201.534 75.2155C201.847 75.7336 202.055 76.3085 202.146 76.9074V76.9074Z" fill="#E4C884"/>
<path d="M193.562 78.5909C193.735 79.4548 194.129 80.2586 194.704 80.9235C195.598 81.4934 196.674 81.7003 197.714 81.5023C198.895 81.2116 199.913 80.462 200.544 79.4181C201.175 78.3741 201.369 77.1211 201.082 75.9338C200.909 75.0699 200.515 74.2661 199.939 73.6012C199.045 73.0314 197.969 72.8244 196.929 73.0225C195.749 73.3132 194.731 74.0627 194.1 75.1067C193.468 76.1506 193.275 77.4037 193.562 78.5909V78.5909Z" fill="#FFF7E8"/>
<path d="M187.393 75.5744C187.474 76.2538 187.355 76.9419 187.051 77.5542C186.748 78.1665 186.273 78.6761 185.684 79.0204C185.096 79.3647 184.421 79.5287 183.741 79.492C183.061 79.4554 182.407 79.2197 181.859 78.8142C181.311 78.4086 180.893 77.8507 180.656 77.2093C180.419 76.5679 180.374 75.8709 180.527 75.2041C180.679 74.5374 181.022 73.9299 181.514 73.4566C182.005 72.9833 182.624 72.6648 183.293 72.5403C184.236 72.4016 185.196 72.6424 185.963 73.2105C186.731 73.7785 187.245 74.628 187.393 75.5744Z" fill="#E4C884"/>
<path d="M183.293 72.5227C182.478 72.6905 181.757 73.164 181.277 73.8468C181.061 74.5027 181.019 75.204 181.155 75.8813C181.302 76.8288 181.815 77.6796 182.583 78.2481C183.351 78.8166 184.312 79.0564 185.256 78.9154C186.073 78.7479 186.795 78.2706 187.271 77.5825C187.488 76.9297 187.53 76.2311 187.393 75.5568C187.247 74.6093 186.734 73.7584 185.965 73.19C185.197 72.6215 184.236 72.3816 183.293 72.5227Z" fill="#FFF7E8"/>
<path d="M181.618 74.0836C181.678 74.6455 181.575 75.2129 181.32 75.7168C181.065 76.2206 180.67 76.6389 180.183 76.9208C179.695 77.2027 179.137 77.3359 178.575 77.3042C178.014 77.2724 177.474 77.0771 177.021 76.7421C176.568 76.4071 176.222 75.9468 176.025 75.4174C175.828 74.8881 175.789 74.3125 175.912 73.761C176.035 73.2095 176.314 72.7059 176.717 72.3116C177.12 71.9173 177.629 71.6494 178.18 71.5405C178.971 71.4221 179.777 71.6231 180.421 72.0996C181.065 72.5761 181.495 73.2893 181.618 74.0836Z" fill="#E4C884"/>
<path d="M178.18 71.5405C177.495 71.6803 176.889 72.0789 176.488 72.6542C176.308 73.2028 176.272 73.7887 176.383 74.3554C176.444 74.7542 176.582 75.1369 176.791 75.4815C176.999 75.8261 177.274 76.1258 177.598 76.3631C177.923 76.6004 178.291 76.7706 178.681 76.864C179.072 76.9575 179.477 76.9721 179.873 76.9073C180.558 76.7675 181.164 76.3689 181.565 75.7936C181.755 75.2284 181.788 74.6223 181.661 74.0397C181.529 73.2446 181.088 72.5349 180.435 72.0663C179.783 71.5977 178.972 71.4086 178.18 71.5405Z" fill="#FFF7E8"/>
<path d="M176.636 71.4792C176.689 71.9714 176.599 72.4686 176.376 72.9101C176.153 73.3516 175.807 73.7183 175.38 73.9656C174.953 74.2129 174.464 74.33 173.972 74.3027C173.48 74.2754 173.007 74.1048 172.61 73.8118C172.213 73.5188 171.909 73.116 171.736 72.6524C171.562 72.1889 171.527 71.6848 171.634 71.2014C171.74 70.718 171.985 70.2763 172.337 69.9302C172.689 69.584 173.134 69.3483 173.617 69.2518C173.962 69.1946 174.314 69.2071 174.653 69.2887C174.992 69.3702 175.312 69.5191 175.593 69.7266C175.875 69.9342 176.112 70.1961 176.291 70.4971C176.47 70.798 176.587 71.132 176.636 71.4792Z" fill="#FFF7E8"/>
<path d="M173.617 69.2518C173.019 69.3775 172.489 69.725 172.134 70.2252C171.982 70.7071 171.952 71.2195 172.047 71.716C172.096 72.0632 172.213 72.3971 172.392 72.6981C172.571 72.999 172.808 73.261 173.09 73.4685C173.371 73.676 173.691 73.8249 174.03 73.9065C174.369 73.988 174.721 74.0005 175.066 73.9433C175.665 73.8209 176.196 73.4727 176.549 72.9699C176.701 72.4882 176.731 71.9756 176.636 71.4792C176.587 71.132 176.47 70.798 176.291 70.4971C176.112 70.1961 175.875 69.9342 175.593 69.7266C175.312 69.5191 174.992 69.3702 174.653 69.2887C174.314 69.2071 173.962 69.1946 173.617 69.2518Z" fill="#FFF7E8"/>
<path d="M207.73 75.9779C207.8 76.6144 207.683 77.2574 207.395 77.8285C207.107 78.3996 206.66 78.874 206.108 79.1939C205.556 79.5137 204.923 79.665 204.287 79.6295C203.651 79.5939 203.039 79.373 202.526 78.9936C202.013 78.6142 201.62 78.0929 201.397 77.4932C201.174 76.8935 201.129 76.2414 201.268 75.6166C201.407 74.9917 201.725 74.4212 202.181 73.9746C202.638 73.5279 203.214 73.2246 203.839 73.1016C204.734 72.9656 205.647 73.1921 206.376 73.7312C207.106 74.2704 207.592 75.0784 207.73 75.9779Z" fill="#E4C884"/>
<path d="M201.326 77.2494C201.463 77.8993 201.764 78.5032 202.199 79.0032C202.865 79.4281 203.666 79.5818 204.441 79.4329C204.876 79.3232 205.285 79.1285 205.645 78.8597C206.005 78.591 206.309 78.2535 206.539 77.8666C206.769 77.4797 206.921 77.051 206.986 76.6051C207.052 76.1591 207.029 75.7046 206.919 75.2675C206.782 74.6174 206.482 74.0135 206.046 73.5137C205.381 73.0888 204.579 72.9351 203.804 73.084C202.928 73.3096 202.176 73.8738 201.712 74.654C201.248 75.4341 201.109 76.367 201.326 77.2494V77.2494Z" fill="#FFF7E8"/>
<path d="M211.333 72.856C211.393 73.3875 211.297 73.9248 211.057 74.4024C210.818 74.88 210.445 75.2771 209.985 75.5453C209.525 75.8135 208.997 75.9412 208.465 75.9128C207.934 75.8843 207.422 75.701 206.993 75.3851C206.564 75.0693 206.235 74.6346 206.047 74.1341C205.86 73.6337 205.821 73.0892 205.936 72.567C206.052 72.0449 206.316 71.5678 206.696 71.194C207.077 70.8202 207.557 70.5659 208.079 70.462C208.826 70.3485 209.587 70.5365 210.197 70.985C210.807 71.4334 211.215 72.106 211.333 72.856V72.856Z" fill="#E4C884"/>
<path d="M205.985 73.9169C206.089 74.4544 206.33 74.9558 206.683 75.3726C207.241 75.7256 207.911 75.854 208.559 75.7322C208.927 75.642 209.273 75.4794 209.578 75.2537C209.882 75.0281 210.14 74.7439 210.334 74.4177C210.529 74.0915 210.658 73.7296 210.712 73.3532C210.767 72.9767 210.747 72.5931 210.653 72.2245C210.548 71.6897 210.308 71.1912 209.955 70.7776C209.4 70.4178 208.727 70.2889 208.079 70.418C207.712 70.5072 207.366 70.6689 207.061 70.8937C206.756 71.1184 206.499 71.4018 206.304 71.7274C206.109 72.0529 205.981 72.4141 205.926 72.79C205.871 73.1659 205.891 73.5489 205.985 73.9169V73.9169Z" fill="#FFF7E8"/>
<path fill-rule="evenodd" clip-rule="evenodd" d="M200.122 28.6768C198.02 20.7845 200.934 11.1384 211.944 10.13C222.954 9.12152 232.979 28.1156 214.047 34.8152C207.407 36.3411 200.122 28.6768 200.122 28.6768Z" fill="#B56D52"/>
<path fill-rule="evenodd" clip-rule="evenodd" d="M206.84 27.7033C205.872 21.977 211.089 16.926 215.46 18.1625C219.831 19.3989 217.283 28.5978 210.609 30.1675C203.935 31.7371 206.84 27.7033 206.84 27.7033Z" fill="#D18367"/>
<path fill-rule="evenodd" clip-rule="evenodd" d="M162.677 45.2857C160.583 54.6337 162.677 69.3747 178.73 72.6456C194.783 75.9165 209.213 75.2149 216.891 69.8394C224.568 64.4639 222.71 58.6149 219.918 55.1072C217.126 51.5995 218.522 48.3199 218.261 42.2428C217.999 36.1658 209.885 25.406 198.945 23.3014C188.004 21.1968 166.167 24.9325 162.677 45.2857Z" fill="#B56D52"/>
<path fill-rule="evenodd" clip-rule="evenodd" d="M178.346 32.0267C177.569 25.327 171.48 16.3561 159.536 19.3201C147.592 22.2841 146.72 46.452 166.245 48.0918C173.844 46.2152 178.346 32.0267 178.346 32.0267Z" fill="#B56D52"/>
<path fill-rule="evenodd" clip-rule="evenodd" d="M172.448 36.9813C170.381 40.3136 164.334 41.4536 160.932 37.7969C155.811 32.2986 161.045 25.9848 166.865 27.0371C173.626 28.2647 173.609 35.1047 172.448 36.9813Z" fill="#D18367"/>
<path d="M165.477 47.969C163.678 48.0293 161.883 47.7711 160.173 47.206C160.057 47.1584 159.965 47.0664 159.917 46.9505C159.869 46.8346 159.868 46.7041 159.915 46.5878C159.963 46.4715 160.054 46.3789 160.17 46.3304C160.285 46.2819 160.415 46.2814 160.531 46.3291C162.616 47.206 166.568 46.9956 166.638 46.9956C166.699 46.9908 166.761 46.9984 166.819 47.018C166.878 47.0376 166.932 47.0687 166.978 47.1096C167.025 47.1504 167.062 47.2002 167.089 47.2559C167.116 47.3116 167.132 47.3722 167.135 47.434C167.14 47.5582 167.096 47.6793 167.013 47.7711C166.929 47.863 166.814 47.9183 166.69 47.9251C166.603 47.969 166.149 47.969 165.477 47.969Z" fill="white"/>
<path d="M203.726 53.6076C199.363 53.783 192.183 57.9922 194.905 65.446C196.894 70.8741 205.113 72.9875 209.196 69.0414C214.771 63.6659 213.104 53.2305 203.726 53.6076Z" fill="#FFF7E8"/>
<path fill-rule="evenodd" clip-rule="evenodd" d="M199.163 57.7292C200.14 59.7812 201.867 60.9299 202.53 58.4482C203.673 61.2456 204.982 60.7808 205.575 57.8958C206.919 60.1845 208.088 57.8958 207.599 55.8613C207.006 53.4849 204.109 53.2306 200 54.8441C199.756 54.978 199.541 55.1589 199.367 55.3764C199.193 55.594 199.064 55.8439 198.986 56.1119C198.908 56.3799 198.884 56.6608 198.914 56.9383C198.944 57.2158 199.029 57.4846 199.163 57.7292Z" fill="#3E3A39"/>
<path d="M184.506 49.6351C185.29 50.101 186.027 50.6444 186.704 51.2574C187.332 51.8537 188.283 50.8978 187.655 50.3015C186.89 49.6115 186.06 48.9977 185.177 48.4688C184.444 47.9952 183.773 49.1703 184.506 49.6351V49.6351Z" fill="#3E3A39"/>
<path d="M211.778 47.0921C211.975 46.6404 212.247 46.2254 212.581 45.8644C212.913 45.4523 213.244 45.0401 213.567 44.6192C214.09 43.9265 212.921 43.26 212.407 43.944C211.617 44.76 210.968 45.7024 210.487 46.7326C210.217 47.6095 211.517 47.9164 211.778 47.0921V47.0921Z" fill="#3E3A39"/>
<path fill-rule="evenodd" clip-rule="evenodd" d="M208.978 62.2101C208.978 62.2101 211.517 73.3996 210.409 74.6535C210.042 75.0745 203.289 76.7406 201.92 76.0478C200.55 75.3551 199.677 64.1305 199.302 62.9555C199.302 62.9555 203.499 63.0431 204.293 59.6758C204.751 60.5044 205.435 61.1836 206.266 61.6328C207.096 62.082 208.037 62.2824 208.978 62.2101V62.2101Z" fill="#B02F10"/>
<path fill-rule="evenodd" clip-rule="evenodd" d="M211.927 69.6728C211.927 69.6728 210.356 68.4188 209.1 71.1723C208.271 73.005 207.023 69.0589 206.134 69.094C204.563 69.1554 205.61 71.9089 204.677 72.2334C203.394 72.6806 202.164 69.8832 201.187 69.6728C200.018 69.4272 199.241 72.6455 199.241 72.6455C199.241 72.6455 200.053 75.7323 200.986 76.881C203.15 79.5995 210.051 76.1619 211.028 76.2146C212.939 76.3198 211.927 69.6728 211.927 69.6728Z" fill="#3E3A39"/>
<path d="M200.593 77.2054C199.744 75.8564 199.125 74.3745 198.761 72.8208C198.735 72.741 198.735 72.655 198.761 72.5753C198.971 71.6983 199.765 68.8834 201.318 69.2167C201.876 69.3307 202.347 69.8919 202.888 70.532C203.429 71.1722 204.083 71.9351 204.493 71.7948C204.594 71.4987 204.641 71.1869 204.633 70.874C204.685 70.0497 204.755 68.673 206.116 68.6204C206.77 68.6204 207.224 69.2868 207.756 70.0936C207.982 70.4746 208.251 70.8278 208.559 71.1459C208.559 71.1459 208.603 71.067 208.629 71.0056C208.783 70.5349 209.043 70.1061 209.387 69.7519C209.732 69.3977 210.153 69.1276 210.618 68.9624C210.899 68.9021 211.19 68.9021 211.471 68.9626C211.752 69.023 212.017 69.1425 212.249 69.3131C212.344 69.3912 212.408 69.4996 212.433 69.62C212.703 71.0757 213.113 74.9342 211.831 76.4162C211.73 76.5348 211.604 76.6288 211.462 76.6911C211.32 76.7534 211.165 76.7823 211.011 76.7757C210.505 76.882 210.009 77.0286 209.527 77.2142C207.673 77.9262 205.724 78.3576 203.743 78.4945C203.155 78.5379 202.564 78.4441 202.018 78.2205C201.472 77.9969 200.984 77.6495 200.593 77.2054V77.2054ZM211.063 75.6971C211.639 75.2411 212.302 74.4869 211.473 69.9971C211.282 69.9094 211.067 69.8878 210.862 69.9357C210.409 70.0497 209.99 70.5496 209.588 71.3914C209.527 71.5888 209.414 71.7657 209.26 71.9032C209.106 72.0407 208.918 72.1336 208.716 72.1719C208.009 72.2245 207.495 71.4528 206.971 70.6285C206.752 70.258 206.489 69.9163 206.186 69.6113C205.898 69.6113 205.793 69.8568 205.741 70.8916C205.741 71.6282 205.654 72.47 204.921 72.7243C203.822 73.1014 202.905 72.0228 202.173 71.1634C201.841 70.7688 201.387 70.2339 201.169 70.1813C200.951 70.1287 200.201 71.3388 199.861 72.6454C200.524 75.1534 200.855 75.7935 201.466 76.5565C202.871 78.3103 207.032 76.9248 209.318 76.1794C209.897 75.9411 210.504 75.779 211.124 75.6971H211.063Z" fill="#3E3A39"/>
<path d="M201.684 76.5127C200.812 76.0567 200.951 76.5127 199.442 66.9718C199.154 65.1566 198.875 63.4641 198.77 63.1221C198.744 63.0432 198.737 62.9593 198.749 62.8771C198.762 62.7949 198.793 62.7167 198.84 62.6486C198.89 62.5824 198.955 62.5284 199.029 62.4905C199.103 62.4525 199.184 62.4317 199.267 62.4294C199.311 62.4294 203.063 62.482 203.743 59.5531C203.77 59.4491 203.828 59.3558 203.909 59.2854C203.99 59.215 204.09 59.1708 204.197 59.1585C204.303 59.1459 204.411 59.1681 204.503 59.2218C204.596 59.2755 204.669 59.3579 204.712 59.4566C205.131 60.202 205.757 60.8095 206.512 61.2062C207.267 61.6029 208.121 61.7719 208.969 61.6928C209.088 61.6881 209.206 61.7261 209.3 61.7999C209.394 61.8737 209.459 61.9787 209.484 62.0961C209.484 62.0961 210.409 65.7967 211.063 69.585C211.822 73.9696 211.063 74.6712 210.784 74.9956C210.278 75.5744 205.549 76.7495 203.019 76.7495C202.562 76.7653 202.108 76.6847 201.684 76.5127ZM208.576 62.7363C207.78 62.7351 206.992 62.5614 206.268 62.227C205.544 61.8926 204.9 61.4053 204.38 60.7983C203.438 62.6486 201.353 63.3151 199.904 63.4291C200.026 64.0868 200.21 65.1829 200.463 66.7964C201.056 70.5233 201.387 74.7939 202.208 75.5656C203.298 76.0567 209.187 74.7589 210.06 74.259C210.505 73.2681 210.129 69.4447 208.576 62.7363Z" fill="#3E3A39"/>
<path d="M198.753 63.4729C201.946 63.4729 203.595 62.6573 204.31 60.6667C204.994 61.5439 205.926 62.1919 206.984 62.5254C208.041 62.8589 209.175 62.8621 210.234 62.5346C210.3 62.5185 210.362 62.4894 210.417 62.4492C210.472 62.409 210.518 62.3583 210.553 62.3001C210.588 62.2419 210.612 62.1772 210.622 62.1099C210.633 62.0425 210.63 61.9738 210.614 61.9076C210.598 61.8414 210.569 61.779 210.529 61.724C210.489 61.669 210.438 61.6224 210.38 61.587C210.322 61.5516 210.258 61.528 210.191 61.5175C210.124 61.5071 210.056 61.51 209.99 61.5261C208.951 61.854 207.829 61.7952 206.829 61.3605C205.83 60.9258 205.019 60.1442 204.546 59.1584C204.491 59.0665 204.411 58.9932 204.314 58.9478C204.218 58.9025 204.11 58.8873 204.005 58.9041C203.9 58.9242 203.803 58.9761 203.728 59.0529C203.653 59.1297 203.604 59.2278 203.586 59.3338C203.22 61.5173 202.234 62.596 197.871 62.4118C197.738 62.4042 197.607 62.4481 197.505 62.5345C197.403 62.6209 197.337 62.7433 197.322 62.8766C197.32 62.9445 197.331 63.0123 197.354 63.0759C197.378 63.1396 197.414 63.198 197.46 63.2476C197.506 63.2973 197.562 63.3374 197.623 63.3655C197.685 63.3936 197.752 63.4092 197.819 63.4115L198.753 63.4729Z" fill="#3E3A39"/>
<path d="M205.671 43.5844C206.108 43.4535 206.501 43.2056 206.808 42.8673C207.116 42.529 207.326 42.1131 207.416 41.664C207.52 41.2014 207.51 40.7205 207.389 40.2624C207.267 39.8043 207.037 39.3826 206.718 39.0332C206.62 38.9368 206.489 38.8828 206.352 38.8828C206.215 38.8828 206.083 38.9368 205.985 39.0332C205.89 39.1301 205.836 39.2609 205.836 39.3971C205.836 39.5334 205.89 39.6642 205.985 39.7611C206.182 39.9851 206.324 40.2529 206.398 40.5425C206.472 40.8321 206.477 41.1353 206.413 41.4272C206.359 41.7531 206.195 42.0504 205.949 42.2692C205.703 42.488 205.389 42.6149 205.06 42.6286C204.934 42.645 204.818 42.7071 204.735 42.8031C204.651 42.8991 204.604 43.0225 204.604 43.1504C204.604 43.2782 204.651 43.4016 204.735 43.4976C204.818 43.5936 204.934 43.6557 205.06 43.6721C205.267 43.6657 205.471 43.6363 205.671 43.5844V43.5844Z" fill="#3E3A39"/>
<path d="M193.893 47.662C194.437 47.5138 194.909 47.1707 195.219 46.6974C195.257 46.6398 195.283 46.5753 195.296 46.5076C195.309 46.4399 195.309 46.3702 195.295 46.3026C195.281 46.235 195.254 46.1708 195.216 46.1137C195.177 46.0565 195.128 46.0076 195.071 45.9696C195.014 45.9316 194.949 45.9053 194.882 45.8922C194.815 45.8791 194.745 45.8795 194.678 45.8934C194.611 45.9072 194.547 45.9342 194.49 45.9729C194.433 46.0115 194.385 46.0611 194.347 46.1186C194.158 46.3917 193.881 46.5901 193.562 46.6797C193.244 46.7693 192.904 46.7446 192.602 46.6097C192.327 46.5018 192.081 46.3306 191.884 46.1097C191.687 45.8889 191.544 45.6246 191.468 45.3382C191.436 45.204 191.354 45.0874 191.238 45.0136C191.122 44.9398 190.982 44.9147 190.848 44.9436C190.715 44.973 190.6 45.0541 190.526 45.1691C190.452 45.2841 190.427 45.4237 190.456 45.5574C190.573 46.0163 190.799 46.4398 191.115 46.7912C191.431 47.1425 191.828 47.4113 192.27 47.5743C192.789 47.7724 193.356 47.803 193.893 47.662V47.662Z" fill="#3E3A39"/>
<path fill-rule="evenodd" clip-rule="evenodd" d="M194.094 52.9235C193.928 51.9063 189.086 48.688 187.419 49.3369C185.753 49.9858 185.518 55.4052 189.915 57.159C191.11 57.615 194.652 56.3172 194.094 52.9235Z" fill="#3E3A39"/>
<path d="M189.801 57.431C188.68 57.0035 187.716 56.2402 187.041 55.2443C186.365 54.2484 186.01 53.0679 186.024 51.8626C186.024 50.4683 186.538 49.3721 187.315 49.0652C188.388 48.6443 190.264 49.5563 191.284 50.1438C192.689 50.9506 194.268 52.1519 194.382 52.8798C194.518 53.5633 194.463 54.2712 194.225 54.9257C193.986 55.5801 193.572 56.1557 193.029 56.5891C192.31 57.1779 191.418 57.5136 190.491 57.545C190.256 57.5515 190.022 57.5129 189.801 57.431V57.431ZM187.533 49.6089C186.992 49.8193 186.617 50.7489 186.608 51.8713C186.6 52.9574 186.922 54.02 187.532 54.9166C188.142 55.8132 189.01 56.5009 190.019 56.8873C190.545 56.9653 191.081 56.9172 191.585 56.7469C192.088 56.5766 192.545 56.2891 192.917 55.9076C193.288 55.5262 193.565 55.0618 193.724 54.5524C193.883 54.0429 193.92 53.5028 193.832 52.9762C193.78 52.6518 192.68 51.6083 191.023 50.6524C190.102 50.0555 189.057 49.6776 187.969 49.5475C187.821 49.5398 187.673 49.5606 187.533 49.6089V49.6089Z" fill="#3E3A39"/>
<path fill-rule="evenodd" clip-rule="evenodd" d="M207.023 49.7228C206.77 48.7231 209.091 45.0663 210.871 45.0313C212.651 44.9962 213.733 48.7318 212.354 51.3801C211.473 53.0814 207.791 52.8007 207.023 49.7228Z" fill="#3E3A39"/>
<path d="M209.937 52.6868C209.174 52.6001 208.456 52.2766 207.884 51.7611C207.312 51.2457 206.913 50.5639 206.744 49.8105C206.561 49.109 207.276 47.7322 208.009 46.7589C208.463 46.1626 209.649 44.7683 210.871 44.7419C211.223 44.7574 211.565 44.8672 211.861 45.0599C212.157 45.2526 212.397 45.5212 212.555 45.8381C213.016 46.7129 213.263 47.6861 213.273 48.6762C213.284 49.6664 213.059 50.6447 212.616 51.5293C212.383 51.9152 212.049 52.2295 211.65 52.4382C211.252 52.6468 210.804 52.7419 210.356 52.7131L209.937 52.6868ZM210.88 45.3382C210.217 45.3382 209.318 46.0222 208.48 47.0921C207.843 47.8006 207.435 48.6877 207.311 49.6352V49.6352C207.454 50.2728 207.79 50.8503 208.273 51.2884C208.756 51.7265 209.362 52.0036 210.007 52.0818C210.403 52.1601 210.814 52.1186 211.186 51.9625C211.559 51.8064 211.877 51.5427 212.101 51.2048C212.498 50.412 212.702 49.5354 212.694 48.6477C212.687 47.76 212.468 46.887 212.057 46.1012C211.945 45.8795 211.781 45.6887 211.578 45.5451C211.376 45.4015 211.142 45.3094 210.897 45.2769L210.88 45.3382Z" fill="#3E3A39"/>
<path d="M184.636 35.0959C184.636 35.0959 212.755 35.0959 216.917 38.0161C221.079 40.9362 214.893 32.8861 214.893 32.8861L194.443 31.2024L184.636 35.0959Z" fill="white" stroke="#C4BEBB" stroke-linecap="round" stroke-linejoin="round"/>
<path d="M168.287 42.2075C168.287 42.2075 181.949 33.9294 195.333 32.6579C208.716 31.3864 215.033 33.0613 215.033 33.0613C215.033 33.0613 210.286 24.1869 206.945 24.8007C203.603 25.4145 190.368 26.3967 184.139 28.8871C179.864 30.641 170.45 34.6485 169.412 36.9285C168.805 38.6299 168.426 40.4053 168.287 42.2075V42.2075Z" fill="white" stroke="#C4BEBB" stroke-linecap="round" stroke-linejoin="round"/>
<path d="M173.137 29.4661L170.197 35.7624C170.197 35.7624 178.424 32.5441 182.089 31.1673C185.753 29.7905 196.336 26.3618 201.283 26.2916C206.229 26.2215 210.112 26.1601 210.112 26.1601C210.112 26.1601 206.535 21.8983 201.623 21.7755C201.623 21.7755 197.819 20.8986 188.266 23.0909C181.382 24.6606 179.419 25.0815 173.137 29.4661Z" fill="white" stroke="#C4BEBB" stroke-linecap="round" stroke-linejoin="round"/>
<path d="M172.718 54.8517L169.588 57.6875L178.724 67.8749L181.854 65.0392L172.718 54.8517Z" fill="white" stroke="#C4BEBB" stroke-miterlimit="10"/>
<path d="M182.196 58.8049L179.124 55.3787L169.597 64.0092L172.67 67.4354L182.196 58.8049Z" fill="white" stroke="#C4BEBB" stroke-miterlimit="10"/>
</g>
<defs>
<clipPath id="clip0_212_2062">
<rect width="234" height="140" fill="white" transform="translate(8 5)"/>
</clipPath>
</defs>
</svg>
