<svg width="250" height="134" viewBox="0 0 250 134" fill="none" xmlns="http://www.w3.org/2000/svg">
<g clip-path="url(#clip0_212_2064)">
<path d="M131.684 8H72.0965C69.9239 8 67.7726 8.42595 65.7654 9.25354C63.7582 10.0811 61.9345 11.2942 60.3982 12.8233C58.862 14.3525 57.6434 16.168 56.812 18.1659C55.9806 20.1639 55.5526 22.3054 55.5526 24.468V101.219H39C39 105.589 40.744 109.78 43.8482 112.87C46.9524 115.96 51.1626 117.696 55.5526 117.696H115.14C117.314 117.696 119.466 117.27 121.473 116.442C123.481 115.614 125.305 114.4 126.842 112.87C128.378 111.34 129.597 109.523 130.427 107.524C131.258 105.525 131.685 103.383 131.684 101.219V24.468H148.246C148.244 22.3042 147.815 20.1619 146.982 18.1633C146.149 16.1647 144.929 14.3489 143.391 12.8197C141.853 11.2905 140.028 10.0778 138.019 9.25087C136.011 8.42389 133.858 7.99886 131.684 8V8Z" fill="white"/>
<path d="M121.728 28.1963H66.3422V30.711H121.728V28.1963Z" fill="#FADF9D"/>
<path d="M121.728 43.8784H66.3422V46.3931H121.728V43.8784Z" fill="#FADF9D"/>
<path d="M121.728 59.5605H66.3422V62.0753H121.728V59.5605Z" fill="#FADF9D"/>
<path d="M66.3422 77.7573H121.728V75.2339H66.3422V77.7573Z" fill="white"/>
<path d="M177.132 73.3567C177.132 74.0167 176.868 74.6497 176.399 75.1164C175.931 75.583 175.295 75.8452 174.632 75.8452H134.974C134.645 75.8452 134.32 75.7809 134.017 75.6558C133.714 75.5307 133.438 75.3474 133.206 75.1164C132.974 74.8853 132.79 74.6109 132.664 74.309C132.538 74.0071 132.474 73.6835 132.474 73.3567V73.3567C132.473 73.0296 132.536 72.7055 132.662 72.403C132.787 72.1006 132.971 71.8258 133.203 71.5945C133.436 71.3632 133.712 71.1799 134.016 71.0553C134.319 70.9306 134.645 70.867 134.974 70.8682H174.632C174.96 70.867 175.286 70.9306 175.59 71.0553C175.894 71.1799 176.17 71.3632 176.402 71.5945C176.634 71.8258 176.818 72.1006 176.944 72.403C177.069 72.7055 177.133 73.0296 177.132 73.3567Z" fill="#A66746"/>
<path d="M182.237 88.349C182.237 89.1039 181.936 89.8279 181.399 90.3618C180.863 90.8956 180.136 91.1955 179.377 91.1955H130.254C129.496 91.1955 128.769 90.8956 128.232 90.3618C127.696 89.8279 127.395 89.1039 127.395 88.349V88.349C127.395 87.594 127.696 86.87 128.232 86.3362C128.769 85.8023 129.496 85.5024 130.254 85.5024H179.377C180.136 85.5024 180.863 85.8023 181.399 86.3362C181.936 86.87 182.237 87.594 182.237 88.349V88.349Z" fill="#A66746"/>
<path d="M174.009 75.8452H135.596V85.5025H174.009V75.8452Z" fill="#CC8262"/>
<path d="M188.667 91.2043H120.939V112.632H188.667V91.2043Z" fill="#85BFB6"/>
<path d="M185.333 91.2043H182.096V112.632H185.333V91.2043Z" fill="#B4ECF3"/>
<path d="M127.509 91.2043H124.272V112.632H127.509V91.2043Z" fill="#B4ECF3"/>
<path d="M156.612 30.6086L142.002 55.8174L157.389 64.6529L171.998 39.4441L156.612 30.6086Z" fill="#CC8262"/>
<path d="M153.576 35.9688L145.162 50.4814L160.539 59.3152L168.953 44.8026L153.576 35.9688Z" fill="#FFC300"/>
<path d="M156.612 30.6086L142.002 55.8174L157.389 64.6529L171.998 39.4441L156.612 30.6086Z" fill="#CC8262"/>
<path d="M153.576 35.9688L145.162 50.4814L160.539 59.3152L168.953 44.8026L153.576 35.9688Z" fill="#FFC300"/>
<path d="M173.798 40.9009C173.687 41.0922 173.54 41.2599 173.364 41.3942C173.188 41.5285 172.987 41.6269 172.772 41.6837C172.558 41.7405 172.334 41.7546 172.115 41.7251C171.895 41.6957 171.683 41.6233 171.491 41.5121L155.132 32.1169C154.744 31.8939 154.46 31.5271 154.344 31.0967C154.227 30.6663 154.286 30.2074 154.509 29.8204V29.8204C154.734 29.4337 155.105 29.1516 155.538 29.0354C155.972 28.9193 156.435 28.9786 156.825 29.2005L173.184 38.6045C173.376 38.7148 173.545 38.8618 173.68 39.037C173.815 39.2123 173.914 39.4123 173.971 39.6257C174.028 39.8391 174.042 40.0616 174.012 40.2804C173.983 40.4993 173.91 40.7101 173.798 40.9009V40.9009Z" fill="#A66746"/>
<path d="M177.693 39.2244C177.582 39.4167 177.434 39.5854 177.258 39.7207C177.081 39.856 176.88 39.9553 176.664 40.0129C176.449 40.0705 176.225 40.0852 176.004 40.0563C175.783 40.0274 175.57 39.9554 175.377 39.8444L154.623 27.9256C154.431 27.8153 154.262 27.6683 154.127 27.4931C153.992 27.3178 153.894 27.1178 153.836 26.9044C153.779 26.691 153.765 26.4685 153.795 26.2497C153.824 26.0308 153.897 25.82 154.009 25.6292V25.6292C154.119 25.4371 154.266 25.2687 154.442 25.1335C154.617 24.9983 154.818 24.899 155.033 24.8414C155.247 24.7838 155.471 24.7689 155.691 24.7977C155.911 24.8265 156.124 24.8984 156.316 25.0092L177.07 36.928C177.458 37.1509 177.741 37.5177 177.858 37.9481C177.975 38.3786 177.915 38.8375 177.693 39.2244V39.2244Z" fill="#CC8262"/>
<path d="M140.281 54.3651C140.392 54.1735 140.541 54.0057 140.718 53.8713C140.895 53.7369 141.096 53.6385 141.311 53.5817C141.526 53.5249 141.751 53.5109 141.971 53.5405C142.192 53.57 142.404 53.6426 142.597 53.7539L158.956 63.1492C159.343 63.3736 159.624 63.7411 159.739 64.1714C159.854 64.6017 159.793 65.0598 159.57 65.4457V65.4457C159.346 65.8317 158.978 66.1138 158.545 66.2299C158.113 66.3461 157.652 66.2871 157.263 66.0656L140.904 56.6878C140.515 56.4632 140.232 56.0948 140.115 55.6629C139.998 55.2311 140.058 54.7709 140.281 54.3826V54.3651Z" fill="#A66746"/>
<path d="M136.395 56.0242C136.619 55.6381 136.987 55.3561 137.42 55.2399C137.852 55.1237 138.313 55.1828 138.702 55.4042L159.456 67.323C159.649 67.4334 159.819 67.5806 159.955 67.7563C160.091 67.932 160.19 68.1327 160.248 68.3469C160.306 68.561 160.321 68.7844 160.292 69.0043C160.263 69.2242 160.191 69.4362 160.079 69.6281V69.6281C159.854 70.0127 159.484 70.2929 159.052 70.4074C158.62 70.5219 158.16 70.4615 157.772 70.2393L137.018 58.3206C136.825 58.211 136.655 58.0646 136.52 57.8897C136.384 57.7148 136.284 57.5148 136.226 57.3014C136.168 57.0879 136.153 56.8652 136.182 56.646C136.211 56.4268 136.283 56.2155 136.395 56.0242Z" fill="#CC8262"/>
<path d="M201.5 68.3534C191.974 62.8786 165.763 50.2788 165.763 50.2788L164.772 52.0251L164.693 52.1649L163.702 53.8675C163.702 53.8675 187.781 70.1521 197.307 75.6269C206.079 80.6651 207.912 77.5479 208.035 76.9628C208.482 76.5263 210.281 73.3916 201.5 68.3534Z" fill="#A66746"/>
<path d="M208.632 79.3378C208.352 79.8218 207.892 80.1756 207.35 80.3213C206.809 80.467 206.232 80.3928 205.746 80.1149V80.1149C205.26 79.8339 204.907 79.3729 204.762 78.8329C204.617 78.2928 204.693 77.7177 204.974 77.2334L207.053 73.6535C207.332 73.1695 207.793 72.8157 208.334 72.6699C208.875 72.5242 209.452 72.5984 209.939 72.8763V72.8763C210.424 73.1574 210.778 73.6184 210.922 74.1584C211.067 74.6984 210.991 75.2735 210.711 75.7578L208.632 79.3378Z" fill="#CC8262"/>
<path d="M198.807 112.256H108.746V126H198.807V112.256Z" fill="#495466"/>
<path d="M194.377 112.256H190.07V126H194.377V112.256Z" fill="#728CB2"/>
<path d="M117.491 112.256H113.184V126H117.491V112.256Z" fill="#728CB2"/>
</g>
<defs>
<clipPath id="clip0_212_2064">
<rect width="172" height="118" fill="white" transform="translate(39 8)"/>
</clipPath>
</defs>
</svg>
