<svg width="117" height="57" viewBox="0 0 117 57" fill="none" xmlns="http://www.w3.org/2000/svg">
<mask id="mask0_207_1498" style="mask-type:alpha" maskUnits="userSpaceOnUse" x="0" y="0" width="117" height="117">
<path d="M117 58.5C117 90.8087 90.8087 117 58.5 117C26.1913 117 0 90.8087 0 58.5C0 26.1913 26.1913 0 58.5 0C90.8087 0 117 26.1913 117 58.5Z" fill="#C4C4C4"/>
</mask>
<g mask="url(#mask0_207_1498)">
<path d="M-14 -4H131V57H-14V-4Z" fill="#FFCC54"/>
</g>
<path d="M24.7768 33.854V34.97H33.7048V33.854H24.7768ZM24.4348 36.932V38.084H34.0828V36.932H24.4348ZM30.4288 34.214V42.116H31.6528V34.214H30.4288ZM26.7388 34.268V37.544C26.7388 38.534 26.3608 40.442 24.5428 41.558C24.8488 41.738 25.2628 42.116 25.4428 42.368C27.4768 41 27.9088 38.642 27.9088 37.544V34.268H26.7388ZM22.5448 29.156V30.128H27.6028V29.156H22.5448ZM30.8428 29.156V30.128H35.9368V29.156H30.8428ZM35.4148 26.654V40.694C35.4148 40.964 35.3248 41.072 35.0368 41.072C34.7488 41.09 33.7768 41.09 32.7868 41.054C32.9848 41.432 33.1648 42.062 33.2188 42.422C34.5868 42.422 35.4868 42.404 36.0268 42.17C36.5668 41.936 36.7468 41.504 36.7468 40.694V26.654H35.4148ZM22.6528 26.654V27.698H27.1528V31.694H22.6528V32.72H28.4308V26.654H22.6528ZM36.0628 26.654H30.0148V32.738H36.0628V31.712H31.3108V27.698H36.0628V26.654ZM21.8428 26.654V42.458H23.1748V26.654H21.8428ZM39.7528 27.536V28.778H54.7648V27.536H39.7528ZM39.1948 38.588V39.83H55.3768V38.588H39.1948ZM46.5208 25.898V42.494H47.9068V25.898H46.5208ZM42.3808 34.124H52.1188V35.996H42.3808V34.124ZM42.3808 31.226H52.1188V33.062H42.3808V31.226ZM41.0848 30.092V37.112H53.4688V30.092H41.0848ZM61.7848 30.254V39.902C61.7848 41.792 62.3428 42.296 64.3048 42.296C64.7548 42.296 67.5088 42.296 67.9768 42.296C69.9388 42.296 70.3528 41.324 70.5688 38.084C70.1728 37.994 69.5968 37.742 69.2548 37.49C69.1108 40.352 68.9488 40.946 67.9048 40.946C67.2568 40.946 64.9168 40.946 64.4128 40.946C63.4048 40.946 63.1888 40.784 63.1888 39.938V30.254H61.7848ZM61.8208 26.888C63.3328 27.932 65.3128 29.444 66.3568 30.362L67.2568 29.264C66.2128 28.418 64.2508 26.942 62.7028 25.934L61.8208 26.888ZM58.9048 31.334C58.5448 33.296 57.8428 35.744 56.8168 37.31L58.0948 37.832C59.1028 36.248 59.7688 33.656 60.1648 31.658L58.9048 31.334ZM69.5428 32.504C70.7488 34.304 71.9728 36.734 72.4228 38.336L73.7188 37.688C73.2148 36.104 72.0088 33.746 70.7488 31.946L69.5428 32.504ZM70.4968 26.96C67.8868 32.288 63.0448 37.49 56.8348 40.316C57.1228 40.586 57.5188 41.072 57.7168 41.378C64.1248 38.318 68.8768 33.134 71.8288 27.518L70.4968 26.96ZM78.5608 32.99H75.0688V34.25H77.2828V39.362H78.5608V32.99ZM78.5608 38.822H77.4088C76.5808 39.614 75.6268 40.424 74.8528 41.018L75.5548 42.296C76.4188 41.486 77.2288 40.712 78.0028 39.938C79.1368 41.36 80.7748 42.008 83.1688 42.098C85.2208 42.17 89.1448 42.134 91.1968 42.044C91.2508 41.666 91.4668 41.054 91.6288 40.766C89.4148 40.91 85.1848 40.964 83.1508 40.874C81.0088 40.784 79.4068 40.172 78.5608 38.822ZM75.1588 26.996C76.2028 27.896 77.3728 29.192 77.8408 30.092L78.9748 29.318C78.4708 28.418 77.2648 27.176 76.2028 26.312L75.1588 26.996ZM79.8928 33.494V34.538H90.8188V33.494H79.8928ZM79.3168 36.266V37.328H91.3768V36.266H79.3168ZM82.5568 32.198V36.788H83.8528V32.198H82.5568ZM86.8048 32.198V36.788H88.0828V32.198H86.8048ZM80.3428 28.706V29.66H84.6988V26.6H79.6588V27.536H83.5108V28.706H80.3428ZM79.9648 28.706V30.596C79.9648 31.676 80.3248 31.946 81.6568 31.946C81.9268 31.946 83.6368 31.946 83.9248 31.946C84.8428 31.946 85.1848 31.64 85.3108 30.47C84.9868 30.416 84.5368 30.272 84.3208 30.092C84.2668 30.884 84.1768 30.992 83.7448 30.992C83.4028 30.992 82.0348 30.992 81.7828 30.992C81.2068 30.992 81.1168 30.92 81.1168 30.578V28.706H79.9648ZM86.2828 28.706V29.66H90.5668V26.6H85.5628V27.536H89.3968V28.706H86.2828ZM85.8868 28.706V30.578C85.8868 31.676 86.2648 31.946 87.6328 31.946C87.9208 31.946 89.7568 31.946 90.0448 31.946C91.0168 31.946 91.3588 31.64 91.4848 30.416C91.1608 30.344 90.7108 30.2 90.4768 30.038C90.4228 30.884 90.3328 30.992 89.8828 30.992C89.5228 30.992 88.0468 30.992 87.7588 30.992C87.1468 30.992 87.0388 30.92 87.0388 30.578V28.706H85.8868ZM86.4808 38.138C87.7228 38.786 89.0548 39.65 89.7748 40.316L91.1068 39.722C90.2428 39.056 88.7668 38.174 87.4528 37.544L86.4808 38.138ZM83.1868 37.508C82.3768 38.246 81.0268 38.93 79.8028 39.416C80.0908 39.596 80.5948 40.028 80.7928 40.262C81.9988 39.686 83.4568 38.804 84.3748 37.922L83.1868 37.508Z" fill="#2B2B2B"/>
<rect width="117" height="6" transform="matrix(1 0 0 -1 0 57)" fill="url(#paint0_linear_207_1498)"/>
<defs>
<linearGradient id="paint0_linear_207_1498" x1="58.5" y1="0" x2="58.5" y2="6" gradientUnits="userSpaceOnUse">
<stop stop-color="#E7A100"/>
<stop offset="1" stop-color="#B78102" stop-opacity="0"/>
</linearGradient>
</defs>
</svg>
