<svg width="117" height="57" viewBox="0 0 117 57" fill="none" xmlns="http://www.w3.org/2000/svg">
<mask id="mask0_207_1502" style="mask-type:alpha" maskUnits="userSpaceOnUse" x="0" y="0" width="117" height="117">
<path d="M117 58.5C117 90.8087 90.8087 117 58.5 117C26.1913 117 0 90.8087 0 58.5C0 26.1913 26.1913 0 58.5 0C90.8087 0 117 26.1913 117 58.5Z" fill="#C4C4C4"/>
</mask>
<g mask="url(#mask0_207_1502)">
<path d="M-14 26C-14 9.43146 -0.568543 -4 16 -4H101C117.569 -4 131 9.43146 131 26V57H-14V26Z" fill="#EEC4C3"/>
</g>
<path d="M23.1748 31.784V32.918H37.3768V31.784H23.1748ZM22.2208 27.392V28.49H36.4768V27.392H22.2208ZM26.4148 34.772V35.87H36.2068V34.772H26.4148ZM26.0188 37.67V38.768H35.7748V37.67H26.0188ZM24.3988 40.928V42.08H37.2328V40.928H24.3988ZM28.5388 25.898V28.166H29.8888V25.898H28.5388ZM30.1228 33.314V41.396H31.4548V33.314H30.1228ZM22.4728 31.784V34.682C22.4728 36.734 22.2928 39.632 20.8348 41.738C21.1228 41.9 21.6808 42.332 21.8968 42.602C23.4988 40.316 23.8048 36.986 23.8048 34.7V31.784H22.4728ZM26.6128 33.26C26.1268 34.61 25.2988 35.942 24.3448 36.842C24.6508 37.004 25.1548 37.346 25.3708 37.544C26.3428 36.572 27.2608 35.078 27.8188 33.548L26.6128 33.26ZM24.9208 29.12C27.8368 29.804 31.4548 31.046 33.4348 31.946L34.2808 31.172C32.2468 30.308 28.6108 29.084 25.7848 28.4L24.9208 29.12ZM32.6968 28.148C30.9328 29.444 27.0988 30.506 24.0928 31.046C24.2728 31.262 24.5248 31.676 24.6328 31.91C27.7648 31.298 31.5268 30.164 33.6688 28.67L32.6968 28.148ZM42.0028 29.39V30.704H54.4768V29.39H42.0028ZM41.2108 34.664V35.96H53.8288V34.664H41.2108ZM39.2488 40.55V41.864H55.3228V40.55H39.2488ZM46.5928 25.898V41.216H47.9788V25.898H46.5928ZM42.5428 26.186C41.8588 28.76 40.6888 31.262 39.2128 32.864C39.5548 33.044 40.1668 33.44 40.4368 33.674C41.8768 31.946 43.1368 29.282 43.9288 26.492L42.5428 26.186ZM64.4668 31.37V40.784C64.4668 41.108 64.3408 41.18 64.0168 41.198C63.6568 41.216 62.4328 41.216 61.1188 41.18C61.3168 41.54 61.5508 42.116 61.6408 42.494C63.2788 42.494 64.3408 42.494 64.9708 42.278C65.6188 42.062 65.8348 41.666 65.8348 40.802V31.37H64.4668ZM59.4988 30.902V32.072H70.1008V39.254H71.4508V30.902H59.4988ZM57.0328 33.962V35.168H73.5028V33.962H57.0328ZM59.0668 37.238V38.408H70.8208V37.238H59.0668ZM70.1908 26.006C67.7968 26.546 63.4948 26.96 59.8588 27.158C60.0028 27.446 60.1828 27.968 60.2188 28.274C63.9268 28.094 68.3368 27.68 71.2888 27.05L70.1908 26.006ZM59.6608 26.816C59.1388 28.49 58.2568 30.146 57.2128 31.244C57.5548 31.406 58.1308 31.784 58.3828 32.018C59.4088 30.83 60.4168 28.976 61.0108 27.122L59.6608 26.816ZM63.9268 28.4C64.3228 29.174 64.7008 30.218 64.7908 30.866L66.0688 30.524C65.9608 29.876 65.5648 28.868 65.1508 28.112L63.9268 28.4ZM69.0208 28.022C70.1548 29.138 71.3968 30.704 71.9368 31.712L73.1068 31.064C72.5488 30.038 71.2708 28.526 70.1368 27.446L69.0208 28.022ZM85.4368 27.95V32.45H86.7508V27.95H85.4368ZM83.2768 34.25V41.18C83.2768 41.378 83.2228 41.432 83.0068 41.45C82.7908 41.45 82.0888 41.45 81.3328 41.432C81.4768 41.738 81.6568 42.17 81.7108 42.458C82.7548 42.458 83.4568 42.44 83.9068 42.278C84.3388 42.116 84.4648 41.81 84.4648 41.198V34.25H83.2768ZM88.5148 25.862C88.2988 26.366 87.8488 27.158 87.5068 27.662L88.4428 28.004C88.8208 27.536 89.2888 26.906 89.7028 26.222L88.5148 25.862ZM82.7008 26.258C83.1508 26.816 83.6008 27.554 83.7988 28.058L84.8248 27.626C84.6268 27.122 84.1228 26.384 83.6728 25.88L82.7008 26.258ZM88.4788 34.088C89.1988 34.574 90.0448 35.312 90.4228 35.87L91.2508 35.186C90.8548 34.664 90.0088 33.944 89.2708 33.476L88.4788 34.088ZM80.6668 38.822L80.8288 39.92C82.4128 39.686 84.4468 39.38 86.4448 39.074L86.4088 38.066C84.2848 38.372 82.1428 38.642 80.6668 38.822ZM85.4728 33.368C84.4468 33.746 82.5748 34.052 80.9908 34.232C81.1168 34.484 81.2608 34.862 81.3148 35.096C82.9528 34.934 84.9328 34.628 86.2828 34.196L85.4728 33.368ZM81.3868 27.662V28.652H90.9988V27.662H81.3868ZM81.9808 29.822V30.758H90.5128V29.822H81.9808ZM80.7388 32.018V33.044H91.3768V32.018H80.7388ZM80.7208 36.086V37.13H91.4128V36.086H80.7208ZM86.6248 33.476C86.8048 39.146 87.9028 42.584 90.1168 42.584C91.0168 42.584 91.4488 42.062 91.6468 40.424C91.3768 40.316 91.0168 40.154 90.7828 39.92C90.6928 41.09 90.5308 41.486 90.2248 41.486C88.9648 41.504 87.8668 38.786 87.7948 33.476H86.6248ZM89.6308 37.526C88.7128 39.272 86.8768 40.712 85.0048 41.522C85.2388 41.72 85.5448 42.044 85.6888 42.26C87.6328 41.378 89.5768 39.83 90.6208 37.994L89.6308 37.526ZM75.6808 31.334V32.414H80.3068V31.334H75.6808ZM75.7888 26.528V27.608H80.2528V26.528H75.7888ZM75.6808 33.746V34.826H80.3068V33.746H75.6808ZM74.9428 28.886V30.002H80.7568V28.886H74.9428ZM76.3108 36.176V37.292H79.1548V40.298H76.3108V41.414H80.2888V36.176H76.3108ZM75.6448 36.176V42.26H76.7608V36.176H75.6448Z" fill="#2B2B2B"/>
<rect width="117" height="6" transform="matrix(1 0 0 -1 0 57)" fill="url(#paint0_linear_207_1502)"/>
<defs>
<linearGradient id="paint0_linear_207_1502" x1="58.5" y1="0" x2="58.5" y2="6" gradientUnits="userSpaceOnUse">
<stop stop-color="#B15555"/>
<stop offset="0.0001" stop-color="#D06666"/>
<stop offset="1" stop-color="#B15555" stop-opacity="0"/>
</linearGradient>
</defs>
</svg>
