<svg width="117" height="57" viewBox="0 0 117 57" fill="none" xmlns="http://www.w3.org/2000/svg">
<mask id="mask0_207_1505" style="mask-type:alpha" maskUnits="userSpaceOnUse" x="0" y="0" width="117" height="117">
<path d="M117 58.5C117 90.8087 90.8087 117 58.5 117C26.1913 117 0 90.8087 0 58.5C0 26.1913 26.1913 0 58.5 0C90.8087 0 117 26.1913 117 58.5Z" fill="#C4C4C4"/>
</mask>
<g mask="url(#mask0_207_1505)">
<path d="M-14 26C-14 9.43146 -0.568543 -4 16 -4H101C117.569 -4 131 9.43146 131 26V57H-14V26Z" fill="#BCD3E8"/>
</g>
<path d="M21.5008 27.158V28.526H36.9988V27.158H21.5008ZM30.3208 32.396C32.4628 33.854 35.1628 35.96 36.4228 37.346L37.5208 36.32C36.1888 34.934 33.4348 32.9 31.3288 31.532L30.3208 32.396ZM29.9788 27.626C28.3048 31.01 24.9568 34.466 21.0508 36.428C21.3208 36.716 21.7528 37.256 21.9688 37.598C26.0368 35.456 29.4028 31.892 31.4548 28.166L29.9788 27.626ZM28.5028 31.226V42.422H29.9608V29.786L28.5028 31.226ZM41.0128 27.806V29.012H53.5228V27.806H41.0128ZM39.1408 31.064V32.252H55.4128V31.064H39.1408ZM39.6088 34.862V36.068H54.8908V34.862H39.6088ZM40.5808 38.192V39.38H54.0448V38.192H40.5808ZM46.5028 25.898V31.586H47.8888V25.898H46.5028ZM46.5028 35.906V42.458H47.8888V35.906H46.5028ZM42.5608 32.486C43.0648 33.314 43.5688 34.43 43.7668 35.15L45.0268 34.718C44.8288 34.034 44.2888 32.936 43.7668 32.126L42.5608 32.486ZM50.6608 31.982C50.3368 32.828 49.7608 34.034 49.2748 34.808L50.4268 35.168C50.9308 34.448 51.5788 33.35 52.1548 32.378L50.6608 31.982ZM57.1948 40.766V41.882H73.3408V40.766H57.1948ZM57.2848 29.084V30.2H73.2328V29.084H57.2848ZM58.5268 38.138V39.218H72.1888V38.138H58.5268ZM64.5028 27.266V41.306H65.8528V27.266H64.5028ZM70.7668 25.988C67.9228 26.51 62.8288 26.834 58.6348 26.942C58.7608 27.23 58.9228 27.698 58.9228 28.022C63.1348 27.932 68.2648 27.626 71.4868 27.032L70.7668 25.988ZM60.4168 34.52H70.1548V35.906H60.4168V34.52ZM60.4168 32.252H70.1548V33.62H60.4168V32.252ZM59.1028 31.28V36.878H71.5228V31.28H59.1028ZM83.0068 32.126H88.6048V33.206H83.0068V32.126ZM83.0068 30.29H88.6048V31.334H83.0068V30.29ZM81.7648 29.444V34.052H89.9008V29.444H81.7648ZM82.3228 25.88C81.6748 27.59 80.6128 29.336 79.4428 30.47C79.7488 30.65 80.2528 31.064 80.4868 31.262C81.6208 30.038 82.7908 28.112 83.5288 26.204L82.3228 25.88ZM82.3408 27.446L81.8368 28.49H91.1788V27.446H82.3408ZM79.4788 34.934V35.978H91.6288V34.934H79.4788ZM82.8988 35.42C82.0528 36.806 80.6128 38.084 79.1728 38.948C79.4068 39.128 79.8388 39.56 80.0188 39.776C81.4768 38.804 83.0248 37.328 83.9788 35.762L82.8988 35.42ZM84.3028 37.346C83.4568 39.02 81.9268 40.514 80.3248 41.468C80.5948 41.648 81.0088 42.062 81.2068 42.26C82.7908 41.18 84.4108 39.542 85.3648 37.688L84.3028 37.346ZM87.3268 37.346C86.6788 39.182 85.4368 40.802 83.9608 41.828C84.2128 42.008 84.6808 42.368 84.8788 42.566C86.3368 41.432 87.7048 39.668 88.4428 37.616L87.3268 37.346ZM82.1428 37.058L81.3508 38.048H90.2968V37.058H82.1428ZM89.8828 37.058V37.238C89.6128 39.884 89.3248 40.946 88.9648 41.27C88.8388 41.414 88.6948 41.432 88.4428 41.432C88.1908 41.432 87.5968 41.432 86.9488 41.36C87.1108 41.648 87.2368 42.098 87.2548 42.422C87.9208 42.458 88.5868 42.458 88.9288 42.44C89.3608 42.422 89.6668 42.314 89.9368 42.044C90.4048 41.558 90.7288 40.406 91.0348 37.58C91.0708 37.4 91.0888 37.058 91.0888 37.058H89.8828ZM79.0108 25.952C78.0028 28.688 76.3108 31.388 74.5288 33.134C74.7808 33.44 75.1588 34.16 75.3028 34.466C77.2468 32.45 79.1008 29.408 80.2888 26.348L79.0108 25.952ZM77.1388 30.596V42.422H78.4348V29.336L78.3988 29.318L77.1388 30.596Z" fill="#2B2B2B"/>
<rect width="117" height="6" transform="matrix(1 0 0 -1 0 57)" fill="url(#paint0_linear_207_1505)"/>
<defs>
<linearGradient id="paint0_linear_207_1505" x1="58.5" y1="0" x2="58.5" y2="6" gradientUnits="userSpaceOnUse">
<stop stop-color="#0F7EA0"/>
<stop offset="1" stop-color="#0A6784" stop-opacity="0"/>
</linearGradient>
</defs>
</svg>
