<svg width="82" height="101" viewBox="0 0 82 101" fill="none" xmlns="http://www.w3.org/2000/svg">
<g clip-path="url(#clip0_301_1943)">
<path d="M52.9489 43.1561C52.9489 43.1561 58.1163 54.2986 65.8955 60.8335C68.8363 64.1678 64.5301 63.7247 64.5301 63.7247C64.5301 63.7247 66.5817 65.4481 65.1463 66.4821C64.278 67.2137 63.1157 65.9124 63.1157 65.9124C63.1157 65.9124 64.4461 67.5584 62.8146 68.5854C61.1832 69.6125 57.7732 67.3403 54.3422 63.8935C50.9113 60.4537 46.423 53.3067 45.3657 49.2619C45.3657 49.2619 47.9635 41.2427 52.9489 43.1561V43.1561Z" fill="#7BBFAD"/>
<path d="M37.8036 91.6372C37.8036 91.6372 35.738 81.9438 38.8399 76.6469C41.9417 71.35 53.1309 69.8587 55.6096 79.939C58.0883 90.0193 55.3225 94.6198 55.3225 94.6198C55.3225 94.6198 59.2156 95.2248 58.9985 97.7994C58.7815 100.374 42.2288 100.444 37.8036 91.6443V91.6372Z" fill="#7BBFAD"/>
<path d="M18.3031 54.6222L18.149 54.4111L18.2331 54.5167L18.149 54.4111L18.1631 54.4252L18.149 54.4111L18.1771 54.4393L18.1701 54.4252L18.3521 54.58L18.3171 54.6151L18.3031 54.6222Z" fill="#1E1E1E"/>
<path d="M57.7732 64.1397C57.4301 60.2216 55.9667 52.751 55.9667 52.751C55.9667 52.751 51.0513 33.519 51.0303 31.9292C48.7757 32.3583 43.0971 33.3079 39.8622 32.6608C39.8622 32.6608 33.4274 69.3311 37.7616 81.4585C38.3007 82.9638 38.5458 84.441 38.6718 85.8409C39.0009 89.4355 38.5318 92.5025 40.1423 94.1556C55.1615 90.0264 57.7312 79.0949 57.9973 75.5214C58.1793 73.0664 58.1653 68.487 57.7802 64.1397H57.7732Z" fill="#FFECAD"/>
<path d="M81.8319 12.1203C81.5379 10.418 80.7396 9.0322 79.7594 8.14586C78.1699 6.70381 76.0903 6.54202 74.858 8.38503L52.3397 8.64531C52.3397 8.64531 52.9278 0.372844 48.0685 0.0140891C43.2091 -0.3517 42.9921 7.35097 43.1461 7.61828C43.2931 7.88559 36.9214 8.58903 33.9105 10.5657C33.9105 10.5657 34.7577 2.50427 28.9671 2.19475C23.1765 1.88524 23.5686 10.1718 23.6526 10.8119C23.7296 11.452 20.6278 14.1392 21.321 14.9552C22.0212 15.7712 23.9607 15.1521 23.9607 15.1521C23.9607 15.1521 20.6348 18.2684 20.8378 19.7456C21.0409 21.2228 23.6176 20.653 23.6176 20.653C23.6176 20.653 20.6558 23.9873 20.9639 24.9018C21.279 25.8163 22.0562 25.556 23.5406 25.0988C23.5406 25.0988 20.5508 27.9196 20.9849 29.7345C21.419 31.5423 23.3025 29.9736 23.5616 29.9314C23.8207 29.8892 20.8939 32.717 21.2019 34.5179C21.51 36.3187 23.3375 34.6796 23.3375 34.6796C23.3375 34.6796 20.1376 38.633 20.7748 40.265C21.7131 41.2216 22.8824 39.9766 22.8824 39.9766C22.8824 39.9766 21.601 41.7914 21.0409 43.346C19.2414 42.5582 17.3018 41.4678 15.3203 39.9484C11.4342 37.7959 12.8136 41.9251 12.8136 41.9251C12.8136 41.9251 10.692 40.2931 9.9988 41.9251C9.48065 42.931 11.0001 43.7892 11.0001 43.7892C11.0001 43.7892 9.10955 42.8466 8.47237 44.6685C7.83519 46.4904 13.2127 50.5422 17.3088 53.145C18.7092 54.0383 16.2586 53.363 16.6997 54.58C16.7137 54.6222 16.6997 54.6644 16.7207 54.7066C17.1968 55.206 16.6367 55.2553 17.0848 55.1568C17.2178 55.206 17.3509 55.2553 17.4909 55.3116C16.4756 56.423 14.8652 58.4911 15.3273 59.9543C16.0485 60.6014 16.7767 60.2567 17.2668 59.8628C17.6029 59.49 17.848 59.2579 17.848 59.2579C17.848 59.2579 17.6239 59.5744 17.2668 59.8628C16.8747 60.2989 16.3636 60.918 15.9715 61.5792C15.4883 62.3952 15.1873 63.2675 15.5444 63.9076C16.2796 65.223 17.3439 64.4844 17.694 64.1819C17.1408 64.6955 14.7811 67.0238 15.3973 68.5292C16.1115 69.0497 16.7277 68.902 17.1548 68.6418C17.5119 68.29 17.771 68.072 17.771 68.072C17.771 68.072 17.5399 68.4026 17.1548 68.6418C16.4126 69.3804 15.2573 70.7239 15.2083 72.0112C15.1312 73.9105 17.764 72.5177 17.764 72.5177C17.764 72.5177 14.7811 74.3889 15.7964 75.226C16.8117 76.0631 17.6169 75.3596 17.6169 75.3596C17.6169 75.3596 16.1745 77.7302 13.3037 74.7195C10.4329 71.7088 9.34061 65.9124 8.66142 63.1971C7.97523 60.4818 8.10126 51.3019 5.51054 51.2949C4.3202 51.2949 2.40166 53.9258 1.51942 57.2038C0.448116 61.0516 -0.189063 66.4189 0.0490041 71.4837C1.1133 77.4699 4.27819 89.1611 16.5666 93.4662C17.1198 95.1685 17.6169 96.294 17.6169 96.294C23.7437 103.99 44.4345 100.508 44.1124 97.94C43.7973 95.3795 39.8622 95.5906 39.8622 95.5906C39.8622 95.5906 40.0302 95.1052 40.1283 94.1626C40.1563 93.9234 40.1703 93.6491 40.1843 93.3536C40.1913 93.1848 40.1983 93.016 40.1983 92.8401C40.2053 91.799 40.1072 90.4625 39.7922 88.8516V88.8164C39.7641 88.7039 39.7361 88.5913 39.7151 88.4788C39.309 86.3896 38.6578 84.019 37.7476 81.4725C33.8755 70.6395 38.5948 40.2228 39.6521 33.8566C39.7782 33.0969 39.8482 32.6748 39.8482 32.6748C43.0901 33.315 48.7617 32.3724 51.0163 31.9433C51.0163 31.8659 51.0163 31.8307 51.0303 31.8377C51.0793 31.894 51.8355 31.7885 53.0469 31.5493C57.5841 30.67 68.6332 27.9618 74.0248 25.0917C80.8657 21.455 82.5742 16.5871 81.8109 12.1273L81.8319 12.1203Z" fill="#8DCEBF"/>
<path d="M30.9067 10.1507C30.8227 11.234 30.1155 12.057 29.3173 12.0007C28.519 11.9374 27.9379 11.0159 28.0149 9.9326C28.0919 8.84931 28.8061 8.02628 29.6044 8.08256C30.4026 8.14587 30.9837 9.06737 30.9067 10.1507V10.1507Z" fill="#3E3A39"/>
<path d="M49.5179 7.22434C49.4339 8.30764 48.7267 9.13066 47.9285 9.07439C47.1303 9.01811 46.5491 8.08957 46.6261 7.00627C46.7031 5.92298 47.4173 5.09292 48.2156 5.15623C49.0138 5.2125 49.5949 6.14104 49.5179 7.22434Z" fill="#3E3A39"/>
<path d="M73.3736 17.9026C72.1063 17.579 69.2845 15.0537 70.6078 13.4428C71.9312 11.8249 75.9853 18.5638 73.3736 17.9026Z" fill="#3E3A39"/>
<path d="M77.9738 17.4382C79.0522 16.6996 80.8307 13.3513 79.0311 12.2891C77.2386 11.2339 75.7472 18.9647 77.9738 17.4382Z" fill="#3E3A39"/>
<path d="M40.4643 33.0266C38.6998 32.8929 37.0404 32.5764 35.766 31.9433C32.3 30.2269 32.5171 26.7378 32.5171 26.7026C32.5311 26.5619 32.6501 26.4564 32.7902 26.4705C32.9302 26.4846 33.0352 26.6042 33.0212 26.7448C33.0142 26.8715 32.8322 29.9314 35.9831 31.4931C40.5483 33.7511 50.9323 31.8518 51.0373 31.8307C51.0443 31.8307 51.0583 32.295 51.0583 32.295C50.7432 32.3583 45.2397 33.3853 40.4573 33.0266H40.4643Z" fill="#3E3A39" stroke="#3E3A39" stroke-width="0.5" stroke-linecap="round" stroke-linejoin="round"/>
<path d="M22.3573 78.7642C23.3796 78.8416 24.0798 80.551 23.9258 82.591C23.7717 84.6239 22.8264 86.2137 21.8042 86.1363C20.7819 86.0589 20.0817 84.3496 20.2357 82.3096C20.3898 80.2696 21.335 78.6869 22.3573 78.7572V78.7642Z" fill="#7BBFAD"/>
<path d="M26.4114 57.6189C27.4337 57.6962 28.1339 59.4056 27.9798 61.4456C27.8258 63.4785 26.8805 65.0683 25.8582 64.9909C24.836 64.9135 24.1358 63.2042 24.2898 61.1642C24.4438 59.1242 25.3891 57.5415 26.4114 57.6118V57.6189Z" fill="#7BBFAD"/>
<path d="M19.8015 64.9979C20.4387 65.0472 20.8798 66.1234 20.7888 67.3966C20.6907 68.6769 20.0956 69.6688 19.4584 69.6195C18.8212 69.5703 18.3801 68.494 18.4711 67.2208C18.5692 65.9405 19.1643 64.9487 19.8015 64.9979Z" fill="#7BBFAD"/>
<path d="M24.8359 73.6713C25.284 73.7065 25.5921 74.4521 25.5221 75.3455C25.4521 76.2318 25.039 76.9283 24.5978 76.8931C24.1497 76.8579 23.8486 76.1123 23.9116 75.2189C23.9817 74.3326 24.3948 73.6361 24.8359 73.6713Z" fill="#7BBFAD"/>
<path d="M22.0492 60.1582C22.4973 60.1934 22.8054 60.939 22.7354 61.8324C22.6723 62.7187 22.2522 63.4151 21.8111 63.38C21.363 63.3448 21.0619 62.5992 21.1249 61.7058C21.1879 60.8124 21.608 60.123 22.0492 60.1582Z" fill="#7BBFAD"/>
<path d="M17.4209 79.2285C17.869 79.2637 18.1771 80.0093 18.1071 80.9027C18.044 81.7961 17.6239 82.4855 17.1828 82.4503C16.7347 82.4151 16.4336 81.6695 16.4966 80.7761C16.5666 79.8827 16.9797 79.1933 17.4209 79.2285Z" fill="#7BBFAD"/>
<path d="M42.481 68.9301C42.481 68.9301 49.3219 70.5832 54.0622 67.3263" stroke="white" stroke-linecap="round" stroke-linejoin="round"/>
<path d="M41.0945 73.8964C41.0945 73.8964 49.0067 75.8098 54.4892 72.0394" stroke="white" stroke-linecap="round" stroke-linejoin="round"/>
<path d="M40.5133 79.334C40.5133 79.334 49.7139 81.2333 56.0927 77.5192" stroke="white" stroke-linecap="round" stroke-linejoin="round"/>
</g>
<defs>
<clipPath id="clip0_301_1943">
<rect width="82" height="101" fill="white"/>
</clipPath>
</defs>
</svg>
