<svg width="60" height="60" viewBox="0 0 60 60" fill="none" xmlns="http://www.w3.org/2000/svg">
<path fill-rule="evenodd" clip-rule="evenodd" d="M45.4833 9.13302C46.6011 9.34133 47.6172 9.54456 48.6333 9.77827C51.8646 10.5251 52.2659 13.7564 51.9865 15.372C51.9103 16.3882 50.7926 30.6647 50.2845 33.1542C49.2734 38.3314 45.5798 43.5644 39.3053 48.7162C36.4826 51.0396 33.4538 53.1007 30.2567 54.8739C30.1065 54.9566 29.9378 55 29.7664 55C29.5949 55 29.4263 54.9566 29.2761 54.8739C26.1407 53.0488 23.1723 50.9509 20.4053 48.6044C14.2527 43.3968 10.6505 38.179 9.68014 33.0984C9.2178 30.6597 8.13054 16.7438 8.05433 15.7277C7.8257 14.1323 8.21183 10.9722 11.3059 10.1695C12.2411 9.93329 13.19 9.72453 14.1916 9.50415C14.2457 9.49226 14.2999 9.48033 14.3543 9.46836C16.8712 8.98575 19.3463 8.30625 21.7568 7.43611C25.5927 5.95765 28.5343 5.16505 29.8147 5.00755C29.8905 4.99748 29.9674 4.99748 30.0433 5.00755C30.1193 4.99981 30.1959 4.99981 30.2719 5.00755C31.5472 5.12949 34.0367 5.86111 37.8929 7.23796C40.3699 8.0661 42.9077 8.6997 45.4833 9.13302ZM50.0102 15.1993V15.1231C50.4166 12.3592 48.4047 11.8105 48.1811 11.7597C47.2107 11.5311 46.1895 11.333 45.1023 11.1246C42.4253 10.6721 39.7873 10.0131 37.2121 9.15336C32.67 7.53264 30.8359 7.09568 30.0992 7.02455C29.1643 7.13632 26.4411 7.80698 22.524 9.33117C20.0166 10.2371 17.4433 10.9487 14.8268 11.4599C14.7513 11.4765 14.676 11.493 14.6011 11.5094C13.6426 11.7196 12.7322 11.9193 11.8699 12.1408C9.86582 12.6632 10.0812 15.0144 10.1179 15.4145C10.1205 15.4425 10.1221 15.4609 10.1221 15.4685C10.125 15.4922 10.125 15.5161 10.1221 15.5397C10.1323 15.6921 11.2704 30.3599 11.7225 32.7224C13.6329 42.7211 27.1067 51.2006 29.835 52.8264C32.5887 51.2463 46.347 42.9446 48.3386 32.7834C48.8111 30.365 50.0102 15.3517 50.0102 15.1993ZM41.9007 13.1154C42.7434 13.2925 43.554 13.463 44.3198 13.6548C46.7941 14.2696 46.3369 17.3636 46.3369 17.3636C46.3369 17.3636 45.4122 29.8569 45.0311 31.8892C43.2377 41.6694 29.9163 49.2039 29.9163 49.2039C29.9163 49.2039 16.7828 41.5119 15.0402 31.8587C14.6744 29.8366 13.7751 17.577 13.7751 17.577C13.7751 17.577 13.3179 14.549 15.7261 13.8987C16.463 13.6997 17.2461 13.5206 18.0615 13.3342C19.9108 12.9115 21.9262 12.4507 23.9465 11.6327C26.8577 10.454 29.1948 9.78843 30.089 9.69698H30.1398C31.0188 9.76811 32.9392 10.3931 35.9216 11.5159C37.9808 12.2912 40.0207 12.7201 41.9007 13.1154ZM29.2456 37.3966L40.677 21.7838L40.6923 21.7889C40.8394 21.6014 40.9474 21.3862 41.0097 21.1562C41.0721 20.9261 41.0875 20.6859 41.0552 20.4498C41.0229 20.2136 40.9434 19.9865 40.8215 19.7816C40.6996 19.5768 40.5378 19.3986 40.3457 19.2576C40.1535 19.1165 39.935 19.0155 39.7031 18.9606C39.4711 18.9057 39.2305 18.898 38.9956 18.9379C38.7606 18.9778 38.5361 19.0646 38.3353 19.193C38.1345 19.3214 37.9616 19.4889 37.8268 19.6855L27.8027 33.3727L23.6925 27.9517C23.4075 27.5758 22.9849 27.3284 22.5175 27.2641C22.0502 27.1998 21.5764 27.3237 21.2005 27.6087C20.8245 27.8937 20.5772 28.3164 20.5129 28.7838C20.4485 29.2511 20.5725 29.7249 20.8575 30.1008L26.4106 37.422C26.5763 37.6412 26.7905 37.8191 27.0364 37.9416C27.2824 38.0641 27.5534 38.128 27.8281 38.1281C28.1052 38.1258 28.3779 38.0584 28.6241 37.9313C28.8703 37.8042 29.0832 37.6211 29.2456 37.3966Z" fill="#3E3A39"/>
</svg>
