<svg width="61" height="62" viewBox="0 0 61 62" fill="none" xmlns="http://www.w3.org/2000/svg">
<g clip-path="url(#clip0_7_1961)">
<path fill-rule="evenodd" clip-rule="evenodd" d="M2.04557 29.8191C1.21788 29.8191 0.471771 30.3179 0.155393 31.0827C-0.160984 31.8475 0.0147336 32.7277 0.600551 33.3124L28.7439 61.4023C29.5424 62.1992 30.8354 62.1992 31.6339 61.4023L59.7773 33.3124C60.3631 32.7277 60.5388 31.8475 60.2224 31.0827C59.9061 30.3179 59.1599 29.8191 58.3323 29.8191H45.2155V2.04551C45.2155 0.915804 44.2997 0 43.17 0H17.2078C16.0781 0 15.1623 0.915804 15.1623 2.04551V29.8191H2.04557ZM43.17 2.04551V31.8646H58.3323L58.3322 31.8646H43.17V2.04552L17.2078 2.04551H43.17Z" fill="#009DA2"/>
</g>
<defs>
<clipPath id="clip0_7_1961">
<rect width="61.001" height="62" fill="white"/>
</clipPath>
</defs>
</svg>
