<svg width="24" height="24" viewBox="0 0 24 24" fill="none" xmlns="http://www.w3.org/2000/svg">
<path fill-rule="evenodd" clip-rule="evenodd" d="M12 23C18.0751 23 23 18.0751 23 12C23 5.92487 18.0751 1 12 1C5.92487 1 1 5.92487 1 12C1 18.0751 5.92487 23 12 23ZM8.64865 7.05014C8.64865 6.81812 8.74656 6.5956 8.92085 6.43151C9.09519 6.26747 9.33162 6.17532 9.57814 6.17532C9.82466 6.17532 10.0611 6.26747 10.2354 6.43151L15.4947 11.3814C15.669 11.5455 15.7669 11.768 15.7669 12C15.7669 12.232 15.669 12.4545 15.4947 12.6186L10.2354 17.5685C10.0601 17.7279 9.82525 17.8161 9.58149 17.8141C9.33772 17.8121 9.10455 17.7201 8.93218 17.5578C8.7598 17.3956 8.66203 17.1762 8.65991 16.9467C8.65779 16.7173 8.7515 16.4963 8.92085 16.3313L13.5228 12L8.92085 7.66876C8.74656 7.50467 8.64865 7.28215 8.64865 7.05014Z" fill="#3E3A39"/>
</svg>
