<svg xmlns="http://www.w3.org/2000/svg" xmlns:xlink="http://www.w3.org/1999/xlink" viewBox="0 0 165.41 69.17"><defs><style>.cls-1,.cls-8{fill:none;}.cls-2{fill:#8dcebf;}.cls-3{clip-path:url(#clip-path);}.cls-4{fill:#ffecad;}.cls-5,.cls-6{fill:#3e3a39;}.cls-6,.cls-8{stroke:#3e3a39;}.cls-6{stroke-linecap:round;stroke-linejoin:round;stroke-width:0.5px;}.cls-7{fill:#7bbfad;}.cls-8{stroke-miterlimit:10;stroke-width:2px;}.cls-9{fill:#ffbf17;}</style><clipPath id="clip-path"><rect class="cls-1" width="151.9" height="60.72"/></clipPath></defs><g id="圖層_2" data-name="圖層 2"><g id="图层_1" data-name="图层 1"><path class="cls-2" d="M36.2,67.28a2.55,2.55,0,0,1-3.66,1.58,3.22,3.22,0,0,1-1.33-3.32s-1.88,2.11-3.74.08-.55-8,6.08-10c8.21-2.48,13.44,1.68,14.67,5.12,0,0-3.39-.11-5.24,0,0,0-2.69,1-2,3.53.84,3,.18,4.38-1.23,4.78C38.52,69.38,36.42,69,36.2,67.28Z"/><g class="cls-3"><path class="cls-4" d="M111.79,97.25c-.5-5.57-2.59-16.19-2.59-16.19s-7-27.34-7-29.6c-3.22.61-11.33,2-16,1,0,0-9.2,52.13-3,69.37a24.76,24.76,0,0,1,1.3,6.23c.47,5.11-.2,9.47,2.11,11.82,21.44-5.87,25.12-21.41,25.5-26.49A115.12,115.12,0,0,0,111.79,97.25Z"/><path class="cls-2" d="M146.14,23.3a9.83,9.83,0,0,0-2.95-5.65c-2.27-2-5.24-2.28-7,.34L104,18.36s.84-11.75-6.1-12.27-7.25,10.43-7,10.81S82,18.28,77.7,21.09c0,0,1.22-11.46-7-11.9s-7.71,11.34-7.6,12.25-4.32,4.74-3.32,5.9,3.77.28,3.77.28S58.74,32.05,59,34.14s4,1.29,4,1.29-4.24,4.74-3.79,6,1.55.93,3.68.27c0,0-4.27,4-3.65,6.59s3.31.34,3.68.28-3.82,4-3.38,6.52,3.05.22,3.05.22S58,61,58.94,63.29c1.35,1.37,3-.4,3-.4a24.53,24.53,0,0,0-2.63,4.78,38.92,38.92,0,0,1-8.17-4.83c-5.55-3.06-3.58,2.81-3.58,2.81s-3-2.33-4,0C42.82,67.08,45,68.29,45,68.29s-2.7-1.34-3.61,1.25S48.14,77.89,54,81.6c2,1.26-1.5.3-.87,2,0,.06,0,.13,0,.18.68.71-.12.78.52.64l.57.22c-1.44,1.58-3.75,4.52-3.08,6.6a2,2,0,0,0,2.76-.14c.48-.52.83-.86.83-.86a4.85,4.85,0,0,1-.83.86,17,17,0,0,0-1.85,2.45c-.69,1.16-1.12,2.4-.61,3.3,1.06,1.88,2.57.82,3.07.4-.79.73-4.17,4-3.29,6.18a2.15,2.15,0,0,0,2.51.16c.51-.51.88-.81.88-.81a3.31,3.31,0,0,1-.88.81c-1.06,1-2.71,3-2.79,4.78-.11,2.7,3.65.73,3.65.73s-4.26,2.66-2.82,3.85a2,2,0,0,0,2.61.19s-2.06,3.37-6.16-.91S42.58,99.74,41.6,95.88,40.81,79,37.11,79c-1.7,0-4.44,3.73-5.71,8.4a70.32,70.32,0,0,0-2,20.33c1.52,8.51,6,25.13,23.59,31.24.79,2.42,1.5,4,1.5,4,8.75,10.95,38.29,6,37.84,2.34S86.21,142,86.21,142a10.32,10.32,0,0,0,.39-2h0c0-.33.06-.72.08-1.14,0-.24,0-.48,0-.74a28.57,28.57,0,0,0-.58-5.67v-.05c0-.16-.07-.31-.1-.48a69.47,69.47,0,0,0-2.82-10c-5.53-15.4,1.22-58.64,2.72-67.69.18-1.09.29-1.68.29-1.68,4.62.91,12.73-.44,16-1,0-.11,0-.16,0-.14a12.69,12.69,0,0,0,2.89-.41c6.48-1.25,22.25-5.1,30-9.18C144.79,36.56,147.23,29.64,146.14,23.3Z"/><path class="cls-5" d="M73.42,20.5c-.12,1.54-1.14,2.72-2.28,2.63s-2-1.4-1.85-2.94,1.13-2.71,2.27-2.63S73.53,19,73.42,20.5Z"/><path class="cls-5" d="M100,16.34c-.11,1.54-1.13,2.72-2.27,2.63s-2-1.4-1.86-2.93,1.14-2.72,2.28-2.63S100.11,14.81,100,16.34Z"/><path class="cls-5" d="M134.07,31.52c-1.81-.46-5.84-4.05-3.95-6.34S137.8,32.46,134.07,31.52Z"/><path class="cls-5" d="M140.63,30.86c1.55-1.05,4.08-5.81,1.52-7.31S137.46,33,140.63,30.86Z"/><path class="cls-6" d="M87.07,53a18.88,18.88,0,0,1-6.71-1.54A8.09,8.09,0,0,1,75.72,44a.37.37,0,0,1,.39-.33h0a.35.35,0,0,1,.33.38,7.24,7.24,0,0,0,4.24,6.76c6.52,3.2,21.34.51,21.49.48s0,.66,0,.66A67.76,67.76,0,0,1,87.07,53Z"/><path class="cls-7" d="M26,73.91a2,2,0,0,0,2.61.2s-2.06,3.37-6.16-.91-5.66-12.52-6.64-16.38S15,39.91,11.26,39.9c-1.7,0-4.44,3.74-5.7,8.4a70.05,70.05,0,0,0-2,20.33c1.52,8.52,6,25.14,23.58,31.25.8,2.42,1.5,4,1.5,4,8.76,10.94,38.3,6,37.85,2.34s-6.07-3.34-6.07-3.34a10,10,0,0,0,.38-2h0c0-.34.07-.73.08-1.15,0-.24,0-.48,0-.73a28,28,0,0,0-.59-5.67v0c0-.16-.06-.32-.1-.48a69,69,0,0,0-2.81-10"/></g><circle class="cls-8" cx="71.52" cy="20.69" r="8.73"/><circle class="cls-8" cx="98.22" cy="16" r="8.73"/><path class="cls-8" d="M80.38,18.37A13.34,13.34,0,0,1,89.55,17"/><path class="cls-2" d="M149.7,55.59a2.62,2.62,0,0,1-1-3.85l1.58-2.46s.29-7,1.87-9,3.06-.09,3,1.29-.69,6-.69,6,6.5.1,7.88,3.26.3,5.12-2.07,5.91l-.49,3.88h-11Z"/><rect class="cls-9" x="157.63" y="32.05" width="1.44" height="5.67" rx="0.72" transform="translate(22.17 -53.14) rotate(20.45)"/><rect class="cls-9" x="162.58" y="34.6" width="1.44" height="5.67" rx="0.72" transform="translate(64.4 -97.8) rotate(40.91)"/><rect class="cls-9" x="151.9" y="30.62" width="1.44" height="5.67" rx="0.72" transform="matrix(-1, 0, 0, -1, 305.25, 66.9)"/></g></g></svg>