<svg xmlns="http://www.w3.org/2000/svg" xmlns:xlink="http://www.w3.org/1999/xlink" viewBox="0 0 170.99 73.78"><defs><style>.cls-1,.cls-11,.cls-13{fill:none;}.cls-2,.cls-6{fill:#8dcebf;}.cls-2,.cls-4{fill-rule:evenodd;}.cls-3{fill:#fff;}.cls-4,.cls-5{fill:#ffbf17;}.cls-7{clip-path:url(#clip-path);}.cls-8{fill:#ffecad;}.cls-10,.cls-9{fill:#3e3a39;}.cls-10,.cls-11,.cls-13{stroke:#3e3a39;}.cls-10,.cls-11{stroke-linecap:round;stroke-linejoin:round;}.cls-10{stroke-width:0.5px;}.cls-12{fill:#7bbfad;}.cls-13{stroke-miterlimit:10;stroke-width:2px;}</style><clipPath id="clip-path"><rect class="cls-1" x="19.09" y="4.6" width="151.9" height="60.72" transform="translate(190.07 69.93) rotate(-180)"/></clipPath></defs><g id="圖層_2" data-name="圖層 2"><g id="图层_1" data-name="图层 1"><path class="cls-2" d="M13.78,61.73c-.73-3.93.39-5,1.85-5.73s4.17.17,3.47-2.59S14,51.81,14,51.81c1.41-2,.86-6.23-4.59-6.63S.05,49.19.39,55.9A21.45,21.45,0,0,0,3,65.32H15.82C15.12,64.94,14.2,64,13.78,61.73Z"/><path class="cls-3" d="M9.37,54.38a9.58,9.58,0,0,1-3.9-.87.49.49,0,0,1,.45-.88c.19.1,4.7,2.31,7.74-1.15a.5.5,0,0,1,.7,0,.49.49,0,0,1,.05.7A6.46,6.46,0,0,1,9.37,54.38Z"/><path class="cls-4" d="M5.79,17.66C5.71,21.58,4.29,24.3.64,25c4.43.38,4.88,3.47,5.25,7,.37-3.37,1-6.09,5.16-7.34C7.71,23.61,6.18,21.09,5.79,17.66Z"/><path class="cls-5" d="M5.91,32.43h0c-.33,0-.61-.15-.63-.36-.4-3.82-1-6.34-4.74-6.67C.23,25.38,0,25.23,0,25s.18-.35.47-.41c3.07-.6,4.6-2.87,4.68-6.95,0-.22.28-.4.62-.41h0c.34,0,.63.14.66.35.4,3.57,2,5.77,4.93,6.71.21.07.34.21.32.36s-.15.29-.38.35c-3.85,1.17-4.42,3.75-4.77,7C6.5,32.24,6.24,32.41,5.91,32.43ZM2.42,24.91A4.91,4.91,0,0,1,6,28.52a6.29,6.29,0,0,1,3.83-3.84A7.23,7.23,0,0,1,6,20.88,6,6,0,0,1,2.42,24.91Z"/><path class="cls-4" d="M35.14.4C35.06,3.9,33.79,6.32,30.53,7c4,.34,4.37,3.11,4.7,6.27.32-3,.92-5.44,4.6-6.56C36.86,5.71,35.48,3.46,35.14.4Z"/><path class="cls-5" d="M35.25,13.63h0c-.34,0-.62-.14-.64-.35-.35-3.4-.84-5.64-4.17-5.92-.29,0-.51-.18-.52-.37s.18-.35.47-.41C33.07,6.05,34.42,4,34.5.41c0-.21.28-.39.62-.41h0c.34,0,.63.14.65.35.36,3.18,1.79,5.13,4.38,6,.21.07.33.2.32.35s-.16.29-.38.36c-3.41,1-3.92,3.32-4.23,6.21C35.84,13.45,35.57,13.62,35.25,13.63Zm-3-6.77a4.35,4.35,0,0,1,3,3,5.67,5.67,0,0,1,3.3-3.23A6.5,6.5,0,0,1,35.3,3.45,5.36,5.36,0,0,1,32.26,6.86Z"/><path class="cls-4" d="M122.73,11.12c-.06,3-1.14,5-3.9,5.56,3.35.29,3.69,2.63,4,5.32.28-2.56.79-4.61,3.91-5.56C124.18,15.62,123,13.72,122.73,11.12Z"/><path class="cls-5" d="M122.82,22.4h0c-.33,0-.61-.15-.63-.36-.3-2.84-.7-4.73-3.46-5-.29,0-.51-.18-.52-.36s.18-.36.47-.42c2.25-.43,3.37-2.12,3.43-5.16,0-.22.28-.4.62-.41h0c.34,0,.63.14.65.35.31,2.67,1.5,4.31,3.66,5,.21.07.34.21.32.36s-.16.29-.38.36c-2.83.86-3.26,2.78-3.52,5.21C123.42,22.21,123.15,22.38,122.82,22.4Zm-2.35-5.8a3.72,3.72,0,0,1,2.39,2.33,4.81,4.81,0,0,1,2.63-2.49A5.54,5.54,0,0,1,122.88,14,4.57,4.57,0,0,1,120.47,16.6Z"/><path class="cls-6" d="M134.79,71.89a2.55,2.55,0,0,0,3.66,1.58,3.26,3.26,0,0,0,1.33-3.33s1.88,2.11,3.74.09.54-8-6.08-10c-8.21-2.48-13.44,1.67-14.67,5.11,0,0,3.39-.11,5.24,0,0,0,2.69,1,2,3.54-.83,3-.17,4.38,1.23,4.77C132.46,74,134.57,73.61,134.79,71.89Z"/><g class="cls-7"><path class="cls-8" d="M59.2,101.86c.5-5.57,2.58-16.19,2.58-16.19s7-27.34,7.06-29.6c3.22.61,11.32,2,16,1,0,0,9.19,52.13,3,69.37a25.27,25.27,0,0,0-1.29,6.23c-.47,5.11.2,9.48-2.11,11.82-21.45-5.87-25.12-21.4-25.5-26.49A113.47,113.47,0,0,1,59.2,101.86Z"/><path class="cls-6" d="M24.84,27.91a9.89,9.89,0,0,1,3-5.66c2.27-2.05,5.24-2.28,7,.34L67,23s-.84-11.75,6.1-12.27,7.25,10.44,7,10.81S89,22.89,93.28,25.7c0,0-1.21-11.47,7.06-11.9s7.71,11.34,7.59,12.25,4.33,4.73,3.33,5.89-3.77.28-3.77.28,4.75,4.43,4.46,6.53S108,40,108,40s4.24,4.74,3.79,6-1.55.93-3.68.28c0,0,4.27,4,3.65,6.59s-3.31.33-3.68.27,3.82,4,3.38,6.52-3.06.23-3.06.23S113,65.57,112,67.9c-1.34,1.36-3-.41-3-.41a24.38,24.38,0,0,1,2.62,4.79,38.8,38.8,0,0,0,8.18-4.84c5.55-3.06,3.58,2.81,3.58,2.81s3-2.32,4,0c.74,1.43-1.42,2.65-1.42,2.65s2.69-1.35,3.61,1.25-6.77,8.34-12.62,12c-2,1.27,1.5.31.86,2a1.1,1.1,0,0,1,0,.18c-.68.7.12.78-.52.64l-.57.22c1.44,1.58,3.75,4.52,3.08,6.59a2,2,0,0,1-2.77-.13c-.47-.53-.82-.86-.82-.86a5,5,0,0,0,.82.86,15.66,15.66,0,0,1,1.86,2.44c.69,1.16,1.12,2.4.61,3.31-1.06,1.87-2.57.81-3.07.39.79.73,4.17,4,3.29,6.18a2.12,2.12,0,0,1-2.51.16c-.51-.5-.88-.81-.88-.81a3.31,3.31,0,0,0,.88.81c1.06,1,2.71,3,2.78,4.79.12,2.7-3.64.72-3.64.72s4.26,2.66,2.81,3.85a2,2,0,0,1-2.6.2s2,3.36,6.16-.91,5.66-12.52,6.63-16.39.8-16.91,4.5-16.91c1.7,0,4.44,3.74,5.7,8.4a70,70,0,0,1,2.06,20.33c-1.52,8.51-6,25.13-23.59,31.25-.79,2.41-1.5,4-1.5,4-8.75,10.94-38.3,6-37.84,2.34s6.07-3.34,6.07-3.34a10.57,10.57,0,0,1-.39-2h0c0-.34-.06-.73-.08-1.15,0-.24,0-.48,0-.73a28.5,28.5,0,0,1,.58-5.67v0c0-.16.07-.32.1-.48a69.08,69.08,0,0,1,2.81-10c5.53-15.4-1.21-58.64-2.71-67.69-.18-1.08-.29-1.68-.29-1.68-4.63.92-12.73-.43-16-1,0-.11,0-.16,0-.15a13,13,0,0,1-2.89-.4c-6.48-1.26-22.25-5.11-30-9.19C26.19,41.17,23.75,34.25,24.84,27.91Z"/><path class="cls-9" d="M36.92,36.12c1.81-.45,5.84-4,3.95-6.34S33.19,37.06,36.92,36.12Z"/><path class="cls-9" d="M30.35,35.47c-1.54-1-4.07-5.82-1.51-7.32S33.53,37.64,30.35,35.47Z"/><path class="cls-10" d="M83.92,57.62a18.72,18.72,0,0,0,6.71-1.54,8,8,0,0,0,4.63-7.45.36.36,0,0,0-.38-.33h0a.37.37,0,0,0-.34.39,7.2,7.2,0,0,1-4.23,6.75c-6.52,3.21-21.35.51-21.49.48s0,.66,0,.66A67.11,67.11,0,0,0,83.92,57.62Z"/><path class="cls-11" d="M70.11,17.27s0,1.5,2.66,1.66,3.54-1.27,3.54-1.27"/><path class="cls-11" d="M97.08,22.13S97,23.64,99.73,23.8s3.55-1.27,3.55-1.27"/><path class="cls-12" d="M145,78.52a2,2,0,0,1-2.61.19s2.06,3.37,6.16-.91,5.66-12.52,6.64-16.38.79-16.91,4.49-16.91c1.7,0,4.44,3.73,5.71,8.4a70.32,70.32,0,0,1,2,20.33c-1.52,8.51-6,25.13-23.59,31.24-.79,2.42-1.5,4-1.5,4-8.75,11-38.29,6-37.84,2.34s6.07-3.34,6.07-3.34a10.32,10.32,0,0,1-.39-2h0c0-.34-.06-.73-.08-1.15,0-.24,0-.48,0-.74a28.41,28.41,0,0,1,.58-5.66v-.06c0-.15.07-.31.1-.48a70.8,70.8,0,0,1,2.82-10"/></g><circle class="cls-13" cx="99.46" cy="25.29" r="8.73"/><circle class="cls-13" cx="72.77" cy="20.61" r="8.73"/><path class="cls-13" d="M90.61,23a13.3,13.3,0,0,0-9.17-1.39"/></g></g></svg>