<svg width="280" height="90" viewBox="0 0 280 90" fill="none" xmlns="http://www.w3.org/2000/svg">
<rect width="89.6" height="89.6" rx="44.8" fill="white"/>
<g clip-path="url(#clip0_207_1941)">
<path d="M63.056 59.3993C63.2274 59.0982 63.3645 58.7789 63.4648 58.4473C63.6204 58.752 63.8082 59.0392 64.0248 59.3041C64.3252 59.4728 64.6427 59.6098 64.9715 59.7129C64.6687 59.8689 64.3834 60.0566 64.1202 60.2729C63.9479 60.5722 63.8088 60.8896 63.7057 61.2193C63.5494 60.9149 63.3617 60.6278 63.1457 60.3625C62.8434 60.1935 62.5243 60.0565 62.1936 59.9537C62.5004 59.8008 62.7896 59.6149 63.056 59.3993Z" fill="white"/>
<path d="M24.2872 53.4462C24.5645 52.9586 24.7879 52.4422 24.9536 51.9062C25.2143 52.4029 25.53 52.8687 25.8945 53.295C26.3798 53.5731 26.8946 53.7965 27.429 53.9615C26.9343 54.2232 26.4688 54.5367 26.0402 54.8967C25.7636 55.3866 25.54 55.9048 25.3736 56.4423C25.1122 55.9456 24.7988 55.4781 24.4384 55.0479C23.9508 54.7706 23.4344 54.5471 22.8984 54.3815C23.3952 54.1232 23.8611 53.8094 24.2872 53.4462Z" fill="white"/>
<path d="M48.9161 59.2872C48.9575 59.956 48.7321 60.614 48.2891 61.1169C47.8461 61.6197 47.2218 61.9264 46.553 61.9696C45.8831 61.9505 45.248 61.6671 44.7863 61.1813C44.3247 60.6955 44.074 60.0468 44.0891 59.3768C44.0477 58.7085 44.2732 58.0511 44.7163 57.5491C45.1595 57.0472 45.7838 56.7417 46.4521 56.7C46.784 56.7072 47.1112 56.78 47.4149 56.9141C47.7186 57.0482 47.9928 57.241 48.2218 57.4814C48.4508 57.7218 48.6301 58.0051 48.7493 58.315C48.8684 58.6249 48.925 58.9553 48.9161 59.2872Z" fill="#E4C884"/>
<path d="M46.4521 56.7C45.8693 56.7127 45.3138 56.9493 44.9009 57.3608C44.6733 57.7858 44.5576 58.2618 44.5648 58.7439C44.5498 59.4134 44.8008 60.0616 45.2627 60.5465C45.7245 61.0314 46.3597 61.3135 47.0291 61.3312C47.6134 61.3181 48.1704 61.0816 48.5857 60.6704C48.8148 60.246 48.9286 59.7692 48.9161 59.2872C48.925 58.9553 48.8684 58.6249 48.7493 58.315C48.6301 58.0051 48.4508 57.7218 48.2218 57.4814C47.9928 57.241 47.7186 57.0482 47.4149 56.9141C47.1112 56.78 46.784 56.7072 46.4521 56.7Z" fill="#FFF7E8"/>
<path d="M54.1185 58.8785C54.2995 59.6364 54.1741 60.4352 53.7693 61.1011C53.3645 61.767 52.7131 62.2462 51.9569 62.4345C51.1842 62.5503 50.3971 62.3556 49.7675 61.8928C49.1379 61.4301 48.717 60.7369 48.5969 59.9649C48.413 59.2074 48.5375 58.4079 48.9428 57.7422C49.3482 57.0764 50.0011 56.5988 50.7585 56.4145C51.1409 56.3556 51.5313 56.3726 51.9072 56.4645C52.283 56.5565 52.6369 56.7216 52.949 56.9504C53.261 57.1792 53.5249 57.4673 53.7255 57.7981C53.9262 58.1289 54.0597 58.496 54.1185 58.8785Z" fill="#E4C884"/>
<path d="M48.6023 59.9648C48.7078 60.5152 48.955 61.0286 49.3193 61.4544C49.8928 61.8241 50.5875 61.9566 51.2568 61.824C52.0134 61.6383 52.6657 61.1605 53.0708 60.4951C53.4759 59.8297 53.6008 59.031 53.4184 58.2736C53.3105 57.724 53.0638 57.2112 52.7017 56.784C52.126 56.4197 51.4335 56.2876 50.7641 56.4144C50.0068 56.5988 49.3536 57.0763 48.9482 57.7421C48.5429 58.4079 48.4184 59.2074 48.6023 59.9648Z" fill="#FFF7E8"/>
<path d="M44.6491 58.0438C44.7966 58.6378 44.7023 59.2661 44.3874 59.7909C44.0725 60.3158 43.5626 60.6944 42.9691 60.8438C42.3641 60.9355 41.7472 60.7837 41.2538 60.4215C40.7605 60.0594 40.4309 59.5165 40.337 58.9118C40.1911 58.3179 40.2857 57.6903 40.6003 57.1659C40.915 56.6414 41.4243 56.2626 42.017 56.1118C42.6221 56.0201 43.2387 56.172 43.732 56.5341C44.2253 56.8962 44.5553 57.4391 44.6491 58.0438Z" fill="#E4C884"/>
<path d="M42.0169 56.1064C41.493 56.2114 41.0297 56.5143 40.7233 56.952C40.5871 57.3694 40.56 57.8148 40.6448 58.2456C40.7387 58.8518 41.0692 59.3961 41.5635 59.7593C42.0579 60.1225 42.6758 60.2749 43.2824 60.1832C43.8063 60.0782 44.2696 59.7753 44.576 59.3376C44.7122 58.9202 44.7393 58.4748 44.6545 58.044C44.6087 57.7435 44.5042 57.455 44.3469 57.1949C44.1895 56.9349 43.9823 56.7084 43.7374 56.5285C43.4924 56.3485 43.2144 56.2186 42.9192 56.1462C42.624 56.0738 42.3173 56.0603 42.0169 56.1064Z" fill="#FFF7E8"/>
<path d="M40.9418 57.1087C41.0633 57.6092 40.9812 58.1375 40.7135 58.5775C40.4457 59.0174 40.014 59.3331 39.5136 59.4551C39.0051 59.5306 38.4875 59.4015 38.074 59.0961C37.6604 58.7906 37.3847 58.3338 37.3073 57.8255C37.1857 57.3265 37.2672 56.7996 37.5339 56.3607C37.8007 55.9218 38.2308 55.6067 38.7297 55.4847C38.9816 55.4457 39.2389 55.4568 39.4866 55.5174C39.7342 55.578 39.9674 55.6868 40.1729 55.8377C40.3784 55.9885 40.552 56.1784 40.6839 56.3966C40.8159 56.6147 40.9035 56.8567 40.9418 57.1087Z" fill="#E4C884"/>
<path d="M38.7297 55.4679C38.2896 55.5566 37.9006 55.8112 37.6433 56.1791C37.5297 56.5299 37.5086 56.9041 37.5818 57.2655C37.6194 57.5173 37.7063 57.7592 37.8377 57.9772C37.9691 58.1953 38.1424 58.3853 38.3474 58.5362C38.5524 58.6871 38.7851 58.796 39.0324 58.8566C39.2796 58.9173 39.5365 58.9284 39.7881 58.8895C40.2289 58.8024 40.6184 58.5474 40.8745 58.1783C40.9902 57.828 41.0134 57.4537 40.9418 57.0919C40.9035 56.8398 40.8159 56.5978 40.6839 56.3797C40.552 56.1616 40.3784 55.9717 40.1729 55.8208C39.9674 55.6699 39.7342 55.5611 39.4865 55.5005C39.2389 55.44 38.9816 55.4289 38.7297 55.4679Z" fill="#FFF7E8"/>
<path d="M37.7385 55.4286C37.7934 55.6453 37.8045 55.8707 37.7713 56.0918C37.738 56.3128 37.6612 56.525 37.5449 56.7158C37.4286 56.9067 37.2751 57.0725 37.094 57.2034C36.9128 57.3343 36.7074 57.4277 36.4897 57.4782C36.2691 57.514 36.0437 57.5053 35.8266 57.4529C35.6094 57.4004 35.4049 57.3052 35.225 57.1727C35.0451 57.0403 34.8933 56.8733 34.7788 56.6815C34.6642 56.4897 34.5892 56.277 34.5578 56.0558C34.5029 55.8392 34.4915 55.6137 34.5247 55.3927C34.558 55.1717 34.6351 54.9595 34.7514 54.7687C34.8677 54.5778 35.0209 54.412 35.2021 54.2811C35.3832 54.1502 35.5889 54.0567 35.8066 54.0062C36.0271 53.9705 36.2526 53.9791 36.4697 54.0316C36.6869 54.084 36.8914 54.1793 37.0713 54.3117C37.2512 54.4442 37.4029 54.6112 37.5175 54.803C37.6321 54.9947 37.7071 55.2075 37.7385 55.4286Z" fill="#FFF7E8"/>
<path d="M35.8066 54.0062C35.4196 54.0794 35.0772 54.3029 34.8545 54.6278C34.7541 54.9351 34.7348 55.263 34.7984 55.5798C34.8298 55.801 34.9051 56.0137 35.0197 56.2055C35.1342 56.3973 35.286 56.5643 35.4659 56.6967C35.6458 56.8292 35.8503 56.9244 36.0675 56.9769C36.2846 57.0293 36.51 57.038 36.7305 57.0022C37.116 56.9251 37.4568 56.7025 37.6824 56.3806C37.7827 56.0734 37.8021 55.7455 37.7384 55.4286C37.7071 55.2075 37.6321 54.9947 37.5175 54.803C37.4029 54.6112 37.2512 54.4442 37.0713 54.3117C36.8913 54.1793 36.6868 54.084 36.4697 54.0316C36.2525 53.9791 36.0271 53.9705 35.8066 54.0062Z" fill="#FFF7E8"/>
<path d="M57.697 58.3014C57.8338 58.865 57.7413 59.4598 57.44 59.9554C57.1387 60.4509 56.6531 60.8067 56.0898 60.9446C55.5159 61.0315 54.9311 60.8877 54.4631 60.5445C53.995 60.2013 53.6819 59.6868 53.5922 59.1134C53.4553 58.5491 53.5474 57.9535 53.8487 57.4571C54.1499 56.9606 54.6357 56.6037 55.1995 56.4646C55.7741 56.3778 56.3598 56.5224 56.828 56.8667C57.2962 57.211 57.6087 57.727 57.697 58.3014Z" fill="#E4C884"/>
<path d="M53.5921 59.1134C53.6691 59.5266 53.8526 59.9127 54.1242 60.2334C54.5499 60.5089 55.0654 60.6092 55.5633 60.5134C56.1281 60.3755 56.615 60.0191 56.9174 59.5226C57.2197 59.026 57.3128 58.4297 57.1761 57.8646C57.0993 57.4513 56.9161 57.0653 56.6442 56.7446C56.2152 56.4724 55.6983 56.3742 55.1994 56.4702C54.6368 56.6095 54.1521 56.9655 53.8511 57.4606C53.55 57.9558 53.4569 58.5499 53.5921 59.1134Z" fill="#FFF7E8"/>
<path d="M60.0097 56.308C60.0707 56.5434 60.0843 56.7886 60.0496 57.0293C60.0149 57.27 59.9324 57.5013 59.8073 57.7098C59.6822 57.9184 59.5169 58.0999 59.3209 58.2438C59.1249 58.3877 58.9022 58.4911 58.6657 58.548C58.1861 58.6203 57.6973 58.4994 57.3068 58.2117C56.9162 57.924 56.6556 57.4932 56.5824 57.0136C56.5214 56.7783 56.508 56.5331 56.5428 56.2924C56.5775 56.0517 56.6596 55.8204 56.7848 55.6118C56.9099 55.4033 57.0755 55.2218 57.2715 55.0779C57.4675 54.934 57.6902 54.8306 57.9266 54.7736C58.4063 54.7013 58.8951 54.8223 59.2856 55.11C59.6762 55.3976 59.9365 55.8285 60.0097 56.308Z" fill="#E4C884"/>
<path d="M56.5769 56.9855C56.6426 57.3291 56.7969 57.6496 57.0248 57.9151C57.3821 58.1372 57.8099 58.2171 58.2233 58.1391C58.4565 58.0826 58.6762 57.9807 58.87 57.8392C59.0638 57.6977 59.2278 57.5194 59.3526 57.3145C59.4774 57.1096 59.5608 56.8821 59.5976 56.645C59.6344 56.4079 59.624 56.1658 59.5672 55.9327C59.5023 55.5916 59.3498 55.2732 59.1248 55.0087C58.7675 54.7813 58.3375 54.6973 57.9209 54.7735C57.4495 54.8888 57.043 55.1866 56.791 55.6014C56.539 56.0161 56.4621 56.514 56.5769 56.9855Z" fill="#FFF7E8"/>
<path fill-rule="evenodd" clip-rule="evenodd" d="M52.8193 28.1177C51.4697 23.0777 53.3401 16.9177 60.4017 16.2681C67.4633 15.6185 73.909 27.7313 61.7514 32.0321C57.4954 32.9897 52.8193 28.1177 52.8193 28.1177Z" fill="#B56D52"/>
<path fill-rule="evenodd" clip-rule="evenodd" d="M57.1371 27.4681C56.5099 23.8169 59.8643 20.5913 62.6699 21.3809C65.4755 22.1705 63.8348 28.0449 59.5508 29.0473C55.2668 30.0497 57.1371 27.4681 57.1371 27.4681Z" fill="#D18367"/>
<path fill-rule="evenodd" clip-rule="evenodd" d="M28.7843 38.6959C27.4347 44.6711 28.7842 54.0791 39.0882 56.1735C49.3922 58.2679 58.649 57.8143 63.577 54.3815C68.505 50.9487 67.3123 47.2079 65.5203 44.9679C63.7283 42.7279 64.6243 40.6391 64.4731 36.7583C64.3219 32.8775 59.0971 26.0007 52.0803 24.6567C45.0635 23.3127 31.0243 25.7039 28.7843 38.6959Z" fill="#B56D52"/>
<path fill-rule="evenodd" clip-rule="evenodd" d="M38.836 30.2288C38.3376 25.9448 34.4344 20.2216 26.7624 22.1144C19.0904 24.0072 18.5529 39.4408 31.0745 40.4824C35.9521 39.2952 38.836 30.2288 38.836 30.2288Z" fill="#B56D52"/>
<path fill-rule="evenodd" clip-rule="evenodd" d="M35.0559 33.3927C33.7231 35.5207 29.848 36.2543 27.6584 33.9191C24.3768 30.4079 27.7368 26.3759 31.472 27.0479C35.812 27.8319 35.8007 32.1999 35.0559 33.3927Z" fill="#D18367"/>
<path d="M56.9632 43.8479C54.096 43.5399 48.9552 45.3599 49.9632 49.9631C50.708 53.3231 55.86 55.3503 58.9232 53.4239C63.1344 50.7863 63.1344 44.5031 56.9632 43.8479Z" fill="#FFF7E8"/>
<path d="M46.637 45.1807C47.6792 45.1807 48.5242 44.3357 48.5242 43.2935C48.5242 42.2512 47.6792 41.4062 46.637 41.4062C45.5947 41.4062 44.7498 42.2512 44.7498 43.2935C44.7498 44.3357 45.5947 45.1807 46.637 45.1807Z" fill="#3E3A39"/>
<path d="M60.4521 42.6494C61.4944 42.6494 62.3393 41.8045 62.3393 40.7622C62.3393 39.7199 61.4944 38.875 60.4521 38.875C59.4099 38.875 58.5649 39.7199 58.5649 40.7622C58.5649 41.8045 59.4099 42.6494 60.4521 42.6494Z" fill="#3E3A39"/>
<path fill-rule="evenodd" clip-rule="evenodd" d="M54.3369 47.6896C54.9753 49.0168 56.1009 49.7616 56.5321 48.1544C57.2769 49.9632 58.1282 49.6664 58.509 47.796C59.3882 49.28 60.1496 47.796 59.8248 46.48C59.444 44.9456 57.5345 44.8 54.8857 45.8192C54.5658 45.9953 54.3287 46.2909 54.2259 46.6413C54.1231 46.9916 54.163 47.3685 54.3369 47.6896Z" fill="#3E3A39"/>
<path d="M57.3892 51.0887C57.3234 51.108 57.2532 51.108 57.1874 51.0887C57.1062 51.0585 57.04 50.9975 57.0034 50.9189C56.9667 50.8403 56.9626 50.7505 56.9916 50.6687C57.2023 49.8047 57.1475 48.8973 56.8347 48.0647C56.8227 48.0228 56.8192 47.979 56.8243 47.9357C56.8294 47.8924 56.8431 47.8506 56.8645 47.8126C56.8858 47.7746 56.9144 47.7412 56.9487 47.7143C56.983 47.6874 57.0224 47.6676 57.0644 47.6559C57.1483 47.6336 57.2375 47.6451 57.3129 47.6881C57.3884 47.731 57.4439 47.802 57.4674 47.8855C57.8237 48.8492 57.8747 49.8992 57.6131 50.8927C57.5937 50.9407 57.5632 50.9834 57.5243 51.0174C57.4854 51.0514 57.4393 51.0759 57.3892 51.0887Z" fill="#3E3A39"/>
<path d="M57.3834 50.467H57.4897C58.0889 50.5398 59.3323 51.3574 60.0379 52.0462C60.0991 52.1081 60.1333 52.1916 60.1333 52.2786C60.1333 52.3657 60.0991 52.4492 60.0379 52.511C59.9751 52.5726 59.8904 52.6071 59.8025 52.6071C59.7145 52.6071 59.6301 52.5726 59.5673 52.511C58.9556 51.8906 58.2134 51.4142 57.3946 51.1166C56.381 50.9542 55.5073 51.7774 54.7849 52.6062C54.7268 52.6709 54.646 52.7105 54.5593 52.7167C54.4726 52.723 54.3871 52.6954 54.3203 52.6398C54.2591 52.578 54.2246 52.4945 54.2246 52.4074C54.2246 52.3204 54.2591 52.2369 54.3203 52.175C55.0651 51.307 56.1122 50.3214 57.3834 50.467Z" fill="#3E3A39"/>
<path d="M62.737 32.4968C62.6878 32.4966 62.6394 32.4848 62.5956 32.4624C62.5518 32.4401 62.5138 32.4077 62.4849 32.368C58.4529 26.3144 51.7555 24.8584 51.4755 24.8024C51.4367 24.795 51.3995 24.78 51.3666 24.7582C51.3337 24.7364 51.3057 24.7083 51.2838 24.6754C51.2619 24.6425 51.2467 24.6057 51.2392 24.5669C51.2317 24.5281 51.2322 24.4882 51.2403 24.4496C51.2476 24.4108 51.2625 24.3738 51.2843 24.3409C51.3061 24.308 51.3343 24.2798 51.3672 24.2579C51.4 24.236 51.437 24.2208 51.4757 24.2134C51.5145 24.2059 51.5544 24.2062 51.593 24.2144C51.8898 24.276 58.8169 25.7824 62.9833 32.0544C63.006 32.0863 63.0218 32.1225 63.0298 32.1608C63.0379 32.1991 63.038 32.2387 63.0301 32.277C63.0222 32.3154 63.0067 32.3517 62.9842 32.3837C62.9617 32.4157 62.9328 32.4428 62.8994 32.4632C62.8506 32.4924 62.7934 32.5042 62.737 32.4968Z" fill="white"/>
<path d="M30.5819 40.4319C29.4255 40.4677 28.2717 40.3029 27.1716 39.9447C27.1354 39.9294 27.1026 39.9071 27.0751 39.8791C27.0476 39.8511 27.0257 39.8179 27.0111 39.7814C26.9965 39.7449 26.9894 39.7059 26.99 39.6667C26.9906 39.6274 26.999 39.5887 27.0146 39.5527C27.0444 39.48 27.1019 39.422 27.1743 39.3916C27.2468 39.3611 27.3282 39.3607 27.401 39.3903C28.745 39.9503 31.2762 39.8215 31.321 39.8159C31.4003 39.8128 31.4775 39.841 31.5362 39.8945C31.5949 39.9479 31.6303 40.0222 31.6346 40.1015C31.6369 40.1404 31.6314 40.1795 31.6185 40.2164C31.6056 40.2533 31.5857 40.2872 31.5597 40.3164C31.5337 40.3455 31.5022 40.3692 31.467 40.3862C31.4318 40.4031 31.3936 40.4129 31.3546 40.4151C31.3042 40.4151 31.0075 40.4319 30.5819 40.4319Z" fill="white"/>
<path d="M43.5291 41.5463C44.0328 41.8438 44.5055 42.1909 44.9403 42.5823C45.3435 42.9631 45.9538 42.3527 45.5506 41.9719C45.0604 41.5326 44.5298 41.1407 43.9657 40.8015C43.4897 40.5047 43.0587 41.2495 43.5291 41.5463Z" fill="#3E3A39"/>
<path d="M61.7849 39.6088C61.9107 39.3217 62.0852 39.0584 62.3004 38.8304C62.5132 38.5672 62.7259 38.304 62.9331 38.0352C63.2691 37.5928 62.5187 37.1672 62.1883 37.5984C61.6798 38.1193 61.2616 38.7211 60.9507 39.3792C60.7827 39.9392 61.6169 40.1408 61.7849 39.6088Z" fill="#3E3A39"/>
</g>
<path d="M19.816 66.472V67.204H24.496V66.472H19.816ZM21.772 71.068V71.62H28.768V71.068H21.772ZM21.808 72.304V72.868H28.792V72.304H21.808ZM21.748 73.552V74.212H29.488V73.552H21.748ZM24.244 66.472V66.592C24.148 67.888 24.052 68.392 23.92 68.536C23.836 68.608 23.752 68.632 23.596 68.632C23.452 68.632 23.068 68.62 22.648 68.584C22.756 68.764 22.828 69.064 22.852 69.268C23.308 69.292 23.752 69.304 23.98 69.28C24.256 69.268 24.436 69.196 24.604 69.028C24.832 68.788 24.94 68.2 25.048 66.808C25.06 66.7 25.072 66.472 25.072 66.472H24.244ZM26.608 66.94H29.104V68.44H26.608V66.94ZM25.768 66.244V69.148H29.98V66.244H25.768ZM21.16 69.748V74.212H22.048V70.372H29.248V69.748H21.16ZM25.012 69.976V73.828H25.888V69.976H25.012ZM29.188 73.552V73.672C29.068 75.148 28.912 75.736 28.732 75.904C28.636 76 28.54 76.012 28.372 76.012C28.204 76.012 27.76 76 27.292 75.952C27.412 76.156 27.484 76.456 27.496 76.672C28.024 76.696 28.504 76.708 28.768 76.684C29.056 76.66 29.248 76.6 29.428 76.42C29.704 76.144 29.86 75.484 30.028 73.912C30.04 73.78 30.064 73.552 30.064 73.552H29.188ZM20.98 74.404C20.62 74.956 20.056 75.736 19.528 76.216L20.284 76.648C20.776 76.12 21.304 75.364 21.7 74.788L20.98 74.404ZM22.492 74.764C22.672 75.304 22.816 76.024 22.84 76.48L23.656 76.324C23.608 75.868 23.452 75.172 23.248 74.632L22.492 74.764ZM24.472 74.776C24.772 75.244 25.072 75.904 25.168 76.324L25.924 76.072C25.792 75.652 25.48 75.028 25.156 74.56L24.472 74.776ZM26.404 74.668C26.74 75.016 27.124 75.508 27.292 75.844L27.952 75.52C27.772 75.184 27.388 74.716 27.028 74.38L26.404 74.668ZM21.844 65.632C21.688 67.324 21.268 68.584 19.468 69.22C19.648 69.364 19.864 69.652 19.96 69.844C21.976 69.064 22.492 67.624 22.684 65.632H21.844ZM38.74 68.308H42.664V70.756H38.74V68.308ZM37.924 67.516V71.524H43.504V67.516H37.924ZM40.24 65.68V70.984C40.24 72.88 40.12 75.064 37.408 75.988C37.6 76.156 37.852 76.492 37.96 76.684C40.78 75.532 41.092 73.168 41.092 70.984V65.68H40.24ZM38.788 71.956L38.032 72.124C38.86 74.62 40.54 76.096 43.324 76.696C43.444 76.456 43.672 76.108 43.864 75.916C41.188 75.46 39.52 74.128 38.788 71.956ZM33.712 67.96V68.68H37.3V67.96H33.712ZM33.712 69.82V70.54H37.3V69.82H33.712ZM33.676 71.668V72.4H37.192V71.668H33.676ZM35.236 66.568V72.004H35.98V66.568H35.236ZM35.68 72.928C35.956 73.42 36.232 74.068 36.328 74.5L36.784 74.32C36.664 73.912 36.388 73.252 36.1 72.772L35.68 72.928ZM34.864 73.12C35.08 73.732 35.272 74.548 35.32 75.064L35.8 74.944C35.752 74.44 35.56 73.648 35.32 73.024L34.864 73.12ZM34.024 73.228C34.144 73.948 34.216 74.836 34.192 75.448L34.684 75.376C34.696 74.788 34.624 73.876 34.492 73.168L34.024 73.228ZM33.148 73.048C33.064 73.84 32.872 75.028 32.644 75.736L33.22 75.964C33.424 75.232 33.592 74.032 33.7 73.228L33.148 73.048ZM33.244 66.124V72.4H34.012V66.88H37.552V66.124H33.244ZM36.892 71.668V71.8C36.76 74.56 36.616 75.58 36.412 75.832C36.316 75.94 36.22 75.964 36.052 75.952C35.896 75.952 35.488 75.952 35.056 75.904C35.164 76.12 35.248 76.42 35.26 76.636C35.704 76.672 36.148 76.66 36.376 76.648C36.688 76.624 36.868 76.54 37.048 76.336C37.36 75.964 37.492 74.932 37.636 72.028C37.648 71.92 37.66 71.668 37.66 71.668H36.892ZM51.232 69.784H54.964V70.504H51.232V69.784ZM51.232 68.56H54.964V69.256H51.232V68.56ZM50.404 67.996V71.068H55.828V67.996H50.404ZM50.776 65.62C50.344 66.76 49.636 67.924 48.856 68.68C49.06 68.8 49.396 69.076 49.552 69.208C50.308 68.392 51.088 67.108 51.58 65.836L50.776 65.62ZM50.788 66.664L50.452 67.36H56.68V66.664H50.788ZM48.88 71.656V72.352H56.98V71.656H48.88ZM51.16 71.98C50.596 72.904 49.636 73.756 48.676 74.332C48.832 74.452 49.12 74.74 49.24 74.884C50.212 74.236 51.244 73.252 51.88 72.208L51.16 71.98ZM52.096 73.264C51.532 74.38 50.512 75.376 49.444 76.012C49.624 76.132 49.9 76.408 50.032 76.54C51.088 75.82 52.168 74.728 52.804 73.492L52.096 73.264ZM54.112 73.264C53.68 74.488 52.852 75.568 51.868 76.252C52.036 76.372 52.348 76.612 52.48 76.744C53.452 75.988 54.364 74.812 54.856 73.444L54.112 73.264ZM50.656 73.072L50.128 73.732H56.092V73.072H50.656ZM55.816 73.072V73.192C55.636 74.956 55.444 75.664 55.204 75.88C55.12 75.976 55.024 75.988 54.856 75.988C54.688 75.988 54.292 75.988 53.86 75.94C53.968 76.132 54.052 76.432 54.064 76.648C54.508 76.672 54.952 76.672 55.18 76.66C55.468 76.648 55.672 76.576 55.852 76.396C56.164 76.072 56.38 75.304 56.584 73.42C56.608 73.3 56.62 73.072 56.62 73.072H55.816ZM48.568 65.668C47.896 67.492 46.768 69.292 45.58 70.456C45.748 70.66 46 71.14 46.096 71.344C47.392 70 48.628 67.972 49.42 65.932L48.568 65.668ZM47.32 68.764V76.648H48.184V67.924L48.16 67.912L47.32 68.764ZM59.188 68.008V68.908H70V68.008H59.188ZM64.108 65.632V68.392H65.032V65.632H64.108ZM60.616 68.404V74.2C60.616 75.748 61.336 76.24 63.004 76.24C63.388 76.24 66.928 76.24 67.66 76.24C68.476 76.24 69.328 76.216 69.628 76.144C69.58 75.916 69.52 75.484 69.496 75.244C69.076 75.316 68.26 75.352 67.672 75.352C66.928 75.352 63.556 75.352 62.896 75.352C61.876 75.352 61.552 75.028 61.552 74.248V68.404H60.616Z" fill="black"/>
<rect x="95.2002" width="89.6" height="89.6" rx="44.8" fill="white"/>
<g clip-path="url(#clip1_207_1941)">
<path d="M124.382 47.2415L124.421 47.1575C114.638 35.1175 118.647 24.7855 118.647 24.7855C124.219 29.6351 126.325 37.9735 127.047 41.7927L130.474 34.7591C130.43 34.3727 128.15 24.3207 118.955 22.5959C118.938 22.5959 111.171 40.2135 124.382 47.2415Z" fill="#FFA94C"/>
<path d="M124.421 47.1574L127.031 41.7926C126.325 37.9734 124.231 29.635 118.631 24.7854C118.653 24.7854 114.638 35.1174 124.421 47.1574Z" fill="#FFC492"/>
<path d="M145.32 40.723L152.824 43.327C152.32 41.4566 148.529 27.087 149.196 18.9894C157.036 26.7062 157.702 35.0278 154.504 43.663C155.552 42.3078 161.28 33.835 151.951 21.0726L148.658 16.7998C148.658 16.7998 142.582 27.8542 145.32 40.723Z" fill="#FFA94C"/>
<path d="M149.196 18.9895C148.529 27.0983 152.32 41.4567 152.824 43.3271L154.348 43.8591L154.504 43.6631C157.702 35.0279 157.036 26.7063 149.196 18.9895Z" fill="#FFC492"/>
<path d="M120.333 49.2463C132.608 50.7471 140.991 47.4431 140.991 47.4431C152.236 50.8479 158.161 50.4727 161.28 49.2127C162.154 48.1196 162.885 46.9189 163.453 45.6399C163.453 45.6399 161.711 46.5079 160.961 45.8863C160.961 45.8863 163.582 44.8391 164.131 43.7359C164.131 43.7359 161.107 45.3431 158.766 42.8735C158.766 42.8735 152.751 27.8431 139.451 27.4679L138.785 27.4343C137.609 27.3447 132.625 27.2887 128.145 32.2895C128.145 32.2895 124.119 36.3831 121.016 47.9023C120.868 48.3865 120.637 48.8413 120.333 49.2463Z" fill="#FFA94C"/>
<path d="M115.64 51.1335C115.64 51.1335 118.648 55.7815 130.447 59.7127L134.21 60.7207C139.544 62.1439 145.224 61.4012 150.013 58.6543L150.142 58.5815C150.142 58.5815 157.181 54.5719 161.342 49.2127C158.223 50.4727 152.298 50.8479 141.053 47.4431C141.053 47.4431 132.653 50.7471 120.395 49.2463C119.65 50.2487 118.256 51.3967 115.64 51.1335Z" fill="#FFC492"/>
<path d="M137.811 48.479C137.743 49.347 138.818 50.159 140.218 50.2486C141.618 50.3382 142.806 49.7558 142.878 48.8878C142.951 48.0198 141.871 47.2078 140.471 47.1182C139.071 47.0286 137.883 47.611 137.811 48.479Z" fill="#3E3A39"/>
<path d="M130.867 48.7647C131.729 48.6639 132.3 47.4543 132.138 46.0599C131.975 44.6655 131.141 43.6127 130.278 43.7135C129.416 43.8143 128.851 45.0295 129.013 46.4239C129.175 47.8183 130.004 48.8655 130.867 48.7647Z" fill="#3E3A39"/>
<path d="M149.823 48.5462C150.685 48.4454 151.251 47.2302 151.088 45.8358C150.926 44.4414 150.097 43.3942 149.235 43.495C148.372 43.5958 147.801 44.8054 147.969 46.1998C148.137 47.5942 148.961 48.647 149.823 48.5462Z" fill="#3E3A39"/>
<path d="M140.723 53.3232C138.606 50.8648 136.332 52.332 136.31 52.3432C136.229 52.3989 136.173 52.484 136.154 52.5803C136.135 52.6766 136.155 52.7764 136.209 52.8584C136.263 52.9389 136.348 52.9946 136.443 53.0135C136.538 53.0323 136.637 53.0128 136.718 52.9592C136.797 52.9088 138.483 51.8392 140.163 53.8048C140.227 53.8782 140.318 53.923 140.416 53.9293C140.514 53.9356 140.61 53.9029 140.683 53.8384C140.756 53.7747 140.801 53.6851 140.808 53.5888C140.815 53.4925 140.785 53.3972 140.723 53.3232Z" fill="#3E3A39"/>
<path d="M156.419 39.7878C156.364 39.7839 156.31 39.7645 156.264 39.7319C156.219 39.6992 156.184 39.6546 156.162 39.603C153.908 34.856 149.889 31.1769 144.962 29.3494C144.874 29.3132 144.802 29.2457 144.761 29.1599C144.72 29.0741 144.711 28.9761 144.738 28.8846C144.743 28.8397 144.757 28.7963 144.781 28.7574C144.804 28.7185 144.835 28.685 144.872 28.659C144.909 28.6331 144.951 28.6153 144.996 28.6069C145.04 28.5985 145.086 28.5996 145.13 28.6102C150.231 30.4969 154.394 34.3005 156.733 39.211C156.776 39.2976 156.789 39.3964 156.769 39.4911C156.748 39.5858 156.696 39.6707 156.621 39.7318C156.564 39.7758 156.491 39.7959 156.419 39.7878Z" fill="white"/>
</g>
<path d="M119.708 66.176V76.16H120.656V66.176H119.708ZM117.596 68.816V72.728H118.448V68.816H117.596ZM114.968 67.64V68.468H125.408V67.64H114.968ZM115.292 69.644V70.388H118.1V69.644H115.292ZM123.932 65.192C121.976 65.6 118.532 65.852 115.736 65.948C115.82 66.152 115.916 66.488 115.94 66.716C118.736 66.656 122.204 66.404 124.34 65.972L123.932 65.192ZM119.828 71.072C118.832 72.812 116.804 74.372 114.608 75.008C114.812 75.188 115.064 75.524 115.196 75.752C117.416 75.008 119.42 73.316 120.512 71.336L119.828 71.072ZM120.572 71.096L119.9 71.336C120.992 73.328 122.984 75.044 125.168 75.8C125.312 75.572 125.564 75.224 125.756 75.056C123.596 74.42 121.556 72.836 120.572 71.096ZM114.944 71.864L115.136 72.632C116.012 72.476 117.08 72.272 118.148 72.068L118.112 71.372C116.924 71.576 115.76 71.756 114.944 71.864ZM121.916 68.792V71.744C121.916 72.596 122.132 72.836 123.056 72.836C123.236 72.836 124.232 72.836 124.436 72.836C125.132 72.836 125.36 72.56 125.468 71.468C125.228 71.42 124.88 71.3 124.712 71.168C124.688 71.96 124.628 72.068 124.34 72.068C124.124 72.068 123.308 72.068 123.152 72.068C122.804 72.068 122.744 72.02 122.744 71.744V68.792H121.916ZM124.46 69.26C123.896 69.572 122.96 69.956 122.18 70.232C122.276 70.412 122.384 70.688 122.42 70.856C123.248 70.604 124.256 70.268 125.012 69.92L124.46 69.26ZM131.912 67.244C131.3 68.18 130.136 69.224 128.468 69.968C128.672 70.1 128.948 70.4 129.08 70.616C130.844 69.74 132.056 68.6 132.884 67.436L131.912 67.244ZM131.78 68.144L131.132 68.864H135.956V68.144H131.78ZM135.704 68.144V68.288C134.336 70.4 130.904 71.852 127.82 72.416C127.988 72.62 128.18 72.98 128.264 73.208C131.492 72.524 135.032 71 136.64 68.48L136.04 68.108L135.872 68.144H135.704ZM131.432 68.708L130.64 69.068C132.248 71.144 135.152 72.428 138.38 72.932C138.512 72.668 138.752 72.284 138.956 72.08C135.74 71.672 132.836 70.508 131.432 68.708ZM130.088 72.464V76.148H130.976V73.232H135.836V76.136H136.76V72.464H130.088ZM130.532 74.984V75.752H136.292V74.984H130.532ZM132.908 65.132V66.692H133.832V65.132H132.908ZM128.312 66.212V68.48H129.2V67.04H137.552V68.48H138.464V66.212H128.312ZM146.432 69.284H150.164V70.004H146.432V69.284ZM146.432 68.06H150.164V68.756H146.432V68.06ZM145.604 67.496V70.568H151.028V67.496H145.604ZM145.976 65.12C145.544 66.26 144.836 67.424 144.056 68.18C144.26 68.3 144.596 68.576 144.752 68.708C145.508 67.892 146.288 66.608 146.78 65.336L145.976 65.12ZM145.988 66.164L145.652 66.86H151.88V66.164H145.988ZM144.08 71.156V71.852H152.18V71.156H144.08ZM146.36 71.48C145.796 72.404 144.836 73.256 143.876 73.832C144.032 73.952 144.32 74.24 144.44 74.384C145.412 73.736 146.444 72.752 147.08 71.708L146.36 71.48ZM147.296 72.764C146.732 73.88 145.712 74.876 144.644 75.512C144.824 75.632 145.1 75.908 145.232 76.04C146.288 75.32 147.368 74.228 148.004 72.992L147.296 72.764ZM149.312 72.764C148.88 73.988 148.052 75.068 147.068 75.752C147.236 75.872 147.548 76.112 147.68 76.244C148.652 75.488 149.564 74.312 150.056 72.944L149.312 72.764ZM145.856 72.572L145.328 73.232H151.292V72.572H145.856ZM151.016 72.572V72.692C150.836 74.456 150.644 75.164 150.404 75.38C150.32 75.476 150.224 75.488 150.056 75.488C149.888 75.488 149.492 75.488 149.06 75.44C149.168 75.632 149.252 75.932 149.264 76.148C149.708 76.172 150.152 76.172 150.38 76.16C150.668 76.148 150.872 76.076 151.052 75.896C151.364 75.572 151.58 74.804 151.784 72.92C151.808 72.8 151.82 72.572 151.82 72.572H151.016ZM143.768 65.168C143.096 66.992 141.968 68.792 140.78 69.956C140.948 70.16 141.2 70.64 141.296 70.844C142.592 69.5 143.828 67.472 144.62 65.432L143.768 65.168ZM142.52 68.264V76.148H143.384V67.424L143.36 67.412L142.52 68.264ZM154.388 67.508V68.408H165.2V67.508H154.388ZM159.308 65.132V67.892H160.232V65.132H159.308ZM155.816 67.904V73.7C155.816 75.248 156.536 75.74 158.204 75.74C158.588 75.74 162.128 75.74 162.86 75.74C163.676 75.74 164.528 75.716 164.828 75.644C164.78 75.416 164.72 74.984 164.696 74.744C164.276 74.816 163.46 74.852 162.872 74.852C162.128 74.852 158.756 74.852 158.096 74.852C157.076 74.852 156.752 74.528 156.752 73.748V67.904H155.816Z" fill="black"/>
<rect x="190.4" width="89.6" height="89.6" rx="44.8" fill="white"/>
<g clip-path="url(#clip2_207_1941)">
<g clip-path="url(#clip3_207_1941)">
<path d="M254.038 46.2615C254.038 46.2615 258.518 52.2143 237.714 53.4463C225.798 54.1519 212.772 52.6679 212.044 48.4959" fill="#8DCEBF"/>
<path d="M226.061 50.9823L226.296 50.0583C228.838 50.7751 233.425 50.3943 235.256 50.1983C235.256 50.1367 235.256 50.1087 235.256 50.1199C235.801 50.1474 236.347 50.1154 236.886 50.0247C240.559 49.6159 249.541 48.1823 254.027 46.2615C259.717 43.8199 261.391 40.0679 261.072 36.4783C260.987 35.2578 260.496 34.1008 259.678 33.1911C258.507 31.9423 256.878 31.6791 255.758 33.0623L237.787 31.8079C237.787 31.8079 238.795 25.2839 234.942 24.6791C231.09 24.0743 230.423 30.1727 230.524 30.3967C230.625 30.6207 225.484 30.7607 222.975 32.1383C222.975 32.1383 224.174 25.7935 219.576 25.1719C214.978 24.5503 214.816 31.1527 214.782 31.6679C214.654 33.5439 210.302 32.9839 210.711 35.3247C210.868 36.1647 212.749 36.3327 212.749 36.3327C212.749 36.3327 209.149 36.8535 209.389 38.5727C209.552 39.7487 212.189 39.9671 212.189 39.9671C212.189 39.9671 209.16 40.9639 209.389 42.6439C209.524 43.5623 210.812 44.4023 212.027 44.1335C212.027 44.1335 208.925 44.7663 209.16 46.2335C209.395 47.7007 211.82 47.5607 212.027 47.5439C212.234 47.5271 210.426 47.8015 210.554 49.2519C210.683 50.7023 214.928 50.5343 214.928 50.5343" fill="#8DCEBF"/>
<path d="M220.629 31.6118C220.494 32.463 219.873 33.0734 219.24 32.9782C218.607 32.883 218.204 32.1046 218.338 31.2534C218.473 30.4022 219.094 29.7862 219.727 29.887C220.36 29.9878 220.752 30.7606 220.629 31.6118Z" fill="#3E3A39"/>
<path d="M235.642 30.4975C235.508 31.3487 234.886 31.9591 234.253 31.8639C233.621 31.7687 233.217 30.9903 233.352 30.1391C233.486 29.2879 234.102 28.6775 234.741 28.7727C235.379 28.8679 235.777 29.6463 235.642 30.4975Z" fill="#3E3A39"/>
<path d="M253.971 40.516C252.98 40.18 250.897 37.996 252.05 36.7976C253.204 35.5992 256.01 41.2104 253.971 40.516Z" fill="#3E3A39"/>
<path d="M257.667 40.46C258.574 39.9448 260.204 37.4024 258.843 36.4448C257.482 35.4872 255.791 41.5184 257.667 40.46Z" fill="#3E3A39"/>
<path d="M254.038 46.2615C254.038 46.2615 247.43 50.3999 231.706 50.2879C215.981 50.1759 220.836 44.8503 220.836 44.8503" stroke="#3E3A39" stroke-width="0.56" stroke-linecap="round" stroke-linejoin="round"/>
</g>
</g>
<path d="M215.76 74.912V75.704H219.72V74.912H215.76ZM216.348 66.356V67.136H219.516V66.356H216.348ZM215.412 71.816V76.136H216.24V72.596H219.264V76.1H220.128V71.816H215.412ZM219.192 66.356V66.512C218.412 69.02 216.288 70.952 214.164 71.768C214.344 71.936 214.584 72.248 214.692 72.452C216.972 71.48 219.168 69.512 220.092 66.56L219.516 66.32L219.348 66.356H219.192ZM216.552 65.12C216.096 66.596 215.268 68 214.284 68.9C214.5 69.032 214.848 69.32 214.992 69.476C215.988 68.48 216.876 66.956 217.416 65.324L216.552 65.12ZM216.312 66.848L215.724 67.34C216.456 69.068 218.04 71.24 220.512 72.308C220.632 72.08 220.884 71.732 221.076 71.564C218.616 70.628 217.008 68.564 216.312 66.848ZM210.468 70.448V74.804H211.224V70.448H210.468ZM211.272 66.416H213.528V68.528H211.272V66.416ZM210.468 65.624V69.32H214.368V65.624H210.468ZM212.16 68.924V74.408H212.976V68.924H212.16ZM209.844 74.708L210.012 75.584C211.272 75.272 213 74.852 214.644 74.444L214.56 73.64C212.832 74.048 211.032 74.468 209.844 74.708ZM212.448 71.06V71.864H214.476V71.06H212.448ZM227.976 65.492C227.892 67.088 227.892 72.86 222.996 75.356C223.272 75.56 223.572 75.836 223.728 76.064C228.696 73.364 228.876 67.376 228.972 65.492H227.976ZM228.936 65.732L228.072 65.816C228.156 66.92 228.492 73.628 233.58 76.064C233.724 75.812 234 75.512 234.264 75.308C229.32 73.04 228.972 66.668 228.936 65.732ZM241.632 69.284H245.364V70.004H241.632V69.284ZM241.632 68.06H245.364V68.756H241.632V68.06ZM240.804 67.496V70.568H246.228V67.496H240.804ZM241.176 65.12C240.744 66.26 240.036 67.424 239.256 68.18C239.46 68.3 239.796 68.576 239.952 68.708C240.708 67.892 241.488 66.608 241.98 65.336L241.176 65.12ZM241.188 66.164L240.852 66.86H247.08V66.164H241.188ZM239.28 71.156V71.852H247.38V71.156H239.28ZM241.56 71.48C240.996 72.404 240.036 73.256 239.076 73.832C239.232 73.952 239.52 74.24 239.64 74.384C240.612 73.736 241.644 72.752 242.28 71.708L241.56 71.48ZM242.496 72.764C241.932 73.88 240.912 74.876 239.844 75.512C240.024 75.632 240.3 75.908 240.432 76.04C241.488 75.32 242.568 74.228 243.204 72.992L242.496 72.764ZM244.512 72.764C244.08 73.988 243.252 75.068 242.268 75.752C242.436 75.872 242.748 76.112 242.88 76.244C243.852 75.488 244.764 74.312 245.256 72.944L244.512 72.764ZM241.056 72.572L240.528 73.232H246.492V72.572H241.056ZM246.216 72.572V72.692C246.036 74.456 245.844 75.164 245.604 75.38C245.52 75.476 245.424 75.488 245.256 75.488C245.088 75.488 244.692 75.488 244.26 75.44C244.368 75.632 244.452 75.932 244.464 76.148C244.908 76.172 245.352 76.172 245.58 76.16C245.868 76.148 246.072 76.076 246.252 75.896C246.564 75.572 246.78 74.804 246.984 72.92C247.008 72.8 247.02 72.572 247.02 72.572H246.216ZM238.968 65.168C238.296 66.992 237.168 68.792 235.98 69.956C236.148 70.16 236.4 70.64 236.496 70.844C237.792 69.5 239.028 67.472 239.82 65.432L238.968 65.168ZM237.72 68.264V76.148H238.584V67.424L238.56 67.412L237.72 68.264ZM249.588 67.508V68.408H260.4V67.508H249.588ZM254.508 65.132V67.892H255.432V65.132H254.508ZM251.016 67.904V73.7C251.016 75.248 251.736 75.74 253.404 75.74C253.788 75.74 257.328 75.74 258.06 75.74C258.876 75.74 259.728 75.716 260.028 75.644C259.98 75.416 259.92 74.984 259.896 74.744C259.476 74.816 258.66 74.852 258.072 74.852C257.328 74.852 253.956 74.852 253.296 74.852C252.276 74.852 251.952 74.528 251.952 73.748V67.904H251.016Z" fill="black"/>
<defs>
<clipPath id="clip0_207_1941">
<rect width="47.2808" height="46.2392" fill="white" transform="translate(21.28 16.24)"/>
</clipPath>
<clipPath id="clip1_207_1941">
<rect width="48.496" height="44.632" fill="white" transform="translate(115.64 16.7998)"/>
</clipPath>
<clipPath id="clip2_207_1941">
<rect width="52.08" height="29.12" fill="white" transform="translate(209.16 24.6399)"/>
</clipPath>
<clipPath id="clip3_207_1941">
<rect width="51.9624" height="28.98" fill="white" transform="translate(209.16 24.6399)"/>
</clipPath>
</defs>
</svg>
