<svg width="300" height="140" viewBox="0 0 300 140" fill="none" xmlns="http://www.w3.org/2000/svg">
<g clip-path="url(#clip0_2_4410)">
<path d="M143.044 70.6019L139.726 62.671C139.564 62.2819 139.305 61.9409 138.974 61.6806C138.643 61.4203 138.25 61.2493 137.835 61.184L111.512 57.0533C110.453 56.8873 109.384 56.7887 108.312 56.7583L57.724 55.4659L57.394 68.448L143.044 70.6019Z" fill="#3E3A39"/>
<path d="M141.311 69.4217L138.677 63.1136C138.591 62.9029 138.452 62.7183 138.273 62.5776C138.095 62.437 137.883 62.3451 137.658 62.311L111.335 58.1804C110.325 58.0202 109.305 57.9276 108.283 57.9031L58.8375 56.6343L58.5607 67.315L141.311 69.4217Z" fill="#9D6658"/>
<path d="M143.044 70.6019L139.685 62.5707C139.628 62.4344 139.54 62.3133 139.429 62.2169C139.317 62.1205 139.184 62.0516 139.041 62.0155C138.898 61.9794 138.749 61.9772 138.605 62.0091C138.461 62.0409 138.326 62.1059 138.212 62.1989L128.318 70.2242L143.044 70.6019Z" fill="#361F3E"/>
<path d="M82.1607 69.0441L78.8197 61.0306C78.6639 60.6625 78.4221 60.3373 78.1144 60.0826C77.8067 59.8279 77.4422 59.6511 77.0519 59.5672L57.718 55.4365L49.6099 55.224C49.2106 55.2147 48.8184 55.3309 48.4886 55.5564C48.1588 55.7819 47.908 56.1052 47.7713 56.4809L43.611 68.041L82.1607 69.0441Z" fill="#3E3A39"/>
<path d="M82.1607 69.0441L78.8078 61.007C78.75 60.8716 78.6618 60.7513 78.55 60.6557C78.4382 60.56 78.3059 60.4916 78.1633 60.4556C78.0207 60.4196 77.8717 60.4171 77.728 60.4482C77.5843 60.4794 77.4496 60.5434 77.3347 60.6352L67.4409 68.6664L82.1607 69.0441Z" fill="#3E3A39"/>
<path d="M87.7411 63.1136L104.146 62.4055L100.888 49.4234L87.9707 49.9781C87.6898 49.9906 87.4148 50.0622 87.1634 50.1882C86.9119 50.3142 86.6898 50.4917 86.5114 50.7093C86.333 50.927 86.2023 51.1798 86.1278 51.4513C86.0534 51.7229 86.0368 52.007 86.0792 52.2853L87.7411 63.1136Z" fill="#B88872"/>
<path d="M91.7187 62.9425L108.088 62.2343L108.395 60.6529C108.642 59.3574 108.613 58.0244 108.312 56.7406L106.863 50.6507C106.762 50.2372 106.522 49.8713 106.182 49.6153C105.843 49.3592 105.425 49.2288 105.001 49.2463L91.7953 49.8364C91.6419 49.843 91.4916 49.8818 91.3542 49.9503C91.2168 50.0188 91.0952 50.1154 90.9974 50.2339C90.8996 50.3524 90.828 50.4901 90.7868 50.6381C90.7455 50.7862 90.7359 50.9413 90.7583 51.0933L91.8246 58.4341C91.9209 59.0963 91.9468 59.7669 91.9014 60.4346L91.7187 62.9425Z" fill="#9D6658"/>
<path d="M107.611 61.6856L107.835 60.5408C108.069 59.3276 108.043 58.0786 107.758 56.8763L106.309 50.7866C106.242 50.5013 106.077 50.2484 105.844 50.0716C105.61 49.8949 105.323 49.8055 105.03 49.8188L91.8189 50.4089C91.7448 50.4121 91.6723 50.4311 91.6062 50.4646C91.5402 50.4982 91.4821 50.5456 91.4359 50.6036C91.3873 50.6596 91.3515 50.7256 91.3312 50.797C91.3108 50.8684 91.3062 50.9433 91.3179 51.0166L92.3903 58.3575C92.4894 59.061 92.5153 59.7729 92.4671 60.4818L92.3316 62.3642L107.611 61.6856Z" fill="#CFA289"/>
<path d="M124.606 61.5262L141.011 60.8181L137.752 47.8361L124.835 48.3907C124.554 48.4032 124.279 48.4748 124.028 48.6008C123.776 48.7268 123.554 48.9044 123.376 49.122C123.197 49.3396 123.067 49.5924 122.992 49.8639C122.918 50.1355 122.901 50.4197 122.944 50.698L124.606 61.5262Z" fill="#B88872"/>
<path d="M128.583 61.3551L144.953 60.647L145.259 59.0655C145.506 57.77 145.478 56.437 145.177 55.1532L143.727 49.0634C143.628 48.6503 143.389 48.2846 143.05 48.0284C142.712 47.7723 142.295 47.6417 141.871 47.659L128.66 48.2491C128.506 48.2565 128.356 48.296 128.218 48.3651C128.081 48.4342 127.959 48.5314 127.862 48.6504C127.764 48.7693 127.692 48.9074 127.651 49.0558C127.61 49.2042 127.6 49.3595 127.622 49.5119L128.689 56.8526C128.788 57.5146 128.814 58.1855 128.766 58.8531L128.583 61.3551Z" fill="#9D6658"/>
<path d="M144.476 60.1218L144.7 58.9771C144.937 57.7642 144.911 56.5144 144.623 55.3125L143.173 49.2228C143.106 48.9375 142.942 48.6846 142.708 48.5079C142.475 48.3311 142.187 48.2417 141.895 48.255L128.689 48.8451C128.614 48.8478 128.541 48.8666 128.474 48.9002C128.407 48.9338 128.348 48.9814 128.301 49.0398C128.252 49.0956 128.216 49.1616 128.195 49.2331C128.175 49.3045 128.17 49.3796 128.183 49.4529L129.255 56.7937C129.357 57.495 129.383 58.2053 129.332 58.9121L129.196 60.8004L144.476 60.1218Z" fill="#CFA289"/>
<path d="M81.5184 66.359C81.4751 65.3649 81.7879 64.3881 82.4006 63.6046C83.0133 62.8212 83.8853 62.2829 84.8595 62.0868C86.7282 61.6994 88.6231 61.4509 90.5283 61.3432L143.273 59.0714C144.012 59.041 144.733 59.3054 145.278 59.8065C145.823 60.3076 146.146 61.0046 146.179 61.7445L146.373 66.2823C146.405 67.0224 146.142 67.7449 145.643 68.2914C145.144 68.8379 144.449 69.1637 143.71 69.1974L84.783 71.7349C84.3867 71.7523 83.9907 71.6912 83.618 71.5553C83.2453 71.4193 82.9032 71.2111 82.6109 70.9426C82.3187 70.674 82.0822 70.3504 81.9149 69.9902C81.7477 69.63 81.6528 69.2403 81.6361 68.8434L81.5184 66.359Z" fill="#B88872"/>
<path d="M146.087 58.8507L90.5525 61.2399C88.7284 61.3184 87.3133 62.8628 87.3917 64.6894L87.5422 68.1972C87.6206 70.0238 89.1627 71.441 90.9867 71.3625L146.521 68.9733C148.345 68.8948 149.76 67.3504 149.682 65.5238L149.531 62.016C149.453 60.1894 147.911 58.7723 146.087 58.8507Z" fill="#9D6658"/>
<path d="M146.187 59.4193L90.6532 61.8085C89.1446 61.8734 87.9743 63.1508 88.0391 64.6615L88.1899 68.1752C88.2547 69.686 89.53 70.8582 91.0387 70.7933L146.573 68.4041C148.082 68.3392 149.252 67.0618 149.187 65.551L149.037 62.0373C148.972 60.5265 147.696 59.3544 146.187 59.4193Z" fill="#CFA289"/>
<path d="M155.454 37.6982L163.291 37.3619C163.639 37.3619 163.968 38.3709 164.021 39.6455C164.075 40.9201 163.839 41.9646 163.485 42.0059L155.648 42.3422C155.3 42.3422 154.971 41.3332 154.917 40.0586C154.864 38.784 155.1 37.7395 155.454 37.6982Z" fill="#361F3E"/>
<path d="M161.293 40.4835C161.494 40.4764 161.686 40.3943 161.83 40.2533C161.923 40.1606 161.993 40.047 162.034 39.9218C162.075 39.7967 162.086 39.6635 162.065 39.5334L161.376 35.2789C161.369 35.2342 161.353 35.1914 161.329 35.153C161.305 35.1145 161.274 35.0811 161.237 35.0548C161.201 35.0284 161.159 35.0097 161.115 34.9995C161.071 34.9894 161.026 34.988 160.981 34.9956C160.891 35.0102 160.81 35.0598 160.756 35.1339C160.701 35.2079 160.679 35.3003 160.692 35.391L161.382 39.6456C161.386 39.6657 161.385 39.6866 161.379 39.7063C161.373 39.726 161.361 39.7437 161.346 39.7577C161.331 39.7716 161.314 39.782 161.294 39.7881C161.275 39.7943 161.254 39.796 161.234 39.7931L160.28 39.6161C160.235 39.6075 160.189 39.6079 160.144 39.6172C160.099 39.6265 160.057 39.6446 160.019 39.6704C159.981 39.6961 159.949 39.729 159.924 39.7673C159.899 39.8056 159.882 39.8484 159.873 39.8934C159.859 39.9839 159.881 40.0763 159.934 40.1511C159.987 40.2259 160.066 40.2774 160.156 40.2947L161.111 40.4717C161.171 40.4846 161.232 40.4885 161.293 40.4835V40.4835Z" fill="#3F294A"/>
<g opacity="0.7">
<path opacity="0.7" d="M145.996 60.3165L134.093 37.533C134.039 37.4468 134.008 37.349 134 37.2478C133.993 37.1467 134.011 37.0453 134.051 36.9523C134.092 36.8594 134.154 36.7778 134.233 36.7145C134.312 36.6512 134.406 36.608 134.505 36.5889L183.291 35.8041C183.587 35.7984 183.88 35.8603 184.148 35.985C184.417 36.1097 184.653 36.2941 184.84 36.524L208.105 57.8677C208.435 58.2513 208.228 58.9062 207.775 58.9298L147.858 61.5086C147.467 61.508 147.083 61.3955 146.754 61.1843C146.424 60.9732 146.161 60.6721 145.996 60.3165V60.3165ZM143.639 62.6416L131.423 37.7572C131.353 37.6156 131.17 37.6924 131.194 37.8576L135.112 63.0369C135.127 63.2359 135.214 63.4226 135.358 63.5609C135.501 63.6993 135.691 63.7795 135.89 63.7863L143.256 63.4677C143.341 63.4484 143.421 63.4091 143.488 63.353C143.556 63.2969 143.609 63.2257 143.643 63.1451C143.678 63.0644 143.693 62.9767 143.687 62.8892C143.681 62.8017 143.655 62.7168 143.61 62.6416H143.639Z" fill="#595757"/>
<path opacity="0.7" d="M154.369 35.7332L140.857 50.4856L145.996 60.3224C146.155 60.6621 146.404 60.9516 146.715 61.1597C147.027 61.3677 147.389 61.4863 147.764 61.5026L172.071 34.9484L154.369 35.7332Z" fill="#717071"/>
<path opacity="0.7" d="M143.209 63.4677C143.296 63.4515 143.378 63.4144 143.449 63.3596C143.519 63.3048 143.575 63.2339 143.612 63.1529C143.649 63.0718 143.666 62.983 143.661 62.894C143.657 62.805 143.631 62.7184 143.586 62.6416L138.742 52.7693L134.234 57.6847L135.065 63.0369C135.08 63.2359 135.167 63.4226 135.311 63.5609C135.454 63.6993 135.644 63.7795 135.843 63.7863L143.209 63.4677Z" fill="#759CB1"/>
<path opacity="0.7" d="M184.793 39.0437C185.107 38.702 185.285 38.257 185.294 37.7928C185.303 37.3285 185.141 36.8772 184.84 36.524V36.524C184.653 36.2941 184.417 36.1097 184.148 35.985C183.88 35.8603 183.587 35.7984 183.291 35.8041L177.28 36.0637C176.78 36.0795 176.306 36.2914 175.96 36.6538L155.925 61.1368L167.38 60.6411L184.793 39.0437Z" fill="#717071"/>
<path opacity="0.7" d="M208.104 57.8677L194.316 44.7617L181.611 60.0569L207.775 58.9298C208.228 58.9062 208.434 58.2513 208.104 57.8677Z" fill="#717071"/>
</g>
<path d="M184.54 34.7477C184.338 34.4982 184.081 34.2984 183.79 34.1634C183.499 34.0284 183.181 33.9618 182.86 33.9688L131.37 34.8716L147.805 66.3237L214.109 63.4677L184.54 34.7477ZM207.775 58.9416L147.858 61.5203C147.468 61.5208 147.086 61.41 146.756 61.2011C146.426 60.9921 146.163 60.6935 145.996 60.3401L134.093 37.5566C134.039 37.4704 134.008 37.3725 134 37.2714C133.993 37.1702 134.011 37.0688 134.051 36.9759C134.092 36.883 134.154 36.8014 134.233 36.7381C134.312 36.6747 134.406 36.6316 134.505 36.6124L183.291 35.8276C183.587 35.8219 183.88 35.8839 184.148 36.0086C184.417 36.1333 184.653 36.3176 184.84 36.5475L208.105 57.8912C208.435 58.2512 208.228 58.9062 207.775 58.9416V58.9416Z" fill="#FF6100"/>
<path d="M131.37 34.8598H130.657L135.372 66.8194L148.1 66.2706L131.83 35.1254C131.784 35.0438 131.718 34.976 131.637 34.9292C131.556 34.8825 131.464 34.8585 131.37 34.8598V34.8598ZM143.232 63.4677L135.866 63.7863C135.667 63.7795 135.478 63.6992 135.334 63.5609C135.191 63.4225 135.103 63.2358 135.089 63.0368L131.17 37.8575C131.17 37.6923 131.329 37.6156 131.4 37.7572L143.61 62.6415C143.655 62.72 143.68 62.8084 143.683 62.899C143.686 62.9895 143.667 63.0794 143.628 63.1609C143.588 63.2424 143.53 63.3131 143.456 63.3665C143.383 63.42 143.298 63.4547 143.209 63.4677H143.232Z" fill="#FF6100"/>
<path d="M130.699 34.8893H130.439C130.377 34.899 130.318 34.9214 130.265 34.9552C130.212 34.9889 130.167 35.0332 130.132 35.0853C130.097 35.1374 130.074 35.1962 130.063 35.2579C130.052 35.3197 130.054 35.3831 130.068 35.4441L134.705 66.8666L147.44 66.3178L131.164 35.1726C131.121 35.0859 131.055 35.0132 130.972 34.963C130.89 34.9129 130.795 34.8873 130.699 34.8893V34.8893ZM133.138 41.2978L143.609 62.6415C143.654 62.7184 143.68 62.805 143.685 62.894C143.689 62.983 143.672 63.0718 143.635 63.1528C143.598 63.2339 143.542 63.3047 143.472 63.3595C143.402 63.4143 143.32 63.4515 143.232 63.4677L135.866 63.7863C135.667 63.7795 135.478 63.6992 135.334 63.5609C135.19 63.4225 135.103 63.2359 135.089 63.0368L131.771 41.7344C131.742 41.5622 131.776 41.3853 131.867 41.2362C131.958 41.0871 132.099 40.9757 132.265 40.9226C132.432 40.8695 132.611 40.8783 132.772 40.9472C132.932 41.0161 133.062 41.1405 133.138 41.2978V41.2978Z" fill="#FF6100"/>
<path d="M39.9399 107.577L161.063 110.681C162.036 110.71 163.008 110.617 163.957 110.404L183.856 106.002C185.601 105.617 187.237 104.846 188.647 103.747C190.056 102.647 191.202 101.246 192.002 99.6465C192.802 98.0467 193.234 96.2883 193.269 94.4996C193.303 92.711 192.938 90.9372 192.2 89.3078L191.47 87.6969C190.544 85.6382 189.058 83.8822 187.183 82.6298C185.307 81.3775 183.116 80.6794 180.863 80.6158L44.0354 77.1106C39.5157 76.9926 39.4626 79.53 37.3118 83.5131L33.847 89.9275C32.583 92.2701 32.1315 94.9666 32.5634 97.594C32.9954 100.221 34.2862 102.631 36.2334 104.444V104.444C38.3606 106.468 37.0171 107.501 39.9399 107.577Z" fill="#3E3A39"/>
<path d="M161.37 110.982H161.051L39.9341 107.878C38.0543 107.831 37.7477 107.371 37.3293 106.503C37.0239 105.813 36.576 105.196 36.0152 104.692C34.0203 102.833 32.6978 100.364 32.2552 97.6718C31.8126 94.9795 32.275 92.2162 33.5698 89.8154L37.0346 83.4011C37.4589 82.6162 37.8066 81.8787 38.113 81.2237C39.3741 78.5269 40.2167 76.7389 44.0057 76.8451L180.839 80.3503C183.146 80.4191 185.388 81.1324 187.311 82.4098C189.234 83.6871 190.762 85.4776 191.723 87.579L192.454 89.1899C193.216 90.8628 193.593 92.6858 193.557 94.5243C193.522 96.3627 193.074 98.1697 192.247 99.8116C191.429 101.449 190.255 102.882 188.811 104.006C187.367 105.129 185.69 105.914 183.903 106.303L164.004 110.705C163.139 110.893 162.255 110.986 161.37 110.982ZM43.7229 77.4234C40.5408 77.4234 39.8572 78.881 38.6433 81.4656C38.3369 82.1265 37.9836 82.8759 37.5534 83.6785L34.0883 90.0928C32.8594 92.3815 32.4242 95.014 32.8508 97.5772C33.2774 100.14 34.5416 102.489 36.4454 104.255C37.0585 104.809 37.5502 105.484 37.8892 106.238C38.231 106.946 38.3724 107.241 39.9752 107.282L161.099 110.386C162.047 110.414 162.995 110.323 163.921 110.115L183.821 105.718C185.524 105.345 187.122 104.594 188.498 103.521C189.874 102.448 190.992 101.079 191.77 99.5166C192.552 97.9558 192.976 96.2394 193.01 94.4934C193.043 92.7473 192.686 91.0159 191.964 89.426L191.234 87.8209C190.319 85.8193 188.864 84.1137 187.032 82.8968C185.201 81.6799 183.066 81.0002 180.869 80.9345L44.0411 77.4293L43.7229 77.4234Z" fill="#3E3A39"/>
<path d="M180.833 85.8617L173.544 85.6788L173.509 87.1068C169.916 88.4661 166.81 90.8665 164.586 94.0018C162.362 97.137 161.121 100.865 161.022 104.709C160.924 108.554 161.972 112.34 164.033 115.586C166.093 118.831 169.072 121.389 172.589 122.931L172.554 124.365L179.843 124.548C182.38 124.614 184.905 124.178 187.273 123.266C189.641 122.354 191.807 120.984 193.647 119.233C195.487 117.483 196.964 115.387 197.995 113.065C199.026 110.743 199.59 108.241 199.654 105.701C199.784 100.571 197.875 95.5995 194.345 91.8793C190.816 88.1591 185.956 85.9946 180.833 85.8617Z" fill="#3E3A39"/>
<path d="M180.332 124.849H179.826L172.536 124.666C172.497 124.666 172.459 124.657 172.423 124.641C172.387 124.625 172.354 124.602 172.328 124.574C172.301 124.545 172.28 124.511 172.266 124.475C172.252 124.438 172.246 124.399 172.248 124.36L172.277 123.126C168.747 121.547 165.763 118.953 163.705 115.675C161.647 112.397 160.607 108.58 160.716 104.709C160.805 100.837 162.04 97.0784 164.264 93.9093C166.488 90.7401 169.601 88.303 173.208 86.9062V85.673C173.211 85.5955 173.243 85.5219 173.297 85.4664C173.325 85.44 173.358 85.4196 173.395 85.4064C173.431 85.3933 173.47 85.3875 173.509 85.3897L180.798 85.5726C185.998 85.7132 190.929 87.913 194.512 91.6896C198.094 95.4661 200.035 100.511 199.908 105.718C199.768 110.83 197.647 115.686 193.992 119.257C190.338 122.829 185.439 124.834 180.332 124.849V124.849ZM172.843 124.076L179.838 124.253C184.881 124.379 189.768 122.495 193.426 119.015C197.084 115.536 199.214 110.745 199.348 105.695C199.47 100.645 197.588 95.7529 194.114 92.0905C190.64 88.4281 185.858 86.2943 180.816 86.1568L173.821 85.9797L173.792 87.1128C173.789 87.172 173.769 87.2291 173.735 87.2773C173.7 87.3255 173.652 87.3626 173.597 87.3842C170.055 88.7161 166.991 91.0787 164.801 94.1683C162.61 97.2579 161.393 100.933 161.305 104.721C161.199 108.509 162.227 112.242 164.257 115.44C166.287 118.638 169.226 121.154 172.696 122.666C172.75 122.688 172.797 122.727 172.828 122.776C172.86 122.826 172.875 122.884 172.872 122.943L172.843 124.076Z" fill="#3E3A39"/>
<path d="M173.043 124.371C183.714 124.371 192.365 115.708 192.365 105.022C192.365 94.3358 183.714 85.6729 173.043 85.6729C162.372 85.6729 153.721 94.3358 153.721 105.022C153.721 115.708 162.372 124.371 173.043 124.371Z" fill="#878787"/>
<path d="M173.061 124.666H172.548C167.349 124.526 162.417 122.326 158.835 118.549C155.252 114.773 153.312 109.728 153.438 104.521C153.579 99.3152 155.775 94.378 159.545 90.7918C163.315 87.2055 168.352 85.2628 173.55 85.3896C178.749 85.5287 183.681 87.7273 187.263 91.5029C190.846 95.2785 192.787 100.323 192.66 105.53C192.6 108.109 192.031 110.652 190.984 113.01C189.937 115.368 188.434 117.494 186.561 119.267C182.924 122.742 178.088 124.676 173.061 124.666ZM173.061 85.968C168.185 85.9564 163.493 87.8341 159.968 91.208C158.155 92.929 156.701 94.9926 155.69 97.2796C154.678 99.5666 154.129 102.032 154.075 104.532C153.951 109.583 155.833 114.476 159.307 118.138C162.781 121.801 167.565 123.934 172.607 124.07C175.107 124.144 177.596 123.719 179.929 122.821C182.263 121.922 184.395 120.568 186.202 118.836C188.015 117.114 189.469 115.05 190.48 112.762C191.492 110.474 192.04 108.008 192.094 105.506C192.165 103.004 191.739 100.514 190.842 98.178C189.945 95.8422 188.594 93.7078 186.868 91.8984C185.151 90.0812 183.09 88.6239 180.806 87.6108C178.522 86.5978 176.059 86.0494 173.562 85.9975L173.061 85.968Z" fill="#3E3A39"/>
<path d="M177.33 118.507C184.733 116.14 188.818 108.21 186.454 100.797C184.09 93.3831 176.172 89.2923 168.768 91.6597C161.365 94.0272 157.28 101.956 159.644 109.37C162.008 116.784 169.926 120.874 177.33 118.507Z" fill="white"/>
<path d="M173.055 119.409H172.678C168.871 119.305 165.26 117.694 162.638 114.929C160.015 112.163 158.595 108.469 158.689 104.656C158.789 100.843 160.397 97.2255 163.159 94.5987C165.922 91.9719 169.612 90.5507 173.42 90.6475C177.229 90.7479 180.842 92.3579 183.466 95.1239C186.09 97.89 187.51 101.586 187.415 105.4V105.4C187.313 109.147 185.755 112.707 183.074 115.322C180.392 117.938 176.798 119.404 173.055 119.409ZM173.055 91.2257C169.464 91.2291 166.016 92.6358 163.445 95.1464C160.874 97.657 159.383 101.073 159.29 104.668C159.196 108.327 160.557 111.874 163.073 114.529C165.588 117.185 169.054 118.732 172.707 118.83C176.361 118.922 179.902 117.559 182.553 115.041C185.204 112.522 186.75 109.052 186.85 105.394C186.943 101.735 185.583 98.1882 183.067 95.5329C180.551 92.8775 177.086 91.3305 173.432 91.2316L173.055 91.2257Z" fill="#3E3A39"/>
<path d="M237.073 87.3075L229.784 87.1187C224.661 86.9887 219.697 88.9011 215.982 92.4354C212.267 95.9697 210.105 100.837 209.973 105.966C209.907 108.507 210.343 111.035 211.253 113.407C212.164 115.778 213.532 117.947 215.28 119.789C217.028 121.632 219.121 123.111 221.439 124.143C223.758 125.176 226.257 125.74 228.794 125.805L236.083 125.994C241.205 126.124 246.17 124.212 249.885 120.677C253.6 117.143 255.761 112.276 255.894 107.146C255.959 104.606 255.524 102.078 254.613 99.7063C253.703 97.3346 252.334 95.1657 250.587 93.3234C248.839 91.4812 246.746 90.0017 244.427 88.9695C242.108 87.9373 239.61 87.3725 237.073 87.3075V87.3075Z" fill="#3E3A39"/>
<path d="M58.549 82.7284L48.7965 82.4746L48.5844 90.7359C47.027 94.2237 46.1929 97.9919 46.133 101.812C45.9944 105.639 46.6361 109.454 48.0188 113.024L47.8067 121.285L57.5589 121.533C64.141 121.704 69.7039 113.165 69.975 102.467C70.246 91.7686 65.1311 82.8936 58.549 82.7284Z" fill="#3E3A39"/>
<path d="M57.7651 121.763H57.5706L47.8123 121.515C47.7358 121.511 47.6641 121.477 47.6121 121.421C47.5827 121.394 47.5599 121.361 47.5456 121.324C47.5313 121.288 47.5258 121.248 47.5295 121.208L47.7358 113.03C46.3623 109.445 45.7231 105.62 45.8561 101.783C45.9155 97.9433 46.7494 94.1558 48.3075 90.6474L48.5196 82.4687C48.5202 82.4296 48.529 82.3911 48.5452 82.3555C48.5614 82.32 48.5848 82.2882 48.6139 82.2622C48.6693 82.2088 48.7431 82.1791 48.82 82.1796L58.5725 82.4333C61.8665 82.516 64.8953 84.658 67.105 88.47C69.3148 92.282 70.4225 97.1857 70.287 102.414C69.9924 113.148 64.3944 121.763 57.7651 121.763ZM48.1248 120.931L57.5824 121.173C63.9936 121.368 69.4267 112.912 69.6977 102.396C69.8274 97.2742 68.7256 92.4354 66.5983 88.7651C64.4711 85.0947 61.6366 83.1002 58.5607 83.0234L49.1324 82.7815L48.9261 90.7241C48.9317 90.7633 48.9317 90.8031 48.9261 90.8422C47.3836 94.2924 46.5575 98.0205 46.4983 101.8C46.365 105.578 46.9986 109.344 48.3605 112.87C48.3665 112.91 48.3665 112.949 48.3605 112.988L48.1248 120.931Z" fill="#3E3A39"/>
<path d="M60.1176 102.121C60.3917 91.4224 55.276 82.612 48.6912 82.4428C42.1064 82.2736 36.5461 90.8096 36.2719 101.509C35.9978 112.208 41.1135 121.018 47.6983 121.187C54.2831 121.357 59.8434 112.821 60.1176 102.121Z" fill="#878787"/>
<path d="M47.9952 121.492H47.7949C41.0596 121.315 35.8092 112.357 36.0862 101.511C36.2217 96.2829 37.6006 91.3968 39.9754 87.7501C42.3501 84.1033 45.5145 82.0793 48.8144 82.156C52.1142 82.2327 55.1372 84.3865 57.3469 88.1926C59.5567 91.9987 60.6644 96.9083 60.5289 102.137C60.2402 112.9 54.6421 121.492 47.9952 121.492ZM48.5845 82.7461C45.5733 82.7461 42.6919 84.6285 40.4527 88.0569C38.1369 91.5975 36.7875 96.395 36.6579 101.511C36.3868 112.033 41.3719 120.725 47.7949 120.89C54.2179 121.055 59.6392 112.629 59.9103 102.113C60.0399 96.991 58.9378 92.1522 56.8106 88.4818C54.6833 84.8115 51.8492 82.8169 48.7732 82.7343L48.5845 82.7461Z" fill="#3E3A39"/>
<path d="M56.6421 102.032C56.8363 94.4541 53.2143 88.2136 48.5523 88.0938C43.8902 87.974 39.9535 94.0202 39.7593 101.598C39.5651 109.176 43.187 115.416 47.849 115.536C52.5111 115.656 56.4479 109.61 56.6421 102.032Z" fill="white"/>
<path d="M48.0833 115.868H47.9421C43.1219 115.744 39.3622 109.377 39.5626 101.629C39.5799 98.1744 40.5375 94.7898 42.3322 91.8394C44.0529 89.1958 46.2979 87.7854 48.6608 87.8385C51.0238 87.8917 53.1923 89.4318 54.7716 92.1581C56.4124 95.1973 57.1967 98.6262 57.0403 102.078C56.8458 109.725 52.8387 115.868 48.0833 115.868ZM48.5135 88.4227C46.4098 88.4227 44.3887 89.7387 42.8271 92.1522C41.0935 95.014 40.1688 98.2937 40.1518 101.641C39.9633 109.041 43.4635 115.16 47.9596 115.272C52.4557 115.384 56.2625 109.46 56.451 102.054C56.608 98.7123 55.8522 95.3909 54.2649 92.4472C52.7917 89.9039 50.7941 88.4758 48.6433 88.4227H48.5135Z" fill="#3E3A39"/>
<path d="M275.67 109.165L210.745 111.973C209.994 112.011 209.258 111.76 208.686 111.272C208.114 110.784 207.75 110.095 207.668 109.348L206.897 102.685C206.873 102.503 206.833 102.324 206.779 102.148L201.169 84.1741C199.054 80.1437 201.917 80.4152 203.856 80.3207L222.789 79.3884L267.615 77.8306C267.911 77.8196 268.207 77.8535 268.493 77.9309L272.894 79.1111C273.317 79.2241 273.709 79.43 274.043 79.7137C274.376 79.9975 274.642 80.352 274.821 80.7515L278.946 89.8744C279.139 90.3021 279.23 90.7687 279.211 91.2375L278.51 106.32C278.484 107.066 278.176 107.774 277.649 108.302C277.122 108.83 276.415 109.138 275.67 109.165V109.165Z" fill="#E5E5E5"/>
<path d="M210.615 112.268C209.817 112.265 209.048 111.97 208.452 111.439C207.856 110.908 207.475 110.176 207.38 109.383L206.602 102.721C206.584 102.554 206.548 102.39 206.496 102.231L200.886 84.2626C200.12 82.805 199.931 81.7311 200.338 81.0289C200.868 80.126 202.188 80.0788 203.355 80.0434H203.844L222.771 79.111L267.603 77.5532C267.929 77.5435 268.254 77.5812 268.569 77.6653L272.971 78.8455C273.435 78.9701 273.866 79.1968 274.232 79.5092C274.598 79.8215 274.89 80.2117 275.086 80.6512L279.211 89.774C279.424 90.242 279.523 90.7535 279.5 91.267L278.799 106.35C278.765 107.166 278.426 107.939 277.848 108.516C277.27 109.092 276.497 109.429 275.682 109.46L210.756 112.268H210.615ZM267.715 78.1256H267.62L222.795 79.6834L203.868 80.6157H203.373C202.359 80.6157 201.21 80.6866 200.851 81.3062C200.556 81.8137 200.751 82.7224 201.44 84.0206L207.073 102.042C207.132 102.235 207.173 102.432 207.197 102.632L207.975 109.288C208.056 109.958 208.386 110.573 208.899 111.011C209.412 111.448 210.071 111.676 210.745 111.649L275.67 108.84C276.337 108.814 276.97 108.537 277.443 108.065C277.916 107.592 278.194 106.959 278.221 106.291L278.923 91.2138C278.939 90.792 278.859 90.372 278.687 89.9865L274.562 80.8636C274.4 80.5038 274.161 80.1843 273.862 79.9282C273.562 79.6721 273.21 79.4857 272.829 79.3825L268.428 78.2023C268.195 78.1436 267.955 78.1178 267.715 78.1256Z" fill="#3E3A39"/>
<path d="M275.499 97.4807L275.811 102.738C275.858 103.543 275.586 104.334 275.055 104.94C274.523 105.545 273.774 105.916 272.971 105.972L255.882 107.152L217.715 108.604C216.936 108.583 216.182 108.319 215.56 107.848C214.938 107.377 214.478 106.723 214.245 105.978L212.106 100.006C212.024 99.7314 212.007 99.441 212.058 99.1586C212.108 98.8762 212.224 98.6095 212.396 98.38C212.567 98.1505 212.791 97.9645 213.047 97.837C213.304 97.7095 213.587 97.6441 213.873 97.6459L272.8 95.1026C273.472 95.0622 274.133 95.2894 274.639 95.7349C275.144 96.1803 275.453 96.8079 275.499 97.4807V97.4807Z" fill="#3E3A39"/>
<path d="M217.739 108.893C216.894 108.876 216.076 108.593 215.4 108.085C214.725 107.577 214.226 106.869 213.974 106.061L211.84 100.101C211.735 99.7764 211.711 99.4313 211.768 99.0952C211.826 98.7591 211.964 98.442 212.171 98.1711C212.374 97.8971 212.642 97.677 212.95 97.53C213.258 97.3829 213.597 97.3134 213.938 97.3273L272.865 94.784C273.607 94.7625 274.328 95.0294 274.877 95.5289C275.426 96.0285 275.761 96.7217 275.811 97.463L276.124 102.721C276.171 103.602 275.87 104.467 275.287 105.129C274.704 105.791 273.885 106.198 273.006 106.261L255.918 107.441L217.739 108.893ZM213.885 97.9174C213.646 97.9119 213.41 97.9623 213.194 98.0648C212.978 98.1673 212.789 98.3189 212.642 98.5075C212.493 98.701 212.394 98.9276 212.351 99.1681C212.309 99.4086 212.326 99.6557 212.4 99.8883L214.533 105.848C214.746 106.539 215.17 107.145 215.745 107.582C216.32 108.018 217.018 108.262 217.739 108.279L255.882 106.828L272.971 105.648C273.702 105.596 274.382 105.257 274.864 104.704C275.346 104.151 275.589 103.429 275.54 102.697L275.228 97.4394C275.19 96.8472 274.922 96.2934 274.481 95.8964C274.041 95.4994 273.463 95.2907 272.871 95.3151L213.944 97.8584L213.885 97.9174Z" fill="#3E3A39"/>
<path d="M225.806 88.5054L224.969 85.8322C224.727 85.0519 224.241 84.3705 223.582 83.889C222.922 83.4075 222.126 83.1516 221.31 83.1592L211.257 83.2594C210.667 83.2642 210.086 83.4068 209.561 83.6756C209.036 83.9445 208.58 84.3324 208.231 84.8084C207.881 85.2844 207.647 85.8355 207.548 86.4179C207.448 87.0002 207.485 87.5978 207.657 88.1632L208.352 90.4763C208.584 91.2411 209.05 91.9136 209.685 92.3985C210.319 92.8835 211.09 93.1565 211.888 93.179L224.091 92.9193C226.702 92.9842 226.584 90.9897 225.806 88.5054Z" fill="white"/>
<path d="M211.9 93.4739C211.035 93.4566 210.199 93.165 209.51 92.6412C208.822 92.1173 208.317 91.3882 208.069 90.5588L207.374 88.2457C207.188 87.6372 207.147 86.9935 207.255 86.3664C207.362 85.7392 207.615 85.146 207.993 84.6343C208.367 84.1199 208.857 83.7008 209.423 83.4107C209.989 83.1207 210.615 82.9677 211.251 82.9643L221.304 82.8641H221.345C222.219 82.86 223.071 83.1378 223.775 83.6565C224.478 84.1752 224.996 84.9071 225.252 85.7437L226.089 88.4168C226.513 89.7799 226.908 91.4735 226.183 92.4413C225.923 92.7301 225.597 92.9514 225.233 93.086C224.868 93.2207 224.477 93.2647 224.091 93.2143L211.9 93.4739ZM221.328 83.4423H221.292L211.239 83.5426C210.696 83.5458 210.16 83.6767 209.676 83.9247C209.192 84.1727 208.773 84.5309 208.452 84.9707C208.128 85.4081 207.91 85.916 207.818 86.4532C207.726 86.9905 207.762 87.5419 207.922 88.0628L208.617 90.3819C208.829 91.0891 209.259 91.7111 209.845 92.1585C210.432 92.6059 211.145 92.8557 211.882 92.872L224.074 92.6124C224.367 92.6588 224.667 92.6342 224.949 92.5408C225.231 92.4473 225.486 92.2878 225.694 92.0754C226.283 91.3142 225.859 89.715 225.506 88.582L224.675 85.9089C224.454 85.1977 224.011 84.576 223.412 84.1344C222.813 83.6927 222.089 83.4544 221.345 83.4542L221.328 83.4423Z" fill="#3E3A39"/>
<path d="M260.962 88.8477L259.595 84.18C259.408 83.5506 259.016 83.0017 258.483 82.6201C257.949 82.2385 257.303 82.0461 256.648 82.0733L231.027 82.8936C230.56 82.9103 230.103 83.0382 229.695 83.2666C229.287 83.4951 228.939 83.8175 228.68 84.2073C228.421 84.597 228.258 85.043 228.205 85.5082C228.152 85.9734 228.21 86.4445 228.375 86.8826L230.231 91.7568C230.452 92.3336 230.847 92.8265 231.362 93.1664C231.877 93.5062 232.485 93.6757 233.101 93.651L258.233 92.6183C258.682 92.6029 259.12 92.4852 259.516 92.2742C259.912 92.0632 260.255 91.7645 260.518 91.4008C260.781 91.0372 260.958 90.6181 261.035 90.1756C261.112 89.7332 261.087 89.279 260.962 88.8477Z" fill="#3E3A39"/>
<path d="M233.007 93.946C232.352 93.9463 231.712 93.7472 231.172 93.3753C230.632 93.0033 230.218 92.476 229.984 91.8631L228.128 86.9889C227.942 86.5067 227.875 85.9868 227.932 85.4732C227.99 84.9596 228.17 84.4675 228.458 84.0384C228.743 83.6078 229.127 83.2521 229.579 83.0016C230.03 82.751 230.535 82.6127 231.051 82.5985L256.666 81.7783C257.381 81.7544 258.084 81.9692 258.665 82.389C259.245 82.8088 259.669 83.4097 259.871 84.0974L261.245 88.7651C261.385 89.2364 261.415 89.7335 261.333 90.2184C261.252 90.7033 261.06 91.163 260.773 91.5621C260.488 91.9641 260.114 92.295 259.681 92.5293C259.248 92.7636 258.767 92.895 258.275 92.9134L233.142 93.946H233.007ZM256.772 82.3684H256.69L231.068 83.1886C230.647 83.1991 230.234 83.312 229.865 83.5176C229.497 83.7232 229.184 84.0153 228.953 84.3688C228.715 84.7176 228.566 85.1193 228.519 85.5389C228.472 85.9585 228.527 86.3834 228.682 86.7764L230.538 91.6506C230.734 92.1705 231.09 92.6151 231.553 92.9213C232.016 93.2275 232.564 93.3795 233.119 93.3559L258.251 92.3233C258.652 92.3076 259.045 92.2001 259.398 92.0088C259.752 91.8175 260.057 91.5476 260.29 91.2198C260.525 90.8932 260.682 90.5171 260.749 90.1202C260.817 89.7234 260.793 89.3163 260.679 88.9302V88.9302L259.312 84.2685C259.15 83.7196 258.815 83.2379 258.357 82.8954C257.9 82.5529 257.343 82.368 256.772 82.3684Z" fill="#3E3A39"/>
<path d="M150.869 99.9473C151.011 94.5243 152.496 82.0556 169.136 82.4805C181.717 82.8051 185.147 100.827 185.147 100.827C185.147 100.827 185.919 108.634 188.022 111.855L189.26 113.75L192.106 113.82L208.016 112.091L206.891 102.414L200.055 80.5096L152.39 66.8017L42.7861 65.0314L34.1652 67.8639C32.6667 68.1795 31.2066 68.6563 29.8104 69.286C27.1646 70.4662 23.8883 72.3604 23.6703 74.0068L20.5767 97.0205C20.1053 100.502 28.679 104.025 31.9494 105.282L35.4556 107.418C34.3292 104.615 33.7471 101.623 33.7408 98.6019C33.9235 91.5207 36.9169 79.0461 48.6315 79.3471C54.6538 79.5005 58.3426 80.8283 60.6289 82.9998L60.8059 83.1945C61.5785 83.981 62.2155 84.8903 62.6913 85.8854C64.6045 89.1479 65.8523 92.7582 66.3625 96.5071C67.594 105.305 70.6465 109.489 73.5398 110.569L73.9875 110.74L155.159 112.823C152.466 108.905 150.728 104.379 150.869 99.9473Z" fill="#FF6100"/>
<path d="M94.0344 100.655C94.9359 102.52 95.6313 103.73 95.6313 103.73Z" fill="white"/>
<path d="M95.6313 104.025C95.5798 104.025 95.5295 104.011 95.4851 103.985C95.4406 103.959 95.4038 103.922 95.3781 103.877C95.3781 103.877 94.665 102.638 93.7694 100.785C93.7523 100.75 93.7422 100.713 93.7397 100.674C93.7373 100.635 93.7424 100.596 93.755 100.559C93.7676 100.523 93.7874 100.489 93.8131 100.46C93.8388 100.431 93.87 100.407 93.9049 100.39C93.9397 100.373 93.9775 100.363 94.0162 100.36C94.0549 100.358 94.0938 100.363 94.1305 100.376C94.1671 100.388 94.201 100.408 94.23 100.434C94.2591 100.459 94.2827 100.491 94.2996 100.526C95.1835 102.361 95.8788 103.57 95.8847 103.582C95.9234 103.65 95.9339 103.73 95.9141 103.805C95.8942 103.88 95.8455 103.944 95.7786 103.984C95.7331 104.008 95.6828 104.022 95.6313 104.025V104.025Z" fill="white"/>
<path d="M92.5613 97.6459C92.5031 97.6456 92.4464 97.6281 92.3982 97.5956C92.3499 97.563 92.3124 97.5169 92.2903 97.463C90.7405 93.6687 89.8979 90.3819 89.7859 87.7442C89.4913 80.8696 93.6986 69.6577 93.8754 69.1797C93.9055 69.1078 93.9622 69.0501 94.0333 69.0183C94.1045 68.9865 94.185 68.9831 94.2586 69.0087C94.3305 69.0389 94.388 69.0953 94.4197 69.1666C94.4515 69.2378 94.4551 69.3185 94.4295 69.3922C94.3824 69.5043 90.0805 80.9698 90.3752 87.6851C90.4871 90.2756 91.312 93.4798 92.8324 97.2092C92.8477 97.2448 92.856 97.2831 92.8562 97.3218C92.8565 97.3606 92.8489 97.399 92.8341 97.4348C92.8192 97.4706 92.7972 97.503 92.7696 97.5302C92.742 97.5573 92.7095 97.5786 92.6735 97.5928C92.6412 97.6195 92.6024 97.6378 92.5613 97.6459Z" fill="white"/>
<path d="M212.082 93.1671L215.706 93.0491L212.76 83.3361H210.609C210.101 83.3329 209.599 83.4493 209.144 83.6758C208.689 83.9023 208.293 84.2326 207.989 84.6401C207.684 85.0477 207.48 85.5212 207.391 86.0224C207.303 86.5236 207.333 87.0385 207.48 87.5258L208.317 90.2934C208.566 91.1061 209.063 91.8203 209.739 92.3356C210.414 92.851 211.233 93.1418 212.082 93.1671Z" fill="#949494"/>
<path d="M212.082 93.4799C211.165 93.4585 210.278 93.1465 209.548 92.5889C208.819 92.0312 208.285 91.2566 208.022 90.376L207.185 87.6084C207.025 87.0774 206.992 86.5161 207.088 85.9698C207.184 85.4234 207.407 84.9074 207.739 84.4633C208.071 84.0184 208.502 83.658 208.999 83.4109C209.495 83.1639 210.043 83.0372 210.597 83.0411H212.748C212.81 83.0401 212.872 83.0598 212.922 83.0971C212.972 83.1345 213.008 83.1874 213.025 83.2476L215.971 92.9606C215.984 93.0043 215.986 93.0501 215.979 93.095C215.972 93.1398 215.955 93.1826 215.93 93.2202C215.902 93.257 215.867 93.2872 215.826 93.3086C215.785 93.33 215.74 93.3422 215.694 93.3442L212.076 93.4622L212.082 93.4799ZM210.568 83.6312C210.11 83.6312 209.659 83.7379 209.25 83.9427C208.841 84.1476 208.485 84.445 208.211 84.8114C207.935 85.1816 207.749 85.6116 207.669 86.0666C207.589 86.5217 207.617 86.9892 207.751 87.4314L208.588 90.2049C208.815 90.9638 209.276 91.6316 209.904 92.1127C210.533 92.5939 211.297 92.8638 212.088 92.8839L215.317 92.7777L212.524 83.643H210.597L210.568 83.6312Z" fill="#3E3A39"/>
<path d="M69.2616 74.8329L64.6301 74.7148C64.2111 74.704 63.813 74.5294 63.5212 74.2282C63.2293 73.9271 63.0669 73.5235 63.0686 73.1039V73.1039C63.0739 72.8941 63.1205 72.6875 63.2058 72.4958C63.2911 72.3042 63.4135 72.1313 63.5657 71.9871C63.718 71.8429 63.897 71.7302 64.0929 71.6555C64.2887 71.5808 64.4971 71.5456 64.7066 71.5519L69.3384 71.6699C69.5474 71.6753 69.7531 71.7219 69.9441 71.8069C70.1351 71.892 70.3074 72.0138 70.4514 72.1656C70.5953 72.3174 70.7079 72.4962 70.7828 72.6916C70.8577 72.887 70.8936 73.0952 70.8881 73.3045C70.8727 73.7224 70.6932 74.1174 70.3886 74.4036C70.0841 74.6898 69.6791 74.8441 69.2616 74.8329V74.8329Z" fill="#3E3A39"/>
<path d="M106.191 75.7829L101.554 75.6648C101.345 75.6595 101.139 75.613 100.948 75.5279C100.757 75.4428 100.584 75.321 100.44 75.1692C100.296 75.0174 100.184 74.8387 100.109 74.6433C100.034 74.4478 99.9984 74.2395 100.004 74.0303C100.008 73.8205 100.054 73.6137 100.139 73.4218C100.223 73.2299 100.345 73.0565 100.497 72.9118C100.648 72.7671 100.827 72.6538 101.023 72.5784C101.218 72.503 101.427 72.467 101.636 72.4725L106.273 72.5905C106.483 72.5958 106.689 72.6425 106.881 72.728C107.072 72.8134 107.245 72.9359 107.389 73.0883C107.533 73.2407 107.645 73.4201 107.72 73.6162C107.794 73.8123 107.83 74.0212 107.823 74.2309C107.818 74.4402 107.771 74.6463 107.686 74.8376C107.602 75.0289 107.48 75.2015 107.328 75.3456C107.177 75.4897 106.998 75.6025 106.803 75.6775C106.608 75.7525 106.4 75.7884 106.191 75.7829Z" fill="#3E3A39"/>
<path d="M147.64 109.648C147.584 109.647 147.53 109.631 147.483 109.601C147.436 109.57 147.399 109.528 147.375 109.477C146.851 108.296 146.456 107.061 146.196 105.795C146.188 105.758 146.187 105.719 146.193 105.681C146.2 105.643 146.214 105.606 146.235 105.574C146.256 105.541 146.283 105.513 146.315 105.492C146.347 105.47 146.383 105.455 146.42 105.447C146.496 105.429 146.576 105.442 146.642 105.483C146.708 105.524 146.756 105.59 146.774 105.665C147.027 106.884 147.413 108.071 147.923 109.206C147.955 109.277 147.959 109.359 147.932 109.432C147.906 109.506 147.852 109.567 147.781 109.601C147.739 109.628 147.69 109.644 147.64 109.648V109.648Z" fill="white"/>
<path d="M146.067 103.818C145.996 103.818 145.927 103.792 145.873 103.746C145.819 103.699 145.783 103.635 145.772 103.565C144.299 93.769 146.014 79.1878 146.762 75.8951C147.299 73.3211 148.604 70.9712 150.504 69.1562C150.533 69.1301 150.567 69.1102 150.603 69.0978C150.64 69.0854 150.679 69.0807 150.718 69.084C150.757 69.0873 150.794 69.0986 150.828 69.1171C150.863 69.1356 150.892 69.161 150.916 69.1916C150.942 69.2204 150.962 69.2541 150.974 69.2906C150.986 69.3272 150.991 69.3659 150.989 69.4044C150.986 69.4429 150.975 69.4804 150.958 69.5148C150.94 69.5492 150.916 69.5797 150.887 69.6046C149.1 71.3477 147.87 73.5819 147.351 76.0249C146.615 79.294 144.912 93.7277 146.373 103.482C146.379 103.52 146.377 103.559 146.368 103.597C146.359 103.635 146.342 103.67 146.319 103.702C146.296 103.733 146.267 103.759 146.234 103.779C146.201 103.799 146.164 103.813 146.126 103.818H146.067Z" fill="white"/>
<path d="M185.377 96.1176C185.3 96.1176 185.227 96.0882 185.172 96.0354C185.117 95.9826 185.085 95.9105 185.082 95.8343C184.823 91.3909 183.279 80.7987 174.475 78.4147C168.07 76.6799 162.878 79.117 159.655 81.4655C159.591 81.5104 159.513 81.5287 159.436 81.5165C159.359 81.5044 159.289 81.4629 159.242 81.4006C159.198 81.3368 159.179 81.258 159.192 81.1809C159.204 81.1039 159.245 81.0346 159.307 80.9875C162.637 78.5622 167.999 76.0544 174.628 77.8424C183.833 80.3267 185.435 91.2316 185.701 95.8048C185.702 95.8436 185.696 95.8823 185.683 95.9187C185.669 95.9551 185.649 95.9884 185.623 96.0169C185.596 96.0454 185.565 96.0685 185.53 96.0847C185.494 96.101 185.456 96.1102 185.418 96.1117L185.377 96.1176Z" fill="white"/>
<path d="M155.513 85.1772C155.449 85.1786 155.386 85.1577 155.336 85.1182C155.274 85.0704 155.234 85 155.224 84.9226C155.214 84.8452 155.236 84.767 155.283 84.7052C155.952 83.8811 156.691 83.117 157.493 82.4215C157.519 82.3933 157.551 82.3707 157.587 82.3554C157.622 82.34 157.66 82.332 157.699 82.332C157.737 82.332 157.776 82.34 157.811 82.3554C157.847 82.3707 157.879 82.3933 157.905 82.4215C157.933 82.4484 157.954 82.4805 157.969 82.516C157.984 82.5515 157.992 82.5895 157.992 82.628C157.992 82.6665 157.984 82.7046 157.969 82.74C157.954 82.7755 157.933 82.8076 157.905 82.8345C157.134 83.509 156.42 84.2472 155.772 85.0415C155.744 85.0848 155.706 85.12 155.66 85.1438C155.615 85.1676 155.564 85.1791 155.513 85.1772V85.1772Z" fill="white"/>
<path d="M23.6171 74.0067L22.4386 82.687L26.0686 82.7814L26.2924 73.93L23.635 73.8651C23.6248 73.9117 23.6187 73.9591 23.6171 74.0067Z" fill="#FFD694"/>
<path d="M26.0802 83.0765L22.4563 82.9821C22.4147 82.9798 22.374 82.9693 22.3366 82.951C22.2991 82.9328 22.2656 82.9073 22.2382 82.8759C22.2116 82.8444 22.1921 82.8075 22.1809 82.7678C22.1697 82.7282 22.1672 82.6865 22.1734 82.6457L23.352 73.9713C23.3492 73.9301 23.3492 73.8887 23.352 73.8474C23.3693 73.7795 23.4078 73.7189 23.4619 73.6744C23.5159 73.6298 23.5825 73.6036 23.6523 73.5995L26.3101 73.6645C26.3493 73.6652 26.3879 73.6738 26.4237 73.6897C26.4596 73.7056 26.4918 73.7286 26.5187 73.7572C26.5456 73.7857 26.5665 73.8193 26.5803 73.8561C26.594 73.8929 26.6002 73.9321 26.5987 73.9713L26.3748 82.7874C26.3718 82.8641 26.3395 82.9368 26.2848 82.9906C26.23 83.0443 26.1569 83.0751 26.0802 83.0765ZM22.7863 82.3979L25.7916 82.4746L26.0037 74.2486L23.894 74.1955L22.7863 82.3979Z" fill="#3E3A39"/>
<path d="M235.853 66.784C250.172 68.2592 267.291 76.7625 272.181 78.8928L200.026 80.5096L146.78 66.2116C146.78 66.2116 185.082 64.7599 192.831 64.4413C206.148 63.8512 222.324 65.3914 235.853 66.784Z" fill="#3E3A39"/>
<path d="M200.026 80.8046H199.949L146.703 66.5066C146.634 66.4897 146.573 66.4479 146.533 66.3891C146.493 66.3303 146.476 66.2587 146.485 66.188C146.493 66.118 146.527 66.0534 146.578 66.0057C146.63 65.9581 146.697 65.9306 146.768 65.9283C147.151 65.9283 185.135 64.4708 192.819 64.158C205.924 63.5679 221.917 65.0786 235.882 66.5184C248.487 67.8166 262.989 74.4257 269.966 77.6004C270.908 78.0312 271.698 78.3852 272.323 78.6508C272.384 78.6776 272.434 78.7243 272.465 78.7832C272.496 78.8421 272.506 78.9098 272.493 78.9753C272.479 79.0411 272.444 79.1005 272.393 79.1442C272.342 79.1879 272.278 79.2136 272.211 79.2173L200.055 80.8341L200.026 80.8046ZM148.759 66.4299L200.079 80.2146L270.879 78.6272L269.742 78.1079C262.794 74.945 248.345 68.3654 235.841 67.079C221.893 65.6392 205.924 64.1286 192.86 64.7187C186.166 65.0078 156.644 66.1289 148.742 66.4299H148.759Z" fill="#3E3A39"/>
<path d="M184.457 62.854C187.598 62.73 193.585 61.9747 195.035 61.9157C200.002 61.6974 204.463 62.8244 210.356 62.9778C214.545 63.0841 229.171 65.5743 235.847 66.784C256.536 70.5252 265.9 76.851 271.38 78.8869C271.745 79.0226 265.487 79.0698 265.104 79.0875L201.192 80.5627C199.048 80.6571 196.679 78.7275 189.254 76.6799C181.829 74.6323 171.576 71.9591 163.362 69.7286C156.179 67.8108 151.211 68.0173 145.837 67.4685L142.891 66.7132C149.549 63.1962 177.386 63.149 184.457 62.854Z" fill="#FF6100"/>
<path d="M272.452 90.8539L266.106 91.1254C265.385 91.156 264.674 90.9485 264.082 90.5348C263.49 90.1212 263.05 89.5243 262.83 88.8359L261.84 85.732C261.686 85.2492 261.646 84.7376 261.722 84.2368C261.798 83.7359 261.988 83.2592 262.277 82.8438C262.567 82.4284 262.948 82.0853 263.391 81.8412C263.834 81.597 264.328 81.4584 264.833 81.4361L271.18 81.1646C271.901 81.1341 272.612 81.3416 273.204 81.7552C273.796 82.1689 274.236 82.7658 274.456 83.4542L275.446 86.5581C275.599 87.0408 275.64 87.5524 275.564 88.0533C275.488 88.5542 275.298 89.0308 275.008 89.4462C274.719 89.8616 274.338 90.2047 273.895 90.4488C273.451 90.693 272.958 90.8316 272.452 90.8539V90.8539Z" fill="white"/>
<path d="M265.965 91.4264C265.205 91.4252 264.466 91.1829 263.853 90.7344C263.24 90.2859 262.785 89.6542 262.553 88.9302L261.557 85.8205C261.388 85.2949 261.343 84.7374 261.426 84.1916C261.509 83.6459 261.717 83.1268 262.034 82.6752C262.349 82.2212 262.764 81.8464 263.248 81.5802C263.731 81.314 264.27 81.1637 264.821 81.141L271.168 80.8696C271.948 80.8439 272.715 81.0737 273.353 81.5241C273.991 81.9746 274.465 82.6211 274.703 83.3656L275.699 86.4695C275.868 86.9951 275.913 87.5526 275.83 88.0983C275.747 88.644 275.539 89.1631 275.222 89.6147C274.909 90.0707 274.494 90.447 274.01 90.7134C273.526 90.9799 272.987 91.129 272.435 91.149V91.149L266.088 91.4204L265.965 91.4264ZM271.315 81.4419H271.185L264.839 81.7133C264.373 81.7248 263.916 81.8469 263.507 82.0696C263.097 82.2922 262.746 82.6089 262.482 82.9939C262.217 83.3719 262.044 83.8064 261.975 84.2632C261.906 84.7199 261.945 85.1864 262.087 85.6257L263.077 88.7296C263.277 89.3563 263.677 89.8998 264.216 90.2763C264.755 90.6527 265.402 90.8412 266.059 90.8126L272.405 90.5412C272.871 90.5274 273.327 90.4042 273.736 90.1818C274.145 89.9594 274.497 89.6439 274.762 89.2607C275.027 88.8826 275.201 88.4481 275.269 87.9914C275.338 87.5346 275.299 87.0682 275.157 86.6289L274.167 83.525C273.971 82.9242 273.59 82.4009 273.079 82.0299C272.568 81.659 271.952 81.4594 271.321 81.4596L271.315 81.4419Z" fill="#3E3A39"/>
<path d="M272.452 90.8539C272.958 90.8316 273.451 90.693 273.894 90.4488C274.338 90.2047 274.719 89.8616 275.008 89.4462C275.298 89.0308 275.488 88.5542 275.564 88.0533C275.64 87.5524 275.599 87.0408 275.446 86.5581L274.456 83.4542C274.236 82.7658 273.796 82.1689 273.204 81.7552C272.612 81.3416 271.901 81.1341 271.179 81.1646L269.27 81.2473L272.452 90.8539Z" fill="#949494"/>
<path d="M272.452 91.149C272.391 91.1485 272.332 91.129 272.282 91.093C272.232 91.057 272.195 91.0065 272.176 90.9484L268.993 81.3416C268.979 81.2986 268.974 81.2527 268.98 81.2075C268.986 81.1624 269.003 81.1194 269.029 81.082C269.055 81.0446 269.089 81.0135 269.129 80.991C269.169 80.9685 269.213 80.9553 269.259 80.9522L271.168 80.8696C271.948 80.8439 272.715 81.0737 273.353 81.5241C273.991 81.9746 274.465 82.6211 274.703 83.3656L275.699 86.4696C275.868 86.9951 275.913 87.5526 275.83 88.0983C275.747 88.644 275.539 89.1631 275.222 89.6147C274.909 90.0707 274.494 90.447 274.01 90.7135C273.526 90.9799 272.987 91.129 272.435 91.149H272.452ZM269.677 81.5246L272.659 90.5412C273.08 90.4952 273.487 90.3585 273.851 90.1406C274.215 89.9226 274.528 89.6286 274.768 89.2784C275.033 88.9004 275.207 88.4658 275.275 88.009C275.344 87.5523 275.305 87.0859 275.163 86.6465L274.173 83.5426C273.971 82.9175 273.57 82.3757 273.032 81.9997C272.493 81.6237 271.847 81.434 271.191 81.4596L269.677 81.5246Z" fill="#3E3A39"/>
<path d="M163.179 65.6333C163.109 65.6328 163.042 65.6076 162.989 65.5623C162.936 65.5169 162.901 65.4543 162.89 65.3855C162.883 65.3471 162.884 65.3078 162.893 65.2697C162.901 65.2317 162.917 65.1957 162.939 65.1639C162.962 65.1321 162.991 65.105 163.024 65.0843C163.056 65.0636 163.093 65.0496 163.132 65.0432C163.314 65.0432 181.77 61.9865 210.367 62.6828C210.406 62.6836 210.444 62.692 210.48 62.7075C210.515 62.7231 210.547 62.7455 210.574 62.7734C210.601 62.8014 210.622 62.8343 210.636 62.8704C210.65 62.9065 210.657 62.945 210.656 62.9838C210.656 63.0233 210.648 63.0624 210.632 63.0987C210.617 63.1349 210.594 63.1677 210.565 63.1947C210.537 63.2218 210.503 63.2428 210.465 63.2562C210.428 63.2696 210.389 63.2753 210.349 63.2729C181.817 62.5766 163.409 65.5979 163.208 65.6333H163.179Z" fill="white"/>
<mask id="mask0_2_4410" style="mask-type:alpha" maskUnits="userSpaceOnUse" x="35" y="11" width="69" height="55">
<rect x="35" y="11" width="69" height="55" fill="#C4C4C4"/>
</mask>
<g mask="url(#mask0_2_4410)">
<path d="M63.9466 86.6112L62.9036 88.6765C60.7881 89.8095 56.7869 89.597 54.3768 89.2371C49.2502 88.47 45.2432 83.761 43.9291 78.94C42.6799 74.3608 44.6834 70.4131 45.5496 66.0287C45.7228 65.1451 45.8271 64.2494 45.8618 63.3496C47.8073 63.0752 49.6866 62.4473 51.4068 61.4967C53.8582 60.1336 55.3078 58.3575 56.8222 56.2449C57.7964 58.363 58.4422 60.6175 58.7373 62.9307C59.2382 66.4713 58.8082 70.2361 58.6314 73.7943C58.3898 78.7865 58.7552 84.1387 63.9466 86.6112Z" fill="#FFA94C"/>
<path d="M56.8223 56.245C55.3079 58.3575 53.876 60.1336 51.407 61.4967C49.6867 62.4473 47.8074 63.0753 45.8619 63.3497C45.9689 59.8152 45.4359 56.2905 44.2886 52.9463C42.839 48.5678 40.5411 44.9092 37.7244 41.3096C40.6118 42.4544 43.4872 43.0799 46.2273 44.6319C49.1511 46.3129 51.7032 48.5715 53.7286 51.2704C54.944 52.8064 55.9818 54.4752 56.8223 56.245Z" fill="#FFC77F"/>
<path d="M84.1879 78.0371C84.0984 79.1873 83.935 80.3305 83.6987 81.4597C83.1785 83.9442 81.8193 86.1733 79.8498 87.7716C77.8803 89.3698 75.4209 90.2396 72.8859 90.2344H70.2929C68.5733 90.2339 66.8725 89.8788 65.296 89.1911C63.7194 88.5035 62.3011 87.498 61.1297 86.2374C59.9582 84.9768 59.0586 83.4881 58.4869 81.8641C57.9152 80.24 57.6834 78.5155 57.8064 76.7979C57.8943 75.5261 58.0479 74.2596 58.2662 73.0036C59.2433 67.5184 61.2102 62.2574 64.0705 57.4782L79.8452 58.1155C79.8452 58.1155 85.0659 67.321 84.1879 78.0371Z" fill="#FFA94C"/>
<path d="M80.4226 59.3547L78.4188 64.9901C85.1011 70.0059 86.9221 74.6204 87.2874 77.5768C87.3394 77.9692 87.4755 78.3458 87.6865 78.6806C87.8975 79.0153 88.1783 79.3004 88.5097 79.5162C88.8411 79.7321 89.2154 79.8735 89.6065 79.9309C89.9977 79.9883 90.3966 79.9603 90.7759 79.8487V79.8487C91.3588 79.679 91.8698 79.3218 92.2297 78.8322C92.5897 78.3426 92.7787 77.748 92.7675 77.1401C92.6261 62.4822 80.4226 59.3547 80.4226 59.3547Z" fill="#FFA94C"/>
<path d="M81.925 77.0694C81.925 78.0843 81.872 79.0757 81.7777 80.0198C81.5874 82.0124 80.663 83.8626 79.1847 85.2098C77.7065 86.5571 75.7803 87.3049 73.7815 87.3075V87.3075C71.7817 87.3063 69.8537 86.5592 68.3742 85.2118C66.8947 83.8644 65.9697 82.0134 65.7792 80.0198C65.6849 79.0639 65.6319 78.0725 65.6319 77.0694C65.6319 68.3242 69.2795 61.2194 73.7815 61.2194C78.2835 61.2194 81.925 68.3242 81.925 77.0694Z" fill="#F6F0F4"/>
<path d="M84.1878 78.0371C83.4099 78.403 82.6441 78.7216 81.8957 78.999C75.2488 81.4538 69.745 80.4211 65.6555 78.4974C62.859 77.1649 60.349 75.2987 58.2661 73.0036C59.2432 67.5184 61.2101 62.2574 64.0704 57.4782L79.8451 58.1155C79.8451 58.1155 85.0658 67.321 84.1878 78.0371Z" fill="#6561D2"/>
<path d="M79.78 61.302C76.1477 62.4626 72.2843 62.7019 68.5368 61.9983C68.2893 61.9511 68.1893 62.3229 68.4309 62.3701C72.2456 63.0937 76.1798 62.8564 79.8802 61.6796C80.1159 61.6147 80.0157 61.243 79.78 61.302Z" fill="white"/>
<path d="M79.0377 63.2788C75.7555 63.568 71.8486 64.1049 68.6783 63.0428C68.4367 62.966 68.3364 63.3437 68.5722 63.4204C71.7954 64.4944 75.7201 63.9633 79.0377 63.6683C79.2852 63.6624 79.2852 63.2552 79.0377 63.2788Z" fill="white"/>
<path d="M64.6008 59.5318C65.2077 59.7559 65.7265 60.1693 66.0809 60.7112C66.4353 61.253 66.6063 61.8946 66.5689 62.5412C66.1269 69.5634 68.3367 74.054 70.0161 76.1724C70.2592 76.4845 70.4319 76.8455 70.5225 77.2307C70.6132 77.6159 70.6196 78.0162 70.5412 78.4041C70.4629 78.792 70.3015 79.1584 70.0685 79.478C69.8355 79.7976 69.5363 80.063 69.1912 80.2559V80.2559C68.6614 80.5538 68.0484 80.669 67.4467 80.5837C66.8451 80.4984 66.2883 80.2173 65.8619 79.7838C58.8791 72.7853 59.4919 65.5389 60.6233 61.5676C60.7365 61.163 60.9322 60.7863 61.1979 60.4611C61.4636 60.136 61.7936 59.8694 62.1672 59.6781C62.5408 59.4869 62.95 59.3752 63.3688 59.35C63.7876 59.3248 64.2071 59.3867 64.6008 59.5318Z" fill="#FFA94C"/>
<path d="M57.2822 46.0775L57.3234 45.9891C47.0289 33.302 51.254 22.3853 51.254 22.3853C57.1113 27.4896 59.327 36.2761 60.093 40.3065L63.6934 32.8948C63.6462 32.4818 61.2539 21.8955 51.5723 20.078C51.5546 20.1075 43.3873 38.666 57.2822 46.0775Z" fill="#FFA94C"/>
<path d="M57.3232 45.9891L60.0751 40.3359C59.3267 36.3056 57.1287 27.5191 51.2361 22.4147C51.2832 22.4147 47.0288 33.302 57.3232 45.9891Z" fill="#FFC492"/>
<path d="M79.3146 39.203L87.211 41.9528C86.6806 39.976 82.6912 24.8401 83.3983 16.3073C91.648 24.4388 92.3435 33.2017 88.9788 42.3069C90.0807 40.8789 96.1089 31.9507 86.2917 18.4965L82.8266 14C82.8266 14 76.4331 25.6485 79.3146 39.203Z" fill="#FFA94C"/>
<path d="M83.3982 16.3073C82.6911 24.8519 86.6806 39.976 87.2109 41.9528L88.8136 42.5075C88.8136 42.5075 88.8726 42.4426 88.9787 42.3069C92.3434 33.2018 91.6421 24.4388 83.3982 16.3073Z" fill="#FFC492"/>
<path d="M53.051 48.1902C65.9677 49.7716 74.7891 46.2901 74.7891 46.2901C86.6275 49.8778 92.8559 49.4824 96.144 48.1547C97.0524 46.9994 97.8128 45.7346 98.4069 44.3899C98.4069 44.3899 96.5801 45.3046 95.7846 44.6496C95.7846 44.6496 98.5424 43.5461 99.1199 42.3836C99.1199 42.3836 95.9436 44.0772 93.4805 41.4749C93.4805 41.4749 87.1518 25.6308 73.1508 25.2414L72.4496 25.2059C71.2122 25.1056 65.9677 25.0525 61.2536 30.3221C61.2536 30.3221 57.0228 34.6357 53.7583 46.7739C53.6039 47.2825 53.3647 47.7613 53.051 48.1902Z" fill="#FFA94C"/>
<path d="M48.0834 50.1728C48.0834 50.1728 51.2478 55.0765 63.6636 59.2131L67.6236 60.2812C73.2294 61.7685 79.1947 60.9863 84.2292 58.1037L84.3647 58.0211C84.3647 58.0211 91.7777 53.8019 96.15 48.1547C92.8619 49.4824 86.6332 49.8778 74.7949 46.29C74.7949 46.29 65.9558 49.7716 53.0568 48.1901C52.3025 49.2405 50.8353 50.4561 48.0834 50.1728Z" fill="#FFC492"/>
<path d="M71.4126 47.3818C71.3419 48.2905 72.4732 49.152 73.9464 49.2464C75.4195 49.3408 76.6747 48.7213 76.7454 47.8125C76.8161 46.9038 75.6848 46.0422 74.2116 45.9419C72.7385 45.8416 71.4892 46.4671 71.4126 47.3818Z" fill="#3E3A39"/>
<path d="M64.1055 47.6826C65.0129 47.5764 65.614 46.2959 65.4431 44.8265C65.2722 43.3572 64.3943 42.2538 63.4868 42.36C62.5794 42.4662 61.9843 43.7467 62.1552 45.216C62.3261 46.6853 63.198 47.7889 64.1055 47.6826Z" fill="#3E3A39"/>
<path d="M84.0521 47.4466C84.9596 47.3404 85.5549 46.0658 85.384 44.5964C85.2131 43.1271 84.341 42.0237 83.4335 42.1299C82.5261 42.2361 81.9307 43.5107 82.1016 44.98C82.2725 46.4493 83.1447 47.5528 84.0521 47.4466Z" fill="#3E3A39"/>
<path d="M68.8848 49.3585C69.9513 52.604 72.7504 52.0965 72.774 52.0906C72.8745 52.0706 72.9632 52.0117 73.0205 51.9266C73.0779 51.8415 73.0994 51.7371 73.0804 51.6363C73.0712 51.586 73.0519 51.5381 73.024 51.4954C72.9961 51.4526 72.9601 51.4159 72.9178 51.3873C72.8756 51.3587 72.828 51.3388 72.778 51.3289C72.728 51.3189 72.6766 51.3191 72.6267 51.3294C72.5324 51.3294 70.4699 51.6893 69.6213 49.1165C69.606 49.0677 69.581 49.0226 69.548 48.9836C69.5149 48.9446 69.4744 48.9126 69.4289 48.8895C69.3833 48.8664 69.3336 48.8526 69.2827 48.8491C69.2317 48.8455 69.1805 48.8522 69.1322 48.8687C69.0835 48.8841 69.0382 48.9091 68.9993 48.9421C68.9603 48.9752 68.9285 49.0158 68.9055 49.0614C68.8824 49.1071 68.8688 49.1569 68.8652 49.2079C68.8616 49.2589 68.8683 49.3101 68.8848 49.3585Z" fill="#3E3A39"/>
<path d="M50.5879 54.0616C50.417 53.8845 50.1401 54.1559 50.3169 54.333C56.2095 60.3755 56.6929 70.7553 54.3122 78.5269C54.2356 78.7629 54.6127 78.8632 54.6834 78.6272C57.1112 70.7435 56.6161 60.2162 50.5879 54.0616Z" fill="white"/>
<path d="M51.9433 62.2108C51.5897 60.234 51.0769 57.0534 49.3445 55.7198C49.15 55.5664 48.9555 55.9086 49.15 56.0561C51.2714 57.6553 51.7311 62.8482 51.9079 65.1672C52.0503 67.7486 52.0305 70.3363 51.8489 72.9152C51.8489 73.1689 52.2261 73.1689 52.2379 72.9152C52.4206 69.3746 52.5679 65.7514 51.9433 62.2108Z" fill="white"/>
<path d="M90.9938 38.2234C90.9352 38.2186 90.879 38.1979 90.8312 38.1636C90.7835 38.1293 90.746 38.0827 90.7227 38.0287C88.3453 33.0293 84.1187 29.1523 78.9374 27.2181C78.8452 27.1811 78.7701 27.111 78.7265 27.0216C78.683 26.9322 78.6739 26.8299 78.7015 26.7343C78.707 26.6868 78.7224 26.6409 78.7467 26.5997C78.7709 26.5585 78.8036 26.5229 78.8425 26.4951C78.8813 26.4673 78.9255 26.4479 78.9722 26.4383C79.019 26.4287 79.0674 26.429 79.1141 26.4392C84.4806 28.4295 88.8608 32.4368 91.3238 37.6097C91.3699 37.7018 91.3832 37.8069 91.3618 37.9077C91.3404 38.0085 91.2854 38.0991 91.2058 38.1644C91.1442 38.2083 91.0692 38.2291 90.9938 38.2234V38.2234Z" fill="white"/>
</g>
<mask id="mask1_2_4410" style="mask-type:alpha" maskUnits="userSpaceOnUse" x="80" y="14" width="59" height="52">
<rect x="80" y="14" width="59" height="52" fill="#C4C4C4"/>
</mask>
<g mask="url(#mask1_2_4410)">
<path fill-rule="evenodd" clip-rule="evenodd" d="M122.331 58.4341C126.562 64.0105 132.502 79.3943 127.045 81.4007C125.837 81.3416 123.975 66.0582 123.975 66.0582L122.331 58.4341Z" fill="#D4703F"/>
<path fill-rule="evenodd" clip-rule="evenodd" d="M98.566 53.7134C96.4682 59.3193 93.7338 80.8578 92.844 86.328C91.9542 91.7981 93.4333 92.3174 96.085 93.5271C98.7367 94.7368 114.741 99.428 124.158 95.3446C128.229 93.6864 128.4 93.3855 127.829 86.2631C127.628 83.7788 125.012 60.9893 121.553 56.3688C119.326 53.3888 103.592 52.0552 98.566 53.7134Z" fill="#D4703F"/>
<path d="M126.921 80.545C126.873 80.5451 126.827 80.5268 126.792 80.4939C126.757 80.461 126.736 80.416 126.733 80.368C126.462 74.8329 124.005 64.5003 123.993 64.4354C123.988 64.411 123.987 64.3858 123.992 64.3612C123.997 64.3367 124.006 64.3134 124.02 64.2925C124.033 64.2717 124.051 64.2538 124.072 64.2398C124.092 64.2258 124.116 64.2161 124.14 64.2112C124.165 64.2051 124.191 64.2042 124.216 64.2084C124.241 64.2126 124.265 64.2218 124.287 64.2356C124.308 64.2494 124.326 64.2675 124.341 64.2886C124.355 64.3098 124.365 64.3336 124.37 64.3587C124.37 64.4059 126.845 74.7916 127.11 80.2913C127.113 80.342 127.097 80.3919 127.064 80.4305C127.031 80.4691 126.984 80.4933 126.933 80.4978L126.921 80.545Z" fill="white"/>
<path d="M105.955 85.0003C105.779 85.0006 105.604 84.9727 105.437 84.9176C103.969 84.3866 99.0372 81.8963 97.1869 72.0595C96.1439 66.4949 97.6347 63.6801 98.6129 62.4999C99.0003 61.9888 99.495 61.569 100.062 61.2703C100.629 60.9715 101.255 60.801 101.895 60.7709C102.124 60.7711 102.351 60.7989 102.573 60.8536C105.761 61.6266 106.939 65.7572 108.247 71.4753C109.226 75.7653 110.357 76.4144 111.447 77.0458C111.739 77.2015 112.019 77.379 112.284 77.5768C112.596 77.8247 112.643 78.2791 112.419 78.9282C111.706 81.0702 108.094 85.0003 105.955 85.0003ZM101.913 61.1545C101.329 61.185 100.76 61.3429 100.244 61.6171C99.7276 61.8913 99.2777 62.2751 98.9253 62.7418C97.9884 63.8748 96.5683 66.5775 97.5759 71.9886C99.3437 81.6249 104.146 84.0443 105.566 84.5577C105.692 84.599 105.823 84.619 105.955 84.6167C107.894 84.6167 111.382 80.846 112.078 78.8337C112.166 78.5623 112.29 78.0902 112.078 77.9073C111.829 77.7211 111.567 77.5534 111.294 77.4057C110.115 76.7389 108.937 76.0485 107.912 71.5933C106.633 65.9756 105.496 61.9452 102.514 61.2253C102.317 61.1759 102.115 61.1522 101.913 61.1545Z" fill="white"/>
<path d="M126.756 61.2194C126.934 60.9028 127.078 60.5686 127.187 60.2222C127.349 60.5425 127.546 60.8433 127.776 61.1191C128.09 61.3005 128.424 61.4451 128.772 61.5499C128.451 61.7139 128.149 61.9117 127.87 62.14C127.69 62.4553 127.546 62.7898 127.44 63.1372C127.276 62.8182 127.078 62.5175 126.851 62.2402C126.536 62.0576 126.202 61.9112 125.855 61.8036C126.176 61.6422 126.478 61.4463 126.756 61.2194Z" fill="white"/>
<path d="M85.9616 54.9467C86.2509 54.4316 86.4858 53.8877 86.6628 53.3239C86.9356 53.8486 87.2656 54.3414 87.6468 54.7932C88.1599 55.0842 88.7033 55.3177 89.2673 55.4896C88.7456 55.7658 88.2556 56.0981 87.8059 56.4809C87.5116 56.9935 87.2764 57.5379 87.1048 58.1037C86.8297 57.5803 86.4999 57.0878 86.1207 56.6343C85.6053 56.3441 85.0598 56.1107 84.4942 55.9381C85.018 55.6623 85.5101 55.3298 85.9616 54.9467V54.9467Z" fill="white"/>
<path d="M111.878 61.1073C111.899 61.4565 111.852 61.8065 111.738 62.1373C111.624 62.4681 111.447 62.7732 111.215 63.0351C110.984 63.2971 110.703 63.5108 110.389 63.664C110.075 63.8172 109.734 63.9069 109.385 63.9279C108.681 63.9094 108.012 63.6121 107.526 63.1011C107.04 62.5902 106.776 61.9071 106.792 61.2017C106.75 60.4963 106.989 59.803 107.456 59.2733C107.923 58.7436 108.581 58.4207 109.285 58.3752C109.99 58.3953 110.658 58.6939 111.144 59.2058C111.63 59.7177 111.893 60.4013 111.878 61.1073V61.1073Z" fill="#E4C884"/>
<path d="M109.285 58.3516C108.67 58.3677 108.085 58.6165 107.646 59.0479C107.407 59.4957 107.287 59.9977 107.299 60.5054C107.283 61.2114 107.547 61.895 108.032 62.407C108.518 62.9189 109.187 63.2175 109.891 63.2376C110.507 63.2217 111.093 62.9704 111.53 62.5353C111.768 62.0893 111.888 61.5894 111.877 61.0837C111.893 60.3777 111.629 59.6941 111.144 59.1822C110.658 58.6703 109.99 58.3717 109.285 58.3516V58.3516Z" fill="#FFF7E8"/>
<path d="M117.346 60.6706C117.539 61.4695 117.409 62.3127 116.982 63.0152C116.556 63.7177 115.869 64.2221 115.071 64.4177C114.669 64.4806 114.258 64.4633 113.862 64.3667C113.466 64.2702 113.093 64.0963 112.765 63.855C112.436 63.6138 112.159 63.3099 111.948 62.9609C111.737 62.6119 111.597 62.2246 111.536 61.8213C111.342 61.0224 111.473 60.1792 111.899 59.4767C112.326 58.7742 113.013 58.2698 113.81 58.0742C114.213 58.0113 114.624 58.0286 115.02 58.1252C115.415 58.2218 115.788 58.3957 116.117 58.6369C116.445 58.8782 116.723 59.182 116.934 59.531C117.145 59.88 117.285 60.2673 117.346 60.6706Z" fill="#E4C884"/>
<path d="M111.548 61.8214C111.66 62.3991 111.92 62.9379 112.302 63.3851C112.903 63.7735 113.632 63.915 114.335 63.7804C115.132 63.5848 115.819 63.0805 116.246 62.378C116.672 61.6755 116.803 60.8322 116.609 60.0334C116.497 59.4537 116.238 58.913 115.855 58.4637C115.251 58.0802 114.524 57.941 113.822 58.0743C113.025 58.2699 112.337 58.7743 111.911 59.4768C111.485 60.1792 111.354 61.0225 111.548 61.8214V61.8214Z" fill="#FFF7E8"/>
<path d="M107.381 59.7913C107.533 60.4171 107.433 61.0777 107.102 61.6299C106.771 62.1821 106.237 62.5816 105.614 62.7418C104.976 62.8368 104.326 62.6756 103.806 62.2932C103.286 61.9108 102.938 61.3382 102.838 60.7001C102.685 60.0742 102.784 59.413 103.115 58.8604C103.446 58.3077 103.982 57.9085 104.606 57.7496C105.244 57.653 105.894 57.8137 106.415 58.1964C106.935 58.5791 107.283 59.1525 107.381 59.7913V59.7913Z" fill="#E4C884"/>
<path d="M104.612 57.7614C104.061 57.8744 103.575 58.193 103.251 58.6525C103.104 59.0938 103.076 59.5657 103.168 60.0215C103.267 60.6591 103.614 61.2317 104.132 61.6142C104.651 61.9967 105.3 62.1582 105.938 62.0633C106.49 61.9505 106.977 61.6293 107.299 61.1663C107.445 60.727 107.474 60.2569 107.381 59.8032C107.283 59.1656 106.936 58.593 106.417 58.2105C105.898 57.828 105.249 57.6665 104.612 57.7614Z" fill="#FFF7E8"/>
<path d="M103.486 58.7882C103.612 59.3155 103.525 59.8714 103.244 60.3346C102.962 60.7978 102.509 61.1308 101.984 61.2607C101.718 61.3018 101.448 61.29 101.187 61.2262C100.927 61.1624 100.681 61.0478 100.465 60.8888C100.249 60.7299 100.066 60.5297 99.9272 60.2999C99.7883 60.07 99.6961 59.815 99.6558 59.5494C99.528 59.022 99.6146 58.4653 99.8964 58.0017C100.178 57.5381 100.632 57.2055 101.159 57.0769C101.694 56.9971 102.238 57.1323 102.674 57.4528C103.11 57.7733 103.402 58.2532 103.486 58.7882V58.7882Z" fill="#E4C884"/>
<path d="M101.159 57.0769C100.696 57.171 100.287 57.4392 100.016 57.8264C99.8942 58.1955 99.8698 58.5899 99.9449 58.9712C100.028 59.5072 100.319 59.9886 100.755 60.3104C101.191 60.6321 101.737 60.768 102.272 60.6883C102.735 60.5943 103.145 60.326 103.416 59.9389C103.542 59.5585 103.567 59.1515 103.486 58.7587C103.395 58.2291 103.101 57.7565 102.665 57.4421C102.23 57.1277 101.689 56.9966 101.159 57.0769Z" fill="#FFF7E8"/>
<path d="M100.116 57.0357C100.174 57.264 100.185 57.5015 100.15 57.7344C100.115 57.9673 100.034 58.1909 99.9119 58.392C99.7895 58.5932 99.6284 58.7678 99.4377 58.9058C99.2471 59.0437 99.031 59.1422 98.8018 59.1954C98.5698 59.234 98.3324 59.2257 98.1035 59.1712C97.8747 59.1167 97.659 59.017 97.4691 58.878C97.2792 58.7389 97.1188 58.5634 96.9975 58.3615C96.8762 58.1596 96.7967 57.9356 96.763 57.7025C96.7043 57.4738 96.6919 57.2356 96.7265 57.002C96.761 56.7684 96.8417 56.5441 96.9641 56.3423C97.0866 56.1405 97.2484 55.9653 97.4394 55.8269C97.6305 55.6886 97.8473 55.59 98.0771 55.5368C98.3095 55.4983 98.5473 55.5067 98.7765 55.5616C99.0057 55.6164 99.2216 55.7167 99.4115 55.8563C99.6015 55.996 99.7616 56.1722 99.8825 56.3748C100.003 56.5773 100.083 56.802 100.116 57.0357V57.0357Z" fill="#FFF7E8"/>
<path d="M98.0769 55.5368C97.6726 55.6214 97.3149 55.8552 97.075 56.1918C96.9724 56.5161 96.9521 56.8609 97.016 57.195C97.049 57.4287 97.1284 57.6533 97.2494 57.8558C97.3703 58.0584 97.5304 58.2347 97.7204 58.3743C97.9103 58.514 98.1262 58.6141 98.3554 58.669C98.5846 58.7239 98.8224 58.7323 99.0548 58.6938C99.46 58.6114 99.8185 58.3771 100.057 58.0388C100.16 57.7145 100.18 57.3697 100.116 57.0357C100.083 56.802 100.003 56.5773 99.8824 56.3748C99.7614 56.1722 99.6013 55.996 99.4113 55.8563C99.2214 55.7167 99.0055 55.6164 98.7763 55.5616C98.5471 55.5067 98.3093 55.4983 98.0769 55.5368V55.5368Z" fill="#FFF7E8"/>
<path d="M121.117 60.0629C121.261 60.6583 121.163 61.2866 120.845 61.8099C120.527 62.3332 120.014 62.7087 119.42 62.854C118.816 62.9454 118.201 62.7928 117.709 62.4299C117.217 62.0669 116.89 61.5233 116.798 60.9185C116.654 60.3238 116.751 59.6963 117.068 59.1732C117.385 58.6501 117.896 58.274 118.489 58.1273C119.094 58.0359 119.71 58.1882 120.203 58.551C120.695 58.9139 121.024 59.4576 121.117 60.0629Z" fill="#E4C884"/>
<path d="M116.798 60.9184C116.88 61.3535 117.073 61.76 117.358 62.0986C117.807 62.3846 118.349 62.488 118.872 62.3878C119.467 62.2424 119.979 61.8669 120.297 61.3436C120.615 60.8204 120.713 60.1921 120.569 59.5966C120.481 59.1578 120.278 58.7504 119.98 58.4164C119.531 58.1299 118.989 58.0265 118.465 58.1273C117.877 58.2791 117.371 58.6572 117.059 59.1798C116.747 59.7023 116.653 60.327 116.798 60.9184V60.9184Z" fill="#FFF7E8"/>
<path d="M123.551 57.962C123.614 58.21 123.628 58.4682 123.591 58.7215C123.554 58.9749 123.467 59.2184 123.336 59.4379C123.204 59.6574 123.031 59.8487 122.825 60.0005C122.619 60.1523 122.385 60.2617 122.137 60.3224C121.631 60.3987 121.116 60.2714 120.704 59.9684C120.292 59.6654 120.017 59.2113 119.939 58.7056C119.82 58.2095 119.902 57.6865 120.167 57.2508C120.432 56.8151 120.858 56.5022 121.353 56.3806C121.853 56.302 122.364 56.4239 122.776 56.7198C123.187 57.0158 123.466 57.462 123.551 57.962V57.962Z" fill="#E4C884"/>
<path d="M119.939 58.6761C120.009 59.0378 120.171 59.3751 120.41 59.6556C120.787 59.8931 121.239 59.9796 121.677 59.8976C122.172 59.7746 122.599 59.4606 122.864 59.0239C123.129 58.5873 123.21 58.0635 123.091 57.5667C123.021 57.2069 122.858 56.8714 122.62 56.593C122.245 56.351 121.791 56.2642 121.353 56.3511C120.858 56.4727 120.432 56.7855 120.167 57.2212C119.902 57.6569 119.82 58.1801 119.939 58.6761V58.6761Z" fill="#FFF7E8"/>
<path fill-rule="evenodd" clip-rule="evenodd" d="M115.979 28.2567C114.559 22.9458 116.527 16.4548 123.963 15.7703C131.4 15.0858 138.17 27.8554 125.383 32.3814C120.899 33.3905 115.979 28.2567 115.979 28.2567Z" fill="#B56D52"/>
<path fill-rule="evenodd" clip-rule="evenodd" d="M120.516 27.5781C119.862 23.7248 123.386 20.3258 126.338 21.1579C129.29 21.9899 127.57 28.18 123.062 29.2363C118.554 30.2926 120.516 27.5781 120.516 27.5781Z" fill="#D18367"/>
<path fill-rule="evenodd" clip-rule="evenodd" d="M90.6876 39.4037C89.2734 45.7 90.6875 55.6135 101.53 57.8205C112.373 60.0274 122.119 59.5495 127.304 55.9322C132.49 52.3149 131.235 48.379 129.349 46.0186C127.464 43.6582 128.406 41.4513 128.247 37.3619C128.088 33.2726 122.591 26.0321 115.201 24.6158C107.812 23.1996 93.0447 25.7135 90.6876 39.4037Z" fill="#B56D52"/>
<path fill-rule="evenodd" clip-rule="evenodd" d="M101.271 30.4873C100.746 25.979 96.6331 19.9423 88.5661 21.9368C80.499 23.9313 79.9215 40.1943 93.0975 41.2978C98.23 40.0586 101.271 30.4873 101.271 30.4873Z" fill="#B56D52"/>
<path fill-rule="evenodd" clip-rule="evenodd" d="M97.2871 33.8213C95.8906 36.0637 91.8071 36.8308 89.509 34.3701C86.05 30.6702 89.5855 26.4215 93.5159 27.1296C98.0827 27.9557 98.0767 32.5585 97.2871 33.8213Z" fill="#D18367"/>
<path d="M120.339 44.8325C117.328 44.508 111.913 46.4258 112.98 51.2823C113.757 54.8229 119.185 56.9589 122.408 54.9231C126.839 52.1497 126.839 45.5288 120.339 44.8325Z" fill="#FFF7E8"/>
<path d="M109.479 46.2428C110.576 46.2428 111.465 45.3525 111.465 44.2542C111.465 43.1559 110.576 42.2656 109.479 42.2656C108.382 42.2656 107.493 43.1559 107.493 44.2542C107.493 45.3525 108.382 46.2428 109.479 46.2428Z" fill="#3E3A39"/>
<path d="M124.01 43.5756C125.107 43.5756 125.996 42.6852 125.996 41.5869C125.996 40.4887 125.107 39.5983 124.01 39.5983C122.914 39.5983 122.025 40.4887 122.025 41.5869C122.025 42.6852 122.914 43.5756 124.01 43.5756Z" fill="#3E3A39"/>
<path fill-rule="evenodd" clip-rule="evenodd" d="M117.57 48.91C118.236 50.3086 119.426 51.0934 119.88 49.3998C120.658 51.3117 121.553 50.993 121.96 49.028C122.879 50.5859 123.68 48.9985 123.345 47.6354C122.938 46.0185 120.929 45.8652 118.147 46.945C117.98 47.0352 117.832 47.1579 117.712 47.3058C117.592 47.4537 117.502 47.624 117.449 47.8068C117.395 47.9896 117.378 48.1812 117.399 48.3706C117.419 48.56 117.478 48.7433 117.57 48.91V48.91Z" fill="#3E3A39"/>
<path d="M120.28 53.2767C120.209 53.2742 120.139 53.2518 120.08 53.2118C120.006 53.1575 119.957 53.0762 119.942 52.9856C119.928 52.895 119.95 52.8024 120.003 52.7279C120.465 51.9103 120.67 50.9729 120.593 50.0371C120.592 49.9917 120.6 49.9465 120.617 49.9043C120.634 49.8621 120.659 49.8237 120.691 49.7913C120.722 49.7588 120.76 49.7331 120.802 49.7155C120.844 49.698 120.889 49.6889 120.935 49.6889C120.98 49.6881 121.026 49.6966 121.068 49.7138C121.111 49.731 121.15 49.7566 121.182 49.7891C121.214 49.8216 121.24 49.8603 121.257 49.9029C121.275 49.9455 121.283 49.9912 121.282 50.0371C121.374 51.1156 121.129 52.196 120.581 53.1292C120.548 53.1775 120.503 53.2164 120.45 53.2423C120.397 53.2681 120.339 53.28 120.28 53.2767V53.2767Z" fill="#3E3A39"/>
<path d="M120.434 53.3358H120.327C119.685 53.3358 118.288 52.6277 117.469 51.9963C117.398 51.9383 117.352 51.8548 117.341 51.7634C117.33 51.6719 117.355 51.5798 117.411 51.5065C117.469 51.4349 117.552 51.3886 117.643 51.3776C117.735 51.3666 117.826 51.3917 117.9 51.4475C118.618 52.0131 119.45 52.4158 120.339 52.6277C121.418 52.6749 122.231 51.7071 122.885 50.7512C122.938 50.6766 123.018 50.6257 123.109 50.6092C123.199 50.5927 123.292 50.6118 123.368 50.6626C123.444 50.7151 123.496 50.7956 123.512 50.8863C123.529 50.977 123.509 51.0706 123.456 51.1465C122.755 52.1792 121.783 53.3358 120.434 53.3358Z" fill="#3E3A39"/>
<path d="M126.438 32.8772C126.387 32.8763 126.336 32.863 126.291 32.8383C126.246 32.8137 126.208 32.7784 126.179 32.7355C121.936 26.3566 114.889 24.8283 114.588 24.7634C114.548 24.7549 114.51 24.7386 114.476 24.7154C114.442 24.6921 114.413 24.6623 114.39 24.6278C114.368 24.5932 114.352 24.5546 114.345 24.5141C114.337 24.4735 114.338 24.4319 114.347 24.3916C114.354 24.3509 114.37 24.3122 114.393 24.2777C114.416 24.2433 114.446 24.2138 114.481 24.1912C114.515 24.1686 114.554 24.1532 114.595 24.1461C114.636 24.139 114.677 24.1402 114.718 24.1497C115.024 24.2146 122.314 25.7961 126.704 32.411C126.749 32.481 126.765 32.5658 126.748 32.6474C126.732 32.729 126.684 32.8009 126.615 32.8477C126.56 32.8746 126.499 32.8848 126.438 32.8772Z" fill="white"/>
<path d="M92.579 41.2389C91.364 41.2795 90.1512 41.1057 88.9962 40.7255C88.9576 40.71 88.9225 40.6869 88.8929 40.6576C88.8634 40.6283 88.8401 40.5934 88.8242 40.5549C88.8083 40.5164 88.8001 40.4752 88.8003 40.4335C88.8005 40.3919 88.809 40.3507 88.8253 40.3124C88.8414 40.2743 88.8649 40.2397 88.8944 40.2107C88.9239 40.1817 88.9587 40.1589 88.9971 40.1435C89.0355 40.1282 89.0766 40.1206 89.1179 40.1212C89.1593 40.1218 89.2 40.1307 89.2379 40.1472C90.6463 40.7373 93.3157 40.5957 93.3628 40.5957C93.4043 40.5925 93.4459 40.5976 93.4854 40.6107C93.5249 40.6239 93.5614 40.6449 93.5927 40.6724C93.624 40.6999 93.6496 40.7334 93.6678 40.7709C93.686 40.8084 93.6963 40.8491 93.6986 40.8907C93.7018 40.9743 93.6722 41.0557 93.616 41.1176C93.5598 41.1794 93.4816 41.2166 93.3982 41.2211C93.3393 41.2388 93.0328 41.2389 92.579 41.2389Z" fill="white"/>
<path d="M106.203 42.419C106.732 42.7364 107.231 43.1018 107.694 43.5107C108.118 43.9119 108.76 43.2747 108.336 42.8675C107.817 42.4064 107.256 41.9936 106.662 41.6342C106.167 41.3215 105.714 42.1063 106.203 42.419Z" fill="#3E3A39"/>
<path d="M125.413 40.3714C125.548 40.067 125.733 39.7877 125.961 39.5452C126.179 39.2679 126.409 38.9905 126.621 38.7073C126.975 38.2411 126.191 37.7926 125.837 38.2529C125.304 38.802 124.866 39.4362 124.541 40.1294C124.358 40.7195 125.236 40.9261 125.413 40.3714Z" fill="#3E3A39"/>
</g>
<path d="M137.316 59.5258L142.932 64.7128L142.879 66.7132L134.977 66.5125L137.316 59.5258Z" fill="#3E3A39"/>
<path d="M142.885 67.0083L134.977 66.8076C134.93 66.8049 134.885 66.7919 134.844 66.7694C134.804 66.747 134.768 66.7157 134.741 66.6778C134.715 66.6404 134.699 66.5974 134.692 66.5522C134.686 66.5071 134.691 66.4612 134.706 66.4182L137.063 59.4255C137.078 59.3791 137.105 59.3375 137.142 59.3045C137.178 59.2715 137.221 59.2481 137.269 59.2367C137.316 59.2248 137.365 59.2245 137.413 59.2358C137.46 59.2471 137.503 59.2697 137.54 59.3016L143.156 64.4945C143.187 64.5229 143.212 64.5575 143.229 64.5961C143.246 64.6347 143.256 64.6764 143.256 64.7187L143.203 66.7191C143.203 66.7583 143.195 66.7971 143.178 66.8327C143.162 66.8684 143.138 66.9001 143.109 66.9257C143.08 66.9549 143.044 66.9775 143.006 66.9918C142.967 67.0061 142.926 67.0117 142.885 67.0083ZM135.383 66.2234L142.596 66.4123L142.637 64.8367L137.452 60.0451L135.383 66.2234Z" fill="#3E3A39"/>
<path d="M135.412 57.1946L124.632 56.9175C123.529 56.8892 122.612 57.7615 122.584 58.866L122.449 64.1279C122.421 65.2324 123.292 66.1506 124.395 66.1789L135.175 66.456C136.277 66.4843 137.195 65.612 137.223 64.5076L137.358 59.2456C137.386 58.1412 136.515 57.2229 135.412 57.1946Z" fill="white"/>
<path d="M135.195 66.8607H135.136L124.352 66.5833C124.051 66.5783 123.755 66.513 123.479 66.3914C123.204 66.2698 122.956 66.0943 122.749 65.8753C122.332 65.4325 122.106 64.8433 122.119 64.2348L122.254 58.9653C122.276 58.358 122.535 57.7835 122.976 57.3661C123.417 56.9488 124.005 56.7219 124.611 56.7347L135.395 57.012C135.696 57.0197 135.993 57.0869 136.268 57.2098C136.544 57.3328 136.792 57.509 136.999 57.7283C137.206 57.9477 137.368 58.2059 137.475 58.4881C137.582 58.7702 137.632 59.0707 137.622 59.3724L137.487 64.642C137.481 64.9437 137.415 65.2412 137.293 65.5169C137.171 65.7926 136.994 66.0409 136.774 66.247C136.347 66.6492 135.781 66.8693 135.195 66.8607V66.8607ZM124.541 57.3248C124.098 57.3262 123.673 57.5 123.357 57.8095C123.04 58.119 122.856 58.5399 122.844 58.9829L122.708 64.2525C122.702 64.4759 122.74 64.6982 122.819 64.9069C122.899 65.1155 123.02 65.3063 123.174 65.4681C123.482 65.7917 123.906 65.9804 124.352 65.9933L135.136 66.2707C135.36 66.2778 135.583 66.2402 135.792 66.1602C136.002 66.0801 136.193 65.9592 136.356 65.8045C136.678 65.4948 136.866 65.0712 136.88 64.6243L137.016 59.3606C137.024 59.1352 136.988 58.9103 136.909 58.6989C136.83 58.4875 136.711 58.2939 136.557 58.1293C136.403 57.9646 136.217 57.8322 136.012 57.7397C135.807 57.6472 135.585 57.5964 135.36 57.5903L124.576 57.313L124.541 57.3248Z" fill="#3E3A39"/>
</g>
<defs>
<clipPath id="clip0_2_4410">
<rect width="259" height="112" fill="white" transform="translate(20.5 14)"/>
</clipPath>
</defs>
</svg>
