<svg width="967" height="290" viewBox="0 0 967 290" fill="none" xmlns="http://www.w3.org/2000/svg">
<g id="pic_crash">
<g id="Frame" clip-path="url(#clip0_57_1561)">
<g id="Group">
<path id="Vector" d="M553.24 121.43L528.84 135.76L552.96 150.56L525.32 156.66L543.7 178.19L515.53 175.44L526.34 201.6L500.4 190.28L502.61 218.5L481.43 199.72L474.81 227.24L460.48 202.84L445.68 226.96L439.58 199.32L418.05 217.7L420.8 189.53L394.64 200.34L405.96 174.4L377.74 176.61L396.52 155.43L369 148.81L393.4 134.48L369.28 119.68L396.92 113.58L378.54 92.05L406.71 94.8L395.89 68.64L421.84 79.96L419.63 51.74L440.81 70.52L447.43 43L461.76 67.4L476.56 43.28L482.66 70.92L504.19 52.54L501.44 80.71L527.6 69.89L516.28 95.84L544.5 93.63L525.72 114.81L553.24 121.43Z" fill="#F7D42C"/>
<path id="Vector_2" d="M532.22 124.55L513.38 135.62L532 147.04L510.67 151.74L524.85 168.36L503.11 166.24L511.46 186.43L491.44 177.69L493.14 199.47L476.8 184.98L471.69 206.22L460.62 187.38L449.2 206L444.5 184.67L427.88 198.85L430 177.11L409.81 185.46L418.54 165.44L396.77 167.14L411.26 150.8L390.02 145.69L408.86 134.62L390.24 123.2L411.57 118.5L397.39 101.88L419.13 104L410.78 83.81L430.8 92.54L429.1 70.77L445.44 85.26L450.55 64.02L461.62 82.86L473.04 64.24L477.74 85.57L494.36 71.39L492.24 93.13L512.43 84.78L503.69 104.8L525.47 103.1L510.98 119.44L532.22 124.55Z" fill="#FADF9D"/>
</g>
<g id="Group_2">
<path id="Vector_3" d="M475.22 134.19L469.95 143.29L480.01 149.52L489.59 141.38L475.22 134.19Z" fill="white" stroke="#3E3A39" stroke-linecap="round" stroke-linejoin="round"/>
<path id="Vector_4" d="M453.18 146.65L449.35 151.92L453.66 154.31L457.01 150.96L453.18 146.65Z" fill="#F6AF58" stroke="#3E3A39" stroke-linecap="round" stroke-linejoin="round"/>
<path id="Vector_5" d="M478.57 115.5L460.84 118.38L461.8 124.61L480.01 120.77L478.57 115.5Z" fill="#F6AF58" stroke="#3E3A39" stroke-linecap="round" stroke-linejoin="round"/>
<path id="Vector_6" d="M520.39 133.84L507.93 126.65L506.5 130.48L523.74 141.5L520.39 133.84Z" fill="white" stroke="#3E3A39" stroke-linecap="round" stroke-linejoin="round"/>
<path id="Vector_7" d="M437.37 121.73L427.79 130.36L436.41 136.11L445.51 119.34L437.37 121.73Z" fill="white" stroke="#3E3A39" stroke-linecap="round" stroke-linejoin="round"/>
<path id="Vector_8" d="M426.66 159.22L422.83 164.02L430.02 167.85L431.93 163.06L426.66 159.22Z" fill="#3E3A39" stroke="#3E3A39" stroke-linecap="round" stroke-linejoin="round"/>
<path id="Vector_9" d="M505.78 108.81L501.95 113.6L509.13 117.44L511.05 112.64L505.78 108.81Z" fill="#3E3A39" stroke="#3E3A39" stroke-linecap="round" stroke-linejoin="round"/>
<path id="Vector_10" d="M417.32 126.65L413.49 131.44L420.68 135.28L422.59 130.48L417.32 126.65Z" fill="#3E3A39" stroke="#3E3A39" stroke-linecap="round" stroke-linejoin="round"/>
<path id="Vector_11" d="M407.5 154.43L408.94 161.14L414.69 160.66L407.5 154.43Z" fill="#3E3A39" stroke="#3E3A39" stroke-linecap="round" stroke-linejoin="round"/>
<path id="Vector_12" d="M491.82 160.16L498.55 158.84L498.17 153.08L491.82 160.16Z" fill="#3E3A39" stroke="#3E3A39" stroke-linecap="round" stroke-linejoin="round"/>
<path id="Vector_13" d="M496.74 92.23L503.47 90.9L503.09 85.15L496.74 92.23Z" fill="#3E3A39" stroke="#3E3A39" stroke-linecap="round" stroke-linejoin="round"/>
<path id="Vector_14" d="M428.3 100.17L429.74 106.88L435.49 106.4L428.3 100.17Z" fill="#3E3A39" stroke="#3E3A39" stroke-linecap="round" stroke-linejoin="round"/>
<path id="Vector_15" d="M472.62 91.48L474.06 98.19L479.81 97.71L472.62 91.48Z" fill="#3E3A39" stroke="#3E3A39" stroke-linecap="round" stroke-linejoin="round"/>
<path id="Vector_16" d="M400.79 152.52L395.52 155.87C395.52 155.87 401.75 159.7 402.71 158.27C403.67 156.83 400.79 152.52 400.79 152.52Z" fill="#3E3A39" stroke="#3E3A39" stroke-linecap="round" stroke-linejoin="round"/>
<path id="Vector_17" d="M411.05 87.23L408.18 91.06L413.43 92.9L414.89 88.18L411.06 87.22L411.05 87.23Z" fill="#3E3A39" stroke="#3E3A39" stroke-linecap="round" stroke-linejoin="round"/>
</g>
</g>
</g>
<defs>
<clipPath id="clip0_57_1561">
<rect width="184.24" height="184.24" fill="white" transform="translate(369 43)"/>
</clipPath>
</defs>
</svg>
