<svg width="300" height="140" viewBox="0 0 300 140" fill="none" xmlns="http://www.w3.org/2000/svg">
<g clip-path="url(#clip0_2_4411)">
<path d="M15.3604 73.4478L15.5711 73.1941C17.1686 71.1896 19.4226 69.8313 21.9242 69.3657C27.7877 68.4375 42.8394 66.679 69.1741 65.1511L197.922 64.6149C198.286 64.6134 198.648 64.6847 198.986 64.8247C199.323 64.9647 199.63 65.1706 199.889 65.4308C200.148 65.691 200.354 66.0003 200.495 66.3411C200.636 66.6819 200.71 67.0475 200.711 67.417L200.739 73.8514L199.681 89.1072V96.245C199.73 97.7858 199.225 99.2923 198.257 100.483L196.982 101.936C196.423 102.6 195.662 103.058 194.819 103.239L187.902 104.513L166.025 104.599V99.7505C166.025 94.4519 164.596 89.4589 162.04 85.6824C159.382 81.7272 155.812 79.5594 151.975 79.5767C148.138 79.594 144.575 81.7907 141.962 85.7632C139.457 89.5627 138.091 94.5672 138.113 99.8658V104.72L57.0201 105.061V100.206C57.0201 94.9074 56.4509 97.9863 53.9005 94.2098C51.242 90.2546 50.4848 96.3604 46.6479 96.3719C42.811 96.3834 39.7084 97.0926 37.0841 101.065C34.5792 104.865 29.1142 95.0285 29.1142 100.321V105.176H27.2584L20.558 104.461C19.9033 104.409 19.3852 103.637 19.3852 102.697V98.4244L16.6983 95.5416C15.98 94.7721 15.4514 93.8417 15.1555 92.826C14.7111 91.2943 14.485 89.7062 14.4838 88.1097L14.4326 76.1923C14.412 75.1952 14.7406 74.2229 15.3604 73.4478Z" fill="#95C3ED"/>
<path d="M20.3929 84.4198C21.04 84.4289 21.6849 84.3395 22.3058 84.1546C22.7839 83.9874 23.006 83.774 22.875 83.578L20.1993 78.0488C19.6585 76.9303 17.5864 75.9789 14.6603 75.362C14.5052 75.6172 14.4207 75.9099 14.4155 76.2095L14.4497 84.4602L20.3929 84.4198Z" fill="#F6AF58"/>
<path d="M14.4952 84.7484C14.4209 84.7488 14.3495 84.7199 14.296 84.6677C14.2685 84.6408 14.2468 84.6086 14.2321 84.5729C14.2174 84.5371 14.21 84.4988 14.2106 84.4601L14.1765 76.2153C14.1798 75.8601 14.2803 75.5128 14.4668 75.212C14.4968 75.1604 14.542 75.1198 14.5962 75.0959C14.6505 75.0721 14.7109 75.0663 14.7686 75.0794C17.8939 75.7367 19.9318 76.7457 20.5011 77.9219L23.1767 83.4511C23.2077 83.5189 23.2239 83.5926 23.2239 83.6673C23.2239 83.742 23.2077 83.8158 23.1767 83.8835C23.0946 84.0291 22.9833 84.1556 22.8499 84.2549C22.7166 84.3542 22.5642 84.4241 22.4025 84.4601C21.7526 84.6566 21.0769 84.7519 20.3987 84.7426H14.4782L14.4952 84.7484ZM14.8596 75.6849C14.7873 75.8503 14.7486 76.0286 14.7458 76.2095L14.7798 84.1718H20.4101C21.0279 84.1809 21.6437 84.0974 22.2374 83.9239C22.6074 83.797 22.6644 83.6818 22.6644 83.6818L19.9888 78.1987C19.5163 77.1839 17.6548 76.2845 14.8596 75.6676V75.6849Z" fill="#3E3A39"/>
<path d="M229.215 87.3429H223.368L223.283 87.4697C222.784 87.3915 222.279 87.351 221.774 87.3487C214.647 87.3487 208.903 94.9304 208.937 104.219C208.971 113.507 214.784 121.008 221.911 120.979C222.416 120.975 222.92 120.933 223.419 120.853L223.505 120.974H229.351C236.479 120.974 242.223 113.392 242.189 104.103C242.154 94.8151 236.342 87.3083 229.215 87.3429Z" fill="#3E3A39"/>
<path d="M221.871 121.291C214.618 121.291 208.692 113.657 208.652 104.242C208.564 99.8931 209.897 95.6364 212.444 92.1342C214.926 88.8766 218.239 87.0777 221.774 87.0604C222.235 87.0612 222.695 87.0939 223.152 87.1584C223.178 87.126 223.211 87.0997 223.248 87.0818C223.286 87.0638 223.327 87.0546 223.368 87.0546H229.215C232.756 87.0546 236.08 88.7843 238.585 92.0477C241.158 95.5224 242.525 99.7607 242.473 104.103C242.513 113.536 236.627 121.233 229.351 121.262H223.505C223.464 121.262 223.424 121.254 223.386 121.237C223.349 121.22 223.316 121.195 223.289 121.164C222.832 121.231 222.372 121.265 221.911 121.268L221.871 121.291ZM221.808 87.66H221.774C218.421 87.66 215.267 89.3897 212.894 92.5089C210.427 95.9034 209.136 100.028 209.222 104.242C209.262 113.334 214.914 120.714 221.871 120.714H221.911C222.403 120.711 222.894 120.669 223.38 120.587C223.432 120.578 223.486 120.584 223.535 120.606C223.583 120.627 223.624 120.663 223.653 120.708H229.346C236.302 120.708 241.932 113.242 241.898 104.127C241.951 99.9128 240.626 95.7996 238.13 92.4281C235.733 89.332 232.545 87.6312 229.209 87.6543H223.516C223.486 87.699 223.443 87.7341 223.394 87.7555C223.345 87.777 223.29 87.7839 223.237 87.7753C222.764 87.7033 222.287 87.6648 221.808 87.66V87.66Z" fill="#3E3A39"/>
<path d="M109.485 87.8388L103.638 87.8676L103.553 87.9887C103.053 87.9124 102.549 87.8739 102.044 87.8734C94.9168 87.8734 89.1728 95.4552 89.2069 104.744C89.2411 114.032 95.0534 121.533 102.181 121.504C102.686 121.501 103.191 121.456 103.689 121.372L103.775 121.498H109.621C116.749 121.498 122.493 113.911 122.458 104.628C122.424 95.3456 116.601 87.8099 109.485 87.8388Z" fill="#3E3A39"/>
<path d="M102.141 121.792C98.6172 121.792 95.3096 120.017 92.8105 116.794C90.2401 113.32 88.8734 109.084 88.9223 104.744C88.8881 95.311 94.7688 87.6139 102.016 87.5851C102.476 87.584 102.937 87.6147 103.393 87.6773C103.42 87.6459 103.453 87.6208 103.491 87.6039C103.528 87.587 103.569 87.5786 103.61 87.5793L109.456 87.5505H109.496C113.02 87.5505 116.327 89.3263 118.826 92.5493C121.397 96.023 122.763 100.259 122.715 104.599C122.749 114.032 116.868 121.729 109.593 121.764H103.746C103.705 121.763 103.664 121.753 103.627 121.735C103.59 121.717 103.557 121.692 103.53 121.66C103.074 121.731 102.614 121.768 102.152 121.769L102.141 121.792ZM102.078 88.1617H102.044C95.0876 88.1617 89.4574 95.6281 89.5201 104.744C89.4553 108.96 90.7705 113.079 93.2602 116.459C95.6455 119.538 98.7994 121.233 102.141 121.233H102.181C102.673 121.227 103.164 121.185 103.65 121.106C103.702 121.098 103.755 121.104 103.804 121.126C103.852 121.147 103.894 121.183 103.923 121.227H109.616C116.572 121.227 122.202 113.732 122.168 104.646C122.222 100.432 120.897 96.3182 118.399 92.9471C116.014 89.8625 112.86 88.1674 109.519 88.1674H109.479H103.786C103.755 88.2118 103.713 88.247 103.664 88.2693C103.615 88.2916 103.561 88.3002 103.507 88.2943C103.035 88.2136 102.557 88.1693 102.078 88.1617Z" fill="#3E3A39"/>
<path d="M284.839 87.6312H282.038L279.448 69.7981C279.296 68.7484 278.775 67.7894 277.982 67.0968C277.188 66.4042 276.174 66.0246 275.127 66.0275L259.404 66.0967L233.786 38.7677C232.413 37.3033 230.759 36.1388 228.925 35.3456C227.092 34.5524 225.117 34.1473 223.124 34.1552L155.454 34.4377C153.994 34.4433 152.55 34.7481 151.21 35.3337C149.87 35.9193 148.66 36.7736 147.655 37.8452L31.6305 88.006L31.7158 108.987L205.977 108.261L249.709 107.765L282.129 105.458V105.309H284.799C285.081 105.306 285.35 105.19 285.548 104.987C285.746 104.784 285.858 104.51 285.858 104.225L285.795 88.5249C285.782 88.2792 285.675 88.0483 285.496 87.8815C285.317 87.7146 285.082 87.6248 284.839 87.6312V87.6312Z" fill="#579DC6"/>
<path d="M235.403 104.928V107.943L249.674 107.782L282.095 105.476V105.326H284.765C284.962 105.323 285.154 105.264 285.32 105.156C285.486 105.048 285.619 104.895 285.704 104.715L235.403 104.928Z" fill="#3E3A39"/>
<path d="M235.414 108.22C235.377 108.22 235.34 108.212 235.306 108.197C235.272 108.183 235.241 108.161 235.215 108.134C235.162 108.08 235.131 108.008 235.13 107.932V104.922C235.13 104.845 235.159 104.771 235.212 104.716C235.266 104.661 235.338 104.63 235.414 104.628L285.727 104.421C285.775 104.42 285.823 104.432 285.866 104.455C285.909 104.479 285.945 104.512 285.972 104.553C285.995 104.596 286.008 104.645 286.008 104.695C286.008 104.744 285.995 104.793 285.972 104.836C285.863 105.065 285.694 105.258 285.483 105.395C285.271 105.531 285.027 105.605 284.776 105.608H282.357C282.335 105.652 282.302 105.689 282.263 105.716C282.223 105.743 282.177 105.76 282.129 105.764L249.709 108.07L235.42 108.232L235.414 108.22ZM235.687 105.205V107.638L249.675 107.482L281.839 105.211C281.861 105.161 281.897 105.119 281.943 105.089C281.988 105.06 282.041 105.044 282.095 105.043H284.765C284.831 105.052 284.898 105.052 284.964 105.043L235.687 105.205Z" fill="#3E3A39"/>
<path d="M249.686 107.77C249.968 107.761 250.235 107.637 250.428 107.428C250.621 107.219 250.723 106.941 250.713 106.655C250.704 106.369 250.582 106.099 250.375 105.903C250.169 105.708 249.894 105.604 249.612 105.614L233.211 105.683L172.299 34.3512L155.454 34.4204C153.994 34.4259 152.55 34.7307 151.21 35.3163C149.87 35.9019 148.66 36.7563 147.655 37.8279L31.6305 87.9886L31.7158 108.97L205.977 108.243L249.686 107.77Z" fill="#3E3A39"/>
<path d="M31.6932 109.281C31.6177 109.281 31.5451 109.251 31.4918 109.197C31.4384 109.143 31.4085 109.069 31.4085 108.993L31.323 88.0118C31.3221 87.9554 31.3379 87.8999 31.3683 87.8527C31.3988 87.8054 31.4425 87.7684 31.4938 87.7465L147.467 37.5857C148.5 36.5002 149.738 35.6349 151.107 35.0408C152.475 34.4467 153.948 34.1358 155.437 34.1264L172.281 34.0572C172.322 34.0576 172.363 34.0665 172.4 34.0834C172.437 34.1002 172.47 34.1247 172.498 34.1552L233.348 105.389L249.612 105.32C249.787 105.317 249.961 105.349 250.123 105.415C250.286 105.481 250.434 105.579 250.559 105.704C250.683 105.829 250.782 105.977 250.849 106.141C250.916 106.305 250.95 106.48 250.95 106.658C250.961 106.834 250.938 107.011 250.881 107.179C250.824 107.346 250.734 107.5 250.617 107.631C250.501 107.763 250.359 107.87 250.201 107.945C250.043 108.02 249.872 108.063 249.697 108.07V108.07L205.965 108.566L31.6988 109.293L31.6932 109.281ZM31.8923 88.202L31.9721 108.705L205.954 107.978L249.675 107.482C249.775 107.478 249.874 107.453 249.965 107.409C250.056 107.364 250.137 107.302 250.203 107.224C250.269 107.147 250.319 107.057 250.35 106.96C250.38 106.862 250.391 106.759 250.38 106.658C250.382 106.555 250.363 106.454 250.324 106.359C250.286 106.264 250.228 106.179 250.156 106.108C250.083 106.036 249.997 105.981 249.903 105.944C249.808 105.908 249.707 105.892 249.606 105.897V105.897L233.205 105.966C233.165 105.966 233.124 105.957 233.087 105.94C233.05 105.923 233.016 105.898 232.989 105.868L172.139 34.6338L155.425 34.7029C154.004 34.7124 152.6 35.0112 151.295 35.5818C149.99 36.1523 148.812 36.9828 147.831 38.0239C147.807 38.0531 147.775 38.0751 147.74 38.0873L31.8923 88.202Z" fill="#3E3A39"/>
<path d="M58.7564 88.0521H52.9156L49.1015 93.7716C46.9672 97.0754 45.8607 100.952 45.925 104.899C45.8933 108.848 47.0316 112.716 49.1927 116.004L53.0524 121.689H58.893C66.0203 121.689 71.77 114.107 71.7302 104.819C71.6903 95.5301 65.8837 88.0233 58.7564 88.0521Z" fill="#3E3A39"/>
<path d="M53.0524 122C53.0054 122 52.9589 121.988 52.9173 121.966C52.8756 121.944 52.8399 121.912 52.8132 121.873L48.9592 116.188C46.768 112.852 45.6122 108.929 45.6404 104.922C45.5799 100.915 46.7039 96.982 48.8681 93.6274L52.6766 87.9137C52.7031 87.8756 52.7379 87.8444 52.7784 87.8223C52.8189 87.8003 52.8641 87.7882 52.91 87.7869H58.7564H58.802C66.0545 87.7869 71.9807 95.4263 72.0148 104.836C72.1099 109.186 70.7764 113.444 68.2235 116.943C65.7472 120.201 62.4339 122.006 58.8987 122.017H53.0524V122ZM53.0524 88.3634L49.3293 93.956C47.2294 97.2092 46.139 101.024 46.1983 104.911C46.166 108.806 47.2862 112.621 49.4146 115.865L53.189 121.429H58.8817C62.2405 121.429 65.3942 119.699 67.7624 116.58C70.229 113.188 71.5198 109.065 71.4342 104.853C71.4 95.7549 65.7414 88.375 58.7906 88.375H58.7507L53.0524 88.3634Z" fill="#3E3A39"/>
<path d="M51.4027 121.873C58.5302 121.843 64.277 114.288 64.2386 105C64.2002 95.7117 58.391 88.2065 51.2636 88.2368C44.1362 88.267 38.3894 95.8212 38.4278 105.11C38.4662 114.398 44.2753 121.903 51.4027 121.873Z" fill="#636363"/>
<path d="M51.4128 122.006C47.8946 122.006 44.5815 120.23 42.0881 117.007C39.5154 113.534 38.1484 109.298 38.1999 104.957C38.16 95.5243 44.0464 87.8273 51.2932 87.7927H51.3388C58.5914 87.7927 64.5175 95.4321 64.5517 104.847C64.6471 109.196 63.3156 113.454 60.7659 116.955C58.2839 120.218 54.9708 122.017 51.4356 122.035L51.4128 122.006ZM51.3615 88.3692H51.3217C44.3595 88.3692 38.7293 95.8645 38.7977 104.951C38.7441 109.165 40.0691 113.278 42.5662 116.649C44.9458 119.734 48.0996 121.429 51.4413 121.429H51.4811C54.8399 121.429 57.9936 119.699 60.3618 116.575C62.8319 113.184 64.1231 109.06 64.0336 104.847C63.9709 95.7492 58.3009 88.3692 51.3615 88.3692V88.3692Z" fill="#3E3A39"/>
<path d="M51.3887 118.471C57.073 118.447 61.6563 112.421 61.6256 105.011C61.595 97.6015 56.962 91.6143 51.2777 91.6385C45.5933 91.6626 41.0102 97.6888 41.0408 105.099C41.0715 112.508 45.7043 118.495 51.3887 118.471Z" fill="white"/>
<path d="M51.4071 118.604C48.5607 118.604 45.9251 117.18 43.9212 114.568C41.8628 111.786 40.7683 108.393 40.8073 104.916C40.7788 97.3578 45.4981 91.1944 51.3332 91.1655C54.1796 91.1655 56.8438 92.5781 58.8533 95.2014C60.9132 97.9831 62.0079 101.376 61.9672 104.853V104.853C61.9672 112.406 57.2764 118.575 51.4413 118.598L51.4071 118.604ZM51.3672 91.7709H51.3332C45.8169 91.7709 41.3481 97.7037 41.3766 104.94C41.3355 108.289 42.3882 111.558 44.371 114.239C46.2609 116.684 48.76 118.027 51.4071 118.027H51.4413C56.9633 118.027 61.4264 112.095 61.3979 104.859C61.439 101.509 60.3863 98.24 58.4035 95.5589C56.5135 93.1201 54.0144 91.7709 51.3672 91.7709Z" fill="#3E3A39"/>
<path d="M53.5647 104.893C53.5647 106.456 52.6026 107.73 51.4014 107.736C50.2003 107.742 49.221 106.473 49.2154 104.911C49.2097 103.348 50.1775 102.068 51.3786 102.068C52.5798 102.068 53.559 103.325 53.5647 104.893Z" fill="white"/>
<path d="M51.39 108.024C50.0408 108.024 48.9364 106.629 48.9307 104.911C48.925 103.193 50.018 101.786 51.3729 101.78C51.7187 101.789 52.0578 101.878 52.3645 102.04C52.6713 102.202 52.9377 102.432 53.1434 102.714C53.6075 103.341 53.8555 104.104 53.8493 104.888C53.8493 106.617 52.7563 108.018 51.4014 108.024H51.39ZM51.39 102.357C50.3482 102.357 49.5057 103.51 49.5114 104.911C49.5171 106.312 50.3653 107.448 51.4014 107.448C52.4432 107.448 53.2914 106.294 53.2857 104.893C53.2981 104.238 53.0982 103.596 52.7165 103.066C52.5648 102.85 52.3652 102.674 52.1338 102.55C51.9024 102.427 51.6457 102.361 51.3843 102.357H51.39Z" fill="#3E3A39"/>
<path d="M189.001 87.5102H183.154L179.346 93.2238C177.207 96.528 176.099 100.407 176.164 104.357C176.132 108.307 177.272 112.176 179.437 115.462L183.291 121.141H189.138C196.265 121.141 202.009 113.559 201.975 104.271C201.941 94.9823 196.128 87.4813 189.001 87.5102Z" fill="#3E3A39"/>
<path d="M183.291 121.452C183.246 121.452 183.201 121.441 183.16 121.42C183.12 121.399 183.085 121.368 183.058 121.331L179.198 115.646C177.008 112.31 175.853 108.387 175.879 104.38C175.819 100.374 176.943 96.44 179.107 93.0854L182.915 87.3718C182.942 87.3326 182.978 87.3005 183.02 87.2784C183.061 87.2564 183.107 87.2448 183.155 87.2449H189.001H189.041C192.565 87.2449 195.872 89.0149 198.371 92.2437C200.942 95.717 202.309 99.953 202.259 104.294C202.294 113.726 196.407 121.423 189.166 121.452H183.32H183.291ZM183.291 87.8214L179.562 93.4083C177.464 96.6623 176.374 100.477 176.431 104.363C176.401 108.259 177.523 112.074 179.654 115.318L183.422 120.876H189.115C196.071 120.876 201.702 113.409 201.639 104.294C201.687 100.081 200.362 95.9693 197.87 92.5954C195.485 89.5165 192.331 87.8214 188.99 87.8214H188.95H183.291Z" fill="#3E3A39"/>
<path d="M194.535 104.3C194.569 113.588 188.842 121.141 181.697 121.17C174.553 121.199 168.763 113.674 168.724 104.409C168.684 95.1438 174.416 87.5678 181.561 87.539C188.705 87.5101 194.495 95.017 194.535 104.3Z" fill="#636363"/>
<path d="M181.652 121.458C178.134 121.458 174.82 119.688 172.327 116.465C169.754 112.99 168.387 108.752 168.439 104.409C168.399 94.9824 174.285 87.2795 181.561 87.2507H181.6C188.853 87.2507 194.779 94.8901 194.819 104.3C194.911 108.649 193.578 112.907 191.028 116.407C188.546 119.665 185.233 121.47 181.697 121.481L181.652 121.458ZM181.6 87.8272H181.561C174.604 87.8561 168.974 95.3225 169.008 104.409C168.955 108.623 170.28 112.736 172.777 116.108C175.162 119.186 178.31 120.881 181.652 120.881H181.697C185.05 120.881 188.204 119.152 190.578 116.033C193.045 112.64 194.335 108.517 194.25 104.305C194.21 95.2073 188.54 87.8272 181.6 87.8272V87.8272Z" fill="#3E3A39"/>
<path d="M191.921 104.311C191.956 111.72 187.367 117.745 181.674 117.774C175.982 117.803 171.353 111.806 171.325 104.398C171.296 96.9888 175.879 90.9637 181.572 90.9407C187.265 90.9176 191.893 96.9024 191.921 104.311Z" fill="white"/>
<path d="M181.652 118.062C178.805 118.062 176.164 116.638 174.166 114.026C172.102 111.247 171.006 107.852 171.052 104.375C171.018 96.8216 175.737 90.6523 181.572 90.6293C187.407 90.6062 192.178 96.7351 192.206 104.288C192.24 111.847 187.515 118.01 181.686 118.039L181.652 118.062ZM181.606 91.2289H181.578C176.056 91.2289 171.587 97.1617 171.621 104.398C171.578 107.746 172.629 111.016 174.61 113.697C176.505 116.136 178.999 117.486 181.652 117.486H181.68C187.202 117.486 191.665 111.553 191.637 104.317C191.608 97.0925 187.111 91.2289 181.606 91.2289Z" fill="#3E3A39"/>
<path d="M183.804 104.351C183.804 105.92 182.841 107.188 181.64 107.194C180.439 107.2 179.46 105.937 179.454 104.369C179.449 102.801 180.416 101.532 181.618 101.526C182.819 101.521 183.775 102.783 183.804 104.351Z" fill="white"/>
<path d="M181.635 107.476C180.28 107.476 179.175 106.087 179.17 104.369C179.164 102.651 180.257 101.238 181.618 101.232C181.962 101.244 182.299 101.335 182.605 101.496C182.91 101.658 183.176 101.887 183.382 102.166C183.846 102.795 184.094 103.561 184.088 104.346C184.088 106.075 182.995 107.471 181.64 107.476H181.635ZM181.635 101.809C180.593 101.809 179.75 102.962 179.756 104.363C179.762 105.764 180.61 106.9 181.652 106.9C182.694 106.9 183.536 105.747 183.53 104.346C183.543 103.692 183.343 103.052 182.961 102.524C182.81 102.306 182.609 102.128 182.377 102.004C182.144 101.88 181.886 101.813 181.623 101.809H181.635Z" fill="#3E3A39"/>
<path d="M233.763 38.7504C233.553 38.5255 233.325 38.318 233.097 38.1104L180.382 38.3295L180.49 64.7129L257.815 64.39L233.763 38.7504Z" fill="#3E3A39"/>
<path d="M180.49 65.0012C180.415 65.0012 180.343 64.9708 180.289 64.9168C180.236 64.8627 180.206 64.7894 180.206 64.7129L180.098 38.3295C180.097 38.2917 180.105 38.2542 180.119 38.2194C180.134 38.1847 180.156 38.1535 180.183 38.1277C180.208 38.1 180.239 38.078 180.274 38.0631C180.308 38.0482 180.345 38.0408 180.382 38.0412L233.097 37.8221C233.168 37.8242 233.237 37.8506 233.291 37.8971L233.45 38.047C233.627 38.2084 233.797 38.3756 233.968 38.5486L258.02 64.1882C258.057 64.2298 258.082 64.2813 258.091 64.3364C258.1 64.3915 258.093 64.4482 258.071 64.4996C258.052 64.5523 258.017 64.5975 257.971 64.6295C257.925 64.6614 257.871 64.6784 257.815 64.6783L180.485 65.0012H180.49ZM180.667 38.6178L180.775 64.4189L257.155 64.1018L233.558 38.9465C233.405 38.7793 233.234 38.6236 233.069 38.4737L232.989 38.3987L180.667 38.6178Z" fill="#3E3A39"/>
<path d="M240.02 87.7926H236.945L233.814 66.1716L214.317 66.2523L188.699 38.9233C187.326 37.459 185.672 36.2944 183.839 35.5012C182.005 34.708 180.031 34.3029 178.037 34.3108L115.917 34.5703C114.458 34.5758 113.014 34.8806 111.674 35.4662C110.334 36.0518 109.124 36.9062 108.118 37.9778L68.5538 65.0069L62.4624 69.3138L45.3841 75.0794L30.583 78.9193L26.1597 89.0207C24.7536 90.9464 16.4251 93.0566 16.4365 95.4839L16.6073 102.529C16.6476 104.181 17.3262 105.75 18.4974 106.899C19.6685 108.049 21.2386 108.687 22.8694 108.676L35.6496 108.935V104.501C35.6496 99.1912 36.1496 95.9839 38.5 92.5C42 86.5 45.3841 85.5 49.5 84.8175H52.9612C61.5004 84.7829 66.863 91.7882 68.2349 101.324L69.3165 108.82L166.059 108.416V103.982C166.014 93.1373 170.374 84.3274 182.181 84.2813C192.701 84.2352 196.493 91.2462 198.172 100.783L199.436 107.961L237.054 105.654V105.505H240.128L240.02 87.7926Z" fill="#95C3ED"/>
<path d="M108.443 41.9503L74.4685 65.0127L138.142 64.7475L138.04 38.8023L115.491 38.8945C114.174 38.9018 112.872 39.1759 111.662 39.7007C110.451 40.2255 109.357 40.9904 108.443 41.9503V41.9503Z" fill="#3E3A39"/>
<path d="M74.4742 65.2895C74.4128 65.2886 74.3533 65.268 74.3042 65.2307C74.2551 65.1934 74.219 65.1413 74.2009 65.0819C74.1842 65.0228 74.1862 64.9599 74.2066 64.902C74.2271 64.844 74.2648 64.794 74.3148 64.759L108.266 41.7255C109.211 40.7514 110.335 39.9755 111.576 39.4422C112.816 38.909 114.149 38.6288 115.496 38.6178L138.039 38.5255C138.115 38.527 138.186 38.5578 138.239 38.6116C138.292 38.6653 138.323 38.7378 138.324 38.8138L138.427 64.759C138.427 64.836 138.399 64.9103 138.347 64.9666C138.292 65.0207 138.219 65.0517 138.142 65.0531L74.4685 65.3183L74.4742 65.2895ZM137.761 39.1021L115.502 39.1943C114.227 39.2065 112.968 39.4736 111.796 39.9802C110.623 40.4868 109.561 41.2229 108.671 42.1463C108.658 42.1627 108.643 42.1765 108.625 42.1867L75.4362 64.7071L137.88 64.4477L137.761 39.1021Z" fill="#3E3A39"/>
<path d="M101.139 64.8859L121.229 38.883H115.491C114.175 38.8888 112.873 39.1611 111.663 39.6839C110.453 40.2067 109.358 40.9695 108.443 41.9273L96.5564 49.9991L85.0115 64.9436L101.139 64.8859Z" fill="white"/>
<path d="M85.0115 65.2434C84.9583 65.2429 84.9063 65.2275 84.8611 65.199C84.8159 65.1705 84.7793 65.1301 84.7553 65.082C84.7326 65.0328 84.7237 64.9782 84.7297 64.9243C84.7358 64.8704 84.7565 64.8191 84.7895 64.7764L96.3343 49.8377C96.3522 49.8137 96.3733 49.7924 96.397 49.7742L108.261 41.7024C109.205 40.7283 110.329 39.9524 111.57 39.4192C112.811 38.8859 114.143 38.6057 115.491 38.5947H121.229C121.282 38.5953 121.334 38.6107 121.379 38.6391C121.424 38.6676 121.461 38.7081 121.485 38.7562C121.508 38.8053 121.516 38.8599 121.51 38.9138C121.504 38.9678 121.484 39.019 121.451 39.0618L101.361 65.0646C101.335 65.0993 101.301 65.1273 101.263 65.1463C101.224 65.1653 101.182 65.1749 101.139 65.1742L85.0115 65.2434V65.2434ZM96.7499 50.2298L85.5978 64.6438L101.002 64.5746L120.642 39.154H115.519C114.245 39.1662 112.985 39.4333 111.813 39.9398C110.64 40.4464 109.578 41.1826 108.688 42.106C108.675 42.1224 108.66 42.1361 108.642 42.1464L96.7499 50.2298Z" fill="#3E3A39"/>
<path d="M138.142 64.7302L138.068 46.1188L123.643 64.7936L138.142 64.7302Z" fill="white"/>
<path d="M123.643 65.082C123.589 65.0821 123.537 65.067 123.492 65.0385C123.446 65.0099 123.41 64.969 123.386 64.9205C123.359 64.8745 123.344 64.8216 123.344 64.7677C123.344 64.7138 123.359 64.661 123.386 64.6149L137.812 45.9459C137.849 45.899 137.9 45.8646 137.956 45.8471C138.013 45.8297 138.074 45.83 138.131 45.8479C138.186 45.8678 138.235 45.9044 138.269 45.9528C138.304 46.0012 138.323 46.0591 138.324 46.1189L138.398 64.7303C138.399 64.8073 138.37 64.8816 138.318 64.9378C138.263 64.992 138.19 65.0229 138.114 65.0243L123.614 65.082H123.643ZM137.783 46.9549L124.229 64.5054L137.857 64.4478L137.783 46.9549Z" fill="#3E3A39"/>
<path d="M186.57 42.8325L201.115 57.7769C201.598 58.2748 201.942 58.8935 202.112 59.57C202.258 60.1501 202.272 60.7565 202.152 61.3428C202.032 61.9292 201.781 62.4801 201.42 62.9537C201.058 63.4273 200.594 63.8112 200.064 64.0761C199.534 64.3409 198.951 64.4799 198.36 64.4823L142.406 64.7129L142.303 38.7677L176.648 38.6236C178.495 38.6197 180.325 38.9901 182.029 39.7129C183.733 40.4357 185.277 41.4964 186.57 42.8325V42.8325Z" fill="#3E3A39"/>
<path d="M142.406 65.0012C142.332 65.0017 142.26 64.9727 142.207 64.9205C142.153 64.8669 142.123 64.7946 142.121 64.7187L142.019 38.7735C142.019 38.697 142.049 38.6237 142.102 38.5697C142.155 38.5156 142.228 38.4852 142.303 38.4852L176.648 38.3411H176.705C178.577 38.3468 180.43 38.7266 182.157 39.4587C183.884 40.1908 185.451 41.2609 186.77 42.6076L201.315 57.552C201.837 58.0844 202.209 58.7497 202.39 59.4778C202.548 60.1007 202.563 60.7519 202.433 61.3815C202.304 62.0111 202.034 62.6024 201.645 63.1101C201.256 63.6183 200.759 64.03 200.189 64.3137C199.62 64.5975 198.994 64.7459 198.36 64.7476L142.406 64.9781V65.0012ZM142.588 39.056L142.691 64.4247L198.36 64.194C198.91 64.1945 199.453 64.0669 199.946 63.8209C200.44 63.575 200.871 63.2174 201.206 62.7757C201.542 62.3382 201.775 61.8285 201.886 61.2859C201.998 60.7432 201.985 60.1819 201.85 59.6449C201.691 59.0162 201.371 58.4412 200.922 57.9787L186.377 43.0343C185.109 41.74 183.602 40.712 181.941 40.0095C180.28 39.307 178.499 38.9438 176.699 38.9407H176.642L142.588 39.056Z" fill="#3E3A39"/>
<path d="M172.982 38.6639L167.357 38.6928L147.267 64.6957L152.892 64.6726L172.982 38.6639Z" fill="white"/>
<path d="M147.268 64.9839C147.214 64.9834 147.162 64.968 147.117 64.9396C147.072 64.9111 147.035 64.8706 147.011 64.8225C146.989 64.7733 146.98 64.7187 146.986 64.6648C146.992 64.6109 147.012 64.5597 147.045 64.5169L167.135 38.5141C167.161 38.4798 167.195 38.452 167.234 38.433C167.272 38.414 167.314 38.4043 167.357 38.4045H172.982C173.035 38.4044 173.087 38.4194 173.133 38.448C173.178 38.4765 173.214 38.5174 173.238 38.5659C173.267 38.6115 173.282 38.6646 173.282 38.7187C173.282 38.7729 173.267 38.826 173.238 38.8715L153.148 64.8744C153.121 64.9081 153.088 64.9353 153.049 64.9543C153.011 64.9732 152.969 64.9833 152.926 64.9839H147.296H147.268ZM167.5 38.981L147.854 64.4016H152.755L172.395 38.9753L167.5 38.981Z" fill="#3E3A39"/>
<path d="M142.309 40.63L142.394 61.3285L159.854 38.7216L143.727 38.7907L142.309 40.63Z" fill="white"/>
<path d="M142.395 61.6168C142.364 61.6229 142.333 61.6229 142.303 61.6168C142.248 61.5969 142.2 61.5603 142.165 61.5119C142.13 61.4635 142.111 61.4056 142.11 61.3458L142.024 40.6473C142.025 40.5823 142.047 40.5195 142.087 40.4685L143.505 38.6293C143.531 38.5957 143.565 38.5684 143.604 38.5494C143.642 38.5305 143.684 38.5204 143.727 38.5197L159.854 38.4506C159.907 38.4509 159.958 38.4662 160.002 38.4948C160.047 38.5233 160.082 38.564 160.105 38.612C160.134 38.6576 160.149 38.7106 160.149 38.7648C160.149 38.819 160.134 38.872 160.105 38.9176L142.639 61.5245C142.609 61.559 142.571 61.5854 142.528 61.6015C142.486 61.6175 142.44 61.6228 142.395 61.6168V61.6168ZM142.594 40.728L142.673 60.4982L159.274 39.0157L143.869 39.0791L142.594 40.728Z" fill="#3E3A39"/>
<path d="M233.814 66.1832L275.127 66.0102C276.174 66.0073 277.188 66.3869 277.982 67.0795C278.775 67.7721 279.296 68.7312 279.448 69.7809L282.038 87.6139L236.945 87.8042L233.814 66.1832Z" fill="#579DC6"/>
<path d="M273.012 75.9035L253.418 75.9866L253.452 84.1334L273.046 84.0502L273.012 75.9035Z" fill="white"/>
<path d="M253.506 84.2929C253.43 84.2929 253.358 84.2626 253.304 84.2085C253.251 84.1545 253.221 84.0811 253.221 84.0046L253.187 75.8578C253.189 75.7819 253.219 75.7096 253.272 75.6561C253.298 75.6284 253.329 75.6063 253.363 75.5914C253.397 75.5766 253.434 75.5691 253.472 75.5696L273.066 75.4888C273.141 75.4888 273.212 75.5184 273.265 75.5712C273.318 75.6241 273.349 75.696 273.351 75.7714L273.385 83.9239C273.385 83.9617 273.378 83.9992 273.363 84.034C273.349 84.0687 273.327 84.1 273.299 84.1258C273.247 84.1796 273.175 84.2105 273.1 84.2122L253.511 84.2929H253.506ZM253.762 76.1461V83.7164L272.787 83.6356L272.753 76.0654L253.762 76.1461Z" fill="#3E3A39"/>
<path d="M200.25 91.8689C200.099 91.8689 199.954 91.8082 199.847 91.7001C199.741 91.592 199.681 91.4453 199.681 91.2924C199.681 91.1395 199.741 90.9929 199.847 90.8847C199.954 90.7766 200.099 90.7158 200.25 90.7158L284.207 90.3641C284.358 90.3641 284.503 90.4249 284.609 90.533C284.716 90.6411 284.776 90.7878 284.776 90.9407C284.776 91.0936 284.716 91.2403 284.609 91.3484C284.503 91.4565 284.358 91.5172 284.207 91.5172L200.25 91.8689Z" fill="white"/>
<path d="M69.6981 92.4109C69.5471 92.4109 69.4022 92.3501 69.2954 92.242C69.1887 92.1339 69.1288 91.9873 69.1288 91.8343C69.1288 91.6814 69.1887 91.5347 69.2954 91.4266C69.4022 91.3185 69.5471 91.2578 69.6981 91.2578L162.735 90.8715C162.886 90.8715 163.031 90.9322 163.137 91.0403C163.244 91.1484 163.304 91.2951 163.304 91.448C163.304 91.6009 163.244 91.7476 163.137 91.8557C163.031 91.9639 162.886 92.0246 162.735 92.0246L69.7038 92.4109H69.6981Z" fill="white"/>
<path d="M28.1635 92.5896C28.0125 92.5896 27.8678 92.5289 27.761 92.4207C27.6543 92.3126 27.5942 92.1659 27.5942 92.013C27.5942 91.8601 27.6543 91.7135 27.761 91.6054C27.8678 91.4973 28.0125 91.4365 28.1635 91.4365L38.8091 91.3904C38.9601 91.3904 39.1048 91.4511 39.2116 91.5592C39.3183 91.6673 39.3784 91.814 39.3784 91.9669C39.3784 92.1198 39.3183 92.2664 39.2116 92.3746C39.1048 92.4827 38.9601 92.5435 38.8091 92.5435L28.1578 92.5896H28.1635Z" fill="white"/>
<path d="M250.09 76.002L231.583 76.0827C230.726 76.0848 229.888 76.3287 229.161 76.7871C228.433 77.2454 227.847 77.8999 227.467 78.6772L224.399 84.9617C224.257 85.2498 224.19 85.5699 224.205 85.8915C224.22 86.213 224.316 86.5254 224.483 86.7988C224.651 87.0722 224.885 87.2976 225.163 87.4534C225.442 87.6092 225.754 87.6902 226.072 87.6889L250.141 87.5851L250.09 76.002Z" fill="#FFDB74"/>
<path d="M226.067 87.9771C225.702 87.978 225.343 87.8841 225.024 87.7045C224.705 87.5248 224.437 87.2653 224.245 86.9508C224.049 86.6371 223.937 86.2773 223.919 85.9065C223.901 85.5357 223.978 85.1666 224.142 84.8349L227.211 78.5504C227.613 77.7231 228.236 77.0261 229.008 76.5381C229.781 76.0501 230.672 75.7905 231.583 75.7886L250.09 75.7137C250.129 75.708 250.168 75.7131 250.204 75.7283C250.24 75.7436 250.272 75.7684 250.295 75.8002C250.347 75.8543 250.375 75.9267 250.375 76.002L250.426 87.5851C250.426 87.6616 250.396 87.7349 250.343 87.7889C250.289 87.843 250.217 87.8734 250.141 87.8734L226.078 87.9771H226.067ZM249.811 76.2902L231.594 76.3652C230.79 76.3672 230.002 76.5972 229.32 77.0292C228.638 77.4613 228.089 78.0781 227.735 78.8098L224.666 85.0886C224.546 85.3327 224.489 85.6041 224.502 85.8768C224.515 86.1494 224.597 86.414 224.74 86.6453C224.881 86.8763 225.078 87.067 225.312 87.1992C225.546 87.3314 225.81 87.4007 226.078 87.4006L249.857 87.2968L249.811 76.2902Z" fill="#3E3A39"/>
<path d="M250.09 76.002L235.175 76.0654L236.854 87.6369L250.141 87.5851L250.09 76.002Z" fill="#3E3A39"/>
<path d="M236.854 87.931C236.786 87.9305 236.719 87.9054 236.667 87.86C236.615 87.8146 236.581 87.7519 236.57 87.6831L234.89 76.1058C234.886 76.0647 234.889 76.023 234.901 75.9834C234.913 75.9437 234.932 75.9069 234.959 75.8751C234.985 75.8437 235.019 75.8187 235.056 75.8017C235.093 75.7848 235.134 75.7763 235.175 75.7771L250.09 75.7137C250.129 75.708 250.168 75.7131 250.204 75.7283C250.24 75.7436 250.272 75.7684 250.295 75.8002C250.347 75.8543 250.375 75.9267 250.375 76.002L250.426 87.5851C250.426 87.6616 250.396 87.7349 250.343 87.7889C250.289 87.843 250.217 87.8734 250.141 87.8734L236.854 87.931V87.931ZM235.505 76.3537L237.099 87.3545L249.851 87.2968L249.811 76.2902L235.505 76.3537Z" fill="#3E3A39"/>
<path d="M280.262 75.8751L275.747 75.8924L275.73 87.4755L281.941 87.4525L280.262 75.8751Z" fill="#3E3A39"/>
<path d="M275.736 87.7696C275.66 87.7671 275.587 87.7363 275.531 87.6831C275.48 87.6289 275.451 87.5565 275.451 87.4813V75.8924C275.451 75.8548 275.459 75.8176 275.473 75.783C275.487 75.7483 275.509 75.7169 275.535 75.6906C275.562 75.6643 275.593 75.6436 275.628 75.6298C275.662 75.6159 275.699 75.6092 275.736 75.6099H280.25C280.319 75.6115 280.385 75.6371 280.436 75.6823C280.488 75.7275 280.523 75.7895 280.535 75.8578L282.243 87.4352C282.249 87.4764 282.246 87.5184 282.234 87.5582C282.222 87.5981 282.202 87.6349 282.175 87.6658C282.148 87.6973 282.115 87.7223 282.077 87.7392C282.04 87.7562 281.999 87.7646 281.958 87.7638H275.753L275.736 87.7696ZM276.032 76.1807V87.1872H281.622L280.028 76.1865L276.032 76.1807Z" fill="#3E3A39"/>
<path d="M78.7384 59.7135L69.1348 59.7543C68.506 59.7569 67.9984 60.2754 68.001 60.9122L68.0336 68.788C68.0362 69.4248 68.5481 69.9389 69.1769 69.9363L78.7805 69.8955C79.4093 69.8928 79.9169 69.3744 79.9143 68.7376L79.8817 60.8618C79.8791 60.225 79.3672 59.7109 78.7384 59.7135Z" fill="#3E3A39"/>
<path d="M69.2255 70.0922C69.0393 70.0927 68.8547 70.0559 68.6827 69.9836C68.5107 69.9114 68.3547 69.8052 68.2235 69.6713C68.0893 69.5398 67.9828 69.3821 67.9104 69.2077C67.838 69.0333 67.8012 68.8458 67.8023 68.6566L67.7681 60.7808C67.7674 60.5913 67.8038 60.4036 67.8751 60.2284C67.9464 60.0533 68.0513 59.8942 68.1836 59.7603C68.3135 59.6243 68.4694 59.5164 68.6416 59.4431C68.8138 59.3697 68.9988 59.3325 69.1856 59.3336L78.7893 59.2932C78.9759 59.2925 79.1608 59.329 79.3334 59.4008C79.5061 59.4726 79.663 59.5783 79.7953 59.7117C79.9275 59.8451 80.0324 60.0036 80.104 60.1781C80.1755 60.3527 80.2125 60.5398 80.2125 60.7289L80.2466 68.6047C80.2473 68.794 80.2113 68.9816 80.1405 69.1568C80.0697 69.3319 79.9654 69.4913 79.8338 69.6257C79.7021 69.76 79.5457 69.8668 79.3733 69.94C79.2009 70.0131 79.016 70.0511 78.8291 70.0519V70.0519L69.2255 70.0922V70.0922ZM78.795 59.8698L69.1913 59.9102C68.9643 59.9117 68.7471 60.0041 68.5871 60.1672C68.4271 60.3303 68.3373 60.5509 68.3374 60.7808L68.3715 68.6566C68.3718 68.7692 68.394 68.8808 68.437 68.9847C68.48 69.0886 68.5428 69.1828 68.622 69.262C68.6994 69.3448 68.7931 69.4101 68.897 69.4539C69.001 69.4976 69.1129 69.5186 69.2255 69.5156L78.8348 69.4753C78.9469 69.4746 79.0578 69.4514 79.1611 69.4073C79.2644 69.3631 79.3582 69.2988 79.437 69.2179C79.5157 69.1371 79.5779 69.0413 79.6202 68.9361C79.6624 68.8309 79.6837 68.7183 79.683 68.6047L79.6489 60.7289C79.6474 60.5005 79.5568 60.282 79.3968 60.121C79.2368 59.9601 79.0205 59.8698 78.795 59.8698V59.8698Z" fill="#3E3A39"/>
<path d="M136.595 69.6443L125.169 69.6928L125.189 74.3226L136.614 74.2741L136.595 69.6443Z" fill="#3E3A39"/>
<path d="M125.231 74.4856C125.155 74.4856 125.083 74.4553 125.03 74.4012C124.976 74.3472 124.946 74.2738 124.946 74.1974V69.5849C124.946 69.5462 124.953 69.5078 124.968 69.4721C124.982 69.4364 125.004 69.4041 125.032 69.3773C125.085 69.3235 125.156 69.2925 125.231 69.2908L136.656 69.2447C136.694 69.2442 136.731 69.2517 136.765 69.2666C136.799 69.2815 136.83 69.3035 136.856 69.3312C136.883 69.3569 136.905 69.3882 136.919 69.423C136.934 69.4577 136.941 69.4952 136.941 69.533V74.1455C136.941 74.2207 136.913 74.2931 136.861 74.3473C136.835 74.3751 136.803 74.3972 136.768 74.4121C136.732 74.427 136.694 74.4343 136.656 74.4338L125.237 74.4799L125.231 74.4856ZM125.498 69.8731V73.9091L136.355 73.863V69.827L125.498 69.8731Z" fill="#3E3A39"/>
<path d="M139.514 103.123C139.438 103.123 139.366 103.093 139.313 103.039C139.259 102.985 139.229 102.912 139.229 102.835L139.087 67.6649C139.087 67.5885 139.117 67.5152 139.17 67.4611C139.224 67.407 139.296 67.3766 139.372 67.3766C139.447 67.3766 139.52 67.407 139.573 67.4611C139.626 67.5152 139.656 67.5885 139.656 67.6649L139.799 102.835C139.799 102.911 139.769 102.983 139.717 103.037C139.665 103.091 139.594 103.122 139.52 103.123H139.514Z" fill="white"/>
<path d="M71.7303 105.101C71.6586 105.101 71.5894 105.074 71.5367 105.025C71.4839 104.976 71.4514 104.908 71.4456 104.836C70.8764 96.4814 68.3431 91.252 66.3222 88.3346C64.1418 85.1808 62.0754 83.9816 62.0583 83.9701C61.9928 83.9324 61.9444 83.8705 61.9232 83.7974C61.9019 83.7242 61.9095 83.6455 61.9445 83.578C61.9815 83.5115 62.0431 83.4627 62.1157 83.4422C62.1882 83.4217 62.2658 83.4311 62.3315 83.4685C62.4226 83.5146 64.5119 84.7253 66.7662 87.9714C68.8042 90.9176 71.3545 96.1701 71.9864 104.524L160.532 104.155C160.607 104.155 160.679 104.186 160.733 104.24C160.786 104.294 160.816 104.367 160.816 104.444C160.816 104.52 160.786 104.593 160.733 104.648C160.679 104.702 160.607 104.732 160.532 104.732L71.7246 105.101H71.7303Z" fill="#3E3A39"/>
<path d="M202.527 90.3641C202.47 90.365 202.414 90.3477 202.367 90.3146C202.32 90.2815 202.284 90.2343 202.265 90.1797C202.22 90.0643 197.756 78.8733 183.576 78.8733H183.462C175.612 78.8733 169.799 82.1482 166.213 88.5192C166.174 88.5849 166.111 88.6329 166.038 88.6532C165.965 88.6736 165.887 88.6648 165.82 88.6287C165.755 88.5891 165.708 88.5252 165.689 88.4509C165.67 88.3765 165.68 88.2976 165.718 88.2309C169.418 81.6754 175.395 78.3313 183.456 78.2968H183.576C191.17 78.2968 195.98 81.4447 198.684 84.0969C200.427 85.759 201.824 87.7564 202.794 89.9721C202.808 90.0073 202.815 90.0448 202.814 90.0825C202.813 90.1203 202.804 90.1575 202.789 90.1919C202.774 90.2263 202.752 90.2572 202.724 90.2828C202.697 90.3085 202.665 90.3282 202.63 90.341C202.598 90.3574 202.562 90.3653 202.527 90.3641V90.3641Z" fill="white"/>
<path d="M27.7935 103.59L15.0361 103.642C14.8967 103.642 14.7628 103.587 14.6636 103.487C14.5645 103.388 14.5081 103.253 14.5066 103.112V96.8619C14.5066 96.7212 14.5618 96.5863 14.66 96.4868C14.7582 96.3874 14.8915 96.3314 15.0304 96.3314L27.7878 96.2738C28.2524 96.2738 28.6981 96.4599 29.0277 96.7915C29.3573 97.1231 29.5439 97.5734 29.547 98.0439V101.809C29.5485 102.043 29.5041 102.275 29.4166 102.491C29.3291 102.707 29.2001 102.904 29.037 103.07C28.874 103.236 28.6802 103.367 28.4668 103.456C28.2533 103.546 28.0245 103.591 27.7935 103.59V103.59Z" fill="#3E3A39"/>
<path d="M15.019 103.931C14.8051 103.931 14.5997 103.845 14.4474 103.693C14.295 103.541 14.2078 103.334 14.2048 103.118V96.862C14.2048 96.6448 14.2901 96.4366 14.4417 96.283C14.5933 96.1295 14.7989 96.0432 15.0133 96.0432L27.7707 95.9856C28.3051 95.9884 28.8191 96.1942 29.211 96.5622C29.4009 96.7523 29.5519 96.9785 29.6555 97.2278C29.759 97.4771 29.8131 97.7446 29.8145 98.0151V101.786C29.8199 102.055 29.7723 102.323 29.6745 102.573C29.5768 102.824 29.4309 103.052 29.2452 103.244C29.0572 103.438 28.833 103.592 28.5857 103.697C28.3385 103.802 28.073 103.856 27.8049 103.856L15.0475 103.908L15.019 103.931ZM27.7536 96.5622L14.9962 96.6198C14.9328 96.6198 14.8719 96.6453 14.8271 96.6907C14.7822 96.7362 14.7572 96.7978 14.7572 96.862V103.112C14.76 103.176 14.7869 103.237 14.8323 103.282C14.8778 103.327 14.9384 103.353 15.0019 103.354L27.7593 103.302C27.9521 103.302 28.1431 103.264 28.321 103.189C28.4988 103.113 28.6601 103.003 28.7954 102.864C28.9314 102.725 29.0386 102.561 29.1109 102.379C29.1833 102.198 29.2192 102.004 29.2167 101.809V98.044C29.2153 97.8485 29.1759 97.6551 29.1007 97.4751C29.0254 97.295 28.9159 97.1317 28.7784 96.9946C28.5065 96.7192 28.1381 96.5637 27.7536 96.5622V96.5622Z" fill="#3E3A39"/>
<path d="M27.5943 101.255L14.8368 101.307C14.6979 101.307 14.5647 101.251 14.4665 101.152C14.3682 101.052 14.3132 100.917 14.3132 100.777L14.2847 94.5268C14.2847 94.3856 14.3396 94.2501 14.4377 94.1497C14.5357 94.0493 14.6689 93.9922 14.8084 93.9907L27.5659 93.9387C28.03 93.9372 28.4756 94.1221 28.8054 94.4528C29.1351 94.7835 29.3219 95.2331 29.3249 95.703V99.4738C29.325 99.9413 29.1436 100.39 28.8198 100.723C28.4961 101.057 28.0559 101.248 27.5943 101.255Z" fill="white"/>
<path d="M14.8368 101.596C14.7307 101.596 14.6255 101.574 14.5274 101.533C14.4294 101.492 14.3402 101.432 14.2652 101.356C14.1901 101.28 14.1305 101.189 14.0899 101.09C14.0493 100.991 14.0285 100.884 14.0285 100.777L14 94.5269C14.0021 94.3115 14.0856 94.1052 14.2334 93.9503C14.3857 93.799 14.5893 93.7125 14.8026 93.7082L27.5602 93.6562C28.0983 93.6577 28.6141 93.8742 28.9956 94.2584C29.3772 94.6427 29.5936 95.1639 29.5981 95.7088V99.4796C29.5981 100.027 29.3843 100.551 29.0035 100.939C28.6227 101.327 28.1059 101.546 27.5659 101.549V101.549L14.814 101.601L14.8368 101.596ZM27.5942 94.227L14.8368 94.279C14.7724 94.2802 14.711 94.3072 14.666 94.3539C14.6238 94.4016 14.5996 94.4628 14.5978 94.5269L14.6263 100.777C14.629 100.84 14.6551 100.9 14.6994 100.945C14.7436 100.99 14.8028 101.016 14.8653 101.019L27.6227 100.967C28.0118 100.964 28.384 100.805 28.658 100.526C28.9321 100.246 29.0858 99.8679 29.0858 99.4738V95.7088C29.0851 95.51 29.0451 95.3134 28.9681 95.1305C28.8911 94.9476 28.7788 94.7823 28.6376 94.6441C28.4964 94.506 28.3294 94.3979 28.1463 94.3263C27.9632 94.2546 27.7678 94.2209 27.5716 94.227H27.5942Z" fill="#3E3A39"/>
<mask id="mask0_2_4411" style="mask-type:alpha" maskUnits="userSpaceOnUse" x="86" y="11" width="61" height="54">
<rect x="86" y="11" width="61" height="54" fill="#C4C4C4"/>
</mask>
<g mask="url(#mask0_2_4411)">
<path d="M110.72 26.954C109.681 27.367 108.683 27.8766 107.737 28.4761C105.417 29.9324 103.381 31.8086 101.731 34.0111C100.845 35.1633 100.064 36.3945 99.397 37.6895C97.1031 37.3107 95.0178 36.1155 93.5162 34.3189C92.0146 32.5222 91.1951 30.2419 91.205 27.888C91.2035 26.5858 91.4556 25.296 91.9468 24.0925C92.438 22.889 93.1588 21.7955 94.0677 20.8744C94.9766 19.9533 96.0559 19.2228 97.2439 18.7246C98.4318 18.2265 99.7052 17.9704 100.991 17.9712C103.427 17.9695 105.775 18.8899 107.575 20.5519C109.375 22.2139 110.497 24.4974 110.72 26.954V26.954Z" fill="#B8A4D9"/>
<path d="M136.246 46.6954C136.246 56.0876 127.474 59.7833 116.646 59.7833C105.819 59.7833 97.0289 56.0876 97.0289 46.6954C97.1046 43.5406 97.9161 40.4487 99.3971 37.6722C100.064 36.3772 100.845 35.146 101.731 33.9938C103.381 31.7913 105.417 29.9151 107.737 28.4588C108.683 27.8593 109.681 27.3497 110.72 26.9367C112.605 26.176 114.617 25.7847 116.646 25.7836C118.605 25.7892 120.547 26.1605 122.373 26.879C123.421 27.2831 124.431 27.7829 125.39 28.3723C127.756 29.8371 129.831 31.7357 131.51 33.9708C132.402 35.1281 133.189 36.365 133.861 37.6665C135.355 40.4407 136.173 43.5363 136.246 46.6954V46.6954Z" fill="#B8A4D9"/>
<path d="M107.737 28.4761C105.417 29.9324 103.381 31.8086 101.731 34.0111C100.605 33.7784 99.5939 33.1588 98.8677 32.2572C98.1415 31.3557 97.7452 30.2277 97.7461 29.0642C97.7461 28.3997 97.8755 27.7417 98.1268 27.1278C98.378 26.514 98.7462 25.9563 99.2104 25.4867C99.6746 25.0171 100.226 24.6447 100.832 24.391C101.438 24.1372 102.088 24.007 102.744 24.0077C103.973 24.0018 105.161 24.454 106.082 25.2781C107.002 26.1021 107.592 27.2404 107.737 28.4761V28.4761Z" fill="#EFCECD"/>
<path d="M141.888 27.9169C141.888 30.2364 141.085 32.4825 139.618 34.264C138.151 36.0455 136.114 37.2495 133.861 37.6665C133.189 36.3651 132.402 35.1281 131.51 33.9708C129.831 31.7357 127.756 29.8371 125.39 28.3723C124.431 27.7829 123.421 27.2831 122.373 26.8791C122.622 24.4411 123.756 22.1836 125.554 20.5434C127.353 18.9032 129.688 17.9969 132.108 18C133.393 18 134.666 18.2566 135.853 18.7551C137.04 19.2536 138.119 19.9842 139.027 20.9053C139.936 21.8263 140.656 22.9196 141.147 24.1227C141.637 25.3258 141.889 26.6151 141.888 27.9169V27.9169Z" fill="#B8A4D9"/>
<path d="M135.324 29.0757C135.327 30.2078 134.952 31.3076 134.259 32.1964C133.567 33.0851 132.598 33.7105 131.51 33.9707C129.831 31.7357 127.756 29.8371 125.39 28.3723C125.551 27.1628 126.141 26.0537 127.048 25.251C127.956 24.4483 129.121 24.0065 130.326 24.0078C130.983 24.007 131.634 24.1376 132.241 24.3921C132.848 24.6466 133.399 25.0199 133.864 25.4908C134.328 25.9616 134.696 26.5207 134.947 27.1358C135.197 27.751 135.325 28.4102 135.324 29.0757Z" fill="#EFCECD"/>
<path d="M120.016 43.4205C120.119 46.1764 118.604 48.4712 116.629 48.5461C114.654 48.6211 112.974 46.4475 112.872 43.6915C112.769 40.9356 114.284 38.6466 116.287 38.5659C118.291 38.4852 119.902 40.6645 120.016 43.4205Z" fill="#3E3A39"/>
<path d="M129.54 43.5993C128.646 43.8184 127.639 42.8036 127.263 41.3391C126.887 39.8747 127.36 38.5083 128.253 38.2892C129.147 38.0701 130.161 39.079 130.531 40.5492C130.901 42.0195 130.44 43.3802 129.54 43.5993Z" fill="#3E3A39"/>
<path d="M104.697 43.6396C103.786 43.4955 103.24 42.1637 103.479 40.6761C103.718 39.1886 104.617 38.0989 105.551 38.2488C106.485 38.3987 107.008 39.719 106.775 41.2123C106.541 42.7056 105.608 43.8126 104.697 43.6396Z" fill="#3E3A39"/>
<path d="M123.278 47.3527C121.667 51.6769 117.961 50.8121 117.921 50.8121C117.855 50.7966 117.792 50.7677 117.736 50.7272C117.681 50.6867 117.634 50.6354 117.599 50.5763C117.563 50.5172 117.54 50.4516 117.529 50.3831C117.519 50.3147 117.523 50.2449 117.54 50.1779C117.573 50.0433 117.658 49.9274 117.775 49.8552C117.892 49.783 118.032 49.7601 118.166 49.7916C118.291 49.7916 121.012 50.4085 122.305 46.9779C122.354 46.8476 122.453 46.7422 122.578 46.684C122.704 46.6259 122.846 46.6196 122.976 46.6666C123.105 46.7181 123.209 46.8189 123.266 46.9472C123.322 47.0755 123.327 47.2211 123.278 47.3527Z" fill="#3E3A39"/>
<path d="M130.941 78.8098C130.941 88.9054 124.679 90.5774 116.954 90.5774C109.229 90.5774 102.966 88.9054 102.966 78.8098C102.966 68.7142 109.229 54.0177 116.954 54.0177C124.679 54.0177 130.941 68.7142 130.941 78.8098Z" fill="#B8A4D9"/>
<path d="M127.331 82.0501C127.331 89.3782 122.777 90.589 117.175 90.589C111.574 90.589 107.025 89.3782 107.025 82.0501C107.025 74.722 111.58 64.0557 117.175 64.0557C122.771 64.0557 127.331 74.722 127.331 82.0501Z" fill="#EFCECD"/>
<path d="M109.046 27.4383C104.845 29.4736 102.186 33.3711 99.6931 37.1995C99.5052 37.482 99.9549 37.776 100.137 37.4647C102.591 33.6998 105.181 29.8945 109.308 27.8938C109.61 27.7497 109.348 27.2942 109.046 27.4383Z" fill="white"/>
<path d="M110.811 59.5527C111.003 60.2111 110.997 60.9124 110.795 61.5675C110.592 62.2225 110.201 62.8017 109.673 63.2312C103.98 67.6131 101.879 72.4965 101.259 75.339C101.191 75.7373 101.036 76.1153 100.806 76.4456C100.576 76.776 100.276 77.0504 99.9286 77.249C99.581 77.4477 99.1941 77.5656 98.796 77.5943C98.3979 77.6229 97.9984 77.5615 97.6266 77.4146V77.4146C97.0633 77.1384 96.6014 76.6878 96.3076 76.1281C96.0139 75.5684 95.9037 74.9285 95.9928 74.3011C97.1883 63.7212 103.126 59.3106 106.855 57.5809C107.238 57.4031 107.657 57.3141 108.079 57.3202C108.501 57.3263 108.916 57.4274 109.295 57.6161C109.673 57.8049 110.006 58.0766 110.268 58.4115C110.53 58.7464 110.716 59.1363 110.811 59.5527V59.5527Z" fill="#B8A4D9"/>
<path d="M122.071 59.5527C121.879 60.2111 121.885 60.9124 122.088 61.5674C122.29 62.2225 122.681 62.8016 123.21 63.2312C128.868 67.613 131.003 72.4965 131.624 75.3389C131.691 75.7378 131.845 76.1164 132.075 76.4473C132.304 76.7782 132.604 77.0531 132.952 77.252C133.3 77.4508 133.687 77.5686 134.086 77.5967C134.484 77.6248 134.884 77.5626 135.256 77.4145V77.4145C135.819 77.1389 136.281 76.6881 136.574 76.1281C136.867 75.5681 136.975 74.928 136.884 74.3011C135.688 63.7212 129.757 59.3105 126.022 57.5808C125.638 57.4042 125.221 57.316 124.8 57.3226C124.378 57.3292 123.964 57.4305 123.586 57.6192C123.208 57.8079 122.876 58.0792 122.614 58.4135C122.352 58.7479 122.167 59.137 122.071 59.5527V59.5527Z" fill="#B8A4D9"/>
<path d="M110.697 58.192C114.86 59.8987 119.514 59.8987 123.677 58.192C123.99 58.071 123.762 57.6155 123.449 57.7193C119.404 59.3574 114.888 59.3388 110.857 57.6674C110.549 57.5636 110.384 58.0652 110.697 58.192Z" fill="white"/>
</g>
<mask id="mask1_2_4411" style="mask-type:alpha" maskUnits="userSpaceOnUse" x="133" y="10" width="70" height="55">
<rect x="133" y="10" width="70" height="55" fill="#C4C4C4"/>
</mask>
<g mask="url(#mask1_2_4411)">
<path d="M182.728 70.4036C182.728 78.6196 175.549 79.7151 166.691 79.7151C157.833 79.7151 150.655 78.6196 150.655 70.4036C150.655 62.1876 157.833 49.953 166.691 49.953C175.549 49.953 182.728 62.1818 182.728 70.4036Z" fill="#F7BEBD"/>
<path d="M159.12 28.5107C158.909 28.5107 158.59 18.4152 142.451 21.9379C141.232 22.1497 139.987 22.1672 138.762 21.9898C138.762 21.9898 139.81 33.7574 152.567 31.7567C153.393 31.6241 154.226 31.5375 155.061 31.4973L157.486 31.3935L159.12 28.5107Z" fill="#F7BEBD"/>
<path d="M158.801 29.0585C158.653 29.0585 158.431 21.961 147.085 24.446C146.227 24.5932 145.351 24.6048 144.489 24.4806C144.489 24.4806 145.224 32.7542 154.196 31.3532C154.776 31.2569 155.361 31.1953 155.949 31.1687L157.657 31.0937L158.801 29.0585Z" fill="#EE8785"/>
<path d="M156.968 29.1219C156.698 28.6042 156.308 28.16 155.833 27.8268C155.357 27.4936 154.809 27.2812 154.236 27.2077C152.755 26.9655 149.334 28.5222 148.543 26.8848C148.366 26.5101 147.814 26.8387 147.973 27.2134C148.171 27.6215 148.493 27.9541 148.892 28.1619C149.291 28.3696 149.745 28.4414 150.188 28.3665C152.391 28.2166 154.993 26.8444 156.376 29.462C156.609 29.8195 157.161 29.4909 156.968 29.1219Z" fill="white"/>
<path d="M177.371 28.5107C177.581 28.5107 177.894 18.4152 194.033 21.9379C195.255 22.1498 196.501 22.1673 197.728 21.9898C197.728 21.9898 196.681 33.7574 183.923 31.7567C183.097 31.6241 182.265 31.5375 181.43 31.4973L179.005 31.3935L177.371 28.5107Z" fill="#F7BEBD"/>
<path d="M177.684 29.0585C177.832 29.0585 178.054 21.961 189.405 24.446C190.263 24.5936 191.139 24.6052 192.001 24.4806C192.001 24.4806 191.267 32.7542 182.323 31.3532C181.743 31.2572 181.158 31.1956 180.57 31.1687L178.862 31.0937L177.684 29.0585Z" fill="#EE8785"/>
<path d="M187.054 27.2712C185.654 28.4243 183.422 27.1673 181.754 27.5709C181.195 27.6797 180.665 27.9057 180.197 28.2343C179.73 28.563 179.335 28.9871 179.039 29.4794C178.839 29.8484 179.392 30.177 179.608 29.808C181.43 26.4466 185.193 29.6696 187.527 27.7266C187.828 27.4614 187.373 27.006 187.054 27.2712Z" fill="white"/>
<path d="M185.306 45.7383C185.306 55.0786 177.023 56.1164 166.805 56.1164C156.586 56.1164 148.303 55.0901 148.303 45.7383C148.303 36.3865 151.656 22.2723 166.805 22.2723C181.213 22.2723 185.306 36.398 185.306 45.7383Z" fill="#F7BEBD"/>
<path d="M176.654 40.6934C176.719 41.1543 176.601 41.6226 176.325 41.9955C176.05 42.3684 175.64 42.6155 175.185 42.6826C174.96 42.7219 174.729 42.7151 174.507 42.6627C174.284 42.6102 174.075 42.5131 173.89 42.3771C173.705 42.2411 173.549 42.069 173.431 41.8709C173.314 41.6728 173.236 41.4528 173.204 41.2239C173.168 40.996 173.178 40.7632 173.233 40.5393C173.288 40.3153 173.386 40.1048 173.523 39.92C173.659 39.7352 173.83 39.5798 174.027 39.4631C174.223 39.3464 174.441 39.2707 174.667 39.2405C174.892 39.2002 175.123 39.2061 175.345 39.2578C175.568 39.3095 175.778 39.406 175.963 39.5415C176.149 39.677 176.305 39.8487 176.424 40.0466C176.542 40.2445 176.62 40.4644 176.654 40.6934V40.6934Z" fill="#3E3A39"/>
<path d="M155.562 40.6934C155.529 40.9196 155.541 41.1502 155.596 41.3717C155.652 41.5933 155.75 41.8015 155.886 41.9843C156.021 42.1672 156.191 42.321 156.386 42.4369C156.58 42.5528 156.796 42.6284 157.019 42.6595C157.244 42.6989 157.475 42.6921 157.697 42.6397C157.92 42.5872 158.129 42.49 158.314 42.354C158.499 42.218 158.655 42.046 158.773 41.8479C158.89 41.6498 158.968 41.4297 159 41.2008C159.036 40.9725 159.025 40.7393 158.97 40.5151C158.915 40.2908 158.816 40.08 158.679 39.8951C158.542 39.7102 158.37 39.555 158.173 39.4386C157.976 39.3222 157.758 39.247 157.532 39.2175C157.306 39.1799 157.076 39.1885 156.853 39.2429C156.631 39.2972 156.422 39.3961 156.239 39.5337C156.055 39.6714 155.9 39.8449 155.784 40.0441C155.668 40.2433 155.592 40.4641 155.562 40.6934V40.6934Z" fill="#3E3A39"/>
<path d="M173.323 47.197C173.352 47.7208 173.275 48.2449 173.099 48.7381C172.923 49.2313 172.65 49.6833 172.297 50.0671C171.944 50.4509 171.518 50.7587 171.045 50.9719C170.572 51.1851 170.061 51.2994 169.543 51.3079H169.424C169.013 51.2932 168.607 51.2114 168.223 51.0657C166.937 50.5856 165.524 50.5856 164.238 51.0657C163.886 51.1944 163.518 51.2683 163.145 51.2848H162.957C160.11 51.2848 158.266 47.6352 159.86 45.254C161.3 43.1035 164.613 42.5211 166.999 42.6422C169.384 42.7633 171.837 43.6742 172.959 45.894C173.164 46.2998 173.288 46.7426 173.323 47.197V47.197Z" fill="#EE8785"/>
<g style="mix-blend-mode:multiply">
<g style="mix-blend-mode:multiply">
<path d="M165.387 46.8914C165.387 47.3318 165.215 47.7542 164.907 48.0656C164.6 48.377 164.183 48.5519 163.748 48.5519C163.313 48.5519 162.896 48.377 162.589 48.0656C162.281 47.7542 162.108 47.3318 162.108 46.8914C162.108 46.6729 162.149 46.4563 162.232 46.2542C162.314 46.0521 162.434 45.8684 162.587 45.7136C162.739 45.5588 162.92 45.4359 163.119 45.3521C163.319 45.2683 163.532 45.2252 163.748 45.2252C163.964 45.2252 164.177 45.2683 164.377 45.3521C164.576 45.4359 164.757 45.5588 164.909 45.7136C165.062 45.8684 165.182 46.0521 165.264 46.2542C165.346 46.4563 165.388 46.6729 165.387 46.8914Z" fill="#EE8785"/>
</g>
<g style="mix-blend-mode:multiply">
<path d="M170.682 46.8914C170.682 47.3318 170.509 47.7542 170.202 48.0656C169.894 48.377 169.477 48.5519 169.042 48.5519C168.607 48.5519 168.19 48.377 167.883 48.0656C167.575 47.7542 167.403 47.3318 167.403 46.8914C167.402 46.6729 167.444 46.4563 167.526 46.2542C167.608 46.0521 167.729 45.8684 167.881 45.7136C168.033 45.5588 168.214 45.4359 168.414 45.3521C168.613 45.2683 168.827 45.2252 169.042 45.2252C169.258 45.2252 169.472 45.2683 169.671 45.3521C169.87 45.4359 170.051 45.5588 170.204 45.7136C170.356 45.8684 170.477 46.0521 170.559 46.2542C170.641 46.4563 170.683 46.6729 170.682 46.8914Z" fill="#EE8785"/>
</g>
</g>
<path d="M174.291 49.8896C173.876 51.7577 171.593 52.5649 169.925 52.1325C169.845 52.1218 169.765 52.1407 169.698 52.1857C169.632 52.2306 169.584 52.2985 169.563 52.3767C169.542 52.4549 169.55 52.5382 169.585 52.611C169.62 52.6838 169.68 52.7411 169.754 52.7724C171.758 53.2913 174.428 52.2881 174.917 50.0683C175.008 49.6532 174.382 49.4745 174.291 49.8896Z" fill="#3E3A39"/>
<path d="M163.088 62.9486C162.587 61.4381 161.237 60.4925 159.974 59.6796C159.717 59.5181 159.484 59.9275 159.735 60.0889C160.76 60.6441 161.643 61.4338 162.313 62.3952C163.082 63.6982 163.025 65.5202 161.488 66.189C160.298 66.7137 159.006 66.2812 157.947 65.647C157.025 65.0704 155.818 64.3785 155.385 63.3407C155.266 63.064 154.867 63.3062 154.981 63.5829C155.55 64.9032 157.321 65.9583 158.562 66.4657C159.803 66.9731 161.192 67.0768 162.262 66.2639C162.727 65.87 163.058 65.3374 163.206 64.7419C163.354 64.1465 163.313 63.5188 163.088 62.9486V62.9486Z" fill="#3E3A39"/>
<path d="M171.251 62.2626C171.752 60.7578 173.096 59.8122 174.365 58.9993C174.621 58.8378 174.855 59.2415 174.598 59.4029C173.575 59.9598 172.692 60.7492 172.02 61.7091C171.257 63.0122 171.314 64.8341 172.851 65.5087C174.041 66.0276 175.333 65.6009 176.392 64.9666C177.314 64.3901 178.515 63.6982 178.953 62.6604C179.067 62.3837 179.471 62.6201 179.352 62.8968C178.783 64.2171 177.018 65.278 175.771 65.8085C174.524 66.3389 173.147 66.4254 172.077 65.6125C171.606 65.2152 171.272 64.6764 171.123 64.0741C170.975 63.4719 171.02 62.8374 171.251 62.2626Z" fill="#3E3A39"/>
<path d="M159.296 55.7589C159.296 55.7589 168.371 57.2349 174.957 55.4072" stroke="white" stroke-linecap="round" stroke-linejoin="round"/>
</g>
</g>
<defs>
<clipPath id="clip0_2_4411">
<rect width="272" height="104" fill="white" transform="translate(14 18)"/>
</clipPath>
</defs>
</svg>
