<svg width="160" height="160" viewBox="0 0 160 160" fill="none" xmlns="http://www.w3.org/2000/svg">
<rect width="160" height="160" rx="80" fill="#F5F5F5"/>
<g clip-path="url(#clip0_2_4365)">
<g clip-path="url(#clip1_2_4365)">
<path d="M121.994 74.6573H119.009L118.966 74.7208C118.711 74.6816 118.453 74.6614 118.195 74.6602C114.556 74.6602 111.623 78.4535 111.641 83.1008C111.658 87.748 114.626 91.5038 118.265 91.4865C118.523 91.4844 118.781 91.4632 119.035 91.4231L119.079 91.4837H122.064C125.703 91.4837 128.636 87.6903 128.619 83.0431C128.601 78.3959 125.642 74.6429 121.994 74.6573Z" fill="#3E3A39"/>
<path d="M118.253 91.6423C116.454 91.6423 114.765 90.7567 113.489 89.1442C112.177 87.4051 111.479 85.2849 111.504 83.1123C111.487 78.3958 114.489 74.5419 118.204 74.5275C118.439 74.5262 118.674 74.5426 118.907 74.5765C118.921 74.5603 118.938 74.5472 118.957 74.5382C118.976 74.5292 118.997 74.5246 119.018 74.5246H122.003C123.799 74.5246 125.508 75.39 126.787 77.0256C128.101 78.7628 128.799 80.8826 128.773 83.0546C128.819 85.2307 128.139 87.3609 126.837 89.1124C125.572 90.7423 123.881 91.6423 122.073 91.6509H119.088C119.067 91.6511 119.046 91.6468 119.027 91.6384C119.008 91.6299 118.991 91.6175 118.977 91.6019C118.744 91.6353 118.509 91.6526 118.274 91.6538L118.253 91.6423ZM118.219 74.816H118.204C114.652 74.816 111.777 78.566 111.795 83.1123C111.768 85.2206 112.444 87.2785 113.719 88.9653C114.937 90.5057 116.547 91.3538 118.253 91.3538H118.274C118.525 91.3523 118.776 91.3311 119.024 91.2904C119.05 91.2856 119.078 91.2888 119.103 91.2996C119.128 91.3104 119.149 91.3283 119.163 91.351H122.07C123.785 91.351 125.395 90.4855 126.604 88.9249C127.864 87.2265 128.523 85.1629 128.479 83.0546C128.506 80.9463 127.829 78.8884 126.555 77.2016C125.337 75.6612 123.727 74.8131 122.02 74.8131H122H119.093C119.078 74.8355 119.056 74.8531 119.031 74.8638C119.006 74.8745 118.978 74.8779 118.951 74.8737C118.708 74.8374 118.462 74.8181 118.216 74.816H118.219Z" fill="#3E3A39"/>
<path d="M60.8697 74.9083H57.8846L57.841 74.9717C57.5861 74.9326 57.3286 74.9124 57.0707 74.9112C53.4315 74.9256 50.4988 78.7045 50.5162 83.3517C50.5336 87.9989 53.5013 91.7519 57.1405 91.7375C57.3984 91.7354 57.656 91.7141 57.9108 91.674L57.9543 91.7346H60.9395C64.5787 91.7202 67.5115 87.9413 67.4941 83.294C67.4766 78.6468 64.5089 74.891 60.8697 74.9083Z" fill="#3E3A39"/>
<path d="M57.12 91.8933C55.3207 91.8933 53.6319 91.0077 52.3559 89.3951C51.0435 87.6561 50.3457 85.5359 50.3707 83.3633C50.3239 81.1872 51.0046 79.057 52.3065 77.3055C53.5738 75.6756 55.2655 74.7756 57.0705 74.767C57.3058 74.7673 57.5409 74.7837 57.774 74.816C57.7873 74.7997 57.8042 74.7866 57.8233 74.7777C57.8424 74.7687 57.8633 74.764 57.8844 74.7641H60.8696H60.8899C64.593 74.7641 67.6189 78.5834 67.6392 83.294C67.6596 88.0047 64.6541 91.8644 60.9393 91.8789H57.9541C57.933 91.8812 57.9116 91.8779 57.8922 91.8693C57.8728 91.8607 57.8561 91.847 57.8437 91.8298C57.6107 91.8632 57.3757 91.8805 57.1403 91.8817L57.12 91.8933ZM57.088 75.0669H57.0705C55.3585 75.0669 53.7482 75.9324 52.5361 77.493C51.2767 79.1913 50.6176 81.255 50.6613 83.3633C50.6344 85.4716 51.3109 87.5295 52.5855 89.2163C53.8092 90.7625 55.4311 91.6077 57.1403 91.6048C57.3915 91.6034 57.6423 91.5821 57.8902 91.5413C57.9169 91.5365 57.9444 91.5398 57.9693 91.5506C57.9941 91.5613 58.0152 91.5792 58.0297 91.6019H60.9364C64.4884 91.5875 67.3631 87.8519 67.3456 83.3056C67.3282 78.7593 64.439 75.0641 60.887 75.0641H60.8666H57.96C57.9439 75.086 57.9222 75.1032 57.8972 75.1138C57.8721 75.1245 57.8446 75.1283 57.8175 75.1247C57.576 75.0886 57.3322 75.0693 57.088 75.0669V75.0669Z" fill="#3E3A39"/>
<path d="M150.404 74.7871H148.974L147.652 65.8648C147.574 65.3396 147.308 64.8598 146.903 64.5132C146.498 64.1667 145.98 63.9768 145.445 63.9782L137.417 64.0129L124.337 50.3395C123.636 49.6068 122.791 49.0242 121.855 48.6273C120.919 48.2304 119.911 48.0278 118.893 48.0317L84.3411 48.1731C83.596 48.177 82.8593 48.33 82.1751 48.623C81.4909 48.9159 80.8732 49.3427 80.359 49.8779L21.1179 74.9746L21.1616 85.472L110.138 85.1085L132.467 84.8604L149.035 83.7066V83.6316H150.398C150.542 83.63 150.68 83.5722 150.781 83.4707C150.882 83.3691 150.939 83.2321 150.939 83.0892L150.907 75.2343C150.904 75.1721 150.888 75.1112 150.861 75.0551C150.834 74.9989 150.796 74.9486 150.749 74.9071C150.702 74.8656 150.648 74.8336 150.589 74.813C150.529 74.7924 150.467 74.7836 150.404 74.7871V74.7871Z" fill="#579DC6"/>
<path d="M125.163 83.4527V84.9585L132.45 84.8777L149.018 83.7239V83.6489H150.381C150.482 83.6473 150.58 83.6179 150.665 83.5638C150.749 83.5098 150.817 83.4334 150.861 83.3431L125.163 83.4527Z" fill="#3E3A39"/>
<path d="M125.168 85.1027C125.13 85.1024 125.094 85.088 125.067 85.0624C125.04 85.0342 125.024 84.9973 125.023 84.9585V83.4527C125.023 83.4145 125.038 83.3778 125.066 83.3507C125.093 83.3237 125.13 83.3085 125.168 83.3085L150.858 83.2018C150.883 83.2016 150.907 83.2079 150.929 83.22C150.951 83.2322 150.969 83.2497 150.983 83.271C150.995 83.292 151.001 83.3159 151.001 83.3402C151.001 83.3645 150.995 83.3884 150.983 83.4094C150.927 83.524 150.841 83.6208 150.733 83.6891C150.625 83.7574 150.5 83.7945 150.372 83.796H149.137C149.126 83.8178 149.109 83.8365 149.089 83.8501C149.069 83.8638 149.045 83.8719 149.021 83.8739L132.467 85.0277L125.171 85.1085L125.168 85.1027ZM125.308 83.5941V84.8114L132.45 84.7335L148.872 83.597C148.879 83.5809 148.889 83.5662 148.901 83.5537C148.929 83.5276 148.965 83.5131 149.003 83.5133H150.366C150.401 83.5175 150.436 83.5175 150.471 83.5133L125.308 83.5941Z" fill="#3E3A39"/>
<path d="M132.458 84.8777C132.53 84.8753 132.6 84.8589 132.665 84.8295C132.73 84.8001 132.788 84.7583 132.837 84.7065C132.886 84.6546 132.924 84.5938 132.949 84.5274C132.974 84.461 132.985 84.3904 132.983 84.3195C132.98 84.2487 132.964 84.179 132.934 84.1145C132.905 84.05 132.863 83.9919 132.81 83.9436C132.758 83.8952 132.697 83.8576 132.63 83.8327C132.563 83.8079 132.492 83.7964 132.42 83.7988L124.046 83.8335L92.9274 48.1385L84.3265 48.1731C83.5813 48.177 82.8446 48.33 82.1604 48.623C81.4762 48.9159 80.8585 49.3427 80.3443 49.8779L21.1033 74.9746L21.1469 85.472L110.123 85.1085L132.458 84.8777Z" fill="#3E3A39"/>
<path d="M21.1499 85.6393C21.1309 85.6397 21.112 85.6363 21.0944 85.6294C21.0768 85.6224 21.0608 85.6121 21.0472 85.5989C21.0337 85.5858 21.0229 85.57 21.0156 85.5527C21.0083 85.5354 21.0045 85.5168 21.0045 85.4979L20.9609 75.0006C20.9594 74.9718 20.967 74.9432 20.9827 74.9189C20.9983 74.8946 21.0211 74.8758 21.0481 74.865L80.263 49.7683C80.7909 49.2253 81.4228 48.7925 82.1216 48.4953C82.8204 48.198 83.572 48.0424 84.3323 48.0375L92.9303 48.0029C92.9509 48.0033 92.9713 48.0081 92.9898 48.0171C93.0084 48.0261 93.0247 48.0389 93.0378 48.0548L124.11 83.6921L132.415 83.6575C132.503 83.6556 132.591 83.6711 132.674 83.7032C132.757 83.7353 132.832 83.7833 132.896 83.8445C132.959 83.9056 133.01 83.9787 133.046 84.0595C133.081 84.1403 133.099 84.2272 133.101 84.3152C133.106 84.4036 133.094 84.4922 133.065 84.5758C133.035 84.6595 132.99 84.7366 132.93 84.8026C132.871 84.8686 132.799 84.9222 132.718 84.9604C132.638 84.9985 132.55 85.0204 132.461 85.0249V85.0249L110.132 85.2729L21.1528 85.6364L21.1499 85.6393ZM21.2515 75.0929L21.2923 85.3508L110.126 84.9874L132.449 84.7393C132.501 84.7379 132.552 84.726 132.599 84.7044C132.646 84.6827 132.688 84.6517 132.722 84.6133C132.756 84.5749 132.783 84.5299 132.799 84.4811C132.815 84.4323 132.821 84.3808 132.816 84.3296C132.817 84.2784 132.807 84.2276 132.787 84.1802C132.767 84.1329 132.738 84.0901 132.701 84.0544C132.664 84.0187 132.62 83.9909 132.572 83.9728C132.523 83.9546 132.472 83.9465 132.42 83.9489V83.9489L124.046 83.9835C124.025 83.9833 124.005 83.9789 123.986 83.9704C123.967 83.962 123.95 83.9497 123.936 83.9344L92.8664 48.2943L84.3323 48.3289C83.6068 48.3339 82.8897 48.4836 82.2236 48.769C81.5575 49.0544 80.956 49.4698 80.4548 49.9904C80.4426 50.0051 80.4264 50.016 80.4083 50.0222L21.2515 75.0929Z" fill="#3E3A39"/>
<path d="M18.5251 58.8983L10.7846 55.8896L9.14526 59.1897L9.22084 61.4772L19.6151 64.3763L18.5251 58.8983Z" fill="#3E3A39"/>
<path d="M19.6152 64.5205H19.5773L9.18014 61.6359C9.15042 61.6273 9.12431 61.6095 9.10549 61.5851C9.08666 61.5607 9.07616 61.531 9.07554 61.5003L8.99996 59.2127C8.99318 59.1901 8.99318 59.1661 8.99996 59.1435L10.6393 55.8434C10.6551 55.8108 10.6828 55.7852 10.7167 55.7719C10.7506 55.7585 10.7884 55.7583 10.8225 55.7713L18.56 58.7829C18.583 58.7915 18.6035 58.8058 18.6193 58.8245C18.635 58.8432 18.6457 58.8657 18.6501 58.8896L19.743 64.3705C19.7477 64.3945 19.7461 64.4193 19.7385 64.4425C19.7309 64.4657 19.7175 64.4866 19.6995 64.5032C19.6739 64.5177 19.6444 64.5237 19.6152 64.5205ZM9.3633 61.3676L19.4262 64.1744L18.3944 59.005L10.8573 56.0713L9.29063 59.2214L9.3633 61.3676Z" fill="#3E3A39"/>
<path d="M51.2109 67.1168L42.2409 60.6637L39.7353 54.3578L32.5355 54.1588C32.5355 54.1588 23.1731 53.3741 21.961 53.8703C20.7489 54.3665 16.5488 59.781 16.5488 59.781L12.6567 62.8763L17.4643 65.6859L22.4493 68.0716L22.5568 72.8976L27.4982 73.6736L34.2301 72.0871L37.9478 69.4187L51.2109 67.1168Z" fill="#579DC6"/>
<path d="M27.2946 72.6409H27.254L25.2629 72.064C25.2312 72.0549 25.2036 72.0354 25.1846 72.0086C25.1656 71.9819 25.1563 71.9496 25.1583 71.9169L25.2483 70.163C25.251 70.143 25.2569 70.1235 25.2658 70.1053L27.6144 65.5129L22.6004 55.5954C22.5914 55.5784 22.5859 55.5597 22.5843 55.5406C22.5826 55.5215 22.5848 55.5022 22.5908 55.4839C22.5968 55.4657 22.6063 55.4488 22.6189 55.4342C22.6315 55.4197 22.647 55.4078 22.6643 55.3992C22.6815 55.3909 22.7001 55.3859 22.7192 55.3847C22.7383 55.3835 22.7575 55.3861 22.7756 55.3923C22.7937 55.3984 22.8104 55.4081 22.8247 55.4206C22.839 55.4332 22.8507 55.4485 22.859 55.4656L27.908 65.4465C27.918 65.4672 27.9232 65.4899 27.9232 65.5129C27.9232 65.5359 27.918 65.5585 27.908 65.5792L25.539 70.1947L25.4548 71.8073L27.3354 72.3409C27.3536 72.3459 27.3706 72.3544 27.3855 72.366C27.4003 72.3776 27.4127 72.392 27.4219 72.4084C27.4311 72.4247 27.4369 72.4428 27.439 72.4614C27.4412 72.48 27.4395 72.4989 27.4342 72.5169C27.4294 72.5506 27.4128 72.5815 27.3872 72.6042C27.3617 72.6269 27.3289 72.6399 27.2946 72.6409V72.6409Z" fill="white"/>
<path d="M34.9683 75.0122H31.986L30.0385 77.8708C28.9488 79.5238 28.3838 81.4632 28.4166 83.4383C28.3999 85.4142 28.9811 87.3497 30.0851 88.9942L32.0558 91.8385H35.041C38.6772 91.8385 41.6129 88.0451 41.5926 83.3979C41.5722 78.7507 38.6075 74.9977 34.9683 75.0122Z" fill="#3E3A39"/>
<path d="M32.0557 91.9856C32.0321 91.9859 32.0087 91.9802 31.9879 91.9691C31.967 91.958 31.9493 91.9419 31.9365 91.9221L29.9658 89.0807C28.8478 87.4113 28.2577 85.4485 28.2712 83.444C28.24 81.4393 28.8139 79.4712 29.9193 77.793L31.8638 74.9342C31.8769 74.9147 31.8946 74.8987 31.9154 74.8876C31.9362 74.8765 31.9595 74.8707 31.9831 74.8708H34.9682H34.9914C38.6945 74.8708 41.7204 78.693 41.7378 83.4008C41.7553 88.1086 38.7527 91.9711 35.0525 91.9885H32.0674L32.0557 91.9856ZM32.0557 75.1593L30.1548 77.9545C29.0829 79.5823 28.5262 81.4911 28.5561 83.4354C28.5396 85.3841 29.1116 87.2931 30.1983 88.9163L32.1255 91.6971H35.0322C38.587 91.6971 41.4617 87.947 41.4269 83.4008C41.392 78.8545 38.5202 75.1564 34.9711 75.1564H34.9508L32.0557 75.1593Z" fill="#3E3A39"/>
<path d="M31.2175 91.9142C34.8567 91.8991 37.7911 88.1195 37.7714 83.4723C37.7518 78.8251 34.7857 75.07 31.1465 75.0852C27.5073 75.1003 24.573 78.8799 24.5926 83.5271C24.6123 88.1743 27.5783 91.9294 31.2175 91.9142Z" fill="#636363"/>
<path d="M31.2185 92C29.4222 92 27.7306 91.1144 26.4574 89.499C25.1439 87.7616 24.4459 85.6419 24.4722 83.47C24.4518 78.7507 27.4573 74.8996 31.1575 74.8852H31.1808C32.9771 74.8852 34.6688 75.7708 35.9419 77.3862C37.2572 79.1227 37.9554 81.243 37.9272 83.4152C37.9475 88.1345 34.942 91.9856 31.2418 92H31.2185ZM31.1924 75.1737H31.1721C27.6172 75.1737 24.7425 78.9237 24.7628 83.47C24.7359 85.5783 25.4125 87.6362 26.6871 89.323C27.905 90.8634 29.5123 91.7115 31.2185 91.7115H31.2389C34.7938 91.7115 37.6685 87.9615 37.6482 83.4152C37.6748 81.3074 36.9994 79.2499 35.7268 77.5622C34.5031 76.0218 32.8987 75.1737 31.1924 75.1737V75.1737Z" fill="#3E3A39"/>
<path d="M31.2103 90.2123C34.1127 90.2002 36.4529 87.1851 36.4372 83.4779C36.4216 79.7706 34.056 76.775 31.1536 76.7871C28.2512 76.7992 25.9111 79.8143 25.9268 83.5216C25.9424 87.2288 28.3079 90.2244 31.2103 90.2123Z" fill="white"/>
<path d="M31.2157 90.2981C29.7624 90.2981 28.4166 89.5855 27.3935 88.2788C26.3421 86.8868 25.7832 85.1893 25.8035 83.4498C25.789 79.6709 28.1986 76.5843 31.178 76.5727H31.1954C34.166 76.5727 36.5931 79.6334 36.6076 83.4065C36.6222 87.1855 34.2125 90.2721 31.2332 90.2836L31.2157 90.2981ZM31.1954 76.8756H31.178C28.3614 76.8756 26.0796 79.8411 26.0942 83.4642C26.0732 85.1392 26.6107 86.774 27.6231 88.1143C28.5881 89.3374 29.8641 90.0096 31.2157 90.0096H31.2332C34.0497 90.0096 36.3315 87.0413 36.317 83.421C36.3024 79.8065 34.0062 76.8756 31.1954 76.8756V76.8756Z" fill="#3E3A39"/>
<path d="M32.3174 83.4383C32.3174 84.22 31.8261 84.8576 31.2128 84.8604C30.5995 84.8633 30.0996 84.2316 30.0967 83.447C30.0938 82.6623 30.5879 82.0277 31.2012 82.0248C31.8145 82.0219 32.3145 82.6537 32.3174 83.4383Z" fill="white"/>
<path d="M31.2071 85.0047C30.5182 85.0047 29.9543 84.3066 29.9514 83.447C29.9485 82.5873 30.5065 81.8834 31.1983 81.8806C31.3753 81.8832 31.5491 81.9269 31.7061 82.008C31.863 82.0892 31.9987 82.2055 32.1023 82.3479C32.3397 82.6623 32.4664 83.0454 32.4628 83.4383C32.4628 84.3037 31.9047 85.0018 31.2129 85.0047H31.2071ZM31.2071 82.169C30.6751 82.169 30.245 82.746 30.2479 83.447C30.2508 84.1479 30.6839 84.7162 31.2129 84.7162C31.7477 84.7162 32.1779 84.1393 32.175 83.4383C32.1818 83.111 32.0796 82.7906 31.8843 82.5267C31.8061 82.42 31.7039 82.333 31.5859 82.2724C31.4678 82.2118 31.3371 82.1794 31.2042 82.1777L31.2071 82.169Z" fill="#3E3A39"/>
<path d="M101.47 74.741H98.4851L96.5405 77.5997C95.4488 79.253 94.8828 81.1936 94.9157 83.17C94.8995 85.1463 95.4817 87.0819 96.587 88.7259L98.5548 91.5673H101.54C105.179 91.5673 108.112 87.774 108.094 83.1268C108.077 78.4795 105.109 74.7266 101.47 74.741Z" fill="#3E3A39"/>
<path d="M98.5547 91.7231C98.5315 91.7229 98.5085 91.7174 98.4878 91.7069C98.4671 91.6964 98.4492 91.6812 98.4355 91.6625L96.4648 88.8182C95.3468 87.1488 94.7567 85.186 94.7702 83.1815C94.7393 81.1769 95.3133 79.2088 96.4183 77.5305L98.3628 74.6717C98.3765 74.6521 98.3947 74.6361 98.416 74.6251C98.4373 74.614 98.461 74.6083 98.485 74.6083H101.47H101.49C105.194 74.6083 108.219 78.4276 108.24 83.1383C108.26 87.8489 105.255 91.7086 101.554 91.7231H98.5692H98.5547ZM98.5547 74.8967L96.6508 77.692C95.5795 79.32 95.0228 81.2286 95.0522 83.1729C95.0366 85.1219 95.6096 87.0309 96.6973 88.6538L98.6216 91.4346H101.528C105.08 91.4346 107.955 87.6845 107.923 83.1383C107.891 78.592 105.016 74.8967 101.464 74.8967H101.444H98.5547Z" fill="#3E3A39"/>
<path d="M104.295 83.144C104.313 87.7884 101.389 91.5673 97.7409 91.5846C94.093 91.6019 91.1369 87.8345 91.1166 83.196C91.0962 78.5574 94.0233 74.7698 97.6711 74.7554C101.319 74.741 104.263 78.4968 104.295 83.144Z" fill="#636363"/>
<path d="M97.7206 91.7288C94.0175 91.7288 90.9916 87.9067 90.9713 83.1989C90.9509 78.4911 93.9565 74.6285 97.6712 74.6112C99.4675 74.6112 101.177 75.4939 102.456 77.1122C103.768 78.8502 104.466 80.9694 104.441 83.1412C104.458 87.8605 101.456 91.7115 97.741 91.7288H97.7206ZM97.6915 74.8996H97.6712C94.1192 74.8996 91.2445 78.6497 91.262 83.196C91.2794 87.7422 94.1977 91.4577 97.741 91.4404C101.284 91.4231 104.168 87.6903 104.15 83.144C104.178 81.0357 103.501 78.9777 102.226 77.2911C101.008 75.7478 99.3977 74.8996 97.6915 74.8996Z" fill="#3E3A39"/>
<path d="M102.961 83.1469C102.979 86.8566 100.636 89.8711 97.7292 89.8826C94.8225 89.8942 92.4594 86.897 92.4449 83.1902C92.4304 79.4834 94.7702 76.4689 97.6769 76.4574C100.584 76.4458 102.947 79.4401 102.961 83.1469Z" fill="white"/>
<path d="M97.7176 90.0269C96.2642 90.0269 94.9156 89.3143 93.8953 88.0076C92.8414 86.618 92.2822 84.9206 92.3054 83.1815C92.2879 79.3997 94.6976 76.3131 97.6769 76.3016H97.6943C99.1476 76.3016 100.496 77.0141 101.517 78.3208C102.569 79.711 103.128 81.4081 103.107 83.1469C103.124 86.9287 100.711 90.0153 97.735 90.0269H97.7176ZM97.6943 76.6016H97.6798C94.8604 76.6016 92.5786 79.5699 92.596 83.1902C92.574 84.8657 93.1105 86.5015 94.1221 87.8432C95.0929 89.0692 96.3718 89.7297 97.7321 89.7384C100.552 89.7384 102.83 86.7701 102.816 83.1498C102.838 81.4737 102.301 79.8375 101.287 78.4968C100.322 77.2737 99.0459 76.6016 97.6943 76.6016Z" fill="#3E3A39"/>
<path d="M98.8164 83.1642C98.8164 83.9489 98.3251 84.5864 97.7118 84.5893C97.0985 84.5921 96.5986 83.9575 96.5957 83.1758C96.5928 82.394 97.0869 81.7536 97.7002 81.7507C98.3135 81.7479 98.8135 82.3825 98.8164 83.1642Z" fill="white"/>
<path d="M97.7089 84.7306C97.5329 84.7273 97.3602 84.6833 97.2043 84.6022C97.0484 84.5211 96.9137 84.405 96.8108 84.2633C96.5713 83.9511 96.4444 83.5681 96.4504 83.1758C96.4504 82.3104 97.0055 81.6094 97.7002 81.6065C97.877 81.6078 98.051 81.6508 98.2077 81.7321C98.3644 81.8134 98.4993 81.9305 98.6013 82.0738C98.8379 82.3886 98.9645 82.7715 98.9617 83.1642C98.9617 84.0296 98.4036 84.7306 97.7118 84.7306H97.7089ZM97.7089 81.895C97.177 81.895 96.7468 82.4719 96.7497 83.1729C96.7414 83.5013 96.8437 83.8231 97.0404 84.0873C97.1156 84.1954 97.2159 84.284 97.3327 84.3458C97.4495 84.4075 97.5795 84.4405 97.7118 84.4421C98.2438 84.4421 98.674 83.8652 98.6711 83.1671C98.6778 82.8389 98.5757 82.5176 98.3804 82.2527C98.3042 82.1436 98.2032 82.0538 98.0855 81.9906C97.9679 81.9275 97.8368 81.8927 97.7031 81.8892L97.7089 81.895Z" fill="#3E3A39"/>
<path d="M124.32 50.3452C124.212 50.2327 124.096 50.1289 123.98 50.0251L97.0637 50.1347L97.1189 63.335L136.6 63.1734L124.32 50.3452Z" fill="#3E3A39"/>
<path d="M97.1246 63.4792C97.1056 63.4794 97.0867 63.4757 97.0691 63.4683C97.0516 63.4608 97.0359 63.4498 97.0229 63.4359C97.009 63.4231 96.9979 63.4074 96.9904 63.39C96.9829 63.3726 96.9791 63.3539 96.9793 63.335L96.9241 50.1347C96.9238 50.1158 96.9276 50.097 96.9352 50.0796C96.9427 50.0622 96.9537 50.0466 96.9677 50.0337C96.9806 50.0198 96.9964 50.0089 97.0139 50.0014C97.0314 49.9939 97.0504 49.9902 97.0694 49.9904L123.985 49.8808C124.021 49.8848 124.055 49.8977 124.084 49.9183L124.168 49.9933C124.258 50.0741 124.346 50.1578 124.433 50.2443L136.714 63.0725C136.732 63.0933 136.745 63.119 136.75 63.1465C136.754 63.1741 136.751 63.2025 136.74 63.2282C136.73 63.2546 136.712 63.2772 136.688 63.2932C136.665 63.3092 136.637 63.3177 136.609 63.3176L97.1246 63.4792V63.4792ZM97.2148 50.2789L97.27 63.1907L136.269 63.0292L124.221 50.4433C124.142 50.3597 124.055 50.2847 123.971 50.2068L123.93 50.1693L97.2148 50.2789Z" fill="#3E3A39"/>
<path d="M127.517 74.8823H125.947L124.349 64.0648L114.39 64.108L101.31 50.4346C100.61 49.7016 99.7651 49.1187 98.8288 48.7218C97.8925 48.3249 96.8843 48.1224 95.8662 48.1269L64.1485 48.2567C63.4031 48.2595 62.6661 48.412 61.9817 48.705C61.2973 48.998 60.6798 49.4254 60.1663 49.9616L39.962 63.4849L36.8548 65.6398L34.1777 70.913L25.4576 73.5323L18.3334 75.5112C17.6146 76.4751 17.2292 77.6438 17.2347 78.843L17.2637 85.5008L23.173 85.4777V83.2594C23.173 80.6026 24.7078 80.7036 26.2483 78.9324C27.8528 77.0804 27.411 78.7247 29.5852 76.5814L32.0122 73.4082C36.3722 73.388 39.1103 76.8958 39.8108 81.6671L40.3631 85.4172L89.7592 85.2152V82.9969C89.736 77.5708 91.9624 73.1631 97.9909 73.14C103.362 73.1169 105.298 76.6276 106.156 81.3988L106.801 84.9873L126.008 83.8335V83.7585H127.578L127.517 74.8823Z" fill="#95C3ED"/>
<path d="M60.3378 51.9462L42.9907 63.485L75.502 63.3523L75.4467 50.3712L63.9363 50.4203C63.2643 50.4239 62.5997 50.5607 61.9818 50.8228C61.3638 51.0848 60.8049 51.4668 60.3378 51.9462V51.9462Z" fill="#3E3A39"/>
<path d="M42.9907 63.6234C42.9597 63.6236 42.9293 63.6139 42.9042 63.5957C42.8791 63.5775 42.8605 63.5519 42.8512 63.5224C42.8429 63.4924 42.844 63.4606 42.8544 63.4312C42.8648 63.4018 42.8839 63.3763 42.9093 63.358L60.2448 51.8193C60.7271 51.3325 61.3014 50.9448 61.9348 50.6785C62.5682 50.4122 63.2484 50.2725 63.9363 50.2673L75.4468 50.2183C75.4859 50.219 75.5233 50.2345 75.5514 50.2616C75.5777 50.2887 75.5923 50.3249 75.5921 50.3625L75.6473 63.3436C75.6473 63.3818 75.632 63.4185 75.6047 63.4456C75.5775 63.4726 75.5405 63.4878 75.502 63.4878L42.9907 63.6205V63.6234ZM75.3043 50.5241L63.9363 50.5702C63.2854 50.5752 62.6419 50.7083 62.0432 50.9619C61.4445 51.2154 60.9023 51.5843 60.4483 52.0472L60.425 52.0645L43.479 63.3321L75.3625 63.2022L75.3043 50.5241Z" fill="#3E3A39"/>
<path d="M56.6084 63.4273L66.8661 50.4174H63.9361C63.2646 50.4202 62.6003 50.5561 61.9824 50.8172C61.3644 51.0782 60.8052 51.4592 60.3376 51.9376L54.2685 55.9761L48.3738 63.4503L56.6084 63.4273Z" fill="white"/>
<path d="M48.3738 63.6003C48.3466 63.6001 48.3201 63.5924 48.297 63.5782C48.2739 63.5639 48.2552 63.5436 48.243 63.5196C48.2314 63.495 48.2269 63.4677 48.2299 63.4407C48.233 63.4137 48.2436 63.3881 48.2605 63.3667L54.1523 55.8925L54.1871 55.8608L60.2447 51.8222C60.727 51.3354 61.3013 50.9477 61.9347 50.6814C62.5681 50.4151 63.2482 50.2754 63.9362 50.2702H66.8661C66.8934 50.2698 66.9203 50.2772 66.9435 50.2916C66.9666 50.3059 66.9852 50.3265 66.9969 50.351C67.0086 50.3751 67.0131 50.402 67.01 50.4285C67.0069 50.4551 66.9963 50.4802 66.9794 50.501L56.7218 63.5109C56.7087 63.5286 56.6916 63.543 56.6719 63.553C56.6523 63.5631 56.6305 63.5684 56.6084 63.5686L48.3738 63.6003V63.6003ZM54.3674 56.0887L48.6732 63.3004L56.5387 63.2686L66.5667 50.5472H63.9507C63.2998 50.5522 62.6563 50.6853 62.0575 50.9388C61.4588 51.1923 60.9168 51.5612 60.4627 52.0241L60.4394 52.0414L54.3674 56.0887Z" fill="#3E3A39"/>
<path d="M75.5019 63.3465L75.4642 54.0319L68.0986 63.3753L75.5019 63.3465Z" fill="white"/>
<path d="M68.0987 63.5195C68.0715 63.5196 68.0448 63.5121 68.0217 63.4978C67.9985 63.4835 67.9798 63.4631 67.9679 63.4388C67.9537 63.4158 67.9463 63.3893 67.9463 63.3624C67.9463 63.3354 67.9537 63.3089 67.9679 63.2859L75.3334 53.9453C75.3524 53.9219 75.3782 53.9047 75.4072 53.8959C75.4362 53.8872 75.4672 53.8873 75.4962 53.8963C75.5251 53.9064 75.55 53.9251 75.5677 53.9499C75.5854 53.9747 75.595 54.0043 75.5951 54.0347L75.6328 63.3465C75.633 63.3841 75.6185 63.4203 75.5921 63.4474C75.5641 63.4745 75.5266 63.49 75.4875 63.4907L68.0842 63.5195H68.0987ZM75.3189 54.4501L68.3981 63.2311L75.3567 63.2022L75.3189 54.4501Z" fill="#3E3A39"/>
<path d="M100.229 52.3876L107.656 59.8647C107.902 60.1138 108.078 60.4234 108.164 60.7618V60.7618C108.239 61.0521 108.246 61.3554 108.185 61.6488C108.124 61.9421 107.996 62.2178 107.811 62.4548C107.626 62.6917 107.39 62.8838 107.119 63.0163C106.848 63.1488 106.551 63.2184 106.249 63.2196L77.679 63.3378L77.6267 50.3568L95.1627 50.2846C96.1056 50.283 97.0395 50.4682 97.9095 50.8293C98.7794 51.1904 99.568 51.7202 100.229 52.3876V52.3876Z" fill="#3E3A39"/>
<path d="M77.6791 63.4821C77.6408 63.4812 77.6043 63.4657 77.5773 63.4388C77.5502 63.412 77.5346 63.3758 77.5337 63.3378L77.4814 50.3568C77.4814 50.319 77.4963 50.2828 77.523 50.2558C77.5496 50.2288 77.5858 50.2133 77.6239 50.2125L95.1627 50.1404C96.1236 50.1395 97.0751 50.3277 97.9622 50.6941C98.8493 51.0605 99.6544 51.5978 100.331 52.2751L107.757 59.7522C108.024 60.0185 108.214 60.3514 108.307 60.7157C108.387 61.0273 108.395 61.3532 108.329 61.6682C108.263 61.9833 108.125 62.2791 107.926 62.533C107.728 62.7873 107.474 62.9932 107.183 63.1352C106.892 63.2772 106.573 63.3514 106.249 63.3523L77.6791 63.4705V63.4821ZM77.7721 50.501L77.8244 63.1936L106.249 63.0782C106.529 63.0784 106.806 63.0147 107.058 62.8922C107.31 62.7697 107.53 62.5916 107.702 62.3715C107.874 62.152 107.993 61.8966 108.049 61.6246C108.106 61.3526 108.1 61.0713 108.031 60.8022C107.95 60.4876 107.786 60.1999 107.557 59.9685L100.13 52.4914C99.4832 51.8439 98.7135 51.3296 97.8655 50.9781C97.0175 50.6266 96.1079 50.4449 95.1889 50.4433H95.1598L77.7721 50.501Z" fill="#3E3A39"/>
<path d="M93.2938 50.3049L90.422 50.3164L80.1643 63.3263L83.0361 63.3148L93.2938 50.3049Z" fill="white"/>
<path d="M80.1614 63.4705C80.1342 63.4703 80.1076 63.4626 80.0845 63.4483C80.0615 63.4341 80.0428 63.4138 80.0305 63.3898C80.0189 63.3652 80.0145 63.3379 80.0175 63.3109C80.0206 63.2839 80.0311 63.2583 80.048 63.2369L90.3057 50.227C90.3191 50.2098 90.3363 50.1959 90.3559 50.1864C90.3756 50.1769 90.3972 50.1721 90.4191 50.1722H93.2908C93.3181 50.1721 93.3448 50.1797 93.3679 50.1939C93.391 50.2082 93.4096 50.2287 93.4216 50.2529C93.4357 50.276 93.4432 50.3024 93.4432 50.3294C93.4432 50.3563 93.4357 50.3828 93.4216 50.4058L83.1639 63.4157C83.1503 63.4326 83.1331 63.4462 83.1135 63.4557C83.0939 63.4652 83.0724 63.4702 83.0506 63.4705H80.1759H80.1614ZM90.4917 50.4606L80.4608 63.1821H82.9634L92.9914 50.4606H90.4917Z" fill="#3E3A39"/>
<path d="M77.6326 51.2856L77.6733 61.6416L86.591 50.3308L78.3563 50.3654L77.6326 51.2856Z" fill="white"/>
<path d="M77.6733 61.7859C77.6579 61.7889 77.6422 61.7889 77.6268 61.7859C77.5982 61.7763 77.5733 61.7581 77.5556 61.7338C77.5378 61.7095 77.5282 61.6803 77.5279 61.6503L77.4844 51.2943C77.4848 51.2618 77.496 51.2304 77.5163 51.2049L78.2401 50.2847C78.2537 50.2678 78.271 50.2542 78.2906 50.2447C78.3102 50.2352 78.3317 50.2302 78.3535 50.2299L86.5881 50.1952C86.6158 50.1947 86.643 50.2024 86.6663 50.2173C86.6896 50.2322 86.7079 50.2537 86.7188 50.2789C86.7337 50.3011 86.7417 50.3272 86.7417 50.3539C86.7417 50.3806 86.7337 50.4067 86.7188 50.4289L77.8012 61.7397C77.7854 61.7574 77.7654 61.7709 77.7431 61.779C77.7208 61.787 77.6968 61.7894 77.6733 61.7859ZM77.775 51.3347L77.8157 61.2263L86.2916 50.4779L78.4261 50.5097L77.775 51.3347Z" fill="#3E3A39"/>
<path d="M124.352 64.0705L145.445 63.984C145.98 63.9826 146.498 64.1725 146.903 64.519C147.308 64.8655 147.574 65.3454 147.651 65.8706L148.974 74.7929L125.95 74.8881L124.352 64.0705Z" fill="#579DC6"/>
<path d="M146.018 65.6456H136.013V69.7216H146.018V65.6456Z" fill="white"/>
<path d="M134.406 73.1313C134.368 73.1315 134.331 73.117 134.304 73.0909C134.277 73.0631 134.261 73.0259 134.26 72.9871L134.243 68.911C134.243 68.8728 134.258 68.8361 134.285 68.8091C134.313 68.782 134.35 68.7668 134.388 68.7668L144.393 68.7264C144.412 68.726 144.431 68.7294 144.448 68.7363C144.466 68.7433 144.482 68.7536 144.496 68.7668C144.509 68.7799 144.52 68.7957 144.527 68.813C144.535 68.8303 144.538 68.8489 144.538 68.8678L144.556 72.9467C144.556 72.9656 144.552 72.9844 144.545 73.0018C144.537 73.0192 144.526 73.0348 144.512 73.0477C144.499 73.0615 144.483 73.0725 144.466 73.08C144.448 73.0874 144.43 73.0912 144.411 73.0909L134.406 73.1313ZM134.536 69.0553V72.8428L144.251 72.8025L144.233 69.0149L134.536 69.0553Z" fill="#3E3A39"/>
<path d="M107.214 76.9218C107.137 76.9218 107.063 76.8914 107.008 76.8373C106.954 76.7832 106.923 76.7098 106.923 76.6333C106.923 76.5568 106.954 76.4834 107.008 76.4293C107.063 76.3752 107.137 76.3448 107.214 76.3448L150.081 76.1689C150.159 76.1689 150.233 76.1993 150.287 76.2534C150.342 76.3075 150.372 76.3808 150.372 76.4574C150.372 76.5339 150.342 76.6072 150.287 76.6613C150.233 76.7154 150.159 76.7458 150.081 76.7458L107.214 76.9218Z" fill="white"/>
<path d="M40.5548 77.1958C40.4777 77.1958 40.4038 77.1655 40.3492 77.1114C40.2947 77.0573 40.2642 76.9839 40.2642 76.9074C40.2642 76.8309 40.2947 76.7575 40.3492 76.7034C40.4038 76.6493 40.4777 76.6189 40.5548 76.6189L88.0587 76.4228C88.1358 76.4228 88.2097 76.4531 88.2642 76.5072C88.3187 76.5613 88.3494 76.6347 88.3494 76.7112C88.3494 76.7877 88.3187 76.8611 88.2642 76.9152C88.2097 76.9693 88.1358 76.9997 88.0587 76.9997L40.5577 77.1958H40.5548Z" fill="white"/>
<path d="M19.3478 77.2737C19.2707 77.2737 19.1967 77.2433 19.1422 77.1892C19.0877 77.1351 19.0571 77.0617 19.0571 76.9852C19.0571 76.9087 19.0877 76.8353 19.1422 76.7812C19.1967 76.7271 19.2707 76.6968 19.3478 76.6968L24.7833 76.6737C24.8604 76.6737 24.9343 76.7041 24.9888 76.7582C25.0433 76.8123 25.0739 76.8857 25.0739 76.9622C25.0739 77.0387 25.0433 77.112 24.9888 77.1661C24.9343 77.2202 24.8604 77.2506 24.7833 77.2506L19.3449 77.2737H19.3478Z" fill="white"/>
<path d="M132.662 68.9832L123.212 69.0235C122.775 69.0246 122.347 69.1467 121.975 69.376C121.604 69.6053 121.305 69.9328 121.111 70.3216L119.544 73.466C119.471 73.6101 119.437 73.7702 119.445 73.9311C119.452 74.092 119.501 74.2483 119.587 74.3851C119.673 74.5219 119.792 74.6346 119.934 74.7126C120.076 74.7905 120.236 74.8311 120.398 74.8304L132.688 74.7785L132.662 68.9832Z" fill="#FFDB74"/>
<path d="M120.396 74.966C120.209 74.9664 120.026 74.9195 119.863 74.8296C119.7 74.7397 119.563 74.6099 119.466 74.4525C119.365 74.2955 119.308 74.1155 119.299 73.93C119.29 73.7445 119.329 73.5598 119.413 73.3938L120.98 70.2495C121.185 69.8355 121.503 69.4868 121.897 69.2431C122.292 68.9994 122.747 68.8703 123.212 68.8707L132.662 68.8303C132.7 68.8303 132.737 68.8455 132.765 68.8725C132.792 68.8996 132.807 68.9362 132.807 68.9745L132.833 74.7698C132.833 74.8078 132.817 74.844 132.79 74.8708C132.777 74.8847 132.761 74.8956 132.744 74.9031C132.726 74.9105 132.707 74.9143 132.688 74.914L120.401 74.966H120.396ZM132.519 69.1187L123.218 69.1591C122.807 69.1588 122.405 69.2731 122.056 69.4888C121.708 69.7046 121.428 70.0131 121.247 70.3793L119.669 73.5236C119.607 73.6458 119.579 73.7816 119.585 73.918C119.592 74.0544 119.634 74.1868 119.707 74.3025C119.779 74.4181 119.879 74.5135 119.999 74.5797C120.118 74.6458 120.253 74.6805 120.39 74.6804L132.531 74.6285L132.519 69.1187Z" fill="#3E3A39"/>
<path d="M132.665 68.9832L125.046 69.0149L125.904 74.8073L132.688 74.7785L132.665 68.9832Z" fill="#3E3A39"/>
<path d="M125.904 74.966C125.869 74.9657 125.835 74.9531 125.808 74.9304C125.781 74.9077 125.764 74.8763 125.758 74.8419L124.901 69.0495C124.899 69.0289 124.9 69.0081 124.906 68.9883C124.912 68.9684 124.922 68.95 124.936 68.9341C124.949 68.9184 124.966 68.9058 124.985 68.8974C125.005 68.8889 125.025 68.8847 125.046 68.8851L132.662 68.8534C132.681 68.8519 132.701 68.855 132.719 68.8625C132.737 68.87 132.754 68.8817 132.766 68.8966C132.793 68.9237 132.807 68.96 132.807 68.9976L132.833 74.7929C132.832 74.8309 132.817 74.867 132.79 74.8939C132.777 74.9077 132.761 74.9187 132.743 74.9262C132.726 74.9336 132.707 74.9374 132.688 74.9371L125.904 74.966V74.966ZM125.215 69.1736L126.029 74.6775L132.54 74.6487L132.519 69.1418L125.215 69.1736Z" fill="#3E3A39"/>
<path d="M148.07 68.9197L145.762 68.9283L145.756 74.7237L148.928 74.7121L148.07 68.9197Z" fill="#3E3A39"/>
<path d="M145.756 74.8708C145.717 74.8695 145.68 74.8541 145.652 74.8275C145.625 74.8004 145.611 74.7642 145.611 74.7266V68.9312C145.611 68.893 145.626 68.8563 145.654 68.8292C145.681 68.8022 145.718 68.787 145.756 68.787H148.061C148.096 68.7872 148.13 68.7999 148.157 68.8226C148.184 68.8453 148.201 68.8766 148.207 68.911L149.079 74.7035C149.082 74.7241 149.08 74.7451 149.074 74.7651C149.068 74.785 149.058 74.8034 149.044 74.8189C149.03 74.8346 149.013 74.8471 148.994 74.8556C148.975 74.8641 148.954 74.8683 148.933 74.8679L145.765 74.8823L145.756 74.8708ZM145.908 69.0726V74.5794H148.762L147.948 69.0755L145.908 69.0726Z" fill="#3E3A39"/>
<path d="M45.1751 60.82L40.2715 60.8404C39.9505 60.8418 39.6913 61.1011 39.6926 61.4198L39.7093 65.3602C39.7106 65.6788 39.972 65.9361 40.293 65.9347L45.1966 65.9143C45.5176 65.913 45.7768 65.6536 45.7755 65.335L45.7588 61.3945C45.7575 61.0759 45.4961 60.8187 45.1751 60.82Z" fill="#3E3A39"/>
<path d="M40.3166 66.0235C40.2213 66.0239 40.1269 66.0056 40.0387 65.9696C39.9506 65.9337 39.8705 65.8809 39.803 65.8141C39.7355 65.7474 39.6819 65.6681 39.6453 65.5807C39.6088 65.4934 39.59 65.3998 39.59 65.3052L39.5725 61.3647C39.5725 61.1737 39.6486 60.9904 39.7841 60.8548C39.9197 60.7191 40.1038 60.6422 40.2963 60.6407L45.1999 60.6205C45.2949 60.6202 45.3891 60.6387 45.4769 60.6749C45.5647 60.711 45.6445 60.7641 45.7115 60.8311C45.78 60.8969 45.8344 60.9758 45.8713 61.0631C45.9083 61.1503 45.9271 61.2441 45.9265 61.3388L45.944 65.2792C45.9443 65.374 45.9257 65.4679 45.8893 65.5556C45.8529 65.6432 45.7993 65.7228 45.7318 65.7898C45.6654 65.8578 45.5859 65.9118 45.498 65.9485C45.4101 65.9852 45.3156 66.0038 45.2202 66.0033L40.3166 66.0235V66.0235ZM45.2028 60.909L40.2992 60.9291C40.1833 60.9299 40.0724 60.9761 39.9907 61.0577C39.909 61.1393 39.8632 61.2497 39.8632 61.3647L39.8806 65.3052C39.8814 65.4195 39.9277 65.5288 40.0094 65.6093C40.091 65.6898 40.2015 65.735 40.3166 65.735L45.2231 65.7148C45.2799 65.7147 45.3361 65.7034 45.3885 65.6816C45.4409 65.6598 45.4884 65.628 45.5283 65.5879C45.5692 65.548 45.6016 65.5004 45.6236 65.4479C45.6456 65.3954 45.6567 65.339 45.6562 65.2821L45.6388 61.3417C45.6387 61.2269 45.5927 61.1169 45.5109 61.0359C45.4699 60.9958 45.4212 60.9643 45.3678 60.943C45.3145 60.9217 45.2574 60.9111 45.1999 60.9118L45.2028 60.909Z" fill="#3E3A39"/>
<path d="M74.7159 65.7858L68.8823 65.8101L68.8921 68.1264L74.7257 68.1022L74.7159 65.7858Z" fill="#3E3A39"/>
<path d="M68.9095 68.2245C68.8714 68.2245 68.8349 68.2097 68.8077 68.1832C68.7806 68.1568 68.7649 68.1209 68.7642 68.0831V65.7754C68.7644 65.737 68.7788 65.7 68.8048 65.6715C68.8335 65.6457 68.8708 65.6313 68.9095 65.6311L74.7432 65.6052C74.7814 65.606 74.8179 65.6215 74.8449 65.6484C74.872 65.6752 74.8876 65.7114 74.8885 65.7494V68.0572C74.8887 68.0948 74.8741 68.131 74.8478 68.1581C74.8343 68.1721 74.818 68.1831 74.8 68.1905C74.782 68.198 74.7627 68.2017 74.7432 68.2014L68.9123 68.2245H68.9095ZM69.0461 65.9167V67.936L74.5891 67.9129V65.8937L69.0461 65.9167Z" fill="#3E3A39"/>
<path d="M76.2024 82.5527C76.1638 82.5527 76.1269 82.5375 76.0996 82.5104C76.0724 82.4834 76.057 82.4467 76.057 82.4085L75.9844 64.8119C75.9844 64.7737 75.9997 64.737 76.027 64.7099C76.0542 64.6829 76.0912 64.6677 76.1297 64.6677C76.1683 64.6677 76.2052 64.6829 76.2325 64.7099C76.2597 64.737 76.275 64.7737 76.275 64.8119L76.3477 82.4085C76.3481 82.4273 76.3447 82.446 76.3377 82.4634C76.3307 82.4809 76.3203 82.4968 76.307 82.5103C76.2938 82.5237 76.278 82.5344 76.2605 82.5416C76.243 82.5489 76.2242 82.5527 76.2053 82.5527H76.2024Z" fill="white"/>
<path d="M41.5926 83.545C41.5557 83.5444 41.5204 83.5302 41.4935 83.5051C41.4666 83.48 41.4501 83.4459 41.4472 83.4094C41.1566 79.2295 39.8631 76.6131 38.8312 75.1535C37.718 73.5756 36.6628 72.9755 36.6541 72.9698C36.6207 72.9509 36.596 72.9199 36.5851 72.8833C36.5743 72.8468 36.5782 72.8074 36.596 72.7736C36.6154 72.7409 36.6469 72.717 36.6837 72.7068C36.7205 72.6966 36.7599 72.7009 36.7936 72.7188C36.8401 72.7448 37.9069 73.3477 39.0579 74.9717C40.0985 76.4458 41.4008 79.0738 41.7234 83.2537L86.9339 83.069C86.9724 83.069 87.0094 83.0842 87.0367 83.1113C87.0639 83.1383 87.0792 83.175 87.0792 83.2133C87.0792 83.2515 87.0639 83.2882 87.0367 83.3153C87.0094 83.3423 86.9724 83.3575 86.9339 83.3575L41.5896 83.545H41.5926Z" fill="#3E3A39"/>
<path d="M108.376 76.1689C108.347 76.1694 108.319 76.1607 108.295 76.1441C108.271 76.1276 108.253 76.1039 108.243 76.0766C108.22 76.0189 105.941 70.4197 98.7002 70.4197H98.642C94.6337 70.437 91.666 72.0611 89.8319 75.2458C89.8228 75.2625 89.8104 75.2773 89.7954 75.2892C89.7805 75.301 89.7633 75.3098 89.7448 75.3149C89.7264 75.32 89.7071 75.3214 89.6881 75.319C89.6691 75.3165 89.6507 75.3103 89.6342 75.3006C89.6176 75.2913 89.603 75.2788 89.5913 75.2639C89.5797 75.2489 89.5711 75.2318 89.5662 75.2135C89.5613 75.1952 89.5603 75.1761 89.563 75.1574C89.5657 75.1387 89.5721 75.1207 89.5819 75.1044C91.4713 71.8217 94.5232 70.1486 98.6391 70.1313C102.549 70.1313 105.034 71.7005 106.414 73.0361C107.304 73.8664 108.018 74.8648 108.513 75.9727C108.52 75.9905 108.523 76.0095 108.523 76.0286C108.523 76.0477 108.518 76.0665 108.51 76.084C108.503 76.1014 108.491 76.1171 108.477 76.1302C108.463 76.1433 108.447 76.1535 108.429 76.1602C108.412 76.1662 108.394 76.1691 108.376 76.1689V76.1689Z" fill="white"/>
</g>
</g>
<path d="M46.928 128.032V129.136H60.272V128.032H46.928ZM46.432 137.856V138.96H60.816V137.856H46.432ZM52.944 126.576V141.328H54.176V126.576H52.944ZM49.264 133.888H57.92V135.552H49.264V133.888ZM49.264 131.312H57.92V132.944H49.264V131.312ZM48.112 130.304V136.544H59.12V130.304H48.112ZM63.968 128.304V129.344H69.648V128.304H63.968ZM63.824 137.44V138.48H69.76V137.44H63.824ZM66.352 126.576V130.88H67.392V126.576H66.352ZM66.464 130.928V135.84H66.352V141.296H67.392V135.84H67.28V130.928H66.464ZM65.152 133.76H68.608V135.28H65.152V133.76ZM65.152 131.392H68.608V132.896H65.152V131.392ZM64.304 130.496V136.176H69.472V130.496H64.304ZM69.952 127.84V128.88H78.448V127.84H69.952ZM71.536 132.912V133.68H72.736V132.912H71.536ZM70.144 130.48V141.264H71.072V131.488H77.744V130.48H70.144ZM77.28 130.48V139.984C77.28 140.176 77.216 140.24 77.008 140.24C76.816 140.256 76.16 140.256 75.44 140.224C75.568 140.512 75.728 140.96 75.776 141.232C76.72 141.232 77.36 141.216 77.76 141.056C78.144 140.88 78.256 140.576 78.256 139.984V130.48H77.28ZM72.304 132.912C72.304 134.88 72.384 136.832 73.264 138.304C73.376 138.16 73.664 137.92 73.824 137.824C72.976 136.464 72.928 134.72 72.928 132.912H72.304ZM72.288 133.168C72.144 135.264 71.808 137.008 71.104 137.792C71.28 137.952 71.472 138.208 71.568 138.416C72.352 137.456 72.72 135.6 72.88 133.44L72.288 133.168ZM74.944 132.912V133.68H76.192V132.912H74.944ZM75.792 132.912C75.792 134.88 75.904 136.88 76.912 138.336C77.024 138.192 77.312 137.952 77.472 137.856C76.48 136.48 76.416 134.736 76.416 132.912H75.792ZM75.76 133.168C75.6 135.2 75.232 136.976 74.48 137.776C74.672 137.936 74.864 138.176 74.96 138.384C75.792 137.44 76.208 135.536 76.368 133.424L75.76 133.168ZM73.6 128.016V131.2H73.728V141.152H74.528V131.2H74.656V128.016H73.6ZM89.088 128.016H93.904V129.68H89.088V128.016ZM87.984 127.136V130.576H95.072V127.136H87.984ZM92.272 139.216C93.328 139.856 94.48 140.688 95.104 141.296L96.288 140.672C95.568 140.048 94.32 139.2 93.184 138.56L92.272 139.216ZM89.344 138.512C88.64 139.2 87.12 140.016 85.872 140.448C86.144 140.672 86.496 141.056 86.688 141.312C87.952 140.816 89.504 140 90.432 139.2L89.344 138.512ZM88.688 134.368H94.272V135.568H88.688V134.368ZM88.688 136.432H94.272V137.632H88.688V136.432ZM88.688 132.352H94.272V133.52H88.688V132.352ZM87.552 131.44V138.544H95.472V131.44H87.552ZM81.248 135.056L81.584 136.208C83.104 135.776 85.104 135.168 86.992 134.576L86.848 133.472C84.784 134.08 82.656 134.688 81.248 135.056ZM81.488 129.792V130.928H86.8V129.792H81.488ZM83.776 126.576V139.872C83.776 140.112 83.696 140.176 83.472 140.176C83.28 140.192 82.608 140.192 81.872 140.176C82.032 140.48 82.208 140.976 82.24 141.264C83.312 141.28 83.968 141.248 84.384 141.056C84.8 140.88 84.96 140.544 84.96 139.872V126.576H83.776ZM106.176 132.112H111.152V133.072H106.176V132.112ZM106.176 130.48H111.152V131.408H106.176V130.48ZM105.072 129.728V133.824H112.304V129.728H105.072ZM105.568 126.56C104.992 128.08 104.048 129.632 103.008 130.64C103.28 130.8 103.728 131.168 103.936 131.344C104.944 130.256 105.984 128.544 106.64 126.848L105.568 126.56ZM105.584 127.952L105.136 128.88H113.44V127.952H105.584ZM103.04 134.608V135.536H113.84V134.608H103.04ZM106.08 135.04C105.328 136.272 104.048 137.408 102.768 138.176C102.976 138.336 103.36 138.72 103.52 138.912C104.816 138.048 106.192 136.736 107.04 135.344L106.08 135.04ZM107.328 136.752C106.576 138.24 105.216 139.568 103.792 140.416C104.032 140.576 104.4 140.944 104.576 141.12C105.984 140.16 107.424 138.704 108.272 137.056L107.328 136.752ZM110.016 136.752C109.44 138.384 108.336 139.824 107.024 140.736C107.248 140.896 107.664 141.216 107.84 141.392C109.136 140.384 110.352 138.816 111.008 136.992L110.016 136.752ZM105.408 136.496L104.704 137.376H112.656V136.496H105.408ZM112.288 136.496V136.656C112.048 139.008 111.792 139.952 111.472 140.24C111.36 140.368 111.232 140.384 111.008 140.384C110.784 140.384 110.256 140.384 109.68 140.32C109.824 140.576 109.936 140.976 109.952 141.264C110.544 141.296 111.136 141.296 111.44 141.28C111.824 141.264 112.096 141.168 112.336 140.928C112.752 140.496 113.04 139.472 113.312 136.96C113.344 136.8 113.36 136.496 113.36 136.496H112.288ZM102.624 126.624C101.728 129.056 100.224 131.456 98.64 133.008C98.864 133.28 99.2 133.92 99.328 134.192C101.056 132.4 102.704 129.696 103.76 126.976L102.624 126.624ZM100.96 130.752V141.264H102.112V129.632L102.08 129.616L100.96 130.752Z" fill="black"/>
<defs>
<clipPath id="clip0_2_4365">
<rect width="142" height="44" fill="white" transform="translate(9 48)"/>
</clipPath>
<clipPath id="clip1_2_4365">
<rect width="142" height="44" fill="white" transform="translate(9 48)"/>
</clipPath>
</defs>
</svg>
