<svg width="967" height="290" viewBox="0 0 967 290" fill="none" xmlns="http://www.w3.org/2000/svg">
<g id="pic_crash">
<g id="greencar">
<g id="Group">
<g id="a">
<g id="Group_2">
<g id="Group_3">
<g id="Group_4">
<g id="Group_5">
<path id="Vector" d="M828.54 181.2L818.3 181.95L818.17 182.18C817.29 182.11 816.4 182.09 815.51 182.16C803.02 183.07 793.85 196.83 795.02 212.9C796.19 228.97 807.26 241.25 819.75 240.34C820.65 240.27 821.52 240.13 822.38 239.93L822.54 240.14L832.78 239.39C845.27 238.48 854.44 224.72 853.27 208.65C852.1 192.58 841.03 180.3 828.54 181.21V181.2Z" fill="#3E3A39"/>
<path id="Vector_2" d="M818.43 240.88C812.71 240.88 807.19 238.23 802.76 233.31C798.02 228.04 795.09 220.8 794.51 212.92C793.32 196.61 802.72 182.58 815.46 181.65C816.21 181.59 817 181.6 817.88 181.65C817.97 181.53 818.1 181.46 818.25 181.44L828.49 180.69C834.69 180.24 840.73 182.91 845.5 188.21C850.24 193.48 853.17 200.71 853.75 208.6C854.94 224.91 845.54 238.94 832.8 239.87L822.56 240.62C822.42 240.62 822.27 240.58 822.17 240.47C821.31 240.65 820.52 240.77 819.77 240.82C819.32 240.85 818.87 240.87 818.42 240.87L818.43 240.88ZM816.62 182.61C816.24 182.61 815.89 182.62 815.54 182.65C803.35 183.54 794.36 197.09 795.51 212.85C796.07 220.51 798.91 227.54 803.5 232.64C808.06 237.71 813.81 240.26 819.7 239.83C820.49 239.77 821.32 239.64 822.26 239.43C822.45 239.39 822.64 239.46 822.76 239.6L832.74 238.87C844.93 237.98 853.92 224.43 852.77 208.67C852.21 201.01 849.37 193.98 844.78 188.88C840.22 183.81 834.47 181.26 828.58 181.69L818.6 182.42C818.5 182.59 818.32 182.68 818.13 182.67C817.6 182.63 817.1 182.61 816.62 182.61V182.61Z" fill="#3E3A39"/>
</g>
<g id="Group_6">
<path id="Vector_3" d="M618.77 196.48L608.53 197.23L608.4 197.46C607.52 197.39 606.63 197.37 605.74 197.44C593.25 198.35 584.08 212.11 585.25 228.18C586.42 244.25 597.49 256.53 609.98 255.62C610.88 255.55 611.75 255.41 612.61 255.21L612.77 255.42L623.01 254.67C635.5 253.76 644.67 240 643.5 223.93C642.33 207.86 631.26 195.58 618.77 196.49V196.48Z" fill="#3E3A39"/>
<path id="Vector_4" d="M608.66 256.16C602.94 256.16 597.42 253.51 592.99 248.59C588.25 243.32 585.32 236.08 584.74 228.2C584.17 220.32 586.01 212.73 589.95 206.83C593.91 200.89 599.5 197.38 605.7 196.92C606.45 196.86 607.25 196.87 608.12 196.92C608.21 196.8 608.34 196.73 608.49 196.72L618.73 195.97L618.77 196.47L618.73 195.97C624.93 195.52 630.97 198.19 635.74 203.49C640.48 208.76 643.41 215.99 643.99 223.88C644.56 231.76 642.72 239.35 638.78 245.25C634.82 251.19 629.23 254.7 623.03 255.16L612.79 255.91C612.65 255.92 612.5 255.87 612.4 255.76C611.54 255.94 610.75 256.06 610 256.11C609.55 256.14 609.1 256.16 608.65 256.16H608.66ZM606.85 197.89C606.47 197.89 606.11 197.9 605.77 197.93C599.89 198.36 594.57 201.72 590.78 207.39C586.97 213.1 585.18 220.47 585.74 228.13C586.3 235.79 589.14 242.82 593.73 247.92C598.29 252.99 604.04 255.53 609.93 255.11C610.72 255.05 611.55 254.92 612.49 254.71C612.68 254.67 612.87 254.74 612.99 254.88L622.97 254.15C628.85 253.72 634.17 250.36 637.96 244.69C641.77 238.98 643.56 231.61 643 223.95C642.44 216.29 639.6 209.26 635.01 204.16C630.45 199.09 624.7 196.54 618.81 196.97L608.83 197.7C608.73 197.87 608.55 197.96 608.36 197.95C607.83 197.91 607.33 197.89 606.86 197.89H606.85Z" fill="#3E3A39"/>
</g>
<path id="Vector_5" d="M926.05 174.96L921.14 175.32L914.49 144.77C913.68 141.05 910.26 138.49 906.46 138.77L878.92 140.78L830.74 96.5799C825.52 91.7899 818.57 89.3699 811.51 89.8899L692.95 98.5299C687.78 98.9099 682.99 101.38 679.69 105.37L482.31 206.16L484.95 242.46L790.26 220.22L866.84 214.09L923.39 206.23L923.37 205.97L928.04 205.63C929.07 205.55 929.84 204.66 929.77 203.63L927.79 176.47C927.72 175.57 926.94 174.9 926.05 174.96V174.96Z" fill="#579DC6"/>
<g id="Group_7">
<path id="Vector_6" d="M841.47 210.87L841.85 216.08L866.84 214.08L923.39 206.22L923.37 205.96L928.04 205.62C928.77 205.57 929.36 205.09 929.62 204.45L841.47 210.87Z" fill="#3E3A39"/>
<path id="Vector_7" d="M841.85 216.58C841.73 216.58 841.62 216.54 841.52 216.46C841.42 216.37 841.36 216.25 841.35 216.12L840.97 210.91C840.95 210.63 841.16 210.4 841.43 210.38L929.58 203.96C929.74 203.95 929.92 204.02 930.02 204.17C930.12 204.31 930.14 204.49 930.08 204.65C929.73 205.5 928.96 206.06 928.07 206.13L923.84 206.44C923.77 206.59 923.63 206.7 923.45 206.73L866.9 214.59L841.88 216.59H841.84L841.85 216.58ZM842.01 211.33L842.32 215.54L866.81 213.58L922.91 205.78C922.93 205.73 922.96 205.68 923 205.63C923.09 205.53 923.21 205.47 923.34 205.46L928.01 205.12C928.13 205.12 928.25 205.08 928.36 205.04L842.01 211.33V211.33Z" fill="#3E3A39"/>
</g>
<g id="Group_8">
<path id="Vector_8" d="M866.84 214.08C869.23 213.75 868.85 210.19 866.45 210.36L837.72 212.45L722.45 96.3599L692.94 98.5099C687.77 98.8899 682.98 101.36 679.68 105.35L482.31 206.16L484.95 242.46L790.26 220.22L866.84 214.09V214.08Z" fill="#3E3A39"/>
<path id="Vector_9" d="M484.95 242.95C484.69 242.95 484.47 242.75 484.45 242.49L481.81 206.2C481.8 206 481.9 205.81 482.08 205.72L679.36 104.96C682.73 100.93 687.66 98.4099 692.91 98.0299L722.42 95.8799C722.57 95.8799 722.71 95.9199 722.81 96.0299L837.92 211.96L866.42 209.88C867.92 209.77 868.83 210.86 868.95 211.99C869.07 213.12 868.41 214.38 866.92 214.59H866.89L790.31 220.72L484.99 242.95H484.95ZM482.83 206.45L485.41 241.92L790.22 219.72L866.78 213.6C867.68 213.47 868.01 212.75 867.94 212.1C867.87 211.44 867.4 210.81 866.48 210.88L837.75 212.97C837.61 212.98 837.46 212.93 837.36 212.82L722.25 96.8899L692.97 99.0199C687.96 99.3799 683.26 101.81 680.06 105.68C680.02 105.73 679.96 105.78 679.9 105.81L482.83 206.45V206.45Z" fill="#3E3A39"/>
</g>
<g id="Group_9">
<g id="Group_10">
<path id="Vector_10" d="M469.62 151.11L442.35 142.52L437.5 154.33L438.31 162.22L474.67 169.8L469.62 151.11Z" fill="#3E3A39"/>
<path id="Vector_11" d="M474.67 170.3C474.67 170.3 474.6 170.3 474.57 170.29L438.2 162.71C437.99 162.67 437.83 162.49 437.8 162.27L437 154.38C437 154.3 437 154.22 437.03 154.14L441.88 142.33C441.98 142.09 442.24 141.96 442.49 142.04L469.76 150.63C469.92 150.68 470.05 150.81 470.09 150.98L475.14 169.67C475.19 169.84 475.14 170.02 475.02 170.14C474.92 170.24 474.79 170.3 474.66 170.3H474.67ZM438.77 161.8L473.98 169.14L469.21 151.5L442.63 143.13L438.01 154.39L438.77 161.79V161.8Z" fill="#3E3A39"/>
</g>
<path id="Vector_12" d="M583.77 171.82L551.44 151.62L541.34 130.41L516.59 131.42C516.59 131.42 484.26 130.91 480.22 132.94C476.18 134.97 463.05 154.66 463.05 154.66L450.42 166.28L467.59 174.87L485.27 181.94L486.79 198.61L503.96 200.13L526.69 193.06L538.81 182.96L583.76 171.85L583.77 171.82Z" fill="#579DC6"/>
<path id="Vector_13" d="M502.96 196.56C502.96 196.56 502.89 196.56 502.86 196.55L495.89 195.07C495.66 195.02 495.5 194.82 495.49 194.59L495.39 188.5C495.39 188.43 495.4 188.36 495.43 188.3L502.4 171.86L482.83 138.74C482.69 138.5 482.77 138.2 483.01 138.05C483.25 137.91 483.55 137.99 483.69 138.23L503.39 171.57C503.47 171.71 503.48 171.87 503.42 172.02L496.39 188.59L496.48 194.18L503.06 195.58C503.33 195.64 503.5 195.9 503.45 196.17C503.4 196.4 503.19 196.57 502.96 196.57V196.56Z" fill="white"/>
</g>
<g id="Group_11">
<g id="Group_12">
<path id="Vector_14" d="M529.9 202.96L519.66 203.71L513.66 214.06C510.52 219.44 508.87 226.33 509.41 233.7C509.95 241.07 512.57 247.65 516.46 252.52L523.89 261.89L534.13 261.14C546.62 260.23 555.79 246.47 554.62 230.4C553.45 214.33 542.38 202.05 529.89 202.96H529.9Z" fill="#3E3A39"/>
<path id="Vector_15" d="M523.9 262.38C523.75 262.38 523.6 262.31 523.51 262.19L516.08 252.82C511.99 247.69 509.44 240.91 508.92 233.73C508.4 226.55 509.93 219.47 513.24 213.8L519.24 203.45C519.32 203.31 519.47 203.21 519.64 203.2L529.88 202.45L529.92 202.95L529.88 202.45C536.08 202 542.12 204.67 546.89 209.97C551.63 215.24 554.56 222.47 555.14 230.36C556.33 246.67 546.93 260.7 534.19 261.63L523.95 262.38H523.91H523.9ZM519.96 204.18L514.1 214.3C510.89 219.8 509.41 226.67 509.91 233.66C510.42 240.65 512.89 247.23 516.86 252.2L524.13 261.36L534.11 260.63C546.3 259.74 555.29 246.19 554.14 230.43C553.58 222.77 550.74 215.74 546.15 210.64C541.58 205.57 535.83 203.02 529.95 203.45L519.97 204.18H519.96Z" fill="#3E3A39"/>
</g>
<g id="Group_13">
<path id="Vector_16" d="M521.118 262.09C533.605 261.179 542.779 247.416 541.607 231.348C540.436 215.281 529.363 202.994 516.876 203.904C504.389 204.815 495.216 218.578 496.387 234.645C497.559 250.713 508.631 263 521.118 262.09Z" fill="#636363"/>
<path id="Vector_17" d="M519.79 262.64C514.07 262.64 508.55 259.99 504.12 255.07C499.38 249.8 496.45 242.57 495.87 234.68C494.68 218.37 504.08 204.34 516.82 203.41C529.56 202.47 540.89 215 542.08 231.32C543.27 247.63 533.87 261.66 521.13 262.59C520.68 262.62 520.23 262.64 519.78 262.64H519.79ZM518.16 204.37C517.74 204.37 517.32 204.39 516.9 204.42C504.71 205.31 495.72 218.86 496.87 234.62C497.43 242.28 500.27 249.31 504.86 254.41C509.42 259.48 515.17 262.03 521.06 261.6C533.25 260.71 542.23 247.16 541.09 231.4C539.98 216.18 529.83 204.37 518.16 204.37V204.37Z" fill="#3E3A39"/>
</g>
<g id="Group_14">
<path id="Vector_18" d="M520.689 256.205C530.648 255.479 537.964 244.5 537.029 231.682C536.095 218.864 527.264 209.062 517.305 209.788C507.346 210.515 500.031 221.494 500.965 234.312C501.9 247.129 510.73 256.931 520.689 256.205Z" fill="white"/>
<path id="Vector_19" d="M519.64 256.74C509.86 256.74 501.37 246.96 500.45 234.35C499.99 228.04 501.47 221.97 504.62 217.24C507.79 212.48 512.28 209.66 517.26 209.29C522.24 208.92 527.09 211.07 530.92 215.32C534.72 219.54 537.07 225.33 537.52 231.64C538.47 244.71 530.93 255.95 520.71 256.7C520.35 256.73 520 256.74 519.64 256.74ZM518.34 210.25C518 210.25 517.67 210.26 517.33 210.29C512.67 210.63 508.45 213.29 505.45 217.79C502.42 222.33 501 228.18 501.45 234.27C502.36 246.79 510.97 256.41 520.64 255.7C530.31 255 537.43 244.24 536.52 231.71C536.08 225.62 533.82 220.04 530.17 215.98C526.81 212.25 522.64 210.24 518.34 210.24V210.25Z" fill="#3E3A39"/>
</g>
<g id="Group_15">
<path id="Vector_20" d="M522.79 232.72C522.99 235.43 521.44 237.75 519.34 237.9C517.24 238.05 515.37 235.98 515.17 233.27C514.97 230.56 516.52 228.24 518.62 228.09C520.72 227.94 522.59 230.01 522.79 232.72Z" fill="white"/>
<path id="Vector_21" d="M519.12 238.41C516.85 238.41 514.88 236.19 514.67 233.31C514.45 230.33 516.21 227.77 518.59 227.59C520.98 227.42 523.08 229.7 523.29 232.68C523.51 235.66 521.75 238.22 519.37 238.4C519.29 238.4 519.2 238.4 519.12 238.4V238.41ZM518.84 228.59C518.78 228.59 518.72 228.59 518.66 228.59C516.83 228.72 515.49 230.81 515.67 233.24C515.85 235.67 517.48 237.52 519.3 237.4C521.13 237.27 522.47 235.18 522.29 232.75C522.12 230.4 520.59 228.58 518.84 228.58V228.59Z" fill="#3E3A39"/>
</g>
</g>
<g id="Group_16">
<g id="Group_17">
<path id="Vector_22" d="M758.08 186.34L747.84 187.09L741.84 197.44C738.7 202.82 737.05 209.71 737.59 217.08C738.13 224.45 740.75 231.03 744.64 235.9L752.07 245.27L762.31 244.52C774.8 243.61 783.97 229.85 782.8 213.78C781.63 197.71 770.56 185.43 758.07 186.34H758.08Z" fill="#3E3A39"/>
<path id="Vector_23" d="M752.08 245.76C751.93 245.76 751.78 245.69 751.69 245.57L744.26 236.2C740.17 231.07 737.62 224.29 737.1 217.11C736.58 209.93 738.11 202.85 741.42 197.18L747.42 186.83C747.5 186.69 747.65 186.59 747.82 186.58L758.06 185.83L758.1 186.33L758.06 185.83C764.26 185.38 770.3 188.05 775.08 193.35C779.82 198.62 782.75 205.85 783.33 213.74C784.52 230.05 775.12 244.08 762.38 245.01L752.14 245.76H752.1H752.08ZM748.14 187.56L742.28 197.68C739.07 203.18 737.59 210.05 738.09 217.04C738.6 224.03 741.07 230.61 745.04 235.58L752.31 244.74L762.29 244.01C774.48 243.12 783.47 229.57 782.32 213.81C781.76 206.15 778.92 199.12 774.33 194.02C769.77 188.95 764.01 186.4 758.13 186.83L748.15 187.56H748.14Z" fill="#3E3A39"/>
</g>
<g id="Group_18">
<path id="Vector_24" d="M769.77 214.73C770.94 230.8 761.77 244.56 749.28 245.47C736.79 246.38 725.72 234.09 724.55 218.03C723.38 201.96 732.55 188.2 745.04 187.29C757.53 186.38 768.6 198.67 769.77 214.73Z" fill="#636363"/>
<path id="Vector_25" d="M747.99 246.01C735.8 246.01 725.2 233.8 724.06 218.06C723.49 210.18 725.33 202.59 729.27 196.69C733.23 190.75 738.82 187.24 745.02 186.78C751.22 186.34 757.26 189 762.03 194.3C766.77 199.57 769.7 206.81 770.28 214.69C771.47 231 762.07 245.03 749.33 245.96C748.89 245.99 748.44 246.01 748 246.01H747.99ZM746.35 187.74C745.93 187.74 745.5 187.76 745.08 187.79C739.2 188.22 733.88 191.58 730.09 197.25C726.28 202.96 724.49 210.33 725.05 217.99C726.16 233.21 736.31 245.01 747.98 245.02C748.4 245.02 748.82 245 749.24 244.97C761.43 244.08 770.41 230.53 769.27 214.77C768.71 207.11 765.87 200.08 761.28 194.98C757.05 190.28 751.79 187.74 746.35 187.74V187.74Z" fill="#3E3A39"/>
</g>
<g id="Group_19">
<path id="Vector_26" d="M765.2 215.06C766.13 227.88 758.82 238.85 748.85 239.58C738.89 240.31 730.06 230.5 729.12 217.69C728.19 204.87 735.5 193.9 745.47 193.17C755.43 192.44 764.26 202.25 765.2 215.06Z" fill="white"/>
<path id="Vector_27" d="M747.82 240.12C738.04 240.12 729.55 230.34 728.63 217.73C728.17 211.42 729.65 205.35 732.8 200.62C735.97 195.86 740.46 193.04 745.44 192.67C750.41 192.31 755.26 194.45 759.1 198.7C762.9 202.92 765.25 208.71 765.7 215.02C766.65 228.09 759.11 239.33 748.89 240.08C748.53 240.11 748.18 240.12 747.82 240.12V240.12ZM746.51 193.63C746.18 193.63 745.84 193.64 745.5 193.67C740.84 194.01 736.62 196.67 733.62 201.17C730.59 205.71 729.17 211.56 729.62 217.65C730.53 230.17 739.14 239.79 748.81 239.08C758.48 238.38 765.6 227.62 764.69 215.09C764.25 209 761.99 203.42 758.34 199.36C754.98 195.63 750.81 193.62 746.51 193.62V193.63Z" fill="#3E3A39"/>
</g>
<g id="Group_20">
<path id="Vector_28" d="M750.98 216.1C751.18 218.81 749.63 221.13 747.53 221.28C745.43 221.43 743.56 219.36 743.36 216.65C743.16 213.94 744.71 211.62 746.81 211.47C748.91 211.32 750.78 213.39 750.98 216.1Z" fill="white"/>
<path id="Vector_29" d="M747.3 221.79C745.03 221.79 743.06 219.57 742.85 216.69C742.63 213.71 744.39 211.15 746.77 210.97C747.94 210.88 749.08 211.38 749.98 212.37C750.84 213.33 751.37 214.63 751.48 216.05C751.58 217.47 751.25 218.84 750.53 219.91C749.79 221.02 748.74 221.68 747.56 221.76C747.48 221.76 747.39 221.76 747.31 221.76L747.3 221.79ZM747.02 211.97C746.96 211.97 746.9 211.97 746.84 211.97C745.01 212.1 743.67 214.19 743.85 216.62C744.03 219.05 745.65 220.91 747.48 220.78C748.34 220.72 749.13 220.22 749.69 219.37C750.28 218.48 750.56 217.33 750.47 216.14C750.38 214.94 749.94 213.84 749.23 213.05C748.6 212.35 747.82 211.97 747.02 211.97V211.97Z" fill="#3E3A39"/>
</g>
</g>
<g id="Group_21">
<path id="Vector_30" d="M830.73 96.5699C830.33 96.1999 829.91 95.8799 829.49 95.5399L737.13 102.27L740.45 147.91L875.93 138.04L830.73 96.5699V96.5699Z" fill="#3E3A39"/>
<path id="Vector_31" d="M740.46 148.41C740.2 148.41 739.98 148.21 739.96 147.95L736.64 102.31C736.64 102.18 736.67 102.05 736.76 101.95C736.85 101.85 736.97 101.79 737.1 101.78L829.46 95.05C829.58 95.04 829.71 95.08 829.81 95.16L830.11 95.4C830.44 95.66 830.77 95.92 831.08 96.21L876.28 137.68C876.43 137.82 876.48 138.02 876.41 138.21C876.34 138.4 876.17 138.53 875.97 138.54L740.49 148.41H740.45H740.46ZM737.67 102.74L740.92 147.38L874.74 137.63L830.39 96.95C830.1 96.68 829.79 96.43 829.48 96.19L829.33 96.07L737.66 102.75L737.67 102.74Z" fill="#3E3A39"/>
</g>
<path id="Vector_32" d="M847.52 180.68L842.14 181.07L834.08 144.04L799.92 146.53L751.74 102.33C746.52 97.5399 739.57 95.1199 732.51 95.6399L623.68 103.57C618.51 103.95 613.72 106.42 610.42 110.41L544.29 161.94L534.13 170.12L526.2 188.99L496.9 200.1L472.91 208.62C470.68 212.13 469.63 216.26 469.93 220.4L471.61 243.42L491.89 241.94L491.33 234.27C490.66 225.09 495.98 225.07 500.85 218.57C505.92 211.79 504.81 217.58 511.74 209.66L519.32 198.09C534.31 197 544.51 208.48 548.05 224.81L550.83 237.64L720.33 225.29L719.77 217.62C718.4 198.86 724.99 183.1 745.68 181.59C764.11 180.25 771.59 191.93 775.67 208.22L778.74 220.49L844.39 211.96L844.37 211.7L849.75 211.31L847.52 180.67V180.68Z" fill="#95C3ED"/>
<g id="Group_22">
<path id="Vector_33" d="M611.49 117.2L554.69 161.18L666.25 153.05L662.98 108.21L623.48 111.09C618.82 111.43 614.5 113.63 611.49 117.2V117.2Z" fill="#3E3A39"/>
<path id="Vector_34" d="M554.69 161.68C554.48 161.68 554.3 161.55 554.22 161.36C554.14 161.15 554.21 160.92 554.38 160.79L611.14 116.84C614.22 113.22 618.7 110.94 623.44 110.6L662.94 107.72C663.21 107.7 663.45 107.91 663.47 108.18L666.74 153.02C666.74 153.15 666.71 153.28 666.62 153.38C666.53 153.48 666.41 153.54 666.28 153.55L554.72 161.68H554.68H554.69ZM662.52 108.75L623.52 111.59C619.03 111.92 614.78 114.08 611.87 117.52C611.85 117.55 611.82 117.57 611.79 117.59L556.3 160.55L665.7 152.58L662.51 108.74L662.52 108.75Z" fill="#3E3A39"/>
</g>
<g id="Group_23">
<g id="Group_24">
<path id="Vector_35" d="M601.42 157.77L633.53 110.36L623.48 111.09C618.82 111.43 614.5 113.63 611.49 117.2L591.62 132.59L573.17 159.83L601.42 157.77V157.77Z" fill="white"/>
<path id="Vector_36" d="M573.16 160.33C572.98 160.33 572.82 160.24 572.73 160.08C572.63 159.91 572.64 159.71 572.75 159.55L591.2 132.31C591.2 132.31 591.27 132.23 591.31 132.19L611.14 116.83C614.22 113.21 618.7 110.93 623.44 110.59L633.49 109.86C633.68 109.85 633.86 109.94 633.96 110.11C634.06 110.28 634.05 110.48 633.94 110.64L601.83 158.05C601.74 158.18 601.6 158.26 601.45 158.27L573.2 160.33H573.16ZM591.98 132.93L574.15 159.25L601.13 157.28L632.53 110.92L623.51 111.58C619.02 111.91 614.77 114.07 611.86 117.51C611.84 117.54 611.81 117.56 611.78 117.58L591.97 132.92L591.98 132.93Z" fill="#3E3A39"/>
</g>
<g id="Group_25">
<path id="Vector_37" d="M666.25 153.05L663.9 120.86L640.84 154.9L666.25 153.05Z" fill="white"/>
<path id="Vector_38" d="M640.84 155.4C640.66 155.4 640.5 155.31 640.41 155.15C640.31 154.98 640.32 154.78 640.43 154.62L663.49 120.57C663.61 120.39 663.83 120.31 664.03 120.37C664.24 120.42 664.38 120.6 664.4 120.82L666.75 153.01C666.75 153.14 666.72 153.27 666.63 153.37C666.54 153.47 666.42 153.53 666.29 153.54L640.88 155.39H640.84V155.4ZM663.51 122.33L641.84 154.33L665.72 152.59L663.52 122.33H663.51Z" fill="#3E3A39"/>
</g>
</g>
<g id="Group_26">
<path id="Vector_39" d="M748.51 109.32L775.78 133.42C776.69 134.22 777.37 135.26 777.75 136.41C779.14 140.63 776.19 145.04 771.75 145.36L673.72 152.5L670.45 107.66L730.62 103.28C737.15 102.8 743.6 104.98 748.5 109.32H748.51Z" fill="#3E3A39"/>
<path id="Vector_40" d="M673.72 153.01C673.46 153.01 673.24 152.81 673.22 152.55L669.95 107.71C669.95 107.58 669.98 107.45 670.07 107.35C670.16 107.25 670.28 107.19 670.41 107.18L730.58 102.8C737.2 102.32 743.86 104.56 748.83 108.96L776.1 133.06C777.08 133.92 777.81 135.03 778.21 136.27C778.92 138.43 778.6 140.75 777.33 142.64C776.06 144.53 774.04 145.71 771.77 145.87L673.74 153.01H673.7H673.72ZM670.99 108.14L674.18 151.98L771.71 144.88C773.67 144.74 775.42 143.72 776.51 142.09C777.6 140.46 777.88 138.45 777.27 136.59C776.92 135.52 776.29 134.56 775.45 133.82L748.18 109.72C743.4 105.5 737.02 103.35 730.66 103.81L670.99 108.16V108.14Z" fill="#3E3A39"/>
</g>
<g id="Group_27">
<g id="Group_28">
<path id="Vector_41" d="M724.21 103.75L714.35 104.47L682.24 151.89L692.09 151.17L724.21 103.75Z" fill="white"/>
<path id="Vector_42" d="M682.24 152.39C682.06 152.39 681.9 152.3 681.81 152.14C681.71 151.97 681.72 151.77 681.83 151.61L713.94 104.2C714.03 104.07 714.17 103.99 714.32 103.98L724.18 103.26C724.37 103.24 724.55 103.34 724.65 103.51C724.75 103.68 724.74 103.88 724.63 104.04L692.52 151.45C692.43 151.58 692.29 151.66 692.14 151.67L682.28 152.39H682.24V152.39ZM714.63 104.96L683.23 151.32L691.82 150.7L723.22 104.34L714.63 104.96V104.96Z" fill="#3E3A39"/>
</g>
<g id="Group_29">
<path id="Vector_43" d="M670.68 110.84L673.29 146.65L701.21 105.43L672.95 107.49L670.68 110.84Z" fill="white"/>
<path id="Vector_44" d="M673.29 147.15C673.29 147.15 673.2 147.15 673.16 147.13C672.95 147.08 672.81 146.9 672.79 146.68L670.18 110.88C670.18 110.77 670.2 110.66 670.26 110.56L672.53 107.21C672.62 107.08 672.76 107 672.91 106.99L701.16 104.93C701.35 104.92 701.53 105.01 701.63 105.18C701.73 105.35 701.72 105.55 701.61 105.71L673.69 146.93C673.6 147.07 673.44 147.15 673.28 147.15H673.29ZM671.19 110.98L673.68 145.17L700.21 106L673.23 107.97L671.19 110.98V110.98Z" fill="#3E3A39"/>
</g>
</g>
<path id="Vector_45" d="M834.08 144.04L906.46 138.77C910.26 138.49 913.68 141.05 914.49 144.77L921.14 175.32L842.14 181.07L834.08 144.04V144.04Z" fill="#579DC6"/>
<g id="Group_30">
<path id="Vector_46" d="M904.02 155.879L869.691 158.382L870.719 172.475L905.048 169.972L904.02 155.879Z" fill="white"/>
<path id="Vector_47" d="M870.71 173.01C870.45 173.01 870.23 172.81 870.21 172.55L869.18 158.45C869.18 158.32 869.21 158.19 869.3 158.09C869.39 157.99 869.51 157.93 869.64 157.92L903.97 155.42C904.24 155.4 904.49 155.61 904.5 155.88L905.53 169.98C905.53 170.11 905.5 170.24 905.41 170.34C905.32 170.44 905.2 170.5 905.07 170.51L870.74 173.01H870.7H870.71ZM870.22 158.88L871.17 171.98L904.5 169.55L903.55 156.45L870.22 158.88Z" fill="#3E3A39"/>
</g>
<g id="Group_31">
<path id="Vector_48" d="M778.24 192.53C777.72 192.53 777.28 192.13 777.24 191.6C777.2 191.05 777.61 190.57 778.16 190.53L925.25 179.82C925.81 179.79 926.28 180.19 926.32 180.74C926.36 181.29 925.95 181.77 925.4 181.81L778.31 192.52C778.31 192.52 778.26 192.52 778.24 192.52V192.53Z" fill="white"/>
</g>
<g id="Group_32">
<path id="Vector_49" d="M549.52 209.19C549 209.19 548.56 208.79 548.52 208.26C548.48 207.71 548.89 207.23 549.44 207.19L712.44 195.32C713 195.29 713.47 195.69 713.51 196.24C713.55 196.79 713.14 197.27 712.59 197.31L549.59 209.18C549.59 209.18 549.54 209.18 549.52 209.18V209.19Z" fill="white"/>
</g>
<g id="Group_33">
<path id="Vector_50" d="M476.75 214.49C476.23 214.49 475.79 214.09 475.75 213.56C475.71 213.01 476.12 212.53 476.67 212.49L495.33 211.13C495.89 211.09 496.36 211.5 496.4 212.05C496.44 212.6 496.03 213.08 495.48 213.12L476.82 214.48C476.82 214.48 476.77 214.48 476.75 214.48V214.49Z" fill="white"/>
</g>
<g id="Group_34">
<path id="Vector_51" d="M863.78 159.07L831.35 161.43C828.29 161.65 825.62 163.59 824.45 166.42L819.82 177.66C818.89 179.91 820.66 182.35 823.08 182.17L865.24 179.1L863.78 159.06V159.07Z" fill="#FFDB74"/>
<path id="Vector_52" d="M822.83 182.69C821.62 182.69 820.5 182.12 819.78 181.13C819.01 180.06 818.85 178.7 819.35 177.48L823.98 166.24C825.23 163.21 828.04 161.18 831.31 160.94L863.74 158.58C864.01 158.56 864.25 158.77 864.27 159.04L865.73 179.08C865.73 179.21 865.7 179.34 865.61 179.44C865.52 179.54 865.4 179.6 865.27 179.61L823.11 182.68C823.02 182.68 822.92 182.69 822.83 182.69V182.69ZM863.31 159.61L831.38 161.94C828.49 162.15 826.01 163.95 824.9 166.63L820.27 177.87C819.9 178.77 820.02 179.77 820.59 180.55C821.16 181.33 822.07 181.75 823.04 181.69L864.7 178.65L863.31 159.61V159.61Z" fill="#3E3A39"/>
</g>
<g id="Group_35">
<path id="Vector_53" d="M863.78 159.07L837.64 160.97L841.96 180.8L865.24 179.11L863.78 159.07Z" fill="#3E3A39"/>
<path id="Vector_54" d="M841.96 181.3C841.73 181.3 841.52 181.14 841.47 180.91L837.15 161.08C837.12 160.94 837.15 160.79 837.24 160.67C837.33 160.55 837.46 160.48 837.6 160.47L863.74 158.57C863.87 158.56 864 158.6 864.1 158.69C864.2 158.78 864.26 158.9 864.27 159.03L865.73 179.07C865.73 179.2 865.7 179.33 865.61 179.43C865.52 179.53 865.4 179.59 865.27 179.6L841.99 181.3H841.95H841.96ZM838.25 161.43L842.35 180.27L864.7 178.64L863.31 159.6L838.25 161.43V161.43Z" fill="#3E3A39"/>
</g>
<g id="Group_36">
<path id="Vector_55" d="M916.64 155.22L908.72 155.8L910.08 175.84L920.95 175.05L916.64 155.22Z" fill="#3E3A39"/>
<path id="Vector_56" d="M910.08 176.34C909.96 176.34 909.84 176.3 909.75 176.22C909.65 176.13 909.59 176.01 909.58 175.88L908.22 155.84C908.2 155.57 908.41 155.33 908.68 155.31L916.59 154.73C916.84 154.71 917.06 154.88 917.11 155.12L921.43 174.95C921.46 175.09 921.43 175.24 921.34 175.36C921.25 175.48 921.12 175.55 920.98 175.56L910.1 176.35H910.06L910.08 176.34ZM909.26 156.26L910.55 175.31L920.35 174.6L916.25 155.76L909.26 156.27V156.26Z" fill="#3E3A39"/>
</g>
<g id="Group_37">
<path id="Vector_57" d="M561.633 151.272L544.808 152.499C543.706 152.579 542.878 153.538 542.959 154.639L543.952 168.263C544.032 169.365 544.99 170.193 546.092 170.112L562.917 168.886C564.019 168.805 564.847 167.847 564.767 166.745L563.773 153.122C563.693 152.02 562.735 151.192 561.633 151.272Z" fill="#3E3A39"/>
<path id="Vector_58" d="M545.93 170.63C545.33 170.63 544.76 170.42 544.3 170.02C543.79 169.58 543.49 168.98 543.44 168.31L542.45 154.69C542.4 154.02 542.62 153.38 543.05 152.87C543.49 152.36 544.09 152.06 544.76 152.01L561.59 150.78C562.96 150.68 564.17 151.72 564.26 153.09L565.25 166.71C565.35 168.09 564.31 169.28 562.94 169.38L546.11 170.61C546.05 170.61 545.99 170.61 545.92 170.61L545.93 170.63ZM561.77 151.78C561.77 151.78 561.7 151.78 561.66 151.78L544.83 153.01C544.43 153.04 544.07 153.22 543.8 153.53C543.54 153.83 543.41 154.22 543.44 154.62L544.43 168.24C544.46 168.64 544.64 169 544.95 169.27C545.25 169.53 545.64 169.66 546.04 169.63L562.87 168.4C563.69 168.34 564.32 167.62 564.26 166.79L563.27 153.17C563.21 152.38 562.55 151.78 561.77 151.78Z" fill="#3E3A39"/>
</g>
<g id="Group_38">
<path id="Vector_59" d="M664.187 161.513L644.17 162.972L644.754 170.981L664.771 169.521L664.187 161.513Z" fill="#3E3A39"/>
<path id="Vector_60" d="M644.75 171.48C644.63 171.48 644.51 171.44 644.42 171.36C644.32 171.27 644.26 171.15 644.25 171.02L643.67 163.01C643.65 162.73 643.86 162.5 644.13 162.48L664.15 161.02C664.42 161 664.66 161.21 664.68 161.48L665.26 169.49C665.26 169.62 665.23 169.75 665.14 169.85C665.05 169.95 664.93 170.01 664.8 170.02L644.78 171.48H644.74H644.75ZM644.7 163.44L645.21 170.45L664.23 169.06L663.72 162.05L644.7 163.44Z" fill="#3E3A39"/>
</g>
<path id="Vector_61" d="M673.18 219.31C672.92 219.31 672.7 219.11 672.68 218.85L668.25 158C668.23 157.72 668.44 157.49 668.71 157.47C668.98 157.45 669.22 157.66 669.24 157.93L673.67 218.78C673.69 219.06 673.48 219.29 673.21 219.31H673.17H673.18Z" fill="white"/>
<path id="Vector_62" d="M554.63 230.9C554.38 230.9 554.17 230.72 554.14 230.47C552.13 216.08 547.09 207.34 543.21 202.53C539.02 197.33 535.25 195.51 535.22 195.49C534.97 195.37 534.86 195.07 534.98 194.82C535.1 194.57 535.4 194.46 535.65 194.58C535.81 194.66 539.62 196.49 543.95 201.84C547.88 206.69 552.97 215.48 555.07 229.86L710.2 218.56C710.47 218.54 710.71 218.75 710.73 219.02C710.75 219.29 710.54 219.53 710.27 219.55L554.67 230.88H554.63V230.9Z" fill="#3E3A39"/>
<path id="Vector_63" d="M717.81 191.11C717.74 191.11 717.66 191.09 717.59 191.06C717.34 190.94 717.24 190.64 717.36 190.39C723.07 178.59 733.14 172.09 747.27 171.06C760.69 170.08 769.57 174.98 774.65 179.27C780.16 183.92 782.45 188.73 782.55 188.94C782.67 189.19 782.55 189.49 782.31 189.61C782.06 189.73 781.76 189.61 781.64 189.37C781.55 189.18 772.36 170.25 747.34 172.07C733.59 173.07 723.8 179.39 718.26 190.84C718.17 191.02 718 191.12 717.81 191.12V191.11Z" fill="white"/>
</g>
<path id="Vector_64" d="M761.04 81.9899C760.79 81.9899 760.58 81.7999 760.54 81.5499C760.51 81.2799 760.7 81.0299 760.98 80.9899L854.07 69.5599C854.35 69.5199 854.59 69.7199 854.63 69.9999C854.66 70.2699 854.47 70.5199 854.19 70.5599L761.1 81.9899C761.1 81.9899 761.06 81.9899 761.04 81.9899Z" fill="#3E3A39"/>
<path id="Vector_65" d="M753.69 72.19C753.45 72.19 753.23 72.01 753.2 71.77C753.16 71.5 753.34 71.24 753.62 71.2L805.88 63.03C806.15 62.99 806.41 63.17 806.45 63.45C806.49 63.72 806.31 63.98 806.03 64.02L753.77 72.19C753.77 72.19 753.72 72.19 753.69 72.19V72.19Z" fill="#3E3A39"/>
<path id="Vector_66" d="M868.53 225.57C868.28 225.57 868.07 225.39 868.03 225.14C867.99 224.87 868.19 224.61 868.46 224.58L923.17 217.23C923.45 217.19 923.7 217.39 923.73 217.66C923.77 217.93 923.57 218.19 923.3 218.22L868.59 225.57C868.59 225.57 868.55 225.57 868.52 225.57H868.53Z" fill="#3E3A39"/>
<path id="Vector_67" d="M857.1 233.74C856.85 233.74 856.64 233.56 856.6 233.31C856.56 233.04 856.76 232.79 857.03 232.75L900.31 227.03C900.58 226.99 900.83 227.19 900.87 227.46C900.91 227.73 900.71 227.98 900.44 228.02L857.16 233.74C857.16 233.74 857.12 233.74 857.09 233.74H857.1Z" fill="#3E3A39"/>
</g>
<g id="Mask group">
<mask id="mask0_57_1561" style="mask-type:alpha" maskUnits="userSpaceOnUse" x="563" y="69" width="108" height="91">
<path id="Rectangle 17" d="M563 69H671V152.5L565.5 160L563 69Z" fill="#C4C4C4"/>
</mask>
<g mask="url(#mask0_57_1561)">
<g id="Group_39">
<g id="Group_40">
<g id="Group_41">
<path id="Vector_68" d="M603.73 94.7699C601.96 95.6099 600.29 96.6299 598.69 97.7899C594.82 100.56 591.5 104.14 588.87 108.13C587.45 110.26 586.25 112.49 585.24 114.79C576.98 114.06 570.27 107.46 569.65 98.9399C568.96 89.4499 576.07 81.2299 585.55 80.5399C594.45 79.8899 602.27 86.1399 603.72 94.7799L603.73 94.7699Z" fill="#B8A4D9"/>
<path id="Vector_69" d="M650.94 125.69C652.12 141.94 637.22 149.45 618.25 150.83C599.26 152.21 583.42 146.94 582.24 130.69C581.87 125.6 582.98 120.06 585.25 114.78C586.25 112.48 587.46 110.25 588.88 108.12C591.51 104.13 594.83 100.54 598.7 97.7799C600.3 96.6199 601.98 95.6099 603.74 94.7599C606.92 93.2299 610.35 92.2499 613.97 91.9899C617.59 91.7299 620.87 92.1599 624.14 93.1499C626.03 93.7099 627.85 94.4499 629.62 95.3499C633.93 97.5399 637.82 100.63 641.05 104.25C642.78 106.15 644.32 108.21 645.64 110.35C648.68 115.24 650.59 120.6 650.96 125.69H650.94Z" fill="#B8A4D9"/>
<path id="Vector_70" d="M598.69 97.7899C594.82 100.56 591.5 104.14 588.87 108.13C584.85 107.6 581.61 104.31 581.3 100.08C580.95 95.2499 584.59 91.0499 589.42 90.6999C593.91 90.3699 597.86 93.4599 598.69 97.7899V97.7899Z" fill="#EFCECD"/>
</g>
<g id="Group_42">
<path id="Vector_71" d="M658.45 92.4599C659.06 100.87 653.5 108.31 645.61 110.35C644.29 108.22 642.75 106.16 641.02 104.25C637.8 100.63 633.9 97.5299 629.59 95.3499C627.83 94.4599 626 93.7099 624.11 93.1499C624.37 84.4499 631.17 77.1999 640.05 76.5499C649.52 75.8599 657.74 82.9699 658.44 92.4599H658.45Z" fill="#B8A4D9"/>
<path id="Vector_72" d="M647.1 95.2999C647.4 99.4199 644.82 103.07 641.03 104.26C637.81 100.64 633.91 97.5399 629.6 95.3599C629.87 91.0499 633.28 87.5099 637.7 87.1899C642.55 86.8399 646.74 90.4599 647.1 95.3099V95.2999Z" fill="#EFCECD"/>
</g>
<path id="Vector_73" d="M622.07 122.07C622.6 126.82 620.23 130.99 616.78 131.37C613.33 131.75 610.11 128.21 609.58 123.46C609.05 118.71 611.42 114.54 614.87 114.16C618.32 113.78 621.54 117.32 622.07 122.07Z" fill="#3E3A39"/>
<g id="Group_43">
<path id="Vector_74" d="M637.2 125.05C634.4 125.94 630.96 123 629.51 118.47C628.06 113.94 629.16 109.55 631.96 108.65C634.76 107.76 638.2 110.7 639.65 115.23C641.1 119.76 640 124.15 637.2 125.05V125.05Z" fill="white"/>
<path id="Vector_75" d="M636.19 125.71C633.4 125.71 630.38 122.82 629.04 118.63C628.31 116.35 628.18 114.03 628.66 112.09C629.17 110.06 630.29 108.68 631.81 108.19C633.33 107.7 635.05 108.19 636.64 109.54C638.16 110.84 639.4 112.81 640.13 115.09C640.86 117.37 640.99 119.69 640.51 121.63C640 123.66 638.88 125.04 637.36 125.53C636.98 125.65 636.59 125.71 636.19 125.71V125.71ZM633.01 109C632.7 109 632.41 109.05 632.12 109.14C630.94 109.52 630.05 110.65 629.63 112.33C629.19 114.1 629.32 116.23 629.99 118.33C631.35 122.59 634.51 125.39 637.05 124.58C638.23 124.2 639.12 123.07 639.53 121.39C639.97 119.62 639.84 117.49 639.17 115.39C638.5 113.29 637.37 111.48 635.98 110.3C634.98 109.45 633.95 109 633 109H633.01Z" fill="#3E3A39"/>
</g>
<g id="Group_44">
<path id="Vector_76" d="M597.38 128.08C594.45 127.83 592.41 123.78 592.82 119.05C593.23 114.32 595.94 110.68 598.86 110.94C601.79 111.19 603.83 115.24 603.42 119.97C603.01 124.7 600.3 128.34 597.38 128.08Z" fill="white"/>
<path id="Vector_77" d="M597.67 128.6C597.56 128.6 597.45 128.6 597.33 128.59C595.73 128.45 594.34 127.35 593.39 125.48C592.49 123.69 592.1 121.4 592.31 119.02C592.52 116.64 593.29 114.44 594.48 112.84C595.73 111.16 597.3 110.32 598.89 110.45C600.49 110.59 601.88 111.69 602.83 113.56C603.73 115.35 604.12 117.64 603.91 120.02C603.7 122.4 602.93 124.6 601.74 126.2C600.58 127.76 599.14 128.6 597.67 128.6ZM598.57 111.43C597.41 111.43 596.26 112.13 595.29 113.43C594.2 114.89 593.5 116.9 593.31 119.1C593.12 121.3 593.47 123.4 594.29 125.03C595.07 126.58 596.18 127.49 597.42 127.59C598.66 127.7 599.91 126.99 600.94 125.6C602.03 124.14 602.73 122.13 602.92 119.93C603.11 117.73 602.76 115.63 601.94 114C601.16 112.45 600.05 111.54 598.81 111.44C598.73 111.44 598.65 111.43 598.56 111.43H598.57Z" fill="#3E3A39"/>
</g>
<path id="Vector_78" d="M645.68 181.89C646.95 199.35 636.19 203.04 622.66 204.03C609.13 205.02 597.94 202.92 596.67 185.46C595.4 168 604.52 141.78 618.05 140.79C631.58 139.8 644.41 164.43 645.68 181.89V181.89Z" fill="#B8A4D9"/>
<path id="Vector_79" d="M639.77 187.96C640.69 200.64 632.88 203.31 623.06 204.03C613.24 204.75 605.12 203.23 604.2 190.55C603.28 177.87 609.9 158.84 619.72 158.13C629.54 157.41 638.85 175.29 639.77 187.96Z" fill="#EFCECD"/>
<path id="Vector_80" d="M600.85 95.8299C593.74 99.8799 589.57 106.96 585.69 113.9C585.4 114.41 586.22 114.81 586.51 114.3C590.33 107.48 594.38 100.56 601.37 96.5799C601.88 96.2899 601.37 95.5399 600.85 95.8299Z" fill="white"/>
<path id="Vector_81" d="M607.99 151.15C608.84 153.44 608.24 156.1 606.47 157.66C597.1 165.96 593.98 174.68 593.25 179.68C592.8 182.78 589.88 184.68 587.15 183.73C585.12 183.02 583.8 180.89 583.9 178.56C584.66 160.11 594.51 151.76 600.82 148.28C603.54 146.78 606.84 148.08 607.98 151.15H607.99Z" fill="#B8A4D9"/>
<path id="Vector_82" d="M627.72 149.71C627.21 152.1 628.19 154.64 630.17 155.93C640.64 162.79 644.99 170.96 646.44 175.8C647.34 178.8 650.5 180.26 653.06 178.92C654.97 177.92 655.96 175.63 655.52 173.33C652.09 155.18 641.14 148.35 634.39 145.82C631.48 144.73 628.41 146.5 627.72 149.7V149.71Z" fill="#B8A4D9"/>
<path id="Vector_83" d="M607.62 148.81C615.2 151.25 623.2 150.67 630.37 147.2C630.9 146.94 630.44 146.16 629.91 146.41C622.96 149.77 615.19 150.29 607.84 147.92C607.28 147.74 607.06 148.62 607.62 148.8V148.81Z" fill="white"/>
<path id="Vector_84" d="M613.25 140.28C613.25 140.28 621.92 145.4 625.61 133.68C625.61 133.68 632.14 148.25 626.95 152.06C621.76 155.86 616.19 146.86 613.25 140.28V140.28Z" fill="#3E3A39"/>
<path id="Vector_85" d="M633.235 119.028C633.806 118.836 634.023 117.954 633.721 117.059C633.419 116.165 632.711 115.595 632.141 115.788C631.571 115.981 631.353 116.862 631.656 117.757C631.958 118.652 632.665 119.221 633.235 119.028Z" fill="#3E3A39"/>
<path id="Vector_86" d="M601.558 119.897C601.689 118.962 601.313 118.135 600.717 118.052C600.12 117.968 599.531 118.658 599.399 119.593C599.267 120.528 599.644 121.354 600.24 121.438C600.836 121.522 601.426 120.832 601.558 119.897Z" fill="#3E3A39"/>
</g>
</g>
</g>
</g>
<path id="Vector_87" d="M554.76 107.23C554.69 107.23 554.62 107.23 554.55 107.21L546.09 105.38C545.67 105.29 545.36 104.94 545.31 104.52C545.26 104.1 545.48 103.69 545.87 103.5L552.52 100.27L546.75 94.89C546.44 94.6 546.34 94.14 546.52 93.74C546.7 93.34 547.11 93.12 547.53 93.16L554.06 93.84L551.61 85.9C551.49 85.5 551.62 85.07 551.95 84.81C552.28 84.55 552.73 84.53 553.09 84.75L558.66 88.19L558.83 81.63C558.84 81.22 559.1 80.86 559.48 80.72C559.86 80.58 560.29 80.68 560.57 80.98L565.23 86.05C565.6 86.46 565.58 87.09 565.17 87.46C564.76 87.83 564.13 87.81 563.76 87.4L560.78 84.15L560.63 89.98C560.63 90.34 560.42 90.66 560.11 90.83C559.8 91 559.41 90.99 559.11 90.8L554.32 87.84L556.43 94.68C556.53 95 556.46 95.35 556.25 95.61C556.04 95.87 555.71 96 555.37 95.97L550.31 95.44L554.96 99.77C555.2 99.99 555.32 100.32 555.27 100.65C555.22 100.98 555.01 101.26 554.72 101.4L549.36 104L554.99 105.22C555.53 105.34 555.87 105.87 555.76 106.41C555.66 106.88 555.24 107.2 554.78 107.2L554.76 107.23Z" fill="#3E3A39"/>
<path id="Vector_88" d="M703.92 71.6299C703.92 72.1599 703.72 72.5999 703.33 72.9599C702.93 73.2999 702.47 73.4699 701.95 73.4699C701.43 73.4699 700.95 73.2999 700.55 72.9599C700.17 72.5999 699.98 72.1599 699.98 71.6299C699.98 71.0999 700.17 70.6499 700.55 70.2999C700.95 69.9399 701.42 69.7699 701.95 69.7699C702.48 69.7699 702.93 69.9499 703.33 70.2999C703.72 70.6399 703.92 71.0899 703.92 71.6299V71.6299ZM703.62 59.5299L703 67.5899C702.95 68.2099 702.57 68.5199 701.87 68.5199C701.27 68.5199 700.94 68.2099 700.89 67.5899L700.3 59.5499C700.21 58.1399 700.77 57.4299 701.96 57.4299C702.5 57.4299 702.93 57.6099 703.25 57.9599C703.55 58.3299 703.68 58.8499 703.63 59.5299H703.62Z" fill="#3E3A39"/>
<path id="Vector_89" d="M710.4 71.9299C710.25 72.4399 709.94 72.8099 709.47 73.0399C708.99 73.2599 708.5 73.2899 708 73.1499C707.5 73.0099 707.09 72.7099 706.8 72.2699C706.54 71.8199 706.48 71.3399 706.62 70.8399C706.76 70.3399 707.07 69.9499 707.53 69.7199C708.02 69.4899 708.51 69.4499 709.02 69.5899C709.53 69.7299 709.91 70.0299 710.2 70.4899C710.48 70.9299 710.55 71.4099 710.39 71.9299H710.4ZM713.47 60.2199L710.63 67.7899C710.41 68.3699 709.96 68.5699 709.28 68.3699C708.7 68.1999 708.47 67.8099 708.59 67.1999L710.26 59.3099C710.57 57.9299 711.3 57.3999 712.45 57.7399C712.97 57.8899 713.33 58.1799 713.54 58.6099C713.73 59.0499 713.7 59.5899 713.47 60.2199V60.2199Z" fill="#3E3A39"/>
</g>
</g>
</g>
<g id="Frame" clip-path="url(#clip0_57_1561)">
<mask id="mask1_57_1561" style="mask-type:alpha" maskUnits="userSpaceOnUse" x="661" y="68" width="117" height="85">
<rect id="Rectangle 18" x="661.186" y="76.4609" width="111" height="76" transform="rotate(-4.25958 661.186 76.4609)" fill="#C4C4C4"/>
</mask>
<g mask="url(#mask1_57_1561)">
<g id="Group 18">
<g id="Group_45">
<g id="a_2">
<g id="Group_46">
<path id="Vector_90" d="M748.838 159.53C749.897 173.751 737.463 176.582 721.946 177.738C706.429 178.893 693.713 177.935 692.653 163.715C691.594 149.494 702.594 127.406 718.111 126.25C733.628 125.095 747.779 145.309 748.838 159.53Z" fill="#F7BEBD"/>
<g id="Group_47">
<path id="Vector_91" d="M702.075 90.1516C701.706 90.1791 699.847 72.759 672.03 80.9579C672.03 80.9579 669.668 81.6953 665.564 81.5297C665.564 81.5297 668.915 101.747 691.005 96.6217C692.435 96.2946 693.878 96.0067 695.339 95.8376L699.574 95.3417L702.065 90.1424L702.075 90.1516Z" fill="#F7BEBD"/>
<path id="Vector_92" d="M701.598 91.1498C701.339 91.1691 700.036 78.9221 680.47 84.6913C680.47 84.6913 678.814 85.2057 675.928 85.0998C675.928 85.0998 678.28 99.3143 693.816 95.7105C694.821 95.4751 695.839 95.279 696.863 95.1626L699.846 94.8201L701.599 91.1598L701.598 91.1498Z" fill="#EE8785"/>
<path id="Vector_93" d="M698.385 91.4994C697.239 89.6996 695.491 88.7167 693.352 88.5451C690.728 88.3194 684.935 91.4583 683.369 88.7372C683.011 88.112 682.076 88.7532 682.444 89.3776C683.308 90.8876 684.793 91.2984 686.47 91.0632C690.3 90.5172 694.691 87.8036 697.451 92.1506C697.838 92.7636 698.773 92.1224 698.376 91.5101L698.385 91.4994Z" fill="white"/>
</g>
<g id="Group_48">
<path id="Vector_94" d="M734.047 87.7703C734.416 87.7429 733.674 70.2396 762.399 74.227C762.399 74.227 764.844 74.6065 768.878 73.8348C768.878 73.8348 768.559 94.325 745.953 92.5291C744.491 92.4174 743.022 92.3464 741.551 92.3957L737.29 92.5326L734.056 87.7596L734.047 87.7703Z" fill="#F7BEBD"/>
<path id="Vector_95" d="M734.677 88.686C734.936 88.6667 734.41 76.3618 754.615 79.1688C754.615 79.1688 756.329 79.4322 759.167 78.8999C759.167 78.8999 758.947 93.3061 743.049 92.0434C742.02 91.9596 740.984 91.9165 739.954 91.9531L736.953 92.0562L734.677 88.696L734.677 88.686Z" fill="#EE8785"/>
<path id="Vector_96" d="M750.86 84.3622C748.558 86.5693 744.484 84.6565 741.615 85.5822C739.696 86.1965 737.949 87.3795 737.094 89.2381C736.793 89.9023 737.802 90.3987 738.104 89.7345C740.862 83.6829 747.869 88.7665 751.707 85.1013C752.232 84.6009 751.375 83.8725 750.85 84.3629L750.86 84.3622Z" fill="white"/>
</g>
<path id="Vector_97" d="M750.178 116.542C751.382 132.697 737.004 135.553 719.104 136.886C701.203 138.219 686.561 137.525 685.358 121.37C684.155 105.214 688.199 80.3452 714.745 78.368C741.292 76.3908 748.975 100.386 750.178 116.542V116.542Z" fill="#F7BEBD"/>
<g id="Group_49">
<path id="Vector_98" d="M729.365 120.629C729.901 124.199 727.118 127.896 723.259 128.183C723.189 128.188 723.119 128.194 723.049 128.199C722.31 128.234 721.591 128.137 720.904 127.937C718.587 127.258 716.139 127.51 713.936 128.487C713.354 128.751 712.715 128.928 712.049 129.008C711.94 129.026 711.83 129.034 711.721 129.043C706.685 129.418 703.033 123.342 705.519 119.016C707.765 115.108 713.493 113.658 717.688 113.567C721.772 113.473 726.297 114.72 728.548 118.413C728.982 119.123 729.238 119.876 729.355 120.63L729.365 120.629Z" fill="#EE8785"/>
<g id="Group_50" style="mix-blend-mode:multiply">
<g id="Vector_99" style="mix-blend-mode:multiply">
<path d="M715.433 121.125C715.551 122.711 714.36 124.093 712.775 124.211C711.189 124.329 709.807 123.138 709.689 121.553C709.571 119.967 710.761 118.585 712.347 118.467C713.933 118.349 715.315 119.539 715.433 121.125Z" fill="#EE8785"/>
</g>
<g id="Vector_100" style="mix-blend-mode:multiply">
<path d="M724.677 120.437C724.795 122.022 723.605 123.404 722.019 123.522C720.433 123.641 719.051 122.45 718.933 120.864C718.815 119.279 720.006 117.896 721.591 117.778C723.177 117.66 724.559 118.851 724.677 120.437Z" fill="#EE8785"/>
</g>
</g>
</g>
<path id="Vector_101" d="M719.387 137.727C712.047 138.274 705.913 137.768 705.812 137.766C705.54 137.746 705.331 137.501 705.361 137.228C705.381 136.955 705.616 136.747 705.899 136.776C706.061 136.794 722.011 138.093 733.079 134.15C733.333 134.061 733.624 134.19 733.713 134.454C733.803 134.718 733.674 134.998 733.41 135.088C729.063 136.635 723.995 137.394 719.388 137.737L719.387 137.727Z" fill="white"/>
<path id="Vector_102" d="M699.037 138.481C699.022 138.281 698.85 138.134 698.649 138.119C698.599 138.122 693.169 137.654 689.013 133.151C687.977 132.024 686.623 130.009 686.368 129.006L686.341 128.907C686.199 128.346 685.88 127.026 684.56 127.085C683.871 127.116 683.492 127.415 683.287 127.761C683.044 127.458 682.707 127.243 682.247 127.267C681.537 127.29 681.139 127.6 680.937 127.846C680.845 127.963 680.764 128.089 680.714 128.223C680.63 128.169 680.547 128.126 680.454 128.092C680.134 127.976 679.784 127.992 679.447 128.167C678.759 128.499 678.538 129.158 678.488 129.703C677.995 129.549 677.352 129.537 676.68 129.928C675.853 130.41 675.497 131.55 675.676 133.141C675.823 134.444 676.313 135.911 676.964 136.976C679.818 141.637 683.199 145.025 687.018 147.017C692.799 150.046 699.523 150.668 699.805 150.687C699.866 150.693 699.935 150.678 699.995 150.673C700.063 150.648 700.121 150.614 700.168 150.57C700.261 150.473 700.312 150.349 700.302 150.219L699.048 138.5L699.037 138.481Z" fill="#F7BEBD"/>
<path id="Vector_103" d="M760.701 126.016C759.977 125.589 759.287 125.61 758.749 125.791C758.704 125.182 758.468 124.438 757.729 124.082C757.365 123.898 756.983 123.887 756.642 124.022C756.534 124.06 756.438 124.118 756.353 124.184C756.302 124.038 756.222 123.903 756.122 123.77C755.911 123.495 755.484 123.156 754.721 123.142C754.229 123.129 753.856 123.377 753.591 123.718C753.371 123.323 752.966 123.002 752.222 122.978C750.795 122.934 750.425 124.425 750.272 125.068L750.25 125.18C749.955 126.325 748.46 128.613 747.323 129.901C742.753 135.054 736.873 135.683 736.824 135.686C736.604 135.703 736.417 135.887 736.394 136.11L734.853 149.351C734.833 149.492 734.885 149.639 734.992 149.741C735.025 149.769 735.057 149.797 735.099 149.824C735.183 149.878 735.284 149.89 735.384 149.883C735.692 149.85 742.971 149.027 749.287 145.498C753.445 143.173 757.158 139.296 760.322 133.986C761.045 132.779 761.602 131.113 761.774 129.647C761.991 127.846 761.625 126.569 760.733 126.034L760.701 126.016Z" fill="#F7BEBD"/>
<path id="Vector_104" d="M709.107 109.573C708.517 107.972 707.175 106.648 705.611 106.113C704.181 105.628 702.707 105.898 701.467 106.893C700.056 108.011 699.22 109.838 699.379 111.441C699.7 114.666 701.601 115.557 702.713 115.805C703.192 115.91 703.696 115.942 704.204 115.905C706.159 115.759 708.1 114.622 708.848 113.363C709.507 112.241 709.607 110.899 709.117 109.572L709.107 109.573Z" fill="#3E3A39"/>
<path id="Vector_105" d="M735.705 107.482C735.341 105.814 734.186 104.316 732.708 103.584C731.354 102.912 729.865 102.983 728.501 103.787C726.955 104.704 725.878 106.399 725.817 108.008C725.697 111.245 727.467 112.387 728.53 112.789C729.252 113.056 730.05 113.137 730.838 113.079C732.523 112.953 734.15 112.18 734.929 111.2C735.736 110.187 736.019 108.862 735.705 107.482Z" fill="#3E3A39"/>
</g>
</g>
</g>
<g id="Group_51">
<path id="Vector_106" d="M729.147 97.4813C729.178 97.5551 729.228 97.621 729.286 97.6831C729.455 97.8509 733.334 101.729 734.87 102.645C735.172 102.822 735.564 102.722 735.74 102.42C735.917 102.117 735.817 101.725 735.515 101.549C734.354 100.855 731.268 97.8795 730.178 96.7867C729.93 96.533 729.531 96.5383 729.278 96.7862C729.086 96.9754 729.041 97.2548 729.138 97.4852L729.147 97.4813Z" fill="#3E3A39"/>
</g>
<g id="Group_52">
<path id="Vector_107" d="M699.259 105.388C699.02 105.415 698.776 105.303 698.64 105.087C698.454 104.786 698.559 104.392 698.85 104.207C699.95 103.536 703.004 101.572 703.894 100.563C704.125 100.294 704.526 100.278 704.794 100.509C705.062 100.739 705.08 101.15 704.848 101.408C703.656 102.765 699.68 105.198 699.51 105.298C699.425 105.348 699.338 105.379 699.249 105.389L699.259 105.388Z" fill="#3E3A39"/>
</g>
<g id="Group_53">
<path id="Vector_108" fill-rule="evenodd" clip-rule="evenodd" d="M713.178 129.966C713.89 129.161 720.447 128.071 721.806 128.672C723.164 129.272 726.226 139.824 726.198 140.929C726.17 142.034 714.14 142.88 714.14 142.88C714.14 142.88 711.891 131.406 713.178 129.966Z" fill="#3E3A39"/>
<path id="Vector_109" d="M714.368 143.124C714.239 143.134 714.159 143.139 714.159 143.139C714.029 143.149 713.902 143.058 713.883 142.929C713.88 142.9 713.314 140.014 712.919 136.995C712.105 130.778 712.771 130.026 712.984 129.79C713.845 128.833 720.518 127.815 721.918 128.433C722.591 128.723 723.557 130.777 724.779 134.527C725.699 137.326 726.484 140.326 726.47 140.939C726.456 141.291 726.097 141.598 724.359 141.959C723.352 142.164 721.944 142.379 720.194 142.58C717.668 142.868 715.106 143.069 714.368 143.124V143.124ZM713.371 130.142C712.51 131.099 713.5 138.195 714.349 142.594C715.087 142.539 717.46 142.362 719.856 142.083C725.077 141.494 725.823 141.007 725.924 140.889C725.913 140.329 725.195 137.554 724.259 134.686C722.948 130.682 722.055 129.064 721.683 128.911C720.387 128.336 713.971 129.446 713.361 130.143L713.371 130.142Z" fill="#3E3A39"/>
</g>
</g>
</g>
</g>
<g id="Group 5">
<path id="Vector_110" d="M612.69 75.97C614.496 75.97 615.96 77.434 615.96 79.24C615.96 81.046 614.496 82.51 612.69 82.51C610.884 82.51 609.42 81.046 609.42 79.24C609.42 77.434 610.884 75.97 612.69 75.97Z" fill="#F5F5F5"/>
<path id="Vector_111" d="M499 53L584 53" stroke="#F5F5F5" stroke-width="2" stroke-linecap="round" stroke-linejoin="round" stroke-dasharray="1 4.01"/>
<path id="Vector_112" d="M586.17 52.9999L586.67 52.9999L587.02 53.3599" stroke="#F5F5F5" stroke-width="2" stroke-linecap="round" stroke-linejoin="round"/>
<path id="Vector_113" d="M589.93 56.3599L610.31 77.3799" stroke="#F5F5F5" stroke-width="2" stroke-linecap="round" stroke-linejoin="round" stroke-dasharray="1.05 4.18"/>
<g id="&#230;&#136;&#145;&#230;&#150;&#185;&#233;&#167;&#149;&#233;&#167;&#155;">
<mask id="path-116-outside-1_57_1561" maskUnits="userSpaceOnUse" x="498.6" y="24.92" width="83" height="24" fill="black">
<rect fill="white" x="498.6" y="24.92" width="83" height="24"/>
<path d="M514.08 28.8C515.16 29.78 516.42 31.18 516.94 32.14L518.88 30.78C518.28 29.84 516.98 28.5 515.88 27.56L514.08 28.8ZM500.98 32.7V34.98H519.04V32.7H500.98ZM500.6 38.36L501.2 40.78C503.78 40.26 507.26 39.56 510.5 38.88L510.32 36.7C506.82 37.34 503.02 38 500.6 38.36ZM504.78 29.48V42.96C504.78 43.3 504.66 43.4 504.3 43.4C503.94 43.42 502.78 43.42 501.64 43.36C502 44.04 502.4 45.12 502.5 45.8C504.14 45.8 505.32 45.72 506.12 45.34C506.94 44.96 507.2 44.3 507.2 43V29.48H504.78ZM508.88 27.14C506.82 27.84 503.7 28.46 500.88 28.84C501.16 29.38 501.46 30.28 501.58 30.84C504.48 30.52 507.9 29.98 510.5 29.18L508.88 27.14ZM510.84 27.18C510.9 36.16 512.46 45.88 516.6 45.88C518.42 45.88 519.18 45 519.56 41.46C518.92 41.2 518.1 40.64 517.6 40.08C517.48 42.46 517.26 43.44 516.84 43.44C515.02 43.44 513.22 35.24 513.36 27.18H510.84ZM516.28 35.64C514.5 38.94 511.24 41.66 507.82 43.22C508.42 43.76 509.08 44.56 509.44 45.16C513.06 43.24 516.32 40.26 518.4 36.54L516.28 35.64Z"/>
<path d="M520.92 30.22V32.52H539.06V30.22H520.92ZM527.6 35.12V37.4H535.26V35.12H527.6ZM534.38 35.12L534.36 35.5C534.08 40.44 533.7 42.72 533.1 43.24C532.84 43.46 532.56 43.48 532.12 43.48C531.54 43.48 530.12 43.48 528.74 43.36C529.2 44.02 529.56 45.02 529.6 45.72C530.94 45.76 532.28 45.78 533.04 45.72C533.96 45.62 534.6 45.42 535.2 44.78C536 43.9 536.42 41.64 536.78 36.16C536.84 35.84 536.86 35.12 536.86 35.12H534.38ZM526.7 31.58C526.5 36.14 526.38 41.22 520.56 43.92C521.2 44.42 521.92 45.3 522.28 45.94C528.56 42.78 529.1 36.94 529.4 31.58H526.7ZM528.64 26.92V31.12H531.12V26.92H528.64Z"/>
<path d="M541.16 28.34V30.16H548.82V28.34H541.16ZM545.04 36.16V37.42H556.6V36.16H545.04ZM545.06 38.16V39.44H556.62V38.16H545.06ZM545.02 40.18V41.78H557.22V40.18H545.02ZM548.24 28.34V28.6C548.12 30.6 547.96 31.4 547.76 31.64C547.6 31.78 547.48 31.82 547.24 31.82C547.02 31.82 546.56 31.8 546 31.74C546.28 32.2 546.46 32.94 546.5 33.48C547.26 33.5 547.98 33.5 548.4 33.44C548.86 33.4 549.24 33.26 549.58 32.88C550 32.44 550.2 31.36 550.36 29.08C550.4 28.84 550.42 28.34 550.42 28.34H548.24ZM553.42 29.7H556.28V31.38H553.42V29.7ZM551.22 27.94V33.16H558.6V27.94H551.22ZM543.3 33.9V41.78H545.66V35.42H557.44V33.9H543.3ZM549.62 34.54V40.84H551.94V34.54H549.62ZM556.44 40.18V40.46C556.28 42.7 556.04 43.62 555.78 43.88C555.62 44.04 555.48 44.06 555.22 44.06C554.98 44.08 554.44 44.06 553.84 44C554.12 44.48 554.32 45.26 554.34 45.8C555.2 45.84 555.96 45.84 556.42 45.78C556.9 45.72 557.32 45.58 557.68 45.18C558.16 44.68 558.42 43.52 558.66 40.98C558.7 40.7 558.74 40.18 558.74 40.18H556.44ZM542.94 41.74C542.36 42.68 541.46 43.88 540.64 44.66L542.64 45.82C543.38 44.94 544.22 43.72 544.86 42.74L542.94 41.74ZM545.6 42.62C545.88 43.56 546.1 44.8 546.14 45.6L548.24 45.22C548.16 44.42 547.9 43.22 547.58 42.3L545.6 42.62ZM548.88 42.64C549.32 43.48 549.74 44.62 549.86 45.36L551.78 44.76C551.6 44.04 551.14 42.96 550.66 42.14L548.88 42.64ZM551.98 42.42C552.46 43.04 553 43.9 553.22 44.46L554.92 43.72C554.68 43.16 554.12 42.36 553.6 41.8L551.98 42.42ZM544.14 27.04C543.94 29.8 543.52 31.74 540.46 32.8C540.92 33.2 541.48 33.96 541.7 34.48C545.38 33.06 546.08 30.54 546.34 27.04H544.14Z"/>
<path d="M571.66 32.12H576.8V35.26H571.66V32.12ZM569.56 30.1V37.26H579.02V30.1H569.56ZM573.1 27.18V36.28C573.1 39.4 572.8 42.72 568.7 44C569.18 44.44 569.88 45.34 570.16 45.82C574.54 43.98 575.32 40.16 575.32 36.28V27.18H573.1ZM571.64 37.9L569.64 38.3C571.06 42.42 573.54 44.84 578.18 45.84C578.48 45.22 579.1 44.26 579.6 43.76C575.3 43.1 572.8 41.12 571.64 37.9ZM562.74 30.86V32.66H568.6V30.86H562.74ZM562.74 33.9V35.72H568.6V33.9H562.74ZM562.66 36.96V38.82H568.12V36.96H562.66ZM564.8 28.92V37.94H566.7V28.92H564.8ZM565.58 39.62C565.96 40.44 566.34 41.52 566.46 42.22L567.46 41.86C567.3 41.18 566.92 40.1 566.5 39.32L565.58 39.62ZM564.26 39.88C564.56 40.92 564.82 42.28 564.86 43.16L565.92 42.92C565.88 42.08 565.6 40.74 565.28 39.7L564.26 39.88ZM562.94 40.02C563.1 41.22 563.16 42.72 563.1 43.74L564.18 43.6C564.24 42.62 564.16 41.08 563.96 39.9L562.94 40.02ZM561.36 39.62C561.2 40.98 560.88 42.88 560.48 44.06L561.84 44.58C562.22 43.38 562.48 41.44 562.66 40.04L561.36 39.62ZM561.52 27.76V38.82H563.48V29.7H569V27.76H561.52ZM567.34 36.96V37.28C567.14 41.68 566.92 43.32 566.6 43.72C566.44 43.92 566.28 43.96 566.02 43.96C565.74 43.96 565.18 43.96 564.56 43.88C564.84 44.4 565.04 45.18 565.08 45.74C565.84 45.78 566.58 45.76 567 45.7C567.54 45.64 567.92 45.46 568.28 45.02C568.82 44.36 569.04 42.5 569.28 37.78C569.3 37.52 569.32 36.96 569.32 36.96H567.34Z"/>
</mask>
<path d="M514.08 28.8C515.16 29.78 516.42 31.18 516.94 32.14L518.88 30.78C518.28 29.84 516.98 28.5 515.88 27.56L514.08 28.8ZM500.98 32.7V34.98H519.04V32.7H500.98ZM500.6 38.36L501.2 40.78C503.78 40.26 507.26 39.56 510.5 38.88L510.32 36.7C506.82 37.34 503.02 38 500.6 38.36ZM504.78 29.48V42.96C504.78 43.3 504.66 43.4 504.3 43.4C503.94 43.42 502.78 43.42 501.64 43.36C502 44.04 502.4 45.12 502.5 45.8C504.14 45.8 505.32 45.72 506.12 45.34C506.94 44.96 507.2 44.3 507.2 43V29.48H504.78ZM508.88 27.14C506.82 27.84 503.7 28.46 500.88 28.84C501.16 29.38 501.46 30.28 501.58 30.84C504.48 30.52 507.9 29.98 510.5 29.18L508.88 27.14ZM510.84 27.18C510.9 36.16 512.46 45.88 516.6 45.88C518.42 45.88 519.18 45 519.56 41.46C518.92 41.2 518.1 40.64 517.6 40.08C517.48 42.46 517.26 43.44 516.84 43.44C515.02 43.44 513.22 35.24 513.36 27.18H510.84ZM516.28 35.64C514.5 38.94 511.24 41.66 507.82 43.22C508.42 43.76 509.08 44.56 509.44 45.16C513.06 43.24 516.32 40.26 518.4 36.54L516.28 35.64Z" fill="#F5F5F5"/>
<path d="M520.92 30.22V32.52H539.06V30.22H520.92ZM527.6 35.12V37.4H535.26V35.12H527.6ZM534.38 35.12L534.36 35.5C534.08 40.44 533.7 42.72 533.1 43.24C532.84 43.46 532.56 43.48 532.12 43.48C531.54 43.48 530.12 43.48 528.74 43.36C529.2 44.02 529.56 45.02 529.6 45.72C530.94 45.76 532.28 45.78 533.04 45.72C533.96 45.62 534.6 45.42 535.2 44.78C536 43.9 536.42 41.64 536.78 36.16C536.84 35.84 536.86 35.12 536.86 35.12H534.38ZM526.7 31.58C526.5 36.14 526.38 41.22 520.56 43.92C521.2 44.42 521.92 45.3 522.28 45.94C528.56 42.78 529.1 36.94 529.4 31.58H526.7ZM528.64 26.92V31.12H531.12V26.92H528.64Z" fill="#F5F5F5"/>
<path d="M541.16 28.34V30.16H548.82V28.34H541.16ZM545.04 36.16V37.42H556.6V36.16H545.04ZM545.06 38.16V39.44H556.62V38.16H545.06ZM545.02 40.18V41.78H557.22V40.18H545.02ZM548.24 28.34V28.6C548.12 30.6 547.96 31.4 547.76 31.64C547.6 31.78 547.48 31.82 547.24 31.82C547.02 31.82 546.56 31.8 546 31.74C546.28 32.2 546.46 32.94 546.5 33.48C547.26 33.5 547.98 33.5 548.4 33.44C548.86 33.4 549.24 33.26 549.58 32.88C550 32.44 550.2 31.36 550.36 29.08C550.4 28.84 550.42 28.34 550.42 28.34H548.24ZM553.42 29.7H556.28V31.38H553.42V29.7ZM551.22 27.94V33.16H558.6V27.94H551.22ZM543.3 33.9V41.78H545.66V35.42H557.44V33.9H543.3ZM549.62 34.54V40.84H551.94V34.54H549.62ZM556.44 40.18V40.46C556.28 42.7 556.04 43.62 555.78 43.88C555.62 44.04 555.48 44.06 555.22 44.06C554.98 44.08 554.44 44.06 553.84 44C554.12 44.48 554.32 45.26 554.34 45.8C555.2 45.84 555.96 45.84 556.42 45.78C556.9 45.72 557.32 45.58 557.68 45.18C558.16 44.68 558.42 43.52 558.66 40.98C558.7 40.7 558.74 40.18 558.74 40.18H556.44ZM542.94 41.74C542.36 42.68 541.46 43.88 540.64 44.66L542.64 45.82C543.38 44.94 544.22 43.72 544.86 42.74L542.94 41.74ZM545.6 42.62C545.88 43.56 546.1 44.8 546.14 45.6L548.24 45.22C548.16 44.42 547.9 43.22 547.58 42.3L545.6 42.62ZM548.88 42.64C549.32 43.48 549.74 44.62 549.86 45.36L551.78 44.76C551.6 44.04 551.14 42.96 550.66 42.14L548.88 42.64ZM551.98 42.42C552.46 43.04 553 43.9 553.22 44.46L554.92 43.72C554.68 43.16 554.12 42.36 553.6 41.8L551.98 42.42ZM544.14 27.04C543.94 29.8 543.52 31.74 540.46 32.8C540.92 33.2 541.48 33.96 541.7 34.48C545.38 33.06 546.08 30.54 546.34 27.04H544.14Z" fill="#F5F5F5"/>
<path d="M571.66 32.12H576.8V35.26H571.66V32.12ZM569.56 30.1V37.26H579.02V30.1H569.56ZM573.1 27.18V36.28C573.1 39.4 572.8 42.72 568.7 44C569.18 44.44 569.88 45.34 570.16 45.82C574.54 43.98 575.32 40.16 575.32 36.28V27.18H573.1ZM571.64 37.9L569.64 38.3C571.06 42.42 573.54 44.84 578.18 45.84C578.48 45.22 579.1 44.26 579.6 43.76C575.3 43.1 572.8 41.12 571.64 37.9ZM562.74 30.86V32.66H568.6V30.86H562.74ZM562.74 33.9V35.72H568.6V33.9H562.74ZM562.66 36.96V38.82H568.12V36.96H562.66ZM564.8 28.92V37.94H566.7V28.92H564.8ZM565.58 39.62C565.96 40.44 566.34 41.52 566.46 42.22L567.46 41.86C567.3 41.18 566.92 40.1 566.5 39.32L565.58 39.62ZM564.26 39.88C564.56 40.92 564.82 42.28 564.86 43.16L565.92 42.92C565.88 42.08 565.6 40.74 565.28 39.7L564.26 39.88ZM562.94 40.02C563.1 41.22 563.16 42.72 563.1 43.74L564.18 43.6C564.24 42.62 564.16 41.08 563.96 39.9L562.94 40.02ZM561.36 39.62C561.2 40.98 560.88 42.88 560.48 44.06L561.84 44.58C562.22 43.38 562.48 41.44 562.66 40.04L561.36 39.62ZM561.52 27.76V38.82H563.48V29.7H569V27.76H561.52ZM567.34 36.96V37.28C567.14 41.68 566.92 43.32 566.6 43.72C566.44 43.92 566.28 43.96 566.02 43.96C565.74 43.96 565.18 43.96 564.56 43.88C564.84 44.4 565.04 45.18 565.08 45.74C565.84 45.78 566.58 45.76 567 45.7C567.54 45.64 567.92 45.46 568.28 45.02C568.82 44.36 569.04 42.5 569.28 37.78C569.3 37.52 569.32 36.96 569.32 36.96H567.34Z" fill="#F5F5F5"/>
<path d="M514.08 28.8C515.16 29.78 516.42 31.18 516.94 32.14L518.88 30.78C518.28 29.84 516.98 28.5 515.88 27.56L514.08 28.8ZM500.98 32.7V34.98H519.04V32.7H500.98ZM500.6 38.36L501.2 40.78C503.78 40.26 507.26 39.56 510.5 38.88L510.32 36.7C506.82 37.34 503.02 38 500.6 38.36ZM504.78 29.48V42.96C504.78 43.3 504.66 43.4 504.3 43.4C503.94 43.42 502.78 43.42 501.64 43.36C502 44.04 502.4 45.12 502.5 45.8C504.14 45.8 505.32 45.72 506.12 45.34C506.94 44.96 507.2 44.3 507.2 43V29.48H504.78ZM508.88 27.14C506.82 27.84 503.7 28.46 500.88 28.84C501.16 29.38 501.46 30.28 501.58 30.84C504.48 30.52 507.9 29.98 510.5 29.18L508.88 27.14ZM510.84 27.18C510.9 36.16 512.46 45.88 516.6 45.88C518.42 45.88 519.18 45 519.56 41.46C518.92 41.2 518.1 40.64 517.6 40.08C517.48 42.46 517.26 43.44 516.84 43.44C515.02 43.44 513.22 35.24 513.36 27.18H510.84ZM516.28 35.64C514.5 38.94 511.24 41.66 507.82 43.22C508.42 43.76 509.08 44.56 509.44 45.16C513.06 43.24 516.32 40.26 518.4 36.54L516.28 35.64Z" stroke="#009DA2" stroke-width="4" stroke-linejoin="round" mask="url(#path-116-outside-1_57_1561)"/>
<path d="M520.92 30.22V32.52H539.06V30.22H520.92ZM527.6 35.12V37.4H535.26V35.12H527.6ZM534.38 35.12L534.36 35.5C534.08 40.44 533.7 42.72 533.1 43.24C532.84 43.46 532.56 43.48 532.12 43.48C531.54 43.48 530.12 43.48 528.74 43.36C529.2 44.02 529.56 45.02 529.6 45.72C530.94 45.76 532.28 45.78 533.04 45.72C533.96 45.62 534.6 45.42 535.2 44.78C536 43.9 536.42 41.64 536.78 36.16C536.84 35.84 536.86 35.12 536.86 35.12H534.38ZM526.7 31.58C526.5 36.14 526.38 41.22 520.56 43.92C521.2 44.42 521.92 45.3 522.28 45.94C528.56 42.78 529.1 36.94 529.4 31.58H526.7ZM528.64 26.92V31.12H531.12V26.92H528.64Z" stroke="#009DA2" stroke-width="4" stroke-linejoin="round" mask="url(#path-116-outside-1_57_1561)"/>
<path d="M541.16 28.34V30.16H548.82V28.34H541.16ZM545.04 36.16V37.42H556.6V36.16H545.04ZM545.06 38.16V39.44H556.62V38.16H545.06ZM545.02 40.18V41.78H557.22V40.18H545.02ZM548.24 28.34V28.6C548.12 30.6 547.96 31.4 547.76 31.64C547.6 31.78 547.48 31.82 547.24 31.82C547.02 31.82 546.56 31.8 546 31.74C546.28 32.2 546.46 32.94 546.5 33.48C547.26 33.5 547.98 33.5 548.4 33.44C548.86 33.4 549.24 33.26 549.58 32.88C550 32.44 550.2 31.36 550.36 29.08C550.4 28.84 550.42 28.34 550.42 28.34H548.24ZM553.42 29.7H556.28V31.38H553.42V29.7ZM551.22 27.94V33.16H558.6V27.94H551.22ZM543.3 33.9V41.78H545.66V35.42H557.44V33.9H543.3ZM549.62 34.54V40.84H551.94V34.54H549.62ZM556.44 40.18V40.46C556.28 42.7 556.04 43.62 555.78 43.88C555.62 44.04 555.48 44.06 555.22 44.06C554.98 44.08 554.44 44.06 553.84 44C554.12 44.48 554.32 45.26 554.34 45.8C555.2 45.84 555.96 45.84 556.42 45.78C556.9 45.72 557.32 45.58 557.68 45.18C558.16 44.68 558.42 43.52 558.66 40.98C558.7 40.7 558.74 40.18 558.74 40.18H556.44ZM542.94 41.74C542.36 42.68 541.46 43.88 540.64 44.66L542.64 45.82C543.38 44.94 544.22 43.72 544.86 42.74L542.94 41.74ZM545.6 42.62C545.88 43.56 546.1 44.8 546.14 45.6L548.24 45.22C548.16 44.42 547.9 43.22 547.58 42.3L545.6 42.62ZM548.88 42.64C549.32 43.48 549.74 44.62 549.86 45.36L551.78 44.76C551.6 44.04 551.14 42.96 550.66 42.14L548.88 42.64ZM551.98 42.42C552.46 43.04 553 43.9 553.22 44.46L554.92 43.72C554.68 43.16 554.12 42.36 553.6 41.8L551.98 42.42ZM544.14 27.04C543.94 29.8 543.52 31.74 540.46 32.8C540.92 33.2 541.48 33.96 541.7 34.48C545.38 33.06 546.08 30.54 546.34 27.04H544.14Z" stroke="#009DA2" stroke-width="4" stroke-linejoin="round" mask="url(#path-116-outside-1_57_1561)"/>
<path d="M571.66 32.12H576.8V35.26H571.66V32.12ZM569.56 30.1V37.26H579.02V30.1H569.56ZM573.1 27.18V36.28C573.1 39.4 572.8 42.72 568.7 44C569.18 44.44 569.88 45.34 570.16 45.82C574.54 43.98 575.32 40.16 575.32 36.28V27.18H573.1ZM571.64 37.9L569.64 38.3C571.06 42.42 573.54 44.84 578.18 45.84C578.48 45.22 579.1 44.26 579.6 43.76C575.3 43.1 572.8 41.12 571.64 37.9ZM562.74 30.86V32.66H568.6V30.86H562.74ZM562.74 33.9V35.72H568.6V33.9H562.74ZM562.66 36.96V38.82H568.12V36.96H562.66ZM564.8 28.92V37.94H566.7V28.92H564.8ZM565.58 39.62C565.96 40.44 566.34 41.52 566.46 42.22L567.46 41.86C567.3 41.18 566.92 40.1 566.5 39.32L565.58 39.62ZM564.26 39.88C564.56 40.92 564.82 42.28 564.86 43.16L565.92 42.92C565.88 42.08 565.6 40.74 565.28 39.7L564.26 39.88ZM562.94 40.02C563.1 41.22 563.16 42.72 563.1 43.74L564.18 43.6C564.24 42.62 564.16 41.08 563.96 39.9L562.94 40.02ZM561.36 39.62C561.2 40.98 560.88 42.88 560.48 44.06L561.84 44.58C562.22 43.38 562.48 41.44 562.66 40.04L561.36 39.62ZM561.52 27.76V38.82H563.48V29.7H569V27.76H561.52ZM567.34 36.96V37.28C567.14 41.68 566.92 43.32 566.6 43.72C566.44 43.92 566.28 43.96 566.02 43.96C565.74 43.96 565.18 43.96 564.56 43.88C564.84 44.4 565.04 45.18 565.08 45.74C565.84 45.78 566.58 45.76 567 45.7C567.54 45.64 567.92 45.46 568.28 45.02C568.82 44.36 569.04 42.5 569.28 37.78C569.3 37.52 569.32 36.96 569.32 36.96H567.34Z" stroke="#009DA2" stroke-width="4" stroke-linejoin="round" mask="url(#path-116-outside-1_57_1561)"/>
</g>
<g id="&#230;&#136;&#145;&#230;&#150;&#185;&#233;&#167;&#149;&#233;&#167;&#155;_2">
<path d="M514.08 28.8C515.16 29.78 516.42 31.18 516.94 32.14L518.88 30.78C518.28 29.84 516.98 28.5 515.88 27.56L514.08 28.8ZM500.98 32.7V34.98H519.04V32.7H500.98ZM500.6 38.36L501.2 40.78C503.78 40.26 507.26 39.56 510.5 38.88L510.32 36.7C506.82 37.34 503.02 38 500.6 38.36ZM504.78 29.48V42.96C504.78 43.3 504.66 43.4 504.3 43.4C503.94 43.42 502.78 43.42 501.64 43.36C502 44.04 502.4 45.12 502.5 45.8C504.14 45.8 505.32 45.72 506.12 45.34C506.94 44.96 507.2 44.3 507.2 43V29.48H504.78ZM508.88 27.14C506.82 27.84 503.7 28.46 500.88 28.84C501.16 29.38 501.46 30.28 501.58 30.84C504.48 30.52 507.9 29.98 510.5 29.18L508.88 27.14ZM510.84 27.18C510.9 36.16 512.46 45.88 516.6 45.88C518.42 45.88 519.18 45 519.56 41.46C518.92 41.2 518.1 40.64 517.6 40.08C517.48 42.46 517.26 43.44 516.84 43.44C515.02 43.44 513.22 35.24 513.36 27.18H510.84ZM516.28 35.64C514.5 38.94 511.24 41.66 507.82 43.22C508.42 43.76 509.08 44.56 509.44 45.16C513.06 43.24 516.32 40.26 518.4 36.54L516.28 35.64Z" fill="#F5F5F5"/>
<path d="M520.92 30.22V32.52H539.06V30.22H520.92ZM527.6 35.12V37.4H535.26V35.12H527.6ZM534.38 35.12L534.36 35.5C534.08 40.44 533.7 42.72 533.1 43.24C532.84 43.46 532.56 43.48 532.12 43.48C531.54 43.48 530.12 43.48 528.74 43.36C529.2 44.02 529.56 45.02 529.6 45.72C530.94 45.76 532.28 45.78 533.04 45.72C533.96 45.62 534.6 45.42 535.2 44.78C536 43.9 536.42 41.64 536.78 36.16C536.84 35.84 536.86 35.12 536.86 35.12H534.38ZM526.7 31.58C526.5 36.14 526.38 41.22 520.56 43.92C521.2 44.42 521.92 45.3 522.28 45.94C528.56 42.78 529.1 36.94 529.4 31.58H526.7ZM528.64 26.92V31.12H531.12V26.92H528.64Z" fill="#F5F5F5"/>
<path d="M541.16 28.34V30.16H548.82V28.34H541.16ZM545.04 36.16V37.42H556.6V36.16H545.04ZM545.06 38.16V39.44H556.62V38.16H545.06ZM545.02 40.18V41.78H557.22V40.18H545.02ZM548.24 28.34V28.6C548.12 30.6 547.96 31.4 547.76 31.64C547.6 31.78 547.48 31.82 547.24 31.82C547.02 31.82 546.56 31.8 546 31.74C546.28 32.2 546.46 32.94 546.5 33.48C547.26 33.5 547.98 33.5 548.4 33.44C548.86 33.4 549.24 33.26 549.58 32.88C550 32.44 550.2 31.36 550.36 29.08C550.4 28.84 550.42 28.34 550.42 28.34H548.24ZM553.42 29.7H556.28V31.38H553.42V29.7ZM551.22 27.94V33.16H558.6V27.94H551.22ZM543.3 33.9V41.78H545.66V35.42H557.44V33.9H543.3ZM549.62 34.54V40.84H551.94V34.54H549.62ZM556.44 40.18V40.46C556.28 42.7 556.04 43.62 555.78 43.88C555.62 44.04 555.48 44.06 555.22 44.06C554.98 44.08 554.44 44.06 553.84 44C554.12 44.48 554.32 45.26 554.34 45.8C555.2 45.84 555.96 45.84 556.42 45.78C556.9 45.72 557.32 45.58 557.68 45.18C558.16 44.68 558.42 43.52 558.66 40.98C558.7 40.7 558.74 40.18 558.74 40.18H556.44ZM542.94 41.74C542.36 42.68 541.46 43.88 540.64 44.66L542.64 45.82C543.38 44.94 544.22 43.72 544.86 42.74L542.94 41.74ZM545.6 42.62C545.88 43.56 546.1 44.8 546.14 45.6L548.24 45.22C548.16 44.42 547.9 43.22 547.58 42.3L545.6 42.62ZM548.88 42.64C549.32 43.48 549.74 44.62 549.86 45.36L551.78 44.76C551.6 44.04 551.14 42.96 550.66 42.14L548.88 42.64ZM551.98 42.42C552.46 43.04 553 43.9 553.22 44.46L554.92 43.72C554.68 43.16 554.12 42.36 553.6 41.8L551.98 42.42ZM544.14 27.04C543.94 29.8 543.52 31.74 540.46 32.8C540.92 33.2 541.48 33.96 541.7 34.48C545.38 33.06 546.08 30.54 546.34 27.04H544.14Z" fill="#F5F5F5"/>
<path d="M571.66 32.12H576.8V35.26H571.66V32.12ZM569.56 30.1V37.26H579.02V30.1H569.56ZM573.1 27.18V36.28C573.1 39.4 572.8 42.72 568.7 44C569.18 44.44 569.88 45.34 570.16 45.82C574.54 43.98 575.32 40.16 575.32 36.28V27.18H573.1ZM571.64 37.9L569.64 38.3C571.06 42.42 573.54 44.84 578.18 45.84C578.48 45.22 579.1 44.26 579.6 43.76C575.3 43.1 572.8 41.12 571.64 37.9ZM562.74 30.86V32.66H568.6V30.86H562.74ZM562.74 33.9V35.72H568.6V33.9H562.74ZM562.66 36.96V38.82H568.12V36.96H562.66ZM564.8 28.92V37.94H566.7V28.92H564.8ZM565.58 39.62C565.96 40.44 566.34 41.52 566.46 42.22L567.46 41.86C567.3 41.18 566.92 40.1 566.5 39.32L565.58 39.62ZM564.26 39.88C564.56 40.92 564.82 42.28 564.86 43.16L565.92 42.92C565.88 42.08 565.6 40.74 565.28 39.7L564.26 39.88ZM562.94 40.02C563.1 41.22 563.16 42.72 563.1 43.74L564.18 43.6C564.24 42.62 564.16 41.08 563.96 39.9L562.94 40.02ZM561.36 39.62C561.2 40.98 560.88 42.88 560.48 44.06L561.84 44.58C562.22 43.38 562.48 41.44 562.66 40.04L561.36 39.62ZM561.52 27.76V38.82H563.48V29.7H569V27.76H561.52ZM567.34 36.96V37.28C567.14 41.68 566.92 43.32 566.6 43.72C566.44 43.92 566.28 43.96 566.02 43.96C565.74 43.96 565.18 43.96 564.56 43.88C564.84 44.4 565.04 45.18 565.08 45.74C565.84 45.78 566.58 45.76 567 45.7C567.54 45.64 567.92 45.46 568.28 45.02C568.82 44.36 569.04 42.5 569.28 37.78C569.3 37.52 569.32 36.96 569.32 36.96H567.34Z" fill="#F5F5F5"/>
</g>
</g>
<g id="Group 4">
<path id="Vector_114" d="M732.27 57.46C730.464 57.46 729 58.924 729 60.73C729 62.536 730.464 64 732.27 64C734.076 64 735.54 62.536 735.54 60.73C735.54 58.924 734.076 57.46 732.27 57.46Z" fill="#F5F5F5"/>
<path id="Vector_115" d="M834 41L748 41" stroke="#F5F5F5" stroke-width="2" stroke-linecap="round" stroke-linejoin="round" stroke-dasharray="1 4.01"/>
<path id="Vector_116" d="M732.54 60L747.54 41" stroke="#F5F5F5" stroke-width="2" stroke-linecap="round" stroke-linejoin="round" stroke-dasharray="0.93 3.73"/>
<path id="&#230;&#136;&#145;&#230;&#150;&#185;&#228;&#185;&#152;&#229;&#174;&#162; (Stroke)" fill-rule="evenodd" clip-rule="evenodd" d="M768.85 13.8457C768.829 13.8228 768.808 13.8002 768.787 13.7782C768.411 13.3956 767.897 13.18 767.36 13.18H764.84C764.508 13.18 764.184 13.2629 763.896 13.417C763.404 13.1272 762.799 13.0552 762.237 13.2464C760.354 13.886 757.38 14.4851 754.613 14.858C753.968 14.9449 753.406 15.3403 753.105 15.9178C752.805 16.4954 752.805 17.1829 753.105 17.7607C753.284 18.1067 753.525 18.8109 753.619 19.2345C753.226 19.5997 752.98 20.1212 752.98 20.7V22.98C752.98 23.6181 753.279 24.1863 753.744 24.5525C753.421 24.7056 753.141 24.9441 752.938 25.2473C752.625 25.7155 752.523 26.2943 752.659 26.8413L753.259 29.2613C753.366 29.6944 753.608 30.0603 753.929 30.3244C753.566 30.9248 753.543 31.6734 753.873 32.2958C754.163 32.8449 754.464 33.7037 754.521 34.091C754.666 35.0726 755.508 35.8 756.5 35.8C758.061 35.8 759.697 35.7513 760.969 35.1512C761.33 34.9826 761.663 34.7677 761.955 34.5004C762.558 35.1687 763.554 35.3635 764.377 34.9269C765.108 34.5394 765.826 34.1116 766.525 33.6457C767.456 34.8683 768.798 35.88 770.6 35.88C771.201 35.88 771.877 35.8101 772.542 35.5353C773.175 35.2733 773.704 34.8635 774.125 34.3248C774.292 34.5359 774.439 34.7469 774.537 34.9206C775.061 35.852 776.224 36.207 777.179 35.7266C778.862 34.8799 780.189 33.8624 781.239 32.7336C781.443 33.1152 781.59 33.5964 781.603 33.8341C781.663 34.8697 782.504 35.6882 783.54 35.7192C784.856 35.7584 786.309 35.784 787.198 35.7138C787.217 35.7123 787.237 35.7105 787.256 35.7083C788.414 35.5825 789.599 35.2785 790.659 34.1479L790.68 34.1254C791.487 33.2377 791.865 31.9561 792.122 30.5566C792.391 29.0921 792.59 27.0888 792.77 24.3865C792.81 24.113 792.829 23.8104 792.839 23.6335C792.846 23.5085 792.851 23.396 792.855 23.3151C792.855 23.2986 792.856 23.2834 792.856 23.2695C792.857 23.2489 792.858 23.2312 792.858 23.2169L792.859 23.1884L792.859 23.1799L792.859 23.1772L792.859 23.1759C792.859 23.1758 792.859 23.1756 791.26 23.1312L792.859 23.1759C792.866 22.9516 792.834 22.73 792.768 22.52H793.06C793.27 22.52 793.472 22.4878 793.661 22.4281C793.717 22.4995 793.777 22.5671 793.842 22.6303C793.841 22.66 793.84 22.69 793.84 22.72V24.58C793.84 24.6104 793.841 24.6405 793.842 24.6705C793.758 24.7506 793.68 24.8384 793.61 24.9334C793.275 25.3879 793.148 25.9627 793.26 26.5161L793.66 28.4961C793.717 28.7783 793.831 29.0348 793.987 29.256C793.972 29.2602 793.956 29.2644 793.941 29.2686C793.244 29.4558 792.703 30.0036 792.523 30.7022C792.344 31.4007 792.554 32.1418 793.074 32.6417C793.445 32.9984 794.035 33.7683 794.295 34.2115C794.773 35.0278 795.758 35.397 796.656 35.0964C798.106 34.6104 799.469 33.9454 800.72 33.1302V33.78C800.72 34.8846 801.616 35.78 802.72 35.78H805.26C806.365 35.78 807.26 34.8846 807.26 33.78V33.193C808.485 34.0076 809.826 34.6718 811.262 35.1554C812.162 35.4588 813.152 35.0863 813.63 34.2643C813.924 33.7582 814.495 33.0001 814.825 32.6828C815.306 32.2209 815.523 31.5526 815.411 30.9022C815.623 30.9309 815.842 30.926 816.062 30.8833C816.154 30.8653 816.247 30.8469 816.34 30.8282V33.8C816.34 34.9046 817.236 35.8 818.34 35.8H820.68C821.25 35.8 821.763 35.562 822.128 35.18H825.972C826.333 35.5386 826.831 35.76 827.38 35.76H829.84C830.945 35.76 831.84 34.8646 831.84 33.76V30.5197C832.605 30.5353 833.321 30.1108 833.669 29.4145C833.975 28.8033 834.527 27.9332 834.86 27.5883C835.393 27.0358 835.562 26.2271 835.296 25.5071C835.03 24.7871 834.376 24.2828 833.612 24.2093C832.421 24.0946 831.295 23.9275 830.245 23.7142C830.416 23.5079 830.582 23.2966 830.742 23.08H832.62C833.725 23.08 834.62 22.1846 834.62 21.08V16.66C834.62 15.5555 833.725 14.66 832.62 14.66H827.144C826.967 13.7372 826.155 13.04 825.18 13.04H822.7C821.725 13.04 820.914 13.7372 820.736 14.66H815.38C814.276 14.66 813.38 15.5555 813.38 16.66V17.1446C813.328 17.1269 813.274 17.1114 813.22 17.098C813.223 16.7856 813.153 16.4727 813.009 16.1856L811.969 14.1056C811.574 13.3155 810.707 12.8781 809.837 13.0297C806.421 13.6247 801.095 14.0016 796.389 14.1207C795.733 14.1373 795.126 14.4754 794.766 15.0252C794.407 15.5749 794.34 16.2662 794.588 16.8746C794.602 16.9082 794.615 16.9432 794.629 16.9794C794.263 16.5168 793.696 16.22 793.06 16.22H787.12V14.92C787.12 13.8155 786.225 12.92 785.12 12.92H782.64C781.536 12.92 780.64 13.8155 780.64 14.92V16.22H774.92C774.48 16.22 774.073 16.3624 773.742 16.6036C772.973 15.6881 771.997 14.7383 771.179 14.0396C770.522 13.4779 769.583 13.4048 768.85 13.8457ZM767.417 18.7C767.399 18.3282 767.385 17.954 767.374 17.5783C767.368 17.3751 767.364 17.1715 767.36 16.9676C767.353 16.561 767.351 16.1532 767.353 15.7452C767.355 15.5568 767.357 15.3684 767.36 15.18H764.84C764.844 15.7468 764.854 16.3165 764.87 16.8866C764.872 16.9844 764.875 17.0822 764.878 17.18C764.894 17.6539 764.913 18.1276 764.937 18.5998C764.939 18.6332 764.94 18.6666 764.942 18.7C764.95 18.8432 764.957 18.9862 764.966 19.129C764.996 19.6561 765.033 20.1805 765.075 20.7H761.2V17.9925C761.603 17.9121 762 17.8274 762.39 17.7383C762.559 17.6995 762.726 17.6599 762.892 17.6195C762.996 17.5942 763.098 17.5687 763.2 17.5428C763.651 17.4284 764.086 17.3075 764.5 17.18L762.88 15.14C762.867 15.1445 762.854 15.149 762.84 15.1535C762.465 15.28 762.055 15.4038 761.619 15.5241C761.482 15.5619 761.342 15.5994 761.2 15.6365C760.447 15.8329 759.628 16.0185 758.78 16.1889C758.206 16.3042 757.618 16.4126 757.029 16.5127C756.998 16.518 756.967 16.5233 756.935 16.5286C756.245 16.6447 755.554 16.7492 754.88 16.84C755.138 17.337 755.412 18.1389 755.548 18.7C755.553 18.722 755.558 18.7435 755.563 18.7647C755.569 18.7904 755.575 18.8155 755.58 18.84C755.967 18.7973 756.364 18.7507 756.766 18.7C756.771 18.6995 756.775 18.6989 756.78 18.6983C757.435 18.6157 758.107 18.5225 758.78 18.4182V20.7H754.98V22.98H758.78V25.6821C758.083 25.8012 757.411 25.9138 756.78 26.0171C756.714 26.0279 756.649 26.0386 756.584 26.0492C755.857 26.1675 755.188 26.2726 754.6 26.36L755.2 28.78L755.565 28.7066C755.953 28.6283 756.359 28.5464 756.78 28.4615C757.418 28.3329 758.088 28.1974 758.78 28.0571V30.96C758.78 31.3 758.66 31.4 758.3 31.4C758.205 31.4053 758.054 31.4092 757.862 31.411C757.328 31.4158 756.479 31.4042 755.64 31.36C755.934 31.9161 756.256 32.7397 756.418 33.3932C756.454 33.5389 756.482 33.6761 756.5 33.8C758.14 33.8 759.32 33.72 760.12 33.34C760.362 33.228 760.555 33.0916 760.707 32.9216C760.919 32.6852 761.051 32.384 761.124 31.993C761.177 31.7116 761.2 31.3837 761.2 31V27.5639C761.864 27.4277 762.534 27.2897 763.2 27.1514C763.444 27.1008 763.687 27.0502 763.929 26.9997C764.12 26.9598 764.31 26.9199 764.5 26.88L764.32 24.7C764.062 24.7473 763.801 24.7947 763.54 24.8421C763.427 24.8626 763.314 24.8832 763.2 24.9037C763.059 24.9291 762.918 24.9546 762.777 24.98C762.632 25.006 762.487 25.032 762.343 25.0579C761.961 25.1262 761.579 25.1942 761.2 25.2612V22.98H765.304C765.37 23.5308 765.444 24.0719 765.526 24.6004C765.546 24.7277 765.566 24.8543 765.587 24.98C765.653 25.3834 765.724 25.7789 765.8 26.1652C765.84 26.3669 765.881 26.5661 765.923 26.7626C766.009 27.165 766.102 27.5561 766.2 27.9344C766.239 28.0848 766.278 28.2331 766.319 28.3793C765.773 28.8367 765.202 29.2643 764.613 29.6587C764.307 29.8632 763.997 30.0587 763.683 30.2448C763.523 30.3398 763.362 30.4324 763.2 30.5224C762.898 30.6906 762.593 30.8499 762.286 31C762.131 31.0757 761.976 31.1491 761.82 31.22C762.24 31.5979 762.689 32.1031 763.044 32.5779C763.096 32.6469 763.146 32.7153 763.193 32.7826C763.285 32.9139 763.369 33.0409 763.44 33.16C764.14 32.7886 764.827 32.3776 765.495 31.9291C766.057 31.5511 766.606 31.1466 767.137 30.7169C767.439 31.3994 767.775 31.9908 768.145 32.4714C768.836 33.3684 769.65 33.88 770.6 33.88C771.602 33.88 772.283 33.6133 772.756 32.7828C773.074 32.2236 773.298 31.4088 773.463 30.2478C773.498 30.0012 773.53 29.7388 773.56 29.46C773.545 29.4539 773.53 29.4476 773.514 29.4411C773.068 29.2523 772.541 28.9244 772.098 28.5556C771.914 28.4018 771.744 28.2409 771.6 28.08C771.578 28.5153 771.553 28.9037 771.524 29.2479C771.516 29.3431 771.507 29.4349 771.498 29.5233C771.496 29.5522 771.493 29.5807 771.49 29.6089C771.453 29.9634 771.411 30.262 771.363 30.5085C771.237 31.1519 771.068 31.44 770.84 31.44C770.554 31.44 770.268 31.2374 769.991 30.8645C769.83 30.6493 769.673 30.3773 769.519 30.0548C769.493 29.9998 769.467 29.9433 769.441 29.8853C769.316 29.6072 769.195 29.296 769.077 28.955C769.247 28.7816 769.414 28.6054 769.578 28.4263C769.707 28.2851 769.835 28.1421 769.961 27.9974C770.19 27.734 770.413 27.4648 770.629 27.1901C770.868 26.8853 771.1 26.5737 771.323 26.2555C771.362 26.1993 771.401 26.1429 771.44 26.0864C771.687 25.7258 771.923 25.3569 772.147 24.98C772.233 24.8346 772.317 24.6879 772.4 24.54L770.28 23.64C770.187 23.8126 770.09 23.9836 769.989 24.153C769.822 24.4334 769.644 24.7092 769.456 24.98C769.124 25.4597 768.762 25.9237 768.373 26.3702C768.277 25.9271 768.186 25.4627 768.101 24.98C768.029 24.5711 767.961 24.1492 767.898 23.7162C767.862 23.4742 767.828 23.2287 767.796 22.98H773.04V20.7H767.551C767.502 20.1249 767.461 19.5397 767.43 18.948C767.425 18.8655 767.421 18.7828 767.417 18.7ZM775.04 22.52V22.98C775.04 23.5604 774.793 24.0831 774.398 24.4484C774.415 24.8172 774.33 25.1874 774.146 25.5161C773.875 26.001 773.586 26.474 773.28 26.9345C773.585 27.2075 774.013 27.4853 774.313 27.6071C774.936 27.8602 775.376 28.4011 775.514 29.0319C776.733 28.0883 777.423 26.9742 777.855 25.7712C778.218 24.7633 778.406 23.6815 778.52 22.52H775.04ZM780.658 20.52C780.645 20.8057 780.631 21.0926 780.613 21.38C780.591 21.7596 780.564 22.1401 780.529 22.52C780.511 22.7203 780.49 22.9204 780.467 23.12C780.378 23.8905 780.251 24.655 780.059 25.4C779.983 25.6937 779.897 25.9844 779.799 26.2712C779.21 28.0037 778.192 29.5968 776.39 30.8709C776.045 31.1149 775.671 31.3472 775.265 31.5665C775.04 31.6884 774.805 31.8064 774.56 31.92C774.726 32.0496 774.897 32.2046 775.066 32.3743C775.395 32.7054 775.716 33.0924 775.971 33.4555C776.09 33.625 776.195 33.7892 776.28 33.94C776.685 33.7362 777.066 33.5212 777.425 33.2959C777.623 33.1719 777.814 33.0447 777.998 32.9146C780.136 31.4042 781.392 29.4923 782.151 27.4C782.388 26.7486 782.576 26.0797 782.728 25.4H788.238C788.183 26.1438 788.125 26.8088 788.062 27.4C787.819 29.7002 787.511 30.8836 787.1 31.24C786.84 31.46 786.56 31.48 786.12 31.48C785.886 31.48 785.513 31.48 785.062 31.4721C784.398 31.4604 783.562 31.4315 782.74 31.36C783.138 31.9309 783.461 32.7562 783.567 33.4216C783.583 33.5255 783.595 33.6255 783.6 33.72C784.94 33.76 786.28 33.78 787.04 33.72C787.96 33.62 788.6 33.42 789.2 32.78C789.85 32.0648 790.249 30.4381 790.569 26.9119C790.612 26.4424 790.653 25.9392 790.693 25.4C790.7 25.3078 790.707 25.2144 790.714 25.12C790.736 24.8116 790.758 24.4917 790.78 24.16C790.84 23.84 790.86 23.12 790.86 23.12H783.113C783.137 22.9203 783.16 22.7202 783.181 22.52C783.214 22.2068 783.242 21.8933 783.268 21.58C783.28 21.4266 783.292 21.2733 783.303 21.12C783.318 20.9197 783.331 20.7197 783.344 20.52H793.06V18.22H785.12V14.92H782.64V18.22H774.92V20.52H780.658ZM772.828 18.7C772.752 18.5863 772.668 18.4673 772.575 18.3443C772.309 17.9925 771.978 17.6084 771.617 17.2229C771.067 16.6354 770.447 16.0446 769.88 15.56L768.08 16.8C768.509 17.1889 768.965 17.6438 769.393 18.1111C769.433 18.1547 769.473 18.1984 769.512 18.2422C769.649 18.3947 769.782 18.5479 769.91 18.7C769.955 18.7533 769.999 18.8065 770.042 18.8594C770.418 19.3194 770.736 19.7635 770.94 20.14L772.88 18.78C772.863 18.7537 772.846 18.727 772.828 18.7ZM785.725 29.4793C785.773 29.2791 785.824 29.0241 785.876 28.7045C785.937 28.3323 785.995 27.8993 786.051 27.4H784.262C784.048 28.0797 783.79 28.7523 783.479 29.4098C784.337 29.4644 785.167 29.4765 785.725 29.4793ZM785.571 29.9827C785.565 29.9937 785.563 29.9986 785.563 29.9983C785.562 29.998 785.565 29.9925 785.571 29.9827ZM796.958 18.1068C796.959 18.118 796.959 18.1291 796.96 18.14C798.169 18.1298 799.437 18.0996 800.72 18.0489C801.384 18.0227 802.053 17.9909 802.72 17.9536V19.04H795.24V21.2H802.72V25.6271C802.656 25.7243 802.589 25.8208 802.52 25.9167C802.42 26.0571 802.315 26.1962 802.206 26.3336C802.068 26.5075 801.923 26.6789 801.772 26.8475C801.719 26.9076 801.664 26.9672 801.609 27.0266C801.541 27.0991 801.473 27.1712 801.403 27.2427C801.369 27.2773 801.335 27.3119 801.3 27.3463V21.64H799.06V22.72H795.84V24.58H799.06V25.6933C798.875 25.7151 798.691 25.7367 798.509 25.7579C798.064 25.8096 797.632 25.8591 797.217 25.9055C797.165 25.9114 797.112 25.9173 797.06 25.9231C796.629 25.9711 796.22 26.0156 795.84 26.0558C795.736 26.0667 795.635 26.0774 795.535 26.0877C795.427 26.0989 795.322 26.1097 795.22 26.12L795.62 28.1L796.054 28.0298C796.379 27.977 796.716 27.9225 797.06 27.8665C797.185 27.8462 797.31 27.8258 797.437 27.8051C797.965 27.719 798.508 27.6297 799.06 27.5376V28.26H800.284C799.898 28.5734 799.489 28.8712 799.06 29.1511C798.755 29.3504 798.439 29.5406 798.115 29.7208C798.03 29.7678 797.945 29.8141 797.859 29.8597C797.428 30.089 796.982 30.3008 796.524 30.493C795.859 30.7718 795.169 31.0095 794.46 31.2C794.893 31.6162 795.45 32.3232 795.821 32.8831C795.896 32.9959 795.963 33.1028 796.02 33.2C797.744 32.6226 799.329 31.7601 800.72 30.6751C800.893 30.5402 801.063 30.4018 801.23 30.26C801.254 30.2402 801.277 30.2204 801.3 30.2004C801.803 29.7686 802.277 29.3065 802.72 28.8175V33.78H805.26V28.7892C805.268 28.7978 805.275 28.8065 805.283 28.8151C805.287 28.8198 805.291 28.8244 805.295 28.8291C805.308 28.844 805.321 28.8588 805.334 28.8735C805.57 29.1422 805.816 29.4028 806.07 29.6545C806.448 30.0286 806.845 30.3833 807.26 30.7169C808.626 31.8143 810.188 32.6833 811.9 33.26C811.96 33.1576 812.028 33.047 812.102 32.9315C812.48 32.3481 813.023 31.6407 813.44 31.24C812.733 31.0518 812.045 30.8142 811.383 30.5337C811.305 30.5007 811.228 30.4672 811.151 30.4331C811.047 30.3869 810.943 30.3396 810.84 30.2913C810.196 29.9889 809.58 29.6458 809 29.2684C808.512 28.9508 808.049 28.6088 807.616 28.2464C807.944 28.377 808.373 28.4356 808.933 28.4398C808.955 28.44 808.978 28.44 809 28.44H810.84C810.88 28.44 810.919 28.4396 810.958 28.4387C811.153 28.4342 811.331 28.4181 811.494 28.3876C811.86 28.3193 812.149 28.179 812.378 27.9371C812.489 27.8196 812.585 27.6781 812.67 27.5092C812.757 27.3353 812.831 27.1324 812.894 26.8967C812.906 26.8523 812.918 26.8068 812.929 26.76C812.98 26.5458 813.023 26.3066 813.06 26.04C812.955 26.0197 812.842 25.9931 812.724 25.9613C812.711 25.9575 812.697 25.9536 812.682 25.9497C812.116 25.7918 811.46 25.5194 811.12 25.26C811.112 25.46 811.103 25.6274 811.089 25.7674C811.069 25.9696 811.041 26.1146 811.001 26.2179C810.951 26.3477 810.88 26.4116 810.78 26.44C810.729 26.4548 810.669 26.46 810.6 26.46H809.34C809.232 26.46 809.146 26.4552 809.079 26.44C808.874 26.3938 808.84 26.2518 808.84 25.86V25.0742C808.939 25.0474 809.038 25.0201 809.138 24.9922C809.205 24.9735 809.272 24.9546 809.34 24.9354C809.423 24.9118 809.507 24.8879 809.59 24.8636C809.696 24.8329 809.803 24.8016 809.91 24.7697C809.962 24.7542 810.014 24.7385 810.066 24.7227C810.171 24.6908 810.277 24.6584 810.382 24.6255C810.455 24.6027 810.527 24.5797 810.6 24.5565C810.68 24.5309 810.76 24.505 810.84 24.4788C810.904 24.4578 810.968 24.4366 811.032 24.4152C811.375 24.3 811.713 24.1796 812.038 24.0548C812.154 24.0105 812.268 23.9655 812.38 23.92L811 22.2C810.948 22.2277 810.895 22.2556 810.84 22.2837C810.669 22.372 810.484 22.4629 810.289 22.5546C809.974 22.7031 809.633 22.8541 809.281 23.0009C809.135 23.0615 808.988 23.1213 808.84 23.18V21.58H806.64V25.88C806.64 26.1629 806.649 26.4177 806.67 26.6465C806.676 26.7092 806.683 26.77 806.691 26.8289C806.731 27.139 806.8 27.3964 806.906 27.6077C806.852 27.5552 806.798 27.5023 806.745 27.4491C806.634 27.3378 806.526 27.225 806.42 27.1108C806.193 26.8642 805.978 26.6112 805.777 26.3527C805.657 26.1971 805.541 26.0395 805.431 25.88C805.372 25.7955 805.315 25.7105 805.26 25.625V21.2H812.74V19.04H805.26V17.7827C805.939 17.7289 806.608 17.6689 807.26 17.6026C807.904 17.5373 808.532 17.4658 809.138 17.3881C809.868 17.2945 810.566 17.1919 811.22 17.08L810.18 15C809.098 15.1885 807.842 15.3548 806.484 15.4984C806.084 15.5407 805.676 15.581 805.26 15.6194C804.436 15.6954 803.584 15.7636 802.72 15.8239C802.179 15.8616 801.633 15.8962 801.085 15.9277C800.236 15.9765 799.382 16.0178 798.539 16.0515C797.83 16.0798 797.128 16.1026 796.44 16.12C796.543 16.3715 796.654 16.7011 796.747 17.04C796.851 17.4152 796.933 17.8018 796.958 18.1068ZM814.348 24.2763C814.339 24.3256 814.328 24.3748 814.316 24.4237C814.311 24.44 814.307 24.4561 814.302 24.4722C814.412 24.5595 814.512 24.6578 814.601 24.7652C814.687 24.7511 814.772 24.7367 814.857 24.7219C814.745 24.6128 814.655 24.5352 814.6 24.4948C814.509 24.4285 814.425 24.3553 814.348 24.2763ZM817.229 24.4495C817.278 24.5228 817.322 24.5934 817.36 24.66C817.584 24.5569 817.802 24.4517 818.015 24.3446C818.473 24.1143 818.906 23.8749 819.317 23.6262C819.366 23.5965 819.414 23.5667 819.463 23.5367C819.472 23.5311 819.481 23.5255 819.49 23.5199C819.598 23.4531 819.703 23.3857 819.808 23.3177C819.829 23.3384 819.85 23.359 819.871 23.3796C820.03 23.5347 820.193 23.6863 820.36 23.8344C820.392 23.8631 820.425 23.8916 820.458 23.92C820.459 23.9211 820.46 23.9221 820.461 23.9231C820.758 24.1811 821.066 24.4283 821.386 24.665C821.462 24.7205 821.537 24.7754 821.614 24.8298C821.208 25.0065 820.79 25.1735 820.363 25.3306C820.168 25.4025 819.97 25.4723 819.771 25.54C819.653 25.5804 819.534 25.62 819.414 25.6588C819.061 25.7735 818.702 25.8818 818.34 25.9836C818.231 26.0143 818.122 26.0444 818.012 26.0738C817.579 26.1902 817.141 26.2975 816.7 26.3957C816.693 26.3971 816.687 26.3986 816.68 26.4C816.608 26.4161 816.535 26.4319 816.463 26.4475C815.97 26.5532 815.473 26.6475 814.976 26.7303C814.831 26.7546 814.686 26.7778 814.54 26.8C814.645 26.9303 814.756 27.0894 814.865 27.2644C815.135 27.6957 815.401 28.2239 815.579 28.6564C815.617 28.7494 815.651 28.8379 815.68 28.92C815.9 28.8772 816.12 28.8325 816.34 28.7859C817.011 28.6436 817.679 28.4835 818.34 28.3043V33.8H820.68V33.18H827.38V33.76H829.84V28.1736C830.491 28.306 831.158 28.4195 831.84 28.5145C831.853 28.5164 831.867 28.5182 831.88 28.52C831.949 28.3832 832.03 28.2302 832.121 28.0685C832.481 27.4265 832.989 26.6474 833.42 26.2C832.633 26.1243 831.862 26.0256 831.112 25.9043C831.059 25.8957 831.006 25.887 830.953 25.8782C830.577 25.8154 830.205 25.7469 829.84 25.6727C829.632 25.6303 829.425 25.5861 829.221 25.54C829.013 25.4931 828.807 25.4443 828.603 25.3936C827.791 25.1912 827.014 24.9583 826.282 24.6954C826.617 24.4479 826.94 24.1895 827.248 23.92C827.502 23.6988 827.746 23.4701 827.98 23.2337C828.001 23.2121 828.023 23.1904 828.044 23.1687C828.223 22.9858 828.395 22.7983 828.561 22.6062C828.607 22.5528 828.653 22.499 828.698 22.4449C828.841 22.2736 828.979 22.0986 829.112 21.92C829.313 21.6486 829.503 21.3687 829.68 21.08C829.7 21.0468 829.72 21.0135 829.74 20.98L828.12 20.02L827.72 20.12H823.367C823.421 20.0538 823.473 19.9871 823.526 19.92C823.536 19.9067 823.547 19.8934 823.557 19.88C823.71 19.6832 823.857 19.4832 824 19.28L821.645 18.82H830.16V21.08H832.62V16.66H825.18V15.04H822.7V16.66H815.38V21.08H817.72V18.82H821.413C821.336 18.9345 821.253 19.0491 821.166 19.1635C821.137 19.2019 821.107 19.2403 821.077 19.2787C821.022 19.3473 820.966 19.4158 820.908 19.4843C820.785 19.6302 820.653 19.7756 820.513 19.92C820.476 19.958 820.438 19.9959 820.4 20.0337C820.387 20.047 820.374 20.0603 820.36 20.0736C820.162 20.2683 819.949 20.4611 819.72 20.6508C819.652 20.7075 819.582 20.7639 819.511 20.82C819.447 20.8701 819.382 20.9199 819.317 20.9694C819.268 21.0064 819.218 21.0433 819.167 21.08C818.974 21.2208 818.772 21.3593 818.56 21.4952C818.502 21.5321 818.444 21.5688 818.385 21.6053C818.185 21.729 817.977 21.8503 817.761 21.9688C817.747 21.9762 817.734 21.9837 817.72 21.9912C817.477 22.1234 817.224 22.2522 816.96 22.3769C816.588 22.5531 816.194 22.7213 815.78 22.88C815.858 22.9372 815.941 23.0047 816.027 23.08C816.384 23.3934 816.79 23.8429 817.088 24.2481C817.138 24.3168 817.186 24.3842 817.229 24.4495ZM820.68 31.22H827.38V29.5H820.68V31.22ZM826.193 27.1691C825.385 26.88 824.614 26.5528 823.882 26.1864C823.158 26.5664 822.4 26.9107 821.617 27.2218C821.376 27.3177 821.132 27.4104 820.886 27.5C820.85 27.5134 820.813 27.5268 820.776 27.54H827.317C827.274 27.5268 827.23 27.5135 827.187 27.5C826.85 27.3959 826.518 27.2856 826.193 27.1691ZM822.37 22.6834C822.626 22.8735 822.896 23.0565 823.179 23.2323C823.41 23.3755 823.65 23.514 823.899 23.6476C824.566 23.2363 825.174 22.7901 825.707 22.3099C825.777 22.2472 825.845 22.1839 825.912 22.12C825.981 22.054 826.049 21.9873 826.116 21.92H821.648C821.616 21.9479 821.585 21.9758 821.553 22.0035C821.703 22.1441 821.861 22.2813 822.026 22.4153C822.137 22.5062 822.252 22.5956 822.37 22.6834Z" fill="#009DA2"/>
<g id="&#230;&#136;&#145;&#230;&#150;&#185;&#228;&#185;&#152;&#229;&#174;&#162;">
<path d="M768.08 16.8C769.16 17.78 770.42 19.18 770.94 20.14L772.88 18.78C772.28 17.84 770.98 16.5 769.88 15.56L768.08 16.8ZM754.98 20.7V22.98H773.04V20.7H754.98ZM754.6 26.36L755.2 28.78C757.78 28.26 761.26 27.56 764.5 26.88L764.32 24.7C760.82 25.34 757.02 26 754.6 26.36ZM758.78 17.48V30.96C758.78 31.3 758.66 31.4 758.3 31.4C757.94 31.42 756.78 31.42 755.64 31.36C756 32.04 756.4 33.12 756.5 33.8C758.14 33.8 759.32 33.72 760.12 33.34C760.94 32.96 761.2 32.3 761.2 31V17.48H758.78ZM762.88 15.14C760.82 15.84 757.7 16.46 754.88 16.84C755.16 17.38 755.46 18.28 755.58 18.84C758.48 18.52 761.9 17.98 764.5 17.18L762.88 15.14ZM764.84 15.18C764.9 24.16 766.46 33.88 770.6 33.88C772.42 33.88 773.18 33 773.56 29.46C772.92 29.2 772.1 28.64 771.6 28.08C771.48 30.46 771.26 31.44 770.84 31.44C769.02 31.44 767.22 23.24 767.36 15.18H764.84ZM770.28 23.64C768.5 26.94 765.24 29.66 761.82 31.22C762.42 31.76 763.08 32.56 763.44 33.16C767.06 31.24 770.32 28.26 772.4 24.54L770.28 23.64Z" fill="#F5F5F5"/>
<path d="M774.92 18.22V20.52H793.06V18.22H774.92ZM781.6 23.12V25.4H789.26V23.12H781.6ZM788.38 23.12L788.36 23.5C788.08 28.44 787.7 30.72 787.1 31.24C786.84 31.46 786.56 31.48 786.12 31.48C785.54 31.48 784.12 31.48 782.74 31.36C783.2 32.02 783.56 33.02 783.6 33.72C784.94 33.76 786.28 33.78 787.04 33.72C787.96 33.62 788.6 33.42 789.2 32.78C790 31.9 790.42 29.64 790.78 24.16C790.84 23.84 790.86 23.12 790.86 23.12H788.38ZM780.7 19.58C780.5 24.14 780.38 29.22 774.56 31.92C775.2 32.42 775.92 33.3 776.28 33.94C782.56 30.78 783.1 24.94 783.4 19.58H780.7ZM782.64 14.92V19.12H785.12V14.92H782.64Z" fill="#F5F5F5"/>
<path d="M802.72 17.08V33.78H805.26V17.08H802.72ZM799.06 21.64V28.26H801.3V21.64H799.06ZM795.24 19.04V21.2H812.74V19.04H795.24ZM795.84 22.72V24.58H800.42V22.72H795.84ZM810.18 15C806.62 15.62 801.18 16 796.44 16.12C796.66 16.66 796.92 17.56 796.96 18.14C801.66 18.1 807.24 17.76 811.22 17.08L810.18 15ZM803 25.18C801.4 27.9 798.18 30.2 794.46 31.2C794.98 31.7 795.68 32.62 796.02 33.2C799.84 31.92 802.98 29.24 804.84 25.84L803 25.18ZM805 25.2L803.22 25.8C805.04 29.26 808.1 31.98 811.9 33.26C812.26 32.64 812.94 31.72 813.44 31.24C809.76 30.26 806.58 27.94 805 25.2ZM795.22 26.12L795.62 28.1C797.1 27.86 798.84 27.58 800.58 27.28L800.5 25.52C798.54 25.76 796.6 25.98 795.22 26.12ZM806.64 21.58V25.88C806.64 27.82 807.06 28.44 809 28.44C809.38 28.44 810.44 28.44 810.84 28.44C812.22 28.44 812.8 27.92 813.06 26.04C812.44 25.92 811.54 25.58 811.12 25.26C811.08 26.3 810.98 26.46 810.6 26.46C810.36 26.46 809.54 26.46 809.34 26.46C808.9 26.46 808.84 26.38 808.84 25.86V21.58H806.64ZM811 22.2C810.06 22.7 808.64 23.3 807.4 23.7C807.62 24.16 807.88 24.86 807.98 25.3C809.32 24.96 811 24.48 812.38 23.92L811 22.2Z" fill="#F5F5F5"/>
<path d="M821.44 18.78C820.44 20.28 818.6 21.8 815.78 22.88C816.3 23.26 817.04 24.1 817.36 24.66C820.44 23.24 822.48 21.44 824 19.28L821.44 18.78ZM822 20.12L820.36 21.92H827.98V20.12H822ZM827.26 20.12V20.46C825.26 23.82 819.9 25.98 814.54 26.8C814.96 27.32 815.46 28.3 815.68 28.92C821.44 27.8 827.1 25.4 829.74 20.98L828.12 20.02L827.72 20.12H827.26ZM821.04 21.48L818.96 22.4C821.82 25.8 826.38 27.76 831.88 28.52C832.22 27.84 832.88 26.76 833.42 26.2C828.02 25.68 823.36 24.08 821.04 21.48ZM818.34 27.54V33.8H820.68V29.5H827.38V33.76H829.84V27.54H818.34ZM819.52 31.22V33.18H828.58V31.22H819.52ZM822.7 15.04V17.88H825.18V15.04H822.7ZM815.38 16.66V21.08H817.72V18.82H830.16V21.08H832.62V16.66H815.38Z" fill="#F5F5F5"/>
</g>
</g>
</g>
</g>
<defs>
<clipPath id="clip0_57_1561">
<rect width="103.58" height="101.51" fill="white" transform="translate(665.472 80.1528) rotate(-4.25958)"/>
</clipPath>
</defs>
</svg>
