<svg width="110" height="120" viewBox="0 0 110 120" fill="none" xmlns="http://www.w3.org/2000/svg">
<g clip-path="url(#clip0_2_4460)">
<path d="M54.8511 66.841C54.8511 66.841 66.3745 67.8038 75.3562 64.4273C79.4598 63.5581 77.077 66.9212 77.077 66.9212C77.077 66.9212 79.4466 66.0319 79.6187 67.7035C79.8106 68.7666 78.2022 69.1143 78.2022 69.1143C78.2022 69.1143 80.168 68.7866 80.2475 70.6187C80.3269 72.4574 76.8652 74.2091 72.4439 75.4394C68.0225 76.663 60.0866 77.024 56.2808 76.001C56.2808 76.001 50.9394 70.0637 54.8445 66.8343L54.8511 66.841Z" fill="#7BBFAD"/>
<path d="M97.8659 35.9214H90.8045C90.8242 34.0867 90.972 32.5141 91.2477 31.2036C91.5432 29.8931 92.0258 28.7137 92.6955 27.6653C93.3652 26.5968 94.2712 25.5081 95.4136 24.3992C96.3197 23.5323 97.1273 22.7157 97.8364 21.9496C98.5652 21.1633 99.1364 20.3468 99.55 19.5C99.9636 18.6331 100.17 17.6552 100.17 16.5665C100.17 15.3367 99.9735 14.3085 99.5795 13.4819C99.2053 12.6552 98.6439 12.0302 97.8955 11.6069C97.1667 11.1633 96.2508 10.9415 95.1477 10.9415C94.2417 10.9415 93.3848 11.1331 92.5773 11.5161C91.7697 11.8992 91.1197 12.494 90.6273 13.3004C90.1348 14.0867 89.8689 15.1149 89.8295 16.3851H82C82.0591 13.744 82.6697 11.5464 83.8318 9.79234C84.9939 8.01814 86.5598 6.69758 88.5295 5.83065C90.4992 4.94355 92.7053 4.5 95.1477 4.5C97.8462 4.5 100.151 4.96371 102.061 5.89113C103.992 6.79839 105.459 8.12903 106.464 9.88306C107.488 11.6371 108 13.754 108 16.2339C108 18.0081 107.665 19.6008 106.995 21.0121C106.326 22.4032 105.439 23.7036 104.336 24.9133C103.233 26.123 102.042 27.3427 100.761 28.5726C99.6386 29.6008 98.8803 30.6996 98.4864 31.869C98.0924 33.0383 97.8856 34.3891 97.8659 35.9214ZM90.0659 45.3266C90.0659 44.1169 90.4598 43.1089 91.2477 42.3024C92.0553 41.496 93.1386 41.0927 94.4977 41.0927C95.8568 41.0927 96.9303 41.496 97.7182 42.3024C98.5258 43.1089 98.9295 44.1169 98.9295 45.3266C98.9295 46.496 98.5258 47.4839 97.7182 48.2903C96.9303 49.0968 95.8568 49.5 94.4977 49.5C93.1386 49.5 92.0553 49.0968 91.2477 48.2903C90.4598 47.4839 90.0659 46.496 90.0659 45.3266Z" fill="#009A90"/>
<path fill-rule="evenodd" clip-rule="evenodd" d="M107.02 61.3651L60.947 64.0128C60.6623 64.4541 59.2062 66.1189 59.0407 66.246C58.8819 66.3931 74.7008 67.4561 74.7074 67.6902C74.7074 67.9242 74.992 69.803 77.7521 69.3082C78.0896 69.2547 90.1557 77.0842 90.1557 77.0842L108 61.9334L107.02 61.3651V61.3651Z" fill="#E0674C"/>
<path fill-rule="evenodd" clip-rule="evenodd" d="M106.729 60.4357L76.2893 67.9643C76.9313 68.4123 89.7983 75.0449 90.1027 76.4892C90.1027 76.4892 100.594 66.0387 107.808 60.8435L106.729 60.4357V60.4357Z" fill="#F4F8EF"/>
<path fill-rule="evenodd" clip-rule="evenodd" d="M76.2894 67.9642L76.3092 64.0595L66.6061 62.515L61.0728 64.6746C60.6955 65.0758 60.2653 65.6308 60.2653 65.6308C60.6227 65.604 69.7169 64.7749 76.296 67.9642H76.2894Z" fill="#C0C3C2"/>
<path fill-rule="evenodd" clip-rule="evenodd" d="M76.2894 67.9643L78.0963 64.1064L68.7042 60.449L61.5758 63.625C61.3905 63.7654 60.6823 64.7014 60.6823 64.7014C60.6823 64.7014 71.1002 63.8523 76.2828 67.9643H76.2894Z" fill="#EFEDE6"/>
<path fill-rule="evenodd" clip-rule="evenodd" d="M61.9067 62.7089L67.354 60.576L77.3285 65.1895L76.2893 67.971C75.4686 66.6939 69.0417 61.9935 61.1124 63.7252L61.9067 62.7156V62.7089Z" fill="#C0C3C2"/>
<path fill-rule="evenodd" clip-rule="evenodd" d="M76.2893 67.9643C74.8663 65.9183 69.5911 60.9639 60.9933 62.8962C60.9933 62.8962 74.1316 51.416 77.7984 47.966C78.4007 48.0863 88.1833 47.0098 91.9891 53.2748L76.2893 67.9643V67.9643Z" fill="#EEF5EC"/>
<path fill-rule="evenodd" clip-rule="evenodd" d="M106.842 59.2723L76.2893 67.9643C79.9495 69.0675 88.5407 74.0353 90.4668 75.4327C90.4668 75.4327 100.567 64.7683 107.609 59.7871C107.609 59.7871 107.133 59.4929 106.842 59.2723V59.2723Z" fill="#D0D5D8"/>
<path fill-rule="evenodd" clip-rule="evenodd" d="M74.9987 67.5899C75.3958 68.2652 75.8327 68.9472 77.4874 68.9873C77.5734 69.0006 74.8796 67.3759 74.9987 67.5899Z" fill="#B96800"/>
<path fill-rule="evenodd" clip-rule="evenodd" d="M76.2893 67.9643L106.729 57.9417C107.173 58.2693 107.788 58.744 107.788 58.744C106.028 59.5999 100.124 63.5648 90.6852 74.1624C90.6852 74.1624 79.9363 68.1582 76.2893 67.9643V67.9643Z" fill="#F4F8EF"/>
<path fill-rule="evenodd" clip-rule="evenodd" d="M101.732 54.2108L76.2893 67.9643C78.2154 67.5498 87.9252 70.8661 90.3675 72.8586C90.3675 72.8586 99.7794 62.1741 107.391 57.6342C107.391 57.6342 102.447 54.2577 101.732 54.2042V54.2108Z" fill="#C4D4CD"/>
<path fill-rule="evenodd" clip-rule="evenodd" d="M76.2893 67.9643C76.8519 67.2623 91.3206 53.9635 91.9891 53.2748C92.4061 52.6062 98.3034 50.2058 104.975 51.9844C104.975 51.9844 93.1474 62.2409 87.5545 68.0111C87.5545 68.0111 81.6373 65.5372 76.2893 67.9643V67.9643Z" fill="#F2F7EF"/>
<path d="M87.7795 53.5355C87.6537 53.5355 87.528 53.462 87.475 53.3349C86.2506 50.4532 78.4602 50.2994 78.3808 50.2994C78.1955 50.2994 78.0499 50.1456 78.0565 49.9584C78.0631 49.7712 78.2021 49.6107 78.394 49.6308C78.7316 49.6308 86.694 49.7979 88.084 53.0742C88.1568 53.2413 88.084 53.4419 87.9119 53.5155C87.8722 53.5355 87.8258 53.5422 87.7795 53.5422V53.5355Z" fill="#AFCEC0"/>
<path d="M85.3703 56.1632C85.2446 56.1632 85.1188 56.0897 85.0659 55.9626C83.8414 53.0876 76.0511 52.9271 75.9716 52.9271C75.7863 52.9271 75.6407 52.7733 75.6473 52.5861C75.6539 52.3989 75.8062 52.2585 75.9849 52.2585C76.3224 52.2585 84.2848 52.4256 85.6748 55.7019C85.7476 55.869 85.6748 56.0696 85.5027 56.1431C85.463 56.1632 85.4167 56.1699 85.3703 56.1699V56.1632Z" fill="#AFCEC0"/>
<path d="M82.789 58.724C82.6632 58.724 82.5375 58.6505 82.4845 58.5234C81.2667 55.6484 73.4698 55.4879 73.3903 55.4879C73.205 55.4879 73.0594 55.3341 73.066 55.1469C73.066 54.9597 73.2182 54.7925 73.4036 54.8193C73.7411 54.8193 81.7035 54.9864 83.0935 58.2627C83.1663 58.4298 83.0935 58.6304 82.9214 58.704C82.8817 58.724 82.8353 58.7307 82.789 58.7307V58.724Z" fill="#AFCEC0"/>
<path d="M46.6107 105.601C46.6107 105.601 44.6582 96.3872 47.5903 91.3525C50.5224 86.3178 61.0993 84.9004 63.4423 94.4816C65.7854 104.063 63.1709 108.436 63.1709 108.436C63.1709 108.436 66.851 109.011 66.6458 111.458C66.4406 113.905 50.7938 113.972 46.6107 105.607V105.601Z" fill="#7BBFAD"/>
<path d="M28.1774 70.4181L28.0251 70.2175L28.1046 70.3178L28.0251 70.2175L28.045 70.2309L28.0318 70.2175L28.0582 70.2443L28.0516 70.2309L28.2171 70.378L28.184 70.4114L28.1774 70.4181Z" fill="#1E1E1E"/>
<path d="M65.4809 79.4645C65.1566 75.7403 63.7732 68.6396 63.7732 68.6396C63.7732 68.6396 59.1268 50.3596 59.107 48.8485C56.9757 49.2564 51.6079 50.159 48.55 49.5439C48.55 49.5439 42.4673 84.3989 46.5644 95.9258C47.074 97.3567 47.3057 98.7607 47.4248 100.091C47.7359 103.508 47.2924 106.423 48.8148 107.994C63.0121 104.07 65.4412 93.6793 65.6927 90.2827C65.8648 87.9492 65.8515 83.5965 65.4875 79.4645H65.4809Z" fill="#FFECAD"/>
<path d="M88.223 30.0202C87.945 28.4022 87.1905 27.085 86.2638 26.2426C84.7614 24.8719 82.7956 24.7181 81.6307 26.4699L60.3446 26.7173C60.3446 26.7173 60.9072 18.8543 56.3138 18.5133C51.7203 18.1657 51.5152 25.487 51.6608 25.7411C51.7998 25.9952 45.7767 26.6638 42.9306 28.5426C42.9306 28.5426 43.7315 20.8802 38.2577 20.5861C32.784 20.2919 33.1546 28.1682 33.234 28.7766C33.3069 29.3851 30.3747 31.9392 31.03 32.7148C31.6919 33.4904 33.5253 32.902 33.5253 32.902C33.5253 32.902 30.3813 35.8639 30.5733 37.268C30.7652 38.6721 33.201 38.1306 33.201 38.1306C33.201 38.1306 30.4012 41.2998 30.6924 42.169C30.9903 43.0382 31.725 42.7908 33.1281 42.3562C33.1281 42.3562 30.3019 45.0374 30.7123 46.7624C31.1227 48.4807 32.9031 46.9897 33.148 46.9496C33.3929 46.9095 30.6262 49.5973 30.9175 51.309C31.2087 53.0207 32.9362 51.4628 32.9362 51.4628C32.9362 51.4628 29.9114 55.2204 30.5137 56.7716C31.4006 57.6809 32.506 56.4975 32.506 56.4975C32.506 56.4975 31.2947 58.2225 30.7652 59.7001C29.0642 58.9513 20.6186 52.9204 18.7455 51.4695C15.0721 49.4235 16.376 53.3483 16.376 53.3483C16.376 53.3483 14.3705 51.7971 13.7152 53.3483C13.2254 54.3044 14.6617 55.1201 14.6617 55.1201C14.6617 55.1201 12.8746 54.2242 12.2723 55.9559C11.67 57.6876 23.3654 66.5334 27.2374 69.014C28.5612 69.8631 26.2446 69.2212 26.6616 70.3779C26.6748 70.4181 26.6616 70.4582 26.6814 70.4983C27.1315 70.973 26.602 71.0198 27.0256 70.9262C27.1514 70.973 27.2771 71.0198 27.4095 71.0733C26.4498 72.1297 24.9275 74.0955 25.3643 75.4862C26.046 76.1013 26.7344 75.7737 27.1977 75.3993C27.5154 75.0449 27.7471 74.8242 27.7471 74.8242C27.7471 74.8242 27.5353 75.1251 27.1977 75.3993C26.8271 75.8138 26.3439 76.4022 25.9732 77.0307C25.5165 77.8063 25.2319 78.6354 25.5695 79.2438C26.2645 80.4941 27.2705 79.7921 27.6015 79.5046C27.0786 79.9927 24.848 82.2058 25.4305 83.6366C26.1056 84.1314 26.6881 83.991 27.0918 83.7436C27.4294 83.4093 27.6743 83.202 27.6743 83.202C27.6743 83.202 27.4558 83.5163 27.0918 83.7436C26.3902 84.4456 25.2981 85.7227 25.2518 86.9463C25.179 88.7515 27.6676 87.4277 27.6676 87.4277C27.6676 87.4277 24.848 89.2062 25.8078 90.0018C26.7675 90.7975 27.5286 90.1289 27.5286 90.1289C27.5286 90.1289 26.1652 92.3821 23.4515 89.5204C20.7378 86.6588 19.7052 81.1494 19.0632 78.5685C18.4146 75.9876 18.5337 67.2622 16.0847 67.2555C14.9596 67.2555 13.146 69.7561 12.312 72.8719C11.3258 76.5426 10.7235 81.6508 10.9552 86.4649C11.9612 92.1548 14.9529 103.267 26.5689 107.359C27.0918 108.977 27.5617 110.047 27.5617 110.047C33.3532 117.362 52.9117 114.052 52.6073 111.612C52.3094 109.178 48.5897 109.378 48.5897 109.378C48.5897 109.378 48.7485 108.917 48.8412 108.021C48.8676 107.794 48.8809 107.533 48.8941 107.252C48.9007 107.092 48.9074 106.931 48.9074 106.764C48.914 105.775 48.8213 104.504 48.5235 102.973V102.94C48.497 102.833 48.4705 102.726 48.4507 102.619C48.0668 100.633 47.4512 98.3796 46.5908 95.9592C42.9306 85.6625 47.3917 56.7515 48.3911 50.7006C48.5102 49.9784 48.5764 49.5773 48.5764 49.5773C51.6409 50.1857 57.0022 49.2898 59.1334 48.8819C59.1334 48.8084 59.1334 48.7749 59.1466 48.7816C59.193 48.8351 59.9078 48.7348 61.0529 48.5075C65.3418 47.6717 75.7863 45.0975 80.8828 42.3696C87.3493 38.9128 88.9643 34.286 88.2429 30.047L88.223 30.0202Z" fill="#8DCEBF"/>
<path d="M40.0845 28.1481C40.0051 29.1778 39.3366 29.9601 38.5821 29.9066C37.8275 29.8464 37.2782 28.9705 37.351 27.9409C37.4238 26.9112 38.0989 26.1289 38.8534 26.1824C39.608 26.2426 40.1573 27.1185 40.0845 28.1481V28.1481Z" fill="#3E3A39"/>
<path d="M57.6773 25.3667C57.5979 26.3963 56.9294 27.1786 56.1748 27.1251C55.4203 27.0716 54.8709 26.1891 54.9437 25.1594C55.0165 24.1297 55.6917 23.3408 56.4462 23.4009C57.2007 23.4544 57.7501 24.337 57.6773 25.3667Z" fill="#3E3A39"/>
<path d="M80.2275 35.5163C79.0295 35.2087 76.3622 32.8084 77.6131 31.2773C78.8641 29.7394 82.6964 36.1448 80.2275 35.5163Z" fill="#3E3A39"/>
<path d="M84.5761 35.075C85.5954 34.373 87.2765 31.1904 85.5755 30.1807C83.8811 29.1778 82.4713 36.5259 84.5761 35.075Z" fill="#3E3A39"/>
<path d="M49.1258 49.8915C47.4579 49.7645 45.8892 49.4636 44.6846 48.8618C41.4083 47.2304 41.6135 43.9141 41.6135 43.8807C41.6267 43.7469 41.7393 43.6466 41.8716 43.66C42.004 43.6734 42.1033 43.787 42.0901 43.9208C42.0834 44.0411 41.9114 46.9496 44.8898 48.4339C49.2053 50.5802 59.0209 48.7749 59.1202 48.7549C59.1268 48.7549 59.1401 49.1962 59.1401 49.1962C58.8422 49.2563 53.6399 50.2325 49.1192 49.8915H49.1258Z" fill="#3E3A39"/>
<path d="M51.1446 50.1256C50.4629 50.1256 49.7811 50.1055 49.1126 50.052C47.2329 49.9116 45.7172 49.5572 44.6118 49.009C41.2561 47.3441 41.4481 43.9007 41.4481 43.8673C41.4679 43.64 41.6466 43.4661 41.8783 43.4862C41.8849 43.4862 41.8981 43.4862 41.9048 43.4862C42.1099 43.5129 42.2688 43.7002 42.2556 43.9141C42.2489 44.0345 42.0702 46.8293 44.9626 48.2668C49.2053 50.3729 58.9879 48.5944 59.0872 48.5744C59.1335 48.5677 59.1864 48.5744 59.2261 48.6078C59.2703 48.6435 59.2989 48.8307 59.3122 49.1694C59.3122 49.2497 59.2592 49.3232 59.1798 49.3366C58.9879 49.37 55.1225 50.1055 51.1512 50.1055L51.1446 50.1256ZM41.8452 43.8205C41.8055 43.8205 41.779 43.8539 41.779 43.8874C41.779 43.9141 41.6003 47.1368 44.7575 48.7014C45.8297 49.2363 47.2991 49.5706 49.1391 49.711C53.3156 50.0253 58.0877 49.2029 58.9746 49.0424C58.9746 49.009 58.9746 48.9755 58.9746 48.9354C57.5979 49.1694 48.8545 50.5668 44.8237 48.5677C41.7261 47.0299 41.918 44.0144 41.9312 43.8874C41.9312 43.8472 41.9048 43.8138 41.8651 43.8138H41.8518L41.8452 43.8205Z" fill="#3E3A39"/>
<path d="M32.003 93.365C32.9693 93.4386 33.6312 95.0633 33.4856 97.0023C33.34 98.9346 32.4465 100.446 31.4801 100.372C30.5138 100.299 29.8519 98.6739 29.9975 96.7349C30.1431 94.7959 31.0366 93.2915 32.003 93.3583V93.365Z" fill="#7BBFAD"/>
<path d="M35.8419 73.2664C36.8082 73.3399 37.4701 74.9647 37.3245 76.9037C37.1789 78.836 36.2853 80.3471 35.319 80.2735C34.3526 80.2 33.6907 78.5752 33.8364 76.6362C33.982 74.6972 34.8755 73.1929 35.8419 73.2597V73.2664Z" fill="#7BBFAD"/>
<path d="M29.5872 80.2802C30.1895 80.327 30.6065 81.35 30.5204 82.5601C30.4278 83.777 29.8652 84.7198 29.2629 84.673C28.6605 84.6262 28.2436 83.6032 28.3296 82.393C28.4223 81.1761 28.9849 80.2334 29.5872 80.2802Z" fill="#7BBFAD"/>
<path d="M34.346 88.5242C34.7696 88.5577 35.0609 89.2664 34.9947 90.1155C34.9285 90.958 34.538 91.6199 34.121 91.5865C33.6974 91.5531 33.4128 90.8443 33.4723 89.9952C33.5385 89.1527 33.929 88.4908 34.346 88.5242Z" fill="#7BBFAD"/>
<path d="M31.7183 75.6801C32.1419 75.7135 32.4332 76.4223 32.367 77.2714C32.3074 78.1139 31.9103 78.7758 31.4933 78.7424C31.0697 78.709 30.7851 78.0002 30.8447 77.1511C30.9042 76.3019 31.3014 75.6467 31.7183 75.6801Z" fill="#7BBFAD"/>
<path d="M27.3433 93.8063C27.7669 93.8397 28.0582 94.5484 27.992 95.3976C27.9324 96.2467 27.5353 96.902 27.1183 96.8685C26.6947 96.8351 26.4101 96.1264 26.4697 95.2772C26.5359 94.4281 26.9264 93.7728 27.3433 93.8063Z" fill="#7BBFAD"/>
<path d="M54.8775 84.7599C52.7132 84.7599 51.0783 84.3721 50.946 84.3454C50.7673 84.3053 50.6614 84.1247 50.7011 83.9442C50.7408 83.7637 50.9261 83.6567 51.0982 83.6968C51.1644 83.7102 57.4787 85.1945 61.7809 82.2192C61.9332 82.1189 62.1384 82.1523 62.2376 82.3061C62.3435 82.4599 62.3038 82.6672 62.1516 82.7675C59.8549 84.3588 57.0816 84.7599 54.8709 84.7599H54.8775Z" fill="white"/>
<path d="M54.176 89.5472C51.6807 89.5472 49.7944 89.1059 49.6421 89.0658C49.4634 89.0257 49.3575 88.8452 49.3972 88.6646C49.4369 88.4841 49.6223 88.3771 49.7944 88.4172C49.8672 88.4373 57.1942 90.1556 62.1914 86.7056C62.3436 86.5986 62.5488 86.6387 62.6481 86.7925C62.754 86.9463 62.7143 87.1536 62.562 87.2538C59.9145 89.0859 56.7242 89.5472 54.1694 89.5472H54.176Z" fill="white"/>
<path d="M54.3811 94.7089C51.4755 94.7089 49.2781 94.2676 49.0994 94.2275C48.9206 94.1874 48.8081 94.0136 48.8412 93.833C48.8809 93.6525 49.053 93.5388 49.2317 93.5723C49.3178 93.5923 57.8825 95.3107 63.7269 91.8874C63.8857 91.7938 64.0909 91.8473 64.177 92.0077C64.2696 92.1682 64.2167 92.3688 64.0578 92.4624C61.0066 94.2476 57.3265 94.7022 54.3811 94.7022V94.7089Z" fill="white"/>
<path d="M55.4137 31.8389C54.6393 31.8389 53.8649 31.6985 53.1236 31.411C51.5153 30.7959 50.2444 29.579 49.5362 27.9943C48.0801 24.7181 49.5362 20.8602 52.7728 19.3893C54.3415 18.6805 56.0955 18.627 57.7038 19.2422C59.3122 19.8573 60.583 21.0742 61.2912 22.6588C61.9928 24.2434 62.0458 26.0152 61.4368 27.64C60.8279 29.2647 59.6233 30.5485 58.0546 31.2639C57.214 31.645 56.3139 31.8389 55.4203 31.8389H55.4137ZM50.7409 27.4461C51.3035 28.7031 52.3161 29.6726 53.5936 30.1607C54.871 30.6554 56.2609 30.6086 57.5119 30.047C58.7562 29.4787 59.7159 28.4557 60.1991 27.1653C60.6823 25.8748 60.6426 24.4707 60.0866 23.2071C59.524 21.9501 58.5113 20.9806 57.2339 20.4925C55.9565 20.0044 54.5665 20.0445 53.3156 20.6061C50.7409 21.7762 49.5892 24.8385 50.7409 27.4394V27.4461Z" fill="#3E3A39"/>
<path d="M37.8342 35.4428C37.0598 35.4428 36.2854 35.3024 35.5441 35.0149C33.9357 34.3997 32.6649 33.1829 31.9567 31.5982C31.2551 30.0136 31.2022 28.2418 31.8111 26.617C32.42 24.9923 33.6247 23.7086 35.1933 22.9931C36.762 22.2844 38.5159 22.2309 40.1243 22.846C41.7327 23.4612 43.0035 24.678 43.7117 26.2627C45.1678 29.5389 43.7117 33.3968 40.4751 34.8678C39.6345 35.2489 38.7344 35.4428 37.8408 35.4428H37.8342ZM37.8342 23.7554C37.1194 23.7554 36.4112 23.9091 35.7427 24.21C34.4983 24.7783 33.5386 25.8013 33.0554 27.0918C32.5723 28.3822 32.612 29.7863 33.168 31.05C33.7306 32.307 34.7366 33.2765 36.0207 33.7645C37.2981 34.2526 38.688 34.2125 39.939 33.6509C41.1833 33.0826 42.143 32.0596 42.6262 30.7691C43.1094 29.4787 43.0697 28.0746 42.5137 26.8109C41.9511 25.5539 40.9384 24.5844 39.661 24.0963C39.0719 23.869 38.4564 23.7554 37.8408 23.7554H37.8342Z" fill="#3E3A39"/>
<path d="M43.7647 27.981L43.0432 26.8577C46.2136 24.7716 49.384 25.36 49.5164 25.3867L49.2649 26.6972L49.3906 26.042L49.2649 26.6972C49.2649 26.6972 46.4651 26.1957 43.758 27.9743L43.7647 27.981Z" fill="#3E3A39"/>
<path d="M19.6391 58.5501L3.37667 30.8092C3.31049 30.6889 3.20459 30.515 3.03912 30.4147C2.84055 30.2877 2.61551 30.2877 2.39709 30.4147L2.33752 30.4482C2.19853 30.5284 1.78154 30.836 2.1522 31.5046L17.5277 59.7603C17.6336 59.9542 17.8123 60.0946 18.0241 60.1548C18.0969 60.1749 18.1697 60.1882 18.2491 60.1882C18.3881 60.1882 18.5271 60.1548 18.6529 60.0813L19.3214 59.7002C19.5133 59.5932 19.6523 59.4126 19.7119 59.1987C19.7714 58.9847 19.745 58.7574 19.6324 58.5568L19.6391 58.5501Z" fill="#B28146"/>
</g>
<defs>
<clipPath id="clip0_2_4460">
<rect width="106" height="111" fill="white" transform="translate(2 4.5)"/>
</clipPath>
</defs>
</svg>
