<svg width="143" height="110" viewBox="0 0 143 110" fill="none" xmlns="http://www.w3.org/2000/svg">
<g clip-path="url(#clip0_224_1907)">
<path d="M106.218 100.706C106.218 100.706 87.3539 96.9781 87.8868 66.8695C87.8947 66.4415 88.2483 66.0965 88.6836 66.0887C91.3087 66.0446 99.9968 65.5699 105.73 61.4091C106.02 61.199 106.416 61.199 106.703 61.4091C112.437 65.6114 121.125 66.0835 123.752 66.1276C124.188 66.1354 124.541 66.4804 124.549 66.9084C125.085 97.3283 106.218 100.7 106.218 100.7V100.706Z" fill="#97D5C9"/>
<path d="M124.549 66.9136C124.541 66.4856 124.188 66.138 123.753 66.1328C122.893 66.1172 121.386 66.0576 119.547 65.8371C119.033 70.8747 117.41 78.0393 112.645 85.6734C108.703 91.9873 102.757 94.615 97.3691 95.5851C101.846 99.8445 106.221 100.708 106.221 100.708C106.221 100.708 125.088 97.3361 124.552 66.9162L124.549 66.9136Z" fill="#5EC4B9"/>
<path d="M115.893 77.6865H96.5432V84.2726H115.893V77.6865Z" fill="white"/>
<path d="M109.566 90.4905V71.4661H102.867V90.4905H109.566Z" fill="white"/>
<path d="M73.4858 45.0977L69.9469 44.8776L67.6078 81.2299L71.1466 81.45L73.4858 45.0977Z" fill="#48466D"/>
<path d="M69.3865 81.3363L67.6162 81.2273L69.9511 44.8724L71.7347 44.9839L69.3865 81.3363Z" fill="#363552"/>
<path d="M40.8688 52.9786C41.2724 53.0928 41.6972 52.8671 41.8186 52.4702C42.1457 51.3807 42.4782 50.3224 42.8106 49.2925C41.9294 49.4612 41.4439 49.5675 41.4439 49.5675C41.3595 49.4871 41.2751 49.4067 41.1906 49.3289C40.9057 50.2186 40.6234 51.1213 40.349 52.0396C40.2276 52.4391 40.4625 52.8593 40.8688 52.976V52.9786Z" fill="#48466D"/>
<path d="M101.173 53.2821C101.173 53.2821 100.704 53.1161 99.8542 52.8386C100.055 53.9021 100.247 54.9916 100.432 56.1122C100.501 56.5195 100.891 56.797 101.308 56.7348C101.727 56.6699 102.012 56.2834 101.944 55.871C101.788 54.9267 101.625 53.9955 101.456 53.0772C101.361 53.1447 101.266 53.2147 101.173 53.2821V53.2821Z" fill="#48466D"/>
<path d="M12.4142 45.2329C12.7888 45.4223 13.2479 45.2822 13.4431 44.9165C14.079 43.7258 14.7201 42.5819 15.3612 41.482C14.699 41.5832 14.042 41.7051 13.3904 41.8478C12.955 42.6156 12.5223 43.4042 12.087 44.2135C11.8891 44.5844 12.0343 45.041 12.4115 45.2355L12.4142 45.2329Z" fill="#48466D"/>
<path d="M129.997 49.0928C129.369 48.8723 128.734 48.67 128.09 48.4884C128.567 49.6168 129.037 50.7841 129.496 51.9929C129.644 52.3794 130.082 52.5765 130.478 52.4339C130.876 52.2912 131.079 51.8528 130.931 51.4611C130.623 50.6518 130.311 49.8658 129.997 49.0928V49.0928Z" fill="#48466D"/>
<path d="M76.1936 8.52776L76.1356 9.41491L71.8958 9.15032L71.9538 8.26317C71.967 8.06344 72.1411 7.91039 72.3443 7.92336L72.6688 7.94411L73.236 7.17629L73.579 1.84302C73.6107 1.34497 74.046 0.968842 74.5499 0.99997C75.0539 1.0311 75.4364 1.45911 75.4048 1.95716L75.0618 7.29042L75.5261 8.1231L75.848 8.14385C76.0512 8.15682 76.2068 8.33062 76.1936 8.52776Z" fill="#48466D"/>
<path d="M74.0434 9.28531L71.8984 9.15301L71.9538 8.26586C71.967 8.06613 72.1412 7.91567 72.3443 7.92605L72.6688 7.9468L73.2361 7.17898L73.5791 1.84571C73.6107 1.34766 74.0461 0.971527 74.55 1.00266C74.5605 1.00266 74.5685 1.00266 74.579 1.00266L74.0434 9.28271V9.28531Z" fill="#363552"/>
<path d="M12.1002 43.9801C21.8199 41.4717 33.0487 43.5417 41.3252 51.4249L41.4809 50.8386C42.7974 45.9412 52.5593 11.9649 70.7085 9.21786C70.7111 9.21786 70.7137 9.21786 70.719 9.21786C72.1939 8.99218 72.7954 9.06222 74.0301 9.10631C49.1927 7.56029 20.8806 20.5121 12.1002 43.9801Z" fill="#039597"/>
<path d="M74.0276 9.10367L75.5367 9.23596C91.5014 11.8092 98.9573 38.9762 101.002 54.74C101.023 54.8982 101.052 55.1342 101.052 55.1342C110.249 48.3561 121.689 47.6739 130.997 51.3652C125.312 27.0075 98.8544 10.6445 74.0276 9.10107V9.10367Z" fill="#5EC4B9"/>
<path d="M41.3252 51.4249C41.3252 51.4249 56.7542 48.0475 71.4683 48.9632C86.1824 49.8763 101.055 55.1369 101.055 55.1369C101.055 55.1369 100.999 54.7011 100.991 54.6389C98.7383 37.7441 91.0818 11.7937 75.7055 9.23084C75.1462 9.18155 74.5895 9.13745 74.0301 9.10373C73.5737 9.0752 73.1173 9.05185 72.6608 9.03369C72.025 9.05444 71.3786 9.11411 70.719 9.21527C70.7164 9.21527 70.7137 9.21527 70.7085 9.21527C52.5593 11.9649 42.7974 45.9386 41.4809 50.836L41.3252 51.4223V51.4249Z" fill="#10B2A5"/>
<path d="M84.5255 79.785L84.5361 80.2649C84.5651 81.6242 84.5994 83.3155 84.6284 84.8537C84.6495 86.1014 83.8528 97.0429 82.7816 101.365C82.0033 101.608 80.8846 101.904 80.0984 102.096C80.0113 102.117 79.9586 102.202 79.9823 102.285C80.0008 102.358 80.0667 102.405 80.138 102.405C80.1512 102.405 80.1643 102.405 80.1775 102.4C80.9981 102.2 82.18 101.886 82.9689 101.634L83.0533 101.608L83.0744 101.523C84.1588 97.2427 84.9741 86.1092 84.9503 84.8459C84.9239 83.3077 84.887 81.6138 84.858 80.2545L84.8448 79.6657L84.8105 79.6242C83.6839 78.2572 82.647 77.0224 81.4519 75.6191L81.0772 75.2844C80.2831 74.5789 79.5971 73.9719 78.6842 73.2326C77.183 68.9291 73.7611 61.0589 70.8167 56.9293L70.7797 56.8748L70.7138 56.8644C65.3025 55.928 53.5751 55.5285 49.8207 55.5285C46.0663 55.5285 34.3389 55.9254 28.9276 56.8644L28.8617 56.8748L28.8247 56.9293C25.8804 61.0563 22.4584 68.9291 20.9572 73.2326C20.0443 73.9719 19.3584 74.5814 18.5642 75.2844L18.2054 75.6035L18.1896 75.6191C16.9918 77.0224 15.9575 78.2572 14.831 79.6242L14.7967 79.6657L14.7835 80.2883C14.7544 81.6397 14.7201 83.3181 14.6938 84.8459C14.6727 86.1092 15.4853 97.2427 16.5696 101.523L16.5907 101.608L16.6752 101.634C17.4614 101.886 18.6434 102.2 19.4665 102.4C19.4797 102.402 19.4929 102.405 19.5061 102.405C19.5773 102.405 19.6433 102.355 19.6618 102.285" fill="#95C3ED"/>
<path d="M69.9988 58.094C65.5822 57.5389 58.3505 57.1809 49.8181 57.1679C41.2857 57.1783 34.0539 57.5389 29.6374 58.094C26.8222 63.4013 24.8329 68.1302 23.1497 73.1885C27.9277 72.6411 38.8557 72.3506 49.8181 72.335C60.7804 72.3506 71.7084 72.6411 76.4865 73.1885C74.8032 68.1302 72.8139 63.4013 69.9988 58.094V58.094Z" fill="#3E3A39"/>
<path d="M53.2874 69.4998H69.3681C69.2705 68.4414 68.6901 64.6075 68.5555 63.6736C68.4368 62.841 68.0912 62.1899 67.2575 61.5232C66.1414 60.6309 64.6297 59.9798 63.3026 59.4895H36.3334C35.0037 59.9798 33.4945 60.6309 32.3785 61.5232C31.5448 62.1899 31.2018 62.841 31.0804 63.6736C30.9459 64.6075 30.3628 68.4414 30.2678 69.4998H46.3486L46.1348 68.4051C46.0188 67.8137 46.4805 67.2637 47.0926 67.2637H52.546C53.1581 67.2637 53.6198 67.8137 53.5037 68.4051L53.29 69.4998H53.2874Z" fill="#595757"/>
<path d="M84.7866 84.8511C84.755 83.1053 84.7128 81.1702 84.6837 79.7253C83.478 78.2623 82.4227 77.0068 81.3278 75.7228C80.3489 74.8538 79.6076 74.1846 78.5469 73.3285C65.627 72.9109 41.4914 72.5192 24.0941 74.5451C27.735 78.0263 31.9458 81.3544 35.65 83.7123C36.4785 84.2389 33.4075 85.8031 30.5923 87.5644C28.0991 89.1234 19.8859 86.7447 19.6142 87.637C19.5113 87.9769 19.4005 88.1974 19.2633 88.6643C19.8595 88.7836 20.3503 88.877 21.1814 89.0482C22.7538 91.5047 25.3209 95.4294 26.6163 97.5383C27.4501 97.2634 28.0806 97.0507 29.0595 96.7861C31.2783 97.3983 32.4207 97.6706 33.4602 98.026C33.7056 98.109 18.5641 102.013 18.7857 102.067C18.7857 102.067 20.8252 102.498 21.2025 102.498H25.8011C26.0597 102.418 27.0358 102.088 27.2865 102.005H72.3521C72.6027 102.088 73.5763 102.42 73.8375 102.498H78.4361C78.8134 102.498 79.4097 102.394 80.0719 102.249H80.1326C80.3542 102.195 80.5969 102.135 80.8476 102.07C81.5652 101.883 82.3514 101.665 82.9081 101.489C84.0004 97.183 84.7998 85.9665 84.7813 84.8537L84.7866 84.8511Z" fill="#95C3ED"/>
<path d="M33.0091 82.5398C33.1832 82.5658 33.2281 82.7915 33.0777 82.8822C31.7348 83.6734 29.9882 84.628 28.5819 85.3932C28.0173 85.7019 27.4765 85.7875 26.801 85.7668C25.2655 85.7201 21.2051 85.3362 18.5562 85.1131C18.3451 84.3401 18.0206 82.4957 18.0971 81.1391C18.1103 80.9134 18.1974 80.7007 18.3478 80.5321C18.5905 80.2571 18.667 80.1689 18.952 80.2312C21.2473 80.7344 29.9275 82.0651 33.0091 82.5398Z" fill="#F6AF58"/>
<path d="M26.9778 85.9276C26.9198 85.9276 26.8591 85.9276 26.7958 85.925C25.6217 85.8887 22.9728 85.6578 20.6326 85.4529C19.8912 85.3881 19.1762 85.3258 18.543 85.2713L18.4322 85.261L18.4032 85.1546C18.2159 84.4698 17.8544 82.5865 17.9388 81.1313C17.9547 80.8745 18.0576 80.6229 18.2291 80.4283C18.4771 80.1482 18.6116 79.9951 18.9889 80.0781C21.1655 80.5554 29.136 81.7824 32.5395 82.3064L33.0355 82.3816C33.1832 82.405 33.2967 82.5113 33.323 82.654C33.3521 82.7966 33.2861 82.9393 33.1595 83.0145C31.864 83.7772 30.2256 84.6747 28.6584 85.5281C28.1519 85.8031 27.6427 85.925 26.9778 85.925V85.9276ZM18.6829 84.9678C19.2897 85.0197 19.9625 85.0768 20.6616 85.139C22.9966 85.344 25.6428 85.5748 26.8063 85.6111C27.5081 85.6319 28.0015 85.5307 28.5028 85.2558C30.0673 84.4049 31.7031 83.51 32.9933 82.7474C32.9985 82.7448 33.0091 82.737 33.0064 82.7188C33.0038 82.7007 32.988 82.6981 32.9827 82.6955L32.4867 82.6203C29.0806 82.0963 21.1022 80.8667 18.915 80.3868C18.7303 80.3453 18.7145 80.3557 18.4665 80.6358C18.3399 80.7785 18.2634 80.9601 18.2528 81.1495C18.1816 82.3764 18.456 84.0988 18.6776 84.9652L18.6829 84.9678Z" fill="#3E3A39"/>
<path d="M19.4929 72.9031C18.8148 73.1599 17.5273 73.5957 16.7147 73.8733C16.1474 73.8733 15.3902 73.933 14.5908 73.7799C13.9972 73.6658 12.9788 73.2974 12.5989 72.898C12.3007 72.5841 12.2401 72.0731 12.2242 71.5361C12.2163 71.2715 12.3456 71.0199 12.5646 70.8694C13.5671 70.1898 15.8915 69.2352 18.5431 69.2249C19.1129 69.2249 19.6828 69.6892 19.6855 70.3999C19.6855 70.9732 19.6907 71.6502 19.6934 72.1483C19.6934 72.4959 19.5931 72.776 19.4902 72.9031H19.4929Z" fill="#3E3A39"/>
<path d="M19.4929 72.9031C18.8148 73.1599 17.5273 73.5957 16.7147 73.8733C17.5986 74.3324 18.1658 74.6437 18.952 75.1288C19.4507 74.6878 19.9018 74.2987 20.3372 73.9304C20.0074 73.5257 19.8042 73.2689 19.4929 72.9031Z" fill="#3E3A39"/>
<path d="M24.2788 81.3284C24.2181 81.3284 24.1601 81.2947 24.1337 81.235C24.015 80.9756 23.8804 80.6903 23.738 80.3842C22.9649 78.7266 21.9069 76.4595 21.2421 74.654C21.1893 74.514 21.0416 74.0393 21.2948 73.7902C21.4769 73.6113 21.7407 73.4115 22.0995 73.1781C22.1734 73.1314 22.2737 73.1495 22.3212 73.2222C22.3686 73.2948 22.3502 73.3934 22.2763 73.4401C21.9333 73.6631 21.688 73.8499 21.5217 74.0107C21.4373 74.0911 21.4716 74.3454 21.5428 74.5425C22.2051 76.335 23.2604 78.5969 24.0308 80.2493C24.1733 80.5554 24.3078 80.8407 24.4266 81.1001C24.4635 81.1806 24.4266 81.2739 24.3474 81.3077C24.3263 81.318 24.3026 81.3206 24.2815 81.3206L24.2788 81.3284Z" fill="white"/>
<path d="M14.864 84.5933L14.8323 84.9056L18.5418 85.2696L18.5735 84.9573L14.864 84.5933Z" fill="white"/>
<path d="M80.138 72.9109C80.8161 73.1677 82.1036 73.6035 82.9162 73.881C83.4834 73.881 84.2406 73.9407 85.0401 73.7877C85.6337 73.6735 86.6521 73.3052 87.032 72.9057C87.3301 72.5918 87.3908 72.0808 87.4066 71.5439C87.4146 71.2793 87.2853 71.0276 87.0663 70.8772C86.0637 70.1976 83.7393 69.243 81.0878 69.2326C80.5179 69.2326 79.9481 69.6969 79.9454 70.4077C79.9454 70.981 79.9401 71.658 79.9375 72.156C79.9375 72.5036 80.0378 72.7838 80.1406 72.9109H80.138Z" fill="#3E3A39"/>
<path d="M80.138 72.9109C80.816 73.1677 82.1035 73.6035 82.9161 73.881C82.0323 74.3402 81.4651 74.6515 80.6788 75.1366C80.1802 74.6956 79.729 74.3065 79.2937 73.9381C79.6235 73.5335 79.8266 73.2766 80.138 72.9109V72.9109Z" fill="#3E3A39"/>
<path d="M49.8154 82.6722C44.8632 82.6748 37.0986 82.8149 34.8375 82.8123C35.0011 82.9627 35.1436 83.0794 35.2834 83.1832C35.4575 83.3129 35.666 83.3829 35.8849 83.3855C38.2146 83.4166 46.8183 83.5152 49.8154 83.5178C52.8126 83.5152 61.4162 83.4166 63.7459 83.3855C63.9622 83.3829 64.1733 83.3129 64.3474 83.1832C64.4873 83.0794 64.6297 82.9627 64.7933 82.8123C62.5323 82.8149 54.7702 82.6774 49.8154 82.6722V82.6722Z" fill="#3E3A39"/>
<path d="M36.2596 82.9601C35.1647 82.9601 34.0698 82.8719 33.0013 82.6981H32.9828C32.8957 82.6799 32.8377 82.5995 32.8509 82.5139C32.8667 82.4283 32.9485 82.3713 33.0356 82.3842H33.0514C34.1648 82.5684 35.3098 82.654 36.4522 82.6436C37.4284 82.6332 38.6605 82.6177 40.0166 82.6021C43.1061 82.5632 46.9528 82.5165 49.8154 82.5139C49.9051 82.5139 49.9764 82.584 49.9764 82.6722C49.9764 82.7604 49.9051 82.8304 49.8154 82.8304C46.9555 82.8304 43.1088 82.8797 40.0219 82.9186C38.6658 82.9367 37.4337 82.9497 36.4575 82.9601C36.3915 82.9601 36.3256 82.9601 36.2596 82.9601V82.9601Z" fill="#3E3A39"/>
<path d="M84.7711 84.5916L81.0615 84.9557L81.0932 85.268L84.8028 84.904L84.7711 84.5916Z" fill="white"/>
<path d="M28.8485 58.8047C25.9173 63.2561 22.1761 73.1159 22.1867 73.3104C22.5745 73.2482 22.8726 73.2066 23.147 73.1859C24.8277 68.1328 26.817 63.4065 29.6268 58.1044C29.4157 58.1926 28.9461 58.6517 28.8459 58.8022L28.8485 58.8047Z" fill="#3E3A39"/>
<path d="M75.3545 81.3284C75.3334 81.3284 75.3096 81.3232 75.2885 81.3155C75.2067 81.2791 75.1725 81.1858 75.2094 81.1079C75.3281 80.8485 75.4627 80.5632 75.6051 80.2571C76.3755 78.6047 77.4309 76.3428 78.0931 74.5503C78.167 74.3532 78.1986 74.0989 78.1142 74.0185C77.948 73.8551 77.7026 73.6683 77.3596 73.4479C77.2858 73.4012 77.2647 73.3026 77.3148 73.23C77.3623 73.1573 77.4625 73.1366 77.5364 73.1859C77.8979 73.4193 78.1617 73.6191 78.3411 73.798C78.5944 74.0471 78.444 74.5218 78.3939 74.6618C77.7264 76.4647 76.6684 78.7344 75.898 80.392C75.7555 80.6981 75.6236 80.9834 75.5022 81.2428C75.4759 81.2999 75.4178 81.3362 75.3571 81.3362L75.3545 81.3284Z" fill="white"/>
<path d="M70.7849 58.8047C73.7161 63.2561 77.4573 73.1159 77.4467 73.3104C77.0589 73.2482 76.7608 73.2066 76.4864 73.1859C74.8057 68.1328 72.8164 63.4065 70.0066 58.1044C70.2177 58.1926 70.6873 58.6517 70.7875 58.8022L70.7849 58.8047Z" fill="#3E3A39"/>
<path d="M67.2522 70.9913H57.6328L59.2079 65.3183C59.4638 64.3948 60.3187 63.7541 61.2922 63.7541H63.5955C64.569 63.7541 65.4239 64.3948 65.6798 65.3183L67.2549 70.9913H67.2522Z" fill="#3E3A39"/>
<path d="M32.3812 70.9913H42.0006L40.4255 65.3183C40.1696 64.3948 39.3148 63.7541 38.3412 63.7541H36.0379C35.0644 63.7541 34.2096 64.3948 33.9536 65.3183L32.3785 70.9913H32.3812Z" fill="#3E3A39"/>
<path d="M69.9988 58.094C65.5822 57.5389 58.3505 57.1809 49.8181 57.1679C41.2857 57.1783 34.0539 57.5389 29.6374 58.094C26.8222 63.4013 24.8329 68.1302 23.1497 73.1885C27.9277 72.6411 38.8557 72.3506 49.8181 72.335C60.7804 72.3506 71.7084 72.6411 76.4865 73.1885C74.8032 68.1302 72.8139 63.4013 69.9988 58.094V58.094ZM73.8904 72.4077C67.0544 72.003 59.2132 71.7955 49.8181 71.7903C40.4229 71.7955 32.5818 72.0056 25.7458 72.4077C24.6825 72.4699 24.2367 71.9641 24.6034 70.898C25.9094 67.0796 27.6955 63.0355 29.3867 59.6218C29.7244 58.9396 30.2468 58.6569 31.6056 58.5557C34.017 58.3767 40.4678 57.8423 43.8079 57.915C44.6205 57.9331 44.0612 59.2275 45.5044 59.2275C46.0927 59.2275 46.6705 59.4065 47.0135 59.6763C47.5201 60.0732 47.8578 60.2885 48.3538 60.5557C47.7311 60.5842 46.6098 60.6231 45.7709 60.675C45.536 60.6906 45.3619 60.8955 45.3883 61.1264C45.4173 61.3909 45.4938 61.793 45.5624 62.0835C45.6389 62.4 45.908 62.6387 46.2352 62.6802C47.2299 62.8047 48.9553 62.8358 49.8207 62.8384C50.6861 62.8332 52.4116 62.8047 53.4062 62.6802C53.736 62.6387 54.0025 62.4 54.079 62.0835C54.1476 61.793 54.2241 61.3909 54.2531 61.1264C54.2795 60.8955 54.1054 60.6906 53.8706 60.675C53.0316 60.6231 51.9103 60.5842 51.2876 60.5557C51.7836 60.2885 52.1214 60.0732 52.6279 59.6763C52.9709 59.4065 53.5487 59.2275 54.1371 59.2275C55.5802 59.2275 55.0209 57.9331 55.8335 57.915C59.1737 57.8423 65.6244 58.3767 68.0359 58.5557C69.3946 58.6569 69.917 58.9396 70.2547 59.6218C71.9459 63.0329 73.7321 67.0796 75.038 70.898C75.4048 71.9667 74.9589 72.4725 73.8956 72.4077H73.8904Z" fill="#3E3A39"/>
<path d="M62.4425 69.4868C60.2316 69.4868 58.2317 70.3869 56.7991 71.8318C57.2766 71.837 57.7489 71.8448 58.2159 71.8526C59.3873 70.9628 60.8516 70.4336 62.4399 70.4336C64.1601 70.4336 65.7325 71.0536 66.9435 72.0782C67.4211 72.0964 67.896 72.1145 68.3629 72.1327C66.9171 70.514 64.7985 69.4894 62.4399 69.4894L62.4425 69.4868Z" fill="#3E3A39"/>
<path d="M80.8793 101.914C79.5786 101.689 78.6472 101.551 77.6605 101.44H77.6499C69.5687 100.991 56.741 100.911 49.8154 100.903C42.8897 100.911 30.062 100.988 21.9702 101.44C20.9835 101.554 20.0521 101.691 18.7514 101.914L17.9995 102.044L18.7409 102.223C19.9888 102.524 20.7434 102.656 21.1946 102.656H25.8169L25.8407 102.649C26.3842 102.483 26.9488 102.291 27.3076 102.161C32.4471 102.161 39.1248 102.161 44.2273 102.166H55.4007C60.5059 102.166 67.181 102.161 72.3205 102.161C72.6766 102.291 73.2412 102.483 73.7874 102.649L73.8111 102.656H78.4335C78.8847 102.656 79.6419 102.521 80.8872 102.223L81.6286 102.044L80.8766 101.914H80.8793Z" fill="#3E3A39"/>
<path d="M21.1973 102.498C20.82 102.498 20.2237 102.394 19.5615 102.249H19.5008C19.2792 102.195 19.0365 102.135 18.7858 102.07C18.0682 101.883 17.282 101.665 16.7253 101.489C15.7781 97.7562 15.0526 88.8303 14.8863 85.7953C14.8652 85.8913 14.8521 85.9924 14.8521 86.0962V106.643C14.8521 107.393 15.4721 108.003 16.2345 108.003H24.2129C24.9754 108.003 25.5954 107.393 25.5954 106.643V102.501H21.2052L21.1973 102.498Z" fill="#3E3A39"/>
<path d="M84.7524 85.7928C84.5888 88.8277 83.8607 97.7537 82.9135 101.486C82.3568 101.665 81.5706 101.883 80.8529 102.068C80.6023 102.132 80.3596 102.195 80.138 102.247H80.0773C79.4124 102.392 78.8161 102.496 78.4415 102.496H74.0513V106.638C74.0513 107.388 74.6713 107.997 75.4338 107.997H83.4121C84.1746 107.997 84.7946 107.388 84.7946 106.638V86.0911C84.7946 85.9873 84.7814 85.8887 84.7603 85.7902L84.7524 85.7928Z" fill="#3E3A39"/>
<path d="M79.2092 87.0301L69.6979 87.8601L63.6746 84.2311L66.2074 82.6955L72.0566 85.9691L81.0771 85.1235L80.3094 86.3608C80.0719 86.7447 79.663 86.9937 79.2092 87.0327V87.0301Z" fill="white"/>
<path d="M77.3466 100.908L64.8145 98.2284L71.8562 96.8328L79.9612 99.3386L78.5998 100.573C78.2621 100.879 77.7978 101.004 77.3492 100.908H77.3466Z" fill="white"/>
<path d="M66.7509 99.4943C65.6191 99.432 64.4608 99.4009 63.2973 99.4009H36.3334C35.1699 99.4009 34.0117 99.432 32.8798 99.4943L27.3235 99.803H72.3073L66.7509 99.4943Z" fill="white"/>
<path d="M66.6243 82.5476C66.4501 82.5736 66.4053 82.7993 66.5557 82.8901C67.8986 83.6812 69.6452 84.6358 71.0514 85.4011C71.616 85.7097 72.1569 85.7954 72.8323 85.7746C74.3678 85.7279 78.4282 85.344 81.0771 85.1209C81.2882 84.3479 81.6127 82.5036 81.5362 81.1469C81.523 80.9212 81.436 80.7085 81.2856 80.5399C81.0428 80.2649 80.9663 80.1767 80.6814 80.239C78.386 80.7422 69.7059 82.0729 66.6243 82.5476Z" fill="#F6AF58"/>
<path d="M72.6556 85.9354C71.9907 85.9354 71.4789 85.8135 70.975 85.5385C69.4104 84.6851 67.772 83.7901 66.4739 83.0249C66.3473 82.9497 66.2813 82.8096 66.3104 82.6643C66.3394 82.5217 66.4528 82.4127 66.5979 82.392L67.094 82.3167C70.4974 81.7928 78.4705 80.5658 80.6445 80.0885C81.0218 80.0055 81.1563 80.1585 81.4043 80.4387C81.5758 80.6332 81.6814 80.8823 81.6946 81.1417C81.7763 82.5969 81.4175 84.4801 81.2302 85.165L81.2012 85.2713L81.0904 85.2817C80.4572 85.3362 79.7422 85.3984 79.0034 85.4633C76.6632 85.6682 74.0117 85.8991 72.8376 85.9354C72.7769 85.9354 72.7163 85.938 72.6556 85.938V85.9354ZM80.8318 80.3764C80.8002 80.3764 80.7632 80.3842 80.7157 80.3946C78.5285 80.8745 70.5502 82.104 67.1441 82.628L66.6481 82.7033C66.6481 82.7033 66.6296 82.7058 66.6243 82.724C66.6217 82.7422 66.6322 82.7499 66.6375 82.7525C67.9303 83.5152 69.5661 84.4101 71.128 85.2609C71.6319 85.5359 72.1226 85.6371 72.8244 85.6163C73.9879 85.58 76.6368 85.3491 78.9718 85.1442C79.6683 85.0845 80.3437 85.0249 80.9479 84.973C81.1695 84.104 81.4439 82.3816 81.3727 81.1572C81.3621 80.9679 81.2856 80.7863 81.1616 80.6436C80.9769 80.4361 80.9215 80.3764 80.8292 80.3764H80.8318Z" fill="#3E3A39"/>
<path d="M69.5872 87.2298C68.0912 86.2285 66.6138 85.3491 64.8725 84.3608C64.4187 84.104 63.9068 83.9613 63.3844 83.9484C59.8464 83.8654 52.4115 83.8809 49.818 83.8809C47.2246 83.8809 39.7897 83.8654 36.2517 83.9484C35.7293 83.9613 35.2174 84.104 34.7636 84.3608C33.0223 85.3491 31.5422 86.2285 30.0489 87.2298C29.7956 87.3984 29.7033 87.7226 29.8326 87.995C30.7375 89.9146 32.3469 92.8536 34.0328 95.4683C34.5579 96.2802 35.4549 96.7835 36.4337 96.8198C40.9136 96.9884 47.1454 97.0481 49.818 97.0532C52.4907 97.0507 58.7225 96.9884 63.2024 96.8198C64.1786 96.7835 65.0782 96.2802 65.6033 95.4683C67.2918 92.8536 68.8986 89.9172 69.8035 87.995C69.9328 87.7226 69.8405 87.3984 69.5872 87.2298Z" fill="#3E3A39"/>
<path d="M57.902 90.3712H41.7289C41.1183 90.3712 40.6234 90.8578 40.6234 91.458V93.3309C40.6234 93.9312 41.1183 94.4178 41.7289 94.4178H57.902C58.5125 94.4178 59.0074 93.9312 59.0074 93.3309V91.458C59.0074 90.8578 58.5125 90.3712 57.902 90.3712Z" fill="white"/>
<path d="M63.3739 82.9601C64.4688 82.9601 65.5637 82.8719 66.6322 82.6981H66.6507C66.7378 82.6799 66.7958 82.5995 66.7826 82.5139C66.7668 82.4283 66.685 82.3713 66.5979 82.3842H66.5821C65.4687 82.5684 64.3237 82.654 63.1813 82.6436C62.2051 82.6332 60.973 82.6177 59.6169 82.6021C56.5274 82.5632 52.6806 82.5165 49.818 82.5139C49.7283 82.5139 49.6571 82.584 49.6571 82.6722C49.6571 82.7604 49.7283 82.8304 49.818 82.8304C52.678 82.8304 56.5247 82.8797 59.6116 82.9186C60.9677 82.9367 62.1998 82.9497 63.176 82.9601C63.242 82.9601 63.3079 82.9601 63.3739 82.9601V82.9601Z" fill="#3E3A39"/>
</g>
<defs>
<clipPath id="clip0_224_1907">
<rect width="119" height="107" fill="white" transform="translate(12 1)"/>
</clipPath>
</defs>
</svg>
