<?xml version="1.0" encoding="UTF-8"?><svg id="_8" xmlns="http://www.w3.org/2000/svg" viewBox="0 0 294.21 727.35"><defs><style>.cls-1{fill:#fad06c;}.cls-2{fill:#fff;}.cls-3{fill:#ffd7c5;}.cls-4{fill:#ffd000;}.cls-5{fill:#b76b00;}.cls-6{fill:#6c859b;}</style></defs><g><path class="cls-5" d="M98.53,432.89h-7.67v8.51h25.9v-8.51h-7.96V150.84h-10.27V432.89Z"/><path class="cls-4" d="M58.94,118.29c.15,2.67,2.36,4.76,5.02,4.76,.32,0,1.03-.06,1.95-.14,8.99-.71,11.6-.5,13.26,1.03,.8,.74,1.23,1.73,1.23,2.8v16.99h45.31v-16.99c0-2.43,.97-4.48,13.23-6.99,.81-.16,1.45-.72,1.73-1.49h0c4.83-13.28,25.57-81.03-40.14-111.14-.58-.27-1.27-.27-1.9-.01L9.42,43.53c46.29,18.94,48.71,60.77,49.51,74.76Z"/></g><g><path d="M115.71,425.97h7.96v22.34h-39.73v-22.34h7.67V143.93h24.1V425.97Zm-17.19,6.91h-7.67v8.51h25.9v-8.51h-7.96V150.84h-10.27V432.89Z"/><path d="M103.42,.83c29.72,13.62,46.65,35.86,50.32,66.12,3.01,24.78-4.26,47.34-6.56,53.67-1.11,3.05-3.67,5.25-6.85,5.91-3.22,.66-6.13,1.46-7.7,2.04v15.78c0,3.47-2.82,6.29-6.29,6.29h-46.56c-3.47,0-6.29-2.82-6.29-6.29v-14.92c-2.26,0-5.67,.27-7.04,.38-1.19,.09-2.11,.16-2.49,.16-6.32,0-11.56-4.95-11.93-11.27-.76-13.23-3.09-53.47-48.68-70.09-2.36-.86-3.71-3.26-3.27-5.85,.41-2.46,2.27-4.34,4.56-4.74L96.01,.71c1.15-.47,2.36-.71,3.58-.71,1.31,0,2.62,.28,3.83,.83ZM58.94,118.29c.15,2.67,2.36,4.76,5.02,4.76,.32,0,1.03-.06,1.95-.14,8.99-.71,11.6-.5,13.26,1.03,.8,.74,1.23,1.73,1.23,2.8v16.99h45.31v-16.99c0-2.43,.97-4.48,13.23-6.99,.81-.16,1.45-.72,1.73-1.49h0c4.83-13.28,25.57-81.03-40.14-111.14-.58-.27-1.27-.27-1.9-.01L9.42,43.53c46.29,18.94,48.71,60.77,49.51,74.76Z"/><path d="M122.49,16.09c-.42,0-.84,.08-1.26,.24L26.39,53.35c-1.78,.69-2.66,2.7-1.96,4.48,.69,1.78,2.7,2.65,4.48,1.96L123.74,22.77c1.78-.69,2.66-2.7,1.96-4.48-.53-1.37-1.84-2.2-3.22-2.2Z"/><path d="M53.44,45.2c-.97,0-1.94,.41-2.62,1.2-1.24,1.44-1.08,3.62,.36,4.87,.16,.14,14.16,12.49,18.43,33.03,.39,1.87,2.22,3.07,4.09,2.68,1.87-.39,3.07-2.22,2.68-4.09-4.76-22.93-20.03-36.3-20.68-36.86-.65-.56-1.46-.84-2.25-.84Z"/><path d="M77.56,35.22c-.97,0-1.93,.4-2.61,1.19-1.25,1.44-1.1,3.62,.33,4.87h0c.09,.08,8.91,7.94,13.11,21.7,.56,1.83,2.49,2.86,4.32,2.3,1.83-.56,2.85-2.49,2.3-4.32-4.81-15.74-14.76-24.52-15.18-24.89-.66-.57-1.46-.85-2.27-.85Z"/><path d="M102.52,26.07c-1.01,0-2,.44-2.69,1.28-1.2,1.48-.98,3.65,.5,4.86,.09,.07,7.17,5.99,10.55,16.28,.59,1.81,2.55,2.81,4.36,2.21,1.81-.59,2.8-2.55,2.21-4.36-4.04-12.32-12.4-19.21-12.76-19.5-.64-.52-1.41-.77-2.18-.77Z"/></g><polygon class="cls-6" points="136.79 513.98 142.23 686.2 187.24 686.2 202.77 547.66 217.34 693.21 263.52 693.21 266.51 513.98 199.72 458.06 136.79 513.98"/><path class="cls-1" d="M251.08,302.33c16.93,8.91,24.63,29.23,24.56,40.57-.07,11.33-.95,22.71-1.06,26.15-.11,3.43,0,108.02,0,117.23v20.21s-19.92,10.86-34.87,9.88c-14.95-.98-23.87-7.02-28.67-10.13-4.8-3.11-6.49-6.9-11.88-5.98-5.38,.91-13.88,8.36-21.79,12.02-7.91,3.66-15.95,4.95-25.21,4.16s-23.71-11.01-23.71-11.01v-104.53s-40.12,7.45-54.01,3.7-27.93-12.54-27.77-21.69c.16-9.14,4.84-21.84,6.11-23.92,1.28-2.08,31.98-49.28,31.98-49.28l32.63,4.72,49.29-19.91c5.06-2.04,10.57-2.71,15.97-1.94l68.42,9.77Z"/><path class="cls-3" d="M117.55,286.96h-3.42s.07,1.29,.07,1.29h3.34c4.34,.02,7.88,3.58,7.87,7.92-.01,4.35-3.57,7.89-7.91,7.88h-2.42s.14,2.46,.14,2.46h.99c4.34,.01,12.11,3.58,12.1,7.93,0,4.35-7.8,7.88-12.14,7.87h-.06l.14,2.47c4.3,.05,7.8,3.6,7.79,7.91,0,4.35-3.57,7.89-7.91,7.88l-30.32-.07c-4.34-2.15-8.61-6.64-8.59-14.24l.06-28.69c.22-12.27,1.02-20.72,3.81-26.61,1.09-.74,2.33-1.19,3.65-1.19l32.83,1.37c4.34,0,7.88,3.57,7.87,7.92-.01,4.35-3.57,7.89-7.91,7.88Z"/><path class="cls-3" d="M86.04,396.52h3.42s-.07-1.29-.07-1.29h-3.34c-4.34-.02-7.88-3.58-7.87-7.92,0-4.35,3.57-7.89,7.91-7.88h2.42s-.14-2.46-.14-2.46h-.99c-4.34-.01-12.11-3.58-12.1-7.93s7.8-7.88,12.14-7.87h.06l-.14-2.47c-4.3-.05-7.8-3.6-7.79-7.91,0-4.35,3.57-7.89,7.91-7.88l30.32,.07c4.34,2.15,8.61,6.64,8.59,14.24l-.06,28.69c-.22,12.27-1.02,20.72-3.81,26.61-1.09,.74-2.33,1.19-3.65,1.19l-32.83-1.37c-4.34-.01-7.88-3.57-7.87-7.92,.01-4.34,3.57-7.89,7.91-7.88Z"/><path class="cls-2" d="M164.5,300.11s-17.39,3.8-17.92,5.5c-.53,1.7,44.38,60.05,44.38,60.05,0,0,4.79,3.74,8.21,3.36s8-6.22,8-6.22l43.92-60.47-28.09-6.02-23.83-26.68-34.66,30.48Z"/><path class="cls-3" d="M258.49,227.11v-5.79c0-1.9-.16-3.8-.44-5.68,.07-1.06,.11-2.13,.11-3.21,0-29.32-25.06-53.1-55.98-53.1s-55.98,23.77-55.98,53.1c0,2.16,.15,4.28,.42,6.37-.06,.84-.09,1.68-.09,2.52v5.87c-9.96,.91-17.76,9.3-17.76,19.51s8.28,19.1,18.67,19.58c4.93,22.81,29.34,42.66,55.07,42.66s50.12-19.83,55.07-42.64h.91c10.81,0,19.57-8.77,19.57-19.6s-8.76-19.6-19.57-19.6Z"/><path d="M122.19,251.49c.83,6.13,2.38,9.72,6.66,14.75,3.55,3.56,8.3,5.96,13.57,6.56,.85,3.07,2,6.07,3.43,8.95,2.74,5.47,6.46,10.55,10.9,15.03-.86,.13-1.73,.3-2.64,.52-3.2,.78-6.73,2.1-10.43,3.96-3.7,1.86-7.58,4.27-11.42,7.22-1.52,1.17-1.81,3.35-.64,4.88,1.17,1.52,3.35,1.81,4.87,.64h0c2.87-2.21,5.75-4.06,8.51-5.57l45.04,60.94c1.06,1.43,2.42,2.54,3.91,3.27,1.49,.73,3.11,1.09,4.72,1.09,1.61,0,3.23-.36,4.72-1.09,1.49-.73,2.85-1.83,3.91-3.27l45.59-61.69s.04-.06,.06-.09c1.87,1.37,3.7,3.02,5.42,4.91,4.16,4.54,7.74,10.42,10.24,16.74,2.5,6.32,3.93,13.06,3.92,19.28,0,3.36-.41,6.57-1.26,9.49-3.29,11.29-8.16,21.72-14.48,31.53-6.32,9.81-14.1,19.01-23.18,27.81-6.17,5.98-14.3,9.15-22.59,9.15-3.84,0-7.72-.68-11.44-2.09l-67.62-25.52v-.23c0-1.24-.66-2.33-1.64-2.94l.08-35.86,78.88,31.07,21-34.12c1.01-1.64,.5-3.78-1.13-4.79s-3.77-.5-4.78,1.14l-17.95,29.17-76.24-30.03c-.56-3.48-2.2-6.61-4.57-8.99-.37-.38-.77-.73-1.18-1.07,.85-.63,1.64-1.35,2.33-2.2,.8-.98,1.46-2.11,1.92-3.38,.46-1.26,.71-2.64,.7-4.1,0-2.74-.86-5.68-2.64-8.77-.02-.04-.05-.07-.07-.1,.4-.31,.8-.64,1.16-1,2.11-2.1,3.43-5.04,3.44-8.25v-.25l-.02-.11c-.09-3.08-1.37-5.89-3.4-7.93-.18-.18-.37-.34-.55-.51,.19-.17,.39-.34,.57-.52,2.11-2.1,3.43-5.03,3.44-8.25h0s0-.11,0-.11h0c-.02-3.18-1.33-6.09-3.42-8.18-.35-.36-.74-.68-1.13-.99,.02-.04,.05-.06,.07-.1h0c1.81-3.09,2.68-6.06,2.68-8.81,0-1.93-.44-3.74-1.22-5.3-1.17-2.35-3.04-4.11-5.14-5.29-2.1-1.18-4.44-1.82-6.77-1.91h-.05s-26.49-.06-26.49-.06h-.05c-4.53,0-8.65,1.84-11.62,4.81-2.97,2.96-4.82,7.09-4.83,11.62l-.08,34.89c-.19,.3-.33,.63-.42,.98-.03,.07-.11,.25-.23,.49-.27,.55-.73,1.41-1.32,2.47-2.07,3.73-5.79,10-10.05,17.06-4.26,7.06-9.07,14.92-13.37,21.91-3.13,5.08-4.64,10.76-4.64,16.38,0,8.72,3.65,17.35,10.57,23.47,5.71,5.04,13.06,7.83,20.67,7.83h.14c.2,.7,.44,1.38,.75,2,1.17,2.35,3.04,4.11,5.14,5.29,2.1,1.18,4.44,1.82,6.77,1.91h.05s26.5,.06,26.5,.06h.04c4.3,0,8.23-1.68,11.16-4.39v94.55l8.1,4.36c-.77,.64-1.28,1.59-1.28,2.67h0v26.19c0,2.8,.11,7.14,.29,12.65,.65,19.27,2.28,52.75,3.74,81.43,1.15,22.6,2.2,42.2,2.6,49.5-.41,.09-.84,.2-1.32,.32-4,1.06-10.08,3.23-15.7,7.78-2.8,2.27-5.48,5.15-7.65,8.75-2.17,3.6-3.81,7.92-4.59,12.98l-.04,.26v4.42c0,2.34,.96,4.5,2.5,6.03,1.53,1.54,3.68,2.5,6.02,2.5h61.2c2.18,0,4.21-.84,5.72-2.21,1.51-1.37,2.54-3.31,2.76-5.48l3.21-32.14h0s11.13-113.1,11.13-113.1l14.33,145.24c.21,2.17,1.24,4.11,2.76,5.48,1.51,1.37,3.54,2.21,5.72,2.21h61.2c2.34,0,4.49-.96,6.02-2.5,1.54-1.53,2.5-3.69,2.49-6.03v-4.41l-.04-.27c-1.04-6.75-3.62-12.17-6.92-16.34-2.47-3.13-5.31-5.58-8.16-7.47-4.28-2.84-8.57-4.47-11.82-5.41-.87-.25-1.66-.45-2.36-.61,.47-8.64,1.85-34.43,3.23-62.03,.85-16.95,1.7-34.59,2.34-49.35,.32-7.38,.58-14.05,.77-19.55,.19-5.51,.29-9.85,.29-12.65v-26.19c0-1.15-.56-2.16-1.42-2.79l5.4-1.98c1.8-.66,2.73-2.66,2.07-4.46-.32-.89-.97-1.56-1.76-1.94,1.16-.56,1.98-1.74,1.98-3.12v-118.85c0-1.92-1.55-3.48-3.47-3.48s-3.47,1.56-3.47,3.48v118.85c0,1.37,.8,2.55,1.95,3.11l-23.05,8.46c-3.6,1.11-7.29,1.66-10.96,1.66-7.95,0-15.8-2.56-22.31-7.47l-7.81-5.89c-2.96-2.24-6.5-3.36-10.03-3.36-3.53,0-7.07,1.12-10.03,3.36l-7.8,5.89c-6.51,4.91-14.36,7.47-22.31,7.47-3.59,0-7.21-.53-10.73-1.59l-15.86-8.54v-97.01l65.17,24.6c4.52,1.71,9.23,2.54,13.89,2.54,10.05,0,19.93-3.86,27.42-11.11,9.4-9.1,17.53-18.71,24.19-29.04,6.66-10.33,11.84-21.39,15.32-33.36,1.06-3.65,1.54-7.5,1.54-11.43,0-9.69-2.88-19.85-7.58-28.7-2.36-4.42-5.18-8.51-8.4-12.02-3.22-3.51-6.82-6.46-10.77-8.54-1.7-.89-3.8-.24-4.69,1.46-.4,.76-.47,1.6-.3,2.37-.15,.14-.29,.29-.42,.46h0l-39.47,53.42v-28.11h-18.32v28.11l-38.08-51.53c1.55-.59,3.01-1.05,4.33-1.37,1.72-.42,3.21-.61,4.34-.6,1.09,0,2.06-.52,2.69-1.31,1.66,1.3,3.38,2.52,5.16,3.66,9.47,6.05,20.63,9.77,32.16,9.77,7.68,0,15.21-1.66,22.17-4.55,10.45-4.35,19.65-11.46,26.32-20.13,3.33-4.34,6.02-9.07,7.89-14.06,.5-1.33,.93-2.69,1.31-4.06,5.27-.6,10.01-3,13.56-6.56,4.14-4.14,6.71-9.89,6.7-16.21,0-6.32-2.57-12.07-6.7-16.21-2.36-2.37-5.26-4.22-8.48-5.38v-.96c7.64-1.02,15.12-8.71,14.61-12.27-.58-4.09-13.02-5.9-17.99-16.06h-.01c-.45-1.29-.93-2.57-1.46-3.83-4.68-11.03-12.47-20.41-22.26-27.05-4.9-3.32-10.3-5.95-16.06-7.76-5.76-1.8-11.88-2.78-18.21-2.78-.08-.19-.31-.18-.66,0h-2.14c-2.64,0-5.24,.19-7.8,.52-13.89,.38-38.34,0-54.15-6.23-2.73-1.07-5.81,.68-6.22,3.59-1.02,7.11,1.74,15.68,4.12,21.41,1.06,2.55-1.28,5.21-3.94,4.48l-4.22-1.15c-3.15-.86-6.19,1.73-5.82,4.98,.64,5.58,2.14,13.96,5.7,22.46,4.15,9.9,8.39,17.64,10.27,20.92-2.94,1.16-5.59,2.91-7.79,5.11-4.14,4.14-6.7,9.89-6.7,16.21,0,.73,.04,1.45,.11,2.17m27.67,22.32c-1.61-4.31-2.49-8.77-2.49-13.22,0-1.83-1.48-3.32-3.31-3.32s-3.31,1.49-3.31,3.32c0,1.51,.1,3.01,.26,4.51-2.9-.73-5.49-2.21-7.54-4.26-2.95-2.96-4.76-7.01-4.76-11.51,0-4.51,1.81-8.55,4.76-11.51,1.12-1.12,2.39-2.07,3.79-2.82v11.4h.61c5.54,0,10.04-4.5,10.04-10.05l17.58-17.43c2.68-2.66,7.22-.46,6.79,3.3-.51,4.49,3.71,8.04,8.05,6.77,6.26-1.84,14.77-5.49,22.13-12.69,5.51-5.4,8.62-10.5,10.58-15.14,1.28-3.03,5.51-3.27,7.13-.41,7.07,12.46,20.49,25.17,31.99,30.95v4.65c0,5.55,4.49,10.05,10.04,10.05h.61v-11.4c1.4,.76,2.67,1.71,3.79,2.82,2.95,2.96,4.76,7.01,4.76,11.51,0,4.51-1.81,8.56-4.76,11.51-2.05,2.05-4.64,3.53-7.53,4.26,.16-1.49,.26-2.99,.26-4.51,0-1.83-1.48-3.32-3.31-3.32s-3.31,1.49-3.31,3.32h0c0,5.94-1.55,11.88-4.34,17.48-4.19,8.4-11.21,16-19.73,21.44-8.52,5.45-18.51,8.73-28.59,8.73-6.73,0-13.4-1.45-19.63-4.04-9.35-3.88-17.68-10.32-23.6-18.04-2.96-3.86-5.33-8.03-6.94-12.34Zm-18.7,39.88h0Zm-48.97-39.29c1.93-1.92,4.56-3.1,7.5-3.11h.01l26.38,.06c.93,.04,1.89,.23,2.8,.56,1.37,.5,2.58,1.32,3.39,2.33,.41,.51,.73,1.06,.95,1.67,.22,.62,.35,1.3,.35,2.1,0,1.5-.47,3.45-1.88,5.87-.14,.24-.23,.49-.29,.75-.6-.1-1.21-.16-1.84-.17l-13.04-.03c-1.61,0-2.92,1.3-2.92,2.92s1.3,2.92,2.91,2.93l13.04,.03c1.6,0,3.05,.66,4.12,1.73,1.07,1.08,1.71,2.52,1.72,4.13v.02c0,1.61-.66,3.05-1.73,4.12-1.07,1.07-2.52,1.72-4.12,1.72h-.03l-13.03-.03c-1.61,0-2.92,1.3-2.92,2.92,0,1.61,1.3,2.92,2.91,2.93h0l13.04,.03c1.6,0,3.05,.66,4.12,1.73,1.07,1.08,1.71,2.52,1.72,4.13h0v.02c0,1.6-.66,3.05-1.72,4.12-1.07,1.07-2.52,1.72-4.12,1.72h-.01l-13.04-.03c-1.61,0-2.92,1.3-2.92,2.92,0,1.61,1.3,2.92,2.91,2.93l13.07,.03h.03c.61,0,1.2-.06,1.78-.16,.07,.26,.15,.51,.29,.75,1.39,2.41,1.86,4.35,1.86,5.84,0,1.07-.23,1.93-.61,2.7-.57,1.14-1.54,2.1-2.79,2.8-.71,.4-1.5,.69-2.31,.88-1.24-.3-2.52-.48-3.84-.48h-5.3s-21.2-.06-21.2-.06h-.05c-.45,.02-.89,.06-1.34,.12-1.49-.54-2.83-1.39-3.94-2.49-1.92-1.93-3.1-4.56-3.1-7.49h0s.01-7.04,.01-7.04c.04-.1,.09-.19,.13-.29,.08-.19,.16-.38,.23-.62,.04-.12,.08-.26,.12-.44,.04-.19,.08-.42,.09-.8,0-.7-.21-1.35-.56-1.9l.08-34.84c.01-2.94,1.19-5.58,3.12-7.5Zm-9.57,44.23h0Zm-22.53,57.44c0-4.38,1.17-8.77,3.61-12.73,5.5-8.93,11.84-19.31,16.82-27.65,1.04-1.73,2.01-3.37,2.91-4.9,.61,3.35,2.22,6.37,4.53,8.68,.37,.38,.77,.73,1.18,1.07-.85,.63-1.64,1.35-2.33,2.2-.8,.98-1.46,2.11-1.92,3.38-.46,1.26-.7,2.64-.7,4.1,0,2.74,.86,5.68,2.64,8.77,.02,.04,.05,.06,.07,.1-.4,.31-.8,.64-1.16,1-2.05,2.05-3.35,4.88-3.43,7.99,0,.1-.01,.18-.01,.23v.05h0v.03h0c0,3.2,1.32,6.13,3.42,8.23,.18,.18,.37,.34,.55,.51-.19,.17-.39,.34-.57,.52-2.07,2.07-3.38,4.93-3.43,8.08h0s0,.07,0,.19c0,3.21,1.32,6.15,3.42,8.26,.35,.36,.74,.68,1.13,.99-.02,.04-.05,.06-.07,.1h0c-1.03,1.77-1.75,3.49-2.18,5.15h-.17c-5.92,0-11.63-2.16-16.07-6.08-5.39-4.77-8.22-11.46-8.23-18.25Zm63.68,34.71h-.02l-26.36-.06c-.93-.04-1.9-.23-2.8-.56-1.38-.5-2.58-1.32-3.39-2.33-.34-.42-.6-.88-.81-1.37,.71-.64,1.17-1.55,1.17-2.58s-.46-1.96-1.18-2.59c.3-.93,.75-1.96,1.41-3.09,.14-.24,.23-.49,.29-.75,.6,.1,1.21,.16,1.84,.17l13.04,.03c1.61,0,2.92-1.3,2.92-2.92,0-1.61-1.3-2.92-2.91-2.93l-13.04-.03c-1.6,0-3.05-.66-4.12-1.73-1.06-1.07-1.71-2.52-1.72-4.12v-.03c0-1.61,.66-3.05,1.72-4.13,1.07-1.07,2.52-1.72,4.12-1.72h.01l13.04,.03c1.61,0,2.92-1.3,2.92-2.92,0-1.61-1.3-2.92-2.91-2.93h0l-13.03-.03h0c-1.6,0-3.05-.66-4.12-1.73-1.06-1.07-1.71-2.52-1.72-4.11v-.03c0-1.61,.66-3.05,1.72-4.13,1.07-1.07,2.52-1.72,4.12-1.72l13.06,.03c1.61,0,2.92-1.3,2.92-2.92,0-1.61-1.3-2.92-2.91-2.93l-13.04-.03h-.03c-.62,0-1.22,.06-1.82,.16-.06-.26-.15-.51-.29-.75-1.39-2.41-1.86-4.34-1.86-5.84,0-1.07,.23-1.94,.61-2.7,.57-1.14,1.54-2.1,2.79-2.8,.71-.4,1.5-.69,2.31-.88,1.24,.3,2.52,.48,3.85,.48h5.3s21.2,.06,21.2,.06h.05c.45-.02,.89-.06,1.34-.12,1.49,.54,2.83,1.39,3.94,2.49,1.57,1.57,2.62,3.62,2.97,5.91-.06,.12-.13,.23-.18,.35-.42,1.08-.26,2.23,.31,3.13l-.09,42.15c-.13,.2-.25,.42-.34,.66-.36,.97-.26,1.99,.19,2.85-.35,2.28-1.42,4.31-2.98,5.88-1.93,1.92-4.56,3.1-7.5,3.1Zm92.25,136.8c-.19-1.91-1.89-3.31-3.8-3.12-.21,.02-.41,.07-.61,.12-.2-.06-.4-.1-.61-.12-1.91-.19-3.61,1.21-3.8,3.12l-13.33,135.48h-38.57c-.51-9.47-2.07-38.48-3.54-68.22-.79-15.99-1.56-32.19-2.13-45.65-.29-6.73-.52-12.78-.69-17.77-.16-4.99-.26-8.94-.26-11.41v-25.82l6.36,3.42,.32,.1c4.29,1.34,8.7,1.99,13.08,1.99,9.44,0,18.76-3.04,26.49-8.87l7.8-5.89c1.74-1.31,3.79-1.96,5.85-1.96,2.06,0,4.12,.65,5.85,1.96l7.81,5.89c7.73,5.83,17.05,8.87,26.49,8.87,4.38,0,8.79-.66,13.08-1.99l.08-.03,12.72-4.67c-.06,.26-.1,.52-.1,.8h0v26.19c0,2.63-.1,6.95-.29,12.42-.65,19.17-2.27,52.65-3.74,81.31-.73,14.33-1.42,27.47-1.93,37.02-.25,4.78-.46,8.65-.61,11.34-.02,.34-.04,.66-.05,.96h-38.53l-13.37-135.48Z"/><path d="M195.13,450.75c0,2.52,2.04,4.56,4.55,4.56s4.55-2.04,4.55-4.56-2.04-4.56-4.55-4.56c-2.51,0-4.55,2.04-4.55,4.56Z"/><path d="M178.67,250.03c3.4,0,6.17-2.78,6.17-6.18h0c0-3.4-2.78-6.18-6.17-6.18s-6.17,2.78-6.17,6.18h0c0,3.4,2.78,6.18,6.17,6.18Z"/><path d="M221.54,250.03c3.4,0,6.17-2.78,6.17-6.18h0c0-3.4-2.78-6.18-6.17-6.18s-6.17,2.78-6.17,6.18h0c0,3.4,2.78,6.18,6.17,6.18Z"/><path d="M196.91,265.95h6.93c.88,0,1.59-.71,1.59-1.59s-.71-1.59-1.59-1.59h-4.63c-1.09,0-2.09-.61-2.59-1.58l-.42-.81c-.36-.7-1.42-.45-1.42,.34v3.11c0,1.17,.95,2.12,2.12,2.12Z"/><path d="M219.39,225.18l6.31-2.41c1.44-.55,2.16-2.17,1.61-3.61s-2.17-2.17-3.61-1.62l-6.31,2.41c-1.44,.55-2.16,2.18-1.62,3.61s2.17,2.17,3.61,1.62Z"/><path d="M190.71,285.6c.89,0,1.65-.6,1.89-1.42h15.01c.24,.82,.99,1.42,1.89,1.42,1.08,0,1.96-.88,1.96-1.97v-3.39c0-1.08-.88-1.97-1.96-1.97-.89,0-1.65,.6-1.89,1.42h-15.01c-.24-.82-.99-1.42-1.89-1.42-1.08,0-1.96,.88-1.96,1.97v3.39c0,1.09,.88,1.97,1.97,1.97Z"/></svg>