<svg width="545" height="125" fill="none" xmlns="http://www.w3.org/2000/svg"><circle cx="58.781" cy="62.182" r="55.624" stroke="#1F1F1F" stroke-width="5.562"/><circle cx="201.178" cy="62.182" r="55.624" stroke="#1F1F1F" stroke-width="5.562"/><circle cx="343.575" cy="62.182" r="55.624" stroke="#1F1F1F" stroke-width="5.562"/><circle cx="485.972" cy="62.182" r="55.624" stroke="#1F1F1F" stroke-width="5.562"/><path stroke="#1F1F1F" stroke-width="5.562" d="M114.961 59.957h27.812m114.585 0h27.812m114.585 0h27.811"/><path d="M67.297 80.679c-.897 0-1.672-.286-2.325-.857-.612-.612-.917-1.407-.917-2.386V75.6H51.083c-.816 0-1.468-.265-1.958-.795a2.758 2.758 0 0 1-.673-1.836c0-.734.224-1.346.673-1.835.49-.53 1.142-.796 1.958-.796h12.972v-2.386h-3.55c-2.447 0-4.384-.265-5.812-.796-1.428-.53-2.447-1.468-3.06-2.814-.57-1.346-.856-3.222-.856-5.63 0-2.406.286-4.282.857-5.628.612-1.346 1.631-2.285 3.059-2.815 1.428-.53 3.365-.795 5.813-.795h3.549v-2.448h-9.117c-.98 0-1.714-.408-2.203-1.223-.49.367-1.142.55-1.958.55-.897 0-1.652-.285-2.264-.856-.612-.571-.918-1.346-.918-2.325v-2.264c0-2.57.612-4.365 1.836-5.385 1.265-1.06 3.426-1.59 6.486-1.59H77.82c3.06 0 5.201.53 6.425 1.59 1.264 1.02 1.897 2.815 1.897 5.385v2.264c0 .979-.306 1.754-.918 2.325-.612.57-1.387.856-2.325.856a3.436 3.436 0 0 1-1.897-.55c-.408.815-1.122 1.223-2.141 1.223h-8.26v2.448h3.61c2.488 0 4.446.265 5.873.795 1.428.53 2.427 1.469 2.998 2.815.612 1.346.918 3.222.918 5.629 0 2.407-.306 4.283-.918 5.629-.57 1.346-1.57 2.284-2.998 2.814-1.427.53-3.385.796-5.874.796H70.6v2.386h14.134c.816 0 1.448.265 1.897.796.49.49.734 1.101.734 1.835 0 .694-.244 1.306-.734 1.836-.449.53-1.08.795-1.897.795H70.601v1.836c0 .979-.326 1.774-.979 2.386-.611.571-1.386.857-2.325.857Zm.368 6.791c-4.202 0-7.832-.183-10.892-.55-3.059-.327-5.67-.918-7.832-1.775-2.12-.816-3.915-1.917-5.384-3.304-.57.408-1.264.898-2.08 1.469-.816.57-1.591 1.101-2.325 1.59a33.08 33.08 0 0 1-1.591 1.163c-.816.571-1.754.755-2.815.55-1.02-.162-1.794-.693-2.325-1.59-.49-.857-.612-1.754-.367-2.692.245-.98.816-1.693 1.713-2.142.612-.326 1.49-.775 2.631-1.346a324.62 324.62 0 0 1 3.12-1.652V63.852c0-.978-.162-1.631-.489-1.957-.326-.368-.979-.551-1.958-.551h-2.508c-.98 0-1.754-.306-2.325-.918-.571-.653-.857-1.428-.857-2.325 0-.857.286-1.59.857-2.203.57-.652 1.346-.979 2.325-.979h5.2c4.284 0 6.425 2.142 6.425 6.425v15.174a15.52 15.52 0 0 0 4.528 2.876c1.713.693 3.895 1.183 6.547 1.468 2.692.286 6.16.428 10.402.428 3.711 0 6.913-.04 9.606-.122 2.733-.082 5.16-.204 7.28-.367 1.102-.082 2 .184 2.693.795.734.612 1.101 1.387 1.101 2.325 0 .98-.306 1.795-.917 2.448-.572.653-1.49 1-2.754 1.04H72.743c-2.04.04-3.732.061-5.078.061Zm-26.25-41.85a30.447 30.447 0 0 0-1.957-1.897 40.195 40.195 0 0 0-2.387-2.203 29.925 29.925 0 0 0-2.019-1.774c-.693-.57-1.06-1.285-1.101-2.141a3.097 3.097 0 0 1 .795-2.264c.612-.694 1.346-1.122 2.203-1.285.897-.163 1.734.04 2.509.612a42.31 42.31 0 0 1 2.141 1.835l2.57 2.203c.857.734 1.53 1.346 2.02 1.836.693.652 1.06 1.468 1.1 2.447.041.979-.285 1.815-.979 2.509-.652.693-1.468 1.06-2.447 1.101-.979 0-1.795-.326-2.447-.979Zm12.605-3.488c.163-.04.306-.06.428-.06a2.01 2.01 0 0 1 .49-.062h9.117v-2.937h-6.731c-1.264 0-2.142.184-2.631.55-.449.327-.673.98-.673 1.959v.55Zm25.698 0v-.55c0-.98-.224-1.632-.673-1.958-.449-.367-1.326-.55-2.63-.55H70.54c.041.121.061.285.061.489v2.447h8.26c.245 0 .53.04.857.122Zm-9.117 21.17h2.326c1.55 0 2.65-.142 3.303-.428.653-.326 1.061-1.04 1.224-2.141h-6.853v2.57Zm-8.81 0h2.264v-2.569h-6.731c.163 1.101.571 1.815 1.224 2.142.652.285 1.733.428 3.243.428Zm8.81-6.73h6.792c-.163-1.06-.571-1.733-1.224-2.019-.611-.326-1.692-.49-3.242-.49H70.6v2.51Zm-13.277 0h6.73v-2.508h-2.263c-1.51 0-2.59.163-3.243.49-.653.285-1.06.958-1.224 2.018Zm158.733 31.755c-1.019 0-1.896-.286-2.631-.857-.734-.57-1.142-1.387-1.223-2.447-.041-1.06.224-1.958.795-2.692.612-.735 1.469-1.122 2.57-1.163 1.346-.082 2.386-.245 3.12-.49.735-.285 1.285-.795 1.652-1.529.368-.734.653-1.836.857-3.304.326-2.162.551-4.793.673-7.893.163-3.141.265-6.71.306-10.708.041-1.794-.184-2.957-.673-3.487-.49-.571-1.53-.877-3.121-.918-.203 8.158-1.325 15.072-3.365 20.742-1.998 5.67-4.874 10.32-8.627 13.95a4.211 4.211 0 0 1-2.631 1.163c-1.02.082-1.917-.265-2.692-1.04-.571-.612-.857-1.367-.857-2.264.041-.897.388-1.611 1.04-2.141l.368-.368c.122-.122.224-.244.305-.367-2.121.327-4.629.694-7.525 1.102-2.897.367-5.854.693-8.872.978-3.019.327-5.813.592-8.383.796-.979.04-1.795-.184-2.447-.673-.653-.49-1.02-1.224-1.102-2.203-.041-.816.184-1.53.673-2.141.531-.653 1.244-1 2.142-1.04 1.468-.082 3.12-.184 4.956-.306a328.06 328.06 0 0 0 5.751-.429v-3.304h-10.279c-.775 0-1.366-.265-1.774-.795a2.839 2.839 0 0 1-.612-1.775c0-.652.204-1.223.612-1.713.408-.53.999-.795 1.774-.795h10.279v-2.264h-.428c-2.774 0-4.936-.245-6.486-.734-1.509-.49-2.549-1.387-3.12-2.693-.571-1.346-.857-3.242-.857-5.69 0-2.488.286-4.385.857-5.69.571-1.346 1.611-2.264 3.12-2.754 1.55-.489 3.712-.734 6.486-.734h.428V47.7h-11.38c-.775 0-1.387-.265-1.836-.795a2.762 2.762 0 0 1-.673-1.836c0-.693.225-1.285.673-1.774.449-.53 1.061-.795 1.836-.795h11.38v-2.203c-1.468.122-2.916.224-4.344.306-1.387.04-2.712.081-3.977.122-1.999.04-3.1-.836-3.304-2.63a2.485 2.485 0 0 1 .673-1.898c.53-.57 1.265-.877 2.203-.917a258.54 258.54 0 0 0 7.342-.368 196.78 196.78 0 0 0 7.587-.734c2.488-.326 4.691-.693 6.608-1.101.979-.204 1.815-.143 2.509.183.734.327 1.183.898 1.346 1.714.408 1.958-.306 3.12-2.141 3.487-1.143.204-2.407.408-3.794.612-1.387.204-2.835.408-4.344.612V42.5h11.319c.816 0 1.428.265 1.836.795.448.49.673 1.08.673 1.774 0 .163-.021.327-.061.49 0 .163-.021.306-.062.428h4.528V35.462c0-1.06.327-1.876.979-2.447.653-.612 1.448-.918 2.386-.918.939 0 1.714.306 2.326.918.652.57.978 1.387.978 2.447v10.524c2.489 0 4.508.286 6.058.857 1.55.57 2.692 1.611 3.426 3.12.735 1.51 1.081 3.712 1.041 6.608a314.24 314.24 0 0 1-.306 11.38c-.164 3.468-.388 6.527-.673 9.179-.286 3.018-.898 5.323-1.836 6.914-.938 1.632-2.244 2.753-3.916 3.365-1.632.612-3.671.918-6.119.918Zm-11.258-9.056c2.162-2.937 3.814-6.547 4.956-10.83 1.142-4.323 1.795-9.524 1.958-15.602h-4.038c-1.02 0-1.836-.326-2.448-.979a3.584 3.584 0 0 1-.917-2.447c0-.694.142-1.265.428-1.714H193.48v1.958h.367c2.814 0 4.956.245 6.424.735 1.51.489 2.55 1.407 3.121 2.753.571 1.305.857 3.202.857 5.69 0 2.448-.286 4.344-.857 5.69-.571 1.306-1.611 2.203-3.121 2.693-1.468.49-3.61.734-6.424.734h-.367v2.264h9.239c.775 0 1.366.265 1.774.795.408.49.612 1.06.612 1.713s-.204 1.245-.612 1.775c-.408.53-.999.795-1.774.795h-9.239v2.754c1.631-.163 3.181-.306 4.65-.429l3.855-.428c.775-.082 1.407.082 1.896.49.49.367.796.897.918 1.59Zm-17.744-15.847h.061v-2.57h-4.711c.122 1.183.49 1.918 1.101 2.203.612.245 1.795.367 3.549.367Zm6.425 0c1.754 0 2.937-.122 3.549-.367.611-.285.979-1.02 1.101-2.203h-4.65v2.57Zm-11.075-6.73h4.711v-2.509h-.061c-1.754 0-2.937.122-3.549.367-.611.245-.979.959-1.101 2.142Zm11.075 0h4.65c-.122-1.183-.49-1.897-1.101-2.142-.612-.245-1.795-.367-3.549-.367v2.509Zm172.867 31.082a52.013 52.013 0 0 1-8.933-5.751 45.659 45.659 0 0 1-7.526-7.587c-2.203-2.815-3.957-5.813-5.262-8.995-1.835 4.569-4.63 8.811-8.382 12.727-3.753 3.875-8.199 7.057-13.339 9.545-1.061.53-2.141.714-3.243.55-1.101-.162-1.958-.815-2.57-1.957-.571-1.06-.652-2.101-.244-3.12.448-1.061 1.244-1.836 2.386-2.326 3.793-1.59 7.179-3.691 10.157-6.302 3.018-2.651 5.486-5.63 7.403-8.933 1.917-3.304 3.141-6.751 3.671-10.34h-20.007a3.419 3.419 0 0 1-2.509-1.04 3.42 3.42 0 0 1-1.04-2.51 3.42 3.42 0 0 1 1.04-2.508 3.419 3.419 0 0 1 2.509-1.04h20.313V36.135c0-1.183.388-2.121 1.163-2.814.775-.694 1.672-1.04 2.692-1.04 1.061 0 1.958.346 2.692 1.04.775.693 1.163 1.631 1.163 2.814V48.19h20.436a3.42 3.42 0 0 1 2.509 1.04 3.42 3.42 0 0 1 1.04 2.509 3.42 3.42 0 0 1-1.04 2.508 3.42 3.42 0 0 1-2.509 1.04h-20.069c.612 3.508 1.897 6.914 3.855 10.218 1.958 3.304 4.446 6.303 7.464 8.995 3.06 2.651 6.486 4.813 10.28 6.486 1.101.49 1.794 1.244 2.08 2.264.326.978.224 1.978-.306 2.998-.571 1.1-1.428 1.754-2.57 1.957a4.89 4.89 0 0 1-3.304-.428Zm135.544 1.407a3.285 3.285 0 0 1-2.325-.917c-.653-.571-.979-1.367-.979-2.387v-8.688h-15.419c-.938 0-1.693-.285-2.264-.857-.53-.611-.795-1.346-.795-2.202 0-.857.265-1.57.795-2.142.571-.612 1.326-.918 2.264-.918h2.203a78.69 78.69 0 0 0 1.04-2.019c.449-.856.877-1.692 1.285-2.508l.918-1.836c.652-1.346 1.672-1.978 3.059-1.897-2.855-.204-4.936-1-6.241-2.386-1.265-1.428-1.897-3.65-1.897-6.67v-6.913c0-3.264.734-5.568 2.203-6.914 1.468-1.387 3.855-2.101 7.159-2.142.244-.652.51-1.387.795-2.203a89.73 89.73 0 0 1 .673-1.652c.326-1.02.877-1.733 1.652-2.141.816-.449 1.775-.55 2.876-.306.979.245 1.693.755 2.141 1.53.449.734.49 1.57.123 2.508-.123.286-.265.633-.428 1.04-.164.368-.347.755-.551 1.163h3.243c3.589 0 6.159.693 7.709 2.08 1.591 1.346 2.386 3.692 2.386 7.037v6.914c0 3.018-.652 5.241-1.958 6.669-1.305 1.387-3.406 2.182-6.302 2.386v8.26h8.199c.938 0 1.673.306 2.203.918.571.571.857 1.285.857 2.142 0 .856-.286 1.59-.857 2.202-.53.572-1.265.857-2.203.857h-8.199v8.688c0 1.02-.326 1.816-.979 2.387-.652.612-1.448.917-2.386.917Zm-25.759-1.53a3.333 3.333 0 0 1-2.264-.856c-.653-.53-.979-1.285-.979-2.264v-15.48c0-1.02-.184-1.733-.551-2.141-.367-.449-1.081-.673-2.141-.673h-1.958c-.286 4.12-.755 7.73-1.408 10.83-.652 3.1-1.488 5.853-2.508 8.26-.408.938-1.04 1.631-1.897 2.08-.816.49-1.734.55-2.753.184-.979-.367-1.591-.98-1.836-1.836-.245-.816-.163-1.672.245-2.57 1.509-3.345 2.549-7.2 3.12-11.564.612-4.405.918-9.667.918-15.786V35.462c0-.979.306-1.754.918-2.325a3.285 3.285 0 0 1 2.325-.918c.897 0 1.652.306 2.264.918.652.571.979 1.346.979 2.325v12.36h3.732V35.584c0-.979.306-1.754.918-2.325a3.285 3.285 0 0 1 2.325-.917c.897 0 1.652.306 2.264.917.612.572.918 1.346.918 2.325v12.238h.795c.938 0 1.673.306 2.203.917.571.572.856 1.285.856 2.142s-.285 1.59-.856 2.203c-.53.57-1.265.856-2.203.856h-10.952v1.897c0 .694-.021 1.387-.061 2.08v2.08h3.977c2.447 0 4.201.551 5.262 1.653 1.101 1.06 1.652 2.814 1.652 5.262v17.621c0 .98-.327 1.734-.979 2.264-.653.571-1.428.857-2.325.857Zm16.275-16.58h6.18v-8.2h-5.935a4.846 4.846 0 0 0-.795-.06c.326 0 .693.101 1.101.305.856.367 1.428.959 1.713 1.775.286.815.204 1.631-.245 2.447-.163.408-.448.959-.856 1.652a52.912 52.912 0 0 1-1.163 2.08Zm9.239-13.645h1.408c1.59 0 2.671-.245 3.242-.734.572-.49.857-1.428.857-2.815v-1.101h-5.507v4.65Zm-7.648 0h1.346v-4.65h-5.445v1.101c0 1.387.285 2.325.856 2.815.571.49 1.652.734 3.243.734Zm7.648-9.79h5.507v-.856c0-1.387-.285-2.325-.857-2.815-.571-.53-1.652-.795-3.242-.795h-1.408v4.466Zm-11.747 0h5.445v-4.466h-1.346c-1.591 0-2.672.265-3.243.795-.571.49-.856 1.428-.856 2.815v.856Z" fill="#1F1F1F"/></svg>