<svg width="545" height="125" viewBox="0 0 545 125" fill="none" xmlns="http://www.w3.org/2000/svg">
<circle cx="58.7814" cy="62.1818" r="55.6237" stroke="#1F1F1F" stroke-width="5.56237"/>
<circle cx="201.178" cy="62.1818" r="55.6237" stroke="#1F1F1F" stroke-width="5.56237"/>
<circle cx="343.575" cy="62.1818" r="55.6237" stroke="#1F1F1F" stroke-width="5.56237"/>
<circle cx="485.972" cy="62.1818" r="55.6237" stroke="#1F1F1F" stroke-width="5.56237"/>
<line x1="114.961" y1="59.9566" x2="142.773" y2="59.9566" stroke="#1F1F1F" stroke-width="5.56237"/>
<line x1="257.358" y1="59.9566" x2="285.17" y2="59.9566" stroke="#1F1F1F" stroke-width="5.56237"/>
<line x1="399.755" y1="59.9566" x2="427.566" y2="59.9566" stroke="#1F1F1F" stroke-width="5.56237"/>
<path d="M67.2973 80.6786C66.3999 80.6786 65.6249 80.3931 64.9723 79.822C64.3604 79.2102 64.0545 78.4148 64.0545 77.4358V75.6002H51.083C50.2672 75.6002 49.6146 75.3351 49.1251 74.8048C48.6764 74.2745 48.452 73.6626 48.452 72.9692C48.452 72.235 48.6764 71.6231 49.1251 71.1336C49.6146 70.6033 50.2672 70.3382 51.083 70.3382H64.0545V67.9519H60.5057C58.0582 67.9519 56.1207 67.6868 54.693 67.1565C53.2653 66.6262 52.2456 65.688 51.6337 64.342C51.0626 62.9959 50.7771 61.1195 50.7771 58.7128C50.7771 56.3062 51.0626 54.4298 51.6337 53.0837C52.2456 51.7376 53.2653 50.7994 54.693 50.2692C56.1207 49.7389 58.0582 49.4737 60.5057 49.4737H64.0545V47.0263H54.9378C53.9588 47.0263 53.2245 46.6184 52.7351 45.8026C52.2456 46.1697 51.5929 46.3532 50.7771 46.3532C49.8797 46.3532 49.1251 46.0677 48.5132 45.4966C47.9014 44.9256 47.5954 44.1505 47.5954 43.1716V40.9077C47.5954 38.3379 48.2073 36.5431 49.431 35.5233C50.6955 34.4627 52.8574 33.9325 55.9167 33.9325H77.8214C80.8807 33.9325 83.0222 34.4627 84.2459 35.5233C85.5104 36.5431 86.1427 38.3379 86.1427 40.9077V43.1716C86.1427 44.1505 85.8367 44.9256 85.2249 45.4966C84.613 46.0677 83.838 46.3532 82.8998 46.3532C82.2064 46.3532 81.5741 46.1697 81.003 45.8026C80.5951 46.6184 79.8813 47.0263 78.8615 47.0263H70.6014V49.4737H74.2114C76.6996 49.4737 78.6576 49.7389 80.0852 50.2692C81.5129 50.7994 82.5123 51.7376 83.0834 53.0837C83.6952 54.4298 84.0011 56.3062 84.0011 58.7128C84.0011 61.1195 83.6952 62.9959 83.0834 64.342C82.5123 65.688 81.5129 66.6262 80.0852 67.1565C78.6576 67.6868 76.6996 67.9519 74.2114 67.9519H70.6014V70.3382H84.7354C85.5512 70.3382 86.1835 70.6033 86.6321 71.1336C87.1216 71.6231 87.3664 72.235 87.3664 72.9692C87.3664 73.6626 87.1216 74.2745 86.6321 74.8048C86.1835 75.3351 85.5512 75.6002 84.7354 75.6002H70.6014V77.4358C70.6014 78.4148 70.2751 79.2102 69.6224 79.822C69.0106 80.3931 68.2355 80.6786 67.2973 80.6786ZM67.6645 87.4703C63.463 87.4703 59.8326 87.2867 56.7733 86.9196C53.714 86.5933 51.1034 86.0018 48.9415 85.1452C46.8204 84.3294 45.0256 83.2281 43.5571 81.8412C42.9861 82.2491 42.2926 82.7386 41.4768 83.3096C40.661 83.8807 39.886 84.411 39.1517 84.9005C38.4583 85.4308 37.928 85.8183 37.5609 86.063C36.7451 86.6341 35.8069 86.8176 34.7463 86.6137C33.7266 86.4505 32.9516 85.9202 32.4213 85.0229C31.9318 84.1662 31.8094 83.2689 32.0542 82.3307C32.2989 81.3517 32.87 80.6378 33.7674 80.1892C34.3792 79.8628 35.2562 79.4141 36.3984 78.8431C37.5405 78.2312 38.5807 77.6805 39.5189 77.191V63.8525C39.5189 62.8735 39.3557 62.2208 39.0294 61.8945C38.703 61.5274 38.0504 61.3438 37.0714 61.3438H34.5628C33.5838 61.3438 32.8088 61.0379 32.2377 60.426C31.6666 59.7734 31.3811 58.9984 31.3811 58.101C31.3811 57.2444 31.6666 56.5101 32.2377 55.8983C32.8088 55.2456 33.5838 54.9193 34.5628 54.9193H39.7636C44.0466 54.9193 46.1881 57.0608 46.1881 61.3438V76.518C47.5342 77.7417 49.0435 78.7003 50.7159 79.3937C52.4291 80.0872 54.6114 80.5767 57.2628 80.8622C59.955 81.1477 63.4222 81.2905 67.6645 81.2905C71.3764 81.2905 74.5785 81.2497 77.2707 81.1681C80.0037 81.0865 82.4307 80.9642 84.5518 80.801C85.6532 80.7194 86.5506 80.9846 87.244 81.5964C87.9782 82.2083 88.3454 82.9833 88.3454 83.9215C88.3454 84.9005 88.0394 85.7163 87.4276 86.3689C86.8565 87.0216 85.9387 87.3683 84.6742 87.4091C83.0426 87.4091 81.1458 87.4091 78.9839 87.4091C76.8628 87.4091 74.7824 87.4091 72.7429 87.4091C70.7034 87.4499 69.0106 87.4703 67.6645 87.4703ZM41.4156 45.619C40.9261 45.0887 40.2735 44.4565 39.4577 43.7222C38.6826 42.9472 37.8872 42.213 37.0714 41.5195C36.2964 40.7853 35.6233 40.1938 35.0523 39.7451C34.3588 39.1741 33.9917 38.4602 33.9509 37.6036C33.9101 36.747 34.1753 35.9924 34.7463 35.3397C35.3582 34.6463 36.0924 34.218 36.949 34.0548C37.8464 33.8917 38.6826 34.0956 39.4577 34.6667C40.0287 35.1154 40.7426 35.7273 41.5992 36.5023C42.4558 37.2365 43.3124 37.9707 44.169 38.705C45.0256 39.4392 45.6987 40.0511 46.1881 40.5406C46.8816 41.1932 47.2487 42.009 47.2895 42.988C47.3303 43.967 47.004 44.8032 46.3105 45.4966C45.6579 46.1901 44.842 46.5572 43.8631 46.598C42.8841 46.598 42.0683 46.2717 41.4156 45.619ZM54.02 42.1314C54.1831 42.0906 54.3259 42.0702 54.4483 42.0702C54.6114 42.0294 54.7746 42.009 54.9378 42.009H64.0545V39.0721H57.324C56.0595 39.0721 55.1825 39.2557 54.693 39.6228C54.2443 39.9491 54.02 40.6018 54.02 41.5807V42.1314ZM79.7181 42.1314V41.5807C79.7181 40.6018 79.4938 39.9491 79.0451 39.6228C78.5964 39.2557 77.7194 39.0721 76.4141 39.0721H70.5402C70.581 39.1945 70.6014 39.3576 70.6014 39.5616V42.009H78.8615C79.1063 42.009 79.3918 42.0498 79.7181 42.1314ZM70.6014 63.3018H72.9265C74.4765 63.3018 75.5779 63.159 76.2305 62.8735C76.8832 62.5472 77.2911 61.8333 77.4542 60.732H70.6014V63.3018ZM61.7906 63.3018H64.0545V60.732H57.324C57.4872 61.8333 57.8951 62.5472 58.5477 62.8735C59.2004 63.159 60.2813 63.3018 61.7906 63.3018ZM70.6014 56.5713H77.393C77.2299 55.5108 76.822 54.8377 76.1693 54.5522C75.5575 54.2259 74.4765 54.0627 72.9265 54.0627H70.6014V56.5713ZM57.324 56.5713H64.0545V54.0627H61.7906C60.2813 54.0627 59.2004 54.2259 58.5477 54.5522C57.8951 54.8377 57.4872 55.5108 57.324 56.5713Z" fill="#1F1F1F"/>
<path d="M216.057 88.3269C215.038 88.3269 214.161 88.0414 213.426 87.4703C212.692 86.8992 212.284 86.0834 212.203 85.0229C212.162 83.9623 212.427 83.0649 212.998 82.3307C213.61 81.5964 214.467 81.2089 215.568 81.1681C216.914 81.0865 217.954 80.9234 218.688 80.6786C219.423 80.3931 219.973 79.8832 220.34 79.149C220.708 78.4148 220.993 77.3134 221.197 75.8449C221.523 73.683 221.748 71.052 221.87 67.9519C222.033 64.811 222.135 61.2419 222.176 57.2444C222.217 55.4496 221.992 54.287 221.503 53.7568C221.013 53.1857 219.973 52.8798 218.382 52.839C218.179 60.9971 217.057 67.9111 215.017 73.5811C213.019 79.251 210.143 83.9011 206.39 87.5315C205.656 88.2249 204.779 88.6124 203.759 88.694C202.739 88.7756 201.842 88.4289 201.067 87.6539C200.496 87.042 200.21 86.2874 200.21 85.39C200.251 84.4926 200.598 83.7787 201.25 83.2485C201.373 83.1261 201.495 83.0037 201.618 82.8813C201.74 82.759 201.842 82.6366 201.923 82.5142C199.802 82.8405 197.294 83.2077 194.398 83.6156C191.501 83.9827 188.544 84.309 185.526 84.5945C182.507 84.9209 179.713 85.186 177.143 85.39C176.164 85.4308 175.348 85.2064 174.696 84.7169C174.043 84.2274 173.676 83.4932 173.594 82.5142C173.553 81.6984 173.778 80.9846 174.267 80.3727C174.798 79.7201 175.511 79.3733 176.409 79.3325C177.877 79.251 179.529 79.149 181.365 79.0266C183.241 78.9042 185.158 78.7615 187.116 78.5983V75.2943H176.837C176.062 75.2943 175.471 75.0291 175.063 74.4988C174.655 73.9686 174.451 73.3771 174.451 72.7244C174.451 72.0718 174.655 71.5007 175.063 71.0112C175.471 70.481 176.062 70.2158 176.837 70.2158H187.116V67.9519H186.688C183.914 67.9519 181.752 67.7072 180.202 67.2177C178.693 66.7282 177.653 65.8308 177.082 64.5255C176.511 63.1794 176.225 61.2826 176.225 58.8352C176.225 56.347 176.511 54.4502 177.082 53.1449C177.653 51.7988 178.693 50.881 180.202 50.3915C181.752 49.902 183.914 49.6573 186.688 49.6573H187.116V47.6993H175.736C174.961 47.6993 174.349 47.4342 173.9 46.9039C173.452 46.3736 173.227 45.7618 173.227 45.0683C173.227 44.3749 173.452 43.7834 173.9 43.2939C174.349 42.7637 174.961 42.4985 175.736 42.4985H187.116V40.2958C185.648 40.4182 184.2 40.5202 182.772 40.6017C181.385 40.6425 180.06 40.6833 178.795 40.7241C176.796 40.7649 175.695 39.8879 175.491 38.0931C175.45 37.3589 175.675 36.7266 176.164 36.1964C176.694 35.6253 177.429 35.3194 178.367 35.2786C180.692 35.197 183.139 35.0746 185.709 34.9114C188.32 34.7075 190.849 34.4627 193.296 34.1772C195.784 33.8509 197.987 33.4838 199.904 33.0759C200.883 32.8719 201.719 32.9331 202.413 33.2594C203.147 33.5857 203.596 34.1568 203.759 34.9726C204.167 36.9306 203.453 38.0931 201.618 38.4602C200.475 38.6642 199.211 38.8681 197.824 39.0721C196.437 39.2761 194.989 39.48 193.48 39.684V42.4985H204.799C205.615 42.4985 206.227 42.7637 206.635 43.2939C207.083 43.7834 207.308 44.3749 207.308 45.0683C207.308 45.2315 207.287 45.3947 207.247 45.5578C207.247 45.721 207.226 45.8638 207.185 45.9861H211.713V35.4621C211.713 34.4016 212.04 33.5857 212.692 33.0147C213.345 32.4028 214.14 32.0969 215.078 32.0969C216.017 32.0969 216.792 32.4028 217.404 33.0147C218.056 33.5857 218.382 34.4016 218.382 35.4621V45.9861C220.871 45.9861 222.89 46.2717 224.44 46.8427C225.99 47.4138 227.132 48.454 227.866 49.9632C228.601 51.4725 228.947 53.6752 228.907 56.5713C228.866 60.6504 228.764 64.4439 228.601 67.9519C228.437 71.4191 228.213 74.4784 227.928 77.1298C227.642 80.1484 227.03 82.453 226.092 84.0439C225.154 85.6755 223.848 86.7972 222.176 87.4091C220.544 88.021 218.505 88.3269 216.057 88.3269ZM204.799 79.2714C206.961 76.3344 208.613 72.7244 209.755 68.4414C210.897 64.1176 211.55 58.9168 211.713 52.839H207.675C206.655 52.839 205.839 52.5126 205.227 51.86C204.616 51.1665 204.31 50.3507 204.31 49.4125C204.31 48.7191 204.452 48.148 204.738 47.6993H193.48V49.6573H193.847C196.661 49.6573 198.803 49.902 200.271 50.3915C201.781 50.881 202.821 51.7988 203.392 53.1449C203.963 54.4502 204.249 56.347 204.249 58.8352C204.249 61.2826 203.963 63.1794 203.392 64.5255C202.821 65.8308 201.781 66.7282 200.271 67.2177C198.803 67.7072 196.661 67.9519 193.847 67.9519H193.48V70.2158H202.719C203.494 70.2158 204.085 70.481 204.493 71.0112C204.901 71.5007 205.105 72.0718 205.105 72.7244C205.105 73.3771 204.901 73.9686 204.493 74.4988C204.085 75.0291 203.494 75.2943 202.719 75.2943H193.48V78.0476C195.111 77.8845 196.661 77.7417 198.13 77.6193C199.598 77.4562 200.883 77.3134 201.985 77.191C202.76 77.1095 203.392 77.2726 203.881 77.6805C204.371 78.0476 204.677 78.5779 204.799 79.2714ZM187.055 63.4242H187.116V60.8543H182.405C182.527 62.0373 182.895 62.7715 183.506 63.057C184.118 63.3018 185.301 63.4242 187.055 63.4242ZM193.48 63.4242C195.234 63.4242 196.417 63.3018 197.029 63.057C197.64 62.7715 198.008 62.0373 198.13 60.8543H193.48V63.4242ZM182.405 56.6937H187.116V54.1851H187.055C185.301 54.1851 184.118 54.3074 183.506 54.5522C182.895 54.7969 182.527 55.5108 182.405 56.6937ZM193.48 56.6937H198.13C198.008 55.5108 197.64 54.7969 197.029 54.5522C196.417 54.3074 195.234 54.1851 193.48 54.1851V56.6937Z" fill="#1F1F1F"/>
<path d="M366.347 87.7762C363.206 86.1854 360.229 84.2682 357.414 82.0247C354.599 79.7812 352.091 77.2522 349.888 74.4377C347.685 71.6231 345.931 68.625 344.626 65.4433C342.791 70.0119 339.996 74.2541 336.244 78.17C332.491 82.0451 328.045 85.2268 322.905 87.715C321.844 88.2453 320.764 88.4289 319.662 88.2657C318.561 88.1026 317.704 87.4499 317.092 86.3078C316.521 85.2472 316.44 84.207 316.848 83.1873C317.296 82.1267 318.092 81.3517 319.234 80.8622C323.027 79.2714 326.413 77.1706 329.391 74.56C332.409 71.9086 334.877 68.9309 336.794 65.6269C338.711 62.3228 339.935 58.876 340.465 55.2864H320.458C319.479 55.2864 318.642 54.9397 317.949 54.2462C317.256 53.5528 316.909 52.7166 316.909 51.7376C316.909 50.7586 317.256 49.9224 317.949 49.229C318.642 48.5355 319.479 48.1888 320.458 48.1888H340.771V36.1352C340.771 34.9522 341.159 34.014 341.934 33.3206C342.709 32.6272 343.606 32.2804 344.626 32.2804C345.687 32.2804 346.584 32.6272 347.318 33.3206C348.093 34.014 348.481 34.9522 348.481 36.1352V48.1888H368.917C369.896 48.1888 370.732 48.5355 371.426 49.229C372.119 49.9224 372.466 50.7586 372.466 51.7376C372.466 52.7166 372.119 53.5528 371.426 54.2462C370.732 54.9397 369.896 55.2864 368.917 55.2864H348.848C349.46 58.7944 350.745 62.2004 352.703 65.5045C354.661 68.8085 357.149 71.8067 360.167 74.4988C363.227 77.1502 366.653 79.3122 370.447 80.9846C371.548 81.4741 372.241 82.2287 372.527 83.2485C372.853 84.2274 372.751 85.2268 372.221 86.2466C371.65 87.3479 370.793 88.0006 369.651 88.2045C368.509 88.4493 367.408 88.3065 366.347 87.7762Z" fill="#1F1F1F"/>
<path d="M501.891 89.1835C500.994 89.1835 500.219 88.8776 499.566 88.2657C498.913 87.6946 498.587 86.8992 498.587 85.8795V77.191H483.168C482.23 77.191 481.475 76.9055 480.904 76.3344C480.374 75.7226 480.109 74.9883 480.109 74.1317C480.109 73.2751 480.374 72.5613 480.904 71.9902C481.475 71.3784 482.23 71.0724 483.168 71.0724H485.371C485.656 70.5421 486.003 69.8691 486.411 69.0533C486.86 68.1967 487.288 67.3605 487.696 66.5447C488.104 65.7288 488.41 65.117 488.614 64.7091C489.266 63.363 490.286 62.7307 491.673 62.8123C488.818 62.6083 486.737 61.8129 485.432 60.426C484.167 58.9984 483.535 56.7753 483.535 53.7568V46.8427C483.535 43.5795 484.269 41.2748 485.738 39.9287C487.206 38.5418 489.593 37.828 492.897 37.7872C493.141 37.1345 493.407 36.4003 493.692 35.5845C494.018 34.7687 494.243 34.218 494.365 33.9325C494.691 32.9127 495.242 32.1989 496.017 31.791C496.833 31.3423 497.792 31.2403 498.893 31.485C499.872 31.7298 500.586 32.2396 501.034 33.0147C501.483 33.7489 501.524 34.5851 501.157 35.5233C501.034 35.8088 500.892 36.1556 500.729 36.5635C500.565 36.9306 500.382 37.3181 500.178 37.726H503.421C507.01 37.726 509.58 38.4194 511.13 39.8063C512.721 41.1524 513.516 43.4979 513.516 46.8427V53.7568C513.516 56.7753 512.864 58.9984 511.558 60.426C510.253 61.8129 508.152 62.6083 505.256 62.8123V71.0724H513.455C514.393 71.0724 515.128 71.3784 515.658 71.9902C516.229 72.5613 516.515 73.2751 516.515 74.1317C516.515 74.9883 516.229 75.7226 515.658 76.3344C515.128 76.9055 514.393 77.191 513.455 77.191H505.256V85.8795C505.256 86.8992 504.93 87.6946 504.277 88.2657C503.625 88.8776 502.829 89.1835 501.891 89.1835ZM476.132 87.6539C475.275 87.6539 474.52 87.3683 473.868 86.7972C473.215 86.267 472.889 85.5123 472.889 84.5334V69.0533C472.889 68.0335 472.705 67.3197 472.338 66.9118C471.971 66.4631 471.257 66.2387 470.197 66.2387H468.239C467.953 70.3586 467.484 73.9686 466.831 77.0687C466.179 80.1688 465.343 82.9221 464.323 85.3288C463.915 86.267 463.283 86.9604 462.426 87.4091C461.61 87.8986 460.692 87.9598 459.673 87.5927C458.694 87.2256 458.082 86.6137 457.837 85.7571C457.592 84.9413 457.674 84.0847 458.082 83.1873C459.591 79.8424 460.631 75.9877 461.202 71.6231C461.814 67.2177 462.12 61.9557 462.12 55.8371V35.4621C462.12 34.4831 462.426 33.7081 463.038 33.137C463.691 32.5252 464.466 32.2193 465.363 32.2193C466.26 32.2193 467.015 32.5252 467.627 33.137C468.279 33.7081 468.606 34.4831 468.606 35.4621V47.8217H472.338V35.5845C472.338 34.6055 472.644 33.8305 473.256 33.2594C473.909 32.6476 474.684 32.3416 475.581 32.3416C476.478 32.3416 477.233 32.6476 477.845 33.2594C478.457 33.8305 478.763 34.6055 478.763 35.5845V47.8217H479.558C480.496 47.8217 481.231 48.1276 481.761 48.7395C482.332 49.3106 482.617 50.0244 482.617 50.881C482.617 51.7376 482.332 52.4719 481.761 53.0837C481.231 53.6548 480.496 53.9403 479.558 53.9403H468.606V55.8371C468.606 56.5305 468.585 57.224 468.545 57.9174C468.545 58.6109 468.545 59.3043 468.545 59.9977H472.522C474.969 59.9977 476.723 60.5484 477.784 61.6498C478.885 62.7103 479.436 64.4643 479.436 66.9118V84.5334C479.436 85.5123 479.109 86.267 478.457 86.7972C477.804 87.3683 477.029 87.6539 476.132 87.6539ZM492.407 71.0724H498.587V62.8735H493.509C493.223 62.8735 492.937 62.8735 492.652 62.8735C492.407 62.8327 492.142 62.8123 491.857 62.8123C492.183 62.8123 492.55 62.9143 492.958 63.1182C493.814 63.4853 494.386 64.0768 494.671 64.8926C494.957 65.7084 494.875 66.5243 494.426 67.3401C494.263 67.748 493.978 68.2987 493.57 68.9921C493.203 69.6855 492.815 70.379 492.407 71.0724ZM501.646 57.4279H503.054C504.644 57.4279 505.725 57.1832 506.296 56.6937C506.868 56.2042 507.153 55.266 507.153 53.8791V52.7778H501.646V57.4279ZM493.998 57.4279H495.344V52.7778H489.899V53.8791C489.899 55.266 490.184 56.2042 490.755 56.6937C491.326 57.1832 492.407 57.4279 493.998 57.4279ZM501.646 47.6381H507.153V46.7815C507.153 45.3947 506.868 44.4565 506.296 43.967C505.725 43.4367 504.644 43.1716 503.054 43.1716H501.646V47.6381ZM489.899 47.6381H495.344V43.1716H493.998C492.407 43.1716 491.326 43.4367 490.755 43.967C490.184 44.4565 489.899 45.3947 489.899 46.7815V47.6381Z" fill="#1F1F1F"/>
</svg>
