<svg width="70" height="614" viewBox="0 0 70 614" fill="none" xmlns="http://www.w3.org/2000/svg">
<circle cx="34.9924" cy="34.6023" r="32.8178" stroke="#1F1F1F" stroke-width="3.28178"/>
<path d="M27.8567 49.8493C25.6425 49.8493 24.0782 49.4281 23.1637 48.5858C22.2492 47.7435 21.7919 46.3115 21.7919 44.29C21.7919 43.2792 21.9243 42.3767 22.189 41.5825C21.9243 41.6788 21.6475 41.775 21.3587 41.8713C21.094 41.9676 20.8293 42.0638 20.5645 42.1601C19.9869 42.3526 19.4455 42.3526 18.9401 42.1601C18.4587 41.9676 18.1218 41.6066 17.9293 41.0771C17.7127 40.4995 17.7367 39.97 18.0015 39.4887C18.2662 38.9833 18.6994 38.6464 19.3011 38.4779C20.9376 37.9966 22.4778 37.3829 23.9218 36.6369C25.3658 35.8667 26.6654 35.0003 27.8206 34.0377H20.3479C19.8907 34.0377 19.4816 33.8692 19.1206 33.5323C18.7836 33.1713 18.6152 32.7622 18.6152 32.3049C18.6152 31.8236 18.7836 31.4144 19.1206 31.0775C19.4816 30.7406 19.8907 30.5721 20.3479 30.5721H31.0334C31.7313 29.6095 32.2969 28.5746 32.7301 27.4676C32.9708 26.89 33.3318 26.4808 33.8131 26.2402C34.2944 25.9995 34.8239 25.9754 35.4015 26.168C35.955 26.3364 36.3401 26.6734 36.5567 27.1788C36.7733 27.6841 36.7853 28.1895 36.5928 28.6949C36.4724 29.0078 36.328 29.3207 36.1596 29.6335C36.0152 29.9464 35.8587 30.2593 35.6903 30.5721H50.1662C50.6475 30.5721 51.0567 30.7406 51.3936 31.0775C51.7305 31.4144 51.899 31.8236 51.899 32.3049C51.899 32.7622 51.7305 33.1713 51.3936 33.5323C51.0567 33.8692 50.6475 34.0377 50.1662 34.0377H42.6214C43.921 35.1207 45.3168 36.0111 46.8089 36.7091C48.3011 37.407 49.8293 37.9966 51.3936 38.4779C51.9471 38.6464 52.3442 38.9954 52.5849 39.5248C52.8496 40.0302 52.8857 40.5476 52.6932 41.0771C52.4766 41.6788 52.0675 42.0879 51.4658 42.3045C50.8882 42.497 50.3106 42.485 49.733 42.2684C49.5164 42.1721 49.2878 42.0879 49.0471 42.0157C48.8305 41.9194 48.6139 41.8232 48.3973 41.7269C48.6139 42.4489 48.7222 43.3032 48.7222 44.29C48.7222 46.3115 48.265 47.7435 47.3504 48.5858C46.4359 49.4281 44.8716 49.8493 42.6575 49.8493C40.4193 49.8493 38.843 49.4281 37.9284 48.5858C37.038 47.7435 36.5928 46.3115 36.5928 44.29C36.5928 42.2684 37.038 40.8364 37.9284 39.9941C38.843 39.1518 40.4193 38.7306 42.6575 38.7306H42.8019C41.8392 38.1049 40.9247 37.3949 40.0583 36.6008C39.1919 35.8066 38.4098 34.9522 37.7118 34.0377H33.2716C32.5015 34.9281 31.6471 35.7705 30.7085 36.5647C29.794 37.3348 28.8073 38.0568 27.7484 38.7306H27.8567C30.0948 38.7306 31.6591 39.1518 32.5496 39.9941C33.4641 40.8364 33.9214 42.2684 33.9214 44.29C33.9214 46.3115 33.4641 47.7435 32.5496 48.5858C31.6591 49.4281 30.0948 49.8493 27.8567 49.8493ZM27.6401 28.6227C25.3778 28.6227 23.7894 28.2136 22.8749 27.3954C21.9845 26.5771 21.5392 25.1692 21.5392 23.1717C21.5392 21.1742 21.9845 19.7663 22.8749 18.948C23.7894 18.1057 25.3778 17.6846 27.6401 17.6846C29.9264 17.6846 31.5147 18.1057 32.4052 18.948C33.2957 19.7663 33.7409 21.1742 33.7409 23.1717C33.7409 25.1692 33.2957 26.5771 32.4052 27.3954C31.5147 28.2136 29.9264 28.6227 27.6401 28.6227ZM42.8741 28.6227C40.6118 28.6227 39.0235 28.2136 38.1089 27.3954C37.2185 26.5771 36.7733 25.1692 36.7733 23.1717C36.7733 21.1742 37.2185 19.7663 38.1089 18.948C39.0235 18.1057 40.6118 17.6846 42.8741 17.6846C45.1363 17.6846 46.7127 18.1057 47.6031 18.948C48.5177 19.7663 48.9749 21.1742 48.9749 23.1717C48.9749 25.1692 48.5177 26.5771 47.6031 27.3954C46.7127 28.2136 45.1363 28.6227 42.8741 28.6227ZM27.8567 46.492C28.6268 46.492 29.1442 46.3476 29.4089 46.0588C29.6977 45.77 29.8421 45.1804 29.8421 44.29C29.8421 43.3995 29.6977 42.8219 29.4089 42.5572C29.1442 42.2684 28.6268 42.124 27.8567 42.124C27.1106 42.124 26.5932 42.2684 26.3044 42.5572C26.0156 42.8219 25.8712 43.3995 25.8712 44.29C25.8712 45.1804 26.0156 45.77 26.3044 46.0588C26.5932 46.3476 27.1106 46.492 27.8567 46.492ZM42.6575 46.492C43.4036 46.492 43.921 46.3476 44.2098 46.0588C44.4986 45.77 44.643 45.1804 44.643 44.29C44.643 43.3995 44.4986 42.8219 44.2098 42.5572C43.921 42.2684 43.4036 42.124 42.6575 42.124C41.9114 42.124 41.394 42.2684 41.1052 42.5572C40.8164 42.8219 40.672 43.3995 40.672 44.29C40.672 45.1804 40.8164 45.77 41.1052 46.0588C41.394 46.3476 41.9114 46.492 42.6575 46.492ZM27.6401 25.2655C28.4102 25.2655 28.9276 25.1211 29.1923 24.8323C29.4811 24.5435 29.6255 23.99 29.6255 23.1717C29.6255 22.3294 29.4811 21.7758 29.1923 21.5111C28.9276 21.2223 28.4102 21.0779 27.6401 21.0779C26.894 21.0779 26.3766 21.2223 26.0878 21.5111C25.799 21.7758 25.6546 22.3294 25.6546 23.1717C25.6546 23.99 25.799 24.5435 26.0878 24.8323C26.3766 25.1211 26.894 25.2655 27.6401 25.2655ZM42.8741 25.2655C43.6442 25.2655 44.1616 25.1211 44.4264 24.8323C44.7152 24.5435 44.8596 23.99 44.8596 23.1717C44.8596 22.3294 44.7152 21.7758 44.4264 21.5111C44.1616 21.2223 43.6442 21.0779 42.8741 21.0779C42.128 21.0779 41.6106 21.2223 41.3218 21.5111C41.033 21.7758 40.8886 22.3294 40.8886 23.1717C40.8886 23.99 41.033 24.5435 41.3218 24.8323C41.6106 25.1211 42.128 25.2655 42.8741 25.2655Z" fill="#1F1F1F"/>
<g clip-path="url(#clip0_88_63693)">
<path d="M16.4615 525.917C7.82981 514.45 7.82981 498.445 16.4615 486.978C23.8976 477.088 23.8976 463.256 16.4615 453.366C7.82981 441.899 7.82981 425.893 16.4615 414.427C23.8976 404.536 23.8976 390.705 16.4615 380.815C7.82981 369.348 7.82981 353.342 16.4615 341.875C23.8976 331.985 23.8976 318.153 16.4615 308.263C7.82981 296.797 7.82981 280.791 16.4615 269.324C23.8976 259.434 23.8976 245.602 16.4615 235.712C7.82981 224.245 7.82981 208.24 16.4615 196.773C23.8976 186.883 23.8976 173.051 16.4615 163.161C7.82981 151.694 7.82981 135.688 16.4615 124.222C23.8976 114.332 23.8976 100.5 16.4615 90.6097L20.0002 87.958C28.6319 99.4248 28.6319 115.43 20.0002 126.897C12.5641 136.787 12.5641 150.619 20.0002 160.509C28.6319 171.976 28.6319 187.982 20.0002 199.448C12.5641 209.339 12.5641 223.17 20.0002 233.06C28.6319 244.527 28.6319 260.533 20.0002 272C12.5641 281.89 12.5641 295.722 20.0002 305.612C28.6319 317.078 28.6319 333.084 20.0002 344.551C12.5641 354.441 12.5641 368.273 20.0002 378.163C28.6319 389.63 28.6319 405.635 20.0002 417.102C12.5641 426.992 12.5641 440.824 20.0002 450.714C28.6319 462.181 28.6319 478.187 20.0002 489.653C12.5641 499.543 12.5641 513.375 20.0002 523.265L16.4615 525.917Z" fill="#1F1F1F"/>
<path d="M33.223 525.917C24.5913 514.45 24.5913 498.445 33.223 486.978C40.6592 477.088 40.6592 463.256 33.223 453.366C24.5913 441.899 24.5913 425.893 33.223 414.427C40.6592 404.536 40.6592 390.705 33.223 380.815C24.5913 369.348 24.5913 353.342 33.223 341.875C40.6592 331.985 40.6592 318.153 33.223 308.263C24.5913 296.797 24.5913 280.791 33.223 269.324C40.6592 259.434 40.6592 245.602 33.223 235.712C24.5913 224.245 24.5913 208.24 33.223 196.773C40.6592 186.883 40.6592 173.051 33.223 163.161C24.5913 151.694 24.5913 135.688 33.223 124.222C40.6592 114.332 40.6592 100.5 33.223 90.6097L36.7618 87.958C45.3935 99.4248 45.3935 115.43 36.7618 126.897C29.3256 136.787 29.3256 150.619 36.7618 160.509C45.3935 171.976 45.3935 187.982 36.7618 199.448C29.3256 209.339 29.3256 223.17 36.7618 233.06C45.3935 244.527 45.3935 260.533 36.7618 272C29.3256 281.89 29.3256 295.722 36.7618 305.612C45.3935 317.078 45.3935 333.084 36.7618 344.551C29.3256 354.441 29.3256 368.273 36.7618 378.163C45.3935 389.63 45.3935 405.635 36.7618 417.102C29.3256 426.992 29.3256 440.824 36.7618 450.714C45.3935 462.181 45.3935 478.187 36.7618 489.653C29.3256 499.543 29.3256 513.375 36.7618 523.265L33.223 525.917Z" fill="#1F1F1F"/>
<path d="M51.2248 522.904L50.3523 523.558C43.1454 512.805 43.4668 498.408 51.3164 487.981L51.3169 487.98C59.1993 477.496 59.1993 462.847 51.3169 452.364L51.3164 452.363C43.1317 441.49 43.1317 426.302 51.3164 415.429L51.3169 415.429C59.1993 404.945 59.1993 390.296 51.3169 379.813L51.3164 379.812C43.1317 368.939 43.1317 353.751 51.3164 342.878L51.3169 342.877C59.1993 332.394 59.1993 317.745 51.3169 307.261L51.3164 307.261C43.1317 296.388 43.1317 281.2 51.3164 270.327L51.3169 270.326C59.1993 259.843 59.1993 245.194 51.3169 234.71L51.3164 234.709C43.1317 223.836 43.1317 208.649 51.3164 197.776L51.3169 197.775C59.1993 187.291 59.1993 172.642 51.3169 162.159L51.3164 162.158C43.1317 151.285 43.1317 136.097 51.3164 125.224L51.3169 125.224C58.8632 115.187 59.185 101.333 52.2825 90.9711L53.155 90.3173C60.3619 101.07 60.0405 115.467 52.1909 125.894L52.1903 125.895C44.3079 136.379 44.3079 151.028 52.1903 161.511L52.1909 161.512C60.3756 172.385 60.3756 187.573 52.1909 198.446L52.1903 198.446C44.3079 208.93 44.3079 223.579 52.1903 234.062L52.1909 234.063C60.3756 244.936 60.3756 260.124 52.1909 270.997L52.1903 270.998C44.3079 281.481 44.3079 296.13 52.1903 306.614L52.1909 306.614C60.3756 317.487 60.3756 332.675 52.1909 343.548L52.1903 343.549C44.3079 354.033 44.3079 368.681 52.1903 379.165L52.1909 379.166C60.3756 390.039 60.3756 405.226 52.1909 416.099L52.1903 416.1C44.3079 426.584 44.3079 441.233 52.1903 451.716L52.1909 451.717C60.3756 462.59 60.3756 477.778 52.1909 488.651L52.1903 488.651C44.6441 498.688 44.3223 512.542 51.2248 522.904Z" fill="#1F1F1F" stroke="#1F1F1F" stroke-width="3.33471"/>
</g>
<circle cx="34.9924" cy="579.272" r="32.8178" stroke="#1F1F1F" stroke-width="3.28178"/>
<path d="M41.4662 594.989C40.7442 594.989 40.1546 594.796 39.6973 594.411C39.2641 594.026 39.0114 593.508 38.9392 592.859C38.867 592.233 39.0355 591.691 39.4446 591.234C39.8778 590.753 40.4314 590.464 41.1052 590.368C41.9475 590.272 42.489 590.127 42.7297 589.935C42.9704 589.718 43.0907 589.273 43.0907 588.599V578.202C41.9836 579.911 40.7562 581.608 39.4085 583.292C38.0849 584.977 36.7492 586.433 35.4015 587.66C34.9442 588.093 34.3907 588.322 33.7409 588.346C33.1152 588.346 32.5857 588.118 32.1525 587.66C31.7193 587.179 31.5268 586.65 31.5749 586.072C31.623 585.494 31.8637 585.025 32.2969 584.664C33.0911 583.99 33.9334 583.184 34.8239 582.245C35.7143 581.307 36.5928 580.296 37.4592 579.213C38.3255 578.13 39.1438 577.047 39.9139 575.964C40.684 574.857 41.3579 573.834 41.9355 572.896H37.1704C36.6409 572.896 36.1957 572.715 35.8347 572.354C35.4737 571.993 35.2932 571.548 35.2932 571.018C35.2932 570.489 35.4737 570.044 35.8347 569.683C36.1957 569.322 36.6409 569.141 37.1704 569.141H43.0907V563.871C43.0907 563.245 43.2953 562.74 43.7044 562.354C44.1135 561.969 44.6069 561.777 45.1845 561.777C45.7861 561.777 46.2915 561.969 46.7006 562.354C47.1098 562.74 47.3143 563.245 47.3143 563.871V569.141H50.3467C50.8762 569.141 51.3214 569.322 51.6824 569.683C52.0675 570.044 52.26 570.489 52.26 571.018C52.26 571.548 52.0675 571.993 51.6824 572.354C51.3214 572.715 50.8762 572.896 50.3467 572.896H47.3143V589.61C47.3143 593.196 45.365 594.989 41.4662 594.989ZM27.3874 595.205C26.8098 595.205 26.3164 595.013 25.9073 594.628C25.4982 594.267 25.2936 593.773 25.2936 593.147V581.415C24.7882 582.306 24.2708 583.172 23.7413 584.014C23.2359 584.833 22.7666 585.53 22.3334 586.108C21.9724 586.589 21.4791 586.878 20.8533 586.974C20.2517 587.047 19.7102 586.902 19.2289 586.541C18.7716 586.18 18.5309 585.735 18.5069 585.206C18.4828 584.652 18.6392 584.147 18.9762 583.689C19.4334 583.112 19.9508 582.39 20.5284 581.523C21.1301 580.633 21.7318 579.694 22.3334 578.708C22.9351 577.697 23.4886 576.71 23.994 575.747C24.5235 574.785 24.9567 573.942 25.2936 573.22V572.896H20.6728C20.1674 572.896 19.7222 572.715 19.3372 572.354C18.9762 571.993 18.7957 571.548 18.7957 571.018C18.7957 570.513 18.9762 570.08 19.3372 569.719C19.7222 569.334 20.1674 569.141 20.6728 569.141H25.2936V563.835C25.2936 563.209 25.4982 562.703 25.9073 562.318C26.3164 561.933 26.8098 561.741 27.3874 561.741C27.965 561.741 28.4583 561.933 28.8674 562.318C29.2766 562.703 29.4811 563.209 29.4811 563.835V569.141H32.7662C33.2716 569.141 33.7048 569.334 34.0658 569.719C34.4509 570.08 34.6434 570.513 34.6434 571.018C34.6434 571.548 34.4509 571.993 34.0658 572.354C33.7048 572.715 33.2716 572.896 32.7662 572.896H29.4811V574.087C29.8421 574.496 30.3235 575.037 30.9251 575.711C31.5508 576.385 32.1886 577.059 32.8384 577.733C33.4882 578.383 34.0177 578.912 34.4268 579.321C34.8359 579.706 35.0284 580.164 35.0044 580.693C34.9803 581.223 34.7878 581.692 34.4268 582.101C34.0417 582.51 33.5724 582.715 33.0189 582.715C32.4654 582.691 31.984 582.486 31.5749 582.101C31.3102 581.812 30.9853 581.451 30.6002 581.018C30.2392 580.561 29.8662 580.103 29.4811 579.646V593.147C29.4811 593.773 29.2766 594.267 28.8674 594.628C28.4583 595.013 27.965 595.205 27.3874 595.205Z" fill="#1F1F1F"/>
<defs>
<clipPath id="clip0_88_63693">
<rect width="50.0207" height="437.959" fill="white" transform="translate(9.98206 87.958)"/>
</clipPath>
</defs>
</svg>
