<svg width="70" height="614" viewBox="0 0 70 614" fill="none" xmlns="http://www.w3.org/2000/svg">
<circle cx="34.896" cy="34.6023" r="32.8178" stroke="#1F1F1F" stroke-width="3.28178"/>
<path d="M25.5582 49.2356C24.0902 49.2356 22.935 49.0671 22.0926 48.7302C21.2503 48.3933 20.6607 47.8277 20.3238 47.0335C19.9868 46.2153 19.8184 45.1082 19.8184 43.7124V31.3302C19.8184 29.429 20.1553 28.0812 20.8292 27.2871C21.503 26.4688 22.7304 26.0115 24.5113 25.9153V22.2331H20.1072C19.5536 22.2331 19.1084 22.0526 18.7715 21.6916C18.4586 21.3306 18.3022 20.9095 18.3022 20.4281C18.3022 19.9227 18.4586 19.4895 18.7715 19.1285C19.1084 18.7675 19.5536 18.5871 20.1072 18.5871H34.4026C34.9561 18.5871 35.4014 18.7675 35.7383 19.1285C36.0752 19.4895 36.2437 19.9227 36.2437 20.4281C36.2437 20.9095 36.0752 21.3306 35.7383 21.6916C35.4014 22.0526 34.9561 22.2331 34.4026 22.2331H30.3595V25.8792C32.2126 25.9754 33.4761 26.4327 34.1499 27.251C34.8478 28.0451 35.1968 29.4049 35.1968 31.3302V43.7124C35.1968 45.1082 35.0163 46.2153 34.6553 47.0335C34.3184 47.8277 33.7287 48.3933 32.8864 48.7302C32.0682 49.0671 30.925 49.2356 29.457 49.2356H25.5582ZM44.4383 49.3078C42.5852 49.3078 41.1171 49.1393 40.0341 48.8024C38.9752 48.4655 38.2171 47.8759 37.7599 47.0335C37.3026 46.1912 37.074 44.9999 37.074 43.4597V35.0846C37.074 33.3999 37.2545 32.1244 37.6155 31.258C37.9765 30.3916 38.6022 29.802 39.4927 29.4891C40.3831 29.1522 41.5985 28.9837 43.1387 28.9837C44.4142 28.9837 45.2566 28.8273 45.6657 28.5144C46.0989 28.2016 46.3155 27.5518 46.3155 26.5651V24.724C46.3155 23.7373 46.1109 23.0875 45.7018 22.7746C45.3167 22.4377 44.5225 22.2692 43.3192 22.2692H38.3736C37.8441 22.2692 37.3989 22.0887 37.0379 21.7277C36.6769 21.3667 36.4964 20.9335 36.4964 20.4281C36.4964 19.8987 36.6769 19.4655 37.0379 19.1285C37.3989 18.7675 37.8441 18.5871 38.3736 18.5871H43.3192C45.1723 18.5871 46.6163 18.7675 47.6512 19.1285C48.686 19.4655 49.408 20.0792 49.8171 20.9696C50.2503 21.836 50.4669 23.0875 50.4669 24.724V26.5651C50.4669 28.2256 50.2624 29.5012 49.8532 30.3916C49.4682 31.258 48.7943 31.8597 47.8317 32.1966C46.869 32.5095 45.5333 32.6659 43.8246 32.6659C42.5972 32.6659 41.8151 32.8344 41.4781 33.1713C41.1412 33.5082 40.9727 34.146 40.9727 35.0846V43.0265C40.9727 43.9891 41.1893 44.6269 41.6225 44.9398C42.0557 45.2526 42.9702 45.4091 44.3661 45.4091C45.2566 45.4091 45.9424 45.3369 46.4238 45.1925C46.9051 45.0481 47.2661 44.7954 47.5068 44.4344C47.7474 44.0734 47.94 43.5559 48.0844 42.8821C48.2047 42.3045 48.5055 41.8713 48.9868 41.5825C49.4922 41.2696 50.0698 41.2095 50.7196 41.402C51.3694 41.5705 51.8026 41.8713 52.0192 42.3045C52.2599 42.7136 52.32 43.219 52.1997 43.8207C51.9831 45.1203 51.5981 46.1792 51.0445 46.9974C50.491 47.7916 49.6848 48.3692 48.6259 48.7302C47.591 49.1153 46.1951 49.3078 44.4383 49.3078ZM23.1395 39.9941H31.8756V37.7198H31.2258C30.0466 37.7198 29.2043 37.5273 28.6989 37.1422C28.2175 36.7331 27.9769 36.0111 27.9769 34.9763V29.453H26.8578C26.8578 30.8248 26.7976 31.992 26.6773 32.9547C26.581 33.9173 26.4246 34.7476 26.208 35.4456C25.9914 36.1435 25.7026 36.8053 25.3416 37.431C25.1731 37.7439 24.9084 37.9725 24.5474 38.1169C24.1864 38.2613 23.8375 38.2613 23.5005 38.1169C23.3321 38.0207 23.2117 37.9244 23.1395 37.8281V39.9941ZM25.5943 45.6618H29.4209C30.1188 45.6618 30.6362 45.6136 30.9731 45.5174C31.3341 45.4211 31.5748 45.2165 31.6951 44.9037C31.8155 44.5667 31.8756 44.0613 31.8756 43.3875V43.1709H23.1395V43.3875C23.1395 44.0613 23.1877 44.5667 23.2839 44.9037C23.4043 45.2165 23.6449 45.4211 24.0059 45.5174C24.3669 45.6136 24.8964 45.6618 25.5943 45.6618ZM31.3702 34.3987H31.8756V31.619C31.8756 30.8007 31.7794 30.2593 31.5868 29.9945C31.3943 29.7057 30.9852 29.5373 30.3595 29.4891V33.4962C30.3595 33.8572 30.4317 34.0978 30.5761 34.2182C30.7204 34.3385 30.9852 34.3987 31.3702 34.3987ZM23.1395 36.1315C23.4765 35.5298 23.7412 34.9522 23.9337 34.3987C24.1263 33.8211 24.2707 33.1472 24.3669 32.3771C24.4632 31.607 24.5113 30.6443 24.5113 29.4891C23.9578 29.5613 23.5848 29.7418 23.3922 30.0306C23.2238 30.3194 23.1395 30.8489 23.1395 31.619V36.1315ZM26.8578 25.8792H27.9769V22.2331H26.8578V25.8792Z" fill="#1F1F1F"/>
<g clip-path="url(#clip0_88_63704)">
<path d="M16.3651 525.917C7.73344 514.45 7.73344 498.445 16.3651 486.978C23.8013 477.088 23.8013 463.256 16.3651 453.366C7.73344 441.899 7.73344 425.893 16.3651 414.427C23.8013 404.536 23.8013 390.705 16.3651 380.815C7.73344 369.348 7.73344 353.342 16.3651 341.875C23.8013 331.985 23.8013 318.153 16.3651 308.263C7.73344 296.797 7.73344 280.791 16.3651 269.324C23.8013 259.434 23.8013 245.602 16.3651 235.712C7.73344 224.245 7.73344 208.24 16.3651 196.773C23.8013 186.883 23.8013 173.051 16.3651 163.161C7.73344 151.694 7.73344 135.688 16.3651 124.222C23.8013 114.332 23.8013 100.5 16.3651 90.6097L19.9039 87.958C28.5355 99.4248 28.5355 115.43 19.9039 126.897C12.4677 136.787 12.4677 150.619 19.9039 160.509C28.5355 171.976 28.5355 187.982 19.9039 199.448C12.4677 209.339 12.4677 223.17 19.9039 233.06C28.5355 244.527 28.5355 260.533 19.9039 272C12.4677 281.89 12.4677 295.722 19.9039 305.612C28.5355 317.078 28.5355 333.084 19.9039 344.551C12.4677 354.441 12.4677 368.273 19.9039 378.163C28.5355 389.63 28.5355 405.635 19.9039 417.102C12.4677 426.992 12.4677 440.824 19.9039 450.714C28.5355 462.181 28.5355 478.187 19.9039 489.653C12.4677 499.543 12.4677 513.375 19.9039 523.265L16.3651 525.917Z" fill="#1F1F1F"/>
<path d="M33.1266 525.917C24.4949 514.45 24.4949 498.445 33.1266 486.978C40.5627 477.088 40.5627 463.256 33.1266 453.366C24.4949 441.899 24.4949 425.893 33.1266 414.427C40.5627 404.536 40.5627 390.705 33.1266 380.815C24.4949 369.348 24.4949 353.342 33.1266 341.875C40.5627 331.985 40.5627 318.153 33.1266 308.263C24.4949 296.797 24.4949 280.791 33.1266 269.324C40.5627 259.434 40.5627 245.602 33.1266 235.712C24.4949 224.245 24.4949 208.24 33.1266 196.773C40.5627 186.883 40.5627 173.051 33.1266 163.161C24.4949 151.694 24.4949 135.688 33.1266 124.222C40.5627 114.332 40.5627 100.5 33.1266 90.6097L36.6653 87.958C45.297 99.4248 45.297 115.43 36.6653 126.897C29.2292 136.787 29.2292 150.619 36.6653 160.509C45.297 171.976 45.297 187.982 36.6653 199.448C29.2292 209.339 29.2292 223.17 36.6653 233.06C45.297 244.527 45.297 260.533 36.6653 272C29.2292 281.89 29.2292 295.722 36.6653 305.612C45.297 317.078 45.297 333.084 36.6653 344.551C29.2292 354.441 29.2292 368.273 36.6653 378.163C45.297 389.63 45.297 405.635 36.6653 417.102C29.2292 426.992 29.2292 440.824 36.6653 450.714C45.297 462.181 45.297 478.187 36.6653 489.653C29.2292 499.543 29.2292 513.375 36.6653 523.265L33.1266 525.917Z" fill="#1F1F1F"/>
<path d="M51.1284 522.904L50.2559 523.558C43.049 512.805 43.3704 498.408 51.22 487.981L51.2206 487.98C59.103 477.496 59.103 462.847 51.2206 452.364L51.22 452.363C43.0353 441.49 43.0353 426.302 51.22 415.429L51.2206 415.429C59.103 404.945 59.103 390.296 51.2206 379.813L51.22 379.812C43.0353 368.939 43.0353 353.751 51.22 342.878L51.2206 342.877C59.103 332.394 59.103 317.745 51.2206 307.261L51.22 307.261C43.0353 296.388 43.0353 281.2 51.22 270.327L51.2206 270.326C59.103 259.843 59.103 245.194 51.2206 234.71L51.22 234.709C43.0353 223.836 43.0353 208.649 51.22 197.776L51.2206 197.775C59.103 187.291 59.103 172.642 51.2206 162.159L51.22 162.158C43.0353 151.285 43.0353 136.097 51.22 125.224L51.2206 125.224C58.7668 115.187 59.0886 101.333 52.1861 90.9711L53.0586 90.3173C60.2655 101.07 59.9441 115.467 52.0945 125.894L52.094 125.895C44.2116 136.379 44.2116 151.028 52.094 161.511L52.0945 161.512C60.2792 172.385 60.2792 187.573 52.0945 198.446L52.094 198.446C44.2116 208.93 44.2116 223.579 52.094 234.062L52.0945 234.063C60.2792 244.936 60.2792 260.124 52.0945 270.997L52.094 270.998C44.2116 281.481 44.2116 296.13 52.094 306.614L52.0945 306.614C60.2792 317.487 60.2792 332.675 52.0945 343.548L52.094 343.549C44.2116 354.033 44.2116 368.681 52.094 379.165L52.0945 379.166C60.2792 390.039 60.2792 405.226 52.0945 416.099L52.094 416.1C44.2116 426.584 44.2116 441.233 52.094 451.716L52.0945 451.717C60.2792 462.59 60.2792 477.778 52.0945 488.651L52.094 488.651C44.5477 498.688 44.2259 512.542 51.1284 522.904Z" fill="#1F1F1F" stroke="#1F1F1F" stroke-width="3.33471"/>
</g>
<circle cx="34.896" cy="579.272" r="32.8178" stroke="#1F1F1F" stroke-width="3.28178"/>
<path d="M40.8283 595.133C40.2267 595.133 39.6972 594.928 39.24 594.519C38.8068 594.11 38.5902 593.569 38.5902 592.895V582.967H30.3595C29.7819 582.967 29.2885 582.775 28.8794 582.39C28.4943 581.981 28.3018 581.487 28.3018 580.91C28.3018 580.332 28.4943 579.851 28.8794 579.466C29.2885 579.057 29.7819 578.852 30.3595 578.852H38.5902V572.787H33.9694C33.7287 573.413 33.464 574.027 33.1752 574.628C32.8864 575.206 32.6097 575.735 32.3449 576.217C32.0561 576.746 31.6229 577.143 31.0453 577.408C30.4678 577.649 29.8781 577.625 29.2765 577.336C28.747 577.071 28.386 576.674 28.1935 576.145C28.025 575.591 28.0731 575.062 28.3379 574.556C28.7951 573.714 29.2644 572.727 29.7458 571.596C30.2512 570.465 30.7205 569.322 31.1536 568.167C31.5868 566.987 31.9238 565.964 32.1644 565.098C32.3329 564.472 32.6819 564.027 33.2113 563.762C33.7408 563.474 34.2823 563.413 34.8358 563.582C35.4615 563.774 35.9068 564.111 36.1715 564.593C36.4362 565.074 36.4723 565.628 36.2798 566.253C36.1595 566.638 36.0271 567.047 35.8827 567.481C35.7624 567.914 35.63 568.335 35.4856 568.744H38.5902V563.943C38.5902 563.269 38.8068 562.728 39.24 562.318C39.6972 561.909 40.2267 561.705 40.8283 561.705C41.4541 561.705 41.9715 561.909 42.3806 562.318C42.8138 562.728 43.0304 563.269 43.0304 563.943V568.744H48.9868C49.5404 568.744 50.0097 568.949 50.3947 569.358C50.8039 569.743 51.0084 570.212 51.0084 570.766C51.0084 571.319 50.8039 571.801 50.3947 572.21C50.0097 572.595 49.5404 572.787 48.9868 572.787H43.0304V578.852H50.3225C50.8761 578.852 51.3574 579.057 51.7665 579.466C52.1756 579.851 52.3802 580.332 52.3802 580.91C52.3802 581.487 52.1756 581.981 51.7665 582.39C51.3574 582.775 50.8761 582.967 50.3225 582.967H43.0304V592.895C43.0304 593.569 42.8138 594.11 42.3806 594.519C41.9715 594.928 41.4541 595.133 40.8283 595.133ZM25.2333 595.241C24.6557 595.241 24.1624 595.049 23.7532 594.664C23.3682 594.279 23.1756 593.785 23.1756 593.184V577.444C22.9109 577.853 22.6462 578.262 22.3814 578.672C22.1167 579.057 21.852 579.442 21.5873 579.827C21.2503 580.284 20.7931 580.561 20.2155 580.657C19.6379 580.753 19.1084 580.645 18.6271 580.332C18.1698 580.043 17.8931 579.622 17.7968 579.069C17.7005 578.491 17.8088 577.974 18.1217 577.516C18.7955 576.578 19.4935 575.495 20.2155 574.267C20.9615 573.016 21.6835 571.716 22.3814 570.369C23.0794 569.021 23.7171 567.721 24.2947 566.47C24.8723 565.194 25.3296 564.063 25.6665 563.076C25.9072 562.427 26.2802 561.993 26.7856 561.777C27.291 561.536 27.8325 561.512 28.4101 561.705C28.9636 561.897 29.3487 562.234 29.5653 562.715C29.8059 563.197 29.818 563.738 29.6014 564.34C29.3126 565.182 28.9636 566.073 28.5545 567.011C28.1694 567.95 27.7482 568.901 27.291 569.863V593.184C27.291 593.785 27.0864 594.279 26.6773 594.664C26.2682 595.049 25.7868 595.241 25.2333 595.241Z" fill="#1F1F1F"/>
<defs>
<clipPath id="clip0_88_63704">
<rect width="50.0207" height="437.959" fill="white" transform="translate(9.88568 87.958)"/>
</clipPath>
</defs>
</svg>
