<?xml version="1.0" encoding="utf-8"?>
<!-- Generator: Adobe Illustrator 24.3.0, SVG Export Plug-In . SVG Version: 6.00 Build 0)  -->
<svg version="1.1" id="群組_17" xmlns="http://www.w3.org/2000/svg" xmlns:xlink="http://www.w3.org/1999/xlink" x="0px" y="0px"
	 viewBox="0 0 600 180" style="enable-background:new 0 0 600 180;" xml:space="preserve">
<style type="text/css">
	.st0{fill-rule:evenodd;clip-rule:evenodd;fill:#1E1E1E;}
	.st1{fill-rule:evenodd;clip-rule:evenodd;}
	.st2{fill:#FEFCF7;}
	.st3{fill-rule:evenodd;clip-rule:evenodd;fill:#FFFFFF;}
	.st4{fill:#0C0103;}
	.st5{fill:#EB5F5B;}
	.st6{fill:#F7C6D0;}
	.st7{fill:#F4AEB3;}
	.st8{fill:#FEEBC8;}
	.st9{fill:#DA9300;}
	.st10{fill:#FFFFFF;}
	.st11{fill:#EA5753;}
	.st12{fill:#F6BBAA;}
	.st13{fill:#F7CB83;}
	.st14{fill:#C39E53;}
	.st15{fill:#CCB687;}
	.st16{fill:#D5B779;}
	.st17{fill:#1C1D1D;}
</style>
<path id="形狀_512_拷貝_5" class="st0" d="M382.6,92c-0.8-3.3-8.8-6.5-8.8-6.5c2.3,0.3,4.6,0.2,6.9-0.4c1-0.2,1.9-0.6,2.9-1
	c-0.8-0.9-1.4-1.9-2-2.9c-1.9-3.6-2.8-7.5-2.6-11.6c0.3-4.6,2.4-8.8,5.8-11.8c2.3-2.1,5-3.7,7.9-4.8c-1.2-3.5-1.4-7.2-0.5-10.8
	c0.8-3.8,3-7.1,6.2-9.4c2-1.4,4.2-2.4,6.5-3c0.8-0.2,1.6-0.3,2.5-0.4c1.6-0.2,3.3-0.1,4.9,0.1c4.7-3.5-3.2-13-3.2-13
	s10.3,8.1,13.8,7.3c0,0,0,0,0,0c4.4-1.2,8.1-6.9,13.3-18.6c0,0-3.3,11.1-2.4,14.7c0.7,2.9,5,3.4,8.4,2.6l0.1,0c0,0-3.3,2.9-4.2,5.3
	c-0.2,0.6-0.2,1.3,0.1,1.9c1.7,0.5,3.4,1.2,4.9,2.1c5.7,3.4,9,9.6,8.8,16.3c2.2,0.6,4.3,1.5,6.3,2.6c2,1.1,3.7,2.5,5.3,4.2
	c2.7,2.9,4.2,6.6,4.4,10.6c0.1,1.7-0.1,3.3-0.5,5c1.3,1.7,4.4,4,11.5,4.7c-1,0.1-2,0.3-3,0.5c-2,0.5-4.3,1.4-5,3.1
	c-1,2.4,2.3,5.9,11.8,9.9c0,0-14.5-4.9-19.6-3.7c-0.5,0.1-0.9,0.3-1.3,0.6c-2.3,2.3-1.3,6.3,4.3,18.5c0,0-6.5-7.9-8.8-7.5
	c0,0-0.1,0-0.1,0c-1.5,0.4-3,4.1-4.3,9.9c0,0,0.2-9.2-1.7-10.4c-0.4-0.2-0.8-0.4-1.3-0.5c-1.2,1.3-2.5,2.4-4,3.3
	c-1.5,0.9-3.1,1.5-4.8,2c-0.9,0.2-1.8,0.4-2.7,0.5c-2.2,0.2-4.5,0.1-6.7-0.4c-2-0.4-4-1-5.8-1.8c-2.5,2.5-5.6,4.2-9,5
	c-0.6,0.1-1.2,0.3-1.8,0.4c-3.4,0.5-6.8,0.2-10-0.8c-2.1-0.7-4.1-1.8-5.8-3.3c-0.5-0.1-1.1,0-1.6,0.1c-0.5,0.1-1,0.4-1.4,0.7
	c-2.5,2-3.8,11.4-3.8,11.4c-0.6-8.9-1.2-11.9-3.9-13.3c-0.5-0.2-1-0.2-1.5-0.1c-4.4,1.1-13.9,10-13.9,10
	C380.6,99.9,383.3,94.6,382.6,92z M451.5,95.3c0.7,0.4,1.4,1.3,1.9,4.4c1.2-3.1,2.3-3.8,3.2-4c0.1,0,0.1,0,0.2,0
	c0.9-0.1,1.9,0.2,3.2,1.2c0.6,0.5,1.3,1,1.8,1.5c-1-2.2-1.8-4.5-2.3-6.8c-0.3-1.3-0.4-2.6-0.3-3.9c0.2-1.1,0.7-2,1.4-2.8
	c0.5-0.5,1.2-0.8,1.8-1c1.9-0.3,3.8-0.3,5.7,0c1.3,0.2,2.8,0.5,4.5,0.8c-1.3-0.9-2.4-2.2-3.1-3.7c-0.4-0.9-0.4-1.9,0-2.8
	c0.7-1.4,2-2.4,3.4-3c-0.6-0.2-1.3-0.4-1.9-0.7c-1.5-0.6-2.9-1.5-4.1-2.6c-0.1-0.1-0.1-0.1-0.2-0.2c-0.3,1-0.7,1.9-1.2,2.8
	c-1.3,2.2-3,4.2-5.1,5.7c-1.9,1.4-4.1,2.6-6.4,3.4c0.1,4-1.2,7.9-3.7,11.1C450.8,94.9,451.2,95.1,451.5,95.3z M415,30.2
	c2.2,0.7,4.4,1.7,6.3,2.9c2.1-1.7,4.6-2.9,7.3-3.5c0.2,0,0.4-0.1,0.6-0.1c2.5-0.5,5-0.6,7.5-0.1c-0.1-0.7-0.1-1.3,0.2-2
	c0.5-1.2,1.3-2.3,2.2-3.3c-0.8,0-1.6-0.1-2.4-0.3c-1.9-0.3-3.5-1.7-4.1-3.6c-0.3-1.7-0.2-3.4,0.1-5.1c-0.7,1.4-1.6,2.7-2.4,4
	c-2.3,3.3-4.5,5.1-7,5.8c0,0,0,0-0.1,0c-1.5,0.2-3.1-0.1-4.4-0.8c-1.6-0.8-3.2-1.6-4.7-2.6c-0.2-0.1-0.4-0.2-0.6-0.4
	c1.4,2.8,1.8,5.2,1.2,7c-0.2,0.6-0.5,1.1-0.9,1.6h0.1l-0.1,0.1C414.1,30,414.6,30.1,415,30.2L415,30.2z M388.8,98.4
	c1.8,0.9,3,2.6,3.4,4.6c0.2,0.7,0.3,1.4,0.4,2.1c0.8-2.4,1.6-3.9,2.6-4.7c0.5-0.4,1.2-0.7,1.8-0.9c0.2-0.1,0.4-0.1,0.7-0.1
	c-1.3-1.4-2.3-3-3.1-4.7c-0.7-1.6-1.3-3.4-1.5-5.1c-3.3-0.5-6.3-2.1-8.7-4.5c-1.1,0.6-2.2,1-3.4,1.3c-0.7,0.2-1.4,0.3-2.1,0.4
	c1,0.6,1.9,1.2,2.8,2c1,0.8,1.7,1.8,2.1,3c0.2,1,0.2,2.1-0.2,3.1c-0.4,1.4-1,2.7-1.7,3.9c-0.5,1-1.2,2-1.9,3.2
	c1.9-1.6,4.1-2.8,6.4-3.6C387.2,98,388.1,98.1,388.8,98.4L388.8,98.4z M373.3,42.9c-0.4-0.2-0.6-0.7-0.4-1.2c0,0,0,0,0,0l0-0.1
	c0.2-0.4,0.7-0.6,1.2-0.3c0,0,0,0,0,0l8.1,5.6L373.3,42.9z M378.3,36.8L378.3,36.8c0.3-0.3,0.9-0.3,1.2,0c0,0,0,0,0,0.1l7.1,8.8
	l-8.3-7.6C378,37.7,378,37.2,378.3,36.8C378.3,36.8,378.3,36.8,378.3,36.8z M371.4,49.3c-0.4-0.1-0.7-0.6-0.5-1.1c0,0,0,0,0,0l0-0.1
	c0.2-0.4,0.7-0.7,1.1-0.5c0,0,0,0,0,0l13.3,3.4L371.4,49.3z M471.4,37.7c0.4-0.2,1,0,1.2,0.4c0,0,0,0,0,0l0,0c0.2,0.4,0,0.9-0.4,1.1
	c0,0,0,0,0,0l-12.6,4.2L471.4,37.7z M470.4,33.6L456,42.4l13.4-10.2c0.4-0.3,0.9-0.3,1.2,0.1c0,0,0,0,0,0l0,0
	C470.9,32.7,470.8,33.3,470.4,33.6C470.4,33.6,470.4,33.6,470.4,33.6L470.4,33.6z M461.8,33.2l-4.7,4l3-4.8c0.3-0.4,0.9-0.4,1.2-0.1
	c0,0,0,0,0,0c0.3-0.1,0.5,0.1,0.6,0.4C462,32.9,462,33.1,461.8,33.2L461.8,33.2z M424.1,105.6l1.8,13.1c0,0.5-0.4,0.9-0.8,0.9
	c-0.4,0.1-0.8-0.1-0.9-0.5c0,0,0-0.1,0-0.1L424.1,105.6z M430,112.9c-0.5,0.1-0.9-0.2-1.1-0.6c0,0,0,0,0-0.1l-2.5-6.9l4.1,6.4
	C430.8,112.2,430.5,112.7,430,112.9C430,112.9,430,112.9,430,112.9L430,112.9z M420.6,104.8l-3.5,8.6c-0.1,0.5-0.6,0.8-1,0.7
	c0,0,0,0,0,0c-0.5-0.1-0.7-0.6-0.6-1c0,0,0,0,0-0.1L420.6,104.8z"/>
<g>
	<path id="居家儀式感_來個_野餐__3_" class="st1" d="M51.8,64.3c0.1-1,0.2-2,0.2-2.9h10.7l-0.2,2.9H51.8z M73,54l-0.1,1.9
		H52.4l0.1-1.9H73L73,54z M70.7,80.8H58l0.2-2.9h12.7L70.7,80.8z M80.3,69.8l0.4-5.5H68.8l0.2-2.9h9.8l0.9-12.8H46.6l-0.9,12.7
		c-0.5,6.8-1.5,16.5-6.5,23c1.9,0.8,3.7,1.9,5.4,3.3C48.1,82.8,50,76,51,69.8h11.1l-0.2,2.7h-9.3l-1,14.9h6l0.1-1.1h12.7l-0.1,1.1
		h6.2l1-14.9h-9.3l0.2-2.7H80.3z M96.5,55.4h25.4l-0.3,4.7h6.4l0.7-10.3h-14.9c-0.4-1.3-0.9-2.5-1.5-3.7l-6.8,1.9
		c0.2,0.6,0.4,1.2,0.6,1.9H90.8L90,60h6.1L96.5,55.4z M104.4,81.6c-0.9,0-2.1-0.1-3.4-0.2c2.3-1.1,4.5-2.3,6.6-3.6
		c-0.1,1-0.5,1.9-1.1,2.7C106.2,81.3,105.3,81.7,104.4,81.6L104.4,81.6z M120.2,62.1c-2.5,2.2-5.1,4.3-7.9,6.2
		c-0.8-1.7-1.8-3.2-3.1-4.5c0.9-0.5,1.7-1.1,2.4-1.8h8.9l0.4-5.2H97.1L96.8,62h5.9c-4.2,1.9-8.6,3.2-13.1,3.9c1.1,1.5,2,3.1,2.8,4.9
		c4.1-1,8.1-2.4,11.9-4.2c0.2,0.2,0.4,0.5,0.6,0.8c-3.9,2.4-11,4.9-16.3,5.9c1.1,1.5,2,3.1,2.7,4.8c5.5-1.7,10.8-3.9,15.8-6.7
		c0.1,0.3,0.2,0.6,0.3,0.9c-4.5,3.5-12.9,6.9-19.8,8.4c1.2,1.6,2.1,3.3,2.9,5.1c3.5-1.1,6.9-2.4,10.2-4c0.8,1.8,1.3,3.7,1.2,5.6
		c1.2,0.1,2.4,0.1,3.4,0.1c2.1,0.1,4.2-0.7,5.7-2.3c2.3-1.9,3.6-6.6,2.9-11.6l0.9-0.5c1.6,5.7,4.4,10.1,9.2,12.5
		c1.2-1.9,2.7-3.6,4.4-5.1c-4.5-1.9-7.3-5.9-8.5-10.6c1.8-1.2,3.6-2.4,5.2-3.6L120.2,62.1z M148.7,54.4h10.1l-0.1,1.1H150l-0.3,3.8
		h8.8l-0.1,1.1h-11.3l-0.3,4.2h29l0.3-4.2h-11.7l0.1-1.1h9.2l0.3-3.8h-9.2l0.1-1.1h10.5l0.3-3.9h-4.9c0.6-0.7,1.3-1.6,2-2.4l-6-1.6
		c-0.6,1.4-1.3,2.7-2.1,4h-4.9c-0.6-1.4-1.4-2.7-2.4-3.9l-5.1,1.7c0.4,0.7,0.9,1.5,1.3,2.3h-4.4c0.3-0.7,0.6-1.3,0.9-2l-5.4-1.8
		c-2.3,5.6-5.7,10.7-9.9,15c1,2,1.9,4.1,2.6,6.2c0.6-0.6,1.2-1.2,1.8-1.9l-1.5,21.4h5.8l2.1-30.4c1.1-1.9,2.2-3.8,3.2-5.8
		L148.7,54.4z M169.8,75.1c-0.6,0.7-1.2,1.4-1.9,2c-0.1-0.6-0.2-1.3-0.3-2H169.8L169.8,75.1z M167.3,70.9c0-1.1,0-2.2,0-3.3
		c1.2,1,2.4,2.1,3.5,3.3H167.3z M170,75.1h5.5l0.3-4.1h-4l3.3-2.3c-1.3-1.4-2.8-2.7-4.4-3.8l-3.4,2.3c0-0.6,0-1.2,0.1-1.8h-5.4
		c-0.1,1.9-0.1,3.8,0,5.6h-4.9l0.1-1.9c1.4-0.2,2.7-0.5,4.1-0.8l-2.7-3.5c-4,0.9-8.2,1.5-12.3,1.7c0.4,1.1,0.7,2.3,0.9,3.6
		c1.4-0.1,3-0.1,4.5-0.3l-0.1,1.3H146l-0.3,4.1h5.8l-0.1,1.5c-2.2,0.2-4.4,0.3-6.1,0.4l0,4.4l5.8-0.5l-0.1,1.4
		c0,0.5-0.2,0.6-0.7,0.6c-0.5,0-2.2,0-3.4,0c0.6,1.4,1,2.9,1.2,4.4c2.6,0,4.6,0,6.1-0.7c1.6-0.7,2.1-1.8,2.3-4.1l0.1-2l4.2-0.4
		l0.2-4.2l-4.1,0.3l0.1-1.1h5.4c0.2,1.8,0.5,3.5,1,5.2c-1.9,1.1-3.9,2-6,2.7c1.1,1.2,2.1,2.5,3,3.9c1.6-0.7,3.2-1.5,4.8-2.4
		c1,1.8,2.8,3,4.9,3c3,0,4.5-1,5.5-5.2c-1.4-0.5-2.6-1.3-3.7-2.3c-0.3,1.8-0.6,2.5-1.1,2.5c-0.5-0.1-1-0.4-1.2-0.9
		c1.9-1.5,3.6-3.1,5.1-4.9L170,75.1z M197.1,69.7h6.3l0.4-6h-18.4l-0.4,6h5.8l-0.6,9.1c-2.9,0.4-5.6,0.8-7.7,1.1l1.2,6.3
		c5.7-1.1,13.3-2.6,20.3-4l0-5.5c-2.5,0.4-5,0.8-7.5,1.2L197.1,69.7z M222.9,59.6l0.4-6.1h-3.7l3.2-2.6c-1.5-1.7-3.2-3.2-5.1-4.5
		l-4.4,3.4c1.4,1.1,2.7,2.3,3.9,3.7h-5.5c0.1-2.2,0.3-4.5,0.5-6.7h-6.7c-0.2,2.2-0.3,4.5-0.4,6.7h-20.7l-0.4,6.1h21
		c-0.1,14.9,2.1,27.8,9.7,27.8c4.5,0,6.7-1.9,8.2-10.5c-2-0.8-3.7-2.1-5.2-3.6c-0.6,5.2-1.2,7.6-2,7.6c-2.5,0-4.1-9.6-4.1-21.2
		H222.9L222.9,59.6z M251.1,75.4c0.4,1.3,0.9,2.9,1.3,4.4c-1-0.3-2-0.8-2.9-1.3l1.7-0.9c-0.4-1.2-1.3-3.1-2.1-4.9h4.6l0-0.3
		c0.4,0.5,0.9,1,1.3,1.5L251.1,75.4z M246.6,82.7c-0.6,0-0.7-0.1-0.6-1.3l0.3-4.6c0.4,0.9,0.7,1.8,1,2.8l2-1
		c-0.3,3.5-0.5,4.1-1.2,4.1H246.6L246.6,82.7z M245.3,66.5h4.1l-0.2,2.2h-4.1L245.3,66.5z M264.4,57.2c-0.7,1.4-1.5,2.8-2.4,4.1
		c0-1.8,0-3.6,0-5.5h8.5l0.4-5.1h-3l2-1.4c-1.1-1.2-2.4-2.4-3.6-3.4l-3.8,2.4c0.7,0.7,1.5,1.6,2.3,2.4h-2.5c0.1-1.4,0.2-2.8,0.3-4.1
		h-5.8c-0.1,1.3-0.1,2.7-0.2,4.1h-22.2l-0.5,7.9c-0.5,7.1-1.6,18.1-5.7,25.6c1.7,0.9,3.3,2,4.7,3.3c4.6-8.2,6.2-21.2,6.7-28.9
		l0.2-2.8h16.7c-0.1,3.9,0.1,7.8,0.3,11.6c-0.8,0.7-1.7,1.4-2.5,2l0.5-6.7h-13.8L240,72.8h5.3l-0.6,0.3l0.4,0.9h-3.4l-0.1,1.7
		l-3.6-1.1c-0.5,3.3-1.5,6.5-2.9,9.6l3.8,2c1.2-2.4,2-5,2.5-7.6l-0.2,3.1c-0.3,3.9,0.5,5.3,4.4,5.3h2.9c2.6,0,3.9-1.1,4.7-4.8
		c0.3,1.3,0.6,2.5,0.8,3.5l4.4-1.9c-0.5-2.4-1.8-6.2-2.8-9.3l0.2,0.3c0.5-0.3,1-0.7,1.5-1c1,7.8,2.9,13.4,6.2,13.4
		c3.9,0,5.7-1.9,7-10.1c-1.7-0.8-3.1-2-4.4-3.4c-0.4,5.2-1,7.7-1.4,7.7c-0.8,0-1.7-5.2-2.3-12.3c2.9-3.1,5.4-6.5,7.3-10.3
		L264.4,57.2z M255.3,57.1h-14.7l-0.3,4h14.7L255.3,57.1z M320.2,57.7c-1,3.6-2.9,6.9-5.6,9.4l-0.1-0.1l0.7-9.3H320.2L320.2,57.7z
		 M330.8,68.1c-1.4-1.4-4.1-3.4-6.3-5.1c0.7-1.4,1.2-2.9,1.7-4.4l-5-0.9h9.8l0.4-6.1h-15.8l0.4-5h-6.6l-0.4,5h-15.2l-0.4,6.1h6.6
		c-1.5,5-4.4,9.4-8.3,12c1.6,1.2,3.2,2.6,4.5,4.1c1.9-1.6,3.6-3.4,5-5.4c0.8,0.7,1.5,1.5,2.1,2.4l4.4-4.4c-0.8-0.9-2.2-2.1-3.5-3.3
		c0.7-1.4,1.2-2.9,1.7-4.4l-5.1-1h7.6l-0.7,9.6c-4.7,6-10.9,10.6-18.1,13.3c1.6,1.6,2.9,3.5,4,5.4c5-2.3,9.6-5.5,13.4-9.5l-0.8,10.9
		h6.6l0.8-11.3c3.3,4.1,7.4,7.4,12.2,9.7c1.4-2.1,3.1-4.1,5-5.8c-6.1-2.2-11.4-6.2-15.4-11.3c1.1,0.7,2.2,1.4,3.3,2.2
		c0.9-0.9,1.8-1.9,2.6-2.9c1.8,1.6,3.6,3.2,4.6,4.3L330.8,68.1z M347.4,46.7c-2.2,5.8-5.4,11.2-9.6,15.8c1,2.2,1.8,4.5,2.4,6.9
		c0.8-0.8,1.6-1.7,2.3-2.6L341,87.4h5.9l2.2-30.9c1.4-2.6,2.7-5.3,3.8-8.1L347.4,46.7z M365.5,73.7h-2.7l0.2-3.3h2.8L365.5,73.7z
		 M371.6,63.1l0.3-4.4h-4.4l0.3-4.1H363l-0.3,4.1h-4l-0.3,4.4h4l-0.2,3.2h-3.3l-0.8,11.6h11.8l0.8-11.6H367l0.2-3.2H371.6
		L371.6,63.1z M356.5,79.5l1.8-25.6h14.6l-1.8,25.6H356.5L356.5,79.5z M353,48.5l-2.7,38.8h5.7l0.2-2.5h14.6l-0.2,2.1h5.9l2.7-38.4
		L353,48.5L353,48.5z M477.1,60.2h2.1l-0.2,2.4h-2.1L477.1,60.2z M477.5,53.4h2.1l-0.2,2.3h-2.1L477.5,53.4z M486.6,55.7h-2l0.2-2.3
		h2L486.6,55.7z M486.1,62.6h-2l0.2-2.4h2L486.1,62.6z M483.6,75.8h6.8l0.4-5.6H484l0.2-2.8h6.8l1.3-19h-19.4l-1.3,19h6.7l-0.2,2.8
		h-6.5l-0.4,5.6h6.5l-0.3,3.8c-3,0.3-5.7,0.5-8,0.6l0.3,6.1c5.8-0.7,13.6-1.6,20.9-2.5l0.3-5.5c-2.4,0.2-4.9,0.5-7.4,0.7L483.6,75.8
		z M507.6,62.5l-0.9,0.2h-0.1l1.4-1.5c-1-0.8-2.1-1.5-3.2-2.1c2.7-2.4,5-5.2,7.1-8.2l-3.8-2.8l-1.4,0.3h-13l-0.4,5.5h9
		c-0.6,0.9-1.3,1.7-2.1,2.5c-1-0.6-2.1-1-3.1-1.5l-4.1,3.9c2.4,1.1,4.6,2.3,6.8,3.8h-7.6l-0.4,5.9h5L496,80.7c0,0.5-0.3,0.6-0.9,0.6
		c-1.5,0-2.9,0-4.4-0.1c0.7,2,1.2,4,1.3,6.1c3.1,0,5.5-0.1,7.4-1c1.9-0.9,2.6-2.7,2.7-5.5l0.9-12.3h1.7c-0.4,2-0.9,3.8-1.3,5.2
		l4.9,1c1.3-3.7,2.5-7.5,3.3-11.4L507.6,62.5z M531.1,55.8c-1.1,1-2.2,1.9-3.4,2.8c-0.8-0.7-1.6-1.3-2.5-1.8c0.3-0.3,0.6-0.6,1-0.9
		H531.1z M534.9,52.4l-0.9,0.2h-2.1l0.1-1h6.7l0.3-3.6h-6.7l0.1-1.5h-5.2l-0.4,5.7l-2.5-0.5c-1.8,2.1-4,3.8-6.4,5
		c1.2,0.9,2.1,2,2.9,3.2c0.4-0.3,0.9-0.5,1.3-0.8c0.6,0.5,1.3,1,1.9,1.6c-1.7,0.8-3.6,1.5-5.4,2c1.1,1.1,2,2.4,2.7,3.7
		c6.8-2.2,13.5-6.1,17-12.2L534.9,52.4z M528.1,69.6c1.5-0.6,3-1.4,4.4-2.1l-0.1,1.6H543l0.1-1.5c1.4,0.7,2.8,1.4,4.3,2L528.1,69.6
		L528.1,69.6z M548.6,79.4c-0.5,0.4-1,0.8-1.5,1.2c-1.1-0.4-2.3-0.8-3.5-1.2H548.6z M530.6,81.6l0.2-2.2h6.7l-1.6,1.7l0.4,0.1
		L530.6,81.6z M531.1,75.5h13l-0.1,0.8h-13L531.1,75.5z M531.3,72.7h13l-0.1,0.7h-13L531.3,72.7z M534.6,66.2c1-0.6,2-1.3,3-2
		c0.9,0.7,2,1.3,3,2H534.6z M549.8,52c-0.7,0.8-1.4,1.5-2.3,2.2c-1.6-0.8-3.2-1.6-4.7-2.2H549.8z M557.3,60.2
		c-1.6-1.3-3.3-2.5-5.2-3.6c2.2-2.2,3.9-4.7,5.1-7.6l-3.3-1.4l-1,0.2h-12.8l-0.3,4.1h2.8l-3.6,3.3c1.2,0.6,2.4,1.2,3.7,1.9
		c-0.9,0.4-1.8,0.7-2.7,1c0.3,0.3,0.6,0.7,0.9,1.1l-2.7-1.4c-4.7,4.9-13.2,8.5-20.9,10.4c1.2,1.3,2.1,2.8,2.9,4.4
		c1.8-0.6,3.5-1.2,5.3-1.8l-0.7,9.7c0.1,1.2-0.6,2.2-1.6,2.8c0.8,1.3,1.3,2.7,1.5,4.2c1.2-0.5,3-0.9,13.4-1.9c0-1.2,0.1-2.4,0.3-3.6
		c4.7,1.5,9.3,3.4,13.6,5.8l3.2-3.5c-1.2-0.7-2.5-1.3-3.8-1.9c1.3-0.9,2.7-1.9,4-2.8l-4.1-2.7c-0.5,0.5-1,1-1.6,1.5l0.5-7.6
		c1.6,0.6,3.2,1.1,4.6,1.5c1.1-1.6,2.3-3.1,3.7-4.4c-6-1.3-13.1-3.8-17.5-6.4c0.2-0.3,0.5-0.5,0.8-0.8c0.3,0.5,0.6,1.1,0.8,1.6
		c1.7-0.6,3.4-1.4,5-2.3c2,1.2,3.8,2.5,5.5,4L557.3,60.2z"/>
	<path id="居家儀式感_來個_野餐__1_" d="M266.1,45.9c1.3,1.1,2.5,2.2,3.6,3.4l-2,1.4h3l-0.4,5.1H262c0,1.9,0,3.7,0,5.5
		c0.9-1.3,1.7-2.7,2.4-4.1l5.2,1.5c-1.9,3.7-4.4,7.2-7.3,10.3c0.5,7.1,1.5,12.3,2.3,12.3c0.4,0,1-2.5,1.4-7.7
		c1.2,1.4,2.7,2.6,4.4,3.4c-1.4,8.2-3.2,10.1-7,10.1c-3.3,0-5.3-5.6-6.2-13.4c-0.5,0.3-1,0.7-1.5,1l-0.2-0.3c1,3.1,2.3,6.9,2.8,9.3
		l-4.4,1.9c-0.2-1-0.4-2.2-0.8-3.5c-0.8,3.7-2.1,4.8-4.7,4.8h-2.9c-3.9,0-4.6-1.3-4.4-5.3l0.2-3.1c-0.5,2.6-1.3,5.2-2.5,7.6l-3.8-2
		c1.4-3,2.4-6.3,2.9-9.6l3.6,1.1l0.1-1.7h3.4l-0.4-0.9l0.6-0.3H240l0.7-10.2h13.8l-0.5,6.7c0.9-0.6,1.7-1.3,2.5-2
		c-0.2-3.7-0.3-7.6-0.3-11.6h-16.7l-0.2,2.8c-0.5,7.8-2.2,20.7-6.7,28.9c-1.4-1.3-3-2.4-4.7-3.3c4.2-7.5,5.2-18.5,5.7-25.6l0.5-7.9
		h22.2c0.1-1.4,0.1-2.8,0.2-4.1h5.8c-0.1,1.3-0.2,2.8-0.3,4.1h2.5c-0.8-0.8-1.6-1.7-2.3-2.4L266.1,45.9 M245.2,68.8h4.1l0.2-2.2
		h-4.1L245.2,68.8 M252.4,79.8c-0.4-1.5-0.9-3-1.3-4.4l3.9-1.5c-0.4-0.5-0.8-1-1.3-1.5l0,0.3h-4.6c0.8,1.7,1.7,3.6,2.1,4.9l-1.7,0.9
		C250.4,79,251.4,79.5,252.4,79.8 M246.6,82.7h1.4c0.7,0,0.9-0.6,1.2-4.1l-2,1c-0.3-0.9-0.6-1.9-1-2.8l-0.3,4.6
		C245.9,82.5,246,82.7,246.6,82.7L246.6,82.7 M112.2,46c0.6,1.2,1.1,2.5,1.5,3.7h14.9L127.9,60h-6.4l0.3-4.7H96.5L96.1,60H90
		l0.7-10.3h15.3c-0.2-0.7-0.4-1.3-0.6-1.9L112.2,46 M217.7,46.4c1.9,1.3,3.6,2.8,5.1,4.5l-3.2,2.6h3.7l-0.4,6.1h0h-11.2
		c0,11.6,1.6,21.2,4.1,21.2c0.8,0,1.4-2.3,2-7.6c1.5,1.6,3.2,2.8,5.2,3.6c-1.5,8.6-3.7,10.5-8.2,10.5c-7.6,0-9.7-12.9-9.6-27.8h-21
		l0.4-6.1h20.7c0.1-2.2,0.2-4.5,0.4-6.7h6.7c-0.2,2.2-0.4,4.5-0.5,6.7h5.5c-1.2-1.3-2.5-2.6-3.9-3.7L217.7,46.4 M166.9,46.4l6,1.6
		c-0.7,0.9-1.4,1.7-2,2.4h4.9l-0.3,3.9h-10.5l-0.1,1.1h9.2l-0.3,3.8h-9.2l-0.1,1.1h11.7l-0.3,4.2h-29l0.3-4.2h11.3l0.1-1.1h-8.8
		l0.3-3.8h8.8l0.1-1.1h-10.1l0.2-3.1c-1,1.9-2,3.9-3.2,5.8l-2.1,30.4h-5.8l1.5-21.4c-0.6,0.7-1.2,1.3-1.8,1.9
		c-0.7-2.1-1.6-4.2-2.6-6.2c4.3-4.3,7.6-9.4,9.9-15l5.4,1.8c-0.3,0.7-0.6,1.3-0.9,2h4.4c-0.4-0.8-0.9-1.6-1.3-2.3l5.1-1.7
		c1,1.2,1.8,2.5,2.4,3.9h4.9C165.6,49.2,166.3,47.8,166.9,46.4 M316,46.6l-0.4,5h15.8l-0.4,6.1h-9.8l5,0.9c-0.5,1.5-1,3-1.7,4.4
		c2.2,1.7,4.8,3.7,6.3,5.1l-4.6,4.3c-1-1.1-2.8-2.8-4.6-4.3c-0.8,1.1-1.6,2-2.6,2.9c-1-0.8-2.1-1.6-3.3-2.2
		c3.9,5.2,9.3,9.1,15.4,11.3c-1.9,1.7-3.6,3.6-5,5.8c-4.7-2.3-8.9-5.7-12.2-9.7l-0.8,11.3h-6.6l0.8-10.9c-3.8,4-8.4,7.2-13.4,9.5
		c-1.1-2-2.5-3.8-4-5.4c7.2-2.6,13.4-7.2,18.1-13.3l0.7-9.6H301l5.1,1c-0.5,1.5-1.1,3-1.7,4.4c1.3,1.2,2.7,2.4,3.5,3.3l-4.4,4.4
		c-0.7-0.8-1.4-1.6-2.1-2.4c-1.4,2-3.1,3.8-5,5.4c-1.4-1.5-2.9-2.9-4.5-4.1c3.9-2.6,6.8-7,8.3-12h-6.6l0.4-6.1h15.2l0.4-5H316
		 M314.7,67.1c2.7-2.6,4.6-5.9,5.6-9.4h0h-5l-0.7,9.3L314.7,67.1 M532.3,46.6l-0.1,1.5h6.7l-0.3,3.6H532l-0.1,1h2.1l0.9-0.2l3.3,1.8
		c-3.6,6.1-10.3,10.1-17,12.2c-0.7-1.4-1.6-2.6-2.7-3.7c1.9-0.5,3.7-1.2,5.4-2c-0.6-0.5-1.3-1.1-1.9-1.6c-0.4,0.3-0.8,0.6-1.3,0.8
		c-0.8-1.2-1.8-2.3-2.9-3.2c2.5-1.2,4.7-2.9,6.4-5l2.5,0.5l0.4-5.7H532.3 M527.6,58.6c1.2-0.8,2.4-1.7,3.4-2.8h-5
		c-0.3,0.3-0.6,0.6-1,0.9C526,57.3,526.8,57.9,527.6,58.6 M347.4,46.7l5.6,1.8c-1.1,2.8-2.4,5.5-3.8,8.1l-2.2,30.9H341l1.4-20.7
		c-0.7,0.9-1.5,1.8-2.3,2.6c-0.6-2.4-1.4-4.7-2.4-6.9C342,57.8,345.2,52.5,347.4,46.7 M553.9,47.7l3.3,1.4c-1.2,2.9-2.9,5.4-5.1,7.6
		c1.8,1,3.5,2.2,5.2,3.6l-4,3.8c-1.7-1.5-3.6-2.9-5.5-4c-1.6,0.9-3.3,1.7-5,2.3c-0.2-0.6-0.5-1.1-0.8-1.6c-0.3,0.3-0.6,0.5-0.8,0.8
		c4.3,2.6,11.4,5.1,17.5,6.4c-1.4,1.3-2.6,2.8-3.7,4.4c-1.5-0.4-3-0.9-4.6-1.5l-0.5,7.6c0.6-0.5,1.1-1,1.6-1.5l4.1,2.7
		c-1.3,0.9-2.7,1.9-4,2.8c1.3,0.5,2.6,1.1,3.8,1.9l-3.2,3.5c-4.3-2.4-8.9-4.4-13.6-5.8c-0.2,1.2-0.3,2.4-0.3,3.6
		c-10.4,1-12.2,1.3-13.4,1.9c-0.2-1.5-0.7-2.9-1.5-4.2c1-0.5,1.7-1.6,1.6-2.8l0.7-9.7c-1.8,0.7-3.5,1.3-5.3,1.8
		c-0.7-1.6-1.7-3.1-2.9-4.4c7.7-1.9,16.2-5.5,20.9-10.4l2.7,1.4c-0.3-0.4-0.6-0.8-0.9-1.1c0.9-0.3,1.8-0.6,2.7-1
		c-1.3-0.7-2.5-1.3-3.7-1.9l3.6-3.3h-2.8l0.3-4.1h12.8L553.9,47.7 M547.6,54.2c0.8-0.7,1.6-1.4,2.3-2.2h-6.9
		C544.4,52.6,546,53.3,547.6,54.2 M534.6,66.2h6c-1.1-0.6-2.1-1.3-3-2C536.7,64.9,535.7,65.6,534.6,66.2 M528.1,69.6h19.3
		c-1.5-0.6-2.9-1.3-4.3-2L543,69h-10.7l0.1-1.6C531.1,68.2,529.6,68.9,528.1,69.6L528.1,69.6 M531.2,73.4h13l0.1-0.7h-13L531.2,73.4
		 M531,76.3h13l0.1-0.8h-13L531,76.3 M547.1,80.6c0.5-0.4,1-0.8,1.5-1.2h-5C544.8,79.8,545.9,80.1,547.1,80.6 M530.6,81.6l5.7-0.4
		l-0.4-0.1l1.6-1.7h-6.7L530.6,81.6 M508.1,48.2l3.8,2.8c-2,3-4.4,5.7-7.1,8.2c1.1,0.7,2.2,1.4,3.2,2.1l-1.4,1.5h0.1l0.9-0.2
		l4.2,0.8c-0.9,3.9-2,7.7-3.3,11.4l-4.9-1c0.4-1.4,0.9-3.2,1.3-5.2H503l-0.9,12.3c-0.2,2.8-0.8,4.5-2.7,5.5c-1.9,0.9-4.3,1-7.4,1
		c-0.1-2.1-0.6-4.1-1.3-6.1c1,0.1,2,0.1,3,0.1c0.4,0,0.9,0,1.3,0c0.6,0,0.8-0.1,0.9-0.6l0.9-12.1h-5l0.4-5.9h7.6
		c-2.2-1.4-4.4-2.7-6.8-3.8l4.1-3.9c1,0.4,2,0.9,3.1,1.5c0.8-0.8,1.5-1.6,2.1-2.5h-9l0.4-5.5h13L508.1,48.2 M492.3,48.5l-1.3,19
		h-6.8l-0.2,2.8h6.8l-0.4,5.6h-6.8l-0.2,3.3c2.5-0.2,5-0.5,7.4-0.7l-0.3,5.5c-7.3,0.9-15.2,1.8-20.9,2.5l-0.3-6.1
		c2.3-0.2,5-0.4,8-0.6l0.3-3.8h-6.5l0.4-5.6h6.5l0.2-2.8h-6.7l1.3-19H492.3 M484.6,55.7h2l0.2-2.3h-2L484.6,55.7 M477.4,55.7h2.1
		l0.2-2.3h-2.1L477.4,55.7 M484.1,62.6h2l0.2-2.4h-2L484.1,62.6 M476.9,62.6h2.1l0.2-2.4h-2.1L476.9,62.6 M353,48.5L353,48.5
		L353,48.5 M379.2,48.5l-2.7,38.4h-5.9l0.2-2.1h-14.6l-0.2,2.5h-5.7l2.7-38.8H379.2 M356.5,79.5h14.6l1.8-25.5h-14.6L356.5,79.5
		L356.5,79.5 M79.7,48.6l-0.9,12.8H69l-0.2,2.9h11.8l-0.4,5.5H68.4l-0.2,2.7h9.3l-1,14.9h-6.2l0.1-1.1H57.6l-0.1,1.1h-6l1-14.9h9.3
		l0.2-2.7H51c-1,6.2-2.9,13-6.4,17.7c-1.6-1.3-3.4-2.4-5.4-3.3c5-6.4,6-16.1,6.5-23l0.9-12.7H79.7 M52.4,55.9h20.5L73,54h0H52.5
		L52.4,55.9 M51.7,64.3h10.8l0.2-2.9H52C51.9,62.2,51.9,63.2,51.7,64.3 M58,80.8h12.7l0.2-2.9H58.2L58,80.8 M367.8,54.5l-0.3,4.1
		h4.4l-0.3,4.4h-4.4l-0.2,3.2h3.7l-0.8,11.6h-11.8l0.8-11.6h3.3l0.2-3.2h-4l0.3-4.4h4l0.3-4.1H367.8 M362.8,73.7h2.7l0.2-3.3H363
		L362.8,73.7 M120.9,56.7l-0.4,5.2h-8.9c-0.8,0.7-1.6,1.3-2.4,1.8c1.3,1.3,2.3,2.8,3.1,4.5c2.8-1.9,5.4-3.9,7.9-6.2l4.9,4.1
		c-1.6,1.2-3.4,2.4-5.2,3.6c1.2,4.6,3.9,8.6,8.5,10.6c-1.7,1.5-3.2,3.2-4.4,5.1c-4.8-2.5-7.6-6.9-9.2-12.5l-0.9,0.5
		c0.7,5-0.6,9.7-2.9,11.6c-1.4,1.5-3.3,2.3-5.3,2.3c-0.1,0-0.3,0-0.4,0c-0.3,0-0.6,0-0.9,0c-0.8,0-1.6,0-2.5-0.1
		c0.1-1.9-0.4-3.9-1.2-5.6c-3.3,1.6-6.7,2.9-10.2,4c-0.7-1.8-1.7-3.6-2.9-5.1c6.9-1.5,15.3-4.9,19.8-8.4c-0.1-0.3-0.2-0.6-0.3-0.9
		c-5,2.8-10.3,5.1-15.8,6.7c-0.7-1.7-1.6-3.3-2.7-4.8c5.4-1,12.4-3.5,16.3-5.9c-0.2-0.3-0.4-0.5-0.6-0.8c-3.8,1.8-7.8,3.2-11.9,4.2
		c-0.8-1.7-1.7-3.3-2.8-4.9c4.5-0.7,8.9-2.1,13.1-3.9h-5.9l0.4-5.2H120.9 M107.7,77.9c-2.1,1.3-4.4,2.5-6.6,3.6
		c1.3,0.1,2.4,0.2,3.4,0.2h0c0.1,0,0.2,0,0.3,0c0.8,0,1.5-0.4,1.9-1.1C107.2,79.8,107.6,78.8,107.7,77.9 M255.3,57.1l-0.3,4h-14.7
		l0.3-4H255.3 M371.6,63.1L371.6,63.1L371.6,63.1 M203.8,63.7l-0.4,6h-6.3l-0.6,8.2c2.5-0.4,5-0.8,7.5-1.2l0,5.5
		c-7,1.5-14.6,2.9-20.3,4l-1.2-6.3c2.1-0.3,4.8-0.7,7.7-1.1l0.6-9.1H185l0.4-6H203.8 M158.7,64.7l2.7,3.5c-1.3,0.3-2.7,0.6-4.1,0.8
		l-0.1,1.9h4.9c0-1.8,0-3.7,0-5.6h5.4c0,0.6-0.1,1.2-0.1,1.8l3.4-2.3c1.6,1.1,3.1,2.4,4.4,3.8l-3.3,2.3h4l-0.3,4.1H170l4.5,1.5
		c-1.5,1.8-3.2,3.5-5.1,4.9c0.2,0.5,0.7,0.8,1.2,0.9c0.6,0,0.9-0.6,1.1-2.5c1,1,2.3,1.8,3.7,2.3c-1,4.3-2.5,5.2-5.5,5.2
		c-2,0-3.9-1.2-4.9-3c-1.5,0.9-3.1,1.7-4.8,2.4c-0.9-1.4-1.9-2.7-3-3.9c2.1-0.7,4.1-1.6,6-2.7c-0.5-1.7-0.8-3.4-1-5.2h-5.4l-0.1,1.1
		l4.1-0.3l-0.2,4.2l-4.2,0.4l-0.1,2c-0.2,2.3-0.7,3.4-2.3,4.1c-1.5,0.7-3.5,0.7-6.1,0.7c-0.2-1.5-0.6-3-1.2-4.4
		c0.8,0,1.6,0.1,2.3,0.1c0.5,0,0.9,0,1.1,0c0.5,0,0.7-0.1,0.7-0.6l0.1-1.4l-5.8,0.5l0-4.4c1.7-0.1,3.8-0.3,6.1-0.4l0.1-1.5h-5.8
		l0.3-4.1h5.8l0.1-1.3c-1.6,0.1-3.1,0.2-4.5,0.3c-0.2-1.2-0.5-2.4-0.9-3.6C150.6,66.2,154.7,65.6,158.7,64.7 M167.3,70.9h3.5
		c-1.1-1.2-2.2-2.3-3.5-3.3C167.3,68.8,167.3,69.9,167.3,70.9 M167.9,77c0.7-0.6,1.3-1.3,1.9-2h0h-2.2
		C167.7,75.8,167.8,76.4,167.9,77 M266.5,40.9l-2.5,1.6l-0.1,0.1h-1.5h-5.8h-3.7l-0.3,3.7c0,0.1,0,0.3,0,0.4h-18.3h-3.7l-0.3,3.7
		l-0.5,7.9c-0.2,3.1-0.7,9.9-2.3,16.2l-2.9-1.2c-1.5-0.6-2.7-1.5-3.8-2.7l-4.9-5.3c0-0.5,0-1.1-0.1-1.6h7.2h3.7l0.3-3.7l0.4-6.1
		l0.1-1.5l1.1-0.9l-1-1.1l0.1-0.8h-0.8l-1.1-1.2c-1.7-1.9-3.6-3.7-5.8-5.1l-2.4-1.7l-1.7,1.3h-3.6h-6.7h-3.7l-0.3,3.7
		c-0.1,1-0.1,2-0.2,3h-16.9h-3.7l-0.3,3.7l-0.2,3.1h-1l0.1-1.7l0.3-3.9l0.3-4.3h-0.7l0.6-0.7l-6-1.6l-6-1.6l-3.4-0.9l-1.4,3.2
		c-0.2,0.5-0.5,1-0.7,1.6h-0.1c-0.5-0.8-1.1-1.7-1.7-2.4l-1.7-2.2l-2.7,0.9l-5.1,1.7l-0.2,0.1l-4.8-1.6l-3.5-1.2l-1.4,3.4
		c-2.1,5.1-5.2,9.8-9.1,13.7l-0.1,0.1l0.6-8.9l0.3-4.3h-4.3h-12.1c-0.2-0.5-0.4-1-0.7-1.5l-1.5-3l-3.2,0.9l-6.8,1.9l-4.3,1.2
		l0.2,0.5h-9.6H87l-0.3,3.7l-0.7,10.3l-0.2,2.7l-1.1,0.2l0.2-2.4h-2l0.8-11.4l0.3-4.3h-4.3H46.6h-3.7l-0.3,3.7L41.7,61
		c-0.5,7.3-1.6,15.5-5.6,20.8l-3.1,4.1l4.7,2c1.6,0.7,3.1,1.6,4.4,2.7l3.2,2.6l2.1-2.8l-0.1,0.9h4.3h6h3.7l0.1-1.1H66l-0.1,1.1h4.3
		h6.2h3.7l0.3-3.7l0.6-9l3.3,4.3c1,1.3,1.7,2.7,2.3,4.2l1.4,3.5l3.6-1.1c2.1-0.7,4.2-1.4,6.2-2.2l-0.1,3.9l3.9,0.2
		c0.9,0,1.8,0.1,2.7,0.1c0.3,0,0.6,0,0.9,0c0.1,0,0.3,0,0.4,0c3,0,5.9-1.2,8-3.4c1-0.9,1.9-2.1,2.6-3.5c1.7,1.9,3.6,3.4,5.9,4.6
		l3.2,1.7l2-3.1c1-1.6,2.3-3,3.7-4.2l3.3-2.9l-0.5,6.6l-0.3,4.3h4.3h5.8h3.7l0-0.1h0.6c3.1,0,5.5-0.1,7.8-1.1c0.5-0.2,1-0.5,1.4-0.8
		l1.5,2.5l3.1-1.3c0.8-0.3,1.6-0.7,2.3-1.1c1.6,1.2,3.6,1.9,5.6,2l0,0h0c6.2,0,8.2-3.8,9.3-7.8l0.6,3.3l0.8,3.9l3.9-0.8l3.5-0.7
		c5.2-1,11.1-2.2,16.8-3.4l0.8-0.2c0.6,0.9,1.2,1.7,1.9,2.4c2,2,4.5,3.1,7.2,3.1c4.6,0,7.4-1.7,9.2-4.8l2.2,1.1
		c1.4,0.7,2.7,1.6,3.8,2.7l3.7,3.4l2.5-4.4c0-0.1,0.1-0.2,0.1-0.2l0.7,0.4l3.7,1.9l0.7-1.4c1.4,0.6,2.9,0.7,4.1,0.7h2.9
		c0.9,0,1.6-0.1,2.3-0.2l0.1,0.6l4.6-2l2.3-1c1.4,1.7,3.3,2.8,5.7,2.8c8.1,0,9.8-6.6,11-13.4l0.5-2.9l-2.7-1.3
		c-1.2-0.6-2.2-1.4-3.1-2.4l-1.5-1.8c2.2-2.7,4.1-5.6,5.7-8.6l0.4-0.8h0.6l0.1-1.3l1.2-2.3l-1-0.3l0.3-5l0-0.3l1.1-0.7l-0.9-1
		l0.2-2.3h-2.3l-0.1-0.1c-1.2-1.3-2.6-2.6-3.9-3.7L266.5,40.9L266.5,40.9z M179.9,63.6h1.5l-0.4,5.7l-1-1.1l0.1-1.2h-0.4l0.2-2.2
		L179.9,63.6L179.9,63.6z M128.6,64h3l0,0c0.8,1.6,1.5,3.4,2.1,5.1l1.1,3.3l-0.4,6.2l-4.5-1.9c-2.7-1.1-4.3-3.2-5.2-5.3
		c0.9-0.6,1.9-1.3,2.8-2l4-3L128.6,64L128.6,64z M84.2,69.9l0.3-4.3l1.8,2.5c0.3,0.4,0.5,0.8,0.8,1.2L84.2,69.9L84.2,69.9z
		 M179.8,70.3l1.1-0.8l-0.3,4.1h4.3h1.5l-0.1,1.6c-1.7,0.2-3.2,0.4-4.4,0.6l-2,0.2l1.2-1.5l-1.6-0.5l0.2-2.9L179.8,70.3L179.8,70.3z
		 M81.4,73.8H84l0-0.1l1.4,1.9c0.3,0.4,0.5,0.8,0.8,1.2l-5.1,1.1L81.4,73.8L81.4,73.8z M344.9,41.7l-1.3,3.6
		c-2,5.3-4.9,10.2-8.7,14.4L335,58l0.4-6.1l0.3-4.3h-4.3H320l0.1-0.7l0.3-4.3H316h-6.6h-3.7l-0.3,3.7l-0.1,1.3h-11.4h-3.7l-0.3,3.7
		l-0.4,6.1l-0.3,4.3h4.3h0.4c-1.2,2-2.7,3.6-4.4,4.7l-4.7,3.2l4.6,3.4c1,0.7,1.9,1.5,2.7,2.3c-1.2,0.6-2.4,1.1-3.7,1.6l-5.7,2.1
		l4.2,4.4c1.3,1.4,2.5,3,3.5,4.6l1.8,3.1l3.3-1.5c2.5-1.1,4.9-2.5,7.1-4l-0.1,1.4l-0.3,4.3h4.3h6.6h3.7l0.3-3.7l0.2-2.6
		c2.2,1.7,4.5,3.2,7,4.4l3.1,1.6l2-2.9c1.2-1.8,2.7-3.5,4.4-5l3.8-3.3l-0.5,7.3l-0.3,4.3h4.3h5.9h3.7l0-0.1h5.3h3.7l0.2-2.5h6.6
		l-0.2,2.1h4.3h5.9h3.7l0.3-3.7l2.7-38.4l0.3-4.3h-4.3H354l-5.4-1.7L344.9,41.7L344.9,41.7z M329.4,61.7h1.5h2.1l1.1,2.4
		c0.4,0.9,0.8,1.8,1.1,2.8l-1.7-1.6C332.5,64.2,331,63,329.4,61.7C329.4,61.7,329.4,61.7,329.4,61.7L329.4,61.7z M329.3,75l4.2-3.9
		l2.4-2.2c0.1,0.5,0.3,0.9,0.4,1.4l1.5,6.1l-0.1,1.9l-5.1-1.9C331.4,75.9,330.4,75.5,329.3,75L329.3,75z M536.6,42.6h-4.3h-5.2h-3.7
		l-0.3,3.7l-0.1,1.2l-0.4-0.1l-1.5,1.8c-1.4,1.7-3.1,3-5.1,4l-1.4,0.6c0.1-0.2,0.3-0.4,0.4-0.6l2.2-3.2l-3.1-2.3l-3.8-2.8l-1.5-1.1
		l-1.8,0.4l-0.9,0.2h-12.6H490l0,0h-17.1h-3.7l-0.3,3.7l-1.3,19l-0.3,4.3h0.1l-0.3,4.1l-0.1,0.9l-1.8,0.1l0.2,3.9l0.3,6.1l0.2,4.3
		l4.3-0.5c1.9-0.2,4.1-0.5,6.3-0.7c3.7-0.4,7.7-0.9,11.7-1.4l0.2,3.2h3.7c3.4,0,6.4-0.1,9.1-1.4c4.5-2.2,4.8-6.8,5-8.8l0.2-2.7
		l1.3,0.3l3.4,0.7l1.2-3.2c0.7-1.9,1.3-3.8,1.9-5.7l0.3,0.4c0.9,1,1.6,2.1,2.2,3.3l1.5,3.2l3.1-1l-0.2,3.4l-3.3,1.6l2.3,3.7
		c0.5,0.8,0.8,1.7,0.9,2.6l0.7,5.2l4.8-2.1c0.8-0.3,4.1-0.8,12.2-1.5l3.6-0.3l0-1.7c2.8,1.1,5.4,2.4,8,3.8l2.8,1.5l2.1-2.4l3.2-3.5
		l3.3-3.7l-2.4-1.4l3.3-2.4l-4.9-3.2l-0.3-0.2l1-1.5c0.9-1.3,1.9-2.6,3.1-3.7l5.6-5.2l-7.5-1.6c-0.1,0-0.2,0-0.2-0.1l0.8-0.8
		l3.3-3.1l-3.5-2.9c-0.6-0.5-1.1-0.9-1.7-1.3c1.1-1.6,2.1-3.4,2.8-5.2l1.5-3.7l-3.7-1.5l-3.3-1.4l-1.1-0.4l-1.2,0.2l-0.6,0.1h-12.5
		h-3.6L536.6,42.6L536.6,42.6z M511,58.5c0.3-0.4,0.7-0.8,1-1.1l2.8,2.2l-0.7,0.2l-1.5-0.3l-0.4-0.1L511,58.5L511,58.5z"/>
</g>
<g>
	<path id="居家儀式感_來個_野餐_2_3_" class="st0" d="M51.8,64.3c0.1-1,0.2-2,0.2-2.9h10.7l-0.2,2.9H51.8z M73,54l-0.1,1.9
		H52.4l0.1-1.9H73L73,54z M70.7,80.8H58l0.2-2.9h12.7L70.7,80.8z M80.3,69.8l0.4-5.5H68.8l0.2-2.9h9.8l0.9-12.8H46.6l-0.9,12.7
		c-0.5,6.8-1.5,16.5-6.5,23c1.9,0.8,3.7,1.9,5.4,3.3C48.1,82.8,50,76,51,69.8h11.1l-0.2,2.7h-9.3l-1,14.9h6l0.1-1.1h12.7l-0.1,1.1
		h6.2l1-14.9h-9.3l0.2-2.7H80.3z M96.5,55.4h25.4l-0.3,4.7h6.4l0.7-10.3h-14.9c-0.4-1.3-0.9-2.5-1.5-3.7l-6.8,1.9
		c0.2,0.6,0.4,1.2,0.6,1.9H90.8L90,60h6.1L96.5,55.4z M104.4,81.6c-0.9,0-2.1-0.1-3.4-0.2c2.3-1.1,4.5-2.3,6.6-3.6
		c-0.1,1-0.5,1.9-1.1,2.7C106.2,81.3,105.3,81.7,104.4,81.6L104.4,81.6z M120.2,62.1c-2.5,2.2-5.1,4.3-7.9,6.2
		c-0.8-1.7-1.8-3.2-3.1-4.5c0.9-0.5,1.7-1.1,2.4-1.8h8.9l0.4-5.2H97.1L96.8,62h5.9c-4.2,1.9-8.6,3.2-13.1,3.9c1.1,1.5,2,3.1,2.8,4.9
		c4.1-1,8.1-2.4,11.9-4.2c0.2,0.2,0.4,0.5,0.6,0.8c-3.9,2.4-11,4.9-16.3,5.9c1.1,1.5,2,3.1,2.7,4.8c5.5-1.7,10.8-3.9,15.8-6.7
		c0.1,0.3,0.2,0.6,0.3,0.9c-4.5,3.5-12.9,6.9-19.8,8.4c1.2,1.6,2.1,3.3,2.9,5.1c3.5-1.1,6.9-2.4,10.2-4c0.8,1.8,1.3,3.7,1.2,5.6
		c1.2,0.1,2.4,0.1,3.4,0.1c2.1,0.1,4.2-0.7,5.7-2.3c2.3-1.9,3.6-6.6,2.9-11.6l0.9-0.5c1.6,5.7,4.4,10.1,9.2,12.5
		c1.2-1.9,2.7-3.6,4.4-5.1c-4.5-1.9-7.3-5.9-8.5-10.6c1.8-1.2,3.6-2.4,5.2-3.6L120.2,62.1z M148.7,54.4h10.1l-0.1,1.1H150l-0.3,3.8
		h8.8l-0.1,1.1h-11.3l-0.3,4.2h29l0.3-4.2h-11.7l0.1-1.1h9.2l0.3-3.8h-9.2l0.1-1.1h10.5l0.3-3.9h-4.9c0.6-0.7,1.3-1.6,2-2.4l-6-1.6
		c-0.6,1.4-1.3,2.7-2.1,4h-4.9c-0.6-1.4-1.4-2.7-2.4-3.9l-5.1,1.7c0.4,0.7,0.9,1.5,1.3,2.3h-4.4c0.3-0.7,0.6-1.3,0.9-2l-5.4-1.8
		c-2.3,5.6-5.7,10.7-9.9,15c1,2,1.9,4.1,2.6,6.2c0.6-0.6,1.2-1.2,1.8-1.9l-1.5,21.4h5.8l2.1-30.4c1.1-1.9,2.2-3.8,3.2-5.8
		L148.7,54.4z M169.8,75.1c-0.6,0.7-1.2,1.4-1.9,2c-0.1-0.6-0.2-1.3-0.3-2H169.8L169.8,75.1z M167.3,70.9c0-1.1,0-2.2,0-3.3
		c1.2,1,2.4,2.1,3.5,3.3H167.3z M170,75.1h5.5l0.3-4.1h-4l3.3-2.3c-1.3-1.4-2.8-2.7-4.4-3.8l-3.4,2.3c0-0.6,0-1.2,0.1-1.8h-5.4
		c-0.1,1.9-0.1,3.8,0,5.6h-4.9l0.1-1.9c1.4-0.2,2.7-0.5,4.1-0.8l-2.7-3.5c-4,0.9-8.2,1.5-12.3,1.7c0.4,1.1,0.7,2.3,0.9,3.6
		c1.4-0.1,3-0.1,4.5-0.3l-0.1,1.3H146l-0.3,4.1h5.8l-0.1,1.5c-2.2,0.2-4.4,0.3-6.1,0.4l0,4.4l5.8-0.5l-0.1,1.4
		c0,0.5-0.2,0.6-0.7,0.6c-0.5,0-2.2,0-3.4,0c0.6,1.4,1,2.9,1.2,4.4c2.6,0,4.6,0,6.1-0.7c1.6-0.7,2.1-1.8,2.3-4.1l0.1-2l4.2-0.4
		l0.2-4.2l-4.1,0.3l0.1-1.1h5.4c0.2,1.8,0.5,3.5,1,5.2c-1.9,1.1-3.9,2-6,2.7c1.1,1.2,2.1,2.5,3,3.9c1.6-0.7,3.2-1.5,4.8-2.4
		c1,1.8,2.8,3,4.9,3c3,0,4.5-1,5.5-5.2c-1.4-0.5-2.6-1.3-3.7-2.3c-0.3,1.8-0.6,2.5-1.1,2.5c-0.5-0.1-1-0.4-1.2-0.9
		c1.9-1.5,3.6-3.1,5.1-4.9L170,75.1z M197.1,69.7h6.3l0.4-6h-18.4l-0.4,6h5.8l-0.6,9.1c-2.9,0.4-5.6,0.8-7.7,1.1l1.2,6.3
		c5.7-1.1,13.3-2.6,20.3-4l0-5.5c-2.5,0.4-5,0.8-7.5,1.2L197.1,69.7z M222.9,59.6l0.4-6.1h-3.7l3.2-2.6c-1.5-1.7-3.2-3.2-5.1-4.5
		l-4.4,3.4c1.4,1.1,2.7,2.3,3.9,3.7h-5.5c0.1-2.2,0.3-4.5,0.5-6.7h-6.7c-0.2,2.2-0.3,4.5-0.4,6.7h-20.7l-0.4,6.1h21
		c-0.1,14.9,2.1,27.8,9.7,27.8c4.5,0,6.7-1.9,8.2-10.5c-2-0.8-3.7-2.1-5.2-3.6c-0.6,5.2-1.2,7.6-2,7.6c-2.5,0-4.1-9.6-4.1-21.2
		H222.9L222.9,59.6z M251.1,75.4c0.4,1.3,0.9,2.9,1.3,4.4c-1-0.3-2-0.8-2.9-1.3l1.7-0.9c-0.4-1.2-1.3-3.1-2.1-4.9h4.6l0-0.3
		c0.4,0.5,0.9,1,1.3,1.5L251.1,75.4z M246.6,82.7c-0.6,0-0.7-0.1-0.6-1.3l0.3-4.6c0.4,0.9,0.7,1.8,1,2.8l2-1
		c-0.3,3.5-0.5,4.1-1.2,4.1H246.6L246.6,82.7z M245.3,66.5h4.1l-0.2,2.2h-4.1L245.3,66.5z M264.4,57.2c-0.7,1.4-1.5,2.8-2.4,4.1
		c0-1.8,0-3.6,0-5.5h8.5l0.4-5.1h-3l2-1.4c-1.1-1.2-2.4-2.4-3.6-3.4l-3.8,2.4c0.7,0.7,1.5,1.6,2.3,2.4h-2.5c0.1-1.4,0.2-2.8,0.3-4.1
		h-5.8c-0.1,1.3-0.1,2.7-0.2,4.1h-22.2l-0.5,7.9c-0.5,7.1-1.6,18.1-5.7,25.6c1.7,0.9,3.3,2,4.7,3.3c4.6-8.2,6.2-21.2,6.7-28.9
		l0.2-2.8h16.7c-0.1,3.9,0.1,7.8,0.3,11.6c-0.8,0.7-1.7,1.4-2.5,2l0.5-6.7h-13.8L240,72.8h5.3l-0.6,0.3l0.4,0.9h-3.4l-0.1,1.7
		l-3.6-1.1c-0.5,3.3-1.5,6.5-2.9,9.6l3.8,2c1.2-2.4,2-5,2.5-7.6l-0.2,3.1c-0.3,3.9,0.5,5.3,4.4,5.3h2.9c2.6,0,3.9-1.1,4.7-4.8
		c0.3,1.3,0.6,2.5,0.8,3.5l4.4-1.9c-0.5-2.4-1.8-6.2-2.8-9.3l0.2,0.3c0.5-0.3,1-0.7,1.5-1c1,7.8,2.9,13.4,6.2,13.4
		c3.9,0,5.7-1.9,7-10.1c-1.7-0.8-3.1-2-4.4-3.4c-0.4,5.2-1,7.7-1.4,7.7c-0.8,0-1.7-5.2-2.3-12.3c2.9-3.1,5.4-6.5,7.3-10.3
		L264.4,57.2z M255.3,57.1h-14.7l-0.3,4h14.7L255.3,57.1z M320.2,57.7c-1,3.6-2.9,6.9-5.6,9.4l-0.1-0.1l0.7-9.3H320.2L320.2,57.7z
		 M330.8,68.1c-1.4-1.4-4.1-3.4-6.3-5.1c0.7-1.4,1.2-2.9,1.7-4.4l-5-0.9h9.8l0.4-6.1h-15.8l0.4-5h-6.6l-0.4,5h-15.2l-0.4,6.1h6.6
		c-1.5,5-4.4,9.4-8.3,12c1.6,1.2,3.2,2.6,4.5,4.1c1.9-1.6,3.6-3.4,5-5.4c0.8,0.7,1.5,1.5,2.1,2.4l4.4-4.4c-0.8-0.9-2.2-2.1-3.5-3.3
		c0.7-1.4,1.2-2.9,1.7-4.4l-5.1-1h7.6l-0.7,9.6c-4.7,6-10.9,10.6-18.1,13.3c1.6,1.6,2.9,3.5,4,5.4c5-2.3,9.6-5.5,13.4-9.5l-0.8,10.9
		h6.6l0.8-11.3c3.3,4.1,7.4,7.4,12.2,9.7c1.4-2.1,3.1-4.1,5-5.8c-6.1-2.2-11.4-6.2-15.4-11.3c1.1,0.7,2.2,1.4,3.3,2.2
		c0.9-0.9,1.8-1.9,2.6-2.9c1.8,1.6,3.6,3.2,4.6,4.3L330.8,68.1z M347.4,46.7c-2.2,5.8-5.4,11.2-9.6,15.8c1,2.2,1.8,4.5,2.4,6.9
		c0.8-0.8,1.6-1.7,2.3-2.6L341,87.4h5.9l2.2-30.9c1.4-2.6,2.7-5.3,3.8-8.1L347.4,46.7z M365.5,73.7h-2.7l0.2-3.3h2.8L365.5,73.7z
		 M371.6,63.1l0.3-4.4h-4.4l0.3-4.1H363l-0.3,4.1h-4l-0.3,4.4h4l-0.2,3.2h-3.3l-0.8,11.6h11.8l0.8-11.6H367l0.2-3.2H371.6
		L371.6,63.1z M356.5,79.5l1.8-25.6h14.6l-1.8,25.6H356.5L356.5,79.5z M353,48.5l-2.7,38.8h5.7l0.2-2.5h14.6l-0.2,2.1h5.9l2.7-38.4
		L353,48.5L353,48.5z M477.1,60.2h2.1l-0.2,2.4h-2.1L477.1,60.2z M477.5,53.4h2.1l-0.2,2.3h-2.1L477.5,53.4z M486.6,55.7h-2l0.2-2.3
		h2L486.6,55.7z M486.1,62.6h-2l0.2-2.4h2L486.1,62.6z M483.6,75.8h6.8l0.4-5.6H484l0.2-2.8h6.8l1.3-19h-19.4l-1.3,19h6.7l-0.2,2.8
		h-6.5l-0.4,5.6h6.5l-0.3,3.8c-3,0.3-5.7,0.5-8,0.6l0.3,6.1c5.8-0.7,13.6-1.6,20.9-2.5l0.3-5.5c-2.4,0.2-4.9,0.5-7.4,0.7L483.6,75.8
		z M507.6,62.5l-0.9,0.2h-0.1l1.4-1.5c-1-0.8-2.1-1.5-3.2-2.1c2.7-2.4,5-5.2,7.1-8.2l-3.8-2.8l-1.4,0.3h-13l-0.4,5.5h9
		c-0.6,0.9-1.3,1.7-2.1,2.5c-1-0.6-2.1-1-3.1-1.5l-4.1,3.9c2.4,1.1,4.6,2.3,6.8,3.8h-7.6l-0.4,5.9h5L496,80.7c0,0.5-0.3,0.6-0.9,0.6
		c-1.5,0-2.9,0-4.4-0.1c0.7,2,1.2,4,1.3,6.1c3.1,0,5.5-0.1,7.4-1c1.9-0.9,2.6-2.7,2.7-5.5l0.9-12.3h1.7c-0.4,2-0.9,3.8-1.3,5.2
		l4.9,1c1.3-3.7,2.5-7.5,3.3-11.4L507.6,62.5z M531.1,55.8c-1.1,1-2.2,1.9-3.4,2.8c-0.8-0.7-1.6-1.3-2.5-1.8c0.3-0.3,0.6-0.6,1-0.9
		H531.1z M534.9,52.4l-0.9,0.2h-2.1l0.1-1h6.7l0.3-3.6h-6.7l0.1-1.5h-5.2l-0.4,5.7l-2.5-0.5c-1.8,2.1-4,3.8-6.4,5
		c1.2,0.9,2.1,2,2.9,3.2c0.4-0.3,0.9-0.5,1.3-0.8c0.6,0.5,1.3,1,1.9,1.6c-1.7,0.8-3.6,1.5-5.4,2c1.1,1.1,2,2.4,2.7,3.7
		c6.8-2.2,13.5-6.1,17-12.2L534.9,52.4z M528.1,69.6c1.5-0.6,3-1.4,4.4-2.1l-0.1,1.6H543l0.1-1.5c1.4,0.7,2.8,1.4,4.3,2L528.1,69.6
		L528.1,69.6z M548.6,79.4c-0.5,0.4-1,0.8-1.5,1.2c-1.1-0.4-2.3-0.8-3.5-1.2H548.6z M530.6,81.6l0.2-2.2h6.7l-1.6,1.7l0.4,0.1
		L530.6,81.6z M531.1,75.5h13l-0.1,0.8h-13L531.1,75.5z M531.3,72.7h13l-0.1,0.7h-13L531.3,72.7z M534.6,66.2c1-0.6,2-1.3,3-2
		c0.9,0.7,2,1.3,3,2H534.6z M549.8,52c-0.7,0.8-1.4,1.5-2.3,2.2c-1.6-0.8-3.2-1.6-4.7-2.2H549.8z M557.3,60.2
		c-1.6-1.3-3.3-2.5-5.2-3.6c2.2-2.2,3.9-4.7,5.1-7.6l-3.3-1.4l-1,0.2h-12.8l-0.3,4.1h2.8l-3.6,3.3c1.2,0.6,2.4,1.2,3.7,1.9
		c-0.9,0.4-1.8,0.7-2.7,1c0.3,0.3,0.6,0.7,0.9,1.1l-2.7-1.4c-4.7,4.9-13.2,8.5-20.9,10.4c1.2,1.3,2.1,2.8,2.9,4.4
		c1.8-0.6,3.5-1.2,5.3-1.8l-0.7,9.7c0.1,1.2-0.6,2.2-1.6,2.8c0.8,1.3,1.3,2.7,1.5,4.2c1.2-0.5,3-0.9,13.4-1.9c0-1.2,0.1-2.4,0.3-3.6
		c4.7,1.5,9.3,3.4,13.6,5.8l3.2-3.5c-1.2-0.7-2.5-1.3-3.8-1.9c1.3-0.9,2.7-1.9,4-2.8l-4.1-2.7c-0.5,0.5-1,1-1.6,1.5l0.5-7.6
		c1.6,0.6,3.2,1.1,4.6,1.5c1.1-1.6,2.3-3.1,3.7-4.4c-6-1.3-13.1-3.8-17.5-6.4c0.2-0.3,0.5-0.5,0.8-0.8c0.3,0.5,0.6,1.1,0.8,1.6
		c1.7-0.6,3.4-1.4,5-2.3c2,1.2,3.8,2.5,5.5,4L557.3,60.2z"/>
	<path id="居家儀式感_來個_野餐_2_1_" class="st2" d="M266.1,45.9c1.3,1.1,2.5,2.2,3.6,3.4l-2,1.4h3l-0.4,5.1H262
		c0,1.9,0,3.7,0,5.5c0.9-1.3,1.7-2.7,2.4-4.1l5.2,1.5c-1.9,3.7-4.4,7.2-7.3,10.3c0.5,7.1,1.5,12.3,2.3,12.3c0.4,0,1-2.5,1.4-7.7
		c1.2,1.4,2.7,2.6,4.4,3.4c-1.4,8.2-3.2,10.1-7,10.1c-3.3,0-5.3-5.6-6.2-13.4c-0.5,0.3-1,0.7-1.5,1l-0.2-0.3c1,3.1,2.3,6.9,2.8,9.3
		l-4.4,1.9c-0.2-1-0.4-2.2-0.8-3.5c-0.8,3.7-2.1,4.8-4.7,4.8h-2.9c-3.9,0-4.6-1.3-4.4-5.3l0.2-3.1c-0.5,2.6-1.3,5.2-2.5,7.6l-3.8-2
		c1.4-3,2.4-6.3,2.9-9.6l3.6,1.1l0.1-1.7h3.4l-0.4-0.9l0.6-0.3H240l0.7-10.2h13.8l-0.5,6.7c0.9-0.6,1.7-1.3,2.5-2
		c-0.2-3.7-0.3-7.6-0.3-11.6h-16.7l-0.2,2.8c-0.5,7.8-2.2,20.7-6.7,28.9c-1.4-1.3-3-2.4-4.7-3.3c4.2-7.5,5.2-18.5,5.7-25.6l0.5-7.9
		h22.2c0.1-1.4,0.1-2.8,0.2-4.1h5.8c-0.1,1.3-0.2,2.8-0.3,4.1h2.5c-0.8-0.8-1.6-1.7-2.3-2.4L266.1,45.9 M245.2,68.8h4.1l0.2-2.2
		h-4.1L245.2,68.8 M252.4,79.8c-0.4-1.5-0.9-3-1.3-4.4l3.9-1.5c-0.4-0.5-0.8-1-1.3-1.5l0,0.3h-4.6c0.8,1.7,1.7,3.6,2.1,4.9l-1.7,0.9
		C250.4,79,251.4,79.5,252.4,79.8 M246.6,82.7h1.4c0.7,0,0.9-0.6,1.2-4.1l-2,1c-0.3-0.9-0.6-1.9-1-2.8l-0.3,4.6
		C245.9,82.5,246,82.7,246.6,82.7L246.6,82.7 M112.2,46c0.6,1.2,1.1,2.5,1.5,3.7h14.9L127.9,60h-6.4l0.3-4.7H96.5L96.1,60H90
		l0.7-10.3h15.3c-0.2-0.7-0.4-1.3-0.6-1.9L112.2,46 M217.7,46.4c1.9,1.3,3.6,2.8,5.1,4.5l-3.2,2.6h3.7l-0.4,6.1h0h-11.2
		c0,11.6,1.6,21.2,4.1,21.2c0.8,0,1.4-2.3,2-7.6c1.5,1.6,3.2,2.8,5.2,3.6c-1.5,8.6-3.7,10.5-8.2,10.5c-7.6,0-9.7-12.9-9.6-27.8h-21
		l0.4-6.1h20.7c0.1-2.2,0.2-4.5,0.4-6.7h6.7c-0.2,2.2-0.4,4.5-0.5,6.7h5.5c-1.2-1.3-2.5-2.6-3.9-3.7L217.7,46.4 M166.9,46.4l6,1.6
		c-0.7,0.9-1.4,1.7-2,2.4h4.9l-0.3,3.9h-10.5l-0.1,1.1h9.2l-0.3,3.8h-9.2l-0.1,1.1h11.7l-0.3,4.2h-29l0.3-4.2h11.3l0.1-1.1h-8.8
		l0.3-3.8h8.8l0.1-1.1h-10.1l0.2-3.1c-1,1.9-2,3.9-3.2,5.8l-2.1,30.4h-5.8l1.5-21.4c-0.6,0.7-1.2,1.3-1.8,1.9
		c-0.7-2.1-1.6-4.2-2.6-6.2c4.3-4.3,7.6-9.4,9.9-15l5.4,1.8c-0.3,0.7-0.6,1.3-0.9,2h4.4c-0.4-0.8-0.9-1.6-1.3-2.3l5.1-1.7
		c1,1.2,1.8,2.5,2.4,3.9h4.9C165.6,49.2,166.3,47.8,166.9,46.4 M316,46.6l-0.4,5h15.8l-0.4,6.1h-9.8l5,0.9c-0.5,1.5-1,3-1.7,4.4
		c2.2,1.7,4.8,3.7,6.3,5.1l-4.6,4.3c-1-1.1-2.8-2.8-4.6-4.3c-0.8,1.1-1.6,2-2.6,2.9c-1-0.8-2.1-1.6-3.3-2.2
		c3.9,5.2,9.3,9.1,15.4,11.3c-1.9,1.7-3.6,3.6-5,5.8c-4.7-2.3-8.9-5.7-12.2-9.7l-0.8,11.3h-6.6l0.8-10.9c-3.8,4-8.4,7.2-13.4,9.5
		c-1.1-2-2.5-3.8-4-5.4c7.2-2.6,13.4-7.2,18.1-13.3l0.7-9.6H301l5.1,1c-0.5,1.5-1.1,3-1.7,4.4c1.3,1.2,2.7,2.4,3.5,3.3l-4.4,4.4
		c-0.7-0.8-1.4-1.6-2.1-2.4c-1.4,2-3.1,3.8-5,5.4c-1.4-1.5-2.9-2.9-4.5-4.1c3.9-2.6,6.8-7,8.3-12h-6.6l0.4-6.1h15.2l0.4-5H316
		 M314.7,67.1c2.7-2.6,4.6-5.9,5.6-9.4h0h-5l-0.7,9.3L314.7,67.1 M532.3,46.6l-0.1,1.5h6.7l-0.3,3.6H532l-0.1,1h2.1l0.9-0.2l3.3,1.8
		c-3.6,6.1-10.3,10.1-17,12.2c-0.7-1.4-1.6-2.6-2.7-3.7c1.9-0.5,3.7-1.2,5.4-2c-0.6-0.5-1.3-1.1-1.9-1.6c-0.4,0.3-0.8,0.6-1.3,0.8
		c-0.8-1.2-1.8-2.3-2.9-3.2c2.5-1.2,4.7-2.9,6.4-5l2.5,0.5l0.4-5.7H532.3 M527.6,58.6c1.2-0.8,2.4-1.7,3.4-2.8h-5
		c-0.3,0.3-0.6,0.6-1,0.9C526,57.3,526.8,57.9,527.6,58.6 M347.4,46.7l5.6,1.8c-1.1,2.8-2.4,5.5-3.8,8.1l-2.2,30.9H341l1.4-20.7
		c-0.7,0.9-1.5,1.8-2.3,2.6c-0.6-2.4-1.4-4.7-2.4-6.9C342,57.8,345.2,52.5,347.4,46.7 M553.9,47.7l3.3,1.4c-1.2,2.9-2.9,5.4-5.1,7.6
		c1.8,1,3.5,2.2,5.2,3.6l-4,3.8c-1.7-1.5-3.6-2.9-5.5-4c-1.6,0.9-3.3,1.7-5,2.3c-0.2-0.6-0.5-1.1-0.8-1.6c-0.3,0.3-0.6,0.5-0.8,0.8
		c4.3,2.6,11.4,5.1,17.5,6.4c-1.4,1.3-2.6,2.8-3.7,4.4c-1.5-0.4-3-0.9-4.6-1.5l-0.5,7.6c0.6-0.5,1.1-1,1.6-1.5l4.1,2.7
		c-1.3,0.9-2.7,1.9-4,2.8c1.3,0.5,2.6,1.1,3.8,1.9l-3.2,3.5c-4.3-2.4-8.9-4.4-13.6-5.8c-0.2,1.2-0.3,2.4-0.3,3.6
		c-10.4,1-12.2,1.3-13.4,1.9c-0.2-1.5-0.7-2.9-1.5-4.2c1-0.5,1.7-1.6,1.6-2.8l0.7-9.7c-1.8,0.7-3.5,1.3-5.3,1.8
		c-0.7-1.6-1.7-3.1-2.9-4.4c7.7-1.9,16.2-5.5,20.9-10.4l2.7,1.4c-0.3-0.4-0.6-0.8-0.9-1.1c0.9-0.3,1.8-0.6,2.7-1
		c-1.3-0.7-2.5-1.3-3.7-1.9l3.6-3.3h-2.8l0.3-4.1h12.8L553.9,47.7 M547.6,54.2c0.8-0.7,1.6-1.4,2.3-2.2h-6.9
		C544.4,52.6,546,53.3,547.6,54.2 M534.6,66.2h6c-1.1-0.6-2.1-1.3-3-2C536.7,64.9,535.7,65.6,534.6,66.2 M528.1,69.6h19.3
		c-1.5-0.6-2.9-1.3-4.3-2L543,69h-10.7l0.1-1.6C531.1,68.2,529.6,68.9,528.1,69.6L528.1,69.6 M531.2,73.4h13l0.1-0.7h-13L531.2,73.4
		 M531,76.3h13l0.1-0.8h-13L531,76.3 M547.1,80.6c0.5-0.4,1-0.8,1.5-1.2h-5C544.8,79.8,545.9,80.1,547.1,80.6 M530.6,81.6l5.7-0.4
		l-0.4-0.1l1.6-1.7h-6.7L530.6,81.6 M508.1,48.2l3.8,2.8c-2,3-4.4,5.7-7.1,8.2c1.1,0.7,2.2,1.4,3.2,2.1l-1.4,1.5h0.1l0.9-0.2
		l4.2,0.8c-0.9,3.9-2,7.7-3.3,11.4l-4.9-1c0.4-1.4,0.9-3.2,1.3-5.2H503l-0.9,12.3c-0.2,2.8-0.8,4.5-2.7,5.5c-1.9,0.9-4.3,1-7.4,1
		c-0.1-2.1-0.6-4.1-1.3-6.1c1,0.1,2,0.1,3,0.1c0.4,0,0.9,0,1.3,0c0.6,0,0.8-0.1,0.9-0.6l0.9-12.1h-5l0.4-5.9h7.6
		c-2.2-1.4-4.4-2.7-6.8-3.8l4.1-3.9c1,0.4,2,0.9,3.1,1.5c0.8-0.8,1.5-1.6,2.1-2.5h-9l0.4-5.5h13L508.1,48.2 M492.3,48.5l-1.3,19
		h-6.8l-0.2,2.8h6.8l-0.4,5.6h-6.8l-0.2,3.3c2.5-0.2,5-0.5,7.4-0.7l-0.3,5.5c-7.3,0.9-15.2,1.8-20.9,2.5l-0.3-6.1
		c2.3-0.2,5-0.4,8-0.6l0.3-3.8h-6.5l0.4-5.6h6.5l0.2-2.8h-6.7l1.3-19H492.3 M484.6,55.7h2l0.2-2.3h-2L484.6,55.7 M477.4,55.7h2.1
		l0.2-2.3h-2.1L477.4,55.7 M484.1,62.6h2l0.2-2.4h-2L484.1,62.6 M476.9,62.6h2.1l0.2-2.4h-2.1L476.9,62.6 M353,48.5L353,48.5
		L353,48.5 M379.2,48.5l-2.7,38.4h-5.9l0.2-2.1h-14.6l-0.2,2.5h-5.7l2.7-38.8H379.2 M356.5,79.5h14.6l1.8-25.5h-14.6L356.5,79.5
		L356.5,79.5 M79.7,48.6l-0.9,12.8H69l-0.2,2.9h11.8l-0.4,5.5H68.4l-0.2,2.7h9.3l-1,14.9h-6.2l0.1-1.1H57.6l-0.1,1.1h-6l1-14.9h9.3
		l0.2-2.7H51c-1,6.2-2.9,13-6.4,17.7c-1.6-1.3-3.4-2.4-5.4-3.3c5-6.4,6-16.1,6.5-23l0.9-12.7H79.7 M52.4,55.9h20.5L73,54h0H52.5
		L52.4,55.9 M51.7,64.3h10.8l0.2-2.9H52C51.9,62.2,51.9,63.2,51.7,64.3 M58,80.8h12.7l0.2-2.9H58.2L58,80.8 M367.8,54.5l-0.3,4.1
		h4.4l-0.3,4.4h-4.4l-0.2,3.2h3.7l-0.8,11.6h-11.8l0.8-11.6h3.3l0.2-3.2h-4l0.3-4.4h4l0.3-4.1H367.8 M362.8,73.7h2.7l0.2-3.3H363
		L362.8,73.7 M120.9,56.7l-0.4,5.2h-8.9c-0.8,0.7-1.6,1.3-2.4,1.8c1.3,1.3,2.3,2.8,3.1,4.5c2.8-1.9,5.4-3.9,7.9-6.2l4.9,4.1
		c-1.6,1.2-3.4,2.4-5.2,3.6c1.2,4.6,3.9,8.6,8.5,10.6c-1.7,1.5-3.2,3.2-4.4,5.1c-4.8-2.5-7.6-6.9-9.2-12.5l-0.9,0.5
		c0.7,5-0.6,9.7-2.9,11.6c-1.4,1.5-3.3,2.3-5.3,2.3c-0.1,0-0.3,0-0.4,0c-0.3,0-0.6,0-0.9,0c-0.8,0-1.6,0-2.5-0.1
		c0.1-1.9-0.4-3.9-1.2-5.6c-3.3,1.6-6.7,2.9-10.2,4c-0.7-1.8-1.7-3.6-2.9-5.1c6.9-1.5,15.3-4.9,19.8-8.4c-0.1-0.3-0.2-0.6-0.3-0.9
		c-5,2.8-10.3,5.1-15.8,6.7c-0.7-1.7-1.6-3.3-2.7-4.8c5.4-1,12.4-3.5,16.3-5.9c-0.2-0.3-0.4-0.5-0.6-0.8c-3.8,1.8-7.8,3.2-11.9,4.2
		c-0.8-1.7-1.7-3.3-2.8-4.9c4.5-0.7,8.9-2.1,13.1-3.9h-5.9l0.4-5.2H120.9 M107.7,77.9c-2.1,1.3-4.4,2.5-6.6,3.6
		c1.3,0.1,2.4,0.2,3.4,0.2h0c0.1,0,0.2,0,0.3,0c0.8,0,1.5-0.4,1.9-1.1C107.2,79.8,107.6,78.8,107.7,77.9 M255.3,57.1l-0.3,4h-14.7
		l0.3-4H255.3 M371.6,63.1L371.6,63.1L371.6,63.1 M203.8,63.7l-0.4,6h-6.3l-0.6,8.2c2.5-0.4,5-0.8,7.5-1.2l0,5.5
		c-7,1.5-14.6,2.9-20.3,4l-1.2-6.3c2.1-0.3,4.8-0.7,7.7-1.1l0.6-9.1H185l0.4-6H203.8 M158.7,64.7l2.7,3.5c-1.3,0.3-2.7,0.6-4.1,0.8
		l-0.1,1.9h4.9c0-1.8,0-3.7,0-5.6h5.4c0,0.6-0.1,1.2-0.1,1.8l3.4-2.3c1.6,1.1,3.1,2.4,4.4,3.8l-3.3,2.3h4l-0.3,4.1H170l4.5,1.5
		c-1.5,1.8-3.2,3.5-5.1,4.9c0.2,0.5,0.7,0.8,1.2,0.9c0.6,0,0.9-0.6,1.1-2.5c1,1,2.3,1.8,3.7,2.3c-1,4.3-2.5,5.2-5.5,5.2
		c-2,0-3.9-1.2-4.9-3c-1.5,0.9-3.1,1.7-4.8,2.4c-0.9-1.4-1.9-2.7-3-3.9c2.1-0.7,4.1-1.6,6-2.7c-0.5-1.7-0.8-3.4-1-5.2h-5.4l-0.1,1.1
		l4.1-0.3l-0.2,4.2l-4.2,0.4l-0.1,2c-0.2,2.3-0.7,3.4-2.3,4.1c-1.5,0.7-3.5,0.7-6.1,0.7c-0.2-1.5-0.6-3-1.2-4.4
		c0.8,0,1.6,0.1,2.3,0.1c0.5,0,0.9,0,1.1,0c0.5,0,0.7-0.1,0.7-0.6l0.1-1.4l-5.8,0.5l0-4.4c1.7-0.1,3.8-0.3,6.1-0.4l0.1-1.5h-5.8
		l0.3-4.1h5.8l0.1-1.3c-1.6,0.1-3.1,0.2-4.5,0.3c-0.2-1.2-0.5-2.4-0.9-3.6C150.6,66.2,154.7,65.6,158.7,64.7 M167.3,70.9h3.5
		c-1.1-1.2-2.2-2.3-3.5-3.3C167.3,68.8,167.3,69.9,167.3,70.9 M167.9,77c0.7-0.6,1.3-1.3,1.9-2h0h-2.2
		C167.7,75.8,167.8,76.4,167.9,77 M266.3,43.4l-1.3,0.8l-0.6,0.4h-2.1h-5.8h-1.9l-0.1,1.9c-0.1,0.7-0.1,1.5-0.1,2.3h-20.2h-1.9
		l-0.1,1.9l-0.5,7.9c-0.6,8-1.7,18-5.5,24.8l-1,1.8l1.8,0.9c1.6,0.8,3,1.8,4.3,3l1.9,1.7l1.2-2.2c0.4-0.6,0.7-1.3,1-2l2.5,1.3l1.8,1
		l0.7-1.5c1.4,1.4,3.4,1.5,5,1.5h2.9c1.7,0,2.9-0.4,3.8-1.1l0.1,0.7l2.3-1l3.8-1.6c1.3,2.2,3,3.3,5,3.3c5.9,0,7.7-4.1,9-11.8
		l0.2-1.5l-1.3-0.7c-1.4-0.7-2.7-1.7-3.7-2.9l-2.7-3.1c2.6-2.9,4.8-6.1,6.5-9.5l1.1-2.2l-0.2-0.1l0.1-1.5l0.4-5.1l0.1-2.1h-1
		l-0.7-0.7c-1.2-1.3-2.5-2.5-3.8-3.6L266.3,43.4L266.3,43.4z M113.3,43.6l-1.6,0.4l-6.8,1.9l-2.1,0.6l0.5,1.2H90.8h-1.9l-0.1,1.9
		L88,59.9L87.9,62H90h4.7l0,0.7c-1.8,0.5-3.6,0.9-5.5,1.2l-3.2,0.5L88,67c0.8,1.2,1.6,2.4,2.2,3.8c-0.7,0.2-1.3,0.3-2,0.4l-3.1,0.6
		l1.9,2.5c0.9,1.2,1.6,2.4,2.2,3.7c-0.7,0.2-1.4,0.3-2.1,0.5l-3.1,0.7l1.9,2.5c1.1,1.4,1.9,3,2.6,4.7l0.7,1.8l1.8-0.6
		c2.9-0.9,5.7-2,8.5-3.2c0.2,0.9,0.4,1.9,0.3,2.9l-0.1,2l2,0.1c0.8,0,1.7,0.1,2.6,0.1c0.3,0,0.6,0,0.9,0c0.1,0,0.3,0,0.4,0
		c2.5,0,4.9-1,6.6-2.8c1.6-1.4,2.7-3.7,3.3-6.4c1.9,3.1,4.3,5.5,7.4,7.1l1.6,0.8l1-1.5c1.1-1.7,2.5-3.3,4.1-4.7l2.4-2.1l-3-1.3
		c-3.9-1.7-5.9-5-6.9-7.9c1.4-0.9,2.8-1.9,4-2.8l2-1.5l-1.9-1.6l-3.1-2.7h4.7h1.9l0.1-1.9l0.7-10.3l0.1-2.1h-2.1h-13.5
		c-0.3-0.9-0.7-1.8-1.1-2.6L113.3,43.6L113.3,43.6z M112.4,64h2.5c-0.6,0.5-1.2,0.9-1.9,1.4c-0.3-0.4-0.5-0.8-0.8-1.2
		C112.2,64.1,112.3,64,112.4,64L112.4,64z M217.6,43.9l-1.2,0.9l-2.1,1.7l0.2-1.7h-2.2h-6.7h-1.9l-0.1,1.9c-0.1,1.6-0.2,3.2-0.3,4.9
		h-18.8h-1.9l-0.1,1.9l-0.4,6.1l-0.1,2.1h2.1h19c0,0,0,0.1,0,0.1h-17.7h-1.9l-0.1,1.9l-0.4,6l-0.1,2.1h2.1h3.7l-0.4,5.4
		c-2.4,0.4-4.4,0.6-6.1,0.8l-2.1,0.3l0.4,2.1l1.2,6.3l0.4,2l2-0.4l3.5-0.7c5.2-1,11.1-2.2,16.8-3.4l1.6-0.3l0-1.5
		c0.8,1.9,1.8,3.5,2.9,4.6c1.6,1.6,3.6,2.5,5.8,2.5c6.7,0,8.8-4.4,10.2-12.1l0.3-1.6l-1.5-0.6c-1.7-0.7-3.2-1.8-4.5-3.2l-3-3.2
		l-0.5,4.4c-0.2,1.5-0.3,2.7-0.5,3.6c-0.8-2.8-1.5-7.9-1.6-15h9.2h1.9l0.1-1.9l0.4-6.1l0.1-2.1h-0.2l0.4-0.3l-1.4-1.6
		c-1.6-1.8-3.4-3.4-5.4-4.8L217.6,43.9L217.6,43.9z M198.9,71.7h4.4h0.2c0.1,1,0.2,2,0.4,2.9l-0.4,0.1c-1.6,0.3-3.3,0.6-5,0.8
		L198.9,71.7L198.9,71.7z M165.7,44.1l-0.7,1.6c-0.4,1-0.9,1.9-1.4,2.8h-2.5c-0.6-1.1-1.3-2.2-2.1-3.2l-0.9-1.1l-1.3,0.4l-5.1,1.7
		l-0.9,0.3l-0.1,0l-5.4-1.8l-1.8-0.6l-0.7,1.7c-2.2,5.4-5.4,10.2-9.5,14.4l-1,1l0.7,1.3c1,1.9,1.8,3.9,2.5,5.9l1,3.1l0.2-0.3
		l-1.1,15.9l-0.2,2.1h2.1h5.8h1.9l0.1-1.9l0.1-1.3c0.1,0.4,0.2,0.9,0.2,1.3l0.2,1.8h1.8c2.9,0,5.1-0.1,7-0.9c1.2-0.5,2-1.3,2.5-2.1
		c0.4,0.5,0.8,1.1,1.2,1.7l0.9,1.4l1.6-0.7c1.2-0.5,2.3-1,3.4-1.6c1.4,1.5,3.3,2.3,5.4,2.4c4.2,0,6.3-1.9,7.5-6.8l0.4-1.7l-1.7-0.6
		c-0.5-0.2-1.1-0.5-1.6-0.8c0.5-0.6,1-1.1,1.5-1.7l0.7-0.8h0.7l0.1-1l0.4-0.5l-0.3-0.1l0-0.3l0.3-4.1l0.1-1.9l0.2-0.2l-1.5-1.7
		c-0.3-0.3-0.5-0.6-0.8-0.8h0h1.9l0.1-1.9l0.3-4.2l0.1-2.1h-2.1h-0.3l0.1-2h1.3l0.1-1.9l0.3-4l0.1-2.1h-2.1h-0.6l1.3-1.5l-3-0.8
		l-6-1.6L165.7,44.1L165.7,44.1z M147.7,57.6c0-0.1,0.1-0.1,0.1-0.2l-0.1,1h-0.1L147.7,57.6L147.7,57.6z M346.1,44.2l-0.7,1.8
		c-2.1,5.6-5.2,10.7-9.2,15.1l-0.9,1l0.5,1.2c1,2.1,1.7,4.3,2.3,6.5l0.9,3.5l1-1l-1,15l-0.1,2.1h2.1h5.9h1.9l0-0.1h1.5h5.7h1.9
		l0.1-1.9l0-0.6h10.6l-0.2,2.1h2.1h5.9h1.9l0.1-1.9l2.7-38.4l0.1-2.1h-2.1h-25.5l-0.1,0l-5.6-1.8L346.1,44.2L346.1,44.2z
		 M369.7,55.9h1.1l-0.1,0.7h-1.1L369.7,55.9L369.7,55.9z M360.2,55.9h0.8l0,0.7h-0.8L360.2,55.9L360.2,55.9z M318.2,44.6H316h-6.6
		h-1.9l-0.1,1.9l-0.2,3.2h-13.3H292l-0.1,1.9l-0.4,6.1l-0.1,2.1h2.1h3.7c-1.5,3.6-3.8,6.5-6.5,8.4l-2.3,1.6l2.3,1.7
		c1.5,1.1,3,2.4,4.2,3.8l0.6,0.6c-2,1.2-4.1,2.1-6.2,2.9l-2.9,1l2.1,2.2c1.4,1.5,2.7,3.2,3.8,5l0.9,1.6l1.7-0.7
		c3.7-1.7,7.1-3.8,10.2-6.4l-0.4,5.8l-0.1,2.1h2.1h6.6h1.9l0.1-1.9l0.5-6.6c2.8,2.7,6.1,5,9.6,6.8l1.6,0.8l1-1.5
		c1.3-2,2.9-3.8,4.7-5.4l2.5-2.2l-3.2-1.2c-4-1.5-7.6-3.7-10.7-6.5c0.2-0.2,0.5-0.5,0.7-0.8c1.3,1.2,2.3,2.1,2.9,2.8l1.4,1.5
		l1.5-1.4l4.6-4.3l1.6-1.5l-1.5-1.5c-1.2-1.2-3.3-2.8-5.2-4.3c0.4-0.9,0.7-1.8,1-2.7h3h1.9l0.1-1.9l0.4-6.1l0.1-2.1h-2.1h-13.6
		l0.2-2.9L318.2,44.6L318.2,44.6z M317.1,59.7h0.3c-0.1,0.3-0.2,0.5-0.4,0.8L317.1,59.7L317.1,59.7z M534.5,44.6h-2.1h-5.2h-1.9
		l-0.1,1.9l-0.2,3.4l-0.3-0.1l-1.2-0.2l-0.8,0.9c-1.6,1.9-3.6,3.4-5.8,4.5l-2.9,1.4l2.6,2c0.8,0.6,1.5,1.4,2.1,2.2
		c-0.3,0.1-0.5,0.2-0.8,0.2l-3.2,0.9l2.3,2.4c0.5,0.5,1,1.1,1.4,1.7c-0.5,0.1-1,0.3-1.5,0.4l-3.2,0.8l2.2,2.5c1,1.1,1.9,2.4,2.5,3.9
		l0.7,1.6l1.7-0.5c0.9-0.3,1.7-0.5,2.5-0.8l-0.5,6.6l0,0.1l0,0.1c0,0.4-0.2,0.7-0.5,0.9l-2,1l1.1,1.9c0.6,1,1,2.2,1.2,3.4l0.4,2.6
		l2.4-1.1c0.9-0.4,3.1-0.8,12.8-1.7l1.8-0.2l0-1.8c0-0.3,0-0.6,0-1c3.8,1.3,7.4,3,10.9,4.9l1.4,0.8l1.1-1.2l3.2-3.5l1.7-1.8
		l-2.2-1.2c-0.3-0.2-0.5-0.3-0.8-0.5c0.4-0.3,0.8-0.6,1.2-0.8l2.4-1.7l-2.4-1.6l-4.1-2.7l-0.4-0.3l0.1-1.4c0.8,0.3,1.5,0.5,2.2,0.7
		l1.4,0.4l0.8-1.2c1-1.5,2.1-2.8,3.4-4l2.8-2.6l-3.7-0.8c-1.3-0.3-2.6-0.6-3.8-0.9l3.5-3.3l1.7-1.6l-1.8-1.4
		c-1.1-0.9-2.2-1.7-3.3-2.4c1.6-1.9,2.9-4.1,3.8-6.4l0.7-1.8l-1.8-0.8l-3.3-1.4l-0.5-0.2l-0.6,0.1l-0.8,0.1h-12.7h-1.9l0,0.2h-3.9
		L534.5,44.6L534.5,44.6z M547.5,62.4c0,0,0.1,0,0.1-0.1c0.1,0.1,0.3,0.2,0.4,0.2C547.9,62.5,547.7,62.4,547.5,62.4L547.5,62.4z
		 M508.5,46l-0.9,0.2l-1.1,0.3h-12.8h-1.9l0,0h-19H471l-0.1,1.9l-1.3,19l-0.1,2.1h0.1l0,0.6l-0.4,5.6l-0.1,2.1h2.1h3.5
		c-2,0.2-3.8,0.3-5.4,0.4l-1.9,0.1l0.1,1.9l0.3,6.1l0.1,2.2l2.1-0.3c1.9-0.2,4.1-0.5,6.3-0.7c4.3-0.5,9.1-1.1,13.7-1.6
		c0.1,0.5,0.1,1,0.2,1.6l0.1,1.9h1.9c3.3,0,5.9-0.1,8.3-1.2c3.1-1.5,3.7-4.4,3.9-7.1l0.3-5l3.5,0.7l1.7,0.3l0.6-1.6
		c1.4-3.8,2.5-7.7,3.4-11.7l0.5-2l-2-0.4l-1.3-0.3L511,61l-1.8-1.3c-0.4-0.3-0.8-0.6-1.2-0.9c2-2.1,3.9-4.3,5.5-6.7l1.1-1.6
		l-1.5-1.1l-3.7-2.8L508.5,46L508.5,46z M492.8,70.6h1.9l-0.6,8.8c-0.1,0-0.2,0-0.3,0c-0.4,0-0.7,0-1.1,0l0-0.9l0.1-2.3l-0.5,0
		l0-0.3L492.8,70.6L492.8,70.6z M81.9,46.6h-2.1H46.6h-1.9l-0.1,1.9l-0.9,12.7c-0.5,7.6-1.7,16.2-6,21.9l-1.6,2l2.4,1
		c1.8,0.8,3.4,1.8,4.9,3l1.6,1.3l1.3-1.7c1.5-1.9,2.7-4.3,3.8-7l-0.4,5.5l-0.1,2.1h2.1h6h1.9l0.1-1.1h8.7l-0.1,1.1h2.1h6.2h1.9
		l0.1-1.9l1-14.9l0.1-0.8h0.7h1.9l0.1-1.9l0.4-5.5l0.1-2.1h-2l0.1-0.8l0.9-12.8L81.9,46.6L81.9,46.6z"/>
</g>
<path id="偽" class="st3" d="M420.6,76.3c1,3.5,1.7,7,2,10.6l5.5-1.3c-0.4-3.5-1.1-7-2.3-10.4L420.6,76.3z M426.8,75.6
	c1.3,2.6,2.4,5.4,3.1,8.2l4.7-1.9c-0.8-2.8-1.9-5.4-3.4-7.9L426.8,75.6z M411.6,44.3c1.4,1.8,2.5,3.7,3.4,5.7l6.2-3
	c-1-2-2.3-3.8-3.8-5.5L411.6,44.3z M435.1,63.1c-0.1,1-0.2,2-0.3,3l-13.1,1.2c0.6-1,1.1-2,1.6-3.1L435.1,63.1z M407.5,55.4
	c0.6-1.4,1.1-2.9,1.7-4.4l0.5,5.5l9.9-0.9c-2.1,6.3-5.7,12-10.5,16.6L407.5,55.4z M431.8,54.5c-0.1,1.1-0.2,2.2-0.3,3.2l-5.7,0.5
	c0.4-1.1,0.7-2.2,1.1-3.3L431.8,54.5z M441.7,65.4c0.2-2.7,0.4-5.9,0.5-8.8l-3.9,0.4c0.3-2.8,0.5-6.2,0.6-9.2l-10.4,1
	c0.6-2.3,1-4.7,1.3-7.1l-6.8-0.7c-0.4,2.9-0.9,5.7-1.6,8.5l-12.1,1.1c0.7-2,1.3-4.1,1.9-6.1L404,43c-1.7,7.2-5.1,14.5-9,19.3
	c1.7,2.4,3.3,4.8,4.6,7.5c0.7-0.8,1.2-1.7,1.9-2.6l2.3,24.6l7.1-0.7l-1.4-15.4c1,1.2,1.9,2.6,2.7,3.9c0.8-0.8,1.7-1.6,2.5-2.5
	c-0.3,3.4-1.3,6.7-3.1,9.6l5.5,3.1c2.2-3.4,3-8.2,3.4-12.6l-5-1.1c0.7-0.7,1.4-1.5,1.9-2.3l21.6-2c0,1.9,0,3.5,0,4.8
	c-0.7-1.5-1.6-2.8-2.6-4.1l-3.9,1.8c1.4,1.9,2.4,4.1,3.2,6.3l3.1-1.5c0,0.9-0.2,1.9-0.7,2.7c-0.4,0.5-0.9,0.8-1.6,0.8
	c-0.8,0.1-2.3,0.2-4,0.2c1.2,1.8,2,3.8,2.4,6c1.9-0.1,3.8-0.3,5.7-0.7c1.5-0.3,2.9-1.2,3.7-2.5c1.3-1.9,1.7-6.7,1.4-17.9l-0.1-2.6
	L441.7,65.4z"/>
<g>
	<path id="矩形_11_拷貝_3_" class="st1" d="M440,117.9l-403.7-7.8l16,51.1l379.7-4.5L440,117.9z"/>
	<path id="矩形_11_拷貝_1_" d="M40.4,113.2l395.9,7.6l-6.8,32.9l-375,4.5L40.4,113.2 M36.3,110.1l16,51.1l379.7-4.5l8-38.8
		L36.3,110.1L36.3,110.1z"/>
</g>
<g>
	<path id="矩形_11_3_" class="st3" d="M442,113.9l-404.7-3.8l17,47.1l379.7-4.5L442,113.9z"/>
	<path id="矩形_11_1_" d="M41.6,113.2l396.7,3.7l-6.7,32.9l-375.1,4.5L41.6,113.2 M37.3,110.1l17,47.1l379.7-4.5l8-38.8
		L37.3,110.1L37.3,110.1z"/>
</g>
<path id="偷偷說...獨家啦_地獄料理都變好吃ㄌ_" class="st1" d="M72.4,126.1c-1.1,2.4-2.5,4.6-4.3,6.6
	c0.3,0.7,0.5,1.4,0.6,2.2c0.4-0.4,0.7-0.8,1.1-1.2l-1.5,8.3h1.9l2.1-11.9c0.7-1.1,1.3-2.3,1.9-3.4L72.4,126.1z M74,137.3
	c0.1-0.3,0.1-0.6,0.2-1h1.7l-0.2,1H74z M76.3,134l-0.2,0.9h-1.7l0.2-0.9H76.3L76.3,134z M78.2,132.5h-5.1l-0.6,3.6
	c-0.2,1.7-0.8,3.4-1.8,4.9c0.5,0.3,0.9,0.6,1.3,1c0.7-1,1.3-2.1,1.6-3.3h1.9l-0.2,1.3c0,0.1-0.1,0.2-0.2,0.2c0,0,0,0,0,0
	c-0.1,0-0.5,0-1,0c0.2,0.5,0.2,1.1,0.2,1.7c0.6,0.1,1.3,0,1.8-0.3c0.5-0.3,0.8-0.9,0.8-1.5L78.2,132.5z M80.2,139.9
	c0,0.2-0.1,0.3-0.3,0.3c0,0,0,0,0,0c-0.2,0-1,0-1.7,0c0.2,0.5,0.2,1.1,0.2,1.7c0.8,0.1,1.7,0,2.5-0.3c0.6-0.3,1-0.9,1-1.6l1.4-7.7
	h-1.7L80.2,139.9z M80.6,132.9H79l-1.1,6.2h1.5L80.6,132.9z M76.2,130.1c1-0.6,1.9-1.2,2.8-1.9c0.7,0.7,1.5,1.4,2.3,1.9H76.2z
	 M79.3,125.9c-1.8,1.8-4.1,3.1-6.5,3.9c0.4,0.5,0.7,1,1,1.5c0.5-0.2,0.9-0.4,1.4-0.6l-0.2,1h6.6l0.2-1.3c0.5,0.3,0.9,0.5,1.4,0.8
	c0.4-0.6,0.9-1.1,1.4-1.6c-1.6-0.5-3.1-1.3-4.3-2.5c0.1-0.2,0.3-0.3,0.4-0.4L79.3,125.9z M89.8,126.1c-1.1,2.4-2.5,4.6-4.3,6.6
	c0.3,0.7,0.5,1.4,0.6,2.2c0.4-0.4,0.7-0.8,1.1-1.2l-1.5,8.3h1.9l2.1-11.9c0.7-1.1,1.3-2.3,1.9-3.4L89.8,126.1z M91.4,137.3
	c0.1-0.3,0.1-0.6,0.2-1h1.7l-0.2,1H91.4L91.4,137.3z M93.8,134l-0.2,0.9h-1.7L92,134H93.8z M95.7,132.5h-5.1l-0.6,3.6
	c-0.2,1.7-0.8,3.4-1.8,4.9c0.5,0.3,0.9,0.6,1.3,1c0.7-1,1.3-2.1,1.6-3.3h1.9l-0.2,1.3c0,0.1-0.1,0.2-0.2,0.2c0,0,0,0,0,0
	c-0.1,0-0.5,0-1,0c0.2,0.5,0.2,1.1,0.2,1.7c0.6,0.1,1.3,0,1.8-0.3c0.5-0.3,0.8-0.9,0.8-1.5L95.7,132.5z M97.7,139.9
	c0,0.2-0.1,0.3-0.3,0.3c0,0,0,0,0,0c-0.2,0-1,0-1.7,0c0.2,0.5,0.2,1.1,0.2,1.7c0.8,0.1,1.7,0,2.5-0.3c0.6-0.3,1-0.9,1-1.6l1.4-7.7
	H99L97.7,139.9z M98,132.9h-1.5l-1.1,6.2h1.5L98,132.9z M93.7,130.1c1-0.6,1.9-1.2,2.8-1.9c0.7,0.7,1.5,1.4,2.3,1.9H93.7L93.7,130.1
	z M96.7,125.9c-1.8,1.8-4.1,3.1-6.5,3.9c0.4,0.5,0.7,1,1,1.5c0.5-0.2,0.9-0.4,1.4-0.6l-0.2,1H99l0.2-1.3c0.5,0.3,0.9,0.5,1.4,0.8
	c0.4-0.6,0.9-1.1,1.4-1.6c-1.6-0.5-3.1-1.3-4.3-2.5c0.1-0.2,0.3-0.3,0.4-0.4L96.7,125.9z M112.3,132.4h3l-0.3,1.9h-3L112.3,132.4z
	 M105.9,139.4h-1.6l0.3-1.9h1.6L105.9,139.4z M115.1,139.9c-0.2,0-0.3-0.1-0.2-0.5l0.6-3.4h1.1l0.9-4.9c0.1,0.2,0.2,0.4,0.2,0.6
	l1.7-1.1c-0.7-1.6-1.7-3.1-2.8-4.5L115,127c0.8,1.1,1.5,2.3,2.2,3.5h-5.8c1.1-1.1,2.2-2.4,3-3.7l-1.8-0.6c-0.8,1.3-1.8,2.5-3,3.5
	l0.2-0.9h-3l1.4-0.5c-0.1-0.8-0.3-1.5-0.5-2.2l-1.8,0.5c0.2,0.7,0.4,1.4,0.4,2.1h-2.5l-0.3,1.6h5.3l-0.1,0.1
	c0.4,0.4,0.8,0.9,1.2,1.4c0.2-0.2,0.5-0.4,0.7-0.6l-0.8,4.6h1.1c-0.5,2-1.2,3.5-3.4,4.4l0.8-4.6h-5l-1,5.9h1.7l0.1-0.7h3.3l0.1-0.4
	c0.3,0.4,0.6,0.9,0.8,1.4c3-1.2,4-3.3,4.7-6h0.8l-0.6,3.4c-0.3,1.8-0.1,2.4,1.5,2.4h1.1c1.2,0,1.8-0.6,2.4-2.9
	c-0.6-0.1-1.1-0.4-1.6-0.8c-0.3,1.6-0.4,1.8-0.7,1.8H115.1L115.1,139.9z M103.3,135h4.8l0.3-1.5h-4.8L103.3,135z M108.8,131.2H104
	l-0.3,1.5h4.8L108.8,131.2z M121.2,140.7c0.9,0,1.7-0.7,1.9-1.6c0.2-0.7-0.2-1.4-0.9-1.6c-0.1,0-0.3-0.1-0.4,0
	c-0.9,0-1.7,0.7-1.8,1.6c-0.2,0.7,0.2,1.4,0.9,1.6C121,140.7,121.1,140.7,121.2,140.7L121.2,140.7z M127.2,140.7
	c0.9,0,1.7-0.7,1.9-1.6c0.2-0.7-0.2-1.4-0.9-1.6c-0.1,0-0.3-0.1-0.4,0c-0.9,0-1.7,0.7-1.8,1.6c-0.2,0.7,0.2,1.4,0.9,1.6
	C126.9,140.7,127.1,140.7,127.2,140.7L127.2,140.7z M133.1,140.7c0.9,0,1.7-0.7,1.9-1.6c0.2-0.7-0.2-1.4-0.9-1.6
	c-0.1,0-0.3-0.1-0.4,0c-0.9,0-1.7,0.7-1.8,1.6c-0.2,0.7,0.2,1.4,0.9,1.6C132.9,140.7,133,140.7,133.1,140.7L133.1,140.7z
	 M153.4,137.3l0.8-4.3h-3.3l0.2-1h-1.9l-0.2,1h-2.7c0.5-0.4,1-0.8,1.4-1.3h8c-1.1,5.6-1.6,7.6-2,8.1c-0.1,0.1-0.2,0.2-0.4,0.3
	c-0.1-0.9-0.3-1.9-0.6-2.7H153.4z M149.9,138.5l0.2-1.2h2.1l-1.3,0.4c0.1,0.2,0.2,0.5,0.2,0.7L149.9,138.5z M150.6,134.6h1.4
	l-0.2,1.3h-1.4L150.6,134.6z M147.1,135.8l0.2-1.3h1.4l-0.2,1.3H147.1L147.1,135.8z M148.9,125.2h1.3l-0.3,1.6h-1.3L148.9,125.2z
	 M152,125.2h1.4l-0.3,1.6h-1.4L152,125.2z M155,125.2h1.4l-0.3,1.6h-1.4L155,125.2z M149.3,129.7c0.3-0.3,0.5-0.7,0.7-1.1h8l0.9-5.3
	h-11.9l-0.9,5.3h1.4c-0.8,1.1-1.8,2.2-2.9,3c0.2-1.6,0.1-3.2-0.2-4.8c0.9-1,1.8-2,2.5-3.1l-2-1.1c-0.4,0.6-0.9,1.3-1.4,1.9
	c-0.4-0.7-0.9-1.4-1.5-2l-2,1.3c0.7,0.8,1.3,1.6,1.7,2.6c-0.9,0.8-1.8,1.6-2.8,2.3c0.5,0.5,1,1,1.4,1.6c0.7-0.5,1.3-1,2-1.5
	c0.1,0.7,0.1,1.4,0,2.1c-1.3,1.7-2.8,3.1-4.6,4.3c0.5,0.6,1,1.2,1.3,1.9c1-0.8,1.9-1.7,2.8-2.6c-0.4,2.4-1,4.4-1.5,4.9
	c-0.2,0.2-0.4,0.3-0.7,0.4c-0.6,0.1-1.3,0-1.9,0c0.3,0.8,0.3,1.6,0.2,2.4c0.8,0.1,1.7,0,2.5-0.2c0.5-0.1,1-0.4,1.4-0.8
	c1.2-1.3,1.9-4.3,2.4-7.3c0.1-0.6,0.2-1.1,0.2-1.6c0.4,0.3,0.8,0.7,1.1,1.1l-0.7,3.9h3.2l-0.2,1.4c-1.5,0.1-3,0.3-4.1,0.3l-0.1,2.1
	c2.1-0.2,4.9-0.6,7.7-0.9c0,0.3,0.1,0.5,0.1,0.8l0.3-0.1c0.1,0.4,0.1,0.9,0,1.4c0.7,0,1.4,0,2.1-0.1c0.6-0.1,1.2-0.4,1.6-0.9
	c0.7-0.8,1.3-3.4,2.7-10.5c0.1-0.3,0.2-1,0.2-1L149.3,129.7L149.3,129.7z M164.5,126.5h13.2l-0.4,2.5h2.6l0.8-4.8h-7.5
	c-0.1-0.6-0.3-1.3-0.6-1.9l-2.8,0.8c0.1,0.4,0.2,0.7,0.3,1.1h-7.7l-0.8,4.8h2.5L164.5,126.5z M176.2,130.1c-1.4,1.2-3,2.3-4.6,3.2
	c-0.3-0.9-0.7-1.8-1.4-2.6c0.5-0.3,1-0.6,1.4-1h4.7l0.4-2.1h-11.8l-0.4,2.1h3.6c-2.3,1.1-4.7,1.9-7.2,2.3c0.4,0.6,0.7,1.3,0.9,2
	c2.2-0.5,4.3-1.3,6.3-2.2c0.2,0.2,0.3,0.5,0.5,0.7c-2.7,1.4-5.5,2.5-8.5,3.1c0.4,0.6,0.7,1.3,0.9,1.9c2.9-0.9,5.6-2,8.2-3.4
	c0.1,0.3,0.1,0.5,0.2,0.8c-3.1,2.1-6.6,3.5-10.2,4.3c0.4,0.6,0.7,1.4,0.9,2.1c3.2-1,6.3-2.3,9.3-4.1c-0.1,0.8-0.4,1.5-1,2.1
	c-0.3,0.4-0.8,0.6-1.2,0.5c-0.6,0-1.3,0-1.9-0.1c0.3,0.8,0.4,1.6,0.3,2.4c0.6,0,1.2,0,1.7,0c1,0,2-0.3,2.7-1c1.2-0.9,2.2-3.3,2-5.9
	c0.2-0.1,0.5-0.3,0.7-0.4c0.5,2.9,1.8,5.1,4.1,6.3c0.6-0.8,1.3-1.4,2-2.1c-2.2-1-3.7-3.1-4-5.6c1-0.6,2.1-1.3,3.1-2L176.2,130.1z
	 M202.4,126.1H198l2-0.6c0-1.1-0.2-2.2-0.4-3.3l-2.2,0.6c0.2,1.1,0.3,2.2,0.3,3.3h-3l-0.4,2.2h7.8L202.4,126.1z M195.7,138.3
	c0.5-3.1,0.7-6.2,0.7-9.3l-2,0.4c-0.1,3.2-0.4,6.3-0.9,9.4L195.7,138.3z M186.6,126.7l-1.4,7.8H184l1.4-7.8H186.6L186.6,126.7z
	 M189,124.4h-5.1l-2.5,14.3h1.9l0.3-1.9h3.2L189,124.4z M193.2,131.5l-1.4,0.4l0.5-3h1.4l0.4-2.2h-1.4l0.7-4.1h-2.2l-0.7,4.1h-1.5
	l-0.4,2.2h1.5l-0.7,3.8c-0.7,0.2-1.4,0.4-1.9,0.6l0.3,2.3l1.2-0.4l-0.8,4.7c0,0.2-0.1,0.3-0.3,0.3c0,0,0,0,0,0c-0.2,0-0.9,0-1.5,0
	c0.2,0.7,0.3,1.5,0.3,2.2c0.9,0.1,1.8-0.1,2.6-0.5c0.7-0.5,1.1-1.2,1.2-2.1l1-5.6c0.6-0.2,1.2-0.5,1.8-0.7L193.2,131.5z M198,139.4
	c1.1-2.9,2.5-6.9,3.5-10.2l-2.3-0.4c-0.9,3.6-2,7.1-3.3,10.6h-4.4l-0.4,2.2h8.8l0.4-2.2L198,139.4L198,139.4z M205.2,135.1h2
	l1.8-7.8l0.6-2.9h-3.1l-0.4,2.9L205.2,135.1z M205.2,140.7c1.1,0,2.1-0.9,2.3-2c0.2-0.9-0.3-1.7-1.1-2c-0.2,0-0.3-0.1-0.5-0.1
	c-1.1,0-2.1,0.9-2.3,2c-0.2,0.8,0.2,1.7,1.1,2C204.9,140.7,205.1,140.7,205.2,140.7L205.2,140.7z M216.4,134.4l0.8-4.6h2l0.4-2.4h-2
	l0.8-4.6h-2.3l-0.8,4.6H213l-0.4,2.4h2.3l-1,5.6c-1.1,0.4-2.1,0.8-2.9,1l0.6,2.5c2.1-0.9,4.6-2,7-3.1l-0.2-2.2L216.4,134.4z
	 M222.6,139.6c-1.3,0-1.4-0.2-1.2-1.4l1.2-6.5l1.9-0.8l-1.1,6.4h2.3l1.3-7.5l1.8-0.7c-0.5,2.5-1.2,5.2-1.7,6.9l2,0.6
	c1.1-3,1.9-6.2,2.6-9.3l0.2-0.4l-1.8-0.6l-2.5,1l0.8-4.8h-2.3l-1,5.8l-1.9,0.7l0.8-4.5h-2.4l-1,5.6l-2.2,0.9l0.5,2.2l1.2-0.5l-1,5.4
	c-0.5,2.9,0.2,3.7,3,3.7h4.5c2.5,0,3.4-1,4.2-4c-0.7-0.2-1.4-0.5-2-0.9c-0.6,2.1-0.9,2.6-2,2.6L222.6,139.6L222.6,139.6z
	 M239.5,122.8c-0.4,0.7-0.9,1.3-1.4,1.9c-0.3-0.7-0.7-1.4-1.1-2l-1.9,1.2c0.6,0.8,1,1.7,1.3,2.7c-0.8,0.7-1.6,1.4-2.4,2
	c0.5,0.5,0.9,1,1.3,1.5c0.5-0.4,1-0.8,1.5-1.2c0,0.6,0,1.2,0,1.8c-1,1.7-2.4,3.2-3.9,4.5c0.4,0.6,0.8,1.3,1,2
	c0.8-0.8,1.6-1.6,2.3-2.5c-0.4,2.2-0.9,4.3-1.4,4.7c-0.1,0.2-0.4,0.3-0.6,0.3c-0.5,0.1-1,0.1-1.5,0c0.2,0.7,0.3,1.5,0.1,2.3
	c0.7,0,1.4,0,2.1-0.2c0.5-0.1,0.9-0.3,1.3-0.7c1.1-1.3,1.8-4.3,2.3-7.3c0.5-2.3,0.6-4.6,0.3-6.9c0.9-0.9,1.7-2,2.5-3L239.5,122.8z
	 M242.6,138.9h-2.1l0.4-2.1h2.1L242.6,138.9z M253.4,130.1l0.4-2.1H251c0.2-1.1,0.4-2.3,0.6-3.4c0.4,1,0.6,2,0.8,3l1.8-0.7
	c-0.2-1-0.5-2.1-0.9-3l-1.6,0.6l0.3-1.5h-2.2c-0.3,1.7-0.6,3.4-0.9,5h-1.6l0.3-1.9h-3.8l1.7-0.7c-0.2-0.9-0.5-1.8-0.9-2.6l-2,0.7
	c0.3,0.9,0.6,1.7,0.7,2.6h-3.1l-0.3,2h7.1l-0.3,1.9h1.9c-0.9,3.9-2.1,7.3-4.1,9.7l0.9-4.9h-5.8l-1.2,6.8h1.9l0.2-1.1h3.2l0,0
	c0.6,0.4,1.1,1,1.4,1.6c1.7-1.7,3-3.8,3.9-6c-0.1,2.1,0.4,4.1,1.5,5.9c0.6-0.8,1.3-1.5,2.1-2.1c-1.7-1.9-1.8-5.8-1.4-10L253.4,130.1
	L253.4,130.1z M239.5,134h5.9l0.3-2h-5.9L239.5,134z M246.2,129.1h-5.9l-0.3,2h5.9L246.2,129.1z M270.7,126.2
	c-0.8-1-1.8-1.9-2.9-2.6l-1.5,1.7c1.1,0.8,2,1.7,2.8,2.7L270.7,126.2z M264.4,130.7c1.1,0.7,2.1,1.6,3,2.6l1.6-2
	c-0.9-1-2-1.8-3.1-2.4L264.4,130.7z M263.7,123.8c-0.6,1.7-1.3,3.3-2,4.9l1.5,0.4c0.7-1.2,1.7-3.2,2.6-4.9L263.7,123.8z
	 M258.8,128.7c0.1-1.6,0.1-3.2-0.2-4.8l-1.8,0.4c0.2,1.6,0.3,3.3,0.1,4.9L258.8,128.7z M260.7,133.3l0.3-1.4h3.1l0.4-2.4h-3.1l1.2-7
	h-2.3l-1.2,7h-3.2l-0.4,2.4h3.2l-0.2,1.3l-1.4-0.5c-0.7,1.7-1.6,3.3-2.9,4.6c0.3,1,0.5,2,0.6,3c1.5-1.6,2.6-3.5,3.3-5.6l-1.3,7.5
	h2.3l1.3-7.3c0.3,1.2,0.6,2.3,0.8,3.5l2.1-1.9c-0.5-1.3-1-2.6-1.6-3.9L260.7,133.3z M274.4,136.1l0-2.3l-2.2,0.4l2-11.6h-2.4
	l-2.1,12.1l-6.5,1.1l0,2.3l6.1-1.1l-0.9,5.3h2.4l1-5.7L274.4,136.1z M283.1,135.7c-0.7,0.2-1.5,0.4-2.2,0.6l0.7-4.2h1.9l0.4-2.3
	h-1.9l0.7-3.7h2.3l0.4-2.4h-7l-0.4,2.4h2.3l-0.7,3.7h-2.1l-0.4,2.3h2.1l-0.9,5c-1,0.3-1.9,0.5-2.7,0.7l0.1,2.6
	c2.1-0.7,4.8-1.5,7.3-2.3L283.1,135.7z M287.5,129.3h2.2l-0.3,1.8h-2.2L287.5,129.3z M288.2,125.6h2.2l-0.3,1.8h-2.2L288.2,125.6z
	 M294.2,127.3h-2.1l0.3-1.8h2.1L294.2,127.3z M293.6,131.1h-2.1l0.3-1.8h2.1L293.6,131.1z M290.3,139.4l0.4-2h4.5l0.4-2.3H291
	l0.3-1.8h4.2l1.7-9.8h-11l-1.7,9.8h4.2l-0.3,1.8h-4.4l-0.4,2.3h4.4l-0.4,2h-5.8l-0.4,2.3h13.6l0.4-2.3H290.3L290.3,139.4z
	 M305.3,128.7l0.3-1.7h1.6c-0.5,0.6-1,1.2-1.5,1.7H305.3z M305.7,135.7h-3.4l0.2-1.3h3.4L305.7,135.7z M301.7,139.1l0.3-1.5h3.4
	l-0.3,1.5H301.7L301.7,139.1z M318.1,123.6l-0.4,0.1h-6.1l-0.1,0.4l-2.1-0.6c-0.4,0.8-0.9,1.6-1.5,2.4l0.2-1.1H306l0.4-2.1H304
	l-0.4,2.1h-2.8l-0.4,2.1h2.8l-0.3,1.7h-3.7l-0.4,2.2h4.5c-1.7,1.4-3.6,2.6-5.7,3.5c0.4,0.7,0.8,1.4,1.1,2.1c0.4-0.2,0.8-0.4,1.2-0.6
	l-1.1,6.4h2.3l0.2-1.1h3.4l-0.1,0.8h2.4l1.7-9.5h-3.8c0.6-0.5,1.1-1,1.6-1.5h3.1l0.4-2.2h-1.6c1.1-1.4,2.2-2.9,3.1-4.5l-3.2,18.1
	h2.5l2.9-16.2h2.7c-0.8,1.6-1.9,3.8-2.8,5.3c1.1,1.1,1.7,2.7,1.4,4.3c0,0.6-0.3,1.1-0.8,1.4c-0.3,0.1-0.6,0.2-0.9,0.2
	c-0.4,0-0.9,0-1.3-0.1c0.2,0.8,0.3,1.6,0.2,2.4c0.6,0.1,1.2,0,1.8,0c0.6-0.1,1.1-0.3,1.6-0.6c0.9-0.6,1.5-1.6,1.7-3.2
	c0.3-1.7-0.1-3.5-1.3-4.9c1.2-1.9,2.5-4.3,3.7-6.3L318.1,123.6z M340,130.5c0-1-0.1-2.1-0.4-3.1l-1.5,0.4c0.1,0.4,0.2,0.8,0.2,1.2
	l-1.8,0.2c1.3-1.2,2.6-2.4,3.8-3.8l-1.4-0.7c-0.4,0.5-0.8,0.9-1.2,1.4l-1.2,0c0.9-0.9,1.7-1.9,2.5-2.9l-1.6-0.6
	c-0.6,1.1-1.4,2-2.3,2.9c-0.3,0.3-0.6,0.5-1,0.6c0.1,0.5,0.2,1.1,0.3,1.6c0.6-0.2,1.3-0.3,2-0.3c-0.6,0.5-1,0.9-1.2,1.1
	c-0.4,0.4-0.9,0.7-1.4,0.9c0.1,0.4,0.2,1.2,0.3,1.6c0.4-0.2,1-0.3,4.6-0.7c0,0.3,0,0.5,0,0.7L340,130.5z M339.4,133.9
	c0-1-0.1-2-0.2-3l-1.4,0.3c0.1,1,0.2,2.1,0.1,3.1L339.4,133.9z M337,134.2c0.1-1,0.2-2,0.1-3l-1.4,0.3c0.1,1,0,2-0.2,3L337,134.2z
	 M333.7,131.2c-0.2,1-0.6,2-1,2.9c0.4,0.2,0.8,0.5,1.2,0.7c0.5-1.1,0.9-2.2,1.2-3.3L333.7,131.2z M334.6,124.3h-2
	c-0.1-0.7-0.3-1.3-0.5-1.9l-2,0.6c0.1,0.4,0.2,0.9,0.3,1.3H328l-0.2,1.4h6.6L334.6,124.3z M333.5,128.3h-5.7l-0.2,1.3h5.7
	L333.5,128.3z M328.7,131.7h2.5l-0.2,1.3h-2.5L328.7,131.7z M332.4,134.2l0.7-3.9h-5.6l-0.7,3.9H332.4z M333.9,126.3h-5.7l-0.2,1.3
	h5.7L333.9,126.3z M327.2,130.5c0-1-0.2-1.9-0.4-2.8l-1.4,0.4c0.1,0.3,0.1,0.6,0.2,1l-1.8,0.2c1.4-1.2,2.8-2.5,4-3.9l-1.5-0.7
	c-0.4,0.5-0.8,0.9-1.2,1.4l-1.3,0.1c0.9-0.9,1.7-1.9,2.5-3l-1.6-0.6c-0.7,1.1-1.5,2.1-2.3,3c-0.3,0.3-0.6,0.5-1,0.6
	c0.1,0.5,0.2,1.1,0.3,1.6c0.6-0.2,1.3-0.3,2-0.3c-0.4,0.4-0.9,0.8-1.3,1.2c-0.4,0.4-0.9,0.7-1.5,0.8c0.1,0.5,0.2,1.1,0.3,1.6
	c0.4-0.2,1-0.3,4.6-0.7c0,0.2,0,0.5,0,0.7L327.2,130.5z M326.4,133.7c0-0.9-0.1-1.8-0.2-2.6l-1.4,0.4c0.1,0.9,0.2,1.8,0.1,2.7
	L326.4,133.7z M324.1,134.3c0.1-1,0.1-2,0.1-3l-1.4,0.3c0,1-0.1,2.1-0.2,3.1L324.1,134.3z M320.9,131.3c-0.2,1.1-0.5,2.1-1,3.1
	c0.4,0.2,0.8,0.5,1.1,0.7c0.6-1.1,1-2.4,1.3-3.6L320.9,131.3z M332.2,137.2c-1,0.7-2.1,1.2-3.2,1.6c-1.1-0.4-2.2-0.9-3.2-1.6H332.2z
	 M338,137.2l0.3-1.8h-11.4c0.2-0.2,0.4-0.5,0.6-0.7l-2-0.6c-1.7,1.8-3.8,3.1-6.2,3.7c0.4,0.6,0.8,1.2,1.1,1.9c1.1-0.4,2.2-1,3.2-1.6
	c0.7,0.6,1.4,1.2,2.3,1.6c-2.3,0.4-4.7,0.7-7.1,0.8c0.4,0.6,0.6,1.3,0.8,2c3.1-0.2,6.1-0.8,9.1-1.6c2.7,0.8,5.4,1.4,8.2,1.5
	c0.5-0.7,1-1.4,1.6-2c-2.2-0.1-4.4-0.4-6.6-0.8c1.2-0.6,2.4-1.4,3.4-2.4H338L338,137.2z M348.1,129.2c-0.4,1.9-1.1,3.8-2,5.5
	c-0.5-0.5-0.9-0.9-1.4-1.4c0.5-1.2,1-2.6,1.5-4L348.1,129.2z M351.6,128.9l0.4-2.3l-1.1,0.1l0.2-1.2h-2.3l-0.2,1.3l-1.5,0.1
	c0.5-1.5,0.9-2.9,1.3-4.3l-2.5-0.1c-0.3,1.4-0.8,2.9-1.3,4.5c-0.6,0-1.3,0-1.8,0.1l-0.2,2.4l1.2-0.1c-0.6,1.7-1.3,3.3-1.8,4.6
	c0.8,0.9,1.7,1.9,2.7,2.9c-1.2,1.5-2.6,2.7-4.2,3.7c0.6,0.5,1.1,1.1,1.5,1.8c1.6-1,3-2.3,4.3-3.7c0.6,0.7,1.2,1.5,1.7,2.4l2-2.1
	c-0.6-0.9-1.3-1.8-2.1-2.6c1.3-2.3,2.3-4.7,2.7-7.3L351.6,128.9z M361.8,131.2h-4.2l0.3-1.6c1.7-1.4,3.3-3,4.7-4.7l-1.5-1.2
	l-0.6,0.1h-7.8l-0.4,2.3h6.2c-0.9,1.1-2,2.2-3.1,3.1l-0.4,2h-4.4l-0.4,2.4h4.4l-1,5.9c0,0.2-0.2,0.4-0.4,0.4c0,0-0.1,0-0.1,0
	c-0.3,0-1.6,0-2.6,0c0.3,0.8,0.4,1.6,0.4,2.4c1.3,0.1,2.5,0,3.8-0.4c0.9-0.4,1.6-1.3,1.6-2.3l1-5.9h4.2L361.8,131.2z M367.8,134.6
	h-1.7l1.4-7.8h1.7L367.8,134.6z M374,139.5c-0.9,0-1.4-0.2-1.3-0.7c0.1-0.7,0.8-1.7,9.3-7.4c0.2-0.1,0.3-0.3,0.4-0.4l-1.5-0.9
	l-0.6,0.1h-7.2c0.7-0.7,1.3-1.4,1.8-2.1h8.6l0.4-2.4h-7.4c0.5-0.8,0.9-1.6,1.3-2.4l-2.4-0.6c-1.1,2.3-2.6,4.5-4.5,6.2l0.8-4.4h-6.2
	l-2.5,14.3h2.3l0.3-1.7h3.9l1.3-7.5c0.5,0.4,0.9,0.9,1.4,1.4c0.3-0.2,0.5-0.5,0.8-0.7l-0.4,2.2h4c-5.9,4.4-6.4,5.6-6.6,6.8
	c-0.3,1.7,0.8,2.8,3.6,2.8h4.5c2.3,0,3.4-0.8,4.4-4.6c-0.7-0.2-1.4-0.4-2.1-0.8c-0.6,2.6-0.9,3-1.7,3L374,139.5L374,139.5z
	 M397.4,128c0.5-1.5,1-3.1,1.5-4.8l-2.6-0.2c-0.5,1.8-1,3.5-1.5,5h-3.7c0.7-1.4,1.3-2.8,1.8-4.2l-2.4-0.7c-0.4,1.5-1,2.9-1.7,4.3
	c-0.2,0.4-0.5,0.8-0.9,1c0.2,0.8,0.3,1.5,0.4,2.3v0c0.8-0.3,1.6-0.4,2.4-0.3h3.1c-1.7,4.2-5.1,7.5-9.3,9.1c0.5,0.7,1,1.4,1.3,2.2
	c5.2-2.3,8.3-6,10.7-11.4h4.1c-1.3,5.2-2.3,7.6-3.1,8.3c-0.3,0.2-0.7,0.4-1,0.3c-0.6,0-1.8,0-3.1-0.1c0.4,0.8,0.5,1.7,0.4,2.6
	c1.1,0.1,2.2,0.1,3.2-0.1c0.9,0,1.7-0.4,2.3-1.1c1.2-1.1,2.3-3.9,4.1-11.2c0.1-0.3,0.3-1.1,0.3-1.1H397.4L397.4,128z M408.5,135.1h2
	l1.8-7.8l0.6-2.9h-3.1l-0.4,2.9L408.5,135.1z M408.5,140.7c1.2,0,2.1-0.9,2.3-2c0.2-0.8-0.2-1.7-1.1-2c-0.2,0-0.3-0.1-0.5-0.1
	c-1.1,0-2.1,0.9-2.3,2c-0.2,0.9,0.3,1.7,1.1,2C408.2,140.7,408.4,140.7,408.5,140.7L408.5,140.7z"/>
<g>
	<g>
		<path class="st4" d="M518.7,79.6c2.9-2,3.1-4.7,1.8-6.6c-3-4.5-11.5-2-12.4,2.4c-0.2,1,0,2.3,0.7,3.3
			C511.1,82,515.9,81.5,518.7,79.6z"/>
		<path class="st4" d="M513.2,87.4c0.1,0.1,1.1-0.5,5.3-0.7c2.4-0.2,5.4-0.2,7-0.9c2.1-0.9,2.7-2.3,2.1-3.3
			c-0.9-1.6-3.5-0.7-5.2-0.1c-2.7,1.1-5.8,3.1-7.4,4.1C514.1,87,513,87.3,513.2,87.4z"/>
		<path class="st4" d="M515.9,142c3-0.8,6.4-2.6,6.9-5.6c2.7,0.1,4.3-1.2,5.7-2.8c5.9-3.6,15.7-6.2,18.6-10.6c2,1.7,4.5,4.2,7.5,7.5
			c-0.4-1.2-3.8-4.9-7.3-7.9c0.2-0.3,0.3-0.6,0.4-1c0.6-1.9,0.3-3.5-0.7-4.8c0,0,0,0,0,0c3.6,0.1,8.6,0.7,13.3,2.3
			c-1.6-1-5-1.8-8.5-2.3c-1.8-0.3-3.7-0.4-5.3-0.5c-1.1-1-2.7-1.4-3.7-1.7c0-3.3-0.7-5.7-1.6-7.5c0.8-3,3-4.8,4.7-6.4
			c1.5-1.4,2.7-2.6,2.3-3.8c-0.9-3.2-11.4-2.7-15.6,1.7c-2.9-2.1-6.6-3.3-8.3-3.4c2-0.9,4.8-1.6,7.4-1.4c-1.3-1.5-8.2-1.1-11.3,1.1
			c1.3-1.7,3-5.9,2.4-6.4c-3.1,5-6,6.9-7.2,7.1c-0.5-1-1-2.1-1.5-3.2c-0.8-1.6-1.5-3.8-2.5-5.4c-2.1-3.7-5-6.5-9.4-6.5
			c-5.3-0.1-10.8,5.9-11.1,16.2c-1.8,0.7-4.6,0.1-5.1-0.7c-0.6-0.9,1.3-2.6,0.2-3.7c-0.7-0.7-2.8-0.7-4,0.9
			c-0.4,0.5-0.6,1.1-0.9,1.5c-0.6,1.1-1.3,2.8-3,3c-0.8-0.5-1.3-1.3-2.4-1.4c-0.9,0-2,0.6-2.7,1.7c-0.2,0-0.4-0.1-0.6,0
			c-0.7,0.1-1.7,0.8-2.2,2.1c-1.4,0.6-2.4,2.6-2.6,3.7c-0.5-0.3-1.2-0.6-1.9-0.5c-1.2,0.1-1.9,0.8-2.6,1.5c-0.8,0.8-2.1,1.7-3.2,1.5
			c-1.5-0.2,0.8-1.1,1.4-1.8c0.9-1.1-0.1-2.5-2.1-1.9c-1,0.3-2.1,1-3.3,1.8c-1.5,1-3,2.3-5,3.1c-1.9,0.7-3.2,0.2-4.2-0.1
			c-2.5-0.7-3.1,3.4,0.7,4.1c1,1.2,4,6.7,1.7,16.3c-0.5,2-0.8,3.1-0.1,3.6c5.8,4.3,14.9,5,20.3,5c0.7,0,1.3,0,1.7,0
			c0.2,0.6,0.6,1.5,1.6,2c1.4,0.8,3.1,0.4,4.7-0.2c1.4,1.3,8.1,1,13.9-3.6c1.1,0.2,2.4,0.5,3.7,0.8c-7.2,3.5-12.5,11.3-13.2,18
			c-0.1,1.1-0.1,2.2-0.1,3.2c-2.6,1-4.6,3.2-6,4.9c0.6-3-1.7-4-3.1-3.9c-0.5-0.9-1.7-1.9-3.5-1.6c-3.3,0.6-7,4.6-7.5,12.2
			c-0.2,3.8,0.4,7.1,1.9,8.6c0.6,0.7,1.4,1,2.2,1c0,0,0,0,0.1,0c1.5,0,3-1.1,5-2.4c3.7-2.6,8.7-5.8,18.1-4.6
			c3.2,1.8,7.6,2.6,13.1,1.9c3,1.8,7,4.1,10.5,4.7c2.5,0.4,4.8,0,5.9-2.4c0.1-0.2,0.1-0.3,0.2-0.5c1.4,0.7,3.4,0.2,4.4-0.8
			c1.4,0.2,3-0.2,3.4-1.6c0.5-1.7-1.4-3.4-3.5-5c-0.6-0.5-1.2-0.9-1.7-1.3c11.3-3.6,20.8-15.4,32.8-14.1c0.6,0.1-3-2.5-10.5-0.8
			c-9.2,2-19.2,8.8-25.1,9.5c-0.8-1.8-1.8-3.5-4.2-4c-1.3-0.3-2.1,0.2-2.6,0.7c-0.1,0.1-0.2,0.2-0.2,0.2c-0.1-1.4-0.1-2.8,0.1-4.5
			C512.1,147,514.9,143.2,515.9,142z"/>
		<path class="st4" d="M465.1,98.5c5.2,0,7.6-4.3,6-7.7c-2.1-4.4-10-3.9-12,0C457.4,94,460,98.5,465.1,98.5z"/>
		<path class="st4" d="M486.2,85.2c0.8,0,1.8-0.4,2.2-1.1c0.2-0.3,0.4-1-0.2-1.9c-0.3-0.5-0.9-0.8-1.5-0.8c-0.8,0-1.6,0.5-2.1,1.1
			c-0.4,0.5-0.4,1.1-0.2,1.7C484.8,84.8,485.4,85.2,486.2,85.2z"/>
		<path class="st4" d="M536.2,87.6c3.9,0.3,7.9,0.9,7.9-1.2c0-0.8-1-2.2-4-1.4c-1.5,0.4-3.2,1.5-4.5,2.5
			C535.6,87.6,535.8,87.6,536.2,87.6z"/>
	</g>
	<g>
		<path class="st5" d="M511.3,72.6c2.8-1.8,7.1-2.3,8.9,0.8c1.9,3.3-2.4,7.6-7.1,7.2C509.8,80.3,506.8,75.5,511.3,72.6z"/>
		<path class="st6" d="M515.6,74.7c0.5-0.8,1.4-1.4,2.3-1.4c0.5,0,0.9,0.2,1.2,0.6c0.5,0.7,0.3,1.4,0.1,1.8
			c-0.5,0.9-1.6,1.7-2.6,1.7c-0.5,0-0.8-0.2-1.1-0.5C515.2,76.2,515.2,75.5,515.6,74.7z"/>
		<path class="st7" d="M522.7,83c1.4-0.6,2.5-0.8,3.3-0.8c0.6,0,1.1,0.2,1.3,0.6c0.4,0.6-0.3,1.7-1.9,2.5c-1.5,0.7-4.2,0.8-6.6,1
			c-1,0.1-2.3,0.3-3.4,0.5C517,85.6,520.4,83.9,522.7,83z"/>
		<path class="st8" d="M528.8,131.9c-1.7,2-3.7,3.7-6.2,3c-0.2-0.7-0.7-1.4-1.4-2.1c-0.5-0.5-1.1-1-1.8-1.4c-0.9-2-0.8-5.7-0.5-6.9
			c-0.7,1-1.2,3.8-0.5,6.3c-1.5-0.9-3.2-1.6-5.1-2.2c-0.3-1.6,0.1-5,0.5-7.7c0.4-2.6,0.6-5.2,0.3-6.8c1.8-0.9,4.1-1.7,6.2-2.2
			c1,1.3,0.5,4.7,0.1,7.7c-0.4,2.9-0.9,6.4-0.2,9.2c1,4.3,3.9,5.5,6.4,3.8c1.9-1.3,3.2-3.9,3.9-4.9c2.4-3.3,5.3-7,7.1-7.8
			c0.8-0.1,1.6-0.4,2.3-0.7c0.1,0.1,0.1,0.2,0.2,0.3c-1.4,1.5-6.4,9.5-8.2,11.8c-1,0.5-1.9,1.1-2.8,1.7c0.5-0.6,0.9-1.3,1.3-1.9
			c1-1.3,2.1-2.8,2.7-3.2C531.6,128,530.4,130,528.8,131.9z"/>
		<path class="st9" d="M512,128.2c-7.4-9.9-4.2-19.3-0.3-21.1c-1.4,0.1-3,1.6-4,3.4c-2.2-0.1-4.5-3.4-5.4-5.4c0.9,1.3,2.2,2.1,3.8,2
			c1-0.1,1.8-0.6,2.4-1.2c4,0.9,9.7,2.5,15.1,4.8c-0.3,0.1-0.6,0.1-0.9,0.2c-3.1,0.6-10.4,2.5-11,5.1c0.5-0.6,1.2-1.1,2.1-1.6
			c0.3,1.5,0,4-0.4,6.6c-0.4,2.9-0.8,5.8-0.4,7.7C512.8,128.4,512.4,128.2,512,128.2z"/>
		<path class="st9" d="M530.2,109.3c-0.6-0.8-1.3-1.1-1.8-0.8c0-1-0.6-1.8-1.7-2.5c1.1-0.1,3.4,0.1,5.5,3.4
			C531.4,109.2,530.8,109.2,530.2,109.3z"/>
		<path class="st8" d="M529.8,109.4c-0.3,0.1-0.5,0.2-0.7,0.3c-0.2-0.3-0.5-0.5-0.7-0.8C528.6,108.8,529,108.6,529.8,109.4z"/>
		<path class="st9" d="M527.1,107.1c0.5,0.5,0.8,0.9,0.8,1.3c-0.5-0.5-0.9-1-1.1-1.1c-0.4-0.4-0.9-0.9-1.4-1.3
			C526.1,106.3,526.7,106.7,527.1,107.1z"/>
		<path class="st8" d="M528.1,109.3c0.2,0.2,0.3,0.4,0.5,0.6c-0.5,0.3-0.8,0.8-1,1.2c0.3-0.3,0.7-0.6,1.3-0.8
			c1.6,1.8,2.1,2.9,2.1,2.3c0-0.4-0.8-1.4-1.7-2.4c1.5-0.4,3.5-0.3,4.8,1.2c0,0.1,0,0.2,0,0.3c0.1,0.6,0.7,1.4,1.1,2.1
			c0.4,0.7,0.8,1.5,0.9,1.6c0.9,0.4,4.6,0.5,4.7-0.8c0.5,0.6,0.5,1.5,0.3,2.1c-0.8,2.6-5.7,3.1-7.1,2.1c0.7-0.2,1.3-0.6,1.8-1.4
			c-1.4,1.1-3,0.9-4.5,0.4c-3.8-1.5-4.1-4.1-5.2-5.9c0.6,0.3,1.3,0.7,1.9,1c1.6,0.9,1.9,1.2,2.1,1.1c0.2-0.3-1.4-1.2-2.1-1.7
			c-0.8-0.5-1.7-0.9-2.6-1.3c-0.1,0-0.1-0.1-0.2-0.1C526.7,110.5,527.7,110.2,528.1,109.3z"/>
		<path class="st9" d="M535.1,111c1-0.6,3-0.8,4.2,0.4c0.5,0.4,0.8,0.9,1,1.8C539,112,536.5,111,535.1,111z"/>
		<path class="st10" d="M540.4,114.2c-0.3,0.8-3.4-0.8-3.1-1.6C537.5,111.8,540.7,113.5,540.4,114.2z"/>
		<path class="st11" d="M521,120.2c0.3-0.2,1-0.4,1.7,0c0.9,0.4,2.5,2.2,1.8,8.1c0.4-0.8,0.7-2.6,0.6-4.4c0.2,0,0.5,0,0.9,0.2
			c0.5,0.3,1.8,1.2,1.6,3.6c-0.2,2.5-1.1,3.8-1.8,4.5c-0.6,0.3-1.3,0.4-1.9,0.3c-1.4-0.3-2.6-1.8-3.1-4.1
			C520.2,125.8,520.6,123,521,120.2z"/>
		<path class="st9" d="M532.9,130.5c2.4-3.2,6.3-9.6,7.5-11c0.2,0.4,0.3,0.8,0.7,1.2c0.3,0.3,0.6,0.4,1,0.3c-1-0.4-1.1-1.8-1.4-2.4
			c0,0,0,0,0,0c0.4,0.1,2.1,0.8,5.5,3.6C544.2,125.3,538.2,127.7,532.9,130.5z"/>
		<path class="st9" d="M541.1,118.2c0.4-0.4,0.7-0.8,0.9-1.3c0.4-0.1,1.7-0.2,3.6-0.3c1,1,1.7,2.5,1.1,4.5c-0.1,0.2-0.1,0.4-0.2,0.6
			C544.3,120,542.4,118.6,541.1,118.2z"/>
		<path class="st9" d="M547,97.9c-0.9,1.7-5.5,4.4-6.1,8.5c-0.6-1-1.2-1.9-1.9-2.6c-1.7-4.8-3.8-4.9-4.8-3.9c-0.4-0.4-0.8-0.7-1.2-1
			C537.1,95.1,548.6,94.8,547,97.9z"/>
		<path class="st9" d="M508.7,84.6c4.2,5.1,5.9,14,9.3,14.4c-0.8-0.5-1.5-1.6-2.2-3c1.6-0.3,3.7-2.1,5.8-4.8
			c-1.2,3.4-3.1,4.9-3.3,5.7c1.5-1.7,5.3-3.2,8.6-3.2c-2,0.3-4.3,1.5-4.6,2.5c0.2-0.2,0.5-0.4,0.8-0.6c1.7,0,7.6,2,10.7,4.7
			c-0.2,0.4-0.4,0.8-0.3,1.2c0.9-1.6,3.2-2.5,5.2,2.7c0.4,0.8,3.3,4.3,3.1,10.5c0.2,0,1.7,0.4,3,1.4c-1.2,0-2.1,0.1-2.8,0.3
			c0.2-1-0.2-1.9-1.1-2.5c0,0,0,0,0,0c-0.1-0.2-0.3-0.4-0.5-0.6c0.4-0.9-0.2-2.9-1.9-3.4c-1.3-0.4-2.9,0.1-3.6,1.1c0,0-0.1,0-0.1,0
			c-0.8-0.8-1.6-1.3-2.4-1.6c-0.3-1.2-1.3-2.6-2.3-3.6c-1.4-1.3-3.4-1.2-3.9-0.1c-0.6-0.3-1.3-0.6-2-0.9c-6.2-5.5-13.2-9.9-13.9-9.6
			c1.1,0.5,7.1,4.3,12.9,9.3c-2.4-0.6-5-0.6-6.5,0.3c2.7-0.5,5.4-0.2,7.4,0.6c1.3,1.1,2.5,2.3,3.6,3.5c-0.4,0.8-1.7,1.1-3.3,1.4
			c-5.3-2.4-11.4-4.1-15.6-5c0.9-1.3,1.3-3,1.2-4.3c0.4,0.8,0.7,1.5,0.8,2.3c0.5-1.3-0.9-3.5-1.1-3.8c-0.2-0.6-0.4-1.4-0.7-2.5
			c-0.4-1.4-0.7-3.6-1.3-5.7c-0.6-2.2-1.5-4.8-2.9-6.7c-1.2-1.5-2.8-2.5-4.8-2.3c-0.8,0.1-1.7,0.3-2.5,0.8
			C500.9,80.5,505.5,80.7,508.7,84.6z"/>
		<path class="st12" d="M495.8,85.2c1.3-1.5,2.8-2.4,4.4-2.5c1.7-0.1,3.1,0.7,4.3,2.4c3.3,4.6,3.8,12.3,5,15
			c0.1,0.2,0.2,0.4,0.3,0.5c0.1,1.5-0.6,3.5-1.7,4.7c-2.6-0.5-4.3-0.6-4.5-0.3c0.3,0,1.8,0.2,4.1,0.7c0,0,0,0-0.1,0.1
			c-1.6,1.3-4.4,0.9-5.7-2.4c-0.8-1.9-0.9-4.3-0.9-5.3c-1.3,0.7-0.3,8.2,3.7,11.6c1.3,1.1,2.3,1.2,2.9,1.2c-0.3,0.6-0.5,1.2-0.7,1.8
			c-0.6,2.4-1,8,2.4,13.2c-2-0.6-4-1.6-6-3.2C492,113.5,489.6,92.7,495.8,85.2z"/>
		<path class="st9" d="M475.8,97c1.3,0,1.5,1.2,3.5,1.7c1.7,0.5,2.7,0.3,2.9,0.7c0.3,0.6-0.4,1.1-1.1,1.4c-1-1.4-3.3-1-4.4-1.2
			c-1.3-0.3-2.1-1.1-2.9-1.5C474.5,97.3,475.3,97,475.8,97z"/>
		<path class="st9" d="M473.3,98.6c0.9,0.4,2.3,1.5,3.8,1.8c2.2,0.3,3,0.1,3.4,1c0.4,0.8-0.6,1.9-2,2.2c0-0.2,0-0.4-0.1-0.6
			c-0.5-1.2-2-0.8-3.8-1.4c-0.6-0.2-1-0.8-1.4-1.1c-0.5-0.4-1.1-0.8-1.9-0.8C471.8,99,472.6,98.3,473.3,98.6z"/>
		<path class="st9" d="M469.5,101.4c0.9-1,2.2-1.2,3.3-0.4c0.5,0.4,1,0.8,1.9,1.1c0.7,0.2,1.3,0.1,2.6,0.6c0.9,0.3,0.1,1.5-0.2,1.7
			c-2.2,1.7-6-0.4-6.8-1.7c0,0.3,0.2,0.6,0.5,1c-0.8,0.5-2,0.3-2.8-0.1C468.3,103.2,468.9,102.1,469.5,101.4z"/>
		<path class="st7" d="M445.4,108.9c-0.3-0.8,0.1-1.2,0.6-1.1c0.3,0,1.7,0.6,2.9,0.6c1.7,0.1,2.9,0,7.7-3.6c3.6-2.7,4.8-1.6,4.3-1
			c-0.8,0.9-2.1,1.4-2,2.1c0.1,1,2.6,1.4,4.4-0.2c1-0.9,1.8-2.1,2.9-2c1,0.1,2.9,2.1,4.9,0.6c1.1,1.1,3.1,2.2,5.1,1.7
			c0.9-0.2,1.7-1,2-1.7c0,0,0,0,0.1,0c1,0,2.1-0.6,2.7-1.4c0.3-0.4,0.4-0.8,0.4-1.1c0.7-0.3,1.1-0.7,1.4-1c1.5-0.5,3.6,0,4.1,0.3
			c-1-1.1-2.6-1.2-3.8-0.8c0-0.1,0-0.1,0-0.2c0.3-1.8-2.5-1.5-4.4-2.2c1.5-0.4,2.6-1.7,3.1-2.8c0.5-1,1.3-2.1,2.3-2.5
			c0.6-0.3,1.9-0.3,1.7,0.6c-0.2,0.8-1.2,2.3-0.4,3.3c1.2,1.4,3.4,1.8,5.5,0.6c-0.1,3.2,0.4,6.8,1.5,10.8c-2.6-0.6-5.4,0.2-5.9,0.6
			c-1.1,0.8-0.8,2-2.2,2.1c-2.1,0.2-4,0.1-5.5,0.3c-5.3,0.5-5,2.8-3.6,3.3c1.2,0.5,2.8,0.2,3.3,0.5c0.8,0.4-0.4,2.3-5.1,2.4
			c-6.5,0.2-7.1-1.8-8.3-2.9c-1.1-0.9-4.6,0.2-5.9-0.2c-1.6-0.5-0.9-1.5-2.1-2.6c-1.3-1.2-4.3-1-8-1l-0.4,0
			C446.5,110.4,445.6,109.3,445.4,108.9z"/>
		<path class="st13" d="M484.7,148.2c2.5-5.3,7.7-10.4,11.8-12.9c3.4,0.8,7.1,1.9,10.5,3.2c-2.2,2.2-2.9,6.3-3.3,10.4
			c-0.1,0.8-0.1,1.6-0.2,2.3c-0.4,5-0.8,9-4.8,13.1c-1.2,1.2-2.4,2-3.6,2.4c-5.1,2-10.6-1.5-12-7
			C482.2,156.3,482.8,152.1,484.7,148.2z"/>
		<path class="st9" d="M469.3,157.1c1.1-0.2,1.9,0.2,2.3,0.5c-0.9,0.4-1.7,1.1-2.4,1.9c0-0.9-0.3-1.9-1.3-1.7
			C468.4,157.4,468.9,157.2,469.3,157.1z"/>
		<path class="st13" d="M464.3,175.9c-1.2-1.3-1.6-4.3-1.4-7.7c0.1-2.3,0.5-4.4,1.1-5.9c0.7-1.6,2.9-4.9,4.2-4
			c0.5,0.4,0.6,1.2,0.4,1.8c-1,1.3-1.5,2.7-1.2,3.6c0.1-1.1,1.7-4.3,3.6-4c0.4,0.1,0.6,0.3,0.7,0.7c0.3,1.1-0.2,2.3-0.8,3.9
			c-0.5,1.1-1,2.4-1.3,4c-0.2,0.9-0.4,1.9-0.5,2.8c-0.4,2.6-0.8,4.2-1.5,4.9C466.9,176.7,465.3,177,464.3,175.9z"/>
		<path class="st9" d="M534.9,154.5c5.6-2.4,11.9-4.5,16.5-3.6c-2.7,0.2-5.9,1-8.3,2c-7.1,3-14.1,8.9-22.7,11.8
			c-0.6-0.9-1-2.1-1.4-3.2c-0.1-0.2-0.1-0.3-0.2-0.5C523.1,160.5,528.4,157.3,534.9,154.5z"/>
		<path class="st9" d="M514.1,157.2c2.3,0.5,3.1,2.4,3.9,4.7c0.5,1.3,1,2.7,1.8,3.8c0.5,0.7,1.5,1.4,2.5,2.2
			c1.5,1.2,3.6,2.8,3.4,3.8c-0.3,0.9-2.1,1.3-3,1c-1.9-0.7-2.7-2.3-3.5-2.5c0.6,0.6,1.1,2.2,2.5,3c-0.8,0.6-2.2,0.6-2.8,0.1
			c0.8-4.1-1.6-9.9-3.6-10.4c1.4,1.5,4.5,9.5,1.1,12.3c-4.5,3.6-15.2-5.2-18.6-5.1c0.3,0.1,1.1,0.6,2.2,1.2c-6.3,0.3-13.3-1-16-7.1
			c0.4,2,1.6,3.8,3.3,5.3c-8.4-1.2-13.6,2.4-17.1,4.9c-0.7,0.5-1.3,1-1.8,1.4c0.7-1.2,0.9-2.8,1.2-4.5c0.1-0.9,0.3-1.8,0.5-2.7
			c0.3-1.5,0.8-2.8,1.3-3.9c0.7-1.6,1.2-2.9,0.8-4.2c-0.2-0.7-0.7-1-1.1-1c-0.2,0-0.5,0-0.7,0c1-0.7,2.1-1.2,3.2-0.8
			c2,0.8,0.5,4.4-0.3,6.5c-0.7,1.7-1.3,3.3-0.9,4.3c0.3-1.5,1.3-3.3,2.2-5c1.2-1.8,4.2-5.3,7.4-6.3c0.8,4.3,3.2,7.9,7.2,9.5
			c3.6,1.4,7.2-0.1,9.9-2.8c4.2-4.2,4.6-8.1,5.1-13.3c0.1-0.8,0.1-1.5,0.2-2.3c0.4-4,1-8.3,3-10.3c1.3,0.5,2.6,1.1,3.8,1.8
			c-0.2-3.6-22.6-8.3-25.4-7.1c0.2,0,1.9,0.2,4.3,0.6c-5.6,4-10.3,3.8-11.6,3.4c1.6-0.8,2.8-1.8,3-2.2c-5.3,3.2-8.3,2.1-9.2,0.7
			c0.2,0,0.4-0.1,0.6-0.2c5.1-1.2,9.1-5.2,9.8-7.3c0.4-1.3-0.8-3.4-0.7-4.3c0.1-2,2-3.7,2.9-3c0.8,0.6,0,3.2,0.6,3.6
			c0.6,0.3,1.9,0.5,3.1,2.8c-0.7,0.2-1.3,0.3-1.7,0.5c10.2-0.9,18.8-0.1,24.7,1.4c7.6,2,13.6,6.5,7.1,10.4c-2.6,1.6-6.5,2.3-7.5,2.4
			c0.4,0.3,1.5,0.3,2.9,0.1c-4.5,5.2-6.2,18.3,0.8,25.7c-0.7-1.4-2.7-4.3-3.3-9.4C512,158,512.8,156.9,514.1,157.2z"/>
		<path class="st5" d="M459.1,93.6c-0.2-2.1,1.3-3.9,3.5-4.7c3.3-1.2,7.8-0.3,8.2,3c0.5,3.2-1.7,5.3-4.6,5.7
			C463,98.1,459.3,96.9,459.1,93.6z"/>
		<path class="st6" d="M466.5,93.2c-1.1-0.2-1.9-0.9-1.9-1.7c0-1,1.3-1.6,2.4-1.6c2.4,0,3,2.2,1.5,3C468,93.2,467.2,93.3,466.5,93.2
			z"/>
		<path class="st6" d="M485.2,82.7c0.5-0.4,1.4-0.6,2-0.4c0.9,0.3,1,1.4,0.5,1.9c-0.4,0.4-1.3,0.5-2.1,0.3
			C484.6,84.1,484.6,83.2,485.2,82.7z"/>
		<path class="st10" d="M466.2,129.7c-0.3,0.3-0.9,0.6-1.5,0.6c-0.2,0-0.6,0-0.6-0.2c0-0.1,0-0.2,0.1-0.3c0.3-0.3,1-0.6,1.5-0.6
			c0.2,0,0.5,0,0.6,0.2C466.3,129.4,466.3,129.5,466.2,129.7z"/>
		<path class="st10" d="M469.8,130.3c-0.3,0.3-0.9,0.5-1.4,0.5c-0.3,0-0.5-0.1-0.5-0.1c0-0.1,0.1-0.1,0.1-0.2
			c0.3-0.3,0.9-0.6,1.5-0.6c0.2,0,0.4,0,0.5,0.1C469.9,130.1,469.9,130.2,469.8,130.3z"/>
		<path class="st10" d="M464.6,132.4c-0.7-0.2,0.6-0.8,1.1-0.7C466.4,131.9,465.2,132.6,464.6,132.4z"/>
		<path class="st7" d="M541.1,85.3c1.7-0.3,2.5,0.7,2.5,1.1c0,0,0,0,0,0c0,0.3-0.2,0.5-0.4,0.6c-0.3,0.2-0.8,0.4-1.8,0.4
			c-2.7,0.1-3.4,0.1-5.2,0.1C537.5,86.3,539.6,85.5,541.1,85.3z"/>
		<path class="st10" d="M480.7,119.4C480.7,119.4,480.7,119.4,480.7,119.4L480.7,119.4z"/>
		<path class="st14" d="M453.2,119.5c1.8,0.7,2.4,0.3,2.4,0.2c0,0,0,0,0,0c0,0,0,0,0,0c0.1,0.1,1.4,0.9,3.9,1.2
			c2.7,0.3,2.6,0.2,2.7,0.2c0.5,0,0.5-0.6,0.8-0.5c0.3,0.1,0.5,0.4,2.4,0.4c1.8,0.1,2.6,0.2,2.8,0.2c0.2,0,0.4-0.5,0.8-0.4
			c0.4,0.1,0.5,0.5,1.7,0.1c1.2-0.4,1.5-0.4,2.2-0.3c0.7,0.1,1.1,0.5,2.1,0.1c1-0.3,1.7-0.8,2.1-0.8c0.4-0.1,0.9,0.2,1.4,0.2
			c0.5,0.1,2.9-1.1,3.2-1.1c0.3,0,1.1,0.2,1.6,0.1c0.4-0.1,1.2-0.2,2.1-0.3c0.8-0.1,2.8-0.8,3-0.9c0.2-0.1,0.2,0,0.6-0.1
			c0.3-0.1,0.6-0.3,1.6-0.5c1.2-0.2,2.3-0.6,2.8-0.8c0,0,0,0,0,0c0-0.1,0.9-0.3,1.3-0.5c0.7-0.2,1.2-0.5,1.3-0.5
			c-1.4-2.3-2.4-4.9-3.1-7.4c-1.9-0.1-5.5,0.3-6.4,1.2c-0.2,0.2-0.1,0.5-0.5,1c-1.1,1.4-4.5,1-7.5,1.2c-2.3,0.2-4,1.2-3,1.9
			c0.9,0.6,4.5-0.1,4.1,1.5c-0.2,1.1-1.8,2.7-5.1,3c-6.4,0.5-8.5-2.6-9.4-3.3c-0.9-0.7-4.4,0.7-6,0.1c-1.9-0.6-1.5-2.3-1.9-2.6
			c-1.6-1.4-4.7-0.9-8.3-0.9c0.6,0.9,1.3,2.3,1.9,4.2c0.2,0.9,0.4,1.7,0.5,2.5C451.6,118.5,452.2,119,453.2,119.5z"/>
		<path class="st14" d="M480.4,125.7c-0.5,0.1-0.9,0-1.3,0s-1.3,0.4-1.7,0.4c-0.4-0.1-0.8-0.4-0.9-0.2c-0.1,0.2-0.3,0.4-0.7,0.4
			c-0.7,0-1.3,0.2-1.4,0.3c-0.1,0.1-1.2-0.2-1.2-0.3c-0.1-0.1-0.7,0-1.1,0.4s-1.2,0-1.5-0.1c-0.3-0.1-1.9,0.1-2,0.1
			c-0.1,0-0.3-0.1-0.1-0.2c0.1-0.1-0.4,0.2-1.4,0.3c-1,0.2-2.4,0.4-2.9,0.3c-0.5-0.1-2.2-0.6-2.2-0.6c0,0-0.5-0.3-1-0.1
			c-0.5,0.1-2.4-0.1-2.6-0.2s-0.7-0.5-0.7-0.5c-0.1,0-0.3,0.2-0.9,0.3c-0.6,0.1-2.3-0.6-2.6-0.8c-0.3-0.1-1.5-0.3-1.6-0.5
			c-0.4-0.5-1-0.3-1.3-0.4c-0.4,2.3-0.9,4.1-1.1,5.4c-0.1,0.5,0,0.7,1,1.3c7.1,4.3,19.5,4.3,23.3,3.7c3.4-1.4,7.6-5.8,7.8-6.7
			c0.1-0.3-0.1-0.9-0.3-1.4c-0.1-0.3-0.2-0.6-0.4-0.9C481.1,125.7,480.7,125.6,480.4,125.7z"/>
		<path class="st14" d="M509.9,126.3c-3.7-0.8-6.8-2.5-9.3-4.8c-0.2,0.2-0.5,0.4-0.8,0.5c-0.8,0.3-1.9,0.5-2.3,0.6
			c-0.4,0.1-0.9,0.5-1.5,0.7c-0.6,0.2-2.2,0.4-2.4,0.5c-0.3,0.1-0.6-0.1-1,0.2c-0.3,0.2-1.7,0.7-2.1,0.7c-0.3,0-1.9,0.1-2.6,0.4
			c0.5,0.5,1.1,1.2,1.6,2.3c4.8-0.9,14.1-1.2,21.8,0.7C510.7,127.4,510.3,126.9,509.9,126.3z"/>
		<path class="st15" d="M455.6,119.7C455.6,119.7,455.6,119.7,455.6,119.7C455.7,119.7,455.7,119.7,455.6,119.7z"/>
		<path class="st16" d="M492.6,123.9c0.3-0.2,0.7-0.1,1-0.2c0.3-0.1,1.8-0.3,2.4-0.5c0.6-0.2,1.2-0.6,1.5-0.7
			c0.4-0.1,1.5-0.3,2.3-0.6c0.3-0.1,0.5-0.3,0.8-0.5c-1.8-1.7-3.4-3.7-4.6-5.8c-0.1,0.1-0.5,0.5-1.1,0.7c-0.3,0.1-0.5,0.2-0.8,0.2
			c-0.1,0-0.7,0.1-0.7,0c-0.5,0.2-1.6,0.6-2.8,0.8c-1,0.1-1.3,0.4-1.6,0.5c-0.3,0.1-0.4,0-0.6,0.1c-0.2,0.1-2.1,0.8-3,0.9
			c-0.8,0.1-1.6,0.3-2.1,0.3c-0.4,0.1-1.3-0.1-1.6-0.1c-0.3,0-2.7,1.2-3.2,1.1c-0.5-0.1-1-0.3-1.4-0.2c-0.3,0.1-1.1,0.5-2.1,0.8
			c-1,0.3-1.4,0-2.1-0.1c-0.7-0.1-0.9-0.1-2.2,0.3c-1.2,0.4-1.3,0-1.7-0.1c-0.4-0.1-0.6,0.4-0.8,0.4c-0.2,0-1-0.1-2.8-0.2
			c-1.8-0.1-2.1-0.3-2.4-0.4c-0.3-0.1-0.4,0.5-0.8,0.5c0,0,0,0-2.7-0.2c-2.5-0.2-3.8-1.1-3.9-1.2c0,0.1-0.6,0.5-2.4-0.2
			c-1-0.4-1.6-0.9-2-1.4c0.3,2.3,0.1,4.4-0.2,6.2c0.3,0.1,0.9-0.2,1.3,0.4c0.1,0.2,1.3,0.4,1.6,0.5c0.3,0.1,2,0.8,2.6,0.8
			c0.6-0.1,0.8-0.3,0.9-0.3c0.1,0,0.5,0.4,0.7,0.5s2.1,0.3,2.6,0.2c0.5-0.1,1,0.1,1,0.1c0,0,1.7,0.5,2.2,0.6
			c0.5,0.1,1.9-0.1,2.9-0.3c1-0.2,1.5-0.4,1.4-0.3c-0.1,0.1,0.1,0.2,0.1,0.2c0.1,0,1.7-0.2,2-0.1c0.3,0.1,1.1,0.5,1.5,0.1
			s1-0.5,1.1-0.4c0.1,0.1,1.1,0.4,1.2,0.3c0.1-0.1,0.7-0.3,1.4-0.3c0.4,0,0.7-0.1,0.7-0.4c0.1-0.2,0.5,0.1,0.9,0.2
			c0.4,0.1,1.3-0.4,1.7-0.4s0.8,0.2,1.3,0c0.3-0.1,0.6-0.1,0.9,0c-0.5-1.1-0.8-2,0.1-3.7c1.2-2.3,4-2.5,4.4-0.9c0.3,1,0,2.1,0,2.8
			c0.1,0,0.3,0.1,0.4,0.2c0.4,0.1,0.9,0.4,1.5,0.9c0.8-0.3,2.3-0.4,2.6-0.4C490.8,124.6,492.2,124.1,492.6,123.9z"/>
	</g>
	<g>
		<path class="st4" d="M526.7,101.9c-0.8,0.7-1.2,2.3-0.9,3c0-0.6,0.3-1.9,1.1-2.6c2-1.7,4.8,3.3,5.8,7.1c0.3-1.7-1.6-7-4.4-7.8
			C527.8,101.4,527.2,101.5,526.7,101.9z"/>
		<path class="st4" d="M535,110.8c0.3-1.7,2.3-4.7,4-2.7c0.7,0.8,1.4,2.6,1.6,3.8c0.2-1.2-0.4-3.5-1.8-4.4
			C536.8,106.2,534.7,108.3,535,110.8z"/>
		<path class="st4" d="M524.1,96.2c-2.3-0.3-3.1,3.4-3,5.7C521.1,101.6,522,96.8,524.1,96.2z"/>
		<path class="st17" d="M523.2,103.7c0.2-2.5,1.1-5.7,2.9-5.8c1.5-0.1,2.6,1.3,2.8,1.9c0.3-1.2-2.1-4.2-4.2-2.7
			C523,98.4,522.9,101.9,523.2,103.7z"/>
		<path class="st17" d="M536.4,102.3c1.3,0.6,2.1,2.9,2.5,4.5c-0.1-2.6-0.7-3.9-1.5-4.8c-1.9-2.1-2.9,0.6-2.7,1.6
			C534.9,102.9,535.5,101.9,536.4,102.3z"/>
		<path class="st17" d="M518.7,79.6c2.9-2,3.1-4.7,1.8-6.6c-3-4.5-11.5-2-12.4,2.4c-0.2,1,0,2.3,0.7,3.3
			C511.1,82,515.9,81.5,518.7,79.6z M511.3,72.6c2.8-1.8,7.1-2.3,8.9,0.8c1.9,3.3-2.4,7.6-7.1,7.2C509.8,80.3,506.8,75.5,511.3,72.6
			z"/>
		<path class="st4" d="M516.3,77.5c1.1,0.2,2.4-0.5,3.1-1.4c0.5-0.7,0.6-1.4,0.2-2.1c-0.3-0.5-0.8-0.8-1.4-0.9
			c-0.9-0.1-2.1,0.3-2.8,1.2c-0.6,0.7-0.7,1.6-0.4,2.4C515.3,77.2,515.7,77.5,516.3,77.5z M515.6,74.7c0.5-0.8,1.4-1.4,2.3-1.4
			c0.5,0,0.9,0.2,1.2,0.6c0.5,0.7,0.3,1.4,0.1,1.8c-0.5,0.9-1.6,1.7-2.6,1.7c-0.5,0-0.8-0.2-1.1-0.5
			C515.2,76.2,515.2,75.5,515.6,74.7z"/>
		<path class="st17" d="M513.2,87.4c0.1,0.1,1.1-0.5,5.3-0.7c2.4-0.2,5.4-0.2,7-0.9c2.1-0.9,2.7-2.3,2.1-3.3
			c-0.9-1.6-3.5-0.7-5.2-0.1c-2.7,1.1-5.8,3.1-7.4,4.1C514.1,87,513,87.3,513.2,87.4z M522.7,83c1.4-0.6,2.5-0.8,3.3-0.8
			c0.6,0,1.1,0.2,1.3,0.6c0.4,0.6-0.3,1.7-1.9,2.5c-1.5,0.7-4.2,0.8-6.6,1c-1,0.1-2.3,0.3-3.4,0.5C517,85.6,520.4,83.9,522.7,83z"/>
		<path class="st17" d="M511.6,152.6c0.5-5.6,3.3-9.4,4.3-10.5c3-0.8,6.4-2.6,6.9-5.6c2.7,0.1,4.3-1.2,5.7-2.8
			c5.9-3.6,15.7-6.2,18.6-10.6c2,1.7,4.5,4.2,7.5,7.5c-0.4-1.2-3.8-4.9-7.3-7.9c0.2-0.3,0.3-0.6,0.4-1c0.6-1.9,0.3-3.5-0.7-4.8
			c0,0,0,0,0,0c3.6,0.1,8.6,0.7,13.3,2.3c-1.6-1-5-1.8-8.5-2.3c-1.8-0.3-3.7-0.4-5.3-0.5c-1.1-1-2.7-1.4-3.7-1.7
			c0-3.3-0.7-5.7-1.6-7.5c0.8-3,3-4.8,4.7-6.4c1.5-1.4,2.7-2.6,2.3-3.8c-0.9-3.2-11.4-2.7-15.6,1.7c-2.9-2.1-6.6-3.3-8.3-3.4
			c2-0.9,4.8-1.6,7.4-1.4c-1.3-1.5-8.2-1.1-11.3,1.1c1.3-1.7,3-5.9,2.4-6.4c-3.1,5-6,6.9-7.2,7.1c-0.5-1-1-2.1-1.5-3.2
			c-0.8-1.6-1.5-3.8-2.5-5.4c-2.1-3.7-5-6.5-9.4-6.5c-5.3-0.1-10.8,5.9-11.1,16.2c-1.8,0.7-4.6,0.1-5.1-0.7
			c-0.6-0.9,1.3-2.6,0.2-3.7c-0.7-0.7-2.8-0.7-4,0.9c-0.4,0.5-0.6,1.1-0.9,1.5c-0.6,1.1-1.3,2.8-3,3c-0.8-0.5-1.3-1.3-2.4-1.4
			c-0.9,0-2,0.6-2.7,1.7c-0.2,0-0.4-0.1-0.6,0c-0.7,0.1-1.7,0.8-2.2,2.1c-1.4,0.6-2.4,2.6-2.6,3.7c-0.5-0.3-1.2-0.6-1.9-0.5
			c-1.2,0.1-1.9,0.8-2.6,1.5c-0.8,0.8-2.1,1.7-3.2,1.5c-1.5-0.2,0.8-1.1,1.4-1.8c0.9-1.1-0.1-2.5-2.1-1.9c-1,0.3-2.1,1-3.3,1.8
			c-1.5,1-3,2.3-5,3.1c-1.9,0.7-3.2,0.2-4.2-0.1c-2.5-0.7-3.1,3.4,0.7,4.1c1,1.2,4,6.7,1.7,16.3c-0.5,2-0.8,3.1-0.1,3.6
			c5.8,4.3,14.9,5,20.3,5c0.7,0,1.3,0,1.7,0c0.2,0.6,0.6,1.5,1.6,2c1.4,0.8,3.1,0.4,4.7-0.2c1.4,1.3,8.1,1,13.9-3.6
			c1.1,0.2,2.4,0.5,3.7,0.8c-7.2,3.5-12.5,11.3-13.2,18c-0.1,1.1-0.1,2.2-0.1,3.2c-2.6,1-4.6,3.2-6,4.9c0.6-3-1.7-4-3.1-3.9
			c-0.5-0.9-1.7-1.9-3.5-1.6c-3.3,0.6-7,4.6-7.5,12.2c-0.2,3.8,0.4,7.1,1.9,8.6c0.6,0.7,1.4,1,2.2,1c0,0,0,0,0.1,0
			c1.5,0,3-1.1,5-2.4c3.7-2.6,8.7-5.8,18.1-4.6c3.2,1.8,7.6,2.6,13.1,1.9c3,1.8,7,4.1,10.5,4.7c2.5,0.4,4.8,0,5.9-2.4
			c0.1-0.2,0.1-0.3,0.2-0.5c1.4,0.7,3.4,0.2,4.4-0.8c1.4,0.2,3-0.2,3.4-1.6c0.5-1.7-1.4-3.4-3.5-5c-0.6-0.5-1.2-0.9-1.7-1.3
			c11.3-3.6,20.8-15.4,32.8-14.1c0.6,0.1-3-2.5-10.5-0.8c-9.2,2-19.2,8.8-25.1,9.5c-0.8-1.8-1.8-3.5-4.2-4c-1.3-0.3-2.1,0.2-2.6,0.7
			c-0.1,0.1-0.2,0.2-0.2,0.2C511.4,155.7,511.4,154.2,511.6,152.6z M528.8,131.9c-1.7,2-3.7,3.7-6.2,3c-0.2-0.7-0.7-1.4-1.4-2.1
			c-0.5-0.5-1.1-1-1.8-1.4c-0.9-2-0.8-5.7-0.5-6.9c-0.7,1-1.2,3.8-0.5,6.3c-1.5-0.9-3.2-1.6-5.1-2.2c-0.3-1.6,0.1-5,0.5-7.7
			c0.4-2.6,0.6-5.2,0.3-6.8c1.8-0.9,4.1-1.7,6.2-2.2c1,1.3,0.5,4.7,0.1,7.7c-0.4,2.9-0.9,6.4-0.2,9.2c1,4.3,3.9,5.5,6.4,3.8
			c1.9-1.3,3.2-3.9,3.9-4.9c2.4-3.3,5.3-7,7.1-7.8c0.8-0.1,1.6-0.4,2.3-0.7c0.1,0.1,0.1,0.2,0.2,0.3c-1.4,1.5-6.4,9.5-8.2,11.8
			c-1,0.5-1.9,1.1-2.8,1.7c0.5-0.6,0.9-1.3,1.3-1.9c1-1.3,2.1-2.8,2.7-3.2C531.6,128,530.4,130,528.8,131.9z M512,128.2
			c-7.4-9.9-4.2-19.3-0.3-21.1c-1.4,0.1-3,1.6-4,3.4c-2.2-0.1-4.5-3.4-5.4-5.4c0.9,1.3,2.2,2.1,3.8,2c1-0.1,1.8-0.6,2.4-1.2
			c4,0.9,9.7,2.5,15.1,4.8c-0.3,0.1-0.6,0.1-0.9,0.2c-3.1,0.6-10.4,2.5-11,5.1c0.5-0.6,1.2-1.1,2.1-1.6c0.3,1.5,0,4-0.4,6.6
			c-0.4,2.9-0.8,5.8-0.4,7.7C512.8,128.4,512.4,128.2,512,128.2z M530.2,109.3c-0.6-0.8-1.3-1.1-1.8-0.8c0-1-0.6-1.8-1.7-2.5
			c1.1-0.1,3.4,0.1,5.5,3.4C531.4,109.2,530.8,109.2,530.2,109.3z M529.8,109.4c-0.3,0.1-0.5,0.2-0.7,0.3c-0.2-0.3-0.5-0.5-0.7-0.8
			C528.6,108.8,529,108.6,529.8,109.4z M527.1,107.1c0.5,0.5,0.8,0.9,0.8,1.3c-0.5-0.5-0.9-1-1.1-1.1c-0.4-0.4-0.9-0.9-1.4-1.3
			C526.1,106.3,526.7,106.7,527.1,107.1z M528.1,109.3c0.2,0.2,0.3,0.4,0.5,0.6c-0.5,0.3-0.8,0.8-1,1.2c0.3-0.3,0.7-0.6,1.3-0.8
			c1.6,1.8,2.1,2.9,2.1,2.3c0-0.4-0.8-1.4-1.7-2.4c1.5-0.4,3.5-0.3,4.8,1.2c0,0.1,0,0.2,0,0.3c0.1,0.6,0.7,1.4,1.1,2.1
			c0.4,0.7,0.8,1.5,0.9,1.6c0.9,0.4,4.6,0.5,4.7-0.8c0.5,0.6,0.5,1.5,0.3,2.1c-0.8,2.6-5.7,3.1-7.1,2.1c0.7-0.2,1.3-0.6,1.8-1.4
			c-1.4,1.1-3,0.9-4.5,0.4c-3.8-1.5-4.1-4.1-5.2-5.9c0.6,0.3,1.3,0.7,1.9,1c1.6,0.9,1.9,1.2,2.1,1.1c0.2-0.3-1.4-1.2-2.1-1.7
			c-0.8-0.5-1.7-0.9-2.6-1.3c-0.1,0-0.1-0.1-0.2-0.1C526.7,110.5,527.7,110.2,528.1,109.3z M535.1,111c1-0.6,3-0.8,4.2,0.4
			c0.5,0.4,0.8,0.9,1,1.8C539,112,536.5,111,535.1,111z M540.4,114.2c-0.3,0.8-3.4-0.8-3.1-1.6C537.5,111.8,540.7,113.5,540.4,114.2
			z M521,120.2c0.3-0.2,1-0.4,1.7,0c0.9,0.4,2.5,2.2,1.8,8.1c0.4-0.8,0.7-2.6,0.6-4.4c0.2,0,0.5,0,0.9,0.2c0.5,0.3,1.8,1.2,1.6,3.6
			c-0.2,2.5-1.1,3.8-1.8,4.5c-0.6,0.3-1.3,0.4-1.9,0.3c-1.4-0.3-2.6-1.8-3.1-4.1C520.2,125.8,520.6,123,521,120.2z M532.9,130.5
			c2.4-3.2,6.3-9.6,7.5-11c0.2,0.4,0.3,0.8,0.7,1.2c0.3,0.3,0.6,0.4,1,0.3c-1-0.4-1.1-1.8-1.4-2.4c0,0,0,0,0,0
			c0.4,0.1,2.1,0.8,5.5,3.6C544.2,125.3,538.2,127.7,532.9,130.5z M541.1,118.2c0.4-0.4,0.7-0.8,0.9-1.3c0.4-0.1,1.7-0.2,3.6-0.3
			c1,1,1.7,2.5,1.1,4.5c-0.1,0.2-0.1,0.4-0.2,0.6C544.3,120,542.4,118.6,541.1,118.2z M547,97.9c-0.9,1.7-5.5,4.4-6.1,8.5
			c-0.6-1-1.2-1.9-1.9-2.6c-1.7-4.8-3.8-4.9-4.8-3.9c-0.4-0.4-0.8-0.7-1.2-1C537.1,95.1,548.6,94.8,547,97.9z M508.7,84.6
			c4.2,5.1,5.9,14,9.3,14.4c-0.8-0.5-1.5-1.6-2.2-3c1.6-0.3,3.7-2.1,5.8-4.8c-1.2,3.4-3.1,4.9-3.3,5.7c1.5-1.7,5.3-3.2,8.6-3.2
			c-2,0.3-4.3,1.5-4.6,2.5c0.2-0.2,0.5-0.4,0.8-0.6c1.7,0,7.6,2,10.7,4.7c-0.2,0.4-0.4,0.8-0.3,1.2c0.9-1.6,3.2-2.5,5.2,2.7
			c0.4,0.8,3.3,4.3,3.1,10.5c0.2,0,1.7,0.4,3,1.4c-1.2,0-2.1,0.1-2.8,0.3c0.2-1-0.2-1.9-1.1-2.5c0,0,0,0,0,0
			c-0.1-0.2-0.3-0.4-0.5-0.6c0.4-0.9-0.2-2.9-1.9-3.4c-1.3-0.4-2.9,0.1-3.6,1.1c0,0-0.1,0-0.1,0c-0.8-0.8-1.6-1.3-2.4-1.6
			c-0.3-1.2-1.3-2.6-2.3-3.6c-1.4-1.3-3.4-1.2-3.9-0.1c-0.6-0.3-1.3-0.6-2-0.9c-6.2-5.5-13.2-9.9-13.9-9.6c1.1,0.5,7.1,4.3,12.9,9.3
			c-2.4-0.6-5-0.6-6.5,0.3c2.7-0.5,5.4-0.2,7.4,0.6c1.3,1.1,2.5,2.3,3.6,3.5c-0.4,0.8-1.7,1.1-3.3,1.4c-5.3-2.4-11.4-4.1-15.6-5
			c0.9-1.3,1.3-3,1.2-4.3c0.4,0.8,0.7,1.5,0.8,2.3c0.5-1.3-0.9-3.5-1.1-3.8c-0.2-0.6-0.4-1.4-0.7-2.5c-0.4-1.4-0.7-3.6-1.3-5.7
			c-0.6-2.2-1.5-4.8-2.9-6.7c-1.2-1.5-2.8-2.5-4.8-2.3c-0.8,0.1-1.7,0.3-2.5,0.8C500.9,80.5,505.5,80.7,508.7,84.6z M495.8,85.2
			c1.3-1.5,2.8-2.4,4.4-2.5c1.7-0.1,3.1,0.7,4.3,2.4c3.3,4.6,3.8,12.3,5,15c0.1,0.2,0.2,0.4,0.3,0.5c0.1,1.5-0.6,3.5-1.7,4.7
			c-2.6-0.5-4.3-0.6-4.5-0.3c0.3,0,1.8,0.2,4.1,0.7c0,0,0,0-0.1,0.1c-1.6,1.3-4.4,0.9-5.7-2.4c-0.8-1.9-0.9-4.3-0.9-5.3
			c-1.3,0.7-0.3,8.2,3.7,11.6c1.3,1.1,2.3,1.2,2.9,1.2c-0.3,0.6-0.5,1.2-0.7,1.8c-0.6,2.4-1,8,2.4,13.2c-2-0.6-4-1.6-6-3.2
			C492,113.5,489.6,92.7,495.8,85.2z M475.8,97c1.3,0,1.5,1.2,3.5,1.7c1.7,0.5,2.7,0.3,2.9,0.7c0.3,0.6-0.4,1.1-1.1,1.4
			c-1-1.4-3.3-1-4.4-1.2c-1.3-0.3-2.1-1.1-2.9-1.5C474.5,97.3,475.3,97,475.8,97z M473.3,98.6c0.9,0.4,2.3,1.5,3.8,1.8
			c2.2,0.3,3,0.1,3.4,1c0.4,0.8-0.6,1.9-2,2.2c0-0.2,0-0.4-0.1-0.6c-0.5-1.2-2-0.8-3.8-1.4c-0.6-0.2-1-0.8-1.4-1.1
			c-0.5-0.4-1.1-0.8-1.9-0.8C471.8,99,472.6,98.3,473.3,98.6z M469.5,101.4c0.9-1,2.2-1.2,3.3-0.4c0.5,0.4,1,0.8,1.9,1.1
			c0.7,0.2,1.3,0.1,2.6,0.6c0.9,0.3,0.1,1.5-0.2,1.7c-2.2,1.7-6-0.4-6.8-1.7c0,0.3,0.2,0.6,0.5,1c-0.8,0.5-2,0.3-2.8-0.1
			C468.3,103.2,468.9,102.1,469.5,101.4z M445.4,108.9c-0.3-0.8,0.1-1.2,0.6-1.1c0.3,0,1.7,0.6,2.9,0.6c1.7,0.1,2.9,0,7.7-3.6
			c3.6-2.7,4.8-1.6,4.3-1c-0.8,0.9-2.1,1.4-2,2.1c0.1,1,2.6,1.4,4.4-0.2c1-0.9,1.8-2.1,2.9-2c1,0.1,2.9,2.1,4.9,0.6
			c1.1,1.1,3.1,2.2,5.1,1.7c0.9-0.2,1.7-1,2-1.7c0,0,0,0,0.1,0c1,0,2.1-0.6,2.7-1.4c0.3-0.4,0.4-0.8,0.4-1.1c0.7-0.3,1.1-0.7,1.4-1
			c1.5-0.5,3.6,0,4.1,0.3c-1-1.1-2.6-1.2-3.8-0.8c0-0.1,0-0.1,0-0.2c0.3-1.8-2.5-1.5-4.4-2.2c1.5-0.4,2.6-1.7,3.1-2.8
			c0.5-1,1.3-2.1,2.3-2.5c0.6-0.3,1.9-0.3,1.7,0.6c-0.2,0.8-1.2,2.3-0.4,3.3c1.2,1.4,3.4,1.8,5.5,0.6c-0.1,3.2,0.4,6.8,1.5,10.8
			c-2.6-0.6-5.4,0.2-5.9,0.6c-1.1,0.8-0.8,2-2.2,2.1c-2.1,0.2-4,0.1-5.5,0.3c-5.3,0.5-5,2.8-3.6,3.3c1.2,0.5,2.8,0.2,3.3,0.5
			c0.8,0.4-0.4,2.3-5.1,2.4c-6.5,0.2-7.1-1.8-8.3-2.9c-1.1-0.9-4.6,0.2-5.9-0.2c-1.6-0.5-0.9-1.5-2.1-2.6c-1.3-1.2-4.3-1-8-1l-0.4,0
			C446.5,110.4,445.6,109.3,445.4,108.9z M450.9,131c-1-0.6-1-0.8-1-1.3c0.5-2.7,2.5-8,0.8-14.2c-0.5-1.9-1.3-3.4-1.9-4.2
			c3.6-0.1,6.7-0.6,8.3,0.9c0.4,0.4,0,2,1.9,2.6c1.7,0.5,5.1-0.9,6-0.1c0.9,0.7,3,3.9,9.4,3.3c3.3-0.3,4.9-1.9,5.1-3
			c0.4-1.6-3.2-0.9-4.1-1.5c-1-0.7,0.7-1.7,3-1.9c3-0.2,6.3,0.2,7.5-1.2c0.4-0.5,0.2-0.7,0.5-1c0.9-0.9,4.4-1.2,6.4-1.2
			c0.7,2.5,1.8,5,3.1,7.4c-0.1,0-0.6,0.3-1.3,0.5c-0.4,0.1-1.3,0.3-1.3,0.5c0,0.1,0.6,0,0.7,0c0.3-0.1,0.5-0.2,0.8-0.2
			c0.6-0.2,1-0.5,1.1-0.7c3,5.1,7.6,9.3,14,10.7c0.4,0.6,0.9,1.1,1.4,1.6c-7.8-1.9-17.1-1.6-21.8-0.7c-1-2.2-2.4-2.9-3.1-3.2
			c-0.1,0-0.4-0.1-0.4-0.2c0-0.7,0.2-1.8,0-2.8c-0.4-1.6-3.2-1.4-4.4,0.9c-1.1,2.1-0.3,3,0.3,4.6c0.2,0.5,0.3,1.1,0.3,1.4
			c-0.2,0.9-4.3,5.3-7.8,6.7C470.4,135.3,457.9,135.3,450.9,131z M484.7,148.2c2.5-5.3,7.7-10.4,11.8-12.9c3.4,0.8,7.1,1.9,10.5,3.2
			c-2.2,2.2-2.9,6.3-3.3,10.4c-0.1,0.8-0.1,1.6-0.2,2.3c-0.4,5-0.8,9-4.8,13.1c-1.2,1.2-2.4,2-3.6,2.4c-5.1,2-10.6-1.5-12-7
			C482.2,156.3,482.8,152.1,484.7,148.2z M469.3,157.1c1.1-0.2,1.9,0.2,2.3,0.5c-0.9,0.4-1.7,1.1-2.4,1.9c0-0.9-0.3-1.9-1.3-1.7
			C468.4,157.4,468.9,157.2,469.3,157.1z M464.3,175.9c-1.2-1.3-1.6-4.3-1.4-7.7c0.1-2.3,0.5-4.4,1.1-5.9c0.7-1.6,2.9-4.9,4.2-4
			c0.5,0.4,0.6,1.2,0.4,1.8c-1,1.3-1.5,2.7-1.2,3.6c0.1-1.1,1.7-4.3,3.6-4c0.4,0.1,0.6,0.3,0.7,0.7c0.3,1.1-0.2,2.3-0.8,3.9
			c-0.5,1.1-1,2.4-1.3,4c-0.2,0.9-0.4,1.9-0.5,2.8c-0.4,2.6-0.8,4.2-1.5,4.9C466.9,176.7,465.3,177,464.3,175.9z M534.9,154.5
			c5.6-2.4,11.9-4.5,16.5-3.6c-2.7,0.2-5.9,1-8.3,2c-7.1,3-14.1,8.9-22.7,11.8c-0.6-0.9-1-2.1-1.4-3.2c-0.1-0.2-0.1-0.3-0.2-0.5
			C523.1,160.5,528.4,157.3,534.9,154.5z M514.1,157.2c2.3,0.5,3.1,2.4,3.9,4.7c0.5,1.3,1,2.7,1.8,3.8c0.5,0.7,1.5,1.4,2.5,2.2
			c1.5,1.2,3.6,2.8,3.4,3.8c-0.3,0.9-2.1,1.3-3,1c-1.9-0.7-2.7-2.3-3.5-2.5c0.6,0.6,1.1,2.2,2.5,3c-0.8,0.6-2.2,0.6-2.8,0.1
			c0.8-4.1-1.6-9.9-3.6-10.4c1.4,1.5,4.5,9.5,1.1,12.3c-4.5,3.6-15.2-5.2-18.6-5.1c0.3,0.1,1.1,0.6,2.2,1.2c-6.3,0.3-13.3-1-16-7.1
			c0.4,2,1.6,3.8,3.3,5.3c-8.4-1.2-13.6,2.4-17.1,4.9c-0.7,0.5-1.3,1-1.8,1.4c0.7-1.2,0.9-2.8,1.2-4.5c0.1-0.9,0.3-1.8,0.5-2.7
			c0.3-1.5,0.8-2.8,1.3-3.9c0.7-1.6,1.2-2.9,0.8-4.2c-0.2-0.7-0.7-1-1.1-1c-0.2,0-0.5,0-0.7,0c1-0.7,2.1-1.2,3.2-0.8
			c2,0.8,0.5,4.4-0.3,6.5c-0.7,1.7-1.3,3.3-0.9,4.3c0.3-1.5,1.3-3.3,2.2-5c1.2-1.8,4.2-5.3,7.4-6.3c0.8,4.3,3.2,7.9,7.2,9.5
			c3.6,1.4,7.2-0.1,9.9-2.8c4.2-4.2,4.6-8.1,5.1-13.3c0.1-0.8,0.1-1.5,0.2-2.3c0.4-4,1-8.3,3-10.3c1.3,0.5,2.6,1.1,3.8,1.8
			c-0.2-3.6-22.6-8.3-25.4-7.1c0.2,0,1.9,0.2,4.3,0.6c-5.6,4-10.3,3.8-11.6,3.4c1.6-0.8,2.8-1.8,3-2.2c-5.3,3.2-8.3,2.1-9.2,0.7
			c0.2,0,0.4-0.1,0.6-0.2c5.1-1.2,9.1-5.2,9.8-7.3c0.4-1.3-0.8-3.4-0.7-4.3c0.1-2,2-3.7,2.9-3c0.8,0.6,0,3.2,0.6,3.6
			c0.6,0.3,1.9,0.5,3.1,2.8c-0.7,0.2-1.3,0.3-1.7,0.5c10.2-0.9,18.8-0.1,24.7,1.4c7.6,2,13.6,6.5,7.1,10.4c-2.6,1.6-6.5,2.3-7.5,2.4
			c0.4,0.3,1.5,0.3,2.9,0.1c-4.5,5.2-6.2,18.3,0.8,25.7c-0.7-1.4-2.7-4.3-3.3-9.4C512,158,512.8,156.9,514.1,157.2z"/>
		<path class="st17" d="M465.1,98.5c5.2,0,7.6-4.3,6-7.7c-2.1-4.4-10-3.9-12,0C457.4,94,460,98.5,465.1,98.5z M459.1,93.6
			c-0.2-2.1,1.3-3.9,3.5-4.7c3.3-1.2,7.8-0.3,8.2,3c0.5,3.2-1.7,5.3-4.6,5.7C463,98.1,459.3,96.9,459.1,93.6z"/>
		<path class="st4" d="M469,90.4c-0.9-0.9-2.6-1.2-3.8-0.5c-0.9,0.5-1.1,1.7-0.6,2.5c0.5,0.6,1.4,1.1,2.5,1.1
			C469.6,93.5,470.1,91.5,469,90.4z M466.5,93.2c-1.1-0.2-1.9-0.9-1.9-1.7c0-1,1.3-1.6,2.4-1.6c2.4,0,3,2.2,1.5,3
			C468,93.2,467.2,93.3,466.5,93.2z"/>
		<path class="st17" d="M486.2,85.2c0.8,0,1.8-0.4,2.2-1.1c0.2-0.3,0.4-1-0.2-1.9c-0.3-0.5-0.9-0.8-1.5-0.8c-0.8,0-1.6,0.5-2.1,1.1
			c-0.4,0.5-0.4,1.1-0.2,1.7C484.8,84.8,485.4,85.2,486.2,85.2z M485.2,82.7c0.5-0.4,1.4-0.6,2-0.4c0.9,0.3,1,1.4,0.5,1.9
			c-0.4,0.4-1.3,0.5-2.1,0.3C484.6,84.1,484.6,83.2,485.2,82.7z"/>
		<path class="st4" d="M465.5,128.6c-0.6,0-1.2,0.3-1.6,0.6c-0.2,0.2-0.3,0.5-0.2,0.7c0.1,0.4,0.5,0.7,1.1,0.7
			c0.5,0,1.2-0.2,1.5-0.6c0.2-0.2,0.3-0.5,0.2-0.7C466.5,128.9,466.1,128.6,465.5,128.6z M466.2,129.7c-0.3,0.3-0.9,0.6-1.5,0.6
			c-0.2,0-0.6,0-0.6-0.2c0-0.1,0-0.2,0.1-0.3c0.3-0.3,1-0.6,1.5-0.6c0.2,0,0.5,0,0.6,0.2C466.3,129.4,466.3,129.5,466.2,129.7z"/>
		<path class="st4" d="M469.2,129.5c-0.5,0-1,0.2-1.3,0.5c-0.2,0.2-0.2,0.4-0.2,0.6c0,0.3,0.3,0.6,0.9,0.6c0.4,0,1-0.2,1.3-0.5
			c0.2-0.2,0.2-0.4,0.2-0.6C470,129.8,469.8,129.5,469.2,129.5z M469.8,130.3c-0.3,0.3-0.9,0.5-1.4,0.5c-0.3,0-0.5-0.1-0.5-0.1
			c0-0.1,0.1-0.1,0.1-0.2c0.3-0.3,0.9-0.6,1.5-0.6c0.2,0,0.4,0,0.5,0.1C469.9,130.1,469.9,130.2,469.8,130.3z"/>
		<path class="st4" d="M465.4,131.3c-0.4,0-0.9,0.2-1.1,0.4c-0.1,0.2-0.2,0.3-0.2,0.5c0,0.3,0.3,0.6,0.8,0.6c0.3,0,0.8-0.1,1.1-0.4
			c0.1-0.2,0.2-0.4,0.2-0.5C466.1,131.6,465.9,131.3,465.4,131.3z M464.6,132.4c-0.7-0.2,0.6-0.8,1.1-0.7
			C466.4,131.9,465.2,132.6,464.6,132.4z"/>
		<path class="st17" d="M536.2,87.6c3.9,0.3,7.9,0.9,7.9-1.2c0-0.8-1-2.2-4-1.4c-1.5,0.4-3.2,1.5-4.5,2.5
			C535.6,87.6,535.8,87.6,536.2,87.6z M541.1,85.3c1.7-0.3,2.5,0.7,2.5,1.1c0,0,0,0,0,0c0,0.3-0.2,0.5-0.4,0.6
			c-0.3,0.2-0.8,0.4-1.8,0.4c-2.7,0.1-3.4,0.1-5.2,0.1C537.5,86.3,539.6,85.5,541.1,85.3z"/>
		<path class="st4" d="M455.1,119.9c0-0.1-1-0.3-2-0.8c-0.7-0.4-1.2-0.8-1.4-1c-0.2-0.2-0.2-0.2-0.1,0c0.2,0.9,1.5,1.6,2.3,1.8
			C454.6,120.1,455.1,120,455.1,119.9z"/>
		<path class="st4" d="M462.1,121c-1.5-0.3-3-0.3-4.5-0.7c-0.7-0.2-1.3-0.5-1.9-0.8c-0.4-0.2-0.6-0.4-0.5-0.2
			c0.1,0.2,0.5,0.6,0.7,0.7c0.9,0.6,2.1,0.9,3.2,1.1c0.6,0.1,1.1,0.1,1.7,0.1c0.3,0,0.5,0,0.8,0C462.4,121.2,462.3,121.1,462.1,121z
			"/>
		<path class="st4" d="M468.1,121.2c-0.3-0.2-2.5-0.4-2.8-0.4c-0.4,0-0.9,0-1.3,0c-0.2,0-0.4-0.1-0.6-0.1c-0.1,0-0.6-0.2-0.3,0.1
			c0.3,0.3,0.6,0.4,1,0.4c0.5,0.1,0.9,0.1,1.4,0.1c0.5,0.1,1-0.1,1.5,0C467.2,121.3,468.3,121.3,468.1,121.2z"/>
		<path class="st4" d="M474.8,121c0.4-0.1,0.8-0.2,1.1-0.3c0.6-0.3,0.8-0.5,0.8-0.6c0-0.2-0.8,0.3-1.9,0.5c-0.7,0.1-1.3,0-1.9-0.1
			c-1.3-0.2-1.9,0.2-2.8,0.3c-0.1,0-0.8,0-1,0c-0.2,0,0.5,0.4,1.4,0.3c0.6,0,1.2-0.2,1.9-0.3C473.2,120.8,474,121.2,474.8,121z"/>
		<path class="st4" d="M479.4,120.3c1.2-0.3,2-1.1,1.5-1c0,0,0,0,0,0c-0.1,0-0.2,0.1-0.2,0.1c0,0,0.2-0.1,0.2-0.1
			c-0.6,0.2-1.1,0.5-1.7,0.6c-0.5,0.1-1.3,0-1.6,0C477.1,119.9,478,120.6,479.4,120.3z"/>
		<path class="st4" d="M480.7,119.4C480.7,119.4,480.7,119.4,480.7,119.4L480.7,119.4z"/>
		<path class="st4" d="M484.1,119.3c0.4-0.1,0.8-0.1,1.2-0.2c0.8-0.1,1.6-0.2,2.3-0.6c0.3-0.2,0.4-0.3,0.4-0.4
			c0-0.1-0.7,0.3-1.5,0.5c-0.3,0.1-0.7,0.1-1.1,0.1c-0.9,0.1-1.1,0.3-2.1,0.4c-0.4,0-0.7,0-0.9,0
			C482.1,119.2,482.7,119.5,484.1,119.3z"/>
		<path class="st4" d="M489,117.9c0.5-0.1,2.1-0.4,2.1-0.4c0.3,0,0.6-0.1,0.9-0.2c0.1-0.1,0.3-0.1,0.4-0.2c0.2-0.2,0.3-0.3,0.2-0.2
			c-0.3,0.1-1,0.3-2.2,0.4c-0.3,0-0.6,0.1-0.8,0.2C488.9,117.6,488.5,118,489,117.9z"/>
		<path class="st4" d="M457.1,125.8c-0.2,0-1.3,0-1.8-0.2c-0.5-0.2-0.8-0.5-1.3-0.7c-0.5-0.1-1-0.1-1.4-0.3
			c-0.2-0.1-0.7-0.5-0.6-0.2c0,0.1,0.3,0.4,0.3,0.4c0.3,0.2,0.7,0.3,1.1,0.4c0.5,0.1,0.9,0.2,1.3,0.4c0.4,0.3,0.8,0.5,1.3,0.5
			c0.3,0,0.5,0,0.8-0.1C456.8,126,457.2,125.8,457.1,125.8z"/>
		<path class="st4" d="M457.9,125.9c-0.1,0-0.4-0.3-0.5-0.2c-0.1,0,0.4,0.5,0.5,0.6c0.5,0.3,1.1,0.4,1.7,0.4c0.3,0,0.6,0,0.8-0.1
			c0.1,0,0.3-0.1,0.4-0.1c0,0,0.2-0.1,0.2-0.1c0-0.1-2.1,0-2.6-0.2C458.2,126,458,125.9,457.9,125.9z"/>
		<path class="st4" d="M463.9,126.9c-0.6-0.1-1.7-0.5-2.1-0.5c-0.6,0,0.8,0.8,2.7,0.9c0.5,0,1-0.1,1.5-0.2c0.1,0,0.9-0.2,0.9-0.3
			C467.3,126.5,464.7,127,463.9,126.9z"/>
		<path class="st4" d="M472,126.6c-0.4,0-0.9-0.1-1.1-0.1c-0.4-0.1-0.6-0.2-1-0.1c-0.2,0-1.5,0.3-1.6,0.1c0-0.1-0.2,0.1-0.1,0.2
			c0.1,0.1,0.2,0.1,0.4,0.1c0.4,0,0.8-0.1,1.1-0.1c0.6-0.1,0.9,0.2,1.4,0.3c0.5,0.1,0.9-0.2,1.1-0.3
			C472.4,126.4,472.2,126.5,472,126.6z"/>
		<path class="st4" d="M474.8,126.7c0.3-0.1,0.5-0.4,0.9-0.4c0.2,0,0.4,0,0.5-0.1c0.3-0.1,0,0-0.3-0.1c-0.4-0.1-0.5,0-1,0.1
			c-0.2,0.1-0.5,0.1-0.8,0.1c-0.5,0-1-0.3-1-0.1C473.2,126.6,473.8,127.1,474.8,126.7z"/>
		<path class="st4" d="M477.8,126.2c0.5-0.1,0.9-0.3,1.3-0.2c0.4,0,0.9,0.2,1.3,0.1c0.2-0.1,0.2-0.2,0.4-0.2c0.2,0,0.3,0,0.3,0
			c0.2,0-0.1-0.2-1-0.1c-0.4,0-0.8-0.1-1.2-0.1c-0.4,0.1-0.7,0.2-1.1,0.4c-0.4,0.1-1.2-0.1-1.2,0C477,126.1,477.4,126.2,477.8,126.2
			z"/>
		<path class="st4" d="M490.6,124.8c0.4,0,0.8-0.1,1.2-0.3c0.2-0.1,0.4-0.2,0.5-0.3c0.1-0.1,0.2-0.2,0.3-0.2c0.1-0.1,0-0.2-0.1-0.2
			c0,0,0,0,0,0c-0.7,0.2-0.1,0,0,0c-0.7,0.2-1.4,0.6-2.2,0.7c-0.2,0-2.3,0.3-2.2,0.4c0,0,1.1-0.1,1.2-0.1
			C489.8,124.8,490.2,124.8,490.6,124.8z"/>
		<path class="st4" d="M496.2,123.1C496.2,123.1,496.2,123.1,496.2,123.1C496.2,123.1,496.2,123.1,496.2,123.1z"/>
		<path class="st4" d="M496.2,123.1C496.2,123.1,496.2,123.1,496.2,123.1C496.3,123.1,496.3,123.1,496.2,123.1z"/>
		<path class="st4" d="M496.2,123.1C496.1,123.1,496.1,123.1,496.2,123.1C496.1,123.1,496.1,123.1,496.2,123.1z"/>
		<path class="st4" d="M494,123.8c0.3,0,0.6,0,1-0.1c0.3,0,0.6-0.1,0.9-0.2c0.1-0.1,0.2-0.1,0.3-0.2c0,0,0.3-0.3,0.1-0.2
			c-0.6,0.1-1.1,0.3-1.7,0.4c-0.1,0-1.5,0.2-1.4,0.5C493.2,123.9,493.9,123.8,494,123.8z"/>
		<path class="st4" d="M496.2,123.1C496.2,123.1,496.2,123.1,496.2,123.1C496.2,123.1,496.2,123.1,496.2,123.1z"/>
		<path class="st4" d="M496.1,123.1C496,123.1,496,123.1,496.1,123.1L496.1,123.1z"/>
		<path class="st4" d="M497.7,122.7c0.5,0,1-0.1,1.4-0.2c0.2-0.1,0.5-0.2,0.6-0.3c0.1,0,0.5-0.5,0.2-0.5c-0.6,0.1-1.1,0.5-1.7,0.6
			c-0.3,0-0.6,0.1-0.9,0.2C497,122.7,497.5,122.7,497.7,122.7z"/>
		<path class="st4" d="M499.8,121.8C499.8,121.8,499.8,121.8,499.8,121.8L499.8,121.8z"/>
		<path class="st4" d="M499.8,121.8c0,0,0.1,0,0.2,0C500,121.7,499.8,121.7,499.8,121.8z"/>
	</g>
</g>
</svg>
