<?xml version="1.0" encoding="utf-8"?>
<!-- Generator: Adobe Illustrator 24.3.0, SVG Export Plug-In . SVG Version: 6.00 Build 0)  -->
<svg version="1.1" id="群組_17" xmlns="http://www.w3.org/2000/svg" xmlns:xlink="http://www.w3.org/1999/xlink" x="0px" y="0px"
	 viewBox="0 0 390 160" style="enable-background:new 0 0 390 160;" xml:space="preserve">
<style type="text/css">
	.st0{fill-rule:evenodd;clip-rule:evenodd;fill:#1E1E1E;}
	.st1{fill-rule:evenodd;clip-rule:evenodd;}
	.st2{fill:#FEFCF7;}
	.st3{fill-rule:evenodd;clip-rule:evenodd;fill:#FFFFFF;}
	.st4{fill:#0C0103;}
	.st5{fill:#EB5F5B;}
	.st6{fill:#F7C6D0;}
	.st7{fill:#F4AEB3;}
	.st8{fill:#FEEBC8;}
	.st9{fill:#DA9300;}
	.st10{fill:#FFFFFF;}
	.st11{fill:#EA5753;}
	.st12{fill:#F6BBAA;}
	.st13{fill:#F7CB83;}
	.st14{fill:#C39E53;}
	.st15{fill:#CCB687;}
	.st16{fill:#D5B779;}
	.st17{fill:#1C1D1D;}
</style>
<g>
	<path id="形狀_512_拷貝_5" class="st0" d="M252.5,66.4c-0.6-2.3-6.2-4.5-6.2-4.5c1.6,0.2,3.3,0.1,4.8-0.3
		c0.7-0.2,1.4-0.4,2-0.7c-0.5-0.6-1-1.3-1.4-2c-1.3-2.5-2-5.3-1.8-8.1c0.2-3.2,1.7-6.2,4-8.3c1.6-1.4,3.5-2.6,5.5-3.4
		c-0.8-2.4-1-5-0.3-7.5c0.6-2.6,2.1-5,4.3-6.6c1.4-1,2.9-1.7,4.6-2.1c0.6-0.1,1.1-0.2,1.7-0.3c1.1-0.1,2.3-0.1,3.4,0.1
		c3.3-2.4-2.3-9.1-2.3-9.1s7.2,5.7,9.7,5.1c0,0,0,0,0,0c3.1-0.8,5.7-4.8,9.3-13c0,0-2.3,7.8-1.7,10.3c0.5,2.1,3.5,2.4,5.9,1.8l0.1,0
		c0,0-2.3,2.1-3,3.7c-0.2,0.4-0.2,0.9,0.1,1.3c1.2,0.3,2.4,0.8,3.4,1.5c4,2.4,6.3,6.8,6.1,11.4c1.5,0.4,3,1.1,4.4,1.8
		c1.4,0.8,2.6,1.8,3.7,2.9c1.9,2,3,4.7,3.1,7.4c0,1.2-0.1,2.3-0.4,3.5c0.9,1.2,3.1,2.8,8.1,3.3c-0.7,0.1-1.4,0.2-2.1,0.4
		c-1.4,0.3-3,1-3.5,2.1c-0.7,1.7,1.6,4.2,8.2,7c0,0-10.2-3.4-13.7-2.6c-0.3,0.1-0.6,0.2-0.9,0.5c-1.6,1.6-0.9,4.4,3,13
		c0,0-4.5-5.5-6.2-5.2c0,0,0,0-0.1,0c-1.1,0.3-2.1,2.9-3,6.9c0,0,0.1-6.4-1.2-7.3c-0.3-0.2-0.6-0.3-0.9-0.3
		c-0.8,0.9-1.8,1.7-2.8,2.3c-1,0.6-2.2,1.1-3.4,1.4c-0.6,0.1-1.2,0.3-1.9,0.3c-1.6,0.1-3.2,0.1-4.7-0.2c-1.4-0.3-2.8-0.7-4.1-1.3
		c-1.7,1.7-3.9,2.9-6.3,3.5c-0.4,0.1-0.8,0.2-1.2,0.3c-2.3,0.4-4.7,0.2-7-0.6c-1.5-0.5-2.9-1.3-4.1-2.3c-0.4-0.1-0.8,0-1.1,0.1
		c-0.4,0.1-0.7,0.3-1,0.5c-1.8,1.4-2.6,8-2.6,8c-0.4-6.3-0.8-8.3-2.8-9.3c-0.3-0.1-0.7-0.2-1.1,0c-3.1,0.8-9.8,7-9.8,7
		C251.1,71.9,253,68.3,252.5,66.4z M300.7,68.7c0.5,0.3,1,0.9,1.3,3.1c0.9-2.1,1.6-2.7,2.3-2.8c0,0,0.1,0,0.1,0
		c0.6-0.1,1.3,0.2,2.3,0.9c0.4,0.3,0.9,0.7,1.3,1.1c-0.7-1.5-1.2-3.1-1.6-4.8c-0.2-0.9-0.3-1.8-0.2-2.7c0.1-0.7,0.5-1.4,1-2
		c0.4-0.3,0.8-0.6,1.3-0.7c1.3-0.2,2.6-0.2,4,0c0.9,0.1,2,0.3,3.2,0.6c-0.9-0.7-1.7-1.5-2.2-2.6c-0.3-0.6-0.3-1.3,0-2
		c0.5-1,1.4-1.7,2.4-2.1c-0.5-0.1-0.9-0.3-1.3-0.5c-1.1-0.4-2.1-1-2.9-1.8c0,0-0.1-0.1-0.1-0.1c-0.2,0.7-0.5,1.3-0.9,1.9
		c-0.9,1.6-2.1,2.9-3.5,4c-1.4,1-2.9,1.8-4.5,2.4c0.1,2.8-0.8,5.5-2.6,7.8C300.3,68.4,300.5,68.6,300.7,68.7z M275.2,23.2
		c1.6,0.5,3.1,1.2,4.4,2.1c1.5-1.2,3.2-2,5.1-2.5c0.1,0,0.3-0.1,0.4-0.1c1.7-0.4,3.5-0.4,5.3-0.1c-0.1-0.5-0.1-0.9,0.1-1.4
		c0.4-0.8,0.9-1.6,1.5-2.3c-0.6,0-1.1-0.1-1.7-0.2c-1.4-0.2-2.5-1.2-2.9-2.5c-0.2-1.2-0.2-2.4,0-3.5c-0.5,1-1.1,1.9-1.7,2.8
		c-1.6,2.3-3.2,3.6-4.9,4.1c0,0,0,0,0,0c-1.1,0.1-2.1-0.1-3.1-0.6c-1.2-0.5-2.3-1.1-3.3-1.8c-0.1-0.1-0.3-0.2-0.4-0.3
		c1,2,1.3,3.6,0.9,4.9c-0.1,0.4-0.3,0.8-0.6,1.1h0l-0.1,0C274.5,23,274.9,23.1,275.2,23.2L275.2,23.2z M256.8,70.9
		c1.2,0.7,2.1,1.8,2.4,3.2c0.1,0.5,0.2,1,0.3,1.5c0.5-1.7,1.1-2.8,1.8-3.3c0.4-0.3,0.8-0.5,1.3-0.6c0.2,0,0.3-0.1,0.5-0.1
		c-0.9-1-1.6-2.1-2.2-3.3c-0.5-1.1-0.9-2.4-1.1-3.6c-2.3-0.4-4.4-1.5-6.1-3.2c-0.8,0.4-1.6,0.7-2.4,0.9c-0.5,0.1-1,0.2-1.5,0.3
		c0.7,0.4,1.3,0.9,2,1.4c0.7,0.5,1.2,1.3,1.5,2.1c0.1,0.7,0.1,1.5-0.1,2.2c-0.3,0.9-0.7,1.9-1.2,2.7c-0.4,0.7-0.8,1.4-1.4,2.2
		c1.3-1.1,2.9-1.9,4.5-2.5C255.7,70.6,256.3,70.7,256.8,70.9L256.8,70.9z M246,32.1c-0.3-0.2-0.4-0.5-0.3-0.8c0,0,0,0,0,0l0,0
		c0.2-0.3,0.5-0.4,0.8-0.2c0,0,0,0,0,0l5.7,3.9L246,32.1z M249.5,27.8L249.5,27.8c0.2-0.2,0.6-0.2,0.8,0c0,0,0,0,0,0l5,6.1l-5.8-5.3
		C249.2,28.4,249.2,28,249.5,27.8C249.5,27.8,249.5,27.8,249.5,27.8z M244.6,36.5c-0.3-0.1-0.5-0.4-0.4-0.8c0,0,0,0,0,0l0,0
		c0.1-0.3,0.5-0.5,0.8-0.3c0,0,0,0,0,0l9.3,2.4L244.6,36.5z M314.6,28.4c0.3-0.1,0.7,0,0.8,0.3c0,0,0,0,0,0l0,0
		c0.1,0.3,0,0.7-0.3,0.8c0,0,0,0,0,0l-8.8,3L314.6,28.4z M314,25.5l-10.1,6.2l9.4-7.2c0.3-0.2,0.6-0.2,0.9,0.1c0,0,0,0,0,0l0,0
		C314.3,24.9,314.2,25.3,314,25.5C314,25.5,314,25.5,314,25.5L314,25.5z M308,25.3l-3.3,2.8l2.1-3.3c0.2-0.3,0.6-0.3,0.9-0.1
		c0,0,0,0,0,0c0.2,0,0.4,0.1,0.4,0.2C308.1,25.1,308,25.2,308,25.3L308,25.3z M281.5,75.9l1.2,9.2c0,0.3-0.2,0.6-0.6,0.6
		c-0.3,0.1-0.5-0.1-0.6-0.3c0,0,0-0.1,0-0.1L281.5,75.9z M285.7,81c-0.3,0.1-0.7-0.1-0.7-0.4c0,0,0,0,0,0l-1.7-4.8l2.9,4.5
		C286.2,80.6,286,80.9,285.7,81C285.7,81,285.7,81,285.7,81L285.7,81z M279.1,75.4l-2.4,6c-0.1,0.3-0.4,0.5-0.7,0.5c0,0,0,0,0,0
		c-0.3-0.1-0.5-0.4-0.4-0.7c0,0,0,0,0,0L279.1,75.4z"/>
	<g>
		<path id="居家儀式感_來個_野餐__3_" class="st1" d="M20.9,47c0.1-0.7,0.1-1.4,0.2-2h7.5l-0.1,2H20.9z M35.8,39.8
			l-0.1,1.4H21.3l0.1-1.4H35.8L35.8,39.8z M34.1,58.6h-8.9l0.1-2h8.9L34.1,58.6z M40.8,50.9l0.3-3.9h-8.3l0.1-2h6.9l0.6-8.9H17.3
			l-0.6,8.9c-0.3,4.8-1.1,11.6-4.5,16.1c1.3,0.6,2.6,1.4,3.7,2.3c2.5-3.3,3.8-8.1,4.5-12.4h7.8L28,52.8h-6.5l-0.7,10.4H25l0.1-0.8
			h8.9l-0.1,0.8h4.4l0.7-10.4h-6.5l0.1-1.9H40.8z M52.2,40.8H70L69.7,44h4.5l0.5-7.2H64.3c-0.3-0.9-0.6-1.8-1-2.6l-4.8,1.3
			c0.2,0.4,0.3,0.8,0.5,1.3H48.2L47.7,44H52L52.2,40.8z M57.8,59.2c-0.7,0-1.4,0-2.4-0.1c1.6-0.7,3.2-1.6,4.7-2.5
			c-0.1,0.7-0.3,1.3-0.8,1.9C59,58.9,58.4,59.2,57.8,59.2L57.8,59.2z M68.8,45.5c-1.7,1.6-3.6,3-5.5,4.3c-0.5-1.2-1.3-2.2-2.2-3.2
			c0.6-0.4,1.2-0.8,1.7-1.3h6.3l0.3-3.7H52.7l-0.3,3.7h4.1c-2.9,1.3-6,2.2-9.2,2.7c0.8,1.1,1.4,2.2,2,3.4c2.9-0.7,5.7-1.7,8.3-2.9
			c0.2,0.2,0.3,0.4,0.4,0.5c-2.7,1.7-7.7,3.4-11.4,4.1c0.8,1,1.4,2.2,1.9,3.3c3.8-1.2,7.5-2.8,11-4.7c0.1,0.2,0.1,0.4,0.2,0.6
			c-3.2,2.4-9.1,4.9-13.9,5.9c0.8,1.1,1.5,2.3,2,3.6c2.4-0.8,4.8-1.7,7.2-2.8c0.6,1.2,0.9,2.6,0.8,3.9c0.8,0,1.7,0.1,2.4,0
			c1.5,0.1,2.9-0.5,4-1.6c1.6-1.4,2.5-4.7,2-8.1l0.6-0.4c1.1,4,3.1,7,6.4,8.8c0.9-1.3,1.9-2.5,3.1-3.6c-3.2-1.4-5.1-4.2-5.9-7.4
			c1.2-0.8,2.5-1.7,3.6-2.5L68.8,45.5z M88.8,40.1h7.1l-0.1,0.7h-6.1l-0.2,2.6h6.1l-0.1,0.8h-7.9l-0.2,2.9h20.3l0.2-2.9h-8.2
			l0.1-0.8h6.4l0.2-2.6H100l0.1-0.7h7.4l0.2-2.8h-3.4c0.4-0.5,0.9-1.1,1.4-1.7l-4.2-1.1c-0.4,1-0.9,1.9-1.5,2.8h-3.4
			c-0.4-1-1-1.9-1.7-2.8l-3.5,1.2c0.3,0.5,0.6,1,0.9,1.6h-3.1c0.2-0.5,0.4-0.9,0.6-1.4l-3.8-1.2c-1.6,3.9-4,7.5-7,10.5
			c0.7,1.4,1.3,2.8,1.8,4.3c0.4-0.4,0.8-0.8,1.2-1.3l-1.1,15h4.1l1.5-21.3c0.8-1.3,1.5-2.7,2.2-4L88.8,40.1z M103.5,54.6
			c-0.4,0.5-0.8,1-1.3,1.4c-0.1-0.4-0.1-0.9-0.2-1.4H103.5L103.5,54.6z M101.8,51.7c0-0.8,0-1.5,0-2.3c0.9,0.7,1.7,1.5,2.4,2.3
			H101.8z M103.6,54.6h3.9l0.2-2.9h-2.8l2.3-1.6c-0.9-1-1.9-1.9-3.1-2.7l-2.4,1.6c0-0.4,0-0.8,0.1-1.3h-3.8c-0.1,1.4-0.1,2.6,0,3.9
			h-3.4l0.1-1.4c1-0.1,1.9-0.3,2.9-0.6l-1.9-2.5c-2.8,0.7-5.7,1-8.6,1.2c0.3,0.8,0.5,1.6,0.6,2.5c1,0,2.1-0.1,3.2-0.2l-0.1,0.9h-4
			l-0.2,2.9h4l-0.1,1.1c-1.6,0.1-3,0.2-4.3,0.3l0,3.1l4.1-0.4l-0.1,1c0,0.3-0.1,0.4-0.5,0.4c-0.3,0-1.5,0-2.4,0c0.4,1,0.7,2,0.8,3.1
			c1.8,0,3.2,0,4.3-0.5c1.1-0.5,1.5-1.3,1.6-2.9l0.1-1.4l2.9-0.3l0.1-2.9l-2.9,0.2l0.1-0.7h3.8c0.1,1.2,0.3,2.4,0.7,3.6
			c-1.3,0.8-2.8,1.4-4.2,1.9c0.8,0.9,1.5,1.8,2.1,2.8c1.1-0.5,2.3-1,3.3-1.7c0.7,1.3,2,2.1,3.4,2.1c2.1,0,3.1-0.7,3.9-3.7
			c-1-0.3-1.8-0.9-2.6-1.6c-0.2,1.3-0.4,1.7-0.8,1.7c-0.4,0-0.7-0.3-0.9-0.6c1.3-1,2.5-2.2,3.5-3.5L103.6,54.6z M122.6,50.8h4.4
			l0.3-4.2h-12.9l-0.3,4.2h4.1l-0.4,6.4c-2,0.3-3.9,0.6-5.4,0.8l0.9,4.4c4-0.8,9.3-1.8,14.2-2.8l0-3.9c-1.7,0.3-3.5,0.6-5.2,0.8
			L122.6,50.8z M140.7,43.7l0.3-4.3h-2.6l2.2-1.8c-1-1.2-2.2-2.2-3.5-3.2l-3.1,2.4c1,0.8,1.9,1.6,2.7,2.6h-3.8
			c0.1-1.6,0.2-3.1,0.4-4.7h-4.7c-0.1,1.6-0.2,3.2-0.3,4.7h-14.5l-0.3,4.3h14.7c-0.1,10.4,1.4,19.4,6.8,19.4c3.2,0,4.7-1.3,5.7-7.3
			c-1.4-0.6-2.6-1.5-3.6-2.6c-0.4,3.7-0.9,5.3-1.4,5.3c-1.8,0-2.9-6.7-2.9-14.8H140.7L140.7,43.7z M160.5,54.8
			c0.3,0.9,0.6,2,0.9,3.1c-0.7-0.2-1.4-0.5-2-0.9l1.2-0.6c-0.3-0.9-0.9-2.2-1.5-3.4h3.2l0-0.2c0.3,0.3,0.6,0.7,0.9,1L160.5,54.8z
			 M157.3,59.9c-0.5,0-0.5-0.1-0.5-0.9l0.2-3.2c0.3,0.6,0.5,1.3,0.7,1.9l1.4-0.7c-0.2,2.4-0.4,2.9-0.9,2.9H157.3L157.3,59.9z
			 M156.4,48.6h2.9l-0.1,1.6h-2.9L156.4,48.6z M169.8,42.1c-0.5,1-1.1,1.9-1.7,2.9c0-1.3,0-2.6,0-3.9h5.9l0.2-3.5h-2.1l1.4-1
			c-0.8-0.8-1.7-1.6-2.5-2.4l-2.7,1.7c0.5,0.5,1.1,1.1,1.6,1.7h-1.7c0.1-1,0.1-2,0.2-2.9h-4.1c-0.1,0.9-0.1,1.9-0.1,2.9h-15.5
			l-0.4,5.5c-0.4,5-1.1,12.7-4,17.9c1.2,0.6,2.3,1.4,3.3,2.3c3.2-5.7,4.3-14.8,4.7-20.3l0.1-2h11.7c0,2.7,0,5.5,0.2,8.1
			c-0.6,0.5-1.2,1-1.8,1.4l0.3-4.7h-9.6l-0.5,7.1h3.7l-0.4,0.2l0.3,0.6h-2.4l-0.1,1.2l-2.5-0.8c-0.3,2.3-1,4.6-2,6.7l2.7,1.4
			c0.8-1.7,1.4-3.5,1.7-5.4l-0.2,2.2c-0.2,2.8,0.3,3.7,3,3.7h2c1.8,0,2.7-0.7,3.3-3.3c0.2,0.9,0.4,1.8,0.5,2.5l3.1-1.3
			c-0.4-1.7-1.2-4.4-2-6.5l0.2,0.2c0.4-0.2,0.7-0.5,1-0.7c0.7,5.4,2,9.4,4.4,9.4c2.7,0,4-1.3,4.9-7.1c-1.2-0.6-2.2-1.4-3-2.4
			c-0.3,3.6-0.7,5.4-1,5.4c-0.6,0-1.2-3.6-1.6-8.6c2-2.1,3.7-4.6,5.1-7.2L169.8,42.1z M163.4,42h-10.3l-0.2,2.8h10.3L163.4,42z
			 M208.8,42.4c-0.7,2.5-2,4.8-3.9,6.6l-0.1-0.1l0.5-6.5H208.8L208.8,42.4z M216.2,49.7c-1-1-2.8-2.4-4.4-3.6c0.5-1,0.9-2,1.2-3.1
			l-3.5-0.7h6.9l0.3-4.3h-11l0.2-3.5h-4.6l-0.2,3.5h-10.6l-0.3,4.3h4.6c-1.1,3.5-3.1,6.6-5.8,8.4c1.1,0.8,2.2,1.8,3.2,2.9
			c1.3-1.1,2.5-2.4,3.5-3.8c0.5,0.5,1,1.1,1.5,1.7l3.1-3.1c-0.6-0.6-1.5-1.5-2.5-2.3c0.5-1,0.9-2,1.2-3.1l-3.6-0.7h5.3l-0.5,6.7
			c-3.3,4.2-7.7,7.4-12.7,9.3c1.1,1.1,2,2.4,2.8,3.8c3.5-1.6,6.7-3.8,9.4-6.6l-0.5,7.6h4.6l0.6-7.9c2.3,2.9,5.2,5.2,8.5,6.8
			c1-1.5,2.2-2.8,3.5-4c-4.3-1.6-8-4.3-10.8-7.9c0.8,0.5,1.6,1,2.3,1.6c0.7-0.6,1.3-1.3,1.8-2c1.3,1.1,2.5,2.3,3.2,3L216.2,49.7z
			 M227.8,34.7c-1.5,4.1-3.8,7.8-6.7,11c0.7,1.5,1.3,3.2,1.7,4.8c0.6-0.6,1.1-1.2,1.6-1.8l-1,14.5h4.1l1.5-21.6
			c1-1.8,1.9-3.7,2.7-5.7L227.8,34.7z M240.5,53.6h-1.9l0.2-2.3h1.9L240.5,53.6z M244.8,46.2l0.2-3.1h-3.1l0.2-2.9h-3.3l-0.2,2.9
			h-2.8l-0.2,3.1h2.8l-0.2,2.2h-2.3l-0.6,8.1h8.2l0.6-8.1h-2.6l0.2-2.2H244.8L244.8,46.2z M234.2,57.6l1.3-17.9h10.2l-1.3,17.9
			H234.2L234.2,57.6z M231.8,36l-1.9,27.1h4l0.1-1.7h10.2l-0.1,1.5h4.1l1.9-26.9L231.8,36L231.8,36z M318.6,44.2h1.4l-0.1,1.7h-1.4
			L318.6,44.2z M318.9,39.4h1.4l-0.1,1.6h-1.4L318.9,39.4z M325.3,41h-1.4l0.1-1.6h1.4L325.3,41z M324.9,45.8h-1.4l0.1-1.7h1.4
			L324.9,45.8z M323.2,55.1h4.8l0.3-3.9h-4.8l0.1-1.9h4.7l0.9-13.3h-13.6l-0.9,13.3h4.7l-0.1,1.9h-4.6l-0.3,3.9h4.6l-0.2,2.6
			c-2.1,0.2-4,0.3-5.6,0.4l0.2,4.3c4-0.5,9.5-1.1,14.6-1.7l0.2-3.8c-1.7,0.2-3.4,0.3-5.2,0.5L323.2,55.1z M340,45.8l-0.6,0.1h-0.1
			l1-1c-0.7-0.5-1.5-1-2.2-1.5c1.9-1.7,3.5-3.6,4.9-5.7l-2.6-2l-1,0.2h-9.1l-0.3,3.9h6.3c-0.5,0.6-0.9,1.2-1.5,1.8
			c-0.7-0.4-1.5-0.7-2.2-1l-2.9,2.7c1.6,0.8,3.2,1.6,4.7,2.6h-5.3L329,50h3.5l-0.6,8.5c0,0.4-0.2,0.5-0.6,0.5c-1,0-2,0-3.1-0.1
			c0.5,1.4,0.8,2.8,0.9,4.3c2.2,0,3.8-0.1,5.2-0.7c1.4-0.7,1.8-1.9,1.9-3.8l0.6-8.6h1.2c-0.3,1.4-0.6,2.7-0.9,3.6l3.5,0.7
			c0.9-2.6,1.7-5.3,2.3-8L340,45.8z M356.4,41.1c-0.7,0.7-1.6,1.4-2.4,1.9c-0.5-0.5-1.1-0.9-1.7-1.3c0.2-0.2,0.4-0.4,0.7-0.6H356.4z
			 M359.1,38.7l-0.6,0.1H357l0-0.7h4.7l0.2-2.5h-4.7l0.1-1.1h-3.6l-0.3,4l-1.8-0.3c-1.2,1.5-2.8,2.7-4.5,3.5c0.8,0.6,1.5,1.4,2,2.3
			c0.3-0.2,0.6-0.4,0.9-0.6c0.4,0.3,0.9,0.7,1.3,1.1c-1.2,0.6-2.5,1-3.8,1.4c0.7,0.8,1.4,1.7,1.9,2.6c4.7-1.5,9.4-4.3,11.9-8.6
			L359.1,38.7z M354.3,50.7c1.1-0.4,2.1-1,3.1-1.5l-0.1,1.1h7.5l0.1-1c1,0.5,2,1,3,1.4L354.3,50.7L354.3,50.7z M368.7,57.6
			c-0.4,0.3-0.7,0.6-1,0.8c-0.8-0.3-1.6-0.6-2.4-0.8H368.7z M356.1,59.1l0.1-1.6h4.7l-1.1,1.2l0.3,0.1L356.1,59.1z M356.4,54.9h9.1
			l0,0.6h-9.1L356.4,54.9z M356.6,52.9h9.1l0,0.5h-9.1L356.6,52.9z M358.9,48.3c0.7-0.4,1.4-0.9,2.1-1.4c0.7,0.5,1.4,0.9,2.1,1.4
			H358.9z M369.5,38.4c-0.5,0.6-1,1.1-1.6,1.5c-1.1-0.6-2.2-1.1-3.3-1.5H369.5z M374.8,44.2c-1.1-0.9-2.3-1.8-3.6-2.5
			c1.5-1.5,2.8-3.3,3.6-5.3l-2.3-1l-0.7,0.1h-9l-0.2,2.9h2l-2.5,2.3c0.8,0.4,1.7,0.8,2.6,1.3c-0.6,0.3-1.3,0.5-1.9,0.7
			c0.2,0.2,0.4,0.5,0.6,0.7l-1.9-1c-3.3,3.4-9.3,5.9-14.6,7.3c0.8,0.9,1.5,1.9,2,3.1c1.2-0.4,2.5-0.8,3.7-1.3l-0.5,6.8
			c0,0.8-0.4,1.6-1.1,1.9c0.5,0.9,0.9,1.9,1,2.9c0.8-0.4,2.1-0.6,9.4-1.3c0-0.8,0.1-1.7,0.2-2.5c3.3,1,6.5,2.4,9.5,4.1l2.2-2.5
			c-0.9-0.5-1.8-0.9-2.7-1.3c0.9-0.6,1.9-1.3,2.8-2l-2.8-1.9c-0.3,0.3-0.7,0.7-1.1,1l0.4-5.3c1.1,0.4,2.2,0.7,3.2,1
			c0.7-1.1,1.6-2.1,2.6-3.1c-4.2-0.9-9.2-2.6-12.2-4.5c0.2-0.2,0.4-0.4,0.5-0.5c0.2,0.4,0.4,0.7,0.6,1.1c1.2-0.4,2.4-1,3.5-1.6
			c1.4,0.8,2.7,1.8,3.9,2.8L374.8,44.2z"/>
		<path id="居家儀式感_來個_野餐__1_" d="M171,34.1c0.9,0.8,1.7,1.6,2.5,2.4l-1.4,1h2.1L174,41H168c0,1.3,0,2.6,0,3.9
			c0.6-0.9,1.2-1.9,1.7-2.9l3.7,1.1c-1.4,2.6-3.1,5-5.1,7.2c0.4,5,1,8.6,1.6,8.6c0.3,0,0.7-1.8,1-5.4c0.8,1,1.9,1.8,3,2.4
			c-0.9,5.8-2.2,7.1-4.9,7.1c-2.3,0-3.7-3.9-4.4-9.4c-0.3,0.2-0.7,0.5-1,0.7l-0.2-0.2c0.7,2.1,1.6,4.8,2,6.5l-3.1,1.3
			c-0.1-0.7-0.3-1.5-0.5-2.5c-0.6,2.6-1.5,3.3-3.3,3.3h-2c-2.7,0-3.2-0.9-3-3.7l0.2-2.2c-0.3,1.9-0.9,3.7-1.7,5.4l-2.7-1.4
			c1-2.1,1.7-4.4,2-6.7l2.5,0.8l0.1-1.2h2.4l-0.3-0.6l0.4-0.2h-3.7l0.5-7.1h9.6l-0.3,4.7c0.6-0.4,1.2-0.9,1.8-1.4
			c-0.1-2.6-0.2-5.3-0.2-8.1h-11.7l-0.1,2c-0.4,5.4-1.5,14.5-4.7,20.3c-1-0.9-2.1-1.7-3.3-2.3c2.9-5.3,3.7-13,4-17.9l0.4-5.5h15.5
			c0-1,0.1-2,0.1-2.9h4.1c-0.1,0.9-0.1,1.9-0.2,2.9h1.7c-0.5-0.6-1.1-1.2-1.6-1.7L171,34.1 M156.3,50.1h2.9l0.1-1.6h-2.9L156.3,50.1
			 M161.4,57.9c-0.3-1.1-0.6-2.1-0.9-3.1l2.7-1c-0.2-0.3-0.6-0.7-0.9-1l0,0.2h-3.2c0.6,1.2,1.2,2.5,1.5,3.4l-1.2,0.6
			C160,57.3,160.7,57.6,161.4,57.9 M157.3,59.9h1c0.5,0,0.6-0.4,0.9-2.9l-1.4,0.7c-0.2-0.7-0.4-1.3-0.7-1.9l-0.2,3.2
			C156.8,59.8,156.9,59.9,157.3,59.9L157.3,59.9 M63.2,34.2c0.4,0.8,0.8,1.7,1,2.6h10.5L74.2,44h-4.5l0.2-3.3H52.2L52,44h-4.3
			l0.5-7.2h10.7c-0.1-0.5-0.3-0.9-0.5-1.3L63.2,34.2 M137.1,34.5c1.3,0.9,2.5,2,3.5,3.2l-2.2,1.8h2.6l-0.3,4.3h0h-7.9
			c0,8.1,1.1,14.8,2.9,14.8c0.5,0,1-1.6,1.4-5.3c1,1.1,2.3,2,3.6,2.6c-1.1,6-2.6,7.3-5.7,7.3c-5.3,0-6.8-9.1-6.8-19.4h-14.7l0.3-4.3
			h14.5c0.1-1.6,0.2-3.1,0.3-4.7h4.7c-0.2,1.6-0.3,3.2-0.4,4.7h3.8c-0.8-0.9-1.8-1.8-2.7-2.6L137.1,34.5 M101.5,34.5l4.2,1.1
			c-0.5,0.6-1,1.2-1.4,1.7h3.4l-0.2,2.8h-7.4l-0.1,0.7h6.4l-0.2,2.6h-6.4l-0.1,0.8h8.2l-0.2,2.9H87.5l0.2-2.9h7.9l0.1-0.8h-6.1
			l0.2-2.6h6.1l0.1-0.7h-7.1l0.2-2.2c-0.7,1.4-1.4,2.7-2.2,4l-1.5,21.3h-4.1l1.1-15c-0.4,0.5-0.8,0.9-1.2,1.3
			c-0.5-1.5-1.1-2.9-1.8-4.3c3-3,5.3-6.6,7-10.5l3.8,1.2c-0.2,0.5-0.4,0.9-0.6,1.4h3.1c-0.3-0.5-0.6-1.1-0.9-1.6l3.5-1.2
			c0.7,0.8,1.2,1.8,1.7,2.8h3.4C100.6,36.4,101.1,35.5,101.5,34.5 M205.9,34.6l-0.2,3.5h11l-0.3,4.3h-6.9l3.5,0.7
			c-0.3,1-0.7,2.1-1.2,3.1c1.5,1.2,3.4,2.6,4.4,3.6l-3.2,3c-0.7-0.8-2-1.9-3.2-3c-0.5,0.7-1.1,1.4-1.8,2c-0.7-0.6-1.5-1.1-2.3-1.6
			c2.8,3.6,6.5,6.4,10.8,7.9c-1.3,1.2-2.5,2.5-3.5,4c-3.3-1.6-6.2-4-8.5-6.8l-0.6,7.9h-4.6l0.5-7.6c-2.7,2.8-5.9,5-9.4,6.6
			c-0.8-1.4-1.7-2.6-2.8-3.8c5-1.8,9.4-5.1,12.7-9.3l0.5-6.7h-5.3l3.6,0.7c-0.3,1-0.7,2.1-1.2,3.1c0.9,0.8,1.9,1.7,2.5,2.3l-3.1,3.1
			c-0.5-0.6-1-1.1-1.5-1.7c-1,1.4-2.2,2.7-3.5,3.8c-1-1.1-2-2-3.2-2.9c2.7-1.8,4.7-4.9,5.8-8.4h-4.6l0.3-4.3H201l0.2-3.5H205.9
			 M204.9,49c1.9-1.8,3.2-4.1,3.9-6.6h0h-3.5L204.9,49L204.9,49 M357.3,34.6l-0.1,1.1h4.7l-0.2,2.5h-4.7l0,0.7h1.4l0.6-0.1l2.3,1.3
			c-2.5,4.3-7.2,7-11.9,8.6c-0.5-1-1.1-1.8-1.9-2.6c1.3-0.4,2.6-0.8,3.8-1.4c-0.4-0.4-0.9-0.7-1.3-1.1c-0.3,0.2-0.6,0.4-0.9,0.6
			c-0.5-0.9-1.2-1.6-2-2.3c1.7-0.8,3.3-2,4.5-3.5l1.8,0.3l0.3-4H357.3 M354,43c0.9-0.6,1.7-1.2,2.4-1.9h-3.5
			c-0.2,0.2-0.4,0.4-0.7,0.6C352.9,42.1,353.5,42.5,354,43 M227.8,34.7l3.9,1.2c-0.8,1.9-1.7,3.8-2.7,5.7l-1.5,21.6h-4.1l1-14.5
			c-0.5,0.6-1,1.3-1.6,1.8c-0.4-1.7-1-3.3-1.7-4.8C224,42.5,226.3,38.7,227.8,34.7 M372.4,35.4l2.3,1c-0.8,2-2,3.8-3.6,5.3
			c1.3,0.7,2.5,1.6,3.6,2.5l-2.8,2.7c-1.2-1.1-2.5-2-3.9-2.8c-1.1,0.6-2.3,1.2-3.5,1.6c-0.2-0.4-0.4-0.8-0.6-1.1
			c-0.2,0.2-0.4,0.4-0.5,0.5c3,1.8,8,3.6,12.2,4.5c-1,0.9-1.8,1.9-2.6,3.1c-1-0.3-2.1-0.6-3.2-1l-0.4,5.3c0.4-0.4,0.8-0.7,1.1-1.1
			l2.8,1.9c-0.9,0.7-1.9,1.3-2.8,2c0.9,0.4,1.8,0.8,2.7,1.3l-2.2,2.5c-3-1.7-6.2-3.1-9.5-4.1c-0.1,0.8-0.2,1.7-0.2,2.5
			c-7.3,0.7-8.6,0.9-9.4,1.3c-0.1-1-0.5-2-1-2.9c0.7-0.4,1.2-1.1,1.1-1.9l0.5-6.8c-1.2,0.5-2.5,0.9-3.7,1.3c-0.5-1.1-1.2-2.2-2-3.1
			c5.4-1.4,11.4-3.9,14.6-7.3l1.9,1c-0.2-0.3-0.4-0.5-0.6-0.7c0.7-0.2,1.3-0.4,1.9-0.7c-0.9-0.5-1.8-0.9-2.6-1.3l2.5-2.3h-2l0.2-2.9
			h9L372.4,35.4 M368,39.9c0.6-0.5,1.1-1,1.6-1.5h-4.8C365.7,38.8,366.9,39.4,368,39.9 M358.9,48.3h4.2c-0.7-0.4-1.5-0.9-2.1-1.4
			C360.3,47.4,359.6,47.9,358.9,48.3 M354.3,50.7h13.5c-1-0.4-2-0.9-3-1.4l-0.1,1h-7.5l0.1-1.1C356.4,49.8,355.4,50.3,354.3,50.7
			L354.3,50.7 M356.5,53.4h9.1l0-0.5h-9.1L356.5,53.4 M356.4,55.4h9.1l0-0.6h-9.1L356.4,55.4 M367.6,58.4c0.3-0.3,0.7-0.5,1.1-0.8
			h-3.5C366,57.8,366.8,58.1,367.6,58.4 M356.1,59.1l4-0.3l-0.3-0.1l1.1-1.2h-4.7L356.1,59.1 M340.3,35.7l2.6,2
			c-1.4,2.1-3.1,4-4.9,5.7c0.8,0.5,1.5,1,2.2,1.5l-1,1h0.1l0.6-0.1l2.9,0.6c-0.6,2.7-1.4,5.4-2.3,8l-3.5-0.7c0.3-1,0.6-2.3,0.9-3.6
			h-1.2l-0.6,8.6c-0.1,2-0.6,3.2-1.9,3.8c-1.3,0.7-3,0.7-5.2,0.7c-0.1-1.5-0.4-2.9-0.9-4.3c0.7,0.1,1.4,0.1,2.1,0.1
			c0.3,0,0.6,0,0.9,0c0.4,0,0.6-0.1,0.6-0.5l0.6-8.5H329l0.3-4.1h5.3c-1.5-1-3.1-1.9-4.7-2.6l2.9-2.7c0.7,0.3,1.4,0.6,2.2,1
			c0.5-0.6,1-1.1,1.5-1.8H330l0.3-3.9h9.1L340.3,35.7 M329.3,36l-0.9,13.3h-4.7l-0.1,1.9h4.8l-0.3,3.9h-4.8l-0.2,2.3
			c1.7-0.1,3.5-0.3,5.2-0.5l-0.2,3.8c-5.1,0.7-10.6,1.3-14.6,1.7l-0.2-4.3c1.6-0.1,3.5-0.3,5.6-0.4l0.2-2.6h-4.6l0.3-3.9h4.6
			l0.1-1.9h-4.7l0.9-13.3H329.3 M323.9,41h1.4l0.1-1.6H324L323.9,41 M318.8,41h1.4l0.1-1.6h-1.4L318.8,41 M323.5,45.8h1.4l0.1-1.7
			h-1.4L323.5,45.8 M318.5,45.8h1.4l0.1-1.7h-1.4L318.5,45.8 M231.8,36L231.8,36L231.8,36 M250.1,36l-1.9,26.9h-4.1l0.1-1.5H234
			l-0.1,1.7h-4l1.9-27.1H250.1 M234.2,57.6h10.2l1.3-17.9h-10.2L234.2,57.6L234.2,57.6 M40.5,36l-0.6,8.9H33l-0.1,2h8.3l-0.3,3.9
			h-8.3l-0.1,1.9h6.5l-0.7,10.4h-4.4l0.1-0.8H25L25,63.2h-4.2l0.7-10.4H28l0.1-1.9h-7.8c-0.7,4.4-2,9.1-4.5,12.4
			c-1.1-0.9-2.4-1.7-3.7-2.3c3.5-4.5,4.2-11.3,4.5-16.1l0.6-8.9H40.5 M21.3,41.2h14.4l0.1-1.4h0H21.4L21.3,41.2 M20.9,47h7.5l0.1-2
			h-7.5C21,45.6,21,46.3,20.9,47 M25.3,58.6h8.9l0.1-2h-8.9L25.3,58.6 M242.1,40.2l-0.2,2.9h3.1l-0.2,3.1h-3.1l-0.2,2.2h2.6
			l-0.6,8.1h-8.2l0.6-8.1h2.3l0.2-2.2h-2.8l0.2-3.1h2.8l0.2-2.9H242.1 M238.6,53.6h1.9l0.2-2.3h-1.9L238.6,53.6 M69.3,41.7l-0.3,3.7
			h-6.3c-0.5,0.5-1.1,0.9-1.7,1.3c0.9,0.9,1.6,2,2.2,3.2c1.9-1.3,3.8-2.8,5.5-4.3l3.4,2.9c-1.1,0.8-2.4,1.7-3.6,2.5
			c0.9,3.2,2.8,6,5.9,7.4c-1.2,1-2.2,2.2-3.1,3.6C68,60.1,66.1,57,65,53.1l-0.6,0.4c0.5,3.5-0.4,6.8-2,8.1c-1,1-2.3,1.6-3.7,1.6
			c-0.1,0-0.2,0-0.3,0c-0.2,0-0.4,0-0.6,0c-0.5,0-1.1,0-1.7,0c0-1.4-0.3-2.7-0.8-3.9c-2.3,1.1-4.7,2-7.2,2.8c-0.5-1.3-1.2-2.5-2-3.6
			c4.8-1,10.7-3.5,13.9-5.9c-0.1-0.2-0.1-0.4-0.2-0.6c-3.5,2-7.2,3.5-11,4.7c-0.5-1.2-1.1-2.3-1.9-3.3c3.7-0.7,8.7-2.5,11.4-4.1
			c-0.1-0.2-0.3-0.4-0.4-0.5c-2.7,1.3-5.5,2.2-8.3,2.9c-0.5-1.2-1.2-2.3-2-3.4c3.2-0.5,6.2-1.4,9.2-2.7h-4.1l0.3-3.7H69.3 M60,56.5
			c-1.5,0.9-3.1,1.8-4.7,2.5c0.9,0.1,1.7,0.1,2.4,0.1h0c0.1,0,0.1,0,0.2,0c0.6,0,1.1-0.3,1.3-0.8C59.7,57.8,60,57.2,60,56.5
			 M163.4,42l-0.2,2.8h-10.3l0.2-2.8H163.4 M244.8,46.2L244.8,46.2L244.8,46.2 M127.3,46.6l-0.3,4.2h-4.4l-0.4,5.7
			c1.7-0.3,3.5-0.5,5.2-0.8l0,3.9c-4.9,1-10.2,2-14.2,2.8l-0.9-4.4c1.5-0.2,3.4-0.5,5.4-0.8l0.4-6.4h-4.1l0.3-4.2H127.3 M95.8,47.3
			l1.9,2.5c-0.9,0.2-1.9,0.4-2.9,0.6l-0.1,1.4h3.4c0-1.3,0-2.6,0-3.9h3.8c0,0.4-0.1,0.8-0.1,1.3l2.4-1.6c1.1,0.8,2.2,1.7,3.1,2.7
			l-2.3,1.6h2.8l-0.2,2.9h-3.9l3.1,1.1c-1,1.3-2.2,2.4-3.5,3.5c0.2,0.3,0.5,0.6,0.9,0.6c0.4,0,0.6-0.5,0.8-1.7
			c0.7,0.7,1.6,1.3,2.6,1.6c-0.7,3-1.7,3.7-3.9,3.7c-1.4,0-2.7-0.8-3.4-2.1c-1.1,0.6-2.2,1.2-3.3,1.7c-0.6-1-1.3-1.9-2.1-2.8
			c1.5-0.5,2.9-1.1,4.2-1.9c-0.3-1.2-0.6-2.4-0.7-3.6h-3.8l-0.1,0.7l2.9-0.2L97.1,58l-2.9,0.3l-0.1,1.4c-0.1,1.6-0.5,2.4-1.6,2.9
			c-1.1,0.5-2.5,0.5-4.3,0.5C88.1,62,87.8,61,87.4,60c0.5,0,1.1,0,1.6,0c0.3,0,0.6,0,0.8,0c0.4,0,0.5-0.1,0.5-0.4l0.1-1L86.4,59
			l0-3.1c1.2-0.1,2.7-0.2,4.3-0.3l0.1-1.1h-4l0.2-2.9h4l0.1-0.9c-1.1,0.1-2.2,0.1-3.2,0.2c-0.1-0.9-0.3-1.7-0.6-2.5
			C90.1,48.3,92.9,47.9,95.8,47.3 M101.8,51.7h2.4c-0.7-0.8-1.6-1.6-2.4-2.3C101.8,50.1,101.8,50.9,101.8,51.7 M102.2,55.9
			c0.5-0.4,0.9-0.9,1.3-1.4h0H102C102,55,102.1,55.5,102.2,55.9 M171.2,30.4l-1.9,1.2l0,0h-1h-4.1h-2.8l-0.2,2.8c0,0,0,0.1,0,0.1
			h-12.6h-2.8l-0.2,2.8l-0.4,5.5c-0.2,2.2-0.5,6.7-1.6,11l-1.8-0.8c-1-0.4-1.9-1-2.6-1.8l-3.4-3.6c0-0.3,0-0.6,0-0.9h4.8h2.8
			l0.2-2.8l0.3-4.3l0.1-0.9l0.9-0.7l-0.8-0.9l0-0.7h-0.7l-0.7-0.8c-1.2-1.4-2.6-2.6-4.1-3.6l-1.8-1.3l-1.2,1h-2.4h-4.7h-2.8
			l-0.2,2.8c0,0.6-0.1,1.3-0.1,1.9h-11.7H111l-0.2,2.8l-0.1,2h-0.3l0.1-1l0.2-2.8l0.2-3.2h-0.3l0.3-0.4l-4.5-1.2l-4.2-1.1l-2.5-0.7
			l-1,2.4c-0.1,0.3-0.2,0.6-0.4,0.8c-0.3-0.5-0.7-1-1.1-1.5L96,31l-2,0.7l-3.5,1.2l-0.1,0L87,31.8L84.4,31l-1.1,2.6
			c-1.4,3.4-3.4,6.5-6,9.2l0.4-5.7l0.2-3.2h-3.2h-8.4c-0.1-0.3-0.3-0.6-0.4-0.9l-1.1-2.3l-2.4,0.7l-4.8,1.3l-3.2,0.9l0.1,0.3h-6.4
			h-2.8l-0.2,2.8l-0.5,7.2l-0.1,1.7l-0.4,0.1l0.1-1.6h-1.4l0.5-7.8l0.2-3.2h-3.2H17.3h-2.8l-0.2,2.8l-0.6,8.9
			c-0.4,5.1-1.1,10.8-3.9,14.4l-2.3,3l3.5,1.5c1.1,0.5,2.1,1.1,3,1.9l2.4,2l1.2-1.6l0,0.2h3.2H25h2.8l0.1-0.8h2.9l-0.1,0.8h3.2h4.4
			H41l0.2-2.8l0.4-5.8l2,2.6c0.7,0.9,1.2,1.9,1.6,2.9l1,2.6l2.7-0.8c1.4-0.4,2.7-0.9,4.1-1.5L52.9,66l3,0.1c0.6,0,1.3,0,1.9,0
			c0.2,0,0.4,0,0.6,0c0.1,0,0.2,0,0.3,0c2.2,0,4.3-0.9,5.8-2.4c0.7-0.6,1.2-1.4,1.7-2.2c1.1,1.2,2.4,2.2,4,3l2.4,1.3l1.5-2.3
			c0.7-1.1,1.6-2.1,2.5-2.9l2-1.7l-0.3,4.1l-0.2,3.2h3.2h4.1H88l0-0.1h0.2c1.9,0,3.8,0,5.5-0.8c0.3-0.1,0.6-0.3,0.8-0.4l1.1,1.7
			l2.4-1c0.5-0.2,1-0.5,1.5-0.7c1.1,0.8,2.5,1.3,4,1.4l0,0h0c4.1,0,5.7-2.4,6.5-4.8l0.3,1.5l0.6,2.9l2.9-0.6l2.5-0.5
			c3.7-0.7,7.8-1.5,11.8-2.3l0.4-0.1c0.4,0.6,0.8,1.1,1.3,1.6c1.4,1.4,3.2,2.2,5.2,2.2c3.2,0,5.2-1.2,6.5-3.3l1.4,0.7
			c1,0.5,1.8,1.1,2.6,1.9l2.8,2.6l1.8-3.3l0.3,0.2l2.8,1.4l0.5-1c1,0.3,2,0.4,2.8,0.4h2c0.5,0,1,0,1.5-0.1l0.1,0.5l3.4-1.5L165,64
			c1,1.2,2.3,2,4.1,2c5.8,0,7.1-4.9,7.9-9.6l0.4-2.2l-2-1c-0.8-0.4-1.5-1-2.1-1.6l-1-1.1c1.5-1.8,2.8-3.8,3.9-5.9l0.2-0.4h0.5l0.1-1
			l0.9-1.8L177,41l0.2-3.3l0-0.1l0.9-0.6l-0.8-0.8l0.1-1.7h-1.8l0,0c-0.9-0.9-1.8-1.8-2.8-2.6L171.2,30.4L171.2,30.4z M110.8,46.7
			h0.6l-0.2,3.3l-0.3-0.4l0.1-0.9h-0.3l0.1-1.3L110.8,46.7L110.8,46.7z M75.3,47h1.4c0.5,1.1,1,2.3,1.4,3.4l0.8,2.3l-0.3,4l-2.9-1.2
			c-1.7-0.7-2.8-2.1-3.5-3.4c0.6-0.4,1.2-0.8,1.8-1.3l3-2.3L75.3,47L75.3,47z M43.9,50.7l0.2-2.2l0.9,1.3c0.1,0.2,0.3,0.4,0.4,0.6
			L43.9,50.7L43.9,50.7z M110.8,51.3l0.4-0.3l-0.2,2.7h3.2h0.9l-0.1,0.8c-1,0.2-2.1,0.3-2.9,0.4l-0.9,0.1l0.7-0.9l-1.2-0.4l0.1-1.9
			L110.8,51.3L110.8,51.3z M41.8,53.9h1.6l0.8,1.1c0.1,0.2,0.3,0.4,0.4,0.6l-3,0.6L41.8,53.9L41.8,53.9z M226,31l-1,2.7
			c-1.3,3.5-3.2,6.8-5.7,9.6l0-0.6l0.3-4.3l0.2-3.2h-3.2h-7.8l0-0.3l0.2-3.2h-3.2h-4.6h-2.8l-0.2,2.8l-0.1,0.7h-7.8h-2.8l-0.2,2.8
			l-0.3,4.3l-0.2,3.2h3.2c-0.8,1.2-1.8,2.2-2.8,2.9l-3.5,2.4l3.4,2.5c0.6,0.4,1.2,0.9,1.7,1.4c-0.7,0.4-1.5,0.7-2.3,1l-4.3,1.6
			l3.2,3.3c0.9,1,1.7,2.1,2.4,3.2l1.4,2.4l2.5-1.1c1.6-0.7,3.2-1.6,4.7-2.6l0,0.6l-0.2,3.2h3.2h4.6h2.8l0.2-2.8l0.1-1.5
			c1.5,1.1,3,2.1,4.6,2.9L214,66l1.5-2.2c0.9-1.3,1.9-2.4,3-3.5l2.3-2l-0.3,4.7l-0.2,3.2h3.2h4.1h2.8l0-0.1h3.5h2.8l0.1-1.7h4.2
			l-0.1,1.5h3.2h4.1h2.8l0.2-2.8l1.9-26.9l0.2-3.2h-3.2h-17.6l-3.8-1.2L226,31L226,31z M215.8,45.4h0.6h1.3l0.7,1.5
			c0.2,0.4,0.3,0.7,0.5,1.1l-0.6-0.5C217.7,46.9,216.8,46.2,215.8,45.4L215.8,45.4z M215.6,54.4l2.7-2.6l1.4-1.3
			c0.1,0.2,0.1,0.4,0.2,0.7l1,4.2l-0.1,1.1l-3.4-1.2C216.8,55,216.2,54.7,215.6,54.4L215.6,54.4z M360.5,31.6h-3.2h-3.6h-2.8
			l-0.2,2.8l0,0.6l-0.2,0l-1.1,1.4c-1,1.1-2.2,2.1-3.5,2.7l-0.3,0.1l1.5-2.2l-2.3-1.7l-2.6-2l-1.1-0.8l-1.3,0.3l-0.6,0.1h-8.8h-2.8
			l0,0h-11.8h-2.8l-0.2,2.8L311.7,49l-0.2,3.2h0.1l-0.2,2.6l0,0.4l-1.3,0.1l0.1,2.9l0.2,4.3l0.1,3.2l3.2-0.4
			c1.3-0.2,2.8-0.3,4.4-0.5c2.5-0.3,5.3-0.6,8-0.9l0.2,2.2h2.8c2.4,0,4.5-0.1,6.5-1c3.3-1.6,3.5-4.9,3.6-6.3l0.1-1.7l0.7,0.1
			l2.5,0.5l0.9-2.4c0.4-1.2,0.8-2.4,1.2-3.7c0.6,0.7,1.1,1.4,1.5,2.3l1.1,2.4l2-0.6l-0.1,2l-2.4,1.2l1.7,2.8
			c0.3,0.5,0.5,1.1,0.6,1.8l0.5,3.9l3.6-1.6c0.6-0.3,3.8-0.6,8.5-1.1l2.7-0.3l0-1.1c1.8,0.7,3.6,1.6,5.3,2.5l2.1,1.2l1.6-1.8
			l2.2-2.5l2.5-2.8l-1.6-0.9l2.3-1.7l-3.7-2.4l-0.1,0l0.6-0.9c0.6-0.9,1.3-1.8,2.1-2.5l4.2-3.9l-5.4-1.2l0.3-0.3l2.5-2.3l-2.6-2.2
			c-0.3-0.3-0.7-0.6-1.1-0.8c0.8-1.1,1.4-2.3,1.9-3.5l1.1-2.8l-2.7-1.1l-2.3-1l-0.8-0.3l-0.9,0.2l-0.4,0.1h-8.7h-2.3L360.5,31.6
			L360.5,31.6z M342.7,42.9c0.1-0.2,0.3-0.3,0.4-0.5l1.5,1.2l-0.1,0l-1-0.2l-0.2,0L342.7,42.9L342.7,42.9z"/>
	</g>
	<g>
		<path id="居家儀式感_來個_野餐_2_3_" class="st0" d="M20.9,47c0.1-0.7,0.1-1.4,0.2-2h7.5l-0.1,2H20.9z M35.8,39.8
			l-0.1,1.4H21.3l0.1-1.4H35.8L35.8,39.8z M34.1,58.6h-8.9l0.1-2h8.9L34.1,58.6z M40.8,50.9l0.3-3.9h-8.3l0.1-2h6.9l0.6-8.9H17.3
			l-0.6,8.9c-0.3,4.8-1.1,11.6-4.5,16.1c1.3,0.6,2.6,1.4,3.7,2.3c2.5-3.3,3.8-8.1,4.5-12.4h7.8L28,52.8h-6.5l-0.7,10.4H25l0.1-0.8
			h8.9l-0.1,0.8h4.4l0.7-10.4h-6.5l0.1-1.9H40.8z M52.2,40.8H70L69.7,44h4.5l0.5-7.2H64.3c-0.3-0.9-0.6-1.8-1-2.6l-4.8,1.3
			c0.2,0.4,0.3,0.8,0.5,1.3H48.2L47.7,44H52L52.2,40.8z M57.8,59.2c-0.7,0-1.4,0-2.4-0.1c1.6-0.7,3.2-1.6,4.7-2.5
			c-0.1,0.7-0.3,1.3-0.8,1.9C59,58.9,58.4,59.2,57.8,59.2L57.8,59.2z M68.8,45.5c-1.7,1.6-3.6,3-5.5,4.3c-0.5-1.2-1.3-2.2-2.2-3.2
			c0.6-0.4,1.2-0.8,1.7-1.3h6.3l0.3-3.7H52.7l-0.3,3.7h4.1c-2.9,1.3-6,2.2-9.2,2.7c0.8,1.1,1.4,2.2,2,3.4c2.9-0.7,5.7-1.7,8.3-2.9
			c0.2,0.2,0.3,0.4,0.4,0.5c-2.7,1.7-7.7,3.4-11.4,4.1c0.8,1,1.4,2.2,1.9,3.3c3.8-1.2,7.5-2.8,11-4.7c0.1,0.2,0.1,0.4,0.2,0.6
			c-3.2,2.4-9.1,4.9-13.9,5.9c0.8,1.1,1.5,2.3,2,3.6c2.4-0.8,4.8-1.7,7.2-2.8c0.6,1.2,0.9,2.6,0.8,3.9c0.8,0,1.7,0.1,2.4,0
			c1.5,0.1,2.9-0.5,4-1.6c1.6-1.4,2.5-4.7,2-8.1l0.6-0.4c1.1,4,3.1,7,6.4,8.8c0.9-1.3,1.9-2.5,3.1-3.6c-3.2-1.4-5.1-4.2-5.9-7.4
			c1.2-0.8,2.5-1.7,3.6-2.5L68.8,45.5z M88.8,40.1h7.1l-0.1,0.7h-6.1l-0.2,2.6h6.1l-0.1,0.8h-7.9l-0.2,2.9h20.3l0.2-2.9h-8.2
			l0.1-0.8h6.4l0.2-2.6H100l0.1-0.7h7.4l0.2-2.8h-3.4c0.4-0.5,0.9-1.1,1.4-1.7l-4.2-1.1c-0.4,1-0.9,1.9-1.5,2.8h-3.4
			c-0.4-1-1-1.9-1.7-2.8l-3.5,1.2c0.3,0.5,0.6,1,0.9,1.6h-3.1c0.2-0.5,0.4-0.9,0.6-1.4l-3.8-1.2c-1.6,3.9-4,7.5-7,10.5
			c0.7,1.4,1.3,2.8,1.8,4.3c0.4-0.4,0.8-0.8,1.2-1.3l-1.1,15h4.1l1.5-21.3c0.8-1.3,1.5-2.7,2.2-4L88.8,40.1z M103.5,54.6
			c-0.4,0.5-0.8,1-1.3,1.4c-0.1-0.4-0.1-0.9-0.2-1.4H103.5L103.5,54.6z M101.8,51.7c0-0.8,0-1.5,0-2.3c0.9,0.7,1.7,1.5,2.4,2.3
			H101.8z M103.6,54.6h3.9l0.2-2.9h-2.8l2.3-1.6c-0.9-1-1.9-1.9-3.1-2.7l-2.4,1.6c0-0.4,0-0.8,0.1-1.3h-3.8c-0.1,1.4-0.1,2.6,0,3.9
			h-3.4l0.1-1.4c1-0.1,1.9-0.3,2.9-0.6l-1.9-2.5c-2.8,0.7-5.7,1-8.6,1.2c0.3,0.8,0.5,1.6,0.6,2.5c1,0,2.1-0.1,3.2-0.2l-0.1,0.9h-4
			l-0.2,2.9h4l-0.1,1.1c-1.6,0.1-3,0.2-4.3,0.3l0,3.1l4.1-0.4l-0.1,1c0,0.3-0.1,0.4-0.5,0.4c-0.3,0-1.5,0-2.4,0c0.4,1,0.7,2,0.8,3.1
			c1.8,0,3.2,0,4.3-0.5c1.1-0.5,1.5-1.3,1.6-2.9l0.1-1.4l2.9-0.3l0.1-2.9l-2.9,0.2l0.1-0.7h3.8c0.1,1.2,0.3,2.4,0.7,3.6
			c-1.3,0.8-2.8,1.4-4.2,1.9c0.8,0.9,1.5,1.8,2.1,2.8c1.1-0.5,2.3-1,3.3-1.7c0.7,1.3,2,2.1,3.4,2.1c2.1,0,3.1-0.7,3.9-3.7
			c-1-0.3-1.8-0.9-2.6-1.6c-0.2,1.3-0.4,1.7-0.8,1.7c-0.4,0-0.7-0.3-0.9-0.6c1.3-1,2.5-2.2,3.5-3.5L103.6,54.6z M122.6,50.8h4.4
			l0.3-4.2h-12.9l-0.3,4.2h4.1l-0.4,6.4c-2,0.3-3.9,0.6-5.4,0.8l0.9,4.4c4-0.8,9.3-1.8,14.2-2.8l0-3.9c-1.7,0.3-3.5,0.6-5.2,0.8
			L122.6,50.8z M140.7,43.7l0.3-4.3h-2.6l2.2-1.8c-1-1.2-2.2-2.2-3.5-3.2l-3.1,2.4c1,0.8,1.9,1.6,2.7,2.6h-3.8
			c0.1-1.6,0.2-3.1,0.4-4.7h-4.7c-0.1,1.6-0.2,3.2-0.3,4.7h-14.5l-0.3,4.3h14.7c-0.1,10.4,1.4,19.4,6.8,19.4c3.2,0,4.7-1.3,5.7-7.3
			c-1.4-0.6-2.6-1.5-3.6-2.6c-0.4,3.7-0.9,5.3-1.4,5.3c-1.8,0-2.9-6.7-2.9-14.8H140.7L140.7,43.7z M160.5,54.8
			c0.3,0.9,0.6,2,0.9,3.1c-0.7-0.2-1.4-0.5-2-0.9l1.2-0.6c-0.3-0.9-0.9-2.2-1.5-3.4h3.2l0-0.2c0.3,0.3,0.6,0.7,0.9,1L160.5,54.8z
			 M157.3,59.9c-0.5,0-0.5-0.1-0.5-0.9l0.2-3.2c0.3,0.6,0.5,1.3,0.7,1.9l1.4-0.7c-0.2,2.4-0.4,2.9-0.9,2.9H157.3L157.3,59.9z
			 M156.4,48.6h2.9l-0.1,1.6h-2.9L156.4,48.6z M169.8,42.1c-0.5,1-1.1,1.9-1.7,2.9c0-1.3,0-2.6,0-3.9h5.9l0.2-3.5h-2.1l1.4-1
			c-0.8-0.8-1.7-1.6-2.5-2.4l-2.7,1.7c0.5,0.5,1.1,1.1,1.6,1.7h-1.7c0.1-1,0.1-2,0.2-2.9h-4.1c-0.1,0.9-0.1,1.9-0.1,2.9h-15.5
			l-0.4,5.5c-0.4,5-1.1,12.7-4,17.9c1.2,0.6,2.3,1.4,3.3,2.3c3.2-5.7,4.3-14.8,4.7-20.3l0.1-2h11.7c0,2.7,0,5.5,0.2,8.1
			c-0.6,0.5-1.2,1-1.8,1.4l0.3-4.7h-9.6l-0.5,7.1h3.7l-0.4,0.2l0.3,0.6h-2.4l-0.1,1.2l-2.5-0.8c-0.3,2.3-1,4.6-2,6.7l2.7,1.4
			c0.8-1.7,1.4-3.5,1.7-5.4l-0.2,2.2c-0.2,2.8,0.3,3.7,3,3.7h2c1.8,0,2.7-0.7,3.3-3.3c0.2,0.9,0.4,1.8,0.5,2.5l3.1-1.3
			c-0.4-1.7-1.2-4.4-2-6.5l0.2,0.2c0.4-0.2,0.7-0.5,1-0.7c0.7,5.4,2,9.4,4.4,9.4c2.7,0,4-1.3,4.9-7.1c-1.2-0.6-2.2-1.4-3-2.4
			c-0.3,3.6-0.7,5.4-1,5.4c-0.6,0-1.2-3.6-1.6-8.6c2-2.1,3.7-4.6,5.1-7.2L169.8,42.1z M163.4,42h-10.3l-0.2,2.8h10.3L163.4,42z
			 M208.8,42.4c-0.7,2.5-2,4.8-3.9,6.6l-0.1-0.1l0.5-6.5H208.8L208.8,42.4z M216.2,49.7c-1-1-2.8-2.4-4.4-3.6c0.5-1,0.9-2,1.2-3.1
			l-3.5-0.7h6.9l0.3-4.3h-11l0.2-3.5h-4.6l-0.2,3.5h-10.6l-0.3,4.3h4.6c-1.1,3.5-3.1,6.6-5.8,8.4c1.1,0.8,2.2,1.8,3.2,2.9
			c1.3-1.1,2.5-2.4,3.5-3.8c0.5,0.5,1,1.1,1.5,1.7l3.1-3.1c-0.6-0.6-1.5-1.5-2.5-2.3c0.5-1,0.9-2,1.2-3.1l-3.6-0.7h5.3l-0.5,6.7
			c-3.3,4.2-7.7,7.4-12.7,9.3c1.1,1.1,2,2.4,2.8,3.8c3.5-1.6,6.7-3.8,9.4-6.6l-0.5,7.6h4.6l0.6-7.9c2.3,2.9,5.2,5.2,8.5,6.8
			c1-1.5,2.2-2.8,3.5-4c-4.3-1.6-8-4.3-10.8-7.9c0.8,0.5,1.6,1,2.3,1.6c0.7-0.6,1.3-1.3,1.8-2c1.3,1.1,2.5,2.3,3.2,3L216.2,49.7z
			 M227.8,34.7c-1.5,4.1-3.8,7.8-6.7,11c0.7,1.5,1.3,3.2,1.7,4.8c0.6-0.6,1.1-1.2,1.6-1.8l-1,14.5h4.1l1.5-21.6
			c1-1.8,1.9-3.7,2.7-5.7L227.8,34.7z M240.5,53.6h-1.9l0.2-2.3h1.9L240.5,53.6z M244.8,46.2l0.2-3.1h-3.1l0.2-2.9h-3.3l-0.2,2.9
			h-2.8l-0.2,3.1h2.8l-0.2,2.2h-2.3l-0.6,8.1h8.2l0.6-8.1h-2.6l0.2-2.2H244.8L244.8,46.2z M234.2,57.6l1.3-17.9h10.2l-1.3,17.9
			H234.2L234.2,57.6z M231.8,36l-1.9,27.1h4l0.1-1.7h10.2l-0.1,1.5h4.1l1.9-26.9L231.8,36L231.8,36z M318.6,44.2h1.4l-0.1,1.7h-1.4
			L318.6,44.2z M318.9,39.4h1.4l-0.1,1.6h-1.4L318.9,39.4z M325.3,41h-1.4l0.1-1.6h1.4L325.3,41z M324.9,45.8h-1.4l0.1-1.7h1.4
			L324.9,45.8z M323.2,55.1h4.8l0.3-3.9h-4.8l0.1-1.9h4.7l0.9-13.3h-13.6l-0.9,13.3h4.7l-0.1,1.9h-4.6l-0.3,3.9h4.6l-0.2,2.6
			c-2.1,0.2-4,0.3-5.6,0.4l0.2,4.3c4-0.5,9.5-1.1,14.6-1.7l0.2-3.8c-1.7,0.2-3.4,0.3-5.2,0.5L323.2,55.1z M340,45.8l-0.6,0.1h-0.1
			l1-1c-0.7-0.5-1.5-1-2.2-1.5c1.9-1.7,3.5-3.6,4.9-5.7l-2.6-2l-1,0.2h-9.1l-0.3,3.9h6.3c-0.5,0.6-0.9,1.2-1.5,1.8
			c-0.7-0.4-1.5-0.7-2.2-1l-2.9,2.7c1.6,0.8,3.2,1.6,4.7,2.6h-5.3L329,50h3.5l-0.6,8.5c0,0.4-0.2,0.5-0.6,0.5c-1,0-2,0-3.1-0.1
			c0.5,1.4,0.8,2.8,0.9,4.3c2.2,0,3.8-0.1,5.2-0.7c1.4-0.7,1.8-1.9,1.9-3.8l0.6-8.6h1.2c-0.3,1.4-0.6,2.7-0.9,3.6l3.5,0.7
			c0.9-2.6,1.7-5.3,2.3-8L340,45.8z M356.4,41.1c-0.7,0.7-1.6,1.4-2.4,1.9c-0.5-0.5-1.1-0.9-1.7-1.3c0.2-0.2,0.4-0.4,0.7-0.6H356.4z
			 M359.1,38.7l-0.6,0.1H357l0-0.7h4.7l0.2-2.5h-4.7l0.1-1.1h-3.6l-0.3,4l-1.8-0.3c-1.2,1.5-2.8,2.7-4.5,3.5c0.8,0.6,1.5,1.4,2,2.3
			c0.3-0.2,0.6-0.4,0.9-0.6c0.4,0.3,0.9,0.7,1.3,1.1c-1.2,0.6-2.5,1-3.8,1.4c0.7,0.8,1.4,1.7,1.9,2.6c4.7-1.5,9.4-4.3,11.9-8.6
			L359.1,38.7z M354.3,50.7c1.1-0.4,2.1-1,3.1-1.5l-0.1,1.1h7.5l0.1-1c1,0.5,2,1,3,1.4L354.3,50.7L354.3,50.7z M368.7,57.6
			c-0.4,0.3-0.7,0.6-1,0.8c-0.8-0.3-1.6-0.6-2.4-0.8H368.7z M356.1,59.1l0.1-1.6h4.7l-1.1,1.2l0.3,0.1L356.1,59.1z M356.4,54.9h9.1
			l0,0.6h-9.1L356.4,54.9z M356.6,52.9h9.1l0,0.5h-9.1L356.6,52.9z M358.9,48.3c0.7-0.4,1.4-0.9,2.1-1.4c0.7,0.5,1.4,0.9,2.1,1.4
			H358.9z M369.5,38.4c-0.5,0.6-1,1.1-1.6,1.5c-1.1-0.6-2.2-1.1-3.3-1.5H369.5z M374.8,44.2c-1.1-0.9-2.3-1.8-3.6-2.5
			c1.5-1.5,2.8-3.3,3.6-5.3l-2.3-1l-0.7,0.1h-9l-0.2,2.9h2l-2.5,2.3c0.8,0.4,1.7,0.8,2.6,1.3c-0.6,0.3-1.3,0.5-1.9,0.7
			c0.2,0.2,0.4,0.5,0.6,0.7l-1.9-1c-3.3,3.4-9.3,5.9-14.6,7.3c0.8,0.9,1.5,1.9,2,3.1c1.2-0.4,2.5-0.8,3.7-1.3l-0.5,6.8
			c0,0.8-0.4,1.6-1.1,1.9c0.5,0.9,0.9,1.9,1,2.9c0.8-0.4,2.1-0.6,9.4-1.3c0-0.8,0.1-1.7,0.2-2.5c3.3,1,6.5,2.4,9.5,4.1l2.2-2.5
			c-0.9-0.5-1.8-0.9-2.7-1.3c0.9-0.6,1.9-1.3,2.8-2l-2.8-1.9c-0.3,0.3-0.7,0.7-1.1,1l0.4-5.3c1.1,0.4,2.2,0.7,3.2,1
			c0.7-1.1,1.6-2.1,2.6-3.1c-4.2-0.9-9.2-2.6-12.2-4.5c0.2-0.2,0.4-0.4,0.5-0.5c0.2,0.4,0.4,0.7,0.6,1.1c1.2-0.4,2.4-1,3.5-1.6
			c1.4,0.8,2.7,1.8,3.9,2.8L374.8,44.2z"/>
		<path id="居家儀式感_來個_野餐_2_1_" class="st2" d="M171,34.1c0.9,0.8,1.7,1.6,2.5,2.4l-1.4,1h2.1L174,41H168
			c0,1.3,0,2.6,0,3.9c0.6-0.9,1.2-1.9,1.7-2.9l3.7,1.1c-1.4,2.6-3.1,5-5.1,7.2c0.4,5,1,8.6,1.6,8.6c0.3,0,0.7-1.8,1-5.4
			c0.8,1,1.9,1.8,3,2.4c-0.9,5.8-2.2,7.1-4.9,7.1c-2.3,0-3.7-3.9-4.4-9.4c-0.3,0.2-0.7,0.5-1,0.7l-0.2-0.2c0.7,2.1,1.6,4.8,2,6.5
			l-3.1,1.3c-0.1-0.7-0.3-1.5-0.5-2.5c-0.6,2.6-1.5,3.3-3.3,3.3h-2c-2.7,0-3.2-0.9-3-3.7l0.2-2.2c-0.3,1.9-0.9,3.7-1.7,5.4l-2.7-1.4
			c1-2.1,1.7-4.4,2-6.7l2.5,0.8l0.1-1.2h2.4l-0.3-0.6l0.4-0.2h-3.7l0.5-7.1h9.6l-0.3,4.7c0.6-0.4,1.2-0.9,1.8-1.4
			c-0.1-2.6-0.2-5.3-0.2-8.1h-11.7l-0.1,2c-0.4,5.4-1.5,14.5-4.7,20.3c-1-0.9-2.1-1.7-3.3-2.3c2.9-5.3,3.7-13,4-17.9l0.4-5.5h15.5
			c0-1,0.1-2,0.1-2.9h4.1c-0.1,0.9-0.1,1.9-0.2,2.9h1.7c-0.5-0.6-1.1-1.2-1.6-1.7L171,34.1 M156.3,50.1h2.9l0.1-1.6h-2.9L156.3,50.1
			 M161.4,57.9c-0.3-1.1-0.6-2.1-0.9-3.1l2.7-1c-0.2-0.3-0.6-0.7-0.9-1l0,0.2h-3.2c0.6,1.2,1.2,2.5,1.5,3.4l-1.2,0.6
			C160,57.3,160.7,57.6,161.4,57.9 M157.3,59.9h1c0.5,0,0.6-0.4,0.9-2.9l-1.4,0.7c-0.2-0.7-0.4-1.3-0.7-1.9l-0.2,3.2
			C156.8,59.8,156.9,59.9,157.3,59.9L157.3,59.9 M63.2,34.2c0.4,0.8,0.8,1.7,1,2.6h10.5L74.2,44h-4.5l0.2-3.3H52.2L52,44h-4.3
			l0.5-7.2h10.7c-0.1-0.5-0.3-0.9-0.5-1.3L63.2,34.2 M137.1,34.5c1.3,0.9,2.5,2,3.5,3.2l-2.2,1.8h2.6l-0.3,4.3h0h-7.9
			c0,8.1,1.1,14.8,2.9,14.8c0.5,0,1-1.6,1.4-5.3c1,1.1,2.3,2,3.6,2.6c-1.1,6-2.6,7.3-5.7,7.3c-5.3,0-6.8-9.1-6.8-19.4h-14.7l0.3-4.3
			h14.5c0.1-1.6,0.2-3.1,0.3-4.7h4.7c-0.2,1.6-0.3,3.2-0.4,4.7h3.8c-0.8-0.9-1.8-1.8-2.7-2.6L137.1,34.5 M101.5,34.5l4.2,1.1
			c-0.5,0.6-1,1.2-1.4,1.7h3.4l-0.2,2.8h-7.4l-0.1,0.7h6.4l-0.2,2.6h-6.4l-0.1,0.8h8.2l-0.2,2.9H87.5l0.2-2.9h7.9l0.1-0.8h-6.1
			l0.2-2.6h6.1l0.1-0.7h-7.1l0.2-2.2c-0.7,1.4-1.4,2.7-2.2,4l-1.5,21.3h-4.1l1.1-15c-0.4,0.5-0.8,0.9-1.2,1.3
			c-0.5-1.5-1.1-2.9-1.8-4.3c3-3,5.3-6.6,7-10.5l3.8,1.2c-0.2,0.5-0.4,0.9-0.6,1.4h3.1c-0.3-0.5-0.6-1.1-0.9-1.6l3.5-1.2
			c0.7,0.8,1.2,1.8,1.7,2.8h3.4C100.6,36.4,101.1,35.5,101.5,34.5 M205.9,34.6l-0.2,3.5h11l-0.3,4.3h-6.9l3.5,0.7
			c-0.3,1-0.7,2.1-1.2,3.1c1.5,1.2,3.4,2.6,4.4,3.6l-3.2,3c-0.7-0.8-2-1.9-3.2-3c-0.5,0.7-1.1,1.4-1.8,2c-0.7-0.6-1.5-1.1-2.3-1.6
			c2.8,3.6,6.5,6.4,10.8,7.9c-1.3,1.2-2.5,2.5-3.5,4c-3.3-1.6-6.2-4-8.5-6.8l-0.6,7.9h-4.6l0.5-7.6c-2.7,2.8-5.9,5-9.4,6.6
			c-0.8-1.4-1.7-2.6-2.8-3.8c5-1.8,9.4-5.1,12.7-9.3l0.5-6.7h-5.3l3.6,0.7c-0.3,1-0.7,2.1-1.2,3.1c0.9,0.8,1.9,1.7,2.5,2.3l-3.1,3.1
			c-0.5-0.6-1-1.1-1.5-1.7c-1,1.4-2.2,2.7-3.5,3.8c-1-1.1-2-2-3.2-2.9c2.7-1.8,4.7-4.9,5.8-8.4h-4.6l0.3-4.3H201l0.2-3.5H205.9
			 M204.9,49c1.9-1.8,3.2-4.1,3.9-6.6h0h-3.5L204.9,49L204.9,49 M357.3,34.6l-0.1,1.1h4.7l-0.2,2.5h-4.7l0,0.7h1.4l0.6-0.1l2.3,1.3
			c-2.5,4.3-7.2,7-11.9,8.6c-0.5-1-1.1-1.8-1.9-2.6c1.3-0.4,2.6-0.8,3.8-1.4c-0.4-0.4-0.9-0.7-1.3-1.1c-0.3,0.2-0.6,0.4-0.9,0.6
			c-0.5-0.9-1.2-1.6-2-2.3c1.7-0.8,3.3-2,4.5-3.5l1.8,0.3l0.3-4H357.3 M354,43c0.9-0.6,1.7-1.2,2.4-1.9h-3.5
			c-0.2,0.2-0.4,0.4-0.7,0.6C352.9,42.1,353.5,42.5,354,43 M227.8,34.7l3.9,1.2c-0.8,1.9-1.7,3.8-2.7,5.7l-1.5,21.6h-4.1l1-14.5
			c-0.5,0.6-1,1.3-1.6,1.8c-0.4-1.7-1-3.3-1.7-4.8C224,42.5,226.3,38.7,227.8,34.7 M372.4,35.4l2.3,1c-0.8,2-2,3.8-3.6,5.3
			c1.3,0.7,2.5,1.6,3.6,2.5l-2.8,2.7c-1.2-1.1-2.5-2-3.9-2.8c-1.1,0.6-2.3,1.2-3.5,1.6c-0.2-0.4-0.4-0.8-0.6-1.1
			c-0.2,0.2-0.4,0.4-0.5,0.5c3,1.8,8,3.6,12.2,4.5c-1,0.9-1.8,1.9-2.6,3.1c-1-0.3-2.1-0.6-3.2-1l-0.4,5.3c0.4-0.4,0.8-0.7,1.1-1.1
			l2.8,1.9c-0.9,0.7-1.9,1.3-2.8,2c0.9,0.4,1.8,0.8,2.7,1.3l-2.2,2.5c-3-1.7-6.2-3.1-9.5-4.1c-0.1,0.8-0.2,1.7-0.2,2.5
			c-7.3,0.7-8.6,0.9-9.4,1.3c-0.1-1-0.5-2-1-2.9c0.7-0.4,1.2-1.1,1.1-1.9l0.5-6.8c-1.2,0.5-2.5,0.9-3.7,1.3c-0.5-1.1-1.2-2.2-2-3.1
			c5.4-1.4,11.4-3.9,14.6-7.3l1.9,1c-0.2-0.3-0.4-0.5-0.6-0.7c0.7-0.2,1.3-0.4,1.9-0.7c-0.9-0.5-1.8-0.9-2.6-1.3l2.5-2.3h-2l0.2-2.9
			h9L372.4,35.4 M368,39.9c0.6-0.5,1.1-1,1.6-1.5h-4.8C365.7,38.8,366.9,39.4,368,39.9 M358.9,48.3h4.2c-0.7-0.4-1.5-0.9-2.1-1.4
			C360.3,47.4,359.6,47.9,358.9,48.3 M354.3,50.7h13.5c-1-0.4-2-0.9-3-1.4l-0.1,1h-7.5l0.1-1.1C356.4,49.8,355.4,50.3,354.3,50.7
			L354.3,50.7 M356.5,53.4h9.1l0-0.5h-9.1L356.5,53.4 M356.4,55.4h9.1l0-0.6h-9.1L356.4,55.4 M367.6,58.4c0.3-0.3,0.7-0.5,1.1-0.8
			h-3.5C366,57.8,366.8,58.1,367.6,58.4 M356.1,59.1l4-0.3l-0.3-0.1l1.1-1.2h-4.7L356.1,59.1 M340.3,35.7l2.6,2
			c-1.4,2.1-3.1,4-4.9,5.7c0.8,0.5,1.5,1,2.2,1.5l-1,1h0.1l0.6-0.1l2.9,0.6c-0.6,2.7-1.4,5.4-2.3,8l-3.5-0.7c0.3-1,0.6-2.3,0.9-3.6
			h-1.2l-0.6,8.6c-0.1,2-0.6,3.2-1.9,3.8c-1.3,0.7-3,0.7-5.2,0.7c-0.1-1.5-0.4-2.9-0.9-4.3c0.7,0.1,1.4,0.1,2.1,0.1
			c0.3,0,0.6,0,0.9,0c0.4,0,0.6-0.1,0.6-0.5l0.6-8.5H329l0.3-4.1h5.3c-1.5-1-3.1-1.9-4.7-2.6l2.9-2.7c0.7,0.3,1.4,0.6,2.2,1
			c0.5-0.6,1-1.1,1.5-1.8H330l0.3-3.9h9.1L340.3,35.7 M329.3,36l-0.9,13.3h-4.7l-0.1,1.9h4.8l-0.3,3.9h-4.8l-0.2,2.3
			c1.7-0.1,3.5-0.3,5.2-0.5l-0.2,3.8c-5.1,0.7-10.6,1.3-14.6,1.7l-0.2-4.3c1.6-0.1,3.5-0.3,5.6-0.4l0.2-2.6h-4.6l0.3-3.9h4.6
			l0.1-1.9h-4.7l0.9-13.3H329.3 M323.9,41h1.4l0.1-1.6H324L323.9,41 M318.8,41h1.4l0.1-1.6h-1.4L318.8,41 M323.5,45.8h1.4l0.1-1.7
			h-1.4L323.5,45.8 M318.5,45.8h1.4l0.1-1.7h-1.4L318.5,45.8 M231.8,36L231.8,36L231.8,36 M250.1,36l-1.9,26.9h-4.1l0.1-1.5H234
			l-0.1,1.7h-4l1.9-27.1H250.1 M234.2,57.6h10.2l1.3-17.9h-10.2L234.2,57.6L234.2,57.6 M40.5,36l-0.6,8.9H33l-0.1,2h8.3l-0.3,3.9
			h-8.3l-0.1,1.9h6.5l-0.7,10.4h-4.4l0.1-0.8H25L25,63.2h-4.2l0.7-10.4H28l0.1-1.9h-7.8c-0.7,4.4-2,9.1-4.5,12.4
			c-1.1-0.9-2.4-1.7-3.7-2.3c3.5-4.5,4.2-11.3,4.5-16.1l0.6-8.9H40.5 M21.3,41.2h14.4l0.1-1.4h0H21.4L21.3,41.2 M20.9,47h7.5l0.1-2
			h-7.5C21,45.6,21,46.3,20.9,47 M25.3,58.6h8.9l0.1-2h-8.9L25.3,58.6 M242.1,40.2l-0.2,2.9h3.1l-0.2,3.1h-3.1l-0.2,2.2h2.6
			l-0.6,8.1h-8.2l0.6-8.1h2.3l0.2-2.2h-2.8l0.2-3.1h2.8l0.2-2.9H242.1 M238.6,53.6h1.9l0.2-2.3h-1.9L238.6,53.6 M69.3,41.7l-0.3,3.7
			h-6.3c-0.5,0.5-1.1,0.9-1.7,1.3c0.9,0.9,1.6,2,2.2,3.2c1.9-1.3,3.8-2.8,5.5-4.3l3.4,2.9c-1.1,0.8-2.4,1.7-3.6,2.5
			c0.9,3.2,2.8,6,5.9,7.4c-1.2,1-2.2,2.2-3.1,3.6C68,60.1,66.1,57,65,53.1l-0.6,0.4c0.5,3.5-0.4,6.8-2,8.1c-1,1-2.3,1.6-3.7,1.6
			c-0.1,0-0.2,0-0.3,0c-0.2,0-0.4,0-0.6,0c-0.5,0-1.1,0-1.7,0c0-1.4-0.3-2.7-0.8-3.9c-2.3,1.1-4.7,2-7.2,2.8c-0.5-1.3-1.2-2.5-2-3.6
			c4.8-1,10.7-3.5,13.9-5.9c-0.1-0.2-0.1-0.4-0.2-0.6c-3.5,2-7.2,3.5-11,4.7c-0.5-1.2-1.1-2.3-1.9-3.3c3.7-0.7,8.7-2.5,11.4-4.1
			c-0.1-0.2-0.3-0.4-0.4-0.5c-2.7,1.3-5.5,2.2-8.3,2.9c-0.5-1.2-1.2-2.3-2-3.4c3.2-0.5,6.2-1.4,9.2-2.7h-4.1l0.3-3.7H69.3 M60,56.5
			c-1.5,0.9-3.1,1.8-4.7,2.5c0.9,0.1,1.7,0.1,2.4,0.1h0c0.1,0,0.1,0,0.2,0c0.6,0,1.1-0.3,1.3-0.8C59.7,57.8,60,57.2,60,56.5
			 M163.4,42l-0.2,2.8h-10.3l0.2-2.8H163.4 M244.8,46.2L244.8,46.2L244.8,46.2 M127.3,46.6l-0.3,4.2h-4.4l-0.4,5.7
			c1.7-0.3,3.5-0.5,5.2-0.8l0,3.9c-4.9,1-10.2,2-14.2,2.8l-0.9-4.4c1.5-0.2,3.4-0.5,5.4-0.8l0.4-6.4h-4.1l0.3-4.2H127.3 M95.8,47.3
			l1.9,2.5c-0.9,0.2-1.9,0.4-2.9,0.6l-0.1,1.4h3.4c0-1.3,0-2.6,0-3.9h3.8c0,0.4-0.1,0.8-0.1,1.3l2.4-1.6c1.1,0.8,2.2,1.7,3.1,2.7
			l-2.3,1.6h2.8l-0.2,2.9h-3.9l3.1,1.1c-1,1.3-2.2,2.4-3.5,3.5c0.2,0.3,0.5,0.6,0.9,0.6c0.4,0,0.6-0.5,0.8-1.7
			c0.7,0.7,1.6,1.3,2.6,1.6c-0.7,3-1.7,3.7-3.9,3.7c-1.4,0-2.7-0.8-3.4-2.1c-1.1,0.6-2.2,1.2-3.3,1.7c-0.6-1-1.3-1.9-2.1-2.8
			c1.5-0.5,2.9-1.1,4.2-1.9c-0.3-1.2-0.6-2.4-0.7-3.6h-3.8l-0.1,0.7l2.9-0.2L97.1,58l-2.9,0.3l-0.1,1.4c-0.1,1.6-0.5,2.4-1.6,2.9
			c-1.1,0.5-2.5,0.5-4.3,0.5C88.1,62,87.8,61,87.4,60c0.5,0,1.1,0,1.6,0c0.3,0,0.6,0,0.8,0c0.4,0,0.5-0.1,0.5-0.4l0.1-1L86.4,59
			l0-3.1c1.2-0.1,2.7-0.2,4.3-0.3l0.1-1.1h-4l0.2-2.9h4l0.1-0.9c-1.1,0.1-2.2,0.1-3.2,0.2c-0.1-0.9-0.3-1.7-0.6-2.5
			C90.1,48.3,92.9,47.9,95.8,47.3 M101.8,51.7h2.4c-0.7-0.8-1.6-1.6-2.4-2.3C101.8,50.1,101.8,50.9,101.8,51.7 M102.2,55.9
			c0.5-0.4,0.9-0.9,1.3-1.4h0H102C102,55,102.1,55.5,102.2,55.9 M171.1,31.9l-1.1,0.7l-0.3,0.2h-1.4h-4.1h-1.6l-0.1,1.6
			c0,0.4-0.1,0.8-0.1,1.3h-13.8H147l-0.1,1.6l-0.4,5.5c-0.4,5.5-1.2,12.5-3.8,17.2l-0.9,1.6l1.6,0.8c1.1,0.5,2,1.2,2.9,2L148,66
			l1.1-1.9c0.2-0.3,0.4-0.7,0.6-1.1l1.5,0.8l1.6,0.8l0.5-1c1,0.7,2.3,0.9,3.3,0.9h2c1,0,1.8-0.2,2.4-0.5l0.1,0.4l2-0.9l2.4-1
			c0.9,1.3,2,2.2,3.6,2.2c4.4,0,5.8-3.1,6.6-8.5l0.2-1.3l-1.2-0.6c-1-0.5-1.8-1.1-2.5-1.9l-1.7-1.9c1.7-2,3.2-4.2,4.4-6.5l0.6-1.1
			h0.1l0-0.1L176,42l-0.3-0.1l0.1-0.8l0.2-3.5l0-0.7l0.1-0.1l-0.1-0.1l0.1-0.9h-1l-0.4-0.4c-0.8-0.9-1.7-1.7-2.7-2.5L171.1,31.9
			L171.1,31.9z M64.2,32.1l-1.4,0.4L58,33.9l-1.9,0.5l0.3,0.7h-8.2h-1.6l-0.1,1.6L46,43.9l-0.1,1.9h1.9H50c-1,0.2-2,0.4-2.9,0.6
			l-2.8,0.5l1.6,2.3c0.5,0.7,0.9,1.4,1.3,2.2c-0.3,0.1-0.6,0.1-0.9,0.2L43.6,52l1.6,2.2c0.5,0.7,0.9,1.4,1.3,2.2
			c-0.3,0.1-0.7,0.2-1,0.2l-2.7,0.6l1.7,2.2c0.7,1,1.3,2,1.8,3.2l0.6,1.5l1.6-0.5c1.9-0.6,3.8-1.3,5.6-2.1c0.1,0.5,0.1,1,0.1,1.5
			l0,1.7l1.7,0.1c0.6,0,1.2,0,1.8,0c0.2,0,0.4,0,0.6,0c0.1,0,0.2,0,0.3,0c1.8,0,3.6-0.8,4.9-2.1c1-0.9,1.8-2.2,2.2-3.8
			c1.3,1.9,2.9,3.4,4.9,4.4l1.4,0.7l0.9-1.3c0.8-1.2,1.7-2.3,2.8-3.2l2.1-1.8l-2.6-1.1c-2.5-1.1-3.9-3.2-4.6-5.1
			c0.9-0.6,1.8-1.2,2.6-1.8l1.8-1.3L73.3,47l-1.5-1.2h2.3h1.6l0.1-1.6l0.5-7.2l0.1-1.9h-1.9h-9.2c-0.2-0.6-0.4-1.1-0.7-1.6
			L64.2,32.1L64.2,32.1z M63.7,47.1H64c-0.1,0-0.1,0.1-0.2,0.1C63.8,47.2,63.8,47.2,63.7,47.1L63.7,47.1z M137,32.3l-1,0.8l-0.8,0.6
			l0.1-0.8h-1.9h-4.7h-1.6l-0.1,1.6c-0.1,1-0.1,2-0.2,3.1h-12.9h-1.6l-0.1,1.6l-0.3,4.3l-0.1,1.9h1.2l-0.1,1l-0.3,4.2l-0.1,1.9h1.9
			h2.2l-0.2,3.1c-1.4,0.2-2.8,0.4-4,0.5l-1.9,0.2l0.4,1.8l0.9,4.4l0.3,1.7l1.7-0.3l2.5-0.5c3.6-0.7,7.8-1.5,11.7-2.3l1.3-0.3
			c0.5,0.8,1,1.5,1.5,2.1c1.2,1.2,2.7,1.8,4.3,1.8c5,0,6.5-3.2,7.5-8.8l0.2-1.4l-1.3-0.5c-1.2-0.5-2.2-1.2-3-2.1l-2.6-2.8l-0.4,3.8
			c0,0.2,0,0.4-0.1,0.6c-0.3-1.9-0.6-4.6-0.7-8.2h6.1h1.6l0.1-1.6l0.3-4.3l0.1-1.5l0.3-0.2l-1.2-1.4c-1.1-1.3-2.4-2.4-3.8-3.4
			L137,32.3L137,32.3z M124.2,52.5h2.6c0.1,0.5,0.1,1,0.2,1.4c-1,0.2-2,0.3-3,0.5L124.2,52.5L124.2,52.5z M100.5,32.4l-0.6,1.4
			c-0.3,0.6-0.5,1.2-0.9,1.7h-1.3c-0.4-0.7-0.9-1.4-1.4-2.1l-0.8-1l-1.2,0.4l-3.5,1.2l-0.5,0.2L86.6,33l-1.5-0.5L84.5,34
			c-1.5,3.7-3.8,7.1-6.6,10L77,44.9l0.6,1.1c0.7,1.3,1.3,2.7,1.7,4.1l0.8,2.5L79.4,63l-0.1,1.9h1.9h4.1h1.6l0-0.1h1.4
			c2.1,0,3.6,0,5-0.7c0.7-0.3,1.2-0.7,1.6-1.2c0.2,0.2,0.3,0.5,0.5,0.8l0.8,1.3l1.4-0.6c0.7-0.3,1.5-0.7,2.2-1c1,1,2.4,1.6,3.8,1.6
			c3.2,0,4.7-1.4,5.6-5l0.4-1.5l-1.5-0.5c-0.2-0.1-0.4-0.2-0.7-0.3c0.3-0.3,0.5-0.6,0.8-0.9l0.4-0.4h0.7l0.1-0.9l0.5-0.6l-0.5-0.2
			l0.2-2.8l0.1-1.2l0.3-0.2l-0.3-0.3l0-0.1h-0.1l-0.9-1h0.8l0.1-1.6l0.2-2.9l0.1-1.9h-1.7l0-0.7h0.9l0.1-1.6l0.2-2.8l0.1-1.9H108
			l0.8-0.9l-2.6-0.7l-4.2-1.1L100.5,32.4L100.5,32.4z M226.8,32.5l-0.6,1.6c-1.4,3.9-3.6,7.4-6.3,10.5l-0.8,0.9l0.5,1
			c0.7,1.4,1.2,3,1.6,4.5l0.8,3.1l0.5-0.5l-0.7,9.5l-0.1,1.9h1.9h4.1h1.6l0-0.1h0.7h4h1.6l0.1-1.6l0-0.1h6.7l-0.1,1.5h1.9h4.1h1.6
			L250,63l1.9-26.9l0.1-1.9h-1.9h-17.8l0,0l-3.9-1.2L226.8,32.5L226.8,32.5z M207.8,32.9h-1.9h-4.6h-1.6l-0.1,1.6l-0.1,1.9h-9h-1.6
			l-0.1,1.6l-0.3,4.3l-0.1,1.9h1.9h2.1c-1,2.2-2.5,4.1-4.2,5.2l-2.1,1.4l2,1.5c1.1,0.8,2,1.7,2.9,2.6l0.1,0.1
			c-1.2,0.7-2.6,1.3-3.9,1.8l-2.5,0.9l1.8,1.9c1,1,1.9,2.2,2.6,3.5l0.8,1.4l1.4-0.7c2.4-1.1,4.6-2.4,6.6-4l-0.2,3.3l-0.1,1.9h1.9
			h4.6h1.6l0.1-1.6l0.3-3.9c1.9,1.7,4,3.2,6.3,4.3l1.4,0.7l0.9-1.3c0.9-1.4,2-2.6,3.2-3.7l2.2-1.9l-2.8-1c-1.3-0.5-2.5-1-3.6-1.7
			l0.8-0.7l3.2-3l1.4-1.3l-1.4-1.3c-0.8-0.8-2.2-1.8-3.4-2.8c0.2-0.5,0.4-0.9,0.5-1.4h1.8h1.6l0.1-1.6l0.3-4.3l0.1-1.9h-1.9h-9.2
			l0.1-1.6L207.8,32.9L207.8,32.9z M210,52.2C210,52.2,210,52.2,210,52.2c0.2,0.1,0.3,0.2,0.4,0.4C210.3,52.4,210.1,52.3,210,52.2
			L210,52.2z M359.2,32.9h-1.9h-3.6H352l-0.1,1.6l-0.1,2l-0.8-0.2l-0.7,0.8c-1.1,1.3-2.4,2.3-3.9,3.1l-2.6,1.2l2.2,1.7
			c0.4,0.3,0.8,0.7,1.1,1.1c0,0,0,0,0,0l-2.5,0.7l-1.3-0.3l-0.5-0.1l-1.4-1.1c-0.2-0.1-0.3-0.2-0.5-0.4c1.3-1.4,2.5-2.9,3.6-4.5
			l0.9-1.4l-1.3-1l-2.6-2l-0.6-0.5L340,34l-0.8,0.2h-8.9h-1.6l0,0h-13H314l-0.1,1.6L313,49.1l-0.1,1.9h0.1l0,0.1l-0.3,3.9l-0.1,1.5
			l-1.2,0.1l0.1,1.7l0.2,4.3l0.1,1.9l1.9-0.2c1.3-0.2,2.8-0.3,4.4-0.5c2.9-0.3,6.1-0.7,9.3-1.1c0,0.2,0.1,0.5,0.1,0.7l0.1,1.6h1.6
			c2.3,0,4.2-0.1,5.9-0.9c2.3-1.1,2.8-3.3,2.9-5.3l0.2-3.1l2,0.4l1.5,0.3l0.5-1.4c0.7-1.9,1.3-3.8,1.8-5.7l1.5,1.7
			c0.7,0.8,1.3,1.7,1.7,2.6l0.6,1.4l1.5-0.5c0.4-0.1,0.8-0.3,1.2-0.4l-0.3,4.1l0,0.1l0,0.1c0,0.1-0.1,0.2-0.2,0.3l-1.7,0.8l1,1.6
			c0.4,0.7,0.7,1.4,0.8,2.2l0.3,2.3l2.1-0.9c0.6-0.3,2.1-0.5,8.9-1.2l1.6-0.1l0-1.6c0-0.1,0-0.1,0-0.2c2.5,0.9,4.9,2,7.1,3.3
			l1.2,0.7l0.9-1l2.2-2.5l1.5-1.6l-1.9-1.1c0,0-0.1,0-0.1-0.1c0.1-0.1,0.2-0.2,0.4-0.3l2.1-1.5l-2.1-1.4l-2.8-1.9l-0.1-0.1l0-0.3
			c0.4,0.1,0.8,0.2,1.2,0.3l1.2,0.4l0.7-1.1c0.7-1,1.4-1.9,2.3-2.7l2.4-2.3l-3.3-0.7c-0.7-0.1-1.4-0.3-2.1-0.5l2-1.9l1.4-1.4
			l-1.5-1.3c-0.7-0.5-1.3-1-2-1.5c1-1.3,1.9-2.7,2.5-4.3l0.6-1.6l-1.6-0.7l-2.3-1l-0.5-0.2l-0.5,0.1l-0.5,0.1h-8.8h-1.6l0,0.1h-2
			L359.2,32.9L359.2,32.9z M344.2,48.6c0.2-0.6,0.3-1.2,0.4-1.8l0.3-1.1l1.4,1.5c0.2,0.2,0.4,0.5,0.6,0.7c-0.2,0-0.4,0.1-0.5,0.1
			L344.2,48.6L344.2,48.6z M330,51.8h0.6l-0.4,5.4c-0.1,0-0.2,0-0.2,0l0-0.3l0.1-2l-0.3,0L330,51.8L330,51.8z M42.3,34.3h-1.9H17.3
			h-1.6l-0.1,1.6l-0.6,8.9c-0.4,5.3-1.2,11.2-4.2,15.1l-1.4,1.8l2.1,0.9c1.2,0.5,2.3,1.2,3.3,2l1.4,1.2l1.1-1.5
			c0.7-0.9,1.3-2,1.9-3.1L19,63l-0.1,1.9h1.9H25h1.6l0.1-0.8H32L32,64.9h1.9h4.4h1.6l0.1-1.6l0.7-10.4l0-0.3h0.2h1.6l0.1-1.6
			l0.3-3.9l0.1-1.9h-1.4l0-0.2l0.6-8.9L42.3,34.3L42.3,34.3z"/>
	</g>
	<path id="偽" class="st3" d="M279.1,55.4c0.7,2.4,1.2,4.9,1.4,7.4l3.8-0.9c-0.3-2.5-0.8-4.9-1.6-7.3L279.1,55.4z M283.4,54.9
		c0.9,1.8,1.7,3.8,2.2,5.8l3.3-1.3c-0.6-1.9-1.4-3.8-2.4-5.6L283.4,54.9z M272.8,33c1,1.2,1.8,2.6,2.4,4l4.3-2.1
		c-0.7-1.4-1.6-2.7-2.6-3.8L272.8,33z M289.2,46.2c-0.1,0.7-0.1,1.4-0.2,2.1l-9.2,0.9c0.4-0.7,0.8-1.4,1.1-2.2L289.2,46.2z
		 M269.9,40.8c0.4-1,0.8-2,1.2-3.1l0.4,3.8l6.9-0.7c-1.5,4.4-4,8.4-7.3,11.6L269.9,40.8z M286.9,40.1c-0.1,0.8-0.1,1.6-0.2,2.3
		l-4,0.4c0.3-0.7,0.5-1.5,0.8-2.3L286.9,40.1z M293.8,47.8c0.1-1.9,0.3-4.1,0.3-6.1l-2.7,0.3c0.2-1.9,0.4-4.4,0.4-6.5l-7.3,0.7
		c0.4-1.6,0.7-3.3,0.9-5l-4.8-0.5c-0.3,2-0.6,4-1.1,5.9l-8.5,0.8c0.5-1.4,0.9-2.8,1.3-4.2l-5-1.1c-1.2,5-3.6,10.1-6.3,13.5
		c1.2,1.6,2.3,3.4,3.2,5.2c0.5-0.6,0.9-1.2,1.3-1.8l1.6,17.2l4.9-0.5l-1-10.8c0.7,0.9,1.3,1.8,1.9,2.8c0.6-0.6,1.2-1.1,1.8-1.7
		c-0.2,2.4-0.9,4.7-2.2,6.7l3.9,2.2c1.5-2.4,2.1-5.7,2.4-8.8l-3.5-0.8c0.5-0.5,0.9-1.1,1.4-1.6l15.1-1.4c0,1.3,0,2.5,0,3.4
		c-0.5-1-1.1-2-1.8-2.9l-2.7,1.2c1,1.4,1.7,2.8,2.2,4.4l2.2-1c0,0.7-0.2,1.3-0.5,1.9c-0.3,0.4-0.7,0.6-1.1,0.6
		c-0.6,0.1-1.6,0.1-2.8,0.1c0.8,1.3,1.4,2.7,1.7,4.2c1.3-0.1,2.7-0.2,4-0.5c1.1-0.2,2-0.8,2.6-1.7c0.9-1.4,1.2-4.7,1-12.5l-0.1-1.8
		L293.8,47.8z"/>
</g>
<g>
	<path id="矩形_11_拷貝_3_" class="st1" d="M276,96.3L33,88.5l9.7,51.4l228.6-4.5L276,96.3z"/>
	<path id="矩形_11_拷貝_1_" d="M35.4,90.6l238.4,7.7l-4.3,35.2l-225.2,4.5L35.4,90.6 M33,88.5l9.7,51.4l228.6-4.5l4.8-39.1
		L33,88.5L33,88.5z"/>
</g>
<g>
	<path id="矩形_11_3_" class="st3" d="M277.3,90L33.6,86l10.3,50.6l228.6-4.8L277.3,90z"/>
	<path id="矩形_11_1_" d="M35.7,87.7l239.6,4l-4.4,38.3l-225.6,4.8L35.7,87.7 M33.6,86l10.3,50.6l228.6-4.8l4.8-41.7L33.6,86
		L33.6,86z"/>
</g>
<path id="偷偷說...獨家啦_地獄料理都變好吃ㄌ_" class="st1" d="M59,97.4c-0.8,1.7-1.8,3.3-3.1,4.7
	c0.2,0.5,0.3,1,0.4,1.6c0.3-0.3,0.5-0.5,0.8-0.8l-1,5.9h1.4l1.5-8.5c0.5-0.8,1-1.7,1.4-2.5L59,97.4z M60.1,105.5
	c0.1-0.2,0.1-0.5,0.1-0.7h1.2l-0.1,0.7H60.1z M61.8,103.1l-0.1,0.6h-1.2l0.1-0.6H61.8L61.8,103.1z M63.2,102h-3.7l-0.5,2.6
	c-0.1,1.3-0.6,2.5-1.3,3.5c0.3,0.2,0.7,0.4,0.9,0.7c0.5-0.7,0.9-1.5,1.1-2.4h1.3l-0.2,0.9c0,0.1-0.1,0.2-0.1,0.2c0,0,0,0,0,0
	c-0.1,0-0.4,0-0.7,0c0.1,0.4,0.2,0.8,0.1,1.2c0.5,0,0.9,0,1.3-0.2c0.4-0.2,0.6-0.6,0.6-1.1L63.2,102z M64.6,107.4
	c0,0.1-0.1,0.2-0.2,0.2c0,0,0,0,0,0c-0.2,0-0.7,0-1.2,0c0.1,0.4,0.2,0.8,0.1,1.2c0.6,0,1.2,0,1.8-0.2c0.4-0.2,0.7-0.7,0.7-1.2l1-5.5
	h-1.2L64.6,107.4z M64.9,102.4h-1.1l-0.8,4.5h1.1L64.9,102.4z M61.7,100.4c0.7-0.4,1.4-0.9,2-1.4c0.5,0.5,1,1,1.7,1.4H61.7z
	 M63.9,97.3c-1.3,1.3-2.9,2.2-4.7,2.8c0.3,0.3,0.5,0.7,0.7,1.1c0.3-0.1,0.7-0.3,1-0.4l-0.1,0.7h4.8l0.2-1c0.3,0.2,0.7,0.4,1,0.5
	c0.3-0.4,0.6-0.8,1-1.1c-1.2-0.3-2.2-1-3.1-1.8c0.1-0.1,0.2-0.2,0.3-0.3L63.9,97.3z M71.5,97.4c-0.8,1.7-1.8,3.3-3.1,4.7
	c0.2,0.5,0.3,1,0.4,1.6c0.3-0.3,0.5-0.5,0.8-0.8l-1,5.9h1.4l1.5-8.5c0.5-0.8,1-1.7,1.4-2.5L71.5,97.4z M72.7,105.5
	c0.1-0.2,0.1-0.5,0.1-0.7h1.2l-0.1,0.7H72.7L72.7,105.5z M74.4,103.1l-0.1,0.6H73l0.1-0.6H74.4z M75.7,102h-3.7l-0.5,2.6
	c-0.1,1.3-0.6,2.5-1.3,3.5c0.3,0.2,0.7,0.4,0.9,0.7c0.5-0.7,0.9-1.5,1.1-2.4h1.3l-0.2,0.9c0,0.1-0.1,0.2-0.1,0.2c0,0,0,0,0,0
	c-0.1,0-0.4,0-0.7,0c0.1,0.4,0.2,0.8,0.1,1.2c0.5,0,0.9,0,1.3-0.2c0.4-0.2,0.6-0.6,0.6-1.1L75.7,102z M77.2,107.4
	c0,0.1-0.1,0.2-0.2,0.2c0,0,0,0,0,0c-0.2,0-0.7,0-1.2,0c0.1,0.4,0.2,0.8,0.1,1.2c0.6,0,1.2,0,1.8-0.2c0.4-0.2,0.7-0.7,0.7-1.2l1-5.5
	h-1.2L77.2,107.4z M77.4,102.4h-1.1l-0.8,4.5h1.1L77.4,102.4z M74.3,100.4c0.7-0.4,1.4-0.9,2-1.4c0.5,0.5,1,1,1.7,1.4H74.3
	L74.3,100.4z M76.5,97.3c-1.3,1.3-2.9,2.2-4.7,2.8c0.3,0.3,0.5,0.7,0.7,1.1c0.3-0.1,0.7-0.3,1-0.4l-0.1,0.7h4.8l0.2-1
	c0.3,0.2,0.7,0.4,1,0.5c0.3-0.4,0.6-0.8,1-1.1c-1.2-0.3-2.2-1-3.1-1.8c0.1-0.1,0.2-0.2,0.3-0.3L76.5,97.3z M87.7,102h2.2l-0.2,1.4
	h-2.2L87.7,102z M83.1,107h-1.2l0.2-1.4h1.2L83.1,107z M89.7,107.4c-0.2,0-0.2,0-0.1-0.4l0.4-2.4h0.8l0.6-3.5
	c0.1,0.1,0.1,0.3,0.2,0.4l1.2-0.8c-0.5-1.2-1.2-2.2-2-3.2l-1.1,0.7c0.6,0.8,1.1,1.7,1.6,2.5H87c0.8-0.8,1.5-1.7,2.2-2.7l-1.3-0.4
	c-0.6,1-1.3,1.8-2.2,2.5l0.1-0.7h-2.2l1-0.3c-0.1-0.5-0.2-1.1-0.4-1.6L83,97.9c0.1,0.5,0.3,1,0.3,1.5h-1.8l-0.2,1.2h3.8l-0.1,0
	c0.3,0.3,0.6,0.7,0.8,1c0.2-0.1,0.3-0.3,0.5-0.4l-0.6,3.3h0.8c-0.4,1.4-0.8,2.5-2.5,3.2l0.6-3.3h-3.6l-0.7,4.2h1.2l0.1-0.5h2.4
	l0-0.3c0.2,0.3,0.4,0.7,0.5,1c2.1-0.9,2.8-2.4,3.4-4.3h0.6l-0.4,2.4c-0.2,1.3-0.1,1.7,1,1.7h0.8c0.9,0,1.3-0.5,1.7-2.1
	c-0.4-0.1-0.8-0.3-1.2-0.6c-0.2,1.2-0.3,1.3-0.5,1.3H89.7L89.7,107.4z M81.2,103.9h3.5l0.2-1.1h-3.5L81.2,103.9z M85.2,101.1h-3.5
	l-0.2,1.1H85L85.2,101.1z M94.2,108c0.7,0,1.2-0.5,1.3-1.2c0.1-0.5-0.1-1-0.6-1.1c-0.1,0-0.2,0-0.3,0c-0.7,0-1.2,0.5-1.3,1.2
	c-0.1,0.5,0.1,1,0.6,1.1C94,107.9,94.1,108,94.2,108L94.2,108z M98.4,108c0.7,0,1.2-0.5,1.3-1.2c0.1-0.5-0.1-1-0.6-1.1
	c-0.1,0-0.2,0-0.3,0c-0.7,0-1.2,0.5-1.3,1.2c-0.1,0.5,0.1,1,0.6,1.1C98.2,107.9,98.3,108,98.4,108L98.4,108z M102.7,108
	c0.7,0,1.2-0.5,1.3-1.2c0.1-0.5-0.1-1-0.6-1.1c-0.1,0-0.2,0-0.3,0c-0.7,0-1.2,0.5-1.3,1.2c-0.1,0.5,0.1,1,0.6,1.1
	C102.5,107.9,102.6,108,102.7,108L102.7,108z M64.1,123.4l0.6-3.1h-2.4l0.1-0.7h-1.4l-0.1,0.7H59c0.4-0.3,0.7-0.6,1-0.9h5.7
	c-0.8,4-1.2,5.5-1.5,5.8c-0.1,0.1-0.2,0.2-0.3,0.2c-0.1-0.7-0.2-1.3-0.4-2H64.1z M61.6,124.3l0.2-0.9h1.5l-0.9,0.3
	c0,0.2,0.1,0.3,0.2,0.5L61.6,124.3z M62.1,121.5h1l-0.2,0.9h-1L62.1,121.5z M59.6,122.4l0.2-0.9h1l-0.2,0.9H59.6L59.6,122.4z
	 M60.9,114.7h1l-0.2,1.2h-1L60.9,114.7z M63.1,114.7h1l-0.2,1.2h-1L63.1,114.7z M65.3,114.7h1l-0.2,1.2h-1L65.3,114.7z M61.2,118
	c0.2-0.2,0.4-0.5,0.5-0.8h5.8l0.7-3.8h-8.6l-0.7,3.8h1c-0.6,0.8-1.3,1.5-2.1,2.2c0.1-1.1,0.1-2.3-0.2-3.4c0.7-0.7,1.3-1.4,1.8-2.2
	l-1.4-0.8c-0.3,0.5-0.6,0.9-1,1.4c-0.3-0.5-0.7-1-1.1-1.4l-1.4,1c0.5,0.6,0.9,1.2,1.2,1.9c-0.6,0.6-1.3,1.1-2,1.6
	c0.4,0.3,0.7,0.7,1,1.2c0.5-0.3,0.9-0.7,1.4-1.1c0,0.5,0.1,1,0,1.5c-0.9,1.2-2,2.2-3.3,3.1c0.4,0.4,0.7,0.9,0.9,1.4
	c0.7-0.6,1.4-1.2,2-1.9c-0.3,1.7-0.7,3.2-1.1,3.6c-0.1,0.1-0.3,0.2-0.5,0.3c-0.5,0-0.9,0-1.4,0c0.2,0.6,0.3,1.2,0.1,1.7
	c0.6,0,1.2,0,1.8-0.1c0.4-0.1,0.8-0.3,1-0.6c0.9-0.9,1.4-3.1,1.7-5.2c0.1-0.4,0.1-0.8,0.2-1.2c0.3,0.2,0.6,0.5,0.8,0.8l-0.5,2.8h2.3
	l-0.2,1c-1.1,0.1-2.1,0.2-2.9,0.2l-0.1,1.5c1.5-0.2,3.5-0.4,5.5-0.6c0,0.2,0,0.4,0,0.6L63,126c0,0.3,0,0.6,0,1c0.5,0,1,0,1.5-0.1
	c0.4-0.1,0.8-0.3,1.1-0.7c0.5-0.6,0.9-2.4,2-7.6c0-0.2,0.1-0.7,0.1-0.7L61.2,118L61.2,118z M72.1,115.6h9.5l-0.3,1.8h1.9l0.6-3.4
	h-5.4c-0.1-0.5-0.2-0.9-0.4-1.4l-2,0.5c0.1,0.3,0.2,0.5,0.2,0.8h-5.5l-0.6,3.4h1.8L72.1,115.6z M80.6,118.2c-1,0.9-2.1,1.6-3.3,2.3
	c-0.2-0.7-0.5-1.3-1-1.8c0.4-0.2,0.7-0.4,1-0.7h3.4l0.3-1.5h-8.5l-0.3,1.5h2.6c-1.6,0.8-3.4,1.3-5.2,1.7c0.3,0.4,0.5,0.9,0.7,1.4
	c1.6-0.4,3.1-0.9,4.5-1.6c0.1,0.2,0.2,0.3,0.3,0.5c-1.9,1-4,1.8-6.1,2.2c0.3,0.4,0.5,0.9,0.6,1.4c2.1-0.6,4-1.4,5.9-2.5
	c0.1,0.2,0.1,0.4,0.1,0.6c-2.2,1.5-4.7,2.5-7.4,3.1c0.3,0.5,0.5,1,0.7,1.5c2.3-0.7,4.6-1.7,6.7-2.9c-0.1,0.6-0.3,1.1-0.7,1.5
	c-0.2,0.3-0.5,0.4-0.9,0.4c-0.5,0-0.9,0-1.4-0.1c0.2,0.6,0.3,1.1,0.2,1.7c0.4,0,0.9,0,1.2,0c0.7,0,1.4-0.2,1.9-0.7
	c0.9-0.6,1.6-2.4,1.5-4.2c0.2-0.1,0.4-0.2,0.5-0.3c0.4,2.1,1.3,3.7,3,4.6c0.4-0.5,0.9-1,1.5-1.5c-1.6-0.7-2.7-2.3-2.9-4
	c0.8-0.5,1.5-1,2.2-1.4L80.6,118.2z M99.4,115.4h-3.2l1.5-0.4c0-0.8-0.1-1.6-0.3-2.3l-1.6,0.4c0.1,0.8,0.2,1.6,0.2,2.3h-2.2
	l-0.3,1.6h5.6L99.4,115.4z M94.6,124.1c0.3-2.2,0.5-4.4,0.5-6.7l-1.4,0.3c0,2.3-0.3,4.5-0.6,6.8L94.6,124.1z M88.1,115.8l-1,5.6
	h-0.9l1-5.6H88.1L88.1,115.8z M89.8,114.1h-3.7l-1.8,10.3h1.4l0.2-1.4h2.3L89.8,114.1z M92.8,119.2l-1,0.3l0.4-2.2h1l0.3-1.6h-1
	l0.5-3h-1.6l-0.5,3h-1l-0.3,1.6h1l-0.5,2.7c-0.5,0.2-1,0.3-1.4,0.4l0.2,1.7l0.9-0.3l-0.6,3.4c0,0.1-0.1,0.2-0.2,0.2c0,0,0,0,0,0
	c-0.2,0-0.6,0-1.1,0c0.1,0.5,0.2,1,0.2,1.6c0.7,0.1,1.3,0,1.9-0.3c0.5-0.3,0.8-0.9,0.8-1.5l0.7-4c0.4-0.2,0.9-0.3,1.3-0.5
	L92.8,119.2z M96.3,124.9c0.8-2.1,1.8-4.9,2.5-7.3l-1.6-0.3c-0.6,2.6-1.4,5.1-2.3,7.6h-3.2l-0.3,1.6h6.3l0.3-1.6L96.3,124.9
	L96.3,124.9z M101.4,121.9h1.5l1.3-5.6l0.4-2.1h-2.3l-0.3,2.1L101.4,121.9z M101.5,125.9c0.8,0,1.5-0.6,1.7-1.5
	c0.2-0.6-0.2-1.2-0.8-1.4c-0.1,0-0.2,0-0.3,0c-0.8,0-1.5,0.6-1.6,1.5c-0.2,0.6,0.2,1.2,0.8,1.4C101.2,125.9,101.3,125.9,101.5,125.9
	L101.5,125.9z M109.5,121.3l0.6-3.3h1.4l0.3-1.7h-1.4l0.6-3.3h-1.7l-0.6,3.3h-1.6l-0.3,1.7h1.6l-0.7,4c-0.8,0.3-1.5,0.5-2.1,0.7
	l0.4,1.8c1.5-0.6,3.3-1.4,5.1-2.2l-0.1-1.6L109.5,121.3z M114,125.1c-0.9,0-1-0.1-0.9-1l0.8-4.7l1.4-0.6l-0.8,4.6h1.7l0.9-5.4
	l1.3-0.5c-0.4,1.8-0.8,3.7-1.2,5l1.4,0.4c0.8-2.2,1.4-4.4,1.9-6.7l0.1-0.3l-1.3-0.4l-1.8,0.7l0.6-3.5h-1.7l-0.7,4.2l-1.4,0.5
	l0.6-3.3h-1.7l-0.7,4l-1.6,0.6l0.4,1.6l0.9-0.4l-0.7,3.9c-0.4,2.1,0.1,2.6,2.2,2.6h3.2c1.8,0,2.4-0.7,3-2.9c-0.5-0.1-1-0.3-1.5-0.7
	c-0.4,1.5-0.6,1.9-1.4,1.9L114,125.1L114,125.1z M126.1,113c-0.3,0.5-0.6,0.9-1,1.4c-0.2-0.5-0.5-1-0.8-1.4l-1.4,0.8
	c0.4,0.6,0.7,1.3,0.9,2c-0.5,0.5-1.1,1-1.8,1.4c0.3,0.3,0.7,0.7,0.9,1.1c0.4-0.3,0.7-0.5,1.1-0.8c0,0.4,0,0.9,0,1.3
	c-0.7,1.2-1.7,2.3-2.8,3.2c0.3,0.4,0.6,0.9,0.7,1.4c0.6-0.6,1.2-1.1,1.7-1.8c-0.3,1.6-0.7,3.1-1,3.4c-0.1,0.1-0.3,0.2-0.4,0.2
	c-0.4,0-0.7,0-1.1,0c0.2,0.5,0.2,1.1,0.1,1.6c0.5,0,1,0,1.5-0.1c0.4-0.1,0.7-0.3,0.9-0.5c0.8-0.9,1.3-3.1,1.7-5.2
	c0.4-1.6,0.4-3.3,0.2-5c0.6-0.7,1.2-1.4,1.8-2.2L126.1,113z M128.4,124.6h-1.5l0.3-1.5h1.5L128.4,124.6z M136.1,118.2l0.3-1.5h-2
	c0.2-0.8,0.3-1.6,0.5-2.5c0.3,0.7,0.5,1.4,0.6,2.1l1.3-0.5c-0.1-0.8-0.3-1.5-0.6-2.2l-1.2,0.5l0.2-1.1h-1.6
	c-0.2,1.2-0.4,2.5-0.7,3.6h-1.2l0.2-1.4h-2.7l1.2-0.5c-0.2-0.6-0.4-1.3-0.6-1.9l-1.4,0.5c0.2,0.6,0.4,1.3,0.5,1.9h-2.2l-0.3,1.4h5.1
	l-0.2,1.4h1.3c-0.6,2.8-1.5,5.2-3,7l0.6-3.5H126l-0.9,4.9h1.4l0.1-0.8h2.3l0,0c0.4,0.3,0.8,0.7,1,1.1c1.2-1.2,2.2-2.7,2.8-4.3
	c-0.1,1.5,0.3,3,1.1,4.3c0.4-0.6,0.9-1.1,1.5-1.5c-1.2-1.4-1.3-4.2-1-7.2L136.1,118.2L136.1,118.2z M126.1,121.1h4.2l0.2-1.4h-4.2
	L126.1,121.1z M131,117.5h-4.2l-0.2,1.4h4.2L131,117.5z M148.6,115.5c-0.6-0.7-1.3-1.3-2.1-1.8l-1.1,1.2c0.8,0.6,1.4,1.2,2,2
	L148.6,115.5z M144.1,118.7c0.8,0.5,1.5,1.2,2.2,1.9l1.2-1.4c-0.7-0.7-1.4-1.3-2.2-1.7L144.1,118.7z M143.6,113.7
	c-0.4,1.2-0.9,2.4-1.5,3.5l1.1,0.3c0.5-0.9,1.2-2.3,1.8-3.5L143.6,113.7z M140,117.2c0.1-1.2,0-2.3-0.2-3.5l-1.3,0.3
	c0.2,1.2,0.2,2.3,0.1,3.5L140,117.2z M141.4,120.6l0.2-1h2.3l0.3-1.7h-2.3l0.9-5h-1.7l-0.9,5h-2.3l-0.3,1.7h2.3l-0.2,0.9l-1-0.4
	c-0.5,1.2-1.2,2.4-2.1,3.3c0.2,0.7,0.4,1.4,0.4,2.2c1.1-1.2,1.9-2.5,2.4-4l-1,5.4h1.7l0.9-5.3c0.2,0.8,0.4,1.7,0.6,2.5l1.5-1.4
	c-0.3-0.9-0.7-1.9-1.2-2.8L141.4,120.6z M151.3,122.5l0-1.7l-1.6,0.3l1.5-8.4h-1.7l-1.5,8.7l-4.7,0.8l0,1.7l4.4-0.8L147,127h1.7
	l0.7-4.1L151.3,122.5z M157.6,122.3c-0.5,0.2-1,0.3-1.6,0.5l0.5-3h1.4l0.3-1.7h-1.4l0.5-2.7h1.6l0.3-1.7h-5l-0.3,1.7h1.7l-0.5,2.7
	h-1.5l-0.3,1.7h1.5l-0.6,3.6c-0.7,0.2-1.4,0.4-1.9,0.5l0.1,1.8c1.5-0.5,3.5-1.1,5.2-1.6L157.6,122.3z M160.7,117.7h1.6L162,119h-1.6
	L160.7,117.7z M161.2,115h1.6l-0.2,1.3H161L161.2,115z M165.6,116.2H164l0.2-1.3h1.5L165.6,116.2z M165.1,119h-1.5l0.2-1.3h1.5
	L165.1,119z M162.7,124.9l0.3-1.4h3.2l0.3-1.6h-3.2l0.2-1.3h3.1l1.2-7.1h-7.9l-1.2,7.1h3l-0.2,1.3h-3.1l-0.3,1.6h3.1l-0.3,1.4h-4.2
	l-0.3,1.6h9.8l0.3-1.6H162.7L162.7,124.9z M173.5,117.2l0.2-1.2h1.1c-0.4,0.4-0.7,0.8-1.1,1.2H173.5z M173.8,122.3h-2.4l0.2-1h2.4
	L173.8,122.3z M170.9,124.7l0.2-1.1h2.4l-0.2,1.1H170.9L170.9,124.7z M182.7,113.6l-0.3,0.1h-4.4l-0.1,0.3l-1.5-0.4
	c-0.3,0.6-0.7,1.2-1,1.7l0.1-0.8H174l0.3-1.5h-1.7l-0.3,1.5h-2l-0.3,1.5h2l-0.2,1.2h-2.6l-0.3,1.6h3.2c-1.2,1-2.6,1.9-4.1,2.5
	c0.3,0.5,0.6,1,0.8,1.5c0.3-0.1,0.6-0.3,0.8-0.5l-0.8,4.6h1.6l0.1-0.8h2.4l-0.1,0.6h1.7l1.2-6.9h-2.7c0.4-0.4,0.8-0.7,1.2-1.1h2.3
	l0.3-1.6h-1.1c0.8-1,1.6-2.1,2.2-3.2l-2.3,13h1.8l2.1-11.7h1.9c-0.6,1.2-1.4,2.7-2,3.8c0.8,0.8,1.2,2,1,3.1c0,0.4-0.2,0.8-0.6,1
	c-0.2,0.1-0.4,0.1-0.6,0.1c-0.3,0-0.6,0-1,0c0.2,0.6,0.2,1.2,0.1,1.7c0.4,0,0.9,0,1.3,0c0.4,0,0.8-0.2,1.1-0.4
	c0.7-0.4,1.1-1.1,1.3-2.3c0.2-1.3-0.1-2.6-0.9-3.5c0.9-1.3,1.8-3.1,2.6-4.5L182.7,113.6z M198.5,118.5c0-0.7-0.1-1.5-0.3-2.2
	l-1.1,0.3c0.1,0.3,0.1,0.6,0.1,0.9l-1.3,0.1c1-0.8,1.9-1.7,2.7-2.7l-1-0.5c-0.3,0.3-0.6,0.7-0.9,1l-0.9,0c0.7-0.7,1.3-1.4,1.8-2.1
	l-1.2-0.4c-0.5,0.8-1,1.5-1.6,2.1c-0.2,0.2-0.4,0.4-0.7,0.5c0.1,0.4,0.2,0.8,0.2,1.2c0.5-0.1,0.9-0.2,1.4-0.2
	c-0.4,0.4-0.7,0.6-0.9,0.8c-0.3,0.3-0.6,0.5-1,0.6c0.1,0.3,0.2,0.9,0.2,1.1c0.3-0.1,0.7-0.2,3.3-0.5c0,0.2,0,0.4,0,0.5L198.5,118.5z
	 M198,121c0-0.7-0.1-1.4-0.2-2.1l-1,0.2c0.1,0.7,0.1,1.5,0.1,2.2L198,121z M196.3,121.2c0.1-0.7,0.1-1.4,0.1-2.2l-1,0.2
	c0,0.7,0,1.5-0.1,2.2L196.3,121.2z M194,119c-0.2,0.7-0.4,1.4-0.7,2.1c0.3,0.1,0.6,0.3,0.9,0.5c0.4-0.8,0.7-1.6,0.9-2.4L194,119z
	 M194.6,114h-1.4c-0.1-0.5-0.2-0.9-0.3-1.4l-1.4,0.5c0.1,0.3,0.2,0.6,0.2,0.9h-1.8l-0.2,1h4.8L194.6,114z M193.8,116.9h-4.1
	l-0.2,0.9h4.1L193.8,116.9z M190.4,119.4h1.8l-0.2,0.9h-1.8L190.4,119.4z M193,121.2l0.5-2.8h-4l-0.5,2.8H193z M194.1,115.5h-4.1
	l-0.2,0.9h4.1L194.1,115.5z M189.3,118.5c0-0.7-0.1-1.4-0.3-2l-1,0.3c0.1,0.2,0.1,0.5,0.1,0.7l-1.3,0.1c1-0.9,2-1.8,2.9-2.8
	l-1.1-0.5c-0.3,0.3-0.6,0.7-0.9,1l-0.9,0c0.7-0.7,1.2-1.4,1.8-2.1l-1.2-0.4c-0.5,0.8-1,1.5-1.7,2.2c-0.2,0.2-0.4,0.4-0.7,0.5
	c0.1,0.4,0.2,0.8,0.2,1.2c0.5-0.1,1-0.2,1.4-0.2c-0.3,0.3-0.6,0.6-1,0.9c-0.3,0.3-0.7,0.5-1,0.6c0.1,0.4,0.2,0.8,0.2,1.2
	c0.3-0.1,0.7-0.2,3.3-0.5c0,0.2,0,0.3,0,0.5L189.3,118.5z M188.7,120.8c0-0.6-0.1-1.3-0.2-1.9l-1,0.3c0.1,0.6,0.1,1.3,0.1,2
	L188.7,120.8z M187.1,121.2c0.1-0.7,0.1-1.4,0.1-2.2l-1,0.2c0,0.7,0,1.5-0.1,2.2L187.1,121.2z M184.8,119.1
	c-0.1,0.8-0.4,1.5-0.7,2.3c0.3,0.2,0.6,0.3,0.8,0.5c0.4-0.8,0.7-1.7,0.9-2.6L184.8,119.1z M192.9,123.3c-0.7,0.5-1.5,0.9-2.3,1.1
	c-0.8-0.3-1.6-0.6-2.3-1.1H192.9z M197,123.3l0.2-1.3h-8.2c0.2-0.2,0.3-0.3,0.5-0.5l-1.5-0.5c-1.2,1.3-2.8,2.2-4.4,2.7
	c0.3,0.4,0.6,0.9,0.8,1.4c0.8-0.3,1.6-0.7,2.3-1.2c0.5,0.5,1,0.8,1.6,1.1c-1.7,0.3-3.4,0.5-5.1,0.6c0.3,0.5,0.5,0.9,0.6,1.4
	c2.2-0.2,4.4-0.6,6.5-1.2c1.9,0.6,3.9,1,5.9,1.1c0.3-0.5,0.7-1,1.2-1.4c-1.6-0.1-3.2-0.3-4.8-0.6c0.9-0.4,1.7-1,2.5-1.7H197
	L197,123.3z M204.3,117.6c-0.3,1.4-0.8,2.7-1.5,3.9c-0.3-0.3-0.7-0.7-1-1c0.3-0.9,0.7-1.9,1.1-2.9L204.3,117.6z M206.8,117.4
	l0.3-1.6l-0.8,0l0.2-0.9h-1.7l-0.2,1l-1.1,0.1c0.4-1.1,0.7-2.1,0.9-3.1l-1.8-0.1c-0.2,1-0.6,2.1-0.9,3.2c-0.5,0-0.9,0-1.3,0
	l-0.1,1.7l0.9-0.1c-0.4,1.3-0.9,2.4-1.3,3.3c0.6,0.6,1.3,1.3,1.9,2.1c-0.9,1.1-1.9,2-3,2.7c0.4,0.4,0.8,0.8,1.1,1.3
	c1.1-0.7,2.2-1.6,3.1-2.7c0.5,0.5,0.9,1.1,1.3,1.7l1.4-1.5c-0.5-0.6-1-1.3-1.5-1.8c1-1.6,1.6-3.4,2-5.3L206.8,117.4z M214.2,119h-3
	l0.2-1.1c1.2-1,2.4-2.2,3.4-3.4l-1.1-0.9l-0.4,0.1h-5.6l-0.3,1.6h4.5c-0.7,0.8-1.4,1.6-2.2,2.2l-0.3,1.5H206l-0.3,1.7h3.2l-0.7,4.2
	c0,0.2-0.1,0.3-0.3,0.3c0,0-0.1,0-0.1,0c-0.2,0-1.1,0-1.9,0c0.2,0.6,0.3,1.1,0.3,1.7c0.9,0.1,1.8,0,2.7-0.3c0.7-0.3,1.1-0.9,1.1-1.7
	l0.7-4.3h3L214.2,119z M218.5,121.4h-1.2l1-5.6h1.2L218.5,121.4z M223,125c-0.6,0-1-0.2-0.9-0.5c0.1-0.5,0.6-1.2,6.7-5.4
	c0.1-0.1,0.2-0.2,0.3-0.3l-1.1-0.7l-0.4,0h-5.2c0.5-0.5,0.9-1,1.3-1.5h6.2l0.3-1.7h-5.4c0.3-0.6,0.7-1.1,1-1.7l-1.7-0.4
	c-0.8,1.7-1.9,3.2-3.2,4.5l0.6-3.2h-4.5l-1.8,10.3h1.7l0.2-1.2h2.8l1-5.4c0.4,0.3,0.7,0.6,1,1c0.2-0.2,0.4-0.4,0.5-0.5l-0.3,1.6h2.9
	c-4.3,3.2-4.6,4-4.8,4.9c-0.2,1.2,0.6,2,2.6,2h3.2c1.7,0,2.5-0.5,3.2-3.3c-0.5-0.1-1-0.3-1.5-0.6c-0.4,1.9-0.7,2.1-1.2,2.1L223,125
	L223,125z M239.8,116.7c0.4-1.1,0.7-2.2,1.1-3.5l-1.8-0.2c-0.3,1.3-0.7,2.5-1.1,3.6h-2.6c0.5-1,1-2,1.3-3l-1.7-0.5
	c-0.3,1.1-0.7,2.1-1.2,3.1c-0.1,0.3-0.4,0.6-0.7,0.7c0.1,0.5,0.2,1.1,0.3,1.7v0c0.5-0.2,1.1-0.3,1.7-0.2h2.3c-1.2,3-3.7,5.4-6.7,6.6
	c0.4,0.5,0.7,1,0.9,1.6c3.7-1.7,6-4.3,7.7-8.2h3c-1,3.8-1.7,5.5-2.2,6c-0.2,0.2-0.5,0.3-0.7,0.2c-0.4,0-1.3,0-2.2-0.1
	c0.3,0.6,0.4,1.2,0.3,1.9c0.8,0.1,1.6,0,2.3,0c0.6,0,1.2-0.3,1.7-0.8c0.8-0.8,1.6-2.8,3-8c0.1-0.2,0.2-0.8,0.2-0.8H239.8
	L239.8,116.7z M247.8,121.9h1.5l1.3-5.6l0.5-2.1h-2.3l-0.3,2.1L247.8,121.9z M247.9,125.9c0.8,0,1.5-0.6,1.7-1.5
	c0.2-0.6-0.2-1.2-0.8-1.4c-0.1,0-0.2,0-0.3,0c-0.8,0-1.5,0.6-1.6,1.5c-0.2,0.6,0.2,1.2,0.8,1.4C247.6,125.9,247.7,125.9,247.9,125.9
	L247.9,125.9z"/>
<g>
	<g>
		<path class="st4" d="M340.1,65.2c2.5-1.7,2.7-4,1.6-5.7c-2.5-3.9-9.9-1.7-10.6,2.1c-0.2,0.8,0,1.9,0.6,2.8
			C333.5,67.3,337.6,66.9,340.1,65.2z"/>
		<path class="st4" d="M335.3,71.9c0.1,0.1,1-0.4,4.6-0.6c2.1-0.1,4.6-0.2,6-0.8c1.8-0.8,2.3-2,1.8-2.9c-0.8-1.3-3-0.6-4.5-0.1
			c-2.3,0.9-4.9,2.6-6.4,3.5C336.1,71.5,335.2,71.9,335.3,71.9z"/>
		<path class="st4" d="M337.6,118.7c2.6-0.7,5.5-2.2,5.9-4.8c2.3,0.1,3.7-1,4.9-2.4c5-3.1,13.4-5.3,16-9.1c1.7,1.5,3.8,3.6,6.5,6.4
			c-0.4-1.1-3.3-4.2-6.2-6.8c0.1-0.3,0.3-0.5,0.4-0.8c0.5-1.6,0.3-3-0.6-4.1c0,0,0,0,0,0c3.1,0.1,7.4,0.6,11.4,1.9
			c-1.4-0.9-4.2-1.6-7.3-2c-1.6-0.2-3.1-0.4-4.5-0.4c-1-0.9-2.3-1.2-3.2-1.5c0-2.9-0.6-4.9-1.4-6.4c0.7-2.5,2.6-4.1,4-5.5
			c1.3-1.2,2.3-2.2,2-3.3c-0.7-2.8-9.8-2.3-13.4,1.5c-2.5-1.8-5.7-2.8-7.1-2.9c1.7-0.8,4.1-1.4,6.4-1.2c-1.1-1.3-7-1-9.7,0.9
			c1.1-1.5,2.6-5,2.1-5.5c-2.7,4.3-5.1,5.9-6.2,6.1c-0.4-0.9-0.8-1.8-1.3-2.8c-0.6-1.4-1.3-3.3-2.1-4.7c-1.8-3.2-4.3-5.6-8-5.6
			c-4.6-0.1-9.2,5.1-9.5,13.9c-1.6,0.6-3.9,0.1-4.4-0.6c-0.5-0.8,1.2-2.2,0.2-3.2c-0.6-0.6-2.4-0.6-3.5,0.8
			c-0.3,0.4-0.6,0.9-0.7,1.3c-0.5,1-1.2,2.4-2.5,2.6c-0.7-0.4-1.1-1.1-2.1-1.2c-0.8,0-1.7,0.5-2.3,1.5c-0.2,0-0.3,0-0.5,0
			c-0.6,0.1-1.4,0.7-1.9,1.8c-1.2,0.5-2,2.2-2.3,3.2c-0.5-0.2-1-0.5-1.6-0.5c-1,0.1-1.6,0.7-2.2,1.3c-0.6,0.7-1.8,1.4-2.8,1.3
			c-1.3-0.2,0.7-0.9,1.2-1.5c0.8-0.9-0.1-2.1-1.8-1.6c-0.9,0.3-1.8,0.8-2.9,1.6c-1.3,0.9-2.6,2-4.3,2.6c-1.6,0.6-2.7,0.1-3.6-0.1
			c-2.1-0.6-2.6,2.9,0.6,3.5c0.9,1.1,3.4,5.8,1.4,13.9c-0.4,1.7-0.7,2.7-0.1,3.1c4.9,3.7,12.8,4.3,17.4,4.3c0.6,0,1.1,0,1.5,0
			c0.1,0.5,0.5,1.3,1.4,1.7c1.2,0.6,2.7,0.4,4.1-0.2c1.2,1.1,6.9,0.9,11.9-3.1c1,0.2,2,0.4,3.2,0.7c-6.1,3-10.7,9.7-11.3,15.4
			c-0.1,0.9-0.1,1.9-0.1,2.8c-2.2,0.9-4,2.7-5.1,4.2c0.5-2.6-1.5-3.5-2.7-3.3c-0.4-0.8-1.5-1.6-3-1.3c-2.8,0.5-6,3.9-6.4,10.4
			c-0.2,3.3,0.4,6.1,1.6,7.4c0.5,0.6,1.2,0.9,1.9,0.9c0,0,0,0,0.1,0c1.3,0,2.6-0.9,4.2-2.1c3.1-2.2,7.5-5,15.6-4
			c2.7,1.6,6.5,2.3,11.2,1.6c2.5,1.6,6,3.5,9,4c2.2,0.4,4.1,0,5.1-2.1c0.1-0.1,0.1-0.3,0.2-0.4c1.2,0.6,2.9,0.1,3.8-0.6
			c1.2,0.1,2.6-0.2,3-1.3c0.4-1.5-1.2-2.9-3-4.3c-0.5-0.4-1-0.8-1.4-1.1c9.7-3,17.9-13.2,28.1-12.1c0.5,0.1-2.5-2.1-9-0.7
			c-7.8,1.7-16.5,7.5-21.5,8.1c-0.7-1.6-1.5-3-3.6-3.4c-1.1-0.2-1.8,0.2-2.2,0.6c-0.1,0.1-0.1,0.1-0.2,0.2c-0.1-1.2-0.1-2.4,0.1-3.8
			C334.3,123,336.8,119.7,337.6,118.7z"/>
		<path class="st4" d="M294,81.4c4.4,0,6.5-3.7,5.1-6.6c-1.8-3.8-8.6-3.3-10.3,0C287.4,77.5,289.7,81.4,294,81.4z"/>
		<path class="st4" d="M312.2,70c0.7,0,1.5-0.3,1.9-1c0.2-0.3,0.3-0.9-0.2-1.6c-0.3-0.4-0.7-0.7-1.3-0.7c-0.7,0-1.4,0.4-1.8,1
			c-0.3,0.5-0.4,1-0.2,1.4C310.9,69.7,311.5,70,312.2,70z"/>
		<path class="st4" d="M355,72.1c3.4,0.3,6.8,0.8,6.8-1.1c0-0.6-0.9-1.9-3.4-1.2c-1.3,0.4-2.8,1.3-3.9,2.2
			C354.5,72.1,354.7,72.1,355,72.1z"/>
	</g>
	<g>
		<path class="st5" d="M333.7,59.2c2.4-1.6,6.1-1.9,7.6,0.7c1.7,2.8-2,6.5-6,6.2C332.4,65.8,329.8,61.7,333.7,59.2z"/>
		<path class="st6" d="M337.4,61c0.4-0.7,1.2-1.2,1.9-1.2c0.4,0,0.8,0.2,1.1,0.5c0.4,0.6,0.3,1.2,0.1,1.6c-0.4,0.8-1.4,1.5-2.2,1.5
			c-0.4,0-0.7-0.2-0.9-0.5C337,62.3,337,61.7,337.4,61z"/>
		<path class="st7" d="M343.5,68.1c1.2-0.5,2.1-0.7,2.8-0.7c0.6,0,0.9,0.2,1.1,0.5c0.3,0.5-0.3,1.5-1.7,2.1
			c-1.3,0.6-3.6,0.7-5.6,0.9c-0.9,0.1-1.9,0.3-3,0.4C338.6,70.4,341.4,68.9,343.5,68.1z"/>
		<path class="st8" d="M348.7,110c-1.4,1.7-3.1,3.2-5.3,2.5c-0.2-0.6-0.6-1.2-1.2-1.8c-0.5-0.4-1-0.8-1.5-1.2
			c-0.8-1.7-0.7-4.9-0.4-5.9c-0.6,0.9-1,3.2-0.4,5.4c-1.3-0.8-2.8-1.4-4.4-1.9c-0.2-1.4,0.1-4.2,0.4-6.6c0.3-2.2,0.5-4.5,0.2-5.8
			c1.5-0.8,3.5-1.4,5.3-1.9c0.8,1.1,0.5,4,0.1,6.6c-0.3,2.5-0.7,5.5-0.2,7.9c0.8,3.7,3.3,4.8,5.5,3.2c1.6-1.1,2.7-3.4,3.3-4.2
			c2-2.8,4.5-6,6.1-6.7c0.7-0.1,1.4-0.3,2-0.6c0.1,0.1,0.1,0.2,0.1,0.2c-1.2,1.3-5.5,8.1-7,10.1c-0.9,0.5-1.7,0.9-2.4,1.4
			c0.4-0.5,0.8-1.1,1.1-1.6c0.8-1.1,1.8-2.4,2.3-2.7C351.1,106.7,350,108.4,348.7,110z"/>
		<path class="st9" d="M334.3,106.8c-6.3-8.5-3.6-16.6-0.2-18.1c-1.2,0.1-2.6,1.4-3.4,2.9c-1.8-0.1-3.9-3-4.6-4.7
			c0.7,1.1,1.9,1.8,3.2,1.7c0.8-0.1,1.5-0.5,2-1.1c3.4,0.8,8.4,2.1,13,4.1c-0.2,0-0.5,0.1-0.8,0.1c-2.7,0.5-8.9,2.2-9.4,4.4
			c0.4-0.5,1-0.9,1.8-1.4c0.2,1.3,0,3.4-0.3,5.6c-0.3,2.5-0.7,5-0.3,6.6C334.9,107,334.6,106.9,334.3,106.8z"/>
		<path class="st9" d="M349.8,90.7c-0.5-0.7-1.1-1-1.6-0.7c0-0.8-0.6-1.6-1.5-2.2c0.9-0.1,2.9,0.1,4.7,2.9
			C350.9,90.6,350.4,90.6,349.8,90.7z"/>
		<path class="st8" d="M349.5,90.7c-0.2,0.1-0.4,0.2-0.6,0.3c-0.2-0.2-0.4-0.4-0.6-0.6C348.5,90.2,348.9,90.1,349.5,90.7z"/>
		<path class="st9" d="M347.2,88.8c0.4,0.4,0.6,0.8,0.7,1.1c-0.4-0.5-0.8-0.8-0.9-1c-0.4-0.4-0.8-0.8-1.2-1.1
			C346.4,88.1,346.9,88.5,347.2,88.8z"/>
		<path class="st8" d="M348.1,90.7c0.2,0.2,0.3,0.3,0.4,0.5c-0.4,0.3-0.7,0.7-0.8,1c0.2-0.2,0.6-0.5,1.1-0.7c1.4,1.6,1.8,2.5,1.8,2
			c0-0.3-0.7-1.2-1.4-2.1c1.3-0.3,3-0.3,4.1,1c0,0.1,0,0.1,0,0.2c0.1,0.5,0.6,1.2,1,1.8c0.4,0.6,0.7,1.3,0.8,1.3
			c0.7,0.3,3.9,0.4,4.1-0.7c0.4,0.5,0.4,1.3,0.3,1.8c-0.7,2.2-4.9,2.6-6.1,1.8c0.6-0.2,1.1-0.5,1.6-1.2c-1.2,1-2.6,0.8-3.9,0.3
			c-3.3-1.3-3.5-3.5-4.4-5c0.6,0.3,1.1,0.6,1.6,0.9c1.4,0.8,1.7,1.1,1.8,0.9c0.2-0.2-1.2-1.1-1.8-1.4c-0.7-0.4-1.5-0.8-2.2-1.1
			c0,0-0.1-0.1-0.2-0.1C346.9,91.7,347.7,91.5,348.1,90.7z"/>
		<path class="st9" d="M354.1,92.1c0.9-0.5,2.5-0.7,3.6,0.3c0.4,0.4,0.7,0.8,0.8,1.6C357.4,93,355.2,92.1,354.1,92.1z"/>
		<path class="st10" d="M358.6,94.9c-0.3,0.7-2.9-0.7-2.7-1.4C356.2,92.8,358.9,94.3,358.6,94.9z"/>
		<path class="st11" d="M342,100c0.3-0.1,0.9-0.3,1.5,0c0.8,0.4,2.2,1.9,1.5,7c0.3-0.7,0.6-2.3,0.5-3.8c0.1,0,0.4,0,0.8,0.2
			c0.5,0.2,1.5,1,1.4,3.1c-0.2,2.2-0.9,3.3-1.5,3.8c-0.6,0.3-1.1,0.3-1.7,0.2c-1.2-0.3-2.2-1.5-2.6-3.5
			C341.3,104.9,341.7,102.4,342,100z"/>
		<path class="st9" d="M352.2,108.8c2-2.7,5.4-8.2,6.4-9.4c0.1,0.3,0.3,0.7,0.6,1c0.2,0.3,0.5,0.3,0.8,0.3c-0.9-0.3-0.9-1.5-1.2-2.1
			c0,0,0,0,0,0c0.4,0.1,1.8,0.7,4.7,3.1C361.9,104.4,356.7,106.5,352.2,108.8z"/>
		<path class="st9" d="M359.2,98.3c0.3-0.3,0.6-0.7,0.8-1.1c0.4-0.1,1.5-0.2,3.1-0.2c0.9,0.9,1.5,2.1,0.9,3.8
			c-0.1,0.2-0.1,0.3-0.2,0.5C362,99.9,360.3,98.7,359.2,98.3z"/>
		<path class="st9" d="M364.3,80.9c-0.8,1.5-4.7,3.8-5.2,7.2c-0.5-0.9-1.1-1.6-1.6-2.2c-1.5-4.1-3.2-4.2-4.1-3.4
			c-0.3-0.3-0.7-0.6-1-0.9C355.8,78.5,365.7,78.3,364.3,80.9z"/>
		<path class="st9" d="M331.5,69.5c3.6,4.4,5.1,12,8,12.4c-0.7-0.4-1.3-1.4-1.9-2.6c1.4-0.3,3.2-1.8,5-4.1c-1.1,2.9-2.6,4.2-2.8,4.9
			c1.3-1.4,4.6-2.7,7.4-2.8c-1.7,0.3-3.7,1.3-3.9,2.2c0.2-0.2,0.4-0.3,0.7-0.5c1.4,0,6.5,1.7,9.2,4c-0.2,0.3-0.3,0.7-0.3,1.1
			c0.8-1.4,2.8-2.1,4.5,2.3c0.3,0.7,2.8,3.7,2.7,9c0.2,0,1.5,0.4,2.6,1.2c-1,0-1.8,0.1-2.4,0.2c0.1-0.8-0.2-1.6-1-2.1c0,0,0,0,0,0
			c-0.1-0.2-0.3-0.4-0.4-0.6c0.4-0.7-0.2-2.5-1.6-2.9c-1.1-0.3-2.5,0.1-3.1,0.9c0,0-0.1,0-0.1,0c-0.7-0.7-1.4-1.2-2.1-1.4
			c-0.3-1-1.1-2.3-2-3c-1.2-1.1-2.9-1-3.3-0.1c-0.5-0.3-1.1-0.5-1.7-0.7c-5.3-4.7-11.3-8.5-11.9-8.2c0.9,0.4,6.1,3.7,11.1,7.9
			c-2-0.5-4.3-0.5-5.5,0.2c2.3-0.4,4.6-0.1,6.4,0.5c1.1,1,2.1,2,3.1,3c-0.3,0.7-1.4,1-2.8,1.2c-4.6-2-9.8-3.5-13.4-4.3
			c0.8-1.1,1.1-2.6,1.1-3.7c0.3,0.7,0.6,1.3,0.7,1.9c0.4-1.1-0.8-3-0.9-3.3c-0.2-0.5-0.4-1.2-0.6-2.2c-0.3-1.2-0.6-3.1-1.1-4.9
			c-0.6-1.9-1.3-4.1-2.5-5.7c-1-1.3-2.4-2.1-4.1-2c-0.7,0-1.4,0.3-2.1,0.7C324.7,66,328.7,66.2,331.5,69.5z"/>
		<path class="st12" d="M320.4,70c1.1-1.3,2.4-2.1,3.8-2.2c1.4-0.1,2.7,0.6,3.7,2c2.8,4,3.2,10.5,4.3,12.8c0.1,0.2,0.2,0.3,0.2,0.5
			c0,1.3-0.5,3-1.4,4c-2.2-0.4-3.7-0.5-3.8-0.3c0.2,0,1.6,0.2,3.5,0.6c0,0,0,0-0.1,0.1c-1.4,1.1-3.8,0.8-4.9-2.1
			c-0.7-1.7-0.8-3.7-0.8-4.6c-1.1,0.6-0.2,7,3.1,9.9c1.1,0.9,1.9,1.1,2.5,1c-0.3,0.5-0.5,1-0.6,1.5c-0.5,2.1-0.9,6.9,2.1,11.3
			c-1.7-0.5-3.5-1.4-5.2-2.7C317.2,94.3,315.1,76.5,320.4,70z"/>
		<path class="st9" d="M303.2,80.1c1.1,0,1.3,1,3,1.5c1.5,0.4,2.3,0.2,2.5,0.6c0.2,0.5-0.3,0.9-0.9,1.2c-0.9-1.2-2.9-0.9-3.8-1.1
			c-1.1-0.2-1.8-0.9-2.5-1.3C302.1,80.4,302.8,80.1,303.2,80.1z"/>
		<path class="st9" d="M301.1,81.5c0.8,0.3,2,1.3,3.3,1.5c1.9,0.3,2.5,0.1,2.9,0.8c0.4,0.7-0.6,1.7-1.7,1.9c0-0.2,0-0.4-0.1-0.5
			c-0.4-1-1.8-0.7-3.2-1.2c-0.5-0.2-0.8-0.6-1.2-0.9c-0.4-0.4-0.9-0.7-1.6-0.7C299.8,81.9,300.5,81.2,301.1,81.5z"/>
		<path class="st9" d="M297.9,83.9c0.8-0.8,1.9-1.1,2.8-0.4c0.4,0.3,0.8,0.7,1.6,1c0.6,0.2,1.1,0.1,2.3,0.5c0.8,0.3,0.1,1.3-0.1,1.5
			c-1.8,1.5-5.1-0.4-5.8-1.4c0,0.2,0.2,0.5,0.4,0.9c-0.7,0.4-1.7,0.2-2.4-0.1C296.8,85.4,297.3,84.5,297.9,83.9z"/>
		<path class="st7" d="M277.2,90.3c-0.3-0.7,0.1-1,0.5-1c0.3,0,1.5,0.5,2.5,0.5c1.5,0,2.5,0,6.6-3.1c3.1-2.3,4.1-1.4,3.7-0.9
			c-0.7,0.8-1.8,1.2-1.7,1.8c0.1,0.9,2.2,1.2,3.8-0.2c0.9-0.7,1.5-1.8,2.5-1.8c0.9,0,2.5,1.8,4.2,0.5c0.9,0.9,2.7,1.9,4.3,1.4
			c0.8-0.2,1.5-0.8,1.7-1.5c0,0,0,0,0.1,0c0.9,0,1.8-0.5,2.3-1.2c0.2-0.3,0.3-0.6,0.3-1c0.6-0.3,1-0.6,1.2-0.8
			c1.3-0.4,3.1,0,3.5,0.2c-0.9-1-2.2-1-3.2-0.7c0-0.1,0-0.1,0-0.2c0.2-1.6-2.2-1.3-3.7-1.9c1.3-0.3,2.2-1.5,2.7-2.4
			c0.4-0.8,1.1-1.8,2-2.1c0.5-0.2,1.6-0.2,1.4,0.5c-0.2,0.7-1.1,2-0.3,2.8c1.1,1.2,2.9,1.6,4.7,0.5c0,2.7,0.3,5.8,1.3,9.2
			c-2.2-0.5-4.6,0.2-5,0.5c-0.9,0.7-0.7,1.7-1.8,1.8c-1.8,0.2-3.4,0.1-4.7,0.2c-4.5,0.4-4.2,2.4-3.1,2.9c1,0.4,2.4,0.2,2.9,0.4
			c0.7,0.4-0.4,2-4.4,2.1c-5.6,0.2-6.1-1.6-7.1-2.4c-1-0.8-3.9,0.2-5.1-0.2c-1.4-0.5-0.8-1.3-1.8-2.2c-1.2-1-3.7-0.9-6.9-0.8l-0.3,0
			C278.1,91.6,277.3,90.7,277.2,90.3z"/>
		<path class="st13" d="M310.9,124c2.1-4.5,6.6-8.9,10.1-11c2.9,0.7,6.1,1.6,9,2.8c-1.9,1.9-2.5,5.4-2.8,8.9c-0.1,0.7-0.1,1.4-0.2,2
			c-0.4,4.3-0.7,7.7-4.1,11.2c-1,1-2,1.7-3.1,2.1c-4.4,1.8-9.1-1.3-10.3-6C308.8,131,309.3,127.4,310.9,124z"/>
		<path class="st9" d="M297.7,131.6c1-0.2,1.6,0.1,1.9,0.4c-0.8,0.3-1.5,0.9-2.1,1.6c0-0.8-0.3-1.6-1.1-1.5
			C296.9,131.9,297.3,131.7,297.7,131.6z"/>
		<path class="st13" d="M293.4,147.8c-1-1.1-1.4-3.7-1.2-6.6c0.1-2,0.4-3.8,1-5.1c0.6-1.4,2.5-4.2,3.6-3.5c0.4,0.3,0.5,1,0.3,1.6
			c-0.8,1.1-1.3,2.3-1,3.1c0.1-0.9,1.5-3.6,3.1-3.4c0.3,0,0.5,0.2,0.6,0.6c0.3,0.9-0.2,2-0.7,3.3c-0.4,1-0.8,2.1-1.1,3.4
			c-0.2,0.8-0.3,1.6-0.4,2.4c-0.3,2.3-0.6,3.6-1.3,4.2C295.6,148.5,294.2,148.7,293.4,147.8z"/>
		<path class="st9" d="M353.9,129.4c4.8-2.1,10.2-3.8,14.1-3.1c-2.4,0.2-5,0.9-7.1,1.7c-6.1,2.6-12.1,7.7-19.5,10.1
			c-0.5-0.8-0.9-1.8-1.2-2.7c-0.1-0.1-0.1-0.3-0.2-0.4C343.8,134.5,348.4,131.8,353.9,129.4z"/>
		<path class="st9" d="M336.1,131.8c2,0.4,2.6,2.1,3.3,4c0.4,1.1,0.8,2.3,1.6,3.2c0.4,0.6,1.3,1.2,2.1,1.8c1.3,1,3.1,2.4,2.9,3.2
			c-0.2,0.8-1.8,1.1-2.6,0.8c-1.6-0.6-2.3-1.9-3-2.1c0.5,0.5,0.9,1.9,2.2,2.6c-0.7,0.5-1.9,0.5-2.4,0.1c0.7-3.5-1.4-8.5-3.1-8.9
			c1.2,1.2,3.9,8.2,0.9,10.6c-3.8,3.1-13-4.5-15.9-4.4c0.3,0.1,1,0.5,1.9,1c-5.4,0.2-11.4-0.9-13.7-6.1c0.4,1.7,1.3,3.3,2.8,4.5
			c-7.2-1-11.6,2.1-14.6,4.2c-0.6,0.4-1.1,0.8-1.5,1.2c0.6-1,0.8-2.4,1-3.9c0.1-0.8,0.2-1.6,0.4-2.4c0.3-1.3,0.7-2.4,1.1-3.3
			c0.6-1.4,1-2.5,0.7-3.6c-0.2-0.6-0.6-0.8-0.9-0.9c-0.2,0-0.4,0-0.6,0c0.8-0.6,1.8-1,2.8-0.6c1.7,0.7,0.4,3.8-0.2,5.6
			c-0.6,1.5-1.1,2.8-0.8,3.7c0.2-1.3,1.1-2.8,1.9-4.3c1.1-1.5,3.6-4.5,6.3-5.4c0.6,3.7,2.7,6.8,6.2,8.2c3.1,1.2,6.1-0.1,8.5-2.4
			c3.6-3.6,4-7,4.3-11.4c0.1-0.6,0.1-1.3,0.2-2c0.3-3.5,0.8-7.1,2.6-8.8c1.1,0.5,2.2,1,3.2,1.5c-0.1-3.1-19.4-7.1-21.8-6
			c0.2,0,1.6,0.2,3.7,0.5c-4.8,3.4-8.8,3.2-10,2.9c1.3-0.7,2.4-1.5,2.6-1.9c-4.5,2.7-7.1,1.8-7.9,0.6c0.2,0,0.3-0.1,0.5-0.2
			c4.4-1,7.8-4.4,8.4-6.3c0.3-1.1-0.6-2.9-0.6-3.7c0.1-1.7,1.7-3.2,2.5-2.6c0.7,0.5,0,2.8,0.5,3.1c0.5,0.3,1.6,0.4,2.7,2.4
			c-0.6,0.1-1.1,0.3-1.4,0.5c8.7-0.7,16.1-0.1,21.1,1.2c6.5,1.7,11.6,5.5,6.1,8.9c-2.3,1.4-5.6,2-6.4,2.1c0.4,0.2,1.3,0.3,2.5,0.1
			c-3.9,4.5-5.3,15.7,0.7,22c-0.6-1.2-2.3-3.7-2.8-8C334.3,132.4,335,131.5,336.1,131.8z"/>
		<path class="st5" d="M288.9,77.2c-0.1-1.8,1.1-3.4,3-4c2.8-1,6.7-0.3,7.1,2.5c0.4,2.7-1.5,4.6-3.9,4.9
			C292.3,81.1,289.1,80,288.9,77.2z"/>
		<path class="st6" d="M295.3,76.9c-1-0.1-1.7-0.7-1.6-1.5c0-0.8,1.1-1.3,2.1-1.3c2,0,2.5,1.9,1.3,2.6
			C296.5,76.8,295.9,76.9,295.3,76.9z"/>
		<path class="st6" d="M311.3,67.8c0.5-0.4,1.2-0.5,1.7-0.4c0.7,0.2,0.8,1.2,0.5,1.6c-0.3,0.3-1.1,0.4-1.8,0.2
			C310.8,69,310.8,68.3,311.3,67.8z"/>
		<path class="st10" d="M295,108.1c-0.2,0.3-0.8,0.5-1.3,0.5c-0.2,0-0.5,0-0.5-0.2c0-0.1,0-0.1,0.1-0.2c0.2-0.3,0.8-0.5,1.3-0.5
			c0.1,0,0.5,0,0.5,0.2C295.1,107.9,295.1,108,295,108.1z"/>
		<path class="st10" d="M298.1,108.7c-0.2,0.3-0.8,0.4-1.2,0.4c-0.3,0-0.4-0.1-0.4-0.1c0,0,0-0.1,0.1-0.2c0.2-0.3,0.8-0.5,1.3-0.5
			c0.2,0,0.4,0,0.4,0.1C298.1,108.5,298.2,108.6,298.1,108.7z"/>
		<path class="st10" d="M293.7,110.5c-0.6-0.1,0.5-0.7,1-0.6C295.2,110.1,294.1,110.6,293.7,110.5z"/>
		<path class="st7" d="M359.2,70.1c1.5-0.2,2.1,0.6,2.1,0.9c0,0,0,0,0,0c0,0.2-0.2,0.4-0.4,0.5c-0.2,0.1-0.7,0.3-1.6,0.3
			c-2.3,0.1-2.9,0.1-4.4,0.1C356.1,70.9,357.9,70.3,359.2,70.1z"/>
		<path class="st10" d="M307.4,99.3C307.4,99.3,307.4,99.3,307.4,99.3L307.4,99.3z"/>
		<path class="st14" d="M283.9,99.4c1.5,0.6,2,0.3,2.1,0.2c0,0,0,0,0,0c0,0,0,0,0,0c0.1,0.1,1.2,0.8,3.3,1c2.3,0.2,2.3,0.2,2.3,0.2
			c0.4,0,0.4-0.5,0.7-0.4c0.3,0.1,0.5,0.3,2,0.4s2.3,0.2,2.4,0.2c0.1,0,0.3-0.4,0.7-0.3c0.3,0.1,0.4,0.4,1.5,0.1
			c1.1-0.3,1.3-0.3,1.9-0.2c0.6,0.1,1,0.4,1.8,0.1c0.8-0.3,1.5-0.7,1.8-0.7c0.3-0.1,0.8,0.1,1.2,0.2c0.4,0.1,2.5-1,2.7-1
			c0.3,0,1,0.2,1.4,0.1s1-0.2,1.8-0.3c0.7-0.1,2.4-0.7,2.6-0.8c0.2-0.1,0.2,0,0.5-0.1c0.3-0.1,0.5-0.3,1.4-0.4c1-0.1,2-0.5,2.4-0.7
			c0,0,0,0,0,0c0-0.1,0.7-0.3,1.1-0.4c0.6-0.2,1-0.4,1.1-0.4c-1.2-2-2.1-4.2-2.7-6.3c-1.7,0-4.7,0.3-5.5,1c-0.2,0.2-0.1,0.4-0.4,0.8
			c-1,1.2-3.9,0.9-6.4,1.1c-2,0.2-3.5,1.1-2.6,1.6c0.8,0.5,3.8-0.1,3.5,1.3c-0.2,0.9-1.5,2.3-4.4,2.6c-5.4,0.5-7.2-2.2-8-2.9
			c-0.8-0.6-3.8,0.6-5.2,0.1c-1.6-0.5-1.3-1.9-1.6-2.3c-1.3-1.2-4-0.8-7.1-0.7c0.5,0.7,1.1,2,1.6,3.6c0.2,0.7,0.3,1.5,0.4,2.2
			C282.5,98.6,283,99,283.9,99.4z"/>
		<path class="st14" d="M307.2,104.8c-0.4,0.1-0.8,0-1.1,0c-0.3,0-1.1,0.4-1.5,0.3c-0.4,0-0.7-0.4-0.8-0.2c-0.1,0.2-0.3,0.3-0.6,0.3
			c-0.6,0-1.1,0.2-1.2,0.3c-0.1,0.1-1-0.2-1.1-0.2c-0.1,0-0.6,0-1,0.4c-0.4,0.3-1,0-1.3-0.1c-0.3-0.1-1.6,0.1-1.7,0.1
			c-0.1,0-0.2-0.1-0.1-0.2c0.1-0.1-0.4,0.1-1.2,0.3c-0.8,0.1-2.1,0.4-2.5,0.3c-0.4-0.1-1.9-0.5-1.9-0.5c0,0-0.4-0.3-0.9-0.1
			c-0.4,0.1-2-0.1-2.2-0.1c-0.2-0.1-0.6-0.4-0.6-0.4c-0.1,0-0.3,0.2-0.8,0.3c-0.5,0-1.9-0.5-2.2-0.7c-0.3-0.1-1.3-0.3-1.4-0.4
			c-0.4-0.5-0.8-0.2-1.1-0.3c-0.3,1.9-0.8,3.6-1,4.6c-0.1,0.4,0,0.6,0.8,1.1c6.1,3.6,16.7,3.7,20,3.2c3-1.2,6.5-5,6.7-5.8
			c0.1-0.3-0.1-0.7-0.2-1.2c-0.1-0.3-0.2-0.5-0.3-0.7C307.7,104.7,307.5,104.7,307.2,104.8z"/>
		<path class="st14" d="M332.4,105.3c-3.2-0.7-5.8-2.2-8-4.2c-0.2,0.2-0.4,0.3-0.7,0.4c-0.7,0.3-1.6,0.5-2,0.5
			c-0.3,0.1-0.8,0.4-1.3,0.6c-0.5,0.2-1.9,0.4-2.1,0.4c-0.2,0-0.5,0-0.8,0.1c-0.3,0.2-1.5,0.6-1.8,0.6c-0.3,0-1.6,0.1-2.2,0.3
			c0.5,0.4,1,1,1.4,1.9c4.1-0.8,12.1-1,18.7,0.6C333.2,106.2,332.8,105.7,332.4,105.3z"/>
		<path class="st15" d="M286,99.6C285.9,99.6,286,99.6,286,99.6C286,99.6,286,99.6,286,99.6z"/>
		<path class="st16" d="M317.6,103.2c0.3-0.2,0.6-0.1,0.8-0.1c0.2,0,1.6-0.2,2.1-0.4c0.5-0.2,1-0.5,1.3-0.6c0.3-0.1,1.3-0.3,2-0.5
			c0.2-0.1,0.5-0.2,0.7-0.4c-1.6-1.4-2.9-3.1-4-5c-0.1,0.1-0.4,0.4-1,0.6c-0.2,0.1-0.5,0.2-0.7,0.2c-0.1,0-0.6,0.1-0.6,0
			c-0.4,0.2-1.4,0.6-2.4,0.7c-0.8,0.1-1.1,0.3-1.4,0.4c-0.3,0.1-0.3,0-0.5,0.1c-0.2,0.1-1.8,0.7-2.6,0.8c-0.7,0.1-1.4,0.2-1.8,0.3
			s-1.1-0.1-1.4-0.1c-0.3,0-2.3,1-2.7,1c-0.4-0.1-0.9-0.3-1.2-0.2c-0.3,0.1-1,0.4-1.8,0.7c-0.8,0.3-1.2,0-1.8-0.1
			c-0.6-0.1-0.8-0.1-1.9,0.2c-1.1,0.3-1.1,0-1.5-0.1c-0.3-0.1-0.5,0.3-0.7,0.3c-0.1,0-0.8-0.1-2.4-0.2s-1.8-0.3-2-0.4
			c-0.3-0.1-0.3,0.4-0.7,0.4c0,0,0,0-2.3-0.2c-2.1-0.2-3.3-0.9-3.3-1c0,0.1-0.5,0.4-2.1-0.2c-0.9-0.4-1.4-0.8-1.8-1.2
			c0.2,2,0.1,3.8-0.1,5.4c0.3,0.1,0.7-0.1,1.1,0.3c0.1,0.1,1.2,0.3,1.4,0.4c0.3,0.1,1.7,0.7,2.2,0.7c0.5,0,0.7-0.3,0.8-0.3
			c0.1,0,0.5,0.3,0.6,0.4c0.2,0.1,1.8,0.3,2.2,0.1c0.4-0.1,0.8,0.1,0.9,0.1c0,0,1.5,0.4,1.9,0.5c0.4,0.1,1.7-0.1,2.5-0.3
			c0.8-0.1,1.3-0.4,1.2-0.3c-0.1,0.1,0,0.2,0.1,0.2c0.1,0,1.4-0.2,1.7-0.1c0.3,0.1,0.9,0.4,1.3,0.1c0.4-0.3,0.9-0.4,1-0.4
			c0.1,0,1,0.3,1.1,0.2c0.1-0.1,0.6-0.3,1.2-0.3c0.4,0,0.6-0.1,0.6-0.3c0.1-0.2,0.4,0.1,0.8,0.2c0.4,0,1.1-0.3,1.5-0.3
			c0.3,0,0.7,0.1,1.1,0c0.2-0.1,0.5,0,0.8,0c-0.4-0.9-0.7-1.7,0.1-3.2c1.1-1.9,3.4-2.1,3.8-0.7c0.2,0.8,0,1.8,0,2.4
			c0.1,0,0.3,0.1,0.4,0.1c0.3,0.1,0.8,0.3,1.3,0.8c0.7-0.3,2-0.3,2.2-0.3C316.1,103.8,317.3,103.4,317.6,103.2z"/>
	</g>
	<g>
		<path class="st4" d="M346.9,84.3c-0.7,0.6-1,2-0.7,2.5c0-0.5,0.2-1.6,1-2.3c1.7-1.5,4.1,2.8,4.9,6.1c0.2-1.5-1.4-6-3.8-6.7
			C347.8,83.9,347.3,84,346.9,84.3z"/>
		<path class="st4" d="M353.9,91.9c0.2-1.5,2-4,3.4-2.3c0.6,0.7,1.2,2.2,1.4,3.3c0.2-1.1-0.3-3-1.6-3.8
			C355.5,88.1,353.7,89.9,353.9,91.9z"/>
		<path class="st4" d="M344.6,79.5c-2-0.2-2.7,2.9-2.6,4.9C342.1,84,342.8,79.9,344.6,79.5z"/>
		<path class="st17" d="M343.9,85.8c0.1-2.2,0.9-4.9,2.5-5c1.3-0.1,2.3,1.1,2.4,1.7c0.3-1.1-1.8-3.6-3.6-2.3
			C343.7,81.4,343.6,84.4,343.9,85.8z"/>
		<path class="st17" d="M355.2,84.7c1.2,0.5,1.8,2.5,2.1,3.8c-0.1-2.2-0.6-3.3-1.3-4.1c-1.6-1.8-2.5,0.5-2.3,1.3
			C353.9,85.2,354.4,84.4,355.2,84.7z"/>
		<path class="st17" d="M340.1,65.2c2.5-1.7,2.7-4,1.6-5.7c-2.5-3.9-9.9-1.7-10.6,2.1c-0.2,0.8,0,1.9,0.6,2.8
			C333.5,67.3,337.6,66.9,340.1,65.2z M333.7,59.2c2.4-1.6,6.1-1.9,7.6,0.7c1.7,2.8-2,6.5-6,6.2C332.4,65.8,329.8,61.7,333.7,59.2z"
			/>
		<path class="st4" d="M337.9,63.5c0.9,0.1,2.1-0.4,2.7-1.2c0.4-0.6,0.5-1.2,0.2-1.8c-0.3-0.4-0.7-0.7-1.2-0.7
			c-0.8-0.1-1.8,0.3-2.4,1c-0.5,0.6-0.6,1.3-0.4,2C337.1,63.1,337.5,63.4,337.9,63.5z M337.4,61c0.4-0.7,1.2-1.2,1.9-1.2
			c0.4,0,0.8,0.2,1.1,0.5c0.4,0.6,0.3,1.2,0.1,1.6c-0.4,0.8-1.4,1.5-2.2,1.5c-0.4,0-0.7-0.2-0.9-0.5C337,62.3,337,61.7,337.4,61z"/>
		<path class="st17" d="M335.3,71.9c0.1,0.1,1-0.4,4.6-0.6c2.1-0.1,4.6-0.2,6-0.8c1.8-0.8,2.3-2,1.8-2.9c-0.8-1.3-3-0.6-4.5-0.1
			c-2.3,0.9-4.9,2.6-6.4,3.5C336.1,71.5,335.2,71.9,335.3,71.9z M343.5,68.1c1.2-0.5,2.1-0.7,2.8-0.7c0.6,0,0.9,0.2,1.1,0.5
			c0.3,0.5-0.3,1.5-1.7,2.1c-1.3,0.6-3.6,0.7-5.6,0.9c-0.9,0.1-1.9,0.3-3,0.4C338.6,70.4,341.4,68.9,343.5,68.1z"/>
		<path class="st17" d="M333.9,127.8c0.4-4.8,2.8-8.1,3.7-9c2.6-0.7,5.5-2.2,5.9-4.8c2.3,0.1,3.7-1,4.9-2.4c5-3.1,13.4-5.3,16-9.1
			c1.7,1.5,3.8,3.6,6.5,6.4c-0.4-1.1-3.3-4.2-6.2-6.8c0.1-0.3,0.3-0.5,0.4-0.8c0.5-1.6,0.3-3-0.6-4.1c0,0,0,0,0,0
			c3.1,0.1,7.4,0.6,11.4,1.9c-1.4-0.9-4.2-1.6-7.3-2c-1.6-0.2-3.1-0.4-4.5-0.4c-1-0.9-2.3-1.2-3.2-1.5c0-2.9-0.6-4.9-1.4-6.4
			c0.7-2.5,2.6-4.1,4-5.5c1.3-1.2,2.3-2.2,2-3.3c-0.7-2.8-9.8-2.3-13.4,1.5c-2.5-1.8-5.7-2.8-7.1-2.9c1.7-0.8,4.1-1.4,6.4-1.2
			c-1.1-1.3-7-1-9.7,0.9c1.1-1.5,2.6-5,2.1-5.5c-2.7,4.3-5.1,5.9-6.2,6.1c-0.4-0.9-0.8-1.8-1.3-2.8c-0.6-1.4-1.3-3.3-2.1-4.7
			c-1.8-3.2-4.3-5.6-8-5.6c-4.6-0.1-9.2,5.1-9.5,13.9c-1.6,0.6-3.9,0.1-4.4-0.6c-0.5-0.8,1.2-2.2,0.2-3.2c-0.6-0.6-2.4-0.6-3.5,0.8
			c-0.3,0.4-0.6,0.9-0.7,1.3c-0.5,1-1.2,2.4-2.5,2.6c-0.7-0.4-1.1-1.1-2.1-1.2c-0.8,0-1.7,0.5-2.3,1.5c-0.2,0-0.3,0-0.5,0
			c-0.6,0.1-1.4,0.7-1.9,1.8c-1.2,0.5-2,2.2-2.3,3.2c-0.5-0.2-1-0.5-1.6-0.5c-1,0.1-1.6,0.7-2.2,1.3c-0.6,0.7-1.8,1.4-2.8,1.3
			c-1.3-0.2,0.7-0.9,1.2-1.5c0.8-0.9-0.1-2.1-1.8-1.6c-0.9,0.3-1.8,0.8-2.9,1.6c-1.3,0.9-2.6,2-4.3,2.6c-1.6,0.6-2.7,0.1-3.6-0.1
			c-2.1-0.6-2.6,2.9,0.6,3.5c0.9,1.1,3.4,5.8,1.4,13.9c-0.4,1.7-0.7,2.7-0.1,3.1c4.9,3.7,12.8,4.3,17.4,4.3c0.6,0,1.1,0,1.5,0
			c0.1,0.5,0.5,1.3,1.4,1.7c1.2,0.6,2.7,0.4,4.1-0.2c1.2,1.1,6.9,0.9,11.9-3.1c1,0.2,2,0.4,3.2,0.7c-6.1,3-10.7,9.7-11.3,15.4
			c-0.1,0.9-0.1,1.9-0.1,2.8c-2.2,0.9-4,2.7-5.1,4.2c0.5-2.6-1.5-3.5-2.7-3.3c-0.4-0.8-1.5-1.6-3-1.3c-2.8,0.5-6,3.9-6.4,10.4
			c-0.2,3.3,0.4,6.1,1.6,7.4c0.5,0.6,1.2,0.9,1.9,0.9c0,0,0,0,0.1,0c1.3,0,2.6-0.9,4.2-2.1c3.1-2.2,7.5-5,15.6-4
			c2.7,1.6,6.5,2.3,11.2,1.6c2.5,1.6,6,3.5,9,4c2.2,0.4,4.1,0,5.1-2.1c0.1-0.1,0.1-0.3,0.2-0.4c1.2,0.6,2.9,0.1,3.8-0.6
			c1.2,0.1,2.6-0.2,3-1.3c0.4-1.5-1.2-2.9-3-4.3c-0.5-0.4-1-0.8-1.4-1.1c9.7-3,17.9-13.2,28.1-12.1c0.5,0.1-2.5-2.1-9-0.7
			c-7.8,1.7-16.5,7.5-21.5,8.1c-0.7-1.6-1.5-3-3.6-3.4c-1.1-0.2-1.8,0.2-2.2,0.6c-0.1,0.1-0.1,0.1-0.2,0.2
			C333.8,130.5,333.8,129.2,333.9,127.8z M348.7,110c-1.4,1.7-3.1,3.2-5.3,2.5c-0.2-0.6-0.6-1.2-1.2-1.8c-0.5-0.4-1-0.8-1.5-1.2
			c-0.8-1.7-0.7-4.9-0.4-5.9c-0.6,0.9-1,3.2-0.4,5.4c-1.3-0.8-2.8-1.4-4.4-1.9c-0.2-1.4,0.1-4.2,0.4-6.6c0.3-2.2,0.5-4.5,0.2-5.8
			c1.5-0.8,3.5-1.4,5.3-1.9c0.8,1.1,0.5,4,0.1,6.6c-0.3,2.5-0.7,5.5-0.2,7.9c0.8,3.7,3.3,4.8,5.5,3.2c1.6-1.1,2.7-3.4,3.3-4.2
			c2-2.8,4.5-6,6.1-6.7c0.7-0.1,1.4-0.3,2-0.6c0.1,0.1,0.1,0.2,0.1,0.2c-1.2,1.3-5.5,8.1-7,10.1c-0.9,0.5-1.7,0.9-2.4,1.4
			c0.4-0.5,0.8-1.1,1.1-1.6c0.8-1.1,1.8-2.4,2.3-2.7C351.1,106.7,350,108.4,348.7,110z M334.3,106.8c-6.3-8.5-3.6-16.6-0.2-18.1
			c-1.2,0.1-2.6,1.4-3.4,2.9c-1.8-0.1-3.9-3-4.6-4.7c0.7,1.1,1.9,1.8,3.2,1.7c0.8-0.1,1.5-0.5,2-1.1c3.4,0.8,8.4,2.1,13,4.1
			c-0.2,0-0.5,0.1-0.8,0.1c-2.7,0.5-8.9,2.2-9.4,4.4c0.4-0.5,1-0.9,1.8-1.4c0.2,1.3,0,3.4-0.3,5.6c-0.3,2.5-0.7,5-0.3,6.6
			C334.9,107,334.6,106.9,334.3,106.8z M349.8,90.7c-0.5-0.7-1.1-1-1.6-0.7c0-0.8-0.6-1.6-1.5-2.2c0.9-0.1,2.9,0.1,4.7,2.9
			C350.9,90.6,350.4,90.6,349.8,90.7z M349.5,90.7c-0.2,0.1-0.4,0.2-0.6,0.3c-0.2-0.2-0.4-0.4-0.6-0.6
			C348.5,90.2,348.9,90.1,349.5,90.7z M347.2,88.8c0.4,0.4,0.6,0.8,0.7,1.1c-0.4-0.5-0.8-0.8-0.9-1c-0.4-0.4-0.8-0.8-1.2-1.1
			C346.4,88.1,346.9,88.5,347.2,88.8z M348.1,90.7c0.2,0.2,0.3,0.3,0.4,0.5c-0.4,0.3-0.7,0.7-0.8,1c0.2-0.2,0.6-0.5,1.1-0.7
			c1.4,1.6,1.8,2.5,1.8,2c0-0.3-0.7-1.2-1.4-2.1c1.3-0.3,3-0.3,4.1,1c0,0.1,0,0.1,0,0.2c0.1,0.5,0.6,1.2,1,1.8
			c0.4,0.6,0.7,1.3,0.8,1.3c0.7,0.3,3.9,0.4,4.1-0.7c0.4,0.5,0.4,1.3,0.3,1.8c-0.7,2.2-4.9,2.6-6.1,1.8c0.6-0.2,1.1-0.5,1.6-1.2
			c-1.2,1-2.6,0.8-3.9,0.3c-3.3-1.3-3.5-3.5-4.4-5c0.6,0.3,1.1,0.6,1.6,0.9c1.4,0.8,1.7,1.1,1.8,0.9c0.2-0.2-1.2-1.1-1.8-1.4
			c-0.7-0.4-1.5-0.8-2.2-1.1c0,0-0.1-0.1-0.2-0.1C346.9,91.7,347.7,91.5,348.1,90.7z M354.1,92.1c0.9-0.5,2.5-0.7,3.6,0.3
			c0.4,0.4,0.7,0.8,0.8,1.6C357.4,93,355.2,92.1,354.1,92.1z M358.6,94.9c-0.3,0.7-2.9-0.7-2.7-1.4
			C356.2,92.8,358.9,94.3,358.6,94.9z M342,100c0.3-0.1,0.9-0.3,1.5,0c0.8,0.4,2.2,1.9,1.5,7c0.3-0.7,0.6-2.3,0.5-3.8
			c0.1,0,0.4,0,0.8,0.2c0.5,0.2,1.5,1,1.4,3.1c-0.2,2.2-0.9,3.3-1.5,3.8c-0.6,0.3-1.1,0.3-1.7,0.2c-1.2-0.3-2.2-1.5-2.6-3.5
			C341.3,104.9,341.7,102.4,342,100z M352.2,108.8c2-2.7,5.4-8.2,6.4-9.4c0.1,0.3,0.3,0.7,0.6,1c0.2,0.3,0.5,0.3,0.8,0.3
			c-0.9-0.3-0.9-1.5-1.2-2.1c0,0,0,0,0,0c0.4,0.1,1.8,0.7,4.7,3.1C361.9,104.4,356.7,106.5,352.2,108.8z M359.2,98.3
			c0.3-0.3,0.6-0.7,0.8-1.1c0.4-0.1,1.5-0.2,3.1-0.2c0.9,0.9,1.5,2.1,0.9,3.8c-0.1,0.2-0.1,0.3-0.2,0.5
			C362,99.9,360.3,98.7,359.2,98.3z M364.3,80.9c-0.8,1.5-4.7,3.8-5.2,7.2c-0.5-0.9-1.1-1.6-1.6-2.2c-1.5-4.1-3.2-4.2-4.1-3.4
			c-0.3-0.3-0.7-0.6-1-0.9C355.8,78.5,365.7,78.3,364.3,80.9z M331.5,69.5c3.6,4.4,5.1,12,8,12.4c-0.7-0.4-1.3-1.4-1.9-2.6
			c1.4-0.3,3.2-1.8,5-4.1c-1.1,2.9-2.6,4.2-2.8,4.9c1.3-1.4,4.6-2.7,7.4-2.8c-1.7,0.3-3.7,1.3-3.9,2.2c0.2-0.2,0.4-0.3,0.7-0.5
			c1.4,0,6.5,1.7,9.2,4c-0.2,0.3-0.3,0.7-0.3,1.1c0.8-1.4,2.8-2.1,4.5,2.3c0.3,0.7,2.8,3.7,2.7,9c0.2,0,1.5,0.4,2.6,1.2
			c-1,0-1.8,0.1-2.4,0.2c0.1-0.8-0.2-1.6-1-2.1c0,0,0,0,0,0c-0.1-0.2-0.3-0.4-0.4-0.6c0.4-0.7-0.2-2.5-1.6-2.9
			c-1.1-0.3-2.5,0.1-3.1,0.9c0,0-0.1,0-0.1,0c-0.7-0.7-1.4-1.2-2.1-1.4c-0.3-1-1.1-2.3-2-3c-1.2-1.1-2.9-1-3.3-0.1
			c-0.5-0.3-1.1-0.5-1.7-0.7c-5.3-4.7-11.3-8.5-11.9-8.2c0.9,0.4,6.1,3.7,11.1,7.9c-2-0.5-4.3-0.5-5.5,0.2c2.3-0.4,4.6-0.1,6.4,0.5
			c1.1,1,2.1,2,3.1,3c-0.3,0.7-1.4,1-2.8,1.2c-4.6-2-9.8-3.5-13.4-4.3c0.8-1.1,1.1-2.6,1.1-3.7c0.3,0.7,0.6,1.3,0.7,1.9
			c0.4-1.1-0.8-3-0.9-3.3c-0.2-0.5-0.4-1.2-0.6-2.2c-0.3-1.2-0.6-3.1-1.1-4.9c-0.6-1.9-1.3-4.1-2.5-5.7c-1-1.3-2.4-2.1-4.1-2
			c-0.7,0-1.4,0.3-2.1,0.7C324.7,66,328.7,66.2,331.5,69.5z M320.4,70c1.1-1.3,2.4-2.1,3.8-2.2c1.4-0.1,2.7,0.6,3.7,2
			c2.8,4,3.2,10.5,4.3,12.8c0.1,0.2,0.2,0.3,0.2,0.5c0,1.3-0.5,3-1.4,4c-2.2-0.4-3.7-0.5-3.8-0.3c0.2,0,1.6,0.2,3.5,0.6
			c0,0,0,0-0.1,0.1c-1.4,1.1-3.8,0.8-4.9-2.1c-0.7-1.7-0.8-3.7-0.8-4.6c-1.1,0.6-0.2,7,3.1,9.9c1.1,0.9,1.9,1.1,2.5,1
			c-0.3,0.5-0.5,1-0.6,1.5c-0.5,2.1-0.9,6.9,2.1,11.3c-1.7-0.5-3.5-1.4-5.2-2.7C317.2,94.3,315.1,76.5,320.4,70z M303.2,80.1
			c1.1,0,1.3,1,3,1.5c1.5,0.4,2.3,0.2,2.5,0.6c0.2,0.5-0.3,0.9-0.9,1.2c-0.9-1.2-2.9-0.9-3.8-1.1c-1.1-0.2-1.8-0.9-2.5-1.3
			C302.1,80.4,302.8,80.1,303.2,80.1z M301.1,81.5c0.8,0.3,2,1.3,3.3,1.5c1.9,0.3,2.5,0.1,2.9,0.8c0.4,0.7-0.6,1.7-1.7,1.9
			c0-0.2,0-0.4-0.1-0.5c-0.4-1-1.8-0.7-3.2-1.2c-0.5-0.2-0.8-0.6-1.2-0.9c-0.4-0.4-0.9-0.7-1.6-0.7
			C299.8,81.9,300.5,81.2,301.1,81.5z M297.9,83.9c0.8-0.8,1.9-1.1,2.8-0.4c0.4,0.3,0.8,0.7,1.6,1c0.6,0.2,1.1,0.1,2.3,0.5
			c0.8,0.3,0.1,1.3-0.1,1.5c-1.8,1.5-5.1-0.4-5.8-1.4c0,0.2,0.2,0.5,0.4,0.9c-0.7,0.4-1.7,0.2-2.4-0.1
			C296.8,85.4,297.3,84.5,297.9,83.9z M277.2,90.3c-0.3-0.7,0.1-1,0.5-1c0.3,0,1.5,0.5,2.5,0.5c1.5,0,2.5,0,6.6-3.1
			c3.1-2.3,4.1-1.4,3.7-0.9c-0.7,0.8-1.8,1.2-1.7,1.8c0.1,0.9,2.2,1.2,3.8-0.2c0.9-0.7,1.5-1.8,2.5-1.8c0.9,0,2.5,1.8,4.2,0.5
			c0.9,0.9,2.7,1.9,4.3,1.4c0.8-0.2,1.5-0.8,1.7-1.5c0,0,0,0,0.1,0c0.9,0,1.8-0.5,2.3-1.2c0.2-0.3,0.3-0.6,0.3-1
			c0.6-0.3,1-0.6,1.2-0.8c1.3-0.4,3.1,0,3.5,0.2c-0.9-1-2.2-1-3.2-0.7c0-0.1,0-0.1,0-0.2c0.2-1.6-2.2-1.3-3.7-1.9
			c1.3-0.3,2.2-1.5,2.7-2.4c0.4-0.8,1.1-1.8,2-2.1c0.5-0.2,1.6-0.2,1.4,0.5c-0.2,0.7-1.1,2-0.3,2.8c1.1,1.2,2.9,1.6,4.7,0.5
			c0,2.7,0.3,5.8,1.3,9.2c-2.2-0.5-4.6,0.2-5,0.5c-0.9,0.7-0.7,1.7-1.8,1.8c-1.8,0.2-3.4,0.1-4.7,0.2c-4.5,0.4-4.2,2.4-3.1,2.9
			c1,0.4,2.4,0.2,2.9,0.4c0.7,0.4-0.4,2-4.4,2.1c-5.6,0.2-6.1-1.6-7.1-2.4c-1-0.8-3.9,0.2-5.1-0.2c-1.4-0.5-0.8-1.3-1.8-2.2
			c-1.2-1-3.7-0.9-6.9-0.8l-0.3,0C278.1,91.6,277.3,90.7,277.2,90.3z M281.8,109.3c-0.8-0.5-0.9-0.7-0.8-1.1
			c0.4-2.3,2.1-6.9,0.7-12.2c-0.5-1.7-1.1-2.9-1.6-3.6c3.1-0.1,5.8-0.5,7.1,0.7c0.4,0.3,0,1.7,1.6,2.3c1.4,0.5,4.4-0.7,5.2-0.1
			c0.8,0.6,2.6,3.3,8,2.9c2.9-0.2,4.2-1.6,4.4-2.6c0.3-1.4-2.8-0.8-3.5-1.3c-0.9-0.6,0.6-1.5,2.6-1.6c2.6-0.2,5.4,0.2,6.4-1.1
			c0.3-0.4,0.2-0.6,0.4-0.8c0.8-0.7,3.8-1,5.5-1c0.6,2.2,1.5,4.3,2.7,6.3c-0.1,0-0.5,0.3-1.1,0.4c-0.4,0.1-1.1,0.3-1.1,0.4
			c0,0.1,0.5,0,0.6,0c0.2-0.1,0.5-0.1,0.7-0.2c0.5-0.2,0.9-0.5,1-0.6c2.6,4.4,6.5,8,12,9.1c0.4,0.5,0.7,0.9,1.2,1.4
			c-6.7-1.6-14.6-1.4-18.7-0.6c-0.8-1.9-2-2.5-2.6-2.7c-0.1,0-0.3-0.1-0.4-0.1c0-0.6,0.2-1.5,0-2.4c-0.4-1.4-2.8-1.2-3.8,0.7
			c-1,1.8-0.3,2.6,0.2,3.9c0.2,0.5,0.3,0.9,0.2,1.2c-0.1,0.8-3.7,4.6-6.7,5.8C298.6,113,287.9,112.9,281.8,109.3z M310.9,124
			c2.1-4.5,6.6-8.9,10.1-11c2.9,0.7,6.1,1.6,9,2.8c-1.9,1.9-2.5,5.4-2.8,8.9c-0.1,0.7-0.1,1.4-0.2,2c-0.4,4.3-0.7,7.7-4.1,11.2
			c-1,1-2,1.7-3.1,2.1c-4.4,1.8-9.1-1.3-10.3-6C308.8,131,309.3,127.4,310.9,124z M297.7,131.6c1-0.2,1.6,0.1,1.9,0.4
			c-0.8,0.3-1.5,0.9-2.1,1.6c0-0.8-0.3-1.6-1.1-1.5C296.9,131.9,297.3,131.7,297.7,131.6z M293.4,147.8c-1-1.1-1.4-3.7-1.2-6.6
			c0.1-2,0.4-3.8,1-5.1c0.6-1.4,2.5-4.2,3.6-3.5c0.4,0.3,0.5,1,0.3,1.6c-0.8,1.1-1.3,2.3-1,3.1c0.1-0.9,1.5-3.6,3.1-3.4
			c0.3,0,0.5,0.2,0.6,0.6c0.3,0.9-0.2,2-0.7,3.3c-0.4,1-0.8,2.1-1.1,3.4c-0.2,0.8-0.3,1.6-0.4,2.4c-0.3,2.3-0.6,3.6-1.3,4.2
			C295.6,148.5,294.2,148.7,293.4,147.8z M353.9,129.4c4.8-2.1,10.2-3.8,14.1-3.1c-2.4,0.2-5,0.9-7.1,1.7
			c-6.1,2.6-12.1,7.7-19.5,10.1c-0.5-0.8-0.9-1.8-1.2-2.7c-0.1-0.1-0.1-0.3-0.2-0.4C343.8,134.5,348.4,131.8,353.9,129.4z
			 M336.1,131.8c2,0.4,2.6,2.1,3.3,4c0.4,1.1,0.8,2.3,1.6,3.2c0.4,0.6,1.3,1.2,2.1,1.8c1.3,1,3.1,2.4,2.9,3.2
			c-0.2,0.8-1.8,1.1-2.6,0.8c-1.6-0.6-2.3-1.9-3-2.1c0.5,0.5,0.9,1.9,2.2,2.6c-0.7,0.5-1.9,0.5-2.4,0.1c0.7-3.5-1.4-8.5-3.1-8.9
			c1.2,1.2,3.9,8.2,0.9,10.6c-3.8,3.1-13-4.5-15.9-4.4c0.3,0.1,1,0.5,1.9,1c-5.4,0.2-11.4-0.9-13.7-6.1c0.4,1.7,1.3,3.3,2.8,4.5
			c-7.2-1-11.6,2.1-14.6,4.2c-0.6,0.4-1.1,0.8-1.5,1.2c0.6-1,0.8-2.4,1-3.9c0.1-0.8,0.2-1.6,0.4-2.4c0.3-1.3,0.7-2.4,1.1-3.3
			c0.6-1.4,1-2.5,0.7-3.6c-0.2-0.6-0.6-0.8-0.9-0.9c-0.2,0-0.4,0-0.6,0c0.8-0.6,1.8-1,2.8-0.6c1.7,0.7,0.4,3.8-0.2,5.6
			c-0.6,1.5-1.1,2.8-0.8,3.7c0.2-1.3,1.1-2.8,1.9-4.3c1.1-1.5,3.6-4.5,6.3-5.4c0.6,3.7,2.7,6.8,6.2,8.2c3.1,1.2,6.1-0.1,8.5-2.4
			c3.6-3.6,4-7,4.3-11.4c0.1-0.6,0.1-1.3,0.2-2c0.3-3.5,0.8-7.1,2.6-8.8c1.1,0.5,2.2,1,3.2,1.5c-0.1-3.1-19.4-7.1-21.8-6
			c0.2,0,1.6,0.2,3.7,0.5c-4.8,3.4-8.8,3.2-10,2.9c1.3-0.7,2.4-1.5,2.6-1.9c-4.5,2.7-7.1,1.8-7.9,0.6c0.2,0,0.3-0.1,0.5-0.2
			c4.4-1,7.8-4.4,8.4-6.3c0.3-1.1-0.6-2.9-0.6-3.7c0.1-1.7,1.7-3.2,2.5-2.6c0.7,0.5,0,2.8,0.5,3.1c0.5,0.3,1.6,0.4,2.7,2.4
			c-0.6,0.1-1.1,0.3-1.4,0.5c8.7-0.7,16.1-0.1,21.1,1.2c6.5,1.7,11.6,5.5,6.1,8.9c-2.3,1.4-5.6,2-6.4,2.1c0.4,0.2,1.3,0.3,2.5,0.1
			c-3.9,4.5-5.3,15.7,0.7,22c-0.6-1.2-2.3-3.7-2.8-8C334.3,132.4,335,131.5,336.1,131.8z"/>
		<path class="st17" d="M294,81.4c4.4,0,6.5-3.7,5.1-6.6c-1.8-3.8-8.6-3.3-10.3,0C287.4,77.5,289.7,81.4,294,81.4z M288.9,77.2
			c-0.1-1.8,1.1-3.4,3-4c2.8-1,6.7-0.3,7.1,2.5c0.4,2.7-1.5,4.6-3.9,4.9C292.3,81.1,289.1,80,288.9,77.2z"/>
		<path class="st4" d="M297.4,74.5c-0.7-0.7-2.2-1-3.3-0.4c-0.8,0.5-1,1.4-0.5,2.1c0.4,0.6,1.2,0.9,2.1,0.9
			C297.9,77.2,298.3,75.4,297.4,74.5z M295.3,76.9c-1-0.1-1.7-0.7-1.6-1.5c0-0.8,1.1-1.3,2.1-1.3c2,0,2.5,1.9,1.3,2.6
			C296.5,76.8,295.9,76.9,295.3,76.9z"/>
		<path class="st17" d="M312.2,70c0.7,0,1.5-0.3,1.9-1c0.2-0.3,0.3-0.9-0.2-1.6c-0.3-0.4-0.7-0.7-1.3-0.7c-0.7,0-1.4,0.4-1.8,1
			c-0.3,0.5-0.4,1-0.2,1.4C310.9,69.7,311.5,70,312.2,70z M311.3,67.8c0.5-0.4,1.2-0.5,1.7-0.4c0.7,0.2,0.8,1.2,0.5,1.6
			c-0.3,0.3-1.1,0.4-1.8,0.2C310.8,69,310.8,68.3,311.3,67.8z"/>
		<path class="st4" d="M294.4,107.3c-0.5,0-1.1,0.2-1.3,0.5c-0.2,0.2-0.2,0.4-0.2,0.6c0,0.4,0.4,0.6,0.9,0.6c0.4,0,1-0.2,1.3-0.5
			c0.2-0.2,0.2-0.4,0.2-0.6C295.3,107.5,294.9,107.3,294.4,107.3z M295,108.1c-0.2,0.3-0.8,0.5-1.3,0.5c-0.2,0-0.5,0-0.5-0.2
			c0-0.1,0-0.1,0.1-0.2c0.2-0.3,0.8-0.5,1.3-0.5c0.1,0,0.5,0,0.5,0.2C295.1,107.9,295.1,108,295,108.1z"/>
		<path class="st4" d="M297.5,108c-0.4,0-0.9,0.2-1.1,0.5c-0.1,0.2-0.2,0.3-0.2,0.5c0,0.3,0.3,0.6,0.8,0.6c0.4,0,0.8-0.1,1.1-0.4
			c0.1-0.2,0.2-0.3,0.2-0.5C298.3,108.3,298.1,108,297.5,108z M298.1,108.7c-0.2,0.3-0.8,0.4-1.2,0.4c-0.3,0-0.4-0.1-0.4-0.1
			c0,0,0-0.1,0.1-0.2c0.2-0.3,0.8-0.5,1.3-0.5c0.2,0,0.4,0,0.4,0.1C298.1,108.5,298.2,108.6,298.1,108.7z"/>
		<path class="st4" d="M294.3,109.6c-0.3,0-0.7,0.2-0.9,0.4c-0.1,0.1-0.2,0.3-0.2,0.5c0,0.2,0.2,0.5,0.7,0.5c0.3,0,0.7-0.1,0.9-0.4
			c0.1-0.1,0.2-0.3,0.2-0.5C294.9,109.8,294.7,109.6,294.3,109.6z M293.7,110.5c-0.6-0.1,0.5-0.7,1-0.6
			C295.2,110.1,294.1,110.6,293.7,110.5z"/>
		<path class="st17" d="M355,72.1c3.4,0.3,6.8,0.8,6.8-1.1c0-0.6-0.9-1.9-3.4-1.2c-1.3,0.4-2.8,1.3-3.9,2.2
			C354.5,72.1,354.7,72.1,355,72.1z M359.2,70.1c1.5-0.2,2.1,0.6,2.1,0.9c0,0,0,0,0,0c0,0.2-0.2,0.4-0.4,0.5
			c-0.2,0.1-0.7,0.3-1.6,0.3c-2.3,0.1-2.9,0.1-4.4,0.1C356.1,70.9,357.9,70.3,359.2,70.1z"/>
		<path class="st4" d="M285.5,99.8c0-0.1-0.9-0.2-1.7-0.7c-0.6-0.3-1-0.7-1.2-0.9c-0.2-0.1-0.2-0.2-0.1,0c0.2,0.7,1.3,1.4,2,1.6
			C285,100,285.5,99.9,285.5,99.8z"/>
		<path class="st4" d="M291.5,100.7c-1.3-0.3-2.6-0.3-3.9-0.6c-0.6-0.2-1.1-0.4-1.7-0.7c-0.4-0.2-0.5-0.3-0.5-0.2
			c0.1,0.2,0.5,0.5,0.6,0.6c0.8,0.6,1.8,0.8,2.8,0.9c0.5,0.1,1,0.1,1.5,0.1c0.2,0,0.5,0,0.7,0C291.7,100.9,291.7,100.8,291.5,100.7z
			"/>
		<path class="st4" d="M296.6,100.9c-0.2-0.2-2.2-0.4-2.4-0.4c-0.4,0-0.7,0-1.1,0c-0.2,0-0.3,0-0.5-0.1c-0.1,0-0.5-0.1-0.3,0.1
			c0.3,0.2,0.5,0.3,0.8,0.4c0.4,0,0.8,0.1,1.2,0.1c0.4,0,0.8,0,1.3,0C295.8,101,296.8,101,296.6,100.9z"/>
		<path class="st4" d="M302.3,100.7c0.3-0.1,0.7-0.1,1-0.3c0.5-0.2,0.7-0.4,0.7-0.5c0-0.2-0.7,0.2-1.6,0.4c-0.6,0.1-1.1,0-1.6-0.1
			c-1.1-0.2-1.6,0.2-2.4,0.2c-0.1,0-0.7,0-0.9,0c-0.2,0,0.4,0.4,1.2,0.3c0.5,0,1.1-0.2,1.6-0.2C301,100.5,301.7,100.9,302.3,100.7z"
			/>
		<path class="st4" d="M306.3,100.1c1-0.3,1.7-1,1.3-0.8c0,0,0,0,0,0c-0.1,0-0.2,0.1-0.2,0.1c0,0,0.2,0,0.2-0.1
			c-0.5,0.2-1,0.4-1.5,0.6c-0.4,0.1-1.1,0-1.4,0C304.3,99.8,305.1,100.4,306.3,100.1z"/>
		<path class="st4" d="M307.4,99.3C307.4,99.3,307.4,99.3,307.4,99.3L307.4,99.3z"/>
		<path class="st4" d="M310.3,99.3c0.4,0,0.7-0.1,1-0.2c0.7-0.1,1.4-0.2,1.9-0.5c0.3-0.2,0.3-0.3,0.3-0.3c0-0.1-0.6,0.2-1.3,0.4
			c-0.3,0.1-0.6,0.1-0.9,0.1c-0.8,0.1-1,0.2-1.8,0.3c-0.3,0-0.6,0-0.7,0C308.6,99.1,309.1,99.4,310.3,99.3z"/>
		<path class="st4" d="M314.5,98c0.4-0.1,1.8-0.3,1.8-0.3c0.3,0,0.5-0.1,0.7-0.2c0.1-0.1,0.2-0.1,0.3-0.2c0.2-0.1,0.3-0.2,0.1-0.2
			c-0.2,0.1-0.9,0.2-1.8,0.4c-0.2,0-0.5,0.1-0.7,0.1C314.5,97.8,314.2,98.1,314.5,98z"/>
		<path class="st4" d="M287.2,104.8c-0.2,0-1.1,0-1.5-0.1c-0.4-0.1-0.7-0.4-1.1-0.6c-0.4-0.1-0.8-0.1-1.2-0.2
			c-0.2-0.1-0.6-0.4-0.5-0.2c0,0.1,0.2,0.3,0.3,0.4c0.3,0.2,0.6,0.3,0.9,0.3c0.4,0.1,0.7,0.2,1.1,0.4c0.4,0.2,0.7,0.4,1.1,0.4
			c0.2,0,0.4,0,0.7-0.1C287,105,287.3,104.8,287.2,104.8z"/>
		<path class="st4" d="M287.9,104.9c-0.1,0-0.3-0.2-0.4-0.2c-0.1,0,0.4,0.5,0.4,0.5c0.4,0.3,0.9,0.4,1.4,0.4c0.2,0,0.5,0,0.7-0.1
			c0.1,0,0.2-0.1,0.4-0.1c0,0,0.1-0.1,0.1-0.1c0-0.1-1.8,0-2.2-0.2C288.1,105,288,104.9,287.9,104.9z"/>
		<path class="st4" d="M293,105.8c-0.5-0.1-1.5-0.4-1.8-0.4c-0.5,0,0.7,0.7,2.3,0.8c0.4,0,0.8,0,1.2-0.1c0.1,0,0.8-0.2,0.8-0.2
			C295.9,105.4,293.7,105.9,293,105.8z"/>
		<path class="st4" d="M300,105.5c-0.3,0-0.8-0.1-0.9-0.1c-0.3-0.1-0.5-0.1-0.9-0.1c-0.2,0-1.3,0.3-1.3,0.1c0-0.1-0.2,0.1-0.1,0.2
			c0.1,0.1,0.2,0.1,0.3,0.1c0.3,0,0.7,0,1-0.1c0.5-0.1,0.8,0.2,1.2,0.2c0.4,0.1,0.8-0.2,0.9-0.3C300.3,105.4,300.2,105.5,300,105.5z
			"/>
		<path class="st4" d="M302.3,105.6c0.3-0.1,0.5-0.3,0.7-0.3c0.2,0,0.4,0,0.5-0.1c0.2-0.1,0,0-0.2,0c-0.4-0.1-0.5,0-0.9,0.1
			c-0.2,0-0.5,0.1-0.6,0.1c-0.4,0-0.9-0.2-0.8-0.1C301,105.5,301.5,105.9,302.3,105.6z"/>
		<path class="st4" d="M305,105.1c0.4-0.1,0.7-0.2,1.1-0.2c0.4,0,0.7,0.2,1.1,0c0.1,0,0.2-0.1,0.3-0.2c0.1,0,0.2,0,0.3,0
			c0.1,0,0-0.2-0.8-0.1c-0.3,0-0.7-0.1-1-0.1c-0.3,0-0.6,0.2-1,0.3c-0.3,0.1-1-0.1-1,0C304.3,105.1,304.6,105.2,305,105.1z"/>
		<path class="st4" d="M316,104c0.4,0,0.7-0.1,1.1-0.2c0.2-0.1,0.3-0.2,0.4-0.3c0.1-0.1,0.2-0.1,0.2-0.2c0.1-0.1,0-0.2-0.1-0.1
			c0,0,0,0,0,0c-0.6,0.2-0.1,0,0,0c-0.6,0.2-1.2,0.5-1.9,0.6c-0.2,0-2,0.2-1.9,0.4c0,0,0.9-0.1,1-0.1C315.2,104,315.6,104,316,104z"
			/>
		<path class="st4" d="M320.8,102.5C320.7,102.5,320.7,102.5,320.8,102.5C320.7,102.5,320.8,102.5,320.8,102.5z"/>
		<path class="st4" d="M320.8,102.5C320.8,102.5,320.8,102.5,320.8,102.5C320.8,102.5,320.8,102.5,320.8,102.5z"/>
		<path class="st4" d="M320.7,102.5C320.7,102.5,320.6,102.5,320.7,102.5C320.7,102.5,320.7,102.5,320.7,102.5z"/>
		<path class="st4" d="M318.8,103.1c0.3,0,0.6,0,0.8-0.1c0.3,0,0.5-0.1,0.8-0.2c0.1,0,0.2-0.1,0.3-0.2c0,0,0.2-0.2,0.1-0.2
			c-0.5,0-0.9,0.3-1.4,0.3c-0.1,0-1.3,0.2-1.2,0.4C318.1,103.2,318.7,103.1,318.8,103.1z"/>
		<path class="st4" d="M320.7,102.5C320.7,102.5,320.7,102.5,320.7,102.5C320.7,102.5,320.7,102.5,320.7,102.5z"/>
		<path class="st4" d="M320.6,102.5C320.6,102.5,320.5,102.5,320.6,102.5L320.6,102.5z"/>
		<path class="st4" d="M322,102.1c0.4,0,0.8-0.1,1.2-0.2c0.2-0.1,0.4-0.1,0.6-0.3c0,0,0.4-0.4,0.2-0.4c-0.5,0.1-0.9,0.4-1.5,0.5
			c-0.2,0-0.5,0.1-0.7,0.2C321.4,102.2,321.8,102.2,322,102.1z"/>
		<path class="st4" d="M323.8,101.4C323.8,101.4,323.8,101.4,323.8,101.4L323.8,101.4z"/>
		<path class="st4" d="M323.8,101.4c0,0,0.1,0,0.2,0C324,101.3,323.8,101.4,323.8,101.4z"/>
	</g>
</g>
</svg>
