<svg width="100" height="37" fill="none" xmlns="http://www.w3.org/2000/svg"><rect width="100" height="36.066" rx="18.033" fill="#1F1F1F"/><path d="M40.285 25.18c-1.046 0-1.87-.096-2.47-.288-.601-.192-1.028-.54-1.28-1.046-.241-.505-.361-1.214-.361-2.128v-3.714c0-.77.108-1.37.324-1.804.217-.444.571-.757 1.064-.937.505-.193 1.172-.289 2.002-.289h.523c.457 0 .775-.072.956-.216.18-.145.27-.427.27-.848v-1.316c0-.421-.09-.704-.27-.848-.18-.144-.5-.216-.956-.216h-3.444a.936.936 0 0 1-.686-.289.936.936 0 0 1-.288-.685c0-.276.096-.505.288-.685a.936.936 0 0 1 .686-.289h3.48c.842 0 1.503.096 1.984.289.492.18.841.487 1.046.92.216.432.324 1.033.324 1.803v1.316c0 .77-.108 1.377-.324 1.821-.205.433-.553.746-1.046.938-.481.18-1.142.27-1.984.27h-.56c-.48 0-.81.085-.99.253-.181.156-.271.463-.271.92v3.606c0 .361.054.643.162.848.12.192.325.33.613.415.289.072.703.108 1.244.108.505 0 .89-.036 1.154-.108.277-.073.475-.199.596-.38.132-.191.24-.468.324-.829.06-.3.228-.516.505-.649.276-.144.571-.168.884-.072.625.192.883.62.775 1.28-.18 1.034-.601 1.768-1.262 2.2-.661.433-1.665.65-3.012.65Zm-8.691.163c-.746 0-1.335-.09-1.768-.27a1.595 1.595 0 0 1-.901-.866c-.18-.397-.27-.932-.27-1.605 0-.685.09-1.226.27-1.623.18-.397.48-.68.901-.848.433-.168 1.022-.252 1.767-.252.746 0 1.335.084 1.768.252.433.169.739.451.92.848.18.397.27.938.27 1.623 0 .673-.09 1.208-.27 1.605-.181.409-.487.697-.92.865-.433.18-1.022.27-1.767.27Zm-3.048-11.397a.846.846 0 0 1-.595-.234.846.846 0 0 1-.235-.595c0-.24.078-.44.235-.595a.814.814 0 0 1 .595-.253h5.969c.228 0 .42.084.577.253a.777.777 0 0 1 .252.595.814.814 0 0 1-.252.595.784.784 0 0 1-.577.234h-5.97Zm.902 5.121a.814.814 0 0 1-.596-.252.875.875 0 0 1 0-1.226.814.814 0 0 1 .596-.253h4.255c.24 0 .44.085.595.253a.875.875 0 0 1 0 1.226.777.777 0 0 1-.595.252h-4.255Zm0-2.56a.814.814 0 0 1-.596-.253.875.875 0 0 1 0-1.226.814.814 0 0 1 .596-.252h4.255c.24 0 .44.084.595.252a.875.875 0 0 1 0 1.226.777.777 0 0 1-.595.253h-4.255Zm0-5.085a.814.814 0 0 1-.596-.253.875.875 0 0 1 0-1.226.814.814 0 0 1 .596-.253h4.255c.24 0 .44.085.595.253a.875.875 0 0 1 0 1.226.777.777 0 0 1-.595.253h-4.255Zm2.145 12.226c.385 0 .65-.066.794-.198.144-.145.216-.427.216-.848 0-.409-.072-.68-.216-.812-.144-.144-.409-.216-.794-.216-.372 0-.63.072-.775.216-.144.133-.216.403-.216.812 0 .42.072.703.216.848.144.132.403.198.775.198Zm29.394 2.254c-.77 0-1.19-.33-1.262-.992a.943.943 0 0 1 .252-.793c.204-.217.493-.337.866-.361.456-.036.745-.102.865-.198.12-.108.18-.337.18-.686v-.252h-5.32a.796.796 0 0 1-.558-.216.796.796 0 0 1-.216-.56c0-.216.072-.396.216-.54a.763.763 0 0 1 .559-.235h5.32v-.721h-6.763a.753.753 0 0 1-.523-.217.712.712 0 0 1-.216-.523c0-.204.072-.378.216-.523a.753.753 0 0 1 .523-.216h6.763v-.703h-5.266a.863.863 0 0 1-.577-.198.706.706 0 0 1-.234-.541c0-.229.078-.41.234-.541a.82.82 0 0 1 .577-.217h5.266v-.631h-2.236c-.914 0-1.545-.132-1.894-.397-.349-.264-.523-.727-.523-1.388 0-.662.174-1.118.523-1.37.349-.265.98-.397 1.894-.397h2.236v-.614h-6.204a.763.763 0 0 1-.559-.234.796.796 0 0 1-.216-.559c0-.216.072-.403.216-.56a.764.764 0 0 1 .56-.233h6.203v-.56c0-.336.102-.6.306-.793.216-.192.475-.288.776-.288.3 0 .553.096.757.288.216.192.324.457.324.793v.56h6.168c.216 0 .396.078.54.234a.763.763 0 0 1 .235.559.763.763 0 0 1-.234.559.706.706 0 0 1-.541.234h-6.168v.614h2.182c.926 0 1.563.132 1.912.396.349.253.523.71.523 1.37 0 .662-.174 1.125-.523 1.39-.349.264-.986.396-1.912.396h-2.181v.631h2.145c.854 0 1.521.066 2.002.198.493.133.841.361 1.046.686.216.312.343.751.379 1.316h1.118c.204 0 .378.072.523.216a.712.712 0 0 1 .216.523.712.712 0 0 1-.216.523.712.712 0 0 1-.523.217h-1.118c-.037.565-.163 1.016-.38 1.352-.204.337-.546.577-1.027.722-.48.132-1.154.198-2.02.198h-2.145v.505c0 .986-.241 1.695-.722 2.128-.48.433-1.262.649-2.344.649Zm3.065-4.833h2.146c.47 0 .8-.042.992-.126.192-.096.307-.295.343-.595h-3.48v.721Zm0-2.2h3.48c-.047-.312-.167-.505-.36-.577-.18-.084-.505-.126-.974-.126h-2.145v.703Zm-4.4-4.256h2.236v-.703h-2.235c-.169 0-.289.024-.361.072-.06.048-.09.145-.09.289 0 .132.03.222.09.27.072.048.192.072.36.072Zm4.4 0h2.182c.169 0 .283-.024.343-.072.072-.048.108-.138.108-.27 0-.145-.036-.24-.108-.289-.06-.048-.174-.072-.343-.072h-2.181v.703Z" fill="#fff"/></svg>