<svg width="41" height="100" fill="none" xmlns="http://www.w3.org/2000/svg"><rect width="41" height="100" rx="20.5" fill="#1F1F1F"/><path d="M24.686 45.2c-1.16 0-2.074-.106-2.741-.32-.667-.213-1.14-.6-1.42-1.16-.267-.56-.4-1.347-.4-2.361v-4.122c0-.854.12-1.52.36-2 .24-.494.633-.841 1.18-1.041.56-.213 1.3-.32 2.22-.32h.581c.507 0 .86-.08 1.06-.24.2-.16.3-.474.3-.94v-1.461c0-.467-.1-.78-.3-.94-.2-.16-.553-.24-1.06-.24h-3.822c-.293 0-.546-.107-.76-.32a1.039 1.039 0 0 1-.32-.761c0-.307.107-.56.32-.76.213-.214.467-.32.76-.32h3.862c.934 0 1.667.106 2.2.32.548.2.935.54 1.161 1.02.24.48.36 1.147.36 2v1.461c0 .854-.12 1.528-.36 2.021-.226.48-.613.827-1.16 1.04-.534.2-1.267.3-2.201.3h-.62c-.534 0-.9.094-1.1.28-.2.174-.3.514-.3 1.021v4.002c0 .4.06.713.18.94.133.214.36.367.68.46.32.08.78.12 1.38.12.56 0 .987-.04 1.28-.12.307-.08.527-.22.66-.42.148-.213.268-.52.361-.92a.97.97 0 0 1 .56-.72c.307-.16.634-.187.98-.08.694.213.981.687.861 1.42-.2 1.147-.667 1.961-1.4 2.441-.734.48-1.848.72-3.342.72Zm-9.644.18c-.827 0-1.48-.1-1.96-.3a1.77 1.77 0 0 1-1.001-.96c-.2-.44-.3-1.034-.3-1.78 0-.761.1-1.361.3-1.801.2-.44.533-.754 1-.94.48-.188 1.134-.28 1.961-.28.827 0 1.48.092 1.96.28.481.186.821.5 1.021.94.2.44.3 1.04.3 1.8 0 .747-.1 1.34-.3 1.781-.2.454-.54.774-1.02.96-.48.2-1.134.3-1.96.3Zm-3.381-12.645a.938.938 0 0 1-.66-.26.938.938 0 0 1-.26-.66c0-.267.086-.487.26-.66a.903.903 0 0 1 .66-.28h6.622a.84.84 0 0 1 .64.28c.187.173.28.393.28.66a.903.903 0 0 1-.28.66.87.87 0 0 1-.64.26h-6.622Zm1 5.683a.904.904 0 0 1-.66-.28.97.97 0 0 1-.28-.68c0-.267.093-.494.28-.681a.904.904 0 0 1 .66-.28h4.722c.267 0 .487.093.66.28.187.187.28.413.28.68a.97.97 0 0 1-.28.68.862.862 0 0 1-.66.28h-4.722Zm0-2.841a.904.904 0 0 1-.66-.28.97.97 0 0 1-.28-.68c0-.268.093-.494.28-.681a.904.904 0 0 1 .66-.28h4.722c.267 0 .487.093.66.28.187.187.28.413.28.68a.97.97 0 0 1-.28.68.862.862 0 0 1-.66.28h-4.722Zm0-5.643a.904.904 0 0 1-.66-.28.97.97 0 0 1-.28-.68c0-.267.093-.494.28-.68a.904.904 0 0 1 .66-.28h4.722c.267 0 .487.093.66.28.187.186.28.413.28.68a.97.97 0 0 1-.28.68.862.862 0 0 1-.66.28h-4.722ZM15.042 43.5c.427 0 .72-.074.88-.22.16-.16.24-.474.24-.94 0-.454-.08-.754-.24-.901-.16-.16-.453-.24-.88-.24-.413 0-.7.08-.86.24-.16.147-.24.447-.24.9 0 .467.08.78.24.94.16.147.447.22.86.22ZM17.843 76c-.853 0-1.32-.366-1.4-1.1-.04-.346.053-.64.28-.88.227-.24.547-.373.96-.4.507-.04.827-.114.96-.22.134-.12.2-.374.2-.76v-.28h-5.902a.883.883 0 0 1-.62-.24.883.883 0 0 1-.24-.621c0-.24.08-.44.24-.6a.847.847 0 0 1 .62-.26h5.903v-.8H11.34a.836.836 0 0 1-.58-.24.79.79 0 0 1-.24-.581c0-.227.08-.42.24-.58a.835.835 0 0 1 .58-.24h7.503v-.78H13a.957.957 0 0 1-.64-.22.783.783 0 0 1-.26-.601c0-.253.087-.454.26-.6a.909.909 0 0 1 .64-.24h5.843v-.7h-2.481c-1.014 0-1.714-.147-2.101-.44-.387-.294-.58-.808-.58-1.542 0-.733.193-1.24.58-1.52.387-.294 1.087-.44 2.1-.44h2.482v-.68H11.96a.847.847 0 0 1-.62-.26.883.883 0 0 1-.24-.621c0-.24.08-.447.24-.62a.847.847 0 0 1 .62-.26h6.883v-.62c0-.374.113-.668.34-.881.24-.213.527-.32.86-.32.334 0 .614.107.84.32.24.213.36.507.36.88v.62h6.843c.24 0 .44.087.6.26.174.174.26.38.26.621 0 .24-.086.447-.26.62a.783.783 0 0 1-.6.26h-6.842v.68h2.42c1.028 0 1.735.147 2.122.44.386.281.58.788.58 1.521 0 .734-.194 1.248-.58 1.541-.387.294-1.094.44-2.121.44h-2.421v.7h2.38c.948 0 1.688.074 2.222.22.546.147.933.4 1.16.761.24.347.38.834.42 1.46h1.24c.227 0 .42.08.581.24.16.16.24.354.24.58a.79.79 0 0 1-.24.581.79.79 0 0 1-.58.24h-1.24c-.04.627-.18 1.127-.421 1.5-.227.374-.607.641-1.14.801-.534.147-1.281.22-2.241.22h-2.381v.56c0 1.094-.267 1.881-.8 2.362-.534.48-1.401.72-2.602.72Zm3.402-5.361h2.38c.52 0 .888-.047 1.101-.14.213-.107.34-.327.38-.66h-3.861v.8Zm0-2.441h3.861c-.053-.347-.187-.56-.4-.64-.2-.094-.56-.14-1.08-.14h-2.381v.78Zm-4.882-4.722h2.48v-.78h-2.48c-.187 0-.32.026-.4.08-.067.053-.1.16-.1.32 0 .146.033.246.1.3.08.053.213.08.4.08Zm4.882 0h2.42c.187 0 .314-.027.38-.08.08-.054.12-.154.12-.3 0-.16-.04-.267-.12-.32-.066-.054-.193-.08-.38-.08h-2.42v.78Z" fill="#fff"/></svg>