<svg width="360" height="111" viewBox="0 0 360 111" fill="none" xmlns="http://www.w3.org/2000/svg">
<g clip-path="url(#clip0_7_161)">
<path d="M141.522 77.7139C143.072 77.7277 144.955 76.6316 145.717 75.2857L147.046 72.9547C147.808 71.6089 149.331 71.4146 150.411 72.5107L152.294 74.4255C153.374 75.5216 155.492 76.0905 156.974 75.6881L159.563 74.9805C161.058 74.5781 162.263 75.5077 162.249 77.0479L162.235 79.7396C162.222 81.2936 163.315 83.1806 164.658 83.9437L166.985 85.2757C168.328 86.0389 168.522 87.5651 167.428 88.6474L165.517 90.5344C164.423 91.6166 163.855 93.7395 164.257 95.2241L164.963 97.8187C165.365 99.3172 164.437 100.524 162.9 100.51L160.214 100.497C158.663 100.483 156.78 101.579 156.018 102.925L154.689 105.256C153.928 106.602 152.405 106.796 151.325 105.7L149.442 103.785C148.362 102.689 146.243 102.12 144.762 102.522L142.172 103.23C140.677 103.632 139.472 102.703 139.486 101.163L139.5 98.4709C139.514 96.9169 138.42 95.0299 137.077 94.2667L134.751 92.9347C133.408 92.1716 133.214 90.6454 134.308 89.5631L136.218 87.6761C137.312 86.5939 137.88 84.471 137.478 82.9864L136.772 80.3917C136.371 78.8932 137.298 77.6861 138.835 77.7L141.522 77.7139Z" stroke="black" stroke-width="3" stroke-miterlimit="10" stroke-linecap="round"/>
<path d="M145.758 85.5948C145.758 85.5948 145.758 84.693 145.745 83.583C145.731 82.473 146.603 81.807 147.655 82.1122C148.722 82.4036 149.58 82.6395 149.58 82.6395" stroke="black" stroke-width="3" stroke-miterlimit="10" stroke-linecap="round"/>
<path d="M150.66 95.682C150.66 95.682 149.885 96.1399 148.943 96.6949C148.002 97.2499 146.991 96.8336 146.714 95.7652C146.437 94.6969 146.202 93.8228 146.202 93.8228" stroke="black" stroke-width="3" stroke-miterlimit="10" stroke-linecap="round"/>
<path d="M156.877 86.3997C156.877 86.3997 157.652 86.8437 158.608 87.3987C159.563 87.9537 159.702 89.0359 158.926 89.8129C158.151 90.5899 157.5 91.2282 157.5 91.2282" stroke="black" stroke-width="3" stroke-miterlimit="10" stroke-linecap="round"/>
<path d="M165.586 44.5804C166.929 43.8173 168.023 41.9164 168.009 40.3763L167.995 37.6845C167.982 36.1305 169.2 35.2009 170.682 35.6172L173.271 36.3248C174.766 36.7272 176.871 36.1722 177.951 35.0622L179.834 33.1474C180.914 32.0513 182.437 32.2455 183.198 33.5914L184.528 35.9224C185.289 37.2683 187.186 38.3644 188.723 38.3505L191.409 38.3367C192.96 38.3228 193.888 39.5438 193.472 41.0284L192.766 43.623C192.365 45.1215 192.918 47.2305 194.026 48.3128L195.937 50.1998C197.031 51.282 196.837 52.8083 195.494 53.5714L193.168 54.9034C191.825 55.6665 190.731 57.5674 190.745 59.1075L190.758 61.7993C190.772 63.3533 189.554 64.2829 188.072 63.8667L185.483 63.159C183.988 62.7567 181.883 63.3117 180.803 64.4217L178.92 66.3364C177.84 67.4325 176.317 67.2383 175.555 65.8924L174.226 63.5614C173.465 62.2155 171.568 61.1194 170.031 61.1333L167.345 61.1472C165.794 61.161 164.866 59.94 165.282 58.4554L165.988 55.8608C166.389 54.3623 165.835 52.2533 164.728 51.171L162.817 49.284C161.723 48.2018 161.917 46.6755 163.26 45.9124L165.586 44.5804Z" stroke="black" stroke-width="3" stroke-miterlimit="10" stroke-linecap="round"/>
<path d="M173.188 49.284C173.188 49.284 172.731 48.507 172.177 47.5497C171.623 46.5923 172.038 45.5933 173.091 45.3158C174.143 45.0383 175.029 44.8163 175.029 44.8163" stroke="black" stroke-width="3" stroke-miterlimit="10" stroke-linecap="round"/>
<path d="M182.465 55.5555C182.465 55.5555 182.022 56.3325 181.482 57.2899C180.942 58.2473 179.862 58.386 179.086 57.5952C178.311 56.8043 177.674 56.166 177.674 56.166" stroke="black" stroke-width="3" stroke-miterlimit="10" stroke-linecap="round"/>
<path d="M183.212 44.4C183.212 44.4 184.112 44.4 185.22 44.4C186.328 44.4 186.992 45.2603 186.702 46.3286C186.411 47.397 186.175 48.2573 186.175 48.2573" stroke="black" stroke-width="3" stroke-miterlimit="10" stroke-linecap="round"/>
<path d="M193.348 91.5334C194.123 90.2014 194.123 88.0091 193.348 86.6771L191.991 84.36C191.215 83.028 191.797 81.6128 193.292 81.2243L195.882 80.5444C197.377 80.1559 198.914 78.6019 199.315 77.1034L199.994 74.5088C200.382 73.0103 201.794 72.4275 203.123 73.2045L205.435 74.5643C206.765 75.3413 208.952 75.3413 210.282 74.5643L212.594 73.2045C213.923 72.4275 215.335 73.0103 215.723 74.5088L216.402 77.1034C216.789 78.6019 218.34 80.142 219.835 80.5444L222.425 81.2243C223.92 81.6128 224.502 83.028 223.726 84.36L222.369 86.6771C221.594 88.0091 221.594 90.2014 222.369 91.5334L223.726 93.8505C224.502 95.1825 223.92 96.5978 222.425 96.9863L219.835 97.6661C218.34 98.0546 216.803 99.6086 216.402 101.093L215.723 103.688C215.335 105.186 213.923 105.769 212.594 104.992L210.282 103.632C208.952 102.855 206.765 102.855 205.435 103.632L203.123 104.992C201.794 105.769 200.382 105.186 199.994 103.688L199.315 101.093C198.928 99.5948 197.377 98.0546 195.882 97.6661L193.292 96.9863C191.797 96.5978 191.215 95.1825 191.991 93.8505L193.348 91.5334Z" stroke="black" stroke-width="3" stroke-miterlimit="10" stroke-linecap="round"/>
<path d="M202.278 91.797C202.278 91.797 201.489 91.353 200.534 90.798C199.578 90.2568 199.426 89.1746 200.215 88.3976C201.005 87.6206 201.642 86.9962 201.642 86.9962" stroke="black" stroke-width="3" stroke-miterlimit="10" stroke-linecap="round"/>
<path d="M213.438 92.5879C213.438 92.5879 213.438 93.4898 213.452 94.5859C213.466 95.682 212.594 96.348 211.528 96.0566C210.462 95.7653 209.589 95.5294 209.589 95.5294" stroke="black" stroke-width="3" stroke-miterlimit="10" stroke-linecap="round"/>
<path d="M208.523 82.5423C208.523 82.5423 209.298 82.0844 210.254 81.5294C211.209 80.9744 212.22 81.3907 212.497 82.4591C212.774 83.5275 213.009 84.4016 213.009 84.4016" stroke="black" stroke-width="3" stroke-miterlimit="10" stroke-linecap="round"/>
<path d="M171 5.99402L171.526 12.0435" stroke="black" stroke-width="4" stroke-miterlimit="10" stroke-linecap="round"/>
<path d="M155.52 8.72742L157.098 14.5965" stroke="black" stroke-width="4" stroke-miterlimit="10" stroke-linecap="round"/>
<path d="M140.76 14.1109L143.322 19.6193" stroke="black" stroke-width="4" stroke-miterlimit="10" stroke-linecap="round"/>
<path d="M127.163 21.9919L130.638 26.9591" stroke="black" stroke-width="4" stroke-miterlimit="10" stroke-linecap="round"/>
<path d="M115.131 32.1068L119.409 36.3941" stroke="black" stroke-width="4" stroke-miterlimit="10" stroke-linecap="round"/>
<path d="M105.037 44.1641L109.994 47.6467" stroke="black" stroke-width="4" stroke-miterlimit="10" stroke-linecap="round"/>
<path d="M97.1862 57.7894L102.669 60.3562" stroke="black" stroke-width="4" stroke-miterlimit="10" stroke-linecap="round"/>
<path d="M91.8138 72.5802L97.6569 74.1481" stroke="black" stroke-width="4" stroke-miterlimit="10" stroke-linecap="round"/>
<path d="M89.0862 88.0785L95.1092 88.6196" stroke="black" stroke-width="4" stroke-miterlimit="10" stroke-linecap="round"/>
<path d="M186.702 5.99402L186.175 12.0435" stroke="black" stroke-width="4" stroke-miterlimit="10" stroke-linecap="round"/>
<path d="M202.168 8.72742L200.603 14.5965" stroke="black" stroke-width="4" stroke-miterlimit="10" stroke-linecap="round"/>
<path d="M216.928 14.1109L214.366 19.6193" stroke="black" stroke-width="4" stroke-miterlimit="10" stroke-linecap="round"/>
<path d="M230.538 21.9919L227.063 26.9591" stroke="black" stroke-width="4" stroke-miterlimit="10" stroke-linecap="round"/>
<path d="M242.571 32.1068L238.278 36.3941" stroke="black" stroke-width="4" stroke-miterlimit="10" stroke-linecap="round"/>
<path d="M252.665 44.1641L247.708 47.6467" stroke="black" stroke-width="4" stroke-miterlimit="10" stroke-linecap="round"/>
<path d="M260.515 57.7894L255.032 60.3562" stroke="black" stroke-width="4" stroke-miterlimit="10" stroke-linecap="round"/>
<path d="M265.888 72.5802L260.045 74.1481" stroke="black" stroke-width="4" stroke-miterlimit="10" stroke-linecap="round"/>
<path d="M268.615 88.0785L262.578 88.6196" stroke="black" stroke-width="4" stroke-miterlimit="10" stroke-linecap="round"/>
</g>
<defs>
<clipPath id="clip0_7_161">
<rect width="360" height="111" fill="white"/>
</clipPath>
</defs>
</svg>
