<?xml version="1.0" encoding="utf-8"?>
<!-- Generator: Adobe Illustrator 27.2.0, SVG Export Plug-In . SVG Version: 6.00 Build 0)  -->
<svg version="1.1" id="Icons" xmlns="http://www.w3.org/2000/svg" xmlns:xlink="http://www.w3.org/1999/xlink" x="0px" y="0px"
	 viewBox="0 0 512 512" style="enable-background:new 0 0 512 512;" xml:space="preserve">
<style type="text/css">
	.st0{fill:url(#SVGID_1_);}
	.st1{fill:#664B1F;}
	.st2{filter:url(#Adobe_OpacityMaskFilter);}
	.st3{opacity:0.75;mask:url(#SVGID_00000091707831777392984860000017224820487583416494_);}
	.st4{fill:#D299AF;}
	.st5{fill:#646464;}
	.st6{fill:url(#SVGID_00000104676792750818178370000015205430851188162220_);}
	.st7{fill:url(#SVGID_00000170274039011247533710000000368288724228654218_);}
	.st8{fill:url(#SVGID_00000078025077171788298990000011302914888137881472_);}
	.st9{fill:url(#SVGID_00000030485328334608149190000001683488836163615166_);}
	.st10{fill:url(#SVGID_00000150099514394292287500000004410338144004551086_);}
	.st11{fill:url(#SVGID_00000071544150336817125860000011298120807672399529_);}
	.st12{fill:url(#SVGID_00000005248258990063397160000002473293569543447198_);}
	.st13{fill:url(#SVGID_00000057132354662263420780000005906276313724639671_);}
	.st14{fill:url(#SVGID_00000127033819846720831770000001361271186306465430_);}
	.st15{fill:url(#SVGID_00000061468531509747276220000004248044820081826237_);}
	.st16{fill:url(#SVGID_00000024694348932148843500000008309129869227779466_);}
	.st17{fill:url(#SVGID_00000029040963975188729970000008095681370074031755_);}
</style>
<g>
	
		<image style="overflow:visible;opacity:0.75;" width="513" height="480" xlink:href="FFC33B0E7CC728CE.png"  transform="matrix(1 0 0 1 10.8888 16.8888)">
	</image>
	<g>
		<linearGradient id="SVGID_1_" gradientUnits="userSpaceOnUse" x1="251.0054" y1="446.6973" x2="251.0054" y2="34.4769">
			<stop  offset="0" style="stop-color:#EBC3BD"/>
			<stop  offset="0.2186" style="stop-color:#E6BDB8"/>
			<stop  offset="0.5243" style="stop-color:#D6AAA9"/>
			<stop  offset="0.8799" style="stop-color:#BD8D91"/>
			<stop  offset="1" style="stop-color:#B38187"/>
		</linearGradient>
		<path class="st0" d="M221.3,432.5c9.8,5.7,17.8,9.7,27.4,13.5l0.2,0.1l0.1,0.1c0.8,0.4,1.6,0.6,2.3,0.6c0.6,0,1.2-0.1,1.7-0.3
			c10.2-4.1,18.5-8.3,28.6-14.3l0.2-0.1l0.4-0.2c23.6-15,47.4-32.8,68.7-51.5c24.7-21.5,46.3-44.2,64.2-67.4
			c20.4-26.2,35.7-52.7,45.4-78.7c11-29.4,15.1-58.2,12.2-85.5l0-0.2c-3.5-32.5-18.6-62.1-42.7-83.2c-11.3-9.9-24.1-17.6-37.9-22.9
			c-13.8-5.3-27.9-8-42.1-8l-0.4,0c-21.2,0.1-41.5,6.2-58.6,17.8c-14.6,9.8-26.7,23.2-36.1,39.8l-4,7.1l-4-7.1
			c-9.5-16.5-21.6-29.8-36.2-39.6C193.7,41,173.5,35,152.4,35H152c-14.4,0-28.7,2.8-42.6,8.2c-14,5.5-26.7,13.3-37.7,23.1
			c-24.1,21.2-39.2,50.9-42.5,83.6c-2.9,27.6,1.3,56.4,12.4,85.5c9.8,25.9,25.1,52.2,45.5,78.4c18.2,23.2,39.9,45.8,64.5,67.1
			c21.5,18.7,45.5,36.5,69.3,51.4l0.2,0.1L221.3,432.5z"/>
	</g>
</g>
<g>
	<g>
		<g>
			<path class="st1" d="M221.8,431.5c9.8,5.7,17.8,9.7,27.4,13.5l0.2,0.1l0.1,0.1c0.8,0.4,1.6,0.6,2.3,0.6c0.6,0,1.2-0.1,1.7-0.3
				c10.2-4.1,18.5-8.3,28.6-14.3l0.2-0.1l0.4-0.2c23.6-15,47.4-32.8,68.7-51.5c24.7-21.5,46.3-44.2,64.2-67.4
				c20.4-26.2,35.7-52.7,45.4-78.7c11-29.4,15.1-58.2,12.2-85.5l0-0.2c-3.5-32.5-18.6-62.1-42.7-83.2c-11.3-9.9-24.1-17.6-37.9-22.9
				c-13.8-5.3-27.9-8-42.1-8l-0.4,0c-21.2,0.1-41.5,6.2-58.6,17.8C277,61.1,264.8,74.5,255.4,91l-4,7.1l-4-7.1
				c-9.5-16.5-21.6-29.8-36.2-39.6C194.1,40,174,34,152.8,34h-0.3c-14.4,0-28.7,2.8-42.6,8.2c-14,5.5-26.7,13.3-37.7,23.1
				C48.1,86.5,33,116.2,29.7,148.9c-2.9,27.6,1.3,56.4,12.4,85.5c9.8,25.9,25.1,52.2,45.5,78.4c18.2,23.2,39.9,45.8,64.5,67.1
				c21.5,18.7,45.5,36.5,69.3,51.4l0.2,0.1L221.8,431.5z"/>
		</g>
		<defs>
			<filter id="Adobe_OpacityMaskFilter" filterUnits="userSpaceOnUse" x="28.8" y="33.5" width="445.4" height="412.2">
				
					<feColorMatrix  type="matrix" values="-1 0 0 0 1  0 -1 0 0 1  0 0 -1 0 1  0 0 0 1 0" color-interpolation-filters="sRGB" result="source"/>
			</filter>
		</defs>
		
			<mask maskUnits="userSpaceOnUse" x="28.8" y="33.5" width="445.4" height="412.2" id="SVGID_00000098902955934331488040000010547985084360173739_">
			<g class="st2">
				
					<image style="overflow:visible;" width="451" height="417" xlink:href="FFC33B0E7CC728CA.jpg"  transform="matrix(1 0 0 1 26 31)">
				</image>
			</g>
		</mask>
		<g style="opacity:0.75;mask:url(#SVGID_00000098902955934331488040000010547985084360173739_);">
			<path class="st4" d="M221.8,431.5c9.8,5.7,17.8,9.7,27.4,13.5l0.2,0.1l0.1,0.1c0.8,0.4,1.6,0.6,2.3,0.6c0.6,0,1.2-0.1,1.7-0.3
				c10.2-4.1,18.5-8.3,28.6-14.3l0.2-0.1l0.4-0.2c23.6-15,47.4-32.8,68.7-51.5c24.7-21.5,46.3-44.2,64.2-67.4
				c20.4-26.2,35.7-52.7,45.4-78.7c11-29.4,15.1-58.2,12.2-85.5l0-0.2c-3.5-32.5-18.6-62.1-42.7-83.2c-11.3-9.9-24.1-17.6-37.9-22.9
				c-13.8-5.3-27.9-8-42.1-8l-0.4,0c-21.2,0.1-41.5,6.2-58.6,17.8C277,61.1,264.8,74.5,255.4,91l-4,7.1l-4-7.1
				c-9.5-16.5-21.6-29.8-36.2-39.6C194.1,40,174,34,152.8,34h-0.3c-14.4,0-28.7,2.8-42.6,8.2c-14,5.5-26.7,13.3-37.7,23.1
				C48.1,86.5,33,116.2,29.7,148.9c-2.9,27.6,1.3,56.4,12.4,85.5c9.8,25.9,25.1,52.2,45.5,78.4c18.2,23.2,39.9,45.8,64.5,67.1
				c21.5,18.7,45.5,36.5,69.3,51.4l0.2,0.1L221.8,431.5z"/>
		</g>
	</g>
	<g>
		<g>
			<path class="st5" d="M251,450.7c-1.7,0-3.4-0.4-4.9-1.2c-9.9-3.9-18.2-8-28.5-14.1l-0.3-0.3c-23.9-14.9-48.1-32.9-69.9-51.8
				c-24.9-21.5-46.9-44.4-65.3-67.9c-20.8-26.6-36.4-53.5-46.4-79.9c-11.4-30-15.7-59.7-12.7-88.2c3.5-34.2,19.3-65.2,44.5-87.4
				C79,49.8,92.3,41.6,107,35.9c14.6-5.7,29.6-8.6,44.7-8.6c22.4,0,43.8,6.3,61.9,18.5c14.8,9.9,27.2,23.2,37,39.7
				c9.7-16.5,22.1-29.9,36.8-39.9c18.1-12.2,39.5-18.7,61.9-18.8c15.1,0,30.1,2.8,44.6,8.3c14.5,5.6,27.8,13.6,39.7,23.9
				c25.3,22.1,41.1,53.1,44.7,87.1v0c3,28.2-1.2,57.9-12.5,88.2c-9.9,26.6-25.5,53.5-46.3,80.2c-18.1,23.5-40,46.4-65,68.2
				c-21.6,19-45.8,37-69.8,52.3l-0.4,0.2c-10.3,6.2-18.9,10.4-29.5,14.7C253.6,450.5,252.3,450.7,251,450.7
				C251,450.7,251,450.7,251,450.7z M152,29.8c-0.1,0-0.2,0-0.3,0c-14.8,0-29.5,2.9-43.8,8.4c-14.4,5.7-27.4,13.7-38.8,23.7
				c-24.7,21.7-40.2,52.2-43.7,85.7c-2.9,28.1,1.3,57.4,12.6,87.1c9.9,26.2,25.4,52.8,46,79.3c18.3,23.4,40.1,46.1,65,67.5
				c21.7,18.8,45.8,36.7,69.7,51.7l0.3,0.2c10,5.8,18.1,9.9,28.1,13.8c1.3,0.7,2.6,1,3.9,1c0,0,0,0,0,0c0.9,0,2-0.2,2.9-0.5
				c10.5-4.2,18.9-8.4,29.2-14.5l0.5-0.2c23.8-15.1,47.8-33.1,69.3-52c24.9-21.7,46.7-44.5,64.7-67.9c20.6-26.5,36.1-53.3,45.9-79.6
				c11.2-29.9,15.4-59.2,12.4-87.1v0c-3.5-33.5-19.1-63.8-43.9-85.5c-11.6-10.1-24.7-18-38.9-23.5c-14.2-5.5-28.9-8.2-43.7-8.2
				c-21.9,0.1-42.8,6.4-60.5,18.4c-15,10.1-27.5,23.9-37.1,40.9l-1.1,1.9l-1.1-1.9c-9.7-17-22.3-30.7-37.3-40.7
				C194.6,36,173.8,29.8,152,29.8z"/>
		</g>
		<g>
			<g>
				
					<linearGradient id="SVGID_00000127734408679364953020000006709980116742634931_" gradientUnits="userSpaceOnUse" x1="250.3345" y1="453.8116" x2="250.3345" y2="23.0785" gradientTransform="matrix(1 0 0 1 2 2)">
					<stop  offset="0" style="stop-color:#AB7267"/>
					<stop  offset="7.272730e-02" style="stop-color:#7B6159"/>
					<stop  offset="0.1273" style="stop-color:#C67C61"/>
					<stop  offset="0.1879" style="stop-color:#C7806A"/>
					<stop  offset="0.2545" style="stop-color:#875F58"/>
					<stop  offset="0.3515" style="stop-color:#875F58"/>
					<stop  offset="0.4242" style="stop-color:#DA8874"/>
					<stop  offset="0.5091" style="stop-color:#7E5C58"/>
					<stop  offset="0.5939" style="stop-color:#C17C69"/>
					<stop  offset="0.6303" style="stop-color:#C57E6A"/>
					<stop  offset="0.7273" style="stop-color:#82635F"/>
					<stop  offset="0.8182" style="stop-color:#9D675C"/>
					<stop  offset="0.903" style="stop-color:#DA846A"/>
					<stop  offset="0.9455" style="stop-color:#F19769"/>
					<stop  offset="0.9609" style="stop-color:#E08D66"/>
					<stop  offset="0.9913" style="stop-color:#B5725E"/>
					<stop  offset="1" style="stop-color:#A8695C"/>
				</linearGradient>
				<path style="fill:url(#SVGID_00000127734408679364953020000006709980116742634931_);" d="M252.7,455.8c-2.2,0-4.3-0.5-6.3-1.5
					c-10.1-4-18.4-8.1-28.8-14.3l-0.2-0.1l-0.4-0.3c-24-15-48.3-33-70.1-52C121.8,366,99.7,343,81.1,319.3
					c-21-26.9-36.8-54.1-46.9-80.8c-11.6-30.5-16-60.7-12.9-89.7c3.6-35,19.8-66.8,45.6-89.5c11.8-10.5,25.5-18.9,40.5-24.8
					c15-5.8,30.4-8.8,45.9-8.8c23.2,0,45.3,6.6,63.8,19c13.7,9.2,25.5,21.3,35.1,36c9.5-14.8,21.2-26.9,35-36.2
					c18.6-12.6,40.7-19.3,63.8-19.4h0.2c15.5,0,30.9,2.9,45.7,8.6c14.9,5.7,28.6,14,40.7,24.6c25.9,22.7,42.2,54.4,45.9,89.3l0,0
					c3.1,28.8-1.2,59-12.7,89.8c-10.1,26.9-25.8,54.2-46.8,81.1c-18.3,23.7-40.3,46.8-65.5,68.7c-21.7,19.1-46,37.3-70.2,52.6
					l-0.2,0.1l-0.4,0.2c-10.4,6.2-19.1,10.5-29.8,14.8C256.1,455.5,254.4,455.8,252.7,455.8L252.7,455.8z M222.7,432.3
					c9.8,5.7,17.8,9.7,27.4,13.5l0.2,0.1l0.1,0.1c0.8,0.4,1.6,0.6,2.3,0.6c0.6,0,1.2-0.1,1.7-0.3c10.2-4.1,18.5-8.3,28.6-14.3
					l0.2-0.1l0.4-0.2c23.6-15,47.4-32.8,68.7-51.5c24.7-21.5,46.3-44.2,64.2-67.4C437,286.5,452.2,260,462,234
					c11-29.4,15.1-58.2,12.2-85.5l0-0.2c-3.5-32.5-18.6-62.1-42.7-83.2c-11.3-9.9-24.1-17.6-37.9-22.9c-13.8-5.3-27.9-8-42.1-8
					l-0.4,0c-21.2,0.1-41.5,6.2-58.6,17.8c-14.6,9.8-26.7,23.2-36.1,39.8l-4,7.1l-4-7.1c-9.5-16.5-21.6-29.8-36.2-39.6
					c-17-11.4-37.2-17.5-58.3-17.5h-0.3c-14.4,0-28.7,2.8-42.6,8.2c-14,5.5-26.7,13.3-37.7,23.1C49,87.3,33.9,117,30.5,149.7
					c-2.9,27.6,1.3,56.4,12.4,85.5c9.8,25.9,25.1,52.2,45.5,78.4c18.2,23.2,39.9,45.8,64.5,67.1c21.5,18.7,45.5,36.5,69.3,51.4
					l0.2,0.1L222.7,432.3z"/>
			</g>
			<g>
				
					<linearGradient id="SVGID_00000083050087716821685980000002011665066117518238_" gradientUnits="userSpaceOnUse" x1="250.4892" y1="453.9664" x2="250.4892" y2="23.2331" gradientTransform="matrix(1 0 0 1 1 1)">
					<stop  offset="0" style="stop-color:#AB7267"/>
					<stop  offset="7.272730e-02" style="stop-color:#7B6159"/>
					<stop  offset="0.1273" style="stop-color:#C67C61"/>
					<stop  offset="0.1879" style="stop-color:#C7806A"/>
					<stop  offset="0.2545" style="stop-color:#875F58"/>
					<stop  offset="0.3515" style="stop-color:#875F58"/>
					<stop  offset="0.4242" style="stop-color:#DA8874"/>
					<stop  offset="0.5091" style="stop-color:#7E5C58"/>
					<stop  offset="0.5939" style="stop-color:#C17C69"/>
					<stop  offset="0.6303" style="stop-color:#C57E6A"/>
					<stop  offset="0.7273" style="stop-color:#82635F"/>
					<stop  offset="0.8182" style="stop-color:#9D675C"/>
					<stop  offset="0.903" style="stop-color:#DA846A"/>
					<stop  offset="0.9455" style="stop-color:#F19769"/>
					<stop  offset="0.9609" style="stop-color:#E08D66"/>
					<stop  offset="0.9913" style="stop-color:#B5725E"/>
					<stop  offset="1" style="stop-color:#A8695C"/>
				</linearGradient>
				<path style="fill:url(#SVGID_00000083050087716821685980000002011665066117518238_);" d="M251.9,455c-2.2,0-4.3-0.5-6.3-1.5
					c-10.1-4-18.4-8.1-28.8-14.3l-0.2-0.1l-0.4-0.3c-24-15-48.3-33-70.1-52c-25.1-21.7-47.2-44.7-65.8-68.4
					c-21-26.9-36.8-54.1-46.9-80.8c-11.6-30.5-16-60.7-12.9-89.7c3.6-35,19.8-66.8,45.6-89.5c11.8-10.5,25.5-18.9,40.5-24.8
					c15-5.8,30.4-8.8,45.9-8.8c23.2,0,45.3,6.6,63.8,19c13.7,9.2,25.5,21.3,35.1,36c9.5-14.8,21.2-26.9,35-36.2
					C305,31,327,24.3,350.1,24.2h0.2c15.5,0,30.9,2.9,45.7,8.6c14.9,5.7,28.6,14,40.7,24.6c25.9,22.7,42.2,54.4,45.9,89.3l0,0
					c3.1,28.8-1.2,59-12.7,89.8c-10.1,26.9-25.8,54.2-46.8,81.1c-18.3,23.7-40.3,46.8-65.5,68.7c-21.7,19.1-46,37.3-70.2,52.6
					l-0.2,0.1l-0.4,0.2c-10.4,6.2-19.1,10.5-29.8,14.8C255.3,454.6,253.5,455,251.9,455L251.9,455z M221.8,431.5
					c9.8,5.7,17.8,9.7,27.4,13.5l0.2,0.1l0.1,0.1c0.8,0.4,1.6,0.6,2.3,0.6c0.6,0,1.2-0.1,1.7-0.3c10.2-4.1,18.5-8.3,28.6-14.3
					l0.2-0.1l0.4-0.2c23.6-15,47.4-32.8,68.7-51.5c24.7-21.5,46.3-44.2,64.2-67.4c20.4-26.2,35.7-52.7,45.4-78.7
					c11-29.4,15.1-58.2,12.2-85.5l0-0.2c-3.5-32.5-18.6-62.1-42.7-83.2c-11.3-9.9-24.1-17.6-37.9-22.9c-13.8-5.3-27.9-8-42.1-8
					l-0.4,0c-21.2,0.1-41.5,6.2-58.6,17.8C277,61.1,264.8,74.5,255.4,91l-4,7.1l-4-7.1c-9.5-16.5-21.6-29.8-36.2-39.6
					C194.1,40,174,34,152.8,34h-0.3c-14.4,0-28.7,2.8-42.6,8.2c-14,5.5-26.7,13.3-37.7,23.1C48.1,86.5,33,116.2,29.7,148.9
					c-2.9,27.6,1.3,56.4,12.4,85.5c9.8,25.9,25.1,52.2,45.5,78.4c18.2,23.2,39.9,45.8,64.5,67.1c21.5,18.7,45.5,36.5,69.3,51.4
					l0.2,0.1L221.8,431.5z"/>
			</g>
			<g>
				
					<linearGradient id="SVGID_00000052074241610293817970000004294417469806991519_" gradientUnits="userSpaceOnUse" x1="250.6438" y1="454.1209" x2="250.6438" y2="23.3878">
					<stop  offset="0" style="stop-color:#AB7267"/>
					<stop  offset="7.272730e-02" style="stop-color:#7B6159"/>
					<stop  offset="0.1273" style="stop-color:#C67C61"/>
					<stop  offset="0.1879" style="stop-color:#C7806A"/>
					<stop  offset="0.2545" style="stop-color:#875F58"/>
					<stop  offset="0.3515" style="stop-color:#875F58"/>
					<stop  offset="0.4242" style="stop-color:#DA8874"/>
					<stop  offset="0.5091" style="stop-color:#7E5C58"/>
					<stop  offset="0.5939" style="stop-color:#C17C69"/>
					<stop  offset="0.6303" style="stop-color:#C57E6A"/>
					<stop  offset="0.7273" style="stop-color:#82635F"/>
					<stop  offset="0.8182" style="stop-color:#9D675C"/>
					<stop  offset="0.903" style="stop-color:#DA846A"/>
					<stop  offset="0.9455" style="stop-color:#F19769"/>
					<stop  offset="0.9609" style="stop-color:#E08D66"/>
					<stop  offset="0.9913" style="stop-color:#B5725E"/>
					<stop  offset="1" style="stop-color:#A8695C"/>
				</linearGradient>
				<path style="fill:url(#SVGID_00000052074241610293817970000004294417469806991519_);" d="M251,454.1c-2.2,0-4.3-0.5-6.3-1.5
					c-10.1-4-18.4-8.1-28.8-14.3l-0.2-0.1l-0.4-0.3c-24-15-48.3-33-70.1-52c-25.1-21.7-47.2-44.7-65.8-68.4
					c-21-26.9-36.8-54.1-46.9-80.8c-11.6-30.5-16-60.7-12.9-89.7c3.6-35,19.8-66.8,45.6-89.5C77,47,90.7,38.6,105.7,32.7
					c15-5.8,30.4-8.8,45.9-8.8c23.2,0,45.3,6.6,63.8,19c13.7,9.2,25.5,21.3,35.1,36c9.5-14.8,21.2-26.9,35-36.2
					c18.6-12.6,40.7-19.3,63.8-19.4h0.2c15.5,0,30.9,2.9,45.7,8.6c14.9,5.7,28.6,14,40.7,24.6c25.9,22.7,42.2,54.4,45.9,89.3l0,0
					c3.1,28.8-1.2,59-12.7,89.8c-10.1,26.9-25.8,54.2-46.8,81.1c-18.3,23.7-40.3,46.8-65.5,68.7c-21.7,19.1-46,37.3-70.2,52.6
					l-0.2,0.1l-0.4,0.2c-10.4,6.2-19.1,10.5-29.8,14.8C254.4,453.8,252.7,454.1,251,454.1L251,454.1z M221,430.6
					c9.8,5.7,17.8,9.7,27.4,13.5l0.2,0.1l0.1,0.1c0.8,0.4,1.6,0.6,2.3,0.6c0.6,0,1.2-0.1,1.7-0.3c10.2-4.1,18.5-8.3,28.6-14.3
					l0.2-0.1l0.4-0.2c23.6-15,47.4-32.8,68.7-51.5c24.7-21.5,46.3-44.2,64.2-67.4c20.4-26.2,35.7-52.7,45.4-78.7
					c11-29.4,15.1-58.2,12.2-85.5l0-0.2c-3.5-32.5-18.6-62.1-42.7-83.2c-11.3-9.9-24.1-17.6-37.9-22.9c-13.8-5.3-27.9-8-42.1-8
					l-0.4,0c-21.2,0.1-41.5,6.2-58.6,17.8c-14.6,9.8-26.7,23.2-36.1,39.8l-4,7.1l-4-7.1c-9.5-16.5-21.6-29.8-36.2-39.6
					c-17-11.4-37.2-17.5-58.3-17.5h-0.3c-14.4,0-28.7,2.8-42.6,8.2c-14,5.5-26.7,13.3-37.7,23.1C47.3,85.6,32.2,115.3,28.8,148
					c-2.9,27.6,1.3,56.4,12.4,85.5c9.8,25.9,25.1,52.2,45.5,78.4c18.2,23.2,39.9,45.8,64.5,67.1c21.5,18.7,45.5,36.5,69.3,51.4
					l0.2,0.1L221,430.6z"/>
			</g>
		</g>
		<g>
			
				<linearGradient id="SVGID_00000178927928275690335850000016350782203403928225_" gradientUnits="userSpaceOnUse" x1="250.6439" y1="453.2755" x2="250.6439" y2="24.2331">
				<stop  offset="0" style="stop-color:#D6A253"/>
				<stop  offset="8.387643e-02" style="stop-color:#EBCE98"/>
				<stop  offset="0.1514" style="stop-color:#F9EDCA"/>
				<stop  offset="0.1847" style="stop-color:#FFF9DD"/>
				<stop  offset="0.2986" style="stop-color:#FFF9DD"/>
				<stop  offset="0.3192" style="stop-color:#FDF0CE"/>
				<stop  offset="0.3597" style="stop-color:#F9E1B7"/>
				<stop  offset="0.3977" style="stop-color:#F7D8A9"/>
				<stop  offset="0.4303" style="stop-color:#F6D5A4"/>
				<stop  offset="0.4892" style="stop-color:#C69360"/>
				<stop  offset="0.6051" style="stop-color:#C69360"/>
				<stop  offset="0.614" style="stop-color:#D19F6C"/>
				<stop  offset="0.6337" style="stop-color:#E4B580"/>
				<stop  offset="0.6527" style="stop-color:#EFC38D"/>
				<stop  offset="0.6699" style="stop-color:#F3C791"/>
				<stop  offset="0.6726" style="stop-color:#E8B685"/>
				<stop  offset="0.6775" style="stop-color:#D89E73"/>
				<stop  offset="0.682" style="stop-color:#CE8F68"/>
				<stop  offset="0.6857" style="stop-color:#CB8A64"/>
				<stop  offset="0.6983" style="stop-color:#CE916C"/>
				<stop  offset="0.7178" style="stop-color:#D7A481"/>
				<stop  offset="0.7417" style="stop-color:#E6C4A4"/>
				<stop  offset="0.7688" style="stop-color:#FBF0D5"/>
				<stop  offset="0.7741" style="stop-color:#FFF9DF"/>
				<stop  offset="0.7957" style="stop-color:#FFF9DF"/>
				<stop  offset="0.8468" style="stop-color:#F4C994"/>
				<stop  offset="0.8861" style="stop-color:#D6AD7B"/>
				<stop  offset="0.9116" style="stop-color:#D6AD7B"/>
				<stop  offset="0.9221" style="stop-color:#DCAF75"/>
				<stop  offset="0.9509" style="stop-color:#DEB073"/>
				<stop  offset="1" style="stop-color:#AE7C58"/>
			</linearGradient>
			<path style="fill:url(#SVGID_00000178927928275690335850000016350782203403928225_);" d="M251,453.3c-2.1,0-4.1-0.5-6-1.4
				c-10-4-18.4-8.1-28.7-14.2l-0.1-0.1l-0.3-0.3c-24-15-48.2-33-70.1-51.9c-25.1-21.6-47.2-44.6-65.6-68.2
				c-21-26.8-36.7-53.9-46.8-80.6c-11.6-30.4-15.9-60.4-12.9-89.4c3.6-34.8,19.7-66.4,45.3-89C77.5,47.7,91.1,39.4,106,33.5
				c14.9-5.8,30.2-8.7,45.6-8.8c23,0,44.9,6.5,63.3,18.9c14,9.3,25.9,21.7,35.5,36.9c9.5-15.2,21.4-27.7,35.4-37.1
				c18.5-12.5,40.4-19.2,63.3-19.2h0.2c15.4,0,30.7,2.9,45.4,8.5c14.8,5.7,28.4,13.9,40.4,24.4c25.7,22.5,41.9,54.1,45.6,88.8l0,0
				c3.1,28.6-1.2,58.7-12.6,89.4c-10,26.8-25.7,54-46.7,80.9c-18.2,23.6-40.2,46.7-65.4,68.6c-21.7,19-46,37.2-70.1,52.5l-0.2,0.1
				l-0.4,0.2c-10.4,6.2-19,10.5-29.7,14.8C254.2,453,252.6,453.3,251,453.3L251,453.3z M220.5,431.3c9.9,5.8,17.9,9.7,27.6,13.6
				l0.1,0l0.1,0.1c0.9,0.5,1.8,0.7,2.7,0.7c0.7,0,1.4-0.1,2-0.4c10.3-4.1,18.6-8.3,28.7-14.3l0.1-0.1l0.4-0.2
				c23.7-15,47.5-32.9,68.9-51.6c24.8-21.6,46.4-44.3,64.4-67.5c20.5-26.3,35.8-52.8,45.6-78.9c11.1-29.6,15.2-58.5,12.2-85.9l0-0.1
				c-3.5-32.8-18.8-62.5-43-83.8c-11.4-9.9-24.2-17.7-38.2-23c-13.8-5.3-28.1-8-42.4-8l-0.4,0c-21.4,0.1-41.8,6.3-59.1,17.9
				c-14.7,9.9-26.9,23.4-36.4,40l-3.3,5.8l-3.3-5.8c-9.5-16.6-21.8-30.1-36.5-39.9c-17.2-11.5-37.5-17.6-58.8-17.6h-0.3
				c-14.5,0-28.9,2.8-42.9,8.2c-14.1,5.6-26.9,13.4-38,23.3C46.6,85.1,31.4,115,28,147.9c-2.9,27.7,1.3,56.6,12.4,85.9
				c9.8,25.9,25.2,52.4,45.7,78.6c18.2,23.2,39.9,45.9,64.6,67.2c21.6,18.7,45.6,36.5,69.4,51.4l0.1,0.1L220.5,431.3z"/>
		</g>
		<g>
			<g>
				
					<linearGradient id="SVGID_00000076590003359557054940000004568184201814842532_" gradientUnits="userSpaceOnUse" x1="250.3346" y1="450.4299" x2="250.3346" y2="26.4599" gradientTransform="matrix(1 0 0 1 2 2)">
					<stop  offset="0" style="stop-color:#B98557"/>
					<stop  offset="5.263160e-02" style="stop-color:#BE8857"/>
					<stop  offset="9.473679e-02" style="stop-color:#CC8F5B"/>
					<stop  offset="0.1316" style="stop-color:#D9975F"/>
					<stop  offset="0.2395" style="stop-color:#FFAF68"/>
					<stop  offset="0.3237" style="stop-color:#FFAF68"/>
					<stop  offset="0.4447" style="stop-color:#D19567"/>
					<stop  offset="0.4632" style="stop-color:#D19567"/>
					<stop  offset="0.4737" style="stop-color:#D39669"/>
					<stop  offset="0.5395" style="stop-color:#FFB574"/>
					<stop  offset="0.5974" style="stop-color:#FFB574"/>
					<stop  offset="0.7211" style="stop-color:#DD9C6A"/>
					<stop  offset="1" style="stop-color:#B78461"/>
				</linearGradient>
				<path style="fill:url(#SVGID_00000076590003359557054940000004568184201814842532_);" d="M252.7,452.4c-1.7,0-3.4-0.4-4.9-1.2
					c-9.9-3.9-18.2-8-28.5-14.1l-0.3-0.3c-23.9-14.9-48.1-32.9-69.9-51.8c-24.9-21.5-46.9-44.4-65.3-67.9
					c-20.8-26.6-36.4-53.5-46.4-79.9c-11.4-30-15.7-59.7-12.7-88.2c3.5-34.2,19.3-65.2,44.5-87.4C80.7,51.5,94,43.3,108.6,37.6
					c14.6-5.7,29.6-8.6,44.7-8.6c22.4,0,43.8,6.3,61.9,18.5c14.8,9.9,27.2,23.2,37,39.7c9.7-16.5,22.1-29.9,36.8-39.9
					c18.1-12.2,39.5-18.7,61.9-18.8c15.1,0,30.1,2.8,44.6,8.3c14.5,5.6,27.8,13.6,39.7,23.9c25.3,22.1,41.1,53.1,44.7,87.1v0
					c3,28.2-1.2,57.9-12.5,88.2c-9.9,26.6-25.5,53.5-46.3,80.2c-18.1,23.5-40,46.4-65,68.2c-21.6,19-45.8,37-69.8,52.3L286,437
					c-10.3,6.2-18.9,10.4-29.5,14.7C255.3,452.2,254,452.4,252.7,452.4C252.7,452.4,252.7,452.4,252.7,452.4z M153.7,31.5
					c-0.1,0-0.2,0-0.3,0c-14.8,0-29.5,2.9-43.8,8.4c-14.4,5.7-27.4,13.7-38.8,23.7c-24.7,21.7-40.2,52.2-43.7,85.7
					c-2.9,28.1,1.3,57.4,12.6,87.1c9.9,26.2,25.4,52.8,46,79.3c18.3,23.4,40.1,46.1,65,67.5c21.7,18.8,45.8,36.7,69.7,51.7l0.3,0.2
					c10,5.8,18.1,9.9,28.1,13.8c1.3,0.7,2.6,1,3.9,1c0,0,0,0,0,0c0.9,0,2-0.2,2.9-0.5c10.5-4.2,18.9-8.4,29.2-14.5l0.5-0.2
					c23.8-15.1,47.8-33.1,69.3-52c24.9-21.7,46.7-44.5,64.7-67.9c20.6-26.5,36.1-53.3,45.9-79.6c11.2-29.9,15.4-59.2,12.4-87.1v0
					c-3.5-33.5-19.1-63.8-43.9-85.5c-11.6-10.1-24.7-18-38.9-23.5c-14.2-5.5-28.9-8.2-43.7-8.2c-21.9,0.1-42.8,6.4-60.5,18.4
					c-15,10.1-27.5,23.9-37.1,40.9l-1.1,1.9l-1.1-1.9c-9.7-17-22.3-30.7-37.3-40.7C196.3,37.7,175.5,31.5,153.7,31.5z"/>
			</g>
			<g>
				
					<linearGradient id="SVGID_00000084522829127290435920000003228699199835018903_" gradientUnits="userSpaceOnUse" x1="250.4892" y1="450.5845" x2="250.4892" y2="26.6144" gradientTransform="matrix(1 0 0 1 1 1)">
					<stop  offset="0" style="stop-color:#B98557"/>
					<stop  offset="5.263160e-02" style="stop-color:#BE8857"/>
					<stop  offset="9.473679e-02" style="stop-color:#CC8F5B"/>
					<stop  offset="0.1316" style="stop-color:#D9975F"/>
					<stop  offset="0.2395" style="stop-color:#FFAF68"/>
					<stop  offset="0.3237" style="stop-color:#FFAF68"/>
					<stop  offset="0.4447" style="stop-color:#D19567"/>
					<stop  offset="0.4632" style="stop-color:#D19567"/>
					<stop  offset="0.4737" style="stop-color:#D39669"/>
					<stop  offset="0.5395" style="stop-color:#FFB574"/>
					<stop  offset="0.5974" style="stop-color:#FFB574"/>
					<stop  offset="0.7211" style="stop-color:#DD9C6A"/>
					<stop  offset="1" style="stop-color:#B78461"/>
				</linearGradient>
				<path style="fill:url(#SVGID_00000084522829127290435920000003228699199835018903_);" d="M251.9,451.6c-1.7,0-3.4-0.4-4.9-1.2
					c-9.9-3.9-18.2-8-28.5-14.1l-0.3-0.3c-23.9-14.9-48.1-32.9-69.9-51.8c-24.9-21.5-46.9-44.4-65.3-67.9
					c-20.8-26.6-36.4-53.5-46.4-79.9c-11.4-30-15.7-59.7-12.7-88.2c3.5-34.2,19.3-65.2,44.5-87.4c11.5-10.3,24.8-18.4,39.5-24.2
					c14.6-5.7,29.6-8.6,44.7-8.6c22.4,0,43.8,6.3,61.9,18.5c14.8,9.9,27.2,23.2,37,39.7c9.7-16.5,22.1-29.9,36.8-39.9
					c18.1-12.2,39.5-18.7,61.9-18.8c15.1,0,30.1,2.8,44.6,8.3c14.5,5.6,27.8,13.6,39.7,23.9c25.3,22.1,41.1,53.1,44.7,87.1v0
					c3,28.2-1.2,57.9-12.5,88.2c-9.9,26.6-25.5,53.5-46.3,80.2c-18.1,23.5-40,46.4-65,68.2c-21.6,19-45.8,37-69.8,52.3l-0.4,0.2
					c-10.3,6.2-18.9,10.4-29.5,14.7C254.4,451.3,253.1,451.6,251.9,451.6C251.9,451.6,251.9,451.6,251.9,451.6z M152.8,30.6
					c-0.1,0-0.2,0-0.3,0c-14.8,0-29.5,2.9-43.8,8.4c-14.4,5.7-27.4,13.7-38.8,23.7C45.2,84.5,29.7,115,26.3,148.5
					c-2.9,28.1,1.3,57.4,12.6,87.1c9.9,26.2,25.4,52.8,46,79.3c18.3,23.4,40.1,46.1,65,67.5c21.7,18.8,45.8,36.7,69.7,51.7l0.3,0.2
					c10,5.8,18.1,9.9,28.1,13.8c1.3,0.7,2.6,1,3.9,1c0,0,0,0,0,0c0.9,0,2-0.2,2.9-0.5c10.5-4.2,18.9-8.4,29.2-14.5l0.5-0.2
					c23.8-15.1,47.8-33.1,69.3-52c24.9-21.7,46.7-44.5,64.7-67.9c20.6-26.5,36.1-53.3,45.9-79.6c11.2-29.9,15.4-59.2,12.4-87.1v0
					c-3.5-33.5-19.1-63.8-43.9-85.5c-11.6-10.1-24.7-18-38.9-23.5c-14.2-5.5-28.9-8.2-43.7-8.2c-21.9,0.1-42.8,6.4-60.5,18.4
					c-15,10.1-27.5,23.9-37.1,40.9l-1.1,1.9l-1.1-1.9c-9.7-17-22.3-30.7-37.3-40.7C195.5,36.9,174.7,30.6,152.8,30.6z"/>
			</g>
			<g>
				
					<linearGradient id="SVGID_00000146478445423778869610000010874059631030474658_" gradientUnits="userSpaceOnUse" x1="250.6439" y1="450.7392" x2="250.6439" y2="26.7692">
					<stop  offset="0" style="stop-color:#B98557"/>
					<stop  offset="5.263160e-02" style="stop-color:#BE8857"/>
					<stop  offset="9.473679e-02" style="stop-color:#CC8F5B"/>
					<stop  offset="0.1316" style="stop-color:#D9975F"/>
					<stop  offset="0.2395" style="stop-color:#FFAF68"/>
					<stop  offset="0.3237" style="stop-color:#FFAF68"/>
					<stop  offset="0.4447" style="stop-color:#D19567"/>
					<stop  offset="0.4632" style="stop-color:#D19567"/>
					<stop  offset="0.4737" style="stop-color:#D39669"/>
					<stop  offset="0.5395" style="stop-color:#FFB574"/>
					<stop  offset="0.5974" style="stop-color:#FFB574"/>
					<stop  offset="0.7211" style="stop-color:#DD9C6A"/>
					<stop  offset="1" style="stop-color:#B78461"/>
				</linearGradient>
				<path style="fill:url(#SVGID_00000146478445423778869610000010874059631030474658_);" d="M251,450.7c-1.7,0-3.4-0.4-4.9-1.2
					c-9.9-3.9-18.2-8-28.5-14.1l-0.3-0.3c-23.9-14.9-48.1-32.9-69.9-51.8c-24.9-21.5-46.9-44.4-65.3-67.9
					c-20.8-26.6-36.4-53.5-46.4-79.9c-11.4-30-15.7-59.7-12.7-88.2c3.5-34.2,19.3-65.2,44.5-87.4C79,49.8,92.3,41.6,107,35.9
					c14.6-5.7,29.6-8.6,44.7-8.6c22.4,0,43.8,6.3,61.9,18.5c14.8,9.9,27.2,23.2,37,39.7c9.7-16.5,22.1-29.9,36.8-39.9
					c18.1-12.2,39.5-18.7,61.9-18.8c15.1,0,30.1,2.8,44.6,8.3c14.5,5.6,27.8,13.6,39.7,23.9c25.3,22.1,41.1,53.1,44.7,87.1v0
					c3,28.2-1.2,57.9-12.5,88.2c-9.9,26.6-25.5,53.5-46.3,80.2c-18.1,23.5-40,46.4-65,68.2c-21.6,19-45.8,37-69.8,52.3l-0.4,0.2
					c-10.3,6.2-18.9,10.4-29.5,14.7C253.6,450.5,252.3,450.7,251,450.7C251,450.7,251,450.7,251,450.7z M152,29.8
					c-0.1,0-0.2,0-0.3,0c-14.8,0-29.5,2.9-43.8,8.4c-14.4,5.7-27.4,13.7-38.8,23.7c-24.7,21.7-40.2,52.2-43.7,85.7
					c-2.9,28.1,1.3,57.4,12.6,87.1c9.9,26.2,25.4,52.8,46,79.3c18.3,23.4,40.1,46.1,65,67.5c21.7,18.8,45.8,36.7,69.7,51.7l0.3,0.2
					c10,5.8,18.1,9.9,28.1,13.8c1.3,0.7,2.6,1,3.9,1c0,0,0,0,0,0c0.9,0,2-0.2,2.9-0.5c10.5-4.2,18.9-8.4,29.2-14.5l0.5-0.2
					c23.8-15.1,47.8-33.1,69.3-52c24.9-21.7,46.7-44.5,64.7-67.9c20.6-26.5,36.1-53.3,45.9-79.6c11.2-29.9,15.4-59.2,12.4-87.1v0
					c-3.5-33.5-19.1-63.8-43.9-85.5c-11.6-10.1-24.7-18-38.9-23.5c-14.2-5.5-28.9-8.2-43.7-8.2c-21.9,0.1-42.8,6.4-60.5,18.4
					c-15,10.1-27.5,23.9-37.1,40.9l-1.1,1.9l-1.1-1.9c-9.7-17-22.3-30.7-37.3-40.7C194.6,36,173.8,29.8,152,29.8z"/>
			</g>
		</g>
		<g>
			
				<linearGradient id="SVGID_00000065060291670216742480000001284640785034574721_" gradientUnits="userSpaceOnUse" x1="250.6439" y1="450.7392" x2="250.6439" y2="26.7692">
				<stop  offset="0" style="stop-color:#FFE39A"/>
				<stop  offset="2.048444e-02" style="stop-color:#F7D490"/>
				<stop  offset="6.968737e-02" style="stop-color:#E7B47B"/>
				<stop  offset="0.1111" style="stop-color:#DDA06F"/>
				<stop  offset="0.1394" style="stop-color:#D9996A"/>
				<stop  offset="0.1857" style="stop-color:#C7875E"/>
				<stop  offset="0.2182" style="stop-color:#B87754"/>
				<stop  offset="0.2716" style="stop-color:#D6A273"/>
				<stop  offset="0.3325" style="stop-color:#F3CC93"/>
				<stop  offset="0.3636" style="stop-color:#FFDD9F"/>
				<stop  offset="0.4545" style="stop-color:#FFF6CF"/>
				<stop  offset="0.5576" style="stop-color:#FDFDF8"/>
				<stop  offset="0.6545" style="stop-color:#FFF4BF"/>
				<stop  offset="0.7758" style="stop-color:#FFDA8E"/>
				<stop  offset="0.8076" style="stop-color:#F8CD84"/>
				<stop  offset="0.8659" style="stop-color:#E7AC69"/>
				<stop  offset="0.903" style="stop-color:#DA9355"/>
				<stop  offset="1" style="stop-color:#946350"/>
			</linearGradient>
			<path style="fill:url(#SVGID_00000065060291670216742480000001284640785034574721_);" d="M251,450.7c-1.7,0-3.4-0.4-4.9-1.2
				c-9.9-3.9-18.2-8-28.5-14.1l-0.3-0.3c-23.9-14.9-48.1-32.9-69.9-51.8c-24.9-21.5-46.9-44.4-65.3-67.9
				c-20.8-26.6-36.4-53.5-46.4-79.9c-11.4-30-15.7-59.7-12.7-88.2c3.5-34.2,19.3-65.2,44.5-87.4C79,49.8,92.3,41.6,107,35.9
				c14.6-5.7,29.6-8.6,44.7-8.6c22.4,0,43.8,6.3,61.9,18.5c14.8,9.9,27.2,23.2,37,39.7c9.7-16.5,22.1-29.9,36.8-39.9
				c18.1-12.2,39.5-18.7,61.9-18.8c15.1,0,30.1,2.8,44.6,8.3c14.5,5.6,27.8,13.6,39.7,23.9c25.3,22.1,41.1,53.1,44.7,87.1v0
				c3,28.2-1.2,57.9-12.5,88.2c-9.9,26.6-25.5,53.5-46.3,80.2c-18.1,23.5-40,46.4-65,68.2c-21.6,19-45.8,37-69.8,52.3l-0.4,0.2
				c-10.3,6.2-18.9,10.4-29.5,14.7C253.6,450.5,252.3,450.7,251,450.7C251,450.7,251,450.7,251,450.7z M152,29.8c-0.1,0-0.2,0-0.3,0
				c-14.8,0-29.5,2.9-43.8,8.4c-14.4,5.7-27.4,13.7-38.8,23.7c-24.7,21.7-40.2,52.2-43.7,85.7c-2.9,28.1,1.3,57.4,12.6,87.1
				c9.9,26.2,25.4,52.8,46,79.3c18.3,23.4,40.1,46.1,65,67.5c21.7,18.8,45.8,36.7,69.7,51.7l0.3,0.2c10,5.8,18.1,9.9,28.1,13.8
				c1.3,0.7,2.6,1,3.9,1c0,0,0,0,0,0c0.9,0,2-0.2,2.9-0.5c10.5-4.2,18.9-8.4,29.2-14.5l0.5-0.2c23.8-15.1,47.8-33.1,69.3-52
				c24.9-21.7,46.7-44.5,64.7-67.9c20.6-26.5,36.1-53.3,45.9-79.6c11.2-29.9,15.4-59.2,12.4-87.1v0c-3.5-33.5-19.1-63.8-43.9-85.5
				c-11.6-10.1-24.7-18-38.9-23.5c-14.2-5.5-28.9-8.2-43.7-8.2c-21.9,0.1-42.8,6.4-60.5,18.4c-15,10.1-27.5,23.9-37.1,40.9l-1.1,1.9
				l-1.1-1.9c-9.7-17-22.3-30.7-37.3-40.7C194.6,36,173.8,29.8,152,29.8z"/>
		</g>
	</g>
</g>
<g>
	
		<linearGradient id="SVGID_00000022531405012456812860000012864717172591162256_" gradientUnits="userSpaceOnUse" x1="129.4466" y1="288.4038" x2="178.1406" y2="204.0634">
		<stop  offset="0" style="stop-color:#FFE39A"/>
		<stop  offset="0.3636" style="stop-color:#FFDD9F"/>
		<stop  offset="0.4545" style="stop-color:#FFF6CF"/>
		<stop  offset="0.5576" style="stop-color:#FDFDF8"/>
		<stop  offset="0.6545" style="stop-color:#FFF4BF"/>
		<stop  offset="0.7758" style="stop-color:#FFDA8E"/>
	</linearGradient>
	<path style="fill:url(#SVGID_00000022531405012456812860000012864717172591162256_);" d="M128.3,262.3l4.7-0.7
		c2.8,7.8,6.7,13,11.6,15.6c4.9,2.7,9.8,3.6,14.5,3c4.3-0.6,7.3-2,9.1-4.3c1.7-2.2,2.4-4.9,1.9-8.1c-0.4-3-1.9-5.4-4.4-7.2
		c-1.4-1-3.5-1.9-6.3-2.8l-13.3-4.2c-7-2.3-12.2-5.1-15.6-8.4c-3.4-3.3-5.5-7.6-6.3-12.7c-0.9-6.5,0.5-12.4,4.4-17.8
		c3.8-5.4,9.8-8.6,17.9-9.8c3.5-0.5,7.4-0.5,11.5,0.1c4.1,0.6,6.7,0.8,7.7,0.7c1.4-0.2,2.3-0.6,2.8-1.3c0.5-0.7,0.8-1.5,1.1-2.6
		l3.7-0.5l3.5,24.2l-4.2,0.6c-2.4-5.4-5.6-9.6-9.7-12.5c-4.1-2.9-8.5-4-13.3-3.3c-3.7,0.5-6.3,2-7.9,4.3s-2.1,4.7-1.8,7.1
		c0.3,2,1.4,3.8,3.3,5.5c1.9,1.8,5.2,3.4,9.9,4.9l9.8,3.1c6.1,1.9,10.6,3.9,13.6,6.1c5,3.7,7.9,8.8,8.9,15.2
		c0.9,6.2-0.5,12.3-4.2,18.4c-3.7,6-10.1,9.7-19.1,11c-2.2,0.3-4.5,0.4-6.8,0.3c-2.3-0.1-5.2-0.5-8.7-1.2l-3-0.6
		c-1.1-0.2-1.8-0.4-2-0.4c-0.3,0-0.6,0-1,0.1c-0.9,0.1-1.7,0.6-2.3,1.5c-0.6,0.8-1.2,2.2-1.8,4.1l-4,0.6L128.3,262.3L128.3,262.3z"
		/>
	
		<linearGradient id="SVGID_00000044889293397115055920000013174588530202909868_" gradientUnits="userSpaceOnUse" x1="208.2128" y1="278.4431" x2="253.0631" y2="200.76">
		<stop  offset="0" style="stop-color:#FFE39A"/>
		<stop  offset="0.3636" style="stop-color:#FFDD9F"/>
		<stop  offset="0.4545" style="stop-color:#FFF6CF"/>
		<stop  offset="0.5576" style="stop-color:#FDFDF8"/>
		<stop  offset="0.6545" style="stop-color:#FFF4BF"/>
		<stop  offset="0.7758" style="stop-color:#FFDA8E"/>
	</linearGradient>
	<path style="fill:url(#SVGID_00000044889293397115055920000013174588530202909868_);" d="M203.2,243.1c6.6-5.5,17.3-11.6,32.2-18.3
		l-1.8-12.2c-0.7-5-2.3-8.5-4.7-10.5c-2.4-2.1-6.3-2.7-11.7-1.9c-3,0.4-5.4,1.4-7.2,2.7c-1.8,1.4-2.5,2.9-2.3,4.6
		c0.1,0.7,0.3,1.2,0.6,1.6c0.3,0.4,0.7,0.8,1.2,1.2l1.1,1c0.9,0.8,1.7,1.8,2.3,2.8c0.6,1.1,1,2.2,1.2,3.5c0.5,3.2-0.2,5.8-2.1,7.8
		c-1.8,2-4.2,3.2-6.9,3.6c-3.2,0.5-6.1-0.1-8.6-1.7c-2.5-1.6-4.1-4.2-4.6-7.7c-0.9-6.4,1.4-11.9,6.9-16.6c5.5-4.6,12.7-7.6,21.5-8.9
		c9.5-1.4,17.7-0.7,24.6,2c6.9,2.8,11,9.1,12.4,19.1l5.9,40.6c0.2,1.2,0.6,2.2,1.4,2.9c0.7,0.8,1.5,1.1,2.3,1
		c0.7-0.1,1.2-0.3,1.7-0.6c0.5-0.3,1.2-1.1,2.1-2.4l3,3.1c-2.7,4.3-6,7.5-9.7,9.6c-2.4,1.3-4.9,2.2-7.7,2.6c-5,0.7-8.8-0.2-11.5-2.8
		c-1.5-1.4-2.8-3.7-3.9-6.9c-4,5.3-8.7,9.3-14.3,12.1c-3.4,1.7-6.8,2.8-10.2,3.3c-4.6,0.7-9.1-0.2-13.5-2.5s-7-6.6-7.9-12.8
		C193.8,255,196.6,248.5,203.2,243.1L203.2,243.1z M235.5,260.4c1.2-1.2,2.5-2.9,4-5.3l-3.5-24.5c-4.3,1.7-8,4-11,6.9
		c-5.1,4.8-7.3,10.3-6.4,16.5c0.5,3.7,1.8,6.3,3.7,8c1.9,1.6,3.9,2.3,6,2C230.9,263.6,233.4,262.4,235.5,260.4L235.5,260.4z"/>
	
		<linearGradient id="SVGID_00000131352551291015950980000001020072984791146924_" gradientUnits="userSpaceOnUse" x1="262.3784" y1="256.5478" x2="317.2044" y2="161.5865">
		<stop  offset="0" style="stop-color:#FFE39A"/>
		<stop  offset="0.3636" style="stop-color:#FFDD9F"/>
		<stop  offset="0.4545" style="stop-color:#FFF6CF"/>
		<stop  offset="0.5576" style="stop-color:#FDFDF8"/>
		<stop  offset="0.6545" style="stop-color:#FFF4BF"/>
		<stop  offset="0.7758" style="stop-color:#FFDA8E"/>
	</linearGradient>
	<path style="fill:url(#SVGID_00000131352551291015950980000001020072984791146924_);" d="M278.7,262.3c2.8-1.1,4.8-2.4,5.8-3.7
		c1.1-1.4,1.3-3.9,0.8-7.6L273,165.7c-0.5-3.6-1.4-5.8-2.7-6.8c-1.3-0.9-3.6-1.5-6.8-1.8l-0.6-4l31.7-4.6l14.3,99
		c0.5,3.7,1.5,6,2.9,7c1.4,1,3.6,1.6,6.8,1.9l0.6,4l-39.9,5.8L278.7,262.3z"/>
	
		<linearGradient id="SVGID_00000013188315736320601790000001592519439035369124_" gradientUnits="userSpaceOnUse" x1="336.2811" y1="250.4729" x2="375.637" y2="182.3064">
		<stop  offset="0" style="stop-color:#FFE39A"/>
		<stop  offset="0.3636" style="stop-color:#FFDD9F"/>
		<stop  offset="0.4545" style="stop-color:#FFF6CF"/>
		<stop  offset="0.5576" style="stop-color:#FDFDF8"/>
		<stop  offset="0.6545" style="stop-color:#FFF4BF"/>
		<stop  offset="0.7758" style="stop-color:#FFDA8E"/>
	</linearGradient>
	<path style="fill:url(#SVGID_00000013188315736320601790000001592519439035369124_);" d="M327.2,189.6c5.8-8.1,13.6-12.9,23.2-14.3
		c5.5-0.8,10.9-0.1,16.2,2.1c5.3,2.2,9.6,5.7,13,10.4c2.5,3.6,4.6,8.4,6.3,14.5c0.8,2.8,1.3,5,1.5,6.5l-42.8,6.2
		c1.4,6.6,3.3,12.3,5.8,16.9c4.6,8.7,11,12.5,19.3,11.3c3.9-0.6,7.5-2.3,10.6-5.3c1.9-1.8,4.2-4.6,6.9-8.6l4.2,1.8
		c-4,9.3-9.1,16-15.4,20.4c-4.1,2.8-9,4.6-14.8,5.4c-8.2,1.2-16.4-0.9-24.6-6.4c-8.1-5.4-13.2-15.3-15.3-29.5
		C319.4,208.1,321.4,197.6,327.2,189.6L327.2,189.6z M365.8,205.5c-1.5-9.9-3.3-16.6-5.3-20.4s-5.1-5.3-9.4-4.6
		c-4.4,0.6-7,3.3-8,8.1s-0.9,11.5,0.1,20.2L365.8,205.5L365.8,205.5z"/>
</g>
</svg>
