<?xml version="1.0" encoding="utf-8"?>
<!-- Generator: Adobe Illustrator 27.2.0, SVG Export Plug-In . SVG Version: 6.00 Build 0)  -->
<svg version="1.1" id="Icons" xmlns="http://www.w3.org/2000/svg" xmlns:xlink="http://www.w3.org/1999/xlink" x="0px" y="0px"
	 viewBox="0 0 512 512" style="enable-background:new 0 0 512 512;" xml:space="preserve">
<style type="text/css">
	.st0{fill:url(#SVGID_1_);}
	.st1{fill:#664B1F;}
	.st2{filter:url(#Adobe_OpacityMaskFilter);}
	.st3{opacity:0.75;mask:url(#SVGID_00000103235071871398042030000015122060878426248076_);}
	.st4{fill:#D299AF;}
	.st5{fill:#646464;}
	.st6{fill:url(#SVGID_00000153700767493082276170000003373792574385736320_);}
	.st7{fill:url(#SVGID_00000010288706597037615090000000070129658217715389_);}
	.st8{fill:url(#SVGID_00000060010133805568934460000007088407057143270811_);}
	.st9{fill:url(#SVGID_00000050634246940198607890000001726891304052968865_);}
	.st10{fill:url(#SVGID_00000173848786392264586840000000955321619945457295_);}
	.st11{fill:url(#SVGID_00000180334794528419480850000006239400711676357515_);}
	.st12{fill:url(#SVGID_00000023268243399755685590000016846775728023135417_);}
	.st13{fill:url(#SVGID_00000135650601531136484190000016414339076864319624_);}
	.st14{fill:url(#SVGID_00000109714110780062632170000008011837299259674507_);}
	.st15{fill:url(#SVGID_00000024684291441839949230000006428155106659907486_);}
	.st16{fill:url(#SVGID_00000178910021873482729920000001637355293726625198_);}
	.st17{fill:url(#SVGID_00000109031816248824222870000017732274354262021512_);}
</style>
<g>
	
		<image style="overflow:visible;opacity:0.75;" width="513" height="480" xlink:href="FFCBA61B36D57D15.png"  transform="matrix(1 0 0 1 10.8888 16.8888)">
	</image>
	<g>
		<linearGradient id="SVGID_1_" gradientUnits="userSpaceOnUse" x1="251.0054" y1="446.6973" x2="251.0054" y2="34.4769">
			<stop  offset="0" style="stop-color:#EBC3BD"/>
			<stop  offset="0.2186" style="stop-color:#E6BDB8"/>
			<stop  offset="0.5243" style="stop-color:#D6AAA9"/>
			<stop  offset="0.8799" style="stop-color:#BD8D91"/>
			<stop  offset="1" style="stop-color:#B38187"/>
		</linearGradient>
		<path class="st0" d="M221.3,432.5c9.8,5.7,17.8,9.7,27.4,13.5l0.2,0.1l0.1,0.1c0.8,0.4,1.6,0.6,2.3,0.6c0.6,0,1.2-0.1,1.7-0.3
			c10.2-4.1,18.5-8.3,28.6-14.3l0.2-0.1l0.4-0.2c23.6-15,47.4-32.8,68.7-51.5c24.7-21.5,46.3-44.2,64.2-67.4
			c20.4-26.2,35.7-52.7,45.4-78.7c11-29.4,15.1-58.2,12.2-85.5l0-0.2c-3.5-32.5-18.6-62.1-42.7-83.2c-11.3-9.9-24.1-17.6-37.9-22.9
			c-13.8-5.3-27.9-8-42.1-8l-0.4,0c-21.2,0.1-41.5,6.2-58.6,17.8c-14.6,9.8-26.7,23.2-36.1,39.8l-4,7.1l-4-7.1
			c-9.5-16.5-21.6-29.8-36.2-39.6C193.7,41,173.5,35,152.4,35H152c-14.4,0-28.7,2.8-42.6,8.2c-14,5.5-26.7,13.3-37.7,23.1
			c-24.1,21.2-39.2,50.9-42.5,83.6c-2.9,27.6,1.3,56.4,12.4,85.5c9.8,25.9,25.1,52.2,45.5,78.4c18.2,23.2,39.9,45.8,64.5,67.1
			c21.5,18.7,45.5,36.5,69.3,51.4l0.2,0.1L221.3,432.5z"/>
	</g>
</g>
<g>
	<g>
		<g>
			<path class="st1" d="M221.8,431.5c9.8,5.7,17.8,9.7,27.4,13.5l0.2,0.1l0.1,0.1c0.8,0.4,1.6,0.6,2.3,0.6c0.6,0,1.2-0.1,1.7-0.3
				c10.2-4.1,18.5-8.3,28.6-14.3l0.2-0.1l0.4-0.2c23.6-15,47.4-32.8,68.7-51.5c24.7-21.5,46.3-44.2,64.2-67.4
				c20.4-26.2,35.7-52.7,45.4-78.7c11-29.4,15.1-58.2,12.2-85.5l0-0.2c-3.5-32.5-18.6-62.1-42.7-83.2c-11.3-9.9-24.1-17.6-37.9-22.9
				c-13.8-5.3-27.9-8-42.1-8l-0.4,0c-21.2,0.1-41.5,6.2-58.6,17.8C277,61.1,264.8,74.5,255.4,91l-4,7.1l-4-7.1
				c-9.5-16.5-21.6-29.8-36.2-39.6C194.1,40,174,34,152.8,34h-0.3c-14.4,0-28.7,2.8-42.6,8.2c-14,5.5-26.7,13.3-37.7,23.1
				C48.1,86.5,33,116.2,29.7,148.9c-2.9,27.6,1.3,56.4,12.4,85.5c9.8,25.9,25.1,52.2,45.5,78.4c18.2,23.2,39.9,45.8,64.5,67.1
				c21.5,18.7,45.5,36.5,69.3,51.4l0.2,0.1L221.8,431.5z"/>
		</g>
		<defs>
			<filter id="Adobe_OpacityMaskFilter" filterUnits="userSpaceOnUse" x="28.8" y="33.5" width="445.4" height="412.2">
				
					<feColorMatrix  type="matrix" values="-1 0 0 0 1  0 -1 0 0 1  0 0 -1 0 1  0 0 0 1 0" color-interpolation-filters="sRGB" result="source"/>
			</filter>
		</defs>
		
			<mask maskUnits="userSpaceOnUse" x="28.8" y="33.5" width="445.4" height="412.2" id="SVGID_00000087404780077289042480000013876310694140917153_">
			<g class="st2">
				
					<image style="overflow:visible;" width="451" height="417" xlink:href="FFCBA61B36D57D17.jpg"  transform="matrix(1 0 0 1 26 31)">
				</image>
			</g>
		</mask>
		<g style="opacity:0.75;mask:url(#SVGID_00000087404780077289042480000013876310694140917153_);">
			<path class="st4" d="M221.8,431.5c9.8,5.7,17.8,9.7,27.4,13.5l0.2,0.1l0.1,0.1c0.8,0.4,1.6,0.6,2.3,0.6c0.6,0,1.2-0.1,1.7-0.3
				c10.2-4.1,18.5-8.3,28.6-14.3l0.2-0.1l0.4-0.2c23.6-15,47.4-32.8,68.7-51.5c24.7-21.5,46.3-44.2,64.2-67.4
				c20.4-26.2,35.7-52.7,45.4-78.7c11-29.4,15.1-58.2,12.2-85.5l0-0.2c-3.5-32.5-18.6-62.1-42.7-83.2c-11.3-9.9-24.1-17.6-37.9-22.9
				c-13.8-5.3-27.9-8-42.1-8l-0.4,0c-21.2,0.1-41.5,6.2-58.6,17.8C277,61.1,264.8,74.5,255.4,91l-4,7.1l-4-7.1
				c-9.5-16.5-21.6-29.8-36.2-39.6C194.1,40,174,34,152.8,34h-0.3c-14.4,0-28.7,2.8-42.6,8.2c-14,5.5-26.7,13.3-37.7,23.1
				C48.1,86.5,33,116.2,29.7,148.9c-2.9,27.6,1.3,56.4,12.4,85.5c9.8,25.9,25.1,52.2,45.5,78.4c18.2,23.2,39.9,45.8,64.5,67.1
				c21.5,18.7,45.5,36.5,69.3,51.4l0.2,0.1L221.8,431.5z"/>
		</g>
	</g>
	<g>
		<g>
			<path class="st5" d="M251,450.7c-1.7,0-3.4-0.4-4.9-1.2c-9.9-3.9-18.2-8-28.5-14.1l-0.3-0.3c-23.9-14.9-48.1-32.9-69.9-51.8
				c-24.9-21.5-46.9-44.4-65.3-67.9c-20.8-26.6-36.4-53.5-46.4-79.9c-11.4-30-15.7-59.7-12.7-88.2c3.5-34.2,19.3-65.2,44.5-87.4
				C79,49.8,92.3,41.6,107,35.9c14.6-5.7,29.6-8.6,44.7-8.6c22.4,0,43.8,6.3,61.9,18.5c14.8,9.9,27.2,23.2,37,39.7
				c9.7-16.5,22.1-29.9,36.8-39.9c18.1-12.2,39.5-18.7,61.9-18.8c15.1,0,30.1,2.8,44.6,8.3c14.5,5.6,27.8,13.6,39.7,23.9
				c25.3,22.1,41.1,53.1,44.7,87.1v0c3,28.2-1.2,57.9-12.5,88.2c-9.9,26.6-25.5,53.5-46.3,80.2c-18.1,23.5-40,46.4-65,68.2
				c-21.6,19-45.8,37-69.8,52.3l-0.4,0.2c-10.3,6.2-18.9,10.4-29.5,14.7C253.6,450.5,252.3,450.7,251,450.7
				C251,450.7,251,450.7,251,450.7z M152,29.8c-0.1,0-0.2,0-0.3,0c-14.8,0-29.5,2.9-43.8,8.4c-14.4,5.7-27.4,13.7-38.8,23.7
				c-24.7,21.7-40.2,52.2-43.7,85.7c-2.9,28.1,1.3,57.4,12.6,87.1c9.9,26.2,25.4,52.8,46,79.3c18.3,23.4,40.1,46.1,65,67.5
				c21.7,18.8,45.8,36.7,69.7,51.7l0.3,0.2c10,5.8,18.1,9.9,28.1,13.8c1.3,0.7,2.6,1,3.9,1c0,0,0,0,0,0c0.9,0,2-0.2,2.9-0.5
				c10.5-4.2,18.9-8.4,29.2-14.5l0.5-0.2c23.8-15.1,47.8-33.1,69.3-52c24.9-21.7,46.7-44.5,64.7-67.9c20.6-26.5,36.1-53.3,45.9-79.6
				c11.2-29.9,15.4-59.2,12.4-87.1v0c-3.5-33.5-19.1-63.8-43.9-85.5c-11.6-10.1-24.7-18-38.9-23.5c-14.2-5.5-28.9-8.2-43.7-8.2
				c-21.9,0.1-42.8,6.4-60.5,18.4c-15,10.1-27.5,23.9-37.1,40.9l-1.1,1.9l-1.1-1.9c-9.7-17-22.3-30.7-37.3-40.7
				C194.6,36,173.8,29.8,152,29.8z"/>
		</g>
		<g>
			<g>
				
					<linearGradient id="SVGID_00000067921561823920421380000014194636474242081929_" gradientUnits="userSpaceOnUse" x1="250.3345" y1="453.8116" x2="250.3345" y2="23.0785" gradientTransform="matrix(1 0 0 1 2 2)">
					<stop  offset="0" style="stop-color:#AB7267"/>
					<stop  offset="7.272730e-02" style="stop-color:#7B6159"/>
					<stop  offset="0.1273" style="stop-color:#C67C61"/>
					<stop  offset="0.1879" style="stop-color:#C7806A"/>
					<stop  offset="0.2545" style="stop-color:#875F58"/>
					<stop  offset="0.3515" style="stop-color:#875F58"/>
					<stop  offset="0.4242" style="stop-color:#DA8874"/>
					<stop  offset="0.5091" style="stop-color:#7E5C58"/>
					<stop  offset="0.5939" style="stop-color:#C17C69"/>
					<stop  offset="0.6303" style="stop-color:#C57E6A"/>
					<stop  offset="0.7273" style="stop-color:#82635F"/>
					<stop  offset="0.8182" style="stop-color:#9D675C"/>
					<stop  offset="0.903" style="stop-color:#DA846A"/>
					<stop  offset="0.9455" style="stop-color:#F19769"/>
					<stop  offset="0.9609" style="stop-color:#E08D66"/>
					<stop  offset="0.9913" style="stop-color:#B5725E"/>
					<stop  offset="1" style="stop-color:#A8695C"/>
				</linearGradient>
				<path style="fill:url(#SVGID_00000067921561823920421380000014194636474242081929_);" d="M252.7,455.8c-2.2,0-4.3-0.5-6.3-1.5
					c-10.1-4-18.4-8.1-28.8-14.3l-0.2-0.1l-0.4-0.3c-24-15-48.3-33-70.1-52C121.8,366,99.7,343,81.1,319.3
					c-21-26.9-36.8-54.1-46.9-80.8c-11.6-30.5-16-60.7-12.9-89.7c3.6-35,19.8-66.8,45.6-89.5c11.8-10.5,25.5-18.9,40.5-24.8
					c15-5.8,30.4-8.8,45.9-8.8c23.2,0,45.3,6.6,63.8,19c13.7,9.2,25.5,21.3,35.1,36c9.5-14.8,21.2-26.9,35-36.2
					c18.6-12.6,40.7-19.3,63.8-19.4h0.2c15.5,0,30.9,2.9,45.7,8.6c14.9,5.7,28.6,14,40.7,24.6c25.9,22.7,42.2,54.4,45.9,89.3l0,0
					c3.1,28.8-1.2,59-12.7,89.8c-10.1,26.9-25.8,54.2-46.8,81.1c-18.3,23.7-40.3,46.8-65.5,68.7c-21.7,19.1-46,37.3-70.2,52.6
					l-0.2,0.1l-0.4,0.2c-10.4,6.2-19.1,10.5-29.8,14.8C256.1,455.5,254.4,455.8,252.7,455.8L252.7,455.8z M222.7,432.3
					c9.8,5.7,17.8,9.7,27.4,13.5l0.2,0.1l0.1,0.1c0.8,0.4,1.6,0.6,2.3,0.6c0.6,0,1.2-0.1,1.7-0.3c10.2-4.1,18.5-8.3,28.6-14.3
					l0.2-0.1l0.4-0.2c23.6-15,47.4-32.8,68.7-51.5c24.7-21.5,46.3-44.2,64.2-67.4C437,286.5,452.2,260,462,234
					c11-29.4,15.1-58.2,12.2-85.5l0-0.2c-3.5-32.5-18.6-62.1-42.7-83.2c-11.3-9.9-24.1-17.6-37.9-22.9c-13.8-5.3-27.9-8-42.1-8
					l-0.4,0c-21.2,0.1-41.5,6.2-58.6,17.8c-14.6,9.8-26.7,23.2-36.1,39.8l-4,7.1l-4-7.1c-9.5-16.5-21.6-29.8-36.2-39.6
					c-17-11.4-37.2-17.5-58.3-17.5h-0.3c-14.4,0-28.7,2.8-42.6,8.2c-14,5.5-26.7,13.3-37.7,23.1C49,87.3,33.9,117,30.5,149.7
					c-2.9,27.6,1.3,56.4,12.4,85.5c9.8,25.9,25.1,52.2,45.5,78.4c18.2,23.2,39.9,45.8,64.5,67.1c21.5,18.7,45.5,36.5,69.3,51.4
					l0.2,0.1L222.7,432.3z"/>
			</g>
			<g>
				
					<linearGradient id="SVGID_00000045606340052313239780000017480505797769735845_" gradientUnits="userSpaceOnUse" x1="250.4892" y1="453.9664" x2="250.4892" y2="23.2331" gradientTransform="matrix(1 0 0 1 1 1)">
					<stop  offset="0" style="stop-color:#AB7267"/>
					<stop  offset="7.272730e-02" style="stop-color:#7B6159"/>
					<stop  offset="0.1273" style="stop-color:#C67C61"/>
					<stop  offset="0.1879" style="stop-color:#C7806A"/>
					<stop  offset="0.2545" style="stop-color:#875F58"/>
					<stop  offset="0.3515" style="stop-color:#875F58"/>
					<stop  offset="0.4242" style="stop-color:#DA8874"/>
					<stop  offset="0.5091" style="stop-color:#7E5C58"/>
					<stop  offset="0.5939" style="stop-color:#C17C69"/>
					<stop  offset="0.6303" style="stop-color:#C57E6A"/>
					<stop  offset="0.7273" style="stop-color:#82635F"/>
					<stop  offset="0.8182" style="stop-color:#9D675C"/>
					<stop  offset="0.903" style="stop-color:#DA846A"/>
					<stop  offset="0.9455" style="stop-color:#F19769"/>
					<stop  offset="0.9609" style="stop-color:#E08D66"/>
					<stop  offset="0.9913" style="stop-color:#B5725E"/>
					<stop  offset="1" style="stop-color:#A8695C"/>
				</linearGradient>
				<path style="fill:url(#SVGID_00000045606340052313239780000017480505797769735845_);" d="M251.9,455c-2.2,0-4.3-0.5-6.3-1.5
					c-10.1-4-18.4-8.1-28.8-14.3l-0.2-0.1l-0.4-0.3c-24-15-48.3-33-70.1-52c-25.1-21.7-47.2-44.7-65.8-68.4
					c-21-26.9-36.8-54.1-46.9-80.8c-11.6-30.5-16-60.7-12.9-89.7c3.6-35,19.8-66.8,45.6-89.5c11.8-10.5,25.5-18.9,40.5-24.8
					c15-5.8,30.4-8.8,45.9-8.8c23.2,0,45.3,6.6,63.8,19c13.7,9.2,25.5,21.3,35.1,36c9.5-14.8,21.2-26.9,35-36.2
					C305,31,327,24.3,350.1,24.2h0.2c15.5,0,30.9,2.9,45.7,8.6c14.9,5.7,28.6,14,40.7,24.6c25.9,22.7,42.2,54.4,45.9,89.3l0,0
					c3.1,28.8-1.2,59-12.7,89.8c-10.1,26.9-25.8,54.2-46.8,81.1c-18.3,23.7-40.3,46.8-65.5,68.7c-21.7,19.1-46,37.3-70.2,52.6
					l-0.2,0.1l-0.4,0.2c-10.4,6.2-19.1,10.5-29.8,14.8C255.3,454.6,253.5,455,251.9,455L251.9,455z M221.8,431.5
					c9.8,5.7,17.8,9.7,27.4,13.5l0.2,0.1l0.1,0.1c0.8,0.4,1.6,0.6,2.3,0.6c0.6,0,1.2-0.1,1.7-0.3c10.2-4.1,18.5-8.3,28.6-14.3
					l0.2-0.1l0.4-0.2c23.6-15,47.4-32.8,68.7-51.5c24.7-21.5,46.3-44.2,64.2-67.4c20.4-26.2,35.7-52.7,45.4-78.7
					c11-29.4,15.1-58.2,12.2-85.5l0-0.2c-3.5-32.5-18.6-62.1-42.7-83.2c-11.3-9.9-24.1-17.6-37.9-22.9c-13.8-5.3-27.9-8-42.1-8
					l-0.4,0c-21.2,0.1-41.5,6.2-58.6,17.8C277,61.1,264.8,74.5,255.4,91l-4,7.1l-4-7.1c-9.5-16.5-21.6-29.8-36.2-39.6
					C194.1,40,174,34,152.8,34h-0.3c-14.4,0-28.7,2.8-42.6,8.2c-14,5.5-26.7,13.3-37.7,23.1C48.1,86.5,33,116.2,29.7,148.9
					c-2.9,27.6,1.3,56.4,12.4,85.5c9.8,25.9,25.1,52.2,45.5,78.4c18.2,23.2,39.9,45.8,64.5,67.1c21.5,18.7,45.5,36.5,69.3,51.4
					l0.2,0.1L221.8,431.5z"/>
			</g>
			<g>
				
					<linearGradient id="SVGID_00000011730071191627596780000005536947663783332016_" gradientUnits="userSpaceOnUse" x1="250.6438" y1="454.1209" x2="250.6438" y2="23.3878">
					<stop  offset="0" style="stop-color:#AB7267"/>
					<stop  offset="7.272730e-02" style="stop-color:#7B6159"/>
					<stop  offset="0.1273" style="stop-color:#C67C61"/>
					<stop  offset="0.1879" style="stop-color:#C7806A"/>
					<stop  offset="0.2545" style="stop-color:#875F58"/>
					<stop  offset="0.3515" style="stop-color:#875F58"/>
					<stop  offset="0.4242" style="stop-color:#DA8874"/>
					<stop  offset="0.5091" style="stop-color:#7E5C58"/>
					<stop  offset="0.5939" style="stop-color:#C17C69"/>
					<stop  offset="0.6303" style="stop-color:#C57E6A"/>
					<stop  offset="0.7273" style="stop-color:#82635F"/>
					<stop  offset="0.8182" style="stop-color:#9D675C"/>
					<stop  offset="0.903" style="stop-color:#DA846A"/>
					<stop  offset="0.9455" style="stop-color:#F19769"/>
					<stop  offset="0.9609" style="stop-color:#E08D66"/>
					<stop  offset="0.9913" style="stop-color:#B5725E"/>
					<stop  offset="1" style="stop-color:#A8695C"/>
				</linearGradient>
				<path style="fill:url(#SVGID_00000011730071191627596780000005536947663783332016_);" d="M251,454.1c-2.2,0-4.3-0.5-6.3-1.5
					c-10.1-4-18.4-8.1-28.8-14.3l-0.2-0.1l-0.4-0.3c-24-15-48.3-33-70.1-52c-25.1-21.7-47.2-44.7-65.8-68.4
					c-21-26.9-36.8-54.1-46.9-80.8c-11.6-30.5-16-60.7-12.9-89.7c3.6-35,19.8-66.8,45.6-89.5C77,47,90.7,38.6,105.7,32.7
					c15-5.8,30.4-8.8,45.9-8.8c23.2,0,45.3,6.6,63.8,19c13.7,9.2,25.5,21.3,35.1,36c9.5-14.8,21.2-26.9,35-36.2
					c18.6-12.6,40.7-19.3,63.8-19.4h0.2c15.5,0,30.9,2.9,45.7,8.6c14.9,5.7,28.6,14,40.7,24.6c25.9,22.7,42.2,54.4,45.9,89.3l0,0
					c3.1,28.8-1.2,59-12.7,89.8c-10.1,26.9-25.8,54.2-46.8,81.1c-18.3,23.7-40.3,46.8-65.5,68.7c-21.7,19.1-46,37.3-70.2,52.6
					l-0.2,0.1l-0.4,0.2c-10.4,6.2-19.1,10.5-29.8,14.8C254.4,453.8,252.7,454.1,251,454.1L251,454.1z M221,430.6
					c9.8,5.7,17.8,9.7,27.4,13.5l0.2,0.1l0.1,0.1c0.8,0.4,1.6,0.6,2.3,0.6c0.6,0,1.2-0.1,1.7-0.3c10.2-4.1,18.5-8.3,28.6-14.3
					l0.2-0.1l0.4-0.2c23.6-15,47.4-32.8,68.7-51.5c24.7-21.5,46.3-44.2,64.2-67.4c20.4-26.2,35.7-52.7,45.4-78.7
					c11-29.4,15.1-58.2,12.2-85.5l0-0.2c-3.5-32.5-18.6-62.1-42.7-83.2c-11.3-9.9-24.1-17.6-37.9-22.9c-13.8-5.3-27.9-8-42.1-8
					l-0.4,0c-21.2,0.1-41.5,6.2-58.6,17.8c-14.6,9.8-26.7,23.2-36.1,39.8l-4,7.1l-4-7.1c-9.5-16.5-21.6-29.8-36.2-39.6
					c-17-11.4-37.2-17.5-58.3-17.5h-0.3c-14.4,0-28.7,2.8-42.6,8.2c-14,5.5-26.7,13.3-37.7,23.1C47.3,85.6,32.2,115.3,28.8,148
					c-2.9,27.6,1.3,56.4,12.4,85.5c9.8,25.9,25.1,52.2,45.5,78.4c18.2,23.2,39.9,45.8,64.5,67.1c21.5,18.7,45.5,36.5,69.3,51.4
					l0.2,0.1L221,430.6z"/>
			</g>
		</g>
		<g>
			
				<linearGradient id="SVGID_00000008110679463181653000000003894286261662323885_" gradientUnits="userSpaceOnUse" x1="250.6439" y1="453.2755" x2="250.6439" y2="24.2331">
				<stop  offset="0" style="stop-color:#D6A253"/>
				<stop  offset="8.387643e-02" style="stop-color:#EBCE98"/>
				<stop  offset="0.1514" style="stop-color:#F9EDCA"/>
				<stop  offset="0.1847" style="stop-color:#FFF9DD"/>
				<stop  offset="0.2986" style="stop-color:#FFF9DD"/>
				<stop  offset="0.3192" style="stop-color:#FDF0CE"/>
				<stop  offset="0.3597" style="stop-color:#F9E1B7"/>
				<stop  offset="0.3977" style="stop-color:#F7D8A9"/>
				<stop  offset="0.4303" style="stop-color:#F6D5A4"/>
				<stop  offset="0.4892" style="stop-color:#C69360"/>
				<stop  offset="0.6051" style="stop-color:#C69360"/>
				<stop  offset="0.614" style="stop-color:#D19F6C"/>
				<stop  offset="0.6337" style="stop-color:#E4B580"/>
				<stop  offset="0.6527" style="stop-color:#EFC38D"/>
				<stop  offset="0.6699" style="stop-color:#F3C791"/>
				<stop  offset="0.6726" style="stop-color:#E8B685"/>
				<stop  offset="0.6775" style="stop-color:#D89E73"/>
				<stop  offset="0.682" style="stop-color:#CE8F68"/>
				<stop  offset="0.6857" style="stop-color:#CB8A64"/>
				<stop  offset="0.6983" style="stop-color:#CE916C"/>
				<stop  offset="0.7178" style="stop-color:#D7A481"/>
				<stop  offset="0.7417" style="stop-color:#E6C4A4"/>
				<stop  offset="0.7688" style="stop-color:#FBF0D5"/>
				<stop  offset="0.7741" style="stop-color:#FFF9DF"/>
				<stop  offset="0.7957" style="stop-color:#FFF9DF"/>
				<stop  offset="0.8468" style="stop-color:#F4C994"/>
				<stop  offset="0.8861" style="stop-color:#D6AD7B"/>
				<stop  offset="0.9116" style="stop-color:#D6AD7B"/>
				<stop  offset="0.9221" style="stop-color:#DCAF75"/>
				<stop  offset="0.9509" style="stop-color:#DEB073"/>
				<stop  offset="1" style="stop-color:#AE7C58"/>
			</linearGradient>
			<path style="fill:url(#SVGID_00000008110679463181653000000003894286261662323885_);" d="M251,453.3c-2.1,0-4.1-0.5-6-1.4
				c-10-4-18.4-8.1-28.7-14.2l-0.1-0.1l-0.3-0.3c-24-15-48.2-33-70.1-51.9c-25.1-21.6-47.2-44.6-65.6-68.2
				c-21-26.8-36.7-53.9-46.8-80.6c-11.6-30.4-15.9-60.4-12.9-89.4c3.6-34.8,19.7-66.4,45.3-89C77.5,47.7,91.1,39.4,106,33.5
				c14.9-5.8,30.2-8.7,45.6-8.8c23,0,44.9,6.5,63.3,18.9c14,9.3,25.9,21.7,35.5,36.9c9.5-15.2,21.4-27.7,35.4-37.1
				c18.5-12.5,40.4-19.2,63.3-19.2h0.2c15.4,0,30.7,2.9,45.4,8.5c14.8,5.7,28.4,13.9,40.4,24.4c25.7,22.5,41.9,54.1,45.6,88.8l0,0
				c3.1,28.6-1.2,58.7-12.6,89.4c-10,26.8-25.7,54-46.7,80.9c-18.2,23.6-40.2,46.7-65.4,68.6c-21.7,19-46,37.2-70.1,52.5l-0.2,0.1
				l-0.4,0.2c-10.4,6.2-19,10.5-29.7,14.8C254.2,453,252.6,453.3,251,453.3L251,453.3z M220.5,431.3c9.9,5.8,17.9,9.7,27.6,13.6
				l0.1,0l0.1,0.1c0.9,0.5,1.8,0.7,2.7,0.7c0.7,0,1.4-0.1,2-0.4c10.3-4.1,18.6-8.3,28.7-14.3l0.1-0.1l0.4-0.2
				c23.7-15,47.5-32.9,68.9-51.6c24.8-21.6,46.4-44.3,64.4-67.5c20.5-26.3,35.8-52.8,45.6-78.9c11.1-29.6,15.2-58.5,12.2-85.9l0-0.1
				c-3.5-32.8-18.8-62.5-43-83.8c-11.4-9.9-24.2-17.7-38.2-23c-13.8-5.3-28.1-8-42.4-8l-0.4,0c-21.4,0.1-41.8,6.3-59.1,17.9
				c-14.7,9.9-26.9,23.4-36.4,40l-3.3,5.8l-3.3-5.8c-9.5-16.6-21.8-30.1-36.5-39.9c-17.2-11.5-37.5-17.6-58.8-17.6h-0.3
				c-14.5,0-28.9,2.8-42.9,8.2c-14.1,5.6-26.9,13.4-38,23.3C46.6,85.1,31.4,115,28,147.9c-2.9,27.7,1.3,56.6,12.4,85.9
				c9.8,25.9,25.2,52.4,45.7,78.6c18.2,23.2,39.9,45.9,64.6,67.2c21.6,18.7,45.6,36.5,69.4,51.4l0.1,0.1L220.5,431.3z"/>
		</g>
		<g>
			<g>
				
					<linearGradient id="SVGID_00000093864542207875524680000007865172601052854969_" gradientUnits="userSpaceOnUse" x1="250.3346" y1="450.4299" x2="250.3346" y2="26.4599" gradientTransform="matrix(1 0 0 1 2 2)">
					<stop  offset="0" style="stop-color:#B98557"/>
					<stop  offset="5.263160e-02" style="stop-color:#BE8857"/>
					<stop  offset="9.473679e-02" style="stop-color:#CC8F5B"/>
					<stop  offset="0.1316" style="stop-color:#D9975F"/>
					<stop  offset="0.2395" style="stop-color:#FFAF68"/>
					<stop  offset="0.3237" style="stop-color:#FFAF68"/>
					<stop  offset="0.4447" style="stop-color:#D19567"/>
					<stop  offset="0.4632" style="stop-color:#D19567"/>
					<stop  offset="0.4737" style="stop-color:#D39669"/>
					<stop  offset="0.5395" style="stop-color:#FFB574"/>
					<stop  offset="0.5974" style="stop-color:#FFB574"/>
					<stop  offset="0.7211" style="stop-color:#DD9C6A"/>
					<stop  offset="1" style="stop-color:#B78461"/>
				</linearGradient>
				<path style="fill:url(#SVGID_00000093864542207875524680000007865172601052854969_);" d="M252.7,452.4c-1.7,0-3.4-0.4-4.9-1.2
					c-9.9-3.9-18.2-8-28.5-14.1l-0.3-0.3c-23.9-14.9-48.1-32.9-69.9-51.8c-24.9-21.5-46.9-44.4-65.3-67.9
					c-20.8-26.6-36.4-53.5-46.4-79.9c-11.4-30-15.7-59.7-12.7-88.2c3.5-34.2,19.3-65.2,44.5-87.4C80.7,51.5,94,43.3,108.6,37.6
					c14.6-5.7,29.6-8.6,44.7-8.6c22.4,0,43.8,6.3,61.9,18.5c14.8,9.9,27.2,23.2,37,39.7c9.7-16.5,22.1-29.9,36.8-39.9
					c18.1-12.2,39.5-18.7,61.9-18.8c15.1,0,30.1,2.8,44.6,8.3c14.5,5.6,27.8,13.6,39.7,23.9c25.3,22.1,41.1,53.1,44.7,87.1v0
					c3,28.2-1.2,57.9-12.5,88.2c-9.9,26.6-25.5,53.5-46.3,80.2c-18.1,23.5-40,46.4-65,68.2c-21.6,19-45.8,37-69.8,52.3L286,437
					c-10.3,6.2-18.9,10.4-29.5,14.7C255.3,452.2,254,452.4,252.7,452.4C252.7,452.4,252.7,452.4,252.7,452.4z M153.7,31.5
					c-0.1,0-0.2,0-0.3,0c-14.8,0-29.5,2.9-43.8,8.4c-14.4,5.7-27.4,13.7-38.8,23.7c-24.7,21.7-40.2,52.2-43.7,85.7
					c-2.9,28.1,1.3,57.4,12.6,87.1c9.9,26.2,25.4,52.8,46,79.3c18.3,23.4,40.1,46.1,65,67.5c21.7,18.8,45.8,36.7,69.7,51.7l0.3,0.2
					c10,5.8,18.1,9.9,28.1,13.8c1.3,0.7,2.6,1,3.9,1c0,0,0,0,0,0c0.9,0,2-0.2,2.9-0.5c10.5-4.2,18.9-8.4,29.2-14.5l0.5-0.2
					c23.8-15.1,47.8-33.1,69.3-52c24.9-21.7,46.7-44.5,64.7-67.9c20.6-26.5,36.1-53.3,45.9-79.6c11.2-29.9,15.4-59.2,12.4-87.1v0
					c-3.5-33.5-19.1-63.8-43.9-85.5c-11.6-10.1-24.7-18-38.9-23.5c-14.2-5.5-28.9-8.2-43.7-8.2c-21.9,0.1-42.8,6.4-60.5,18.4
					c-15,10.1-27.5,23.9-37.1,40.9l-1.1,1.9l-1.1-1.9c-9.7-17-22.3-30.7-37.3-40.7C196.3,37.7,175.5,31.5,153.7,31.5z"/>
			</g>
			<g>
				
					<linearGradient id="SVGID_00000005966977669236379400000001188548346749320604_" gradientUnits="userSpaceOnUse" x1="250.4892" y1="450.5845" x2="250.4892" y2="26.6144" gradientTransform="matrix(1 0 0 1 1 1)">
					<stop  offset="0" style="stop-color:#B98557"/>
					<stop  offset="5.263160e-02" style="stop-color:#BE8857"/>
					<stop  offset="9.473679e-02" style="stop-color:#CC8F5B"/>
					<stop  offset="0.1316" style="stop-color:#D9975F"/>
					<stop  offset="0.2395" style="stop-color:#FFAF68"/>
					<stop  offset="0.3237" style="stop-color:#FFAF68"/>
					<stop  offset="0.4447" style="stop-color:#D19567"/>
					<stop  offset="0.4632" style="stop-color:#D19567"/>
					<stop  offset="0.4737" style="stop-color:#D39669"/>
					<stop  offset="0.5395" style="stop-color:#FFB574"/>
					<stop  offset="0.5974" style="stop-color:#FFB574"/>
					<stop  offset="0.7211" style="stop-color:#DD9C6A"/>
					<stop  offset="1" style="stop-color:#B78461"/>
				</linearGradient>
				<path style="fill:url(#SVGID_00000005966977669236379400000001188548346749320604_);" d="M251.9,451.6c-1.7,0-3.4-0.4-4.9-1.2
					c-9.9-3.9-18.2-8-28.5-14.1l-0.3-0.3c-23.9-14.9-48.1-32.9-69.9-51.8c-24.9-21.5-46.9-44.4-65.3-67.9
					c-20.8-26.6-36.4-53.5-46.4-79.9c-11.4-30-15.7-59.7-12.7-88.2c3.5-34.2,19.3-65.2,44.5-87.4c11.5-10.3,24.8-18.4,39.5-24.2
					c14.6-5.7,29.6-8.6,44.7-8.6c22.4,0,43.8,6.3,61.9,18.5c14.8,9.9,27.2,23.2,37,39.7c9.7-16.5,22.1-29.9,36.8-39.9
					c18.1-12.2,39.5-18.7,61.9-18.8c15.1,0,30.1,2.8,44.6,8.3c14.5,5.6,27.8,13.6,39.7,23.9c25.3,22.1,41.1,53.1,44.7,87.1v0
					c3,28.2-1.2,57.9-12.5,88.2c-9.9,26.6-25.5,53.5-46.3,80.2c-18.1,23.5-40,46.4-65,68.2c-21.6,19-45.8,37-69.8,52.3l-0.4,0.2
					c-10.3,6.2-18.9,10.4-29.5,14.7C254.4,451.3,253.1,451.6,251.9,451.6C251.9,451.6,251.9,451.6,251.9,451.6z M152.8,30.6
					c-0.1,0-0.2,0-0.3,0c-14.8,0-29.5,2.9-43.8,8.4c-14.4,5.7-27.4,13.7-38.8,23.7C45.2,84.5,29.7,115,26.3,148.5
					c-2.9,28.1,1.3,57.4,12.6,87.1c9.9,26.2,25.4,52.8,46,79.3c18.3,23.4,40.1,46.1,65,67.5c21.7,18.8,45.8,36.7,69.7,51.7l0.3,0.2
					c10,5.8,18.1,9.9,28.1,13.8c1.3,0.7,2.6,1,3.9,1c0,0,0,0,0,0c0.9,0,2-0.2,2.9-0.5c10.5-4.2,18.9-8.4,29.2-14.5l0.5-0.2
					c23.8-15.1,47.8-33.1,69.3-52c24.9-21.7,46.7-44.5,64.7-67.9c20.6-26.5,36.1-53.3,45.9-79.6c11.2-29.9,15.4-59.2,12.4-87.1v0
					c-3.5-33.5-19.1-63.8-43.9-85.5c-11.6-10.1-24.7-18-38.9-23.5c-14.2-5.5-28.9-8.2-43.7-8.2c-21.9,0.1-42.8,6.4-60.5,18.4
					c-15,10.1-27.5,23.9-37.1,40.9l-1.1,1.9l-1.1-1.9c-9.7-17-22.3-30.7-37.3-40.7C195.5,36.9,174.7,30.6,152.8,30.6z"/>
			</g>
			<g>
				
					<linearGradient id="SVGID_00000088812648168977577490000006073789762874188474_" gradientUnits="userSpaceOnUse" x1="250.6439" y1="450.7392" x2="250.6439" y2="26.7692">
					<stop  offset="0" style="stop-color:#B98557"/>
					<stop  offset="5.263160e-02" style="stop-color:#BE8857"/>
					<stop  offset="9.473679e-02" style="stop-color:#CC8F5B"/>
					<stop  offset="0.1316" style="stop-color:#D9975F"/>
					<stop  offset="0.2395" style="stop-color:#FFAF68"/>
					<stop  offset="0.3237" style="stop-color:#FFAF68"/>
					<stop  offset="0.4447" style="stop-color:#D19567"/>
					<stop  offset="0.4632" style="stop-color:#D19567"/>
					<stop  offset="0.4737" style="stop-color:#D39669"/>
					<stop  offset="0.5395" style="stop-color:#FFB574"/>
					<stop  offset="0.5974" style="stop-color:#FFB574"/>
					<stop  offset="0.7211" style="stop-color:#DD9C6A"/>
					<stop  offset="1" style="stop-color:#B78461"/>
				</linearGradient>
				<path style="fill:url(#SVGID_00000088812648168977577490000006073789762874188474_);" d="M251,450.7c-1.7,0-3.4-0.4-4.9-1.2
					c-9.9-3.9-18.2-8-28.5-14.1l-0.3-0.3c-23.9-14.9-48.1-32.9-69.9-51.8c-24.9-21.5-46.9-44.4-65.3-67.9
					c-20.8-26.6-36.4-53.5-46.4-79.9c-11.4-30-15.7-59.7-12.7-88.2c3.5-34.2,19.3-65.2,44.5-87.4C79,49.8,92.3,41.6,107,35.9
					c14.6-5.7,29.6-8.6,44.7-8.6c22.4,0,43.8,6.3,61.9,18.5c14.8,9.9,27.2,23.2,37,39.7c9.7-16.5,22.1-29.9,36.8-39.9
					c18.1-12.2,39.5-18.7,61.9-18.8c15.1,0,30.1,2.8,44.6,8.3c14.5,5.6,27.8,13.6,39.7,23.9c25.3,22.1,41.1,53.1,44.7,87.1v0
					c3,28.2-1.2,57.9-12.5,88.2c-9.9,26.6-25.5,53.5-46.3,80.2c-18.1,23.5-40,46.4-65,68.2c-21.6,19-45.8,37-69.8,52.3l-0.4,0.2
					c-10.3,6.2-18.9,10.4-29.5,14.7C253.6,450.5,252.3,450.7,251,450.7C251,450.7,251,450.7,251,450.7z M152,29.8
					c-0.1,0-0.2,0-0.3,0c-14.8,0-29.5,2.9-43.8,8.4c-14.4,5.7-27.4,13.7-38.8,23.7c-24.7,21.7-40.2,52.2-43.7,85.7
					c-2.9,28.1,1.3,57.4,12.6,87.1c9.9,26.2,25.4,52.8,46,79.3c18.3,23.4,40.1,46.1,65,67.5c21.7,18.8,45.8,36.7,69.7,51.7l0.3,0.2
					c10,5.8,18.1,9.9,28.1,13.8c1.3,0.7,2.6,1,3.9,1c0,0,0,0,0,0c0.9,0,2-0.2,2.9-0.5c10.5-4.2,18.9-8.4,29.2-14.5l0.5-0.2
					c23.8-15.1,47.8-33.1,69.3-52c24.9-21.7,46.7-44.5,64.7-67.9c20.6-26.5,36.1-53.3,45.9-79.6c11.2-29.9,15.4-59.2,12.4-87.1v0
					c-3.5-33.5-19.1-63.8-43.9-85.5c-11.6-10.1-24.7-18-38.9-23.5c-14.2-5.5-28.9-8.2-43.7-8.2c-21.9,0.1-42.8,6.4-60.5,18.4
					c-15,10.1-27.5,23.9-37.1,40.9l-1.1,1.9l-1.1-1.9c-9.7-17-22.3-30.7-37.3-40.7C194.6,36,173.8,29.8,152,29.8z"/>
			</g>
		</g>
		<g>
			
				<linearGradient id="SVGID_00000134934854180492640540000015902429120136722609_" gradientUnits="userSpaceOnUse" x1="250.6439" y1="450.7392" x2="250.6439" y2="26.7692">
				<stop  offset="0" style="stop-color:#FFE39A"/>
				<stop  offset="2.048444e-02" style="stop-color:#F7D490"/>
				<stop  offset="6.968737e-02" style="stop-color:#E7B47B"/>
				<stop  offset="0.1111" style="stop-color:#DDA06F"/>
				<stop  offset="0.1394" style="stop-color:#D9996A"/>
				<stop  offset="0.1857" style="stop-color:#C7875E"/>
				<stop  offset="0.2182" style="stop-color:#B87754"/>
				<stop  offset="0.2716" style="stop-color:#D6A273"/>
				<stop  offset="0.3325" style="stop-color:#F3CC93"/>
				<stop  offset="0.3636" style="stop-color:#FFDD9F"/>
				<stop  offset="0.4545" style="stop-color:#FFF6CF"/>
				<stop  offset="0.5576" style="stop-color:#FDFDF8"/>
				<stop  offset="0.6545" style="stop-color:#FFF4BF"/>
				<stop  offset="0.7758" style="stop-color:#FFDA8E"/>
				<stop  offset="0.8076" style="stop-color:#F8CD84"/>
				<stop  offset="0.8659" style="stop-color:#E7AC69"/>
				<stop  offset="0.903" style="stop-color:#DA9355"/>
				<stop  offset="1" style="stop-color:#946350"/>
			</linearGradient>
			<path style="fill:url(#SVGID_00000134934854180492640540000015902429120136722609_);" d="M251,450.7c-1.7,0-3.4-0.4-4.9-1.2
				c-9.9-3.9-18.2-8-28.5-14.1l-0.3-0.3c-23.9-14.9-48.1-32.9-69.9-51.8c-24.9-21.5-46.9-44.4-65.3-67.9
				c-20.8-26.6-36.4-53.5-46.4-79.9c-11.4-30-15.7-59.7-12.7-88.2c3.5-34.2,19.3-65.2,44.5-87.4C79,49.8,92.3,41.6,107,35.9
				c14.6-5.7,29.6-8.6,44.7-8.6c22.4,0,43.8,6.3,61.9,18.5c14.8,9.9,27.2,23.2,37,39.7c9.7-16.5,22.1-29.9,36.8-39.9
				c18.1-12.2,39.5-18.7,61.9-18.8c15.1,0,30.1,2.8,44.6,8.3c14.5,5.6,27.8,13.6,39.7,23.9c25.3,22.1,41.1,53.1,44.7,87.1v0
				c3,28.2-1.2,57.9-12.5,88.2c-9.9,26.6-25.5,53.5-46.3,80.2c-18.1,23.5-40,46.4-65,68.2c-21.6,19-45.8,37-69.8,52.3l-0.4,0.2
				c-10.3,6.2-18.9,10.4-29.5,14.7C253.6,450.5,252.3,450.7,251,450.7C251,450.7,251,450.7,251,450.7z M152,29.8c-0.1,0-0.2,0-0.3,0
				c-14.8,0-29.5,2.9-43.8,8.4c-14.4,5.7-27.4,13.7-38.8,23.7c-24.7,21.7-40.2,52.2-43.7,85.7c-2.9,28.1,1.3,57.4,12.6,87.1
				c9.9,26.2,25.4,52.8,46,79.3c18.3,23.4,40.1,46.1,65,67.5c21.7,18.8,45.8,36.7,69.7,51.7l0.3,0.2c10,5.8,18.1,9.9,28.1,13.8
				c1.3,0.7,2.6,1,3.9,1c0,0,0,0,0,0c0.9,0,2-0.2,2.9-0.5c10.5-4.2,18.9-8.4,29.2-14.5l0.5-0.2c23.8-15.1,47.8-33.1,69.3-52
				c24.9-21.7,46.7-44.5,64.7-67.9c20.6-26.5,36.1-53.3,45.9-79.6c11.2-29.9,15.4-59.2,12.4-87.1v0c-3.5-33.5-19.1-63.8-43.9-85.5
				c-11.6-10.1-24.7-18-38.9-23.5c-14.2-5.5-28.9-8.2-43.7-8.2c-21.9,0.1-42.8,6.4-60.5,18.4c-15,10.1-27.5,23.9-37.1,40.9l-1.1,1.9
				l-1.1-1.9c-9.7-17-22.3-30.7-37.3-40.7C194.6,36,173.8,29.8,152,29.8z"/>
		</g>
	</g>
</g>
<g>
	
		<linearGradient id="SVGID_00000158000589104543531940000012311064487567719054_" gradientUnits="userSpaceOnUse" x1="98.3102" y1="236.5192" x2="184.3581" y2="236.5192">
		<stop  offset="0" style="stop-color:#FFE39A"/>
		<stop  offset="0.3636" style="stop-color:#FFDD9F"/>
		<stop  offset="0.4545" style="stop-color:#FFF6CF"/>
		<stop  offset="0.5576" style="stop-color:#FDFDF8"/>
		<stop  offset="0.6545" style="stop-color:#FFF4BF"/>
		<stop  offset="0.7758" style="stop-color:#FFDA8E"/>
	</linearGradient>
	<path style="fill:url(#SVGID_00000158000589104543531940000012311064487567719054_);" d="M110.3,279.6c3.4-0.6,5.8-1.4,7.2-2.4
		c2.3-1.7,3.2-4.4,2.7-8.1l-8.9-61.7c-0.5-3.7-2.1-6-4.6-7c-1.5-0.6-4.1-0.7-7.9-0.4l-0.5-3.2l39.4-5.7c7.6-1.1,14-1.1,19.3-0.1
		c9.9,1.9,15.5,7.2,16.8,15.9c0.8,5.3-0.5,9.7-3.9,13.4c-3.4,3.6-7.3,6.2-11.6,7.7l0.2,1.2c4.9,0.2,9.2,1.2,13,2.8
		c7.4,3.2,11.7,8.6,12.8,16.2c1,7.1-1.4,13.2-7.3,18.6c-5.9,5.3-14.2,8.8-25.1,10.3l-41,5.9L110.3,279.6L110.3,279.6z M150.8,224.7
		c2.3-3,3-7.7,2.1-14.3c-0.7-4.9-2.2-8.8-4.4-11.9s-5.9-4.2-10.9-3.5c-2.7,0.4-4.4,1.1-5.3,2.1c-0.9,1-1.2,2.7-0.9,5l4.1,28.6
		C143.3,229.7,148.4,227.6,150.8,224.7L150.8,224.7z M142.3,271.3c1.3,1.7,3.4,2.3,6.4,1.9c6-0.9,10-3.1,12-6.8
		c2-3.6,2.5-8.5,1.6-14.5c-1.3-9-4.9-14.7-10.6-16.9c-3.5-1.4-8.7-1.5-15.6-0.3l4.6,31.9C141,268.8,141.5,270.4,142.3,271.3
		L142.3,271.3z"/>
	
		<linearGradient id="SVGID_00000112624933550660035570000006271677616736908713_" gradientUnits="userSpaceOnUse" x1="183.3009" y1="222.1952" x2="271.5556" y2="222.1952">
		<stop  offset="0" style="stop-color:#FFE39A"/>
		<stop  offset="0.3636" style="stop-color:#FFDD9F"/>
		<stop  offset="0.4545" style="stop-color:#FFF6CF"/>
		<stop  offset="0.5576" style="stop-color:#FDFDF8"/>
		<stop  offset="0.6545" style="stop-color:#FFF4BF"/>
		<stop  offset="0.7758" style="stop-color:#FFDA8E"/>
	</linearGradient>
	<path style="fill:url(#SVGID_00000112624933550660035570000006271677616736908713_);" d="M195.8,270.6l-0.5-3.2
		c3.6-0.7,6.2-1.5,7.6-2.6c2.2-1.7,3-4.3,2.5-8l-8.9-61.7c-0.5-3.7-2.1-6-4.8-6.9c-1.5-0.6-4.1-0.7-7.9-0.4l-0.5-3.2l73.4-10.6
		l3.7,25.7l-3.1,0.5c-2.8-8-6.4-13.2-10.7-15.7s-11.6-3-21.8-1.5c-3.9,0.6-6.3,1.3-7.3,2.3c-0.9,1-1.2,2.6-0.9,5.1l4.3,29.5
		c7.3-1,12-3,14.2-6.1c2.2-3.1,3.4-8.3,3.8-15.8l3.2-0.5l6.2,43.1l-3.2,0.5c-2-7.1-4.6-12-7.8-14.5c-3.2-2.6-8.5-3.3-15.7-2.3
		L226,255c0.4,2.7,1.4,4.4,2.9,5.2c1.5,0.8,4.5,0.8,8.8,0.2c8.1-1.2,14.5-3.7,19.2-7.6c4.7-3.9,8.4-10.5,11.1-19.7l3.5-0.5
		l-1.3,27.3L195.8,270.6L195.8,270.6z"/>
	
		<linearGradient id="SVGID_00000078007419889368462020000007550508992470741127_" gradientUnits="userSpaceOnUse" x1="274.6615" y1="210.493" x2="339.831" y2="210.493">
		<stop  offset="0" style="stop-color:#FFE39A"/>
		<stop  offset="0.3636" style="stop-color:#FFDD9F"/>
		<stop  offset="0.4545" style="stop-color:#FFF6CF"/>
		<stop  offset="0.5576" style="stop-color:#FDFDF8"/>
		<stop  offset="0.6545" style="stop-color:#FFF4BF"/>
		<stop  offset="0.7758" style="stop-color:#FFDA8E"/>
	</linearGradient>
	<path style="fill:url(#SVGID_00000078007419889368462020000007550508992470741127_);" d="M278.9,228.2l3.7-0.5
		c3.4,9.2,7.7,15.7,12.8,19.3c5.1,3.7,10.6,5.1,16.5,4.2c5.7-0.8,9.5-2.9,11.5-6.2s2.7-6.6,2.2-9.9c-0.5-3.8-2.3-6.8-5.1-8.8
		c-1.9-1.3-5.5-2.9-10.9-4.7l-8.7-2.9c-8.6-2.9-14.9-6.1-18.8-9.6c-3.9-3.5-6.3-8.2-7.1-14c-0.9-6.2,0.5-12.4,4.1-18.4
		c3.6-6,9.9-9.7,19-11c4.6-0.7,9.2-0.6,13.7,0.2c4.5,0.8,7.1,1.1,7.7,1c1.4-0.2,2.3-0.7,2.7-1.6c0.4-0.9,0.7-2,0.8-3.4l3.8-0.5
		l4,27.7l-3.5,0.5c-2.6-6.2-6.3-11.3-11.2-15.3c-4.9-4-10.3-5.6-16.3-4.8c-4.2,0.6-7.4,2.3-9.5,5c-2.1,2.7-2.9,5.7-2.4,9.1
		c0.6,4,2.2,6.9,4.8,8.5c2.6,1.7,8,4,16.5,6.8l10.1,3.4c4.5,1.5,8.2,3.4,11.1,5.6c5.4,4.1,8.5,9.6,9.5,16.5
		c0.9,6.4-0.7,12.9-4.9,19.3c-4.2,6.4-11.8,10.4-22.8,12c-2.5,0.4-5.1,0.5-7.8,0.4c-2.7-0.1-5.3-0.5-8-1.1l-2.6-0.6
		c-0.6-0.1-1.2-0.1-1.7-0.2c-0.5,0-1,0-1.4,0c-1.3,0.2-2.2,0.7-2.5,1.5c-0.4,0.8-0.7,2-0.8,3.5l-3.7,0.5L278.9,228.2L278.9,228.2z"
		/>
	
		<linearGradient id="SVGID_00000021838828734821553880000017921818273158196630_" gradientUnits="userSpaceOnUse" x1="340.4837" y1="198.0541" x2="421.054" y2="198.0541">
		<stop  offset="0" style="stop-color:#FFE39A"/>
		<stop  offset="0.3636" style="stop-color:#FFDD9F"/>
		<stop  offset="0.4545" style="stop-color:#FFF6CF"/>
		<stop  offset="0.5576" style="stop-color:#FDFDF8"/>
		<stop  offset="0.6545" style="stop-color:#FFF4BF"/>
		<stop  offset="0.7758" style="stop-color:#FFDA8E"/>
	</linearGradient>
	<path style="fill:url(#SVGID_00000021838828734821553880000017921818273158196630_);" d="M340.5,161.7l76.7-11.1l3.8,25.7l-3.7,0.5
		c-2.5-9-6.9-14.7-13-17.2c-3.5-1.3-8.4-1.6-14.7-0.9l9.7,67.1c0.7,4.7,1.9,7.7,3.8,9c1.9,1.3,5.4,1.6,10.6,0.8l0.5,3.2l-45.4,6.6
		l-0.5-3.2c5-0.7,8.2-2,9.6-3.8s1.8-5,1.1-9.7l-9.7-67.1c-6.2,1.1-10.8,2.7-13.9,5c-5.6,4.2-8.2,10.9-7.6,20.1l-3.7,0.5L340.5,161.7
		L340.5,161.7z"/>
</g>
</svg>
