<?xml version="1.0" encoding="UTF-8"?><svg id="_圖層_3" xmlns="http://www.w3.org/2000/svg" viewBox="0 0 104.55 59.81"><defs><style>.cls-1{fill:none;}.cls-2{fill:#292929;opacity:.1;}.cls-3{fill:#ffb0c0;}.cls-4{fill:#fff;}.cls-5{fill:#ffe363;}.cls-6{fill:#ffe98d;}.cls-7{fill:#ffc32a;}.cls-8{fill:#ff93b5;}.cls-9{fill:#ff7ca0;}.cls-10{fill:#a8e7ed;}.cls-11{fill:#514e4f;}</style></defs><path class="cls-6" d="M22.79,4.82c.52,2.73,.35,4.86-.5,6.38-.5,.89-1.13,1.71-1.89,2.46-.67,.64-1.16,1-1.46,1.07-.54,.13-.88-.1-1.01-.67-.02-.08-.02-.17-.01-.27,0-.08,.01-.17,.04-.26-.08,.04-.17,.07-.28,.09l-1.79,.42,.76,3.25,1.46-.34c.57-.13,.93,.09,1.07,.68,.13,.54-.1,.88-.67,1.01l-1.46,.34,1.28,5.47c.89,.01,2.01-.14,3.37-.46l10.17-2.37c.57-.13,.93,.09,1.06,.66,.13,.54-.1,.88-.67,1.01l-11.84,2.76c-.8,.19-1.44,.32-1.94,.4-.72,.1-1.38,.14-1.99,.11-1.47-.06-2.83-.54-4.06-1.44-.08,.61-.18,1.18-.32,1.74-.1,.43-.21,.77-.31,1.03-.16,.37-.38,.59-.65,.66-.57,.13-.93-.09-1.06-.66-.01-.06-.02-.2-.02-.4,0-.13,0-.24,.02-.33,.03-.96-.03-2.01-.18-3.13-.15-1.29-.42-2.76-.8-4.39l-.46-1.75c-.18-.78,.23-1.29,1.23-1.52,.72-.17,1.23-.09,1.54,.22,.18,.19,.34,.61,.49,1.24,.13,.56,.24,1.14,.34,1.76,.13,.76,.21,1.51,.25,2.26l.46,.47c.22,.22,.47,.44,.76,.65l-1.86-7.97-3.44,.8c-.57,.13-.93-.09-1.06-.66-.13-.54,.1-.88,.67-1.01l3.44-.8-.79-3.37-2.86,.67c-.56,.13-.9-.09-1.04-.66s.08-.9,.64-1.03l2.86-.67-.41-1.77c-.25-1.05,.32-1.74,1.71-2.06s2.1,.06,2.35,1.11l.41,1.77,1.34-.31c.57-.13,.93,.09,1.06,.66s-.09,.9-.66,1.04l-1.34,.31,.79,3.37,1.79-.42c.61-.14,.97,.13,1.09,.8l.15-.31c.07-.15,.12-.3,.17-.44,.14-.42,.23-.86,.29-1.33,.09-.62,.11-1.3,.06-2.03-.04-.88-.17-1.83-.39-2.85l-1.65,.38c-.11,.03-.21,.04-.29,.04-.12,.01-.22,0-.31-.03-.22-.08-.37-.3-.45-.65s-.02-.64,.19-.82c.07-.05,.16-.1,.27-.14,.03-.02,.07-.04,.11-.05l9.62-2.24c.11-.03,.22-.04,.34-.05,.26-.03,.49-.01,.69,.04,.57,.14,.94,.57,1.11,1.3,.77,3.31,1,5.49,.67,6.54-.16,.52-.48,.92-.96,1.18-.34,.21-.9,.41-1.7,.6l-2.86,.67c-.11,.03-.21,.04-.29,.04-.12,0-.22,0-.31-.05-.22-.08-.37-.3-.45-.65s-.02-.64,.19-.82c.07-.05,.16-.1,.27-.14,.03-.02,.07-.04,.11-.05l.86-.2c.73-.17,1.11-.56,1.14-1.17,.03-.36-.06-1.11-.27-2.25l-.25-1.3-.23-.98c-.07-.3-.27-.41-.61-.34l-.79,.18Zm.22,17.67c-.17,.04-.33,.07-.46,.08-.36,.05-.66,.04-.91-.01-.65-.12-1.07-.57-1.25-1.37l-1.08-4.61c-.04-.16-.06-.3-.08-.43-.03-.33,0-.6,.06-.82,.17-.58,.7-.97,1.61-1.18l6.71-1.56c.17-.04,.34-.07,.48-.09,.36-.05,.66-.04,.91,.01,.65,.12,1.07,.58,1.26,1.39l1.07,4.58c.04,.16,.06,.3,.08,.44,.03,.33,0,.6-.06,.82-.17,.58-.7,.97-1.61,1.18l-6.73,1.57Zm1.5-2.64c.07,.32,.27,.44,.59,.37l1.62-.38c.32-.07,.44-.27,.37-.59l-.94-4.03c-.07-.32-.27-.44-.59-.37l-1.62,.38c-.32,.07-.44,.27-.37,.59l.94,4.03Z"/><path class="cls-6" d="M56.02,13.58c1.11,.04,1.65,.63,1.61,1.79,0,.15-.03,.34-.07,.59-.02,.18-.06,.42-.12,.73-.19,.88-.44,1.71-.74,2.5-.27,.68-.57,1.33-.92,1.96-.29,.51-.62,1.01-.98,1.49-.24,.34-.51,.67-.82,1,.6,.64,1.21,1.22,1.83,1.73l1.46,1.08c.08,.05,.14,.09,.17,.13l.17,.15c.11,.15,.16,.32,.15,.52-.02,.59-.31,.87-.89,.85-.3,0-.91-.27-1.86-.77-.5-.26-1-.55-1.49-.86-.54-.36-1.05-.73-1.53-1.1-.6,.42-1.24,.8-1.92,1.14-.58,.29-1.17,.54-1.76,.75-.48,.16-.93,.3-1.34,.4-.35,.07-.59,.1-.71,.1-.52-.02-.78-.29-.76-.83,.01-.34,.21-.62,.59-.81l.8-.47c.32-.19,.61-.37,.88-.56,.7-.52,1.36-1.12,1.97-1.82-.44-.5-.79-.95-1.04-1.33-.09-.15-.18-.3-.26-.45l-.21-.4c-1.17,2.5-2.74,4.52-4.68,6.08-.44,.33-.77,.49-1,.48-.57-.02-.85-.32-.83-.91,0-.23,.11-.45,.32-.65,.24-.29,.43-.53,.59-.74,.2-.29,.42-.63,.65-1.03-.59,.05-.98-.13-1.16-.53-.03-.08-.07-.25-.11-.49-.03-.18-.04-.43-.05-.74l-.06-1.08-.31-2.46c.02-.56,.29-.82,.83-.81,.26,0,.49,.14,.67,.39,.17,.24,.39,.55,.66,.95,.3,.5,.59,1.02,.88,1.55,.33-.99,.61-2.16,.85-3.53-.18,.37-.47,.64-.88,.81-.17,.06-.34,.1-.52,.13-.13,.01-.25,.02-.37,.01-.49-.02-.82-.19-.99-.52-.09-.13-.16-.32-.2-.57-.03-.13-.07-.39-.12-.76l-.39,.09c-.1,.01-.16,.03-.2,.04-.1,.01-.2,.03-.29,.06l-.3,9.31c-.03,1.01-.69,1.5-1.99,1.46s-1.84-.57-1.81-1.58l.16-5.09c-.38,1.7-1.04,3.37-1.98,4.99l-.13,.22-.15,.17c-.14,.13-.29,.19-.47,.18-.56-.02-.82-.33-.8-.93l.41-2.76c.11-.9,.18-1.68,.22-2.35,.04-.75,.12-1.25,.25-1.49,.19-.4,.59-.59,1.19-.57,.28,0,.55,.07,.8,.17,.35,.14,.59,.34,.72,.59l.05-1.62-2.14,.28c-.44-.01-.78-.24-1.01-.67-.17-.33-.25-.7-.23-1.09,.02-.56,.23-.91,.65-1.06,.25-.09,.72-.12,1.4-.08,.17-.24,.34-.46,.51-.67l.87-1.1c-.21-.14-.38-.34-.52-.6-.88-1.66-1.56-2.81-2.05-3.43,0-.02,0-.03-.02-.05l-.12-.13-.12-.2c-.08-.15-.11-.31-.11-.47,.02-.57,.31-.85,.88-.83,.2,0,.57,.21,1.11,.6,.29-.74,.57-1.57,.84-2.47,.29-.95,.86-1.42,1.69-1.39,.57,.02,1.1,.17,1.58,.47,.58,.33,.86,.75,.84,1.25-.01,.34-.28,.83-.8,1.45-.51,.59-.95,1.08-1.32,1.48-.25,.27-.5,.52-.73,.74,.45,.36,.72,.6,.83,.74,.36-.54,.66-1.02,.9-1.42l.65-1.18c.34-.63,.84-.93,1.47-.91s1.23,.24,1.77,.67c.54,.44,.8,.9,.79,1.37-.01,.33-.25,.73-.72,1.2-.47,.49-.99,1.02-1.57,1.59-.47,.46-.98,.93-1.52,1.42l-1.54,1.4-.43,.35s-.05,.06-.08,.07c0,.02-.02,.03-.05,.05,0,.02,0,.02-.02,.02l2.72-.04-.33-1.26c-.03-.16-.04-.28-.04-.34,.02-.57,.31-.85,.88-.83,.26,0,.62,.36,1.07,1.04l1.14,1.78c.22,.37,.39,.68,.51,.95,.15,.32,.24,.55,.25,.69,.1-.62,.18-1.53,.26-2.74,.06-.95,.11-1.9,.14-2.87l.14-4.51-1.32-.04c-.59-.02-.87-.32-.85-.91s.32-.85,.91-.83l10.51,.34c.95,.03,1.4,.51,1.37,1.44,0,.15-.03,.3-.06,.46l-1.32,5.87c-.07,.28,.01,.42,.26,.43h.41Zm-3.75-6.26v-.12c-.02-.11-.12-.18-.28-.18l-1.67-.05-.17,5.19c-.04,1.11,0,2.17,.12,3.19,.1,.85,.25,1.66,.44,2.42,.16,.59,.34,1.15,.53,1.66l.39,.9c.74-1.64,1.13-3.23,1.18-4.77,0-.23-.09-.35-.28-.35-1.16-.04-1.72-.5-1.7-1.38l1.43-6.5Z"/><path class="cls-4" d="M21.67,41.55c.02-.45,.04-1.02,.05-1.71,.02-.45,.04-1.09,.05-1.93l.02-1.9c.01-.71,.03-1.28,.05-1.71,.05-1.39,.84-2.12,2.37-2.16l15.71-.5c.69-.02,1.27,.17,1.76,.57,.32,.28,.53,.61,.65,.98,.04,.14,.07,.31,.1,.48l.05,1.71c.01,.38,.02,.78,.01,1.19,0,.81,0,2.25,0,4.31l1.57-.05c.65-.02,.98,.29,1.01,.94s-.29,.96-.94,.98l-1.65,.05c0,1.38-.04,2.62-.1,3.75-.07,1.25-.17,2.55-.31,3.91l1.71-.05c.65-.02,.99,.3,1.01,.97,.02,.61-.29,.93-.94,.95l-2.03,.07c-.26,1.56-.72,2.62-1.39,3.16-.69,.56-1.91,.87-3.66,.93l-5.36,.17c-.65,.02-.98-.29-1.01-.94s.29-.96,.94-.98l3.01-.1c.9-.03,1.53-.18,1.88-.47,.32-.28,.55-.82,.71-1.62l-14.03,.45c-1.48,.05-2.24-.59-2.29-1.91,0-.09,.02-.27,.06-.54,.36-2.33,.64-4.68,.83-7.08l-1.33,.04c-.65,.02-.98-.29-1.01-.94s.3-.96,.94-.98l1.55-.05Zm4.72,1.77c-.01,.2-.03,.44-.06,.73l-.04,.41s-.02,.1-.02,.19l-.18,1.99c-.07,.67-.14,1.28-.21,1.82-.07,.64-.15,1.22-.24,1.74l-.07,.38c0,.27,.17,.4,.47,.39l11.13-.36c.06-.8,.14-1.88,.22-3.26l.16-4.4-11.16,.36Zm11.18-2.28c0-3.06,0-4.89-.01-5.5-.03-.87-.06-1.39-.11-1.57-.06-.21-.22-.32-.47-.31l-9.81,.31c-.34,.01-.51,.22-.5,.64,.02,.72,.02,1.73-.01,3.04-.02,1.5-.07,2.75-.15,3.75l11.05-.36Zm-8.45,2.77c.46,.11,.95,.25,1.48,.41,.66,.2,1.27,.41,1.84,.65,.72,.28,1.33,.57,1.84,.86,.52,.27,.88,.59,1.09,.94,.17,.26,.26,.58,.27,.94,.02,.7-.22,1.33-.73,1.87-.51,.54-1.1,.82-1.79,.84-.4,.01-.74-.1-1.04-.35-.11-.09-.23-.21-.36-.37-.04-.07-.09-.14-.14-.21-.04-.04-.06-.08-.09-.13l-.08-.11c-.7-1.03-1.89-2.26-3.56-3.71-.3-.26-.45-.54-.46-.85,0-.07,0-.15,.02-.24,.03-.11,.07-.21,.12-.3,.17-.24,.47-.37,.88-.38,.07,0,.31,.04,.71,.14Zm1.72-8.92c.64,.2,1.24,.4,1.81,.62,.68,.27,1.28,.55,1.79,.84,.5,.27,.85,.59,1.06,.94,.15,.27,.23,.57,.25,.91,.02,.67-.21,1.27-.7,1.81-.49,.52-1.05,.79-1.68,.81s-1.28-.43-1.94-1.35c-.44-.64-.92-1.22-1.47-1.74-.21-.21-.48-.46-.84-.76l-1-.89c-.19-.16-.31-.31-.37-.45l-.06-.22v-.16c0-.07,0-.14,.01-.22,.03-.11,.08-.21,.15-.3,.17-.24,.45-.37,.83-.38,.27,0,.99,.17,2.16,.53Z"/><path class="cls-4" d="M70.6,46.55c.65,0,.97,.33,.96,.96s-.33,.97-.99,.96l-3.88-.04-.31,.68c-.13,.29-.28,.57-.44,.84-.42,.72-.94,1.39-1.54,2.02l2.54,.41c1.15,.23,1.98,.45,2.49,.68,.61,.26,.92,.67,.91,1.23,0,.61-.3,1.2-.89,1.75-.58,.54-1.2,.8-1.85,.79-.07,0-.21-.03-.4-.08l-1.73-.64c-.94-.37-1.75-.68-2.46-.92-.85-.3-1.59-.54-2.24-.73l-.71,.32-.9,.34c-.74,.28-1.57,.52-2.47,.71-1.14,.24-2.42,.42-3.83,.53-1.66,.14-3.53,.21-5.59,.19-.32,0-.58-.12-.76-.36-.14-.18-.21-.38-.21-.6,0-.42,.18-.69,.52-.83,.13-.05,.27-.1,.44-.13l.41-.02c2.57-.1,5.1-.55,7.6-1.36-.98-.19-2.36-.42-4.17-.69l-.14-.03c-.06,0-.1,0-.13-.03l-.3-.06c-.23-.06-.43-.14-.59-.25-.45-.26-.67-.68-.66-1.25,0-.36,.11-.69,.31-.97,.17-.23,.68-.79,1.53-1.66l-4.47-.05c-.65,0-.97-.33-.97-.96s.34-.97,.99-.96l6.02,.06,1.18-1.67c-.34-.17-.58-.3-.73-.41-.25-.22-.37-.49-.37-.82,0-.67,.51-1.24,1.51-1.72l-4.47-.05c1.41,.36,2.1,.99,2.09,1.89,0,.34-.16,.65-.47,.92-.11,.09-.24,.18-.38,.27l-.93,.42c-.33,.14-.64,.26-.95,.37-.89,.33-1.6,.5-2.15,.49-.36,0-.62-.14-.78-.41-.05-.09-.1-.19-.13-.3-.02-.09-.03-.17-.03-.24,0-.16,.15-.43,.44-.81l.41-.51,1.24-1.72c.09-.12,.2-.22,.33-.29l.27-.11c-1.19-.16-1.78-.83-1.77-2.02l.06-5.96c0-.18,.01-.34,.03-.49,.04-.36,.12-.66,.25-.89,.33-.59,.99-.88,1.96-.87l6.37,.07c.2,0,.38,.01,.54,.03,.4,.04,.72,.13,.97,.25,.68,.3,1.02,.89,1.01,1.77l-.06,5.47c0,.43-.02,.75-.04,.95-.04,.34-.11,.63-.23,.87-.29,.56-.88,.86-1.77,.9,.21,.22,.52,.57,.91,1.04l.91,1.07c.32,.33,.48,.6,.48,.82l-.06,.3c.05,.06,.09,.1,.11,.14,.05,.05,.1,.12,.13,.19,.11,.18,.16,.38,.16,.6,0,.13-.01,.23-.03,.33l-.08,.22,11.93,.12Zm-16.98-12.29c0-.58-.18-.87-.56-.87h-.84c-.36-.01-.55,.27-.55,.85l1.95,.02Zm-.03,2.79v-.87s-1.94-.02-1.94-.02v.87s1.94,.02,1.94,.02Zm-1.97,1.85c0,.6,.17,.9,.53,.9h.84c.38,.01,.57-.28,.58-.88l-1.95-.02Zm5.35,9.43c-.11,.09-.27,.23-.49,.43l-1.56,1.34c-.2,.18-.3,.32-.3,.43s.04,.19,.11,.24c.05,.05,.12,.09,.19,.11,.38,.06,1.06,.14,2.03,.24l2.17,.18c.93-.84,1.62-1.82,2.06-2.93l-4.2-.04Zm5.6-6.5c1.19,.43,1.78,1.02,1.77,1.78,0,.31-.16,.59-.47,.86-.11,.09-.24,.17-.38,.24l-.16,.11-1.66,.66c-.8,.26-1.46,.39-1.98,.39-.36,0-.62-.14-.78-.41-.05-.09-.09-.19-.1-.3-.02-.07-.03-.13-.02-.19,0-.11,.05-.23,.14-.38l1.92-2.5c.09-.11,.21-.21,.36-.3-1.3-.12-1.94-.8-1.93-2.03l.06-5.96c0-.18,.01-.34,.03-.49,.04-.36,.12-.66,.25-.89,.33-.59,1-.88,1.99-.87l6.34,.07c.2,0,.38,.01,.54,.03,.4,.04,.72,.13,.97,.25,.68,.3,1.02,.89,1.01,1.77l-.06,5.47c0,.42-.02,.72-.04,.92-.04,.32-.11,.6-.2,.81-.26,.54-.78,.87-1.56,.99,.16,.07,.3,.18,.43,.3,.11,.11,.35,.43,.72,.96,.12,.2,.35,.5,.67,.9l.64,.87c.09,.15,.13,.3,.13,.46,0,.61-.33,.92-.98,.91-.52,0-1.24-.18-2.14-.54-.31-.11-.62-.24-.94-.39l-.57-.28c-.34-.18-.6-.36-.78-.52-.25-.26-.37-.54-.37-.84,0-.38,.24-.76,.69-1.13,.4-.32,.85-.55,1.34-.69l-4.88-.05Zm3.28-7.45c0-.58-.18-.87-.56-.87h-.84c-.36-.01-.55,.27-.55,.85l1.95,.02Zm-.03,2.79v-.87s-1.94-.02-1.94-.02v.87s1.94,.02,1.94,.02Zm-1.97,1.85c0,.6,.17,.9,.53,.9h.84c.38,.01,.57-.28,.58-.88l-1.95-.02Z"/><path class="cls-4" d="M79.67,54.9c-.23,.02-.45,.03-.65,.03-.47-.01-.87-.07-1.18-.17-.81-.29-1.26-.98-1.35-2.06l-1.63-18.58v-.6c0-.44,.07-.8,.21-1.08,.32-.7,1.09-1.1,2.32-1.21l15.01-1.32c.23-.02,.45-.03,.65-.03,.47,.01,.87,.07,1.18,.17,.81,.29,1.26,.98,1.35,2.06l1.63,18.58v.6c0,.42-.07,.77-.21,1.05-.32,.72-1.09,1.13-2.31,1.24l-15.01,1.32Zm11.6-14.18l-.7-8.05c-.04-.45-.27-.66-.71-.62l-9.4,.82c-.43,.04-.63,.28-.59,.73l.7,8.05,10.69-.94Zm-10.52,2.85l.75,8.59c.04,.43,.27,.63,.7,.59l9.4-.82c.43-.04,.63-.27,.59-.7l-.75-8.59-10.69,.94Z"/><g><g><path class="cls-5" d="M83.71,14.92c-.73-1.36-2-2.28-3-3.41-.2-.22-.39-.46-.56-.69-.1-.35-.17-.72-.21-1.08-.17-1.39-.13-2.81-.63-4.13-.76-2-2.61-2.91-4.58-3.05-.32-.05-.64-.07-.96-.06-.02,0-.05,0-.07,0-.2-.01-.4,0-.6,.01-.64,.06-1.23,.27-1.76,.58-1.92,.83-3.32,2.58-3.42,4.76-.06,1.46,.58,2.58,1.54,3.62,.57,.62,.83,1.22,.61,2.07-.14,.55-.45,1.05-.79,1.52-.29,.27-.6,.53-.9,.76-2.17,1.63-4.94,2.38-7.63,2-.39-.06-.62,.27-.61,.57-.01,.08,0,.16,.03,.24,.24,.48,.57,.9,.98,1.25-.24-.16-.68,.13-.71,.46-.03,.34,.21,.62,.45,.86,.38,.39,.76,.78,1.14,1.17-.24,0-.41,.29-.37,.51,0,0,0,0,0,0-.27,.24-.39,.61-.11,1,1.57,2.19,4.16,3.32,6.76,3.78,2.74,.48,5.61,.26,8.21-.76,4.53-1.78,10.08-6.62,7.21-11.97Z"/><path class="cls-2" d="M77.63,19.12c-.08-.13-.29-.07-.34,.05-.06,.13-.12,.26-.19,.38-.23,.11-.44,.23-.65,.39-.06,.04-.08,.1-.08,.15-.03,.03-.05,.07-.08,.11-.02-.01-.03-.02-.06-.03-.05-.05-.12-.06-.2-.02-.16,.08-.32,.16-.48,.25-.27,.12-.54,.26-.8,.41-.03,.02-.05,.04-.07,.07-.13,.07-.26,.13-.39,.19-.37,.15-.74,.31-1.09,.48-.11,.03-.23,.07-.34,.11-.34,.09-.67,.18-1.01,.28-.03-.07-.1-.11-.2-.11-.48,.02-.95,.08-1.42,.17,0,0,0,0-.01,0-.23,.02-.45,.05-.68,.07-.13-.01-.26-.02-.39-.04-.5-.09-.99-.2-1.48-.32-.06-.01-.11,0-.15,.04-.02,0-.03,0-.05-.01-.03,0-.05,0-.07,0-.4-.27-.76-.59-1.06-.97-.16-.2-.47,.05-.31,.25,.36,.46,.8,.84,1.29,1.15,.02,.03,.05,.05,.09,.06,.01,0,.02,0,.04,.01,1.69,1.01,3.95,1.23,5.81,.99,1.72-.22,5.95-1.6,4.39-4.11Z"/><path class="cls-7" d="M84.58,6.54c-.2-.47-.97-.47-1.38-.47-1.29,.01-2.42,.11-3.63-.22-.09-.04-.17-.09-.26-.14-.04,.01-.08,.03-.11,.05-.14,.12-.19,.4-.21,.56-.09,.53,0,1.11,.14,1.63,.12,.46,.32,.78,.66,.99,.2-.06,.39-.13,.59-.2,.3-.03,.6-.07,.88-.13,.68-.14,3.89-.81,3.34-2.08Z"/><path class="cls-7" d="M77.28,19c-1.41,1.18-3.07,2.01-4.86,2.42-1.66,.39-3.72,.53-5.36-.04-.69-.25-1.25-1.01-.57-1.61,.29-.26,.68-.39,1.03-.53,.55-.22,1.09-.47,1.6-.77,2.21,.59,4.55,.07,6.32-1.38,.2-.16-.08-.44-.28-.28-1.56,1.28-3.61,1.77-5.57,1.37,.02-.01,.04-.03,.06-.04,1.27-.88,2.31-2.02,3.07-3.36,.13-.22-.22-.42-.34-.2-1.12,1.96-2.85,3.45-4.95,4.29-.57,.23-1.28,.46-1.56,1.07-.3,.66,.11,1.33,.69,1.66,.74,.42,1.76,.48,2.6,.52,.99,.05,1.98-.02,2.94-.21,2.02-.39,3.9-1.3,5.48-2.62,.2-.16-.09-.44-.28-.28Z"/><path class="cls-11" d="M75.62,6.32c-.27,.09-.45,.36-.38,.65v.04c.08,.27,.39,.46,.66,.38,.27-.09,.45-.36,.38-.65v-.04c-.08-.27-.39-.46-.66-.38Z"/></g><g><path class="cls-1" d="M72.04,12.04c1.17,0,2.33-.11,3.47-.34,1.23-.25,2.43-.62,3.6-1.05,.31-.11,.6-.23,.89-.36-.04-.18-.06-.37-.09-.55-.17-1.39-.13-2.81-.63-4.13-.76-2-2.61-2.91-4.58-3.05-.32-.05-.64-.07-.96-.06-.02,0-.05,0-.07,0-.2-.01-.4,0-.6,.01-.64,.06-1.23,.27-1.76,.58-1.92,.83-3.32,2.58-3.42,4.76-.06,1.46,.58,2.58,1.54,3.62,.09,.1,.18,.2,.25,.3,.19,.05,.38,.09,.57,.13,.59,.1,1.18,.15,1.77,.14Z"/><path class="cls-1" d="M80.7,11.51c-.05-.06-.1-.11-.15-.17-.38,.17-.77,.34-1.17,.48-1.15,.41-2.32,.77-3.52,1.02-1.2,.26-2.42,.36-3.64,.38-.61,0-1.22-.01-1.82-.1-.09-.01-.19-.03-.28-.05,0,.14-.03,.3-.07,.45-.14,.55-.45,1.05-.79,1.52-.29,.27-.6,.53-.9,.76-2.17,1.63-4.94,2.38-7.63,2-.39-.06-.62,.27-.61,.57-.01,.08,0,.16,.03,.24,.24,.48,.57,.9,.98,1.25-.24-.16-.68,.13-.71,.46-.03,.34,.21,.62,.45,.86,.38,.39,.76,.78,1.14,1.17-.24,0-.41,.29-.37,.51,0,0,0,0,0,0-.27,.24-.39,.61-.11,1,1.57,2.19,4.16,3.32,6.76,3.78,2.74,.48,5.61,.26,8.21-.76,4.53-1.78,10.08-6.62,7.21-11.97-.73-1.36-2-2.28-3-3.41Z"/><path class="cls-9" d="M72.22,13.22c1.23-.02,2.44-.13,3.64-.38,1.19-.25,2.37-.62,3.52-1.02,.4-.14,.79-.3,1.17-.48-.14-.17-.28-.34-.42-.52-.05-.17-.09-.35-.13-.53-.29,.13-.59,.25-.89,.36-1.18,.43-2.37,.8-3.6,1.05-1.14,.23-2.31,.33-3.47,.34-.59,0-1.19-.04-1.77-.14-.19-.03-.38-.08-.57-.13,.3,.4,.46,.82,.43,1.31,.09,.02,.18,.03,.28,.05,.6,.09,1.21,.11,1.82,.1Z"/></g><g><path class="cls-3" d="M82.06,10.44c-.12-.21-.24-.42-.37-.63-.2-.33-.45-.78-.85-.89-.56-.16-.8,.54-.9,1.17-.06,.12-.08,.28-.07,.44-.04,.1-.05,.21,0,.34,0,0,0,.01,0,.02,0,.05,.03,.09,.07,.11,.18,.3,.51,.49,.83,.6,.43,.15,1.84,.3,1.63-.56-.05-.21-.22-.42-.32-.6Z"/><path class="cls-3" d="M79.55,10.84c-.61-.19-2.42-.53-2.03,.66,.18,.53,.49,1.03,.89,1.43,.26,.26,.71,.74,1.11,.48,.4-.26,.35-.94,.32-1.34-.02-.23-.05-.79-.24-1.08,.03-.05,.02-.12-.06-.14Z"/><path class="cls-8" d="M79.92,10.34c-.27,.02-.7,.28-.81,.54-.06,.14,.02,.24,.1,.36,.03,.04,.05,.07,.08,.11,.07,.15,.17,.28,.24,.37,.03,.04,.06,.08,.1,.1,0,0,.01,.02,.02,.02,.03,.05,.08,.05,.12,.04,.16,.02,.32-.09,.48-.21,.27-.21,.43-.41,.27-.75-.11-.23-.29-.59-.6-.57Z"/></g></g><g><path class="cls-5" d="M95.91,22.58c0-.17-.1-.33-.26-.4l-2.96-1.37-.55-3.21c-.03-.17-.15-.3-.32-.35-.16-.05-.34,0-.46,.13l-2.21,2.4-3.23-.47c-.17-.02-.34,.05-.43,.19-.1,.14-.11,.32-.02,.47l1.59,2.85-1.44,2.93c-.08,.15-.06,.34,.05,.47,.03,.04,.07,.08,.11,.1,.1,.06,.22,.09,.33,.06l3.2-.64,2.34,2.28c.12,.12,.3,.16,.46,.1,.16-.06,.28-.2,.3-.37l.38-3.24,2.89-1.52c.15-.08,.24-.24,.24-.41Z"/><g><path class="cls-1" d="M92.02,28.14s.06-.01,.09-.02c.07-.03,.14-.07,.19-.13-.08,.07-.17,.12-.27,.15Z"/><path class="cls-1" d="M88.83,25.51c.36,.04,.63,.24,.92,.44,.31,.21,.62,.41,.94,.59,.28,.16,.57,.31,.86,.44,.01,0,.02,0,.03,.01,.02-.09,.06-.2,.08-.26,.12-.64,.18-1.3,.18-1.95,0-.73,.36-1.02,1.01-1.25,.82-.28,2.35-.45,2.82-1.33,0,0-.02-.01-.03-.02l-2.96-1.37-.55-3.21c-.03-.17-.15-.3-.32-.35-.16-.05-.34,0-.46,.13l-2.21,2.4-3.23-.47c-.17-.02-.34,.05-.43,.19-.1,.14-.11,.32-.02,.47l1.59,2.85-1.44,2.93c-.08,.15-.06,.34,.05,.47,0,0,.01,.01,.02,.02,.42-.13,.85-.25,1.28-.36,.59-.16,1.26-.43,1.88-.36Z"/><path class="cls-2" d="M92.4,27.75l.38-3.24,2.89-1.52c.15-.08,.24-.24,.24-.41,0-.16-.09-.3-.23-.38-.48,.89-2,1.05-2.82,1.33-.66,.22-1,.52-1.01,1.25,0,.65-.06,1.31-.18,1.95-.01,.06-.05,.16-.08,.26-.01,0-.02,0-.03-.01-.29-.13-.58-.28-.86-.44-.32-.18-.64-.38-.94-.59-.29-.2-.56-.4-.92-.44-.62-.07-1.29,.2-1.88,.36-.43,.12-.85,.24-1.28,.36,.03,.03,.06,.06,.09,.08,.1,.06,.22,.09,.33,.06l3.2-.64,2.34,2.28c.1,.1,.24,.14,.38,.12,.1-.03,.19-.08,.27-.15,.06-.07,.1-.15,.11-.24Z"/></g></g><g><path class="cls-9" d="M15.37,50.62l-1.61-6.88-3.03,.71,1.61,6.88c-.51,.61-.74,1.44-.55,2.28,.33,1.4,1.73,2.27,3.13,1.95,1.4-.33,2.27-1.73,1.95-3.13-.19-.83-.77-1.48-1.5-1.8Zm-.75,3.62c-.68,.16-1.36-.26-1.52-.94-.16-.68,.26-1.36,.94-1.52,.68-.16,1.36,.26,1.52,.94,.16,.68-.26,1.36-.94,1.52Z"/><circle class="cls-10" cx="11.5" cy="40.88" r="6.34"/><path class="cls-4" d="M9.15,38.56s-.06-.03-.1-.02l-.63,.25-.56-.38s-.07-.02-.1,0c-.03,.02-.05,.05-.05,.09l.04,.67-.53,.42s-.04,.06-.03,.09c0,.03,.03,.06,.07,.07l.65,.17,.23,.63s.04,.06,.08,.06c.01,0,.02,0,.03,0,.02,0,.04-.02,.06-.04l.36-.57,.67-.02s.07-.02,.08-.05c.01-.03,0-.07-.01-.1l-.43-.52,.18-.65s0-.07-.03-.09Z"/><path class="cls-4" d="M15.73,39.02s-.03-.06-.06-.07l-.64-.2-.2-.64s-.04-.06-.07-.06c-.03,0-.07,0-.09,.04l-.39,.55h-.67s-.07,0-.08,.04c-.02,.03-.01,.07,0,.1l.4,.54-.22,.64s0,.07,.02,.1c0,0,.02,.01,.03,.02,.02,.01,.05,.01,.07,0l.64-.21,.54,.41s.07,.02,.1,0c.03-.02,.05-.05,.05-.08v-.67s.55-.39,.55-.39c.03-.02,.04-.06,.04-.09Z"/><path class="cls-4" d="M12.78,41.59s-.04-.06-.07-.07l-.66-.12-.28-.61s-.05-.05-.08-.05c-.04,0-.07,.02-.08,.05l-.32,.59-.67,.07s-.06,.03-.08,.06c-.01,.03,0,.07,.02,.1l.46,.49-.14,.66s0,.07,.03,.09c0,0,.02,.01,.03,.01,.02,0,.05,0,.07,0l.61-.29,.58,.33s.07,.02,.1,0c.03-.02,.04-.05,.04-.09l-.09-.67,.5-.45s.04-.06,.03-.09Z"/><path class="cls-4" d="M12.47,35.6s-.06-.03-.1-.02l-.63,.25-.56-.38s-.07-.02-.1,0c-.03,.02-.05,.05-.05,.09l.04,.67-.53,.42s-.04,.06-.03,.09c0,.03,.03,.06,.07,.07l.65,.17,.23,.63s.04,.06,.08,.06c.01,0,.02,0,.03,0,.02,0,.04-.02,.06-.04l.36-.57,.67-.02s.07-.02,.08-.05c.01-.03,0-.07-.01-.1l-.43-.52,.18-.65s0-.07-.03-.09Z"/><path class="cls-4" d="M15.95,42.4s-.07-.02-.1,0l-.56,.37-.62-.25s-.07,0-.1,.02c-.03,.02-.04,.06-.03,.09l.18,.65-.43,.51s-.03,.06-.01,.1c.01,.03,.05,.05,.08,.06l.67,.03,.36,.57s.05,.05,.09,.04c.01,0,.02,0,.03,0,.02-.01,.04-.03,.05-.05l.24-.63,.65-.16s.06-.04,.07-.07c0-.03,0-.07-.03-.09l-.53-.42,.05-.67s-.02-.07-.05-.09Z"/><path class="cls-4" d="M9.51,43.83s-.04-.06-.08-.06l-.67-.09-.31-.6s-.05-.05-.08-.05c-.04,0-.07,.02-.08,.05l-.29,.61-.66,.11s-.06,.03-.07,.06c-.01,.03,0,.07,.03,.09l.49,.46-.1,.67s0,.07,.04,.09c0,0,.02,.01,.03,.01,.02,0,.05,0,.07,0l.59-.32,.6,.3s.07,.01,.1,0c.03-.02,.04-.06,.04-.09l-.13-.66,.47-.48s.03-.06,.02-.1Z"/><path class="cls-2" d="M7.26,45.58c1.49,1.33,3.58,1.93,5.67,1.45,3.41-.8,5.53-4.21,4.73-7.62-.37-1.58-1.3-2.89-2.54-3.75,0,0,2.88,4.52,.02,7.72-3.03,3.39-7.88,2.21-7.88,2.21Z"/></g></svg>