<svg width="114" height="114" viewBox="0 0 114 114" fill="none" xmlns="http://www.w3.org/2000/svg">
<path d="M105.854 61.8036L105.672 60.8824C105.827 60.838 105.98 60.7663 106.13 60.6674C106.283 60.5715 106.414 60.4339 106.523 60.2546C106.631 60.0753 106.697 59.8398 106.721 59.5482C106.754 59.1489 106.689 58.8087 106.526 58.5276C106.366 58.2496 106.146 58.0992 105.866 58.0764C105.617 58.0562 105.413 58.1308 105.253 58.3003C105.094 58.4698 104.951 58.7432 104.823 59.1205L104.507 60.0696C104.318 60.6414 104.066 61.0585 103.751 61.3208C103.439 61.5833 103.055 61.6961 102.599 61.6591C102.226 61.6287 101.9 61.494 101.623 61.2549C101.346 61.0186 101.138 60.7025 100.999 60.3064C100.86 59.9104 100.811 59.4589 100.852 58.952C100.906 58.2866 101.096 57.7476 101.42 57.335C101.744 56.9224 102.188 56.6805 102.753 56.6095L102.913 57.5802C102.555 57.6423 102.278 57.7923 102.082 58.03C101.885 58.2706 101.771 58.5962 101.737 59.0068C101.699 59.474 101.768 59.853 101.944 60.1437C102.123 60.4375 102.352 60.5958 102.633 60.6186C102.859 60.637 103.055 60.5731 103.221 60.4269C103.39 60.281 103.525 60.0469 103.629 59.7247L103.972 58.658C104.162 58.072 104.417 57.6509 104.737 57.3948C105.06 57.1416 105.446 57.0333 105.896 57.0699C106.264 57.0998 106.582 57.2295 106.848 57.4592C107.114 57.6918 107.313 57.9944 107.446 58.3671C107.577 58.7426 107.625 59.1598 107.588 59.6185C107.535 60.2641 107.352 60.7595 107.039 61.1046C106.726 61.4525 106.331 61.6855 105.854 61.8036Z" fill="black"/>
<path d="M100.057 65.6263C100.201 65.03 100.467 64.5506 100.853 64.1883C101.239 63.8259 101.707 63.5888 102.258 63.4768C102.808 63.3648 103.401 63.3858 104.036 63.5399C104.682 63.6967 105.223 63.9537 105.66 64.311C106.098 64.6718 106.405 65.1 106.58 65.5956C106.757 66.0946 106.776 66.6312 106.637 67.2055C106.528 67.6527 106.348 68.0357 106.095 68.3544C105.842 68.6731 105.539 68.9109 105.185 69.0677C104.831 69.2245 104.449 69.2822 104.038 69.241L104.275 68.2637C104.583 68.2595 104.88 68.1561 105.166 67.9536C105.454 67.7546 105.65 67.4397 105.755 67.009C105.847 66.628 105.829 66.2698 105.7 65.9345C105.573 65.6026 105.349 65.313 105.029 65.0658C104.711 64.822 104.312 64.6418 103.832 64.5253C103.34 64.406 102.894 64.3795 102.492 64.4457C102.089 64.5146 101.753 64.6668 101.482 64.9023C101.211 65.1405 101.028 65.4528 100.935 65.8394C100.873 66.0933 100.861 66.3346 100.899 66.5631C100.937 66.7916 101.022 66.9977 101.153 67.1815C101.283 67.3652 101.457 67.5156 101.675 67.6326L101.437 68.6099C101.075 68.4636 100.77 68.2449 100.522 67.9538C100.276 67.6661 100.108 67.3227 100.018 66.9237C99.9299 66.5281 99.9427 66.0957 100.057 65.6263Z" fill="black"/>
<path d="M99.1195 70.1898L105.204 72.6037L104.845 73.5068L103.926 73.1422L103.901 73.2056C104.158 73.4359 104.323 73.7335 104.395 74.0984C104.467 74.4633 104.431 74.8279 104.287 75.1923C104.259 75.261 104.224 75.3463 104.18 75.4482C104.137 75.5501 104.102 75.6265 104.076 75.6772L103.125 75.3C103.146 75.2715 103.186 75.2036 103.247 75.0963C103.31 74.9927 103.366 74.8789 103.415 74.7548C103.532 74.459 103.575 74.1703 103.543 73.8887C103.513 73.6108 103.416 73.3615 103.253 73.1409C103.091 72.924 102.873 72.7611 102.599 72.6521L98.7486 71.1246L99.1195 70.1898Z" fill="black"/>
<path d="M95.9069 77.3533C96.2018 76.8412 96.5824 76.4621 97.0487 76.216C97.5136 75.9723 98.0275 75.8683 98.5905 75.9041C99.1521 75.9423 99.7258 76.1301 100.312 76.4675C100.903 76.8078 101.357 77.2119 101.674 77.6799C101.99 78.1503 102.159 78.6478 102.182 79.1722C102.203 79.699 102.066 80.2185 101.771 80.7306C101.476 81.2426 101.096 81.6205 100.631 81.8641C100.165 82.1103 99.6497 82.2135 99.0857 82.1739C98.5202 82.1368 97.9421 81.9481 97.3513 81.6078C96.7653 81.2703 96.3157 80.8671 96.0022 80.3981C95.6874 79.9315 95.5194 79.4348 95.4983 78.908C95.4758 78.3835 95.6119 77.8653 95.9069 77.3533ZM96.6897 77.8041C96.4657 78.1931 96.3811 78.5706 96.4359 78.9365C96.4906 79.3025 96.6458 79.6393 96.9013 79.9471C97.1568 80.2549 97.4741 80.518 97.8532 80.7363C98.2323 80.9546 98.6203 81.0978 99.0172 81.1657C99.4141 81.2337 99.7858 81.2002 100.132 81.0654C100.479 80.9305 100.764 80.6686 100.988 80.2797C101.212 79.8907 101.295 79.5125 101.238 79.1452C101.181 78.7778 101.023 78.4395 100.765 78.1303C100.507 77.8211 100.189 77.5574 99.8098 77.339C99.4307 77.1207 99.0439 76.9782 98.6495 76.9117C98.255 76.8452 97.8858 76.88 97.5418 77.0163C97.1977 77.1526 96.9137 77.4152 96.6897 77.8041Z" fill="black"/>
<path d="M99.8543 87.7452L92.8725 82.5089L93.4759 81.7043L100.458 86.9406L99.8543 87.7452Z" fill="black"/>
<path d="M96.9525 91.425L90.4543 85.5993L91.1257 84.8505L97.6238 90.6762L96.9525 91.425Z" fill="black"/>
<path d="M84.1322 91.5557C84.5791 91.243 85.0526 91.0797 85.5528 91.0661C86.0546 91.0547 86.547 91.1886 87.0302 91.4677C87.5149 91.7491 87.956 92.1738 88.3535 92.7417C88.7477 93.305 88.9932 93.8614 89.0899 94.4109C89.1867 94.9604 89.1418 95.4685 88.9553 95.9354C88.7689 96.4022 88.4499 96.7937 87.9983 97.1097C87.6492 97.354 87.3327 97.4888 87.0487 97.5142C86.7641 97.5435 86.5169 97.5223 86.3072 97.4506C86.0968 97.3828 85.9288 97.3236 85.8031 97.2728L85.7333 97.3217L87.5805 99.9611L86.7565 100.538L81.7525 93.3876L82.5486 92.8305L83.1252 93.6544L83.223 93.586C83.2151 93.4459 83.2148 93.2623 83.2223 93.0351C83.2314 92.8103 83.2988 92.5672 83.4245 92.3059C83.5519 92.0468 83.7878 91.7968 84.1322 91.5557ZM84.5385 92.374C84.208 92.6054 83.989 92.8869 83.8814 93.2188C83.7755 93.553 83.7707 93.9153 83.867 94.3056C83.9649 94.6982 84.1556 95.097 84.439 95.502C84.7192 95.9024 85.0225 96.2119 85.349 96.4307C85.6772 96.6519 86.0139 96.7664 86.3593 96.7744C86.7063 96.7846 87.0474 96.6725 87.3826 96.4379C87.7317 96.1936 87.9599 95.9004 88.0673 95.5583C88.1739 95.2201 88.1787 94.8579 88.0817 94.4715C87.984 94.0891 87.8032 93.7094 87.5393 93.3323C87.2722 92.9506 86.9713 92.6445 86.6366 92.4141C86.3013 92.1876 85.954 92.063 85.5949 92.0404C85.2351 92.0218 84.883 92.133 84.5385 92.374Z" fill="black"/>
<path d="M77.2697 95.9511C77.804 95.6988 78.3329 95.6046 78.8563 95.6685C79.3772 95.7336 79.8586 95.9414 80.3005 96.2919C80.7399 96.6437 81.104 97.1253 81.3927 97.7367C81.6838 98.3532 81.8261 98.9442 81.8198 99.5096C81.8108 100.076 81.666 100.581 81.3853 101.025C81.1021 101.47 80.6933 101.818 80.1589 102.07C79.6246 102.323 79.097 102.416 78.5762 102.351C78.0528 102.287 77.5708 102.078 77.1301 101.724C76.6869 101.371 76.3198 100.886 76.0287 100.269C75.74 99.6579 75.6008 99.0702 75.6109 98.5062C75.6185 97.9434 75.7639 97.4396 76.0472 96.9948C76.3278 96.5513 76.7354 96.2034 77.2697 95.9511ZM77.6554 96.768C77.2495 96.9597 76.9647 97.2214 76.8009 97.5532C76.6371 97.885 76.5723 98.2502 76.6066 98.6487C76.6408 99.0472 76.7513 99.4443 76.9381 99.8399C77.1249 100.236 77.3619 100.574 77.6491 100.857C77.9363 101.139 78.2606 101.324 78.6221 101.41C78.9836 101.497 79.3673 101.445 79.7732 101.253C80.1791 101.062 80.4634 100.799 80.6259 100.464C80.7885 100.13 80.8521 99.7622 80.8166 99.3611C80.7812 98.96 80.6701 98.5617 80.4833 98.1661C80.2965 97.7704 80.0601 97.4328 79.7741 97.1531C79.4881 96.8735 79.165 96.6914 78.8047 96.6071C78.4444 96.5227 78.0613 96.5764 77.6554 96.768Z" fill="black"/>
<path d="M72.3751 98.5207L75.9014 104.385L74.8763 104.642L72.2853 100.125L72.2191 100.141L72.0821 105.342L71.0404 105.603L68.4866 101.095L68.4205 101.111L68.2628 106.3L67.2377 106.557L67.5803 99.7228L68.5393 99.4824L71.151 104.012L71.2502 103.987L71.4162 98.7611L72.3751 98.5207Z" fill="black"/>
<path d="M63.5128 104.615L63.2548 100.686L64.2583 100.62L64.6873 107.151L63.7178 107.215L63.6507 106.194L63.5657 106.2C63.4344 106.542 63.2195 106.823 62.9208 107.045C62.6224 107.27 62.2266 107.398 61.7333 107.431C61.2911 107.46 60.8982 107.394 60.5546 107.235C60.2112 107.078 59.9354 106.823 59.7271 106.469C59.519 106.118 59.3967 105.665 59.3602 105.11L59.0876 100.959L60.0911 100.894L60.3593 104.976C60.393 105.489 60.5524 105.88 60.8377 106.149C61.1232 106.42 61.4984 106.541 61.9633 106.51C62.2836 106.489 62.5654 106.401 62.8085 106.245C63.0489 106.09 63.2326 105.875 63.3597 105.599C63.4867 105.323 63.5378 104.995 63.5128 104.615Z" fill="black"/>
<path d="M47.4834 105.166L48.4177 105.073C48.4471 105.231 48.5038 105.39 48.5879 105.55C48.6687 105.711 48.7931 105.855 48.9611 105.98C49.1292 106.105 49.3572 106.194 49.6453 106.245C50.0396 106.316 50.3844 106.284 50.6798 106.149C50.9719 106.016 51.1427 105.812 51.1923 105.535C51.2363 105.289 51.1815 105.078 51.0281 104.904C50.8746 104.729 50.6162 104.56 50.2529 104.397L49.3385 103.991C48.7874 103.748 48.3964 103.458 48.1655 103.119C47.9341 102.783 47.8586 102.39 47.9392 101.94C48.0052 101.571 48.1705 101.26 48.4351 101.007C48.6968 100.754 49.0315 100.577 49.439 100.477C49.8466 100.376 50.3006 100.371 50.8012 100.461C51.4584 100.578 51.9768 100.818 52.3564 101.18C52.7361 101.543 52.9342 102.008 52.9508 102.577L51.9692 102.644C51.9417 102.281 51.819 101.99 51.6012 101.773C51.3805 101.554 51.0674 101.409 50.6619 101.336C50.2005 101.254 49.8166 101.286 49.5104 101.433C49.2008 101.583 49.0212 101.796 48.9717 102.073C48.9317 102.296 48.9765 102.498 49.1061 102.677C49.2352 102.859 49.4552 103.016 49.766 103.15L50.7949 103.594C51.3599 103.839 51.7546 104.133 51.979 104.476C52.2 104.822 52.2708 105.217 52.1912 105.662C52.1262 106.025 51.9666 106.328 51.7124 106.572C51.4555 106.814 51.1351 106.984 50.7515 107.079C50.365 107.175 49.9453 107.182 49.4922 107.101C48.8546 106.987 48.379 106.757 48.0655 106.413C47.7492 106.068 47.5552 105.652 47.4834 105.166Z" fill="black"/>
<path d="M44.3805 99.0639C44.9605 99.2643 45.4127 99.5738 45.7369 99.9924C46.0612 100.411 46.253 100.9 46.3125 101.458C46.372 102.017 46.2951 102.605 46.0817 103.222C45.8646 103.851 45.5576 104.365 45.1606 104.766C44.76 105.169 44.3048 105.434 43.7949 105.561C43.2814 105.69 42.7453 105.659 42.1868 105.466C41.7518 105.315 41.3876 105.099 41.0942 104.818C40.8008 104.536 40.5928 104.211 40.4701 103.844C40.3474 103.478 40.326 103.091 40.4059 102.686L41.3565 103.015C41.3315 103.322 41.4064 103.627 41.581 103.931C41.7519 104.236 42.0468 104.461 42.4657 104.606C42.8363 104.734 43.1946 104.75 43.5406 104.653C43.8831 104.558 44.1925 104.363 44.4688 104.067C44.7415 103.774 44.9586 103.393 45.12 102.926C45.2852 102.448 45.3538 102.006 45.3259 101.6C45.2953 101.192 45.1756 100.843 44.9667 100.551C44.7552 100.259 44.4614 100.048 44.0855 99.9178C43.8385 99.8325 43.5994 99.798 43.3684 99.8143C43.1373 99.8307 42.9241 99.8953 42.7288 100.008C42.5335 100.121 42.3674 100.28 42.2304 100.485L41.2798 100.157C41.4597 99.8101 41.7063 99.5271 42.0195 99.3077C42.3291 99.0901 42.6868 98.9552 43.0926 98.903C43.4947 98.8526 43.9241 98.9062 44.3805 99.0639Z" fill="black"/>
<path d="M39.9043 97.6833L36.9352 103.517L36.0694 103.076L36.5178 102.195L36.457 102.164C36.2038 102.398 35.8922 102.535 35.5222 102.573C35.1522 102.611 34.7925 102.541 34.4431 102.363C34.3773 102.329 34.2956 102.286 34.1982 102.233C34.1007 102.181 34.028 102.139 33.9799 102.108L34.4438 101.197C34.4704 101.22 34.5342 101.266 34.6353 101.337C34.7326 101.409 34.8408 101.475 34.9598 101.536C35.2434 101.68 35.5268 101.749 35.8102 101.744C36.0897 101.739 36.3469 101.666 36.5817 101.524C36.8127 101.384 36.9952 101.182 37.1292 100.919L39.0081 97.2271L39.9043 97.6833Z" fill="black"/>
<path d="M33.0536 93.7996C33.5352 94.142 33.8763 94.557 34.0769 95.0446C34.2752 95.5306 34.3298 96.0521 34.2406 96.6091C34.1491 97.1645 33.9074 97.7177 33.5157 98.2688C33.1207 98.8246 32.6752 99.2381 32.1791 99.5094C31.6807 99.779 31.1694 99.9001 30.6453 99.8726C30.1188 99.8434 29.6147 99.6577 29.1331 99.3153C28.6515 98.973 28.3115 98.5588 28.1132 98.0728C27.9126 97.5852 27.8589 97.0625 27.952 96.5048C28.0429 95.9455 28.2858 95.388 28.6808 94.8322C29.0725 94.2811 29.5168 93.8719 30.0135 93.6046C30.5079 93.3356 31.0184 93.2157 31.5449 93.2449C32.069 93.2724 32.5719 93.4573 33.0536 93.7996ZM32.5302 94.536C32.1643 94.2759 31.7966 94.1558 31.4271 94.1754C31.0576 94.1951 30.7075 94.3175 30.3768 94.5425C30.0461 94.7675 29.754 95.0583 29.5005 95.4149C29.2471 95.7715 29.0676 96.1441 28.9622 96.5327C28.8567 96.9213 28.8546 97.2945 28.9559 97.6523C29.0571 98.01 29.2906 98.3189 29.6565 98.579C30.0223 98.839 30.3908 98.958 30.762 98.9361C31.1331 98.9141 31.4849 98.7894 31.8173 98.5621C32.1496 98.3348 32.4425 98.0428 32.696 97.6862C32.9495 97.3296 33.1281 96.9581 33.2319 96.5718C33.3357 96.1855 33.3362 95.8147 33.2333 95.4592C33.1304 95.1038 32.896 94.796 32.5302 94.536Z" fill="black"/>
<path d="M22.403 96.8026L28.2523 90.3256L28.9987 90.9997L23.1494 97.4766L22.403 96.8026Z" fill="black"/>
<path d="M18.9734 93.5416L25.3862 87.622L26.0683 88.361L19.6555 94.2806L18.9734 93.5416Z" fill="black"/>
<path d="M20.0634 80.8101C20.3321 81.2847 20.4495 81.7716 20.4154 82.2708C20.3789 82.7714 20.1987 83.2489 19.8748 83.7032C19.5484 84.1589 19.0837 84.5575 18.4804 84.8991C17.8822 85.2378 17.3049 85.4291 16.7487 85.473C16.1925 85.517 15.6909 85.4239 15.244 85.1938C14.797 84.9637 14.4378 84.6088 14.1662 84.1292C13.9563 83.7584 13.8522 83.4304 13.8541 83.1454C13.852 82.8592 13.8967 82.6152 13.9881 82.4133C14.0756 82.2103 14.1506 82.0487 14.213 81.9285L14.1711 81.8543L11.3676 83.4415L10.8721 82.5663L18.4667 78.2666L18.9454 79.1121L18.0702 79.6076L18.129 79.7114C18.2692 79.7169 18.452 79.7342 18.6774 79.7633C18.9004 79.7938 19.1359 79.884 19.3841 80.0341C19.6298 80.1855 19.8562 80.4442 20.0634 80.8101ZM19.21 81.1365C19.0113 80.7854 18.7519 80.5406 18.4318 80.4019C18.1092 80.2646 17.749 80.2252 17.3513 80.2839C16.9511 80.344 16.536 80.4958 16.1058 80.7393C15.6806 80.9801 15.3435 81.2525 15.0946 81.5567C14.8432 81.8623 14.6971 82.1866 14.6562 82.5296C14.6129 82.8741 14.692 83.2243 14.8936 83.5803C15.1035 83.9511 15.3737 84.2062 15.704 84.3457C16.0305 84.4841 16.3906 84.5234 16.7844 84.4636C17.1744 84.4028 17.5696 84.259 17.9701 84.0323C18.3756 83.8028 18.7089 83.5324 18.9702 83.2212C19.2277 82.909 19.3847 82.5752 19.4415 82.2199C19.4943 81.8635 19.4172 81.5024 19.21 81.1365Z" fill="black"/>
<path d="M16.35 73.6151C16.5514 74.1707 16.5958 74.706 16.4834 75.2212C16.37 75.7337 16.1182 76.1936 15.7279 76.6009C15.3367 77.0056 14.8233 77.3231 14.1876 77.5535C13.5466 77.7858 12.9449 77.8725 12.3826 77.8134C11.8193 77.7516 11.33 77.5603 10.9146 77.2395C10.4982 76.916 10.1893 76.4764 9.98795 75.9209C9.7866 75.3653 9.74263 74.8313 9.85605 74.3188C9.96849 73.8037 10.2216 73.3433 10.6155 72.9376C11.0084 72.5293 11.5254 72.209 12.1664 71.9767C12.8021 71.7463 13.4002 71.6625 13.9608 71.7252C14.5205 71.7853 15.0085 71.977 15.4249 72.3005C15.8403 72.6214 16.1487 73.0596 16.35 73.6151ZM15.5007 73.9229C15.3477 73.5009 15.1137 73.1929 14.7987 72.9989C14.4836 72.8049 14.126 72.7063 13.7261 72.7032C13.3261 72.7001 12.9204 72.7731 12.5091 72.9222C12.0978 73.0712 11.7382 73.2756 11.4304 73.5352C11.1226 73.7948 10.9086 74.1005 10.7883 74.4523C10.668 74.8042 10.6843 75.1911 10.8373 75.6131C10.9902 76.0351 11.2256 76.3426 11.5433 76.5357C11.8611 76.7287 12.2213 76.8263 12.624 76.8284C13.0266 76.8306 13.4336 76.7571 13.8449 76.608C14.2562 76.4589 14.6145 76.2551 14.9196 75.9964C15.2247 75.7378 15.4361 75.433 15.5537 75.0822C15.6713 74.7314 15.6536 74.3449 15.5007 73.9229Z" fill="black"/>
<path d="M14.2557 68.5349L8.09366 71.5098L7.93153 70.4655L12.6665 68.2987L12.6561 68.2313L7.4896 67.6189L7.32485 66.5578L12.0482 64.4272L12.0378 64.3599L6.88554 63.728L6.72341 62.6837L13.4973 63.6503L13.649 64.6272L8.89978 66.8135L8.91547 66.9146L14.104 67.558L14.2557 68.5349Z" fill="black"/>
<path d="M8.97844 58.9642L12.9141 59.0858L12.883 60.091L6.34068 59.8889L6.37068 58.9178L7.39292 58.9494L7.39555 58.8642C7.06806 58.7006 6.80833 58.4595 6.61637 58.1409C6.42157 57.8222 6.3318 57.4159 6.34706 56.9218C6.36074 56.4788 6.46358 56.094 6.65557 55.7674C6.84472 55.4407 7.1253 55.1907 7.49731 55.0175C7.86647 54.8441 8.32933 54.766 8.88588 54.7832L13.043 54.9116L13.0119 55.9168L8.92298 55.7905C8.40902 55.7747 8.00452 55.8958 7.70949 56.1538C7.41161 56.4118 7.25548 56.7736 7.24109 57.2393C7.23118 57.5602 7.29189 57.8491 7.42322 58.1061C7.55464 58.3603 7.75158 58.5639 8.01402 58.717C8.27647 58.8701 8.59794 58.9525 8.97844 58.9642Z" fill="black"/>
<path d="M9.92492 43.0446L9.92829 43.9835C9.76799 43.9978 9.60453 44.0391 9.43793 44.1077C9.26935 44.1727 9.11471 44.2829 8.974 44.4383C8.83329 44.5937 8.72359 44.8123 8.64492 45.0941C8.53722 45.4799 8.5364 45.8263 8.64245 46.1331C8.74654 46.4365 8.93403 46.626 9.20492 46.7016C9.44572 46.7688 9.66033 46.7344 9.84877 46.5982C10.0372 46.462 10.2299 46.2209 10.4268 45.8747L10.9179 45.003C11.212 44.4776 11.5386 44.116 11.8976 43.9183C12.2539 43.7198 12.6523 43.6821 13.0928 43.8051C13.454 43.9059 13.7478 44.1 13.9744 44.3874C14.2017 44.6721 14.3458 45.022 14.4069 45.4372C14.4679 45.8525 14.4301 46.305 14.2934 46.7948C14.1139 47.4378 13.8258 47.9311 13.429 48.2745C13.0323 48.618 12.5501 48.771 11.9825 48.7335L12.0093 47.7499C12.373 47.7571 12.6737 47.6626 12.9114 47.4664C13.1497 47.2675 13.3243 46.9696 13.4351 46.5729C13.5611 46.1214 13.5654 45.7362 13.448 45.4173C13.3285 45.0949 13.1334 44.8959 12.8625 44.8203C12.6436 44.7592 12.4389 44.7846 12.2483 44.8966C12.0551 45.0078 11.8772 45.2118 11.7147 45.5086L11.1751 46.4906C10.8771 47.0298 10.5467 47.3947 10.1837 47.5854C9.81883 47.7726 9.41885 47.8055 8.98378 47.684C8.62806 47.5847 8.34126 47.397 8.12339 47.1209C7.90629 46.842 7.76826 46.507 7.70929 46.116C7.6511 45.7222 7.68387 45.3037 7.80761 44.8604C7.98177 44.2365 8.25531 43.7849 8.62824 43.5056C9.00193 43.2235 9.43416 43.0698 9.92492 43.0446Z" fill="black"/>
<path d="M16.2739 40.5646C16.0202 41.1233 15.6698 41.5445 15.2227 41.8282C14.7757 42.112 14.2713 42.2573 13.7096 42.2644C13.1479 42.2714 12.5696 42.1398 11.9746 41.8697C11.3694 41.5948 10.8857 41.241 10.5237 40.8083C10.1603 40.3719 9.93897 39.8938 9.85977 39.3743C9.77916 38.8509 9.86102 38.3202 10.1053 37.7822C10.2956 37.3632 10.5447 37.0207 10.8526 36.7549C11.1605 36.4891 11.5029 36.3123 11.8797 36.2245C12.2566 36.1366 12.643 36.1514 13.039 36.2688L12.6232 37.1845C12.3199 37.131 12.0088 37.177 11.6901 37.3224C11.3699 37.4641 11.1182 37.7367 10.935 38.1402C10.7729 38.4972 10.7239 38.8525 10.7879 39.206C10.8506 39.5559 11.016 39.8821 11.2842 40.1849C11.5509 40.4838 11.9093 40.7355 12.3594 40.9399C12.8198 41.149 13.2537 41.2586 13.6609 41.2688C14.0693 41.2764 14.4284 41.1899 14.7382 41.0092C15.0492 40.8259 15.2869 40.5532 15.4514 40.191C15.5594 39.9531 15.6161 39.7183 15.6214 39.4867C15.6268 39.2551 15.5824 39.0368 15.4882 38.8318C15.3941 38.6268 15.2513 38.4466 15.0599 38.291L15.4757 37.3753C15.804 37.5868 16.0627 37.8587 16.2519 38.1911C16.4396 38.5197 16.5405 38.8884 16.5545 39.2973C16.5671 39.7024 16.4736 40.1248 16.2739 40.5646Z" fill="black"/>
<path d="M18.0818 36.1888L12.5594 32.6751L13.0809 31.8554L13.915 32.3861L13.9517 32.3286C13.7425 32.054 13.6367 31.7308 13.6342 31.3589C13.6318 30.9869 13.7358 30.6356 13.9463 30.3048C13.9859 30.2425 14.0367 30.1654 14.0986 30.0734C14.1604 29.9815 14.209 29.913 14.2443 29.8681L15.1072 30.4172C15.0817 30.4414 15.029 30.5004 14.949 30.5943C14.8682 30.6843 14.7919 30.7856 14.7203 30.8983C14.5495 31.1667 14.4533 31.4423 14.4317 31.7249C14.4093 32.0035 14.4575 32.2665 14.5762 32.5138C14.6941 32.7572 14.8777 32.9582 15.127 33.1168L18.6216 35.3403L18.0818 36.1888Z" fill="black"/>
<path d="M22.4211 29.9383C22.0364 30.3868 21.5921 30.6887 21.0882 30.8441C20.5862 30.9973 20.0619 31.0042 19.5153 30.8647C18.9705 30.723 18.4416 30.432 17.9284 29.9918C17.411 29.5478 17.0397 29.0665 16.8147 28.5478C16.5915 28.027 16.5175 27.5068 16.5926 26.9873C16.6695 26.4657 16.9004 25.9806 17.2852 25.5321C17.6699 25.0836 18.1133 24.7828 18.6153 24.6295C19.1192 24.4741 19.6446 24.4682 20.1915 24.6117C20.7402 24.7531 21.2733 25.0458 21.7908 25.4897C22.304 25.93 22.6711 26.4096 22.8921 26.9286C23.1149 27.4455 23.1879 27.9647 23.1109 28.4863C23.0358 29.0058 22.8059 29.4898 22.4211 29.9383ZM21.7355 29.3501C22.0277 29.0094 22.1809 28.6542 22.1949 28.2844C22.2089 27.9147 22.119 27.5549 21.925 27.205C21.731 26.8552 21.468 26.5379 21.136 26.253C20.8039 25.9681 20.4492 25.7555 20.0718 25.6151C19.6944 25.4748 19.3229 25.4387 18.9574 25.507C18.592 25.5752 18.2631 25.7797 17.9708 26.1203C17.6785 26.461 17.5265 26.8172 17.5146 27.1888C17.5027 27.5604 17.5949 27.922 17.791 28.2737C17.9871 28.6254 18.2512 28.9436 18.5833 29.2285C18.9153 29.5134 19.269 29.7251 19.6442 29.8636C20.0195 30.0021 20.3888 30.0363 20.7521 29.9662C21.1154 29.8961 21.4432 29.6907 21.7355 29.3501Z" fill="black"/>
<path d="M20.573 18.8625L26.4692 25.2968L25.7278 25.9762L19.8315 19.542L20.573 18.8625Z" fill="black"/>
<path d="M24.004 15.8536L29.3164 22.7777L28.5185 23.3899L23.2061 16.4658L24.004 15.8536Z" fill="black"/>
<path d="M36.5385 18.091C36.0411 18.3147 35.5454 18.3865 35.0515 18.3064C34.5564 18.2237 34.0977 18.0001 33.6753 17.6356C33.2517 17.2685 32.8978 16.7688 32.6135 16.1366C32.3316 15.5095 32.1945 14.9171 32.2022 14.3592C32.2099 13.8013 32.349 13.3104 32.6195 12.8867C32.8899 12.4629 33.2765 12.1381 33.7792 11.9121C34.1678 11.7373 34.504 11.6641 34.7877 11.6923C35.0728 11.7167 35.3116 11.7838 35.5042 11.8934C35.6982 11.9993 35.8522 12.0889 35.9662 12.1623L36.0439 12.1273L34.7228 9.18905L35.6401 8.77666L39.2188 16.7364L38.3327 17.1348L37.9203 16.2176L37.8114 16.2665C37.793 16.4057 37.7589 16.5861 37.7091 16.8078C37.6581 17.027 37.5464 17.2532 37.374 17.4864C37.2005 17.7171 36.922 17.9186 36.5385 18.091ZM36.2925 17.2111C36.6604 17.0457 36.9282 16.81 37.0959 16.5041C37.2625 16.1956 37.335 15.8407 37.3133 15.4392C37.2905 15.0352 37.1778 14.6078 36.9751 14.1569C36.7747 13.7113 36.5346 13.3504 36.2548 13.0744C35.9738 12.7958 35.6644 12.6203 35.3266 12.5479C34.9876 12.473 34.6316 12.5194 34.2585 12.6871C33.8698 12.8618 33.5908 13.1072 33.4214 13.4232C33.2534 13.7355 33.1809 14.0904 33.204 14.4881C33.2284 14.882 33.3351 15.2889 33.5238 15.7086C33.7148 16.1336 33.9532 16.4905 34.2388 16.7795C34.5259 17.0647 34.8437 17.252 35.1923 17.3413C35.5423 17.4269 35.909 17.3835 36.2925 17.2111Z" fill="black"/>
<path d="M44.0814 15.0203C43.5093 15.1684 42.9721 15.1621 42.4699 15.0016C41.9704 14.8404 41.5362 14.5463 41.1675 14.1194C40.8015 13.6917 40.5338 13.1506 40.3644 12.4961C40.1936 11.836 40.1641 11.2289 40.276 10.6746C40.3906 10.1197 40.6272 9.65056 40.9858 9.26724C41.3471 8.88321 41.8138 8.61717 42.3859 8.46911C42.9579 8.32106 43.4937 8.32765 43.9932 8.48889C44.4955 8.64942 44.93 8.94487 45.2966 9.37524C45.6661 9.80491 45.9362 10.3498 46.107 11.0098C46.2765 11.6644 46.3035 12.2678 46.1882 12.82C46.0756 13.3715 45.8386 13.8392 45.4773 14.2232C45.1187 14.6066 44.6534 14.8723 44.0814 15.0203ZM43.855 14.1457C44.2896 14.0333 44.6183 13.8293 44.8411 13.534C45.064 13.2386 45.1959 12.8919 45.2367 12.494C45.2775 12.0961 45.2431 11.6854 45.1334 11.2618C45.0238 10.8383 44.8543 10.461 44.6249 10.1301C44.3954 9.79923 44.1113 9.55731 43.7724 9.40439C43.4335 9.25147 43.0468 9.23124 42.6122 9.3437C42.1777 9.45617 41.8493 9.66146 41.6271 9.95959C41.405 10.2577 41.2739 10.6071 41.2338 11.0078C41.1937 11.4085 41.2284 11.8206 41.338 12.2441C41.4477 12.6676 41.6168 13.0435 41.8455 13.3717C42.0743 13.6998 42.3577 13.939 42.6959 14.0892C43.0341 14.2393 43.4205 14.2582 43.855 14.1457Z" fill="black"/>
<path d="M49.6119 13.3526L47.2423 6.93347L48.2974 6.87234L49.9997 11.7935L50.0677 11.7895L51.1732 6.70571L52.2453 6.64359L53.9126 11.5497L53.9806 11.5457L55.1041 6.47795L56.1592 6.41682L54.5468 13.0667L53.5599 13.1239L51.8396 8.18669L51.7375 8.19261L50.5989 13.2954L49.6119 13.3526Z" fill="black"/>
<path d="M59.3665 8.98283L58.8822 12.8904L57.8841 12.7667L58.6892 6.27098L59.6535 6.39049L59.5277 7.40545L59.6122 7.41594C59.8054 7.10494 60.0694 6.86858 60.4043 6.70685C60.7396 6.54229 61.1526 6.49042 61.6431 6.55122C62.0829 6.60573 62.4566 6.74365 62.7641 6.96497C63.0719 7.18348 63.2949 7.48593 63.4331 7.87234C63.5717 8.25593 63.6067 8.72402 63.5382 9.27661L63.0266 13.4041L62.0285 13.2804L62.5317 9.22057C62.595 8.71027 62.5118 8.29632 62.282 7.97872C62.0527 7.6583 61.7068 7.46943 61.2444 7.41213C60.9258 7.37264 60.6325 7.40642 60.3645 7.51347C60.0993 7.62086 59.8783 7.79816 59.7017 8.04535C59.5251 8.29255 59.4133 8.60504 59.3665 8.98283Z" fill="black"/>
<path d="M75.2716 11.4262L74.3365 11.3412C74.3374 11.1803 74.3116 11.0137 74.2591 10.8414C74.2102 10.6674 74.1151 10.5031 73.9736 10.3484C73.8321 10.1937 73.6248 10.0639 73.3516 9.95905C72.9777 9.81551 72.6329 9.7821 72.3175 9.85881C72.0056 9.93389 71.7994 10.1027 71.6986 10.3653C71.609 10.5987 71.6231 10.8156 71.7409 11.016C71.8588 11.2164 72.0807 11.4309 72.4068 11.6596L73.2284 12.2305C73.7239 12.5728 74.0531 12.932 74.2162 13.308C74.3802 13.6813 74.3803 14.0815 74.2164 14.5085C74.082 14.8586 73.8611 15.1329 73.5537 15.3314C73.2489 15.5308 72.8869 15.6414 72.4678 15.6632C72.0487 15.6849 71.6017 15.6046 71.127 15.4224C70.5037 15.1832 70.0397 14.8499 69.7351 14.4226C69.4305 13.9953 69.3236 13.5009 69.4143 12.9393L70.391 13.0586C70.3497 13.42 70.4155 13.7283 70.5884 13.9833C70.764 14.2394 71.0441 14.4412 71.4286 14.5888C71.8663 14.7567 72.2493 14.7973 72.5779 14.7104C72.9101 14.6218 73.1266 14.4462 73.2273 14.1837C73.3088 13.9715 73.3027 13.7653 73.2092 13.5651C73.1166 13.3622 72.9303 13.1659 72.6501 12.9762L71.7232 12.3466C71.2145 11.9992 70.8823 11.6359 70.7266 11.2566C70.5746 10.8757 70.5795 10.4744 70.7413 10.0527C70.8737 9.70788 71.0876 9.44002 71.383 9.24911C71.681 9.05921 72.0275 8.95331 72.4224 8.93141C72.8199 8.91053 73.2335 8.98254 73.6631 9.14745C74.2678 9.37955 74.6917 9.69437 74.9347 10.0919C75.1804 10.4905 75.2926 10.9353 75.2716 11.4262Z" fill="black"/>
<path d="M77.0374 17.9194C76.5045 17.6151 76.1175 17.2272 75.8764 16.7558C75.6352 16.2844 75.5371 15.7688 75.582 15.2088C75.627 14.6489 75.8114 14.0852 76.1355 13.5178C76.4651 12.9405 76.8621 12.4917 77.3264 12.1712C77.7946 11.8497 78.2911 11.6736 78.8157 11.6427C79.3443 11.6109 79.8651 11.7415 80.3783 12.0345C80.7779 12.2627 81.0959 12.5424 81.332 12.8735C81.5682 13.2047 81.7126 13.562 81.7652 13.9453C81.8179 14.3287 81.7674 14.7121 81.6139 15.0955L80.7406 14.5968C80.8219 14.2997 80.8049 13.9858 80.6895 13.6549C80.5781 13.323 80.33 13.0472 79.9451 12.8274C79.6046 12.633 79.2554 12.5514 78.8974 12.5825C78.5433 12.6126 78.2031 12.7471 77.8769 12.9861C77.5545 13.224 77.2708 13.5576 77.0257 13.9869C76.7749 14.426 76.6257 14.8479 76.5778 15.2524C76.5325 15.6583 76.5855 16.0239 76.7367 16.3491C76.8905 16.6757 77.14 16.9376 77.4854 17.1348C77.7124 17.2645 77.9409 17.3426 78.171 17.3693C78.4011 17.396 78.6226 17.372 78.8354 17.2972C79.0482 17.2225 79.2409 17.097 79.4135 16.9207L80.2868 17.4194C80.0459 17.7268 79.7512 17.9593 79.4028 18.1169C79.0582 18.2734 78.6817 18.3398 78.2733 18.3159C77.8688 18.291 77.4568 18.1588 77.0374 17.9194Z" fill="black"/>
<path d="M81.2155 20.1018L85.2188 14.9233L85.9874 15.5175L85.3828 16.2997L85.4367 16.3414C85.7292 16.1581 86.0608 16.0823 86.4314 16.1138C86.802 16.1453 87.1423 16.281 87.4525 16.5208C87.511 16.566 87.5831 16.6236 87.6691 16.6936C87.755 16.7636 87.8187 16.8182 87.8602 16.8574L87.2346 17.6666C87.2129 17.639 87.1589 17.5811 87.0727 17.4929C86.9904 17.4042 86.8965 17.319 86.7909 17.2373C86.5391 17.0427 86.2735 16.9218 85.9941 16.8746C85.7186 16.8268 85.4523 16.8507 85.1952 16.9464C84.9421 17.0416 84.7252 17.2061 84.5445 17.4398L82.0112 20.7169L81.2155 20.1018Z" fill="black"/>
<path d="M87.2578 25.1865C86.8477 24.7611 86.589 24.2903 86.4819 23.774C86.3767 23.2598 86.4193 22.7372 86.6098 22.2062C86.8022 21.6773 87.1418 21.1781 87.6285 20.7088C88.1193 20.2355 88.6335 19.9113 89.1711 19.7363C89.7107 19.5632 90.2356 19.5386 90.7456 19.6624C91.2577 19.7882 91.7188 20.0638 92.129 20.4892C92.5392 20.9145 92.7969 21.3843 92.902 21.8986C93.0092 22.4149 92.9655 22.9385 92.771 23.4694C92.5785 24.0023 92.2369 24.5054 91.7461 24.9787C91.2594 25.4481 90.7472 25.7683 90.2097 25.9393C89.6741 26.1124 89.1503 26.1361 88.6382 26.0102C88.1282 25.8864 87.668 25.6119 87.2578 25.1865ZM87.9082 24.5594C88.2197 24.8825 88.5589 25.0685 88.9257 25.1174C89.2925 25.1662 89.6592 25.1106 90.0257 24.9505C90.3923 24.7904 90.733 24.5585 91.048 24.2548C91.3629 23.9511 91.608 23.618 91.7834 23.2555C91.9587 22.8931 92.0297 22.5267 91.9962 22.1564C91.9628 21.7861 91.7903 21.4394 91.4787 21.1163C91.1671 20.7932 90.8269 20.6082 90.4581 20.5613C90.0892 20.5144 89.7205 20.572 89.3519 20.7341C88.9833 20.8962 88.6415 21.129 88.3266 21.4327C88.0117 21.7364 87.7676 22.0685 87.5942 22.429C87.4209 22.7895 87.352 23.1539 87.3875 23.5223C87.423 23.8906 87.5966 24.2363 87.9082 24.5594Z" fill="black"/>
<path d="M98.267 24.1547L91.3236 29.4418L90.7143 28.6417L97.6578 23.3546L98.267 24.1547Z" fill="black"/>
<path d="M101.149 28.1402L93.7517 32.7709L93.218 31.9185L100.615 27.2877L101.149 28.1402Z" fill="black"/>
<path d="M97.6644 40.2996C97.4883 39.7834 97.4631 39.2832 97.589 38.799C97.7176 38.3138 97.9831 37.878 98.3856 37.4915C98.7907 37.1041 99.3212 36.7984 99.9773 36.5745C100.628 36.3525 101.231 36.2714 101.785 36.3312C102.34 36.391 102.816 36.5754 103.212 36.8843C103.609 37.1932 103.896 37.6085 104.074 38.13C104.212 38.5333 104.253 38.8749 104.199 39.1547C104.148 39.4362 104.059 39.6678 103.932 39.8493C103.808 40.0325 103.704 40.1774 103.621 40.2841L103.648 40.3647L106.697 39.3242L107.022 40.2759L98.7625 43.0948L98.4487 42.1753L99.4004 41.8505L99.3619 41.7375C99.2251 41.7062 99.0487 41.6553 98.8326 41.585C98.6191 41.5137 98.4044 41.3814 98.1883 41.188C97.9749 40.9937 97.8002 40.6976 97.6644 40.2996ZM98.5635 40.1369C98.6938 40.5187 98.9034 40.8074 99.1922 41.003C99.4838 41.1976 99.8305 41.303 100.232 41.3189C100.637 41.334 101.073 41.2617 101.54 41.1021C102.003 40.9442 102.385 40.7389 102.686 40.4861C102.989 40.2324 103.193 39.9408 103.297 39.6112C103.403 39.2807 103.39 38.9219 103.258 38.5348C103.12 38.1315 102.902 37.8307 102.603 37.6325C102.308 37.4361 101.961 37.3307 101.563 37.3165C101.169 37.3041 100.754 37.3722 100.318 37.5208C99.8773 37.6713 99.4996 37.8752 99.1852 38.1326C98.8744 38.3918 98.6583 38.6907 98.5367 39.0294C98.4187 39.3698 98.4277 39.739 98.5635 40.1369Z" fill="black"/>
<path d="M100.028 48.2279C99.935 47.6443 99.9924 47.1102 100.2 46.6255C100.408 46.1436 100.742 45.7395 101.202 45.4131C101.663 45.0895 102.227 44.8746 102.895 44.7683C103.568 44.6611 104.175 44.6896 104.716 44.8538C105.258 45.0207 105.702 45.3009 106.05 45.6944C106.398 46.0907 106.618 46.5806 106.711 47.1641C106.804 47.7477 106.746 48.2804 106.538 48.7623C106.33 49.247 105.995 49.6513 105.532 49.9754C105.069 50.3022 104.501 50.5192 103.827 50.6264C103.159 50.7327 102.556 50.7021 102.018 50.5347C101.479 50.3701 101.036 50.0897 100.688 49.6934C100.341 49.3 100.121 48.8115 100.028 48.2279ZM100.92 48.0859C100.991 48.5292 101.162 48.8758 101.435 49.1258C101.708 49.3758 102.04 49.5401 102.433 49.6186C102.825 49.6971 103.237 49.702 103.669 49.6332C104.101 49.5644 104.493 49.4316 104.844 49.2347C105.195 49.0379 105.463 48.778 105.648 48.4553C105.832 48.1325 105.889 47.7494 105.819 47.3061C105.748 46.8629 105.575 46.5164 105.299 46.2669C105.024 46.0173 104.688 45.8535 104.293 45.7755C103.898 45.6974 103.485 45.6927 103.053 45.7615C102.621 45.8303 102.23 45.9629 101.882 46.1593C101.534 46.3557 101.268 46.6151 101.087 46.9374C100.905 47.2598 100.85 47.6426 100.92 48.0859Z" fill="black"/>
</svg>
