<?xml version="1.0" encoding="utf-8"?>
<!-- Generator: Adobe Illustrator 24.3.0, SVG Export Plug-In . SVG Version: 6.00 Build 0)  -->
<svg version="1.1" id="群組_14" xmlns="http://www.w3.org/2000/svg" xmlns:xlink="http://www.w3.org/1999/xlink" x="0px" y="0px"
	 viewBox="0 0 600 180" style="enable-background:new 0 0 600 180;" xml:space="preserve">
<style type="text/css">
	.st0{fill-rule:evenodd;clip-rule:evenodd;fill:#1E1E1E;}
	.st1{fill-rule:evenodd;clip-rule:evenodd;}
	.st2{fill:#1E1E1E;}
	.st3{fill:#FEFCF7;}
	.st4{fill-rule:evenodd;clip-rule:evenodd;fill:#FFFFFF;}
	.st5{fill:#1C1D1D;}
	.st6{fill:#DA9300;}
	.st7{fill:#FEEBC8;}
	.st8{fill:#FFFFFF;}
	.st9{fill:#0C0103;}
	.st10{fill:#F6BBAA;}
	.st11{fill:#F7CB83;}
</style>
<path id="形狀_512_拷貝" class="st0" d="M382.6,85.5c0-3.4,7-8.4,7-8.4c-2.2,0.9-4.5,1.3-6.8,1.3c-1,0-2-0.1-3-0.3
	c0.5-1.1,0.9-2.2,1.2-3.3c1-3.9,0.9-8-0.3-11.9c-1.4-4.3-4.4-8-8.4-10.1c-2.8-1.4-5.7-2.4-8.8-2.8c0.3-3.6-0.4-7.3-2.1-10.5
	c-1.7-3.5-4.7-6.2-8.3-7.6c-2.3-0.8-4.6-1.3-7.1-1.3c-0.8,0-1.7,0.1-2.5,0.2c-1.6,0.2-3.2,0.7-4.7,1.3c-5.4-2.3,0-13.4,0-13.4
	s-8.1,10.4-11.7,10.4h0c-4.6-0.1-9.5-4.7-17.3-14.8c0,0,5.8,10,5.8,13.7c0,3-4.1,4.5-7.6,4.5H308c0,0,3.9,2.1,5.4,4.2
	c0.4,0.5,0.5,1.2,0.4,1.8c-1.6,0.9-3,2-4.3,3.3c-4.7,4.7-6.4,11.5-4.6,17.9c-2,1.1-3.8,2.5-5.4,4.1c-1.6,1.6-3,3.3-4.1,5.3
	c-1.9,3.4-2.5,7.5-1.7,11.3c0.3,1.6,0.9,3.2,1.7,4.7c-0.9,2-3.3,4.9-10,7.4c1-0.2,2-0.2,3.1-0.2c2,0,4.5,0.3,5.6,1.8
	c1.6,2-0.8,6.3-9,12.5c0,0,12.9-8.3,18.1-8.3c0.5,0,1,0.1,1.4,0.3c2.8,1.7,2.8,5.8,0.3,19c0,0,4.4-9.2,6.7-9.4c0,0,0.1,0,0.1,0
	c1.6,0,3.9,3.3,6.6,8.6c0,0-2.4-8.9-0.8-10.5c0.3-0.3,0.7-0.6,1.1-0.8c1.5,1,3,1.7,4.7,2.2c1.7,0.5,3.4,0.8,5.1,0.8
	c0.9,0,1.8-0.1,2.7-0.2c2.2-0.3,4.4-1,6.4-2c1.9-0.9,3.6-1.9,5.2-3.2c3,1.8,6.4,2.7,9.9,2.7c0.6,0,1.2,0,1.8-0.1
	c3.4-0.3,6.6-1.4,9.5-3.2c1.9-1.2,3.6-2.8,4.9-4.6c0.5-0.2,1.1-0.3,1.6-0.3c0.5,0,1,0.1,1.5,0.3c2.9,1.3,6.4,10.2,6.4,10.2
	c-1.5-8.9-1.7-11.8,0.6-13.9c0.4-0.3,1-0.4,1.5-0.4c4.6,0,15.9,6.3,15.9,6.3C386.5,92.6,382.6,88.2,382.6,85.5z M316.6,105.3
	c-0.5,0.6-1.1,1.6-0.8,4.7c-1.9-2.7-3.2-3.1-4.1-3.1h-0.2c-0.9,0.1-1.8,0.7-2.9,2c-0.5,0.6-1,1.3-1.4,1.9c0.4-2.4,0.6-4.8,0.6-7.2
	c0-1.3-0.2-2.6-0.7-3.8c-0.4-1-1.1-1.8-2-2.4c-0.6-0.3-1.3-0.5-2-0.5c-1.9,0.1-3.7,0.6-5.5,1.4c-1.3,0.5-2.7,1.1-4.2,1.9
	c1.1-1.2,1.8-2.7,2.2-4.3c0.2-1-0.1-1.9-0.7-2.7c-1-1.2-2.5-1.9-4-2c0.6-0.3,1.1-0.7,1.7-1.1c1.3-0.9,2.5-2.1,3.4-3.5
	c0.1-0.1,0.1-0.2,0.1-0.3c0.5,0.9,1.2,1.7,1.9,2.4c1.8,1.9,3.9,3.3,6.3,4.3c2.2,0.9,4.6,1.5,7,1.7c0.9,3.9,3.1,7.4,6.2,9.9
	C317.1,104.7,316.8,105,316.6,105.3L316.6,105.3z M336.3,33.3c-2,1.2-3.9,2.7-5.4,4.4c-2.5-1.1-5.2-1.7-7.9-1.7c-0.2,0-0.4,0-0.6,0
	c-2.5,0.1-5,0.7-7.3,1.7c0-0.7-0.2-1.3-0.6-1.9c-0.8-1-1.8-1.9-2.9-2.7c0.8-0.2,1.5-0.5,2.3-0.9c1.8-0.8,3-2.5,3.1-4.5
	c-0.1-1.7-0.6-3.3-1.3-4.9c1.1,1.2,2.2,2.3,3.3,3.3c3,2.6,5.6,3.9,8.2,3.9h0.1c1.5-0.2,2.9-0.8,4.1-1.9c1.4-1.1,2.7-2.4,4-3.7
	c0.2-0.2,0.3-0.3,0.5-0.5c-0.7,3.1-0.5,5.5,0.5,7.1c0.3,0.5,0.7,1,1.2,1.3l0,0l0.1,0C337.1,32.9,336.7,33.1,336.3,33.3L336.3,33.3z
	 M378.2,93.2c-1.5,1.3-2.3,3.3-2.2,5.3c0,0.7,0,1.4,0.1,2.1c-1.3-2.1-2.5-3.4-3.6-3.9c-0.6-0.3-1.3-0.4-2-0.4c-0.2,0-0.5,0-0.7,0
	c0.9-1.6,1.5-3.4,1.9-5.3c0.3-1.8,0.4-3.6,0.2-5.3c3.1-1.3,5.6-3.6,7.3-6.5c1.2,0.3,2.4,0.4,3.6,0.4c0.7,0,1.4,0,2.1-0.1
	c-0.8,0.8-1.6,1.7-2.2,2.6c-0.8,1-1.2,2.2-1.3,3.4c0,1,0.3,2.1,0.9,3c0.7,1.2,1.6,2.3,2.6,3.4c0.8,0.8,1.6,1.7,2.6,2.6
	c-2.2-1.1-4.6-1.7-7.1-1.9C379.6,92.4,378.8,92.7,378.2,93.2L378.2,93.2z M379.8,35.6c0.4-0.3,0.4-0.8,0.1-1.2c0,0,0,0,0,0l-0.1,0
	c-0.3-0.3-0.9-0.4-1.2,0c0,0,0,0,0,0l-6.5,7.3L379.8,35.6z M373.5,30.9L373.5,30.9c-0.4-0.2-0.9-0.1-1.2,0.3c0,0,0,0,0,0.1
	l-4.8,10.2l6.3-9.4C374.1,31.7,373.9,31.2,373.5,30.9C373.5,30.9,373.5,30.9,373.5,30.9L373.5,30.9z M383.3,41.3
	c0.4-0.3,0.5-0.8,0.3-1.2c0,0,0,0,0,0l0,0c-0.3-0.4-0.8-0.5-1.2-0.2c0,0,0,0,0,0l-12,6.5L383.3,41.3z M283.4,54.2
	c-0.5-0.1-0.9,0.2-1,0.7c0,0,0,0,0,0l0,0c-0.1,0.5,0.2,0.9,0.7,1c0,0,0,0,0,0l13.2,1.1L283.4,54.2z M283.3,49.9l16.2,5.1l-15.4-6.7
	c-0.4-0.2-1,0-1.2,0.4c0,0,0,0,0,0l0,0C282.7,49.2,282.9,49.7,283.3,49.9C283.3,49.9,283.3,49.9,283.3,49.9L283.3,49.9z M291.6,47.5
	l5.6,2.8l-4.1-3.9c-0.4-0.3-0.9-0.2-1.2,0.2c0,0,0,0,0,0c-0.3,0-0.5,0.2-0.5,0.5C291.4,47.3,291.4,47.4,291.6,47.5L291.6,47.5z
	 M345.7,108.7l1.5,13.1c0.1,0.5,0.5,0.7,1,0.7c0.4,0,0.7-0.3,0.7-0.7c0,0,0-0.1,0-0.1L345.7,108.7z M341.7,117.2
	c0.5,0,0.9-0.4,0.9-0.8c0,0,0,0,0-0.1l0.7-7.3l-2.5,7.3C340.8,116.7,341.1,117.1,341.7,117.2C341.6,117.2,341.6,117.2,341.7,117.2
	L341.7,117.2z M348.9,107.1l5.4,7.5c0.2,0.4,0.7,0.6,1.2,0.4c0.4-0.2,0.6-0.7,0.4-1.2c0,0,0,0,0-0.1L348.9,107.1z"/>
<g>
	<path id="一些可愛的_家小物辣_拷貝_3_" class="st1" d="M40.6,66.3l-0.5,6.8h40l0.5-6.8H40.6z M120.7,73.1
		c4.4,0,6.2-1.9,7.3-8.3c-2-0.5-3.8-1.3-5.5-2.4c-0.5,4.1-0.8,4.9-2.1,4.9h-3.4c-1.4,0-1.6-0.2-1.5-2l0.3-4h9.3l0.4-5.5h-9.3l0.4-6
		h-6.3l-1.1,15.6c-0.4,5.9,0.8,7.8,6.3,7.8H120.7z M92.2,80.6h29.6l0.4-6H92.6L92.2,80.6z M87.5,74.4c5.7-0.6,13.5-1.5,20.8-2.3
		l0.3-5.7l-5.4,0.5l0.4-5.7h5l0.4-5.5h-5l0.4-6h-6.2L97,67.5l-1.7,0.1l1-13.7h-5.7l-1,14.2l-2.2,0.2L87.5,74.4z M86.5,89.7h39.5
		l0.4-6.2H86.9L86.5,89.7z M151.6,68.7l-0.4,5.2h-6.5l0.4-5.2H151.6L151.6,68.7z M157,79.8l1.2-17.1h-18.7L138,83.1h6.1l0.2-3.2H157
		L157,79.8z M175.7,52.5h-39.2l-0.4,6.3h27.9l-1.7,24c-0.1,0.9-0.5,1.2-1.5,1.2s-4.9,0-7.8-0.2c1,2.1,1.8,4.3,2.2,6.6
		c4.5,0,7.7-0.1,10.2-1.2c2.3-1,3.3-2.8,3.5-6.3l1.7-24.1h4.8L175.7,52.5z M206.1,79.4c-1.3,0.9-2.7,1.6-4.1,2.2
		c-1.8-0.6-3.5-1.3-5.2-2.2H206.1z M190,73.8c1.7-1.5,3.1-3.3,4.1-5.4c-0.1,2.6,0.3,4,2.1,4.6c-1.3,1.1-2.8,2.1-4.3,3
		C191.2,75.3,190.6,74.6,190,73.8L190,73.8z M189.7,64.3h9.3l-0.9,0.9c0.5,0.2,1,0.4,1.4,0.7h-5.2l-0.1,1.2l-4.1-1.8
		c-0.2,0.3-0.3,0.7-0.5,1L189.7,64.3z M198.9,56.9c0.5,0.9,0.9,1.8,1.2,2.8h-5.4l1.9-0.8c-0.3-0.9-0.7-1.8-1.3-2.6
		c2.1-0.1,4.2-0.2,6.3-0.3L198.9,56.9z M203.2,59.7l2.5-0.9c-0.2-1.1-0.7-2.1-1.3-3c2.5-0.2,4.9-0.4,7.2-0.7
		c-0.8,1.6-1.7,3.1-2.7,4.6H203.2L203.2,59.7z M214.7,66.6c-0.7-0.6-1.4-1.2-2.1-1.7l-4.3,3c0.5,0.4,1,0.9,1.5,1.3
		c-1.2-0.3-2.4-0.8-3.5-1.4c-0.3,1.3-0.5,1.5-1.5,1.5h-3.5c-1.3,0-1.5-0.1-1.5-1.1l0.1-2.1c1.4,0.7,2.7,1.7,3.9,2.7l3.3-3.4
		c-0.5-0.4-1-0.8-1.5-1.1h9.2L214.7,66.6z M211.9,74.9l-1,0.2h-9.5c0.5-0.5,1-1,1.4-1.5h2.3c3.2,0,4.7-0.8,5.5-3.5
		c1.5,1.4,2.7,3,3.7,4.7l4.7-3.3c-0.6-1-1.4-2-2.2-2.9h4l0.6-8.9H215c1-1.2,2.1-2.6,3.2-4l-3.4-1.1c1.8-0.3,3.6-0.6,5.2-0.9
		l-3.8-4.1c-7.3,1.5-19.6,2.2-30.3,2.4c0.5,1.4,0.8,2.9,0.9,4.5c1.7,0,3.5,0,5.3-0.1l-2.3,0.9c0.5,0.7,0.9,1.5,1.2,2.4h-6.7
		l-0.6,8.1h5c-0.8,1.1-1.8,2.1-3,3l3.6,2.8l-4.5,1.8c0.7,1,1.4,2,2.2,2.9c-1.3,0.5-2.6,0.9-3.9,1.3c1.4,1.3,2.7,2.6,3.9,4.1
		c1.3-0.5,2.6-1,3.8-1.5c1,0.7,2,1.4,3,2.1c-4.2,0.8-8.5,1.3-12.8,1.4c1.2,1.5,2.2,3.3,2.8,5.1c5.8-0.4,11.5-1.5,17.1-3.2
		c5.4,1.7,11,2.8,16.6,3.1c1.1-2.1,2.4-4,3.9-5.8c-4.1-0.2-8.1-0.6-12.1-1.3c2.5-1.6,4.7-3.6,6.5-6.1L211.9,74.9z M235.5,80.6
		l0.5-7.4h5.6l-0.5,7.4H235.5L235.5,80.6z M242,67.9h-5.6l0.4-5.8h5.6L242,67.9z M257.9,56.3c0.7-1.7,1.4-3.4,2-5l-5.9-1.4
		c-1.4,4.5-3.4,8.7-6,12.6l0.4-5.7H242c0.8-1.8,1.7-4,2.6-6l-6.8-1c-0.3,2.4-0.8,4.7-1.4,7h-4.9l-2.3,32.5h5.6l0.2-3h11.2l1.4-20.4
		c1.2,0.8,2.3,1.7,3.3,2.7c1.5-2,2.9-4.2,4.1-6.4h8.2c-1.3,14.2-2.3,20.5-3.6,21.8c-0.5,0.5-1.2,0.8-1.9,0.8c-1.2,0-3.7,0-6.5-0.3
		c1,1.9,1.6,3.9,1.6,6c2.3,0.1,4.7,0.1,7-0.2c1.9-0.2,3.6-1.2,4.7-2.8c2-2.4,2.9-9.3,4.7-28.4c0.1-0.7,0.2-2.7,0.2-2.7L257.9,56.3
		L257.9,56.3z M260.9,76.1c-1.1-2.5-3.6-6.6-5.3-9.5l-5.1,2.7c1.8,3.2,3.5,6.6,4.9,10L260.9,76.1z M383.4,58.5h25.4l-0.3,4.7h6.4
		l0.7-10.3h-14.9c-0.4-1.3-0.9-2.5-1.4-3.7l-6.8,1.9c0.2,0.6,0.4,1.2,0.6,1.9h-15.3L377,63.2h6.1L383.4,58.5z M391.3,84.8
		c-0.9,0-2.1,0-3.4-0.2c2.3-1.1,4.5-2.3,6.7-3.6c-0.1,1-0.5,1.9-1.1,2.7C393.1,84.4,392.2,84.9,391.3,84.8L391.3,84.8z M407.1,65.2
		c-2.5,2.3-5.1,4.3-7.9,6.2c-0.8-1.7-1.8-3.2-3.1-4.5c0.9-0.5,1.7-1.1,2.4-1.8h8.9l0.4-5.2h-23.8l-0.4,5.2h5.9
		c-4.2,1.9-8.6,3.2-13.1,3.9c1.1,1.5,2,3.1,2.8,4.9c4.1-1,8.1-2.4,11.9-4.2c0.2,0.3,0.4,0.5,0.6,0.8c-3.9,2.4-11,4.9-16.3,5.9
		c1.1,1.5,2,3.1,2.7,4.8c5.5-1.7,10.8-3.9,15.8-6.7c0.1,0.3,0.2,0.6,0.3,0.9c-4.5,3.5-12.9,7-19.8,8.4c1.2,1.6,2.1,3.3,2.9,5.1
		c3.5-1.1,6.9-2.4,10.2-4c0.8,1.8,1.2,3.7,1.2,5.6c1.2,0,2.4,0.1,3.4,0c2.1,0.1,4.2-0.7,5.7-2.3c2.3-1.9,3.6-6.6,2.9-11.6l0.9-0.5
		c1.6,5.7,4.4,10,9.2,12.5c1.2-1.9,2.7-3.6,4.4-5.1c-4.6-1.9-7.3-5.9-8.5-10.6c1.8-1.2,3.6-2.4,5.2-3.6L407.1,65.2z M440.6,50.3
		l-2.3,32.6c-0.1,0.9-0.4,1.2-1.4,1.2c-0.9,0-4.2,0-6.9-0.1c1,2.1,1.7,4.2,2,6.5c4.2,0,7.4-0.2,9.7-1.2c2.3-1,3.2-2.7,3.4-6.3
		l2.3-32.6H440.6z M450.1,61.8c2.8,6.4,5.4,14.5,5.8,19.8l7.1-2.7c-0.7-5.5-3.6-13.3-6.6-19.4L450.1,61.8z M428.7,60
		c-1.2,5.5-3.8,13.1-7.4,17.4c2.1,0.9,4.1,2,5.9,3.3c3.8-4.8,6.6-12.9,8.5-19.5L428.7,60z M495.3,56.1c0.6-1.7,1.2-3.5,1.7-5.3
		l-5.5-1.1c-1.1,4.5-2.9,8.8-5.4,12.8l0.3-4.8h-3.1l0.6-8h-5.7l-0.6,8h-1.2c0.3-1.6,0.6-3.2,0.8-4.7l-5.1-0.9
		c-0.7,5-1.7,10.3-3.1,13.6c1.4,0.8,2.8,1.8,4.1,2.8c0.7-1.6,1.3-3.3,1.8-5h2.2l-0.5,7.4c-2.9,0.7-5.5,1.4-7.6,1.8l1,6
		c1.9-0.5,4-1.1,6.2-1.8l-0.9,13.4h5.7l1.1-15.1c1.4-0.4,2.9-0.9,4.3-1.3l-0.4-5.5l-3.5,0.9l0.4-5.9h2.4c-0.5,0.8-1.1,1.5-1.8,2.1
		c1.6,1,3.1,2.2,4.4,3.5c1.9-2.3,3.5-4.8,4.8-7.4h1.3c-2.3,5.9-5.8,11.8-10.2,15c1.7,0.9,3.2,2.1,4.5,3.5
		c4.5-4.1,8.5-11.6,10.7-18.5h1.2c-2.8,9.7-7.6,19-14.7,23.9c1.8,0.9,3.4,2.2,4.8,3.6c6.2-4.9,10.8-13.8,13.8-22.9
		c-1.3,11.2-2.3,15.7-3.2,16.9c-0.3,0.5-0.9,0.8-1.6,0.9c-1.2,0-2.3,0-3.5-0.2c0.8,1.9,1.3,4,1.3,6.1c1.6,0.1,3.3,0,4.9-0.3
		c1.5-0.3,2.9-1.2,3.7-2.5c1.7-2.2,2.9-9.4,5-28.5c0.1-0.7,0.3-2.7,0.3-2.7H495.3L495.3,56.1z M529.2,59.7c-0.7,2.4-1.6,4.8-2.7,7.1
		h-3.6l3.3-1.4c-0.5-2-1.2-3.9-1.9-5.8H529.2z M533,79.4l0.3-5.1h-4.6l0.2-2.5h5.5l0.3-5.1h-3.4c1-1.9,2.2-4.1,3.3-6.3l-4-0.9h4.1
		l0.3-5.1h-6l1.7-0.8c-0.7-1.6-1.6-3.2-2.6-4.6l-5.2,2c0.6,1,1.2,2.3,1.7,3.4h-6l-0.3,5.1h3.3l-2.5,1c0.8,2,1.4,4.1,1.9,6.1h-3.9
		l-0.3,5.1h6l-0.2,2.5h-4.7l-0.3,5.1h4.5c-0.7,3.1-2.9,5.7-5.8,7c1.4,1.2,2.6,2.6,3.7,4.2c4.2-2.4,7.1-6.5,8.1-11.3L533,79.4
		L533,79.4z M540.9,66.3h1.8l-0.3,4h-1.8L540.9,66.3z M550.3,66.3l-0.3,4h-1.7l0.3-4H550.3z M555.5,74.9l0.9-13.3H549l0.2-2.2h8.6
		l0.4-5.3h-8.6l0.3-4.5h-6l-0.3,4.5h-7.7l-0.4,5.3h7.7l-0.2,2.2h-7.2l-0.9,13.3h5.8c-2.9,4-6.6,7.3-11,9.6c1.4,1.4,2.7,3,3.7,4.6
		c3.1-2,5.9-4.4,8.2-7.2l-0.6,8.5h6l0.6-8.8c1.3,2.6,3.1,4.9,5.3,7c1.3-1.7,2.8-3.3,4.5-4.6c-3.3-2.3-5.9-5.5-7.7-9.1L555.5,74.9
		L555.5,74.9z"/>
	<path id="一些可愛的_家小物辣_拷貝_1_" class="st2" d="M399.2,49.1c0.6,1.2,1.1,2.5,1.4,3.7h14.9l-0.7,10.3h-6.4
		l0.3-4.7h-25.4l-0.3,4.7H377l0.7-10.3H393c-0.2-0.6-0.4-1.3-0.6-1.9L399.2,49.1 M528.3,49.2c1,1.5,1.8,3,2.6,4.6l-1.7,0.8h6
		l-0.3,5.1h-4.1l4,0.9c-1.1,2.1-2.2,4.4-3.3,6.3h3.4l-0.3,5.1h-5.5l-0.2,2.5h4.6l-0.3,5.1l0,0h-4.9c-1,4.7-3.9,8.8-8.1,11.3
		c-1-1.6-2.2-3-3.7-4.2c2.9-1.3,5-3.9,5.8-7h-4.5l0.3-5.1h4.7l0.2-2.5h-6l0.3-5.1h3.9c-0.5-2.1-1.1-4.1-1.9-6.1l2.5-1h-3.3l0.4-5.1
		h6c-0.5-1.1-1.2-2.4-1.7-3.4L528.3,49.2 M522.9,66.8h3.6c1.1-2.3,2-4.7,2.7-7.1h-4.9c0.8,1.9,1.4,3.8,1.9,5.8L522.9,66.8 M216,49.6
		l3.8,4.1c-1.6,0.4-3.4,0.7-5.2,0.9l3.4,1.1c-1.1,1.4-2.2,2.8-3.2,4h6.4l-0.6,8.9h-4c0.9,0.9,1.6,1.8,2.2,2.9l-4.7,3.3
		c-1-1.7-2.3-3.3-3.7-4.7c-0.8,2.8-2.3,3.5-5.5,3.5h-2.3c-0.4,0.5-0.9,1-1.4,1.5h9.5l1-0.2l3.8,2.6c-1.7,2.4-3.9,4.5-6.5,6.1
		c4,0.7,8,1.1,12.1,1.3c-1.5,1.8-2.8,3.7-3.9,5.8c-5.6-0.3-11.2-1.4-16.6-3.1c-5.6,1.7-11.3,2.8-17.1,3.2c-0.6-1.9-1.6-3.6-2.8-5.1
		c4.3-0.2,8.5-0.6,12.8-1.4c-1-0.6-2-1.3-3-2.1c-1.3,0.6-2.6,1.1-3.8,1.5c-1.2-1.5-2.5-2.8-3.9-4.1c1.3-0.4,2.6-0.8,3.9-1.3
		c-0.8-0.9-1.5-1.9-2.2-2.9l4.5-1.8l-3.6-2.8c1.1-0.8,2.1-1.8,3-3h-5l0.6-8.1h6.7c-0.3-0.8-0.7-1.6-1.2-2.4l2.3-0.9
		c-1.8,0.1-3.6,0.1-5.3,0.1c-0.1-1.5-0.4-3-0.9-4.5C196.4,51.8,208.7,51.1,216,49.6 M203.2,59.7L203.2,59.7h5.7c1-1.5,1.9-3,2.7-4.6
		c-2.3,0.3-4.8,0.5-7.2,0.7c0.6,0.9,1,2,1.3,3L203.2,59.7 M194.7,59.7h5.4c-0.3-1-0.7-1.9-1.2-2.8l2.8-1c-2.1,0.1-4.2,0.3-6.3,0.3
		c0.6,0.8,1,1.7,1.3,2.6L194.7,59.7 M203.8,68.8c-1.2-1.1-2.5-2-3.9-2.7l-0.1,2.1c-0.1,1,0.2,1.1,1.5,1.1h3.5c0.9,0,1.2-0.3,1.5-1.5
		c1.1,0.6,2.3,1.1,3.5,1.4c-0.5-0.5-0.9-0.9-1.5-1.3l4.3-3c0.7,0.5,1.4,1.1,2.1,1.7l0.2-2.2h-9.2c0.5,0.3,1,0.7,1.5,1.1L203.8,68.8
		 M189.6,66.3c0.2-0.3,0.4-0.7,0.5-1l4.1,1.8l0.1-1.2h5.2c-0.5-0.3-1-0.5-1.4-0.7l0.9-0.9h-9.3L189.6,66.3 M191.9,76
		c1.5-0.8,3-1.8,4.3-3c-1.8-0.6-2.3-2.1-2.1-4.6c-1,2.1-2.4,3.9-4.1,5.4l0,0C190.6,74.6,191.2,75.3,191.9,76 M201.9,81.7
		c1.5-0.6,2.9-1.3,4.1-2.2h-9.4C198.4,80.3,200.1,81.1,201.9,81.7 M549.8,49.7l-0.3,4.5h8.6l-0.4,5.3h-8.6l-0.2,2.2h7.5l-0.9,13.3v0
		h-5.9c1.8,3.6,4.4,6.7,7.7,9.1c-1.7,1.4-3.2,2.9-4.5,4.6c-2.1-2-3.9-4.4-5.3-7l-0.6,8.8h-6l0.6-8.5c-2.3,2.8-5.1,5.3-8.2,7.2
		c-1.1-1.7-2.3-3.2-3.7-4.6c4.4-2.3,8.1-5.6,11-9.6h-5.8l0.9-13.3h7.2l0.2-2.2h-7.7l0.4-5.3h7.7l0.3-4.5H549.8 M548.3,70.3h1.7
		l0.3-4h-1.7L548.3,70.3 M540.6,70.3h1.8l0.3-4h-1.8L540.6,70.3 M491.5,49.7l5.5,1.1c-0.5,1.8-1.1,3.6-1.7,5.3h0h15.8
		c0,0-0.2,2-0.3,2.7c-2.1,19.1-3.3,26.3-5,28.5c-0.8,1.3-2.2,2.2-3.7,2.5c-1.2,0.2-2.4,0.3-3.6,0.3c-0.4,0-0.9,0-1.3,0
		c0-2.1-0.5-4.2-1.3-6.1c1,0.1,2.1,0.2,3.1,0.2c0.1,0,0.2,0,0.4,0c0.6,0,1.2-0.3,1.6-0.9c0.9-1.2,1.9-5.7,3.2-16.9
		c-3,9.1-7.6,18-13.8,22.9c-1.4-1.4-3-2.7-4.8-3.6c7.1-4.9,11.9-14.2,14.7-23.9h-1.2c-2.3,6.9-6.3,14.4-10.7,18.5
		c-1.3-1.4-2.9-2.5-4.5-3.5c4.3-3.2,7.8-9.1,10.2-15h-1.3c-1.3,2.7-2.9,5.2-4.8,7.4c-1.4-1.3-2.9-2.5-4.4-3.5
		c0.6-0.7,1.2-1.4,1.8-2.1h-2.4l-0.4,5.9l3.5-0.9l0.4,5.5c-1.4,0.4-2.9,0.9-4.3,1.3l-1.1,15.1h-5.7l0.9-13.4
		c-2.2,0.6-4.3,1.3-6.2,1.8l-1-6c2.1-0.4,4.8-1.1,7.6-1.8l0.5-7.4H475c-0.5,1.7-1.1,3.4-1.8,5c-1.3-1-2.7-2-4.1-2.8
		c1.5-3.4,2.5-8.7,3.1-13.6l5.1,0.9c-0.2,1.5-0.5,3.1-0.8,4.7h1.2l0.6-8h5.7l-0.6,8h3.1l-0.3,4.8C488.6,58.5,490.4,54.2,491.5,49.7
		 M237.9,49.7l6.8,1c-0.9,2.1-1.8,4.3-2.6,6h6.4l-0.4,5.7c2.6-3.9,4.6-8.1,6-12.6l5.9,1.4c-0.6,1.7-1.3,3.4-2,5l0,0h11.7
		c0,0-0.1,2-0.2,2.7c-1.9,19.1-2.8,26.1-4.7,28.4c-1.1,1.6-2.8,2.6-4.7,2.8c-1.5,0.2-3,0.3-4.4,0.3c-0.8,0-1.7,0-2.5-0.1
		c-0.1-2.1-0.6-4.2-1.6-6c2.7,0.3,5.3,0.3,6.5,0.3c0.1,0,0.1,0,0.2,0c0.7,0,1.3-0.3,1.7-0.8c1.3-1.3,2.3-7.6,3.6-21.8h-8.2
		c-1.2,2.2-2.6,4.4-4.1,6.4c-1.1-1-2.2-1.8-3.3-2.7l-1.4,20.4h-11.2l-0.2,3h-5.6l2.3-32.5h4.9C237,54.4,237.5,52.1,237.9,49.7
		 M236.4,67.9h5.6l0.4-5.8h-5.6L236.4,67.9 M235.5,80.6h5.6l0.5-7.4H236L235.5,80.6L235.5,80.6 M116.8,49.7l-0.4,6h9.3l-0.4,5.5H116
		l-0.3,4c-0.1,1.8,0,2,1.5,2h3.4c1.2,0,1.6-0.7,2.1-4.9c1.7,1.1,3.5,1.9,5.5,2.4c-1.1,6.4-2.9,8.3-7.3,8.3h-5
		c-5.5,0-6.7-1.9-6.3-7.8l1.1-15.6H116.8 M104.4,49.7l-0.4,6h5l-0.4,5.5h-5l-0.4,5.7l5.4-0.5l-0.3,5.7c-7.2,0.9-15.1,1.7-20.8,2.3
		l-0.2-6.1l2.2-0.2l1-14.2h5.7l-1,13.7l1.7-0.1l1.2-17.8H104.4 M447.5,50.3l-2.3,32.6c-0.3,3.6-1.1,5.3-3.4,6.3
		c-2.1,0.9-5,1.2-8.8,1.2c-0.3,0-0.6,0-0.9,0c-0.4-2.2-1.1-4.4-2-6.5c1.8,0.1,3.8,0.2,5.3,0.2c0.7,0,1.3,0,1.6,0
		c1,0,1.3-0.3,1.4-1.2l2.3-32.6H447.5 M175.7,52.5l-0.4,6.3h-4.8l-1.7,24.1c-0.2,3.5-1.2,5.3-3.5,6.3c-2.4,1.1-5.7,1.2-10.2,1.2
		c-0.4-2.3-1.1-4.5-2.2-6.6c2,0.2,4.4,0.2,6.1,0.2c0.8,0,1.4,0,1.7,0c1,0,1.4-0.3,1.5-1.2l1.7-24H136l0.4-6.3H175.7 M456.4,59.5
		c3,6.1,5.9,13.9,6.6,19.4l-7.1,2.7c-0.4-5.3-3-13.4-5.8-19.8L456.4,59.5 M407.9,59.9l-0.4,5.2h-8.9c-0.8,0.7-1.6,1.3-2.4,1.8
		c1.3,1.3,2.3,2.8,3.1,4.5c2.8-1.9,5.4-3.9,7.9-6.2l4.9,4.1c-1.6,1.2-3.4,2.4-5.2,3.6c1.2,4.6,3.9,8.6,8.5,10.6
		c-1.7,1.5-3.2,3.2-4.4,5.1c-4.8-2.5-7.6-6.9-9.2-12.5l-0.9,0.5c0.7,5-0.6,9.7-2.9,11.6c-1.4,1.5-3.3,2.3-5.3,2.3
		c-0.1,0-0.3,0-0.4,0c-0.3,0-0.6,0-0.9,0c-0.8,0-1.6,0-2.5-0.1c0-1.9-0.4-3.9-1.2-5.6c-3.3,1.6-6.7,2.9-10.2,4
		c-0.7-1.8-1.7-3.6-2.9-5.1c6.9-1.5,15.3-4.9,19.8-8.4c-0.1-0.3-0.2-0.6-0.3-0.9c-5,2.8-10.3,5.1-15.8,6.7c-0.7-1.7-1.6-3.3-2.7-4.8
		c5.4-1,12.4-3.5,16.3-5.9c-0.2-0.3-0.4-0.5-0.6-0.8c-3.8,1.8-7.8,3.2-11.9,4.2c-0.8-1.7-1.7-3.3-2.8-4.9c4.5-0.7,8.9-2.1,13.1-3.9
		h-5.9l0.4-5.2H407.9 M391.6,84.8c0.8,0,1.5-0.4,1.9-1.1c0.6-0.8,1-1.7,1.1-2.7c-2.1,1.3-4.4,2.5-6.6,3.6c1.3,0.1,2.4,0.2,3.4,0.2
		l0,0C391.4,84.8,391.5,84.8,391.6,84.8 M428.7,60l7,1.2c-1.9,6.6-4.8,14.7-8.5,19.5c-1.8-1.3-3.8-2.4-5.9-3.3
		C424.9,73.1,427.5,65.5,428.7,60 M158.2,62.7L157,79.8h0h-12.7l-0.2,3.2H138l1.4-20.3H158.2 M144.7,73.9h6.5l0.4-5.2h0h-6.5
		L144.7,73.9 M80.6,66.3l-0.5,6.8h-40l0.5-6.8H80.6 M255.5,66.6c1.7,2.9,4.2,7,5.3,9.5l-5.5,3.2c-1.4-3.4-3.1-6.8-4.9-10L255.5,66.6
		 M122.1,74.7l-0.4,6H92.2l0.4-6H122.1 M126.3,83.4l-0.4,6.2H86.5l0.4-6.2H126.3 M529.9,44.3l-3,1.2l-5.2,2l-4.4,1.7l0.8,1.4h-3
		l-0.1,1.5h-3.9h-10.3c0-0.1,0-0.2,0.1-0.2l1.2-4.2l-4.3-0.8l-5.5-1.1l-3.7-0.7l-0.4,1.5l0.1-0.8h-4.3h-5.7h-3.7l-0.2,2.7l-1.4-0.2
		l-4.1-0.7l-0.5,4.1c-0.7,5.6-1.7,10.1-2.8,12.6l-1.3,3c-1.6-4.3-3.3-7.9-4-9.5l-1.6-3.2l-3.4,1.2l-4,1.5l0.5-6.6l0.3-4.3h-4.3h-6.9
		h-3.7l-0.3,3.7l-0.5,7.2l-6.8-1.2l-3.8-0.6l-0.8,3.7c-1.1,5.3-3.6,12.2-6.6,15.7l-3.2,3.9c-1.6-1.2-2.7-2.7-3.4-4.3
		c1-0.7,1.9-1.3,2.8-2l4-3l-2.8-2.4h3l0.3-3.7l0.7-10.3l0.3-4.3h-4.3h-12.1c-0.2-0.5-0.4-1-0.7-1.5l-1.5-3l-3.2,0.9l-6.8,1.9
		l-4.3,1.2l0.2,0.5h-9.5H374l-0.3,3.7L373,62.9l-0.2,2.7l-3.2,0.5l3.7,5.2c0.3,0.4,0.5,0.8,0.8,1.2l-5.5,1.1l3.8,5.1
		c0.3,0.4,0.5,0.8,0.8,1.2l-5.6,1.2l3.8,5c1,1.3,1.7,2.7,2.3,4.2l1.4,3.5l3.6-1.1c2.1-0.7,4.2-1.4,6.2-2.2l-0.1,3.9l3.9,0.2
		c0.9,0,1.8,0.1,2.7,0.1c0.3,0,0.6,0,0.9,0c0.1,0,0.3,0,0.4,0c3,0,5.9-1.2,8-3.4c1-0.9,1.9-2.1,2.6-3.5c1.7,1.9,3.6,3.4,5.9,4.6
		l3.2,1.7l2-3.1c1-1.6,2.3-3,3.7-4.2l4.7-4c0.8,0.5,1.6,1,2.4,1.5l1.1,0.8l0.4,0.9c0.8,1.7,1.4,3.5,1.7,5.4l0.5,3.3l3.4,0
		c0.3,0,0.6,0,1,0c3.6,0,7.3-0.2,10.3-1.5l0,0l0,0c4.6-2.1,5.5-6.1,5.7-9.7l0.7-10.5c1.1,3.5,1.8,6.8,2,9.2l0.5,5.3l5-1.9l7.1-2.7
		l2.1-0.8l0.4,2l4.2-1.1c0.2-0.1,0.5-0.1,0.7-0.2l-0.5,7.7l-0.3,4.3h4.3h5.7h3.7l0.3-3.7l0-0.7c0.9,0.6,1.7,1.3,2.4,2l2.5,2.6
		l2.9-2.3c0.1-0.1,0.2-0.2,0.3-0.3l0,1.7l3.7,0.2c0.5,0,1.1,0,1.6,0c1.4,0,2.9-0.1,4.3-0.4l0,0l0,0c2.6-0.5,4.8-2,6.3-4.2
		c0.5-0.7,1-1.6,1.5-2.9l3.2,2.8c1.1,1,2.1,2.1,2.9,3.3l2.1,3.2l3.3-1.9c2.4-1.4,4.4-3.2,6-5.3c0.7,0.8,1.3,1.6,1.8,2.5l2.1,3.4
		l3.4-2.1c0.5-0.3,0.9-0.6,1.4-0.9l-0.2,2.8h4.3h6h3.7l0.2-2.2l2.5,2.3l2.7-3.5c1.1-1.5,2.4-2.8,3.8-4l4.1-3.3l-4.3-3.1
		c-0.8-0.6-1.5-1.2-2.2-1.8h1.8l0.3-3.7l0.8-11.8h1.1l0.3-3.7l0.4-5.3l0.3-4.3h-4.3h-4.3l0-0.2l0.3-4.3h-4.3h-6h-3.7l-0.3,3.7
		l-0.1,0.7h-4h-2.3c-0.6-1.1-1.2-2.1-1.8-3.1L529.9,44.3L529.9,44.3z M464.9,69.6c-0.2-0.7-0.5-1.4-0.7-2l2.8,1.6L464.9,69.6
		L464.9,69.6z M432.5,80c0.8-1.3,1.6-2.9,2.4-4.5l-0.3,4.6C433.9,80.1,433.2,80,432.5,80L432.5,80z M512.8,75.9h1.2l-0.2,3.3
		l-0.3,4.3h0l-2.2,1C511.8,82.4,512.3,79.6,512.8,75.9L512.8,75.9z M251.3,45.1l-1.1,3.6c-0.4,1.4-0.9,2.7-1.5,4.1h-0.3h-0.3
		l0.2-0.5l2-4.8l-5.1-0.7l-6.8-1l-4-0.6l-0.6,3.9c-0.2,1.2-0.4,2.4-0.6,3.6h-1.7h-3.7l-0.2,3.4l-4.8-5.1l-3.8-4.1l-1.5-1.6l-2.2,0.4
		c-6.2,1.2-17.6,2.1-29.6,2.3l-5.5,0.1l1.8,5.2c0.3,0.8,0.5,1.5,0.6,2.3h-2.1l-0.3,3.7l-0.6,8.1l-0.2,2.9l-0.3,0.2l0.3,0.2l-0.1,0.9
		h1.2l0.7,0.6l-2.6,1l1.7,2.7l-5.6,1.5l4.5,4l-6.4,0.2l4.8,6.2c0.9,1.2,1.7,2.6,2.2,4l1,2.9l3.1-0.2c5.7-0.4,11.3-1.4,16.8-3
		c5.3,1.6,10.8,2.6,16.4,2.9l2.6,0.1l1.2-2.3c0.9-1.8,2-3.4,3.3-4.9l1.1-1.3l-0.2,2.8l-0.3,4.3h4.3h5.6h3.7l0.2-3h7.5h2.6
		c0,0.1,0,0.2,0,0.3l0.1,3.6l3.6,0.2c0.9,0.1,1.9,0.1,2.8,0.1c1.6,0,3.3-0.1,4.9-0.3c2.9-0.3,5.7-1.9,7.5-4.3
		c2.6-3.2,3.5-9.2,5.5-30.4c0.1-0.8,0.2-2.5,0.2-2.9l0.3-4.3h-4.3h-5.9l1.4-3.9l-4.3-1l-5.9-1.4L251.3,45.1L251.3,45.1z M225.6,56.5
		l1.9-0.4l0,0.3l-1.7,24.5l-4.4-0.2c-1.1,0-2.1-0.1-3.2-0.2c0.2-0.3,0.4-0.6,0.6-0.8l2.4-3.3l-1.3-0.9l1.3-0.9l3-2.1h0.2l0.3-3.7
		l0.6-8.9L225.6,56.5L225.6,56.5z M250.8,80.2l0.1-1.2c0.2,0.4,0.4,0.8,0.5,1.2L250.8,80.2L250.8,80.2z M121.1,45.7h-4.3h-6.3h-1.8
		h-4.3h-6.2h-3.7l-0.3,3.7l0,0.5h-3.7h-3.7l-0.3,3.7l-0.8,10.7l-1,0.1l0.2-2.2h-4.3h-40h-3.7L36.6,66l-0.5,6.8l-0.3,4.3h4.3h40h3.5
		l0.1,1.8l4.3-0.5c0.1,0,0.2,0,0.3,0l-0.1,1.1h-1.3h-3.7l-0.3,3.7l-0.4,6.2l-0.3,4.3h4.3h39.5h3.7l0.3-3.7l0.4-6.2l0.3-4.3h-4.3
		h-0.5l0.2-3.5c3.8-1.9,5.1-6.1,5.9-10.5l0.5-2.7h3l-1.4,20l-0.3,4.3h4.3h6.1h3.7l0.2-3.2h0.4l0.9,1.8c0.9,1.7,1.5,3.6,1.8,5.5
		l0.6,3.3h3.4c4.7,0,8.5-0.1,11.8-1.5c4.8-2,5.7-6.3,5.9-9.7l1.4-20.4h1.1h3.7l0.3-3.7l0.4-6.3l0.3-4.3h-4.3h-39.2h-3.7l-0.3,3.7
		l-0.4,6.3l-0.2,3l-2.5-0.6l0.3-4.9l0.3-4.3h-4.3h-5l0.1-1.8L121.1,45.7L121.1,45.7z"/>
</g>
<g>
	<path id="一些可愛的_家小物辣__3_" class="st1" d="M40.6,66.3l-0.5,6.8h40l0.5-6.8H40.6z M120.7,73.1
		c4.4,0,6.2-1.9,7.3-8.3c-2-0.5-3.8-1.3-5.5-2.4c-0.5,4.1-0.8,4.9-2.1,4.9h-3.4c-1.4,0-1.6-0.2-1.5-2l0.3-4h9.3l0.4-5.5h-9.3l0.4-6
		h-6.3l-1.1,15.6c-0.4,5.9,0.8,7.8,6.3,7.8H120.7z M92.2,80.6h29.6l0.4-6H92.6L92.2,80.6z M87.5,74.4c5.7-0.6,13.5-1.5,20.8-2.3
		l0.3-5.7l-5.4,0.5l0.4-5.7h5l0.4-5.5h-5l0.4-6h-6.2L97,67.5l-1.7,0.1l1-13.7h-5.7l-1,14.2l-2.2,0.2L87.5,74.4z M86.5,89.7h39.5
		l0.4-6.2H86.9L86.5,89.7z M151.6,68.7l-0.4,5.2h-6.5l0.4-5.2H151.6L151.6,68.7z M157,79.8l1.2-17.1h-18.7L138,83.1h6.1l0.2-3.2H157
		L157,79.8z M175.7,52.5h-39.2l-0.4,6.3h27.9l-1.7,24c-0.1,0.9-0.5,1.2-1.5,1.2s-4.9,0-7.8-0.2c1,2.1,1.8,4.3,2.2,6.6
		c4.5,0,7.7-0.1,10.2-1.2c2.3-1,3.3-2.8,3.5-6.3l1.7-24.1h4.8L175.7,52.5z M206.1,79.4c-1.3,0.9-2.7,1.6-4.1,2.2
		c-1.8-0.6-3.5-1.3-5.2-2.2H206.1z M190,73.8c1.7-1.5,3.1-3.3,4.1-5.4c-0.1,2.6,0.3,4,2.1,4.6c-1.3,1.1-2.8,2.1-4.3,3
		C191.2,75.3,190.6,74.6,190,73.8L190,73.8z M189.7,64.3h9.3l-0.9,0.9c0.5,0.2,1,0.4,1.4,0.7h-5.2l-0.1,1.2l-4.1-1.8
		c-0.2,0.3-0.3,0.7-0.5,1L189.7,64.3z M198.9,56.9c0.5,0.9,0.9,1.8,1.2,2.8h-5.4l1.9-0.8c-0.3-0.9-0.7-1.8-1.3-2.6
		c2.1-0.1,4.2-0.2,6.3-0.3L198.9,56.9z M203.2,59.7l2.5-0.9c-0.2-1.1-0.7-2.1-1.3-3c2.5-0.2,4.9-0.4,7.2-0.7
		c-0.8,1.6-1.7,3.1-2.7,4.6H203.2L203.2,59.7z M214.7,66.6c-0.7-0.6-1.4-1.2-2.1-1.7l-4.3,3c0.5,0.4,1,0.9,1.5,1.3
		c-1.2-0.3-2.4-0.8-3.5-1.4c-0.3,1.3-0.5,1.5-1.5,1.5h-3.5c-1.3,0-1.5-0.1-1.5-1.1l0.1-2.1c1.4,0.7,2.7,1.7,3.9,2.7l3.3-3.4
		c-0.5-0.4-1-0.8-1.5-1.1h9.2L214.7,66.6z M211.9,74.9l-1,0.2h-9.5c0.5-0.5,1-1,1.4-1.5h2.3c3.2,0,4.7-0.8,5.5-3.5
		c1.5,1.4,2.7,3,3.7,4.7l4.7-3.3c-0.6-1-1.4-2-2.2-2.9h4l0.6-8.9H215c1-1.2,2.1-2.6,3.2-4l-3.4-1.1c1.8-0.3,3.6-0.6,5.2-0.9
		l-3.8-4.1c-7.3,1.5-19.6,2.2-30.3,2.4c0.5,1.4,0.8,2.9,0.9,4.5c1.7,0,3.5,0,5.3-0.1l-2.3,0.9c0.5,0.7,0.9,1.5,1.2,2.4h-6.7
		l-0.6,8.1h5c-0.8,1.1-1.8,2.1-3,3l3.6,2.8l-4.5,1.8c0.7,1,1.4,2,2.2,2.9c-1.3,0.5-2.6,0.9-3.9,1.3c1.4,1.3,2.7,2.6,3.9,4.1
		c1.3-0.5,2.6-1,3.8-1.5c1,0.7,2,1.4,3,2.1c-4.2,0.8-8.5,1.3-12.8,1.4c1.2,1.5,2.2,3.3,2.8,5.1c5.8-0.4,11.5-1.5,17.1-3.2
		c5.4,1.7,11,2.8,16.6,3.1c1.1-2.1,2.4-4,3.9-5.8c-4.1-0.2-8.1-0.6-12.1-1.3c2.5-1.6,4.7-3.6,6.5-6.1L211.9,74.9z M235.5,80.6
		l0.5-7.4h5.6l-0.5,7.4H235.5L235.5,80.6z M242,67.9h-5.6l0.4-5.8h5.6L242,67.9z M257.9,56.3c0.7-1.7,1.4-3.4,2-5l-5.9-1.4
		c-1.4,4.5-3.4,8.7-6,12.6l0.4-5.7H242c0.8-1.8,1.7-4,2.6-6l-6.8-1c-0.3,2.4-0.8,4.7-1.4,7h-4.9l-2.3,32.5h5.6l0.2-3h11.2l1.4-20.4
		c1.2,0.8,2.3,1.7,3.3,2.7c1.5-2,2.9-4.2,4.1-6.4h8.2c-1.3,14.2-2.3,20.5-3.6,21.8c-0.5,0.5-1.2,0.8-1.9,0.8c-1.2,0-3.7,0-6.5-0.3
		c1,1.9,1.6,3.9,1.6,6c2.3,0.1,4.7,0.1,7-0.2c1.9-0.2,3.6-1.2,4.7-2.8c2-2.4,2.9-9.3,4.7-28.4c0.1-0.7,0.2-2.7,0.2-2.7L257.9,56.3
		L257.9,56.3z M260.9,76.1c-1.1-2.5-3.6-6.6-5.3-9.5l-5.1,2.7c1.8,3.2,3.5,6.6,4.9,10L260.9,76.1z M383.4,58.5h25.4l-0.3,4.7h6.4
		l0.7-10.3h-14.9c-0.4-1.3-0.9-2.5-1.4-3.7l-6.8,1.9c0.2,0.6,0.4,1.2,0.6,1.9h-15.3L377,63.2h6.1L383.4,58.5z M391.3,84.8
		c-0.9,0-2.1,0-3.4-0.2c2.3-1.1,4.5-2.3,6.7-3.6c-0.1,1-0.5,1.9-1.1,2.7C393.1,84.4,392.2,84.9,391.3,84.8L391.3,84.8z M407.1,65.2
		c-2.5,2.3-5.1,4.3-7.9,6.2c-0.8-1.7-1.8-3.2-3.1-4.5c0.9-0.5,1.7-1.1,2.4-1.8h8.9l0.4-5.2h-23.8l-0.4,5.2h5.9
		c-4.2,1.9-8.6,3.2-13.1,3.9c1.1,1.5,2,3.1,2.8,4.9c4.1-1,8.1-2.4,11.9-4.2c0.2,0.3,0.4,0.5,0.6,0.8c-3.9,2.4-11,4.9-16.3,5.9
		c1.1,1.5,2,3.1,2.7,4.8c5.5-1.7,10.8-3.9,15.8-6.7c0.1,0.3,0.2,0.6,0.3,0.9c-4.5,3.5-12.9,7-19.8,8.4c1.2,1.6,2.1,3.3,2.9,5.1
		c3.5-1.1,6.9-2.4,10.2-4c0.8,1.8,1.2,3.7,1.2,5.6c1.2,0,2.4,0.1,3.4,0c2.1,0.1,4.2-0.7,5.7-2.3c2.3-1.9,3.6-6.6,2.9-11.6l0.9-0.5
		c1.6,5.7,4.4,10,9.2,12.5c1.2-1.9,2.7-3.6,4.4-5.1c-4.6-1.9-7.3-5.9-8.5-10.6c1.8-1.2,3.6-2.4,5.2-3.6L407.1,65.2z M440.6,50.3
		l-2.3,32.6c-0.1,0.9-0.4,1.2-1.4,1.2c-0.9,0-4.2,0-6.9-0.1c1,2.1,1.7,4.2,2,6.5c4.2,0,7.4-0.2,9.7-1.2c2.3-1,3.2-2.7,3.4-6.3
		l2.3-32.6H440.6z M450.1,61.8c2.8,6.4,5.4,14.5,5.8,19.8l7.1-2.7c-0.7-5.5-3.6-13.3-6.6-19.4L450.1,61.8z M428.7,60
		c-1.2,5.5-3.8,13.1-7.4,17.4c2.1,0.9,4.1,2,5.9,3.3c3.8-4.8,6.6-12.9,8.5-19.5L428.7,60z M495.3,56.1c0.6-1.7,1.2-3.5,1.7-5.3
		l-5.5-1.1c-1.1,4.5-2.9,8.8-5.4,12.8l0.3-4.8h-3.1l0.6-8h-5.7l-0.6,8h-1.2c0.3-1.6,0.6-3.2,0.8-4.7l-5.1-0.9
		c-0.7,5-1.7,10.3-3.1,13.6c1.4,0.8,2.8,1.8,4.1,2.8c0.7-1.6,1.3-3.3,1.8-5h2.2l-0.5,7.4c-2.9,0.7-5.5,1.4-7.6,1.8l1,6
		c1.9-0.5,4-1.1,6.2-1.8l-0.9,13.4h5.7l1.1-15.1c1.4-0.4,2.9-0.9,4.3-1.3l-0.4-5.5l-3.5,0.9l0.4-5.9h2.4c-0.5,0.8-1.1,1.5-1.8,2.1
		c1.6,1,3.1,2.2,4.4,3.5c1.9-2.3,3.5-4.8,4.8-7.4h1.3c-2.3,5.9-5.8,11.8-10.2,15c1.7,0.9,3.2,2.1,4.5,3.5
		c4.5-4.1,8.5-11.6,10.7-18.5h1.2c-2.8,9.7-7.6,19-14.7,23.9c1.8,0.9,3.4,2.2,4.8,3.6c6.2-4.9,10.8-13.8,13.8-22.9
		c-1.3,11.2-2.3,15.7-3.2,16.9c-0.3,0.5-0.9,0.8-1.6,0.9c-1.2,0-2.3,0-3.5-0.2c0.8,1.9,1.3,4,1.3,6.1c1.6,0.1,3.3,0,4.9-0.3
		c1.5-0.3,2.9-1.2,3.7-2.5c1.7-2.2,2.9-9.4,5-28.5c0.1-0.7,0.3-2.7,0.3-2.7H495.3L495.3,56.1z M529.2,59.7c-0.7,2.4-1.6,4.8-2.7,7.1
		h-3.6l3.3-1.4c-0.5-2-1.2-3.9-1.9-5.8H529.2z M533,79.4l0.3-5.1h-4.6l0.2-2.5h5.5l0.3-5.1h-3.4c1-1.9,2.2-4.1,3.3-6.3l-4-0.9h4.1
		l0.3-5.1h-6l1.7-0.8c-0.7-1.6-1.6-3.2-2.6-4.6l-5.2,2c0.6,1,1.2,2.3,1.7,3.4h-6l-0.3,5.1h3.3l-2.5,1c0.8,2,1.4,4.1,1.9,6.1h-3.9
		l-0.3,5.1h6l-0.2,2.5h-4.7l-0.3,5.1h4.5c-0.7,3.1-2.9,5.7-5.8,7c1.4,1.2,2.6,2.6,3.7,4.2c4.2-2.4,7.1-6.5,8.1-11.3L533,79.4
		L533,79.4z M540.9,66.3h1.8l-0.3,4h-1.8L540.9,66.3z M550.3,66.3l-0.3,4h-1.7l0.3-4H550.3z M555.5,74.9l0.9-13.3H549l0.2-2.2h8.6
		l0.4-5.3h-8.6l0.3-4.5h-6l-0.3,4.5h-7.7l-0.4,5.3h7.7l-0.2,2.2h-7.2l-0.9,13.3h5.8c-2.9,4-6.6,7.3-11,9.6c1.4,1.4,2.7,3,3.7,4.6
		c3.1-2,5.9-4.4,8.2-7.2l-0.6,8.5h6l0.6-8.8c1.3,2.6,3.1,4.9,5.3,7c1.3-1.7,2.8-3.3,4.5-4.6c-3.3-2.3-5.9-5.5-7.7-9.1L555.5,74.9
		L555.5,74.9z"/>
	<path id="一些可愛的_家小物辣__1_" class="st3" d="M399.2,49.1c0.6,1.2,1.1,2.5,1.4,3.7h14.9l-0.7,10.3h-6.4l0.3-4.7
		h-25.4l-0.3,4.7H377l0.7-10.3H393c-0.2-0.6-0.4-1.3-0.6-1.9L399.2,49.1 M528.3,49.2c1,1.5,1.8,3,2.6,4.6l-1.7,0.8h6l-0.3,5.1h-4.1
		l4,0.9c-1.1,2.1-2.2,4.4-3.3,6.3h3.4l-0.3,5.1h-5.5l-0.2,2.5h4.6l-0.3,5.1l0,0h-4.9c-1,4.7-3.9,8.8-8.1,11.3c-1-1.6-2.2-3-3.7-4.2
		c2.9-1.3,5-3.9,5.8-7h-4.5l0.3-5.1h4.7l0.2-2.5h-6l0.3-5.1h3.9c-0.5-2.1-1.1-4.1-1.9-6.1l2.5-1h-3.3l0.4-5.1h6
		c-0.5-1.1-1.2-2.4-1.7-3.4L528.3,49.2 M522.9,66.8h3.6c1.1-2.3,2-4.7,2.7-7.1h-4.9c0.8,1.9,1.4,3.8,1.9,5.8L522.9,66.8 M216,49.6
		l3.8,4.1c-1.6,0.4-3.4,0.7-5.2,0.9l3.4,1.1c-1.1,1.4-2.2,2.8-3.2,4h6.4l-0.6,8.9h-4c0.9,0.9,1.6,1.8,2.2,2.9l-4.7,3.3
		c-1-1.7-2.3-3.3-3.7-4.7c-0.8,2.8-2.3,3.5-5.5,3.5h-2.3c-0.4,0.5-0.9,1-1.4,1.5h9.5l1-0.2l3.8,2.6c-1.7,2.4-3.9,4.5-6.5,6.1
		c4,0.7,8,1.1,12.1,1.3c-1.5,1.8-2.8,3.7-3.9,5.8c-5.6-0.3-11.2-1.4-16.6-3.1c-5.6,1.7-11.3,2.8-17.1,3.2c-0.6-1.9-1.6-3.6-2.8-5.1
		c4.3-0.2,8.5-0.6,12.8-1.4c-1-0.6-2-1.3-3-2.1c-1.3,0.6-2.6,1.1-3.8,1.5c-1.2-1.5-2.5-2.8-3.9-4.1c1.3-0.4,2.6-0.8,3.9-1.3
		c-0.8-0.9-1.5-1.9-2.2-2.9l4.5-1.8l-3.6-2.8c1.1-0.8,2.1-1.8,3-3h-5l0.6-8.1h6.7c-0.3-0.8-0.7-1.6-1.2-2.4l2.3-0.9
		c-1.8,0.1-3.6,0.1-5.3,0.1c-0.1-1.5-0.4-3-0.9-4.5C196.4,51.8,208.7,51.1,216,49.6 M203.2,59.7L203.2,59.7h5.7c1-1.5,1.9-3,2.7-4.6
		c-2.3,0.3-4.8,0.5-7.2,0.7c0.6,0.9,1,2,1.3,3L203.2,59.7 M194.7,59.7h5.4c-0.3-1-0.7-1.9-1.2-2.8l2.8-1c-2.1,0.1-4.2,0.3-6.3,0.3
		c0.6,0.8,1,1.7,1.3,2.6L194.7,59.7 M203.8,68.8c-1.2-1.1-2.5-2-3.9-2.7l-0.1,2.1c-0.1,1,0.2,1.1,1.5,1.1h3.5c0.9,0,1.2-0.3,1.5-1.5
		c1.1,0.6,2.3,1.1,3.5,1.4c-0.5-0.5-0.9-0.9-1.5-1.3l4.3-3c0.7,0.5,1.4,1.1,2.1,1.7l0.2-2.2h-9.2c0.5,0.3,1,0.7,1.5,1.1L203.8,68.8
		 M189.6,66.3c0.2-0.3,0.4-0.7,0.5-1l4.1,1.8l0.1-1.2h5.2c-0.5-0.3-1-0.5-1.4-0.7l0.9-0.9h-9.3L189.6,66.3 M191.9,76
		c1.5-0.8,3-1.8,4.3-3c-1.8-0.6-2.3-2.1-2.1-4.6c-1,2.1-2.4,3.9-4.1,5.4l0,0C190.6,74.6,191.2,75.3,191.9,76 M201.9,81.7
		c1.5-0.6,2.9-1.3,4.1-2.2h-9.4C198.4,80.3,200.1,81.1,201.9,81.7 M549.8,49.7l-0.3,4.5h8.6l-0.4,5.3h-8.6l-0.2,2.2h7.5l-0.9,13.3v0
		h-5.9c1.8,3.6,4.4,6.7,7.7,9.1c-1.7,1.4-3.2,2.9-4.5,4.6c-2.1-2-3.9-4.4-5.3-7l-0.6,8.8h-6l0.6-8.5c-2.3,2.8-5.1,5.3-8.2,7.2
		c-1.1-1.7-2.3-3.2-3.7-4.6c4.4-2.3,8.1-5.6,11-9.6h-5.8l0.9-13.3h7.2l0.2-2.2h-7.7l0.4-5.3h7.7l0.3-4.5H549.8 M548.3,70.3h1.7
		l0.3-4h-1.7L548.3,70.3 M540.6,70.3h1.8l0.3-4h-1.8L540.6,70.3 M491.5,49.7l5.5,1.1c-0.5,1.8-1.1,3.6-1.7,5.3h0h15.8
		c0,0-0.2,2-0.3,2.7c-2.1,19.1-3.3,26.3-5,28.5c-0.8,1.3-2.2,2.2-3.7,2.5c-1.2,0.2-2.4,0.3-3.6,0.3c-0.4,0-0.9,0-1.3,0
		c0-2.1-0.5-4.2-1.3-6.1c1,0.1,2.1,0.2,3.1,0.2c0.1,0,0.2,0,0.4,0c0.6,0,1.2-0.3,1.6-0.9c0.9-1.2,1.9-5.7,3.2-16.9
		c-3,9.1-7.6,18-13.8,22.9c-1.4-1.4-3-2.7-4.8-3.6c7.1-4.9,11.9-14.2,14.7-23.9h-1.2c-2.3,6.9-6.3,14.4-10.7,18.5
		c-1.3-1.4-2.9-2.5-4.5-3.5c4.3-3.2,7.8-9.1,10.2-15h-1.3c-1.3,2.7-2.9,5.2-4.8,7.4c-1.4-1.3-2.9-2.5-4.4-3.5
		c0.6-0.7,1.2-1.4,1.8-2.1h-2.4l-0.4,5.9l3.5-0.9l0.4,5.5c-1.4,0.4-2.9,0.9-4.3,1.3l-1.1,15.1h-5.7l0.9-13.4
		c-2.2,0.6-4.3,1.3-6.2,1.8l-1-6c2.1-0.4,4.8-1.1,7.6-1.8l0.5-7.4H475c-0.5,1.7-1.1,3.4-1.8,5c-1.3-1-2.7-2-4.1-2.8
		c1.5-3.4,2.5-8.7,3.1-13.6l5.1,0.9c-0.2,1.5-0.5,3.1-0.8,4.7h1.2l0.6-8h5.7l-0.6,8h3.1l-0.3,4.8C488.6,58.5,490.4,54.2,491.5,49.7
		 M237.9,49.7l6.8,1c-0.9,2.1-1.8,4.3-2.6,6h6.4l-0.4,5.7c2.6-3.9,4.6-8.1,6-12.6l5.9,1.4c-0.6,1.7-1.3,3.4-2,5l0,0h11.7
		c0,0-0.1,2-0.2,2.7c-1.9,19.1-2.8,26.1-4.7,28.4c-1.1,1.6-2.8,2.6-4.7,2.8c-1.5,0.2-3,0.3-4.4,0.3c-0.8,0-1.7,0-2.5-0.1
		c-0.1-2.1-0.6-4.2-1.6-6c2.7,0.3,5.3,0.3,6.5,0.3c0.1,0,0.1,0,0.2,0c0.7,0,1.3-0.3,1.7-0.8c1.3-1.3,2.3-7.6,3.6-21.8h-8.2
		c-1.2,2.2-2.6,4.4-4.1,6.4c-1.1-1-2.2-1.8-3.3-2.7l-1.4,20.4h-11.2l-0.2,3h-5.6l2.3-32.5h4.9C237,54.4,237.5,52.1,237.9,49.7
		 M236.4,67.9h5.6l0.4-5.8h-5.6L236.4,67.9 M235.5,80.6h5.6l0.5-7.4H236L235.5,80.6L235.5,80.6 M116.8,49.7l-0.4,6h9.3l-0.4,5.5H116
		l-0.3,4c-0.1,1.8,0,2,1.5,2h3.4c1.2,0,1.6-0.7,2.1-4.9c1.7,1.1,3.5,1.9,5.5,2.4c-1.1,6.4-2.9,8.3-7.3,8.3h-5
		c-5.5,0-6.7-1.9-6.3-7.8l1.1-15.6H116.8 M104.4,49.7l-0.4,6h5l-0.4,5.5h-5l-0.4,5.7l5.4-0.5l-0.3,5.7c-7.2,0.9-15.1,1.7-20.8,2.3
		l-0.2-6.1l2.2-0.2l1-14.2h5.7l-1,13.7l1.7-0.1l1.2-17.8H104.4 M447.5,50.3l-2.3,32.6c-0.3,3.6-1.1,5.3-3.4,6.3
		c-2.1,0.9-5,1.2-8.8,1.2c-0.3,0-0.6,0-0.9,0c-0.4-2.2-1.1-4.4-2-6.5c1.8,0.1,3.8,0.2,5.3,0.2c0.7,0,1.3,0,1.6,0
		c1,0,1.3-0.3,1.4-1.2l2.3-32.6H447.5 M175.7,52.5l-0.4,6.3h-4.8l-1.7,24.1c-0.2,3.5-1.2,5.3-3.5,6.3c-2.4,1.1-5.7,1.2-10.2,1.2
		c-0.4-2.3-1.1-4.5-2.2-6.6c2,0.2,4.4,0.2,6.1,0.2c0.8,0,1.4,0,1.7,0c1,0,1.4-0.3,1.5-1.2l1.7-24H136l0.4-6.3H175.7 M456.4,59.5
		c3,6.1,5.9,13.9,6.6,19.4l-7.1,2.7c-0.4-5.3-3-13.4-5.8-19.8L456.4,59.5 M407.9,59.9l-0.4,5.2h-8.9c-0.8,0.7-1.6,1.3-2.4,1.8
		c1.3,1.3,2.3,2.8,3.1,4.5c2.8-1.9,5.4-3.9,7.9-6.2l4.9,4.1c-1.6,1.2-3.4,2.4-5.2,3.6c1.2,4.6,3.9,8.6,8.5,10.6
		c-1.7,1.5-3.2,3.2-4.4,5.1c-4.8-2.5-7.6-6.9-9.2-12.5l-0.9,0.5c0.7,5-0.6,9.7-2.9,11.6c-1.4,1.5-3.3,2.3-5.3,2.3
		c-0.1,0-0.3,0-0.4,0c-0.3,0-0.6,0-0.9,0c-0.8,0-1.6,0-2.5-0.1c0-1.9-0.4-3.9-1.2-5.6c-3.3,1.6-6.7,2.9-10.2,4
		c-0.7-1.8-1.7-3.6-2.9-5.1c6.9-1.5,15.3-4.9,19.8-8.4c-0.1-0.3-0.2-0.6-0.3-0.9c-5,2.8-10.3,5.1-15.8,6.7c-0.7-1.7-1.6-3.3-2.7-4.8
		c5.4-1,12.4-3.5,16.3-5.9c-0.2-0.3-0.4-0.5-0.6-0.8c-3.8,1.8-7.8,3.2-11.9,4.2c-0.8-1.7-1.7-3.3-2.8-4.9c4.5-0.7,8.9-2.1,13.1-3.9
		h-5.9l0.4-5.2H407.9 M391.6,84.8c0.8,0,1.5-0.4,1.9-1.1c0.6-0.8,1-1.7,1.1-2.7c-2.1,1.3-4.4,2.5-6.6,3.6c1.3,0.1,2.4,0.2,3.4,0.2
		l0,0C391.4,84.8,391.5,84.8,391.6,84.8 M428.7,60l7,1.2c-1.9,6.6-4.8,14.7-8.5,19.5c-1.8-1.3-3.8-2.4-5.9-3.3
		C424.9,73.1,427.5,65.5,428.7,60 M158.2,62.7L157,79.8h0h-12.7l-0.2,3.2H138l1.4-20.3H158.2 M144.7,73.9h6.5l0.4-5.2h0h-6.5
		L144.7,73.9 M80.6,66.3l-0.5,6.8h-40l0.5-6.8H80.6 M255.5,66.6c1.7,2.9,4.2,7,5.3,9.5l-5.5,3.2c-1.4-3.4-3.1-6.8-4.9-10L255.5,66.6
		 M122.1,74.7l-0.4,6H92.2l0.4-6H122.1 M126.3,83.4l-0.4,6.2H86.5l0.4-6.2H126.3 M400.2,46.8l-1.6,0.4l-6.8,1.9l-2.1,0.6l0.5,1.2
		h-12.5h-1.9l-0.1,1.9L375,63l-0.1,2.1h2.1h4.7l0,0.7c-1.8,0.5-3.6,0.9-5.4,1.2l-3.2,0.5l1.8,2.6c0.8,1.2,1.6,2.4,2.2,3.8
		c-0.7,0.2-1.3,0.3-2,0.4L372,75l1.9,2.6c0.9,1.2,1.6,2.4,2.2,3.7c-0.7,0.2-1.4,0.3-2.1,0.5l-3.1,0.7l1.9,2.5c1.1,1.4,1.9,3,2.6,4.7
		l0.7,1.8l1.8-0.6c2.9-0.9,5.7-2,8.5-3.2c0.2,0.9,0.4,1.9,0.3,2.9l0,2l2,0.1c0.8,0,1.7,0.1,2.6,0.1c0.3,0,0.6,0,0.9,0
		c0.1,0,0.3,0,0.4,0c2.5,0,4.9-1,6.6-2.8c1.6-1.4,2.7-3.7,3.3-6.4c1.9,3.1,4.3,5.5,7.4,7.1l1.6,0.8l1-1.5c1.1-1.7,2.5-3.3,4.1-4.7
		l2.4-2.1l-3-1.3c-3.9-1.7-5.9-5-6.9-7.9c1.4-1,2.8-1.9,4-2.8l2-1.5l-1.9-1.6l-3.1-2.7h4.7h1.9l0.1-1.9l0.7-10.3l0.1-2.1h-2.1h-13.5
		c-0.3-0.9-0.7-1.8-1.1-2.6L400.2,46.8L400.2,46.8z M399.3,67.1h2.5c-0.6,0.5-1.2,0.9-1.9,1.4c-0.3-0.4-0.5-0.8-0.8-1.2
		C399.1,67.2,399.2,67.2,399.3,67.1L399.3,67.1z M529.1,46.8l-1.5,0.6l-5.2,2l-2.2,0.9l1.2,2c0.1,0.1,0.1,0.2,0.2,0.4h-2.8H517
		l-0.1,1.9l-0.4,5.1l-0.1,2.1h1.2c0.4,1,0.8,2.1,1.1,3.1h-1.3h-1.9l-0.1,1.9l-0.3,5.1l-0.1,2.1h1.3l0,0.4l-0.3,5.1l-0.1,2.1h2.1h1.5
		c-0.9,1.4-2.1,2.5-3.6,3.2l-2.8,1.3l2.4,2c1.3,1.1,2.4,2.4,3.3,3.8l1,1.6l1.7-1c2.8-1.7,5.2-4,6.8-6.8l0.3,0.3
		c1.3,1.3,2.5,2.7,3.4,4.3l1.1,1.7l1.7-1.1c1.7-1.1,3.3-2.3,4.8-3.6l-0.2,3l-0.1,2.1h2.1h6h1.9l0.1-1.9l0.2-2.9
		c0.7,0.9,1.5,1.7,2.3,2.4l1.6,1.5l1.3-1.8c1.2-1.6,2.6-3,4.2-4.3l2-1.7l-2.1-1.5c-2.1-1.5-3.9-3.3-5.4-5.4h2.4h1.9l0.1-1.9
		l0.9-13.3l0-0.3h1.1l0.1-1.9l0.4-5.3l0.1-2.1h-2.1h-6.4l0.2-2.3l0.2-2.1h-2.1h-6H542l-0.1,1.9l-0.2,2.6h-5.8H534l0,0.5h-1.4
		c-0.7-1.6-1.6-3.1-2.6-4.5L529.1,46.8L529.1,46.8z M535.2,76.9h1.2c-0.4,0.4-0.8,0.9-1.3,1.3L535.2,76.9L535.2,76.9z M529.7,81.5
		h1.3c-0.5,0.3-1,0.7-1.6,1C529.5,82.1,529.6,81.8,529.7,81.5L529.7,81.5z M490,47.4l-0.5,1.8c-0.6,2.2-1.3,4.4-2.2,6.5h-0.9h-0.9
		l0.4-5.9l0.1-2.1h-2.1h-5.7h-1.9l-0.1,1.9l-0.1,1.2l-3.6-0.6l-2-0.3l-0.3,2.1c-0.8,5.9-1.8,10.4-3,13.1l-0.7,1.6l1.6,0.9
		c1.4,0.8,2.7,1.7,3.9,2.7l0,0c-1.1,0.3-2.3,0.5-3.3,0.7l-1.9,0.4l0.3,1.9l1,6l0.4,2.2l2.1-0.6c1.1-0.3,2.2-0.6,3.5-1l-0.7,10.5
		l-0.1,2.1h2.1h5.7h1.9l0.1-1.9l0.3-3.9l1.3,0.7c1.6,0.8,3,1.9,4.3,3.2l1.3,1.3l1.4-1.1c1.2-0.9,2.3-2,3.3-3.1
		c0.1,0.8,0.2,1.6,0.2,2.4l0,1.9l1.9,0.1c0.5,0,1,0,1.5,0c1.3,0,2.6-0.1,3.9-0.3c2.1-0.4,3.9-1.6,5-3.3c2-2.6,3.1-9,5.3-29.4
		c0.1-0.8,0.3-2.7,0.3-2.8l0.2-2.2h-2.2h-13c0.3-1,0.6-1.9,0.9-2.8l0.6-2.1l-2.1-0.4l-5.5-1.1L490,47.4L490,47.4z M483.5,84.8
		l0.4-5.6c1.1,0.7,2.2,1.6,3.1,2.6l0.2,0.2c-0.8,0.8-1.7,1.5-2.7,2.2L483.5,84.8L483.5,84.8z M499.2,82.2c0.2-0.3,0.4-0.7,0.6-1
		c-0.2,0.5-0.3,0.8-0.4,0.9l-0.1,0.1l0,0L499.2,82.2L499.2,82.2z M216.7,47.4l-1.1,0.2c-7.6,1.5-20.4,2.2-29.9,2.4l-2.8,0l0.9,2.6
		c0.4,1.3,0.7,2.6,0.8,3.9l0.1,1.1h-0.5h-1.9l-0.1,1.9l-0.6,8.1l-0.1,2.1h2.1l-1.2,0.9l2.1,1.6l0.8,0.7l-1.3,0.5l-2.3,0.9l1.3,2.1
		c0.2,0.3,0.4,0.6,0.6,0.8c-0.4,0.1-0.7,0.2-1.1,0.3l-3.6,1l2.7,2.5c0.8,0.7,1.6,1.5,2.4,2.3c-1.1,0.1-2.1,0.1-3.2,0.2l-3.9,0.2
		l2.4,3.1c1.1,1.4,1.9,2.9,2.5,4.6l0.5,1.4l1.5-0.1c5.7-0.4,11.4-1.5,16.9-3.1c5.4,1.7,10.9,2.7,16.5,3l1.3,0.1l0.6-1.2
		c1-1.9,2.2-3.7,3.6-5.3l2.7-3.1l-4.2-0.2c-2.4-0.1-4.8-0.3-7.2-0.6c1.2-1.1,2.2-2.3,3.2-3.6l1.2-1.7l-1.7-1.2l-0.2-0.2l3.6-2.6
		l1.5-1.1l-0.9-1.4h1.8l0.1-1.9l0.6-8.9l0.1-2.1h-2.1h-2.3c0.2-0.3,0.4-0.5,0.6-0.8l1-1.3l3-0.7l-2.4-2.6l-3.8-4.1L216.7,47.4
		L216.7,47.4z M207.3,57.5c0.2,0,0.4,0,0.6-0.1c-0.1,0.1-0.1,0.2-0.2,0.2h-0.4C207.4,57.6,207.4,57.5,207.3,57.5L207.3,57.5z
		 M236.2,47.4l-0.3,2c-0.3,1.8-0.6,3.5-1,5.3h-3.3h-1.9l-0.1,1.9L227.3,89l-0.1,2.1h2.1h5.6h1.9l0.1-1.9l0.1-1.2h9.4h1.9l0.1-1.9
		l0.2-2.9l1,1.9c0.9,1.6,1.3,3.4,1.4,5.2l0.1,1.8l1.8,0.1c0.9,0.1,1.8,0.1,2.7,0.1c1.6,0,3.1-0.1,4.7-0.3c2.4-0.2,4.7-1.5,6.1-3.5
		c2.3-2.8,3.1-8.9,5.1-29.4c0.1-0.8,0.2-2.6,0.2-2.8l0.1-2.1h-2.1h-8.7c0.3-0.8,0.6-1.6,0.9-2.4l0.7-2.1l-2.2-0.5l-5.9-1.4l-1.8-0.4
		l-0.6,1.8c-0.6,1.9-1.3,3.7-2.1,5.5h-1.6h-3.3c0.3-0.7,0.6-1.4,0.9-2.1l0.5-1.2l1-2.4l-2.6-0.4l-6.8-1L236.2,47.4L236.2,47.4z
		 M256.4,63.9h4.8c-0.2,2-0.4,4.5-0.7,7.1c-0.7-1.3-1.6-2.7-2.3-3.9c-0.3-0.5-0.6-1-0.9-1.5l-0.9-1.6C256.3,64,256.4,64,256.4,63.9
		L256.4,63.9z M238.6,64.1h1.6l-0.1,1.8h-1.6L238.6,64.1L238.6,64.1z M248.6,82l0.7-10.5c1.5,2.8,2.9,5.7,4.1,8.6l0.9,2.1l2-1.2
		l2.8-1.7c-0.3,1.5-0.6,2.5-0.9,2.9l0,0l0,0c-0.1,0.1-0.2,0.1-0.3,0.1l-0.1,0l-0.1,0c-1.1,0-3.6,0-6.3-0.3L248.6,82L248.6,82z
		 M237.9,75.3h1.6l-0.2,3.4h-1.6L237.9,75.3L237.9,75.3z M118.9,47.7h-2.1h-6.3h-1.9l-0.1,1.9l-0.3,4.1h-2.1l0.3-3.9l0.1-2.1h-2.1
		h-6.2h-1.9l-0.1,1.9l-0.2,2.4h-5.6h-1.9l-0.1,1.9l-0.9,12.4l-0.5,0l-1.9,0.1l0.1,1.9l0.2,6.1l0.1,2.2l2.1-0.2
		c0.9-0.1,1.8-0.2,2.7-0.3l-0.3,4.4l-0.1,0.9h-3.2H85l-0.1,1.9l-0.4,6.2l-0.1,2.1h2.1h39.5h1.9l0.1-1.9l0.4-6.2l0.1-2.1h-2.1h-2.7
		l0-0.7l0.4-6l0-0.3c3.6-1.2,5-4.6,5.8-9.4l0.3-1.9l-1.8-0.4c-0.4-0.1-0.9-0.2-1.3-0.4l0.1-1l0.4-5.5l0.1-2.1h-2.1h-7.2l0.3-3.9
		L118.9,47.7L118.9,47.7z M105.5,63.2h2.1l-0.1,1.3l-2.1,0.2L105.5,63.2L105.5,63.2z M117.8,63.3h2.6c-0.1,0.7-0.2,1.4-0.3,1.9
		l-2.4,0L117.8,63.3L117.8,63.3z M449.7,48.3h-2.1h-6.9h-1.9l-0.1,1.9l-0.7,9.4l-1.9-0.3l-7.1-1.2l-1.9-0.3l-0.4,1.9
		c-1.1,5.1-3.6,12.5-7,16.6l-1.7,2.1l2.5,1c1.9,0.8,3.8,1.9,5.5,3.1l1.5,1.1l0,0l0.7,1.4c0.9,1.9,1.5,3.9,1.9,5.9l0.3,1.7l1.7,0
		c0.3,0,0.6,0,0.9,0c4.6,0,7.4-0.4,9.6-1.3c3.7-1.7,4.4-4.8,4.6-8l1.4-19.8c2.8,6.6,5,14,5.4,18.5l0.2,2.7l2.5-1l7.1-2.7l1.5-0.6
		l-0.2-1.6c-0.7-6-4-14.3-6.8-20l-0.8-1.6l-1.7,0.6l-6.3,2.3l-0.6,0.2l0.7-9.7L449.7,48.3L449.7,48.3z M428.9,81.8
		c3.2-4.1,6.1-10.6,8.8-20.1l0.2-0.7l-1.5,21c-0.3,0-0.6,0-1,0c-1.8,0-3.7-0.1-5.2-0.1L428.9,81.8L428.9,81.8z M177.8,50.5h-2.1
		h-39.2h-1.9l-0.1,1.9l-0.4,6.3l-0.1,2.1h2.1h1.6l-0.1,1.8L136,82.9l-0.1,2.1h2.1h6.1h1.9l0.1-1.9l0.1-1.4h3.5l1.4,2.9
		c0.9,1.9,1.6,4,2,6.1l0.3,1.7h1.7c4.5,0,8.1-0.1,11-1.4c3.8-1.6,4.5-4.9,4.7-8l1.6-22.3h2.9h1.9l0.1-1.9l0.4-6.3L177.8,50.5
		L177.8,50.5z M160.3,60.8h1.4L160.2,82l-0.1,0c-0.3,0-0.7,0-1.2,0c-2.5,0-4.5-0.1-5.9-0.2h3.9h1.9L159,80l1.2-17.1L160.3,60.8
		L160.3,60.8z M146.9,70.7h2.5l-0.1,1.2h-2.5L146.9,70.7L146.9,70.7z M82.8,64.3h-2.1h-40h-1.9l-0.1,1.9L38.1,73L38,75.1h2.1h40H82
		l0.1-1.9l0.5-6.8L82.8,64.3L82.8,64.3z"/>
</g>
<path id="居" class="st4" d="M324.4,66.6c-0.1-1.2-0.2-2.4-0.3-3.5l12.8-1.2l0.3,3.5L324.4,66.6z M347.8,52.1l0.2,2.3l-24.4,2.3
	l-0.2-2.3L347.8,52.1z M350.2,84.1l-15.1,1.4l-0.3-3.5l15.1-1.4L350.2,84.1z M359.4,70l-0.6-6.6l-14.1,1.3l-0.3-3.5l11.7-1.1
	L354.7,45l-39.5,3.7l1.4,15.1c0.8,8.1,1.4,19.7-3.2,27.9c2.5,0.8,4.8,1.9,7,3.3c3.3-6,4.2-14.2,4.2-21.7l13.2-1.2l0.3,3.2l-11.1,1
	l1.7,17.7l7.1-0.7l-0.1-1.3l15.1-1.4l0.1,1.3l7.4-0.7l-1.7-17.7l-11,1l-0.3-3.2L359.4,70z"/>
<g>
	<path id="矩形_11_拷貝_3_" class="st1" d="M418.7,121l-360.4-7.7l14.3,51l338.9-4.5L418.7,121z"/>
	<path id="矩形_11_拷貝_1_" d="M62.3,116.3l352.8,7.6l-6,32.9L75,161.2L62.3,116.3 M58.4,113.2l14.3,51l338.9-4.5l7.1-38.8
		L58.4,113.2L58.4,113.2z"/>
</g>
<g>
	<path id="矩形_11_3_" class="st4" d="M420.5,117l-361.3-3.8l15.2,47l338.9-4.5L420.5,117z"/>
	<path id="矩形_11_1_" d="M63.4,116.3l353.5,3.7l-6,32.8l-334.3,4.4L63.4,116.3 M59.3,113.3l15.2,47l338.9-4.5l7.1-38.8
		L59.3,113.3L59.3,113.3z"/>
</g>
<path id="偷偷說...怎麼用都很療癒ㄚ_拷貝" class="st1" d="M108.5,129.2c-1.1,2.4-2.5,4.6-4.3,6.6
	c0.3,0.7,0.5,1.4,0.6,2.2c0.4-0.4,0.7-0.8,1.1-1.2l-1.5,8.3h1.9l2.1-11.9c0.7-1.1,1.3-2.3,1.9-3.4L108.5,129.2z M110.1,140.4
	c0.1-0.3,0.1-0.6,0.2-1h1.7l-0.2,1H110.1z M112.5,137.1l-0.2,0.9h-1.7l0.2-0.9H112.5L112.5,137.1z M114.4,135.6h-5.1l-0.6,3.6
	c-0.2,1.7-0.8,3.4-1.8,4.9c0.5,0.3,0.9,0.6,1.3,1c0.7-1,1.3-2.1,1.6-3.3h1.9l-0.2,1.3c0,0.1-0.1,0.2-0.2,0.2c0,0,0,0,0,0
	c-0.1,0-0.5,0-1,0c0.2,0.5,0.2,1.1,0.2,1.7c0.6,0.1,1.3,0,1.8-0.3c0.5-0.3,0.8-0.9,0.8-1.5L114.4,135.6z M116.4,143.1
	c0,0.2-0.1,0.3-0.3,0.3c0,0,0,0,0,0c-0.2,0-1,0-1.7,0c0.2,0.5,0.2,1.1,0.2,1.7c0.8,0.1,1.7,0,2.5-0.3c0.6-0.3,1-0.9,1-1.6l1.4-7.7
	h-1.7L116.4,143.1z M116.7,136h-1.6l-1.1,6.2h1.5L116.7,136z M112.4,133.3c1-0.6,1.9-1.2,2.8-1.9c0.7,0.7,1.5,1.4,2.3,1.9H112.4z
	 M115.4,129.1c-1.8,1.8-4.1,3.1-6.5,3.9c0.4,0.5,0.7,1,1,1.5c0.5-0.2,0.9-0.4,1.4-0.6l-0.2,1h6.6l0.2-1.3c0.5,0.3,0.9,0.5,1.4,0.8
	c0.4-0.6,0.9-1.1,1.4-1.6c-1.6-0.5-3.1-1.3-4.3-2.5c0.1-0.2,0.3-0.3,0.4-0.5L115.4,129.1z M125.9,129.2c-1.1,2.4-2.5,4.6-4.3,6.6
	c0.3,0.7,0.5,1.4,0.6,2.2c0.4-0.4,0.7-0.8,1.1-1.2l-1.5,8.3h1.9l2.1-11.9c0.7-1.1,1.3-2.3,1.9-3.4L125.9,129.2z M127.6,140.4
	c0.1-0.3,0.1-0.6,0.2-1h1.7l-0.2,1H127.6L127.6,140.4z M129.9,137.1l-0.2,0.9H128l0.2-0.9H129.9z M131.8,135.6h-5.1l-0.6,3.6
	c-0.2,1.7-0.8,3.4-1.8,4.9c0.5,0.3,0.9,0.6,1.3,1c0.7-1,1.3-2.1,1.6-3.3h1.9l-0.2,1.3c0,0.1-0.1,0.2-0.2,0.2c0,0,0,0,0,0
	c-0.1,0-0.5,0-1,0c0.2,0.5,0.2,1.1,0.2,1.7c0.6,0.1,1.3,0,1.8-0.3c0.5-0.3,0.8-0.9,0.8-1.5L131.8,135.6z M133.8,143.1
	c0,0.2-0.1,0.3-0.3,0.3c0,0,0,0,0,0c-0.2,0-1,0-1.7,0c0.2,0.5,0.2,1.1,0.2,1.7c0.8,0.1,1.7,0,2.5-0.3c0.6-0.3,1-0.9,1-1.6l1.4-7.7
	h-1.7L133.8,143.1z M134.2,136h-1.5l-1.1,6.2h1.5L134.2,136z M129.8,133.3c1-0.6,1.9-1.2,2.8-1.9c0.7,0.7,1.5,1.4,2.3,1.9H129.8
	L129.8,133.3z M132.8,129.1c-1.8,1.8-4.1,3.1-6.5,3.9c0.4,0.5,0.7,1,1,1.5c0.5-0.2,0.9-0.4,1.4-0.6l-0.2,1h6.6l0.2-1.3
	c0.5,0.3,0.9,0.5,1.4,0.8c0.4-0.6,0.9-1.1,1.4-1.6c-1.6-0.5-3.1-1.3-4.3-2.5c0.1-0.2,0.3-0.3,0.4-0.5L132.8,129.1z M148.4,135.5h3
	l-0.3,1.9h-3L148.4,135.5z M142,142.5h-1.6l0.3-1.9h1.6L142,142.5z M151.2,143c-0.2,0-0.3,0-0.2-0.5l0.6-3.4h1.1l0.9-4.9
	c0.1,0.2,0.2,0.4,0.2,0.6l1.7-1.1c-0.7-1.6-1.7-3.1-2.8-4.5l-1.6,1c0.8,1.1,1.5,2.3,2.2,3.5h-5.8c1.1-1.1,2.2-2.4,3-3.7l-1.8-0.6
	c-0.8,1.3-1.8,2.5-3,3.5l0.2-0.9h-3l1.4-0.5c-0.1-0.8-0.3-1.5-0.5-2.2l-1.8,0.5c0.2,0.7,0.4,1.4,0.4,2.1h-2.5l-0.3,1.6h5.3l-0.1,0
	c0.4,0.4,0.8,0.9,1.2,1.5c0.2-0.2,0.5-0.4,0.7-0.6l-0.8,4.6h1.1c-0.5,2-1.2,3.5-3.4,4.4l0.8-4.5h-5l-1,5.9h1.7l0.1-0.7h3.3l0.1-0.4
	c0.3,0.4,0.6,0.9,0.8,1.4c3-1.2,4-3.3,4.7-6h0.8l-0.6,3.4c-0.3,1.8-0.1,2.4,1.5,2.4h1.1c1.2,0,1.8-0.6,2.4-2.9
	c-0.6-0.1-1.1-0.4-1.6-0.8c-0.3,1.6-0.4,1.8-0.7,1.8L151.2,143L151.2,143z M139.4,138.2h4.8l0.3-1.5h-4.8L139.4,138.2z M144.9,134.4
	h-4.8l-0.3,1.5h4.8L144.9,134.4z M157.4,143.8c0.9,0,1.7-0.7,1.9-1.6c0.2-0.7-0.2-1.4-0.9-1.6c-0.1,0-0.3-0.1-0.4,0
	c-0.9,0-1.7,0.7-1.8,1.6c-0.2,0.7,0.2,1.4,0.9,1.6C157.1,143.8,157.2,143.8,157.4,143.8L157.4,143.8z M163.3,143.8
	c0.9,0,1.7-0.7,1.9-1.6c0.2-0.7-0.2-1.4-0.9-1.6c-0.1,0-0.3-0.1-0.4,0c-0.9,0-1.7,0.7-1.8,1.6c-0.2,0.7,0.2,1.4,0.9,1.6
	C163.1,143.8,163.2,143.8,163.3,143.8L163.3,143.8z M169.3,143.8c0.9,0,1.7-0.7,1.9-1.6c0.2-0.7-0.2-1.4-0.9-1.6
	c-0.1,0-0.3-0.1-0.4,0c-0.9,0-1.7,0.7-1.8,1.6c-0.2,0.7,0.2,1.4,0.9,1.6C169,143.8,169.1,143.8,169.3,143.8L169.3,143.8z M183,129.9
	l-1.4,8h1.4l-0.9,0.7c1,0.9,2,1.9,2.9,3l2-1.8c-0.9-0.9-1.8-1.7-2.7-2.5l0.2-1h8.4l0.4-2h-8.4l0.2-1.3h7.8l0.3-2h-7.8l0.2-1.2h9
	l0.4-2.1h-12.3c0.3-0.5,0.6-1,0.8-1.5l-2.5-0.6c-1.3,2.8-3.2,5.2-5.6,7c0.7,0.5,1.2,1.1,1.8,1.8c1.6-1.3,2.9-2.8,4.1-4.5L183,129.9
	L183,129.9z M175.6,144.6c1-1.7,1.8-3.4,2.6-5.2l-2.1-0.9c-0.8,1.7-1.7,3.4-2.7,5L175.6,144.6z M193,143.8c-0.4-1.8-0.9-3.6-1.5-5.4
	l-2.5,0.7c0.2,0.8,0.5,1.8,0.7,2.8c-0.8-0.2-1.5-0.5-2.1-0.9c-0.4,1.7-0.6,2-1.7,2h-3.8c-1.3,0-1.5-0.1-1.4-0.7l0.6-3.3h-2.5
	l-0.6,3.3c-0.4,2.2,0.2,2.9,3.3,2.9h4.2c2.3,0,3.2-0.7,4-3.3c0.2,1,0.4,2,0.5,2.8L193,143.8z M214.7,136c-0.3,0-0.3-0.1-0.2-0.5
	l0.4-2.1h-1.4l-0.4,2.1c-0.2,1.1-0.1,1.5,1,1.5h0.7c0.3,0,0.6,0,0.9-0.1c0-0.3,0.1-0.7,0.1-1.1c-0.3,0.1-0.6,0.1-0.8,0.1L214.7,136
	L214.7,136z M212.2,137.2l0.8-4.5h3l0.3-1.9h-3l0.2-1h-1.9l-0.2,1h-2.5l-0.3,1.9h2.5l-0.8,4.5H212.2z M216.7,129.4l0.4-2.2h-7.2
	c-0.1-0.6-0.1-1.2-0.3-1.7L207,126c0,0.4,0.1,0.8,0.1,1.3h-7.9l-1,5.8c-0.6,3.1-1.5,7.7-3.4,10.8c0.7,0.4,1.2,0.9,1.7,1.5
	c2.2-3.4,3.4-8.9,4-12.3l0.6-3.6H216.7L216.7,129.4z M204.7,137.1l0.8-4.4h2.6l0.3-1.9h-2.6l0.2-1h-1.9l-0.2,1h-2.3l-0.3,1.9h2.3
	l-0.8,4.4H204.7L204.7,137.1z M202.9,133.4h-1.4l-0.1,0.8c-0.1,0.9-0.6,1.8-1.3,2.4c0.4,0.3,0.7,0.6,1,1c0.9-0.9,1.5-2,1.7-3.3
	L202.9,133.4z M209.4,140.9c0.3,0.5,0.6,0.9,0.9,1.4l-6,0.4c2.6-1.2,5.1-2.5,7.5-4l-1.6-1.2c-1,0.7-2.1,1.4-3.2,2l-3.2,0.1
	c1.3-0.6,2.5-1.3,3.7-2.1l-1.1-0.8h0.4c0.3,0,0.5,0,0.8-0.1l0-0.2c0.4,0.2,0.7,0.6,0.9,0.9c0.9-0.8,1.5-1.9,1.7-3.1l0.2-0.9H209
	l-0.1,0.8c-0.1,0.8-0.5,1.6-1.2,2.1c0-0.2,0.1-0.4,0.1-0.6c-0.2,0-0.5,0.1-0.7,0.1c-0.2,0-0.2-0.1-0.2-0.4l0.3-1.8h-1.3l-0.3,1.8
	c-0.1,0.7-0.1,1.2,0.3,1.4c-1.2,0.9-2.6,1.7-4,2.4c-0.5,0.3-0.9,0.4-1.5,0.5c0.1,0.6,0.2,1.2,0.2,1.9c1.2-0.3,2.4-0.4,3.6-0.4
	c-0.8,0.4-1.7,0.9-2.6,1.2c-0.8,0.4-1.7,0.7-2.7,0.9c0.1,0.7,0.2,1.3,0.2,2c0.8-0.3,2-0.3,12.1-1c0.2,0.4,0.5,0.8,0.6,1.1l2.1-1
	c-0.8-1.4-1.7-2.8-2.7-4.1L209.4,140.9z M229.1,136.9l0.5-2.6h4.5l-0.5,2.6H229.1L229.1,136.9z M222.5,136.9
	c0.2-0.8,0.3-1.5,0.5-2.2l0.1-0.4h4l-0.5,2.6H222.5L222.5,136.9z M227.8,129.5l-0.4,2.5h-4l0.4-2.5H227.8z M234.4,131.9h-4.5
	l0.4-2.5h4.5L234.4,131.9z M237.7,127.1h-16l-1.3,7.5c-0.5,3-1.4,6.7-4.1,9.3c0.7,0.4,1.2,1,1.7,1.6c1.8-1.7,3.1-3.9,3.8-6.3h4.3
	l-1,5.9h2.5l1-5.9h4.5l-0.6,3.2c0,0.3-0.3,0.5-0.5,0.5c0,0-0.1,0-0.1,0c-0.4,0-1.8,0-3,0c0.2,0.8,0.4,1.6,0.4,2.4
	c1.4,0.1,2.8,0,4.1-0.5c0.9-0.4,1.3-1,1.6-2.4L237.7,127.1z M246.4,131.8l0.3-1.7h1.6c-0.5,0.6-1,1.2-1.5,1.7H246.4z M246.8,138.9
	h-3.4l0.2-1.3h3.4L246.8,138.9z M242.8,142.3l0.3-1.5h3.4l-0.3,1.5H242.8L242.8,142.3z M259.2,126.8l-0.4,0.1h-6.1l-0.1,0.4
	l-2.1-0.6c-0.4,0.8-0.9,1.6-1.5,2.4l0.2-1.1h-2.2l0.4-2h-2.3l-0.4,2H242l-0.4,2.1h2.8l-0.3,1.7h-3.7L240,134h4.5
	c-1.7,1.4-3.6,2.6-5.7,3.5c0.4,0.7,0.8,1.4,1.1,2.1c0.4-0.2,0.8-0.4,1.2-0.6l-1.1,6.4h2.3l0.2-1.1h3.4l-0.1,0.8h2.4l1.7-9.5H246
	c0.6-0.5,1.1-1,1.6-1.5h3.1l0.4-2.2h-1.6c1.1-1.4,2.2-2.9,3.1-4.5l-3.2,18.1h2.5l2.9-16.2h2.7c-0.8,1.6-1.9,3.8-2.8,5.3
	c1.1,1.1,1.7,2.7,1.4,4.3c0,0.6-0.3,1.1-0.8,1.4c-0.3,0.1-0.6,0.2-0.9,0.2c-0.4,0-0.9,0-1.3,0c0.2,0.8,0.3,1.6,0.2,2.4
	c0.6,0.1,1.2,0,1.8,0c0.6-0.1,1.1-0.3,1.6-0.6c0.9-0.5,1.5-1.6,1.7-3.2c0.3-1.7-0.1-3.5-1.3-4.9c1.2-1.9,2.5-4.3,3.7-6.3
	L259.2,126.8z M267.2,125.8c-1.4,1.7-3.1,3.1-5,4.1c0.4,0.7,0.7,1.4,0.9,2.1c2.4-1.5,4.5-3.2,6.3-5.3L267.2,125.8z M266.9,130.4
	c-1.7,2.1-3.7,4-6,5.4c0.3,0.8,0.6,1.7,0.8,2.6c0.7-0.5,1.4-1.1,2.2-1.7l-1.5,8.8h2.5l2-11.6c0.8-0.8,1.5-1.6,2.2-2.5L266.9,130.4z
	 M271.9,132.4h5.3l-0.3,1.7h-5.3L271.9,132.4z M277.9,128.7l-0.3,1.6h-5.3l0.3-1.6H277.9L277.9,128.7z M278.6,136.4
	c-1,0.8-2.1,1.6-3.2,2.3c-0.3-0.8-0.5-1.7-0.7-2.5h4.3l1.7-9.7h-10.2l-2.7,15.1c-0.1,0.8-0.6,1.5-1.3,1.8c0.4,0.6,0.6,1.3,0.7,2
	c0.6-0.3,1.4-0.6,5.7-1.7c0-0.8,0.1-1.5,0.3-2.3l-3.1,0.7l1-5.9h1.3c0.4,4.3,1.8,7.5,5.1,9.1c0.6-0.8,1.3-1.5,2.1-2.2
	c-1.4-0.5-2.6-1.5-3.4-2.7c1.1-0.6,2.5-1.5,3.6-2.2L278.6,136.4z M289.5,140.7c-1,1.1-2.1,2-3.3,2.9c0.6,0.4,1.1,0.9,1.7,1.4
	c1.3-1.1,2.6-2.3,3.7-3.5L289.5,140.7z M296.4,141.7c0.8,1.1,1.6,2.2,2.3,3.3l2.2-1.2c-0.5-0.9-1.7-2.2-2.4-3.2L296.4,141.7z
	 M297.8,136.9h-5.4l0.1-0.8h5.4L297.8,136.9z M297.4,139.1H292l0.1-0.8h5.4L297.4,139.1z M289.2,129.5h5.6c-0.2,0.4-0.5,0.9-0.7,1.3
	h-4.4l-0.3,1.9h3.2c-0.3,0.4-0.7,0.7-1,1c-0.4-0.3-0.8-0.7-1.2-0.9l-1.5,1.1c0.4,0.3,0.7,0.6,1.1,1c-0.6,0.4-1.3,0.8-2,1.1
	c0.1-0.6,0.3-1.3,0.4-1.8L289.2,129.5z M296.7,132.7c0.2,0.7,0.6,1.3,1,1.9h-4.1c0.6-0.6,1.2-1.2,1.7-1.9H296.7z M301.3,132.7
	c-0.4,0.3-0.9,0.8-1.5,1.2c-0.3-0.4-0.7-0.8-0.9-1.2H301.3z M301.4,132.7h1.4l0.3-1.9h-6.7c0.2-0.4,0.4-0.7,0.6-1.1l-1.4-0.2h7.9
	l0.4-2.1h-6.9c-0.1-0.6-0.2-1.2-0.3-1.8l-2.6,0.5c0.1,0.4,0.1,0.8,0.2,1.3h-7l-1,5.7c-0.1-1-0.3-2.6-0.5-3.7l-2,0.7
	c0.2,1.4,0.4,2.8,0.4,4.3l2-0.9l-0.1,0.7c-0.1,0.5-0.2,1.1-0.3,1.6c-1.3,0.6-2.6,1.2-3.4,1.5l0.3,2.3c0.8-0.4,1.6-0.9,2.5-1.3
	c-0.6,2.1-1.7,4-3.3,5.5c0.6,0.5,1.1,1,1.4,1.7c2.5-2.3,3.9-5.9,4.7-9c0.4,0.4,0.7,0.9,0.9,1.4c0.5-0.2,0.9-0.5,1.4-0.8l-0.6,3.5
	h3.6l-0.5,2.6c0,0.2-0.2,0.3-0.3,0.3c0,0,0,0,0,0c-0.3,0-1.1,0-1.9,0c0.2,0.6,0.4,1.3,0.4,2c1,0.1,2,0,3-0.3c0.8-0.3,1.3-1,1.3-1.9
	l0.5-2.7h3.7l0.6-3.5c0.3,0.2,0.7,0.4,1,0.6c0.5-0.7,1.1-1.3,1.8-1.8c-0.7-0.2-1.3-0.6-1.8-1c0.5-0.4,1.1-0.8,1.6-1.2L301.4,132.7z
	 M309.3,145c0.9-1,1.7-2.1,2.4-3.3l-1.7-0.8c-0.6,1.1-1.4,2.1-2.3,3L309.3,145z M317.1,138.2h1.8l0.7-4.1h-1.8L317.1,138.2z
	 M322.9,133.9h-2l-0.8,4.7c0,0.1-0.1,0.3-0.3,0.3c0,0,0,0,0,0c-0.2,0-0.9,0-1.6,0c0.2,0.5,0.3,1.1,0.3,1.6c0.9,0.1,1.7,0,2.5-0.3
	c0.6-0.3,1-0.9,1-1.6L322.9,133.9z M314.6,140.8c0.6,0.6,1.2,1.3,1.6,2l1.8-1.1c-0.5-0.7-1.1-1.4-1.7-2L314.6,140.8z M312.5,137.5
	c0.1-0.2,0.1-0.4,0.1-0.6h2.1l-0.1,0.6H312.5L312.5,137.5z M315,135.3l-0.1,0.5h-2.1l0.1-0.5H315L315,135.3z M317,134.1h-5.7
	l-0.5,2.8c-0.1,1-0.6,1.9-1.4,2.5c0.5,0.3,0.9,0.7,1.3,1.2c0.7-0.5,1.2-1.2,1.5-2h2.2l-0.1,0.4c0,0.1-0.1,0.2-0.2,0.2c0,0,0,0,0,0
	c-0.1,0-0.6,0-1,0c0.1,0.4,0.2,0.8,0.2,1.2c0.7,0.1,1.4,0,2-0.2c0.5-0.2,0.8-0.7,0.8-1.2L317,134.1z M314.6,143.5
	c-0.7,0-0.9,0-0.8-0.5l0.3-2h-2l-0.4,2c-0.3,1.6,0.1,2.1,2.3,2.1h2.8c1.5,0,2.1-0.5,2.6-2.3c-0.6-0.1-1.1-0.3-1.6-0.6
	c-0.3,1.1-0.4,1.3-1,1.3L314.6,143.5L314.6,143.5z M319,141.6c0.6,1,1.1,2.2,1.4,3.3l2.1-0.9c-0.4-1.1-0.9-2.2-1.6-3.3L319,141.6z
	 M316.1,132.2c0.6-0.3,1.1-0.6,1.7-0.9c0.6,0.3,1.1,0.6,1.6,0.9H316.1z M311,129.6h6.3c-2.1,1.2-4.4,2.1-6.7,2.6L311,129.6z
	 M319.6,130l-0.8-0.4h6.4l0.4-2.1h-6.4c-0.1-0.6-0.2-1.3-0.3-1.9l-2.6,0.5c0.1,0.4,0.2,0.9,0.2,1.4h-7.3l-1,5.6
	c0-1.3-0.2-2.5-0.6-3.7l-1.9,0.8c0.3,1.4,0.5,2.8,0.4,4.3l2-0.9l-0.1,0.7c-0.1,0.5-0.2,1.1-0.3,1.6c-1.3,0.6-2.6,1.2-3.4,1.5
	l0.3,2.3c0.8-0.4,1.6-0.9,2.5-1.4c-0.6,2.1-1.7,4-3.3,5.5c0.6,0.5,1.1,1,1.4,1.6c3.2-2.9,4.5-7.9,5.1-11.2l0.3-1.8
	c0.3,0.4,0.6,0.9,0.8,1.4c1.1-0.3,2.2-0.7,3.3-1.1l-0.1,0.7h5.5l0.2-0.9c1,0.4,2.1,0.8,3.1,1.1c0.4-0.7,1-1.2,1.6-1.7
	c-2-0.4-3.9-1-5.7-1.8L319.6,130z M343.9,126.5c-2.2,2.1-4.5,4.1-7,5.9c-1.5-1.8-3.7-4-5.6-5.8l-2.2,1.7c2.1,2.1,4,4.3,5.8,6.6
	l-1.6,9.2h2.7l1.7-9.5c2.9-2,5.6-4.2,8.2-6.5L343.9,126.5z M349.7,138.3h2l1.8-7.8l0.6-2.9H351l-0.4,2.9L349.7,138.3z M349.7,143.9
	c1.1-0.1,2.1-0.9,2.3-2c0.2-0.9-0.3-1.7-1.1-2c-0.2,0-0.3-0.1-0.5-0.1c-1.1,0-2.1,0.9-2.3,2c-0.2,0.9,0.3,1.7,1.1,2
	C349.4,143.9,349.5,143.9,349.7,143.9L349.7,143.9z"/>
<g>
	<path class="st5" d="M498.4,133.8c-3.7-7.5-9.4-12.9-11.4-14.7c0.3-0.3,0.4-0.6,0.6-0.9c0.7-0.6,1.5-1.3,2.3-2.1
		c5.2-4.8,6.6-10.4,6.2-14.1c-0.2-2-1-3.5-2.1-4c-1.8-1-3.3,0.1-4.1,0.6c-0.5,0.3-0.9,0.6-1.4,0.5c-0.6-0.1-0.9-1.6-1.3-3.2
		c-0.4-1.5-0.8-3.3-1.7-5.1c-1.1-2.3-3.4-4.6-6.5-6c-0.4-1.3-1.4-2-1.4-2c0.5,0.6,0.9,1.2,1,1.8c-0.5-0.2-1.3-0.5-2.2-0.7
		c-0.4-0.6-0.9-1.1-1.6-1.5c0.4,0.4,0.8,0.9,1.1,1.4c-0.6-0.1-1.1-0.2-1.6-0.2c-1.4-1.7-7.3-8-13.5-6.6c-4.3,1-3.6,5.1-2.9,8
		c-1,1.1-1.8,2.1-2.4,3.1c0.3-3.6-1-6.2-1-6.2c0.6,6-3.5,12.7-4.2,13.8c-1.6-0.3-3.5-0.8-5.5-1.3c-5.4-1.4-10.7-2-13.6,3.4
		c-2.7,4.9-1.5,16.4,7.8,23.5c5.9,4.5,12.1,5.8,17,5.1c2.2-0.3,3.8-1.2,4.9-2.9c1.3,0.5,2.4,0.7,3,0.9c-0.3,0.6-0.6,1.2-0.8,1.8
		c-1.3,2.7-2.6,5.4-4.7,7c-2.1,1.5-5,1.6-7.5,1.9c-3.1,0.4-6.5,0.8-10,3.7c-1.5-0.4-2.4-2.3-3.4-4.5c-1.7-3.7-4.1-8.5-10.3-9.1
		c-10.1-1.1-12.6,7.3-12.6,7.3c0-0.1,4.2-6.1,11.9-4.6c5.3,1,6.9,6.2,8.3,10c0.9,2.4,1.5,4.5,2.9,5.1c-2.2,5.3-0.9,12.2-0.7,14.9
		l0.1,0.9c0,0.5-0.9,2.6-1.4,4.2c-0.6,1.9-1.2,4-1.4,5.5c-0.4,3.4,4.5,5.4,9.5,6.3c4,0.7,7.8-0.4,9-2c0.2-0.3,0.4-0.6,0.4-1
		c1.3-0.3,2.4-1.1,2.8-2.4c0.4-1.3,0.1-2.7-0.6-3.4c-1-1-3-0.3-4.3,0.2l-0.8,0.2c-0.5,0.1-1.7-0.4-2.7-1c1.9-1.1,3.2-2.9,4-5
		c0.4-1.1,0.5-2.2,0.5-3.2c1.5,0.5,4.7,1.4,8.1,1.5c0.8,3.1,2.4,5,4.5,6.3c-0.8,0.7-2.5,1.6-3.1,2c-0.4-0.2-0.9-0.4-1.2-0.5
		c-0.9-0.4-1.7-0.4-2.4-0.2c-2.3,0.8-1.6,3.7-1.1,4.4c0.7,1.1,2.3,1.4,3.3,1.5c0.1,0.4,0.3,0.7,0.6,1c1.5,1.5,6,1.6,9.2,1
		c3.7-0.7,7.7-1.7,8.4-6.3c0.8-4.9-3.7-12.1-4.8-14c1.9-1.7,4-4.1,5.6-7c4.2,2.9,7.3,4.1,10.8,4.2c1.7,0,3.1-0.3,4-1.2
		c1.4-1.4,1.4-3.6,1.3-4.6c0-0.6,0-1.1,0.1-1.5c1.6,0.1,3.4,0.2,4.1-0.9C500.9,141.1,500.5,138,498.4,133.8z M458.3,89
		c-0.3,0.3-0.6,0.6-0.9,0.9c0.3-0.6,0.7-1.2,1-1.8C458.3,88.4,458.3,88.7,458.3,89z M490.8,137.7c-0.2,0-0.4-0.1-0.6-0.1
		c-1.3,0-2,0.9-2.4,1.8c-1.4-1.5-3-3.2-4.4-5.2c-0.1-0.9-0.1-1.7-0.2-2.5c1.7,1.1,6.4,4.2,7.7,5.8
		C490.9,137.6,490.8,137.7,490.8,137.7z"/>
	<path class="st6" d="M477.7,123.9c1.5,0,2.7-0.4,3.6-0.7c-1.5,1.8-1.9,2.8-2.1,3.4C478.7,125.7,478.2,124.8,477.7,123.9z"/>
	<path class="st7" d="M482.5,121.9c-2,1.1-4,1.5-5.2,1.4c-2-3.1-4.3-5.5-7.3-5.1c-0.7,0.1-1.3,0.3-1.9,0.7c-1-0.9-1.5-2.2-1.7-2.7
		c0.1,0,0.2,0,0.3,0l0.2,0c1.8-0.2,4.8-0.5,6.2-2.3c0.1-0.1,0.2-0.3,0.3-0.5c1.1,0.6,3.9,1.9,6.8,1c2.2-0.7,3.5-2.4,4.3-3.9
		c0.7,0.3,2.4,0.8,4.3-0.9c0.3-0.3,0.6-0.6,0.9-1c0.2,1.1,0.7,4.3-1.2,7.5C486.6,119.3,484.4,120.9,482.5,121.9z"/>
	<path class="st6" d="M463.1,95.5c0-1.3-0.2-2.2-0.6-2.9c0.6-0.1,1.3-0.2,1.8-0.2c-0.1,1-0.4,2-0.7,2.7
		C463.5,95.2,463.3,95.4,463.1,95.5z"/>
	<path class="st8" d="M463.8,95.8c0.2-0.2,0.5-0.3,0.8-0.5c0.9-0.5,2.7-0.1,4.6,0.9c2.9,1.6,6.2,4.9,6.8,9.4c-1.1,0.4-2.2,1-3.2,2
		c-0.8-0.6-4.2-2.9-6.5-5.1c0.6,0.3,1.1,0.4,1.4,0.2C469.1,101.7,466.2,95.1,463.8,95.8z"/>
	<path class="st9" d="M472.4,107.9C472.4,107.9,472.4,107.9,472.4,107.9C472.4,107.9,472.4,107.9,472.4,107.9
		C472.4,107.9,472.4,107.9,472.4,107.9z"/>
	<path class="st7" d="M480,105.4c0,0.1,0,0.3,0,0.4c0.4,1.1,1.5,0.9,2.3,0.8c0.8-0.1,1.8,0.3,1.8,0.3c2-2.1,2.2-3.7,0.8-4.2
		c0.5-0.6,1.7-2,3.7-1.6c0.7,0.2,1.3,0.8,1.5,1.7c0.5,1.8-0.1,4.6-2.1,6.4c-1.6,1.5-2.9,1.1-3.4,0.9c0.5-1.1,0.7-1.9,0.7-1.9
		c0,0-2.3,4.1-5.4,5.1c-2.5,0.8-5.3-0.1-6.2-0.5c0.3-0.7,0.3-1.6,0.1-2.6c-0.2-0.8-0.5-1.5-1-2C473.4,107.7,475.7,106.1,480,105.4z"
		/>
	<path class="st6" d="M478.7,86.1c-0.1,1.4-0.9,2.5-1.4,3.1c0,0-0.1,0-0.1,0.1c0.5-1.4,0.5-2.6,0.2-3.4
		C477.8,85.9,478.3,86,478.7,86.1z"/>
	<path class="st8" d="M477.2,90.1c0.2-0.3,0.5-0.5,1-0.6c0.3-0.1,1,0.1,2,0.8c2.6,1.8,5.6,5.8,6.1,10.3c-1,0.6-1.6,1.6-1.8,1.9
		c-0.1,0-0.2,0-0.3,0c-0.1,0-0.1,0-0.2,0l0,0c0,0-2.6-2.6-4.7-5.6c0.2,0,0.4,0,0.6,0C481.8,96.1,479.2,89.8,477.2,90.1z"/>
	<path class="st6" d="M484.7,91.2c0.9,1.8,1.3,3.5,1.7,5c0.5,2,0.9,3.4,2.1,3.6c0.8,0.1,1.5-0.3,2-0.6c0.8-0.5,1.5-0.9,2.9-0.2
		c0.8,0.4,1.4,1.7,1.6,3.3c0.4,3.4-0.6,8.9-5.6,13.3c0.9-1.8,1.8-4.7,0.6-7.3c1.1-1.9,1.3-4.3,0.9-5.8c-0.3-1.2-1-2-2-2.2
		c-0.8-0.2-1.6-0.1-2.2,0.3c-0.6-4.5-3.2-8.4-6.2-10.5c-0.6-0.4-1.7-1.1-2.5-0.9c0,0-0.1,0-0.1,0c0.8-1.1,1.2-2,1.3-2.8
		c0.1,0,0.3,0.1,0.4,0.1C482,87.5,483.7,89.3,484.7,91.2z"/>
	<path class="st6" d="M461.2,77.9c4.7-1.1,9.8,4.1,11.2,5.6c-1.5,0-3.1,0.2-4.8,0.6c-3.3,0.8-6,2.3-8,3.8c0-0.4-0.1-0.9-0.2-1.4
		c2.4-3.5,4.8-5.8,4.8-5.8c-2.1,0.9-3.9,2.1-5.3,3.5C458.2,81,458.2,78.6,461.2,77.9z"/>
	<path class="st10" d="M456.3,125.2c-4.5,0.6-10.7-1.6-16.2-5.8c-4.4-3.4-7-7.7-8.2-11.6c-0.6-2.8-0.2-5.3,1.1-6.9
		c1.6-1.9,4.5-2.6,8.4-2c6.3,0.9,9.5,4.8,10.3,7.8c0.4,1.6,0.2,3-0.6,3.7c-2.4,1.9-4.2,0.1-4.2,0.1c1.4,3.2,3.6,3.2,4.7,3
		c-0.4,1.2,0.1,2.8,1.5,4.7c1.9,2.5,4.8,4.1,7.3,5C459.4,124.2,458,124.9,456.3,125.2z"/>
	<path class="st6" d="M454,117.2c-1.2-1.6-1.6-2.9-1.3-3.9c0.3-1.1,1.4-1.6,1.4-1.6c0,0-1.2,0.1-1.9,0.9c-0.4,0-2.5,0.2-4.2-1.3
		c1,0.4,2.4,0.5,3.7-0.6c1-0.8,1.3-2.5,0.9-4.3c-0.8-3.2-4.4-7.3-10.9-8.3c-4.1-0.6-7.1,0.1-8.8,2.2c-0.8,1-1.3,2.2-1.5,3.7
		c-0.2-2.4,0.2-4.5,1-6c2.4-4.3,6.6-3.9,12.5-2.5c7.1,1.8,10.4,1,10.4,1c0,0-1.5-0.2-3.7-0.7c3.4-4.3,3.7-11.3,3.7-11.3
		c0.1,0.4,0.1,3.4,0.1,4.3c-0.7,1.3-1,2.1-1,2.1c2.9-4.9,7.4-8.4,7.4-8.4c-3.1,3.1-5,7.3-5.6,8.7c-1.4,1.6-2,2.8-2,2.8
		c0-0.1,4.5-6.7,13.6-8.9c3.3-0.8,6.3-0.8,8.8-0.2c-0.9-0.1-1.8,0-2.5,0.4c-2.1,1.3-0.5,3.9-0.5,3.9s-1.2-2.3,1-3.3
		c0.7-0.3,1.5-0.4,2.4-0.3c0.5,1.5,0.2,3.1-0.1,3.9c-0.1,0.2-0.3,0.3-0.3,0.5c-0.5,1.1-0.1,3.1,1.2,5.4c1.9,3.3,5,6.2,5.9,7
		c-1.4,0.2-2.9,1.4-3.3,2.4c-0.6,0-2.1,0-3.8,0.5c-0.7-4.7-3.7-8.1-6.7-9.7c-2.1-1.1-4.3-1.5-5.4-1c0,0-0.1,0-0.1,0
		c0.4-1,0.6-1.8,0.7-2.4c0.5,0,0.9,0,1.2,0.1c0,0-0.5-0.1-1.2-0.2c0.2-2.9-2.3-3.4-2.3-3.4c1.5,0.8,1.9,2.1,1.9,3.4
		c-0.6-0.1-1.4-0.1-2.2-0.1c-1.5-1.8-4.2-1.4-4.2-1.4c1.7,0.1,2.7,0.7,3.5,1.5c-1.6,0.2-3.1,0.8-3.6,2.2c-1.2,3.2,3.3,6.7,3.3,6.7
		c0,0-3.4-3.8-2.4-6.4c0.4-1,1.7-1.7,3.2-2c0.8,1.1,0.9,2.5,0.9,3.2c-0.3,0.3-0.4,0.7-0.5,1.1c-0.2,1.3,0.5,3,2.1,4.8
		c1.8,2,5.1,4.3,6.9,5.4c-2.9-1.4-7.2-0.6-7.2-0.6c0.1,0,7.8-0.4,8.5,3.8c0.2,1.2,0,2.2-0.5,2.9c-1.1,1.5-3.6,2-5.3,2.1l-0.2,0
		c-2.7,0.2-3.6,2.5-3.6,2.5c0,0,1.3-1.3,3-1.7c0.2,1.5,1,2.4,1.7,3c-1.3,1-2.3,2.7-3.2,4.5C463.2,123.3,457,121.3,454,117.2z"/>
	<path class="st6" d="M435.9,137.1c-1.5-4-3.4-8.9-9-10c-4.8-0.9-8.6,1.4-10.9,3.5c2-2.5,5.7-5.6,11.6-5c5.8,0.6,7.8,5.5,9.5,9.1
		c1,2.1,1.7,4.1,3,4.9c-0.6,0.6-1.1,1.3-1.5,2.1C437.5,141.2,436.8,139.4,435.9,137.1z"/>
	<path class="st6" d="M477.1,167.2c-0.6,3.7-4,4.6-7.4,5.2c-3.6,0.6-7,0.4-8-0.5c-0.2-0.2-0.3-0.5-0.2-0.8c0.3-1.7,5-2.5,6.3-2.5
		c0,0-6.2-1-7.2,2.3c0,0.1,0,0.2-0.1,0.3c-0.6-0.2-1.8-0.8-2.4-1.6c-0.3-0.5-0.4-0.9-0.3-1.3c0.2-0.8,0.5-1.2,1-1.4
		c0.5-0.2,1.2-0.1,1.6,0.2c2.2,1.2,4.2,0.6,4.2,0.6c0,0-0.6-0.2-1.3-0.5c1-0.5,2-1.4,2.6-2c3.1,1.6,6.2,1.8,6.2,1.8
		c-8.4-2.8-9.5-6.9-10-8.6c0.1,0,0.2,0,0.4,0c3.3-0.3,7.3-1.2,11-4.2C474.5,156.3,477.8,163,477.1,167.2z"/>
	<path class="st11" d="M462.5,157c-4.6,0.4-9-1-10.1-1.3c-0.2-0.9-0.5-1.6-0.9-2.3c-0.2-1-0.6-5.7,4.8-7.2c1.9-0.5,3.7-0.8,5.5-1
		c4.1-0.5,7.5-1.2,10-4.9c0.1,0.1,0.2,0.2,0.3,0.3c2.5,2.1,5,4.1,6.9,5.5C475,152.7,469.6,156.4,462.5,157z"/>
	<path class="st6" d="M493.8,148.9c-0.7,0.7-1.8,1-3.3,0.9c-4.8-0.3-19.8-9.2-23.8-17.8c0,0,1.5,4.8,4.8,8c-2.4,3.5-6.1,4-10.1,4.5
		c-1.8,0.2-3.7,0.5-5.6,1c-4.9,1.4-5.2,5.1-5,6.9c-1.4-1.8-3.1-2.9-3.1-2.9c0.2,0.2,4.9,4.7,2.9,10.5c-0.8,2.2-2.2,3.6-4.4,4.6
		c-2.4,1.1-6,1.5-6.4,1.3c0,0,2.9,1.3,6.9-0.3c0.9,0.5,3.1,1.6,4.2,1.3l0.8-0.3c1.1-0.4,2.5-0.9,3.1-0.2c0.4,0.4,0.6,1.5,0.3,2.5
		c-0.2,0.6-0.6,1.4-1.6,1.8c0-0.3-0.1-0.6-0.3-0.9c-1.7-3.2-6.9-1.1-6.9-1.1c0,0,5.1-0.4,6.1,1.7c0.2,0.5,0.2,0.9-0.1,1.3
		c-0.8,1.1-4,1.8-7.8,1.2c-5.4-0.9-9-2.9-8.8-4.9c0.2-1.3,0.8-3.4,1.4-5.3c0.6-2.1,1-3.4,1-4.1l-0.1-1c-0.3-3.3-1.2-13.3,4-17.8
		c3.3-2.8,6.5-3.2,9.6-3.6c2.6-0.3,5-1,7.4-2.7c2.4-1.7,3.7-4.7,5-7.5c1.5-3.3,3.2-5.9,5.8-6.3c4-0.5,6.9,5.3,9.3,9.9
		c0.6,1.1,1.1,2.1,1.6,3c1.9,3.3,4.3,5.8,6.3,7.9c1.9,2,4.3,4.8,4.7,5.9c0,0,0-1.2-1-3c1-0.2,1.8-1.3,2.1-2.3c0.5-2,1.4-3.3,2.7-3.2
		c0.2,0,0.6,0.1,0.7,0.2c0.2,0.4-0.4,1.7-0.7,2.2l-0.1,0.1c-0.5,1.1-1,2.1-0.9,4.2C494.9,145.9,494.9,147.8,493.8,148.9z"/>
	<path class="st6" d="M489.4,141.2c-0.3-0.4-0.6-0.8-1-1.2c0.2-0.7,0.7-1.8,1.8-1.8c0.5,0,0.8,0.1,0.9,0.3c0.1,0.1-0.1,0.6-0.2,0.8
		C490.3,139.8,489.6,140.4,489.4,141.2z"/>
	<path class="st11" d="M482.1,132.3C482.1,132.3,482.1,132.3,482.1,132.3c-0.5-0.8-0.9-1.7-1.5-2.7c0.3-0.7,0.7-1.4,1.3-0.3
		C482.1,130.5,482.1,131.6,482.1,132.3z"/>
	<path class="st6" d="M499.2,142c-0.5,0.7-1.6,0.8-3.2,0.8c0.2-0.5,0.4-1,0.7-1.4l0.1-0.1c0.4-0.8,1-2,0.5-2.8
		c-0.2-0.4-0.8-0.8-1.5-0.8c-1.8-0.1-3,1.1-3.6,3.6c-0.2,0.8-1,1.6-1.5,1.6c-0.2,0-0.4-0.2-0.5-0.6c-0.4-1.6,2.1-3.3,2.1-3.3
		c0,0-0.3,0.1-0.6,0.2c0.1-0.2,0.1-0.4-0.1-0.8c0-0.1-0.1-0.2-0.2-0.2c0.6-0.6,2-1.7,4.6-1.6c0,0-2.2-1.1-4.3,0.3
		c-0.8-0.9-4.6-5-8.7-6.3c-0.7-5.5-1.7-6-1.7-6c0.2,1.1,0.4,2.6,0.5,4c-0.3-0.5-0.9-0.8-1.5,0.5c-0.4-0.7-0.7-1.5-1.1-2.2
		c0.7-1.4,1.6-2.4,4.3-4.8c0.9-0.5,2.3-1.6,2.9-2.2c2,2.1,7.6,8.2,11,15C499.3,138.6,499.9,141,499.2,142z"/>
	<path class="st8" d="M484.5,103.2c0.8,0.6-2.7,2.9-3.5,2.2C480.1,104.7,483.6,102.5,484.5,103.2z"/>
	<path class="st9" d="M475.5,112c0,0-9.9,0.9-15.9,6.1C459.6,118,464.3,112.1,475.5,112z"/>
	<path class="st9" d="M475.5,110.4c0,0-10.6-1.2-19.9,2.6C455.6,113.1,463.6,108.3,475.5,110.4z"/>
	<path class="st9" d="M489,100.6c0,0,3.1-6.4,8.5-9.9c0,0-5.7,2.3-8.8,9.8"/>
	<path class="st9" d="M490.3,102c0,0,5.3-6.3,17.4-10.6c0,0-10,2-17.4,10.2"/>
	<path class="st5" d="M487.8,110.6c0,0-0.4,3.1-2.5,5.4C485.4,116,488.6,114.1,487.8,110.6z"/>
</g>
</svg>
