<?xml version="1.0" encoding="utf-8"?>
<!-- Generator: Adobe Illustrator 24.3.0, SVG Export Plug-In . SVG Version: 6.00 Build 0)  -->
<svg version="1.1" id="群組_14" xmlns="http://www.w3.org/2000/svg" xmlns:xlink="http://www.w3.org/1999/xlink" x="0px" y="0px"
	 viewBox="0 0 390 160" style="enable-background:new 0 0 390 160;" xml:space="preserve">
<style type="text/css">
	.st0{fill-rule:evenodd;clip-rule:evenodd;fill:#1E1E1E;}
	.st1{fill-rule:evenodd;clip-rule:evenodd;}
	.st2{fill:#1E1E1E;}
	.st3{fill:#FEFCF7;}
	.st4{fill-rule:evenodd;clip-rule:evenodd;fill:#FFFFFF;}
	.st5{fill:#1C1D1D;}
	.st6{fill:#DA9300;}
	.st7{fill:#FEEBC8;}
	.st8{fill:#FFFFFF;}
	.st9{fill:#0C0103;}
	.st10{fill:#F6BBAA;}
	.st11{fill:#F7CB83;}
</style>
<g>
	<path id="形狀_512_拷貝" class="st0" d="M253.6,56.4c0-2.4,4.9-5.9,4.9-5.9c-1.5,0.6-3.1,0.9-4.8,0.9c-0.7,0-1.4-0.1-2.1-0.2
		c0.4-0.7,0.6-1.5,0.8-2.3c0.7-2.7,0.6-5.6-0.2-8.3c-1-3-3.1-5.6-5.9-7.1c-1.9-1-4-1.7-6.2-1.9c0.2-2.6-0.3-5.1-1.5-7.4
		c-1.2-2.4-3.3-4.3-5.8-5.3c-1.6-0.6-3.3-0.9-4.9-0.9c-0.6,0-1.2,0-1.7,0.1c-1.1,0.2-2.2,0.5-3.3,0.9c-3.7-1.6,0-9.4,0-9.4
		s-5.7,7.3-8.2,7.3h0c-3.2-0.1-6.7-3.3-12.1-10.4c0,0,4.1,7,4.1,9.6c0,2.1-2.8,3.2-5.3,3.2h-0.1c0,0,2.7,1.4,3.8,2.9
		c0.3,0.4,0.4,0.8,0.2,1.3c-1.1,0.6-2.1,1.4-3,2.3c-3.3,3.3-4.5,8.1-3.2,12.5c-1.4,0.8-2.6,1.8-3.8,2.8c-1.1,1.1-2.1,2.3-2.9,3.7
		c-1.3,2.4-1.8,5.2-1.2,7.9c0.2,1.1,0.6,2.3,1.2,3.3c-0.6,1.4-2.3,3.4-7,5.2c0.7-0.1,1.4-0.2,2.1-0.2c1.4,0,3.1,0.2,3.9,1.2
		c1.1,1.4-0.6,4.4-6.3,8.7c0,0,9-5.8,12.7-5.8c0.3,0,0.7,0.1,1,0.2c1.9,1.2,2,4.1,0.2,13.3c0,0,3.1-6.4,4.7-6.6c0,0,0,0,0.1,0
		c1.1,0,2.7,2.3,4.6,6c0,0-1.7-6.2-0.6-7.4c0.2-0.2,0.5-0.4,0.8-0.5c1,0.7,2.1,1.2,3.3,1.5c1.2,0.4,2.4,0.5,3.6,0.5
		c0.6,0,1.3,0,1.9-0.1c1.6-0.2,3.1-0.7,4.5-1.4c1.3-0.6,2.5-1.4,3.7-2.2c2.1,1.2,4.5,1.9,7,1.9c0.4,0,0.8,0,1.3-0.1
		c2.4-0.2,4.6-1,6.7-2.2c1.3-0.8,2.5-1.9,3.4-3.2c0.4-0.1,0.7-0.2,1.1-0.2c0.4,0,0.7,0.1,1.1,0.2c2,0.9,4.5,7.1,4.5,7.1
		c-1.1-6.2-1.2-8.3,0.4-9.7c0.3-0.2,0.7-0.3,1-0.3c3.2,0,11.2,4.4,11.2,4.4C256.2,61.4,253.6,58.3,253.6,56.4z M207.3,70.2
		c-0.4,0.4-0.7,1.1-0.5,3.3c-1.4-1.9-2.2-2.2-2.9-2.2h-0.1c-0.6,0.1-1.3,0.5-2,1.4c-0.4,0.4-0.7,0.9-1,1.4c0.3-1.7,0.4-3.3,0.4-5
		c0-0.9-0.1-1.8-0.5-2.7c-0.3-0.7-0.8-1.3-1.4-1.7c-0.4-0.2-0.9-0.4-1.4-0.3c-1.3,0.1-2.6,0.4-3.8,1c-0.9,0.3-1.9,0.8-2.9,1.3
		c0.8-0.9,1.3-1.9,1.5-3c0.1-0.7-0.1-1.4-0.5-1.9c-0.7-0.8-1.7-1.3-2.8-1.4c0.4-0.2,0.8-0.5,1.2-0.8c0.9-0.7,1.7-1.5,2.4-2.5
		c0-0.1,0.1-0.1,0.1-0.2c0.4,0.6,0.8,1.2,1.3,1.7c1.2,1.3,2.7,2.3,4.4,3c1.6,0.7,3.2,1.1,4.9,1.2c0.6,2.7,2.2,5.2,4.3,6.9
		C207.7,69.9,207.5,70,207.3,70.2L207.3,70.2z M221.2,19.9c-1.4,0.8-2.7,1.9-3.8,3.1c-1.7-0.8-3.6-1.2-5.5-1.2c-0.1,0-0.3,0-0.4,0
		c-1.8,0-3.5,0.5-5.1,1.2c0-0.5-0.2-0.9-0.4-1.3c-0.6-0.7-1.2-1.4-2-1.9c0.5-0.1,1.1-0.3,1.6-0.6c1.3-0.5,2.1-1.8,2.2-3.1
		c-0.1-1.2-0.4-2.3-0.9-3.4c0.7,0.8,1.5,1.6,2.3,2.3c2.1,1.8,3.9,2.7,5.8,2.8h0c1.1-0.1,2.1-0.6,2.8-1.3c1-0.8,1.9-1.6,2.8-2.6
		c0.1-0.1,0.2-0.2,0.3-0.3c-0.5,2.2-0.4,3.8,0.4,5c0.2,0.4,0.5,0.7,0.9,0.9l0,0l0.1,0C221.7,19.6,221.4,19.7,221.2,19.9L221.2,19.9z
		 M250.5,61.8c-1,0.9-1.6,2.3-1.5,3.7c0,0.5,0,1,0.1,1.5c-0.9-1.5-1.8-2.4-2.5-2.8c-0.4-0.2-0.9-0.3-1.4-0.3c-0.2,0-0.3,0-0.5,0
		c0.6-1.2,1.1-2.4,1.3-3.7c0.2-1.2,0.3-2.5,0.2-3.7c2.2-0.9,4-2.5,5.1-4.5c0.8,0.2,1.7,0.3,2.5,0.3c0.5,0,1,0,1.5-0.1
		c-0.6,0.6-1.1,1.2-1.6,1.8c-0.5,0.7-0.9,1.5-0.9,2.4c0,0.7,0.2,1.4,0.6,2.1c0.5,0.8,1.1,1.6,1.8,2.4c0.5,0.6,1.1,1.2,1.8,1.8
		c-1.6-0.7-3.2-1.2-5-1.3C251.5,61.2,250.9,61.4,250.5,61.8L250.5,61.8z M251.6,21.5c0.3-0.2,0.3-0.6,0.1-0.8c0,0,0,0,0,0l0,0
		c-0.2-0.2-0.6-0.3-0.8,0c0,0,0,0,0,0l-4.6,5.1L251.6,21.5z M247.2,18.2L247.2,18.2c-0.3-0.2-0.7-0.1-0.8,0.2c0,0,0,0,0,0l-3.3,7.1
		l4.4-6.6C247.6,18.7,247.5,18.4,247.2,18.2C247.2,18.2,247.2,18.2,247.2,18.2L247.2,18.2z M254,25.5c0.3-0.2,0.4-0.5,0.2-0.8
		c0,0,0,0,0,0l0,0c-0.2-0.3-0.6-0.3-0.8-0.1c0,0,0,0,0,0l-8.4,4.6L254,25.5z M184.1,34.5c-0.3-0.1-0.7,0.1-0.7,0.5c0,0,0,0,0,0l0,0
		c-0.1,0.3,0.2,0.6,0.5,0.7c0,0,0,0,0,0l9.2,0.8L184.1,34.5z M184.1,31.5l11.3,3.5l-10.8-4.7c-0.3-0.1-0.7,0-0.8,0.3c0,0,0,0,0,0
		l0,0C183.6,31,183.7,31.3,184.1,31.5C184.1,31.5,184.1,31.5,184.1,31.5L184.1,31.5z M189.8,29.8l3.9,1.9l-2.8-2.7
		c-0.3-0.2-0.7-0.1-0.9,0.1c0,0,0,0,0,0c-0.2,0-0.3,0.2-0.3,0.4C189.7,29.6,189.7,29.7,189.8,29.8L189.8,29.8z M227.7,72.6l1,9.2
		c0.1,0.3,0.4,0.5,0.7,0.5c0.3,0,0.5-0.2,0.5-0.5c0,0,0-0.1,0-0.1L227.7,72.6z M224.9,78.5c0.3,0,0.6-0.3,0.6-0.6c0,0,0,0,0,0
		l0.5-5.1l-1.7,5.1C224.3,78.2,224.5,78.5,224.9,78.5C224.9,78.5,224.9,78.5,224.9,78.5L224.9,78.5z M229.9,71.5l3.8,5.2
		c0.1,0.3,0.5,0.4,0.8,0.3c0.3-0.1,0.4-0.5,0.3-0.8c0,0,0,0,0-0.1L229.9,71.5z"/>
	<g>
		<path id="一些可愛的_家小物辣_拷貝_3_" class="st1" d="M14.2,42.9l-0.3,4.8h28l0.3-4.8H14.2z M70.2,47.7
			c3.1,0,4.3-1.3,5.1-5.8c-1.4-0.3-2.7-0.9-3.8-1.7c-0.3,2.9-0.6,3.4-1.4,3.4h-2.4c-1,0-1.1-0.2-1-1.4l0.2-2.8h6.5l0.3-3.9h-6.5
			l0.3-4.2h-4.4l-0.8,10.9c-0.3,4.1,0.6,5.4,4.4,5.4H70.2z M50.2,53h20.7l0.3-4.2H50.5L50.2,53z M47,48.6c4-0.4,9.5-1,14.5-1.6
			l0.2-4L58,43.4l0.3-4h3.5l0.3-3.9h-3.5l0.3-4.2h-4.3l-0.9,12.5l-1.2,0.1l0.7-9.6h-4l-0.7,9.9l-1.5,0.1L47,48.6z M46.2,59.3h27.6
			l0.3-4.4H46.6L46.2,59.3z M91.8,44.6l-0.3,3.7H87l0.3-3.7H91.8L91.8,44.6z M95.6,52.4l0.8-12H83.3l-1,14.2h4.2l0.2-2.3H95.6
			L95.6,52.4z M108.7,33.3H81.2l-0.3,4.4h19.5l-1.2,16.8c0,0.6-0.3,0.8-1,0.8c-0.7,0-3.5,0-5.5-0.1c0.7,1.5,1.2,3,1.5,4.6
			c3.2,0,5.4-0.1,7.1-0.8c1.6-0.7,2.3-2,2.5-4.4l1.2-16.9h3.4L108.7,33.3z M130,52.1c-0.9,0.6-1.9,1.2-2.9,1.6
			c-1.3-0.4-2.5-0.9-3.6-1.6H130z M118.7,48.2c1.2-1,2.2-2.3,2.9-3.8c-0.1,1.8,0.2,2.8,1.5,3.2c-0.9,0.8-1.9,1.5-3,2.1
			C119.6,49.3,119.1,48.7,118.7,48.2L118.7,48.2z M118.5,41.6h6.5l-0.6,0.6c0.3,0.1,0.7,0.3,1,0.5h-3.7l-0.1,0.8l-2.9-1.3
			c-0.1,0.2-0.2,0.5-0.4,0.7L118.5,41.6z M124.9,36.4c0.3,0.6,0.6,1.3,0.8,1.9H122l1.3-0.5c-0.2-0.7-0.5-1.3-0.9-1.8
			c1.5-0.1,3-0.1,4.4-0.2L124.9,36.4z M127.9,38.3l1.7-0.6c-0.2-0.8-0.5-1.5-0.9-2.1c1.7-0.1,3.4-0.3,5.1-0.5
			c-0.6,1.1-1.2,2.2-1.9,3.2H127.9L127.9,38.3z M136,43.1c-0.5-0.4-1-0.8-1.5-1.2l-3,2.1c0.4,0.3,0.7,0.6,1,0.9
			c-0.9-0.2-1.7-0.5-2.5-1c-0.2,0.9-0.4,1.1-1,1.1h-2.4c-0.9,0-1.1-0.1-1-0.8l0.1-1.4c1,0.5,1.9,1.2,2.7,1.9l2.3-2.4
			c-0.3-0.3-0.7-0.5-1.1-0.8h6.5L136,43.1z M134.1,48.9l-0.7,0.1h-6.7c0.4-0.3,0.7-0.7,1-1h1.6c2.3,0,3.3-0.5,3.8-2.5
			c1,1,1.9,2.1,2.6,3.3l3.3-2.3c-0.4-0.7-1-1.4-1.6-2h2.8l0.4-6.2h-4.5c0.7-0.8,1.4-1.8,2.2-2.8l-2.4-0.7c1.3-0.2,2.5-0.4,3.6-0.6
			l-2.7-2.8c-5.1,1-13.7,1.6-21.2,1.7c0.4,1,0.6,2.1,0.6,3.1c1.2,0,2.4,0,3.7-0.1l-1.6,0.7c0.3,0.5,0.6,1.1,0.8,1.7h-4.7l-0.4,5.7
			h3.5c-0.6,0.8-1.3,1.5-2.1,2.1l2.5,2l-3.2,1.2c0.5,0.7,1,1.4,1.5,2c-0.9,0.3-1.8,0.6-2.7,0.9c1,0.9,1.9,1.8,2.7,2.8
			c0.9-0.3,1.8-0.7,2.7-1.1c0.7,0.5,1.4,1,2.1,1.4c-3,0.5-5.9,0.9-8.9,1c0.9,1.1,1.5,2.3,2,3.6c4.1-0.3,8.1-1.1,12-2.3
			c3.8,1.2,7.7,1.9,11.6,2.2c0.7-1.4,1.7-2.8,2.7-4c-2.8-0.1-5.7-0.4-8.5-0.9c1.8-1.1,3.3-2.5,4.5-4.2L134.1,48.9z M150.6,53
			l0.4-5.2h3.9l-0.4,5.2H150.6L150.6,53z M155.1,44.1h-3.9l0.3-4.1h3.9L155.1,44.1z M166.3,35.9c0.5-1.2,1-2.3,1.4-3.5l-4.1-1
			c-1,3.1-2.4,6.1-4.2,8.8l0.3-4h-4.5c0.6-1.3,1.2-2.8,1.8-4.2l-4.7-0.7c-0.2,1.7-0.6,3.3-1,4.9h-3.4l-1.6,22.7h3.9l0.1-2.1h7.9
			l1-14.3c0.8,0.6,1.6,1.2,2.3,1.9c1.1-1.4,2-2.9,2.9-4.5h5.7c-0.9,9.9-1.6,14.3-2.5,15.3c-0.3,0.4-0.8,0.6-1.4,0.5
			c-0.8,0-2.6,0-4.5-0.2c0.7,1.3,1.1,2.8,1.1,4.2c1.6,0.1,3.3,0.1,4.9-0.1c1.3-0.1,2.5-0.8,3.3-1.9c1.4-1.7,2-6.5,3.3-19.9
			c0.1-0.5,0.2-1.9,0.2-1.9L166.3,35.9L166.3,35.9z M168.3,49.8c-0.8-1.8-2.5-4.6-3.7-6.7l-3.6,1.9c1.3,2.3,2.4,4.6,3.4,7
			L168.3,49.8z M254.1,37.5h17.8l-0.2,3.3h4.5l0.5-7.2h-10.5c-0.3-0.9-0.6-1.8-1-2.6l-4.8,1.3c0.2,0.4,0.3,0.8,0.4,1.3h-10.7
			l-0.5,7.2h4.3L254.1,37.5z M259.7,55.9c-0.7,0-1.4,0-2.4-0.1c1.6-0.7,3.2-1.6,4.7-2.5c-0.1,0.7-0.3,1.3-0.8,1.9
			C260.9,55.6,260.3,56,259.7,55.9L259.7,55.9z M270.7,42.2c-1.7,1.6-3.6,3-5.5,4.3c-0.5-1.2-1.3-2.2-2.2-3.1
			c0.6-0.4,1.2-0.8,1.7-1.3h6.3l0.3-3.7h-16.6l-0.3,3.7h4.1c-2.9,1.3-6,2.2-9.2,2.7c0.8,1.1,1.4,2.2,2,3.4c2.9-0.7,5.7-1.7,8.4-2.9
			c0.2,0.2,0.3,0.4,0.4,0.5c-2.7,1.7-7.7,3.4-11.4,4.1c0.8,1,1.4,2.2,1.9,3.3c3.8-1.2,7.5-2.8,11-4.7c0.1,0.2,0.1,0.4,0.2,0.6
			c-3.2,2.4-9.1,4.9-13.9,5.9c0.8,1.1,1.5,2.3,2,3.6c2.4-0.8,4.8-1.7,7.2-2.8c0.6,1.2,0.9,2.6,0.8,3.9c0.8,0,1.7,0.1,2.4,0
			c1.5,0.1,2.9-0.5,4-1.6c1.6-1.4,2.5-4.7,2-8.1l0.6-0.4c1.1,4,3.1,7,6.4,8.8c0.9-1.3,1.9-2.5,3.1-3.6c-3.2-1.4-5.1-4.2-5.9-7.4
			c1.2-0.8,2.5-1.7,3.6-2.5L270.7,42.2z M294.2,31.7l-1.6,22.8c0,0.6-0.3,0.8-1,0.8c-0.7,0-2.9,0-4.8-0.1c0.7,1.4,1.2,3,1.4,4.5
			c3,0,5.2-0.1,6.8-0.8c1.6-0.7,2.2-1.9,2.4-4.4l1.6-22.8H294.2z M300.8,39.8c2,4.5,3.8,10.2,4.1,13.9l4.9-1.9
			c-0.5-3.8-2.5-9.3-4.6-13.6L300.8,39.8z M285.8,38.5c-0.8,3.9-2.7,9.2-5.2,12.2c1.5,0.6,2.8,1.4,4.1,2.3c2.6-3.3,4.6-9,6-13.6
			L285.8,38.5z M332.4,35.8c0.4-1.2,0.9-2.5,1.2-3.7l-3.9-0.7c-0.8,3.2-2.1,6.2-3.8,9l0.2-3.3h-2.2l0.4-5.6h-4l-0.4,5.6h-0.8
			c0.2-1.1,0.4-2.2,0.6-3.3l-3.6-0.6c-0.5,3.5-1.2,7.2-2.2,9.6c1,0.6,2,1.2,2.9,2c0.5-1.1,0.9-2.3,1.3-3.5h1.6l-0.4,5.2
			c-2,0.5-3.9,1-5.3,1.3l0.7,4.2c1.3-0.4,2.8-0.8,4.3-1.2l-0.7,9.4h4l0.7-10.5c1-0.3,2-0.6,3-0.9l-0.3-3.9l-2.4,0.6l0.3-4.1h1.7
			c-0.4,0.5-0.8,1-1.3,1.5c1.1,0.7,2.1,1.5,3.1,2.4c1.3-1.6,2.5-3.3,3.4-5.2h0.9c-1.6,4.2-4.1,8.3-7.1,10.5c1.2,0.7,2.2,1.5,3.2,2.4
			c3.1-2.8,5.9-8.1,7.5-13h0.8c-2,6.8-5.3,13.3-10.3,16.7c1.2,0.7,2.4,1.5,3.3,2.5c4.3-3.5,7.6-9.6,9.7-16c-0.9,7.8-1.6,11-2.2,11.8
			c-0.2,0.4-0.7,0.6-1.1,0.6c-0.8,0-1.6,0-2.5-0.1c0.6,1.4,0.9,2.8,0.9,4.3c1.2,0.1,2.3,0,3.4-0.2c1.1-0.2,2-0.8,2.6-1.8
			c1.2-1.5,2.1-6.6,3.5-20c0.1-0.5,0.2-1.9,0.2-1.9H332.4L332.4,35.8z M356.1,38.3c-0.5,1.7-1.1,3.4-1.9,5h-2.5l2.3-1
			c-0.4-1.4-0.8-2.7-1.3-4H356.1z M358.8,52.1l0.2-3.5h-3.2l0.1-1.7h3.9l0.2-3.5h-2.4c0.7-1.3,1.5-2.9,2.3-4.4l-2.8-0.6h2.9l0.2-3.5
			h-4.2l1.2-0.5c-0.5-1.1-1.1-2.2-1.8-3.2l-3.6,1.4c0.4,0.7,0.9,1.6,1.2,2.4h-4.2l-0.2,3.5h2.3l-1.7,0.7c0.5,1.4,1,2.8,1.4,4.3h-2.8
			l-0.2,3.5h4.2l-0.1,1.7h-3.3l-0.2,3.5h3.1c-0.5,2.2-2,4-4,4.9c1,0.9,1.9,1.8,2.6,2.9c2.9-1.7,5-4.6,5.6-7.9L358.8,52.1L358.8,52.1
			z M364.4,42.9h1.2l-0.2,2.8h-1.2L364.4,42.9z M371,42.9l-0.2,2.8h-1.2l0.2-2.8H371z M374.6,49l0.7-9.3H370l0.1-1.5h6l0.3-3.7h-6
			l0.2-3.1h-4.2l-0.2,3.1h-5.4l-0.3,3.7h5.4l-0.1,1.5h-5l-0.7,9.3h4c-2,2.8-4.7,5.1-7.7,6.7c1,1,1.9,2.1,2.6,3.2
			c2.2-1.4,4.1-3.1,5.8-5l-0.4,5.9h4.2l0.4-6.1c0.9,1.8,2.2,3.5,3.7,4.9c0.9-1.2,2-2.3,3.1-3.2c-2.3-1.6-4.1-3.8-5.4-6.3L374.6,49
			L374.6,49z"/>
		<path id="一些可愛的_家小物辣_拷貝_1_" class="st2" d="M265.1,30.9c0.4,0.8,0.7,1.7,1,2.6h10.5l-0.5,7.2h-4.5l0.2-3.3
			h-17.8l-0.2,3.3h-4.3l0.5-7.2h10.7c-0.1-0.5-0.3-0.9-0.4-1.3L265.1,30.9 M355.5,31c0.7,1,1.3,2.1,1.8,3.2l-1.2,0.5h4.2l-0.2,3.5
			h-2.9l2.8,0.6c-0.8,1.5-1.6,3.1-2.3,4.4h2.4l-0.2,3.5H356l-0.1,1.7h3.2l-0.2,3.5l0,0h-3.4c-0.7,3.3-2.7,6.2-5.6,7.9
			c-0.7-1.1-1.6-2.1-2.6-2.9c2-0.9,3.5-2.8,4-4.9h-3.1l0.2-3.5h3.3l0.1-1.7h-4.2l0.2-3.5h2.8c-0.4-1.5-0.8-2.9-1.4-4.3l1.7-0.7h-2.3
			l0.2-3.5h4.2c-0.4-0.8-0.8-1.7-1.2-2.4L355.5,31 M351.8,43.3h2.5c0.7-1.6,1.4-3.3,1.9-5h-3.4c0.5,1.3,1,2.7,1.3,4L351.8,43.3
			 M136.9,31.3l2.7,2.8c-1.1,0.2-2.3,0.5-3.6,0.6l2.4,0.7c-0.8,1-1.5,2-2.2,2.8h4.5l-0.4,6.2h-2.8c0.6,0.6,1.1,1.3,1.6,2l-3.3,2.3
			c-0.7-1.2-1.6-2.3-2.6-3.3c-0.6,1.9-1.6,2.5-3.8,2.5h-1.6c-0.3,0.4-0.6,0.7-1,1.1h6.7l0.7-0.1l2.6,1.8c-1.2,1.7-2.8,3.1-4.5,4.2
			c2.8,0.5,5.6,0.8,8.5,0.9c-1.1,1.2-2,2.6-2.7,4c-4-0.2-7.9-0.9-11.6-2.2c-3.9,1.2-7.9,2-12,2.3c-0.5-1.3-1.1-2.5-2-3.6
			c3-0.1,6-0.4,8.9-1c-0.7-0.4-1.4-0.9-2.1-1.4c-0.9,0.4-1.8,0.7-2.7,1.1c-0.8-1-1.7-2-2.7-2.8c0.9-0.2,1.8-0.5,2.7-0.9
			c-0.6-0.6-1.1-1.3-1.5-2l3.2-1.2l-2.5-2c0.8-0.6,1.5-1.3,2.1-2.1h-3.5l0.4-5.7h4.7c-0.2-0.6-0.5-1.1-0.8-1.7L120,36
			c-1.3,0.1-2.5,0.1-3.7,0.1c-0.1-1.1-0.3-2.1-0.6-3.1C123.2,32.8,131.8,32.3,136.9,31.3 M127.9,38.3L127.9,38.3h4
			c0.7-1,1.3-2.1,1.9-3.2c-1.6,0.2-3.3,0.4-5.1,0.5c0.4,0.7,0.7,1.4,0.9,2.1L127.9,38.3 M122,38.3h3.8c-0.2-0.7-0.5-1.3-0.8-1.9
			l1.9-0.7c-1.5,0.1-3,0.2-4.4,0.2c0.4,0.6,0.7,1.2,0.9,1.8L122,38.3 M128.4,44.7c-0.8-0.7-1.7-1.4-2.7-1.9l-0.1,1.4
			c-0.1,0.7,0.1,0.8,1,0.8h2.4c0.7,0,0.9-0.2,1-1.1c0.8,0.4,1.6,0.8,2.5,1c-0.3-0.3-0.7-0.6-1-0.9l3-2.1c0.5,0.4,1,0.8,1.5,1.2
			l0.1-1.6h-6.5c0.4,0.2,0.7,0.5,1.1,0.8L128.4,44.7 M118.4,43c0.1-0.2,0.3-0.5,0.4-0.7l2.9,1.3l0.1-0.8h3.7c-0.3-0.2-0.7-0.3-1-0.5
			l0.6-0.6h-6.5L118.4,43 M120.1,49.7c1.1-0.6,2.1-1.3,3-2.1c-1.3-0.5-1.6-1.4-1.5-3.2c-0.7,1.4-1.7,2.7-2.9,3.8l0,0
			C119.1,48.7,119.6,49.3,120.1,49.7 M127.1,53.7c1-0.4,2-0.9,2.9-1.6h-6.6C124.6,52.8,125.8,53.3,127.1,53.7 M370.6,31.3l-0.2,3.1
			h6l-0.3,3.7h-6l-0.1,1.5h5.2l-0.7,9.3v0h-4.1c1.2,2.5,3.1,4.7,5.4,6.3c-1.2,1-2.2,2-3.1,3.2c-1.5-1.4-2.7-3-3.7-4.9l-0.4,6.1h-4.2
			l0.4-5.9c-1.6,2-3.6,3.7-5.8,5c-0.7-1.2-1.6-2.3-2.6-3.2c3.1-1.6,5.7-3.9,7.7-6.7h-4l0.7-9.3h5l0.1-1.5h-5.4l0.3-3.7h5.4l0.2-3.1
			H370.6 M369.6,45.8h1.2l0.2-2.8h-1.2L369.6,45.8 M364.2,45.8h1.2l0.2-2.8h-1.2L364.2,45.8 M329.8,31.3l3.9,0.7
			c-0.4,1.3-0.8,2.5-1.2,3.7h0h11.1c0,0-0.1,1.4-0.2,1.9c-1.4,13.4-2.3,18.4-3.5,20c-0.6,0.9-1.5,1.6-2.6,1.8
			c-0.8,0.1-1.7,0.2-2.5,0.2c-0.3,0-0.6,0-0.9,0c0-1.5-0.3-2.9-0.9-4.3c0.7,0.1,1.5,0.1,2.2,0.1c0.1,0,0.2,0,0.3,0
			c0.4,0,0.8-0.2,1.1-0.6c0.7-0.8,1.3-4,2.2-11.8c-2.1,6.4-5.3,12.6-9.7,16c-1-1-2.1-1.9-3.3-2.5c5-3.4,8.3-9.9,10.3-16.7h-0.8
			c-1.6,4.8-4.4,10.1-7.5,12.9c-0.9-1-2-1.8-3.2-2.4c3-2.3,5.5-6.4,7.1-10.5h-0.9c-0.9,1.9-2,3.6-3.4,5.2c-1-0.9-2-1.7-3.1-2.4
			c0.4-0.5,0.9-1,1.3-1.5h-1.7l-0.3,4.1l2.4-0.6l0.3,3.8c-1,0.3-2,0.6-3,0.9l-0.7,10.5h-4l0.7-9.4c-1.5,0.5-3,0.9-4.3,1.2l-0.7-4.2
			c1.5-0.3,3.3-0.7,5.3-1.3l0.4-5.2h-1.6c-0.3,1.2-0.8,2.4-1.3,3.5c-0.9-0.7-1.9-1.4-2.9-2c1-2.3,1.7-6.1,2.2-9.6l3.6,0.6
			c-0.2,1.1-0.4,2.2-0.6,3.3h0.8l0.4-5.6h4l-0.4,5.6h2.2l-0.2,3.3C327.7,37.5,329,34.5,329.8,31.3 M152.2,31.3L157,32
			c-0.6,1.5-1.2,3-1.8,4.2h4.4l-0.3,4c1.8-2.7,3.2-5.7,4.2-8.8l4.1,1c-0.4,1.2-0.9,2.3-1.4,3.5l0,0h8.2c0,0-0.1,1.4-0.2,1.9
			c-1.3,13.4-1.9,18.2-3.3,19.9c-0.8,1.1-2,1.8-3.3,1.9c-1,0.1-2.1,0.2-3.1,0.2c-0.6,0-1.2,0-1.8-0.1c0-1.5-0.4-2.9-1.1-4.2
			c1.9,0.2,3.7,0.2,4.5,0.2c0,0,0.1,0,0.1,0c0.5,0,0.9-0.2,1.2-0.5c0.9-0.9,1.6-5.4,2.5-15.3h-5.7c-0.8,1.6-1.8,3.1-2.9,4.5
			c-0.7-0.7-1.5-1.3-2.3-1.9l-1,14.3h-7.9l-0.1,2.1h-3.9l1.6-22.7h3.4C151.7,34.6,152,33,152.2,31.3 M151.2,44.1h3.9l0.3-4.1h-3.9
			L151.2,44.1 M150.6,53h3.9l0.4-5.2h-3.9L150.6,53L150.6,53 M67.5,31.3l-0.3,4.2h6.5l-0.3,3.9h-6.5l-0.2,2.8c-0.1,1.2,0,1.4,1,1.4
			h2.4c0.9,0,1.1-0.5,1.4-3.4c1.2,0.8,2.5,1.4,3.8,1.7c-0.8,4.5-2.1,5.8-5.1,5.8h-3.5c-3.9,0-4.7-1.3-4.4-5.4l0.8-10.9H67.5
			 M58.8,31.3l-0.3,4.2H62l-0.3,3.9h-3.5l-0.3,4l3.8-0.4l-0.2,4C56.5,47.6,51,48.2,47,48.6l-0.1-4.3l1.5-0.1l0.7-9.9h4l-0.7,9.6
			l1.2-0.1l0.9-12.5H58.8 M299,31.7l-1.6,22.8c-0.2,2.5-0.8,3.7-2.4,4.4c-1.5,0.6-3.5,0.8-6.1,0.8c-0.2,0-0.4,0-0.6,0
			c-0.3-1.6-0.7-3.1-1.4-4.5c1.2,0.1,2.7,0.1,3.7,0.1c0.5,0,0.9,0,1.1,0c0.7,0,0.9-0.2,1-0.8l1.6-22.8H299 M108.7,33.3l-0.3,4.4H105
			l-1.2,16.9c-0.2,2.5-0.8,3.7-2.5,4.4c-1.7,0.7-4,0.8-7.1,0.8c-0.3-1.6-0.8-3.2-1.5-4.6c1.4,0.1,3.1,0.1,4.3,0.1c0.5,0,1,0,1.2,0
			c0.7,0,1-0.2,1.1-0.8l1.2-16.8H80.9l0.3-4.4H108.7 M305.2,38.2c2.1,4.3,4.1,9.7,4.6,13.6l-4.9,1.9c-0.3-3.7-2.1-9.4-4.1-13.9
			L305.2,38.2 M271.2,38.5l-0.3,3.7h-6.3c-0.5,0.5-1.1,0.9-1.7,1.3c0.9,0.9,1.6,2,2.2,3.2c1.9-1.3,3.8-2.8,5.5-4.3l3.4,2.9
			c-1.1,0.8-2.4,1.7-3.6,2.5c0.9,3.2,2.8,6,5.9,7.4c-1.2,1-2.2,2.2-3.1,3.6c-3.4-1.7-5.3-4.8-6.4-8.8l-0.6,0.4
			c0.5,3.5-0.4,6.8-2,8.1c-1,1-2.3,1.6-3.7,1.6c-0.1,0-0.2,0-0.3,0c-0.2,0-0.4,0-0.6,0c-0.5,0-1.1,0-1.7,0c0-1.4-0.3-2.7-0.8-3.9
			c-2.3,1.1-4.7,2-7.2,2.8c-0.5-1.3-1.2-2.5-2-3.6c4.8-1,10.7-3.5,13.9-5.9c0-0.2-0.1-0.4-0.2-0.6c-3.5,2-7.2,3.5-11,4.7
			c-0.5-1.2-1.1-2.3-1.9-3.3c3.8-0.7,8.7-2.5,11.4-4.1c-0.1-0.2-0.3-0.4-0.4-0.5c-2.7,1.3-5.5,2.2-8.4,2.9c-0.5-1.2-1.2-2.3-2-3.4
			c3.2-0.5,6.2-1.4,9.2-2.7h-4.1l0.3-3.7H271.2 M259.9,55.9c0.6,0,1.1-0.3,1.3-0.8c0.4-0.5,0.7-1.2,0.8-1.9
			c-1.5,0.9-3.1,1.8-4.7,2.5c0.9,0.1,1.7,0.1,2.4,0.1l0,0C259.7,55.9,259.8,55.9,259.9,55.9 M285.8,38.5l4.9,0.8
			c-1.3,4.6-3.3,10.3-6,13.6c-1.3-0.9-2.7-1.7-4.1-2.3C283.1,47.7,285,42.4,285.8,38.5 M96.4,40.5l-0.8,12h0h-8.9l-0.2,2.3h-4.2
			l1-14.2H96.4 M87,48.3h4.5l0.3-3.7h0h-4.5L87,48.3 M42.2,42.9l-0.3,4.8h-28l0.3-4.8H42.2 M164.6,43.2c1.2,2,3,4.9,3.7,6.7
			l-3.9,2.3c-1-2.4-2.2-4.7-3.4-7L164.6,43.2 M71.2,48.8L70.9,53H50.2l0.3-4.2H71.2 M74.2,54.9l-0.3,4.4H46.2l0.3-4.4H74.2
			 M356.7,27.3l-2.3,0.9l-3.6,1.4l-3.3,1.3l0.5,0.9h-1.9l-0.1,1h-2.6h-7l0.9-3.1l-3.2-0.6l-3.9-0.7l-2.8-0.5l-0.1,0.5h-2.9h-4h-2.8
			l-0.1,1.9l-0.8-0.1l-3.1-0.5l-0.4,3.1c-0.5,3.9-1.2,7-2,8.7l-0.7,1.7c-1-2.8-2.1-5.2-2.6-6.2l-1.2-2.4l-2.5,0.9l-2.5,0.9L302,32
			l0.2-3.2H299h-4.8h-2.8l-0.2,2.8l-0.3,4.8l-4.5-0.8l-2.8-0.5l-0.6,2.8c-0.8,3.7-2.5,8.4-4.6,10.9l-2.1,2.6c-1-0.7-1.6-1.7-2.1-2.6
			c0.6-0.4,1.2-0.8,1.8-1.3l3-2.3l-1.7-1.5h1.7l0.2-2.8l0.5-7.2l0.2-3.2h-3.2h-8.4c-0.1-0.3-0.3-0.6-0.4-0.9l-1.1-2.3l-2.4,0.7
			l-4.8,1.3l-3.2,0.9l0.1,0.3h-6.4h-2.8l-0.2,2.8l-0.5,7.2l-0.1,1.7l-2.4,0.4l2.8,3.9c0.1,0.2,0.3,0.4,0.4,0.6l-3.9,0.7l2.8,3.8
			c0.1,0.2,0.3,0.4,0.4,0.6l-4,0.8l2.8,3.8c0.7,0.9,1.2,1.8,1.6,2.9l1,2.6l2.7-0.8c1.4-0.4,2.7-0.9,4.1-1.5l-0.1,2.6l2.9,0.1
			c0.6,0,1.3,0,1.9,0c0.2,0,0.4,0,0.6,0c0.1,0,0.2,0,0.3,0c2.2,0,4.3-0.9,5.8-2.4c0.7-0.6,1.2-1.4,1.7-2.2c1.1,1.2,2.4,2.2,3.9,3
			l2.4,1.3l1.5-2.3c0.7-1.1,1.6-2.1,2.5-2.9l3.2-2.7c0.5,0.3,1,0.6,1.5,1l0.8,0.5l0.3,0.6c0.6,1.2,1,2.4,1.2,3.7l0.4,2.5l2.5,0
			c0.2,0,0.5,0,0.7,0c2.5,0,5.2-0.1,7.3-1.1l0,0l0,0c3.3-1.5,3.9-4.4,4.1-6.9l0.4-6.2c0.6,2.1,1,3.9,1.1,5.3l0.3,4l3.7-1.4l4.9-1.9
			l1.3-0.5l0.2,1.4l3.2-0.9c0.1,0,0.2,0,0.2-0.1l-0.4,5.1l-0.2,3.2h3.2h4h2.8l0.2-2.8l0-0.1c0.5,0.4,0.9,0.7,1.4,1.2l1.9,2l2.1-1.6
			l0,1l2.8,0.2c0.4,0,0.7,0,1.1,0c1,0,2-0.1,3-0.3c1.9-0.3,3.5-1.4,4.6-3c0.3-0.5,0.7-1,0.9-1.8l2,1.8c0.8,0.7,1.4,1.4,2,2.3
			l1.6,2.4l2.5-1.5c1.6-0.9,3-2.2,4.1-3.6c0.4,0.5,0.8,1,1.1,1.5l1.6,2.6l2.6-1.6c0.2-0.1,0.4-0.3,0.7-0.4l-0.1,1.8h3.2h4.2h2.8
			l0.1-1.3l1.6,1.5l2-2.7c0.8-1,1.7-1.9,2.6-2.7l3-2.5l-3.2-2.3c-0.4-0.3-0.8-0.6-1.1-0.9h0.9l0.2-2.8l0.6-8.1h0.8l0.2-2.8l0.3-3.7
			l0.2-3.2h-3.2h-2.8l0.2-3.1h-3.2h-4.2h-2.8l-0.2,2.8l0,0.3h-2.6h-1.5c-0.4-0.7-0.8-1.4-1.2-2.1L356.7,27.3L356.7,27.3z
			 M311.3,45.1c-0.1-0.3-0.2-0.5-0.3-0.8l1,0.6L311.3,45.1L311.3,45.1z M344.9,49.9h0.4l-0.1,2.1l-0.2,2.9l-1,0.5
			C344.2,53.9,344.6,52.2,344.9,49.9L344.9,49.9z M288.8,52.4c0.3-0.6,0.7-1.2,1-1.9l-0.1,2C289.4,52.4,289.1,52.4,288.8,52.4
			L288.8,52.4z M161.5,27.8l-0.5,1.7l-3.6-0.5l-4.7-0.7l-3-0.4l-0.4,3c-0.1,0.8-0.2,1.6-0.4,2.3h-1.1H145l-0.1,2.1l-3.1-3.2
			l-2.7-2.8L138,28l-1.6,0.3c-4.3,0.9-12.3,1.5-20.7,1.6l-4.2,0.1l0.1,0.3h-2.9H81.2h-2.8l-0.2,2.8l-0.3,4.4l-0.1,1.9l-1.3-0.3
			l0.2-3.3l0.2-3.2h-3.2h-3.3l0.1-1l0.2-3.2h-3.2h-4.4H62h-3.2h-4.3h-2.8l-0.2,2.8l0,0.2h-2.4h-2.8l-0.2,2.8l-0.5,7.3l-0.3,0
			l0.1-1.5h-3.2h-28h-2.8l-0.2,2.8l-0.3,4.8l-0.2,3.2h3.2h28h2.2l0,1.2h-0.4l-0.2,2.8l-0.3,4.4L43,62.3h3.2h27.6h2.8l0.2-2.8
			l0.3-4.4l0.2-3.2h-3.2H74l0.2-2.2c2.7-1.4,3.6-4.4,4.1-7.4l0.3-1.7h1.7l-1,13.8l-0.2,3.2h3.2h4.2h2.8l0.2-2.2l0.5,1
			c0.6,1.2,1,2.5,1.2,3.8l0.4,2.5h2.5c3.3,0,6-0.1,8.3-1.1c3.5-1.5,4.1-4.7,4.3-7l0-0.6l3.1,4c0.6,0.8,1.2,1.7,1.5,2.7l0.8,2.2
			l2.3-0.2c4-0.3,7.9-1,11.7-2.1c3.7,1.1,7.6,1.8,11.5,2l2,0.1l0.9-1.7c0.6-1.2,1.4-2.4,2.3-3.4l0.4-0.5l-0.1,1.3l-0.2,3.2h3.2h3.9
			h2.8l0.1-2.1h5.1h1.6c0,0,0,0,0,0l0.1,2.7l2.7,0.2c0.7,0,1.3,0.1,2,0.1c1.1,0,2.3-0.1,3.4-0.2c2.1-0.2,4.1-1.3,5.4-3.1
			c1.9-2.3,2.5-6.5,3.9-21.4c0.1-0.6,0.2-1.8,0.2-2l0.2-3.2h-3.2h-3.8l0.9-2.7l-3.2-0.8l-4.1-1L161.5,27.8L161.5,27.8z M107.8,40.7
			h0.6h2.8l0.2-2.8l0.3-4.4l0.2-2.5l1,2.9c0.2,0.4,0.3,0.9,0.4,1.4h-1.4l-0.2,2.8l-0.4,5.7l-0.1,1.9l-0.4,0.3l0.3,0.3L111,47h1
			l0.2,0.2l-1.7,0.7l1.2,1.9l-4,1.1l3,2.7l-3.8,0.1L107.8,40.7L107.8,40.7z M143.9,36.3l0.9-0.2L143.6,53l-2.9-0.1
			c-0.6,0-1.2-0.1-1.8-0.1c0.1-0.1,0.1-0.2,0.2-0.3l1.8-2.5l-0.8-0.6l0.7-0.5l2-1.5h0.2l0.2-2.8l0.4-6.2L143.9,36.3L143.9,36.3z
			 M44.4,51.9l3-0.3l0,0.3h-0.7H44.4L44.4,51.9z"/>
	</g>
	<g>
		<path id="一些可愛的_家小物辣__3_" class="st1" d="M14.2,42.9l-0.3,4.8h28l0.3-4.8H14.2z M70.2,47.7
			c3.1,0,4.3-1.3,5.1-5.8c-1.4-0.3-2.7-0.9-3.8-1.7c-0.3,2.9-0.6,3.4-1.4,3.4h-2.4c-1,0-1.1-0.2-1-1.4l0.2-2.8h6.5l0.3-3.9h-6.5
			l0.3-4.2h-4.4l-0.8,10.9c-0.3,4.1,0.6,5.4,4.4,5.4H70.2z M50.2,53h20.7l0.3-4.2H50.5L50.2,53z M47,48.6c4-0.4,9.5-1,14.5-1.6
			l0.2-4L58,43.4l0.3-4h3.5l0.3-3.9h-3.5l0.3-4.2h-4.3l-0.9,12.5l-1.2,0.1l0.7-9.6h-4l-0.7,9.9l-1.5,0.1L47,48.6z M46.2,59.3h27.6
			l0.3-4.4H46.6L46.2,59.3z M91.8,44.6l-0.3,3.7H87l0.3-3.7H91.8L91.8,44.6z M95.6,52.4l0.8-12H83.3l-1,14.2h4.2l0.2-2.3H95.6
			L95.6,52.4z M108.7,33.3H81.2l-0.3,4.4h19.5l-1.2,16.8c0,0.6-0.3,0.8-1,0.8c-0.7,0-3.5,0-5.5-0.1c0.7,1.5,1.2,3,1.5,4.6
			c3.2,0,5.4-0.1,7.1-0.8c1.6-0.7,2.3-2,2.5-4.4l1.2-16.9h3.4L108.7,33.3z M130,52.1c-0.9,0.6-1.9,1.2-2.9,1.6
			c-1.3-0.4-2.5-0.9-3.6-1.6H130z M118.7,48.2c1.2-1,2.2-2.3,2.9-3.8c-0.1,1.8,0.2,2.8,1.5,3.2c-0.9,0.8-1.9,1.5-3,2.1
			C119.6,49.3,119.1,48.7,118.7,48.2L118.7,48.2z M118.5,41.6h6.5l-0.6,0.6c0.3,0.1,0.7,0.3,1,0.5h-3.7l-0.1,0.8l-2.9-1.3
			c-0.1,0.2-0.2,0.5-0.4,0.7L118.5,41.6z M124.9,36.4c0.3,0.6,0.6,1.3,0.8,1.9H122l1.3-0.5c-0.2-0.7-0.5-1.3-0.9-1.8
			c1.5-0.1,3-0.1,4.4-0.2L124.9,36.4z M127.9,38.3l1.7-0.6c-0.2-0.8-0.5-1.5-0.9-2.1c1.7-0.1,3.4-0.3,5.1-0.5
			c-0.6,1.1-1.2,2.2-1.9,3.2H127.9L127.9,38.3z M136,43.1c-0.5-0.4-1-0.8-1.5-1.2l-3,2.1c0.4,0.3,0.7,0.6,1,0.9
			c-0.9-0.2-1.7-0.5-2.5-1c-0.2,0.9-0.4,1.1-1,1.1h-2.4c-0.9,0-1.1-0.1-1-0.8l0.1-1.4c1,0.5,1.9,1.2,2.7,1.9l2.3-2.4
			c-0.3-0.3-0.7-0.5-1.1-0.8h6.5L136,43.1z M134.1,48.9l-0.7,0.1h-6.7c0.4-0.3,0.7-0.7,1-1h1.6c2.3,0,3.3-0.5,3.8-2.5
			c1,1,1.9,2.1,2.6,3.3l3.3-2.3c-0.4-0.7-1-1.4-1.6-2h2.8l0.4-6.2h-4.5c0.7-0.8,1.4-1.8,2.2-2.8l-2.4-0.7c1.3-0.2,2.5-0.4,3.6-0.6
			l-2.7-2.8c-5.1,1-13.7,1.6-21.2,1.7c0.4,1,0.6,2.1,0.6,3.1c1.2,0,2.4,0,3.7-0.1l-1.6,0.7c0.3,0.5,0.6,1.1,0.8,1.7h-4.7l-0.4,5.7
			h3.5c-0.6,0.8-1.3,1.5-2.1,2.1l2.5,2l-3.2,1.2c0.5,0.7,1,1.4,1.5,2c-0.9,0.3-1.8,0.6-2.7,0.9c1,0.9,1.9,1.8,2.7,2.8
			c0.9-0.3,1.8-0.7,2.7-1.1c0.7,0.5,1.4,1,2.1,1.4c-3,0.5-5.9,0.9-8.9,1c0.9,1.1,1.5,2.3,2,3.6c4.1-0.3,8.1-1.1,12-2.3
			c3.8,1.2,7.7,1.9,11.6,2.2c0.7-1.4,1.7-2.8,2.7-4c-2.8-0.1-5.7-0.4-8.5-0.9c1.8-1.1,3.3-2.5,4.5-4.2L134.1,48.9z M150.6,53
			l0.4-5.2h3.9l-0.4,5.2H150.6L150.6,53z M155.1,44.1h-3.9l0.3-4.1h3.9L155.1,44.1z M166.3,35.9c0.5-1.2,1-2.3,1.4-3.5l-4.1-1
			c-1,3.1-2.4,6.1-4.2,8.8l0.3-4h-4.5c0.6-1.3,1.2-2.8,1.8-4.2l-4.7-0.7c-0.2,1.7-0.6,3.3-1,4.9h-3.4l-1.6,22.7h3.9l0.1-2.1h7.9
			l1-14.3c0.8,0.6,1.6,1.2,2.3,1.9c1.1-1.4,2-2.9,2.9-4.5h5.7c-0.9,9.9-1.6,14.3-2.5,15.3c-0.3,0.4-0.8,0.6-1.4,0.5
			c-0.8,0-2.6,0-4.5-0.2c0.7,1.3,1.1,2.8,1.1,4.2c1.6,0.1,3.3,0.1,4.9-0.1c1.3-0.1,2.5-0.8,3.3-1.9c1.4-1.7,2-6.5,3.3-19.9
			c0.1-0.5,0.2-1.9,0.2-1.9L166.3,35.9L166.3,35.9z M168.3,49.8c-0.8-1.8-2.5-4.6-3.7-6.7l-3.6,1.9c1.3,2.3,2.4,4.6,3.4,7
			L168.3,49.8z M254.1,37.5h17.8l-0.2,3.3h4.5l0.5-7.2h-10.5c-0.3-0.9-0.6-1.8-1-2.6l-4.8,1.3c0.2,0.4,0.3,0.8,0.4,1.3h-10.7
			l-0.5,7.2h4.3L254.1,37.5z M259.7,55.9c-0.7,0-1.4,0-2.4-0.1c1.6-0.7,3.2-1.6,4.7-2.5c-0.1,0.7-0.3,1.3-0.8,1.9
			C260.9,55.6,260.3,56,259.7,55.9L259.7,55.9z M270.7,42.2c-1.7,1.6-3.6,3-5.5,4.3c-0.5-1.2-1.3-2.2-2.2-3.1
			c0.6-0.4,1.2-0.8,1.7-1.3h6.3l0.3-3.7h-16.6l-0.3,3.7h4.1c-2.9,1.3-6,2.2-9.2,2.7c0.8,1.1,1.4,2.2,2,3.4c2.9-0.7,5.7-1.7,8.4-2.9
			c0.2,0.2,0.3,0.4,0.4,0.5c-2.7,1.7-7.7,3.4-11.4,4.1c0.8,1,1.4,2.2,1.9,3.3c3.8-1.2,7.5-2.8,11-4.7c0.1,0.2,0.1,0.4,0.2,0.6
			c-3.2,2.4-9.1,4.9-13.9,5.9c0.8,1.1,1.5,2.3,2,3.6c2.4-0.8,4.8-1.7,7.2-2.8c0.6,1.2,0.9,2.6,0.8,3.9c0.8,0,1.7,0.1,2.4,0
			c1.5,0.1,2.9-0.5,4-1.6c1.6-1.4,2.5-4.7,2-8.1l0.6-0.4c1.1,4,3.1,7,6.4,8.8c0.9-1.3,1.9-2.5,3.1-3.6c-3.2-1.4-5.1-4.2-5.9-7.4
			c1.2-0.8,2.5-1.7,3.6-2.5L270.7,42.2z M294.2,31.7l-1.6,22.8c0,0.6-0.3,0.8-1,0.8c-0.7,0-2.9,0-4.8-0.1c0.7,1.4,1.2,3,1.4,4.5
			c3,0,5.2-0.1,6.8-0.8c1.6-0.7,2.2-1.9,2.4-4.4l1.6-22.8H294.2z M300.8,39.8c2,4.5,3.8,10.2,4.1,13.9l4.9-1.9
			c-0.5-3.8-2.5-9.3-4.6-13.6L300.8,39.8z M285.8,38.5c-0.8,3.9-2.7,9.2-5.2,12.2c1.5,0.6,2.8,1.4,4.1,2.3c2.6-3.3,4.6-9,6-13.6
			L285.8,38.5z M332.4,35.8c0.4-1.2,0.9-2.5,1.2-3.7l-3.9-0.7c-0.8,3.2-2.1,6.2-3.8,9l0.2-3.3h-2.2l0.4-5.6h-4l-0.4,5.6h-0.8
			c0.2-1.1,0.4-2.2,0.6-3.3l-3.6-0.6c-0.5,3.5-1.2,7.2-2.2,9.6c1,0.6,2,1.2,2.9,2c0.5-1.1,0.9-2.3,1.3-3.5h1.6l-0.4,5.2
			c-2,0.5-3.9,1-5.3,1.3l0.7,4.2c1.3-0.4,2.8-0.8,4.3-1.2l-0.7,9.4h4l0.7-10.5c1-0.3,2-0.6,3-0.9l-0.3-3.9l-2.4,0.6l0.3-4.1h1.7
			c-0.4,0.5-0.8,1-1.3,1.5c1.1,0.7,2.1,1.5,3.1,2.4c1.3-1.6,2.5-3.3,3.4-5.2h0.9c-1.6,4.2-4.1,8.3-7.1,10.5c1.2,0.7,2.2,1.5,3.2,2.4
			c3.1-2.8,5.9-8.1,7.5-13h0.8c-2,6.8-5.3,13.3-10.3,16.7c1.2,0.7,2.4,1.5,3.3,2.5c4.3-3.5,7.6-9.6,9.7-16c-0.9,7.8-1.6,11-2.2,11.8
			c-0.2,0.4-0.7,0.6-1.1,0.6c-0.8,0-1.6,0-2.5-0.1c0.6,1.4,0.9,2.8,0.9,4.3c1.2,0.1,2.3,0,3.4-0.2c1.1-0.2,2-0.8,2.6-1.8
			c1.2-1.5,2.1-6.6,3.5-20c0.1-0.5,0.2-1.9,0.2-1.9H332.4L332.4,35.8z M356.1,38.3c-0.5,1.7-1.1,3.4-1.9,5h-2.5l2.3-1
			c-0.4-1.4-0.8-2.7-1.3-4H356.1z M358.8,52.1l0.2-3.5h-3.2l0.1-1.7h3.9l0.2-3.5h-2.4c0.7-1.3,1.5-2.9,2.3-4.4l-2.8-0.6h2.9l0.2-3.5
			h-4.2l1.2-0.5c-0.5-1.1-1.1-2.2-1.8-3.2l-3.6,1.4c0.4,0.7,0.9,1.6,1.2,2.4h-4.2l-0.2,3.5h2.3l-1.7,0.7c0.5,1.4,1,2.8,1.4,4.3h-2.8
			l-0.2,3.5h4.2l-0.1,1.7h-3.3l-0.2,3.5h3.1c-0.5,2.2-2,4-4,4.9c1,0.9,1.9,1.8,2.6,2.9c2.9-1.7,5-4.6,5.6-7.9L358.8,52.1L358.8,52.1
			z M364.4,42.9h1.2l-0.2,2.8h-1.2L364.4,42.9z M371,42.9l-0.2,2.8h-1.2l0.2-2.8H371z M374.6,49l0.7-9.3H370l0.1-1.5h6l0.3-3.7h-6
			l0.2-3.1h-4.2l-0.2,3.1h-5.4l-0.3,3.7h5.4l-0.1,1.5h-5l-0.7,9.3h4c-2,2.8-4.7,5.1-7.7,6.7c1,1,1.9,2.1,2.6,3.2
			c2.2-1.4,4.1-3.1,5.8-5l-0.4,5.9h4.2l0.4-6.1c0.9,1.8,2.2,3.5,3.7,4.9c0.9-1.2,2-2.3,3.1-3.2c-2.3-1.6-4.1-3.8-5.4-6.3L374.6,49
			L374.6,49z"/>
		<path id="一些可愛的_家小物辣__1_" class="st3" d="M265.1,30.9c0.4,0.8,0.7,1.7,1,2.6h10.5l-0.5,7.2h-4.5l0.2-3.3h-17.8
			l-0.2,3.3h-4.3l0.5-7.2h10.7c-0.1-0.5-0.3-0.9-0.4-1.3L265.1,30.9 M355.5,31c0.7,1,1.3,2.1,1.8,3.2l-1.2,0.5h4.2l-0.2,3.5h-2.9
			l2.8,0.6c-0.8,1.5-1.6,3.1-2.3,4.4h2.4l-0.2,3.5H356l-0.1,1.7h3.2l-0.2,3.5l0,0h-3.4c-0.7,3.3-2.7,6.2-5.6,7.9
			c-0.7-1.1-1.6-2.1-2.6-2.9c2-0.9,3.5-2.8,4-4.9h-3.1l0.2-3.5h3.3l0.1-1.7h-4.2l0.2-3.5h2.8c-0.4-1.5-0.8-2.9-1.4-4.3l1.7-0.7h-2.3
			l0.2-3.5h4.2c-0.4-0.8-0.8-1.7-1.2-2.4L355.5,31 M351.8,43.3h2.5c0.7-1.6,1.4-3.3,1.9-5h-3.4c0.5,1.3,1,2.7,1.3,4L351.8,43.3
			 M136.9,31.3l2.7,2.8c-1.1,0.2-2.3,0.5-3.6,0.6l2.4,0.7c-0.8,1-1.5,2-2.2,2.8h4.5l-0.4,6.2h-2.8c0.6,0.6,1.1,1.3,1.6,2l-3.3,2.3
			c-0.7-1.2-1.6-2.3-2.6-3.3c-0.6,1.9-1.6,2.5-3.8,2.5h-1.6c-0.3,0.4-0.6,0.7-1,1.1h6.7l0.7-0.1l2.6,1.8c-1.2,1.7-2.8,3.1-4.5,4.2
			c2.8,0.5,5.6,0.8,8.5,0.9c-1.1,1.2-2,2.6-2.7,4c-4-0.2-7.9-0.9-11.6-2.2c-3.9,1.2-7.9,2-12,2.3c-0.5-1.3-1.1-2.5-2-3.6
			c3-0.1,6-0.4,8.9-1c-0.7-0.4-1.4-0.9-2.1-1.4c-0.9,0.4-1.8,0.7-2.7,1.1c-0.8-1-1.7-2-2.7-2.8c0.9-0.2,1.8-0.5,2.7-0.9
			c-0.6-0.6-1.1-1.3-1.5-2l3.2-1.2l-2.5-2c0.8-0.6,1.5-1.3,2.1-2.1h-3.5l0.4-5.7h4.7c-0.2-0.6-0.5-1.1-0.8-1.7L120,36
			c-1.3,0.1-2.5,0.1-3.7,0.1c-0.1-1.1-0.3-2.1-0.6-3.1C123.2,32.8,131.8,32.3,136.9,31.3 M127.9,38.3L127.9,38.3h4
			c0.7-1,1.3-2.1,1.9-3.2c-1.6,0.2-3.3,0.4-5.1,0.5c0.4,0.7,0.7,1.4,0.9,2.1L127.9,38.3 M122,38.3h3.8c-0.2-0.7-0.5-1.3-0.8-1.9
			l1.9-0.7c-1.5,0.1-3,0.2-4.4,0.2c0.4,0.6,0.7,1.2,0.9,1.8L122,38.3 M128.4,44.7c-0.8-0.7-1.7-1.4-2.7-1.9l-0.1,1.4
			c-0.1,0.7,0.1,0.8,1,0.8h2.4c0.7,0,0.9-0.2,1-1.1c0.8,0.4,1.6,0.8,2.5,1c-0.3-0.3-0.7-0.6-1-0.9l3-2.1c0.5,0.4,1,0.8,1.5,1.2
			l0.1-1.6h-6.5c0.4,0.2,0.7,0.5,1.1,0.8L128.4,44.7 M118.4,43c0.1-0.2,0.3-0.5,0.4-0.7l2.9,1.3l0.1-0.8h3.7c-0.3-0.2-0.7-0.3-1-0.5
			l0.6-0.6h-6.5L118.4,43 M120.1,49.7c1.1-0.6,2.1-1.3,3-2.1c-1.3-0.5-1.6-1.4-1.5-3.2c-0.7,1.4-1.7,2.7-2.9,3.8l0,0
			C119.1,48.7,119.6,49.3,120.1,49.7 M127.1,53.7c1-0.4,2-0.9,2.9-1.6h-6.6C124.6,52.8,125.8,53.3,127.1,53.7 M370.6,31.3l-0.2,3.1
			h6l-0.3,3.7h-6l-0.1,1.5h5.2l-0.7,9.3v0h-4.1c1.2,2.5,3.1,4.7,5.4,6.3c-1.2,1-2.2,2-3.1,3.2c-1.5-1.4-2.7-3-3.7-4.9l-0.4,6.1h-4.2
			l0.4-5.9c-1.6,2-3.6,3.7-5.8,5c-0.7-1.2-1.6-2.3-2.6-3.2c3.1-1.6,5.7-3.9,7.7-6.7h-4l0.7-9.3h5l0.1-1.5h-5.4l0.3-3.7h5.4l0.2-3.1
			H370.6 M369.6,45.8h1.2l0.2-2.8h-1.2L369.6,45.8 M364.2,45.8h1.2l0.2-2.8h-1.2L364.2,45.8 M329.8,31.3l3.9,0.7
			c-0.4,1.3-0.8,2.5-1.2,3.7h0h11.1c0,0-0.1,1.4-0.2,1.9c-1.4,13.4-2.3,18.4-3.5,20c-0.6,0.9-1.5,1.6-2.6,1.8
			c-0.8,0.1-1.7,0.2-2.5,0.2c-0.3,0-0.6,0-0.9,0c0-1.5-0.3-2.9-0.9-4.3c0.7,0.1,1.5,0.1,2.2,0.1c0.1,0,0.2,0,0.3,0
			c0.4,0,0.8-0.2,1.1-0.6c0.7-0.8,1.3-4,2.2-11.8c-2.1,6.4-5.3,12.6-9.7,16c-1-1-2.1-1.9-3.3-2.5c5-3.4,8.3-9.9,10.3-16.7h-0.8
			c-1.6,4.8-4.4,10.1-7.5,13c-0.9-1-2-1.8-3.2-2.4c3-2.3,5.5-6.4,7.1-10.5h-0.9c-0.9,1.9-2,3.6-3.4,5.2c-1-0.9-2-1.7-3.1-2.4
			c0.4-0.5,0.9-1,1.3-1.5h-1.7l-0.3,4.1l2.4-0.6l0.3,3.8c-1,0.3-2,0.6-3,0.9l-0.7,10.5h-4l0.7-9.4c-1.5,0.5-3,0.9-4.3,1.2l-0.7-4.2
			c1.5-0.3,3.3-0.7,5.3-1.3l0.4-5.2h-1.6c-0.3,1.2-0.8,2.4-1.3,3.5c-0.9-0.7-1.9-1.4-2.9-2c1-2.3,1.7-6.1,2.2-9.6l3.6,0.6
			c-0.2,1.1-0.4,2.2-0.6,3.3h0.8l0.4-5.6h4l-0.4,5.6h2.2l-0.2,3.3C327.7,37.5,329,34.5,329.8,31.3 M152.2,31.3L157,32
			c-0.6,1.5-1.2,3-1.8,4.2h4.4l-0.3,4c1.8-2.7,3.2-5.7,4.2-8.8l4.1,1c-0.4,1.2-0.9,2.3-1.4,3.5l0,0h8.2c0,0-0.1,1.4-0.2,1.9
			c-1.3,13.4-1.9,18.2-3.3,19.9c-0.8,1.1-2,1.8-3.3,1.9c-1,0.1-2.1,0.2-3.1,0.2c-0.6,0-1.2,0-1.8-0.1c0-1.5-0.4-2.9-1.1-4.2
			c1.9,0.2,3.7,0.2,4.5,0.2c0,0,0.1,0,0.1,0c0.5,0,0.9-0.2,1.2-0.5c0.9-0.9,1.6-5.4,2.5-15.3h-5.7c-0.8,1.6-1.8,3.1-2.9,4.5
			c-0.7-0.7-1.5-1.3-2.3-1.9l-1,14.3h-7.9l-0.1,2.1h-3.9l1.6-22.7h3.4C151.7,34.6,152,33,152.2,31.3 M151.2,44.1h3.9l0.3-4.1h-3.9
			L151.2,44.1 M150.6,53h3.9l0.4-5.2h-3.9L150.6,53L150.6,53 M67.5,31.3l-0.3,4.2h6.5l-0.3,3.9h-6.5l-0.2,2.8c-0.1,1.2,0,1.4,1,1.4
			h2.4c0.9,0,1.1-0.5,1.4-3.4c1.2,0.8,2.5,1.4,3.8,1.7c-0.8,4.5-2.1,5.8-5.1,5.8h-3.5c-3.9,0-4.7-1.3-4.4-5.4l0.8-10.9H67.5
			 M58.8,31.3l-0.3,4.2H62l-0.3,3.9h-3.5l-0.3,4l3.8-0.4l-0.2,4C56.5,47.6,51,48.2,47,48.6l-0.1-4.3l1.5-0.1l0.7-9.9h4l-0.7,9.6
			l1.2-0.1l0.9-12.5H58.8 M299,31.7l-1.6,22.8c-0.2,2.5-0.8,3.7-2.4,4.4c-1.5,0.6-3.5,0.8-6.1,0.8c-0.2,0-0.4,0-0.6,0
			c-0.3-1.6-0.7-3.1-1.4-4.5c1.2,0.1,2.7,0.1,3.7,0.1c0.5,0,0.9,0,1.1,0c0.7,0,0.9-0.2,1-0.8l1.6-22.8H299 M108.7,33.3l-0.3,4.4H105
			l-1.2,16.9c-0.2,2.5-0.8,3.7-2.5,4.4c-1.7,0.7-4,0.8-7.1,0.8c-0.3-1.6-0.8-3.2-1.5-4.6c1.4,0.1,3.1,0.1,4.3,0.1c0.5,0,1,0,1.2,0
			c0.7,0,1-0.2,1.1-0.8l1.2-16.8H80.9l0.3-4.4H108.7 M305.2,38.2c2.1,4.3,4.1,9.7,4.6,13.6l-4.9,1.9c-0.3-3.7-2.1-9.4-4.1-13.9
			L305.2,38.2 M271.2,38.5l-0.3,3.7h-6.3c-0.5,0.5-1.1,0.9-1.7,1.3c0.9,0.9,1.6,2,2.2,3.2c1.9-1.3,3.8-2.8,5.5-4.3l3.4,2.9
			c-1.1,0.8-2.4,1.7-3.6,2.5c0.9,3.2,2.8,6,5.9,7.4c-1.2,1-2.2,2.2-3.1,3.6c-3.4-1.7-5.3-4.8-6.4-8.8l-0.6,0.4
			c0.5,3.5-0.4,6.8-2,8.1c-1,1-2.3,1.6-3.7,1.6c-0.1,0-0.2,0-0.3,0c-0.2,0-0.4,0-0.6,0c-0.5,0-1.1,0-1.7,0c0-1.4-0.3-2.7-0.8-3.9
			c-2.3,1.1-4.7,2-7.2,2.8c-0.5-1.3-1.2-2.5-2-3.6c4.8-1,10.7-3.5,13.9-5.9c0-0.2-0.1-0.4-0.2-0.6c-3.5,2-7.2,3.5-11,4.7
			c-0.5-1.2-1.1-2.3-1.9-3.3c3.8-0.7,8.7-2.5,11.4-4.1c-0.1-0.2-0.3-0.4-0.4-0.5c-2.7,1.3-5.5,2.2-8.4,2.9c-0.5-1.2-1.2-2.3-2-3.4
			c3.2-0.5,6.2-1.4,9.2-2.7h-4.1l0.3-3.7H271.2 M259.9,55.9c0.6,0,1.1-0.3,1.3-0.8c0.4-0.5,0.7-1.2,0.8-1.9
			c-1.5,0.9-3.1,1.8-4.7,2.5c0.9,0.1,1.7,0.1,2.4,0.1l0,0C259.7,55.9,259.8,55.9,259.9,55.9 M285.8,38.5l4.9,0.8
			c-1.3,4.6-3.3,10.3-6,13.6c-1.3-0.9-2.7-1.7-4.1-2.3C283.1,47.7,285,42.4,285.8,38.5 M96.4,40.5l-0.8,12h0h-8.9l-0.2,2.3h-4.2
			l1-14.2H96.4 M87,48.3h4.5l0.3-3.7h0h-4.5L87,48.3 M42.2,42.9l-0.3,4.8h-28l0.3-4.8H42.2 M164.6,43.2c1.2,2,3,4.9,3.7,6.7
			l-3.9,2.3c-1-2.4-2.2-4.7-3.4-7L164.6,43.2 M71.2,48.8L70.9,53H50.2l0.3-4.2H71.2 M74.2,54.9l-0.3,4.4H46.2l0.3-4.4H74.2
			 M356.2,28.9l-1.3,0.5l-3.6,1.4l-1.9,0.7l0.9,1.5h-1.3h-1.6l-0.1,1.6l-0.2,3.5l-0.1,1.9h1c0.2,0.5,0.4,1,0.5,1.5h-0.5h-1.6
			l-0.1,1.6l-0.2,3.5l-0.1,1.9h0.9l-0.2,3.4l-0.1,1.9h1.9h0.4c-0.5,0.7-1.2,1.2-2,1.6l-2.5,1.1l2.1,1.8c0.9,0.7,1.6,1.6,2.2,2.6
			l0.9,1.4l1.5-0.8c1.9-1.1,3.5-2.7,4.6-4.5c0.9,0.9,1.6,1.8,2.3,2.8l0.9,1.5l1.5-0.9c1-0.6,1.9-1.3,2.8-2l-0.1,1.3l-0.1,1.9h1.9
			h4.2h1.6l0.1-1.6l0.1-1.2c0.3,0.4,0.7,0.7,1.1,1.1l1.4,1.3l1.2-1.5c0.8-1.1,1.8-2.1,2.9-2.9l1.8-1.4l-1.9-1.3
			c-1.2-0.9-2.3-2-3.3-3.2h1h1.6l0.1-1.6l0.6-9.2h0.8l0.1-1.6l0.3-3.7l0.1-1.9h-1.9h-4.1l0.1-1.2l0.1-1.9h-1.9h-4.2h-1.6l-0.1,1.6
			l-0.1,1.5h-3.8h-1.6l0,0.4h-0.4c-0.5-1-1.1-2-1.7-3L356.2,28.9L356.2,28.9z M266.1,28.9l-1.4,0.4l-4.8,1.3l-1.9,0.5l0.3,0.7h-8.2
			h-1.6l-0.1,1.6l-0.5,7.2l-0.1,1.9h1.9h2.3c-1,0.2-2,0.4-2.9,0.6l-2.8,0.5l1.6,2.3c0.5,0.7,0.9,1.4,1.3,2.2
			c-0.3,0.1-0.6,0.1-0.9,0.2l-2.7,0.5l1.6,2.2c0.5,0.7,0.9,1.4,1.3,2.2c-0.3,0.1-0.7,0.2-1,0.2l-2.7,0.6l1.7,2.2
			c0.7,1,1.3,2,1.8,3.2l0.6,1.5l1.6-0.5c1.9-0.6,3.8-1.3,5.6-2.1c0.1,0.5,0.1,1,0.1,1.5l0,1.7l1.7,0.1c0.6,0,1.2,0,1.8,0
			c0.2,0,0.4,0,0.6,0c0.1,0,0.2,0,0.3,0c1.8,0,3.6-0.8,4.9-2.1c1-0.9,1.8-2.2,2.2-3.8c1.3,1.9,2.9,3.4,4.9,4.4l1.4,0.7l0.9-1.3
			c0.8-1.2,1.7-2.3,2.8-3.2l2.1-1.8l-2.6-1.1c-2.5-1.1-3.9-3.2-4.6-5.1c0.9-0.6,1.8-1.2,2.6-1.8l1.8-1.3l-1.7-1.4l-1.5-1.2h2.3h1.6
			l0.1-1.6l0.5-7.2l0.1-1.9h-1.9h-9.2c-0.2-0.6-0.4-1.1-0.7-1.6L266.1,28.9L266.1,28.9z M265.7,43.9h0.3c-0.1,0-0.1,0.1-0.2,0.1
			C265.7,43.9,265.7,43.9,265.7,43.9L265.7,43.9z M328.5,29.3l-0.4,1.6c-0.4,1.5-0.8,2.9-1.4,4.3h-0.4H326l0.3-3.7l0.1-1.9h-1.9h-4
			h-1.6l-0.1,1.6l0,0.5l-2.1-0.4l-1.8-0.3l-0.2,1.8c-0.5,4.1-1.2,7.2-2.1,9.1l-0.6,1.4l1.4,0.8c0.7,0.4,1.4,0.9,2.1,1.4
			c-0.5,0.1-1.1,0.2-1.6,0.3l-1.7,0.3l0.3,1.7l0.7,4.2l0.3,1.9l1.9-0.5c0.6-0.2,1.3-0.3,1.9-0.5l-0.5,6.9l-0.1,1.9h1.9h4h1.6
			l0.1-1.6l0.2-2.2l0.5,0.2c1.1,0.6,2.1,1.3,2.9,2.2l1.1,1.2l1.2-1c0.7-0.5,1.3-1.1,1.9-1.7c0,0.3,0,0.6,0.1,0.9l0,1.6l1.6,0.1
			c0.3,0,0.7,0,1,0c0.9,0,1.9-0.1,2.8-0.2c1.6-0.3,2.9-1.2,3.8-2.5c1.4-1.9,2.2-6.3,3.8-20.8c0.1-0.5,0.2-1.8,0.2-1.9l0.2-1.9h-1.9
			h-8.6c0.2-0.5,0.3-1,0.5-1.5l0.5-1.8l-1.9-0.4l-3.9-0.7L328.5,29.3L328.5,29.3z M324.6,55.2l0.2-2.6c0.5,0.4,1,0.8,1.5,1.3
			c-0.5,0.5-1,0.9-1.6,1.2L324.6,55.2L324.6,55.2z M162.3,29.3l-0.5,1.6c-0.4,1.2-0.8,2.4-1.4,3.6h-0.9h-1.8c0.1-0.3,0.3-0.7,0.4-1
			l0.3-0.8l0.9-2.1l-2.2-0.3l-4.7-0.7l-1.7-0.2l-0.2,1.7c-0.2,1.1-0.4,2.3-0.6,3.4h-2.1h-1.6l-0.1,1.6l-1.6,22.7l-0.1,1.9h1.9h3.9
			h1.6l0.1-1.6l0-0.5h6.2h1.6l0.1-1.6l0.1-0.8l0.1,0.3c0.6,1.1,0.9,2.3,0.9,3.5l0,1.6l1.6,0.1c0.6,0,1.3,0.1,1.9,0.1
			c1.1,0,2.2-0.1,3.3-0.2c1.8-0.2,3.4-1.1,4.5-2.6c1.6-2,2.3-6.3,3.7-20.8c0.1-0.6,0.2-1.8,0.2-2l0.1-1.9h-1.9h-5.6
			c0.2-0.4,0.3-0.8,0.4-1.2l0.6-1.8l-1.9-0.5l-4.1-1L162.3,29.3L162.3,29.3z M165.7,41.6h2.4c-0.1,1-0.2,2.2-0.4,3.5
			c-0.4-0.6-0.7-1.2-1.1-1.8l-0.6-1L165.7,41.6L165.7,41.6z M153.1,41.8h0.4l0,0.6h-0.4L153.1,41.8L153.1,41.8z M160.1,53.6l0.4-5.8
			c0.8,1.6,1.6,3.3,2.3,4.9l0.5,1.1c-0.5,0-1-0.1-1.5-0.1L160.1,53.6L160.1,53.6z M152.6,49.6h0.4l-0.1,1.7h-0.4L152.6,49.6
			L152.6,49.6z M164.8,53.9l0.6-0.3l1.3-0.8c-0.1,0.5-0.3,0.9-0.4,1.1l0,0l-0.1,0C165.8,53.9,165.4,53.9,164.8,53.9L164.8,53.9z
			 M137.5,29.4l-1,0.2c-5.3,1.1-14.3,1.5-20.9,1.6l-2.4,0l0.8,2.3c0.3,0.9,0.5,1.7,0.5,2.6l0,0.4H113l-0.1,1.6l-0.4,5.7l-0.1,1.9
			h0.8l-0.4,0.3l1.8,1.4l0.1,0.1l-0.3,0.1l-2,0.8l1.2,1.8c0,0.1,0.1,0.1,0.1,0.2c-0.1,0-0.2,0.1-0.3,0.1l-3.1,0.8l2.4,2.2
			c0.4,0.3,0.8,0.7,1.1,1.1c-0.5,0-1,0.1-1.5,0.1l-3.4,0.1l2.1,2.7c0.7,0.9,1.3,2,1.7,3.1l0.4,1.3l1.3-0.1c4-0.3,8-1,11.8-2.2
			c3.7,1.2,7.6,1.9,11.5,2.1l1.1,0.1l0.5-1c0.7-1.3,1.5-2.6,2.5-3.7l2.4-2.8l-3.6-0.1c-1.4-0.1-2.9-0.2-4.3-0.3
			c0.6-0.6,1.2-1.3,1.7-2.1l1.1-1.5l-1.2-0.8l2.1-1.5l1.3-0.9l-0.5-0.7h1l0.1-1.6l0.4-6.2l0.1-1.9h-1.9h-0.9l0.6-0.8l2.6-0.6
			l-2.1-2.3l-2.7-2.8L137.5,29.4L137.5,29.4z M69.3,29.6h-1.9h-4.4h-1.6l-0.1,1.6l-0.2,2.6h-0.8l0.2-2.3l0.1-1.9h-1.9h-4.3h-1.6
			l-0.1,1.6l-0.1,1.3h-3.6h-1.6l-0.1,1.6l-0.6,8.4l0,0L45,42.7l0.1,1.7l0.1,4.3l0.1,1.9l1.9-0.2c0.5-0.1,1-0.1,1.5-0.2l-0.2,2.7
			l0,0.3h-1.9h-1.6l-0.1,1.6l-0.3,4.4l-0.1,1.9h1.9h27.6h1.6l0.1-1.6l0.3-4.4l0.1-1.9h-1.9h-1.5l0-0.1L73,49c2.5-1,3.5-3.5,4.1-6.8
			l0.3-1.6l-1.6-0.4c-0.2,0-0.4-0.1-0.6-0.2l0-0.4l0.3-3.9l0.1-1.9h-1.9H69l0.2-2.4L69.3,29.6L69.3,29.6z M59.9,41.2h0.8l0,0.2
			l-0.8,0.1L59.9,41.2L59.9,41.2z M68.5,41.2h1.1c0,0.3-0.1,0.5-0.1,0.7l-1,0L68.5,41.2L68.5,41.2z M300.9,30H299h-4.8h-1.6
			l-0.1,1.6l-0.4,6.2l-0.9-0.2l-4.9-0.8l-1.6-0.3l-0.4,1.6c-0.8,3.5-2.5,8.6-4.8,11.4l-1.5,1.8l2.2,0.9c1.3,0.6,2.6,1.3,3.8,2.1
			l1,0.7l0.4,0.9c0.6,1.3,1,2.7,1.3,4.1l0.2,1.5l1.5,0c0.2,0,0.4,0,0.7,0c3.3,0,5.2-0.3,6.8-1c2.7-1.3,3.3-3.6,3.4-5.9l0.9-12.4
			c1.7,4.2,2.9,8.7,3.2,11.5l0.2,2.3l2.2-0.8l4.9-1.9l1.3-0.5l-0.2-1.4c-0.5-4.3-2.8-10.1-4.8-14.1l-0.7-1.4l-1.5,0.5l-4.3,1.6
			l0.4-6.2L300.9,30L300.9,30z M286.6,53.5c1.8-2.5,3.5-6.2,5.1-11.2l-0.8,11.3c-0.1,0-0.3,0-0.4,0c-1.2,0-2.6,0-3.6-0.1L286.6,53.5
			L286.6,53.5z M110.6,31.5h-1.9H81.2h-1.6l-0.1,1.6l-0.3,4.4L79,39.4h1.9h0.7l-0.1,0.9l-1,14.2l-0.1,1.9h1.9h4.2h1.6l0.1-1.6l0-0.6
			h1.9l0.9,1.8c0.6,1.3,1.1,2.7,1.4,4.1l0.2,1.5h1.5c3.2,0,5.7-0.1,7.8-1c2.8-1.2,3.4-3.6,3.5-5.9l1.1-15.3h1.7h1.6l0.1-1.6l0.3-4.4
			L110.6,31.5L110.6,31.5z M98.3,39.4h0.3l-1,14.1l-0.3,0l0.1-1l0.8-12L98.3,39.4L98.3,39.4z M88.9,46.4h1l0,0.2h-1L88.9,46.4
			L88.9,46.4z M44,41.2h-1.9h-28h-1.6l-0.1,1.6l-0.3,4.8l-0.1,1.9h1.9h28h1.6l0.1-1.6l0.3-4.8L44,41.2L44,41.2z"/>
	</g>
	<path id="居" class="st4" d="M212.8,43.2c0-0.9-0.1-1.7-0.2-2.4l8.9-0.8l0.2,2.4L212.8,43.2z M229.2,33l0.2,1.6l-17.1,1.6
		l-0.2-1.6L229.2,33z M230.9,55.4l-10.6,1l-0.2-2.4l10.6-1L230.9,55.4z M237.3,45.6l-0.4-4.6l-9.9,0.9l-0.2-2.4l8.2-0.8L234,28
		l-27.6,2.6l1,10.6c0.5,5.7,1,13.8-2.3,19.5c1.7,0.5,3.4,1.3,4.9,2.3c2.3-4.2,3-10,2.9-15.2l9.3-0.9l0.2,2.3l-7.8,0.7l1.2,12.4
		l5-0.5l-0.1-0.9l10.6-1l0.1,0.9l5.2-0.5L235.4,48l-7.7,0.7l-0.2-2.3L237.3,45.6z"/>
</g>
<g>
	<path id="矩形_11_拷貝_3_" class="st1" d="M249.2,91.3L58.3,82.6l7.6,56.8l179.6-5L249.2,91.3z"/>
	<path id="矩形_11_拷貝_1_" d="M59.4,83.7l188.7,8.5l-3.6,41.3l-177.8,5L59.4,83.7 M58.3,82.6l7.6,56.8l179.6-5l3.8-43.2
		L58.3,82.6L58.3,82.6z"/>
</g>
<g>
	<path id="矩形_11_3_" class="st4" d="M250.2,86.1L58.8,81.8l8.1,54l179.6-5.2L250.2,86.1z"/>
	<path id="矩形_11_1_" d="M60.8,83.6l187.5,4.2l-3.5,41.1L68.3,134L60.8,83.6 M58.8,81.8l8.1,54l179.6-5.2l3.8-44.5L58.8,81.8
		L58.8,81.8z"/>
</g>
<path id="偷偷說...怎麼用都很療癒ㄚ_拷貝" class="st1" d="M94.4,93.3c-0.8,1.7-1.8,3.3-3.1,4.7c0.2,0.5,0.3,1,0.4,1.6
	c0.3-0.3,0.5-0.5,0.8-0.8l-1,5.9h1.4l1.5-8.5c0.5-0.8,1-1.7,1.4-2.5L94.4,93.3z M95.6,101.3c0.1-0.2,0.1-0.5,0.1-0.7h1.2l-0.1,0.7
	H95.6z M97.2,99l-0.1,0.6h-1.2L96,99H97.2L97.2,99z M98.6,97.9H95l-0.5,2.6c-0.1,1.3-0.6,2.5-1.3,3.5c0.3,0.2,0.7,0.4,0.9,0.7
	c0.5-0.7,0.9-1.5,1.1-2.4h1.3l-0.2,0.9c0,0.1-0.1,0.2-0.1,0.2c0,0,0,0,0,0c-0.1,0-0.4,0-0.7,0c0.1,0.4,0.2,0.8,0.1,1.2
	c0.5,0,0.9,0,1.3-0.2c0.4-0.2,0.6-0.6,0.6-1.1L98.6,97.9z M100.1,103.2c0,0.1-0.1,0.2-0.2,0.2c0,0,0,0,0,0c-0.2,0-0.7,0-1.2,0
	c0.1,0.4,0.2,0.8,0.1,1.2c0.6,0,1.2,0,1.8-0.2c0.4-0.2,0.7-0.7,0.7-1.2l1-5.5H101L100.1,103.2z M100.3,98.2h-1.1l-0.8,4.5h1.1
	L100.3,98.2z M97.2,96.2c0.7-0.4,1.4-0.9,2-1.4c0.5,0.5,1,1,1.7,1.4H97.2z M99.4,93.2c-1.3,1.3-2.9,2.2-4.7,2.8
	c0.3,0.3,0.5,0.7,0.7,1.1c0.3-0.1,0.7-0.3,1-0.4l-0.1,0.7h4.8l0.2-1c0.3,0.2,0.7,0.4,1,0.5c0.3-0.4,0.6-0.8,1-1.1
	c-1.2-0.3-2.2-1-3.1-1.8c0.1-0.1,0.2-0.2,0.3-0.3L99.4,93.2z M107,93.3c-0.8,1.7-1.8,3.3-3.1,4.7c0.2,0.5,0.3,1,0.4,1.6
	c0.3-0.3,0.5-0.5,0.8-0.8l-1,5.9h1.4l1.5-8.5c0.5-0.8,1-1.7,1.4-2.5L107,93.3z M108.1,101.3c0.1-0.2,0.1-0.5,0.1-0.7h1.2l-0.1,0.7
	H108.1L108.1,101.3z M109.8,99l-0.1,0.6h-1.2l0.1-0.6H109.8z M111.2,97.9h-3.7l-0.5,2.6c-0.1,1.3-0.6,2.5-1.3,3.5
	c0.3,0.2,0.7,0.4,0.9,0.7c0.5-0.7,0.9-1.5,1.1-2.4h1.3l-0.2,0.9c0,0.1-0.1,0.2-0.1,0.2c0,0,0,0,0,0c-0.1,0-0.4,0-0.7,0
	c0.1,0.4,0.2,0.8,0.1,1.2c0.5,0,0.9,0,1.3-0.2c0.4-0.2,0.6-0.6,0.6-1.1L111.2,97.9z M112.6,103.2c0,0.1-0.1,0.2-0.2,0.2c0,0,0,0,0,0
	c-0.2,0-0.7,0-1.2,0c0.1,0.4,0.2,0.8,0.1,1.2c0.6,0,1.2,0,1.8-0.2c0.4-0.2,0.7-0.7,0.7-1.2l1-5.5h-1.2L112.6,103.2z M112.9,98.2
	h-1.1l-0.8,4.5h1.1L112.9,98.2z M109.7,96.2c0.7-0.4,1.4-0.9,2-1.4c0.5,0.5,1,1,1.7,1.4H109.7L109.7,96.2z M111.9,93.2
	c-1.3,1.3-2.9,2.2-4.7,2.8c0.3,0.3,0.5,0.7,0.7,1.1c0.3-0.1,0.7-0.3,1-0.4l-0.1,0.7h4.8l0.2-1c0.3,0.2,0.7,0.4,1,0.5
	c0.3-0.4,0.6-0.8,1-1.1c-1.2-0.3-2.2-1-3.1-1.8c0.1-0.1,0.2-0.2,0.3-0.3L111.9,93.2z M123.1,97.8h2.2l-0.2,1.4h-2.2L123.1,97.8z
	 M118.5,102.8h-1.2l0.2-1.4h1.2L118.5,102.8z M125.2,103.2c-0.2,0-0.2,0-0.1-0.4l0.4-2.4h0.8l0.6-3.5c0.1,0.1,0.1,0.3,0.2,0.4
	l1.2-0.8c-0.5-1.2-1.2-2.2-2-3.2l-1.1,0.7c0.6,0.8,1.1,1.7,1.6,2.5h-4.2c0.8-0.8,1.5-1.7,2.2-2.7l-1.3-0.4c-0.6,1-1.3,1.8-2.2,2.5
	l0.1-0.7h-2.2l1-0.3c-0.1-0.5-0.2-1.1-0.4-1.6l-1.3,0.4c0.1,0.5,0.3,1,0.3,1.5H117l-0.2,1.2h3.8l-0.1,0c0.3,0.3,0.6,0.7,0.8,1
	c0.2-0.1,0.3-0.3,0.5-0.4l-0.6,3.3h0.8c-0.4,1.4-0.8,2.5-2.5,3.2l0.6-3.3h-3.6l-0.7,4.2h1.2l0.1-0.5h2.4l0-0.3
	c0.2,0.3,0.4,0.7,0.5,1c2.1-0.9,2.8-2.4,3.4-4.3h0.6l-0.4,2.4c-0.2,1.3-0.1,1.7,1,1.7h0.8c0.9,0,1.3-0.5,1.7-2.1
	c-0.4-0.1-0.8-0.3-1.2-0.6c-0.2,1.2-0.3,1.3-0.5,1.3L125.2,103.2L125.2,103.2z M116.7,99.7h3.5l0.2-1.1h-3.5L116.7,99.7z M120.6,97
	h-3.5l-0.2,1.1h3.5L120.6,97z M129.6,103.8c0.7,0,1.2-0.5,1.3-1.2c0.1-0.5-0.1-1-0.6-1.1c-0.1,0-0.2,0-0.3,0c-0.7,0-1.2,0.5-1.3,1.2
	c-0.1,0.5,0.1,1,0.6,1.1C129.4,103.8,129.5,103.8,129.6,103.8L129.6,103.8z M133.9,103.8c0.7,0,1.2-0.5,1.3-1.2
	c0.1-0.5-0.1-1-0.6-1.1c-0.1,0-0.2,0-0.3,0c-0.7,0-1.2,0.5-1.3,1.2c-0.1,0.5,0.1,1,0.6,1.1C133.7,103.8,133.8,103.8,133.9,103.8
	L133.9,103.8z M138.1,103.8c0.7,0,1.2-0.5,1.3-1.2c0.1-0.5-0.1-1-0.6-1.1c-0.1,0-0.2,0-0.3,0c-0.7,0-1.2,0.5-1.3,1.2
	c-0.1,0.5,0.1,1,0.6,1.1C138,103.8,138.1,103.8,138.1,103.8L138.1,103.8z M106.9,111.6l-1,5.8h1l-0.6,0.5c0.7,0.7,1.4,1.4,2.1,2.1
	l1.4-1.3c-0.6-0.6-1.3-1.2-1.9-1.8l0.1-0.7h6l0.3-1.5h-6l0.2-0.9h5.6l0.2-1.4h-5.6l0.2-0.9h6.5l0.3-1.5h-8.9
	c0.2-0.4,0.4-0.7,0.6-1.1l-1.8-0.4c-0.9,2-2.3,3.7-4,5.1c0.5,0.4,0.9,0.8,1.3,1.3c1.1-0.9,2.1-2,2.9-3.2L106.9,111.6L106.9,111.6z
	 M101.5,122.2c0.7-1.2,1.3-2.5,1.9-3.7l-1.5-0.6c-0.5,1.3-1.2,2.5-2,3.6L101.5,122.2z M114.1,121.6c-0.3-1.3-0.7-2.6-1.1-3.9
	l-1.8,0.5c0.2,0.6,0.3,1.3,0.5,2c-0.5-0.1-1.1-0.3-1.5-0.6c-0.3,1.2-0.5,1.4-1.2,1.4h-2.7c-0.9,0-1.1-0.1-1-0.5l0.4-2.4h-1.8
	l-0.4,2.4c-0.3,1.6,0.2,2.1,2.4,2.1h3c1.7,0,2.3-0.5,2.9-2.4c0.2,0.7,0.3,1.5,0.4,2L114.1,121.6z M129.7,116c-0.2,0-0.2-0.1-0.1-0.3
	l0.3-1.5h-1l-0.3,1.5c-0.1,0.8-0.1,1.1,0.7,1.1h0.5c0.2,0,0.4,0,0.6-0.1c0-0.2,0-0.5,0.1-0.8c-0.2,0-0.4,0.1-0.6,0.1L129.7,116
	L129.7,116z M127.9,116.8l0.6-3.2h2.2l0.2-1.4h-2.2l0.1-0.7h-1.4l-0.1,0.7h-1.8l-0.2,1.4h1.8l-0.6,3.2H127.9z M131.1,111.3l0.3-1.6
	h-5.2c0-0.4-0.1-0.8-0.2-1.2l-1.9,0.3c0,0.3,0.1,0.6,0.1,0.9h-5.7l-0.7,4.2c-0.4,2.3-1,5.5-2.4,7.8c0.5,0.3,0.9,0.6,1.3,1.1
	c1.6-2.5,2.5-6.4,2.9-8.9l0.5-2.6H131.1L131.1,111.3z M122.5,116.8l0.6-3.2h1.8l0.2-1.4h-1.8l0.1-0.7h-1.4l-0.1,0.7h-1.7l-0.2,1.4
	h1.7l-0.6,3.2H122.5L122.5,116.8z M121.2,114.1h-1l-0.1,0.6c-0.1,0.7-0.4,1.3-1,1.7c0.3,0.2,0.5,0.4,0.7,0.7
	c0.7-0.6,1.1-1.5,1.2-2.4L121.2,114.1z M125.9,119.5c0.2,0.3,0.4,0.7,0.7,1l-4.3,0.3c1.9-0.8,3.7-1.8,5.4-2.9l-1.2-0.9
	c-0.7,0.5-1.5,1-2.3,1.4l-2.3,0.1c0.9-0.4,1.8-0.9,2.7-1.5l-0.8-0.6h0.3c0.2,0,0.4,0,0.5-0.1l0-0.2c0.3,0.2,0.5,0.4,0.7,0.7
	c0.7-0.6,1.1-1.4,1.2-2.2l0.1-0.6h-1l-0.1,0.6c-0.1,0.6-0.4,1.2-0.9,1.5c0-0.2,0-0.3,0.1-0.5c-0.2,0-0.3,0-0.5,0
	c-0.2,0-0.2-0.1-0.1-0.3l0.2-1.3h-1l-0.2,1.3c-0.1,0.5-0.1,0.8,0.2,1c-0.9,0.7-1.9,1.2-2.9,1.7c-0.3,0.2-0.7,0.3-1.1,0.4
	c0.1,0.4,0.1,0.9,0.2,1.3c0.9-0.2,1.7-0.3,2.6-0.3c-0.6,0.3-1.2,0.6-1.9,0.9c-0.6,0.3-1.3,0.5-1.9,0.7c0.1,0.5,0.1,1,0.2,1.4
	c0.6-0.2,1.4-0.2,8.7-0.7c0.2,0.3,0.3,0.6,0.4,0.8l1.5-0.7c-0.6-1-1.2-2-1.9-3L125.9,119.5z M140,116.6l0.3-1.9h3.2l-0.3,1.9H140
	L140,116.6z M135.3,116.6c0.1-0.6,0.2-1.1,0.3-1.6l0-0.3h2.9l-0.3,1.9H135.3L135.3,116.6z M139.1,111.3l-0.3,1.8H136l0.3-1.8H139.1z
	 M143.9,113.1h-3.2l0.3-1.8h3.2L143.9,113.1z M146.3,109.6h-11.5l-1,5.4c-0.4,2.1-1,4.8-3,6.7c0.5,0.3,0.9,0.7,1.2,1.2
	c1.3-1.3,2.2-2.8,2.7-4.5h3.1l-0.7,4.2h1.8l0.7-4.2h3.2l-0.4,2.3c0,0.2-0.2,0.4-0.4,0.4c0,0,0,0-0.1,0c-0.3,0-1.3,0-2.1,0
	c0.2,0.6,0.3,1.1,0.3,1.7c1,0.1,2,0,3-0.3c0.7-0.3,1-0.8,1.1-1.7L146.3,109.6z M152.5,113l0.2-1.2h1.1c-0.4,0.4-0.7,0.8-1.1,1.2
	H152.5z M152.8,118.1h-2.4l0.2-1h2.4L152.8,118.1z M149.9,120.5l0.2-1.1h2.4l-0.2,1.1H149.9L149.9,120.5z M161.7,109.3l-0.3,0.1
	h-4.4l-0.1,0.3l-1.5-0.4c-0.3,0.6-0.7,1.2-1,1.7l0.1-0.8H153l0.3-1.5h-1.7l-0.3,1.5h-2l-0.3,1.5h2l-0.2,1.2h-2.6l-0.3,1.6h3.2
	c-1.2,1-2.6,1.9-4.1,2.5c0.3,0.5,0.6,1,0.8,1.5c0.3-0.1,0.6-0.3,0.8-0.5l-0.8,4.6h1.6l0.1-0.8h2.4l-0.1,0.6h1.7l1.2-6.9h-2.7
	c0.4-0.4,0.8-0.7,1.2-1.1h2.3l0.3-1.6h-1.1c0.8-1,1.6-2.1,2.2-3.2l-2.3,13h1.8l2.1-11.7h1.9c-0.6,1.2-1.4,2.7-2,3.8
	c0.8,0.8,1.2,2,1,3.1c0,0.4-0.2,0.8-0.6,1c-0.2,0.1-0.4,0.1-0.6,0.1c-0.3,0-0.6,0-1,0c0.2,0.6,0.2,1.2,0.1,1.7c0.4,0,0.9,0,1.3,0
	c0.4,0,0.8-0.2,1.1-0.4c0.7-0.4,1.1-1.1,1.3-2.3c0.2-1.3-0.1-2.6-0.9-3.5c0.9-1.3,1.8-3.1,2.6-4.5L161.7,109.3z M167.5,108.6
	c-1,1.2-2.2,2.2-3.6,3c0.3,0.5,0.5,1,0.6,1.5c1.7-1,3.2-2.3,4.6-3.8L167.5,108.6z M167.3,111.9c-1.2,1.5-2.7,2.8-4.3,3.9
	c0.2,0.6,0.4,1.2,0.6,1.9c0.5-0.4,1-0.8,1.6-1.2l-1.1,6.3h1.8l1.5-8.4c0.6-0.6,1.1-1.2,1.6-1.8L167.3,111.9z M170.9,113.4h3.8
	l-0.2,1.2h-3.8L170.9,113.4z M175.2,110.7l-0.2,1.2h-3.8l0.2-1.2H175.2L175.2,110.7z M175.7,116.3c-0.7,0.6-1.5,1.2-2.3,1.7
	c-0.2-0.6-0.4-1.2-0.5-1.8h3.1l1.2-7h-7.4l-1.9,10.9c-0.1,0.6-0.4,1.1-0.9,1.3c0.3,0.4,0.4,0.9,0.5,1.4c0.4-0.2,1-0.5,4.1-1.2
	c0-0.6,0.1-1.1,0.2-1.6l-2.2,0.5l0.8-4.3h1c0.3,3.1,1.3,5.4,3.7,6.6c0.4-0.6,0.9-1.1,1.5-1.6c-1-0.4-1.9-1.1-2.5-2
	c0.8-0.4,1.8-1.1,2.6-1.6L175.7,116.3z M183.5,119.4c-0.7,0.8-1.5,1.5-2.4,2.1c0.4,0.3,0.8,0.6,1.2,1c1-0.8,1.9-1.6,2.7-2.5
	L183.5,119.4z M188.5,120.1c0.6,0.8,1.1,1.6,1.6,2.4l1.5-0.8c-0.4-0.6-1.2-1.6-1.8-2.3L188.5,120.1z M189.5,116.6h-3.9l0.1-0.6h3.9
	L189.5,116.6z M189.3,118.2h-3.9l0.1-0.6h3.9L189.3,118.2z M183.4,111.3h4c-0.1,0.3-0.3,0.6-0.5,1h-3.1l-0.2,1.4h2.3
	c-0.2,0.3-0.5,0.5-0.8,0.7c-0.3-0.2-0.6-0.5-0.8-0.7l-1.1,0.8c0.3,0.2,0.5,0.5,0.8,0.7c-0.5,0.3-0.9,0.6-1.4,0.8
	c0.1-0.5,0.2-0.9,0.3-1.3L183.4,111.3z M188.7,113.6c0.2,0.5,0.4,0.9,0.7,1.4h-2.9c0.4-0.4,0.9-0.9,1.2-1.4H188.7z M192,113.6
	c-0.3,0.2-0.7,0.6-1.1,0.9c-0.3-0.3-0.5-0.6-0.7-0.9H192z M192.1,113.6h1l0.2-1.4h-4.8c0.2-0.3,0.3-0.5,0.4-0.8l-1-0.1h5.7l0.3-1.5
	h-5c-0.1-0.4-0.1-0.9-0.2-1.3l-1.9,0.4c0,0.3,0.1,0.6,0.1,0.9H182l-0.7,4.1c-0.1-0.7-0.2-1.8-0.4-2.7l-1.4,0.5c0.2,1,0.3,2,0.3,3.1
	l1.4-0.6l-0.1,0.5c-0.1,0.4-0.1,0.8-0.2,1.2c-0.9,0.4-1.8,0.8-2.5,1.1l0.2,1.6c0.6-0.3,1.2-0.6,1.8-0.9c-0.4,1.5-1.3,2.9-2.4,3.9
	c0.4,0.3,0.8,0.7,1,1.2c1.8-1.7,2.8-4.3,3.4-6.5c0.3,0.3,0.5,0.6,0.7,1c0.3-0.2,0.7-0.3,1-0.5l-0.4,2.5h2.6l-0.3,1.9
	c0,0.1-0.1,0.2-0.2,0.2c0,0,0,0,0,0c-0.2,0-0.8,0-1.4,0c0.2,0.5,0.3,0.9,0.3,1.4c0.7,0.1,1.5,0,2.2-0.2c0.6-0.2,0.9-0.8,0.9-1.4
	l0.3-2h2.7l0.4-2.5c0.2,0.2,0.5,0.3,0.7,0.4c0.4-0.5,0.8-0.9,1.3-1.3c-0.5-0.2-0.9-0.4-1.3-0.7c0.4-0.3,0.8-0.6,1.2-0.9L192.1,113.6
	z M197.8,122.5c0.7-0.7,1.2-1.5,1.7-2.3l-1.2-0.6c-0.4,0.8-1,1.5-1.7,2.2L197.8,122.5z M203.4,117.6h1.3l0.5-3H204L203.4,117.6z
	 M207.6,114.5h-1.4l-0.6,3.4c0,0.1-0.1,0.2-0.2,0.2c0,0,0,0,0,0c-0.2,0-0.6,0-1.1,0c0.1,0.4,0.2,0.8,0.2,1.2c0.6,0.1,1.2,0,1.8-0.2
	c0.5-0.2,0.7-0.6,0.7-1.1L207.6,114.5z M201.6,119.5c0.4,0.4,0.8,0.9,1.2,1.5l1.3-0.8c-0.4-0.5-0.8-1-1.2-1.4L201.6,119.5z
	 M200.1,117c0-0.1,0.1-0.3,0.1-0.4h1.5l-0.1,0.4H200.1L200.1,117z M201.9,115.5l-0.1,0.4h-1.5l0.1-0.4H201.9L201.9,115.5z
	 M203.3,114.6h-4.1l-0.3,2c-0.1,0.7-0.4,1.4-1,1.8c0.3,0.2,0.7,0.5,0.9,0.8c0.5-0.4,0.9-0.9,1.1-1.4h1.6l-0.1,0.3
	c0,0.1-0.1,0.2-0.2,0.2c0,0,0,0,0,0c-0.1,0-0.4,0-0.7,0c0.1,0.3,0.2,0.6,0.2,0.9c0.5,0,1,0,1.5-0.2c0.4-0.1,0.6-0.5,0.6-0.9
	L203.3,114.6z M201.6,121.4c-0.5,0-0.6,0-0.6-0.4l0.3-1.4h-1.5l-0.3,1.4c-0.2,1.2,0.1,1.5,1.6,1.5h2c1.1,0,1.5-0.3,1.9-1.6
	c-0.4-0.1-0.8-0.2-1.2-0.4c-0.2,0.8-0.3,0.9-0.7,0.9L201.6,121.4L201.6,121.4z M204.8,120c0.4,0.8,0.8,1.6,1,2.4l1.5-0.6
	c-0.3-0.8-0.7-1.6-1.1-2.3L204.8,120z M202.7,113.2c0.4-0.2,0.8-0.4,1.2-0.6c0.4,0.2,0.8,0.5,1.1,0.6H202.7z M199.1,111.4h4.5
	c-1.5,0.9-3.1,1.5-4.8,1.8L199.1,111.4z M205.2,111.7l-0.6-0.3h4.6l0.3-1.5h-4.6c-0.1-0.5-0.2-1-0.2-1.4l-1.9,0.3
	c0.1,0.3,0.1,0.7,0.1,1h-5.2l-0.7,4c0-0.9-0.2-1.8-0.4-2.7l-1.4,0.5c0.2,1,0.3,2,0.3,3.1l1.4-0.6l-0.1,0.5c-0.1,0.4-0.1,0.8-0.2,1.2
	c-0.9,0.4-1.8,0.8-2.5,1.1l0.2,1.6c0.6-0.3,1.2-0.6,1.8-1c-0.4,1.5-1.3,2.9-2.4,4c0.4,0.3,0.8,0.7,1,1.2c2.3-2.1,3.3-5.7,3.7-8.1
	l0.2-1.3c0.2,0.3,0.4,0.6,0.6,1c0.8-0.2,1.6-0.5,2.4-0.8l-0.1,0.5h4l0.1-0.6c0.7,0.3,1.5,0.6,2.3,0.8c0.3-0.5,0.7-0.9,1.2-1.2
	c-1.4-0.3-2.8-0.7-4.1-1.3L205.2,111.7z M222.7,109.2c-1.6,1.5-3.2,3-5,4.2c-1.1-1.3-2.7-2.9-4-4.2l-1.6,1.2
	c1.5,1.5,2.9,3.1,4.2,4.8l-1.2,6.7h1.9l1.2-6.8c2.1-1.4,4-3,5.9-4.7L222.7,109.2z M226.8,117.6h1.5l1.3-5.6l0.4-2.1h-2.3l-0.3,2.1
	L226.8,117.6z M226.9,121.7c0.8,0,1.5-0.6,1.7-1.5c0.2-0.6-0.2-1.2-0.8-1.4c-0.1,0-0.2,0-0.3,0c-0.8,0-1.5,0.6-1.6,1.5
	c-0.2,0.6,0.2,1.2,0.8,1.4C226.6,121.7,226.8,121.7,226.9,121.7L226.9,121.7z"/>
<g>
	<path class="st5" d="M306.9,107.5c-3.3-6.6-8.2-11.4-10-13c0.2-0.3,0.4-0.5,0.5-0.8c0.6-0.6,1.3-1.2,2-1.9
		c4.6-4.2,5.8-9.2,5.4-12.4c-0.2-1.7-0.9-3.1-1.8-3.6c-1.6-0.9-2.9,0.1-3.7,0.6c-0.5,0.3-0.8,0.5-1.2,0.4c-0.5-0.1-0.8-1.4-1.1-2.8
		c-0.3-1.3-0.7-2.9-1.5-4.5c-1-2.1-3-4-5.7-5.2c-0.3-1.2-1.3-1.8-1.3-1.8c0.5,0.5,0.8,1.1,0.9,1.6c-0.4-0.2-1.2-0.4-1.9-0.6
		c-0.4-0.5-0.8-1-1.4-1.3c0.4,0.4,0.7,0.8,1,1.2c-0.5-0.1-1-0.2-1.4-0.2c-1.3-1.5-6.4-7.1-11.9-5.8c-3.7,0.8-3.2,4.5-2.6,7.1
		c-0.9,0.9-1.5,1.9-2.1,2.7c0.3-3.1-0.9-5.4-0.9-5.4c0.5,5.3-3.1,11.2-3.7,12.1c-1.4-0.3-3.1-0.7-4.8-1.1c-4.7-1.2-9.5-1.7-12,3
		c-2.3,4.3-1.3,14.4,6.9,20.7c5.1,3.9,10.7,5.1,15,4.5c1.9-0.3,3.3-1.1,4.3-2.5c1.2,0.4,2.2,0.6,2.7,0.8c-0.2,0.5-0.5,1-0.7,1.6
		c-1.1,2.4-2.3,4.8-4.1,6.1c-1.9,1.3-4.4,1.4-6.6,1.6c-2.7,0.3-5.7,0.7-8.8,3.2c-1.3-0.4-2.1-2-3-4c-1.5-3.3-3.6-7.5-9-8
		c-8.8-0.9-11.1,6.5-11.1,6.5c0-0.1,3.7-5.3,10.5-4c4.6,0.9,6.1,5.5,7.3,8.8c0.8,2.1,1.4,4,2.5,4.5c-1.9,4.7-0.8,10.7-0.6,13.1
		l0.1,0.8c0,0.5-0.8,2.3-1.2,3.7c-0.5,1.7-1.1,3.5-1.2,4.8c-0.3,3,4,4.8,8.4,5.5c3.5,0.6,6.9-0.3,8-1.8c0.2-0.3,0.3-0.5,0.4-0.8
		c1.1-0.3,2.1-1,2.4-2.1c0.3-1.1,0.1-2.4-0.5-3c-0.9-0.9-2.7-0.2-3.8,0.2l-0.7,0.2c-0.4,0.1-1.5-0.4-2.3-0.9c1.7-1,2.8-2.5,3.5-4.4
		c0.4-1,0.5-1.9,0.4-2.8c1.3,0.5,4.2,1.3,7.1,1.3c0.7,2.7,2.1,4.4,4,5.5c-0.7,0.6-2.2,1.4-2.7,1.7c-0.4-0.2-0.8-0.3-1.1-0.5
		c-0.8-0.4-1.5-0.4-2.1-0.2c-2,0.7-1.4,3.3-1,3.9c0.7,0.9,2.1,1.2,2.9,1.3c0.1,0.3,0.3,0.6,0.5,0.9c1.3,1.3,5.3,1.4,8.1,0.9
		c3.2-0.6,6.8-1.5,7.4-5.5c0.7-4.3-3.3-10.7-4.2-12.3c1.6-1.5,3.6-3.6,5-6.2c3.7,2.6,6.4,3.6,9.5,3.7c1.5,0,2.7-0.3,3.5-1
		c1.2-1.2,1.2-3.1,1.2-4.1c0-0.5,0-0.9,0.1-1.3c1.4,0.1,3,0.2,3.6-0.8C309.1,113.9,308.7,111.2,306.9,107.5z M271.5,68.1
		c-0.3,0.3-0.6,0.5-0.8,0.8c0.3-0.5,0.6-1.1,0.9-1.6C271.6,67.6,271.6,67.8,271.5,68.1z M300.2,111c-0.2,0-0.3-0.1-0.5-0.1
		c-1.1,0-1.8,0.8-2.1,1.6c-1.2-1.3-2.6-2.8-3.9-4.6c-0.1-0.8-0.1-1.5-0.2-2.2c1.5,1,5.6,3.7,6.8,5.1
		C300.2,110.9,300.2,110.9,300.2,111z"/>
	<path class="st6" d="M288.6,98.8c1.3,0,2.4-0.4,3.2-0.6c-1.3,1.6-1.7,2.4-1.8,3C289.5,100.4,289.1,99.6,288.6,98.8z"/>
	<path class="st7" d="M292.8,97c-1.7,0.9-3.5,1.3-4.5,1.3c-1.7-2.7-3.8-4.8-6.4-4.5c-0.6,0.1-1.2,0.3-1.7,0.6
		c-0.9-0.8-1.3-1.9-1.5-2.4c0.1,0,0.2,0,0.2,0l0.2,0c1.6-0.1,4.2-0.4,5.4-2c0.1-0.1,0.2-0.3,0.3-0.4c1,0.5,3.5,1.7,6,0.9
		c1.9-0.6,3.1-2.1,3.8-3.4c0.6,0.3,2.1,0.7,3.8-0.8c0.3-0.3,0.5-0.6,0.8-0.9c0.2,1,0.6,3.8-1,6.6C296.5,94.8,294.6,96.1,292.8,97z"
		/>
	<path class="st6" d="M275.8,73.8c0-1.1-0.2-2-0.5-2.6c0.6-0.1,1.1-0.2,1.6-0.2c-0.1,0.9-0.3,1.8-0.6,2.4
		C276.1,73.6,276,73.7,275.8,73.8z"/>
	<path class="st8" d="M276.4,74.1c0.2-0.2,0.4-0.3,0.7-0.4c0.8-0.4,2.4-0.1,4,0.8c2.6,1.4,5.4,4.3,6,8.3c-1,0.3-2,0.9-2.9,1.7
		c-0.7-0.5-3.7-2.6-5.7-4.5c0.5,0.3,0.9,0.3,1.2,0.1C281.1,79.2,278.5,73.4,276.4,74.1z"/>
	<path class="st9" d="M284,84.7C284,84.7,284,84.7,284,84.7C284,84.7,284,84.7,284,84.7C284,84.7,284,84.7,284,84.7z"/>
	<path class="st7" d="M290.7,82.5c0,0.1,0,0.2,0,0.3c0.3,1,1.3,0.8,2,0.7c0.7-0.1,1.6,0.2,1.6,0.2c1.8-1.9,1.9-3.3,0.7-3.7
		c0.4-0.6,1.5-1.8,3.2-1.4c0.6,0.1,1.1,0.7,1.3,1.5c0.4,1.6-0.1,4.1-1.8,5.6c-1.4,1.3-2.6,1-3,0.8c0.4-0.9,0.6-1.7,0.6-1.7
		c0,0-2,3.6-4.8,4.5c-2.2,0.7-4.6-0.1-5.5-0.5c0.2-0.7,0.3-1.4,0.1-2.3c-0.1-0.7-0.5-1.3-0.9-1.8C284.9,84.5,286.9,83.1,290.7,82.5z
		"/>
	<path class="st6" d="M289.6,65.5c-0.1,1.2-0.8,2.2-1.2,2.8c0,0-0.1,0-0.1,0.1c0.5-1.3,0.4-2.2,0.1-3
		C288.8,65.3,289.2,65.4,289.6,65.5z"/>
	<path class="st8" d="M288.2,69.1c0.2-0.2,0.5-0.4,0.9-0.5c0.3-0.1,0.9,0.1,1.8,0.7c2.3,1.6,5,5.1,5.4,9c-0.9,0.6-1.4,1.4-1.6,1.7
		c-0.1,0-0.2,0-0.2,0c-0.1,0-0.1,0-0.2,0l0,0c0,0-2.3-2.3-4.1-5c0.2,0,0.3,0,0.5,0C292.3,74.3,290,68.8,288.2,69.1z"/>
	<path class="st6" d="M294.8,70c0.8,1.6,1.2,3.1,1.5,4.4c0.4,1.8,0.8,3,1.8,3.2c0.7,0.1,1.3-0.2,1.8-0.5c0.7-0.4,1.4-0.8,2.5-0.2
		c0.7,0.4,1.2,1.5,1.4,2.9c0.4,3-0.5,7.9-5,11.7c0.8-1.6,1.6-4.1,0.5-6.5c1-1.7,1.2-3.8,0.8-5.1c-0.3-1-0.9-1.7-1.7-1.9
		c-0.7-0.2-1.4,0-1.9,0.2c-0.5-3.9-2.8-7.4-5.5-9.3c-0.5-0.4-1.5-1-2.2-0.8c0,0-0.1,0-0.1,0c0.7-1,1.1-1.8,1.1-2.5
		c0.1,0,0.2,0.1,0.3,0.1C292.4,66.7,294,68.3,294.8,70z"/>
	<path class="st6" d="M274.1,58.3c4.1-1,8.6,3.6,9.9,4.9c-1.3,0-2.7,0.2-4.2,0.5c-2.9,0.7-5.3,2-7.1,3.4c0-0.4-0.1-0.8-0.2-1.3
		c2.1-3.1,4.2-5.1,4.2-5.1c-1.9,0.8-3.4,1.9-4.6,3.1C271.5,61.1,271.4,58.9,274.1,58.3z"/>
	<path class="st10" d="M269.8,99.9c-3.9,0.5-9.4-1.4-14.3-5.1c-3.9-3-6.2-6.7-7.2-10.2c-0.6-2.4-0.2-4.7,1-6.1
		c1.4-1.6,4-2.3,7.4-1.7c5.5,0.8,8.3,4.2,9,6.9c0.4,1.4,0.2,2.7-0.6,3.2c-2.1,1.6-3.7,0.1-3.7,0.1c1.2,2.8,3.2,2.8,4.1,2.6
		c-0.4,1.1,0.1,2.5,1.3,4.2c1.6,2.2,4.2,3.6,6.4,4.4C272.6,99.1,271.3,99.7,269.8,99.9z"/>
	<path class="st6" d="M267.8,92.9c-1.1-1.4-1.4-2.6-1.2-3.4c0.3-1,1.2-1.4,1.2-1.4c0,0-1,0.1-1.7,0.8c-0.3,0-2.2,0.1-3.7-1.1
		c0.8,0.3,2.1,0.4,3.3-0.5c0.9-0.7,1.2-2.2,0.7-3.8c-0.7-2.8-3.8-6.4-9.6-7.3c-3.6-0.5-6.2,0.1-7.8,1.9c-0.7,0.9-1.2,2-1.3,3.2
		c-0.2-2.1,0.2-4,0.9-5.3c2.1-3.8,5.8-3.4,11-2.2c6.3,1.6,9.2,0.8,9.2,0.8c0,0-1.3-0.2-3.3-0.6c3-3.8,3.2-9.9,3.2-9.9
		c0.1,0.4,0.1,3,0.1,3.8c-0.6,1.1-0.9,1.9-0.9,1.9c2.5-4.3,6.5-7.4,6.5-7.4c-2.7,2.7-4.4,6.4-4.9,7.7c-1.2,1.4-1.8,2.5-1.8,2.5
		c0-0.1,3.9-5.9,12-7.8c2.9-0.7,5.5-0.7,7.7-0.2c-0.8-0.1-1.6,0-2.2,0.4c-1.9,1.2-0.4,3.4-0.4,3.4s-1-2,0.9-2.9
		c0.6-0.3,1.3-0.3,2.1-0.3c0.5,1.3,0.2,2.7,0,3.4c-0.1,0.1-0.2,0.3-0.3,0.5c-0.4,1-0.1,2.7,1.1,4.7c1.7,2.9,4.4,5.5,5.2,6.2
		c-1.3,0.2-2.5,1.2-2.9,2.1c-0.5,0-1.8,0-3.3,0.4c-0.6-4.1-3.3-7.1-5.9-8.6c-1.8-1-3.8-1.3-4.7-0.9c0,0,0,0-0.1,0
		c0.4-0.8,0.5-1.5,0.6-2.1c0.4,0,0.8,0,1,0c0,0-0.4-0.1-1-0.2c0.1-2.5-2.1-3-2.1-3c1.3,0.7,1.7,1.8,1.6,3c-0.6-0.1-1.2-0.1-1.9-0.1
		c-1.3-1.6-3.7-1.3-3.7-1.3c1.5,0.1,2.4,0.7,3.1,1.3c-1.4,0.2-2.7,0.7-3.2,2c-1.1,2.8,2.9,5.9,2.9,5.9c0,0-3-3.3-2.1-5.6
		c0.3-0.9,1.5-1.5,2.8-1.8c0.7,1,0.8,2.2,0.8,2.8c-0.2,0.3-0.4,0.6-0.4,0.9c-0.2,1.1,0.4,2.6,1.9,4.2c1.6,1.8,4.5,3.8,6.1,4.8
		c-2.5-1.2-6.3-0.5-6.3-0.5c0.1,0,6.9-0.4,7.5,3.4c0.2,1.1,0,1.9-0.5,2.6c-1,1.3-3.2,1.7-4.7,1.9l-0.2,0c-2.4,0.2-3.2,2.2-3.2,2.2
		c0,0,1.1-1.2,2.6-1.5c0.1,1.3,0.9,2.1,1.5,2.6c-1.1,0.9-2,2.3-2.8,3.9C275.9,98.3,270.4,96.5,267.8,92.9z"/>
	<path class="st6" d="M251.9,110.4c-1.3-3.5-3-7.8-7.9-8.8c-4.2-0.8-7.6,1.3-9.6,3.1c1.8-2.2,5.1-4.9,10.2-4.4
		c5.1,0.5,6.9,4.8,8.4,8c0.8,1.8,1.5,3.6,2.6,4.3c-0.5,0.6-0.9,1.2-1.3,1.8C253.2,114,252.6,112.4,251.9,110.4z"/>
	<path class="st6" d="M288.1,136.9c-0.5,3.3-3.5,4.1-6.5,4.6c-3.1,0.6-6.2,0.4-7-0.4c-0.2-0.2-0.3-0.4-0.2-0.7
		c0.3-1.5,4.4-2.2,5.5-2.2c0,0-5.5-0.9-6.3,2c0,0.1,0,0.2,0,0.2c-0.6-0.2-1.6-0.7-2.1-1.4c-0.3-0.4-0.4-0.8-0.3-1.2
		c0.2-0.7,0.5-1.1,0.9-1.3c0.5-0.2,1,0,1.4,0.1c1.9,1,3.7,0.6,3.7,0.6c0,0-0.5-0.2-1.2-0.4c0.9-0.4,1.8-1.3,2.3-1.8
		c2.7,1.4,5.4,1.6,5.4,1.6c-7.4-2.5-8.4-6.1-8.8-7.5c0.1,0,0.2,0,0.3,0c2.9-0.2,6.4-1.1,9.7-3.7
		C285.9,127.3,288.7,133.2,288.1,136.9z"/>
	<path class="st11" d="M275.2,127.9c-4,0.3-7.9-0.8-8.9-1.2c-0.2-0.8-0.5-1.4-0.8-2c-0.1-0.9-0.6-5,4.2-6.4c1.7-0.5,3.3-0.7,4.8-0.9
		c3.6-0.5,6.6-1,8.8-4.3c0.1,0.1,0.2,0.2,0.3,0.2c2.2,1.9,4.4,3.6,6,4.9C286.2,124.1,281.5,127.4,275.2,127.9z"/>
	<path class="st6" d="M302.8,120.8c-0.6,0.6-1.6,0.9-2.9,0.8c-4.2-0.2-17.5-8.1-21-15.7c0,0,1.3,4.3,4.2,7.1c-2.1,3.1-5.4,3.5-8.9,4
		c-1.6,0.2-3.2,0.4-4.9,0.9c-4.3,1.2-4.5,4.5-4.4,6.1c-1.2-1.6-2.7-2.5-2.7-2.5c0.2,0.2,4.3,4.1,2.5,9.2c-0.7,1.9-1.9,3.2-3.8,4.1
		c-2.1,1-5.3,1.3-5.6,1.2c0,0,2.5,1.2,6.1-0.2c0.8,0.5,2.7,1.4,3.7,1.1l0.7-0.2c0.9-0.3,2.2-0.8,2.8-0.2c0.4,0.4,0.6,1.3,0.3,2.2
		c-0.2,0.5-0.5,1.2-1.4,1.5c0-0.3-0.1-0.5-0.2-0.8c-1.5-2.8-6.1-1-6.1-1c0,0,4.5-0.4,5.4,1.5c0.2,0.4,0.2,0.8-0.1,1.1
		c-0.7,1-3.5,1.6-6.9,1c-4.7-0.8-7.9-2.6-7.7-4.3c0.1-1.2,0.7-3,1.2-4.6c0.6-1.8,0.9-3,0.9-3.6l-0.1-0.9c-0.3-2.9-1-11.7,3.6-15.6
		c2.9-2.5,5.7-2.8,8.4-3.1c2.3-0.3,4.4-0.8,6.5-2.3c2.1-1.5,3.2-4.1,4.4-6.6c1.4-2.9,2.8-5.2,5.1-5.5c3.5-0.4,6.1,4.6,8.2,8.7
		c0.5,1,1,1.9,1.4,2.6c1.7,2.9,3.8,5.1,5.5,6.9c1.7,1.8,3.8,4.2,4.2,5.2c0,0,0-1-0.9-2.6c0.8-0.2,1.6-1.1,1.8-2
		c0.4-1.8,1.3-2.9,2.4-2.8c0.2,0,0.5,0,0.6,0.2c0.2,0.3-0.3,1.5-0.6,2l-0.1,0.1c-0.5,1-0.9,1.9-0.8,3.7
		C303.7,118.1,303.8,119.8,302.8,120.8z"/>
	<path class="st6" d="M298.9,114.1c-0.3-0.3-0.6-0.7-0.9-1c0.2-0.6,0.6-1.6,1.6-1.6c0.4,0,0.7,0.1,0.8,0.2c0.1,0.1-0.1,0.5-0.2,0.7
		C299.7,112.8,299.1,113.3,298.9,114.1z"/>
	<path class="st11" d="M292.5,106.2C292.5,106.2,292.5,106.2,292.5,106.2c-0.4-0.7-0.8-1.5-1.3-2.4c0.2-0.6,0.6-1.2,1.1-0.3
		C292.5,104.6,292.5,105.6,292.5,106.2z"/>
	<path class="st6" d="M307.6,114.7c-0.4,0.6-1.4,0.7-2.8,0.7c0.2-0.5,0.4-0.8,0.6-1.3l0.1-0.1c0.4-0.7,0.9-1.8,0.5-2.5
		c-0.2-0.4-0.7-0.7-1.3-0.7c-1.6-0.1-2.6,1-3.2,3.2c-0.2,0.7-0.9,1.4-1.3,1.4c-0.2,0-0.3-0.2-0.4-0.6c-0.4-1.4,1.8-2.9,1.8-2.9
		c0,0-0.2,0.1-0.6,0.2c0.1-0.2,0.1-0.4-0.1-0.7c0-0.1-0.1-0.1-0.2-0.2c0.5-0.5,1.7-1.5,4.1-1.4c0,0-2-1-3.8,0.3
		c-0.7-0.8-4.1-4.4-7.7-5.5c-0.6-4.8-1.5-5.3-1.5-5.3c0.2,1,0.4,2.3,0.5,3.5c-0.3-0.4-0.8-0.7-1.3,0.5c-0.3-0.6-0.7-1.3-1-2
		c0.6-1.2,1.4-2.1,3.8-4.3c0.8-0.4,2-1.4,2.6-1.9c1.8,1.8,6.7,7.2,9.6,13.2C307.6,111.7,308.2,113.8,307.6,114.7z"/>
	<path class="st8" d="M294.6,80.6c0.7,0.5-2.4,2.5-3.1,1.9C290.8,81.9,293.8,80,294.6,80.6z"/>
	<path class="st9" d="M286.7,88.3c0,0-8.7,0.8-14,5.3C272.7,93.6,276.8,88.4,286.7,88.3z"/>
	<path class="st9" d="M286.7,86.9c0,0-9.3-1-17.5,2.3C269.2,89.2,276.3,85.1,286.7,86.9z"/>
	<path class="st9" d="M298.6,78.3c0,0,2.7-5.6,7.5-8.7c0,0-5,2-7.8,8.6"/>
	<path class="st9" d="M299.7,79.5c0,0,4.6-5.5,15.3-9.3c0,0-8.8,1.7-15.3,9"/>
	<path class="st5" d="M297.6,87.1c0,0-0.4,2.7-2.2,4.8C295.4,91.8,298.2,90.2,297.6,87.1z"/>
</g>
</svg>
