<svg width="545" height="126" viewBox="0 0 545 126" fill="none" xmlns="http://www.w3.org/2000/svg">
<circle cx="58.7814" cy="62.4049" r="55.6237" stroke="#1F1F1F" stroke-width="5.56237"/>
<circle cx="201.178" cy="62.4049" r="55.6237" stroke="#1F1F1F" stroke-width="5.56237"/>
<circle cx="343.575" cy="62.4049" r="55.6237" stroke="#1F1F1F" stroke-width="5.56237"/>
<circle cx="485.972" cy="62.4049" r="55.6237" stroke="#1F1F1F" stroke-width="5.56237"/>
<line x1="114.961" y1="60.1798" x2="142.773" y2="60.1798" stroke="#1F1F1F" stroke-width="5.56237"/>
<line x1="257.358" y1="60.1798" x2="285.17" y2="60.1798" stroke="#1F1F1F" stroke-width="5.56237"/>
<line x1="399.755" y1="60.1798" x2="427.566" y2="60.1798" stroke="#1F1F1F" stroke-width="5.56237"/>
<path d="M72.0087 87.4487C68.7046 87.4487 66.094 87.1428 64.1769 86.5309C62.2597 85.919 60.8932 84.8177 60.0774 83.2269C59.3024 81.5952 58.9148 79.2702 58.9148 76.2516C58.9148 73.641 59.2004 71.5811 59.7715 70.0718C60.3833 68.5218 61.3623 67.3797 62.7084 66.6454C64.0953 65.8704 65.9513 65.3809 68.2763 65.177V56.6109H58.0582C57.1201 56.6109 56.3654 56.305 55.7944 55.6931C55.2233 55.0813 54.9378 54.347 54.9378 53.4904C54.9378 52.593 55.2233 51.8384 55.7944 51.2265C56.3654 50.6147 57.1201 50.3087 58.0582 50.3087H68.2763V42.4157C66.9302 42.5789 65.6045 42.7421 64.2992 42.9052C62.9939 43.0684 61.7498 43.2112 60.5669 43.3335C59.4247 43.4151 58.5069 43.1908 57.8135 42.6605C57.1608 42.1302 56.7733 41.4164 56.651 40.519C56.5694 39.6624 56.7937 38.8873 57.324 38.1939C57.8951 37.5004 58.6905 37.1333 59.7103 37.0925C61.913 36.9702 64.2992 36.7458 66.869 36.4195C69.4796 36.0932 72.0087 35.7057 74.4561 35.257C76.9444 34.7675 79.1063 34.2576 80.9418 33.7273C82.1248 33.3602 83.1445 33.3398 84.0011 33.6661C84.8578 33.9924 85.4084 34.6247 85.6532 35.5629C85.9387 36.5419 85.8979 37.4189 85.5308 38.1939C85.1637 38.9281 84.511 39.3972 83.5728 39.6012C82.3899 39.8867 81.0846 40.1926 79.6569 40.519C78.27 40.8045 76.822 41.0696 75.3127 41.3144V50.3087H86.1427C87.0808 50.3087 87.8355 50.6147 88.4065 51.2265C88.9776 51.8384 89.2631 52.593 89.2631 53.4904C89.2631 54.347 88.9776 55.0813 88.4065 55.6931C87.8355 56.305 87.0808 56.6109 86.1427 56.6109H75.3127V65.177C77.801 65.3401 79.7589 65.7888 81.1866 66.5231C82.6143 67.2573 83.634 68.3994 84.2459 69.9495C84.8578 71.4995 85.1637 73.6002 85.1637 76.2516C85.1637 79.2702 84.7558 81.5952 83.94 83.2269C83.1649 84.8177 81.8188 85.919 79.9017 86.5309C77.9845 87.1428 75.3535 87.4487 72.0087 87.4487ZM44.2914 87.6323C40.4978 87.6323 37.8872 86.9184 36.4596 85.4907C35.0319 84.1039 34.318 81.7584 34.318 78.4543C34.318 76.1701 34.624 74.3549 35.2358 73.0088C35.8477 71.6627 36.8675 70.7041 38.2951 70.133C39.7636 69.5212 41.7623 69.2152 44.2914 69.2152C48.0441 69.2152 50.6343 69.9087 52.062 71.2956C53.5305 72.6825 54.2647 75.0687 54.2647 78.4543C54.2647 81.7584 53.5305 84.1039 52.062 85.4907C50.6343 86.9184 48.0441 87.6323 44.2914 87.6323ZM33.9509 49.2074C33.0535 49.2074 32.3601 48.9219 31.8706 48.3508C31.3811 47.7797 31.1364 47.1067 31.1364 46.3316C31.1364 45.5566 31.3811 44.8836 31.8706 44.3125C32.3601 43.7414 33.0535 43.4559 33.9509 43.4559H53.6528C54.5095 43.4559 55.1825 43.7414 55.672 44.3125C56.1615 44.8836 56.4062 45.5566 56.4062 46.3316C56.4062 47.1067 56.1615 47.7797 55.672 48.3508C55.1825 48.9219 54.5095 49.2074 53.6528 49.2074H33.9509ZM37.0102 40.5802C36.1128 40.5802 35.399 40.2946 34.8687 39.7235C34.3792 39.1525 34.1345 38.459 34.1345 37.6432C34.1345 36.8274 34.3792 36.134 34.8687 35.5629C35.399 34.9918 36.1128 34.7063 37.0102 34.7063H50.8383C51.7765 34.7063 52.4903 34.9918 52.9798 35.5629C53.5101 36.134 53.7752 36.8274 53.7752 37.6432C53.7752 38.459 53.5101 39.1525 52.9798 39.7235C52.4903 40.2946 51.7765 40.5802 50.8383 40.5802H37.0102ZM36.8879 57.8346C36.0313 57.8346 35.3378 57.5491 34.8075 56.978C34.318 56.407 34.0733 55.7339 34.0733 54.9589C34.0733 54.1431 34.318 53.47 34.8075 52.9397C35.3378 52.3687 36.0313 52.0831 36.8879 52.0831H50.8995C51.7969 52.0831 52.4903 52.3687 52.9798 52.9397C53.5101 53.47 53.7752 54.1431 53.7752 54.9589C53.7752 55.7339 53.5101 56.407 52.9798 56.978C52.4903 57.5491 51.7969 57.8346 50.8995 57.8346H36.8879ZM36.8879 66.4007C36.0313 66.4007 35.3378 66.1355 34.8075 65.6053C34.318 65.0342 34.0733 64.3611 34.0733 63.5861C34.0733 62.7703 34.318 62.0973 34.8075 61.567C35.3378 60.9959 36.0313 60.7104 36.8879 60.7104H50.8995C51.7969 60.7104 52.4903 60.9959 52.9798 61.567C53.5101 62.0973 53.7752 62.7703 53.7752 63.5861C53.7752 64.3611 53.5101 65.0342 52.9798 65.6053C52.4903 66.1355 51.7969 66.4007 50.8995 66.4007H36.8879ZM72.0087 81.0853C73.6403 81.0853 74.8844 80.963 75.741 80.7182C76.5976 80.4735 77.1891 80.0044 77.5154 79.3109C77.8417 78.6175 78.0049 77.5977 78.0049 76.2516C78.0049 74.9055 77.8417 73.8858 77.5154 73.1923C77.1891 72.4989 76.5976 72.0298 75.741 71.7851C74.8844 71.5403 73.6403 71.4179 72.0087 71.4179C69.602 71.4179 68.0112 71.7443 67.2362 72.3969C66.4611 73.0088 66.0736 74.2529 66.0736 76.1293C66.0736 77.5162 66.2368 78.5767 66.5631 79.3109C66.8894 80.0044 67.4809 80.4735 68.3375 80.7182C69.1941 80.963 70.4178 81.0853 72.0087 81.0853ZM44.2914 81.9419C45.5559 81.9419 46.4125 81.7176 46.8612 81.2689C47.3507 80.7794 47.5954 79.8412 47.5954 78.4543C47.5954 77.0267 47.3507 76.0885 46.8612 75.6398C46.4125 75.1503 45.5559 74.9055 44.2914 74.9055C43.0269 74.9055 42.1499 75.1503 41.6604 75.6398C41.2117 76.0885 40.9873 77.0267 40.9873 78.4543C40.9873 79.8412 41.2117 80.7794 41.6604 81.2689C42.1499 81.7176 43.0269 81.9419 44.2914 81.9419Z" fill="#1F1F1F"/>
<path d="M207.002 80.4735C206.227 81.0038 205.329 81.2485 204.31 81.2077C203.29 81.1669 202.495 80.7386 201.923 79.9228C201.475 79.1886 201.312 78.4135 201.434 77.5977C201.597 76.7411 202.066 76.0885 202.841 75.6398C203.331 75.3542 203.943 74.9667 204.677 74.4772C205.452 73.9878 206.206 73.4779 206.941 72.9476C207.716 72.4173 208.328 71.989 208.776 71.6627C209.47 71.1324 210.224 70.9081 211.04 70.9896C208.307 70.6633 206.451 69.8679 205.472 68.6034C204.493 67.2981 204.004 65.2789 204.004 62.546V51.8996C204.004 49.1666 204.493 47.1679 205.472 45.9033C206.451 44.598 208.307 43.8026 211.04 43.5171C211.203 42.946 211.366 42.3545 211.53 41.7427C211.734 41.09 211.917 40.519 212.08 40.0295H203.575C202.8 40.0295 202.148 39.7643 201.618 39.2341C201.087 38.7038 200.822 38.0511 200.822 37.2761C200.822 36.5011 201.087 35.8484 201.618 35.3181C202.148 34.7879 202.8 34.5227 203.575 34.5227H227.56C228.335 34.5227 228.988 34.7879 229.518 35.3181C230.049 35.8484 230.314 36.5011 230.314 37.2761C230.314 38.0511 230.049 38.7038 229.518 39.2341C228.988 39.7643 228.335 40.0295 227.56 40.0295H218.994C218.831 40.4782 218.648 41.0288 218.444 41.6815C218.24 42.2934 218.036 42.844 217.832 43.3335C220.442 43.3743 222.441 43.6802 223.828 44.2513C225.215 44.8224 226.174 45.7198 226.704 46.9435C227.275 48.1672 227.56 49.8193 227.56 51.8996V62.546C227.56 65.1974 227.112 67.1757 226.214 68.481C225.317 69.7863 223.563 70.6021 220.952 70.9285C221.523 71.01 222.013 71.214 222.421 71.5403C222.91 71.8666 223.522 72.2745 224.256 72.764C224.991 73.2535 225.725 73.743 226.459 74.2325C227.234 74.722 227.866 75.1299 228.356 75.4562C229.09 75.8641 229.539 76.4964 229.702 77.353C229.865 78.2096 229.722 79.005 229.274 79.7392C228.743 80.5959 227.968 81.0446 226.949 81.0853C225.97 81.1261 225.072 80.8814 224.256 80.3511C223.767 80.0248 223.155 79.6169 222.421 79.1274C221.687 78.6379 220.952 78.128 220.218 77.5977C219.484 77.0675 218.892 76.6188 218.444 76.2516C217.791 75.6806 217.424 74.9667 217.342 74.1101C217.302 73.2535 217.546 72.5193 218.077 71.9074C218.444 71.5403 218.872 71.2548 219.361 71.0508C219.035 71.0916 218.668 71.112 218.26 71.112C217.893 71.112 217.505 71.112 217.098 71.112H214.528C213.916 71.112 213.324 71.112 212.753 71.112C212.223 71.0712 211.734 71.0304 211.285 70.9896C212.019 71.112 212.631 71.4791 213.12 72.091C213.651 72.7436 213.896 73.4779 213.855 74.2937C213.814 75.1095 213.467 75.8029 212.815 76.374C212.366 76.7411 211.774 77.1898 211.04 77.7201C210.347 78.2096 209.633 78.7195 208.899 79.2498C208.164 79.7392 207.532 80.1472 207.002 80.4735ZM209.511 87.9382C205.268 87.9382 201.495 87.6323 198.191 87.0204C194.887 86.4493 191.93 85.5111 189.319 84.2058C186.708 82.9005 184.322 81.2077 182.16 79.1274C181.304 81.738 180.345 84.1243 179.285 86.2862C178.877 87.102 178.224 87.6526 177.327 87.9382C176.47 88.2645 175.613 88.2441 174.757 87.877C173.941 87.5099 173.411 86.9184 173.166 86.1026C172.921 85.3276 173.003 84.5526 173.411 83.7775C174.186 82.2683 174.9 80.5755 175.552 78.6991C176.246 76.8227 176.858 74.9259 177.388 73.0088C177.918 71.0508 178.306 69.256 178.55 67.6244C178.673 66.6862 179.081 66.0132 179.774 65.6053C180.508 65.1974 181.283 65.0342 182.099 65.1158C182.997 65.2381 183.69 65.6053 184.179 66.2171C184.669 66.829 184.853 67.5632 184.73 68.4198C184.649 69.1541 184.526 69.8883 184.363 70.6225C184.241 71.3568 184.098 72.1114 183.935 72.8864C184.383 73.4167 184.853 73.9266 185.342 74.4161C185.872 74.8648 186.403 75.3135 186.933 75.7622V63.3414H177.021C176.246 63.3414 175.573 63.0558 175.002 62.4848C174.43 61.9137 174.145 61.2203 174.145 60.4044C174.145 59.5886 174.43 58.9156 175.002 58.3853C175.573 57.8142 176.246 57.5287 177.021 57.5287H199.66C200.475 57.5287 201.169 57.8142 201.74 58.3853C202.311 58.9156 202.596 59.5886 202.596 60.4044C202.596 61.2203 202.311 61.9137 201.74 62.4848C201.169 63.0558 200.475 63.3414 199.66 63.3414H193.235V67.6856H198.864C199.639 67.6856 200.292 67.9711 200.822 68.5422C201.393 69.0725 201.679 69.7251 201.679 70.5001C201.679 71.2752 201.393 71.9482 200.822 72.5193C200.292 73.0904 199.639 73.3759 198.864 73.3759H193.235V79.3721C197.273 80.9222 202.698 81.6972 209.511 81.6972C210.693 81.6972 212.101 81.6972 213.732 81.6972C215.405 81.6972 217.098 81.6972 218.811 81.6972C220.565 81.6564 222.156 81.6156 223.583 81.5748C225.052 81.534 226.153 81.4932 226.887 81.4525C227.948 81.4117 228.825 81.6564 229.518 82.1867C230.212 82.717 230.518 83.5532 230.436 84.6953C230.314 86.8572 228.947 87.9382 226.337 87.9382H209.511ZM188.279 55.0201C185.628 55.0201 183.527 54.7549 181.977 54.2246C180.468 53.6536 179.387 52.7358 178.734 51.4713C178.122 50.2068 177.816 48.5343 177.816 46.454V42.4157C177.816 40.2946 178.122 38.6222 178.734 37.3985C179.387 36.134 180.468 35.2366 181.977 34.7063C183.527 34.1352 185.628 33.8497 188.279 33.8497H189.258C191.909 33.8497 193.99 34.1352 195.499 34.7063C197.049 35.2366 198.13 36.134 198.742 37.3985C199.394 38.6222 199.721 40.2946 199.721 42.4157V46.454C199.721 48.5343 199.394 50.2068 198.742 51.4713C198.13 52.7358 197.049 53.6536 195.499 54.2246C193.99 54.7549 191.909 55.0201 189.258 55.0201H188.279ZM210.428 58.6912H221.136V55.7543H210.428V58.6912ZM214.528 65.9724H217.098C218.729 65.9724 219.79 65.8092 220.279 65.4829C220.81 65.1158 221.095 64.3 221.136 63.0354H210.428C210.469 64.3 210.755 65.1158 211.285 65.4829C211.815 65.8092 212.896 65.9724 214.528 65.9724ZM210.428 51.3489H221.136C221.095 50.166 220.81 49.3909 220.279 49.0238C219.79 48.6567 218.729 48.4732 217.098 48.4732H214.528C212.896 48.4732 211.815 48.6567 211.285 49.0238C210.795 49.3909 210.51 50.166 210.428 51.3489ZM188.279 49.9416H189.258C190.93 49.9416 192.011 49.7377 192.501 49.3298C193.031 48.9219 193.296 48.0449 193.296 46.6988H184.241C184.281 48.0449 184.547 48.9219 185.036 49.3298C185.526 49.7377 186.607 49.9416 188.279 49.9416ZM184.241 42.171H193.296C193.296 40.8249 193.031 39.9683 192.501 39.6012C192.011 39.1933 190.93 38.9893 189.258 38.9893H188.279C186.607 38.9893 185.526 39.1933 185.036 39.6012C184.547 39.9683 184.281 40.8249 184.241 42.171Z" fill="#1F1F1F"/>
<path d="M320.458 72.2745C319.479 72.6825 318.561 72.764 317.704 72.5193C316.888 72.2338 316.317 71.6627 315.991 70.8061C315.624 69.8679 315.624 69.0521 315.991 68.3586C316.358 67.6244 317.011 67.0737 317.949 66.7066C321.09 65.5237 324.333 64.1368 327.678 62.546C331.022 60.9551 334 59.3643 336.611 57.7734H327.616C327.086 57.7734 326.617 57.5899 326.209 57.2228C325.842 56.8149 325.658 56.3458 325.658 55.8155C325.658 55.2852 325.842 54.8365 326.209 54.4694C326.617 54.1023 327.086 53.9187 327.616 53.9187H337.284C337.814 53.9187 338.263 54.1023 338.63 54.4694C338.997 54.8365 339.181 55.2852 339.181 55.8155V56.1214C339.507 55.9175 339.833 55.7543 340.16 55.6319C340.486 55.4688 340.792 55.326 341.077 55.2036V46.7599H328.412C326.821 46.7599 325.72 46.9843 325.108 47.433C324.496 47.8817 324.19 48.7995 324.19 50.1864V53.6128C324.19 54.6326 323.864 55.4484 323.211 56.0602C322.558 56.6721 321.763 56.978 320.825 56.978C319.887 56.978 319.071 56.6721 318.377 56.0602C317.725 55.4484 317.398 54.6326 317.398 53.6128V50.1252C317.398 47.229 318.173 45.1283 319.723 43.823C321.314 42.5177 324.149 41.8651 328.228 41.8651H341.077V39.2952H322.905C322.171 39.2952 321.539 39.0301 321.008 38.4998C320.478 37.9695 320.213 37.3169 320.213 36.5419C320.213 35.8076 320.478 35.1754 321.008 34.6451C321.539 34.1148 322.171 33.8497 322.905 33.8497H366.531C367.265 33.8497 367.897 34.1148 368.427 34.6451C368.958 35.1754 369.223 35.8076 369.223 36.5419C369.223 37.3169 368.958 37.9695 368.427 38.4998C367.897 39.0301 367.265 39.2952 366.531 39.2952H348.053V41.8651H361.024C365.144 41.8651 367.979 42.5177 369.529 43.823C371.12 45.1283 371.915 47.229 371.915 50.1252V53.6128C371.915 54.6326 371.568 55.4484 370.875 56.0602C370.222 56.6721 369.427 56.978 368.489 56.978C367.55 56.978 366.735 56.6721 366.041 56.0602C365.389 55.4484 365.062 54.6326 365.062 53.6128V50.1864C365.062 48.7995 364.756 47.8817 364.144 47.433C363.533 46.9843 362.452 46.7599 360.902 46.7599H348.053V55.3872C348.379 55.4688 348.685 55.5911 348.97 55.7543C349.256 55.8767 349.562 56.0398 349.888 56.2438C349.847 56.1622 349.827 56.0194 349.827 55.8155C349.827 55.2852 350.01 54.8365 350.378 54.4694C350.785 54.1023 351.255 53.9187 351.785 53.9187H361.452C361.983 53.9187 362.431 54.1023 362.798 54.4694C363.165 54.8365 363.349 55.2852 363.349 55.8155C363.349 56.3458 363.165 56.8149 362.798 57.2228C362.431 57.5899 361.983 57.7734 361.452 57.7734H352.703C355.395 59.1603 358.373 60.486 361.636 61.7505C364.899 63.015 368.04 64.1164 371.058 65.0546C371.956 65.3401 372.649 65.85 373.139 66.5842C373.628 67.2777 373.71 68.0731 373.384 68.9705C373.016 70.0311 372.405 70.7449 371.548 71.112C370.732 71.4791 369.835 71.4995 368.856 71.1732C366.979 70.6021 365.042 69.9087 363.043 69.0929C361.085 68.2363 359.107 67.3593 357.108 66.4619V66.6454C357.149 67.3389 356.904 67.9507 356.374 68.481C355.884 68.9705 355.293 69.2152 354.599 69.2152H334.53C333.878 69.2152 333.307 69.0113 332.817 68.6034C332.368 68.1547 332.103 67.604 332.022 66.9514C330.145 67.8895 328.208 68.8277 326.209 69.7659C324.251 70.6633 322.334 71.4995 320.458 72.2745ZM341.873 89.5902C340.894 89.5902 340.037 89.2639 339.303 88.6112C338.609 87.9586 338.263 87.102 338.263 86.0414V77.1082H324.985C324.251 77.1082 323.619 76.8431 323.089 76.3128C322.599 75.7825 322.354 75.1707 322.354 74.4772C322.354 73.743 322.599 73.1312 323.089 72.6417C323.619 72.1114 324.251 71.8462 324.985 71.8462H356.435C359.861 71.8462 362.248 72.4173 363.594 73.5595C364.94 74.7016 365.613 76.6799 365.613 79.4945C365.613 82.717 364.838 84.9809 363.288 86.2862C361.738 87.6323 359.148 88.3053 355.517 88.3053C354.62 88.3053 353.865 88.0198 353.253 87.4487C352.641 86.8776 352.295 86.0822 352.213 85.0624C352.172 84.2058 352.438 83.4716 353.009 82.8597C353.62 82.2071 354.436 81.8604 355.456 81.8196C356.721 81.738 357.557 81.5544 357.965 81.2689C358.413 80.9426 358.638 80.3307 358.638 79.4333C358.638 78.4951 358.454 77.8833 358.087 77.5977C357.761 77.2714 357.128 77.1082 356.19 77.1082H345.483V86.0414C345.483 87.102 345.136 87.9586 344.443 88.6112C343.749 89.2639 342.892 89.5902 341.873 89.5902ZM327.616 52.3891C327.086 52.3891 326.617 52.2055 326.209 51.8384C325.842 51.4305 325.658 50.9614 325.658 50.4311C325.658 49.9008 325.842 49.4521 326.209 49.085C326.617 48.6771 327.086 48.4732 327.616 48.4732H337.284C337.814 48.4732 338.263 48.6771 338.63 49.085C338.997 49.4521 339.181 49.9008 339.181 50.4311C339.181 50.9614 338.997 51.4305 338.63 51.8384C338.263 52.2055 337.814 52.3891 337.284 52.3891H327.616ZM351.785 52.3891C351.255 52.3891 350.785 52.2055 350.378 51.8384C350.01 51.4305 349.827 50.9614 349.827 50.4311C349.827 49.9008 350.01 49.4521 350.378 49.085C350.785 48.6771 351.255 48.4732 351.785 48.4732H361.452C361.983 48.4732 362.431 48.6771 362.798 49.085C363.165 49.4521 363.349 49.9008 363.349 50.4311C363.349 50.9614 363.165 51.4305 362.798 51.8384C362.431 52.2055 361.983 52.3891 361.452 52.3891H351.785ZM337.223 64.0756H352.397C351.499 63.5861 350.602 63.0966 349.705 62.6071C348.848 62.1177 348.012 61.6078 347.196 61.0775C346.054 60.384 345.177 60.0373 344.565 60.0373C343.953 60.0373 343.137 60.384 342.117 61.0775C341.424 61.567 340.669 62.0565 339.854 62.546C339.038 63.0354 338.161 63.5453 337.223 64.0756Z" fill="#1F1F1F"/>
<path d="M464.323 88.9783C463.303 89.1415 462.406 88.958 461.631 88.4277C460.896 87.9382 460.427 87.204 460.223 86.225C460.06 85.2868 460.223 84.4506 460.713 83.7163C461.202 82.9821 461.957 82.5334 462.977 82.3703L470.992 81.0242V58.6912C470.992 55.2648 471.767 52.8582 473.317 51.4713C474.867 50.0844 477.559 49.3909 481.394 49.3909H483.168V46.6988C483.168 45.5566 483.515 44.6796 484.208 44.0678C484.942 43.4559 485.819 43.15 486.839 43.15C487.859 43.15 488.716 43.4559 489.409 44.0678C490.143 44.6796 490.51 45.5566 490.51 46.6988V49.3909H492.346C496.221 49.3909 498.934 50.0844 500.484 51.4713C502.034 52.8582 502.809 55.2648 502.809 58.6912V62.3624C502.809 65.8296 502.034 68.2771 500.484 69.7047C498.934 71.0916 496.221 71.7851 492.346 71.7851H491.122C491.816 72.5193 492.53 73.2127 493.264 73.8654C494.039 74.518 494.855 75.1503 495.711 75.7622C496.649 75.1095 497.771 74.3141 499.076 73.3759C500.382 72.4377 501.646 71.5199 502.87 70.6225C504.094 69.7251 505.052 68.9909 505.746 68.4198C506.48 67.808 507.296 67.5428 508.193 67.6244C509.131 67.6652 509.927 68.0323 510.579 68.7258C511.191 69.4192 511.477 70.2146 511.436 71.112C511.395 72.0094 511.008 72.7436 510.274 73.3147C509.662 73.8042 508.866 74.3957 507.887 75.0891C506.908 75.7418 505.868 76.4352 504.767 77.1694C503.706 77.9037 502.686 78.5767 501.707 79.1886C503.298 79.9228 504.93 80.5551 506.602 81.0853C508.275 81.6156 509.927 82.0439 511.558 82.3703C512.497 82.5334 513.19 83.0229 513.639 83.8387C514.128 84.6137 514.251 85.4907 514.006 86.4697C513.761 87.4895 513.17 88.2237 512.231 88.6724C511.293 89.1211 510.294 89.2027 509.233 88.9172C505.807 88.0606 502.462 86.8368 499.199 85.246C495.976 83.6959 492.999 81.7992 490.266 79.5557C487.533 77.2714 485.248 74.6812 483.413 71.7851H478.09V79.8004C480.088 79.4741 481.822 79.1682 483.29 78.8826C484.8 78.5971 485.738 78.4339 486.105 78.3932C486.921 78.23 487.675 78.3728 488.369 78.8215C489.062 79.2702 489.491 79.9228 489.654 80.7794C489.858 81.6768 489.756 82.4518 489.348 83.1045C488.981 83.7571 488.349 84.1854 487.451 84.3894C487.206 84.4302 486.513 84.5729 485.371 84.8177C484.229 85.0624 482.821 85.348 481.149 85.6743C479.517 86.0006 477.784 86.3473 475.948 86.7145C474.113 87.0816 472.359 87.4283 470.686 87.7546C469.014 88.081 467.606 88.3461 466.464 88.55C465.322 88.7948 464.608 88.9376 464.323 88.9783ZM462.854 54.9589C461.957 55.3668 461.039 55.4688 460.101 55.2648C459.163 55.0609 458.469 54.551 458.021 53.7352C457.531 52.9193 457.429 52.0627 457.715 51.1653C458 50.2272 458.612 49.5541 459.55 49.1462C462.079 48.0041 464.649 46.658 467.26 45.1079C469.87 43.5171 472.338 41.8855 474.663 40.213C477.029 38.4998 479.089 36.8886 480.843 35.3793C482.964 33.5437 484.902 32.626 486.656 32.626C488.41 32.626 490.408 33.5234 492.652 35.3181C494.569 36.8274 496.751 38.3978 499.199 40.0295C501.646 41.6611 504.196 43.2112 506.847 44.6796C509.499 46.1073 512.028 47.2902 514.434 48.2284C515.372 48.5955 515.984 49.2482 516.27 50.1864C516.596 51.0838 516.535 52.0016 516.086 52.9397C515.678 53.8371 514.985 54.4286 514.006 54.7141C513.027 54.9997 512.048 54.9385 511.069 54.5306C509.274 53.7148 507.357 52.7562 505.317 51.6548C503.278 50.5127 501.238 49.3094 499.199 48.0449C497.2 46.7395 495.303 45.4342 493.509 44.1289C491.714 42.7828 490.164 41.5183 488.858 40.3354C488.124 39.642 487.492 39.2952 486.962 39.2952C486.472 39.2952 485.84 39.6216 485.065 40.2742C483.76 41.3756 482.23 42.5789 480.476 43.8842C478.722 45.1895 476.846 46.5152 474.847 47.8613C472.848 49.2074 470.809 50.4923 468.728 51.716C466.689 52.9397 464.731 54.0207 462.854 54.9589ZM478.09 66.3395H491.245C492.999 66.3395 494.161 66.1559 494.732 65.7888C495.303 65.3809 495.609 64.4835 495.65 63.0966H478.09V66.3395ZM478.09 58.0794H495.65C495.609 56.6925 495.303 55.8155 494.732 55.4484C494.161 55.0813 492.999 54.8977 491.245 54.8977H482.495C480.7 54.8977 479.538 55.0813 479.007 55.4484C478.477 55.8155 478.171 56.6925 478.09 58.0794Z" fill="#1F1F1F"/>
</svg>
