<svg width="251" height="64" viewBox="0 0 251 64" fill="none" xmlns="http://www.w3.org/2000/svg">
<rect x="128.667" y="7.66736" width="120.05" height="48.435" rx="24.2175" fill="white"/>
<path d="M152.829 39C151.78 39 151.255 38.457 151.255 37.371V27.3484C151.255 26.2624 151.724 25.7194 152.663 25.7194C153.584 25.7194 154.071 25.9586 154.127 26.4372L154.237 27.3208C154.495 26.7686 154.927 26.3084 155.535 25.9402C156.142 25.5721 156.842 25.388 157.633 25.388C158.498 25.388 159.253 25.5905 159.897 25.9955C160.541 26.4004 161.038 26.9802 161.388 27.7349C161.738 27.0539 162.244 26.4924 162.907 26.0507C163.588 25.6089 164.361 25.388 165.226 25.388C166.533 25.388 167.582 25.8482 168.374 26.7686C169.183 27.6705 169.588 28.9498 169.588 30.6064V37.371C169.588 38.457 169.073 39 168.042 39C166.975 39 166.441 38.457 166.441 37.371V31.3243C166.441 30.3487 166.266 29.5848 165.916 29.0326C165.566 28.4804 165.079 28.2043 164.453 28.2043C163.661 28.2043 163.045 28.4896 162.603 29.0602C162.18 29.6308 161.968 30.4407 161.968 31.4899V37.371C161.968 38.457 161.453 39 160.422 39C159.373 39 158.848 38.457 158.848 37.371V31.3243C158.848 30.3487 158.664 29.5848 158.296 29.0326C157.928 28.4804 157.431 28.2043 156.805 28.2043C156.032 28.2043 155.433 28.4988 155.01 29.0878C154.587 29.6584 154.375 30.4592 154.375 31.4899V37.371C154.375 38.457 153.86 39 152.829 39ZM178.676 39.3037C177.461 39.3037 176.366 39.0184 175.39 38.4478C174.433 37.8588 173.669 37.0489 173.099 36.0181C172.546 34.9689 172.27 33.7448 172.27 32.3459C172.27 30.9469 172.546 29.7321 173.099 28.7013C173.669 27.6521 174.433 26.8422 175.39 26.2716C176.366 25.6825 177.461 25.388 178.676 25.388C179.928 25.388 181.032 25.6825 181.989 26.2716C182.965 26.8422 183.729 27.6521 184.281 28.7013C184.833 29.7321 185.109 30.9469 185.109 32.3459C185.109 33.7448 184.833 34.9689 184.281 36.0181C183.729 37.0489 182.965 37.8588 181.989 38.4478C181.032 39.0184 179.928 39.3037 178.676 39.3037ZM178.676 36.4874C179.651 36.4874 180.443 36.1285 181.05 35.4106C181.676 34.6928 181.989 33.6712 181.989 32.3459C181.989 31.0206 181.676 29.999 181.05 29.2811C180.443 28.5632 179.651 28.2043 178.676 28.2043C177.719 28.2043 176.936 28.5632 176.329 29.2811C175.722 29.999 175.418 31.0206 175.418 32.3459C175.418 33.6712 175.722 34.6928 176.329 35.4106C176.936 36.1285 177.719 36.4874 178.676 36.4874ZM189.364 39C188.315 39 187.79 38.457 187.79 37.371V27.3484C187.79 26.2624 188.333 25.7194 189.419 25.7194C189.788 25.7194 190.11 25.8114 190.386 25.9955C190.662 26.1611 190.8 26.4832 190.8 26.9618V27.5969C191.131 26.9342 191.647 26.4004 192.346 25.9955C193.064 25.5905 193.819 25.388 194.61 25.388C195.181 25.388 195.613 25.5445 195.908 25.8574C196.221 26.1519 196.377 26.5569 196.377 27.0723C196.377 27.5508 196.258 27.9006 196.018 28.1215C195.779 28.3423 195.503 28.4344 195.19 28.3976C195.043 28.3792 194.886 28.37 194.721 28.37C194.555 28.3516 194.371 28.3423 194.168 28.3423C193.266 28.3423 192.493 28.6369 191.849 29.2259C191.223 29.8149 190.91 30.6432 190.91 31.7108V37.371C190.91 38.457 190.395 39 189.364 39ZM204.131 39.3037C202.199 39.3037 200.634 38.7239 199.438 37.5643C198.241 36.3862 197.643 34.6467 197.643 32.3459C197.643 30.9101 197.91 29.6769 198.444 28.6461C198.977 27.5969 199.723 26.7962 200.68 26.244C201.637 25.6733 202.732 25.388 203.966 25.388C205.199 25.388 206.248 25.6733 207.113 26.244C207.978 26.8146 208.641 27.5508 209.101 28.4528C209.561 29.3547 209.791 30.2935 209.791 31.2691C209.791 31.9501 209.653 32.4011 209.377 32.622C209.101 32.8245 208.696 32.9257 208.162 32.9257H200.708C200.781 34.251 201.131 35.199 201.757 35.7696C202.383 36.3218 203.193 36.5979 204.187 36.5979C205.309 36.5979 206.184 36.2113 206.81 35.4382C207.178 35.0517 207.518 34.8032 207.831 34.6928C208.162 34.5639 208.512 34.6283 208.88 34.886C209.248 35.1437 209.46 35.4751 209.515 35.88C209.571 36.285 209.405 36.7083 209.018 37.1501C208.393 37.9048 207.675 38.457 206.865 38.8067C206.055 39.1381 205.144 39.3037 204.131 39.3037ZM200.846 30.5236H206.727C206.579 29.6584 206.257 28.9958 205.76 28.5356C205.282 28.057 204.665 27.8177 203.91 27.8177C203.101 27.8177 202.429 28.0386 201.895 28.4804C201.379 28.9222 201.03 29.6032 200.846 30.5236Z" fill="#1F1F1F"/>
<path d="M229.814 32.8848L223.343 39.356L216.871 32.8848L223.343 26.4136L229.814 32.8848Z" fill="#1F1F1F"/>
<rect x="128.667" y="7.66736" width="120.05" height="48.435" rx="24.2175" stroke="#1F1F1F" stroke-width="3.33471"/>
</svg>
