<svg width="70" height="615" viewBox="0 0 70 615" fill="none" xmlns="http://www.w3.org/2000/svg">
<circle cx="35.0044" cy="35.4526" r="32.8178" stroke="#1F1F1F" stroke-width="3.28178"/>
<path d="M33.8973 48.9666C31.8517 48.9666 30.155 48.8222 28.8073 48.5334C27.4596 48.2687 26.3886 47.7874 25.5944 47.0894C24.8243 46.3674 24.2708 45.3807 23.9338 44.1293C23.5969 42.8778 23.4284 41.2774 23.4284 39.328V29.7255C23.4284 27.7762 23.5969 26.1757 23.9338 24.9243C24.2708 23.6728 24.8243 22.6981 25.5944 22.0002C26.3886 21.2782 27.4596 20.7849 28.8073 20.5201C30.155 20.2313 31.8517 20.0869 33.8973 20.0869H36.6409C38.6865 20.0869 40.3832 20.2313 41.7309 20.5201C43.0786 20.7849 44.1376 21.2782 44.9077 22.0002C45.7019 22.6981 46.2674 23.6728 46.6044 24.9243C46.9413 26.1757 47.1098 27.7762 47.1098 29.7255V39.328C47.1098 41.2774 46.9413 42.8778 46.6044 44.1293C46.2674 45.3807 45.7019 46.3674 44.9077 47.0894C44.1376 47.7874 43.0786 48.2687 41.7309 48.5334C40.3832 48.8222 38.6865 48.9666 36.6409 48.9666H33.8973ZM33.8973 44.9235H36.6409C38.3496 44.9235 39.6251 44.7911 40.4674 44.5264C41.3338 44.2376 41.9114 43.6961 42.2002 42.9019C42.5131 42.1077 42.6695 40.9164 42.6695 39.328V36.2235H27.8687V39.328C27.8687 40.9164 28.0131 42.1077 28.3019 42.9019C28.6147 43.6961 29.2044 44.2376 30.0708 44.5264C30.9371 44.7911 32.2127 44.9235 33.8973 44.9235ZM27.8687 32.2886H42.6695V29.7255C42.6695 28.1372 42.5131 26.9459 42.2002 26.1517C41.9114 25.3334 41.3338 24.7919 40.4674 24.5272C39.6251 24.2625 38.3496 24.1301 36.6409 24.1301H33.8973C32.2127 24.1301 30.9371 24.2625 30.0708 24.5272C29.2044 24.7919 28.6147 25.3334 28.3019 26.1517C28.0131 26.9459 27.8687 28.1372 27.8687 29.7255V32.2886Z" fill="#1F1F1F"/>
<g clip-path="url(#clip0_45_948)">
<path d="M16.4735 526.767C7.84184 515.3 7.84184 499.294 16.4735 487.828C23.9097 477.938 23.9097 464.106 16.4735 454.216C7.84184 442.749 7.84184 426.743 16.4735 415.276C23.9097 405.386 23.9097 391.555 16.4735 381.664C7.84184 370.198 7.84184 354.192 16.4735 342.725C23.9097 332.835 23.9097 319.003 16.4735 309.113C7.84184 297.646 7.84184 281.641 16.4735 270.174C23.9097 260.284 23.9097 246.452 16.4735 236.562C7.84184 225.095 7.84184 209.09 16.4735 197.623C23.9097 187.733 23.9097 173.901 16.4735 164.011C7.84184 152.544 7.84184 136.538 16.4735 125.072C23.9097 115.181 23.9097 101.35 16.4735 91.4596L20.0123 88.8079C28.6439 100.275 28.6439 116.28 20.0123 127.747C12.5761 137.637 12.5761 151.469 20.0123 161.359C28.6439 172.826 28.6439 188.832 20.0123 200.298C12.5761 210.188 12.5761 224.02 20.0123 233.91C28.6439 245.377 28.6439 261.383 20.0123 272.85C12.5761 282.74 12.5761 296.571 20.0123 306.462C28.6439 317.928 28.6439 333.934 20.0123 345.401C12.5761 355.291 12.5761 369.123 20.0123 379.013C28.6439 390.48 28.6439 406.485 20.0123 417.952C12.5761 427.842 12.5761 441.674 20.0123 451.564C28.6439 463.031 28.6439 479.036 20.0123 490.503C12.5761 500.393 12.5761 514.225 20.0123 524.115L16.4735 526.767Z" fill="#1F1F1F"/>
<path d="M33.235 526.767C24.6033 515.3 24.6033 499.294 33.235 487.828C40.6711 477.938 40.6711 464.106 33.235 454.216C24.6033 442.749 24.6033 426.743 33.235 415.276C40.6711 405.386 40.6711 391.555 33.235 381.664C24.6033 370.198 24.6033 354.192 33.235 342.725C40.6711 332.835 40.6711 319.003 33.235 309.113C24.6033 297.646 24.6033 281.641 33.235 270.174C40.6711 260.284 40.6711 246.452 33.235 236.562C24.6033 225.095 24.6033 209.09 33.235 197.623C40.6711 187.733 40.6711 173.901 33.235 164.011C24.6033 152.544 24.6033 136.538 33.235 125.072C40.6711 115.181 40.6711 101.35 33.235 91.4596L36.7737 88.8079C45.4054 100.275 45.4054 116.28 36.7737 127.747C29.3376 137.637 29.3376 151.469 36.7737 161.359C45.4054 172.826 45.4054 188.832 36.7737 200.298C29.3376 210.188 29.3376 224.02 36.7737 233.91C45.4054 245.377 45.4054 261.383 36.7737 272.85C29.3376 282.74 29.3376 296.571 36.7737 306.462C45.4054 317.928 45.4054 333.934 36.7737 345.401C29.3376 355.291 29.3376 369.123 36.7737 379.013C45.4054 390.48 45.4054 406.485 36.7737 417.952C29.3376 427.842 29.3376 441.674 36.7737 451.564C45.4054 463.031 45.4054 479.036 36.7737 490.503C29.3376 500.393 29.3376 514.225 36.7737 524.115L33.235 526.767Z" fill="#1F1F1F"/>
<path d="M51.2368 523.754L50.3643 524.408C43.1574 513.655 43.4788 499.258 51.3284 488.83L51.329 488.83C59.2114 478.346 59.2114 463.697 51.329 453.214L51.3284 453.213C43.1437 442.34 43.1437 427.152 51.3284 416.279L51.329 416.278C59.2114 405.795 59.2114 391.146 51.329 380.662L51.3284 380.662C43.1437 369.789 43.1437 354.601 51.3284 343.728L51.329 343.727C59.2114 333.244 59.2114 318.595 51.329 308.111L51.3284 308.11C43.1437 297.238 43.1437 282.05 51.3284 271.177L51.329 271.176C59.2114 260.692 59.2114 246.044 51.329 235.56L51.3284 235.559C43.1437 224.686 43.1437 209.498 51.3284 198.626L51.329 198.625C59.2114 188.141 59.2114 173.492 51.329 163.009L51.3284 163.008C43.1437 152.135 43.1437 136.947 51.3284 126.074L51.329 126.074C58.8752 116.037 59.197 102.183 52.2945 91.821L53.167 91.1672C60.3739 101.92 60.0525 116.317 52.2029 126.744L52.2023 126.745C44.32 137.229 44.32 151.878 52.2023 162.361L52.2029 162.362C60.3876 173.235 60.3876 188.423 52.2029 199.296L52.2023 199.296C44.32 209.78 44.32 224.429 52.2023 234.912L52.2029 234.913C60.3876 245.786 60.3876 260.974 52.2029 271.847L52.2023 271.848C44.32 282.331 44.32 296.98 52.2023 307.464L52.2029 307.464C60.3876 318.337 60.3876 333.525 52.2029 344.398L52.2023 344.399C44.32 354.882 44.32 369.531 52.2023 380.015L52.2029 380.016C60.3876 390.889 60.3876 406.076 52.2029 416.949L52.2023 416.95C44.32 427.434 44.32 442.082 52.2023 452.566L52.2029 452.567C60.3876 463.44 60.3876 478.628 52.2029 489.5L52.2023 489.501C44.6561 499.538 44.3343 513.392 51.2368 523.754Z" fill="#1F1F1F" stroke="#1F1F1F" stroke-width="3.33471"/>
</g>
<circle cx="35.0044" cy="580.123" r="32.8178" stroke="#1F1F1F" stroke-width="3.28178"/>
<path d="M35.2691 596.019C34.6674 596.019 34.162 595.827 33.7529 595.442C33.3438 595.056 33.1392 594.539 33.1392 593.889V589.666H28.7712C28.2417 589.666 27.7724 589.473 27.3633 589.088C26.9782 588.679 26.7857 588.21 26.7857 587.68C26.7857 587.127 26.9782 586.657 27.3633 586.272C27.7724 585.887 28.2417 585.695 28.7712 585.695H33.1392V577.031C32.1525 578.499 31.0454 579.979 29.8181 581.471C28.5907 582.963 27.2911 584.383 25.9193 585.731C24.5716 587.078 23.2239 588.294 21.8761 589.377C21.3948 589.762 20.8293 589.966 20.1795 589.99C19.5297 589.99 19.0002 589.738 18.5911 589.232C18.206 588.751 18.0616 588.222 18.1579 587.644C18.2782 587.066 18.5911 586.597 19.0965 586.236C20.5405 585.153 22.0085 583.89 23.5006 582.446C25.0168 580.978 26.4488 579.449 27.7965 577.861C29.1442 576.249 30.2874 574.72 31.2259 573.276H20.721C20.1915 573.276 19.7342 573.084 19.3492 572.699C18.9641 572.314 18.7716 571.856 18.7716 571.327C18.7716 570.773 18.9641 570.316 19.3492 569.955C19.7342 569.57 20.1915 569.378 20.721 569.378H33.1392V564.432C33.1392 563.806 33.3438 563.301 33.7529 562.916C34.162 562.507 34.6674 562.302 35.2691 562.302C35.8467 562.302 36.3401 562.507 36.7492 562.916C37.1583 563.301 37.3629 563.806 37.3629 564.432V569.378H49.7811C50.3347 569.378 50.7919 569.57 51.1529 569.955C51.538 570.316 51.7305 570.773 51.7305 571.327C51.7305 571.856 51.538 572.314 51.1529 572.699C50.7919 573.084 50.3347 573.276 49.7811 573.276H39.3845C40.3471 574.768 41.5143 576.309 42.8861 577.897C44.2579 579.461 45.7139 580.966 47.2542 582.41C48.7944 583.854 50.2986 585.141 51.7666 586.272C52.2239 586.609 52.4525 587.066 52.4525 587.644C52.4766 588.222 52.3201 588.715 51.9832 589.124C51.5982 589.581 51.1048 589.858 50.5031 589.954C49.9015 590.051 49.3479 589.894 48.8425 589.485C47.543 588.402 46.2073 587.187 44.8355 585.839C43.4637 584.491 42.1401 583.059 40.8645 581.543C39.589 580.003 38.4218 578.439 37.3629 576.85V585.695H41.8753C42.4289 585.695 42.8981 585.887 43.2832 586.272C43.6683 586.657 43.8608 587.127 43.8608 587.68C43.8608 588.21 43.6683 588.679 43.2832 589.088C42.8981 589.473 42.4289 589.666 41.8753 589.666H37.3629V593.889C37.3629 594.539 37.1583 595.056 36.7492 595.442C36.3401 595.827 35.8467 596.019 35.2691 596.019Z" fill="#1F1F1F"/>
<defs>
<clipPath id="clip0_45_948">
<rect width="50.0207" height="437.959" fill="white" transform="translate(9.99408 88.8079)"/>
</clipPath>
</defs>
</svg>
