<svg width="70" height="615" viewBox="0 0 70 615" fill="none" xmlns="http://www.w3.org/2000/svg">
<circle cx="35.1008" cy="35.4526" r="32.8178" stroke="#1F1F1F" stroke-width="3.28178"/>
<path d="M21.07 41.3857C20.4924 41.6264 19.9509 41.6745 19.4456 41.5301C18.9642 41.3616 18.6273 41.0247 18.4348 40.5193C18.2182 39.9658 18.2182 39.4845 18.4348 39.0753C18.6514 38.6421 19.0364 38.3172 19.5899 38.1006C21.4431 37.4027 23.3563 36.5845 25.3298 35.6459C27.3032 34.7073 29.0601 33.7687 30.6003 32.8301H25.2937C24.9808 32.8301 24.7041 32.7218 24.4634 32.5052C24.2468 32.2645 24.1385 31.9878 24.1385 31.6749C24.1385 31.362 24.2468 31.0973 24.4634 30.8807C24.7041 30.6641 24.9808 30.5558 25.2937 30.5558H30.9974C31.3103 30.5558 31.575 30.6641 31.7916 30.8807C32.0082 31.0973 32.1165 31.362 32.1165 31.6749V31.8554C32.309 31.7351 32.5016 31.6388 32.6941 31.5666C32.8866 31.4703 33.0671 31.3861 33.2356 31.3139V26.3322H25.763C24.8244 26.3322 24.1746 26.4645 23.8136 26.7293C23.4526 26.994 23.2721 27.5355 23.2721 28.3538V30.3753C23.2721 30.977 23.0796 31.4583 22.6945 31.8193C22.3095 32.1803 21.8402 32.3608 21.2866 32.3608C20.7331 32.3608 20.2518 32.1803 19.8426 31.8193C19.4576 31.4583 19.2651 30.977 19.2651 30.3753V28.3176C19.2651 26.6089 19.7223 25.3695 20.6368 24.5994C21.5754 23.8293 23.248 23.4442 25.6547 23.4442H33.2356V21.928H22.514C22.0808 21.928 21.7078 21.7716 21.3949 21.4587C21.0821 21.1459 20.9256 20.7608 20.9256 20.3035C20.9256 19.8703 21.0821 19.4973 21.3949 19.1845C21.7078 18.8716 22.0808 18.7152 22.514 18.7152H48.253C48.6862 18.7152 49.0593 18.8716 49.3721 19.1845C49.685 19.4973 49.8414 19.8703 49.8414 20.3035C49.8414 20.7608 49.685 21.1459 49.3721 21.4587C49.0593 21.7716 48.6862 21.928 48.253 21.928H37.351V23.4442H45.0041C47.4348 23.4442 49.1074 23.8293 50.0219 24.5994C50.9605 25.3695 51.4298 26.6089 51.4298 28.3176V30.3753C51.4298 30.977 51.2252 31.4583 50.8161 31.8193C50.431 32.1803 49.9617 32.3608 49.4082 32.3608C48.8547 32.3608 48.3734 32.1803 47.9642 31.8193C47.5792 31.4583 47.3866 30.977 47.3866 30.3753V28.3538C47.3866 27.5355 47.2061 26.994 46.8451 26.7293C46.4841 26.4645 45.8464 26.3322 44.9319 26.3322H37.351V31.4222C37.5435 31.4703 37.724 31.5425 37.8924 31.6388C38.0609 31.711 38.2414 31.8073 38.4339 31.9276C38.4099 31.8795 38.3978 31.7952 38.3978 31.6749C38.3978 31.362 38.5061 31.0973 38.7227 30.8807C38.9634 30.6641 39.2402 30.5558 39.553 30.5558H45.2568C45.5696 30.5558 45.8344 30.6641 46.051 30.8807C46.2676 31.0973 46.3759 31.362 46.3759 31.6749C46.3759 31.9878 46.2676 32.2645 46.051 32.5052C45.8344 32.7218 45.5696 32.8301 45.2568 32.8301H40.0945C41.6829 33.6484 43.4398 34.4305 45.3651 35.1766C47.2904 35.9226 49.1435 36.5724 50.9244 37.126C51.4539 37.2944 51.863 37.5952 52.1518 38.0284C52.4406 38.4376 52.4887 38.9069 52.2962 39.4363C52.0796 40.0621 51.7186 40.4832 51.2132 40.6998C50.7319 40.9164 50.2024 40.9284 49.6248 40.7359C48.5178 40.399 47.3746 39.9899 46.1954 39.5085C45.0402 39.0031 43.8729 38.4857 42.6937 37.9562V38.0645C42.7178 38.4737 42.5734 38.8347 42.2605 39.1475C41.9717 39.4363 41.6227 39.5807 41.2136 39.5807H29.3729C28.9879 39.5807 28.6509 39.4604 28.3622 39.2197C28.0974 38.955 27.941 38.6301 27.8929 38.245C26.7858 38.7986 25.6426 39.3521 24.4634 39.9056C23.3082 40.4351 22.1771 40.9284 21.07 41.3857ZM33.7049 51.6019C33.1273 51.6019 32.6219 51.4094 32.1887 51.0243C31.7796 50.6392 31.575 50.1338 31.575 49.5081V44.2376H23.7414C23.3082 44.2376 22.9352 44.0811 22.6223 43.7683C22.3335 43.4554 22.1891 43.0944 22.1891 42.6853C22.1891 42.2521 22.3335 41.8911 22.6223 41.6023C22.9352 41.2894 23.3082 41.133 23.7414 41.133H42.2966C44.3182 41.133 45.7261 41.4699 46.5202 42.1438C47.3144 42.8177 47.7115 43.9849 47.7115 45.6455C47.7115 47.5467 47.2543 48.8824 46.3398 49.6525C45.4252 50.4467 43.897 50.8438 41.7551 50.8438C41.2256 50.8438 40.7804 50.6753 40.4194 50.3384C40.0584 50.0015 39.8539 49.5322 39.8057 48.9305C39.7817 48.4251 39.9381 47.9919 40.275 47.6309C40.636 47.2459 41.1173 47.0413 41.719 47.0172C42.4651 46.9691 42.9584 46.8608 43.1991 46.6923C43.4638 46.4998 43.5962 46.1388 43.5962 45.6094C43.5962 45.0558 43.4879 44.6948 43.2713 44.5264C43.0788 44.3338 42.7057 44.2376 42.1522 44.2376H35.8348V49.5081C35.8348 50.1338 35.6302 50.6392 35.2211 51.0243C34.8119 51.4094 34.3066 51.6019 33.7049 51.6019ZM25.2937 29.6533C24.9808 29.6533 24.7041 29.545 24.4634 29.3284C24.2468 29.0878 24.1385 28.811 24.1385 28.4981C24.1385 28.1853 24.2468 27.9206 24.4634 27.704C24.7041 27.4633 24.9808 27.343 25.2937 27.343H30.9974C31.3103 27.343 31.575 27.4633 31.7916 27.704C32.0082 27.9206 32.1165 28.1853 32.1165 28.4981C32.1165 28.811 32.0082 29.0878 31.7916 29.3284C31.575 29.545 31.3103 29.6533 30.9974 29.6533H25.2937ZM39.553 29.6533C39.2402 29.6533 38.9634 29.545 38.7227 29.3284C38.5061 29.0878 38.3978 28.811 38.3978 28.4981C38.3978 28.1853 38.5061 27.9206 38.7227 27.704C38.9634 27.4633 39.2402 27.343 39.553 27.343H45.2568C45.5696 27.343 45.8344 27.4633 46.051 27.704C46.2676 27.9206 46.3759 28.1853 46.3759 28.4981C46.3759 28.811 46.2676 29.0878 46.051 29.3284C45.8344 29.545 45.5696 29.6533 45.2568 29.6533H39.553ZM30.9613 36.5484H39.914C39.3846 36.2596 38.8551 35.9708 38.3256 35.682C37.8202 35.3932 37.3269 35.0923 36.8456 34.7795C36.1717 34.3703 35.6543 34.1658 35.2933 34.1658C34.9323 34.1658 34.451 34.3703 33.8493 34.7795C33.4402 35.0683 32.9949 35.3571 32.5136 35.6459C32.0323 35.9347 31.5148 36.2355 30.9613 36.5484Z" fill="#1F1F1F"/>
<g clip-path="url(#clip0_45_937)">
<path d="M16.5699 526.767C7.93821 515.3 7.93821 499.294 16.5699 487.828C24.006 477.938 24.006 464.106 16.5699 454.216C7.93821 442.749 7.93821 426.743 16.5699 415.276C24.006 405.386 24.006 391.555 16.5699 381.664C7.93821 370.198 7.93821 354.192 16.5699 342.725C24.006 332.835 24.006 319.003 16.5699 309.113C7.93821 297.646 7.93821 281.641 16.5699 270.174C24.006 260.284 24.006 246.452 16.5699 236.562C7.93821 225.095 7.93821 209.09 16.5699 197.623C24.006 187.733 24.006 173.901 16.5699 164.011C7.93821 152.544 7.93821 136.538 16.5699 125.072C24.006 115.181 24.006 101.35 16.5699 91.4596L20.1086 88.8079C28.7403 100.275 28.7403 116.28 20.1086 127.747C12.6725 137.637 12.6725 151.469 20.1086 161.359C28.7403 172.826 28.7403 188.832 20.1086 200.298C12.6725 210.188 12.6725 224.02 20.1086 233.91C28.7403 245.377 28.7403 261.383 20.1086 272.85C12.6725 282.74 12.6725 296.571 20.1086 306.462C28.7403 317.928 28.7403 333.934 20.1086 345.401C12.6725 355.291 12.6725 369.123 20.1086 379.013C28.7403 390.48 28.7403 406.485 20.1086 417.952C12.6725 427.842 12.6725 441.674 20.1086 451.564C28.7403 463.031 28.7403 479.036 20.1086 490.503C12.6725 500.393 12.6725 514.225 20.1086 524.115L16.5699 526.767Z" fill="#1F1F1F"/>
<path d="M33.3314 526.767C24.6997 515.3 24.6997 499.294 33.3314 487.828C40.7676 477.938 40.7676 464.106 33.3314 454.216C24.6997 442.749 24.6997 426.743 33.3314 415.276C40.7676 405.386 40.7676 391.555 33.3314 381.664C24.6997 370.198 24.6997 354.192 33.3314 342.725C40.7676 332.835 40.7676 319.003 33.3314 309.113C24.6997 297.646 24.6997 281.641 33.3314 270.174C40.7676 260.284 40.7676 246.452 33.3314 236.562C24.6997 225.095 24.6997 209.09 33.3314 197.623C40.7676 187.733 40.7676 173.901 33.3314 164.011C24.6997 152.544 24.6997 136.538 33.3314 125.072C40.7676 115.181 40.7676 101.35 33.3314 91.4596L36.8702 88.8079C45.5019 100.275 45.5019 116.28 36.8702 127.747C29.434 137.637 29.434 151.469 36.8702 161.359C45.5019 172.826 45.5019 188.832 36.8702 200.298C29.434 210.188 29.434 224.02 36.8702 233.91C45.5019 245.377 45.5019 261.383 36.8702 272.85C29.434 282.74 29.434 296.571 36.8702 306.462C45.5019 317.928 45.5019 333.934 36.8702 345.401C29.434 355.291 29.434 369.123 36.8702 379.013C45.5019 390.48 45.5019 406.485 36.8702 417.952C29.434 427.842 29.434 441.674 36.8702 451.564C45.5019 463.031 45.5019 479.036 36.8702 490.503C29.434 500.393 29.434 514.225 36.8702 524.115L33.3314 526.767Z" fill="#1F1F1F"/>
<path d="M51.3332 523.754L50.4607 524.408C43.2538 513.655 43.5752 499.258 51.4248 488.83L51.4253 488.83C59.3077 478.346 59.3077 463.697 51.4253 453.214L51.4248 453.213C43.2401 442.34 43.2401 427.152 51.4248 416.279L51.4253 416.278C59.3077 405.795 59.3077 391.146 51.4253 380.662L51.4248 380.662C43.2401 369.789 43.2401 354.601 51.4248 343.728L51.4253 343.727C59.3077 333.244 59.3077 318.595 51.4253 308.111L51.4248 308.11C43.2401 297.238 43.2401 282.05 51.4248 271.177L51.4253 271.176C59.3077 260.692 59.3077 246.044 51.4253 235.56L51.4248 235.559C43.2401 224.686 43.2401 209.498 51.4248 198.626L51.4253 198.625C59.3077 188.141 59.3077 173.492 51.4253 163.009L51.4248 163.008C43.2401 152.135 43.2401 136.947 51.4248 126.074L51.4253 126.074C58.9716 116.037 59.2934 102.183 52.3909 91.821L53.2634 91.1672C60.4703 101.92 60.1489 116.317 52.2993 126.744L52.2987 126.745C44.4163 137.229 44.4163 151.878 52.2987 162.361L52.2993 162.362C60.484 173.235 60.484 188.423 52.2993 199.296L52.2987 199.296C44.4163 209.78 44.4163 224.429 52.2987 234.912L52.2993 234.913C60.484 245.786 60.484 260.974 52.2993 271.847L52.2987 271.848C44.4163 282.331 44.4163 296.98 52.2987 307.464L52.2993 307.464C60.484 318.337 60.484 333.525 52.2993 344.398L52.2987 344.399C44.4163 354.882 44.4163 369.531 52.2987 380.015L52.2993 380.016C60.484 390.889 60.484 406.076 52.2993 416.949L52.2987 416.95C44.4163 427.434 44.4163 442.082 52.2987 452.566L52.2993 452.567C60.484 463.44 60.484 478.628 52.2993 489.5L52.2987 489.501C44.7525 499.538 44.4307 513.392 51.3332 523.754Z" fill="#1F1F1F" stroke="#1F1F1F" stroke-width="3.33471"/>
</g>
<circle cx="35.1008" cy="580.123" r="32.8178" stroke="#1F1F1F" stroke-width="3.28178"/>
<path d="M21.9364 595.911C21.3348 596.007 20.8053 595.899 20.348 595.586C19.9148 595.297 19.6381 594.864 19.5177 594.286C19.4215 593.733 19.5177 593.239 19.8065 592.806C20.0953 592.373 20.5406 592.108 21.1422 592.012L25.8713 591.218V578.042C25.8713 576.02 26.3285 574.6 27.2431 573.782C28.1576 572.964 29.746 572.554 32.0082 572.554H33.0551V570.966C33.0551 570.292 33.2597 569.775 33.6688 569.414C34.102 569.053 34.6194 568.872 35.2211 568.872C35.8227 568.872 36.3281 569.053 36.7373 569.414C37.1705 569.775 37.3871 570.292 37.3871 570.966V572.554H38.47C40.7563 572.554 42.3568 572.964 43.2713 573.782C44.1858 574.6 44.6431 576.02 44.6431 578.042V580.207C44.6431 582.253 44.1858 583.697 43.2713 584.539C42.3568 585.358 40.7563 585.767 38.47 585.767H37.748C38.1572 586.2 38.5783 586.609 39.0115 586.994C39.4688 587.379 39.9501 587.752 40.4555 588.113C41.009 587.728 41.6709 587.259 42.441 586.705C43.2111 586.152 43.9572 585.61 44.6792 585.081C45.4012 584.551 45.9667 584.118 46.3759 583.781C46.809 583.42 47.2904 583.264 47.8198 583.312C48.3734 583.336 48.8427 583.553 49.2277 583.962C49.5887 584.371 49.7572 584.84 49.7331 585.37C49.709 585.899 49.4804 586.332 49.0472 586.669C48.6862 586.958 48.2169 587.307 47.6393 587.716C47.0617 588.101 46.4481 588.51 45.7983 588.944C45.1725 589.377 44.5709 589.774 43.9933 590.135C44.9319 590.568 45.8945 590.941 46.8812 591.254C47.868 591.567 48.8427 591.82 49.8053 592.012C50.3588 592.108 50.768 592.397 51.0327 592.878C51.3215 593.336 51.3937 593.853 51.2493 594.431C51.1049 595.032 50.7559 595.466 50.2024 595.73C49.6489 595.995 49.0593 596.043 48.4335 595.875C46.412 595.369 44.4385 594.647 42.5132 593.709C40.6119 592.794 38.8551 591.675 37.2427 590.351C35.6302 589.004 34.2825 587.476 33.1995 585.767H30.0588V590.496C31.2381 590.303 32.2609 590.123 33.1273 589.954C34.0178 589.786 34.5713 589.69 34.7879 589.666C35.2692 589.569 35.7144 589.654 36.1236 589.918C36.5327 590.183 36.7854 590.568 36.8817 591.073C37.002 591.603 36.9418 592.06 36.7012 592.445C36.4846 592.83 36.1115 593.083 35.5821 593.203C35.4377 593.227 35.0285 593.312 34.3547 593.456C33.6808 593.6 32.8505 593.769 31.8638 593.961C30.9012 594.154 29.8783 594.359 28.7953 594.575C27.7124 594.792 26.6775 594.996 25.6908 595.189C24.7041 595.381 23.8738 595.538 23.1999 595.658C22.526 595.803 22.1049 595.887 21.9364 595.911ZM21.07 575.839C20.5406 576.08 19.9991 576.14 19.4456 576.02C18.892 575.9 18.4829 575.599 18.2182 575.117C17.9294 574.636 17.8692 574.131 18.0377 573.601C18.2061 573.048 18.5671 572.651 19.1207 572.41C20.6128 571.736 22.129 570.942 23.6692 570.027C25.2095 569.089 26.6655 568.126 28.0373 567.139C29.4331 566.129 30.6485 565.178 31.6833 564.288C32.9348 563.205 34.0779 562.663 35.1128 562.663C36.1476 562.663 37.3269 563.193 38.6505 564.251C39.7817 565.142 41.0692 566.068 42.5132 567.031C43.9572 567.994 45.4613 568.908 47.0256 569.775C48.59 570.617 50.0821 571.315 51.502 571.868C52.0555 572.085 52.4165 572.47 52.585 573.024C52.7775 573.553 52.7414 574.095 52.4767 574.648C52.236 575.178 51.8269 575.527 51.2493 575.695C50.6717 575.864 50.0941 575.827 49.5165 575.587C48.4576 575.105 47.3265 574.54 46.1232 573.89C44.9198 573.216 43.7165 572.506 42.5132 571.76C41.3339 570.99 40.2149 570.22 39.1559 569.45C38.097 568.656 37.1825 567.91 36.4124 567.212C35.9792 566.803 35.6061 566.598 35.2933 566.598C35.0045 566.598 34.6314 566.79 34.1742 567.176C33.4041 567.825 32.5016 568.535 31.4667 569.305C30.4319 570.076 29.3248 570.858 28.1456 571.652C26.9663 572.446 25.763 573.204 24.5356 573.926C23.3323 574.648 22.1771 575.286 21.07 575.839ZM30.0588 582.554H37.8202C38.8551 582.554 39.541 582.446 39.8779 582.229C40.2149 581.988 40.3954 581.459 40.4194 580.641H30.0588V582.554ZM30.0588 577.681H40.4194C40.3954 576.862 40.2149 576.345 39.8779 576.128C39.541 575.912 38.8551 575.803 37.8202 575.803H32.658C31.5991 575.803 30.9132 575.912 30.6003 576.128C30.2875 576.345 30.107 576.862 30.0588 577.681Z" fill="#1F1F1F"/>
<defs>
<clipPath id="clip0_45_937">
<rect width="50.0207" height="437.959" fill="white" transform="translate(10.0905 88.8079)"/>
</clipPath>
</defs>
</svg>
