<svg width="551" height="551" viewBox="0 0 551 551" fill="none" xmlns="http://www.w3.org/2000/svg">
<g clip-path="url(#clip0_47_1226)">
<path d="M281.016 550.251L275.33 544.638L286.466 544.73L281.016 550.251Z" fill="#151515"/>
<path d="M2.52036e-05 272.845L5.44966 267.324L544.67 271.793L550.356 277.406L544.906 282.926L5.68593 278.458L2.52036e-05 272.845Z" fill="#151515"/>
<path d="M269.339 -1.26924e-07L275.025 5.61285L263.89 5.52057L269.339 -1.26924e-07Z" fill="#151515"/>
<path d="M134.822 405.935L421.136 408.308L410.236 419.349L146.194 417.161L134.822 405.935Z" fill="#151515"/>
<path d="M140.119 130.902L404.161 133.09L415.533 144.316L129.22 141.943L140.119 130.902Z" fill="#151515"/>
<path d="M205.076 475.286L353.801 476.519L342.902 487.56L216.448 486.512L205.076 475.286Z" fill="#151515"/>
<path d="M64.5682 336.583L488.47 340.096L477.571 351.137L75.94 347.809L64.5682 336.583Z" fill="#151515"/>
<path d="M72.7845 199.113L474.416 202.441L485.787 213.667L61.8852 210.154L72.7845 199.113Z" fill="#151515"/>
<path d="M207.454 62.6905L333.907 63.7384L345.279 74.9641L196.555 73.7317L207.454 62.6905Z" fill="#151515"/>
<path d="M240.203 509.962L320.133 510.624L309.234 521.665L251.575 521.188L240.203 509.962Z" fill="#151515"/>
<path d="M169.949 440.611L387.468 442.413L376.569 453.454L181.321 451.836L169.949 440.611Z" fill="#151515"/>
<path d="M99.6953 371.259L454.803 374.202L443.904 385.243L111.067 382.485L99.6953 371.259Z" fill="#151515"/>
<path d="M29.4412 301.908L522.138 305.991L511.238 317.032L40.813 313.134L29.4412 301.908Z" fill="#151515"/>
<path d="M39.1172 233.219L509.543 237.117L520.914 248.343L28.218 244.26L39.1172 233.219Z" fill="#151515"/>
<path d="M106.452 165.008L439.288 167.766L450.66 178.991L95.5526 176.049L106.452 165.008Z" fill="#151515"/>
<path d="M173.787 96.7962L369.034 98.4142L380.406 109.64L162.887 107.837L173.787 96.7962Z" fill="#151515"/>
<path d="M241.121 28.585L298.78 29.0628L310.152 40.2885L230.222 39.6262L241.121 28.585Z" fill="#151515"/>
<path d="M257.767 527.3L303.3 527.677L292.4 538.718L269.139 538.526L257.767 527.3Z" fill="#151515"/>
<path d="M222.64 492.624L336.967 493.572L326.068 504.613L234.012 503.85L222.64 492.624Z" fill="#151515"/>
<path d="M187.513 457.948L370.634 459.466L359.735 470.507L198.885 469.174L187.513 457.948Z" fill="#151515"/>
<path d="M152.386 423.273L404.302 425.36L393.403 436.401L163.758 434.498L152.386 423.273Z" fill="#151515"/>
<path d="M82.1317 353.921L471.637 357.149L460.737 368.19L93.5035 365.147L82.1317 353.921Z" fill="#151515"/>
<path d="M117.259 388.597L437.969 391.255L427.07 402.296L128.631 399.823L117.259 388.597Z" fill="#151515"/>
<path d="M47.0047 319.246L505.304 323.043L494.405 334.085L58.3765 330.471L47.0047 319.246Z" fill="#151515"/>
<path d="M11.8777 284.57L538.971 288.938L528.072 299.979L23.2495 295.796L11.8777 284.57Z" fill="#151515"/>
<path d="M55.9509 216.166L491.979 219.779L503.351 231.005L45.0517 227.207L55.9509 216.166Z" fill="#151515"/>
<path d="M22.2835 250.272L527.106 254.455L538.478 265.681L11.3842 261.313L22.2835 250.272Z" fill="#151515"/>
<path d="M89.6181 182.06L456.852 185.103L468.224 196.329L78.7189 193.101L89.6181 182.06Z" fill="#151515"/>
<path d="M123.286 147.955L421.725 150.428L433.097 161.653L112.386 158.996L123.286 147.955Z" fill="#151515"/>
<path d="M190.62 79.7435L351.471 81.0764L362.843 92.3021L179.721 90.7846L190.62 79.7435Z" fill="#151515"/>
<path d="M156.953 113.849L386.598 115.752L397.97 126.978L146.054 124.89L156.953 113.849Z" fill="#151515"/>
<path d="M224.288 45.6379L316.344 46.4007L327.716 57.6264L213.389 56.679L224.288 45.6379Z" fill="#151515"/>
<path d="M257.955 11.5321L281.217 11.7249L292.589 22.9506L247.056 22.5733L257.955 11.5321Z" fill="#151515"/>
</g>
<defs>
<clipPath id="clip0_47_1226">
<rect width="394.872" height="383.39" fill="white" transform="translate(281.016 550.251) rotate(-135.37)"/>
</clipPath>
</defs>
</svg>
