<svg width="94" height="110" viewBox="0 0 94 110" fill="none" xmlns="http://www.w3.org/2000/svg">
<path d="M48.4339 56.4369C48.5341 56.3349 48.6634 56.2668 48.804 56.2419C48.9445 56.217 49.0893 56.2367 49.2182 56.2981L51.8948 58.5213L54.5755 56.2981C54.7047 56.2387 54.8488 56.2203 54.9886 56.2455C55.1285 56.2707 55.2572 56.3382 55.3577 56.439C55.4581 56.5397 55.5254 56.6689 55.5505 56.8091C55.5757 56.9494 55.5574 57.094 55.4982 57.2235L53.2795 59.9103L55.4982 62.5971C55.5574 62.7267 55.5757 62.8713 55.5505 63.0115C55.5254 63.1517 55.4581 63.2809 55.3577 63.3817C55.2572 63.4824 55.1285 63.5499 54.9886 63.5751C54.8488 63.6003 54.7047 63.582 54.5755 63.5226L51.8948 61.2992L49.2182 63.5226C49.0891 63.582 48.9449 63.6003 48.8051 63.5751C48.6653 63.5499 48.5365 63.4824 48.436 63.3817C48.3356 63.2809 48.2683 63.1517 48.2432 63.0115C48.2181 62.8713 48.2363 62.7267 48.2956 62.5971L50.51 59.9103L48.2956 57.2235C48.2343 57.0942 48.2148 56.949 48.2396 56.808C48.2644 56.6671 48.3323 56.5374 48.4339 56.4369Z" fill="#01B3B9"/>
</svg>
