<svg width="250" height="129" viewBox="0 0 250 129" fill="none" xmlns="http://www.w3.org/2000/svg">
<g clip-path="url(#clip0_212_2065)">
<path d="M11.4865 102.828L53.0463 108.358L51.3415 88.448L14.2063 84.1572L11.4865 102.828Z" fill="#111214"/>
<path d="M41.1791 112.485C37.7226 118.468 29.3559 121.081 23.1947 117.266C17.2528 113.584 14.8975 105.282 18.463 99.1246C21.9996 93.0059 30.3603 90.8849 36.4293 94.3593C42.7115 97.9604 44.6644 106.453 41.1791 112.485Z" fill="#282C34"/>
<path d="M40.0371 111.815C36.93 117.193 29.356 119.513 23.8603 116.115C18.5447 112.829 16.4239 105.282 19.5976 99.796C22.7712 94.3105 30.3165 92.4367 35.7743 95.4961C41.4182 98.6592 43.1518 106.426 40.0371 111.815Z" fill="#1F252D"/>
<path d="M37.3158 110.218C34.9378 114.338 29.5269 115.77 25.4472 113.372C21.3674 110.973 19.941 105.515 22.3189 101.4C24.6969 97.2843 30.1108 95.8424 34.1951 98.2426C38.2794 100.643 39.6938 106.098 37.3158 110.218Z" fill="#111214"/>
<path d="M31.6083 102.707L29.8203 105.8L32.8896 107.604C33.057 107.702 33.2451 107.759 33.4385 107.77C33.6319 107.781 33.8251 107.745 34.0023 107.666C34.1794 107.587 34.3355 107.467 34.4576 107.315C34.5797 107.163 34.6644 106.985 34.7048 106.794C34.8538 106.04 34.83 105.261 34.6352 104.518C34.4404 103.775 34.0798 103.087 33.5809 102.506C33.452 102.36 33.2909 102.248 33.1107 102.177C32.9304 102.106 32.7361 102.08 32.5437 102.1C32.3513 102.119 32.1663 102.184 32.0037 102.29C31.8411 102.396 31.7056 102.539 31.6083 102.707V102.707Z" fill="#FFCC3E"/>
<path d="M31.2982 104.917L29.8536 104.068L33.3328 98.0503L34.7789 98.9002L31.2982 104.917ZM37.8603 108.426C38.001 107.767 38.0721 107.438 38.2142 106.778L31.4722 105.303C31.3315 105.962 31.2604 106.292 31.1182 106.952L37.8603 108.426ZM29.8294 114.338L31.4933 114.168C31.2634 111.858 31.0325 109.548 30.8005 107.239L29.1366 107.409C29.3685 109.713 29.5994 112.022 29.8294 114.338ZM21.7909 108.452L22.464 109.996L28.7826 107.19L28.1019 105.64L21.7909 108.452ZM24.8465 98.9155L23.5986 100.039L28.1972 105.234L29.4451 104.11L24.8465 98.9155Z" fill="#E4E6EA"/>
<path d="M32.6082 107.447C32.2863 108.004 31.8079 108.452 31.2335 108.734C30.6591 109.017 30.0145 109.121 29.3813 109.034C28.7481 108.948 28.1546 108.673 27.676 108.246C27.1973 107.819 26.855 107.258 26.6923 106.635C26.5296 106.011 26.5538 105.353 26.7619 104.744C26.97 104.134 27.3526 103.601 27.8613 103.21C28.37 102.82 28.982 102.591 29.6199 102.552C30.2578 102.512 30.8929 102.665 31.4449 102.99C31.8116 103.205 32.1325 103.491 32.3894 103.832C32.6463 104.173 32.8342 104.561 32.9422 104.975C33.0502 105.389 33.0763 105.82 33.019 106.244C32.9617 106.668 32.8221 107.077 32.6082 107.447V107.447Z" fill="white"/>
<path d="M28.9869 107.84C29.0073 107.739 29.0665 107.651 29.1515 107.593C29.2365 107.536 29.3404 107.515 29.4407 107.535V107.535C29.5392 107.558 29.6251 107.618 29.6801 107.704C29.7352 107.789 29.7551 107.893 29.7357 107.993C29.7259 108.043 29.7064 108.091 29.6783 108.133C29.6501 108.176 29.6139 108.212 29.5718 108.241C29.5296 108.269 29.4822 108.289 29.4325 108.299C29.3827 108.309 29.3315 108.308 29.2819 108.298V108.298C29.2423 108.29 29.2044 108.275 29.1699 108.254C29.1006 108.213 29.0457 108.151 29.0129 108.077C28.9801 108.002 28.971 107.92 28.9869 107.84V107.84ZM27.2987 106.067C27.2881 105.965 27.3181 105.863 27.3822 105.782C27.4463 105.702 27.5392 105.651 27.6406 105.64V105.64C27.7426 105.629 27.8447 105.66 27.9246 105.725C28.0045 105.789 28.0557 105.884 28.0672 105.986V105.986C28.0778 106.089 28.0476 106.192 27.9832 106.272C27.9189 106.353 27.8256 106.404 27.7238 106.415V106.415C27.6418 106.425 27.5589 106.407 27.4878 106.365V106.365C27.4351 106.334 27.3904 106.291 27.3575 106.239C27.3246 106.187 27.3045 106.128 27.2987 106.067V106.067ZM31.3361 106.699V106.688C31.388 106.599 31.4726 106.534 31.5717 106.507C31.6707 106.48 31.7763 106.494 31.8656 106.545V106.545C31.9542 106.597 32.0186 106.683 32.0447 106.783C32.0708 106.883 32.0564 106.989 32.0047 107.079V107.079C31.9529 107.168 31.8684 107.233 31.7694 107.259C31.6705 107.285 31.5653 107.271 31.4768 107.219V107.219C31.3924 107.167 31.3309 107.084 31.3048 106.987C31.2787 106.891 31.2899 106.788 31.3361 106.699V106.699ZM28.5981 103.984C28.5574 103.889 28.5556 103.782 28.593 103.686C28.6304 103.59 28.704 103.512 28.7978 103.47C28.844 103.449 28.894 103.437 28.9448 103.435C28.9956 103.434 29.0461 103.442 29.0936 103.461C29.141 103.479 29.1844 103.507 29.2211 103.542C29.2579 103.578 29.2873 103.62 29.3076 103.667V103.667C29.3488 103.761 29.3512 103.868 29.3144 103.964C29.2775 104.061 29.2043 104.138 29.1109 104.18V104.18C29.0551 104.205 28.9941 104.216 28.9331 104.212C28.8721 104.209 28.8127 104.191 28.76 104.16V104.16C28.6896 104.119 28.6331 104.058 28.5981 103.984V103.984ZM31.1319 104.615C31.0635 104.538 31.0281 104.437 31.0335 104.334C31.0389 104.231 31.0846 104.134 31.1606 104.065V104.065C31.2369 103.997 31.3368 103.961 31.4388 103.967C31.5408 103.972 31.6366 104.018 31.7052 104.094V104.094C31.7736 104.171 31.8092 104.271 31.8044 104.374C31.7996 104.477 31.7547 104.574 31.6795 104.644C31.6185 104.699 31.5418 104.733 31.4604 104.742C31.3789 104.751 31.2968 104.733 31.2257 104.692V104.692C31.188 104.672 31.1538 104.646 31.1243 104.615H31.1319Z" fill="#E4E6EA"/>
<path d="M25.7043 99.8921L24.839 98.9155L23.5911 100.039L24.4064 100.954C24.8003 100.554 25.2354 100.198 25.7043 99.8921V99.8921Z" fill="#C4C8CE"/>
<path d="M22.3052 108.22L21.7909 108.452L22.464 109.996L22.8392 109.83C22.6053 109.314 22.4263 108.774 22.3052 108.22Z" fill="#C4C8CE"/>
<path d="M37.6833 108.387L37.8603 108.425C38.001 107.766 38.0721 107.436 38.2143 106.777L37.8936 106.707C37.8827 107.272 37.8122 107.836 37.6833 108.387V108.387Z" fill="#C4C8CE"/>
<path d="M32.7307 99.0894C33.1642 99.2491 33.5829 99.4472 33.9817 99.6814C34.0679 99.7318 34.1511 99.7852 34.2328 99.834L34.7759 98.8956L33.3297 98.0457L32.7307 99.0894Z" fill="#C4C8CE"/>
<path d="M34.4598 97.7712C30.1259 95.2229 24.3776 96.7504 21.8514 101.128C19.3252 105.506 20.8394 111.298 25.1794 113.846C29.5193 116.395 35.2615 114.867 37.7877 110.489C40.3139 106.112 38.7952 100.319 34.4598 97.7712ZM25.848 112.676C22.1782 110.618 20.9287 105.399 23.0071 101.801C25.0856 98.203 30.2046 96.729 33.7866 98.9354C37.2658 101.072 38.6983 106.228 36.6275 109.81C34.5566 113.393 29.4043 114.669 25.848 112.676V112.676Z" fill="#E4E6EA"/>
<path opacity="0.2" d="M11.4865 100.986L49.8258 107.531L53.7709 98.9155L47.6747 90.0761C47.6747 90.0761 31.6749 82.8038 29.3711 82.552C27.0672 82.3002 29.421 81.6288 24.6545 82.552C19.888 83.4752 14.5436 83.5804 14.0323 85.381C13.521 87.1815 11.4865 100.986 11.4865 100.986Z" fill="#111214"/>
<path d="M91.3327 59.7492C91.158 59.7498 90.9856 59.7087 90.8296 59.6291C90.6737 59.5495 90.5387 59.4338 90.4357 59.2914C89.0045 57.3017 87.1411 55.6686 84.988 54.5171C82.8349 53.3656 80.4492 52.7262 78.0134 52.6478L43.4468 51.4423C42.6222 51.4118 41.8034 51.5924 41.0668 51.9672C40.3301 52.3421 39.6995 52.8991 39.2339 53.5862L37.4837 56.1558C37.4034 56.282 37.2988 56.3906 37.1761 56.4753C37.0534 56.5599 36.915 56.6189 36.7693 56.6486C36.6236 56.6783 36.4734 56.6782 36.3277 56.6483C36.1821 56.6184 36.0438 56.5592 35.9212 56.4744C35.7986 56.3896 35.6942 56.2808 35.614 56.1545C35.5339 56.0281 35.4797 55.8869 35.4548 55.739C35.4298 55.5912 35.4345 55.4398 35.4686 55.2938C35.5027 55.1479 35.5655 55.0103 35.6533 54.8893L37.4035 52.3166C38.0793 51.3177 38.9952 50.508 40.0656 49.9634C41.136 49.4187 42.3259 49.1569 43.5239 49.2023L78.0906 50.4032C80.8627 50.4921 83.578 51.2196 86.0284 52.5301C88.4789 53.8406 90.5996 55.6993 92.2282 57.9639C92.3491 58.1308 92.4218 58.3282 92.4384 58.5343C92.4549 58.7403 92.4146 58.947 92.3219 59.1313C92.2292 59.3157 92.0877 59.4705 91.9131 59.5788C91.7385 59.687 91.5376 59.7444 91.3327 59.7446V59.7492Z" fill="#424242"/>
<path d="M107.136 60.0161C101.938 56.493 95.8652 54.5101 89.6066 54.2925L36.8543 52.4508C32.8508 52.3115 28.9402 53.6868 25.8903 56.3067L13.9763 66.5393C10.5564 69.4775 8.1001 73.3927 6.93167 77.7682L6.72141 78.5556C5.15305 84.4355 4.65033 90.5527 5.23745 96.6129L5.55814 99.9118C5.66573 101.026 6.13936 102.072 6.90377 102.883C7.66818 103.695 8.67951 104.225 9.77706 104.39L12.1974 104.753C12.3938 104.783 12.5942 104.771 12.7855 104.717C12.9769 104.663 13.1547 104.569 13.3074 104.441C13.4601 104.313 13.5843 104.154 13.6716 103.974C13.759 103.794 13.8077 103.597 13.8144 103.397V103.397C13.8875 101.267 14.3758 99.1715 15.2516 97.2314C16.1274 95.2914 17.3734 93.5444 18.9186 92.0902C20.4638 90.636 22.2778 89.5031 24.2571 88.7561C26.2364 88.0091 28.3421 87.6628 30.4541 87.7368V87.7368C32.5661 87.8105 34.6431 88.3031 36.5663 89.1865C38.4896 90.0699 40.2215 91.3268 41.6631 92.8854C43.1048 94.4441 44.2279 96.2739 44.9684 98.2704C45.7089 100.267 46.0523 102.391 45.9789 104.521L45.9366 105.73C45.8998 106.814 46.2904 107.868 47.0229 108.661C47.7553 109.455 48.7698 109.923 49.8439 109.963L122.862 112.674C123.395 112.694 123.927 112.608 124.427 112.42C124.928 112.232 125.386 111.946 125.777 111.579C126.168 111.212 126.483 110.771 126.704 110.281C126.925 109.791 127.049 109.262 127.067 108.724L127.114 107.35C127.244 103.444 128.773 99.7177 131.416 96.86C131.156 89.8501 130.779 82.8372 130.463 75.8258L107.136 60.0161Z" fill="#FEC133"/>
<path opacity="0.2" d="M107.136 60.0161C101.938 56.493 95.8653 54.5101 89.6067 54.2925L36.8544 52.4508C32.8509 52.3115 28.9403 53.6868 25.8904 56.3067L13.9764 66.5393C10.5565 69.4775 8.10019 73.3927 6.93177 77.7682L6.7215 78.5556C6.29795 80.1466 5.95255 81.7538 5.6853 83.3774C23.0677 84.6896 59.802 87.482 88.1984 89.841C106.665 91.3669 113.395 78.9584 115.395 65.6115L107.136 60.0161Z" fill="#FFC78F"/>
<path d="M54.0023 102.832C50.7409 102.718 49.8636 99.9453 49.8636 99.9453C49.8636 99.9453 47.9636 94.7574 41.9597 87.5231C31.3209 78.4167 16.194 85.1611 13.8145 90.3811C7.93009 90.1767 5.39633 85.3594 6.36143 80.0051C5.08051 85.4405 4.70073 91.0523 5.23749 96.6128L5.55819 99.9118C5.66578 101.026 6.13941 102.072 6.90381 102.883C7.66822 103.695 8.67955 104.225 9.7771 104.39L12.1974 104.753C12.3938 104.783 12.5943 104.771 12.7856 104.717C12.9769 104.663 13.1547 104.569 13.3075 104.441C13.4602 104.313 13.5843 104.154 13.6717 103.974C13.7591 103.794 13.8077 103.597 13.8145 103.397V103.397C13.8875 101.266 14.3759 99.1714 15.2516 97.2314C16.1274 95.2914 17.3735 93.5444 18.9186 92.0902C20.4638 90.636 22.2778 89.503 24.2571 88.7561C26.2364 88.0091 28.3422 87.6627 30.4542 87.7368V87.7368C32.5662 87.8104 34.6431 88.303 36.5663 89.1864C38.4896 90.0699 40.2215 91.3268 41.6632 92.8854C43.1048 94.4441 44.2279 96.2739 44.9685 98.2704C45.709 100.267 46.0523 102.391 45.979 104.521L45.9366 105.73C45.8998 106.814 46.2905 107.868 47.0229 108.661C47.7554 109.454 48.7698 109.923 49.8439 109.963L122.862 112.674C123.395 112.694 123.927 112.607 124.428 112.42C124.928 112.232 125.386 111.946 125.777 111.579C126.168 111.212 126.483 110.771 126.704 110.281C126.925 109.791 127.049 109.262 127.067 108.724L127.114 107.35C127.138 106.694 127.201 106.039 127.303 105.39L54.0023 102.832Z" fill="#B88803"/>
<path opacity="0.2" d="M130.914 85.3869C130.762 82.1999 130.61 79.0128 130.46 75.8258L107.136 60.0161C101.938 56.493 95.8652 54.5101 89.6067 54.2925L36.8544 52.4508C32.8508 52.3115 28.9403 53.6868 25.8904 56.3067L13.9764 66.5393C12.062 68.1839 10.4385 70.1446 9.17505 72.3376L130.914 85.3869Z" fill="#FFC78F"/>
<path d="M54.0023 102.832C50.7409 102.718 49.8636 99.9453 49.8636 99.9453C49.8636 99.9453 47.9636 94.7574 41.9597 87.5231C31.3209 78.4167 16.194 85.1611 13.8145 90.3811C7.93009 90.1767 5.39633 85.3594 6.36143 80.0051C5.08051 85.4405 4.70073 91.0523 5.23749 96.6128L5.55819 99.9118C5.66578 101.026 6.13941 102.072 6.90381 102.883C7.66822 103.695 8.67955 104.225 9.7771 104.39L12.1974 104.753C12.3938 104.783 12.5943 104.771 12.7856 104.717C12.9769 104.663 13.1547 104.569 13.3075 104.441C13.4602 104.313 13.5843 104.154 13.6717 103.974C13.7591 103.794 13.8077 103.597 13.8145 103.397V103.397C13.8875 101.266 14.3759 99.1714 15.2516 97.2314C16.1274 95.2914 17.3735 93.5444 18.9186 92.0902C20.4638 90.636 22.2778 89.503 24.2571 88.7561C26.2364 88.0091 28.3422 87.6627 30.4542 87.7368V87.7368C32.5662 87.8104 34.6431 88.303 36.5663 89.1864C38.4896 90.0699 40.2215 91.3268 41.6632 92.8854C43.1048 94.4441 44.2279 96.2739 44.9685 98.2704C45.709 100.267 46.0523 102.391 45.979 104.521L45.9366 105.73C45.8998 106.814 46.2905 107.868 47.0229 108.661C47.7554 109.454 48.7698 109.923 49.8439 109.963L122.862 112.674C123.395 112.694 123.927 112.607 124.428 112.42C124.928 112.232 125.386 111.946 125.777 111.579C126.168 111.212 126.483 110.771 126.704 110.281C126.925 109.791 127.049 109.262 127.067 108.724L127.114 107.35C127.138 106.694 127.201 106.039 127.303 105.39L54.0023 102.832Z" fill="#FEC133"/>
<path d="M39.8495 70.9325L115.109 78.7541L118.035 71.8053L102.54 61.1928C102.54 61.1928 98.6738 58.8048 90.7412 57.79C81.0886 57.6466 45.6809 56.8745 45.6809 56.8745L39.8495 70.9325Z" fill="#57C7FF"/>
<path d="M103.03 77.4996L115.109 78.7554L117.242 73.688L108.499 72.0461L103.03 77.4996Z" fill="#2F98C1"/>
<path d="M80.5617 62.4376L80.4289 66.3126C80.3915 67.4058 81.2396 68.3226 82.3234 68.3604L83.241 68.3924C84.3248 68.4302 85.2337 67.5746 85.2712 66.4814L85.404 62.6065C85.4414 61.5133 84.5933 60.5964 83.5095 60.5587L82.5919 60.5266C81.5081 60.4889 80.5992 61.3444 80.5617 62.4376Z" fill="#2F98C1"/>
<path d="M85.5874 70.7294C85.4128 70.2679 85.1071 69.8686 84.7086 69.5814C84.3101 69.2943 83.8366 69.132 83.3471 69.115V69.115C82.9911 69.1027 82.6367 69.1677 82.3077 69.3054C81.9787 69.4432 81.6828 69.6505 81.4401 69.9135C81.1973 70.1764 81.0133 70.4888 80.9005 70.8296C80.7877 71.1705 80.7487 71.5317 80.7861 71.889L81.1356 75.2231L87.5388 75.8853L85.5874 70.7294Z" fill="#2F98C1"/>
<path opacity="0.5" d="M97.087 76.8819L107.978 64.9205L102.533 61.1927C101.74 60.7419 100.911 60.3571 100.056 60.0422L83.6603 75.4857L97.087 76.8819Z" fill="white"/>
<path opacity="0.5" d="M76.9015 57.5306C63.1587 57.2529 45.6916 56.8684 45.6916 56.8684L39.8556 70.9325L60.401 73.0687L76.9015 57.5306Z" fill="white"/>
<path d="M121.156 105.298H121.05L53.9978 102.956C53.0819 102.928 52.1935 102.634 51.4396 102.108C50.6857 101.583 50.0985 100.849 49.7487 99.9942C47.1287 93.4833 41.6814 87.0822 37.5745 82.8601C36.2736 81.523 35.3931 79.8282 35.0432 77.9883C34.6934 76.1485 34.8899 74.2454 35.608 72.5176L37.6123 67.6455L37.8407 67.7416L35.8318 72.6138C35.1339 74.2966 34.9437 76.1497 35.2849 77.941C35.626 79.7324 36.4835 81.3825 37.7499 82.6846C41.8736 86.9235 47.342 93.3505 49.9771 99.8981C50.3088 100.709 50.8664 101.406 51.5823 101.905C52.2982 102.403 53.1419 102.682 54.0114 102.707L121.063 105.048C121.647 105.068 122.223 104.904 122.709 104.578C123.196 104.252 123.57 103.781 123.779 103.231C125.19 99.5151 128.023 89.6014 123.869 77.8537L124.102 77.7697C128.283 89.5953 125.429 99.5776 124.008 103.321C123.787 103.903 123.396 104.404 122.887 104.757C122.377 105.11 121.774 105.299 121.156 105.298V105.298Z" fill="#534745"/>
<path d="M13.9764 66.5393C10.5564 69.4776 8.10017 73.3928 6.93174 77.7683L6.72147 78.5556C6.59441 79.0363 6.47642 79.5185 6.36145 80.0007L10.8436 80.1532C12.1831 80.1991 13.4981 79.7824 14.5709 78.9719C15.6437 78.1614 16.41 77.0057 16.7431 75.6961L18.0591 70.5448C18.4392 69.0462 19.2248 67.6837 20.3282 66.6095L27.6905 59.4562C27.9782 59.177 28.1779 58.8185 28.2648 58.4255C28.3517 58.0325 28.3219 57.6223 28.179 57.2463C28.0362 56.8703 27.7867 56.545 27.4618 56.3112C27.1368 56.0773 26.7507 55.9452 26.3517 55.9314V55.9314C26.2005 56.0535 26.0492 56.1771 25.8979 56.3068L13.9764 66.5393Z" fill="#E39F00"/>
<path d="M24.3626 81.7037H24.2113C23.1276 81.6836 22.0956 81.2326 21.3398 80.4489C20.584 79.6652 20.1656 78.6122 20.1756 77.5189C20.1856 76.4256 20.6231 75.3805 21.3931 74.6109C22.163 73.8414 23.203 73.4097 24.2869 73.4097C25.3708 73.4097 26.4109 73.8414 27.1808 74.6109C27.9507 75.3805 28.3883 76.4256 28.3983 77.5189C28.4082 78.6122 27.9898 79.6652 27.234 80.4489C26.4783 81.2326 25.4463 81.6836 24.3626 81.7037V81.7037ZM24.3626 73.6272C23.3533 73.6455 22.392 74.0651 21.6879 74.7948C20.9838 75.5244 20.5938 76.5051 20.6029 77.5233C20.612 78.5415 21.0193 79.5149 21.7363 80.2317C22.4533 80.9484 23.4219 81.3506 24.4314 81.3506C25.4408 81.3506 26.4095 80.9484 27.1265 80.2317C27.8434 79.5149 28.2508 78.5415 28.2599 77.5233C28.2689 76.5051 27.879 75.5244 27.1749 74.7948C26.4708 74.0651 25.5095 73.6455 24.5002 73.6272H24.3626Z" fill="#534745"/>
<path d="M80.0147 103.752L79.7712 103.719C82.7633 81.705 78.3175 71.6509 78.2721 71.5518L78.496 71.448C78.5414 71.5472 83.0189 81.6561 80.0147 103.752Z" fill="#534745"/>
<path d="M124.671 76.3279C124.49 75.6533 124.073 75.0675 123.497 74.6784L117.523 70.6287L105.496 62.4775C100.755 59.2629 95.2147 57.4539 89.5053 57.2559L78.7364 57.0271L74.9985 56.9477L42.8658 56.2656C39.5951 56.1485 36.3996 57.2716 33.9091 59.4135L30.1985 62.6011C29.5034 63.1868 28.9972 63.9683 28.7447 64.8457C28.4922 65.7231 28.5049 66.6565 28.7811 67.5266C28.9084 67.9426 29.0916 68.3389 29.3257 68.7046C29.3846 68.7962 29.4467 68.8862 29.5117 68.9732C29.8901 69.4829 30.3702 69.907 30.9209 70.2181C31.4717 70.5293 32.081 70.7206 32.7096 70.7798L41.9809 71.7396L74.2664 75.0813L81.8783 75.8686L121.597 79.9793C121.664 79.987 121.729 79.9916 121.794 79.9931H122.027L122.121 79.9854C122.161 79.9854 122.202 79.9854 122.242 79.9732L122.337 79.9595L122.455 79.9397L122.547 79.9183L122.662 79.8893L122.754 79.8618L122.865 79.8237L122.954 79.7901L123.061 79.7444L123.142 79.7001C123.178 79.6833 123.213 79.665 123.246 79.6467L123.329 79.6009L123.429 79.5384L123.509 79.4865L123.605 79.4163L123.68 79.3598L123.771 79.282L123.841 79.2195C123.871 79.192 123.9 79.163 123.928 79.134C123.957 79.105 123.972 79.0913 123.992 79.0684C124.011 79.0455 124.048 79.0058 124.075 78.9738C124.102 78.9417 124.114 78.928 124.132 78.9036C124.151 78.8792 124.185 78.8349 124.211 78.7983C124.237 78.7617 124.246 78.7525 124.261 78.7296C124.276 78.7068 124.314 78.6472 124.34 78.6045C124.352 78.5847 124.365 78.5649 124.378 78.5435C124.414 78.4794 124.449 78.4138 124.48 78.3467C124.782 77.7186 124.849 77.0021 124.671 76.3279V76.3279ZM42.5391 70.6501L49.2418 57.5413L73.6658 58.0601L74.2255 73.9292L42.5391 70.6501ZM78.927 58.1715L89.4735 58.3958C94.97 58.589 100.303 60.3336 104.865 63.4312L117.091 71.706L114.489 78.0964L81.6831 74.7013L78.927 58.1715Z" fill="#424242"/>
<path opacity="0.2" d="M45.4753 52.7516C40.9372 52.599 39.4623 56.1924 47.5068 56.3633L82.6468 57.1171C86.8037 57.2056 90.3011 54.3232 82.193 54.0409L45.4753 52.7516Z" fill="#FFC78F"/>
<path opacity="0.15" d="M24.4715 57.5244L13.9764 66.5393C12.269 68.0062 10.7924 69.7262 9.5971 71.6403C9.39228 71.9643 9.27406 72.3362 9.25394 72.7199C9.23381 73.1035 9.31248 73.4859 9.48227 73.8299C9.65207 74.1738 9.90721 74.4676 10.2229 74.6826C10.5386 74.8976 10.904 75.0265 11.2838 75.0568V75.0568C11.7769 75.0962 12.2688 74.9671 12.6803 74.6903C13.0919 74.4136 13.3992 74.0052 13.5528 73.5309L15.2077 68.4574C15.2077 68.4574 21.5262 62.7368 24.597 59.9597C24.7702 59.8035 24.9065 59.6101 24.996 59.3939C25.0855 59.1776 25.1259 58.9439 25.1143 58.7099C25.1027 58.4758 25.0394 58.2473 24.9289 58.0412C24.8185 57.835 24.6637 57.6564 24.476 57.5183L24.4715 57.5244Z" fill="white"/>
<path d="M145.263 118.994C149.487 118.994 149.14 117.818 147.532 117.037C146.411 116.489 145.868 115.911 145.868 115.911L145.263 118.994Z" fill="#111214"/>
<path d="M127.68 118.994H145.263C146.145 117.986 146.792 116.791 147.156 115.497C148.892 109.346 144.54 100.926 137.285 97.5482C130.283 94.2858 122.603 96.6983 120.842 102.936C119.342 108.252 122.475 114.955 127.68 118.994Z" fill="#282C34"/>
<path d="M132.475 118.995H140.886C141.79 119 142.678 118.753 143.452 118.281C144.226 117.81 144.856 117.131 145.272 116.321C145.509 115.856 145.699 115.369 145.84 114.866C147.392 109.372 143.463 101.671 136.972 98.7065C130.695 95.8394 123.751 97.9695 122.171 103.568C120.983 107.773 123.078 113.028 126.833 116.698C128.346 118.174 130.37 118.997 132.475 118.995V118.995Z" fill="#1F252D"/>
<path d="M142.681 113.361C141.497 117.557 136.546 119.184 131.821 116.928C127.097 114.673 124.131 109.269 125.317 105.072C126.503 100.876 131.452 99.2511 136.177 101.505C140.901 103.759 143.866 109.165 142.681 113.361Z" fill="#111214"/>
<path d="M134.891 106.058C134.535 107.32 134.357 107.95 134.001 109.211L137.555 110.907C138.391 111.307 139.2 110.866 139.128 110.033C138.995 108.507 138.129 106.926 136.795 105.788C136.072 105.172 135.101 105.317 134.891 106.058Z" fill="#FFCC3E"/>
<path d="M135.213 108.278L133.54 107.479C134.118 105.434 134.695 103.389 135.272 101.345L136.945 102.143C136.369 104.188 135.792 106.234 135.213 108.278ZM142.713 111.557C142.664 110.894 142.642 110.561 142.595 109.897L135.485 108.657C135.532 109.322 135.556 109.653 135.603 110.317L142.713 111.557ZM136.437 117.737L138.037 117.51C137.152 115.209 136.266 112.908 135.379 110.608L133.779 110.836C134.665 113.137 135.551 115.437 136.437 117.737ZM126.792 112.142L127.899 113.668L133.361 110.643L132.254 109.118L126.792 112.142ZM127.106 102.504L126.19 103.672L132.224 108.707L133.141 107.54L127.106 102.504Z" fill="#E4E6EA"/>
<path d="M137.231 110.759C136.777 112.345 134.974 112.94 133.189 112.087C131.404 111.234 130.315 109.259 130.769 107.674C131.222 106.089 133.026 105.493 134.811 106.346C136.596 107.199 137.679 109.174 137.231 110.759Z" fill="white"/>
<path d="M133.755 111.286C133.75 111.238 133.757 111.189 133.774 111.145C133.792 111.1 133.821 111.06 133.857 111.029C133.894 110.998 133.937 110.976 133.984 110.966C134.031 110.956 134.079 110.957 134.125 110.97V110.97C134.235 110.991 134.335 111.047 134.411 111.129C134.487 111.212 134.535 111.316 134.549 111.428C134.554 111.475 134.547 111.524 134.529 111.568C134.512 111.613 134.483 111.652 134.447 111.683C134.411 111.714 134.367 111.736 134.321 111.746C134.274 111.756 134.226 111.755 134.18 111.742V111.742C134.137 111.734 134.096 111.72 134.057 111.701V111.701C133.976 111.663 133.905 111.606 133.852 111.533C133.8 111.46 133.766 111.375 133.755 111.286V111.286ZM131.578 109.572C131.556 109.53 131.545 109.483 131.545 109.435C131.545 109.387 131.556 109.34 131.577 109.297C131.598 109.254 131.629 109.217 131.667 109.189C131.705 109.16 131.749 109.141 131.796 109.133V109.133C131.906 109.126 132.016 109.154 132.11 109.214C132.203 109.273 132.275 109.362 132.316 109.465V109.465C132.338 109.508 132.35 109.555 132.35 109.603C132.35 109.651 132.339 109.699 132.318 109.742C132.297 109.785 132.266 109.822 132.228 109.851C132.19 109.879 132.145 109.898 132.098 109.906V109.906C132.013 109.917 131.927 109.901 131.85 109.862C131.725 109.803 131.627 109.697 131.578 109.566V109.572ZM135.758 110.065V110.054C135.811 109.867 136.025 109.792 136.242 109.893C136.342 109.935 136.425 110.01 136.477 110.106C136.53 110.202 136.549 110.312 136.532 110.421C136.479 110.608 136.263 110.682 136.05 110.573C135.953 110.531 135.873 110.46 135.82 110.368C135.767 110.276 135.746 110.17 135.758 110.065V110.065ZM132.266 107.441C132.126 107.245 132.147 107.015 132.316 106.919C132.415 106.877 132.526 106.872 132.629 106.904C132.731 106.937 132.819 107.005 132.876 107.097C133.018 107.289 132.997 107.523 132.829 107.618C132.773 107.644 132.713 107.657 132.651 107.656C132.59 107.655 132.529 107.639 132.475 107.61C132.393 107.571 132.322 107.513 132.266 107.441V107.441ZM134.956 107.981C134.768 107.828 134.711 107.582 134.827 107.431C134.942 107.279 135.189 107.288 135.373 107.441C135.561 107.593 135.62 107.842 135.505 107.991C135.45 108.05 135.377 108.088 135.298 108.1C135.219 108.112 135.138 108.096 135.069 108.055C135.028 108.036 134.99 108.011 134.956 107.981V107.981Z" fill="#E4E6EA"/>
<path d="M128.242 103.45L127.106 102.504L126.19 103.672L127.259 104.563C127.534 104.148 127.865 103.774 128.242 103.45V103.45Z" fill="#C4C8CE"/>
<path d="M127.244 111.896L126.79 112.146L127.898 113.672L128.223 113.492C127.851 112.99 127.523 112.456 127.244 111.896V111.896Z" fill="#C4C8CE"/>
<path d="M142.527 111.525L142.713 111.557C142.665 110.894 142.642 110.561 142.595 109.897L142.258 109.838C142.405 110.389 142.496 110.955 142.527 111.525Z" fill="#C4C8CE"/>
<path d="M134.974 102.402C135.456 102.551 135.927 102.735 136.382 102.952C136.481 102.999 136.579 103.049 136.676 103.104L136.945 102.147L135.272 101.349L134.974 102.402Z" fill="#C4C8CE"/>
<path d="M136.313 101.024C131.294 98.6286 126.026 100.356 124.775 104.815C123.524 109.273 126.666 115.014 131.685 117.409C136.704 119.805 141.964 118.078 143.223 113.62C144.481 109.163 141.33 103.42 136.313 101.024ZM132.021 116.221C127.801 114.293 125.076 109.121 126.113 105.452C127.149 101.784 131.799 100.132 135.977 102.213C140.026 104.229 142.917 109.328 141.885 112.981C140.854 116.634 136.111 118.09 132.021 116.221Z" fill="#E4E6EA"/>
<path d="M127.68 118.995C122.587 118.995 122.559 117.927 123.956 117.402C125.352 116.877 125.423 116.474 125.423 116.474L127.504 117.734L127.68 118.995Z" fill="#111214"/>
<path d="M140.886 118.994C143.993 118.994 145.339 118.57 145.705 117.949C146.071 117.328 143.739 117.034 143.739 117.034L140.886 118.994Z" fill="#1F252D"/>
<path d="M132.475 118.995C130.155 118.995 127.209 118.761 126.786 118.093C126.362 117.424 128.017 116.764 128.017 116.764L132.475 118.995Z" fill="#1F252D"/>
<path opacity="0.2" d="M132.147 105.402L137.018 110.247C138.291 111.513 139.992 112.247 141.78 112.301L147.528 112.476C147.56 110.979 147.292 109.491 146.74 108.101C144.266 105.75 136.302 102.318 132.147 105.402Z" fill="#111214"/>
<path d="M130.666 96.1293L131.999 96.9487C132.261 97.1109 132.452 97.3678 132.533 97.6671C132.614 97.9664 132.58 98.2857 132.436 98.56L130.731 101.796C130.519 102.198 130.44 102.658 130.504 103.108C130.568 103.559 130.772 103.977 131.086 104.303L133.752 107.064C134 107.322 134.308 107.513 134.648 107.619C134.988 107.726 135.349 107.745 135.699 107.674L140.842 106.627C141.101 106.574 141.37 106.595 141.619 106.688C141.867 106.781 142.084 106.941 142.247 107.152L143.232 108.426C143.437 108.692 143.544 109.022 143.534 109.359C143.528 109.547 143.558 109.735 143.623 109.912C143.689 110.089 143.788 110.251 143.916 110.388C144.043 110.526 144.197 110.638 144.367 110.716C144.537 110.794 144.721 110.837 144.908 110.843L146.008 110.882C146.286 110.891 146.562 110.818 146.8 110.671C147.038 110.524 147.228 110.311 147.346 110.056L150.608 103.025C150.608 103.025 148.378 98.412 148.233 98.1419C148.088 97.8718 148.348 92.5419 148.445 91.956C148.541 91.3701 146.868 86.2324 146.868 86.2324L147.563 81.7478L146.567 77.0802L148.507 72.1745L145.427 70.5997C144.293 70.0186 142.982 69.8931 141.76 70.2488L138.53 71.1872C137.711 71.4254 136.846 71.4495 136.015 71.2574V71.2574C135.09 71.0437 134.124 71.0982 133.228 71.4146C132.332 71.731 131.544 72.2965 130.953 73.0457L129.344 75.0721L130.456 75.8259L130.666 96.1293Z" fill="#FEC133"/>
<path opacity="0.2" d="M141.026 73.0472L141.463 72.7817C141.95 72.4858 142.371 72.0919 142.7 71.6246C143.029 71.1573 143.259 70.6266 143.375 70.0656C142.826 70.0374 142.276 70.1008 141.748 70.2533L138.518 71.1917C137.699 71.4299 136.833 71.4541 136.003 71.2619V71.2619C135.078 71.0482 134.112 71.1027 133.216 71.4191C132.32 71.7356 131.532 72.301 130.941 73.0503L130.719 73.3341L134.184 72.9862C134.846 72.9205 135.513 72.9633 136.161 73.1128L137.977 73.5324C139.017 73.7742 140.11 73.6003 141.026 73.0472V73.0472Z" fill="#FFC78F"/>
<path d="M129.421 76L132.62 77.2131L134.823 76.9506L132.528 78.211L129.421 76Z" fill="#B88803"/>
<path d="M137 87.7068L143.987 88.1401L145.772 84.356L143.322 82L144.309 84.1881L143.347 86.9652L137 87.7068Z" fill="#B88803"/>
<path d="M139.043 79.8907L139.523 78.3419L143.875 76.9564L146.428 77.0464L144.077 76.3369L138.202 77.5317L139.043 79.8907Z" fill="#B88803"/>
<path d="M134.467 102.518L136.431 106.064L141.949 102.779L136.532 104.338L134.467 102.518Z" fill="#B88803"/>
<path d="M140.793 89.252L145.114 92.6333L140.057 100.734L142.471 92.8897L140.793 89.252Z" fill="#B88803"/>
<path d="M136.502 104.476L134.316 102.55L134.478 102.363L136.562 104.2L142.099 102.607L142.167 102.845L136.502 104.476Z" fill="#534745"/>
<path d="M130.234 100.953L130 100.879L132.457 92.8991L130.755 89.211L130.979 89.1057L132.72 92.8807L130.234 100.953Z" fill="#534745"/>
<path d="M130.029 87.9646L130 87.7175L136.362 86.9744L137.282 84.3178L136.282 82.1022L136.508 82L137.548 84.3056L136.544 87.2048L130.029 87.9646Z" fill="#534745"/>
<path d="M135.891 79.7247L135 77.2283L141.046 76L143.554 76.7568L143.483 76.9949L141.036 76.2563L135.33 77.416L136.122 79.6408L135.891 79.7247Z" fill="#534745"/>
<path d="M132.52 77.48L129.279 75.1744L129.421 74.9714L132.537 77.187L134.864 75.9083L134.982 76.128L132.52 77.48Z" fill="#534745"/>
<path opacity="0.9" d="M128.938 72.0462C116.77 62.482 122.99 48.1982 129.828 39.8577C135.777 32.6022 132.416 18.4389 126.754 11.1879C125.459 9.52931 127.057 7.15047 129.07 7.73488C142.167 11.5496 145.69 22.9021 144.291 30.8886C141.338 47.7374 117.101 49.5684 128.938 72.0462Z" fill="white"/>
<path opacity="0.9" d="M124.668 18.8281C128.837 17.8363 120.584 5.33475 115.935 6.0275C111.287 6.72025 119.186 20.1327 124.668 18.8281Z" fill="white"/>
<path opacity="0.9" d="M145.67 13.0298C143.817 13.2602 145.283 22.121 147.289 22.1316C149.295 22.1423 148.101 12.7292 145.67 13.0298Z" fill="white"/>
<path opacity="0.9" d="M130.403 32.5915C129.192 31.8774 126.067 37.8344 127.258 38.7622C128.448 39.6899 131.992 33.5314 130.403 32.5915Z" fill="white"/>
<path d="M209.6 112.714H167.663C165.733 112.712 163.883 111.938 162.518 110.561C161.154 109.185 160.386 107.318 160.384 105.371V100.827C160.387 98.8808 161.154 97.0146 162.519 95.6381C163.884 94.2616 165.734 93.4873 167.663 93.4849H209.6C211.53 93.4873 213.38 94.2616 214.744 95.6381C216.109 97.0146 216.877 98.8808 216.879 100.827V105.371C216.877 107.318 216.109 109.185 214.745 110.561C213.38 111.938 211.53 112.712 209.6 112.714V112.714ZM167.663 98.2181C166.976 98.219 166.318 98.4946 165.832 98.9846C165.346 99.4746 165.073 100.139 165.072 100.832V105.376C165.073 106.069 165.346 106.734 165.832 107.224C166.318 107.714 166.976 107.99 167.663 107.991H209.6C210.287 107.99 210.946 107.714 211.431 107.224C211.917 106.734 212.19 106.069 212.191 105.376V100.827C212.19 100.134 211.917 99.47 211.431 98.98C210.946 98.49 210.287 98.2144 209.6 98.2136L167.663 98.2181Z" fill="#111214"/>
<path d="M137.707 43.1736H134.953C133.467 43.1736 132.263 44.3882 132.263 45.8866V56.2717C132.263 57.7701 133.467 58.9848 134.953 58.9848H137.707C139.193 58.9848 140.397 57.7701 140.397 56.2717V45.8866C140.397 44.3882 139.193 43.1736 137.707 43.1736Z" fill="#686766"/>
<path d="M145.929 63.094H140.397C138.804 63.092 137.277 62.4528 136.151 61.3166C135.024 60.1804 134.391 58.64 134.389 57.0332V54.5842C134.389 54.5514 134.395 54.5189 134.407 54.4886C134.42 54.4584 134.438 54.4309 134.461 54.4078C134.484 54.3846 134.512 54.3664 134.542 54.3539C134.572 54.3415 134.604 54.3353 134.637 54.3355H145.929C145.994 54.3355 146.057 54.3617 146.103 54.4083C146.15 54.4549 146.176 54.5182 146.176 54.5842V62.8453C146.176 62.878 146.169 62.9103 146.157 62.9405C146.144 62.9707 146.126 62.9981 146.103 63.0212C146.08 63.0443 146.053 63.0626 146.023 63.0751C145.993 63.0876 145.961 63.094 145.929 63.094V63.094ZM134.886 54.8329V57.0332C134.888 58.5079 135.469 59.9218 136.503 60.9648C137.537 62.0077 138.938 62.5946 140.4 62.5966H145.681V54.8283L134.886 54.8329Z" fill="#111214"/>
<path d="M146.753 53.5938H144.719C144.111 53.5938 143.618 54.0911 143.618 54.7046V62.4393C143.618 63.0528 144.111 63.5501 144.719 63.5501H146.753C147.362 63.5501 147.855 63.0528 147.855 62.4393V54.7046C147.855 54.0911 147.362 53.5938 146.753 53.5938Z" fill="#686766"/>
<path d="M239.554 58.9846H242.309C243.794 58.9846 244.999 57.77 244.999 56.2716V45.8865C244.999 44.3881 243.794 43.1734 242.309 43.1734H239.554C238.069 43.1734 236.865 44.3881 236.865 45.8865V56.2716C236.865 57.77 238.069 58.9846 239.554 58.9846Z" fill="#686766"/>
<path d="M236.866 63.094H231.334C231.269 63.094 231.206 63.0678 231.16 63.0212C231.114 62.9745 231.088 62.9113 231.088 62.8453V54.5842C231.088 54.5182 231.114 54.4549 231.16 54.4083C231.206 54.3617 231.269 54.3354 231.334 54.3354H242.627C242.659 54.3354 242.691 54.3419 242.721 54.3544C242.751 54.3669 242.778 54.3852 242.801 54.4083C242.824 54.4314 242.842 54.4588 242.854 54.489C242.867 54.5192 242.873 54.5515 242.873 54.5842V57.0332C242.872 58.6399 242.238 60.1803 241.112 61.3165C239.986 62.4527 238.459 63.092 236.866 63.094V63.094ZM231.581 62.5966H236.866C238.328 62.5946 239.73 62.0077 240.763 60.9648C241.797 59.9218 242.378 58.5079 242.38 57.0332V54.8283H231.581V62.5966Z" fill="#111214"/>
<path d="M230.51 63.55H232.545C233.153 63.55 233.646 63.0527 233.646 62.4392V54.7045C233.646 54.091 233.153 53.5937 232.545 53.5937H230.51C229.902 53.5937 229.409 54.091 229.409 54.7045V62.4392C229.409 63.0527 229.902 63.55 230.51 63.55Z" fill="#686766"/>
<path d="M229.912 54.6756L226.114 32.3062C225.873 30.8867 225.156 29.5936 224.085 28.6423C223.013 27.691 221.65 27.1391 220.224 27.0785V27.0785C199.171 26.1874 178.11 26.1874 157.04 27.0785C155.613 27.1391 154.25 27.691 153.179 28.6423C152.107 29.5936 151.39 30.8867 151.149 32.3062L147.345 54.6756C146.547 59.3785 146.084 64.1332 145.961 68.9029L147.094 71.1063C147.316 71.5384 147.403 72.0282 147.345 72.5114C147.287 72.9946 147.085 73.4489 146.767 73.8147V73.8147C146.223 74.4401 145.923 75.2439 145.923 76.0761C145.923 76.552 146.021 77.0226 146.211 77.4582C146.401 77.8937 146.679 78.2846 147.027 78.606L147.372 78.9249V85.1215L146.191 86.5192C146.104 86.6208 146.04 86.74 146.003 86.8687C145.966 86.9975 145.957 87.1327 145.976 87.2653C146.124 88.2319 146.61 89.1132 147.346 89.7498C148.082 90.3865 149.019 90.7365 149.989 90.7367H227.262C227.796 90.7367 228.325 90.6306 228.818 90.4245C229.311 90.2184 229.76 89.9163 230.137 89.5354C230.515 89.1545 230.814 88.7024 231.019 88.2048C231.223 87.7071 231.328 87.1738 231.328 86.6352V71.5366C231.33 65.8859 230.857 60.2453 229.912 54.6756V54.6756Z" fill="#83AAD9"/>
<g opacity="0.3">
<path opacity="0.3" d="M186.917 27.5897C186.917 27.4352 186.887 27.2822 186.828 27.1396C186.769 26.9969 186.683 26.8673 186.575 26.7583C186.466 26.6493 186.337 26.563 186.196 26.5043C186.054 26.4456 185.902 26.4157 185.749 26.4163C178.416 26.4448 171.083 26.5811 163.75 26.8252C163.594 26.8306 163.441 26.8676 163.299 26.9339C163.157 27.0003 163.03 27.0948 162.926 27.2116C162.821 27.3285 162.741 27.4654 162.689 27.6143C162.638 27.7631 162.617 27.9208 162.628 28.078C162.648 28.3807 162.784 28.6636 163.007 28.867C163.231 29.0703 163.524 29.178 163.824 29.1674C171.127 28.9248 178.472 28.7875 185.758 28.76C185.911 28.76 186.061 28.7297 186.202 28.6709C186.343 28.6121 186.471 28.5258 186.578 28.4171C186.686 28.3084 186.771 28.1794 186.829 28.0374C186.887 27.8954 186.917 27.7433 186.917 27.5897V27.5897Z" fill="white"/>
</g>
<path d="M223.012 63.4861C223.761 63.407 224.487 63.1754 225.145 62.8052C225.803 62.4351 226.38 61.934 226.84 61.3325C227.301 60.7309 227.636 60.0414 227.824 59.3055C228.013 58.5697 228.052 57.8028 227.938 57.0514C227.838 56.3892 227.733 55.728 227.624 55.0678L223.824 32.7029C223.67 31.8128 223.22 31.0023 222.547 30.4054C221.875 29.8086 221.02 29.4612 220.125 29.4208C209.688 28.9767 199.085 28.7524 188.631 28.7524C178.177 28.7524 167.582 28.9767 157.137 29.4208C156.242 29.4616 155.388 29.8091 154.716 30.4059C154.043 31.0027 153.593 31.813 153.44 32.7029L149.64 55.0693C149.528 55.7285 149.423 56.3897 149.325 57.053C149.211 57.8044 149.25 58.5712 149.439 59.307C149.628 60.0429 149.962 60.7325 150.423 61.334C150.884 61.9356 151.46 62.4366 152.119 62.8068C152.777 63.1769 153.502 63.4086 154.252 63.4876C177.114 65.8049 200.149 65.8044 223.012 63.4861V63.4861Z" fill="#E0F0EE"/>
<path d="M210.335 34.4377H200.448C199.385 34.4377 198.524 35.3067 198.524 36.3787V39.8348C198.524 40.9067 199.385 41.7757 200.448 41.7757H210.335C211.398 41.7757 212.259 40.9067 212.259 39.8348V36.3787C212.259 35.3067 211.398 34.4377 210.335 34.4377Z" fill="#2F98C1"/>
<path d="M218.584 63.9071L216.71 48.5491C216.557 47.3037 215.959 46.1574 215.027 45.3263C214.095 44.4952 212.894 44.0366 211.65 44.0371H199.132C197.888 44.0366 196.687 44.4952 195.755 45.3263C194.823 46.1574 194.224 47.3037 194.072 48.5491L192.039 65.2041C200.934 65.1172 209.819 64.6853 218.584 63.9071Z" fill="#2F98C1"/>
<path d="M176.815 34.4377H166.928C165.865 34.4377 165.004 35.3067 165.004 36.3787V39.8348C165.004 40.9067 165.865 41.7757 166.928 41.7757H176.815C177.878 41.7757 178.739 40.9067 178.739 39.8348V36.3787C178.739 35.3067 177.878 34.4377 176.815 34.4377Z" fill="#2F98C1"/>
<path d="M158.679 63.9071L160.554 48.5491C160.706 47.304 161.304 46.1579 162.236 45.3268C163.168 44.4957 164.368 44.037 165.612 44.0371H178.131C179.376 44.0352 180.579 44.4931 181.512 45.3244C182.445 46.1557 183.044 47.3028 183.196 48.5491L185.223 65.2041C176.33 65.1172 167.447 64.6853 158.679 63.9071Z" fill="#2F98C1"/>
<path d="M150.773 55.4508C150.718 55.4481 150.666 55.4274 150.625 55.3919C150.584 55.3564 150.555 55.3081 150.544 55.2545C150.532 55.201 150.539 55.1451 150.562 55.0956C150.585 55.0461 150.624 55.0058 150.673 54.9809L158.993 51.2196C159.044 51.1968 159.101 51.192 159.156 51.2058L164.962 52.7317L173.05 46.7945C173.081 46.7719 173.116 46.7568 173.154 46.7504C173.191 46.7441 173.23 46.7466 173.266 46.7579L181.132 49.1505L185.494 45.1298C185.542 45.0853 185.606 45.062 185.671 45.065C185.737 45.068 185.798 45.097 185.842 45.1458C185.886 45.1946 185.909 45.259 185.906 45.325C185.904 45.3909 185.875 45.453 185.826 45.4975L181.361 49.6174C181.33 49.6468 181.291 49.6673 181.249 49.677C181.208 49.6866 181.164 49.685 181.123 49.6723L173.247 47.2737L165.149 53.1956C165.12 53.217 165.086 53.2316 165.05 53.2384C165.014 53.2453 164.977 53.2442 164.942 53.2353L159.109 51.7094L150.874 55.4356C150.841 55.4471 150.807 55.4523 150.773 55.4508Z" fill="#A1E9FF"/>
<path d="M155.008 53.5343C154.968 53.5346 154.929 53.5249 154.893 53.5063C154.858 53.4876 154.827 53.4604 154.805 53.4272C154.782 53.3939 154.768 53.3555 154.763 53.3154C154.758 53.2753 154.764 53.2347 154.778 53.1971L155.911 50.1667C155.928 50.1208 155.958 50.081 155.997 50.0522L157.472 48.9841L157.253 46.445C157.247 46.3793 157.268 46.314 157.31 46.2634C157.352 46.2129 157.412 46.1814 157.478 46.1757C157.543 46.1701 157.608 46.1907 157.658 46.2332C157.708 46.2757 157.739 46.3366 157.745 46.4023L157.976 49.0818C157.98 49.1247 157.972 49.1679 157.954 49.207C157.936 49.246 157.908 49.2797 157.873 49.3045L156.347 50.4139L155.24 53.3741C155.222 53.4213 155.19 53.462 155.149 53.4906C155.107 53.5193 155.058 53.5345 155.008 53.5343V53.5343Z" fill="#A1E9FF"/>
<path d="M169.279 50.0981H169.252C169.187 50.0908 169.127 50.0578 169.086 50.0063C169.046 49.9547 169.027 49.889 169.034 49.8234L169.421 46.3139L168.202 44.4981C168.184 44.471 168.171 44.4406 168.164 44.4086C168.158 44.3766 168.158 44.3436 168.164 44.3115C168.17 44.2794 168.182 44.2489 168.2 44.2216C168.218 44.1943 168.241 44.1708 168.268 44.1525C168.295 44.1341 168.325 44.1213 168.356 44.1147C168.388 44.1081 168.421 44.1079 168.453 44.1141C168.484 44.1202 168.515 44.1327 168.542 44.1506C168.569 44.1686 168.592 44.1918 168.61 44.2189L169.881 46.1109C169.915 46.1599 169.929 46.2197 169.922 46.2788L169.524 49.8845C169.515 49.9438 169.486 49.998 169.441 50.0372C169.396 50.0764 169.338 50.098 169.279 50.0981V50.0981Z" fill="#A1E9FF"/>
<path d="M178.602 51.3278C178.557 51.3277 178.513 51.3155 178.475 51.2924C178.437 51.2693 178.405 51.2362 178.384 51.1965L176.851 48.2867C176.836 48.2578 176.827 48.2262 176.824 48.1937C176.821 48.1612 176.824 48.1284 176.833 48.0971C176.843 48.0659 176.858 48.0368 176.879 48.0116C176.9 47.9864 176.925 47.9656 176.954 47.9502C176.982 47.9349 177.013 47.9254 177.046 47.9223C177.078 47.9192 177.111 47.9225 177.141 47.932C177.172 47.9416 177.201 47.9572 177.226 47.978C177.251 47.9988 177.272 48.0244 177.287 48.0532L178.819 50.9631C178.835 50.9918 178.844 51.0233 178.848 51.0558C178.851 51.0882 178.848 51.121 178.838 51.1522C178.829 51.1834 178.813 51.2124 178.793 51.2376C178.772 51.2627 178.747 51.2835 178.718 51.2988C178.682 51.3178 178.642 51.3278 178.602 51.3278V51.3278Z" fill="#A1E9FF"/>
<path d="M186.917 47.9618H186.894L183.371 47.6291C183.306 47.6228 183.246 47.5907 183.204 47.5398C183.163 47.4888 183.143 47.4233 183.149 47.3575C183.155 47.2917 183.187 47.2312 183.237 47.1891C183.288 47.147 183.353 47.1269 183.418 47.1332L186.94 47.4658C187.002 47.4728 187.059 47.5033 187.1 47.5514C187.141 47.5995 187.162 47.6614 187.159 47.7245C187.156 47.7877 187.13 47.8474 187.085 47.8915C187.04 47.9355 186.98 47.9607 186.917 47.9618V47.9618Z" fill="#A1E9FF"/>
<path d="M173.188 47.2368C173.15 47.2366 173.113 47.2278 173.079 47.2112C173.046 47.1945 173.016 47.1704 172.993 47.1407C172.953 47.0884 172.935 47.0223 172.943 46.9569C172.951 46.8915 172.985 46.8319 173.036 46.7913L174.755 45.4394C174.807 45.4062 174.869 45.3939 174.93 45.4047C174.991 45.4155 175.045 45.4487 175.083 45.4978C175.121 45.5469 175.139 45.6085 175.134 45.6704C175.13 45.7324 175.102 45.7904 175.057 45.833L173.337 47.1834C173.295 47.2182 173.242 47.237 173.188 47.2368V47.2368Z" fill="#A1E9FF"/>
<path opacity="0.6" d="M231.299 68.8953C202.912 71.4557 174.354 71.4557 145.967 68.8953L147.101 71.1047C147.323 71.5372 147.411 72.0271 147.353 72.5106C147.294 72.994 147.093 73.4485 146.774 73.8147V73.8147C146.23 74.4394 145.93 75.2428 145.93 76.0745V76.0745C145.93 76.5504 146.029 77.0211 146.219 77.4567C146.409 77.8922 146.687 78.2831 147.035 78.6044L147.38 78.9234V85.12L146.198 86.5177C146.112 86.6193 146.048 86.7385 146.01 86.8672C145.973 86.9959 145.964 87.1312 145.983 87.2638C146.131 88.2304 146.617 89.1116 147.353 89.7483C148.089 90.385 149.027 90.735 149.997 90.7352H227.27C228.348 90.7352 229.382 90.3031 230.145 89.5339C230.907 88.7647 231.336 87.7214 231.336 86.6336V71.5366C231.335 70.6566 231.323 69.7762 231.299 68.8953Z" fill="#6391C9"/>
<path opacity="0.5" d="M231.334 86.208C230.947 86.7132 230.45 87.1222 229.882 87.4033C229.314 87.6845 228.689 87.8305 228.056 87.83H149.207C148.643 87.8302 148.085 87.714 147.567 87.4885C147.05 87.2631 146.583 86.9333 146.197 86.5193C146.11 86.6197 146.047 86.7375 146.009 86.8649C145.972 86.9923 145.962 87.1263 145.98 87.2578C146.057 87.7639 146.228 88.2509 146.483 88.6937V88.6937C146.544 88.8005 146.611 88.9022 146.682 88.9989L146.697 89.0202C146.765 89.1148 146.838 89.2079 146.914 89.2964C146.924 89.3086 146.935 89.3193 146.944 89.3315C147.017 89.4139 147.095 89.4948 147.171 89.5726L147.222 89.6184C147.298 89.6901 147.374 89.7587 147.454 89.8228C147.478 89.8427 147.505 89.861 147.531 89.8808C147.605 89.9388 147.682 89.9953 147.759 90.0471L147.865 90.1127C147.938 90.157 148.016 90.2028 148.086 90.244L148.224 90.3096C148.293 90.3447 148.363 90.3798 148.434 90.4088C148.505 90.4378 148.547 90.4515 148.603 90.4713C148.659 90.4912 148.733 90.5217 148.8 90.5431C148.867 90.5644 148.938 90.5781 149.006 90.5965C149.074 90.6148 149.124 90.6285 149.184 90.6407C149.245 90.6529 149.352 90.6682 149.438 90.6804L149.581 90.7017C149.717 90.7153 149.854 90.7219 149.991 90.7216H227.264C228.341 90.7192 229.374 90.2863 230.136 89.5176C230.898 88.7489 231.327 87.7071 231.33 86.62L231.334 86.208Z" fill="#ACBFC1"/>
<path d="M158.283 93.4985H151.366C150.398 93.4985 149.614 94.2896 149.614 95.2655V117.293C149.614 118.269 150.398 119.06 151.366 119.06H158.283C159.251 119.06 160.035 118.269 160.035 117.293V95.2655C160.035 94.2896 159.251 93.4985 158.283 93.4985Z" fill="#2B2B2B"/>
<path d="M218.98 119.062H225.898C226.865 119.062 227.649 118.271 227.649 117.295V95.2672C227.649 94.2913 226.865 93.5002 225.898 93.5002H218.98C218.013 93.5002 217.228 94.2913 217.228 95.2672V117.295C217.228 118.271 218.013 119.062 218.98 119.062Z" fill="#2B2B2B"/>
<path d="M181.383 113.192H195.588C196.927 113.192 198.013 112.097 198.013 110.746V104.891C198.013 103.54 196.927 102.445 195.588 102.445H181.383C180.044 102.445 178.959 103.54 178.959 104.891V110.746C178.959 112.097 180.044 113.192 181.383 113.192Z" fill="#111214"/>
<path d="M228.179 90.7354H149.084C147.342 90.7354 145.929 92.1604 145.929 93.9183V105.045C145.929 106.803 147.342 108.228 149.084 108.228H228.179C229.922 108.228 231.334 106.803 231.334 105.045V93.9183C231.334 92.1604 229.922 90.7354 228.179 90.7354Z" fill="#686766"/>
<path opacity="0.5" d="M228.179 105.64H149.084C148.248 105.64 147.445 105.305 146.853 104.708C146.261 104.111 145.929 103.301 145.929 102.457V105.051C145.929 105.895 146.261 106.705 146.853 107.302C147.445 107.899 148.248 108.234 149.084 108.234H228.179C229.016 108.234 229.818 107.899 230.41 107.302C231.002 106.705 231.334 105.895 231.334 105.051V102.457C231.334 103.301 231.002 104.111 230.41 104.708C229.818 105.305 229.016 105.64 228.179 105.64V105.64Z" fill="#111214"/>
<path d="M202.608 102.77H174.654C174.121 102.77 173.601 102.612 173.156 102.316C172.712 102.021 172.363 101.6 172.153 101.107L170.867 98.0885C170.744 97.7987 170.694 97.4824 170.722 97.1682C170.75 96.854 170.854 96.5517 171.027 96.2886C171.2 96.0255 171.434 95.8099 171.71 95.6611C171.986 95.5124 172.294 95.4352 172.607 95.4365H204.676C204.988 95.4365 205.295 95.5146 205.57 95.6639C205.845 95.8132 206.079 96.0289 206.25 96.2918C206.422 96.5547 206.526 96.8565 206.554 97.1701C206.581 97.4837 206.531 97.7993 206.408 98.0885L205.122 101.107C204.911 101.602 204.561 102.024 204.113 102.32C203.666 102.616 203.143 102.772 202.608 102.77V102.77Z" fill="#111214"/>
<path d="M208.018 87.8299H169.246C168.508 87.829 167.786 87.6102 167.169 87.2005C166.553 86.7908 166.069 86.2081 165.777 85.5243L163.994 81.3373C163.823 80.9362 163.753 80.4985 163.792 80.0637C163.83 79.6289 163.975 79.2104 164.213 78.8459C164.451 78.4813 164.775 78.1821 165.156 77.9752C165.537 77.7682 165.963 77.6598 166.396 77.6599H210.869C211.302 77.6598 211.728 77.7682 212.109 77.9752C212.49 78.1821 212.814 78.4813 213.052 78.8459C213.29 79.2104 213.435 79.6289 213.473 80.0637C213.511 80.4985 213.442 80.9362 213.271 81.3373L211.483 85.5243C211.191 86.2076 210.708 86.79 210.092 87.1997C209.476 87.6093 208.755 87.8284 208.018 87.8299V87.8299Z" fill="#1F252D"/>
<path d="M160.522 82.8373C160.152 81.0709 159.272 79.4547 157.992 78.1924C156.712 76.9302 155.091 76.0786 153.332 75.745L149.941 75.1011C149.628 75.0416 149.307 75.0524 148.999 75.1326C148.691 75.2129 148.404 75.3606 148.16 75.5654C147.915 75.7701 147.718 76.0268 147.583 76.3171C147.448 76.6074 147.378 76.9242 147.378 77.2449V85.8692C147.378 86.7708 147.733 87.6356 148.365 88.2731C148.997 88.9107 149.854 89.2689 150.748 89.2689H159.446C159.739 89.2685 160.028 89.2022 160.292 89.0748C160.557 88.9474 160.789 88.762 160.973 88.5323C161.158 88.3026 161.288 88.0342 161.357 87.7469C161.425 87.4596 161.429 87.1606 161.367 86.8717L160.522 82.8373Z" fill="#E1ECEF"/>
<path d="M151.512 82.8418C150.884 82.8418 150.27 82.6539 149.747 82.3018C149.225 81.9497 148.818 81.4492 148.577 80.8637C148.337 80.2782 148.274 79.6339 148.397 79.0123C148.519 78.3907 148.822 77.8198 149.266 77.3716C149.71 76.9235 150.276 76.6183 150.893 76.4947C151.509 76.371 152.147 76.4345 152.728 76.677C153.308 76.9196 153.805 77.3303 154.154 77.8572C154.503 78.3842 154.689 79.0037 154.689 79.6375C154.689 80.4873 154.354 81.3023 153.759 81.9033C153.163 82.5042 152.355 82.8418 151.512 82.8418ZM151.512 76.9244C150.981 76.9244 150.461 77.0834 150.02 77.3812C149.578 77.6789 149.234 78.1022 149.03 78.5973C148.827 79.0925 148.774 79.6374 148.877 80.1631C148.981 80.6888 149.237 81.1716 149.613 81.5506C149.988 81.9296 150.467 82.1877 150.988 82.2923C151.509 82.3969 152.049 82.3432 152.54 82.1381C153.031 81.933 153.451 81.5856 153.746 81.14C154.041 80.6943 154.199 80.1704 154.199 79.6344C154.198 78.9159 153.915 78.2271 153.411 77.7191C152.907 77.211 152.225 76.9252 151.512 76.9244V76.9244Z" fill="#C1D0D3"/>
<path d="M151.512 81.5144C151.144 81.5144 150.783 81.4042 150.477 81.1976C150.17 80.991 149.932 80.6974 149.791 80.3539C149.649 80.0104 149.613 79.6324 149.684 79.2678C149.756 78.9031 149.934 78.5682 150.195 78.3052C150.455 78.0423 150.787 77.8633 151.149 77.7908C151.51 77.7182 151.885 77.7555 152.226 77.8977C152.566 78.04 152.857 78.281 153.062 78.5901C153.267 78.8993 153.376 79.2627 153.376 79.6345C153.376 80.133 153.179 80.6109 152.83 80.9634C152.48 81.3158 152.006 81.514 151.512 81.5144ZM151.512 78.2536C151.242 78.2539 150.977 78.3351 150.752 78.4871C150.527 78.639 150.352 78.8548 150.249 79.1071C150.145 79.3595 150.118 79.6371 150.171 79.9049C150.224 80.1726 150.355 80.4185 150.546 80.6115C150.738 80.8045 150.982 80.9359 151.247 80.989C151.513 81.0422 151.788 81.0147 152.038 80.9102C152.288 80.8056 152.502 80.6286 152.652 80.4016C152.803 80.1745 152.883 79.9076 152.883 79.6345C152.882 79.2681 152.738 78.9169 152.481 78.658C152.224 78.399 151.876 78.2536 151.512 78.2536V78.2536Z" fill="#C1D0D3"/>
<path d="M156.849 88.0024C156.375 88.0024 155.911 87.8605 155.516 87.5946C155.122 87.3287 154.814 86.9507 154.633 86.5085C154.451 86.0663 154.403 85.5797 154.496 85.1103C154.589 84.6408 154.817 84.2096 155.153 83.8712C155.488 83.5327 155.916 83.3022 156.381 83.2089C156.846 83.1155 157.329 83.1634 157.767 83.3466C158.206 83.5297 158.58 83.8399 158.844 84.2379C159.107 84.6359 159.248 85.1038 159.248 85.5824C159.248 86.2241 158.995 86.8394 158.545 87.2932C158.095 87.7469 157.485 88.002 156.849 88.0024V88.0024ZM156.849 83.6613C156.472 83.6613 156.103 83.7741 155.79 83.9854C155.477 84.1968 155.232 84.4971 155.088 84.8485C154.944 85.1999 154.906 85.5866 154.98 85.9596C155.053 86.3326 155.235 86.6751 155.502 86.944C155.769 87.2128 156.108 87.3958 156.478 87.4698C156.848 87.5438 157.231 87.5055 157.579 87.3598C157.928 87.214 158.225 86.9673 158.435 86.651C158.644 86.3346 158.755 85.9627 158.755 85.5824C158.753 85.0739 158.551 84.5871 158.194 84.2283C157.837 83.8695 157.353 83.6678 156.849 83.6674V83.6613Z" fill="#C1D0D3"/>
<path opacity="0.3" d="M157.546 77.7851C156.343 76.7441 154.89 76.0405 153.332 75.745L149.941 75.1011C149.628 75.0416 149.307 75.0524 148.999 75.1326C148.691 75.2129 148.404 75.3606 148.16 75.5654C147.915 75.7701 147.718 76.0268 147.583 76.3171C147.448 76.6074 147.378 76.9242 147.378 77.2449V85.8692C147.378 86.4441 147.522 87.0097 147.799 87.5126C153.468 86.3193 156.232 81.5311 157.546 77.7851Z" fill="white"/>
<path d="M159.446 89.5177H150.748C149.79 89.5165 148.87 89.1317 148.192 88.4478C147.514 87.7638 147.133 86.8365 147.132 85.8693V77.245C147.131 76.8878 147.209 76.5349 147.36 76.2116C147.51 75.8882 147.73 75.6024 148.002 75.3743C148.275 75.1463 148.594 74.9817 148.937 74.8923C149.28 74.8029 149.638 74.7908 149.986 74.857L153.378 75.5009C155.186 75.8404 156.853 76.7143 158.169 78.0115C159.484 79.3088 160.387 80.9709 160.764 82.787L161.608 86.8215C161.676 87.1464 161.672 87.4827 161.595 87.8056C161.518 88.1286 161.371 88.4302 161.163 88.6885C160.956 88.9468 160.695 89.1552 160.398 89.2987C160.101 89.4421 159.776 89.5169 159.446 89.5177ZM149.543 75.3117C149.035 75.3125 148.548 75.5166 148.19 75.879C147.831 76.2415 147.629 76.7328 147.629 77.245V85.8693C147.63 86.7046 147.96 87.5054 148.546 88.096C149.131 88.6867 149.925 89.019 150.753 89.0203H159.446C159.703 89.0201 159.956 88.9624 160.187 88.8511C160.418 88.7399 160.622 88.578 160.783 88.3773C160.944 88.1765 161.059 87.942 161.119 87.6908C161.179 87.4396 161.183 87.178 161.13 86.9252L160.285 82.8893C159.928 81.1697 159.072 79.5958 157.827 78.3673C156.582 77.1388 155.003 76.3111 153.291 75.9892L149.898 75.3453C149.78 75.3233 149.659 75.312 149.538 75.3117H149.543Z" fill="#111214"/>
<path d="M216.741 82.8373C217.111 81.0709 217.991 79.4547 219.271 78.1924C220.551 76.9302 222.172 76.0786 223.931 75.745L227.323 75.1011C227.635 75.0416 227.957 75.0524 228.264 75.1326C228.572 75.2129 228.859 75.3606 229.103 75.5654C229.348 75.7701 229.545 76.0268 229.68 76.3171C229.815 76.6074 229.885 76.9242 229.885 77.2449V85.8692C229.885 86.7707 229.529 87.6352 228.898 88.2727C228.266 88.9101 227.409 89.2685 226.515 89.2689H217.821C217.528 89.2692 217.239 89.2034 216.974 89.0763C216.71 88.9493 216.476 88.7642 216.292 88.5345C216.107 88.3049 215.976 88.0366 215.907 87.7491C215.839 87.4617 215.835 87.1624 215.896 86.8732L216.741 82.8373Z" fill="#E1ECEF"/>
<path d="M225.749 82.8418C225.121 82.8418 224.507 82.6539 223.985 82.3018C223.462 81.9497 223.055 81.4492 222.815 80.8637C222.574 80.2782 222.511 79.6339 222.634 79.0123C222.756 78.3907 223.059 77.8198 223.503 77.3716C223.947 76.9235 224.513 76.6183 225.13 76.4947C225.746 76.371 226.385 76.4345 226.965 76.677C227.546 76.9196 228.042 77.3303 228.391 77.8572C228.74 78.3842 228.926 79.0037 228.926 79.6375C228.926 80.4873 228.591 81.3023 227.996 81.9033C227.4 82.5042 226.592 82.8418 225.749 82.8418ZM225.749 76.9244C225.218 76.9244 224.699 77.0834 224.257 77.3812C223.815 77.6789 223.471 78.1022 223.267 78.5973C223.064 79.0925 223.011 79.6374 223.114 80.1631C223.218 80.6888 223.474 81.1716 223.85 81.5506C224.225 81.9296 224.704 82.1877 225.225 82.2923C225.746 82.3969 226.287 82.3432 226.778 82.1381C227.268 81.933 227.688 81.5856 227.983 81.14C228.278 80.6943 228.436 80.1704 228.436 79.6344C228.435 78.9159 228.152 78.2271 227.648 77.7191C227.145 77.211 226.462 76.9252 225.749 76.9244V76.9244Z" fill="#C1D0D3"/>
<path d="M225.749 81.5144C225.381 81.5144 225.02 81.4042 224.714 81.1976C224.408 80.991 224.169 80.6974 224.028 80.3539C223.887 80.0104 223.85 79.6324 223.922 79.2678C223.993 78.9031 224.171 78.5682 224.432 78.3052C224.692 78.0423 225.024 77.8633 225.386 77.7908C225.747 77.7182 226.122 77.7555 226.463 77.8977C226.803 78.04 227.094 78.281 227.299 78.5901C227.504 78.8993 227.613 79.2627 227.613 79.6345C227.613 80.133 227.416 80.6109 227.067 80.9634C226.717 81.3158 226.244 81.514 225.749 81.5144ZM225.749 78.2536C225.479 78.2539 225.214 78.3351 224.989 78.4871C224.764 78.639 224.589 78.8548 224.486 79.1071C224.382 79.3595 224.355 79.6371 224.408 79.9049C224.461 80.1726 224.592 80.4185 224.783 80.6115C224.975 80.8045 225.219 80.9359 225.484 80.989C225.75 81.0422 226.025 81.0147 226.275 80.9102C226.525 80.8056 226.739 80.6286 226.889 80.4016C227.04 80.1745 227.12 79.9076 227.12 79.6345C227.119 79.2681 226.975 78.9169 226.718 78.658C226.461 78.399 226.113 78.2536 225.749 78.2536V78.2536Z" fill="#C1D0D3"/>
<path d="M220.408 88.0024C219.934 88.0028 219.47 87.8611 219.075 87.5953C218.68 87.3296 218.372 86.9518 218.191 86.5096C218.009 86.0674 217.961 85.5808 218.053 85.1112C218.146 84.6417 218.374 84.2103 218.71 83.8717C219.045 83.5331 219.473 83.3025 219.938 83.209C220.403 83.1155 220.886 83.1633 221.324 83.3464C221.763 83.5295 222.138 83.8397 222.401 84.2377C222.665 84.6357 222.806 85.1037 222.806 85.5824C222.805 86.2239 222.553 86.8389 222.103 87.2926C221.654 87.7464 221.044 88.0016 220.408 88.0024V88.0024ZM220.408 83.6613C220.031 83.661 219.662 83.7736 219.349 83.9847C219.035 84.1958 218.79 84.4961 218.646 84.8475C218.502 85.1988 218.464 85.5855 218.537 85.9586C218.611 86.3317 218.792 86.6744 219.059 86.9434C219.326 87.2124 219.665 87.3955 220.035 87.4697C220.405 87.5438 220.788 87.5056 221.137 87.3599C221.485 87.2142 221.783 86.9675 221.992 86.6511C222.201 86.3347 222.313 85.9628 222.313 85.5824C222.31 85.0742 222.109 84.5876 221.752 84.2288C221.395 83.87 220.912 83.6682 220.408 83.6674V83.6613Z" fill="#C1D0D3"/>
<path opacity="0.3" d="M223.931 75.745C222.172 76.0787 220.55 76.9306 219.271 78.1931C217.991 79.4556 217.111 81.0722 216.741 82.8388L215.896 86.8717C215.835 87.1609 215.839 87.4602 215.907 87.7476C215.976 88.0351 216.107 88.3034 216.292 88.533C216.476 88.7627 216.71 88.9478 216.974 89.0748C217.239 89.2019 217.528 89.2677 217.821 89.2674H221.257C221.894 88.7264 222.434 88.0792 222.854 87.3539C224.872 83.8642 226.38 79.7733 226.509 75.2537L223.931 75.745Z" fill="white"/>
<path d="M226.515 89.5177H217.821C217.492 89.5176 217.166 89.4433 216.869 89.3002C216.571 89.157 216.309 88.9487 216.101 88.6903C215.894 88.4319 215.746 88.1301 215.669 87.8067C215.592 87.4834 215.587 87.1468 215.655 86.8215L216.499 82.787C216.876 80.9707 217.78 79.3084 219.095 78.0112C220.411 76.7139 222.079 75.8402 223.887 75.5009L227.279 74.857C227.627 74.7908 227.985 74.8029 228.328 74.8923C228.671 74.9817 228.99 75.1463 229.262 75.3743C229.535 75.6024 229.754 75.8882 229.905 76.2116C230.055 76.5349 230.133 76.8878 230.133 77.245V85.8693C230.132 86.8368 229.75 87.7643 229.072 88.4483C228.394 89.1323 227.474 89.5169 226.515 89.5177V89.5177ZM227.725 75.3117C227.605 75.3124 227.486 75.3236 227.368 75.3453L223.976 75.9892C222.264 76.3107 220.685 77.1383 219.44 78.3669C218.195 79.5954 217.34 81.1695 216.983 82.8893L216.138 86.9252C216.084 87.1781 216.088 87.4397 216.148 87.6911C216.208 87.9424 216.323 88.177 216.484 88.3778C216.645 88.5786 216.849 88.7405 217.081 88.8517C217.312 88.9628 217.565 89.0204 217.821 89.0203H226.515C227.342 89.0182 228.135 88.6855 228.72 88.0949C229.305 87.5044 229.634 86.7041 229.635 85.8693V77.245C229.635 76.7328 229.434 76.2415 229.075 75.879C228.716 75.5166 228.23 75.3125 227.722 75.3117H227.725Z" fill="#111214"/>
<path opacity="0.5" d="M188.631 28.751C184.706 28.751 180.764 28.7825 176.806 28.8456L149.416 56.4762C149.387 56.667 149.354 56.8592 149.325 57.0515C149.211 57.8029 149.25 58.5697 149.439 59.3056C149.628 60.0414 149.962 60.731 150.423 61.3325C150.884 61.9341 151.46 62.4351 152.119 62.8053C152.777 63.1755 153.502 63.4071 154.252 63.4861C158.891 63.9612 163.558 64.3366 168.253 64.6122L203.65 28.9066C198.634 28.8044 193.617 28.751 188.631 28.751Z" fill="white"/>
<path opacity="0.5" d="M220.125 29.4192C218.846 29.3643 217.566 29.3134 216.284 29.2666L180.736 65.1248C184.027 65.2011 187.319 65.2286 190.614 65.2072L223.61 31.9232C223.331 31.211 222.853 30.5956 222.235 30.1512C221.617 29.7069 220.884 29.4527 220.125 29.4192V29.4192Z" fill="white"/>
<path d="M227.938 57.0514C227.838 56.3892 227.733 55.728 227.624 55.0678L223.824 32.7029C223.67 31.8128 223.22 31.0023 222.547 30.4054C221.874 29.8086 221.02 29.4612 220.125 29.4208C209.688 28.9767 199.085 28.7524 188.632 28.7524C178.18 28.7524 167.582 28.9767 157.137 29.4208C156.242 29.4616 155.388 29.8091 154.716 30.4059C154.043 31.0027 153.593 31.813 153.44 32.7029L149.64 55.0693C149.528 55.7285 149.423 56.3897 149.325 57.0529C149.211 57.8043 149.25 58.5712 149.439 59.307C149.628 60.0429 149.962 60.7325 150.423 61.334C150.884 61.9356 151.46 62.4366 152.119 62.8067C152.777 63.1769 153.502 63.4085 154.252 63.4876C165.675 64.6496 177.15 65.2297 188.631 65.2256C200.113 65.2297 211.588 64.6497 223.011 63.4876C223.761 63.4086 224.487 63.1769 225.145 62.8066C225.803 62.4364 226.38 61.9352 226.841 61.3335C227.302 60.7317 227.636 60.042 227.825 59.306C228.014 58.5699 228.052 57.8029 227.938 57.0514ZM154.908 32.9547C155.004 32.404 155.283 31.9026 155.699 31.5334C156.115 31.1641 156.643 30.9491 157.197 30.9238C167.62 30.4813 178.195 30.2585 188.629 30.2585C199.064 30.2585 209.638 30.4813 220.06 30.9238C220.614 30.9491 221.142 31.1641 221.559 31.5334C221.975 31.9026 222.253 32.404 222.349 32.9547L226.093 54.9808H151.17L154.908 32.9547Z" fill="#4E4D4D"/>
<path d="M161.413 61.8809C161.362 61.8806 161.312 61.8643 161.27 61.8342C161.229 61.8041 161.198 61.7618 161.181 61.713C161.164 61.6642 161.163 61.6115 161.178 61.562C161.192 61.5125 161.221 61.4688 161.262 61.4369L173.044 52.0237C173.069 52.0003 173.099 51.9824 173.131 51.9712C173.163 51.9599 173.197 51.9556 173.231 51.9583C173.265 51.9611 173.298 51.9709 173.328 51.9873C173.358 52.0036 173.385 52.026 173.406 52.0531C173.427 52.0802 173.442 52.1115 173.45 52.1448C173.459 52.1781 173.46 52.2129 173.455 52.2468C173.449 52.2808 173.437 52.3132 173.418 52.342C173.399 52.3709 173.375 52.3955 173.347 52.4143L161.564 61.8275C161.521 61.8617 161.468 61.8805 161.413 61.8809V61.8809Z" fill="#111214"/>
<path d="M183.65 54.6602C183.633 54.6617 183.616 54.6617 183.6 54.6602L161.351 50.0017C161.287 49.9884 161.23 49.9498 161.194 49.8946C161.158 49.8394 161.146 49.772 161.159 49.7072C161.172 49.6425 161.21 49.5857 161.265 49.5493C161.32 49.513 161.387 49.5001 161.451 49.5134L183.7 54.1735C183.76 54.1853 183.814 54.2195 183.85 54.2694C183.887 54.3192 183.904 54.3811 183.898 54.4429C183.892 54.5047 183.863 54.5619 183.817 54.6032C183.771 54.6445 183.711 54.6671 183.65 54.6663V54.6602Z" fill="#111214"/>
<path d="M193.609 61.8807C193.558 61.8804 193.508 61.8641 193.467 61.834C193.425 61.804 193.394 61.7616 193.377 61.7128C193.361 61.6641 193.36 61.6113 193.374 61.5618C193.388 61.5123 193.418 61.4686 193.458 61.4367L205.24 52.0235C205.292 51.9894 205.355 51.9761 205.416 51.9862C205.477 51.9964 205.532 52.0294 205.57 52.0785C205.608 52.1277 205.626 52.1894 205.621 52.2516C205.616 52.3138 205.588 52.3718 205.543 52.4142L193.76 61.8273C193.717 61.8618 193.664 61.8806 193.609 61.8807V61.8807Z" fill="#111214"/>
<path d="M215.858 54.6602C215.841 54.6616 215.824 54.6616 215.807 54.6602L193.559 50.0017C193.527 49.9951 193.497 49.9822 193.47 49.9639C193.444 49.9455 193.421 49.922 193.403 49.8946C193.385 49.8673 193.373 49.8366 193.366 49.8045C193.36 49.7723 193.361 49.7393 193.367 49.7072C193.374 49.6752 193.386 49.6447 193.405 49.6176C193.423 49.5905 193.446 49.5673 193.473 49.5493C193.5 49.5313 193.531 49.5189 193.563 49.5128C193.595 49.5066 193.627 49.5068 193.659 49.5134L215.908 54.1735C215.968 54.1853 216.022 54.2195 216.059 54.2694C216.096 54.3192 216.112 54.3811 216.106 54.4429C216.1 54.5047 216.071 54.5619 216.025 54.6032C215.979 54.6445 215.92 54.6671 215.858 54.6663V54.6602Z" fill="#111214"/>
<path d="M211.575 79.1721H165.688C165.625 79.1672 165.567 79.1387 165.525 79.0925C165.483 79.0463 165.459 78.9856 165.459 78.9226C165.459 78.8596 165.483 78.7989 165.525 78.7527C165.567 78.7064 165.625 78.678 165.688 78.6731H211.575C211.638 78.678 211.696 78.7064 211.738 78.7527C211.781 78.7989 211.804 78.8596 211.804 78.9226C211.804 78.9856 211.781 79.0463 211.738 79.0925C211.696 79.1387 211.638 79.1672 211.575 79.1721Z" fill="#111214"/>
<path d="M212.258 80.6552H165.004C164.939 80.6552 164.876 80.629 164.83 80.5823C164.783 80.5357 164.757 80.4724 164.757 80.4064C164.757 80.3405 164.783 80.2772 164.83 80.2306C164.876 80.1839 164.939 80.1577 165.004 80.1577H212.258C212.323 80.1577 212.386 80.1839 212.432 80.2306C212.478 80.2772 212.504 80.3405 212.504 80.4064C212.504 80.4724 212.478 80.5357 212.432 80.5823C212.386 80.629 212.323 80.6552 212.258 80.6552Z" fill="#111214"/>
<path d="M211.575 82.1415H165.688C165.622 82.1415 165.56 82.1153 165.513 82.0686C165.467 82.022 165.441 81.9587 165.441 81.8928C165.441 81.8268 165.467 81.7635 165.513 81.7169C165.56 81.6702 165.622 81.644 165.688 81.644H211.575C211.641 81.644 211.704 81.6702 211.75 81.7169C211.796 81.7635 211.822 81.8268 211.822 81.8928C211.822 81.9587 211.796 82.022 211.75 82.0686C211.704 82.1153 211.641 82.1415 211.575 82.1415V82.1415Z" fill="#111214"/>
<path d="M211.017 83.6215H166.254C166.188 83.6215 166.125 83.5953 166.079 83.5486C166.033 83.502 166.007 83.4387 166.007 83.3727C166.007 83.3068 166.033 83.2435 166.079 83.1969C166.125 83.1502 166.188 83.124 166.254 83.124H211.029C211.095 83.124 211.157 83.1502 211.204 83.1969C211.25 83.2435 211.276 83.3068 211.276 83.3727C211.276 83.4387 211.25 83.502 211.204 83.5486C211.157 83.5953 211.095 83.6215 211.029 83.6215H211.017Z" fill="#111214"/>
<path d="M210.338 85.1063H166.924C166.858 85.1063 166.796 85.0801 166.749 85.0335C166.703 84.9868 166.677 84.9236 166.677 84.8576C166.677 84.7916 166.703 84.7284 166.749 84.6817C166.796 84.6351 166.858 84.6089 166.924 84.6089H210.338C210.403 84.6089 210.466 84.6351 210.512 84.6817C210.559 84.7284 210.585 84.7916 210.585 84.8576C210.585 84.9236 210.559 84.9868 210.512 85.0335C210.466 85.0801 210.403 85.1063 210.338 85.1063Z" fill="#111214"/>
<path d="M209.429 86.5895H167.83C167.764 86.5895 167.702 86.5633 167.655 86.5166C167.609 86.47 167.583 86.4067 167.583 86.3408C167.583 86.2748 167.609 86.2115 167.655 86.1649C167.702 86.1182 167.764 86.092 167.83 86.092H209.429C209.494 86.092 209.557 86.1182 209.603 86.1649C209.65 86.2115 209.676 86.2748 209.676 86.3408C209.676 86.4067 209.65 86.47 209.603 86.5166C209.557 86.5633 209.494 86.5895 209.429 86.5895Z" fill="#111214"/>
<path d="M156.561 104.519C157.519 103.553 157.519 101.986 156.561 101.019C155.602 100.053 154.049 100.053 153.091 101.019C152.133 101.986 152.133 103.553 153.091 104.519C154.049 105.486 155.602 105.486 156.561 104.519Z" fill="#111214"/>
<path d="M224.705 103.717C225.224 102.454 224.629 101.006 223.377 100.483C222.125 99.9603 220.69 100.56 220.172 101.823C219.653 103.086 220.248 104.533 221.499 105.057C222.751 105.58 224.187 104.98 224.705 103.717Z" fill="#111214"/>
<path d="M194.748 91.6443L190.654 110.792C190.539 111.331 190.879 111.862 191.413 111.978L195.349 112.834C195.883 112.95 196.409 112.608 196.525 112.069L200.618 92.9214C200.733 92.3826 200.394 91.8517 199.86 91.7355L195.923 90.8792C195.389 90.763 194.863 91.1056 194.748 91.6443Z" fill="white"/>
<path d="M195.561 113.108C195.473 113.108 195.386 113.098 195.3 113.08L191.367 112.223C191.209 112.188 191.059 112.123 190.925 112.03C190.792 111.937 190.678 111.818 190.59 111.681C190.502 111.543 190.442 111.39 190.413 111.229C190.383 111.068 190.386 110.903 190.42 110.743L194.511 91.602C194.544 91.4418 194.609 91.2899 194.701 91.1551C194.793 91.0202 194.911 90.905 195.047 90.8161C195.184 90.7272 195.336 90.6664 195.496 90.6371C195.656 90.6077 195.819 90.6105 195.978 90.6452L199.911 91.5028C200.07 91.5372 200.22 91.6028 200.353 91.6958C200.487 91.7888 200.601 91.9074 200.689 92.0449C200.777 92.1823 200.837 92.3359 200.866 92.4969C200.895 92.6578 200.892 92.823 200.858 92.9829L196.763 112.131C196.702 112.407 196.55 112.654 196.331 112.832C196.113 113.009 195.841 113.107 195.561 113.108V113.108ZM195.712 91.1076C195.543 91.1082 195.379 91.1671 195.247 91.2745C195.116 91.3819 195.025 91.5313 194.989 91.6981L190.894 110.846C190.853 111.04 190.889 111.243 190.996 111.41C191.102 111.577 191.27 111.694 191.463 111.736L195.396 112.593C195.588 112.635 195.789 112.598 195.955 112.491C196.12 112.383 196.237 112.214 196.279 112.02L200.372 92.8715C200.414 92.6773 200.377 92.4744 200.271 92.3074C200.164 92.1404 199.996 92.0228 199.804 91.9804L195.871 91.1244C195.82 91.1138 195.768 91.1082 195.716 91.1076H195.712Z" fill="#111214"/>
<path d="M197.624 92.5769C197.727 92.5993 197.822 92.6521 197.895 92.7286C197.969 92.8052 198.018 92.902 198.037 93.0069C198.056 93.1118 198.044 93.2199 198.002 93.3178C197.96 93.4156 197.89 93.4986 197.801 93.5563C197.712 93.6141 197.608 93.6439 197.503 93.6421C197.397 93.6403 197.294 93.6069 197.207 93.5462C197.121 93.4854 197.054 93.4 197.015 93.3008C196.976 93.2016 196.968 93.0931 196.99 92.9889C197.02 92.8496 197.104 92.728 197.223 92.6508C197.341 92.5736 197.486 92.547 197.624 92.5769V92.5769Z" fill="#111214"/>
<path d="M193.655 111.141C193.758 111.163 193.865 111.154 193.964 111.115C194.062 111.076 194.146 111.008 194.206 110.92C194.266 110.833 194.299 110.729 194.301 110.622C194.302 110.516 194.272 110.411 194.215 110.322C194.158 110.232 194.075 110.162 193.978 110.12C193.881 110.078 193.774 110.065 193.67 110.085C193.566 110.104 193.47 110.154 193.395 110.228C193.319 110.302 193.267 110.397 193.245 110.502C193.215 110.641 193.242 110.787 193.319 110.906C193.396 111.026 193.516 111.111 193.655 111.141V111.141Z" fill="#111214"/>
<path opacity="0.2" d="M130.558 85.3871L135.183 80.0007L134.54 76.2288L132.528 77.3335L130.462 75.8259L130.558 85.3871Z" fill="#FFC78F"/>
<path d="M45.1697 77.6477L40.8616 77.2769C40.4872 77.2439 40.1409 77.0631 39.8979 76.774C39.6548 76.4849 39.5348 76.1107 39.5637 75.7327V75.7327C39.5968 75.3534 39.7773 75.0027 40.0658 74.7572C40.3543 74.5116 40.7274 74.3911 41.1036 74.422L45.4103 74.7913C45.7858 74.825 46.133 75.007 46.3763 75.2976C46.6197 75.5882 46.7394 75.9639 46.7097 76.3431C46.6747 76.7211 46.4934 77.0701 46.2052 77.3143C45.9169 77.5584 45.5449 77.6783 45.1697 77.6477Z" fill="#F5F5F5"/>
<path d="M45.2907 76.7887L40.8858 76.4103C40.7375 76.3975 40.6002 76.3262 40.5036 76.2119C40.4071 76.0977 40.359 75.9497 40.3699 75.7999C40.3827 75.6504 40.4533 75.5119 40.5666 75.4145C40.6798 75.3171 40.8266 75.2686 40.975 75.2796L45.389 75.6504C45.5384 75.664 45.6765 75.7365 45.7731 75.8523C45.8697 75.968 45.9171 76.1176 45.9049 76.2684V76.2684C45.8918 76.4195 45.8198 76.5592 45.7046 76.6568C45.5894 76.7544 45.4406 76.8018 45.2907 76.7887V76.7887Z" fill="#1F252D"/>
<path d="M88.9622 82.4467L84.6632 81.9798C84.2879 81.9383 83.9443 81.7485 83.7075 81.4519C83.4707 81.1553 83.3602 80.7762 83.4001 80.3975V80.3975C83.4412 80.0193 83.6292 79.6728 83.9229 79.4341C84.2166 79.1953 84.5921 79.0836 84.9672 79.1234L89.2663 79.5888C89.6414 79.6306 89.9848 79.8206 90.2215 80.1171C90.4582 80.4136 90.5689 80.7925 90.5294 81.1711V81.1711C90.4883 81.5495 90.3003 81.896 90.0067 82.135C89.713 82.374 89.3375 82.4861 88.9622 82.4467V82.4467Z" fill="#F5F5F5"/>
<path d="M89.106 81.5877L84.7116 81.1116C84.5624 81.0947 84.4259 81.019 84.3318 80.9009C84.2377 80.7829 84.1937 80.6321 84.2094 80.4814V80.4814C84.2258 80.331 84.3006 80.1933 84.4174 80.0983C84.5342 80.0034 84.6835 79.959 84.8327 79.9748L89.2195 80.4524C89.3686 80.4689 89.5051 80.5444 89.5993 80.6622C89.6934 80.78 89.7374 80.9306 89.7217 81.0811V81.0811C89.7053 81.23 89.6316 81.3665 89.5165 81.4613C89.4013 81.556 89.254 81.6014 89.106 81.5877V81.5877Z" fill="#1F252D"/>
<path d="M22.6865 60.1046C22.6364 60.1032 22.588 60.0865 22.5476 60.0567C22.5073 60.0268 22.4768 59.9853 22.4604 59.9376C22.444 59.8899 22.4424 59.8383 22.4557 59.7896C22.4691 59.741 22.4968 59.6976 22.5352 59.6652L23.34 58.9846C23.3646 58.9625 23.3935 58.9456 23.4247 58.935C23.456 58.9243 23.4891 58.9201 23.522 58.9226C23.5549 58.925 23.587 58.9341 23.6163 58.9493C23.6457 58.9645 23.6717 58.9855 23.6929 59.0111C23.714 59.0366 23.7299 59.0662 23.7395 59.098C23.7492 59.1299 23.7524 59.1633 23.7489 59.1964C23.7455 59.2295 23.7355 59.2616 23.7196 59.2908C23.7036 59.3199 23.6821 59.3455 23.6561 59.3661L22.8499 60.0467C22.8044 60.0858 22.7462 60.1064 22.6865 60.1046V60.1046Z" fill="white"/>
<path d="M18.9168 63.2908C18.8668 63.2894 18.8184 63.2726 18.778 63.2428C18.7376 63.213 18.7072 63.1714 18.6908 63.1237C18.6743 63.076 18.6727 63.0244 18.6861 62.9758C18.6994 62.9271 18.7272 62.8837 18.7656 62.8513L21.2887 60.7151C21.3134 60.693 21.3422 60.6761 21.3735 60.6654C21.4048 60.6548 21.4378 60.6506 21.4707 60.653C21.5036 60.6555 21.5357 60.6646 21.5651 60.6798C21.5944 60.695 21.6205 60.716 21.6416 60.7415C21.6628 60.7671 21.6787 60.7966 21.6883 60.8285C21.6979 60.8603 21.7011 60.8938 21.6977 60.9269C21.6943 60.96 21.6843 60.9921 21.6684 61.0212C21.6524 61.0504 21.6308 61.076 21.6049 61.0966L19.0832 63.2328C19.0368 63.2722 18.9775 63.2929 18.9168 63.2908V63.2908Z" fill="white"/>
<path d="M60.0441 78.0383H60.0184L51.7757 77.1548C51.7429 77.1521 51.7109 77.1428 51.6817 77.1275C51.6525 77.1121 51.6266 77.091 51.6056 77.0655C51.5847 77.0399 51.569 77.0103 51.5595 76.9785C51.55 76.9466 51.547 76.9132 51.5505 76.8802C51.554 76.8472 51.5641 76.8152 51.5801 76.7862C51.5961 76.7571 51.6177 76.7316 51.6436 76.7111C51.6695 76.6906 51.6992 76.6756 51.731 76.6669C51.7628 76.6582 51.796 76.656 51.8286 76.6604L60.0698 77.5439C60.1323 77.5509 60.1898 77.5818 60.2305 77.6302C60.2712 77.6785 60.2921 77.7408 60.2888 77.8041C60.2855 77.8675 60.2583 77.9272 60.2129 77.971C60.1674 78.0148 60.107 78.0395 60.0441 78.0398V78.0383Z" fill="white"/>
<path d="M64.4293 78.5083H64.4066L62.5808 78.345C62.5156 78.3392 62.4554 78.3074 62.4134 78.2568C62.3714 78.2061 62.3511 78.1407 62.3569 78.075C62.3628 78.0092 62.3942 77.9485 62.4444 77.9061C62.4947 77.8638 62.5595 77.8433 62.6247 77.8491L64.449 78.0124C64.5112 78.0192 64.5686 78.0497 64.6093 78.0976C64.6501 78.1455 64.6713 78.2073 64.6686 78.2704C64.6659 78.3335 64.6396 78.3931 64.5948 78.4373C64.5501 78.4815 64.4904 78.5069 64.4278 78.5083H64.4293Z" fill="white"/>
<path d="M60.5507 54.5748H60.5432L59.6794 54.5474C59.647 54.5464 59.6152 54.5389 59.5856 54.5255C59.5561 54.5121 59.5295 54.4929 59.5073 54.4691C59.4851 54.4453 59.4678 54.4173 59.4563 54.3868C59.4448 54.3562 59.4394 54.3237 59.4404 54.291C59.4414 54.2584 59.4488 54.2262 59.4621 54.1964C59.4754 54.1666 59.4944 54.1398 59.518 54.1174C59.5416 54.095 59.5693 54.0775 59.5996 54.0659C59.6299 54.0544 59.6622 54.0489 59.6946 54.0499L60.5598 54.0774C60.6252 54.0786 60.6874 54.106 60.7328 54.1535C60.7782 54.201 60.803 54.2647 60.8018 54.3307C60.8006 54.3967 60.7735 54.4594 60.7264 54.5052C60.6793 54.551 60.6161 54.576 60.5507 54.5748Z" fill="white"/>
<path d="M58.0079 54.494H58.0003L50.9391 54.2697C50.9067 54.2687 50.8748 54.2613 50.8453 54.2479C50.8157 54.2345 50.7891 54.2153 50.7669 54.1915C50.7447 54.1677 50.7274 54.1397 50.7159 54.1091C50.7044 54.0786 50.6991 54.046 50.7001 54.0134C50.7028 53.9477 50.731 53.8856 50.7784 53.8406C50.8259 53.7955 50.889 53.771 50.9542 53.7723L58.0155 53.9966C58.0809 53.9976 58.1432 54.0248 58.1887 54.0721C58.2342 54.1195 58.2593 54.1831 58.2583 54.2491C58.2573 54.3151 58.2303 54.3779 58.1834 54.4239C58.1364 54.4698 58.0733 54.495 58.0079 54.494V54.494Z" fill="white"/>
<path d="M180.069 70.9889C179.285 70.9797 178.405 70.9645 177.446 70.9416C177.381 70.9402 177.318 70.9126 177.273 70.865C177.228 70.8173 177.203 70.7535 177.205 70.6875C177.206 70.6216 177.233 70.5589 177.281 70.5132C177.328 70.4676 177.391 70.4427 177.457 70.4441C178.413 70.467 179.293 70.4823 180.073 70.4899C180.136 70.4948 180.194 70.5233 180.236 70.5695C180.279 70.6157 180.302 70.6764 180.302 70.7394C180.302 70.8024 180.279 70.8631 180.236 70.9093C180.194 70.9556 180.136 70.984 180.073 70.9889H180.069Z" fill="white"/>
<path d="M173.188 70.8133H173.179C167.485 70.6119 161.833 70.3113 161.771 70.3082C161.738 70.3084 161.705 70.3017 161.674 70.2885C161.643 70.2753 161.615 70.2558 161.592 70.2313C161.568 70.2068 161.55 70.1777 161.539 70.146C161.527 70.1142 161.522 70.0804 161.524 70.0465C161.525 70.0127 161.534 69.9796 161.549 69.9492C161.564 69.9188 161.585 69.8918 161.61 69.8699C161.636 69.848 161.666 69.8316 161.698 69.8217C161.73 69.8117 161.764 69.8086 161.797 69.8123C161.853 69.8123 167.506 70.1175 173.197 70.3159C173.229 70.3165 173.261 70.3235 173.291 70.3365C173.32 70.3496 173.347 70.3684 173.37 70.3919C173.392 70.4155 173.41 70.4432 173.422 70.4736C173.434 70.504 173.439 70.5365 173.439 70.5692C173.438 70.6018 173.431 70.634 173.418 70.664C173.405 70.6939 173.387 70.721 173.363 70.7437C173.34 70.7664 173.313 70.7842 173.282 70.7961C173.252 70.8081 173.22 70.8139 173.188 70.8133V70.8133Z" fill="white"/>
</g>
<defs>
<clipPath id="clip0_212_2065">
<rect width="240" height="117" fill="white" transform="translate(5 6)"/>
</clipPath>
</defs>
</svg>
