<svg width="250" height="119" viewBox="0 0 250 119" fill="none" xmlns="http://www.w3.org/2000/svg">
<g clip-path="url(#clip0_212_1802)">
<path d="M7.19545 68.8549L7.38053 68.6347C8.78422 66.8949 10.7648 65.716 12.9629 65.3119C18.115 64.5063 31.3406 62.98 54.4802 61.6539L167.608 61.1885C167.928 61.1872 168.246 61.249 168.542 61.3705C168.839 61.4921 169.109 61.6708 169.337 61.8967C169.564 62.1225 169.745 62.391 169.869 62.6868C169.993 62.9825 170.057 63.2998 170.059 63.6205V69.2052L169.133 82.4462L169.158 88.6414C169.198 89.9781 168.754 91.2842 167.908 92.3194L166.797 93.5705C166.306 94.1467 165.637 94.5443 164.896 94.7014L158.819 95.8073L139.596 95.8874V91.6739C139.596 87.0751 138.335 82.7415 136.094 79.4637C133.758 76.0309 130.617 74.1493 127.251 74.1643C123.884 74.1793 120.748 76.0859 118.452 79.5338C116.251 82.8315 115.051 87.1752 115.071 91.774V95.9875L43.8158 96.2827V92.0692C43.8158 87.4704 43.3156 90.1426 41.0746 86.8649C38.7387 83.432 38.0734 88.7315 34.702 88.7415C31.3306 88.7515 28.6044 89.367 26.2984 92.8149C24.0975 96.1126 19.2955 87.5755 19.2955 92.1693V96.3828H17.6898L11.8024 95.7773C11.2221 95.7323 10.772 95.0617 10.7669 94.246V90.538L8.41096 88.0359C7.78017 87.3669 7.31427 86.5598 7.05039 85.6789C6.65664 84.3414 6.45454 82.9548 6.45014 81.5605L6.40512 71.2369C6.37997 70.3745 6.65985 69.531 7.19545 68.8549Z" fill="#95C3ED"/>
<path d="M11.6323 78.3778C12.2026 78.3857 12.7708 78.3081 13.3181 78.1476C13.7382 78.0025 13.9283 77.8173 13.8183 77.6472L11.5023 72.8332C11.0021 71.8624 9.20633 71.0367 6.63526 70.5012C6.49896 70.7227 6.42467 70.9768 6.42017 71.2368L6.45018 78.3978L11.6323 78.3778Z" fill="#F6AF58"/>
<path d="M6.43515 78.648C6.40139 78.6457 6.36847 78.6365 6.33838 78.621C6.30829 78.6055 6.28165 78.5841 6.26007 78.558C6.23591 78.5347 6.21678 78.5067 6.20387 78.4757C6.19096 78.4447 6.18456 78.4114 6.18504 78.3778L6.15503 71.2219C6.1587 70.9144 6.2451 70.6136 6.40513 70.3511C6.43199 70.3069 6.47191 70.272 6.51939 70.2514C6.56687 70.2308 6.61958 70.2254 6.67024 70.236C9.4214 70.8065 11.2121 71.6822 11.7074 72.7031L14.0633 77.5021C14.0906 77.5609 14.1048 77.6249 14.1048 77.6897C14.1048 77.7546 14.0906 77.8186 14.0633 77.8774C13.9912 78.0038 13.8934 78.1136 13.7762 78.1998C13.659 78.2859 13.5251 78.3466 13.3831 78.3778C12.812 78.5484 12.2183 78.6311 11.6223 78.623H6.42014L6.43515 78.648ZM6.75528 70.7815C6.69176 70.925 6.65774 71.0799 6.65524 71.2369L6.68525 78.1476H11.6323C12.1752 78.1555 12.7163 78.083 13.238 77.9325C13.5581 77.8224 13.6131 77.7223 13.6131 77.7223L11.2622 72.9633C10.847 72.0976 9.21131 71.3169 6.75528 70.7815Z" fill="#3E3A39"/>
<path d="M195.104 80.9149H189.967L189.892 81.025C189.453 80.9571 189.01 80.922 188.566 80.9199C182.304 80.9449 177.252 87.5004 177.287 95.5621C177.322 103.624 182.424 110.134 188.686 110.109C189.13 110.105 189.573 110.069 190.012 109.999L190.087 110.104H195.224C201.487 110.104 206.534 103.524 206.504 95.462C206.474 87.4003 201.367 80.8849 195.104 80.9149Z" fill="#3E3A39"/>
<path d="M188.651 110.38C182.279 110.38 177.072 103.754 177.037 95.5822C176.956 91.8073 178.128 88.112 180.368 85.0735C182.544 82.2461 185.455 80.6848 188.566 80.6698C188.971 80.6705 189.376 80.6989 189.777 80.7549C189.8 80.7267 189.829 80.704 189.862 80.6884C189.895 80.6728 189.931 80.6648 189.967 80.6648H195.104C198.215 80.6648 201.132 82.166 203.333 84.9984C205.595 88.0136 206.798 91.6922 206.754 95.4621C206.784 103.649 201.612 110.329 195.249 110.355H190.112C190.076 110.355 190.04 110.348 190.008 110.333C189.975 110.318 189.945 110.297 189.922 110.269C189.521 110.327 189.117 110.357 188.711 110.36L188.651 110.38ZM188.576 81.1902C185.625 81.1902 182.854 82.6915 180.773 85.3987C178.604 88.341 177.467 91.9171 177.537 95.5722C177.572 103.464 182.539 109.869 188.651 109.869H188.686C189.117 109.867 189.547 109.83 189.972 109.759C190.019 109.751 190.067 109.757 190.11 109.775C190.154 109.794 190.191 109.825 190.217 109.864H195.219C201.332 109.864 206.279 103.384 206.224 95.4721C206.266 91.8155 205.102 88.247 202.912 85.3187C200.807 82.6314 198.005 81.1552 195.074 81.1752H190.072C190.045 81.2141 190.008 81.2446 189.965 81.2632C189.921 81.2818 189.874 81.2877 189.827 81.2803C189.413 81.2214 188.995 81.1913 188.576 81.1902Z" fill="#3E3A39"/>
<path d="M89.9002 81.3453L84.763 81.3703L84.688 81.4754C84.2492 81.4092 83.8061 81.3757 83.3624 81.3753C77.0998 81.4003 72.0477 87.9558 72.0827 96.0175C72.1177 104.079 77.2198 110.585 83.4825 110.585C83.9267 110.582 84.37 110.543 84.808 110.47L84.8831 110.58H90.0202C96.2828 110.58 101.33 103.999 101.3 95.9374C101.27 87.8757 96.1628 81.3203 89.9002 81.3453Z" fill="#3E3A39"/>
<path d="M83.4424 110.815C80.3511 110.815 77.4399 109.273 75.249 106.476C72.9884 103.462 71.7873 99.7852 71.8325 96.0174C71.7975 87.8306 76.9697 81.15 83.3373 81.125C83.7407 81.1232 84.1437 81.1516 84.5429 81.2101C84.5666 81.1815 84.5965 81.1586 84.6302 81.143C84.664 81.1274 84.7008 81.1196 84.7379 81.12L89.8701 81.095H89.9101C93.0064 81.095 95.9126 82.6363 98.1035 85.4336C100.366 88.4469 101.569 92.124 101.525 95.8923C101.555 104.079 96.3828 110.76 89.9951 110.79H84.858C84.8216 110.79 84.7857 110.782 84.7528 110.766C84.7199 110.751 84.6909 110.728 84.6679 110.7C84.2673 110.761 83.8627 110.793 83.4574 110.795L83.4424 110.815ZM83.3924 81.6254H83.3624C77.2498 81.6504 72.3027 88.1308 72.3578 96.0174C72.3114 99.6747 73.4757 103.245 75.6691 106.171C77.765 108.843 80.5312 110.314 83.4674 110.314H83.5074C83.9381 110.309 84.3677 110.273 84.793 110.204C84.8396 110.197 84.8873 110.203 84.9307 110.221C84.974 110.24 85.0113 110.27 85.0381 110.309H90.0402C96.1527 110.309 101.1 103.829 101.07 95.9173C101.112 92.2606 99.9485 88.6918 97.7584 85.7639C95.6625 83.0866 92.8913 81.6154 89.9551 81.6154H89.9201H84.918C84.8907 81.6539 84.8535 81.6845 84.8104 81.7038C84.7673 81.7232 84.7199 81.7307 84.6729 81.7255C84.2493 81.6592 83.8212 81.6258 83.3924 81.6254Z" fill="#3E3A39"/>
<path d="M243.98 81.1401H241.514L239.243 65.6622C239.109 64.7502 238.651 63.9171 237.952 63.3159C237.254 62.7147 236.362 62.3857 235.441 62.3895L221.63 62.4495L199.121 38.7298C197.914 37.4588 196.461 36.448 194.85 35.7596C193.239 35.0711 191.504 34.7195 189.752 34.7264L130.292 34.9716C129.009 34.9765 127.741 35.241 126.563 35.7492C125.385 36.2575 124.323 36.999 123.439 37.9291L21.4865 81.4654L21.5615 99.6756L174.666 99.0751L213.092 98.6447L241.579 96.643V96.5129H243.925C244.172 96.5103 244.409 96.41 244.583 96.2339C244.757 96.0577 244.855 95.8199 244.855 95.5721L244.795 81.9458C244.794 81.8393 244.773 81.734 244.731 81.6359C244.69 81.5378 244.63 81.4488 244.554 81.374C244.478 81.2992 244.389 81.24 244.29 81.1999C244.191 81.1598 244.086 81.1394 243.98 81.1401Z" fill="#579DC6"/>
<path d="M200.541 96.1676V98.7848L213.082 98.6446L241.569 96.643V96.5129H243.914C244.088 96.5101 244.257 96.459 244.403 96.3653C244.549 96.2716 244.665 96.139 244.74 95.9824L200.541 96.1676Z" fill="#3E3A39"/>
<path d="M200.551 99.035C200.519 99.0354 200.486 99.029 200.456 99.0161C200.426 99.0031 200.399 98.984 200.376 98.96C200.33 98.9135 200.303 98.8507 200.301 98.7848V96.1727C200.301 96.1058 200.327 96.0417 200.374 95.9939C200.421 95.9462 200.485 95.9188 200.551 95.9175L244.76 95.7373C244.803 95.738 244.845 95.7493 244.883 95.7703C244.92 95.7912 244.952 95.8212 244.975 95.8574C244.996 95.8939 245.007 95.9353 245.007 95.9775C245.007 96.0197 244.996 96.0611 244.975 96.0976C244.88 96.2963 244.731 96.4643 244.545 96.5828C244.36 96.7013 244.145 96.7655 243.925 96.7682H241.799C241.779 96.8052 241.75 96.8368 241.715 96.8603C241.68 96.8839 241.64 96.8986 241.599 96.9033L213.112 98.9049L200.556 99.0451L200.551 99.035ZM200.791 96.4179V98.5296L213.082 98.3945L241.343 96.4229C241.363 96.3798 241.395 96.3433 241.435 96.3176C241.475 96.2919 241.521 96.2781 241.569 96.2778H243.91C243.969 96.2857 244.03 96.2857 244.09 96.2778L200.791 96.4179Z" fill="#3E3A39"/>
<path d="M213.087 98.6447C213.335 98.6354 213.569 98.5279 213.738 98.3459C213.907 98.1638 213.996 97.9221 213.987 97.6739C213.978 97.4257 213.87 97.1914 213.688 97.0225C213.506 96.8535 213.265 96.7639 213.017 96.7732L198.611 96.8332L145.058 34.9216L130.257 34.9817C128.974 34.9865 127.706 35.251 126.528 35.7593C125.35 36.2676 124.288 37.0091 123.404 37.9391L21.4514 81.4754L21.5264 99.6856L174.666 99.0751L213.087 98.6447Z" fill="#3E3A39"/>
<path d="M21.5416 99.9558C21.4756 99.9545 21.4128 99.9277 21.3661 99.8811C21.3195 99.8344 21.2927 99.7715 21.2915 99.7056L21.2164 81.4954C21.2167 81.446 21.2315 81.3978 21.2591 81.3568C21.2867 81.3159 21.3258 81.284 21.3715 81.2652L123.274 37.7289C124.182 36.7867 125.27 36.0357 126.472 35.5201C127.675 35.0045 128.969 34.7346 130.277 34.7264L145.058 34.6714C145.093 34.6711 145.128 34.6786 145.16 34.6933C145.192 34.708 145.221 34.7296 145.243 34.7565L198.731 96.573L213.022 96.5129C213.325 96.5185 213.615 96.6401 213.831 96.8527C214.047 97.0654 214.174 97.3529 214.185 97.6561C214.196 97.9594 214.09 98.2552 213.889 98.4829C213.689 98.7105 213.409 98.8526 213.107 98.8799L174.676 99.3103L21.5466 99.9558H21.5416ZM21.7216 81.6606L21.7917 99.4554L174.666 98.8249L213.082 98.3945C213.263 98.3872 213.435 98.308 213.558 98.1742C213.682 98.0405 213.747 97.8632 213.739 97.6814C213.732 97.4996 213.653 97.3281 213.519 97.2047C213.386 97.0813 213.208 97.0161 213.027 97.0234L198.616 97.0834C198.58 97.0841 198.544 97.0768 198.511 97.0621C198.478 97.0474 198.449 97.0256 198.426 96.9983L144.958 35.1718L130.272 35.2319C129.023 35.2395 127.789 35.4986 126.643 35.9938C125.496 36.489 124.461 37.2102 123.599 38.1143C123.577 38.1386 123.55 38.1575 123.519 38.1693L21.7216 81.6606Z" fill="#3E3A39"/>
<path d="M45.3265 81.5303H40.1893L36.8429 86.4945C35.003 89.379 34.0321 92.7325 34.0463 96.1543C34.0605 99.5761 35.0591 102.921 36.9229 105.791L40.3094 110.725H45.4465C51.7091 110.7 56.7612 104.144 56.7262 96.0825C56.6912 88.0208 51.5891 81.5053 45.3265 81.5303Z" fill="#3E3A39"/>
<path d="M40.3094 110.995C40.2688 110.995 40.229 110.984 40.1932 110.965C40.1575 110.946 40.127 110.919 40.1043 110.885L36.7179 105.951C34.8251 103.04 33.811 99.6447 33.7968 96.172C33.7826 92.6993 34.769 89.296 36.6378 86.3695L39.9842 81.4104C40.0075 81.3774 40.0382 81.3502 40.0738 81.3311C40.1094 81.312 40.1489 81.3014 40.1893 81.3003H45.3265H45.3665C51.7392 81.3003 56.9413 87.9308 56.9764 96.0976C57.0576 99.8726 55.886 103.568 53.645 106.606C51.469 109.434 48.5578 111 45.4465 111.01H40.3144L40.3094 110.995ZM40.3094 81.8007L37.038 86.6548C35.224 89.497 34.2665 92.8016 34.2798 96.1737C34.2931 99.5458 35.2767 102.843 37.113 105.671L40.4294 110.5H45.4315C48.3828 110.5 51.1539 108.998 53.2348 106.291C55.416 103.338 56.556 99.7438 56.4761 96.0726C56.4461 88.176 51.474 81.7707 45.3665 81.7707H45.3265L40.3094 81.8007Z" fill="#3E3A39"/>
<path d="M38.9144 110.746C45.1771 110.72 50.2267 104.164 50.1929 96.1019C50.1592 88.0401 45.0549 81.5261 38.7922 81.5523C32.5294 81.5786 27.4799 88.1352 27.5136 96.1969C27.5474 104.259 32.6517 110.773 38.9144 110.746Z" fill="#636363"/>
<path d="M38.8738 111C35.7775 111 32.8713 109.459 30.6804 106.661C28.4175 103.649 27.2161 99.9707 27.264 96.2026C27.2289 88.0158 32.4011 81.3352 38.7688 81.3052H38.8088C45.1815 81.3052 50.3836 87.9357 50.4186 96.1075C50.501 99.8827 49.3294 103.579 47.0873 106.616C44.9113 109.449 42.0001 111.01 38.8938 111.025L38.8738 111ZM38.8288 81.8056H38.7938C32.6762 81.8356 27.7291 88.311 27.7642 96.1976C27.7175 99.8541 28.8799 103.424 31.0705 106.351C33.1664 109.028 35.9376 110.5 38.8738 110.5H38.9088C41.8601 110.5 44.6312 108.998 46.7121 106.286C48.8802 103.342 50.0145 99.7635 49.9384 96.1075C49.9084 88.2109 44.9263 81.8056 38.8288 81.8056Z" fill="#3E3A39"/>
<path d="M38.902 107.794C43.8967 107.773 47.9238 102.543 47.8969 96.1115C47.87 89.6804 43.7992 84.4839 38.8044 84.5048C33.8097 84.5258 29.7826 89.7562 29.8095 96.1873C29.8364 102.618 33.9073 107.815 38.902 107.794Z" fill="white"/>
<path d="M38.8687 108.048C36.3677 108.048 34.0517 106.811 32.291 104.545C30.4824 102.13 29.5206 99.1851 29.5548 96.1676C29.5298 89.6071 33.6766 84.2577 38.8037 84.2327C41.3048 84.2327 43.6457 85.4587 45.4115 87.7356C47.2208 90.1503 48.1826 93.095 48.1476 96.1126C48.1476 102.668 44.0259 108.022 38.8987 108.043L38.8687 108.048ZM38.8337 84.7581H38.8037C33.9517 84.7581 30.03 89.9074 30.055 96.1876C30.0182 99.0949 30.9433 101.933 32.6861 104.259C34.3468 106.381 36.5428 107.547 38.8687 107.547H38.8987C43.7458 107.547 47.6724 102.398 47.6474 96.1176C47.6791 93.2173 46.7543 90.3874 45.0163 88.0659C43.3556 85.9291 41.1597 84.7581 38.8337 84.7581Z" fill="#3E3A39"/>
<path d="M40.7595 96.1476C40.7595 97.5037 39.9141 98.6096 38.8587 98.6146C37.8033 98.6196 36.9429 97.5187 36.9379 96.1626C36.9329 94.8065 37.7832 93.6956 38.8387 93.6956C39.8941 93.6956 40.7545 94.7865 40.7595 96.1476Z" fill="white"/>
<path d="M38.8537 98.8648C37.6682 98.8648 36.6978 97.6538 36.6878 96.1626C36.6778 94.6713 37.6482 93.4503 38.8387 93.4453C39.1417 93.4541 39.4387 93.5317 39.7073 93.6721C39.9759 93.8125 40.2092 94.0122 40.3894 94.256C40.8034 94.7969 41.0236 95.4613 41.0146 96.1425C41.0146 97.6438 40.0592 98.8598 38.8687 98.8648H38.8537ZM38.8537 93.9457C37.9333 93.9457 37.193 94.9466 37.198 96.1626C37.203 97.3786 37.9533 98.3644 38.8637 98.3644C39.7791 98.3644 40.5194 97.3636 40.5144 96.1475C40.5235 95.5817 40.3479 95.0283 40.0142 94.5712C39.8806 94.3848 39.7061 94.2315 39.5041 94.1231C39.302 94.0147 39.0778 93.954 38.8487 93.9457H38.8537Z" fill="#3E3A39"/>
<path d="M159.769 81.0601H154.632L151.286 86.0642C149.447 88.9499 148.476 92.3037 148.49 95.7258C148.503 99.1479 149.5 102.494 151.361 105.365L154.752 110.294H159.889C166.152 110.269 171.199 103.714 171.164 95.6522C171.129 87.5905 166.027 81.0601 159.769 81.0601Z" fill="#3E3A39"/>
<path d="M154.752 110.52C154.712 110.52 154.672 110.511 154.637 110.493C154.601 110.474 154.57 110.447 154.547 110.414L151.156 105.48C149.266 102.568 148.254 99.1735 148.239 95.7015C148.225 92.2295 149.21 88.8266 151.076 85.8991L154.422 80.9399C154.446 80.9059 154.477 80.8781 154.514 80.859C154.55 80.8398 154.591 80.8298 154.632 80.8298H159.764H159.804C162.896 80.8298 165.807 82.3661 167.998 85.1685C170.261 88.1808 171.463 91.8589 171.414 95.6272C171.449 103.814 166.277 110.495 159.909 110.52H154.772H154.752ZM154.752 81.3303L151.481 86.1793C149.671 89.023 148.716 92.3271 148.729 95.6982C148.743 99.0694 149.724 102.366 151.556 105.195L154.872 110.019H159.874C165.992 109.994 170.939 103.514 170.904 95.6272C170.95 91.9707 169.788 88.4015 167.598 85.4737C165.502 82.8015 162.731 81.3303 159.794 81.3303H159.759H154.752Z" fill="#3E3A39"/>
<path d="M164.631 95.6322C164.661 103.694 159.629 110.249 153.352 110.274C147.074 110.299 141.987 103.769 141.952 95.7272C141.917 87.6855 146.954 81.1101 153.232 81.085C159.509 81.06 164.596 87.5654 164.631 95.6322Z" fill="#636363"/>
<path d="M153.312 110.525C150.22 110.525 147.309 108.988 145.118 106.191C142.858 103.175 141.657 99.4967 141.702 95.7274C141.667 87.5455 146.839 80.86 153.207 80.835H153.247C159.619 80.835 164.826 87.4655 164.861 95.6323C164.94 99.4069 163.769 103.102 161.53 106.141C159.349 108.968 156.438 110.535 153.332 110.545L153.312 110.525ZM153.267 81.3354H153.232C147.119 81.3354 142.167 87.8158 142.227 95.7274C142.18 99.3848 143.344 102.955 145.538 105.881C147.634 108.553 150.4 110.024 153.337 110.024H153.377C156.323 110.024 159.094 108.523 161.18 105.816C163.347 102.871 164.482 99.2931 164.406 95.6373C164.346 87.7407 159.364 81.3354 153.267 81.3354Z" fill="#3E3A39"/>
<path d="M162.335 95.6421C162.335 102.072 158.334 107.302 153.332 107.327C148.33 107.352 144.268 102.148 144.238 95.7171C144.208 89.2868 148.24 84.0574 153.242 84.0374C158.244 84.0174 162.31 89.2117 162.335 95.6421Z" fill="white"/>
<path d="M153.307 107.582C150.806 107.582 148.49 106.346 146.729 104.079C144.92 101.665 143.958 98.7198 143.993 95.7022C143.968 89.1468 148.114 83.7923 153.242 83.7723C158.369 83.7523 162.565 89.0667 162.565 95.6422C162.565 102.203 158.444 107.552 153.317 107.577L153.307 107.582ZM153.272 84.2927H153.242C148.395 84.2927 144.468 89.442 144.493 95.7222C144.459 98.629 145.384 101.466 147.124 103.794C148.785 105.911 150.981 107.082 153.307 107.082H153.337C158.189 107.082 162.11 101.932 162.085 95.6522C162.065 89.3769 158.109 84.2877 153.272 84.2877V84.2927Z" fill="#3E3A39"/>
<path d="M155.202 95.6723C155.202 97.0334 154.357 98.1393 153.302 98.1393C152.246 98.1393 151.386 97.0484 151.381 95.6873C151.376 94.3261 152.226 93.2252 153.282 93.2202C154.337 93.2152 155.197 94.3161 155.202 95.6723Z" fill="white"/>
<path d="M153.297 98.3895C152.106 98.3895 151.136 97.1835 151.131 95.6922C151.126 94.201 152.086 92.975 153.277 92.97C153.58 92.9802 153.877 93.0583 154.146 93.1986C154.416 93.3389 154.65 93.5378 154.832 93.7806C155.239 94.3268 155.457 94.9909 155.453 95.6722C155.453 97.1735 154.492 98.3845 153.302 98.3895H153.297ZM153.297 93.4704C152.381 93.4704 151.641 94.4712 151.646 95.6872C151.651 96.9032 152.396 97.8891 153.312 97.8891C154.227 97.8891 154.967 96.8882 154.962 95.6722C154.973 95.1045 154.797 94.549 154.462 94.0909C154.329 93.9021 154.153 93.7475 153.949 93.6397C153.744 93.5318 153.518 93.4738 153.287 93.4704H153.297Z" fill="#3E3A39"/>
<path d="M199.081 38.7398C198.896 38.5446 198.696 38.3645 198.496 38.1843L152.176 38.3745L152.271 61.2736L220.215 60.9933L199.081 38.7398Z" fill="#3E3A39"/>
<path d="M152.291 61.5438C152.225 61.5438 152.161 61.5174 152.114 61.4705C152.067 61.4236 152.041 61.3599 152.041 61.2936L151.946 38.3945C151.946 38.3292 151.971 38.2663 152.016 38.2193C152.039 38.1951 152.067 38.176 152.098 38.1631C152.129 38.1502 152.163 38.1438 152.196 38.1443L198.516 37.9541C198.578 37.9541 198.639 37.9773 198.686 38.0192L198.826 38.1493C198.981 38.2894 199.136 38.4345 199.281 38.5846L220.415 60.8382C220.449 60.8734 220.473 60.9182 220.482 60.9667C220.491 61.0152 220.486 61.0654 220.466 61.1109C220.447 61.1564 220.415 61.1952 220.374 61.2223C220.332 61.2495 220.284 61.2638 220.235 61.2635L152.291 61.5438ZM152.446 38.6447L152.561 61.0433L219.674 60.7681L198.921 38.9099C198.781 38.7648 198.636 38.6297 198.491 38.4996L198.421 38.4345L152.446 38.6447Z" fill="#3E3A39"/>
<path d="M204.583 81.3054H201.882L199.141 62.5447L182.009 62.6148L159.499 38.895C158.292 37.6245 156.839 36.6141 155.228 35.9257C153.617 35.2372 151.882 34.8854 150.13 34.8917L95.5374 35.1269C94.2548 35.1317 92.9864 35.3962 91.8087 35.9045C90.631 36.4128 89.5682 37.1543 88.6846 38.0843L53.91 61.5439L48.5628 65.282L33.5565 70.2862L20.5511 73.619L16.6644 82.3863C15.4589 84.0627 8.14087 85.9342 8.14588 88.016L8.30094 94.1311C8.33631 95.5642 8.9327 96.9262 9.96176 97.9239C10.9908 98.9215 12.3703 99.4751 13.8032 99.4655L25.0329 99.6907V95.8425C25.0329 91.2336 25 90.1137 27 86C29 81.8863 31.5 80.5 36.5 78.7582H40.2443C47.7474 78.7282 52.4594 84.8083 53.6649 93.0852L54.6153 99.5906L139.621 99.2403V95.3921C139.581 85.9793 143.412 78.3329 153.787 78.2929C163.031 78.2528 166.362 84.3379 167.838 92.6148L168.948 98.845L202.002 96.8433V96.7132H204.698L204.583 81.3054Z" fill="#95C3ED"/>
<path d="M88.9847 41.5272L59.1322 61.5439L115.081 61.3137L114.986 38.7949L95.1773 38.875C94.0203 38.881 92.8764 39.1188 91.8128 39.5743C90.7492 40.0298 89.7876 40.6939 88.9847 41.5272Z" fill="#3E3A39"/>
<path d="M59.1322 61.774C59.0778 61.775 59.0246 61.7582 58.9807 61.7262C58.9367 61.6942 58.9044 61.6487 58.8885 61.5967C58.8727 61.5447 58.8742 61.4889 58.8929 61.4378C58.9116 61.3867 58.9465 61.3431 58.9921 61.3136L88.8246 41.322C89.6542 40.4766 90.6423 39.8031 91.7324 39.3403C92.8225 38.8775 93.9931 38.6343 95.1773 38.6247L114.986 38.5447C115.052 38.5447 115.116 38.571 115.162 38.618C115.209 38.6649 115.236 38.7285 115.236 38.7949L115.331 61.2886C115.331 61.3222 115.325 61.3555 115.312 61.3865C115.299 61.4175 115.28 61.4455 115.256 61.4688C115.209 61.5155 115.146 61.5424 115.081 61.5438L59.1322 61.774ZM114.74 39.0251L95.1773 39.1051C94.0574 39.1157 92.9506 39.3475 91.9206 39.7872C90.8905 40.2269 89.9573 40.8658 89.1748 41.6673L89.1348 41.7023L59.9676 61.2486L114.84 61.0234L114.74 39.0251Z" fill="#3E3A39"/>
<path d="M82.567 61.4238L100.219 38.855H95.1773C94.019 38.8636 92.8741 39.1045 91.8104 39.5635C90.7468 40.0225 89.7859 40.6902 88.9847 41.5272L78.5304 48.533L68.3861 61.5039L82.567 61.4238Z" fill="white"/>
<path d="M68.3961 61.734C68.3492 61.7341 68.3033 61.721 68.2635 61.6962C68.2237 61.6715 68.1916 61.636 68.171 61.5939C68.1511 61.5512 68.1433 61.5039 68.1486 61.457C68.1539 61.4102 68.172 61.3658 68.201 61.3287L78.3403 48.3629C78.3578 48.342 78.378 48.3235 78.4003 48.3078L88.8246 41.302C89.6542 40.4566 90.6423 39.7831 91.7324 39.3203C92.8225 38.8575 93.9931 38.6143 95.1773 38.6047H100.214C100.261 38.605 100.307 38.6183 100.347 38.6434C100.386 38.6684 100.418 38.7041 100.439 38.7464C100.459 38.7887 100.467 38.8358 100.462 38.8824C100.457 38.929 100.439 38.9733 100.409 39.0101L82.7571 61.5789C82.7341 61.6086 82.7045 61.6327 82.6707 61.6492C82.6368 61.6657 82.5997 61.6742 82.562 61.674L68.3911 61.734H68.3961ZM78.7104 48.7031L68.9113 61.2136L82.442 61.1535L99.7042 39.0901H95.1773C94.0574 39.1007 92.9507 39.3325 91.9206 39.7722C90.8905 40.2119 89.9574 40.8508 89.1748 41.6523L89.1348 41.6873L78.7104 48.7031Z" fill="#3E3A39"/>
<path d="M115.081 61.2936L115.016 45.1401L102.34 61.3436L115.081 61.2936Z" fill="white"/>
<path d="M102.34 61.5939C102.293 61.594 102.247 61.5809 102.208 61.5562C102.168 61.5314 102.136 61.4959 102.115 61.4538C102.09 61.4143 102.076 61.3682 102.076 61.3212C102.076 61.2742 102.09 61.2281 102.115 61.1886L114.791 44.9851C114.822 44.9431 114.866 44.912 114.916 44.8964C114.966 44.8807 115.02 44.8812 115.07 44.8978C115.12 44.9145 115.163 44.9463 115.194 44.9889C115.224 45.0315 115.241 45.0827 115.241 45.1352L115.306 61.2887C115.306 61.3222 115.3 61.3555 115.287 61.3865C115.274 61.4175 115.255 61.4455 115.231 61.4688C115.184 61.5155 115.122 61.5424 115.056 61.5439L102.315 61.5939H102.34ZM114.766 45.8608L102.856 61.0935L114.831 61.0435L114.766 45.8608Z" fill="#3E3A39"/>
<path d="M157.628 42.2827L170.409 55.2535C170.836 55.684 171.14 56.2215 171.289 56.8098C171.417 57.3132 171.428 57.8391 171.322 58.3476C171.217 58.8561 170.997 59.3339 170.679 59.7447C170.361 60.1555 169.954 60.4887 169.489 60.7188C169.024 60.949 168.512 61.0703 167.993 61.0733L118.827 61.2735L118.737 38.7797L148.915 38.6546C150.536 38.6482 152.141 38.9658 153.638 39.5888C155.134 40.2118 156.491 41.1277 157.628 42.2827Z" fill="#3E3A39"/>
<path d="M118.827 61.5438C118.762 61.5442 118.699 61.5191 118.652 61.4738C118.628 61.4514 118.609 61.4243 118.596 61.3941C118.583 61.364 118.577 61.3314 118.577 61.2986L118.487 38.7799C118.486 38.7472 118.492 38.7148 118.504 38.6845C118.516 38.6542 118.534 38.6265 118.557 38.6032C118.58 38.5799 118.607 38.5614 118.637 38.5488C118.667 38.5361 118.7 38.5296 118.732 38.5296L148.91 38.4045H148.96C150.606 38.4088 152.235 38.7381 153.753 39.3736C155.272 40.0091 156.65 40.9382 157.809 42.1076L170.569 55.0784C171.076 55.5925 171.421 56.2449 171.559 56.954C171.697 57.663 171.623 58.3971 171.345 59.0641C171.068 59.7311 170.6 60.3013 170 60.7033C169.4 61.1053 168.695 61.3211 167.973 61.3236L118.807 61.5238L118.827 61.5438ZM118.987 39.0251L119.077 61.0184L167.988 60.8182C168.47 60.818 168.946 60.708 169.379 60.4965C169.812 60.285 170.192 59.9776 170.489 59.5976C170.786 59.2176 170.992 58.775 171.093 58.3032C171.193 57.8315 171.185 57.3431 171.069 56.8749C170.93 56.3292 170.649 55.8301 170.254 55.4287L157.453 42.4579C156.34 41.3346 155.015 40.4424 153.556 39.8326C152.097 39.2229 150.531 38.9077 148.95 38.905H148.905L118.987 39.0251Z" fill="#3E3A39"/>
<path d="M145.693 38.6697L140.751 38.6897L123.099 61.2585L128.041 61.2385L145.693 38.6697Z" fill="white"/>
<path d="M123.099 61.5087C123.052 61.5085 123.006 61.4951 122.967 61.47C122.927 61.445 122.895 61.4093 122.875 61.367C122.855 61.3248 122.846 61.2776 122.852 61.231C122.857 61.1844 122.875 61.1402 122.904 61.1034L140.556 38.5246C140.579 38.4945 140.609 38.4702 140.643 38.4537C140.676 38.4372 140.714 38.4289 140.751 38.4295H145.694C145.74 38.4294 145.786 38.4425 145.826 38.4672C145.866 38.492 145.898 38.5275 145.919 38.5696C145.939 38.6123 145.946 38.6596 145.941 38.7064C145.936 38.7532 145.918 38.7977 145.889 38.8348L128.241 61.4036C128.217 61.4335 128.187 61.4576 128.152 61.474C128.117 61.4905 128.079 61.4989 128.041 61.4987H123.099V61.5087ZM140.872 38.9399L123.614 61.0033H127.921L145.178 38.9349L140.872 38.9399Z" fill="#3E3A39"/>
<path d="M118.742 40.3712L118.817 58.3362L134.159 38.7148L119.988 38.7749L118.742 40.3712Z" fill="white"/>
<path d="M118.817 58.5862C118.789 58.591 118.76 58.591 118.732 58.5862C118.684 58.5688 118.642 58.5368 118.613 58.4947C118.583 58.4526 118.567 58.4025 118.567 58.3511L118.492 40.3861C118.493 40.3306 118.511 40.2767 118.542 40.231L119.793 38.6346C119.816 38.6054 119.846 38.5817 119.88 38.5653C119.913 38.5489 119.95 38.5401 119.988 38.5395L134.159 38.4795C134.205 38.4794 134.251 38.4925 134.291 38.5173C134.331 38.542 134.363 38.5775 134.384 38.6196C134.404 38.6618 134.413 38.7089 134.409 38.7557C134.404 38.8025 134.387 38.8472 134.359 38.8848L119.012 58.4912C118.989 58.5204 118.959 58.5441 118.925 58.5605C118.892 58.5769 118.855 58.5857 118.817 58.5862ZM118.992 40.4561L119.047 57.6154L133.628 38.9699L120.113 39.0249L118.992 40.4561Z" fill="#3E3A39"/>
<path d="M199.141 62.5447L235.441 62.3946C236.362 62.3908 237.254 62.7198 237.952 63.321C238.651 63.9222 239.109 64.7553 239.243 65.6673L241.513 81.1452L201.897 81.3103L199.141 62.5447Z" fill="#579DC6"/>
<path d="M233.637 70.8629L216.42 70.9351L216.45 78.0059L233.667 77.9337L233.637 70.8629Z" fill="white"/>
<path d="M216.448 78.2678C216.382 78.2678 216.318 78.2415 216.271 78.1946C216.224 78.1476 216.198 78.084 216.198 78.0176L216.168 70.9467C216.169 70.8808 216.196 70.8179 216.243 70.7712C216.289 70.7246 216.352 70.6978 216.418 70.6965L233.635 70.6265C233.701 70.6265 233.764 70.6521 233.81 70.698C233.857 70.7438 233.884 70.8062 233.885 70.8717L233.915 77.9476C233.916 77.9804 233.909 78.0129 233.896 78.0431C233.883 78.0733 233.864 78.1004 233.84 78.1227C233.794 78.1694 233.731 78.1963 233.665 78.1978L216.448 78.2678ZM216.668 71.1969L216.698 77.7674L233.415 77.6974L233.385 71.1269L216.668 71.1969Z" fill="#3E3A39"/>
<path d="M169.654 84.8431C169.521 84.8431 169.394 84.7904 169.3 84.6965C169.206 84.6027 169.153 84.4754 169.153 84.3427C169.153 84.2099 169.206 84.0827 169.3 83.9888C169.394 83.895 169.521 83.8422 169.654 83.8422L243.419 83.562C243.552 83.562 243.679 83.6147 243.773 83.7086C243.867 83.8024 243.92 83.9297 243.92 84.0624C243.92 84.1951 243.867 84.3224 243.773 84.4163C243.679 84.5101 243.552 84.5628 243.419 84.5628L169.654 84.8681V84.8431Z" fill="white"/>
<path d="M54.9405 85.3137C54.8079 85.3137 54.6806 85.2609 54.5868 85.1671C54.493 85.0732 54.4403 84.946 54.4403 84.8132C54.4403 84.6805 54.493 84.5532 54.5868 84.4594C54.6806 84.3655 54.8079 84.3128 54.9405 84.3128L136.685 83.9775C136.817 83.9775 136.945 84.0303 137.038 84.1241C137.132 84.218 137.185 84.3452 137.185 84.478C137.185 84.6107 137.132 84.738 137.038 84.8318C136.945 84.9257 136.817 84.9784 136.685 84.9784L54.9355 85.3137H54.9405Z" fill="white"/>
<path d="M18.4452 85.4686C18.3125 85.4686 18.1853 85.4159 18.0915 85.322C17.9976 85.2282 17.9449 85.1009 17.9449 84.9682C17.9449 84.8355 17.9976 84.7082 18.0915 84.6143C18.1853 84.5205 18.3125 84.4678 18.4452 84.4678L27.8041 84.4277C27.9367 84.4277 28.064 84.4805 28.1578 84.5743C28.2516 84.6681 28.3043 84.7954 28.3043 84.9282C28.3043 85.0609 28.2516 85.1882 28.1578 85.282C28.064 85.3758 27.9367 85.4286 27.8041 85.4286L18.4452 85.4686Z" fill="white"/>
<path d="M213.447 71.0518L197.185 71.1218C196.433 71.1237 195.695 71.3354 195.057 71.7332C194.418 72.131 193.902 72.6991 193.569 73.3737L190.867 78.8282C190.744 79.0788 190.686 79.3567 190.7 79.6357C190.714 79.9146 190.799 80.1854 190.947 80.4224C191.095 80.6594 191.3 80.8548 191.545 80.99C191.789 81.1253 192.064 81.1959 192.343 81.1952L213.487 81.1051L213.447 71.0518Z" fill="#FFDB74"/>
<path d="M192.338 81.4653C192.017 81.4643 191.702 81.3817 191.422 81.2252C191.142 81.0687 190.906 80.8435 190.737 80.5707C190.568 80.2979 190.471 79.9865 190.455 79.6659C190.439 79.3453 190.506 79.026 190.647 78.738L193.343 73.2835C193.696 72.5658 194.242 71.9611 194.92 71.5375C195.598 71.114 196.381 70.8885 197.18 70.8865L213.447 70.8214C213.48 70.8163 213.514 70.8206 213.545 70.8339C213.576 70.8472 213.603 70.8689 213.622 70.8965C213.646 70.9188 213.665 70.946 213.678 70.9761C213.691 71.0063 213.697 71.0388 213.697 71.0716L213.737 81.125C213.738 81.1576 213.732 81.1901 213.72 81.2204C213.708 81.2507 213.69 81.2783 213.667 81.3016C213.644 81.3249 213.617 81.3434 213.587 81.3561C213.557 81.3687 213.524 81.3752 213.492 81.3752L192.343 81.4653H192.338ZM213.197 71.3218L197.19 71.3869C196.483 71.3886 195.791 71.5882 195.191 71.9632C194.592 72.3382 194.11 72.8736 193.799 73.5087L191.077 78.9582C190.976 79.1701 190.929 79.4044 190.941 79.6392C190.954 79.8741 191.026 80.1019 191.15 80.3016C191.274 80.5013 191.447 80.6663 191.652 80.7814C191.857 80.8965 192.088 80.9579 192.323 80.9599L213.217 80.8698L213.197 71.3218Z" fill="#3E3A39"/>
<path d="M213.447 71.0718L200.341 71.1268L201.817 81.1752L213.492 81.1252L213.447 71.0718Z" fill="#3E3A39"/>
<path d="M201.817 81.4252C201.757 81.4248 201.698 81.4029 201.652 81.3635C201.607 81.3241 201.576 81.2698 201.567 81.2101L200.066 71.1617C200.061 71.126 200.063 71.0895 200.074 71.0549C200.084 71.0203 200.102 70.9884 200.126 70.9615C200.15 70.9343 200.179 70.9125 200.212 70.8978C200.245 70.8831 200.28 70.8758 200.316 70.8765L213.422 70.8214C213.455 70.8163 213.489 70.8206 213.52 70.8339C213.551 70.8472 213.578 70.8689 213.597 70.8965C213.621 70.9188 213.64 70.946 213.653 70.9761C213.666 71.0063 213.672 71.0388 213.672 71.0716L213.712 81.125C213.713 81.1576 213.707 81.19 213.695 81.2204C213.683 81.2507 213.665 81.2783 213.642 81.3016C213.619 81.3249 213.592 81.3434 213.562 81.3561C213.532 81.3687 213.499 81.3752 213.467 81.3752L201.792 81.4252H201.817ZM200.631 71.3769L202.032 80.9248L213.237 80.8748L213.197 71.3218L200.631 71.3769Z" fill="#3E3A39"/>
<path d="M239.958 70.9617L235.991 70.9817L235.976 81.0351L241.433 81.01L239.958 70.9617Z" fill="#3E3A39"/>
<path d="M235.981 81.2852C235.914 81.284 235.849 81.2572 235.801 81.2102C235.756 81.1632 235.731 81.1003 235.731 81.035V70.9766C235.731 70.9444 235.737 70.9126 235.75 70.8828C235.762 70.8531 235.78 70.826 235.803 70.8033C235.826 70.7805 235.853 70.7624 235.882 70.7501C235.912 70.7378 235.944 70.7314 235.976 70.7314H239.948C240.008 70.7329 240.066 70.7551 240.111 70.7943C240.157 70.8335 240.188 70.8874 240.198 70.9466L241.669 80.995C241.675 81.0304 241.673 81.0666 241.663 81.1012C241.654 81.1358 241.637 81.1679 241.614 81.1952C241.59 81.2222 241.561 81.2438 241.528 81.2584C241.495 81.2731 241.459 81.2806 241.423 81.2802H235.971L235.981 81.2852ZM236.241 71.2269V80.7798H241.153L239.753 71.2319L236.241 71.2269Z" fill="#3E3A39"/>
<path d="M62.9335 56.8159L54.495 56.8513C53.9425 56.8536 53.4965 57.3036 53.4988 57.8563L53.5274 64.6919C53.5298 65.2447 53.9795 65.6909 54.532 65.6886L62.9705 65.6532C63.523 65.6509 63.969 65.2009 63.9667 64.6482L63.9381 57.8125C63.9358 57.2598 63.486 56.8136 62.9335 56.8159Z" fill="#3E3A39"/>
<path d="M54.5203 65.9424C54.3567 65.9429 54.1946 65.9108 54.0435 65.8481C53.8923 65.7854 53.7552 65.6933 53.6399 65.5771C53.522 65.4629 53.4284 65.326 53.3648 65.1746C53.3011 65.0233 53.2688 64.8606 53.2698 64.6964L53.2397 57.8607C53.2397 57.5293 53.3706 57.2113 53.6039 56.976C53.8372 56.7408 54.154 56.6073 54.4853 56.6046L62.9238 56.5696C63.0878 56.5689 63.2503 56.6007 63.402 56.663C63.5537 56.7253 63.6916 56.817 63.8077 56.9328C63.9239 57.0485 64.0161 57.1861 64.079 57.3376C64.1419 57.4891 64.1743 57.6516 64.1743 57.8156L64.2043 64.6513C64.2043 64.9827 64.0734 65.3007 63.8401 65.536C63.6068 65.7712 63.2901 65.9047 62.9588 65.9074L54.5203 65.9424ZM62.9288 57.07L54.4853 57.105C54.3867 57.1057 54.2893 57.1258 54.1985 57.1641C54.1077 57.2024 54.0254 57.2583 53.9562 57.3284C53.887 57.3986 53.8322 57.4817 53.7952 57.573C53.7581 57.6644 53.7393 57.7621 53.74 57.8607L53.77 64.6964C53.7769 64.8851 53.8556 65.0642 53.9901 65.1968C54.0579 65.2689 54.1402 65.3258 54.2316 65.3637C54.323 65.4017 54.4214 65.4198 54.5203 65.417L62.9588 65.3819C63.1583 65.3806 63.3491 65.3004 63.4897 65.1589C63.6302 65.0173 63.7091 64.8258 63.7091 64.6263L63.6791 57.7906C63.6714 57.5976 63.5896 57.4151 63.4508 57.2809C63.312 57.1467 63.1268 57.0711 62.9338 57.07H62.9288Z" fill="#3E3A39"/>
<path d="M113.761 65.4404L103.721 65.4824L103.738 69.5007L113.777 69.4587L113.761 65.4404Z" fill="#3E3A39"/>
<path d="M103.736 69.7556C103.67 69.7556 103.606 69.7292 103.559 69.6823C103.512 69.6354 103.486 69.5718 103.486 69.5054V65.5021C103.485 65.4352 103.51 65.3707 103.556 65.3219C103.604 65.2749 103.669 65.2481 103.736 65.2468L113.775 65.2068C113.808 65.2064 113.84 65.2129 113.871 65.2258C113.901 65.2387 113.928 65.2578 113.95 65.2819C113.997 65.3284 114.024 65.3911 114.025 65.457V69.4604C114.026 69.5256 114.001 69.5885 113.955 69.6355C113.908 69.6834 113.843 69.7104 113.775 69.7106L103.736 69.7506V69.7556ZM103.971 65.7523V69.2552L113.51 69.2151V65.7122L103.971 65.7523Z" fill="#3E3A39"/>
<path d="M116.286 94.6113C116.22 94.6113 116.156 94.5849 116.109 94.538C116.062 94.4911 116.036 94.4275 116.036 94.3611L115.911 63.8357C115.911 63.7693 115.937 63.7057 115.984 63.6587C116.031 63.6118 116.095 63.5854 116.161 63.5854C116.227 63.5854 116.291 63.6118 116.338 63.6587C116.385 63.7057 116.411 63.7693 116.411 63.8357L116.536 94.3611C116.536 94.4275 116.51 94.4911 116.463 94.538C116.416 94.5849 116.352 94.6113 116.286 94.6113Z" fill="white"/>
<path d="M56.7263 96.3277C56.6633 96.3279 56.6025 96.3043 56.5561 96.2616C56.5098 96.2189 56.4812 96.1603 56.4762 96.0975C55.976 88.8464 53.75 84.3077 51.9743 81.7755C50.0585 79.0383 48.2427 77.9974 48.2227 77.9874C48.1661 77.9539 48.1245 77.8998 48.1068 77.8364C48.0891 77.773 48.0966 77.7051 48.1277 77.6471C48.1603 77.5895 48.2144 77.5471 48.2781 77.5293C48.3419 77.5114 48.4101 77.5196 48.4678 77.552C48.5479 77.5921 50.3836 78.6429 52.3594 81.4603C54.1552 84.0174 56.3961 88.5762 56.9464 95.8273L134.754 95.507C134.82 95.507 134.884 95.5334 134.931 95.5803C134.978 95.6272 135.004 95.6908 135.004 95.7572C135.004 95.8236 134.978 95.8872 134.931 95.9341C134.884 95.9811 134.82 96.0074 134.754 96.0074L56.7213 96.3277H56.7263Z" fill="#3E3A39"/>
<path d="M171.654 83.5621C171.604 83.5629 171.555 83.5479 171.513 83.5191C171.472 83.4904 171.441 83.4494 171.424 83.402C171.384 83.3019 167.458 73.5888 154.997 73.5888H154.902C147.999 73.5888 142.897 76.4312 139.741 81.9608C139.708 82.0184 139.654 82.0608 139.591 82.0786C139.527 82.0965 139.459 82.0883 139.401 82.0559C139.344 82.0214 139.302 81.9664 139.284 81.9022C139.267 81.8379 139.274 81.7694 139.306 81.7106C142.562 76.0208 147.809 73.1184 154.897 73.0884H154.997C161.675 73.0884 165.902 75.8207 168.278 78.1226C169.809 79.5651 171.037 81.2987 171.889 83.2218C171.901 83.2523 171.907 83.285 171.906 83.3177C171.905 83.3505 171.898 83.3828 171.884 83.4126C171.871 83.4425 171.852 83.4693 171.828 83.4916C171.803 83.5138 171.775 83.531 171.744 83.5421C171.716 83.5559 171.685 83.5627 171.654 83.5621Z" fill="white"/>
<path d="M18.1051 95.0168L6.89537 95.0718C6.83452 95.0725 6.77414 95.0611 6.71773 95.0382C6.66131 95.0154 6.60999 94.9816 6.56673 94.9388C6.52346 94.896 6.48912 94.845 6.46568 94.7888C6.44224 94.7326 6.43017 94.6723 6.43018 94.6115V89.1869C6.43018 89.0648 6.47866 88.9477 6.56496 88.8614C6.65127 88.7751 6.76832 88.7266 6.89037 88.7266L18.1001 88.6765C18.5078 88.6765 18.8989 88.8382 19.1877 89.1262C19.4765 89.4141 19.6394 89.8049 19.6407 90.2128V93.4805C19.6407 93.888 19.4789 94.2787 19.1909 94.5668C18.9029 94.8549 18.5123 95.0168 18.1051 95.0168Z" fill="#3E3A39"/>
<path d="M6.89537 95.312C6.70738 95.312 6.52694 95.238 6.39308 95.106C6.25922 94.9739 6.1827 94.7945 6.18007 94.6064V89.1769C6.17941 89.0838 6.19717 88.9915 6.23232 88.9053C6.26747 88.8192 6.31931 88.7408 6.38487 88.6747C6.45043 88.6087 6.5284 88.5563 6.6143 88.5205C6.7002 88.4847 6.79232 88.4663 6.88537 88.4663L18.0951 88.4163C18.5664 88.4175 19.02 88.5961 19.3656 88.9167C19.5318 89.082 19.6637 89.2784 19.7538 89.4948C19.844 89.7112 19.8905 89.9433 19.8908 90.1777V93.4505C19.8908 93.9243 19.7037 94.379 19.3702 94.7155C19.0366 95.052 18.5837 95.243 18.1101 95.247L6.90037 95.292L6.89537 95.312ZM18.0851 88.9167L6.87536 88.9667C6.81964 88.9667 6.76621 88.9889 6.72681 89.0283C6.68741 89.0677 6.66527 89.1212 6.66527 89.1769V94.6014C6.6678 94.6572 6.69142 94.71 6.73135 94.749C6.77129 94.788 6.82455 94.8104 6.88036 94.8116L18.0901 94.7666C18.2587 94.7667 18.4256 94.7332 18.5811 94.6678C18.7366 94.6025 18.8775 94.5068 18.9954 94.3863C19.1155 94.2661 19.2106 94.1233 19.275 93.9661C19.3394 93.8089 19.3719 93.6404 19.3706 93.4705V90.2028C19.3714 90.0332 19.3382 89.8652 19.2729 89.7088C19.2076 89.5523 19.1115 89.4106 18.9904 89.292C18.7503 89.0517 18.4247 88.9167 18.0851 88.9167Z" fill="#3E3A39"/>
<path d="M17.945 92.9901L6.73534 93.0351C6.61196 93.0351 6.49363 92.9861 6.40639 92.8988C6.31915 92.8115 6.27014 92.6932 6.27014 92.5697V87.1452C6.27013 87.0226 6.31846 86.905 6.40462 86.8179C6.49078 86.7307 6.60783 86.6811 6.73033 86.6798L17.94 86.6348C18.3478 86.6334 18.7394 86.7939 19.0291 87.0809C19.3189 87.3679 19.483 87.7581 19.4857 88.1661V91.4388C19.4877 91.6422 19.4492 91.844 19.3726 92.0325C19.296 92.2209 19.1828 92.3923 19.0395 92.5366C18.8961 92.6809 18.7256 92.7953 18.5377 92.8732C18.3498 92.951 18.1484 92.9908 17.945 92.9901Z" fill="white"/>
<path d="M6.73531 93.2852C6.63971 93.2878 6.54454 93.2713 6.45543 93.2365C6.36633 93.2018 6.28509 93.1495 6.21654 93.0828C6.14798 93.0161 6.0935 92.9363 6.0563 92.8481C6.01911 92.76 5.99997 92.6652 6.00001 92.5696V87.145C5.99961 87.0522 6.01753 86.9603 6.05272 86.8744C6.08791 86.7885 6.13969 86.7104 6.20509 86.6446C6.33895 86.5133 6.51788 86.4382 6.7053 86.4344L17.915 86.3894C18.3878 86.3907 18.841 86.5785 19.1763 86.912C19.5115 87.2456 19.7018 87.6979 19.7057 88.1709V91.4436C19.7071 91.9179 19.5204 92.3733 19.1866 92.7101C18.8527 93.0469 18.3991 93.2375 17.925 93.2401L6.71531 93.2852H6.73531ZM17.945 86.8898L6.73531 86.9349C6.67868 86.9359 6.62476 86.9593 6.58525 86.9999C6.56583 87.0197 6.55053 87.0432 6.54023 87.069C6.52993 87.0947 6.52483 87.1223 6.52523 87.15L6.50022 92.5696C6.50387 92.625 6.52784 92.6771 6.56754 92.7159C6.60724 92.7546 6.65986 92.7774 6.71531 92.7797L17.925 92.7347C18.2664 92.7321 18.5928 92.5942 18.8329 92.3513C19.0729 92.1083 19.2069 91.7802 19.2055 91.4386V88.1709C19.2029 87.8319 19.0672 87.5076 18.8276 87.2679C18.588 87.0283 18.2638 86.8924 17.925 86.8898H17.945Z" fill="#3E3A39"/>
<mask id="mask0_212_1802" style="mask-type:alpha" maskUnits="userSpaceOnUse" x="73" y="18" width="45" height="43">
<rect x="73" y="18" width="45" height="43" fill="#C4C4C4"/>
</mask>
<g mask="url(#mask0_212_1802)">
<path d="M90.9855 28.5163C90.073 28.8747 89.1955 29.317 88.3645 29.8374C86.3258 31.1013 84.5369 32.7298 83.0873 34.6414C82.3086 35.6414 81.6221 36.71 81.0364 37.834C79.4516 37.5742 77.9712 36.8756 76.7629 35.8173C75.5546 34.759 74.6667 33.3833 74.1998 31.8461C73.7329 30.3089 73.7056 28.6716 74.1211 27.1197C74.5366 25.5677 75.3782 24.1632 76.5505 23.0653C77.7229 21.9673 79.1792 21.2197 80.7545 20.9072C82.3298 20.5947 83.9611 20.7298 85.4635 21.2972C86.966 21.8645 88.2796 22.8415 89.2556 24.1174C90.2315 25.3933 90.8308 26.9171 90.9855 28.5163Z" fill="#B8A4D9"/>
<path d="M113.415 45.6506C113.415 53.8024 105.707 57.0101 96.1928 57.0101C86.6788 57.0101 78.9556 53.8024 78.9556 45.6506C79.0183 42.9125 79.7297 40.2285 81.0314 37.8191C81.6172 36.695 82.3036 35.6264 83.0823 34.6264C84.532 32.7148 86.3208 31.0864 88.3595 29.8224C89.1927 29.3069 90.0718 28.8697 90.9856 28.5163C94.2629 27.1847 97.9259 27.1615 101.22 28.4513C102.143 28.8019 103.032 29.2357 103.876 29.7473C105.953 31.0188 107.775 32.6666 109.248 34.6064C110.034 35.6108 110.727 36.6844 111.319 37.8141C112.632 40.2219 113.35 42.9087 113.415 45.6506Z" fill="#B8A4D9"/>
<path d="M88.3645 29.8224C86.3258 31.0864 84.5369 32.7148 83.0872 34.6264C82.2988 34.4571 81.5723 34.0738 80.9875 33.5184C80.4027 32.963 79.9822 32.2571 79.7722 31.4783C79.5622 30.6994 79.5709 29.8778 79.7972 29.1035C80.0236 28.3293 80.4589 27.6324 81.0553 27.0895C81.6516 26.5466 82.3861 26.1786 83.1779 26.026C83.9697 25.8734 84.7882 25.9421 85.5435 26.2245C86.2988 26.5069 86.9617 26.9921 87.4594 27.6269C87.957 28.2616 88.2702 29.0212 88.3645 29.8224Z" fill="#EFCECD"/>
<path d="M118.372 29.337C118.372 31.3502 117.666 33.2997 116.377 34.8459C115.089 36.3921 113.299 37.4372 111.319 37.799C110.727 36.6694 110.034 35.5958 109.248 34.5914C107.775 32.6516 105.953 31.0038 103.876 29.7323C103.032 29.2207 102.143 28.7869 101.22 28.4362C101.445 26.2406 102.506 24.2157 104.182 22.7803C105.858 21.345 108.021 20.609 110.224 20.7247C112.427 20.8404 114.502 21.7989 116.018 23.402C117.535 25.005 118.378 27.1298 118.372 29.337Z" fill="#B8A4D9"/>
<path d="M112.605 30.3427C112.607 31.326 112.277 32.2811 111.667 33.0526C111.058 33.824 110.205 34.3664 109.248 34.5913C107.775 32.6515 105.953 31.0037 103.876 29.7322C104.034 28.6355 104.601 27.6392 105.463 26.9434C106.326 26.2476 107.419 25.9039 108.524 25.9812C109.629 26.0584 110.664 26.551 111.421 27.3601C112.178 28.1691 112.601 29.2346 112.605 30.3427Z" fill="#EFCECD"/>
<path d="M99.144 42.7933C99.234 45.1853 97.9035 47.1769 96.1427 47.242C94.382 47.307 92.9314 45.4205 92.8413 43.0285C92.7513 40.6365 94.0819 38.6498 95.8426 38.5798C97.6033 38.5097 99.0389 40.4013 99.144 42.7933Z" fill="#3E3A39"/>
<path d="M107.542 42.9482C106.757 43.1384 105.867 42.2627 105.542 40.9866C105.217 39.7106 105.627 38.5296 106.412 38.3394C107.197 38.1493 108.088 39.025 108.413 40.301C108.738 41.5771 108.308 42.7581 107.542 42.9482Z" fill="#3E3A39"/>
<path d="M85.6934 42.9834C84.8931 42.8583 84.4129 41.7023 84.623 40.4112C84.833 39.1201 85.6234 38.1743 86.4437 38.3044C87.2641 38.4346 87.7242 39.5805 87.5142 40.8766C87.3041 42.1727 86.4937 43.1135 85.6934 42.9834Z" fill="#3E3A39"/>
<path d="M102.04 46.2059C100.625 49.9591 97.3682 49.2084 97.3332 49.2084C97.219 49.1776 97.1212 49.1035 97.0607 49.0018C97.0001 48.9001 96.9816 48.7788 97.0089 48.6637C97.0362 48.5485 97.1073 48.4485 97.207 48.3848C97.3068 48.3212 97.4274 48.2989 97.5433 48.3227C97.6583 48.3227 100.044 48.8582 101.185 45.8807C101.231 45.7751 101.316 45.691 101.421 45.6452C101.527 45.5995 101.646 45.5957 101.755 45.6344C101.863 45.6731 101.953 45.7516 102.006 45.8539C102.059 45.9563 102.071 46.0749 102.04 46.1859V46.2059Z" fill="#3E3A39"/>
<path d="M108.753 73.5089C108.753 82.2712 103.251 83.7224 96.4629 83.7224C89.675 83.7224 84.1677 82.2712 84.1677 73.5089C84.1677 64.7466 89.67 51.991 96.4629 51.991C103.256 51.991 108.753 64.7466 108.753 73.5089Z" fill="#B8A4D9"/>
<path d="M105.582 76.3211C105.582 82.6814 101.58 83.7323 96.6579 83.7323C91.7358 83.7323 87.7391 82.6814 87.7391 76.3211C87.7391 69.9608 91.7408 60.7031 96.6579 60.7031C101.575 60.7031 105.582 69.9608 105.582 76.3211Z" fill="#EFCECD"/>
<path d="M89.535 28.9216C85.8434 30.6881 83.5074 34.0709 81.3165 37.3937C81.1514 37.6389 81.5466 37.8691 81.7067 37.6239C83.8576 34.3562 86.1335 31.0534 89.7651 29.3169C90.0352 29.1918 89.7801 28.7965 89.535 28.9216Z" fill="white"/>
<path d="M91.0606 56.7949C91.2293 57.3663 91.2243 57.975 91.0461 58.5435C90.868 59.112 90.5248 59.6147 90.0602 59.9875C85.0831 63.7907 83.2073 68.0292 82.6621 70.4963C82.6031 70.8424 82.4678 71.1711 82.2659 71.4583C82.064 71.7455 81.8006 71.9841 81.4949 72.1567C81.1892 72.3292 80.8489 72.4314 80.4987 72.4558C80.1486 72.4803 79.7974 72.4263 79.4707 72.2978C78.9757 72.0585 78.5699 71.6673 78.3126 71.1813C78.0553 70.6952 77.9598 70.1396 78.0401 69.5955C79.0906 60.4129 84.3028 56.5847 87.5841 55.0834C87.9214 54.9292 88.2888 54.8519 88.6596 54.8572C89.0305 54.8625 89.3955 54.9502 89.7282 55.114C90.061 55.2778 90.3532 55.5136 90.5836 55.8043C90.814 56.095 90.977 56.4334 91.0606 56.7949Z" fill="#B8A4D9"/>
<path d="M100.96 56.7949C100.791 57.3663 100.796 57.975 100.974 58.5435C101.152 59.112 101.496 59.6147 101.96 59.9875C106.962 63.7907 108.813 68.0292 109.358 70.4963C109.417 70.8424 109.553 71.1711 109.754 71.4583C109.956 71.7455 110.22 71.9841 110.525 72.1567C110.831 72.3292 111.171 72.4314 111.522 72.4558C111.872 72.4803 112.223 72.4263 112.55 72.2978C113.045 72.0585 113.45 71.6673 113.708 71.1813C113.965 70.6952 114.06 70.1396 113.98 69.5955C112.93 60.4129 107.713 56.5847 104.436 55.0834C104.099 54.9292 103.732 54.8519 103.361 54.8572C102.99 54.8625 102.625 54.9502 102.292 55.114C101.959 55.2778 101.667 55.5136 101.437 55.8043C101.206 56.095 101.043 56.4334 100.96 56.7949Z" fill="#B8A4D9"/>
<path d="M90.9606 55.6138C94.6198 57.0948 98.7111 57.0948 102.37 55.6138C102.645 55.5087 102.44 55.1134 102.17 55.2035C98.6159 56.6253 94.6483 56.6091 91.1056 55.1584C90.8355 55.0683 90.6904 55.5037 90.9606 55.6138Z" fill="white"/>
</g>
<mask id="mask1_212_1802" style="mask-type:alpha" maskUnits="userSpaceOnUse" x="113" y="20" width="59" height="41">
<rect x="113" y="20" width="59" height="41" fill="#C4C4C4"/>
</mask>
<g mask="url(#mask1_212_1802)">
<path d="M154.257 66.2127C154.257 73.3436 147.949 74.2994 140.166 74.2994C132.383 74.2994 126.075 73.3436 126.075 66.2127C126.075 59.0817 132.383 48.4629 140.166 48.4629C147.949 48.4629 154.257 59.0767 154.257 66.2127Z" fill="#F7BEBD"/>
<path d="M133.513 29.8523C133.328 29.8523 133.048 21.09 118.867 24.1476C117.794 24.3315 116.699 24.3467 115.621 24.1926C115.621 24.1926 116.546 34.4061 127.751 32.6697C128.477 32.5545 129.208 32.4794 129.942 32.4445L132.078 32.3544L133.513 29.8523Z" fill="#F7BEBD"/>
<path d="M133.233 30.3278C133.103 30.3278 132.908 24.1677 122.934 26.3245C122.18 26.4526 121.41 26.4627 120.653 26.3545C120.653 26.3545 121.303 33.5355 129.157 32.3195C129.667 32.2365 130.181 32.183 130.697 32.1594L132.198 32.0943L133.233 30.3278Z" fill="#EE8785"/>
<path d="M131.623 30.3827C131.385 29.9334 131.043 29.5478 130.625 29.2587C130.207 28.9695 129.726 28.7852 129.222 28.7213C127.921 28.5112 124.91 29.8623 124.22 28.4411C124.064 28.1158 123.579 28.4011 123.719 28.7263C123.893 29.0805 124.176 29.3692 124.526 29.5495C124.877 29.7299 125.276 29.7922 125.665 29.7272C127.596 29.5971 129.887 28.4061 131.102 30.678C131.302 30.9882 131.793 30.703 131.623 30.3827Z" fill="white"/>
<path d="M149.56 29.8523C149.75 29.8523 150.025 21.09 164.206 24.1476C165.279 24.3315 166.375 24.3467 167.453 24.1926C167.453 24.1926 166.517 34.4061 155.307 32.6697C154.582 32.5545 153.85 32.4794 153.117 32.4445L150.986 32.3544L149.56 29.8523Z" fill="#F7BEBD"/>
<path d="M149.825 30.3278C149.955 30.3278 150.15 24.1677 160.125 26.3245C160.879 26.4526 161.648 26.4627 162.405 26.3545C162.405 26.3545 161.76 33.5205 153.877 32.3145C153.367 32.2312 152.852 32.1777 152.336 32.1544L150.836 32.0893L149.825 30.3278Z" fill="#EE8785"/>
<path d="M158.064 28.7764C156.833 29.7772 154.872 28.6863 153.407 29.0366C152.915 29.1304 152.449 29.3263 152.038 29.6116C151.627 29.8969 151.28 30.2653 151.021 30.693C150.846 31.0132 151.331 31.2985 151.521 30.9782C153.121 28.0608 156.428 30.8581 158.479 29.1717C158.739 28.9415 158.339 28.5462 158.064 28.7764Z" fill="white"/>
<path d="M156.523 44.8047C156.523 52.9115 149.245 53.8122 140.266 53.8122C131.287 53.8122 124.009 52.9215 124.009 44.8047C124.009 36.688 126.956 24.4377 140.266 24.4377C152.922 24.4377 156.523 36.698 156.523 44.8047Z" fill="#F7BEBD"/>
<path d="M148.915 40.4261C148.965 40.7258 148.925 41.0335 148.8 41.3103C148.674 41.587 148.47 41.8203 148.212 41.9803C147.954 42.1404 147.654 42.22 147.35 42.2091C147.047 42.1982 146.753 42.0972 146.507 41.9191C146.261 41.7409 146.074 41.4935 145.969 41.2085C145.864 40.9235 145.846 40.6136 145.918 40.3184C145.989 40.0231 146.147 39.7558 146.37 39.5505C146.594 39.3451 146.874 39.2109 147.174 39.1651C147.371 39.1309 147.574 39.1366 147.769 39.1818C147.964 39.227 148.148 39.3109 148.31 39.4284C148.472 39.5459 148.61 39.6947 148.713 39.8661C148.817 40.0375 148.886 40.2279 148.915 40.4261Z" fill="#3E3A39"/>
<path d="M130.387 40.4261C130.336 40.727 130.375 41.0363 130.5 41.3146C130.625 41.593 130.831 41.8277 131.09 41.9889C131.349 42.1502 131.65 42.2305 131.955 42.2198C132.26 42.2091 132.554 42.1078 132.801 41.9288C133.049 41.7498 133.237 41.5012 133.342 41.2148C133.447 40.9283 133.465 40.617 133.393 40.3205C133.32 40.024 133.161 39.7557 132.936 39.55C132.711 39.3442 132.429 39.2102 132.128 39.1651C131.93 39.1309 131.728 39.1366 131.533 39.1818C131.338 39.227 131.154 39.3109 130.992 39.4284C130.829 39.5459 130.692 39.6947 130.588 39.8661C130.485 40.0375 130.416 40.2279 130.387 40.4261Z" fill="#3E3A39"/>
<path d="M145.994 46.0708C146.014 46.5235 145.944 46.9759 145.787 47.401C145.63 47.8261 145.389 48.2154 145.079 48.5458C144.769 48.8761 144.396 49.1409 143.981 49.3243C143.567 49.5078 143.12 49.6062 142.667 49.6137H142.557C142.195 49.6009 141.837 49.53 141.497 49.4036C140.367 48.9869 139.125 48.9869 137.995 49.4036C137.688 49.5156 137.366 49.5798 137.04 49.5937H136.875C134.349 49.5937 132.753 46.4261 134.154 44.3594C135.419 42.4928 138.33 41.9874 140.426 42.0925C142.522 42.1976 144.678 42.9882 145.663 44.9148C145.848 45.2747 145.96 45.6675 145.994 46.0708Z" fill="#EE8785"/>
<g style="mix-blend-mode:multiply">
<g style="mix-blend-mode:multiply">
<path d="M139.021 45.8056C139.021 46.0918 138.936 46.3716 138.777 46.6096C138.618 46.8475 138.391 47.0329 138.127 47.1422C137.863 47.2515 137.572 47.2798 137.291 47.2236C137.011 47.1674 136.753 47.0292 136.551 46.8264C136.349 46.6237 136.212 46.3655 136.157 46.0847C136.101 45.8038 136.131 45.5128 136.241 45.2487C136.351 44.9845 136.537 44.759 136.776 44.6007C137.014 44.4424 137.294 44.3584 137.58 44.3594C137.77 44.3594 137.957 44.3968 138.132 44.4696C138.308 44.5423 138.467 44.6489 138.6 44.7833C138.734 44.9176 138.84 45.0771 138.912 45.2525C138.984 45.428 139.021 45.6159 139.021 45.8056Z" fill="#EE8785"/>
</g>
<g style="mix-blend-mode:multiply">
<path d="M143.658 45.8056C143.658 46.0918 143.573 46.3716 143.414 46.6096C143.255 46.8475 143.028 47.0329 142.764 47.1422C142.5 47.2515 142.209 47.2798 141.928 47.2236C141.648 47.1674 141.39 47.0292 141.188 46.8264C140.986 46.6237 140.849 46.3655 140.794 46.0847C140.738 45.8038 140.768 45.5128 140.878 45.2487C140.988 44.9845 141.174 44.759 141.412 44.6007C141.651 44.4424 141.931 44.3584 142.217 44.3594C142.407 44.3594 142.594 44.3968 142.769 44.4696C142.945 44.5423 143.104 44.6489 143.237 44.7833C143.371 44.9176 143.477 45.0771 143.549 45.2525C143.621 45.428 143.658 45.6159 143.658 45.8056Z" fill="#EE8785"/>
</g>
</g>
<path d="M146.844 48.4079C146.479 50.0292 144.468 50.7298 143.007 50.3545C142.937 50.3432 142.865 50.3583 142.805 50.3967C142.745 50.4352 142.701 50.4944 142.682 50.563C142.663 50.6317 142.67 50.705 142.701 50.7689C142.732 50.8329 142.786 50.8831 142.852 50.9099C144.613 51.3603 146.964 50.4896 147.394 48.563C147.474 48.2027 146.924 48.0325 146.844 48.4079Z" fill="#3E3A39"/>
<path d="M137 59.7423C136.56 58.4312 135.374 57.6105 134.259 56.9049C134.039 56.7648 133.833 57.1201 134.054 57.2602C134.953 57.7436 135.729 58.4287 136.319 59.2619C136.995 60.3928 136.94 61.9742 135.594 62.5546C134.549 63.01 133.413 62.6347 132.483 62.0843C131.668 61.5838 130.612 60.9833 130.232 60.0826C130.127 59.8424 129.777 60.0526 129.877 60.2928C130.377 61.4387 131.933 62.3545 133.023 62.7948C134.114 63.2352 135.334 63.3253 136.274 62.6197C136.682 62.2769 136.971 61.8146 137.101 61.2981C137.232 60.7817 137.196 60.2374 137 59.7423Z" fill="#3E3A39"/>
<path d="M144.178 59.1568C144.618 57.8507 145.798 57.03 146.914 56.3245C147.134 56.1843 147.339 56.5346 147.119 56.6747C146.219 57.1581 145.444 57.8432 144.853 58.6764C144.178 59.8074 144.233 61.3887 145.583 61.9742C146.629 62.4245 147.764 62.0542 148.69 61.5038C149.505 61.0034 150.56 60.4029 150.946 59.5021C151.046 59.2619 151.396 59.4671 151.296 59.7073C150.795 60.8532 149.245 61.774 148.149 62.2094C147.054 62.6447 145.843 62.7448 144.903 62.0392C144.495 61.6961 144.205 61.2329 144.074 60.7154C143.944 60.1979 143.98 59.6525 144.178 59.1568Z" fill="#3E3A39"/>
<path d="M133.643 53.502C133.643 53.502 141.617 54.7831 147.399 53.1968" stroke="white" stroke-linecap="round" stroke-linejoin="round"/>
</g>
</g>
<defs>
<clipPath id="clip0_212_1802">
<rect width="239" height="102" fill="white" transform="translate(6 9)"/>
</clipPath>
</defs>
</svg>
