<svg width="117" height="57" viewBox="0 0 117 57" fill="none" xmlns="http://www.w3.org/2000/svg">
<mask id="mask0_207_1499" style="mask-type:alpha" maskUnits="userSpaceOnUse" x="0" y="0" width="117" height="117">
<path d="M117 58.5C117 90.8087 90.8087 117 58.5 117C26.1913 117 0 90.8087 0 58.5C0 26.1913 26.1913 0 58.5 0C90.8087 0 117 26.1913 117 58.5Z" fill="#C4C4C4"/>
</mask>
<g mask="url(#mask0_207_1499)">
<path d="M-14 26C-14 9.43146 -0.568543 -4 16 -4H101C117.569 -4 131 9.43146 131 26V57H-14V26Z" fill="#97D5C9"/>
</g>
<path d="M29.9248 31.298V32.36H33.6688V31.298H29.9248ZM28.7728 36.518V37.49H34.8388V36.518H28.7728ZM22.7428 26.654V27.752H27.7828V26.654H22.7428ZM27.4048 26.654V26.87C26.3068 29.318 23.4448 31.244 20.7448 32.054C20.9968 32.288 21.3208 32.756 21.4828 33.062C24.3988 32.054 27.3688 30.038 28.7188 27.014L27.8728 26.6L27.6388 26.654H27.4048ZM30.2488 25.88L29.1508 26.222C30.6088 29.372 33.3628 31.748 36.8008 32.81C36.9988 32.486 37.3408 32.018 37.6288 31.748C34.2808 30.866 31.5448 28.67 30.2488 25.88ZM33.9208 26.006C33.2728 26.744 32.0848 27.752 31.2568 28.364L32.0488 28.994C32.9128 28.4 34.0468 27.536 34.9288 26.708L33.9208 26.006ZM36.0808 27.824C35.4148 28.526 34.1908 29.534 33.3268 30.128L34.1548 30.758C35.0368 30.2 36.2068 29.336 37.0708 28.508L36.0808 27.824ZM23.3008 31.37V32.432H26.5048V35.69H27.7108V31.37H23.3008ZM22.8328 34.322C22.6348 35.636 22.2748 37.328 21.9688 38.408L23.1028 38.606C23.3908 37.49 23.7508 35.726 24.0028 34.322H22.8328ZM26.5048 37.058V37.238C26.2888 39.812 26.0908 40.838 25.7668 41.144C25.6228 41.288 25.4248 41.306 25.0828 41.306C24.7408 41.306 23.7688 41.288 22.7608 41.198C22.9768 41.522 23.1208 42.008 23.1568 42.368C24.1468 42.404 25.1008 42.422 25.5688 42.404C26.1268 42.35 26.4508 42.26 26.7748 41.954C27.2428 41.486 27.4768 40.334 27.7108 37.598C27.7288 37.436 27.7468 37.058 27.7468 37.058H26.5048ZM29.4388 31.298V32.702C29.4388 33.566 29.2048 34.556 27.7648 35.33C28.0168 35.492 28.4488 35.924 28.6288 36.176C30.2308 35.24 30.6088 33.89 30.6088 32.72V31.298H29.4388ZM34.5328 36.518V36.698C33.5428 39.416 30.8428 40.892 27.7468 41.468C27.9628 41.72 28.2328 42.17 28.3408 42.458C31.7428 41.702 34.5688 40.1 35.7568 36.752L34.9828 36.464L34.7668 36.518H34.5328ZM30.4828 37.418L29.4208 37.706C30.6088 40.226 33.0208 41.828 36.3148 42.44C36.4948 42.116 36.8368 41.594 37.1248 41.324C33.9388 40.874 31.5268 39.506 30.4828 37.418ZM23.4268 34.322L23.2468 35.384H26.9548V34.322H23.4268ZM22.8868 37.058L22.6888 38.102H26.8468V37.058H22.8868ZM33.0388 31.298V33.998C33.0388 34.862 33.1288 35.132 33.3808 35.366C33.6148 35.564 34.0108 35.636 34.3708 35.636C34.5508 35.636 35.0548 35.636 35.2528 35.636C35.5048 35.636 35.8648 35.618 36.0448 35.546C36.2788 35.474 36.4948 35.33 36.5848 35.132C36.7108 34.916 36.7648 34.394 36.8008 33.926C36.4768 33.836 36.0448 33.62 35.8108 33.422C35.7928 33.872 35.7748 34.214 35.7388 34.376C35.6848 34.502 35.5948 34.592 35.5228 34.628C35.4688 34.646 35.2888 34.646 35.1268 34.646C34.9648 34.646 34.7308 34.646 34.6048 34.646C34.4608 34.646 34.3708 34.646 34.2988 34.592C34.2268 34.538 34.2268 34.358 34.2268 34.106V31.298H33.0388ZM22.2568 28.796C23.1028 29.318 24.0928 30.092 24.5608 30.65L25.3888 29.822C24.9028 29.3 23.8768 28.544 23.0488 28.058L22.2568 28.796ZM42.0028 29.39V30.704H54.4768V29.39H42.0028ZM41.2108 34.664V35.96H53.8288V34.664H41.2108ZM39.2488 40.55V41.864H55.3228V40.55H39.2488ZM46.5928 25.898V41.216H47.9788V25.898H46.5928ZM42.5428 26.186C41.8588 28.76 40.6888 31.262 39.2128 32.864C39.5548 33.044 40.1668 33.44 40.4368 33.674C41.8768 31.946 43.1368 29.282 43.9288 26.492L42.5428 26.186ZM64.5028 25.88V40.928C64.5028 41.252 64.3948 41.36 64.0708 41.378C63.7468 41.378 62.6668 41.396 61.5868 41.36C61.7668 41.666 61.9828 42.17 62.0548 42.494C63.5668 42.494 64.5028 42.476 65.0788 42.296C65.6368 42.098 65.8708 41.774 65.8708 40.928V25.88H64.5028ZM57.4648 27.32V28.436H73.0888V27.32H57.4648ZM60.6328 30.452H69.9208V31.748H60.6328V30.452ZM59.3548 29.516V32.702H71.2888V29.516H59.3548ZM58.8328 33.962V34.97H70.2088V40.514H71.5588V33.962H58.8328ZM57.1228 36.212V37.292H73.4308V36.212H57.1228ZM58.6528 38.66V39.704H70.9108V38.66H58.6528ZM84.3388 29.228V30.506H91.5388V29.228H84.3388ZM75.0148 29.39V30.668H82.9168V29.39H75.0148ZM84.8968 25.88C84.3208 28.94 83.2948 31.874 81.7468 33.71C82.0888 33.908 82.6648 34.358 82.8988 34.574C84.4468 32.558 85.5808 29.462 86.2468 26.096L84.8968 25.88ZM88.9288 29.93C88.0648 35.834 86.0848 39.362 81.3508 41.27C81.5848 41.54 81.9808 42.152 82.1248 42.458C87.0928 40.226 89.2528 36.482 90.2608 30.092L88.9288 29.93ZM84.9688 30.362L83.7448 30.578C84.7888 36.158 86.7508 40.478 90.7288 42.458C90.9268 42.098 91.3408 41.576 91.6648 41.306C87.8488 39.596 85.8868 35.438 84.9688 30.362ZM78.3088 25.88V34.61H79.6768V25.88H78.3088ZM75.7708 33.962V41.666H77.0488V33.962H75.7708ZM76.5268 33.962V35.24H80.9188V39.146H76.5268V40.406H82.1968V33.962H76.5268Z" fill="#2B2B2B"/>
<rect width="117" height="6" transform="matrix(1 0 0 -1 0 57)" fill="url(#paint0_linear_207_1499)"/>
<defs>
<linearGradient id="paint0_linear_207_1499" x1="58.5" y1="0" x2="58.5" y2="6" gradientUnits="userSpaceOnUse">
<stop stop-color="#1AAE9F"/>
<stop offset="1" stop-color="#19887C" stop-opacity="0"/>
</linearGradient>
</defs>
</svg>
