<svg width="260" height="60" viewBox="0 0 260 60" fill="none" xmlns="http://www.w3.org/2000/svg">
<path d="M76.48 22.312H69.216V25.864H72.8V34.088H76.48V22.312ZM76.48 32.584H73.152C71.744 33.768 70.176 34.92 68.832 35.784L70.656 39.592C72.256 38.216 73.6 37 74.88 35.752C76.8 38.216 79.392 39.144 83.232 39.304C87.136 39.496 93.952 39.432 97.952 39.24C98.112 38.12 98.72 36.36 99.136 35.496C94.688 35.848 87.104 35.944 83.264 35.752C79.968 35.624 77.696 34.696 76.48 32.584ZM69.312 12.808C71.136 14.376 73.28 16.584 74.144 18.152L77.312 15.72C76.32 14.216 74.08 12.072 72.256 10.664L69.312 12.808ZM78.752 20.616V34.6H82.08V23.528H96.032V20.616H78.752ZM86.4 15.592V21.736H89.088V17.992H92.992V15.592H86.4ZM81.152 10.792V21.416H84.48V13.608H91.552V21.416H95.008V10.792H81.152ZM85.44 24.84V27.304H89.376V29.512H85.44V31.912H92.16V24.84H85.44ZM93.888 20.616V31.304C93.888 31.624 93.76 31.72 93.44 31.72C93.152 31.72 92.128 31.72 91.2 31.688C91.584 32.52 92 33.8 92.128 34.696C93.856 34.696 95.168 34.664 96.128 34.184C97.12 33.672 97.344 32.84 97.344 31.336V20.616H93.888ZM83.712 24.84V32.904H86.496V24.84H83.712ZM107.488 26.568V30.12H125.024V26.568H107.488ZM107.84 18.312V21.864H123.424V31.72H127.296V18.312H107.84ZM123.552 9.864C119.456 11.272 112.608 12.52 106.464 13.224C106.912 14.024 107.392 15.432 107.552 16.296C113.888 15.592 121.28 14.408 126.624 12.712L123.552 9.864ZM105.376 12.328V21.672C105.376 26.376 104.992 32.712 101.024 37.288C101.984 37.736 103.52 39.048 104.096 39.912C108.64 34.728 109.28 26.792 109.28 21.736V14.248C109.856 14.12 110.112 13.96 110.144 13.64L105.376 12.328ZM141.504 29.896V34.984C141.504 38.344 142.432 39.4 146.592 39.4C147.392 39.4 150.784 39.4 151.648 39.4C154.784 39.4 155.84 38.376 156.288 34.344C155.232 34.12 153.632 33.576 152.896 33C152.736 35.624 152.512 36.008 151.328 36.008C150.464 36.008 147.68 36.008 147.04 36.008C145.536 36.008 145.28 35.88 145.28 34.92V29.896H141.504ZM144.64 28.968C146.56 30.152 148.832 31.976 149.824 33.32L152.64 30.92C151.552 29.576 149.184 27.88 147.296 26.792L144.64 28.968ZM154.432 30.6C156.64 32.968 158.784 36.232 159.52 38.44L163.072 36.744C162.24 34.408 159.968 31.304 157.728 29.064L154.432 30.6ZM137.024 29.48C136.32 32.264 134.88 34.984 132.8 36.648L136 38.792C138.368 36.808 139.616 33.672 140.48 30.568L137.024 29.48ZM140.096 13.256V16.584H161.856V13.256H140.096ZM146.656 18.216V21.224H160.032V18.216H146.656ZM146.688 23.016V26.184H160.896V23.016H146.688ZM144.928 14.408V27.976H148.8V14.408H144.928ZM140.512 9.736C139.104 14.056 136.384 18.024 133.088 20.424C134.016 21.064 135.648 22.504 136.352 23.272C139.712 20.392 142.752 15.816 144.544 10.76L140.512 9.736ZM171.168 36.072L171.424 39.208C176.64 39.112 184.416 38.856 191.68 38.6L191.808 35.72C184.32 35.912 176.288 36.04 171.168 36.072ZM185.984 27.944C183.2 30.76 178.624 34.344 175.008 36.52L177.44 38.152C181.056 36.104 185.664 32.744 189.184 29.704L185.984 27.944ZM179.872 26.088C178.752 27.592 176.8 29.608 175.264 30.856L177.6 32.264C179.2 31.144 181.184 29.384 182.976 27.72L179.872 26.088ZM172.544 30.952C174.784 32.232 177.696 34.248 179.04 35.592L181.632 33.096C180.128 31.752 177.152 29.896 174.944 28.712L172.544 30.952ZM185.92 33.352C188 35.336 190.4 38.12 191.488 39.944L194.72 38.312C193.536 36.424 191.008 33.768 188.928 31.912L185.92 33.352ZM171.936 17.32V19.944H181.92V17.32H171.936ZM182.816 17.32V19.944H193.952V17.32H182.816ZM175.488 15.432V26.856H178.304V15.432H175.488ZM179.36 20.68V25.416H181.472V20.68H179.36ZM186.368 15.432V27.08H189.216V15.432H186.368ZM172.416 20.648V21.864C172.416 23.144 172.224 24.904 171.04 25.992C171.616 26.312 172.48 26.952 172.864 27.432C174.272 25.864 174.464 23.752 174.464 21.96V20.648H172.416ZM183.232 20.648V21.8C183.232 23.016 183.04 24.712 181.792 25.736C182.368 26.056 183.264 26.728 183.648 27.208C185.12 25.704 185.344 23.624 185.344 21.928V20.648H183.232ZM190.272 20.616V24.136C190.272 25.544 190.4 26.024 190.752 26.44C191.072 26.792 191.68 26.952 192.224 26.952C192.48 26.952 192.928 26.952 193.216 26.952C193.536 26.952 193.952 26.92 194.208 26.76C194.56 26.6 194.816 26.376 194.976 26.024C195.168 25.704 195.232 24.84 195.296 24.04C194.752 23.88 194.016 23.496 193.6 23.176C193.6 23.848 193.568 24.392 193.504 24.648C193.44 24.872 193.408 25 193.312 25.064C193.28 25.096 193.152 25.128 193.056 25.128C192.928 25.128 192.832 25.128 192.768 25.128C192.64 25.128 192.576 25.064 192.512 25C192.512 24.904 192.512 24.68 192.512 24.296V20.616H190.272ZM179.008 9.832V13.96H183.008V9.832H179.008ZM169.28 12.328V15.528H194.592V12.328H169.28ZM167.072 12.328V22.056C167.072 26.728 166.912 33.288 164.736 37.8C165.504 38.184 167.072 39.368 167.68 40.008C170.176 35.048 170.592 27.176 170.592 22.056V12.328H167.072ZM207.328 16.936V20.232H213.856V16.936H207.328ZM212.8 16.936V17.704C212.672 30.728 212.512 34.984 212 35.848C211.776 36.296 211.552 36.424 211.2 36.424C210.752 36.424 210.112 36.424 209.312 36.328C209.76 37.192 210.08 38.536 210.144 39.464C211.168 39.464 212.128 39.464 212.832 39.304C213.664 39.176 214.208 38.856 214.752 37.928C215.52 36.648 215.68 32.008 215.84 18.408C215.84 18.024 215.872 16.936 215.872 16.936H212.8ZM208.8 9.832C208.896 21.672 208.704 31.752 204.736 37.736C205.408 38.216 206.752 39.4 207.2 39.912C211.392 33 211.712 22.792 211.744 9.832H208.8ZM200.48 9.832V15.208H204V9.832H200.48ZM197.408 13.832V16.968H206.912V13.832H197.408ZM197.056 22.664V25.8H207.2V22.664H197.056ZM198.08 17.704C198.56 19.304 198.912 21.448 198.848 22.824L201.664 22.024C201.6 20.648 201.248 18.536 200.672 16.968L198.08 17.704ZM203.712 16.904C203.552 18.44 203.072 20.712 202.688 22.184L205.152 22.792C205.632 21.48 206.176 19.4 206.784 17.512L203.712 16.904ZM196.8 29.448L197.44 32.776C200.256 32.264 203.872 31.656 207.296 31.016L207.072 27.944C203.296 28.52 199.424 29.128 196.8 29.448ZM219.808 9.832V15.208H223.36V9.832H219.808ZM219.808 23.848V39.912H223.36V23.848H219.808ZM216.384 13.8V16.936H226.56V13.8H216.384ZM216.256 22.632V25.768H227.008V22.632H216.256ZM216.512 29.16V32.328H226.624V29.16H216.512ZM217.088 17.672C217.632 19.304 217.984 21.448 217.984 22.824L220.768 22.024C220.736 20.648 220.32 18.504 219.712 16.936L217.088 17.672ZM223.136 16.776C222.944 18.344 222.432 20.616 222.048 22.088L224.576 22.728C225.088 21.384 225.664 19.336 226.272 17.448L223.136 16.776ZM200.48 23.624V29.416C200.48 31.976 200.128 35.464 196.992 37.416C197.792 37.992 198.848 39.176 199.328 39.912C203.072 37.224 204 32.968 204 29.448V23.624H200.48ZM245.172 30.1719H241.438C241.448 29.224 241.526 28.4115 241.672 27.7344C241.828 27.0573 242.083 26.4479 242.438 25.9062C242.792 25.3542 243.271 24.7917 243.875 24.2188C244.354 23.7708 244.781 23.349 245.156 22.9531C245.542 22.5469 245.844 22.125 246.062 21.6875C246.281 21.2396 246.391 20.7344 246.391 20.1719C246.391 19.5365 246.286 19.0052 246.078 18.5781C245.88 18.151 245.583 17.8281 245.188 17.6094C244.802 17.3802 244.318 17.2656 243.734 17.2656C243.255 17.2656 242.802 17.3646 242.375 17.5625C241.948 17.7604 241.604 18.0677 241.344 18.4844C241.083 18.8906 240.943 19.4219 240.922 20.0781H236.781C236.812 18.7135 237.135 17.5781 237.75 16.6719C238.365 15.7552 239.193 15.0729 240.234 14.625C241.276 14.1667 242.443 13.9375 243.734 13.9375C245.161 13.9375 246.38 14.1771 247.391 14.6562C248.411 15.125 249.188 15.8125 249.719 16.7188C250.26 17.625 250.531 18.7188 250.531 20C250.531 20.9167 250.354 21.7396 250 22.4688C249.646 23.1875 249.177 23.8594 248.594 24.4844C248.01 25.1094 247.38 25.7396 246.703 26.375C246.109 26.9062 245.708 27.474 245.5 28.0781C245.292 28.6823 245.182 29.3802 245.172 30.1719ZM241.047 35.0312C241.047 34.4062 241.255 33.8854 241.672 33.4688C242.099 33.0521 242.672 32.8438 243.391 32.8438C244.109 32.8438 244.677 33.0521 245.094 33.4688C245.521 33.8854 245.734 34.4062 245.734 35.0312C245.734 35.6354 245.521 36.1458 245.094 36.5625C244.677 36.9792 244.109 37.1875 243.391 37.1875C242.672 37.1875 242.099 36.9792 241.672 36.5625C241.255 36.1458 241.047 35.6354 241.047 35.0312Z" fill="#00AC9A"/>
<rect x="69" y="50" width="185" height="2" fill="#00AC9A"/>
<rect x="69" y="50" width="42" height="2" fill="#FEC133"/>
<g clip-path="url(#clip0_75_1412)">
<g opacity="0.7">
<path opacity="0.26" d="M53.4292 54.0228C53.7779 54.2993 54.0617 54.6488 54.2607 55.0468C54.4597 55.4448 54.5689 55.8816 54.5809 56.3264C54.6356 56.7828 54.5915 57.2456 54.4514 57.6834C54.3114 58.1211 54.0786 58.5236 53.7691 58.8634C53.4922 59.2112 53.1424 59.494 52.7444 59.6921C52.3464 59.8903 51.9099 59.9988 51.4655 60.0101C51.0243 60.0574 50.578 60.0093 50.157 59.8693C49.736 59.7292 49.3499 59.5004 49.0249 59.1983L45.0317 55.7429C44.6258 55.337 44.0829 55.2913 43.403 55.6059C41.0923 56.8516 38.5083 57.5036 35.8833 57.5036H18.3374C14.1416 57.469 10.1281 55.7837 7.16542 52.8125C4.20272 49.8412 2.52906 45.8229 2.50653 41.6271V17.9822C2.50586 15.8998 2.91549 13.8376 3.7121 11.9135C4.50872 9.98947 5.67667 8.24122 7.14919 6.7687C8.62171 5.29618 10.37 4.12824 12.294 3.33163C14.2181 2.53501 16.2803 2.12533 18.3628 2.12599H35.9087C37.9966 2.10243 40.0678 2.49806 42.0001 3.28943C43.9323 4.0808 45.6862 5.25183 47.1577 6.73319C48.6528 8.19443 49.8329 9.94633 50.6253 11.881C51.4176 13.8156 51.8055 15.892 51.7649 17.9822V41.6271C51.7614 44.3536 51.0629 47.0342 49.7353 49.4157C49.5581 49.651 49.48 49.9463 49.5179 50.2385C49.5559 50.5306 49.7068 50.7962 49.9382 50.9784L53.4292 54.0228ZM35.8833 50.7044C36.5215 50.7096 37.1582 50.6415 37.781 50.5015C37.8835 50.4871 37.9785 50.4396 38.0518 50.3664C38.125 50.2932 38.1725 50.1981 38.1869 50.0956C38.2044 49.9952 38.1947 49.892 38.159 49.7966C38.1234 49.7012 38.0629 49.6169 37.9839 49.5526L32.9099 45.1484C32.5586 44.8744 32.2728 44.5253 32.0736 44.1268C31.8743 43.7283 31.7665 43.2903 31.7581 42.8448C31.7106 42.4044 31.7586 41.9589 31.8987 41.5386C32.0388 41.1183 32.2677 40.7332 32.57 40.4093C32.8447 40.0588 33.1939 39.7737 33.5923 39.5745C33.9907 39.3753 34.4283 39.267 34.8736 39.2575C35.3251 39.2066 35.7823 39.2527 36.2145 39.3927C36.6468 39.5327 37.0442 39.7634 37.3801 40.0693L43.205 45.1433C43.7936 45.6507 44.1742 45.5493 44.3568 44.8744C44.7619 43.838 44.9684 42.7347 44.9657 41.622V17.9772C44.9738 16.7829 44.7445 15.5988 44.2912 14.4938C43.8379 13.3889 43.1695 12.385 42.325 11.5404C41.4805 10.6959 40.4766 10.0276 39.3717 9.57428C38.2667 9.12096 37.0827 8.89169 35.8884 8.89978H18.3374C17.152 8.88091 15.9754 9.10532 14.8801 9.55913C13.7848 10.0129 12.7942 10.6865 11.9695 11.5383C11.0868 12.358 10.3883 13.356 9.92031 14.466C9.45233 15.576 9.22557 16.7729 9.25497 17.9772V41.622C9.24319 42.8231 9.47804 44.0138 9.94496 45.1204C10.4119 46.2271 11.1009 47.2262 11.9695 48.0558C12.7939 48.9082 13.7844 49.5826 14.8796 50.0373C15.9748 50.492 17.1516 50.7173 18.3374 50.6994L35.8833 50.7044Z" fill="#00AC9A"/>
</g>
<path d="M50.953 51.8969C51.3017 52.1733 51.5855 52.5229 51.7845 52.9208C51.9835 53.3188 52.0929 53.7557 52.1048 54.2005C52.1541 54.6523 52.1067 55.1094 51.9658 55.5416C51.825 55.9737 51.5939 56.371 51.2879 56.707C51.0114 57.0557 50.6619 57.3395 50.2639 57.5385C49.8659 57.7375 49.4292 57.8468 48.9844 57.8588C48.5439 57.9063 48.0984 57.8583 47.6781 57.7183C47.2578 57.5782 46.8727 57.3492 46.5488 57.047L42.5505 53.5916C42.1445 53.1857 41.6016 53.14 40.9217 53.4546C38.611 54.7002 36.0271 55.3523 33.402 55.3522H15.8562C11.6604 55.3243 7.64417 53.6455 4.67672 50.679C1.70928 47.7125 0.0292502 43.6969 8.12546e-07 39.5011V15.8563C-0.000665894 13.7738 0.408956 11.7116 1.20557 9.78757C2.00218 7.8635 3.17014 6.11525 4.64266 4.64273C6.11518 3.17021 7.86344 2.00227 9.78751 1.20566C11.7116 0.409043 13.7738 -0.000625579 15.8562 4.11276e-05H33.402C35.4899 -0.0238061 37.5615 0.371672 39.4938 1.16306C41.4261 1.95445 43.1798 3.12563 44.6512 4.60722C46.1463 6.06846 47.3264 7.82036 48.1187 9.755C48.9111 11.6896 49.2989 13.7661 49.2583 15.8563V39.5011C49.2547 42.2276 48.5562 44.9082 47.2287 47.2897C47.0517 47.5242 46.9739 47.8187 47.0119 48.11C47.0498 48.4013 47.2006 48.6661 47.4317 48.8474L50.953 51.8969ZM33.402 48.5785C34.0403 48.5836 34.677 48.5155 35.2997 48.3755C35.4023 48.3611 35.4974 48.3137 35.5706 48.2404C35.6438 48.1672 35.6912 48.0721 35.7056 47.9696C35.7242 47.8692 35.7151 47.7656 35.6794 47.67C35.6436 47.5744 35.5826 47.4903 35.5027 47.4267L30.4287 43.0224C30.0782 42.7476 29.7931 42.3985 29.5939 42.0001C29.3947 41.6018 29.2865 41.1641 29.2769 40.7189C29.2294 40.2784 29.2773 39.8329 29.4174 39.4126C29.5575 38.9924 29.7866 38.6072 30.0888 38.2833C30.3634 37.9326 30.7124 37.6472 31.1108 37.448C31.5092 37.2488 31.947 37.1407 32.3923 37.1315C32.8438 37.0806 33.301 37.1267 33.7333 37.2667C34.1655 37.4067 34.563 37.6374 34.899 37.9434L40.7239 43.0174C41.3125 43.5248 41.6981 43.4233 41.8757 42.7485C42.2808 41.7121 42.4873 40.6087 42.4846 39.496V15.8512C42.4933 14.6567 42.2645 13.4724 41.8114 12.3671C41.3583 11.2618 40.69 10.2576 39.8454 9.41296C39.0007 8.5683 37.9965 7.89999 36.8913 7.44691C35.786 6.99384 34.6016 6.76504 33.4071 6.77381H15.8613C14.6759 6.75494 13.4992 6.97935 12.4039 7.43316C11.3087 7.88698 10.3181 8.56056 9.49343 9.4123C8.6124 10.2331 7.91538 11.2314 7.44834 12.3413C6.9813 13.4511 6.7548 14.6474 6.78387 15.8512V39.496C6.77233 40.6966 7.00688 41.8868 7.47287 42.9933C7.93887 44.0998 8.62648 45.0992 9.49343 45.9298C10.3179 46.7822 11.3083 47.4566 12.4035 47.9113C13.4988 48.366 14.6756 48.5913 15.8613 48.5734L33.402 48.5785Z" fill="#00AC9A"/>
</g>
<defs>
<clipPath id="clip0_75_1412">
<rect width="54.5962" height="60" fill="white"/>
</clipPath>
</defs>
</svg>
