<svg width="260" height="60" viewBox="0 0 260 60" fill="none" xmlns="http://www.w3.org/2000/svg">
<path d="M87.04 20.424V23.976H98.976V20.424H87.04ZM69.696 13V16.136H84.096V13H69.696ZM69.376 25.736V28.968H84.064V25.736H69.376ZM69.28 20.136V23.304H84.352V20.136H69.28ZM92.224 21.96V39.72H95.936V21.96H92.224ZM75.04 10.088V14.408H78.784V10.088H75.04ZM75.04 23.112V39.848H78.784V23.112H75.04ZM85.312 12.36V23.528C85.312 27.912 84.96 33.384 81.248 37.32C82.112 37.8 83.52 39.112 84 39.944C88.352 35.432 88.96 28.36 88.96 23.592V14.184C89.536 14.088 89.76 13.928 89.792 13.608L85.312 12.36ZM95.776 10.152C93.504 11.368 89.728 12.52 86.304 13.288C86.752 14.024 87.296 15.368 87.488 16.2C91.232 15.496 95.584 14.408 98.848 12.936L95.776 10.152ZM78.496 29.096L76.448 30.76C77.632 31.816 80.064 34.216 81.12 35.496L83.328 32.744C82.56 32.104 79.488 29.704 78.496 29.096ZM71.296 16.616C71.808 17.832 72.224 19.464 72.288 20.52L75.424 19.688C75.264 18.632 74.816 17.064 74.24 15.912L71.296 16.616ZM79.264 15.848C78.976 16.968 78.432 18.6 77.984 19.688L81.024 20.328C81.504 19.336 82.048 17.96 82.656 16.488L79.264 15.848ZM75.072 27.624C73.664 30.44 71.008 33.544 68.48 35.176C69.28 35.784 70.4 37.064 71.008 37.896C73.568 35.816 76.224 32.136 77.792 28.616L75.072 27.624ZM102.208 12.456V15.944H129.728V12.456H102.208ZM101.44 32.136V35.592H130.688V32.136H101.44ZM113.888 9.832V39.912H117.856V9.832H113.888ZM108.32 25.352H123.456V27.336H108.32V25.352ZM108.32 20.552H123.456V22.504H108.32V20.552ZM104.64 17.48V30.408H127.328V17.48H104.64ZM141.504 29.896V34.984C141.504 38.344 142.432 39.4 146.592 39.4C147.392 39.4 150.784 39.4 151.648 39.4C154.784 39.4 155.84 38.376 156.288 34.344C155.232 34.12 153.632 33.576 152.896 33C152.736 35.624 152.512 36.008 151.328 36.008C150.464 36.008 147.68 36.008 147.04 36.008C145.536 36.008 145.28 35.88 145.28 34.92V29.896H141.504ZM144.64 28.968C146.56 30.152 148.832 31.976 149.824 33.32L152.64 30.92C151.552 29.576 149.184 27.88 147.296 26.792L144.64 28.968ZM154.432 30.6C156.64 32.968 158.784 36.232 159.52 38.44L163.072 36.744C162.24 34.408 159.968 31.304 157.728 29.064L154.432 30.6ZM137.024 29.48C136.32 32.264 134.88 34.984 132.8 36.648L136 38.792C138.368 36.808 139.616 33.672 140.48 30.568L137.024 29.48ZM140.096 13.256V16.584H161.856V13.256H140.096ZM146.656 18.216V21.224H160.032V18.216H146.656ZM146.688 23.016V26.184H160.896V23.016H146.688ZM144.928 14.408V27.976H148.8V14.408H144.928ZM140.512 9.736C139.104 14.056 136.384 18.024 133.088 20.424C134.016 21.064 135.648 22.504 136.352 23.272C139.712 20.392 142.752 15.816 144.544 10.76L140.512 9.736ZM171.168 36.072L171.424 39.208C176.64 39.112 184.416 38.856 191.68 38.6L191.808 35.72C184.32 35.912 176.288 36.04 171.168 36.072ZM185.984 27.944C183.2 30.76 178.624 34.344 175.008 36.52L177.44 38.152C181.056 36.104 185.664 32.744 189.184 29.704L185.984 27.944ZM179.872 26.088C178.752 27.592 176.8 29.608 175.264 30.856L177.6 32.264C179.2 31.144 181.184 29.384 182.976 27.72L179.872 26.088ZM172.544 30.952C174.784 32.232 177.696 34.248 179.04 35.592L181.632 33.096C180.128 31.752 177.152 29.896 174.944 28.712L172.544 30.952ZM185.92 33.352C188 35.336 190.4 38.12 191.488 39.944L194.72 38.312C193.536 36.424 191.008 33.768 188.928 31.912L185.92 33.352ZM171.936 17.32V19.944H181.92V17.32H171.936ZM182.816 17.32V19.944H193.952V17.32H182.816ZM175.488 15.432V26.856H178.304V15.432H175.488ZM179.36 20.68V25.416H181.472V20.68H179.36ZM186.368 15.432V27.08H189.216V15.432H186.368ZM172.416 20.648V21.864C172.416 23.144 172.224 24.904 171.04 25.992C171.616 26.312 172.48 26.952 172.864 27.432C174.272 25.864 174.464 23.752 174.464 21.96V20.648H172.416ZM183.232 20.648V21.8C183.232 23.016 183.04 24.712 181.792 25.736C182.368 26.056 183.264 26.728 183.648 27.208C185.12 25.704 185.344 23.624 185.344 21.928V20.648H183.232ZM190.272 20.616V24.136C190.272 25.544 190.4 26.024 190.752 26.44C191.072 26.792 191.68 26.952 192.224 26.952C192.48 26.952 192.928 26.952 193.216 26.952C193.536 26.952 193.952 26.92 194.208 26.76C194.56 26.6 194.816 26.376 194.976 26.024C195.168 25.704 195.232 24.84 195.296 24.04C194.752 23.88 194.016 23.496 193.6 23.176C193.6 23.848 193.568 24.392 193.504 24.648C193.44 24.872 193.408 25 193.312 25.064C193.28 25.096 193.152 25.128 193.056 25.128C192.928 25.128 192.832 25.128 192.768 25.128C192.64 25.128 192.576 25.064 192.512 25C192.512 24.904 192.512 24.68 192.512 24.296V20.616H190.272ZM179.008 9.832V13.96H183.008V9.832H179.008ZM169.28 12.328V15.528H194.592V12.328H169.28ZM167.072 12.328V22.056C167.072 26.728 166.912 33.288 164.736 37.8C165.504 38.184 167.072 39.368 167.68 40.008C170.176 35.048 170.592 27.176 170.592 22.056V12.328H167.072ZM214.624 21.16V39.88H218.496V21.16H214.624ZM206.208 25.16V28.648H226.784V25.16H206.208ZM219.232 26.696L216.352 27.752C218.336 32.008 221.632 36.328 224.992 38.728C225.632 37.768 226.848 36.392 227.712 35.656C224.384 33.736 220.992 30.184 219.232 26.696ZM214.112 26.408C212.256 30.056 208.704 33.704 205.056 35.592C205.888 36.328 207.104 37.704 207.712 38.632C211.488 36.232 215.04 31.976 217.12 27.464L214.112 26.408ZM211.968 14.6H221.376V18.888H211.968V14.6ZM208.32 11.24V22.28H225.216V11.24H208.32ZM204.128 9.896C202.432 14.472 199.552 19.016 196.576 21.896C197.216 22.824 198.272 24.936 198.592 25.832C202.144 22.216 205.568 16.488 207.712 11.048L204.128 9.896ZM201.056 18.76V39.784H204.704V15.144L204.672 15.112L201.056 18.76ZM245.172 30.1719H241.438C241.448 29.224 241.526 28.4115 241.672 27.7344C241.828 27.0573 242.083 26.4479 242.438 25.9062C242.792 25.3542 243.271 24.7917 243.875 24.2188C244.354 23.7708 244.781 23.349 245.156 22.9531C245.542 22.5469 245.844 22.125 246.062 21.6875C246.281 21.2396 246.391 20.7344 246.391 20.1719C246.391 19.5365 246.286 19.0052 246.078 18.5781C245.88 18.151 245.583 17.8281 245.188 17.6094C244.802 17.3802 244.318 17.2656 243.734 17.2656C243.255 17.2656 242.802 17.3646 242.375 17.5625C241.948 17.7604 241.604 18.0677 241.344 18.4844C241.083 18.8906 240.943 19.4219 240.922 20.0781H236.781C236.812 18.7135 237.135 17.5781 237.75 16.6719C238.365 15.7552 239.193 15.0729 240.234 14.625C241.276 14.1667 242.443 13.9375 243.734 13.9375C245.161 13.9375 246.38 14.1771 247.391 14.6562C248.411 15.125 249.188 15.8125 249.719 16.7188C250.26 17.625 250.531 18.7188 250.531 20C250.531 20.9167 250.354 21.7396 250 22.4688C249.646 23.1875 249.177 23.8594 248.594 24.4844C248.01 25.1094 247.38 25.7396 246.703 26.375C246.109 26.9062 245.708 27.474 245.5 28.0781C245.292 28.6823 245.182 29.3802 245.172 30.1719ZM241.047 35.0312C241.047 34.4062 241.255 33.8854 241.672 33.4688C242.099 33.0521 242.672 32.8438 243.391 32.8438C244.109 32.8438 244.677 33.0521 245.094 33.4688C245.521 33.8854 245.734 34.4062 245.734 35.0312C245.734 35.6354 245.521 36.1458 245.094 36.5625C244.677 36.9792 244.109 37.1875 243.391 37.1875C242.672 37.1875 242.099 36.9792 241.672 36.5625C241.255 36.1458 241.047 35.6354 241.047 35.0312Z" fill="#00AC9A"/>
<rect x="69" y="50" width="185" height="2" fill="#00AC9A"/>
<rect x="69" y="50" width="42" height="2" fill="#FEC133"/>
<g clip-path="url(#clip0_75_1411)">
<g opacity="0.7">
<path opacity="0.26" d="M53.4292 54.0228C53.7779 54.2993 54.0617 54.6488 54.2607 55.0468C54.4597 55.4448 54.5689 55.8816 54.5809 56.3264C54.6356 56.7828 54.5915 57.2456 54.4514 57.6834C54.3114 58.1211 54.0786 58.5236 53.7691 58.8634C53.4922 59.2112 53.1424 59.494 52.7444 59.6921C52.3464 59.8903 51.9099 59.9988 51.4655 60.0101C51.0243 60.0574 50.578 60.0093 50.157 59.8693C49.736 59.7292 49.3499 59.5004 49.0249 59.1983L45.0317 55.7429C44.6258 55.337 44.0829 55.2913 43.403 55.6059C41.0923 56.8516 38.5083 57.5036 35.8833 57.5036H18.3374C14.1416 57.469 10.1281 55.7837 7.16542 52.8125C4.20272 49.8412 2.52906 45.8229 2.50653 41.6271V17.9822C2.50586 15.8998 2.91549 13.8376 3.7121 11.9135C4.50872 9.98947 5.67667 8.24122 7.14919 6.7687C8.62171 5.29618 10.37 4.12824 12.294 3.33163C14.2181 2.53501 16.2803 2.12533 18.3628 2.12599H35.9087C37.9966 2.10243 40.0678 2.49806 42.0001 3.28943C43.9323 4.0808 45.6862 5.25183 47.1577 6.73319C48.6528 8.19443 49.8329 9.94633 50.6253 11.881C51.4176 13.8156 51.8055 15.892 51.7649 17.9822V41.6271C51.7614 44.3536 51.0629 47.0342 49.7353 49.4157C49.5581 49.651 49.48 49.9463 49.5179 50.2385C49.5559 50.5306 49.7068 50.7962 49.9382 50.9784L53.4292 54.0228ZM35.8833 50.7044C36.5215 50.7096 37.1582 50.6415 37.781 50.5015C37.8835 50.4871 37.9785 50.4396 38.0518 50.3664C38.125 50.2932 38.1725 50.1981 38.1869 50.0956C38.2044 49.9952 38.1947 49.892 38.159 49.7966C38.1234 49.7012 38.0629 49.6169 37.9839 49.5526L32.9099 45.1484C32.5586 44.8744 32.2728 44.5253 32.0736 44.1268C31.8743 43.7283 31.7665 43.2903 31.7581 42.8448C31.7106 42.4044 31.7586 41.9589 31.8987 41.5386C32.0388 41.1183 32.2677 40.7332 32.57 40.4093C32.8447 40.0588 33.1939 39.7737 33.5923 39.5745C33.9907 39.3753 34.4283 39.267 34.8736 39.2575C35.3251 39.2066 35.7823 39.2527 36.2145 39.3927C36.6468 39.5327 37.0442 39.7634 37.3801 40.0693L43.205 45.1433C43.7936 45.6507 44.1742 45.5493 44.3568 44.8744C44.7619 43.838 44.9684 42.7347 44.9657 41.622V17.9772C44.9738 16.7829 44.7445 15.5988 44.2912 14.4938C43.8379 13.3889 43.1695 12.385 42.325 11.5404C41.4805 10.6959 40.4766 10.0276 39.3717 9.57428C38.2667 9.12096 37.0827 8.89169 35.8884 8.89978H18.3374C17.152 8.88091 15.9754 9.10532 14.8801 9.55913C13.7848 10.0129 12.7942 10.6865 11.9695 11.5383C11.0868 12.358 10.3883 13.356 9.92031 14.466C9.45233 15.576 9.22557 16.7729 9.25497 17.9772V41.622C9.24319 42.8231 9.47804 44.0138 9.94496 45.1204C10.4119 46.2271 11.1009 47.2262 11.9695 48.0558C12.7939 48.9082 13.7844 49.5826 14.8796 50.0373C15.9748 50.492 17.1516 50.7173 18.3374 50.6994L35.8833 50.7044Z" fill="#00AC9A"/>
</g>
<path d="M50.953 51.8968C51.3017 52.1733 51.5855 52.5228 51.7845 52.9208C51.9835 53.3188 52.0929 53.7556 52.1048 54.2004C52.1541 54.6522 52.1067 55.1094 51.9658 55.5415C51.825 55.9736 51.5939 56.3709 51.2879 56.707C51.0114 57.0556 50.6619 57.3395 50.2639 57.5385C49.8659 57.7375 49.4292 57.8468 48.9844 57.8587C48.5439 57.9062 48.0984 57.8583 47.6781 57.7182C47.2578 57.5781 46.8727 57.3492 46.5488 57.0469L42.5505 53.5915C42.1445 53.1856 41.6016 53.1399 40.9217 53.4545C38.611 54.7002 36.0271 55.3522 33.402 55.3522H15.8562C11.6604 55.3243 7.64417 53.6455 4.67672 50.679C1.70928 47.7125 0.0292502 43.6969 8.12546e-07 39.501V15.8562C-0.000665894 13.7738 0.408956 11.7116 1.20557 9.78751C2.00218 7.86344 3.17014 6.11519 4.64266 4.64267C6.11518 3.17015 7.86344 2.00221 9.78751 1.2056C11.7116 0.408982 13.7738 -0.000686614 15.8562 -1.99075e-05H33.402C35.4899 -0.0238671 37.5615 0.371611 39.4938 1.163C41.4261 1.95438 43.1798 3.12557 44.6512 4.60716C46.1463 6.0684 47.3264 7.8203 48.1187 9.75494C48.9111 11.6896 49.2989 13.766 49.2583 15.8562V39.501C49.2547 42.2275 48.5562 44.9081 47.2287 47.2896C47.0517 47.5241 46.9739 47.8186 47.0119 48.1099C47.0498 48.4012 47.2006 48.666 47.4317 48.8473L50.953 51.8968ZM33.402 48.5784C34.0403 48.5836 34.677 48.5155 35.2997 48.3754C35.4023 48.361 35.4974 48.3136 35.5706 48.2404C35.6438 48.1671 35.6912 48.0721 35.7056 47.9695C35.7242 47.8691 35.7151 47.7656 35.6794 47.67C35.6436 47.5743 35.5826 47.4902 35.5027 47.4266L30.4287 43.0224C30.0782 42.7476 29.7931 42.3984 29.5939 42.0001C29.3947 41.6017 29.2865 41.1641 29.2769 40.7188C29.2294 40.2783 29.2773 39.8328 29.4174 39.4126C29.5575 38.9923 29.7866 38.6072 30.0888 38.2833C30.3634 37.9325 30.7124 37.6472 31.1108 37.448C31.5092 37.2487 31.947 37.1406 32.3923 37.1315C32.8438 37.0806 33.301 37.1267 33.7333 37.2667C34.1655 37.4067 34.563 37.6374 34.899 37.9433L40.7239 43.0173C41.3125 43.5247 41.6981 43.4232 41.8757 42.7484C42.2808 41.712 42.4873 40.6087 42.4846 39.4959V15.8511C42.4933 14.6566 42.2645 13.4723 41.8114 12.367C41.3583 11.2617 40.69 10.2576 39.8454 9.4129C39.0007 8.56824 37.9965 7.89993 36.8913 7.44685C35.786 6.99378 34.6016 6.76498 33.4071 6.77375H15.8613C14.6759 6.75488 13.4992 6.97929 12.4039 7.4331C11.3087 7.88692 10.3181 8.5605 9.49343 9.41224C8.6124 10.2331 7.91538 11.2313 7.44834 12.3412C6.9813 13.4511 6.7548 14.6473 6.78387 15.8511V39.4959C6.77233 40.6965 7.00688 41.8868 7.47287 42.9933C7.93887 44.0998 8.62648 45.0991 9.49343 45.9298C10.3179 46.7822 11.3083 47.4566 12.4035 47.9112C13.4988 48.3659 14.6756 48.5912 15.8613 48.5733L33.402 48.5784Z" fill="#00AC9A"/>
</g>
<defs>
<clipPath id="clip0_75_1411">
<rect width="54.5962" height="60" fill="white"/>
</clipPath>
</defs>
</svg>
