<svg width="60" height="60" viewBox="0 0 60 60" fill="none" xmlns="http://www.w3.org/2000/svg">
<path d="M46.9689 9.67482C46.9303 8.95318 46.6216 8.27394 46.106 7.77653C45.5905 7.27912 44.9073 7.00126 44.1966 7.00001H14.7856C14.0727 6.99779 13.3861 7.27408 12.8677 7.77184C12.3493 8.2696 12.0387 8.95084 12 9.67482V9.67482V50.149C12.0012 50.9047 12.2969 51.6292 12.8224 52.1636C13.3479 52.698 14.0602 52.9988 14.8034 53H44.1966C44.9398 52.9988 45.6521 52.698 46.1776 52.1636C46.7031 51.6292 46.9988 50.9047 47 50.149V9.67482H46.9689ZM15.4254 30.192V27.2416H22.6315V30.192C22.6327 30.2825 22.6161 30.3724 22.5825 30.4562C22.549 30.5401 22.4993 30.6163 22.4364 30.6803C22.3734 30.7443 22.2985 30.7949 22.216 30.829C22.1336 30.8631 22.0452 30.88 21.9562 30.8788H16.114C15.9349 30.8788 15.7631 30.8064 15.6365 30.6776C15.5098 30.5488 15.4387 30.3741 15.4387 30.192H15.4254ZM23.058 49.4712C23.0573 49.6535 22.9873 49.8284 22.8625 49.9592C22.7347 50.0873 22.5622 50.1588 22.3827 50.158H16.5272C16.4382 50.1592 16.3498 50.1423 16.2673 50.1082C16.1849 50.0741 16.1099 50.0236 16.047 49.9596C15.984 49.8956 15.9344 49.8194 15.9008 49.7355C15.8673 49.6516 15.8507 49.5618 15.8519 49.4712V43.5162C15.8519 43.426 15.8693 43.3367 15.9033 43.2534C15.9372 43.1701 15.987 43.0944 16.0497 43.0306C16.1124 42.9669 16.1868 42.9162 16.2687 42.8817C16.3507 42.8472 16.4385 42.8295 16.5272 42.8295H22.3827C22.472 42.829 22.5605 42.8467 22.6429 42.8816C22.7253 42.9165 22.8 42.9679 22.8625 43.0328C22.9878 43.1614 23.0581 43.3352 23.058 43.5162V49.4712ZM23.058 40.0688C23.0557 40.2516 22.9841 40.4264 22.8581 40.5568C22.7302 40.6849 22.5577 40.7563 22.3783 40.7556H16.5272C16.4385 40.7556 16.3507 40.7378 16.2687 40.7033C16.1868 40.6688 16.1124 40.6182 16.0497 40.5544C15.987 40.4907 15.9372 40.415 15.9033 40.3317C15.8693 40.2484 15.8519 40.159 15.8519 40.0688V34.1093C15.8519 34.0191 15.8693 33.9298 15.9033 33.8465C15.9372 33.7632 15.987 33.6875 16.0497 33.6237C16.1124 33.5599 16.1868 33.5093 16.2687 33.4748C16.3507 33.4403 16.4385 33.4225 16.5272 33.4225H22.3827C22.5622 33.4218 22.7347 33.4933 22.8625 33.6214C22.9885 33.7517 23.0601 33.9265 23.0624 34.1093L23.058 40.0688ZM24.7152 30.1965V27.2462H31.9257V30.1965C31.9257 30.2867 31.9083 30.376 31.8743 30.4593C31.8404 30.5427 31.7907 30.6184 31.728 30.6822C31.6652 30.7459 31.5908 30.7965 31.5089 30.831C31.4269 30.8655 31.3391 30.8833 31.2504 30.8833H25.3949C25.2171 30.8824 25.0466 30.8111 24.9195 30.6845C24.7925 30.553 24.7208 30.3763 24.7196 30.192L24.7152 30.1965ZM25.0928 34.1093C25.0928 33.9272 25.1639 33.7525 25.2906 33.6237C25.4172 33.4949 25.589 33.4225 25.7681 33.4225H31.6236C31.8029 33.4228 31.9751 33.4941 32.1035 33.6214C32.2282 33.7522 32.2983 33.9271 32.2989 34.1093V40.0643C32.2983 40.2466 32.2282 40.4215 32.1035 40.5523C31.9751 40.6796 31.8029 40.7508 31.6236 40.7511H25.7548C25.5757 40.7511 25.4039 40.6787 25.2773 40.5499C25.1506 40.4211 25.0795 40.2465 25.0795 40.0643L25.0928 34.1093ZM32.33 49.4712C32.3277 49.654 32.2561 49.8288 32.1301 49.9592C32.0036 50.0866 31.8328 50.1581 31.6547 50.158H25.7814C25.6916 50.1598 25.6024 50.1434 25.5189 50.1097C25.4354 50.0759 25.3594 50.0257 25.2953 49.9617C25.2311 49.8978 25.1802 49.8215 25.1454 49.7373C25.1107 49.653 25.0928 49.5626 25.0928 49.4712V43.5162C25.0951 43.3348 25.167 43.1615 25.2931 43.0332C25.4193 42.9049 25.5897 42.8318 25.7681 42.8295H31.6281C31.7167 42.8293 31.8044 42.8472 31.886 42.8821C31.9677 42.917 32.0416 42.9683 32.1035 43.0328C32.2299 43.161 32.3018 43.3346 32.3034 43.5162L32.33 49.4712ZM43.1215 49.4712C43.1216 49.5627 43.104 49.6532 43.0697 49.7377C43.0354 49.8222 42.9851 49.899 42.9216 49.9637C42.8589 50.0284 42.7842 50.0797 42.7018 50.1146C42.6194 50.1495 42.531 50.1673 42.4417 50.1671H35.1601C34.9791 50.1645 34.8059 50.0917 34.6758 49.9637C34.5504 49.8315 34.4803 49.655 34.4803 49.4712V33.5355C34.4797 33.4445 34.4969 33.3544 34.5309 33.2703C34.5648 33.1861 34.6149 33.1096 34.6781 33.0453C34.7413 32.981 34.8165 32.9301 34.8992 32.8956C34.982 32.8611 35.0706 32.8436 35.1601 32.8442H42.4195C42.5996 32.8446 42.7722 32.9178 42.8993 33.0475C42.9629 33.1113 43.0133 33.1872 43.0477 33.271C43.082 33.3548 43.0995 33.4447 43.0993 33.5355L43.1215 49.4712ZM34.7869 30.1965V27.2462H41.9752V30.1965C41.9752 30.3787 41.9041 30.5534 41.7775 30.6822C41.6508 30.8109 41.479 30.8833 41.2999 30.8833H35.4488C35.2708 30.8833 35.1 30.8119 34.9735 30.6845C34.8464 30.553 34.7747 30.3763 34.7735 30.192L34.7869 30.1965ZM44.4632 25.0503H14.519V13.4701H44.4632V25.0503Z" fill="#3E3A39"/>
</svg>
