<?xml version="1.0" encoding="utf-8"?>
<!-- Generator: Adobe Illustrator 24.0.1, SVG Export Plug-In . SVG Version: 6.00 Build 0)  -->
<svg version="1.1" id="圖層_1" xmlns="http://www.w3.org/2000/svg" xmlns:xlink="http://www.w3.org/1999/xlink" x="0px" y="0px"
	 viewBox="0 0 14 8" style="enable-background:new 0 0 14 8;" xml:space="preserve">
<style type="text/css">
	.st0{fill-rule:evenodd;clip-rule:evenodd;fill:#FFFFFF;}
</style>
<path class="st0" d="M13.7,0.3c-0.4-0.4-1.1-0.4-1.6,0L7,5.4l-5.1-5c0,0,0,0,0,0c-0.4-0.4-1.1-0.4-1.6,0c0,0,0,0,0,0
	c-0.4,0.4-0.4,1.1,0,1.5l5.9,5.8C6.4,7.9,6.7,8,7,8c0.3,0,0.6-0.1,0.8-0.3l5.9-5.8c0,0,0,0,0,0C14.1,1.4,14.1,0.7,13.7,0.3z"/>
</svg>
