<svg width="60" height="60" viewBox="0 0 60 60" fill="none" xmlns="http://www.w3.org/2000/svg">
<path d="M45.6555 23.0377L56.6351 17.4914C56.7674 17.4268 56.8739 17.3196 56.9371 17.1871C57.0002 17.0546 57.0164 16.9046 56.983 16.7618C56.9496 16.6189 56.8685 16.4916 56.753 16.4005C56.6375 16.3094 56.4944 16.26 56.347 16.2603L3.65162 16C3.53023 16 3.41124 16.0337 3.30809 16.0974C3.20494 16.1611 3.12172 16.2522 3.0678 16.3605C3.01389 16.4688 2.99142 16.5899 3.00294 16.7102C3.01446 16.8305 3.0595 16.9451 3.13299 17.0413L22.8362 42.7434C22.8937 42.8189 22.9671 42.8809 23.0513 42.9251C23.1355 42.9693 23.2284 42.9946 23.3234 42.9992C23.4185 43.0039 23.5134 42.9877 23.6016 42.9519C23.6897 42.9161 23.7689 42.8614 23.8335 42.7919L29.5605 36.6764C29.6426 36.5877 29.7479 36.5238 29.8647 36.4918C29.9815 36.4598 30.1049 36.4611 30.221 36.4954L44.6138 40.6784C44.754 40.7371 44.905 40.7656 45.057 40.7622C45.2173 40.762 45.3756 40.7271 45.521 40.6601C45.6663 40.5931 45.7954 40.4954 45.8993 40.3739C46.0195 40.2338 46.1022 40.0656 46.1394 39.885C46.1766 39.7044 46.1672 39.5174 46.112 39.3415L45.323 23.6466C45.3138 23.5241 45.3403 23.4015 45.3992 23.2935C45.4582 23.1855 45.5472 23.0967 45.6555 23.0377V23.0377ZM19.4008 21.5772C19.2412 21.5308 19.1054 21.4254 19.0213 21.2825C18.9372 21.1396 18.9112 20.9701 18.9486 20.8088C18.986 20.6474 19.084 20.5064 19.2225 20.4147C19.3609 20.3229 19.5294 20.2874 19.6934 20.3153L39.5162 23.126L42.5748 23.6687C42.7203 23.6946 42.8527 23.769 42.9501 23.8796C43.0476 23.9903 43.1044 24.1306 43.1111 24.2776L43.6031 34.0466C43.6128 34.1855 43.5773 34.3237 43.502 34.441C43.4266 34.5582 43.3154 34.6482 43.1847 34.6977C43.054 34.7472 42.9108 34.7535 42.7762 34.7157C42.6416 34.6779 42.5228 34.598 42.4374 34.4878L37.1182 27.609C36.9638 27.4131 36.7488 27.2735 36.5065 27.2119L36.471 27.1722L19.4008 21.5772ZM32.5569 33.901L35.6598 30.552C35.7238 30.482 35.8025 30.4267 35.8903 30.3902C35.978 30.3536 36.0727 30.3366 36.1678 30.3404C36.2628 30.3442 36.3559 30.3687 36.4404 30.4121C36.525 30.4555 36.599 30.5168 36.6572 30.5917L40.8904 36.0719C40.9749 36.1804 41.0226 36.3128 41.0267 36.45C41.0308 36.5872 40.9911 36.7222 40.9133 36.8355C40.8354 36.9488 40.7234 37.0346 40.5934 37.0805C40.4635 37.1265 40.3222 37.1302 40.19 37.0912L32.8451 34.9644C32.7391 34.9325 32.643 34.8743 32.5658 34.7952C32.4887 34.7161 32.4331 34.6188 32.4043 34.5124C32.3755 34.4059 32.3743 34.2939 32.4011 34.187C32.4278 34.08 32.4814 33.9816 32.5569 33.901Z" fill="#3E3A39"/>
</svg>
