<svg width="60" height="60" viewBox="0 0 60 60" fill="none" xmlns="http://www.w3.org/2000/svg">
<path fill-rule="evenodd" clip-rule="evenodd" d="M54.3151 10.2246C54.6727 10.373 54.9975 10.5906 55.2709 10.8648C55.8222 11.4173 56.1318 12.166 56.1318 12.9465C56.1318 13.727 55.8222 14.4756 55.2709 15.0282L54.7972 15.5429L54.2415 16.0986L53.9955 16.3446L53.9454 16.3947L46.762 23.5553C46.909 23.5667 47.0464 23.633 47.1468 23.741C47.2472 23.849 47.3034 23.9908 47.3041 24.1383V45.9435C47.3024 46.2127 47.1962 46.4707 47.008 46.6632L43.9151 49.7698L40.9406 52.726C40.6375 53.0217 40.2298 53.1854 39.8064 53.1815H12.0204C11.886 53.1828 11.7528 53.1572 11.6285 53.1064C11.5041 53.0555 11.3912 52.9804 11.2962 52.8854C11.2012 52.7904 11.1261 52.6775 11.0752 52.5531C11.0244 52.4288 10.9988 52.2955 11 52.1612V7.02033C10.9994 6.88676 11.0253 6.75436 11.0761 6.63083C11.1269 6.5073 11.2017 6.39506 11.2961 6.3006C11.4887 6.10918 11.7488 6.00123 12.0204 6H46.2746C46.5452 6 46.8048 6.10747 46.9961 6.29882C47.1875 6.49017 47.295 6.74972 47.295 7.02033V13.2562C47.2953 13.3721 47.33 13.4854 47.3946 13.5817C47.4592 13.6779 47.5508 13.7529 47.658 13.7972C47.7651 13.8416 47.8829 13.8532 47.9967 13.8307C48.1104 13.8082 48.2149 13.7525 48.2971 13.6707L48.9348 13.0285L49.4814 12.4864L49.6499 12.3179L49.8094 12.1584L50.6202 11.3431L51.103 10.8648C51.3764 10.5906 51.7012 10.373 52.0588 10.2246C52.4164 10.0761 52.7998 9.99971 53.187 9.99971C53.5741 9.99971 53.9575 10.0761 54.3151 10.2246ZM44.1666 43.7171C44.2768 43.6069 44.3387 43.4574 44.3387 43.3015L44.3797 25.9604L28.1089 42.1764L25.0798 43.6614L22.6929 44.8321L21.0258 45.652C20.9517 45.6889 20.8679 45.7017 20.7861 45.6886C20.7044 45.6754 20.6288 45.637 20.57 45.5787C20.5112 45.5204 20.4722 45.4452 20.4583 45.3636C20.4445 45.2819 20.4565 45.198 20.4928 45.1236L21.208 43.6614L21.3128 43.4519L22.7704 40.4911L23.9729 38.0359C23.9991 37.9852 24.0358 37.9407 24.0806 37.9054C24.1254 37.87 24.1772 37.8447 24.2326 37.8309C24.2619 37.7478 24.3085 37.6717 24.3692 37.6077L24.6197 37.3572L27.6808 34.2962L31.548 30.4289L34.6091 27.3679L39.0184 22.9631L41.9792 20.0023L44.2157 17.6792C44.3205 17.5702 44.3792 17.425 44.3797 17.2738V9.56205C44.3797 9.40621 44.3178 9.25678 44.2076 9.14658C44.0974 9.03638 43.9479 8.97443 43.7921 8.97443H14.4983C14.4214 8.97443 14.3452 8.98966 14.2742 9.01924C14.2031 9.04883 14.1387 9.09218 14.0845 9.1468C14.0303 9.20143 13.9874 9.26626 13.9584 9.33752C13.9293 9.40879 13.9147 9.4851 13.9153 9.56205V49.6194C13.9153 49.7741 13.9767 49.9224 14.0861 50.0317C14.1954 50.1411 14.3437 50.2025 14.4983 50.2025H37.1371C37.2918 50.2025 37.4401 50.1411 37.5494 50.0317C37.6587 49.9224 37.7202 49.7741 37.7202 49.6194V44.9095C37.7214 44.6393 37.8293 44.3805 38.0203 44.1894C38.2114 43.9983 38.4703 43.8904 38.7405 43.8892H43.7511C43.9069 43.8892 44.0564 43.8273 44.1666 43.7171ZM16.5982 12.7688H41.3642V15.7296H16.5982V12.7688ZM16.5026 19.4694H39.155L36.1897 22.4302H16.5026V19.4694ZM31.7849 26.8395H16.5982V29.9005H28.7239L31.7849 26.8395Z" fill="#3E3A39"/>
</svg>
