<svg width="60" height="60" viewBox="0 0 60 60" fill="none" xmlns="http://www.w3.org/2000/svg">
<path d="M55.9825 53.2224C55.6167 51.0064 52.3977 31.5371 51.6446 29.7142L51.4897 29.334C50.7839 27.6061 49.9834 25.6363 48.1114 24.8544C47.2206 24.4829 45.1721 23.7615 43.4034 23.1265C43.8082 22.4053 43.916 21.5538 43.7037 20.7539C43.4914 19.9539 42.9759 19.2691 42.2672 18.8456L18.1418 4.44347C17.4213 4.01498 16.5609 3.89077 15.7494 4.09807C14.9378 4.30538 14.2412 4.82725 13.8124 5.5493L5.4421 19.675C5.01501 20.3989 4.89115 21.2631 5.09765 22.0785C5.30415 22.8938 5.82417 23.5938 6.5438 24.025L28.3239 37.0233C27.9235 37.514 27.6935 38.1223 27.6686 38.7561C27.6438 39.3899 27.8255 40.0145 28.1862 40.5353C28.7112 41.3258 32.2616 45.6714 33.544 46.2071C34.4485 46.4574 35.3869 46.5624 36.3241 46.5181C36.7544 46.5181 37.1332 46.5181 37.4602 46.5181C37.8303 48.6089 38.3511 50.367 39.6722 52.1122C40.5757 53.2664 41.703 54.2245 42.9859 54.9287C43.1783 55.0147 43.3963 55.0232 43.5948 54.9526C43.7932 54.8819 43.9572 54.7375 44.0527 54.5491C44.1482 54.3607 44.168 54.1427 44.108 53.94C44.0481 53.7374 43.9129 53.5655 43.7304 53.46C42.6671 52.8718 41.7321 52.0758 40.9805 51.1187C39.8444 49.6154 39.4054 48.0948 39.0654 46.1725C39.0342 45.9866 39.0127 45.7992 39.0009 45.611V45.611C38.9736 44.94 38.9822 44.268 39.0267 43.598C39.0913 42.1033 39.1601 40.5741 38.5964 39.3991C38.3295 38.8462 37.4301 37.1701 36.3069 35.0794C36.3575 34.9045 36.3491 34.7177 36.2829 34.5481C36.2168 34.3786 36.0966 34.2358 35.9411 34.142C35.8819 34.1092 35.82 34.0817 35.756 34.0599L35.5882 33.7532C34.9212 32.5263 34.2154 31.2261 33.544 29.9734C32.3175 27.7055 30.6564 24.5952 30.3293 23.8047C30.1718 23.4982 30.0825 23.1609 30.0676 22.8163C30.0527 22.4718 30.1127 22.128 30.2432 21.809C30.5585 21.2799 31.0467 20.8769 31.6247 20.6685C32.5585 20.2841 33.5526 20.7463 34.5812 22.0509L44.4793 34.5783L45.7703 33.5545C45.7703 33.5545 43.3517 30.5047 40.8987 27.3988L42.547 24.6168C44.3631 25.2432 46.5751 26.0251 47.4788 26.3966C48.7182 26.9149 49.325 28.4053 49.9662 29.9777L50.1255 30.3665C50.6376 31.6106 52.9356 44.8896 54.3558 53.5118C54.3882 53.7041 54.487 53.8788 54.635 54.0052C54.783 54.1317 54.9706 54.2017 55.1649 54.203C55.2107 54.2073 55.2568 54.2073 55.3026 54.203C55.4128 54.1865 55.5186 54.1476 55.6133 54.0887C55.708 54.0297 55.7898 53.9519 55.8534 53.8601C55.9171 53.7682 55.9614 53.6643 55.9836 53.5546C56.0058 53.445 56.0054 53.332 55.9825 53.2224ZM12.289 13.7007L13.6403 11.4156C13.7503 11.2293 13.8958 11.0666 14.0685 10.9368C14.2412 10.807 14.4378 10.7127 14.6469 10.6594C14.8559 10.606 15.0735 10.5946 15.287 10.6258C15.5005 10.657 15.7057 10.7301 15.891 10.841L18.9035 12.6424C19.2765 12.866 19.5458 13.2291 19.6523 13.6519C19.7588 14.0747 19.6938 14.5226 19.4715 14.8973L18.1202 17.1825C17.9741 17.4287 17.7668 17.6326 17.5186 17.7742C17.2705 17.9158 16.9899 17.9903 16.7044 17.9903C16.4104 17.9881 16.1223 17.9075 15.8695 17.757L12.857 15.96C12.4847 15.735 12.2157 15.3718 12.1082 14.9491C12.0552 14.7385 12.0454 14.5192 12.0794 14.3046C12.1134 14.0899 12.1906 13.8845 12.3062 13.7007H12.289ZM21.8385 26.7638C21.7831 26.8568 21.71 26.938 21.6234 27.0027C21.5368 27.0674 21.4383 27.1143 21.3336 27.1408C21.2289 27.1673 21.12 27.1728 21.0132 27.157C20.9063 27.1412 20.8036 27.1045 20.711 27.0489L10.8602 21.1696C10.6837 21.0529 10.5589 20.8723 10.5115 20.6655C10.4642 20.4587 10.4981 20.2416 10.6061 20.0592C10.7141 19.8768 10.888 19.7432 11.0916 19.6861C11.2952 19.629 11.5129 19.6529 11.6994 19.7527L21.5501 25.632C21.7401 25.7415 21.879 25.9222 21.9363 26.1344C21.9936 26.3466 21.9646 26.573 21.8557 26.7638H21.8385ZM26.7144 29.6753C26.6594 29.7682 26.5867 29.8493 26.5005 29.9139C26.4142 29.9786 26.3161 30.0255 26.2117 30.052C26.1074 30.0785 25.9988 30.084 25.8923 30.0683C25.7858 30.0526 25.6835 30.0159 25.5911 29.9604L22.725 28.2325C22.5384 28.1208 22.4036 27.9393 22.3504 27.7278C22.2971 27.5164 22.3297 27.2923 22.441 27.105C22.5523 26.9177 22.7331 26.7825 22.9437 26.729C23.1544 26.6755 23.3776 26.7082 23.5642 26.82L26.4303 28.5479C26.6184 28.658 26.7556 28.8382 26.812 29.0493C26.8684 29.2605 26.8395 29.4855 26.7316 29.6753H26.7144ZM34.1551 44.7081C33.4278 44.3755 30.2088 40.6562 29.5289 39.641C29.344 39.3781 29.2632 39.0556 29.3022 38.7363C29.3412 38.4169 29.4971 38.1235 29.7397 37.9131L30.6521 38.4574C30.9967 38.6646 31.3782 38.8025 31.7753 38.8634L32.0851 39.2954C32.4122 39.7706 32.7221 40.2156 32.8813 40.5007C33.5053 41.6454 36.4059 42.4014 37.4 42.613C37.4 42.9068 37.4 43.2049 37.3698 43.5029C37.3483 43.9608 37.3311 44.4187 37.3268 44.8723C36.0056 44.9198 34.5855 44.8766 34.1723 44.7211L34.1551 44.7081ZM37.3354 40.9283C36.3585 40.6821 34.6027 40.0644 34.323 39.7058C34.1551 39.4035 33.8926 39.0233 33.6 38.5956C34.1777 38.3287 34.661 37.8918 34.9857 37.3429L35.3386 36.7511C36.2208 38.384 36.8965 39.6497 37.1116 40.0946C37.2342 40.3584 37.3155 40.6396 37.3526 40.9283H37.3354Z" fill="#3E3A39"/>
</svg>
