<svg width="88" height="62" viewBox="0 0 88 62" fill="none" xmlns="http://www.w3.org/2000/svg">
<g clip-path="url(#clip0_216_2025)">
<path d="M63.574 52.5568C63.574 52.5568 38.4525 47.5943 39.1625 7.4827C39.1685 7.20832 39.2821 6.94684 39.4796 6.75295C39.677 6.55906 39.9431 6.44776 40.222 6.44233C43.7197 6.38208 55.2885 5.75112 62.9271 0.209019C63.1142 0.0709653 63.3419 -0.00366211 63.5758 -0.00366211C63.8097 -0.00366211 64.0374 0.0709653 64.2245 0.209019C71.8577 5.80784 83.4283 6.43702 86.9295 6.49551C87.2091 6.50049 87.4759 6.61184 87.6738 6.80616C87.8717 7.00047 87.9854 7.26265 87.9909 7.53764C88.6973 48.0657 63.574 52.5568 63.574 52.5568Z" fill="#FFCE26"/>
<path d="M87.9856 7.54137C87.9801 7.26638 87.8664 7.0042 87.6685 6.80989C87.4706 6.61557 87.2039 6.50422 86.9243 6.49924C85.0511 6.46222 83.1812 6.3303 81.3219 6.104C80.6371 12.8176 78.4766 22.3581 72.1318 32.5296C66.8808 40.9411 58.9611 44.4397 51.7874 45.7264C57.7483 51.3979 63.5741 52.5517 63.5741 52.5517C63.5741 52.5517 88.6974 48.0659 87.9856 7.54137Z" fill="#FEB100"/>
<path d="M76.4583 21.8918H50.6899V30.6667H76.4583V21.8918Z" fill="white"/>
<path d="M68.0339 38.9507V13.6062H59.1123V38.9507H68.0339Z" fill="white"/>
<path fill-rule="evenodd" clip-rule="evenodd" d="M11.5707 19.4265L8.46044 24.2597L5.64393 34.9363L1.9895 42.295L2.00212 49.2851L14.1115 50.0224L15.6522 41.8236L21.4059 36.5721L32.9837 39.0126L33.4107 49.4641L44.7038 49.8576L46.3382 45.3771L45.1579 39.0126L44.5344 30.3424L43.5019 22.3083L39.5015 19.4265H11.5707Z" fill="#F7B52C"/>
<path d="M47.2913 35.3547L43.5072 22.3085C43.1703 21.1483 42.4583 20.1277 41.479 19.4011C40.4997 18.6746 39.3063 18.2816 38.0796 18.2817H12.7238C11.4973 18.2822 10.3042 18.6754 9.32495 19.4018C8.34573 20.1283 7.63361 21.1486 7.29624 22.3085L3.51207 35.3547C2.47473 35.7706 1.58676 36.4809 0.961293 37.395C0.33583 38.3091 0.00118692 39.3856 0 40.4874L0 53.6736C-3.03102e-07 53.7648 0.0182836 53.855 0.0538046 53.9392C0.0893255 54.0234 0.141385 54.0999 0.207002 54.1643C0.272619 54.2286 0.350504 54.2796 0.436195 54.3143C0.521887 54.3491 0.613701 54.3668 0.706379 54.3666H1.41096V59.2246C1.41096 59.9607 1.70826 60.6666 2.23747 61.1871C2.49951 61.4449 2.8106 61.6493 3.15297 61.7888C3.49534 61.9283 3.86229 62.0001 4.23287 62.0001H7.05478C7.80319 62.0001 8.52096 61.7076 9.05017 61.1871C9.57938 60.6666 9.87669 59.9607 9.87669 59.2246V55.0614C9.87669 54.8771 9.95111 54.7004 10.0836 54.5701C10.2161 54.4398 10.3957 54.3666 10.5831 54.3666H40.2149C40.3078 54.3664 40.3997 54.3842 40.4855 54.419C40.5713 54.4538 40.6493 54.505 40.7149 54.5696C40.7806 54.6341 40.8326 54.7108 40.868 54.7952C40.9034 54.8796 40.9215 54.9701 40.9213 55.0614V59.2246C40.9213 59.9607 41.2186 60.6666 41.7478 61.1871C42.277 61.7076 42.9948 62.0001 43.7432 62.0001H46.5651C47.3135 62.0001 48.0313 61.7076 48.5605 61.1871C49.0897 60.6666 49.387 59.9607 49.387 59.2246V54.3666H50.0952C50.2821 54.3666 50.4613 54.2936 50.5934 54.1636C50.7256 54.0337 50.7998 53.8574 50.7998 53.6736V40.4874C50.7989 39.386 50.4648 38.3098 49.84 37.3957C49.2152 36.4817 48.328 35.7712 47.2913 35.3547V35.3547ZM9.42078 23.317C9.57516 22.5522 9.99458 21.8638 10.6075 21.3693C11.2204 20.8747 11.9887 20.6047 12.7815 20.6053H38.0219C38.815 20.6043 39.5838 20.8741 40.197 21.3687C40.8103 21.8633 41.23 22.5519 41.3844 23.317L43.5468 33.928C43.5719 34.0502 43.5691 34.1765 43.5385 34.2975C43.5079 34.4186 43.4503 34.5315 43.37 34.628C43.2896 34.7245 43.1885 34.8022 43.0738 34.8556C42.9592 34.9089 42.8339 34.9365 42.7071 34.9364H8.10894C7.98206 34.9365 7.85675 34.9088 7.74205 34.8555C7.62734 34.8022 7.52609 34.7245 7.4456 34.628C7.36511 34.5315 7.30737 34.4187 7.27656 34.2977C7.24575 34.1766 7.24262 34.0503 7.26741 33.928L9.42078 23.317ZM9.87669 48.8156C9.03907 48.8156 8.22027 48.5713 7.52384 48.1136C6.82742 47.6558 6.28465 47.0052 5.96419 46.2441C5.64373 45.4829 5.55998 44.6454 5.72352 43.8374C5.88706 43.0294 6.29055 42.2873 6.88296 41.7049C7.47537 41.1225 8.23009 40.7259 9.05165 40.5654C9.87321 40.4049 10.7247 40.4877 11.4985 40.8032C12.2722 41.1187 12.9335 41.6528 13.3986 42.338C13.8637 43.0231 14.1117 43.8286 14.1114 44.6524C14.1114 45.1993 14.0018 45.7408 13.789 46.246C13.5761 46.7512 13.2642 47.2103 12.8709 47.5969C12.4777 47.9835 12.0109 48.2901 11.4971 48.4992C10.9833 48.7083 10.4327 48.8159 9.87669 48.8156V48.8156ZM30.7941 46.7331H20.4147C18.9731 46.7331 17.8198 46.267 17.8198 45.6928C17.8198 45.1185 18.9821 44.6524 20.4147 44.6524H30.7941C32.2357 44.6524 33.389 45.1167 33.389 45.6928C33.389 46.2688 32.2285 46.7331 30.7941 46.7331ZM40.9213 48.8156C40.0836 48.816 39.2646 48.572 38.568 48.1144C37.8713 47.6569 37.3283 47.0064 37.0075 46.2453C36.6868 45.4842 36.6028 44.6466 36.7661 43.8385C36.9295 43.0304 37.3328 42.2881 37.9251 41.7055C38.5175 41.1229 39.2722 40.7262 40.0938 40.5656C40.9154 40.4049 41.767 40.4875 42.5409 40.803C43.3147 41.1185 43.9761 41.6526 44.4413 42.3378C44.9064 43.023 45.1545 43.8285 45.1542 44.6524C45.1542 45.7566 44.7082 46.8155 43.9144 47.5962C43.1206 48.377 42.0439 48.8156 40.9213 48.8156V48.8156Z" fill="white"/>
<path d="M26.7774 22.9041H24.0204C23.6548 22.9041 23.3041 23.0469 23.0456 23.3012C22.7871 23.5554 22.6418 23.9003 22.6418 24.2599C22.6418 24.6195 22.7871 24.9643 23.0456 25.2186C23.3041 25.4729 23.6548 25.6157 24.0204 25.6157H26.7774C27.143 25.6157 27.4937 25.4729 27.7522 25.2186C28.0107 24.9643 28.1559 24.6195 28.1559 24.2599C28.1559 23.9003 28.0107 23.5554 27.7522 23.3012C27.4937 23.0469 27.143 22.9041 26.7774 22.9041V22.9041Z" fill="white"/>
</g>
<defs>
<clipPath id="clip0_216_2025">
<rect width="88" height="62" fill="white"/>
</clipPath>
</defs>
</svg>
