<svg width="55" height="60" viewBox="0 0 55 60" fill="none" xmlns="http://www.w3.org/2000/svg">
<g clip-path="url(#clip0_75_1404)">
<g opacity="0.7">
<path opacity="0.26" d="M53.4292 54.0228C53.7779 54.2993 54.0617 54.6488 54.2607 55.0468C54.4597 55.4448 54.5689 55.8816 54.5809 56.3264C54.6356 56.7828 54.5915 57.2456 54.4514 57.6834C54.3114 58.1211 54.0786 58.5236 53.7691 58.8634C53.4922 59.2112 53.1424 59.494 52.7444 59.6921C52.3464 59.8903 51.9099 59.9988 51.4655 60.0101C51.0243 60.0574 50.578 60.0093 50.157 59.8693C49.736 59.7292 49.3499 59.5004 49.0249 59.1983L45.0317 55.7429C44.6258 55.337 44.0829 55.2913 43.403 55.6059C41.0923 56.8516 38.5083 57.5036 35.8833 57.5036H18.3374C14.1416 57.469 10.1281 55.7837 7.16542 52.8125C4.20272 49.8412 2.52906 45.8229 2.50653 41.6271V17.9822C2.50586 15.8998 2.91549 13.8376 3.7121 11.9135C4.50872 9.98947 5.67667 8.24122 7.14919 6.7687C8.62171 5.29618 10.37 4.12824 12.294 3.33163C14.2181 2.53501 16.2803 2.12533 18.3628 2.12599H35.9087C37.9966 2.10243 40.0678 2.49806 42.0001 3.28943C43.9323 4.0808 45.6862 5.25183 47.1577 6.73319C48.6528 8.19443 49.8329 9.94633 50.6253 11.881C51.4176 13.8156 51.8055 15.892 51.7649 17.9822V41.6271C51.7614 44.3536 51.0629 47.0342 49.7353 49.4157C49.5581 49.651 49.48 49.9463 49.5179 50.2385C49.5559 50.5306 49.7068 50.7962 49.9382 50.9784L53.4292 54.0228ZM35.8833 50.7044C36.5215 50.7096 37.1582 50.6415 37.781 50.5015C37.8835 50.4871 37.9785 50.4396 38.0518 50.3664C38.125 50.2932 38.1725 50.1981 38.1869 50.0956C38.2044 49.9952 38.1947 49.892 38.159 49.7966C38.1234 49.7012 38.0629 49.6169 37.9839 49.5526L32.9099 45.1484C32.5586 44.8744 32.2728 44.5253 32.0736 44.1268C31.8743 43.7283 31.7665 43.2903 31.7581 42.8448C31.7106 42.4044 31.7586 41.9589 31.8987 41.5386C32.0388 41.1183 32.2677 40.7332 32.57 40.4093C32.8447 40.0588 33.1939 39.7737 33.5923 39.5745C33.9907 39.3753 34.4283 39.267 34.8736 39.2575C35.3251 39.2066 35.7823 39.2527 36.2145 39.3927C36.6468 39.5327 37.0442 39.7634 37.3801 40.0693L43.205 45.1433C43.7936 45.6507 44.1742 45.5493 44.3568 44.8744C44.7619 43.838 44.9684 42.7347 44.9657 41.622V17.9772C44.9738 16.7829 44.7445 15.5988 44.2912 14.4938C43.8379 13.3889 43.1695 12.385 42.325 11.5404C41.4805 10.6959 40.4766 10.0276 39.3717 9.57428C38.2667 9.12096 37.0827 8.89169 35.8884 8.89978H18.3374C17.152 8.88091 15.9754 9.10532 14.8801 9.55913C13.7848 10.0129 12.7942 10.6865 11.9695 11.5383C11.0868 12.358 10.3883 13.356 9.92031 14.466C9.45233 15.576 9.22557 16.7729 9.25497 17.9772V41.622C9.24319 42.8231 9.47804 44.0138 9.94496 45.1204C10.4119 46.2271 11.1009 47.2262 11.9695 48.0558C12.7939 48.9082 13.7844 49.5826 14.8796 50.0373C15.9748 50.492 17.1516 50.7173 18.3374 50.6994L35.8833 50.7044Z" fill="#00AC9A"/>
</g>
<path d="M50.953 51.8968C51.3017 52.1733 51.5855 52.5228 51.7845 52.9208C51.9835 53.3188 52.0929 53.7556 52.1048 54.2004C52.1541 54.6522 52.1067 55.1094 51.9658 55.5415C51.825 55.9736 51.5939 56.3709 51.2879 56.707C51.0114 57.0556 50.6619 57.3395 50.2639 57.5385C49.8659 57.7375 49.4292 57.8468 48.9844 57.8587C48.5439 57.9062 48.0984 57.8583 47.6781 57.7182C47.2578 57.5781 46.8727 57.3492 46.5488 57.0469L42.5505 53.5915C42.1445 53.1856 41.6016 53.1399 40.9217 53.4545C38.611 54.7002 36.0271 55.3522 33.402 55.3522H15.8562C11.6604 55.3243 7.64417 53.6455 4.67672 50.679C1.70928 47.7125 0.0292502 43.6969 8.12546e-07 39.501V15.8562C-0.000665894 13.7738 0.408956 11.7116 1.20557 9.78751C2.00218 7.86344 3.17014 6.11519 4.64266 4.64267C6.11518 3.17015 7.86344 2.00221 9.78751 1.2056C11.7116 0.408982 13.7738 -0.000686614 15.8562 -1.99075e-05H33.402C35.4899 -0.0238671 37.5615 0.371611 39.4938 1.163C41.4261 1.95438 43.1798 3.12557 44.6512 4.60716C46.1463 6.0684 47.3264 7.8203 48.1187 9.75494C48.9111 11.6896 49.2989 13.766 49.2583 15.8562V39.501C49.2547 42.2275 48.5562 44.9081 47.2287 47.2896C47.0517 47.5241 46.9739 47.8186 47.0119 48.1099C47.0498 48.4012 47.2006 48.666 47.4317 48.8473L50.953 51.8968ZM33.402 48.5784C34.0403 48.5836 34.677 48.5155 35.2997 48.3754C35.4023 48.361 35.4974 48.3136 35.5706 48.2404C35.6438 48.1671 35.6912 48.0721 35.7056 47.9695C35.7242 47.8691 35.7151 47.7656 35.6794 47.67C35.6436 47.5743 35.5826 47.4902 35.5027 47.4266L30.4287 43.0224C30.0782 42.7476 29.7931 42.3984 29.5939 42.0001C29.3947 41.6017 29.2865 41.1641 29.2769 40.7188C29.2294 40.2783 29.2773 39.8328 29.4174 39.4126C29.5575 38.9923 29.7866 38.6072 30.0888 38.2833C30.3634 37.9325 30.7124 37.6472 31.1108 37.448C31.5092 37.2487 31.947 37.1406 32.3923 37.1315C32.8438 37.0806 33.301 37.1267 33.7333 37.2667C34.1655 37.4067 34.563 37.6374 34.899 37.9433L40.7239 43.0173C41.3125 43.5247 41.6981 43.4232 41.8757 42.7484C42.2808 41.712 42.4873 40.6087 42.4846 39.4959V15.8511C42.4933 14.6566 42.2645 13.4723 41.8114 12.367C41.3583 11.2617 40.69 10.2576 39.8454 9.4129C39.0007 8.56824 37.9965 7.89993 36.8913 7.44685C35.786 6.99378 34.6016 6.76498 33.4071 6.77375H15.8613C14.6759 6.75488 13.4992 6.97929 12.4039 7.4331C11.3087 7.88692 10.3181 8.5605 9.49343 9.41224C8.6124 10.2331 7.91538 11.2313 7.44834 12.3412C6.9813 13.4511 6.7548 14.6473 6.78387 15.8511V39.4959C6.77233 40.6965 7.00688 41.8868 7.47287 42.9933C7.93887 44.0998 8.62648 45.0991 9.49343 45.9298C10.3179 46.7822 11.3083 47.4566 12.4035 47.9112C13.4988 48.3659 14.6756 48.5912 15.8613 48.5733L33.402 48.5784Z" fill="#00AC9A"/>
</g>
<defs>
<clipPath id="clip0_75_1404">
<rect width="54.5962" height="60" fill="white"/>
</clipPath>
</defs>
</svg>
