<svg width="20" height="20" viewBox="0 0 20 20" fill="none" xmlns="http://www.w3.org/2000/svg">
<path d="M8.29402 16.998C7.85902 16.998 7.44702 16.795 7.18302 16.445L3.61001 11.724C3.49955 11.5782 3.4189 11.4121 3.37268 11.2351C3.32646 11.0581 3.31558 10.8737 3.34066 10.6925C3.36573 10.5113 3.42627 10.3369 3.51882 10.1791C3.61137 10.0213 3.7341 9.88331 3.88001 9.77299C4.02587 9.66222 4.19216 9.58131 4.36934 9.53492C4.54653 9.48853 4.73112 9.47756 4.91255 9.50264C5.09398 9.52773 5.26868 9.58837 5.42663 9.68109C5.58458 9.77381 5.72268 9.8968 5.83302 10.043L8.18402 13.147L14.095 3.65499C14.2911 3.34159 14.6034 3.11874 14.9635 3.03532C15.3236 2.95189 15.7021 3.01471 16.016 3.20999C16.669 3.61599 16.87 4.47599 16.462 5.12999L9.47802 16.34C9.35879 16.5322 9.19446 16.6924 8.99929 16.8068C8.80411 16.9211 8.58399 16.986 8.35802 16.996C8.33602 16.998 8.31602 16.998 8.29402 16.998V16.998Z" fill="#00AC9A"/>
</svg>
