<svg width="536" height="280" viewBox="0 0 536 280" fill="none" xmlns="http://www.w3.org/2000/svg">
<circle cx="40" cy="70" r="40" fill="#5394DC"/>
<path d="M34.08 61.8C35.16 62.78 36.42 64.18 36.94 65.14L38.88 63.78C38.28 62.84 36.98 61.5 35.88 60.56L34.08 61.8ZM20.98 65.7V67.98H39.04V65.7H20.98ZM20.6 71.36L21.2 73.78C23.78 73.26 27.26 72.56 30.5 71.88L30.32 69.7C26.82 70.34 23.02 71 20.6 71.36ZM24.78 62.48V75.96C24.78 76.3 24.66 76.4 24.3 76.4C23.94 76.42 22.78 76.42 21.64 76.36C22 77.04 22.4 78.12 22.5 78.8C24.14 78.8 25.32 78.72 26.12 78.34C26.94 77.96 27.2 77.3 27.2 76V62.48H24.78ZM28.88 60.14C26.82 60.84 23.7 61.46 20.88 61.84C21.16 62.38 21.46 63.28 21.58 63.84C24.48 63.52 27.9 62.98 30.5 62.18L28.88 60.14ZM30.84 60.18C30.9 69.16 32.46 78.88 36.6 78.88C38.42 78.88 39.18 78 39.56 74.46C38.92 74.2 38.1 73.64 37.6 73.08C37.48 75.46 37.26 76.44 36.84 76.44C35.02 76.44 33.22 68.24 33.36 60.18H30.84ZM36.28 68.64C34.5 71.94 31.24 74.66 27.82 76.22C28.42 76.76 29.08 77.56 29.44 78.16C33.06 76.24 36.32 73.26 38.4 69.54L36.28 68.64ZM40.92 63.22V65.52H59.06V63.22H40.92ZM47.6 68.12V70.4H55.26V68.12H47.6ZM54.38 68.12L54.36 68.5C54.08 73.44 53.7 75.72 53.1 76.24C52.84 76.46 52.56 76.48 52.12 76.48C51.54 76.48 50.12 76.48 48.74 76.36C49.2 77.02 49.56 78.02 49.6 78.72C50.94 78.76 52.28 78.78 53.04 78.72C53.96 78.62 54.6 78.42 55.2 77.78C56 76.9 56.42 74.64 56.78 69.16C56.84 68.84 56.86 68.12 56.86 68.12H54.38ZM46.7 64.58C46.5 69.14 46.38 74.22 40.56 76.92C41.2 77.42 41.92 78.3 42.28 78.94C48.56 75.78 49.1 69.94 49.4 64.58H46.7ZM48.64 59.92V64.12H51.12V59.92H48.64Z" fill="white"/>
<g clip-path="url(#clip0_4_2410)">
<path d="M133.29 49.53C131.466 50.2464 129.711 51.1302 128.05 52.17C123.974 54.6959 120.398 57.95 117.5 61.77C115.943 63.7684 114.571 65.9038 113.4 68.15C109.378 67.4946 105.72 65.4293 103.082 62.3237C100.444 59.2181 98.9969 55.275 99.0001 51.2C98.9988 48.9409 99.4428 46.7037 100.307 44.6163C101.171 42.5289 102.437 40.6323 104.035 39.0348C105.632 37.4374 107.529 36.1705 109.616 35.3066C111.704 34.4427 113.941 33.9987 116.2 34C120.471 33.9959 124.59 35.5854 127.751 38.4577C130.911 41.3299 132.887 45.2782 133.29 49.53Z" fill="#B8A4D9"/>
<path d="M178.17 83.8C178.17 100.09 162.76 106.5 143.74 106.5C124.72 106.5 109.28 100.09 109.28 83.8C109.413 78.3283 110.838 72.9656 113.44 68.15C114.611 65.9038 115.983 63.7684 117.54 61.77C120.438 57.9501 124.014 54.6959 128.09 52.17C129.751 51.1302 131.506 50.2464 133.33 49.53C136.642 48.2106 140.175 47.5319 143.74 47.53C147.178 47.5409 150.585 48.185 153.79 49.43C155.635 50.1307 157.412 50.9976 159.1 52.02C163.254 54.5634 166.899 57.8558 169.85 61.73C171.418 63.7373 172.8 65.8828 173.98 68.14C176.604 72.9517 178.041 78.3208 178.17 83.8Z" fill="#B8A4D9"/>
<path d="M128.05 52.17C123.974 54.6959 120.398 57.9501 117.5 61.77C115.523 61.3664 113.746 60.2918 112.47 58.7282C111.195 57.1645 110.498 55.208 110.5 53.19C110.5 52.038 110.727 50.8972 111.169 49.8331C111.61 48.769 112.257 47.8024 113.073 46.9887C113.888 46.175 114.856 45.5301 115.921 45.0911C116.987 44.652 118.128 44.4274 119.28 44.43C121.437 44.4173 123.524 45.1994 125.142 46.627C126.759 48.0546 127.794 50.0278 128.05 52.17Z" fill="#EFCECD"/>
<path d="M188.04 51.2C188.04 55.2231 186.629 59.1187 184.052 62.2086C181.476 65.2985 177.898 67.3868 173.94 68.11C172.76 65.8528 171.378 63.7073 169.81 61.7C166.859 57.8258 163.214 54.5333 159.06 51.99C157.372 50.9676 155.595 50.1007 153.75 49.4C154.193 45.1716 156.187 41.2573 159.347 38.4131C162.507 35.569 166.608 33.9967 170.86 34C173.118 34 175.353 34.445 177.439 35.3097C179.525 36.1743 181.42 37.4415 183.015 39.039C184.611 40.6364 185.876 42.5327 186.738 44.6194C187.6 46.706 188.043 48.9422 188.04 51.2Z" fill="#B8A4D9"/>
<path d="M176.51 53.21C176.515 55.1736 175.856 57.0812 174.64 58.6226C173.423 60.164 171.721 61.2486 169.81 61.7C166.859 57.8258 163.214 54.5333 159.06 51.99C159.346 49.8941 160.382 47.9728 161.976 46.5826C163.57 45.1924 165.615 44.4276 167.73 44.43C168.884 44.4274 170.026 44.6527 171.093 45.093C172.159 45.5333 173.129 46.1799 173.944 46.9957C174.76 47.8116 175.407 48.7805 175.847 49.8469C176.288 50.9134 176.512 52.0563 176.51 53.21Z" fill="#EFCECD"/>
<path d="M149.6 78.09C149.78 82.87 147.12 86.85 143.6 86.98C140.08 87.11 137.18 83.34 137 78.57C136.82 73.8 139.48 69.81 142.95 69.68C146.42 69.55 149.42 73.31 149.6 78.09Z" fill="#3E3A39"/>
<path d="M166.35 78.4C164.78 78.78 163 77.03 162.35 74.48C161.7 71.93 162.52 69.57 164.09 69.19C165.66 68.81 167.44 70.56 168.09 73.11C168.74 75.66 167.92 78.02 166.35 78.4Z" fill="#3E3A39"/>
<path d="M122.71 78.47C121.11 78.22 120.15 75.92 120.57 73.33C120.99 70.74 122.57 68.86 124.21 69.12C125.85 69.38 126.77 71.68 126.35 74.26C125.93 76.84 124.31 78.73 122.71 78.47Z" fill="#3E3A39"/>
<path d="M155.35 84.92C152.52 92.42 146.01 90.92 145.94 90.92C145.823 90.8931 145.713 90.843 145.615 90.7728C145.518 90.7026 145.436 90.6136 145.373 90.5111C145.311 90.4086 145.27 90.2947 145.252 90.176C145.234 90.0573 145.241 89.9363 145.27 89.82C145.329 89.5866 145.478 89.3857 145.683 89.2604C145.889 89.1351 146.136 89.0955 146.37 89.15C146.59 89.2 151.37 90.22 153.64 84.27C153.726 84.0449 153.896 83.8627 154.115 83.7633C154.335 83.664 154.585 83.6556 154.81 83.74C154.924 83.7812 155.028 83.8445 155.117 83.9264C155.206 84.0083 155.277 84.107 155.327 84.2168C155.378 84.3267 155.405 84.4454 155.409 84.5661C155.413 84.6868 155.393 84.8071 155.35 84.92Z" fill="#3E3A39"/>
<path d="M130.35 50.37C122.97 53.9 118.3 60.66 113.92 67.3C113.59 67.79 114.38 68.25 114.7 67.76C119.01 61.23 123.55 54.63 130.81 51.16C131.34 50.92 130.88 50.12 130.35 50.37Z" fill="white"/>
</g>
<circle cx="178.5" cy="101.5" r="18.5" fill="#5394DC"/>
<path d="M171 102.115L177.857 109L187 94" stroke="white" stroke-width="5" stroke-linecap="round"/>
<path d="M126.324 122.158V123.256H133.344V122.158H126.324ZM129.258 129.052V129.88H139.752V129.052H129.258ZM129.312 130.906V131.752H139.788V130.906H129.312ZM129.222 132.778V133.768H140.832V132.778H129.222ZM132.966 122.158V122.338C132.822 124.282 132.678 125.038 132.48 125.254C132.354 125.362 132.228 125.398 131.994 125.398C131.778 125.398 131.202 125.38 130.572 125.326C130.734 125.596 130.842 126.046 130.878 126.352C131.562 126.388 132.228 126.406 132.57 126.37C132.984 126.352 133.254 126.244 133.506 125.992C133.848 125.632 134.01 124.75 134.172 122.662C134.19 122.5 134.208 122.158 134.208 122.158H132.966ZM136.512 122.86H140.256V125.11H136.512V122.86ZM135.252 121.816V126.172H141.57V121.816H135.252ZM128.34 127.072V133.768H129.672V128.008H140.472V127.072H128.34ZM134.118 127.414V133.192H135.432V127.414H134.118ZM140.382 132.778V132.958C140.202 135.172 139.968 136.054 139.698 136.306C139.554 136.45 139.41 136.468 139.158 136.468C138.906 136.468 138.24 136.45 137.538 136.378C137.718 136.684 137.826 137.134 137.844 137.458C138.636 137.494 139.356 137.512 139.752 137.476C140.184 137.44 140.472 137.35 140.742 137.08C141.156 136.666 141.39 135.676 141.642 133.318C141.66 133.12 141.696 132.778 141.696 132.778H140.382ZM128.07 134.056C127.53 134.884 126.684 136.054 125.892 136.774L127.026 137.422C127.764 136.63 128.556 135.496 129.15 134.632L128.07 134.056ZM130.338 134.596C130.608 135.406 130.824 136.486 130.86 137.17L132.084 136.936C132.012 136.252 131.778 135.208 131.472 134.398L130.338 134.596ZM133.308 134.614C133.758 135.316 134.208 136.306 134.352 136.936L135.486 136.558C135.288 135.928 134.82 134.992 134.334 134.29L133.308 134.614ZM136.206 134.452C136.71 134.974 137.286 135.712 137.538 136.216L138.528 135.73C138.258 135.226 137.682 134.524 137.142 134.02L136.206 134.452ZM129.366 120.898C129.132 123.436 128.502 125.326 125.802 126.28C126.072 126.496 126.396 126.928 126.54 127.216C129.564 126.046 130.338 123.886 130.626 120.898H129.366ZM154.71 124.912H160.596V128.584H154.71V124.912ZM153.486 123.724V129.736H161.856V123.724H153.486ZM156.96 120.97V128.926C156.96 131.77 156.78 135.046 152.712 136.432C153 136.684 153.378 137.188 153.54 137.476C157.77 135.748 158.238 132.202 158.238 128.926V120.97H156.96ZM154.782 130.384L153.648 130.636C154.89 134.38 157.41 136.594 161.586 137.494C161.766 137.134 162.108 136.612 162.396 136.324C158.382 135.64 155.88 133.642 154.782 130.384ZM147.168 124.39V125.47H152.55V124.39H147.168ZM147.168 127.18V128.26H152.55V127.18H147.168ZM147.114 129.952V131.05H152.388V129.952H147.114ZM149.454 122.302V130.456H150.57V122.302H149.454ZM150.12 131.842C150.534 132.58 150.948 133.552 151.092 134.2L151.776 133.93C151.596 133.318 151.182 132.328 150.75 131.608L150.12 131.842ZM148.896 132.13C149.22 133.048 149.508 134.272 149.58 135.046L150.3 134.866C150.228 134.11 149.94 132.922 149.58 131.986L148.896 132.13ZM147.636 132.292C147.816 133.372 147.924 134.704 147.888 135.622L148.626 135.514C148.644 134.632 148.536 133.264 148.338 132.202L147.636 132.292ZM146.322 132.022C146.196 133.21 145.908 134.992 145.566 136.054L146.43 136.396C146.736 135.298 146.988 133.498 147.15 132.292L146.322 132.022ZM146.466 121.636V131.05H147.618V122.77H152.928V121.636H146.466ZM151.938 129.952V130.15C151.74 134.29 151.524 135.82 151.218 136.198C151.074 136.36 150.93 136.396 150.678 136.378C150.444 136.378 149.832 136.378 149.184 136.306C149.346 136.63 149.472 137.08 149.49 137.404C150.156 137.458 150.822 137.44 151.164 137.422C151.632 137.386 151.902 137.26 152.172 136.954C152.64 136.396 152.838 134.848 153.054 130.492C153.072 130.33 153.09 129.952 153.09 129.952H151.938Z" fill="black"/>
<path d="M236.76 52.69C236.39 52.69 235.84 35.18 207.48 41.29C205.338 41.6579 203.152 41.6882 201 41.38C201 41.38 202.84 61.79 225.25 58.38C226.7 58.1417 228.162 57.9881 229.63 57.92L233.89 57.74L236.76 52.69Z" fill="#F7BEBD"/>
<path d="M236.21 53.64C235.95 53.64 235.56 41.33 215.62 45.64C214.112 45.8956 212.575 45.9192 211.06 45.71C211.06 45.71 212.35 60.05 228.11 57.62C229.13 57.4535 230.158 57.3467 231.19 57.3L234.19 57.17L236.21 53.64Z" fill="#EE8785"/>
<path d="M232.98 53.75C232.507 52.851 231.823 52.0797 230.987 51.5017C230.152 50.9237 229.188 50.556 228.18 50.43C225.58 50.01 219.57 52.71 218.18 49.87C217.86 49.22 216.89 49.79 217.18 50.44C217.528 51.1467 218.094 51.7227 218.795 52.0828C219.495 52.443 220.293 52.5682 221.07 52.44C224.94 52.19 229.51 49.8 231.95 54.34C232.35 54.96 233.32 54.39 232.98 53.75Z" fill="white"/>
<path d="M268.82 52.69C269.19 52.69 269.75 35.18 298.1 41.29C300.242 41.6572 302.429 41.6876 304.58 41.38C304.58 41.38 302.74 61.79 280.33 58.38C278.88 58.1417 277.418 57.9881 275.95 57.92L271.69 57.74L268.82 52.69Z" fill="#F7BEBD"/>
<path d="M269.38 53.64C269.64 53.64 270.03 41.33 289.96 45.64C291.468 45.8956 293.005 45.9192 294.52 45.71C294.52 45.71 293.23 60.05 277.52 57.62C276.5 57.453 275.472 57.3462 274.44 57.3L271.44 57.17L269.38 53.64Z" fill="#EE8785"/>
<path d="M285.84 50.54C283.37 52.54 279.46 50.36 276.53 51.06C275.546 51.2473 274.613 51.6386 273.79 52.2087C272.966 52.7788 272.271 53.515 271.75 54.37C271.4 55.01 272.38 55.58 272.75 54.94C275.95 49.11 282.56 54.7 286.66 51.33C287.19 50.89 286.39 50.08 285.84 50.54Z" fill="white"/>
<path d="M282.77 82.57C282.77 98.78 268.21 100.57 250.26 100.57C232.31 100.57 217.76 98.8 217.76 82.57C217.76 66.34 223.65 41.87 250.26 41.87C275.57 41.89 282.77 66.37 282.77 82.57Z" fill="#F7BEBD"/>
<path d="M267.56 73.82C267.624 74.2167 267.607 74.6222 267.511 75.0123C267.415 75.4025 267.241 75.7693 267 76.0911C266.76 76.4129 266.457 76.683 266.11 76.8855C265.763 77.088 265.378 77.2188 264.98 77.27C264.585 77.3382 264.18 77.3265 263.789 77.2355C263.398 77.1445 263.03 76.9761 262.706 76.7402C262.381 76.5043 262.107 76.2058 261.9 75.8622C261.693 75.5186 261.557 75.137 261.5 74.74C261.438 74.344 261.456 73.9395 261.553 73.5506C261.65 73.1616 261.823 72.796 262.064 72.4753C262.304 72.1546 262.607 71.8854 262.953 71.6836C263.299 71.4817 263.683 71.3512 264.08 71.3C264.475 71.2316 264.879 71.243 265.269 71.3334C265.659 71.4237 266.027 71.5913 266.352 71.8262C266.676 72.061 266.95 72.3584 267.157 72.7008C267.365 73.0433 267.502 73.4238 267.56 73.82Z" fill="#3E3A39"/>
<path d="M230.51 73.82C230.447 74.2167 230.463 74.6222 230.559 75.0123C230.656 75.4025 230.83 75.7693 231.07 76.0911C231.311 76.4129 231.613 76.683 231.96 76.8855C232.307 77.088 232.692 77.2188 233.09 77.27C233.486 77.3382 233.89 77.3265 234.281 77.2355C234.672 77.1445 235.04 76.9761 235.365 76.7402C235.689 76.5043 235.963 76.2058 236.17 75.8622C236.377 75.5186 236.513 75.137 236.57 74.74C236.632 74.3447 236.615 73.941 236.518 73.5526C236.422 73.1643 236.25 72.799 236.01 72.4785C235.771 72.158 235.47 71.8886 235.124 71.6862C234.779 71.4838 234.397 71.3525 234 71.3C233.605 71.2302 233.2 71.2404 232.808 71.3301C232.417 71.4198 232.048 71.5871 231.723 71.8221C231.397 72.057 231.122 72.3549 230.914 72.6981C230.706 73.0413 230.568 73.4228 230.51 73.82Z" fill="#3E3A39"/>
<path d="M261.71 85.1C261.753 86.0043 261.614 86.908 261.301 87.7575C260.988 88.607 260.507 89.385 259.888 90.0453C259.269 90.7056 258.523 91.2348 257.696 91.6015C256.868 91.9682 255.975 92.1649 255.07 92.18H254.85C254.129 92.1544 253.416 92.0126 252.74 91.76C250.481 90.9273 247.999 90.9273 245.74 91.76C245.123 91.984 244.475 92.1122 243.82 92.14H243.5C238.45 92.14 235.25 85.81 238.05 81.68C240.58 77.95 246.4 76.94 250.6 77.16C254.8 77.38 259.09 78.99 261.09 82.89C261.444 83.5771 261.655 84.329 261.71 85.1Z" fill="#EE8785"/>
<g style="mix-blend-mode:multiply">
<g style="mix-blend-mode:multiply">
<path d="M247.78 84.57C247.78 84.949 247.705 85.3244 247.56 85.6744C247.414 86.0245 247.201 86.3424 246.933 86.61C246.664 86.8776 246.346 87.0895 245.995 87.2336C245.645 87.3778 245.269 87.4513 244.89 87.45C244.126 87.45 243.394 87.1466 242.854 86.6065C242.314 86.0664 242.01 85.3338 242.01 84.57C242.01 83.8052 242.313 83.0717 242.853 82.53C243.393 81.9883 244.125 81.6826 244.89 81.68C245.269 81.68 245.645 81.7547 245.996 81.9C246.346 82.0452 246.665 82.2581 246.934 82.5265C247.202 82.7948 247.415 83.1134 247.56 83.464C247.705 83.8147 247.78 84.1905 247.78 84.57Z" fill="#EE8785"/>
</g>
<g style="mix-blend-mode:multiply">
<path d="M257.09 84.57C257.09 84.949 257.015 85.3244 256.87 85.6744C256.724 86.0245 256.511 86.3424 256.243 86.61C255.974 86.8776 255.656 87.0895 255.305 87.2336C254.955 87.3778 254.579 87.4513 254.2 87.45C253.436 87.45 252.704 87.1466 252.164 86.6065C251.623 86.0664 251.32 85.3338 251.32 84.57C251.32 83.8052 251.623 83.0717 252.163 82.53C252.703 81.9883 253.435 81.6826 254.2 81.68C254.967 81.68 255.702 81.9845 256.244 82.5265C256.786 83.0684 257.09 83.8035 257.09 84.57Z" fill="#EE8785"/>
</g>
</g>
<path d="M263.41 89.77C262.69 93.01 258.67 94.41 255.74 93.66C255.601 93.6415 255.46 93.6743 255.343 93.7523C255.226 93.8302 255.141 93.9479 255.104 94.0836C255.068 94.2193 255.081 94.3637 255.143 94.4899C255.205 94.6162 255.311 94.7157 255.44 94.77C258.96 95.67 263.65 93.93 264.51 90.08C264.67 89.36 263.57 89.05 263.41 89.77Z" fill="#3E3A39"/>
<circle cx="280.5" cy="101.5" r="18.5" fill="#5394DC"/>
<path d="M273 102.115L279.857 109L289 94" stroke="white" stroke-width="5" stroke-linecap="round"/>
<path d="M242.362 122.464V137.44H243.784V122.464H242.362ZM239.194 126.424V132.292H240.472V126.424H239.194ZM235.252 124.66V125.902H250.912V124.66H235.252ZM235.738 127.666V128.782H239.95V127.666H235.738ZM248.698 120.988C245.764 121.6 240.598 121.978 236.404 122.122C236.53 122.428 236.674 122.932 236.71 123.274C240.904 123.184 246.106 122.806 249.31 122.158L248.698 120.988ZM242.542 129.808C241.048 132.418 238.006 134.758 234.712 135.712C235.018 135.982 235.396 136.486 235.594 136.828C238.924 135.712 241.93 133.174 243.568 130.204L242.542 129.808ZM243.658 129.844L242.65 130.204C244.288 133.192 247.276 135.766 250.552 136.9C250.768 136.558 251.146 136.036 251.434 135.784C248.194 134.83 245.134 132.454 243.658 129.844ZM235.216 130.996L235.504 132.148C236.818 131.914 238.42 131.608 240.022 131.302L239.968 130.258C238.186 130.564 236.44 130.834 235.216 130.996ZM245.674 126.388V130.816C245.674 132.094 245.998 132.454 247.384 132.454C247.654 132.454 249.148 132.454 249.454 132.454C250.498 132.454 250.84 132.04 251.002 130.402C250.642 130.33 250.12 130.15 249.868 129.952C249.832 131.14 249.742 131.302 249.31 131.302C248.986 131.302 247.762 131.302 247.528 131.302C247.006 131.302 246.916 131.23 246.916 130.816V126.388H245.674ZM249.49 127.09C248.644 127.558 247.24 128.134 246.07 128.548C246.214 128.818 246.376 129.232 246.43 129.484C247.672 129.106 249.184 128.602 250.318 128.08L249.49 127.09ZM260.668 124.066C259.75 125.47 258.004 127.036 255.502 128.152C255.808 128.35 256.222 128.8 256.42 129.124C259.066 127.81 260.884 126.1 262.126 124.354L260.668 124.066ZM260.47 125.416L259.498 126.496H266.734V125.416H260.47ZM266.356 125.416V125.632C264.304 128.8 259.156 130.978 254.53 131.824C254.782 132.13 255.07 132.67 255.196 133.012C260.038 131.986 265.348 129.7 267.76 125.92L266.86 125.362L266.608 125.416H266.356ZM259.948 126.262L258.76 126.802C261.172 129.916 265.528 131.842 270.37 132.598C270.568 132.202 270.928 131.626 271.234 131.32C266.41 130.708 262.054 128.962 259.948 126.262ZM257.932 131.896V137.422H259.264V133.048H266.554V137.404H267.94V131.896H257.932ZM258.598 135.676V136.828H267.238V135.676H258.598ZM262.162 120.898V123.238H263.548V120.898H262.162ZM255.268 122.518V125.92H256.6V123.76H269.128V125.92H270.496V122.518H255.268Z" fill="black"/>
<circle cx="40" cy="210" r="40" fill="#424242"/>
<path d="M30.92 205.1V207.32H39.38V205.1H30.92ZM20.68 204.18V206.14H31.08V204.18H20.68ZM21.42 208.74V210.7H30.3V208.74H21.42ZM21.78 212V213.94H30.04V212H21.78ZM35.16 200.16V216.12C35.16 216.46 35.02 216.58 34.68 216.58C34.36 216.58 33.3 216.58 32.26 216.54C32.58 217.16 32.98 218.18 33.08 218.82C34.66 218.82 35.76 218.74 36.5 218.36C37.22 217.98 37.46 217.36 37.46 216.14V200.16H35.16ZM31.3 209.12C32 210.58 32.62 212.46 32.74 213.66L34.86 212.9C34.72 211.68 34.04 209.86 33.28 208.44L31.3 209.12ZM20.68 201.26C21.22 202.18 21.74 203.4 21.9 204.2L23.66 203.38C23.48 202.58 22.92 201.42 22.32 200.52L20.68 201.26ZM22.12 206.56C22.56 207.34 22.96 208.42 23.06 209.08L25.02 208.36C24.88 207.68 24.44 206.68 23.96 205.92L22.12 206.56ZM23.54 200.2V205.08H25.42V200.2H23.54ZM24.78 209.32V216.6H27V209.32H24.78ZM26.32 200.2V205.08H28.22V200.2H26.32ZM20.74 215.82L21.04 218.04C23.7 217.74 27.44 217.34 30.9 216.9L30.86 214.82C27.24 215.22 23.32 215.6 20.74 215.82ZM29.5 200.42C29.22 201.34 28.62 202.66 28.14 203.48L29.74 204.14C30.28 203.38 30.94 202.22 31.6 201.16L29.5 200.42ZM27.66 205.9C27.48 206.66 27.08 207.74 26.76 208.44L28.66 208.92C29 208.28 29.42 207.36 29.84 206.42L27.66 205.9ZM40.92 203.22V205.52H59.06V203.22H40.92ZM47.6 208.12V210.4H55.26V208.12H47.6ZM54.38 208.12L54.36 208.5C54.08 213.44 53.7 215.72 53.1 216.24C52.84 216.46 52.56 216.48 52.12 216.48C51.54 216.48 50.12 216.48 48.74 216.36C49.2 217.02 49.56 218.02 49.6 218.72C50.94 218.76 52.28 218.78 53.04 218.72C53.96 218.62 54.6 218.42 55.2 217.78C56 216.9 56.42 214.64 56.78 209.16C56.84 208.84 56.86 208.12 56.86 208.12H54.38ZM46.7 204.58C46.5 209.14 46.38 214.22 40.56 216.92C41.2 217.42 41.92 218.3 42.28 218.94C48.56 215.78 49.1 209.94 49.4 204.58H46.7ZM48.64 199.92V204.12H51.12V199.92H48.64Z" fill="white"/>
<g clip-path="url(#clip1_4_2410)">
<path d="M172.441 232.463C172.712 231.979 172.93 231.466 173.089 230.933C173.335 231.423 173.633 231.884 173.976 232.31C174.453 232.581 174.956 232.801 175.477 232.967C174.997 233.218 174.545 233.519 174.128 233.867C173.855 234.348 173.634 234.858 173.471 235.388C173.223 234.899 172.925 234.437 172.583 234.011C172.104 233.739 171.598 233.519 171.073 233.354C171.56 233.108 172.018 232.81 172.441 232.463Z" fill="white"/>
<path d="M110.981 222.896C111.421 222.112 111.775 221.282 112.038 220.421C112.451 221.219 112.952 221.968 113.529 222.653C114.299 223.1 115.115 223.459 115.962 223.724C115.178 224.145 114.44 224.648 113.76 225.227C113.322 226.014 112.967 226.847 112.704 227.711C112.289 226.913 111.792 226.162 111.221 225.47C110.448 225.024 109.629 224.665 108.78 224.399C109.567 223.984 110.306 223.48 110.981 222.896Z" fill="white"/>
<path d="M150.025 232.283C150.09 233.358 149.733 234.415 149.031 235.224C148.328 236.032 147.339 236.525 146.279 236.594C145.217 236.563 144.21 236.108 143.478 235.327C142.746 234.546 142.349 233.504 142.373 232.427C142.307 231.353 142.664 230.296 143.367 229.49C144.069 228.683 145.059 228.192 146.119 228.125C146.645 228.137 147.163 228.254 147.645 228.469C148.126 228.685 148.561 228.995 148.924 229.381C149.287 229.767 149.571 230.223 149.76 230.721C149.949 231.219 150.039 231.75 150.025 232.283Z" fill="#E4C884"/>
<path d="M146.119 228.125C145.195 228.145 144.314 228.526 143.66 229.187C143.299 229.87 143.116 230.635 143.127 231.41C143.103 232.486 143.501 233.528 144.233 234.307C144.965 235.086 145.972 235.54 147.034 235.568C147.96 235.547 148.843 235.167 149.501 234.506C149.864 233.824 150.045 233.058 150.025 232.283C150.039 231.75 149.949 231.219 149.761 230.721C149.572 230.223 149.287 229.767 148.924 229.381C148.561 228.995 148.127 228.685 147.645 228.469C147.164 228.254 146.645 228.137 146.119 228.125Z" fill="#FFF7E8"/>
<path d="M158.272 231.626C158.559 232.844 158.36 234.128 157.718 235.198C157.077 236.268 156.044 237.038 154.845 237.341C153.62 237.527 152.373 237.214 151.375 236.47C150.376 235.727 149.709 234.613 149.519 233.372C149.227 232.155 149.425 230.87 150.067 229.8C150.71 228.73 151.745 227.962 152.945 227.666C153.552 227.571 154.171 227.599 154.766 227.746C155.362 227.894 155.923 228.16 156.418 228.527C156.913 228.895 157.331 229.358 157.649 229.89C157.967 230.421 158.179 231.011 158.272 231.626Z" fill="#E4C884"/>
<path d="M149.527 233.372C149.695 234.256 150.087 235.082 150.664 235.766C151.573 236.36 152.675 236.573 153.736 236.36C154.935 236.062 155.969 235.294 156.611 234.224C157.254 233.155 157.451 231.871 157.162 230.654C156.991 229.771 156.6 228.947 156.026 228.26C155.113 227.674 154.016 227.462 152.955 227.666C151.754 227.962 150.718 228.73 150.076 229.8C149.433 230.87 149.236 232.155 149.527 233.372Z" fill="#FFF7E8"/>
<path d="M143.26 230.285C143.494 231.24 143.345 232.249 142.846 233.093C142.346 233.936 141.538 234.545 140.597 234.785C139.638 234.932 138.66 234.688 137.878 234.106C137.096 233.524 136.573 232.652 136.425 231.68C136.193 230.725 136.343 229.717 136.842 228.874C137.341 228.031 138.148 227.422 139.088 227.18C140.047 227.033 141.025 227.277 141.807 227.859C142.589 228.441 143.112 229.313 143.26 230.285Z" fill="#E4C884"/>
<path d="M139.088 227.171C138.257 227.34 137.523 227.826 137.037 228.53C136.821 229.201 136.778 229.917 136.913 230.609C137.061 231.583 137.585 232.458 138.369 233.042C139.153 233.625 140.132 233.87 141.094 233.723C141.924 233.554 142.659 233.067 143.145 232.364C143.361 231.693 143.403 230.977 143.269 230.285C143.196 229.802 143.031 229.338 142.781 228.92C142.532 228.502 142.204 228.138 141.815 227.849C141.427 227.56 140.986 227.351 140.518 227.235C140.05 227.119 139.564 227.097 139.088 227.171Z" fill="#FFF7E8"/>
<path d="M137.384 228.782C137.576 229.586 137.446 230.435 137.022 231.142C136.597 231.85 135.913 232.357 135.12 232.553C134.313 232.674 133.493 232.467 132.837 231.976C132.182 231.485 131.745 230.751 131.622 229.934C131.429 229.132 131.558 228.285 131.981 227.58C132.404 226.874 133.086 226.368 133.877 226.172C134.276 226.109 134.684 226.127 135.077 226.224C135.469 226.322 135.839 226.497 136.165 226.739C136.49 226.982 136.766 227.287 136.975 227.637C137.184 227.988 137.323 228.377 137.384 228.782Z" fill="#E4C884"/>
<path d="M133.877 226.145C133.179 226.288 132.562 226.697 132.155 227.288C131.974 227.852 131.941 228.453 132.057 229.034C132.117 229.439 132.254 229.827 132.463 230.178C132.671 230.528 132.946 230.834 133.271 231.076C133.596 231.319 133.965 231.494 134.357 231.591C134.749 231.689 135.156 231.707 135.555 231.644C136.253 231.504 136.871 231.094 137.277 230.501C137.46 229.938 137.497 229.337 137.384 228.755C137.323 228.35 137.184 227.961 136.975 227.61C136.766 227.26 136.49 226.955 136.165 226.712C135.839 226.47 135.469 226.295 135.077 226.197C134.684 226.1 134.276 226.082 133.877 226.145Z" fill="#FFF7E8"/>
<path d="M132.305 226.082C132.393 226.43 132.41 226.792 132.357 227.148C132.305 227.503 132.183 227.844 131.998 228.151C131.814 228.457 131.571 228.724 131.284 228.934C130.996 229.145 130.671 229.295 130.326 229.376C129.976 229.433 129.619 229.42 129.275 229.335C128.93 229.251 128.606 229.098 128.321 228.885C128.036 228.672 127.795 228.404 127.613 228.096C127.432 227.787 127.313 227.445 127.263 227.09C127.176 226.742 127.158 226.379 127.211 226.024C127.264 225.669 127.386 225.328 127.57 225.021C127.754 224.715 127.997 224.448 128.284 224.238C128.572 224.027 128.898 223.877 129.243 223.796C129.592 223.739 129.95 223.752 130.294 223.837C130.638 223.921 130.963 224.074 131.248 224.287C131.533 224.5 131.773 224.768 131.955 225.076C132.137 225.385 132.256 225.726 132.305 226.082Z" fill="#FFF7E8"/>
<path d="M129.243 223.796C128.629 223.914 128.087 224.273 127.734 224.795C127.574 225.289 127.544 225.816 127.645 226.325C127.694 226.68 127.814 227.022 127.995 227.331C128.177 227.639 128.418 227.907 128.703 228.12C128.988 228.333 129.312 228.486 129.656 228.57C130.001 228.655 130.358 228.668 130.708 228.611C131.319 228.487 131.859 228.129 132.217 227.612C132.376 227.118 132.406 226.591 132.305 226.082C132.256 225.727 132.137 225.385 131.955 225.076C131.774 224.768 131.533 224.5 131.248 224.287C130.963 224.074 130.638 223.921 130.294 223.837C129.95 223.752 129.593 223.739 129.243 223.796Z" fill="#FFF7E8"/>
<path d="M163.945 230.699C164.162 231.605 164.015 232.561 163.538 233.357C163.06 234.154 162.29 234.725 161.397 234.947C160.488 235.087 159.56 234.856 158.818 234.304C158.077 233.752 157.58 232.926 157.438 232.004C157.221 231.097 157.367 230.14 157.844 229.342C158.322 228.544 159.092 227.971 159.986 227.747C160.897 227.607 161.825 227.84 162.568 228.393C163.31 228.947 163.805 229.776 163.945 230.699Z" fill="#E4C884"/>
<path d="M157.438 232.004C157.56 232.668 157.851 233.288 158.281 233.804C158.956 234.247 159.773 234.408 160.562 234.254C161.458 234.032 162.23 233.46 162.709 232.661C163.188 231.863 163.336 230.905 163.119 229.997C162.997 229.333 162.707 228.712 162.276 228.197C161.596 227.759 160.777 227.602 159.986 227.756C159.094 227.98 158.325 228.552 157.848 229.348C157.371 230.143 157.223 231.098 157.438 232.004Z" fill="#FFF7E8"/>
<path d="M167.611 227.495C167.708 227.873 167.73 228.267 167.675 228.654C167.619 229.041 167.489 229.413 167.291 229.748C167.092 230.083 166.83 230.375 166.519 230.606C166.209 230.837 165.856 231.004 165.481 231.095C164.72 231.211 163.946 231.017 163.326 230.554C162.707 230.092 162.294 229.4 162.178 228.629C162.081 228.251 162.06 227.857 162.115 227.47C162.17 227.083 162.301 226.711 162.499 226.376C162.697 226.041 162.96 225.749 163.27 225.518C163.581 225.287 163.934 225.12 164.309 225.029C165.069 224.913 165.844 225.107 166.463 225.57C167.083 226.032 167.495 226.724 167.611 227.495Z" fill="#E4C884"/>
<path d="M162.17 228.584C162.274 229.136 162.518 229.651 162.88 230.078C163.446 230.435 164.124 230.563 164.78 230.438C165.149 230.347 165.498 230.183 165.805 229.956C166.112 229.729 166.372 229.442 166.57 229.113C166.768 228.783 166.9 228.418 166.958 228.037C167.017 227.656 167 227.267 166.91 226.892C166.807 226.344 166.565 225.832 166.209 225.407C165.642 225.042 164.961 224.907 164.3 225.029C163.553 225.214 162.909 225.693 162.509 226.359C162.11 227.026 161.988 227.826 162.17 228.584Z" fill="#FFF7E8"/>
<path fill-rule="evenodd" clip-rule="evenodd" d="M156.213 182.189C154.073 174.089 157.038 164.189 168.233 163.145C179.427 162.101 189.646 181.568 170.373 188.48C163.626 190.019 156.213 182.189 156.213 182.189Z" fill="#B56D52"/>
<path fill-rule="evenodd" clip-rule="evenodd" d="M163.057 181.145C162.063 175.277 167.381 170.093 171.828 171.362C176.276 172.631 173.675 182.072 166.884 183.683C160.092 185.294 163.057 181.145 163.057 181.145Z" fill="#D18367"/>
<path fill-rule="evenodd" clip-rule="evenodd" d="M118.11 199.19C115.971 208.793 118.11 223.913 134.445 227.279C150.78 230.645 165.454 229.916 173.267 224.399C181.079 218.882 179.188 212.87 176.347 209.27C173.506 205.67 174.927 202.313 174.687 196.076C174.447 189.839 166.165 178.787 155.041 176.627C143.918 174.467 121.661 178.31 118.11 199.19Z" fill="#B56D52"/>
<path fill-rule="evenodd" clip-rule="evenodd" d="M134.045 185.582C133.255 178.697 127.068 169.499 114.905 172.541C102.743 175.583 101.891 200.387 121.741 202.061C129.474 200.153 134.045 185.582 134.045 185.582Z" fill="#B56D52"/>
<path fill-rule="evenodd" clip-rule="evenodd" d="M128.053 190.667C125.94 194.087 119.797 195.266 116.326 191.513C111.123 185.87 116.45 179.39 122.371 180.47C129.251 181.73 129.234 188.75 128.053 190.667Z" fill="#D18367"/>
<path d="M162.782 207.47C158.237 206.975 150.087 209.9 151.685 217.298C152.866 222.698 161.033 225.956 165.889 222.86C172.565 218.621 172.565 208.523 162.782 207.47Z" fill="#FFF7E8"/>
<path d="M146.412 209.612C148.064 209.612 149.404 208.254 149.404 206.579C149.404 204.904 148.064 203.546 146.412 203.546C144.76 203.546 143.42 204.904 143.42 206.579C143.42 208.254 144.76 209.612 146.412 209.612Z" fill="#3E3A39"/>
<path d="M168.313 205.544C169.965 205.544 171.305 204.186 171.305 202.511C171.305 200.836 169.965 199.478 168.313 199.478C166.66 199.478 165.321 200.836 165.321 202.511C165.321 204.186 166.66 205.544 168.313 205.544Z" fill="#3E3A39"/>
<path fill-rule="evenodd" clip-rule="evenodd" d="M158.618 213.644C159.63 215.777 161.415 216.974 162.098 214.391C163.279 217.298 164.629 216.821 165.232 213.815C166.626 216.2 167.833 213.815 167.318 211.7C166.714 209.234 163.687 209 159.488 210.638C158.981 210.921 158.605 211.396 158.442 211.959C158.279 212.522 158.343 213.128 158.618 213.644Z" fill="#3E3A39"/>
<path d="M163.457 219.107C163.353 219.138 163.241 219.138 163.137 219.107C163.008 219.058 162.903 218.96 162.845 218.834C162.787 218.708 162.781 218.563 162.827 218.432C163.161 217.043 163.074 215.585 162.578 214.247C162.559 214.18 162.553 214.109 162.561 214.04C162.57 213.97 162.591 213.903 162.625 213.842C162.659 213.781 162.704 213.727 162.759 213.684C162.813 213.641 162.875 213.609 162.942 213.59C163.075 213.554 163.216 213.573 163.336 213.642C163.456 213.711 163.544 213.825 163.581 213.959C164.146 215.508 164.227 217.195 163.812 218.792C163.781 218.869 163.733 218.938 163.671 218.992C163.609 219.047 163.536 219.086 163.457 219.107Z" fill="#3E3A39"/>
<path d="M163.448 218.108H163.616C164.566 218.225 166.537 219.539 167.656 220.646C167.753 220.745 167.807 220.88 167.807 221.019C167.807 221.159 167.753 221.294 167.656 221.393C167.556 221.492 167.422 221.547 167.283 221.547C167.143 221.547 167.01 221.492 166.91 221.393C165.94 220.396 164.764 219.63 163.466 219.152C161.859 218.891 160.474 220.214 159.328 221.546C159.236 221.65 159.108 221.713 158.971 221.724C158.833 221.734 158.698 221.689 158.592 221.6C158.495 221.501 158.44 221.366 158.44 221.226C158.44 221.087 158.495 220.952 158.592 220.853C159.773 219.458 161.433 217.874 163.448 218.108Z" fill="#3E3A39"/>
<path d="M171.935 189.227C171.857 189.227 171.78 189.208 171.711 189.172C171.641 189.136 171.581 189.084 171.535 189.02C165.143 179.291 154.526 176.951 154.082 176.861C154.021 176.849 153.962 176.825 153.91 176.79C153.858 176.755 153.813 176.71 153.778 176.657C153.744 176.604 153.72 176.545 153.708 176.483C153.696 176.42 153.697 176.356 153.71 176.294C153.721 176.232 153.745 176.172 153.779 176.119C153.814 176.066 153.859 176.021 153.911 175.986C153.963 175.951 154.021 175.926 154.083 175.914C154.144 175.902 154.207 175.903 154.269 175.916C154.739 176.015 165.721 178.436 172.326 188.516C172.361 188.567 172.386 188.626 172.399 188.687C172.412 188.749 172.412 188.812 172.4 188.874C172.387 188.935 172.363 188.994 172.327 189.045C172.291 189.097 172.245 189.14 172.192 189.173C172.115 189.22 172.024 189.239 171.935 189.227Z" fill="white"/>
<path d="M120.96 201.98C119.127 202.038 117.298 201.773 115.554 201.197C115.496 201.172 115.444 201.137 115.401 201.092C115.357 201.047 115.322 200.993 115.299 200.935C115.276 200.876 115.265 200.813 115.266 200.75C115.267 200.687 115.28 200.625 115.305 200.567C115.352 200.45 115.443 200.357 115.558 200.308C115.673 200.259 115.802 200.258 115.917 200.306C118.048 201.206 122.061 200.999 122.132 200.99C122.257 200.985 122.38 201.03 122.473 201.116C122.566 201.202 122.622 201.322 122.629 201.449C122.633 201.512 122.624 201.574 122.603 201.634C122.583 201.693 122.551 201.748 122.51 201.794C122.469 201.841 122.419 201.879 122.363 201.907C122.307 201.934 122.247 201.95 122.185 201.953C122.105 201.953 121.635 201.98 120.96 201.98Z" fill="white"/>
<path d="M141.485 203.771C142.283 204.249 143.033 204.807 143.722 205.436C144.361 206.048 145.329 205.067 144.69 204.455C143.913 203.749 143.071 203.119 142.177 202.574C141.423 202.097 140.739 203.294 141.485 203.771Z" fill="#3E3A39"/>
<path d="M170.426 200.657C170.625 200.195 170.902 199.772 171.243 199.406C171.58 198.983 171.917 198.56 172.246 198.128C172.778 197.417 171.589 196.733 171.065 197.426C170.259 198.263 169.596 199.23 169.103 200.288C168.837 201.188 170.159 201.512 170.426 200.657Z" fill="#3E3A39"/>
</g>
<circle cx="178.5" cy="241.5" r="18.5" fill="#424242"/>
<path d="M171 242.115L177.857 249L187 234" stroke="white" stroke-width="5" stroke-linecap="round"/>
<path d="M126.324 262.158V263.256H133.344V262.158H126.324ZM129.258 269.052V269.88H139.752V269.052H129.258ZM129.312 270.906V271.752H139.788V270.906H129.312ZM129.222 272.778V273.768H140.832V272.778H129.222ZM132.966 262.158V262.338C132.822 264.282 132.678 265.038 132.48 265.254C132.354 265.362 132.228 265.398 131.994 265.398C131.778 265.398 131.202 265.38 130.572 265.326C130.734 265.596 130.842 266.046 130.878 266.352C131.562 266.388 132.228 266.406 132.57 266.37C132.984 266.352 133.254 266.244 133.506 265.992C133.848 265.632 134.01 264.75 134.172 262.662C134.19 262.5 134.208 262.158 134.208 262.158H132.966ZM136.512 262.86H140.256V265.11H136.512V262.86ZM135.252 261.816V266.172H141.57V261.816H135.252ZM128.34 267.072V273.768H129.672V268.008H140.472V267.072H128.34ZM134.118 267.414V273.192H135.432V267.414H134.118ZM140.382 272.778V272.958C140.202 275.172 139.968 276.054 139.698 276.306C139.554 276.45 139.41 276.468 139.158 276.468C138.906 276.468 138.24 276.45 137.538 276.378C137.718 276.684 137.826 277.134 137.844 277.458C138.636 277.494 139.356 277.512 139.752 277.476C140.184 277.44 140.472 277.35 140.742 277.08C141.156 276.666 141.39 275.676 141.642 273.318C141.66 273.12 141.696 272.778 141.696 272.778H140.382ZM128.07 274.056C127.53 274.884 126.684 276.054 125.892 276.774L127.026 277.422C127.764 276.63 128.556 275.496 129.15 274.632L128.07 274.056ZM130.338 274.596C130.608 275.406 130.824 276.486 130.86 277.17L132.084 276.936C132.012 276.252 131.778 275.208 131.472 274.398L130.338 274.596ZM133.308 274.614C133.758 275.316 134.208 276.306 134.352 276.936L135.486 276.558C135.288 275.928 134.82 274.992 134.334 274.29L133.308 274.614ZM136.206 274.452C136.71 274.974 137.286 275.712 137.538 276.216L138.528 275.73C138.258 275.226 137.682 274.524 137.142 274.02L136.206 274.452ZM129.366 260.898C129.132 263.436 128.502 265.326 125.802 266.28C126.072 266.496 126.396 266.928 126.54 267.216C129.564 266.046 130.338 263.886 130.626 260.898H129.366ZM154.71 264.912H160.596V268.584H154.71V264.912ZM153.486 263.724V269.736H161.856V263.724H153.486ZM156.96 260.97V268.926C156.96 271.77 156.78 275.046 152.712 276.432C153 276.684 153.378 277.188 153.54 277.476C157.77 275.748 158.238 272.202 158.238 268.926V260.97H156.96ZM154.782 270.384L153.648 270.636C154.89 274.38 157.41 276.594 161.586 277.494C161.766 277.134 162.108 276.612 162.396 276.324C158.382 275.64 155.88 273.642 154.782 270.384ZM147.168 264.39V265.47H152.55V264.39H147.168ZM147.168 267.18V268.26H152.55V267.18H147.168ZM147.114 269.952V271.05H152.388V269.952H147.114ZM149.454 262.302V270.456H150.57V262.302H149.454ZM150.12 271.842C150.534 272.58 150.948 273.552 151.092 274.2L151.776 273.93C151.596 273.318 151.182 272.328 150.75 271.608L150.12 271.842ZM148.896 272.13C149.22 273.048 149.508 274.272 149.58 275.046L150.3 274.866C150.228 274.11 149.94 272.922 149.58 271.986L148.896 272.13ZM147.636 272.292C147.816 273.372 147.924 274.704 147.888 275.622L148.626 275.514C148.644 274.632 148.536 273.264 148.338 272.202L147.636 272.292ZM146.322 272.022C146.196 273.21 145.908 274.992 145.566 276.054L146.43 276.396C146.736 275.298 146.988 273.498 147.15 272.292L146.322 272.022ZM146.466 261.636V271.05H147.618V262.77H152.928V261.636H146.466ZM151.938 269.952V270.15C151.74 274.29 151.524 275.82 151.218 276.198C151.074 276.36 150.93 276.396 150.678 276.378C150.444 276.378 149.832 276.378 149.184 276.306C149.346 276.63 149.472 277.08 149.49 277.404C150.156 277.458 150.822 277.44 151.164 277.422C151.632 277.386 151.902 277.26 152.172 276.954C152.64 276.396 152.838 274.848 153.054 270.492C153.072 270.33 153.09 269.952 153.09 269.952H151.938Z" fill="black"/>
<g clip-path="url(#clip2_4_2410)">
<path d="M228.273 213.357L228.335 213.223C212.846 193.973 219.194 177.454 219.194 177.454C228.016 185.207 231.349 198.539 232.493 204.645L237.919 193.4C237.848 192.782 234.24 176.711 219.682 173.953C219.655 173.953 207.358 202.121 228.273 213.357Z" fill="#FFA94C"/>
<path d="M228.335 213.223L232.466 204.645C231.349 198.539 228.033 185.207 219.167 177.454C219.203 177.454 212.846 193.973 228.335 213.223Z" fill="#FFC492"/>
<path d="M261.423 202.935L273.303 207.099C272.505 204.108 266.503 181.134 267.558 168.187C279.97 180.525 281.025 193.83 275.963 207.636C277.621 205.469 286.691 191.923 271.92 171.518L266.707 164.686C266.707 164.686 257.087 182.36 261.423 202.935Z" fill="#FFA94C"/>
<path d="M267.558 168.187C266.503 181.151 272.505 204.108 273.303 207.099L275.715 207.949L275.963 207.636C281.026 193.83 279.971 180.525 267.558 168.187Z" fill="#FFC492"/>
<path d="M221.863 216.563C241.297 218.962 254.569 213.68 254.569 213.68C272.372 219.123 281.752 218.523 286.691 216.509C288.075 214.761 289.231 212.841 290.131 210.797C290.131 210.797 287.373 212.184 286.185 211.19C286.185 211.19 290.335 209.516 291.203 207.752C291.203 207.752 286.416 210.322 282.71 206.373C282.71 206.373 273.188 182.342 252.131 181.742L251.076 181.689C249.214 181.545 241.324 181.456 234.231 189.451C234.231 189.451 227.856 195.996 222.945 214.414C222.71 215.188 222.344 215.915 221.863 216.563Z" fill="#FFA94C"/>
<path d="M214.433 219.58C214.433 219.58 219.194 227.011 237.875 233.297L243.832 234.908C252.277 237.184 261.271 235.996 268.852 231.604L269.056 231.488C269.056 231.488 280.201 225.077 286.788 216.509C281.85 218.523 272.47 219.123 254.667 213.68C254.667 213.68 241.368 218.962 221.96 216.563C220.781 218.165 218.574 220.001 214.433 219.58Z" fill="#FFC492"/>
<path d="M249.533 215.336C249.427 216.724 251.129 218.022 253.346 218.165C255.562 218.308 257.442 217.377 257.557 215.99C257.672 214.602 255.961 213.303 253.745 213.16C251.528 213.017 249.649 213.948 249.533 215.336Z" fill="#3E3A39"/>
<path d="M238.54 215.793C239.905 215.631 240.809 213.697 240.552 211.468C240.295 209.239 238.974 207.555 237.608 207.716C236.243 207.878 235.348 209.821 235.605 212.05C235.862 214.279 237.174 215.954 238.54 215.793Z" fill="#3E3A39"/>
<path d="M268.551 215.443C269.917 215.282 270.812 213.339 270.555 211.11C270.298 208.88 268.985 207.206 267.62 207.367C266.255 207.528 265.351 209.462 265.617 211.692C265.882 213.921 267.186 215.604 268.551 215.443Z" fill="#3E3A39"/>
<path d="M254.144 223.081C250.792 219.15 247.192 221.496 247.157 221.514C247.029 221.603 246.941 221.739 246.911 221.893C246.881 222.047 246.912 222.206 246.998 222.338C247.084 222.466 247.217 222.555 247.368 222.585C247.519 222.616 247.676 222.584 247.804 222.499C247.928 222.418 250.597 220.708 253.257 223.851C253.359 223.968 253.504 224.04 253.658 224.05C253.813 224.06 253.965 224.007 254.081 223.904C254.196 223.802 254.267 223.659 254.279 223.505C254.29 223.351 254.242 223.199 254.144 223.081Z" fill="#3E3A39"/>
<path d="M278.995 201.44C278.907 201.434 278.821 201.403 278.749 201.351C278.677 201.299 278.621 201.227 278.587 201.145C275.018 193.555 268.656 187.673 260.855 184.751C260.716 184.693 260.602 184.585 260.537 184.448C260.472 184.311 260.459 184.154 260.501 184.008C260.509 183.936 260.532 183.866 260.568 183.804C260.605 183.742 260.654 183.688 260.713 183.647C260.771 183.606 260.838 183.577 260.909 183.564C260.979 183.55 261.051 183.552 261.121 183.569C269.197 186.586 275.789 192.667 279.491 200.518C279.56 200.656 279.58 200.814 279.548 200.966C279.516 201.117 279.433 201.253 279.314 201.351C279.223 201.421 279.109 201.453 278.995 201.44Z" fill="white"/>
</g>
<circle cx="280.5" cy="241.5" r="18.5" fill="#424242"/>
<path d="M273 242.115L279.857 249L289 234" stroke="white" stroke-width="5" stroke-linecap="round"/>
<path d="M242.362 262.464V277.44H243.784V262.464H242.362ZM239.194 266.424V272.292H240.472V266.424H239.194ZM235.252 264.66V265.902H250.912V264.66H235.252ZM235.738 267.666V268.782H239.95V267.666H235.738ZM248.698 260.988C245.764 261.6 240.598 261.978 236.404 262.122C236.53 262.428 236.674 262.932 236.71 263.274C240.904 263.184 246.106 262.806 249.31 262.158L248.698 260.988ZM242.542 269.808C241.048 272.418 238.006 274.758 234.712 275.712C235.018 275.982 235.396 276.486 235.594 276.828C238.924 275.712 241.93 273.174 243.568 270.204L242.542 269.808ZM243.658 269.844L242.65 270.204C244.288 273.192 247.276 275.766 250.552 276.9C250.768 276.558 251.146 276.036 251.434 275.784C248.194 274.83 245.134 272.454 243.658 269.844ZM235.216 270.996L235.504 272.148C236.818 271.914 238.42 271.608 240.022 271.302L239.968 270.258C238.186 270.564 236.44 270.834 235.216 270.996ZM245.674 266.388V270.816C245.674 272.094 245.998 272.454 247.384 272.454C247.654 272.454 249.148 272.454 249.454 272.454C250.498 272.454 250.84 272.04 251.002 270.402C250.642 270.33 250.12 270.15 249.868 269.952C249.832 271.14 249.742 271.302 249.31 271.302C248.986 271.302 247.762 271.302 247.528 271.302C247.006 271.302 246.916 271.23 246.916 270.816V266.388H245.674ZM249.49 267.09C248.644 267.558 247.24 268.134 246.07 268.548C246.214 268.818 246.376 269.232 246.43 269.484C247.672 269.106 249.184 268.602 250.318 268.08L249.49 267.09ZM260.668 264.066C259.75 265.47 258.004 267.036 255.502 268.152C255.808 268.35 256.222 268.8 256.42 269.124C259.066 267.81 260.884 266.1 262.126 264.354L260.668 264.066ZM260.47 265.416L259.498 266.496H266.734V265.416H260.47ZM266.356 265.416V265.632C264.304 268.8 259.156 270.978 254.53 271.824C254.782 272.13 255.07 272.67 255.196 273.012C260.038 271.986 265.348 269.7 267.76 265.92L266.86 265.362L266.608 265.416H266.356ZM259.948 266.262L258.76 266.802C261.172 269.916 265.528 271.842 270.37 272.598C270.568 272.202 270.928 271.626 271.234 271.32C266.41 270.708 262.054 268.962 259.948 266.262ZM257.932 271.896V277.422H259.264V273.048H266.554V277.404H267.94V271.896H257.932ZM258.598 275.676V276.828H267.238V275.676H258.598ZM262.162 260.898V263.238H263.548V260.898H262.162ZM255.268 262.518V265.92H256.6V263.76H269.128V265.92H270.496V262.518H255.268Z" fill="black"/>
<g clip-path="url(#clip3_4_2410)">
<path d="M389.14 222.61C389.14 222.61 397.14 233.24 359.99 235.44C338.71 236.7 315.45 234.05 314.15 226.6" fill="#8DCEBF"/>
<path d="M339.18 231.04L339.6 229.39C344.14 230.67 352.33 229.99 355.6 229.64C355.6 229.53 355.6 229.48 355.6 229.5C356.573 229.549 357.549 229.492 358.51 229.33C365.07 228.6 381.11 226.04 389.12 222.61C399.28 218.25 402.27 211.55 401.7 205.14C401.548 202.96 400.671 200.894 399.21 199.27C397.12 197.04 394.21 196.57 392.21 199.04L360.12 196.8C360.12 196.8 361.92 185.15 355.04 184.07C348.16 182.99 346.97 193.88 347.15 194.28C347.33 194.68 338.15 194.93 333.67 197.39C333.67 197.39 335.81 186.06 327.6 184.95C319.39 183.84 319.1 195.63 319.04 196.55C318.81 199.9 311.04 198.9 311.77 203.08C312.05 204.58 315.41 204.88 315.41 204.88C315.41 204.88 308.98 205.81 309.41 208.88C309.7 210.98 314.41 211.37 314.41 211.37C314.41 211.37 309 213.15 309.41 216.15C309.65 217.79 311.95 219.29 314.12 218.81C314.12 218.81 308.58 219.94 309 222.56C309.42 225.18 313.75 224.93 314.12 224.9C314.49 224.87 311.26 225.36 311.49 227.95C311.72 230.54 319.3 230.24 319.3 230.24" fill="#8DCEBF"/>
<path d="M329.48 196.45C329.24 197.97 328.13 199.06 327 198.89C325.87 198.72 325.15 197.33 325.39 195.81C325.63 194.29 326.74 193.19 327.87 193.37C329 193.55 329.7 194.93 329.48 196.45Z" fill="#3E3A39"/>
<path d="M356.29 194.46C356.05 195.98 354.94 197.07 353.81 196.9C352.68 196.73 351.96 195.34 352.2 193.82C352.44 192.3 353.54 191.21 354.68 191.38C355.82 191.55 356.53 192.94 356.29 194.46Z" fill="#3E3A39"/>
<path d="M389.02 212.35C387.25 211.75 383.53 207.85 385.59 205.71C387.65 203.57 392.66 213.59 389.02 212.35Z" fill="#3E3A39"/>
<path d="M395.62 212.25C397.24 211.33 400.15 206.79 397.72 205.08C395.29 203.37 392.27 214.14 395.62 212.25Z" fill="#3E3A39"/>
<path d="M389.14 222.61C389.14 222.61 377.34 230 349.26 229.8C321.18 229.6 329.85 220.09 329.85 220.09" stroke="#3E3A39" stroke-linecap="round" stroke-linejoin="round"/>
</g>
<circle cx="382.5" cy="241.5" r="18.5" fill="#424242"/>
<path d="M375 242.115L381.857 249L391 234" stroke="white" stroke-width="5" stroke-linecap="round"/>
<path d="M345.64 275.568V276.756H351.58V275.568H345.64ZM346.522 262.734V263.904H351.274V262.734H346.522ZM345.118 270.924V277.404H346.36V272.094H350.896V277.35H352.192V270.924H345.118ZM350.788 262.734V262.968C349.618 266.73 346.432 269.628 343.246 270.852C343.516 271.104 343.876 271.572 344.038 271.878C347.458 270.42 350.752 267.468 352.138 263.04L351.274 262.68L351.022 262.734H350.788ZM346.828 260.88C346.144 263.094 344.902 265.2 343.426 266.55C343.75 266.748 344.272 267.18 344.488 267.414C345.982 265.92 347.314 263.634 348.124 261.186L346.828 260.88ZM346.468 263.472L345.586 264.21C346.684 266.802 349.06 270.06 352.768 271.662C352.948 271.32 353.326 270.798 353.614 270.546C349.924 269.142 347.512 266.046 346.468 263.472ZM337.702 268.872V275.406H338.836V268.872H337.702ZM338.908 262.824H342.292V265.992H338.908V262.824ZM337.702 261.636V267.18H343.552V261.636H337.702ZM340.24 266.586V274.812H341.464V266.586H340.24ZM336.766 275.262L337.018 276.576C338.908 276.108 341.5 275.478 343.966 274.866L343.84 273.66C341.248 274.272 338.548 274.902 336.766 275.262ZM340.672 269.79V270.996H343.714V269.79H340.672ZM363.964 261.438C363.838 263.832 363.838 272.49 356.494 276.234C356.908 276.54 357.358 276.954 357.592 277.296C365.044 273.246 365.314 264.264 365.458 261.438H363.964ZM365.404 261.798L364.108 261.924C364.234 263.58 364.738 273.642 372.37 277.296C372.586 276.918 373 276.468 373.396 276.162C365.98 272.76 365.458 263.202 365.404 261.798Z" fill="black"/>
<g clip-path="url(#clip4_4_2410)">
<path d="M468.089 200.518L466.462 196.726C466.383 196.54 466.256 196.377 466.093 196.253C465.931 196.128 465.739 196.047 465.535 196.016L452.628 194.041C452.108 193.962 451.584 193.914 451.059 193.9L426.253 193.282L426.091 199.488L468.089 200.518Z" fill="#3E3A39"/>
<path d="M467.239 199.953L465.948 196.938C465.906 196.837 465.837 196.749 465.75 196.682C465.662 196.615 465.558 196.571 465.448 196.554L452.541 194.58C452.046 194.503 451.545 194.459 451.044 194.447L426.799 193.841L426.663 198.946L467.239 199.953Z" fill="#9D6658"/>
<path d="M468.089 200.518L466.442 196.678C466.414 196.613 466.371 196.555 466.316 196.509C466.262 196.463 466.197 196.43 466.126 196.413C466.056 196.396 465.983 196.395 465.912 196.41C465.842 196.425 465.776 196.456 465.72 196.501L460.868 200.337L468.089 200.518Z" fill="#361F3E"/>
<path d="M438.235 199.773L436.597 195.942C436.521 195.766 436.402 195.611 436.251 195.489C436.1 195.367 435.921 195.283 435.73 195.243L426.25 193.268L422.274 193.166C422.078 193.162 421.886 193.218 421.724 193.325C421.562 193.433 421.439 193.588 421.372 193.767L419.332 199.293L438.235 199.773Z" fill="#3E3A39"/>
<path d="M438.235 199.773L436.591 195.931C436.563 195.866 436.52 195.809 436.465 195.763C436.41 195.717 436.345 195.685 436.275 195.667C436.205 195.65 436.132 195.649 436.062 195.664C435.991 195.679 435.925 195.709 435.869 195.753L431.017 199.592L438.235 199.773Z" fill="#3E3A39"/>
<path d="M440.971 196.938L449.016 196.599L447.418 190.393L441.084 190.659C440.946 190.665 440.811 190.699 440.688 190.759C440.565 190.819 440.456 190.904 440.368 191.008C440.281 191.112 440.217 191.233 440.18 191.363C440.144 191.493 440.136 191.629 440.157 191.762L440.971 196.938Z" fill="#B88872"/>
<path d="M442.922 196.856L450.949 196.518L451.099 195.762C451.22 195.142 451.206 194.505 451.058 193.891L450.348 190.98C450.298 190.783 450.181 190.608 450.014 190.485C449.848 190.363 449.643 190.3 449.435 190.309L442.959 190.591C442.884 190.594 442.811 190.613 442.743 190.645C442.676 190.678 442.616 190.724 442.568 190.781C442.52 190.838 442.485 190.903 442.465 190.974C442.445 191.045 442.44 191.119 442.451 191.192L442.974 194.701C443.021 195.018 443.034 195.338 443.011 195.657L442.922 196.856Z" fill="#9D6658"/>
<path d="M450.715 196.255L450.825 195.708C450.939 195.128 450.926 194.531 450.787 193.956L450.076 191.045C450.043 190.909 449.963 190.788 449.848 190.703C449.734 190.619 449.593 190.576 449.449 190.583L442.971 190.865C442.935 190.866 442.899 190.875 442.867 190.891C442.834 190.907 442.806 190.93 442.783 190.958C442.759 190.984 442.742 191.016 442.732 191.05C442.722 191.084 442.72 191.12 442.725 191.155L443.251 194.664C443.3 195.001 443.313 195.341 443.289 195.68L443.222 196.58L450.715 196.255Z" fill="#CFA289"/>
<path d="M459.048 196.179L467.092 195.841L465.494 189.635L459.16 189.9C459.023 189.906 458.888 189.94 458.765 190C458.641 190.06 458.532 190.145 458.445 190.249C458.357 190.353 458.293 190.474 458.257 190.604C458.22 190.734 458.212 190.87 458.233 191.003L459.048 196.179Z" fill="#B88872"/>
<path d="M460.998 196.097L469.025 195.759L469.175 195.003C469.296 194.384 469.283 193.746 469.135 193.133L468.424 190.221C468.375 190.024 468.258 189.849 468.092 189.727C467.926 189.604 467.722 189.542 467.514 189.55L461.036 189.832C460.961 189.836 460.887 189.855 460.819 189.888C460.752 189.921 460.692 189.967 460.644 190.024C460.597 190.081 460.561 190.147 460.541 190.218C460.521 190.289 460.516 190.363 460.527 190.436L461.05 193.945C461.099 194.261 461.112 194.582 461.088 194.901L460.998 196.097Z" fill="#9D6658"/>
<path d="M468.791 195.508L468.901 194.961C469.017 194.381 469.004 193.783 468.863 193.209L468.153 190.298C468.12 190.161 468.039 190.04 467.925 189.956C467.81 189.871 467.669 189.829 467.526 189.835L461.05 190.117C461.014 190.118 460.978 190.127 460.945 190.143C460.912 190.159 460.883 190.182 460.86 190.21C460.836 190.237 460.818 190.268 460.808 190.303C460.798 190.337 460.796 190.373 460.802 190.408L461.328 193.917C461.378 194.252 461.39 194.592 461.365 194.929L461.299 195.832L468.791 195.508Z" fill="#CFA289"/>
<path d="M437.92 198.489C437.899 198.014 438.052 197.547 438.353 197.173C438.653 196.798 439.081 196.541 439.559 196.447C440.475 196.262 441.404 196.143 442.338 196.092L468.202 195.006C468.564 194.991 468.918 195.117 469.185 195.357C469.452 195.597 469.61 195.93 469.626 196.284L469.722 198.453C469.737 198.807 469.608 199.152 469.364 199.413C469.119 199.674 468.778 199.83 468.415 199.846L439.521 201.059C439.327 201.068 439.132 201.038 438.95 200.973C438.767 200.908 438.599 200.809 438.456 200.681C438.313 200.552 438.197 200.397 438.115 200.225C438.033 200.053 437.986 199.867 437.978 199.677L437.92 198.489Z" fill="#B88872"/>
<path d="M469.581 194.9L442.35 196.042C441.456 196.08 440.762 196.818 440.8 197.691L440.874 199.368C440.912 200.241 441.669 200.919 442.563 200.881L469.794 199.739C470.688 199.702 471.382 198.963 471.344 198.09L471.27 196.413C471.232 195.54 470.476 194.863 469.581 194.9Z" fill="#9D6658"/>
<path d="M469.631 195.169L442.399 196.311C441.66 196.342 441.086 196.953 441.118 197.675L441.192 199.355C441.223 200.077 441.849 200.637 442.588 200.606L469.82 199.464C470.559 199.433 471.133 198.823 471.101 198.1L471.028 196.421C470.996 195.698 470.37 195.138 469.631 195.169Z" fill="#CFA289"/>
<path d="M474.174 184.788L478.017 184.628C478.188 184.628 478.349 185.11 478.375 185.719C478.401 186.329 478.286 186.828 478.113 186.848L474.269 187.008C474.099 187.008 473.937 186.526 473.911 185.917C473.885 185.308 474.001 184.808 474.174 184.788Z" fill="#361F3E"/>
<path d="M477.038 186.12C477.136 186.117 477.23 186.077 477.301 186.01C477.346 185.966 477.381 185.911 477.401 185.851C477.421 185.792 477.426 185.728 477.416 185.666L477.078 183.632C477.075 183.611 477.067 183.59 477.055 183.572C477.043 183.553 477.028 183.537 477.01 183.525C476.992 183.512 476.972 183.503 476.95 183.498C476.929 183.494 476.906 183.493 476.885 183.497C476.84 183.503 476.8 183.527 476.774 183.563C476.747 183.598 476.736 183.642 476.743 183.685L477.081 185.719C477.083 185.729 477.083 185.739 477.08 185.748C477.077 185.758 477.071 185.766 477.064 185.773C477.056 185.78 477.048 185.785 477.038 185.788C477.029 185.79 477.019 185.791 477.009 185.79L476.541 185.705C476.519 185.701 476.496 185.701 476.474 185.706C476.452 185.71 476.431 185.719 476.413 185.731C476.394 185.744 476.378 185.759 476.366 185.778C476.354 185.796 476.345 185.816 476.341 185.838C476.334 185.881 476.345 185.925 476.371 185.961C476.397 185.997 476.436 186.021 476.48 186.03L476.948 186.114C476.977 186.12 477.008 186.122 477.038 186.12V186.12Z" fill="#3F294A"/>
<g opacity="0.7">
<path opacity="0.7" d="M469.537 195.601L463.7 184.709C463.674 184.668 463.658 184.621 463.655 184.573C463.651 184.525 463.66 184.476 463.68 184.432C463.699 184.387 463.73 184.348 463.769 184.318C463.808 184.288 463.853 184.267 463.902 184.258L487.824 183.883C487.969 183.88 488.113 183.91 488.245 183.969C488.376 184.029 488.492 184.117 488.584 184.227L499.991 194.43C500.153 194.614 500.052 194.927 499.83 194.938L470.45 196.171C470.258 196.17 470.07 196.117 469.908 196.016C469.746 195.915 469.617 195.771 469.537 195.601V195.601ZM468.381 196.712L462.391 184.817C462.356 184.749 462.267 184.786 462.278 184.865L464.2 196.901C464.207 196.996 464.25 197.086 464.32 197.152C464.391 197.218 464.484 197.256 464.581 197.259L468.193 197.107C468.235 197.098 468.274 197.079 468.307 197.052C468.34 197.026 468.366 196.991 468.383 196.953C468.4 196.914 468.407 196.872 468.404 196.831C468.402 196.789 468.389 196.748 468.366 196.712H468.381Z" fill="#595757"/>
<path opacity="0.7" d="M473.643 183.849L467.017 190.901L469.537 195.604C469.615 195.766 469.737 195.904 469.889 196.004C470.042 196.103 470.22 196.16 470.403 196.168L482.322 183.474L473.643 183.849Z" fill="#717071"/>
<path opacity="0.7" d="M468.17 197.107C468.213 197.099 468.253 197.082 468.288 197.055C468.322 197.029 468.349 196.995 468.368 196.957C468.386 196.918 468.394 196.875 468.392 196.833C468.39 196.79 468.377 196.749 468.355 196.712L465.98 191.993L463.769 194.343L464.177 196.901C464.184 196.996 464.227 197.086 464.297 197.152C464.368 197.218 464.46 197.256 464.558 197.259L468.17 197.107Z" fill="#759CB1"/>
<path opacity="0.7" d="M488.561 185.432C488.715 185.268 488.802 185.056 488.806 184.834C488.811 184.612 488.731 184.396 488.584 184.227V184.227C488.492 184.117 488.376 184.029 488.245 183.969C488.113 183.91 487.969 183.88 487.824 183.883L484.877 184.007C484.631 184.015 484.399 184.116 484.229 184.289L474.405 195.993L480.022 195.756L488.561 185.432Z" fill="#717071"/>
<path opacity="0.7" d="M499.991 194.43L493.23 188.165L487 195.477L499.83 194.938C500.052 194.927 500.153 194.614 499.991 194.43Z" fill="#717071"/>
</g>
<path d="M488.436 183.378C488.337 183.259 488.212 183.163 488.069 183.099C487.926 183.034 487.77 183.002 487.613 183.006L462.365 183.437L470.424 198.473L502.936 197.107L488.436 183.378ZM499.83 194.944L470.45 196.176C470.258 196.177 470.071 196.124 469.909 196.024C469.748 195.924 469.618 195.781 469.537 195.612L463.7 184.721C463.674 184.68 463.658 184.633 463.655 184.584C463.651 184.536 463.66 184.488 463.68 184.443C463.699 184.399 463.73 184.36 463.769 184.329C463.808 184.299 463.853 184.279 463.902 184.269L487.824 183.894C487.969 183.892 488.113 183.921 488.245 183.981C488.376 184.04 488.492 184.128 488.584 184.238L499.991 194.441C500.153 194.614 500.052 194.927 499.83 194.944V194.944Z" fill="#FF6100"/>
<path d="M462.365 183.432H462.015L464.327 198.709L470.568 198.447L462.59 183.559C462.568 183.519 462.535 183.487 462.496 183.465C462.456 183.442 462.411 183.431 462.365 183.432V183.432ZM468.181 197.107L464.57 197.259C464.472 197.256 464.379 197.218 464.309 197.152C464.238 197.086 464.195 196.996 464.188 196.901L462.267 184.865C462.267 184.786 462.345 184.749 462.379 184.817L468.366 196.712C468.389 196.75 468.401 196.792 468.403 196.835C468.404 196.879 468.395 196.922 468.375 196.961C468.356 197 468.327 197.033 468.291 197.059C468.256 197.084 468.214 197.101 468.17 197.107H468.181Z" fill="#FF6100"/>
<path d="M462.036 183.446H461.908C461.878 183.45 461.849 183.461 461.823 183.477C461.797 183.493 461.775 183.514 461.758 183.539C461.741 183.564 461.729 183.592 461.724 183.622C461.718 183.651 461.719 183.682 461.726 183.711L464 198.732L470.245 198.47L462.264 183.581C462.243 183.54 462.21 183.505 462.17 183.481C462.129 183.457 462.083 183.445 462.036 183.446V183.446ZM463.232 186.509L468.366 196.712C468.388 196.749 468.401 196.79 468.403 196.833C468.406 196.875 468.397 196.918 468.379 196.957C468.361 196.995 468.334 197.029 468.299 197.056C468.265 197.082 468.224 197.099 468.181 197.107L464.57 197.259C464.472 197.256 464.379 197.218 464.309 197.152C464.238 197.086 464.195 196.996 464.188 196.901L462.561 186.718C462.547 186.636 462.564 186.551 462.609 186.48C462.653 186.408 462.722 186.355 462.804 186.33C462.885 186.304 462.973 186.309 463.052 186.342C463.131 186.374 463.195 186.434 463.232 186.509V186.509Z" fill="#FF6100"/>
<path d="M417.532 218.193L476.925 219.677C477.402 219.691 477.878 219.646 478.344 219.544L488.101 217.44C488.957 217.256 489.759 216.888 490.45 216.362C491.141 215.836 491.704 215.167 492.096 214.402C492.488 213.637 492.7 212.797 492.717 211.942C492.734 211.087 492.554 210.239 492.193 209.46L491.834 208.69C491.381 207.706 490.652 206.866 489.732 206.267C488.813 205.669 487.739 205.335 486.633 205.305L419.541 203.629C417.324 203.573 417.298 204.786 416.244 206.69L414.545 209.756C413.925 210.876 413.703 212.165 413.915 213.421C414.127 214.677 414.76 215.829 415.715 216.695V216.695C416.758 217.663 416.099 218.157 417.532 218.193Z" fill="#3E3A39"/>
<path d="M477.075 219.821H476.919L417.529 218.337C416.608 218.315 416.457 218.095 416.252 217.68C416.102 217.35 415.883 217.055 415.608 216.814C414.63 215.925 413.981 214.745 413.764 213.458C413.547 212.171 413.774 210.85 414.409 209.702L416.108 206.636C416.316 206.261 416.486 205.908 416.637 205.595C417.255 204.306 417.668 203.451 419.526 203.502L486.622 205.178C487.753 205.211 488.852 205.552 489.795 206.162C490.738 206.773 491.488 207.629 491.959 208.633L492.317 209.403C492.691 210.203 492.876 211.075 492.858 211.953C492.841 212.832 492.621 213.696 492.216 214.481C491.815 215.264 491.239 215.949 490.531 216.486C489.823 217.023 489.001 217.398 488.124 217.584L478.367 219.688C477.942 219.778 477.509 219.823 477.075 219.821ZM419.387 203.779C417.827 203.779 417.492 204.475 416.897 205.711C416.746 206.027 416.573 206.385 416.362 206.769L414.663 209.835C414.06 210.929 413.847 212.188 414.056 213.413C414.265 214.638 414.885 215.761 415.819 216.605C416.119 216.87 416.361 217.193 416.527 217.553C416.694 217.891 416.764 218.032 417.55 218.052L476.942 219.536C477.407 219.549 477.872 219.506 478.326 219.406L488.084 217.305C488.919 217.126 489.703 216.767 490.377 216.254C491.052 215.741 491.6 215.087 491.982 214.34C492.365 213.594 492.573 212.773 492.59 211.939C492.606 211.104 492.431 210.276 492.077 209.516L491.719 208.749C491.27 207.792 490.557 206.977 489.659 206.395C488.761 205.813 487.714 205.488 486.636 205.457L419.543 203.781L419.387 203.779Z" fill="#3E3A39"/>
<path d="M486.619 207.812L483.045 207.725L483.027 208.408C481.266 209.057 479.743 210.205 478.652 211.704C477.561 213.202 476.953 214.984 476.905 216.822C476.857 218.66 477.371 220.47 478.381 222.022C479.391 223.573 480.852 224.796 482.577 225.533L482.559 226.219L486.134 226.306C487.377 226.337 488.615 226.129 489.777 225.693C490.938 225.257 492 224.602 492.902 223.765C493.804 222.929 494.529 221.927 495.034 220.817C495.54 219.707 495.816 218.51 495.848 217.296C495.912 214.844 494.975 212.467 493.245 210.689C491.514 208.911 489.131 207.876 486.619 207.812Z" fill="#3E3A39"/>
<path d="M486.373 226.45H486.125L482.551 226.363C482.531 226.362 482.513 226.358 482.495 226.35C482.477 226.343 482.461 226.332 482.448 226.318C482.435 226.305 482.425 226.288 482.418 226.271C482.411 226.253 482.408 226.235 482.409 226.216L482.424 225.626C480.692 224.871 479.229 223.631 478.22 222.064C477.211 220.497 476.701 218.673 476.754 216.822C476.798 214.971 477.404 213.174 478.494 211.659C479.585 210.144 481.111 208.979 482.88 208.312V207.722C482.882 207.685 482.897 207.65 482.923 207.623C482.937 207.611 482.954 207.601 482.972 207.595C482.989 207.588 483.008 207.586 483.027 207.587L486.602 207.674C489.151 207.741 491.57 208.793 493.326 210.598C495.083 212.404 496.034 214.815 495.972 217.305C495.904 219.748 494.863 222.07 493.072 223.777C491.28 225.484 488.877 226.443 486.373 226.45V226.45ZM482.701 226.08L486.131 226.165C488.604 226.225 491 225.324 492.794 223.661C494.587 221.998 495.632 219.708 495.698 217.293C495.757 214.879 494.835 212.541 493.131 210.79C491.428 209.039 489.083 208.019 486.61 207.953L483.181 207.869L483.166 208.41C483.165 208.439 483.155 208.466 483.138 208.489C483.121 208.512 483.098 208.53 483.071 208.54C481.334 209.177 479.832 210.306 478.758 211.783C477.683 213.26 477.086 215.017 477.043 216.828C476.991 218.639 477.496 220.423 478.491 221.952C479.486 223.481 480.927 224.684 482.629 225.406C482.655 225.417 482.678 225.435 482.694 225.459C482.709 225.483 482.717 225.511 482.715 225.539L482.701 226.08Z" fill="#3E3A39"/>
<path d="M482.799 226.221C488.032 226.221 492.274 222.08 492.274 216.972C492.274 211.863 488.032 207.722 482.799 207.722C477.567 207.722 473.325 211.863 473.325 216.972C473.325 222.08 477.567 226.221 482.799 226.221Z" fill="#878787"/>
<path d="M482.808 226.362H482.557C480.007 226.295 477.589 225.244 475.832 223.438C474.075 221.633 473.124 219.221 473.186 216.732C473.255 214.244 474.332 211.884 476.18 210.169C478.029 208.455 480.499 207.526 483.048 207.587C485.597 207.653 488.015 208.704 489.772 210.509C491.529 212.314 492.48 214.725 492.418 217.214C492.389 218.448 492.11 219.663 491.596 220.79C491.083 221.917 490.346 222.934 489.428 223.781C487.644 225.443 485.273 226.367 482.808 226.362ZM482.808 207.863C480.417 207.858 478.116 208.755 476.388 210.368C475.499 211.191 474.786 212.177 474.29 213.271C473.794 214.364 473.525 215.542 473.498 216.738C473.437 219.152 474.36 221.491 476.064 223.242C477.767 224.993 480.113 226.013 482.585 226.078C483.811 226.113 485.031 225.91 486.176 225.48C487.32 225.051 488.366 224.403 489.251 223.575C490.14 222.752 490.853 221.765 491.349 220.672C491.845 219.578 492.114 218.399 492.141 217.203C492.175 216.007 491.967 214.817 491.527 213.7C491.087 212.583 490.424 211.563 489.578 210.698C488.736 209.829 487.726 209.133 486.606 208.649C485.486 208.164 484.278 207.902 483.053 207.877L482.808 207.863Z" fill="#3E3A39"/>
<path d="M484.901 223.418C488.531 222.286 490.534 218.496 489.375 214.952C488.216 211.408 484.333 209.452 480.703 210.584C477.073 211.716 475.07 215.506 476.229 219.05C477.388 222.594 481.271 224.55 484.901 223.418Z" fill="white"/>
<path d="M482.805 223.849H482.62C480.753 223.8 478.983 223.029 477.697 221.707C476.411 220.385 475.715 218.619 475.76 216.797C475.81 214.974 476.598 213.245 477.953 211.989C479.307 210.733 481.117 210.054 482.984 210.1C484.852 210.148 486.623 210.918 487.91 212.24C489.197 213.562 489.893 215.329 489.847 217.152V217.152C489.796 218.944 489.032 220.645 487.718 221.896C486.403 223.146 484.64 223.847 482.805 223.849ZM482.805 210.377C481.044 210.378 479.353 211.051 478.093 212.251C476.832 213.451 476.101 215.084 476.055 216.803C476.009 218.552 476.677 220.247 477.91 221.517C479.144 222.786 480.843 223.525 482.634 223.573C484.426 223.617 486.162 222.965 487.462 221.761C488.762 220.557 489.52 218.898 489.569 217.149C489.615 215.4 488.948 213.705 487.714 212.436C486.481 211.166 484.782 210.427 482.99 210.379L482.805 210.377Z" fill="#3E3A39"/>
<path d="M514.196 208.504L510.622 208.413C508.11 208.351 505.676 209.265 503.854 210.955C502.032 212.644 500.972 214.971 500.907 217.423C500.876 218.637 501.089 219.846 501.535 220.98C501.982 222.114 502.653 223.15 503.51 224.031C504.367 224.912 505.393 225.619 506.53 226.112C507.667 226.606 508.892 226.876 510.136 226.907L513.711 226.997C516.222 227.059 518.657 226.145 520.478 224.456C522.3 222.766 523.36 220.439 523.425 217.987C523.457 216.773 523.243 215.564 522.797 214.431C522.35 213.297 521.679 212.26 520.822 211.379C519.965 210.499 518.939 209.791 517.802 209.298C516.665 208.805 515.44 208.535 514.196 208.504V208.504Z" fill="#3E3A39"/>
<path d="M426.657 206.315L421.875 206.193L421.771 210.142C421.007 211.81 420.598 213.611 420.569 215.437C420.501 217.267 420.816 219.09 421.494 220.797L421.39 224.746L426.172 224.865C429.399 224.946 432.127 220.865 432.26 215.75C432.393 210.636 429.885 206.394 426.657 206.315Z" fill="#3E3A39"/>
<path d="M426.273 224.975H426.177L421.393 224.856C421.355 224.854 421.32 224.838 421.294 224.811C421.28 224.798 421.269 224.783 421.262 224.765C421.255 224.747 421.252 224.728 421.254 224.709L421.355 220.8C420.682 219.086 420.368 217.258 420.433 215.423C420.462 213.588 420.871 211.777 421.635 210.1L421.739 206.19C421.74 206.172 421.744 206.153 421.752 206.136C421.76 206.119 421.771 206.104 421.786 206.092C421.813 206.066 421.849 206.052 421.887 206.052L426.669 206.174C428.284 206.213 429.769 207.237 430.853 209.059C431.936 210.882 432.479 213.226 432.413 215.725C432.268 220.856 429.524 224.975 426.273 224.975ZM421.546 224.577L426.183 224.693C429.327 224.786 431.991 220.743 432.124 215.717C432.188 213.268 431.647 210.955 430.604 209.2C429.561 207.446 428.171 206.492 426.663 206.456L422.04 206.34L421.939 210.137C421.941 210.156 421.941 210.175 421.939 210.193C421.182 211.843 420.777 213.625 420.748 215.432C420.683 217.238 420.994 219.038 421.661 220.724C421.664 220.742 421.664 220.761 421.661 220.78L421.546 224.577Z" fill="#3E3A39"/>
<path d="M427.426 215.585C427.561 210.471 425.052 206.259 421.823 206.178C418.595 206.097 415.868 210.178 415.734 215.292C415.599 220.407 418.108 224.618 421.337 224.699C424.565 224.78 427.292 220.7 427.426 215.585Z" fill="#878787"/>
<path d="M421.482 224.845H421.384C418.081 224.76 415.507 220.478 415.643 215.293C415.709 212.794 416.385 210.458 417.55 208.715C418.714 206.972 420.266 206.004 421.884 206.041C423.502 206.078 424.984 207.107 426.068 208.927C427.151 210.746 427.695 213.093 427.628 215.592C427.486 220.738 424.742 224.845 421.482 224.845ZM421.771 206.323C420.295 206.323 418.882 207.223 417.784 208.862C416.648 210.554 415.987 212.848 415.923 215.293C415.79 220.323 418.235 224.478 421.384 224.557C424.534 224.636 427.192 220.608 427.325 215.581C427.388 213.133 426.848 210.82 425.805 209.065C424.762 207.31 423.372 206.357 421.864 206.317L421.771 206.323Z" fill="#3E3A39"/>
<path d="M425.722 215.542C425.817 211.92 424.041 208.937 421.755 208.879C419.469 208.822 417.539 211.712 417.444 215.335C417.348 218.958 419.124 221.941 421.411 221.998C423.697 222.055 425.627 219.165 425.722 215.542Z" fill="white"/>
<path d="M421.525 222.157H421.456C419.093 222.097 417.249 219.054 417.347 215.35C417.356 213.698 417.825 212.08 418.705 210.67C419.549 209.406 420.65 208.732 421.809 208.757C422.967 208.783 424.031 209.519 424.805 210.822C425.61 212.275 425.994 213.914 425.917 215.564C425.822 219.22 423.857 222.157 421.525 222.157ZM421.736 209.037C420.705 209.037 419.714 209.666 418.948 210.819C418.098 212.188 417.645 213.755 417.636 215.355C417.544 218.893 419.26 221.818 421.465 221.872C423.669 221.925 425.536 219.093 425.628 215.553C425.705 213.955 425.335 212.368 424.556 210.961C423.834 209.745 422.855 209.062 421.8 209.037H421.736Z" fill="#3E3A39"/>
<path d="M533.122 218.952L501.286 220.295C500.918 220.313 500.557 220.193 500.277 219.959C499.996 219.726 499.818 219.397 499.778 219.039L499.399 215.855C499.387 215.768 499.368 215.682 499.341 215.598L496.591 207.006C495.553 205.079 496.958 205.209 497.908 205.164L507.192 204.718L529.172 203.973C529.317 203.968 529.462 203.984 529.603 204.021L531.761 204.585C531.968 204.639 532.161 204.738 532.324 204.873C532.487 205.009 532.618 205.179 532.706 205.37L534.728 209.731C534.823 209.935 534.867 210.158 534.858 210.382L534.515 217.592C534.502 217.949 534.351 218.288 534.092 218.54C533.834 218.792 533.487 218.939 533.122 218.952V218.952Z" fill="#E5E5E5"/>
<path d="M501.222 220.436C500.831 220.434 500.454 220.293 500.162 220.039C499.87 219.785 499.683 219.436 499.636 219.056L499.255 215.872C499.246 215.792 499.228 215.714 499.203 215.638L496.452 207.048C496.076 206.351 495.984 205.838 496.183 205.502C496.443 205.071 497.09 205.048 497.663 205.031H497.902L507.183 204.585L529.166 203.841C529.326 203.836 529.486 203.854 529.64 203.894L531.798 204.458C532.026 204.518 532.237 204.626 532.417 204.776C532.596 204.925 532.739 205.111 532.836 205.322L534.858 209.683C534.963 209.906 535.011 210.151 535 210.396L534.656 217.606C534.64 217.997 534.473 218.366 534.19 218.642C533.907 218.917 533.527 219.079 533.128 219.093L501.292 220.436H501.222ZM529.221 204.114H529.175L507.195 204.859L497.914 205.305H497.671C497.174 205.305 496.611 205.338 496.435 205.635C496.29 205.877 496.385 206.312 496.723 206.932L499.486 215.547C499.514 215.639 499.535 215.734 499.546 215.829L499.928 219.011C499.968 219.332 500.129 219.625 500.381 219.835C500.633 220.044 500.956 220.153 501.286 220.14L533.122 218.797C533.449 218.784 533.76 218.652 533.991 218.426C534.223 218.2 534.359 217.898 534.373 217.578L534.717 210.371C534.725 210.169 534.685 209.968 534.601 209.784L532.579 205.423C532.499 205.251 532.382 205.098 532.235 204.976C532.088 204.854 531.916 204.764 531.729 204.715L529.571 204.151C529.456 204.123 529.339 204.111 529.221 204.114Z" fill="#3E3A39"/>
<path d="M533.038 213.367L533.191 215.88C533.214 216.265 533.081 216.643 532.82 216.932C532.559 217.222 532.192 217.399 531.798 217.426L523.419 217.99L504.704 218.684C504.322 218.674 503.952 218.548 503.647 218.323C503.342 218.098 503.117 217.785 503.002 217.429L501.953 214.574C501.913 214.443 501.905 214.304 501.93 214.169C501.954 214.034 502.011 213.906 502.095 213.797C502.18 213.687 502.289 213.598 502.415 213.537C502.541 213.476 502.68 213.445 502.82 213.446L531.715 212.23C532.044 212.211 532.368 212.319 532.616 212.532C532.864 212.745 533.016 213.045 533.038 213.367V213.367Z" fill="#3E3A39"/>
<path d="M504.716 218.822C504.301 218.814 503.9 218.679 503.569 218.436C503.237 218.193 502.993 217.854 502.869 217.468L501.823 214.619C501.772 214.464 501.76 214.299 501.788 214.138C501.816 213.978 501.884 213.826 501.985 213.697C502.085 213.566 502.216 213.461 502.367 213.39C502.518 213.32 502.685 213.287 502.852 213.293L531.746 212.078C532.11 212.067 532.464 212.195 532.733 212.434C533.003 212.672 533.167 213.004 533.191 213.358L533.344 215.872C533.367 216.293 533.22 216.706 532.934 217.023C532.649 217.339 532.247 217.534 531.816 217.564L523.436 218.128L504.716 218.822ZM502.826 213.575C502.709 213.573 502.593 213.597 502.487 213.646C502.381 213.695 502.288 213.767 502.216 213.858C502.143 213.95 502.095 214.058 502.074 214.173C502.053 214.288 502.061 214.406 502.098 214.518L503.144 217.367C503.248 217.697 503.456 217.987 503.738 218.195C504.02 218.404 504.362 218.521 504.716 218.529L523.419 217.835L531.798 217.271C532.157 217.246 532.491 217.084 532.727 216.82C532.963 216.555 533.082 216.21 533.058 215.86L532.905 213.347C532.887 213.064 532.755 212.799 532.539 212.609C532.323 212.42 532.04 212.32 531.749 212.331L502.855 213.547L502.826 213.575Z" fill="#3E3A39"/>
<path d="M508.671 209.076L508.261 207.798C508.142 207.425 507.904 207.1 507.581 206.869C507.257 206.639 506.867 206.517 506.467 206.52L501.537 206.568C501.248 206.571 500.963 206.639 500.706 206.767C500.448 206.896 500.225 207.081 500.053 207.309C499.882 207.536 499.767 207.8 499.718 208.078C499.67 208.357 499.688 208.642 499.772 208.913L500.113 210.018C500.227 210.384 500.455 210.705 500.766 210.937C501.077 211.169 501.455 211.3 501.846 211.31L507.831 211.186C509.111 211.217 509.053 210.264 508.671 209.076Z" fill="white"/>
<path d="M501.852 211.451C501.428 211.443 501.018 211.304 500.681 211.053C500.343 210.803 500.096 210.454 499.974 210.058L499.633 208.952C499.542 208.661 499.522 208.353 499.575 208.054C499.627 207.754 499.751 207.47 499.937 207.226C500.12 206.98 500.361 206.779 500.638 206.641C500.916 206.502 501.223 206.429 501.534 206.427L506.464 206.379H506.484C506.912 206.377 507.33 206.51 507.675 206.758C508.02 207.006 508.274 207.356 508.4 207.756L508.81 209.034C509.018 209.685 509.212 210.495 508.856 210.958C508.729 211.096 508.569 211.202 508.39 211.266C508.211 211.33 508.019 211.351 507.83 211.327L501.852 211.451ZM506.475 206.656H506.458L501.529 206.704C501.262 206.705 500.999 206.768 500.762 206.886C500.525 207.005 500.319 207.176 500.162 207.386C500.003 207.596 499.896 207.838 499.851 208.095C499.806 208.352 499.823 208.616 499.902 208.865L500.243 209.973C500.347 210.311 500.557 210.609 500.845 210.823C501.132 211.036 501.482 211.156 501.844 211.164L507.822 211.04C507.966 211.062 508.113 211.05 508.251 211.005C508.389 210.961 508.515 210.884 508.616 210.783C508.905 210.419 508.697 209.654 508.524 209.113L508.117 207.835C508.008 207.495 507.791 207.198 507.498 206.987C507.204 206.776 506.849 206.662 506.484 206.662L506.475 206.656Z" fill="#3E3A39"/>
<path d="M525.91 209.24L525.239 207.008C525.148 206.708 524.956 206.445 524.694 206.263C524.433 206.08 524.116 205.988 523.795 206.001L511.231 206.394C511.002 206.402 510.778 206.463 510.578 206.572C510.378 206.681 510.207 206.835 510.08 207.021C509.953 207.208 509.874 207.421 509.848 207.643C509.822 207.866 509.85 208.091 509.931 208.3L510.841 210.63C510.949 210.906 511.143 211.142 511.396 211.304C511.648 211.467 511.946 211.548 512.248 211.536L524.572 211.042C524.792 211.035 525.007 210.979 525.201 210.878C525.395 210.777 525.563 210.634 525.692 210.46C525.821 210.286 525.908 210.086 525.946 209.875C525.983 209.663 525.971 209.446 525.91 209.24Z" fill="#3E3A39"/>
<path d="M512.202 211.677C511.881 211.677 511.567 211.582 511.303 211.404C511.038 211.226 510.835 210.974 510.72 210.681L509.81 208.351C509.719 208.121 509.686 207.872 509.714 207.627C509.742 207.381 509.83 207.146 509.972 206.941C510.111 206.735 510.3 206.565 510.521 206.445C510.743 206.325 510.99 206.259 511.243 206.252L523.803 205.86C524.154 205.849 524.499 205.952 524.783 206.152C525.068 206.353 525.276 206.64 525.375 206.969L526.049 209.2C526.117 209.426 526.132 209.663 526.092 209.895C526.052 210.127 525.958 210.347 525.817 210.537C525.678 210.73 525.494 210.888 525.282 211C525.069 211.112 524.833 211.175 524.592 211.183L512.269 211.677H512.202ZM523.855 206.142H523.815L511.252 206.535C511.045 206.54 510.842 206.594 510.662 206.692C510.481 206.79 510.327 206.93 510.214 207.099C510.098 207.265 510.025 207.457 510.002 207.658C509.978 207.859 510.006 208.062 510.081 208.25L510.992 210.58C511.088 210.828 511.262 211.041 511.489 211.187C511.717 211.333 511.985 211.406 512.257 211.395L524.581 210.901C524.778 210.894 524.97 210.842 525.143 210.751C525.317 210.659 525.466 210.53 525.58 210.374C525.696 210.218 525.773 210.038 525.806 209.848C525.839 209.658 525.827 209.464 525.771 209.279V209.279L525.101 207.051C525.022 206.788 524.857 206.558 524.633 206.394C524.408 206.231 524.136 206.142 523.855 206.142Z" fill="#3E3A39"/>
<path d="M465.28 195.22L468.034 197.702L468.008 198.659L464.133 198.563L465.28 195.22Z" fill="#3E3A39"/>
<path d="M468.011 198.8L464.133 198.704C464.111 198.703 464.088 198.696 464.068 198.686C464.048 198.675 464.031 198.66 464.018 198.642C464.005 198.624 463.997 198.603 463.994 198.582C463.991 198.56 463.993 198.538 464 198.518L465.156 195.175C465.164 195.153 465.177 195.133 465.195 195.117C465.213 195.101 465.234 195.09 465.257 195.085C465.28 195.079 465.305 195.079 465.328 195.084C465.351 195.09 465.372 195.1 465.39 195.116L468.144 197.598C468.159 197.612 468.172 197.628 468.18 197.647C468.188 197.665 468.193 197.685 468.193 197.705L468.167 198.662C468.167 198.68 468.163 198.699 468.155 198.716C468.147 198.733 468.135 198.748 468.121 198.76C468.107 198.774 468.089 198.785 468.07 198.792C468.051 198.799 468.031 198.801 468.011 198.8ZM464.333 198.425L467.869 198.515L467.89 197.762L465.347 195.471L464.333 198.425Z" fill="#3E3A39"/>
<path d="M464.347 194.108L459.061 193.976C458.52 193.962 458.07 194.379 458.056 194.907L457.99 197.423C457.976 197.951 458.404 198.39 458.944 198.403L464.23 198.536C464.771 198.549 465.221 198.132 465.235 197.604L465.301 195.089C465.315 194.561 464.888 194.122 464.347 194.108Z" fill="white"/>
<path d="M464.24 198.729H464.211L458.924 198.597C458.776 198.594 458.631 198.563 458.496 198.505C458.361 198.447 458.239 198.363 458.138 198.258C457.933 198.046 457.822 197.765 457.829 197.474L457.895 194.955C457.906 194.665 458.033 194.39 458.249 194.19C458.465 193.991 458.753 193.883 459.051 193.889L464.339 194.021C464.486 194.025 464.632 194.057 464.767 194.116C464.902 194.175 465.023 194.259 465.125 194.364C465.226 194.468 465.306 194.592 465.358 194.727C465.411 194.862 465.435 195.005 465.431 195.15L465.364 197.669C465.362 197.813 465.329 197.955 465.269 198.087C465.209 198.219 465.123 198.337 465.015 198.436C464.805 198.628 464.528 198.733 464.24 198.729V198.729ZM459.016 194.171C458.799 194.171 458.591 194.254 458.435 194.402C458.28 194.55 458.19 194.752 458.184 194.963L458.117 197.482C458.114 197.589 458.133 197.695 458.172 197.795C458.211 197.895 458.27 197.986 458.346 198.064C458.497 198.218 458.705 198.308 458.924 198.315L464.211 198.447C464.321 198.451 464.431 198.433 464.533 198.394C464.636 198.356 464.73 198.298 464.809 198.224C464.967 198.076 465.06 197.874 465.067 197.66L465.133 195.144C465.137 195.036 465.12 194.929 465.081 194.828C465.042 194.727 464.984 194.634 464.908 194.555C464.833 194.477 464.742 194.413 464.641 194.369C464.54 194.325 464.432 194.301 464.321 194.298L459.033 194.165L459.016 194.171Z" fill="#3E3A39"/>
<path d="M471.926 214.546C471.996 211.953 472.724 205.993 480.883 206.196C487.052 206.351 488.734 214.966 488.734 214.966C488.734 214.966 489.113 218.698 490.144 220.238L490.751 221.144L492.147 221.178L499.948 220.351L499.396 215.725L496.044 205.254L472.672 198.701L418.928 197.855L414.701 199.209C413.966 199.36 413.25 199.588 412.565 199.889C411.268 200.453 409.661 201.358 409.555 202.145L408.038 213.147C407.806 214.811 412.011 216.495 413.614 217.096L415.333 218.117C414.781 216.777 414.496 215.347 414.493 213.903C414.582 210.518 416.05 204.554 421.794 204.698C424.747 204.772 426.556 205.406 427.677 206.444L427.764 206.537C428.143 206.913 428.455 207.348 428.688 207.824C429.627 209.383 430.238 211.109 430.489 212.901C431.092 217.107 432.589 219.107 434.008 219.623L434.227 219.705L474.03 220.701C472.709 218.828 471.857 216.664 471.926 214.546Z" fill="#FF6100"/>
<path d="M444.057 214.884C444.499 215.776 444.84 216.354 444.84 216.354Z" fill="white"/>
<path d="M444.84 216.495C444.815 216.495 444.791 216.488 444.769 216.476C444.747 216.464 444.729 216.446 444.716 216.425C444.716 216.425 444.367 215.832 443.927 214.946C443.919 214.93 443.914 214.912 443.913 214.893C443.912 214.875 443.914 214.856 443.92 214.838C443.927 214.821 443.936 214.805 443.949 214.791C443.962 214.777 443.977 214.766 443.994 214.757C444.011 214.749 444.03 214.744 444.049 214.743C444.068 214.742 444.087 214.745 444.105 214.751C444.123 214.757 444.139 214.766 444.153 214.778C444.168 214.791 444.179 214.806 444.188 214.822C444.621 215.7 444.962 216.278 444.965 216.284C444.984 216.316 444.989 216.354 444.979 216.39C444.969 216.426 444.945 216.456 444.913 216.475C444.89 216.487 444.866 216.494 444.84 216.495V216.495Z" fill="white"/>
<path d="M443.335 213.446C443.307 213.446 443.279 213.437 443.255 213.422C443.231 213.406 443.213 213.384 443.202 213.358C442.442 211.544 442.029 209.973 441.974 208.712C441.83 205.426 443.893 200.066 443.979 199.838C443.994 199.803 444.022 199.776 444.057 199.761C444.092 199.745 444.131 199.744 444.167 199.756C444.203 199.77 444.231 199.797 444.246 199.831C444.262 199.866 444.264 199.904 444.251 199.939C444.228 199.993 442.119 205.474 442.263 208.684C442.318 209.922 442.723 211.454 443.468 213.237C443.476 213.254 443.48 213.272 443.48 213.291C443.48 213.309 443.476 213.328 443.469 213.345C443.462 213.362 443.451 213.377 443.437 213.39C443.424 213.403 443.408 213.413 443.39 213.42C443.374 213.433 443.355 213.442 443.335 213.446Z" fill="white"/>
<path d="M501.942 211.305L503.719 211.248L502.274 206.605H501.219C500.97 206.604 500.724 206.659 500.501 206.767C500.278 206.876 500.084 207.034 499.935 207.228C499.785 207.423 499.685 207.65 499.642 207.889C499.598 208.129 499.613 208.375 499.685 208.608L500.095 209.931C500.218 210.319 500.462 210.661 500.793 210.907C501.124 211.154 501.526 211.293 501.942 211.305Z" fill="#949494"/>
<path d="M501.942 211.454C501.492 211.444 501.057 211.295 500.699 211.028C500.342 210.762 500.08 210.391 499.951 209.97L499.541 208.647C499.462 208.394 499.446 208.125 499.493 207.864C499.54 207.603 499.65 207.356 499.812 207.144C499.975 206.931 500.187 206.759 500.43 206.641C500.673 206.523 500.942 206.462 501.214 206.464H502.268C502.299 206.464 502.329 206.473 502.353 206.491C502.378 206.509 502.396 206.534 502.404 206.563L503.849 211.206C503.855 211.227 503.856 211.249 503.853 211.27C503.849 211.292 503.841 211.312 503.829 211.33C503.815 211.348 503.798 211.362 503.778 211.372C503.758 211.383 503.736 211.388 503.713 211.389L501.939 211.446L501.942 211.454ZM501.199 206.746C500.975 206.746 500.754 206.797 500.553 206.895C500.353 206.993 500.178 207.135 500.043 207.31C499.908 207.487 499.817 207.693 499.778 207.91C499.739 208.128 499.753 208.351 499.818 208.563L500.228 209.889C500.34 210.251 500.566 210.571 500.874 210.801C501.182 211.031 501.557 211.16 501.945 211.169L503.528 211.118L502.158 206.752H501.214L501.199 206.746Z" fill="#3E3A39"/>
<path d="M431.91 202.54L429.639 202.484C429.434 202.479 429.238 202.395 429.095 202.251C428.952 202.107 428.873 201.914 428.873 201.714V201.714C428.876 201.613 428.899 201.515 428.941 201.423C428.983 201.331 429.043 201.249 429.117 201.18C429.192 201.111 429.28 201.057 429.376 201.021C429.472 200.986 429.574 200.969 429.677 200.972L431.948 201.028C432.05 201.031 432.151 201.053 432.245 201.094C432.338 201.134 432.423 201.193 432.494 201.265C432.564 201.338 432.619 201.423 432.656 201.517C432.693 201.61 432.71 201.71 432.708 201.81C432.7 202.009 432.612 202.198 432.463 202.335C432.313 202.472 432.115 202.546 431.91 202.54V202.54Z" fill="#3E3A39"/>
<path d="M450.018 202.994L447.744 202.938C447.642 202.935 447.541 202.913 447.447 202.872C447.354 202.832 447.269 202.774 447.199 202.701C447.128 202.628 447.073 202.543 447.036 202.45C446.999 202.356 446.982 202.257 446.985 202.157C446.987 202.056 447.009 201.957 447.051 201.866C447.092 201.774 447.152 201.691 447.226 201.622C447.301 201.553 447.388 201.498 447.484 201.462C447.58 201.426 447.682 201.409 447.785 201.412L450.059 201.468C450.162 201.471 450.263 201.493 450.357 201.534C450.45 201.575 450.535 201.633 450.606 201.706C450.676 201.779 450.731 201.865 450.768 201.959C450.805 202.052 450.822 202.152 450.819 202.252C450.816 202.352 450.793 202.451 450.752 202.542C450.71 202.634 450.65 202.716 450.576 202.785C450.502 202.854 450.414 202.908 450.319 202.944C450.223 202.98 450.121 202.997 450.018 202.994Z" fill="#3E3A39"/>
<path d="M470.343 219.183C470.316 219.183 470.289 219.175 470.266 219.16C470.243 219.146 470.225 219.126 470.213 219.102C469.956 218.537 469.762 217.947 469.635 217.341C469.631 217.323 469.63 217.305 469.633 217.287C469.637 217.268 469.644 217.251 469.654 217.236C469.664 217.22 469.677 217.207 469.693 217.196C469.709 217.186 469.726 217.179 469.745 217.175C469.782 217.166 469.821 217.173 469.853 217.192C469.886 217.212 469.909 217.243 469.918 217.279C470.042 217.862 470.231 218.429 470.482 218.972C470.497 219.006 470.499 219.045 470.486 219.08C470.473 219.115 470.447 219.144 470.412 219.161C470.391 219.174 470.367 219.181 470.343 219.183V219.183Z" fill="white"/>
<path d="M469.571 216.396C469.536 216.396 469.503 216.384 469.476 216.362C469.45 216.339 469.432 216.309 469.427 216.275C468.705 211.592 469.545 204.622 469.912 203.048C470.176 201.818 470.815 200.694 471.747 199.827C471.761 199.814 471.778 199.805 471.796 199.799C471.814 199.793 471.833 199.79 471.852 199.792C471.871 199.794 471.889 199.799 471.906 199.808C471.923 199.817 471.938 199.829 471.949 199.843C471.962 199.857 471.972 199.873 471.978 199.891C471.984 199.908 471.986 199.927 471.985 199.945C471.983 199.964 471.978 199.982 471.97 199.998C471.961 200.014 471.949 200.029 471.935 200.041C471.059 200.874 470.456 201.942 470.201 203.11C469.84 204.673 469.005 211.573 469.722 216.236C469.724 216.254 469.724 216.273 469.719 216.291C469.715 216.309 469.706 216.326 469.695 216.341C469.684 216.355 469.67 216.368 469.653 216.378C469.637 216.387 469.619 216.394 469.6 216.396H469.571Z" fill="white"/>
<path d="M488.847 212.715C488.809 212.715 488.774 212.701 488.747 212.676C488.72 212.651 488.704 212.616 488.702 212.58C488.575 210.456 487.818 205.392 483.501 204.252C480.36 203.423 477.815 204.588 476.234 205.711C476.203 205.732 476.164 205.741 476.127 205.735C476.089 205.729 476.055 205.71 476.032 205.68C476.01 205.649 476.001 205.612 476.007 205.575C476.013 205.538 476.033 205.505 476.064 205.482C477.696 204.323 480.326 203.124 483.576 203.979C488.09 205.166 488.876 210.379 489.006 212.566C489.006 212.584 489.003 212.603 488.997 212.62C488.99 212.637 488.98 212.653 488.967 212.667C488.955 212.681 488.939 212.692 488.922 212.699C488.905 212.707 488.886 212.712 488.867 212.712L488.847 212.715Z" fill="white"/>
<path d="M474.203 207.485C474.172 207.486 474.141 207.476 474.116 207.457C474.086 207.434 474.067 207.4 474.062 207.363C474.057 207.326 474.067 207.289 474.091 207.26C474.419 206.866 474.781 206.5 475.174 206.168C475.187 206.154 475.203 206.144 475.22 206.136C475.237 206.129 475.256 206.125 475.275 206.125C475.294 206.125 475.313 206.129 475.33 206.136C475.348 206.144 475.363 206.154 475.376 206.168C475.39 206.181 475.4 206.196 475.408 206.213C475.415 206.23 475.419 206.248 475.419 206.267C475.419 206.285 475.415 206.303 475.408 206.32C475.4 206.337 475.39 206.352 475.376 206.365C474.998 206.688 474.648 207.041 474.33 207.42C474.317 207.441 474.298 207.458 474.275 207.469C474.253 207.481 474.228 207.486 474.203 207.485V207.485Z" fill="white"/>
<path d="M409.528 202.145L408.951 206.295L410.731 206.34L410.84 202.109L409.537 202.078C409.532 202.1 409.529 202.122 409.528 202.145Z" fill="#FFD694"/>
<path d="M410.736 206.481L408.959 206.436C408.939 206.435 408.919 206.43 408.901 206.421C408.882 206.412 408.866 206.4 408.852 206.385C408.839 206.37 408.83 206.352 408.824 206.333C408.819 206.314 408.817 206.295 408.821 206.275L409.398 202.128C409.397 202.109 409.397 202.089 409.398 202.069C409.407 202.037 409.426 202.008 409.452 201.986C409.479 201.965 409.511 201.953 409.546 201.951L410.849 201.982C410.868 201.982 410.887 201.986 410.905 201.994C410.922 202.001 410.938 202.012 410.951 202.026C410.964 202.04 410.975 202.056 410.981 202.073C410.988 202.091 410.991 202.11 410.99 202.128L410.881 206.343C410.879 206.379 410.863 206.414 410.837 206.44C410.81 206.466 410.774 206.48 410.736 206.481ZM409.121 206.157L410.595 206.193L410.699 202.261L409.664 202.236L409.121 206.157Z" fill="#3E3A39"/>
<path d="M513.598 198.693C520.619 199.398 529.013 203.463 531.411 204.481L496.03 205.254L469.921 198.419C469.921 198.419 488.702 197.725 492.502 197.573C499.032 197.291 506.964 198.027 513.598 198.693Z" fill="#3E3A39"/>
<path d="M496.03 205.395H495.992L469.883 198.56C469.849 198.552 469.82 198.532 469.8 198.504C469.78 198.476 469.772 198.441 469.776 198.408C469.781 198.374 469.797 198.343 469.822 198.321C469.848 198.298 469.881 198.285 469.915 198.284C470.103 198.284 488.728 197.587 492.496 197.437C498.922 197.155 506.764 197.877 513.612 198.566C519.793 199.186 526.904 202.346 530.325 203.863C530.787 204.069 531.174 204.238 531.481 204.365C531.51 204.378 531.535 204.4 531.55 204.429C531.565 204.457 531.57 204.489 531.564 204.52C531.557 204.552 531.54 204.58 531.515 204.601C531.49 204.622 531.459 204.634 531.426 204.636L496.044 205.409L496.03 205.395ZM470.892 198.523L496.056 205.113L530.773 204.354L530.215 204.106C526.808 202.594 519.723 199.449 513.592 198.834C506.753 198.145 498.922 197.423 492.516 197.705C489.234 197.843 474.758 198.379 470.883 198.523H470.892Z" fill="#3E3A39"/>
<path d="M488.396 196.814C489.936 196.755 492.872 196.394 493.583 196.365C496.018 196.261 498.206 196.8 501.095 196.873C503.15 196.924 510.321 198.114 513.595 198.693C523.74 200.481 528.331 203.505 531.018 204.478C531.197 204.543 528.129 204.566 527.941 204.574L496.602 205.279C495.55 205.324 494.389 204.402 490.748 203.423C487.107 202.444 482.08 201.166 478.052 200.1C474.53 199.183 472.094 199.282 469.459 199.02L468.014 198.659C471.279 196.977 484.929 196.955 488.396 196.814Z" fill="#FF6100"/>
<path d="M531.544 210.199L528.432 210.329C528.079 210.343 527.73 210.244 527.44 210.046C527.149 209.849 526.934 209.563 526.826 209.234L526.34 207.75C526.265 207.52 526.245 207.275 526.282 207.036C526.32 206.796 526.413 206.568 526.555 206.37C526.697 206.171 526.884 206.007 527.101 205.89C527.318 205.774 527.56 205.707 527.808 205.697L530.92 205.567C531.274 205.552 531.622 205.652 531.913 205.849C532.203 206.047 532.419 206.332 532.527 206.662L533.012 208.145C533.087 208.376 533.107 208.621 533.07 208.86C533.033 209.099 532.939 209.327 532.797 209.526C532.656 209.725 532.469 209.889 532.251 210.005C532.034 210.122 531.792 210.188 531.544 210.199V210.199Z" fill="white"/>
<path d="M528.363 210.473C527.991 210.472 527.628 210.356 527.327 210.142C527.027 209.927 526.804 209.625 526.69 209.279L526.202 207.793C526.119 207.541 526.097 207.275 526.138 207.014C526.178 206.753 526.28 206.505 526.436 206.289C526.59 206.072 526.794 205.893 527.031 205.766C527.268 205.638 527.532 205.567 527.802 205.556L530.914 205.426C531.297 205.414 531.673 205.524 531.986 205.739C532.299 205.954 532.531 206.263 532.648 206.619L533.136 208.103C533.219 208.354 533.241 208.621 533.2 208.882C533.16 209.142 533.058 209.391 532.902 209.606C532.749 209.824 532.546 210.004 532.308 210.132C532.071 210.259 531.806 210.33 531.536 210.34V210.34L528.424 210.47L528.363 210.473ZM530.987 205.7H530.923L527.811 205.829C527.583 205.835 527.359 205.893 527.158 206C526.957 206.106 526.785 206.257 526.655 206.441C526.525 206.622 526.44 206.83 526.407 207.048C526.373 207.267 526.392 207.49 526.462 207.7L526.947 209.183C527.045 209.483 527.241 209.743 527.506 209.923C527.77 210.103 528.087 210.193 528.409 210.179L531.521 210.049C531.749 210.043 531.973 209.984 532.174 209.878C532.374 209.771 532.547 209.62 532.677 209.437C532.807 209.257 532.892 209.049 532.926 208.83C532.959 208.612 532.94 208.389 532.87 208.179L532.385 206.695C532.289 206.408 532.102 206.158 531.851 205.981C531.601 205.803 531.299 205.708 530.989 205.708L530.987 205.7Z" fill="#3E3A39"/>
<path d="M531.544 210.199C531.792 210.188 532.034 210.122 532.251 210.005C532.469 209.889 532.656 209.725 532.798 209.526C532.939 209.327 533.033 209.099 533.07 208.86C533.107 208.621 533.087 208.376 533.012 208.145L532.527 206.662C532.419 206.332 532.203 206.047 531.913 205.849C531.622 205.652 531.274 205.552 530.92 205.567L529.984 205.607L531.544 210.199Z" fill="#949494"/>
<path d="M531.544 210.34C531.514 210.34 531.485 210.33 531.461 210.313C531.436 210.296 531.418 210.272 531.408 210.244L529.848 205.652C529.841 205.631 529.839 205.609 529.842 205.588C529.845 205.566 529.853 205.545 529.865 205.528C529.878 205.51 529.895 205.495 529.915 205.484C529.934 205.473 529.956 205.467 529.978 205.465L530.914 205.426C531.297 205.414 531.673 205.524 531.986 205.739C532.299 205.954 532.531 206.263 532.648 206.619L533.136 208.103C533.219 208.354 533.241 208.621 533.2 208.882C533.16 209.142 533.058 209.391 532.902 209.606C532.749 209.824 532.546 210.004 532.308 210.132C532.071 210.259 531.806 210.33 531.536 210.34H531.544ZM530.183 205.739L531.645 210.049C531.852 210.027 532.052 209.962 532.23 209.858C532.409 209.754 532.562 209.613 532.68 209.446C532.81 209.265 532.895 209.057 532.928 208.839C532.962 208.621 532.943 208.398 532.873 208.188L532.388 206.704C532.289 206.405 532.092 206.146 531.828 205.966C531.564 205.786 531.247 205.696 530.926 205.708L530.183 205.739Z" fill="#3E3A39"/>
<path d="M477.962 198.142C477.928 198.142 477.895 198.13 477.869 198.108C477.843 198.087 477.826 198.057 477.821 198.024C477.817 198.006 477.818 197.987 477.822 197.969C477.826 197.95 477.834 197.933 477.845 197.918C477.856 197.903 477.87 197.89 477.886 197.88C477.902 197.87 477.92 197.863 477.939 197.86C478.029 197.86 487.078 196.399 501.101 196.732C501.12 196.732 501.139 196.736 501.156 196.744C501.173 196.751 501.189 196.762 501.202 196.775C501.215 196.789 501.226 196.804 501.233 196.822C501.24 196.839 501.243 196.857 501.242 196.876C501.243 196.895 501.239 196.913 501.231 196.931C501.223 196.948 501.212 196.964 501.198 196.977C501.184 196.99 501.167 197 501.149 197.006C501.131 197.013 501.112 197.015 501.092 197.014C487.101 196.681 478.075 198.126 477.977 198.142H477.962Z" fill="white"/>
</g>
<path d="M453.594 262.536V263.778H468.606V262.536H453.594ZM453.036 273.588V274.83H469.218V273.588H453.036ZM460.362 260.898V277.494H461.748V260.898H460.362ZM456.222 269.124H465.96V270.996H456.222V269.124ZM456.222 266.226H465.96V268.062H456.222V266.226ZM454.926 265.092V272.112H467.31V265.092H454.926ZM481.224 262.518H486.642V264.39H481.224V262.518ZM479.982 261.528V265.398H487.956V261.528H479.982ZM484.806 275.118C485.994 275.838 487.29 276.774 487.992 277.458L489.324 276.756C488.514 276.054 487.11 275.1 485.832 274.38L484.806 275.118ZM481.512 274.326C480.72 275.1 479.01 276.018 477.606 276.504C477.912 276.756 478.308 277.188 478.524 277.476C479.946 276.918 481.692 276 482.736 275.1L481.512 274.326ZM480.774 269.664H487.056V271.014H480.774V269.664ZM480.774 271.986H487.056V273.336H480.774V271.986ZM480.774 267.396H487.056V268.71H480.774V267.396ZM479.496 266.37V274.362H488.406V266.37H479.496ZM472.404 270.438L472.782 271.734C474.492 271.248 476.742 270.564 478.866 269.898L478.704 268.656C476.382 269.34 473.988 270.024 472.404 270.438ZM472.674 264.516V265.794H478.65V264.516H472.674ZM475.248 260.898V275.856C475.248 276.126 475.158 276.198 474.906 276.198C474.69 276.216 473.934 276.216 473.106 276.198C473.286 276.54 473.484 277.098 473.52 277.422C474.726 277.44 475.464 277.404 475.932 277.188C476.4 276.99 476.58 276.612 476.58 275.856V260.898H475.248Z" fill="black"/>
<circle cx="512.5" cy="241.5" r="18.5" fill="#424242"/>
<path d="M505 242.115L511.857 249L521 234" stroke="white" stroke-width="5" stroke-linecap="round"/>
<defs>
<clipPath id="clip0_4_2410">
<rect width="89.04" height="72.5" fill="white" transform="translate(99 34)"/>
</clipPath>
<clipPath id="clip1_4_2410">
<rect width="74.9532" height="74.313" fill="white" transform="translate(106.214 163.1)"/>
</clipPath>
<clipPath id="clip2_4_2410">
<rect width="76.7794" height="71.3593" fill="white" transform="translate(214.433 164.686)"/>
</clipPath>
<clipPath id="clip3_4_2410">
<rect width="92.79" height="51.75" fill="white" transform="translate(309 184)"/>
</clipPath>
<clipPath id="clip4_4_2410">
<rect width="127" height="44" fill="white" transform="translate(408 183)"/>
</clipPath>
</defs>
</svg>
