<svg width="90" height="90" viewBox="0 0 90 90" fill="none" xmlns="http://www.w3.org/2000/svg">
<rect width="89.6" height="89.6" rx="44.8" fill="white"/>
<g clip-path="url(#clip0_207_1427)">
<path d="M15.9023 50.4391C17.3394 50.4391 18.5045 49.2992 18.5045 47.893C18.5045 46.4868 17.3394 45.3469 15.9023 45.3469C14.4651 45.3469 13.3 46.4868 13.3 47.893C13.3 49.2992 14.4651 50.4391 15.9023 50.4391Z" fill="#E18C44"/>
<path d="M73.3307 47.9118C74.7679 47.9118 75.933 46.7718 75.933 45.3657C75.933 43.9595 74.7679 42.8196 73.3307 42.8196C71.8936 42.8196 70.7285 43.9595 70.7285 45.3657C70.7285 46.7718 71.8936 47.9118 73.3307 47.9118Z" fill="#FF8170"/>
<path fill-rule="evenodd" clip-rule="evenodd" d="M40.5219 41.6383C41.0879 42.9766 42.1833 43.7856 43.1647 44.7288C43.2862 44.8364 43.4404 44.902 43.6037 44.9156C43.767 44.9293 43.9303 44.8902 44.0688 44.8044C44.2193 44.7463 44.3595 44.6653 44.4841 44.5643C45.0173 44.0181 45.5041 43.9122 46.1146 44.5133C46.4198 44.8138 46.8333 44.5643 46.9241 44.122C47.0264 43.5468 46.9356 42.9546 46.6652 42.4341C46.2854 41.6197 46.0471 40.7489 45.9601 39.8578C45.8304 38.8113 45.4662 37.8058 44.8937 36.9128L32.7017 19.111C32.24 18.6637 31.6531 18.3605 31.0152 18.2397C29.7479 18.0242 28.8901 18.716 28.9133 19.9692C28.9425 20.3903 28.9967 20.8093 29.0756 21.2243C29.228 21.8931 29.4567 22.543 29.7575 23.1617L40.5219 41.6383Z" fill="#717071"/>
<path fill-rule="evenodd" clip-rule="evenodd" d="M26.3131 36.0718C26.3953 36.8368 26.66 37.5723 27.0858 38.219C27.299 38.5845 27.5927 38.8989 27.9455 39.1396C28.7414 39.6518 29.6842 39.6518 30.343 39.1396C30.6601 38.8565 30.8935 38.4951 31.0186 38.0933C31.1437 37.6915 31.1559 37.2642 31.0539 36.8562C31.0166 36.7436 30.954 36.6405 30.8707 36.5546C30.7874 36.4687 30.6856 36.4021 30.5726 36.3597C30.4596 36.3173 30.3384 36.3002 30.2178 36.3095C30.0971 36.3189 29.9802 36.3546 29.8754 36.4139C29.6588 36.5597 29.4581 36.7269 29.2766 36.9129C29.1278 37.0547 28.981 37.2909 28.7685 37.1133C28.6268 36.9619 28.5393 36.7695 28.5193 36.5651C28.4285 35.981 28.7125 35.5633 29.1993 35.242C29.7501 34.9081 30.1809 34.4145 30.4318 33.83C30.8665 32.7791 30.5825 31.9738 29.5837 31.4446C28.0769 30.645 26.6318 31.2442 26.2281 32.8774C25.9731 33.9264 26.0948 34.9736 26.3131 36.0718Z" fill="#717071"/>
<path fill-rule="evenodd" clip-rule="evenodd" d="M43.7075 40.4644C43.7346 41.8783 43.4081 41.9615 42.2876 41.9879C39.3319 42.0541 36.3781 42.1996 33.4223 42.2582C28.6931 42.3527 23.9716 42.6249 19.2501 42.8952C18.6068 42.9311 17.9616 42.9708 17.3183 42.9992C16.5977 43.0294 16.1302 43.3867 15.8172 44.0123C15.5454 44.5272 15.3937 45.0946 15.3729 45.6738C15.2879 48.78 15.2035 51.8818 15.1198 54.9792C15.1172 55.1378 15.1263 55.2963 15.1469 55.4536C15.2145 55.9734 15.4347 56.2097 15.9486 56.2834C16.1611 56.3199 16.3762 56.3395 16.5919 56.342C18.5238 56.3231 20.4556 56.2998 22.3875 56.2721C22.5478 56.2721 22.7082 56.2437 22.8685 56.2267C23.2819 56.1832 23.5891 56.0093 23.6413 55.5689C23.7765 54.5615 24.4372 53.8526 25.123 53.1873C27.0549 51.3066 31.3842 51.8131 32.6573 54.1815C32.7558 54.3705 32.8505 54.5596 32.9277 54.7486C33.4455 55.9129 33.5208 55.9678 34.8596 55.9186C37.6511 55.8109 39.3222 55.6729 42.1157 55.5954C44.3721 55.533 46.6285 55.5444 48.8772 55.5179C50.5985 55.4971 52.3159 55.4763 54.0353 55.4423C54.4117 55.4303 54.787 55.3975 55.1596 55.344C55.295 55.3347 55.4231 55.2807 55.5228 55.1906C55.6226 55.1006 55.688 54.98 55.7083 54.8488C55.7546 54.5898 55.774 54.3271 55.8068 54.0662C55.9614 52.8433 56.709 52.0834 57.8121 51.5976C59.118 51.0306 60.451 51.1289 61.7511 51.5523C62.7596 51.8812 64.392 52.7809 64.7262 53.6882C64.7916 53.8892 64.8242 54.0991 64.8228 54.3101C64.8557 55.1928 64.8672 55.4952 66.0805 55.516C67.7457 55.5406 68.1939 55.516 69.8592 55.4876C70.885 55.4669 71.3371 55.1304 71.5013 54.104C71.8278 52.0796 72.1504 50.0458 72.0808 47.9855C72.0403 46.8287 71.9997 45.67 71.7891 44.7816C71.6655 44.173 71.5959 43.8101 71.5148 43.4585C71.2038 42.1354 71.026 41.9936 69.693 41.9331C69.2642 41.9142 68.8334 41.8821 68.4045 41.8915C67.5583 41.9123 67.002 41.5494 66.6098 40.8084C65.2053 38.1452 63.7313 35.5159 62.3481 32.8413C60.9147 30.069 59.355 27.3679 57.6691 24.7381C56.9949 23.6814 56.1024 23.2259 54.8486 23.3034C53.4557 23.3903 52.0571 23.4263 50.6622 23.4773C50.3407 23.499 50.0179 23.499 49.6963 23.4773C49.1496 23.4244 48.91 23.2354 48.8212 22.7212C48.7323 22.2071 48.7323 21.6759 48.6686 21.1543C48.5507 20.177 48.1064 19.7612 47.0902 19.7158C46.6072 19.6883 46.1225 19.7073 45.6433 19.7725C44.7469 19.9105 44.3219 20.3301 44.2678 21.2469L43.7075 40.4644ZM53.2084 27.7907C53.2084 26.9496 53.392 26.7681 54.2072 26.6963C56.4578 26.4978 56.5409 26.5073 57.617 28.4674C58.892 30.7772 60.1052 33.1154 61.3513 35.4384C62.3172 37.2511 63.3179 39.0525 64.2858 40.867C64.5678 41.3982 64.4036 41.7214 63.8376 41.7346C60.8895 41.8008 57.9396 41.8594 54.9896 41.8877C54.242 41.8877 53.9812 41.6004 53.8035 40.7064L53.2084 27.7907ZM51.717 40.266C51.8136 42.0862 51.4987 41.9482 49.9088 41.9255C49.7478 41.9205 49.5878 41.8983 49.4317 41.8594C49.2966 41.8453 49.1717 41.7825 49.0814 41.6833C48.991 41.5841 48.9416 41.4555 48.9429 41.3226L49.1554 27.4618C49.1484 27.3833 49.1582 27.3043 49.1842 27.2297C49.2102 27.1551 49.2518 27.0867 49.3063 27.0287C49.3608 26.9707 49.4271 26.9245 49.5009 26.893C49.5747 26.8614 49.6544 26.8453 49.735 26.8456C49.9495 26.8352 50.1646 26.8409 50.3783 26.8626C50.9404 26.9212 51.0969 27.0876 51.1626 27.666L51.717 40.266Z" fill="#FF8170"/>
<path fill-rule="evenodd" clip-rule="evenodd" d="M27.6404 32.4955C27.6404 32.5485 27.6616 32.5995 27.6925 32.7545C27.7305 32.8695 27.7763 32.982 27.8297 33.091C27.8901 33.2377 27.996 33.3623 28.1326 33.4471C28.2691 33.5319 28.4294 33.5726 28.5909 33.5635C28.7247 33.552 28.8535 33.508 28.9656 33.4353C29.0776 33.3627 29.1693 33.2638 29.2322 33.1477L31.4693 21.2111C31.7765 20.5212 31.6258 19.8351 31.1081 19.5288C30.3914 19.1036 29.3926 19.3058 28.983 19.9787C28.8557 20.2083 28.7534 20.4503 28.6778 20.7008L27.6404 32.4955Z" fill="#FF8170"/>
<path fill-rule="evenodd" clip-rule="evenodd" d="M24.5976 55.4367C25.382 53.2611 26.6396 52.5806 28.3725 52.5806C30.1054 52.5806 31.4635 53.6731 32.0991 55.0378C32.3232 55.5179 32.5511 55.9924 32.7636 56.4763C32.8581 56.7251 33.0335 56.9368 33.2627 57.0788C33.492 57.2209 33.7625 57.2854 34.0329 57.2626L53.8576 57.4308C55.3684 57.4025 56.0909 56.8335 56.5951 55.4253C56.5951 55.4253 56.7052 52.0854 60.1092 52.0854C62.8138 52.0854 63.9883 53.8886 64.1564 54.7316C64.5969 56.9224 65.3812 56.7579 67.6338 56.7579H71.9998C72.9657 56.7579 76.2402 57.308 76.304 54.7316C76.3677 52.1553 75.083 51.6922 75.083 51.6922L73.7925 41.7404C73.2883 41.3907 71.9843 41.2073 71.3854 41.4927C70.831 41.7555 70.6977 42.2677 70.6822 42.8159C70.6726 43.1845 70.6822 43.5531 70.6822 43.9197C70.7421 45.9177 70.8155 47.9137 70.8754 49.9116C70.9087 50.755 70.7937 51.5977 70.5354 52.4029C70.4314 52.7598 70.2286 53.0816 69.9494 53.3328C69.6702 53.584 69.3254 53.7547 68.9532 53.8262C68.5872 53.9112 68.2142 53.9637 67.8385 53.9831C66.4457 54.0323 65.9801 53.9831 65.5802 52.6033C65.0354 50.7225 63.5595 49.6924 61.6063 49.3219C59.1084 48.8494 56.8791 49.802 55.5287 51.9266C55.3355 52.2385 54.7308 53.5125 54.5898 53.8508L35.1089 53.6958C34.2357 53.7298 33.7373 53.3556 33.0225 52.7885C32.0991 52.0551 31.6335 50.4409 28.6121 50.4409C25.3066 50.4409 24.2035 51.8396 23.0251 53.3215C22.8681 53.5383 22.6606 53.7154 22.4197 53.838C22.1788 53.9606 21.9115 54.0253 21.64 54.0266C20.674 54.0077 19.7081 53.9566 18.7422 53.8867C18.1027 53.8413 17.6255 53.5427 17.4111 52.9133C17.3443 52.713 17.2582 52.5193 17.1542 52.3349C16.5997 51.3614 15.856 51.0363 14.7278 51.2612C14.2409 51.3576 13.955 51.6071 13.9028 52.1005C13.8107 52.7853 13.8238 53.4797 13.9415 54.1608C14.3279 55.9206 14.1096 56.9167 16.2018 56.9167L21.895 57.1624C23.4095 57.221 24.02 56.8411 24.5996 55.4461" fill="#717071"/>
<path fill-rule="evenodd" clip-rule="evenodd" d="M41.4435 44.5794C42.9368 44.5114 43.6052 43.9217 43.6188 42.4473C43.6323 40.9352 43.5183 39.4098 43.441 37.8901C43.414 37.6824 43.3485 37.4813 43.2478 37.2965C43.2157 37.1963 43.1448 37.1123 43.0502 37.0625C42.9556 37.0127 42.8449 37.001 42.7417 37.03C42.6721 37.0629 42.6111 37.1111 42.5635 37.1707C42.516 37.2304 42.4831 37.3 42.4674 37.374C42.3688 38.2605 42.2974 39.1508 42.2298 40.0411C42.2143 40.249 42.2491 40.4607 42.2413 40.6686C42.2066 41.5362 41.9979 41.7442 41.0571 41.7536C35.5281 41.8103 30.003 41.8198 24.4759 41.6686C23.7611 41.6497 23.2376 41.4965 23.029 40.7235C22.745 39.6857 21.5221 39.7179 21.0971 40.576C20.7107 41.3491 20.1601 41.4455 19.4087 41.4077C18.1761 41.3453 16.9417 41.3567 15.7091 41.3151C14.6505 41.2773 14.3279 41.7687 14.2371 42.591C14.2156 42.8582 14.2079 43.1263 14.2139 43.3943C14.3646 44.2222 14.6988 44.5549 15.402 44.6229L41.4435 44.5794Z" fill="#717071"/>
<path d="M43.0855 46.3694H37.8173C37.2145 46.3694 36.7258 46.8475 36.7258 47.4373V47.4392C36.7258 48.029 37.2145 48.5072 37.8173 48.5072H43.0855C43.6883 48.5072 44.177 48.029 44.177 47.4392V47.4373C44.177 46.8475 43.6883 46.3694 43.0855 46.3694Z" fill="#EFE9E1"/>
<path d="M43.0855 49.1252H37.8173C37.2145 49.1252 36.7258 49.6034 36.7258 50.1932V50.1951C36.7258 50.7849 37.2145 51.263 37.8173 51.263H43.0855C43.6883 51.263 44.177 50.7849 44.177 50.1951V50.1932C44.177 49.6034 43.6883 49.1252 43.0855 49.1252Z" fill="#EFE9E1"/>
<path d="M52.7218 46.3694H49.2521C48.6493 46.3694 48.1606 46.8475 48.1606 47.4373V47.4392C48.1606 48.029 48.6493 48.5072 49.2521 48.5072H52.7218C53.3246 48.5072 53.8133 48.029 53.8133 47.4392V47.4373C53.8133 46.8475 53.3246 46.3694 52.7218 46.3694Z" fill="#EFE9E1"/>
<path d="M67.6279 52.588C68.3033 52.588 68.8508 52.0524 68.8508 51.3916C68.8508 50.7308 68.3033 50.1951 67.6279 50.1951C66.9525 50.1951 66.405 50.7308 66.405 51.3916C66.405 52.0524 66.9525 52.588 67.6279 52.588Z" fill="#EFE9E1"/>
<path d="M28.1077 60.1999C30.0517 60.1999 31.6276 58.658 31.6276 56.7559C31.6276 54.8539 30.0517 53.312 28.1077 53.312C26.1638 53.312 24.5879 54.8539 24.5879 56.7559C24.5879 58.658 26.1638 60.1999 28.1077 60.1999Z" fill="#717071"/>
<path d="M28.1078 58.4781C29.0798 58.4781 29.8678 57.7072 29.8678 56.7561C29.8678 55.8051 29.0798 55.0342 28.1078 55.0342C27.1358 55.0342 26.3479 55.8051 26.3479 56.7561C26.3479 57.7072 27.1358 58.4781 28.1078 58.4781Z" fill="#EFE9E1"/>
<path d="M60.1864 60.1999C62.1303 60.1999 63.7062 58.658 63.7062 56.7559C63.7062 54.8539 62.1303 53.312 60.1864 53.312C58.2424 53.312 56.6665 54.8539 56.6665 56.7559C56.6665 58.658 58.2424 60.1999 60.1864 60.1999Z" fill="#717071"/>
<path d="M60.109 58.4781C61.081 58.4781 61.869 57.7072 61.869 56.7561C61.869 55.8051 61.081 55.0342 60.109 55.0342C59.1371 55.0342 58.3491 55.8051 58.3491 56.7561C58.3491 57.7072 59.1371 58.4781 60.109 58.4781Z" fill="#EFE9E1"/>
</g>
<path d="M20.6437 64.656V65.412H28.2757V64.656H20.6437ZM23.9197 64.992C23.8597 65.46 23.7037 66.168 23.5837 66.636L24.3277 66.78C24.5077 66.348 24.7357 65.688 24.9277 65.076L23.9197 64.992ZM26.0077 63.12C25.8157 63.576 25.4437 64.248 25.1557 64.68L25.9117 64.884C26.2237 64.488 26.5837 63.9 26.9197 63.348L26.0077 63.12ZM21.9157 63.432C22.2757 63.852 22.6357 64.44 22.7677 64.836L23.4997 64.512C23.3677 64.116 22.9957 63.552 22.6237 63.156L21.9157 63.432ZM20.0437 67.86H17.4877V68.7H19.1677V72.108H20.0437V67.86ZM20.0437 71.712H19.2277C18.6157 72.228 17.9077 72.756 17.3317 73.14L17.8117 74.064C18.4597 73.536 19.0717 73.02 19.6477 72.504C20.4157 73.452 21.4957 73.872 23.0557 73.932C24.3877 73.98 26.8717 73.956 28.1917 73.908C28.2277 73.632 28.3837 73.2 28.4797 72.984C27.0637 73.08 24.3637 73.116 23.0557 73.068C21.6757 73.008 20.6077 72.6 20.0437 71.712ZM17.6197 63.96C18.3997 64.488 19.2997 65.304 19.6837 65.88L20.3917 65.292C19.9717 64.704 19.0717 63.924 18.2797 63.42L17.6197 63.96ZM22.4437 68.712H26.4397V69.708H22.4437V68.712ZM22.4437 70.368H26.4397V71.376H22.4437V70.368ZM22.4437 67.056H26.4397V68.052H22.4437V67.056ZM21.5917 66.36V72.072H27.3277V66.36H21.5917ZM36.4717 72.912V73.704H40.4317V72.912H36.4717ZM37.0597 64.356V65.136H40.2277V64.356H37.0597ZM36.1237 69.816V74.136H36.9517V70.596H39.9757V74.1H40.8397V69.816H36.1237ZM39.9037 64.356V64.512C39.1237 67.02 36.9997 68.952 34.8757 69.768C35.0557 69.936 35.2957 70.248 35.4037 70.452C37.6837 69.48 39.8797 67.512 40.8037 64.56L40.2277 64.32L40.0597 64.356H39.9037ZM37.2637 63.12C36.8077 64.596 35.9797 66 34.9957 66.9C35.2117 67.032 35.5597 67.32 35.7037 67.476C36.6997 66.48 37.5877 64.956 38.1277 63.324L37.2637 63.12ZM37.0237 64.848L36.4357 65.34C37.1677 67.068 38.7517 69.24 41.2237 70.308C41.3437 70.08 41.5957 69.732 41.7877 69.564C39.3277 68.628 37.7197 66.564 37.0237 64.848ZM31.1797 68.448V72.804H31.9357V68.448H31.1797ZM31.9837 64.416H34.2397V66.528H31.9837V64.416ZM31.1797 63.624V67.32H35.0797V63.624H31.1797ZM32.8717 66.924V72.408H33.6877V66.924H32.8717ZM30.5557 72.708L30.7237 73.584C31.9837 73.272 33.7117 72.852 35.3557 72.444L35.2717 71.64C33.5437 72.048 31.7437 72.468 30.5557 72.708ZM33.1597 69.06V69.864H35.1877V69.06H33.1597ZM43.9357 65.208V66.048H49.7197V65.208H43.9357ZM46.4437 63.12V73.14C46.4437 73.32 46.3717 73.368 46.1917 73.38C46.0237 73.392 45.4717 73.404 44.8597 73.38C44.9797 73.608 45.0997 73.956 45.1357 74.172C46.0237 74.172 46.5397 74.16 46.8637 74.028C47.1997 73.884 47.3317 73.656 47.3317 73.128V63.12H46.4437ZM43.7437 71.52L44.1637 72.276C44.8477 71.772 45.6637 71.148 46.4317 70.548L46.1197 69.828C45.2437 70.488 44.3437 71.136 43.7437 71.52ZM44.1877 67.152C44.5957 67.812 45.0157 68.7 45.1597 69.252L45.9037 68.904C45.7357 68.364 45.3037 67.5 44.8837 66.864L44.1877 67.152ZM48.7357 66.708C48.5197 67.368 48.0877 68.316 47.7517 68.904L48.3757 69.192C48.7357 68.64 49.1797 67.776 49.5517 67.044L48.7357 66.708ZM47.8597 63.6C48.3397 64.02 48.8917 64.62 49.1317 65.04L49.7917 64.596C49.5397 64.176 48.9757 63.6 48.4957 63.204L47.8597 63.6ZM47.0557 70.2C47.7997 70.812 48.7237 71.7 49.1677 72.276L49.7557 71.64C49.3117 71.1 48.3757 70.248 47.6197 69.66L47.0557 70.2ZM50.6677 65.448V66.288H54.8437V65.448H50.6677ZM50.9917 63.12C50.7037 65.22 50.1877 67.224 49.2757 68.496C49.4917 68.652 49.8397 68.976 49.9837 69.144C50.9677 67.728 51.5677 65.568 51.9037 63.252L50.9917 63.12ZM51.1357 66.216L50.3917 66.36C51.0397 69.792 52.2277 72.732 54.3637 74.172C54.5197 73.92 54.8317 73.548 55.0357 73.38C52.9597 72.156 51.7357 69.336 51.1357 66.216ZM53.4757 65.508C52.9717 69.468 51.5917 72.324 48.4837 73.404C48.7237 73.608 49.0117 73.944 49.1557 74.196C52.2877 72.96 53.7397 69.936 54.2797 65.916L53.4757 65.508ZM60.9757 66.372V67.116H67.5757V66.372H60.9757ZM60.6997 68.064V68.82H67.9357V68.064H60.6997ZM62.3557 69.636V70.332H66.4717V69.636H62.3557ZM61.3357 64.836C61.5517 65.316 61.7917 65.964 61.8997 66.372L62.6317 66.12C62.5237 65.748 62.2597 65.112 62.0317 64.644L61.3357 64.836ZM63.4837 64.584C63.6277 65.112 63.7597 65.808 63.8077 66.228L64.5757 66.048C64.5157 65.652 64.3597 64.98 64.2157 64.464L63.4837 64.584ZM66.8437 63.204C65.4397 63.516 62.8837 63.72 60.7957 63.804C60.8797 63.984 60.9877 64.284 61.0117 64.488C63.1237 64.44 65.7397 64.248 67.3717 63.876L66.8437 63.204ZM63.0397 70.116L62.2837 70.344C63.2677 72.336 65.1157 73.656 67.5877 74.196C67.7077 73.968 67.9477 73.62 68.1397 73.428C65.7517 73.008 63.8917 71.82 63.0397 70.116ZM66.3757 64.344C66.0997 64.992 65.5837 65.916 65.1637 66.504L65.8357 66.768C66.2677 66.204 66.7957 65.352 67.2277 64.62L66.3757 64.344ZM66.2677 69.636V69.78C65.6077 71.94 63.8557 73.02 61.6357 73.512C61.8037 73.668 62.0437 73.992 62.1397 74.196C64.4437 73.596 66.3157 72.372 67.1077 69.828L66.6037 69.612L66.4477 69.636H66.2677ZM62.5837 66.852C62.4157 68.928 62.0917 72.024 59.6797 73.524C59.8957 73.668 60.1597 73.956 60.2917 74.16C62.8357 72.492 63.2437 69.24 63.4597 66.852H62.5837ZM56.9077 69.768L57.0637 70.656C58.1077 70.332 59.4517 69.9 60.7357 69.468L60.6157 68.64C59.2357 69.072 57.8437 69.516 56.9077 69.768ZM57.0037 65.544V66.384H60.6517V65.544H57.0037ZM58.5157 63.132V73.116C58.5157 73.296 58.4437 73.332 58.2997 73.332C58.1557 73.344 57.6997 73.344 57.1717 73.332C57.2917 73.584 57.3997 73.956 57.4357 74.172C58.1917 74.172 58.6597 74.148 58.9357 74.004C59.2357 73.86 59.3557 73.62 59.3557 73.116V63.132H58.5157Z" fill="black"/>
<defs>
<clipPath id="clip0_207_1427">
<rect width="63" height="42" fill="white" transform="translate(13.3 18.2)"/>
</clipPath>
</defs>
</svg>
