<svg width="90" height="90" viewBox="0 0 90 90" fill="none" xmlns="http://www.w3.org/2000/svg">
<rect width="89.6" height="89.6" rx="44.8" fill="white"/>
<g clip-path="url(#clip0_207_2233)">
<path d="M66.8308 36.0154L48.52 18.2636C46.209 16.1586 44.9934 16.1254 42.708 18.2636L24.4259 35.9872C24.4259 35.9872 24.4879 36.6957 25.3411 37.9478C26.1944 39.1999 26.9078 39.0845 27.7787 39.2L63.4887 39.1984C64.357 39.0845 65.3822 38.5417 65.9237 37.9478C66.4652 37.354 66.8308 36.0154 66.8308 36.0154V36.0154Z" fill="#E4C884"/>
<path d="M45.5436 44.8255L24.1711 59.866V37.1577C24.1711 34.9443 25.9651 33.1504 28.1785 33.1504H62.9088C65.1222 33.1504 66.9161 34.9443 66.9161 37.1577V59.866L45.5436 44.8255Z" fill="#E4C884"/>
</g>
<g clip-path="url(#clip1_207_2233)">
<path d="M43.24 54.549L17.8001 30.1374L27.9942 19.8142L53.4341 44.2257L43.24 54.549Z" fill="#00AC9A"/>
<path d="M45.2622 51.3716L50.2663 46.3039C49.9923 46.0423 49.7733 45.7288 49.6219 45.3815C49.4705 45.0343 49.3898 44.6604 49.3845 44.2816C49.3792 43.9029 49.4495 43.5269 49.5912 43.1756C49.7329 42.8243 49.9432 42.5048 50.2098 42.2357L30.099 22.9377C29.5542 23.4825 28.8179 23.7926 28.0475 23.8019C27.2771 23.8111 26.5337 23.5187 25.976 22.9871L20.9679 28.059C21.2418 28.3206 21.4609 28.6342 21.6123 28.9814C21.7637 29.3286 21.8444 29.7025 21.8497 30.0813C21.8549 30.46 21.7846 30.836 21.643 31.1873C21.5013 31.5386 21.291 31.8581 21.0244 32.1272L41.1352 51.4252C41.6796 50.8786 42.4164 50.567 43.1878 50.557C43.9591 50.547 44.7037 50.8394 45.2622 51.3716V51.3716Z" fill="#5EC4B9"/>
<path d="M38.9607 33.7336C36.8946 31.7469 33.0403 32.3436 30.357 35.0617C28.923 36.514 28.1118 38.2788 27.9842 39.9115L32.9895 44.7245C34.6409 44.5543 36.4087 43.7094 37.8426 42.2571C40.534 39.5333 41.0337 35.7216 38.9607 33.7336Z" fill="#00AC9A"/>
<path d="M44.2923 45.8044C43.9004 46.2017 43.3677 46.4286 42.8097 46.4359C42.2517 46.4433 41.7132 46.2305 41.311 45.8437C41.1132 45.6546 40.955 45.428 40.8458 45.1771C40.7365 44.9262 40.6784 44.6561 40.6746 44.3825C40.6709 44.1089 40.7218 43.8373 40.8242 43.5836C40.9266 43.3298 41.0785 43.099 41.2711 42.9046C41.663 42.5073 42.1957 42.2804 42.7537 42.2731C43.3118 42.2657 43.8502 42.4785 44.2525 42.8653C44.4505 43.0543 44.6088 43.2808 44.7182 43.5317C44.8276 43.7826 44.8859 44.0528 44.8896 44.3265C44.8933 44.6002 44.8424 44.8718 44.7398 45.1256C44.6373 45.3794 44.4851 45.6101 44.2923 45.8044V45.8044Z" fill="#97D5C9"/>
<path d="M29.6051 31.711C29.2132 32.1083 28.6805 32.3352 28.1225 32.3426C27.5644 32.3499 27.026 32.1371 26.6238 31.7503C26.4257 31.5613 26.2674 31.3348 26.158 31.0839C26.0486 30.833 25.9903 30.5628 25.9866 30.2891C25.9829 30.0154 26.0338 29.7438 26.1364 29.49C26.2389 29.2362 26.3911 29.0055 26.5839 28.8113C26.9756 28.4128 27.5086 28.1848 28.0673 28.1769C28.6259 28.1691 29.1652 28.3819 29.5679 28.7692C29.7662 28.9583 29.9247 29.1852 30.0341 29.4364C30.1435 29.6877 30.2017 29.9582 30.2051 30.2323C30.2086 30.5063 30.1573 30.7782 30.0543 31.0321C29.9512 31.2861 29.7985 31.5169 29.6051 31.711Z" fill="#97D5C9"/>
<path d="M31.5554 40.675C30.5857 39.5713 30.3763 38.2835 31.3202 37.3019L32.5492 38.4838C32.3839 38.6524 32.2841 38.8746 32.268 39.1102C32.2518 39.3459 32.3203 39.5796 32.4612 39.7692L33.9847 38.2238C33.3537 37.2103 32.5883 36.0193 33.7736 34.8256C34.7153 33.8741 36.0995 33.9902 37.2447 34.9309L37.8922 34.2771L38.415 34.7797L37.7689 35.4349C38.7062 36.4861 38.8527 37.6973 37.9766 38.7281L36.7406 37.5395C36.8799 37.3775 36.9647 37.1758 36.9831 36.963C37.0015 36.7501 36.9524 36.5369 36.8429 36.3534L35.3353 37.8795C35.9723 38.9174 36.7565 40.0943 35.5754 41.2893C34.7621 42.1128 33.3475 42.2537 32.0715 41.1847L31.4296 41.8439L30.9013 41.3358L31.5554 40.675ZM34.9624 37.2238L36.3468 35.8229C35.9125 35.5177 35.4277 35.4931 35.0211 35.9048C34.637 36.282 34.7126 36.7321 34.9624 37.2238V37.2238ZM34.3616 38.8671L32.965 40.2805C33.453 40.6078 33.9814 40.562 34.3399 40.1976C34.6983 39.8332 34.6169 39.3641 34.3616 38.8671V38.8671Z" fill="#97D5C9"/>
</g>
<g clip-path="url(#clip2_207_2233)">
<path d="M42.1528 53.433L33.3707 19.2864L47.4721 15.8744L56.2542 50.021L42.1528 53.433Z" fill="#00AC9A"/>
<path d="M45.5445 51.7958L52.4667 50.1207C52.3715 49.7541 52.3503 49.3722 52.4043 48.9973C52.4583 48.6223 52.5865 48.2619 52.7814 47.9371C52.9763 47.6123 53.2339 47.3296 53.5393 47.1055C53.8447 46.8814 54.1917 46.7204 54.56 46.6319L47.6175 19.6382C46.8675 19.8146 46.0783 19.6908 45.4184 19.2932C44.7585 18.8956 44.2803 18.2556 44.0859 17.5101L37.158 19.1866C37.2533 19.5533 37.2745 19.9352 37.2205 20.3101C37.1665 20.685 37.0383 21.0454 36.8434 21.3702C36.6485 21.695 36.3909 21.9778 36.0855 22.2019C35.7801 22.426 35.4331 22.587 35.0648 22.6755L42.0073 49.6692C42.7579 49.491 43.5484 49.6138 44.2095 50.0113C44.8706 50.4088 45.3498 51.0494 45.5445 51.7958V51.7958Z" fill="#5EC4B9"/>
<path d="M49.4703 33.4819C48.7592 30.7052 45.1679 29.1838 41.4557 30.0827C39.472 30.5628 37.8534 31.6363 36.8855 32.9574L38.6082 39.6843C40.1019 40.4088 42.0497 40.6208 44.0334 40.1407C47.7554 39.2413 50.1865 36.2633 49.4703 33.4819Z" fill="#00AC9A"/>
<path d="M47.6501 46.5517C47.1077 46.6832 46.5354 46.5958 46.057 46.3084C45.5787 46.0209 45.2328 45.5565 45.0944 45.0159C45.0258 44.751 45.0106 44.4751 45.0497 44.2043C45.0889 43.9335 45.1816 43.6732 45.3224 43.4386C45.4633 43.204 45.6495 42.9998 45.8701 42.838C46.0908 42.6761 46.3414 42.5599 46.6075 42.496C47.1498 42.3644 47.7222 42.4518 48.2005 42.7393C48.6789 43.0267 49.0247 43.4911 49.1631 44.0317C49.232 44.2966 49.2474 44.5726 49.2084 44.8435C49.1694 45.1144 49.0767 45.3748 48.9358 45.6095C48.7949 45.8441 48.6086 46.0483 48.3879 46.2101C48.1671 46.3719 47.9163 46.488 47.6501 46.5517V46.5517Z" fill="#97D5C9"/>
<path d="M42.5799 26.8378C42.0376 26.9694 41.4652 26.882 40.9869 26.5945C40.5085 26.307 40.1627 25.8427 40.0243 25.302C39.9554 25.0372 39.94 24.7612 39.979 24.4903C40.018 24.2194 40.1107 23.959 40.2516 23.7243C40.3925 23.4897 40.5788 23.2855 40.7996 23.1237C41.0203 22.9619 41.2712 22.8458 41.5374 22.7821C42.0801 22.6494 42.6533 22.7362 43.1325 23.0235C43.6117 23.3109 43.9581 23.7756 44.0967 24.3169C44.1657 24.5821 44.1811 24.8584 44.1419 25.1297C44.1027 25.4009 44.0097 25.6615 43.8685 25.8963C43.7272 26.1311 43.5404 26.3354 43.3192 26.4971C43.0979 26.6587 42.8466 26.7746 42.5799 26.8378Z" fill="#97D5C9"/>
<path d="M39.5202 35.4863C39.2766 34.0374 39.7763 32.8323 41.0956 32.4944L41.5186 34.1463C41.2892 34.2026 41.0874 34.339 40.9497 34.5309C40.8119 34.7227 40.7472 34.9575 40.7671 35.1929L42.876 34.6807C42.8729 33.4868 42.8489 32.0713 44.485 31.6802C45.7866 31.3668 46.9024 32.1941 47.381 33.5967L48.2757 33.3816L48.4556 34.0841L47.5614 34.3012C47.8051 35.6883 47.2922 36.7953 46.0048 37.2106L45.5794 35.5494C45.7831 35.485 45.9614 35.3582 46.089 35.1868C46.2167 35.0155 46.2872 34.8084 46.2906 34.5948L44.2056 35.0988C44.2008 36.3166 44.2482 37.7301 42.615 38.1245C41.49 38.3966 40.213 37.7719 39.6907 36.1913L38.798 36.4139L38.6162 35.7039L39.5202 35.4863ZM44.2336 34.345L46.1481 33.8826C45.9394 33.3944 45.5402 33.1184 44.9777 33.2545C44.4526 33.373 44.28 33.7955 44.2336 34.345V34.345ZM42.8578 35.4261L40.9264 35.8928C41.169 36.428 41.6424 36.6671 42.139 36.5459C42.6356 36.4247 42.8132 35.983 42.8578 35.4261V35.4261Z" fill="#97D5C9"/>
</g>
<g clip-path="url(#clip3_207_2233)">
<path d="M51.999 47.9979C55.6587 44.3381 55.6587 38.4045 51.999 34.7448C48.3392 31.0851 42.4057 31.0851 38.7459 34.7448C35.0862 38.4045 35.0862 44.3381 38.7459 47.9979C42.4057 51.6576 48.3392 51.6576 51.999 47.9979Z" fill="#E8A800"/>
<path d="M50.9607 46.9592C54.0468 43.8731 54.0468 38.8696 50.9607 35.7835C47.8746 32.6974 42.871 32.6974 39.7849 35.7835C36.6988 38.8696 36.6988 43.8731 39.7849 46.9592C42.871 50.0453 47.8746 50.0453 50.9607 46.9592Z" fill="#F3D600"/>
<path opacity="0.2" d="M45.4929 32C45.1864 32 44.8828 32.0116 44.5821 32.0347L36.058 40.3391C36.0233 40.6398 36.0001 40.9405 36.0001 41.2528C35.983 42.5013 36.2166 43.7407 36.6869 44.8974C37.1573 46.0541 37.8548 47.1047 38.7384 47.9871L52.1578 34.9146C51.2987 34.0071 50.2661 33.2815 49.1212 32.7808C47.9763 32.2802 46.7424 32.0146 45.4929 32V32Z" fill="white"/>
<path opacity="0.2" d="M44.2145 50.6674L54.6961 40.4576C54.5484 38.9328 54.027 37.4679 53.1781 36.1926L39.99 49.0424C41.243 49.9235 42.694 50.4816 44.2145 50.6674V50.6674Z" fill="white"/>
<path d="M44.793 46.6602C42.8499 46.478 41.4938 45.44 41.4648 43.6501L43.726 43.6733C43.7244 43.9853 43.8337 44.2877 44.0344 44.5266C44.2351 44.7655 44.5142 44.9252 44.8219 44.9773L44.8681 42.1205C43.3212 41.7302 41.4938 41.282 41.5429 39.0787C41.5718 37.3207 43.0089 36.1872 44.9722 36.0571L44.9925 34.8513H45.9553L45.9351 36.0571C47.8175 36.2219 49.0666 37.231 49.1736 39.0064L46.898 38.9862C46.8761 38.7081 46.7691 38.4436 46.5917 38.2284C46.4143 38.0132 46.1749 37.8578 45.9062 37.7833L45.8599 40.5996C47.4213 41.016 49.2545 41.4353 49.2169 43.6386C49.1909 45.1595 47.9591 46.5619 45.7471 46.692L45.7356 47.9035H44.7727L44.793 46.6602ZM44.8999 40.2989L44.9433 37.7226C44.2465 37.818 43.7578 38.2315 43.7462 38.9919C43.7347 39.6946 44.2089 40.056 44.8999 40.3018V40.2989ZM45.831 42.4097L45.7876 45.012C46.5597 44.8848 47.0194 44.3672 47.031 43.6964C47.0425 43.0256 46.5336 42.6555 45.831 42.4097Z" fill="#E8A800"/>
</g>
<g clip-path="url(#clip4_207_2233)">
<path d="M63.2866 40.2854C66.5546 37.0174 66.5546 31.7189 63.2866 28.4509C60.0186 25.1829 54.7201 25.1829 51.4521 28.4509C48.1841 31.7189 48.1841 37.0174 51.4521 40.2854C54.7201 43.5534 60.0186 43.5534 63.2866 40.2854Z" fill="#E8A800"/>
<path d="M62.3592 39.3579C65.1149 36.6022 65.1149 32.1342 62.3592 29.3784C59.6034 26.6226 55.1354 26.6226 52.3796 29.3784C49.6239 32.1342 49.6239 36.6022 52.3796 39.3579C55.1354 42.1137 59.6034 42.1137 62.3592 39.3579Z" fill="#F3D600"/>
<path opacity="0.2" d="M57.4767 26C57.203 26 56.9319 26.0103 56.6634 26.031L49.0517 33.4465C49.0207 33.715 49 33.9835 49 34.2624C48.9848 35.3773 49.1933 36.484 49.6133 37.5169C50.0333 38.5498 50.6562 39.4879 51.4452 40.2758L63.4282 28.6026C62.6611 27.7923 61.739 27.1444 60.7166 26.6973C59.6943 26.2502 58.5925 26.0131 57.4767 26V26Z" fill="white"/>
<path opacity="0.2" d="M56.3353 42.6693L65.695 33.5523C65.563 32.1907 65.0975 30.8827 64.3395 29.7439L52.563 41.2183C53.6819 42.005 54.9776 42.5034 56.3353 42.6693V42.6693Z" fill="white"/>
<path d="M56.8518 39.0908C55.1167 38.9281 53.9057 38.0012 53.8799 36.4029L55.899 36.4236C55.8975 36.7022 55.9951 36.9722 56.1744 37.1855C56.3536 37.3988 56.6029 37.5415 56.8776 37.588L56.9189 35.037C55.5375 34.6885 53.9057 34.2882 53.9496 32.3208C53.9754 30.7509 55.2587 29.7388 57.0118 29.6226L57.0299 28.5459H57.8897L57.8716 29.6226C59.5525 29.7698 60.6679 30.6709 60.7635 32.2562L58.7314 32.2381C58.7119 31.9899 58.6164 31.7536 58.458 31.5615C58.2995 31.3693 58.0858 31.2306 57.8458 31.164L57.8045 33.6789C59.1988 34.0507 60.8358 34.4251 60.8022 36.3926C60.779 37.7507 59.679 39.003 57.7038 39.1192L57.6935 40.201H56.8337L56.8518 39.0908ZM56.9473 33.4104L56.986 31.1098C56.3638 31.195 55.9274 31.5642 55.9171 32.2433C55.9067 32.8707 56.3302 33.1935 56.9473 33.413V33.4104ZM57.7787 35.2952L57.74 37.619C58.4294 37.5054 58.8399 37.0432 58.8502 36.4442C58.8605 35.8452 58.4061 35.5147 57.7787 35.2952Z" fill="#E8A800"/>
</g>
<path d="M39.3337 48.3105L24.1773 60.217L24.1773 36.404L39.3337 48.3105Z" fill="#EDDBA8"/>
<path d="M51.5916 48.3104L66.748 36.4039L66.748 60.2169L51.5916 48.3104Z" fill="#EDDBA8"/>
<path d="M66.981 60.004C67.1437 59.5642 48.4592 45.456 48.4592 45.456C46.1201 43.7298 44.8897 43.7026 42.5766 45.456C42.5766 45.456 23.9193 59.5528 24.0763 59.9866L24.0725 59.9897C24.0744 59.9936 24.0776 59.9961 24.0801 59.9996C24.2383 60.4309 24.4685 60.8322 24.7609 61.1865C24.8844 61.3363 25.0331 61.4617 25.1763 61.5921L25.1693 61.5975C25.1807 61.6077 25.196 61.6125 25.2073 61.6225C25.814 62.1637 26.5789 62.5141 27.4287 62.6142C27.442 62.6158 27.4528 62.6227 27.4661 62.6244H27.5174C27.6465 62.6367 27.7694 62.6678 27.9018 62.6678H63.1754C64.9124 62.6678 66.384 61.5754 66.9684 60.0443C66.9754 60.033 66.9861 60.0247 66.9925 60.013L66.981 60.004V60.004Z" fill="#E4C884"/>
<path d="M19.0117 67.064V67.676H27.3877V65.792H18.1957V66.392H26.5477V67.064H19.0117ZM18.7357 67.064C18.5437 67.712 18.2797 68.48 18.0397 69.02L18.8677 69.08C19.0837 68.552 19.3597 67.76 19.5877 67.064H18.7357ZM18.6877 68.312L18.4957 68.924H27.5797V68.312H18.6877ZM27.2917 68.312V68.432C27.2197 69.092 27.1597 69.368 27.0637 69.464C27.0037 69.524 26.9317 69.536 26.7877 69.536C26.6557 69.536 26.3317 69.524 25.9597 69.488C26.0437 69.656 26.1157 69.92 26.1277 70.088C26.5597 70.124 26.9797 70.124 27.1837 70.112C27.4237 70.1 27.6277 70.04 27.7717 69.896C27.9637 69.704 28.0477 69.344 28.1197 68.612C28.1317 68.504 28.1437 68.312 28.1437 68.312H27.2917ZM21.1477 65.132V67.268C21.1477 68.504 20.7517 69.512 17.5837 70.112C17.7397 70.268 17.9317 70.604 18.0037 70.808C21.4837 70.136 21.9757 68.876 21.9757 67.292V65.132H21.1477ZM23.8357 65.132V69.824H24.6877V65.132H23.8357ZM19.9597 71.732H25.9957V72.476H19.9597V71.732ZM19.9597 73.04H25.9957V73.796H19.9597V73.04ZM19.9597 70.436H25.9957V71.168H19.9597V70.436ZM19.0837 69.848V74.372H26.8957V69.848H19.0837ZM23.8837 74.972C25.2157 75.368 26.5357 75.824 27.3037 76.184L28.2757 75.704C27.3997 75.344 25.9357 74.864 24.5917 74.504L23.8837 74.972ZM21.1117 74.492C20.2477 74.924 18.7957 75.296 17.5477 75.536C17.7517 75.692 18.0637 76.028 18.2077 76.208C19.4077 75.908 20.9437 75.392 21.9157 74.852L21.1117 74.492ZM32.4517 65.972V66.836H40.2157V65.972H32.4517ZM32.4517 68.768V69.62H40.2037V68.768H32.4517ZM32.3917 71.636V72.488H40.2277V71.636H32.3917ZM31.9477 65.972V70.316C31.9477 72.008 31.8157 74.144 30.4957 75.632C30.6877 75.752 31.0477 76.052 31.1917 76.232C32.6197 74.636 32.8357 72.152 32.8357 70.328V65.972H31.9477ZM39.8557 65.972V74.936C39.8557 75.164 39.7717 75.236 39.5437 75.248C39.3157 75.248 38.4997 75.26 37.6477 75.224C37.7797 75.464 37.9237 75.86 37.9597 76.1C39.0997 76.112 39.7957 76.1 40.2037 75.956C40.5997 75.8 40.7437 75.524 40.7437 74.936V65.972H39.8557ZM35.7157 66.296V76.052H36.6277V66.296H35.7157ZM53.6677 68.816V75.212C53.6677 75.344 53.6317 75.38 53.4997 75.38C53.3677 75.392 52.9957 75.392 52.5517 75.38C52.6717 75.596 52.8037 75.956 52.8517 76.184C53.4637 76.184 53.8837 76.16 54.1597 76.016C54.4357 75.884 54.5197 75.644 54.5197 75.212V68.816H53.6677ZM52.3717 65.732C52.9837 66.032 53.7037 66.5 54.0877 66.848L54.5797 66.296C54.2197 65.948 53.4637 65.516 52.8637 65.24L52.3717 65.732ZM48.4477 68.816V76.16H49.2877V69.596H53.9437V68.816H48.4477ZM48.9157 70.88V71.612H53.9917V70.88H48.9157ZM48.9157 72.92V73.676H53.9317V72.92H48.9157ZM48.0637 66.872V67.676H54.7837V66.872H48.0637ZM51.0397 65.132V76.124H51.8917V65.132H51.0397ZM45.5197 71.012V76.172H46.3477V70.016L45.5197 71.012ZM43.9357 67.4V68.216H47.2717V67.4H43.9357ZM45.4837 65.168V67.82H46.3237V65.168H45.4837ZM46.2877 70.088L45.8077 70.484C46.1917 70.952 47.1757 72.26 47.5117 72.824L48.0517 72.212C47.7877 71.864 46.6117 70.424 46.2877 70.088ZM46.9837 67.4V67.58C46.3837 69.416 44.9917 71.348 43.6597 72.392C43.8037 72.536 44.0437 72.944 44.1277 73.172C45.5557 71.972 47.0557 69.872 47.7997 67.664L47.3197 67.352L47.1637 67.4H46.9837ZM47.7397 69.596C47.5117 70.04 47.0677 70.724 46.7677 71.12L47.1997 71.456C47.5237 71.084 47.9317 70.508 48.2797 70.004L47.7397 69.596ZM63.5677 65.216V67.064H64.4437V65.216H63.5677ZM62.1637 68.612H65.7877V69.344H62.1637V68.612ZM61.3597 68.072V69.884H66.6157V68.072H61.3597ZM60.1837 66.788V68.6H60.9637V67.46H67.0117V68.6H67.8157V66.788H60.1837ZM61.1197 65.528C61.4437 65.96 61.7557 66.56 61.8877 66.968L62.6077 66.668C62.4637 66.284 62.1397 65.708 61.8157 65.276L61.1197 65.528ZM66.2317 65.264C66.0637 65.672 65.7157 66.284 65.4397 66.68L66.0997 66.932C66.3877 66.572 66.7597 66.032 67.0957 65.528L66.2317 65.264ZM62.6197 74.456C61.9837 74.864 60.8197 75.32 59.7877 75.572C59.9677 75.716 60.1837 75.992 60.3037 76.172C61.3477 75.896 62.5357 75.416 63.2797 74.912L62.6197 74.456ZM64.6117 75.008C65.6677 75.356 66.7597 75.824 67.4197 76.196L68.1037 75.644C67.3957 75.26 66.2077 74.804 65.1397 74.468L64.6117 75.008ZM61.6117 72.068H66.3637V72.68H61.6117V72.068ZM61.6117 73.172H66.3637V73.808H61.6117V73.172ZM61.6117 70.964H66.3637V71.564H61.6117V70.964ZM60.7837 70.4V74.36H67.2277V70.4H60.7837ZM59.6797 65.168C59.0077 66.992 57.8797 68.792 56.6917 69.956C56.8597 70.16 57.1117 70.64 57.2077 70.844C58.5037 69.5 59.7397 67.472 60.5317 65.432L59.6797 65.168ZM58.4317 68.264V76.148H59.2957V67.424L59.2717 67.412L58.4317 68.264Z" fill="black"/>
<defs>
<clipPath id="clip0_207_2233">
<rect width="43.3987" height="46.049" fill="white" transform="translate(23.7632 16.6724)"/>
</clipPath>
<clipPath id="clip1_207_2233">
<rect width="35.4507" height="14.5437" fill="white" transform="translate(27.8806 19.6541) rotate(43.8778)"/>
</clipPath>
<clipPath id="clip2_207_2233">
<rect width="35.4507" height="14.5437" fill="white" transform="translate(47.4597 15.6785) rotate(75.6362)"/>
</clipPath>
<clipPath id="clip3_207_2233">
<rect width="18.7398" height="18.7398" fill="white" transform="translate(36 32)"/>
</clipPath>
<clipPath id="clip4_207_2233">
<rect width="16.7339" height="16.7339" fill="white" transform="translate(49 26)"/>
</clipPath>
</defs>
</svg>
