<svg width="500" height="160" viewBox="0 0 500 160" fill="none" xmlns="http://www.w3.org/2000/svg">
<rect width="160" height="160" rx="80" fill="#F5F5F5"/>
<g clip-path="url(#clip0_2_4245)">
<path d="M112.6 106.07C112.906 105.532 113.151 104.962 113.33 104.37C113.608 104.914 113.943 105.427 114.33 105.9C114.866 106.201 115.433 106.446 116.02 106.63C115.48 106.909 114.97 107.244 114.5 107.63C114.192 108.165 113.944 108.731 113.76 109.32C113.481 108.777 113.146 108.264 112.76 107.79C112.22 107.488 111.65 107.244 111.06 107.06C111.608 106.787 112.124 106.455 112.6 106.07V106.07Z" fill="white"/>
<path d="M43.3699 95.44C43.865 94.5692 44.264 93.6471 44.5598 92.69C45.0254 93.5768 45.5891 94.4087 46.24 95.17C47.1067 95.6664 48.0258 96.0655 48.9802 96.36C48.0968 96.8274 47.2655 97.3872 46.5002 98.03C46.0063 98.9049 45.6069 99.8302 45.3098 100.79C44.8431 99.9031 44.2834 99.0684 43.6399 98.3C42.7691 97.8048 41.847 97.4058 40.8899 97.11C41.777 96.6488 42.6089 96.0885 43.3699 95.44V95.44Z" fill="white"/>
<path d="M87.3497 105.87C87.4237 107.064 87.0212 108.239 86.2301 109.137C85.439 110.035 84.3242 110.583 83.13 110.66C81.9337 110.626 80.7996 110.12 79.9752 109.252C79.1508 108.385 78.7032 107.226 78.7301 106.03C78.6562 104.837 79.0589 103.663 79.8502 102.766C80.6415 101.87 81.7565 101.325 82.9498 101.25C83.5425 101.263 84.1267 101.393 84.669 101.632C85.2114 101.872 85.7011 102.216 86.11 102.645C86.5188 103.075 86.8391 103.581 87.0519 104.134C87.2646 104.687 87.3657 105.277 87.3497 105.87V105.87Z" fill="#E4C884"/>
<path d="M82.9501 101.25C81.9095 101.273 80.9175 101.695 80.1801 102.43C79.7736 103.189 79.567 104.039 79.58 104.9C79.5531 106.095 80.0014 107.253 80.8261 108.119C81.6508 108.985 82.785 109.489 83.9804 109.52C85.0239 109.497 86.0186 109.074 86.7602 108.34C87.1692 107.582 87.3724 106.731 87.35 105.87C87.366 105.277 87.2649 104.687 87.0522 104.134C86.8394 103.581 86.5191 103.075 86.1103 102.645C85.7014 102.216 85.2117 101.872 84.6694 101.632C84.127 101.393 83.5428 101.263 82.9501 101.25V101.25Z" fill="#FFF7E8"/>
<path d="M96.6397 105.14C96.9629 106.494 96.739 107.92 96.0162 109.109C95.2933 110.298 94.1302 111.154 92.7798 111.49C91.4 111.697 89.9944 111.349 88.8702 110.523C87.7459 109.696 86.9943 108.459 86.7798 107.08C86.4514 105.727 86.6737 104.3 87.3975 103.111C88.1214 101.922 89.2873 101.069 90.6397 100.74C91.3226 100.635 92.0198 100.665 92.691 100.829C93.3621 100.994 93.9941 101.288 94.5513 101.697C95.1085 102.106 95.5797 102.62 95.938 103.211C96.2964 103.801 96.5348 104.457 96.6397 105.14V105.14Z" fill="#E4C884"/>
<path d="M86.7896 107.08C86.978 108.063 87.4194 108.98 88.0699 109.74C89.0941 110.4 90.3346 110.637 91.5298 110.4C92.8808 110.068 94.0457 109.215 94.7691 108.027C95.4925 106.839 95.7154 105.412 95.3897 104.06C95.197 103.079 94.7566 102.163 94.1099 101.4C93.0819 100.749 91.8453 100.514 90.65 100.74C89.2976 101.069 88.1311 101.922 87.4073 103.111C86.6835 104.3 86.4611 105.727 86.7896 107.08V107.08Z" fill="#FFF7E8"/>
<path d="M79.7302 103.65C79.9935 104.711 79.8252 105.833 79.2629 106.77C78.7006 107.707 77.7901 108.383 76.7302 108.65C75.6497 108.814 74.5482 108.543 73.6672 107.896C72.7863 107.249 72.1976 106.28 72.03 105.2C71.7694 104.139 71.9383 103.019 72.5002 102.082C73.0621 101.146 73.9716 100.469 75.03 100.2C76.1105 100.036 77.2116 100.307 78.0925 100.954C78.9735 101.601 79.5626 102.57 79.7302 103.65V103.65Z" fill="#E4C884"/>
<path d="M75.0299 100.19C74.0944 100.378 73.2671 100.918 72.7199 101.7C72.4767 102.445 72.4283 103.241 72.5797 104.01C72.7474 105.093 73.3376 106.064 74.2204 106.713C75.1032 107.362 76.2066 107.634 77.2897 107.47C78.2252 107.282 79.0526 106.742 79.5998 105.96C79.843 105.215 79.8913 104.419 79.7399 103.65C79.6581 103.113 79.4716 102.598 79.1906 102.134C78.9096 101.669 78.5396 101.265 78.1022 100.944C77.6648 100.622 77.1684 100.39 76.6413 100.261C76.1141 100.132 75.5664 100.108 75.0299 100.19V100.19Z" fill="#FFF7E8"/>
<path d="M73.1103 101.98C73.3273 102.874 73.1807 103.817 72.7026 104.603C72.2244 105.388 71.4535 105.952 70.56 106.17C69.6519 106.305 68.7277 106.074 67.9892 105.529C67.2507 104.983 66.7583 104.168 66.6201 103.26C66.403 102.369 66.5486 101.428 67.0248 100.644C67.5011 99.8605 68.2692 99.2978 69.1601 99.08C69.61 99.0104 70.0695 99.0302 70.5117 99.1384C70.9538 99.2465 71.3703 99.4409 71.7373 99.7103C72.1042 99.9797 72.4142 100.319 72.6498 100.708C72.8855 101.098 73.042 101.53 73.1103 101.98V101.98Z" fill="#E4C884"/>
<path d="M69.16 99.05C68.3742 99.2084 67.6796 99.6632 67.2201 100.32C67.0172 100.946 66.9795 101.615 67.1102 102.26C67.1773 102.71 67.3326 103.142 67.5672 103.531C67.8018 103.92 68.1112 104.26 68.4774 104.529C68.8435 104.799 69.259 104.993 69.7005 105.101C70.1421 105.21 70.6009 105.23 71.0501 105.16C71.8371 105.005 72.5328 104.549 72.9901 103.89C73.1967 103.264 73.2381 102.596 73.1102 101.95C73.0419 101.5 72.8854 101.068 72.6498 100.678C72.4141 100.289 72.1041 99.9496 71.7372 99.6802C71.3702 99.4108 70.9537 99.2165 70.5116 99.1083C70.0694 99.0002 69.6099 98.9804 69.16 99.05V99.05Z" fill="#FFF7E8"/>
<path d="M67.39 98.98C67.4881 99.3669 67.508 99.7694 67.4486 100.164C67.3892 100.559 67.252 100.938 67.0443 101.279C66.8366 101.619 66.5626 101.915 66.2391 102.149C65.9156 102.383 65.5488 102.55 65.16 102.64C64.7662 102.704 64.3637 102.688 63.9759 102.595C63.5881 102.501 63.223 102.331 62.9017 102.094C62.5804 101.858 62.3094 101.56 62.1048 101.217C61.9002 100.875 61.7663 100.495 61.7103 100.1C61.6122 99.7131 61.5918 99.3105 61.6512 98.9158C61.7106 98.5211 61.8483 98.1423 62.056 97.8014C62.2637 97.4606 62.5372 97.1646 62.8607 96.9308C63.1842 96.697 63.5515 96.5302 63.9403 96.44C64.3341 96.3762 64.7366 96.3916 65.1244 96.4852C65.5121 96.5789 65.8773 96.749 66.1986 96.9855C66.5198 97.222 66.7908 97.5202 66.9954 97.8627C67.2001 98.2052 67.3339 98.585 67.39 98.98V98.98Z" fill="#FFF7E8"/>
<path d="M63.9403 96.44C63.2492 96.5707 62.6378 96.9698 62.2401 97.55C62.0609 98.0986 62.0264 98.6842 62.14 99.25C62.1961 99.645 62.3304 100.025 62.5351 100.367C62.7397 100.71 63.0107 101.008 63.3319 101.244C63.6532 101.481 64.0184 101.651 64.4062 101.745C64.7939 101.838 65.1964 101.854 65.5902 101.79C66.2785 101.652 66.887 101.255 67.2899 100.68C67.4692 100.131 67.5037 99.5458 67.39 98.98C67.334 98.585 67.2001 98.2052 66.9955 97.8627C66.7909 97.5202 66.5199 97.222 66.1986 96.9855C65.8774 96.749 65.5122 96.5789 65.1244 96.4852C64.7366 96.3916 64.3341 96.3762 63.9403 96.44V96.44Z" fill="#FFF7E8"/>
<path d="M103.03 104.11C103.274 105.116 103.109 106.179 102.571 107.064C102.033 107.948 101.166 108.584 100.16 108.83C99.1354 108.985 98.0911 108.728 97.2553 108.116C96.4195 107.503 95.8603 106.584 95.7002 105.56C95.4557 104.552 95.6203 103.489 96.1582 102.602C96.6961 101.716 97.5636 101.079 98.5703 100.83C99.5965 100.675 100.642 100.933 101.478 101.548C102.315 102.163 102.872 103.084 103.03 104.11V104.11Z" fill="#E4C884"/>
<path d="M95.6998 105.56C95.8373 106.298 96.165 106.987 96.65 107.56C97.4101 108.052 98.3307 108.231 99.2198 108.06C100.228 107.814 101.098 107.177 101.638 106.291C102.178 105.404 102.344 104.339 102.1 103.33C101.963 102.592 101.635 101.903 101.15 101.33C100.384 100.844 99.4609 100.669 98.5699 100.84C97.5654 101.089 96.6998 101.724 96.1622 102.609C95.6245 103.493 95.4583 104.554 95.6998 105.56V105.56Z" fill="#FFF7E8"/>
<path d="M107.16 100.55C107.269 100.97 107.293 101.408 107.231 101.838C107.169 102.268 107.022 102.681 106.799 103.053C106.575 103.426 106.28 103.75 105.93 104.007C105.58 104.264 105.182 104.448 104.76 104.55C103.903 104.679 103.031 104.463 102.333 103.949C101.636 103.436 101.17 102.666 101.04 101.81C100.931 101.39 100.907 100.952 100.969 100.522C101.031 100.092 101.178 99.6791 101.401 99.3068C101.624 98.9344 101.92 98.6103 102.27 98.3533C102.62 98.0963 103.018 97.9116 103.44 97.81C104.297 97.6809 105.169 97.8969 105.867 98.4106C106.564 98.9243 107.029 99.6937 107.16 100.55V100.55Z" fill="#E4C884"/>
<path d="M101.03 101.76C101.147 102.374 101.423 102.946 101.83 103.42C102.468 103.817 103.232 103.959 103.97 103.82C104.387 103.719 104.779 103.537 105.125 103.285C105.471 103.032 105.764 102.713 105.987 102.348C106.21 101.982 106.358 101.575 106.424 101.152C106.49 100.729 106.471 100.296 106.37 99.88C106.254 99.2709 105.982 98.7023 105.58 98.23C104.942 97.824 104.174 97.674 103.43 97.81C102.588 98.016 101.863 98.5477 101.412 99.2884C100.962 100.029 100.825 100.918 101.03 101.76V101.76Z" fill="#FFF7E8"/>
<path fill-rule="evenodd" clip-rule="evenodd" d="M94.32 50.21C91.91 41.21 95.25 30.21 107.86 29.05C120.47 27.89 131.98 49.52 110.27 57.2C102.67 58.91 94.32 50.21 94.32 50.21Z" fill="#B56D52"/>
<path fill-rule="evenodd" clip-rule="evenodd" d="M102.03 49.05C100.91 42.53 106.9 36.77 111.91 38.18C116.92 39.59 113.99 50.08 106.34 51.87C98.6903 53.66 102.03 49.05 102.03 49.05Z" fill="#D18367"/>
<path fill-rule="evenodd" clip-rule="evenodd" d="M51.4002 69.1C48.9902 79.77 51.4001 96.57 69.8001 100.31C88.2001 104.05 104.73 103.24 113.53 97.11C122.33 90.98 120.2 84.3 117 80.3C113.8 76.3 115.4 72.57 115.13 65.64C114.86 58.71 105.53 46.43 93.0003 44.03C80.4703 41.63 55.4002 45.9 51.4002 69.1Z" fill="#B56D52"/>
<path fill-rule="evenodd" clip-rule="evenodd" d="M69.35 53.98C68.46 46.33 61.4899 36.11 47.7899 39.49C34.0899 42.87 33.1301 70.43 55.4901 72.29C64.2001 70.17 69.35 53.98 69.35 53.98Z" fill="#B56D52"/>
<path fill-rule="evenodd" clip-rule="evenodd" d="M62.5998 59.63C60.2198 63.43 53.2998 64.74 49.3898 60.57C43.5298 54.3 49.5299 47.1 56.1999 48.3C63.9499 49.7 63.9298 57.5 62.5998 59.63Z" fill="#D18367"/>
<path d="M101.72 78.3C96.5999 77.75 87.4199 81 89.2199 89.22C90.5499 95.22 99.7499 98.84 105.22 95.4C112.74 90.69 112.74 79.47 101.72 78.3Z" fill="#FFF7E8"/>
<path d="M83.28 80.68C85.1412 80.68 86.65 79.1712 86.65 77.31C86.65 75.4488 85.1412 73.94 83.28 73.94C81.4188 73.94 79.91 75.4488 79.91 77.31C79.91 79.1712 81.4188 80.68 83.28 80.68Z" fill="#3E3A39"/>
<path d="M107.95 76.16C109.811 76.16 111.32 74.6512 111.32 72.79C111.32 70.9288 109.811 69.42 107.95 69.42C106.089 69.42 104.58 70.9288 104.58 72.79C104.58 74.6512 106.089 76.16 107.95 76.16Z" fill="#3E3A39"/>
<path fill-rule="evenodd" clip-rule="evenodd" d="M97.0299 85.16C98.1699 87.53 100.18 88.86 100.95 85.99C102.28 89.22 103.8 88.69 104.48 85.35C106.05 88 107.41 85.35 106.83 83C106.15 80.26 102.74 80 98.0098 81.82C97.4387 82.1346 97.0152 82.6623 96.8316 83.288C96.648 83.9137 96.7193 84.5866 97.0299 85.16V85.16Z" fill="#3E3A39"/>
<path d="M102.48 91.23C102.363 91.2645 102.238 91.2645 102.12 91.23C101.975 91.1759 101.857 91.067 101.791 90.9267C101.726 90.7864 101.719 90.626 101.77 90.48C102.147 88.9371 102.049 87.3167 101.49 85.83C101.469 85.7552 101.462 85.6769 101.472 85.5996C101.481 85.5223 101.505 85.4476 101.543 85.3797C101.581 85.3119 101.632 85.2522 101.694 85.2042C101.755 85.1562 101.825 85.1208 101.9 85.1C102.05 85.06 102.209 85.0807 102.344 85.1574C102.479 85.2341 102.578 85.3608 102.62 85.51C103.256 87.2308 103.347 89.1058 102.88 90.88C102.846 90.9656 102.791 91.0418 102.722 91.1026C102.652 91.1634 102.57 91.207 102.48 91.23V91.23Z" fill="#3E3A39"/>
<path d="M102.47 90.12H102.66C103.73 90.25 105.95 91.71 107.21 92.94C107.32 93.0505 107.381 93.1996 107.381 93.355C107.381 93.5104 107.32 93.6596 107.21 93.77C107.098 93.88 106.947 93.9415 106.79 93.9415C106.633 93.9415 106.482 93.88 106.37 93.77C105.278 92.6621 103.952 91.8114 102.49 91.28C100.68 90.99 99.1198 92.46 97.8298 93.94C97.7261 94.0554 97.5818 94.1261 97.427 94.1373C97.2722 94.1485 97.1195 94.0993 97.0002 94C96.8909 93.8896 96.8293 93.7404 96.8293 93.585C96.8293 93.4296 96.8909 93.2805 97.0002 93.17C98.3302 91.62 100.2 89.86 102.47 90.12Z" fill="#3E3A39"/>
<path d="M112.03 58.03C111.942 58.0296 111.856 58.0086 111.778 57.9687C111.7 57.9287 111.632 57.8709 111.58 57.8C104.38 46.99 92.4204 44.39 91.9204 44.29C91.8511 44.2769 91.7848 44.2501 91.7261 44.2112C91.6673 44.1722 91.6172 44.1219 91.5781 44.0633C91.539 44.0046 91.5118 43.9387 91.4985 43.8695C91.4852 43.8002 91.4859 43.729 91.5005 43.66C91.5136 43.5907 91.5401 43.5248 91.5791 43.466C91.618 43.4072 91.6684 43.3568 91.727 43.3177C91.7857 43.2785 91.8516 43.2515 91.9209 43.2382C91.9901 43.2249 92.0613 43.2255 92.1303 43.24C92.6603 43.35 105.03 46.04 112.47 57.24C112.511 57.297 112.539 57.3617 112.553 57.4301C112.568 57.4985 112.568 57.5691 112.554 57.6376C112.54 57.706 112.512 57.7709 112.472 57.8281C112.431 57.8852 112.38 57.9336 112.32 57.97C112.233 58.0222 112.131 58.0433 112.03 58.03V58.03Z" fill="white"/>
<path d="M54.6102 72.2C52.5452 72.264 50.4848 71.9696 48.5203 71.33C48.4557 71.3027 48.3971 71.2629 48.348 71.2129C48.2988 71.1629 48.2597 71.1036 48.2337 71.0385C48.2077 70.9733 48.195 70.9037 48.1961 70.8336C48.1972 70.7635 48.2121 70.6943 48.2401 70.63C48.2933 70.5002 48.3959 70.3967 48.5252 70.3424C48.6546 70.288 48.8 70.2871 48.93 70.34C51.33 71.34 55.85 71.11 55.93 71.1C56.0716 71.0945 56.2095 71.1449 56.3143 71.2403C56.419 71.3357 56.4823 71.4685 56.4901 71.61C56.4941 71.6796 56.4842 71.7494 56.4612 71.8152C56.4383 71.8811 56.4027 71.9417 56.3563 71.9938C56.3098 72.0458 56.2536 72.0881 56.1907 72.1184C56.1279 72.1486 56.0597 72.1662 55.9901 72.17C55.9001 72.17 55.3702 72.2 54.6102 72.2Z" fill="white"/>
<path d="M77.7302 74.19C78.6296 74.7213 79.4738 75.341 80.2502 76.04C80.9702 76.72 82.06 75.63 81.34 74.95C80.4648 74.1656 79.5171 73.4658 78.51 72.86C77.66 72.33 76.8902 73.66 77.7302 74.19V74.19Z" fill="#3E3A39"/>
<path d="M110.33 70.73C110.554 70.2172 110.866 69.747 111.25 69.34C111.63 68.87 112.01 68.4 112.38 67.92C112.98 67.13 111.64 66.37 111.05 67.14C110.142 68.0701 109.395 69.1448 108.84 70.32C108.54 71.32 110.03 71.68 110.33 70.73Z" fill="#3E3A39"/>
<path d="M80.3799 63.2L67.91 66.2C66.9234 66.4234 65.8884 66.2568 65.0218 65.735C64.1552 65.2131 63.5239 64.3765 63.2598 63.4V63.4C63.1214 62.9258 63.0804 62.4286 63.1392 61.9382C63.1981 61.4478 63.3557 60.9744 63.6024 60.5465C63.849 60.1185 64.1797 59.745 64.5745 59.4483C64.9694 59.1515 65.4203 58.9378 65.9 58.82L78.3699 55.82C79.3553 55.5968 80.3887 55.7637 81.2537 56.2857C82.1187 56.8077 82.748 57.6442 83.0098 58.62V58.62C83.1484 59.0934 83.1899 59.59 83.1317 60.0799C83.0734 60.5697 82.9169 61.0428 82.6712 61.4706C82.4256 61.8984 82.096 62.2721 81.7022 62.5693C81.3085 62.8665 80.8587 63.081 80.3799 63.2V63.2Z" fill="#FFD694"/>
<path d="M76.6 63.2L71.1901 64.53C70.9516 64.5847 70.7012 64.5442 70.4921 64.4173C70.283 64.2903 70.1315 64.0868 70.07 63.85L69.07 60.07C69.0368 59.9564 69.027 59.8373 69.0409 59.7197C69.0549 59.6022 69.0922 59.4887 69.151 59.386C69.2099 59.2833 69.2889 59.1936 69.3832 59.1221C69.4775 59.0506 69.5851 58.9989 69.6999 58.97L75.12 57.65C75.3559 57.5952 75.6037 57.6345 75.811 57.7597C76.0182 57.8848 76.1685 58.0858 76.2299 58.32L77.2299 62.1C77.2645 62.2136 77.2756 62.333 77.2624 62.4511C77.2491 62.5691 77.2118 62.6831 77.1527 62.7862C77.0937 62.8892 77.0142 62.9791 76.9191 63.0503C76.824 63.1214 76.7155 63.1724 76.6 63.2V63.2Z" fill="#D8AC57"/>
</g>
<path d="M46.688 127.696V128.672H52.928V127.696H46.688ZM49.296 133.824V134.56H58.624V133.824H49.296ZM49.344 135.472V136.224H58.656V135.472H49.344ZM49.264 137.136V138.016H59.584V137.136H49.264ZM52.592 127.696V127.856C52.464 129.584 52.336 130.256 52.16 130.448C52.048 130.544 51.936 130.576 51.728 130.576C51.536 130.576 51.024 130.56 50.464 130.512C50.608 130.752 50.704 131.152 50.736 131.424C51.344 131.456 51.936 131.472 52.24 131.44C52.608 131.424 52.848 131.328 53.072 131.104C53.376 130.784 53.52 130 53.664 128.144C53.68 128 53.696 127.696 53.696 127.696H52.592ZM55.744 128.32H59.072V130.32H55.744V128.32ZM54.624 127.392V131.264H60.24V127.392H54.624ZM48.48 132.064V138.016H49.664V132.896H59.264V132.064H48.48ZM53.616 132.368V137.504H54.784V132.368H53.616ZM59.184 137.136V137.296C59.024 139.264 58.816 140.048 58.576 140.272C58.448 140.4 58.32 140.416 58.096 140.416C57.872 140.416 57.28 140.4 56.656 140.336C56.816 140.608 56.912 141.008 56.928 141.296C57.632 141.328 58.272 141.344 58.624 141.312C59.008 141.28 59.264 141.2 59.504 140.96C59.872 140.592 60.08 139.712 60.304 137.616C60.32 137.44 60.352 137.136 60.352 137.136H59.184ZM48.24 138.272C47.76 139.008 47.008 140.048 46.304 140.688L47.312 141.264C47.968 140.56 48.672 139.552 49.2 138.784L48.24 138.272ZM50.256 138.752C50.496 139.472 50.688 140.432 50.72 141.04L51.808 140.832C51.744 140.224 51.536 139.296 51.264 138.576L50.256 138.752ZM52.896 138.768C53.296 139.392 53.696 140.272 53.824 140.832L54.832 140.496C54.656 139.936 54.24 139.104 53.808 138.48L52.896 138.768ZM55.472 138.624C55.92 139.088 56.432 139.744 56.656 140.192L57.536 139.76C57.296 139.312 56.784 138.688 56.304 138.24L55.472 138.624ZM49.392 126.576C49.184 128.832 48.624 130.512 46.224 131.36C46.464 131.552 46.752 131.936 46.88 132.192C49.568 131.152 50.256 129.232 50.512 126.576H49.392ZM71.92 130.144H77.152V133.408H71.92V130.144ZM70.832 129.088V134.432H78.272V129.088H70.832ZM73.92 126.64V133.712C73.92 136.24 73.76 139.152 70.144 140.384C70.4 140.608 70.736 141.056 70.88 141.312C74.64 139.776 75.056 136.624 75.056 133.712V126.64H73.92ZM71.984 135.008L70.976 135.232C72.08 138.56 74.32 140.528 78.032 141.328C78.192 141.008 78.496 140.544 78.752 140.288C75.184 139.68 72.96 137.904 71.984 135.008ZM65.216 129.68V130.64H70V129.68H65.216ZM65.216 132.16V133.12H70V132.16H65.216ZM65.168 134.624V135.6H69.856V134.624H65.168ZM67.248 127.824V135.072H68.24V127.824H67.248ZM67.84 136.304C68.208 136.96 68.576 137.824 68.704 138.4L69.312 138.16C69.152 137.616 68.784 136.736 68.4 136.096L67.84 136.304ZM66.752 136.56C67.04 137.376 67.296 138.464 67.36 139.152L68 138.992C67.936 138.32 67.68 137.264 67.36 136.432L66.752 136.56ZM65.632 136.704C65.792 137.664 65.888 138.848 65.856 139.664L66.512 139.568C66.528 138.784 66.432 137.568 66.256 136.624L65.632 136.704ZM64.464 136.464C64.352 137.52 64.096 139.104 63.792 140.048L64.56 140.352C64.832 139.376 65.056 137.776 65.2 136.704L64.464 136.464ZM64.592 127.232V135.6H65.616V128.24H70.336V127.232H64.592ZM69.456 134.624V134.8C69.28 138.48 69.088 139.84 68.816 140.176C68.688 140.32 68.56 140.352 68.336 140.336C68.128 140.336 67.584 140.336 67.008 140.272C67.152 140.56 67.264 140.96 67.28 141.248C67.872 141.296 68.464 141.28 68.768 141.264C69.184 141.232 69.424 141.12 69.664 140.848C70.08 140.352 70.256 138.976 70.448 135.104C70.464 134.96 70.48 134.624 70.48 134.624H69.456ZM88.576 132.112H93.552V133.072H88.576V132.112ZM88.576 130.48H93.552V131.408H88.576V130.48ZM87.472 129.728V133.824H94.704V129.728H87.472ZM87.968 126.56C87.392 128.08 86.448 129.632 85.408 130.64C85.68 130.8 86.128 131.168 86.336 131.344C87.344 130.256 88.384 128.544 89.04 126.848L87.968 126.56ZM87.984 127.952L87.536 128.88H95.84V127.952H87.984ZM85.44 134.608V135.536H96.24V134.608H85.44ZM88.48 135.04C87.728 136.272 86.448 137.408 85.168 138.176C85.376 138.336 85.76 138.72 85.92 138.912C87.216 138.048 88.592 136.736 89.44 135.344L88.48 135.04ZM89.728 136.752C88.976 138.24 87.616 139.568 86.192 140.416C86.432 140.576 86.8 140.944 86.976 141.12C88.384 140.16 89.824 138.704 90.672 137.056L89.728 136.752ZM92.416 136.752C91.84 138.384 90.736 139.824 89.424 140.736C89.648 140.896 90.064 141.216 90.24 141.392C91.536 140.384 92.752 138.816 93.408 136.992L92.416 136.752ZM87.808 136.496L87.104 137.376H95.056V136.496H87.808ZM94.688 136.496V136.656C94.448 139.008 94.192 139.952 93.872 140.24C93.76 140.368 93.632 140.384 93.408 140.384C93.184 140.384 92.656 140.384 92.08 140.32C92.224 140.576 92.336 140.976 92.352 141.264C92.944 141.296 93.536 141.296 93.84 141.28C94.224 141.264 94.496 141.168 94.736 140.928C95.152 140.496 95.44 139.472 95.712 136.96C95.744 136.8 95.76 136.496 95.76 136.496H94.688ZM85.024 126.624C84.128 129.056 82.624 131.456 81.04 133.008C81.264 133.28 81.6 133.92 81.728 134.192C83.456 132.4 85.104 129.696 86.16 126.976L85.024 126.624ZM83.36 130.752V141.264H84.512V129.632L84.48 129.616L83.36 130.752ZM99.184 129.744V130.944H113.6V129.744H99.184ZM105.744 126.576V130.256H106.976V126.576H105.744ZM101.088 130.272V138C101.088 140.064 102.048 140.72 104.272 140.72C104.784 140.72 109.504 140.72 110.48 140.72C111.568 140.72 112.704 140.688 113.104 140.592C113.04 140.288 112.96 139.712 112.928 139.392C112.368 139.488 111.28 139.536 110.496 139.536C109.504 139.536 105.008 139.536 104.128 139.536C102.768 139.536 102.336 139.104 102.336 138.064V130.272H101.088Z" fill="black"/>
<rect x="170" width="160" height="160" rx="80" fill="#F5F5F5"/>
<g clip-path="url(#clip1_2_4245)">
<path d="M222.11 84.36L222.18 84.21C204.71 62.71 211.87 44.26 211.87 44.26C221.82 52.92 225.58 67.81 226.87 74.63L232.99 62.07C232.91 61.38 228.84 43.43 212.42 40.35C212.39 40.35 198.52 71.81 222.11 84.36Z" fill="#FFA94C"/>
<path d="M222.18 84.21L226.84 74.63C225.58 67.81 221.84 52.92 211.84 44.26C211.88 44.26 204.71 62.71 222.18 84.21Z" fill="#FFC492"/>
<path d="M259.5 72.72L272.9 77.37C272 74.03 265.23 48.37 266.42 33.91C280.42 47.69 281.61 62.55 275.9 77.97C277.77 75.55 288 60.42 271.34 37.63L265.46 30C265.46 30 254.61 49.74 259.5 72.72Z" fill="#FFA94C"/>
<path d="M266.42 33.91C265.23 48.39 272 74.03 272.9 77.37L275.62 78.32L275.9 77.97C281.61 62.55 280.42 47.69 266.42 33.91Z" fill="#FFC492"/>
<path d="M214.88 87.94C236.8 90.62 251.77 84.72 251.77 84.72C271.85 90.8 282.43 90.13 288 87.88C289.561 85.928 290.865 83.7839 291.88 81.5C291.88 81.5 288.77 83.05 287.43 81.94C287.43 81.94 292.11 80.07 293.09 78.1C293.09 78.1 287.69 80.97 283.51 76.56C283.51 76.56 272.77 49.72 249.02 49.05L247.83 48.99C245.73 48.83 236.83 48.73 228.83 57.66C228.83 57.66 221.64 64.97 216.1 85.54C215.836 86.4047 215.423 87.2168 214.88 87.94V87.94Z" fill="#FFA94C"/>
<path d="M206.5 91.31C206.5 91.31 211.87 99.61 232.94 106.63L239.66 108.43C249.185 110.971 259.329 109.645 267.88 104.74L268.11 104.61C268.11 104.61 280.68 97.45 288.11 87.88C282.54 90.13 271.96 90.8 251.88 84.72C251.88 84.72 236.88 90.62 214.99 87.94C213.66 89.73 211.17 91.78 206.5 91.31Z" fill="#FFC492"/>
<path d="M246.09 86.57C245.97 88.12 247.89 89.57 250.39 89.73C252.89 89.89 255.01 88.85 255.14 87.3C255.27 85.75 253.34 84.3 250.84 84.14C248.34 83.98 246.22 85.02 246.09 86.57Z" fill="#3E3A39"/>
<path d="M233.69 87.08C235.23 86.9 236.25 84.74 235.96 82.25C235.67 79.76 234.18 77.88 232.64 78.06C231.1 78.24 230.09 80.41 230.38 82.9C230.67 85.39 232.15 87.26 233.69 87.08Z" fill="#3E3A39"/>
<path d="M267.54 86.69C269.08 86.51 270.09 84.34 269.8 81.85C269.51 79.36 268.03 77.49 266.49 77.67C264.95 77.85 263.93 80.01 264.23 82.5C264.53 84.99 266 86.87 267.54 86.69Z" fill="#3E3A39"/>
<path d="M251.29 95.22C247.51 90.83 243.45 93.45 243.41 93.47C243.265 93.5693 243.166 93.7213 243.132 93.8933C243.099 94.0652 243.134 94.2436 243.23 94.39C243.327 94.5337 243.478 94.6331 243.648 94.6668C243.818 94.7005 243.995 94.6657 244.14 94.57C244.28 94.48 247.29 92.57 250.29 96.08C250.405 96.211 250.568 96.2909 250.743 96.3022C250.917 96.3134 251.088 96.2551 251.22 96.14C251.349 96.0262 251.429 95.8662 251.442 95.6943C251.455 95.5223 251.401 95.3521 251.29 95.22V95.22Z" fill="#3E3A39"/>
<path d="M279.32 71.05C279.22 71.0429 279.124 71.0084 279.043 70.9501C278.962 70.8918 278.899 70.8122 278.86 70.72C274.834 62.2433 267.658 55.6734 258.86 52.41C258.703 52.3452 258.575 52.2247 258.501 52.0715C258.427 51.9183 258.413 51.7433 258.46 51.58C258.469 51.4997 258.495 51.4223 258.536 51.3528C258.578 51.2833 258.633 51.2235 258.699 51.1771C258.765 51.1308 258.841 51.0991 258.92 51.084C259 51.069 259.081 51.071 259.16 51.09C268.269 54.4591 275.704 61.2512 279.88 70.02C279.957 70.1746 279.98 70.351 279.943 70.5201C279.907 70.6892 279.814 70.8409 279.68 70.95C279.577 71.0286 279.448 71.0644 279.32 71.05V71.05Z" fill="white"/>
<path d="M234.45 94C234.51 94.25 226.65 100 225.5 102.36" stroke="white" stroke-width="3" stroke-miterlimit="10" stroke-linecap="round"/>
<path d="M225.5 94.59C228.04 96.07 231.62 98.99 235.07 101.59" stroke="white" stroke-width="3" stroke-miterlimit="10" stroke-linecap="round"/>
<path d="M255.767 76.4766L243.297 79.4766C242.31 79.7 241.275 79.5334 240.409 79.0116C239.542 78.4898 238.911 77.6531 238.647 76.6766V76.6766C238.508 76.2024 238.467 75.7052 238.526 75.2148C238.585 74.7244 238.743 74.251 238.989 73.8231C239.236 73.3952 239.567 73.0216 239.961 72.7249C240.356 72.4282 240.807 72.2144 241.287 72.0966L253.757 69.0966C254.742 68.8734 255.776 69.0403 256.641 69.5623C257.506 70.0843 258.135 70.9208 258.397 71.8966V71.8966C258.535 72.37 258.577 72.8666 258.518 73.3565C258.46 73.8463 258.304 74.3194 258.058 74.7472C257.812 75.175 257.483 75.5487 257.089 75.8459C256.695 76.1431 256.246 76.3576 255.767 76.4766V76.4766Z" fill="#FFE8C4"/>
<path d="M251.987 76.4766L246.577 77.8066C246.338 77.8613 246.088 77.8209 245.879 77.6939C245.67 77.5669 245.518 77.3634 245.457 77.1266L244.457 73.3466C244.424 73.233 244.414 73.1139 244.428 72.9963C244.442 72.8788 244.479 72.7653 244.538 72.6626C244.597 72.5599 244.676 72.4702 244.77 72.3987C244.864 72.3272 244.972 72.2755 245.087 72.2466L250.507 70.9266C250.743 70.8718 250.991 70.9112 251.198 71.0363C251.405 71.1614 251.555 71.3624 251.617 71.5966L252.617 75.3766C252.651 75.4902 252.662 75.6097 252.649 75.7277C252.636 75.8457 252.599 75.9597 252.54 76.0628C252.481 76.1658 252.401 76.2557 252.306 76.3269C252.211 76.398 252.102 76.449 251.987 76.4766V76.4766Z" fill="#D8AC57"/>
</g>
<path d="M222.944 127.968V141.28H224.208V127.968H222.944ZM220.128 131.488V136.704H221.264V131.488H220.128ZM216.624 129.92V131.024H230.544V129.92H216.624ZM217.056 132.592V133.584H220.8V132.592H217.056ZM228.576 126.656C225.968 127.2 221.376 127.536 217.648 127.664C217.76 127.936 217.888 128.384 217.92 128.688C221.648 128.608 226.272 128.272 229.12 127.696L228.576 126.656ZM223.104 134.496C221.776 136.816 219.072 138.896 216.144 139.744C216.416 139.984 216.752 140.432 216.928 140.736C219.888 139.744 222.56 137.488 224.016 134.848L223.104 134.496ZM224.096 134.528L223.2 134.848C224.656 137.504 227.312 139.792 230.224 140.8C230.416 140.496 230.752 140.032 231.008 139.808C228.128 138.96 225.408 136.848 224.096 134.528ZM216.592 135.552L216.848 136.576C218.016 136.368 219.44 136.096 220.864 135.824L220.816 134.896C219.232 135.168 217.68 135.408 216.592 135.552ZM225.888 131.456V135.392C225.888 136.528 226.176 136.848 227.408 136.848C227.648 136.848 228.976 136.848 229.248 136.848C230.176 136.848 230.48 136.48 230.624 135.024C230.304 134.96 229.84 134.8 229.616 134.624C229.584 135.68 229.504 135.824 229.12 135.824C228.832 135.824 227.744 135.824 227.536 135.824C227.072 135.824 226.992 135.76 226.992 135.392V131.456H225.888ZM229.28 132.08C228.528 132.496 227.28 133.008 226.24 133.376C226.368 133.616 226.512 133.984 226.56 134.208C227.664 133.872 229.008 133.424 230.016 132.96L229.28 132.08ZM239.216 129.392C238.4 130.64 236.848 132.032 234.624 133.024C234.896 133.2 235.264 133.6 235.44 133.888C237.792 132.72 239.408 131.2 240.512 129.648L239.216 129.392ZM239.04 130.592L238.176 131.552H244.608V130.592H239.04ZM244.272 130.592V130.784C242.448 133.6 237.872 135.536 233.76 136.288C233.984 136.56 234.24 137.04 234.352 137.344C238.656 136.432 243.376 134.4 245.52 131.04L244.72 130.544L244.496 130.592H244.272ZM238.576 131.344L237.52 131.824C239.664 134.592 243.536 136.304 247.84 136.976C248.016 136.624 248.336 136.112 248.608 135.84C244.32 135.296 240.448 133.744 238.576 131.344ZM236.784 136.352V141.264H237.968V137.376H244.448V141.248H245.68V136.352H236.784ZM237.376 139.712V140.736H245.056V139.712H237.376ZM240.544 126.576V128.656H241.776V126.576H240.544ZM234.416 128.016V131.04H235.6V129.12H246.736V131.04H247.952V128.016H234.416ZM258.576 132.112H263.552V133.072H258.576V132.112ZM258.576 130.48H263.552V131.408H258.576V130.48ZM257.472 129.728V133.824H264.704V129.728H257.472ZM257.968 126.56C257.392 128.08 256.448 129.632 255.408 130.64C255.68 130.8 256.128 131.168 256.336 131.344C257.344 130.256 258.384 128.544 259.04 126.848L257.968 126.56ZM257.984 127.952L257.536 128.88H265.84V127.952H257.984ZM255.44 134.608V135.536H266.24V134.608H255.44ZM258.48 135.04C257.728 136.272 256.448 137.408 255.168 138.176C255.376 138.336 255.76 138.72 255.92 138.912C257.216 138.048 258.592 136.736 259.44 135.344L258.48 135.04ZM259.728 136.752C258.976 138.24 257.616 139.568 256.192 140.416C256.432 140.576 256.8 140.944 256.976 141.12C258.384 140.16 259.824 138.704 260.672 137.056L259.728 136.752ZM262.416 136.752C261.84 138.384 260.736 139.824 259.424 140.736C259.648 140.896 260.064 141.216 260.24 141.392C261.536 140.384 262.752 138.816 263.408 136.992L262.416 136.752ZM257.808 136.496L257.104 137.376H265.056V136.496H257.808ZM264.688 136.496V136.656C264.448 139.008 264.192 139.952 263.872 140.24C263.76 140.368 263.632 140.384 263.408 140.384C263.184 140.384 262.656 140.384 262.08 140.32C262.224 140.576 262.336 140.976 262.352 141.264C262.944 141.296 263.536 141.296 263.84 141.28C264.224 141.264 264.496 141.168 264.736 140.928C265.152 140.496 265.44 139.472 265.712 136.96C265.744 136.8 265.76 136.496 265.76 136.496H264.688ZM255.024 126.624C254.128 129.056 252.624 131.456 251.04 133.008C251.264 133.28 251.6 133.92 251.728 134.192C253.456 132.4 255.104 129.696 256.16 126.976L255.024 126.624ZM253.36 130.752V141.264H254.512V129.632L254.48 129.616L253.36 130.752ZM269.184 129.744V130.944H283.6V129.744H269.184ZM275.744 126.576V130.256H276.976V126.576H275.744ZM271.088 130.272V138C271.088 140.064 272.048 140.72 274.272 140.72C274.784 140.72 279.504 140.72 280.48 140.72C281.568 140.72 282.704 140.688 283.104 140.592C283.04 140.288 282.96 139.712 282.928 139.392C282.368 139.488 281.28 139.536 280.496 139.536C279.504 139.536 275.008 139.536 274.128 139.536C272.768 139.536 272.336 139.104 272.336 138.064V130.272H271.088Z" fill="black"/>
<rect x="340" width="160" height="160" rx="80" fill="#F5F5F5"/>
<g clip-path="url(#clip2_2_4245)">
<g clip-path="url(#clip3_2_4245)">
<path d="M453.64 82.61C453.64 82.61 461.64 93.24 424.49 95.44C403.21 96.7 379.95 94.05 378.65 86.6" fill="#8DCEBF"/>
<path d="M403.68 91.04L404.1 89.39C408.64 90.67 416.83 89.99 420.1 89.64C420.1 89.53 420.1 89.48 420.1 89.5C421.073 89.549 422.049 89.492 423.01 89.33C429.57 88.6 445.61 86.04 453.62 82.61C463.78 78.25 466.77 71.55 466.2 65.14C466.048 62.9605 465.171 60.8944 463.71 59.27C461.62 57.04 458.71 56.57 456.71 59.04L424.62 56.8C424.62 56.8 426.42 45.15 419.54 44.07C412.66 42.99 411.47 53.88 411.65 54.28C411.83 54.68 402.65 54.93 398.17 57.39C398.17 57.39 400.31 46.06 392.1 44.95C383.89 43.84 383.6 55.63 383.54 56.55C383.31 59.9 375.54 58.9 376.27 63.08C376.55 64.58 379.91 64.88 379.91 64.88C379.91 64.88 373.48 65.81 373.91 68.88C374.2 70.98 378.91 71.37 378.91 71.37C378.91 71.37 373.5 73.15 373.91 76.15C374.15 77.79 376.45 79.29 378.62 78.81C378.62 78.81 373.08 79.94 373.5 82.56C373.92 85.18 378.25 84.93 378.62 84.9C378.99 84.87 375.76 85.36 375.99 87.95C376.22 90.54 383.8 90.24 383.8 90.24" fill="#8DCEBF"/>
<path d="M393.98 56.45C393.74 57.97 392.63 59.06 391.5 58.89C390.37 58.72 389.65 57.33 389.89 55.81C390.13 54.29 391.24 53.19 392.37 53.37C393.5 53.55 394.2 54.93 393.98 56.45Z" fill="#3E3A39"/>
<path d="M420.79 54.46C420.55 55.98 419.44 57.07 418.31 56.9C417.18 56.73 416.46 55.34 416.7 53.82C416.94 52.3 418.04 51.21 419.18 51.38C420.32 51.55 421.03 52.94 420.79 54.46Z" fill="#3E3A39"/>
<path d="M453.52 72.35C451.75 71.75 448.03 67.85 450.09 65.71C452.15 63.57 457.16 73.59 453.52 72.35Z" fill="#3E3A39"/>
<path d="M460.12 72.25C461.74 71.33 464.65 66.79 462.22 65.08C459.79 63.37 456.77 74.14 460.12 72.25Z" fill="#3E3A39"/>
<path d="M453.64 82.61C453.64 82.61 441.84 90 413.76 89.8C385.68 89.6 394.35 80.09 394.35 80.09" stroke="#3E3A39" stroke-linecap="round" stroke-linejoin="round"/>
<path d="M438.664 61C438.732 61.2839 429.806 67.8141 428.5 70.4943" stroke="white" stroke-width="3.40705" stroke-miterlimit="10" stroke-linecap="round"/>
<path d="M428.5 61.67C431.385 63.3509 435.45 66.6671 439.368 69.6198" stroke="white" stroke-width="3.40705" stroke-miterlimit="10" stroke-linecap="round"/>
<path d="M393.853 72C393.889 72.1495 389.188 75.5885 388.5 77" stroke="white" stroke-width="1.79426" stroke-miterlimit="10" stroke-linecap="round"/>
<path d="M388.5 72.3528C390.019 73.238 392.16 74.9844 394.224 76.5394" stroke="white" stroke-width="1.79426" stroke-miterlimit="10" stroke-linecap="round"/>
</g>
</g>
<path d="M394.08 139.616V140.672H399.36V139.616H394.08ZM394.864 128.208V129.248H399.088V128.208H394.864ZM393.616 135.488V141.248H394.72V136.528H398.752V141.2H399.904V135.488H393.616ZM398.656 128.208V128.416C397.616 131.76 394.784 134.336 391.952 135.424C392.192 135.648 392.512 136.064 392.656 136.336C395.696 135.04 398.624 132.416 399.856 128.48L399.088 128.16L398.864 128.208H398.656ZM395.136 126.56C394.528 128.528 393.424 130.4 392.112 131.6C392.4 131.776 392.864 132.16 393.056 132.368C394.384 131.04 395.568 129.008 396.288 126.832L395.136 126.56ZM394.816 128.864L394.032 129.52C395.008 131.824 397.12 134.72 400.416 136.144C400.576 135.84 400.912 135.376 401.168 135.152C397.888 133.904 395.744 131.152 394.816 128.864ZM387.024 133.664V139.472H388.032V133.664H387.024ZM388.096 128.288H391.104V131.104H388.096V128.288ZM387.024 127.232V132.16H392.224V127.232H387.024ZM389.28 131.632V138.944H390.368V131.632H389.28ZM386.192 139.344L386.416 140.512C388.096 140.096 390.4 139.536 392.592 138.992L392.48 137.92C390.176 138.464 387.776 139.024 386.192 139.344ZM389.664 134.48V135.552H392.368V134.48H389.664ZM410.368 127.056C410.256 129.184 410.256 136.88 403.728 140.208C404.096 140.48 404.496 140.848 404.704 141.152C411.328 137.552 411.568 129.568 411.696 127.056H410.368ZM411.648 127.376L410.496 127.488C410.608 128.96 411.056 137.904 417.84 141.152C418.032 140.816 418.4 140.416 418.752 140.144C412.16 137.12 411.696 128.624 411.648 127.376ZM428.576 132.112H433.552V133.072H428.576V132.112ZM428.576 130.48H433.552V131.408H428.576V130.48ZM427.472 129.728V133.824H434.704V129.728H427.472ZM427.968 126.56C427.392 128.08 426.448 129.632 425.408 130.64C425.68 130.8 426.128 131.168 426.336 131.344C427.344 130.256 428.384 128.544 429.04 126.848L427.968 126.56ZM427.984 127.952L427.536 128.88H435.84V127.952H427.984ZM425.44 134.608V135.536H436.24V134.608H425.44ZM428.48 135.04C427.728 136.272 426.448 137.408 425.168 138.176C425.376 138.336 425.76 138.72 425.92 138.912C427.216 138.048 428.592 136.736 429.44 135.344L428.48 135.04ZM429.728 136.752C428.976 138.24 427.616 139.568 426.192 140.416C426.432 140.576 426.8 140.944 426.976 141.12C428.384 140.16 429.824 138.704 430.672 137.056L429.728 136.752ZM432.416 136.752C431.84 138.384 430.736 139.824 429.424 140.736C429.648 140.896 430.064 141.216 430.24 141.392C431.536 140.384 432.752 138.816 433.408 136.992L432.416 136.752ZM427.808 136.496L427.104 137.376H435.056V136.496H427.808ZM434.688 136.496V136.656C434.448 139.008 434.192 139.952 433.872 140.24C433.76 140.368 433.632 140.384 433.408 140.384C433.184 140.384 432.656 140.384 432.08 140.32C432.224 140.576 432.336 140.976 432.352 141.264C432.944 141.296 433.536 141.296 433.84 141.28C434.224 141.264 434.496 141.168 434.736 140.928C435.152 140.496 435.44 139.472 435.712 136.96C435.744 136.8 435.76 136.496 435.76 136.496H434.688ZM425.024 126.624C424.128 129.056 422.624 131.456 421.04 133.008C421.264 133.28 421.6 133.92 421.728 134.192C423.456 132.4 425.104 129.696 426.16 126.976L425.024 126.624ZM423.36 130.752V141.264H424.512V129.632L424.48 129.616L423.36 130.752ZM439.184 129.744V130.944H453.6V129.744H439.184ZM445.744 126.576V130.256H446.976V126.576H445.744ZM441.088 130.272V138C441.088 140.064 442.048 140.72 444.272 140.72C444.784 140.72 449.504 140.72 450.48 140.72C451.568 140.72 452.704 140.688 453.104 140.592C453.04 140.288 452.96 139.712 452.928 139.392C452.368 139.488 451.28 139.536 450.496 139.536C449.504 139.536 445.008 139.536 444.128 139.536C442.768 139.536 442.336 139.104 442.336 138.064V130.272H441.088Z" fill="black"/>
<defs>
<clipPath id="clip0_2_4245">
<rect width="84.43" height="82.57" fill="white" transform="translate(38 29)"/>
</clipPath>
<clipPath id="clip1_2_4245">
<rect width="86.6" height="79.7" fill="white" transform="translate(206.5 30)"/>
</clipPath>
<clipPath id="clip2_2_4245">
<rect width="93" height="52" fill="white" transform="translate(373.5 44)"/>
</clipPath>
<clipPath id="clip3_2_4245">
<rect width="92.79" height="51.75" fill="white" transform="translate(373.5 44)"/>
</clipPath>
</defs>
</svg>
