<svg width="160" height="160" viewBox="0 0 160 160" fill="none" xmlns="http://www.w3.org/2000/svg">
<rect width="160" height="160" rx="80" fill="#F5F5F5"/>
<path d="M63.76 52.69C63.39 52.69 62.8402 35.18 34.4802 41.29C32.3381 41.6579 30.1517 41.6882 28.0002 41.38C28.0002 41.38 29.8402 61.79 52.2502 58.38C53.7001 58.1417 55.1624 57.9881 56.6301 57.92L60.8899 57.74L63.76 52.69Z" fill="#F7BEBD"/>
<path d="M63.2102 53.64C62.9502 53.64 62.5599 41.33 42.6199 45.64C41.1123 45.8956 39.575 45.9192 38.0603 45.71C38.0603 45.71 39.3501 60.05 55.1101 57.62C56.1297 57.4535 57.1582 57.3467 58.1902 57.3L61.1902 57.17L63.2102 53.64Z" fill="#EE8785"/>
<path d="M59.9804 53.75C59.5068 52.851 58.823 52.0797 57.9873 51.5017C57.1516 50.9237 56.1884 50.556 55.1801 50.43C52.5801 50.01 46.5701 52.71 45.1801 49.87C44.8601 49.22 43.8901 49.79 44.1801 50.44C44.5281 51.1467 45.0944 51.7227 45.7949 52.0828C46.4954 52.443 47.2931 52.5682 48.0703 52.44C51.9403 52.19 56.5102 49.8 58.9502 54.34C59.3502 54.96 60.3204 54.39 59.9804 53.75Z" fill="white"/>
<path d="M95.8201 52.69C96.1901 52.69 96.7501 35.18 125.1 41.29C127.242 41.6572 129.429 41.6876 131.58 41.38C131.58 41.38 129.74 61.79 107.33 58.38C105.88 58.1417 104.418 57.9881 102.95 57.92L98.6902 57.74L95.8201 52.69Z" fill="#F7BEBD"/>
<path d="M96.3801 53.64C96.6401 53.64 97.0302 41.33 116.96 45.64C118.468 45.8956 120.005 45.9192 121.52 45.71C121.52 45.71 120.23 60.05 104.52 57.62C103.501 57.453 102.472 57.3462 101.44 57.3L98.4402 57.17L96.3801 53.64Z" fill="#EE8785"/>
<path d="M112.84 50.54C110.37 52.54 106.46 50.36 103.53 51.06C102.546 51.2473 101.613 51.6386 100.79 52.2087C99.9663 52.7788 99.2715 53.515 98.7501 54.37C98.4001 55.01 99.3801 55.58 99.7501 54.94C102.95 49.11 109.56 54.7 113.66 51.33C114.19 50.89 113.39 50.08 112.84 50.54Z" fill="white"/>
<path d="M109.77 82.57C109.77 98.78 95.21 100.57 77.26 100.57C59.31 100.57 44.76 98.8 44.76 82.57C44.76 66.34 50.65 41.87 77.26 41.87C102.57 41.89 109.77 66.37 109.77 82.57Z" fill="#F7BEBD"/>
<path d="M94.5601 73.82C94.6236 74.2167 94.6069 74.6222 94.5108 75.0123C94.4146 75.4025 94.2409 75.7693 94.0003 76.0911C93.7597 76.4129 93.4569 76.683 93.1099 76.8855C92.7629 77.088 92.3786 77.2188 91.98 77.27C91.5847 77.3382 91.1798 77.3265 90.7891 77.2355C90.3984 77.1445 90.0301 76.9761 89.7056 76.7402C89.3812 76.5043 89.1072 76.2058 88.9002 75.8622C88.6931 75.5186 88.557 75.137 88.5 74.74C88.438 74.344 88.4559 73.9395 88.5528 73.5506C88.6496 73.1616 88.8235 72.796 89.064 72.4753C89.3045 72.1546 89.6069 71.8854 89.9532 71.6836C90.2995 71.4817 90.6826 71.3512 91.0801 71.3C91.4747 71.2316 91.879 71.243 92.2691 71.3334C92.6592 71.4237 93.0273 71.5913 93.3516 71.8262C93.6759 72.061 93.9499 72.3584 94.1575 72.7008C94.3651 73.0433 94.5019 73.4238 94.5601 73.82V73.82Z" fill="#3E3A39"/>
<path d="M57.5102 73.82C57.4467 74.2167 57.4634 74.6222 57.5595 75.0123C57.6557 75.4025 57.8296 75.7693 58.0703 76.0911C58.3109 76.4129 58.6134 76.683 58.9604 76.8856C59.3074 77.0881 59.6917 77.2188 60.0903 77.27C60.4856 77.3382 60.8905 77.3265 61.2812 77.2355C61.6719 77.1446 62.0402 76.9761 62.3647 76.7402C62.6891 76.5044 62.9633 76.2058 63.1704 75.8622C63.3774 75.5187 63.5133 75.1371 63.5703 74.74C63.6324 74.3447 63.6147 73.941 63.5185 73.5527C63.4223 73.1643 63.2497 72.7991 63.0102 72.4785C62.7707 72.158 62.4696 71.8886 62.1245 71.6862C61.7793 71.4838 61.3971 71.3525 61.0004 71.3C60.6051 71.2302 60.1998 71.2405 59.8085 71.3301C59.4173 71.4198 59.048 71.5871 58.7226 71.8221C58.3972 72.0571 58.1222 72.355 57.914 72.6982C57.7058 73.0413 57.5683 73.4228 57.5102 73.82V73.82Z" fill="#3E3A39"/>
<path d="M88.71 85.1C88.753 86.0043 88.6138 86.908 88.3008 87.7575C87.9879 88.607 87.5075 89.385 86.8882 90.0453C86.269 90.7056 85.5233 91.2348 84.6956 91.6015C83.8679 91.9682 82.9751 92.1649 82.0699 92.18H81.8499C81.1286 92.1544 80.416 92.0126 79.7398 91.76C77.4808 90.9273 74.9989 90.9273 72.7398 91.76C72.123 91.984 71.4755 92.1122 70.8199 92.14H70.5001C65.4501 92.14 62.2499 85.81 65.0499 81.68C67.5799 77.95 73.3997 76.94 77.5997 77.16C81.7997 77.38 86.0899 78.99 88.0899 82.89C88.444 83.5771 88.6551 84.329 88.71 85.1V85.1Z" fill="#EE8785"/>
<g style="mix-blend-mode:multiply">
<g style="mix-blend-mode:multiply">
<path d="M74.78 84.57C74.78 84.949 74.7052 85.3244 74.5598 85.6744C74.4145 86.0245 74.2014 86.3424 73.9329 86.61C73.6644 86.8776 73.3459 87.0895 72.9954 87.2336C72.6448 87.3778 72.2689 87.4513 71.8899 87.45C71.1261 87.45 70.3939 87.1466 69.8538 86.6065C69.3137 86.0664 69.01 85.3338 69.01 84.57C69.01 83.8052 69.313 83.0717 69.8528 82.53C70.3926 81.9883 71.1252 81.6826 71.8899 81.68C72.2694 81.68 72.6452 81.7547 72.9958 81.9C73.3465 82.0452 73.6655 82.2581 73.9338 82.5265C74.2022 82.7948 74.4151 83.1134 74.5603 83.464C74.7055 83.8147 74.78 84.1905 74.78 84.57V84.57Z" fill="#EE8785"/>
</g>
<g style="mix-blend-mode:multiply">
<path d="M84.0901 84.57C84.0901 84.949 84.0152 85.3244 83.8699 85.6744C83.7245 86.0245 83.5114 86.3424 83.2429 86.61C82.9744 86.8776 82.6557 87.0895 82.3052 87.2336C81.9546 87.3778 81.5792 87.4513 81.2002 87.45C80.4364 87.45 79.7037 87.1466 79.1636 86.6065C78.6235 86.0664 78.3201 85.3338 78.3201 84.57C78.3201 83.8052 78.6233 83.0717 79.1631 82.53C79.7029 81.9883 80.4355 81.6826 81.2002 81.68C81.9667 81.68 82.7017 81.9845 83.2437 82.5265C83.7856 83.0684 84.0901 83.8035 84.0901 84.57V84.57Z" fill="#EE8785"/>
</g>
</g>
<path d="M82.1629 97.3387C83.3396 94.2352 87.5189 93.4255 90.3112 94.5875C90.4465 94.6257 90.5909 94.6135 90.7178 94.5531C90.8447 94.4927 90.9454 94.3883 91.0011 94.2593C91.0568 94.1303 91.064 93.9854 91.0209 93.8516C90.9778 93.7178 90.8875 93.6042 90.767 93.5319C87.4122 92.137 82.5215 93.1872 81.1188 96.8743C80.8573 97.564 81.9015 98.0283 82.1629 97.3387Z" fill="#3E3A39"/>
<path d="M69.2668 65.4766L56.7968 68.4766C55.8102 68.7 54.7752 68.5334 53.9086 68.0116C53.042 67.4898 52.4107 66.6531 52.1467 65.6766V65.6766C52.0083 65.2024 51.9672 64.7052 52.0261 64.2148C52.0849 63.7244 52.2425 63.251 52.4892 62.8231C52.7359 62.3952 53.0665 62.0216 53.4614 61.7249C53.8562 61.4282 54.3072 61.2144 54.7868 61.0966L67.2568 58.0966C68.2421 57.8734 69.2756 58.0403 70.1406 58.5623C71.0056 59.0843 71.6348 59.9208 71.8967 60.8966V60.8966C72.0352 61.37 72.0767 61.8666 72.0185 62.3565C71.9603 62.8463 71.8037 63.3194 71.5581 63.7472C71.3124 64.175 70.9828 64.5487 70.5891 64.8459C70.1953 65.1431 69.7455 65.3576 69.2668 65.4766V65.4766Z" fill="#FFE9C5"/>
<path d="M65.4869 65.4766L60.0769 66.8066C59.8385 66.8613 59.5881 66.8209 59.3789 66.6939C59.1698 66.5669 59.0183 66.3634 58.9568 66.1266L57.9568 62.3466C57.9237 62.233 57.9138 62.1139 57.9278 61.9963C57.9417 61.8788 57.9791 61.7653 58.0379 61.6626C58.0967 61.5599 58.1757 61.4702 58.2701 61.3987C58.3644 61.3272 58.4719 61.2755 58.5867 61.2466L64.0069 59.9266C64.2427 59.8718 64.4905 59.9112 64.6978 60.0363C64.9051 60.1614 65.0553 60.3624 65.1167 60.5966L66.1167 64.3766C66.1514 64.4902 66.1625 64.6097 66.1492 64.7277C66.1359 64.8457 66.0986 64.9597 66.0396 65.0628C65.9806 65.1658 65.901 65.2557 65.8059 65.3269C65.7109 65.398 65.6024 65.449 65.4869 65.4766V65.4766Z" fill="#D8AC57"/>
<path d="M52.944 127.968V141.28H54.208V127.968H52.944ZM50.128 131.488V136.704H51.264V131.488H50.128ZM46.624 129.92V131.024H60.544V129.92H46.624ZM47.056 132.592V133.584H50.8V132.592H47.056ZM58.576 126.656C55.968 127.2 51.376 127.536 47.648 127.664C47.76 127.936 47.888 128.384 47.92 128.688C51.648 128.608 56.272 128.272 59.12 127.696L58.576 126.656ZM53.104 134.496C51.776 136.816 49.072 138.896 46.144 139.744C46.416 139.984 46.752 140.432 46.928 140.736C49.888 139.744 52.56 137.488 54.016 134.848L53.104 134.496ZM54.096 134.528L53.2 134.848C54.656 137.504 57.312 139.792 60.224 140.8C60.416 140.496 60.752 140.032 61.008 139.808C58.128 138.96 55.408 136.848 54.096 134.528ZM46.592 135.552L46.848 136.576C48.016 136.368 49.44 136.096 50.864 135.824L50.816 134.896C49.232 135.168 47.68 135.408 46.592 135.552ZM55.888 131.456V135.392C55.888 136.528 56.176 136.848 57.408 136.848C57.648 136.848 58.976 136.848 59.248 136.848C60.176 136.848 60.48 136.48 60.624 135.024C60.304 134.96 59.84 134.8 59.616 134.624C59.584 135.68 59.504 135.824 59.12 135.824C58.832 135.824 57.744 135.824 57.536 135.824C57.072 135.824 56.992 135.76 56.992 135.392V131.456H55.888ZM59.28 132.08C58.528 132.496 57.28 133.008 56.24 133.376C56.368 133.616 56.512 133.984 56.56 134.208C57.664 133.872 59.008 133.424 60.016 132.96L59.28 132.08ZM69.216 129.392C68.4 130.64 66.848 132.032 64.624 133.024C64.896 133.2 65.264 133.6 65.44 133.888C67.792 132.72 69.408 131.2 70.512 129.648L69.216 129.392ZM69.04 130.592L68.176 131.552H74.608V130.592H69.04ZM74.272 130.592V130.784C72.448 133.6 67.872 135.536 63.76 136.288C63.984 136.56 64.24 137.04 64.352 137.344C68.656 136.432 73.376 134.4 75.52 131.04L74.72 130.544L74.496 130.592H74.272ZM68.576 131.344L67.52 131.824C69.664 134.592 73.536 136.304 77.84 136.976C78.016 136.624 78.336 136.112 78.608 135.84C74.32 135.296 70.448 133.744 68.576 131.344ZM66.784 136.352V141.264H67.968V137.376H74.448V141.248H75.68V136.352H66.784ZM67.376 139.712V140.736H75.056V139.712H67.376ZM70.544 126.576V128.656H71.776V126.576H70.544ZM64.416 128.016V131.04H65.6V129.12H76.736V131.04H77.952V128.016H64.416ZM88.576 132.112H93.552V133.072H88.576V132.112ZM88.576 130.48H93.552V131.408H88.576V130.48ZM87.472 129.728V133.824H94.704V129.728H87.472ZM87.968 126.56C87.392 128.08 86.448 129.632 85.408 130.64C85.68 130.8 86.128 131.168 86.336 131.344C87.344 130.256 88.384 128.544 89.04 126.848L87.968 126.56ZM87.984 127.952L87.536 128.88H95.84V127.952H87.984ZM85.44 134.608V135.536H96.24V134.608H85.44ZM88.48 135.04C87.728 136.272 86.448 137.408 85.168 138.176C85.376 138.336 85.76 138.72 85.92 138.912C87.216 138.048 88.592 136.736 89.44 135.344L88.48 135.04ZM89.728 136.752C88.976 138.24 87.616 139.568 86.192 140.416C86.432 140.576 86.8 140.944 86.976 141.12C88.384 140.16 89.824 138.704 90.672 137.056L89.728 136.752ZM92.416 136.752C91.84 138.384 90.736 139.824 89.424 140.736C89.648 140.896 90.064 141.216 90.24 141.392C91.536 140.384 92.752 138.816 93.408 136.992L92.416 136.752ZM87.808 136.496L87.104 137.376H95.056V136.496H87.808ZM94.688 136.496V136.656C94.448 139.008 94.192 139.952 93.872 140.24C93.76 140.368 93.632 140.384 93.408 140.384C93.184 140.384 92.656 140.384 92.08 140.32C92.224 140.576 92.336 140.976 92.352 141.264C92.944 141.296 93.536 141.296 93.84 141.28C94.224 141.264 94.496 141.168 94.736 140.928C95.152 140.496 95.44 139.472 95.712 136.96C95.744 136.8 95.76 136.496 95.76 136.496H94.688ZM85.024 126.624C84.128 129.056 82.624 131.456 81.04 133.008C81.264 133.28 81.6 133.92 81.728 134.192C83.456 132.4 85.104 129.696 86.16 126.976L85.024 126.624ZM83.36 130.752V141.264H84.512V129.632L84.48 129.616L83.36 130.752ZM99.184 129.744V130.944H113.6V129.744H99.184ZM105.744 126.576V130.256H106.976V126.576H105.744ZM101.088 130.272V138C101.088 140.064 102.048 140.72 104.272 140.72C104.784 140.72 109.504 140.72 110.48 140.72C111.568 140.72 112.704 140.688 113.104 140.592C113.04 140.288 112.96 139.712 112.928 139.392C112.368 139.488 111.28 139.536 110.496 139.536C109.504 139.536 105.008 139.536 104.128 139.536C102.768 139.536 102.336 139.104 102.336 138.064V130.272H101.088Z" fill="black"/>
</svg>
