<svg width="160" height="160" viewBox="0 0 160 160" fill="none" xmlns="http://www.w3.org/2000/svg">
<rect width="160" height="160" rx="80" fill="#F5F5F5"/>
<g clip-path="url(#clip0_216_2034)">
<path d="M132.186 78.5734V79.0444C132.217 80.3649 132.252 82.0464 132.279 83.5606C132.279 84.7887 131.519 95.5554 130.474 99.8075C129.714 100.05 128.62 100.34 127.851 100.525C127.816 100.536 127.786 100.559 127.766 100.59C127.746 100.621 127.738 100.657 127.742 100.693C127.746 100.729 127.763 100.763 127.789 100.789C127.815 100.814 127.85 100.83 127.886 100.833H127.931C128.731 100.635 129.887 100.327 130.656 100.08L130.741 100.054L130.763 99.9704C131.821 95.7579 132.617 84.8019 132.595 83.5606C132.568 82.0464 132.532 80.3825 132.506 79.0444V78.4634L132.475 78.4238C131.372 77.0768 130.358 75.8619 129.189 74.4622L128.824 74.1364C128.051 73.441 127.379 72.8423 126.486 72.116C125.018 67.8815 121.675 60.1344 118.798 56.076L118.758 56.0232H118.696C113.41 55.1032 101.948 54.7027 98.2796 54.7027C94.6116 54.7027 83.1629 55.0944 77.8587 56.0232H77.7965L77.7609 56.076C74.8843 60.1344 71.5364 67.8815 70.0692 72.116C69.18 72.8423 68.5086 73.4366 67.7305 74.1364L67.3837 74.449C66.2144 75.8311 65.2051 77.046 64.1025 78.4106L64.0669 78.4502V79.062C64.0358 80.3825 64.0003 82.0464 63.978 83.5474C63.978 84.7887 64.7516 95.7447 65.8098 99.9572V100.041L65.8898 100.067C66.659 100.314 67.815 100.622 68.6197 100.82H68.6553C68.6903 100.82 68.7243 100.808 68.7518 100.787C68.7792 100.765 68.7985 100.735 68.8065 100.701" fill="#95C3ED"/>
<path d="M117.989 57.2293C113.676 56.6835 106.607 56.3489 98.2707 56.3181C89.9343 56.2873 82.865 56.6835 78.5479 57.2293C76.014 61.9933 73.893 66.9617 72.2078 72.0808C76.8762 71.5438 87.5601 71.2577 98.2707 71.2401C108.981 71.2225 119.661 71.5438 124.329 72.0808C122.646 66.961 120.525 61.9925 117.989 57.2293V57.2293Z" fill="#3E3A39"/>
<path d="M101.663 68.4538H117.376C117.282 67.4106 116.713 63.6383 116.58 62.7315C116.527 62.3113 116.387 61.9065 116.169 61.5422C115.951 61.1779 115.66 60.862 115.313 60.6142C114.136 59.754 112.831 59.0799 111.445 58.6158H85.0927C83.7151 59.0775 82.4178 59.7471 81.2468 60.601C80.9 60.8488 80.6085 61.1647 80.3905 61.529C80.1725 61.8933 80.0326 62.2981 79.9797 62.7183C79.8463 63.6383 79.2772 67.4106 79.1838 68.4406H94.8963L94.6874 67.3621C94.6612 67.2255 94.6658 67.0848 94.7009 66.95C94.7359 66.8153 94.8005 66.6899 94.8901 66.5828C94.9797 66.4756 95.092 66.3893 95.2191 66.33C95.3462 66.2707 95.485 66.2399 95.6255 66.2397H100.961C101.101 66.2399 101.24 66.2707 101.367 66.33C101.494 66.3893 101.607 66.4756 101.696 66.5828C101.786 66.6899 101.85 66.8153 101.885 66.95C101.92 67.0848 101.925 67.2255 101.899 67.3621L101.663 68.4538Z" fill="#595757"/>
<path d="M132.443 83.5606C132.412 81.8395 132.372 79.9336 132.341 78.5162C131.163 77.0768 130.118 75.8399 129.06 74.5546C128.104 73.7007 127.379 73.0404 126.343 72.1997C113.703 71.8167 90.1389 71.425 73.1326 73.419C76.6018 76.7688 80.3813 79.7885 84.4212 82.4382C85.2304 82.9576 82.2337 84.4982 79.4816 86.2325C77.0451 87.7643 69.0155 85.4226 68.7487 86.2985C68.6509 86.6375 68.5442 86.8531 68.4064 87.3109L70.2826 87.6895C71.821 90.106 74.3286 93.9708 75.5957 96.0528C76.4093 95.7843 77.0229 95.573 77.9833 95.3133C80.1485 95.9164 81.2645 96.1937 82.2826 96.5326C82.5227 96.6162 67.7261 100.455 67.9395 100.494C67.9395 100.494 69.9358 100.934 70.3004 100.934H74.7954C75.0488 100.86 76.0003 100.534 76.2493 100.45H120.292C120.537 100.534 121.488 100.86 121.742 100.934H126.237C126.777 100.903 127.312 100.822 127.837 100.692H127.895L128.598 100.512C129.3 100.331 130.069 100.116 130.612 99.9396C131.679 95.6919 132.461 84.6567 132.443 83.5606Z" fill="#95C3ED"/>
<path d="M81.8469 81.2849C81.8844 81.2901 81.9193 81.3068 81.9468 81.3325C81.9744 81.3583 81.9931 81.3919 82.0004 81.4287C82.0077 81.4655 82.0033 81.5036 81.9878 81.5378C81.9722 81.572 81.9463 81.6005 81.9136 81.6195C80.602 82.3986 78.8947 83.3361 77.5208 84.0888C76.99 84.3768 76.3859 84.5053 75.7824 84.4586C74.2796 84.4102 70.3137 84.0184 67.7216 83.8159C67.4019 82.5378 67.2524 81.2237 67.277 79.9072C67.2877 79.686 67.3739 79.4749 67.5216 79.3085C67.7572 79.04 67.8328 78.952 68.1129 79.0136C70.3537 79.5066 78.8369 80.8183 81.8469 81.2849Z" fill="#F6AF58"/>
<path d="M75.9514 84.617H75.778C74.631 84.5818 72.0389 84.3529 69.7536 84.1769L67.7084 83.9964H67.6017L67.5706 83.8907C67.2471 82.5953 67.0976 81.2633 67.126 79.9292C67.1418 79.6742 67.2418 79.4314 67.4105 79.2381C67.655 78.9608 67.784 78.7979 68.153 78.8947C70.2782 79.3613 78.0678 80.5718 81.3935 81.0956L81.8781 81.1705C81.9478 81.1798 82.0129 81.2105 82.0642 81.2583C82.1154 81.306 82.1504 81.3684 82.1641 81.4368C82.1778 81.5051 82.1696 81.576 82.1406 81.6396C82.1117 81.7031 82.0634 81.7561 82.0026 81.7911C80.7354 82.5438 79.1348 83.4242 77.6054 84.2649C77.0962 84.5276 76.5247 84.6493 75.9514 84.617V84.617ZM67.8462 83.6707L69.7803 83.8379C72.0611 84.0404 74.671 84.2781 75.7869 84.3045C76.3626 84.3505 76.9393 84.2281 77.4453 83.9524C78.9748 83.116 80.5576 82.2357 81.8336 81.4874C81.836 81.4826 81.8372 81.4773 81.8372 81.472C81.8372 81.4666 81.836 81.4614 81.8336 81.4566C81.8336 81.4566 81.8336 81.4566 81.8069 81.4346L81.3268 81.3597C77.9966 80.8447 70.2115 79.6386 68.0641 79.1588C67.8862 79.1192 67.8684 79.128 67.6195 79.4053C67.4989 79.5484 67.4273 79.7256 67.4149 79.9116C67.395 81.1777 67.54 82.4412 67.8462 83.6707V83.6707Z" fill="#3E3A39"/>
<path d="M68.6375 71.8167C67.9751 72.0676 66.7168 72.4946 65.9254 72.7719C65.232 72.8113 64.5362 72.7803 63.8491 72.6795C63.1388 72.5467 62.4719 72.2446 61.9062 71.7991C61.6316 71.4149 61.501 70.9479 61.5371 70.4786C61.5348 70.3507 61.5639 70.2241 61.622 70.1098C61.6801 69.9956 61.7654 69.897 61.8706 69.8227C63.633 68.767 65.6528 68.2069 67.7128 68.2029C68.0162 68.2098 68.3045 68.3355 68.5146 68.5525C68.7246 68.7695 68.8391 69.0601 68.8332 69.3605C68.8332 69.924 68.8332 70.5886 68.8332 71.0816C68.8469 71.3409 68.7785 71.5979 68.6375 71.8167V71.8167Z" fill="#3E3A39"/>
<path d="M68.6377 71.8167C67.9752 72.0676 66.7169 72.4946 65.9255 72.7719C66.7881 73.2121 67.3438 73.529 68.113 74.0044C68.5976 73.5642 69.0378 73.1901 69.4468 72.8291C69.1445 72.4154 68.9444 72.1645 68.6377 71.8167Z" fill="#3E3A39"/>
<path d="M73.3149 80.092C73.2848 80.0914 73.2555 80.0824 73.2303 80.0661C73.2052 80.0497 73.1852 80.0267 73.1726 79.9996C73.057 79.7443 72.9236 79.4626 72.7858 79.1633C72.03 77.5346 71.0074 75.2985 70.3449 73.5246C70.296 73.3881 70.1493 72.9216 70.3983 72.6751C70.6406 72.451 70.9041 72.2505 71.1852 72.0764C71.2024 72.0649 71.2217 72.057 71.242 72.053C71.2623 72.049 71.2832 72.049 71.3035 72.0531C71.3238 72.0572 71.343 72.0653 71.3601 72.0768C71.3772 72.0884 71.3918 72.1032 71.4031 72.1204C71.4251 72.1544 71.4328 72.1956 71.4245 72.2351C71.4161 72.2746 71.3925 72.3093 71.3586 72.3317C71.0947 72.4953 70.8475 72.684 70.6206 72.8951C70.5361 72.9744 70.5672 73.2253 70.6206 73.419C71.2697 75.1797 72.3012 77.407 73.0526 79.0356C73.1904 79.3349 73.3238 79.6166 73.4394 79.872C73.4563 79.9094 73.4579 79.9519 73.4438 79.9905C73.4297 80.0291 73.401 80.0607 73.3638 80.0788C73.3482 80.0855 73.3318 80.09 73.3149 80.092V80.092Z" fill="white"/>
<path d="M64.1139 83.3026L64.083 83.6092L67.7064 83.9672L67.7373 83.6606L64.1139 83.3026Z" fill="white"/>
<path d="M127.9 71.8167C128.567 72.072 129.82 72.499 130.616 72.7719C131.308 72.8157 132.003 72.7848 132.688 72.6795C133.401 72.5495 134.07 72.2471 134.635 71.7991C134.909 71.4143 135.037 70.9473 135 70.4786C135.005 70.3503 134.977 70.2229 134.918 70.1082C134.86 69.9936 134.774 69.8954 134.667 69.8227C132.905 68.7589 130.883 68.194 128.82 68.1897C128.67 68.1931 128.522 68.2258 128.385 68.2858C128.247 68.3458 128.123 68.4321 128.02 68.5396C127.916 68.6471 127.835 68.7738 127.781 68.9124C127.727 69.051 127.7 69.1988 127.704 69.3473C127.704 69.9108 127.704 70.5754 127.704 71.0684C127.686 71.3322 127.754 71.5948 127.9 71.8167V71.8167Z" fill="#3E3A39"/>
<path d="M127.899 71.8167C128.566 72.072 129.82 72.499 130.616 72.7719C129.753 73.2121 129.198 73.5334 128.429 74.0088C127.939 73.5686 127.499 73.1901 127.095 72.8292C127.397 72.4242 127.597 72.1689 127.899 71.8167Z" fill="#3E3A39"/>
<path d="M98.2708 81.4126C93.429 81.4126 85.844 81.5534 83.6343 81.549C83.7748 81.6797 83.9233 81.8017 84.0789 81.9144C84.2478 82.0418 84.4534 82.1128 84.6658 82.1169C86.9422 82.1477 95.3364 82.2445 98.2797 82.2445C101.223 82.2445 109.617 82.1477 111.889 82.1169C112.103 82.1122 112.31 82.0414 112.481 81.9144C112.636 81.8017 112.785 81.6797 112.925 81.549C110.698 81.5534 103.108 81.417 98.2708 81.4126Z" fill="#3E3A39"/>
<path d="M85.0215 81.6987C83.955 81.6986 82.8903 81.6117 81.8381 81.439V81.439C81.7975 81.4325 81.7611 81.4103 81.7369 81.3773C81.7127 81.3443 81.7028 81.3031 81.7092 81.2629C81.7168 81.2223 81.7401 81.1862 81.7741 81.1624C81.8082 81.1386 81.8503 81.1288 81.8915 81.1352V81.1352C82.9909 81.3116 84.1034 81.3956 85.2171 81.3861L88.6984 81.3465C91.7173 81.3069 95.4787 81.2585 98.2753 81.2585C98.3166 81.2585 98.3562 81.2747 98.3853 81.3036C98.4145 81.3325 98.4309 81.3717 98.4309 81.4125C98.4309 81.4534 98.4145 81.4926 98.3853 81.5215C98.3562 81.5504 98.3166 81.5666 98.2753 81.5666C95.4787 81.5666 91.7218 81.615 88.7029 81.6546L85.2216 81.6943L85.0215 81.6987Z" fill="#3E3A39"/>
<path d="M132.422 83.3022L128.799 83.6603L128.829 83.9669L132.453 83.6088L132.422 83.3022Z" fill="white"/>
<path d="M77.7789 57.9292C74.9156 62.3309 71.2609 72.0148 71.2698 72.2041C71.6522 72.1425 71.9412 72.1028 72.2079 72.0808C73.8917 66.9661 76.0112 62.0021 78.5436 57.2425C78.2491 57.424 77.99 57.6566 77.7789 57.9292V57.9292Z" fill="#3E3A39"/>
<path d="M123.227 80.092C123.205 80.0962 123.182 80.0962 123.16 80.092C123.141 80.0835 123.124 80.0714 123.11 80.0563C123.096 80.0412 123.085 80.0236 123.078 80.0043C123.071 79.985 123.068 79.9646 123.069 79.9441C123.07 79.9236 123.075 79.9036 123.084 79.8851C123.2 79.6298 123.329 79.3481 123.471 79.0488C124.223 77.4202 125.25 75.1973 125.899 73.4322C125.97 73.2385 126.001 72.992 125.899 72.9084C125.671 72.6983 125.424 72.5097 125.161 72.3449C125.144 72.3342 125.129 72.3202 125.117 72.3036C125.105 72.2871 125.097 72.2684 125.093 72.2487C125.089 72.2289 125.089 72.2086 125.093 72.1888C125.097 72.169 125.105 72.1503 125.116 72.1337C125.128 72.1164 125.142 72.1016 125.159 72.09C125.176 72.0785 125.196 72.0704 125.216 72.0663C125.236 72.0622 125.257 72.0622 125.277 72.0662C125.298 72.0702 125.317 72.0782 125.334 72.0896C125.626 72.2661 125.9 72.4695 126.152 72.6971C126.397 72.9436 126.255 73.4102 126.201 73.5466C125.552 75.3073 124.516 77.5566 123.765 79.1853C123.622 79.4846 123.493 79.7663 123.378 80.0216C123.362 80.046 123.339 80.0655 123.312 80.0779C123.286 80.0903 123.256 80.0952 123.227 80.092V80.092Z" fill="white"/>
<path d="M118.758 57.9292C121.626 62.3309 125.281 72.0148 125.267 72.2041C124.889 72.1425 124.596 72.1028 124.329 72.0808C122.649 66.9654 120.531 62.0013 117.998 57.2425C118.292 57.4229 118.55 57.6557 118.758 57.9292V57.9292Z" fill="#3E3A39"/>
<path d="M115.308 69.9196H105.909L107.448 64.3337C107.569 63.8911 107.834 63.5003 108.202 63.2218C108.57 62.9433 109.021 62.7926 109.484 62.7931H111.734C112.197 62.7926 112.647 62.9433 113.015 63.2218C113.384 63.5003 113.649 63.8911 113.77 64.3337L115.308 69.9196Z" fill="#3E3A39"/>
<path d="M81.2468 69.9196H90.6459L89.0942 64.3337C88.9723 63.8914 88.707 63.501 88.339 63.2227C87.9711 62.9443 87.521 62.7934 87.0579 62.7931H84.8037C84.3404 62.7926 83.8899 62.9433 83.5218 63.2218C83.1537 63.5003 82.8886 63.8911 82.7674 64.3337L81.2468 69.9196Z" fill="#3E3A39"/>
<path d="M117.989 57.2293C113.676 56.6835 106.607 56.3489 98.2707 56.3181C89.9343 56.2873 82.865 56.6835 78.5479 57.2293C76.014 61.9933 73.893 66.9617 72.2078 72.0808C76.8762 71.5438 87.5601 71.2577 98.2707 71.2401C108.981 71.2225 119.661 71.5438 124.329 72.0808C122.646 66.961 120.525 61.9925 117.989 57.2293V57.2293ZM121.795 71.3149C115.126 70.9188 107.452 70.7119 98.2707 70.7075C89.0896 70.7031 81.4245 70.9188 74.7465 71.3149C73.7061 71.3765 73.2704 70.8747 73.6305 69.8315C74.9537 66.04 76.5144 62.3339 78.3034 58.7347C78.6324 58.0612 79.1437 57.7839 80.473 57.6871C82.825 57.511 89.1296 56.9828 92.393 57.0532C93.1889 57.0532 92.642 58.3473 94.0514 58.3473C94.578 58.3364 95.0946 58.4904 95.5275 58.7875C95.9319 59.1242 96.3698 59.4192 96.8347 59.6679C96.23 59.6987 95.1318 59.7383 94.3137 59.7867C94.2597 59.7906 94.207 59.8051 94.1588 59.8295C94.1106 59.8538 94.0678 59.8875 94.033 59.9286C93.9981 59.9696 93.972 60.0172 93.9561 60.0684C93.9401 60.1197 93.9348 60.1735 93.9403 60.2269C93.9794 60.5437 94.0358 60.8581 94.1092 61.1689C94.1453 61.3213 94.2277 61.4592 94.3454 61.5639C94.463 61.6686 94.6103 61.735 94.7672 61.7543C95.7365 61.8775 97.4349 61.9084 98.2707 61.9128C99.1066 61.9172 100.801 61.8775 101.774 61.7543C101.931 61.7344 102.078 61.6678 102.196 61.5632C102.313 61.4586 102.396 61.3211 102.432 61.1689C102.506 60.8581 102.562 60.5437 102.601 60.2269C102.607 60.1735 102.601 60.1197 102.585 60.0684C102.57 60.0172 102.543 59.9696 102.509 59.9286C102.474 59.8875 102.431 59.8538 102.383 59.8295C102.334 59.8051 102.282 59.7906 102.228 59.7867C101.41 59.7383 100.312 59.6987 99.7024 59.6679C100.176 59.4206 100.623 59.1256 101.036 58.7875C101.467 58.4897 101.983 58.3355 102.508 58.3473C103.922 58.3473 103.375 57.0708 104.166 57.0532C107.43 56.9828 113.734 57.4934 116.091 57.6871C117.425 57.7839 117.927 58.0612 118.26 58.7347C120.049 62.3339 121.61 66.04 122.933 69.8315C123.267 70.8747 122.831 71.3765 121.795 71.3105V71.3149Z" fill="#3E3A39"/>
<path d="M110.591 68.4406C109.563 68.44 108.545 68.6439 107.598 69.0401C106.651 69.4363 105.794 70.0168 105.078 70.7471H106.461C107.691 69.8056 109.212 69.3137 110.767 69.3546C112.322 69.3955 113.814 69.9667 114.993 70.9716C115.46 70.9716 115.922 71.0068 116.38 71.0244C115.656 70.2106 114.766 69.5591 113.767 69.1135C112.769 68.6679 111.686 68.4385 110.591 68.4406V68.4406Z" fill="#3E3A39"/>
<path d="M128.624 100.349C127.357 100.124 126.446 99.9924 125.481 99.878C117.58 99.4378 105.029 99.3586 98.2797 99.3542C91.5306 99.3498 78.9748 99.4378 71.0697 99.878C70.1049 99.9924 69.1934 100.124 67.9218 100.349L67.1882 100.477L67.9129 100.653C68.6945 100.88 69.4975 101.027 70.3094 101.093H74.8311C75.3602 100.93 75.9115 100.741 76.2627 100.613H120.252C120.599 100.741 121.142 100.93 121.684 101.093H121.706H126.223C127.037 101.028 127.841 100.88 128.624 100.653L129.349 100.477L128.624 100.349Z" fill="#3E3A39"/>
<path d="M70.3005 100.921C69.762 100.889 69.2277 100.808 68.7043 100.679H68.6421L67.944 100.499C67.246 100.318 66.4768 100.102 65.93 99.9264C65.0052 96.2553 64.2938 87.4694 64.1515 84.485C64.13 84.5818 64.1196 84.6808 64.1204 84.7799V104.997C64.1204 105.347 64.2609 105.683 64.5111 105.931C64.7612 106.179 65.1005 106.318 65.4542 106.318H73.2438C73.5975 106.318 73.9368 106.179 74.1869 105.931C74.4371 105.683 74.5776 105.347 74.5776 104.997V100.921H70.3005Z" fill="#3E3A39"/>
<path d="M132.408 84.485C132.248 87.4694 131.519 96.2553 130.63 99.9264C130.087 100.102 129.318 100.318 128.615 100.499L127.913 100.679H127.855C127.33 100.809 126.795 100.89 126.255 100.921H121.964V104.997C121.964 105.347 122.105 105.683 122.355 105.931C122.605 106.179 122.944 106.318 123.298 106.318H131.092C131.446 106.318 131.785 106.179 132.035 105.931C132.285 105.683 132.426 105.347 132.426 104.997V84.7799C132.431 84.6812 132.425 84.5823 132.408 84.485V84.485Z" fill="#3E3A39"/>
<path d="M126.993 85.6999L117.705 86.5186L111.818 82.9488L114.295 81.4346L120.012 84.6567L128.82 83.8247L128.069 85.022C127.956 85.211 127.8 85.371 127.613 85.4888C127.426 85.6066 127.213 85.6789 126.993 85.6999V85.6999Z" fill="white"/>
<path d="M125.174 99.3586L112.925 96.7175L119.808 95.3441L127.726 97.8091L126.392 99.024C126.231 99.1717 126.036 99.279 125.824 99.3372C125.612 99.3954 125.389 99.4027 125.174 99.3586V99.3586Z" fill="white"/>
<path d="M114.819 97.9676C113.712 97.906 112.596 97.8752 111.444 97.8752H85.097C83.9588 97.8752 82.825 97.906 81.7224 97.9676L76.2937 98.2669H120.248L114.819 97.9676Z" fill="white"/>
<path d="M70.2961 72.3409L70.3323 72.3141Z" fill="#1E1F3B"/>
<path d="M126.21 72.3141L126.246 72.3409Z" fill="#1E1F3B"/>
<path d="M114.695 81.2893C114.657 81.2958 114.623 81.3132 114.596 81.3394C114.569 81.3657 114.551 81.3993 114.543 81.4361C114.536 81.4728 114.54 81.5108 114.556 81.5451C114.571 81.5795 114.596 81.6084 114.628 81.6282C115.939 82.4074 117.647 83.3449 119.021 84.0976C119.553 84.3828 120.156 84.5111 120.759 84.4674C122.262 84.419 126.228 84.0272 128.815 83.8247C129.138 82.547 129.287 81.2326 129.26 79.916C129.248 79.6951 129.162 79.4844 129.015 79.3173C128.78 79.0444 128.704 78.9608 128.424 79.0224C126.188 79.5154 117.705 80.8227 114.695 81.2893Z" fill="#F6AF58"/>
<path d="M120.586 84.6259C120.013 84.6423 119.447 84.507 118.945 84.2341C117.416 83.3934 115.833 82.513 114.548 81.7603C114.487 81.7256 114.439 81.6729 114.41 81.6098C114.381 81.5466 114.372 81.476 114.385 81.4077C114.398 81.3395 114.433 81.277 114.483 81.229C114.534 81.181 114.599 81.1497 114.668 81.1397L115.153 81.0648C118.478 80.5454 126.268 79.3394 128.393 78.864C128.762 78.7847 128.896 78.9344 129.136 79.2117C129.306 79.4039 129.406 79.6473 129.42 79.9028C129.451 81.237 129.301 82.5693 128.976 83.8644L128.949 83.97H128.838L126.797 84.1461C124.512 84.3486 121.906 84.5862 120.773 84.6127L120.586 84.6259ZM128.589 79.1545C128.552 79.1512 128.515 79.1512 128.478 79.1545C126.339 79.6255 118.545 80.8359 115.215 81.3554L114.73 81.4302C114.727 81.4286 114.723 81.4278 114.719 81.4278C114.715 81.4278 114.712 81.4286 114.708 81.4302C114.705 81.4349 114.704 81.4402 114.704 81.4456C114.704 81.451 114.705 81.4563 114.708 81.461C115.971 82.2093 117.567 83.0896 119.096 83.926C119.604 84.1976 120.179 84.3198 120.755 84.2781C121.893 84.2429 124.481 84.014 126.761 83.8115L128.691 83.6443C128.99 82.4153 129.131 81.1536 129.109 79.8896C129.099 79.7023 129.026 79.5238 128.9 79.3834C128.722 79.2117 128.664 79.1545 128.575 79.1545H128.589Z" fill="#3E3A39"/>
<path d="M117.589 85.9024C116.131 84.9164 114.686 84.0536 112.983 83.0808C112.539 82.8297 112.04 82.6906 111.529 82.6759C108.07 82.5966 100.805 82.6098 98.2708 82.6098C95.7365 82.6098 88.4894 82.6098 85.0125 82.6759C84.5017 82.6906 84.0023 82.8297 83.5587 83.0808C81.8558 84.0536 80.4108 84.9164 78.9481 85.9024C78.8295 85.9835 78.7435 86.1034 78.7053 86.2411C78.6671 86.3787 78.679 86.5253 78.7391 86.6551C79.9585 89.1852 81.3288 91.6413 82.8428 94.0104C83.0977 94.4015 83.4442 94.7259 83.853 94.9558C84.2617 95.1857 84.7205 95.3144 85.1904 95.3309C89.5698 95.4982 95.6565 95.5554 98.2708 95.5598C100.885 95.5642 106.972 95.4982 111.351 95.3309C111.82 95.3148 112.279 95.1863 112.687 94.9563C113.095 94.7263 113.441 94.4017 113.694 94.0104C115.208 91.6403 116.58 89.1843 117.802 86.6551C117.863 86.5249 117.875 86.3777 117.836 86.2398C117.797 86.1019 117.709 85.9823 117.589 85.9024V85.9024Z" fill="#3E3A39"/>
<path d="M105.389 88.988H91.1483C90.1195 88.988 89.2854 89.8137 89.2854 90.8323V91.1273C89.2854 92.1459 90.1195 92.9716 91.1483 92.9716H105.389C106.418 92.9716 107.252 92.1459 107.252 91.1273V90.8323C107.252 89.8137 106.418 88.988 105.389 88.988Z" fill="white"/>
<path d="M111.516 81.6987C112.584 81.6986 113.65 81.6117 114.704 81.439V81.439C114.724 81.4358 114.743 81.4287 114.76 81.418C114.777 81.4074 114.792 81.3934 114.804 81.377C114.815 81.3606 114.823 81.342 114.828 81.3224C114.832 81.3028 114.832 81.2826 114.828 81.2629C114.822 81.2226 114.799 81.1866 114.766 81.1627C114.732 81.1388 114.691 81.1289 114.65 81.1352C113.552 81.3116 112.441 81.3956 111.329 81.3861L107.843 81.3465C104.824 81.3069 101.067 81.2585 98.2708 81.2585C98.2296 81.2585 98.19 81.2747 98.1608 81.3036C98.1316 81.3325 98.1152 81.3717 98.1152 81.4126C98.1152 81.4534 98.1316 81.4926 98.1608 81.5215C98.19 81.5504 98.2296 81.5666 98.2708 81.5666C101.067 81.5666 104.824 81.615 107.843 81.6546L111.325 81.6943L111.516 81.6987Z" fill="#3E3A39"/>
<mask id="mask0_216_2034" style="mask-type:alpha" maskUnits="userSpaceOnUse" x="24" y="33" width="76" height="74">
<rect x="24" y="33.5" width="76" height="73" fill="#C4C4C4"/>
</mask>
<g mask="url(#mask0_216_2034)">
<path d="M65.8786 94.882L53.9924 87.3408C52.7361 86.0849 52.053 82.7581 53.1081 81.303C54.0351 80.0531 56.9014 77.7648 58.3224 79.0267L67.9155 86.3868L81.6131 71.2922C82.1243 70.6392 82.8705 70.2067 83.696 70.0851C84.5214 69.9635 85.3625 70.1621 86.0437 70.6394C86.7248 71.1168 87.1936 71.8361 87.3521 72.6473C87.5106 73.4585 87.3467 74.299 86.8945 74.9934L71.4893 93.9824C71.2006 94.4273 70.8122 94.8004 70.3542 95.0727C69.8962 95.3449 69.381 95.509 68.8486 95.5522C67.8209 95.5473 66.8069 95.3185 65.8786 94.882Z" fill="#DEA769"/>
<path d="M82.2415 72.6447C82.4099 72.6456 82.5752 72.6005 82.7194 72.5143C82.8635 72.4281 82.9808 72.3042 83.0584 72.1562C83.1359 72.0083 83.1708 71.842 83.159 71.6757C83.1472 71.5094 83.0893 71.3495 82.9916 71.2137L81.7292 69.4386C81.6599 69.3411 81.5719 69.258 81.4702 69.1942C81.3685 69.1303 81.2551 69.0869 81.1365 69.0665C81.0178 69.046 80.8963 69.0489 80.7788 69.0749C80.6612 69.1009 80.55 69.1497 80.4515 69.2182C80.353 69.2868 80.2691 69.3739 80.2046 69.4746C80.1401 69.5753 80.0963 69.6876 80.0756 69.8051C80.0549 69.9225 80.0579 70.0429 80.0842 70.1592C80.1105 70.2756 80.1597 70.3856 80.2289 70.4832L81.4914 72.2583C81.575 72.3784 81.6871 72.4765 81.8179 72.5438C81.9486 72.6112 82.0941 72.6458 82.2415 72.6447V72.6447Z" fill="#DEA769"/>
<path d="M83.0279 71.8598C83.1705 71.8606 83.3101 71.8198 83.4294 71.7425C83.5487 71.6652 83.6424 71.5548 83.6987 71.4251L85.3941 67.591C85.4342 67.5038 85.4565 67.4097 85.4598 67.3139C85.4631 67.2182 85.4473 67.1227 85.4133 67.033C85.3793 66.9433 85.3278 66.8611 85.2617 66.7911C85.1957 66.7211 85.1163 66.6646 85.0282 66.625C84.9401 66.5853 84.845 66.5633 84.7483 66.56C84.6516 66.5568 84.5552 66.5724 84.4646 66.6061C84.3739 66.6397 84.2909 66.6907 84.2202 66.7561C84.1495 66.8215 84.0925 66.9 84.0524 66.9873L82.357 70.8213C82.3186 70.9085 82.2978 71.0024 82.296 71.0975C82.2942 71.1927 82.3114 71.2872 82.3465 71.3758C82.3816 71.4644 82.434 71.5453 82.5007 71.6138C82.5674 71.6823 82.647 71.7372 82.7351 71.7753C82.8255 71.8238 82.9253 71.8526 83.0279 71.8598V71.8598Z" fill="#DEA769"/>
<path d="M84.5709 72.216C84.707 72.2156 84.8403 72.1782 84.9565 72.108C85.0726 72.0377 85.167 71.9372 85.2295 71.8175L87.2298 67.8929C87.2984 67.7234 87.3003 67.5347 87.2352 67.3638C87.1702 67.193 87.0429 67.0524 86.8784 66.9699C86.7139 66.8873 86.5242 66.8687 86.3465 66.9178C86.1689 66.9668 86.0163 67.0799 85.9186 67.2348L83.9183 71.1594C83.8309 71.3317 83.8159 71.5312 83.8764 71.7144C83.937 71.8976 84.0682 72.0497 84.2415 72.1375C84.3446 72.1862 84.4567 72.2129 84.5709 72.216V72.216Z" fill="#DEA769"/>
<path d="M85.9554 72.838C86.0805 72.8338 86.2024 72.7978 86.3093 72.7332C86.4162 72.6687 86.5044 72.5779 86.5653 72.4696L88.9011 68.4847C88.95 68.4024 88.9819 68.3114 88.9949 68.2168C89.0078 68.1222 89.0017 68.026 88.9767 67.9339C88.9517 67.8417 88.9084 67.7553 88.8494 67.6799C88.7903 67.6045 88.7167 67.5414 88.6327 67.4945C88.4642 67.3999 88.2648 67.3748 88.0777 67.4245C87.8905 67.4742 87.7307 67.5947 87.6325 67.7601L85.2968 71.7753C85.1993 71.9427 85.1729 72.1416 85.2232 72.3283C85.2735 72.515 85.3964 72.6744 85.5651 72.7715C85.6875 72.8258 85.8218 72.8486 85.9554 72.838V72.838Z" fill="#DEA769"/>
<path d="M86.0773 75.4583C86.4517 75.3402 86.7826 75.1155 87.0287 74.8123L90.5903 69.4145C90.6444 69.3352 90.6821 69.2461 90.7014 69.1524C90.7207 69.0587 90.7212 68.9621 90.7028 68.8682C90.6844 68.7743 90.6475 68.6849 90.5942 68.6051C90.5409 68.5253 90.4722 68.4567 90.3921 68.4032C90.312 68.3496 90.2221 68.3122 90.1274 68.2931C90.0327 68.274 89.9352 68.2736 89.8403 68.2918C89.7454 68.31 89.6551 68.3466 89.5746 68.3993C89.494 68.4521 89.4247 68.5201 89.3706 68.5994L85.4614 74.3232C85.354 74.4837 85.3149 74.6796 85.3526 74.8684C85.3903 75.0572 85.5017 75.2236 85.6626 75.3316C85.7844 75.4151 85.9292 75.4593 86.0773 75.4583V75.4583Z" fill="#DEA769"/>
<path d="M89.5778 82.7943L88.5898 83.4464C88.3886 83.5792 88.1446 83.5792 88.0531 83.4464L69.1962 55.455C69.1047 55.3222 69.1962 55.0988 69.3974 54.966L70.3793 54.3139C70.5867 54.1811 70.8245 54.1811 70.916 54.3139L89.779 82.2992C89.8705 82.4441 89.779 82.6615 89.5778 82.7943Z" fill="#3A3A3A"/>
<path d="M41.033 73.3149L41.6428 69.5352H47.6256C47.6256 69.5352 47.8634 72.7957 47.9427 73.5987C47.6317 75.2349 42.5515 76.1648 41.033 73.3149Z" fill="#DEA769"/>
<path d="M45.1982 41.3507C46.6051 41.3499 47.9983 41.6235 49.2983 42.156C50.5983 42.6885 51.7796 43.4693 52.7747 44.4539C53.7698 45.4385 54.5591 46.6076 55.0977 47.8943C55.6363 49.1811 55.9135 50.5603 55.9135 51.9531V60.7743C55.9143 62.0575 55.6596 63.3282 55.164 64.5138C54.6684 65.6994 53.9416 66.7767 53.0251 67.684C52.1087 68.5913 51.0206 69.3109 49.823 69.8015C48.6255 70.2922 47.342 70.5443 46.0459 70.5435H44.381C43.0829 70.5475 41.7968 70.2977 40.5964 69.8085C39.396 69.3192 38.305 68.6002 37.386 67.6925C36.467 66.7849 35.738 65.7066 35.2408 64.5194C34.7437 63.3322 34.4882 62.0595 34.489 60.7743V51.9531C34.489 49.1412 35.6173 46.4444 37.6257 44.4561C39.634 42.4677 42.358 41.3507 45.1982 41.3507V41.3507Z" fill="#F7C58B"/>
<path d="M54.9196 75.09L65.2446 82.2026C65.2446 82.2026 63.6955 89.0132 59.0179 92.0925L54.017 87.9144C53.182 87.1389 52.522 86.1974 52.0806 85.1516C51.6391 84.1058 51.4261 82.9794 51.4556 81.8463C51.4556 76.7504 54.9196 75.09 54.9196 75.09Z" fill="#2B2B2B"/>
<path d="M33.2633 75.0599L41.3318 72.7112C41.3318 72.7112 42.2283 73.804 44.4604 73.804C46.6925 73.804 47.4304 72.7112 47.4304 72.7112L54.8159 75.1263L57.2553 110.103C53.0458 111.058 48.7357 111.508 44.4177 111.444C36.5688 111.444 31.6106 110.103 31.6106 110.103L33.2633 75.0599Z" fill="#3A3A3A"/>
<path d="M32.574 89.7197H55.8585L55.5963 86.0426H32.7447L32.574 89.7197Z" fill="#B7B7B7"/>
<path d="M32.9766 81.0735H55.2488L54.9865 77.3904H33.1534L32.9766 81.0735Z" fill="#B7B7B7"/>
<path d="M32.1653 98.3719H56.4683L56.2061 94.6888H32.336L32.1653 98.3719Z" fill="#B7B7B7"/>
<path d="M31.7568 107.024H57.0722L56.8161 103.341H31.9337L31.7568 107.024Z" fill="#B7B7B7"/>
<path d="M80.973 139.375C80.9977 138.162 80.5372 136.988 79.692 136.109C78.8467 135.231 77.6851 134.718 76.46 134.683H74.7524L73.1668 108.515C73.1197 107.736 72.9057 106.976 72.539 106.286C72.1724 105.595 71.6615 104.989 71.0403 104.509C70.419 104.029 69.7017 103.685 68.9359 103.5C68.17 103.315 67.3733 103.294 66.5986 103.438L31.6168 110.079L32.001 125.174L22.3591 120.114C22.2334 119.714 21.9557 119.379 21.5846 119.178L18.706 117.645C18.5198 117.549 18.3159 117.493 18.1068 117.479C17.8977 117.465 17.6879 117.493 17.4903 117.562C17.2927 117.631 17.1114 117.739 16.9576 117.88C16.8038 118.021 16.6807 118.191 16.5959 118.381L9.10068 134.08C8.99282 134.289 8.97067 134.531 9.03884 134.756C9.10701 134.981 9.26024 135.171 9.4666 135.287L10.4058 135.782C10.9362 136.056 11.5178 136.22 12.1145 136.262C12.7113 136.304 13.3104 136.225 13.8749 136.028C14.4393 135.832 14.9569 135.523 15.3956 135.12C15.8343 134.717 16.1847 134.229 16.4251 133.687L18.0352 130.312L35.4894 139.477C36.2917 139.898 37.1858 140.118 38.0936 140.117C39.1181 140.117 41.4844 139.84 42.3626 139.278C43.2014 138.765 43.8869 138.039 44.3489 137.176C44.8108 136.314 45.0325 135.345 44.9911 134.369L44.6008 124.244C44.5449 122.787 45.0199 121.358 45.9389 120.219C46.858 119.08 48.1601 118.305 49.6078 118.037L58.7557 116.087C59.224 116 59.7055 116.014 60.1682 116.126C60.6308 116.238 61.0641 116.446 61.4392 116.737C61.8142 117.027 62.1224 117.394 62.3432 117.812C62.564 118.23 62.6924 118.689 62.7198 119.16L63.6529 134.786H63.409C62.9797 134.806 62.5758 134.993 62.2848 135.306C61.9937 135.619 61.8389 136.033 61.8538 136.458V139.852C61.844 140.277 62.0045 140.689 62.3004 140.998C62.5963 141.307 63.0036 141.487 63.4334 141.5L80.107 141.367C80.3351 141.356 80.5498 141.257 80.7049 141.091C80.8599 140.925 80.9431 140.706 80.9364 140.48L80.973 139.375Z" fill="#2B2B2B"/>
<path d="M77.8808 78.3202L74.4594 74.3715C74.2324 74.1077 73.955 73.8908 73.6431 73.7333C73.3311 73.5759 72.9909 73.481 72.6419 73.4541C72.2928 73.4271 71.9418 73.4687 71.609 73.5764C71.2763 73.6841 70.9683 73.8558 70.7027 74.0817L67.4521 76.841C67.1284 77.1149 66.8761 77.4621 66.7169 77.8531C66.5576 78.2441 66.496 78.6674 66.5373 79.087L54.9499 87.2441L41.6 80.4274C41.1096 80.1647 40.5712 80.0013 40.0163 79.9469C39.4613 79.8925 38.901 79.9482 38.3681 80.1106C37.8351 80.2731 37.3402 80.5391 36.9123 80.8931C36.4844 81.2471 36.1321 81.682 35.8759 82.1724C35.6197 82.6628 35.4649 83.1988 35.4204 83.7491C35.3759 84.2995 35.4426 84.853 35.6167 85.3775C35.7908 85.902 36.0687 86.3869 36.4343 86.8038C36.7998 87.2207 37.2456 87.5613 37.7457 87.8057L53.346 95.7877C54.0308 96.1344 54.7983 96.2896 55.5656 96.2364C56.3329 96.1832 57.071 95.9236 57.7004 95.4858L72.0871 85.3905C72.4838 85.4671 72.8931 85.4525 73.2832 85.3479C73.6734 85.2432 74.0341 85.0512 74.3375 84.7868L77.5941 82.0275C78.1265 81.5721 78.4553 80.9268 78.509 80.2323C78.5627 79.5379 78.3369 78.8505 77.8808 78.3202V78.3202Z" fill="#F7C58B"/>
<path d="M33.2633 75.0598C33.2633 75.0598 28.4942 77.6561 29.2748 81.7014C30.0554 85.7468 39.673 92.0925 39.673 92.0925C39.673 92.0925 44.869 85.9943 45.9119 81.1641C45.9119 81.1641 38.9412 75.5247 33.2633 75.0598Z" fill="#2B2B2B"/>
<path d="M34.489 52.1825L44.9909 52.2972L55.8708 52.1825V59.597H47.5645C47.0682 59.5899 46.5898 59.4128 46.2106 59.0958L46.0825 58.9811C45.8256 58.7636 45.4963 58.6482 45.1583 58.6571C44.8204 58.666 44.4978 58.7987 44.2529 59.0294V59.0294C43.8581 59.3922 43.3401 59.5948 42.8014 59.597H34.489V52.1825Z" fill="#2B2B2B"/>
<path d="M41.344 55.9019H39.2521C38.7031 55.9019 38.2581 56.3425 38.2581 56.886V56.8921C38.2581 57.4356 38.7031 57.8762 39.2521 57.8762H41.344C41.893 57.8762 42.338 57.4356 42.338 56.8921V56.886C42.338 56.3425 41.893 55.9019 41.344 55.9019Z" fill="#898989"/>
<path d="M52.4983 55.9019H50.4064C49.8574 55.9019 49.4124 56.3425 49.4124 56.886V56.8921C49.4124 57.4356 49.8574 57.8762 50.4064 57.8762H52.4983C53.0473 57.8762 53.4923 57.4356 53.4923 56.8921V56.886C53.4923 56.3425 53.0473 55.9019 52.4983 55.9019Z" fill="#898989"/>
<path d="M44.991 37.6012C48.1171 37.6044 51.114 38.8361 53.3233 41.0256C55.5326 43.2152 56.7736 46.1835 56.7736 49.2783V50.5946C56.7736 51.059 56.5872 51.5043 56.2556 51.8327C55.9239 52.1611 55.474 52.3456 55.005 52.3456H34.9527C34.4836 52.3456 34.0338 52.1611 33.7021 51.8327C33.3704 51.5043 33.1841 51.059 33.1841 50.5946V49.2783C33.1841 47.7439 33.4896 46.2244 34.0831 44.8069C34.6766 43.3894 35.5465 42.1016 36.643 41.0171C37.7395 39.9326 39.0412 39.0727 40.4736 38.4866C41.906 37.9005 43.4411 37.5996 44.991 37.6012V37.6012Z" fill="#4B4C4C"/>
<path d="M31.7207 56.1615C31.9755 56.4978 32.3469 56.7289 32.7635 56.8102C33.1801 56.8916 33.6124 56.8175 33.9772 56.6022C37.7892 54.3993 42.1393 53.2756 46.5525 53.3539C51.6266 53.4807 54.6942 55.0022 56.3103 56.1554C56.5045 56.2939 56.7258 56.3908 56.96 56.4398C57.1942 56.4888 57.4361 56.4889 57.6703 56.44C57.9045 56.3911 58.1258 56.2944 58.3201 56.156C58.5144 56.0176 58.6774 55.8405 58.7986 55.6362L59.5121 54.3803C59.8328 53.8189 59.9236 53.1571 59.7659 52.5314C59.6081 51.9056 59.2139 51.3637 58.6644 51.0173C55.0587 48.6771 50.8682 47.3729 46.5586 47.2497C40.832 47.1168 35.0505 49.6648 31.8487 51.3735C31.5231 51.5411 31.2379 51.7764 31.0126 52.0632C30.7873 52.35 30.6272 52.6816 30.5432 53.0353C30.4592 53.389 30.4534 53.7565 30.5261 54.1126C30.5988 54.4687 30.7483 54.8052 30.9644 55.0988L31.7207 56.1615Z" fill="#3A3A3A"/>
<path d="M45.3935 38.3076C46.4444 38.3076 47.2963 37.7643 47.2963 37.094C47.2963 36.4237 46.4444 35.8804 45.3935 35.8804C44.3426 35.8804 43.4907 36.4237 43.4907 37.094C43.4907 37.7643 44.3426 38.3076 45.3935 38.3076Z" fill="#3A3A3A"/>
</g>
</g>
<path d="M46.928 128.032V129.136H60.272V128.032H46.928ZM46.432 137.856V138.96H60.816V137.856H46.432ZM52.944 126.576V141.328H54.176V126.576H52.944ZM49.264 133.888H57.92V135.552H49.264V133.888ZM49.264 131.312H57.92V132.944H49.264V131.312ZM48.112 130.304V136.544H59.12V130.304H48.112ZM63.968 128.304V129.344H69.648V128.304H63.968ZM63.824 137.44V138.48H69.76V137.44H63.824ZM66.352 126.576V130.88H67.392V126.576H66.352ZM66.464 130.928V135.84H66.352V141.296H67.392V135.84H67.28V130.928H66.464ZM65.152 133.76H68.608V135.28H65.152V133.76ZM65.152 131.392H68.608V132.896H65.152V131.392ZM64.304 130.496V136.176H69.472V130.496H64.304ZM69.952 127.84V128.88H78.448V127.84H69.952ZM71.536 132.912V133.68H72.736V132.912H71.536ZM70.144 130.48V141.264H71.072V131.488H77.744V130.48H70.144ZM77.28 130.48V139.984C77.28 140.176 77.216 140.24 77.008 140.24C76.816 140.256 76.16 140.256 75.44 140.224C75.568 140.512 75.728 140.96 75.776 141.232C76.72 141.232 77.36 141.216 77.76 141.056C78.144 140.88 78.256 140.576 78.256 139.984V130.48H77.28ZM72.304 132.912C72.304 134.88 72.384 136.832 73.264 138.304C73.376 138.16 73.664 137.92 73.824 137.824C72.976 136.464 72.928 134.72 72.928 132.912H72.304ZM72.288 133.168C72.144 135.264 71.808 137.008 71.104 137.792C71.28 137.952 71.472 138.208 71.568 138.416C72.352 137.456 72.72 135.6 72.88 133.44L72.288 133.168ZM74.944 132.912V133.68H76.192V132.912H74.944ZM75.792 132.912C75.792 134.88 75.904 136.88 76.912 138.336C77.024 138.192 77.312 137.952 77.472 137.856C76.48 136.48 76.416 134.736 76.416 132.912H75.792ZM75.76 133.168C75.6 135.2 75.232 136.976 74.48 137.776C74.672 137.936 74.864 138.176 74.96 138.384C75.792 137.44 76.208 135.536 76.368 133.424L75.76 133.168ZM73.6 128.016V131.2H73.728V141.152H74.528V131.2H74.656V128.016H73.6ZM88.384 132.88V133.952H94.544V132.88H88.384ZM88.336 129.04V130.16H95.264V129.04H88.336ZM91.312 126.576V133.52H92.48V126.576H91.312ZM87.84 129.04V132.912C87.84 135.216 87.664 138.416 86.016 140.672C86.288 140.8 86.784 141.104 86.992 141.312C88.704 138.928 88.976 135.376 88.976 132.912V129.04H87.84ZM90.048 133.44L89.008 133.712C90.08 137.392 92.176 140.112 95.504 141.344C95.696 140.992 96.048 140.528 96.32 140.288C93.104 139.264 91.008 136.736 90.048 133.44ZM94.928 129.04V129.232C94.736 130.208 94.416 131.44 94.128 132.176L95.152 132.384C95.504 131.6 95.872 130.304 96.144 129.2L95.296 128.992L95.104 129.04H94.928ZM94.272 132.88V133.088C93.456 136.768 90.96 139.28 88.128 140.32C88.368 140.544 88.688 140.992 88.832 141.296C91.92 140.032 94.496 137.424 95.472 133.104L94.72 132.832L94.496 132.88H94.272ZM83.776 134.416V141.296H84.912V133.056L83.776 134.416ZM81.568 129.536V130.624H86.288V129.536H81.568ZM83.744 126.624V130.16H84.88V126.624H83.744ZM84.784 133.072L84.16 133.6C84.688 134.208 86.048 135.984 86.512 136.736L87.232 135.92C86.864 135.456 85.248 133.52 84.784 133.072ZM85.984 129.536V129.792C85.12 132.112 83.104 134.496 81.2 135.776C81.392 135.968 81.696 136.528 81.808 136.832C83.824 135.344 86.016 132.736 87.072 129.92L86.432 129.488L86.224 129.536H85.984ZM86.768 132.4C86.448 133.008 85.824 133.904 85.376 134.432L85.968 134.896C86.432 134.4 87.024 133.632 87.52 132.944L86.768 132.4ZM105.76 126.56V128.288H106.992V126.56H105.76ZM102.016 132.176V141.296H103.104V132.176H102.016ZM108.64 131.104V133.712H109.696V131.104H108.64ZM103.92 128.448C103.552 129.68 102.544 130.224 99.68 130.528C99.872 130.72 100.144 131.104 100.224 131.36C103.44 130.944 104.656 130.176 105.104 128.448H103.92ZM107.184 128.4V129.776C107.184 130.752 107.52 130.976 108.832 130.976C109.104 130.976 110.672 130.976 110.96 130.976C111.888 130.976 112.208 130.672 112.304 129.568C112 129.52 111.552 129.392 111.328 129.248C111.28 130.016 111.2 130.128 110.8 130.128C110.48 130.128 109.216 130.128 108.976 130.128C108.448 130.128 108.368 130.08 108.368 129.776V128.4H107.184ZM99.408 127.712V129.872H100.56V128.624H112.24V129.872H113.44V127.712H99.408ZM105.68 136.384V141.28H106.688V137.248H112.72V136.384H105.68ZM106.416 133.296V136.832H107.376V134.08H111.664V136.832H112.672V133.296H106.416ZM108.704 136.896C108.528 137.536 108.176 138.464 107.888 139.072L108.624 139.312C108.928 138.752 109.312 137.904 109.664 137.168L108.704 136.896ZM104.448 132.896C104.288 133.456 103.904 134.288 103.616 134.816L104.384 135.072C104.688 134.576 105.04 133.856 105.36 133.184L104.448 132.896ZM99.28 135.184V136.096H105.616V135.184H99.28ZM109.216 131.792V132.576H112.928V131.792H109.216ZM112.256 136.384V140.288C112.256 140.448 112.192 140.48 112.016 140.496C111.856 140.496 111.264 140.496 110.624 140.48C110.752 140.72 110.912 141.04 110.96 141.28C111.888 141.296 112.464 141.28 112.832 141.136C113.2 141.008 113.296 140.768 113.296 140.272V136.384H112.256ZM107.168 138.896L107.28 139.712C108.4 139.632 109.76 139.52 111.2 139.376L111.184 138.656C109.648 138.752 108.224 138.848 107.168 138.896ZM109.152 135.216C109.664 135.504 110.272 135.936 110.576 136.256L111.04 135.76C110.752 135.456 110.128 135.04 109.616 134.784L109.152 135.216ZM110.064 138.08C110.576 138.64 111.072 139.424 111.264 139.952L111.872 139.632C111.68 139.104 111.168 138.352 110.64 137.808L110.064 138.08ZM102.96 136.224L102.352 136.752C102.928 137.216 104.352 138.496 104.832 139.072L105.504 138.176C105.12 137.84 103.44 136.544 102.96 136.224ZM99.872 133.264C100.16 133.824 100.4 134.592 100.448 135.088L101.344 134.864C101.28 134.352 101.024 133.6 100.688 133.056L99.872 133.264ZM109.232 134.16C109.072 134.88 108.576 135.424 107.824 135.792C108 135.904 108.256 136.176 108.368 136.32C109.2 135.872 109.776 135.136 109.984 134.224L109.232 134.16ZM101.76 135.488C101.216 136.96 100.128 138.496 99.024 139.232C99.264 139.472 99.52 139.904 99.648 140.192C100.816 139.248 101.984 137.552 102.576 135.952L101.76 135.488ZM104.928 131.232C103.648 131.6 101.328 131.872 99.408 132.016C99.52 132.24 99.648 132.576 99.68 132.816C101.664 132.688 104.08 132.416 105.632 132L104.928 131.232Z" fill="black"/>
<defs>
<clipPath id="clip0_216_2034">
<rect width="112" height="73" fill="white" transform="translate(24 33.5)"/>
</clipPath>
</defs>
</svg>
