<svg width="160" height="160" viewBox="0 0 160 160" fill="none" xmlns="http://www.w3.org/2000/svg">
<rect width="160" height="160" rx="80" fill="#F5F5F5"/>
<g clip-path="url(#clip0_2_3252)">
<g clip-path="url(#clip1_2_3252)">
<path d="M69.2902 49.03C67.4658 49.7464 65.7114 50.6302 64.0499 51.67C59.9742 54.1959 56.3982 57.45 53.5001 61.27C51.9434 63.2684 50.571 65.4038 49.4 67.65C45.3781 66.9946 41.7205 64.9293 39.0822 61.8237C36.4438 58.7181 34.9969 54.775 35.0001 50.7C34.9988 48.4409 35.4429 46.2037 36.3068 44.1163C37.1707 42.0289 38.4374 40.1323 40.0348 38.5348C41.6322 36.9374 43.5289 35.6705 45.6163 34.8066C47.7037 33.9427 49.9407 33.4987 52.1998 33.5C56.4707 33.4959 60.5898 35.0854 63.7506 37.9577C66.9114 40.8299 68.8867 44.7782 69.2902 49.03V49.03Z" fill="#B8A4D9"/>
<path d="M114.17 83.3C114.17 99.59 98.7599 106 79.7399 106C60.7199 106 45.2799 99.59 45.2799 83.3C45.4129 77.8282 46.8385 72.4656 49.4401 67.65C50.6111 65.4038 51.9834 63.2684 53.5402 61.27C56.4383 57.45 60.0143 54.1959 64.09 51.67C65.7514 50.6301 67.5058 49.7464 69.3302 49.03C72.6424 47.7106 76.1746 47.0319 79.7399 47.03C83.1781 47.0409 86.5852 47.685 89.7902 48.93C91.635 49.6307 93.4123 50.4976 95.1002 51.52C99.2537 54.0633 102.899 57.3558 105.85 61.23C107.418 63.2373 108.8 65.3828 109.98 67.64C112.604 72.4517 114.041 77.8207 114.17 83.3V83.3Z" fill="#B8A4D9"/>
<path d="M64.0499 51.67C59.9742 54.1959 56.3982 57.45 53.5001 61.27C51.5229 60.8664 49.746 59.7918 48.4703 58.2281C47.1946 56.6645 46.4986 54.708 46.5001 52.69C46.5001 51.5379 46.7271 50.3972 47.1686 49.3331C47.6101 48.2689 48.2573 47.3024 49.0729 46.4887C49.8884 45.675 50.8564 45.0301 51.9215 44.5911C52.9866 44.152 54.1278 43.9274 55.2799 43.93C57.4373 43.9173 59.5241 44.6993 61.1417 46.1269C62.7593 47.5545 63.7944 49.5277 64.0499 51.67V51.67Z" fill="#EFCECD"/>
<path d="M124.04 50.7C124.04 54.7231 122.629 58.6187 120.052 61.7086C117.476 64.7985 113.898 66.8868 109.94 67.61C108.76 65.3528 107.378 63.2073 105.81 61.2C102.859 57.3258 99.2137 54.0333 95.0602 51.49C93.3723 50.4676 91.5949 49.6007 89.7501 48.9C90.1928 44.6716 92.1868 40.7573 95.3468 37.9131C98.5068 35.069 102.609 33.4967 106.86 33.5C109.118 33.5 111.353 33.945 113.439 34.8097C115.525 35.6743 117.42 36.9415 119.015 38.539C120.611 40.1364 121.876 42.0327 122.738 44.1194C123.6 46.206 124.043 48.4422 124.04 50.7Z" fill="#B8A4D9"/>
<path d="M112.51 52.71C112.515 54.6736 111.856 56.5812 110.64 58.1226C109.423 59.664 107.721 60.7486 105.81 61.2C102.859 57.3258 99.2137 54.0333 95.0602 51.49C95.3458 49.394 96.3819 47.4728 97.9762 46.0826C99.5705 44.6924 101.615 43.9276 103.73 43.93C104.884 43.9273 106.026 44.1527 107.093 44.593C108.159 45.0333 109.129 45.6799 109.944 46.4957C110.76 47.3115 111.407 48.2805 111.847 49.3469C112.288 50.4133 112.513 51.5562 112.51 52.71V52.71Z" fill="#EFCECD"/>
<path d="M85.6001 77.59C85.7801 82.37 83.1201 86.35 79.6001 86.48C76.0801 86.61 73.18 82.84 73 78.07C72.82 73.3 75.4797 69.31 78.9497 69.18C82.4197 69.05 85.4201 72.81 85.6001 77.59Z" fill="#3E3A39"/>
<path d="M102.35 77.9C100.78 78.28 99.0002 76.53 98.3502 73.98C97.7002 71.43 98.5199 69.07 100.09 68.69C101.66 68.31 103.44 70.06 104.09 72.61C104.74 75.16 103.92 77.52 102.35 77.9Z" fill="#3E3A39"/>
<path d="M58.7101 77.97C57.1101 77.72 56.15 75.42 56.57 72.83C56.99 70.24 58.5701 68.36 60.2101 68.62C61.8501 68.88 62.7702 71.18 62.3502 73.76C61.9302 76.34 60.3101 78.23 58.7101 77.97Z" fill="#3E3A39"/>
<path d="M80.2755 91.5382C84.3758 84.65 90.5224 87.2674 90.5913 87.2797C90.7018 87.3267 90.8017 87.3953 90.8852 87.4815C90.9688 87.5677 91.0343 87.6697 91.0778 87.7816C91.1213 87.8934 91.1417 88.0128 91.1383 88.1327C91.135 88.2527 91.1078 88.3708 91.0582 88.48C90.959 88.6995 90.7779 88.8713 90.5534 88.9586C90.329 89.0459 90.0791 89.0417 89.8577 88.9469C89.6499 88.8592 85.1225 87.0175 81.8451 92.4777C81.7218 92.6844 81.5219 92.8339 81.2886 92.8933C81.0553 92.9527 80.8077 92.9171 80.6005 92.7945C80.4959 92.7341 80.4043 92.6535 80.3312 92.5573C80.2581 92.4611 80.2052 92.3514 80.1749 92.2345C80.1447 92.1175 80.138 91.9958 80.1554 91.8762C80.1727 91.7567 80.2133 91.6417 80.2755 91.5382V91.5382Z" fill="#3E3A39"/>
<path d="M66.3502 49.87C58.9702 53.4 54.3 60.16 49.92 66.8C49.59 67.29 50.3798 67.75 50.6998 67.26C55.0098 60.73 59.5501 54.13 66.8101 50.66C67.3401 50.42 66.8802 49.62 66.3502 49.87Z" fill="white"/>
<path d="M106.95 86.5C107.01 86.75 99.15 92.5 98 94.86" stroke="white" stroke-width="3" stroke-miterlimit="10" stroke-linecap="round"/>
<path d="M98 87.09C100.54 88.57 104.12 91.49 107.57 94.09" stroke="white" stroke-width="3" stroke-miterlimit="10" stroke-linecap="round"/>
<path d="M72.4232 58.5C72.4663 58.6794 66.8254 62.8062 66 64.5" stroke="white" stroke-width="2.15311" stroke-miterlimit="10" stroke-linecap="round"/>
<path d="M66 58.9234C67.823 59.9856 70.3922 62.0813 72.8683 63.9474" stroke="white" stroke-width="2.15311" stroke-miterlimit="10" stroke-linecap="round"/>
</g>
</g>
<path d="M46.688 127.696V128.672H52.928V127.696H46.688ZM49.296 133.824V134.56H58.624V133.824H49.296ZM49.344 135.472V136.224H58.656V135.472H49.344ZM49.264 137.136V138.016H59.584V137.136H49.264ZM52.592 127.696V127.856C52.464 129.584 52.336 130.256 52.16 130.448C52.048 130.544 51.936 130.576 51.728 130.576C51.536 130.576 51.024 130.56 50.464 130.512C50.608 130.752 50.704 131.152 50.736 131.424C51.344 131.456 51.936 131.472 52.24 131.44C52.608 131.424 52.848 131.328 53.072 131.104C53.376 130.784 53.52 130 53.664 128.144C53.68 128 53.696 127.696 53.696 127.696H52.592ZM55.744 128.32H59.072V130.32H55.744V128.32ZM54.624 127.392V131.264H60.24V127.392H54.624ZM48.48 132.064V138.016H49.664V132.896H59.264V132.064H48.48ZM53.616 132.368V137.504H54.784V132.368H53.616ZM59.184 137.136V137.296C59.024 139.264 58.816 140.048 58.576 140.272C58.448 140.4 58.32 140.416 58.096 140.416C57.872 140.416 57.28 140.4 56.656 140.336C56.816 140.608 56.912 141.008 56.928 141.296C57.632 141.328 58.272 141.344 58.624 141.312C59.008 141.28 59.264 141.2 59.504 140.96C59.872 140.592 60.08 139.712 60.304 137.616C60.32 137.44 60.352 137.136 60.352 137.136H59.184ZM48.24 138.272C47.76 139.008 47.008 140.048 46.304 140.688L47.312 141.264C47.968 140.56 48.672 139.552 49.2 138.784L48.24 138.272ZM50.256 138.752C50.496 139.472 50.688 140.432 50.72 141.04L51.808 140.832C51.744 140.224 51.536 139.296 51.264 138.576L50.256 138.752ZM52.896 138.768C53.296 139.392 53.696 140.272 53.824 140.832L54.832 140.496C54.656 139.936 54.24 139.104 53.808 138.48L52.896 138.768ZM55.472 138.624C55.92 139.088 56.432 139.744 56.656 140.192L57.536 139.76C57.296 139.312 56.784 138.688 56.304 138.24L55.472 138.624ZM49.392 126.576C49.184 128.832 48.624 130.512 46.224 131.36C46.464 131.552 46.752 131.936 46.88 132.192C49.568 131.152 50.256 129.232 50.512 126.576H49.392ZM71.92 130.144H77.152V133.408H71.92V130.144ZM70.832 129.088V134.432H78.272V129.088H70.832ZM73.92 126.64V133.712C73.92 136.24 73.76 139.152 70.144 140.384C70.4 140.608 70.736 141.056 70.88 141.312C74.64 139.776 75.056 136.624 75.056 133.712V126.64H73.92ZM71.984 135.008L70.976 135.232C72.08 138.56 74.32 140.528 78.032 141.328C78.192 141.008 78.496 140.544 78.752 140.288C75.184 139.68 72.96 137.904 71.984 135.008ZM65.216 129.68V130.64H70V129.68H65.216ZM65.216 132.16V133.12H70V132.16H65.216ZM65.168 134.624V135.6H69.856V134.624H65.168ZM67.248 127.824V135.072H68.24V127.824H67.248ZM67.84 136.304C68.208 136.96 68.576 137.824 68.704 138.4L69.312 138.16C69.152 137.616 68.784 136.736 68.4 136.096L67.84 136.304ZM66.752 136.56C67.04 137.376 67.296 138.464 67.36 139.152L68 138.992C67.936 138.32 67.68 137.264 67.36 136.432L66.752 136.56ZM65.632 136.704C65.792 137.664 65.888 138.848 65.856 139.664L66.512 139.568C66.528 138.784 66.432 137.568 66.256 136.624L65.632 136.704ZM64.464 136.464C64.352 137.52 64.096 139.104 63.792 140.048L64.56 140.352C64.832 139.376 65.056 137.776 65.2 136.704L64.464 136.464ZM64.592 127.232V135.6H65.616V128.24H70.336V127.232H64.592ZM69.456 134.624V134.8C69.28 138.48 69.088 139.84 68.816 140.176C68.688 140.32 68.56 140.352 68.336 140.336C68.128 140.336 67.584 140.336 67.008 140.272C67.152 140.56 67.264 140.96 67.28 141.248C67.872 141.296 68.464 141.28 68.768 141.264C69.184 141.232 69.424 141.12 69.664 140.848C70.08 140.352 70.256 138.976 70.448 135.104C70.464 134.96 70.48 134.624 70.48 134.624H69.456ZM88.576 132.112H93.552V133.072H88.576V132.112ZM88.576 130.48H93.552V131.408H88.576V130.48ZM87.472 129.728V133.824H94.704V129.728H87.472ZM87.968 126.56C87.392 128.08 86.448 129.632 85.408 130.64C85.68 130.8 86.128 131.168 86.336 131.344C87.344 130.256 88.384 128.544 89.04 126.848L87.968 126.56ZM87.984 127.952L87.536 128.88H95.84V127.952H87.984ZM85.44 134.608V135.536H96.24V134.608H85.44ZM88.48 135.04C87.728 136.272 86.448 137.408 85.168 138.176C85.376 138.336 85.76 138.72 85.92 138.912C87.216 138.048 88.592 136.736 89.44 135.344L88.48 135.04ZM89.728 136.752C88.976 138.24 87.616 139.568 86.192 140.416C86.432 140.576 86.8 140.944 86.976 141.12C88.384 140.16 89.824 138.704 90.672 137.056L89.728 136.752ZM92.416 136.752C91.84 138.384 90.736 139.824 89.424 140.736C89.648 140.896 90.064 141.216 90.24 141.392C91.536 140.384 92.752 138.816 93.408 136.992L92.416 136.752ZM87.808 136.496L87.104 137.376H95.056V136.496H87.808ZM94.688 136.496V136.656C94.448 139.008 94.192 139.952 93.872 140.24C93.76 140.368 93.632 140.384 93.408 140.384C93.184 140.384 92.656 140.384 92.08 140.32C92.224 140.576 92.336 140.976 92.352 141.264C92.944 141.296 93.536 141.296 93.84 141.28C94.224 141.264 94.496 141.168 94.736 140.928C95.152 140.496 95.44 139.472 95.712 136.96C95.744 136.8 95.76 136.496 95.76 136.496H94.688ZM85.024 126.624C84.128 129.056 82.624 131.456 81.04 133.008C81.264 133.28 81.6 133.92 81.728 134.192C83.456 132.4 85.104 129.696 86.16 126.976L85.024 126.624ZM83.36 130.752V141.264H84.512V129.632L84.48 129.616L83.36 130.752ZM99.184 129.744V130.944H113.6V129.744H99.184ZM105.744 126.576V130.256H106.976V126.576H105.744ZM101.088 130.272V138C101.088 140.064 102.048 140.72 104.272 140.72C104.784 140.72 109.504 140.72 110.48 140.72C111.568 140.72 112.704 140.688 113.104 140.592C113.04 140.288 112.96 139.712 112.928 139.392C112.368 139.488 111.28 139.536 110.496 139.536C109.504 139.536 105.008 139.536 104.128 139.536C102.768 139.536 102.336 139.104 102.336 138.064V130.272H101.088Z" fill="black"/>
<defs>
<clipPath id="clip0_2_3252">
<rect width="90" height="73" fill="white" transform="translate(35 33.5)"/>
</clipPath>
<clipPath id="clip1_2_3252">
<rect width="89.04" height="72.5" fill="white" transform="translate(35 33.5)"/>
</clipPath>
</defs>
</svg>
