<svg width="967" height="290" viewBox="0 0 967 290" fill="none" xmlns="http://www.w3.org/2000/svg">
<g id="pic_crash">
<g id="x&#232;&#183;&#175;&#228;&#186;&#186;">
<path id="Vector" d="M571.79 280.11C571.93 280.11 572.08 280.07 572.21 279.98C572.3 279.92 581.34 273.64 578.12 261.5C578.01 261.1 577.6 260.86 577.2 260.97C576.8 261.08 576.56 261.49 576.67 261.89C579.61 272.98 571.71 278.51 571.37 278.74C571.03 278.97 570.94 279.44 571.17 279.78C571.32 279.99 571.55 280.11 571.79 280.11Z" fill="#3E3A39"/>
<path id="Vector_2" d="M580.21 274.03C580.4 274.03 580.6 273.96 580.74 273.81C580.98 273.57 586.65 267.73 584.21 259.06C584.1 258.66 583.68 258.43 583.29 258.54C582.89 258.65 582.66 259.07 582.77 259.46C584.97 267.3 579.73 272.7 579.68 272.75C579.39 273.04 579.39 273.52 579.68 273.81C579.83 273.96 580.02 274.03 580.21 274.03V274.03Z" fill="#3E3A39"/>
<path id="Vector_3" d="M471.43 280.02C471.71 280.02 471.97 279.87 472.1 279.6C472.28 279.23 472.13 278.78 471.76 278.59C461.46 273.46 462.6 263.58 462.61 263.48C462.66 263.07 462.37 262.69 461.96 262.64C461.55 262.59 461.17 262.88 461.12 263.29C461.11 263.4 459.84 274.33 471.09 279.93C471.2 279.98 471.31 280.01 471.42 280.01L471.43 280.02Z" fill="#3E3A39"/>
<path id="Vector_4" d="M469.23 286.21C469.51 286.21 469.78 286.05 469.91 285.78C470.09 285.41 469.93 284.96 469.56 284.78C462.22 281.25 461.63 273.76 461.62 273.68C461.59 273.27 461.23 272.96 460.82 272.98C460.41 273.01 460.09 273.37 460.12 273.78C460.14 274.12 460.78 282.23 468.9 286.13C469 286.18 469.12 286.2 469.22 286.2L469.23 286.21Z" fill="#3E3A39"/>
<path id="Vector_5" d="M458.13 175.05C458.42 172.82 459.39 170.99 460.62 169.78C462.62 167.82 465.32 167.5 467.02 169.83L496.4 168.96C496.4 168.96 495.19 158.26 501.51 157.53C507.83 156.8 508.52 166.78 508.34 167.13C508.16 167.48 516.51 168.06 520.54 170.46C520.54 170.46 519 160.04 526.54 159.33C534.08 158.62 534 169.39 533.93 170.23C533.86 171.07 538.06 174.39 537.19 175.48C536.32 176.57 533.76 175.88 533.76 175.88C533.76 175.88 538.27 179.75 538.07 181.67C537.88 183.6 534.5 182.99 534.5 182.99C534.5 182.99 538.54 187.16 538.19 188.36C537.83 189.56 536.8 189.27 534.84 188.75C534.84 188.75 538.89 192.25 538.42 194.63C537.95 197 535.41 195.06 535.07 195.02C534.73 194.98 538.7 198.49 538.39 200.85C538.08 203.2 535.61 201.17 535.61 201.17C535.61 201.17 539.99 206.13 539.25 208.28C538.08 209.57 536.49 208.02 536.49 208.02C536.49 208.02 538.26 210.3 539.07 212.29C541.38 211.17 543.85 209.65 546.35 207.57C551.3 204.57 549.72 210 549.72 210C549.72 210 552.4 207.77 553.39 209.85C554.12 211.13 552.19 212.32 552.19 212.32C552.19 212.32 554.6 210.99 555.54 213.33C556.47 215.66 549.67 221.2 544.47 224.81C542.69 226.04 545.85 225.04 545.34 226.64C545.33 226.69 545.34 226.75 545.32 226.8C544.73 227.47 545.46 227.51 544.87 227.41C544.7 227.48 544.53 227.56 544.35 227.63C545.73 229.02 547.95 231.62 547.41 233.54C546.5 234.41 545.53 234.01 544.88 233.52C544.43 233.06 544.09 232.76 544.09 232.76C544.09 232.76 544.4 233.16 544.88 233.52C545.41 234.06 546.12 234.84 546.66 235.68C547.34 236.71 547.77 237.83 547.34 238.68C546.45 240.43 545.03 239.52 544.56 239.15C545.3 239.79 548.51 242.68 547.79 244.67C546.88 245.38 546.07 245.22 545.51 244.91C545.03 244.47 544.68 244.2 544.68 244.2C544.68 244.2 545 244.62 545.51 244.91C546.52 245.83 548.09 247.51 548.23 249.17C548.43 251.63 544.93 249.97 544.93 249.97C544.93 249.97 548.92 252.24 547.64 253.38C546.36 254.52 545.27 253.65 545.27 253.65C545.27 253.65 547.27 256.65 550.86 252.59C554.45 248.53 555.56 240.95 556.3 237.39C557.05 233.83 556.39 221.92 559.77 221.78C561.32 221.71 563.96 225.02 565.29 229.24C566.85 234.2 567.97 241.13 567.93 247.72C566.86 255.55 563.36 270.89 547.57 277.13C546.94 279.36 546.35 280.85 546.35 280.85C538.77 291.17 511.61 287.75 511.89 284.41C512.16 281.07 517.3 281.13 517.3 281.13C517.3 281.13 517.05 280.51 516.87 279.29C516.82 278.98 516.78 278.62 516.75 278.24C516.73 278.02 516.71 277.8 516.7 277.57C516.63 276.22 516.69 274.48 517.02 272.37V272.32C517.05 272.17 517.07 272.03 517.1 271.88C517.52 269.15 518.24 266.03 519.29 262.68C523.76 248.41 515.98 209.19 514.27 200.98C514.07 200 513.95 199.46 513.95 199.46C509.76 200.47 502.31 199.54 499.35 199.11C499.35 199.01 499.34 198.96 499.33 198.98C499.27 199.06 498.28 198.96 496.68 198.72C490.72 197.82 476.17 194.89 468.98 191.46C459.86 187.11 457.38 180.88 458.13 175.05V175.05Z" fill="white"/>
<g id="Group">
<path id="Vector_6" d="M499.82 219.84C499.82 219.84 485.16 213.53 476.38 203.63C471.94 199.92 472.68 205.52 472.68 205.52C472.68 205.52 470.36 202.91 469.08 204.82C468.17 205.98 469.9 207.44 469.9 207.44C469.9 207.44 467.71 205.77 466.44 207.93C465.17 210.1 468.25 214.46 472.85 218.8C477.45 223.14 486.9 228.72 492.19 229.95C492.19 229.95 502.5 226.25 499.82 219.83V219.84Z" fill="white"/>
<path id="Vector_7" d="M499.82 220.84C499.82 220.84 485.16 214.53 476.38 204.63C471.94 200.92 472.68 206.52 472.68 206.52C472.68 206.52 470.36 203.91 469.08 205.82C468.17 206.98 469.9 208.44 469.9 208.44C469.9 208.44 467.71 206.77 466.44 208.93C465.17 211.1 468.25 215.46 472.85 219.8C477.45 224.14 486.9 229.72 492.19 230.95C492.19 230.95 502.5 227.25 499.82 220.83V220.84Z" fill="#7BBFAD"/>
<path id="Vector_8" d="M501.61 279.59C501.61 279.59 512.44 272.62 514.47 264.91C516.5 257.19 507.58 245.47 496.01 252.4C484.44 259.33 482.75 266.11 482.75 266.11C482.75 266.11 478.61 263.06 476.44 265.62C474.27 268.17 489.43 283.56 501.6 279.6L501.61 279.59Z" fill="white"/>
<path id="Vector_9" d="M501.61 280.59C501.61 280.59 512.44 273.62 514.47 265.91C516.5 258.19 507.58 246.47 496.01 253.4C484.44 260.33 482.75 267.11 482.75 267.11C482.75 267.11 478.61 264.06 476.44 266.62C474.27 269.17 489.43 284.56 501.6 280.6L501.61 280.59Z" fill="#7BBFAD"/>
<path id="Vector_10" d="M542.22 227.8L542.41 227.52L542.31 227.66L542.41 227.52L542.39 227.54L542.4 227.52L542.37 227.56L542.38 227.54L542.16 227.75L542.2 227.8H542.22Z" fill="#1E1E1E"/>
<path id="Vector_11" d="M491.27 242.27C491.51 237.16 493.02 227.39 493.02 227.39C493.02 227.39 498.4 202.17 498.35 200.1C501.32 200.54 508.76 201.46 512.95 200.45C512.95 200.45 523.3 247.7 518.29 263.67C517.67 265.65 517.43 267.58 517.34 269.41C517.11 274.09 517.88 278.05 515.86 280.28C496.06 275.72 492.13 261.68 491.59 257.05C491.22 253.88 491 247.93 491.27 242.26V242.27Z" fill="#FFECAD"/>
<path id="Vector_12" d="M457.13 176.05C457.42 173.82 458.39 171.99 459.62 170.78C461.62 168.82 464.32 168.5 466.02 170.83L495.4 169.96C495.4 169.96 494.19 159.26 500.51 158.53C506.83 157.8 507.52 167.78 507.34 168.13C507.16 168.48 515.51 169.06 519.54 171.46C519.54 171.46 518 161.04 525.54 160.33C533.08 159.62 533 170.39 532.93 171.23C532.86 172.07 537.06 175.39 536.19 176.48C535.32 177.57 532.76 176.88 532.76 176.88C532.76 176.88 537.27 180.75 537.07 182.67C536.88 184.6 533.5 183.99 533.5 183.99C533.5 183.99 537.54 188.16 537.19 189.36C536.83 190.56 535.8 190.27 533.84 189.75C533.84 189.75 537.89 193.25 537.42 195.63C536.95 198 534.41 196.06 534.07 196.02C533.73 195.98 537.7 199.49 537.39 201.85C537.08 204.2 534.61 202.17 534.61 202.17C534.61 202.17 538.99 207.13 538.25 209.28C537.08 210.57 535.49 209.02 535.49 209.02C535.49 209.02 537.26 211.3 538.07 213.29C540.38 212.17 542.85 210.65 545.35 208.57C550.3 205.57 548.72 211 548.72 211C548.72 211 551.4 208.77 552.39 210.85C553.12 212.13 551.19 213.32 551.19 213.32C551.19 213.32 553.6 211.99 554.54 214.33C555.47 216.66 548.67 222.2 543.47 225.81C541.69 227.04 544.85 226.04 544.34 227.64C544.33 227.69 544.34 227.75 544.32 227.8C543.73 228.47 544.46 228.51 543.87 228.41C543.7 228.48 543.53 228.56 543.35 228.63C544.73 230.02 546.95 232.62 546.41 234.54C545.5 235.41 544.53 235.01 543.88 234.52C543.43 234.06 543.09 233.76 543.09 233.76C543.09 233.76 543.4 234.16 543.88 234.52C544.41 235.06 545.12 235.84 545.66 236.68C546.34 237.71 546.77 238.83 546.34 239.68C545.45 241.43 544.03 240.52 543.56 240.15C544.3 240.79 547.51 243.68 546.79 245.67C545.88 246.38 545.07 246.22 544.51 245.91C544.03 245.47 543.68 245.2 543.68 245.2C543.68 245.2 544 245.62 544.51 245.91C545.52 246.83 547.09 248.51 547.23 250.17C547.43 252.63 543.93 250.97 543.93 250.97C543.93 250.97 547.92 253.24 546.64 254.38C545.36 255.52 544.27 254.65 544.27 254.65C544.27 254.65 546.27 257.65 549.86 253.59C553.45 249.53 554.56 241.95 555.3 238.39C556.05 234.83 555.39 222.92 558.77 222.78C560.32 222.71 562.96 226.02 564.29 230.24C565.85 235.2 566.97 242.13 566.93 248.72C565.86 256.55 562.36 271.89 546.57 278.13C545.94 280.36 545.35 281.85 545.35 281.85C537.77 292.17 510.61 288.75 510.89 285.41C511.16 282.07 516.3 282.13 516.3 282.13C516.3 282.13 516.05 281.51 515.87 280.29C515.82 279.98 515.78 279.62 515.75 279.24C515.73 279.02 515.71 278.8 515.7 278.57C515.63 277.22 515.69 275.48 516.02 273.37V273.32C516.05 273.17 516.07 273.03 516.1 272.88C516.52 270.15 517.24 267.03 518.29 263.68C522.76 249.41 514.98 210.19 513.27 201.98C513.07 201 512.95 200.46 512.95 200.46C508.76 201.47 501.31 200.54 498.35 200.11C498.35 200.01 498.34 199.96 498.33 199.98C498.27 200.06 497.28 199.96 495.68 199.72C489.72 198.82 475.17 195.89 467.98 192.46C458.86 188.11 456.38 181.88 457.13 176.05V176.05Z" fill="#8DCEBF"/>
<g id="Group_2">
<path id="Vector_13" d="M518.84 167.84C518.77 170.83 520.5 173.3 522.72 173.36C524.94 173.42 526.8 171.03 526.87 168.05C526.95 165.06 525.21 162.59 522.99 162.53C520.77 162.48 518.91 164.86 518.83 167.84H518.84Z" fill="white"/>
<path id="Vector_14" d="M522.8 173.86C524 173.86 525.14 173.26 526 172.15C526.85 171.06 527.34 169.61 527.38 168.06C527.42 166.51 527 165.03 526.21 163.9C525.38 162.73 524.25 162.06 523.01 162.03C520.54 161.97 518.42 164.57 518.34 167.83C518.26 171.09 520.22 173.8 522.71 173.86C522.74 173.86 522.77 173.86 522.8 173.86ZM522.92 163.03C522.92 163.03 522.96 163.03 522.98 163.03C523.89 163.05 524.74 163.57 525.38 164.48C526.05 165.44 526.4 166.7 526.37 168.04C526.34 169.38 525.92 170.62 525.2 171.54C524.51 172.42 523.63 172.88 522.72 172.86C520.78 172.81 519.26 170.57 519.33 167.86C519.4 165.18 521 163.03 522.91 163.03H522.92Z" fill="#3E3A39"/>
</g>
<g id="Group_3">
<path id="Vector_15" d="M493.89 165.38C494.02 168.37 495.93 170.72 498.14 170.62C500.36 170.53 502.05 168.02 501.92 165.03C501.79 162.04 499.89 159.69 497.67 159.79C495.45 159.89 493.76 162.39 493.89 165.38Z" fill="white"/>
<path id="Vector_16" d="M498.01 171.12C498.06 171.12 498.11 171.12 498.17 171.12C499.4 171.07 500.53 170.38 501.33 169.19C502.1 168.05 502.49 166.56 502.43 165.01C502.36 163.46 501.85 162.01 500.98 160.94C500.07 159.82 498.89 159.24 497.66 159.29C495.17 159.4 493.26 162.14 493.4 165.4C493.47 166.95 493.99 168.4 494.86 169.47C495.73 170.54 496.84 171.12 498.02 171.12H498.01ZM497.81 160.29C498.68 160.29 499.53 160.74 500.2 161.57C500.94 162.48 501.37 163.71 501.43 165.05C501.49 166.39 501.16 167.66 500.5 168.63C499.88 169.55 499.03 170.08 498.12 170.12C497.21 170.15 496.32 169.71 495.62 168.84C494.88 167.93 494.45 166.7 494.39 165.36C494.27 162.65 495.76 160.38 497.69 160.3C497.73 160.3 497.76 160.3 497.8 160.3L497.81 160.29Z" fill="#3E3A39"/>
</g>
<path id="Vector_17" d="M468.46 183.1C470.1 182.62 473.64 179.19 471.83 177.16C470.02 175.13 465.09 184.09 468.46 183.1Z" fill="#3E3A39"/>
<path id="Vector_18" d="M462.45 182.74C461 181.84 458.51 177.58 460.79 176.12C463.07 174.65 465.43 184.61 462.45 182.74Z" fill="#3E3A39"/>
<g id="Group_4">
<path id="Vector_19" d="M538.22 259.35C539.55 259.2 540.87 261.21 541.18 263.84C541.49 266.47 540.66 268.73 539.33 268.89C538.01 269.05 536.68 267.03 536.38 264.4C536.07 261.76 536.9 259.51 538.22 259.35Z" fill="#7BBFAD"/>
<path id="Vector_20" d="M531.8 232.13C533.13 231.98 534.45 233.99 534.75 236.62C535.06 239.25 534.23 241.51 532.9 241.67C531.58 241.82 530.25 239.81 529.95 237.18C529.64 234.54 530.47 232.29 531.79 232.13H531.8Z" fill="#7BBFAD"/>
<path id="Vector_21" d="M539.66 244.52C539.47 242.87 539.99 241.45 540.82 241.35C541.65 241.25 542.48 242.51 542.67 244.17C542.86 245.82 542.34 247.24 541.51 247.34C540.68 247.44 539.85 246.18 539.66 244.52Z" fill="#7BBFAD"/>
<path id="Vector_22" d="M534.72 252.87C535.3 252.8 535.88 253.68 536.01 254.83C536.14 255.98 535.78 256.97 535.2 257.04C534.62 257.11 534.04 256.23 533.91 255.08C533.78 253.93 534.14 252.94 534.72 252.87Z" fill="#7BBFAD"/>
<path id="Vector_23" d="M538.11 239.36C537.53 239.43 536.95 238.55 536.82 237.4C536.69 236.25 537.05 235.26 537.63 235.19C538.21 235.12 538.79 236 538.92 237.15C539.05 238.3 538.69 239.29 538.11 239.36Z" fill="#7BBFAD"/>
<path id="Vector_24" d="M544.68 259.69C545.26 259.62 545.84 260.5 545.97 261.65C546.1 262.8 545.74 263.79 545.16 263.85C544.58 263.92 544 263.04 543.87 261.89C543.74 260.74 544.1 259.75 544.68 259.68V259.69Z" fill="#7BBFAD"/>
</g>
<g id="Group_5">
<path id="Vector_25" d="M511.6 248.15C511.4 248.21 508.67 248.96 505.17 248.96C502.3 248.96 498.92 248.45 496.01 246.63C495.78 246.48 495.7 246.18 495.85 245.94C496 245.71 496.3 245.63 496.54 245.78C502.63 249.59 511.24 247.21 511.32 247.18C511.58 247.1 511.86 247.26 511.94 247.52C512.02 247.79 511.86 248.06 511.6 248.14V248.15Z" fill="white"/>
<path id="Vector_26" d="M513.66 254.52C513.43 254.59 510.28 255.46 506.25 255.46C502.95 255.46 499.06 254.87 495.7 252.77C495.47 252.62 495.4 252.32 495.54 252.08C495.69 251.85 495.99 251.77 496.23 251.92C503.3 256.34 513.29 253.58 513.39 253.55C513.66 253.48 513.93 253.63 514.01 253.89C514.09 254.16 513.93 254.43 513.67 254.51L513.66 254.52Z" fill="white"/>
<path id="Vector_27" d="M493.73 259.31C493.86 259.07 494.16 258.97 494.41 259.1C502.65 263.43 514.35 260.61 514.46 260.58C514.73 260.52 515 260.68 515.07 260.94C515.14 261.21 514.97 261.48 514.71 261.55C514.43 261.62 510.64 262.54 505.86 262.54C502.1 262.54 497.73 261.97 493.96 259.99C493.72 259.86 493.62 259.56 493.75 259.31H493.73Z" fill="white"/>
</g>
<path id="Vector_28" d="M481.7 196.92C481.7 196.92 480.06 190.48 485.17 188.58C492.89 185.7 497.26 187.19 507.93 182.93C518.6 178.67 523.73 190.67 520.41 196.1C515.45 204.23 498.27 203.28 481.7 196.92Z" fill="#3E3A39"/>
<path id="Vector_29" d="M520.625 169.269C519.946 169.252 519.415 168.454 519.439 167.488C519.463 166.522 520.034 165.753 520.713 165.77C521.392 165.787 521.923 166.584 521.898 167.55C521.874 168.516 521.304 169.286 520.625 169.269Z" fill="#3E3A39"/>
<path id="Vector_30" d="M495.841 165.337C495.162 165.32 494.631 164.523 494.656 163.557C494.68 162.591 495.25 161.821 495.929 161.838C496.608 161.855 497.139 162.652 497.115 163.619C497.091 164.585 496.52 165.354 495.841 165.337Z" fill="#3E3A39"/>
<path id="Vector_31" d="M528.7 159.68C528.7 159.68 528.78 159.68 528.82 159.66C529.09 159.59 529.25 159.32 529.18 159.06C529.17 159.02 528.12 155.02 523.02 155.98C522.75 156.03 522.57 156.29 522.62 156.56C522.67 156.83 522.93 157.01 523.2 156.96C527.34 156.19 528.17 159.17 528.2 159.3C528.26 159.53 528.46 159.68 528.68 159.68H528.7Z" fill="#3E3A39"/>
<path id="Vector_32" d="M501.64 155.89C501.73 155.89 501.82 155.87 501.9 155.81C502.13 155.66 502.21 155.36 502.06 155.12C502.04 155.08 499.81 151.6 495.26 154.07C495.02 154.2 494.93 154.51 495.06 154.75C495.19 154.99 495.5 155.08 495.74 154.95C499.45 152.94 501.15 155.54 501.22 155.65C501.32 155.8 501.48 155.88 501.64 155.88V155.89Z" fill="#3E3A39"/>
</g>
<path id="Vector_33" d="M462.546 153.33L464.471 156.166L464.472 156.167C464.855 156.734 464.707 157.514 464.14 157.9C463.919 158.052 463.669 158.117 463.437 158.117H463.407C462.997 158.117 462.619 157.912 462.381 157.578L462.38 157.578L462.374 157.568L458.714 152.178C458.429 151.76 458.429 151.199 458.711 150.78C459 150.342 459.517 150.149 460.006 150.247L460.01 150.248L465.578 151.41L463.783 146.025C463.615 145.52 463.787 144.988 464.177 144.663L464.177 144.663L464.187 144.655C464.584 144.341 465.148 144.288 465.601 144.556C465.602 144.557 465.602 144.557 465.602 144.557L471.988 148.303L472.721 142.595C472.721 142.595 472.721 142.594 472.721 142.594C472.788 142.065 473.185 141.63 473.718 141.527C474.256 141.413 474.788 141.668 475.052 142.129L475.052 142.129L478.53 148.226L482.669 143.143C483.007 142.722 483.574 142.576 484.07 142.758C484.579 142.945 484.887 143.431 484.887 143.947H484.888L484.887 143.956L484.737 152.142C484.735 152.861 484.126 153.377 483.477 153.377C482.76 153.377 482.237 152.781 482.237 152.117H482.237L482.238 152.108L482.321 147.534L479.317 151.22C479.057 151.547 478.653 151.708 478.248 151.675C477.823 151.642 477.46 151.39 477.263 151.045L477.263 151.045L474.733 146.611L474.234 150.489C474.184 150.899 473.934 151.271 473.543 151.458C473.165 151.639 472.729 151.623 472.364 151.408C472.364 151.408 472.363 151.408 472.363 151.408L467.223 148.392L468.651 152.677C468.8 153.11 468.698 153.579 468.399 153.912C468.102 154.241 467.656 154.391 467.223 154.308L467.223 154.308L467.215 154.306L462.546 153.33Z" fill="#3E3A39" stroke="white"/>
<path id="Vector_34" d="M515.97 199.9C515.97 199.9 515.92 194.64 507.07 197.28C498.22 199.92 496.99 197.17 494.22 196.04C491.45 194.91 489.51 197.75 491.14 199.91C491.14 199.91 506.89 204.24 515.96 199.91L515.97 199.9Z" fill="#FE7D7B"/>
<g id="Group 1">
<path id="Vector_35" d="M599.27 264.54C601.076 264.54 602.54 263.076 602.54 261.27C602.54 259.464 601.076 258 599.27 258C597.464 258 596 259.464 596 261.27C596 263.076 597.464 264.54 599.27 264.54Z" fill="#F5F5F5"/>
<path id="Vector_36" d="M694.17 287.52H693.67" stroke="#F5F5F5" stroke-width="2" stroke-linecap="round" stroke-linejoin="round"/>
<path id="Vector_37" d="M689.74 287.52H627.76" stroke="#F5F5F5" stroke-width="2" stroke-linecap="round" stroke-linejoin="round" stroke-dasharray="0.98 3.94"/>
<path id="Vector_38" d="M625.79 287.52H625.29L624.94 287.16" stroke="#F5F5F5" stroke-width="2" stroke-linecap="round" stroke-linejoin="round"/>
<path id="Vector_39" d="M622.03 284.16L601.64 263.13" stroke="#F5F5F5" stroke-width="2" stroke-linecap="round" stroke-linejoin="round" stroke-dasharray="1.05 4.18"/>
<path id="&#232;&#183;&#175;&#228;&#186;&#186;" d="M661.88 277.03V279.09H668.18V277.03H661.88ZM662.74 262.93V264.97H667.82V262.93H662.74ZM660.9 272.35V279.75H663.1V274.37H666.88V279.69H669.16V272.35H660.9ZM666.98 262.93V263.31C665.86 267.23 662.7 270.29 659.08 271.61C659.56 272.05 660.16 272.87 660.44 273.43C664.5 271.71 667.88 268.51 669.34 263.49L667.82 262.85L667.4 262.93H666.98ZM662.82 261.01C662.12 263.33 660.8 265.57 659.24 266.97C659.78 267.31 660.7 268.09 661.1 268.51C662.72 266.87 664.2 264.27 665.1 261.57L662.82 261.01ZM662.88 264.05L661.26 265.09C662.48 268.05 665.1 271.55 669.22 273.15C669.54 272.53 670.22 271.59 670.7 271.13C666.62 269.85 664.02 266.75 662.88 264.05ZM652.4 269.85V277.13H654.36V269.85H652.4ZM654.64 263.83H657.28V266.37H654.64V263.83ZM652.56 261.77V268.43H659.48V261.77H652.56ZM655.36 267.59V276.53H657.48V267.59H655.36ZM651.52 276.75L651.92 279.05C654.2 278.53 657.24 277.81 660.06 277.11L659.84 274.99C656.84 275.67 653.64 276.37 651.52 276.75ZM656.2 270.77V272.87H659.68V270.77H656.2ZM679.32 261.51C679.18 264.13 679.46 273.27 671.42 277.73C672.24 278.29 673.02 279.03 673.44 279.65C681.62 274.63 681.88 264.87 682.06 261.51H679.32ZM681.98 262.03L679.66 262.27C679.82 264.33 680.2 275.35 688.82 279.63C689.18 278.97 689.9 278.17 690.66 277.59C682.46 273.75 682.04 263.77 681.98 262.03Z" fill="#F5F5F5"/>
</g>
</g>
</g>
</svg>
