<?xml version="1.0" encoding="UTF-8"?><svg id="_圖層_1" xmlns="http://www.w3.org/2000/svg" viewBox="0 0 56.69 56.69"><defs><style>.cls-1{fill:#fff;}.cls-2{fill:none;stroke:#fff;stroke-miterlimit:10;stroke-width:.58px;}</style></defs><circle class="cls-2" cx="28.49" cy="28.59" r="19.99"/><g><path class="cls-1" d="M29.43,2.86l-.5-.04-.07,.91c.1-.03,.23-.07,.4-.13v.52c-.15,.06-.3,.11-.44,.16l-.11,1.56c0,.14-.07,.25-.17,.35-.11,.09-.39,.11-.84,.06l-.12-.52c.18,.02,.35,.04,.51,.05,.09,0,.14-.03,.14-.12l.09-1.2c-.25,.08-.44,.13-.59,.17l-.05-.51c.18-.04,.41-.1,.68-.18l.08-1.12-.64-.05,.04-.49,.64,.05,.07-1.05,.5,.04-.07,1.05,.5,.04-.04,.49Zm3.18,3.37l-.31,.41c-.41-.27-.82-.51-1.23-.72-.5,.27-1.06,.43-1.68,.48l-.22-.46c.53-.04,.97-.14,1.33-.29-.23-.12-.52-.25-.87-.39,.19-.26,.33-.46,.41-.6l-.66-.05,.03-.48,.91,.07c.1-.15,.19-.31,.28-.48l.48,.17c-.06,.13-.12,.25-.19,.35l.77,.06c.05-.11,.09-.21,.11-.3l.47,.12c-.02,.08-.05,.15-.07,.21l.54,.04-.03,.48-.71-.05c-.18,.34-.35,.6-.53,.78,.27,.14,.65,.36,1.14,.64Zm.17-2.45l-3.32-.24,.03-.47,.86,.06c-.02-.11-.11-.37-.25-.77l-.43-.03,.03-.47,1.24,.09c-.06-.15-.12-.29-.19-.41l.52-.12c.08,.15,.17,.34,.26,.57l1.25,.09-.03,.47-.41-.03c-.1,.24-.21,.48-.32,.73l.8,.06-.03,.47Zm-1.32,.98l-.83-.06c-.11,.16-.19,.28-.25,.35,.27,.12,.49,.22,.64,.3,.15-.15,.29-.35,.44-.59Zm.35-2.28l-1.16-.08c.11,.32,.19,.58,.24,.77l.6,.04c.14-.27,.25-.52,.32-.73Z"/><path class="cls-1" d="M38.06,7.55l-2.15-.71-.24,.72-.49-.16,.24-.72-2.15-.71,.14-.42,2.15,.71,.1-.3-1.65-.54,.6-1.83,3.79,1.25-.6,1.83-1.66-.55-.1,.3,2.15,.71-.14,.42Zm-1.68-3.69l-1.87-.62,.38-1.16,1.87,.61-.38,1.16Zm-.59,1.7l.11-.32-1.16-.38-.11,.32,1.16,.38Zm.23-.7l.11-.33-1.16-.38-.11,.32,1.16,.38Zm.01-1.57l.11-.34-.9-.3-.11,.34,.9,.3Zm1.42,2.82l.11-.32-1.17-.39-.11,.32,1.17,.39Zm.23-.7l.11-.32-1.17-.39-.11,.33,1.17,.39Zm.98-.8l-1.84-.61,.38-1.16,1.84,.61-.38,1.16Zm-.34-.56l.11-.34-.88-.29-.11,.34,.88,.29Z"/><path class="cls-1" d="M40.48,8.37c-.59-.02-1.23-.07-1.92-.14l.12-.5,.78,.08,.78-1.23-.48-.31,.25-.4,.49,.31,.6-.94-.57-.37,.26-.42,1.53,.97-.26,.41-.52-.33-.6,.94,.49,.31-.25,.4-.49-.31-.63,.99c.29,.03,.53,.05,.7,.05l-.26,.47Zm2.6,1.98c-.23,.32-.42,.51-.57,.57s-.37,0-.66-.19c-.22-.14-.35-.27-.38-.39s.02-.29,.16-.5l.55-.86-.39-.25c-.51,.79-1.27,1-2.27,.61l.03-.52c.44,.17,.81,.23,1.09,.18s.52-.24,.71-.55l-.44-.28,1.73-2.72,2.3,1.46-1.73,2.72-.61-.39-.55,.87c-.03,.05-.03,.09,0,.13,.03,.03,.07,.06,.13,.1,.08,.05,.15,.07,.2,.04,.05-.02,.18-.17,.37-.44l.33,.42Zm-.05-1.4l.25-.39-1.44-.92-.25,.39,1.44,.92Zm.49-.78l.26-.4-1.44-.92-.26,.4,1.44,.92Zm.5-.78l.23-.36-1.44-.92-.23,.36,1.44,.92Z"/><path class="cls-1" d="M44.92,12.17l-.51-.08c.08-.19,.16-.46,.24-.8-.57,.27-1.11,.43-1.62,.47l.07-.51c.84-.08,1.6-.45,2.31-1.11l1.65-1.56,.33,.35-.84,.79c.12-.03,.28-.08,.48-.16l.12,.47c-.44,.16-.87,.27-1.29,.34-.34,.31-.57,.51-.68,.58-.06,.49-.15,.9-.26,1.22Zm1.03,.74c-.68,.07-1.27,.06-1.78-.01l-.02-.52c.54,.08,1.11,.08,1.72,.02l.08,.52Zm-.71-2.75l-.44-.16c.27-.33,.55-.72,.83-1.16l.43,.16c-.22,.38-.5,.76-.82,1.17Zm2.33,3.84l-2.27-2.4,.34-.32,.52,.56,.98-.93-.37-.4,.33-.32,.38,.4,.77-.73,.35,.37-.77,.73,.56,.59,.77-.73,.34,.36-.77,.73,.41,.43-.33,.32-.41-.43-.98,.93,.49,.52-.34,.32Zm-1.02,1.03l-.53-.09c.11-.39,.17-.94,.19-1.64l.51,.09c0,.64-.07,1.18-.18,1.64Zm.52-2.24l.98-.93-.55-.58-.98,.93,.55,.58Z"/><path class="cls-1" d="M50.3,18.3l-.47-.98-1.75,.84-.22-.46,1.75-.84-.46-.96,.43-.21,.46,.96,.41-.2-.44-.91,.42-.2,.25,.51c.15-.13,.31-.3,.49-.51l.31,.23-.29-.6,.42-.2,.4,.84c.08-.08,.16-.18,.24-.31l.35,.44c-.13,.18-.25,.31-.34,.4l.42,.88-.42,.2-.27-.57-.02,.41c-.25,.02-.48,.02-.71,.01l.25,.51-.42,.2-.43-.9-.41,.2,.47,.98-.43,.21Zm-1.08-1.4c-.53,.05-.96,.05-1.29,0l.1-.51c.34,.06,.74,.06,1.18,.02v.5Zm2.93,3.15l-.23-.47-2.55,1.23-.22-.45,2.55-1.23-.25-.53c-1.2,.56-2.14,.77-2.85,.63l.13-.53c.62,.12,1.4-.05,2.35-.5l1.79-.86c.36,.55,.73,.97,1.1,1.29l-.23,.51c-.35-.3-.69-.68-1.03-1.14l-.8,.38,.7,1.46-.45,.22Zm-2.72-1.44l-.4-.27c.24-.21,.44-.45,.62-.71l.36,.3c-.2,.29-.39,.52-.59,.68Zm2.53-2.05l-.41-.85c-.2,.24-.41,.45-.63,.64l.13,.28c.29,0,.59-.02,.9-.07Z"/><path class="cls-1" d="M51.03,22.19c-.49,.02-.92,0-1.29-.06l.1-.45c.42,.06,.82,.08,1.21,.07l-.02,.44Zm-.96,.79l-.14-.41c.38-.07,.74-.17,1.09-.3l.11,.37c-.34,.14-.7,.25-1.06,.33Zm.25,.67l-.17-.39c.35-.13,.68-.28,.97-.44l.17,.38c-.3,.17-.63,.32-.97,.46Zm1.57,2.81l-.2-.98-1.15,.23-.1-.49,1.15-.23-.2-.99,.47-.09,.2,.99,.66-.13-.17-.85,.46-.09,.17,.85,.6-.12-.19-.92,.47-.09,.48,2.36-.47,.09-.19-.95-.6,.12,.17,.82-.46,.09-.17-.82-.66,.13,.2,.98-.47,.09Zm-1.22-2.23l-.2-.34c.28-.15,.55-.32,.81-.51l.16,.36c-.28,.2-.53,.37-.76,.49Zm.93-.45l-.41-2.05,1.91-.39s-.09-.06-.14-.11l.41-.29c.44,.37,.96,.63,1.57,.78l-.02,.48c-.12-.02-.23-.05-.35-.09l.17,.85-.44,.09c-.17-.08-.32-.16-.46-.24l.1,.49-2.35,.47Zm.19-1.33l.53-.11-.07-.36-.53,.11,.07,.36Zm.16,.79l.53-.11-.07-.36-.53,.11,.07,.36Zm.79-.98l.52-.1-.07-.36-.52,.11,.07,.36Zm.16,.79l.52-.1-.07-.36-.52,.11,.07,.36Zm1.29-.61l-.1-.49c-.08-.03-.24-.11-.46-.23l.1,.48c.2,.1,.35,.18,.46,.23Zm.36,2.01l-.31-.4c.31-.22,.59-.47,.84-.72l.28,.4c-.2,.23-.47,.47-.81,.72Zm1.03,1.2c-.42-.09-.78-.21-1.09-.36l.12-.49c.3,.14,.64,.25,1.05,.35l-.07,.49Z"/><path class="cls-1" d="M50.61,32.22l.23-5.06,.44,.02-.04,.84,3.21,.15-.06,1.2c.11,.06,.24,.12,.37,.16l.1-2.12,.46,.02-.1,2.27c.17,.07,.34,.13,.53,.18l-.13,.49c-.18-.05-.32-.1-.42-.14l-.1,2.1-.46-.02,.1-2.24c-.1-.04-.23-.09-.37-.16l-.07,1.62-3.21-.15-.04,.85-.44-.02Zm.5-1.32l.39,.02,.11-2.36-.39-.02-.11,2.36Zm.8,.04l.4,.02,.11-2.36-.4-.02-.11,2.36Zm.81,.04l.38,.02,.11-2.36-.38-.02-.11,2.36Zm.8,.04l.36,.02,.11-2.36-.36-.02-.11,2.36Z"/><path class="cls-1" d="M49.51,37.67l-.41-.3c.18-.64,.38-1.3,.58-1.98,.25-.84,.63-1.39,1.12-1.67-.19-.23-.36-.48-.52-.75l.44-.3c.35,.62,.78,1.09,1.31,1.41l.25-.81,.47,.14c.18,.31,.43,.65,.74,1.01l.24-.81,.44,.13-.42,1.39-.44-.13c-.29-.33-.55-.65-.77-.98l-.22,.72-.45-.14c-.27-.18-.51-.36-.73-.55-.19,.09-.35,.22-.49,.38-.14,.17-.25,.36-.34,.56-.09,.2-.21,.58-.38,1.13-.15,.5-.3,1.02-.43,1.54Zm.54,.15l.42-1.4-.44-.13,.15-.5,.44,.13,.43-1.43,.42,.13-.43,1.43,.28,.08,.36-1.21,.39,.12-.36,1.21,.29,.09,.4-1.32,.41,.12-.22,.73c.14-.01,.3-.03,.48-.07l.19-.61,.42,.13-.42,1.39,.35,.11,.38-1.26,.41,.12-.38,1.26,.38,.11-.15,.49-.38-.11-.37,1.23-.41-.12,.37-1.22-.35-.11-.43,1.41-.42-.13,.18-.6c-.14-.11-.26-.22-.36-.32l-.21,.69-.41-.12,.39-1.29-.29-.09-.36,1.18-.39-.12,.36-1.18-.28-.08-.42,1.4-.42-.13Zm2.56-.46l.32-1.05c-.15,.03-.31,.05-.48,.06l-.2,.68c.13,.12,.25,.22,.37,.31Zm1.62-2.1l-.23-.46c.38-.2,.71-.41,.98-.66l.25,.44c-.3,.26-.63,.48-1,.67Z"/><path class="cls-1" d="M45.5,43.65l-.19-.47c.44-.22,.86-.45,1.25-.69,.02-.57,.18-1.13,.45-1.69l.51,.05c-.23,.47-.38,.9-.44,1.29,.22-.13,.48-.32,.78-.54,.13,.3,.23,.52,.3,.66l.38-.54,.39,.28-.52,.75c.08,.16,.17,.32,.27,.49l-.4,.32c-.08-.12-.15-.23-.2-.34l-.44,.64c.07,.1,.13,.19,.19,.25l-.34,.34c-.06-.06-.11-.12-.15-.17l-.31,.44-.39-.28,.41-.58c-.2-.32-.33-.61-.4-.85-.26,.16-.64,.37-1.14,.65Zm1.85-.24l.48-.68c-.09-.18-.14-.31-.17-.39-.25,.17-.44,.3-.59,.4,.05,.2,.15,.43,.28,.68Zm.16,1.64l1.91-2.73,.38,.27-.5,.71c.1,.04,.37,.1,.79,.18l.25-.35,.39,.27-.71,1.02c.16,.03,.31,.04,.45,.04l-.16,.51c-.17,0-.38-.03-.62-.07l-.72,1.02-.39-.27,.24-.34c-.15-.21-.31-.43-.46-.65l-.46,.65-.38-.27Zm2.51-2.4l.29-.41-.75-.52c-.03,.1-.06,.23-.09,.41l-.44-.27c.03-.16,.06-.31,.09-.46l-1.28-.89c-.11-.08-.18-.19-.21-.33-.02-.14,.1-.39,.38-.75l.51,.16c-.11,.15-.21,.29-.3,.41-.05,.07-.04,.13,.03,.19l.99,.69c.06-.25,.11-.45,.16-.6l.46,.22c-.06,.18-.12,.4-.19,.68l.92,.65,.37-.53,.4,.28-.37,.53,.86,.6-.29,.41-.86-.6-.29,.41-.4-.28Zm-.9,2.23l.67-.95c-.33-.07-.59-.14-.79-.19l-.34,.49c.16,.26,.32,.48,.46,.65Z"/><path class="cls-1" d="M41.57,47.64l1.71-1.49-.49-.57,.39-.34,.49,.57,1.71-1.48,.29,.33-1.71,1.48,.21,.24,1.31-1.14,1.26,1.45-3.01,2.62-1.26-1.45,1.32-1.15-.21-.24-1.71,1.49-.29-.33Zm1.55,.21l.22,.26,.93-.81-.22-.26-.93,.81Zm.48,.56l.22,.26,.93-.81-.22-.26-.93,.81Zm.19,1.25l1.47-1.27,.8,.92-1.47,1.27-.8-.92Zm.65-2.95l.22,.26,.92-.8-.22-.26-.92,.8Zm.01,2.95l.23,.27,.7-.61-.23-.27-.7,.61Zm.47-2.39l.22,.26,.92-.8-.22-.26-.92,.8Zm.68,.82l1.48-1.29,.8,.92-1.48,1.29-.8-.92Zm.67-.01l.23,.27,.72-.62-.23-.27-.72,.62Z"/><path class="cls-1" d="M36.61,50.53c-.16-.36-.23-.62-.2-.78s.2-.31,.5-.47c.24-.12,.42-.16,.54-.13,.12,.03,.24,.16,.35,.39l.46,.91,.41-.21c-.42-.84-.21-1.6,.63-2.26l.43,.29c-.38,.29-.61,.58-.71,.85s-.06,.57,.11,.89l.47-.24,1.46,2.87-2.43,1.23-1.46-2.87,.64-.32-.46-.92c-.03-.06-.06-.08-.11-.07-.04,.01-.09,.03-.15,.06-.09,.04-.13,.09-.14,.15,0,.06,.06,.24,.19,.54l-.53,.07Zm1.23,.67l.21,.42,1.52-.77-.21-.42-1.52,.77Zm.42,.82l.22,.42,1.52-.77-.22-.42-1.52,.77Zm.42,.83l.19,.38,1.52-.77-.19-.38-1.52,.77Zm.96-3.54c.32-.5,.68-1.03,1.1-1.58l.37,.36-.47,.63,.66,1.3,.51-.26,.21,.42-.51,.26,.51,1,.61-.31,.22,.44-1.61,.82-.22-.44,.55-.28-.51-1-.52,.26-.21-.42,.52-.26-.53-1.05c-.18,.24-.31,.43-.4,.58l-.27-.47Z"/><path class="cls-1" d="M30.81,51.13l.35-.41c.28,.29,.72,.63,1.31,1.01l-.34,.39c-.54-.33-.98-.66-1.32-.99Zm.36,1.41l3.23-.72,.1,.45-.75,.17,.29,1.32,.53-.12,.1,.45-.53,.12,.23,1.03-.5,.11-.23-1.03-.79,.18,.23,1.03-.49,.11-.23-1.03-.58,.13-.1-.45,.58-.13-.29-1.32-.7,.16-.1-.45Zm1.29,.19l.29,1.32,.78-.17-.29-1.32-.78,.17Zm.47-1.03c.29-.62,.6-1.13,.92-1.52l.46,.25c-.34,.42-.64,.91-.9,1.47l-.48-.2Zm1.16-.51l.33-.4c.13,.16,.31,.37,.56,.62,.06-.63,.2-1.17,.43-1.63l.41,.32c-.36,.76-.44,1.61-.23,2.55l.49,2.21-.48,.11-.25-1.12c-.04,.12-.07,.29-.1,.49l-.47-.14c.09-.46,.21-.89,.37-1.28-.1-.45-.15-.75-.15-.89-.39-.31-.69-.59-.91-.85Zm1.56,1.31l.37-.3c.14,.4,.33,.84,.58,1.31l-.36,.29c-.21-.38-.4-.82-.58-1.3Z"/><path class="cls-1" d="M23.49,53.32l.52,.05,.27-2.82,.5,.05-.27,2.82,.58,.06c.14-1.31,.45-2.24,.93-2.76l.39,.38c-.42,.47-.69,1.23-.78,2.27l-.19,1.98c-.65,.03-1.21,.12-1.67,.27l-.31-.46c.44-.14,.94-.24,1.51-.3l.08-.89-1.61-.15,.05-.5Zm2.45-.68l1.08,.1,.18-1.93,.51,.05-.18,1.93,1.06,.1-.05,.48-1.06-.1-.04,.45,1,.1-.04,.46-.57-.05c.04,.19,.1,.42,.18,.68l-.36,.14,.66,.06-.04,.46-.92-.09c.03,.11,.07,.24,.14,.37l-.56,.07c-.08-.21-.14-.37-.17-.49l-.97-.09,.04-.46,.63,.06-.34-.23c.11-.22,.23-.43,.35-.61l-.57-.05,.04-.46,.99,.1,.04-.45-1.08-.1,.05-.48Zm.19-.91l.44-.2c.06,.31,.16,.61,.29,.9l-.45,.16c-.15-.32-.24-.6-.28-.86Zm.45,3.22l.94,.09c-.1-.3-.18-.59-.22-.87l-.31-.03c-.15,.25-.29,.52-.41,.81Zm1.12-2.51c.23-.48,.46-.85,.67-1.1l.38,.35c-.23,.26-.44,.6-.63,1l-.43-.25Z"/><path class="cls-1" d="M16.98,53.38c.29-.31,.58-.56,.87-.75l.36,.35c-.27,.18-.55,.42-.84,.72l-.39-.31Zm1.2-3.57l.94,.34,.39-1.11,.47,.17-.39,1.11,.95,.34-.16,.45-.95-.34-.22,.63,.82,.29-.16,.44-.82-.29-.2,.57,.89,.31-.16,.45-2.27-.81,.16-.45,.91,.32,.2-.57-.79-.28,.16-.44,.79,.28,.22-.63-.94-.34,.16-.45Zm.36,3.3l.5-.06c.03,.38,.1,.75,.19,1.09l-.49,.04c-.1-.29-.16-.65-.2-1.07Zm2.09-2.18l1.97,.7-.65,1.84s.1-.05,.16-.07l.04,.51c-.55,.19-1.04,.5-1.47,.94l-.4-.27c.08-.09,.16-.17,.26-.25l-.82-.29,.15-.42c.15-.1,.3-.19,.45-.27l-.47-.17,.8-2.26Zm-.04,1.48l-.18,.5,.34,.12,.18-.5-.34-.12Zm-.14,1.42l.47,.17c.07-.06,.21-.15,.43-.28l-.46-.17c-.19,.12-.34,.21-.43,.28Zm.27-3.93h.39c-.01,.31,0,.63,.02,.95l-.39-.05c-.03-.34-.04-.64-.03-.91Zm.2,1.6l-.18,.51,.34,.12,.18-.51-.34-.12Zm.43,1.18l-.18,.5,.34,.12,.18-.5-.34-.12Zm.05-2.77l.42,.06c-.07,.37-.11,.72-.12,1.06l-.41-.05c0-.35,.04-.7,.11-1.07Zm.27,1.86l-.18,.51,.34,.12,.18-.51-.34-.12Zm.42-1.73l.42,.09c-.13,.36-.23,.72-.3,1.08l-.38-.1c.06-.37,.15-.72,.26-1.08Zm.18,1.23c.24-.43,.48-.79,.71-1.07l.33,.32c-.27,.33-.49,.66-.68,1l-.37-.24Z"/><path class="cls-1" d="M13.86,45.71l4.2,2.82-.24,.36-.7-.47-1.79,2.67-1-.67c-.11,.07-.22,.14-.33,.23l1.76,1.18-.25,.38-1.89-1.27c-.14,.11-.28,.23-.43,.36l-.35-.37c.13-.13,.25-.22,.34-.28l-1.74-1.17,.25-.38,1.86,1.25c.09-.07,.19-.15,.32-.23l-1.35-.9,1.79-2.67-.7-.47,.24-.36Zm-.47,3.11l-.2,.3,1.96,1.31,.2-.3-1.96-1.31Zm.45-.66l-.21,.32,1.96,1.31,.21-.32-1.96-1.31Zm.45-.67l-.22,.33,1.96,1.31,.22-.33-1.96-1.31Zm.44-.66l-.22,.32,1.96,1.31,.22-.32-1.96-1.31Z"/><path class="cls-1" d="M9.38,42.35l.98,1.09,.34-.31,.35,.39-.34,.31,1,1.11-.33,.29-1-1.11-.22,.19,.84,.94-.3,.28-.84-.94-.22,.2,.92,1.02-.32,.29-.51-.57c-.07,.13-.13,.28-.19,.45l.43,.48-.32,.29-.97-1.08-.28,.25,.89,.98-.32,.29-.89-.98-.29,.26-.34-.38,.29-.26-.86-.95,.32-.29,.86,.95,.28-.25-.99-1.09,.32-.29,.42,.46c.17-.06,.32-.11,.46-.14l-.48-.53,.32-.29,.9,1,.22-.2-.83-.92,.3-.28,.83,.92,.22-.2-.98-1.09,.33-.29Zm-.93,2.42l.73,.81c.05-.15,.12-.29,.19-.44l-.47-.52c-.17,.05-.32,.1-.45,.16Zm.96,2.48l.51,.04c-.03,.43-.01,.82,.06,1.18l-.51-.02c-.06-.39-.08-.79-.06-1.2Zm.37-5.29l.47-.19c.46,.49,.92,.99,1.4,1.52,.59,.65,.87,1.26,.85,1.82,.3-.04,.6-.06,.91-.06l.03,.53c-.71-.02-1.34,.11-1.89,.39l.57,.63-.36,.33c-.36,0-.77,.03-1.24,.12l.56,.62-.34,.31-.97-1.08,.34-.31c.43-.08,.84-.13,1.24-.15l-.5-.55,.35-.31c.29-.14,.58-.25,.85-.34,.02-.2,0-.41-.08-.61s-.18-.4-.31-.58c-.13-.18-.39-.48-.77-.91-.35-.39-.72-.78-1.09-1.17Z"/><path class="cls-1" d="M4.47,36.44l1.35,3.04-.43,.19-.35-.79c-.08,.07-.27,.27-.56,.59l.17,.39-.43,.19-.5-1.13c-.11,.12-.2,.24-.27,.36l-.35-.4c.1-.15,.22-.31,.38-.5l-.51-1.14,.43-.19,.17,.38c.26-.02,.52-.04,.8-.06l-.32-.73,.43-.19Zm-.69,1.47l.47,1.06c.23-.24,.42-.44,.57-.58l-.24-.55c-.31,0-.57,.02-.8,.06Zm1.45,1.92l.2,.46,.83-.37c-.07-.07-.17-.17-.31-.29l.46-.24c.12,.11,.24,.21,.35,.31l1.42-.63c.13-.06,.26-.06,.39,0,.13,.05,.28,.29,.45,.72l-.4,.35c-.07-.17-.13-.33-.2-.47-.04-.08-.09-.1-.18-.07l-1.1,.49c.19,.18,.33,.33,.43,.44l-.43,.29c-.12-.14-.28-.31-.48-.52l-1.03,.46,.26,.59-.45,.2-.26-.59-.96,.43-.2-.46,.96-.43-.2-.46,.45-.2Zm1.47-4.39l.51,.08c-.04,.49-.06,.96-.05,1.43,.47,.31,.88,.73,1.21,1.26l-.31,.41c-.28-.44-.58-.79-.88-1.04,0,.25,.03,.57,.07,.95-.32-.04-.56-.07-.72-.08l.27,.6-.44,.2-.37-.84c-.18-.02-.36-.02-.55-.02l-.07-.51c.14,0,.28,0,.4,0l-.31-.71c-.12,0-.23,.02-.31,.04l-.11-.47c.09-.02,.16-.03,.22-.04l-.22-.5,.44-.2,.29,.65c.38,0,.7,.03,.94,.1,0-.3,.01-.74,.03-1.31Zm-.75,1.7l.34,.76c.2,.02,.34,.04,.42,.05-.02-.3-.03-.53-.04-.71-.2-.06-.44-.1-.73-.11Z"/><path class="cls-1" d="M2.45,30.86l.33,1.91-1.2,.21-.33-1.91,1.2-.21Zm.41,2.37l.33,1.94-1.2,.21-.33-1.94,1.2-.21Zm-.74-1.8l-.35,.06,.16,.91,.35-.06-.16-.91Zm.41,2.37l-.35,.06,.16,.94,.35-.06-.16-.94Zm2.8-3.79l.38,2.23,.74-.13,.09,.51-.74,.13,.38,2.23-.43,.07-.38-2.23-.31,.05,.29,1.71-1.9,.33-.68-3.94,1.9-.33,.3,1.72,.31-.05-.38-2.24,.43-.07Zm-1.71,1.34l-.34,.06,.21,1.22,.34-.06-.21-1.22Zm.3,1.73l-.34,.06,.21,1.2,.34-.06-.21-1.21Zm.43-1.85l-.33,.06,.21,1.22,.33-.06-.21-1.22Zm.3,1.73l-.33,.06,.21,1.2,.34-.06-.21-1.21Z"/><path class="cls-1" d="M5.43,24.27c.39,.05,.65,.13,.77,.23s.17,.33,.14,.67c-.02,.27-.07,.44-.17,.53s-.26,.12-.52,.1l-1.01-.08-.03,.46c.94,.08,1.48,.64,1.61,1.71l-.47,.21c-.06-.47-.18-.82-.36-1.04s-.46-.34-.82-.37l-.04,.52-3.21-.24,.2-2.72,3.21,.24-.05,.72,1.02,.08c.06,0,.1-.01,.11-.06,.01-.04,.02-.1,.03-.16,0-.1-.01-.16-.06-.2-.05-.04-.23-.07-.56-.12l.21-.49Zm-.52,3.23c.26,.53,.53,1.12,.79,1.76l-.5,.13-.29-.73-1.45-.11-.04,.57-.47-.03,.04-.57-1.11-.08-.05,.68-.49-.04,.13-1.8,.49,.04-.05,.62,1.11,.08,.04-.58,.47,.03-.04,.58,1.17,.09c-.11-.27-.21-.49-.29-.64h.54Zm-2.54-2.65l-.43-.03-.13,1.7,.43,.03,.13-1.7Zm.93,.07l-.47-.04-.13,1.7,.47,.04,.13-1.7Zm.92,.07l-.47-.03-.13,1.7,.47,.03,.13-1.7Z"/><path class="cls-1" d="M6.16,21.78l.17,.49c-.21,.02-.48,.08-.82,.16,.51,.38,.9,.78,1.18,1.21l-.49,.18c-.46-.7-1.15-1.2-2.07-1.51l-2.15-.72,.15-.46,1.09,.37c-.08-.1-.21-.21-.37-.34l.36-.33c.35,.32,.65,.64,.9,.98,.44,.15,.72,.26,.84,.33,.46-.17,.86-.29,1.2-.34Zm.36-3.21l-1.05,3.14-.44-.15,.24-.72-1.28-.43-.17,.52-.43-.15,.17-.52-1-.34,.16-.49,1,.34,.26-.77-1-.34,.16-.47,1,.34,.19-.57,.43,.15-.19,.57,1.28,.43,.23-.68,.44,.15Zm-2.29,3.87l.06,.47c-.42-.09-.89-.15-1.42-.18l-.06-.46c.44,.02,.91,.08,1.41,.17Zm1.46-2.86l-1.28-.43-.25,.76,1.28,.43,.25-.76Zm.64,.94c.38,.57,.66,1.09,.83,1.57l-.45,.26c-.19-.51-.45-1.02-.79-1.53l.42-.31Zm1.58-1.53l.17,.51c-.39,.09-.91,.29-1.54,.6l-.16-.49c.57-.29,1.08-.5,1.53-.62Z"/><path class="cls-1" d="M9.12,14.06l-.65,.87,1.55,1.15-.3,.41-1.55-1.15-.64,.86-.39-.29,.64-.86-.37-.27-.6,.81-.37-.28,.34-.46c-.19-.07-.41-.14-.68-.2l.06-.38-.39,.53-.37-.28,.55-.75c-.11-.04-.24-.06-.39-.07l.23-.52c.22,.04,.39,.07,.51,.11l.58-.78,.37,.28-.38,.5,.37-.17c.13,.21,.25,.42,.34,.62l.34-.46,.37,.28-.59,.8,.37,.27,.65-.87,.39,.29Zm-2.31-.65l-.56,.76c.31,.07,.59,.15,.86,.26l.18-.25c-.13-.26-.29-.51-.48-.76Zm3-1.8l-.31,.42,2.27,1.69-.3,.4-2.27-1.69-.35,.47c1.05,.8,1.68,1.54,1.88,2.22l-.53,.13c-.18-.61-.69-1.22-1.53-1.85l-1.59-1.18c.31-.57,.53-1.1,.63-1.57l.56-.03c-.1,.45-.28,.93-.53,1.44l.71,.53,.96-1.3,.4,.3Zm-1.43,4.05c.29,.45,.49,.83,.6,1.14l-.5,.15c-.11-.33-.29-.68-.53-1.06l.44-.23Zm1.42-.97l-.06,.48c-.3-.11-.6-.18-.92-.22l.1-.46c.35,.04,.64,.11,.88,.21Z"/><path class="cls-1" d="M13.36,10.36l-1.61,1.32-1.24-1.51c0,.05-.01,.11-.03,.17l-.45-.23c.12-.57,.11-1.15-.04-1.75l.44-.21c.04,.11,.07,.23,.08,.35l.67-.55,.28,.35c0,.18,0,.36,0,.52l.39-.32,1.52,1.85Zm-2.4-1.66l-.39,.32c.01,.09,.02,.26,.02,.51l.38-.31c0-.22,0-.4-.01-.51Zm.52,1.37l-.34-.41-.28,.23,.34,.41,.28-.23Zm1.08-2.62l-.21,.46c-.34-.17-.69-.3-1.03-.4l.22-.44c.3,.07,.64,.2,1.02,.38Zm-.47,3.37l-.34-.42-.28,.23,.34,.42,.28-.23Zm.01-1.25l-.34-.41-.28,.23,.34,.41,.28-.23Zm.11,2.03c.25,.43,.43,.82,.55,1.17l-.44,.12c-.14-.4-.31-.76-.51-1.1l.4-.19Zm3.37-2.75l-.78,.63,.74,.91-.39,.32-.74-.91-.78,.64-.3-.37,.78-.64-.42-.52-.67,.55-.29-.36,.67-.55-.38-.47-.73,.6-.3-.37,1.87-1.53,.3,.37-.75,.61,.38,.47,.65-.53,.29,.36-.65,.53,.42,.52,.78-.63,.3,.37Zm-2.87,1.46l-.34-.42-.28,.23,.34,.42,.28-.23Zm.64,1.77l-.29,.31c-.24-.3-.5-.57-.77-.82l.28-.27c.28,.24,.54,.5,.79,.78Zm-.21-6.1c.11,.41,.18,.79,.19,1.14l-.48,.12c-.02-.32-.08-.69-.18-1.09l.47-.17Zm.68,5.57l-.27,.33c-.28-.25-.56-.47-.84-.65l.25-.33c.29,.19,.58,.4,.86,.65Zm.36-.58l-.2,.34c-.26-.17-.54-.33-.83-.47l.24-.31c.31,.15,.57,.3,.79,.45Z"/><path class="cls-1" d="M21.3,7.28l-4.58,2.15-.19-.39,.76-.36-1.36-2.91,1.09-.51c0-.13,0-.26-.02-.4l-1.92,.9-.19-.41,2.06-.96c-.02-.18-.05-.36-.09-.55l.5-.11c.04,.18,.06,.32,.07,.44l1.9-.89,.19,.41-2.03,.95c.02,.11,.03,.24,.03,.4l1.47-.69,1.36,2.91,.77-.36,.19,.39Zm-2.43-2.01l-.16-.33-2.13,1,.16,.33,2.13-1Zm.34,.73l-.16-.35-2.13,1,.16,.35,2.13-1Zm.35,.74l-.17-.36-2.13,1,.17,.36,2.14-1Zm.34,.72l-.16-.35-2.13,1,.16,.35,2.13-1Z"/><path class="cls-1" d="M22.26,2.68l-.3,.42c-.35-.25-.7-.43-1.04-.56l.28-.43c.37,.15,.72,.34,1.06,.57Zm4.34,3.05l-.08,.5c-.65,.14-1.33,.27-2.02,.41-.86,.17-1.53,.1-2-.21-.12,.28-.25,.55-.42,.81l-.47-.25c.39-.6,.6-1.2,.64-1.82l-.83,.16-.09-.48c.19-.3,.37-.68,.54-1.13l-.83,.16-.09-.45,1.42-.28,.09,.45c-.15,.41-.32,.79-.51,1.14l.73-.14,.09,.46c-.03,.32-.08,.62-.15,.91,.16,.12,.35,.21,.57,.25,.21,.04,.43,.06,.65,.04,.22-.02,.61-.08,1.18-.19,.52-.1,1.04-.21,1.56-.33Zm-.12-.54l-1.44,.28,.09,.46-.51,.1-.09-.46-1.46,.28-.08-.43,1.46-.28-.06-.29-1.24,.24-.08-.4,1.24-.24-.06-.3-1.35,.26-.08-.42,.75-.15c-.08-.12-.17-.25-.29-.39l-.63,.12-.08-.43,1.43-.28-.07-.36-1.3,.25-.08-.42,1.3-.25-.07-.39,.5-.1,.07,.39,1.26-.24,.08,.42-1.26,.24,.07,.36,1.45-.28,.08,.43-.61,.12c-.03,.18-.07,.33-.12,.47l.71-.14,.08,.42-1.32,.26,.06,.3,1.21-.23,.08,.4-1.21,.23,.06,.29,1.44-.28,.08,.43Zm-1.59-2.05l-1.08,.21c.1,.12,.19,.25,.28,.4l.7-.13c.05-.17,.08-.32,.1-.47Z"/></g></svg>