<?xml version="1.0" encoding="UTF-8"?><svg id="_圖層_1" xmlns="http://www.w3.org/2000/svg" viewBox="0 0 70 70"><defs><style>.cls-1{fill:#1c1d1b;}</style></defs><path class="cls-1" d="M35.7,13.55h.83l.3,.45-11.97,2.07s-.07,.05-.11,.07c-.04,.02-.09,.02-.12,.05l-4.21,.85c-.26,.05-.47,.24-.56,.49-.08,.25-.02,.53,.16,.73,1.22,1.34,5.26,5.94,6.2,9.09l1.8,10.71c.01,.07,.04,.14,.09,.22,.15,.4,.46,.71,.86,.84v2.8c-.4,.13-.7,.43-.86,.82-.05,.08-.08,.15-.1,.22,0,0-3.74,21.6-3.82,21.96-.25,1.24-.47,2.32,.02,2.92,.14,.18,.41,.39,.89,.39h26.28c.39,0,.72-.15,.95-.43,.66-.81,.4-2.49,.07-4.15l-3.58-20.63c-.02-.11-.04-.18-.09-.25-.17-.45-.54-.77-1.01-.87v-2.75c.47-.1,.84-.43,1.01-.89,.04-.07,.07-.14,.08-.2,.01-.06,2.39-14.18,2.39-14.18l.72,.02c1.32,.04,2.56-.41,3.55-1.24l1.95-1.62c.76-.63,1.87-.55,2.53,.17,.54,.59,.64,1.46,.24,2.16-.76,1.33-1.79,3.37-2.42,5.53-.75,2.56-1.21,5.64-1.42,7.24-.06,.44-.39,.78-.83,.86l-.2,.03c-.39,.07-.75,.27-1,.57-.31,.36-.45,.83-.4,1.3,.05,.47,.3,.89,.77,1.23,.46,.33,1,.51,1.54,.51,.23,0,.47-.03,.7-.1,.78-.22,1.4-.77,1.72-1.51l5.71-13.54c1.13-2.68,.56-5.77-1.45-7.88-1.6-1.67-3.93-2.49-6.22-2.19l-4.81,.63-11.76-2.06,.3-.45h.83c.41,0,.74-.33,.74-.74v-1.78c0-.41-.33-.74-.74-.74h-5.59c-.41,0-.74,.33-.74,.74v1.78c0,.41,.33,.74,.74,.74Zm11.18,2.51h-2.95l-1.61-.8,4.56,.8Zm-.02,25.79H29.84v-2.65h17.02v2.65Zm4.9,23.14c.03,.13,.03,.32-.23,.57-1.04,1-4.75,1.57-7.09,1.12-.37-4.95-.59-9.84-.83-15-.11-2.45-.23-4.94-.36-7.46,1.35-.7,4.06-1.05,4.74-.93l3.77,21.69Zm-17.66-13.5c.11-2.42,.23-4.87,.36-7.35,.72-.8,2.66-.8,3.96-.8s3.16,0,3.95,.8c.13,2.56,.83,17.6,1.2,22.54-3.23,.55-6.7,.55-10.32,0,.37-5.01,.61-9.96,.85-15.18Zm-5.25-8.22c.65-.19,3.4,0,4.74,.92-.13,2.45-.83,17.48-1.21,22.51-1.84,.37-5.6-.52-6.92-1.48-.33-.24-.35-.37-.35-.37l3.74-21.57Zm-3.45-26c-.02-.11-.03-.23-.04-.34h7.19l1.04,19.88c-1.33,.94-4.09,1.14-4.74,.95l-3.45-20.49Zm13.91-2.53l2.65,1.31h-7.02l2.74-1.31h1.64Zm-4.84,22.11c-.13-2.52-.98-19.79-.99-19.93h9.88c-.03,.47-.86,17.41-.99,19.93-.78,.82-2.68,.82-3.95,.82s-3.25,0-3.96-.83Zm-1.55-20.8h-2.9l4.53-.78-1.63,.78Zm15.08,21.67c-.68,.12-3.39-.24-4.73-.96l1.03-19.84h7.1l-3.41,20.8Z"/><path class="cls-1" d="M20.28,13.72c-.3,0-.54-.24-.54-.54,0-.24,.15-.43,.36-.5,.06-.02,.11-.04,.17-.04,2.02,0,3.66-1.64,3.66-3.66s-1.64-3.66-3.66-3.66c-.83,0-1.62,.27-2.27,.79-.05,.03-.07,.05-.1,.06-.13,.04-.2,.05-.27,.04-.17-.03-.28-.09-.36-.18-.05-.06-.07-.08-.08-.11-.62-1.26-1.91-2.07-3.3-2.07-2.02,0-3.66,1.64-3.66,3.66,0,.49,.1,.96,.28,1.41,.09,.34-.03,.61-.28,.72-.05,.02-.1,.02-.15,.03-1.55,.46-2.62,1.88-2.62,3.5,0,1.99,1.6,3.61,3.59,3.65,.37,0,.61,.25,.61,.54,0,.3-.24,.54-.54,.54-2.61,0-4.73-2.12-4.73-4.73,0-1.94,1.2-3.66,2.97-4.38-.12-.42-.2-.84-.2-1.29,0-2.61,2.12-4.73,4.73-4.73,1.6,0,3.09,.83,3.96,2.14,.73-.44,1.55-.68,2.42-.68,2.61,0,4.73,2.12,4.73,4.73s-2.12,4.73-4.73,4.73Z"/><path class="cls-1" d="M13.81,28.33c-.3,0-.54-.24-.54-.54,0-1.22,.08-8.96,.08-10.26,0-.3,.24-.54,.54-.54s.54,.24,.54,.54c0,1.3-.08,9.04-.08,10.26,0,.3-.24,.54-.54,.54Z"/><path class="cls-1" d="M16.74,29.72c-.3,0-.54-.24-.54-.54V14.12c0-.3,.24-.54,.54-.54s.54,.24,.54,.54v15.07c0,.3-.24,.54-.54,.54Z"/></svg>