<?xml version="1.0" encoding="UTF-8"?><svg id="_圖層_1" xmlns="http://www.w3.org/2000/svg" viewBox="0 0 60 60"><defs><style>.cls-1{fill:#fff;}</style></defs><path class="cls-1" d="M18.63,17.84c-4.49,0-8.67,2.28-11.77,6.41-2.95,3.93-4.57,9.12-4.57,14.6s1.62,10.67,4.57,14.6c3.1,4.13,7.28,6.41,11.77,6.41s8.67-2.28,11.77-6.41c2.95-3.93,4.57-9.12,4.57-14.6s-1.62-10.67-4.57-14.6c-3.1-4.13-7.28-6.41-11.77-6.41ZM10.6,50.64c-2.35-3.13-3.64-7.32-3.64-11.8s1.29-8.67,3.64-11.8c1.29-1.73,2.82-2.99,4.46-3.74-2.19,7.57-.57,11.6,1.41,16.43,3.21,7.84,2.19,11.51,.65,15.31-2.43-.45-4.7-1.97-6.53-4.4h0Zm16.06,0c-1.25,1.67-2.72,2.91-4.3,3.67,1.19-3.81,1.61-8.61-1.57-16.36-1.77-4.3-3.4-7.62-.62-15.31,2.41,.46,4.67,1.98,6.49,4.4,2.35,3.13,3.64,7.32,3.64,11.8s-1.29,8.67-3.64,11.8h0Z"/><path class="cls-1" d="M53.74,6.51C50.64,2.37,46.46,.1,41.98,.1s-8.66,2.09-11.72,5.88c-1.98,2.45-3.36,5.5-4.07,8.86,1.51,.7,2.94,1.61,4.28,2.72,.4-3.35,1.59-6.36,3.43-8.65,1.29-1.6,2.84-2.77,4.54-3.45-2.3,7.84-.48,12.01,1.38,16.54,3.21,7.82,2.19,11.5,.66,15.3-.3-.06-.59-.14-.89-.24,.03,.6,.05,1.19,.05,1.8,0,1.01-.05,2.02-.14,3.01,.81,.17,1.64,.26,2.48,.26,4.49,0,8.67-2.28,11.77-6.41,2.95-3.93,4.57-9.12,4.57-14.6s-1.62-10.67-4.57-14.6h0Zm-3.73,26.4c-1.25,1.67-2.72,2.91-4.3,3.67,1.19-3.81,1.61-8.61-1.57-16.36-1.77-4.3-3.4-7.62-.62-15.31,2.41,.46,4.67,1.98,6.49,4.4,2.35,3.13,3.64,7.32,3.64,11.8s-1.29,8.67-3.64,11.8h0Z"/></svg>