<?xml version="1.0" encoding="UTF-8"?><svg id="_圖層_1" xmlns="http://www.w3.org/2000/svg" viewBox="0 0 70 70"><defs><style>.cls-1{fill:#a1713d;}.cls-2{fill:#228bcd;}.cls-3{fill:#41281b;}</style></defs><path class="cls-1" d="M35.21,22.68h-7.69c-1.39,0-2.51,1.13-2.51,2.51h0c0,1.39,1.13,2.51,2.51,2.51h7.69c1.39,0,2.51-1.13,2.51-2.51h0c0-1.39-1.13-2.51-2.51-2.51Z"/><path class="cls-1" d="M32.46,58.73l-1.09-1.09-1.09,1.09c-.6,.6-.6,1.58,0,2.18,.6,.6,1.58,.6,2.18,0,.6-.6,.6-1.58,0-2.18Z"/><path class="cls-1" d="M45.14,31.28v33.94c0,.89-.72,1.61-1.61,1.61H23.07c-.91,0-1.65,.74-1.65,1.65v.81h23.12c1.53,0,2.77-1.24,2.77-2.77V31.28h-2.17Z"/><g><path class="cls-2" d="M32.87,61.33c.4-.4,.62-.94,.62-1.5s-.22-1.1-.62-1.5l-1.09-1.09c-.22-.22-.6-.22-.83,0l-1.09,1.09c-.4,.4-.62,.93-.62,1.5s.22,1.1,.62,1.5c.4,.4,.93,.62,1.5,.62s1.1-.22,1.5-.62Z"/><path class="cls-3" d="M47.31,30.69h-.5v-1.64c0-2.45-1.99-4.45-4.44-4.45h-4.11c-.16-.82-.64-1.53-1.3-1.98,1.56-.85,2.63-2.49,2.63-4.39V.71c0-.32-.26-.58-.58-.58h-15.26c-.32,0-.58,.26-.58,.58V18.24c0,1.9,1.07,3.54,2.63,4.39-.82,.56-1.36,1.5-1.36,2.56,0,1.28,.78,2.38,1.89,2.85v5.49c0,.12,.04,.22,.1,.31-.39,.6-.85,1.15-1.44,1.58-3.24,2.36-4.74,6.23-3.92,10.09,.82,3.83,4.05,6.94,8.05,7.73,.75,.15,1.51,.22,2.25,.22,2.52,0,4.94-.84,6.87-2.42,2.33-1.92,3.67-4.7,3.67-7.63,0-3.14-1.5-6.04-4.11-7.96-.59-.44-1.07-1-1.46-1.61,.06-.09,.1-.19,.1-.3v-5.49c.93-.4,1.63-1.25,1.83-2.27h4.11c1.81,0,3.28,1.47,3.28,3.28v1.64h-.5c-.32,0-.58,.26-.58,.58v33.94c0,.57-.46,1.03-1.03,1.03h-7.65l1.33-3.25c.07-.18,.05-.38-.06-.55-.11-.16-.29-.26-.48-.26h-10.62c-.2,0-.38,.1-.48,.26-.11,.16-.13,.37-.06,.55l1.34,3.25h-3.79c-1.23,0-2.23,1-2.23,2.23v.81c0,.32,.26,.58,.58,.58h23.12c1.85,0,3.36-1.51,3.36-3.36V31.28c0-.32-.26-.58-.58-.58ZM24.32,1.29h14.1v.55h-14.1v-.55Zm0,16.95V3.01h14.1v15.23c0,2.12-1.73,3.85-3.85,3.85h-6.39c-2.12,0-3.85-1.73-3.85-3.85Zm12.78,18.14c2.31,1.7,3.64,4.26,3.64,7.02,0,2.59-1.18,5.04-3.25,6.73-2.23,1.83-5.2,2.55-8.15,1.96-3.55-.71-6.42-3.45-7.14-6.83-.73-3.41,.6-6.82,3.47-8.91,.82-.6,1.5-1.37,1.99-2.24h7.42c.5,.88,1.19,1.66,2.02,2.27Zm-9.62-3.43v-4.66h7.78v4.66h-7.78Zm8.33,30.4l-1.19,2.89h-6.51l-1.19-2.89h8.88Z"/></g><path class="cls-3" d="M34.36,17.71h-2.99c-.23,0-.42-.19-.42-.42s.19-.42,.42-.42h2.99c.23,0,.42,.19,.42,.42s-.19,.42-.42,.42Z"/><path class="cls-3" d="M34.36,16.23h-1.32c-.23,0-.42-.19-.42-.42s.19-.42,.42-.42h1.32c.23,0,.42,.19,.42,.42s-.19,.42-.42,.42Z"/><path class="cls-3" d="M34.36,14.76h-2.99c-.23,0-.42-.19-.42-.42s.19-.42,.42-.42h2.99c.23,0,.42,.19,.42,.42s-.19,.42-.42,.42Z"/><path class="cls-3" d="M34.36,13.29h-1.32c-.23,0-.42-.19-.42-.42s.19-.42,.42-.42h1.32c.23,0,.42,.19,.42,.42s-.19,.42-.42,.42Z"/><path class="cls-3" d="M34.36,11.81h-2.99c-.23,0-.42-.19-.42-.42s.19-.42,.42-.42h2.99c.23,0,.42,.19,.42,.42s-.19,.42-.42,.42Z"/><path class="cls-3" d="M34.36,10.34h-1.32c-.23,0-.42-.19-.42-.42s.19-.42,.42-.42h1.32c.23,0,.42,.19,.42,.42s-.19,.42-.42,.42Z"/><path class="cls-3" d="M34.36,8.87h-2.99c-.23,0-.42-.19-.42-.42s.19-.42,.42-.42h2.99c.23,0,.42,.19,.42,.42s-.19,.42-.42,.42Z"/><path class="cls-2" d="M23.48,45c.61,2.88,3.07,5.22,6.11,5.82,.59,.12,1.19,.18,1.78,.18,2.17,0,4.21-.8,5.73-2.25,1.5-1.43,2.33-3.33,2.33-5.34,0-.23-.02-1.23-.04-1.46H23.35c-.28,1.14-.03,2.28,.13,3.05Z"/></svg>