<?xml version="1.0" encoding="UTF-8"?><svg id="_圖層_1" xmlns="http://www.w3.org/2000/svg" viewBox="0 0 70 70"><defs><style>.cls-1{fill:#228bcd;}.cls-2{fill:#1c1d1b;}</style></defs><path class="cls-2" d="M47.75,23.74s-.03-.03-.05-.05c-.01-.02-.03-.03-.04-.04-.06-.06-.14-.1-.23-.1-.15-.01-14.5-.69-17.85-1.06-3.44-.38-6.32,.49-6.44,.53-.07,.03-.1,.06-.13,.08-.02,.02-.05,.04-.06,.06-.04,.05-.04,.07-.05,.1,0,.02-.03,.04-.03,.06,0,.07,0,.1,0,.14,0,.03,0,.06,.02,.09,0,.03,.77,1.56,.77,1.56,.07,.13,.2,.22,.35,.22l.43,.81h-.43c-.22,0-.4,.18-.4,.4v1.54c0,.22,.18,.4,.4,.4,.01,0,6.73,12.76,6.73,12.76h-8.66c-.16,0-.31,.1-.37,.26s-.01,.33,.11,.44l1.62,1.42v2.96c-.77,1.09-1.31,2.35-1.57,3.67l-2.94,15.24c-.26,1.36,.05,2.74,.84,3.69,.62,.75,1.48,1.17,2.41,1.17h26.32c.93,0,1.79-.42,2.41-1.17,.79-.95,1.1-2.33,.83-3.69l-2.61-13.5c-.13-1.26-.12-3.49,.47-4.14,.1-.11,.2-.16,.33-.16h.87c.88,0,1.65,.66,1.77,1.53l2.39,16.28c.09,.63,.42,1.18,.93,1.56,.41,.31,.9,.47,1.41,.47,.12,0,.23,0,.35-.03l.12-.02c.6-.09,1.03-.65,.94-1.26l-2.57-17.54c-.39-2.64-2.69-4.62-5.34-4.62h-3.57v-2.17c0-.22-.18-.4-.4-.4h-6.85l.79-1.5s.05-.08,.08-.13c.83-1.86,3.75-3.12,6.1-4.12,1.06-.45,1.97-.84,2.63-1.25,.97-.6,1.48-1.74,1.37-3.05-.12-1.47-.97-2.74-2.16-3.23-.41-.17-.93-.27-1.56-.2v-1.21c0-.22-.18-.4-.4-.4h-.55l.43-.81h.13c.14,0,.28-.08,.35-.21l.55-.99c.03-.06,.04-.12,.05-.18,0-.08-.01-.14-.05-.21Zm-2.34,2.39H25.35l-.43-.81h20.91l-.43,.81Zm-25.02,42.26c-.64-.77-.89-1.91-.67-3.04l2.94-15.24c.23-1.21,.71-2.32,1.4-3.32h22.57c.69,.99,1.17,2.13,1.4,3.32l2.94,15.24c.22,1.13-.03,2.26-.67,3.04-.47,.57-1.11,.88-1.8,.88H22.2c-.69,0-1.33-.31-1.8-.88Zm26.07-24.6H24.25v-.22h22.21v.22Zm0-1.02H24.01l-.85-.75h23.31v.75Zm-11.35-1.54h-2.35c1.29-5.43,3.79-10.05,6.92-12.76h6.13c-4.55,1.63-7.96,5.7-10.69,12.76Zm-7.61-12.76h2.01c-.7,1.54-1.32,3.29-1.84,5.2l-.96-1.83c.21-1.13,.47-2.26,.79-3.37Zm2.88,0h3.38c-2.13,2.95-3.39,6.3-4.12,8.93l-1.42-2.7c.59-2.34,1.31-4.43,2.16-6.23Zm15.27,2.37c.96-.82,1.81-1.15,2.4-.9,.53,.22,.76,.86,.8,1.34,.04,.51-.11,.98-.36,1.14-.55,.34-1.38,.69-2.34,1.1-.84,.36-1.79,.77-2.72,1.25l2-3.79c.08-.04,.16-.06,.23-.13Zm-18.97-2.37c-.21,.75-.39,1.51-.55,2.27l-1.2-2.27h1.75Zm8.05,0h3.8c-2.99,2.9-5.35,7.46-6.59,12.76h-.29l-1.47-2.79c.69-2.78,2.04-6.7,4.55-9.97Zm1.23,12.76c2.52-6.4,5.61-10.19,9.64-11.83l-.69,.82-5.8,11.01h-3.15Zm10.5-13.79H24.42v-.51h22.04v.51Zm.28-3.12l-.12,.22H24.27l-.36-.71c.74,.03,2.13,.11,4.28,.29,2.14,.18,3.33,.13,4.84,.07,1.27-.05,2.85-.11,5.51-.06,4.25,.09,7.03,.16,8.2,.19Z"/><path class="cls-1" d="M50.12,67.72c.42-.65,.57-1.5,.42-2.34H20.17c-.15,.84,0,1.69,.42,2.34,.43,.66,1.1,1.05,1.83,1.05h25.88c.73,0,1.4-.38,1.83-1.05Z"/><path class="cls-1" d="M35.25,64.24c.22,0,.4-.18,.4-.4v-15.74c0-.22-.18-.4-.4-.4s-.4,.18-.4,.4v15.74c0,.22,.18,.4,.4,.4Z"/><path class="cls-2" d="M39.98,1.94c-1.18,0-2.28,.61-2.92,1.58-.54-.32-1.15-.5-1.79-.5-1.93,0-3.49,1.57-3.49,3.49s1.57,3.49,3.49,3.49c.22,0,.4-.18,.4-.4,0-.17-.11-.32-.27-.37-.04-.01-.08-.03-.13-.03-1.49,0-2.7-1.21-2.7-2.7s1.21-2.7,2.7-2.7c.61,0,1.19,.2,1.67,.58,.04,.02,.05,.04,.07,.05,.1,.03,.15,.04,.2,.03,.13-.02,.2-.06,.27-.13,.03-.05,.05-.06,.06-.08,.46-.94,1.39-1.52,2.43-1.52,1.49,0,2.7,1.21,2.7,2.7,0,.36-.07,.71-.21,1.04-.06,.25,.02,.45,.21,.53,.04,.01,.07,.02,.11,.02,1.14,.34,1.93,1.39,1.93,2.59,0,1.47-1.18,2.66-2.65,2.69-.27,0-.45,.18-.45,.4s.18,.4,.4,.4c1.93,0,3.49-1.57,3.49-3.49,0-1.43-.88-2.7-2.19-3.23,.09-.31,.15-.62,.15-.95,0-1.92-1.57-3.49-3.49-3.49Z"/><path class="cls-2" d="M40.53,16.59v-4.27c0-.22-.18-.4-.4-.4s-.4,.18-.4,.4v4.27c0,.22,.18,.4,.4,.4s.4-.18,.4-.4Z"/><path class="cls-2" d="M35.71,19.67c-.22,0-.4,.18-.4,.4v1.56c0,.22,.18,.4,.4,.4s.4-.18,.4-.4v-1.56c0-.22-.18-.4-.4-.4Z"/><path class="cls-2" d="M36.11,15.06c0-.73-.56-1.41-1.58-1.93l-.71-.36c-.15-.08-.41-.08-.56,0-.15,.08-.15,.2,0,.28l.71,.36c.87,.44,1.35,1.02,1.35,1.64v3.11c0,.11,.18,.2,.4,.2s.4-.09,.4-.2v-3.11Z"/><path class="cls-2" d="M28.03,8.72l-1.01-1.41L15.54-4.18c-.15-.15-.41-.15-.56,0-.15,.16-.15,.41,0,.56l15.61,15.61h-4.8l-5.88-5.89c-.15-.15-.4-.15-.56,0-.15,.16-.15,.41,0,.56l5.72,5.72-9.69,9.69c-.15,.16-.15,.41,0,.56,.08,.08,.18,.12,.28,.12s.2-.04,.28-.12l9.86-9.86h5.76c.16,0,.3-.1,.37-.24,.06-.15,.03-.32-.09-.43l-3.01-3.01V4.88c0-.11-.04-.21-.12-.28L17.74-6.37c-.15-.15-.41-.15-.56,0-.15,.16-.15,.41,0,.56L28.03,5.05v3.67Z"/></svg>