<?xml version="1.0" encoding="UTF-8"?><svg id="_圖層_1" xmlns="http://www.w3.org/2000/svg" viewBox="0 0 1743.18 1714.99"><defs><style>.cls-1{fill:#004c71;}</style></defs><path class="cls-1" d="M885.23,144.15l4.28-131.97,19.8,.64-4.28,131.97-19.8-.64Z"/><path class="cls-1" d="M999.4,69.01l-16.62,83.05-19.42-3.89,26.65-133.17,61.25,102.48,16.62-83.05,19.42,3.89-26.65,133.17-61.25-102.48Z"/><path class="cls-1" d="M1139.78,163.04c-.51,4.15,.39,8.17,2.71,12.08,2.32,3.9,5.51,6.7,9.57,8.41,5.33,2.23,10.37,2.27,15.1,.09,4.73-2.18,8.11-5.7,10.16-10.57,1.12-2.67,1.63-5.35,1.53-8.05-.1-2.7-.63-5-1.6-6.91-1.51-3.22-3.58-6.03-6.19-8.42-2.61-2.39-5.33-4.86-8.15-7.4-2.82-2.54-5.57-5.33-8.25-8.37-2.69-3.03-4.85-6.8-6.51-11.32-1.64-4.23-2.45-8.8-2.44-13.7,0-4.9,1.03-9.79,3.07-14.66,1.99-4.75,4.79-8.83,8.4-12.23,3.6-3.4,7.63-6.01,12.07-7.83,4.44-1.82,9.13-2.75,14.06-2.8,4.93-.05,9.77,.92,14.53,2.92,3.94,1.65,7.46,3.91,10.56,6.77,3.09,2.87,5.63,6.08,7.62,9.63,1.99,3.56,3.37,7.34,4.14,11.35s.91,8.08,.4,12.23l-18.97-3.04c.34-4.08-.47-7.9-2.46-11.46-1.99-3.56-4.89-6.14-8.72-7.74-2.44-1.02-4.82-1.51-7.16-1.46-2.34,.04-4.55,.52-6.63,1.42-2.08,.9-3.94,2.17-5.58,3.8-1.64,1.63-2.92,3.55-3.84,5.75-1.02,2.44-1.54,4.81-1.55,7.12-.02,2.31,.32,4.43,1.02,6.36,1.2,3.64,3.11,6.72,5.74,9.25,2.62,2.53,5.4,5.09,8.34,7.68,2.93,2.59,5.84,5.41,8.73,8.46,2.88,3.05,5.21,6.85,6.98,11.41,1.55,3.79,2.4,8.1,2.56,12.93,.15,4.84-.93,10.04-3.27,15.61-2.09,4.99-4.95,9.28-8.56,12.88-3.62,3.6-7.71,6.35-12.25,8.26-4.55,1.91-9.43,2.9-14.64,2.97-5.21,.07-10.42-.99-15.64-3.18-4.18-1.75-7.9-4.09-11.17-7.03s-5.93-6.27-7.98-9.99c-2.05-3.72-3.49-7.7-4.31-11.93-.82-4.23-.95-8.48-.39-12.74l19,3.46Z"/><path class="cls-1" d="M1337.85,152.13c6,3.93,10.49,8.03,13.47,12.31,2.98,4.28,5.05,8.76,6.21,13.42,1.23,5.01,1.45,10.12,.68,15.32-.78,5.2-2.71,10.17-5.82,14.91-3.1,4.73-6.88,8.5-11.34,11.29-4.46,2.79-9.23,4.63-14.32,5.51-4.74,.81-9.67,.7-14.78-.32-5.12-1.02-10.68-3.5-16.67-7.42l-19.41-12.71-29.76,45.45-16.57-10.85,72.33-110.47,35.98,23.56Zm-2.03,45.12c2.55-3.89,3.56-8.19,3.03-12.9-.3-2.75-1.3-5.47-3-8.16-1.7-2.69-4.54-5.34-8.54-7.96l-19.41-12.71-21.49,32.83,19.41,12.71c4,2.62,7.57,4.17,10.71,4.65,3.14,.48,6.03,.31,8.68-.52,4.52-1.4,8.06-4.04,10.61-7.94Z"/><path class="cls-1" d="M1339.56,318.92l88.02-98.43,14.76,13.2-88.02,98.43-14.76-13.2Z"/><path class="cls-1" d="M1438.19,423.26l15.33-66.86-2.28-2.77-41.94,34.53-12.59-15.29,101.95-83.92,27.33,33.21c5.27,6.41,8.65,12.63,10.12,18.67,1.47,6.04,1.56,11.94,.29,17.72-.93,4.02-2.51,7.89-4.74,11.6-2.24,3.71-5.05,6.97-8.45,9.77-4.27,3.52-8.78,5.96-13.51,7.33-4.74,1.37-9.49,1.78-14.26,1.23-4.77-.55-9.39-2.01-13.85-4.36-4.46-2.35-8.47-5.49-12.02-9.41l-15.55,67.77-15.82-19.22Zm72.42-58.64c3.59-2.96,5.84-6.76,6.73-11.41,.53-2.72,.39-5.61-.43-8.69-.82-3.07-2.75-6.45-5.78-10.14l-14.75-17.91-30.29,24.94,14.75,17.91c3.04,3.69,5.98,6.23,8.84,7.62,2.86,1.39,5.67,2.09,8.44,2.09,4.73,.01,8.9-1.46,12.49-4.42Z"/><path class="cls-1" d="M1634.92,491.28l-16.91,9.18-28.79-53.06-32.5,17.63,27.89,51.4-16.91,9.18-27.89-51.4-32.83,17.81,28.79,53.06-16.91,9.18-38.23-70.47,116.06-62.97,38.23,70.47Z"/><path class="cls-1" d="M1568.12,702.22l58.92-12.22,61.26-58.55,4.75,22.9-43.88,41.08,56.63,20.43,4.75,22.9-79.49-29.37-58.92,12.22-4.02-19.39Z"/><path class="cls-1" d="M1652.12,793.08c9.43,.15,18.29,2.12,26.6,5.9,8.3,3.78,15.52,8.84,21.64,15.16,6.12,6.32,10.94,13.7,14.45,22.12,3.51,8.42,5.19,17.35,5.04,26.78-.15,9.43-2.12,18.29-5.9,26.6-3.78,8.3-8.83,15.52-15.16,21.64s-13.7,10.94-22.12,14.45c-8.42,3.51-17.35,5.19-26.78,5.04-9.43-.15-18.3-2.12-26.6-5.9-8.3-3.78-15.52-8.83-21.64-15.16s-10.94-13.7-14.45-22.12c-3.51-8.42-5.19-17.35-5.04-26.78,.15-9.43,2.12-18.3,5.9-26.6,3.78-8.3,8.84-15.52,15.16-21.64,6.33-6.12,13.7-10.94,22.12-14.45,8.42-3.51,17.35-5.19,26.78-5.04Zm-1.91,117.88c6.91,.11,13.41-1.04,19.49-3.46,6.08-2.42,11.38-5.79,15.92-10.12,4.53-4.33,8.14-9.46,10.81-15.39,2.67-5.93,4.07-12.36,4.18-19.27,.11-6.92-1.07-13.38-3.55-19.4-2.48-6.02-5.92-11.26-10.31-15.73-4.39-4.48-9.59-8.02-15.58-10.63-6-2.61-12.45-3.98-19.37-4.09-6.92-.11-13.41,1.04-19.49,3.46-6.08,2.42-11.38,5.79-15.92,10.12-4.54,4.33-8.14,9.46-10.81,15.39-2.68,5.93-4.07,12.35-4.18,19.27-.11,6.91,1.07,13.38,3.55,19.39,2.48,6.01,5.92,11.26,10.31,15.73,4.39,4.47,9.59,8.01,15.58,10.63,6,2.61,12.45,3.97,19.37,4.09Z"/><path class="cls-1" d="M1561.78,1027.18c1.83-7.45,5.04-13.98,9.65-19.58,4.61-5.6,10.09-10.02,16.45-13.25,5.17-2.62,10.85-4.24,17.02-4.86,6.17-.62,13.17,.02,20.99,1.94l78.78,19.3-4.71,19.24-79.33-19.44c-5.74-1.41-10.62-1.86-14.62-1.35-4.01,.5-7.66,1.65-10.94,3.44-3.59,1.97-6.66,4.58-9.2,7.84-2.55,3.26-4.34,7.03-5.39,11.3-1.05,4.27-1.2,8.45-.44,12.51s2.26,7.8,4.54,11.21c2.09,3.1,4.79,5.8,8.11,8.11,3.32,2.3,7.85,4.16,13.59,5.56l79.33,19.44-4.71,19.24-78.78-19.3c-7.82-1.92-14.32-4.58-19.5-7.98-5.19-3.41-9.47-7.47-12.84-12.18-4.15-5.81-6.97-12.26-8.46-19.36-1.5-7.1-1.33-14.38,.49-21.83Z"/><path class="cls-1" d="M1504.53,1187.87l67.1-14.24,1.55-3.23-48.98-23.51,8.57-17.86,119.04,57.14-18.61,38.77c-3.59,7.48-7.82,13.16-12.68,17.04-4.86,3.87-10.18,6.45-15.95,7.72-4.04,.85-8.21,1.04-12.52,.58-4.31-.47-8.45-1.65-12.42-3.55-4.99-2.4-9.1-5.45-12.34-9.17-3.24-3.72-5.61-7.86-7.12-12.42-1.51-4.56-2.13-9.36-1.88-14.4,.26-5.04,1.41-9.99,3.47-14.86l-68.02,14.43,10.78-22.45Zm83.68,41.01c4.19,2.01,8.59,2.45,13.18,1.31,2.69-.67,5.25-2.01,7.7-4.05,2.44-2.04,4.7-5.21,6.76-9.52l10.04-20.92-35.37-16.98-10.04,20.92c-2.07,4.31-3.13,8.05-3.19,11.23-.06,3.18,.49,6.02,1.66,8.54,1.98,4.3,5.07,7.45,9.26,9.47Z"/><path class="cls-1" d="M1432.02,1306.42l65.26,126.57-91.36-36.91,36.19,91.64-126.05-66.25,14.73-14.61,74.01,39.24-33.41-84.83,84.57,34.08-38.66-74.31,14.73-14.61Z"/><path class="cls-1" d="M1275.85,1445.47l73.39,109.77-16.46,11.01-73.39-109.77,16.46-11.01Z"/><path class="cls-1" d="M1226.74,1573.04l-34.8-77.21,18.06-8.14,55.81,123.82-109.44-47.71,34.8,77.22-18.06,8.14-55.81-123.82,109.44,47.71Z"/><path class="cls-1" d="M1058.23,1682.39c-11.45,2.37-21.84,2.59-31.16,.66-9.32-1.93-17.63-5.6-24.91-11.03-6.37-4.72-11.8-10.5-16.3-17.34-4.5-6.84-7.61-14.45-9.34-22.82-1.73-8.38-1.89-16.59-.47-24.65,1.42-8.06,4.11-15.52,8.09-22.38,4.54-7.87,10.7-14.54,18.5-20,7.8-5.46,17.42-9.38,28.87-11.75l33.25-6.87,26.72,129.31-33.25,6.87Zm9.96-21.71l-18.94-91.62-13.85,2.86c-8.5,1.76-15.44,4.51-20.83,8.25-5.39,3.75-9.71,8.33-12.95,13.75-2.95,4.97-4.95,10.39-5.98,16.26-1.03,5.86-.94,11.75,.28,17.66s3.47,11.35,6.75,16.33c3.28,4.97,7.26,9.16,11.94,12.56,5.13,3.69,10.91,6.19,17.34,7.49,6.43,1.3,13.9,1.08,22.4-.68l13.85-2.86Z"/><path class="cls-1" d="M834.57,1706.92l-21.27-3.18-20.63-87.77-47.65,81.37-21.75-91.75-45.41,77.89-21.27-3.18,74.39-126.2,21.72,91.94,47.68-81.56,34.19,142.44Z"/><path class="cls-1" d="M637.08,1531.54l-45.12,124.09-18.61-6.77,45.12-124.09,18.61,6.77Z"/><path class="cls-1" d="M540.45,1489.63l-53.81,99.14,33.49,18.18-9.18,16.91-84.38-45.8,9.18-16.91,33.49,18.18,53.81-99.14,17.41,9.45Z"/><path class="cls-1" d="M389.99,1384.68l-36.39,43.34,46.23,38.82,36.39-43.34,15.17,12.74-84.91,101.12-15.17-12.74,36.15-43.05-46.23-38.82-36.15,43.05-15.17-12.74,84.91-101.12,15.17,12.74Z"/><path class="cls-1" d="M154.22,1273.29c3.48,5.98,7.83,10.9,13.06,14.77,5.23,3.87,10.88,6.58,16.95,8.14,6.07,1.56,12.35,1.91,18.83,1.05,6.48-.86,12.72-3.03,18.69-6.5,5.98-3.48,10.95-7.82,14.9-13.03,3.95-5.21,6.76-10.84,8.4-16.89,1.65-6.05,2.09-12.3,1.31-18.76-.77-6.46-2.9-12.68-6.38-18.66-2.84-4.89-6.31-9.1-10.39-12.62-4.08-3.52-8.52-6.28-13.33-8.29-4.8-2.01-9.81-3.24-15.03-3.7-5.21-.46-10.39,0-15.55,1.4l23.23,39.95-16.63,9.67-33.94-58.38c.59-.49,1.27-.95,2.02-1.4l2.12-1.23c8.15-4.74,16.76-7.64,25.82-8.69,9.07-1.05,17.85-.45,26.36,1.8,8.51,2.25,16.44,6.08,23.8,11.47,7.36,5.4,13.4,12.17,18.15,20.33s7.64,16.76,8.69,25.82c1.05,9.06,.45,17.85-1.8,26.36-2.25,8.51-6.07,16.44-11.47,23.8-5.39,7.36-12.17,13.4-20.33,18.15-8.15,4.74-16.76,7.64-25.82,8.69-9.06,1.05-17.85,.45-26.36-1.8-8.51-2.25-16.44-6.08-23.8-11.47-7.35-5.4-13.4-12.17-18.15-20.33-5.88-10.11-8.98-20.71-9.32-31.79-.33-11.08,1.78-21.58,6.34-31.51l17.75,8.01c-3.33,7.03-4.93,14.54-4.79,22.53,.14,7.99,2.36,15.69,6.65,23.08Z"/><path class="cls-1" d="M182.96,1046.15l-39.45,56.11,1.06,3.42,51.88-16.12,5.88,18.91-126.09,39.19-12.76-41.07c-2.46-7.93-3.23-14.96-2.31-21.11,.92-6.14,3.06-11.65,6.42-16.51,2.38-3.37,5.3-6.35,8.77-8.95,3.48-2.59,7.31-4.54,11.52-5.85,5.29-1.64,10.38-2.2,15.28-1.69,4.9,.52,9.46,1.93,13.67,4.25,4.21,2.32,7.94,5.4,11.18,9.27,3.24,3.87,5.77,8.28,7.57,13.25l40-56.88,7.39,23.78Zm-89.21,26.93c-4.44,1.38-7.96,4.05-10.55,8.02-1.52,2.32-2.48,5.05-2.88,8.21-.4,3.16,.11,7.01,1.52,11.58l6.89,22.16,37.47-11.64-6.89-22.16c-1.42-4.56-3.19-8.03-5.31-10.4-2.12-2.37-4.46-4.08-7.03-5.12-4.38-1.8-8.79-2.01-13.23-.63Z"/><path class="cls-1" d="M26.65,908.68l19.13-2.08,6.54,60.01,36.75-4-6.33-58.13,19.13-2.08,6.33,58.13,37.13-4.04-6.54-60.01,19.13-2.08,8.68,79.7-131.27,14.3-8.68-79.7Z"/><path class="cls-1" d="M154.87,854.14L26.66,771.67l142.06-55.29-2.25,22.33-27.03,10.55-6.74,67,24.41,15.54-2.25,22.33Zm-40.35-49.37l4.81-47.86-50.26,19.02,45.44,28.84Z"/><path class="cls-1" d="M183.9,666.75l-108.28-31.61-10.68,36.58-18.47-5.39,26.9-92.17,18.47,5.39-10.68,36.58,108.28,31.61-5.55,19.01Z"/><path class="cls-1" d="M264.98,481.71l-95-60.82-20.54,32.09-16.2-10.37,51.77-80.86,16.2,10.37-20.54,32.09,95,60.82-10.68,16.68Z"/><path class="cls-1" d="M303.1,420.94l-51.93-143.33,146.49,42.19-15.33,16.4-27.9-8-45.99,49.19,9.99,27.16-15.33,16.4Zm-2.14-63.72l32.85-35.14-51.5-15.35,18.65,50.49Z"/><path class="cls-1" d="M425.72,261.54c3.25,2.63,7.14,4,11.68,4.1,4.54,.1,8.6-1.12,12.2-3.66,4.72-3.34,7.42-7.59,8.08-12.76,.66-5.16-.53-9.9-3.58-14.22-1.67-2.36-3.67-4.22-6.01-5.57s-4.58-2.11-6.71-2.3c-3.53-.42-7.01-.16-10.42,.78-3.41,.95-6.94,1.94-10.6,2.99-3.65,1.04-7.48,1.9-11.47,2.56-4,.67-8.34,.51-13.05-.48-4.45-.85-8.76-2.59-12.91-5.19-4.15-2.61-7.76-6.07-10.8-10.38-2.98-4.21-4.95-8.74-5.92-13.6-.97-4.86-1.05-9.65-.24-14.39s2.51-9.2,5.08-13.41c2.57-4.2,5.96-7.79,10.17-10.77,3.49-2.47,7.27-4.25,11.34-5.36,4.07-1.1,8.14-1.56,12.21-1.35,4.07,.2,8.01,1.04,11.82,2.5,3.81,1.47,7.34,3.52,10.58,6.15l-12.64,14.48c-3.28-2.46-6.95-3.79-11.02-3.99-4.07-.2-7.8,.89-11.19,3.29-2.16,1.52-3.84,3.29-5.04,5.29-1.2,2.01-1.97,4.13-2.31,6.37-.34,2.24-.25,4.49,.26,6.74,.52,2.26,1.46,4.36,2.84,6.31,1.52,2.16,3.26,3.85,5.22,5.09,1.95,1.24,3.93,2.07,5.93,2.51,3.72,.91,7.35,.92,10.89,.04,3.53-.88,7.18-1.88,10.94-3,3.75-1.11,7.69-2.08,11.8-2.91,4.11-.83,8.57-.78,13.38,.13,4.03,.69,8.14,2.26,12.32,4.69,4.18,2.44,8.02,6.11,11.5,11.04,3.12,4.42,5.25,9.11,6.38,14.09,1.13,4.98,1.3,9.9,.51,14.77-.79,4.87-2.54,9.53-5.24,13.99-2.71,4.45-6.37,8.31-10.99,11.58-3.7,2.61-7.66,4.53-11.88,5.74-4.22,1.22-8.46,1.71-12.7,1.47-4.25-.23-8.38-1.12-12.4-2.67-4.02-1.55-7.69-3.69-11.01-6.42l13.01-14.28Z"/><path class="cls-1" d="M562.13,214.45l-47.57-102.28-34.55,16.07-8.11-17.45,87.06-40.49,8.11,17.45-34.55,16.07,47.57,102.28-17.96,8.35Z"/><path class="cls-1" d="M704.04,27.63l4.72,18.65-58.52,14.8,9.06,35.84,56.69-14.33,4.72,18.65-56.69,14.33,9.16,36.21,58.52-14.8,4.72,18.65-77.72,19.65-32.37-128.01,77.72-19.65Z"/><path class="cls-1" d="M789.77,136.81c-.37-4.01,.72-7.58,3.28-10.72,2.55-3.14,5.83-4.89,9.84-5.26,4.01-.37,7.58,.76,10.73,3.37,3.14,2.62,4.9,5.93,5.27,9.93,.37,4.01-.76,7.55-3.38,10.63-2.62,3.08-5.94,4.81-9.94,5.18-4.01,.37-7.55-.73-10.63-3.28-3.08-2.56-4.8-5.84-5.17-9.85Z"/></svg>