<?xml version="1.0" encoding="UTF-8"?><svg id="_圖層_1" xmlns="http://www.w3.org/2000/svg" viewBox="0 0 351.5 22.86"><defs><style>.cls-1{fill:#fff;}</style></defs><path class="cls-1" d="M23.23,11.63c1.4,.33,2.39,.72,2.95,1.19,.81,.66,1.22,1.52,1.22,2.57,0,1.11-.45,2.03-1.34,2.76-1.1,.88-2.69,1.32-4.79,1.32h-7.51v-.4c.68,0,1.15-.06,1.39-.19s.41-.29,.51-.5,.15-.7,.15-1.5V7.28c0-.8-.05-1.3-.15-1.51s-.27-.37-.52-.5-.71-.19-1.38-.19v-.4h7.09c1.69,0,2.89,.15,3.6,.45s1.26,.75,1.67,1.35,.61,1.24,.61,1.91c0,.71-.26,1.35-.77,1.9s-1.42,1-2.73,1.32Zm-3.97,.56v5.29c-.01,.39,.09,.69,.29,.89s.5,.3,.89,.3c.58,0,1.12-.13,1.61-.39s.87-.63,1.13-1.12,.39-1.04,.39-1.64c0-.69-.16-1.31-.48-1.86s-.76-.93-1.32-1.15-1.4-.32-2.51-.32Zm0-.85c1.03,0,1.79-.12,2.28-.35s.87-.56,1.13-.98,.39-.96,.39-1.61-.13-1.19-.39-1.61-.63-.74-1.11-.95-1.25-.32-2.31-.32v5.82Z"/><path class="cls-1" d="M37.49,19.07v.4h-7.73v-.4h.49c.43,0,.77-.08,1.04-.23,.19-.1,.33-.28,.44-.52,.08-.17,.12-.63,.12-1.37V7.22c0-.76-.04-1.23-.12-1.42s-.24-.35-.49-.5-.57-.21-.99-.21h-.49v-.4h7.73v.4h-.49c-.43,0-.77,.08-1.04,.23-.19,.1-.34,.28-.45,.52-.08,.17-.12,.63-.12,1.37v9.72c0,.76,.04,1.23,.13,1.42s.25,.35,.49,.5,.57,.21,.99,.21h.49Z"/><path class="cls-1" d="M53.21,14.28l-.56,5.19h-13.13v-.4h.49c.43,0,.77-.08,1.04-.23,.19-.1,.33-.28,.44-.52,.08-.17,.12-.63,.12-1.37V7.22c0-.76-.04-1.23-.12-1.42s-.24-.35-.49-.5-.57-.21-.99-.21h-.49v-.4h7.88v.4h-.64c-.43,0-.77,.08-1.04,.23-.19,.1-.34,.28-.45,.52-.08,.17-.12,.63-.12,1.37v9.42c0,.76,.04,1.24,.13,1.44s.26,.36,.51,.46c.18,.07,.62,.1,1.32,.1h1.23c.78,0,1.44-.14,1.96-.41s.98-.71,1.36-1.31,.74-1.48,1.08-2.64h.45Z"/><path class="cls-1" d="M69.22,14.28l-.56,5.19h-13.13v-.4h.49c.43,0,.77-.08,1.04-.23,.19-.1,.33-.28,.44-.52,.08-.17,.12-.63,.12-1.37V7.22c0-.76-.04-1.23-.12-1.42s-.24-.35-.49-.5-.57-.21-.99-.21h-.49v-.4h7.88v.4h-.64c-.43,0-.77,.08-1.04,.23-.19,.1-.34,.28-.45,.52-.08,.17-.12,.63-.12,1.37v9.42c0,.76,.04,1.24,.13,1.44s.26,.36,.51,.46c.18,.07,.62,.1,1.32,.1h1.23c.78,0,1.44-.14,1.96-.41s.98-.71,1.36-1.31,.74-1.48,1.08-2.64h.45Z"/><path class="cls-1" d="M79.31,19.07v.4h-7.73v-.4h.49c.43,0,.77-.08,1.04-.23,.19-.1,.33-.28,.44-.52,.08-.17,.12-.63,.12-1.37V7.22c0-.76-.04-1.23-.12-1.42s-.24-.35-.49-.5-.57-.21-.99-.21h-.49v-.4h7.73v.4h-.49c-.43,0-.77,.08-1.04,.23-.19,.1-.34,.28-.45,.52-.08,.17-.12,.63-.12,1.37v9.72c0,.76,.04,1.23,.13,1.42s.25,.35,.49,.5,.57,.21,.99,.21h.49Z"/><path class="cls-1" d="M87.02,5.54v6.02h.29c.94,0,1.62-.29,2.04-.88s.69-1.46,.81-2.61h.41v7.74h-.41c-.09-.84-.27-1.53-.55-2.07s-.61-.9-.98-1.08-.91-.28-1.61-.28v4.16c0,.81,.03,1.31,.1,1.49s.2,.33,.39,.45,.49,.17,.92,.17h.88c1.38,0,2.49-.32,3.32-.96s1.43-1.61,1.79-2.92h.4l-.67,4.7h-12.78v-.4h.49c.43,0,.77-.08,1.04-.23,.19-.1,.33-.28,.44-.52,.08-.17,.12-.63,.12-1.37V7.22c0-.67-.02-1.08-.05-1.23-.07-.25-.21-.45-.4-.59-.28-.2-.65-.31-1.13-.31h-.49v-.4h12.37v4.37h-.41c-.21-1.07-.51-1.84-.89-2.3s-.92-.81-1.62-1.02c-.41-.13-1.17-.2-2.29-.2h-1.53Z"/><path class="cls-1" d="M121.9,4.35v5.12h-.43c-.32-1.34-.92-2.36-1.79-3.07s-1.86-1.07-2.97-1.07c-.92,0-1.77,.27-2.54,.8s-1.33,1.22-1.69,2.08c-.46,1.1-.69,2.32-.69,3.66s.17,2.53,.5,3.61,.86,1.91,1.57,2.46,1.64,.83,2.77,.83c.93,0,1.78-.2,2.56-.61s1.59-1.11,2.45-2.1v1.28c-.83,.86-1.69,1.49-2.59,1.88s-1.95,.58-3.15,.58c-1.58,0-2.98-.32-4.2-.95s-2.17-1.54-2.83-2.73-1-2.45-1-3.78c0-1.41,.37-2.75,1.11-4.01s1.73-2.25,2.99-2.94,2.59-1.05,4-1.05c1.04,0,2.14,.23,3.29,.68,.67,.26,1.09,.39,1.28,.39,.23,0,.43-.09,.61-.26s.28-.44,.33-.81h.43Z"/><path class="cls-1" d="M132.86,4.48c2.35-.09,4.27,.6,5.74,2.06s2.21,3.29,2.21,5.48c0,1.88-.55,3.52-1.65,4.95-1.45,1.89-3.51,2.83-6.16,2.83s-4.72-.9-6.17-2.7c-1.15-1.42-1.72-3.11-1.72-5.07,0-2.19,.75-4.02,2.24-5.49s3.33-2.15,5.51-2.07Zm.13,.7c-1.35,0-2.38,.69-3.09,2.07-.57,1.13-.86,2.76-.86,4.88,0,2.52,.44,4.39,1.33,5.59,.62,.84,1.48,1.26,2.59,1.26,.75,0,1.37-.18,1.88-.55,.64-.47,1.14-1.21,1.49-2.23s.53-2.35,.53-4c0-1.96-.18-3.42-.55-4.39s-.83-1.66-1.39-2.05-1.21-.6-1.95-.6Z"/><path class="cls-1" d="M148.85,5.54v6.07h.43c.65,0,1.19-.1,1.6-.29s.76-.53,1.05-.99,.47-1.09,.56-1.89h.38v7.42h-.38c-.14-1.4-.51-2.33-1.13-2.77s-1.31-.67-2.09-.67h-.43v4.52c0,.76,.04,1.23,.13,1.42s.25,.35,.49,.5,.57,.21,.99,.21h.49v.4h-7.73v-.4h.49c.43,0,.77-.08,1.04-.23,.19-.1,.33-.28,.44-.52,.08-.17,.12-.63,.12-1.37V7.22c0-.76-.04-1.23-.12-1.42s-.24-.35-.49-.5-.57-.21-.99-.21h-.49v-.4h12.47v4.24h-.45c-.1-1-.36-1.73-.78-2.21s-1.02-.82-1.82-1.01c-.44-.11-1.24-.16-2.42-.16h-1.37Z"/><path class="cls-1" d="M163.61,5.54v6.07h.43c.65,0,1.19-.1,1.6-.29s.76-.53,1.05-.99,.47-1.09,.56-1.89h.38v7.42h-.38c-.14-1.4-.51-2.33-1.13-2.77s-1.31-.67-2.09-.67h-.43v4.52c0,.76,.04,1.23,.13,1.42s.25,.35,.49,.5,.57,.21,.99,.21h.49v.4h-7.73v-.4h.49c.43,0,.77-.08,1.04-.23,.19-.1,.33-.28,.44-.52,.08-.17,.12-.63,.12-1.37V7.22c0-.76-.04-1.23-.12-1.42s-.24-.35-.49-.5-.57-.21-.99-.21h-.49v-.4h12.47v4.24h-.45c-.1-1-.36-1.73-.78-2.21s-1.02-.82-1.82-1.01c-.44-.11-1.24-.16-2.42-.16h-1.37Z"/><path class="cls-1" d="M178.31,5.54v6.02h.29c.94,0,1.62-.29,2.04-.88s.69-1.46,.81-2.61h.41v7.74h-.41c-.09-.84-.27-1.53-.55-2.07s-.61-.9-.98-1.08-.91-.28-1.61-.28v4.16c0,.81,.03,1.31,.1,1.49s.2,.33,.39,.45,.49,.17,.92,.17h.88c1.38,0,2.49-.32,3.32-.96s1.43-1.61,1.79-2.92h.4l-.67,4.7h-12.78v-.4h.49c.43,0,.77-.08,1.04-.23,.19-.1,.33-.28,.44-.52,.08-.17,.12-.63,.12-1.37V7.22c0-.67-.02-1.08-.05-1.23-.07-.25-.21-.45-.4-.59-.28-.2-.65-.31-1.13-.31h-.49v-.4h12.37v4.37h-.41c-.21-1.07-.51-1.84-.89-2.3s-.92-.81-1.62-1.02c-.41-.13-1.17-.2-2.29-.2h-1.53Z"/><path class="cls-1" d="M194.32,5.54v6.02h.29c.94,0,1.62-.29,2.04-.88s.69-1.46,.81-2.61h.41v7.74h-.41c-.09-.84-.27-1.53-.55-2.07s-.61-.9-.98-1.08-.91-.28-1.61-.28v4.16c0,.81,.03,1.31,.1,1.49s.2,.33,.39,.45,.49,.17,.92,.17h.88c1.38,0,2.49-.32,3.32-.96s1.43-1.61,1.79-2.92h.4l-.67,4.7h-12.78v-.4h.49c.43,0,.77-.08,1.04-.23,.19-.1,.33-.28,.44-.52,.08-.17,.12-.63,.12-1.37V7.22c0-.67-.02-1.08-.05-1.23-.07-.25-.21-.45-.4-.59-.28-.2-.65-.31-1.13-.31h-.49v-.4h12.37v4.37h-.41c-.21-1.07-.51-1.84-.89-2.3s-.92-.81-1.62-1.02c-.41-.13-1.17-.2-2.29-.2h-1.53Z"/><path class="cls-1" d="M220.22,12.73v4.14c0,.8,.05,1.3,.15,1.51s.27,.37,.52,.5,.71,.19,1.38,.19v.4h-7.57v-.4c.68,0,1.15-.06,1.39-.19s.41-.29,.51-.5,.15-.7,.15-1.5V7.28c0-.8-.05-1.3-.15-1.51s-.27-.37-.52-.5-.71-.19-1.38-.19v-.4h6.87c1.79,0,3.1,.12,3.92,.37s1.5,.7,2.03,1.37,.78,1.44,.78,2.34c0,1.09-.39,1.99-1.18,2.7-.5,.45-1.2,.79-2.1,1.01l3.55,5c.47,.65,.8,1.05,.99,1.21,.3,.23,.64,.35,1.04,.37v.4h-4.66l-4.76-6.74h-.97Zm0-7.25v6.48h.62c1.01,0,1.77-.09,2.27-.28s.9-.52,1.18-1,.43-1.11,.43-1.89c0-1.13-.26-1.96-.79-2.5s-1.38-.81-2.55-.81h-1.17Z"/><path class="cls-1" d="M240.15,4.48c2.35-.09,4.27,.6,5.74,2.06s2.21,3.29,2.21,5.48c0,1.88-.55,3.52-1.65,4.95-1.45,1.89-3.51,2.83-6.16,2.83s-4.72-.9-6.17-2.7c-1.15-1.42-1.72-3.11-1.72-5.07,0-2.19,.75-4.02,2.24-5.49s3.33-2.15,5.51-2.07Zm.13,.7c-1.35,0-2.38,.69-3.09,2.07-.57,1.13-.86,2.76-.86,4.88,0,2.52,.44,4.39,1.33,5.59,.62,.84,1.48,1.26,2.59,1.26,.75,0,1.37-.18,1.88-.55,.64-.47,1.14-1.21,1.49-2.23s.53-2.35,.53-4c0-1.96-.18-3.42-.55-4.39s-.83-1.66-1.39-2.05-1.21-.6-1.95-.6Z"/><path class="cls-1" d="M259.3,15.26h-5.22l-.62,1.44c-.2,.48-.31,.88-.31,1.19,0,.41,.17,.72,.5,.92,.2,.12,.68,.2,1.45,.26v.4h-4.92v-.4c.53-.08,.97-.3,1.31-.66s.76-1.1,1.26-2.23l5.29-11.8h.21l5.33,12.12c.51,1.15,.93,1.87,1.25,2.17,.25,.23,.6,.36,1.05,.39v.4h-7.15v-.4h.29c.57,0,.98-.08,1.21-.24,.16-.12,.24-.28,.24-.5,0-.13-.02-.27-.07-.4-.01-.07-.12-.34-.33-.82l-.78-1.84Zm-.37-.81l-2.2-5.09-2.27,5.09h4.47Z"/><path class="cls-1" d="M277.74,4.35l.12,4.93h-.45c-.21-1.24-.73-2.23-1.55-2.98s-1.72-1.13-2.68-1.13c-.74,0-1.33,.2-1.76,.59s-.65,.85-.65,1.37c0,.33,.08,.62,.23,.87,.21,.34,.55,.68,1.01,1.01,.34,.24,1.13,.67,2.37,1.28,1.73,.85,2.9,1.65,3.5,2.41,.6,.76,.89,1.62,.89,2.59,0,1.24-.48,2.3-1.44,3.19s-2.19,1.34-3.67,1.34c-.47,0-.9-.05-1.32-.14s-.93-.27-1.56-.53c-.35-.15-.64-.22-.86-.22-.19,0-.39,.07-.6,.22s-.38,.37-.51,.67h-.4v-5.58h.4c.32,1.57,.94,2.77,1.85,3.59s1.9,1.24,2.95,1.24c.81,0,1.46-.22,1.95-.67s.72-.96,.72-1.55c0-.35-.09-.69-.28-1.01s-.47-.64-.84-.93-1.05-.68-2.01-1.15c-1.34-.66-2.31-1.22-2.9-1.69s-1.04-.98-1.36-1.56-.47-1.21-.47-1.9c0-1.18,.43-2.18,1.3-3.01s1.96-1.24,3.27-1.24c.48,0,.94,.06,1.4,.17,.34,.09,.76,.25,1.25,.49s.83,.35,1.03,.35,.34-.06,.45-.17,.21-.4,.31-.84h.33Z"/><path class="cls-1" d="M294.87,4.69v4h-.39c-.23-.92-.49-1.59-.77-1.99s-.67-.72-1.17-.96c-.28-.13-.76-.2-1.45-.2h-1.1v11.4c0,.76,.04,1.23,.13,1.42s.25,.35,.49,.5,.58,.21,1,.21h.49v.4h-7.74v-.4h.49c.43,0,.77-.08,1.04-.23,.19-.1,.34-.28,.45-.52,.08-.17,.12-.63,.12-1.37V5.54h-1.07c-1,0-1.72,.21-2.17,.63-.63,.59-1.03,1.43-1.2,2.52h-.41V4.69h13.28Z"/><path class="cls-1" d="M302.88,5.54v6.02h.29c.94,0,1.62-.29,2.04-.88s.69-1.46,.81-2.61h.41v7.74h-.41c-.09-.84-.27-1.53-.55-2.07s-.61-.9-.98-1.08-.91-.28-1.61-.28v4.16c0,.81,.03,1.31,.1,1.49s.2,.33,.39,.45,.49,.17,.92,.17h.88c1.38,0,2.49-.32,3.32-.96s1.43-1.61,1.79-2.92h.4l-.67,4.7h-12.78v-.4h.49c.43,0,.77-.08,1.04-.23,.19-.1,.33-.28,.44-.52,.08-.17,.12-.63,.12-1.37V7.22c0-.67-.02-1.08-.05-1.23-.07-.25-.21-.45-.4-.59-.28-.2-.65-.31-1.13-.31h-.49v-.4h12.37v4.37h-.41c-.21-1.07-.51-1.84-.89-2.3s-.92-.81-1.62-1.02c-.41-.13-1.17-.2-2.29-.2h-1.53Z"/><path class="cls-1" d="M318.73,12.73v4.14c0,.8,.05,1.3,.15,1.51s.27,.37,.52,.5,.71,.19,1.38,.19v.4h-7.57v-.4c.68,0,1.15-.06,1.39-.19s.41-.29,.51-.5,.15-.7,.15-1.5V7.28c0-.8-.05-1.3-.15-1.51s-.27-.37-.52-.5-.71-.19-1.38-.19v-.4h6.87c1.79,0,3.1,.12,3.92,.37s1.5,.7,2.03,1.37,.78,1.44,.78,2.34c0,1.09-.39,1.99-1.18,2.7-.5,.45-1.2,.79-2.1,1.01l3.55,5c.47,.65,.8,1.05,.99,1.21,.3,.23,.64,.35,1.04,.37v.4h-4.66l-4.76-6.74h-.97Zm0-7.25v6.48h.62c1.01,0,1.77-.09,2.27-.28s.9-.52,1.18-1,.43-1.11,.43-1.89c0-1.13-.26-1.96-.79-2.5s-1.38-.81-2.55-.81h-1.17Z"/><path class="cls-1" d="M340.53,4.35l.12,4.93h-.45c-.21-1.24-.73-2.23-1.55-2.98s-1.72-1.13-2.68-1.13c-.74,0-1.33,.2-1.76,.59s-.65,.85-.65,1.37c0,.33,.08,.62,.23,.87,.21,.34,.55,.68,1.01,1.01,.34,.24,1.13,.67,2.37,1.28,1.73,.85,2.9,1.65,3.5,2.41,.6,.76,.89,1.62,.89,2.59,0,1.24-.48,2.3-1.44,3.19s-2.19,1.34-3.67,1.34c-.47,0-.9-.05-1.32-.14s-.93-.27-1.56-.53c-.35-.15-.64-.22-.86-.22-.19,0-.39,.07-.6,.22s-.38,.37-.51,.67h-.4v-5.58h.4c.32,1.57,.94,2.77,1.85,3.59s1.9,1.24,2.95,1.24c.81,0,1.46-.22,1.95-.67s.72-.96,.72-1.55c0-.35-.09-.69-.28-1.01s-.47-.64-.84-.93-1.05-.68-2.01-1.15c-1.34-.66-2.31-1.22-2.9-1.69s-1.04-.98-1.36-1.56-.47-1.21-.47-1.9c0-1.18,.43-2.18,1.3-3.01s1.96-1.24,3.27-1.24c.48,0,.94,.06,1.4,.17,.34,.09,.76,.25,1.25,.49s.83,.35,1.03,.35,.34-.06,.45-.17,.21-.4,.31-.84h.33Z"/></svg>