<?xml version="1.0" encoding="utf-8"?>
<!-- Generator: Adobe Illustrator 26.5.0, SVG Export Plug-In . SVG Version: 6.00 Build 0)  -->
<svg version="1.1" xmlns="http://www.w3.org/2000/svg" xmlns:xlink="http://www.w3.org/1999/xlink" x="0px" y="0px"
	 viewBox="0 0 628.2 243.6" style="enable-background:new 0 0 628.2 243.6;" xml:space="preserve">
<style type="text/css">
	.st0{display:none;}
	.st1{display:inline;fill:#30231D;}
	.st2{fill:none;stroke:#FFFFFF;stroke-width:1.94;stroke-miterlimit:10;}
	.st3{fill:#FFFFFF;}
</style>
<g id="圖層_2" class="st0">
	<path class="st1" d="M617,245H10c-6.6,0-12-5.4-12-12V14C-2,7.4,3.4,2,10,2h607c6.6,0,12,5.4,12,12v219
		C629,239.6,623.6,245,617,245z"/>
</g>
<g id="_圖層_1">
	<line class="st2" x1="16.1" y1="217.7" x2="605.7" y2="217.7"/>
	<g>
		<path class="st3" d="M114.7,85.4l2.6-2.9l10.6,2.1l-2.7,2.8v17.5h-10.4v-3.6H91.8v3.8H81.5V91.2c-3.6,1.2-7.3,2.3-11.1,2.9
			L70,93.4c4.7-2.8,11.5-7.8,15-11.9l1.4-1.7H70.4v-4.3h59.9v4.3H97.9l-5.6,5.6L114.7,85.4L114.7,85.4z M80,66.2v-6.2h-8.1v-4H80
			v-5.9h-8.7v-4.3h25.7v4.3h-8v5.9h7.3v4h-7.3V65c2.8-0.3,5.6-0.8,8.3-1.4l0.4,0.5c-2,1.5-4,3-6.1,4.4c-4.5,3-13,5.2-18.3,6.3
			L71.2,67C74.2,66.9,77.1,66.7,80,66.2L80,66.2z M114.9,89.7H91.8v7.2h23.1V89.7z M105.3,48.1c0.3-1.4,0.5-3,0.7-4.4h11.1
			c-0.6,0.9-1.1,1.7-1.7,2.5c-1.1,1.5-5,3.4-6.7,4.2h9.8l2.4-2.9l9.4,2.1l-2.5,2.7v21.3h-9.1V71h-10.8v2.5h-8.9V48.2L105.3,48.1
			L105.3,48.1z M118.6,54.7h-10.8v3.6h10.8V54.7z M118.6,66.9v-4.5h-10.8v4.5H118.6z"/>
		<path class="st3" d="M166.4,69.5v-4.7H154V60h12.4v-9.1c-4-0.3-8-0.8-12-1.6v-0.9c6.9-0.6,13.4-2.1,19.9-4.6l13.4,4.2
			c-3.7,1.4-7.6,2.3-11.5,2.7v9.3h9.9v4.7l-9.9,0.1v7.9c3.9,1.2,11,2,11.5,8.7c0.1,2.3-2.5,3.8-4.5,3.9c-2.7,0.1-3.6-2.1-4.5-4.9
			c-0.6-1.9-1.4-3.4-2.5-5.1v29.9h-9.8V86.3c-4.1,6.2-6.2,8.8-12,13.5l-0.8-0.4c3-5.8,4.3-9.1,5.8-15.6c0.5-2.3,0.9-4.7,0.9-7.1
			v-7.3H166.4L166.4,69.5z M198.2,49.4v43.9h-9.1V49.4L198.2,49.4L198.2,49.4z M213.1,43.4l-0.1,54.2v2.2c0,3.9-3.8,4.7-6.9,5
			c-2.1,0.3-4.2,0.4-6.4,0.4c-0.4,0-1.5,0.1-1.9-0.2c-0.3-0.2-0.3-1-0.3-1.4c-0.1-1-0.6-1.9-1.2-2.8c-1-1.6-5.4-2.3-7.1-2.5v-0.9
			c3.4,0.3,6.9,0.6,10.4,0.6c3.2,0,3.6-0.1,3.6-3.3V43.4L213.1,43.4L213.1,43.4z"/>
		<path class="st3" d="M240.8,89.9V49.8h-2.1v-3.9h19.8v3.9h-1.9v14.6H269c1.1-2.9,1.8-6,2.3-9.1l7.3,1.5c-1.8,2.9-3.7,5-6,7.5h6.7
			c-0.3-3.6-0.3-7.2-0.4-10.7c-0.1-3.4-0.3-6.8-0.3-10.2h7.7c-0.1,1.8-0.1,3.5-0.2,5.2c3.5,0.8,6.4,1.3,9.5,3.4
			c1.4,0.9,2.3,3.1,2.3,4.3c0,2.3-1.6,3.4-3.8,3.4c-3.8,0-4.7-3.6-5.8-6.3c-0.5-1.5-1.1-1.9-2.2-3.1c0.2,4.7,0.1,9.3,0.3,13.9h11
			v3.9h-11c0,2.3,0.3,4.5,0.5,6.8c0.1,2,0.3,3.9,0.8,5.9c1.3-3.2,2.1-6.9,2.5-10.4l7.8,1c-1.3,4.5-3,9.5-5.9,13.1l-3,3.7
			c0.5,1.4,1.4,3.8,2.2,4.9c0.1,0.2,1,1.3,1.2,1.3c0.4,0,0.7-1.2,0.8-1.4c0.8-3,1.6-6,2.3-9.1h1.4c-0.3,2.6-0.5,5.2-0.5,7.8
			c0,5,3.2,2.9,3.2,5.7c0,1.2-1,2.9-1.4,4.1c-0.7,1.7-1.7,3.8-3.9,3.8c-1.1,0-2.4-1-3.2-1.6c-3.8-2.9-5.6-6.2-7.8-10.4
			c-1.9,1.5-3.8,2.9-5.8,4.3v4.3h-6.8v-3.2H267v3.3h-7.1V71.7h7.1v1.9h3.4l2.5-2.8l6.8,2.5c-0.2-1.7-0.3-3.3-0.4-5h-22.6v18
			c0.8-0.1,1.7-0.4,2.5-0.7l0.3,1c-0.9,0.8-1.9,1.5-2.9,2.2v16.7h-6.3V92.3c-3.9,1.9-7.8,3.7-11.8,5.3l-1.3-6.9
			C238.4,90.5,239.6,90.2,240.8,89.9L240.8,89.9z M250.3,49.8h-2.9v9.3h2.9V49.8z M250.3,63h-2.9v10.1h2.9V63z M250.3,87.7V77.2
			h-2.9v11.3C248.3,88.3,249.3,88,250.3,87.7L250.3,87.7z M257.8,51.3h7.9c-0.2-0.1-0.7-1.2-0.9-1.4c-0.8-1,0-4.6-1.2-5.9l-0.8-0.8
			l0.4-0.5c2.1,0.3,6.6,1.2,8,3c0.7,0.8,1.4,1.9,1.4,3c0,1.4-0.6,1.7-1.6,2.7h7.1v3.9h-17c2.2,1,6.5,2.1,6.6,5.7
			c0.1,2-2.2,3.1-3.9,3.1c-1.2,0-3.2-0.5-3.4-1.9c-0.3-1.5-0.1-3-0.6-4.5c-0.3-0.8-0.6-1.7-0.9-2.4h-0.9V51.3L257.8,51.3z
			 M270.7,83.6v-6H267v6H270.7z M270.7,94.8v-7.2H267v7.2H270.7z M282,90.1c-1.6-5.2-2-11.1-2.3-16.4l-2.2,2.1v19.4
			C279.2,93.5,280.6,91.9,282,90.1L282,90.1z"/>
		<path class="st3" d="M325.2,99.5c2.8-3.6,4.9-8,6.9-12.2c5.5-10.9,8.6-19.4,11.4-31.3c0.7-2.9,1.3-5.8,1.6-8.8l0.3-3.9l12.1,0.2
			c-0.7,2.8-1.2,5.6-1.9,8.4c3.8,12.7,13.6,31,23.2,40.1c1.6,1.4,3.3,2.8,5.1,3.8l-0.3,0.8c-1.7,0.1-4.1,0.5-5.1,2.1
			c-0.5,0.8-1.2,2-1.2,3c0,0.9,0.3,1.8,0.5,2.6l-1,0.5c-4.5-4-8.5-8.5-11.6-13.7c-3.8-6.3-7-12.3-8.9-19.5
			c-1.2-4.3-1.6-8.7-2.3-13.2c-0.7,2.7-1.4,5.3-2.2,8c-1.3,4.5-3.6,8.8-5.9,12.8c-5.3,9.2-9.8,14.9-18,21.6c-1.9,1.5-4,3-6.1,4.4
			l-0.7-0.6C322.5,102.9,323.9,101.2,325.2,99.5L325.2,99.5z"/>
		<path class="st3" d="M430.3,52.2c-1.1-1.5-1.8-2.3-3.2-3.6l0.7-0.5c2.5,0.8,4.5,1,6.9,1.7c2.7,0.8,4.5,2.3,4.5,5.2
			c0,2-1.1,3.4-3.2,3.4c-3,0-3.3-1.7-4.3-4c-7.5,1.6-15.2,2.9-22.9,4l-2.4-5.6c3.8-0.8,5.9-1.4,8.5-4.4c0.8-0.8,1.5-1.7,2-2.8
			l1.1-2.3l12.9,0.4c-5.4,4.8-9.8,6.7-16.4,9.3C419.8,52.9,425.1,52.8,430.3,52.2L430.3,52.2z M416.3,86.1c0.6,2.5,1.3,5.2,1.3,7.8
			c0,3.6-1,7.4-4.9,7.4c-2.4,0-5.4-2.8-3.6-5.2c1.2-1.4,2-1.7,3.2-3.1c1.9-2.1,2.3-4.3,2.9-6.9L416.3,86.1L416.3,86.1z M418.6,59.2
			v1h10.1l2.5-2.8l8.6,2.4l-2.3,2.1v19.5c0,2-0.6,2.4-2.2,3.4c1.6,0.6,3.7,0.6,5.6,1.7c1.7,1,2.8,2.3,3,4.3c0.3,3.1-2.3,4-4.2,4
			c-4.5,0-3.2-3.4-4.2-6.5c-0.3-1-1.1-2.1-1.7-2.9c-1.2,0.1-2.4,0.3-3.6,0.3c-2.3,0-0.5-2-2.2-3.4c-0.8-0.6-4-1.2-5-1.3v-1
			c1.2,0.1,2.5,0.3,3.8,0.3c2.8,0,2.2-0.6,2.2-3.2h-10.4v7.5h-8.4V59.2H418.6L418.6,59.2z M429,66.5v-2.8h-10.4v2.8H429z M429,73.2
			v-3h-10.4v3H429z M430.8,86.1v9.3c0,0.5,0,1.4,0.4,1.8c0.8,0.8,4.4,0.7,5.6,0.7c2.5,0,6.2,0.2,8.4-1c1-0.6,1.6-2.1,2-3.2
			c0.7-2.1,1.3-4.2,1.9-6.3l1.3,0.1c-0.1,1.9-0.3,3.8-0.3,5.8c0,4.3,3.8,2.5,3.8,4.2c0,0.3-0.1,0.7-0.3,1c-0.8,1.7-2.1,3.2-3.8,4.1
			c-2.2,1.1-8.9,1.1-11.3,1.1c-2.3,0-4.7-0.1-7-0.1c-4.7-0.1-10.4,0.2-10.4-6V86.1L430.8,86.1L430.8,86.1z M449.7,50.1
			c2.6-1.4,4.7-3,7.1-4.8l6.6,4.5c-4.4,1.5-9.1,2.5-13.7,3.3v3.3c0,0.5,0.1,1.1,0.5,1.4c0.5,0.3,3.4,0.3,4.1,0.3
			c2.6,0,4.8,0.3,5.6-2.6c0.4-1.4,0.7-2.8,0.9-4.3h1.2c0.1,1.5,0.1,3,0.5,4.4c0.6,2.2,3.9,0.5,3.9,2.3c0,0.3-0.2,0.8-0.3,1.1
			c-0.3,0.7-0.8,1.6-1.4,2.2c-1.9,1.8-8,1.6-10.4,1.6h-0.4c-1.9,0-8.2,0-9.9-0.7c-2.3-1-2.7-2.1-2.7-4.5V44.1h8.4L449.7,50.1
			L449.7,50.1z M449.7,64.3v5.5c3.3-1.3,6.2-3.3,9-5.5l4.6,5.3c-5,1.4-8.4,1.8-13.6,2.4v5.2c0,2.3,1.6,1.8,3.6,1.8
			c1.1,0,3.1,0,3.9-0.4c1.6-0.9,2.5-5.9,2.9-7.6l1.2,0.1c0,1.4-0.2,2.8-0.2,4.1c0,4,3.6,1.7,3.6,3.7c0,0.5-0.4,1.4-0.7,1.8
			c-1.9,3.8-6.6,3.3-10.2,3.3c-3,0-8.5,0.3-11-1.2c-1.4-0.9-1.6-3.1-1.6-4.6V64.3L449.7,64.3L449.7,64.3z M453.5,86.3
			c2.8,1.5,5.6,2.3,8.2,4.1c2,1.5,3.7,3.2,3.7,5.8c0,2.8-1.8,5-4.5,5c-3.6,0-3.7-2.1-3.9-5c-0.1-0.9-0.1-1.8-0.3-2.7
			c-0.5-2.9-2-4.6-3.8-6.7L453.5,86.3L453.5,86.3z"/>
		<path class="st3" d="M505.6,47.7v2.7h15.3c-3-1.2-1.3-3.8-3.3-5.4l-1.1-0.9l0.3-0.8c1.3-0.1,3-0.8,4.3-1c1.8-0.3,4.1,0.1,5.6,0.6
			c1.7,0.5,3.6,2.2,4.3,3.5c0.5,1,0.1,3-1.4,3.9h21.9v4.3h-46v6.5h5.4v-4.3h9.4v4.3h10.9v-4.3h10v4.3h8.7v4.4h-8.7v11h-10v-1.4
			h-10.9v1.4h-9.4v-11h-5.4c-0.1,5.1-0.1,10.4-0.4,15.5c-0.2,2.7-0.5,5.3-1,8c-1.3,6.5-7.5,12-12.8,15.4l-0.5-0.5
			c0.7-1.4,1.3-2.9,1.9-4.3c1.8-4.2,2.3-11.8,2.3-16.5V47.7H505.6L505.6,47.7z M506.9,83.9v-4.4h26l2.5-2.5l12,1.9l-3.6,2.5
			c-2.6,4.8-6,9.5-10.2,13c6.1,1.7,12.1,2.3,18.3,2.7l-0.1,0.9c-2.2,0.7-4.1,1.5-4.1,4.2c0,1.1,0.7,1.9,1.3,2.8l-0.3,0.5
			c-4.1-0.4-8.2-1.1-12.3-2.2c-2.2-0.6-4.5-1.2-6.6-2.2l-3.6-1.7c-10.2,4.3-18.5,5.1-29.4,5.3l-0.2-0.7c8.5-1.8,15.8-4.3,23.2-9
			c-4.1-3.5-5.7-6.2-7.6-11.2L506.9,83.9L506.9,83.9z M525.3,91.2c2.5-2.3,4.3-4.5,6.1-7.3H515C518.3,87,521.2,89.2,525.3,91.2
			L525.3,91.2z M531.2,70.9v-5.3h-10.9v5.3H531.2z"/>
		<path class="st3" d="M42.1,138.7v2.8h16.6l-0.3-8.9h9.8l0.3,8.9h19.6v4.4H68.7c0.1,4.1,0.6,8.1,1,12.1c0.3,2.2,0.5,4.5,1,6.7
			l1.1,4.4c0.8-2.8,1.7-5.6,2.1-8.4c0.6-3.2,0.9-6.4,1.2-9.7h9.8c-1,8.6-2.1,17.5-6.9,25l-1.9,3c0.6,1.1,3.6,5.5,4.7,5.5
			c1.2,0,2.8-5.9,3.1-7.2l1.2,0.1c-0.1,1-0.1,1.9-0.1,2.9c0,4.2,3,3.8,3.6,4.5c0.1,0.1,0.1,0.4,0.1,0.6c0,0.6-0.2,1.2-0.3,1.7
			c-0.8,4.1-2.9,7-7.4,7c-2.5,0-4.5-1-6.3-2.7c-1.8-1.8-3.6-3.7-5.1-5.7c-4.9,3.6-10.4,6.1-16.1,8.2l-0.5-0.6
			c6-4.4,8.7-7.3,13.3-13.1c-6.2-13-5.9-20.2-7.2-34.2H42.2v8.7h4.7l2.8-2.5l10,2.2l-2.9,2.4v26.3c0,1.3-0.5,2.5-1.2,3.6
			c-1.1,1.5-3.5,1.9-5.2,2.1c-1.4,0.1-2.9,0.3-4.3,0.3c-3.1,0,0.1-4.7-7.3-6l0.1-0.9c1.8,0.1,3.6,0.3,5.3,0.3c2,0,3,0.1,3-2.3v-20.8
			h-5c-0.3,5.1-0.4,10.7-1.8,15.6c-0.6,2.3-1.7,4.5-2.8,6.7c-1.8,3.8-5.6,7.3-8.9,9.8l-0.7-0.3c3.6-6.7,4-16.5,4-24.1v-28.4
			L42.1,138.7L42.1,138.7z M70.2,132.4c3.8,0.1,10.8-0.6,13.7,2.3c0.6,0.6,1,2.5,0.8,3.4c-0.6,1.6-3.4,2.8-4.5,2.4
			c-2.9-0.8-4.2-2.8-6.3-4.9c-1.1-1.1-2.5-1.9-3.9-2.4L70.2,132.4L70.2,132.4z"/>
		<path class="st3" d="M123.6,172.4c-0.4,1.6-0.9,3.3-1.4,4.9c-1.8,5.7-5.6,9.5-10.1,13.2l-0.9-0.4c3.2-6.7,3.4-10.9,3.7-18.1
			L123.6,172.4L123.6,172.4z M124.5,140.3c-2.9-2.5-0.6-4.7-3.2-6.4L120,133l0.3-0.8c3-0.8,6.2-1.4,9.3,0c2.2,1,3.1,2.8,3.2,4.3
			c0.1,1.9-1.2,3.2-2.6,3.8h13.5v4.4h-30.9v-4.4L124.5,140.3L124.5,140.3z M115.2,147.7h9.3v1.6h6.7l2.8-2.8l9.3,2.1l-2.4,2.7v16.3
			h-9.4v-1.9h-7v1.9h-9.3L115.2,147.7L115.2,147.7z M121.6,187.1c1.4,0,2.5,0.1,2.5-1.8v-16.8h9v3.4c4.6,1,10.6,2.5,10.9,7.2
			c0.3,4.7-2.3,5.1-4.3,5.1c-3.9,0-3.5-4.1-4.1-6.8c-0.5-1.9-1.3-2.8-2.5-4.2v14.8c0,1-0.1,2.1-0.9,2.9c-1.4,1.4-6.2,2.2-8.3,2.2
			c-3.5,0-1.8-1.6-3.4-3.6c-0.5-0.6-1-1-1.7-1.2c-0.7-0.2-1.4-0.3-2.1-0.6l0.1-0.8C118.5,186.9,120.1,187.1,121.6,187.1L121.6,187.1
			z M131.5,153.8h-7v7.6h7V153.8z M147.8,165.4c0.3-4.8,0.4-9.6,0.6-14.4h-4.9v-4.7h4.9v-13.5h9.1v13.5h14.1v4.7h-14.1v5.8h7.3v26.6
			c0,0.2,0,1.2,0.3,1.2c0.2,0,0.5-0.1,0.7-0.2c1.4-0.8,3.7-7.6,4.3-9.4l1.2,0.2c-0.6,2.1-1,4.1-1,6.2c0,2.8,2.7,2.3,2.7,3.4
			c0,0.4-0.2,0.8-0.3,1.2c-2.1,4.5-4.1,7.1-9.5,7.1c-4.3,0-7.6-1.3-7.6-6.2v-13.7c-0.7,1.9-1.5,3.8-2.4,5.6
			c-3.2,6.1-8.9,10.4-14.3,14.1l-1-0.5C145.4,184.1,147.2,176.5,147.8,165.4L147.8,165.4z M171,140.9c0,2.1-1.6,3.9-3.6,3.9
			c-4.7,0-4.3-3.4-5.8-6.9c-0.6-1.2-1.6-2.3-2.5-3.2l0.7-0.6C163.4,135,171,136.2,171,140.9L171,140.9z"/>
		<path class="st3" d="M199.4,141c2.6,3.8,4.2,8,4.2,12.8c0,1.9,0.2,2.9,0,4.9c-0.1,1.5-1.9,2.1-3.2,2.1c-1.4,0-3.4-0.7-3.8-2.1
			c-0.6-1.6-0.1-3.7,0.6-5.3c1.2-2.9,1.9-6.1,1.9-9.3c0-1-0.1-2-0.2-3L199.4,141z M213.1,132.6v8.6c3.4,1.9,6.6,4.1,6.6,8.2
			c0,1.9-1,3.5-3,3.5c-1.6,0-2.8-0.8-2.8-2.5c0-1.2,0.3-2.3,0.3-3.4c0-2.1-0.2-3-1.1-4.8v51.5h-8.5v-61.1L213.1,132.6L213.1,132.6z
			 M227.8,138.1v2.2h11.7c-1.1-0.8-1.7-1.4-2.1-2.1c-1-1.9-0.5-3.6-3.4-5.8l0.1-0.5c0.6,0,1.3,0,2.3,0.1c2.8-0.7,5.6-0.8,7.8,0.8
			c1.2,0.9,2,2.7,1.8,3.9c-0.3,1.6-1.5,2.9-2.8,3.6h13.2v4.5h-28.6v20.7c0,7.5-1.2,12.1-5,18.5c-1.8,2.9-5.7,6.4-8.2,8.6l-0.6-0.4
			c0.8-1.4,1.6-2.8,2.3-4.2c2.8-5.5,3.7-16.2,3.7-22.4v-27.5L227.8,138.1L227.8,138.1z M228.2,167h8.2v1.9h1.3v-22.3h8.3v8.2h9.6
			v4.4h-9.6v9.7h0.6l2.5-3.2l8.5,2.5l-2.7,2.5v22.7h-8.2v-3.5h-10.4v3.6h-8.2L228.2,167L228.2,167z M246.8,185.7l-0.1-12.4h-10.4
			v12.4H246.8L246.8,185.7z"/>
		<path class="st3" d="M289.7,135.5c-0.7-2.1-1.2-2.3-2.9-3.9l0.5-0.5c3.6,0.5,8.4-0.1,11.1,2.6c0.6,0.7,1.5,2.3,1.5,3.2
			c0,2.2-1.4,3.6-3.3,4.1h9.3v4.4h-25.3V141h13C290.6,139.9,290.8,138.7,289.7,135.5L289.7,135.5z M306,149.5v4.4h-23.3v-4.4H306z
			 M305,162.4h-22.3V158H305V162.4z M296.9,168.9l2.9-2.9l9.3,1.9l-3.1,2.9v19.8h-8.9v-2.9h-5.2v2.9h-8.9v-23.2h8.9v1.6L296.9,168.9
			L296.9,168.9z M291.9,173.1v10.3h5.2v-10.3H291.9z M326.9,161.9h-6.6v21.6c0,0.7,0.1,1.3,0.8,1.6c0.9,0.7,4.7,0.9,5.9,0.9
			c1.8,0,4.3-0.1,5.6-1.6c2.8-3.2,3.6-7.8,5.4-11.5l1.1,0.1c-0.4,2.6-0.9,5.4-0.9,8c0,3,3,3,4.1,4.2c0.2,0.2,0.3,0.6,0.3,0.9
			c0,1.1-0.5,1.9-1.1,2.7c-3.1,4.2-10.9,3.9-15.5,3.9c-2.5,0-9.1-0.1-11.3-1.2c-3-1.5-4.1-3.1-4.1-6.4v-29.5h9.9v2h6.6v-17.1h-18.3
			V136h18l3.2-3.4l10.4,2.3l-3.4,3.1v26.4h-9.8L326.9,161.9L326.9,161.9z"/>
		<path class="st3" d="M387.2,132.6c-2.4,4.9-5.7,8.6-10.2,11.7l5.6,0.1l2.3-2.5l10.7,1.7l-3.1,2.7v46.2h-9.7v-4.2h-7.2v4.2h-9.4
			v-49.5h7.4c1-3.4,1.6-6.7,2-10.2L387.2,132.6L387.2,132.6z M382.9,163.2v-14.6h-7.2v14.6H382.9z M382.9,167.4h-7.2v16.3h7.2V167.4
			z M405.9,143.7h5.4l2.5-2.8l10.6,2.2l-2.8,2.5c0,10.7-0.1,21.4-0.2,32.1c0,2.9,0,5.8-0.1,8.6c-0.1,1.2-0.2,2.6-0.8,3.6
			c-1.7,3.3-9.2,3.8-12.5,3.8s-0.9-2.7-3.8-4.8c-1.9-1.3-5.1-1.6-7.3-1.9v-0.9c2.2,0,4.4,0.1,6.6,0.1c1.5,0,6,0.3,7.1-0.8
			c0.5-0.5,0.4-1.3,0.4-1.9c0-1,0.1-2.1,0.1-3.2c0.2-4.5,0.1-9.2,0.1-13.7c0-6.1,0.1-12.1,0.1-18.3h-9.3c-2.5,2.6-5.3,4.9-8.2,7
			l-0.7-0.4c3.8-6.9,5.4-14.6,5.9-22.3l10.7-0.1C409,136.5,407.8,140.1,405.9,143.7L405.9,143.7z M395,156.5
			c3.1,1.7,10.3,4.5,12.3,7.5c0.8,1.2,1.9,3.2,1.9,4.7c0,2.5-2.5,4.9-4.9,4.9c-4,0-4.6-2.8-5.2-5.9c-0.4-2.2-1-4.3-2-6.4
			c-0.8-1.6-2.1-2.8-3-4.3L395,156.5L395,156.5z"/>
		<path class="st3" d="M471.9,150.6c-6.5,9.4-14.3,12.5-24.4,16.5l-0.5-0.4c5.8-4.9,8.8-9.3,11.9-16.1H471.9z M482.9,143.9h25.5v4.4
			h-25.5v16.4h-10.3v-16.4h-25.3v-4.4h25.3V140c-7.8-0.3-15.4-1.2-23.1-2.9v-0.8c13.8-0.3,27.5-1.5,41-4.5l13.4,5.6
			c-7.1,1.4-13.8,2.1-21,2.6V143.9L482.9,143.9z M464.9,164.2v2.2h25l2.6-2.6l11,2.1l-3,2.9v24.6H490v-3.3h-25.1v3.6h-10.2v-29.5
			L464.9,164.2L464.9,164.2z M490,170.8h-25.1v5.1H490V170.8z M464.9,180.2v5.4H490v-5.4H464.9z M509.4,158.5
			c-3.4,1.2-5,3.8-2.8,6.9l-0.5,0.5c-9.2-1.6-17.9-7-20.9-16.1l1.6-0.2c8,6,12.8,7.3,22.6,8.3L509.4,158.5L509.4,158.5z"/>
		<path class="st3" d="M553.5,135.4h37.1v4.3h-40.2c-1,1.1-2.1,2.1-3.1,3.2h40.3v4.3h-43.1v-2.1c-3.8,2.5-7.9,4.6-12.1,6.6l-0.5-0.6
			c5.3-5,10.3-12.5,12.2-19.6l11,0.3C554.6,133.2,554.1,134.3,553.5,135.4L553.5,135.4z M534.7,172.4v-4.3h17.5v-12.5h9.6v11.8
			c2.1-3.5,3.4-6.9,4.6-10.7l9.5,1.7c-4,4.8-6.7,6.7-12.2,9.7h11.7v4.3h-13.7v1.9c4,0.8,13.5,3.6,13.4,8.9c0,2.5-1.8,4.3-4.4,4.3
			c-3.9,0-4.4-2.5-5.2-5.6c-0.8-2.9-1.8-3.6-3.8-5.6v16.9h-9.6v-14.9c-5.4,6.7-10.6,9.5-18.4,12.9l-0.5-0.6
			c5.2-4.8,8.3-9.8,10.4-16.5h8.5v-1.7L534.7,172.4L534.7,172.4z M576.7,150.8l3.2-3l8.8,2.5l-3,2.4c-0.2,6-0.3,12-0.3,18
			c0,2,0.5,12.6,2.2,12.6c0.1,0,1.1-2.5,1.2-2.8c1-2.3,1.8-4.6,2.8-6.9l0.9,0.3c-0.3,1.8-1.3,5.8-1.3,7.5c0,3.2,2.5,2.9,2.5,4.5
			c0,0.3-0.1,0.6-0.1,0.9c-0.5,2.1-1.7,7.1-4.4,7.1c-2.2,0-5.8-2.4-7.2-4c-5.1-5.8-4.9-12.2-4.9-19.7c0-5.1,0.1-10.1,0.1-15.2h-39.8
			v-4.3L576.7,150.8L576.7,150.8z M538.7,157.1c2.5,0.5,5.1,1,7.5,1.8c2.1,0.7,4.9,2.1,4.9,4.7c0,2.5-2.2,3.7-4.4,3.7
			c-3.4,0-4-2.2-4.9-4.8c-0.8-2.3-1.9-3.3-3.6-4.9L538.7,157.1L538.7,157.1z"/>
	</g>
</g>
</svg>
