<?xml version="1.0" encoding="UTF-8"?><svg id="_圖層_1" xmlns="http://www.w3.org/2000/svg" viewBox="0 0 82.79 11.42"><defs><style>.cls-1{fill:#0068a4;}.cls-2{fill:#fff;}</style></defs><path id="line" class="cls-1" d="M13.04,7.64c.08-.02,.27-.05,.29-.05,.05,0,.2-.04,.24-.08,.04-.03,.04-.05,.03-.13-.03-.12-.07-.13-.36-.06-.13,.03-.25,.06-.26,.06-.01,0-.05,0-.1,.01s-.09,.01-.1,0c-.01,0-.04,.03-.07,.07-.03,.05-.04,.05-.03,.02,.02-.07,0-.07-.15-.04-.07,.01-.13,.02-.14,0-.02-.03-.2,.02-.21,.06,0,.02-.02,.02-.04,0-.02-.02-.07-.02-.11,0-.04,.01-.1,.02-.13,.01-.03,0-.08,0-.12,.03-.03,.02-.06,.03-.06,.01,0-.01-.03-.01-.07,0-.04,.01-.08,.01-.09,0-.01,0-.04,0-.07,.01s-.06,.02-.08,.02c-.03,0-.13,0-.39,.06-.1,.02-.26,.04-.35,.05-.09,0-.18,.03-.2,.05-.02,.02-.05,.02-.06,0-.01-.02-.05-.01-.08,0-.03,.02-.07,.03-.08,.03-.03,0-.07,0-.21,.03-.04,.01-.09,.01-.11,0-.02,0-.05,0-.06,.02,0,.02-.06,.02-.1,.02s-.12,0-.16,.02c-.04,.01-.24,.05-.43,.08-.19,.03-.42,.08-.51,.1-.09,.02-.18,.04-.2,.04-.05,0-.52,.1-.55,.12,0,0-.04,.01-.06,.01-.02,0-.07,.01-.09,.03-.03,.01-.07,.01-.08,0-.02-.02-.03,0-.03,.03,0,.03-.02,.07-.06,.09-.08,.05-.08,.02,0-.03,.07-.05,0-.07-.08-.03-.04,.02-.07,.02-.08,0,0-.01-.04,0-.08,.02-.13,.08-.17,.1-.17,.06,0-.05-.2,0-.21,.06,0,.03-.03,.04-.05,.03s-.03-.02-.02-.04c.04-.04-.01-.04-.1,0-.05,.02-.1,.04-.12,.03-.02,0-.04,0-.03,.04,0,.03,0,.05-.02,.04-.01,0-.02-.02-.02-.05,0-.03-.04-.03-.12,0-.07,.02-.13,.03-.15,.03-.02,0-.07,0-.11,.03s-.1,.03-.11,.01c-.02-.02-.04,0-.04,.02s-.03,.04-.05,.02c-.02-.02-.04-.02-.06,0-.01,.01-.05,.02-.08,.01-.03,0-.05,0-.05,.02,0,.02-.02,.04-.04,.06-.04,.02-.05,.02-.02-.02,.03-.04,.02-.04-.1-.02-.07,.01-.16,.04-.19,.06-.03,.02-.06,.02-.07,.01,0-.01-.02,0-.02,.02,0,.02-.02,.03-.02,.01,0-.01-.03-.02-.05,0-.02,0-.1,.02-.18,.03-.1,.01-.14,.03-.14,.07,0,.04,0,.04-.03,0-.03-.05-.12-.05-.13,0,0,.01-.03,.02-.05,.02-.04-.01-.87,.17-.91,.2,0,0-.12,.03-.25,.05-.13,.02-.27,.06-.32,.08-.05,.02-.13,.04-.18,.04-.05,0-.09,.02-.1,.03,0,.02-.08,.03-.18,.03-.02,0-.08,.02-.13,.04-.05,.02-.11,.04-.13,.03-.02,0-.05,0-.07,.01-.02,.01-.18,.05-.35,.09-.35,.08-.42,.14-.38,.32,.03,.17,.17,.16,1.05-.09,.16-.05,.3-.09,.31-.11,.01-.01,.03-.02,.04-.01,.04,.02,.29-.05,.28-.09,0-.02,0-.03,.02,0,.02,.03,.91-.17,1.03-.23,.03-.02,.17-.05,.3-.07,.14-.02,.27-.06,.3-.07,.03-.02,.08-.03,.11-.02,.03,0,.06,0,.06-.02,0-.02,.02-.03,.05-.02,.06,.02,.2-.03,.19-.06,0-.02,0-.02,.01,0,.03,.03,.34-.03,.39-.09,.02-.02,.04-.02,.05,0,.01,.01,.06,0,.11,0,.05-.02,.13-.04,.18-.04,.05,0,.09-.02,.09-.05,0-.02,.02-.02,.03-.01,.02,.02,.05,.01,.08,0,.05-.03,.07-.03,.18-.02,.03,0,.09-.01,.14-.04,.05-.02,.1-.03,.1-.02,0,.01,.05,0,.1-.01,.15-.05,.17-.07,.16-.14-.02-.09,.02-.07,.05,.03l.03,.08,.08-.07c.05-.04,.09-.05,.12-.03,.02,.02,.04,.02,.05,0,0-.02,.03-.02,.04,0,.02,.02,.05,.01,.06-.01,.02-.03,.04-.03,.06-.02,.02,.01,.17,0,.33-.04,.17-.04,.31-.06,.32-.06,.04,0,.35-.07,.37-.09,0,0,.03-.01,.05,0,.02,0,.17-.02,.34-.05s.39-.08,.49-.1c.1-.02,.2-.04,.22-.03,.01,0,.05,0,.07-.03,.02-.02,.05-.03,.06-.01,.01,.01,.03,.01,.04,0,.01-.01,.05-.02,.08-.01s.07,0,.1-.02c.03-.02,.12-.04,.2-.04,.09,0,.16-.02,.16-.04,0-.02,.02-.02,.03,0,.01,.01,.07,.01,.13,0,.06-.02,.1-.04,.09-.06-.01-.02-.02-.05-.01-.08,.01-.04,.02-.04,.04,.02,.03,.07,.07,.09,.09,.05,0-.02,.03-.01,.06,0,.03,.02,.05,.02,.06,0,0-.02,.02-.03,.02-.02,.01,.03,.21,0,.28-.04,.03-.01,.06-.02,.08-.02,.08,.02,.28-.01,.27-.04,0-.02,0-.02,.03,0,.04,.03,.15,.01,.14-.03,0-.02,0-.03,.02-.03,.02,0,.02,.02,.02,.04,0,.02,0,.03,.02,.02,.02,0,.03-.03,.02-.05,0-.02,0-.03,.03,0,.02,.02,.05,.02,.06,0,.01-.01,.04,0,.06,0,.02,.02,.07,.01,.11-.01,.04-.02,.08-.04,.08-.03,.04,.03,.15,.01,.16-.03,0-.02,.03-.03,.06-.01,.06,.04,.27,0,.28-.04,0-.02,.02-.02,.03,0,.01,.02,.04,.02,.07,0,.03-.01,.06-.01,.07,0,.01,.02,.03,.01,.03,0,0-.02,.03-.03,.05-.02,.02,0,.07,0,.09,0Zm-6.8,1.19s-.03,0-.04-.03c-.02-.04-.01-.04,.02-.01,.02,.02,.03,.04,.02,.05Zm.39-.15s-.03,0-.04-.03c-.02-.04-.01-.04,.02-.01,.02,.02,.03,.04,.02,.05Zm.15-.04c-.05,.02-.05,.02,0-.02,.05-.04,.07-.05,.07-.02,0,0-.03,.02-.06,.04Zm.14,.03s-.03-.02-.02-.03c.01-.01,.02-.02,.03-.02,0,0,.01,.02,.02,.03,0,.02,0,.03-.03,.02Zm5.02-1.02s-.02-.02-.02-.04c0-.02,.02-.03,.04-.02,.02,0,.02,.02,.02,.04,0,.02-.02,.03-.04,.02Zm1.47,.99s-.03,0-.05,.03c-.02,.04-.1,.06-.31,.07-.27,0-.28,0-.3-.06-.02-.07,0-.13,.04-.08,.01,.02,.04,0,.05-.03,.02-.03,.05-.06,.07-.05,.02,0,.06,0,.08-.03,.02-.02,.05-.03,.05-.02,0,0,.08,0,.16-.03,.16-.06,.32-.02,.3,.06,0,.02,0,.07,0,.09,.01,.05-.06,.1-.09,.05Zm-1.46-.05s-.07,.03-.06,.05c0,.02,0,.03-.02,.03-.02,0-.03,0-.01,.05,.02,.06,.1,.08,.17,.04,.04-.02,.05-.04,.04-.1q-.02-.08-.11-.06Zm.03,.11s-.02-.02-.02-.04c0-.02,.01-.03,.02-.03,0,0,.02,.02,.02,.04,0,.02,0,.03-.02,.03Zm-.19,.11s-.05,.02-.03-.04c0-.04,0-.07-.01-.07-.02,0-.02-.02,0-.03,.04-.04,.08-.01,.06,.04,0,.02,0,.04,.02,.04,.05-.02,.02,.04-.03,.07Zm-.1-.07s-.03,.03-.05-.01c-.02-.04-.03-.03-.05,.03-.01,.06-.02,.06-.03,.02,0-.03,0-.06,0-.07,.01-.01,0-.03-.02-.03s-.05,0-.05,.04,0,.04,.02,.04c.02,0,.03,0,.02,.02-.01,.05-.07,.02-.09-.05-.02-.05-.02-.05-.07-.03-.03,.02-.06,.02-.08,0-.02-.01-.03-.01-.04,0,0,.04,.05,.14,.06,.11,0-.01,.02,0,.03,.04,.02,.06,.15,.1,.14,.04,0-.02,.03-.03,.07-.02,.08,0,.2-.09,.17-.13,0-.01-.02,0-.04,.01Zm-.27,0s-.02,.03-.04,.02c-.02,0-.02-.02,0-.03,.01-.02,.03-.02,.04-.02,0,0,0,.02,0,.03Zm-.26,.02c.07,0,.07-.01,.01-.03-.03-.01-.07,0-.09,.03-.02,.03-.04,.03-.06,.02-.02-.01-.07-.02-.11,0s-.09,0-.1,0c-.04-.03-.05,.02-.02,.08,.03,.06,0,.05-.06-.01-.04-.04-.05-.04-.06,.02-.02,.06,0,.07,.1,.08,.08,0,.11,.02,.09,.04-.02,.02,0,.03,.05,.02,.11-.01,.18-.06,.18-.14,0-.05,.02-.07,.07-.08Zm-.2,.15s-.04-.02-.04-.06c0-.08,.04-.07,.06,0,.01,.04,0,.05-.02,.06Zm.28,0c-.05,.03-.14-.03-.12-.09,0-.03,.04-.04,.08-.03,.03,.01,.05,.03,.04,.05-.01,.01,0,.03,0,.04,.02,0,.02,.02,0,.04Zm-.47,.04s-.05,.02-.07,0c-.02,0-.05-.02-.07-.03-.02,0-.02-.04,0-.07,.04-.08,0-.08-.29-.02-.14,.03-.26,.04-.26,.03,0-.01-.02,0-.04,.04s-.04,.05-.06,.03c-.03-.04-.19-.04-.19,0,0,.02-.01,.02-.04,0-.03-.01-.05,0-.06,.04,0,.03-.01,.05-.02,.02,0-.05-.07-.08-.09-.04,0,.01-.05,.02-.1,.01s-.11,0-.15,0c-.06,.02-.06,.02-.03,.11,.03,.08,.03,.08,0,.03-.05-.07-.1-.11-.18-.1-.04,0-.05,.01-.03,.04,.02,.03,0,.03-.08,.01-.06-.02-.08-.01-.05,0,.03,.02,.05,.05,.04,.08-.01,.04-.02,.04-.04,0-.01-.03-.07-.06-.14-.08-.09-.03-.13-.02-.16,.02-.03,.03-.06,.04-.07,.02-.02-.03-.17,0-.22,.04-.02,.02-.02,.01-.02-.01,0-.03,0-.03-.07-.01-.04,.02-.08,.01-.09,0,0-.02-.02,.01-.02,.06,0,.05-.02,.09-.03,.08-.01,0-.02,0-.02,.03,0,.02-.01,.03-.04,.02-.03-.01-.03-.02,0-.06,.04-.05,.03-.11-.02-.08-.01,0-.04,.01-.06,.01-.08-.01-.17,0-.18,.05,0,.02-.02,.03-.03,.02-.03-.04-.17-.03-.16,0,0,.02-.02,.02-.06,.01-.04-.01-.09,0-.11,.01-.02,.02-.06,.02-.09,0-.02-.02-.05-.01-.05,0,0,.02-.03,.03-.06,.02-.03,0-.06,0-.08,0-.02,.01-.03,.02-.05,.01-.04-.01-.18,.01-.37,.05-.11,.03-.23,.05-.27,.05-.04,0-.17,.02-.29,.05-.12,.02-.33,.07-.47,.09-.63,.12-.8,.16-.78,.21,.02,.04,.01,.04-.03,0-.07-.07-.09-.07-.08-.01,0,.04-.01,.04-.05,.02-.03-.02-.07-.02-.1,0-.03,.02-.06,.03-.08,.03-.06-.02-.47,.07-.46,.1,0,.02,0,.02-.03,.01-.05-.03-.17-.01-.16,.03,0,.02,0,.02-.03,0-.02-.02-.07-.02-.11,0-.04,.01-.2,.04-.35,.05-.15,.01-.29,.03-.3,.04-.01,.01-.07,.03-.13,.04-.06,.01-.12,.04-.12,.06,0,.02-.02,.03-.04,.02-.02,0-.06,0-.1,.03-.04,.03-.08,.04-.09,.02,0-.01-.05,0-.08,.04-.05,.05-.05,.07-.03,.09,.02,.01,0,.02-.03,.01-.05-.01-.05,0-.02,.03,.02,.03,.05,.03,.08,0,.04-.04,.05-.03,0,.03-.02,.04-.05,.07-.07,.07-.01,0-.02,.03,0,.05,.02,.04,.04,.05,.16,.05,.08,0,.14-.02,.14-.03,0-.02,.02-.02,.05,0,.03,.02,.05,.02,.06,0,0-.02,.02-.02,.03-.01,.01,.01,.04,0,.07,0,.03-.02,.06-.02,.06,0,0,.01,.02,0,.02-.01,0-.02,.03-.03,.05-.02,.04,.01,.24-.03,.35-.06,.03,0,.08-.02,.12-.03,.04,0,.11-.04,.16-.08s.07-.05,.05-.02c-.03,.03-.03,.04,.02,.01,.03-.02,.06-.02,.06,0,0,.01,.03,0,.04-.02,.02-.03,.05-.04,.07-.03,.02,0,.05,0,.07-.03,.01-.02,.04-.03,.05-.03,.04,.02,.64-.11,.67-.15,0-.01,.04-.02,.06-.01,.02,0,.08,0,.14-.03,.05-.02,.09-.03,.09-.02,0,.01,.04,0,.09,0,.05-.01,.09-.03,.1-.05,0-.06,.03-.08,.05-.04,.02,.03,.1,.03,.29-.02,.15-.03,.33-.07,.4-.08,.46-.08,1.18-.24,1.2-.27,0-.01,.03,0,.05,0,.02,.02,.04,0,.04-.03,0-.04,.02-.06,.04-.05,.02,0,.02,.03,0,.06-.02,.04-.02,.04,.02,.02,.03-.01,.09-.02,.13-.02,.05,0,.12-.02,.17-.04,.04-.02,.09-.03,.1-.01,.01,.02,.02,.01,.01-.02,0-.03-.04-.04-.08-.05-.06,0-.07,0-.03-.04,.03-.02,.04-.04,.02-.05-.02,0-.03-.03-.02-.04,0-.02,.03,0,.05,.04,.02,.04,.06,.07,.1,.07,.03,0,.06,.01,.06,.03,0,.01,.05,.02,.11,0,.06-.01,.12-.03,.14-.03,.02,0,.07,0,.11,0,.04,0,.08-.02,.07-.04,0-.02,0-.03,.04,0,.03,.02,.06,.02,.06,0,0-.02,.04-.02,.07,0,.07,.02,.15-.03,.13-.08,0-.02,0-.01,.04,0t0-.03s-.03-.06-.01-.05c.02,0,.05,0,.08,0,.04,0,.04,0,.02,.04-.04,.05-.01,.06,.12,.05,.05,0,.1-.03,.1-.05,.01-.05,.07-.06,.15-.01,.04,.02,.08,.02,.09,0,.01-.01,.04-.01,.06,0,.02,.02,.04,.01,.04,0,0-.03,.12-.05,.16-.03,.01,0,.02,0,.03-.02,0-.02,.02-.03,.03-.02,.05,.03,.09,.02,.08-.02,0-.02,0-.03,.02-.01,.02,.02,.08,.02,.13,.01,.09-.01,.1-.02,.08-.08-.02-.06-.02-.06,.03,0,.05,.07,.06,.07,.27,.01,.15-.04,.22-.07,.22-.11,0-.03,.02-.06,.04-.07,.02,0,.03,0,.02,.01-.02,.06-.03,.15,0,.12,.01-.02,.03-.02,.04,0,.01,.02,.03,.02,.05,0,.02-.02,.06-.03,.1-.02,.04,0,.08-.01,.09-.03,.01-.02,0-.03,0-.02Zm-8.03,1.61s-.07-.03-.08-.05c-.01-.03-.01-.04,0-.02,.02,.02,.04,.02,.05,0,.02-.02,.03,0,.05,.02,.02,.04,.02,.05-.03,.04Zm4.74-1.12s-.04,0-.05-.01c-.02-.02-.01-.02,.02-.01,.03,0,.04,.02,.03,.03Zm1.72-.26s-.03-.04-.03-.04c0,0,.02,0,.04,0s.04,.03,.03,.04c0,.02-.02,.02-.04,0Zm.34-.09s-.03,.03-.04,.02c0-.01,0-.03,.02-.05,.04-.04,.05-.02,.02,.03Zm.6-.06s-.04-.04-.03-.06c.01-.04,.03-.03,.05,.04,.02,.05,.02,.05-.02,.02Z"/><g><path class="cls-1" d="M3.14,7.32c-.04,.05-.08,.08-.13,.08-.04,0-.07-.01-.1-.04-.03-.02-.05-.04-.05-.06,0-.02,0-.09,0-.19v-.23c0-.19,.02-.38,.06-.57,.05-.22,.09-.49,.13-.8,.03-.32,.06-.56,.1-.73,.02-.06,.05-.36,.09-.91,.04-.55,.06-.85,.06-.89,.03-.04,.07-.06,.11-.06,.09,0,.14,.07,.17,.2,.02,.07,.04,.11,.08,.14,.04,.03,.11,.04,.2,.04,.04,0,.08,0,.15,0s.11,0,.15,0c.38,0,.62,.1,.72,.31,.04,.07,.05,.13,.05,.21,0,.04,0,.08,0,.15-.03,.27-.09,.48-.18,.63s-.24,.34-.45,.56c-.16,.16-.26,.25-.3,.29-.04,.03-.12,.07-.24,.1-.14,.05-.23,.08-.27,.08-.06,0-.09,.03-.11,.09-.02,.06-.03,.13-.03,.22,0,.09-.02,.15-.03,.19,0,.01,0,.05-.02,.11-.02,.06-.03,.14-.05,.25-.02,.11-.03,.2-.03,.27v.08s0,.04,0,.07,0,.05,0,.08v.07c0,.16-.02,.27-.05,.31Zm.95-2.41c.32-.38,.47-.7,.47-.98,0-.06-.01-.11-.03-.15-.02-.04-.05-.06-.1-.08-.05-.02-.09-.03-.13-.03s-.1,0-.18-.02c-.18-.01-.3-.02-.35-.02-.1,0-.16,.02-.18,.06-.02,.04-.04,.15-.06,.32,0,.04,0,.07,0,.09,0,.09-.02,.29-.06,.59-.04,.3-.06,.47-.06,.52v.02s0,.03,.02,.03c.01,0,.03,.01,.05,.01,.07,0,.17-.04,.3-.12,.13-.08,.24-.16,.32-.25Z"/><path class="cls-1" d="M8.47,5.74c0,.09-.12,.22-.37,.38-.02,.01-.03,.02-.04,.03-.01,0-.03,.02-.04,.03-.02,0-.03,.02-.05,.03-.02,.01-.03,.02-.05,.03-.31,.2-.51,.33-.6,.37-.1,.04-.23,.08-.39,.11-.16,.04-.28,.05-.36,.05-.08,0-.14,0-.18-.02-.04-.01-.12-.05-.24-.11-.15-.08-.25-.14-.29-.19s-.13-.18-.25-.39c-.13-.22-.19-.4-.19-.53s.04-.3,.13-.48c.09-.18,.17-.33,.26-.43,.11-.13,.26-.3,.45-.5,.19-.2,.31-.32,.35-.34,.16-.06,.32-.08,.48-.08,.09,0,.15,.01,.2,.04,.08,.04,.12,.08,.12,.12,0,.04-.04,.07-.13,.08,0,0-.01,.01-.02,.02-.01,0-.02,.01-.04,.02-.02,0-.04,.01-.07,.02-.03,.01-.06,.02-.1,.03-.21,.08-.37,.16-.48,.26-.11,.1-.19,.18-.22,.24-.05,.07-.11,.15-.18,.24-.12,.16-.21,.3-.26,.4-.05,.1-.09,.21-.1,.32,0,.03,0,.05,0,.08,0,.1,.05,.23,.15,.38,.04,.06,.06,.1,.08,.13,.01,.02,.03,.05,.07,.1s.11,.1,.22,.16c.11,.06,.23,.09,.36,.09,.08,0,.16-.01,.23-.04,.19-.07,.34-.13,.43-.18,.1-.05,.3-.17,.61-.35,.02,0,.06-.03,.11-.06,.18-.1,.29-.15,.32-.15,.02,0,.04,0,.06,.03s.04,.04,.04,.07Z"/><path class="cls-1" d="M9.28,2.88s.08,.01,.15,.03c.1,.03,.16,.06,.2,.12,.04,.05,.06,.15,.08,.29,.02,.12,.02,.24,.02,.35,0,.17-.03,.39-.08,.66-.02,.09-.03,.16-.04,.21-.02,.07-.04,.16-.06,.27-.05,.26-.11,.46-.18,.59-.04,.08-.06,.15-.06,.21,0,.08,.03,.11,.08,.11,.05,0,.1-.04,.16-.12,.3-.34,.5-.56,.61-.65,.11-.09,.21-.14,.31-.14,.15,0,.24,.05,.29,.14,.05,.09,.09,.33,.12,.71,.03,.29,.05,.47,.05,.53,0,.12-.03,.25-.08,.38s-.11,.2-.18,.2c-.04,0-.08-.02-.11-.06-.03-.04-.05-.08-.05-.12,0-.03,0-.08,.02-.16,0-.08,.02-.14,.02-.17,0-.05-.01-.15-.03-.31-.03-.28-.05-.45-.06-.52-.02-.07-.05-.1-.1-.11,0,0,0,0,0,0-.02,0-.03,.02-.05,.05,0,0,0,0,0,.02-.06,.05-.24,.24-.55,.57-.31,.33-.48,.51-.53,.55h0s-.09,.02-.13,.02c-.1,0-.16-.03-.18-.08-.02-.03-.02-.09-.02-.17,0-.14,.02-.32,.07-.54,.05-.23,.1-.44,.18-.64,.06-.16,.11-.4,.16-.71s.08-.59,.08-.84c0-.18-.02-.33-.05-.44-.03-.11-.05-.17-.05-.18,0-.03,.01-.05,.04-.05Z"/><path class="cls-1" d="M13.14,5.27c0,.06-.02,.14-.06,.24-.1,.25-.27,.48-.53,.69-.26,.21-.49,.31-.69,.31-.17,0-.3-.08-.38-.23-.09-.15-.13-.33-.13-.53,0-.24,.06-.45,.19-.6,.13-.16,.32-.3,.56-.43,.06-.03,.12-.04,.2-.04,.18,0,.37,.06,.56,.17,.19,.11,.29,.25,.29,.41Zm-.31,.06c0-.07-.06-.14-.18-.22-.09-.06-.2-.08-.34-.08-.08,0-.15,.01-.2,.04-.03,.01-.07,.03-.11,.05-.06,.03-.1,.05-.12,.08-.03,.03-.06,.09-.11,.2-.08,.16-.11,.26-.11,.32,0,.05,.02,.12,.05,.23,.05,.15,.11,.23,.2,.23,.04,0,.08-.01,.15-.04,.22-.09,.43-.26,.61-.5,.11-.14,.17-.24,.17-.31Z"/><path class="cls-1" d="M15.67,5.33c0,.1,.02,.14,.05,.14,.03,0,.08-.04,.15-.13,.03-.04,.06-.06,.08-.08,.08-.1,.19-.22,.33-.35,.15-.13,.25-.21,.31-.22,.03-.01,.05-.02,.07-.02,.03,0,.06,.01,.1,.03,.07,.04,.11,.09,.13,.15,.02,.07,.03,.2,.03,.41v.1c0,.18-.03,.36-.1,.52-.04,.09-.06,.16-.08,.21-.07,.18-.12,.29-.15,.34-.04,.05-.08,.07-.14,.07s-.09-.06-.09-.18c0-.08,.01-.16,.04-.25,.11-.42,.17-.68,.17-.76h0c-.02-.1-.05-.14-.1-.14s-.13,.09-.27,.27c-.04,.05-.14,.18-.31,.38s-.28,.34-.32,.41c-.05,.08-.11,.14-.18,.2s-.11,.08-.15,.08c-.03,0-.06-.02-.1-.06-.04-.04-.06-.07-.06-.09,0-.04,.03-.13,.08-.24,.09-.22,.14-.42,.14-.62,0-.09-.02-.13-.07-.13-.06,0-.14,.04-.24,.13-.1,.09-.19,.19-.27,.3-.06,.08-.16,.19-.32,.35-.16,.16-.26,.28-.32,.35-.11,.15-.19,.22-.24,.22-.03,0-.06-.02-.1-.05-.04-.04-.05-.08-.05-.15,0-.06,.02-.12,.06-.19,.09-.21,.14-.39,.17-.53,.03-.14,.06-.4,.11-.79,.02-.14,.04-.25,.08-.35,.04-.09,.08-.14,.12-.14,.01,0,.03,.03,.06,.06,.03,.03,.06,.06,.08,.09,.02,.03,.04,.06,.04,.08,0,.07-.01,.21-.04,.42-.03,.21-.05,.35-.07,.4-.01,.04-.02,.07-.02,.09,0,.06,.02,.08,.06,.08,.05,0,.11-.05,.18-.15,.1-.15,.24-.3,.44-.45,.2-.15,.37-.23,.52-.23,.02,0,.04,0,.07,.02,.03,.01,.05,.06,.09,.12s.05,.15,.05,.27Z"/><path class="cls-1" d="M19.13,6.1s.05,.05,.05,.11c0,.04,0,.07-.02,.09s-.05,.06-.11,.11c-.22,.19-.43,.29-.63,.29-.08,0-.14-.02-.2-.05-.09-.06-.19-.17-.29-.33-.1-.16-.16-.3-.17-.42-.02-.1-.05-.18-.1-.25-.05-.06-.1-.11-.15-.14-.05-.03-.07-.05-.07-.06,0-.02,.03-.04,.08-.07,.06-.04,.09-.1,.11-.18,.1-.54,.25-.85,.46-.95,.05-.02,.14-.03,.28-.03h.21s.01,.01,.04,.04,.06,.05,.08,.08c.03,.03,.04,.05,.04,.05,.14,.15,.21,.29,.21,.43,0,.09-.04,.18-.11,.27s-.15,.16-.23,.21c-.08,.05-.19,.12-.32,.19-.04,.03-.08,.05-.13,.08-.07,.03-.11,.07-.11,.11,0,.03,0,.07,.03,.14,.04,.18,.09,.32,.17,.42,.08,.1,.15,.15,.24,.15s.19-.05,.32-.16c.13-.1,.22-.16,.26-.16,.02,0,.04,0,.07,.02Zm-.98-1.4c-.11,.16-.17,.3-.17,.44,0,.07,.02,.1,.06,.1,.07-.03,.14-.05,.21-.09,.07-.03,.15-.09,.23-.16,.08-.08,.13-.15,.13-.23,0-.06-.02-.12-.07-.17-.05-.05-.1-.08-.14-.08-.07,0-.15,.06-.24,.19Z"/><path class="cls-2" d="M22.65,5.12s.02,.11,.02,.2c0,.08,0,.13,0,.15,0,.02,.02,.04,.05,.06,.02,.01,.09,.03,.2,.06,.11,.02,.18,.04,.22,.04,.04,0,.15,.03,.32,.09s.31,.12,.4,.16c.04,.02,.08,.04,.13,.07,.1,.05,.16,.09,.19,.11,.03,.02,.04,.05,.04,.07s-.02,.07-.05,.13c-.02,.03-.06,.04-.11,.03-.05-.01-.09-.03-.1-.06-.15-.11-.32-.2-.53-.28-.21-.08-.41-.12-.61-.14-.09,0-.13,0-.15,.01-.01,.04-.02,.11-.02,.23s0,.2-.02,.25c-.01,.07-.02,.18-.04,.36-.01,.17-.03,.33-.04,.47s-.03,.24-.06,.29c-.02,.04-.05,.07-.09,.08s-.08,0-.1-.04c-.01-.03-.02-.08-.04-.18s-.02-.19,0-.29c0-.1,.03-.15,.07-.16,.01,0,.02-.01,.03-.04,.01-.06,.02-.15,.03-.29,0-.14,.02-.23,.03-.29,.01-.01,.02-.09,.01-.23,0-.14,0-.3-.01-.47,0-.17-.01-.26-.02-.27-.02,.01-.05,.05-.08,.1-.03,.05-.07,.11-.1,.16-.04,.06-.07,.12-.1,.18s-.06,.11-.08,.15-.04,.05-.04,.05c-.15,.26-.27,.45-.33,.57-.09,.19-.15,.3-.19,.33-.04,.03-.08,.04-.11,.03-.03,0-.05-.03-.05-.07s.02-.08,.05-.13c.03-.09,.07-.17,.12-.26s.11-.19,.19-.32,.13-.21,.15-.25c.02-.04,.1-.19,.24-.43,.14-.24,.24-.43,.31-.55,0-.03-.04-.03-.11,0,0,0-.03,.02-.08,.04s-.08,.04-.1,.05c-.02,0-.05,.02-.1,.05-.05,.02-.09,.04-.12,.05-.03,.01-.07,.02-.12,.04-.05,.02-.09,.03-.12,.04-.03,0-.07,.01-.11,.02-.04,0-.08,0-.11,0-.03,0-.06,0-.09-.01-.04-.04-.06-.08-.06-.12s.01-.08,.05-.11c.04-.03,.1-.03,.18-.01,.12,.01,.23-.02,.34-.08,.2-.06,.38-.13,.54-.23,.17-.09,.35-.21,.57-.36,.02-.02,.05-.04,.09-.06,.04-.02,.08-.02,.12-.01,.04,0,.05,.03,.05,.08,0,.04-.04,.08-.11,.15-.07,.06-.11,.11-.12,.13-.03,.03-.07,.08-.13,.15s-.11,.12-.15,.17c-.04,.05-.07,.11-.1,.17-.04,.08-.04,.12,.02,.12,.04,0,.07,.02,.09,.06Z"/><path class="cls-2" d="M24.79,7.23s.07-.07,.15-.14c.17-.16,.29-.29,.36-.42,.06-.1,.12-.19,.18-.27,.06-.08,.11-.13,.13-.15,.03-.02,.07-.02,.1-.01s.05,.03,.05,.05c-.04,.06-.08,.14-.14,.24s-.1,.17-.13,.22c-.03,.05-.08,.11-.13,.19s-.13,.16-.2,.23c-.02,.02-.06,.06-.1,.1s-.07,.08-.1,.11c-.03,.02-.07,.04-.12,.04-.02,0-.04-.02-.05-.05s-.02-.05-.02-.08,.01-.05,.03-.08Zm1.53-1.58s0,.06-.03,.08-.04,.03-.07,.03c-.06,0-.13,.04-.21,.11-.08,.07-.14,.11-.17,.13-.04,.03-.08,.06-.12,.09-.04,.03-.08,.06-.12,.09-.04,.03-.1,.06-.17,.09-.05,.02-.08,.03-.1,.02-.01-.01-.03-.03-.06-.06-.02-.03-.04-.05-.06-.06-.04-.01-.08-.05-.1-.12-.03-.07-.05-.16-.07-.26-.02-.1-.04-.17-.05-.21-.02-.04-.04-.1-.07-.18-.04-.1-.06-.18-.08-.24-.02-.06-.03-.1-.04-.14,0-.04,0-.06,0-.07,0-.01,.02-.02,.04-.02,.02,0,.03,0,.04-.04,0-.03,0-.06,.01-.08,0-.02,.02-.02,.06,0,.04,.05,.07,.14,.1,.28,.03,.14,.06,.23,.09,.28,0,.02,.01,.03,.02,.04,.01,0,.02,.01,.03,.02s.02,0,.05,0c.02,0,.04,0,.05,0v.18c0,.11,.02,.25,.06,.42,.08-.05,.19-.14,.33-.28s.24-.26,.29-.36c.15-.22,.24-.38,.27-.48-.01-.02-.03-.03-.06-.04-.03,0-.06,0-.09,0-.03,0-.06,.02-.1,.03-.04,.01-.07,.02-.09,.02-.01,0-.04,.01-.09,.03-.04,.01-.07,.02-.08,.03-.01,0-.03,.01-.07,.02-.03,.01-.06,.02-.07,.03-.01,0-.04,.02-.06,.03-.03,.01-.05,.03-.07,.04-.02,.01-.04,.03-.06,.05s-.05,.04-.07,.07l-.08,.09c-.05-.05-.07-.12-.06-.19,.01-.08,.06-.13,.12-.16,.08-.06,.15-.1,.22-.13,.07-.03,.21-.07,.44-.14,.05-.01,.09-.03,.11-.03,.02,0,.06-.02,.11-.03s.09-.01,.12,0c.03,0,.06,.01,.09,.03,.03,.01,.05,.04,.06,.07,0,.04,0,.08,0,.13,0,.09-.05,.21-.15,.37-.1,.15-.15,.24-.16,.27,0,.01,.02,.02,.06,.02,.08,0,.11,.04,.11,.12Zm1.3,1.84c0,.1-.02,.17-.09,.19-.06,.03-.1,0-.13-.08-.02-.05-.05-.1-.1-.15-.05-.05-.1-.11-.17-.17-.07-.06-.12-.11-.15-.15-.03-.03-.09-.09-.18-.17-.09-.08-.15-.14-.18-.19-.02-.08-.03-.12-.01-.15,.01-.02,.06-.02,.12,0,.04,0,.1,.06,.2,.15s.16,.14,.18,.16c.04,.03,.1,.09,.18,.17s.15,.15,.22,.19c.07,.03,.11,.09,.12,.19Z"/><path class="cls-2" d="M28.83,5.93s.02,.04,.02,.05c0,.02-.05,.08-.16,.19-.11,.11-.19,.18-.23,.21-.01,0-.03,.02-.05,.04-.03,.02-.05,.04-.07,.05s-.04,.03-.07,.04c-.03,.01-.05,0-.06,0-.02-.01-.03-.04-.04-.08-.01-.03-.01-.06-.01-.09,0-.04,.02-.06,.04-.09,.02-.02,.04-.03,.07-.01,.02,0,.05,0,.09-.03,.04-.02,.08-.06,.13-.1,.05-.04,.08-.06,.08-.06,.1-.08,.17-.13,.22-.15,.01,0,.02,.01,.04,.03Zm-.49,1.53c.07-.08,.15-.17,.22-.27,.08-.11,.13-.2,.18-.27,.04-.07,.1-.17,.17-.31,.06-.09,.1-.11,.12-.05,.02,.06,.01,.12-.03,.19-.12,.32-.24,.54-.34,.67-.05,.07-.11,.14-.18,.2-.07,.07-.11,.1-.13,.1s-.03-.01-.06-.04c-.02-.03-.04-.05-.04-.07,0-.02,.02-.07,.1-.15Zm.07-2.57s.02-.05,.03-.06,.02-.02,.05-.03,.06,0,.09,.02c.02,0,.04,.02,.08,.03,.04,.01,.06,.02,.09,.03,.02,0,.05,.02,.08,.04s.05,.03,.06,.04c.01,.01,.02,.03,.03,.05,0,.02,0,.04,0,.06s-.03,.04-.06,.07c-.06,.05-.11,.05-.12,0-.01-.03-.03-.05-.06-.06s-.08-.02-.16-.02c-.01,0-.03,0-.05,0-.02,0-.04,0-.05,0s-.02,0-.04-.01c-.01,0-.02-.01-.02-.02,0,0,0-.02,.02-.04,.01-.02,.02-.04,.04-.07Zm2.57-.94s.09-.02,.22-.08,.21-.08,.24-.05c.05,.03,.05,.08,0,.15-.03,.06-.14,.14-.32,.24-.09,.05-.18,.12-.27,.2-.08,.08-.13,.13-.13,.17,0,.01,0,.04-.03,.09-.03,.07-.04,.11-.03,.11,0,0,.02-.01,.05-.03,.08-.05,.14-.06,.19,0,.03,.03,.03,.06,.02,.09-.02,.03-.07,.08-.15,.15-.04,.03-.09,.08-.17,.15-.08,.07-.15,.13-.22,.17-.02,.01-.04,.02-.05,.01s-.03-.01-.06-.03-.04-.03-.05-.03c0,0-.02,0-.05,.01-.03,.02-.05,.03-.06,.02-.01,0-.03-.01-.05-.04-.02-.03-.03-.06-.03-.09s.01-.07,.02-.13c.01-.06,.02-.1,.02-.12,.01-.08,.01-.12,0-.13,0-.01-.04,0-.09,0-.07,.03-.15,.05-.23,.07s-.14,.04-.17,.05c-.08,.04-.14,.06-.17,.04-.03-.02-.04-.05-.05-.09,0-.04,0-.07,.03-.09,.07-.05,.26-.12,.57-.2,.05-.01,.07-.03,.08-.05s0-.07,0-.16c-.02-.17-.02-.27,0-.33,.02-.05,.07-.08,.15-.08,.05,0,.08,0,.09,.02,0,.01,0,.03-.02,.07-.02,.04-.03,.11-.03,.2,0,.09,.03,.14,.06,.16,.01,0,.03,0,.06,0s.12-.05,.26-.12c.02-.01,.04-.03,.05-.05s.02-.04,.03-.08,.02-.06,.03-.08c.02-.05,.04-.1,.04-.15s0-.08-.01-.08c-.01-.01-.02-.03-.01-.07s.02-.05,.04-.05c.02,0,.03,0,.04,0,.01,0,.03,.02,.06,.04,.03,.03,.05,.04,.05,.06s0,.04,0,.09c0,.06,0,.1,.02,.1Zm.79,2.44c.07,.04,.12,.07,.13,.06,.01,0,.02,0,.02-.02,0-.02,0-.12,0-.3v-.2l-.05-.11c-.03-.08-.07-.13-.12-.16s-.12-.05-.21-.07c-.1-.01-.23,.01-.39,.07-.16,.06-.25,.12-.27,.17-.02,.16-.03,.42-.04,.78,0,.36-.02,.62-.04,.78,0,.03-.02,.06-.05,.09-.03,.03-.05,.04-.08,.04-.06,0-.11-.04-.16-.11s-.07-.14-.05-.19c.02-.06,.05-.06,.08,0,.02,.05,.04,.06,.06,.02,0,0,0-.08,.01-.22v-.2s-.05-.06-.05-.06c-.03-.04-.06-.05-.07-.05-.02,0-.03,.03-.05,.08-.03,.09-.12,.21-.26,.36-.06,.06-.11,.09-.14,.09-.04,0-.07-.01-.09-.04-.02-.02-.03-.05-.03-.09,0-.05,.02-.1,.05-.15s.07-.07,.11-.07c.02,0,.04-.01,.06-.03s.05-.07,.09-.14c.03-.05,.04-.08,.05-.1,0-.02,0-.04-.04-.07-.06-.08-.04-.12,.08-.13,.02,0,.05,0,.09-.01h.05s.02,0,.04,.02c.02,.02,.04,.04,.06,.06,.02,.02,.03,.02,.04,0,.01-.01,.02-.06,.02-.16s0-.18,0-.25v-.09c-.06,0-.12,.01-.17,.04-.09,.06-.24,.23-.45,.5-.03,.03-.04,.05-.06,.08-.01,.03-.02,.05-.03,.08,0,.03-.02,.06-.03,.08-.02,.02-.02,.08-.02,.17,0,.1,0,.16-.02,.19-.04,.1-.09,.18-.15,.21-.04,.03-.07,.02-.1-.02-.03-.04-.04-.09-.03-.16,.05-.66,.1-1.05,.14-1.16,.04-.1,.07-.15,.1-.17,.04-.01,.08,0,.1,.04,.02,.04,.02,.1,0,.16-.01,.05-.02,.1-.03,.17s0,.1,.01,.1,.03-.02,.06-.06c.14-.22,.34-.39,.6-.54,.05-.03,.08-.05,.09-.08,.01-.02,.01-.06,0-.11-.02-.05-.01-.09,.01-.11,.03-.02,.06-.03,.1-.01,.04,.01,.07,.04,.1,.08,.03,.03,.07,.03,.12,0,.02,0,.08-.03,.17-.07,.09-.04,.16-.06,.2-.08,.18-.02,.32,0,.43,.03,.11,.04,.19,.11,.26,.21,.05,.08,.09,.15,.1,.21,.01,.06,.02,.2,.02,.4,0,.09,0,.16,0,.21,0,.06,0,.1,0,.14,0,.04,.02,.06,.05,.08,.02,0,.05,.04,.07,.1,.03,.06,.04,.11,.04,.14,0,.03-.02,.05-.05,.08-.03,.02-.05,.03-.08,.03-.02,0-.04,0-.06,.05-.01,.04-.03,.09-.04,.15,0,.06-.02,.1-.02,.11,0,.05-.02,.13-.03,.26-.01,.15-.03,.26-.05,.31-.02,.05-.05,.08-.1,.08-.04,0-.1-.04-.18-.12s-.14-.15-.18-.21c-.03-.05-.04-.09-.05-.1,0-.01,0-.03,.01-.05,.01-.02,.03-.02,.05,0,.02,.01,.04,.03,.06,.06,.09,.13,.16,.18,.19,.14,0-.01,.02-.07,.03-.19,.01-.11,.02-.19,.02-.23,0-.04,.01-.1,.03-.18s.03-.15,.03-.19v-.11l-.05-.03s-.05-.03-.11-.07c-.06-.04-.11-.08-.16-.1-.05-.03-.08-.04-.1-.04-.02,0-.05,.03-.11,.1-.1,.12-.17,.2-.21,.22-.04,.03-.09,.04-.16,.04-.05,0-.09-.02-.1-.05s-.02-.06,0-.1,.05-.05,.09-.05c.02,0,.08-.05,.17-.15,.09-.1,.13-.17,.13-.2,0-.02-.03-.06-.09-.12-.06-.06-.09-.1-.09-.12,0-.03-.01-.05,0-.06,0,0,0-.02,.02-.04,.08-.06,.2,0,.39,.2,.07,.07,.11,.11,.12,.11,0,0,.04,.02,.12,.07Zm-1.4-1.51s.07-.11,.1-.17c.03-.07,.04-.12,.04-.16-.01,0-.04,.02-.09,.05-.05,.03-.08,.05-.09,.06-.01,.02-.03,.07-.03,.16,0,.09,0,.13,0,.14,.01,0,.03-.02,.07-.07Z"/><path class="cls-2" d="M32.87,7.44s-.03-.04-.03-.06c0-.02,.05-.07,.13-.16s.13-.14,.13-.15c.09-.14,.2-.28,.31-.42,.03-.03,.07-.11,.14-.24,.07-.13,.11-.22,.13-.27,.01-.05,.05-.1,.11-.15,.06-.06,.1-.06,.13,0,.04,.05,.04,.1,0,.16-.02,.03-.07,.13-.15,.28s-.14,.26-.18,.31c-.25,.35-.43,.57-.52,.65-.06,.06-.11,.09-.14,.09-.03,0-.05,0-.07-.03Zm1.68-3.08c.26-.12,.46-.19,.61-.22,.11-.04,.19-.02,.22,.06,.01,.03,.01,.07,0,.12-.02,.05-.06,.12-.13,.23-.07,.11-.11,.17-.11,.18,.06,.05,.09,.1,.09,.13,0,.03-.01,.06-.04,.09s-.1,.08-.2,.15c-.09,.07-.15,.12-.17,.16-.02,.04-.04,.12-.04,.25-.01,.16-.01,.24,.01,.24,0,0,.07-.06,.19-.17s.18-.18,.2-.2c.02-.04,.05-.06,.09-.06,.04,0,.07,.02,.09,.06,.01,.03,.01,.06,0,.1-.02,.03-.07,.09-.15,.16-.27,.25-.41,.4-.45,.45-.02,.04-.03,.09-.03,.17,0,.08-.01,.14-.02,.18-.01,.1-.01,.16,0,.17,.06,.03,.18,.07,.36,.12s.33,.08,.46,.1c.18,.03,.34,.05,.47,.08,.13,.03,.24,.05,.34,.06,.1,.01,.28,.03,.53,.05,.1,0,.2,.01,.3,.03,.1,.02,.16,.05,.19,.08,.02,.02,.03,.04,.03,.07,0,.03-.02,.05-.04,.07-.05,.03-.1,.04-.13,.03-.04,0-.09-.02-.17-.04-.08-.02-.13-.03-.18-.03-.11,0-.23,0-.35-.02-.12-.02-.26-.04-.41-.07-.16-.03-.27-.04-.33-.06-.19-.03-.47-.09-.84-.18-.36-.09-.57-.14-.61-.15-.04,0-.13-.02-.26-.03-.13-.01-.22-.03-.28-.05-.06-.04-.06-.09,0-.14,.02-.03,.05-.05,.1-.05s.11,0,.18,.02c.07,.01,.12,.02,.15,.02,.02,0,.06,0,.12,.01s.1,.02,.13,0c.03,0,.04-.03,.04-.07,.03-.15,.06-.39,.07-.73,.01-.21,.02-.32,.03-.33,0-.03,0-.04-.02-.04-.02,0-.08,.03-.17,.08-.1,.06-.16,.09-.17,.09-.02,0-.06-.02-.12-.05-.06-.03-.09-.05-.1-.07-.04-.04-.06-.17-.08-.38,0-.05,0-.1-.01-.15-.01-.05-.02-.08-.03-.1s-.03-.05-.05-.1-.05-.07-.06-.09c-.03-.04-.05-.07-.06-.09,0-.02,0-.04,0-.07,.02-.07,.06-.1,.12-.1,.06,0,.11,.04,.13,.12,.01,.05,.03,.07,.05,.08s.04,0,.08-.02c.04-.01,.18-.08,.44-.2Zm.53,0c-.05,0-.11,.02-.17,.05-.06,.03-.1,.04-.13,.05-.05,.02-.15,.06-.29,.14-.15,.07-.23,.12-.25,.14-.01,.01-.03,.04-.05,.09s-.03,.07-.04,.09c-.01,.02-.02,.04-.02,.07,0,.02,0,.07,0,.16,.01,.12,.02,.18,.03,.19,.01,.01,.09-.02,.22-.1s.2-.14,.22-.17c0-.01,.03-.04,.07-.06,.04-.03,.07-.05,.08-.07,.05-.06,.12-.15,.21-.28,.09-.13,.14-.21,.15-.25,0-.01-.01-.02-.03-.02Z"/><path class="cls-2" d="M37.74,7.09s.09-.01,.15-.02,.1,0,.13-.02c.06-.01,.15-.02,.26-.03,.11,0,.18,0,.21-.03,.03-.02,.04-.05,.03-.1,0-.04,0-.09,.02-.16,.02-.05,.03-.12,.04-.22v-.14s-.02,0-.06,.01c-.04,0-.07,.02-.1,.02-.03,0-.07,.01-.11,.02-.04,0-.07,0-.1,0s-.05-.01-.05-.02c-.01,0-.02-.02,0-.04,.01-.02,.03-.03,.05-.05,.02-.02,.03-.03,.02-.03,0-.01,0-.02,.02-.03,.02-.01,.05-.02,.08-.04l.1-.04s.07-.02,.1-.03,.06-.02,.07-.02c.01-.01,.02-.12,.04-.33,.01-.21,.02-.31,0-.32-.01,0-.07,.02-.18,.08l-.16,.08h-.16c-.12,0-.2-.02-.22-.06-.03-.04-.03-.12,0-.25,.02-.1,.03-.17,.02-.22-.02-.05,0-.1,.04-.13s.09-.04,.13-.02c.04,.04,.05,.14,.03,.3-.01,.1-.02,.15-.01,.16,.1,0,.26-.07,.5-.23l.05-.04,.02-.32c.01-.23,.03-.39,.06-.5,0-.04,.03-.07,.07-.1,.04-.03,.07-.02,.11,.02,.02,.02,.04,.04,.04,.05,0,.02,0,.07-.03,.15-.01,.05-.02,.14-.03,.27s0,.2,0,.21c.01,.01,.05,0,.12-.07,.06-.06,.1-.11,.1-.14,.01-.06,.05-.08,.1-.08,.05,0,.1,.03,.15,.07,.03,.04,.04,.07,.02,.09s-.07,.07-.16,.15c-.01,.01-.02,.02-.03,.03-.03,.02-.07,.06-.13,.1-.06,.04-.09,.07-.11,.09-.02,.02-.04,.05-.07,.09-.03,.04-.04,.09-.05,.15,0,.06-.01,.14-.01,.23,0,.15,0,.25-.01,.29,0,.04,0,.06,.02,.07,.01,0,.05,0,.12-.04,.07-.03,.13-.06,.17-.08,.03-.02,.07-.03,.1-.04,.04,0,.06,0,.09,.03,.03,.03,.04,.07,0,.11s-.07,.07-.12,.08c-.05,.01-.12,.05-.22,.1-.1,.05-.16,.09-.2,.12,0,.02,0,.09-.02,.21,0,.12-.01,.22-.01,.3v.09c.06,0,.11,0,.16-.01,.05-.03,.17-.05,.38-.07,.21-.02,.34-.04,.4-.05,.04-.01,.21-.03,.5-.06,.29-.02,.45-.05,.48-.07,.06-.02,.12-.03,.18,0s.07,.07,.05,.14c-.01,.05-.04,.09-.07,.1-.03,.02-.12,.03-.24,.05-.02,0-.14,.02-.37,.03-.22,.01-.37,.02-.44,.04-.07,.01-.18,.03-.33,.04-.15,.02-.27,.04-.37,.06-.1,.02-.2,.05-.3,.08-.04,.01-.07,.05-.11,.13-.01,.02-.04,.02-.06,.02-.03,0-.05-.02-.08-.05-.01-.03-.04-.04-.07-.05-.03,0-.07,0-.11,0-.04,0-.08,.01-.1,0-.14,.01-.27,.03-.39,.06-.1,.02-.17,.03-.19,.01-.01-.01-.02-.04-.03-.09,0-.05,0-.09,0-.11,.01-.02,.04-.04,.08-.05Z"/><path class="cls-2" d="M41.75,5.24c-.07-.03-.12-.04-.15-.04-.03,0-.06-.01-.09-.04-.08-.07-.06-.13,.05-.16,.04-.03,.13-.02,.29,.03,.16,.05,.23,.09,.23,.12,.03,.05,.03,.09,0,.12s-.06,.04-.1,.03c-.03-.01-.06-.02-.09-.02-.02,0-.07,0-.14-.03Zm.37,.84c-.06,.04-.13,.08-.21,.12-.08,.04-.14,.07-.16,.08-.09,.05-.16,.07-.19,.04-.02-.01-.03-.05-.04-.11,0-.06,0-.1,.02-.12,.01-.02,.05-.02,.11-.02,.05,0,.08,0,.11-.01,.03,0,.08-.04,.17-.08,.12-.07,.19-.1,.21-.1,.02,0,.04,0,.06,.03s.03,.04,.03,.05c-.02,.05-.06,.09-.12,.13Zm.27,.19c.05-.08,.09-.09,.11-.05,.01,0,0,.05-.03,.13s-.07,.17-.11,.26c-.04,.09-.07,.15-.08,.18-.01,.06-.1,.19-.28,.38s-.29,.29-.34,.32c-.02,.01-.04,0-.07-.01s-.05-.04-.05-.07c-.01-.06,.02-.12,.09-.17,.34-.28,.6-.6,.76-.96Zm1.79-.84s-.01-.02-.03-.01c-.02,0-.03,.01-.05,.02-.02,.01-.03,.02-.05,.04s-.03,.02-.04,.01c-.02,0-.04,.02-.08,.05-.04,.03-.07,.04-.09,.05-.01,0-.06,.03-.14,.07s-.14,.07-.2,.09c-.06,.02-.1,.03-.13,.02-.02,0-.03-.03-.05-.08s-.02-.07,0-.09c0-.01,.03-.03,.11-.07,.08-.04,.17-.08,.26-.12,.09-.04,.15-.07,.17-.09,.07-.05,.14-.09,.21-.12,.07-.03,.11-.07,.13-.1,.01-.03,.01-.12,0-.25,0-.15-.02-.23-.02-.25,0-.04,0-.06-.02-.07s-.02-.02-.04-.01c-.02,0-.04,.01-.06,.02s-.04,.02-.06,.03-.04,.02-.06,.02c-.03,0-.05,.01-.07,.02-.01,0-.02,0-.03,0,0,0-.02,0-.03,.02s-.03,.02-.05,.03c-.06,.03-.12,.02-.15-.03s-.05-.08-.05-.12c.03-.03,.16-.07,.38-.15,.22-.07,.36-.12,.41-.15,.04-.01,.07-.01,.11,0,.1,.03,.1,.1,.01,.19-.02,.03-.04,.05-.05,.06,0,.01-.01,.03-.01,.05s0,.04-.01,.07c-.01,.03,0,.12,.02,.27,.01,.08,.03,.12,.04,.12,.04-.01,.07-.03,.11-.05,.04-.02,.08-.06,.13-.09,.05-.04,.08-.07,.11-.08,.05-.04,.09-.06,.1-.07s.02-.03,.02-.06c0-.05,.02-.09,.09-.12,.07-.02,.12-.01,.16,.03,.03,.03,.04,.06,.03,.09,0,.03-.04,.08-.12,.15-.07,.08-.13,.12-.16,.14-.03,.02-.08,.06-.16,.12s-.15,.11-.21,.14c-.08,.05-.13,.08-.15,.1-.02,.02-.03,.06-.05,.13,0,.02-.02,.05-.03,.1-.01,.05-.03,.09-.04,.11-.01,.03-.03,.05-.05,.08s-.04,.05-.07,.06c-.02-.01-.03-.03-.04-.05s0-.06,0-.11c0-.05,.01-.08,.01-.1,0-.04,0-.07,0-.09Zm.75,1.38c-.04,.06-.06,.11-.06,.13-.01,.01,.02,.02,.1,.02l.28-.02c.19-.03,.29-.01,.31,.05,.02,.06,.02,.11-.02,.15-.04,.04-.1,.05-.17,.03-.04-.01-.14,0-.29,0-.12,.01-.21,.03-.27,.05-.06,.02-.15,.06-.27,.12-.06,.03-.11,.05-.15,.05-.04,0-.07,0-.11-.03-.02-.01-.04-.02-.04-.02,0,0-.01,0-.02,.02-.03,.05-.06,.09-.07,.1-.01,.01-.04,.02-.07,.02-.02,0-.04,0-.05,0-.01,0-.03-.02-.03-.04,0-.02-.01-.04-.02-.05,0-.02,0-.04,0-.07,0-.03,0-.05,0-.07,0-.02,0-.04,0-.07,0-.03,0-.04,0-.06,0-.03,.01-.08,.02-.16,0-.08,.01-.14,.03-.18,.02-.07,.03-.17,.03-.3v-.19s.03-.04,.03-.04c.03-.03,.06-.05,.07-.04,.02,0,.03,.03,.05,.08,.02,.06,.04,.1,.05,.1,.01,0,.04-.01,.09-.06,.08-.09,.17-.15,.3-.17s.23,0,.32,.08c.05,.05,.08,.11,.09,.18s0,.14-.04,.21c-.02,.04-.03,.06-.03,.08,0,.01-.03,.05-.07,.11Zm-.29-.46s-.11,.08-.19,.16c-.06,.06-.1,.11-.12,.13-.01,.02-.02,.05-.02,.08s0,.08-.02,.12c-.01,.04-.02,.08-.02,.12,0,.04,0,.08,0,.11s0,.08,0,.13c.23-.09,.4-.26,.51-.5,.05-.11,.08-.19,.08-.24,0-.05-.02-.09-.07-.11-.05-.03-.1-.03-.14,0Z"/><path class="cls-2" d="M46.65,6.37c-.02,.08-.05,.14-.07,.19-.02,.05-.05,.12-.09,.2-.04,.08-.07,.15-.09,.19-.01,.05-.04,.08-.08,.1s-.07,0-.09-.03c-.02-.02-.03-.04-.03-.06s0-.07,.03-.13c.01-.07,.04-.13,.08-.17,.04-.04,.06-.08,.08-.12,.01-.05,.03-.1,.05-.17s.04-.11,.04-.13c0-.02,.02-.05,.03-.1,.01-.05,.02-.08,.03-.11,0-.02,.01-.07,.02-.13,.01-.06,.02-.12,.03-.19,0-.06,.02-.15,.03-.26,.01-.1,.02-.21,.03-.35,0-.14,0-.22,0-.25,0-.02-.02-.03-.03-.03-.04,0-.12,.06-.24,.19-.07,.08-.12,.12-.16,.13-.03,.01-.06,0-.09-.03-.03-.03-.03-.07-.02-.1s.05-.08,.11-.14c.08-.08,.14-.15,.19-.19,.05-.04,.1-.09,.16-.13,.06-.04,.1-.08,.14-.12,0,0,.04-.03,.1-.06,.06-.03,.09-.05,.1-.06,0-.01,.02-.03,.06-.06,.05-.05,.11-.05,.16,0s.06,.1,.02,.15c-.01,.01-.05,.04-.12,.08-.07,.04-.11,.07-.12,.08l-.04,.05v.24s0,.05,0,.08v.07s0,.08,0,.09c0,0,.03,0,.07-.01,.1-.05,.21-.08,.34-.08,.05,0,.08,0,.09,0,.01,0,.03,.02,.05,.04,.05,.06,.05,.16,0,.31-.02,.05-.05,.11-.09,.16-.04,.05-.07,.1-.11,.13-.03,.03-.08,.08-.14,.13-.06,.05-.1,.09-.12,.11-.06,.07-.12,.11-.16,.13-.04,.02-.07,.04-.08,.05s-.02,.05-.02,.09c0,.06-.02,.13-.05,.21Zm.57-1.13s-.01,0-.03,0c-.02,0-.12,.01-.3,.05-.02,0-.04,.02-.05,.04s-.02,.05-.02,.09c0,.04,0,.07-.01,.08-.01,.03-.02,.07-.02,.14,0,.07,0,.12-.01,.14l-.02,.08,.11-.11c.13-.12,.21-.22,.25-.3,0-.02,.02-.05,.05-.08,.03-.03,.04-.06,.05-.09,0-.02,0-.03,0-.04Zm.93-.48s.03-.08,.1-.15c.23-.23,.37-.42,.42-.59,.01-.04,.04-.07,.08-.09s.09-.02,.13,.01c.02,.02,.03,.04,.03,.07s0,.05-.01,.07c0,.02-.02,.04-.04,.07-.02,.03-.03,.04-.04,.05-.01,.03-.04,.08-.08,.13-.04,.05-.05,.08-.06,.1,0,.02,0,.05,.03,.08,.02,.02,.03,.06,.04,.12s.01,.15,.01,.27v.21s.05-.02,.12-.07c.07-.05,.15-.13,.24-.21,.09-.09,.16-.16,.22-.23,.02-.03,.06-.07,.13-.12,.06-.05,.11-.1,.14-.13,.09-.12,.17-.16,.25-.1,.02,.04,.03,.07,.01,.1-.01,.03-.05,.08-.13,.16-.08,.09-.14,.16-.17,.21-.03,.04-.05,.12-.07,.25-.01,.13-.02,.34-.01,.64,0,.19,0,.42-.02,.67-.02,.26-.03,.43-.03,.52,0,.31-.02,.52-.02,.62,0,.1-.03,.17-.06,.21-.02,.03-.05,.05-.07,.06-.03,0-.05,0-.08-.01-.03-.01-.05-.04-.08-.06-.02-.03-.04-.05-.06-.07-.01-.02-.03-.04-.04-.06,0-.03,0-.05,0-.06,.01-.01,.03-.01,.06,0,.04,.01,.07,0,.08-.04,.01-.04,.02-.18,.02-.42,0-.14,.01-.38,.03-.71,.02-.33,.02-.61,.02-.82,0-.24,0-.36-.04-.36-.01,0-.03,.01-.05,.04-.03,.03-.08,.08-.17,.15-.09,.07-.15,.11-.19,.13-.09,.04-.16,.05-.21,0-.05-.04-.07-.11-.06-.22,.02-.25,.02-.4,0-.43-.02-.04-.06-.04-.12,.01,0,0-.01,.01-.04,.03-.02,.01-.04,.03-.05,.04s-.03,.02-.06,.03-.04,.02-.06,.02c-.01,0-.03,0-.05-.01-.03-.01-.05-.04-.05-.07Z"/><path class="cls-2" d="M52.16,8.31c-.06,.03-.1,.02-.13-.05-.04-.05-.04-.12-.01-.19,0,0,.01-.02,.01-.07s0-.11,0-.18c0-.07,0-.14,0-.21,0-.07,0-.13,0-.19,0-.06,0-.09,0-.1,0-.1,0-.24,.03-.39,.02-.16,.03-.3,.02-.42v-.2s0-.08,0-.11c0-.03-.01-.04-.02-.05,0,0-.02,0-.04,0-.08,.01-.16,.04-.25,.09-.03,.02-.05,.04-.06,.08,0,.03-.02,.12-.02,.25,0,.14-.02,.24-.04,.28-.04,.08-.09,.11-.14,.08-.06-.03-.07-.11-.03-.24,0-.02,0-.06,.02-.11,.02-.14,0-.21-.03-.21-.01,0-.03,0-.05,.02,0,0-.02,.01-.05,.02s-.05,.02-.07,.03-.05,.02-.06,.03c-.11,.05-.19,.1-.23,.14-.04,.04-.06,.09-.06,.15s-.01,.12-.04,.17c-.03,.06-.06,.09-.09,.09-.03,0-.05-.02-.07-.06s-.04-.08-.06-.13c-.02-.05-.03-.09-.04-.11,0-.01-.01-.03-.02-.05s-.02-.04-.02-.04c0,0-.01-.02-.02-.04,0-.02-.02-.03-.03-.04s-.02-.02-.03-.04-.03-.03-.04-.05c-.04-.04-.07-.08-.08-.1,0-.02,0-.05,.02-.09,.02-.05,.06-.06,.13-.05,.06,0,.13,.09,.22,.26,.03,.06,.05,.08,.06,.05,0,0,0-.02,.01-.03,.01-.05,.04-.09,.08-.12s.11-.07,.21-.11c.34-.15,.62-.27,.84-.33,.02,0,.06-.02,.1-.06s.08-.06,.11-.05c.06,.01,.15,.01,.25-.01,.36-.07,.67-.11,.95-.12,.09,0,.14,.03,.16,.08s0,.12-.04,.21c-.13,.24-.29,.41-.5,.52-.06,.03-.13,.05-.21,.06-.08,0-.13,0-.13-.01,0-.02,0-.04,.02-.05,.02-.02,.07-.05,.15-.09,.1-.04,.18-.09,.24-.15,.05-.04,.1-.1,.16-.18,.06-.08,.09-.13,.09-.15-.04-.02-.11-.03-.21-.02-.09,.01-.2,.03-.32,.05-.12,.02-.18,.03-.18,.03-.15,.02-.24,.04-.27,.06-.01,0-.02,.05-.03,.18-.01,.13-.02,.26-.03,.41,0,.15-.01,.23-.02,.26-.02,.01-.01,.44,.02,1.27,0,.05-.04,.1-.09,.13Zm-1.43-4.08s.01,.06,.01,.14c0,.12,.01,.17,.03,.17,.01,0,.03-.02,.06-.06,.03-.04,.06-.06,.11-.08,.03,0,.11-.04,.25-.1,.13-.06,.22-.09,.27-.11,.12-.04,.19-.07,.21-.1,0-.01,.01-.1,.01-.27v-.26s-.09,0-.17,.02c-.08,.02-.13,.02-.16,0-.03-.01-.04-.05-.05-.11,0-.04,0-.08,.03-.1,.01-.01,.04-.02,.06-.03,.03,0,.1,0,.21-.01,.05,0,.09,0,.13,0s.06,0,.08,0c.02,0,.04,0,.06-.01s.04-.01,.05-.02c.01,0,.03-.01,.06-.02,.03-.01,.05-.02,.06-.02,.05-.02,.08-.03,.09-.03,.01,0,.03,.01,.05,.03s.03,.04,.03,.06-.01,.05-.04,.09c-.02,.04-.05,.06-.08,.08s-.06,.02-.12,.03c-.05,0-.07,0-.08,.01-.01,.01-.03,.1-.04,.25s-.01,.23,0,.24c.06,0,.14-.03,.26-.06,.12-.03,.21-.05,.27-.06,.05,0,.1-.01,.15-.02,.05-.01,.09-.02,.12-.02,.03,0,.09,0,.19,0,.14,0,.24,.01,.3,.01,.1,0,.17,.03,.18,.08,.02,.05,0,.16-.05,.33-.05,.15-.13,.28-.23,.39-.06,.06-.11,.1-.17,.12s-.12,0-.2-.03c0,0-.02-.01-.02-.02,0,0-.02,0-.02,0s-.02,0-.03,.01-.02,.01-.02,.02c0,0-.02,.01-.04,.03l-.1-.02s-.05-.02-.09-.02c-.04,0-.08-.02-.11-.02s-.06-.02-.09-.03c-.03-.01-.06-.02-.09-.03s-.04-.02-.05-.04c-.02-.03-.02-.07,.01-.11s.07-.09,.12-.15c.05-.05,.08-.09,.08-.11,.02-.04,.04-.06,.05-.07,0,0,.03-.01,.05-.01,.07,0,.1,.03,.1,.09,.01,0,0,.03-.01,.06s-.04,.07-.06,.1c-.02,.04-.04,.06-.04,.08,0,.01,.04,.04,.12,.07,.08,.03,.11,.05,.12,.06,0,.02,.04,.03,.1,.01s.1-.02,.12-.02c.03,0,.05,0,.07-.01,.01,0,.03-.02,.06-.05,.05-.05,.09-.12,.13-.2s.06-.16,.08-.23c-.02-.02-.11-.04-.25-.06-.14-.02-.25-.02-.33,0-.03,0-.11,.02-.24,.05-.13,.02-.23,.05-.3,.07-.07,.02-.12,.05-.14,.08-.01,.02-.02,.1-.03,.24-.01,.22-.03,.36-.04,.43-.01,.07-.04,.11-.08,.13-.03,.01-.05,.02-.07,.02-.02,0-.04-.02-.06-.04l-.04-.05-.08,.05c-.08,.05-.15,.09-.22,.11-.07,.02-.12,.02-.14,0-.03-.03-.03-.06-.01-.11s.06-.07,.1-.09c.06-.01,.11-.03,.14-.05,.03-.02,.07-.04,.09-.06,.03-.02,.06-.04,.09-.05,.04,0,.06-.02,.06-.03,.02-.04,.03-.12,.04-.23s0-.18-.04-.21c-.02,0-.14,.05-.36,.14s-.34,.15-.36,.16c-.03,.01-.05,.02-.08,.01-.02,0-.04,0-.05,.01-.01,.02-.02,.05,0,.12,0,.06-.01,.13-.03,.2s-.04,.11-.07,.13c-.05,.04-.09,.04-.13,.01-.04-.03-.04-.08,0-.15,.02-.05,.03-.12,.04-.21,0-.09,0-.16-.02-.22-.04-.16-.05-.25-.04-.27,.01-.02,.03-.04,.07-.06s.06-.04,.08-.04c.04,.01,.07,.03,.08,.05Zm.83,.51s-.05,.04-.07,.04-.05,.02-.1,.03c-.1,.04-.19,.06-.27,.06-.03,0-.06,0-.08-.03-.02-.02-.04-.04-.04-.05,0-.02,.03-.04,.06-.06,.03-.02,.06-.04,.09-.05,.03-.01,.07-.03,.12-.04,.05-.02,.08-.03,.09-.04,.06-.03,.12-.04,.17-.03,.05,.01,.08,.04,.08,.09,0,.03-.02,.05-.05,.08Zm-.25,.71s.01-.03,.02-.04c0-.01,.02-.02,.03-.03,.02,0,.03,0,.04-.01,0,0,.03,0,.05,0,.03,0,.05,0,.06,0h.19c.17,0,.26,0,.29,.01,.03,0,.04,.04,.04,.09,0,.03,0,.05-.02,.06-.01,.02-.04,.05-.09,.09-.11,.1-.24,.21-.39,.33-.15,.12-.26,.19-.32,.21-.06,.03-.11,.03-.14-.02-.03-.04,0-.08,.06-.1,.05-.03,.2-.15,.47-.39l.06-.05h-.08s-.09-.01-.15,0c-.05,0-.1,0-.14,0-.04-.01-.05-.04-.04-.08,0-.03,.01-.04,.02-.06Z"/><path class="cls-2" d="M55.54,4.97c.04-.07,.07-.11,.1-.12,.02,0,.04,.03,.06,.09,.02,.06,.03,.11,.03,.16,0,.05,.01,.14,.05,.26,.03,.12,.05,.19,.06,.19,.03-.02,.09-.06,.17-.14,.08-.07,.14-.12,.17-.14,.09-.06,.13-.11,.13-.14,0-.02,0-.04,0-.05s-.02,0-.05,0c-.06,.03-.14,.09-.23,.19-.03,.03-.04,.04-.05,.05-.01,0-.03,0-.05,0-.06-.01-.09-.03-.09-.06,0-.03,.02-.08,.08-.15,.02-.04,.05-.07,.1-.12,.05-.04,.11-.08,.18-.13,.07-.05,.12-.08,.14-.1,0-.01,0-.08,0-.21,0-.12-.02-.19-.04-.21-.28,.08-.47,.15-.57,.19-.06,.04-.11,.06-.14,.06-.03,0-.05-.04-.05-.11,0-.04,0-.06,0-.07,0-.01,.02-.03,.05-.05,.06-.04,.17-.09,.33-.13,.19-.05,.45-.15,.78-.31,.05-.02,.11-.04,.16-.04,.05,0,.08,0,.09,.01,.03,.03,.03,.07,.02,.12-.01,.05-.03,.08-.06,.08-.01,0-.05,.02-.12,.05-.07,.03-.12,.05-.14,.05-.05,.01-.08,.03-.09,.04-.01,.02-.02,.05-.02,.1s0,.1,.02,.17,.02,.11,.03,.12c.03,0,.13-.02,.29-.06,.16-.03,.26-.05,.3-.05,.05,0,.09,.02,.13,.07,.04,.04,.06,.09,.06,.14,0,.06-.02,.15-.05,.27-.04,.12-.07,.19-.1,.23-.07,.13-.15,.24-.24,.34-.03,.04-.05,.07-.07,.09-.02,.02-.03,.03-.04,.04,0,0-.03,.02-.06,.04-.03,.02-.06,.03-.08,.05-.04,.03-.09,.05-.17,.08s-.13,.05-.15,.08c-.1,.24-.15,.37-.15,.4,0,.04-.02,.09-.04,.14-.02,.05-.02,.09-.01,.12,.01,.02,.05,.05,.11,.08,.09,.05,.24,.1,.44,.16,.2,.06,.34,.11,.41,.14,.04,.03,.14,.05,.29,.09s.25,.06,.3,.08c.03,.01,.08,.03,.15,.05,.07,.02,.13,.04,.16,.06,.2,.09,.35,.13,.44,.14,.15,0,.24,.02,.28,.07,.02,.03,.03,.07,.01,.12s-.04,.08-.08,.11c-.02,.01-.04,.01-.06,.01-.02,0-.04-.01-.08-.02-.03-.01-.05-.02-.07-.02-.09-.03-.26-.08-.5-.16-.24-.08-.44-.14-.6-.18-.08-.02-.21-.06-.37-.12-.16-.06-.29-.1-.36-.11-.12-.04-.24-.09-.37-.14-.14-.07-.23-.09-.26-.07-.02,.04-.07,.12-.14,.26s-.13,.24-.19,.32c-.06,.08-.13,.14-.21,.18-.07,.04-.13,.04-.17,.02-.03-.01-.06-.05-.11-.09-.05-.05-.07-.08-.08-.1-.01-.03-.01-.07,0-.13,0-.06,.02-.09,.03-.1,.02-.01,.04,0,.05,.01,.02,.02,.03,.04,.03,.08,.01,.07,.03,.11,.07,.12,.04,.01,.08,0,.14-.04,.03-.02,.04-.04,.05-.06,.01-.02,.02-.04,.03-.06s.03-.05,.04-.07c.03-.04,.07-.12,.13-.23,.03-.06,.05-.11,.06-.14,0-.03,0-.05,0-.06,0,0-.03-.01-.07-.02-.04,0-.06-.01-.08-.02-.02-.01-.05-.02-.08-.02-.07,0-.14-.03-.19-.08-.06-.05-.06-.1-.02-.17,.05-.05,.13-.05,.26,0,.01,0,.03,0,.04,.02,.15,.05,.24,.07,.27,.07s.05-.02,.06-.07c0,0,0-.01,0-.02,0-.02,.02-.07,.04-.13s.04-.12,.04-.15c0-.03,0-.04-.02-.05-.02,0-.04-.02-.07-.02-.03,0-.05-.01-.05-.02-.05-.04-.08-.03-.09,.04-.02,.07-.06,.09-.12,.06-.07-.03-.1-.08-.09-.16,0,0,0-.01,0-.02,0-.12-.01-.26-.06-.44-.05-.17-.07-.31-.08-.4,0-.06,0-.12,.04-.19Zm.7,.53s-.03,.01-.07,.05c-.05,.04-.11,.09-.18,.15-.01,.01-.03,.02-.04,.03-.01,0-.02,0-.03,0,0,0-.02,0-.03,0-.01,0-.03,0-.04-.01,0,0,0,.04,.02,.11,.01,.05,.02,.08,.02,.09,0,0,.02,.01,.04,0,.03,0,.07-.02,.14-.05,.11-.04,.17-.14,.19-.31,0-.04,0-.07-.02-.07Zm.86-.77s-.06,0-.11,.01c-.07,0-.15,.03-.22,.06s-.13,.06-.15,.09c-.01,.02-.02,.04-.02,.06,0,.02,0,.04,.01,.04,.01,0,.03,0,.06-.02,.03-.01,.05-.02,.08-.03,.02,0,.04,0,.07-.01,.03,0,.04,0,.06,.02,.01,.02,.02,.04,.02,.07,0,.02-.05,.06-.13,.11-.11,.07-.17,.12-.19,.14-.02,.02-.03,.08-.05,.17-.01,.04-.01,.07,0,.08s.03,0,.07-.03c.01-.01,.04-.03,.08-.06,.04-.03,.08-.06,.11-.09,.03-.03,.04-.06,.05-.08,.01-.03,.02-.04,.03-.05,0,0,.04,0,.1,.01,.01,0,.03,0,.04-.02,.01-.01,.04-.07,.08-.16,.06-.14,.1-.22,.1-.26-.02-.03-.04-.04-.06-.05Z"/><path class="cls-2" d="M60.2,5.99s0,.06-.03,.16c-.02,.1-.03,.17-.05,.2-.03,.11-.05,.33-.07,.64-.02,.32-.03,.49-.03,.51,0,.17-.04,.27-.09,.3-.05,.02-.09,0-.12-.08s-.02-.15,0-.21c.01-.03,.03-.31,.06-.82,.01-.2,.02-.35,.03-.45,0-.05,0-.08-.01-.08s-.06,.02-.13,.06c0,0-.03,.01-.06,.03-.04,.02-.06,.03-.07,.03,0,0-.03,.01-.06,.03s-.06,.02-.07,.03c-.01,0-.04,0-.06,.01-.03,0-.05,0-.07,0s-.04,0-.06-.02c-.05-.01-.08-.05-.08-.11,0-.06,.02-.11,.06-.15,.02-.02,.04-.05,.06-.1s.04-.09,.05-.14,.03-.09,.04-.12c.02-.02,.03-.07,.04-.14,0-.07,.02-.11,.03-.13,.01,0,.04,0,.08,.02,.04,.02,.06,.04,.06,.05,.01,.04-.02,.18-.1,.4-.03,.1-.04,.15-.03,.16,.03,.02,.12-.02,.27-.11,.07-.04,.12-.07,.14-.09s.04-.04,.04-.06c.02-.04,.03-.19,.04-.46,0-.26,.02-.42,.03-.48,.01-.05,.02-.09,.03-.11,.01-.02,.03-.03,.05-.04,.04-.01,.07-.01,.09,.01,.02,.03,.04,.08,.04,.14s0,.13-.02,.21c-.01,.08-.02,.14-.02,.19,0,.04,0,.12-.02,.23-.01,.12-.01,.18,0,.19,.01,0,.05-.01,.11-.04,.11-.06,.2-.06,.25-.01,.06,.05,.04,.1-.06,.15-.12,.04-.21,.09-.29,.17Zm1.25-2s.07-.04,.11-.04c.04,0,.06,.03,.07,.08,0,.04,.03,.04,.09,.01,.06-.03,.11-.03,.13,.01,.06,.08,.03,.15-.09,.22-.08,.04-.12,.07-.13,.09s-.02,.06-.02,.13v.12c-.06,0-.1,0-.12,0s-.04-.05-.06-.1l-.02-.06h-.12c-.08-.01-.13-.02-.15-.03-.02,0-.03-.02-.03-.05-.01,0,0-.03,.05-.05,.04-.03,.12-.07,.22-.12,.01,0,.02-.03,.03-.08,0-.04,.01-.07,.05-.1Zm-.09,3.16s.07-.07,.11-.08c.03,0,.1-.02,.21-.06,.11-.04,.17-.06,.17-.08,.03-.17,.05-.31,.07-.45-.01-.04-.03-.03-.06,.03,0,.01-.01,.02-.02,.04-.01,.04-.03,.07-.05,.08s-.04,.01-.07,0c-.04-.02-.06-.05-.06-.09,0-.04,0-.11,.02-.21,.02-.09,.03-.18,.03-.26,0-.06,0-.1,0-.12,0-.01,.02-.03,.04-.05,.03-.03,.06-.04,.09-.04,.03,0,.04,.03,.05,.07,0,.02,.02,.03,.04,.03,.01,0,.02,0,.02-.02,0-.02,0-.04,0-.06s0-.04,0-.04c-.04-.02-.08-.02-.12-.01-.04,0-.09,.03-.15,.05s-.11,.04-.13,.04c-.01,0-.03,0-.05,.01s-.04,0-.05,0-.03,0-.05,0c-.02,0-.03,0-.05,0-.01,0-.03,0-.04,0s-.03,0-.03-.01-.01-.02-.02-.02c0,0,0-.02,0-.04,0-.02,0-.04,0-.06,.01-.03,.05-.05,.09-.06,.05-.02,.11-.03,.17-.05,.06-.01,.11-.03,.13-.04,.04-.01,.08-.03,.13-.04s.09-.03,.12-.04l.07-.03v-.12s0-.02,0-.04c0-.06,0-.1-.02-.12-.01-.01-.05-.01-.11,0-.03,.01-.09,.02-.18,.03h-.13s-.04-.03-.04-.03c-.1-.09-.04-.16,.18-.19,.08-.01,.15-.03,.2-.05,.05-.02,.11-.05,.16-.08s.11-.06,.16-.08c.03,0,.07-.03,.12-.05,.05-.03,.09-.05,.12-.06,.03-.01,.07,0,.11,0,.01,.01,.02,.04,.02,.07s0,.05-.02,.07c0,.02-.03,.04-.08,.07-.05,.03-.1,.06-.16,.1-.06,.04-.1,.06-.12,.08,0,.04,0,.09,0,.17,0,.07,.03,.09,.06,.05,.06-.04,.13-.06,.19-.06,.05,0,.07,.03,.07,.08,0,.03-.01,.06-.04,.09-.03,.03-.06,.05-.11,.07s-.07,.04-.09,.06c-.03,.02-.05,.04-.06,.05,0,.01,0,.03,0,.05,0,.02,0,.04,.01,.04,0,0,.03,0,.07,.01,.11,0,.18,.06,.21,.17s.02,.23-.02,.36c-.04,.11-.08,.17-.13,.2-.04,.02-.08,.06-.13,.11-.05,.06-.09,.1-.11,.14-.03,.06-.03,.1-.01,.11s.08,0,.16,0c.06-.02,.12-.02,.16,0,.04,.02,.06,.05,.06,.1,0,.03-.01,.06-.04,.08s-.05,.03-.08,.03c-.06-.01-.1-.02-.12-.02-.02,0-.05,0-.09,.02-.06,.02-.09,.04-.1,.07-.01,.02-.03,.07-.04,.14-.01,.07-.01,.11,0,.12,.04,0,.19-.02,.44-.06s.44-.06,.56-.05c.04,0,.09,0,.16,0,.06,0,.13,0,.19,0,.06,0,.09,.02,.09,.04,.01,.05-.02,.1-.1,.17-.08,.06-.15,.08-.23,.04-.03-.02-.15-.02-.34-.01-.19,.01-.35,.03-.46,.05-.36,.08-.65,.17-.86,.26-.1,.05-.16,.05-.2,0-.04-.05-.04-.09,0-.13,.03-.04,.11-.08,.23-.13l.19-.08v-.05s0-.06,.04-.08c.03-.02,.05-.03,.05-.04,.01-.02,.02-.05,.02-.08,0-.03,0-.05,0-.06-.01,0-.08,.02-.2,.06s-.21,.05-.26,.03c-.03-.04-.03-.08,0-.12Zm.51-.98s.03,.06,.06,.07c.01,0,.02,0,.03,0,.01-.02,.01-.04,0-.06,0-.02-.02-.03-.05-.03-.03,0-.05,0-.05,.02Zm.83-2.25c.11,.03,.14,.08,.09,.17-.02,.03-.04,.05-.08,.06-.04,.01-.08,.03-.1,.06-.02,.03-.06,.08-.09,.15-.05,.09-.09,.16-.13,.2-.04,.04-.07,.06-.09,.05-.01,0-.02-.02-.03-.04s0-.05,0-.08c0-.03,.01-.07,.02-.1,0-.03,.01-.07,.02-.09,0-.03,0-.05,0-.06h-.11c-.12,.02-.19,0-.21-.06-.01-.04,0-.07,.04-.09,.04-.02,.11-.04,.21-.05,.08,0,.13-.02,.15-.03,.02-.01,.04-.04,.05-.08,.04-.09,.08-.15,.14-.18,.04-.03,.08-.03,.12,0,.04,.03,.04,.07,.01,.12l-.02,.06Zm-.43,2.26s-.01,.01-.02,.02c-.07,.09-.09,.13-.04,.14,.01,0,.04-.02,.08-.07,.04-.05,.06-.08,.06-.09,0-.04-.02-.04-.07,0Zm0-.15s.02,0,.03,0,.02,0,.03-.01c.01,0,.01-.01,.01-.02,0,0,0-.02-.01-.03-.02-.03-.06-.03-.11,0-.04,.03-.05,.05-.02,.08,.01,.01,.03,.01,.04,0,0,0,.02,0,.03-.01Z"/><path class="cls-2" d="M63.87,6.08s-.02-.02-.01-.04c0-.02,0-.03,.02-.05,0-.01,.02-.04,.04-.07,0-.01,.01-.02,.01-.02,.06-.09,.12-.22,.2-.39,.08-.17,.13-.28,.17-.35,.02-.05,.07-.13,.15-.24,.08-.11,.14-.14,.17-.1,.02,.02,.02,.05,0,.08-.01,.04-.07,.17-.17,.39-.06,.13-.09,.2-.08,.2,.03-.01,.07-.02,.11-.01,.04,0,.07,.03,.09,.07,.02,.2,.01,.45-.01,.73-.02,.29-.03,.53-.01,.74,0,.08,0,.13,0,.15,0,.02-.01,.04-.03,.05-.02,.02-.04,.03-.05,.04s-.03,0-.05-.02c-.02-.02-.04-.08-.05-.17-.04-.26-.05-.49-.03-.71,.05-.48,.05-.72,0-.73-.02,0-.06,.05-.12,.13-.06,.08-.12,.16-.18,.23-.06,.08-.1,.11-.13,.11-.03-.01-.05-.02-.06-.03Zm2.63-.41c.05,.02,.07,.05,.06,.11-.01,.15-.1,.35-.26,.59s-.29,.41-.41,.48c-.12,.04-.18,.01-.17-.07,.01-.09,.07-.17,.17-.26,.01-.01,.03-.03,.04-.04,.1-.06,.19-.18,.27-.35,.04-.08,.08-.17,.11-.26,.03-.09,.06-.15,.07-.17,.03-.04,.07-.04,.12-.03Zm.62,.3s.07,.03,.11,.04c.03,.02,.07,.04,.11,.07,.04,.03,.08,.05,.1,.06,.04,.02,.16,.11,.38,.28s.38,.27,.49,.32c.05,.02,.08,.05,.09,.06,.01,.06,0,.12-.04,.18-.04,.06-.09,.07-.16,.02-.01,0-.04-.02-.07-.03-.04-.01-.07-.02-.09-.04s-.03-.03-.03-.06c0-.05-.06-.1-.18-.17-.06-.04-.12-.08-.18-.13-.06-.05-.13-.1-.22-.17s-.13-.11-.16-.13c-.02-.02-.05-.04-.09-.06-.04-.02-.08-.04-.11-.08-.06-.05-.09-.08-.11-.07s-.02,.07-.01,.18c0,.08,0,.2,0,.36s0,.3,0,.44c.02,.46,.02,.73-.01,.81-.02,.06-.06,.09-.12,.08-.06,0-.09-.04-.1-.11-.1-.16-.14-.32-.13-.47,.02-.04,.05-.04,.08,.01,.02,.03,.03,.06,.03,.1,0,.05,.02,.08,.03,.08,.02,0,.02-.06,.02-.16,0-.05,0-.2-.01-.45,0-.25,0-.46-.02-.65,0-.18-.02-.31-.03-.36-.04-.25-.05-.48-.05-.69,0-.08,0-.14,0-.17,0-.03,0-.07,.01-.12s.02-.07,.02-.09c0-.01,.01-.04,.03-.08,.02-.04,.03-.07,.04-.09,.01-.02,.02-.04,.02-.06,0-.02,0-.03-.02-.04-.01,0-.05-.01-.1-.04-.05-.02-.08-.03-.09-.04s-.04-.02-.07-.04c-.03-.02-.06-.03-.07-.05-.01-.01-.02-.03-.04-.06s-.03-.05-.03-.08c0-.01-.01-.04-.03-.08-.02-.04-.03-.07-.04-.1s-.02-.06-.02-.1c0-.03,0-.06,.01-.09s.04-.04,.07-.05c.06-.01,.1-.01,.12,0,.02,.02,.04,.09,.08,.22,.03,.21,.15,.29,.39,.24,.13-.04,.19-.02,.19,.06,0,.04-.01,.08-.04,.13-.04,.06-.09,.17-.15,.32-.02,.04-.03,.22-.02,.52,0,.22,0,.35,0,.4,0,.05,.01,.09,.03,.12,.02,.04,.03,.06,.05,.07,.01,0,.03,0,.06-.02,.02-.03,.05-.03,.09-.02Z"/><path class="cls-2" d="M69.53,5.43s.04,0,.05,0c.02,0,.03,.01,.04,.03,.03,.02,.05,.05,.06,.09,.01,.04,.02,.11,.03,.22,.02,.19,.04,.28,.06,.28,.01,0,.04-.07,.08-.2,.07-.13,.15-.19,.25-.18,.04,0,.09,.02,.16,.09s.11,.12,.12,.15c0,.02,.02,.05,.04,.09,.02,.04,.03,.08,.04,.11,.01,.03,.02,.07,.03,.11,.01,.07,.03,.11,.04,.12,.01,0,.04-.02,.08-.07,.07-.1,.12-.13,.15-.09,.02,.02,.02,.06,0,.11,0,.01-.03,.05-.08,.13-.05,.08-.08,.12-.09,.13-.05,.06-.08,.15-.08,.27,0,.06,0,.14-.03,.24s-.04,.17-.06,.21c-.02,.04-.05,.07-.09,.08-.04,.01-.07,0-.1-.02-.02-.03-.02-.06-.02-.07,0-.02,.02-.04,.04-.07,.02-.03,.03-.05,.04-.06,0-.03,.01-.06,.02-.11,0-.04,0-.07,0-.07,0,0-.05,.04-.14,.12-.13,.12-.21,.18-.24,.18,0,0-.02-.01-.05-.03-.03-.02-.04-.03-.05-.03-.01,0-.02,.03-.02,.09,0,.09-.04,.15-.12,.17-.03,0-.05-.02-.06-.05,0-.04-.01-.14-.01-.3,0-.33,0-.54-.01-.64,0-.1-.02-.24-.05-.41-.02-.14-.04-.23-.05-.28-.01-.05-.03-.07-.06-.07-.02,0-.06,.03-.12,.09-.06,.06-.11,.11-.14,.16-.06,.1-.11,.17-.13,.2-.02,.03-.05,.04-.07,.04-.05,0-.07-.03-.07-.09,0-.03,.02-.07,.05-.14,.04-.07,.07-.12,.11-.17,.02-.02,.06-.1,.13-.23,.06-.14,.12-.27,.18-.4s.1-.2,.12-.2c0,0,.02-.01,.04-.03,.02-.02,.03-.03,.04-.04,0,0,.03-.01,.05-.02,.02,0,.04,0,.06,.02,.02,.01,.02,.04,.02,.09,0,.04-.02,.09-.06,.16-.04,.07-.08,.13-.12,.19-.04,.06-.06,.09-.05,.1,.02,0,.04,0,.05,0Zm.8,1.1s0-.07-.03-.07c-.03,0-.08,.04-.15,.09-.07,.05-.11,.08-.11,.09-.15,.13-.22,.22-.22,.3,0,.1,.01,.16,.03,.16s.1-.07,.24-.2c.14-.13,.22-.22,.23-.25s.02-.07,.02-.11Zm-.33-.55s-.03,.04-.04,.06c-.01,.02-.02,.04-.03,.06s-.02,.04-.02,.05c0,.01-.01,.03-.02,.06,0,.02-.01,.04-.02,.05,0,.01,0,.03-.01,.06,0,.03,0,.05-.01,.06,0,0,0,.03-.01,.07,0,.04-.01,.06-.01,.07,.03,0,.08-.03,.16-.09,.08-.06,.13-.1,.17-.11,.08-.04,.12-.07,.14-.09,.01-.02,.01-.04,0-.08-.03-.1-.07-.17-.1-.21-.08-.05-.14-.04-.18,.03Zm2.83-.02s.07,.05,.09,.05c0,0,.05,0,.13,.05,.08,.04,.17,.08,.26,.13,.09,.05,.15,.07,.17,.08,.05,.01,.07,.04,.08,.08,0,.04,0,.08-.04,.12-.06,.07-.12,.07-.2,0-.04-.04-.13-.1-.27-.16-.13-.06-.21-.09-.24-.08,0,0,0,0,0,0,0,0,0,0,0,.02,0,0,0,.02,0,.03,0,.01,0,.03-.01,.05,0,.02,0,.05-.01,.07,0,.02-.01,.06-.02,.1s-.02,.08-.03,.13c-.09,.36-.18,.57-.29,.63-.04,.03-.07,.04-.11,.03-.1,0-.18-.08-.25-.2-.06-.09-.08-.15-.05-.19,.02-.02,.05,0,.09,.05,.05,.1,.11,.15,.17,.14,.06,0,.11-.06,.14-.16,.07-.18,.13-.39,.16-.62,.01-.08,.02-.12,0-.14,0,0-.03-.02-.11-.05-.08-.02-.17-.05-.29-.09-.12-.03-.18-.05-.2-.06-.02,0-.03-.03-.04-.05,0-.03,0-.05,0-.08,.04-.04,.09-.05,.15-.05,.06,0,.12,.01,.17,.03,.05,.02,.1,.04,.17,.06,.06,.03,.11,.04,.15,.04,.02,0,.04,0,.04,0,0,0,0-.02,.01-.04,.02-.08,.03-.22,.04-.41,0-.2,0-.33,0-.39-.01-.03-.03-.04-.05-.03-.02,0-.07,.02-.14,.06-.01,0-.04,.01-.08,.03-.04,.02-.06,.03-.07,.04,0,0-.03,.01-.06,.03-.03,.01-.05,.02-.06,.02,0,0-.03,0-.05,.01-.03,0-.05,0-.06,0-.01,0-.03,0-.05,0-.02,0-.04,0-.05-.02s-.03-.02-.05-.04c-.02-.01-.04-.03-.05-.05-.04-.05-.07-.13-.08-.25-.01-.12,0-.21,.04-.27,.02-.03,.05-.04,.09-.04s.07,.02,.1,.05c.03,.03,.03,.07,0,.11-.01,.03-.02,.07-.02,.12,0,.05,.02,.1,.04,.15s.04,.06,.06,.05c.06,0,.16-.04,.28-.11s.22-.1,.29-.1c.05,0,.08,.02,.1,.04,.02,.02,.04,.08,.05,.16,.01,.04,.02,.1,.03,.17s0,.13,0,.18c0,.05,0,.12-.02,.22,0,.09-.01,.15-.01,.18l-.03,.2Z"/><path class="cls-2" d="M74.09,7.09s.09-.01,.15-.02,.1,0,.13-.02c.06-.01,.15-.02,.26-.03,.11,0,.18,0,.21-.03,.03-.02,.04-.05,.03-.1,0-.04,0-.09,.02-.16,.02-.05,.03-.12,.04-.22v-.14s-.02,0-.06,.01-.07,.02-.11,.02c-.03,0-.07,.01-.11,.02-.04,0-.07,0-.1,0-.03,0-.05-.01-.05-.02-.01,0-.02-.02,0-.04,.01-.02,.03-.03,.05-.05,.02-.02,.03-.03,.02-.03,0-.01,0-.02,.02-.03,.02-.01,.05-.02,.08-.04l.1-.04s.07-.02,.1-.03,.06-.02,.07-.02c.01-.01,.02-.12,.04-.33,.01-.21,.02-.31,0-.32-.01,0-.07,.02-.18,.08l-.16,.08h-.16c-.12,0-.2-.02-.22-.06-.03-.04-.03-.12,0-.25,.02-.1,.03-.17,.02-.22-.02-.05,0-.1,.04-.13,.05-.03,.09-.04,.13-.02,.04,.04,.05,.14,.03,.3-.01,.1-.02,.15-.01,.16,.1,0,.26-.07,.5-.23l.05-.04,.02-.32c.01-.23,.03-.39,.06-.5,0-.04,.03-.07,.07-.1,.04-.03,.07-.02,.11,.02,.03,.02,.04,.04,.04,.05,0,.02,0,.07-.03,.15-.01,.05-.02,.14-.03,.27,0,.13,0,.2,0,.21,.01,.01,.05,0,.12-.07,.06-.06,.1-.11,.1-.14,.01-.06,.05-.08,.1-.08,.05,0,.1,.03,.15,.07,.03,.04,.04,.07,.02,.09-.01,.02-.07,.07-.17,.15-.01,.01-.02,.02-.03,.03-.03,.02-.07,.06-.13,.1-.06,.04-.09,.07-.11,.09-.02,.02-.04,.05-.07,.09-.03,.04-.04,.09-.05,.15,0,.06-.01,.14-.01,.23,0,.15,0,.25-.01,.29,0,.04,0,.06,.02,.07,.01,0,.05,0,.12-.04,.07-.03,.13-.06,.17-.08,.03-.02,.07-.03,.1-.04,.04,0,.07,0,.09,.03,.03,.03,.03,.07,0,.11-.03,.04-.07,.07-.12,.08-.05,.01-.12,.05-.22,.1-.1,.05-.16,.09-.2,.12,0,.02,0,.09-.02,.21,0,.12-.01,.22-.01,.3v.09c.06,0,.11,0,.16-.01,.05-.03,.17-.05,.38-.07s.34-.04,.4-.05c.04-.01,.21-.03,.5-.06,.29-.02,.45-.05,.49-.07,.06-.02,.12-.03,.18,0,.06,.02,.07,.07,.05,.14-.01,.05-.04,.09-.07,.1-.03,.02-.12,.03-.25,.05-.02,0-.14,.02-.37,.03-.22,.01-.37,.02-.44,.04-.07,.01-.18,.03-.33,.04-.15,.02-.27,.04-.37,.06-.1,.02-.2,.05-.3,.08-.04,.01-.07,.05-.11,.13-.01,.02-.04,.02-.06,.02-.03,0-.05-.02-.08-.05-.01-.03-.04-.04-.07-.05s-.07,0-.11,0-.08,.01-.1,0c-.14,.01-.27,.03-.39,.06-.1,.02-.17,.03-.19,.01-.01-.01-.02-.04-.03-.09,0-.05,0-.09,0-.11,.01-.02,.04-.04,.08-.05Z"/><path class="cls-2" d="M77.99,5.24c-.07-.03-.12-.04-.15-.04-.03,0-.06-.01-.09-.04-.08-.07-.06-.13,.05-.16,.04-.03,.13-.02,.29,.03s.23,.09,.23,.12c.03,.05,.03,.09,0,.12s-.06,.04-.1,.03c-.03-.01-.06-.02-.09-.02-.02,0-.07,0-.14-.03Zm.37,.84c-.06,.04-.13,.08-.21,.12-.08,.04-.14,.07-.16,.08-.09,.05-.16,.07-.19,.04-.02-.01-.03-.05-.04-.11,0-.06,0-.1,.02-.12,.01-.02,.05-.02,.11-.02,.05,0,.08,0,.11-.01,.03,0,.08-.04,.17-.08,.12-.07,.19-.1,.21-.1,.02,0,.04,0,.06,.03s.03,.04,.03,.05c-.02,.05-.06,.09-.12,.13Zm.27,.19c.05-.08,.09-.09,.11-.05,.01,0,0,.05-.03,.13-.03,.08-.07,.17-.11,.26-.04,.09-.07,.15-.08,.18-.01,.06-.1,.19-.28,.38-.18,.19-.29,.29-.34,.32-.02,.01-.04,0-.07-.01s-.05-.04-.05-.07c-.01-.06,.02-.12,.09-.17,.34-.28,.6-.6,.76-.96Zm1.79-.84s-.01-.02-.03-.01c-.02,0-.03,.01-.05,.02-.02,.01-.03,.02-.05,.04-.02,.01-.03,.02-.04,.01-.02,0-.04,.02-.08,.05-.03,.03-.07,.04-.09,.05-.01,0-.06,.03-.14,.07s-.14,.07-.2,.09c-.06,.02-.1,.03-.13,.02-.02,0-.04-.03-.05-.08-.02-.04-.02-.07,0-.09,0-.01,.03-.03,.11-.07s.17-.08,.26-.12c.09-.04,.15-.07,.17-.09,.07-.05,.14-.09,.21-.12,.07-.03,.11-.07,.13-.1,.01-.03,.01-.12,0-.25-.01-.15-.02-.23-.02-.25,0-.04,0-.06-.02-.07s-.02-.02-.04-.01c-.02,0-.04,.01-.06,.02-.02,.01-.04,.02-.07,.03-.02,.01-.04,.02-.06,.02-.03,0-.06,.01-.07,.02-.01,0-.02,0-.03,0,0,0-.02,0-.03,.02s-.03,.02-.05,.03c-.06,.03-.12,.02-.15-.03s-.05-.08-.05-.12c.03-.03,.16-.07,.38-.15,.22-.07,.36-.12,.41-.15,.04-.01,.07-.01,.11,0,.1,.03,.1,.1,.01,.19-.02,.03-.04,.05-.05,.06,0,.01-.01,.03-.01,.05s0,.04-.01,.07c-.01,.03,0,.12,.02,.27,.01,.08,.03,.12,.04,.12,.04-.01,.07-.03,.11-.05,.04-.02,.08-.06,.13-.09,.05-.04,.08-.07,.11-.08,.05-.04,.09-.06,.1-.07s.02-.03,.02-.06c0-.05,.02-.09,.09-.12,.07-.02,.12-.01,.16,.03,.03,.03,.04,.06,.03,.09,0,.03-.04,.08-.12,.15-.07,.08-.13,.12-.16,.14-.03,.02-.08,.06-.16,.12s-.15,.11-.21,.14c-.08,.05-.13,.08-.15,.1-.02,.02-.03,.06-.05,.13,0,.02-.02,.05-.03,.1-.01,.05-.03,.09-.04,.11-.01,.03-.03,.05-.05,.08s-.04,.05-.07,.06c-.02-.01-.03-.03-.04-.05s0-.06,0-.11c0-.05,.01-.08,.01-.1,0-.04,0-.07,0-.09Zm.75,1.38c-.04,.06-.06,.11-.06,.13-.01,.01,.02,.02,.1,.02l.28-.02c.19-.03,.29-.01,.31,.05,.02,.06,.02,.11-.02,.15-.04,.04-.1,.05-.17,.03-.04-.01-.14,0-.29,0-.12,.01-.21,.03-.27,.05-.06,.02-.15,.06-.27,.12-.06,.03-.11,.05-.15,.05-.04,0-.07,0-.11-.03-.02-.01-.04-.02-.04-.02,0,0-.01,0-.02,.02-.03,.05-.05,.09-.07,.1s-.04,.02-.07,.02c-.02,0-.04,0-.05,0-.01,0-.03-.02-.03-.04,0-.02-.01-.04-.02-.05,0-.02,0-.04,0-.07,0-.03,0-.05,0-.07,0-.02,0-.04,0-.07,0-.03,0-.04,0-.06,0-.03,.01-.08,.02-.16,0-.08,.01-.14,.03-.18,.02-.07,.03-.17,.03-.3v-.19s.03-.04,.03-.04c.03-.03,.06-.05,.07-.04,.02,0,.03,.03,.05,.08,.02,.06,.04,.1,.05,.1,.01,0,.04-.01,.09-.06,.08-.09,.17-.15,.3-.17s.23,0,.32,.08c.05,.05,.08,.11,.09,.18s0,.14-.04,.21c-.02,.04-.03,.06-.03,.08,0,.01-.03,.05-.07,.11Zm-.29-.46s-.11,.08-.19,.16c-.06,.06-.1,.11-.12,.13-.01,.02-.02,.05-.02,.08s0,.08-.02,.12c-.01,.04-.02,.08-.02,.12,0,.04,0,.08,0,.11s0,.08,0,.13c.23-.09,.4-.26,.51-.5,.05-.11,.08-.19,.08-.24,0-.05-.02-.09-.07-.11-.05-.03-.1-.03-.14,0Z"/></g></svg>