<?xml version="1.0" encoding="utf-8"?>
<!-- Generator: Adobe Illustrator 26.4.1, SVG Export Plug-In . SVG Version: 6.00 Build 0)  -->
<svg version="1.1" id="_圖層_1" xmlns="http://www.w3.org/2000/svg" xmlns:xlink="http://www.w3.org/1999/xlink" x="0px" y="0px"
	 viewBox="0 0 46.1 32.4" style="enable-background:new 0 0 46.1 32.4;" xml:space="preserve">
<style type="text/css">
	.st0{fill:#0068A4;}
	.st1{fill:#FFFFFF;}
</style>
<g>
	<path id="line" class="st0" d="M31.3,7.3c0.1,0,0.4-0.1,0.5-0.1c0.1,0,0.3-0.1,0.4-0.1c0.1-0.1,0.1-0.1,0-0.2
		c0-0.2-0.1-0.2-0.5-0.1c-0.2,0.1-0.4,0.1-0.4,0.1c0,0-0.1,0-0.1,0s-0.1,0-0.2,0c0,0-0.1,0-0.1,0.1c0,0.1,0,0.1,0,0
		c0-0.1,0-0.1-0.2-0.1c-0.1,0-0.2,0-0.2,0c0,0-0.3,0-0.3,0.1c0,0,0,0-0.1,0c0,0-0.1,0-0.2,0s-0.1,0-0.2,0c0,0-0.1,0-0.2,0.1
		c0,0-0.1,0-0.1,0s0,0-0.1,0s-0.1,0-0.1,0c0,0-0.1,0-0.1,0s-0.1,0-0.1,0c0,0-0.2,0-0.6,0.1c-0.2,0-0.4,0.1-0.5,0.1
		c-0.1,0-0.3,0.1-0.3,0.1c0,0-0.1,0-0.1,0s-0.1,0-0.1,0c0,0-0.1,0.1-0.1,0c0,0-0.1,0-0.3,0.1c-0.1,0-0.1,0-0.2,0c0,0-0.1,0-0.1,0
		c0,0-0.1,0-0.2,0s-0.2,0-0.2,0c-0.1,0-0.4,0.1-0.7,0.1c-0.3,0.1-0.6,0.1-0.8,0.2C24.4,8,24.3,8,24.3,8c-0.1,0-0.8,0.2-0.8,0.2
		c0,0-0.1,0-0.1,0c0,0-0.1,0-0.1,0c0,0-0.1,0-0.1,0c0,0,0,0,0,0s0,0.1-0.1,0.1c-0.1,0.1-0.1,0,0-0.1c0.1-0.1,0-0.1-0.1-0.1
		c-0.1,0-0.1,0-0.1,0c0,0-0.1,0-0.1,0c-0.2,0.1-0.3,0.1-0.3,0.1c0-0.1-0.3,0-0.3,0.1c0,0,0,0.1-0.1,0.1s0,0,0-0.1
		c0.1-0.1,0-0.1-0.2,0c-0.1,0-0.1,0.1-0.2,0.1c0,0,0,0,0,0.1c0,0,0,0.1,0,0.1s0,0,0-0.1c0,0-0.1,0-0.2,0c-0.1,0-0.2,0.1-0.2,0
		c0,0-0.1,0-0.2,0s-0.1,0-0.2,0c0,0-0.1,0-0.1,0s0,0.1-0.1,0c0,0-0.1,0-0.1,0s-0.1,0-0.1,0c0,0-0.1,0-0.1,0c0,0,0,0.1-0.1,0.1
		c-0.1,0-0.1,0,0,0c0-0.1,0-0.1-0.1,0c-0.1,0-0.2,0.1-0.3,0.1c0,0-0.1,0-0.1,0c0,0,0,0,0,0s0,0,0,0c0,0,0,0-0.1,0c0,0-0.2,0-0.3,0.1
		c-0.2,0-0.2,0.1-0.2,0.1c0,0.1,0,0.1,0,0c0-0.1-0.2-0.1-0.2,0c0,0,0,0-0.1,0c-0.1,0-1.3,0.3-1.4,0.3c0,0-0.2,0.1-0.4,0.1
		c-0.2,0-0.4,0.1-0.5,0.1s-0.2,0.1-0.3,0.1c-0.1,0-0.1,0-0.1,0.1c0,0-0.1,0.1-0.3,0.1c0,0-0.1,0-0.2,0.1c-0.1,0-0.2,0.1-0.2,0.1
		s-0.1,0-0.1,0s-0.3,0.1-0.5,0.1c-0.5,0.1-0.6,0.2-0.6,0.5c0.1,0.3,0.2,0.2,1.6-0.1c0.2-0.1,0.4-0.1,0.5-0.2c0,0,0,0,0.1,0
		c0.1,0,0.5-0.1,0.4-0.1c0,0,0,0,0,0c0,0.1,1.4-0.3,1.6-0.4c0,0,0.2-0.1,0.5-0.1c0.2,0,0.4-0.1,0.5-0.1c0,0,0.1,0,0.2,0
		c0,0,0.1,0,0.1,0c0,0,0,0,0.1,0c0.1,0,0.3,0,0.3-0.1c0,0,0,0,0,0c0,0.1,0.5-0.1,0.6-0.1c0,0,0.1,0,0.1,0c0,0,0.1,0,0.2,0
		c0.1,0,0.2-0.1,0.3-0.1c0.1,0,0.1,0,0.1-0.1s0,0,0,0c0,0,0.1,0,0.1,0c0.1,0,0.1-0.1,0.3,0c0,0,0.1,0,0.2-0.1s0.1-0.1,0.2,0
		c0,0,0.1,0,0.2,0c0.2-0.1,0.3-0.1,0.2-0.2c0-0.1,0-0.1,0.1,0.1l0,0.1l0.1-0.1c0.1-0.1,0.1-0.1,0.2-0.1c0,0,0.1,0,0.1,0
		c0,0,0,0,0.1,0c0,0,0.1,0,0.1,0c0,0,0.1-0.1,0.1,0c0,0,0.2,0,0.5-0.1C23.8,8.6,24,8.5,24,8.5c0.1,0,0.5-0.1,0.6-0.1c0,0,0,0,0.1,0
		c0,0,0.3,0,0.5-0.1s0.6-0.1,0.8-0.2c0.2,0,0.3-0.1,0.3-0.1c0,0,0.1,0,0.1,0s0.1,0,0.1,0c0,0,0,0,0.1,0c0,0,0.1,0,0.1,0s0.1,0,0.1,0
		c0,0,0.2-0.1,0.3-0.1c0.1,0,0.2,0,0.2-0.1c0,0,0,0,0,0c0,0,0.1,0,0.2,0c0.1,0,0.2-0.1,0.1-0.1s0-0.1,0-0.1c0-0.1,0-0.1,0.1,0
		c0,0.1,0.1,0.1,0.1,0.1c0,0,0,0,0.1,0c0,0,0.1,0,0.1,0c0,0,0,0,0,0c0,0,0.3,0,0.4-0.1c0,0,0.1,0,0.1,0c0.1,0,0.4,0,0.4-0.1
		c0,0,0,0,0,0c0.1,0.1,0.2,0,0.2-0.1c0,0,0-0.1,0,0c0,0,0,0,0,0.1c0,0,0,0,0,0c0,0,0,0,0-0.1s0,0,0,0c0,0,0.1,0,0.1,0s0.1,0,0.1,0
		c0,0,0.1,0,0.2,0c0.1,0,0.1-0.1,0.1-0.1c0.1,0,0.2,0,0.2,0c0,0,0,0,0.1,0c0.1,0.1,0.4,0,0.4-0.1c0,0,0,0,0,0c0,0,0.1,0,0.1,0
		c0,0,0.1,0,0.1,0s0,0,0,0c0,0,0,0,0.1,0C31.2,7.3,31.2,7.3,31.3,7.3L31.3,7.3z M20.9,9.1C20.9,9.1,20.8,9.1,20.9,9.1
		C20.8,9,20.8,9,20.9,9.1C20.9,9,20.9,9.1,20.9,9.1z M21.5,8.9C21.5,8.9,21.4,8.8,21.5,8.9C21.4,8.7,21.4,8.7,21.5,8.9
		C21.5,8.8,21.5,8.8,21.5,8.9z M21.7,8.8C21.6,8.8,21.6,8.8,21.7,8.8c0.1-0.1,0.1-0.1,0.1-0.1C21.8,8.7,21.7,8.8,21.7,8.8L21.7,8.8z
		 M21.9,8.8C21.9,8.8,21.9,8.8,21.9,8.8C21.9,8.8,21.9,8.7,21.9,8.8C21.9,8.7,21.9,8.8,21.9,8.8C21.9,8.8,21.9,8.8,21.9,8.8z
		 M29.6,7.3C29.6,7.3,29.5,7.2,29.6,7.3C29.6,7.2,29.6,7.2,29.6,7.3C29.6,7.2,29.6,7.2,29.6,7.3C29.6,7.3,29.6,7.3,29.6,7.3z
		 M31.8,8.8C31.8,8.8,31.8,8.8,31.8,8.8c-0.1,0.1-0.2,0.1-0.5,0.2c-0.4,0-0.4,0-0.5-0.1c0-0.1,0-0.2,0.1-0.1c0,0,0,0,0.1-0.1
		s0.1-0.1,0.1-0.1c0,0,0.1,0,0.1,0c0,0,0.1,0,0.1,0s0.1,0,0.2-0.1c0.2-0.1,0.5,0,0.5,0.1c0,0,0,0.1,0,0.1C32,8.8,31.9,8.8,31.8,8.8
		L31.8,8.8z M29.6,8.7C29.6,8.7,29.5,8.8,29.6,8.7c-0.1,0.1-0.1,0.1-0.1,0.1s0,0,0,0.1C29.5,9,29.6,9,29.7,9c0.1,0,0.1-0.1,0.1-0.1
		C29.8,8.7,29.7,8.7,29.6,8.7L29.6,8.7z M29.7,8.9C29.7,8.9,29.6,8.8,29.7,8.9c0-0.1,0-0.1,0-0.1C29.7,8.8,29.7,8.8,29.7,8.9
		C29.7,8.9,29.7,8.9,29.7,8.9z M29.4,9C29.3,9.1,29.3,9.1,29.4,9c0-0.1,0-0.2-0.1-0.2s0,0,0-0.1c0.1-0.1,0.1,0,0.1,0.1
		c0,0,0,0.1,0,0.1C29.5,8.9,29.5,9,29.4,9z M29.2,8.9C29.2,8.9,29.2,9,29.2,8.9c-0.1-0.1-0.1-0.1-0.1,0s0,0.1,0,0c0,0,0-0.1,0-0.1
		c0,0,0,0,0-0.1s-0.1,0-0.1,0.1s0,0.1,0,0.1c0,0,0,0,0,0c0,0.1-0.1,0-0.1-0.1c0-0.1,0-0.1-0.1,0c0,0-0.1,0-0.1,0c0,0,0,0-0.1,0
		c0,0.1,0.1,0.2,0.1,0.2c0,0,0,0,0,0.1c0,0.1,0.2,0.1,0.2,0.1c0,0,0,0,0.1,0C29.1,9.1,29.3,9,29.2,8.9C29.2,8.9,29.2,8.9,29.2,8.9
		L29.2,8.9z M28.8,8.9C28.8,8.9,28.8,9,28.8,8.9C28.7,9,28.7,8.9,28.8,8.9C28.8,8.9,28.8,8.9,28.8,8.9C28.8,8.9,28.8,8.9,28.8,8.9z
		 M28.4,9C28.5,8.9,28.5,8.9,28.4,9c0-0.1-0.1,0-0.1,0c0,0-0.1,0.1-0.1,0S28.1,9,28,9s-0.1,0-0.2,0c-0.1,0-0.1,0,0,0.1
		c0,0.1,0,0.1-0.1,0c0-0.1-0.1-0.1-0.1,0c0,0.1,0,0.1,0.1,0.1c0.1,0,0.2,0,0.1,0.1c0,0,0,0,0.1,0c0.2,0,0.3-0.1,0.3-0.2
		C28.3,9,28.3,9,28.4,9L28.4,9z M28.1,9.2C28.1,9.2,28,9.2,28.1,9.2C28,9,28.1,9,28.1,9.2C28.1,9.2,28.1,9.2,28.1,9.2z M28.5,9.2
		c-0.1,0.1-0.2-0.1-0.2-0.1c0,0,0.1-0.1,0.1,0c0,0,0.1,0.1,0.1,0.1C28.5,9.1,28.5,9.1,28.5,9.2C28.6,9.2,28.5,9.2,28.5,9.2z
		 M27.8,9.3c0,0-0.1,0-0.1,0s-0.1,0-0.1-0.1c0,0,0-0.1,0-0.1c0.1-0.1,0-0.1-0.4,0c-0.2,0-0.4,0.1-0.4,0.1c0,0,0,0-0.1,0.1
		s-0.1,0.1-0.1,0.1c0-0.1-0.3-0.1-0.3,0c0,0,0,0-0.1,0c0,0-0.1,0-0.1,0.1c0,0.1,0,0.1,0,0c0-0.1-0.1-0.1-0.1-0.1c0,0-0.1,0-0.1,0
		s-0.2,0-0.2,0c-0.1,0-0.1,0,0,0.2c0,0.1,0,0.1,0,0.1c-0.1-0.1-0.2-0.2-0.3-0.2c-0.1,0-0.1,0,0,0.1c0,0,0,0.1-0.1,0
		c-0.1,0-0.1,0-0.1,0s0.1,0.1,0.1,0.1c0,0.1,0,0.1-0.1,0c0,0-0.1-0.1-0.2-0.1c-0.1,0-0.2,0-0.2,0c0,0-0.1,0.1-0.1,0
		c0-0.1-0.3,0-0.3,0.1c0,0,0,0,0,0c0-0.1,0-0.1-0.1,0c-0.1,0-0.1,0-0.1,0s0,0,0,0.1c0,0.1,0,0.1,0,0.1c0,0,0,0,0,0s0,0.1,0,0
		c0,0,0,0,0-0.1c0.1-0.1,0-0.2,0-0.1c0,0-0.1,0-0.1,0c-0.1,0-0.3,0-0.3,0.1c0,0,0,0.1,0,0c0-0.1-0.3-0.1-0.2,0c0,0,0,0-0.1,0
		c-0.1,0-0.1,0-0.2,0c0,0-0.1,0-0.1,0c0,0-0.1,0-0.1,0c0,0,0,0-0.1,0s-0.1,0-0.1,0c0,0,0,0-0.1,0c-0.1,0-0.3,0-0.6,0.1
		c-0.2,0-0.4,0.1-0.4,0.1S21,10,20.9,10c-0.2,0-0.5,0.1-0.7,0.1c-1,0.2-1.2,0.2-1.2,0.3c0,0.1,0,0.1,0,0c-0.1-0.1-0.1-0.1-0.1,0
		c0,0.1,0,0.1-0.1,0c0,0-0.1,0-0.2,0c0,0-0.1,0.1-0.1,0c-0.1,0-0.7,0.1-0.7,0.2c0,0,0,0,0,0c-0.1-0.1-0.3,0-0.2,0c0,0,0,0,0,0
		c0,0-0.1,0-0.2,0c-0.1,0-0.3,0.1-0.5,0.1c-0.2,0-0.5,0.1-0.5,0.1c0,0-0.1,0.1-0.2,0.1c-0.1,0-0.2,0.1-0.2,0.1s0,0-0.1,0
		c0,0-0.1,0-0.2,0c-0.1,0-0.1,0.1-0.1,0c0,0-0.1,0-0.1,0.1c-0.1,0.1-0.1,0.1-0.1,0.1c0,0,0,0,0,0c-0.1,0-0.1,0,0,0.1
		c0,0.1,0.1,0.1,0.1,0c0.1-0.1,0.1-0.1,0,0c0,0.1-0.1,0.1-0.1,0.1s0,0,0,0.1c0,0.1,0.1,0.1,0.2,0.1c0.1,0,0.2,0,0.2-0.1s0,0,0.1,0
		s0.1,0,0.1,0c0,0,0,0,0,0c0,0,0.1,0,0.1,0c0,0,0.1,0,0.1,0c0,0,0,0,0,0c0,0,0-0.1,0.1,0c0.1,0,0.4,0,0.5-0.1c0,0,0.1,0,0.2,0
		c0.1,0,0.2-0.1,0.2-0.1s0.1-0.1,0.1,0c0,0.1,0,0.1,0,0c0,0,0.1,0,0.1,0c0,0,0,0,0.1,0c0,0,0.1-0.1,0.1-0.1c0,0,0.1,0,0.1-0.1
		c0,0,0.1-0.1,0.1,0c0.1,0,1-0.2,1-0.2c0,0,0,0,0.1,0c0,0,0.1,0,0.2,0c0.1,0,0.1-0.1,0.1,0s0,0,0.1,0c0.1,0,0.1-0.1,0.1-0.1
		c0-0.1,0-0.1,0.1-0.1c0,0.1,0.2,0,0.5,0c0.2-0.1,0.5-0.1,0.6-0.1c0.7-0.1,1.8-0.4,1.8-0.4c0,0,0,0,0.1,0c0,0,0,0,0.1-0.1
		c0-0.1,0-0.1,0.1-0.1c0,0,0,0,0,0.1c0,0.1,0,0.1,0,0c0,0,0.1,0,0.2,0c0.1,0,0.2,0,0.2-0.1c0.1,0,0.1,0,0.2,0c0,0,0,0,0,0
		c0,0-0.1-0.1-0.1-0.1c-0.1,0-0.1,0,0-0.1c0,0,0.1-0.1,0-0.1c0,0,0,0,0-0.1c0,0,0,0,0.1,0.1c0,0.1,0.1,0.1,0.1,0.1s0.1,0,0.1,0
		c0,0,0.1,0,0.2,0s0.2,0,0.2,0c0,0,0.1,0,0.2,0c0.1,0,0.1,0,0.1-0.1c0,0,0,0,0.1,0c0,0,0.1,0,0.1,0c0,0,0.1,0,0.1,0
		c0.1,0,0.2,0,0.2-0.1c0,0,0,0,0,0c0,0,0,0,0,0c0-0.1,0-0.1,0-0.1c0,0,0.1,0,0.1,0c0.1,0,0.1,0,0,0.1c0,0.1,0,0.1,0.2,0.1
		c0.1,0,0.1,0,0.2-0.1c0-0.1,0.1-0.1,0.2,0c0,0,0.1,0,0.1,0c0,0,0.1,0,0.1,0s0.1,0,0.1,0c0,0,0.2-0.1,0.2,0c0,0,0,0,0,0c0,0,0,0,0,0
		c0.1,0,0.1,0,0.1,0c0,0,0,0,0,0c0,0,0.1,0,0.2,0c0.1,0,0.1,0,0.1-0.1c0-0.1,0-0.1,0,0s0.1,0.1,0.4,0c0.2-0.1,0.3-0.1,0.3-0.2
		c0,0,0-0.1,0.1-0.1c0,0,0,0,0,0c0,0.1,0,0.2,0,0.2c0,0,0,0,0.1,0c0,0,0,0,0.1,0C27.6,9.3,27.7,9.3,27.8,9.3
		C27.8,9.3,27.8,9.3,27.8,9.3C27.9,9.2,27.9,9.2,27.8,9.3L27.8,9.3z M15.5,11.7c0,0-0.1,0-0.1-0.1c0-0.1,0-0.1,0,0c0,0,0.1,0,0.1,0
		C15.5,11.6,15.5,11.6,15.5,11.7C15.6,11.7,15.6,11.7,15.5,11.7L15.5,11.7z M22.8,10C22.8,10,22.7,10,22.8,10
		C22.7,9.9,22.7,9.9,22.8,10C22.8,9.9,22.8,10,22.8,10z M25.4,9.6C25.4,9.6,25.3,9.5,25.4,9.6C25.3,9.5,25.4,9.5,25.4,9.6
		C25.5,9.5,25.5,9.6,25.4,9.6C25.5,9.6,25.4,9.6,25.4,9.6z M25.9,9.5C25.9,9.5,25.9,9.5,25.9,9.5C25.9,9.5,25.9,9.4,25.9,9.5
		C25.9,9.4,26,9.4,25.9,9.5z M26.8,9.4C26.8,9.4,26.8,9.3,26.8,9.4C26.8,9.2,26.8,9.2,26.8,9.4C26.9,9.4,26.9,9.4,26.8,9.4z"/>
	<path class="st0" d="M11,6.8c-1.2,0.5,0.5-5.7,0.2-6.7c0.5-0.4,0.3,0.6,0.9,0.5c2.6-0.4,1.5,2.4,0.2,3.2C10.8,4,11.2,5.7,11,6.8
		L11,6.8z M12.5,3.1c1.2-1.2,0.7-2.4-0.8-1.9C11.7,2.1,10.8,4.8,12.5,3.1z"/>
	<path class="st0" d="M19.2,4.4C17.5,7,13,5.9,15.1,2.7c0.5-0.6,1.3-1.8,2.2-1.4c0.2,0.1,0.3,0.3,0,0.3c-2,0.3-3.4,4-0.6,3.7
		C17.5,5.3,18.5,4,19.2,4.4z"/>
	<path class="st0" d="M20.4,0c1.7,0.5-0.2,3.4,0.2,4.3c0.7-0.5,1-1.3,1.6-1.4c1-0.2,0.9,3.9,0.1,2.7c0-0.5,0.1-1.7-0.2-1.9
		c0,0-0.1,0-0.1,0.1c-0.1,0-1.6,1.7-1.7,1.7l0,0C18.9,5.8,21.1,1.2,20.4,0L20.4,0z"/>
	<path class="st0" d="M26.3,3.6c-0.1,1.4-2.8,3-2.8,0.8C23.5,2.9,25.9,2.1,26.3,3.6z M25.9,3.7c-0.4-1-1.8-0.3-1.8,0.6
		C24.1,5.8,25.7,4.4,25.9,3.7z"/>
	<path class="st0" d="M30.2,3.8c0.1,0.6,0.6-0.5,0.9-0.6c1.5-1.3,0.9,1.8,0.5,2.3C30.5,6,32.4,2.2,31,3.9c-0.9,1.1-2.1,2.8-1.4,0.1
		c-0.4-0.6-1.4,1.3-1.9,1.5c-1.1,1.5-0.1-2.7,0.2-3c0.4,0.3,0.3,0.4,0.2,1C27.5,6,30,1.5,30.2,3.8L30.2,3.8z"/>
	<path class="st0" d="M35.5,4.9c0.3,0.6-1,1.1-1.4,0.8C33.5,5.4,33.5,4.4,33,4c0.2-0.8,0.5-2.3,1.6-2c0,0,0.2,0.2,0.3,0.3
		c1,1-0.5,1.4-1,2C34,5.7,34.6,5.3,35.5,4.9L35.5,4.9z M34,2.8c-0.5,0.7-0.1,1.1,0.5,0.4C35,2.8,34.4,2.1,34,2.8z"/>
</g>
<g>
	<path class="st1" d="M2,17.2c-0.1,1,1.3,0.6,1.9,1.2c1.1,1.1-1.2-0.3-1.7-0.2c-0.6,0.2,0,2-0.6,2.4c-0.5-0.3,0.1-1.3,0-1.8
		c0-0.2,0-1.1,0-1.4c-0.2,0.2-0.4,0.7-0.6,0.9c-0.3,0.5-0.5,1-0.8,1.3c-0.6-0.2,0.6-1.4,0.8-2C2.4,15.8,0.5,17.8,0,17
		c0.3-0.4,1.2-0.2,1.6-0.6c0.2-0.1,1.5-1.1,1-0.3C2.4,16.4,1.6,17,2,17.2L2,17.2z"/>
	<path class="st1" d="M5.1,20.2C5.7,20,6,18.7,6.5,18.9C6.3,19.2,5.2,21.1,5.1,20.2z M7.3,18c-0.8,0.6-1.7,1.6-1.9-0.1
		c-0.2-0.4-0.4-1,0-1.1c0.2,0.2,0.1,1,0.5,0.9c0,0.3,0,0.5,0.1,0.9c0.5-0.3,1.1-1.2,1.3-1.6c-0.4-0.1-1.1,0.2-1.4,0.6
		c-0.4-0.6,1.3-1.2,1.7-0.8C7.6,17.3,6.8,17.5,7.3,18L7.3,18z M9.1,20.6c-0.1,0.7-0.4-0.1-0.7-0.3c-0.2-0.3-0.8-0.6-0.8-0.9
		C8.2,19.4,8.9,20.2,9.1,20.6L9.1,20.6z"/>
	<path class="st1" d="M10.9,18.4c0.1,0.2-1,1.3-1,0.6C10,18.9,10.8,18.3,10.9,18.4z M10.2,20.6c0.4-0.3,0.6-1.2,1-1.3
		C11.3,19.9,9.8,21.6,10.2,20.6z M10.3,16.9c0.1-0.3,0.8,0,0.7,0.2c-0.1,0.2-0.2,0.2-0.4,0C10.5,17.1,10,17.2,10.3,16.9L10.3,16.9z
		 M13.9,15.5c0,0,0.6-0.3,0.6-0.2c0.2,0.4-1.1,0.7-1.1,1.2c-0.1,0.1-0.1,0.1,0,0.1c0.6-0.3,0.3,0.3-0.1,0.5c-0.2,0.3-0.8,0.3-0.8,0
		c0.2-0.7-0.1-0.5-0.6-0.4c-0.9,0.1,0.2-0.5,0.7-0.6c0-0.3-0.2-1,0.3-0.8c0,0.1-0.1,0.5,0,0.6c0.3,0,0.8-0.4,0.7-0.8
		C13.6,14.9,14,15.3,13.9,15.5z M15.1,19c0.3,0.2,0.2,0,0.2-0.4c0.2-0.9-1.1-1-1.5-0.4c-0.2,0.3,0.3,2.9-0.5,2.2
		c-0.2-0.4-0.1-0.3,0.1-0.2c0,0,0-0.5,0-0.6c-0.3-0.5-0.4,0.5-0.8,0.6c-0.5-0.2,0.2-0.5,0.3-0.7c0.1-0.3-0.2-0.5,0.3-0.5
		c0.4,0.4,0.2-0.4,0.2-0.6c-0.4,0-0.8,0.6-1,1.1c0.1,0.3-0.3,1.3-0.5,0.6c0-1.4,0.5-2.7,0.4-1.2c0.2-0.5,1.1-0.7,1.1-1.3
		c0.9,0.1,2.3-0.7,2.1,1.1c-0.1,0.4,0.1,0.6,0.2,1c-0.3,0.2-0.4,0.5-0.4,1c0,0.9-0.6,0.4-0.8-0.1c0.1-0.3,0.4,0.4,0.4,0.2
		c0.1-0.4,0.1-0.9,0.1-1.3c-0.2-0.1-0.4-0.3-0.6-0.4c-0.2,0.2-0.8,0.9-0.8,0.3c0.4-0.2,0.8-0.6,0.3-0.9C14.1,18.1,14.8,18.9,15.1,19
		L15.1,19z M13.1,16.9c0.1-0.1,0.2-0.3,0.2-0.5C13,16.3,12.8,17.2,13.1,16.9z"/>
	<path class="st1" d="M16.6,20.5c0.3-0.6,1-1.4,1.3-2.1C18.7,18.3,16.9,20.8,16.6,20.5z M19,16.1c0.9-0.5,1.5-0.4,0.8,0.5
		c0.4,0.4-0.9,0.8-0.5,1.5c0.2,0,0.6-0.9,0.8-0.5c-1.5,1.7-1.2,1.9,0.9,2.2c0.4,0.3,2-0.1,1.9,0.5c-0.6,0.2-6.8-1.1-4.5-1
		c0.7,0.3,0.4-1.1,0.5-1.6c-0.1-0.2-0.5,0.4-0.7,0.1c-0.4-0.1-0.2-0.7-0.3-1c-0.1-0.2-0.5-0.6-0.1-0.6C18.4,16.5,18.3,16.5,19,16.1
		L19,16.1z M19.8,16.1c-0.6,0.2-1.7,0.5-1.3,1.4C18.9,17.4,19.8,16.6,19.8,16.1z"/>
	<path class="st1" d="M23.6,20c0.9-0.1,1.2,0,1.2-1c-0.9,0.3-0.7-0.2,0-0.3c0.3-1.9-0.2-0.3-1-0.8c-0.2-0.7,0.5-1.5,0.3-0.2
		c0.1,0,0.5-0.2,0.8-0.4c-0.1-1.2,0.5-2,0.4-0.3c0.2,0,0.3-0.4,0.5-0.4c0.3,0.1,0.3,0.2,0,0.5c-0.6,0.2-0.7,1-0.6,1.5
		c1.2-0.5,0.6,0.1-0.1,0.4c0,0.2,0,0.7,0,0.9c0.9-0.1,2.1-0.3,3-0.4c0.2,0.8-2,0.3-2.5,0.6c-0.3-0.1-0.5,0.4-0.8,0.2
		C24.5,20.1,23,20.8,23.6,20L23.6,20z"/>
	<path class="st1" d="M29.3,17.4c-1.2-0.4,0.3-0.5,0.5-0.1C29.9,17.6,29.5,17.5,29.3,17.4z M29.9,18.6c-0.3,0.1-1,0.7-0.8,0
		C29.2,18.6,30.4,18,29.9,18.6z M30.2,18.9c0.5-0.2-0.7,1.8-1.1,1.7C29,20,30.2,19.5,30.2,18.9z M32.8,17.6
		c-0.1-0.1-0.2,0.1-0.2,0.1c-0.2,0.1-1,0.7-1,0.2c0.6-0.3,1.7-0.7,1.1-1.5c-0.2,0.1-0.8,0.4-0.8,0c0.2-0.1,1.1-0.5,1.3-0.4
		c0.3,0.1-0.1,0.3-0.1,0.4c0,0.1-0.1,0.9,0.2,0.6c0.3-0.1,0.4-0.4,0.6-0.6c0.3-0.1,0.4,0.2,0.1,0.4c-0.7,0.6-0.9,0.6-1.3,1.4
		C32.7,18.1,32.8,17.8,32.8,17.6z M33.9,19.6c-0.1,0.1-0.1,0.1-0.1,0.2c0.2,0.1,1.3-0.3,1,0.3c-0.5,0.1-1.1,0.1-1.6,0.4
		c-0.2,0-0.3-0.1-0.3,0.1c-0.6,0,0-1.2-0.1-1.7c0.2-0.3,0.2,0,0.3,0.1C33.4,18.4,34.5,18.8,33.9,19.6z M33.5,19
		c-0.5,0.2-0.6,0.7-0.5,1.2C33.3,20.1,34.2,18.9,33.5,19z"/>
	<path class="st1" d="M36.3,19c-1.3,2.8,0.1-1,0-1.8c0.2-1.1-0.7,0.6-0.8-0.1c0.2-0.6,2.4-1.8,1.1-0.6c0,0.1-0.1,0.8,0.1,0.7
		C38.7,16.7,36.3,18.5,36.3,19L36.3,19z M37.1,17.4c-0.5-0.1-0.7,0.4-0.7,0.9C36.8,18,37.1,17.7,37.1,17.4z M38.4,16.7
		c0.3-0.3,1.2-1.8,1-0.9c-0.4,0.4,0,0.9-0.1,1.4c0.3-0.1,1.9-2,1.4-0.9c-1,0.6,0.2,4.5-0.9,4.4c-0.2-0.3-0.1-0.2,0.1-0.3
		c-0.1-0.6,0.3-2.9,0-3.2c-0.8,0.9-1,0.2-0.9-0.5C38.9,16.5,38.5,17,38.4,16.7z"/>
	<path class="st1" d="M44.2,21.8c-0.2,0.1-0.3-0.2-0.2-0.4c-0.2-0.5,0.5-3.5-0.5-2.5c-0.1,0.2,0,1-0.3,0.9c-0.2,0,0.1-0.8-0.1-0.8
		c-0.3,0.1-0.7,0.2-0.7,0.6c-0.2,0.9-0.4-0.2-0.7-0.4c-0.3-0.7,0.3-0.2,0.5,0.1c1-0.9,2.7-1.3,3.9-1.1c0.1,0.5-1,1.4-1.2,1
		c0.3-0.2,0.8-0.5,0.9-0.8c-0.3-0.1-1.1,0.1-1.4,0.2c-0.1,0.2-0.1,1-0.1,1.2C44.2,19.6,44.5,21,44.2,21.8L44.2,21.8z M42.1,16
		c0,0.7,0.1,0.3,0.7,0.1c0.7-0.2,0.8-0.3,0.7-1.1c-0.8,0.2-0.7-0.4,0.1-0.3c0.2,0.1,0.6-0.3,0.7,0c0,0.2-0.3,0.3-0.4,0.3
		c0,0-0.1,0.7,0,0.7c0.6-0.1,1.6-0.4,2.1-0.1c0,0.7-0.5,1.3-1.1,1.2c-0.2-0.1-0.9-0.1-0.7-0.4c0.1-0.1,0.4-0.8,0.6-0.4
		c0,0.1-0.2,0.3-0.2,0.4c0.5,0.4,1.1,0.1,1.1-0.5c-2.8-0.7-1.4,1.8-2.2,1.2c-0.2,0.1-0.7,0.5-0.6,0.1c0.4-0.3,1-0.4,0.7-1
		c-0.1,0-1.1,0.5-1.2,0.5c0,0.2,0,0.8-0.3,0.6C42,17,41.6,15.6,42.1,16L42.1,16z M43.3,16.7c-0.2,0.1-0.7,0.3-0.8,0.1
		C42.6,16.6,43.6,16.2,43.3,16.7z M43,17.7c0.1-0.2,0.4-0.1,0.6-0.1c1.3-0.2-0.6,1.3-0.9,1.1c0-0.2,0.5-0.4,0.8-0.8
		C43.4,17.8,42.8,18,43,17.7L43,17.7z"/>
</g>
<g>
	<path class="st1" d="M4.6,25.2C4.9,24.6,4.8,25.9,5,26c0.4-0.2,1.1-1.1,0.3-0.4c-0.6,0.3-0.1-0.5,0.2-0.6c0.3-0.1,0.2-0.5,0.2-0.7
		c-3,1.1,0.8-1.2,1-0.5c-0.3,0.3-0.8,0.2-0.6,0.9c1.5-0.6,1.2,0.8,0.4,1.5c-0.5,0.1-1.3,1-0.8,1.4c0.4,0.3,4.8,1.2,3.1,1.4
		c-1-0.3-2.2-0.6-3.1-1c-0.6-0.4-0.5,0.5-0.8,0.7c-0.7,1-1.1-1-0.6,0c0.3,0,0.8-0.8,0.6-1c-1.1-0.3-0.3-0.6,0.3-0.3
		c0.1-0.1,0.3-0.6,0-0.7C5,26.6,5,27,4.8,26.9C4.6,26.5,4.4,25.6,4.6,25.2L4.6,25.2z M5.6,25.9c-0.2,0-0.3,0.4-0.6,0.3
		C5,26.8,5.7,26.3,5.6,25.9z M6.8,24.8c-0.2,0-0.8,0.1-0.7,0.4c1-0.2-0.3,0.4-0.1,0.8c0.2,0,0.4-0.3,0.5-0.5
		C6.7,25.7,6.9,25,6.8,24.8C6.9,24.8,6.8,24.8,6.8,24.8z"/>
	<path class="st1" d="M11.2,26.6c-0.2,0.6-0.1,2.1-0.4,2.6c-0.4-0.1,0-1.5,0-2.2c0.1-0.3-0.3,0-0.4,0.1c-0.7,0.3-0.6-0.2-0.3-0.6
		c0.3-1.1,0.4-0.3,0.2,0.4c0.8,0,0.7-1.2,0.8-1.7c0.7-0.9-0.1,1.5,0.4,1.1C12.2,26,11.6,26.5,11.2,26.6L11.2,26.6z M13,23.8
		c0.2-0.2,0.2,0.2,0.4,0.1c0.7,0-0.4,0.5-0.2,0.8c-0.2,0-0.2-0.1-0.3-0.2c-0.1,0-0.4,0-0.4-0.1C12.6,24.1,13,24,13,23.8L13,23.8z
		 M12.9,28.3c0.1-0.1,0.6-0.2,0.7-0.3c0-0.5,0.3-0.9-0.2-0.4c-0.2-0.2,0-0.8,0.1-1c0.1-0.2,0.3,0.3,0.3-0.1
		c-1.5,0.3-1.1-0.1,0.1-0.4c0.1-0.5-0.2-0.3-0.6-0.3c-0.5-0.2,1.2-0.7,1.4-0.8c0.1,0.3-0.4,0.4-0.5,0.5c-0.1,0.4,0.1,0.3,0.4,0.2
		c0.3,0.1-0.1,0.4-0.2,0.4c-0.1,0.1-0.1,0.2,0,0.2c0.5,0,0.3,0.9,0.1,1c-0.2,0.1-0.7,0.7-0.1,0.5c0.6,0,0.2,0.4-0.2,0.3
		c-0.2,0-0.2,0.3-0.2,0.5c0.4-0.2,3-0.3,1.6,0.2c-0.6-0.2-4,1-2.1,0C14,27.7,12.7,29,12.9,28.3L12.9,28.3z M13.6,26.9
		c0,0.1,0.2,0.1,0.1,0C13.8,26.8,13.6,26.8,13.6,26.9z M14.8,23.7c0.4,0.1,0,0.3-0.1,0.4c-0.2,0.5-0.6,0.8-0.4,0
		c-0.8,0.1-0.4-0.4,0.1-0.3C14.5,23.5,15,23.1,14.8,23.7z M14.2,26.9c-0.1,0.1-0.2,0.2-0.1,0.2C14.2,27.1,14.4,26.7,14.2,26.9z
		 M14.2,26.7C14.4,26.7,14.3,26.5,14.2,26.7C14,26.7,14.1,26.7,14.2,26.7z"/>
	<path class="st1" d="M16.5,26.7c-0.1-0.1,0-0.2,0.1-0.2c0.3-0.7,1.6-2.8,0.6-0.6c0.6,0,0.2,2.1,0.1,2.5c-0.4-0.4,0-2.2-0.2-2.3
		C17,26.2,16.7,26.9,16.5,26.7z M20.2,26.1c0.6,0.5-1.7,2.6-0.9,1.2C19.8,27.2,19.8,26.2,20.2,26.1z M21.1,26.6
		c0.3,0.1,2.9,1.8,1.3,1.4c-2.3-2.4-1.3-0.3-1.5,1.3c-0.5,0.6-0.7-1.5-0.3-0.4c0.1-0.9-0.1-2.4-0.1-3.3c0-0.3,0-0.6,0.2-0.9
		c-0.4-0.2-0.7-0.4-0.7-0.9c0-0.3,0.4-0.3,0.4,0.1c0,0.6,0.7,0.2,0.8,0.4C20.9,24.7,20.4,26.6,21.1,26.6L21.1,26.6z"/>
	<path class="st1" d="M24.6,25.8c0.4-0.1,0.2,1.5,0.5,0.6c0.5-0.8,0.9,0.3,1,0.7c0.1,0,0.3-0.4,0.3-0.2c0.1,0.1-0.2,0.4-0.2,0.5
		c-0.2,0.2-0.1,1.6-0.5,1c0.1-0.1,0.2-0.3,0.1-0.4c-0.1,0-0.5,0.6-0.6,0.4c-0.1-0.1-0.1,0-0.1,0.1c-0.5,0.9-0.1-2.1-0.5-2.3
		c-0.3,0.1-0.5,0.6-0.7,0.7c-0.2,0,0-0.5,0.1-0.6c0.2-0.3,0.4-1.1,0.7-1.3C25.1,24.9,24.5,25.7,24.6,25.8
		C24.5,25.8,24.5,25.8,24.6,25.8L24.6,25.8z M25.7,27.4c-0.2-0.3-1,0.6-0.7,0.8C25.1,28.1,25.8,27.6,25.7,27.4z M25.2,26.6
		c-0.2,0.2-0.2,0.5-0.3,0.8c0.1,0,0.5-0.4,0.7-0.4C25.7,26.8,25.4,26.3,25.2,26.6L25.2,26.6z M29.3,26.6c0.1,0,0.1,0.1,0.1,0.1
		c1.3,0.5,1.1,1-0.1,0.3c-0.1,0.8-0.8,2.4-1.1,1c0.6,0.8,0.8-0.5,0.8-1c-1.2-0.3-1.2-0.7,0.1-0.3c0-0.8,0.5-1.6-0.7-1
		c-0.9,0-0.3-2,0-0.3C29.6,24.5,29.4,25.6,29.3,26.6L29.3,26.6z"/>
	<path class="st1" d="M31.1,28.2c0.8-0.1,1.3,0,1.2-1c-0.9,0.3-0.7-0.2,0-0.3c0.3-1.9-0.2-0.3-1-0.8c-0.2-0.7,0.5-1.5,0.3-0.2
		c0.1,0,0.5-0.2,0.8-0.4c-0.1-0.7,0.5-2.2,0.3-0.6c0,0.9,0.4-0.5,0.7,0c0.2,0.2-0.4,0.5-0.6,0.6c-0.3,0.2-0.2,0.9-0.2,1.1
		c-0.1,0.2,0.4,0,0.4-0.1c0.8-0.1-0.3,0.5-0.5,0.6c0,0.2,0,0.7,0,0.9c0.4,0.1,3.5-0.9,3,0c-0.9,0.3-2.4-0.1-3.1,0.6
		C32.1,28.3,30.4,28.8,31.1,28.2L31.1,28.2z"/>
	<path class="st1" d="M36.6,25.5c-0.2-0.1-0.2,0-0.3-0.1c-0.3-0.4,0.8-0.2,0.8,0C37.2,25.7,36.8,25.6,36.6,25.5L36.6,25.5z
		 M37.2,26.8c-0.3,0.1-1,0.7-0.8,0C36.6,26.8,37.7,26.2,37.2,26.8z M37.6,27c0.5-0.2-0.7,1.8-1.2,1.7C36.3,28.2,37.5,27.7,37.6,27z
		 M40.1,25.8c-0.1-0.1-0.2,0.1-0.2,0.1c-0.2,0.1-1,0.7-1,0.2c0.6-0.3,1.7-0.7,1.2-1.5c-0.2,0.1-0.8,0.4-0.8,0
		c0.2-0.1,1.1-0.5,1.3-0.4c0.3,0.1-0.1,0.3-0.1,0.4c0,0.1-0.1,0.9,0.2,0.6c0.3-0.1,0.4-0.4,0.6-0.6c0.3-0.1,0.4,0.2,0.1,0.4
		c-0.7,0.5-0.9,0.7-1.3,1.4C40,26.2,40.1,25.9,40.1,25.8z M41.2,27.8c-0.1,0.1-0.1,0.1-0.1,0.2c0.2,0.1,1.3-0.3,1,0.3
		c-0.5,0.1-1.1,0.1-1.6,0.4c-0.2,0-0.3-0.1-0.3,0.1c-0.6,0,0-1.2-0.1-1.7c0.2-0.3,0.2,0,0.3,0.1C40.7,26.5,41.8,27,41.2,27.8
		L41.2,27.8z M40.8,27.1c-0.5,0.2-0.6,0.7-0.5,1.2C40.6,28.3,41.5,27.1,40.8,27.1z"/>
</g>
</svg>
