<?xml version="1.0" encoding="UTF-8"?><svg id="_圖層_1" xmlns="http://www.w3.org/2000/svg" viewBox="0 0 123.38 51.77"><defs><style>.cls-1{fill:#fff;}.cls-2{fill:#1f1f1f;}.cls-3{fill:none;stroke:#1f1f1f;stroke-width:3.33px;}</style></defs><path class="cls-1" d="m25.88,1.67h71.62c13.37,0,24.22,10.84,24.22,24.22h0c0,13.37-10.84,24.22-24.22,24.22H25.88c-13.37,0-24.22-10.84-24.22-24.22h0C1.67,12.51,12.51,1.67,25.88,1.67Z"/><path class="cls-2" d="m25.83,33c-1.05,0-1.57-.54-1.57-1.63v-10.02c0-1.09.47-1.63,1.41-1.63s1.41.24,1.46.72l.11.88c.26-.55.69-1.01,1.3-1.38.61-.37,1.31-.55,2.1-.55.87,0,1.62.2,2.26.61.64.4,1.14.98,1.49,1.74.35-.68.86-1.24,1.52-1.68.68-.44,1.45-.66,2.32-.66,1.31,0,2.36.46,3.15,1.38.81.9,1.21,2.18,1.21,3.84v6.76c0,1.09-.51,1.63-1.55,1.63s-1.6-.54-1.6-1.63v-6.05c0-.98-.17-1.74-.52-2.29s-.84-.83-1.46-.83c-.79,0-1.41.29-1.85.86-.42.57-.63,1.38-.63,2.43v5.88c0,1.09-.51,1.63-1.55,1.63s-1.57-.54-1.57-1.63v-6.05c0-.98-.18-1.74-.55-2.29-.37-.55-.87-.83-1.49-.83-.77,0-1.37.29-1.79.88-.42.57-.63,1.37-.63,2.4v5.88c0,1.09-.51,1.63-1.55,1.63Zm25.85.3c-1.21,0-2.31-.29-3.29-.86-.96-.59-1.72-1.4-2.29-2.43-.55-1.05-.83-2.27-.83-3.67s.28-2.61.83-3.64c.57-1.05,1.33-1.86,2.29-2.43.98-.59,2.07-.88,3.29-.88s2.36.29,3.31.88c.98.57,1.74,1.38,2.29,2.43.55,1.03.83,2.25.83,3.64s-.28,2.62-.83,3.67c-.55,1.03-1.32,1.84-2.29,2.43-.96.57-2.06.86-3.31.86Zm0-2.82c.98,0,1.77-.36,2.37-1.08.63-.72.94-1.74.94-3.06s-.31-2.35-.94-3.06c-.61-.72-1.4-1.08-2.37-1.08s-1.74.36-2.35,1.08c-.61.72-.91,1.74-.91,3.06s.3,2.35.91,3.06c.61.72,1.39,1.08,2.35,1.08Zm10.69,2.51c-1.05,0-1.57-.54-1.57-1.63v-10.02c0-1.09.54-1.63,1.63-1.63.37,0,.69.09.97.28.28.17.41.49.41.97v.64c.33-.66.85-1.2,1.55-1.6.72-.41,1.47-.61,2.26-.61.57,0,1,.16,1.3.47.31.29.47.7.47,1.21,0,.48-.12.83-.36,1.05-.24.22-.51.31-.83.28-.15-.02-.3-.03-.47-.03-.17-.02-.35-.03-.55-.03-.9,0-1.68.29-2.32.88-.63.59-.94,1.42-.94,2.48v5.66c0,1.09-.51,1.63-1.55,1.63Zm14.77.3c-1.93,0-3.5-.58-4.69-1.74-1.2-1.18-1.79-2.92-1.79-5.22,0-1.44.27-2.67.8-3.7.53-1.05,1.28-1.85,2.24-2.4.96-.57,2.05-.86,3.29-.86s2.28.29,3.15.86c.86.57,1.53,1.31,1.99,2.21.46.9.69,1.84.69,2.82,0,.68-.14,1.13-.41,1.35-.28.2-.68.3-1.21.3h-7.45c.07,1.33.42,2.27,1.05,2.84.63.55,1.44.83,2.43.83,1.12,0,2-.39,2.62-1.16.37-.39.71-.64,1.02-.75.33-.13.68-.06,1.05.19.37.26.58.59.63.99.06.4-.11.83-.5,1.27-.62.75-1.34,1.31-2.15,1.66-.81.33-1.72.5-2.73.5Zm-3.29-8.78h5.88c-.15-.87-.47-1.53-.97-1.99-.48-.48-1.1-.72-1.85-.72-.81,0-1.48.22-2.01.66-.52.44-.87,1.12-1.05,2.04Z"/><path class="cls-2" d="m102.81,26.88l-6.47,6.47-6.47-6.47,6.47-6.47,6.47,6.47Z"/><path class="cls-3" d="m25.88,1.67h71.62c13.37,0,24.22,10.84,24.22,24.22h0c0,13.37-10.84,24.22-24.22,24.22H25.88c-13.37,0-24.22-10.84-24.22-24.22h0C1.67,12.51,12.51,1.67,25.88,1.67Z"/></svg>