<svg width="40" height="40" viewBox="0 0 40 40" fill="none" xmlns="http://www.w3.org/2000/svg">
<g clip-path="url(#clip0_581_8307)">
<path d="M29.817 17.391C29.9299 17.3871 30.0425 17.406 30.148 17.4465C30.2535 17.4871 30.3498 17.5484 30.431 17.6269C30.5123 17.7055 30.577 17.7996 30.6211 17.9036C30.6653 18.0076 30.688 18.1195 30.688 18.2325C30.688 18.3455 30.6653 18.4574 30.6211 18.5614C30.577 18.6654 30.5123 18.7595 30.431 18.8381C30.3498 18.9166 30.2535 18.9779 30.148 19.0185C30.0425 19.059 29.9299 19.0779 29.817 19.074H27.478V20.574H29.817C29.9306 20.5685 30.0442 20.586 30.1508 20.6257C30.2574 20.6654 30.3549 20.7263 30.4373 20.8047C30.5197 20.8832 30.5852 20.9775 30.6301 21.0821C30.6749 21.1867 30.698 21.2992 30.698 21.413C30.698 21.5268 30.6749 21.6393 30.6301 21.7439C30.5852 21.8485 30.5197 21.9428 30.4373 22.0213C30.3549 22.0997 30.2574 22.1606 30.1508 22.2003C30.0442 22.24 29.9306 22.2576 29.817 22.252H26.64C26.4179 22.2512 26.2052 22.1625 26.0483 22.0053C25.8915 21.848 25.8033 21.6351 25.803 21.413V15.053C25.803 14.59 26.178 14.21 26.64 14.21H29.823C30.0389 14.2212 30.2423 14.315 30.391 14.472C30.5396 14.629 30.6222 14.8372 30.6215 15.0534C30.6209 15.2696 30.5371 15.4773 30.3875 15.6334C30.2379 15.7895 30.034 15.8821 29.818 15.892H27.479V17.392L29.817 17.391ZM24.683 21.412C24.6812 21.6347 24.5915 21.8477 24.4334 22.0046C24.2753 22.1616 24.0617 22.2497 23.839 22.25C23.7071 22.2513 23.5768 22.2219 23.4582 22.1641C23.3397 22.1063 23.2362 22.0217 23.156 21.917L19.901 17.49V21.411C19.901 21.6335 19.8126 21.8469 19.6553 22.0043C19.4979 22.1616 19.2845 22.25 19.062 22.25C18.8395 22.25 18.6261 22.1616 18.4687 22.0043C18.3114 21.8469 18.223 21.6335 18.223 21.411V15.051C18.223 14.692 18.458 14.37 18.796 14.255C18.8795 14.2255 18.9675 14.211 19.056 14.212C19.316 14.212 19.556 14.353 19.717 14.551L22.998 18.988V15.051C22.998 14.588 23.373 14.208 23.837 14.208C24.301 14.208 24.681 14.588 24.681 15.051L24.683 21.412ZM17.027 21.412C17.0259 21.6351 16.9365 21.8486 16.7783 22.0059C16.6201 22.1631 16.4061 22.2513 16.183 22.251C15.9616 22.2492 15.7499 22.16 15.5939 22.0029C15.4379 21.8457 15.3503 21.6334 15.35 21.412V15.052C15.35 14.589 15.725 14.209 16.189 14.209C16.652 14.209 17.028 14.589 17.028 15.052L17.027 21.412ZM13.74 22.251H10.557C10.3342 22.2505 10.1206 22.1621 9.96254 22.005C9.80451 21.8479 9.71484 21.6348 9.713 21.412V15.052C9.713 14.589 10.093 14.209 10.557 14.209C11.021 14.209 11.396 14.589 11.396 15.052V20.573H13.74C13.9625 20.573 14.1759 20.6614 14.3333 20.8187C14.4906 20.9761 14.579 21.1895 14.579 21.412C14.579 21.6345 14.4906 21.8479 14.3333 22.0053C14.1759 22.1626 13.9625 22.251 13.74 22.251V22.251ZM36 17.989C36 10.828 28.817 5 20 5C11.183 5 4 10.828 4 17.989C4 24.406 9.693 29.781 17.38 30.802C17.901 30.911 18.609 31.146 18.792 31.589C18.953 31.989 18.896 32.609 18.844 33.032L18.625 34.391C18.562 34.792 18.302 35.97 20.021 35.251C21.745 34.532 29.245 29.814 32.604 25.948C34.901 23.433 36 20.849 36 17.989Z" fill="black"/>
</g>
<defs>
<clipPath id="clip0_581_8307">
<rect width="40" height="40" fill="white"/>
</clipPath>
</defs>
</svg>
