<svg width="40" height="40" viewBox="0 0 40 40" fill="none" xmlns="http://www.w3.org/2000/svg">
<g clip-path="url(#clip0_581_8309)">
<path d="M20.102 9H20.28C21.924 9.006 30.254 9.066 32.5 9.67C33.179 9.85434 33.7977 10.2136 34.2943 10.712C34.7909 11.2104 35.1481 11.8304 35.33 12.51C35.532 13.27 35.674 14.276 35.77 15.314L35.79 15.522L35.834 16.042L35.85 16.25C35.98 18.078 35.996 19.79 35.998 20.164V20.314C35.996 20.702 35.978 22.53 35.834 24.434L35.818 24.644L35.8 24.852C35.7 25.996 35.552 27.132 35.33 27.968C35.1486 28.6479 34.7917 29.2682 34.295 29.7666C33.7983 30.2651 33.1793 30.6242 32.5 30.808C30.18 31.432 21.362 31.476 20.14 31.478H19.856C19.238 31.478 16.682 31.466 14.002 31.374L13.662 31.362L13.488 31.354L13.146 31.34L12.804 31.326C10.584 31.228 8.47 31.07 7.496 30.806C6.81698 30.6224 6.19813 30.2636 5.70145 29.7655C5.20477 29.2674 4.84769 28.6475 4.666 27.968C4.444 27.134 4.296 25.996 4.196 24.852L4.18 24.642L4.164 24.434C4.0653 23.0788 4.0106 21.7207 4 20.362L4 20.116C4.004 19.686 4.02 18.2 4.128 16.56L4.142 16.354L4.148 16.25L4.164 16.042L4.208 15.522L4.228 15.314C4.324 14.276 4.466 13.268 4.668 12.51C4.84939 11.8301 5.20632 11.2098 5.70303 10.7114C6.19973 10.2129 6.81874 9.85378 7.498 9.67C8.472 9.41 10.586 9.25 12.806 9.15L13.146 9.136L13.49 9.124L13.662 9.118L14.004 9.104C15.9074 9.04275 17.8116 9.00875 19.716 9.002H20.102V9ZM16.8 15.42V25.056L25.114 20.24L16.8 15.42Z" fill="black"/>
</g>
<defs>
<clipPath id="clip0_581_8309">
<rect width="40" height="40" fill="white"/>
</clipPath>
</defs>
</svg>
