<?xml version="1.0" encoding="UTF-8"?><svg id="_圖層_2" xmlns="http://www.w3.org/2000/svg" viewBox="0 0 37 37"><defs><style>.cls-1{fill:#00ced6;}.cls-2{fill:#fffe81;}</style></defs><g id="_圖層_1-2"><circle class="cls-2" cx="18.5" cy="18.5" r="18.5"/><g><path class="cls-1" d="M16.58,24c-1.17,.72-2.83,1.21-4.48,1.21-4.01,0-6.93-2.81-6.93-6.67s2.9-6.75,7-6.75c1.66,0,3.02,.47,3.99,1.04v2.39c-1.06-.81-2.5-1.37-3.98-1.37-2.84,0-4.73,2.07-4.73,4.66s1.78,4.66,4.75,4.66c.79,0,1.55-.16,2.12-.45v-2.5h-2.59v-1.94h4.84v5.72Z"/><path class="cls-1" d="M18.4,18.5c0-3.8,2.88-6.71,6.71-6.71s6.71,2.91,6.71,6.71-2.88,6.71-6.71,6.71-6.71-2.92-6.71-6.71Zm11.14,0c0-2.59-1.89-4.62-4.43-4.62s-4.43,2.03-4.43,4.62,1.89,4.62,4.43,4.62,4.43-2.03,4.43-4.62Z"/></g></g></svg>