<svg width="102" height="103" viewBox="0 0 102 103" fill="none" xmlns="http://www.w3.org/2000/svg">
<g clip-path="url(#clip0_76_63375)">
<path d="M101.423 57.5555C102.133 63.8721 102.394 70.3422 100.954 76.5871C99.7689 81.7417 97.6549 87.0243 93.9987 90.9043C89.8166 95.3423 83.4744 97.7174 77.8012 99.4066C69.0642 102.017 60.0923 102.678 51.0795 103.005H50.9212C41.9085 102.683 32.9366 102.017 24.1995 99.4066C18.5264 97.7123 12.1842 95.3372 8.0021 90.9043C4.34593 87.0294 2.23189 81.7468 1.04721 76.5871C-0.392795 70.3422 -0.132369 63.8772 0.577418 57.5555C1.30252 51.0905 2.4821 44.6767 4.10082 38.3806C7.00125 27.0527 10.6778 14.0971 21.2838 7.8522C30.1178 2.64129 40.4889 0.281533 50.7374 0H50.7885C50.86 0 50.9264 0.00511878 50.9978 0.00511878C51.0693 0.00511878 51.1408 0 51.2072 0H51.2583C61.5068 0.281533 71.8778 2.64129 80.717 7.84708C91.3178 14.092 94.9995 27.0476 97.9 38.3755C99.5187 44.6716 100.703 51.0854 101.423 57.5504V57.5555Z" fill="url(#paint0_linear_76_63375)"/>
<path d="M94.9481 41.7948C93.0536 30.5284 90.383 17.0865 79.7106 10.1608C69.0332 3.2351 51.3702 8.10305 51.3702 8.10305C51.3702 8.10305 32.9719 3.2351 22.2944 10.1608C11.617 17.0865 8.95147 30.5233 7.057 41.7948C5.37189 51.5615 11.4485 63.2271 25.1744 64.7525C38.8953 66.2831 43.3021 64.4454 51.0076 64.4454C58.7132 64.4454 63.12 66.2831 76.8408 64.7525C90.5617 63.222 96.6383 51.5563 94.9583 41.7948H94.9481Z" fill="url(#paint1_linear_76_63375)"/>
<path d="M93.9319 52.0631C95.1881 48.741 95.5251 45.1579 94.9481 41.7949C93.0536 30.5284 90.383 17.0865 79.7107 10.1608C69.0332 3.23513 32.9719 3.23513 22.2945 10.1608C11.617 17.0865 8.9515 30.5233 7.05703 41.7949C6.50555 45.0043 6.79661 48.4134 7.9098 51.6024C19.0264 46.4274 34.463 40.464 51.0026 40.4793C64.7745 40.4896 80.8494 46.1356 93.937 52.0631H93.9319Z" fill="url(#paint2_linear_76_63375)"/>
<path d="M93.9319 52.0631C95.1881 48.741 95.5251 45.1579 94.9481 41.7949C93.0536 30.5284 90.383 17.0865 79.7107 10.1608C69.0332 3.23513 32.9719 3.23513 22.2945 10.1608C11.617 17.0865 8.9515 30.5233 7.05703 41.7949C6.50555 45.0043 6.79661 48.4134 7.9098 51.6024C19.0264 46.4274 34.463 40.464 51.0026 40.4793C64.7745 40.4896 80.8494 46.1356 93.937 52.0631H93.9319Z" fill="url(#paint3_linear_76_63375)"/>
<path d="M86.9873 27.319C89.3668 35.0278 90.9192 43.5967 86.8698 51.0138C83.086 57.9497 74.8851 60.1354 67.583 60.3248C62.9004 60.4426 58.1617 59.7362 53.4485 59.5161C53.2443 59.5007 53.0451 59.4956 52.846 59.4853C52.2332 59.4546 51.6153 59.4495 51.0026 59.4495C50.3898 59.4495 49.7719 59.4546 49.1592 59.4853C48.9651 59.4905 48.7609 59.5007 48.5566 59.5161C43.8434 59.7362 39.1047 60.4426 34.4221 60.3248C27.12 60.1354 18.9192 57.9497 15.1353 51.0138C11.0911 43.5967 12.6383 35.0278 15.0179 27.319C16.2128 23.444 18.0051 19.7841 21.023 17.0353C23.7651 14.5323 27.1966 12.8942 30.72 11.8858C35.7447 10.4372 41.0604 9.96631 46.3966 9.8281H46.5498C48.0256 9.82298 49.5166 9.81275 51.0026 9.82298C52.4936 9.81787 53.9796 9.82298 55.4553 9.8281H55.6085C60.9447 9.96631 66.2604 10.4372 71.2851 11.8858C74.8085 12.8942 78.24 14.5323 80.9821 17.0353C84 19.7841 85.7975 23.444 86.9873 27.319Z" fill="url(#paint4_linear_76_63375)"/>
<path d="M32.4204 42.3322C39.9334 42.3322 46.0238 35.9268 46.0238 28.0252C46.0238 20.1237 39.9334 13.7183 32.4204 13.7183C24.9075 13.7183 18.817 20.1237 18.817 28.0252C18.817 35.9268 24.9075 42.3322 32.4204 42.3322Z" fill="url(#paint5_radial_76_63375)"/>
<path d="M69.5796 42.3322C77.0925 42.3322 83.183 35.9268 83.183 28.0252C83.183 20.1237 77.0925 13.7183 69.5796 13.7183C62.0666 13.7183 55.9762 20.1237 55.9762 28.0252C55.9762 35.9268 62.0666 42.3322 69.5796 42.3322Z" fill="url(#paint6_radial_76_63375)"/>
<path d="M44.0681 40.1414C45.1098 39.3531 46.2179 38.8003 46.9839 40.2387C47.5098 41.2368 47.8213 42.322 48.1277 43.4021C48.1481 43.4686 48.2451 43.4533 48.2451 43.3867C48.3013 41.7589 47.9285 37.5155 45.3651 38.2577C43.2102 38.8822 41.0809 41.9381 40.4783 43.9856C40.4732 44.0061 40.4988 44.0317 40.5141 44.0061C41.6222 42.5882 42.6179 41.2317 44.0681 40.1363V40.1414Z" fill="#D81A21"/>
<path d="M28.8459 20.9767C26.9413 22.1182 26.497 24.5292 24.6383 25.5376C22.7796 26.546 18.0817 23.4542 22.0851 18.5505C26.0885 13.6467 34.8 12.2236 39.36 15.3C43.92 18.3764 45.4774 23.8689 45.6102 25.1025C42.3676 17.9823 34.3251 13.5443 26.7574 17.8952C24.337 19.4309 23.903 20.6184 23.903 20.6184C23.903 20.6184 25.9149 18.9241 28.3302 18.7552C24.7864 20.3983 24.72 21.806 24.72 21.806C24.72 21.806 26.6961 20.1322 28.611 20.0042C26.0579 21.1457 25.5421 22.8502 25.5421 22.8502C25.5421 22.8502 26.8442 21.4323 28.8408 20.9767H28.8459Z" fill="black"/>
<path d="M43.8434 20.6696C45.6766 22.7632 48.0817 21.9902 47.6528 19.7021C47.2238 17.4141 44.8494 17.0045 43.4706 16.9175C42.097 16.8305 40.2587 15.1157 41.6119 13.3395C42.9651 11.5582 49.2 14.4759 49.1694 18.7501C49.1387 23.0293 46.2792 23.4337 44.2162 21.5705C43.8179 21.074 43.8434 20.6696 43.8434 20.6696Z" fill="black"/>
<path d="M29.0247 42.6241C25.4809 40.9298 24.669 36.5123 23.7345 33.6662C22.8 30.8151 18.3728 29.4944 16.2179 35.898C14.063 42.2965 16.9481 51.5461 21.8655 52.0426C26.783 52.5392 29.0247 47.5023 29.0247 47.5023C29.0247 47.5023 26.0477 50.3944 22.0698 48.0807C25.1183 48.4953 27.4315 46.5092 27.4315 46.5092C27.4315 46.5092 23.4741 47.4153 20.5175 45.5162C23.4077 46.3403 25.4809 45.3524 25.4809 45.3524C25.4809 45.3524 22.3507 45.1477 20.2417 42.5012C22.2332 43.9038 24.2655 43.8219 24.2655 43.8219C24.2655 43.8219 21.5438 41.6874 20.5226 38.9079C23.2494 42.1276 25.7719 43.0797 25.7719 43.0797C25.7719 43.0797 22.8868 40.6022 22.5243 37.7971C25.2051 41.8 29.0349 42.6292 29.0349 42.6292L29.0247 42.6241Z" fill="black"/>
<path d="M50.4153 51.0853C50.206 53.9723 48.2451 56.0915 46.3404 57.1306C45.2068 57.75 43.5064 56.3884 45.5387 55.3544C47.5711 54.3204 49.634 52.8359 50.4153 51.0904V51.0853Z" fill="black"/>
<path d="M48.914 50.1487C47.7038 53.2814 43.7362 56.3168 40.1566 57.4685C38.3336 58.093 37.7413 56.0148 39.6153 55.4876C41.4894 54.9603 44.6962 54.2591 48.914 50.1487Z" fill="black"/>
<path d="M46.0289 49.5753C44.5225 52.3087 39.84 55.6923 33.0332 56.2195C30.8374 56.3679 30.8885 54.3818 33.0332 54.1873C35.1779 53.9877 40.5293 53.8904 46.0289 49.5753Z" fill="black"/>
<path d="M35.3872 40.4844C41.0332 40.4844 45.6102 35.8321 45.6102 30.0933C45.6102 24.3544 41.0332 19.7021 35.3872 19.7021C29.7412 19.7021 25.1642 24.3544 25.1642 30.0933C25.1642 35.8321 29.7412 40.4844 35.3872 40.4844Z" fill="#DDBB3E"/>
<path d="M35.3872 37.5565C39.4426 37.5565 42.7302 34.2151 42.7302 30.0933C42.7302 25.9715 39.4426 22.6301 35.3872 22.6301C31.3318 22.6301 28.0443 25.9715 28.0443 30.0933C28.0443 34.2151 31.3318 37.5565 35.3872 37.5565Z" fill="#F2EFDA"/>
<path d="M35.3872 35.2633C38.1961 35.2633 40.4732 32.9486 40.4732 30.0933C40.4732 27.238 38.1961 24.9233 35.3872 24.9233C32.5783 24.9233 30.3013 27.238 30.3013 30.0933C30.3013 32.9486 32.5783 35.2633 35.3872 35.2633Z" fill="black"/>
<path d="M28.3353 75.0618C28.9532 74.3503 29.3362 73.4186 29.3362 72.3949C29.3362 70.1529 27.5285 68.3357 25.297 68.3357C23.8928 68.3357 22.6519 69.0574 21.9319 70.1529C21.9319 70.1529 21.9319 70.1529 21.9319 70.158C21.7838 70.3781 21.6613 70.6187 21.5592 70.8695C17.0247 81.3835 20.3183 92.4963 23.2187 96.489C21.0689 85.6883 26.8902 76.8789 28.3455 75.0618H28.3353Z" fill="#FBD500"/>
<path d="M19.1694 71.5758C19.7004 70.9309 20.0221 70.0863 20.0221 69.1598C20.0221 67.1276 18.4749 65.4794 16.5702 65.4794C15.3702 65.4794 14.3132 66.1346 13.6953 67.1276C13.6953 67.1276 13.6953 67.1276 13.6953 67.1327C13.5728 67.3324 13.4655 67.5525 13.3787 67.7777C9.50298 77.314 12.3166 87.3928 14.7932 91.0118C12.9549 81.2145 17.9285 73.2241 19.1745 71.5809L19.1694 71.5758Z" fill="#FBD500"/>
<path d="M11.3617 67.2197C11.8264 66.6771 12.1328 65.9503 12.1838 65.1364C12.2911 63.3499 11.1268 61.8245 9.57959 61.7324C8.60427 61.671 7.71576 62.1982 7.15916 63.0377C7.04682 63.2066 6.9498 63.3909 6.8681 63.5854C3.22214 71.7703 4.96852 80.764 6.78129 84.0656C5.81108 75.3688 10.2689 68.5967 11.3617 67.2095V67.2197Z" fill="#FBD500"/>
<path d="M62.2927 47.0365C61.7719 46.8727 61.1744 46.714 60.5412 46.5656C54.2706 45.0965 47.7344 45.0965 41.4638 46.5656C40.8306 46.714 40.2332 46.8727 39.7123 47.0365C35.4127 48.3827 31.0723 50.3381 27.743 53.4708C27.7123 53.5015 27.7583 53.5527 27.794 53.5271C28.3353 53.1944 28.8868 52.8719 29.4383 52.5545C33.0434 50.8705 36.5004 49.3348 40.4374 48.4493C42.5361 47.9783 44.6706 47.6303 46.8204 47.4511C48.1583 47.3436 49.5625 47.2361 51.0025 47.2617C52.4425 47.2361 53.8468 47.3436 55.1847 47.4511C57.3344 47.6354 59.4689 47.9783 61.5676 48.4493C65.5047 49.3297 68.9668 50.8705 72.5668 52.5545C73.1183 52.8719 73.6647 53.1944 74.211 53.5271C74.2468 53.5476 74.2927 53.4964 74.2621 53.4708C70.9327 50.3381 66.5923 48.3827 62.2927 47.0365Z" fill="#D81A21"/>
<path d="M61.491 44.0112C61.491 44.0112 61.5319 44.0112 61.5268 43.9907C60.9242 41.9381 58.8 38.8873 56.64 38.2628C54.0766 37.5206 53.7038 41.7641 53.76 43.3918C53.76 43.4584 53.8519 43.4737 53.8774 43.4072C54.1838 42.3271 54.4902 41.2471 55.0213 40.2438C55.7872 38.8105 56.8953 39.3634 57.937 40.1465C59.3821 41.2419 60.383 42.5984 61.491 44.0163V44.0112Z" fill="#D81A21"/>
<path d="M73.154 20.9767C75.0587 22.1182 75.503 24.5292 77.3617 25.5376C79.2204 26.546 83.9183 23.4542 79.9149 18.5505C75.9115 13.6467 67.2 12.2236 62.64 15.3C58.08 18.3764 56.5225 23.8689 56.3898 25.1025C59.6323 17.9823 67.6749 13.5443 75.2425 17.8952C77.663 19.4309 78.097 20.6184 78.097 20.6184C78.097 20.6184 76.0851 18.9241 73.6698 18.7552C77.2136 20.3983 77.28 21.806 77.28 21.806C77.28 21.806 75.3038 20.1322 73.3889 20.0042C75.9421 21.1457 76.4579 22.8502 76.4579 22.8502C76.4579 22.8502 75.1557 21.4323 73.1591 20.9767H73.154Z" fill="black"/>
<path d="M58.1566 20.6696C56.3234 22.7632 53.9183 21.9902 54.3472 19.7021C54.7762 17.4141 57.1506 17.0045 58.5293 16.9175C59.903 16.8305 61.7413 15.1157 60.3881 13.3395C59.0349 11.5582 52.8 14.4759 52.8306 18.7501C52.8613 23.0293 55.7208 23.4337 57.7838 21.5705C58.1821 21.074 58.1566 20.6696 58.1566 20.6696Z" fill="black"/>
<path d="M72.9753 42.6241C76.5191 40.9298 77.331 36.5123 78.2655 33.6662C79.2 30.8151 83.6272 29.4944 85.7821 35.898C87.937 42.2965 85.0519 51.5461 80.1344 52.0426C75.217 52.5392 72.9753 47.5023 72.9753 47.5023C72.9753 47.5023 75.9523 50.3944 79.9302 48.0807C76.8817 48.4953 74.5685 46.5092 74.5685 46.5092C74.5685 46.5092 78.5259 47.4153 81.4825 45.5162C78.5923 46.3403 76.5191 45.3524 76.5191 45.3524C76.5191 45.3524 79.6493 45.1477 81.7583 42.5012C79.7668 43.9038 77.7344 43.8219 77.7344 43.8219C77.7344 43.8219 80.4562 41.6874 81.4774 38.9079C78.7506 42.1276 76.2281 43.0797 76.2281 43.0797C76.2281 43.0797 79.1132 40.6022 79.4757 37.7971C76.7949 41.8 72.9651 42.6292 72.9651 42.6292L72.9753 42.6241Z" fill="black"/>
<path d="M51.5847 51.0853C51.794 53.9723 53.7549 56.0915 55.6596 57.1306C56.7932 57.75 58.4936 56.3884 56.4613 55.3544C54.4289 54.3204 52.3659 52.8359 51.5847 51.0904V51.0853Z" fill="black"/>
<path d="M53.0859 50.1487C54.2962 53.2814 58.2638 56.3168 61.8434 57.4685C63.6664 58.093 64.2587 56.0148 62.3847 55.4876C60.5106 54.9603 57.3038 54.2591 53.0859 50.1487Z" fill="black"/>
<path d="M55.9711 49.5753C57.4775 52.3087 62.16 55.6923 68.9668 56.2195C71.1626 56.3679 71.1115 54.3818 68.9668 54.1873C66.8221 53.9877 61.4706 53.8904 55.9711 49.5753Z" fill="black"/>
<path d="M66.6127 40.4844C72.2587 40.4844 76.8357 35.8321 76.8357 30.0933C76.8357 24.3544 72.2587 19.7021 66.6127 19.7021C60.9668 19.7021 56.3898 24.3544 56.3898 30.0933C56.3898 35.8321 60.9668 40.4844 66.6127 40.4844Z" fill="#DDBB3E"/>
<path d="M66.6128 37.5565C70.6682 37.5565 73.9557 34.2151 73.9557 30.0933C73.9557 25.9715 70.6682 22.6301 66.6128 22.6301C62.5573 22.6301 59.2698 25.9715 59.2698 30.0933C59.2698 34.2151 62.5573 37.5565 66.6128 37.5565Z" fill="#F2EFDA"/>
<path d="M73.6647 75.0618C73.0468 74.3503 72.6638 73.4186 72.6638 72.3949C72.6638 70.1529 74.4715 68.3357 76.703 68.3357C78.1072 68.3357 79.3481 69.0574 80.0681 70.1529C80.0681 70.1529 80.0681 70.1529 80.0681 70.158C80.2162 70.3781 80.3387 70.6187 80.4408 70.8695C84.9753 81.3835 81.6817 92.4963 78.7813 96.489C80.9311 85.6883 75.1098 76.8789 73.6545 75.0618H73.6647Z" fill="#FBD500"/>
<path d="M82.8307 71.5758C82.2996 70.9309 81.9779 70.0863 81.9779 69.1598C81.9779 67.1276 83.5251 65.4794 85.4298 65.4794C86.6298 65.4794 87.6868 66.1346 88.3047 67.1276C88.3047 67.1276 88.3047 67.1276 88.3047 67.1327C88.4273 67.3324 88.5345 67.5525 88.6213 67.7777C92.4971 77.314 89.6834 87.3928 87.2068 91.0118C89.0451 81.2145 84.0715 73.2241 82.8256 71.5809L82.8307 71.5758Z" fill="#FBD500"/>
<path d="M90.6383 67.2197C90.1736 66.6771 89.8672 65.9503 89.8162 65.1364C89.7089 63.3499 90.8732 61.8245 92.4204 61.7324C93.3958 61.671 94.2843 62.1982 94.8409 63.0377C94.9532 63.2066 95.0502 63.3909 95.1319 63.5854C98.7779 71.7703 97.0315 80.764 95.2187 84.0656C96.1889 75.3688 91.7311 68.5967 90.6383 67.2095V67.2197Z" fill="#FBD500"/>
<path d="M66.6128 35.2633C69.4216 35.2633 71.6987 32.9486 71.6987 30.0933C71.6987 27.238 69.4216 24.9233 66.6128 24.9233C63.8039 24.9233 61.5268 27.238 61.5268 30.0933C61.5268 32.9486 63.8039 35.2633 66.6128 35.2633Z" fill="black"/>
<path d="M44.686 75.9217C46.9481 77.0324 47.9745 74.9235 47.9745 74.9235C47.9745 74.9235 43.5779 71.4632 43.8741 68.8424C39.3038 72.574 42.8477 75.0208 44.686 75.9268V75.9217Z" fill="#FBD500"/>
<path d="M55.1898 75.9575C57.0588 75.5531 60.5924 74.9389 61.2511 73.6796C61.9149 72.4204 61.3481 70.6903 60.4954 70.5214C59.0758 72.1133 52.8664 74.1762 50.6911 74.3195C52.4681 75.9575 53.3209 76.3619 55.1898 75.9575Z" fill="#FBD500"/>
<path d="M45.2885 84.7157C45.2885 84.7157 47.0196 81.8645 47.8009 80.6565C48.5821 79.4434 45.5336 77.5443 44.8085 78.1892C44.0834 78.8291 42.0715 80.2316 35.3464 80.3954C37.3583 83.2671 37.9302 84.1475 40.509 83.0316C43.0877 81.9157 43.7515 81.6291 43.7515 81.6291C43.7515 81.6291 40.126 89.8191 34.6111 93.3562C39.0383 93.4739 43.1592 88.4677 43.1592 88.4677C43.1592 88.4677 42.7098 94.6871 41.949 95.5675C41.1932 96.4479 40.8613 96.1357 40.8613 96.1357C40.8613 96.1357 42.6587 100.077 44.2264 99.3656C45.789 98.6541 45.2936 87.7306 45.2936 87.7306C45.2936 87.7306 46.7643 88.5855 46.7643 89.082V89.5785C46.7643 89.5785 49.1285 87.9405 47.9796 86.4919C46.8358 85.0433 45.2936 84.7106 45.2936 84.7106L45.2885 84.7157Z" fill="#FBD500"/>
<path d="M53.4383 83.7329C53.4383 83.7329 59.1779 82.7911 60 82.745C60.2094 81.7315 60 80.201 60 80.201C60 80.201 62.0477 78.4811 61.389 77.7747C60.7302 77.0683 58.1924 76.28 57.4366 76.2493C57.3192 76.9966 52.8256 78.1432 52.029 78.0664C50.0068 77.918 49.583 78.7882 49.583 78.7882C49.583 78.7882 52.1464 83.7176 52.1209 84.8232C53.4383 84.5417 53.4383 83.738 53.4383 83.738V83.7329ZM57.5541 79.1823C57.5541 79.1823 57.5081 80.2419 57.2273 80.6668C56.9464 81.0916 53.3924 81.5881 53.3924 81.5881L53.0656 80.2931L57.5592 79.1874L57.5541 79.1823Z" fill="#FBD500"/>
<path d="M63.646 84.8181C61.7668 83.5896 61.4809 83.3798 60.4494 83.7586C59.4128 84.1373 50.6962 85.8572 50.6962 85.8572C49.6085 85.2225 49.0213 84.9615 48.2911 85.3403C49.537 87.0141 50.1038 97.1288 50.1958 98.8487C51.4672 98.4494 51.937 96.4224 51.937 96.4224C51.937 96.4224 56.9924 95.2195 58.3558 95.716C59.4843 97.6714 59.7192 99.6319 59.7192 99.6319C59.7192 99.6319 62.3081 99.4681 62.9872 94.3288C63.6715 89.1896 63.3651 88.6931 63.646 88.2221C63.9268 87.7512 65.5251 86.0518 63.646 84.8284V84.8181ZM51.3447 88.2119C51.3447 88.2119 52.3813 87.9406 53.7906 87.6335C53.8979 88.0378 53.9745 88.6879 54.0358 89.4199C53.1881 89.6042 52.32 89.7629 51.503 89.8653L51.3396 88.2119H51.3447ZM51.9115 94.0115L51.7072 91.9281C52.1924 91.9128 53.1064 91.8718 54.1634 91.7848C54.1838 92.4298 54.1992 93.0235 54.2043 93.4638C52.9379 93.7402 51.9064 94.0115 51.9064 94.0115H51.9115ZM60.097 94.2469C60.097 94.2469 59.7907 92.9263 57.9779 92.9007C57.5796 92.8956 57.0638 92.9468 56.497 93.0287C56.5277 92.6192 56.5634 92.0868 56.5941 91.493C57.9064 91.2832 59.1013 90.9709 59.6732 90.5102C61.2358 89.251 59.2494 87.4799 59.0962 87.3468C59.1472 87.3929 59.1626 87.8689 58.8664 88.1658C58.4834 88.5088 57.7685 88.6521 56.7013 88.7494C56.7166 88.1249 56.7268 87.5413 56.7268 87.0755C58.1055 86.8554 59.4638 86.7172 60.4034 86.794C61.0366 89.1742 60.097 94.2469 60.097 94.2469Z" fill="#FBD500"/>
<path d="M59.0911 87.3468L59.0809 87.3365C59.0809 87.3365 59.0809 87.3366 59.0911 87.3468Z" fill="#FBD500"/>
</g>
<defs>
<linearGradient id="paint0_linear_76_63375" x1="50.9978" y1="2.78461" x2="50.9978" y2="102.596" gradientUnits="userSpaceOnUse">
<stop stop-color="#EDD839"/>
<stop offset="1" stop-color="#B59732"/>
</linearGradient>
<linearGradient id="paint1_linear_76_63375" x1="50.9974" y1="67.3836" x2="50.9974" y2="51.2134" gradientUnits="userSpaceOnUse">
<stop stop-color="#E9CB81"/>
<stop offset="1" stop-color="#B59732"/>
</linearGradient>
<linearGradient id="paint2_linear_76_63375" x1="50.9975" y1="13.8822" x2="50.9975" y2="41.5236" gradientUnits="userSpaceOnUse">
<stop offset="0.16" stop-color="#B59732"/>
<stop offset="1" stop-color="#B59732"/>
</linearGradient>
<linearGradient id="paint3_linear_76_63375" x1="50.9975" y1="13.8822" x2="50.9975" y2="41.5236" gradientUnits="userSpaceOnUse">
<stop offset="0.16" stop-color="#B59732"/>
<stop offset="1" stop-color="#B59732"/>
</linearGradient>
<linearGradient id="paint4_linear_76_63375" x1="50.9975" y1="63.0992" x2="50.9975" y2="14.435" gradientUnits="userSpaceOnUse">
<stop stop-color="#FDE2D6"/>
<stop offset="0.53" stop-color="#FCE0D4"/>
<stop offset="0.72" stop-color="#FCDACD"/>
<stop offset="0.85" stop-color="#FBCFC1"/>
<stop offset="0.96" stop-color="#F9C0B0"/>
<stop offset="1" stop-color="#F9B9A9"/>
</linearGradient>
<radialGradient id="paint5_radial_76_63375" cx="0" cy="0" r="1" gradientUnits="userSpaceOnUse" gradientTransform="translate(32.4204 28.0252) scale(13.9455 13.9794)">
<stop stop-color="#EB6B3D"/>
<stop offset="0.44" stop-color="#EB6C3E"/>
<stop offset="0.6" stop-color="#EC7145"/>
<stop offset="0.72" stop-color="#ED7951"/>
<stop offset="0.81" stop-color="#EF8562"/>
<stop offset="0.89" stop-color="#F29578"/>
<stop offset="0.96" stop-color="#F6A992"/>
<stop offset="1" stop-color="#F9B9A9"/>
</radialGradient>
<radialGradient id="paint6_radial_76_63375" cx="0" cy="0" r="1" gradientUnits="userSpaceOnUse" gradientTransform="translate(69.5796 0.255883) scale(13.9455 13.9794)">
<stop stop-color="#EB6B3D"/>
<stop offset="0.44" stop-color="#EB6C3E"/>
<stop offset="0.6" stop-color="#EC7145"/>
<stop offset="0.72" stop-color="#ED7951"/>
<stop offset="0.81" stop-color="#EF8562"/>
<stop offset="0.89" stop-color="#F29578"/>
<stop offset="0.96" stop-color="#F6A992"/>
<stop offset="1" stop-color="#F9B9A9"/>
</radialGradient>
<clipPath id="clip0_76_63375">
<rect width="102" height="103" fill="white"/>
</clipPath>
</defs>
</svg>
