<svg width="102" height="103" fill="none" xmlns="http://www.w3.org/2000/svg"><g clip-path="url(#a)"><path d="M101.423 57.556c.71 6.316.971 12.786-.469 19.031-1.185 5.155-3.3 10.437-6.955 14.317-4.182 4.438-10.525 6.813-16.198 8.503-8.737 2.61-17.709 3.271-26.721 3.598h-.159c-9.013-.322-17.984-.988-26.721-3.598-5.674-1.695-12.016-4.07-16.198-8.503-3.656-3.875-5.77-9.157-6.955-14.317-1.44-6.245-1.18-12.71-.47-19.032a139.486 139.486 0 0 1 3.524-19.174C7 27.053 10.678 14.097 21.284 7.852 30.118 2.642 40.489.282 50.737 0h.051c.072 0 .138.005.21.005.071 0 .143-.005.21-.005h.05c10.249.282 20.62 2.641 29.459 7.847 10.6 6.245 14.282 19.2 17.183 30.529a138.724 138.724 0 0 1 3.523 19.174v.006Z" fill="url(#b)"/><path d="M94.948 41.795c-1.894-11.267-4.565-24.709-15.237-31.634-10.678-6.926-28.34-2.058-28.34-2.058s-18.4-4.868-29.077 2.058C11.617 17.087 8.951 30.523 7.057 41.795c-1.685 9.767 4.391 21.432 18.117 22.957 13.721 1.531 18.128-.307 25.834-.307 7.705 0 12.112 1.838 25.833.308 13.72-1.531 19.797-13.197 18.117-22.958h-.01Z" fill="url(#c)"/><path d="M93.932 52.063c1.256-3.322 1.593-6.905 1.016-10.268-1.894-11.267-4.565-24.709-15.237-31.634-10.678-6.926-46.74-6.926-57.416 0C11.616 17.087 8.95 30.523 7.056 41.795c-.551 3.21-.26 6.618.853 9.807 11.116-5.175 26.553-11.138 43.093-11.123 13.772.01 29.846 5.657 42.934 11.584h-.005Z" fill="url(#d)"/><path d="M93.932 52.063c1.256-3.322 1.593-6.905 1.016-10.268-1.894-11.267-4.565-24.709-15.237-31.634-10.678-6.926-46.74-6.926-57.416 0C11.616 17.087 8.95 30.523 7.056 41.795c-.551 3.21-.26 6.618.853 9.807 11.116-5.175 26.553-11.138 43.093-11.123 13.772.01 29.846 5.657 42.934 11.584h-.005Z" fill="url(#e)"/><path d="M86.987 27.319c2.38 7.709 3.932 16.278-.117 23.695-3.784 6.936-11.985 9.121-19.287 9.31-4.683.119-9.421-.588-14.134-.808-.205-.015-.404-.02-.603-.03-.613-.031-1.23-.036-1.843-.036s-1.231.005-1.844.035c-.194.005-.398.016-.602.031-4.714.22-9.452.927-14.135.809-7.302-.19-15.503-2.375-19.287-9.311-4.044-7.417-2.497-15.986-.117-23.695 1.195-3.875 2.987-7.535 6.005-10.284 2.742-2.503 6.174-4.14 9.697-5.15 5.025-1.448 10.34-1.919 15.677-2.057h.153c1.476-.005 2.967-.015 4.453-.005 1.49-.005 2.977 0 4.452.005h.154c5.336.138 10.651.61 15.676 2.058 3.523 1.008 6.955 2.646 9.697 5.15 3.018 2.748 4.816 6.408 6.005 10.283Z" fill="url(#f)"/><path d="M32.42 42.332c7.513 0 13.604-6.405 13.604-14.307 0-7.901-6.09-14.307-13.604-14.307-7.513 0-13.603 6.406-13.603 14.307 0 7.902 6.09 14.307 13.603 14.307Z" fill="url(#g)"/><path d="M69.58 42.332c7.513 0 13.603-6.405 13.603-14.307 0-7.901-6.09-14.307-13.603-14.307s-13.604 6.406-13.604 14.307c0 7.902 6.09 14.307 13.604 14.307Z" fill="url(#h)"/><path d="M44.068 40.141c1.042-.788 2.15-1.34 2.916.098.526.998.837 2.083 1.144 3.163.02.067.117.051.117-.015.056-1.628-.316-5.871-2.88-5.13-2.155.625-4.284 3.681-4.887 5.729-.005.02.02.046.036.02 1.108-1.418 2.104-2.774 3.554-3.87v.005Z" fill="#D81A21"/><path d="M28.846 20.977c-1.905 1.141-2.349 3.552-4.208 4.56-1.858 1.009-6.556-2.083-2.553-6.986C26.088 13.646 34.8 12.223 39.36 15.3c4.56 3.076 6.117 8.569 6.25 9.802-3.242-7.12-11.285-11.558-18.853-7.207-2.42 1.536-2.854 2.723-2.854 2.723s2.012-1.694 4.427-1.863c-3.544 1.643-3.61 3.051-3.61 3.051s1.976-1.674 3.891-1.802c-2.553 1.142-3.069 2.846-3.069 2.846s1.302-1.418 3.299-1.873h.005Z" fill="#000"/><path d="M43.843 20.67c1.834 2.093 4.239 1.32 3.81-.968-.43-2.288-2.804-2.698-4.182-2.785-1.374-.087-3.212-1.801-1.86-3.578 1.354-1.78 7.589 1.137 7.558 5.411-.03 4.28-2.89 4.684-4.953 2.82-.398-.496-.373-.9-.373-.9ZM29.025 42.624c-3.544-1.694-4.356-6.112-5.29-8.958-.935-2.85-5.362-4.172-7.517 2.232-2.155 6.398.73 15.648 5.648 16.145 4.917.496 7.159-4.54 7.159-4.54s-2.977 2.891-6.955.578c3.048.414 5.361-1.572 5.361-1.572s-3.957.906-6.914-.993c2.89.824 4.964-.164 4.964-.164s-3.13-.204-5.24-2.85c1.992 1.402 4.024 1.32 4.024 1.32s-2.721-2.135-3.742-4.914c2.726 3.22 5.249 4.172 5.249 4.172s-2.885-2.478-3.248-5.283c2.681 4.003 6.51 4.832 6.51 4.832l-.01-.005ZM50.415 51.085c-.209 2.887-2.17 5.007-4.075 6.046-1.133.619-2.834-.743-.801-1.777 2.032-1.034 4.095-2.518 4.876-4.264v-.005ZM48.914 50.149c-1.21 3.132-5.178 6.168-8.757 7.32-1.823.624-2.416-1.454-.542-1.981 1.874-.528 5.081-1.229 9.299-5.34Z" fill="#000"/><path d="M46.029 49.575c-1.507 2.734-6.189 6.117-12.996 6.644-2.196.149-2.145-1.837 0-2.032 2.145-.2 7.496-.297 12.996-4.612Z" fill="#000"/><path d="M35.387 40.484c5.646 0 10.223-4.652 10.223-10.39 0-5.74-4.577-10.392-10.223-10.392-5.646 0-10.223 4.652-10.223 10.391 0 5.74 4.577 10.391 10.223 10.391Z" fill="#DDBB3E"/><path d="M35.387 37.556c4.056 0 7.343-3.34 7.343-7.463 0-4.122-3.287-7.463-7.343-7.463-4.055 0-7.343 3.341-7.343 7.463s3.288 7.463 7.343 7.463Z" fill="#F2EFDA"/><path d="M35.387 35.263c2.81 0 5.086-2.314 5.086-5.17 0-2.855-2.277-5.17-5.086-5.17s-5.086 2.315-5.086 5.17c0 2.856 2.277 5.17 5.086 5.17Z" fill="#000"/><path d="M28.335 75.062c.618-.712 1.001-1.643 1.001-2.667 0-2.242-1.807-4.06-4.039-4.06a4.023 4.023 0 0 0-3.365 1.818v.005c-.148.22-.27.46-.373.712-4.534 10.513-1.24 21.626 1.66 25.619-2.15-10.8 3.671-19.61 5.127-21.427h-.01ZM19.17 71.576a3.79 3.79 0 0 0 .852-2.416c0-2.032-1.547-3.68-3.452-3.68-1.2 0-2.257.655-2.875 1.648v.005c-.122.2-.23.42-.316.645-3.876 9.536-1.062 19.615 1.414 23.234-1.838-9.797 3.136-17.788 4.381-19.431l-.005-.005ZM11.362 67.22c.464-.543.77-1.27.822-2.084.107-1.786-1.057-3.311-2.604-3.404-.976-.061-1.864.466-2.42 1.306a3.29 3.29 0 0 0-.292.547c-3.646 8.185-1.9 17.179-.087 20.48-.97-8.696 3.488-15.468 4.58-16.855v.01Z" fill="#FBD500"/><path d="M62.293 47.036a24.851 24.851 0 0 0-1.752-.47 41.84 41.84 0 0 0-19.077 0c-.633.148-1.23.307-1.752.47-4.3 1.347-8.64 3.302-11.969 6.435-.03.03.015.082.051.056a66.259 66.259 0 0 1 1.644-.973c3.605-1.684 7.062-3.22 11-4.105a47.029 47.029 0 0 1 6.382-.998c1.338-.107 2.742-.215 4.182-.19 1.44-.025 2.845.083 4.183.19 2.15.184 4.284.527 6.383.998 3.937.88 7.399 2.422 10.999 4.105.551.318 1.098.64 1.644.973.036.02.082-.03.051-.056-3.33-3.133-7.67-5.088-11.97-6.434ZM61.491 44.011s.04 0 .036-.02c-.603-2.053-2.727-5.104-4.887-5.728-2.563-.742-2.936 3.501-2.88 5.129 0 .066.092.082.117.015.307-1.08.613-2.16 1.144-3.163.766-1.434 1.874-.88 2.916-.097 1.445 1.095 2.446 2.451 3.554 3.87v-.006Z" fill="#D81A21"/><path d="M73.154 20.977c1.905 1.141 2.349 3.552 4.208 4.56 1.858 1.009 6.556-2.083 2.553-6.986C75.91 13.646 67.2 12.223 62.64 15.3c-4.56 3.076-6.117 8.569-6.25 9.802 3.242-7.12 11.285-11.558 18.853-7.207 2.42 1.536 2.854 2.723 2.854 2.723s-2.012-1.694-4.427-1.863c3.544 1.643 3.61 3.051 3.61 3.051s-1.976-1.674-3.891-1.802c2.553 1.142 3.069 2.846 3.069 2.846s-1.302-1.418-3.299-1.873h-.005Z" fill="#000"/><path d="M58.157 20.67c-1.834 2.093-4.239 1.32-3.81-.968.43-2.288 2.804-2.698 4.182-2.785 1.374-.087 3.212-1.801 1.86-3.578-1.354-1.78-7.589 1.137-7.558 5.411.03 4.28 2.89 4.684 4.953 2.82.398-.496.373-.9.373-.9ZM72.975 42.624c3.544-1.694 4.356-6.112 5.29-8.958.935-2.85 5.362-4.172 7.517 2.232 2.155 6.398-.73 15.648-5.648 16.145-4.917.496-7.159-4.54-7.159-4.54s2.977 2.891 6.955.578c-3.048.414-5.362-1.572-5.362-1.572s3.958.906 6.915-.993c-2.89.824-4.964-.164-4.964-.164s3.13-.204 5.24-2.85c-1.992 1.402-4.025 1.32-4.025 1.32s2.722-2.135 3.743-4.914c-2.726 3.22-5.249 4.172-5.249 4.172s2.885-2.478 3.248-5.283c-2.681 4.003-6.51 4.832-6.51 4.832l.01-.005ZM51.585 51.085c.209 2.887 2.17 5.007 4.075 6.046 1.133.619 2.834-.743.801-1.777-2.032-1.034-4.095-2.518-4.876-4.264v-.005ZM53.086 50.149c1.21 3.132 5.178 6.168 8.757 7.32 1.823.624 2.416-1.454.542-1.981-1.874-.528-5.081-1.229-9.3-5.34Z" fill="#000"/><path d="M55.971 49.575c1.507 2.734 6.189 6.117 12.996 6.644 2.196.149 2.145-1.837 0-2.032-2.145-.2-7.496-.297-12.996-4.612Z" fill="#000"/><path d="M66.613 40.484c5.646 0 10.223-4.652 10.223-10.39 0-5.74-4.577-10.392-10.223-10.392-5.646 0-10.223 4.652-10.223 10.391 0 5.74 4.577 10.391 10.223 10.391Z" fill="#DDBB3E"/><path d="M66.613 37.556c4.055 0 7.343-3.34 7.343-7.463 0-4.122-3.288-7.463-7.343-7.463-4.056 0-7.343 3.341-7.343 7.463s3.287 7.463 7.343 7.463Z" fill="#F2EFDA"/><path d="M73.665 75.062a4.058 4.058 0 0 1-1.001-2.667c0-2.242 1.808-4.06 4.039-4.06 1.404 0 2.645.722 3.365 1.818v.005c.148.22.27.46.373.712 4.534 10.513 1.24 21.626-1.66 25.619 2.15-10.8-3.671-19.61-5.127-21.427h.01ZM82.83 71.576a3.79 3.79 0 0 1-.852-2.416c0-2.032 1.547-3.68 3.452-3.68 1.2 0 2.257.655 2.875 1.648v.005c.122.2.23.42.316.645 3.876 9.536 1.062 19.615-1.414 23.234 1.838-9.797-3.135-17.788-4.381-19.431l.005-.005ZM90.638 67.22a3.539 3.539 0 0 1-.822-2.084c-.107-1.786 1.057-3.311 2.604-3.404.976-.061 1.864.466 2.42 1.306.113.169.21.353.292.547 3.646 8.185 1.9 17.179.087 20.48.97-8.696-3.488-15.468-4.58-16.855v.01Z" fill="#FBD500"/><path d="M66.613 35.263c2.809 0 5.086-2.314 5.086-5.17 0-2.855-2.277-5.17-5.086-5.17-2.81 0-5.086 2.315-5.086 5.17 0 2.856 2.277 5.17 5.086 5.17Z" fill="#000"/><path d="M44.686 75.922c2.262 1.11 3.288-.998 3.288-.998s-4.396-3.46-4.1-6.082c-4.57 3.732-1.026 6.179.812 7.085v-.005ZM55.19 75.957c1.869-.404 5.402-1.018 6.061-2.277.664-1.26.097-2.99-.756-3.159-1.42 1.592-7.629 3.655-9.804 3.799 1.777 1.638 2.63 2.042 4.499 1.638ZM45.288 84.716s1.732-2.851 2.513-4.06c.781-1.213-2.267-3.112-2.992-2.467-.726.64-2.737 2.043-9.463 2.206 2.012 2.872 2.584 3.752 5.163 2.637l3.242-1.403s-3.625 8.19-9.14 11.727c4.427.118 8.548-4.888 8.548-4.888s-.45 6.22-1.21 7.1c-.756.88-1.088.568-1.088.568s1.798 3.941 3.365 3.23c1.563-.712 1.068-11.635 1.068-11.635s1.47.855 1.47 1.351v.497s2.364-1.638 1.216-3.087c-1.144-1.449-2.686-1.781-2.686-1.781l-.005.005ZM53.438 83.733s5.74-.942 6.562-.988c.21-1.014 0-2.544 0-2.544s2.048-1.72 1.389-2.426c-.659-.707-3.197-1.495-3.952-1.526-.118.748-4.611 1.894-5.408 1.817-2.022-.148-2.446.722-2.446.722s2.563 4.93 2.538 6.035c1.317-.281 1.317-1.085 1.317-1.085v-.005Zm4.116-4.55s-.046 1.059-.327 1.484c-.28.425-3.835.921-3.835.921l-.326-1.295 4.493-1.106-.005-.005Z" fill="#FBD500"/><path d="M63.646 84.818c-1.88-1.228-2.165-1.438-3.197-1.06-1.036.38-9.753 2.1-9.753 2.1-1.087-.636-1.675-.897-2.405-.518 1.246 1.674 1.813 11.789 1.905 13.509 1.271-.4 1.741-2.427 1.741-2.427s5.055-1.203 6.419-.706c1.128 1.955 1.363 3.916 1.363 3.916s2.59-.164 3.268-5.303c.684-5.14.378-5.636.659-6.107.28-.47 1.88-2.17 0-3.394v-.01Zm-12.301 3.394s1.036-.271 2.446-.579c.107.405.184 1.055.245 1.787-.848.184-1.716.343-2.533.445l-.163-1.653h.005Zm.566 5.8-.204-2.084c.485-.015 1.4-.056 2.456-.143.02.645.036 1.239.041 1.679a62.437 62.437 0 0 0-2.298.547h.005Zm8.186.235s-.306-1.32-2.12-1.346c-.397-.005-.913.046-1.48.128.03-.41.066-.942.097-1.536 1.312-.21 2.507-.522 3.08-.983 1.562-1.259-.425-3.03-.578-3.163.051.046.067.522-.23.819-.383.343-1.097.486-2.165.583a72.16 72.16 0 0 0 .026-1.673c1.379-.22 2.737-.359 3.676-.282.634 2.38-.306 7.453-.306 7.453ZM59.091 87.347l-.01-.01.01.01Z" fill="#FBD500"/></g><defs><linearGradient id="b" x1="50.998" y1="2.785" x2="50.998" y2="102.596" gradientUnits="userSpaceOnUse"><stop stop-color="#EDD839"/><stop offset="1" stop-color="#B59732"/></linearGradient><linearGradient id="c" x1="50.997" y1="67.384" x2="50.997" y2="51.213" gradientUnits="userSpaceOnUse"><stop stop-color="#E9CB81"/><stop offset="1" stop-color="#B59732"/></linearGradient><linearGradient id="d" x1="50.998" y1="13.882" x2="50.998" y2="41.524" gradientUnits="userSpaceOnUse"><stop offset=".16" stop-color="#B59732"/><stop offset="1" stop-color="#B59732"/></linearGradient><linearGradient id="e" x1="50.998" y1="13.882" x2="50.998" y2="41.524" gradientUnits="userSpaceOnUse"><stop offset=".16" stop-color="#B59732"/><stop offset="1" stop-color="#B59732"/></linearGradient><linearGradient id="f" x1="50.998" y1="63.099" x2="50.998" y2="14.435" gradientUnits="userSpaceOnUse"><stop stop-color="#FDE2D6"/><stop offset=".53" stop-color="#FCE0D4"/><stop offset=".72" stop-color="#FCDACD"/><stop offset=".85" stop-color="#FBCFC1"/><stop offset=".96" stop-color="#F9C0B0"/><stop offset="1" stop-color="#F9B9A9"/></linearGradient><radialGradient id="g" cx="0" cy="0" r="1" gradientUnits="userSpaceOnUse" gradientTransform="matrix(13.9455 0 0 13.9794 32.42 28.025)"><stop stop-color="#EB6B3D"/><stop offset=".44" stop-color="#EB6C3E"/><stop offset=".6" stop-color="#EC7145"/><stop offset=".72" stop-color="#ED7951"/><stop offset=".81" stop-color="#EF8562"/><stop offset=".89" stop-color="#F29578"/><stop offset=".96" stop-color="#F6A992"/><stop offset="1" stop-color="#F9B9A9"/></radialGradient><radialGradient id="h" cx="0" cy="0" r="1" gradientUnits="userSpaceOnUse" gradientTransform="matrix(13.9455 0 0 13.9794 69.58 .256)"><stop stop-color="#EB6B3D"/><stop offset=".44" stop-color="#EB6C3E"/><stop offset=".6" stop-color="#EC7145"/><stop offset=".72" stop-color="#ED7951"/><stop offset=".81" stop-color="#EF8562"/><stop offset=".89" stop-color="#F29578"/><stop offset=".96" stop-color="#F6A992"/><stop offset="1" stop-color="#F9B9A9"/></radialGradient><clipPath id="a"><path fill="#fff" d="M0 0h102v103H0z"/></clipPath></defs></svg>