<svg width="128" height="129" viewBox="0 0 128 129" fill="none" xmlns="http://www.w3.org/2000/svg">
<g clip-path="url(#clip0_49_844)">
<path d="M127.276 72.0841C128.167 79.9951 128.494 88.0985 126.687 95.9198C125.2 102.376 122.547 108.992 117.959 113.851C112.711 119.409 104.752 122.384 97.6327 124.5C86.6686 127.769 75.4097 128.596 64.0996 129.006H63.901C52.5908 128.603 41.3319 127.769 30.3678 124.5C23.2485 122.378 15.2898 119.403 10.0416 113.851C5.4535 108.998 2.80058 102.382 1.31392 95.9198C-0.493138 88.0985 -0.16633 80.0015 0.724384 72.0841C1.63432 63.9871 3.11457 55.9543 5.14591 48.0689C8.78566 33.8816 13.3994 17.6556 26.7089 9.83431C37.7947 3.30802 50.8094 0.352599 63.6703 0H63.7343C63.8241 0 63.9074 0.00641089 63.9971 0.00641089C64.0868 0.00641089 64.1765 0 64.2598 0H64.3239C77.1848 0.352599 90.1994 3.30802 101.292 9.8279C114.601 17.6492 119.215 33.8752 122.855 48.0625C124.886 55.9479 126.373 63.9807 127.276 72.0777V72.0841Z" fill="url(#paint0_linear_49_844)"/>
<path d="M119.151 52.345C116.773 38.2346 113.422 21.3996 100.029 12.7256C86.6299 4.0517 64.0032 24.0537 64.0032 24.0537C64.0032 24.0537 41.3765 4.0517 27.9774 12.7256C14.5782 21.3996 11.2332 38.2282 8.85586 52.345C6.74122 64.5769 14.3667 79.1874 31.5915 81.0978C48.8098 83.0147 54.3399 80.7132 64.0096 80.7132C73.6793 80.7132 79.2094 83.0147 96.4277 81.0978C113.646 79.181 121.272 64.5705 119.163 52.345H119.151Z" fill="url(#paint1_linear_49_844)"/>
<path d="M117.875 65.2052C119.452 61.0446 119.875 56.557 119.151 52.345C116.773 38.2346 113.422 21.3996 100.029 12.7257C86.6299 4.05173 41.3765 4.05173 27.9773 12.7257C14.5782 21.3996 11.2332 38.2282 8.85584 52.345C8.16378 56.3646 8.52903 60.6343 9.92598 64.6283C23.8762 58.1469 43.2476 50.6782 64.0032 50.6974C81.2856 50.7102 101.458 57.7814 117.882 65.2052H117.875Z" fill="#5F3D7D"/>
<path d="M109.16 34.2149C112.147 43.8697 114.095 54.6016 109.013 63.8909C104.265 72.5777 93.9735 75.3152 84.81 75.5524C78.9339 75.6998 72.9873 74.8151 67.0727 74.5394C66.8163 74.5202 66.5664 74.5138 66.3165 74.501C65.5476 74.4625 64.7722 74.4561 64.0032 74.4561C63.2343 74.4561 62.4589 74.4625 61.6899 74.501C61.4464 74.5074 61.1901 74.5202 60.9338 74.5394C55.0192 74.8151 49.0726 75.6998 43.1964 75.5524C34.033 75.3152 23.7417 72.5777 18.9934 63.8909C13.9182 54.6016 15.8599 43.8697 18.846 34.2149C20.3455 29.3619 22.5947 24.7781 26.3818 21.3354C29.8229 18.2005 34.1291 16.149 38.5506 14.8861C44.8561 13.0718 51.5268 12.482 58.2232 12.3089H58.4154C60.2674 12.3025 62.1385 12.2897 64.0032 12.3025C65.8744 12.2961 67.7391 12.3025 69.591 12.3089H69.7833C76.4796 12.482 83.1504 13.0718 89.4558 14.8861C93.8774 16.149 98.1836 18.2005 101.625 21.3354C105.412 24.7781 107.667 29.3619 109.16 34.2149Z" fill="url(#paint2_linear_49_844)"/>
<path d="M40.6845 53.018C50.1125 53.018 57.7554 44.9957 57.7554 35.0996C57.7554 25.2035 50.1125 17.1812 40.6845 17.1812C31.2564 17.1812 23.6135 25.2035 23.6135 35.0996C23.6135 44.9957 31.2564 53.018 40.6845 53.018Z" fill="url(#paint3_radial_49_844)"/>
<path d="M87.3156 53.018C96.7436 53.018 104.387 44.9957 104.387 35.0996C104.387 25.2035 96.7436 17.1812 87.3156 17.1812C77.8875 17.1812 70.2446 25.2035 70.2446 35.0996C70.2446 44.9957 77.8875 53.018 87.3156 53.018Z" fill="url(#paint4_radial_49_844)"/>
<path d="M55.3011 50.2742C56.6084 49.2869 57.9989 48.5945 58.9601 50.396C59.6201 51.6461 60.011 53.0052 60.3955 54.3579C60.4211 54.4413 60.5429 54.422 60.5429 54.3387C60.6134 52.3 60.1456 46.9854 56.9288 47.915C54.2246 48.6971 51.5524 52.5244 50.7963 55.0888C50.7899 55.1144 50.8219 55.1465 50.8412 55.1144C52.2317 53.3386 53.4813 51.6397 55.3011 50.2678V50.2742Z" fill="#D81A21"/>
<path d="M36.1989 26.2718C33.8087 27.7015 33.2512 30.721 30.9187 31.9839C28.5862 33.2469 22.6908 29.3747 27.7147 23.2331C32.7385 17.085 43.6706 15.3092 49.393 19.1622C55.1153 23.0151 57.0698 29.894 57.2364 31.439C53.1673 22.5215 43.0747 16.9632 33.578 22.4125C30.5406 24.3357 29.9959 25.8231 29.9959 25.8231C29.9959 25.8231 32.5207 23.7011 35.5517 23.4895C31.1045 25.5474 31.0212 27.3104 31.0212 27.3104C31.0212 27.3104 33.5011 25.214 35.9041 25.0538C32.7001 26.4834 32.0529 28.6182 32.0529 28.6182C32.0529 28.6182 33.6869 26.8424 36.1925 26.2718H36.1989Z" fill="black"/>
<path d="M55.0192 25.8872C57.3197 28.5093 60.3378 27.5412 59.7996 24.6755C59.2613 21.8099 56.2816 21.297 54.5514 21.188C52.8276 21.079 50.5208 18.9314 52.2189 16.7068C53.917 14.4758 61.7412 18.13 61.7027 23.4831C61.6643 28.8362 58.0758 29.3491 55.487 27.0155C54.9871 26.3937 55.0192 25.8872 55.0192 25.8872Z" fill="black"/>
<path d="M36.4232 53.3835C31.976 51.2615 30.9571 45.7289 29.7845 42.1644C28.6118 38.6 23.056 36.9395 20.3519 44.9596C17.6477 52.9732 21.2682 64.5577 27.4391 65.1795C33.61 65.8014 36.4232 59.4931 36.4232 59.4931C36.4232 59.4931 32.6873 63.1152 27.6954 60.2175C31.521 60.7368 34.4239 58.2494 34.4239 58.2494C34.4239 58.2494 29.4576 59.3841 25.7474 57.0056C29.3743 58.0378 31.976 56.8005 31.976 56.8005C31.976 56.8005 28.0479 56.5441 25.4014 53.2296C27.9005 54.9862 30.4509 54.8836 30.4509 54.8836C30.4509 54.8836 27.0354 52.2103 25.7538 48.7292C29.1757 52.7616 32.3413 53.9541 32.3413 53.9541C32.3413 53.9541 28.7207 50.8512 28.2658 47.3316C31.63 52.3449 36.436 53.3835 36.436 53.3835H36.4232Z" fill="black"/>
<path d="M63.2663 63.9807C63.0035 67.5965 60.5429 70.2506 58.1527 71.552C56.7301 72.3277 54.5962 70.6224 57.153 69.3274C59.7034 68.0324 62.2922 66.1732 63.2727 63.9871L63.2663 63.9807Z" fill="black"/>
<path d="M61.3823 62.8075C59.8636 66.731 54.8846 70.5326 50.3926 71.9751C48.1049 72.7572 47.3616 70.1544 49.7133 69.4941C52.0651 68.8337 56.0893 67.9554 61.3823 62.8075Z" fill="black"/>
<path d="M57.7618 62.0895C55.8714 65.5129 49.9953 69.7505 41.4534 70.4108C38.6979 70.5967 38.762 68.1093 41.4534 67.8657C44.1448 67.6157 50.8603 67.4939 57.7618 62.0895Z" fill="black"/>
<path d="M44.4075 50.7038C51.4927 50.7038 57.2363 44.8771 57.2363 37.6897C57.2363 30.5022 51.4927 24.6755 44.4075 24.6755C37.3223 24.6755 31.5787 30.5022 31.5787 37.6897C31.5787 44.8771 37.3223 50.7038 44.4075 50.7038Z" fill="#DDBB3E"/>
<path d="M44.4075 47.0367C49.4967 47.0367 53.6222 42.8519 53.6222 37.6896C53.6222 32.5274 49.4967 28.3425 44.4075 28.3425C39.3184 28.3425 35.1928 32.5274 35.1928 37.6896C35.1928 42.8519 39.3184 47.0367 44.4075 47.0367Z" fill="#F2EFDA"/>
<path d="M44.4075 44.1646C47.9324 44.1646 50.7899 41.2656 50.7899 37.6896C50.7899 34.1136 47.9324 31.2146 44.4075 31.2146C40.8826 31.2146 38.0251 34.1136 38.0251 37.6896C38.0251 41.2656 40.8826 44.1646 44.4075 44.1646Z" fill="black"/>
<path d="M35.558 94.0094C36.3334 93.1182 36.814 91.9515 36.814 90.6693C36.814 87.8613 34.5456 85.5854 31.7453 85.5854C29.9831 85.5854 28.4259 86.4894 27.5224 87.8613C27.5224 87.8613 27.5224 87.8613 27.5224 87.8677C27.3365 88.1434 27.1828 88.4447 27.0546 88.7588C21.3643 101.927 25.4974 115.845 29.1372 120.845C26.4394 107.318 33.7446 96.2852 35.5708 94.0094H35.558Z" fill="#DDBB3E"/>
<path d="M24.0557 89.6436C24.7221 88.8358 25.1258 87.778 25.1258 86.6176C25.1258 84.0725 23.1842 82.0082 20.794 82.0082C19.2881 82.0082 17.9617 82.8288 17.1863 84.0725C17.1863 84.0725 17.1863 84.0725 17.1863 84.0789C17.0325 84.3289 16.8979 84.6046 16.789 84.8867C11.9253 96.8302 15.4561 109.453 18.564 113.986C16.2571 101.715 22.4985 91.7079 24.0621 89.65L24.0557 89.6436Z" fill="#DDBB3E"/>
<path d="M14.2578 84.1879C14.8409 83.5083 15.2254 82.598 15.2895 81.5786C15.4241 79.3412 13.963 77.4308 12.0214 77.3154C10.7975 77.2385 9.6825 77.8988 8.98403 78.9502C8.84305 79.1617 8.7213 79.3925 8.61877 79.6361C4.04345 89.8872 6.23499 101.151 8.50983 105.286C7.29231 94.394 12.8865 85.9124 14.2578 84.1751V84.1879Z" fill="#DDBB3E"/>
<path d="M78.1713 58.9097C77.5177 58.7045 76.768 58.5058 75.9734 58.3199C68.1043 56.48 59.9021 56.48 52.033 58.3199C51.2384 58.5058 50.4887 58.7045 49.8351 58.9097C44.4396 60.5958 38.9927 63.0447 34.8147 66.9682C34.7763 67.0066 34.8339 67.0708 34.8788 67.0387C35.5581 66.622 36.2501 66.2181 36.9422 65.8206C41.4662 63.7114 45.8045 61.7882 50.745 60.6791C53.3787 60.0893 56.0573 59.6533 58.755 59.429C60.4339 59.2943 62.1961 59.1597 64.0032 59.1918C65.8103 59.1597 67.5725 59.2943 69.2514 59.429C71.9491 59.6598 74.6277 60.0893 77.2614 60.6791C82.202 61.7818 86.5466 63.7114 91.0642 65.8206C91.7563 66.2181 92.442 66.622 93.1276 67.0387C93.1725 67.0643 93.2301 67.0002 93.1917 66.9682C89.0137 63.0447 83.5669 60.5958 78.1713 58.9097Z" fill="#D81A21"/>
<path d="M77.1653 55.1209C77.1653 55.1209 77.223 55.1209 77.2101 55.0952C76.454 52.5245 73.7883 48.7036 71.0777 47.9214C67.8609 46.9919 67.3931 52.3065 67.4636 54.3452C67.4636 54.4285 67.5789 54.4477 67.6109 54.3644C67.9954 53.0117 68.3799 51.659 69.0463 50.4025C70.0075 48.6074 71.3981 49.2998 72.7053 50.2807C74.5188 51.6526 75.7747 53.3515 77.1653 55.1273V55.1209Z" fill="#D81A21"/>
<path d="M91.8012 26.2718C94.1914 27.7015 94.7489 30.721 97.0814 31.9839C99.4139 33.2469 105.309 29.3747 100.285 23.2331C95.2615 17.085 84.3294 15.3092 78.6071 19.1622C72.8847 23.0151 70.9303 29.894 70.7637 31.439C74.8328 22.5215 84.9254 16.9632 94.422 22.4125C97.4594 24.3357 98.0041 25.8231 98.0041 25.8231C98.0041 25.8231 95.4794 23.7011 92.4484 23.4895C96.8955 25.5474 96.9788 27.3104 96.9788 27.3104C96.9788 27.3104 94.4989 25.214 92.0959 25.0538C95.2999 26.4834 95.9471 28.6182 95.9471 28.6182C95.9471 28.6182 94.3131 26.8424 91.8076 26.2718H91.8012Z" fill="black"/>
<path d="M72.9808 25.8872C70.6803 28.5093 67.6622 27.5412 68.2004 24.6755C68.7387 21.8099 71.7184 21.297 73.4486 21.188C75.1724 21.079 77.4792 18.9314 75.7811 16.7068C74.083 14.4758 66.2588 18.13 66.2973 23.4831C66.3357 28.8362 69.9242 29.3491 72.513 27.0155C73.0129 26.3937 72.9808 25.8872 72.9808 25.8872Z" fill="black"/>
<path d="M91.5768 53.3836C96.024 51.2616 97.0429 45.729 98.2155 42.1645C99.3882 38.5936 104.944 36.9396 107.648 44.9596C110.352 52.9733 106.732 64.5578 100.561 65.1796C94.39 65.8015 91.5768 59.4931 91.5768 59.4931C91.5768 59.4931 95.3127 63.1153 100.305 60.2176C96.479 60.7369 93.5761 58.2494 93.5761 58.2494C93.5761 58.2494 98.5424 59.3842 102.253 57.0057C98.6257 58.0379 96.024 56.8006 96.024 56.8006C96.024 56.8006 99.9521 56.5441 102.599 53.2297C100.099 54.9863 97.5491 54.8837 97.5491 54.8837C97.5491 54.8837 100.965 52.2104 102.246 48.7293C98.8243 52.7617 95.6587 53.9541 95.6587 53.9541C95.6587 53.9541 99.2793 50.8513 99.7342 47.3317C96.37 52.345 91.564 53.3836 91.564 53.3836H91.5768Z" fill="black"/>
<path d="M64.7337 63.9807C64.9964 67.5965 67.4571 70.2506 69.8473 71.552C71.2699 72.3277 73.4037 70.6224 70.8534 69.3274C68.303 68.0324 65.7141 66.1732 64.7337 63.9871V63.9807Z" fill="black"/>
<path d="M66.6177 62.8075C68.1364 66.731 73.1154 70.5326 77.6074 71.9751C79.8951 72.7572 80.6384 70.1544 78.2867 69.4941C75.9349 68.8337 71.9107 67.9554 66.6177 62.8075Z" fill="black"/>
<path d="M70.2382 62.0895C72.1285 65.5129 78.0047 69.7505 86.5465 70.4108C89.302 70.5967 89.2379 68.1093 86.5465 67.8657C83.8552 67.6157 77.1396 67.4939 70.2382 62.0895Z" fill="black"/>
<path d="M83.5925 50.7038C90.6777 50.7038 96.4213 44.8771 96.4213 37.6897C96.4213 30.5022 90.6777 24.6755 83.5925 24.6755C76.5073 24.6755 70.7637 30.5022 70.7637 37.6897C70.7637 44.8771 76.5073 50.7038 83.5925 50.7038Z" fill="#DDBB3E"/>
<path d="M83.5925 47.0367C88.6816 47.0367 92.8072 42.8519 92.8072 37.6896C92.8072 32.5274 88.6816 28.3425 83.5925 28.3425C78.5033 28.3425 74.3777 32.5274 74.3777 37.6896C74.3777 42.8519 78.5033 47.0367 83.5925 47.0367Z" fill="#F2EFDA"/>
<path d="M92.4419 94.0094C91.6666 93.1182 91.186 91.9515 91.186 90.6693C91.186 87.8613 93.4544 85.5854 96.2547 85.5854C98.0169 85.5854 99.5741 86.4894 100.478 87.8613C100.478 87.8613 100.478 87.8613 100.478 87.8677C100.663 88.1434 100.817 88.4447 100.945 88.7588C106.636 101.927 102.503 115.845 98.8628 120.845C101.561 107.318 94.2554 96.2852 92.4291 94.0094H92.4419Z" fill="#DDBB3E"/>
<path d="M103.944 89.6436C103.278 88.8358 102.874 87.778 102.874 86.6176C102.874 84.0725 104.816 82.0082 107.206 82.0082C108.712 82.0082 110.038 82.8288 110.814 84.0725C110.814 84.0725 110.814 84.0725 110.814 84.0789C110.968 84.3289 111.102 84.6046 111.211 84.8867C116.075 96.8302 112.544 109.453 109.436 113.986C111.743 101.715 105.501 91.7079 103.938 89.65L103.944 89.6436Z" fill="#DDBB3E"/>
<path d="M113.742 84.1879C113.159 83.5083 112.775 82.598 112.711 81.5786C112.576 79.3412 114.037 77.4308 115.979 77.3154C117.203 77.2385 118.318 77.8988 119.016 78.9502C119.157 79.1617 119.279 79.3925 119.381 79.6361C123.957 89.8872 121.765 101.151 119.49 105.286C120.708 94.394 115.114 85.9124 113.742 84.1751V84.1879Z" fill="#DDBB3E"/>
<path d="M83.5925 44.1646C87.1173 44.1646 89.9748 41.2656 89.9748 37.6896C89.9748 34.1136 87.1173 31.2146 83.5925 31.2146C80.0676 31.2146 77.2101 34.1136 77.2101 37.6896C77.2101 41.2656 80.0676 44.1646 83.5925 44.1646Z" fill="black"/>
<path d="M56.0765 95.0864C58.9152 96.4775 60.2032 93.8362 60.2032 93.8362C60.2032 93.8362 54.6859 89.5025 55.0576 86.2201C49.3224 90.8936 53.7696 93.958 56.0765 95.0928V95.0864Z" fill="#DDBB3E"/>
<path d="M69.2578 95.1312C71.6031 94.6248 76.0374 93.8555 76.8641 92.2784C77.6971 90.7013 76.9858 88.5344 75.9157 88.3229C74.1343 90.3167 66.3421 92.9003 63.6123 93.0798C65.8423 95.1312 66.9124 95.6377 69.2578 95.1312Z" fill="#DDBB3E"/>
<path d="M56.8326 106.1C56.8326 106.1 59.0049 102.529 59.9854 101.016C60.9658 99.497 57.1402 97.1186 56.2303 97.9263C55.3203 98.7277 52.7956 100.484 44.3562 100.689C46.881 104.286 47.5987 105.389 50.8347 103.991C54.0708 102.593 54.9038 102.234 54.9038 102.234C54.9038 102.234 50.3541 112.492 43.4335 116.922C48.9892 117.069 54.1605 110.799 54.1605 110.799C54.1605 110.799 53.5966 118.589 52.6418 119.691C51.6934 120.794 51.2769 120.403 51.2769 120.403C51.2769 120.403 53.5389 125.339 55.4998 124.448C57.4606 123.557 56.839 109.876 56.839 109.876C56.839 109.876 58.6845 110.947 58.6845 111.569V112.191C58.6845 112.191 61.6514 110.139 60.2096 108.325C58.7742 106.511 56.839 106.094 56.839 106.094L56.8326 106.1Z" fill="#DDBB3E"/>
<path d="M67.0598 104.869C67.0598 104.869 74.2624 103.69 75.2941 103.632C75.5568 102.363 75.2941 100.446 75.2941 100.446C75.2941 100.446 77.8637 98.2919 77.0371 97.4071C76.2104 96.5224 73.0256 95.5352 72.0773 95.4967C71.9299 96.4327 66.2908 97.8687 65.2912 97.7726C62.7536 97.5866 62.2217 98.6765 62.2217 98.6765C62.2217 98.6765 65.4386 104.85 65.4065 106.235C67.0598 105.882 67.0598 104.876 67.0598 104.876V104.869ZM72.2246 99.1701C72.2246 99.1701 72.167 100.497 71.8145 101.029C71.4621 101.561 67.0021 102.183 67.0021 102.183L66.592 100.561L72.2311 99.1766L72.2246 99.1701Z" fill="#DDBB3E"/>
<path d="M79.8694 106.229C77.5113 104.69 77.1524 104.427 75.858 104.901C74.5572 105.376 63.6187 107.53 63.6187 107.53C62.2538 106.735 61.5169 106.408 60.6005 106.882C62.1641 108.979 62.8754 121.647 62.9907 123.801C64.5863 123.301 65.1758 120.762 65.1758 120.762C65.1758 120.762 71.5198 119.255 73.2307 119.877C74.6469 122.326 74.9416 124.782 74.9416 124.782C74.9416 124.782 78.1905 124.576 79.0428 118.14C79.9015 111.703 79.517 111.082 79.8694 110.492C80.2219 109.902 82.2276 107.774 79.8694 106.241V106.229ZM64.4325 110.479C64.4325 110.479 65.7333 110.139 67.5019 109.755C67.6365 110.261 67.7326 111.075 67.8095 111.992C66.7458 112.223 65.6564 112.421 64.6312 112.55L64.4261 110.479H64.4325ZM65.1438 117.742L64.8875 115.133C65.4962 115.114 66.6433 115.063 67.9697 114.954C67.9954 115.762 68.0146 116.505 68.021 117.057C66.4318 117.403 65.1374 117.742 65.1374 117.742H65.1438ZM75.4158 118.037C75.4158 118.037 75.0314 116.383 72.7565 116.351C72.2567 116.345 71.6095 116.409 70.8982 116.512C70.9366 115.999 70.9815 115.332 71.02 114.588C72.6668 114.325 74.1663 113.934 74.884 113.357C76.8448 111.78 74.3521 109.562 74.1599 109.395C74.224 109.453 74.2432 110.049 73.8715 110.421C73.3909 110.851 72.4938 111.03 71.1545 111.152C71.1737 110.37 71.1866 109.639 71.1866 109.056C72.9167 108.78 74.6213 108.607 75.8003 108.703C76.5949 111.684 75.4158 118.037 75.4158 118.037Z" fill="#DDBB3E"/>
<path d="M74.1537 109.396L74.1406 109.383C74.1406 109.383 74.1406 109.383 74.1537 109.396Z" fill="#DDBB3E"/>
</g>
<defs>
<linearGradient id="paint0_linear_49_844" x1="63.9971" y1="31.9519" x2="63.9971" y2="118.082" gradientUnits="userSpaceOnUse">
<stop stop-color="#7C54A1"/>
<stop offset="0.99" stop-color="#5F3D7D"/>
</linearGradient>
<linearGradient id="paint1_linear_49_844" x1="63.9968" y1="79.7451" x2="63.9968" y2="66.0771" gradientUnits="userSpaceOnUse">
<stop stop-color="#8B89C2"/>
<stop offset="0.99" stop-color="#5F3D7D"/>
</linearGradient>
<linearGradient id="paint2_linear_49_844" x1="63.9968" y1="79.0271" x2="63.9968" y2="18.0787" gradientUnits="userSpaceOnUse">
<stop stop-color="#FDE2D6"/>
<stop offset="0.53" stop-color="#FCE0D4"/>
<stop offset="0.72" stop-color="#FCDACD"/>
<stop offset="0.85" stop-color="#FBCFC1"/>
<stop offset="0.96" stop-color="#F9C0B0"/>
<stop offset="1" stop-color="#F9B9A9"/>
</linearGradient>
<radialGradient id="paint3_radial_49_844" cx="0" cy="0" r="1" gradientUnits="userSpaceOnUse" gradientTransform="translate(40.6845 35.0996) scale(17.5003 17.5081)">
<stop stop-color="#EB6B3D"/>
<stop offset="0.44" stop-color="#EB6C3E"/>
<stop offset="0.6" stop-color="#EC7145"/>
<stop offset="0.72" stop-color="#ED7951"/>
<stop offset="0.81" stop-color="#EF8562"/>
<stop offset="0.89" stop-color="#F29578"/>
<stop offset="0.96" stop-color="#F6A992"/>
<stop offset="1" stop-color="#F9B9A9"/>
</radialGradient>
<radialGradient id="paint4_radial_49_844" cx="0" cy="0" r="1" gradientUnits="userSpaceOnUse" gradientTransform="translate(87.3156 0.320505) scale(0.3204 0.320545)">
<stop stop-color="#EB6B3D"/>
<stop offset="0.44" stop-color="#EB6C3E"/>
<stop offset="0.6" stop-color="#EC7145"/>
<stop offset="0.72" stop-color="#ED7951"/>
<stop offset="0.81" stop-color="#EF8562"/>
<stop offset="0.89" stop-color="#F29578"/>
<stop offset="0.96" stop-color="#F6A992"/>
<stop offset="1" stop-color="#F9B9A9"/>
</radialGradient>
<clipPath id="clip0_49_844">
<rect width="128" height="129" fill="white"/>
</clipPath>
</defs>
</svg>
