<svg width="128" height="129" fill="none" xmlns="http://www.w3.org/2000/svg"><g clip-path="url(#a)"><path d="M127.276 72.084c.891 7.911 1.218 16.014-.589 23.836-1.487 6.456-4.14 13.072-8.728 17.931-5.248 5.558-13.207 8.533-20.326 10.649-10.964 3.269-22.223 4.096-33.533 4.506H63.9c-11.31-.403-22.57-1.237-33.533-4.506-7.12-2.122-15.078-5.097-20.326-10.649-4.588-4.853-7.241-11.469-8.728-17.931C-.493 88.098-.166 80 .724 72.084c.91-8.097 2.39-16.13 4.422-24.015 3.64-14.187 8.253-30.413 21.563-38.235C37.795 3.308 50.809.353 63.67 0h.064c.09 0 .173.006.263.006.09 0 .18-.006.263-.006h.064c12.86.353 25.875 3.308 36.968 9.828 13.309 7.821 17.923 24.047 21.563 38.234a173.4 173.4 0 0 1 4.421 24.016v.006Z" fill="url(#b)"/><path d="M119.151 52.345c-2.378-14.11-5.729-30.945-19.122-39.62-13.4-8.673-36.026 11.329-36.026 11.329S41.376 4.052 27.977 12.726C14.578 21.4 11.233 38.228 8.856 52.345c-2.115 12.232 5.51 26.842 22.736 28.753 17.218 1.917 22.748-.385 32.418-.385 9.67 0 15.2 2.302 32.418.385s24.844-16.528 22.735-28.753h-.012Z" fill="url(#c)"/><path d="M117.875 65.205c1.577-4.16 2-8.648 1.276-12.86-2.378-14.11-5.729-30.945-19.122-39.62-13.4-8.673-58.652-8.673-72.052 0C14.578 21.4 11.233 38.229 8.856 52.346c-.692 4.02-.327 8.29 1.07 12.283 13.95-6.481 33.322-13.95 54.077-13.93 17.283.012 37.455 7.083 53.879 14.507h-.007Z" fill="#5F3D7D"/><path d="M109.16 34.215c2.987 9.655 4.935 20.387-.147 29.676-4.748 8.687-15.04 11.424-24.203 11.661-5.876.148-11.823-.737-17.737-1.013-.257-.019-.507-.025-.756-.038a46.363 46.363 0 0 0-2.314-.045c-.769 0-1.544.007-2.313.045-.244.006-.5.02-.756.038-5.915.276-11.861 1.16-17.738 1.013-9.163-.237-19.454-2.974-24.203-11.661-5.075-9.29-3.133-20.021-.147-29.676 1.5-4.853 3.749-9.437 7.536-12.88 3.44-3.134 7.747-5.186 12.169-6.449 6.305-1.814 12.976-2.404 19.672-2.577h.192c1.852-.006 3.724-.02 5.588-.006 1.871-.007 3.736 0 5.588.006h.192c6.697.173 13.367.763 19.673 2.577 4.421 1.263 8.728 3.315 12.169 6.45 3.787 3.442 6.042 8.026 7.535 12.879Z" fill="url(#d)"/><path d="M40.684 53.018c9.428 0 17.071-8.022 17.071-17.918 0-9.897-7.643-17.919-17.07-17.919-9.429 0-17.072 8.022-17.072 17.919 0 9.896 7.643 17.918 17.072 17.918Z" fill="url(#e)"/><path d="M87.316 53.018c9.428 0 17.071-8.022 17.071-17.918 0-9.897-7.643-17.919-17.071-17.919S70.245 25.203 70.245 35.1c0 9.896 7.642 17.918 17.07 17.918Z" fill="url(#f)"/><path d="M55.301 50.274c1.307-.987 2.698-1.68 3.66.122.66 1.25 1.05 2.61 1.434 3.962.026.083.148.064.148-.02.07-2.038-.397-7.353-3.614-6.423-2.704.782-5.377 4.61-6.133 7.174-.006.025.026.058.045.025 1.39-1.775 2.64-3.474 4.46-4.846v.006Z" fill="#D81A21"/><path d="M36.199 26.272c-2.39 1.43-2.948 4.449-5.28 5.712-2.333 1.263-8.228-2.61-3.204-8.75 5.024-6.149 15.956-7.925 21.678-4.072 5.722 3.853 7.677 10.732 7.843 12.277-4.069-8.918-14.161-14.476-23.658-9.026-3.037 1.923-3.582 3.41-3.582 3.41s2.525-2.122 5.556-2.334c-4.447 2.058-4.53 3.821-4.53 3.821s2.48-2.096 4.882-2.256c-3.204 1.43-3.851 3.564-3.851 3.564s1.634-1.776 4.14-2.346h.006Z" fill="#000"/><path d="M55.02 25.887c2.3 2.622 5.318 1.654 4.78-1.212-.539-2.865-3.518-3.378-5.249-3.487-1.723-.109-4.03-2.257-2.332-4.481 1.698-2.231 9.522 1.423 9.484 6.776-.039 5.353-3.627 5.866-6.216 3.532-.5-.621-.468-1.128-.468-1.128ZM36.423 53.383c-4.447-2.122-5.466-7.654-6.639-11.219-1.172-3.564-6.728-5.224-9.432 2.796-2.704 8.013.916 19.598 7.087 20.22 6.171.621 8.984-5.687 8.984-5.687s-3.736 3.622-8.728.724c3.826.52 6.729-1.968 6.729-1.968s-4.966 1.135-8.677-1.243c3.627 1.032 6.229-.206 6.229-.206s-3.928-.256-6.575-3.57c2.5 1.756 5.05 1.654 5.05 1.654s-3.416-2.674-4.697-6.155c3.422 4.033 6.587 5.225 6.587 5.225s-3.62-3.103-4.075-6.622c3.364 5.013 8.17 6.051 8.17 6.051h-.013ZM63.266 63.98c-.262 3.617-2.723 6.27-5.113 7.572-1.423.776-3.557-.93-1-2.225 2.55-1.295 5.14-3.154 6.12-5.34l-.007-.006ZM61.382 62.807c-1.518 3.924-6.497 7.726-10.99 9.168-2.287.782-3.03-1.82-.679-2.48 2.352-.661 6.376-1.54 11.67-6.688Z" fill="#000"/><path d="M57.762 62.09c-1.89 3.423-7.767 7.66-16.309 8.32-2.755.187-2.691-2.3 0-2.544 2.692-.25 9.407-.372 16.309-5.776Z" fill="#000"/><path d="M44.407 50.704c7.086 0 12.83-5.827 12.83-13.014 0-7.188-5.744-13.014-12.83-13.014-7.085 0-12.828 5.826-12.828 13.014 0 7.187 5.743 13.014 12.828 13.014Z" fill="#DDBB3E"/><path d="M44.407 47.037c5.09 0 9.215-4.185 9.215-9.347 0-5.163-4.125-9.347-9.215-9.347-5.089 0-9.214 4.184-9.214 9.347 0 5.162 4.125 9.347 9.215 9.347Z" fill="#F2EFDA"/><path d="M44.407 44.165c3.525 0 6.383-2.9 6.383-6.475 0-3.576-2.858-6.475-6.383-6.475-3.524 0-6.382 2.899-6.382 6.475 0 3.576 2.858 6.475 6.383 6.475Z" fill="#000"/><path d="M35.558 94.01a5.076 5.076 0 0 0 1.256-3.34c0-2.809-2.268-5.085-5.069-5.085-1.762 0-3.32.904-4.223 2.276v.007a4.91 4.91 0 0 0-.467.89c-5.69 13.169-1.558 27.087 2.082 32.087-2.698-13.527 4.608-24.56 6.434-26.836h-.013ZM24.056 89.644a4.741 4.741 0 0 0 1.07-3.026c0-2.545-1.942-4.61-4.332-4.61-1.506 0-2.832.82-3.608 2.065v.006a4.97 4.97 0 0 0-.397.808c-4.864 11.943-1.333 24.566 1.775 29.099-2.307-12.271 3.934-22.278 5.498-24.336l-.006-.006ZM14.258 84.188c.583-.68.967-1.59 1.032-2.61.134-2.237-1.327-4.147-3.269-4.263-1.224-.076-2.339.584-3.037 1.635a4.115 4.115 0 0 0-.365.686c-4.576 10.251-2.384 21.515-.11 25.65-1.217-10.892 4.377-19.374 5.749-21.11v.012Z" fill="#DDBB3E"/><path d="M78.171 58.91a31.233 31.233 0 0 0-2.198-.59 52.608 52.608 0 0 0-23.94 0c-.795.186-1.544.385-2.198.59-5.395 1.686-10.842 4.135-15.02 8.058-.039.039.019.103.064.07.68-.416 1.371-.82 2.063-1.217 4.524-2.11 8.862-4.033 13.803-5.142a59.12 59.12 0 0 1 8.01-1.25c1.679-.135 3.441-.27 5.248-.237 1.807-.032 3.57.102 5.248.237 2.698.23 5.377.66 8.01 1.25 4.941 1.103 9.286 3.032 13.803 5.142.692.397 1.378.801 2.064 1.218.044.025.102-.039.064-.07-4.178-3.924-9.625-6.373-15.02-8.06ZM77.165 55.12s.058 0 .045-.025c-.756-2.57-3.422-6.391-6.132-7.174-3.217-.93-3.685 4.386-3.614 6.424 0 .084.115.103.147.02.384-1.353.769-2.706 1.435-3.962.961-1.796 2.352-1.103 3.66-.122 1.813 1.372 3.069 3.07 4.46 4.846v-.006Z" fill="#D81A21"/><path d="M91.801 26.272c2.39 1.43 2.948 4.449 5.28 5.712 2.333 1.263 8.228-2.61 3.204-8.75-5.023-6.149-15.956-7.925-21.678-4.072-5.722 3.853-7.677 10.732-7.843 12.277 4.069-8.918 14.161-14.476 23.658-9.026 3.037 1.923 3.582 3.41 3.582 3.41s-2.525-2.122-5.556-2.334c4.448 2.058 4.53 3.821 4.53 3.821s-2.48-2.096-4.882-2.256c3.204 1.43 3.851 3.564 3.851 3.564s-1.634-1.776-4.14-2.346h-.006Z" fill="#000"/><path d="M72.98 25.887c-2.3 2.622-5.318 1.654-4.78-1.212.539-2.865 3.518-3.378 5.249-3.487 1.723-.109 4.03-2.257 2.332-4.481-1.698-2.231-9.522 1.423-9.484 6.776.039 5.353 3.627 5.866 6.216 3.532.5-.621.468-1.128.468-1.128ZM91.577 53.384c4.447-2.122 5.466-7.655 6.639-11.22 1.172-3.57 6.728-5.224 9.432 2.796 2.704 8.013-.916 19.598-7.087 20.22-6.171.621-8.984-5.687-8.984-5.687s3.736 3.622 8.728.725c-3.826.519-6.729-1.969-6.729-1.969s4.966 1.135 8.677-1.243c-3.627 1.032-6.229-.205-6.229-.205s3.928-.257 6.575-3.571c-2.5 1.756-5.05 1.654-5.05 1.654s3.416-2.674 4.697-6.155c-3.422 4.033-6.587 5.225-6.587 5.225s3.62-3.103 4.075-6.622c-3.364 5.013-8.17 6.052-8.17 6.052h.013ZM64.734 63.98c.262 3.617 2.723 6.27 5.113 7.572 1.423.776 3.557-.93 1.006-2.225-2.55-1.295-5.139-3.154-6.12-5.34v-.006ZM66.618 62.807c1.518 3.924 6.497 7.726 10.99 9.168 2.287.782 3.03-1.82.679-2.48-2.352-.661-6.376-1.54-11.67-6.688Z" fill="#000"/><path d="M70.238 62.09c1.89 3.423 7.767 7.66 16.308 8.32 2.756.187 2.692-2.3 0-2.544-2.69-.25-9.406-.372-16.308-5.776Z" fill="#000"/><path d="M83.593 50.704c7.085 0 12.828-5.827 12.828-13.014 0-7.188-5.743-13.014-12.829-13.014-7.085 0-12.828 5.826-12.828 13.014 0 7.187 5.743 13.014 12.829 13.014Z" fill="#DDBB3E"/><path d="M83.593 47.037c5.089 0 9.214-4.185 9.214-9.347 0-5.163-4.125-9.347-9.215-9.347-5.089 0-9.214 4.184-9.214 9.347 0 5.162 4.125 9.347 9.215 9.347Z" fill="#F2EFDA"/><path d="M92.442 94.01a5.077 5.077 0 0 1-1.256-3.34c0-2.809 2.268-5.085 5.069-5.085 1.762 0 3.32.904 4.223 2.276v.007c.185.275.339.577.467.89 5.691 13.169 1.558 27.087-2.082 32.087 2.698-13.527-4.608-24.56-6.434-26.836h.013ZM103.944 89.644a4.743 4.743 0 0 1-1.07-3.026c0-2.545 1.942-4.61 4.332-4.61 1.506 0 2.832.82 3.608 2.065v.006c.154.25.288.526.397.808 4.864 11.943 1.333 24.566-1.775 29.099 2.307-12.271-3.935-22.278-5.498-24.336l.006-.006ZM113.742 84.188c-.583-.68-.967-1.59-1.031-2.61-.135-2.237 1.326-4.147 3.268-4.263 1.224-.076 2.339.584 3.037 1.635.141.212.263.442.365.686 4.576 10.251 2.384 21.515.109 25.65 1.218-10.892-4.376-19.374-5.748-21.11v.012Z" fill="#DDBB3E"/><path d="M83.593 44.165c3.524 0 6.382-2.9 6.382-6.475 0-3.576-2.858-6.475-6.382-6.475-3.525 0-6.383 2.899-6.383 6.475 0 3.576 2.858 6.475 6.383 6.475Z" fill="#000"/><path d="M56.077 95.086c2.838 1.392 4.126-1.25 4.126-1.25s-5.517-4.334-5.145-7.616c-5.736 4.674-1.288 7.738 1.019 8.873v-.007ZM69.258 95.131c2.345-.506 6.78-1.275 7.606-2.853.833-1.577.122-3.744-.948-3.955-1.782 1.994-9.574 4.577-12.304 4.757 2.23 2.051 3.3 2.558 5.646 2.051ZM56.833 106.1s2.172-3.571 3.152-5.084c.98-1.519-2.845-3.897-3.755-3.09-.91.802-3.434 2.558-11.874 2.763 2.525 3.597 3.243 4.7 6.479 3.302l4.069-1.757s-4.55 10.258-11.47 14.688c5.555.147 10.727-6.123 10.727-6.123s-.564 7.79-1.52 8.892c-.948 1.103-1.364.712-1.364.712s2.262 4.936 4.223 4.045c1.96-.891 1.339-14.572 1.339-14.572s1.846 1.071 1.846 1.693v.622s2.966-2.052 1.525-3.866c-1.436-1.814-3.371-2.231-3.371-2.231l-.006.006ZM67.06 104.869s7.202-1.179 8.234-1.237c.263-1.269 0-3.186 0-3.186s2.57-2.154 1.743-3.039c-.827-.885-4.011-1.872-4.96-1.91-.147.936-5.786 2.372-6.786 2.276-2.537-.186-3.07.904-3.07.904s3.218 6.173 3.185 7.558c1.654-.353 1.654-1.359 1.654-1.359v-.007Zm5.165-5.699s-.058 1.327-.41 1.859c-.353.532-4.813 1.154-4.813 1.154l-.41-1.622 5.64-1.384-.007-.007Z" fill="#DDBB3E"/><path d="M79.87 106.229c-2.359-1.539-2.718-1.802-4.012-1.328-1.3.475-12.24 2.629-12.24 2.629-1.364-.795-2.101-1.122-3.018-.648 1.564 2.097 2.275 14.765 2.39 16.919 1.596-.5 2.186-3.039 2.186-3.039s6.344-1.507 8.055-.885c1.416 2.449 1.71 4.905 1.71 4.905s3.25-.206 4.102-6.642c.858-6.437.474-7.058.826-7.648.353-.59 2.359-2.718 0-4.251v-.012Zm-15.438 4.25s1.301-.34 3.07-.724c.135.506.23 1.32.308 2.237a37.013 37.013 0 0 1-3.179.558l-.205-2.071h.007Zm.712 7.263-.257-2.609c.61-.019 1.756-.07 3.083-.179.025.808.045 1.551.051 2.103-1.59.346-2.884.685-2.884.685h.007Zm10.272.295s-.385-1.654-2.66-1.686c-.5-.006-1.147.058-1.858.161.039-.513.084-1.18.122-1.924 1.647-.263 3.146-.654 3.864-1.231 1.96-1.577-.532-3.795-.724-3.962.064.058.083.654-.288 1.026-.481.43-1.378.609-2.718.731.02-.782.033-1.513.033-2.096 1.73-.276 3.434-.449 4.613-.353.795 2.981-.384 9.334-.384 9.334ZM74.154 109.396l-.013-.013.013.013Z" fill="#DDBB3E"/></g><defs><linearGradient id="b" x1="63.997" y1="31.952" x2="63.997" y2="118.082" gradientUnits="userSpaceOnUse"><stop stop-color="#7C54A1"/><stop offset=".99" stop-color="#5F3D7D"/></linearGradient><linearGradient id="c" x1="63.997" y1="79.745" x2="63.997" y2="66.077" gradientUnits="userSpaceOnUse"><stop stop-color="#8B89C2"/><stop offset=".99" stop-color="#5F3D7D"/></linearGradient><linearGradient id="d" x1="63.997" y1="79.027" x2="63.997" y2="18.079" gradientUnits="userSpaceOnUse"><stop stop-color="#FDE2D6"/><stop offset=".53" stop-color="#FCE0D4"/><stop offset=".72" stop-color="#FCDACD"/><stop offset=".85" stop-color="#FBCFC1"/><stop offset=".96" stop-color="#F9C0B0"/><stop offset="1" stop-color="#F9B9A9"/></linearGradient><radialGradient id="e" cx="0" cy="0" r="1" gradientUnits="userSpaceOnUse" gradientTransform="matrix(17.5003 0 0 17.5081 40.684 35.1)"><stop stop-color="#EB6B3D"/><stop offset=".44" stop-color="#EB6C3E"/><stop offset=".6" stop-color="#EC7145"/><stop offset=".72" stop-color="#ED7951"/><stop offset=".81" stop-color="#EF8562"/><stop offset=".89" stop-color="#F29578"/><stop offset=".96" stop-color="#F6A992"/><stop offset="1" stop-color="#F9B9A9"/></radialGradient><radialGradient id="f" cx="0" cy="0" r="1" gradientUnits="userSpaceOnUse" gradientTransform="matrix(.3204 0 0 .32055 87.316 .32)"><stop stop-color="#EB6B3D"/><stop offset=".44" stop-color="#EB6C3E"/><stop offset=".6" stop-color="#EC7145"/><stop offset=".72" stop-color="#ED7951"/><stop offset=".81" stop-color="#EF8562"/><stop offset=".89" stop-color="#F29578"/><stop offset=".96" stop-color="#F6A992"/><stop offset="1" stop-color="#F9B9A9"/></radialGradient><clipPath id="a"><path fill="#fff" d="M0 0h128v129H0z"/></clipPath></defs></svg>