<svg width="750" height="1179" viewBox="0 0 750 1179" fill="none" xmlns="http://www.w3.org/2000/svg">
<path d="M643.943 173.928C585.377 135.29 497.603 133.62 461.738 164.852C447.364 177.388 432.434 199.472 449.308 237.698C451.744 243.153 456.034 252.241 458.93 257.689C466.626 272.019 477.092 285.695 473.578 302.254C469.851 319.743 443.05 326.788 419.958 333.251C412.202 335.419 401.326 337.482 396.462 344.865C391.598 352.248 399.603 362.053 404.068 367.063L404.61 367.64C413.233 377.309 424.028 384.644 433.961 392.261C447.826 402.869 460.71 414.063 471.026 430.233C487.262 455.551 483.895 472.357 478.126 483.653C468.216 503.103 446.336 514.919 415.745 517.085C413.109 517.292 412.892 513.114 415.106 513.092C443.893 513.041 466.497 500.091 475.603 482.257C483.033 467.763 480.667 450.312 468.894 431.908C459.037 416.567 445.762 406.34 431.628 395.559C421.481 387.804 412.036 380.73 403.106 370.71L401.519 369.155C396.217 363.911 389.332 353.303 392.679 345.324C396.451 336.323 410.249 332.179 418.568 329.842C437.748 324.516 467.363 315.321 470.304 301.441C473.459 286.632 463.215 272.489 455.831 258.741C452.881 253.259 449.838 247.565 447.31 241.898C433.169 209.851 437.588 181.531 459.743 162.271C477.344 146.937 505.537 138.425 537.06 138.841C569.788 139.27 613.066 150.153 640.55 167.476" fill="#DDBB3E"/>
<g clip-path="url(#clip0_132_333077)">
<path d="M488.241 180.161C487.678 176.428 490.241 172.955 493.982 172.402C497.705 171.839 501.17 174.411 501.732 178.143C502.295 181.875 499.723 185.348 496 185.902C492.259 186.464 488.795 183.893 488.232 180.161H488.241Z" fill="#D3B24C"/>
<path opacity="0.9" d="M486.66 186.259C486.241 183.464 488.169 180.857 490.964 180.438C493.75 180.027 496.357 181.947 496.776 184.741C497.196 187.536 495.268 190.143 492.482 190.563C489.687 190.982 487.08 189.054 486.66 186.259Z" fill="#F8EDBE"/>
</g>
<g clip-path="url(#clip1_132_333077)">
<path d="M357.977 532.981C354.957 535.245 350.684 534.634 348.424 531.601C346.164 528.589 346.787 524.32 349.807 522.056C352.828 519.793 357.105 520.412 359.356 523.428C361.624 526.456 361.001 530.725 357.981 532.989L357.977 532.981Z" fill="#D3B24C"/>
<path opacity="0.9" d="M364.096 531.483C361.834 533.177 358.624 532.714 356.93 530.452C355.249 528.193 355.704 524.988 357.966 523.294C360.228 521.6 363.438 522.063 365.127 524.317C366.821 526.58 366.358 529.789 364.096 531.483Z" fill="#F8EDBE"/>
</g>
<g clip-path="url(#clip2_132_333077)">
<path d="M496.133 690.749C493.189 695.341 487.082 696.673 482.489 693.729C477.897 690.786 476.561 684.67 479.505 680.078C482.448 675.486 488.564 674.149 493.156 677.093C497.748 680.037 499.08 686.145 496.136 690.737L496.133 690.749Z" fill="#5A59A2"/>
<mask id="mask0_132_333077" style="mask-type:luminance" maskUnits="userSpaceOnUse" x="485" y="682" width="29" height="28">
<path d="M513.002 692.709C514.761 700.098 510.204 707.524 502.815 709.283C495.427 711.042 488.009 706.48 486.242 699.096C484.483 691.708 489.044 684.29 496.429 682.523C503.817 680.764 511.243 685.321 513.002 692.709Z" fill="white"/>
</mask>
<g mask="url(#mask0_132_333077)">
<path d="M486.303 683.367C486.402 683.785 486.141 684.206 485.731 684.3C485.314 684.399 484.893 684.138 484.794 683.721C484.695 683.303 484.955 682.882 485.373 682.783C485.791 682.684 486.212 682.945 486.311 683.362L486.303 683.367Z" fill="#5A59A2"/>
<path d="M489.035 682.714C489.134 683.131 488.873 683.552 488.455 683.652C488.037 683.751 487.616 683.49 487.517 683.072C487.418 682.654 487.679 682.233 488.097 682.134C488.514 682.035 488.935 682.296 489.035 682.714Z" fill="#5A59A2"/>
<path d="M491.757 682.065C491.856 682.483 491.595 682.904 491.177 683.003C490.76 683.102 490.339 682.841 490.239 682.424C490.14 682.006 490.401 681.585 490.819 681.486C491.237 681.387 491.658 681.648 491.757 682.065Z" fill="#5A59A2"/>
<path d="M494.48 681.417C494.579 681.835 494.318 682.256 493.9 682.355C493.483 682.454 493.066 682.201 492.963 681.775C492.863 681.357 493.124 680.936 493.542 680.837C493.96 680.738 494.381 680.999 494.48 681.417Z" fill="#5A59A2"/>
<path d="M487.948 686.098C488.079 686.641 487.747 687.187 487.203 687.318C486.659 687.449 486.109 687.109 485.982 686.573C485.851 686.029 486.184 685.484 486.728 685.352C487.271 685.221 487.817 685.554 487.948 686.098Z" fill="#5A59A2"/>
<path d="M491.495 685.247C491.626 685.791 491.286 686.341 490.75 686.468C490.206 686.599 489.66 686.267 489.529 685.723C489.398 685.179 489.731 684.633 490.274 684.502C490.818 684.371 491.368 684.711 491.495 685.247Z" fill="#5A59A2"/>
<path d="M495.039 684.41C495.17 684.953 494.829 685.504 494.293 685.63C493.75 685.762 493.199 685.421 493.073 684.885C492.941 684.342 493.274 683.796 493.818 683.665C494.362 683.533 494.907 683.866 495.039 684.41Z" fill="#5A59A2"/>
<path d="M498.584 683.56C498.715 684.104 498.382 684.649 497.838 684.781C497.295 684.912 496.744 684.571 496.613 684.028C496.482 683.484 496.815 682.938 497.358 682.807C497.902 682.676 498.448 683.009 498.579 683.552L498.584 683.56Z" fill="#5A59A2"/>
<path d="M502.123 682.715C502.254 683.258 501.921 683.804 501.378 683.935C500.834 684.067 500.288 683.734 500.157 683.19C500.026 682.646 500.358 682.101 500.902 681.969C501.446 681.838 501.992 682.171 502.115 682.719L502.123 682.715Z" fill="#5A59A2"/>
<path d="M505.673 681.872C505.804 682.416 505.464 682.966 504.928 683.093C504.384 683.224 503.838 682.892 503.707 682.348C503.576 681.804 503.909 681.258 504.452 681.127C504.996 680.996 505.542 681.329 505.673 681.872Z" fill="#5A59A2"/>
<path d="M509.219 681.023C509.35 681.566 509.01 682.116 508.474 682.243C507.93 682.374 507.384 682.042 507.253 681.498C507.122 680.954 507.454 680.409 507.998 680.277C508.542 680.146 509.092 680.487 509.219 681.023Z" fill="#5A59A2"/>
<path d="M487.714 689.273C487.813 689.691 487.56 690.108 487.143 690.207C486.725 690.306 486.304 690.045 486.205 689.627C486.106 689.21 486.367 688.788 486.784 688.689C487.202 688.59 487.623 688.851 487.722 689.269L487.714 689.273Z" fill="#5A59A2"/>
<path d="M490.445 688.62C490.544 689.038 490.283 689.459 489.866 689.558C489.448 689.657 489.027 689.396 488.928 688.979C488.829 688.561 489.09 688.14 489.507 688.041C489.925 687.942 490.342 688.195 490.445 688.62Z" fill="#5A59A2"/>
<path d="M493.168 687.972C493.267 688.389 493.006 688.811 492.588 688.91C492.171 689.009 491.754 688.756 491.651 688.33C491.551 687.912 491.805 687.496 492.23 687.392C492.648 687.293 493.064 687.546 493.168 687.972Z" fill="#5A59A2"/>
<path d="M495.891 687.323C495.99 687.741 495.729 688.162 495.312 688.261C494.894 688.36 494.473 688.099 494.374 687.682C494.275 687.264 494.535 686.843 494.953 686.744C495.371 686.645 495.792 686.906 495.891 687.323Z" fill="#5A59A2"/>
<path d="M498.614 686.675C498.713 687.093 498.452 687.514 498.034 687.613C497.616 687.712 497.195 687.451 497.096 687.033C496.997 686.616 497.25 686.199 497.676 686.095C498.094 685.996 498.515 686.257 498.614 686.675Z" fill="#5A59A2"/>
<path d="M501.345 686.022C501.444 686.44 501.183 686.861 500.765 686.96C500.347 687.059 499.926 686.798 499.827 686.38C499.728 685.962 499.989 685.541 500.407 685.442C500.825 685.343 501.241 685.596 501.34 686.014L501.345 686.022Z" fill="#5A59A2"/>
<path d="M504.067 685.373C504.166 685.791 503.913 686.208 503.488 686.311C503.07 686.41 502.649 686.149 502.55 685.732C502.451 685.314 502.712 684.893 503.129 684.794C503.547 684.695 503.964 684.948 504.067 685.373Z" fill="#5A59A2"/>
<path d="M506.791 684.725C506.89 685.142 506.629 685.563 506.211 685.663C505.794 685.762 505.373 685.501 505.274 685.083C505.175 684.665 505.428 684.249 505.853 684.145C506.271 684.046 506.687 684.299 506.791 684.725Z" fill="#5A59A2"/>
<path d="M509.514 684.076C509.613 684.494 509.352 684.915 508.934 685.014C508.516 685.113 508.095 684.852 507.996 684.435C507.897 684.017 508.158 683.596 508.576 683.497C508.993 683.398 509.41 683.651 509.514 684.076Z" fill="#5A59A2"/>
<path d="M512.382 683.395C512.481 683.812 512.22 684.233 511.803 684.332C511.385 684.431 510.964 684.171 510.865 683.753C510.766 683.335 511.027 682.914 511.437 682.82C511.854 682.72 512.275 682.981 512.374 683.399L512.382 683.395Z" fill="#5A59A2"/>
<path d="M515.113 682.741C515.212 683.159 514.951 683.58 514.533 683.679C514.115 683.778 513.694 683.517 513.595 683.1C513.496 682.682 513.749 682.265 514.175 682.162C514.593 682.063 515.014 682.324 515.113 682.741Z" fill="#5A59A2"/>
<path d="M485.813 692.854C485.944 693.398 485.611 693.943 485.067 694.075C484.524 694.206 483.974 693.865 483.85 693.317C483.719 692.773 484.052 692.228 484.595 692.096C485.139 691.965 485.685 692.298 485.816 692.842L485.813 692.854Z" fill="#5A59A2"/>
<path d="M489.359 692.004C489.49 692.548 489.157 693.094 488.614 693.225C488.07 693.356 487.52 693.016 487.393 692.48C487.262 691.936 487.595 691.39 488.138 691.259C488.682 691.128 489.228 691.461 489.359 692.004Z" fill="#5A59A2"/>
<path d="M492.897 691.158C493.029 691.702 492.696 692.248 492.152 692.379C491.609 692.51 491.063 692.177 490.932 691.634C490.8 691.09 491.133 690.544 491.677 690.413C492.22 690.282 492.766 690.615 492.897 691.158Z" fill="#5A59A2"/>
<path d="M496.448 690.316C496.579 690.86 496.247 691.406 495.703 691.537C495.159 691.668 494.614 691.335 494.482 690.792C494.351 690.248 494.684 689.702 495.228 689.571C495.771 689.44 496.317 689.773 496.448 690.316Z" fill="#5A59A2"/>
<path d="M499.986 689.471C500.118 690.014 499.785 690.56 499.241 690.691C498.697 690.823 498.147 690.482 498.02 689.946C497.889 689.403 498.222 688.857 498.766 688.726C499.309 688.594 499.855 688.927 499.986 689.471Z" fill="#5A59A2"/>
<path d="M503.533 688.621C503.664 689.164 503.331 689.71 502.788 689.841C502.244 689.973 501.694 689.632 501.567 689.096C501.436 688.552 501.768 688.007 502.312 687.875C502.856 687.744 503.401 688.077 503.533 688.621Z" fill="#5A59A2"/>
<path d="M507.084 687.779C507.215 688.323 506.875 688.873 506.339 689C505.795 689.131 505.245 688.79 505.114 688.247C504.982 687.703 505.315 687.157 505.859 687.026C506.403 686.895 506.948 687.228 507.08 687.771L507.084 687.779Z" fill="#5A59A2"/>
<path d="M510.63 686.929C510.762 687.473 510.421 688.023 509.885 688.15C509.341 688.281 508.796 687.948 508.664 687.405C508.533 686.861 508.866 686.315 509.41 686.184C509.953 686.053 510.499 686.385 510.63 686.929Z" fill="#5A59A2"/>
<path d="M514.173 686.091C514.304 686.635 513.964 687.185 513.428 687.312C512.884 687.443 512.334 687.103 512.207 686.567C512.076 686.023 512.409 685.477 512.952 685.346C513.496 685.215 514.042 685.547 514.173 686.091Z" fill="#5A59A2"/>
<path d="M486.402 695.828C486.501 696.246 486.241 696.667 485.831 696.762C485.413 696.861 484.992 696.6 484.893 696.182C484.794 695.764 485.054 695.343 485.472 695.244C485.89 695.145 486.311 695.406 486.41 695.824L486.402 695.828Z" fill="#5A59A2"/>
<path d="M489.125 695.18C489.224 695.597 488.964 696.018 488.554 696.113C488.136 696.212 487.719 695.959 487.62 695.541C487.521 695.124 487.782 694.703 488.2 694.603C488.617 694.504 489.039 694.765 489.138 695.183L489.125 695.18Z" fill="#5A59A2"/>
<path d="M491.849 694.531C491.948 694.949 491.687 695.37 491.27 695.469C490.852 695.568 490.431 695.307 490.332 694.889C490.233 694.472 490.493 694.051 490.911 693.952C491.329 693.853 491.745 694.106 491.849 694.531Z" fill="#5A59A2"/>
<path d="M494.572 693.883C494.671 694.3 494.41 694.721 493.992 694.82C493.574 694.92 493.153 694.659 493.054 694.241C492.955 693.823 493.216 693.402 493.634 693.303C494.052 693.204 494.473 693.465 494.572 693.883Z" fill="#5A59A2"/>
<path d="M497.303 693.23C497.402 693.648 497.141 694.069 496.723 694.168C496.305 694.267 495.884 694.006 495.785 693.588C495.686 693.17 495.947 692.749 496.365 692.65C496.783 692.551 497.204 692.812 497.303 693.23Z" fill="#5A59A2"/>
<path d="M500.025 692.581C500.124 692.999 499.864 693.42 499.446 693.519C499.028 693.618 498.607 693.357 498.508 692.939C498.409 692.522 498.67 692.101 499.087 692.002C499.505 691.903 499.926 692.163 500.025 692.581Z" fill="#5A59A2"/>
<path d="M502.748 691.932C502.847 692.35 502.586 692.771 502.168 692.87C501.751 692.969 501.334 692.716 501.231 692.291C501.132 691.873 501.385 691.457 501.81 691.353C502.228 691.254 502.649 691.515 502.748 691.932Z" fill="#5A59A2"/>
<path d="M505.471 691.284C505.57 691.702 505.317 692.118 504.891 692.222C504.473 692.321 504.052 692.06 503.953 691.642C503.854 691.225 504.115 690.804 504.533 690.705C504.95 690.605 505.372 690.866 505.471 691.284Z" fill="#5A59A2"/>
<path d="M508.201 690.631C508.3 691.049 508.047 691.465 507.622 691.569C507.204 691.668 506.783 691.407 506.684 690.989C506.585 690.572 506.846 690.151 507.263 690.051C507.681 689.952 508.102 690.213 508.197 690.623L508.201 690.631Z" fill="#5A59A2"/>
<path d="M510.924 689.982C511.023 690.4 510.77 690.817 510.352 690.916C509.934 691.015 509.513 690.754 509.414 690.336C509.315 689.919 509.576 689.497 509.994 689.398C510.411 689.299 510.832 689.56 510.932 689.978L510.924 689.982Z" fill="#5A59A2"/>
<path d="M513.793 689.301C513.892 689.718 513.632 690.139 513.214 690.238C512.796 690.338 512.375 690.077 512.276 689.659C512.177 689.241 512.438 688.82 512.856 688.721C513.273 688.622 513.694 688.883 513.793 689.301Z" fill="#5A59A2"/>
<path d="M487.225 698.76C487.356 699.304 487.023 699.85 486.479 699.981C485.936 700.112 485.39 699.779 485.259 699.236C485.127 698.692 485.46 698.146 486.004 698.015C486.548 697.884 487.093 698.216 487.225 698.76Z" fill="#5A59A2"/>
<path d="M490.763 697.915C490.894 698.458 490.561 699.004 490.017 699.135C489.474 699.267 488.928 698.934 488.797 698.39C488.666 697.846 488.998 697.301 489.542 697.169C490.086 697.038 490.636 697.379 490.763 697.915Z" fill="#5A59A2"/>
<path d="M494.309 697.065C494.44 697.608 494.107 698.154 493.563 698.285C493.02 698.416 492.474 698.084 492.343 697.54C492.211 696.996 492.544 696.451 493.088 696.319C493.632 696.188 494.177 696.521 494.309 697.065Z" fill="#5A59A2"/>
<path d="M497.859 696.223C497.991 696.766 497.658 697.312 497.114 697.443C496.57 697.574 496.025 697.242 495.894 696.698C495.762 696.154 496.095 695.609 496.639 695.477C497.182 695.346 497.733 695.687 497.859 696.223Z" fill="#5A59A2"/>
<path d="M501.397 695.377C501.529 695.921 501.196 696.467 500.652 696.598C500.108 696.729 499.563 696.396 499.427 695.845C499.296 695.301 499.629 694.756 500.172 694.624C500.716 694.493 501.266 694.834 501.385 695.374L501.397 695.377Z" fill="#5A59A2"/>
<path d="M504.948 694.535C505.079 695.079 504.746 695.624 504.202 695.756C503.659 695.887 503.113 695.554 502.982 695.01C502.85 694.467 503.183 693.921 503.731 693.797C504.275 693.666 504.821 693.999 504.944 694.547L504.948 694.535Z" fill="#5A59A2"/>
<path d="M508.495 693.685C508.626 694.229 508.285 694.779 507.749 694.906C507.206 695.037 506.66 694.704 506.529 694.16C506.398 693.617 506.73 693.071 507.274 692.94C507.818 692.808 508.363 693.141 508.495 693.685Z" fill="#5A59A2"/>
<path d="M512.033 692.84C512.164 693.383 511.824 693.934 511.288 694.06C510.744 694.192 510.199 693.859 510.067 693.315C509.936 692.771 510.277 692.221 510.813 692.094C511.356 691.963 511.902 692.296 512.033 692.84Z" fill="#5A59A2"/>
<path d="M515.584 691.998C515.715 692.541 515.375 693.091 514.839 693.218C514.295 693.349 513.749 693.017 513.614 692.465C513.482 691.922 513.815 691.376 514.363 691.252C514.907 691.121 515.453 691.454 515.584 691.998Z" fill="#5A59A2"/>
<path d="M487.81 701.747C487.909 702.165 487.648 702.586 487.23 702.685C486.813 702.784 486.392 702.523 486.293 702.106C486.194 701.688 486.454 701.267 486.872 701.168C487.29 701.069 487.706 701.322 487.81 701.747Z" fill="#5A59A2"/>
<path d="M490.54 701.094C490.64 701.512 490.379 701.933 489.961 702.032C489.543 702.131 489.122 701.87 489.023 701.452C488.924 701.035 489.185 700.614 489.603 700.515C490.02 700.416 490.441 700.676 490.54 701.094Z" fill="#5A59A2"/>
<path d="M493.259 700.438C493.358 700.856 493.097 701.277 492.68 701.376C492.262 701.475 491.841 701.214 491.742 700.797C491.643 700.379 491.904 699.958 492.321 699.859C492.739 699.76 493.16 700.021 493.259 700.438Z" fill="#5A59A2"/>
<path d="M495.982 699.79C496.081 700.208 495.82 700.629 495.402 700.728C494.985 700.827 494.564 700.566 494.465 700.148C494.365 699.731 494.626 699.309 495.044 699.21C495.462 699.111 495.883 699.372 495.982 699.79Z" fill="#5A59A2"/>
<path d="M498.717 699.144C498.816 699.562 498.555 699.983 498.138 700.082C497.72 700.181 497.299 699.92 497.2 699.503C497.101 699.085 497.362 698.664 497.779 698.565C498.197 698.466 498.618 698.727 498.717 699.144Z" fill="#5A59A2"/>
<path d="M501.435 698.488C501.535 698.906 501.274 699.327 500.856 699.426C500.438 699.525 500.017 699.264 499.918 698.847C499.819 698.429 500.08 698.008 500.498 697.909C500.915 697.81 501.336 698.071 501.435 698.488Z" fill="#5A59A2"/>
<path d="M504.159 697.84C504.258 698.257 503.997 698.678 503.579 698.778C503.161 698.877 502.74 698.616 502.641 698.198C502.542 697.78 502.803 697.359 503.221 697.26C503.638 697.161 504.06 697.422 504.159 697.84Z" fill="#5A59A2"/>
<path d="M506.881 697.191C506.98 697.609 506.719 698.03 506.301 698.129C505.884 698.228 505.463 697.967 505.363 697.549C505.264 697.132 505.525 696.711 505.943 696.612C506.361 696.512 506.782 696.773 506.881 697.191Z" fill="#5A59A2"/>
<path d="M509.604 696.543C509.703 696.96 509.442 697.381 509.024 697.48C508.607 697.579 508.19 697.326 508.087 696.901C507.988 696.483 508.248 696.062 508.666 695.963C509.084 695.864 509.505 696.125 509.604 696.543Z" fill="#5A59A2"/>
<path d="M512.334 695.889C512.433 696.307 512.173 696.728 511.755 696.827C511.337 696.926 510.916 696.666 510.817 696.248C510.718 695.83 510.979 695.409 511.397 695.31C511.814 695.211 512.235 695.472 512.334 695.889Z" fill="#5A59A2"/>
<path d="M515.204 695.208C515.303 695.625 515.042 696.046 514.624 696.145C514.206 696.245 513.785 695.984 513.686 695.566C513.587 695.148 513.848 694.727 514.266 694.628C514.683 694.529 515.104 694.79 515.204 695.208Z" fill="#5A59A2"/>
<path d="M488.627 704.671C488.759 705.215 488.426 705.761 487.882 705.892C487.339 706.023 486.793 705.691 486.662 705.147C486.53 704.603 486.863 704.058 487.407 703.926C487.95 703.795 488.496 704.128 488.627 704.671Z" fill="#5A59A2"/>
<path d="M492.174 703.822C492.305 704.365 491.972 704.911 491.429 705.042C490.885 705.174 490.335 704.833 490.208 704.297C490.077 703.753 490.409 703.208 490.953 703.076C491.497 702.945 492.043 703.278 492.174 703.822Z" fill="#5A59A2"/>
<path d="M495.724 702.979C495.855 703.523 495.515 704.073 494.979 704.2C494.435 704.331 493.889 703.998 493.758 703.455C493.627 702.911 493.96 702.365 494.503 702.234C495.047 702.103 495.593 702.436 495.724 702.979Z" fill="#5A59A2"/>
<path d="M499.262 702.134C499.393 702.678 499.053 703.228 498.517 703.355C497.973 703.486 497.428 703.153 497.296 702.609C497.165 702.066 497.498 701.52 498.042 701.389C498.585 701.257 499.131 701.59 499.267 702.142L499.262 702.134Z" fill="#5A59A2"/>
<path d="M502.809 701.284C502.94 701.828 502.599 702.378 502.063 702.505C501.52 702.636 500.974 702.303 500.843 701.76C500.711 701.216 501.044 700.67 501.588 700.539C502.132 700.408 502.682 700.748 502.809 701.284Z" fill="#5A59A2"/>
<path d="M506.359 700.442C506.491 700.986 506.158 701.532 505.614 701.663C505.07 701.794 504.525 701.461 504.394 700.918C504.262 700.374 504.595 699.828 505.139 699.697C505.682 699.566 506.228 699.899 506.359 700.442Z" fill="#5A59A2"/>
<path d="M509.898 699.597C510.029 700.14 509.689 700.69 509.153 700.817C508.609 700.948 508.063 700.616 507.932 700.072C507.801 699.528 508.134 698.983 508.677 698.851C509.221 698.72 509.767 699.053 509.898 699.597Z" fill="#5A59A2"/>
<path d="M513.444 698.747C513.576 699.291 513.235 699.841 512.699 699.967C512.156 700.099 511.605 699.758 511.474 699.215C511.343 698.671 511.676 698.125 512.219 697.994C512.763 697.863 513.313 698.203 513.44 698.739L513.444 698.747Z" fill="#5A59A2"/>
<path d="M486.498 708.302C486.597 708.72 486.336 709.141 485.918 709.24C485.501 709.339 485.084 709.086 484.981 708.661C484.882 708.243 485.142 707.822 485.56 707.723C485.978 707.624 486.394 707.877 486.498 708.302Z" fill="#5A59A2"/>
<path d="M489.222 707.654C489.321 708.072 489.06 708.493 488.642 708.592C488.224 708.691 487.803 708.43 487.704 708.012C487.605 707.595 487.866 707.173 488.284 707.074C488.701 706.975 489.123 707.236 489.222 707.654Z" fill="#5A59A2"/>
<path d="M491.944 707.005C492.043 707.423 491.782 707.844 491.364 707.943C490.947 708.042 490.526 707.782 490.426 707.364C490.327 706.946 490.588 706.525 491.006 706.426C491.424 706.327 491.84 706.58 491.944 707.005Z" fill="#5A59A2"/>
<path d="M494.674 706.352C494.773 706.77 494.512 707.191 494.095 707.29C493.677 707.389 493.256 707.128 493.157 706.711C493.058 706.293 493.311 705.876 493.736 705.773C494.154 705.674 494.575 705.935 494.674 706.352Z" fill="#5A59A2"/>
<path d="M497.392 705.696C497.491 706.114 497.231 706.535 496.813 706.634C496.395 706.733 495.979 706.48 495.88 706.062C495.78 705.644 496.041 705.223 496.459 705.124C496.877 705.025 497.298 705.286 497.397 705.704L497.392 705.696Z" fill="#5A59A2"/>
<path d="M500.116 705.047C500.215 705.465 499.954 705.886 499.536 705.985C499.118 706.084 498.697 705.824 498.598 705.406C498.499 704.988 498.76 704.567 499.178 704.468C499.596 704.369 500.017 704.63 500.116 705.047Z" fill="#5A59A2"/>
<path d="M502.838 704.399C502.937 704.817 502.677 705.238 502.259 705.337C501.841 705.436 501.42 705.175 501.321 704.757C501.222 704.34 501.475 703.923 501.9 703.82C502.318 703.72 502.739 703.981 502.838 704.399Z" fill="#5A59A2"/>
<path d="M505.574 703.754C505.673 704.171 505.412 704.592 504.995 704.692C504.577 704.791 504.156 704.53 504.057 704.112C503.958 703.694 504.219 703.273 504.636 703.174C505.054 703.075 505.475 703.336 505.574 703.754Z" fill="#5A59A2"/>
<path d="M508.292 703.097C508.391 703.515 508.138 703.932 507.713 704.035C507.295 704.134 506.874 703.874 506.775 703.456C506.676 703.038 506.937 702.617 507.355 702.518C507.772 702.419 508.193 702.68 508.292 703.097Z" fill="#5A59A2"/>
<path d="M511.016 702.449C511.115 702.867 510.854 703.288 510.436 703.387C510.018 703.486 509.597 703.225 509.498 702.807C509.399 702.39 509.66 701.969 510.078 701.87C510.495 701.771 510.916 702.031 511.016 702.449Z" fill="#5A59A2"/>
<path d="M513.738 701.801C513.837 702.218 513.576 702.639 513.159 702.738C512.741 702.838 512.32 702.577 512.221 702.159C512.122 701.741 512.383 701.32 512.8 701.221C513.218 701.122 513.635 701.375 513.738 701.801Z" fill="#5A59A2"/>
<path d="M490.038 710.578C490.169 711.122 489.837 711.668 489.293 711.799C488.749 711.93 488.199 711.59 488.068 711.046C487.937 710.502 488.269 709.957 488.813 709.825C489.357 709.694 489.902 710.027 490.034 710.571L490.038 710.578Z" fill="#5A59A2"/>
<path d="M493.585 709.729C493.716 710.272 493.375 710.822 492.839 710.949C492.296 711.08 491.745 710.74 491.614 710.196C491.483 709.653 491.816 709.107 492.359 708.976C492.903 708.844 493.449 709.177 493.58 709.721L493.585 709.729Z" fill="#5A59A2"/>
<path d="M497.127 708.891C497.259 709.434 496.926 709.98 496.382 710.111C495.839 710.243 495.288 709.902 495.162 709.366C495.03 708.822 495.363 708.277 495.907 708.146C496.45 708.014 496.996 708.347 497.127 708.891Z" fill="#5A59A2"/>
<path d="M500.674 708.041C500.805 708.585 500.472 709.13 499.929 709.262C499.385 709.393 498.835 709.052 498.716 708.512C498.597 707.971 498.917 707.422 499.461 707.291C500.005 707.16 500.55 707.493 500.674 708.041Z" fill="#5A59A2"/>
<path d="M504.22 707.191C504.351 707.735 504.018 708.28 503.475 708.412C502.931 708.543 502.385 708.21 502.254 707.666C502.123 707.123 502.455 706.577 502.999 706.446C503.543 706.315 504.088 706.647 504.22 707.191Z" fill="#5A59A2"/>
<path d="M507.763 706.354C507.894 706.897 507.561 707.443 507.017 707.574C506.474 707.706 505.924 707.365 505.797 706.829C505.666 706.285 505.998 705.74 506.542 705.608C507.086 705.477 507.636 705.818 507.763 706.354Z" fill="#5A59A2"/>
<path d="M511.309 705.503C511.44 706.047 511.1 706.597 510.564 706.724C510.02 706.855 509.47 706.515 509.339 705.971C509.208 705.427 509.54 704.882 510.084 704.75C510.628 704.619 511.178 704.959 511.305 705.495L511.309 705.503Z" fill="#5A59A2"/>
<path d="M514.855 704.653C514.987 705.197 514.654 705.743 514.11 705.874C513.567 706.005 513.021 705.673 512.89 705.129C512.758 704.585 513.091 704.039 513.639 703.916C514.183 703.785 514.729 704.117 514.86 704.661L514.855 704.653Z" fill="#5A59A2"/>
<path d="M504.254 710.314C504.353 710.731 504.092 711.152 503.674 711.251C503.257 711.35 502.84 711.097 502.737 710.672C502.637 710.254 502.898 709.833 503.316 709.734C503.734 709.635 504.155 709.896 504.254 710.314Z" fill="#5A59A2"/>
<path d="M506.977 709.665C507.077 710.083 506.823 710.499 506.398 710.603C505.98 710.702 505.559 710.441 505.46 710.023C505.361 709.606 505.622 709.184 506.04 709.085C506.457 708.986 506.878 709.247 506.977 709.665Z" fill="#5A59A2"/>
<path d="M509.708 709.012C509.807 709.43 509.547 709.851 509.129 709.95C508.711 710.049 508.29 709.788 508.195 709.378C508.096 708.96 508.357 708.539 508.775 708.44C509.193 708.341 509.614 708.602 509.713 709.02L509.708 709.012Z" fill="#5A59A2"/>
<path d="M512.427 708.356C512.526 708.774 512.265 709.195 511.848 709.294C511.43 709.393 511.009 709.132 510.91 708.714C510.811 708.296 511.072 707.875 511.489 707.776C511.907 707.677 512.328 707.938 512.427 708.356Z" fill="#5A59A2"/>
<path d="M515.15 707.707C515.249 708.125 514.988 708.546 514.57 708.645C514.153 708.744 513.732 708.483 513.632 708.066C513.533 707.648 513.787 707.231 514.212 707.128C514.63 707.029 515.051 707.29 515.15 707.707Z" fill="#5A59A2"/>
</g>
</g>
<g clip-path="url(#clip3_132_333077)">
<path d="M380.192 691.825L393.274 676.715L377.008 675.851L380.192 691.825Z" fill="#D3B24C"/>
</g>
<g clip-path="url(#clip4_132_333077)">
<path d="M313.132 338.109L296.429 349.084L311.844 354.347L313.132 338.109Z" fill="#D3B24C"/>
</g>
<g clip-path="url(#clip5_132_333077)">
<path d="M535.453 1030.97L518.75 1041.94L534.165 1047.2L535.453 1030.97Z" fill="#D3B24C"/>
</g>
<g clip-path="url(#clip6_132_333077)">
<path d="M324.393 143.033C325.07 139.704 322.919 136.454 319.591 135.777C318.38 135.533 317.191 135.658 316.121 136.076C316.358 135.608 316.532 135.107 316.635 134.565C317.307 131.244 315.157 127.994 311.828 127.316C308.5 126.639 305.25 128.79 304.572 132.118C304.462 132.654 304.428 133.191 304.462 133.71C303.645 132.903 302.59 132.321 301.38 132.078C298.058 131.406 294.808 133.556 294.131 136.885C293.454 140.213 295.468 143.255 298.614 144.065C297.028 144.894 295.823 146.402 295.434 148.289C294.757 151.618 296.907 154.868 300.236 155.545C302.797 156.066 305.313 154.906 306.643 152.827C307.06 155.26 308.918 157.31 311.479 157.832C314.808 158.509 318.058 156.359 318.735 153.03C319.117 151.138 318.595 149.278 317.454 147.898C320.666 148.37 323.724 146.258 324.38 143.035L324.393 143.033Z" fill="#D3B24C"/>
<path d="M310.18 135.423C309.671 135.321 309.157 135.776 309.027 136.43C308.775 137.668 309.341 139.955 309.54 139.999C309.74 140.043 310.601 138.034 310.847 136.804C310.982 136.142 310.677 135.527 310.18 135.423Z" fill="#0E367B"/>
<path d="M302.036 139.135C301.782 139.58 302.052 140.214 302.638 140.546C303.731 141.167 306.498 141.892 306.603 141.714C306.708 141.537 304.655 139.545 303.555 138.919C302.969 138.586 302.287 138.678 302.036 139.135Z" fill="#0E367B"/>
<path d="M303.05 148.034C303.394 148.413 304.082 148.358 304.577 147.9C305.506 147.05 307.05 144.642 306.917 144.491C306.776 144.335 304.244 145.67 303.322 146.525C302.827 146.983 302.707 147.655 303.05 148.034Z" fill="#0E367B"/>
<path d="M311.824 149.81C312.295 149.599 312.447 148.928 312.167 148.308C311.647 147.165 309.832 144.948 309.648 145.036C309.464 145.123 309.945 147.943 310.464 149.086C310.743 149.693 311.353 150.022 311.817 149.805L311.824 149.81Z" fill="#0E367B"/>
<path d="M316.231 142.027C316.173 141.512 315.585 141.166 314.919 141.237C314.899 141.234 310.846 141.059 311.025 142.616C311.052 142.823 313.882 143.23 315.131 143.083C315.803 143.005 316.295 142.534 316.237 142.019L316.231 142.027Z" fill="#0E367B"/>
</g>
<g clip-path="url(#clip7_132_333077)">
<path d="M392.65 250.026C390.602 248.559 387.927 248.706 385.465 250.138C383.789 247.628 381.445 246.161 379.033 246.472C376.621 246.782 374.7 248.784 373.684 251.639C370.95 250.871 368.327 251.389 366.694 253.329C363.926 256.616 365.052 262.731 369.216 266.975C373.379 271.228 378.999 272.004 381.766 268.718C385.245 271.211 390.5 269.046 393.505 263.879C396.509 258.712 396.128 252.51 392.65 250.017V250.026Z" fill="#D3B24C"/>
<path d="M377.687 273.755C376.342 273.927 374.877 273.781 373.456 273.349C371.501 272.746 369.816 271.659 368.725 270.27C367.667 268.933 367.294 267.484 367.675 266.19C368.166 264.543 369.833 263.378 372.144 263.085C373.489 262.912 374.954 263.059 376.375 263.49C378.33 264.094 380.015 265.181 381.106 266.57C382.164 267.907 382.537 269.356 382.156 270.65C381.665 272.297 379.998 273.462 377.687 273.755Z" fill="#0E367B"/>
<path d="M386.937 272.582C384.627 272.875 382.731 272.168 381.859 270.693C381.174 269.537 381.191 268.045 381.893 266.475C382.621 264.862 383.983 263.378 385.735 262.309C387.013 261.524 388.393 261.023 389.738 260.851C392.049 260.558 393.945 261.265 394.816 262.74C395.502 263.896 395.485 265.388 394.782 266.958C394.055 268.571 392.692 270.055 390.94 271.124C389.662 271.909 388.283 272.409 386.937 272.582Z" fill="#0E367B"/>
<path d="M375.588 261.584C374.124 260.739 373.362 259.307 373.362 259.307C373.362 259.307 374.962 259.238 376.426 260.074C377.89 260.92 378.652 262.352 378.652 262.352C378.652 262.352 377.052 262.421 375.588 261.584ZM380.768 260.532C380.768 260.532 379.752 259.264 379.549 257.564C379.346 255.865 380.014 254.381 380.014 254.381C380.014 254.381 381.03 255.649 381.233 257.349C381.436 259.048 380.768 260.532 380.768 260.532ZM386.04 260.247C384.83 261.429 383.256 261.765 383.256 261.765C383.256 261.765 383.653 260.178 384.864 258.996C386.074 257.814 387.648 257.478 387.648 257.478C387.648 257.478 387.25 259.065 386.04 260.247Z" fill="#FE5226"/>
</g>
<g clip-path="url(#clip8_132_333077)">
<path d="M506.676 513.095C502.975 511.979 499.142 513.487 496.217 516.734C492.571 513.931 488.439 512.967 485.057 514.575C481.675 516.183 479.815 519.99 479.677 524.586C475.3 524.804 471.71 526.826 470.238 530.401C467.746 536.464 472.291 544.689 480.399 548.785C488.507 552.882 497.103 551.284 499.603 545.229C505.875 547.126 512.55 541.472 514.499 532.603C516.448 523.734 512.94 515 506.668 513.103L506.676 513.095Z" fill="#073786"/>
<path d="M496.021 554.429C494.133 555.322 491.926 555.831 489.638 555.888C486.485 555.967 483.505 555.215 481.249 553.758C479.061 552.343 477.831 550.447 477.778 548.411C477.712 545.8 479.603 543.329 482.849 541.786C484.736 540.893 486.944 540.384 489.232 540.327C492.385 540.248 495.365 541.001 497.621 542.458C499.808 543.872 501.038 545.768 501.092 547.804C501.157 550.415 499.266 552.886 496.021 554.429Z" fill="#B59732"/>
<path d="M509.002 548.271C505.765 549.807 502.644 549.707 500.666 548.012C499.127 546.683 498.427 544.53 498.714 541.944C499.012 539.272 500.306 536.49 502.358 534.097C503.853 532.361 505.639 530.961 507.527 530.068C510.764 528.532 513.885 528.632 515.863 530.327C517.402 531.656 518.102 533.809 517.815 536.395C517.517 539.067 516.224 541.849 514.171 544.242C512.676 545.978 510.89 547.378 509.002 548.271Z" fill="#B59732"/>
<path d="M487.168 537.96C484.624 537.455 482.826 535.761 482.826 535.761C482.826 535.761 485.137 534.888 487.681 535.392C490.226 535.897 492.023 537.592 492.023 537.592C492.023 537.592 489.712 538.465 487.168 537.96ZM494.244 533.95C494.244 533.95 492.163 532.619 491.048 530.273C489.933 527.928 490.222 525.475 490.222 525.475C490.222 525.475 492.303 526.806 493.418 529.152C494.532 531.498 494.244 533.95 494.244 533.95ZM501.828 530.993C500.613 533.284 498.466 534.518 498.466 534.518C498.466 534.518 498.292 532.052 499.507 529.761C500.722 527.47 502.869 526.236 502.869 526.236C502.869 526.236 503.044 528.702 501.828 530.993Z" fill="#FE5226"/>
</g>
<g clip-path="url(#clip9_132_333077)">
<path d="M317.25 770.769L317.408 771.779L317.968 770.924C318.604 769.95 319.514 769.148 320.662 768.633C323.74 767.263 327.341 768.554 328.839 771.508L328.834 771.513L328.947 771.762C330.319 774.788 329.048 778.321 326.108 779.827L325.189 780.298L326.188 780.558C327.954 781.018 329.491 782.235 330.301 784.011C331.719 787.135 330.312 790.812 327.152 792.219C324.722 793.302 321.962 792.716 320.167 790.965L319.445 790.26L319.5 791.268C319.636 793.755 318.245 796.188 315.815 797.27L315.815 797.27C312.653 798.678 308.939 797.278 307.52 794.151C306.72 792.375 306.82 790.43 307.638 788.818L308.102 787.904L307.146 788.273C304.054 789.466 300.582 788.156 299.162 785.027C297.744 781.902 299.152 778.225 302.302 776.818L302.302 776.817C303.45 776.303 304.669 776.159 305.824 776.339L306.852 776.5L306.188 775.699C305.852 775.295 305.561 774.836 305.334 774.332L305.334 774.331C303.916 771.207 305.323 767.529 308.483 766.122C311.644 764.714 315.359 766.115 316.778 769.232L316.778 769.232L316.779 769.236C317.015 769.739 317.169 770.25 317.25 770.769Z" fill="#0E367B" stroke="#0E367B" stroke-width="0.786565"/>
<path d="M311.999 773.862C311.487 774.092 311.322 774.81 311.622 775.462C312.183 776.698 314.128 778.337 314.331 778.251C314.534 778.165 314.021 775.874 313.46 774.647C313.16 773.986 312.502 773.641 311.999 773.862Z" fill="#DDBB3E"/>
<path d="M307.181 782.2C307.24 782.746 307.878 783.129 308.604 783.052C309.958 782.909 312.85 781.807 312.831 781.586C312.812 781.366 309.745 780.915 308.381 781.059C307.656 781.136 307.114 781.644 307.181 782.2Z" fill="#DDBB3E"/>
<path d="M313.702 789.32C314.243 789.435 314.814 788.956 314.959 788.247C315.24 786.924 315.075 783.858 314.862 783.81C314.64 783.762 313.257 786.512 312.986 787.835C312.841 788.544 313.16 789.205 313.702 789.32Z" fill="#DDBB3E"/>
<path d="M322.544 785.372C322.824 784.893 322.534 784.212 321.896 783.848C320.715 783.177 317.717 782.382 317.61 782.573C317.504 782.765 319.709 784.922 320.89 785.592C321.518 785.947 322.263 785.851 322.534 785.372H322.544Z" fill="#DDBB3E"/>
<path d="M321.499 775.826C321.122 775.414 320.387 775.481 319.845 775.961C319.826 775.97 316.15 778.356 317.291 779.602C317.446 779.765 320.193 778.347 321.199 777.436C321.741 776.948 321.876 776.229 321.499 775.817V775.826Z" fill="#DDBB3E"/>
</g>
<defs>
<clipPath id="clip0_132_333077">
<rect width="15.2054" height="18.3036" fill="white" transform="translate(486.607 172.322)"/>
</clipPath>
<clipPath id="clip1_132_333077">
<rect width="15.2054" height="18.3036" fill="white" transform="translate(351.848 538.134) rotate(-118.283)"/>
</clipPath>
<clipPath id="clip2_132_333077">
<rect width="52.5714" height="53.5536" fill="white" transform="translate(510.537 660.714) rotate(59.7292)"/>
</clipPath>
<clipPath id="clip3_132_333077">
<rect width="19.8929" height="13.7679" fill="white" transform="translate(370.536 684.976) rotate(-54.6516)"/>
</clipPath>
<clipPath id="clip4_132_333077">
<rect width="19.8929" height="13.7679" fill="white" transform="translate(320.558 347.331) rotate(141.157)"/>
</clipPath>
<clipPath id="clip5_132_333077">
<rect width="19.8929" height="13.7679" fill="white" transform="translate(542.879 1040.19) rotate(141.157)"/>
</clipPath>
<clipPath id="clip6_132_333077">
<rect width="30.4911" height="30.7768" fill="white" transform="translate(304.57 121.428) rotate(35.7073)"/>
</clipPath>
<clipPath id="clip7_132_333077">
<rect width="30.3571" height="27.3955" fill="white" transform="translate(365.179 246.428)"/>
</clipPath>
<clipPath id="clip8_132_333077">
<rect width="47.816" height="42.0026" fill="white" transform="translate(463 534.183) rotate(-42.3043)"/>
</clipPath>
<clipPath id="clip9_132_333077">
<rect width="33.0357" height="33.0357" fill="white" transform="translate(298.214 765.179)"/>
</clipPath>
</defs>
</svg>
