<svg width="2600" height="1179" fill="none" xmlns="http://www.w3.org/2000/svg"><path d="M2493.94 173.928c-58.56-38.638-146.34-40.308-182.2-9.076-14.38 12.536-29.31 34.62-12.43 72.846 2.43 5.455 6.72 14.543 9.62 19.991 7.7 14.33 18.16 28.006 14.65 44.565-3.73 17.489-30.53 24.534-53.62 30.997-7.76 2.168-18.63 4.231-23.5 11.614-4.86 7.383 3.14 17.188 7.61 22.198l.54.577c8.62 9.669 19.42 17.004 29.35 24.621 13.87 10.608 26.75 21.802 37.07 37.972 16.23 25.318 12.86 42.124 7.1 53.42-9.91 19.45-31.79 31.266-62.39 33.432-2.63.207-2.85-3.971-.63-3.993 28.78-.051 51.39-13.001 60.49-30.835 7.43-14.494 5.07-31.945-6.71-50.349-9.85-15.341-23.13-25.568-37.26-36.349-10.15-7.755-19.59-14.829-28.52-24.849l-1.59-1.555c-5.3-5.244-12.19-15.852-8.84-23.831 3.77-9.001 17.57-13.145 25.89-15.482 19.18-5.326 48.79-14.521 51.73-28.401 3.16-14.809-7.08-28.952-14.47-42.7-2.95-5.482-5.99-11.176-8.52-16.843-14.14-32.047-9.72-60.367 12.43-79.627 17.6-15.334 45.8-23.846 77.32-23.43 32.73.429 76.01 11.312 103.49 28.635" fill="#DDBB3E"/><g clip-path="url(#a)"><path d="M2338.24 180.161a6.809 6.809 0 0 1 5.74-7.759c3.73-.563 7.19 2.009 7.75 5.741.56 3.732-2.01 7.205-5.73 7.759a6.824 6.824 0 0 1-7.77-5.741h.01Z" fill="#D3B24C"/><path opacity=".9" d="M2336.66 186.259a5.12 5.12 0 0 1 4.3-5.821c2.79-.411 5.4 1.509 5.82 4.303a5.122 5.122 0 0 1-4.3 5.822 5.122 5.122 0 0 1-5.82-4.304Z" fill="#F8EDBE"/></g><g clip-path="url(#b)"><path d="M2207.98 532.981a6.815 6.815 0 0 1-9.56-1.38c-2.26-3.012-1.63-7.281 1.39-9.545a6.818 6.818 0 0 1 9.55 1.372 6.83 6.83 0 0 1-1.38 9.561v-.008Z" fill="#D3B24C"/><path opacity=".9" d="M2214.1 531.483a5.124 5.124 0 0 1-7.17-1.031 5.119 5.119 0 0 1 1.04-7.158 5.12 5.12 0 0 1 7.16 1.023 5.126 5.126 0 0 1-1.03 7.166Z" fill="#F8EDBE"/></g><g clip-path="url(#c)"><path d="M2346.13 690.749c-2.94 4.592-9.05 5.924-13.64 2.98-4.59-2.943-5.93-9.059-2.99-13.651 2.95-4.592 9.06-5.929 13.66-2.985 4.59 2.944 5.92 9.052 2.98 13.644l-.01.012Z" fill="#5A59A2"/><mask id="d" style="mask-type:luminance" maskUnits="userSpaceOnUse" x="2335" y="682" width="29" height="28"><path d="M2363 692.709c1.76 7.389-2.8 14.815-10.18 16.574-7.39 1.759-14.81-2.803-16.58-10.187-1.76-7.388 2.8-14.806 10.19-16.573 7.39-1.759 14.81 2.798 16.57 10.186Z" fill="#fff"/></mask><g mask="url(#d)" fill="#5A59A2"><path d="M2336.3 683.367c.1.418-.16.839-.57.933a.783.783 0 0 1-.94-.579.787.787 0 0 1 .58-.938c.42-.099.84.162.94.579l-.01.005ZM2339.03 682.714c.1.417-.16.838-.57.938a.779.779 0 1 1-.36-1.518c.41-.099.84.162.93.58ZM2341.76 682.065c.1.418-.17.839-.58.938a.779.779 0 1 1-.36-1.517c.42-.099.84.162.94.579ZM2344.48 681.417a.781.781 0 0 1-1.52.358.779.779 0 0 1 .58-.938c.42-.099.84.162.94.58ZM2337.95 686.098c.13.543-.2 1.089-.75 1.22a1.01 1.01 0 1 1-.47-1.966c.54-.131 1.09.202 1.22.746ZM2341.5 685.247c.13.544-.21 1.094-.75 1.221a1.01 1.01 0 0 1-.48-1.966c.55-.131 1.1.209 1.23.745ZM2345.04 684.41a1.014 1.014 0 0 1-1.97.475c-.13-.543.2-1.089.75-1.22a1.01 1.01 0 0 1 1.22.745ZM2348.58 683.56c.13.544-.2 1.089-.74 1.221-.55.131-1.1-.21-1.23-.753-.13-.544.2-1.09.75-1.221.54-.131 1.09.202 1.22.745v.008ZM2352.12 682.715a1.01 1.01 0 0 1-.74 1.22 1.005 1.005 0 0 1-1.22-.745c-.13-.544.2-1.089.74-1.221.55-.131 1.09.202 1.22.75v-.004ZM2355.67 681.872c.13.544-.21 1.094-.74 1.221a1.006 1.006 0 0 1-1.22-.745c-.13-.544.2-1.09.74-1.221.55-.131 1.09.202 1.22.745ZM2359.22 681.023c.13.543-.21 1.093-.75 1.22a1.01 1.01 0 1 1-.47-1.966c.54-.131 1.09.21 1.22.746ZM2337.71 689.273c.1.418-.15.835-.57.934a.783.783 0 0 1-.94-.58.795.795 0 0 1 .58-.938c.42-.099.84.162.94.58l-.01.004ZM2340.45 688.62a.795.795 0 0 1-.58.938.779.779 0 1 1-.36-1.517c.42-.099.83.154.94.579ZM2343.17 687.972a.78.78 0 0 1-.58.938.777.777 0 0 1-.94-.58.781.781 0 0 1 1.52-.358ZM2345.89 687.323c.1.418-.16.839-.58.938a.783.783 0 0 1-.94-.579.787.787 0 0 1 .58-.938c.42-.099.84.162.94.579ZM2348.61 686.675c.1.418-.16.839-.58.938a.777.777 0 0 1-.93-.58.774.774 0 0 1 .58-.938c.41-.099.83.162.93.58ZM2351.34 686.022a.78.78 0 0 1-.57.938.779.779 0 1 1-.36-1.518c.41-.099.83.154.93.572v.008ZM2354.07 685.373a.78.78 0 0 1-1.52.359.782.782 0 0 1 1.52-.359ZM2356.79 684.725a.78.78 0 1 1-1.518.358.78.78 0 0 1 1.518-.358ZM2359.51 684.076c.1.418-.16.839-.58.938a.777.777 0 0 1-.35-1.517c.41-.099.83.154.93.579ZM2362.38 683.395c.1.417-.16.838-.58.937a.782.782 0 0 1-.94-.579.787.787 0 0 1 .58-.933c.41-.1.84.161.93.579l.01-.004ZM2365.11 682.741c.1.418-.16.839-.58.938a.773.773 0 0 1-.93-.579.775.775 0 0 1 .57-.938c.42-.099.84.162.94.579ZM2335.81 692.854a1.006 1.006 0 1 1-1.96.463 1.01 1.01 0 0 1 .75-1.221c.54-.131 1.08.202 1.22.746l-.01.012ZM2339.36 692.004c.13.544-.2 1.09-.75 1.221a1.01 1.01 0 1 1-.47-1.966c.54-.131 1.09.202 1.22.745ZM2342.9 691.158c.13.544-.2 1.09-.75 1.221a1.011 1.011 0 1 1-.47-1.966c.54-.131 1.09.202 1.22.745ZM2346.45 690.316c.13.544-.2 1.09-.75 1.221a1.011 1.011 0 1 1-.47-1.966c.54-.131 1.09.202 1.22.745ZM2349.99 689.471c.13.543-.21 1.089-.75 1.22a1.016 1.016 0 0 1-1.22-.745c-.13-.543.2-1.089.75-1.22a1.01 1.01 0 0 1 1.22.745ZM2353.53 688.621a1.01 1.01 0 0 1-.74 1.22c-.55.132-1.1-.209-1.22-.745-.13-.544.2-1.089.74-1.221.55-.131 1.09.202 1.22.746ZM2357.08 687.779c.14.544-.21 1.094-.74 1.221-.54.131-1.1-.21-1.23-.753-.13-.544.21-1.09.75-1.221s1.09.202 1.22.745v.008ZM2360.63 686.929c.13.544-.21 1.094-.74 1.221a1.022 1.022 0 0 1-1.23-.745c-.13-.544.21-1.09.75-1.221a1.01 1.01 0 0 1 1.22.745ZM2364.17 686.091a1.007 1.007 0 1 1-1.96.476c-.13-.544.2-1.09.74-1.221.55-.131 1.09.201 1.22.745ZM2336.4 695.828a.774.774 0 1 1-1.51.354.779.779 0 0 1 .58-.938c.42-.099.84.162.94.58l-.01.004ZM2339.13 695.18a.788.788 0 0 1-.58.933.772.772 0 0 1-.93-.572.78.78 0 1 1 1.52-.358l-.01-.003ZM2341.85 694.531c.1.418-.16.839-.58.938a.778.778 0 1 1-.36-1.517c.42-.099.84.154.94.579ZM2344.57 693.883a.781.781 0 0 1-1.52.358.795.795 0 0 1 .58-.938c.42-.099.84.162.94.58ZM2347.3 693.23c.1.418-.16.839-.58.938a.773.773 0 0 1-.93-.58.78.78 0 0 1 .57-.938c.42-.099.84.162.94.58ZM2350.03 692.581a.795.795 0 0 1-.58.938.778.778 0 1 1-.36-1.517c.42-.099.84.161.94.579ZM2352.75 691.932c.1.418-.16.839-.58.938a.777.777 0 0 1-.94-.579.774.774 0 0 1 .58-.938c.42-.099.84.162.94.579ZM2355.47 691.284c.1.418-.15.834-.58.938a.783.783 0 0 1-.94-.58.786.786 0 0 1 .58-.937c.42-.1.84.161.94.579ZM2358.2 690.631c.1.418-.15.834-.58.938a.783.783 0 0 1-.94-.58.788.788 0 0 1 .58-.938c.42-.099.84.162.94.572v.008ZM2360.92 689.982c.1.418-.15.835-.57.934a.783.783 0 0 1-.94-.58.795.795 0 0 1 .58-.938c.42-.099.84.162.94.58l-.01.004ZM2363.79 689.301a.776.776 0 1 1-1.51.358.779.779 0 0 1 .58-.938c.41-.099.83.162.93.58ZM2337.22 698.76c.14.544-.2 1.09-.74 1.221a1.011 1.011 0 0 1-.48-1.966c.55-.131 1.09.201 1.22.745ZM2340.76 697.915a1.01 1.01 0 0 1-.74 1.22 1.005 1.005 0 0 1-1.22-.745 1.008 1.008 0 1 1 1.96-.475ZM2344.31 697.065c.13.543-.2 1.089-.75 1.22a1.01 1.01 0 1 1-.47-1.966c.54-.131 1.09.202 1.22.746ZM2347.86 696.223c.13.543-.2 1.089-.75 1.22a1.01 1.01 0 0 1-1.22-.745c-.13-.544.21-1.089.75-1.221.54-.131 1.09.21 1.22.746ZM2351.4 695.377c.13.544-.2 1.09-.75 1.221a1.01 1.01 0 0 1-1.22-.753 1.007 1.007 0 1 1 1.96-.471l.01.003ZM2354.95 694.535a1.01 1.01 0 0 1-.75 1.221 1.011 1.011 0 0 1-1.22-.746.999.999 0 0 1 .75-1.213.991.991 0 0 1 1.21.75l.01-.012ZM2358.49 693.685c.14.544-.2 1.094-.74 1.221a1.011 1.011 0 0 1-.48-1.966c.55-.132 1.09.201 1.22.745ZM2362.03 692.84c.13.543-.21 1.094-.74 1.22a1.005 1.005 0 0 1-1.22-.745c-.13-.544.21-1.094.74-1.221.55-.131 1.09.202 1.22.746ZM2365.58 691.998c.14.543-.21 1.093-.74 1.22a1.024 1.024 0 0 1-1.23-.753c-.13-.543.21-1.089.75-1.213.55-.131 1.09.202 1.22.746ZM2337.81 701.747c.1.418-.16.839-.58.938a.779.779 0 1 1-.36-1.517c.42-.099.84.154.94.579ZM2340.54 701.094c.1.418-.16.839-.58.938a.778.778 0 1 1-.36-1.517c.42-.099.84.161.94.579ZM2343.26 700.438c.1.418-.16.839-.58.938a.779.779 0 1 1-.36-1.517c.42-.099.84.162.94.579ZM2345.98 699.79c.1.418-.16.839-.58.938a.783.783 0 0 1-.94-.58.795.795 0 0 1 .58-.938c.42-.099.84.162.94.58ZM2348.72 699.144c.1.418-.16.839-.58.938a.779.779 0 1 1-.36-1.517c.42-.099.84.162.94.579ZM2351.44 698.488a.795.795 0 0 1-.58.938.779.779 0 1 1-.36-1.517c.42-.099.84.162.94.579ZM2354.16 697.84a.78.78 0 1 1-1.52.358.779.779 0 0 1 .58-.938c.42-.099.84.162.94.58ZM2356.88 697.191c.1.418-.16.839-.58.938a.783.783 0 0 1-.94-.58.786.786 0 0 1 .58-.937c.42-.1.84.161.94.579ZM2359.6 696.543c.1.417-.16.838-.58.937a.779.779 0 0 1-.35-1.517c.41-.099.83.162.93.58ZM2362.33 695.889a.777.777 0 1 1-1.51.359.779.779 0 0 1 .58-.938c.41-.099.84.162.93.579ZM2365.2 695.208a.776.776 0 1 1-1.51.358.779.779 0 0 1 .58-.938c.41-.099.83.162.93.58ZM2338.63 704.671c.13.544-.2 1.09-.75 1.221a1.01 1.01 0 1 1-.47-1.966c.54-.131 1.09.202 1.22.745ZM2342.17 703.822c.14.543-.2 1.089-.74 1.22-.55.132-1.1-.209-1.22-.745-.13-.544.2-1.089.74-1.221.55-.131 1.09.202 1.22.746ZM2345.72 702.979a1.009 1.009 0 1 1-1.96.476c-.13-.544.2-1.09.74-1.221.55-.131 1.09.202 1.22.745ZM2349.26 702.134c.13.544-.21 1.094-.74 1.221a1.006 1.006 0 0 1-1.22-.746 1.01 1.01 0 0 1 .74-1.22c.55-.132 1.09.201 1.23.753l-.01-.008ZM2352.81 701.284c.13.544-.21 1.094-.75 1.221a1.011 1.011 0 1 1-.47-1.966c.54-.131 1.09.209 1.22.745ZM2356.36 700.442c.13.544-.2 1.09-.75 1.221a1.011 1.011 0 0 1-1.22-.745c-.13-.544.21-1.09.75-1.221s1.09.202 1.22.745ZM2359.9 699.597c.13.543-.21 1.093-.75 1.22a1.01 1.01 0 1 1-.47-1.966c.54-.131 1.09.202 1.22.746ZM2363.44 698.747a1 1 0 0 1-.74 1.22 1.03 1.03 0 0 1-1.23-.752c-.13-.544.21-1.09.75-1.221s1.09.209 1.22.745v.008ZM2336.5 708.302c.1.418-.16.839-.58.938a.779.779 0 1 1-.36-1.517c.42-.099.83.154.94.579ZM2339.22 707.654c.1.418-.16.839-.58.938a.783.783 0 0 1-.94-.58.795.795 0 0 1 .58-.938c.42-.099.84.162.94.58ZM2341.94 707.005a.777.777 0 1 1-1.51.359.779.779 0 0 1 .58-.938c.41-.099.83.154.93.579ZM2344.67 706.352c.1.418-.16.839-.58.938a.777.777 0 0 1-.93-.579.773.773 0 0 1 .58-.938c.41-.099.84.162.93.579ZM2347.39 705.696c.1.418-.16.839-.58.938a.772.772 0 0 1-.93-.572.779.779 0 0 1 .58-.938c.42-.099.84.162.94.58l-.01-.008ZM2350.12 705.047a.795.795 0 0 1-.58.938.779.779 0 1 1-.36-1.517c.42-.099.84.162.94.579ZM2352.84 704.399c.1.418-.16.839-.58.938a.78.78 0 1 1 .58-.938ZM2355.57 703.754a.78.78 0 0 1-.58.938.779.779 0 0 1-.35-1.518c.41-.099.84.162.93.58ZM2358.29 703.097c.1.418-.15.835-.58.938a.772.772 0 0 1-.93-.579.78.78 0 0 1 .57-.938c.42-.099.84.162.94.579ZM2361.02 702.449a.795.795 0 0 1-.58.938.778.778 0 1 1-.36-1.517c.42-.099.84.161.94.579ZM2363.74 701.801a.781.781 0 0 1-1.52.358.781.781 0 0 1 1.52-.358ZM2340.04 710.578c.13.544-.2 1.09-.75 1.221a1.016 1.016 0 0 1-.48-1.974c.55-.131 1.09.202 1.22.746l.01.007ZM2343.58 709.729a1 1 0 0 1-.74 1.22 1.03 1.03 0 0 1-1.23-.753c-.13-.543.21-1.089.75-1.22a1.01 1.01 0 0 1 1.22.745v.008ZM2347.13 708.891c.13.543-.2 1.089-.75 1.22a1.016 1.016 0 0 1-1.22-.745c-.13-.544.2-1.089.75-1.22a1.01 1.01 0 0 1 1.22.745ZM2350.67 708.041c.14.544-.2 1.089-.74 1.221-.55.131-1.1-.21-1.21-.75-.12-.541.2-1.09.74-1.221a.996.996 0 0 1 1.21.75ZM2354.22 707.191a1.01 1.01 0 0 1-.75 1.221 1.016 1.016 0 0 1-1.22-.746c-.13-.543.21-1.089.75-1.22a1.01 1.01 0 0 1 1.22.745ZM2357.76 706.354a1.01 1.01 0 0 1-.74 1.22c-.55.132-1.1-.209-1.22-.745a1.008 1.008 0 1 1 1.96-.475ZM2361.31 705.503c.13.544-.21 1.094-.75 1.221a1.016 1.016 0 0 1-.48-1.974c.55-.131 1.1.209 1.22.745l.01.008ZM2364.86 704.653c.13.544-.21 1.09-.75 1.221a1.01 1.01 0 0 1-1.22-.745.998.998 0 0 1 .75-1.213 1.01 1.01 0 0 1 1.22.745v-.008ZM2354.25 710.314c.1.417-.16.838-.58.937a.779.779 0 0 1-.35-1.517c.41-.099.83.162.93.58ZM2356.98 709.665a.781.781 0 0 1-1.52.358.78.78 0 0 1 .58-.938c.42-.099.84.162.94.58ZM2359.71 709.012c.1.418-.16.839-.58.938a.769.769 0 0 1-.93-.572.78.78 0 0 1 .57-.938c.42-.099.84.162.94.58v-.008ZM2362.43 708.356c.1.418-.16.839-.58.938a.779.779 0 1 1-.36-1.518c.42-.099.84.162.94.58ZM2365.15 707.707c.1.418-.16.839-.58.938a.783.783 0 0 1-.94-.579.78.78 0 0 1 1.52-.359Z"/></g></g><g clip-path="url(#e)"><path d="m2230.19 691.825 13.08-15.11-16.26-.864 3.18 15.974Z" fill="#D3B24C"/></g><g clip-path="url(#f)"><path d="m2163.13 338.109-16.7 10.975 15.41 5.263 1.29-16.238Z" fill="#D3B24C"/></g><g clip-path="url(#g)"><path d="m2385.45 1030.97-16.7 10.97 15.42 5.26 1.28-16.23Z" fill="#D3B24C"/></g><g clip-path="url(#h)"><path d="M2174.39 143.033a6.15 6.15 0 0 0-8.27-6.957c.24-.468.41-.969.52-1.511a6.161 6.161 0 0 0-4.81-7.249 6.16 6.16 0 0 0-7.26 4.802 6.154 6.154 0 0 0-.11 1.592 6.033 6.033 0 0 0-3.08-1.632c-3.32-.672-6.57 1.478-7.25 4.807-.68 3.328 1.34 6.37 4.48 7.18a6.167 6.167 0 0 0-3.18 4.224 6.164 6.164 0 0 0 4.81 7.256 6.146 6.146 0 0 0 6.4-2.718c.42 2.433 2.28 4.483 4.84 5.005a6.159 6.159 0 0 0 7.26-4.802 6.136 6.136 0 0 0-1.29-5.132 6.158 6.158 0 0 0 6.93-4.863l.01-.002Z" fill="#D3B24C"/><path d="M2160.18 135.423c-.51-.102-1.02.353-1.15 1.007-.25 1.238.31 3.525.51 3.569.2.044 1.06-1.965 1.31-3.195.13-.662-.17-1.277-.67-1.381ZM2152.04 139.135c-.26.445.01 1.079.6 1.411 1.09.621 3.86 1.346 3.96 1.168.11-.177-1.94-2.169-3.05-2.795-.58-.333-1.26-.241-1.51.216ZM2153.05 148.034c.34.379 1.03.324 1.53-.134.93-.85 2.47-3.258 2.34-3.409-.14-.156-2.68 1.179-3.6 2.034-.49.458-.61 1.13-.27 1.509ZM2161.82 149.81c.47-.211.63-.882.35-1.502-.52-1.143-2.34-3.36-2.52-3.272-.19.087.29 2.907.81 4.05.28.607.89.936 1.36.719v.005ZM2166.23 142.027c-.06-.515-.64-.861-1.31-.79-.02-.003-4.07-.178-3.9 1.379.03.207 2.86.614 4.11.467.67-.078 1.17-.549 1.11-1.064l-.01.008Z" fill="#0E367B"/></g><g clip-path="url(#i)"><path d="M2242.65 250.026c-2.05-1.467-4.72-1.32-7.19.112-1.67-2.51-4.02-3.977-6.43-3.666-2.41.31-4.33 2.312-5.35 5.167-2.73-.768-5.35-.25-6.99 1.69-2.76 3.287-1.64 9.402 2.53 13.646 4.16 4.253 9.78 5.029 12.55 1.743 3.47 2.493 8.73.328 11.73-4.839 3.01-5.167 2.63-11.369-.85-13.862v.009Z" fill="#D3B24C"/><path d="M2227.69 273.755c-1.35.172-2.81.026-4.23-.406-1.96-.603-3.64-1.69-4.74-3.079-1.05-1.337-1.43-2.786-1.04-4.08.49-1.647 2.15-2.812 4.46-3.105 1.35-.173 2.81-.026 4.24.405 1.95.604 3.63 1.691 4.73 3.08 1.05 1.337 1.43 2.786 1.05 4.08-.5 1.647-2.16 2.812-4.47 3.105Z" fill="#0E367B"/><path d="M2236.94 272.582c-2.31.293-4.21-.414-5.08-1.889-.69-1.156-.67-2.648.03-4.218.73-1.613 2.09-3.097 3.85-4.166 1.27-.785 2.65-1.286 4-1.458 2.31-.293 4.2.414 5.08 1.889.68 1.156.66 2.648-.04 4.218-.73 1.613-2.09 3.097-3.84 4.166-1.28.785-2.66 1.285-4 1.458Z" fill="#0E367B"/><path d="M2225.59 261.584c-1.47-.845-2.23-2.277-2.23-2.277s1.6-.069 3.07.767c1.46.846 2.22 2.278 2.22 2.278s-1.6.069-3.06-.768Zm5.18-1.052s-1.02-1.268-1.22-2.968c-.2-1.699.46-3.183.46-3.183s1.02 1.268 1.22 2.968c.21 1.699-.46 3.183-.46 3.183Zm5.27-.285c-1.21 1.182-2.78 1.518-2.78 1.518s.39-1.587 1.6-2.769c1.21-1.182 2.79-1.518 2.79-1.518s-.4 1.587-1.61 2.769Z" fill="#FE5226"/></g><g clip-path="url(#j)"><path d="M2356.68 513.095c-3.71-1.116-7.54.392-10.46 3.639-3.65-2.803-7.78-3.767-11.16-2.159-3.39 1.608-5.25 5.415-5.38 10.011-4.38.218-7.97 2.24-9.44 5.815-2.49 6.063 2.05 14.288 10.16 18.384 8.11 4.097 16.7 2.499 19.2-3.556 6.28 1.897 12.95-3.757 14.9-12.626 1.95-8.869-1.56-17.603-7.83-19.5l.01-.008Z" fill="#073786"/><path d="M2346.02 554.429c-1.89.893-4.09 1.402-6.38 1.459-3.16.079-6.14-.673-8.39-2.13-2.19-1.415-3.42-3.311-3.47-5.347-.07-2.611 1.82-5.082 5.07-6.625 1.89-.893 4.09-1.402 6.38-1.459 3.15-.079 6.14.674 8.39 2.131 2.19 1.414 3.42 3.31 3.47 5.346.07 2.611-1.82 5.082-5.07 6.625Z" fill="#B59732"/><path d="M2359 548.271c-3.23 1.536-6.36 1.436-8.33-.259-1.54-1.329-2.24-3.482-1.96-6.068.3-2.672 1.6-5.454 3.65-7.847 1.49-1.736 3.28-3.136 5.17-4.029 3.23-1.536 6.36-1.436 8.33.259 1.54 1.329 2.24 3.482 1.96 6.068-.3 2.672-1.6 5.454-3.65 7.847-1.49 1.736-3.28 3.136-5.17 4.029Z" fill="#B59732"/><path d="M2337.17 537.96c-2.55-.505-4.34-2.199-4.34-2.199s2.31-.873 4.85-.369c2.55.505 4.34 2.2 4.34 2.2s-2.31.873-4.85.368Zm7.07-4.01s-2.08-1.331-3.19-3.677c-1.12-2.345-.83-4.798-.83-4.798s2.08 1.331 3.2 3.677c1.11 2.346.82 4.798.82 4.798Zm7.59-2.957c-1.22 2.291-3.36 3.525-3.36 3.525s-.18-2.466 1.04-4.757c1.21-2.291 3.36-3.525 3.36-3.525s.17 2.466-1.04 4.757Z" fill="#FE5226"/></g><g clip-path="url(#k)"><path d="m2167.25 770.769.16 1.01.56-.855a6.187 6.187 0 0 1 2.69-2.291c3.08-1.37 6.68-.079 8.18 2.875l-.01.005.12.249c1.37 3.026.1 6.559-2.84 8.065l-.92.471 1 .26c1.76.46 3.3 1.677 4.11 3.453 1.42 3.124.01 6.801-3.15 8.208a6.32 6.32 0 0 1-6.98-1.254l-.73-.705.06 1.008a6.204 6.204 0 0 1-3.69 6.002c-3.16 1.408-6.87.008-8.29-3.119-.8-1.775-.7-3.72.12-5.333l.46-.914-.95.369c-3.1 1.193-6.57-.117-7.99-3.246-1.42-3.125-.01-6.802 3.14-8.209v-.001a6.243 6.243 0 0 1 3.52-.478l1.03.161-.66-.801a5.967 5.967 0 0 1-.86-1.367v-.001c-1.41-3.124-.01-6.802 3.15-8.209 3.16-1.408 6.88-.007 8.3 3.11v.004c.24.503.39 1.014.47 1.533Z" fill="#FE5226" stroke="#FE5226" stroke-width=".787"/><path d="M2162 773.862c-.51.23-.68.948-.38 1.6.56 1.236 2.51 2.875 2.71 2.789.2-.086-.31-2.377-.87-3.604-.3-.661-.96-1.006-1.46-.785ZM2157.18 782.2c.06.546.7.929 1.42.852 1.36-.143 4.25-1.245 4.23-1.466-.02-.22-3.08-.671-4.45-.527-.72.077-1.27.585-1.2 1.141ZM2163.7 789.32c.54.115 1.11-.364 1.26-1.073.28-1.323.12-4.389-.1-4.437-.22-.048-1.6 2.702-1.87 4.025-.15.709.17 1.37.71 1.485ZM2172.54 785.372c.28-.479-.01-1.16-.64-1.524-1.18-.671-4.18-1.466-4.29-1.275-.11.192 2.1 2.349 3.28 3.019.63.355 1.37.259 1.64-.22h.01ZM2171.5 775.826c-.38-.412-1.11-.345-1.66.135-.01.009-3.69 2.395-2.55 3.641.16.163 2.9-1.255 3.91-2.166.54-.488.68-1.207.3-1.619v.009Z" fill="#DDBB3E"/></g><path d="M258.193 585.416c81.384-19.65 154.538-94.841 156.726-151.523.86-22.731-6.115-53.714-53.082-70.089-6.726-2.313-18.119-5.964-25.214-7.868-18.727-4.944-39.148-6.94-50.653-23.472-12.137-17.475 3.642-46.58 16.895-71.975 4.455-8.528 11.549-19.69 9.113-29.938-2.435-10.247-17.486-11.24-25.483-11.42l-.944.002c-15.437-.344-30.623 3.105-45.35 5.572-20.535 3.465-40.778 5.596-63.241 1.441-35.242-6.432-47.08-23.038-52.174-37.257-8.788-24.462-1.171-53.155 21.94-81.596 1.973-2.467 5.777.742 3.987 2.691-23.472 25.147-30.696 55.393-22.654 77.84 6.513 18.269 23.594 30.399 49.188 35.101 21.37 3.88 41.092.622 61.997-2.937 15.022-2.542 28.878-5.025 44.871-4.663l2.647-.119c8.883-.359 23.717 2.264 27.908 11.673 4.732 10.611-2.942 26.014-7.71 35.171-11.045 21.058-27.255 54.366-17.609 68.22 10.278 14.796 30.923 17.365 48.891 22.107 7.168 1.886 14.596 3.864 21.581 6.268 39.371 13.732 60.345 40.621 58.965 75.607-1.067 27.823-16.709 59.333-42.822 86.487-27.109 28.194-71.91 57.086-109.4 66.966" fill="#DDBB3E"/><g clip-path="url(#l)"><path d="M332.927 548.114c-3.18-4.432-2.161-10.599 2.271-13.779 4.432-3.18 10.609-2.162 13.788 2.27 3.18 4.432 2.162 10.608-2.27 13.788-4.432 3.18-10.599 2.161-13.779-2.271l-.01-.008Z" fill="#5A59A2"/><mask id="m" style="mask-type:luminance" maskUnits="userSpaceOnUse" x="313" y="535" width="28" height="29"><path d="M324.873 563.065c-7.515-1.095-12.732-8.073-11.637-15.589 1.096-7.515 8.075-12.723 15.589-11.637 7.516 1.096 12.724 8.075 11.637 15.589-1.095 7.516-8.073 12.732-15.589 11.637Z" fill="#fff"/></mask><g mask="url(#m)" fill="#5A59A2"><path d="M341.404 555.575a.78.78 0 1 1 .885-.657.776.776 0 0 1-.885.657ZM341.001 558.345a.78.78 0 1 1 .23-1.543.78.78 0 0 1-.23 1.543ZM340.597 561.115a.782.782 0 0 1-.657-.885.781.781 0 0 1 .885-.658.78.78 0 0 1-.228 1.543ZM340.194 563.885a.78.78 0 0 1 .228-1.543.782.782 0 0 1 .657.885.777.777 0 0 1-.885.658ZM340.794 538.618a1.012 1.012 0 0 1-.859-1.143 1.009 1.009 0 0 1 1.143-.859c.554.079.938.59.85 1.145a1.01 1.01 0 0 1-1.143.859l.009-.002ZM340.273 542.228a1.01 1.01 0 1 1 .285-2.003 1.011 1.011 0 1 1-.285 2.003ZM339.753 545.837a1.013 1.013 0 0 1-.859-1.143 1.01 1.01 0 1 1 .859 1.143ZM339.222 549.439a1.014 1.014 0 0 1-.859-1.143c.079-.554.598-.94 1.143-.859.554.078.938.589.859 1.143a1.01 1.01 0 0 1-1.143.859ZM338.702 553.048a1.01 1.01 0 0 1-.859-1.143 1.02 1.02 0 0 1 1.152-.861 1.01 1.01 0 1 1-.284 2.003l-.009.001ZM338.18 556.649a1.01 1.01 0 1 1 .285-2.003c.553.079.937.59.859 1.144a.999.999 0 0 1-1.145.85l.001.009ZM337.651 560.259a1.013 1.013 0 0 1-.859-1.143 1.01 1.01 0 0 1 1.143-.859 1.01 1.01 0 1 1-.284 2.002ZM337.13 563.868a1.01 1.01 0 1 1 .283-2.004 1.01 1.01 0 0 1-.283 2.004ZM337.811 538.067a.778.778 0 0 1-.657-.885.781.781 0 0 1 .885-.658c.425.063.719.46.657.885a.777.777 0 0 1-.885.658ZM337.408 540.837a.773.773 0 0 1-.656-.877.78.78 0 1 1 .657.885l-.001-.008ZM337.006 543.615a.78.78 0 1 1 .228-1.542.78.78 0 0 1-.228 1.542ZM336.603 546.385a.78.78 0 0 1 .228-1.542.776.776 0 0 1 .657.885.776.776 0 0 1-.885.657ZM336.199 549.155a.78.78 0 1 1 .229-1.54.78.78 0 0 1-.229 1.54ZM335.796 551.925a.78.78 0 1 1 .23-1.543.78.78 0 0 1-.23 1.543ZM335.394 554.704a.78.78 0 0 1 .228-1.543.782.782 0 0 1 .657.885.772.772 0 0 1-.876.657l-.009.001ZM334.991 557.474a.779.779 0 1 1 .225-1.542.779.779 0 0 1-.225 1.542ZM334.587 560.243a.78.78 0 1 1 .23-1.543.78.78 0 0 1-.23 1.543ZM334.184 563.013a.781.781 0 0 1-.658-.885.782.782 0 0 1 .885-.657c.425.062.72.46.658.885a.778.778 0 0 1-.885.657ZM334.783 537.747a1.009 1.009 0 1 1 .295-1.995 1.01 1.01 0 1 1-.284 2.003l-.011-.008ZM334.263 541.357a1.011 1.011 0 1 1 .284-2.002 1.011 1.011 0 0 1-.284 2.002ZM333.741 544.957a1.01 1.01 0 1 1 .284-2.002c.554.079.938.589.859 1.143a1.01 1.01 0 0 1-1.143.859ZM333.212 548.568a1.01 1.01 0 1 1 .284-2.003 1.01 1.01 0 1 1-.284 2.003ZM332.69 552.168a1.01 1.01 0 1 1 .285-2.002 1.01 1.01 0 1 1-.285 2.002ZM332.17 555.778a1.01 1.01 0 1 1 .284-2.003 1.01 1.01 0 1 1-.284 2.003ZM331.64 559.388a1.015 1.015 0 0 1-.859-1.143 1.02 1.02 0 0 1 1.153-.861 1.012 1.012 0 0 1-.285 2.003l-.009.001ZM331.12 562.997a1.01 1.01 0 1 1 1.143-.859 1.01 1.01 0 0 1-1.143.859ZM331.802 537.196a.776.776 0 0 1-.656-.877.78.78 0 0 1 .884-.657.78.78 0 1 1-.227 1.542l-.001-.008ZM331.398 539.965a.776.776 0 0 1-.656-.876.772.772 0 0 1 .876-.656c.425.062.72.46.658.885a.782.782 0 0 1-.885.658l.007-.011ZM330.995 542.735a.781.781 0 0 1-.657-.885.78.78 0 1 1 .657.885ZM330.592 545.505a.78.78 0 1 1 .23-1.543.78.78 0 0 1-.23 1.543ZM330.19 548.284a.78.78 0 1 1 .227-1.54.78.78 0 0 1-.227 1.54ZM329.786 551.054a.78.78 0 1 1 .229-1.54.78.78 0 0 1-.229 1.54ZM329.383 553.824a.78.78 0 1 1 .23-1.544.78.78 0 0 1-.23 1.544ZM328.98 556.594a.778.778 0 0 1-.658-.885.782.782 0 0 1 .885-.658c.425.063.72.461.658.885a.782.782 0 0 1-.885.658ZM328.577 559.372a.78.78 0 1 1 .885-.657.776.776 0 0 1-.876.656l-.009.001ZM328.174 562.142a.771.771 0 0 1-.656-.876.78.78 0 1 1 .657.885l-.001-.009ZM328.774 536.876a1.01 1.01 0 1 1 .284-2.002 1.01 1.01 0 1 1-.284 2.002ZM328.252 540.477a1.01 1.01 0 1 1 .284-2.003 1.01 1.01 0 1 1-.284 2.003ZM327.732 544.086a1.01 1.01 0 1 1 .284-2.002 1.01 1.01 0 1 1-.284 2.002ZM327.202 547.697a1.011 1.011 0 1 1 .284-2.002 1.011 1.011 0 0 1-.284 2.002ZM326.681 551.297a1.01 1.01 0 0 1-.859-1.144 1.016 1.016 0 0 1 2.011.284 1.003 1.003 0 0 1-1.145.85l-.007.01ZM326.151 554.908a1.01 1.01 0 1 1 .285-2.003c.553.079.938.59.85 1.145a.998.998 0 0 1-1.145.85l.01.008ZM325.631 558.517a1.01 1.01 0 1 1 1.143-.859 1.01 1.01 0 0 1-1.143.859ZM325.109 562.117a1.013 1.013 0 0 1-.859-1.143 1.01 1.01 0 0 1 1.143-.859 1.01 1.01 0 1 1-.284 2.002ZM325.781 536.317a.78.78 0 1 1 .229-1.54.78.78 0 0 1-.229 1.54ZM325.38 539.096a.782.782 0 0 1-.658-.885.781.781 0 0 1 .885-.658c.425.063.72.461.658.885a.782.782 0 0 1-.885.658ZM324.986 541.864a.782.782 0 0 1-.658-.885.781.781 0 0 1 .885-.658.78.78 0 0 1-.227 1.543ZM324.582 544.634a.78.78 0 0 1 .228-1.543.782.782 0 0 1 .657.885.781.781 0 0 1-.885.658ZM324.171 547.414a.781.781 0 0 1-.658-.885.781.781 0 0 1 .885-.658c.425.063.72.461.658.885a.782.782 0 0 1-.885.658ZM323.776 550.183a.78.78 0 0 1 .228-1.543c.424.063.719.46.657.885a.781.781 0 0 1-.885.658ZM323.373 552.952a.781.781 0 0 1-.658-.885.782.782 0 0 1 .885-.657c.425.062.72.46.658.885a.782.782 0 0 1-.885.657ZM322.969 555.722a.78.78 0 1 1 .885-.657.78.78 0 0 1-.885.657ZM322.566 558.492a.781.781 0 0 1-.658-.885.777.777 0 0 1 .885-.657c.425.062.72.46.658.885a.782.782 0 0 1-.885.657ZM322.164 561.271a.782.782 0 0 1-.658-.885.782.782 0 0 1 .885-.658c.425.063.72.461.658.885a.782.782 0 0 1-.885.658ZM321.738 564.189a.78.78 0 0 1 .228-1.543.782.782 0 0 1 .657.885.781.781 0 0 1-.885.658ZM322.762 535.996a1.01 1.01 0 1 1 .284-2.002c.554.079.938.589.859 1.143a1.01 1.01 0 0 1-1.143.859ZM322.241 539.606a1.012 1.012 0 1 1 .286-2.003 1.012 1.012 0 0 1-.286 2.003ZM321.713 543.216a1.01 1.01 0 1 1 .284-2.004 1.01 1.01 0 0 1-.284 2.004ZM321.191 546.816a1.012 1.012 0 0 1-.859-1.143 1.01 1.01 0 1 1 2.002.284c-.079.554-.59.938-1.152.861l.009-.002ZM320.671 550.426a1.014 1.014 0 0 1-.859-1.144 1.01 1.01 0 1 1 .859 1.144ZM320.141 554.036a1.01 1.01 0 1 1 1.144-.859 1.01 1.01 0 0 1-1.144.859ZM319.619 557.637a1.011 1.011 0 1 1 .284-2.004 1.011 1.011 0 0 1-.284 2.004ZM319.099 561.246a1.014 1.014 0 0 1-.859-1.143 1.021 1.021 0 0 1 1.153-.861 1.012 1.012 0 0 1-.285 2.003l-.009.001ZM318.57 564.857a1.011 1.011 0 1 1 .284-2.004 1.011 1.011 0 0 1-.284 2.004ZM319.368 538.216a.782.782 0 0 1-.657-.885.78.78 0 1 1 .657.885ZM318.966 540.994a.78.78 0 1 1 .885-.657.78.78 0 0 1-.885.657ZM318.572 543.763a.78.78 0 0 1-.657-.885.771.771 0 0 1 .876-.656.78.78 0 0 1-.228 1.542l.009-.001ZM318.169 546.532a.781.781 0 0 1-.658-.885.78.78 0 0 1 1.543.228.782.782 0 0 1-.885.657ZM317.765 549.302a.78.78 0 1 1 .885-.657.78.78 0 0 1-.885.657ZM317.355 552.083a.782.782 0 0 1-.658-.885.782.782 0 0 1 .885-.658c.425.063.72.461.658.885a.782.782 0 0 1-.885.658ZM316.96 554.852a.778.778 0 0 1-.657-.885.781.781 0 0 1 .885-.658c.424.062.719.46.657.885a.781.781 0 0 1-.885.658ZM316.557 557.621a.781.781 0 0 1-.658-.885.782.782 0 0 1 .885-.658c.425.063.72.461.658.885a.781.781 0 0 1-.885.658ZM316.153 560.391a.78.78 0 1 1 .229-1.54.78.78 0 0 1-.229 1.54ZM315.727 563.309a.782.782 0 0 1-.658-.885.778.778 0 0 1 .885-.658c.425.062.72.46.658.885a.782.782 0 0 1-.885.658ZM316.232 538.734a1.014 1.014 0 0 1-.859-1.143 1.02 1.02 0 0 1 1.152-.86c.554.078.938.589.859 1.143a1.01 1.01 0 0 1-1.143.859l-.009.001ZM315.702 542.336a1.01 1.01 0 1 1 .284-2.002 1.01 1.01 0 1 1-.284 2.002ZM315.181 545.945a1.01 1.01 0 0 1-.859-1.143 1.002 1.002 0 0 1 1.145-.85c.546.089.938.59.859 1.143a.998.998 0 0 1-1.145.85ZM314.661 549.555a1.01 1.01 0 1 1 .284-2.003 1.01 1.01 0 1 1-.284 2.003ZM314.13 553.156a1.01 1.01 0 0 1-.859-1.143 1.011 1.011 0 1 1 .859 1.143ZM313.61 556.766a1.014 1.014 0 0 1-.859-1.144 1.018 1.018 0 0 1 1.152-.86 1.01 1.01 0 1 1-.285 2.002l-.008.002ZM313.089 560.375a1.01 1.01 0 1 1 .284-2.003 1 1 0 0 1 .851 1.145 1.01 1.01 0 0 1-1.144.859l.009-.001ZM312.559 563.977a1.015 1.015 0 0 1-.859-1.144 1.01 1.01 0 1 1 .859 1.144ZM313.359 537.344a.781.781 0 0 1-.658-.885.78.78 0 0 1 1.543.228.782.782 0 0 1-.885.657ZM312.955 540.114a.78.78 0 0 1 .228-1.542.78.78 0 0 1-.228 1.542ZM312.553 542.893a.78.78 0 1 1 .229-1.54.78.78 0 0 1-.229 1.54ZM312.15 545.663a.782.782 0 0 1-.658-.885.781.781 0 0 1 .885-.658c.425.062.72.46.658.885a.772.772 0 0 1-.877.656l-.008.002Z"/></g></g><g clip-path="url(#n)"><path d="M162.693 1097.77c3.492 4.19 2.922 10.41-1.268 13.91-4.19 3.49-10.424 2.92-13.916-1.27-3.492-4.19-2.924-10.43 1.266-13.92 4.19-3.49 10.415-2.92 13.907 1.27l.011.01Z" fill="#5A59A2"/><mask id="o" style="mask-type:luminance" maskUnits="userSpaceOnUse" x="154" y="1082" width="29" height="28"><path d="M169.644 1082.27c7.575.55 13.283 7.13 12.735 14.71-.549 7.57-7.133 13.27-14.706 12.73-7.575-.54-13.274-7.13-12.735-14.7.549-7.58 7.131-13.29 14.706-12.74Z" fill="#fff"/></mask><g mask="url(#o)" fill="#5A59A2"><path d="M154.103 1085.36c.428.03.751.4.719.83a.78.78 0 0 1-.835.72.781.781 0 0 1-.72-.83.782.782 0 0 1 .836-.72ZM154.304 1082.56a.79.79 0 0 1 .72.84.78.78 0 0 1-.835.72.784.784 0 0 1-.72-.84.79.79 0 0 1 .835-.72ZM155.534 1107.81c.558.04.98.53.939 1.08-.038.55-.52.97-1.078.94a1 1 0 0 1-.931-1.08 1.01 1.01 0 0 1 1.079-.94h-.009ZM155.791 1104.17a1.012 1.012 0 1 1-.14 2.02 1.012 1.012 0 0 1 .14-2.02ZM156.049 1100.53c.558.04.98.53.94 1.08a1.012 1.012 0 1 1-.94-1.08ZM156.318 1096.9a1.013 1.013 0 0 1-.139 2.02 1.01 1.01 0 0 1-.939-1.08c.038-.56.52-.98 1.078-.94ZM156.576 1093.26c.558.04.978.52.939 1.08-.038.56-.529.98-1.087.94a1.002 1.002 0 0 1-.939-1.07c.038-.56.52-.98 1.078-.94l.009-.01ZM156.835 1089.64a1.008 1.008 0 1 1-.138 2.01 1.008 1.008 0 1 1 .14-2.01h-.002ZM157.103 1086a1.006 1.006 0 1 1-.139 2.01 1.003 1.003 0 0 1-.94-1.07 1.01 1.01 0 0 1 1.079-.94ZM157.36 1082.36c.558.04.98.53.939 1.08a1.01 1.01 0 1 1-2.017-.14c.038-.56.529-.98 1.078-.94ZM158.548 1108.14a.782.782 0 0 1-.116 1.56.783.783 0 0 1 .116-1.56ZM158.75 1105.35c.428.03.749.4.718.83a.788.788 0 0 1-.835.72.784.784 0 0 1-.72-.84.78.78 0 0 1 .835-.72l.002.01ZM158.95 1102.55c.428.03.751.41.719.84a.773.773 0 0 1-.835.71.774.774 0 0 1-.719-.83.776.776 0 0 1 .835-.72ZM159.151 1099.76a.78.78 0 0 1 .72.83.776.776 0 0 1-.835.72.777.777 0 1 1 .115-1.55ZM159.353 1096.97c.429.03.752.4.72.83a.78.78 0 0 1-.835.72.781.781 0 0 1-.72-.83.781.781 0 0 1 .835-.72ZM159.556 1094.17c.428.04.751.41.719.84a.778.778 0 1 1-1.554-.12.787.787 0 0 1 .835-.72ZM159.755 1091.37a.79.79 0 0 1 .72.84.78.78 0 0 1-.835.72.784.784 0 0 1-.72-.84.766.766 0 0 1 .827-.71l.008-.01ZM159.957 1088.58c.428.03.749.4.72.84a.781.781 0 0 1-.835.72.784.784 0 0 1-.72-.84.776.776 0 0 1 .835-.72ZM160.159 1085.79c.428.03.751.41.72.84a.788.788 0 0 1-.835.72.786.786 0 0 1-.72-.84.776.776 0 0 1 .835-.72ZM160.361 1083c.428.03.751.41.72.83a.78.78 0 0 1-.835.72.776.776 0 1 1 .115-1.55ZM161.591 1108.24c.558.04.978.52.94 1.08-.039.56-.529.98-1.089.93a1.012 1.012 0 0 1-.94-1.08c.039-.55.521-.97 1.079-.93h.01ZM161.849 1104.6a1.012 1.012 0 1 1-1.078.94c.039-.55.52-.97 1.078-.94ZM162.109 1100.98a1.008 1.008 0 1 1-.138 2.01 1.01 1.01 0 0 1-.94-1.07c.039-.56.52-.98 1.078-.94ZM162.376 1097.34c.558.03.978.52.94 1.07a1.01 1.01 0 0 1-1.079.94 1.002 1.002 0 0 1-.939-1.07c.038-.56.52-.98 1.078-.94ZM162.636 1093.71c.558.04.978.52.94 1.08a1.02 1.02 0 0 1-1.079.94 1.01 1.01 0 0 1-.939-1.08c.039-.56.52-.98 1.078-.94ZM162.894 1090.07a1.014 1.014 0 0 1-.139 2.02 1.012 1.012 0 0 1 .139-2.02ZM163.161 1086.43c.558.04.98.53.94 1.08a1.016 1.016 0 0 1-2.027-.14c.039-.56.52-.98 1.078-.94h.009ZM163.419 1082.79c.558.04.98.53.939 1.08a1.012 1.012 0 1 1-.939-1.08ZM164.606 1108.58c.428.03.751.4.718.82a.781.781 0 0 1-.835.72.774.774 0 0 1-.72-.83.78.78 0 0 1 .835-.72l.002.01ZM164.808 1105.78c.428.04.751.41.717.83a.773.773 0 0 1-.826.72.784.784 0 0 1-.72-.84.788.788 0 0 1 .835-.72l-.006.01ZM165.009 1102.99c.428.03.751.41.72.84a.78.78 0 0 1-.835.72.784.784 0 0 1-.72-.84.776.776 0 0 1 .835-.72ZM165.211 1100.2c.429.03.751.41.72.84a.788.788 0 0 1-.835.72.79.79 0 0 1-.72-.84.781.781 0 0 1 .835-.72ZM165.412 1097.4c.428.03.751.41.719.84a.788.788 0 0 1-.835.72.789.789 0 0 1-.719-.84.78.78 0 0 1 .835-.72ZM165.613 1094.61c.428.03.751.41.72.83a.78.78 0 0 1-.835.72.775.775 0 0 1-.72-.83.781.781 0 0 1 .835-.72ZM165.815 1091.82c.429.03.751.4.72.83a.776.776 0 0 1-.835.72.777.777 0 1 1 .115-1.55ZM166.018 1089.03a.77.77 0 0 1 .719.83.78.78 0 0 1-.835.72.781.781 0 0 1-.72-.83.775.775 0 0 1 .836-.72ZM166.217 1086.22c.428.04.749.4.72.84a.78.78 0 0 1-.835.72.784.784 0 0 1-.72-.84.77.77 0 0 1 .827-.71l.008-.01ZM166.419 1083.43c.429.03.75.4.718.83a.78.78 0 0 1-.835.72.784.784 0 0 1-.72-.84.788.788 0 0 1 .835-.72l.002.01ZM166.633 1080.49c.428.03.751.41.72.84a.78.78 0 0 1-.835.72.781.781 0 0 1 .115-1.56ZM167.648 1108.68c.558.03.978.52.939 1.07-.038.56-.52.98-1.078.94a1.008 1.008 0 1 1 .139-2.01ZM167.908 1105.05a1.007 1.007 0 1 1-.139 2.01 1.003 1.003 0 0 1-.94-1.07c.039-.56.53-.98 1.079-.94ZM168.166 1101.41a1.012 1.012 0 1 1-.14 2.02 1.012 1.012 0 0 1 .14-2.02ZM168.432 1097.77a1.012 1.012 0 1 1-.14 2.02 1.012 1.012 0 0 1 .14-2.02ZM168.692 1094.14c.558.04.978.52.939 1.08-.038.56-.52.98-1.087.94a1.01 1.01 0 0 1-.939-1.08.999.999 0 0 1 1.08-.93l.007-.01ZM168.959 1090.5c.558.04.978.52.939 1.08-.039.56-.52.98-1.078.94a1 1 0 0 1-.931-1.08.994.994 0 0 1 1.08-.93l-.01-.01ZM169.217 1086.86c.558.04.98.53.939 1.08a1.01 1.01 0 1 1-2.017-.14c.038-.55.52-.97 1.078-.94ZM169.477 1083.24a1.008 1.008 0 1 1-.139 2.01c-.558-.04-.98-.53-.94-1.07a1.01 1.01 0 0 1 1.079-.94ZM170.673 1109.02c.428.03.751.4.72.83a.78.78 0 0 1-.835.72.776.776 0 1 1 .115-1.55ZM170.874 1106.22c.428.03.751.4.719.83a.78.78 0 0 1-.835.72.781.781 0 0 1-.72-.83.782.782 0 0 1 .836-.72ZM171.067 1103.43c.428.03.751.4.72.83a.781.781 0 0 1-.835.72.774.774 0 0 1-.72-.83.78.78 0 0 1 .835-.72ZM171.269 1100.64c.428.03.751.4.719.83a.78.78 0 0 1-.835.72.781.781 0 0 1-.72-.83.775.775 0 0 1 .836-.72ZM171.478 1097.83a.783.783 0 0 1-.116 1.56.782.782 0 0 1 .116-1.56ZM171.67 1095.04c.429.03.751.41.72.84a.78.78 0 0 1-.835.72.781.781 0 0 1 .115-1.56ZM171.873 1092.25c.428.03.751.41.719.84a.788.788 0 0 1-.835.72.79.79 0 0 1-.72-.84.782.782 0 0 1 .836-.72ZM172.074 1089.46c.428.03.751.41.72.83a.774.774 0 0 1-.835.72.775.775 0 0 1-.72-.83.78.78 0 0 1 .835-.72ZM172.276 1086.67c.429.03.751.4.72.83a.776.776 0 0 1-.835.72.775.775 0 0 1-.72-.83.781.781 0 0 1 .835-.72ZM172.476 1083.87c.428.03.751.4.72.83a.781.781 0 0 1-.835.72.781.781 0 0 1-.72-.83.78.78 0 0 1 .835-.72ZM172.69 1080.93c.428.03.751.4.72.83a.78.78 0 0 1-1.555-.11.774.774 0 0 1 .835-.72ZM173.709 1109.12a1.012 1.012 0 1 1-.14 2.02 1.012 1.012 0 0 1 .14-2.02ZM173.967 1105.48a1.013 1.013 0 0 1-.139 2.02 1.01 1.01 0 0 1-.939-1.08c.038-.56.52-.98 1.078-.94ZM174.233 1101.84c.557.04.98.53.939 1.08a1.012 1.012 0 1 1-.939-1.08ZM174.492 1098.21c.558.04.98.53.94 1.08a1.01 1.01 0 1 1-2.018-.14c.039-.56.52-.98 1.087-.94h-.009ZM174.751 1094.58a1.008 1.008 0 1 1-.139 2.01 1.01 1.01 0 0 1-.94-1.07c.039-.56.529-.98 1.079-.94ZM175.017 1090.94c.558.03.978.52.939 1.07-.038.56-.52.98-1.078.94a1.003 1.003 0 0 1-.94-1.07 1.01 1.01 0 0 1 1.079-.94ZM175.277 1087.31c.558.04.98.53.939 1.08-.038.55-.52.97-1.078.93a1.002 1.002 0 0 1-.939-1.07c.038-.56.52-.98 1.078-.94ZM175.535 1083.67c.558.04.98.53.939 1.08a1.016 1.016 0 0 1-2.026-.14c.038-.56.529-.98 1.078-.94h.009ZM175.802 1080.03c.558.04.98.53.939 1.08a1.01 1.01 0 1 1-2.017-.14c.038-.56.529-.98 1.078-.94ZM176.732 1109.45c.429.03.751.41.72.84a.788.788 0 0 1-.835.72.79.79 0 0 1-.72-.84.781.781 0 0 1 .835-.72ZM176.934 1106.66c.428.03.751.41.72.83a.775.775 0 0 1-.835.72.775.775 0 0 1-.72-.83.776.776 0 0 1 .835-.72ZM177.133 1103.86c.428.03.751.41.72.83a.774.774 0 0 1-.835.72.77.77 0 0 1-.72-.83.781.781 0 0 1 .835-.72ZM177.326 1101.07c.428.03.751.41.72.83a.774.774 0 1 1-1.546-.11.78.78 0 0 1 .835-.72h-.009ZM177.529 1098.28c.428.03.751.4.719.83a.78.78 0 0 1-.835.72.774.774 0 0 1-.719-.83.78.78 0 0 1 .835-.72ZM177.73 1095.49c.429.03.752.4.72.83a.78.78 0 0 1-.835.72.777.777 0 0 1-.72-.83.775.775 0 0 1 .835-.72ZM177.938 1092.68a.783.783 0 0 1-.115 1.56.784.784 0 0 1-.72-.84.788.788 0 0 1 .835-.72ZM178.132 1089.89a.782.782 0 0 1-.116 1.56.783.783 0 0 1-.719-.84.788.788 0 0 1 .835-.72ZM178.334 1087.1c.428.03.751.41.72.84a.788.788 0 0 1-.835.72.784.784 0 0 1-.72-.84.78.78 0 0 1 .835-.72ZM178.536 1084.31a.78.78 0 0 1 .719.83.774.774 0 0 1-.835.72.774.774 0 0 1-.719-.83.776.776 0 0 1 .835-.72ZM178.749 1081.37a.78.78 0 0 1 .72.83.776.776 0 0 1-.835.72.775.775 0 0 1-.72-.83.781.781 0 0 1 .835-.72ZM179.765 1109.55a1.012 1.012 0 1 1-.147 2.02 1.012 1.012 0 0 1-.94-1.08c.039-.55.52-.97 1.078-.94h.009ZM180.023 1105.92a1 1 0 0 1 .939 1.07 1.03 1.03 0 0 1-1.087.95 1.017 1.017 0 0 1-.939-1.08c.039-.56.52-.98 1.078-.94h.009ZM180.292 1102.28a1.012 1.012 0 1 1-1.078.94c.038-.55.52-.97 1.078-.94ZM180.55 1098.65a1.007 1.007 0 1 1-.141 2.01 1.022 1.022 0 0 1-.939-1.08.994.994 0 0 1 1.08-.93ZM180.807 1095.01a1.012 1.012 0 1 1-.14 2.02 1.012 1.012 0 0 1 .14-2.02ZM181.076 1091.38c.558.04.978.52.939 1.08a1.02 1.02 0 0 1-1.078.94 1.012 1.012 0 0 1 .139-2.02ZM181.334 1087.74c.558.04.98.53.939 1.08a1.016 1.016 0 0 1-2.026-.14c.039-.56.529-.98 1.078-.94h.009ZM181.592 1084.1c.558.04.978.52.939 1.08-.039.56-.52.98-1.078.94a1 1 0 0 1-.931-1.08c.039-.56.52-.98 1.078-.94h-.008ZM181.86 1080.47a1.013 1.013 0 0 1-.139 2.02 1.01 1.01 0 0 1-.939-1.08c.038-.56.52-.98 1.078-.94ZM182.789 1109.89c.428.03.751.4.719.83a.78.78 0 0 1-.835.72.781.781 0 0 1-.72-.83.775.775 0 0 1 .836-.72ZM182.991 1107.09c.428.04.751.41.719.84a.78.78 0 0 1-.835.72.783.783 0 0 1-.719-.84.788.788 0 0 1 .835-.72ZM183.191 1104.3c.429.03.751.41.72.84a.788.788 0 0 1-.835.72.781.781 0 0 1 .115-1.56ZM183.391 1101.5c.428.03.751.41.72.84a.788.788 0 0 1-.835.72.786.786 0 0 1-.72-.84.78.78 0 0 1 .835-.72Z"/></g></g><g clip-path="url(#p)"><path d="M392.289 286.728c-.726-4.733 2.584-9.138 7.417-9.841 4.81-.713 9.285 2.548 10.012 7.282.726 4.733-2.595 9.138-7.405 9.84-4.833.714-9.308-2.547-10.035-7.281h.011Z" fill="#D3B24C"/><path opacity=".9" d="M390.248 294.462c-.542-3.544 1.949-6.851 5.559-7.383 3.599-.521 6.967 1.914 7.509 5.458.542 3.545-1.949 6.851-5.548 7.384-3.61.532-6.978-1.914-7.52-5.459Z" fill="#F8EDBE"/></g><g clip-path="url(#q)"><path d="M331.575 1050.12c-.727-4.73 2.584-9.14 7.417-9.84 4.809-.71 9.285 2.55 10.011 7.28.727 4.74-2.595 9.14-7.405 9.84-4.832.72-9.308-2.55-10.034-7.28h.011Z" fill="#D3B24C"/><path opacity=".9" d="M329.534 1057.86c-.543-3.55 1.949-6.86 5.559-7.39 3.599-.52 6.967 1.92 7.509 5.46.542 3.54-1.949 6.85-5.548 7.38-3.61.54-6.978-1.91-7.52-5.45Z" fill="#F8EDBE"/></g><g clip-path="url(#r)"><path d="M394.313 35.553a7.793 7.793 0 0 1-6.778 8.727c-4.276.544-8.172-2.492-8.716-6.778a7.8 7.8 0 0 1 6.768-8.727 7.81 7.81 0 0 1 8.736 6.779h-.01Z" fill="#D3B24C"/><path opacity=".9" d="M396.285 28.616a5.862 5.862 0 0 1-5.081 6.548 5.865 5.865 0 0 1-6.537-5.08 5.862 5.862 0 0 1 5.071-6.549 5.862 5.862 0 0 1 6.547 5.081Z" fill="#F8EDBE"/></g><g clip-path="url(#s)"><path d="m463.228 598.075 13.082-15.109-16.266-.865 3.184 15.974Z" fill="#D3B24C"/></g><g clip-path="url(#t)"><path d="m415.907 979.325 13.082-15.11-16.267-.864 3.185 15.974Z" fill="#D3B24C"/></g><g clip-path="url(#u)"><path d="m257.603 171.803-19.593-3.946 7.257 14.584 12.336-10.638Z" fill="#D3B24C"/></g><g clip-path="url(#v)"><path d="M255.261 440.167c-1.468-3.236-5.309-4.681-8.575-3.226a6.46 6.46 0 0 0-2.786 2.368 5.839 5.839 0 0 0-.489-1.594c-1.469-3.227-5.309-4.672-8.575-3.218-3.266 1.455-4.725 5.26-3.256 8.495.235.523.536.998.884 1.418a6.45 6.45 0 0 0-3.642.494c-3.257 1.455-4.716 5.259-3.247 8.495 1.468 3.236 5.063 4.588 8.254 3.357a6.364 6.364 0 0 0-.122 5.52c1.468 3.236 5.308 4.681 8.574 3.227a6.422 6.422 0 0 0 3.812-6.211 6.542 6.542 0 0 0 7.219 1.296c3.267-1.454 4.725-5.259 3.257-8.494a6.444 6.444 0 0 0-4.254-3.572c3.04-1.557 4.358-5.213 2.936-8.346l.01-.009Z" fill="#D3B24C"/><path d="M238.413 442.377c-.499.224-.659.923-.367 1.557.546 1.203 2.438 2.798 2.635 2.714.198-.084-.301-2.313-.847-3.506-.292-.644-.932-.98-1.421-.765ZM233.725 450.489c.057.532.678.905 1.384.83 1.318-.14 4.132-1.212 4.113-1.427-.019-.214-3.002-.652-4.33-.512-.706.074-1.233.568-1.167 1.109ZM240.069 457.418c.527.112 1.082-.355 1.224-1.045.272-1.286.112-4.27-.095-4.317-.216-.047-1.562 2.63-1.826 3.916-.141.691.17 1.334.697 1.446ZM248.672 453.576c.273-.466-.009-1.128-.631-1.483-1.148-.652-4.066-1.426-4.169-1.24-.104.187 2.042 2.285 3.191 2.938.611.345 1.336.251 1.6-.215h.009ZM247.655 444.288c-.367-.401-1.082-.335-1.609.131-.019.009-3.596 2.331-2.485 3.543.151.159 2.824-1.221 3.803-2.107.527-.476.658-1.175.291-1.576v.009Z" fill="#0E367B"/></g><g clip-path="url(#w)"><path d="M144.546 899.095c-1.468-3.235-5.309-4.681-8.575-3.226a6.469 6.469 0 0 0-2.786 2.369 5.845 5.845 0 0 0-.489-1.595c-1.468-3.226-5.309-4.672-8.575-3.217-3.266 1.455-4.725 5.259-3.256 8.495.235.522.536.998.884 1.417a6.45 6.45 0 0 0-3.642.495c-3.257 1.454-4.716 5.259-3.247 8.494 1.468 3.236 5.064 4.588 8.254 3.357a6.37 6.37 0 0 0-.122 5.521c1.468 3.236 5.308 4.681 8.574 3.226a6.418 6.418 0 0 0 3.812-6.21c1.855 1.809 4.707 2.415 7.22 1.296 3.266-1.455 4.725-5.259 3.256-8.495a6.438 6.438 0 0 0-4.254-3.571c3.04-1.558 4.358-5.213 2.937-8.346l.009-.01Z" fill="#D3B24C"/><path d="M127.698 901.305c-.498.224-.658.924-.367 1.558.546 1.203 2.438 2.797 2.636 2.713.198-.084-.301-2.312-.847-3.506-.292-.643-.932-.979-1.422-.765ZM123.011 909.418c.056.531.678.904 1.384.83 1.317-.14 4.132-1.212 4.113-1.427-.019-.214-3.003-.653-4.33-.513-.706.075-1.233.569-1.167 1.11ZM129.355 916.346c.527.112 1.082-.354 1.223-1.044.273-1.287.113-4.271-.094-4.318-.216-.046-1.562 2.63-1.826 3.917-.141.69.169 1.333.697 1.445ZM137.958 912.505c.273-.466-.01-1.129-.631-1.483-1.148-.653-4.066-1.427-4.17-1.24-.103.186 2.043 2.284 3.191 2.937.612.345 1.337.252 1.6-.214h.01ZM136.941 903.217c-.367-.401-1.082-.336-1.61.13-.018.01-3.595 2.332-2.484 3.544.15.158 2.823-1.222 3.802-2.107.527-.476.659-1.175.292-1.576v.009Z" fill="#0E367B"/></g><g clip-path="url(#x)"><path d="M338.186 96.454c-2.049-1.466-4.723-1.32-7.186.112-1.675-2.51-4.02-3.976-6.432-3.666-2.412.31-4.333 2.312-5.348 5.167-2.734-.767-5.357-.25-6.991 1.69-2.767 3.287-1.642 9.403 2.522 13.647 4.164 4.252 9.784 5.029 12.551 1.742 3.478 2.493 8.734.328 11.738-4.839 3.005-5.167 2.624-11.369-.854-13.862v.01Z" fill="#D3B24C"/><path d="M323.223 120.184c-1.346.172-2.81.025-4.232-.406-1.955-.604-3.639-1.69-4.731-3.079-1.058-1.337-1.43-2.786-1.049-4.08.491-1.648 2.158-2.812 4.468-3.105 1.346-.173 2.81-.026 4.232.405 1.955.604 3.639 1.691 4.731 3.079 1.058 1.337 1.43 2.786 1.049 4.08-.491 1.648-2.158 2.812-4.468 3.106Z" fill="#0E367B"/><path d="M332.473 119.01c-2.31.294-4.206-.414-5.078-1.889-.685-1.156-.668-2.648.034-4.218.728-1.613 2.091-3.096 3.842-4.166 1.278-.785 2.658-1.285 4.003-1.458 2.311-.293 4.207.414 5.078 1.889.686 1.156.669 2.648-.034 4.218-.727 1.613-2.09 3.097-3.842 4.167-1.278.785-2.657 1.285-4.003 1.457Z" fill="#0E367B"/><path d="M321.124 108.013c-1.464-.846-2.226-2.278-2.226-2.278s1.6-.069 3.064.768c1.464.845 2.226 2.277 2.226 2.277s-1.6.069-3.064-.767Zm5.18-1.053s-1.016-1.268-1.219-2.967c-.203-1.699.465-3.183.465-3.183s1.016 1.268 1.219 2.967c.203 1.7-.465 3.183-.465 3.183Zm5.272-.284c-1.21 1.181-2.784 1.518-2.784 1.518s.398-1.587 1.608-2.769c1.21-1.182 2.784-1.518 2.784-1.518s-.398 1.587-1.608 2.769Z" fill="#FE5226"/></g><g clip-path="url(#y)"><path d="M309.656 960.446c-2.346-.918-4.902-.119-6.938 1.874-2.241-2.021-4.873-2.866-7.135-1.973-2.262.894-3.632 3.306-3.915 6.323-2.839-.072-5.255 1.074-6.361 3.357-1.875 3.865.719 9.517 5.798 12.608 5.081 3.099 10.719 2.47 12.594-1.396 3.984 1.562 8.547-1.828 10.189-7.575 1.643-5.746-.25-11.665-4.234-13.226l.002.008Z" fill="#D3B24C"/><path d="M300.983 987.124c-1.262.498-2.717.716-4.202.647-2.043-.105-3.943-.744-5.342-1.822-1.354-1.036-2.071-2.349-2.02-3.697.071-1.718 1.401-3.256 3.568-4.108 1.262-.498 2.718-.716 4.202-.647 2.043.105 3.943.744 5.342 1.822 1.354 1.036 2.071 2.35 2.02 3.697-.071 1.718-1.401 3.256-3.568 4.108Z" fill="#5A59A2"/><path d="M309.661 983.714c-2.167.852-4.179.632-5.386-.583-.949-.952-1.299-2.403-1.004-4.097.309-1.743 1.266-3.516 2.701-4.983 1.046-1.075 2.26-1.899 3.522-2.397 2.167-.852 4.179-.632 5.386.584.949.952 1.299 2.402 1.004 4.097-.309 1.742-1.265 3.515-2.701 4.982-1.046 1.075-2.26 1.899-3.522 2.397Z" fill="#5A59A2"/><path d="M295.958 975.842c-1.627-.459-2.717-1.66-2.717-1.66s1.533-.46 3.158-.009c1.627.46 2.717 1.661 2.717 1.661s-1.533.46-3.158.008Zm4.762-2.292s-1.296-.98-1.911-2.577c-.614-1.597-.331-3.2-.331-3.2s1.296.98 1.911 2.577c.614 1.597.331 3.2.331 3.2Zm5.041-1.572c-.883 1.443-2.326 2.156-2.326 2.156s-.005-1.636.878-3.079c.883-1.443 2.326-2.156 2.326-2.156s.004 1.636-.878 3.079Z" fill="#FE5226"/></g><g clip-path="url(#z)"><path d="M423.386 405.79c-3.395-1.266-7.069-.085-9.999 2.777-3.242-2.839-7.05-3.988-10.309-2.686-3.259 1.301-5.226 4.751-5.63 9.041-4.106-.058-7.585 1.619-9.175 4.874-2.693 5.522 1.065 13.485 8.404 17.801 7.338 4.316 15.473 3.336 18.173-2.178 5.753 2.15 12.333-2.739 14.686-10.918 2.353-8.178-.405-16.555-6.158-18.705l.008-.006Z" fill="#073786"/><path d="M410.949 443.81c-1.819.722-3.913 1.066-6.057.982-2.953-.114-5.696-.996-7.718-2.494-1.961-1.453-2.999-3.3-2.927-5.208.095-2.445 2.011-4.643 5.139-5.893 1.819-.722 3.914-1.066 6.057-.982 2.953.114 5.696.996 7.719 2.494 1.961 1.453 2.998 3.3 2.926 5.208-.095 2.445-2.011 4.643-5.139 5.893Z" fill="#B59732"/><path d="M423.457 438.826c-3.119 1.243-6.032.963-7.78-.74-1.361-1.335-1.886-3.391-1.464-5.793.439-2.481 1.815-5.005 3.878-7.12 1.502-1.534 3.256-2.737 5.075-3.459 3.119-1.243 6.032-.964 7.781.74 1.36 1.335 1.886 3.391 1.463 5.792-.439 2.481-1.815 5.006-3.878 7.121-1.502 1.534-3.256 2.737-5.075 3.459Z" fill="#B59732"/><path d="M403.654 427.878c-2.349-.624-3.929-2.317-3.929-2.317s2.214-.678 4.563-.054c2.35.624 3.929 2.317 3.929 2.317s-2.213.678-4.563.054Zm6.858-3.327s-1.867-1.37-2.769-3.63c-.902-2.26-.486-4.537-.486-4.537s1.867 1.369 2.769 3.63c.902 2.26.486 4.537.486 4.537Zm7.27-2.312c-1.273 2.069-3.355 3.095-3.355 3.095s-.016-2.317 1.258-4.387c1.273-2.07 3.355-3.096 3.355-3.096s.016 2.318-1.258 4.388Z" fill="#FE5226"/></g><g clip-path="url(#A)"><path d="M308.18 788.371c-.53-3.584-3.338-6.232-7.259-7.417.922-4.21.09-8.099-2.623-10.325-2.713-2.226-6.684-2.284-10.636-.567-1.931-3.624-5.078-5.861-8.697-5.683-6.136.307-11.296 7.442-11.534 15.952-.238 8.511 4.547 15.162 10.679 14.865.894 6.076 8.352 9.479 16.651 7.593 8.298-1.887 14.304-8.346 13.41-14.422l.009.004Z" fill="#FE5226"/><path d="M268.878 795.83c-1.51-1.244-2.822-2.913-3.784-4.83-1.325-2.642-1.876-5.47-1.541-7.964.327-2.419 1.443-4.219 3.149-5.077 2.187-1.097 5.037-.48 7.641 1.657 1.511 1.244 2.823 2.912 3.784 4.83 1.326 2.642 1.877 5.469 1.542 7.964-.327 2.419-1.443 4.219-3.149 5.076-2.187 1.098-5.038.48-7.642-1.656Z" fill="#B59732"/><path d="M279.281 804.38c-2.594-2.132-3.755-4.818-3.107-7.172.513-1.836 2.059-3.288 4.367-4.077 2.384-.813 5.26-.827 8.108-.041 2.068.575 3.968 1.53 5.479 2.775 2.594 2.132 3.755 4.818 3.107 7.172-.513 1.835-2.06 3.288-4.367 4.077-2.385.813-5.26.826-8.108.041-2.069-.575-3.969-1.531-5.479-2.775Z" fill="#B59732"/><path d="M279.311 781.751c-.588-2.359.132-4.559.132-4.559s1.662 1.611 2.25 3.97c.587 2.359-.133 4.559-.133 4.559s-1.662-1.611-2.249-3.97Zm6.224 4.4s.298-2.296 1.842-4.177c1.544-1.881 3.739-2.615 3.739-2.615s-.298 2.296-1.843 4.177c-1.544 1.881-3.738 2.615-3.738 2.615Zm5.534 5.251c-2.428-.116-4.331-1.444-4.331-1.444s2.022-1.132 4.449-1.016c2.428.116 4.331 1.444 4.331 1.444s-2.022 1.133-4.449 1.016Z" fill="#073786"/></g><defs><clipPath id="p"><path fill="#fff" transform="translate(390.179 276.786)" d="M0 0h19.643v23.214H0z"/></clipPath><clipPath id="a"><path fill="#fff" transform="translate(2336.61 172.322)" d="M0 0h15.205v18.304H0z"/></clipPath><clipPath id="c"><path fill="#fff" transform="rotate(59.729 604.94 2385.847)" d="M0 0h52.571v53.554H0z"/></clipPath><clipPath id="e"><path fill="#fff" transform="rotate(-54.652 1773.096 -1806.246)" d="M0 0h19.893v13.768H0z"/></clipPath><clipPath id="f"><path fill="#fff" transform="rotate(141.157 1024.05 556.31)" d="M0 0h19.893v13.768H0z"/></clipPath><clipPath id="g"><path fill="#fff" transform="rotate(141.157 1013.066 941.933)" d="M0 0h19.893v13.768H0z"/></clipPath><clipPath id="h"><path fill="#fff" transform="rotate(35.707 888.79 3405.3)" d="M0 0h30.491v30.777H0z"/></clipPath><clipPath id="i"><path fill="#fff" transform="translate(2215.18 246.428)" d="M0 0h30.357v27.395H0z"/></clipPath><clipPath id="j"><path fill="#fff" transform="rotate(-42.304 1846.812 -2721.945)" d="M0 0h47.816v42.003H0z"/></clipPath><clipPath id="k"><path fill="#fff" transform="translate(2148.21 765.179)" d="M0 0h33.036v33.036H0z"/></clipPath><clipPath id="l"><path fill="#fff" transform="rotate(171.411 156.258 299.646)" d="M0 0h52.571v53.554H0z"/></clipPath><clipPath id="n"><path fill="#fff" transform="rotate(-12.738 4884.432 -82.424)" d="M0 0h52.571v53.554H0z"/></clipPath><clipPath id="b"><path fill="#fff" transform="rotate(-118.283 1261.694 -388.74)" d="M0 0h15.205v18.304H0z"/></clipPath><clipPath id="q"><path fill="#fff" transform="translate(329.464 1040.18)" d="M0 0h19.643v23.214H0z"/></clipPath><clipPath id="r"><path fill="#fff" transform="rotate(-178.661 198.247 19.97)" d="M0 0h17.407v20.953H0z"/></clipPath><clipPath id="s"><path fill="#fff" transform="rotate(-54.652 798.893 -143.29)" d="M0 0h19.893v13.768H0z"/></clipPath><clipPath id="t"><path fill="#fff" transform="rotate(-54.652 1144.154 93.125)" d="M0 0h19.893v13.768H0z"/></clipPath><clipPath id="u"><path fill="#fff" transform="rotate(-174.151 132.887 85.241)" d="M0 0h19.893v13.768H0z"/></clipPath><clipPath id="v"><path fill="#fff" transform="translate(225 433.928)" d="M0 0h32.143v32.143H0z"/></clipPath><clipPath id="w"><path fill="#fff" transform="translate(114.286 892.857)" d="M0 0h32.143v32.143H0z"/></clipPath><clipPath id="x"><path fill="#fff" transform="translate(310.714 92.857)" d="M0 0h30.357v27.395H0z"/></clipPath><clipPath id="y"><path fill="#fff" transform="rotate(-14.225 4002.789 -648.732)" d="M0 0h30.357v27.395H0z"/></clipPath><clipPath id="z"><path fill="#fff" transform="rotate(-38.647 793.657 -332.216)" d="M0 0h44.811v39.363H0z"/></clipPath><clipPath id="A"><path fill="#fff" transform="rotate(22.493 -1773.912 1065.988)" d="M0 0h44.811v39.363H0z"/></clipPath></defs></svg>