<svg width="2600" height="1179" viewBox="0 0 2600 1179" fill="none" xmlns="http://www.w3.org/2000/svg">
<path d="M2493.94 173.928C2435.38 135.29 2347.6 133.62 2311.74 164.852C2297.36 177.388 2282.43 199.472 2299.31 237.698C2301.74 243.153 2306.03 252.241 2308.93 257.689C2316.63 272.019 2327.09 285.695 2323.58 302.254C2319.85 319.743 2293.05 326.788 2269.96 333.251C2262.2 335.419 2251.33 337.482 2246.46 344.865C2241.6 352.248 2249.6 362.053 2254.07 367.063L2254.61 367.64C2263.23 377.309 2274.03 384.644 2283.96 392.261C2297.83 402.869 2310.71 414.063 2321.03 430.233C2337.26 455.551 2333.89 472.357 2328.13 483.653C2318.22 503.103 2296.34 514.919 2265.74 517.085C2263.11 517.292 2262.89 513.114 2265.11 513.092C2293.89 513.041 2316.5 500.091 2325.6 482.257C2333.03 467.763 2330.67 450.312 2318.89 431.908C2309.04 416.567 2295.76 406.34 2281.63 395.559C2271.48 387.804 2262.04 380.73 2253.11 370.71L2251.52 369.155C2246.22 363.911 2239.33 353.303 2242.68 345.324C2246.45 336.323 2260.25 332.179 2268.57 329.842C2287.75 324.516 2317.36 315.321 2320.3 301.441C2323.46 286.632 2313.22 272.489 2305.83 258.741C2302.88 253.259 2299.84 247.565 2297.31 241.898C2283.17 209.851 2287.59 181.531 2309.74 162.271C2327.34 146.937 2355.54 138.425 2387.06 138.841C2419.79 139.27 2463.07 150.153 2490.55 167.476" fill="#DDBB3E"/>
<g clip-path="url(#clip0_132_333480)">
<path d="M2338.24 180.161C2337.68 176.428 2340.24 172.955 2343.98 172.402C2347.71 171.839 2351.17 174.411 2351.73 178.143C2352.29 181.875 2349.72 185.348 2346 185.902C2342.26 186.464 2338.79 183.893 2338.23 180.161H2338.24Z" fill="#D3B24C"/>
<path opacity="0.9" d="M2336.66 186.259C2336.24 183.464 2338.17 180.857 2340.96 180.438C2343.75 180.027 2346.36 181.947 2346.78 184.741C2347.2 187.536 2345.27 190.143 2342.48 190.563C2339.69 190.982 2337.08 189.054 2336.66 186.259Z" fill="#F8EDBE"/>
</g>
<g clip-path="url(#clip1_132_333480)">
<path d="M2207.98 532.981C2204.96 535.245 2200.68 534.634 2198.42 531.601C2196.16 528.589 2196.79 524.32 2199.81 522.056C2202.83 519.793 2207.1 520.412 2209.36 523.428C2211.62 526.456 2211 530.725 2207.98 532.989L2207.98 532.981Z" fill="#D3B24C"/>
<path opacity="0.9" d="M2214.1 531.483C2211.83 533.177 2208.62 532.714 2206.93 530.452C2205.25 528.193 2205.7 524.988 2207.97 523.294C2210.23 521.6 2213.44 522.063 2215.13 524.317C2216.82 526.58 2216.36 529.789 2214.1 531.483Z" fill="#F8EDBE"/>
</g>
<g clip-path="url(#clip2_132_333480)">
<path d="M2346.13 690.749C2343.19 695.341 2337.08 696.673 2332.49 693.729C2327.9 690.786 2326.56 684.67 2329.5 680.078C2332.45 675.486 2338.56 674.149 2343.16 677.093C2347.75 680.037 2349.08 686.145 2346.14 690.737L2346.13 690.749Z" fill="#5A59A2"/>
<mask id="mask0_132_333480" style="mask-type:luminance" maskUnits="userSpaceOnUse" x="2335" y="682" width="29" height="28">
<path d="M2363 692.709C2364.76 700.098 2360.2 707.524 2352.82 709.283C2345.43 711.042 2338.01 706.48 2336.24 699.096C2334.48 691.708 2339.04 684.29 2346.43 682.523C2353.82 680.764 2361.24 685.321 2363 692.709Z" fill="white"/>
</mask>
<g mask="url(#mask0_132_333480)">
<path d="M2336.3 683.367C2336.4 683.785 2336.14 684.206 2335.73 684.3C2335.31 684.399 2334.89 684.138 2334.79 683.721C2334.69 683.303 2334.96 682.882 2335.37 682.783C2335.79 682.684 2336.21 682.945 2336.31 683.362L2336.3 683.367Z" fill="#5A59A2"/>
<path d="M2339.03 682.714C2339.13 683.131 2338.87 683.552 2338.46 683.652C2338.04 683.751 2337.62 683.49 2337.52 683.072C2337.42 682.654 2337.68 682.233 2338.1 682.134C2338.51 682.035 2338.94 682.296 2339.03 682.714Z" fill="#5A59A2"/>
<path d="M2341.76 682.065C2341.86 682.483 2341.59 682.904 2341.18 683.003C2340.76 683.102 2340.34 682.841 2340.24 682.424C2340.14 682.006 2340.4 681.585 2340.82 681.486C2341.24 681.387 2341.66 681.648 2341.76 682.065Z" fill="#5A59A2"/>
<path d="M2344.48 681.417C2344.58 681.835 2344.32 682.256 2343.9 682.355C2343.48 682.454 2343.07 682.201 2342.96 681.775C2342.86 681.357 2343.12 680.936 2343.54 680.837C2343.96 680.738 2344.38 680.999 2344.48 681.417Z" fill="#5A59A2"/>
<path d="M2337.95 686.098C2338.08 686.641 2337.75 687.187 2337.2 687.318C2336.66 687.449 2336.11 687.109 2335.98 686.573C2335.85 686.029 2336.18 685.484 2336.73 685.352C2337.27 685.221 2337.82 685.554 2337.95 686.098Z" fill="#5A59A2"/>
<path d="M2341.5 685.247C2341.63 685.791 2341.29 686.341 2340.75 686.468C2340.21 686.599 2339.66 686.267 2339.53 685.723C2339.4 685.179 2339.73 684.633 2340.27 684.502C2340.82 684.371 2341.37 684.711 2341.5 685.247Z" fill="#5A59A2"/>
<path d="M2345.04 684.41C2345.17 684.953 2344.83 685.504 2344.29 685.63C2343.75 685.762 2343.2 685.421 2343.07 684.885C2342.94 684.342 2343.27 683.796 2343.82 683.665C2344.36 683.533 2344.91 683.866 2345.04 684.41Z" fill="#5A59A2"/>
<path d="M2348.58 683.56C2348.71 684.104 2348.38 684.649 2347.84 684.781C2347.29 684.912 2346.74 684.571 2346.61 684.028C2346.48 683.484 2346.81 682.938 2347.36 682.807C2347.9 682.676 2348.45 683.009 2348.58 683.552L2348.58 683.56Z" fill="#5A59A2"/>
<path d="M2352.12 682.715C2352.25 683.258 2351.92 683.804 2351.38 683.935C2350.83 684.067 2350.29 683.734 2350.16 683.19C2350.03 682.646 2350.36 682.101 2350.9 681.969C2351.45 681.838 2351.99 682.171 2352.12 682.719L2352.12 682.715Z" fill="#5A59A2"/>
<path d="M2355.67 681.872C2355.8 682.416 2355.46 682.966 2354.93 683.093C2354.38 683.224 2353.84 682.892 2353.71 682.348C2353.58 681.804 2353.91 681.258 2354.45 681.127C2355 680.996 2355.54 681.329 2355.67 681.872Z" fill="#5A59A2"/>
<path d="M2359.22 681.023C2359.35 681.566 2359.01 682.116 2358.47 682.243C2357.93 682.374 2357.38 682.042 2357.25 681.498C2357.12 680.954 2357.45 680.409 2358 680.277C2358.54 680.146 2359.09 680.487 2359.22 681.023Z" fill="#5A59A2"/>
<path d="M2337.71 689.273C2337.81 689.691 2337.56 690.108 2337.14 690.207C2336.72 690.306 2336.3 690.045 2336.2 689.627C2336.11 689.21 2336.37 688.788 2336.78 688.689C2337.2 688.59 2337.62 688.851 2337.72 689.269L2337.71 689.273Z" fill="#5A59A2"/>
<path d="M2340.45 688.62C2340.54 689.038 2340.28 689.459 2339.87 689.558C2339.45 689.657 2339.03 689.396 2338.93 688.979C2338.83 688.561 2339.09 688.14 2339.51 688.041C2339.93 687.942 2340.34 688.195 2340.45 688.62Z" fill="#5A59A2"/>
<path d="M2343.17 687.972C2343.27 688.389 2343.01 688.811 2342.59 688.91C2342.17 689.009 2341.75 688.756 2341.65 688.33C2341.55 687.912 2341.8 687.496 2342.23 687.392C2342.65 687.293 2343.06 687.546 2343.17 687.972Z" fill="#5A59A2"/>
<path d="M2345.89 687.323C2345.99 687.741 2345.73 688.162 2345.31 688.261C2344.89 688.36 2344.47 688.099 2344.37 687.682C2344.27 687.264 2344.54 686.843 2344.95 686.744C2345.37 686.645 2345.79 686.906 2345.89 687.323Z" fill="#5A59A2"/>
<path d="M2348.61 686.675C2348.71 687.093 2348.45 687.514 2348.03 687.613C2347.62 687.712 2347.2 687.451 2347.1 687.033C2347 686.616 2347.25 686.199 2347.68 686.095C2348.09 685.996 2348.51 686.257 2348.61 686.675Z" fill="#5A59A2"/>
<path d="M2351.34 686.022C2351.44 686.44 2351.18 686.861 2350.77 686.96C2350.35 687.059 2349.93 686.798 2349.83 686.38C2349.73 685.962 2349.99 685.541 2350.41 685.442C2350.82 685.343 2351.24 685.596 2351.34 686.014L2351.34 686.022Z" fill="#5A59A2"/>
<path d="M2354.07 685.373C2354.17 685.791 2353.91 686.208 2353.49 686.311C2353.07 686.41 2352.65 686.149 2352.55 685.732C2352.45 685.314 2352.71 684.893 2353.13 684.794C2353.55 684.695 2353.96 684.948 2354.07 685.373Z" fill="#5A59A2"/>
<path d="M2356.79 684.725C2356.89 685.142 2356.63 685.563 2356.21 685.663C2355.79 685.762 2355.37 685.501 2355.27 685.083C2355.17 684.665 2355.43 684.249 2355.85 684.145C2356.27 684.046 2356.69 684.299 2356.79 684.725Z" fill="#5A59A2"/>
<path d="M2359.51 684.076C2359.61 684.494 2359.35 684.915 2358.93 685.014C2358.52 685.113 2358.1 684.852 2358 684.435C2357.9 684.017 2358.16 683.596 2358.58 683.497C2358.99 683.398 2359.41 683.651 2359.51 684.076Z" fill="#5A59A2"/>
<path d="M2362.38 683.395C2362.48 683.812 2362.22 684.233 2361.8 684.332C2361.38 684.431 2360.96 684.171 2360.86 683.753C2360.77 683.335 2361.03 682.914 2361.44 682.82C2361.85 682.72 2362.28 682.981 2362.37 683.399L2362.38 683.395Z" fill="#5A59A2"/>
<path d="M2365.11 682.741C2365.21 683.159 2364.95 683.58 2364.53 683.679C2364.12 683.778 2363.69 683.517 2363.6 683.1C2363.5 682.682 2363.75 682.265 2364.17 682.162C2364.59 682.063 2365.01 682.324 2365.11 682.741Z" fill="#5A59A2"/>
<path d="M2335.81 692.854C2335.94 693.398 2335.61 693.943 2335.07 694.075C2334.52 694.206 2333.97 693.865 2333.85 693.317C2333.72 692.773 2334.05 692.228 2334.6 692.096C2335.14 691.965 2335.68 692.298 2335.82 692.842L2335.81 692.854Z" fill="#5A59A2"/>
<path d="M2339.36 692.004C2339.49 692.548 2339.16 693.094 2338.61 693.225C2338.07 693.356 2337.52 693.016 2337.39 692.48C2337.26 691.936 2337.59 691.39 2338.14 691.259C2338.68 691.128 2339.23 691.461 2339.36 692.004Z" fill="#5A59A2"/>
<path d="M2342.9 691.158C2343.03 691.702 2342.7 692.248 2342.15 692.379C2341.61 692.51 2341.06 692.177 2340.93 691.634C2340.8 691.09 2341.13 690.544 2341.68 690.413C2342.22 690.282 2342.77 690.615 2342.9 691.158Z" fill="#5A59A2"/>
<path d="M2346.45 690.316C2346.58 690.86 2346.25 691.406 2345.7 691.537C2345.16 691.668 2344.61 691.335 2344.48 690.792C2344.35 690.248 2344.68 689.702 2345.23 689.571C2345.77 689.44 2346.32 689.773 2346.45 690.316Z" fill="#5A59A2"/>
<path d="M2349.99 689.471C2350.12 690.014 2349.78 690.56 2349.24 690.691C2348.7 690.823 2348.15 690.482 2348.02 689.946C2347.89 689.403 2348.22 688.857 2348.77 688.726C2349.31 688.594 2349.86 688.927 2349.99 689.471Z" fill="#5A59A2"/>
<path d="M2353.53 688.621C2353.66 689.164 2353.33 689.71 2352.79 689.841C2352.24 689.973 2351.69 689.632 2351.57 689.096C2351.44 688.552 2351.77 688.007 2352.31 687.875C2352.86 687.744 2353.4 688.077 2353.53 688.621Z" fill="#5A59A2"/>
<path d="M2357.08 687.779C2357.22 688.323 2356.87 688.873 2356.34 689C2355.8 689.131 2355.24 688.79 2355.11 688.247C2354.98 687.703 2355.32 687.157 2355.86 687.026C2356.4 686.895 2356.95 687.228 2357.08 687.771L2357.08 687.779Z" fill="#5A59A2"/>
<path d="M2360.63 686.929C2360.76 687.473 2360.42 688.023 2359.89 688.15C2359.34 688.281 2358.8 687.948 2358.66 687.405C2358.53 686.861 2358.87 686.315 2359.41 686.184C2359.95 686.053 2360.5 686.385 2360.63 686.929Z" fill="#5A59A2"/>
<path d="M2364.17 686.091C2364.3 686.635 2363.96 687.185 2363.43 687.312C2362.88 687.443 2362.33 687.103 2362.21 686.567C2362.08 686.023 2362.41 685.477 2362.95 685.346C2363.5 685.215 2364.04 685.547 2364.17 686.091Z" fill="#5A59A2"/>
<path d="M2336.4 695.828C2336.5 696.246 2336.24 696.667 2335.83 696.762C2335.41 696.861 2334.99 696.6 2334.89 696.182C2334.79 695.764 2335.05 695.343 2335.47 695.244C2335.89 695.145 2336.31 695.406 2336.41 695.824L2336.4 695.828Z" fill="#5A59A2"/>
<path d="M2339.13 695.18C2339.22 695.597 2338.96 696.018 2338.55 696.113C2338.14 696.212 2337.72 695.959 2337.62 695.541C2337.52 695.124 2337.78 694.703 2338.2 694.603C2338.62 694.504 2339.04 694.765 2339.14 695.183L2339.13 695.18Z" fill="#5A59A2"/>
<path d="M2341.85 694.531C2341.95 694.949 2341.69 695.37 2341.27 695.469C2340.85 695.568 2340.43 695.307 2340.33 694.889C2340.23 694.472 2340.49 694.051 2340.91 693.952C2341.33 693.853 2341.75 694.106 2341.85 694.531Z" fill="#5A59A2"/>
<path d="M2344.57 693.883C2344.67 694.3 2344.41 694.721 2343.99 694.82C2343.57 694.92 2343.15 694.659 2343.05 694.241C2342.96 693.823 2343.22 693.402 2343.63 693.303C2344.05 693.204 2344.47 693.465 2344.57 693.883Z" fill="#5A59A2"/>
<path d="M2347.3 693.23C2347.4 693.648 2347.14 694.069 2346.72 694.168C2346.31 694.267 2345.88 694.006 2345.79 693.588C2345.69 693.17 2345.95 692.749 2346.36 692.65C2346.78 692.551 2347.2 692.812 2347.3 693.23Z" fill="#5A59A2"/>
<path d="M2350.03 692.581C2350.12 692.999 2349.86 693.42 2349.45 693.519C2349.03 693.618 2348.61 693.357 2348.51 692.939C2348.41 692.522 2348.67 692.101 2349.09 692.002C2349.51 691.903 2349.93 692.163 2350.03 692.581Z" fill="#5A59A2"/>
<path d="M2352.75 691.932C2352.85 692.35 2352.59 692.771 2352.17 692.87C2351.75 692.969 2351.33 692.716 2351.23 692.291C2351.13 691.873 2351.38 691.457 2351.81 691.353C2352.23 691.254 2352.65 691.515 2352.75 691.932Z" fill="#5A59A2"/>
<path d="M2355.47 691.284C2355.57 691.702 2355.32 692.118 2354.89 692.222C2354.47 692.321 2354.05 692.06 2353.95 691.642C2353.85 691.225 2354.12 690.804 2354.53 690.705C2354.95 690.605 2355.37 690.866 2355.47 691.284Z" fill="#5A59A2"/>
<path d="M2358.2 690.631C2358.3 691.049 2358.05 691.465 2357.62 691.569C2357.2 691.668 2356.78 691.407 2356.68 690.989C2356.58 690.572 2356.85 690.151 2357.26 690.051C2357.68 689.952 2358.1 690.213 2358.2 690.623L2358.2 690.631Z" fill="#5A59A2"/>
<path d="M2360.92 689.982C2361.02 690.4 2360.77 690.817 2360.35 690.916C2359.93 691.015 2359.51 690.754 2359.41 690.336C2359.32 689.919 2359.58 689.497 2359.99 689.398C2360.41 689.299 2360.83 689.56 2360.93 689.978L2360.92 689.982Z" fill="#5A59A2"/>
<path d="M2363.79 689.301C2363.89 689.718 2363.63 690.139 2363.21 690.238C2362.8 690.338 2362.38 690.077 2362.28 689.659C2362.18 689.241 2362.44 688.82 2362.86 688.721C2363.27 688.622 2363.69 688.883 2363.79 689.301Z" fill="#5A59A2"/>
<path d="M2337.22 698.76C2337.36 699.304 2337.02 699.85 2336.48 699.981C2335.94 700.112 2335.39 699.779 2335.26 699.236C2335.13 698.692 2335.46 698.146 2336 698.015C2336.55 697.884 2337.09 698.216 2337.22 698.76Z" fill="#5A59A2"/>
<path d="M2340.76 697.915C2340.89 698.458 2340.56 699.004 2340.02 699.135C2339.47 699.267 2338.93 698.934 2338.8 698.39C2338.67 697.846 2339 697.301 2339.54 697.169C2340.09 697.038 2340.64 697.379 2340.76 697.915Z" fill="#5A59A2"/>
<path d="M2344.31 697.065C2344.44 697.608 2344.11 698.154 2343.56 698.285C2343.02 698.416 2342.47 698.084 2342.34 697.54C2342.21 696.996 2342.54 696.451 2343.09 696.319C2343.63 696.188 2344.18 696.521 2344.31 697.065Z" fill="#5A59A2"/>
<path d="M2347.86 696.223C2347.99 696.766 2347.66 697.312 2347.11 697.443C2346.57 697.574 2346.02 697.242 2345.89 696.698C2345.76 696.154 2346.1 695.609 2346.64 695.477C2347.18 695.346 2347.73 695.687 2347.86 696.223Z" fill="#5A59A2"/>
<path d="M2351.4 695.377C2351.53 695.921 2351.2 696.467 2350.65 696.598C2350.11 696.729 2349.56 696.396 2349.43 695.845C2349.3 695.301 2349.63 694.756 2350.17 694.624C2350.72 694.493 2351.27 694.834 2351.39 695.374L2351.4 695.377Z" fill="#5A59A2"/>
<path d="M2354.95 694.535C2355.08 695.079 2354.75 695.624 2354.2 695.756C2353.66 695.887 2353.11 695.554 2352.98 695.01C2352.85 694.467 2353.18 693.921 2353.73 693.797C2354.28 693.666 2354.82 693.999 2354.94 694.547L2354.95 694.535Z" fill="#5A59A2"/>
<path d="M2358.49 693.685C2358.63 694.229 2358.29 694.779 2357.75 694.906C2357.21 695.037 2356.66 694.704 2356.53 694.16C2356.4 693.617 2356.73 693.071 2357.27 692.94C2357.82 692.808 2358.36 693.141 2358.49 693.685Z" fill="#5A59A2"/>
<path d="M2362.03 692.84C2362.16 693.383 2361.82 693.934 2361.29 694.06C2360.74 694.192 2360.2 693.859 2360.07 693.315C2359.94 692.771 2360.28 692.221 2360.81 692.094C2361.36 691.963 2361.9 692.296 2362.03 692.84Z" fill="#5A59A2"/>
<path d="M2365.58 691.998C2365.72 692.541 2365.37 693.091 2364.84 693.218C2364.3 693.349 2363.75 693.017 2363.61 692.465C2363.48 691.922 2363.82 691.376 2364.36 691.252C2364.91 691.121 2365.45 691.454 2365.58 691.998Z" fill="#5A59A2"/>
<path d="M2337.81 701.747C2337.91 702.165 2337.65 702.586 2337.23 702.685C2336.81 702.784 2336.39 702.523 2336.29 702.106C2336.19 701.688 2336.45 701.267 2336.87 701.168C2337.29 701.069 2337.71 701.322 2337.81 701.747Z" fill="#5A59A2"/>
<path d="M2340.54 701.094C2340.64 701.512 2340.38 701.933 2339.96 702.032C2339.54 702.131 2339.12 701.87 2339.02 701.452C2338.92 701.035 2339.18 700.614 2339.6 700.515C2340.02 700.416 2340.44 700.676 2340.54 701.094Z" fill="#5A59A2"/>
<path d="M2343.26 700.438C2343.36 700.856 2343.1 701.277 2342.68 701.376C2342.26 701.475 2341.84 701.214 2341.74 700.797C2341.64 700.379 2341.9 699.958 2342.32 699.859C2342.74 699.76 2343.16 700.021 2343.26 700.438Z" fill="#5A59A2"/>
<path d="M2345.98 699.79C2346.08 700.208 2345.82 700.629 2345.4 700.728C2344.98 700.827 2344.56 700.566 2344.46 700.148C2344.37 699.731 2344.63 699.309 2345.04 699.21C2345.46 699.111 2345.88 699.372 2345.98 699.79Z" fill="#5A59A2"/>
<path d="M2348.72 699.144C2348.82 699.562 2348.56 699.983 2348.14 700.082C2347.72 700.181 2347.3 699.92 2347.2 699.503C2347.1 699.085 2347.36 698.664 2347.78 698.565C2348.2 698.466 2348.62 698.727 2348.72 699.144Z" fill="#5A59A2"/>
<path d="M2351.44 698.488C2351.53 698.906 2351.27 699.327 2350.86 699.426C2350.44 699.525 2350.02 699.264 2349.92 698.847C2349.82 698.429 2350.08 698.008 2350.5 697.909C2350.92 697.81 2351.34 698.071 2351.44 698.488Z" fill="#5A59A2"/>
<path d="M2354.16 697.84C2354.26 698.257 2354 698.678 2353.58 698.778C2353.16 698.877 2352.74 698.616 2352.64 698.198C2352.54 697.78 2352.8 697.359 2353.22 697.26C2353.64 697.161 2354.06 697.422 2354.16 697.84Z" fill="#5A59A2"/>
<path d="M2356.88 697.191C2356.98 697.609 2356.72 698.03 2356.3 698.129C2355.88 698.228 2355.46 697.967 2355.36 697.549C2355.26 697.132 2355.53 696.711 2355.94 696.612C2356.36 696.512 2356.78 696.773 2356.88 697.191Z" fill="#5A59A2"/>
<path d="M2359.6 696.543C2359.7 696.96 2359.44 697.381 2359.02 697.48C2358.61 697.579 2358.19 697.326 2358.09 696.901C2357.99 696.483 2358.25 696.062 2358.67 695.963C2359.08 695.864 2359.5 696.125 2359.6 696.543Z" fill="#5A59A2"/>
<path d="M2362.33 695.889C2362.43 696.307 2362.17 696.728 2361.75 696.827C2361.34 696.926 2360.92 696.666 2360.82 696.248C2360.72 695.83 2360.98 695.409 2361.4 695.31C2361.81 695.211 2362.24 695.472 2362.33 695.889Z" fill="#5A59A2"/>
<path d="M2365.2 695.208C2365.3 695.625 2365.04 696.046 2364.62 696.145C2364.21 696.245 2363.79 695.984 2363.69 695.566C2363.59 695.148 2363.85 694.727 2364.27 694.628C2364.68 694.529 2365.1 694.79 2365.2 695.208Z" fill="#5A59A2"/>
<path d="M2338.63 704.671C2338.76 705.215 2338.43 705.761 2337.88 705.892C2337.34 706.023 2336.79 705.691 2336.66 705.147C2336.53 704.603 2336.86 704.058 2337.41 703.926C2337.95 703.795 2338.5 704.128 2338.63 704.671Z" fill="#5A59A2"/>
<path d="M2342.17 703.822C2342.31 704.365 2341.97 704.911 2341.43 705.042C2340.88 705.174 2340.33 704.833 2340.21 704.297C2340.08 703.753 2340.41 703.208 2340.95 703.076C2341.5 702.945 2342.04 703.278 2342.17 703.822Z" fill="#5A59A2"/>
<path d="M2345.72 702.979C2345.86 703.523 2345.51 704.073 2344.98 704.2C2344.44 704.331 2343.89 703.998 2343.76 703.455C2343.63 702.911 2343.96 702.365 2344.5 702.234C2345.05 702.103 2345.59 702.436 2345.72 702.979Z" fill="#5A59A2"/>
<path d="M2349.26 702.134C2349.39 702.678 2349.05 703.228 2348.52 703.355C2347.97 703.486 2347.43 703.153 2347.3 702.609C2347.17 702.066 2347.5 701.52 2348.04 701.389C2348.59 701.257 2349.13 701.59 2349.27 702.142L2349.26 702.134Z" fill="#5A59A2"/>
<path d="M2352.81 701.284C2352.94 701.828 2352.6 702.378 2352.06 702.505C2351.52 702.636 2350.97 702.303 2350.84 701.76C2350.71 701.216 2351.04 700.67 2351.59 700.539C2352.13 700.408 2352.68 700.748 2352.81 701.284Z" fill="#5A59A2"/>
<path d="M2356.36 700.442C2356.49 700.986 2356.16 701.532 2355.61 701.663C2355.07 701.794 2354.52 701.461 2354.39 700.918C2354.26 700.374 2354.6 699.828 2355.14 699.697C2355.68 699.566 2356.23 699.899 2356.36 700.442Z" fill="#5A59A2"/>
<path d="M2359.9 699.597C2360.03 700.14 2359.69 700.69 2359.15 700.817C2358.61 700.948 2358.06 700.616 2357.93 700.072C2357.8 699.528 2358.13 698.983 2358.68 698.851C2359.22 698.72 2359.77 699.053 2359.9 699.597Z" fill="#5A59A2"/>
<path d="M2363.44 698.747C2363.58 699.291 2363.24 699.841 2362.7 699.967C2362.16 700.099 2361.61 699.758 2361.47 699.215C2361.34 698.671 2361.68 698.125 2362.22 697.994C2362.76 697.863 2363.31 698.203 2363.44 698.739L2363.44 698.747Z" fill="#5A59A2"/>
<path d="M2336.5 708.302C2336.6 708.72 2336.34 709.141 2335.92 709.24C2335.5 709.339 2335.08 709.086 2334.98 708.661C2334.88 708.243 2335.14 707.822 2335.56 707.723C2335.98 707.624 2336.39 707.877 2336.5 708.302Z" fill="#5A59A2"/>
<path d="M2339.22 707.654C2339.32 708.072 2339.06 708.493 2338.64 708.592C2338.22 708.691 2337.8 708.43 2337.7 708.012C2337.61 707.595 2337.87 707.173 2338.28 707.074C2338.7 706.975 2339.12 707.236 2339.22 707.654Z" fill="#5A59A2"/>
<path d="M2341.94 707.005C2342.04 707.423 2341.78 707.844 2341.36 707.943C2340.95 708.042 2340.53 707.782 2340.43 707.364C2340.33 706.946 2340.59 706.525 2341.01 706.426C2341.42 706.327 2341.84 706.58 2341.94 707.005Z" fill="#5A59A2"/>
<path d="M2344.67 706.352C2344.77 706.77 2344.51 707.191 2344.09 707.29C2343.68 707.389 2343.26 707.128 2343.16 706.711C2343.06 706.293 2343.31 705.876 2343.74 705.773C2344.15 705.674 2344.58 705.935 2344.67 706.352Z" fill="#5A59A2"/>
<path d="M2347.39 705.696C2347.49 706.114 2347.23 706.535 2346.81 706.634C2346.4 706.733 2345.98 706.48 2345.88 706.062C2345.78 705.644 2346.04 705.223 2346.46 705.124C2346.88 705.025 2347.3 705.286 2347.4 705.704L2347.39 705.696Z" fill="#5A59A2"/>
<path d="M2350.12 705.047C2350.21 705.465 2349.95 705.886 2349.54 705.985C2349.12 706.084 2348.7 705.824 2348.6 705.406C2348.5 704.988 2348.76 704.567 2349.18 704.468C2349.6 704.369 2350.02 704.63 2350.12 705.047Z" fill="#5A59A2"/>
<path d="M2352.84 704.399C2352.94 704.817 2352.68 705.238 2352.26 705.337C2351.84 705.436 2351.42 705.175 2351.32 704.757C2351.22 704.34 2351.48 703.923 2351.9 703.82C2352.32 703.72 2352.74 703.981 2352.84 704.399Z" fill="#5A59A2"/>
<path d="M2355.57 703.754C2355.67 704.171 2355.41 704.592 2354.99 704.692C2354.58 704.791 2354.16 704.53 2354.06 704.112C2353.96 703.694 2354.22 703.273 2354.64 703.174C2355.05 703.075 2355.48 703.336 2355.57 703.754Z" fill="#5A59A2"/>
<path d="M2358.29 703.097C2358.39 703.515 2358.14 703.932 2357.71 704.035C2357.3 704.134 2356.87 703.874 2356.78 703.456C2356.68 703.038 2356.94 702.617 2357.35 702.518C2357.77 702.419 2358.19 702.68 2358.29 703.097Z" fill="#5A59A2"/>
<path d="M2361.02 702.449C2361.11 702.867 2360.85 703.288 2360.44 703.387C2360.02 703.486 2359.6 703.225 2359.5 702.807C2359.4 702.39 2359.66 701.969 2360.08 701.87C2360.5 701.771 2360.92 702.031 2361.02 702.449Z" fill="#5A59A2"/>
<path d="M2363.74 701.801C2363.84 702.218 2363.58 702.639 2363.16 702.738C2362.74 702.838 2362.32 702.577 2362.22 702.159C2362.12 701.741 2362.38 701.32 2362.8 701.221C2363.22 701.122 2363.63 701.375 2363.74 701.801Z" fill="#5A59A2"/>
<path d="M2340.04 710.578C2340.17 711.122 2339.84 711.668 2339.29 711.799C2338.75 711.93 2338.2 711.59 2338.07 711.046C2337.94 710.502 2338.27 709.957 2338.81 709.825C2339.36 709.694 2339.9 710.027 2340.03 710.571L2340.04 710.578Z" fill="#5A59A2"/>
<path d="M2343.58 709.729C2343.72 710.272 2343.38 710.822 2342.84 710.949C2342.3 711.08 2341.75 710.74 2341.61 710.196C2341.48 709.653 2341.82 709.107 2342.36 708.976C2342.9 708.844 2343.45 709.177 2343.58 709.721L2343.58 709.729Z" fill="#5A59A2"/>
<path d="M2347.13 708.891C2347.26 709.434 2346.93 709.98 2346.38 710.111C2345.84 710.243 2345.29 709.902 2345.16 709.366C2345.03 708.822 2345.36 708.277 2345.91 708.146C2346.45 708.014 2347 708.347 2347.13 708.891Z" fill="#5A59A2"/>
<path d="M2350.67 708.041C2350.81 708.585 2350.47 709.13 2349.93 709.262C2349.38 709.393 2348.83 709.052 2348.72 708.512C2348.6 707.971 2348.92 707.422 2349.46 707.291C2350 707.16 2350.55 707.493 2350.67 708.041Z" fill="#5A59A2"/>
<path d="M2354.22 707.191C2354.35 707.735 2354.02 708.28 2353.47 708.412C2352.93 708.543 2352.39 708.21 2352.25 707.666C2352.12 707.123 2352.46 706.577 2353 706.446C2353.54 706.315 2354.09 706.647 2354.22 707.191Z" fill="#5A59A2"/>
<path d="M2357.76 706.354C2357.89 706.897 2357.56 707.443 2357.02 707.574C2356.47 707.706 2355.92 707.365 2355.8 706.829C2355.67 706.285 2356 705.74 2356.54 705.608C2357.09 705.477 2357.64 705.818 2357.76 706.354Z" fill="#5A59A2"/>
<path d="M2361.31 705.503C2361.44 706.047 2361.1 706.597 2360.56 706.724C2360.02 706.855 2359.47 706.515 2359.34 705.971C2359.21 705.427 2359.54 704.882 2360.08 704.75C2360.63 704.619 2361.18 704.959 2361.3 705.495L2361.31 705.503Z" fill="#5A59A2"/>
<path d="M2364.86 704.653C2364.99 705.197 2364.65 705.743 2364.11 705.874C2363.57 706.005 2363.02 705.673 2362.89 705.129C2362.76 704.585 2363.09 704.039 2363.64 703.916C2364.18 703.785 2364.73 704.117 2364.86 704.661L2364.86 704.653Z" fill="#5A59A2"/>
<path d="M2354.25 710.314C2354.35 710.731 2354.09 711.152 2353.67 711.251C2353.26 711.35 2352.84 711.097 2352.74 710.672C2352.64 710.254 2352.9 709.833 2353.32 709.734C2353.73 709.635 2354.15 709.896 2354.25 710.314Z" fill="#5A59A2"/>
<path d="M2356.98 709.665C2357.08 710.083 2356.82 710.499 2356.4 710.603C2355.98 710.702 2355.56 710.441 2355.46 710.023C2355.36 709.606 2355.62 709.184 2356.04 709.085C2356.46 708.986 2356.88 709.247 2356.98 709.665Z" fill="#5A59A2"/>
<path d="M2359.71 709.012C2359.81 709.43 2359.55 709.851 2359.13 709.95C2358.71 710.049 2358.29 709.788 2358.2 709.378C2358.1 708.96 2358.36 708.539 2358.77 708.44C2359.19 708.341 2359.61 708.602 2359.71 709.02L2359.71 709.012Z" fill="#5A59A2"/>
<path d="M2362.43 708.356C2362.53 708.774 2362.27 709.195 2361.85 709.294C2361.43 709.393 2361.01 709.132 2360.91 708.714C2360.81 708.296 2361.07 707.875 2361.49 707.776C2361.91 707.677 2362.33 707.938 2362.43 708.356Z" fill="#5A59A2"/>
<path d="M2365.15 707.707C2365.25 708.125 2364.99 708.546 2364.57 708.645C2364.15 708.744 2363.73 708.483 2363.63 708.066C2363.53 707.648 2363.79 707.231 2364.21 707.128C2364.63 707.029 2365.05 707.29 2365.15 707.707Z" fill="#5A59A2"/>
</g>
</g>
<g clip-path="url(#clip3_132_333480)">
<path d="M2230.19 691.825L2243.27 676.715L2227.01 675.851L2230.19 691.825Z" fill="#D3B24C"/>
</g>
<g clip-path="url(#clip4_132_333480)">
<path d="M2163.13 338.109L2146.43 349.084L2161.84 354.347L2163.13 338.109Z" fill="#D3B24C"/>
</g>
<g clip-path="url(#clip5_132_333480)">
<path d="M2385.45 1030.97L2368.75 1041.94L2384.17 1047.2L2385.45 1030.97Z" fill="#D3B24C"/>
</g>
<g clip-path="url(#clip6_132_333480)">
<path d="M2174.39 143.033C2175.07 139.704 2172.92 136.454 2169.59 135.777C2168.38 135.533 2167.19 135.658 2166.12 136.076C2166.36 135.608 2166.53 135.107 2166.64 134.565C2167.31 131.244 2165.16 127.994 2161.83 127.316C2158.5 126.639 2155.25 128.79 2154.57 132.118C2154.46 132.654 2154.43 133.191 2154.46 133.71C2153.65 132.903 2152.59 132.321 2151.38 132.078C2148.06 131.406 2144.81 133.556 2144.13 136.885C2143.45 140.213 2145.47 143.255 2148.61 144.065C2147.03 144.894 2145.82 146.402 2145.43 148.289C2144.76 151.618 2146.91 154.868 2150.24 155.545C2152.8 156.066 2155.31 154.906 2156.64 152.827C2157.06 155.26 2158.92 157.31 2161.48 157.832C2164.81 158.509 2168.06 156.359 2168.74 153.03C2169.12 151.138 2168.59 149.278 2167.45 147.898C2170.67 148.37 2173.72 146.258 2174.38 143.035L2174.39 143.033Z" fill="#D3B24C"/>
<path d="M2160.18 135.423C2159.67 135.321 2159.16 135.776 2159.03 136.43C2158.78 137.668 2159.34 139.955 2159.54 139.999C2159.74 140.043 2160.6 138.034 2160.85 136.804C2160.98 136.142 2160.68 135.527 2160.18 135.423Z" fill="#0E367B"/>
<path d="M2152.04 139.135C2151.78 139.58 2152.05 140.214 2152.64 140.546C2153.73 141.167 2156.5 141.892 2156.6 141.714C2156.71 141.537 2154.66 139.545 2153.55 138.919C2152.97 138.586 2152.29 138.678 2152.04 139.135Z" fill="#0E367B"/>
<path d="M2153.05 148.034C2153.39 148.413 2154.08 148.358 2154.58 147.9C2155.51 147.05 2157.05 144.642 2156.92 144.491C2156.78 144.335 2154.24 145.67 2153.32 146.525C2152.83 146.983 2152.71 147.655 2153.05 148.034Z" fill="#0E367B"/>
<path d="M2161.82 149.81C2162.29 149.599 2162.45 148.928 2162.17 148.308C2161.65 147.165 2159.83 144.948 2159.65 145.036C2159.46 145.123 2159.94 147.943 2160.46 149.086C2160.74 149.693 2161.35 150.022 2161.82 149.805L2161.82 149.81Z" fill="#0E367B"/>
<path d="M2166.23 142.027C2166.17 141.512 2165.59 141.166 2164.92 141.237C2164.9 141.234 2160.85 141.059 2161.02 142.616C2161.05 142.823 2163.88 143.23 2165.13 143.083C2165.8 143.005 2166.3 142.534 2166.24 142.019L2166.23 142.027Z" fill="#0E367B"/>
</g>
<g clip-path="url(#clip7_132_333480)">
<path d="M2242.65 250.026C2240.6 248.559 2237.93 248.706 2235.46 250.138C2233.79 247.628 2231.44 246.161 2229.03 246.472C2226.62 246.782 2224.7 248.784 2223.68 251.639C2220.95 250.871 2218.33 251.389 2216.69 253.329C2213.93 256.616 2215.05 262.731 2219.22 266.975C2223.38 271.228 2229 272.004 2231.77 268.718C2235.24 271.211 2240.5 269.046 2243.5 263.879C2246.51 258.712 2246.13 252.51 2242.65 250.017V250.026Z" fill="#D3B24C"/>
<path d="M2227.69 273.755C2226.34 273.927 2224.88 273.781 2223.46 273.349C2221.5 272.746 2219.82 271.659 2218.72 270.27C2217.67 268.933 2217.29 267.484 2217.68 266.19C2218.17 264.543 2219.83 263.378 2222.14 263.085C2223.49 262.912 2224.95 263.059 2226.38 263.49C2228.33 264.094 2230.01 265.181 2231.11 266.57C2232.16 267.907 2232.54 269.356 2232.16 270.65C2231.66 272.297 2230 273.462 2227.69 273.755Z" fill="#0E367B"/>
<path d="M2236.94 272.582C2234.63 272.875 2232.73 272.168 2231.86 270.693C2231.17 269.537 2231.19 268.045 2231.89 266.475C2232.62 264.862 2233.98 263.378 2235.74 262.309C2237.01 261.524 2238.39 261.023 2239.74 260.851C2242.05 260.558 2243.94 261.265 2244.82 262.74C2245.5 263.896 2245.48 265.388 2244.78 266.958C2244.05 268.571 2242.69 270.055 2240.94 271.124C2239.66 271.909 2238.28 272.409 2236.94 272.582Z" fill="#0E367B"/>
<path d="M2225.59 261.584C2224.12 260.739 2223.36 259.307 2223.36 259.307C2223.36 259.307 2224.96 259.238 2226.43 260.074C2227.89 260.92 2228.65 262.352 2228.65 262.352C2228.65 262.352 2227.05 262.421 2225.59 261.584ZM2230.77 260.532C2230.77 260.532 2229.75 259.264 2229.55 257.564C2229.35 255.865 2230.01 254.381 2230.01 254.381C2230.01 254.381 2231.03 255.649 2231.23 257.349C2231.44 259.048 2230.77 260.532 2230.77 260.532ZM2236.04 260.247C2234.83 261.429 2233.26 261.765 2233.26 261.765C2233.26 261.765 2233.65 260.178 2234.86 258.996C2236.07 257.814 2237.65 257.478 2237.65 257.478C2237.65 257.478 2237.25 259.065 2236.04 260.247Z" fill="#FE5226"/>
</g>
<g clip-path="url(#clip8_132_333480)">
<path d="M2356.68 513.095C2352.97 511.979 2349.14 513.487 2346.22 516.734C2342.57 513.931 2338.44 512.967 2335.06 514.575C2331.67 516.183 2329.81 519.99 2329.68 524.586C2325.3 524.804 2321.71 526.826 2320.24 530.401C2317.75 536.464 2322.29 544.689 2330.4 548.785C2338.51 552.882 2347.1 551.284 2349.6 545.229C2355.88 547.126 2362.55 541.472 2364.5 532.603C2366.45 523.734 2362.94 515 2356.67 513.103L2356.68 513.095Z" fill="#073786"/>
<path d="M2346.02 554.429C2344.13 555.322 2341.93 555.831 2339.64 555.888C2336.48 555.967 2333.5 555.215 2331.25 553.758C2329.06 552.343 2327.83 550.447 2327.78 548.411C2327.71 545.8 2329.6 543.329 2332.85 541.786C2334.74 540.893 2336.94 540.384 2339.23 540.327C2342.38 540.248 2345.37 541.001 2347.62 542.458C2349.81 543.872 2351.04 545.768 2351.09 547.804C2351.16 550.415 2349.27 552.886 2346.02 554.429Z" fill="#B59732"/>
<path d="M2359 548.271C2355.77 549.807 2352.64 549.707 2350.67 548.012C2349.13 546.683 2348.43 544.53 2348.71 541.944C2349.01 539.272 2350.31 536.49 2352.36 534.097C2353.85 532.361 2355.64 530.961 2357.53 530.068C2360.76 528.532 2363.89 528.632 2365.86 530.327C2367.4 531.656 2368.1 533.809 2367.82 536.395C2367.52 539.067 2366.22 541.849 2364.17 544.242C2362.68 545.978 2360.89 547.378 2359 548.271Z" fill="#B59732"/>
<path d="M2337.17 537.96C2334.62 537.455 2332.83 535.761 2332.83 535.761C2332.83 535.761 2335.14 534.888 2337.68 535.392C2340.23 535.897 2342.02 537.592 2342.02 537.592C2342.02 537.592 2339.71 538.465 2337.17 537.96ZM2344.24 533.95C2344.24 533.95 2342.16 532.619 2341.05 530.273C2339.93 527.928 2340.22 525.475 2340.22 525.475C2340.22 525.475 2342.3 526.806 2343.42 529.152C2344.53 531.498 2344.24 533.95 2344.24 533.95ZM2351.83 530.993C2350.61 533.284 2348.47 534.518 2348.47 534.518C2348.47 534.518 2348.29 532.052 2349.51 529.761C2350.72 527.47 2352.87 526.236 2352.87 526.236C2352.87 526.236 2353.04 528.702 2351.83 530.993Z" fill="#FE5226"/>
</g>
<g clip-path="url(#clip9_132_333480)">
<path d="M2167.25 770.769L2167.41 771.779L2167.97 770.924C2168.6 769.95 2169.51 769.148 2170.66 768.633C2173.74 767.263 2177.34 768.554 2178.84 771.508L2178.83 771.513L2178.95 771.762C2180.32 774.788 2179.05 778.321 2176.11 779.827L2175.19 780.298L2176.19 780.558C2177.95 781.018 2179.49 782.235 2180.3 784.011C2181.72 787.135 2180.31 790.812 2177.15 792.219C2174.72 793.302 2171.96 792.716 2170.17 790.965L2169.44 790.26L2169.5 791.268C2169.64 793.755 2168.24 796.188 2165.81 797.27L2165.81 797.27C2162.65 798.678 2158.94 797.278 2157.52 794.151C2156.72 792.376 2156.82 790.431 2157.64 788.818L2158.1 787.904L2157.15 788.273C2154.05 789.466 2150.58 788.156 2149.16 785.027C2147.74 781.902 2149.15 778.225 2152.3 776.818L2152.3 776.817C2153.45 776.303 2154.67 776.159 2155.82 776.339L2156.85 776.5L2156.19 775.699C2155.85 775.295 2155.56 774.836 2155.33 774.332L2155.33 774.331C2153.92 771.207 2155.32 767.529 2158.48 766.122C2161.64 764.714 2165.36 766.115 2166.78 769.232L2166.78 769.232L2166.78 769.236C2167.02 769.739 2167.17 770.25 2167.25 770.769Z" fill="#FE5226" stroke="#FE5226" stroke-width="0.786565"/>
<path d="M2162 773.862C2161.49 774.092 2161.32 774.81 2161.62 775.462C2162.18 776.698 2164.13 778.337 2164.33 778.251C2164.53 778.165 2164.02 775.874 2163.46 774.647C2163.16 773.986 2162.5 773.641 2162 773.862Z" fill="#DDBB3E"/>
<path d="M2157.18 782.2C2157.24 782.746 2157.88 783.129 2158.6 783.052C2159.96 782.909 2162.85 781.807 2162.83 781.586C2162.81 781.366 2159.75 780.915 2158.38 781.059C2157.66 781.136 2157.11 781.644 2157.18 782.2Z" fill="#DDBB3E"/>
<path d="M2163.7 789.32C2164.24 789.435 2164.81 788.956 2164.96 788.247C2165.24 786.924 2165.08 783.858 2164.86 783.81C2164.64 783.762 2163.26 786.512 2162.99 787.835C2162.84 788.544 2163.16 789.205 2163.7 789.32Z" fill="#DDBB3E"/>
<path d="M2172.54 785.372C2172.82 784.893 2172.53 784.212 2171.9 783.848C2170.72 783.177 2167.72 782.382 2167.61 782.573C2167.5 782.765 2169.71 784.922 2170.89 785.592C2171.52 785.947 2172.26 785.851 2172.53 785.372H2172.54Z" fill="#DDBB3E"/>
<path d="M2171.5 775.826C2171.12 775.414 2170.39 775.481 2169.84 775.961C2169.83 775.97 2166.15 778.356 2167.29 779.602C2167.45 779.765 2170.19 778.347 2171.2 777.436C2171.74 776.948 2171.88 776.229 2171.5 775.817V775.826Z" fill="#DDBB3E"/>
</g>
<path d="M258.193 585.416C339.577 565.766 412.731 490.575 414.919 433.893C415.779 411.162 408.804 380.179 361.837 363.804C355.111 361.491 343.718 357.84 336.623 355.936C317.896 350.992 297.475 348.996 285.97 332.464C273.833 314.989 289.612 285.884 302.865 260.489C307.32 251.961 314.414 240.799 311.978 230.551C309.543 220.304 294.492 219.311 286.495 219.131L285.551 219.133C270.114 218.789 254.928 222.238 240.201 224.705C219.666 228.17 199.423 230.301 176.96 226.146C141.718 219.714 129.88 203.108 124.786 188.889C115.998 164.427 123.615 135.734 146.726 107.293C148.699 104.826 152.503 108.035 150.713 109.984C127.241 135.131 120.017 165.377 128.059 187.824C134.572 206.093 151.653 218.223 177.247 222.925C198.617 226.805 218.339 223.547 239.244 219.988C254.266 217.446 268.122 214.963 284.115 215.325L286.762 215.206C295.645 214.847 310.479 217.47 314.67 226.879C319.402 237.49 311.728 252.893 306.96 262.05C295.915 283.108 279.705 316.416 289.351 330.27C299.629 345.066 320.274 347.635 338.242 352.377C345.41 354.263 352.838 356.241 359.823 358.645C399.194 372.377 420.168 399.266 418.788 434.252C417.721 462.075 402.079 493.585 375.966 520.739C348.857 548.933 304.056 577.825 266.566 587.705" fill="#DDBB3E"/>
<g clip-path="url(#clip10_132_333480)">
<path d="M332.927 548.114C329.747 543.682 330.766 537.515 335.198 534.335C339.63 531.155 345.807 532.173 348.986 536.605C352.166 541.037 351.148 547.213 346.716 550.393C342.284 553.573 336.117 552.554 332.937 548.122L332.927 548.114Z" fill="#5A59A2"/>
<mask id="mask1_132_333480" style="mask-type:luminance" maskUnits="userSpaceOnUse" x="313" y="535" width="28" height="29">
<path d="M324.873 563.065C317.358 561.97 312.141 554.992 313.236 547.476C314.332 539.961 321.311 534.753 328.825 535.839C336.341 536.935 341.549 543.914 340.462 551.428C339.367 558.944 332.389 564.16 324.873 563.065Z" fill="white"/>
</mask>
<g mask="url(#mask1_132_333480)">
<path d="M341.404 555.575C340.98 555.513 340.685 555.115 340.747 554.69C340.809 554.265 341.207 553.971 341.632 554.033C342.057 554.095 342.352 554.493 342.289 554.918C342.227 555.343 341.838 555.636 341.404 555.575Z" fill="#5A59A2"/>
<path d="M341.001 558.345C340.576 558.283 340.281 557.885 340.344 557.46C340.406 557.035 340.804 556.741 341.229 556.803C341.653 556.865 341.948 557.263 341.886 557.688C341.824 558.113 341.426 558.407 341.001 558.345Z" fill="#5A59A2"/>
<path d="M340.597 561.115C340.173 561.052 339.878 560.655 339.94 560.23C340.002 559.805 340.4 559.51 340.825 559.572C341.25 559.635 341.545 560.033 341.482 560.457C341.42 560.882 341.022 561.177 340.597 561.115Z" fill="#5A59A2"/>
<path d="M340.194 563.885C339.769 563.822 339.474 563.425 339.537 563C339.599 562.575 339.997 562.28 340.422 562.342C340.846 562.405 341.141 562.803 341.079 563.227C341.017 563.652 340.628 563.946 340.194 563.885Z" fill="#5A59A2"/>
<path d="M340.794 538.618C340.24 538.54 339.854 538.02 339.935 537.475C340.013 536.921 340.524 536.537 341.078 536.616C341.632 536.695 342.016 537.206 341.928 537.761C341.849 538.315 341.338 538.699 340.785 538.62L340.794 538.618Z" fill="#5A59A2"/>
<path d="M340.273 542.228C339.719 542.149 339.335 541.638 339.414 541.084C339.493 540.53 340.013 540.145 340.558 540.225C341.111 540.304 341.496 540.815 341.417 541.369C341.338 541.922 340.827 542.306 340.273 542.228Z" fill="#5A59A2"/>
<path d="M339.753 545.837C339.199 545.758 338.813 545.239 338.894 544.694C338.973 544.14 339.483 543.756 340.037 543.835C340.591 543.914 340.975 544.425 340.896 544.978C340.817 545.532 340.298 545.917 339.753 545.837Z" fill="#5A59A2"/>
<path d="M339.222 549.439C338.668 549.36 338.283 548.84 338.363 548.296C338.442 547.742 338.961 547.356 339.506 547.437C340.06 547.515 340.444 548.026 340.365 548.58C340.286 549.134 339.776 549.518 339.222 549.439Z" fill="#5A59A2"/>
<path d="M338.702 553.048C338.148 552.969 337.764 552.458 337.843 551.905C337.922 551.351 338.441 550.966 338.995 551.044C339.549 551.123 339.933 551.634 339.854 552.188C339.775 552.742 339.264 553.126 338.711 553.047L338.702 553.048Z" fill="#5A59A2"/>
<path d="M338.18 556.649C337.626 556.57 337.242 556.059 337.321 555.505C337.4 554.951 337.911 554.567 338.465 554.646C339.018 554.725 339.402 555.236 339.324 555.79C339.245 556.343 338.734 556.728 338.179 556.64L338.18 556.649Z" fill="#5A59A2"/>
<path d="M337.651 560.259C337.097 560.18 336.711 559.66 336.792 559.116C336.871 558.562 337.381 558.178 337.935 558.257C338.489 558.336 338.873 558.846 338.794 559.4C338.715 559.954 338.204 560.338 337.651 560.259Z" fill="#5A59A2"/>
<path d="M337.13 563.868C336.576 563.79 336.191 563.27 336.271 562.725C336.35 562.171 336.861 561.787 337.415 561.866C337.968 561.945 338.352 562.456 338.274 563.009C338.195 563.563 337.675 563.949 337.13 563.868Z" fill="#5A59A2"/>
<path d="M337.811 538.067C337.386 538.004 337.093 537.615 337.154 537.182C337.216 536.757 337.614 536.462 338.039 536.524C338.464 536.587 338.758 536.984 338.696 537.409C338.634 537.834 338.245 538.128 337.811 538.067Z" fill="#5A59A2"/>
<path d="M337.408 540.837C336.983 540.774 336.69 540.385 336.752 539.96C336.814 539.536 337.212 539.241 337.637 539.303C338.062 539.365 338.357 539.763 338.294 540.188C338.232 540.613 337.834 540.908 337.409 540.845L337.408 540.837Z" fill="#5A59A2"/>
<path d="M337.006 543.615C336.581 543.553 336.286 543.155 336.349 542.731C336.411 542.306 336.809 542.011 337.234 542.073C337.658 542.135 337.953 542.533 337.891 542.958C337.829 543.383 337.44 543.676 337.006 543.615Z" fill="#5A59A2"/>
<path d="M336.603 546.385C336.178 546.323 335.884 545.925 335.946 545.5C336.008 545.076 336.397 544.782 336.831 544.843C337.256 544.905 337.549 545.294 337.488 545.728C337.426 546.153 337.037 546.446 336.603 546.385Z" fill="#5A59A2"/>
<path d="M336.199 549.155C335.775 549.093 335.48 548.695 335.542 548.27C335.604 547.845 336.002 547.55 336.427 547.613C336.852 547.675 337.147 548.073 337.084 548.498C337.022 548.922 336.624 549.217 336.199 549.155Z" fill="#5A59A2"/>
<path d="M335.796 551.925C335.371 551.863 335.076 551.465 335.139 551.04C335.201 550.615 335.599 550.32 336.024 550.382C336.448 550.445 336.742 550.834 336.681 551.267C336.619 551.692 336.221 551.987 335.796 551.925Z" fill="#5A59A2"/>
<path d="M335.394 554.704C334.969 554.642 334.675 554.244 334.737 553.819C334.799 553.394 335.197 553.099 335.622 553.161C336.047 553.224 336.341 553.622 336.279 554.046C336.217 554.471 335.828 554.765 335.403 554.703L335.394 554.704Z" fill="#5A59A2"/>
<path d="M334.991 557.474C334.566 557.411 334.273 557.022 334.333 556.589C334.396 556.164 334.794 555.869 335.218 555.931C335.643 555.994 335.938 556.391 335.876 556.816C335.814 557.241 335.424 557.535 334.991 557.474Z" fill="#5A59A2"/>
<path d="M334.587 560.243C334.162 560.181 333.867 559.783 333.93 559.358C333.992 558.933 334.39 558.639 334.815 558.701C335.239 558.763 335.533 559.152 335.472 559.586C335.41 560.011 335.021 560.304 334.587 560.243Z" fill="#5A59A2"/>
<path d="M334.184 563.013C333.759 562.951 333.464 562.553 333.526 562.128C333.589 561.703 333.987 561.409 334.411 561.471C334.836 561.533 335.131 561.931 335.069 562.356C335.006 562.781 334.617 563.074 334.184 563.013Z" fill="#5A59A2"/>
<path d="M334.783 537.747C334.23 537.669 333.846 537.158 333.925 536.604C334.003 536.05 334.523 535.665 335.078 535.752C335.632 535.831 336.016 536.342 335.937 536.896C335.858 537.45 335.347 537.834 334.794 537.755L334.783 537.747Z" fill="#5A59A2"/>
<path d="M334.263 541.357C333.71 541.278 333.325 540.767 333.404 540.213C333.483 539.66 334.003 539.274 334.548 539.354C335.102 539.433 335.486 539.944 335.407 540.498C335.328 541.051 334.817 541.436 334.263 541.357Z" fill="#5A59A2"/>
<path d="M333.741 544.957C333.187 544.878 332.803 544.367 332.882 543.814C332.961 543.26 333.472 542.876 334.025 542.955C334.579 543.034 334.963 543.544 334.884 544.098C334.805 544.652 334.295 545.036 333.741 544.957Z" fill="#5A59A2"/>
<path d="M333.212 548.568C332.658 548.489 332.274 547.978 332.353 547.424C332.432 546.871 332.942 546.487 333.496 546.565C334.05 546.644 334.434 547.155 334.355 547.709C334.276 548.263 333.765 548.647 333.212 548.568Z" fill="#5A59A2"/>
<path d="M332.69 552.168C332.136 552.089 331.752 551.578 331.831 551.025C331.91 550.471 332.43 550.086 332.975 550.166C333.528 550.245 333.913 550.756 333.834 551.309C333.755 551.863 333.244 552.247 332.69 552.168Z" fill="#5A59A2"/>
<path d="M332.17 555.778C331.616 555.699 331.232 555.188 331.311 554.634C331.39 554.08 331.909 553.695 332.454 553.775C333.008 553.854 333.392 554.365 333.313 554.919C333.234 555.472 332.723 555.857 332.17 555.778Z" fill="#5A59A2"/>
<path d="M331.64 559.388C331.087 559.309 330.701 558.789 330.781 558.245C330.86 557.691 331.38 557.305 331.934 557.384C332.487 557.463 332.871 557.974 332.793 558.528C332.714 559.082 332.203 559.466 331.649 559.387L331.64 559.388Z" fill="#5A59A2"/>
<path d="M331.12 562.997C330.566 562.918 330.181 562.399 330.261 561.854C330.34 561.3 330.851 560.916 331.404 560.995C331.958 561.074 332.342 561.585 332.263 562.138C332.184 562.692 331.674 563.076 331.12 562.997Z" fill="#5A59A2"/>
<path d="M331.802 537.196C331.377 537.133 331.082 536.735 331.146 536.319C331.208 535.895 331.606 535.6 332.03 535.662C332.455 535.724 332.75 536.122 332.688 536.547C332.626 536.972 332.228 537.267 331.803 537.204L331.802 537.196Z" fill="#5A59A2"/>
<path d="M331.398 539.965C330.974 539.903 330.679 539.505 330.742 539.089C330.804 538.665 331.194 538.371 331.618 538.433C332.043 538.495 332.338 538.893 332.276 539.318C332.213 539.743 331.816 540.038 331.391 539.976L331.398 539.965Z" fill="#5A59A2"/>
<path d="M330.995 542.735C330.571 542.673 330.276 542.275 330.338 541.85C330.4 541.426 330.798 541.131 331.223 541.193C331.648 541.255 331.943 541.653 331.88 542.078C331.818 542.503 331.429 542.796 330.995 542.735Z" fill="#5A59A2"/>
<path d="M330.592 545.505C330.167 545.443 329.872 545.045 329.935 544.62C329.997 544.196 330.395 543.901 330.82 543.963C331.244 544.025 331.539 544.423 331.477 544.848C331.415 545.273 331.017 545.568 330.592 545.505Z" fill="#5A59A2"/>
<path d="M330.19 548.284C329.765 548.222 329.47 547.824 329.532 547.399C329.594 546.974 329.992 546.679 330.417 546.742C330.842 546.804 331.137 547.202 331.075 547.627C331.012 548.051 330.614 548.346 330.19 548.284Z" fill="#5A59A2"/>
<path d="M329.786 551.054C329.362 550.992 329.067 550.594 329.129 550.169C329.191 549.744 329.589 549.449 330.014 549.512C330.439 549.574 330.734 549.972 330.671 550.397C330.609 550.821 330.211 551.116 329.786 551.054Z" fill="#5A59A2"/>
<path d="M329.383 553.824C328.958 553.761 328.663 553.364 328.726 552.939C328.788 552.514 329.177 552.22 329.611 552.281C330.035 552.344 330.329 552.733 330.268 553.166C330.206 553.591 329.808 553.886 329.383 553.824Z" fill="#5A59A2"/>
<path d="M328.98 556.594C328.555 556.531 328.261 556.142 328.322 555.709C328.385 555.284 328.782 554.989 329.207 555.051C329.632 555.114 329.927 555.512 329.865 555.936C329.802 556.361 329.404 556.656 328.98 556.594Z" fill="#5A59A2"/>
<path d="M328.577 559.372C328.153 559.31 327.859 558.921 327.92 558.487C327.982 558.062 328.38 557.767 328.805 557.83C329.23 557.892 329.525 558.29 329.462 558.715C329.4 559.139 329.002 559.434 328.586 559.371L328.577 559.372Z" fill="#5A59A2"/>
<path d="M328.174 562.142C327.749 562.08 327.456 561.691 327.518 561.266C327.58 560.841 327.978 560.546 328.403 560.609C328.828 560.671 329.123 561.069 329.06 561.493C328.998 561.918 328.6 562.213 328.175 562.151L328.174 562.142Z" fill="#5A59A2"/>
<path d="M328.774 536.876C328.22 536.797 327.836 536.286 327.915 535.733C327.994 535.179 328.504 534.795 329.058 534.874C329.612 534.953 329.996 535.464 329.917 536.017C329.838 536.571 329.327 536.955 328.774 536.876Z" fill="#5A59A2"/>
<path d="M328.252 540.477C327.698 540.398 327.314 539.887 327.393 539.333C327.472 538.78 327.982 538.395 328.536 538.474C329.09 538.553 329.474 539.064 329.395 539.618C329.316 540.172 328.797 540.557 328.252 540.477Z" fill="#5A59A2"/>
<path d="M327.732 544.086C327.178 544.007 326.794 543.496 326.873 542.943C326.952 542.389 327.462 542.005 328.016 542.084C328.57 542.162 328.954 542.673 328.875 543.227C328.796 543.781 328.285 544.165 327.732 544.086Z" fill="#5A59A2"/>
<path d="M327.202 547.697C326.649 547.618 326.264 547.107 326.343 546.553C326.422 545.999 326.933 545.615 327.487 545.694C328.041 545.773 328.425 546.284 328.346 546.838C328.267 547.391 327.747 547.777 327.202 547.697Z" fill="#5A59A2"/>
<path d="M326.681 551.297C326.127 551.218 325.743 550.707 325.822 550.153C325.9 549.6 326.411 549.216 326.974 549.293C327.528 549.372 327.912 549.883 327.833 550.437C327.754 550.99 327.234 551.376 326.688 551.287L326.681 551.297Z" fill="#5A59A2"/>
<path d="M326.151 554.908C325.597 554.829 325.213 554.318 325.292 553.764C325.371 553.21 325.882 552.826 326.436 552.905C326.989 552.984 327.374 553.495 327.286 554.05C327.207 554.604 326.696 554.988 326.141 554.9L326.151 554.908Z" fill="#5A59A2"/>
<path d="M325.631 558.517C325.077 558.438 324.691 557.918 324.772 557.373C324.85 556.82 325.361 556.436 325.915 556.514C326.469 556.593 326.853 557.104 326.774 557.658C326.695 558.212 326.184 558.596 325.631 558.517Z" fill="#5A59A2"/>
<path d="M325.109 562.117C324.555 562.038 324.169 561.519 324.25 560.974C324.329 560.42 324.839 560.036 325.393 560.115C325.947 560.194 326.332 560.713 326.252 561.258C326.173 561.812 325.662 562.196 325.109 562.117Z" fill="#5A59A2"/>
<path d="M325.781 536.317C325.357 536.255 325.062 535.857 325.124 535.432C325.186 535.007 325.584 534.712 326.009 534.775C326.434 534.837 326.729 535.235 326.666 535.659C326.604 536.084 326.215 536.378 325.781 536.317Z" fill="#5A59A2"/>
<path d="M325.38 539.096C324.955 539.033 324.66 538.636 324.722 538.211C324.784 537.786 325.182 537.491 325.607 537.553C326.032 537.616 326.327 538.014 326.265 538.438C326.202 538.863 325.804 539.158 325.38 539.096Z" fill="#5A59A2"/>
<path d="M324.986 541.864C324.561 541.801 324.266 541.404 324.328 540.979C324.39 540.554 324.788 540.259 325.213 540.321C325.638 540.384 325.933 540.782 325.87 541.206C325.808 541.631 325.41 541.926 324.986 541.864Z" fill="#5A59A2"/>
<path d="M324.582 544.634C324.157 544.572 323.863 544.174 323.925 543.749C323.987 543.324 324.385 543.029 324.81 543.091C325.235 543.154 325.529 543.552 325.467 543.976C325.405 544.401 325.007 544.696 324.582 544.634Z" fill="#5A59A2"/>
<path d="M324.171 547.414C323.746 547.352 323.451 546.954 323.513 546.529C323.575 546.104 323.973 545.809 324.398 545.871C324.823 545.934 325.118 546.332 325.056 546.756C324.993 547.181 324.595 547.476 324.171 547.414Z" fill="#5A59A2"/>
<path d="M323.776 550.183C323.351 550.12 323.056 549.722 323.119 549.298C323.181 548.873 323.579 548.578 324.004 548.64C324.428 548.703 324.723 549.1 324.661 549.525C324.599 549.95 324.201 550.245 323.776 550.183Z" fill="#5A59A2"/>
<path d="M323.373 552.952C322.948 552.89 322.653 552.492 322.715 552.067C322.778 551.642 323.176 551.348 323.6 551.41C324.025 551.472 324.32 551.87 324.258 552.295C324.195 552.72 323.797 553.014 323.373 552.952Z" fill="#5A59A2"/>
<path d="M322.969 555.722C322.545 555.66 322.25 555.262 322.312 554.837C322.374 554.412 322.772 554.118 323.197 554.18C323.622 554.242 323.917 554.64 323.854 555.065C323.792 555.49 323.394 555.784 322.969 555.722Z" fill="#5A59A2"/>
<path d="M322.566 558.492C322.141 558.43 321.846 558.032 321.908 557.607C321.97 557.182 322.36 556.889 322.793 556.95C323.218 557.012 323.513 557.41 323.451 557.835C323.388 558.259 322.99 558.554 322.566 558.492Z" fill="#5A59A2"/>
<path d="M322.164 561.271C321.739 561.208 321.444 560.811 321.506 560.386C321.569 559.961 321.967 559.666 322.391 559.728C322.816 559.791 323.111 560.189 323.049 560.613C322.986 561.038 322.589 561.333 322.164 561.271Z" fill="#5A59A2"/>
<path d="M321.738 564.189C321.313 564.126 321.018 563.729 321.081 563.304C321.143 562.879 321.541 562.584 321.966 562.646C322.39 562.709 322.685 563.107 322.623 563.531C322.561 563.956 322.163 564.251 321.738 564.189Z" fill="#5A59A2"/>
<path d="M322.762 535.996C322.208 535.917 321.824 535.406 321.903 534.853C321.982 534.299 322.493 533.915 323.046 533.994C323.6 534.073 323.984 534.583 323.905 535.137C323.826 535.691 323.316 536.075 322.762 535.996Z" fill="#5A59A2"/>
<path d="M322.241 539.606C321.688 539.527 321.304 539.016 321.382 538.462C321.461 537.908 321.981 537.523 322.526 537.603C323.08 537.682 323.464 538.193 323.385 538.747C323.306 539.3 322.795 539.684 322.241 539.606Z" fill="#5A59A2"/>
<path d="M321.713 543.216C321.159 543.137 320.773 542.617 320.854 542.072C320.933 541.519 321.443 541.135 321.997 541.213C322.551 541.292 322.935 541.803 322.856 542.357C322.777 542.911 322.266 543.295 321.713 543.216Z" fill="#5A59A2"/>
<path d="M321.191 546.816C320.637 546.738 320.251 546.218 320.332 545.673C320.411 545.119 320.921 544.735 321.475 544.814C322.029 544.893 322.413 545.404 322.334 545.957C322.255 546.511 321.744 546.895 321.182 546.818L321.191 546.816Z" fill="#5A59A2"/>
<path d="M320.671 550.426C320.117 550.347 319.731 549.827 319.812 549.282C319.891 548.728 320.401 548.344 320.955 548.423C321.509 548.502 321.893 549.013 321.814 549.567C321.735 550.12 321.215 550.506 320.671 550.426Z" fill="#5A59A2"/>
<path d="M320.141 554.036C319.588 553.958 319.203 553.447 319.282 552.893C319.361 552.339 319.872 551.955 320.426 552.034C320.98 552.113 321.364 552.624 321.285 553.177C321.206 553.731 320.695 554.115 320.141 554.036Z" fill="#5A59A2"/>
<path d="M319.619 557.637C319.066 557.558 318.68 557.038 318.76 556.493C318.839 555.94 319.35 555.555 319.904 555.634C320.458 555.713 320.842 556.224 320.763 556.778C320.684 557.332 320.173 557.716 319.619 557.637Z" fill="#5A59A2"/>
<path d="M319.099 561.246C318.546 561.167 318.16 560.648 318.24 560.103C318.319 559.549 318.839 559.164 319.393 559.242C319.946 559.321 320.33 559.832 320.252 560.386C320.173 560.94 319.653 561.325 319.108 561.245L319.099 561.246Z" fill="#5A59A2"/>
<path d="M318.57 564.857C318.016 564.778 317.631 564.258 317.711 563.713C317.79 563.16 318.301 562.775 318.855 562.854C319.408 562.933 319.792 563.444 319.713 563.998C319.635 564.551 319.115 564.937 318.57 564.857Z" fill="#5A59A2"/>
<path d="M319.368 538.216C318.944 538.153 318.649 537.755 318.711 537.331C318.773 536.906 319.171 536.611 319.596 536.673C320.021 536.735 320.316 537.133 320.253 537.558C320.191 537.983 319.802 538.276 319.368 538.216Z" fill="#5A59A2"/>
<path d="M318.966 540.994C318.542 540.932 318.247 540.534 318.309 540.109C318.371 539.684 318.769 539.39 319.194 539.452C319.619 539.514 319.912 539.903 319.851 540.337C319.789 540.762 319.391 541.056 318.966 540.994Z" fill="#5A59A2"/>
<path d="M318.572 543.763C318.147 543.701 317.852 543.303 317.915 542.878C317.977 542.453 318.366 542.16 318.791 542.222C319.216 542.284 319.51 542.682 319.448 543.107C319.386 543.532 318.988 543.826 318.563 543.764L318.572 543.763Z" fill="#5A59A2"/>
<path d="M318.169 546.532C317.744 546.47 317.449 546.072 317.511 545.647C317.573 545.222 317.971 544.928 318.396 544.99C318.821 545.052 319.116 545.45 319.054 545.875C318.991 546.3 318.593 546.594 318.169 546.532Z" fill="#5A59A2"/>
<path d="M317.765 549.302C317.341 549.24 317.046 548.842 317.108 548.417C317.17 547.992 317.568 547.698 317.993 547.76C318.418 547.822 318.711 548.211 318.65 548.645C318.588 549.07 318.19 549.364 317.765 549.302Z" fill="#5A59A2"/>
<path d="M317.355 552.083C316.93 552.02 316.635 551.623 316.697 551.198C316.76 550.773 317.157 550.478 317.582 550.54C318.007 550.603 318.302 551.001 318.24 551.425C318.177 551.85 317.779 552.145 317.355 552.083Z" fill="#5A59A2"/>
<path d="M316.96 554.852C316.535 554.789 316.242 554.4 316.303 553.967C316.365 553.542 316.763 553.247 317.188 553.309C317.612 553.371 317.907 553.769 317.845 554.194C317.783 554.619 317.385 554.914 316.96 554.852Z" fill="#5A59A2"/>
<path d="M316.557 557.621C316.132 557.559 315.837 557.161 315.899 556.736C315.962 556.311 316.36 556.016 316.784 556.078C317.209 556.141 317.504 556.539 317.442 556.963C317.38 557.388 316.982 557.683 316.557 557.621Z" fill="#5A59A2"/>
<path d="M316.153 560.391C315.729 560.329 315.434 559.931 315.496 559.506C315.558 559.081 315.956 558.786 316.381 558.849C316.806 558.911 317.101 559.309 317.038 559.733C316.976 560.158 316.587 560.452 316.153 560.391Z" fill="#5A59A2"/>
<path d="M315.727 563.309C315.302 563.246 315.007 562.848 315.069 562.424C315.132 561.999 315.521 561.705 315.954 561.766C316.379 561.828 316.674 562.226 316.612 562.651C316.549 563.076 316.152 563.371 315.727 563.309Z" fill="#5A59A2"/>
<path d="M316.232 538.734C315.678 538.655 315.293 538.136 315.373 537.591C315.452 537.037 315.972 536.652 316.525 536.731C317.079 536.809 317.463 537.32 317.384 537.874C317.305 538.428 316.795 538.812 316.241 538.733L316.232 538.734Z" fill="#5A59A2"/>
<path d="M315.702 542.336C315.148 542.257 314.764 541.746 314.843 541.193C314.922 540.639 315.441 540.254 315.986 540.334C316.54 540.413 316.924 540.924 316.845 541.477C316.766 542.031 316.256 542.415 315.702 542.336Z" fill="#5A59A2"/>
<path d="M315.181 545.945C314.628 545.866 314.244 545.356 314.322 544.802C314.401 544.248 314.921 543.863 315.467 543.952C316.013 544.041 316.405 544.542 316.326 545.095C316.247 545.649 315.736 546.033 315.181 545.945Z" fill="#5A59A2"/>
<path d="M314.661 549.555C314.107 549.476 313.723 548.965 313.802 548.411C313.881 547.858 314.392 547.473 314.945 547.552C315.499 547.631 315.883 548.142 315.804 548.696C315.725 549.249 315.215 549.634 314.661 549.555Z" fill="#5A59A2"/>
<path d="M314.13 553.156C313.576 553.077 313.192 552.567 313.271 552.013C313.35 551.459 313.87 551.074 314.415 551.154C314.968 551.233 315.352 551.744 315.274 552.297C315.195 552.851 314.675 553.237 314.13 553.156Z" fill="#5A59A2"/>
<path d="M313.61 556.766C313.056 556.687 312.67 556.167 312.751 555.622C312.829 555.068 313.349 554.683 313.903 554.762C314.457 554.841 314.841 555.352 314.762 555.905C314.683 556.459 314.163 556.844 313.618 556.764L313.61 556.766Z" fill="#5A59A2"/>
<path d="M313.089 560.375C312.535 560.296 312.151 559.785 312.23 559.231C312.309 558.678 312.82 558.293 313.373 558.372C313.927 558.451 314.311 558.962 314.224 559.517C314.145 560.071 313.634 560.455 313.08 560.376L313.089 560.375Z" fill="#5A59A2"/>
<path d="M312.559 563.977C312.005 563.898 311.62 563.378 311.7 562.833C311.779 562.279 312.298 561.894 312.843 561.974C313.397 562.053 313.781 562.564 313.702 563.118C313.623 563.671 313.112 564.056 312.559 563.977Z" fill="#5A59A2"/>
<path d="M313.359 537.344C312.934 537.282 312.639 536.884 312.701 536.459C312.763 536.034 313.161 535.74 313.586 535.802C314.011 535.864 314.306 536.262 314.244 536.687C314.181 537.112 313.783 537.406 313.359 537.344Z" fill="#5A59A2"/>
<path d="M312.955 540.114C312.53 540.052 312.236 539.654 312.298 539.229C312.36 538.805 312.758 538.51 313.183 538.572C313.608 538.634 313.902 539.032 313.84 539.457C313.778 539.882 313.38 540.177 312.955 540.114Z" fill="#5A59A2"/>
<path d="M312.553 542.893C312.129 542.831 311.834 542.433 311.896 542.008C311.958 541.583 312.356 541.288 312.781 541.351C313.206 541.413 313.499 541.802 313.438 542.236C313.376 542.66 312.978 542.955 312.553 542.893Z" fill="#5A59A2"/>
<path d="M312.15 545.663C311.725 545.6 311.43 545.202 311.492 544.778C311.554 544.353 311.952 544.058 312.377 544.12C312.802 544.182 313.097 544.58 313.035 545.005C312.972 545.43 312.583 545.724 312.158 545.661L312.15 545.663Z" fill="#5A59A2"/>
</g>
</g>
<g clip-path="url(#clip11_132_333480)">
<path d="M162.693 1097.77C166.185 1101.96 165.615 1108.18 161.425 1111.68C157.235 1115.17 151.001 1114.6 147.509 1110.41C144.017 1106.22 144.585 1099.98 148.775 1096.49C152.965 1093 159.19 1093.57 162.682 1097.76L162.693 1097.77Z" fill="#5A59A2"/>
<mask id="mask2_132_333480" style="mask-type:luminance" maskUnits="userSpaceOnUse" x="154" y="1082" width="29" height="28">
<path d="M169.644 1082.27C177.219 1082.82 182.927 1089.4 182.379 1096.98C181.83 1104.55 175.246 1110.25 167.673 1109.71C160.098 1109.17 154.399 1102.58 154.938 1095.01C155.487 1087.43 162.069 1081.72 169.644 1082.27Z" fill="white"/>
</mask>
<g mask="url(#mask2_132_333480)">
<path d="M154.103 1085.36C154.531 1085.39 154.854 1085.76 154.822 1086.19C154.791 1086.62 154.415 1086.94 153.987 1086.91C153.559 1086.88 153.236 1086.5 153.267 1086.08C153.299 1085.65 153.674 1085.33 154.103 1085.36Z" fill="#5A59A2"/>
<path d="M154.304 1082.56C154.732 1082.6 155.055 1082.97 155.024 1083.4C154.993 1083.83 154.617 1084.15 154.189 1084.12C153.761 1084.09 153.438 1083.71 153.469 1083.28C153.5 1082.86 153.867 1082.54 154.304 1082.56Z" fill="#5A59A2"/>
<path d="M155.534 1107.81C156.092 1107.85 156.514 1108.34 156.473 1108.89C156.435 1109.44 155.953 1109.86 155.395 1109.83C154.837 1109.79 154.417 1109.31 154.464 1108.75C154.503 1108.19 154.985 1107.77 155.543 1107.81L155.534 1107.81Z" fill="#5A59A2"/>
<path d="M155.791 1104.17C156.349 1104.21 156.769 1104.69 156.731 1105.25C156.692 1105.81 156.202 1106.23 155.652 1106.19C155.094 1106.15 154.674 1105.67 154.713 1105.11C154.751 1104.55 155.233 1104.13 155.791 1104.17Z" fill="#5A59A2"/>
<path d="M156.049 1100.53C156.607 1100.57 157.029 1101.06 156.989 1101.61C156.95 1102.17 156.469 1102.59 155.911 1102.55C155.353 1102.51 154.932 1102.03 154.971 1101.47C155.01 1100.91 155.5 1100.49 156.049 1100.53Z" fill="#5A59A2"/>
<path d="M156.318 1096.9C156.876 1096.94 157.298 1097.43 157.257 1097.98C157.219 1098.54 156.728 1098.96 156.179 1098.92C155.621 1098.88 155.201 1098.4 155.24 1097.84C155.278 1097.28 155.76 1096.86 156.318 1096.9Z" fill="#5A59A2"/>
<path d="M156.576 1093.26C157.134 1093.3 157.554 1093.78 157.515 1094.34C157.477 1094.9 156.986 1095.32 156.428 1095.28C155.87 1095.25 155.45 1094.76 155.489 1094.21C155.527 1093.65 156.009 1093.23 156.567 1093.27L156.576 1093.26Z" fill="#5A59A2"/>
<path d="M156.835 1089.64C157.393 1089.67 157.814 1090.16 157.775 1090.71C157.736 1091.27 157.255 1091.69 156.697 1091.65C156.139 1091.61 155.718 1091.13 155.757 1090.58C155.796 1090.02 156.277 1089.6 156.837 1089.64L156.835 1089.64Z" fill="#5A59A2"/>
<path d="M157.103 1086C157.661 1086.03 158.083 1086.53 158.042 1087.07C158.003 1087.63 157.522 1088.05 156.964 1088.01C156.406 1087.98 155.986 1087.49 156.024 1086.94C156.063 1086.38 156.545 1085.96 157.103 1086Z" fill="#5A59A2"/>
<path d="M157.36 1082.36C157.918 1082.4 158.34 1082.89 158.299 1083.44C158.261 1084 157.779 1084.42 157.221 1084.38C156.663 1084.34 156.243 1083.86 156.282 1083.3C156.32 1082.74 156.811 1082.32 157.36 1082.36Z" fill="#5A59A2"/>
<path d="M158.548 1108.14C158.976 1108.17 159.297 1108.54 159.268 1108.98C159.236 1109.41 158.861 1109.73 158.432 1109.7C158.004 1109.67 157.681 1109.29 157.713 1108.86C157.744 1108.43 158.111 1108.11 158.548 1108.14Z" fill="#5A59A2"/>
<path d="M158.75 1105.35C159.178 1105.38 159.499 1105.75 159.468 1106.18C159.436 1106.6 159.061 1106.93 158.633 1106.9C158.204 1106.87 157.882 1106.49 157.913 1106.06C157.944 1105.63 158.32 1105.31 158.748 1105.34L158.75 1105.35Z" fill="#5A59A2"/>
<path d="M158.95 1102.55C159.378 1102.58 159.701 1102.96 159.669 1103.39C159.638 1103.81 159.262 1104.14 158.834 1104.1C158.406 1104.07 158.083 1103.7 158.115 1103.27C158.146 1102.84 158.513 1102.52 158.95 1102.55Z" fill="#5A59A2"/>
<path d="M159.151 1099.76C159.58 1099.79 159.902 1100.17 159.871 1100.59C159.84 1101.02 159.473 1101.34 159.036 1101.31C158.608 1101.28 158.287 1100.91 158.316 1100.48C158.348 1100.05 158.714 1099.73 159.151 1099.76Z" fill="#5A59A2"/>
<path d="M159.353 1096.97C159.782 1097 160.105 1097.37 160.073 1097.8C160.042 1098.23 159.666 1098.55 159.238 1098.52C158.81 1098.49 158.487 1098.11 158.518 1097.69C158.55 1097.26 158.925 1096.94 159.353 1096.97Z" fill="#5A59A2"/>
<path d="M159.556 1094.17C159.984 1094.21 160.307 1094.58 160.275 1095.01C160.244 1095.44 159.868 1095.76 159.44 1095.73C159.012 1095.7 158.691 1095.33 158.721 1094.89C158.752 1094.47 159.127 1094.14 159.556 1094.17Z" fill="#5A59A2"/>
<path d="M159.755 1091.37C160.184 1091.41 160.506 1091.78 160.475 1092.21C160.444 1092.64 160.068 1092.96 159.64 1092.93C159.212 1092.9 158.889 1092.52 158.92 1092.09C158.952 1091.67 159.318 1091.34 159.747 1091.38L159.755 1091.37Z" fill="#5A59A2"/>
<path d="M159.957 1088.58C160.385 1088.61 160.706 1088.98 160.677 1089.42C160.645 1089.85 160.27 1090.17 159.842 1090.14C159.413 1090.11 159.091 1089.73 159.122 1089.3C159.153 1088.87 159.52 1088.55 159.957 1088.58Z" fill="#5A59A2"/>
<path d="M160.159 1085.79C160.587 1085.82 160.91 1086.2 160.879 1086.63C160.848 1087.05 160.472 1087.38 160.044 1087.35C159.616 1087.31 159.295 1086.95 159.324 1086.51C159.355 1086.08 159.722 1085.76 160.159 1085.79Z" fill="#5A59A2"/>
<path d="M160.361 1083C160.789 1083.03 161.112 1083.41 161.081 1083.83C161.05 1084.26 160.674 1084.58 160.246 1084.55C159.818 1084.52 159.495 1084.15 159.526 1083.72C159.558 1083.29 159.924 1082.97 160.361 1083Z" fill="#5A59A2"/>
<path d="M161.591 1108.24C162.149 1108.28 162.569 1108.76 162.531 1109.32C162.492 1109.88 162.002 1110.3 161.442 1110.25C160.884 1110.21 160.464 1109.73 160.502 1109.17C160.541 1108.62 161.023 1108.2 161.581 1108.24L161.591 1108.24Z" fill="#5A59A2"/>
<path d="M161.849 1104.6C162.407 1104.64 162.827 1105.12 162.789 1105.68C162.75 1106.24 162.26 1106.66 161.71 1106.62C161.152 1106.58 160.732 1106.1 160.771 1105.54C160.81 1104.99 161.291 1104.57 161.849 1104.6Z" fill="#5A59A2"/>
<path d="M162.109 1100.98C162.667 1101.01 163.088 1101.5 163.049 1102.05C163.01 1102.61 162.529 1103.03 161.971 1102.99C161.413 1102.95 160.993 1102.47 161.031 1101.92C161.07 1101.36 161.551 1100.94 162.109 1100.98Z" fill="#5A59A2"/>
<path d="M162.376 1097.34C162.934 1097.37 163.354 1097.86 163.316 1098.41C163.277 1098.97 162.795 1099.39 162.237 1099.35C161.679 1099.32 161.259 1098.83 161.298 1098.28C161.336 1097.72 161.818 1097.3 162.376 1097.34Z" fill="#5A59A2"/>
<path d="M162.636 1093.71C163.194 1093.75 163.614 1094.23 163.576 1094.79C163.537 1095.34 163.047 1095.77 162.497 1095.73C161.939 1095.69 161.519 1095.21 161.558 1094.65C161.597 1094.09 162.078 1093.67 162.636 1093.71Z" fill="#5A59A2"/>
<path d="M162.894 1090.07C163.452 1090.11 163.872 1090.59 163.833 1091.15C163.794 1091.71 163.304 1092.13 162.755 1092.09C162.197 1092.05 161.777 1091.57 161.815 1091.01C161.854 1090.45 162.336 1090.03 162.894 1090.07Z" fill="#5A59A2"/>
<path d="M163.161 1086.43C163.719 1086.47 164.141 1086.96 164.101 1087.51C164.062 1088.07 163.572 1088.49 163.014 1088.45C162.456 1088.41 162.035 1087.93 162.074 1087.37C162.113 1086.81 162.594 1086.39 163.152 1086.43L163.161 1086.43Z" fill="#5A59A2"/>
<path d="M163.419 1082.79C163.977 1082.83 164.399 1083.32 164.358 1083.87C164.319 1084.43 163.838 1084.85 163.28 1084.81C162.722 1084.77 162.302 1084.29 162.34 1083.73C162.379 1083.17 162.861 1082.75 163.419 1082.79Z" fill="#5A59A2"/>
<path d="M164.606 1108.58C165.034 1108.61 165.357 1108.98 165.324 1109.4C165.292 1109.83 164.917 1110.15 164.489 1110.12C164.06 1110.09 163.738 1109.72 163.769 1109.29C163.8 1108.86 164.176 1108.54 164.604 1108.57L164.606 1108.58Z" fill="#5A59A2"/>
<path d="M164.808 1105.78C165.236 1105.82 165.559 1106.19 165.525 1106.61C165.494 1107.04 165.127 1107.36 164.699 1107.33C164.271 1107.3 163.948 1106.92 163.979 1106.49C164.011 1106.07 164.386 1105.74 164.814 1105.77L164.808 1105.78Z" fill="#5A59A2"/>
<path d="M165.009 1102.99C165.437 1103.02 165.76 1103.4 165.729 1103.83C165.698 1104.26 165.322 1104.58 164.894 1104.55C164.466 1104.52 164.143 1104.14 164.174 1103.71C164.206 1103.28 164.572 1102.96 165.009 1102.99Z" fill="#5A59A2"/>
<path d="M165.211 1100.2C165.64 1100.23 165.962 1100.61 165.931 1101.04C165.9 1101.46 165.524 1101.79 165.096 1101.76C164.668 1101.72 164.345 1101.35 164.376 1100.92C164.408 1100.49 164.783 1100.17 165.211 1100.2Z" fill="#5A59A2"/>
<path d="M165.412 1097.4C165.84 1097.43 166.163 1097.81 166.131 1098.24C166.1 1098.66 165.724 1098.99 165.296 1098.96C164.868 1098.92 164.545 1098.55 164.577 1098.12C164.608 1097.69 164.983 1097.37 165.412 1097.4Z" fill="#5A59A2"/>
<path d="M165.613 1094.61C166.041 1094.64 166.364 1095.02 166.333 1095.44C166.302 1095.87 165.926 1096.19 165.498 1096.16C165.07 1096.13 164.747 1095.76 164.778 1095.33C164.81 1094.9 165.185 1094.58 165.613 1094.61Z" fill="#5A59A2"/>
<path d="M165.815 1091.82C166.244 1091.85 166.566 1092.22 166.535 1092.65C166.504 1093.08 166.137 1093.4 165.7 1093.37C165.272 1093.34 164.951 1092.97 164.98 1092.54C165.012 1092.11 165.387 1091.79 165.815 1091.82Z" fill="#5A59A2"/>
<path d="M166.018 1089.03C166.446 1089.06 166.767 1089.42 166.737 1089.86C166.706 1090.29 166.33 1090.61 165.902 1090.58C165.474 1090.55 165.151 1090.17 165.182 1089.75C165.214 1089.32 165.589 1088.99 166.018 1089.03Z" fill="#5A59A2"/>
<path d="M166.217 1086.22C166.645 1086.26 166.966 1086.62 166.937 1087.06C166.906 1087.49 166.53 1087.81 166.102 1087.78C165.674 1087.75 165.351 1087.37 165.382 1086.94C165.414 1086.52 165.789 1086.19 166.209 1086.23L166.217 1086.22Z" fill="#5A59A2"/>
<path d="M166.419 1083.43C166.848 1083.46 167.169 1083.83 167.137 1084.26C167.106 1084.69 166.73 1085.01 166.302 1084.98C165.874 1084.95 165.551 1084.57 165.582 1084.14C165.614 1083.72 165.989 1083.39 166.417 1083.42L166.419 1083.43Z" fill="#5A59A2"/>
<path d="M166.633 1080.49C167.061 1080.52 167.384 1080.9 167.353 1081.33C167.322 1081.76 166.946 1082.08 166.518 1082.05C166.09 1082.02 165.767 1081.64 165.798 1081.21C165.83 1080.78 166.205 1080.46 166.633 1080.49Z" fill="#5A59A2"/>
<path d="M167.648 1108.68C168.206 1108.71 168.626 1109.2 168.587 1109.75C168.549 1110.31 168.067 1110.73 167.509 1110.69C166.951 1110.65 166.531 1110.17 166.57 1109.62C166.608 1109.06 167.09 1108.64 167.648 1108.68Z" fill="#5A59A2"/>
<path d="M167.908 1105.05C168.466 1105.09 168.886 1105.57 168.847 1106.13C168.809 1106.68 168.327 1107.1 167.769 1107.06C167.211 1107.03 166.791 1106.54 166.829 1105.99C166.868 1105.43 167.359 1105.01 167.908 1105.05Z" fill="#5A59A2"/>
<path d="M168.166 1101.41C168.724 1101.45 169.144 1101.93 169.106 1102.49C169.067 1103.05 168.585 1103.47 168.027 1103.43C167.469 1103.39 167.049 1102.91 167.088 1102.35C167.126 1101.79 167.608 1101.37 168.166 1101.41Z" fill="#5A59A2"/>
<path d="M168.432 1097.77C168.99 1097.81 169.41 1098.29 169.372 1098.85C169.333 1099.41 168.851 1099.83 168.293 1099.79C167.735 1099.75 167.315 1099.27 167.354 1098.71C167.393 1098.15 167.883 1097.73 168.432 1097.77Z" fill="#5A59A2"/>
<path d="M168.692 1094.14C169.25 1094.18 169.67 1094.66 169.631 1095.22C169.593 1095.78 169.111 1096.2 168.544 1096.16C167.986 1096.12 167.566 1095.64 167.605 1095.08C167.643 1094.52 168.134 1094.1 168.685 1094.15L168.692 1094.14Z" fill="#5A59A2"/>
<path d="M168.959 1090.5C169.517 1090.54 169.937 1091.02 169.898 1091.58C169.859 1092.14 169.378 1092.56 168.82 1092.52C168.262 1092.48 167.842 1092 167.889 1091.44C167.928 1090.88 168.409 1090.46 168.969 1090.51L168.959 1090.5Z" fill="#5A59A2"/>
<path d="M169.217 1086.86C169.775 1086.9 170.197 1087.39 170.156 1087.94C170.118 1088.5 169.636 1088.92 169.078 1088.88C168.52 1088.84 168.1 1088.36 168.139 1087.8C168.177 1087.25 168.659 1086.83 169.217 1086.86Z" fill="#5A59A2"/>
<path d="M169.477 1083.24C170.035 1083.27 170.457 1083.76 170.416 1084.31C170.377 1084.87 169.896 1085.29 169.338 1085.25C168.78 1085.21 168.358 1084.72 168.398 1084.18C168.437 1083.62 168.919 1083.2 169.477 1083.24Z" fill="#5A59A2"/>
<path d="M170.673 1109.02C171.101 1109.05 171.424 1109.42 171.393 1109.85C171.362 1110.28 170.986 1110.6 170.558 1110.57C170.13 1110.54 169.807 1110.17 169.838 1109.74C169.87 1109.31 170.236 1108.99 170.673 1109.02Z" fill="#5A59A2"/>
<path d="M170.874 1106.22C171.302 1106.25 171.625 1106.62 171.593 1107.05C171.562 1107.48 171.186 1107.8 170.758 1107.77C170.33 1107.74 170.007 1107.36 170.038 1106.94C170.07 1106.51 170.445 1106.19 170.874 1106.22Z" fill="#5A59A2"/>
<path d="M171.067 1103.43C171.495 1103.46 171.818 1103.83 171.787 1104.26C171.755 1104.69 171.38 1105.01 170.952 1104.98C170.523 1104.95 170.2 1104.58 170.232 1104.15C170.263 1103.72 170.639 1103.4 171.067 1103.43Z" fill="#5A59A2"/>
<path d="M171.269 1100.64C171.697 1100.67 172.02 1101.04 171.988 1101.47C171.957 1101.9 171.581 1102.22 171.153 1102.19C170.725 1102.16 170.402 1101.78 170.433 1101.36C170.465 1100.93 170.84 1100.6 171.269 1100.64Z" fill="#5A59A2"/>
<path d="M171.478 1097.83C171.906 1097.86 172.229 1098.24 172.197 1098.67C172.166 1099.1 171.79 1099.42 171.362 1099.39C170.934 1099.36 170.611 1098.98 170.642 1098.55C170.674 1098.12 171.049 1097.8 171.478 1097.83Z" fill="#5A59A2"/>
<path d="M171.67 1095.04C172.099 1095.07 172.421 1095.45 172.39 1095.88C172.359 1096.31 171.983 1096.63 171.555 1096.6C171.127 1096.57 170.804 1096.19 170.835 1095.76C170.867 1095.33 171.242 1095.01 171.67 1095.04Z" fill="#5A59A2"/>
<path d="M171.873 1092.25C172.301 1092.28 172.624 1092.66 172.592 1093.09C172.561 1093.51 172.185 1093.84 171.757 1093.81C171.329 1093.77 171.006 1093.4 171.037 1092.97C171.069 1092.54 171.444 1092.22 171.873 1092.25Z" fill="#5A59A2"/>
<path d="M172.074 1089.46C172.502 1089.49 172.825 1089.87 172.794 1090.29C172.763 1090.72 172.387 1091.05 171.959 1091.01C171.531 1090.98 171.208 1090.61 171.239 1090.18C171.27 1089.75 171.646 1089.43 172.074 1089.46Z" fill="#5A59A2"/>
<path d="M172.276 1086.67C172.705 1086.7 173.027 1087.07 172.996 1087.5C172.965 1087.93 172.598 1088.25 172.161 1088.22C171.733 1088.19 171.41 1087.82 171.441 1087.39C171.473 1086.96 171.848 1086.64 172.276 1086.67Z" fill="#5A59A2"/>
<path d="M172.476 1083.87C172.904 1083.9 173.227 1084.27 173.196 1084.7C173.164 1085.13 172.789 1085.45 172.361 1085.42C171.933 1085.39 171.61 1085.01 171.641 1084.59C171.672 1084.16 172.048 1083.84 172.476 1083.87Z" fill="#5A59A2"/>
<path d="M172.69 1080.93C173.118 1080.96 173.441 1081.33 173.41 1081.76C173.378 1082.19 173.003 1082.51 172.575 1082.48C172.146 1082.45 171.823 1082.07 171.855 1081.65C171.886 1081.22 172.262 1080.89 172.69 1080.93Z" fill="#5A59A2"/>
<path d="M173.709 1109.12C174.267 1109.16 174.687 1109.64 174.649 1110.2C174.61 1110.75 174.128 1111.18 173.57 1111.14C173.012 1111.1 172.592 1110.62 172.631 1110.06C172.669 1109.5 173.151 1109.08 173.709 1109.12Z" fill="#5A59A2"/>
<path d="M173.967 1105.48C174.525 1105.52 174.945 1106 174.906 1106.56C174.868 1107.12 174.377 1107.54 173.828 1107.5C173.27 1107.46 172.85 1106.98 172.889 1106.42C172.927 1105.86 173.409 1105.44 173.967 1105.48Z" fill="#5A59A2"/>
<path d="M174.233 1101.84C174.79 1101.88 175.213 1102.37 175.172 1102.92C175.133 1103.48 174.652 1103.9 174.094 1103.86C173.536 1103.82 173.116 1103.34 173.154 1102.78C173.193 1102.22 173.675 1101.8 174.233 1101.84Z" fill="#5A59A2"/>
<path d="M174.492 1098.21C175.05 1098.25 175.472 1098.74 175.432 1099.29C175.393 1099.85 174.911 1100.27 174.353 1100.23C173.795 1100.19 173.375 1099.71 173.414 1099.15C173.453 1098.59 173.934 1098.17 174.501 1098.21L174.492 1098.21Z" fill="#5A59A2"/>
<path d="M174.751 1094.58C175.309 1094.61 175.731 1095.1 175.69 1095.65C175.651 1096.21 175.17 1096.63 174.612 1096.59C174.054 1096.55 173.634 1096.07 173.672 1095.52C173.711 1094.96 174.201 1094.54 174.751 1094.58Z" fill="#5A59A2"/>
<path d="M175.017 1090.94C175.575 1090.97 175.995 1091.46 175.956 1092.01C175.918 1092.57 175.436 1092.99 174.878 1092.95C174.32 1092.92 173.9 1092.43 173.938 1091.88C173.977 1091.32 174.459 1090.9 175.017 1090.94Z" fill="#5A59A2"/>
<path d="M175.277 1087.31C175.835 1087.35 176.257 1087.84 176.216 1088.39C176.178 1088.94 175.696 1089.36 175.138 1089.32C174.58 1089.29 174.16 1088.8 174.199 1088.25C174.237 1087.69 174.719 1087.27 175.277 1087.31Z" fill="#5A59A2"/>
<path d="M175.535 1083.67C176.093 1083.71 176.515 1084.2 176.474 1084.75C176.436 1085.31 175.945 1085.73 175.387 1085.69C174.829 1085.65 174.409 1085.17 174.448 1084.61C174.486 1084.05 174.977 1083.63 175.526 1083.67L175.535 1083.67Z" fill="#5A59A2"/>
<path d="M175.802 1080.03C176.36 1080.07 176.782 1080.56 176.741 1081.11C176.703 1081.67 176.221 1082.09 175.663 1082.05C175.105 1082.01 174.685 1081.53 174.724 1080.97C174.762 1080.41 175.253 1079.99 175.802 1080.03Z" fill="#5A59A2"/>
<path d="M176.732 1109.45C177.161 1109.48 177.483 1109.86 177.452 1110.29C177.421 1110.71 177.045 1111.04 176.617 1111.01C176.189 1110.97 175.866 1110.6 175.897 1110.17C175.929 1109.74 176.304 1109.42 176.732 1109.45Z" fill="#5A59A2"/>
<path d="M176.934 1106.66C177.362 1106.69 177.685 1107.07 177.654 1107.49C177.622 1107.92 177.247 1108.25 176.819 1108.21C176.391 1108.18 176.068 1107.81 176.099 1107.38C176.13 1106.95 176.497 1106.63 176.934 1106.66Z" fill="#5A59A2"/>
<path d="M177.133 1103.86C177.561 1103.89 177.884 1104.27 177.853 1104.69C177.822 1105.12 177.446 1105.45 177.018 1105.41C176.59 1105.38 176.269 1105.02 176.298 1104.58C176.33 1104.15 176.705 1103.83 177.133 1103.86Z" fill="#5A59A2"/>
<path d="M177.326 1101.07C177.754 1101.1 178.077 1101.48 178.046 1101.9C178.015 1102.33 177.648 1102.65 177.22 1102.62C176.791 1102.59 176.469 1102.22 176.5 1101.79C176.531 1101.36 176.907 1101.04 177.335 1101.07L177.326 1101.07Z" fill="#5A59A2"/>
<path d="M177.529 1098.28C177.957 1098.31 178.28 1098.68 178.248 1099.11C178.217 1099.54 177.842 1099.86 177.413 1099.83C176.985 1099.8 176.662 1099.43 176.694 1099C176.725 1098.57 177.101 1098.25 177.529 1098.28Z" fill="#5A59A2"/>
<path d="M177.73 1095.49C178.159 1095.52 178.482 1095.89 178.45 1096.32C178.419 1096.75 178.043 1097.07 177.615 1097.04C177.187 1097.01 176.866 1096.64 176.895 1096.21C176.927 1095.78 177.302 1095.45 177.73 1095.49Z" fill="#5A59A2"/>
<path d="M177.938 1092.68C178.367 1092.71 178.69 1093.09 178.658 1093.52C178.627 1093.95 178.251 1094.27 177.823 1094.24C177.395 1094.21 177.072 1093.83 177.103 1093.4C177.135 1092.98 177.51 1092.65 177.938 1092.68Z" fill="#5A59A2"/>
<path d="M178.132 1089.89C178.56 1089.92 178.881 1090.29 178.852 1090.73C178.82 1091.16 178.445 1091.48 178.016 1091.45C177.588 1091.42 177.265 1091.04 177.297 1090.61C177.328 1090.19 177.704 1089.86 178.132 1089.89Z" fill="#5A59A2"/>
<path d="M178.334 1087.1C178.762 1087.13 179.085 1087.51 179.054 1087.94C179.022 1088.36 178.647 1088.69 178.219 1088.66C177.79 1088.63 177.468 1088.25 177.499 1087.82C177.53 1087.39 177.906 1087.07 178.334 1087.1Z" fill="#5A59A2"/>
<path d="M178.536 1084.31C178.964 1084.34 179.287 1084.72 179.255 1085.14C179.224 1085.57 178.848 1085.9 178.42 1085.86C177.992 1085.83 177.669 1085.46 177.701 1085.03C177.732 1084.6 178.099 1084.28 178.536 1084.31Z" fill="#5A59A2"/>
<path d="M178.749 1081.37C179.178 1081.4 179.501 1081.78 179.469 1082.2C179.438 1082.63 179.071 1082.95 178.634 1082.92C178.206 1082.89 177.883 1082.52 177.914 1082.09C177.946 1081.66 178.321 1081.34 178.749 1081.37Z" fill="#5A59A2"/>
<path d="M179.765 1109.55C180.323 1109.59 180.743 1110.07 180.705 1110.63C180.666 1111.19 180.176 1111.61 179.618 1111.57C179.06 1111.53 178.639 1111.05 178.678 1110.49C178.717 1109.94 179.198 1109.52 179.756 1109.55L179.765 1109.55Z" fill="#5A59A2"/>
<path d="M180.023 1105.92C180.581 1105.95 181.003 1106.44 180.962 1106.99C180.924 1107.55 180.433 1107.97 179.875 1107.94C179.317 1107.9 178.897 1107.41 178.936 1106.86C178.975 1106.3 179.456 1105.88 180.014 1105.92L180.023 1105.92Z" fill="#5A59A2"/>
<path d="M180.292 1102.28C180.85 1102.32 181.27 1102.8 181.232 1103.36C181.193 1103.92 180.702 1104.34 180.153 1104.3C179.595 1104.26 179.175 1103.78 179.214 1103.22C179.252 1102.67 179.734 1102.25 180.292 1102.28Z" fill="#5A59A2"/>
<path d="M180.55 1098.65C181.108 1098.69 181.528 1099.17 181.49 1099.73C181.451 1100.28 180.961 1100.71 180.409 1100.66C179.858 1100.61 179.431 1100.14 179.47 1099.58C179.508 1099.02 179.99 1098.6 180.55 1098.65Z" fill="#5A59A2"/>
<path d="M180.807 1095.01C181.365 1095.05 181.785 1095.53 181.747 1096.09C181.708 1096.65 181.226 1097.07 180.668 1097.03C180.11 1096.99 179.69 1096.51 179.729 1095.95C179.768 1095.39 180.249 1094.97 180.807 1095.01Z" fill="#5A59A2"/>
<path d="M181.076 1091.38C181.634 1091.42 182.054 1091.9 182.015 1092.46C181.977 1093.01 181.486 1093.44 180.937 1093.4C180.379 1093.36 179.959 1092.88 179.997 1092.32C180.036 1091.76 180.527 1091.34 181.076 1091.38Z" fill="#5A59A2"/>
<path d="M181.334 1087.74C181.892 1087.78 182.314 1088.27 182.273 1088.82C182.235 1089.38 181.744 1089.8 181.186 1089.76C180.628 1089.72 180.208 1089.24 180.247 1088.68C180.286 1088.12 180.776 1087.7 181.325 1087.74L181.334 1087.74Z" fill="#5A59A2"/>
<path d="M181.592 1084.1C182.15 1084.14 182.57 1084.62 182.531 1085.18C182.492 1085.74 182.011 1086.16 181.453 1086.12C180.895 1086.08 180.475 1085.6 180.522 1085.04C180.561 1084.48 181.042 1084.06 181.6 1084.1L181.592 1084.1Z" fill="#5A59A2"/>
<path d="M181.86 1080.47C182.418 1080.51 182.84 1081 182.799 1081.55C182.761 1082.11 182.27 1082.53 181.721 1082.49C181.163 1082.45 180.743 1081.97 180.782 1081.41C180.82 1080.85 181.302 1080.43 181.86 1080.47Z" fill="#5A59A2"/>
<path d="M182.789 1109.89C183.217 1109.92 183.54 1110.29 183.508 1110.72C183.477 1111.15 183.101 1111.47 182.673 1111.44C182.245 1111.41 181.922 1111.03 181.953 1110.61C181.985 1110.18 182.36 1109.85 182.789 1109.89Z" fill="#5A59A2"/>
<path d="M182.991 1107.09C183.419 1107.13 183.742 1107.5 183.71 1107.93C183.679 1108.36 183.304 1108.68 182.875 1108.65C182.447 1108.62 182.124 1108.24 182.156 1107.81C182.187 1107.39 182.563 1107.06 182.991 1107.09Z" fill="#5A59A2"/>
<path d="M183.191 1104.3C183.62 1104.33 183.942 1104.71 183.911 1105.14C183.88 1105.56 183.504 1105.89 183.076 1105.86C182.648 1105.83 182.325 1105.45 182.356 1105.02C182.388 1104.59 182.763 1104.27 183.191 1104.3Z" fill="#5A59A2"/>
<path d="M183.391 1101.5C183.819 1101.53 184.142 1101.91 184.111 1102.34C184.079 1102.76 183.704 1103.09 183.276 1103.06C182.848 1103.02 182.527 1102.66 182.556 1102.22C182.587 1101.79 182.963 1101.47 183.391 1101.5Z" fill="#5A59A2"/>
</g>
</g>
<g clip-path="url(#clip12_132_333480)">
<path d="M392.289 286.728C391.563 281.995 394.873 277.59 399.706 276.887C404.516 276.174 408.991 279.435 409.718 284.169C410.444 288.902 407.123 293.307 402.313 294.009C397.48 294.723 393.005 291.462 392.278 286.728H392.289Z" fill="#D3B24C"/>
<path opacity="0.9" d="M390.248 294.462C389.706 290.918 392.197 287.611 395.807 287.079C399.406 286.558 402.774 288.993 403.316 292.537C403.858 296.082 401.367 299.388 397.768 299.921C394.158 300.453 390.79 298.007 390.248 294.462Z" fill="#F8EDBE"/>
</g>
<g clip-path="url(#clip13_132_333480)">
<path d="M331.575 1050.12C330.848 1045.39 334.159 1040.98 338.992 1040.28C343.801 1039.57 348.277 1042.83 349.003 1047.56C349.73 1052.3 346.408 1056.7 341.598 1057.4C336.766 1058.12 332.29 1054.85 331.564 1050.12H331.575Z" fill="#D3B24C"/>
<path opacity="0.9" d="M329.534 1057.86C328.991 1054.31 331.483 1051 335.093 1050.47C338.692 1049.95 342.06 1052.39 342.602 1055.93C343.144 1059.47 340.653 1062.78 337.054 1063.31C333.444 1063.85 330.076 1061.4 329.534 1057.86Z" fill="#F8EDBE"/>
</g>
<g clip-path="url(#clip14_132_333480)">
<path d="M394.313 35.5534C394.857 39.8398 391.831 43.7462 387.535 44.2797C383.259 44.8239 379.363 41.7884 378.819 37.502C378.275 33.2157 381.311 29.3095 385.587 28.7755C389.883 28.2318 393.779 31.2673 394.323 35.5537L394.313 35.5534Z" fill="#D3B24C"/>
<path opacity="0.9" d="M396.285 28.6165C396.69 31.8261 394.414 34.7583 391.204 35.1638C388.005 35.5594 385.072 33.2927 384.667 30.0831C384.261 26.8735 386.538 23.9413 389.738 23.5355C392.947 23.13 395.879 25.4069 396.285 28.6165Z" fill="#F8EDBE"/>
</g>
<g clip-path="url(#clip15_132_333480)">
<path d="M463.228 598.075L476.31 582.966L460.044 582.101L463.228 598.075Z" fill="#D3B24C"/>
</g>
<g clip-path="url(#clip16_132_333480)">
<path d="M415.907 979.325L428.989 964.215L412.722 963.351L415.907 979.325Z" fill="#D3B24C"/>
</g>
<g clip-path="url(#clip17_132_333480)">
<path d="M257.603 171.803L238.01 167.857L245.267 182.441L257.603 171.803Z" fill="#D3B24C"/>
</g>
<g clip-path="url(#clip18_132_333480)">
<path d="M255.261 440.167C253.793 436.931 249.952 435.486 246.686 436.941C245.5 437.472 244.559 438.302 243.9 439.309C243.816 438.768 243.656 438.237 243.411 437.715C241.942 434.488 238.102 433.043 234.836 434.497C231.57 435.952 230.111 439.757 231.58 442.992C231.815 443.515 232.116 443.99 232.464 444.41C231.269 444.223 230.008 444.373 228.822 444.904C225.565 446.359 224.106 450.163 225.575 453.399C227.043 456.635 230.638 457.987 233.829 456.756C232.982 458.425 232.878 460.439 233.707 462.276C235.175 465.512 239.015 466.957 242.281 465.503C244.794 464.384 246.234 461.866 246.093 459.292C247.948 461.101 250.799 461.707 253.312 460.588C256.579 459.134 258.037 455.329 256.569 452.094C255.731 450.257 254.141 448.998 252.315 448.522C255.355 446.965 256.673 443.309 255.251 440.176L255.261 440.167Z" fill="#D3B24C"/>
<path d="M238.413 442.377C237.914 442.601 237.754 443.3 238.046 443.934C238.592 445.137 240.484 446.732 240.681 446.648C240.879 446.564 240.38 444.335 239.834 443.142C239.542 442.498 238.902 442.162 238.413 442.377Z" fill="#0E367B"/>
<path d="M233.725 450.489C233.782 451.021 234.403 451.394 235.109 451.319C236.427 451.179 239.241 450.107 239.222 449.892C239.203 449.678 236.22 449.24 234.892 449.38C234.186 449.454 233.659 449.948 233.725 450.489Z" fill="#0E367B"/>
<path d="M240.069 457.418C240.596 457.53 241.151 457.063 241.293 456.373C241.565 455.087 241.405 452.103 241.198 452.056C240.982 452.009 239.636 454.686 239.372 455.972C239.231 456.663 239.542 457.306 240.069 457.418Z" fill="#0E367B"/>
<path d="M248.672 453.576C248.945 453.11 248.663 452.448 248.041 452.093C246.893 451.441 243.975 450.667 243.872 450.853C243.768 451.04 245.914 453.138 247.063 453.791C247.674 454.136 248.399 454.042 248.663 453.576H248.672Z" fill="#0E367B"/>
<path d="M247.655 444.288C247.288 443.887 246.573 443.953 246.046 444.419C246.027 444.428 242.45 446.75 243.561 447.962C243.712 448.121 246.385 446.741 247.364 445.855C247.891 445.379 248.022 444.68 247.655 444.279V444.288Z" fill="#0E367B"/>
</g>
<g clip-path="url(#clip19_132_333480)">
<path d="M144.546 899.095C143.078 895.86 139.237 894.414 135.971 895.869C134.785 896.401 133.844 897.231 133.185 898.238C133.101 897.697 132.941 897.165 132.696 896.643C131.228 893.417 127.387 891.971 124.121 893.426C120.855 894.881 119.396 898.685 120.865 901.921C121.1 902.443 121.401 902.919 121.749 903.338C120.554 903.152 119.293 903.301 118.107 903.833C114.85 905.287 113.391 909.092 114.86 912.327C116.328 915.563 119.924 916.915 123.114 915.684C122.267 917.354 122.164 919.368 122.992 921.205C124.46 924.441 128.3 925.886 131.566 924.431C134.08 923.312 135.52 920.794 135.378 918.221C137.233 920.03 140.085 920.636 142.598 919.517C145.864 918.062 147.323 914.258 145.854 911.022C145.017 909.185 143.426 907.926 141.6 907.451C144.64 905.893 145.958 902.238 144.537 899.105L144.546 899.095Z" fill="#D3B24C"/>
<path d="M127.698 901.305C127.2 901.529 127.04 902.229 127.331 902.863C127.877 904.066 129.769 905.66 129.967 905.576C130.165 905.492 129.666 903.264 129.12 902.07C128.828 901.427 128.188 901.091 127.698 901.305Z" fill="#0E367B"/>
<path d="M123.011 909.418C123.067 909.949 123.689 910.322 124.395 910.248C125.712 910.108 128.527 909.036 128.508 908.821C128.489 908.607 125.505 908.168 124.178 908.308C123.472 908.383 122.945 908.877 123.011 909.418Z" fill="#0E367B"/>
<path d="M129.355 916.346C129.882 916.458 130.437 915.992 130.578 915.302C130.851 914.015 130.691 911.031 130.484 910.984C130.268 910.938 128.922 913.614 128.658 914.901C128.517 915.591 128.827 916.234 129.355 916.346Z" fill="#0E367B"/>
<path d="M137.958 912.505C138.231 912.039 137.948 911.376 137.327 911.022C136.179 910.369 133.261 909.595 133.157 909.782C133.054 909.968 135.2 912.066 136.348 912.719C136.96 913.064 137.685 912.971 137.948 912.505H137.958Z" fill="#0E367B"/>
<path d="M136.941 903.217C136.574 902.816 135.859 902.881 135.331 903.347C135.313 903.357 131.736 905.679 132.847 906.891C132.997 907.049 135.67 905.669 136.649 904.784C137.176 904.308 137.308 903.609 136.941 903.208V903.217Z" fill="#0E367B"/>
</g>
<g clip-path="url(#clip20_132_333480)">
<path d="M338.186 96.4542C336.137 94.9878 333.463 95.1344 331 96.5663C329.325 94.0562 326.98 92.5898 324.568 92.9003C322.156 93.2109 320.235 95.212 319.22 98.0672C316.486 97.2995 313.863 97.817 312.229 99.7578C309.462 103.044 310.587 109.16 314.751 113.404C318.915 117.656 324.535 118.433 327.302 115.146C330.78 117.639 336.036 115.474 339.04 110.307C342.045 105.14 341.664 98.9384 338.186 96.4455V96.4542Z" fill="#D3B24C"/>
<path d="M323.223 120.184C321.877 120.356 320.413 120.209 318.991 119.778C317.036 119.174 315.352 118.088 314.26 116.699C313.202 115.362 312.83 113.913 313.211 112.619C313.702 110.971 315.369 109.807 317.679 109.514C319.025 109.341 320.489 109.488 321.911 109.919C323.866 110.523 325.55 111.61 326.642 112.998C327.7 114.335 328.072 115.784 327.691 117.078C327.2 118.726 325.533 119.89 323.223 120.184Z" fill="#0E367B"/>
<path d="M332.473 119.01C330.163 119.304 328.267 118.596 327.395 117.121C326.71 115.965 326.727 114.473 327.429 112.903C328.157 111.29 329.52 109.807 331.271 108.737C332.549 107.952 333.929 107.452 335.274 107.279C337.585 106.986 339.481 107.693 340.352 109.168C341.038 110.324 341.021 111.816 340.318 113.386C339.591 114.999 338.228 116.483 336.476 117.553C335.198 118.338 333.819 118.838 332.473 119.01Z" fill="#0E367B"/>
<path d="M321.124 108.013C319.66 107.167 318.898 105.735 318.898 105.735C318.898 105.735 320.498 105.666 321.962 106.503C323.426 107.348 324.188 108.78 324.188 108.78C324.188 108.78 322.588 108.849 321.124 108.013ZM326.304 106.96C326.304 106.96 325.288 105.692 325.085 103.993C324.882 102.294 325.55 100.81 325.55 100.81C325.55 100.81 326.566 102.078 326.769 103.777C326.972 105.477 326.304 106.96 326.304 106.96ZM331.576 106.676C330.366 107.857 328.792 108.194 328.792 108.194C328.792 108.194 329.19 106.607 330.4 105.425C331.61 104.243 333.184 103.907 333.184 103.907C333.184 103.907 332.786 105.494 331.576 106.676Z" fill="#FE5226"/>
</g>
<g clip-path="url(#clip21_132_333480)">
<path d="M309.656 960.446C307.31 959.528 304.754 960.327 302.718 962.32C300.477 960.299 297.845 959.454 295.583 960.347C293.321 961.241 291.951 963.653 291.668 966.67C288.829 966.598 286.413 967.744 285.307 970.027C283.432 973.892 286.026 979.544 291.105 982.635C296.186 985.734 301.824 985.105 303.699 981.239C307.683 982.801 312.246 979.411 313.888 973.664C315.531 967.918 313.638 961.999 309.654 960.438L309.656 960.446Z" fill="#D3B24C"/>
<path d="M300.983 987.124C299.721 987.622 298.266 987.84 296.781 987.771C294.738 987.666 292.838 987.027 291.439 985.949C290.085 984.913 289.368 983.6 289.419 982.252C289.49 980.534 290.82 978.996 292.987 978.144C294.249 977.646 295.705 977.428 297.189 977.497C299.232 977.602 301.132 978.241 302.531 979.319C303.885 980.355 304.602 981.669 304.551 983.016C304.48 984.734 303.15 986.272 300.983 987.124Z" fill="#5A59A2"/>
<path d="M309.661 983.714C307.494 984.566 305.482 984.346 304.275 983.131C303.326 982.179 302.976 980.728 303.271 979.034C303.58 977.291 304.537 975.518 305.972 974.051C307.018 972.976 308.232 972.152 309.494 971.654C311.661 970.802 313.673 971.022 314.88 972.238C315.829 973.19 316.179 974.64 315.884 976.335C315.575 978.077 314.619 979.85 313.183 981.317C312.137 982.392 310.923 983.216 309.661 983.714Z" fill="#5A59A2"/>
<path d="M295.958 975.842C294.331 975.383 293.241 974.182 293.241 974.182C293.241 974.182 294.774 973.722 296.399 974.173C298.026 974.633 299.116 975.834 299.116 975.834C299.116 975.834 297.583 976.294 295.958 975.842ZM300.72 973.55C300.72 973.55 299.424 972.57 298.809 970.973C298.195 969.376 298.478 967.773 298.478 967.773C298.478 967.773 299.774 968.753 300.389 970.35C301.003 971.947 300.72 973.55 300.72 973.55ZM305.761 971.978C304.878 973.421 303.435 974.134 303.435 974.134C303.435 974.134 303.43 972.498 304.313 971.055C305.196 969.612 306.639 968.899 306.639 968.899C306.639 968.899 306.643 970.535 305.761 971.978Z" fill="#FE5226"/>
</g>
<g clip-path="url(#clip22_132_333480)">
<path d="M423.386 405.79C419.991 404.524 416.317 405.705 413.387 408.567C410.145 405.728 406.337 404.579 403.078 405.881C399.819 407.182 397.852 410.632 397.448 414.922C393.342 414.864 389.863 416.541 388.273 419.796C385.58 425.318 389.338 433.281 396.677 437.597C404.015 441.913 412.15 440.933 414.85 435.419C420.603 437.569 427.183 432.68 429.536 424.501C431.889 416.323 429.131 407.946 423.378 405.796L423.386 405.79Z" fill="#073786"/>
<path d="M410.949 443.81C409.13 444.532 407.036 444.876 404.892 444.792C401.939 444.678 399.196 443.796 397.174 442.298C395.213 440.845 394.175 438.998 394.247 437.09C394.342 434.645 396.258 432.447 399.386 431.197C401.205 430.475 403.3 430.131 405.443 430.215C408.396 430.329 411.139 431.211 413.162 432.709C415.123 434.162 416.16 436.009 416.088 437.917C415.993 440.362 414.077 442.56 410.949 443.81Z" fill="#B59732"/>
<path d="M423.457 438.826C420.338 440.069 417.425 439.789 415.677 438.086C414.316 436.751 413.791 434.695 414.213 432.293C414.652 429.812 416.028 427.288 418.091 425.173C419.593 423.639 421.347 422.436 423.166 421.714C426.285 420.471 429.198 420.75 430.947 422.454C432.307 423.789 432.833 425.845 432.41 428.246C431.971 430.727 430.595 433.252 428.532 435.367C427.03 436.901 425.276 438.104 423.457 438.826Z" fill="#B59732"/>
<path d="M403.654 427.878C401.305 427.254 399.725 425.561 399.725 425.561C399.725 425.561 401.939 424.883 404.288 425.507C406.638 426.131 408.217 427.824 408.217 427.824C408.217 427.824 406.004 428.502 403.654 427.878ZM410.512 424.551C410.512 424.551 408.645 423.181 407.743 420.921C406.841 418.661 407.257 416.384 407.257 416.384C407.257 416.384 409.124 417.753 410.026 420.014C410.928 422.274 410.512 424.551 410.512 424.551ZM417.782 422.239C416.509 424.308 414.427 425.334 414.427 425.334C414.427 425.334 414.411 423.017 415.685 420.947C416.958 418.877 419.04 417.851 419.04 417.851C419.04 417.851 419.056 420.169 417.782 422.239Z" fill="#FE5226"/>
</g>
<g clip-path="url(#clip23_132_333480)">
<path d="M308.18 788.371C307.65 784.787 304.842 782.139 300.921 780.954C301.843 776.744 301.011 772.855 298.298 770.629C295.585 768.403 291.614 768.345 287.662 770.062C285.731 766.438 282.584 764.201 278.965 764.379C272.829 764.686 267.669 771.821 267.431 780.331C267.193 788.842 271.978 795.493 278.11 795.196C279.004 801.272 286.462 804.675 294.761 802.789C303.059 800.902 309.065 794.443 308.171 788.367L308.18 788.371Z" fill="#FE5226"/>
<path d="M268.878 795.83C267.368 794.586 266.056 792.917 265.094 791C263.769 788.358 263.218 785.53 263.553 783.036C263.88 780.617 264.996 778.817 266.702 777.959C268.889 776.862 271.739 777.479 274.343 779.616C275.854 780.86 277.166 782.528 278.127 784.446C279.453 787.088 280.004 789.915 279.669 792.41C279.342 794.829 278.226 796.629 276.52 797.486C274.333 798.584 271.482 797.966 268.878 795.83Z" fill="#B59732"/>
<path d="M279.281 804.38C276.687 802.248 275.526 799.562 276.174 797.208C276.687 795.372 278.233 793.92 280.541 793.131C282.925 792.318 285.801 792.304 288.649 793.09C290.717 793.665 292.617 794.62 294.128 795.865C296.722 797.997 297.883 800.683 297.235 803.037C296.722 804.872 295.175 806.325 292.868 807.114C290.483 807.927 287.608 807.94 284.76 807.155C282.691 806.58 280.791 805.624 279.281 804.38Z" fill="#B59732"/>
<path d="M279.311 781.751C278.723 779.392 279.443 777.192 279.443 777.192C279.443 777.192 281.105 778.803 281.693 781.162C282.28 783.521 281.56 785.721 281.56 785.721C281.56 785.721 279.898 784.11 279.311 781.751ZM285.535 786.151C285.535 786.151 285.833 783.855 287.377 781.974C288.921 780.093 291.116 779.359 291.116 779.359C291.116 779.359 290.818 781.655 289.273 783.536C287.729 785.417 285.535 786.151 285.535 786.151ZM291.069 791.402C288.641 791.286 286.738 789.958 286.738 789.958C286.738 789.958 288.76 788.826 291.187 788.942C293.615 789.058 295.518 790.386 295.518 790.386C295.518 790.386 293.496 791.519 291.069 791.402Z" fill="#073786"/>
</g>
<defs>
<clipPath id="clip0_132_333480">
<rect width="15.2054" height="18.3036" fill="white" transform="translate(2336.61 172.322)"/>
</clipPath>
<clipPath id="clip1_132_333480">
<rect width="15.2054" height="18.3036" fill="white" transform="translate(2201.85 538.134) rotate(-118.283)"/>
</clipPath>
<clipPath id="clip2_132_333480">
<rect width="52.5714" height="53.5536" fill="white" transform="translate(2360.54 660.714) rotate(59.7292)"/>
</clipPath>
<clipPath id="clip3_132_333480">
<rect width="19.8929" height="13.7679" fill="white" transform="translate(2220.54 684.976) rotate(-54.6516)"/>
</clipPath>
<clipPath id="clip4_132_333480">
<rect width="19.8929" height="13.7679" fill="white" transform="translate(2170.56 347.331) rotate(141.157)"/>
</clipPath>
<clipPath id="clip5_132_333480">
<rect width="19.8929" height="13.7679" fill="white" transform="translate(2392.88 1040.19) rotate(141.157)"/>
</clipPath>
<clipPath id="clip6_132_333480">
<rect width="30.4911" height="30.7768" fill="white" transform="translate(2154.57 121.428) rotate(35.7073)"/>
</clipPath>
<clipPath id="clip7_132_333480">
<rect width="30.3571" height="27.3955" fill="white" transform="translate(2215.18 246.428)"/>
</clipPath>
<clipPath id="clip8_132_333480">
<rect width="47.816" height="42.0026" fill="white" transform="translate(2313 534.183) rotate(-42.3043)"/>
</clipPath>
<clipPath id="clip9_132_333480">
<rect width="33.0357" height="33.0357" fill="white" transform="translate(2148.21 765.179)"/>
</clipPath>
<clipPath id="clip10_132_333480">
<rect width="52.5714" height="53.5536" fill="white" transform="translate(355.515 572.596) rotate(171.411)"/>
</clipPath>
<clipPath id="clip11_132_333480">
<rect width="52.5714" height="53.5536" fill="white" transform="translate(138.393 1074.98) rotate(-12.7383)"/>
</clipPath>
<clipPath id="clip12_132_333480">
<rect width="19.6429" height="23.2143" fill="white" transform="translate(390.179 276.786)"/>
</clipPath>
<clipPath id="clip13_132_333480">
<rect width="19.6429" height="23.2143" fill="white" transform="translate(329.464 1040.18)"/>
</clipPath>
<clipPath id="clip14_132_333480">
<rect width="17.4067" height="20.9535" fill="white" transform="translate(395.974 44.5688) rotate(-178.661)"/>
</clipPath>
<clipPath id="clip15_132_333480">
<rect width="19.8929" height="13.7679" fill="white" transform="translate(453.571 591.226) rotate(-54.6516)"/>
</clipPath>
<clipPath id="clip16_132_333480">
<rect width="19.8929" height="13.7679" fill="white" transform="translate(406.25 972.476) rotate(-54.6516)"/>
</clipPath>
<clipPath id="clip17_132_333480">
<rect width="19.8929" height="13.7679" fill="white" transform="translate(256.396 183.581) rotate(-174.151)"/>
</clipPath>
<clipPath id="clip18_132_333480">
<rect width="32.1429" height="32.1429" fill="white" transform="translate(225 433.928)"/>
</clipPath>
<clipPath id="clip19_132_333480">
<rect width="32.1429" height="32.1429" fill="white" transform="translate(114.286 892.857)"/>
</clipPath>
<clipPath id="clip20_132_333480">
<rect width="30.3571" height="27.3955" fill="white" transform="translate(310.714 92.8572)"/>
</clipPath>
<clipPath id="clip21_132_333480">
<rect width="30.3571" height="27.3955" fill="white" transform="translate(282.143 963.709) rotate(-14.2249)"/>
</clipPath>
<clipPath id="clip22_132_333480">
<rect width="44.8111" height="39.3631" fill="white" transform="translate(381.277 422.901) rotate(-38.6468)"/>
</clipPath>
<clipPath id="clip23_132_333480">
<rect width="44.8111" height="39.3631" fill="white" transform="translate(272.869 759.751) rotate(22.4933)"/>
</clipPath>
</defs>
</svg>
