<svg width="265" height="44" fill="none" xmlns="http://www.w3.org/2000/svg"><rect x=".008" width="264" height="44" rx="22" fill="#F4F2EE"/><path d="M92.534 30.857c-.346.08-.653.034-.92-.14-.253-.16-.413-.406-.48-.74a1.213 1.213 0 0 1 .12-.82c.147-.253.387-.413.72-.48a74.401 74.401 0 0 1 1.92-.38v-11.76c0-1.173.267-1.986.8-2.44.534-.453 1.407-.68 2.62-.68h2.24c1.227 0 2.101.227 2.621.68.533.454.8 1.267.8 2.44v2.36c0 1.187-.267 2.007-.8 2.46-.52.44-1.394.66-2.62.66h-.36c.16.814.4 1.574.72 2.28.24-.173.506-.36.8-.56.293-.213.573-.413.84-.6.266-.2.473-.366.62-.5.226-.2.486-.293.78-.28a.97.97 0 0 1 .76.34c.186.227.28.487.28.78 0 .294-.12.534-.36.72-.187.16-.44.354-.76.58-.32.227-.654.454-1 .68l-.88.6c.386.494.826.947 1.32 1.36.506.414 1.046.794 1.62 1.14.266.16.433.394.5.7.066.307.026.594-.12.86a1.178 1.178 0 0 1-.84.56c-.36.067-.694 0-1-.2-1.494-.96-2.687-2.106-3.58-3.44-.88-1.333-1.454-3.006-1.72-5.02h-1.04v5.78c.306-.066.6-.133.88-.2.293-.066.553-.126.78-.18.306-.08.58-.053.82.08.24.134.386.34.44.62.066.32.033.6-.1.84-.134.24-.36.407-.68.5-.32.094-.734.2-1.24.32-.507.134-1.04.267-1.6.4-.56.134-1.1.26-1.62.38-.507.12-.934.22-1.28.3Zm-4.88.5c-.293 0-.546-.1-.76-.3-.2-.186-.3-.446-.3-.78v-14.2c0-.76.08-1.346.24-1.76.174-.413.494-.7.96-.86.467-.16 1.154-.24 2.06-.24 1.08 0 1.874.14 2.38.42.52.267.8.66.84 1.18.04.507-.113 1.114-.46 1.82-.173.334-.34.66-.5.98l-.48.92c-.213.4-.32.687-.32.86.014.16.154.38.42.66.44.44.794.96 1.06 1.56.28.6.42 1.234.42 1.9 0 .84-.14 1.52-.42 2.04-.28.52-.66.907-1.14 1.16a3.61 3.61 0 0 1-1.58.42c-.333.014-.613-.066-.84-.24a1.23 1.23 0 0 1-.4-.74c-.04-.306.014-.573.16-.8a.926.926 0 0 1 .62-.42c.52-.106.867-.293 1.04-.56.187-.266.28-.693.28-1.28 0-.44-.12-.893-.36-1.36-.226-.48-.506-.9-.84-1.26a3.204 3.204 0 0 1-.48-.66c-.08-.2-.1-.42-.06-.66.054-.24.167-.546.34-.92.12-.266.26-.586.42-.96.16-.386.3-.713.42-.98.187-.386.227-.653.12-.8-.093-.16-.36-.24-.8-.24-.413 0-.68.054-.8.16-.106.107-.16.327-.16.66v14.2c0 .334-.106.594-.32.78-.2.2-.453.3-.76.3Zm8.48-11.3h3.1c.56 0 .941-.086 1.141-.26.213-.186.32-.54.32-1.06v-.16h-4.56v1.48Zm0-3.26h4.561v-.12c0-.52-.107-.866-.32-1.04-.2-.186-.58-.28-1.14-.28h-1.64c-.56 0-.947.094-1.16.28-.2.174-.3.52-.3 1.04v.12Zm24.481 14.42c-.414 0-.734-.113-.96-.34a1.437 1.437 0 0 1-.38-.84c-.027-.346.066-.633.28-.86.226-.24.506-.373.84-.4.426-.04.706-.12.84-.24.133-.133.2-.386.2-.76v-3.2h-5.64c-.334 0-.594-.1-.78-.3a1.114 1.114 0 0 1-.28-.76c0-.293.093-.54.28-.74.186-.213.446-.32.78-.32h5.64v-1.58h-6.2c-.454 0-.767-.186-.94-.56v4.46c0 .707-.087 1.26-.26 1.66-.16.387-.454.66-.88.82-.427.147-1.04.22-1.84.22s-1.42-.073-1.86-.22c-.427-.16-.727-.433-.9-.82-.16-.4-.24-.953-.24-1.66v-7.78c0-.706.08-1.253.24-1.64.173-.4.473-.68.9-.84.44-.16 1.06-.24 1.86-.24s1.413.08 1.84.24c.426.16.72.44.88.84.173.387.26.934.26 1.64v2.36c.173-.373.486-.56.94-.56h3.72v-1.78h-2.9c-.307 0-.554-.1-.74-.3-.187-.2-.28-.44-.28-.72 0-.293.093-.533.28-.72.186-.2.433-.3.74-.3h2.9v-1.28c0-.373.113-.666.34-.88.24-.226.526-.34.86-.34.346 0 .633.114.86.34.24.214.36.507.36.88v1.28h3.22c.32 0 .566.1.74.3.186.187.28.427.28.72 0 .28-.094.52-.28.72-.174.2-.42.3-.74.3h-3.22v1.78h4.1c.32 0 .573.1.76.3.186.2.28.447.28.74 0 .294-.094.54-.28.74-.187.2-.44.3-.76.3h-1.74v1.58h1.56c.333 0 .593.107.78.32.186.2.28.447.28.74 0 .294-.094.547-.28.76-.187.2-.447.3-.78.3h-1.56v3.7c0 1.027-.254 1.774-.76 2.24-.507.467-1.294.7-2.36.7Zm-2.9-3.14a7.46 7.46 0 0 0-.46-.46 28.273 28.273 0 0 0-1.08-1.02 1.03 1.03 0 0 1-.36-.76c0-.32.106-.586.32-.8.226-.24.506-.366.84-.38.333-.026.626.074.88.3.106.094.253.234.44.42l.6.52c.2.174.346.314.44.42.253.254.393.547.42.88.026.32-.087.607-.34.86a1.238 1.238 0 0 1-.86.36c-.334.014-.614-.1-.84-.34Zm-6.4-2.7c.333 0 .546-.053.64-.16.106-.106.16-.346.16-.72v-2.6h-1.62v2.6c0 .374.053.614.16.72.106.107.326.16.66.16Zm-.82-5.58h1.62v-2.52c0-.373-.054-.613-.16-.72-.094-.12-.307-.18-.64-.18-.334 0-.554.06-.66.18-.107.107-.16.347-.16.72v2.52Zm23.82 11.5c-.32 0-.594-.106-.82-.32-.227-.2-.34-.473-.34-.82v-4.82l-.9.34c-.28.107-.527.194-.74.26-.414.147-.774.147-1.08 0a1.159 1.159 0 0 1-.6-.72c-.107-.346-.087-.653.06-.92.146-.28.413-.48.8-.6.666-.213 1.486-.486 2.46-.82v-4.04h-1.18c-.054.334-.114.654-.18.96-.067.307-.134.574-.2.8-.094.334-.26.574-.5.72-.24.147-.527.187-.86.12-.28-.053-.507-.2-.68-.44-.16-.24-.194-.52-.1-.84.12-.426.233-.92.34-1.48.12-.573.226-1.153.32-1.74.093-.586.16-1.106.2-1.56.026-.32.153-.56.38-.72a1.147 1.147 0 0 1 1.52.14c.186.187.266.454.24.8a9.417 9.417 0 0 1-.06.54c-.027.187-.054.387-.08.6h.84v-3.06c0-.346.113-.626.34-.84.226-.213.5-.32.82-.32.32 0 .586.107.8.32.226.214.34.494.34.84v3.06h.94c.293 0 .54.1.74.3.2.2.3.447.3.74 0 .294-.1.547-.3.76-.2.2-.447.3-.74.3h-.94v3.22c.186-.066.353-.12.5-.16.16-.053.306-.106.44-.16a.942.942 0 0 1 .76 0c.253.094.426.294.52.6a.674.674 0 0 1 .08.32c.2-.16.42-.24.66-.24h5.02v-1.6h-5.62c-.294 0-.54-.1-.74-.3-.2-.2-.3-.446-.3-.74 0-.28.1-.52.3-.72.2-.213.446-.32.74-.32h3.32v-1.66h-2.52c-.294 0-.54-.1-.74-.3-.2-.2-.3-.446-.3-.74 0-.28.1-.52.3-.72.2-.2.446-.3.74-.3h2.52v-1.3c0-.36.113-.646.34-.86.24-.226.526-.34.86-.34.333 0 .613.114.84.34.24.214.36.5.36.86v1.3h2.82c.293 0 .54.1.74.3.2.2.3.44.3.72 0 .294-.1.54-.3.74-.2.2-.447.3-.74.3h-2.82v1.66h3.86c.293 0 .54.107.74.32.2.2.3.44.3.72 0 .294-.1.54-.3.74-.2.2-.447.3-.74.3h-1.64v1.6h1.52c.293 0 .54.107.74.32.2.2.3.447.3.74 0 .294-.1.547-.3.76-.2.2-.447.3-.74.3h-1.52v3.64c0 .76-.107 1.354-.32 1.78-.2.44-.54.754-1.02.94-.48.187-1.134.28-1.96.28-.334 0-.62-.1-.86-.3-.24-.2-.367-.486-.38-.86-.014-.333.08-.606.28-.82.213-.226.486-.353.82-.38.48-.053.786-.133.92-.24.133-.106.2-.32.2-.64v-3.4h-4.28c.2.067.373.174.52.32.106.107.253.267.44.48.2.2.4.407.6.62.2.214.353.387.46.52.226.28.326.587.3.92a1.18 1.18 0 0 1-.44.82 1.246 1.246 0 0 1-.88.3 1.083 1.083 0 0 1-.82-.4 6.826 6.826 0 0 0-.44-.54c-.187-.226-.38-.453-.58-.68a7.801 7.801 0 0 0-.44-.5 1.053 1.053 0 0 1-.3-.8c.026-.32.16-.58.4-.78.12-.12.28-.213.48-.28h-.04c-.28 0-.52-.093-.72-.28a1.042 1.042 0 0 1-.34-.68c-.04.027-.087.06-.14.1a2.65 2.65 0 0 1-.18.08c-.2.094-.44.2-.72.32-.267.107-.554.22-.86.34v5.74c0 .347-.114.62-.34.82-.214.214-.48.32-.8.32Zm19.34-5.4c-.294.014-.534-.066-.72-.24a1.064 1.064 0 0 1-.3-.68.827.827 0 0 1 .24-.66 1.02 1.02 0 0 1 .7-.3 342.92 342.92 0 0 0 6.32-.16v-.96h-2.2c-.854 0-1.534-.093-2.04-.28-.494-.2-.847-.526-1.06-.98-.214-.466-.32-1.106-.32-1.92 0-.813.106-1.446.32-1.9.213-.453.566-.773 1.06-.96.506-.2 1.186-.3 2.04-.3h2.2v-.74h-6.92a.846.846 0 0 1-.62-.26.844.844 0 0 1-.26-.62c0-.24.086-.446.26-.62a.846.846 0 0 1 .62-.26h6.92v-.66c0-.346.106-.613.32-.8.226-.2.486-.3.78-.3.306 0 .566.1.78.3.226.187.34.454.34.8v.66h6.96c.24 0 .446.087.62.26.173.174.26.38.26.62s-.087.447-.26.62a.848.848 0 0 1-.62.26h-6.96v.74h2.32c.853 0 1.526.1 2.02.3.506.187.866.507 1.08.96.213.454.32 1.087.32 1.9 0 .747-.087 1.347-.26 1.8a1.89 1.89 0 0 1-.9 1c.226.174.48.38.76.62.28.227.553.46.82.7.266.227.486.427.66.6.226.214.333.447.32.7-.014.254-.134.487-.36.7a.995.995 0 0 1-.7.28 1.004 1.004 0 0 1-.7-.34 2.828 2.828 0 0 0-.26-.3 6.855 6.855 0 0 0-.3-.28c-.854.067-1.84.134-2.96.2-1.107.067-2.274.134-3.5.2l-3.6.16c-1.174.054-2.247.1-3.22.14Zm7.72 5.32c-1.134 0-2.02-.093-2.66-.28-.64-.186-1.094-.506-1.36-.96-.254-.44-.38-1.06-.38-1.86v-.94c0-.32.106-.58.32-.78.213-.2.466-.3.76-.3.306 0 .56.1.76.3.213.2.32.46.32.78v.78c0 .374.053.654.16.84.12.187.346.314.68.38.333.067.813.1 1.44.1.613 0 1.073-.026 1.38-.08.32-.066.56-.18.72-.34.16-.16.3-.373.42-.64a.962.962 0 0 1 .58-.56c.28-.106.56-.1.84.02.28.12.48.3.6.54.12.24.126.507.02.8-.187.56-.447 1-.78 1.32-.32.32-.787.547-1.4.68-.6.134-1.407.2-2.42.2Zm-8.88-.48a1.2 1.2 0 0 1-.4-.7.886.886 0 0 1 .2-.72c.16-.186.346-.42.56-.7.213-.293.413-.586.6-.88.2-.293.36-.54.48-.74.16-.266.373-.433.64-.5.28-.066.553-.026.82.12.24.134.4.334.48.6.093.267.06.54-.1.82-.227.374-.5.8-.82 1.28-.307.467-.6.867-.88 1.2-.2.24-.454.38-.76.42a1.023 1.023 0 0 1-.82-.2Zm17.34-.32a1.066 1.066 0 0 1-.8.24.95.95 0 0 1-.7-.38c-.147-.2-.34-.453-.58-.76-.24-.293-.494-.586-.76-.88a10.03 10.03 0 0 0-.7-.74.888.888 0 0 1-.24-.68.968.968 0 0 1 .34-.66.985.985 0 0 1 .72-.26c.28.014.526.12.74.32.213.2.453.447.72.74.28.294.546.587.8.88.266.294.473.54.62.74a.921.921 0 0 1 .24.72c-.027.28-.16.52-.4.72Zm-6.96-2.06c-.2.187-.44.28-.72.28a.952.952 0 0 1-.72-.32c-.16-.173-.36-.373-.6-.6a18.07 18.07 0 0 0-.56-.54.744.744 0 0 1-.24-.62c.026-.266.126-.486.3-.66.2-.173.42-.266.66-.28.24-.013.466.074.68.26.186.147.386.32.6.52.226.187.426.367.6.54.226.214.34.454.34.72 0 .254-.114.487-.34.7Zm-.76-7.04h1.84c.586 0 .993-.046 1.22-.14.226-.106.36-.36.4-.76h-3.46v.9Zm-3.94 0h1.72v-.9h-3.36c.053.4.186.654.4.76.226.094.64.14 1.24.14Zm3.94-2.36h3.46c-.054-.386-.194-.626-.42-.72-.214-.093-.614-.14-1.2-.14h-1.84v.86Zm-5.56 0h3.34v-.86h-1.72c-.587 0-.994.047-1.22.14-.214.094-.347.334-.4.72Zm5.56 4.84c.56-.026 1.1-.046 1.62-.06a69.795 69.795 0 0 1 1.5-.06c-.214-.24-.28-.506-.2-.8-.094.014-.194.02-.3.02H162.115v.9Z" fill="#073786"/></svg>