<svg width="19" height="74" viewBox="0 0 19 74" fill="none" xmlns="http://www.w3.org/2000/svg">
<rect x="0.0969238" width="18.7062" height="73.25" rx="9.35312" fill="#F4F2EE"/>
<path d="M8.09184 20.7458C7.93361 20.7823 7.79364 20.761 7.67192 20.6819C7.55629 20.6088 7.48326 20.4962 7.45283 20.3441C7.42849 20.2041 7.44674 20.0794 7.5076 19.9698C7.57455 19.8542 7.68409 19.7811 7.83624 19.7507C7.95796 19.7264 8.09184 19.699 8.2379 19.6686C8.39005 19.6381 8.54828 19.6077 8.7126 19.5773V14.2096C8.7126 13.674 8.83432 13.3028 9.07775 13.0958C9.32119 12.8889 9.71981 12.7855 10.2736 12.7855H11.296C11.8559 12.7855 12.2546 12.8889 12.4919 13.0958C12.7353 13.3028 12.8571 13.674 12.8571 14.2096V15.2867C12.8571 15.8284 12.7353 16.2027 12.4919 16.4096C12.2546 16.6104 11.8559 16.7108 11.296 16.7108H11.1317C11.2048 17.0821 11.3143 17.429 11.4604 17.7515C11.5699 17.6724 11.6916 17.5872 11.8255 17.4959C11.9594 17.3985 12.0872 17.3073 12.2089 17.222C12.3306 17.1308 12.425 17.0547 12.4919 16.9938C12.5954 16.9025 12.714 16.8599 12.8479 16.866C12.9879 16.866 13.1035 16.9178 13.1948 17.0212C13.28 17.1247 13.3226 17.2433 13.3226 17.3772C13.3226 17.5111 13.2679 17.6207 13.1583 17.7059C13.0731 17.7789 12.9575 17.8671 12.8114 17.9706C12.6654 18.0741 12.5132 18.1775 12.355 18.281C12.2028 18.3844 12.0689 18.4757 11.9533 18.5549C12.1298 18.78 12.3306 18.9869 12.5558 19.1756C12.7871 19.3643 13.0336 19.5377 13.2952 19.6959C13.417 19.769 13.493 19.8755 13.5235 20.0155C13.5539 20.1554 13.5356 20.2863 13.4687 20.408C13.3835 20.548 13.2557 20.6332 13.0853 20.6636C12.921 20.694 12.7688 20.6636 12.6288 20.5723C11.9472 20.1341 11.4025 19.6107 10.9948 19.0022C10.5931 18.3936 10.3314 17.6298 10.2097 16.7108H9.73502V19.3491C9.875 19.3186 10.0089 19.2882 10.1367 19.2578C10.2706 19.2273 10.3893 19.2 10.4927 19.1756C10.6327 19.1391 10.7574 19.1513 10.867 19.2121C10.9765 19.273 11.0435 19.3673 11.0678 19.4951C11.0983 19.6412 11.083 19.769 11.0222 19.8785C10.9613 19.9881 10.8579 20.0641 10.7118 20.1067C10.5657 20.1493 10.3771 20.198 10.1458 20.2528C9.91456 20.3137 9.67112 20.3745 9.41552 20.4354C9.15991 20.4962 8.91343 20.5541 8.67609 20.6088C8.44482 20.6636 8.25008 20.7092 8.09184 20.7458ZM5.86442 20.974C5.73053 20.974 5.6149 20.9283 5.51753 20.837C5.42624 20.7518 5.3806 20.6332 5.3806 20.481V13.9996C5.3806 13.6527 5.41711 13.3849 5.49014 13.1963C5.56926 13.0076 5.71532 12.8768 5.92832 12.8037C6.14133 12.7307 6.45475 12.6942 6.86859 12.6942C7.36154 12.6942 7.72365 12.7581 7.95491 12.8859C8.19226 13.0076 8.32006 13.1871 8.33832 13.4245C8.35658 13.6557 8.28659 13.9326 8.12836 14.2552C8.04924 14.4073 7.97317 14.5564 7.90014 14.7025C7.82711 14.8425 7.75408 14.9825 7.68105 15.1224C7.58368 15.305 7.53499 15.4359 7.53499 15.515C7.54107 15.588 7.60498 15.6884 7.72669 15.8162C7.92753 16.017 8.0888 16.2544 8.21052 16.5283C8.33832 16.8021 8.40222 17.0912 8.40222 17.3955C8.40222 17.7789 8.33832 18.0893 8.21052 18.3266C8.08272 18.564 7.90927 18.7405 7.69018 18.8561C7.47717 18.9717 7.23678 19.0356 6.969 19.0478C6.81686 19.0539 6.68906 19.0174 6.5856 18.9383C6.48822 18.8531 6.42736 18.7405 6.40302 18.6005C6.38476 18.4605 6.40911 18.3388 6.47605 18.2353C6.543 18.1319 6.63733 18.068 6.75904 18.0436C6.99639 17.995 7.15462 17.9097 7.23374 17.788C7.31894 17.6663 7.36154 17.4716 7.36154 17.2038C7.36154 17.003 7.30677 16.796 7.19722 16.583C7.09376 16.3639 6.96596 16.1722 6.81382 16.0079C6.71036 15.8923 6.63733 15.7919 6.59472 15.7067C6.55821 15.6154 6.54908 15.515 6.56734 15.4054C6.59168 15.2959 6.64341 15.1559 6.72253 14.9855C6.7773 14.8638 6.8412 14.7177 6.91423 14.5473C6.98726 14.3708 7.05116 14.2217 7.10594 14.1C7.19114 13.9235 7.2094 13.8018 7.16071 13.7349C7.11811 13.6618 6.99639 13.6253 6.79556 13.6253C6.6069 13.6253 6.48518 13.6497 6.43041 13.6983C6.38172 13.747 6.35738 13.8474 6.35738 13.9996V20.481C6.35738 20.6332 6.30869 20.7518 6.21132 20.837C6.12003 20.9283 6.0044 20.974 5.86442 20.974ZM9.73502 15.8162H11.15C11.4056 15.8162 11.579 15.7767 11.6703 15.6975C11.7677 15.6123 11.8164 15.4511 11.8164 15.2137V15.1407H9.73502V15.8162ZM9.73502 14.3282H11.8164V14.2735C11.8164 14.0361 11.7677 13.8779 11.6703 13.7988C11.579 13.7136 11.4056 13.671 11.15 13.671H10.4014C10.1458 13.671 9.96933 13.7136 9.87196 13.7988C9.78067 13.8779 9.73502 14.0361 9.73502 14.2735V14.3282ZM10.867 34.9101C10.6783 34.9101 10.5323 34.8583 10.4288 34.7549C10.3314 34.6514 10.2736 34.5236 10.2554 34.3715C10.2432 34.2132 10.2858 34.0824 10.3832 33.9789C10.4866 33.8694 10.6144 33.8085 10.7666 33.7964C10.9613 33.7781 11.0891 33.7416 11.15 33.6868C11.2108 33.626 11.2413 33.5103 11.2413 33.3399V31.8793H8.66696C8.51481 31.8793 8.39614 31.8337 8.31093 31.7424C8.22573 31.645 8.18313 31.5294 8.18313 31.3955C8.18313 31.2616 8.22573 31.149 8.31093 31.0577C8.39614 30.9604 8.51481 30.9117 8.66696 30.9117H11.2413V30.1905H8.41135C8.20443 30.1905 8.06142 30.1053 7.9823 29.9349V31.9706C7.9823 32.2932 7.94274 32.5457 7.86362 32.7283C7.79059 32.9048 7.65671 33.0295 7.46196 33.1026C7.26721 33.1695 6.98726 33.203 6.62211 33.203C6.25696 33.203 5.97397 33.1695 5.77313 33.1026C5.57839 33.0295 5.44146 32.9048 5.36234 32.7283C5.28931 32.5457 5.25279 32.2932 5.25279 31.9706V28.4195C5.25279 28.097 5.28931 27.8474 5.36234 27.671C5.44146 27.4884 5.57839 27.3606 5.77313 27.2875C5.97397 27.2145 6.25696 27.178 6.62211 27.178C6.98726 27.178 7.26721 27.2145 7.46196 27.2875C7.65671 27.3606 7.79059 27.4884 7.86362 27.671C7.94274 27.8474 7.9823 28.097 7.9823 28.4195V29.4967C8.06142 29.3263 8.20443 29.2411 8.41135 29.2411H10.1093V28.4286H8.78563C8.64566 28.4286 8.53307 28.383 8.44787 28.2917C8.36266 28.2004 8.32006 28.0909 8.32006 27.9631C8.32006 27.8292 8.36266 27.7196 8.44787 27.6344C8.53307 27.5432 8.64566 27.4975 8.78563 27.4975H10.1093V26.9133C10.1093 26.7429 10.161 26.609 10.2645 26.5116C10.374 26.4081 10.5049 26.3564 10.657 26.3564C10.8153 26.3564 10.9461 26.4081 11.0496 26.5116C11.1591 26.609 11.2139 26.7429 11.2139 26.9133V27.4975H12.6836C12.8297 27.4975 12.9423 27.5432 13.0214 27.6344C13.1066 27.7196 13.1492 27.8292 13.1492 27.9631C13.1492 28.0909 13.1066 28.2004 13.0214 28.2917C12.9423 28.383 12.8297 28.4286 12.6836 28.4286H11.2139V29.2411H13.0853C13.2313 29.2411 13.347 29.2867 13.4322 29.378C13.5174 29.4693 13.56 29.5819 13.56 29.7158C13.56 29.8497 13.5174 29.9623 13.4322 30.0536C13.347 30.1449 13.2313 30.1905 13.0853 30.1905H12.2911V30.9117H13.0031C13.1553 30.9117 13.2739 30.9604 13.3591 31.0577C13.4444 31.149 13.487 31.2616 13.487 31.3955C13.487 31.5294 13.4444 31.645 13.3591 31.7424C13.2739 31.8337 13.1553 31.8793 13.0031 31.8793H12.2911V33.5681C12.2911 34.0368 12.1755 34.3776 11.9442 34.5906C11.7129 34.8036 11.3539 34.9101 10.867 34.9101ZM9.54332 33.4769C9.49463 33.4221 9.42465 33.3521 9.33336 33.2669C9.24207 33.1756 9.15078 33.0874 9.05949 33.0022C8.96821 32.917 8.89518 32.85 8.8404 32.8013C8.73694 32.71 8.68217 32.5944 8.67609 32.4544C8.67609 32.3084 8.72477 32.1867 8.82215 32.0893C8.92561 31.9797 9.05341 31.9219 9.20556 31.9158C9.3577 31.9037 9.49159 31.9493 9.60722 32.0528C9.65591 32.0954 9.72285 32.1593 9.80805 32.2445C9.89934 32.3236 9.99063 32.4027 10.0819 32.4818C10.1732 32.5609 10.2402 32.6248 10.2828 32.6735C10.3984 32.7892 10.4623 32.923 10.4745 33.0752C10.4866 33.2213 10.4349 33.3521 10.3193 33.4677C10.2158 33.5712 10.085 33.626 9.92673 33.632C9.77458 33.6381 9.64678 33.5864 9.54332 33.4769ZM6.62211 32.2445C6.77426 32.2445 6.87163 32.2201 6.91423 32.1714C6.96292 32.1228 6.98726 32.0132 6.98726 31.8428V30.6561H6.24783V31.8428C6.24783 32.0132 6.27217 32.1228 6.32086 32.1714C6.36955 32.2201 6.46996 32.2445 6.62211 32.2445ZM6.24783 29.6975H6.98726V28.5473C6.98726 28.3769 6.96292 28.2674 6.91423 28.2187C6.87163 28.1639 6.77426 28.1365 6.62211 28.1365C6.46996 28.1365 6.36955 28.1639 6.32086 28.2187C6.27217 28.2674 6.24783 28.3769 6.24783 28.5473V29.6975ZM7.07855 47.9466C6.93249 47.9466 6.80773 47.8979 6.70427 47.8005C6.60081 47.7092 6.54908 47.5845 6.54908 47.4262V45.2262C6.40302 45.281 6.26609 45.3327 6.13829 45.3814C6.01048 45.4301 5.89789 45.4696 5.80052 45.5001C5.61186 45.567 5.44754 45.567 5.30757 45.5001C5.17368 45.4331 5.08239 45.3236 5.0337 45.1714C4.98502 45.0132 4.99415 44.8732 5.06109 44.7515C5.12803 44.6237 5.24975 44.5324 5.42624 44.4777C5.73053 44.3803 6.10481 44.2555 6.54908 44.1034V42.2594H6.01048C5.98614 42.4115 5.95875 42.5576 5.92832 42.6975C5.89789 42.8375 5.86747 42.9592 5.83704 43.0627C5.79444 43.2148 5.71836 43.3244 5.60882 43.3913C5.49927 43.4583 5.36843 43.4765 5.21628 43.4461C5.08848 43.4218 4.98502 43.3548 4.9059 43.2453C4.83287 43.1357 4.81766 43.0079 4.86026 42.8619C4.91503 42.6671 4.96676 42.4419 5.01545 42.1863C5.07022 41.9246 5.11891 41.6599 5.16151 41.3921C5.20411 41.1243 5.23454 40.887 5.25279 40.6801C5.26497 40.534 5.32278 40.4245 5.42624 40.3514C5.53579 40.2723 5.6575 40.2389 5.79139 40.251C5.93137 40.2693 6.04091 40.3241 6.12003 40.4153C6.20523 40.5006 6.24175 40.6223 6.22957 40.7805C6.22349 40.8596 6.21436 40.9418 6.20219 41.027C6.19002 41.1122 6.17784 41.2035 6.16567 41.3008H6.54908V39.9041C6.54908 39.7459 6.60081 39.6181 6.70427 39.5207C6.80773 39.4234 6.93249 39.3747 7.07855 39.3747C7.22461 39.3747 7.34633 39.4234 7.4437 39.5207C7.54716 39.6181 7.59889 39.7459 7.59889 39.9041V41.3008H8.02794C8.16183 41.3008 8.27442 41.3465 8.36571 41.4378C8.457 41.5291 8.50264 41.6416 8.50264 41.7755C8.50264 41.9094 8.457 42.0251 8.36571 42.1224C8.27442 42.2137 8.16183 42.2594 8.02794 42.2594H7.59889V43.7291C7.68409 43.6987 7.76017 43.6743 7.82711 43.6561C7.90014 43.6317 7.96708 43.6074 8.02794 43.583C8.14966 43.5343 8.26529 43.5343 8.37484 43.583C8.49047 43.6256 8.56958 43.7169 8.61218 43.8569C8.62436 43.8812 8.63349 43.9056 8.63957 43.9299C8.64566 43.9543 8.6487 43.9786 8.6487 44.003C8.73999 43.9299 8.8404 43.8934 8.94995 43.8934H11.2413V43.1631H8.67609C8.5422 43.1631 8.42961 43.1175 8.33832 43.0262C8.24703 42.9349 8.20139 42.8223 8.20139 42.6884C8.20139 42.5606 8.24703 42.4511 8.33832 42.3598C8.42961 42.2624 8.5422 42.2137 8.67609 42.2137H10.1915V41.456H9.04124C8.90735 41.456 8.79476 41.4104 8.70347 41.3191C8.61218 41.2278 8.56654 41.1152 8.56654 40.9813C8.56654 40.8535 8.61218 40.744 8.70347 40.6527C8.79476 40.5614 8.90735 40.5158 9.04124 40.5158H10.1915V39.9224C10.1915 39.7581 10.2432 39.6272 10.3467 39.5299C10.4562 39.4264 10.587 39.3747 10.7392 39.3747C10.8913 39.3747 11.0191 39.4264 11.1226 39.5299C11.2321 39.6272 11.2869 39.7581 11.2869 39.9224V40.5158H12.5741C12.708 40.5158 12.8206 40.5614 12.9118 40.6527C13.0031 40.744 13.0488 40.8535 13.0488 40.9813C13.0488 41.1152 13.0031 41.2278 12.9118 41.3191C12.8206 41.4104 12.708 41.456 12.5741 41.456H11.2869V42.2137H13.0488C13.1827 42.2137 13.2952 42.2624 13.3865 42.3598C13.4778 42.4511 13.5235 42.5606 13.5235 42.6884C13.5235 42.8223 13.4778 42.9349 13.3865 43.0262C13.2952 43.1175 13.1827 43.1631 13.0488 43.1631H12.3002V43.8934H12.994C13.1279 43.8934 13.2405 43.9421 13.3318 44.0395C13.4231 44.1308 13.4687 44.2433 13.4687 44.3772C13.4687 44.5111 13.4231 44.6268 13.3318 44.7241C13.2405 44.8154 13.1279 44.8611 12.994 44.8611H12.3002V46.5225C12.3002 46.8694 12.2515 47.1402 12.1542 47.335C12.0629 47.5358 11.9077 47.6788 11.6886 47.764C11.4695 47.8492 11.1713 47.8918 10.794 47.8918C10.6418 47.8918 10.511 47.8462 10.4014 47.7549C10.2919 47.6636 10.2341 47.5328 10.228 47.3623C10.2219 47.2102 10.2645 47.0854 10.3558 46.9881C10.4532 46.8846 10.5779 46.8268 10.7301 46.8146C10.9492 46.7903 11.0891 46.7538 11.15 46.7051C11.2108 46.6564 11.2413 46.559 11.2413 46.413V44.8611H9.28771C9.379 44.8915 9.45812 44.9402 9.52506 45.0071C9.57375 45.0558 9.64069 45.1288 9.7259 45.2262C9.81718 45.3175 9.90847 45.4118 9.99976 45.5092C10.091 45.6066 10.161 45.6857 10.2097 45.7466C10.3132 45.8744 10.3588 46.0143 10.3467 46.1665C10.3345 46.3125 10.2675 46.4373 10.1458 46.5408C10.0302 46.6381 9.8963 46.6838 9.74415 46.6777C9.59201 46.6716 9.46725 46.6107 9.36987 46.4951C9.32727 46.4343 9.26033 46.3521 9.16904 46.2486C9.08384 46.1452 8.99559 46.0417 8.90431 45.9383C8.8191 45.8348 8.75216 45.7587 8.70347 45.71C8.6061 45.6066 8.56045 45.4849 8.56654 45.3449C8.57871 45.1988 8.63957 45.0802 8.74912 44.9889C8.80389 44.9341 8.87692 44.8915 8.96821 44.8611H8.94995C8.82215 44.8611 8.7126 44.8185 8.62131 44.7333C8.53003 44.6481 8.4783 44.5446 8.46612 44.4229C8.44787 44.4351 8.42657 44.4503 8.40222 44.4685C8.37788 44.4807 8.35049 44.4929 8.32006 44.505C8.22878 44.5476 8.11923 44.5963 7.99143 44.6511C7.86971 44.6998 7.73887 44.7515 7.59889 44.8063V47.4262C7.59889 47.5845 7.54716 47.7092 7.4437 47.8005C7.34633 47.8979 7.22461 47.9466 7.07855 47.9466ZM5.86442 59.4818C5.73053 59.4879 5.62099 59.4514 5.53579 59.3723C5.45667 59.2932 5.41103 59.1897 5.39885 59.0619C5.39277 58.9402 5.42928 58.8398 5.5084 58.7606C5.5936 58.6754 5.7001 58.6298 5.82791 58.6237C6.21132 58.6176 6.65254 58.6085 7.15158 58.5963C7.65671 58.5842 8.17705 58.5689 8.7126 58.5507V58.1125H7.70844C7.31894 58.1125 7.00856 58.0699 6.7773 57.9847C6.55212 57.8934 6.39085 57.7443 6.29348 57.5374C6.1961 57.3244 6.14741 57.0323 6.14741 56.661C6.14741 56.2898 6.1961 56.0007 6.29348 55.7938C6.39085 55.5869 6.55212 55.4408 6.7773 55.3556C7.00856 55.2643 7.31894 55.2187 7.70844 55.2187H8.7126V54.8809H5.55404C5.4445 54.8809 5.35017 54.8414 5.27105 54.7622C5.19194 54.6831 5.15238 54.5888 5.15238 54.4792C5.15238 54.3697 5.19194 54.2754 5.27105 54.1963C5.35017 54.1171 5.4445 54.0776 5.55404 54.0776H8.7126V53.7763C8.7126 53.6181 8.76129 53.4964 8.85866 53.4112C8.96212 53.3199 9.0808 53.2743 9.21468 53.2743C9.35466 53.2743 9.47333 53.3199 9.57071 53.4112C9.67417 53.4964 9.7259 53.6181 9.7259 53.7763V54.0776H12.9027C13.0123 54.0776 13.1066 54.1171 13.1857 54.1963C13.2648 54.2754 13.3044 54.3697 13.3044 54.4792C13.3044 54.5888 13.2648 54.6831 13.1857 54.7622C13.1066 54.8414 13.0123 54.8809 12.9027 54.8809H9.7259V55.2187H10.7848C11.1743 55.2187 11.4817 55.2643 11.7068 55.3556C11.9381 55.4408 12.1024 55.5869 12.1998 55.7938C12.2972 56.0007 12.3459 56.2898 12.3459 56.661C12.3459 57.0018 12.3063 57.2757 12.2272 57.4826C12.1481 57.6835 12.0111 57.8356 11.8164 57.9391C11.9198 58.0182 12.0355 58.1125 12.1633 58.222C12.2911 58.3255 12.4158 58.432 12.5376 58.5416C12.6593 58.645 12.7597 58.7363 12.8388 58.8154C12.9423 58.9128 12.991 59.0193 12.9849 59.1349C12.9788 59.2506 12.924 59.3571 12.8206 59.4544C12.7293 59.5396 12.6228 59.5822 12.501 59.5822C12.3793 59.5762 12.2728 59.5244 12.1815 59.427C12.145 59.3784 12.1055 59.3327 12.0629 59.2901C12.0203 59.2475 11.9746 59.2049 11.9259 59.1623C11.5364 59.1927 11.0861 59.2232 10.5749 59.2536C10.0697 59.284 9.53723 59.3145 8.97734 59.3449C8.42352 59.3692 7.8758 59.3936 7.33416 59.4179C6.7986 59.4423 6.30869 59.4636 5.86442 59.4818ZM9.38813 61.9101C8.87083 61.9101 8.46612 61.8675 8.174 61.7823C7.88188 61.6971 7.67496 61.551 7.55325 61.3441C7.43762 61.1433 7.3798 60.8603 7.3798 60.4951V60.0661C7.3798 59.92 7.42849 59.8013 7.52586 59.71C7.62323 59.6188 7.73886 59.5731 7.87275 59.5731C8.01273 59.5731 8.12836 59.6188 8.21965 59.71C8.31702 59.8013 8.36571 59.92 8.36571 60.0661V60.4221C8.36571 60.5925 8.39005 60.7203 8.43874 60.8055C8.49351 60.8907 8.59697 60.9485 8.74912 60.9789C8.90126 61.0094 9.12035 61.0246 9.40639 61.0246C9.68634 61.0246 9.8963 61.0124 10.0363 60.9881C10.1823 60.9576 10.2919 60.9059 10.3649 60.8329C10.4379 60.7598 10.5018 60.6625 10.5566 60.5408C10.6053 60.419 10.6935 60.3338 10.8213 60.2852C10.9492 60.2365 11.077 60.2395 11.2048 60.2943C11.3326 60.3491 11.4238 60.4312 11.4786 60.5408C11.5334 60.6503 11.5364 60.772 11.4877 60.9059C11.4025 61.1615 11.2839 61.3623 11.1317 61.5084C10.9857 61.6545 10.7727 61.7579 10.4927 61.8188C10.2188 61.8796 9.85066 61.9101 9.38813 61.9101ZM5.33495 61.691C5.23758 61.6058 5.17672 61.4993 5.15238 61.3715C5.13412 61.2498 5.16455 61.1402 5.24367 61.0428C5.3167 60.9576 5.4019 60.8511 5.49927 60.7233C5.59665 60.5894 5.68793 60.4556 5.77313 60.3217C5.86442 60.1878 5.93745 60.0752 5.99223 59.9839C6.06526 59.8622 6.16263 59.7861 6.28435 59.7557C6.41215 59.7253 6.53691 59.7435 6.65863 59.8105C6.76817 59.8713 6.8412 59.9626 6.87772 60.0843C6.92032 60.206 6.9051 60.3308 6.83207 60.4586C6.72861 60.629 6.60385 60.8238 6.45779 61.0428C6.31782 61.2558 6.18393 61.4384 6.05613 61.5906C5.96484 61.7001 5.84921 61.764 5.70923 61.7823C5.57534 61.8066 5.45058 61.7762 5.33495 61.691ZM13.2496 61.5449C13.1461 61.6301 13.0244 61.6666 12.8845 61.6545C12.7506 61.6423 12.6441 61.5845 12.5649 61.481C12.498 61.3897 12.4098 61.2741 12.3002 61.1341C12.1907 61.0002 12.075 60.8664 11.9533 60.7325C11.8377 60.5986 11.7312 60.486 11.6338 60.3947C11.5547 60.3095 11.5182 60.206 11.5243 60.0843C11.5364 59.9626 11.5882 59.8622 11.6795 59.7831C11.7768 59.6979 11.8864 59.6583 12.0081 59.6644C12.1359 59.6705 12.2485 59.7192 12.3459 59.8105C12.4432 59.9017 12.5528 60.0143 12.6745 60.1482C12.8023 60.2821 12.924 60.416 13.0396 60.5499C13.1614 60.6838 13.2557 60.7964 13.3226 60.8877C13.4078 60.985 13.4444 61.0946 13.4322 61.2163C13.42 61.3441 13.3591 61.4536 13.2496 61.5449ZM10.0728 60.6047C9.9815 60.6899 9.87196 60.7325 9.74415 60.7325C9.61635 60.7325 9.5068 60.6838 9.41552 60.5864C9.34249 60.5073 9.2512 60.416 9.14165 60.3125C9.03819 60.2091 8.95299 60.1269 8.88605 60.0661C8.80693 59.993 8.77042 59.8987 8.7765 59.7831C8.78867 59.6614 8.83432 59.5609 8.91343 59.4818C9.00472 59.4027 9.10514 59.3601 9.21468 59.354C9.32423 59.3479 9.42769 59.3875 9.52506 59.4727C9.61026 59.5396 9.70155 59.6188 9.79893 59.71C9.90239 59.7952 9.99367 59.8774 10.0728 59.9565C10.1762 60.0539 10.228 60.1634 10.228 60.2852C10.228 60.4008 10.1762 60.5073 10.0728 60.6047ZM9.7259 57.3913H10.5657C10.8335 57.3913 11.0191 57.37 11.1226 57.3274C11.2261 57.2787 11.2869 57.1631 11.3052 56.9805H9.7259V57.3913ZM7.92753 57.3913H8.7126V56.9805H7.17897C7.20331 57.1631 7.26417 57.2787 7.36154 57.3274C7.465 57.37 7.65366 57.3913 7.92753 57.3913ZM9.7259 56.3141H11.3052C11.2808 56.1376 11.2169 56.0281 11.1135 55.9855C11.0161 55.9429 10.8335 55.9216 10.5657 55.9216H9.7259V56.3141ZM7.1881 56.3141H8.7126V55.9216H7.92753C7.65975 55.9216 7.47413 55.9429 7.37067 55.9855C7.2733 56.0281 7.21244 56.1376 7.1881 56.3141ZM9.7259 58.5233C9.9815 58.5111 10.228 58.502 10.4653 58.4959C10.7088 58.4837 10.937 58.4746 11.15 58.4685C11.0526 58.359 11.0222 58.2373 11.0587 58.1034C11.0161 58.1095 10.9705 58.1125 10.9218 58.1125C10.8792 58.1125 10.8335 58.1125 10.7848 58.1125H9.7259V58.5233Z" fill="#073786"/>
</svg>
