<svg width="19" height="74" fill="none" xmlns="http://www.w3.org/2000/svg"><rect x=".097" width="18.706" height="73.25" rx="9.353" fill="#F4F2EE"/><path d="M8.092 20.746a.524.524 0 0 1-.42-.064.493.493 0 0 1-.22-.338.554.554 0 0 1 .056-.374.461.461 0 0 1 .328-.22l.402-.081.475-.092V14.21c0-.536.121-.907.365-1.114.243-.207.642-.31 1.196-.31h1.022c.56 0 .959.103 1.196.31.243.207.365.578.365 1.114v1.077c0 .541-.122.916-.365 1.123-.237.2-.636.3-1.196.3h-.164c.073.372.182.719.328 1.041.11-.079.232-.164.365-.255.134-.098.262-.189.384-.274a4.01 4.01 0 0 0 .283-.228.487.487 0 0 1 .356-.128c.14 0 .255.052.347.155a.544.544 0 0 1 .128.356.398.398 0 0 1-.165.329c-.085.073-.2.161-.347.265a125.606 125.606 0 0 0-.858.584c.177.225.378.432.603.62.231.19.478.363.74.52.121.074.197.18.228.32.03.14.012.271-.055.393a.537.537 0 0 1-.384.256.605.605 0 0 1-.456-.092c-.682-.438-1.226-.961-1.634-1.57-.402-.608-.664-1.372-.785-2.291h-.475v2.638a48.262 48.262 0 0 0 .758-.174.49.49 0 0 1 .374.037c.11.061.176.155.2.283a.54.54 0 0 1-.045.383.492.492 0 0 1-.31.229 11.87 11.87 0 0 1-.566.146c-.231.06-.475.122-.73.182-.256.061-.503.12-.74.174l-.584.137Zm-2.228.228a.49.49 0 0 1-.346-.137.463.463 0 0 1-.137-.356V14c0-.347.036-.615.11-.804a.69.69 0 0 1 .437-.392c.213-.073.527-.11.94-.11.494 0 .856.064 1.087.192.237.122.365.301.383.539.019.23-.051.508-.21.83-.079.152-.155.301-.228.447l-.219.42c-.097.183-.146.314-.146.393.006.073.07.173.192.301.2.201.362.438.484.712.127.274.191.563.191.867 0 .384-.064.694-.191.932a1.248 1.248 0 0 1-.52.53c-.214.115-.454.179-.722.19a.573.573 0 0 1-.383-.109.56.56 0 0 1-.11-.703.423.423 0 0 1 .283-.191c.237-.049.396-.134.475-.256.085-.122.128-.316.128-.584 0-.201-.055-.408-.165-.621a2.258 2.258 0 0 0-.383-.575 1.46 1.46 0 0 1-.22-.301.553.553 0 0 1-.027-.302c.025-.11.076-.25.156-.42.054-.121.118-.267.191-.438.073-.176.137-.325.192-.447.085-.176.103-.298.055-.365-.043-.073-.165-.11-.365-.11-.19 0-.31.025-.366.073-.048.049-.073.15-.073.302v6.481c0 .152-.048.27-.146.356a.47.47 0 0 1-.347.137Zm3.871-5.158h1.415c.256 0 .429-.04.52-.119.098-.085.146-.246.146-.483v-.073H9.735v.675Zm0-1.488h2.081v-.054c0-.238-.048-.396-.146-.475-.091-.085-.264-.128-.52-.128h-.749c-.255 0-.432.043-.529.128-.091.079-.137.237-.137.475v.054Zm1.132 20.582c-.189 0-.335-.052-.438-.155a.657.657 0 0 1-.174-.384.491.491 0 0 1 .128-.392.572.572 0 0 1 .384-.183c.194-.018.322-.054.383-.11.06-.06.091-.176.091-.346v-1.46H8.667a.463.463 0 0 1-.356-.138.51.51 0 0 1-.128-.347c0-.133.043-.246.128-.337a.448.448 0 0 1 .356-.146h2.574v-.721h-2.83c-.207 0-.35-.086-.429-.256v2.036c0 .322-.04.575-.118.757a.663.663 0 0 1-.402.375c-.195.066-.475.1-.84.1s-.648-.034-.849-.1a.696.696 0 0 1-.41-.375c-.074-.182-.11-.435-.11-.757v-3.552c0-.322.036-.572.11-.748a.692.692 0 0 1 .41-.383c.201-.073.484-.11.85-.11.364 0 .644.037.839.11a.66.66 0 0 1 .402.383c.079.176.118.426.118.748v1.078c.08-.17.222-.256.43-.256h1.697v-.812H8.786a.44.44 0 0 1-.338-.137.465.465 0 0 1-.128-.329c0-.134.043-.243.128-.329a.44.44 0 0 1 .338-.137h1.323v-.584c0-.17.052-.304.155-.401a.552.552 0 0 1 .393-.156c.158 0 .29.052.393.156a.51.51 0 0 1 .164.401v.584h1.47c.146 0 .258.046.337.137a.445.445 0 0 1 .128.33.465.465 0 0 1-.128.328.423.423 0 0 1-.337.137h-1.47v.812h1.871a.452.452 0 0 1 .475.475.452.452 0 0 1-.475.475h-.794v.72h.712c.152 0 .27.05.356.147a.476.476 0 0 1 .128.337.51.51 0 0 1-.128.347.463.463 0 0 1-.356.137h-.712v1.69c0 .468-.116.809-.347 1.022-.231.213-.59.32-1.077.32Zm-1.324-1.433a3.35 3.35 0 0 0-.21-.21 11.025 11.025 0 0 0-.493-.466.472.472 0 0 1-.164-.347c0-.146.049-.267.146-.365a.538.538 0 0 1 .384-.173.518.518 0 0 1 .401.137c.049.042.116.106.201.192l.274.237c.091.079.158.143.2.191.116.116.18.25.193.402a.48.48 0 0 1-.156.393.564.564 0 0 1-.392.164.478.478 0 0 1-.384-.155Zm-2.92-1.232c.151 0 .249-.025.291-.074.049-.048.073-.158.073-.328v-1.187h-.74v1.187c0 .17.025.28.074.328.049.05.149.074.301.074Zm-.375-2.547h.74v-1.15c0-.171-.025-.28-.074-.33-.042-.054-.14-.081-.292-.081-.152 0-.252.027-.301.082-.049.048-.073.158-.073.328v1.15Zm.83 18.249a.526.526 0 0 1-.374-.147.473.473 0 0 1-.155-.374v-2.2a85.93 85.93 0 0 0-.41.155c-.129.05-.241.089-.338.12-.19.066-.353.066-.493 0a.53.53 0 0 1-.274-.33.522.522 0 0 1 .027-.42c.067-.127.189-.219.365-.273.305-.098.679-.223 1.123-.375V42.26H6.01a8.042 8.042 0 0 1-.082.438c-.03.14-.06.262-.091.366a.533.533 0 0 1-.228.328.53.53 0 0 1-.393.055.483.483 0 0 1-.31-.2.439.439 0 0 1-.046-.384 8.17 8.17 0 0 0 .155-.676c.055-.261.104-.526.147-.794.042-.268.073-.505.09-.712a.422.422 0 0 1 .174-.329.524.524 0 0 1 .694.064c.085.086.122.207.11.366-.007.079-.016.16-.028.246l-.036.274h.383v-1.397c0-.158.052-.286.155-.383a.527.527 0 0 1 .375-.146c.146 0 .267.048.365.146a.502.502 0 0 1 .155.383v1.397h.429c.134 0 .246.045.338.137a.459.459 0 0 1 .137.337.49.49 0 0 1-.137.347.459.459 0 0 1-.338.137h-.43v1.47c.086-.03.162-.055.23-.073.072-.024.14-.049.2-.073a.43.43 0 0 1 .347 0c.115.043.195.134.237.274a.356.356 0 0 1 .037.146.471.471 0 0 1 .301-.11h2.291v-.73H8.676a.459.459 0 0 1-.338-.137.459.459 0 0 1-.137-.338c0-.127.046-.237.137-.328a.445.445 0 0 1 .338-.146h1.515v-.758h-1.15a.459.459 0 0 1-.338-.137.459.459 0 0 1-.136-.338c0-.128.045-.237.136-.328a.459.459 0 0 1 .338-.137h1.15v-.594c0-.164.052-.295.156-.392a.551.551 0 0 1 .392-.155.52.52 0 0 1 .384.155c.11.097.164.228.164.392v.594h1.287c.134 0 .247.045.338.137.091.091.137.2.137.328a.459.459 0 0 1-.137.338.459.459 0 0 1-.338.137h-1.287v.758h1.762c.134 0 .246.048.338.146.09.091.136.2.136.328a.459.459 0 0 1-.136.338.459.459 0 0 1-.338.137H12.3v.73h.694c.134 0 .247.05.338.146a.459.459 0 0 1 .137.338.49.49 0 0 1-.137.347.459.459 0 0 1-.338.137H12.3v1.662c0 .346-.049.617-.146.812a.81.81 0 0 1-.465.429c-.22.085-.518.128-.895.128a.594.594 0 0 1-.393-.137.508.508 0 0 1-.173-.393.494.494 0 0 1 .128-.374.555.555 0 0 1 .374-.173c.22-.025.36-.061.42-.11s.091-.146.091-.292v-1.552H9.288c.091.03.17.08.237.146.049.049.116.122.2.22.092.09.183.185.275.282.091.098.161.177.21.238.103.127.149.267.137.42a.538.538 0 0 1-.201.374.568.568 0 0 1-.402.137.495.495 0 0 1-.374-.183 3.058 3.058 0 0 0-.201-.246 11.99 11.99 0 0 0-.265-.31 3.422 3.422 0 0 0-.2-.229.482.482 0 0 1-.137-.365.499.499 0 0 1 .182-.356.549.549 0 0 1 .22-.128h-.02a.465.465 0 0 1-.328-.128.477.477 0 0 1-.155-.31l-.064.045a11.617 11.617 0 0 1-.41.183l-.393.155v2.62a.473.473 0 0 1-.155.374.495.495 0 0 1-.365.147ZM5.865 59.482a.433.433 0 0 1-.328-.11.489.489 0 0 1-.137-.31.38.38 0 0 1 .11-.301.467.467 0 0 1 .319-.137 156.996 156.996 0 0 0 2.885-.073v-.439H7.708c-.39 0-.7-.042-.93-.127a.875.875 0 0 1-.485-.448c-.097-.213-.146-.505-.146-.876s.05-.66.146-.867a.84.84 0 0 1 .484-.438c.232-.092.542-.137.931-.137h1.005v-.338H5.554a.386.386 0 0 1-.283-.119.386.386 0 0 1-.119-.283c0-.11.04-.204.119-.283a.386.386 0 0 1 .283-.118h3.159v-.302c0-.158.048-.28.146-.365a.522.522 0 0 1 .356-.137c.14 0 .258.046.356.137a.446.446 0 0 1 .155.365v.302h3.177c.11 0 .204.04.283.118.079.08.118.174.118.283 0 .11-.04.204-.118.283a.386.386 0 0 1-.283.119H9.726v.338h1.059c.39 0 .697.045.922.137a.84.84 0 0 1 .493.438c.097.207.146.496.146.867 0 .34-.04.615-.119.822a.86.86 0 0 1-.41.456c.103.08.219.173.346.283.128.103.253.21.375.32.121.103.222.194.3.273.104.098.153.204.147.32a.47.47 0 0 1-.164.32.454.454 0 0 1-.32.127.458.458 0 0 1-.32-.155 1.282 1.282 0 0 0-.118-.137 2.812 2.812 0 0 0-.137-.128c-.39.03-.84.061-1.351.092-.505.03-1.038.06-1.598.09l-1.643.074c-.535.024-1.025.046-1.47.064Zm3.524 2.428c-.517 0-.922-.042-1.214-.128-.292-.085-.499-.231-.62-.438-.116-.2-.174-.484-.174-.849v-.429c0-.146.048-.265.146-.356a.49.49 0 0 1 .347-.137.47.47 0 0 1 .347.137c.097.091.146.21.146.356v.356c0 .17.024.298.073.384.055.085.158.143.31.173s.371.046.657.046c.28 0 .49-.013.63-.037a.64.64 0 0 0 .329-.155.975.975 0 0 0 .192-.292.44.44 0 0 1 .264-.256.493.493 0 0 1 .384.01.521.521 0 0 1 .274.246c.054.11.057.231.009.365a1.455 1.455 0 0 1-.356.602c-.146.146-.36.25-.64.31-.273.062-.641.092-1.104.092Zm-4.053-.219a.55.55 0 0 1-.183-.32.405.405 0 0 1 .092-.328 7.28 7.28 0 0 0 .255-.32c.098-.134.189-.267.274-.401.091-.134.164-.247.22-.338a.468.468 0 0 1 .291-.228.509.509 0 0 1 .375.054c.11.061.182.153.219.274a.436.436 0 0 1-.046.375c-.103.17-.228.365-.374.584-.14.213-.274.395-.402.548a.526.526 0 0 1-.347.191.468.468 0 0 1-.374-.091Zm7.915-.146a.487.487 0 0 1-.366.11.434.434 0 0 1-.32-.174 14.234 14.234 0 0 0-.264-.347c-.11-.134-.225-.268-.347-.401a4.47 4.47 0 0 0-.32-.338.408.408 0 0 1-.109-.31.442.442 0 0 1 .156-.302.45.45 0 0 1 .328-.119c.128.006.24.055.338.146.097.092.207.204.329.338.127.134.249.268.365.402.121.134.216.246.283.338a.418.418 0 0 1 .11.328.477.477 0 0 1-.183.329Zm-3.177-.94a.465.465 0 0 1-.657-.019 5.795 5.795 0 0 0-.274-.273 7.783 7.783 0 0 0-.256-.247.341.341 0 0 1-.11-.283.48.48 0 0 1 .137-.301.494.494 0 0 1 .302-.128.427.427 0 0 1 .31.119c.085.067.177.146.274.237.103.085.195.167.274.246a.443.443 0 0 1 .155.33.434.434 0 0 1-.155.319Zm-.347-3.214h.84c.268 0 .453-.021.557-.064.103-.048.164-.164.182-.346h-1.58v.41Zm-1.798 0h.785v-.41H7.179c.024.182.085.298.183.346.103.043.292.064.566.064Zm1.798-1.077h1.58c-.025-.176-.09-.286-.192-.328-.098-.043-.28-.064-.548-.064h-.84v.392Zm-2.538 0h1.525v-.392h-.785c-.268 0-.454.02-.557.064-.098.042-.159.152-.183.328Zm2.538 2.21c.255-.013.502-.022.74-.028.243-.012.471-.021.684-.028a.373.373 0 0 1-.091-.365.967.967 0 0 1-.137.01H9.725v.41Z" fill="#073786"/></svg>