<svg width="265" height="44" viewBox="0 0 265 44" fill="none" xmlns="http://www.w3.org/2000/svg">
<rect x="0.00805664" width="264" height="44" rx="22" fill="#F4F2EE"/>
<path d="M92.5345 30.8573C92.1879 30.9373 91.8812 30.8906 91.6145 30.7173C91.3612 30.5573 91.2012 30.3106 91.1345 29.9773C91.0812 29.6706 91.1212 29.3973 91.2545 29.1573C91.4012 28.904 91.6412 28.744 91.9745 28.6773C92.2412 28.624 92.5345 28.564 92.8545 28.4973C93.1879 28.4306 93.5345 28.364 93.8945 28.2973V16.5373C93.8945 15.364 94.1612 14.5506 94.6945 14.0973C95.2279 13.644 96.1012 13.4173 97.3145 13.4173H99.5545C100.781 13.4173 101.655 13.644 102.175 14.0973C102.708 14.5506 102.975 15.364 102.975 16.5373V18.8973C102.975 20.084 102.708 20.904 102.175 21.3573C101.655 21.7973 100.781 22.0173 99.5545 22.0173H99.1945C99.3545 22.8306 99.5945 23.5906 99.9145 24.2973C100.155 24.124 100.421 23.9373 100.715 23.7373C101.008 23.524 101.288 23.324 101.555 23.1373C101.821 22.9373 102.028 22.7706 102.175 22.6373C102.401 22.4373 102.661 22.344 102.955 22.3573C103.261 22.3573 103.515 22.4706 103.715 22.6973C103.901 22.924 103.995 23.184 103.995 23.4773C103.995 23.7706 103.875 24.0106 103.635 24.1973C103.448 24.3573 103.195 24.5506 102.875 24.7773C102.555 25.004 102.221 25.2306 101.875 25.4573C101.541 25.684 101.248 25.884 100.995 26.0573C101.381 26.5506 101.821 27.004 102.315 27.4173C102.821 27.8306 103.361 28.2106 103.935 28.5573C104.201 28.7173 104.368 28.9506 104.435 29.2573C104.501 29.564 104.461 29.8506 104.315 30.1173C104.128 30.424 103.848 30.6106 103.475 30.6773C103.115 30.744 102.781 30.6773 102.475 30.4773C100.981 29.5173 99.7879 28.3706 98.8945 27.0373C98.0145 25.704 97.4412 24.0306 97.1745 22.0173H96.1345V27.7973C96.4412 27.7306 96.7345 27.664 97.0145 27.5973C97.3079 27.5306 97.5679 27.4706 97.7945 27.4173C98.1012 27.3373 98.3745 27.364 98.6145 27.4973C98.8545 27.6306 99.0012 27.8373 99.0545 28.1173C99.1212 28.4373 99.0879 28.7173 98.9545 28.9573C98.8212 29.1973 98.5945 29.364 98.2745 29.4573C97.9545 29.5506 97.5412 29.6573 97.0345 29.7773C96.5279 29.9106 95.9945 30.044 95.4345 30.1773C94.8745 30.3106 94.3345 30.4373 93.8145 30.5573C93.3079 30.6773 92.8812 30.7773 92.5345 30.8573ZM87.6545 31.3573C87.3612 31.3573 87.1079 31.2573 86.8945 31.0573C86.6945 30.8706 86.5945 30.6106 86.5945 30.2773V16.0773C86.5945 15.3173 86.6745 14.7306 86.8345 14.3173C87.0079 13.904 87.3279 13.6173 87.7945 13.4573C88.2612 13.2973 88.9479 13.2173 89.8545 13.2173C90.9345 13.2173 91.7279 13.3573 92.2345 13.6373C92.7545 13.904 93.0345 14.2973 93.0745 14.8173C93.1145 15.324 92.9612 15.9306 92.6145 16.6373C92.4412 16.9706 92.2745 17.2973 92.1145 17.6173C91.9545 17.924 91.7945 18.2306 91.6345 18.5373C91.4212 18.9373 91.3145 19.224 91.3145 19.3973C91.3279 19.5573 91.4679 19.7773 91.7345 20.0573C92.1745 20.4973 92.5279 21.0173 92.7945 21.6173C93.0745 22.2173 93.2145 22.8506 93.2145 23.5173C93.2145 24.3573 93.0745 25.0373 92.7945 25.5573C92.5145 26.0773 92.1345 26.464 91.6545 26.7173C91.1879 26.9706 90.6612 27.1106 90.0745 27.1373C89.7412 27.1506 89.4612 27.0706 89.2345 26.8973C89.0212 26.7106 88.8879 26.464 88.8345 26.1573C88.7945 25.8506 88.8479 25.584 88.9945 25.3573C89.1412 25.1306 89.3479 24.9906 89.6145 24.9373C90.1345 24.8306 90.4812 24.644 90.6545 24.3773C90.8412 24.1106 90.9345 23.684 90.9345 23.0973C90.9345 22.6573 90.8145 22.204 90.5745 21.7373C90.3479 21.2573 90.0679 20.8373 89.7345 20.4773C89.5079 20.224 89.3479 20.004 89.2545 19.8173C89.1745 19.6173 89.1545 19.3973 89.1945 19.1573C89.2479 18.9173 89.3612 18.6106 89.5345 18.2373C89.6545 17.9706 89.7945 17.6506 89.9545 17.2773C90.1145 16.8906 90.2545 16.564 90.3745 16.2973C90.5612 15.9106 90.6012 15.644 90.4945 15.4973C90.4012 15.3373 90.1345 15.2573 89.6945 15.2573C89.2812 15.2573 89.0145 15.3106 88.8945 15.4173C88.7879 15.524 88.7345 15.744 88.7345 16.0773V30.2773C88.7345 30.6106 88.6279 30.8706 88.4145 31.0573C88.2145 31.2573 87.9612 31.3573 87.6545 31.3573ZM96.1345 20.0573H99.2345C99.7945 20.0573 100.175 19.9706 100.375 19.7973C100.588 19.6106 100.695 19.2573 100.695 18.7373V18.5773H96.1345V20.0573ZM96.1345 16.7973H100.695V16.6773C100.695 16.1573 100.588 15.8106 100.375 15.6373C100.175 15.4506 99.7945 15.3573 99.2345 15.3573H97.5945C97.0345 15.3573 96.6479 15.4506 96.4345 15.6373C96.2345 15.8106 96.1345 16.1573 96.1345 16.6773V16.7973ZM120.615 31.2173C120.201 31.2173 119.881 31.104 119.655 30.8773C119.441 30.6506 119.315 30.3706 119.275 30.0373C119.248 29.6906 119.341 29.404 119.555 29.1773C119.781 28.9373 120.061 28.804 120.395 28.7773C120.821 28.7373 121.101 28.6573 121.235 28.5373C121.368 28.404 121.435 28.1506 121.435 27.7773V24.5773H115.795C115.461 24.5773 115.201 24.4773 115.015 24.2773C114.828 24.064 114.735 23.8106 114.735 23.5173C114.735 23.224 114.828 22.9773 115.015 22.7773C115.201 22.564 115.461 22.4573 115.795 22.4573H121.435V20.8773H115.235C114.781 20.8773 114.468 20.6906 114.295 20.3173V24.7773C114.295 25.484 114.208 26.0373 114.035 26.4373C113.875 26.824 113.581 27.0973 113.155 27.2573C112.728 27.404 112.115 27.4773 111.315 27.4773C110.515 27.4773 109.895 27.404 109.455 27.2573C109.028 27.0973 108.728 26.824 108.555 26.4373C108.395 26.0373 108.315 25.484 108.315 24.7773V16.9973C108.315 16.2906 108.395 15.744 108.555 15.3573C108.728 14.9573 109.028 14.6773 109.455 14.5173C109.895 14.3573 110.515 14.2773 111.315 14.2773C112.115 14.2773 112.728 14.3573 113.155 14.5173C113.581 14.6773 113.875 14.9573 114.035 15.3573C114.208 15.744 114.295 16.2906 114.295 16.9973V19.3573C114.468 18.984 114.781 18.7973 115.235 18.7973H118.955V17.0173H116.055C115.748 17.0173 115.501 16.9173 115.315 16.7173C115.128 16.5173 115.035 16.2773 115.035 15.9973C115.035 15.704 115.128 15.464 115.315 15.2773C115.501 15.0773 115.748 14.9773 116.055 14.9773H118.955V13.6973C118.955 13.324 119.068 13.0306 119.295 12.8173C119.535 12.5906 119.821 12.4773 120.155 12.4773C120.501 12.4773 120.788 12.5906 121.015 12.8173C121.255 13.0306 121.375 13.324 121.375 13.6973V14.9773H124.595C124.915 14.9773 125.161 15.0773 125.335 15.2773C125.521 15.464 125.615 15.704 125.615 15.9973C125.615 16.2773 125.521 16.5173 125.335 16.7173C125.161 16.9173 124.915 17.0173 124.595 17.0173H121.375V18.7973H125.475C125.795 18.7973 126.048 18.8973 126.235 19.0973C126.421 19.2973 126.515 19.544 126.515 19.8373C126.515 20.1306 126.421 20.3773 126.235 20.5773C126.048 20.7773 125.795 20.8773 125.475 20.8773H123.735V22.4573H125.295C125.628 22.4573 125.888 22.564 126.075 22.7773C126.261 22.9773 126.355 23.224 126.355 23.5173C126.355 23.8106 126.261 24.064 126.075 24.2773C125.888 24.4773 125.628 24.5773 125.295 24.5773H123.735V28.2773C123.735 29.304 123.481 30.0506 122.975 30.5173C122.468 30.984 121.681 31.2173 120.615 31.2173ZM117.715 28.0773C117.608 27.9573 117.455 27.804 117.255 27.6173C117.055 27.4173 116.855 27.224 116.655 27.0373C116.455 26.8506 116.295 26.704 116.175 26.5973C115.948 26.3973 115.828 26.144 115.815 25.8373C115.815 25.5173 115.921 25.2506 116.135 25.0373C116.361 24.7973 116.641 24.6706 116.975 24.6573C117.308 24.6306 117.601 24.7306 117.855 24.9573C117.961 25.0506 118.108 25.1906 118.295 25.3773C118.495 25.5506 118.695 25.724 118.895 25.8973C119.095 26.0706 119.241 26.2106 119.335 26.3173C119.588 26.5706 119.728 26.864 119.755 27.1973C119.781 27.5173 119.668 27.804 119.415 28.0573C119.188 28.284 118.901 28.404 118.555 28.4173C118.221 28.4306 117.941 28.3173 117.715 28.0773ZM111.315 25.3773C111.648 25.3773 111.861 25.324 111.955 25.2173C112.061 25.1106 112.115 24.8706 112.115 24.4973V21.8973H110.495V24.4973C110.495 24.8706 110.548 25.1106 110.655 25.2173C110.761 25.324 110.981 25.3773 111.315 25.3773ZM110.495 19.7973H112.115V17.2773C112.115 16.904 112.061 16.664 111.955 16.5573C111.861 16.4373 111.648 16.3773 111.315 16.3773C110.981 16.3773 110.761 16.4373 110.655 16.5573C110.548 16.664 110.495 16.904 110.495 17.2773V19.7973ZM134.315 31.2973C133.995 31.2973 133.721 31.1906 133.495 30.9773C133.268 30.7773 133.155 30.504 133.155 30.1573V25.3373C132.835 25.4573 132.535 25.5706 132.255 25.6773C131.975 25.784 131.728 25.8706 131.515 25.9373C131.101 26.084 130.741 26.084 130.435 25.9373C130.141 25.7906 129.941 25.5506 129.835 25.2173C129.728 24.8706 129.748 24.564 129.895 24.2973C130.041 24.0173 130.308 23.8173 130.695 23.6973C131.361 23.484 132.181 23.2106 133.155 22.8773V18.8373H131.975C131.921 19.1706 131.861 19.4906 131.795 19.7973C131.728 20.104 131.661 20.3706 131.595 20.5973C131.501 20.9306 131.335 21.1706 131.095 21.3173C130.855 21.464 130.568 21.504 130.235 21.4373C129.955 21.384 129.728 21.2373 129.555 20.9973C129.395 20.7573 129.361 20.4773 129.455 20.1573C129.575 19.7306 129.688 19.2373 129.795 18.6773C129.915 18.104 130.021 17.524 130.115 16.9373C130.208 16.3506 130.275 15.8306 130.315 15.3773C130.341 15.0573 130.468 14.8173 130.695 14.6573C130.935 14.484 131.201 14.4106 131.495 14.4373C131.801 14.4773 132.041 14.5973 132.215 14.7973C132.401 14.984 132.481 15.2506 132.455 15.5973C132.441 15.7706 132.421 15.9506 132.395 16.1373C132.368 16.324 132.341 16.524 132.315 16.7373H133.155V13.6773C133.155 13.3306 133.268 13.0506 133.495 12.8373C133.721 12.624 133.995 12.5173 134.315 12.5173C134.635 12.5173 134.901 12.624 135.115 12.8373C135.341 13.0506 135.455 13.3306 135.455 13.6773V16.7373H136.395C136.688 16.7373 136.935 16.8373 137.135 17.0373C137.335 17.2373 137.435 17.484 137.435 17.7773C137.435 18.0706 137.335 18.324 137.135 18.5373C136.935 18.7373 136.688 18.8373 136.395 18.8373H135.455V22.0573C135.641 21.9906 135.808 21.9373 135.955 21.8973C136.115 21.844 136.261 21.7906 136.395 21.7373C136.661 21.6306 136.915 21.6306 137.155 21.7373C137.408 21.8306 137.581 22.0306 137.675 22.3373C137.701 22.3906 137.721 22.444 137.735 22.4973C137.748 22.5506 137.755 22.604 137.755 22.6573C137.955 22.4973 138.175 22.4173 138.415 22.4173H143.435V20.8173H137.815C137.521 20.8173 137.275 20.7173 137.075 20.5173C136.875 20.3173 136.775 20.0706 136.775 19.7773C136.775 19.4973 136.875 19.2573 137.075 19.0573C137.275 18.844 137.521 18.7373 137.815 18.7373H141.135V17.0773H138.615C138.321 17.0773 138.075 16.9773 137.875 16.7773C137.675 16.5773 137.575 16.3306 137.575 16.0373C137.575 15.7573 137.675 15.5173 137.875 15.3173C138.075 15.1173 138.321 15.0173 138.615 15.0173H141.135V13.7173C141.135 13.3573 141.248 13.0706 141.475 12.8573C141.715 12.6306 142.001 12.5173 142.335 12.5173C142.668 12.5173 142.948 12.6306 143.175 12.8573C143.415 13.0706 143.535 13.3573 143.535 13.7173V15.0173H146.355C146.648 15.0173 146.895 15.1173 147.095 15.3173C147.295 15.5173 147.395 15.7573 147.395 16.0373C147.395 16.3306 147.295 16.5773 147.095 16.7773C146.895 16.9773 146.648 17.0773 146.355 17.0773H143.535V18.7373H147.395C147.688 18.7373 147.935 18.844 148.135 19.0573C148.335 19.2573 148.435 19.4973 148.435 19.7773C148.435 20.0706 148.335 20.3173 148.135 20.5173C147.935 20.7173 147.688 20.8173 147.395 20.8173H145.755V22.4173H147.275C147.568 22.4173 147.815 22.524 148.015 22.7373C148.215 22.9373 148.315 23.184 148.315 23.4773C148.315 23.7706 148.215 24.024 148.015 24.2373C147.815 24.4373 147.568 24.5373 147.275 24.5373H145.755V28.1773C145.755 28.9373 145.648 29.5306 145.435 29.9573C145.235 30.3973 144.895 30.7106 144.415 30.8973C143.935 31.084 143.281 31.1773 142.455 31.1773C142.121 31.1773 141.835 31.0773 141.595 30.8773C141.355 30.6773 141.228 30.3906 141.215 30.0173C141.201 29.684 141.295 29.4106 141.495 29.1973C141.708 28.9706 141.981 28.844 142.315 28.8173C142.795 28.764 143.101 28.684 143.235 28.5773C143.368 28.4706 143.435 28.2573 143.435 27.9373V24.5373H139.155C139.355 24.604 139.528 24.7106 139.675 24.8573C139.781 24.964 139.928 25.124 140.115 25.3373C140.315 25.5373 140.515 25.744 140.715 25.9573C140.915 26.1706 141.068 26.344 141.175 26.4773C141.401 26.7573 141.501 27.064 141.475 27.3973C141.448 27.7173 141.301 27.9906 141.035 28.2173C140.781 28.4306 140.488 28.5306 140.155 28.5173C139.821 28.504 139.548 28.3706 139.335 28.1173C139.241 27.984 139.095 27.804 138.895 27.5773C138.708 27.3506 138.515 27.124 138.315 26.8973C138.128 26.6706 137.981 26.504 137.875 26.3973C137.661 26.1706 137.561 25.904 137.575 25.5973C137.601 25.2773 137.735 25.0173 137.975 24.8173C138.095 24.6973 138.255 24.604 138.455 24.5373H138.415C138.135 24.5373 137.895 24.444 137.695 24.2573C137.495 24.0706 137.381 23.844 137.355 23.5773C137.315 23.604 137.268 23.6373 137.215 23.6773C137.161 23.704 137.101 23.7306 137.035 23.7573C136.835 23.8506 136.595 23.9573 136.315 24.0773C136.048 24.184 135.761 24.2973 135.455 24.4173V30.1573C135.455 30.504 135.341 30.7773 135.115 30.9773C134.901 31.1906 134.635 31.2973 134.315 31.2973ZM153.655 25.8973C153.361 25.9106 153.121 25.8306 152.935 25.6573C152.761 25.484 152.661 25.2573 152.635 24.9773C152.621 24.7106 152.701 24.4906 152.875 24.3173C153.061 24.1306 153.295 24.0306 153.575 24.0173C154.415 24.004 155.381 23.984 156.475 23.9573C157.581 23.9306 158.721 23.8973 159.895 23.8573V22.8973H157.695C156.841 22.8973 156.161 22.804 155.655 22.6173C155.161 22.4173 154.808 22.0906 154.595 21.6373C154.381 21.1706 154.275 20.5306 154.275 19.7173C154.275 18.904 154.381 18.2706 154.595 17.8173C154.808 17.364 155.161 17.044 155.655 16.8573C156.161 16.6573 156.841 16.5573 157.695 16.5573H159.895V15.8173H152.975C152.735 15.8173 152.528 15.7306 152.355 15.5573C152.181 15.384 152.095 15.1773 152.095 14.9373C152.095 14.6973 152.181 14.4906 152.355 14.3173C152.528 14.144 152.735 14.0573 152.975 14.0573H159.895V13.3973C159.895 13.0506 160.001 12.784 160.215 12.5973C160.441 12.3973 160.701 12.2973 160.995 12.2973C161.301 12.2973 161.561 12.3973 161.775 12.5973C162.001 12.784 162.115 13.0506 162.115 13.3973V14.0573H169.075C169.315 14.0573 169.521 14.144 169.695 14.3173C169.868 14.4906 169.955 14.6973 169.955 14.9373C169.955 15.1773 169.868 15.384 169.695 15.5573C169.521 15.7306 169.315 15.8173 169.075 15.8173H162.115V16.5573H164.435C165.288 16.5573 165.961 16.6573 166.455 16.8573C166.961 17.044 167.321 17.364 167.535 17.8173C167.748 18.2706 167.855 18.904 167.855 19.7173C167.855 20.464 167.768 21.064 167.595 21.5173C167.421 21.9573 167.121 22.2906 166.695 22.5173C166.921 22.6906 167.175 22.8973 167.455 23.1373C167.735 23.364 168.008 23.5973 168.275 23.8373C168.541 24.064 168.761 24.264 168.935 24.4373C169.161 24.6506 169.268 24.884 169.255 25.1373C169.241 25.3906 169.121 25.624 168.895 25.8373C168.695 26.024 168.461 26.1173 168.195 26.1173C167.928 26.104 167.695 25.9906 167.495 25.7773C167.415 25.6706 167.328 25.5706 167.235 25.4773C167.141 25.384 167.041 25.2906 166.935 25.1973C166.081 25.264 165.095 25.3306 163.975 25.3973C162.868 25.464 161.701 25.5306 160.475 25.5973C159.261 25.6506 158.061 25.704 156.875 25.7573C155.701 25.8106 154.628 25.8573 153.655 25.8973ZM161.375 31.2173C160.241 31.2173 159.355 31.124 158.715 30.9373C158.075 30.7506 157.621 30.4306 157.355 29.9773C157.101 29.5373 156.975 28.9173 156.975 28.1173V27.1773C156.975 26.8573 157.081 26.5973 157.295 26.3973C157.508 26.1973 157.761 26.0973 158.055 26.0973C158.361 26.0973 158.615 26.1973 158.815 26.3973C159.028 26.5973 159.135 26.8573 159.135 27.1773V27.9573C159.135 28.3306 159.188 28.6106 159.295 28.7973C159.415 28.984 159.641 29.1106 159.975 29.1773C160.308 29.244 160.788 29.2773 161.415 29.2773C162.028 29.2773 162.488 29.2506 162.795 29.1973C163.115 29.1306 163.355 29.0173 163.515 28.8573C163.675 28.6973 163.815 28.484 163.935 28.2173C164.041 27.9506 164.235 27.764 164.515 27.6573C164.795 27.5506 165.075 27.5573 165.355 27.6773C165.635 27.7973 165.835 27.9773 165.955 28.2173C166.075 28.4573 166.081 28.724 165.975 29.0173C165.788 29.5773 165.528 30.0173 165.195 30.3373C164.875 30.6573 164.408 30.884 163.795 31.0173C163.195 31.1506 162.388 31.2173 161.375 31.2173ZM152.495 30.7373C152.281 30.5506 152.148 30.3173 152.095 30.0373C152.055 29.7706 152.121 29.5306 152.295 29.3173C152.455 29.1306 152.641 28.8973 152.855 28.6173C153.068 28.324 153.268 28.0306 153.455 27.7373C153.655 27.444 153.815 27.1973 153.935 26.9973C154.095 26.7306 154.308 26.564 154.575 26.4973C154.855 26.4306 155.128 26.4706 155.395 26.6173C155.635 26.7506 155.795 26.9506 155.875 27.2173C155.968 27.484 155.935 27.7573 155.775 28.0373C155.548 28.4106 155.275 28.8373 154.955 29.3173C154.648 29.784 154.355 30.184 154.075 30.5173C153.875 30.7573 153.621 30.8973 153.315 30.9373C153.021 30.9906 152.748 30.924 152.495 30.7373ZM169.835 30.4173C169.608 30.604 169.341 30.684 169.035 30.6573C168.741 30.6306 168.508 30.504 168.335 30.2773C168.188 30.0773 167.995 29.824 167.755 29.5173C167.515 29.224 167.261 28.9306 166.995 28.6373C166.741 28.344 166.508 28.0973 166.295 27.8973C166.121 27.7106 166.041 27.484 166.055 27.2173C166.081 26.9506 166.195 26.7306 166.395 26.5573C166.608 26.3706 166.848 26.284 167.115 26.2973C167.395 26.3106 167.641 26.4173 167.855 26.6173C168.068 26.8173 168.308 27.064 168.575 27.3573C168.855 27.6506 169.121 27.944 169.375 28.2373C169.641 28.5306 169.848 28.7773 169.995 28.9773C170.181 29.1906 170.261 29.4306 170.235 29.6973C170.208 29.9773 170.075 30.2173 169.835 30.4173ZM162.875 28.3573C162.675 28.544 162.435 28.6373 162.155 28.6373C161.875 28.6373 161.635 28.5306 161.435 28.3173C161.275 28.144 161.075 27.944 160.835 27.7173C160.608 27.4906 160.421 27.3106 160.275 27.1773C160.101 27.0173 160.021 26.8106 160.035 26.5573C160.061 26.2906 160.161 26.0706 160.335 25.8973C160.535 25.724 160.755 25.6306 160.995 25.6173C161.235 25.604 161.461 25.6906 161.675 25.8773C161.861 26.024 162.061 26.1973 162.275 26.3973C162.501 26.584 162.701 26.764 162.875 26.9373C163.101 27.1506 163.215 27.3906 163.215 27.6573C163.215 27.9106 163.101 28.144 162.875 28.3573ZM162.115 21.3173H163.955C164.541 21.3173 164.948 21.2706 165.175 21.1773C165.401 21.0706 165.535 20.8173 165.575 20.4173H162.115V21.3173ZM158.175 21.3173H159.895V20.4173H156.535C156.588 20.8173 156.721 21.0706 156.935 21.1773C157.161 21.2706 157.575 21.3173 158.175 21.3173ZM162.115 18.9573H165.575C165.521 18.5706 165.381 18.3306 165.155 18.2373C164.941 18.144 164.541 18.0973 163.955 18.0973H162.115V18.9573ZM156.555 18.9573H159.895V18.0973H158.175C157.588 18.0973 157.181 18.144 156.955 18.2373C156.741 18.3306 156.608 18.5706 156.555 18.9573ZM162.115 23.7973C162.675 23.7706 163.215 23.7506 163.735 23.7373C164.268 23.7106 164.768 23.6906 165.235 23.6773C165.021 23.4373 164.955 23.1706 165.035 22.8773C164.941 22.8906 164.841 22.8973 164.735 22.8973C164.641 22.8973 164.541 22.8973 164.435 22.8973H162.115V23.7973Z" fill="#073786"/>
</svg>
