<svg width="123" height="124" fill="none" xmlns="http://www.w3.org/2000/svg"><path fill-rule="evenodd" clip-rule="evenodd" d="M104.842 101.906c-5.97 0-9.453 2.886-10.448 8.757-.995 5.87-4.18 7.562-9.652 5.174-5.473-2.488-9.85-1.194-13.134 3.781-3.284 4.975-6.966 5.174-10.946.796-3.98-4.478-8.457-5.075-13.532-1.89-5.075 3.184-8.458 1.89-10.249-3.782-1.791-5.671-5.672-8.059-11.543-7.263-5.87.895-8.557-1.692-7.86-7.563.597-5.87-1.89-9.651-7.662-11.343-5.771-1.692-7.065-4.975-4.08-10.15 2.985-5.174 2.19-9.651-2.388-13.432-4.577-3.782-4.477-7.463.398-10.946 4.876-3.482 5.97-7.86 3.284-13.234-2.687-5.373-1.095-8.657 4.776-9.85 5.87-1.195 8.657-4.777 8.358-10.747-.199-5.97 2.587-8.259 8.359-7.065 5.87 1.294 9.85-.895 12.04-6.368C42.752 1.21 46.234.214 51.11 3.796c4.776 3.483 9.353 3.184 13.632-.995 4.279-4.18 7.86-3.682 10.846 1.492 2.985 5.175 7.264 6.767 12.836 4.677 5.572-2.09 8.657-.1 9.254 5.771.597 5.97 3.88 9.055 9.85 9.453 5.971.398 7.961 3.383 6.17 9.055-1.891 5.672-.199 9.85 5.174 12.637 5.274 2.786 5.871 6.368 1.89 10.746-3.98 4.379-4.179 8.956-.497 13.632 3.682 4.677 2.786 8.26-2.687 10.647-5.472 2.388-7.462 6.468-5.97 12.24 1.393 5.87-.796 8.755-6.766 8.755Z" fill="#073786"/></svg>