<svg width="545" height="125" viewBox="0 0 545 125" fill="none" xmlns="http://www.w3.org/2000/svg">
<circle cx="58.7814" cy="62.1818" r="55.6237" stroke="#1F1F1F" stroke-width="5.56237"/>
<circle cx="201.178" cy="62.1818" r="55.6237" stroke="#1F1F1F" stroke-width="5.56237"/>
<circle cx="343.575" cy="62.1818" r="55.6237" stroke="#1F1F1F" stroke-width="5.56237"/>
<circle cx="485.972" cy="62.1818" r="55.6237" stroke="#1F1F1F" stroke-width="5.56237"/>
<line x1="114.961" y1="59.9566" x2="142.773" y2="59.9566" stroke="#1F1F1F" stroke-width="5.56237"/>
<line x1="257.358" y1="59.9566" x2="285.17" y2="59.9566" stroke="#1F1F1F" stroke-width="5.56237"/>
<line x1="399.755" y1="59.9566" x2="427.566" y2="59.9566" stroke="#1F1F1F" stroke-width="5.56237"/>
<path d="M57.5688 84.9005C54.1015 84.9005 51.2258 84.6557 48.9415 84.1662C46.6572 83.7175 44.842 82.9017 43.496 81.7188C42.1907 80.4951 41.2525 78.8227 40.6814 76.7015C40.1103 74.5804 39.8248 71.8678 39.8248 68.5638V52.2883C39.8248 48.9842 40.1103 46.2717 40.6814 44.1505C41.2525 42.0294 42.1907 40.3774 43.496 39.1945C44.842 37.9707 46.6572 37.1345 48.9415 36.6858C51.2258 36.1964 54.1015 35.9516 57.5688 35.9516H62.2189C65.6861 35.9516 68.5619 36.1964 70.8461 36.6858C73.1304 37.1345 74.9252 37.9707 76.2305 39.1945C77.5766 40.3774 78.5352 42.0294 79.1063 44.1505C79.6773 46.2717 79.9629 48.9842 79.9629 52.2883V68.5638C79.9629 71.8678 79.6773 74.5804 79.1063 76.7015C78.5352 78.8227 77.5766 80.4951 76.2305 81.7188C74.9252 82.9017 73.1304 83.7175 70.8461 84.1662C68.5619 84.6557 65.6861 84.9005 62.2189 84.9005H57.5688ZM57.5688 78.0476H62.2189C65.115 78.0476 67.2769 77.8233 68.7046 77.3746C70.1731 76.8851 71.1521 75.9673 71.6416 74.6212C72.1718 73.2751 72.437 71.256 72.437 68.5638V63.3018H47.3507V68.5638C47.3507 71.256 47.5954 73.2751 48.0849 74.6212C48.6152 75.9673 49.6146 76.8851 51.083 77.3746C52.5515 77.8233 54.7134 78.0476 57.5688 78.0476ZM47.3507 56.6325H72.437V52.2883C72.437 49.5961 72.1718 47.577 71.6416 46.2309C71.1521 44.844 70.1731 43.9262 68.7046 43.4775C67.2769 43.0288 65.115 42.8044 62.2189 42.8044H57.5688C54.7134 42.8044 52.5515 43.0288 51.083 43.4775C49.6146 43.9262 48.6152 44.844 48.0849 46.2309C47.5954 47.577 47.3507 49.5961 47.3507 52.2883V56.6325Z" fill="#1F1F1F"/>
<path d="M202.291 88.9999C201.271 88.9999 200.394 88.6532 199.66 87.9598C198.966 87.3071 198.619 86.4097 198.619 85.2676V67.646C194.867 67.7276 191.236 67.8092 187.728 67.8907C184.22 67.9723 181.181 68.0335 178.612 68.0743C176.246 68.0743 175.022 66.973 174.94 64.7703C174.9 63.7913 175.206 63.0163 175.858 62.4452C176.511 61.8333 177.367 61.5274 178.428 61.5274C180.59 61.5682 183.139 61.5886 186.076 61.5886C189.013 61.5478 192.093 61.507 195.315 61.4662C195.356 61.3846 195.458 61.2623 195.621 61.0991C194.398 60.0793 193.011 58.978 191.461 57.795C189.911 56.5713 188.361 55.4088 186.81 54.3074C185.26 53.1653 183.874 52.2067 182.65 51.4317C181.875 50.9014 181.406 50.1876 181.243 49.2902C181.079 48.352 181.283 47.4954 181.854 46.7204C182.466 45.9045 183.221 45.3947 184.118 45.1907C185.056 44.946 185.954 45.1091 186.81 45.6802C187.422 46.0881 188.055 46.5368 188.707 47.0263C189.401 47.475 190.115 47.9645 190.849 48.4948C191.705 47.3934 192.644 46.1493 193.663 44.7624C194.724 43.3347 195.58 42.1722 196.233 41.2748C190.89 41.6011 185.893 41.7235 181.243 41.6419C180.223 41.6419 179.366 41.3564 178.673 40.7853C177.979 40.2142 177.612 39.378 177.571 38.2767C177.531 37.2161 177.857 36.4003 178.55 35.8292C179.285 35.2582 180.284 34.993 181.548 35.0338C183.629 35.0746 185.974 35.0746 188.585 35.0338C191.195 34.9522 193.908 34.8503 196.723 34.7279C199.578 34.5647 202.393 34.3608 205.166 34.116C207.981 33.8713 210.612 33.6061 213.059 33.3206C215.548 32.9943 217.689 32.6476 219.484 32.2804C220.626 32.0765 221.605 32.1785 222.421 32.5864C223.277 32.9535 223.828 33.5857 224.073 34.4831C224.399 35.5845 224.297 36.5227 223.767 37.2977C223.277 38.0727 222.441 38.5622 221.258 38.7662C218.811 39.1741 215.996 39.5616 212.815 39.9287C209.674 40.255 206.41 40.561 203.025 40.8465C203.351 41.3768 203.514 41.9886 203.514 42.6821C203.555 43.3347 203.351 43.9466 202.902 44.5177C202.495 45.1295 201.903 45.9249 201.128 46.9039C200.394 47.8421 199.598 48.8415 198.742 49.902C197.926 50.9218 197.171 51.86 196.478 52.7166C197.171 53.2469 197.844 53.7975 198.497 54.3686C199.19 54.8989 199.823 55.4088 200.394 55.8983C201.577 54.593 202.78 53.2265 204.004 51.7988C205.268 50.3711 206.431 49.025 207.491 47.7605C208.552 46.4552 209.388 45.3947 210 44.5788C210.653 43.763 211.489 43.3143 212.509 43.2328C213.528 43.1512 214.446 43.4367 215.262 44.0894C216.078 44.7012 216.547 45.4966 216.669 46.4756C216.832 47.4138 216.588 48.25 215.935 48.9842C214.997 50.0856 213.875 51.3705 212.57 52.839C211.265 54.2666 209.898 55.7147 208.47 57.1832C207.083 58.6516 205.737 60.0385 204.432 61.3438C206.839 61.2623 209.123 61.2011 211.285 61.1603C213.488 61.0787 215.466 61.0175 217.22 60.9767C216.934 60.5688 216.649 60.2017 216.363 59.8754C216.078 59.5083 215.813 59.1819 215.568 58.8964C215.038 58.2029 214.834 57.4483 214.956 56.6325C215.078 55.7759 215.466 55.0825 216.119 54.5522C216.853 53.9811 217.669 53.716 218.566 53.7568C219.463 53.7568 220.238 54.1239 220.891 54.8581C221.707 55.7555 222.625 56.8772 223.645 58.2233C224.664 59.5694 225.643 60.9155 226.581 62.2616C227.56 63.5669 228.335 64.6887 228.907 65.6269C229.478 66.4835 229.641 67.3605 229.396 68.2579C229.151 69.1553 228.621 69.8895 227.805 70.4606C226.989 70.9908 226.112 71.154 225.174 70.9501C224.236 70.7053 223.522 70.175 223.033 69.3592C222.788 68.9921 222.523 68.5842 222.237 68.1355C221.952 67.6868 221.646 67.2177 221.319 66.7282C219.198 66.8506 216.832 66.973 214.222 67.0953C211.611 67.1769 208.858 67.2789 205.962 67.4013V85.2676C205.962 86.4097 205.595 87.3071 204.86 87.9598C204.167 88.6532 203.31 88.9999 202.291 88.9999ZM182.099 84.8393C181.202 85.3696 180.223 85.6143 179.162 85.5735C178.142 85.5327 177.286 85.0432 176.592 84.1051C176.021 83.2892 175.838 82.4122 176.042 81.4741C176.246 80.5359 176.796 79.8016 177.694 79.2714C178.754 78.6187 179.958 77.8029 181.304 76.8239C182.65 75.8449 183.955 74.8456 185.22 73.8258C186.484 72.7652 187.545 71.8271 188.401 71.0112C189.136 70.3178 189.972 69.9915 190.91 70.0323C191.848 70.0323 192.603 70.3586 193.174 71.0112C193.867 71.7455 194.214 72.5613 194.214 73.4587C194.214 74.3153 193.908 75.0903 193.296 75.7838C192.358 76.7627 191.257 77.8233 189.992 78.9654C188.728 80.0668 187.402 81.1477 186.015 82.2083C184.669 83.2281 183.364 84.1051 182.099 84.8393ZM222.543 84.9005C221.36 84.207 220.075 83.3504 218.688 82.3307C217.302 81.2701 215.935 80.1688 214.589 79.0266C213.243 77.8845 212.04 76.7831 210.979 75.7226C210.367 75.0291 210.061 74.2541 210.061 73.3975C210.102 72.5001 210.449 71.7251 211.101 71.0724C211.713 70.4606 212.468 70.1546 213.365 70.1546C214.303 70.1138 215.119 70.3994 215.813 71.0112C216.792 71.8678 217.913 72.806 219.178 73.8258C220.442 74.8048 221.727 75.7634 223.033 76.7015C224.379 77.5989 225.602 78.374 226.704 79.0266C227.438 79.4345 227.948 80.1076 228.233 81.0458C228.56 81.9839 228.437 82.9017 227.866 83.7991C227.295 84.6965 226.5 85.2268 225.48 85.39C224.46 85.5939 223.481 85.4308 222.543 84.9005Z" fill="#1F1F1F"/>
<path d="M345.238 89.6118C344.3 89.6118 343.464 89.3059 342.729 88.694C341.995 88.0822 341.608 87.2256 341.567 86.1242C341.526 85.1452 341.832 84.3294 342.485 83.6768C343.137 82.9833 344.014 82.6162 345.116 82.5754C346.38 82.5346 347.196 82.3511 347.563 82.0247C347.93 81.6984 348.114 81.0254 348.114 80.0056V72.6633C346.115 74.7844 343.708 76.8239 340.894 78.7819C338.12 80.699 335.122 82.4122 331.899 83.9215C328.677 85.4308 325.414 86.6545 322.11 87.5927C321.049 87.8782 320.09 87.8578 319.234 87.5315C318.418 87.2052 317.847 86.5321 317.521 85.5123C317.194 84.5334 317.276 83.6564 317.765 82.8813C318.255 82.1063 319.05 81.576 320.152 81.2905C323.7 80.3523 327.188 79.0878 330.614 77.497C334.082 75.9061 337.161 74.1725 339.854 72.2961H319.417C318.602 72.2961 317.888 72.0106 317.276 71.4395C316.664 70.8277 316.358 70.1138 316.358 69.298C316.358 68.4822 316.664 67.7684 317.276 67.1565C317.888 66.5447 318.602 66.2387 319.417 66.2387H328.106V64.4031C328.106 61.2623 328.881 59.0188 330.431 57.6727C331.981 56.3266 334.714 55.6535 338.63 55.6535H365.246C366.062 55.6535 366.735 55.9391 367.265 56.5101C367.836 57.0812 368.122 57.7746 368.122 58.5905C368.122 59.3655 367.836 60.0589 367.265 60.6708C366.735 61.2419 366.062 61.5274 365.246 61.5274H355.089V66.2387H370.08C370.895 66.2387 371.589 66.5447 372.16 67.1565C372.772 67.7684 373.078 68.4822 373.078 69.298C373.078 70.1138 372.772 70.8277 372.16 71.4395C371.589 72.0106 370.895 72.2961 370.08 72.2961H355.089V80.801C355.089 83.9827 354.334 86.2466 352.825 87.5927C351.316 88.9388 348.787 89.6118 345.238 89.6118ZM327.372 55.7147C326.474 56.0002 325.597 56.0206 324.741 55.7759C323.884 55.5312 323.272 54.9397 322.905 54.0015C322.62 53.1857 322.66 52.4107 323.027 51.6764C323.435 50.9014 324.149 50.3711 325.169 50.0856C327.331 49.4329 329.268 48.5763 330.982 47.5158C332.695 46.4552 334.184 45.1295 335.448 43.5387H328.045C326.617 43.5387 325.638 43.7834 325.108 44.2729C324.618 44.7624 324.374 45.721 324.374 47.1487C324.374 48.0868 324.027 48.8619 323.333 49.4737C322.681 50.0448 321.885 50.3303 320.947 50.3303C320.009 50.3303 319.193 50.0448 318.5 49.4737C317.847 48.8619 317.521 47.9849 317.521 46.8427C317.521 43.5387 318.275 41.234 319.785 39.9287C321.335 38.6234 324.047 37.9707 327.922 37.9707H340.833V35.095C340.833 33.9121 341.2 33.0147 341.934 32.4028C342.709 31.7502 343.627 31.4238 344.687 31.4238C345.748 31.4238 346.645 31.7502 347.379 32.4028C348.114 33.0147 348.481 33.9121 348.481 35.095V37.9707H361.513C365.389 37.9707 368.081 38.6234 369.59 39.9287C371.14 41.234 371.915 43.5387 371.915 46.8427C371.915 47.9849 371.568 48.8619 370.875 49.4737C370.222 50.0448 369.427 50.3303 368.489 50.3303C367.469 50.3303 366.633 50.004 365.98 49.3514C365.327 50.9014 364.267 52.0232 362.798 52.7166C361.371 53.3692 358.984 53.6956 355.64 53.6956C353.07 53.6956 351.091 53.4916 349.705 53.0837C348.318 52.635 347.339 51.8804 346.768 50.8198C346.237 49.7185 345.972 48.2296 345.972 46.3532V43.5387H341.934C342.015 44.3545 341.812 45.1091 341.322 45.8026C338.1 50.5343 333.449 53.8383 327.372 55.7147ZM335.02 66.2387H348.114V61.5274H338.936C337.345 61.5274 336.284 61.7517 335.754 62.2004C335.265 62.6491 335.02 63.5465 335.02 64.8926V66.2387ZM356.251 47.9441C357.475 47.9441 358.373 47.8421 358.944 47.6381C359.556 47.4342 360.045 46.9855 360.412 46.2921C360.861 45.5578 361.473 45.1091 362.248 44.946C363.064 44.7828 363.839 44.9052 364.573 45.3131L364.94 45.4966C364.777 44.7216 364.43 44.2117 363.9 43.967C363.369 43.6814 362.554 43.5387 361.452 43.5387H352.336V45.4966C352.336 46.5572 352.58 47.2302 353.07 47.5158C353.559 47.8013 354.62 47.9441 356.251 47.9441Z" fill="#1F1F1F"/>
<path d="M463.466 88.8164C461.1 88.8164 459.795 87.6946 459.55 85.4512C459.469 84.4722 459.713 83.6156 460.285 82.8813C460.856 82.1471 461.651 81.7188 462.671 81.5964C463.894 81.4333 464.71 81.1885 465.118 80.8622C465.526 80.4951 465.73 79.8016 465.73 78.7819V67.7072C465.2 67.8704 464.71 68.0539 464.262 68.2579C463.854 68.421 463.487 68.5638 463.16 68.6862C462.14 69.0941 461.141 69.1349 460.162 68.8085C459.224 68.4822 458.531 67.748 458.082 66.6058C457.755 65.5453 457.817 64.5867 458.265 63.7301C458.714 62.8327 459.489 62.2208 460.59 61.8945C461.325 61.6906 462.12 61.4458 462.977 61.1603C463.874 60.834 464.792 60.5076 465.73 60.1813V49.229H461.263C460.366 49.229 459.591 48.9231 458.938 48.3112C458.327 47.6585 458.021 46.8835 458.021 45.9861C458.021 45.0887 458.327 44.3341 458.938 43.7222C459.591 43.0696 460.366 42.7433 461.263 42.7433H465.73V35.3397C465.73 34.2792 466.056 33.443 466.709 32.8311C467.402 32.1785 468.218 31.8521 469.156 31.8521C470.095 31.8521 470.89 32.1785 471.543 32.8311C472.236 33.443 472.583 34.2792 472.583 35.3397V42.7433H475.887C476.54 42.7433 477.151 42.9268 477.723 43.2939C477.029 42.6821 476.682 41.9274 476.682 41.0301C476.682 40.1734 476.968 39.4596 477.539 38.8885C478.151 38.2767 478.885 37.9707 479.742 37.9707H484.881V35.8292C484.881 34.7687 485.208 33.9325 485.86 33.3206C486.554 32.668 487.37 32.3416 488.308 32.3416C489.246 32.3416 490.041 32.668 490.694 33.3206C491.387 33.9325 491.734 34.7687 491.734 35.8292V37.9707H500.055V35.8292C500.055 34.7687 500.382 33.9325 501.034 33.3206C501.728 32.668 502.544 32.3416 503.482 32.3416C504.42 32.3416 505.215 32.668 505.868 33.3206C506.562 33.9325 506.908 34.7687 506.908 35.8292V37.9707H512.293C513.149 37.9707 513.863 38.2767 514.434 38.8885C515.046 39.4596 515.352 40.1734 515.352 41.0301C515.352 41.8459 515.046 42.5597 514.434 43.1716C513.863 43.7834 513.149 44.0894 512.293 44.0894H506.908V46.598C506.908 47.6178 506.562 48.454 505.868 49.1066C505.215 49.7185 504.42 50.0244 503.482 50.0244C502.544 50.0244 501.728 49.7185 501.034 49.1066C500.382 48.454 500.055 47.6178 500.055 46.598V44.0894H491.734V46.598C491.734 47.6178 491.387 48.454 490.694 49.1066C490.041 49.7185 489.246 50.0244 488.308 50.0244C487.37 50.0244 486.554 49.7185 485.86 49.1066C485.208 48.454 484.881 47.6178 484.881 46.598V44.0894H479.742C479.13 44.0894 478.559 43.9058 478.028 43.5387C478.763 44.1913 479.13 45.0071 479.13 45.9861C479.13 46.8835 478.803 47.6585 478.151 48.3112C477.539 48.9231 476.784 49.229 475.887 49.229H472.583V57.4891L475.275 56.4489C476.213 56.041 477.07 56.0206 477.845 56.3878C478.661 56.7141 479.211 57.3056 479.497 58.1622C479.538 58.2029 479.558 58.2641 479.558 58.3457C479.558 58.4273 479.579 58.5089 479.619 58.5905C481.536 57.3667 483.352 56.0818 485.065 54.7357C486.778 53.3896 488.287 52.1455 489.593 51.0034C491.632 49.2086 493.59 48.2908 495.467 48.25C497.384 48.2092 499.505 49.1474 501.83 51.0646C502.931 51.962 504.175 52.9409 505.562 54.0015C506.99 55.0621 508.458 56.1022 509.968 57.122C511.477 58.1418 512.925 59.0596 514.312 59.8754C515.128 60.3241 515.678 61.0175 515.964 61.9557C516.249 62.8531 516.127 63.7301 515.597 64.5867C514.985 65.5249 514.149 66.0756 513.088 66.2387C512.068 66.4019 511.089 66.1775 510.151 65.5657C508.805 64.6683 507.398 63.6689 505.929 62.5676C506.092 62.8939 506.174 63.261 506.174 63.6689C506.174 64.4847 505.868 65.1986 505.256 65.8104C504.685 66.3815 503.971 66.667 503.115 66.667H487.084C486.268 66.667 485.554 66.3815 484.943 65.8104C484.331 65.1986 484.045 64.4847 484.086 63.6689V63.4853C483.474 63.8933 482.862 64.3012 482.25 64.7091C481.638 65.117 481.047 65.5045 480.476 65.8716C479.66 66.4019 478.742 66.6262 477.723 66.5447C476.703 66.4631 475.907 65.9328 475.336 64.9538C475.132 64.5867 474.99 64.1788 474.908 63.7301C474.541 63.8933 474.153 64.0564 473.745 64.2196C473.378 64.342 472.991 64.5051 472.583 64.7091V80.0668C472.583 83.0445 471.889 85.2472 470.503 86.6749C469.116 88.1026 466.77 88.8164 463.466 88.8164ZM491.979 87.8374C489.246 87.8374 487.084 87.5519 485.493 86.9808C483.943 86.4097 482.842 85.4512 482.189 84.1051C481.577 82.7998 481.271 81.005 481.271 78.7207C481.271 76.4364 481.577 74.6416 482.189 73.3363C482.842 71.9902 483.943 71.0316 485.493 70.4606C487.084 69.8895 489.246 69.604 491.979 69.604H499.382C502.156 69.604 504.318 69.8895 505.868 70.4606C507.418 71.0316 508.499 71.9902 509.111 73.3363C509.764 74.6416 510.09 76.4364 510.09 78.7207C510.09 81.005 509.764 82.7998 509.111 84.1051C508.499 85.4512 507.418 86.4097 505.868 86.9808C504.318 87.5519 502.156 87.8374 499.382 87.8374H491.979ZM492.346 82.0859H498.954C500.504 82.0859 501.524 81.882 502.013 81.4741C502.544 81.0254 502.809 80.1076 502.809 78.7207C502.809 77.3338 502.544 76.4364 502.013 76.0285C501.524 75.5798 500.504 75.3554 498.954 75.3554H492.346C490.837 75.3554 489.817 75.5798 489.287 76.0285C488.756 76.4364 488.491 77.3338 488.491 78.7207C488.491 80.1076 488.756 81.0254 489.287 81.4741C489.817 81.882 490.837 82.0859 492.346 82.0859ZM503.482 60.6708C502.462 59.8142 501.442 58.9576 500.423 58.101C499.403 57.2444 498.485 56.4286 497.669 55.6535C496.894 54.9193 496.221 54.5522 495.65 54.5522C495.12 54.5522 494.488 54.9193 493.753 55.6535C492.937 56.4286 492.02 57.2444 491 58.101C490.021 58.9168 489.001 59.753 487.941 60.6096H503.115C503.278 60.6096 503.4 60.63 503.482 60.6708Z" fill="#1F1F1F"/>
</svg>
