<svg width="70" height="615" viewBox="0 0 70 615" fill="none" xmlns="http://www.w3.org/2000/svg">
<circle cx="34.9924" cy="35.3015" r="32.8178" stroke="#1F1F1F" stroke-width="3.28178"/>
<path d="M38.7587 50.3319C35.4376 50.3319 32.6699 50.1033 30.4558 49.646C28.2417 49.1888 26.4728 48.3705 25.1492 47.1913C24.8363 47.4079 24.4392 47.6846 23.9579 48.0216C23.4766 48.3585 23.0073 48.6713 22.55 48.9601C22.0928 49.273 21.7558 49.5137 21.5392 49.6821C21.082 49.995 20.5525 50.0913 19.9508 49.9709C19.3492 49.8747 18.904 49.5618 18.6152 49.0323C18.3504 48.551 18.2782 48.0336 18.3986 47.4801C18.543 46.9265 18.8799 46.5294 19.4094 46.2888C19.7703 46.0962 20.2757 45.8315 20.9255 45.4946C21.5753 45.1576 22.165 44.8568 22.6944 44.5921V36.2892C22.6944 35.7357 22.5981 35.3506 22.4056 35.134C22.2372 34.9174 21.8641 34.8091 21.2865 34.8091H20.0591C19.5056 34.8091 19.0604 34.6286 18.7235 34.2676C18.3865 33.9066 18.2181 33.4734 18.2181 32.968C18.2181 32.4626 18.3865 32.0415 18.7235 31.7045C19.0604 31.3435 19.5056 31.163 20.0591 31.163H22.8388C25.2936 31.163 26.521 32.3904 26.521 34.8452V43.9784C26.882 44.3635 27.3031 44.7124 27.7845 45.0253C28.2658 45.3141 28.8073 45.5668 29.4089 45.7834C29.3608 45.6871 29.3127 45.6149 29.2645 45.5668C29.0479 45.0855 29.0239 44.6162 29.1923 44.1589C29.3608 43.7016 29.7098 43.3527 30.2392 43.112C30.7928 42.8713 31.4065 42.5705 32.0803 42.2095C32.7782 41.8485 33.428 41.4875 34.0297 41.1265H28.9035C28.4704 41.1265 28.1214 40.9821 27.8567 40.6933C27.616 40.3805 27.4957 40.0315 27.4957 39.6464C27.4957 39.2373 27.616 38.8884 27.8567 38.5996C28.1214 38.3108 28.4704 38.1664 28.9035 38.1664H33.2716V36.1087H29.8421C29.4571 36.1087 29.1201 35.9643 28.8313 35.6755C28.5425 35.3626 28.3982 35.0137 28.3982 34.6286C28.3982 34.2195 28.5185 33.8705 28.7591 33.5817C29.0239 33.2688 29.3849 33.1124 29.8421 33.1124H33.2716V31.0186H32.1886C30.6965 31.0186 29.6135 30.7419 28.9396 30.1883C28.2899 29.6108 27.965 28.5398 27.965 26.9755C27.965 25.4834 28.2658 24.4726 28.8674 23.9431C29.4691 23.4137 30.5521 23.1489 32.1164 23.1489H32.9828C33.5123 23.1489 33.8492 23.1008 33.9936 23.0045C34.1621 22.8842 34.2463 22.6435 34.2463 22.2825C34.2463 21.9215 34.1621 21.6929 33.9936 21.5966C33.8492 21.5004 33.5123 21.4522 32.9828 21.4522H29.084C28.6268 21.4522 28.2538 21.3078 27.965 21.019C27.7002 20.7062 27.5679 20.3452 27.5679 19.9361C27.5679 19.5269 27.7002 19.178 27.965 18.8892C28.2538 18.5763 28.6268 18.4199 29.084 18.4199H33.5965C35.1367 18.4199 36.2077 18.6966 36.8094 19.2502C37.411 19.7796 37.7118 20.7543 37.7118 22.1742C37.7118 23.6182 37.411 24.617 36.8094 25.1705C36.2077 25.7 35.1367 25.9647 33.5965 25.9647H32.8384C32.3571 25.9647 32.0201 26.0369 31.8276 26.1813C31.6591 26.3016 31.5749 26.5664 31.5749 26.9755C31.5749 27.4327 31.6712 27.7215 31.8637 27.8419C32.0803 27.9381 32.4293 27.9863 32.9106 27.9863H33.777C34.3305 27.9863 34.7156 27.902 34.9322 27.7336C35.1728 27.5651 35.4015 27.2883 35.6181 26.9033C35.8106 26.5664 36.1235 26.3377 36.5567 26.2174C36.9899 26.073 37.4351 26.0971 37.8923 26.2896C38.3737 26.4821 38.6745 26.783 38.7948 27.1921C38.9392 27.5771 38.9392 27.9742 38.7948 28.3834C38.4338 29.5145 37.8442 30.2485 37.026 30.5854V33.1124H41.0691V30.5854C40.5156 30.3207 40.1065 29.8996 39.8417 29.322C39.577 28.7444 39.4446 27.9622 39.4446 26.9755C39.4446 25.4834 39.7455 24.4726 40.3471 23.9431C40.9488 23.4137 42.0318 23.1489 43.5961 23.1489H44.8596C45.389 23.1489 45.726 23.1008 45.8704 23.0045C46.0388 22.8842 46.1231 22.6435 46.1231 22.2825C46.1231 21.9215 46.0388 21.6929 45.8704 21.5966C45.726 21.5004 45.389 21.4522 44.8596 21.4522H40.5637C40.1065 21.4522 39.7334 21.3078 39.4446 21.019C39.1799 20.7062 39.0475 20.3452 39.0475 19.9361C39.0475 19.5269 39.1799 19.178 39.4446 18.8892C39.7334 18.5763 40.1065 18.4199 40.5637 18.4199H45.4733C47.0135 18.4199 48.0845 18.6966 48.6861 19.2502C49.2878 19.7796 49.5886 20.7543 49.5886 22.1742C49.5886 23.6182 49.2878 24.617 48.6861 25.1705C48.0845 25.7 47.0135 25.9647 45.4733 25.9647H44.3181C43.8367 25.9647 43.5118 26.0369 43.3434 26.1813C43.1749 26.3016 43.0907 26.5664 43.0907 26.9755C43.0907 27.4327 43.187 27.7215 43.3795 27.8419C43.572 27.9381 43.921 27.9863 44.4264 27.9863H45.6538C46.2073 27.9863 46.5923 27.902 46.8089 27.7336C47.0496 27.5651 47.2782 27.2883 47.4948 26.9033C47.6874 26.5664 48.0002 26.3377 48.4334 26.2174C48.8666 26.073 49.3119 26.0971 49.7691 26.2896C50.2504 26.4821 50.5513 26.783 50.6716 27.1921C50.816 27.5771 50.828 27.9742 50.7077 28.3834C50.3708 29.4182 49.8533 30.1161 49.1554 30.4771C48.4575 30.8381 47.4106 31.0186 46.0148 31.0186H44.8596V33.1124H49.0832C49.5405 33.1124 49.8894 33.2688 50.1301 33.5817C50.3948 33.8705 50.5272 34.2195 50.5272 34.6286C50.5272 35.0137 50.3948 35.3626 50.1301 35.6755C49.8894 35.9643 49.5405 36.1087 49.0832 36.1087H44.8596V38.1664H50.0579C50.5152 38.1664 50.8641 38.3108 51.1048 38.5996C51.3455 38.8884 51.4658 39.2373 51.4658 39.6464C51.4658 40.0315 51.3455 40.3805 51.1048 40.6933C50.8641 40.9821 50.5152 41.1265 50.0579 41.1265H43.8127C44.4143 41.4875 45.0641 41.8485 45.7621 42.2095C46.46 42.5705 47.0737 42.8713 47.6031 43.112C48.1567 43.3527 48.5056 43.7016 48.65 44.1589C48.8185 44.6162 48.7944 45.0855 48.5778 45.5668C48.3372 46.0481 47.9401 46.3489 47.3865 46.4693C46.833 46.5896 46.2795 46.5294 45.726 46.2888C44.9799 45.9518 44.1857 45.5307 43.3434 45.0253C42.5251 44.4958 41.7791 43.9904 41.1052 43.5091C40.6961 43.2444 40.4434 42.8713 40.3471 42.39C40.2509 41.9087 40.3471 41.4875 40.6359 41.1265H37.2426C37.5073 41.4875 37.5915 41.9087 37.4953 42.39C37.4231 42.8713 37.1824 43.2444 36.7733 43.5091C36.0994 43.9904 35.3413 44.4958 34.499 45.0253C33.6567 45.5307 32.8625 45.9518 32.1164 46.2888C32.0201 46.3369 31.9479 46.361 31.8998 46.361C33.6807 46.6498 35.967 46.7942 38.7587 46.7942C40.0824 46.7942 41.4181 46.7821 42.7658 46.7581C44.1376 46.734 45.4251 46.6979 46.6284 46.6498C47.8558 46.5776 48.8907 46.5174 49.733 46.4693C50.4309 46.4211 50.9965 46.5655 51.4297 46.9025C51.887 47.2153 52.1156 47.6846 52.1156 48.3103C52.1156 48.912 51.9231 49.3933 51.538 49.7543C51.177 50.1153 50.5994 50.2958 49.8052 50.2958C49.0592 50.2958 48.1807 50.2958 47.1699 50.2958C46.1592 50.3199 45.1243 50.3319 44.0654 50.3319C43.0065 50.3319 42.0077 50.3319 41.0691 50.3319C40.1305 50.3319 39.3604 50.3319 38.7587 50.3319ZM26.2322 25.6398C25.823 26.0249 25.3417 26.2174 24.7882 26.2174C24.2347 26.2174 23.7774 26.0008 23.4164 25.5676C22.9591 25.0141 22.3816 24.4004 21.6836 23.7265C20.9857 23.0286 20.36 22.451 19.8064 21.9937C19.4214 21.6568 19.2409 21.2356 19.265 20.7303C19.289 20.2008 19.4816 19.7435 19.8425 19.3585C20.2035 18.9975 20.6367 18.7929 21.1421 18.7448C21.6716 18.6726 22.1529 18.829 22.5861 19.2141C23.2118 19.7435 23.8857 20.3452 24.6077 21.019C25.3297 21.6929 25.9193 22.2705 26.3766 22.7518C26.7857 23.161 26.9662 23.6423 26.9181 24.1958C26.894 24.7493 26.6654 25.2307 26.2322 25.6398ZM37.026 38.1664H41.0691V36.1087H37.026V38.1664Z" fill="#1F1F1F"/>
<g clip-path="url(#clip0_88_63324)">
<path d="M16.4615 526.616C7.82981 515.149 7.82981 499.143 16.4615 487.677C23.8976 477.786 23.8976 463.955 16.4615 454.065C7.82981 442.598 7.82981 426.592 16.4615 415.125C23.8976 405.235 23.8976 391.403 16.4615 381.513C7.82981 370.047 7.82981 354.041 16.4615 342.574C23.8976 332.684 23.8976 318.852 16.4615 308.962C7.82981 297.495 7.82981 281.49 16.4615 270.023C23.8976 260.133 23.8976 246.301 16.4615 236.411C7.82981 224.944 7.82981 208.938 16.4615 197.472C23.8976 187.582 23.8976 173.75 16.4615 163.86C7.82981 152.393 7.82981 136.387 16.4615 124.92C23.8976 115.03 23.8976 101.199 16.4615 91.3084L20.0002 88.6567C28.6319 100.124 28.6319 116.129 20.0002 127.596C12.5641 137.486 12.5641 151.318 20.0002 161.208C28.6319 172.675 28.6319 188.68 20.0002 200.147C12.5641 210.037 12.5641 223.869 20.0002 233.759C28.6319 245.226 28.6319 261.232 20.0002 272.698C12.5641 282.589 12.5641 296.42 20.0002 306.31C28.6319 317.777 28.6319 333.783 20.0002 345.25C12.5641 355.14 12.5641 368.972 20.0002 378.862C28.6319 390.328 28.6319 406.334 20.0002 417.801C12.5641 427.691 12.5641 441.523 20.0002 451.413C28.6319 462.88 28.6319 478.885 20.0002 490.352C12.5641 500.242 12.5641 514.074 20.0002 523.964L16.4615 526.616Z" fill="#1F1F1F"/>
<path d="M33.223 526.616C24.5913 515.149 24.5913 499.143 33.223 487.677C40.6592 477.786 40.6592 463.955 33.223 454.065C24.5913 442.598 24.5913 426.592 33.223 415.125C40.6592 405.235 40.6592 391.403 33.223 381.513C24.5913 370.047 24.5913 354.041 33.223 342.574C40.6592 332.684 40.6592 318.852 33.223 308.962C24.5913 297.495 24.5913 281.49 33.223 270.023C40.6592 260.133 40.6592 246.301 33.223 236.411C24.5913 224.944 24.5913 208.938 33.223 197.472C40.6592 187.582 40.6592 173.75 33.223 163.86C24.5913 152.393 24.5913 136.387 33.223 124.92C40.6592 115.03 40.6592 101.199 33.223 91.3084L36.7618 88.6567C45.3935 100.124 45.3935 116.129 36.7618 127.596C29.3256 137.486 29.3256 151.318 36.7618 161.208C45.3935 172.675 45.3935 188.68 36.7618 200.147C29.3256 210.037 29.3256 223.869 36.7618 233.759C45.3935 245.226 45.3935 261.232 36.7618 272.698C29.3256 282.589 29.3256 296.42 36.7618 306.31C45.3935 317.777 45.3935 333.783 36.7618 345.25C29.3256 355.14 29.3256 368.972 36.7618 378.862C45.3935 390.328 45.3935 406.334 36.7618 417.801C29.3256 427.691 29.3256 441.523 36.7618 451.413C45.3935 462.88 45.3935 478.885 36.7618 490.352C29.3256 500.242 29.3256 514.074 36.7618 523.964L33.223 526.616Z" fill="#1F1F1F"/>
<path d="M51.2248 523.603L50.3523 524.257C43.1454 513.504 43.4668 499.107 51.3164 488.679L51.3169 488.679C59.1993 478.195 59.1993 463.546 51.3169 453.063L51.3164 453.062C43.1317 442.189 43.1317 427.001 51.3164 416.128L51.3169 416.127C59.1993 405.644 59.1993 390.995 51.3169 380.511L51.3164 380.511C43.1317 369.638 43.1317 354.45 51.3164 343.577L51.3169 343.576C59.1993 333.093 59.1993 318.444 51.3169 307.96L51.3164 307.959C43.1317 297.086 43.1317 281.899 51.3164 271.026L51.3169 271.025C59.1993 260.541 59.1993 245.892 51.3169 235.409L51.3164 235.408C43.1317 224.535 43.1317 209.347 51.3164 198.474L51.3169 198.474C59.1993 187.99 59.1993 173.341 51.3169 162.858L51.3164 162.857C43.1317 151.984 43.1317 136.796 51.3164 125.923L51.3169 125.922C58.8632 115.886 59.185 102.032 52.2825 91.6698L53.155 91.016C60.3619 101.769 60.0405 116.165 52.1909 126.593L52.1903 126.594C44.3079 137.078 44.3079 151.726 52.1903 162.21L52.1909 162.211C60.3756 173.084 60.3756 188.271 52.1909 199.144L52.1903 199.145C44.3079 209.629 44.3079 224.278 52.1903 234.761L52.1909 234.762C60.3756 245.635 60.3756 260.823 52.1909 271.696L52.1903 271.696C44.3079 282.18 44.3079 296.829 52.1903 307.312L52.1909 307.313C60.3756 318.186 60.3756 333.374 52.1909 344.247L52.1903 344.248C44.3079 354.731 44.3079 369.38 52.1903 379.864L52.1909 379.864C60.3756 390.737 60.3756 405.925 52.1909 416.798L52.1903 416.799C44.3079 427.282 44.3079 441.931 52.1903 452.415L52.1909 452.416C60.3756 463.289 60.3756 478.476 52.1909 489.349L52.1903 489.35C44.6441 499.387 44.3223 513.241 51.2248 523.603Z" fill="#1F1F1F" stroke="#1F1F1F" stroke-width="3.33471"/>
</g>
<circle cx="34.9924" cy="579.971" r="32.8178" stroke="#1F1F1F" stroke-width="3.28178"/>
<path d="M26.8459 595.832C26.2683 595.832 25.7749 595.651 25.3658 595.29C24.9807 594.929 24.7882 594.436 24.7882 593.81V584.208C24.0662 584.472 23.3923 584.725 22.7666 584.966C22.1409 585.206 21.5994 585.399 21.1421 585.543C20.5405 585.76 19.9629 585.736 19.4094 585.471C18.8799 585.182 18.5189 584.737 18.3264 584.135C18.1579 583.51 18.194 582.944 18.4347 582.439C18.6753 581.933 19.1206 581.596 19.7703 581.428C20.4201 581.235 21.1903 580.995 22.0807 580.706C22.9712 580.417 23.8737 580.116 24.7882 579.803V573.269H22.5861C22.4899 573.823 22.3816 574.364 22.2612 574.894C22.1409 575.399 22.0206 575.881 21.9002 576.338C21.7558 576.94 21.467 577.373 21.0338 577.637C20.6247 577.902 20.1434 577.986 19.5898 577.89C19.0845 577.794 18.6753 577.541 18.3625 577.132C18.0737 576.723 18.0135 576.254 18.182 575.724C18.5189 574.569 18.8318 573.245 19.1206 571.753C19.4334 570.261 19.638 568.853 19.7342 567.53C19.7824 566.976 19.999 566.555 20.384 566.266C20.7691 565.977 21.2264 565.857 21.7558 565.905C22.2853 565.929 22.7064 566.122 23.0193 566.483C23.3322 566.844 23.4645 567.313 23.4164 567.891C23.3923 568.131 23.3683 568.384 23.3442 568.649C23.3201 568.913 23.284 569.178 23.2359 569.443H24.7882V564.208C24.7882 563.583 24.9807 563.089 25.3658 562.728C25.7749 562.343 26.2683 562.151 26.8459 562.151C27.4235 562.151 27.9048 562.343 28.2899 562.728C28.6749 563.089 28.8674 563.583 28.8674 564.208V569.443H30.2392C30.8168 569.443 31.2741 569.635 31.611 570.02C31.9479 570.381 32.1164 570.827 32.1164 571.356V571.537C32.6699 570.309 33.1753 569.034 33.6326 567.71C34.0899 566.362 34.4629 565.099 34.7517 563.92C34.8961 563.342 35.2089 562.933 35.6903 562.692C36.1716 562.452 36.689 562.391 37.2426 562.512C37.772 562.632 38.1571 562.909 38.3977 563.342C38.6625 563.751 38.7347 564.232 38.6143 564.786C38.4459 565.484 38.2413 566.206 38.0006 566.952C37.784 567.674 37.5434 568.42 37.2787 569.19H44.0654C45.7982 569.19 47.182 569.395 48.2168 569.804C49.2517 570.213 49.9977 570.911 50.455 571.898C50.9123 572.884 51.1168 574.256 51.0687 576.013C51.0206 578.275 50.8882 580.549 50.6716 582.836C50.4791 585.098 50.2504 587.059 49.9857 588.72C49.721 590.405 49.2998 591.74 48.7222 592.727C48.1446 593.714 47.3384 594.412 46.3036 594.821C45.2928 595.254 43.9691 595.495 42.3326 595.543C41.6587 595.567 41.0932 595.423 40.6359 595.11C40.1787 594.797 39.9139 594.303 39.8417 593.63C39.7695 592.98 39.9139 592.438 40.2749 592.005C40.6359 591.572 41.1533 591.331 41.8272 591.283C42.8621 591.211 43.6322 591.091 44.1376 590.922C44.667 590.73 45.0521 590.417 45.2928 589.984C45.5334 589.55 45.738 588.901 45.9065 588.034C46.0268 587.408 46.1471 586.626 46.2675 585.688C46.3878 584.749 46.5081 583.738 46.6284 582.655C46.7488 581.548 46.845 580.441 46.9172 579.334C47.0135 578.227 47.0737 577.192 47.0977 576.23C47.1218 574.81 46.7608 573.859 46.0148 573.378C45.4131 578.215 44.1135 582.27 42.116 585.543C40.1185 588.816 37.4712 591.488 34.1741 593.557C33.6446 593.894 33.067 594.015 32.4413 593.918C31.8396 593.846 31.3824 593.545 31.0695 593.016C30.7807 592.535 30.6965 592.041 30.8168 591.536C30.9612 591.006 31.2861 590.597 31.7915 590.308C37.6637 586.843 41.2135 581.031 42.4409 572.872H40.7803C40.3231 575.688 39.4206 578.323 38.0728 580.778C36.7492 583.233 35.0766 585.303 33.055 586.987C32.5977 587.348 32.0803 587.505 31.5027 587.457C30.9492 587.384 30.4919 587.132 30.1309 586.698C29.794 586.289 29.6616 585.82 29.7338 585.291C29.806 584.761 30.0467 584.34 30.4558 584.027C32.2367 582.727 33.6928 581.079 34.8239 579.081C35.955 577.084 36.7492 575.014 37.2065 572.872H35.7625C35.4737 573.546 35.1728 574.184 34.86 574.786C34.5471 575.387 34.2222 575.965 33.8853 576.518C33.6206 576.976 33.2235 577.301 32.694 577.493C32.1645 577.662 31.6591 577.625 31.1778 577.385C30.7206 577.144 30.4077 576.783 30.2392 576.302C30.0948 575.796 30.155 575.327 30.4197 574.894C30.6123 574.557 30.8048 574.22 30.9973 573.883C31.1899 573.522 31.3704 573.149 31.5388 572.764C31.3704 572.908 31.1778 573.029 30.9612 573.125C30.7446 573.221 30.504 573.269 30.2392 573.269H28.8674V578.396L30.167 577.926C30.6724 577.734 31.1417 577.746 31.5749 577.962C32.0322 578.155 32.3571 578.492 32.5496 578.973C32.7421 579.454 32.7542 579.948 32.5857 580.453C32.4172 580.935 32.0562 581.296 31.5027 581.536C31.1899 581.681 30.8048 581.849 30.3475 582.042C29.8903 582.21 29.3969 582.403 28.8674 582.619V593.81C28.8674 594.436 28.6749 594.929 28.2899 595.29C27.9048 595.651 27.4235 595.832 26.8459 595.832Z" fill="#1F1F1F"/>
<defs>
<clipPath id="clip0_88_63324">
<rect width="50.0207" height="437.959" fill="white" transform="translate(9.98206 88.6567)"/>
</clipPath>
</defs>
</svg>
