<svg width="70" height="615" viewBox="0 0 70 615" fill="none" xmlns="http://www.w3.org/2000/svg">
<circle cx="34.896" cy="35.3015" r="32.8178" stroke="#1F1F1F" stroke-width="3.28178"/>
<path d="M19.9267 50.007C19.4213 50.007 19.0242 49.8506 18.7354 49.5377C18.4707 49.2249 18.3383 48.8518 18.3383 48.4186C18.3383 47.9614 18.4707 47.5884 18.7354 47.2996C19.0242 46.9867 19.4213 46.8303 19.9267 46.8303H33.0669V45.1697H22.9229C22.4657 45.1697 22.1047 45.0253 21.8399 44.7365C21.5993 44.4477 21.479 44.1108 21.479 43.7257C21.479 43.3406 21.5993 43.0157 21.8399 42.751C22.1047 42.4622 22.4657 42.3178 22.9229 42.3178H33.0669V40.8016H29.5292C27.6761 40.8016 26.2561 40.6452 25.2694 40.3323C24.3068 39.9954 23.6449 39.3937 23.2839 38.5274C22.947 37.661 22.7785 36.3975 22.7785 34.7369C22.7785 33.1004 22.947 31.8489 23.2839 30.9825C23.6449 30.1161 24.3068 29.5265 25.2694 29.2137C26.2561 28.8767 27.6761 28.7083 29.5292 28.7083H33.0669V27.1199H20.3599C19.8785 27.1199 19.4935 26.9635 19.2047 26.6506C18.9399 26.3137 18.8076 25.9406 18.8076 25.5315C18.8076 25.0983 18.9399 24.7253 19.2047 24.4124C19.4935 24.0755 19.8785 23.907 20.3599 23.907H33.0669V22.3908C31.5507 22.463 30.0586 22.5232 28.5906 22.5713C27.1225 22.5954 25.7387 22.6074 24.4391 22.6074C23.8375 22.6074 23.3321 22.463 22.9229 22.1742C22.5138 21.8614 22.2852 21.4161 22.237 20.8386C22.213 20.3091 22.3814 19.8759 22.7424 19.539C23.1034 19.178 23.5727 19.0095 24.1503 19.0336C25.7387 19.0817 27.4835 19.0817 29.3848 19.0336C31.286 18.9854 33.2113 18.9012 35.1607 18.7809C37.1101 18.6605 38.9512 18.5161 40.6839 18.3477C42.4167 18.1551 43.9088 17.9506 45.1603 17.734C45.786 17.6137 46.3275 17.6979 46.7848 17.9867C47.242 18.2514 47.5188 18.6605 47.6151 19.2141C47.7113 19.6954 47.603 20.1527 47.2902 20.5859C47.0014 20.995 46.5321 21.2477 45.8823 21.3439C44.703 21.5124 43.3794 21.6688 41.9113 21.8132C40.4673 21.9336 38.9512 22.0539 37.3628 22.1742V23.907H49.9254C50.4068 23.907 50.7798 24.0755 51.0445 24.4124C51.3333 24.7253 51.4777 25.0983 51.4777 25.5315C51.4777 25.9406 51.3333 26.3137 51.0445 26.6506C50.7798 26.9635 50.4068 27.1199 49.9254 27.1199H37.3628V28.7083H40.8283C42.6815 28.7083 44.0893 28.8767 45.052 29.2137C46.0387 29.5265 46.7005 30.1161 47.0375 30.9825C47.3985 31.8489 47.579 33.1004 47.579 34.7369C47.579 36.3975 47.3985 37.661 47.0375 38.5274C46.7005 39.3937 46.0387 39.9954 45.052 40.3323C44.0893 40.6452 42.6815 40.8016 40.8283 40.8016H37.3628V42.3178H47.5068C47.964 42.3178 48.313 42.4622 48.5537 42.751C48.7943 43.0157 48.9146 43.3406 48.9146 43.7257C48.9146 44.1108 48.7943 44.4477 48.5537 44.7365C48.313 45.0253 47.964 45.1697 47.5068 45.1697H37.3628V46.8303H50.5391C51.0445 46.8303 51.4296 46.9867 51.6943 47.2996C51.9831 47.5884 52.1275 47.9614 52.1275 48.4186C52.1275 48.8518 51.9831 49.2249 51.6943 49.5377C51.4296 49.8506 51.0445 50.007 50.5391 50.007H19.9267ZM29.8902 37.8776H33.0669V36.1087H27.1827C27.2549 36.8547 27.4715 37.3361 27.8325 37.5527C28.1935 37.7693 28.8794 37.8776 29.8902 37.8776ZM37.3628 37.8776H40.4673C41.5022 37.8776 42.2001 37.7693 42.5611 37.5527C42.9221 37.3361 43.1387 36.8547 43.2109 36.1087H37.3628V37.8776ZM27.1827 33.329H33.0669V31.6323H29.8902C28.8794 31.6323 28.1935 31.7286 27.8325 31.9211C27.4715 32.1137 27.2549 32.583 27.1827 33.329ZM37.3628 33.329H43.2109C43.1387 32.583 42.9101 32.1137 42.525 31.9211C42.164 31.7286 41.4781 31.6323 40.4673 31.6323H37.3628V33.329Z" fill="#1F1F1F"/>
<g clip-path="url(#clip0_88_63335)">
<path d="M16.3651 526.616C7.73344 515.149 7.73344 499.143 16.3651 487.677C23.8013 477.786 23.8013 463.955 16.3651 454.065C7.73344 442.598 7.73344 426.592 16.3651 415.125C23.8013 405.235 23.8013 391.403 16.3651 381.513C7.73344 370.047 7.73344 354.041 16.3651 342.574C23.8013 332.684 23.8013 318.852 16.3651 308.962C7.73344 297.495 7.73344 281.49 16.3651 270.023C23.8013 260.133 23.8013 246.301 16.3651 236.411C7.73344 224.944 7.73344 208.938 16.3651 197.472C23.8013 187.582 23.8013 173.75 16.3651 163.86C7.73344 152.393 7.73344 136.387 16.3651 124.92C23.8013 115.03 23.8013 101.199 16.3651 91.3084L19.9039 88.6567C28.5355 100.124 28.5355 116.129 19.9039 127.596C12.4677 137.486 12.4677 151.318 19.9039 161.208C28.5355 172.675 28.5355 188.68 19.9039 200.147C12.4677 210.037 12.4677 223.869 19.9039 233.759C28.5355 245.226 28.5355 261.232 19.9039 272.698C12.4677 282.589 12.4677 296.42 19.9039 306.31C28.5355 317.777 28.5355 333.783 19.9039 345.25C12.4677 355.14 12.4677 368.972 19.9039 378.862C28.5355 390.328 28.5355 406.334 19.9039 417.801C12.4677 427.691 12.4677 441.523 19.9039 451.413C28.5355 462.88 28.5355 478.885 19.9039 490.352C12.4677 500.242 12.4677 514.074 19.9039 523.964L16.3651 526.616Z" fill="#1F1F1F"/>
<path d="M33.1266 526.616C24.4949 515.149 24.4949 499.143 33.1266 487.677C40.5627 477.786 40.5627 463.955 33.1266 454.065C24.4949 442.598 24.4949 426.592 33.1266 415.125C40.5627 405.235 40.5627 391.403 33.1266 381.513C24.4949 370.047 24.4949 354.041 33.1266 342.574C40.5627 332.684 40.5627 318.852 33.1266 308.962C24.4949 297.495 24.4949 281.49 33.1266 270.023C40.5627 260.133 40.5627 246.301 33.1266 236.411C24.4949 224.944 24.4949 208.938 33.1266 197.472C40.5627 187.582 40.5627 173.75 33.1266 163.86C24.4949 152.393 24.4949 136.387 33.1266 124.92C40.5627 115.03 40.5627 101.199 33.1266 91.3084L36.6653 88.6567C45.297 100.124 45.297 116.129 36.6653 127.596C29.2292 137.486 29.2292 151.318 36.6653 161.208C45.297 172.675 45.297 188.68 36.6653 200.147C29.2292 210.037 29.2292 223.869 36.6653 233.759C45.297 245.226 45.297 261.232 36.6653 272.698C29.2292 282.589 29.2292 296.42 36.6653 306.31C45.297 317.777 45.297 333.783 36.6653 345.25C29.2292 355.14 29.2292 368.972 36.6653 378.862C45.297 390.328 45.297 406.334 36.6653 417.801C29.2292 427.691 29.2292 441.523 36.6653 451.413C45.297 462.88 45.297 478.885 36.6653 490.352C29.2292 500.242 29.2292 514.074 36.6653 523.964L33.1266 526.616Z" fill="#1F1F1F"/>
<path d="M51.1284 523.603L50.2559 524.257C43.049 513.504 43.3704 499.107 51.22 488.679L51.2206 488.679C59.103 478.195 59.103 463.546 51.2206 453.063L51.22 453.062C43.0353 442.189 43.0353 427.001 51.22 416.128L51.2206 416.127C59.103 405.644 59.103 390.995 51.2206 380.511L51.22 380.511C43.0353 369.638 43.0353 354.45 51.22 343.577L51.2206 343.576C59.103 333.093 59.103 318.444 51.2206 307.96L51.22 307.959C43.0353 297.086 43.0353 281.899 51.22 271.026L51.2206 271.025C59.103 260.541 59.103 245.892 51.2206 235.409L51.22 235.408C43.0353 224.535 43.0353 209.347 51.22 198.474L51.2206 198.474C59.103 187.99 59.103 173.341 51.2206 162.858L51.22 162.857C43.0353 151.984 43.0353 136.796 51.22 125.923L51.2206 125.922C58.7668 115.886 59.0886 102.032 52.1861 91.6698L53.0586 91.016C60.2655 101.769 59.9441 116.165 52.0945 126.593L52.094 126.594C44.2116 137.078 44.2116 151.726 52.094 162.21L52.0945 162.211C60.2792 173.084 60.2792 188.271 52.0945 199.144L52.094 199.145C44.2116 209.629 44.2116 224.278 52.094 234.761L52.0945 234.762C60.2792 245.635 60.2792 260.823 52.0945 271.696L52.094 271.696C44.2116 282.18 44.2116 296.829 52.094 307.312L52.0945 307.313C60.2792 318.186 60.2792 333.374 52.0945 344.247L52.094 344.248C44.2116 354.731 44.2116 369.38 52.094 379.864L52.0945 379.864C60.2792 390.737 60.2792 405.925 52.0945 416.798L52.094 416.799C44.2116 427.282 44.2116 441.931 52.094 452.415L52.0945 452.416C60.2792 463.289 60.2792 478.476 52.0945 489.349L52.094 489.35C44.5477 499.387 44.2259 513.241 51.1284 523.603Z" fill="#1F1F1F" stroke="#1F1F1F" stroke-width="3.33471"/>
</g>
<circle cx="34.896" cy="579.971" r="32.8178" stroke="#1F1F1F" stroke-width="3.28178"/>
<path d="M20.1433 587.637C19.6619 587.661 19.2528 587.541 18.9159 587.276C18.603 587.011 18.4225 586.626 18.3744 586.121C18.3263 585.591 18.4466 585.17 18.7354 584.857C19.0482 584.52 19.4213 584.34 19.8545 584.316C20.6246 584.268 21.5271 584.22 22.5619 584.171C23.5968 584.099 24.6678 584.027 25.7748 583.955V581.608H20.9375C20.4802 581.608 20.1192 581.464 19.8545 581.175C19.5897 580.886 19.4574 580.537 19.4574 580.128C19.4574 579.719 19.5897 579.37 19.8545 579.081C20.1192 578.793 20.4802 578.648 20.9375 578.648H25.7748V576.482H24.4391C22.5138 576.482 21.1781 576.133 20.4321 575.435C19.686 574.737 19.313 573.486 19.313 571.681V568.396C19.313 566.567 19.686 565.315 20.4321 564.642C21.1781 563.944 22.5138 563.595 24.4391 563.595H30.6122C32.5375 563.595 33.8731 563.944 34.6192 564.642C35.3653 565.315 35.7383 566.567 35.7383 568.396V571.681C35.7383 573.486 35.3653 574.737 34.6192 575.435C33.8731 576.133 32.5375 576.482 30.6122 576.482H29.1682V578.648H33.825C34.3063 578.648 34.6673 578.793 34.908 579.081C35.1727 579.37 35.3051 579.719 35.3051 580.128C35.3051 580.537 35.1727 580.886 34.908 581.175C34.6673 581.464 34.3063 581.608 33.825 581.608H29.1682V583.738C30.2512 583.666 31.286 583.594 32.2727 583.522C33.2835 583.425 34.1619 583.353 34.908 583.305C35.3171 583.281 35.6541 583.413 35.9188 583.702C36.1835 583.967 36.3279 584.304 36.352 584.713C36.4001 585.122 36.2918 585.483 36.0271 585.796C35.7864 586.109 35.4495 586.289 35.0163 586.337C34.1258 586.434 33.0429 586.542 31.7673 586.662C30.4918 586.783 29.1441 586.903 27.7242 587.023C26.3283 587.144 24.9686 587.264 23.6449 587.384C22.3213 587.481 21.1541 587.565 20.1433 587.637ZM44.0051 594.568C42.3205 594.568 40.9727 594.364 39.9619 593.954C38.9752 593.569 38.2532 592.908 37.796 591.969C37.3628 591.006 37.1462 589.695 37.1462 588.034V586.085C37.1462 584.087 37.4711 582.607 38.1209 581.645C38.7707 580.658 39.8657 580.032 41.4059 579.767V564.425C41.4059 563.823 41.5864 563.354 41.9474 563.017C42.3325 562.656 42.7897 562.476 43.3192 562.476C43.8727 562.476 44.33 562.656 44.691 563.017C45.0761 563.354 45.2686 563.823 45.2686 564.425V570.093H50.5391C51.0927 570.093 51.5259 570.273 51.8387 570.634C52.1756 570.995 52.3441 571.428 52.3441 571.934C52.3441 572.415 52.1756 572.836 51.8387 573.197C51.5259 573.558 51.0927 573.739 50.5391 573.739H45.2686V579.623C47.3142 579.743 48.7582 580.285 49.6005 581.247C50.4429 582.21 50.864 583.823 50.864 586.085V588.034C50.864 589.695 50.6354 591.006 50.1781 591.969C49.7449 592.908 49.0229 593.569 48.0122 593.954C47.0254 594.364 45.6898 594.568 44.0051 594.568ZM44.0051 591.03C45.2084 591.03 46.0026 590.85 46.3877 590.489C46.7968 590.104 47.0014 589.286 47.0014 588.034V586.085C47.0014 584.881 46.7968 584.087 46.3877 583.702C46.0026 583.293 45.2084 583.088 44.0051 583.088C42.8018 583.088 41.9956 583.293 41.5864 583.702C41.2014 584.087 41.0088 584.881 41.0088 586.085V588.034C41.0088 589.237 41.2014 590.044 41.5864 590.453C41.9956 590.838 42.8018 591.03 44.0051 591.03ZM19.3491 595.29C18.8918 595.17 18.5549 594.893 18.3383 594.46C18.1458 594.051 18.1337 593.63 18.3022 593.196C18.4225 592.932 18.5549 592.571 18.6993 592.113C18.8437 591.632 18.9881 591.151 19.1325 590.669C19.2769 590.188 19.3852 589.827 19.4574 589.586C19.5777 589.129 19.8304 588.792 20.2155 588.576C20.6246 588.359 21.0578 588.311 21.5151 588.431C21.9482 588.527 22.2852 588.768 22.5258 589.153C22.7906 589.538 22.8628 589.984 22.7424 590.489C22.6702 590.778 22.5619 591.163 22.4175 591.644C22.2972 592.101 22.1648 592.559 22.0204 593.016C21.9001 593.473 21.7918 593.846 21.6955 594.135C21.5271 594.616 21.2142 594.965 20.757 595.182C20.3238 595.398 19.8545 595.435 19.3491 595.29ZM30.5761 594.749C30.1188 594.845 29.6976 594.773 29.3126 594.532C28.9275 594.315 28.7109 593.979 28.6628 593.521C28.6387 593.257 28.5785 592.884 28.4823 592.402C28.4101 591.897 28.3258 591.403 28.2296 590.922C28.1574 590.417 28.0972 590.032 28.0491 589.767C27.9769 589.358 28.0611 588.997 28.3018 588.684C28.5665 588.347 28.9155 588.142 29.3487 588.07C29.7819 588.022 30.1669 588.094 30.5039 588.287C30.8408 588.479 31.0574 588.816 31.1536 589.298C31.2258 589.538 31.3101 589.899 31.4063 590.381C31.5026 590.838 31.5989 591.307 31.6951 591.788C31.7914 592.246 31.8636 592.607 31.9117 592.871C32.008 593.401 31.9238 593.822 31.659 594.135C31.3943 594.472 31.0333 594.676 30.5761 594.749ZM35.3773 593.918C34.9441 594.039 34.5229 594.003 34.1138 593.81C33.7287 593.618 33.4761 593.305 33.3557 592.871C33.2835 592.583 33.1752 592.21 33.0308 591.752C32.8864 591.271 32.742 590.802 32.5976 590.345C32.4773 589.863 32.369 589.49 32.2727 589.225C32.1524 588.816 32.2005 588.431 32.4171 588.07C32.6337 587.709 32.9346 587.481 33.3196 587.384C33.7287 587.264 34.1138 587.288 34.4748 587.457C34.8358 587.625 35.0885 587.914 35.2329 588.323C35.3292 588.564 35.4615 588.925 35.63 589.406C35.7985 589.863 35.9669 590.32 36.1354 590.778C36.3039 591.235 36.4242 591.596 36.4964 591.861C36.6408 592.318 36.6047 592.739 36.3881 593.124C36.1715 593.509 35.8346 593.774 35.3773 593.918ZM25.8831 595.254C25.4499 595.302 25.0408 595.206 24.6557 594.965C24.2947 594.725 24.1022 594.376 24.0781 593.918C24.0781 593.63 24.0541 593.245 24.0059 592.763C23.9819 592.258 23.9458 591.764 23.8976 591.283C23.8495 590.778 23.8134 590.393 23.7893 590.128C23.7653 589.695 23.8856 589.334 24.1503 589.045C24.4391 588.732 24.7881 588.564 25.1972 588.54C25.6545 588.491 26.0395 588.588 26.3524 588.828C26.6653 589.045 26.8578 589.394 26.93 589.875C26.9781 590.116 27.0263 590.477 27.0744 590.958C27.1225 591.415 27.1707 591.885 27.2188 592.366C27.291 592.847 27.3391 593.22 27.3632 593.485C27.4113 594.015 27.291 594.424 27.0022 594.713C26.7375 595.025 26.3644 595.206 25.8831 595.254ZM29.1682 570.634C29.3366 570.297 29.5292 569.9 29.7458 569.443C29.9624 568.962 30.1188 568.601 30.2151 568.36C30.3354 568.047 30.552 567.842 30.8648 567.746C31.2018 567.65 31.5146 567.674 31.8034 567.818C32.02 567.939 32.1885 568.107 32.3088 568.324C32.2848 567.554 32.1524 567.072 31.9117 566.88C31.6711 566.663 31.1536 566.555 30.3595 566.555H29.1682V570.634ZM24.6918 573.522H25.7748V572.15C25.6785 572.247 25.5582 572.331 25.4138 572.403C25.125 572.547 24.8242 572.571 24.5113 572.475C24.1985 572.379 23.9819 572.174 23.8615 571.862C23.7653 571.573 23.5848 571.152 23.32 570.598C23.0794 570.045 22.8868 569.611 22.7424 569.298V571.645C22.7424 572.439 22.8628 572.957 23.1034 573.197C23.3441 573.414 23.8736 573.522 24.6918 573.522ZM29.1682 573.522H30.3595C31.1777 573.522 31.7072 573.414 31.9478 573.197C32.1885 572.957 32.3088 572.439 32.3088 571.645V569.407C32.1885 569.72 31.9839 570.153 31.6951 570.706C31.4304 571.26 31.2379 571.693 31.1175 572.006C30.9731 572.271 30.7445 572.451 30.4317 572.547C30.1429 572.644 29.8541 572.632 29.5653 572.511C29.4209 572.439 29.2885 572.343 29.1682 572.223V573.522ZM25.7748 570.273V566.555H24.6918C23.9458 566.555 23.4404 566.663 23.1756 566.88C22.9109 567.072 22.7665 567.518 22.7424 568.215C22.8387 568.023 23.0072 567.866 23.2478 567.746C23.5366 567.602 23.8254 567.578 24.1142 567.674C24.4271 567.746 24.6678 567.939 24.8362 568.252C24.9565 568.468 25.1009 568.781 25.2694 569.19C25.4619 569.575 25.6304 569.936 25.7748 570.273Z" fill="#1F1F1F"/>
<defs>
<clipPath id="clip0_88_63335">
<rect width="50.0207" height="437.959" fill="white" transform="translate(9.88568 88.6567)"/>
</clipPath>
</defs>
</svg>
