<svg width="551" height="551" viewBox="0 0 551 551" fill="none" xmlns="http://www.w3.org/2000/svg">
<g clip-path="url(#clip0_156_188054)">
<path d="M281.016 550.25L275.33 544.638L286.466 544.73L281.016 550.25Z" fill="#FFE38A"/>
<path d="M-0.000224706 272.845L5.44941 267.324L544.669 271.793L550.355 277.406L544.906 282.926L5.68568 278.458L-0.000224706 272.845Z" fill="#FFE38A"/>
<path d="M269.339 -0.000114628L275.025 5.61273L263.889 5.52045L269.339 -0.000114628Z" fill="#FFE38A"/>
<path d="M134.822 405.935L421.135 408.307L410.236 419.349L146.194 417.161L134.822 405.935Z" fill="#FFE38A"/>
<path d="M140.119 130.902L404.161 133.09L415.533 144.315L129.22 141.943L140.119 130.902Z" fill="#FFE38A"/>
<path d="M205.076 475.286L353.801 476.519L342.901 487.56L216.448 486.512L205.076 475.286Z" fill="#FFE38A"/>
<path d="M64.568 336.583L488.47 340.096L477.571 351.137L75.9398 347.809L64.568 336.583Z" fill="#FFE38A"/>
<path d="M72.7841 199.113L474.415 202.441L485.787 213.667L61.8849 210.154L72.7841 199.113Z" fill="#FFE38A"/>
<path d="M207.454 62.6904L333.907 63.7383L345.279 74.964L196.555 73.7316L207.454 62.6904Z" fill="#FFE38A"/>
<path d="M240.203 509.962L320.133 510.624L309.234 521.665L251.575 521.188L240.203 509.962Z" fill="#FFE38A"/>
<path d="M169.949 440.611L387.468 442.413L376.569 453.454L181.321 451.836L169.949 440.611Z" fill="#FFE38A"/>
<path d="M99.695 371.259L454.803 374.202L443.903 385.243L111.067 382.485L99.695 371.259Z" fill="#FFE38A"/>
<path d="M29.441 301.908L522.137 305.991L511.238 317.032L40.8128 313.133L29.441 301.908Z" fill="#FFE38A"/>
<path d="M39.1171 233.219L509.543 237.117L520.914 248.343L28.2178 244.26L39.1171 233.219Z" fill="#FFE38A"/>
<path d="M106.452 165.007L439.288 167.765L450.66 178.991L95.5524 176.048L106.452 165.007Z" fill="#FFE38A"/>
<path d="M173.786 96.796L369.034 98.4139L380.406 109.64L162.887 107.837L173.786 96.796Z" fill="#FFE38A"/>
<path d="M241.121 28.5849L298.78 29.0627L310.152 40.2884L230.222 39.626L241.121 28.5849Z" fill="#FFE38A"/>
<path d="M257.767 527.3L303.299 527.677L292.4 538.718L269.138 538.525L257.767 527.3Z" fill="#FFE38A"/>
<path d="M222.64 492.624L336.967 493.572L326.068 504.613L234.011 503.85L222.64 492.624Z" fill="#FFE38A"/>
<path d="M187.513 457.948L370.634 459.466L359.735 470.507L198.884 469.174L187.513 457.948Z" fill="#FFE38A"/>
<path d="M152.386 423.273L404.302 425.36L393.402 436.401L163.757 434.498L152.386 423.273Z" fill="#FFE38A"/>
<path d="M82.1315 353.921L471.636 357.149L460.737 368.19L93.5033 365.147L82.1315 353.921Z" fill="#FFE38A"/>
<path d="M117.259 388.597L437.969 391.255L427.07 402.296L128.63 399.823L117.259 388.597Z" fill="#FFE38A"/>
<path d="M47.0044 319.246L505.304 323.043L494.405 334.085L58.3762 330.471L47.0044 319.246Z" fill="#FFE38A"/>
<path d="M11.8774 284.57L538.971 288.938L528.072 299.979L23.2492 295.796L11.8774 284.57Z" fill="#FFE38A"/>
<path d="M55.9505 216.166L491.979 219.779L503.351 231.005L45.0513 227.207L55.9505 216.166Z" fill="#FFE38A"/>
<path d="M22.283 250.271L527.106 254.455L538.478 265.68L11.3838 261.313L22.283 250.271Z" fill="#FFE38A"/>
<path d="M89.6181 182.06L456.852 185.103L468.224 196.329L78.7189 193.101L89.6181 182.06Z" fill="#FFE38A"/>
<path d="M123.285 147.955L421.725 150.428L433.096 161.654L112.386 158.996L123.285 147.955Z" fill="#FFE38A"/>
<path d="M190.62 79.7432L351.471 81.0761L362.843 92.3018L179.721 90.7843L190.62 79.7432Z" fill="#FFE38A"/>
<path d="M156.953 113.849L386.598 115.752L397.97 126.977L146.054 124.89L156.953 113.849Z" fill="#FFE38A"/>
<path d="M224.287 45.6381L316.344 46.401L327.715 57.6267L213.388 56.6793L224.287 45.6381Z" fill="#FFE38A"/>
<path d="M257.955 11.5321L281.217 11.7249L292.589 22.9505L247.056 22.5732L257.955 11.5321Z" fill="#FFE38A"/>
</g>
<defs>
<clipPath id="clip0_156_188054">
<rect width="394.872" height="383.39" fill="white" transform="translate(281.016 550.25) rotate(-135.37)"/>
</clipPath>
</defs>
</svg>
