<?xml version="1.0" encoding="UTF-8"?><svg id="_層_2" xmlns="http://www.w3.org/2000/svg" xmlns:xlink="http://www.w3.org/1999/xlink" viewBox="0 0 94.34 94.34"><defs><style>.cls-1{fill:#fff;}.cls-2{fill:url(#_命名漸層_202);}</style><linearGradient id="_命名漸層_202" x1="79.51" y1="79.51" x2="15.97" y2="15.97" gradientTransform="matrix(1, 0, 0, 1, 0, 0)" gradientUnits="userSpaceOnUse"><stop offset="0" stop-color="#85bfc5"/><stop offset="1" stop-color="#bad8ac"/></linearGradient></defs><g id="_層_4"><circle class="cls-2" cx="47.17" cy="47.17" r="47.17"/><g><path class="cls-1" d="M40.96,19.11l-1.16,6.05c-.09,.47,.09,.93,.47,1.21,.37,.28,.86,.32,1.27,.11l5.63-2.86,5.63,2.88c.18,.09,.36,.13,.55,.13,.26,0,.51-.08,.72-.24,.38-.28,.56-.75,.47-1.21l-1.16-6.08,4.63-4.68c.34-.34,.45-.84,.28-1.29-.16-.45-.56-.75-1.03-.8l-6.25-.57-2.74-6.11c-.2-.44-.62-.69-1.11-.72-.48,0-.91,.28-1.11,.72l-2.74,6.11-6.25,.57c-.47,.04-.87,.35-1.03,.8-.17,.45-.06,.95,.28,1.29l4.63,4.68Zm2.9-5.98c.25-.02,.47-.18,.58-.41l2.73-6.11,2.73,6.11c.1,.23,.32,.39,.58,.41l6.28,.57-4.63,4.68c-.16,.16-.23,.4-.19,.62l1.16,6.08-5.61-2.87c-.1-.05-.21-.08-.32-.08s-.22,.03-.32,.08l-5.61,2.85,1.16-6.05c.04-.23-.03-.46-.19-.62l-4.63-4.69,6.28-.57Z"/><path class="cls-1" d="M57.79,16.43l1.11,2.5c.1,.23,.32,.39,.58,.41l2.59,.24-1.93,1.96c-.16,.16-.23,.4-.19,.62l.48,2.53-2.33-1.2c-.2-.1-.44-.1-.64,0l-2.1,1.07c-.34,.18-.48,.6-.31,.94,.18,.34,.6,.48,.94,.31l1.78-.91,2.79,1.44c.14,.07,.29,.11,.44,.11,.2,0,.41-.07,.58-.19,.3-.23,.45-.6,.38-.97l-.57-3.03,2.3-2.34c.27-.27,.35-.67,.22-1.03-.13-.36-.45-.6-.82-.63l-3.08-.28-.95-2.12c-.16-.35-.57-.51-.92-.35-.35,.16-.51,.57-.35,.92Z"/><path class="cls-1" d="M32.99,22.26l-.58,3.03c-.07,.37,.07,.74,.37,.97,.17,.13,.38,.2,.58,.2,.15,0,.3-.04,.44-.11l2.84-1.44,1.81,.91c.35,.18,.77,.04,.94-.31,.17-.35,.03-.77-.31-.94l-2.13-1.07c-.2-.1-.43-.1-.63,0l-2.38,1.21,.49-2.54c.04-.23-.03-.46-.19-.63l-1.96-1.96,2.63-.24c.25-.02,.47-.18,.58-.41l1.13-2.5c.16-.35,0-.77-.35-.93-.35-.16-.77,0-.93,.35l-.96,2.13-3.13,.28c-.38,.03-.7,.28-.83,.64-.13,.36-.04,.75,.23,1.03l2.33,2.34Z"/><path class="cls-1" d="M15.1,55.23c-1.03,1.42-1.71,3.2-1.52,4.95,.12,1.05,.34,1.84,.59,2.43-.05-.05-.1-.09-.15-.14-2.12-1.95-5.13-2.86-8.01-2.72,1.2,1.4,2.42,2.83,3.97,3.83,.98,.63,2.54,1.3,3.94,1.17,.64-.06,1.52-.48,1.52-.48v-.02h0s1.26-1.56,.94-3.87c-.24-1.75-.76-3.45-1.3-5.14Z"/><path class="cls-1" d="M8.97,57.44c.54,.12,1.35,.02,1.48,0h.02c.17-.13,1.58-1.17,1.93-3.21,.29-1.64,.3-3.31,.3-4.97-1.33,.98-2.45,2.38-2.77,4-.19,.93-.22,1.68-.17,2.27-.02-.04-.04-.07-.06-.11-1.34-2.35-3.78-4.03-6.39-4.73,.67,1.6,1.36,3.23,2.46,4.56,.7,.85,1.9,1.9,3.19,2.17Z"/><path class="cls-1" d="M6.44,49.52c.49,.29,1.33,.45,1.4,.47h0c.06-.02,1.81-.53,2.82-2.4,.78-1.45,1.31-3.01,1.82-4.57-1.55,.5-3.03,1.47-3.84,2.89-.47,.83-.73,1.53-.87,2.11,0-.05-.02-.1-.03-.15-.53-2.62-2.29-4.95-4.53-6.41,.13,1.71,.27,3.44,.89,5.04,.39,1.01,1.2,2.37,2.32,3.02Z"/><path class="cls-1" d="M7.68,42.38h0s1.71,.07,3.13-1.31c1.08-1.05,1.97-2.26,2.85-3.48-1.49,.01-3.05,.45-4.15,1.47-.65,.6-1.07,1.14-1.34,1.61,0-.05,.01-.1,.02-.15,.26-2.43-.64-4.95-2.19-6.84-.35,1.53-.71,3.08-.61,4.65,.06,.99,.39,2.4,1.19,3.28,.36,.39,1.05,.77,1.09,.8Z"/><path class="cls-1" d="M12.37,32.38c-.78,.42-1.33,.84-1.72,1.22,.01-.04,.03-.07,.04-.11,.88-2.35,.65-5.09-.41-7.37-.75,1.43-1.5,2.88-1.8,4.46-.19,1-.23,2.48,.34,3.57,.24,.45,.78,.97,.87,1.06h.02c.18,.06,1.77,.45,3.43-.5,1.34-.77,2.55-1.74,3.73-2.73-1.49-.37-3.15-.34-4.5,.39Z"/><path class="cls-1" d="M15.13,29.47c1.91-1.45,3.1-3.79,3.41-6.17-1.33,.78-2.68,1.57-3.73,2.69-.66,.71-1.44,1.89-1.54,3.06-.04,.54,.17,1.32,.17,1.32,0,0,.88-.3,1.68-.9Z"/><path class="cls-1" d="M80.31,62.47c-.05,.05-.1,.09-.15,.14,.25-.59,.48-1.38,.59-2.43,.19-1.75-.48-3.53-1.52-4.95-.54,1.69-1.06,3.38-1.3,5.14-.32,2.31,.94,3.88,.94,3.88h0s.88,.43,1.52,.49c1.4,.14,2.96-.53,3.94-1.17,1.55-1,2.77-2.43,3.97-3.83-2.88-.14-5.89,.77-8.01,2.72Z"/><path class="cls-1" d="M84.63,55.44s-.04,.07-.06,.11c.05-.59,.02-1.34-.17-2.27-.33-1.62-1.44-3.02-2.77-4,0,1.66,.02,3.33,.3,4.97,.36,2.03,1.77,3.08,1.93,3.2h.02c.13,.03,.94,.12,1.48,0,1.29-.27,2.49-1.32,3.19-2.17,1.1-1.34,1.79-2.96,2.46-4.56-2.62,.7-5.05,2.38-6.39,4.73Z"/><path class="cls-1" d="M86.55,48.02c-.13-.57-.39-1.27-.87-2.11-.81-1.42-2.29-2.39-3.84-2.89,.51,1.56,1.05,3.12,1.82,4.57,1,1.87,2.75,2.38,2.82,2.4h0c.07-.01,.91-.18,1.4-.47,1.12-.66,1.93-2.01,2.32-3.02,.62-1.6,.76-3.33,.9-5.04-2.24,1.46-4,3.79-4.53,6.41-.01,.05-.02,.1-.03,.15Z"/><path class="cls-1" d="M86.16,40.66c-.27-.47-.7-1.01-1.34-1.61-1.1-1.01-2.65-1.45-4.15-1.47,.88,1.22,1.78,2.43,2.85,3.48,1.42,1.38,3.13,1.32,3.13,1.32h0s.74-.41,1.09-.8c.8-.88,1.13-2.29,1.19-3.28,.1-1.56-.25-3.12-.61-4.65-1.55,1.89-2.45,4.41-2.19,6.84,0,.05,.01,.1,.02,.15Z"/><path class="cls-1" d="M84.63,35.23h.02c.09-.1,.63-.62,.87-1.07,.57-1.08,.53-2.56,.34-3.57-.3-1.58-1.06-3.04-1.8-4.46-1.05,2.28-1.29,5.02-.41,7.37,.01,.04,.03,.07,.04,.11-.39-.39-.94-.81-1.72-1.22-1.35-.72-3.01-.76-4.5-.39,1.19,.98,2.39,1.96,3.73,2.73,1.66,.95,3.25,.56,3.43,.51Z"/><path class="cls-1" d="M79.21,29.47c.8,.61,1.68,.9,1.68,.9,0,0,.21-.79,.17-1.32-.09-1.17-.87-2.35-1.54-3.06-1.05-1.13-2.4-1.92-3.73-2.69,.31,2.38,1.5,4.72,3.41,6.17Z"/><path class="cls-1" d="M23.15,55.57c.1-.09,.16-.2,.17-.34,0-.14-.04-.26-.14-.36-.31-.31-.69-.63-1.14-.97,0,0-.01-.02-.01-.03s0-.01,.03-.01h3.92s.07,.02,.07,.06v1.33c0,.1-.02,.16-.06,.2s-.12,.06-.25,.07c-.46,0-.87,0-1.24-.01-.11,0-.2,.04-.27,.14-.07,.1-.08,.21-.04,.32,.08,.21,.14,.4,.18,.59,.05,.15,.12,.27,.23,.36,.11,.09,.23,.14,.37,.14,.92,0,1.58-.08,1.98-.23,.29-.12,.49-.29,.59-.51,.1-.22,.15-.55,.15-.98v-1.39s.02-.06,.06-.06h2.64c.14,0,.26-.05,.36-.15,.1-.1,.15-.23,.15-.37v-.37c0-.14-.05-.26-.15-.36-.1-.1-.22-.15-.36-.15h-2.64s-.06-.02-.06-.07v-.47s.02-.06,.06-.06l.93-.03s.08,0,.11,.03c.06,.04,.11,.08,.17,.13,.11,.1,.24,.15,.39,.15s.27-.05,.39-.15l.28-.25c.09-.09,.14-.2,.13-.33,0-.13-.06-.24-.16-.32-.44-.3-.9-.59-1.39-.86,0,0,0,0,0-.03h.41c.14,0,.26-.05,.36-.15,.1-.1,.15-.22,.15-.36v-3.28c0-.15-.05-.27-.15-.37-.1-.1-.22-.15-.36-.15h-3.78s-.07-.02-.07-.06v-.41s.02-.07,.07-.07h4.7c.13,0,.25-.05,.34-.15s.15-.22,.15-.37v-.31c0-.15-.05-.27-.15-.37-.1-.1-.21-.15-.34-.15h-4.7s-.07-.02-.07-.06v-.37c0-.15-.05-.27-.14-.37-.09-.1-.21-.15-.35-.15h-.68c-.14,0-.26,.05-.35,.15s-.14,.22-.14,.37v.37s-.02,.06-.07,.06h-4.72c-.13,0-.25,.05-.34,.15-.1,.1-.15,.23-.15,.37v.31c0,.15,.05,.27,.15,.37s.21,.15,.34,.15h4.72s.07,.02,.07,.07v.41s-.02,.06-.07,.06h-3.59c-.14,0-.26,.05-.35,.15-.09,.1-.14,.23-.14,.37v3.28c0,.14,.05,.26,.14,.36,.09,.1,.21,.15,.35,.15h3.59s.07,.02,.07,.07v.41s-.02,.06-.07,.06h-2.42c-.58,0-1.05,.01-1.39,.01-.4,0-.63,0-.69-.01-.14,0-.26,.05-.35,.15-.09,.1-.14,.22-.14,.36v.25c.01,.14,.07,.26,.17,.36,.1,.1,.23,.15,.37,.15,1.88-.02,4.22-.06,7-.12,.05,0,.07,.02,.07,.06v.42s-.02,.07-.07,.07h-7.65c-.14,0-.26,.05-.36,.15-.1,.1-.15,.22-.15,.36v.37c0,.15,.05,.27,.15,.37,.1,.1,.22,.15,.36,.15h2.31s.03,0,.03,.01,0,.02-.01,.03l-.17,.15c-.09,.09-.14,.2-.13,.32,0,.13,.06,.23,.16,.32,.57,.44,1.05,.87,1.42,1.29,.1,.11,.22,.17,.35,.18,.13,0,.25-.03,.35-.12l.52-.47Zm.35-6.53s-.02,.06-.07,.06h-2.42s-.07-.02-.07-.06v-.44s.02-.07,.07-.07h2.42s.07,.02,.07,.07v.44Zm0-1.6s-.02,.07-.07,.07h-2.42s-.07-.02-.07-.07v-.42s.02-.06,.07-.06h2.42s.07,.02,.07,.06v.42Zm1.66-.42s.02-.06,.07-.06h2.54s.07,.02,.07,.06v.42s-.02,.07-.07,.07h-2.54s-.07-.02-.07-.07v-.42Zm0,1.58s.02-.07,.07-.07h2.54s.07,.02,.07,.07v.44s-.02,.06-.07,.06h-2.54s-.07-.02-.07-.06v-.44Zm.07,2.12s-.07-.02-.07-.07v-.38s.02-.07,.07-.07h1.41v.03c-.05,.05-.08,.11-.06,.18,.01,.07,.05,.13,.12,.17,.12,.06,.2,.09,.23,.1,0,0,.01,0,.01,.01s0,.01-.01,.01h-1.69Z"/><path class="cls-1" d="M33.51,56.42c.08,.13,.2,.22,.34,.28s.28,.06,.42,.01c1.64-.51,3.07-1.25,4.29-2.24,.04-.03,.06-.02,.06,.01v2.04c0,.14,.05,.26,.14,.36,.09,.1,.21,.15,.35,.15h.69c.14,0,.26-.05,.35-.15,.09-.1,.14-.22,.14-.36v-2.12s.02-.04,.06-.01c1.22,1.05,2.65,1.84,4.3,2.34,.14,.05,.28,.04,.42-.01s.25-.15,.33-.28c.19-.29,.38-.56,.56-.81,.04-.05,.06-.11,.06-.18,0-.03,0-.06-.01-.1-.04-.11-.11-.17-.21-.19-.74-.15-1.46-.35-2.15-.61-.69-.26-1.31-.56-1.86-.9,0,0-.01-.02-.01-.02s0,0,.01,0h3.61c.14,0,.26-.05,.36-.15,.1-.1,.15-.23,.15-.37v-.42c0-.15-.05-.27-.15-.37-.1-.1-.22-.15-.36-.15h-5.03s-.07-.02-.07-.06v-.53s.02-.07,.07-.07h3.75c.14,0,.26-.05,.36-.15,.1-.1,.15-.22,.15-.36v-.25c0-.15-.05-.27-.15-.37-.1-.1-.22-.15-.36-.15h-3.75s-.07-.02-.07-.06v-.54s.02-.07,.07-.07h4.43c.14,0,.26-.05,.36-.15,.1-.1,.15-.22,.15-.36v-.37c0-.14-.05-.26-.15-.36-.1-.1-.22-.15-.36-.15h-2.26s-.05-.02-.03-.06c.22-.35,.42-.71,.62-1.08,.02-.04,.05-.06,.1-.06h2.14c.14,0,.26-.05,.36-.15,.1-.1,.15-.23,.15-.37v-.41c0-.15-.05-.27-.15-.37s-.22-.15-.36-.15h-1.31s-.05-.02-.03-.06c.18-.28,.46-.75,.83-1.39,.07-.11,.07-.22,.03-.34-.05-.12-.13-.2-.25-.23l-.83-.21c-.14-.03-.27,0-.39,.06-.12,.07-.21,.17-.25,.31-.16,.45-.33,.86-.52,1.25-.06,.12-.06,.23-.01,.35s.13,.2,.25,.23c0,.02,0,.03-.01,.03h-1.15s-.06-.02-.06-.07v-1.86c0-.15-.05-.27-.15-.37s-.22-.15-.36-.15h-.62c-.13,0-.25,.05-.34,.15-.1,.1-.15,.22-.15,.37v1.86s-.02,.07-.07,.07h-.93s-.07-.02-.07-.07v-1.86c0-.15-.05-.27-.15-.37s-.21-.15-.34-.15h-.6c-.14,0-.26,.05-.36,.15-.1,.1-.15,.22-.15,.37v1.86s-.02,.07-.06,.07h-1.18s-.01,0-.01-.01,0-.01,.01-.01l.17-.07c.13-.05,.22-.14,.28-.26s.06-.26,0-.4c-.17-.37-.38-.77-.63-1.19-.08-.14-.18-.23-.32-.28s-.28-.05-.42,0l-.52,.19c-.12,.05-.21,.13-.25,.26s-.04,.24,.03,.36c.28,.55,.49,1,.62,1.35,.02,.05,0,.07-.04,.07h-1.36c-.14,0-.26,.05-.36,.15s-.15,.22-.15,.37v.41c0,.15,.05,.27,.15,.37,.1,.1,.22,.15,.36,.15h2.49s-.06,.03-.08,.07c-.01,.04-.02,.07,0,.11,.16,.31,.29,.63,.41,.97,0,.04,0,.06-.04,.06h-2.18c-.14,0-.26,.05-.36,.15-.1,.1-.15,.22-.15,.36v.37c0,.14,.05,.26,.15,.36,.1,.1,.22,.15,.36,.15h4.3s.07,.02,.07,.07v.54s-.02,.06-.07,.06h-3.59c-.14,0-.26,.05-.35,.15-.09,.1-.14,.23-.14,.37v.25c0,.14,.05,.26,.14,.36,.09,.1,.21,.15,.35,.15h3.59s.07,.02,.07,.07v.53s-.02,.06-.07,.06h-4.94c-.14,0-.26,.05-.36,.15-.1,.1-.15,.23-.15,.37v.42c0,.15,.05,.27,.15,.37,.1,.1,.22,.15,.36,.15h3.57s.01,0,.01,0,0,.01-.01,.02c-1.11,.68-2.44,1.22-4.01,1.61-.1,.02-.17,.09-.2,.21,0,.03-.01,.06-.01,.09,0,.07,.02,.14,.07,.21,.16,.21,.32,.42,.48,.66Zm4.57-8.29h0c.06-.02,.1-.05,.13-.1s.03-.1,.01-.16c-.1-.27-.23-.57-.39-.88-.02-.04,0-.06,.04-.06h3.3s.06,.02,.04,.06c-.19,.48-.34,.84-.45,1.08-.02,.04-.05,.06-.08,.06h-2.6Z"/><path class="cls-1" d="M52.46,43.49h-3.35c-.14,0-.26,.05-.36,.15-.1,.1-.15,.23-.15,.37v.31c0,.15,.05,.27,.15,.37,.1,.1,.22,.15,.36,.15h3.35c.13,0,.25-.05,.34-.15,.1-.1,.15-.23,.15-.37v-.31c0-.15-.05-.27-.15-.37-.1-.1-.21-.15-.34-.15Z"/><path class="cls-1" d="M52.47,51.72h-3.47c-.13,0-.25,.05-.34,.15s-.15,.22-.15,.37v4.07c0,.15,.05,.27,.15,.37,.1,.1,.21,.15,.34,.15h.46c.14,0,.26-.05,.35-.15,.09-.1,.14-.23,.14-.37,0-.04,.02-.06,.07-.06h2.45c.13,0,.25-.05,.34-.15,.1-.1,.15-.23,.15-.37v-3.49c0-.15-.05-.27-.15-.37s-.21-.15-.34-.15Zm-.98,3.06s-.02,.07-.07,.07h-1.39s-.07-.02-.07-.07v-1.6s.02-.06,.07-.06h1.39s.07,.02,.07,.06v1.6Z"/><path class="cls-1" d="M52.98,50.17c0-.15-.05-.27-.14-.37-.09-.1-.21-.15-.35-.15h-3.45c-.13,0-.25,.05-.34,.15-.1,.1-.15,.23-.15,.37v.29c0,.15,.05,.27,.15,.37s.21,.15,.34,.15h3.45c.14,0,.26-.05,.35-.15s.14-.22,.14-.37v-.29Z"/><path class="cls-1" d="M53.35,46.76c.1-.1,.15-.23,.15-.37v-.37c0-.15-.05-.27-.15-.37-.1-.1-.21-.15-.34-.15h-4.64c-.13,0-.25,.05-.34,.15s-.15,.22-.15,.37v.37c0,.15,.05,.27,.15,.37,.1,.1,.21,.15,.34,.15h4.64c.13,0,.25-.05,.34-.15Z"/><path class="cls-1" d="M52.98,48.1c0-.14-.05-.26-.14-.36-.09-.1-.21-.15-.35-.15h-3.45c-.13,0-.25,.05-.34,.15-.1,.1-.15,.22-.15,.36v.34c0,.14,.05,.26,.15,.36,.1,.1,.21,.15,.34,.15h3.45c.14,0,.26-.05,.35-.15,.09-.1,.14-.22,.14-.36v-.34Z"/><path class="cls-1" d="M60.5,46.16l-.65-.13s-.07-.01-.1-.01c-.09,0-.18,.03-.27,.1-.11,.08-.18,.19-.21,.32-.14,.9-.33,1.75-.56,2.55,0,.05-.01,.1-.01,.15,0,.09,.02,.17,.06,.25,.07,.12,.16,.2,.3,.23l.34,.09c.06,0,.11,.01,.16,.01,.08,0,.17-.02,.25-.06,.12-.07,.21-.18,.27-.32,.18-.51,.44-1.37,.79-2.58,0-.05,.01-.1,.01-.15,0-.08-.02-.16-.07-.23-.07-.12-.16-.19-.29-.22Z"/><path class="cls-1" d="M54.62,49.66c.07,.06,.15,.09,.24,.09,.04,0,.07,0,.1-.01l.48-.12c.14-.03,.25-.1,.34-.23,.08-.12,.12-.26,.1-.4-.09-.75-.25-1.56-.46-2.43-.04-.15-.12-.26-.24-.33-.12-.07-.25-.1-.39-.07l-.39,.09c-.14,.03-.24,.1-.31,.22-.05,.08-.07,.17-.07,.26,0,.04,0,.08,.01,.12,.21,.88,.35,1.71,.42,2.49,0,.14,.07,.24,.18,.32Z"/><path class="cls-1" d="M60.83,50.24h-2.63s-.06-.02-.06-.06v-4.69s.02-.06,.06-.06h2.36c.14,0,.26-.05,.36-.15,.1-.1,.15-.23,.15-.37v-.63c0-.14-.05-.26-.15-.36-.1-.1-.22-.15-.36-.15h-6.29c-.14,0-.26,.05-.35,.15-.09,.1-.14,.22-.14,.36v.63c0,.15,.05,.27,.14,.37,.09,.1,.21,.15,.35,.15h2.12s.06,.02,.06,.06v4.69s-.02,.06-.06,.06h-2.63c-.13,0-.25,.05-.34,.15-.1,.1-.15,.23-.15,.37v.64c0,.15,.05,.27,.15,.37,.1,.1,.21,.15,.34,.15h2.63s.06,.02,.06,.06v4.51c0,.14,.05,.26,.15,.36,.1,.1,.22,.15,.36,.15h.67c.14,0,.26-.05,.36-.15,.1-.1,.15-.22,.15-.36v-4.51s.02-.06,.06-.06h2.63c.13,0,.25-.05,.34-.15,.1-.1,.15-.23,.15-.37v-.64c0-.15-.05-.27-.15-.37-.1-.1-.21-.15-.34-.15Z"/><path class="cls-1" d="M63.91,54.11c.07,.06,.15,.09,.24,.09,.03,0,.06,0,.1-.01l.16-.04c.14-.04,.25-.12,.33-.24,.08-.12,.11-.26,.09-.4-.08-.53-.17-1.05-.3-1.58-.03-.14-.1-.24-.22-.32-.12-.07-.25-.09-.38-.05h-.08c-.13,.05-.23,.13-.31,.25-.05,.09-.07,.18-.07,.28,0,.04,0,.08,.01,.12,.12,.59,.21,1.12,.25,1.6,.02,.14,.08,.24,.18,.32Z"/><path class="cls-1" d="M76.03,55.18h-.08s-.07-.02-.07-.06v-3.35c0-.14-.05-.26-.15-.36-.1-.1-.21-.15-.34-.15h-6.08c-.14,0-.26,.05-.36,.15-.1,.1-.15,.22-.15,.36v3.35s-.02,.06-.06,.06h-.38s-.06-.02-.07-.06l-.03-.38c-.02-.14-.08-.25-.18-.34-.1-.09-.22-.12-.35-.09l-1.2,.21s-.06,0-.06-.04v-3.6s.02-.07,.06-.07h1.01c.13,0,.25-.05,.34-.15,.1-.1,.15-.22,.15-.36v-.47c0-.15-.05-.27-.15-.37s-.21-.15-.34-.15h-1.01s-.06-.02-.06-.07v-.91s.02-.07,.06-.07h.73c.14,0,.26-.05,.36-.15,.1-.1,.15-.22,.15-.36v-.92s-.01-.03-.04-.03h0l.68-.76s.02-.01,.03,0c0,0,.01,.01,.01,.02v4c0,.15,.05,.27,.15,.37,.1,.1,.21,.15,.34,.15h3.29c.13,0,.25-.05,.34-.15,.1-.1,.15-.23,.15-.37v-.25c0-.15-.05-.27-.15-.37s-.21-.15-.34-.15h-.55s-.07-.02-.07-.07v-.66s.02-.07,.07-.07h.31c.14,0,.26-.05,.36-.15s.15-.22,.15-.37v-.31s.02-.05,.06-.03c.2,.12,.38,.23,.56,.34,.1,.08,.22,.1,.35,.07,.13-.03,.22-.1,.28-.22,.15-.33,.29-.72,.44-1.16,0-.05,.04-.07,.08-.07h1.69c.13,0,.25-.05,.34-.15s.15-.22,.15-.37v-.51c0-.14-.05-.26-.15-.36-.1-.1-.21-.15-.34-.15h-1.27s-.07-.02-.06-.06c.08-.36,.16-.74,.22-1.14,.02-.14-.01-.26-.1-.38-.08-.12-.19-.19-.32-.22l-.46-.09c-.13-.03-.25,0-.36,.09-.11,.09-.18,.2-.2,.34-.2,1.36-.49,2.48-.89,3.35,0,0-.02,0-.03,0v-.92c0-.15-.05-.27-.15-.37s-.22-.15-.36-.15h-.31s-.07-.02-.07-.07v-.66s.02-.07,.07-.07h.42c.14,0,.26-.05,.36-.15s.15-.22,.15-.37v-.25c0-.15-.05-.27-.15-.37-.1-.1-.22-.15-.36-.15h-3.16c-.13,0-.25,.05-.34,.15-.1,.1-.15,.23-.15,.37v1.29s0,.02-.01,.02c0,0-.02,0-.03,0-.4-.57-.92-1.18-1.55-1.83-.23-.23-.52-.35-.86-.35h-.41c-.15,0-.29,.04-.42,.13-.13,.09-.22,.21-.27,.35-.46,1.08-1.08,2.03-1.86,2.83-.08,.1-.13,.21-.13,.34,0,.14,.05,.26,.14,.37,.21,.21,.4,.44,.56,.67,.06,.09,.12,.09,.2,.01,0,0,.01,0,.01,.01v.03c0,.13,.04,.23,.13,.32,.08,.09,.19,.13,.31,.13h.73s.06,.02,.06,.07v.91s-.02,.07-.06,.07h-1.21c-.14,0-.26,.05-.36,.15s-.15,.22-.15,.37v.47c0,.14,.05,.26,.15,.36,.1,.1,.22,.15,.36,.15h1.21s.06,.02,.06,.07v3.85s-.02,.06-.06,.07c-.6,.11-1.08,.19-1.43,.25-.13,.03-.23,.1-.31,.22s-.1,.24-.07,.38l.13,.56c.04,.15,.11,.26,.23,.34s.24,.1,.37,.07c1.49-.28,2.78-.54,3.85-.78,.05,0,.07,0,.07,.06v.26c0,.15,.05,.27,.15,.37,.1,.1,.21,.15,.34,.15h7.69c.14,0,.26-.05,.35-.15,.09-.1,.14-.23,.14-.37v-.45c0-.15-.05-.27-.14-.37-.09-.1-.21-.15-.35-.15Zm-6.36-10.42s.02-.07,.06-.07h.66s.06,.02,.06,.07v.66s-.02,.07-.06,.07h-.66s-.06-.02-.06-.07v-.66Zm0,1.88s.02-.07,.06-.07h1.62s.07,.02,.07,.07v.69s-.02,.07-.07,.07h-1.62s-.06-.02-.06-.07v-.69Zm0,1.9s.02-.07,.06-.07h.66s.06,.02,.06,.07v.66s-.02,.07-.06,.07h-.66s-.06-.02-.06-.07v-.66Zm-4.92-1.76s-.05-.02-.03-.06c.44-.56,.86-1.2,1.27-1.92,.02-.04,.04-.04,.07,0,.52,.64,.96,1.28,1.32,1.92,.02,.04,0,.06-.03,.06h-2.6Zm6.13,8.33s-.02,.06-.07,.06h-.59s-.06-.02-.06-.06v-2.39s.02-.07,.06-.07h.59s.07,.02,.07,.07v2.39Zm1.79,0s-.02,.06-.07,.06h-.6s-.06-.02-.06-.06v-2.39s.02-.07,.06-.07h.6s.07,.02,.07,.07v2.39Zm1.8,0s-.02,.06-.07,.06h-.63s-.06-.02-.06-.06v-2.39s.02-.07,.06-.07h.63s.07,.02,.07,.07v2.39Z"/><path class="cls-1" d="M67.78,51.46l-.2-.04s-.08-.01-.11-.01c-.08,0-.17,.03-.25,.09-.11,.08-.18,.19-.2,.32-.08,.51-.18,.98-.28,1.42,0,.04-.01,.08-.01,.12,0,.1,.02,.19,.07,.26,.07,.13,.16,.21,.29,.25h.04s.09,.03,.14,.03c.08,0,.17-.02,.25-.07,.12-.08,.2-.19,.23-.32s.09-.36,.18-.68,.15-.56,.2-.73c0-.05,.01-.1,.01-.15,0-.09-.02-.17-.07-.25-.07-.12-.16-.2-.29-.23Z"/><path class="cls-1" d="M73.62,48.85c-.14,0-.26,.05-.35,.15-.09,.1-.14,.22-.14,.36v.44c0,.15,.05,.27,.14,.37s.21,.15,.35,.15h2.14c.14,0,.26-.05,.36-.15s.15-.22,.15-.37v-.44c0-.14-.05-.26-.15-.36-.1-.1-.22-.15-.36-.15h-2.14Z"/><path class="cls-1" d="M71.11,69.65c-.26,0-.48,.08-.64,.24-.17,.16-.25,.38-.25,.64v2.98c0,.3-.1,.55-.3,.76-.2,.21-.45,.31-.75,.31s-.55-.1-.76-.31c-.21-.21-.31-.46-.31-.76v-2.98c0-.59-.3-.88-.89-.88-.26,0-.48,.08-.64,.24-.16,.16-.24,.38-.24,.64v.91c-.15-.3-.35-.58-.61-.83-.64-.64-1.26-.96-2.22-.96-1.02,0-1.76,.54-1.76,.54v-3.4c0-.26-.08-.48-.25-.64s-.38-.24-.64-.24-.46,.08-.63,.25c-.17,.17-.25,.38-.25,.63v4.71c-.15-.3-.35-.58-.61-.83-.64-.64-1.44-.96-2.4-.96s-1.75,.32-2.39,.96c-.33,.33-.57,.69-.73,1.1-.16-.42-.41-.81-.75-1.14-.64-.64-1.26-.96-2.22-.96-1.02,0-1.76,.54-1.76,.54v-3.4c0-.26-.08-.48-.25-.64s-.38-.24-.64-.24-.46,.08-.63,.25c-.17,.17-.25,.38-.25,.63v4.68c-.13-.37-.34-.71-.64-1.01-.54-.54-1.03-.81-1.83-.81-.7,0-1.5,.23-2.02,.68-.53-.46-1.15-.68-1.84-.68-.81,0-1.66,.27-2.21,.81-.39,.38-.63,.84-.74,1.36-.16-.4-.4-.75-.72-1.07-.64-.64-1.44-.96-2.4-.96s-1.75,.32-2.39,.96c-.33,.33-.57,.69-.73,1.1-.11-.57-.35-1.1-.75-1.49-.6-.52-1.16-.71-1.83-.71s-1.5,.23-2.02,.68c-.53-.46-1.15-.68-1.84-.68-.81,0-1.66,.27-2.21,.81-.54,.54-.81,1.21-.81,2.02v2.99c0,.26,.08,.48,.25,.64s.38,.24,.64,.24,.48-.08,.64-.24,.24-.37,.24-.64v-2.98c0-.3,.1-.55,.31-.75s.46-.3,.76-.3,.54,.1,.75,.31c.21,.21,.32,.45,.32,.74v2.98c0,.26,.08,.48,.24,.64,.16,.16,.37,.24,.64,.24s.48-.08,.64-.24,.25-.37,.25-.64v-2.97c0-.74,.67-1.06,1.02-1.06,.29,0,.54,.1,.74,.31,.21,.21,.31,.45,.31,.74v2.99s.04,.9,.89,.9,.89-.9,.89-.9v-.9c.16,.36,.38,.68,.67,.97,.64,.65,1.44,.97,2.39,.97s1.75-.32,2.4-.97c.28-.28,.49-.59,.65-.92v.85c0,.26,.08,.48,.25,.64s.38,.24,.64,.24,.48-.08,.64-.24c.16-.16,.24-.37,.24-.64v-2.98c0-.3,.1-.55,.31-.75,.21-.2,.46-.3,.76-.3s.54,.1,.75,.31c.21,.21,.32,.45,.32,.74v2.98c0,.26,.08,.48,.24,.64s.37,.24,.64,.24,.48-.08,.64-.24c.17-.16,.25-.37,.25-.64v-2.97c0-.74,.67-1.06,1.02-1.06,.29,0,.54,.1,.74,.31,.21,.21,.31,.45,.31,.74v2.99s.04,.9,.89,.9,.89-.9,.89-.9v-1.37c.16,.48,.42,.91,.8,1.29,.64,.64,1.44,.97,2.39,.97s1.74-.32,2.39-.96c.33-.33,.57-.69,.74-1.1,.16,.43,.41,.81,.74,1.15,.64,.64,1.44,.96,2.39,.96,.88,0,1.64-.54,1.64-.54,.04,.11,.1,.22,.19,.3,.16,.16,.37,.24,.64,.24s.48-.08,.64-.24c.17-.16,.25-.38,.25-.64v-.97c.15,.3,.35,.58,.61,.83,.64,.64,1.44,.97,2.39,.97s1.74-.32,2.39-.96c.32-.32,.56-.67,.72-1.06,.12,.46,.36,.86,.7,1.21,.54,.54,1.22,.81,2.03,.81,.37,0,.72-.07,1.05-.2v.82c0,.29-.11,.54-.32,.75-.21,.21-.46,.32-.75,.32h-.05c-.26,0-.48,.08-.64,.25-.17,.17-.25,.38-.25,.64s.08,.48,.25,.64c.17,.16,.38,.24,.64,.24h.05c.81,0,1.48-.27,2.02-.82,.54-.54,.81-1.22,.81-2.03v-6.44c0-.26-.08-.48-.24-.64-.16-.16-.37-.24-.64-.24Zm-34.17,3.65c-.47,.74-.8,.61-2.01,1.67h0c-1.21-1.06-1.51-.94-1.96-1.67-.31-.56-.04-1.27,.53-1.51,.52-.22,1.07-.01,1.43,.55,.36-.56,.93-.77,1.47-.55,.58,.24,.82,.97,.53,1.51Zm14.89,.82c-.31,.31-.69,.46-1.12,.46s-.81-.15-1.12-.46c-.31-.31-.46-.61-.46-1.12,0-.93,.72-1.58,1.58-1.58,.44,0,.81,.16,1.12,.47s.47,.68,.47,1.12-.16,.81-.47,1.11Zm5.14,.52c-.44,0-.81-.15-1.12-.46-.31-.31-.46-.68-.46-1.12s.15-.81,.46-1.11c.31-.3,.68-.46,1.12-.46s.81,.15,1.12,.46c.31,.31,.47,.68,.47,1.12,0,.89-.83,1.57-1.59,1.57Zm7.48-.52c-.31,.31-.69,.46-1.12,.46s-.81-.15-1.12-.46c-.31-.31-.46-.61-.46-1.12,0-.93,.72-1.58,1.58-1.58,.44,0,.81,.16,1.12,.47,.31,.31,.47,.68,.47,1.12s-.16,.81-.47,1.11Z"/><path class="cls-1" d="M36.64,84.07c-.13,0-.23,.1-.23,.23,0,.01,0,.89-.03,1.53,0,.13,.09,.24,.22,.24,0,0,.02,0,.03,0,.12,0,.21-.1,.22-.22,.03-.66,.03-1.54,.03-1.55,0-.13-.1-.23-.23-.23Z"/><path class="cls-1" d="M46.04,83.17h-1.13v-1.04h1.24c.13,0,.23-.1,.23-.23s-.1-.23-.23-.23h-1.22v-.85h1.22c.13,0,.23-.1,.23-.23s-.1-.23-.23-.23h-1.21v-.69h1.29c.13,0,.23-.1,.23-.23s-.1-.23-.23-.23h-3.28c-.13,0-.23,.1-.23,.23,0,.14-.11,3.49-.12,3.76-.01,.27,.08,.47,.44,.47,0,0,2.56-.02,3.01,.01,.06,.39-.01,1.88-.1,2.26-.04,.16-.19,.21-.68,.19-.13,0-.24,.1-.24,.23,0,.13,.1,.24,.23,.24,.07,0,.14,0,.21,0,.38,0,.82-.07,.94-.55,.11-.45,.18-1.76,.13-2.39-.02-.35-.09-.46-.49-.46Zm-1.6,0h-1.37s.01-.45,.03-1.04h1.35v1.04Zm0-1.51h-1.34c0-.28,.02-.57,.03-.85h1.33v.85Zm0-1.32h-1.32c0-.29,.02-.54,.02-.69h1.3v.69Z"/><path class="cls-1" d="M45.44,85.57s.02,0,.03,0c.13-.02,.22-.14,.2-.26-.07-.53-.07-1-.07-1,0-.13-.1-.23-.23-.23h0c-.13,0-.23,.1-.23,.23,0,.02,0,.51,.08,1.07,.02,.12,.12,.2,.23,.2Z"/><path class="cls-1" d="M44.49,84.07c-.13,0-.23,.1-.23,.23,0,.01,0,.89-.03,1.53,0,.13,.09,.24,.22,.24,0,0,.02,0,.03,0,.12,0,.21-.1,.22-.22,.03-.66,.03-1.54,.03-1.55,0-.13-.1-.23-.23-.23Z"/><path class="cls-1" d="M54.24,86.13s-.53-.07-1.13-.2h.59c.06,0,.12-.02,.17-.07,.04-.04,.07-.1,.07-.17v-1.77h0v-.91c0-.13-.11-.23-.23-.23h-4.86c-.13,0-.23,.1-.23,.23v2.68c0,.06,.02,.12,.07,.17s.1,.07,.17,.07h.5c-.6,.14-1.12,.2-1.13,.2-.13,.02-.22,.13-.2,.26,.02,.12,.12,.2,.23,.2h.03s1.17-.15,2.07-.46c.09-.03,.15-.12,.16-.21h1.47c0,.09,.06,.18,.16,.21,.9,.3,2.02,.45,2.07,.46h.03c.12,0,.22-.08,.23-.2,.02-.13-.07-.24-.2-.26Zm-5.17-2.88h4.39v.44h-4.39v-.44Zm0,.9h4.39v.41h-4.39v-.41Zm0,1.31v-.44h4.39v.44h-4.39Z"/><path class="cls-1" d="M61.83,86.13s-.53-.07-1.13-.2h.59c.06,0,.12-.02,.17-.07,.04-.04,.07-.1,.07-.17v-1.77h0v-.91c0-.13-.11-.23-.23-.23h-4.86c-.13,0-.23,.1-.23,.23v2.68c0,.06,.02,.12,.07,.17,.04,.04,.1,.07,.17,.07h.5c-.6,.14-1.12,.2-1.13,.2-.13,.02-.22,.13-.2,.26,.02,.12,.12,.2,.23,.2h.03s1.17-.15,2.07-.46c.09-.03,.15-.12,.16-.21h1.47c0,.09,.06,.18,.16,.21,.9,.3,2.02,.45,2.07,.46h.03c.12,0,.22-.08,.23-.2,.02-.13-.07-.24-.2-.26Zm-5.17-2.88h4.39v.44h-4.39v-.44Zm0,.9h4.39v.41h-4.39v-.41Zm0,1.31v-.44h4.39v.44h-4.39Z"/><path class="cls-1" d="M54,79.22h-2.5v-.22c0-.13-.1-.23-.23-.23s-.23,.1-.23,.23v.22h-2.51c-.19,0-.3,.08-.37,.15-.15,.15-.15,.35-.15,.38v.58c0,.13,.1,.23,.23,.23h1.25v.46l-.87,.02c-.13,0-.23,.11-.23,.24,0,.13,.11,.23,.23,.23h0l.86-.02v.49l-1,.16c-.13,.02-.21,.14-.19,.27,.02,.11,.12,.2,.23,.2,.01,0,.03,0,.04,0l2.14-.35c.13-.02,.21-.14,.19-.27-.02-.13-.14-.21-.27-.19l-.67,.11v-.42h.72c.13-.02,.23-.12,.23-.25,0-.13-.11-.23-.24-.23h-.71v-.43h.7c.13,0,.23-.1,.23-.23,0-.13-.1-.23-.23-.23h-.91s-.01,0-.02,0h-1.25v-.35s0-.04,.02-.05c0,0,.01,0,.04,0h2.83l-.27,.56c-.04,.07-.03,.16,.01,.23,.04,.07,.12,.11,.2,.11h1.11v.45h-.98c-.13,0-.23,.1-.23,.23v.93c0,.13,.1,.23,.23,.23h2.44c.13,0,.23-.1,.23-.23v-.93c0-.13-.1-.23-.23-.23h-.98v-.45h1.43c.13,0,.23-.1,.23-.23v-.62s0-.22-.15-.36c-.07-.07-.19-.15-.39-.15Zm-1.6,2.73h-.75v-.46h.75v.46Zm1.22-.46v.46h-.75v-.46h.75Zm.45-1.38h-2.4l.21-.43h2.13c.06,0,.06,.01,.07,.04v.38Z"/><path class="cls-1" d="M61.6,79.22h-2.5v-.22c0-.13-.1-.23-.23-.23s-.23,.1-.23,.23v.22h-2.51c-.19,0-.3,.08-.37,.15-.15,.15-.15,.35-.15,.38v.58c0,.13,.1,.23,.23,.23h1.25v.46l-.87,.02c-.13,0-.23,.11-.23,.24,0,.13,.11,.23,.23,.23h0l.86-.02v.49l-1,.16c-.13,.02-.21,.14-.19,.27,.02,.11,.12,.2,.23,.2,.01,0,.03,0,.04,0l2.13-.35c.13-.02,.21-.14,.19-.27-.02-.13-.14-.21-.27-.19l-.67,.11v-.42h.72c.13-.02,.23-.12,.23-.25,0-.13-.11-.23-.24-.23h-.71v-.43h.7c.13,0,.23-.1,.23-.23s-.1-.23-.23-.23h-.91s-.01,0-.02,0h-1.25v-.35s0-.04,.02-.05c0,0,.01,0,.04,0h2.83l-.27,.56c-.04,.07-.03,.16,.01,.23,.04,.07,.12,.11,.2,.11h1.11v.45h-.98c-.13,0-.23,.1-.23,.23v.93c0,.13,.1,.23,.23,.23h2.44c.13,0,.23-.1,.23-.23v-.93c0-.13-.1-.23-.23-.23h-.98v-.45h1.43c.13,0,.23-.1,.23-.23v-.62s0-.22-.15-.36c-.07-.07-.19-.15-.39-.15Zm-1.6,2.73h-.75v-.46h.75v.46Zm1.22-.46v.46h-.75v-.46h.75Zm.45-1.38h-2.4l.21-.43h2.13c.06,0,.06,.01,.07,.04v.38Z"/><path class="cls-1" d="M43.68,84.08c-.13-.02-.25,.07-.26,.2,0,0-.13,.96-.32,1.63-.03,.12,.04,.25,.16,.29,.02,0,.04,0,.06,0,.1,0,.2-.07,.22-.17,.19-.69,.32-1.65,.33-1.69,.02-.13-.07-.25-.2-.26Z"/><path class="cls-1" d="M34.26,84.83c-.09-.08-.15-.15-.15-.16-.07-.07-.15-.16-.23-.24,.42-1.21,.44-2.76,.46-3.65,0-.12,0-.22,0-.32,0-.13,0-.33,0-.33,0-.13-.11-.23-.23-.23h-.77c.03-.44,.06-.76,.06-.77,.01-.13-.09-.24-.21-.25-.13,0-.24,.09-.25,.21,0,.04-.03,.36-.06,.8h-.44c-.13,0-.23,.1-.23,.23s.1,.23,.23,.23h.4c-.07,.95-.15,2.14-.15,2.58,0,.49,.22,1.01,.65,1.56-.03,.06-.05,.13-.08,.19-.35,.72-.65,1.06-1,1.42-.09,.09-.09,.24,0,.33,.05,.04,.1,.07,.16,.07,.06,0,.12-.02,.17-.07,.36-.38,.7-.76,1.08-1.54h0s.06,.06,.09,.09c0,0,.07,.07,.16,.16,.05,.05,.1,.07,.16,.07s.12-.02,.17-.07c.09-.09,.09-.24,0-.33Zm-.38-4.37c0,.09,0,.2,0,.32-.01,.78-.04,2.11-.34,3.2-.21-.32-.37-.67-.37-1.02,0-.43,.08-1.64,.15-2.58h.57v.08Z"/><path class="cls-1" d="M37.59,85.57s.02,0,.03,0c.13-.02,.22-.14,.2-.26-.07-.53-.07-1-.07-1,0-.13-.1-.23-.23-.23h0c-.13,0-.23,.1-.23,.23,0,.02,0,.51,.08,1.07,.02,.12,.12,.2,.23,.2Z"/><path class="cls-1" d="M35.83,84.08c-.13-.02-.25,.07-.26,.2,0,0-.13,.96-.32,1.63-.03,.12,.04,.25,.16,.29,.02,0,.04,0,.06,0,.1,0,.2-.07,.23-.17,.19-.69,.32-1.65,.33-1.69,.02-.13-.07-.25-.2-.26Z"/><path class="cls-1" d="M42.82,84.1c-.13-.02-.25,.06-.27,.19,0,0-.16,.96-.46,1.55-.06,.12-.01,.26,.1,.31,.03,.02,.07,.02,.1,.02,.09,0,.17-.05,.21-.13,.33-.66,.5-1.64,.5-1.69,.02-.13-.06-.25-.19-.27Z"/><path class="cls-1" d="M34.97,84.1c-.13-.02-.25,.06-.27,.19,0,0-.16,.96-.46,1.55-.06,.12-.01,.26,.1,.31,.03,.02,.07,.02,.1,.02,.09,0,.17-.05,.21-.13,.33-.66,.5-1.64,.5-1.69,.02-.13-.06-.25-.19-.27Z"/><path class="cls-1" d="M38.19,83.17h-1.13v-1.04h1.24c.13,0,.23-.1,.23-.23s-.1-.23-.23-.23h-1.22v-.85h1.22c.13,0,.23-.1,.23-.23s-.1-.23-.23-.23h-1.21v-.69h1.29c.13,0,.23-.1,.23-.23s-.1-.23-.23-.23h-3.28c-.13,0-.23,.1-.23,.23,0,.14-.11,3.49-.12,3.76-.01,.27,.08,.47,.44,.47,0,0,2.56-.02,3.01,.01,.06,.39-.01,1.88-.1,2.26-.04,.16-.19,.21-.68,.19-.13,0-.24,.1-.24,.23s.1,.24,.23,.24c.07,0,.14,0,.21,0,.38,0,.82-.07,.94-.55,.11-.45,.18-1.76,.13-2.39-.02-.35-.09-.46-.49-.46Zm-1.6,0h-1.37s.01-.45,.03-1.04h1.35v1.04Zm0-1.51h-1.34c0-.28,.02-.57,.03-.85h1.33v.85Zm0-1.32h-1.32c0-.29,.02-.54,.02-.69h1.3v.69Z"/><path class="cls-1" d="M42.12,84.83c-.08-.08-.15-.15-.15-.16-.07-.07-.15-.16-.23-.24,.42-1.21,.44-2.76,.46-3.65,0-.12,0-.22,0-.32,0-.13,0-.33,0-.33,0-.13-.11-.23-.23-.23h-.77c.03-.44,.06-.76,.06-.77,.01-.13-.09-.24-.21-.25-.13,0-.24,.09-.25,.21,0,.04-.03,.36-.06,.8h-.44c-.13,0-.23,.1-.23,.23s.1,.23,.23,.23h.4c-.07,.95-.15,2.14-.15,2.58,0,.49,.22,1.01,.65,1.56-.03,.06-.05,.13-.08,.19-.35,.72-.65,1.06-1,1.42-.09,.09-.09,.24,0,.33,.05,.04,.1,.07,.16,.07,.06,0,.12-.02,.17-.07,.36-.38,.7-.76,1.08-1.54h0s.06,.06,.09,.09c0,0,.07,.07,.16,.16,.05,.05,.1,.07,.16,.07s.12-.02,.17-.07c.09-.09,.09-.24,0-.33Zm-.38-4.37c0,.09,0,.2,0,.32-.01,.78-.04,2.11-.34,3.2-.21-.32-.37-.67-.37-1.02,0-.43,.08-1.64,.15-2.58h.57s0,.06,0,.08Z"/><path class="cls-1" d="M23.28,61.76c0,.28,.22,.5,.5,.5h46.78c.28,0,.5-.22,.5-.5s-.22-.5-.5-.5H23.78c-.28,0-.5,.22-.5,.5Z"/><path class="cls-1" d="M36.07,37.02c-.17,.16-.25,.35-.25,.58v.16c0,.1,.03,.18,.1,.25s.15,.1,.25,.1h4.26c.1,0,.18-.03,.25-.1s.1-.15,.1-.25v-.54c0-.1-.03-.18-.1-.25s-.15-.1-.25-.1h-1.26c-.29,0-.68,.03-1.15,.08,0,0-.01,0-.01,0s0-.01,0-.02c1.62-1.59,2.43-2.95,2.43-4.07,0-.68-.21-1.23-.64-1.65s-.99-.62-1.68-.62c-.43,0-.81,.07-1.14,.21s-.65,.36-.97,.65c-.07,.07-.11,.15-.11,.25s.04,.18,.11,.25l.31,.3c.07,.07,.14,.11,.24,.1s.18-.04,.25-.1c.37-.34,.74-.51,1.11-.51,.35,0,.62,.11,.82,.32s.29,.51,.29,.88c0,.52-.25,1.11-.74,1.77s-1.23,1.43-2.21,2.32Z"/><path class="cls-1" d="M44.23,38.24c.77,0,1.38-.33,1.83-1s.67-1.62,.67-2.87-.22-2.19-.67-2.84-1.06-.97-1.83-.97-1.39,.32-1.84,.97-.67,1.59-.67,2.84,.22,2.21,.67,2.87,1.06,1,1.84,1Zm-1.04-5.15c.06-.35,.13-.63,.24-.83s.22-.34,.35-.42,.28-.13,.45-.13c.74,0,1.11,.89,1.11,2.67s-.37,2.72-1.11,2.72-1.12-.91-1.12-2.72c0-.5,.03-.93,.08-1.28Z"/><path class="cls-1" d="M47.85,37.02c-.17,.16-.25,.35-.25,.58v.16c0,.1,.03,.18,.1,.25s.15,.1,.25,.1h4.26c.1,0,.18-.03,.25-.1s.1-.15,.1-.25v-.54c0-.1-.03-.18-.1-.25s-.15-.1-.25-.1h-1.26c-.29,0-.68,.03-1.15,.08,0,0-.01,0-.01,0s0-.01,0-.02c1.62-1.59,2.43-2.95,2.43-4.07,0-.68-.21-1.23-.64-1.65s-.99-.62-1.68-.62c-.43,0-.81,.07-1.14,.21s-.65,.36-.97,.65c-.07,.07-.11,.15-.11,.25s.04,.18,.11,.25l.31,.3c.07,.07,.14,.11,.24,.1s.18-.04,.25-.1c.37-.34,.74-.51,1.11-.51,.35,0,.62,.11,.82,.32s.29,.51,.29,.88c0,.52-.25,1.11-.74,1.77s-1.23,1.43-2.21,2.32Z"/><path class="cls-1" d="M55.42,36.91h-1.2c-.09,0-.17,.03-.24,.1s-.1,.15-.1,.25v.49c0,.1,.03,.18,.1,.25s.15,.1,.24,.1h3.76c.1,0,.18-.03,.25-.1s.1-.15,.1-.25v-.49c0-.1-.03-.18-.1-.25s-.15-.1-.25-.1h-1s-.05-.01-.05-.04v-5.82c0-.1-.03-.18-.1-.25s-.15-.1-.24-.1h-.4c-.21,0-.42,.06-.64,.18-.31,.16-.67,.28-1.08,.37-.1,.03-.18,.08-.24,.16s-.09,.17-.09,.26v.21c0,.1,.03,.18,.1,.25s.15,.1,.24,.1h.95s.05,.01,.05,.04v4.6s-.02,.04-.05,.04Z"/><path class="cls-1" d="M34.2,37.1c0-.28-.22-.5-.5-.5h-15.3c-.28,0-.5,.22-.5,.5s.22,.5,.5,.5h15.3c.28,0,.5-.22,.5-.5Z"/><path class="cls-1" d="M76.43,37.1c0-.28-.22-.5-.5-.5h-15.3c-.28,0-.5,.22-.5,.5s.22,.5,.5,.5h15.3c.28,0,.5-.22,.5-.5Z"/></g></g></svg>