<?xml version="1.0" encoding="UTF-8"?><svg id="_層_2" xmlns="http://www.w3.org/2000/svg" viewBox="0 0 967.45 283.91"><defs><style>.cls-1{fill:#fff;}</style></defs><g id="_層_1-2"><g><path class="cls-1" d="M962.71,90.63c-3.16-3.16-7.3-4.75-12.42-4.75s-9.31,1.58-12.55,4.75c-3.25,3.17-4.87,7.32-4.87,12.46v58.05c0,5.83-1.97,10.75-5.89,14.77-3.93,4.03-8.8,6.04-14.6,6.04s-10.72-2.01-14.73-6.04c-4.01-4.02-6.02-8.94-6.02-14.77v-58.05c0-11.47-5.81-17.21-17.42-17.21-5.12,0-9.27,1.58-12.42,4.75-3.16,3.17-4.74,7.31-4.74,12.45v17.83c-2.99-5.84-6.91-11.23-11.83-16.14-12.55-12.53-24.58-18.79-43.19-18.79-19.88,0-34.29,10.44-34.29,10.44V30.1c0-5.13-1.63-9.28-4.87-12.44-3.24-3.16-7.43-4.75-12.55-4.75s-9.05,1.62-12.3,4.88c-3.25,3.25-4.87,7.35-4.87,12.31V121.86c-2.99-5.84-6.91-11.22-11.83-16.12-12.55-12.49-28.14-18.74-46.75-18.74s-34.16,6.22-46.62,18.66c-6.35,6.34-11.06,13.48-14.17,21.4-3.13-8.26-7.95-15.72-14.55-22.31-12.55-12.53-24.58-18.79-43.19-18.79-19.88,0-34.29,10.44-34.29,10.44V30.1c0-5.13-1.63-9.28-4.87-12.44-3.25-3.16-7.43-4.75-12.55-4.75s-9.05,1.62-12.3,4.88c-3.25,3.25-4.87,7.35-4.87,12.31V121.26c-2.6-7.3-6.72-13.85-12.45-19.6-10.5-10.52-20.05-15.78-35.76-15.78-13.67,0-29.18,4.44-39.42,13.32-10.42-8.88-22.37-13.32-35.86-13.32-15.71,0-32.42,5.26-43.01,15.79-7.53,7.48-12.33,16.31-14.5,26.42-3.14-7.7-7.81-14.66-14.03-20.85-12.55-12.49-28.14-18.74-46.75-18.74s-34.16,6.25-46.62,18.74c-6.35,6.36-11.06,13.53-14.18,21.49-2.05-11.13-6.9-21.38-14.62-29.11-11.64-10.22-22.66-13.74-35.76-13.74s-29.17,4.44-39.42,13.32c-10.42-8.88-22.37-13.32-35.86-13.32-15.71,0-32.42,5.26-43.01,15.79C5.29,112.19,0,125.32,0,141.07v58.27c0,5.13,1.62,9.28,4.87,12.45,3.24,3.16,7.43,4.75,12.55,4.75s9.26-1.58,12.42-4.74c3.16-3.16,4.74-7.3,4.74-12.42v-58.15c0-5.8,2.01-10.67,6.02-14.6,4.01-3.93,8.92-5.89,14.73-5.89s10.5,2.01,14.6,6.02c4.1,4.01,6.15,8.84,6.15,14.47v58.15c0,5.12,1.58,9.26,4.74,12.42,3.16,3.16,7.3,4.74,12.42,4.74s9.3-1.58,12.55-4.74c3.24-3.16,4.87-7.3,4.87-12.42v-57.91c0-14.4,13.12-20.74,19.95-20.74,5.64,0,10.46,2.01,14.47,6.02,4.01,4.01,6.02,8.84,6.02,14.47v58.22s.75,17.45,17.32,17.45,17.27-17.45,17.27-17.45v-17.63c3.09,6.95,7.39,13.3,13.04,19,12.47,12.58,28.01,18.86,46.62,18.86s34.2-6.29,46.75-18.86c5.4-5.41,9.57-11.43,12.65-17.96v16.49c0,5.13,1.62,9.28,4.87,12.45,3.24,3.16,7.43,4.75,12.55,4.75s9.26-1.58,12.42-4.74c3.16-3.16,4.74-7.3,4.74-12.42v-58.15c0-5.8,2.01-10.67,6.02-14.6,4.01-3.93,8.92-5.89,14.73-5.89s10.5,2.01,14.6,6.02c4.1,4.01,6.15,8.84,6.15,14.47v58.15c0,5.12,1.58,9.26,4.74,12.42,3.16,3.16,7.3,4.74,12.42,4.74s9.3-1.58,12.55-4.74c3.24-3.16,4.87-7.3,4.87-12.42v-57.91c0-14.4,13.12-20.74,19.95-20.74,5.64,0,10.46,2.01,14.47,6.02,4.01,4.01,6.02,8.84,6.02,14.47v58.22s.75,17.45,17.32,17.45,17.27-17.45,17.27-17.45v-26.79c3.05,9.38,8.18,17.77,15.52,25.13,12.56,12.57,28.05,18.85,46.5,18.85s33.98-6.27,46.62-18.79c6.43-6.37,11.2-13.51,14.36-21.4,3.11,8.31,7.9,15.81,14.49,22.43,12.47,12.53,28.01,18.79,46.62,18.79,17.21,0,32.03-10.62,32.03-10.62,.79,2.24,2.02,4.2,3.71,5.88,3.16,3.16,7.3,4.74,12.42,4.74s9.3-1.58,12.55-4.75c3.24-3.17,4.87-7.32,4.87-12.45v-18.84c2.99,5.83,6.91,11.22,11.83,16.15,12.56,12.57,28.05,18.85,46.5,18.85s33.98-6.27,46.62-18.79c6.21-6.16,10.87-13.03,14.03-20.6,2.42,8.94,6.97,16.79,13.68,23.52,10.5,10.52,23.69,15.78,39.58,15.78,7.17,0,14-1.28,20.49-3.84v15.89c0,5.64-2.05,10.5-6.15,14.6-4.1,4.1-8.96,6.15-14.6,6.15h-1.02c-5.13,0-9.31,1.62-12.55,4.87-3.24,3.24-4.87,7.43-4.87,12.55s1.62,9.26,4.87,12.42c3.24,3.16,7.43,4.74,12.55,4.74h1.02c15.71,0,28.86-5.3,39.45-15.9,10.59-10.61,15.88-23.78,15.88-39.51V103.07c0-5.13-1.58-9.28-4.74-12.44ZM284.25,157.06c-9.1,14.5-15.6,11.83-39.09,32.48v-.03l-.02,.03c-23.49-20.65-29.53-18.23-38.27-32.48-5.95-10.98-.84-24.77,10.42-29.43,10.21-4.32,20.89-.21,27.86,10.71,6.97-10.92,18.11-14.91,28.68-10.71,11.26,4.66,16.01,18.95,10.42,29.43Zm290.12,16.03c-6.07,5.96-13.36,8.94-21.9,8.94s-15.8-2.99-21.77-8.98c-5.98-5.99-8.96-11.89-8.96-21.81,0-18.14,14.02-30.78,30.74-30.78,8.54,0,15.84,3.03,21.9,9.07,6.06,6.05,9.1,13.33,9.1,21.84s-3.04,15.76-9.1,21.72Zm100.2,10.16c-8.54,0-15.8-3.01-21.77-9.05-5.98-6.03-8.96-13.29-8.96-21.79s2.99-15.71,8.96-21.66c5.98-5.94,13.23-8.92,21.77-8.92s15.84,2.99,21.9,8.97c6.06,5.98,9.09,13.24,9.09,21.77,0,17.39-16.15,30.67-31,30.67Zm145.8-10.16c-6.07,5.96-13.36,8.94-21.9,8.94s-15.79-2.99-21.77-8.98c-5.98-5.99-8.96-11.89-8.96-21.81,0-18.14,14.02-30.78,30.74-30.78,8.54,0,15.84,3.03,21.9,9.07,6.06,6.05,9.1,13.33,9.1,21.84s-3.04,15.76-9.1,21.72Z"/><path class="cls-1" d="M5.26,15.74h3.96c-.66,9.25-1.43,20.96-1.44,25.26-.01,4.8,2.14,9.91,6.34,15.25-.26,.62-.48,1.28-.76,1.87-3.46,7.08-6.34,10.36-9.75,13.9-.87,.91-.85,2.36,.06,3.23,.44,.43,1.01,.64,1.58,.64,.6,0,1.2-.23,1.65-.7,3.56-3.71,6.82-7.39,10.56-15.06,0-.01,0-.03,.02-.04,.3,.31,.56,.62,.87,.93,0,0,.67,.69,1.55,1.56,.45,.44,1.03,.66,1.61,.66s1.17-.23,1.62-.68c.89-.9,.88-2.34-.01-3.23-.83-.83-1.48-1.49-1.51-1.52-.73-.73-1.48-1.54-2.22-2.39,4.1-11.84,4.34-27.03,4.48-35.68,.02-1.16,.03-2.19,.06-3.11,.02-1.31,0-3.2,0-3.2-.01-1.26-1.03-2.27-2.29-2.27h-7.52c.32-4.35,.55-7.41,.56-7.5,.1-1.26-.84-2.36-2.1-2.45-1.26-.09-2.36,.84-2.45,2.1-.03,.39-.27,3.52-.59,7.85H5.26c-1.26,0-2.29,1.02-2.29,2.29s1.02,2.29,2.29,2.29Zm8.54,0h5.57c0,.28,0,.55,0,.8-.02,.9-.04,1.95-.06,3.13-.12,7.67-.38,20.63-3.36,31.29-2.07-3.12-3.61-6.56-3.6-9.95,.01-4.19,.79-16.03,1.45-25.28Z"/><path class="cls-1" d="M234.25,17.58h2.12v.02l10.14,.02v4.45l-8.53,.17c-1.26,.02-2.26,1.07-2.24,2.33,.02,1.25,1.04,2.24,2.28,2.24h.05l8.44-.17v4.78l-9.81,1.61c-1.25,.2-2.09,1.38-1.89,2.62,.18,1.12,1.15,1.92,2.25,1.92,.12,0,.25-.01,.37-.03l20.89-3.43c1.25-.2,2.09-1.38,1.89-2.62-.2-1.25-1.38-2.09-2.62-1.89l-6.51,1.07v-4.12l7.03-.14c1.26-.02,2.26-1.07,2.24-2.33-.02-1.26-1.07-2.26-2.33-2.24l-6.94,.14v-4.35h6.86c1.26,.02,2.29-1.01,2.29-2.27,0-1.26-1.02-2.29-2.28-2.29l-8.93-.02c-.08,0-.14-.04-.22-.04h-12.25v-3.4s.06-.42,.17-.52c0,0,.11-.06,.36-.06h27.66l-2.64,5.46c-.34,.71-.3,1.54,.12,2.21,.42,.67,1.15,1.07,1.94,1.07h10.86v4.36h-9.63c-1.26,0-2.28,1.02-2.28,2.29v9.05c0,1.26,1.02,2.29,2.28,2.29h23.83c1.26,0,2.29-1.02,2.29-2.29v-9.05c0-1.26-1.02-2.29-2.29-2.29h-9.63v-4.36h14.01c1.26,0,2.29-1.02,2.29-2.29v-6.08c0-.34-.07-2.12-1.45-3.5-.66-.66-1.85-1.44-3.78-1.44h-24.43V2.29c0-1.26-1.02-2.29-2.29-2.29s-2.29,1.02-2.29,2.29v2.17h-24.57c-1.83,0-2.97,.77-3.61,1.42-1.44,1.47-1.49,3.42-1.49,3.77v5.65c0,1.26,1.02,2.28,2.29,2.28Zm40.75,13.6h-7.35v-4.48h7.35v4.48Zm11.92-4.48v4.48h-7.35v-4.48h7.35Zm-17.11-17.67h20.84c.56,0,.63,.11,.66,.42v3.75h-23.51l2.02-4.17Z"/><path class="cls-1" d="M23.87,72.34c.33,.17,.68,.24,1.02,.24,.84,0,1.64-.46,2.04-1.26,3.22-6.41,4.86-16.09,4.92-16.49,.21-1.24-.63-2.42-1.88-2.63-1.24-.21-2.42,.63-2.63,1.88-.02,.09-1.59,9.39-4.5,15.19-.57,1.13-.11,2.5,1.02,3.07Z"/><path class="cls-1" d="M234.15,76.58c.1,0,.2,0,.29-.02,.46-.06,11.43-1.49,20.22-4.47,.92-.31,1.5-1.15,1.54-2.06h14.38c.04,.91,.62,1.75,1.54,2.06,8.79,2.98,19.76,4.41,20.22,4.47,.1,.01,.2,.02,.29,.02,1.13,0,2.12-.84,2.26-1.99,.16-1.25-.72-2.4-1.98-2.56-.07,0-5.17-.67-11.05-2h5.78c.61,0,1.19-.24,1.62-.67,.43-.43,.67-1.01,.67-1.62l-.02-17.35s0-.02,0-.03,0-.02,0-.03v-8.82c-.01-1.26-1.04-2.28-2.3-2.28h-47.55c-1.26,0-2.28,1.02-2.28,2.28v26.23c0,.61,.23,1.19,.66,1.62s1.01,.67,1.62,.67h4.85c-5.88,1.32-10.98,1.99-11.05,2-1.25,.16-2.14,1.31-1.97,2.56,.15,1.15,1.13,1.99,2.26,1.99Zm8.2-32.78h42.98v4.27h-42.98v-4.27Zm0,8.85h42.99v3.97h-42.99v-3.97Zm0,12.81v-4.27h43.01v4.27h-43.01Z"/><path class="cls-1" d="M82.12,15.74h3.96c-.66,9.25-1.43,20.96-1.44,25.26-.01,4.8,2.14,9.91,6.34,15.25-.26,.62-.48,1.28-.76,1.87-3.46,7.08-6.34,10.36-9.75,13.9-.87,.91-.85,2.36,.06,3.23,.44,.43,1.01,.64,1.58,.64,.6,0,1.2-.23,1.65-.7,3.56-3.71,6.82-7.39,10.56-15.06,0-.01,0-.03,.02-.04,.3,.31,.56,.62,.87,.93,0,0,.67,.69,1.55,1.56,.45,.44,1.03,.66,1.61,.66s1.18-.23,1.62-.68c.89-.9,.88-2.34-.01-3.23-.83-.83-1.48-1.49-1.51-1.52-.73-.73-1.48-1.54-2.22-2.39,4.1-11.84,4.34-27.03,4.48-35.68,.02-1.16,.03-2.19,.06-3.11,.02-1.31,0-3.2,0-3.2-.01-1.26-1.03-2.27-2.29-2.27h-7.52c.32-4.35,.55-7.41,.56-7.5,.1-1.26-.84-2.36-2.1-2.45-1.26-.09-2.36,.84-2.45,2.1-.03,.39-.27,3.52-.59,7.85h-4.29c-1.26,0-2.29,1.02-2.29,2.29s1.02,2.29,2.29,2.29Zm8.54,0h5.57c0,.28,0,.55,0,.8-.02,.9-.04,1.95-.06,3.13-.12,7.67-.38,20.63-3.36,31.29-2.07-3.12-3.61-6.56-3.6-9.95,.01-4.19,.79-16.03,1.45-25.28Z"/><path class="cls-1" d="M109.06,47.6s25.02-.15,29.46,.12c.61,3.86-.14,18.45-1.02,22.15-.38,1.61-1.87,2.02-6.65,1.85-1.28-.04-2.32,.94-2.37,2.2-.04,1.26,.94,2.32,2.2,2.37,.66,.02,1.37,.05,2.1,.05,3.7,0,8.03-.64,9.16-5.41,1.05-4.42,1.74-17.21,1.25-23.35-.19-3.41-.91-4.54-4.8-4.54h-11.08l.12-10.19h12.03c1.26,0,2.29-1.02,2.29-2.29s-1.02-2.29-2.29-2.29h-11.98l.1-8.33h11.88c1.26,0,2.29-1.02,2.29-2.29s-1.02-2.29-2.29-2.29h-11.83l.08-6.8h12.54c1.26,0,2.29-1.02,2.29-2.29s-1.02-2.29-2.29-2.29h-32.07c-1.23,0-2.24,.98-2.28,2.21-.04,1.36-1.04,34.12-1.14,36.8-.1,2.68,.83,4.56,4.3,4.59Zm1.34-39.03h12.75l-.08,6.8h-12.89c.09-2.82,.17-5.24,.22-6.8Zm-.37,11.37h12.98l-.1,8.33h-13.15c.09-2.76,.18-5.62,.26-8.33Zm-.41,12.88s.07,.02,.11,.02h13.13l-.12,10.18h-13.45s.14-4.45,.32-10.2Z"/><path class="cls-1" d="M120.96,54.14c0,.1-.02,8.67-.28,15-.05,1.26,.93,2.33,2.19,2.38,.09,0,.17,0,.26,0,1.15-.08,2.07-1.01,2.12-2.18,.27-6.43,.28-15.09,.28-15.19,0-1.26-1.02-2.29-2.28-2.29-1.26,0-2.29,1.02-2.29,2.28Z"/><path class="cls-1" d="M131.79,51.88h-.01c-1.26,0-2.28,1.02-2.28,2.27,0,.2-.02,4.94,.74,10.46,.16,1.15,1.14,1.98,2.26,1.98,.1,0,.21,0,.31-.02,1.25-.17,2.13-1.32,1.95-2.57-.71-5.21-.7-9.78-.7-9.82,0-1.26-1.01-2.29-2.27-2.3Z"/><path class="cls-1" d="M112.7,53.97c-.01,.09-1.29,9.41-3.09,15.91-.34,1.22,.38,2.48,1.59,2.81,.2,.06,.41,.08,.61,.08,1,0,1.92-.66,2.2-1.68,1.88-6.8,3.16-16.12,3.21-16.52,.17-1.25-.71-2.4-1.96-2.57-1.25-.17-2.4,.71-2.57,1.96Z"/><path class="cls-1" d="M100.73,72.34c.33,.17,.68,.24,1.02,.24,.84,0,1.64-.46,2.04-1.26,3.22-6.41,4.86-16.09,4.93-16.49,.21-1.24-.63-2.42-1.88-2.63-1.24-.21-2.42,.63-2.63,1.88-.02,.09-1.59,9.39-4.5,15.19-.57,1.13-.11,2.5,1.02,3.07Z"/><path class="cls-1" d="M35.84,53.97c-.01,.09-1.29,9.41-3.09,15.91-.34,1.22,.38,2.48,1.59,2.81,.2,.06,.41,.08,.61,.08,1,0,1.92-.66,2.2-1.68,1.88-6.8,3.16-16.12,3.21-16.52,.17-1.25-.71-2.4-1.96-2.57-1.25-.17-2.4,.71-2.57,1.96Z"/><path class="cls-1" d="M159.93,17.58h2.12v.02l10.14,.02v4.45l-8.53,.17c-1.26,.02-2.26,1.07-2.24,2.33,.02,1.25,1.04,2.24,2.28,2.24h.05l8.44-.17v4.78l-9.81,1.61c-1.25,.2-2.09,1.38-1.89,2.62,.18,1.12,1.15,1.92,2.25,1.92,.12,0,.25-.01,.37-.03l20.89-3.43c1.25-.2,2.09-1.38,1.89-2.62-.2-1.25-1.38-2.09-2.62-1.89l-6.51,1.07v-4.12l7.03-.14c1.26-.02,2.26-1.07,2.24-2.33-.02-1.26-1.07-2.26-2.33-2.24l-6.94,.14v-4.35h6.86c1.26,.02,2.29-1.01,2.29-2.27,0-1.26-1.02-2.29-2.28-2.29l-8.93-.02c-.08,0-.14-.04-.22-.04h-12.26v-3.4s.06-.42,.17-.52c0,0,.11-.06,.36-.06h27.66l-2.64,5.46c-.34,.71-.3,1.54,.12,2.21,.42,.67,1.15,1.07,1.94,1.07h10.86v4.36h-9.63c-1.26,0-2.29,1.02-2.29,2.29v9.05c0,1.26,1.02,2.29,2.29,2.29h23.83c1.26,0,2.29-1.02,2.29-2.29v-9.05c0-1.26-1.02-2.29-2.29-2.29h-9.63v-4.36h14.01c1.26,0,2.29-1.02,2.29-2.29v-6.08c0-.34-.07-2.12-1.45-3.5-.66-.66-1.85-1.44-3.78-1.44h-24.43V2.29c0-1.26-1.02-2.29-2.29-2.29s-2.29,1.02-2.29,2.29v2.17h-24.57c-1.83,0-2.97,.77-3.61,1.42-1.45,1.47-1.49,3.42-1.49,3.77v5.65c0,1.26,1.02,2.28,2.29,2.28Zm40.74,13.6h-7.35v-4.48h7.35v4.48Zm11.92-4.48v4.48h-7.35v-4.48h7.35Zm-17.11-17.67h20.84c.56,0,.63,.11,.66,.42v3.75h-23.51l2.02-4.17Z"/><path class="cls-1" d="M44.1,54.14c0,.1-.02,8.67-.28,15-.05,1.26,.93,2.33,2.19,2.38,.09,0,.17,0,.26,0,1.14-.08,2.07-1.01,2.12-2.18,.27-6.43,.28-15.09,.28-15.19,0-1.26-1.02-2.29-2.28-2.29-1.26,0-2.29,1.02-2.29,2.28Z"/><path class="cls-1" d="M54.93,51.88h-.01c-1.26,0-2.28,1.02-2.29,2.27,0,.2-.02,4.94,.74,10.46,.16,1.15,1.14,1.98,2.26,1.98,.1,0,.21,0,.31-.02,1.25-.17,2.13-1.32,1.95-2.57-.71-5.21-.7-9.78-.7-9.82,0-1.26-1.01-2.29-2.27-2.3Z"/><path class="cls-1" d="M32.2,47.6s25.02-.15,29.46,.12c.61,3.86-.14,18.45-1.02,22.15-.38,1.61-1.87,2.02-6.65,1.85-1.28-.04-2.32,.94-2.37,2.2-.04,1.26,.94,2.32,2.2,2.37,.66,.02,1.37,.05,2.1,.05,3.7,0,8.03-.64,9.16-5.41,1.04-4.42,1.74-17.21,1.25-23.35-.19-3.41-.91-4.54-4.8-4.54h-11.08l.12-10.19h12.03c1.26,0,2.29-1.02,2.29-2.29s-1.02-2.29-2.29-2.29h-11.98l.1-8.33h11.88c1.26,0,2.29-1.02,2.29-2.29s-1.02-2.29-2.29-2.29h-11.83l.08-6.8h12.54c1.26,0,2.29-1.02,2.29-2.29s-1.02-2.29-2.29-2.29H31.33c-1.23,0-2.24,.98-2.28,2.21-.05,1.36-1.04,34.12-1.14,36.8-.1,2.68,.83,4.56,4.3,4.59Zm1.34-39.03h12.75l-.08,6.8h-12.89c.09-2.82,.17-5.24,.22-6.8Zm-.37,11.37h12.98l-.1,8.33h-13.15c.09-2.76,.18-5.62,.26-8.33Zm-.41,12.88s.07,.02,.11,.02h13.13l-.12,10.18h-13.45s.14-4.45,.32-10.2Z"/><path class="cls-1" d="M159.83,76.58c.1,0,.2,0,.29-.02,.46-.06,11.43-1.49,20.22-4.47,.92-.31,1.5-1.15,1.54-2.06h14.37c.04,.91,.62,1.75,1.54,2.06,8.79,2.98,19.76,4.41,20.22,4.47,.1,.01,.2,.02,.29,.02,1.13,0,2.12-.84,2.26-1.99,.16-1.25-.72-2.4-1.97-2.56-.07,0-5.17-.67-11.05-2h5.78c.61,0,1.19-.24,1.62-.67,.43-.43,.67-1.01,.67-1.62l-.02-17.35s0-.02,0-.03,0-.02,0-.03v-8.82c-.01-1.26-1.04-2.28-2.3-2.28h-47.54c-1.26,0-2.29,1.02-2.29,2.28v26.23c0,.61,.23,1.19,.66,1.62,.43,.43,1.01,.67,1.62,.67h4.85c-5.88,1.32-10.98,1.99-11.05,2-1.25,.16-2.14,1.31-1.98,2.56,.15,1.15,1.13,1.99,2.26,1.99Zm8.21-32.78h42.98v4.27h-42.98v-4.27Zm0,8.85h42.99v3.97h-42.99v-3.97Zm0,12.81v-4.27h43.01v4.27h-43.01Z"/></g></g></svg>