<svg width="60" height="60" viewBox="0 0 60 60" fill="none" xmlns="http://www.w3.org/2000/svg">
<path d="M19.91 32.69V34.37C19.91 35.05 20.47 35.61 21.15 35.61C21.83 35.61 22.39 35.05 22.39 34.37V32.69C22.39 32.01 21.83 31.45 21.15 31.45C20.47 31.45 19.91 32.01 19.91 32.69ZM21.15 31.7C21.01 31.7 20.88 31.73 20.76 31.78C20.88 31.73 21.01 31.7 21.15 31.7ZM21.15 35.36C20.6 35.36 20.16 34.92 20.16 34.37C20.16 34.92 20.6 35.36 21.15 35.36C21.42 35.36 21.67 35.25 21.85 35.07C21.67 35.25 21.42 35.36 21.15 35.36Z" fill="#363636"/>
<path d="M39.03 35.62C39.71 35.62 40.27 35.06 40.27 34.38V32.7C40.27 32.02 39.71 31.46 39.03 31.46C38.35 31.46 37.79 32.02 37.79 32.7V34.38C37.79 35.06 38.35 35.62 39.03 35.62ZM38.04 32.7C38.04 32.15 38.48 31.71 39.03 31.71C38.48 31.71 38.04 32.15 38.04 32.7V34.38C38.04 34.93 38.48 35.37 39.03 35.37C39.58 35.37 40.02 34.93 40.02 34.38C40.02 34.93 39.58 35.37 39.03 35.37C38.48 35.37 38.04 34.93 38.04 34.38V32.7Z" fill="#363636"/>
<path d="M54.66 31.23C54.34 28.36 52.04 26.05 49.17 25.72C47.94 21.93 45.54 18.5 42.4 16.05C42.18 15.88 41.92 15.79 41.64 15.79C41.25 15.79 40.9 15.96 40.66 16.27C40.46 16.53 40.37 16.86 40.41 17.19C40.45 17.52 40.62 17.81 40.88 18.02C43.47 20.04 45.5 22.86 46.62 25.98C45.74 26.25 44.92 26.7 44.25 27.31C44 27.53 43.86 27.84 43.84 28.17C43.82 28.5 43.94 28.82 44.16 29.07C44.39 29.33 44.73 29.48 45.08 29.48C45.39 29.48 45.68 29.37 45.91 29.16C46.56 28.58 47.4 28.23 48.29 28.2C48.37 28.2 48.44 28.2 48.51 28.2C48.65 28.2 48.77 28.2 48.88 28.22C50.61 28.41 52.01 29.81 52.2 31.54C52.32 32.63 51.99 33.68 51.26 34.49C50.54 35.29 49.52 35.75 48.44 35.75C48.44 35.75 48.41 35.75 48.39 35.75C48.34 35.75 48.29 35.75 48.24 35.75C47.68 35.75 47.19 36.12 47.04 36.66C44.94 44.31 37.94 49.65 30 49.65C22.06 49.65 15.05 44.31 12.96 36.67C12.81 36.13 12.32 35.76 11.77 35.76C11.74 35.76 11.7 35.76 11.67 35.76C11.63 35.76 11.6 35.76 11.57 35.76C10.5 35.76 9.46999 35.3 8.74999 34.5C8.01999 33.69 7.68999 32.64 7.80999 31.55C7.99999 29.82 9.39999 28.42 11.13 28.23C11.24 28.22 11.37 28.21 11.5 28.21C11.57 28.21 11.63 28.21 11.71 28.21C12.6 28.24 13.44 28.59 14.09 29.17C14.32 29.38 14.61 29.49 14.92 29.49C15.27 29.49 15.61 29.34 15.84 29.08C16.06 28.83 16.17 28.52 16.16 28.18C16.14 27.85 16 27.54 15.75 27.32C15.07 26.71 14.25 26.25 13.36 25.99C15.13 21.07 19.09 17.12 24.01 15.34C24.55 17.71 26.65 19.4 29.1 19.4C31.55 19.4 33.23 17.74 33.23 15.27C33.23 13.18 31.53 11.48 29.44 11.48C28.76 11.48 28.2 12.04 28.2 12.72C28.2 13.4 28.76 13.96 29.44 13.96C30.16 13.96 30.75 14.55 30.75 15.27C30.75 16.36 30.2 16.92 29.1 16.92C27.58 16.92 26.35 15.69 26.35 14.17C26.35 14.05 26.35 13.92 26.37 13.8C26.56 11.87 28.16 10.42 30.1 10.42C32.85 10.42 35.09 12.66 35.09 15.41C35.09 19.02 32.15 21.96 28.54 21.96C27.86 21.96 27.3 22.52 27.3 23.2C27.3 23.88 27.86 24.44 28.54 24.44C33.52 24.44 37.57 20.39 37.57 15.41C37.57 11.29 34.22 7.94 30.1 7.94C27.18 7.94 24.71 9.9 24.05 12.71C17.78 14.64 12.85 19.5 10.83 25.74C7.95999 26.07 5.64999 28.38 5.33999 31.25C5.13999 33.03 5.70999 34.81 6.89999 36.13C7.91999 37.27 9.30999 37.99 10.82 38.17C13.48 46.39 21.34 52.11 30 52.11C38.66 52.11 46.51 46.39 49.17 38.17C50.69 37.99 52.08 37.27 53.1 36.13C54.29 34.81 54.85 33.03 54.66 31.25V31.23ZM41.81 16.06C41.74 16.05 41.66 16.04 41.59 16.04C41.61 16.04 41.63 16.03 41.64 16.03C41.7 16.03 41.75 16.05 41.81 16.06ZM42.25 16.24C42.15 16.16 42.04 16.11 41.92 16.08C42.03 16.11 42.15 16.17 42.25 16.24ZM41.32 16.1C41.32 16.1 41.23 16.12 41.19 16.14C41.23 16.12 41.27 16.11 41.32 16.1ZM40.86 16.41C40.69 16.63 40.63 16.89 40.66 17.14C40.63 16.89 40.69 16.62 40.86 16.41ZM44.59 21.54C44.09 20.84 43.54 20.17 42.95 19.54C43.54 20.16 44.09 20.83 44.59 21.54C45.59 22.95 46.38 24.49 46.95 26.13C46.39 24.5 45.59 22.95 44.59 21.54ZM44.42 27.47C44.6 27.31 44.79 27.16 44.99 27.02C44.79 27.16 44.6 27.31 44.42 27.47C44.32 27.56 44.24 27.67 44.19 27.79C44.24 27.67 44.32 27.57 44.42 27.47ZM44.15 28.53C44.19 28.65 44.26 28.77 44.35 28.87C44.4 28.92 44.46 28.95 44.52 28.99C44.46 28.95 44.4 28.92 44.35 28.87C44.26 28.77 44.19 28.65 44.15 28.53ZM45.75 28.94C45.66 29.03 45.55 29.09 45.44 29.13C45.55 29.09 45.66 29.02 45.75 28.94C46.1 28.63 46.49 28.38 46.92 28.21C46.49 28.38 46.09 28.63 45.75 28.94ZM48.91 27.94C48.8 27.93 48.68 27.92 48.55 27.92C48.68 27.92 48.8 27.92 48.91 27.94C50.3 28.09 51.48 28.97 52.07 30.18C51.48 28.97 50.3 28.1 48.91 27.94ZM51.45 34.63C51.84 34.2 52.12 33.7 52.29 33.17C52.12 33.7 51.84 34.2 51.45 34.63C51.26 34.84 51.05 35.03 50.82 35.2C51.05 35.03 51.26 34.84 51.45 34.63ZM48.4 35.98C48.31 35.97 48.22 35.98 48.13 35.98C48.17 35.98 48.21 35.96 48.25 35.96C48.3 35.96 48.35 35.96 48.4 35.97V35.98ZM47.69 36.15C47.63 36.19 47.58 36.25 47.53 36.3C47.58 36.24 47.63 36.19 47.69 36.15ZM47.99 36.01C47.92 36.03 47.86 36.06 47.8 36.09C47.86 36.06 47.92 36.03 47.99 36.01ZM48.09 40.23C47.87 40.72 47.63 41.19 47.37 41.65C47.63 41.19 47.87 40.71 48.09 40.23ZM47.29 36.69C47.32 36.57 47.38 36.47 47.44 36.38C47.37 36.47 47.32 36.58 47.29 36.69ZM44.82 42.02C44.27 42.82 43.67 43.57 43.01 44.27C43.67 43.57 44.28 42.82 44.82 42.02ZM46.66 38.52C46.41 39.15 46.13 39.76 45.82 40.35C46.13 39.76 46.42 39.15 46.66 38.52ZM30 49.87C34.53 49.87 38.76 48.16 41.97 45.27C38.76 48.15 34.53 49.87 30 49.87C27.48 49.87 25.06 49.34 22.85 48.38C25.06 49.34 27.48 49.87 30 49.87V49.87ZM19.14 46.19C17.62 45.03 16.28 43.63 15.18 42.03C16.27 43.63 17.61 45.03 19.14 46.19ZM12.72 36.7C12.69 36.59 12.64 36.48 12.57 36.39C12.64 36.48 12.69 36.58 12.72 36.7ZM12.49 36.31C12.44 36.26 12.39 36.2 12.33 36.16C12.39 36.2 12.44 36.26 12.49 36.31ZM11.76 35.97C11.76 35.97 11.85 35.99 11.9 35.99C11.82 35.98 11.74 35.96 11.65 35.97C11.69 35.97 11.72 35.97 11.76 35.97ZM12.22 36.1C12.16 36.07 12.1 36.04 12.04 36.02C12.1 36.04 12.16 36.07 12.22 36.1ZM8.28999 29.6C8.80999 28.88 9.55999 28.33 10.43 28.07C9.55999 28.33 8.80999 28.87 8.28999 29.6ZM11.11 27.94C11.22 27.93 11.34 27.92 11.47 27.92C11.34 27.92 11.22 27.92 11.11 27.94ZM11.73 27.92C12.2 27.94 12.66 28.04 13.09 28.21C12.66 28.04 12.2 27.94 11.73 27.92ZM15.67 28.87C15.57 28.98 15.46 29.06 15.33 29.12C15.46 29.07 15.57 28.98 15.67 28.87C15.76 28.77 15.83 28.65 15.87 28.53C15.83 28.65 15.76 28.77 15.67 28.87ZM13.05 26.12C13.66 24.35 14.55 22.72 15.65 21.25C14.55 22.72 13.66 24.35 13.05 26.12ZM29.12 19.12C26.66 19.12 24.61 17.32 24.22 14.97C21.02 16.06 18.24 18.04 16.14 20.61C18.24 18.05 21.02 16.07 24.22 14.97C24.62 17.32 26.66 19.12 29.12 19.12C30.28 19.12 31.25 18.73 31.93 18.05C31.25 18.73 30.28 19.12 29.12 19.12V19.12ZM29.45 11.7C29.18 11.7 28.93 11.81 28.75 11.99C28.93 11.81 29.18 11.7 29.45 11.7ZM30.06 13.81C29.87 13.73 29.67 13.69 29.45 13.69C29.18 13.69 28.93 13.58 28.75 13.4C28.93 13.58 29.18 13.69 29.45 13.69C29.67 13.69 29.87 13.73 30.06 13.81C30.53 14.01 30.88 14.43 30.98 14.93C30.88 14.42 30.52 14 30.06 13.81V13.81ZM30.53 16.66C30.77 16.42 30.93 16.09 30.99 15.69C30.93 16.1 30.77 16.42 30.53 16.66C30.21 16.98 29.73 17.15 29.12 17.15C29.73 17.15 30.21 16.98 30.53 16.66ZM35.06 17.42C34.93 17.85 34.75 18.25 34.54 18.64C34.75 18.25 34.92 17.85 35.06 17.42ZM33.6 19.95C33.38 20.2 33.14 20.43 32.89 20.64C33.15 20.43 33.38 20.19 33.6 19.95ZM30.58 21.89C30.15 22.02 29.71 22.11 29.25 22.16C29.71 22.11 30.15 22.02 30.58 21.89V21.89ZM27.57 23.19C27.57 23.74 28.01 24.18 28.56 24.18C29.66 24.18 30.71 23.97 31.68 23.6C30.71 23.97 29.66 24.18 28.56 24.18C28.01 24.18 27.57 23.74 27.57 23.19ZM32.35 23.31C32.74 23.12 33.12 22.92 33.47 22.68C33.12 22.92 32.74 23.13 32.35 23.31ZM34.15 22.17C34.8 21.63 35.37 21 35.85 20.3C35.38 21 34.8 21.63 34.15 22.17ZM24.28 12.89C24.35 12.55 24.45 12.22 24.58 11.9C25.09 10.64 26.01 9.6 27.17 8.94C27.75 8.61 28.39 8.38 29.07 8.26C28.39 8.38 27.75 8.61 27.17 8.94C26.01 9.6 25.09 10.64 24.58 11.9C24.45 12.22 24.35 12.55 24.28 12.89C21.13 13.84 18.32 15.54 16.04 17.79C18.32 15.54 21.14 13.84 24.28 12.89ZM5.58999 31.25C5.69999 30.21 6.08999 29.25 6.66999 28.44C6.08999 29.25 5.69999 30.21 5.58999 31.25C5.56999 31.46 5.54999 31.68 5.54999 31.89C5.54999 32.68 5.69999 33.46 5.99999 34.19C5.70999 33.47 5.54999 32.69 5.54999 31.89C5.54999 31.68 5.55999 31.46 5.58999 31.25V31.25ZM13.85 43.56C12.63 41.87 11.66 39.97 11.01 37.91C10.26 37.84 9.52999 37.63 8.85999 37.3C9.52999 37.63 10.25 37.84 11.01 37.91C11.66 39.97 12.62 41.87 13.85 43.56C14.46 44.41 15.14 45.2 15.87 45.93C15.14 45.19 14.46 44.4 13.85 43.56ZM23.73 50.82C22.74 50.49 21.78 50.08 20.85 49.6C19.47 48.88 18.17 48.01 17 46.99C18.18 48 19.47 48.88 20.85 49.6C21.77 50.08 22.73 50.49 23.73 50.82C25.72 51.48 27.83 51.84 30 51.84C27.83 51.84 25.71 51.48 23.73 50.82ZM36.27 50.82C37.76 50.32 39.18 49.65 40.5 48.83C39.18 49.65 37.76 50.32 36.27 50.82ZM41.78 47.96C43.36 46.8 44.76 45.4 45.94 43.82C44.76 45.4 43.36 46.8 41.78 47.96V47.96ZM48.98 37.91C49.73 37.84 50.46 37.63 51.13 37.3C50.46 37.63 49.73 37.84 48.98 37.91Z" fill="#363636"/>
<path d="M33.85 39.39C32.98 40.67 31.54 41.43 30 41.43C28.46 41.43 27.02 40.67 26.15 39.39C25.92 39.05 25.53 38.85 25.12 38.85C24.87 38.85 24.63 38.92 24.42 39.07C23.85 39.46 23.71 40.23 24.09 40.79C25.42 42.75 27.63 43.91 29.99 43.91C32.35 43.91 34.56 42.74 35.89 40.79C36.28 40.22 36.13 39.45 35.56 39.07C35.35 38.93 35.11 38.85 34.86 38.85C34.45 38.85 34.06 39.05 33.83 39.39H33.85ZM35 39.12C34.93 39.12 34.87 39.12 34.8 39.12C34.83 39.12 34.85 39.1 34.87 39.1C34.91 39.1 34.96 39.11 35 39.12ZM34.39 39.24C34.39 39.24 34.47 39.21 34.51 39.19C34.47 39.21 34.43 39.22 34.39 39.24ZM30 41.68C31.02 41.68 31.99 41.37 32.8 40.8C31.99 41.36 31.02 41.68 30 41.68C28.98 41.68 28.01 41.37 27.2 40.8C28.01 41.36 28.98 41.68 30 41.68V41.68ZM25.48 39.19C25.48 39.19 25.56 39.22 25.6 39.24C25.56 39.22 25.52 39.21 25.48 39.19ZM25.19 39.12C25.12 39.12 25.06 39.12 24.99 39.12C25.03 39.12 25.08 39.1 25.12 39.1C25.15 39.1 25.17 39.12 25.19 39.12ZM24.89 39.14C24.78 39.17 24.66 39.21 24.56 39.28C24.66 39.21 24.77 39.17 24.89 39.14ZM24.29 39.56C24.22 39.67 24.17 39.79 24.15 39.91C24.17 39.79 24.22 39.67 24.29 39.56ZM30 43.67C29.14 43.67 28.31 43.51 27.53 43.21C28.31 43.51 29.14 43.67 30 43.67C30.86 43.67 31.69 43.51 32.47 43.21C31.69 43.51 30.86 43.67 30 43.67ZM35.85 39.91C35.83 39.79 35.78 39.67 35.71 39.56C35.78 39.67 35.83 39.79 35.85 39.91ZM35.11 39.14C35.22 39.17 35.34 39.21 35.44 39.28C35.34 39.21 35.23 39.17 35.11 39.14Z" fill="#363636"/>
</svg>
