<?xml version="1.0" encoding="utf-8"?><svg xmlns="http://www.w3.org/2000/svg" fill="#E5CB5C" viewBox="0 0 360 195"><path d="M211.3 102.4c0 .1 0 .1-.1.2h2.6v-.2h-2.5zm-2.2-.4c-.1 0-.2.1-.4.1.1.2.2.3.3.5.1 0 .2-.1.2-.1 0-.1-.1-.3-.1-.5zm75-1.2c-.6 1.2-1 2-1.5 2.7.1.1.2.1.3.2.4-.4.9-.7 1.4-1.1 0-.4 0-.9-.2-1.8zM92.6 98.4c-.2.8-.5 1.5-.6 2.2.3 0 .6.2.8.2.2-.8.5-1.5.6-2.3-.2-.1-.5-.1-.8-.1zm14.7.5c-.1 0-.2.1-.3.1 0 .2.1.3.1.5 0 0 .2 0 .4-.1 0-.1-.1-.3-.2-.5zM218.1 132c.1.9.2 1.5.3 2.6 1.2-1.8 1.2-1.9-.3-2.6zm53.5-34.4c-.3 0-.6.1-1 .1.1.4.1.8.3 1.5.2-.8.4-1.2.7-1.6zm-88.4 1.3c-.2.4-.3.8-.5 1.2.2.1.3.1.5.2.1-.4.3-.9.4-1.3-.1 0-.2-.1-.4-.1zm-74.9 12.6v.3h2.6v-.5l-2.6.2zm131.2 1.3c-.2 0-.4.1-.6.1-.1.2-.2.3-.4.6.3.2.6.4.8.6.1-.1.3-.1.4-.2 0-.4-.1-.8-.2-1.1zm-198.7 2.9c.1.1.3.2.5.3-.1-.2-.1-.5-.2-.9-.2.4-.3.5-.3.6zm99-8.6c-.8.7-.8 1.3.1 2 .7-.7.8-1.3-.1-2zm-3.8-.5c-.1.5-.1.8-.2 1.3.5-.2.8-.3 1.4-.5-.6-.3-.8-.5-1.2-.8zm5.1 2.8h.3c0-.1-.1-.2-.1-.3-.1.1-.2.2-.2.3zm205 .1l-.1.1c0 .2.1.4.1.6l.4-.4c-.2-.1-.3-.2-.4-.3zm-108.5.2c.3-.1.5-.1.9-.2-.8-.6-.8-.6-.9.2zm108.3 1.2c-.8-.6-1.5-.8-2.2.1.9.8 1.5.8 2.2-.1zm-208.3.5c-.1 0-.3.1-.7.2.2.4.4.8.5 1.2.7-1 .7-1 .2-1.4zM170 95.1c-.9-.2-1.5-.2-1.9 1 .9-.4 1.4-.7 1.9-1zm160.9-12.2c-.1.1-.2.1-.4.2.3.5.5 1 .8 1.5.2-.1.3-.2.5-.3-.2-.5-.6-1-.9-1.4zm-253 4.4c.1.3.2.6.3.8.1-.3.1-.6.2-.8h-.5zm138.4-.2s-.1-.2-.2-.3c-.2.1-.3.2-.5.3.1.1.1.2.2.3.2-.1.4-.2.5-.3zm58.5-.1c0-.1-.1-.2-.1-.3-.3 0-.5.1-.8.1 0 .2.1.3.1.5l.8-.3zM78.1 88.1c-.4 0-.7-.1-1.1-.1v.2l1.1-.1c.1 0 0 0 0 0zm170.5-5.5h-.3v.7c.2 0 .3 0 .5-.1 0-.2-.1-.4-.2-.6zm-34.3 10.3l-.5-.5c-.4.5-.9 1.1-1.3 1.6 1.1.2 1.7-.2 1.8-1.1zM75.9 88.6l-.3.9c.2 0 .3.1.5.1.1-.3.2-.6.2-.9-.2 0-.3 0-.4-.1zm101.4 4.7c0 .2-.1.4-.1.7.1 0 .2.1.3.1.1-.2.2-.4.4-.6-.2-.1-.4-.2-.6-.2zm-64.8-5.5c-.7.8-1.2 1.4-2 2.3 2-.5 2-.5 2-2.3zm-42.8 5.6c1.2-.8 2.2-1.2 3.5-2-2.6 0-2.6 0-3.5 2zm110.2-1.5c-.1.2-.3.3-.4.5.1.1.2.1.2.2l.5-.5c-.1-.1-.2-.2-.3-.2zm20.3 48.8c-.4.1-.8.3-1.3.4.1.1.1.3.2.4.4-.1.8-.3 1.2-.4-.1-.2-.1-.3-.1-.4zm140.2-4.1h.4c0-.1-.1-.2-.1-.3l-.3.3zm-39.2-1.4v.5h.2v-.5h-.2zm-186.6 13.2c-.3 0-.2 0 0 0zm0 0c-.3-.1-.2 0 0 0zm-34.2-.8s-.1.1-.1.2c.1 0 .1.1.2.1 0 0 .1-.1.1-.2s-.1-.2-.2-.1zm158.3.7c-.1 0-.2.1-.3.1 0 .2.1.4.1.6.2 0 .4-.1.6-.1-.2-.2-.3-.4-.4-.6zm-47.3 1.8h-.2v.2h.3c0-.1 0-.2-.1-.2zm15-2.6c0-.1-.1-.2-.1-.3-.2.1-.4.1-.6.2l.1.2c.1 0 .4-.1.6-.1zm-109.1-3.4c0 .1.1.2.2.5.5-.3.9-.5 1.5-.8-.9-.5-1.4-.2-1.7.3zm45.4-27.9c-.1 0-.1 0-.2.1 0 .2.1.4.1.6h.3c-.2-.2-.2-.4-.2-.7zm107 .3v1h.3c.1-.3.2-.7.3-1h-.6zm-101.6-1c-.1.4-.1.9-.2 1.3.2 0 .3.1.5.1.1-.4.3-.9.4-1.3-.2 0-.5-.1-.7-.1zm6.4 2.6l-.9.6c.1.1.2.2.2.3l.9-.6-.2-.3zm101.5.6c-.3.1-.5.3-.8.4.1.1.1.2.2.3.2-.2.5-.3.7-.5 0 0 0-.1-.1-.2zm-94.2-36.4l.1.2.1-.2zM61.1 126.4c.1 0 .1 0 0 0 .1 0 0 0 0 0l-1.2 1.3c.9-.1 1.8-.2 1.2-1.3zm100.8.8c.6-.4 1.1-.7 1.7-1.1-.1-.1-.1-.2-.2-.3l-1.8.9c0 .2.2.4.3.5zm145.1 5.5c0 .1 0 .1-.1.2.1 0 .1-.1.2-.1 0 0-.1 0-.1-.1z" class="st0"/><path d="M61.9 126.5c-.2 0-.5-.1-.7-.1.2.1.4.2.7.3v-.2zm276.9-80.2l-.6.3c0 .1 0 .1.1.2l.6-.1-.1-.4zm-135.6 3c.6.1.9.2 1.6.3-.2-.6-.3-.9-.4-1.5l-1.2 1.2zm74.7-4c0 .3-.1.5-.1.8.1 0 .2 0 .3.1.1-.3.1-.5.2-.8l-.4-.1zm60.8-3.2v1.6s.2.1.3.1v-1.7h-.3zm-10.6-.3c.7.6 1.2 1.1 1.7 1.5-.3-1.4-.3-1.4-1.7-1.5zm-118.9 3.9c.3.2.5.4.7.4.1 0 .3-.1.7-.4h-1.4zm-12.6-.5v.3c.1 0 .3-.1.4-.1-.1-.1-.2-.1-.4-.2zM309 43.1c.1.1.2.1.3.2 0-.2.1-.3.2-.8-.3.4-.4.5-.5.6zm-2.8 13.7l-.1.1c.1.1.3.2.4.4l.1-.1c-.1-.1-.3-.2-.4-.4zm-125.3-.3c-.3 0-.6.1-.9.1l.1.4c.3-.1.6-.1.9-.2-.1-.1-.1-.2-.1-.3zM11.6 58.9c.1.1.3.3.7.8-.2-.6-.3-.8-.4-1l-.3.2zM287 58h-.1v.4h.2c-.1-.1-.1-.2-.1-.4zm-9.5-.3c-.1.1-.1.2-.2.4h.4c0-.2-.1-.3-.2-.4zm62.4-2.5h-.2c0 .2 0 .3.1.5h.1v-.5zm-59.5-4.5c.6.4 1 .7 1.5 1v-1.3c-.5.2-.8.2-1.5.3zM147.6 50c1.1 1.8 1.1 1.8 2.6 1.3-.8-.4-1.5-.8-2.6-1.3zm27.4 3.5v.2h.7v-.3c-.2.1-.5.1-.7.1zM15.8 55c.5.1.9.1 1.5.3-.2-.6-.3-1-.4-1.7-.5.7-.8.9-1.1 1.4zm306.7-15.4c-.1 0-.2 0-.3.1 0 .2.1.4.1.6.1 0 .2 0 .3-.1-.1-.2-.1-.4-.1-.6zM165.7 42h-.2v.8c.1 0 .3-.1.4-.1-.1-.2-.2-.5-.2-.7zm-58.2-8.2v.2c.3.1.7.2 1 .3 0-.2.1-.4.1-.6-.4.1-.7.1-1.1.1zm-13.1 36c-.1 0-.1 0-.2.1 0 .1 0 .1.1.2.1 0 .1 0 .2-.1 0-.1-.1-.2-.1-.2zm-34.2 6.1s.1.1 0 0c.1.1 0 0 0 0zm269.4-.3h-.7v.5c.2 0 .5-.1.7-.2.1.1 0-.3 0-.3zm-157.3-2.9c1-.1 1.8-.1 2.6-.2-.8-.2-1.6-.9-2.6.2zm134.3 3.9c-.1-.3-.1-.2 0 0zM291 73.8l.1.2v-.2zm-81.1-.1c0 .1.2.2.3.2 0-.2 0-.4-.1-.7-.1.3-.2.4-.2.5zm-93.7-.9c.1.1.2.1.3.2l.1-.1c-.1-.1-.3-.1-.4-.1zm-71.9 4l.1.2c.1 0 .1 0 .2-.1-.1-.1-.2-.1-.3-.1zm168.5-2.2c-.1 0-.2.1-.3.1.1.1.2.3.2.4.1 0 .1-.1.2-.1 0-.1 0-.2-.1-.4zm64.7.5s0-.1 0 0l-.4-.1v.1h.4zM56 74.9c-.1 0-.1 0-.2.1l.1.1h.2c-.1 0-.1-.1-.1-.2zm250.7 3.4h-.3v2.1h.5c0-.6-.1-1.4-.2-2.1zm-149.2 3.1v.2l.2-.2zm-42.7 0c-.3 0-.6.1-.9.1 0 .1.1.3.1.4l.8-.2c.1-.1.1-.2 0-.3zm33.5-2.6c-.1.1-.2.1-.7.4.5-.1.6-.2.8-.2-.1-.1-.1-.2-.1-.2zm138.1-1.2c0 .1-.1.3 0 0zm0 0c.1.2.1.3 0 0zm7.1.5c-.1.1-.1.2-.2.4.2.1.4.1.6.2 0-.1.1-.2.1-.3-.1-.1-.3-.2-.5-.3zM199.6 2.5h-.3v.8c.2 0 .3 0 .5-.1 0-.2 0-.4-.2-.7zM70.4 65h3.9c-1.5-.5-2.5-1.1-3.9 0zm-55.7.1c0 .1-.1.2-.1.4l.3-.3c-.1 0-.1-.1-.2-.1zm166.6-4.8v-.2l-.2.1zm-28.3.3c-.1-.1-.2-.1-.3-.2-.2.2-.5.3-.9.6.4.1.7.2.8.2.2-.1.3-.4.4-.6zm22 .1c0-.2 0-.4.1-.7h-.4v.7h.3zM335.2 70c-.1.2-.1.4-.2.6.5.1 1 .3 1.5.4l.1-.3c-.5-.3-.9-.5-1.4-.7zm-137.8 2.4c.2-.1.3-.2.5-.3l-.2-.2c-.1.1-.3.2-.3.5 0-.1 0-.1 0 0zm-86.5-5.1c0 .1 0 .3-.1.4h.6c0-.1 0-.1.1-.2-.2-.1-.4-.1-.6-.2zm-63.4 1l.1.2.1-.2zm61-2.4h-.2c0 .2.1.4.1.7h.3c-.1-.3-.1-.5-.2-.7zm5.3 1.8l-.1-.6h-.3v.5c.1.1.3.1.4.1zm41.6-.2c-.1 0-.1.1-.2.1l.1.1c.1 0 .1-.1.2-.1 0 0-.1 0-.1-.1zM109 168.6v-.2h-.6v.2c.2-.1.4-.1.6 0zm-32.6-.2c-.2.3-.3.5-.5.8.2.1.3.2.5.2l.3-.9s-.2-.1-.3-.1zm55.1-.4l.2.1v-.2zM7.3 171c0 .2 0 .3-.1.5h.3v-.5c-.1.1-.2 0-.2 0zm29.3-.2c0-.4 0-.7-.1-1.2-.6.8-.6.8.1 1.2zm101.2-7.5c-.1.3-.1.6-.2.9.2 0 .3 0 .5.1v-.9c-.1-.1-.2-.1-.3-.1zm-60.2 3.2c-.2.3-.4.5-.7.8.1.1.3.2.4.3.2-.3.4-.5.7-.8-.1-.1-.2-.2-.4-.3zm53.9-.6c-.1-.2-.1-.1 0 0zm0 0c0-.1 0-.2 0 0zm224.5 1.3c-.3.1-.5.2-.8.3.1.1.1.2.2.3.2-.1.5-.2.7-.3 0-.1-.1-.2-.1-.3zm-247.1-2.7v.4h.1c0-.1 0-.3-.1-.4zM359 166c0 .1 0 .1-.1.2.1 0 .1.1.1 0 0 0 .1-.1 0-.2.1.1 0 .1 0 0zm-215.7 3.4s-.1 0-.2-.1c0 .1-.1.1-.1.2 0 0 .1 0 .1.1.1-.1.2-.1.2-.2zm-13.2 9.5c-.3.2-.7.4-1 .6.1.1.1.2.2.3.3-.2.7-.3 1-.5-.1-.2-.1-.3-.2-.4zm-88.5-1.8c0-.1 0-.1 0 0 0-.1 0-.1 0 0 0-.2.1-.3 0 0zm-.1-.1c0-.1 0-.1 0 0zm198.8 3.5l-.4.4s.1.1.1.2l.5-.4-.2-.2zm-106.6-.5h-.9v.5c.3-.1.6-.1 1-.2-.1 0-.1-.1-.1-.3zm11-38.2h-.9v.5c.3-.1.6-.1 1-.2-.1 0-.1-.1-.1-.3zm25.6 32.9c-.1 0-.2.1-.3.2.1.1.2.2.2.3.1-.1.2-.2.2-.3 0-.1-.1-.2-.1-.2zm80.9-.5c0 .1 0 .1-.1.2.1 0 .1-.1.1-.2.1 0 .1 0 0 0zm-19.1 7.8h-.2v.2c.1 0 .1 0 .2-.2 0 .1 0 0 0 0zM6.9 175.3c-.1.1-.2.1-.3.2.1.2.3.3.4.5.1-.1.2-.1.3-.2-.1-.1-.2-.3-.4-.5zm82.9-20.9h-.2v.5h.1l.1-.5zm115.4.1v.3h.9v-.3h-.9zm-163.8 27c.3.1.2 0 0 0zm80.3-25.8c0 .1 0 .1 0 0 0 .1 0 .1 0 0zm.1.1c-.1 0-.1 0 0 0-.1 0-.1 0 0 0zM76 163.9l.1.1c0-.1 0-.2.1-.4-.1.2-.1.2-.2.3zm60.9-11.5l-.3.3.6.6.3-.3c-.2-.1-.4-.3-.6-.6zm-32.2-1.3c-.2.1-.5.2-.7.2 0 .1.1.2.1.3.2-.1.5-.1.7-.2-.1-.1-.1-.2-.1-.3zm1.1-.2c.1 0 .2.1.4.1v-.1h-.4zm-93.3 1.9c0-.1 0-.1 0 0 0-.1 0-.1 0 0 .1-.1.1-.1 0 0 .1-.1.1-.1 0 0zm207.1 3.8c.1.1.2.1.3.2 0-.1.1-.1.1-.2h-.4zm-102.2 5.3c.7.1.8.1 1 .2v-.2h-1zm-36.2-1c-.5.3-.9.5-1.4.8.1.1.2.3.3.4.5-.2.9-.5 1.4-.7-.1-.2-.2-.3-.3-.5zm72.3.5c-.1 0-.2.1-.3.1.1.2.1.4.2.7.1 0 .2-.1.4-.1l-.3-.7zm9.2 5.8l-.3.6c.1.1.2.1.3.2.2-.2.3-.4.5-.5l-.5-.3zm7 1.5c.1-.1.2-.4.3-.5l-.3-.2c-.2.2-.5.4-.9.9.5-.1.8-.1.9-.2zm85.2-12.1c.1.1.3.1.8.3-.4-.4-.5-.6-.6-.7-.1.1-.2.3-.2.4zM86 158.7v.3c.1-.1.1-.2.2-.3-.1.1-.2.1-.2 0zm3.6-1.3c0 .1.1.1.1.2 0-.1 0-.1.1-.2h-.2zm14.8 1.9c-.3.1-.7.2-1 .2 0 .1.1.3.1.4l1-.2c0-.1-.1-.2-.1-.4zm255.7 8.6c-.4 0-.7 0-1.5.1 1.1.7 1.1.7 1.5-.1zM26 189.4c.2 0 .1 0 0 0zm15.4-7.9c.2 0 .3 0 0 0zM26 189.4c.1 0 .2-.1 0 0zm82.9-3.4c0 .1 0 .1 0 0 0 .1 0 .1 0 0zm-80.8 2.2c-.3.1-.6.1-.8.2.1.1.2.2.3.2.3 0 .6-.1.9-.1-.2-.1-.3-.2-.4-.3zm152.1-.2l-.3.6.2.1c.1-.2.2-.4.4-.5l-.3-.2zm-149-1.4v.3c.1-.1.2-.1.3-.2-.1 0-.2 0-.3-.1zm7.9-4c-.8.4-1.5.7-2.3 1.1 1 .2 1.6.3 2.4.4 0-.5 0-.9-.1-1.5zm69.8 3.4c0 .1 0 .2 0 0zm-73-2c-.2.2-.3.4-.5.5.1.1.2.1.2.2l.5-.5-.2-.2zm68.5 9.3c-.1.1-.2.2 0 0zM30.6 189c.6.5.8.7 1.1.9l.9-.9h-2zm50.9 3.3l-.3.6c.1 0 .2.1.3.1l.3-.6c-.1 0-.2-.1-.3-.1zm22.9 1c0 .3 0 .1 0 0zm34.2-3.7c-.1.2-.3.4-.4.7.1.1.2.1.3.2.2-.2.3-.4.5-.6-.2-.2-.3-.3-.4-.3zm-119.8 3.6v.3c.1 0 .3-.1.4-.1-.2-.1-.3-.2-.4-.2zM177.1 72.4h-.4c.1 0 .1.1.1.1.1 0 .2-.1.3-.1zm112.7 1.1v-.6h-.2v.6c.1-.1.1 0 .2 0zm38.5 1.4c-.2-.7-.3-1-.4-1.3l-.4.2c.2.2.4.5.8 1.1zm-99.9-2.3v-.2c0 .1-.1.2-.1.2h.1zM126.7 65s.1 0 0 0c.1-.2.1-.2.1-.3 0 0-.1 0-.1.1-.1 0-.1.1 0 .2zm27.6-5.8c.2-.1.4-.1.5-.2v-.3c-.2 0-.4.1-.6.1.1.2.1.3.1.4zm-78.7 5.5l.1-.2-.2.1zm210.2 23.2c0 .1 0 .1.1.2.1 0 .1 0 .2-.1 0-.1 0-.1-.1-.2-.1.1-.2.1-.2.1zM178.1 45c0 .1.1.1.1.2h.2V45h-.3zM356.7 2.6c-.1 0-.2.1-.3.1.1.2.1.4.2.6.1 0 .2-.1.3-.1 0-.2-.1-.4-.2-.6zm-2.9 5.6v.4l1 .2c0-.2 0-.4.1-.5l-1.1-.1zm-8.4 11.4c.5.3.7.4 1.2.7-.1-.5-.1-.8-.2-1.6-.5.4-.7.6-1 .9zm5.9-1.6c-1.3-.1-1.3-.1-1 1.1.4-.4.6-.7 1-1.1zm-43.6 27.5h.6v-.2c-.2 0-.4 0-.6.1v.1zm10.5-36.1l-.7.1c0 .1 0 .2.1.3.2 0 .4-.1.7-.1 0-.1 0-.2-.1-.3zm16.9 147.4c.1-.1.1-.2.2-.4l-.6-.1v.2c.1.1.3.2.4.3zm-.1-4l.1.1c.1 0 .1-.1.2-.1v-.2c-.1.1-.2.2-.3.2zm-111.8-1.5s.1 0 .1.1v-.1s-.1 0-.1-.1v.1zm-9.7 11.5h.1v-.1zm-1.6 1.3v-.1c-.2 0-.3 0-.5-.1v.2h.5zm147.2 20.1c-.1-.1-.1-.2 0 0zm-153.2-.1h.1v-.3h-.1v.3zM111.8 169c0 .1-.1.1-.1.2l.1.1c0-.1.1-.1.1-.2.1 0 0-.1-.1-.1zm-1.4 1.7v-.3h-.8v.3h.8zm32.7-23.7v.4h.1c0-.1 0-.3-.1-.4zm2.9 4.5c0 .1-.1.1-.1.2l.1.1c0-.1.1-.1.1-.2.1 0 0-.1-.1-.1zm-1.4 1.7v-.3h-.8v.3h.8zm-23.8 30.5c-.3.1-.2.1 0 0zm0 0c-.3 0-.2 0 0 0zm62.6-.7c-.3.1-.2 0 0 0zm171.3.3c-.2-.7-.2-.7-1.2-.4.5.2.9.3 1.2.4zm-286.5-.4c.1.2.1.3.2.4 0 0 .2-.1.3-.1-.1-.2-.2-.3-.3-.5 0 .1-.1.1-.2.2zm263-97.3c-.1-.9-.1-1.7-.2-2.5-.6 1.6-.6 1.6.2 2.5zm6.2 94.7h-.2l.1.6h.2c-.1-.2-.1-.4-.1-.6zm-26-86.8c0 .1 0 .1 0 0 .1.1.2.1.3.1v-.1h-.3zm1.1-31.8h.2v-.4h-.1c0 .1 0 .2-.1.4zm-3.8 48.7c1.1-.4 1.9-1.1 1.3-2.8-.6 1.2-1 2-1.3 2.8zm-.8-55.8v-1.5c-.4.1-.8.1-1.5.3.7.5 1 .8 1.5 1.2zm15.9 131.9c0 .1.1.2.1.2.1-.1.3-.2.4-.2 0-.1-.1-.1-.1-.2-.2 0-.3.1-.4.2zm-4.6-81.2s-.3.2-.2.3c.1.2.3.4.4.5.1-.1.2-.3.4-.4-.2-.2-.4-.3-.6-.4zM94.6 92.9c-.2.1-.3.3-.5.4 0 .1.1.1.1.2.2-.1.3-.1.5-.2 0-.1 0-.2-.1-.4zm252 61h.2l-.2-.1zm7.8-63.8c-.4-1-.7-1.6-1-2.1-.3 1-.1 1.6 1 2.1zm-1.8 97.7c0-.1-.1-.3-.1-.4-.2.1-.3.1-.5.2v.3c.3 0 .5 0 .6-.1zm-.4-107.1c-.2-.2-.4-.3-.6-.5-.1.1-.1.2-.2.3l.5.5.3-.3zm-1.4-2.3c-.1-.2-.2-.4-.4-.5-.1.1-.2.1-.2.2.1.2.2.4.4.5 0-.1.1-.1.2-.2zm2.2 107.5h-.1v.2zm-.2-3.3h-.4v1.7h.3c.1-.6.1-1.1.1-1.7zm-.1-137.7c-.3-.7-.6-1.5-2-1.3l1.7 1.7c.1-.1.2-.2.3-.4zm4.2 140.3v-.2h-.1c0 .1 0 .1.1.2-.1 0 0 0 0 0zm0-110.5c.6.3 1.1.4 1.9.7-.6-.8-.9-1.4-1.9-.7zm2.9 84.6c-.1-.7-.2-1-.3-1.6-.4.5-.5.7-.8 1.1.4.2.6.3 1.1.5zm-17.1 23.3l1.6 1.6c-.3-1.6-.3-1.6-1.6-1.6zm-1.4-70.7l-.1.2.1.1zm-.6-15.6h-.1l.1.1zm5-54.3l-.3-.6c-.1.1-.2.1-.3.2l.3.6c.1-.1.2-.1.3-.2zm-42.3 64.1c.2-.7.5-1.3.8-2h-1.5c.2.8.3 1.5.4 2.1.1-.1.2-.1.3-.1zm30.1-61v-.2h-.5v.2h.5zm-29.2 2.6v.7h.2l.2-.6c-.1 0-.2-.1-.4-.1zm-4.5 145.6v-1.5c-.5.2-.8.3-1.5.5.7.5 1 .7 1.5 1zm-3.8-6.1h.3c0-.3.1-.5.1-.8h-.3c-.1.3-.1.5-.1.8zm5-95c-.2.1-.3.3-.9.8.8-.1 1.1-.2 1.6-.3-.4-.3-.6-.6-.7-.5zM330.9 81s-.1 0-.1-.1v.2s.1 0 .1.1V81zm-4.8 64v-.2c-.2 0-.3.1-.5.1v.1h.5zm5.1-115.5c-.1 0-.2 0-.3-.1.1.1.2.1.2.2 0 0 0-.1.1-.1zm2.3 118.3v-.2h-.5v.3c.1-.1.3-.1.5-.1zm-1.1-99.9v-.2h-.5v.2h.5zM304 61.4v-.5h-.2c0 .2 0 .3.1.5h.1zM325.4 184c0-.1-.1-.2-.2-.3-.1.1-.2.2-.2.3.1.1.2.1.3.2 0-.1.1-.2.1-.2zM303.6 79.3c0 .3-.1.5-.1.6h.3c-.1-.1-.1-.3-.2-.6zM93.1 87.5H93l.1.1zm224.6 16.4c-.1-.2-.1-.4-.2-.6-.1 0-.2.1-.3.1.1.2.1.4.2.6.1 0 .2-.1.3-.1zM17.6 161.1c-2.2-.7-4.4-1.4-6.6-1.9-1.3-.4-2.7-.5-4-.8v.8c.5.1.9.3 1.4.4 2.9.7 5.8 1.4 8.8 2.1.2.1.5-.1.8-.2-.1-.2-.2-.4-.4-.4zM265.9 14.8zm-36.4 118.4c0-1.6.3-4.1-.2-4.3-3.7-1-4-2.7-2.3-5.7-.9-.6-1.6-1.3-2.6-1.6-.3-.1-1.7.9-1.7 1 1.6 2.8.9 5.5-1 8.1-.3.4.2 1.1.3 1.7.7-.1 1.2-.3 1.9-.3.9 0 1.7 0 2.4.1 1.1.3 2.2.7 3.2 1zM49.4 50.7v.3c.2.5.3 1 .5 1.4 0 .1.1.1.2.1v-.6c-.2-.5-.3-1-.5-1.5-.2.2-.2.3-.2.3zm50.2 75.1c-1.2 2.2-.7 4.4 1.2 5.9.4.4 1.1.6 1.6.5.2 0 .5-.9.5-.9-.1-2.2-.1-3.9-.4-5.6-.1-.7-.6-1.4-1-2.1-.6 1-1.4 1.5-1.9 2.2zM24.8 57c.3.2.6.3.9.5.5.3 1 .6 1.4 1 .3.4.3-.4.6.1.1.2.5.3.8.4.1 0 .2-.2.2-.4 0-1.2-1.8-2.2-3.1-2.4-.1 0-.4.1-.6.2-.3.1-.3.6-.2.6zm75.3 113.5c1.1.7 2.2 1.5 3.4 1.9.3.1 1-1 2-2.1-1.4-.9-2.3-2.1-3.1-2-.9 0-1.6 1.4-2.3 2.2zm-48-125.2c-.2-.4-.6-1-.5-1.2.6-.9-.1-.8-.7-.9-.1 0-.4.1-.4.2-.1.2 0 .5.1.7.4.5.8 1 1.2 1.4.1.1.2.1.3.2v-.4zm74 9.6c-.5 1.2-1 1.9-.9 2.5.1.5.9.9 1.3 1.4.6-.6 1.6-1.2 1.5-1.7-.1-.6-.9-1.1-1.9-2.2zM56.8 67.2c0 .2.1.4.2.5 1 .5 2 1 3 1.4.2.1.4 0 .9-.1-.4-.4-.6-.6-.8-.7-.9-.4-1.9-.9-2.9-1.2-.1-.1-.4 0-.4.1zm-9.4-1.5c0 .1.1.2.1.3.3.3.6.5 1 .7.1.1.3.1.4.2 0-.2.1-.4 0-.5-.4-.3-.9-.6-1.3-.8-.1 0-.1 0-.2.1zm-.5-43.5c.6.3 1.2.7 1.8.7 2.7.1 5.5 0 8.9 0 .4-.1 1.2-.6 1.9-1-.7-.4-1.3-1.3-2.1-1.5-3-.3-6.1-.3-9-.3-.5.2-1 1.5-1.5 2.1zm10.4 39.7c-.7.1-1.3.1-1.9.2-.1 0-.2.2-.2.2.3.2.8.7.9.6.5-.2.9-.5 1.4-.8.1 0-.2-.2-.2-.2zM34.7 16.1c.4.2.8.3 1.2.4 0 0 .1-.1.2-.1-.4-.3-.7-.7-1.1-1-.3.1-.4.2-.6.3.1.1.2.3.3.4zm133.2 38.7c-.5-.3-1.1-.5-1.7-.8-.2-.1-.4 0-.6 0 .1.3 0 .7.2.8.8.4 1.6.7 2.4 1 .2.1.4-.1.9-.2-.6-.5-.9-.7-1.2-.8zM12.4 37.7c-2.8 1.6-2.5 2.3.6 2.7.5 0 .9.9 1.3 1.4l.2-1.4c-.1-1.2 0-1.7-.1-2-.3-.6-.7-1.2-1-1.8-.3.3-.6.9-1 1.1zm223.1 6.9c-.1.5-.2 1.1-.2 1.6-.1.2-.1.4-.2.8.2.4.4.9.6 1.4.3-.2.9-.4.9-.5l-.6-3c-.1 0-.4-.1-.5-.3zm-188.2.5c.2-.3.7-.6.6-.8-.1-.5-.5-.9-1-1.6-.3.7-.8 1.1-.7 1.4.2.4.7.7 1.1 1zm263.1-20.4c.1.5.3 1.1.5 1.6.5.8 1.2 1.6 1.9 2.3.2.3.3.4.5.7.2-.3.4-.7.3-1-.3-1-.6-2.1-1-3-.2-.4-.7-.8-1.1-1.3-.5.3-1.1.5-1.1.7zm-27.4 109c-.1 1.2.2 2.5.4 3.8.3-.1.8-.2.8-.4.5-1.3.9-2.6 1.5-4.5-.4-.2-1-.6-1.3-.5-.5.4-1.4 1-1.4 1.6zM68.5 34.4c.2-.2.5-.2.7-.3-.2-.4-.3-.7-.5-1.1-.3 0-.5-.1-.8-.1-.4.8-.9 1.5-1.2 2.3-.1.1.5.5.8.8.2-.3.4-.5.6-.8.2-.3.3-.6.4-.8zm97.2 123.4c.1.7.2 1.3.4 2-.1 0-.2.1-.3.1.2.5.4 1.1.6 1.6.5-.3 1-.7 1.4-1s.8-.6 1.1-.9c.3-.4.4-.9.6-1.4-.6-.1-1.1-.2-1.7-.3-.4-.1-.9-.1-1.3-.3-.2-.1-.4-.4-.5-.6-.2.3-.4.6-.3.8zM56.2 147.2c1.1.6 2.2 1.4 3.4 1.9.3.1.9-.4 1.8-.9-1.2-1-1.9-2-2.9-2.2-.6-.2-1.5.8-2.3 1.2zm164.2-78.9c0-.3-.2-.7-.2-.7-1.2-.2-2.2-.2-3.5-.3-1-.2-2.1-.5-3.3-.9.5-.7 1.4-1.4 1.4-2.1.2-.9-.3-1.9-.5-2.8-.5.2-1.6.3-1.7.7-.5 1.6-1.2 3.6-.7 4.8.5 1.2 2.8 1.6 3.6 2.1 2.3-.5 3.7-.6 4.9-.8zm8.3 27c-1 1.2-1.9 1.9-2.4 2.8-.2.4.6 1.2.9 1.8.8-.9 1.6-1.8 2.3-2.7.2-.2-.3-.9-.8-1.9zm-190.6-34c-.4.5-.8.8-1 1.2-.1.2.3.5.4.8.3-.4.7-.8 1-1.1 0-.2-.2-.5-.4-.9zm236.5 58.9c.7.8 1.3 1.5 1.9 2.2.1-.1.3-.3.2-.4-.4-1-.9-1.9-1.4-2.9-.1.3-.4.6-.7 1.1zM267 10.1c.1-.1-.4-.6-.4-.6-.5.3-1 .6-1.7 1 .6.4 1.1.8 1.2.8.4-.3.7-.8.9-1.2zm-18.5 144c0-.5 0-1.4-.1-1.4-1.3 0-2.7 0-4 .1-.4.1-.8.6-1.3 1 .3.4.5.9.8.9.4.1.9 0 1.4-.1.7-.2 1.5-.4 2.2-.5h1zm58.1-119c-.1-.3-.2-.5-.5-1-.1.3-.2.4-.2.6-.1.5.4.3.6.5l.1-.1z" class="st0"/><path d="M111.5 67.2c-.1-.1-.8 0-1.2-.1.1 1 .1 2 .2 3v.2c.5 1.2 1 2.4 1.3 3.6.1-1.2.4-2.3.6-3.9-.2-.6-.4-1.7-.9-2.8zm181.6-21.3c-.2.4-.4.7-.3.7.2.4.5.7.8 1 .1-.1.4-.3.3-.4-.2-.4-.5-.7-.8-1.3zM96.4 18.6c.7-1.4.8-.1 1.2.2.1.1.3.2.4.2s.1-.2.2-.3c-.6-.7-1.3-1.5-2-2.2-.1-.1-.8.3-1 .5-.1.2-.1.7.1.9.3.3.7.5 1.1.7zm29-8c-.4-.5-1-1.4-1.2-1.3-.6.2-1.6.9-1.5 1.2.2 1 .9 1.9 1.4 2.8.4-.8.8-1.6 1.3-2.7zm167.8 73.2c0 .2.2.4.4.5.1-.2.2-.3.3-.5-.1-.2-.2-.3-.3-.4-.1.2-.4.3-.4.4zm-46.7-15.7c-.5-.4-.9-.8-1.4-1.2-.5 1-1.2 2-1.4 3-.1.5.5 1.1.8 1.7.1-.1.3-.1.3-.2.6-1 1.1-2 1.7-3.3zM356.3 71c-.1.2.4.7.6 1.1.8-.6 1.6-1.1 2.9-2-1-.8-1.4-1.3-1.9-1.7-.6.9-1.2 1.7-1.6 2.6zm-314 82c.1-.2-.9-1.4-1.4-1.4-.5-.1-1.1.8-1.8 1.3.6.9 1 1.6 1.4 2.2.6-.7 1.4-1.3 1.8-2.1zM294.7 27.5c-.1-.1-.5.3-.8.4.9 1.1 1.8 2.4 2.7 3.6.4-.4.8-.7 1.9-1.7-1.6-1-2.6-1.7-3.8-2.3zm-31.8-.8c0 .6-.2 1.3 0 1.7.6.8 1.4 1.4 2.1 1.9.1.1.8-.7 1.3-1.1-1.2-.9-2.3-1.7-3.4-2.5.1-.1 0 0 0 0zM114.1 86.4c.3-.4 1-1 .9-1.3-.4-.9-1-1.6-1.8-2.7-.7.8-1.4 1.4-1.3 1.4.7.9 1.5 1.7 2.2 2.6zM240 54.2c-.3-.2-.6-.5-.9-.6-.1 0-.4.2-.8.5.5.4.8.7 1.1.9.1-.3.4-.5.6-.8zm40.9 128.3c.1.2 1.5-.2 2.3-.5.6-.2 1.1-.5 1.6-.8-.6-.5-1.2-.9-2.2-1.7-.1 1.6-2.8 1-1.7 3zM338.6 43c.9-.6 1.8-1.3 2.7-1.9-.5-.3-.9-.6-1.7-1.2-.7.8-1.4 1.4-1.9 2.2-.1 0 .8.9.9.9zm-83.4 68.1c.2.7 1 1.3 1.8 1.6.3.1 1.5-.8 1.4-1-.2-.7-.8-1.3-1.3-1.9-.5-.3-1-.6-1.4-.9-.2.8-.7 1.6-.5 2.2zm4.6-85c.7-.9 1.5-1.7 2.1-2.6.1-.2-.4-.8-.9-1.9-.8 1.7-1.3 2.8-1.7 3.9-.2 0 .3.3.5.6zm49.4 152.1c1 .9 1.9 1.7 2.8 2.4 0 0 .6-.5.6-.6-.7-1.1-1.5-2.2-2.2-3.4-.3.5-.6.8-1.2 1.6zM239.3 27.9c0 .1 0 .1 0 0zm0 .1c-.6.4-1.3.7-1.8 1.1-.3.3-.6 1.2-.5 1.3.5.4 1.1.6 1.7.8.2-1 .4-2.1.6-3.2zm54.9 149c-.7-.5-1.4-1.1-2.3-1.5-.2-.1-.8 1-1.2 1.6.5.4 1.1.8 1.9 1.4.6-.6 1.1-1 1.6-1.5zM104.5 55.5c-.4.7-.8 1.1-.7 1.3.3.8.8 1.5 1.2 2.2.6-.5 1.2-.9 1.8-1.4-.6-.7-1.3-1.3-2.3-2.1zm87.7-40.8c.8-.1 1.6-.5 2.4-.8-.5-.4-1-.9-1.8-1.6-.8.6-1.3 1-1.9 1.4.4.4.9 1 1.3 1zm-31.1 74.6c.6-.1 1.2-.5 1.7-.8-.5-.5-1-1.4-1.4-1.3-.7.1-1.3.8-2.5 1.6 1.2.3 1.8.6 2.2.5zm96.1-44.4c.2.1.8-.4 1.5-.8-.8-.8-1.2-1.5-1.8-1.9-.2-.1-.9.7-1.4 1.1.6.6 1.1 1.2 1.7 1.6zM135.8 152.4c.1.1.2.3.3.4.3-.1.7-.3 1-.4-.1-.2-.2-.5-.3-.6-.9-.2-1.9-.5-2.8-.4-.5 0-.9.8-1.3 1.3-.1.1.2.7.3.7.6 0 1.2-.1 1.7-.3.5-.1.8-.5 1.1-.7zm110.5 7.7l.9-.6c-.6-.6-1.2-1.5-1.9-1.7-.6-.1-1.4.7-2.1 1.1 1 .4 2 .8 3.1 1.2zm59.3-55.9c1 .7 1.9 1.4 2.9 2.1.1 0 .6-.6.6-.6-.7-.9-1.4-1.7-2.4-2.7-.5.6-.8.9-1.1 1.2zm-122.8 29.3c.9.3 1.5.7 2 .6.7-.1 1.3-.6 1.9-.9-.5-.5-1.1-1.4-1.5-1.4-.7.1-1.3.9-2.4 1.7zm61.1-22.9c-.2.4-.7 1-.6 1.3.3 1.1.9 2 1.4 3 .2-.4.4-.9.8-1.6-.6-.9-1.1-1.8-1.6-2.7zm66.9-33c-.1-.1-.6.4-.8.6.8.7 1.5 1.5 2.3 2.1.2.1.8-.2 1.8-.6-1.7-1.1-2.5-1.6-3.3-2.1zm-72.5 35c.1-.6-.6-1.3-1-2-.5.7-1 1.4-1.5 2.2.3.5.5.8.8 1.2.6-.5 1.6-.8 1.7-1.4zM63 163.8c0-.5-.5-1.4-.9-1.5-.5-.2-1.3.3-2 .5 1.2 1.7 1.6 2.3 2 2.9.4-.6.9-1.2.9-1.9zM179.9 42.9c.3.1.8-.6 1.3-1-.5-.5-1-1-1.7-1.8-.6.7-1 1-1.4 1.4.6.5 1.1 1.1 1.8 1.4zm78.2 57.5c.3-.3.6-.5 1.1-1-.6-1-1-1.7-1.5-2.4-.4.5-1.3 1.2-1.2 1.6.2.7 1 1.2 1.6 1.8zm-106-5.5c.3-.3.6-.5 1.1-1-.6-1-1-1.7-1.5-2.4-.4.5-1.3 1.2-1.2 1.6.2.7 1 1.2 1.6 1.8zm138.1 22.6c.3.6.9 1 1.4 1.5.4-.5.9-.9 1.3-1.4-.6-.5-1.2-1-1.9-1.7-.3.7-.9 1.3-.8 1.6zm9.4-93.9c.4-.6.8-1.2 1.2-1.9.1-.2.2-.5.3-.7-.8.1-1.7.2-2.5.3.3.8.7 1.5 1 2.3zM352 161.1c-.1.2.6.7 1 1.1.5-.8 1.1-1.5 1.6-2.3.1-.1-.4-.5-1-1.2-.8 1-1.3 1.7-1.6 2.4zM188.4 24.5c-.4-.3-.9-.8-1.3-.7-1 .2-2 .6-2.9 1 .6.2 1.3.5 2.1.8.6-.5 1.4-.8 2.1-1.1zm165-15.9c-.3 0-.6 0-.9.1-.2 1-.4 2-.5 3 0 .3.3.5.4.8.6-1 1.1-2 1.6-3 .1-.2-.3-.6-.6-.9zm-82.4 123c.1-.2.3-.4.2-.5-.2-.5-.6-1-1.1-1.8-.3.5-.6.9-.5 1 .4.4.9.9 1.4 1.3zm17.6-24.1c-.6 0-1.4.3-1.9.7-.2.2.1 1 .2 1.5.3-.3.5-.8.8-.9.4-.1.8.1 1.3.2h1.5c-1-.8-1.4-1.5-1.9-1.5zM45.2 94c.5-.2.9-1 1.2-1.6.1-.1-.4-.5-.8-1-.8.6-1.4 1.1-1.9 1.6.4.4 1.1 1.1 1.5 1zm89.7 45.6c-.3.8-.6 1.6-.9 2.7.3.3.5.6.8.9.4-.8.9-1.5 1-2.3.1-.3-.6-.8-.9-1.3zm137.2-29c-.4-.4-.7-.8-1.2-1.4-.2.5-.5.9-.5 1 .4.3.8.5 1.2.8.1-.1.3-.3.5-.4zm16.8-31.8c.2.4.6.9.7 1.3 0 .5-.2 1-.4 1.5-.1.2-.5.2-.8.2.3.2.6.3 1.1.6.6-.4 1.3-.8 2-1.2-.4-.5-.7-1.1-1.2-1.5-.4-.4-.9-.6-1.4-.9zm-87.3 10.1c-.3-.1-.8.5-1.2.8.5.4 1 .8 1.7 1.3.7-.4 1.1-.7 1.5-.9-.6-.5-1.3-1-2-1.2zm-32.8 100.6c.2.3.4.7.7.7 1.3.3 2.7.4 4 .6-1.3-.6-2.5-1.1-3.8-1.6-.3-.1-.6.2-.9.3zM305.9 87.9c.8.9 1.5 1.8 2.4 2.6 0 0 .4-.2.5-.3-.8-1-1.6-1.9-2.4-2.9-.1.3-.5.6-.5.6zm-57.2 5.6c-.3.3-.8.8-.7.9.5.6 1.1 1.2 1.7 1.6.1.1.6-.4 1.2-.8-.9-.7-1.6-1.2-2.2-1.7zM291 38.2c.6.9 1 1.5 1.4 2.2.3-.7.7-1.3.8-2 0-.4-.5-.8-.8-1.3-.5.3-.9.6-1.4 1.1zm-30.3 145.7c.5.2 1.1.6 1.6.6.9-.1 1.8-.6 2.7-.9-.7-.3-1.4-.6-2.4-1-.6.5-1.2.9-1.9 1.3zM212.9 29c-.2-.7-.3-1.5-.7-2.1-.2-.2-1 0-1.6 0 .2.4.4.8.6 1.3.2.3.3.6.5.9.4-.1.8-.1 1.2-.1zm-1.2.1c0-.1 0-.1 0 0zm138.5 74.3c-.5.7-1 1.1-.9 1.4.2.7.7 1.2 1.1 1.8.4-.4 1.2-.9 1.1-1.2-.1-.6-.7-1.1-1.3-2zm-211.1 75.1c-.5 0-1 .7-1.5 1.1.5.3 1 .5 1.6.9.6-.3 1.2-.6 1.7-.9-.5-.4-1.1-1-1.8-1.1zM242.3 61.9c-.2-.7-.6-1.3-1.1-2.4-.6.8-1.2 1.3-1.1 1.4.4.7 1 1.2 1.5 1.8.2-.3.7-.6.7-.8zm-75.9 3.6c-.5.1-1 .6-1.6 1.1.4.6.6 1 .8 1.4.6-.5 1.1-1 1.7-1.4-.2-.4-.6-1.1-.9-1.1zm43.5-7.4c-1-.6-1.5-1-2.1-1.1-.4 0-.8.5-1.2.9.5.4 1 1 1.6 1.2.3.1.9-.4 1.7-1zM269.1 47c.8-.4 1.3-.7 1.7-.9-.7-.6-1.4-1.1-2.1-1.7-.3.4-.8.8-.7 1 .2.6.7 1 1.1 1.6zm69.9 75.1c0-.1.1-.1.1-.2.1 0 .2 0-.1.2zm2.7 2.9c.1 0 .3-.2.4-.3v-.2c-1-.8-2-1.6-3.1-2.4-.2.3-.4.6-.6.8l3.3 2.1zm-101.3 63.2c.3.2.7.7.9.7.8-.4 1.5-.9 2.3-1.4-.3-.2-.5-.5-.8-.8-.9.5-1.6 1-2.4 1.5zM171.2 19.3c-1.4-.5-2.3-.9-3.2-1.2-.1 0-.3.2-.4.3.7.6 1.3 1.2 2 1.7.2.2.7-.3 1.6-.8zm-22.4-6.6c-.1-.1-.5.2-.7.3 1 .8 2 1.5 3.1 2.3.1.1.5-.1 1.3-.2-1.6-1-2.6-1.8-3.7-2.4zm114.9 87.6c.2.4.5.8.8 1.2.1-.2.2-.5.4-1-.2-.2-.5-.6-.7-.9-.2.3-.5.6-.5.7zM87.1 75.6c-.5-.7-.9-1.3-1.3-1.9-.3.3-.9.8-.8 1 .3.8.8 1.4 1.3 2.1.2-.3.4-.7.8-1.2zM62.2 60.8c-.5.8-1 1.3-.9 1.5.3.6.8 1.1 1.2 1.7.3-.4.9-.8.9-1.2-.1-.6-.6-1.1-1.2-2zm117 122.6c-.2-.6-.7-1-1.1-1.5-.3.3-.7.6-1 .9-.3.4-.5.8-.8 1.2.7.1 1.3.4 2 .4.3-.1 1-.8.9-1zM343.1 8.7c.2.7.5 1.4.8 2.1.3-.4.6-.7 1.1-1.2-.5-.7-.8-1.2-1.2-1.8-.3.4-.8.7-.7.9zm-49.7 48.4c.1-.4.3-.8.5-1.6l-1.1-2.2c-.2.4-.7.9-.6 1.2.2.9.7 1.7 1.2 2.6zM128.6 99.3c-.2.2-.4.3-.5.4.9.6 1.8 1.1 2.8 1.6.1.1.5-.4.7-.6-1-.4-2-.9-3-1.4zm87.9-48c1.6 1.1 2 1.5 2.5 1.8.2-.4.7-.8.6-1.1-.2-.5-.7-1.1-1.2-1.3-.3-.1-.9.3-1.9.6zm67.4 25.6c.4.6 1.1 1 1.7 1.5.1.1.5-.2.7-.4-.7-.8-1.3-1.7-2-2.6-.2.5-.6 1.2-.4 1.5zM163.1 15.1c-.4.3-.7.7-1.3 1.2.6.6 1.1.9 1.5 1.3.3-.5.7-.9.7-1.4 0-.3-.6-.7-.9-1.1zm59.4 6.1c.2-.2.5-.4.9-.7-.7-1-1.2-1.8-1.8-2.7-.1.2-.4.4-.4.5.4 1 .9 1.9 1.3 2.9zm9 155.4c-.6.8-1.1 1.4-1.4 2-.1.1.3.5.5.7l2.1-1.8c-.3-.1-.5-.4-1.2-.9zm-10.7-24.2c.5-.1 1-.5 1.3-1 .1-.2-.4-.7-1.1-2.1-.5 1.1-.9 1.6-1 2.2-.1.3.6 1 .8.9zm39.1-72.8c.1-.5-.4-1-.8-2-.5.9-1 1.3-1 1.7.1.6.5 1.1.8 1.7.3-.5.9-.9 1-1.4zm-38.7 30.7c0 .4.6.8 1 1.4.6-.5 1-.8 1.3-1-.5-.5-1-1.1-1.5-1.6-.3.4-.8.8-.8 1.2zm115.9-23.5c-.2-.6-.6-1-1.1-1.8-.5.6-.8 1-1.1 1.3.5.4.9.9 1.5 1.2 0 0 .8-.6.7-.7zm-28.2-76.7c-.2-.8-.5-1.6-.9-2.9-.6.8-1 1.2-.9 1.3.5.8 1.1 1.5 1.7 2.2 0-.2.2-.4.1-.6zm-52.7 73.7c-.4.3-.8.6-1.5 1.2.8.5 1.3.9 1.9 1.2.1 0 .8-.7.7-1-.3-.5-.8-1-1.1-1.4zm43 76.7c.3-.4.8-.9.8-1.3 0-.5-.4-1-.8-1.9-.5.8-1 1.3-1 1.7.1.5.7 1 1 1.5zM152.7 8.6c-.2-1-.5-2-.7-3-.2-.1-.5-.2-.7-.4-.1.3-.3.6-.2.9.4 1 .8 1.9 1.2 2.8.1-.1.5-.2.4-.3zm77.9 155c.2.3.6.7.7.7.8-.5 1.5-1.1 2.2-1.7.1 0-.2-.5-.4-.7-1 .6-1.7 1.2-2.5 1.7zm-52-143.5c.3-.4.6-.7 1.1-1.2-.4-.5-.6-.9-.9-1.3-.4.4-1.1.8-1.1 1.2-.1.4.5.8.9 1.3zm98.5 134.5c-.1 0-.5.6-.7.9.6.4 1.1 1 1.7 1.3.2.1.7-.4 1.4-.9-1-.7-1.7-1.1-2.4-1.3zm33.9-42.4c-.2-.1-.6.6-.9.9.4.3.8.7 1.3.9.2.1.6-.4 1.1-.8-.6-.4-1-.9-1.5-1zM133.9 42.5c-.1-.6-.4-1.1-.8-1.9-1 1.1-1.3 1.4-1.6 1.7.4.3.8.8 1.3.9.4.1 1.1-.5 1.1-.7zm-71.8 69c-.5 0-.9.5-1.2.6.6.5 1.2.9 2 1.1.2.2.6-.5 1.4-.9-1.1-.5-1.7-.8-2.2-.8zm130.5-27.7c-.4-.6-.7-1-1-1.5-.2.4-.7.8-.7 1.2.1.5.6.9.9 1.3.3-.2.5-.5.8-1zm-11.7 3.4c.5-.1 1.1-.4 1.3-.8.1-.3-.4-.8-.9-1.6-.5.7-.9 1.1-1 1.5-.1.3.5.9.6.9zm-25.7 98.2c-.5-.1-.9-.2-1.4-.4-.6-.2-1.1-.5-1.7-.7 0 .2-.1.4-.1.4.5.4 1.1.8 1.6 1.1.4.2 1 .2 1.8.4.1-.1.4-.3.7-.5-.2 0-.6-.2-.9-.3zm96-138.8c.5.5 1 1.1 1.6 1.5.1.1.6-.4 1.2-.8-1-.5-1.7-.9-2.4-1.2 0-.1-.4.4-.4.5zm68.5 12.7c.4.6.9 1.1 1.3 1.7.2-.3.6-.6.5-.8-.3-.6-.7-1.2-1.3-2.1-.3.7-.6 1.1-.5 1.2zM285.1 56c-.5.4-.9.7-1.3.9.3.3.7.8 1 .8.6-.1 1.1-.5 1.6-.7-.4-.3-.8-.6-1.3-1zM197 132.2c.1.1.7-.4 1.3-.7-.7-.7-1.1-1.2-1.5-1.7-.3.4-.8.8-.7 1.2 0 .4.4.9.9 1.2zm-12.7-8.5c.1-.2-.5-.7-.9-1.2-.6.5-1 .9-1.4 1.2.4.3.8.8 1.2.9.4 0 1-.6 1.1-.9zM323.6 13c.3-1.1.5-1.5.4-1.9s-.5-.7-.8-1.1c-.2.3-.7.6-.7.9.2.5.6 1 1.1 2.1zM302 157.9c.2.2.5.4.9.7.7-.5 1.3-.9 1.9-1.3-.4-.2-.9-.6-1.1-.5-.6.3-1.1.8-1.7 1.1zm18.2-129c.2.4.7.8 1 1.1.2-.4.7-.8.6-1.2-.1-.4-.5-.8-1.2-1.7-.2 1-.5 1.5-.4 1.8zm-80.3 125.6c-.4.5-.9.9-1.2 1.4-.1.2.5.9.7.9.5 0 1-.3 1.4-.5l-.9-1.8zm-35.4-79.7c.1-.4-.2-1-.4-1.7-1.2 1.1-1.6 1.4-1.9 1.8.4.2.8.7 1.2.6.4 0 1-.4 1.1-.7zm115 36.4c-.3.1-.6.8-.7 1.2 0 .2.6.8.7.8.5-.2 1-.6 1.8-1.2-.9-.4-1.4-.9-1.8-.8zm27.9-69.7c.1-.2-.2-.7-.4-1.4-.7.8-1.3 1.2-1.5 1.7-.1.2.3.7.5 1.1.5-.4 1-.8 1.4-1.4zm-55.6 29.7c.4-.3.8-.6 1.4-1.1-.6-.5-.9-.7-1.3-1-.3.3-.7.7-.7 1.1 0 .2.4.6.6 1zm24.5-4.2c-.3-.1-.7.2-1.1.3.6.4 1.3.8 1.9 1.2.5-.2.7-.4 1-.5-.6-.3-1.1-.7-1.8-1zm-106.5 8.9c-.3.7-.6 1.1-.5 1.2.3.5.7.9 1.1 1.3.2-.3.6-.6.5-.8-.2-.5-.6-.9-1.1-1.7zm100.8 41c-.5.9-.8 1.3-.8 1.7 0 .4.3.8.5 1.2.4-.4.9-.8 1.1-1.3.1-.2-.4-.7-.8-1.6zM225 4.2c-.1.8-.3 1.3-.1 1.7.1.4.6.6 1 1 .2-.3.6-.6.5-.8-.4-.5-.8-1.1-1.4-1.9zm-47.8 170.6c-.4.3-.7.8-1.1 1.2.3.2.7.7.9.6.5-.3.9-.7 1.5-1.3-.6-.2-1.1-.6-1.3-.5zm93.9-86.9c-.5-.6-.9-1.2-1.4-1.9-.2.2-.6.5-.6.5l1.5 2.4c.1-.3.2-.5.5-1zm-99.7-61.7c.2.1.6-.3 1.3-.7-.7-.5-1.1-.9-1.6-1-.2-.1-.6.4-.9.6.4.5.7 1 1.2 1.1zm80.7 60.1c-.1-.4-.5-.8-.9-1.4-.5.5-.8.8-1.2 1.1.4.4.7.9 1.1 1 .3.1 1-.5 1-.7zm49.2-69.2c.6.5 1 .9 1.4 1.1 0 0 .6-.5.6-.6-.1-.4-.4-.9-.7-1.1-.2 0-.7.3-1.3.6zm-21.8 92.2l.7-.7c-.5-.2-.9-.5-1.4-.7 0 0-.3.4-.2.4.2.3.6.6.9 1zm-30.8 30.6c-.3-.1-.8.2-1.6.5.8.6 1.2 1.1 1.6 1.2.3.1.8-.4 1.2-.7-.4-.4-.7-.9-1.2-1zm-87.4-35.5c-.6.3-1.1.5-1.6.7.5.2 1.1.5 1.6.5.4 0 .9-.3 1.3-.5-.4-.2-.8-.5-1.3-.7zm43.4 37.8c-.5.3-.8.5-1.1.8.6.3 1.1.7 1.7.9.2.1.5-.3.8-.4-.5-.5-.9-.9-1.4-1.3zm51.6-70.3c-.3.3-.8.7-.8 1s.5.9.8.9c.3 0 .7-.5 1.2-.9-.5-.4-.8-.7-1.2-1zm-108.5 110c-.4.3-.7.5-.9.8.4.4.7.9 1.2 1.2.2.1.6-.4 1-.6-.4-.4-.8-.9-1.3-1.4zm174-175.1c.3.1.7-.3 1.4-.6-.6-.4-.9-.7-1.2-.7-.3 0-.6.3-.8.4.1.3.3.8.6.9zm-70.4 101.8c-.2-.1-.6.2-1.4.4 1.1.5 1.7.8 2.4 1.1.1 0 .4-.3.6-.5-.5-.3-1-.7-1.6-1zm30.1-54.9c.7.4 1.2.8 1.4.7.4-.2.7-.7.8-1.2.1-.3-.4-.6-.6-.9-.5.4-.9.8-1.6 1.4zm63.4-15.1c0 .1.5.7.7.7.4-.1.7-.5 1.3-.9-.6-.4-1.1-.9-1.2-.8-.3.2-.6.6-.8 1zm-163.3-5.1c-.5.5-.9.8-1.2 1.1.3.2.7.5.9.4.5-.1.9-.5 1.4-.8-.4-.1-.7-.3-1.1-.7zm139.5 84.1c.1.1.8-.4.8-.6 0-.4-.3-.9-.9-2.1-.4.8-.8 1.2-.7 1.6.1.4.5.8.8 1.1zm-19.4-58c.2.6.7 1.1 1 1.6.2-.3.4-.6.7-1.1-.4-.5-.8-1-1.2-1.4-.1.4-.5.7-.5.9zm-27-31.2c.1.6.4 1.2.7 1.6.2-.6.6-1.3.6-1.9s-.4-1.3-1.1-3.1c-.1 1.9-.3 2.6-.2 3.4zM169.6 132.5c-.4 0-.8.3-1.7.7.8.4 1.2.8 1.6.7.4 0 .8-.4 1.2-.7-.3-.2-.7-.7-1.1-.7zm171.9-69.4c.4-.6.8-1.2 1.3-1.9-.3-.2-.5-.4-.8-.6-.3.6-.7 1.2-1 1.8 0 .2.3.5.5.7zM229.3 34.3c.2 0 .7-.4.7-.7 0-.4-.3-.8-.6-1.4-.7.9-1.1 1.3-1 1.4.2.3.5.6.9.7zm-49.4-19c.3.5.8.8 1.2 1.3.2-.3.6-.6.5-.8-.2-.5-.5-.9-1-1.5-.4.5-.8.9-.7 1zm81.3-11c-.4-.4-.6-.7-.9-1-.2.3-.7.7-.6.9.1.3.5.6.8.9.2-.2.4-.4.7-.8zm72 56.3c-.3-.1-.7.3-1.5.7.8.3 1.2.5 1.5.5.4-.1.7-.3 1.1-.5-.4-.2-.7-.6-1.1-.7zm-19 125.2c.2-.1.3-.2.6-.4-.6-.9-1.1-1.7-1.6-2.5-.1.2-.4.4-.3.5.4.9.9 1.6 1.3 2.4zm-34-93.9c.1.3.6.7 1 .8.2 0 .8-.5.7-.7-.1-.4-.5-.7-1-1.3-.4.6-.8 1-.7 1.2zm24.5-13.8c.6.7 1.3 1.4 2 2.1 0 0 .3-.2.5-.3-.6-.7-1.3-1.5-2-2.3-.2.2-.5.4-.5.5zM182.5 29.9c-.3-.5-.7-.9-1.3-1.5-.3.4-.7.9-.7.9.4.5.9.9 1.4 1.3.3-.2.7-.6.6-.7zm139.7 96.7c-.2-.5-.6-1-1-1.8-.3.5-.7.9-.6 1.1.2.5.5.9.9 1.2 0 .1.7-.4.7-.5zm-50.3-42.5c.1.3.6.6.9.8.2-.3.7-.6.6-.8-.1-.4-.5-.7-1-1.4-.3.7-.6 1.1-.5 1.4zm15.2-19.9c-.1-.1-.4.2-1.2.5 1 .4 1.5.7 2 .8.3.1.7-.2 1-.2-.5-.4-1.1-.8-1.8-1.1zm-22.6 126c-.6.2-1.2.5-1.8.8.4.1.8.2 1.5.4.2-.1.6-.4.9-.6-.2-.2-.5-.6-.6-.6zm94.7-71.8c.2-.5.6-.9.7-1.4.1-.2-.2-.6-.4-1.3-.5.7-.9 1.1-.9 1.4-.1.5.3.9.6 1.3zm-205.4-16.2c-.5.2-.9.5-1.3.8.2.2.5.6.7.6.5-.1 1-.4 1.7-.8-.6-.3-.9-.7-1.1-.6zm-53.9 28.2c-.4 0-.7.4-1.1.6.3.2.6.6 1 .7.3.1.7-.2 1.4-.5-.6-.3-1-.8-1.3-.8zM10 150.9c-.4 0-.7.4-1.1.6.3.2.6.6 1 .7.3.1.7-.2 1.4-.5-.6-.3-1-.8-1.3-.8zM271.6 35.5c.5-.3 1-.7 1.5-1.1-.1-.1-.3-.2-.5-.5-.6.4-1.1.7-1.5 1 .1.2.5.6.5.6zm58.7 8.5c.1-.2-.4-.6-.7-1.1-.4.5-.9.8-.9 1.1s.5.8.8.7c.3 0 .8-.4.8-.7zm-167 28.3c.1 0 .6-.5.5-.5-.3-.4-.7-.8-1.1-1.1 0 0-.4.4-.9.7.7.4 1.1.7 1.5.9zm157.5 116c.2.1.6-.4 1.1-.9-.5-.4-.8-.7-1.1-.7-.3 0-.8.6-.7.7 0 .4.3.8.7.9zM144.9 89.7c-.1-.1-.5.3-.7.4.3.4.7.8 1 1.2.1.1.5-.3 1.1-.6-.6-.5-1-.8-1.4-1zm78.7-36.4c-.3-.1-.7.3-1.3.6.5.4.8.9 1.1.9s.6-.4.9-.7c-.2-.2-.4-.7-.7-.8zM340.1 5.6c-.1-.3-.4-.7-.7-.9-.2-.1-.5.2-1 .5.5.5.9.8 1.2 1.1.2-.3.6-.6.5-.7zm-31.9 21.9c-.2-.5-.5-1-.9-1.8-.3.5-.7.9-.6 1.1.2.4.6.8 1 1.2.1-.2.5-.4.5-.5zM194.5 42.7c.2 0 .5-.4.7-.6-.3-.3-.5-.6-.9-.7-.2-.1-.6.3-1 .6.5.3.8.6 1.2.7zm155.7 50.8c.1.4.5.7.8 1.1.2-.2.4-.5.7-.8-.4-.5-.6-.8-.9-1.2-.2.3-.7.6-.6.9zm-29 77.6c-.1-.3-.4-.6-.6-.9-.3.3-.7.6-.7.8 0 .4.4.7 1 1.6.2-.9.4-1.3.3-1.5zm.2-67.4c.2.3.6.7.9.7s.5-.5.8-.8c-.4-.2-.7-.4-1.2-.7-.3.3-.6.7-.5.8zm-5.3-41.5c.2-.1.7-.2.7-.3 0-.6-.2-1.1-.4-2.1-.4.5-.7.7-.7.9.1.5.3 1 .4 1.5zm-41.4 116.1c0-.3-.4-.9-.6-.9-.5 0-.9.3-1.7.6 1.1.9 1.4 1.1 1.7 1.4.1-.4.5-.7.6-1.1zM74.4 80.7c-.4.6-.7.9-.6 1.2.1.4.4.7.6 1 .2-.3.5-.5.6-.8 0-.3-.3-.7-.6-1.4zm253 23.5c-.3-.2-.6-.3-1.1-.6-.4.3-.7.6-1 .8.2.2.5.6.5.6.6-.2 1.1-.5 1.6-.8zM211.3 39c-.6-.5-1-.8-1.4-1.1 0 0-.6.5-.5.5.3.5.6.9 1 1.3-.1 0 .4-.3.9-.7zm92.5-18.1c-.9 0-1.8.1-2.6.1.5.2 1.1.5 1.6.5.3 0 .6-.4 1-.6zm-15.9 16.2c.2-.2.6-.4.5-.5 0-.5-.2-1-.5-1.9-.4.7-.8 1-.7 1.2.1.5.4.8.7 1.2zm-169.2 89.5c-.2-.4-.6-.7-1.4-1.6-.1.5-.4.9-.3 1.1.2.4.6.8 1 1.2l.7-.7zm47 61.5c-.4.3-.6.5-.8.7.5.2 1 .5 1.6.7.2.1.5-.2.7-.3-.5-.3-1-.6-1.5-1.1zm-118-83.2c-.3.5-.7.8-.7 1.1 0 .2.4.5.7.7.3-.3.7-.5.8-.8 0-.2-.4-.5-.8-1zm150.6 73.8c-.2.2-.5.4-.9.8.5.4.8.7 1.1 1 .2-.3.5-.6.5-.8 0-.4-.4-.7-.7-1zM313.9 58.5c-.3-.4-.6-.7-1.1-1.2-.3.4-.6.7-.5.8.3.4.6.7.9 1 .3-.1.8-.5.7-.6zm35.5 93.1c-.3.8-.5 1.2-.5 1.6 0 .4.2.7.4 1.1.2-.3.6-.6.6-.9.1-.4-.2-.9-.5-1.8zm-155.6-47.9c.1-.3-.3-.6-.7-1.2-.4.6-.8.9-.8 1.2 0 .3.4.6.7.9.3-.3.7-.5.8-.9zM163.3 82c.2 0 .5-.4.9-.7-.5-.3-.8-.7-1.1-.8-.2 0-.5.5-.7.8.2.3.5.6.9.7zm97.6 79.6c.3.3.5.7.8.8.2.1.6-.3.9-.5-.2-.3-.5-.6-.8-1-.4.3-.7.5-.9.7zm60.3 13c.1 0 .4-.2.6-.4-.3-.4-.6-.7-1-1.2-.3.5-.5.7-.7 1 .4.3.7.5 1.1.6zm-16.1-1.2c.1.5.2 1 .4 1.5.2-.1.7-.3.7-.4 0-.5-.2-1-.3-1.7-.6.3-.9.5-.8.6zm-123-30.5c.2 0 .8-.5.7-.6-.1-.3-.5-.6-.9-1-.3.4-.7.8-.6 1 .1.1.5.5.8.6zM267 55.5c-.1-.5-.3-1-.6-1.7-.4.5-.7.8-.7.9.2.5.5.9.8 1.4.2-.3.5-.5.5-.6zm-73.4 53.4c.1.1.4-.2.8-.4-.5-.4-.9-.8-1.3-1-.1-.1-.4.2-.6.3.4.3.7.7 1.1 1.1zm8.1-9.1c.2-.3.6-.5.5-.8 0-.4-.3-.7-.6-1.2-.4.5-.8.8-.8 1 .2.3.6.6.9 1zM26.4 50.6c.2-.3.6-.5.5-.8 0-.4-.3-.7-.6-1.2-.4.5-.8.8-.8 1 .2.3.6.6.9 1zm1.9 41.2c-.3-.2-.5-.5-.8-.6-.1 0-.4.3-.8.5.5.3.7.5 1 .6.2 0 .4-.4.6-.5zm110.3 14.8c-.1 0-.4.3-.5.5.3.3.6.6.9.7.2.1.5-.1 1.1-.3-.7-.4-1.1-.7-1.5-.9zm-6.2-83.5c-.2.4-.5.7-.4.7.3.4.7.8 1.1 1.2.1-.2.3-.4.3-.6-.3-.4-.6-.8-1-1.3zm221.5-.5c0 .4.4.7.6 1 .3-.2.5-.5.9-.8-.3-.4-.5-.6-.7-.9-.4.2-.8.5-.8.7zm1.1 110.9c-.3.1-.6.4-1.1.8.5.3.8.5 1 .5.3-.1.7-.4.7-.6 0-.3-.4-.8-.6-.7zm-47.8-77.7c-.2.5-.5.9-.4 1.1.1.3.5.6.8.9.2-.3.5-.6.5-.8-.1-.4-.5-.7-.9-1.2zM198.9 34.2c.2-.2.6-.5.6-.7-.1-.4-.4-.7-.7-1.2-.3.4-.6.7-.5.9 0 .4.3.7.6 1zM235 189.4c.5 0 .9-.2 1.4-.4-.3-.2-.6-.3-1-.5-.4.2-.7.3-1.1.5.2.2.4.5.7.4zm89.6-132.9c.2-.3.5-.5.5-.8s-.3-.5-.6-1c-.3.6-.6.9-.7 1.3.1 0 .6.3.8.5zm-162.7 97.3c-.4.3-.7.4-1 .6.4.2.8.5 1.3.6.2 0 .5-.2.7-.3-.3-.3-.6-.6-1-.9zM320.3 47.5c-.2.2-.6.4-.6.5.2.5.5.9.8 1.3.2-.2.4-.3.7-.6-.3-.5-.6-.8-.9-1.2zm-103.2 99.9c-.2 0-.5.3-.8.5.2.2.4.6.7.6s.6-.2 1.1-.5c-.5-.2-.7-.5-1-.6zM24.7 123.1c-.3-.2-.6-.4-.9-.5-.2 0-.5.2-.9.5.6.2.9.4 1.2.4.2.1.4-.2.6-.4zm321.9 13.6c.3-.3.7-.6.9-1 .1-.1-.3-.4-.4-.7-.4.3-.7.5-1.2.8.4.5.6.7.7.9zM221.9 57.1c-.4-.5-.7-.8-1-1.2-.1.2-.4.5-.4.6.2.4.6.7.9 1.1l.5-.5zm53.9 110.7c-.1.2-.3.4-.3.4l1.5 1.2s.2-.2.3-.2c-.5-.5-1-1-1.5-1.4zM236.6 22.5c-.1-.1-.4.1-1 .2.8.5 1.1.7 1.6.9.1 0 .3-.2.4-.3-.3-.3-.6-.6-1-.8zM211 5.2c.2.3.5.6.7.9.1-.2.4-.5.3-.7-.1-.4-.4-.7-.7-1.3-.2.6-.4.9-.3 1.1zm4.7 17.3l-.7-.7c-.2.2-.5.5-.6.8 0 .2.2.5.4.7.3-.3.5-.5.9-.8zm-55.1-.3c.4-.2.7-.4 1-.7 0 0-.2-.3-.3-.5-.5.3-.8.6-1.2.8.1.1.4.4.5.4zm3.6 157.5c-.3.6-.5.9-.6 1.4 0 .1.5.5.6.5.4-.1.6-.4 1-.7-.2-.3-.4-.5-1-1.2zM295.8 116c.3-.2.5-.5.6-.8 0-.1-.3-.4-.6-.8-.3.5-.5.9-.7 1.2.2.1.6.4.7.4zM130 22.8c-.2.5-.5.8-.4 1 .2.4.5.6.7 1 .2-.3.5-.6.5-.8 0-.3-.3-.6-.8-1.2zm-1.9 98.6c0 .2.5.5.6.5.3-.1.5-.4.7-.7-.3-.2-.5-.5-.9-.8-.1.5-.4.8-.4 1zm57.5-92.2c-.2.4-.4.7-.3.9.1.2.4.5.7.6.1 0 .5-.4.5-.5-.2-.3-.5-.6-.9-1zm3 36.9c.5.3.9.6 1.1.5.3 0 .5-.4.8-.6-.3-.2-.5-.5-.8-.5s-.6.3-1.1.6zm134-39.7c-.1-.1-.3.1-.7.2.5.6.9 1 1.2 1.5.1-.2.4-.4.4-.5-.2-.5-.5-.9-.9-1.2zm-26.4 140.1l1.5-.6c-.1-.2-.3-.5-.3-.5-.5.2-1 .4-1.6.7.2.3.3.5.4.4zm29.8 9c.2-.3.5-.5.5-.8 0-.2-.2-.5-.4-.9-.3.5-.6.8-.7 1.1 0 .1.4.4.6.6zm6.3-160.6c.1.3.4.6.6.8.1.1.4-.2.7-.4-.3-.4-.5-.6-.7-.9-.2.1-.6.3-.6.5zm.9-6.6c-.2.4-.5.6-.4.7.1.3.3.5.5.8 0 0 .5-.2.5-.3-.2-.3-.4-.6-.6-1.2zm-34 110.3c.2.2.3.6.5.6.3 0 .6-.2 1.2-.4-.4-.3-.7-.6-.9-.5-.2-.1-.5.2-.8.3zm49.1-79.4c.3-.3.6-.6.7-.9.1-.2-.2-.5-.5-.9-.3.5-.6.8-.6 1.1 0 .2.2.4.4.7zm-272.7 146c-.3 0-.6.2-.9.3.3.2.6.5 1 .6.2.1.5-.2 1.1-.4-.6-.3-.9-.5-1.2-.5zm190-60.4c0-.2-.2-.4-.3-.8-.2.3-.4.5-.4.6 0 .2.2.4.2.5.2 0 .5-.2.5-.3zM146.4 14.1c-.1-.1-.4.2-.6.4.3.2.5.5.8.7.1.1.4-.1.7-.3-.4-.3-.6-.6-.9-.8zm5.3 7.7c0-.2-.3-.4-.4-.4-.2 0-.3.2-.6.5.3.2.5.4.7.4.1 0 .4-.3.3-.5zm34.8 132.4c-.3-.3-.7-.6-1.1-1-.3.3-.5.4-.7.6.3.2.5.6.9.7.3 0 .6-.2.9-.3zM168.2 30.8c-.2 0-.4.2-.7.4.3.2.5.4.7.4s.3-.3.5-.4c-.2-.1-.4-.4-.5-.4zm-46.4 141.8c-.2.3-.5.6-.5.8.1.3.4.5.7.7.2-.2.4-.5.7-.7-.3-.2-.6-.4-.9-.8zM267.1 72.4s.4-.3.6-.4c-.3-.4-.6-.7-.9-1.1-.2.1-.3.3-.6.5.4.4.6.8.9 1zM226 74c0 .2.4.5.6.7.2-.3.6-.5.6-.8s-.4-.5-.7-1c-.3.5-.5.8-.5 1.1zm-11.4 48.9c.2.2.4.5.6.5.2 0 .5-.2.9-.5-.4-.3-.6-.6-.8-.5-.2 0-.4.3-.7.5zm-29.3-56.2c.3-.1.5-.4.8-.6-.2-.2-.4-.4-.8-.7-.3.4-.5.6-.6.9 0 .1.5.5.6.4zm42.6 56.4c.2.4.4.7.7 1 .2-.2.4-.3.6-.6-.3-.3-.5-.7-.7-.8-.1-.1-.6.4-.6.4zm-79.8-35.4c-.4-.2-.6-.4-.8-.4s-.4.2-.6.3c.2.2.4.4.6.5.1 0 .4-.2.8-.4zm168.1-32.5c-.2.5-.4.8-.4 1 .1.3.4.4.7.7.1-.2.3-.4.3-.6-.1-.3-.3-.6-.6-1.1zm-200-34.9c-.1 0-.3.2-.5.4.3.2.5.5.8.6.1.1.4-.1.7-.3-.4-.4-.7-.6-1-.7zM144 53.7c-.1-.1-.4.2-.5.2.3.3.6.7 1 1 .1.1.4 0 .9-.1-.7-.5-1-.8-1.4-1.1zm100.8 6.8c.1.3.4.5.6.8.2-.2.4-.4.7-.6-.3-.3-.6-.5-.8-.7-.2.1-.6.4-.5.5zm-42 10.1c0-.3-.2-.6-.4-1.1-.4.3-.8.5-.9.8 0 .2.3.6.6.7.2.1.7-.3.7-.4zm8.9-17.1c0 .2.3.4.5.6.2-.1.4-.3.7-.5-.3-.3-.5-.5-.7-.6-.3.2-.6.4-.5.5zm-4 107.1c.2 0 .5-.4.5-.6 0-.3-.2-.6-.5-1.1-.4.8-.7 1-.6 1.2 0 .2.3.5.6.5zm26.7-10.7c.2.1.4-.2.7-.3-.2-.3-.3-.6-.6-1-.3.3-.6.5-.6.7 0 .2.3.5.5.6zm47.9-7.9c-.1-.4-.3-.8-.5-1.3-.3.3-.6.5-.6.6.1.4.4.7.6 1.1.3-.1.6-.3.5-.4zM173.1 61.5c.2.3.6.6.8.9.1-.2.4-.4.4-.5-.2-.3-.5-.7-.8-1.2-.2.4-.4.7-.4.8zm51-19c.1-.2.4-.5.4-.7-.1-.3-.4-.5-.6-.8-.2.2-.3.4-.6.7.3.4.5.6.8.8zm50.1 140.7c.2-.3.3-.6.5-.9-.1-.3-.2-.5-.3-.6-.2.4-.4.7-.5 1.1-.1 0 .1.2.3.4zM189.4 57.5c.2-.1.5-.3.5-.3-.1-.3-.3-.6-.5-1.1-.2.3-.5.5-.5.5.1.4.3.6.5.9zm-79.6 93.1c-.2.4-.5.6-.4.8.1.3.4.6.6.6s.4-.3.7-.5l-.9-.9zm-21-18c-.4-.3-.7-.6-1.2-1-.2.3-.4.4-.5.6.4.2.9.5 1.3.7.1 0 .3-.2.4-.3zM307 71.7c0-.3-.3-.5-.6-.8-.3.4-.5.6-.7.9.3.2.6.5.9.5 0 0 .4-.4.4-.6zm-31.5 76.1c0 .2.2.5.3.7.3-.2.6-.3 1-.6-.3-.3-.5-.6-.7-.6-.2 0-.6.3-.6.5zM95.6 93c-.3.4-.5.5-.6.8 0 .2.3.5.4.5.2 0 .5-.2.7-.4-.1-.3-.2-.5-.5-.9zm86.4 7.7c-.1.2-.3.4-.3.6.1.3.4.6.6.7.2.1.5-.1.8-.2-.6-.7-.8-.9-1.1-1.1zm46.2 65.3l-.4.4c.1.3.4.6.6.8.1-.2.3-.3.5-.6-.3-.2-.5-.4-.7-.6zM337.3 37.5c.1 0 .6-.3.6-.4-.1-.3-.3-.5-.6-1-.2.4-.5.6-.5.8s.2.5.5.6zM209 12c-.2-.3-.4-.6-.8-1-.2.3-.4.5-.4.6.2.3.5.5.8.8l.4-.4zm.1 70.9c.2.3.5.5.8.6.1 0 .5-.4.5-.5-.1-.3-.3-.7-.6-1.2-.5.7-.8 1-.7 1.1zm-79-15.3c0-.2-.3-.5-.8-1.2-.2.5-.4.8-.4 1s.3.6.5.6c.3.1.7-.2.7-.4zM333.9 173l.3-.3c-.4-.4-.8-.7-1.3-1.1-.1.2-.3.3-.3.4.5.3.9.7 1.3 1zM209.6 91.9c-.2.1-.5.4-.5.6 0 .1.3.3.4.5.2-.2.4-.3.7-.6-.2-.3-.5-.6-.6-.5zm122.1 53.9c-.2-.2-.3-.5-.6-.6-.2-.1-.5.1-1 .2.5.4.8.6 1.1.7.1.1.3-.2.5-.3zM138.2 73.7c-.1 0-.5.4-.5.5.1.2.4.5.6.6.2.1.5-.2.9-.4-.4-.4-.7-.6-1-.7zm39.1 21.4c-.1.4-.2.7-.2.7.2.3.5.5.8.7.1 0 .3-.3.4-.4l-1-1zm87.2 40.7l-.5.5c.2.3.4.5.7.7.1.1.4-.2.6-.3-.3-.3-.5-.5-.8-.9zm25.8 22.8c-.3 0-.6.2-1 .3.6.5.7.7.9.8.2-.3.4-.5.6-.8 0 0-.4-.3-.5-.3zm-31.1-62.5c-.3.3-.6.6-.6.7 0 .2.4.5.6.6.2 0 .5-.3.6-.5 0-.2-.3-.5-.6-.8zM272.5 20c-.1-.3-.3-.5-.5-.9-.2.2-.5.5-.4.5.1.3.3.5.5.7 0 0 .4-.2.4-.3zm-6.2 67.6c0 .1.2.3.4.3s.3-.2.6-.4c-.4-.2-.5-.3-.7-.5-.1.2-.3.4-.3.6zm57.9 23.5c.1-.1.2-.3.3-.4-.2-.5-.3-.9-.4-1.3-.1.2-.3.3-.3.5.1.4.3.8.4 1.2zm-59.4-95.9c-.2.1-.4.3-.6.4.2.1.4.3.6.3s.4-.1.6-.2c-.2-.2-.4-.4-.6-.5zm-2 4.9c.1 0 .3-.1.4-.3 0-.1-.1-.3-.4-.8-.1.3-.2.5-.2.7-.1.1.1.4.2.4zm62.1 129.2c0 .2.3.4.4.6.2-.2.6-.3.6-.6 0-.2-.3-.4-.5-.8-.2.3-.5.6-.5.8zm-123.8-36.7c-.1 0-.3.2-.5.5.4.3.7.5 1 .7.1-.2.4-.5.4-.5-.3-.3-.6-.6-.9-.7zm-2.6-103c.2.2.4.5.6.7.1 0 .3-.2.6-.4-.3-.3-.5-.5-.7-.6-.1-.1-.3.1-.5.3zm126.9 42.1c-.1 0-.4.3-.4.4 0 .2.3.4.4.4s.3-.2.6-.4c-.2-.2-.4-.4-.6-.4zM171 94.2c0-.2-.3-.4-.5-.4s-.5.1-1 .3c.7.4.9.7 1.1.6.2-.1.4-.4.4-.5zm6.6-86.3c-.1-.2-.3-.3-.5-.6-.1.3-.3.5-.2.5.1.2.3.3.5.4 0 0 .2-.2.2-.3zm10.7-1.6c.1 0 .3-.2.7-.4-.4-.2-.6-.4-.8-.4-.1 0-.3.3-.4.4.1.1.3.3.5.4zm4.7 185.4c-.3.1-.5.3-.8.4l.4.6c.3-.3.5-.5.7-.8 0 .1-.3-.2-.3-.2zM347.1 83.3c-.2-.2-.4-.4-.8-.7-.2.3-.4.5-.4.6.1.2.4.5.6.6.2.1.4-.3.6-.5zM206.8 67.9c-.2.2-.5.4-.5.5.1.2.3.5.6.6.1.1.4-.2.6-.4l-.7-.7zM54.1 98.4c0 .2.3.3.4.5.2-.2.4-.4.5-.7 0-.2-.2-.4-.4-.8-.2.5-.4.7-.5 1zm183.2-21.3c.1-.2.4-.4.3-.6-.1-.2-.3-.4-.7-.8-.1.4-.3.6-.2.8l.6.6zm-126.7 49c-.1.2-.3.4-.4.6 0 .2.1.5.4 1.2.3-1 .5-1.2.5-1.4-.1-.1-.4-.2-.5-.4zM309.1 17.5c-.1-.3-.3-.5-.5-.7l-.6.4c.3.3.5.5.8.6 0 .1.3-.2.3-.3zm-3.5 120c-.3.1-.5.2-1 .5.4.2.6.4.7.4.2 0 .4-.2.6-.3-.1-.3-.2-.6-.3-.6zm-1.8-75c-.2.4-.4.6-.4.7 0 .3.2.5.3.8.2-.1.5-.3.5-.4 0-.3-.2-.6-.4-1.1zM252 119.7c-.3.1-.5.2-.7.4.3.5.3.6.4.7.2-.2.4-.4.5-.6s-.1-.4-.2-.5zm-.2 33.5c.2.3.3.6.6.8.1.1.4-.2.7-.3-.3-.4-.6-.6-.8-.8-.1-.1-.5.3-.5.3zm9.6-138.9c.2-.1.4-.3.5-.4 0-.2-.2-.4-.4-.8-.2.3-.4.5-.4.6 0 .2.2.4.3.6zm2.5-1.8c-.1 0-.3.1-.6.2.5.3.7.5.9.6 0 0 .3-.3.2-.3-.1-.2-.3-.4-.5-.5zM276 78.6c-.2.4-.4.6-.3.8 0 .2.4.4.5.4.2 0 .4-.3.4-.5s-.3-.4-.6-.7zm-53.7 11.7c.1.2.4.4.6.5.1 0 .3-.2.5-.4-.2-.2-.4-.4-.6-.7-.3.3-.5.5-.5.6zm6.6 28.2c-.2 0-.5.2-.5.4-.1.1.1.4.2.6.2-.1.5-.2.9-.4-.3-.3-.5-.6-.6-.6zM322.3 51c-.1.2-.4.4-.4.5 0 .2.3.4.4.6.2-.1.3-.3.6-.5-.2-.3-.4-.5-.6-.6zm33.8 103.2c.3-.1.5-.3.7-.5l-.5-.5c-.3.3-.4.5-.6.7.1.1.3.4.4.3zM157 58.4c-.1.2-.2.4-.3.5.3.2.6.3 1 .5 0 0 .2-.2.1-.2l-.8-.8zM289.5 27c-.1 0-.3.3-.3.4.1.2.3.3.5.4.1 0 .3-.1.7-.3-.5-.3-.7-.5-.9-.5zm.7 58.9c-.2-.1-.3-.4-.5-.3-.2 0-.3.3-.7.5.3.1.5.3.7.3s.3-.3.5-.5zm-6.3-71.6c.1-.1.2-.2.4-.3l-.4-.4c-.1.2-.2.4-.2.5-.1.1.1.3.2.2zm-14.8 88.9s.2-.1.4-.1c-.2-.2-.2-.4-.4-.5-.1.1-.3.2-.3.2 0 .1.1.3.3.4zM308.5 12l-.4.4c.1.1.2.2.4.3.1 0 .2-.1.2-.2 0-.2-.1-.3-.2-.5zm-73.7 22.4c.1-.1.4-.3.4-.4 0-.2-.2-.4-.4-.6-.2.2-.4.4-.4.5.1.2.3.4.4.5zm7.3 2.6c0 .1.1.3.2.3s.4-.1.4-.2-.1-.3-.3-.5c-.1.2-.3.3-.3.4zm83.6 61.2c.1-.2.4-.4.4-.6 0-.1-.1-.3-.3-.7-.3.4-.5.6-.6.9 0 .1.3.3.5.4zM224.3 28.8c-.1.2-.2.4-.2.5.1.1.3.2.4.2.1 0 .3-.3.2-.3 0-.2-.2-.2-.4-.4zm107.1 100.1c0-.1-.1-.3-.3-.5-.2.2-.5.4-.5.6 0 .1.2.3.3.5.2-.3.4-.4.5-.6zm-165.2 17c-.2 0-.3.2-.5.4.2.1.3.4.5.4s.4-.2.7-.3c-.3-.3-.5-.5-.7-.5zm51.9-71.4c.1-.1.4-.3.4-.4 0-.2-.2-.4-.5-.7-.2.3-.4.5-.3.7 0 .1.2.2.4.4zm-36.9 8.3c.1 0 .2-.1.3-.2l-.3-.3c-.1.1-.1.2-.2.3 0 0 .1.2.2.2zm79.2 18.2c0 .2.3.3.5.5l.4-.4c-.2-.2-.3-.4-.5-.6-.2.2-.5.4-.4.5zm72.5-21.6c.4.3.6.4.8.6l.3-.3c-.1-.2-.3-.5-.5-.6 0-.1-.3.1-.6.3zM174.2 31l.2-.2-.3-.3s-.1.2-.3.3c.2 0 .3.2.4.2zm2.8 120.4c.1-.1.3-.3.3-.4 0-.1-.1-.3-.2-.5-.2.2-.4.3-.4.5 0 .1.2.2.3.4zM198 44c-.3.2-.5.4-.5.5 0 .2.2.4.4.5.1 0 .5-.2.5-.3 0-.1-.2-.3-.4-.7zm49.9 14.4c-.2.1-.4.2-.4.4 0 .1.1.3.2.5.2-.1.4-.2.5-.3.1-.2-.1-.4-.3-.6zm103 26.5c-.1 0-.3.1-.6.3.4.2.6.4.9.5.1 0 .3-.2.5-.3-.3-.2-.5-.4-.8-.5zm-10.7-16.4c0 .2.2.4.2.6.2-.1.3-.2.6-.3-.2-.3-.3-.5-.4-.7-.2.1-.4.2-.4.4zm17.2 38.1c.2-.1.3-.4.3-.6 0-.1-.3-.2-.5-.3-.2.3-.3.5-.4.7.3.1.5.3.6.2zM117.8 87.2c-.1.2-.3.3-.4.5.1.1.3.3.4.3s.2-.2.4-.3c-.1-.2-.2-.4-.4-.5zm219.5 76.2c.4.2.6.4.9.5l.3-.3c-.2-.2-.5-.4-.8-.5 0 0-.2.2-.4.3zm-179.8-125c.2.2.3.5.6.6.1 0 .3-.2.5-.3-.2-.2-.4-.4-.6-.7-.3.2-.5.4-.5.4zm-49.1 15c-.1.4-.2.6-.2.7.2.2.4.4.7.5.1-.2.3-.4.3-.5-.2-.1-.4-.3-.8-.7zm25.8 30.7c.2.1.3.3.5.4.1 0 .2-.2.4-.4-.3-.2-.5-.3-.7-.4l-.2.4zm39.2-20.2l-.6-.6s-.2.2-.5.4c.3.2.5.4.8.5.1 0 .3-.3.3-.3zM19.2 75.8c-.1 0-.3.1-.5.2.2.2.4.4.5.4s.3-.1.4-.2c-.1-.1-.2-.3-.4-.4zm92.2 21.4c-.1-.2-.3-.3-.6-.6-.1.2-.3.5-.3.5.2.2.4.3.6.4l.3-.3zm-6.5-47.7c-.1.2-.3.4-.2.5.1.1.2.2.4.3.1-.1.3-.3.3-.4-.1-.1-.3-.2-.5-.4zm88.5 5.9c-.1-.1-.2-.3-.3-.4 0 0-.2.2-.3.2.1.1.2.3.4.3 0 .1.1 0 .2-.1zm120.3-2.8c.1-.2.4-.3.4-.5s-.2-.4-.5-.7c-.2.3-.4.5-.3.7 0 .2.3.4.4.5zm-118.9-.9c.1.2.1.4.2.4s.3-.1.4-.1c-.1-.1-.2-.3-.3-.4-.1 0-.2.1-.3.1zm-15.4 108.5c-.2-.1-.3-.3-.5-.4 0 0-.2.2-.4.5.3.1.4.3.6.3 0 0 .1-.3.3-.4zM313 92.1c.2-.1.3-.2.4-.3h-.5c-.1 0-.3.2-.6.4.4 0 .6 0 .7-.1zm-61.9 64.4c-.2.1-.3.2-.4.3.1.1.2.3.4.3.1 0 .3-.1.5-.1-.2-.1-.3-.3-.5-.5zM236.4 11.6c.1.2.3.3.4.5 0-.1.1-.2.2-.3l-.5-.5c0 .1-.1.2-.1.3zm51.5 21.6c-.2-.2-.3-.3-.5-.4 0 .2-.1.3-.1.5 0 .1.1.2.2.3.2-.2.2-.3.4-.4zM246 127.8c.1 0 .2-.2.4-.3-.1-.2-.3-.4-.4-.5-.1 0-.3.2-.5.3.2.3.3.5.5.5zm-45.5-87.6c0-.1.1-.3.1-.3-.2-.2-.4-.3-.5-.5 0 .1-.1.2-.1.4.1.1.3.3.5.4zm102.2 72.5c0-.2-.2-.4-.4-.6-.2.2-.4.4-.4.5.1.2.3.4.4.5.1-.2.4-.3.4-.4zm-26.3-84.5c0 .1 0 .1.1.2h.2v-.2c-.1 0-.2.1-.3 0zm70 36.2c0-.2-.2-.4-.3-.7-.2.2-.4.4-.4.5.1.2.2.4.4.6.1-.2.3-.3.3-.4zm-3.6 82.4c-.1.4-.2.6-.2.8 0 .1.3.3.4.3.2-.1.4-.3.4-.4-.1-.2-.3-.4-.6-.7zM301.4 31.7c-.1-.1-.1-.2-.2-.2l-.3.3c.1.1.2.2.3.1.1.1.2-.1.2-.2zm-59.3 69.2c.1.2.3.4.5.5.1 0 .4-.3.4-.4 0-.2-.3-.4-.5-.7-.2.2-.4.4-.4.6zm99.5 6.3l-.3.3.6.6s.2-.2.5-.4c-.3-.2-.5-.4-.8-.5zM211 29.9c.2-.3.4-.5.6-.8-.3.1-.6.3-.9.4.1.1.2.3.3.4zm.7-.8h-.1.1zm-153 47.1c-.1 0-.2.1-.3.1.1.1.2.3.4.4.1 0 .2-.1.4-.1-.2-.2-.4-.3-.5-.4zm229.6-47.3c-.1-.1-.3-.2-.4-.2 0 0-.2.2-.1.3.1.1.2.2.4.3-.1-.2 0-.2.1-.4zm-154-.4c-.1 0-.3.1-.5.2.3.2.4.4.6.5.1-.1.3-.2.3-.3-.1-.2-.3-.3-.4-.4zM262.6 67l.3.3c0-.1.1-.2.1-.3l-.2-.2-.2.2zm4.8 18.7c.1.1.2.1.3.2l.2-.2-.3-.3c-.1.1-.2.2-.2.3zm-19.8 21.4c-.2 0-.3.1-.5.2.1.1.2.3.3.5l.4-.4c.1-.1-.1-.3-.2-.3zM92.5 89.6c-.2.3-.3.6-.2.9.2.3.3.5.6.6.2 0 .3-.2.6-.3-.3-.4-.6-.6-1-1.2zm147.3-76.4l.2.2c.1 0 .2-.1.3-.2-.1-.1-.1-.2-.2-.3l-.3.3zM262 181.3c-.2.1-.3.3-.5.4.1.1.3.2.5.4.1-.2.3-.4.4-.6-.1-.1-.3-.3-.4-.2zM226.5 49.1c0-.1-.1-.3-.5-.9-.1.4-.2.6-.2.7 0 .2.2.3.3.4.1 0 .4-.1.4-.2zM118.8 74c-.1-.1-.2-.2-.4-.3l-.3.3c.1.1.3.2.4.3.1 0 .2-.2.3-.3zm103.7 57c.1 0 .4-.3.3-.3-.1-.2-.3-.4-.4-.5-.1 0-.3.2-.5.3.3.2.4.4.6.5zm-7.8-74c-.2.3-.3.4-.3.5 0 .2.2.3.3.4.1 0 .2-.1.4-.2-.1-.2-.2-.3-.4-.7zm-75.2 28.5c-.1.1-.2.2-.2.3 0 .1.1.2.2.2.1-.1.2-.2.2-.4.1 0-.1 0-.2-.1zM177.4 191c-.3.1-.4.2-.6.3.2.2.3.4.5.4.1 0 .3-.1.5-.2-.2-.1-.3-.3-.4-.5zm-.1-44.6c-.1.2-.3.3-.3.4 0 .1.1.3.2.2.1 0 .3-.1.4-.2-.1-.1-.2-.2-.3-.4zm-71.5 36.8c.1-.1.2-.4.3-.5l-.3-.2c-.2.2-.5.4-.9.9.5-.1.8-.1.9-.2zm12.5-25.8c.2 0 .8-.5.7-.6-.1-.3-.5-.6-.9-1-.3.4-.7.8-.6 1 0 .1.5.5.8.6zm4.4 11.3c-.3-.3-.7-.6-1.1-1-.3.3-.5.4-.7.6.3.2.5.6.9.7.2 0 .5-.2.9-.3zm-9.5-2.8c.1-.1.3-.3.3-.4 0-.1-.1-.3-.2-.5-.2.2-.4.3-.4.5-.1.1.1.2.3.4zm2.3 8.8c-.2-.1-.3-.3-.5-.4 0 0-.2.2-.4.5.3.1.4.3.6.3.1 0 .1-.3.3-.4zm-2-13.8c-.1.2-.3.3-.3.4 0 .1.1.3.2.2.1 0 .3-.1.4-.2-.1-.1-.3-.2-.3-.4zm79.9-7.3c.1-.1-.1-.3-.2-.5-.3.3-.6.4-.6.5s.2.4.3.4c.2-.1.4-.2.5-.4zm-4.7-114.3c-.1.1-.1.2-.2.4.2.1.3.1.4.2 0-.1.2-.3.1-.3 0-.1-.2-.2-.3-.3zm128.4 153.1c0 .1.2.2.3.3.1-.2.3-.3.3-.5 0-.1-.2-.2-.4-.3-.1.2-.3.4-.2.5zM162.4 23c0 .1.1.2.2.3l.2-.2c0-.1-.1-.2-.2-.3-.1 0-.2.1-.2.2zm118.2 122.9c-.1.2-.3.3-.3.4 0 .1.2.3.4.4.1 0 .3-.2.3-.3-.1-.2-.3-.3-.4-.5zm-63.7-56.5c.1 0 .3-.1.4-.1-.1-.1-.2-.3-.3-.4-.1.1-.2.1-.3.1 0 .1.1.3.2.4zm-92.3 10.9c-.1.1-.2.2-.1.2 0 .1.2.1.3.2.1-.1.1-.2.2-.3-.2 0-.3-.1-.4-.1zm51.8-83.4h.3c0-.1 0-.1-.1-.2h-.2c.1.1 0 .2 0 .2zm122.5 66.9c0-.1-.1-.2-.1-.3-.1 0-.2.1-.3.1.1.1.1.3.2.4.1 0 .2-.1.2-.2zm-33.5-65.9l.1.1.1-.1-.1-.1-.1.1zm12.9-3.9c.7-.9 1.5-1.7 2.1-2.6.1-.2-.4-.8-.9-1.9-.8 1.7-1.3 2.8-1.7 3.9-.2 0 .3.3.5.6zM291 7.9c-.1-.3-.3-.5-.5-.9-.2.2-.5.5-.4.5.1.3.3.5.5.7 0 0 .4-.2.4-.3zm-7.7-4.8c-.2.1-.4.3-.6.4.2.1.4.3.6.3s.4-.1.6-.2c-.2-.2-.4-.4-.6-.5zm-2 4.9c.1 0 .3-.1.4-.3 0-.1-.1-.3-.4-.8-.1.3-.2.5-.2.7-.1.1.1.4.2.4zm2.6-2.2l.1.1.1-.1-.1-.1-.1.1zm-157 33c.7-.9 1.5-1.7 2.1-2.6.1-.2-.4-.8-.9-1.9-.8 1.7-1.3 2.8-1.7 3.9-.2 0 .3.3.5.6zM37.6 23.4c-.1-.3-.3-.5-.5-.9-.2.2-.5.5-.4.5.1.3.3.5.5.7 0 0 .4-.2.4-.3zm-7.7-4.8c-.2.1-.4.3-.6.4.2.1.4.3.6.3s.4-.1.6-.2c-.2-.2-.4-.4-.6-.5zm-2 4.9c.1 0 .3-.1.4-.3 0-.1-.1-.3-.4-.8-.1.3-.2.5-.2.7-.1.1.1.4.2.4zm2.6-2.2l.1.1.1-.1-.1-.1-.1.1zm145.9 94.2c-.1 0-.2.2-.3.3 0 0 .1.2.2.2s.3-.1.5-.2c-.1-.1-.2-.2-.4-.3zm-123-9c.1 0 .2-.1.3-.2-.1-.1-.2-.1-.3-.2-.1.1-.1.2 0 .4-.1 0 0 .1 0 0zm224.3-40.7c0-.1-.2-.3-.3-.4l-.3.3c.1.1.2.2.3.4.2-.2.4-.3.3-.3zm24.7 43c0 .1-.2.3-.1.4s.2.3.4.3c.1 0 .3-.1.7-.2-.7-.3-.8-.4-1-.5zM233.3 130c-.1 0-.3.1-.5.1.2.2.3.3.4.5l.3-.3c.1-.1-.1-.3-.2-.3zm-69-30.2s0 .1.1.2h.3c0-.1-.1-.2-.1-.3-.2 0-.3 0-.3.1zm126.8-78.2v.2c.1 0 .2 0 .3-.1 0 0 0-.1-.1-.1-.1-.1-.2-.1-.2 0zM22 142.7c-.1.1-.1.2-.2.3l.1.1c.1 0 .2-.1.3-.1 0-.2-.1-.3-.2-.3zM209.8 16.9c0-.1-.1-.2-.1-.3-.1 0-.1.1-.1.1 0 .1.1.2.1.3 0-.1.1-.1.1-.1zM139.5 6.7c0 .1-.1.2-.1.3 0 .1.2.1.2.2.1-.1.1-.2.2-.4-.1-.1-.2-.1-.3-.1zm144 76.2l.1-.1c-.1-.1-.2-.1-.2-.2-.1.1-.1.2-.2.3h.3z" class="st0"/><path d="M271 131.4c.1 0 .3-.3.2-.3-.1-.1-.3-.2-.5-.3-.1.2-.2.4-.2.5.2 0 .4.1.5.1zm-3.9-116.2c-.3-.1-.7-.2-1-.4l.9.6s0-.1.1-.2zm-1.2-.4c0 .1.1.1.1.1s0-.1-.1-.1zm27.8 12.8c-.1.1-.2.1-.2.2l.2.2c.1 0 .2-.1.2-.2l-.2-.2zM347 6.3c0 .1.2.2.2.2.1-.1.3-.2.3-.3 0-.1-.2-.2-.4-.4 0 .2-.1.4-.1.5zM214 7.8c.1.1.2.3.3.4l.3-.1c0-.2-.1-.3-.2-.5-.2.1-.3.1-.4.2zm62.4 41.1c.1.1.1.2.2.3.1 0 .2-.1.3-.1 0-.1-.1-.2-.1-.3-.1 0-.2 0-.4.1zm-.4 113c.1 0 .2-.1.3-.2-.1-.1-.2-.1-.3-.2 0 .1-.1.2-.1.3-.1 0 0 .1.1.1zm-.6-15.7c.1-.1.2-.1.2-.2l-.3-.3c-.1.1-.2.2-.2.3.1.1.2.2.3.2zm17.7-55.3c0-.1-.1-.1-.2-.2l-.2.2.2.2c.1 0 .2-.1.2-.2zM72 124.2h-.2c0 .1 0 .2.1.3h.2c-.1-.1-.1-.2-.1-.3zm184.5 47.9c-.1 0-.1.1-.2.2.1.1.2.1.3.2.1-.1.1-.2.2-.4-.1.1-.2 0-.3 0zm.9-10.2c-.1.1-.2.3-.2.4 0 0 .2.2.3.2l.3-.3c-.1-.1-.2-.2-.4-.3zm-3.5 3.6c-.1 0-.2.1-.3.1.1.1.1.2.2.2s.2-.1.3-.1c-.1-.1-.1-.2-.2-.2zm27.6-88.8c0-.1-.1-.3-.2-.4-.1.1-.3.2-.3.2.1.1.2.2.3.4.1 0 .2-.1.2-.2zm4.4 107.5c.1 0 .2-.2.3-.3l-.4-.4c-.1.2-.3.3-.3.4.1.2.3.3.4.3zM249.6 52.1v.1l.1-.1zM297.3 26c-.1 0-.2-.1-.2-.1v.2l.1.1c.1-.1.1-.1.1-.2zm53.2 165.5c-.1.1-.2.2-.2.4 0 .1.2.1.3.2 0-.1.1-.2.1-.3 0-.1-.1-.2-.2-.3zM149.2 19v.2l.1-.1c0-.1 0-.1-.1-.1zm49.4 171.7c.2 0 .3-.1.5-.2-.1-.1-.1-.2-.2-.2-.2 0-.3.1-.5.2 0 0 .1.2.2.2zm7.8-177.5s0 .1.1.1h.3c0-.1-.1-.2-.1-.3-.2.1-.3.2-.3.2zm131.3 66.7c.1-.1.2-.2.2-.3 0-.1-.1-.1-.2-.2-.1.1-.1.2-.2.3 0 .1.1.1.2.2zM329.8 67c-.1 0-.2.1-.2.2l.2.2c.1 0 .2-.1.2-.2l-.2-.2zM133.5 14.1s0 .1-.1.1c.1 0 .2 0 .3.1v-.2h-.2zm76.7 31.7c-.1.1-.2.1-.4.2.1.1.1.2.2.2s.2-.1.3-.1c0-.1 0-.2-.1-.3zm-35.6 145c-.3 0-.7 0-1 .1.3.1.7.2 1 .3v-.4zm-1 .1h-.1.1zm16.8-58.5l.3-.3c-.1-.1-.2-.1-.3-.2l-.2.2c0 .1.1.2.2.3zM351.9 101c.2.2.3.3.4.5l.3-.3c0-.1-.1-.3-.2-.3s-.3.1-.5.1zM310 126c-.2.1-.3.1-.4.2.1.1.1.3.2.4l.3-.1c0-.2 0-.4-.1-.5zm-72.6 11.4l.2-.1-.2-.1zm69.7-127v.1c.1 0 .1-.1.2-.1l-.1-.1c0 .1-.1.1-.1.1zm-67.8 17.5c.2-.1.3-.2.5-.3-.2.1-.3.2-.5.3zm67.5 64.4h-.1v.1l.1-.1zm-61.6 13c.1.1.1.3.3.4.1 0 .2 0 .4-.1-.1-.1-.2-.3-.3-.4-.2.1-.3.1-.4.1zm58.7 47.8c-.1-.1-.3-.3-.4-.3s-.2.2-.4.4c.2.1.4.3.5.3.1-.1.2-.3.3-.4zM88.7 40.6h-.3v.2h.3v-.2zM211.5 114c-.1 0-.3.1-.4.2.1.1.2.3.3.5.1-.2.3-.3.3-.4 0-.1-.1-.3-.2-.3zm1.8 5.8c0-.1-.1-.2-.2-.2l-.2.2c0 .1.1.2.2.2l.2-.2zm110 41.4c0 .1-.1.2-.1.3.1.1.2.1.3.2 0-.1.1-.2.1-.3-.1-.2-.2-.2-.3-.2zm-.2 2c-.2.1-.3.1-.4.2.1.2.3.4.4.5 0 0 .2-.1.3-.1l-.3-.6zm-1.2-142.9l-.1-.1v.1zm-3.7-2.4h-.1l-.1.1.1.1c0-.1 0-.1.1-.2zm-2.7 122s.2-.1.2-.2c-.1-.1-.2-.3-.3-.4-.1.1-.2.2-.3.2l.4.4zM.3 128.1c.4.2.8.3 1 .6.3.5.5 1.1.7 1.6l-1.8.3c.1-.8.1-1.6.1-2.5zm345.2-63.6zM16.9 174.6c-.7-.1-1.1 0-1.3-.2-.5-.4-1-.9-1.1-1.4-.2-.8.7-.5 1-.9 1.3-1.4 2.7-1.6 4.3-.6.4.2.7.8.7 1.3.1.7-.5.5-1 .6-1 .3-1.9.9-2.6 1.2zm17.3-54.4c.4-.1.7-.2 1-.1.8.1 1 .5.7 1.2-.2.2-.3.4-.4.6-1 1.5-1 1.5-2.3.1-.3-.3-1.1-.6-.6-1.1.3-.4.6-1.5 1.6-.7zM100.7 6.8c.5.1.8.5.5 1-.4.5-.8 1.1-1.2 1.7-.1.2-.5.2-.7.2-.2-.1-.5-.2-.5-.5-.3-1 .9-2.5 1.9-2.4zm158.6 137.9h1c3.6.1 3.7.4 2.1 3.6-.1.3-.7.7-.9.6-.3-.1-.9-.7-.7-1 .7-2.1-1.1-1.6-2.1-1.9-1.1-.3-1.4 0-.9 1.1.3.6.6 1 .7 1.6 0 .3-.1.7-.3.7-.1.1-.7 0-.9-.1-.4-.4-1-.9-1.3-1.3-.4-.9-.7-1.9-1.1-2.9 1-.1 2-.4 3-.6.4.4.7.4 1.4.2zm-248.1-8.1c-.3.2-.7.6-1 .5-1.2-.1-1.5-.4-1.5-1.9v-.3c-.2-.6-.9-1.4.4-1.7 1-.2 1.6.3 1.8 1.2.1.7.2 1.3.3 2.2zm308.1-94.1c-1.8-.2-4.1-3.3-3.3-5.1.2-.5 1.1-1.2 1.6-1.2.9 0 1.9 0 2.5.5 1.1 1.1 1.1 3.9.2 5.1-.3.3-.6.5-1 .7zM26.2 12.2c-.1.5-.1.9-.2 1.2-.2 1.1-.4 1.3-1.4.9-.5-.2-.9-.5-1.4-.7s-1.1-.5-1.6-.7c.5-.4 1-.9 1.5-1.3.6-.5.7.1.8.4.3.8.7 1.1 1.3.2.2-.2.4-.5.6-.7.1.3.3.6.4.7zm.7 177.4v2c-.8-.1-1.6-.2-2.4-.4-.2 0-.4-.5-.3-.8.1-.5.4-1 .5-1.4.2-.8.8-1.3 1.6-1.1 1.4.2.7 1.1.6 1.7zM70.2 106c.5-1.2.8-2.1 1.2-2.9.6-.8 1.3-1.5 2.4-.6.5.5 1.3 1 1.8 1.7.3.3.5 1 .3 1.3-.2.3-.9.7-1.2.6-1.2-.2-2.4-.7-2.1 1.4-.5.1-1.2.5-1.6.1-.3-.3-.5-1.1-.8-1.6zm105.1-10.6c-.2.8-.3 1.4-.6 2-.1.3-.7.6-.9.5-.4-.2-1-.6-1-1-.1-.6.1-1.3.5-1.8.3-.4 1-.6 1.4-.9.2.5.4.9.6 1.2zM82.8 50.6c1.1.1 1.8 1.1 1.7 2.2 0 .4-.6.9-1 .9-1 .1-1.9-.8-1.8-1.7.1-.5.8-1 1.1-1.4zm252.9 123.8c0 .3 0 .6-.1.9-.1.2-.3.4-.4.4-.3 0-.8-.1-.8-.3-.3-.8-.5-1.6-.6-2.4 0-.2.5-.7.8-.7s.9.2 1 .5c.1.4 0 1 .1 1.6zm-310.1 3.4c.4.1.6.2.7.3.2.2.4.6.3.8-.5 1-1.3 1.7-2.5 1.7-.4 0-.8-.2-1.2-.2.2-.3.4-.6.6-.8.7-.7 1.4-1.3 2.1-1.8zm13.2-42.4c0-.6 0-.9.2-1.2.9-1.2.6-3.2 2.7-3.5.3 0 .8 0 .9.2.9 1.7-.2 2.9-1.1 4.3-.2.3-.3.6-.6.8-.3.3-.9.8-1.1.6-.4-.3-.7-.9-1-1.2zM257 177.2c-.1.1-.3.7-.7 1.1-.1.1-.8-.1-.9-.2-.2-.7-.3-1.4-.3-2 0-.7.5-.9 1.1-.8.3.1.6.5.8.8.2.2.1.5 0 1.1zM36.5 82.9c0 .2-.4 1-.8 1.8-.6-.4-1.2-.8-1.8-1.4-.2-.2-.2-.4-.4-.4-.6-1.2-3.3 2.2-2.7-1.2.6-2.5 2.4-3.5 4.1-2.9 2 .6 1.6 2.1 1.6 4.1zm96.7 56.2s1-.4 1 .8c0 1.4-.9 1-1.8.8-.3-.1-.7.3-.9.2-.3-.2-.6-.6-.7-.9 0-.2.4-.6.7-.8.3-.2.6-.1 1.7-.1zM19 17.9c-.3.3-.5.9-.9.9-.7.1-1.2-.4-1.2-1.1 0-.5.1-1.1.3-1.5.1-.2.5-.5.7-.5.3 0 .6.3.7.5.3.5.3 1 .4 1.7zm277.9 127.4c0 .2-.1.6-.2 1 0 .1-.3.2-.5.3-.1 0-.2-.1-.2-.2-.2-.4-.7-.9-.7-1.4.1-.8.4-1.5.6-2.2 1.1.3.7 1.3.9 2 .1.1.1.2.1.5zm-164.4 16.6c-.1-.1-.5-.4-.4-.6.3-.8.6-1.5 1-2.2.1-.2.6-.2.9-.1.2 0 .4.2.4.4.3 1.2-.5 2.4-1.9 2.5zm62.4-94.5c0 .1 0 .8-.2.9-.5.3-1.1.3-1.7.4-.1 0-.4-.8-.3-1 .3-.5.7-1 1.1-1.5.2-.2.5-.4.7-.5.1.3.1.6.2.9.2.1.2.3.2.8zM53.6 132c1-.1 1.7.5 1.6 1.2-.1.7-.4 1.4-.6 2.1-.1.1-.4.3-.5.3s-.3-.3-.3-.5c-.1-.8.5-1.9-.6-2.5.1-.2.3-.5.4-.6zm91.6-36.2v-4.5c0-.3.8-.5 1.3-.8.3 0 .5.3.5.5.5 2 1.3 4 1.5 6 0 .5-1.3 2-1.5 2-1-.3-1.8-1-2.5-1.8-.3-.3 0-1 .3-1.5.1.1.1.1.4.1zm204.2 77.4c.4.5.9.9.9 1-.4.7-.9 1.4-1.4 2-.1.1-.6 0-.6 0-.1-.6-.2-1.2 0-1.8.1-.5.7-.8 1.1-1.2zM85.7 32.2c.5.3.9.4.9.7.1.4.1 1-.1 1.1-.5.3-1.1.5-1.7.6-.2 0-.5-.2-.7-.5-.1-.1 0-.5.1-.6.4-.4 1-.8 1.5-1.3zM344.8 5.4c1.3 0 2 .5 1.9 1.2s-.6 1.1-1.3 1.1c-.8 0-1.6-.8-1.4-1.4.1-.4.6-.7.8-.9zM104.4 33.1c.1-.8 0-1.2.2-1.6.1-.2.4-.5.6-.5s.6.3.6.5c.1.4.1.8 0 1.2-.1.6.2 1.6-1 1.5-.2.1-.3-.9-.4-1.1zm185.5 115.4l.2.2c-.2.7-.3 1.5-.8 1.9-.3.3-1.2.1-1.8.1-.1 0-.2-.4-.2-.5.7-.6 1.5-1.2 2.2-1.8.1.1.3.1.4.1zm60 36.9c-.1.3-.1.5-.3.6-.3.1-.7.2-.8.1-.4-.3-.9-.7-1-1.1-.1-.4.4-.8.6-1.3.3.2.8.3 1 .6.3.3.4.8.5 1.1zM21.5 85.8c.4-.1.7-.2 1.1-.3v1.1c0 .3-.1.6-.3.9-.3.7-1.1.8-1.5.2-.3-.5-.4-1.1-.6-1.6.5 0 .9-.1 1.4-.1-.1-.1-.1-.2-.1-.2zm149.9 94.6c.9-.6 1.7-1 2.4-1.4.1-.1.4 0 .6 0 .1 0 .1.2.1.3s0 .2-.1.3c-.3.5-.5 1.1-.9 1.6-.2.2-.7.5-.9.4-.4-.2-.7-.6-1.2-1.2zm20.2-50.9c-.1.1-.3.6-.6.6-.6.1-1.5-1-1.4-1.8 0-.2.6-.6.9-.6 1-.1 1.1.7 1.1 1.8zm-50.5 37.6c-.3 0-.6.1-.9 0-.1 0-.3-.2-.3-.4l.1-.2c.8-.3 1.5-.7 2.3-1 .2-.1.8.3.8.6.1.3-.2.9-.5 1-.5.1-1 0-1.5 0zm34.2-90.8c.4.1.6 0 .8.2.6.5 1.2 1.1 1.8 1.6-.2.2-.4.6-.6.6-1.2 0-2-.6-2.3-1.7-.2-.2.1-.5.3-.7zm16.4 10.2c.2.2.7.4.8.8s.1 1 .1 1.5c0 .1-.2.2-.2.2-.5-.3-1.1-.5-1.5-.9-.2-.2.1-.7.2-1.1-.1-.2.2-.3.6-.5zM151 119.2c.3.4.5.6.5.7-.4.8-.7 1.7-1.2 2.4-.1.1-.6.1-.9.1-.2 0-.4-.4-.4-.4.6-.9 1.2-1.8 2-2.8zm114.8-54c.2.1.5.1.6.2.4.9.7 1.9 1 2.9 0 .1-.2.3-.3.5 0 .1-.3 0-.3 0-.5-1.1-1-2.2-1.5-3.2 0-.2.3-.3.5-.4zM29.6 101.3c-.2.5-.3 1.1-.6 1.4-.2.2-.7.3-1.1.2-.2-.1-.3-.7-.3-1 .1-.4.3-.8.5-1.1.2-.3.6-.4.9-.6.3.3.4.7.6 1.1zM250 162.1c.1-.7.3-1.7.5-2.6 0-.1.3-.3.5-.3.1 0 .4.2.3.3-.1 1-.1 2.1-.3 3.1 0 .2-.4.5-.6.7-.2-.2-.4-.5-.5-.7.1-.1.1-.2.1-.5zm-11.6-19.5c.3.3.7.5.7.6-.3.7-.7 1.3-1 1.9 0 .1-.5 0-.5 0-.1-.7-.3-1.4-.2-2.1-.1-.1.6-.2 1-.4zm-106.9 41.9c.8-.4 1.4-.8 2-1 .1 0 .6.6.6.8-.1.9-.7 1.5-1.5 1.2-.3-.1-.5-.4-1.1-1zM338.5 30v.6c-.2 0-.6.1-.6 0-.4-.6-2-.3-1.3-1.6.1-.2.9-.4 1.1-.2.3.4.6.9.8 1.2zM161 73.1c-.1.5-.1.7-.2.8-.4.4-.8.9-1.2 1.2 0 0-.6-.3-.6-.5-.1-.9.2-1.6 1.2-1.9.2 0 .6.3.8.4zm55.9-60.4c.1-.2.1-.4.2-.6.4-.5.9-1 1.3-1.5.1.1.1.2.2.2.3.8-.3 1.8-1.2 2.2-.1 0-.3.1-.3 0 0 0-.1-.2-.2-.3zM183.3 100c.1.1.4.2.4.4.2 1.2-.2 1.8-1.3 2.1-.3 0-.6-.2-.9-.3.1-.2.2-.5.4-.7.3-.4.6-.7.9-1.1.2-.1.4-.2.5-.4zm46.6-9.1c.6-.8 1.2-1.6 1.9-2.3l.2.1c-.1.7-.1 1.4-.3 2-.1.3-.8.4-1.3.6-.1 0-.3-.3-.5-.4zm18.6 39.2c.6-.5 1.1-.8 1.6-1.2.2.3.4.7.4 1 0 .5-.2 1.1-.9.9-.4.1-.7-.3-1.1-.7zm-8.6-18.3c-.2.4-.3.7-.4.7-.3 0-.6 0-.9-.1-.5-.3-1-.6-1.6-.9.2-.1.4-.3.5-.3l2.4.6zm-137.4 46.1c-.3.5-.4 1.1-.7 1.3-.1.1-.8-.1-1-.4-.2-.2-.2-.8 0-1.1.2-.4.7-.6 1.1-1 .1.5.3.8.6 1.2zM53.1 60.1l.2.2c-.1.7-.3 1.4-.4 2 0 .1-.4.2-.5.1-.1 0-.4-.3-.3-.4.3-.6.6-1.3 1-1.9-.2 0-.1 0 0 0zm209.7 110.4c.3.1.6.6.6.9 0 .5-.3 1-.4 1.4-.2-.1-.4-.1-.5-.3-.5-.6-1-1.1-.4-1.9.1 0 .4-.2.7-.1zm-12.2-85.3c.6.2 1 .3 1.3.5.2.1.3.5.3.8 0 .1-.3.3-.5.3-.4 0-.8-.1-1.2-.3-.3-.2-.6-.5-.8-.8.3-.2.6-.4.9-.5zm90.5 74.6c.1-.4.1-.8.3-.9.3-.3.8-.5 1.2-.7.1.5.2.9.2 1.4 0 .2-.4.5-.6.7-.1.1-.5.3-.5.2-.4-.2-.5-.5-.6-.7zM136.9 87.6c.1.3.2.6.2.9 0 .2-.4.5-.4.5-.4-.2-.9-.4-1.2-.8-.1-.1.2-.5.4-.8.3-.4.6-.7.9-1.1.1.4.3.8.4 1.2-.1.1-.2.1-.3.1zm-124.5 94c.4.4.9.6.8.7-.2.6-.5 1.1-.7 1.6-.3-.2-.9-.5-.8-.7 0-.5.4-1 .7-1.6zm152.9-61.2c0 .6.1 1.2 0 1.8 0 .3-.3.5-.5.8-.1-.2-.1-.5-.2-.7-.1-.5-.2-1-.2-1.5 0-.1.2-.3.3-.4.1-.1.2-.1.6 0zm-108.7-8.7c0 .2 0 .5-.1.8 0 .1-.3.4-.4.3-.3-.1-.7-.2-.7-.4 0-.6.1-1.2.3-1.8.1-.2.4-.3.6-.5.1.2.2.3.3.5-.1.4-.1.7 0 1.1zm-48.9 11c.1-.2.2-.6.3-.6.7.1 1.4.3 2.1.4-.1.4-.2.9-.5 1.3-.1.2-.7.3-.7.3-.5-.5-.8-1-1.2-1.4zm87.5-13.3c.5.8.8 1.4 1.1 2-.3.1-.7.4-1 .4-.6-.1-1.3-.4-1-1.2.2-.4.5-.7.9-1.2zm135.1-50.5c.4.5.8.7.9 1 .1.5-.9 1.1-1.6 1-.2 0-.5-.5-.5-.6.3-.5.7-.9 1.2-1.4zM46.4 128.1c.4-.7.7-1.4 1.1-1.9.1-.2.8 0 1.1.2.2.1.1.7-.1 1-.3.4-.7.7-1.2 1-.1 0-.5-.2-.9-.3zm250 46.4c0 1-.8 1.8-1.6 1.6-.2 0-.4-.3-.4-.4.4-.6.7-1.2 1.2-1.7 0 .1.6.4.8.5zm46.6-129c.9.2 1.6.3 2.3.5.2 0 .3.3.4.4-.2.1-.4.2-.5.2-.7-.1-1.4-.3-2.1-.4-.3-.1-.6-.1-.8-.1.2-.2.4-.4.7-.6zm8.8 50.5c-.2-.3-.7-.5-.7-.8-.1-.5.1-1 .2-1.4.2 0 .5 0 .5.1.2.6.4 1.1.6 1.7 0 .1-.3.2-.6.4zm-27.1 40.6c.7-.4 1-.7 1.3-.7s.6.5.8.7c-.3.2-.6.6-.9.7-.2.1-.6-.3-1.2-.7zm2.7 30.7c-.6.6-1.1 1-1.5 1.5-.1-.3-.4-.5-.4-.8 0-.7.2-1.2 1-1.3.2 0 .4.3.9.6zm.9-145.9c.3.7.7 1.3.6 1.4-.4.4-1 .7-1.5 1-.1-.2-.5-.6-.4-.7.2-.5.6-.8 1.3-1.7zm-.3-8.3c.6.4 1.1.6 1.5 1 .1.1 0 .6 0 .9l-.6-.3c-.3-.2-.6-.5-1-.6-.2-.1-.5-.1-.8-.1l.9-.9zM108.1 31.7c-.6-.3-1-.4-1.3-.6.3-.2.5-.3.8-.5.1-.1.2-.1.2-.2.4-.2.9-.3 1.3-.5.1.3.3.7.2.8-.3.4-.8.7-1.2 1zM273 92.9c0 .7.1 1.4 0 2 0 .2-.5.3-.7.4-.1 0-.4-.3-.3-.4.1-.6.2-1.2.4-1.8-.1-.1.2-.1.6-.2zm-55.5-71.5c-.2.5-.4 1-.7 1.5-.1.1-.5.1-.5 0-.2-.4-.4-.8-.4-1.1.1-.3.4-.6.8-.8.1-.1.5.2.8.4zm-54.8 8.9c.2.2.6.3.6.5 0 .8-.7 1.8-1.4 1.8-.1 0-.4-.2-.4-.3 0-.8.1-1.6 1.2-2zm69 149.1v2c-.4 0-.8.1-1.2 0-.6-.3-.6-.8-.2-1.2.3-.3.7-.4 1.4-.8zm-74.9-53.5c0-.3 0-.6.1-.7.3-.2.6-.4 1-.6.1.3.3.5.4.8 0 .2-.1.4-.2.6-.3.3-.6.4-.9.7-.1-.3-.3-.6-.4-.8zM3.7 64s-.1.3-.3.6c-.3-.5-.7-.9-.9-1.4-.1-.1.4-.6.7-.7.1 0 .5.3.6.5.1.1 0 .4-.1 1zm14.6-43.8c.3.2.7.4.6.4-.1.6-.3 1.2-.5 1.8 0 .1-.4.1-.6.1-.1 0-.2-.2-.2-.2.2-.7.4-1.4.7-2.1zm132.3 139.9c.3.7.6 1 .5 1.3s-.5.5-.8.7c-.2-.3-.6-.6-.6-.9.1-.3.5-.6.9-1.1zm2.7-103.9c.3.6.6.8.5 1.1-.1.6-.2 1.3-1.1 1.3-.2 0-.5-.5-.5-.6.3-.6.7-1.1 1.1-1.8zm134.1 103.6c.5-.5.7-.9 1-.9s.6.3.9.5c-.2.3-.4.8-.6.9-.2 0-.6-.3-1.3-.5zm-.4-53c.1-.1.4-.5.7-.6.2 0 .6.3.7.5.1.4.2.8.1 1.2-.1.2-.4.5-.7.5-.2 0-.5-.3-.6-.5-.2-.1-.2-.5-.2-1.1zm-200.7 7.6c.4-.5.6-.9.8-.9.7-.1 1.5-.5 1.9.5.1.2-.3.7-.4.7-.7 0-1.3-.1-2.3-.3zm197.9-28.9l.8 1.2c-.4.3-.8.6-1.3.8-.2.1-.5-.3-.8-.4.4-.5.7-1 1.3-1.6zM356 189c.4.5.8.8.9 1.2.1.2-.4.5-.7.8-.3-.4-.6-.7-.9-1.2 0-.1.4-.4.7-.8zM208.5 36.4c.4-.4.6-.8 1-1 .1-.1.8.5.8.6-.2.5-.6.9-.9 1.4-.3-.3-.5-.5-.9-1zM83.9 178.1c.5.2.7.3.8.4.3.6-.3 1.6-.9 1.7-.2 0-.5-.2-.5-.2.1-.7.3-1.3.6-1.9zM210.4 6.5c.1-.8.1-1.3.1-1.7 0-.1.3-.3.5-.3s.4.2.5.4c0 .4-.1.8-.1 1.2-.1.5-.2.9-.3 1.4-.4-.4-.7-.8-.7-1zm-52.8 130.8c.1.3.2.6.2.8 0 .4-.1.9-.2 1.3-.4-.1-1-.3-1-.4 0-.4.2-.9.3-1.3.3-.2.5-.3.7-.4zM281.9 30c-.1.3-.1.6-.1.7-.1.2-.3.4-.4.4-.2-.2-.6-.3-.6-.6-.1-.4 0-.8.1-1.2.1-.2.5-.3.7-.4.1.2.2.3.3.5v.6zm-25.2 135.1c.3.4.5.7.7.9-.5.3-1 .7-1.5 1-.2-.2-.5-.6-.5-.7.3-.4.7-.7 1.3-1.2zm46.8-5.2c.3.4.4.6.6.8-.3.2-.7.5-1 .6-.1 0-.5-.5-.5-.6.2-.2.5-.5.9-.8zm-114.5-19c.1-.4.2-.8.3-1.1.1-.2.3-.2.5-.4.1.2.3.3.3.5 0 .4 0 .8-.2 1.2-.1.2-.4.3-.6.4 0-.2-.1-.4-.3-.6zm33.7 44.9h-.2v.2h.3c0-.1 0-.2-.1-.2zm-9.3-7.2c.2 0 .8-.5.7-.6-.1-.3-.5-.6-.9-1-.3.4-.7.8-.6 1 .1.1.5.5.8.6zm4.4 11.3c-.3-.3-.7-.6-1.1-1-.3.3-.5.4-.7.6.3.2.5.6.9.7.3 0 .6-.2.9-.3zm6.9-.6c.1-.1-.1-.3-.2-.5-.3.3-.6.4-.6.5s.2.4.3.4c.2-.1.4-.2.5-.4zm-4.4-12.7c.1-.4.2-.8.3-1.1.1-.2.3-.2.5-.4.1.2.3.3.3.5 0 .4 0 .8-.2 1.2-.1.2-.4.3-.6.4 0-.2-.1-.4-.3-.6zM7.3 25.5c-.2-.7-.5-1.2-.4-1.6 0-.2.5-.4.8-.6.1.5.3.9.3 1.4 0 .2-.3.4-.7.8zm165.7 80h1.1c.2 0 .4.1.6.2-.2 0-.3.1-.5.1-.5.1-1 .1-1.5.2h-.8c.3-.1.5-.3.8-.4.2-.2.5-.2.3-.1zM95.3 5.8c-.9-.2-1.5-.2-1.9 1 .9-.4 1.4-.7 1.9-1zM47.5 28.2l-.9.6c.1.1.2.2.2.3l.9-.6-.2-.3zm7.4 9.1c.6-.4 1.1-.7 1.7-1.1-.1-.1-.1-.2-.2-.3l-1.8.9c0 .2.2.4.3.5zm-.6-22.8c-.6.3-1.1.5-1.6.7.5.2 1.1.5 1.6.5.4 0 .9-.3 1.3-.5-.4-.2-.8-.5-1.3-.7zm8.3 28.1c-.4 0-.8.3-1.7.7.8.4 1.2.8 1.6.7.4 0 .8-.4 1.2-.7-.3-.2-.7-.7-1.1-.7zM46.8 12.3c-.5.2-.9.5-1.3.8.2.2.5.6.7.6.5-.1 1-.4 1.7-.8-.6-.3-.9-.7-1.1-.6zm49.5-7.4c0-.2-.3-.4-.5-.4s-.5.1-1 .3c.7.4.9.7 1.1.6s.4-.4.4-.5zm-39 5s0 .1.1.2h.3c0-.1-.1-.2-.1-.3-.2 0-.3 0-.3.1z" class="st0"/><path d="M100.6 6.1c-.2.8-.3 1.4-.6 2-.1.3-.7.6-.9.5-.4-.2-1-.6-1-1-.1-.6.1-1.3.5-1.8.3-.4 1-.6 1.4-.9.2.5.4.9.6 1.2zM58.3 30.5c0 .6.1 1.2 0 1.8 0 .3-.3.5-.5.8-.1-.2-.1-.5-.2-.7-.1-.5-.2-1-.2-1.5 0-.1.2-.3.3-.4.1-.1.2-.1.6 0zM49.8 36c0-.3 0-.6.1-.7.3-.2.6-.4 1-.6.1.3.3.5.4.8 0 .2-.1.4-.2.6-.3.3-.6.4-.9.7-.1-.3-.3-.6-.4-.8zm.8 11.4c.1.3.2.6.2.8 0 .4-.1.9-.2 1.3-.4-.1-1-.3-1-.4 0-.4.2-.9.3-1.3.3-.2.5-.3.7-.4zM66 15.6h1.1c.2 0 .4.1.6.2-.2 0-.3.1-.5.1-.5.1-1 .1-1.5.2h-.8c.3-.1.5-.3.8-.4.2-.2.5-.2.3-.1zM205.7 109c.4.2.7.3.7.4 0 .5-.1 1-.1 1.5-.2-.1-.5-.2-.5-.3-.1-.5-.1-1-.1-1.6zm-1.1 21.1c0-.1 0-.4.1-.7.1-.1.4-.2.5-.1.2 0 .5.3.4.4-.1.4-.2.8-.3 1.1s-.4.5-.5.7c-.1-.3-.1-.6-.2-.9.1 0 .1-.2 0-.5zm-9.4-75.8c.2 1 .4 1.5.3 1.9-.1.3-.6.4-.9.6-.1-.4-.3-.7-.3-1.1.1-.3.4-.6.9-1.4zM62.7 118c.2-.1.5-.3.5-.3-.1-.3-.3-.6-.5-1.1-.2.3-.5.5-.5.5.1.4.3.6.5.9zm4-2.1c-.1-.1-.2-.3-.3-.4 0 0-.2.2-.3.2.1.1.2.3.4.3 0 .1.1 0 .2-.1zm5.3 8.5c.2.3.2.6.3.6s.5-.2.6-.2c-.2-.2-.3-.5-.5-.6-.1 0-.3.2-.4.2zm-3.5-9.6c.2 1 .4 1.5.3 1.9-.1.3-.6.4-.9.6-.1-.4-.3-.7-.3-1.1.1-.3.4-.6.9-1.4zm38 3.1c-.3 0-.6.1-.9.1l.1.4c.3-.1.6-.1.9-.2-.1-.1-.1-.2-.1-.3zm8.5 1c.2-.1.5-.3.5-.3-.1-.3-.3-.6-.5-1.1-.2.3-.5.5-.5.5.1.4.3.6.5.9zm4-2.1c-.1-.1-.2-.3-.3-.4 0 0-.2.2-.3.2.1.1.2.3.4.3 0 .1.1 0 .2-.1zm1.4-3.7c.1.2.1.4.2.4s.3-.1.4-.1c-.1-.1-.2-.3-.3-.4-.1 0-.2.1-.3.1zm.4 2.6c.2 1 .4 1.5.3 1.9-.1.3-.6.4-.9.6-.1-.4-.3-.7-.3-1.1.1-.3.4-.6.9-1.4zM63 137.5c.2 1 .4 1.5.3 1.9-.1.3-.6.4-.9.6-.1-.4-.3-.7-.3-1.1.1-.3.4-.6.9-1.4zm22 17.4c.4.5.7.8.8 1.1.1.2-.3.7-.4.7-.4-.1-.8-.2-1-.5-.1-.3.3-.7.6-1.3zm-15.6-10.1c1-.1 1.6-.3 2.1-.3.1 0 .2.5.3.7-.4.2-.9.4-1.3.4-.2.1-.5-.3-1.1-.8zm12.8-66.7c.1-.4.1-.7.3-.9.1-.2.4-.3.7-.4.1 0 .3.3.3.4 0 .4 0 .8-.1 1.2-.1.2-.5.4-.7.4-.2-.2-.3-.5-.5-.7zM56.2 191c.3.6.5.8.5 1.1 0 .6.1 1.3-.8 1.3-.1 0-.3-.5-.3-.8 0-.5.3-.9.6-1.6zm18.6-75.4c.2.1.6.2.7.4.3.4.4.9.6 1.4l-.2.2c-.4-.2-.8-.4-1-.7-.2-.3-.3-.7-.4-1.1 0 0 .2-.1.3-.2zM56.7 77.1c.5.5 1 .9.9 1.1-.1.4-.6.7-.9 1-.2-.3-.5-.6-.6-.9 0-.3.3-.7.6-1.2zM20.4 95.9c.7 0 1 0 1.3.1.1 0 .3.3.2.4 0 .2-.2.4-.4.4-.5 0-1 0-1.5-.1-.2 0-.3-.3-.4-.4.2-.1.3-.3.5-.4h.3zm.1 36.3c-.5.3-.9.6-1.1.6-.3-.1-.7-.5-.7-.8s.4-.6.6-.9c.3.2.7.5 1.2 1.1zM108.9 9.1c.3.2.5.3.5.4-.1.6-.2 1.2-.4 1.8 0 .2-.2.3-.3.5 0-.1-.1-.2-.1-.2.1-.9.2-1.6.3-2.5zm226 83.5c.3-.2.7-.5 1-.7.1.2.3.4.2.5-.3.3-.6.6-1 .9.1-.2 0-.4-.2-.7zm-209.8 41.2c.5-.4 1-.7 1.4-1 .1.3.4.5.4.8 0 .7-.6 1.3-1.2 1-.2-.1-.3-.4-.6-.8zm-48-114c0 .2.5.5.6.5.3-.1.5-.4.7-.7-.3-.2-.5-.5-.9-.8-.2.5-.4.8-.4 1zM74 32.2c.5-.4 1-.7 1.4-1 .1.3.4.5.4.8 0 .7-.6 1.3-1.2 1-.2-.1-.3-.4-.6-.8zM127.7 91c.5-.4.9-.7 1.3-.8.1 0 .4.3.6.5-.3.3-.6.7-1 .9-.1 0-.4-.3-.9-.6zm160.6 87.4c.4.5.7.8.7 1-.1.4-.4.8-.6 1.3-.2-.2-.6-.4-.6-.6.1-.5.3-.9.5-1.7zM115.9 39.7c-.2 0-.4-.1-.7-.1-.2 0-.4-.1-.6-.1l.6-.3c.4-.2.7-.3 1.1-.5.2-.1.5 0 .5.1.1.1.1.4 0 .6-.1.2-.3.3-.4.4-.1 0-.4-.1-.5-.1zm197.6 11.5c.3.3.5.4.7.6-.5.3-1 .6-1.5.8-.1 0-.3-.4-.5-.6.5-.2.9-.5 1.3-.8zm44.6 119.7c-.4.4-.7.8-1.1 1.2-.1.1-.4 0-.5-.1-.4-.5.2-1.6.9-1.6.2 0 .4.3.7.5zM21.9 75.6c-.1.6 0 1-.1 1.1-.3.2-.8.2-1.2.3-.1 0-.3-.5-.3-.5.4-.3.9-.5 1.6-.9zm-3.5 65.5c.2-.3.4-.8.8-1.1.2-.2.6-.1.9-.1-.1.2-.1.4-.2.5-.2.4-.4.7-.7 1.1-.1.1-.3.1-.5.1-.1-.1-.1-.3-.3-.5zm316.5-69.4c-.4-.2-.8-.3-.8-.3 0-.4.1-.7.2-1.1.2.1.5.1.5.2.2.3.1.7.1 1.2zm-12.2 116.2c0 .1-.1.4-.2.7-.3-.4-.6-.8-.7-1.2-.1-.2.1-.5.2-.8.2.3.5.5.7.8v.5zm-202.9-60.6c.4.4.8.7.7.8-.2.4-.5.8-.8 1.1-.1.1-.4-.1-.6-.1.3-.6.5-1.1.7-1.8zm-104.7-14c-.2-.4-.6-.7-1.4-1.6-.1.5-.4.9-.3 1.1.2.4.6.8 1 1.2l.7-.7zm9.4-5.2c0 .2.5.5.6.5.3-.1.5-.4.7-.7-.3-.2-.5-.5-.9-.8-.1.5-.4.8-.4 1zm-8.3 5.9c.4.4.8.7.7.8-.2.4-.5.8-.8 1.1-.1.1-.4-.1-.6-.1.3-.6.5-1.1.7-1.8zm103.7-7.6c.4.2.7.2.7.3 0 .4-.1.7-.2 1.1-.2-.1-.5-.1-.5-.2v-1.2zm6.7 49.3c-.3.3-.5.4-.7.6-.2-.3-.5-.6-.5-1 0-.2.3-.5.4-.8.2.5.5.8.8 1.2zM290 87.1c.1.2.3.3.3.4 0 .3.1.7-.1.9-.1.2-.4.4-.6.5-.1-.2-.3-.5-.2-.7.1-.3.3-.6.6-1.1zM88.3 101.8c.3.6.5.9.5 1.2 0 .2-.5.5-.6.5-.3-.1-.6-.4-.8-.7.2-.2.4-.5.9-1zm261.6 63.7c-.3.3-.7.5-1 .8-.1-.2-.3-.4-.2-.5.3-.4.6-.7.9-1 0 .2.1.4.3.7zm-249 23.2c.1.5.3 1 .4 1.4 0 .1-.2.3-.3.4-.2-.4-.5-.9-.6-1.3-.2-.1.1-.2.5-.5zm56.8-32.4c.3.3.6.6.6.7-.1.2-.4.5-.6.6-.2 0-.5-.4-.5-.6-.1-.2.2-.4.5-.7zm71.4-40c.1.1.4.3.4.4 0 .6-.1 1.2-.2 1.8 0 .1-.3.2-.4.1-.5-.3-.5-1.8-.1-2.2.1 0 .2 0 .3-.1zm.1 51.5c.3.4.6.7.8 1 .1.2-.3.4-.4.7-.3-.2-.7-.4-.9-.7-.2-.1.2-.5.5-1zm-24.1 27c.1.1.2.1.3.2 0-.1.1-.1.1-.2h-.4zm3.6-5.3s.1 0 .1.1v-.1s-.1 0-.1-.1v.1zM185.3 53.6c.5-.1 1-.5 1.3-1 .1-.2-.4-.7-1.1-2.1-.5 1.1-.9 1.6-1 2.2-.1.3.6 1 .8.9zm21.3 120.6c-.2.3-.7.7-.6.9.3.6.8 1.2 1.2 1.8.2-.3.3-.7.6-1.3-.4-.5-.8-.9-1.2-1.4zm-4 11.4c-.2 0-.5.3-.8.5.2.2.4.6.7.6s.6-.2 1.1-.5c-.5-.2-.7-.5-1-.6zm10.7 8l-.4.4c.1.3.4.6.6.8.1-.2.3-.3.5-.6-.3-.2-.5-.4-.7-.6zm-10.8-14.5c.4.2.7.2.8.3.5.8 0 1.4-.4 2-.1.1-.2.1-.3.1-.1-.5-.4-.9-.4-1.4 0-.3.2-.7.3-1zm-26.9-69.9c.3.4.6.7.8 1 .1.2-.3.4-.4.7-.3-.2-.7-.4-.9-.7-.2-.1.2-.5.5-1zm-12.5-66.3c-.2.2-.4.5-.7.7 0-.4-.2-.7-.1-1.1.1-.4.3-.7.5-1 .1.4.2.8.3 1.4zm45.6 13.3c.4.9.6 1.3.6 1.7 0 .2-.3.6-.5.6-.7 0-.9-.5-.8-1.1.2-.2.4-.5.7-1.2zm-.9 41.4c0 .6.1 1 0 1.3 0 .1-.5.2-.7.2-.1-.4-.2-.7-.2-1 0-.2.4-.3.9-.5zm-8.6 25.6c-.3.4-.5.6-.7.8-.3-.3-.6-.5-.8-.9-.1-.1.4-.6.4-.6.3.2.7.4 1.1.7zM132 192.1c.4.2.7.3.7.3-.1.6-.2 1.1-.4 1.7-.1-.1-.4-.2-.4-.4 0-.5.1-1 .1-1.6zm4.5-85.4c.3.2.7.5 1.1.8-.2.1-.5.4-.7.4-.4-.2-.7-.5-1.1-.8.2-.2.4-.3.7-.4zm114.3-18.4c.5-.2.9-.5 1.3-.7.1 0 .3.3.5.5-.4.3-.9.5-1.3.8 0 .1-.2-.2-.5-.6zM144.4 72.4c.5-.4.9-.7 1.3-.8.2-.1.5.1.7.2l-1.2.9c-.1 0-.4-.2-.8-.3zm2.3-12.7c.4.3.7.5 1.1.7-.2.2-.5.6-.7.5-.3-.1-.6-.4-1-.6.2-.1.4-.3.6-.6zm3.2 111.9c.2.5.5.8.5 1.1 0 .2-.4.4-.6.5-.2-.3-.5-.6-.6-.9 0-.1.4-.3.7-.7zM52.7 92.5c0 .5 0 .9-.1 1.2-.1.2-.4.3-.6.4v-1.2c0-.1.3-.2.7-.4zm23.9-35.2c.3.4.6.6.8.9-.3.2-.7.5-1 .5s-.6-.4-.9-.6c.4-.3.7-.5 1.1-.8zm8.2 109.6c.1.5.2.7.1.8-.1.4-.3.8-.5 1.1-.1.1-.3.2-.5.2-.1-.2-.2-.4-.2-.5.3-.5.7-.9 1.1-1.6zM82 44.6c-.2.3-.3.4-.4.6 0 0-.2 0-.3-.1-.2-.3-.5-.6-.7-1-.1-.2.1-.5.2-.7.2.1.4.1.5.3.3.3.5.7.7.9zm2.3 100.6c.7-.1 1.2-.2 1.7-.2.2 0 .6.4.6.5-.2.8-.8.4-1.3.3-.3 0-.5-.2-1-.6zm64.2-90.6c-.3 0-.2 0 0 0zm0 0c-.3-.1-.2 0 0 0zm-34.2-.8s-.1.1-.1.2c.1 0 .1.1.2.1 0 0 .1-.1.1-.2s-.1-.2-.2-.1zm16.9-3.5c0 .1.1.2.2.5.5-.3.9-.5 1.5-.8-.9-.5-1.4-.2-1.7.3zm-7.5 10.3h-.2v.5h.1l.1-.5zm14.9-3.3c-.2.1-.5.2-.7.2 0 .1.1.2.1.3.2-.1.5-.1.7-.2-.1-.1-.1-.2-.1-.3zm1.1-.2c.1 0 .2.1.4.1v-.1h-.4zm-16.2 6.5c0 .1.1.1.1.2 0-.1 0-.1.1-.2h-.2zm20.2-6.8c-.2.4-.5.6-.4.8.1.3.4.6.6.6s.4-.3.7-.5l-.9-.9zm8.5 6.8c.2 0 .8-.5.7-.6-.1-.3-.5-.6-.9-1-.3.4-.7.8-.6 1 .1.1.5.5.8.6zm-15.8.5c-.3.5-.4 1.1-.7 1.3-.1.1-.8-.1-1-.4-.2-.2-.2-.8 0-1.1.2-.4.7-.6 1.1-1 .1.5.3.8.6 1.2zm-17.5-3c.4.5.7.8.8 1.1.1.2-.3.7-.4.7-.4-.1-.8-.2-1-.5-.1-.3.3-.7.6-1.3zm-.7-9.7c.7-.1 1.2-.2 1.7-.2.2 0 .6.4.6.5-.2.8-.8.4-1.3.3-.3 0-.5-.2-1-.6zm-40.6-2.6c.2-.3.2-.5.3-.6.4.2.8.4 1.2.7 0 0-.2.3-.2.5-.5-.2-.9-.4-1.3-.6zm68.8 2.2c.4-.3.7-.5 1-.7.1.2.3.4.2.5-.1.3-.4.6-.6 1-.1-.2-.3-.4-.6-.8zm23.4-48.4c0 .1 0 .3-.1.4.7.2 1.3.4 2.1.6-.1-.5-.1-.9-.2-1.3-.6.2-1.2.3-1.8.3zm-4.9 2.9c1.1 1.8 1.1 1.8 2.6 1.3-.9-.4-1.6-.8-2.6-1.3zm-1.3 1c.4-.3.7-.5 1-.7.1.2.3.4.2.5-.1.3-.4.6-.6 1-.1-.2-.3-.4-.6-.8zm81.6-2.4c.4-.3.7-.5 1-.7.1.2.3.4.2.5-.1.3-.4.6-.6 1-.1-.2-.3-.4-.6-.8zM49.3 98c.2.3.4.7.5 1-.2.1-.6.3-.7.3-.2-.3-.4-.7-.5-1 .2-.1.4-.2.7-.3zm190.9 88.9c-.1-.1-.3-.3-.3-.4 0-.4.1-.8.3-1.2 0 0 .3.1.5.1l-.3 1.2c-.1.1-.1.2-.2.3zm-91.6-57c.3.1.7.2 1.1.4.1.1.2.3.3.5h-.6l-.9-.3c-.1-.1-.2-.3-.2-.4 0-.1.1-.1.3-.2zm-12.4-11.7c.3.1.4.1.4.1.1.2.2.5.1.5-.3.2-.7.4-1.1.6-.1-.1-.2-.4-.2-.4l.8-.8zM75.5 70.7c.3-.3.6-.6.8-.6.2 0 .4.4.6.6-.2.2-.4.5-.6.6-.2-.1-.5-.4-.8-.6zM31.3 51.1c.3.1.4.2.6.3-.2.3-.4.6-.6 1-.2-.2-.5-.4-.5-.6.1-.3.4-.5.5-.7zm111.3 20.6c.3.5.4.8.5 1s0 .5 0 .8c-.2-.1-.4-.2-.4-.3-.1-.4-.1-.8-.1-1.5zM36.2 48.6c-.1.1-.2.1-.7.4.5-.1.6-.2.8-.2-.1-.1-.1-.2-.1-.2zm-1.3-2.4h-.3v.8c.2 0 .3 0 .5-.1 0-.2 0-.4-.2-.7zm-8.8-2.7c-.1 0-.5.4-.5.5.1.2.4.5.6.6s.5-.2.9-.4c-.4-.4-.7-.6-1-.7zm21.6-17c.5-.4.9-.7 1.3-.8.2-.1.5.1.7.2l-1.2.9c-.1 0-.4-.2-.8-.3z" class="st0"/><path d="M34.6 45.1c.3.5.4.8.5 1 .1.2 0 .5 0 .8-.2-.1-.4-.2-.4-.3-.1-.4-.1-.8-.1-1.5zM97 19.5c-.1.1-.2.1-.7.4.5-.1.6-.2.8-.2-.1-.1-.1-.2-.1-.2zm-6.2-.4h-.3v.8c.2 0 .3 0 .5-.1 0-.2 0-.4-.2-.7zm-4-4.7c-.1 0-.5.4-.5.5.1.2.4.5.6.6s.5-.2.9-.4c-.3-.4-.6-.6-1-.7zm6.2-1.3c.5-.4.9-.7 1.3-.8.2-.1.5.1.7.2l-1.2.9s-.3-.2-.8-.3zm-1.7-.7c.3.5.4.8.5 1s0 .5 0 .8c-.2-.1-.4-.2-.4-.3-.1-.4-.1-.8-.1-1.5zm-73-.1H18v.8c.2 0 .3 0 .5-.1-.1-.2-.1-.4-.2-.7zM2.5 74.4c-.1 0-.5.4-.5.5.1.2.4.5.6.6.2.1.5-.2.9-.4-.4-.4-.7-.6-1-.7zM15.7 8.3c.5-.4.9-.7 1.3-.8.2-.1.5.1.7.2l-1.2.9c-.1 0-.4-.2-.8-.3zm-1.8-.7c.3.5.4.8.5 1 .1.2 0 .5 0 .8-.2-.1-.4-.2-.4-.3-.1-.4-.1-.8-.1-1.5zm185 105.4l.6.4c-.2.3-.5.6-.7 1-.2-.2-.6-.4-.5-.5.1-.3.3-.6.6-.9zm-24.6 4.5c.3.5.5.8.6 1.2 0 .1-.5.4-.6.4-.2-.1-.5-.4-.5-.6-.1-.3.2-.6.5-1zm89.1 69.6c0 .4.2.8.1 1.1-.1.2-.4.4-.6.6-.1-.5-.2-.9-.2-1.4.1-.1.4-.1.7-.3zm-179.3.2c0 .4.1.8 0 .9-.2.2-.6.3-.9.4 0-.3-.1-.6 0-.8.2-.2.5-.3.9-.5zm221.6-1.3c.2-.2.3-.5.5-.7l.4.2c-.1.3-.3.6-.5 1-.1-.2-.3-.3-.4-.5zM116.6 48.3c.1.5.2 1 .1 1-.3.2-.7.2-1 .3 0 0-.2-.4-.1-.5.2-.2.6-.4 1-.8zm202 81.7c.1.6.3.9.2 1.1-.1.2-.4.3-.6.5-.1-.2-.3-.4-.2-.6.1-.3.3-.5.6-1zM50 70.2c.1-.3.3-.5.4-.8.2.2.6.4.5.5-.1.3-.4.4-.6.7 0-.1-.1-.3-.3-.4zm241.1-4.9c-.4.3-.7.6-.9.6-.3-.1-.6-.4-.9-.6.2-.2.4-.5.6-.5.4 0 .7.3 1.2.5zM124 75.3c-.2.2-.3.4-.4.5-.2-.2-.4-.3-.7-.5.2-.2.3-.4.5-.6.3.2.5.4.6.6zm171.8 48.6c.4.2.5.2.7.3l-.6.9-.5-.2c.1-.3.3-.7.4-1zm39.2-42l1 1c-.2.1-.4.2-.5.2-.4-.2-.8-.5-1.1-.8.1-.2.3-.3.6-.4zm-228.3-21c.1.2.3.5.4.7-.2.1-.6.4-.6.3-.2-.1-.3-.5-.4-.7.1-.1.3-.2.6-.3zm-.4 23.7c0 .1-.1.2-.1.2-.2-.1-.4-.1-.5-.2-.1-.4 0-.8-.1-1.2.1.1.3.2.3.3.2.3.3.6.4.9zm5.4 48.8c.3.6.5.9.5 1.2 0 .1-.5.4-.7.4-.2-.1-.5-.4-.5-.7 0-.2.3-.4.7-.9zm-77 32.9c-.3-.6-.6-.9-.6-1 .2-.3.5-.5.8-.8.1.2.2.3.2.5 0 .4-.2.7-.4 1.3zm288.5-40.7c.5-.3.8-.6 1.1-.6.3 0 .5.5.7.7-.3.2-.7.5-1 .6-.1.1-.4-.3-.8-.7zm2.2 21.6c.5.4.8.6 1 .9.1.1-.2.5-.2.7-.3-.2-.7-.3-1-.6-.1-.1.1-.5.2-1zm2.4-74c.3.3.6.5.7.9.1.1-.2.4-.4.6-.3-.3-.6-.6-.8-.9 0-.1.2-.3.5-.6zM22.1 1.5c-.3.8.3 2.2-1 2.3-1.4.1-1.4-1.3-1.6-2.3h2.6zm6.4 86.6c-.3.3-.5.7-.8.7s-.9-.4-.9-.6c-.1-1-.1-2 0-3 0-.1.2-.4.4-.4s.5.1.5.2c.3 1 .5 2 .8 3.1zm228.3 42.5c.3 0 .7 0 1.1.2.3.2.5.5.8.8-.3.2-.6.6-1 .6-.7 0-1.5-.2-2.2-.5-.2-.1-.4-.4-.6-.6.2-.2.5-.4.7-.5h1.2zM25.9 77.9c-.5-.4-1-.7-1-.9-.1-.9.6-1 1.3-1 .3 0 .7.4 1 .6l-1.3 1.3zm-5.5 40c-.5-.7-.9-1.2-1.2-1.8 0 0 .4-.5.7-.4.7 0 1.6.1 1.5 1.1-.1.3-.5.5-1 1.1zm261.3 52.8c-.3.1-.7.5-1.1.5-.8 0-1.1-.6-.9-1.3.1-.3.4-.8.7-.8.6-.1 1.3.7 1.3 1.6zM123 135.1c-.4.4-.5.7-.8.8-.7.2-1.5-.5-1.3-1.3 0-.2.5-.6.6-.5.5.2 1 .6 1.5 1zM88 67.7c-.3-.2-.8-.3-1-.7-.2-.3-.2-.8 0-1.2.1-.3.6-.6.9-.8.1 0 .5.2.5.3.1.6.1 1.3.1 1.9 0 .2-.3.3-.5.5zM316.7 156c-.4-.5-.7-.8-.9-1.2.4-.2.8-.7 1.2-.6.4 0 .7.5 1.1.8-.5.3-.9.6-1.4 1zm-291.6-8.2c.4-.4.7-.6.9-.8.3.5.6 1 .8 1.5.1.1-.3.4-.5.7-.3-.4-.7-.9-1.2-1.4zm331.5-11.3c-.3-.4-.7-.8-.6-.9.3-.4.6-.7 1-.9.1 0 .6.5.6.5-.3.5-.6.8-1 1.3zm-193-105.6c.5-.2.8-.4 1-.4.6.1 1.2.4 1.1 1.2 0 .2-.4.4-.6.6-.4-.3-.7-.6-1.5-1.4zm-6.3 150c.4-.2.7-.5.8-.4.5.3 1 .6 1.5 1 .1.1 0 .5 0 .5-.5.1-1.1.3-1.5.1-.2-.2-.4-.7-.8-1.2zm-10.7-47c-.7.5-1.1.9-1.3.8-.4-.2-.7-.6-1-.9.2-.2.4-.6.6-.5.5 0 .9.3 1.7.6zM12.5 4.4c-.6-.5-.9-.8-1.3-1.1.3-.2.5-.7.8-.7.3 0 .8.3.9.6.1.3-.2.7-.4 1.2zM144.6 88c-.6.5-1 .8-1.4 1.1-.2-.5-.4-1.1-.6-1.6 0-.1.5-.4.6-.4.5.2.8.5 1.4.9zm153.1 53.7c.5-.4.8-.6 1.1-.8.3.4.6.8.7 1.3 0 .2-.5.5-.7.7-.4-.4-.7-.7-1.1-1.2zM130.4 8.6c-.1-.7-.3-1.4-.3-2l.5-.1c.2.5.4 1.1.6 1.6-.1 0-.4.2-.8.5zm-9.3 163.8c-.1-.1-.4-.2-.4-.3 0-.5.1-1 .2-1.5 0 0 .5-.1.5 0 .1.5.2 1 .2 1.4-.1.1-.3.2-.5.4zM236.3 13.9c-.4.4-.6.7-.9.9-.3-.3-.7-.6-.7-.9 0-.3.4-.6.7-.9l.9.9zm5.3 118.8c-.4-.2-.7-.3-.7-.3.1-.4.3-.9.4-1.3.3.1.5.2.8.3-.2.4-.3.8-.5 1.3zm20.6 15.2c-.2-.6-.4-.9-.4-1.2 0-.2.5-.5.6-.5.3.2.5.5.8.7-.2.3-.5.5-1 1zm78.2-127.1c-.5-.8-.9-1.2-.8-1.2.2-.3.6-.5.9-.6.1 0 .6.4.5.5-.1.3-.3.7-.6 1.3zM75.5 136.2c-.6 1.2-1 2-1.5 2.7.1.1.2.1.3.2.4-.4.9-.7 1.4-1.1 0-.4 0-.9-.2-1.8zm8-3.9l-.2.2c.2.1.3.2.5.4l.2-.2c-.2-.2-.4-.3-.5-.4zm1.4 2.3l.6.5.4-.4c-.2-.2-.4-.3-.6-.5-.1.2-.2.3-.4.4zm-7.7-11.3c0 .1 0 .1.1.2.1 0 .1 0 .2-.1 0-.1 0-.1-.1-.2-.1.1-.2.1-.2.1zm7.4-4.1c0 .2.2.4.4.5.1-.2.2-.3.3-.5-.1-.2-.2-.3-.3-.4-.1.1-.4.3-.4.4zm135.9-37.8c.1.3.6.7 1 .8.2 0 .8-.5.7-.7-.1-.4-.5-.7-1-1.3-.4.6-.8 1-.7 1.2zM10.1 47.5s-.1-.2-.2-.3c-.2.1-.3.2-.5.3.1.1.1.2.2.3.2-.1.4-.2.5-.3zm85.3 2.9l-.5-.5c-.4.5-.9 1.1-1.3 1.6 1.1.2 1.7-.2 1.8-1.1zM2.9 43.3c.2.3.5.5.8.6.1 0 .5-.4.5-.5-.1-.3-.3-.7-.6-1.2-.5.7-.8 1-.7 1.1zm87.8 6.1c-.2.1-.5.4-.5.6 0 .1.3.3.4.5.2-.2.4-.3.7-.6-.2-.3-.5-.6-.6-.5zm-74.6 1.3c.1.2.4.4.6.5.1 0 .3-.2.5-.4-.2-.2-.4-.4-.6-.7-.3.3-.5.5-.5.6zm-5.4-.9c.1 0 .3-.1.4-.1-.1-.1-.2-.3-.3-.4-.1.1-.2.1-.3.1 0 .1.1.3.2.4zm-2.2-6.6c.1.3.6.7 1 .8.2 0 .8-.5.7-.7-.1-.4-.5-.7-1-1.3-.4.6-.8 1-.7 1.2zm335.7 23.1s-.1-.2-.2-.3c-.2.1-.3.2-.5.3.1.1.1.2.2.3.2-.1.4-.2.5-.3zm-3.4-12.5c-.1 0-.2.1-.3.1.1.1.2.3.2.4.1 0 .1-.1.2-.1-.1-.1-.1-.2-.1-.4zm9.4 15.7c.1.2.4.4.6.5.1 0 .3-.2.5-.4-.2-.2-.4-.4-.6-.7-.3.3-.5.5-.5.6zM346 53.7c.1-.1.4-.3.4-.4 0-.2-.2-.4-.5-.7-.2.3-.4.5-.3.7 0 .1.3.2.4.4zm-1.2 14.9c.1 0 .3-.1.4-.1-.1-.1-.2-.3-.3-.4-.1.1-.2.1-.3.1 0 .1.2.3.2.4zm3.7-8c.1.3.6.7 1 .8.2 0 .8-.5.7-.7-.1-.4-.5-.7-1-1.3-.4.6-.8 1-.7 1.2zM89.1 133.4c-.2-.2-.5-.6-.8-.7-.1-.1-.4.2-.9.3.7.4.9.7 1.2.7.2.1.4-.2.5-.3zm-7.5-12.1c-.2-.1-.3-.4-.5-.3-.2 0-.3.3-.7.5.3.1.5.3.7.3s.3-.3.5-.5zm2.9 5c0-.1-.1-.1-.2-.2l-.2.2.2.2c.1 0 .2-.1.2-.2zm-8.9-5.4l.8 1.2c-.4.3-.8.6-1.3.8-.2.1-.5-.3-.8-.4.4-.5.7-1 1.3-1.6zm5.8 1.6c.1.2.3.3.3.4 0 .3.1.7-.1.9-.1.2-.4.4-.6.5-.1-.2-.3-.5-.2-.7.1-.3.3-.6.6-1.1zm-.2 9.8c.2-.4.3-.6.5-.9.2.2.5.3.6.5 0 .3-.2.6-.3.8-.3 0-.5-.2-.8-.4zm-2.1 1.9c-.1-.6-.2-1.1-.2-1.1.4-.2.9-.3 1.4-.3l.2.5c-.4.3-.8.5-1.4.9zm219.6-93.5c-.3-.3-.7-.6-.7-.7.2-.3.4-.7.7-.8.2-.1.5.1.8.2-.2.4-.5.8-.8 1.3zM46.1 73.5c0-.4-.1-.8-.1-1.2l.4-.1.3 1.2c.1 0-.3.1-.6.1zM30.5 188.2c.2-.3.4-.5.6-.7l.8.8c-.2.2-.4.5-.6.5-.3 0-.5-.3-.8-.6zM244.9 51.1c.2-.3.3-.5.4-.6.2.3.5.5.7.8.1.1-.2.4-.3.6l-.8-.8zM18.1 90.9l-1 1c-.2-.2-.5-.5-.5-.6.1-.3.3-.6.6-.8.1-.1.4.2.9.4zM350.6 131l-.3.9c0 .1-.4.1-.5 0-.1-.3-.2-.6-.1-.9.1-.2.4-.3.6-.5.1.1.2.3.3.5zM79.7 177c-.2.2-.3.4-.5.6-.2-.4-.4-.9-.6-1.3 0-.1.2-.3.3-.5.3.4.5.8.8 1.2zm18.5-75.4c-.2.3-.3.5-.5.8.2.1.3.2.5.2l.3-.9s-.2-.1-.3-.1zm1.2-1.9c-.2.3-.4.5-.7.8.1.1.3.2.4.3.2-.3.4-.5.7-.8-.1-.1-.2-.2-.4-.3zm-1.6-2.6c.1 0 .1-.1.2-.3-.1.2-.1.2-.2.3zm5.2-3c-.5.3-.9.5-1.4.8.1.1.2.3.3.4.5-.2.9-.5 1.4-.7-.1-.2-.2-.3-.3-.5zM7.8 69.2c-.1.5-.3 1-.4 1.4.2 0 .4.1.5.1.1-.5.3-1 .4-1.5h-.5zm5.9-2.3c.2 0 .3.1.5.1v-.8c-.1 0-.2 0-.3-.1 0 .3-.1.6-.2.8zm3.5-5.9c-.1 0-.2 0-.3.1 0 .3.1.6.1.9.1 0 .2 0 .3-.1-.1-.3-.1-.6-.1-.9zm89.1-31.8c-.2.1-.3.3-.5.4 0 .1.1.1.1.2.2-.1.3-.1.5-.2 0-.1 0-.2-.1-.4zm-1.5-5.4h-.1l.1.1zm2.5 5.5c-.3.4-.5.5-.6.8 0 .2.3.5.4.5.2 0 .5-.2.7-.4-.1-.3-.2-.5-.5-.9zM13.8 63.7c.2.1.3.2.5.2.1 0 .3-.1.5-.3-.2-.2-.4-.4-.5-.3-.2.1-.3.3-.5.4zm-6.1-.2c-.1.2-.2.4-.1.6.1.2.2.3.4.4.1 0 .2-.1.4-.2-.2-.3-.4-.4-.7-.8zM118 20.9c0 .1-.1.2-.1.2-.2-.1-.4-.1-.5-.2-.1-.4 0-.8-.1-1.2.1.1.3.2.3.3.2.3.3.6.4.9zm-8.5 12.6c.1 0 .1-.1.2-.3-.1.2-.1.2-.2.3zm5.2-3c-.5.3-.9.5-1.4.8.1.1.2.3.3.4.5-.2.9-.5 1.4-.7-.1-.2-.2-.3-.3-.5zm-6.9 61.4v.3c.1-.1.1-.2.2-.3-.1.1-.2.1-.2 0zm3.6-1.3c0 .1.1.1.1.2 0-.1 0-.1.1-.2h-.2zm-5.7 20.7c.5.2.7.3.8.4.3.6-.3 1.6-.9 1.7-.2 0-.5-.2-.5-.2.1-.7.3-1.3.6-1.9zm1.1-23.2c.4.5.7.8.8 1.1.1.2-.3.7-.4.7-.4-.1-.8-.2-1-.5-.1-.3.3-.7.6-1.3zm-.2 12c.1.5.2.7.1.8-.1.4-.3.8-.5 1.1-.1.1-.3.2-.5.2-.1-.2-.2-.4-.2-.5.3-.5.7-.9 1.1-1.6zm-5.1 10.1c-.2.2-.3.4-.5.6-.2-.4-.4-.9-.6-1.3 0-.1.2-.3.3-.5.3.4.5.8.8 1.2z" class="st0"/><path d="M75.3 138.4c-.2-.3-.5-.5-.7-.9 0-.1.3-.3.5-.5.2.3.5.6.7.9 0 0-.3.2-.5.5zm-43.7 40.2c-.3-.1-.5-.2-.6-.3.4-.3.7-.6 1.1-.8.1 0 .3.2.5.3-.3.2-.7.5-1 .8zm17.1-28.9c-.8-.8-1.2-1.2-1.4-1.7-.2-.2.3-.6.6-.9.3.3.9.5 1.1.9 0 .2-.1.7-.3 1.7zm-3.6 36.7c.3.4.6.6.6.8s-.3.4-.5.6c-.1-.1-.4-.3-.4-.4-.1-.3.1-.6.3-1zm2.8-13.9c-.2-.2-.3-.4-.4-.5.2-.2.4-.4.7-.5.1-.1.4.1.5.2l-.8.8zm13.3-14.1c0-.4 0-.7-.1-1.2-.6.8-.6.8.1 1.2zm5 6.3c0-.1 0-.1 0 0 0-.1 0-.1 0 0 0-.2.1-.3 0 0zm-.1-.1c0-.1 0-.1 0 0zm-.1 4.5c.3.1.2 0 0 0zm0 0c.2 0 .3 0 0 0zm-2.3 1.1c-.8.4-1.5.7-2.3 1.1 1 .2 1.6.3 2.4.4 0-.5 0-.9-.1-1.5zm-3.2 1.4c-.2.2-.3.4-.5.5.1.1.2.1.2.2l.5-.5-.2-.2zm-4.3-5.4c-.3-.1-.5-.2-.6-.3.4-.3.7-.6 1.1-.8.1 0 .3.2.5.3-.3.2-.7.5-1 .8zm7.6 16.2c-.2-.2-.3-.4-.4-.5.2-.2.4-.4.7-.5.1-.1.4.1.5.2l-.8.8zm-12.7-35.1c.3-.2.6-.3.8-.4.1.3.3.5.3.8 0 .2-.4.3-.6.4-.1-.1-.3-.4-.5-.8zm142.7-69.1c-.2-.1-.4-.2-.5-.3.2-.2.3-.5.6-.6.1-.1.4.2.6.4-.3.1-.5.3-.7.5zm-93.2-.2c-.3-.2-.6-.3-.6-.4 0-.3.1-.6.2-.9.2.1.6.2.6.4.1.4-.1.6-.2.9zm10.3 6.9c-.2-.2-.5-.3-.5-.4 0-.3.2-.5.3-.8.2.1.5.3.6.5-.1.2-.3.5-.4.7zm69.2 82.5c-.1.5-.3 1-.4 1.4.2 0 .4.1.5.1.1-.5.3-1 .4-1.5h-.5zm80.5 23.8c-.1 0-.2.1-.3.1 0 .2.1.3.1.5 0 0 .2 0 .4-.1 0-.1-.1-.3-.2-.5zm-49.5-31.3c-.7.8-1.2 1.4-2 2.3 2-.5 2-.5 2-2.3zm-12.2 5.1c-.1-.1-.7 0-1-.1.1.8.1 1.7.2 2.5v.2c.4 1 .8 2 1.1 3 .1-1 .3-1.9.5-3.3-.2-.5-.4-1.4-.8-2.3zM254.6 9.3c.3-.4 1-1 .9-1.3-.4-.9-1-1.6-1.8-2.7-.7.8-1.4 1.4-1.3 1.4.7.9 1.5 1.7 2.2 2.6zm10.1 180.2c-.1-.2-.3-.3-.6-.6-.1.2-.3.5-.3.5.2.2.4.3.6.4l.3-.3zM180 161.7c-.1.2-.2.4-.1.6.1.2.2.3.4.4.1 0 .2-.1.4-.2-.2-.3-.4-.4-.7-.8zm6.9 12.2c.3.6.5.9.5 1.2 0 .2-.5.5-.6.5-.3-.1-.6-.4-.8-.7.2-.2.4-.5.9-1zm18-17.2c0 .1-.1.2-.1.2-.2-.1-.4-.1-.5-.2-.1-.4 0-.8-.1-1.2.1.1.3.2.3.3.2.3.3.6.4.9zm4.6.3c-.2-.2-.5-.3-.5-.4 0-.3.2-.5.3-.8.2.1.5.3.6.5-.1.2-.3.5-.4.7zm-87 32.9c.3.2.4.4.5.5l-1.2.6c-.1-.2-.2-.4-.2-.5.2-.2.6-.4.9-.6zm1.6-113.5c.1-.8.1-1.1.2-1.5.1-.2.4-.3.6-.5 0 .4.1.7 0 1.1.1.2-.2.4-.8.9zm228.4-1.6c-.2-.6-.3-1-.4-1.4 0-.1.1-.3.2-.5.1.4.3.7.3 1.1.1.2 0 .4-.1.8zM312 88.9c-.1.2-.1.4-.2.6.5.1 1 .3 1.5.4l.1-.3c-.5-.3-.9-.5-1.4-.7zm17 10.7c-.2-.2-.4-.3-.6-.5-.1.1-.1.2-.2.3l.5.5.3-.3zm-1.4-2.3c-.1-.2-.2-.4-.4-.5-.1.1-.2.1-.2.2.1.2.2.4.4.5 0-.1.1-.1.2-.2zM318.3 82c.4-.6.8-1.2 1.3-1.9-.3-.2-.5-.4-.8-.6-.3.6-.7 1.2-1 1.8 0 .2.3.5.5.7zm-1.3 5.4c0 .2.2.4.2.6.2-.1.3-.2.6-.3-.2-.3-.3-.5-.4-.7-.2.1-.4.2-.4.4zm6.2-4.1c0-.2-.2-.4-.3-.7-.2.2-.4.4-.4.5.1.2.2.4.4.6.1-.2.3-.3.3-.4zm-8.7 15.5c.1-.1.2-.2.2-.3 0-.1-.1-.1-.2-.2-.1.1-.1.2-.2.3 0 .1.1.1.2.2zm7.8-15.4zm7 10.3c-.2-.6-.3-1-.4-1.4 0-.1.1-.3.2-.5.1.4.3.7.3 1.1.1.2 0 .4-.1.8zm27.1 22.8c-.4.1-.7.3-1 .3 0 0-.3-.4-.2-.5.3-.2.6-.4.9-.5 0 .2.1.3.3.7zm-315.1 32c-.2 0-.3.2-.6.2.2.3.3.5.5.8.2 0 .3-.2.3-.2-.1-.2-.2-.5-.2-.8zm-9.2-8.3c.2-.3.6-.5.5-.8 0-.4-.3-.7-.6-1.2-.4.5-.8.8-.8 1 .2.3.6.6.9 1zm-.6 12.8c-.1 0-.3.2-.5.5.4.3.7.5 1 .7.1-.2.4-.5.4-.5-.3-.3-.6-.6-.9-.7zm4.6 6.2c.6.3 1.1.5 1.1.6 0 .8-.2 1.5-.2 2.3-.3-.2-.8-.3-.8-.5-.1-.8-.1-1.5-.1-2.4zm3.2-17.4c0 .9.2 1.5 0 2 0 .2-.8.3-1.1.3-.2-.6-.3-1.1-.3-1.5 0-.3.6-.5 1.4-.8zm-10 11.6l.6.4c-.2.3-.5.6-.7 1-.2-.2-.6-.4-.5-.5.1-.3.3-.6.6-.9zM55 55.3c.6.1.9.2 1.6.3-.2-.6-.3-.9-.4-1.5L55 55.3zM42.3 68.6c-.7 0-1.3.2-2 .2l.2.9c.7-.2 1.3-.2 2-.4-.2-.2-.2-.4-.2-.7zM29.1 62v.4h1.6v-.7c-.4.3-1.1.3-1.6.3zM94.4 7.6v-.2l-.2.1zM29.1 78c0-.4 0-.9.2-1.6h-.9V78h.7zm20.1.4c.2-.1.3-.2.5-.3l-.2-.2c-.1.1-.3.2-.3.5 0-.1 0-.1 0 0zm-20.3 0h-.4c.1 0 .1.1.1.1.1 0 .2-.1.3-.1zm-9.2-17.6c-.5-.3-1.1-.5-1.7-.8-.2-.1-.4 0-.6 0 .1.3 0 .7.2.8.8.4 1.6.7 2.4 1 .2.1.4-.1.9-.2-.6-.5-.9-.7-1.2-.8zm36.6 20c.1-.4-.2-1-.4-1.7-1.2 1.1-1.6 1.4-1.9 1.8.4.2.8.7 1.2.6.4 0 1-.4 1.1-.7zm-15.9-8.7c.5.3.9.6 1.1.5.3 0 .5-.4.8-.6-.3-.2-.5-.5-.8-.5s-.6.3-1.1.6zm-3.3.6c.3-.1.5-.4.8-.6-.2-.2-.4-.4-.8-.7-.3.4-.5.6-.6.9 0 .1.5.5.6.4zm17.5 3.9c0-.3-.2-.6-.4-1.1-.4.3-.8.5-.9.8 0 .2.3.6.6.7.2.1.7-.3.7-.4zM265 136.4c.4.7 1.3 1.3 1.8 2 .2-.4.9-.9.9-1.1-.4-.7-1.1-1.6-1.8-2.7-.4.9-.9 1.6-.9 1.8zM41.2 63.5c.2-.1.5-.3.5-.3-.1-.3-.3-.6-.5-1.1-.2.3-.5.5-.5.5.1.4.3.6.5.9zm11.7.9c.2.2.4.5.6.7.1 0 .3-.2.6-.4-.3-.3-.5-.5-.7-.6-.1-.1-.3.1-.5.3zm-.3 3.5c.2 0 .7-.4 1.6-.9-.9-.4-1.3-.9-1.8-.9-.2 0-.7.7-.9.9.2.2.7.6 1.1.9zm-27.4 2l-.6-.6s-.2.2-.5.4c.3.2.5.4.8.5.1 0 .3-.3.3-.3zm20-8.5c-.1-.1-.2-.3-.3-.4 0 0-.2.2-.3.2.1.1.2.3.4.3 0 .1.1 0 .2-.1zm1.4-3.7c.1.2.1.4.2.4s.3-.1.4-.1c-.1-.1-.2-.3-.3-.4-.1 0-.2.1-.3.1zm-5.8 22.5c0 .1 0 .8-.2.9-.5.3-1.1.3-1.7.4-.1 0-.4-.8-.3-1 .3-.5.7-1 1.1-1.5.2-.2.5-.4.7-.5.1.3.1.6.2.9.2.1.2.3.2.8zm-.2-24.3c.2 1 .4 1.5.3 1.9-.1.3-.6.4-.9.6-.1-.4-.3-.7-.3-1.1.1-.3.4-.6.9-1.4zm71.1-53.1c0 .1.1.2.1.3.3.3.6.5 1 .7.1.1.3.1.4.2 0-.2.1-.4 0-.5-.4-.3-.9-.6-1.3-.8-.1 0-.1 0-.2.1zm1.9 6.4c.2-.1.5-.3.5-.3-.1-.3-.3-.6-.5-1.1-.2.3-.5.5-.5.5.1.4.3.6.5.9zm4-2.1c-.1-.1-.2-.3-.3-.4 0 0-.2.2-.3.2.1.1.2.3.4.3 0 .1.1 0 .2-.1zm1.4-3.7c.1.2.1.4.2.4s.3-.1.4-.1c-.1-.1-.2-.3-.3-.4-.1 0-.2.1-.3.1zm.4 2.6c.2 1 .4 1.5.3 1.9-.1.3-.6.4-.9.6-.1-.4-.3-.7-.3-1.1.1-.3.4-.6.9-1.4zm-15.3 177.6c0 .1.1.2.1.3.3.3.6.5 1 .7.1.1.3.1.4.2 0-.2.1-.4 0-.5-.4-.3-.9-.6-1.3-.8-.1 0-.1 0-.2.1zm-9.4-4.4c-.4.5-.8.8-1 1.2-.1.2.3.5.4.8.3-.4.7-.8 1-1.1.1-.2-.2-.5-.4-.9zm20.6-5.3c.1.3.2.6.2.8 0 .4-.1.9-.2 1.3-.4-.1-1-.3-1-.4 0-.4.2-.9.3-1.3.3-.2.5-.3.7-.4zM97.5 189c-.3 0-.6.1-.9.1l.1.4c.3-.1.6-.1.9-.2-.1-.1-.1-.2-.1-.3zm-5.9-3v.2h.7v-.3c-.2.1-.5.1-.7.1zm14.4 4c.2-.1.5-.3.5-.3-.1-.3-.3-.6-.5-1.1-.2.3-.5.5-.5.5.1.4.3.6.5.9zm87.4-.6c.1 0 .3-.2.7-.4-.4-.2-.6-.4-.8-.4-.1 0-.3.3-.4.4.1.1.3.3.5.4zm-83.4-1.5c-.1-.1-.2-.3-.3-.4 0 0-.2.2-.3.2.1.1.2.3.4.3 0 .1.1 0 .2-.1zm1.4-3.7c.1.2.1.4.2.4s.3-.1.4-.1c-.1-.1-.2-.3-.3-.4-.1 0-.2.1-.3.1zm.4 2.6c.2 1 .4 1.5.3 1.9-.1.3-.6.4-.9.6-.1-.4-.3-.7-.3-1.1.1-.3.4-.6.9-1.4z" class="st0"/></svg>