<svg width="311" height="122" viewBox="0 0 311 122" fill="none" xmlns="http://www.w3.org/2000/svg">
<g clip-path="url(#clip0)">
<path d="M76.7 100.1C106.1 101.1 121.7 88.6 126.7 79.6C157.8 80.4 152.7 57.3 131.3 59.8C143.3 54.7 134.1 43.7 119.8 49.9C119.1 46.8 118.4 44.8 116.3 43.1C118.8 39.5 118.8 35.7 117.9 34.4C130 25 122.3 13.6 105.8 27.1C109.4 20.3 103.7 15.5 97.8 19.6C97.5 15.2 92.2 12.9 88.6 11.2C90.3 7.5 90.1 4.3 88.9 2.3C87.4 -0.0999999 84.4 -0.8 81.6 0.9C77.6 3.5 75.8 8.3 76.6 12.9C76 13.3 75.6 13.7 75.1 14.1C72.2 16.6 69.8 19.6 67.3 22.5C65.9 21.9 65 22 64.1 22.7C63.9 20.9 62.6 19.1 61.2 19.4C60.5 19.5 59.3 20.2 59.2 22C57.8 20 55.9 18.4 52.8 18.3C45.3 18.3 39.7 23 36.1 29C29.7 27.2 22.5 30 18.8 35.3C2.00001 24.6 -10.8 43.2 13.1 49.9C10.7 50.8 2.00001 54.9 4.80001 66.5C6.10001 71.4 8.70001 75.9 12.4 79.4C19.6 86 28.8 90.3 38 93C46.2 95.2 66.6 99.8 76.7 100.1Z" fill="#483A35"/>
<path d="M87.4 3.6C88.8 5.7 88.5 8.7 88.1 11.1C87.5 10.8 86.9 10.5 86.2 10.1C87.6 12.5 90.8 12.9 92.9 14.6C94.7 15.9 96.2 17.7 96 20C95.8 21.7 94.3 23.1 92.8 23.5C89.6 24.6 85.9 24.1 83.7 22.4C82.9 21.8 82.2 21.2 81.5 20.6C81.3 21 81.6 21.4 81.8 21.6C78.9 23.5 76.5 26.2 74.1 28.9C73.7 29 73.2 29.2 73 29.3C74 26.8 73.1 25.2 71.5 25.1C70.1 25 68.3 26.9 65.4 29C64.9 28.5 64.6 27.4 64.6 27.4C64.8 26.8 65.3 26.3 65.7 25.9C69.2 21.8 72.6 17.6 76.6 14.1C76.9 14.8 77.1 15 77.4 15.4C76.3 11.2 77.2 6.6 80.5 3.4C84.3 0.2 86.5 2.5 87.4 3.6Z" fill="white"/>
<path d="M59.1 23.2C59.1 23.4 59.3 23.8 59.5 23.9C60.7 18.2 62.5 20.1 63 26.1C63.2 27.9 63.8 29.7 65.7 30C66.2 30 66.7 30 67.2 29.8C66.9 29.6 66.5 29.6 66.1 29.4C69.2 27.5 70.5 25.8 71.5 25.9C72.7 26.1 72.9 27.9 72.6 30.4C80.2 27.1 83.6 31.9 78.3 34C78 33.3 77.4 32.8 77.2 32.8C77.6 34.2 77.7 35.7 77.5 37C66.2 34.5 54.7 41.4 48.4 46C47.9 37.8 38.9 37.3 34.5 39.9C34.7 33.4 37.6 28.2 41.5 24.7C45.3 21.6 52.9 17.3 59.1 23.2Z" fill="#F5EBD2"/>
<path d="M66.7 23C65.9 24.5 65.3 25.6 64.5 26.8C64.2 25.4 64.1 24.7 63.9 23.3C64.6 22.7 65.9 22.5 66.7 23Z" fill="white"/>
<path d="M35.8 29.7C34.1 33.4 33.1 36.6 33.8 40.4C28.4 43.6 24.3 49.6 24.6 56.1C25.1 60.8 27.5 64.3 33.3 65.4C33.1 66 32.8 67.3 32.6 68.3C27.4 65.1 21.4 63.3 15.8 61.3C13.6 60.5 11.4 59.1 10.8 56.8C10.4 55 11.6 53.2 13 52C14.5 50.8 16.3 49.9 18.4 49.6C17.7 49.5 17.4 49.4 16.8 49.4C3.30001 47 0.800008 39.8 2.10001 37C3.90001 33.1 15.2 32.6 23.3 39.2C22.2 37.6 21.4 36.7 19.7 35.6C23.2 31.5 29.3 29.3 35.8 29.7Z" fill="#ADAF7B"/>
<path d="M104.2 29.2C121.4 16.4 127.2 24.1 117.3 34.1C115.1 32.5 112.2 36.4 111 39.2C110.3 39 109.3 38.9 108.9 39.1C106.6 35.2 101.9 34 97.6 34.8C92.6 35.9 88.3 38.2 85 42.1C83.8 39.7 81.8 38.6 78.8 37.5C78.9 36.3 78.9 35.8 78.5 34.8C83.2 34 83.6 26.8 75.2 28.6C77.8 26.1 80.3 24.2 82.7 22.5C85.8 25 89.8 26.2 93.9 24.8C95.6 24.1 97.2 22.8 97.6 20.8C101.3 18.4 107.4 17.9 104.2 29.2Z" fill="#ADAF7B"/>
<path d="M48 46.3C41.8 51 35.2 58.5 33.6 64.7C29.4 62.9 26.9 61.3 26.4 57.6C25.8 51.4 28.7 45.8 33.7 42.2C36.3 40.4 44 37.9 48 46.3Z" fill="#DF3232"/>
<path d="M84.6 42.5C82.6 45.5 81 48.8 80.8 52.4C80.3 58 82.5 63.6 86.9 67C85.8 70.4 83.1 73.5 80.3 75.7C82.6 70.7 82 63.7 78.1 59.5C73.2 54.4 65.3 54.9 58.4 56.4C51.6 58 45.4 60.6 40 64.5C39 65.2 33.4 69.4 33.7 72.5C30.9 52.2 72.5 28.2 84.6 42.5Z" fill="#FBC649"/>
<path d="M108.9 39.6C109.4 39.7 110.3 40 110.7 40.4C109.9 43.3 108.8 46.1 108.3 48.9C106.1 49.8 103.1 54 108.9 59.4C110.6 60.9 112.5 62 114.5 62.6C111.3 67.1 105.9 69.6 100 70C96.1 70.1 93 69.2 89.9 67.4C85.8 64.8 83.6 60.3 82.8 55.7C81.8 49 86.3 42.1 92.1 38.9C95.7 36.7 101.5 35.2 105.5 37.2C106.8 37.8 107.8 38.5 108.9 39.6Z" fill="#DF3232"/>
<path d="M116.6 40.3C115.3 43.4 113.1 46.2 110.4 48.1C109.8 48.2 109.2 48.4 108.6 48.7C110.4 44.5 111.4 39.8 114.7 36.2C117.1 33.4 117.8 37.7 116.6 40.3Z" fill="#009759"/>
<path d="M76.8 98.1C102.7 99.6 120 87.8 125.5 79.5C123.2 79.3 120.9 78.9 118.7 78.5C114.4 83.4 99.9 94.5 75.8 93.3C73.3 93.2 70.1 92.9 64.6 92.4C25.6 90.2 11.5 71.9 10.8 67.1C13.6 75.2 32.9 90.6 64.5 91.7C64.5 91.7 73.4 92.5 75 92.6C81.7 93.2 103.6 92.5 118.3 78.4C116.4 78 114.7 77.5 113 76.5C114.9 81.1 105.5 87.5 97.3 76C92.7 78 86.4 78.8 81.9 77C74.4 82.7 68.7 84.2 63.3 85.2C54.2 86.3 45.3 85.9 37.9 81C33.7 78.5 32.1 73.5 32.6 68.6C27.7 65.8 22.4 64.7 17.2 62.9C13.9 61.8 9.70001 60.1 9.10001 56.2C8.70001 53.3 12 51.2 14.2 49.9C13.9 49.9 13.6 49.8 13.6 49.8C10.9 51.1 -0.699992 60 12.4 75.7C17.3 81.2 23 85.1 30.2 88.2C39 91.7 48.1 94.1 57.4 95.6C57.3 95.7 63.9 97.4 76.8 98.1Z" fill="#F5EBD2"/>
<path d="M56.3 46.7C59.7 44.6 62.6 43.5 68.1 43.2C63.3 44.2 61.3 44.4 56.3 46.7Z" fill="#483A35"/>
<path d="M68.8 44.4C64.1 45 59.4 46.2 55.3 47.9C59.9 45.3 63.6 44.4 68.8 44.4Z" fill="#483A35"/>
<path d="M66.7 49.3C58.8 49.6 51.4 52.1 45.9 56.9C54.9 51.9 62.9 50.2 68.5 50.7C58.8 51.2 50.7 54.7 43.1 58.9C43.6 58.4 44.2 57.9 45.3 57.2C49.7 51.7 59.5 48.7 66.7 49.3Z" fill="#483A35"/>
<path d="M118.6 52.8C116.4 49.1 114.1 47.7 111.6 47.9C113.2 46.7 114.5 45.4 115.9 43.6C117.6 46.3 118.7 49.5 118.6 52.8Z" fill="#DF3232"/>
<path d="M118.4 54.6C119.5 56 121.2 58.2 125.3 56.8C123.6 59.5 120.5 61.3 117.1 61.4C112.8 61.3 108.5 58.5 106.7 54.5C106.1 53.1 106.2 51.4 107.2 50.2C108.3 49 110 48.5 111.7 48.5C115.2 48.9 116.7 52.3 118.4 54.6Z" fill="#009759"/>
<path d="M74.4 57.8C78.9 60 80.8 64.7 80.8 69.8C80.7 73 80.1 75.9 77 78.1C67.9 83.8 54.3 85.2 44.1 82.6C40 81.5 35.7 79.2 34.2 75C33 69.5 41 64.5 42.4 63.8C50.1 59.5 59.3 56.4 68.9 56.7C71 56.8 72.6 57 74.4 57.8Z" fill="#F8CDD0"/>
<path d="M128.3 60.3C159.4 59.6 150 85.4 112.2 75.6C113.6 80.1 104.5 85.7 96.5 73C96.3 73.8 96.6 74.6 97 75.4C92.3 76.9 86.8 77.6 82.3 76.5C84.7 74 86.7 70.6 87.1 67.2C93.1 72 101.7 72.8 108.6 69.1C111.4 67.7 113.8 65.3 115.5 62.6C118.2 63.1 121.3 62.2 123.3 60.3C124.6 59.2 125.6 57.7 126.1 56.1C124.9 56.3 121 57.4 119.6 53.9C119.9 52.8 120 51.8 119.8 50.4C131.2 45.9 143.6 53.3 128.3 60.3Z" fill="#ADAF7B"/>
<path d="M74.5 79.1C77.5 67.2 76.9 57.5 60.2 60C81.6 54.3 76.8 75.9 74.5 79.1Z" fill="#483A35"/>
<path d="M44.1 25.9C42.5 27.2 41.6 29.4 42.9 31C43.6 31.9 46.1 30.7 47.7 29.4C49.3 28.1 50.4 25.7 49.5 24.6C48.1 23.2 45.7 24.6 44.1 25.9Z" fill="#483A35"/>
<path d="M44.6 26.2C43.4 27.2 41.9 29 43.1 30.4C43.7 31.1 46.1 29.9 47.3 28.9C48.5 27.9 49.9 25.8 49 24.9C47.9 23.9 45.8 25.2 44.6 26.2Z" fill="#E77E00"/>
<path d="M68.9 68.8C67.3 69.8 65 69.9 64.3 68.6C63.7 67.5 64.4 65.5 66 64.5C67.6 63.5 69.8 63 70.8 64.6C71.8 66.1 70.6 67.8 68.9 68.8Z" fill="#483A35"/>
<path d="M68.5 68.2C67.2 69 65.2 69.3 64.6 68.2C64.1 67.3 64.9 65.7 66.2 64.9C67.5 64.1 69.5 63.6 70.3 64.9C71.1 66.1 69.8 67.4 68.5 68.2Z" fill="#983890"/>
<path d="M84.3 86.6C81.6 88.4 77.8 89.5 76.6 87.6C75.4 85.7 76.9 82.6 79.6 80.8C82.3 79 85.8 77.4 87.2 79.2C88.8 81.4 86.9 84.8 84.3 86.6Z" fill="#483A35"/>
<path d="M83.6 85.9C81.5 87.4 77.8 88.5 77 87.2C76.1 85.7 78 83.2 80.1 81.7C82.4 80.1 85.6 78.3 86.9 80C88.2 81.7 85.7 84.4 83.6 85.9Z" fill="#00908D"/>
<path d="M49.2 76.9C47.2 77.5 45.4 76.8 45.1 75.7C44.6 73.9 46.2 72.2 47.9 71.8C50.2 71.1 51.8 72.3 52.1 73.4C52.5 74.8 50.9 76.5 49.2 76.9Z" fill="#483A35"/>
<path d="M49.2 76.6C47.8 77 45.6 76.4 45.4 75.6C45.1 74.3 46.9 72.9 48.1 72.6C49.8 72.1 51.5 73 51.7 73.8C52 74.7 50.4 76.2 49.2 76.6Z" fill="#983890"/>
<path d="M50.3 78.4C50.8 78.1 52.1 78.1 52.3 78.5C52.5 78.9 52 79.9 51.4 80.2C50.9 80.5 49.9 80.6 49.6 80.2C49.5 79.7 49.8 78.7 50.3 78.4Z" fill="#483A35"/>
<path d="M50.4 78.7C50.8 78.5 51.6 78.5 51.8 78.7C52 79 51.6 79.7 51.2 79.9C50.8 80.1 50.1 80.1 50 79.9C49.9 79.6 50.1 78.9 50.4 78.7Z" fill="#983890"/>
</g>
<g clip-path="url(#clip1)">
<path d="M201.7 116C202.5 112.25 201.3 105.5 200.6 99.25C200.8 99.5 201.1 99.75 201.3 100C202.1 100.625 203.1 101 204 101C208.2 101 209.4 96.375 208.6 90.875C208.3 89 207.9 87.5 207.8 86.25C207.7 82.875 208.8 80.75 210.6 76C213 69.875 211.6 67.25 209.3 66.75C206 66 199.1 67.25 194 65.125C190.1 63.5 189.1 56.25 184.7 55.25C179.5 54 173.8 59.75 171.7 62.375C170.7 58.75 167.1 56.875 163.4 57.875C159.5 58.875 156.9 62.75 157.6 66.875C157.6 67 157.7 67.25 157.7 67.375C156.1 66.625 153 63.75 147.6 69.5C147 66.375 144.2 64.25 141.4 64.625C138 65 136 68.125 136.1 71.25C133.7 70.75 130 67 127.5 71.125C126.7 72.375 126.5 74.25 126.8 76.375C127.1 78.625 128.3 79.625 128.3 82.125C128.3 83.75 127.8 84.875 127.2 86.125C126.5 87.625 125.7 89.25 125.9 92C126.1 95 128.4 97 130.4 97C131.5 97 132.6 96.125 133.2 94.25C133.4 96.75 133.1 100.375 133.1 103.625C133 107.875 132.6 111.5 133.2 113.75C134.6 119 140.2 118.75 151.7 119.625C155.9 120 160.3 120.125 163.6 120.125L201.7 116Z" fill="black"/>
<path d="M146.7 81C153.1 84.125 160.2 85.75 167 84.875C180.3 83.25 191.5 78.375 200 74.125C203.6 72.375 208 71.25 209 68.75C207.1 70.875 203.6 71.5 199.4 73.625C191.1 77.75 180.2 82.5 167 84C158.9 85 151.7 82.5 147 80.25C143.3 78.375 141.5 77.875 136 77C133.7 76.625 130.2 75.25 130.9 72.5C130.2 73.25 130.3 76.75 136.8 77.75C142.2 78.75 143.1 79.25 146.7 81Z" fill="white"/>
<path d="M179.3 78.25C178.2 78.75 177.3 79.5 177.1 80.5C178.3 78.875 182.8 77.5 186.2 78.375C185.6 78.125 185 77.875 184.3 77.75C186.7 74.75 189.8 74.125 190.7 73.875C189.5 73.75 188.5 73.875 187.5 74.25C189.8 71 188 64.875 182.5 65C175.6 65.125 173.5 72.875 176.4 76.625C177.3 77.5 178.4 78.125 179.3 78.25Z" fill="white"/>
<path d="M165.6 64.75C166.9 65.625 168.5 65 169.1 63.375C169.7 61.875 169.1 60.125 167.8 59.25C166.5 58.5 165 58.75 164.3 60.375C163.7 61.875 164.3 63.875 165.6 64.75Z" fill="white"/>
<path d="M183.7 71.375C185.191 71.375 186.4 70.1438 186.4 68.625C186.4 67.1062 185.191 65.875 183.7 65.875C182.209 65.875 181 67.1062 181 68.625C181 70.1438 182.209 71.375 183.7 71.375Z" fill="white"/>
<path d="M163.8 58.5C167.1 57.625 170.2 59.625 170.8 63.25C171.4 66.875 169.2 71 166 71.875C162.7 72.75 159.5 70.25 159 66.625C158.4 63 160.5 59.375 163.8 58.5Z" fill="#E72742"/>
<path d="M142 65.25C143 65 144 65.875 144.2 67.125C144.4 68.375 143.7 69.625 142.6 69.875C141.5 70.125 140.5 69.25 140.3 68C140.2 66.75 140.9 65.5 142 65.25Z" fill="white"/>
<path d="M141.4 65.125C140.4 65.625 139.8 66.875 140 68.125C140.2 69.625 141.5 70.5 142.8 70.25C144.1 70 145 68.5 144.8 67C144.7 66.5 144.6 66.125 144.3 65.75C145.6 66.625 146.5 68.25 146.7 70.25C146.9 73.375 144.9 76.375 142.3 76.75C139.7 77.125 137.6 74.625 137.3 71.5C137 68.25 138.9 65.5 141.4 65.125Z" fill="#E72742"/>
<path d="M133 92.75C132.8 94.75 131.9 95.875 130.6 95.875C129 95.875 127.2 94.25 127 91.875C126.6 87.5 129.4 86.25 129.3 82.125C129.2 79.375 128 78.25 127.7 76.25C127.3 73.5 128.1 71.375 130.1 70.75C132 70 133.6 71.875 136.1 71.875C136.2 72.625 136.4 73.375 136.7 74C137.8 76.25 140 77.625 142.4 77.375C142.5 77.375 142.5 77.375 142.6 77.375C144.5 77.25 146.6 76.25 147.8 74.125C147.4 74.5 146.6 75.25 145.6 75.75C146.5 74.875 147.1 73.875 147.4 72.625C147.6 71.75 147.7 70.875 147.6 70.125C152.7 65.125 156.4 68.5 158.1 68.5C159 70.75 161 72.125 163.2 72.5C168.9 74.25 171.9 69.375 172.2 68.5C172.2 68.5 170.4 70.75 167.7 71.75C170.6 70.25 172.4 66.875 171.9 63.375C173.9 61 179.9 55.75 184.7 57C187.9 57.75 189.4 64.25 193.6 65.875C201 68.75 206.6 67.125 208.9 68C211.9 69.25 209.7 74.75 209.2 76.125C208.3 78.75 207.2 81.75 207.1 85.125C207 87.25 207.3 89.25 207.6 91.125C209.1 101.875 202 101.125 200.3 98C200 95.375 199.9 93 200 90.875C200.3 91.5 200.6 92.125 200.7 92.5C201.1 89.25 197 82 190.7 82.25C184.7 82.5 183.9 92.25 179.1 92.625C176.6 92.75 174.7 88.75 171.6 89C167.8 89.375 166.9 94.25 161.1 94.75C156.6 95.125 152.9 92.625 149.6 89.625C145.4 85.75 139.3 77.875 134.3 82.5C131.5 85.375 133.3 89.5 133 92.75Z" fill="#FDEDF0"/>
<path d="M134.8 83C136.1 81.75 138 81.25 140.1 82.25C146.2 85.125 151.6 96.75 160.8 96.25C166.8 95.875 168.7 90.125 171.6 89.875C174.8 89.625 176.8 94.125 179.7 94C184.5 93.75 184.8 83.75 190.5 83.5C194.4 83.375 197.6 86.625 199.4 89.5C199.2 91.25 199.2 93.125 199.3 95.125C198.9 95.625 197.6 96.125 196.5 96.25C194.9 96.5 193.1 96.25 191 96.625C189.3 96.875 187.6 97.875 185.7 98.125C183.2 98.375 181 98.25 178.3 98.5C175 98.875 171.8 99.875 168.3 100C164.9 100.125 161.7 99.875 158.5 99.875C156.2 99.875 154.3 100.25 152.2 100.25C149.4 100.25 147 99.375 144.6 99.25C141.7 99.125 139.5 99.5 137.6 99.375C136.5 99.25 134.8 99.125 134.2 98.25C134.2 95.875 134 93.625 133.7 91.75C133.8 88.75 132.7 84.875 134.8 83Z" fill="#D5B779"/>
<path d="M199.9 101.625C199.6 102 198.1 101.875 195.3 102.5C194.2 102.75 193.2 103.375 191.8 103.5C189.2 103.75 186.1 103.875 182.9 104.125C180.3 104.375 178.2 105 175.3 105.25C169.8 105.625 164.1 105.375 158.6 105.625C156.5 105.75 154.5 106.375 152.6 106.375C150.3 106.375 148.1 105.75 146 105.625C141.9 105.375 138.4 105.5 136.5 105.375C134.9 105.25 134.1 104.375 134.1 104.125C134.1 104 134.1 103.875 134.1 103.75C134.2 102.25 134.2 100.625 134.2 98.875C134.8 99.875 136.2 100.125 137.5 100.25C139.4 100.375 141.6 99.875 144.4 100C146.8 100 149.6 101.375 152.1 101.375C154.2 101.375 156 100.625 158.2 100.625C161.4 100.5 164.7 101.125 168.1 101C171.6 100.875 174.8 99.625 178.1 99.25C180.8 99 183.2 99.375 185.7 99.125C187.6 98.875 189.2 97.625 190.8 97.375C192.9 97 194.7 97.625 196.3 97.375C197.5 97.125 198.4 96.75 199.1 96.125C199.5 97.875 199.7 99.75 199.9 101.625Z" fill="#EA7FAF"/>
<path d="M151.7 118.125C143.5 117.5 136.7 117.375 134.9 114.75C133.9 113.375 134 108 134.1 105C134.4 105.625 135.2 106.375 136.8 106.375C139 106.5 142 106 146 106.25C148 106.375 150.2 107.5 152.6 107.375C154.5 107.375 156.8 106.25 158.8 106.25C164.3 106 169.9 106.625 175.4 106.25C178.3 106.125 180.4 105 183 104.75C186.2 104.375 189.3 104.875 192 104.625C193.4 104.5 194.4 103.25 195.5 103C198.4 102.5 199.6 102.875 200.1 102.375C200.9 108.875 202.6 114.875 201.2 117.125C198.3 121.5 189 121.125 186.5 121C182.1 121 180.7 119.75 177.6 120.625C175.6 121.25 170.1 121.125 169.1 119.125C166.1 118.875 158.2 118.625 151.7 118.125Z" fill="#D5B779"/>
<path d="M176.2 71.875C176.4 69.5 177.7 67.125 180.1 66.125C186.9 63.5 189 70.875 186.8 74.625C185.5 75.375 184.6 76.5 184.1 77.625C182.9 77.375 181.5 77.5 180.3 77.875C179.4 78 175.9 76.125 176.2 71.875Z" fill="#E72742"/>
<path d="M164.9 60.75C165.4 59.375 166.7 58.875 167.8 59.5C168.8 60.125 169.3 61.75 168.7 63.125C168.2 64.5 166.9 65 165.8 64.375C164.7 63.625 164.3 62 164.9 60.75Z" fill="white"/>
<path d="M183.7 71.125C184.86 71.125 185.8 70.0057 185.8 68.625C185.8 67.2443 184.86 66.125 183.7 66.125C182.54 66.125 181.6 67.2443 181.6 68.625C181.6 70.0057 182.54 71.125 183.7 71.125Z" fill="white"/>
<path d="M201.7 116.125C202.5 112.25 201.3 105.625 200.6 99.375C200.8 99.625 201.1 99.875 201.3 100.125C202.1 100.75 203.1 101.125 204 101.125C208.2 101.125 209.4 96.5 208.6 91C208.3 89.125 207.9 87.625 207.8 86.375C207.7 83 208.8 80.875 210.6 76.125C213 70 211.6 67.375 209.3 66.875C206 66.125 199.1 67.375 194 65.25C190.1 63.625 189.1 56.375 184.7 55.375C179.5 54.125 173.8 59.875 171.7 62.5C170.7 58.875 167.1 57 163.4 58C159.5 59 156.9 62.875 157.6 67C157.6 67.125 157.7 67.375 157.7 67.5C155.9 66.75 152.8 63.875 147.5 69.5C146.9 66.375 144.1 64.25 141.3 64.625C137.9 65 135.8 68.125 136 71.25C133.7 70.875 130 67 127.5 71.25C126.7 72.5 126.5 74.375 126.8 76.5C127.1 78.75 128.3 79.75 128.3 82.25C128.3 83.875 127.8 85 127.2 86.25C126.5 87.75 125.7 89.375 125.9 92.125C126.1 95.125 128.4 97.125 130.4 97.125C131.5 97.125 132.6 96.25 133.2 94.375C133.4 96.875 133.1 100.5 133.1 103.75C133 108 132.6 111.625 133.2 113.875C134.6 119.125 140.2 118.875 151.7 119.75C155.9 120.125 160.3 120.25 163.6 120.25C163.6 120.25 176.3 121.375 178.8 121.25C181.2 121.125 192.4 121.375 194.9 120.875C197.4 120.625 200.9 120.25 201.7 116.125ZM163.8 58.625C167.1 57.75 170.2 59.75 170.8 63.375C171.4 67 169.2 71.125 166 72C162.7 72.875 159.5 70.375 159 66.75C158.4 63 160.5 59.375 163.8 58.625ZM142 65.375C143 65.125 144 65.875 144.2 67.25C144.4 68.5 143.7 69.75 142.6 70C141.5 70.25 140.5 69.375 140.3 68.125C140.2 66.875 140.9 65.625 142 65.375ZM141.4 65.25C140.4 65.75 139.8 67 140 68.25C140.2 69.75 141.5 70.625 142.8 70.375C144.1 70.125 145 68.625 144.8 67.125C144.7 66.625 144.6 66.25 144.3 65.875C145.6 66.75 146.5 68.375 146.7 70.375C146.9 73.5 144.9 76.5 142.3 76.875C139.7 77.25 137.6 74.75 137.3 71.625C137 68.375 138.9 65.625 141.4 65.25ZM133 92.875C132.8 94.875 131.9 96 130.6 96C129 96 127.2 94.375 127 92C126.6 87.5 129.4 86.375 129.3 82.25C129.2 79.5 128 78.375 127.7 76.25C127.3 73.5 128.1 71.375 130.1 70.75C132 70 133.6 71.875 136.1 71.875C136.2 72.625 136.4 73.375 136.7 74C137.8 76.25 140 77.625 142.4 77.375C142.5 77.375 142.5 77.375 142.6 77.375C144.5 77.25 146.6 76.25 147.8 74.125C147.4 74.5 146.6 75.25 145.6 75.75C146.5 74.875 147.1 73.875 147.4 72.625C147.6 71.75 147.7 70.875 147.6 70.125C152.7 65.125 156.4 68.5 158.1 68.5C159 70.75 161 72.125 163.2 72.5C168.9 74.25 171.9 69.375 172.2 68.5C172.2 68.5 170.4 70.75 167.7 71.75C170.6 70.25 172.4 66.875 171.9 63.375C173.9 61 179.9 55.75 184.7 57C187.9 57.75 189.4 64.25 193.6 65.875C201 68.75 206.6 67.125 208.9 68C211.9 69.25 209.7 74.75 209.2 76.125C208.3 78.75 207.2 81.75 207.1 85.125C207 87.25 207.3 89.25 207.6 91.125C209.1 101.875 202 101.125 200.3 98C200 95.375 199.9 93 200 90.875C200.3 91.5 200.6 92.125 200.7 92.5C201.1 89.25 197 82 190.7 82.25C184.7 82.5 183.9 92.25 179.1 92.625C176.6 92.75 174.7 88.75 171.6 89C167.8 89.375 166.9 94.25 161.1 94.75C156.6 95.125 152.9 92.625 149.6 89.625C145.4 85.75 139.3 77.875 134.3 82.5C131.5 85.5 133.3 89.5 133 92.875ZM134.8 83.125C136.1 81.875 138 81.375 140.1 82.375C146.2 85.25 151.6 96.875 160.8 96.375C166.8 96 168.7 90.25 171.6 90C174.8 89.75 176.8 94.25 179.7 94.125C184.5 93.875 184.8 83.875 190.5 83.625C194.4 83.5 197.6 86.75 199.4 89.625C199.2 91.375 199.2 93.25 199.3 95.25C198.9 95.75 197.6 96.25 196.5 96.375C194.9 96.625 193.1 96.375 191 96.75C189.3 97 187.6 98 185.7 98.25C183.2 98.5 181 98.375 178.3 98.625C175 99 171.8 100 168.3 100.125C164.9 100.25 161.7 100 158.5 100C156.2 100 154.3 100.375 152.2 100.375C149.4 100.375 147 99.5 144.6 99.375C141.7 99.25 139.5 99.625 137.6 99.5C136.5 99.375 134.8 99.25 134.2 98.375C134.2 96 134 93.75 133.7 91.875C133.8 88.75 132.7 85 134.8 83.125ZM199.9 101.75C199.6 102.125 198.1 102 195.3 102.625C194.2 102.875 193.2 103.5 191.8 103.625C189.2 103.875 186.1 104 182.9 104.25C180.3 104.5 178.2 105.125 175.3 105.375C169.8 105.75 164.1 105.5 158.6 105.75C156.5 105.875 154.5 106.5 152.6 106.5C150.3 106.5 148.1 105.875 146 105.75C141.9 105.5 138.4 105.625 136.5 105.5C134.9 105.375 134.1 104.5 134.1 104.25C134.1 104.125 134.1 104 134.1 103.875C134.2 102.375 134.2 100.75 134.2 99C134.8 100 136.2 100.25 137.5 100.375C139.4 100.5 141.6 100 144.4 100.125C146.8 100.125 149.6 101.5 152.1 101.5C154.2 101.5 156 100.75 158.2 100.75C161.4 100.625 164.7 101.25 168.1 101.125C171.6 101 174.8 99.75 178.1 99.375C180.8 99.125 183.2 99.5 185.7 99.25C187.6 99 189.2 97.75 190.8 97.5C192.9 97.125 194.7 97.75 196.3 97.5C197.5 97.25 198.4 96.875 199.1 96.25C199.5 97.875 199.7 99.875 199.9 101.75ZM168.5 119.25C165.6 119 158.2 118.625 151.8 118.125C143.6 117.5 136.8 117.375 135 114.75C134 113.375 134.1 108 134.2 105C134.5 105.625 135.3 106.375 136.9 106.375C139.1 106.5 142.1 106 146.1 106.25C148.1 106.375 150.3 107.5 152.7 107.375C154.6 107.375 156.9 106.25 158.9 106.25C164.4 106 170 106.625 175.5 106.25C178.4 106.125 180.5 105 183.1 104.75C186.3 104.375 189.4 104.875 192.1 104.625C193.5 104.5 194.5 103.25 195.6 103C198.5 102.5 199.7 102.875 200.2 102.375C201 108.875 201.9 114.875 200.5 117.125C197.4 121.625 180.5 120 178 120C175.1 119.75 168.5 119.25 168.5 119.25Z" fill="#483A35"/>
<path d="M146.7 81.125C153.1 84.25 160.2 85.875 167 85C180.3 83.375 191.5 78.5 200 74.25C203.6 72.5 208 71.375 209 68.875C207.1 71 203.6 71.625 199.4 73.75C190.9 78 180 82.625 166.8 84.25C158.7 85.25 151.5 82.75 146.8 80.375C143.1 78.5 141.3 78 135.8 77.125C133.5 76.75 130 75.375 130.7 72.625C130 73.375 130.1 76.875 136.6 77.875C142.2 78.75 143.1 79.375 146.7 81.125Z" fill="#483A35"/>
<path d="M179.3 78.375C178.2 78.875 177.3 79.625 177.1 80.625C178.3 79 182.8 77.625 186.2 78.5C185.6 78.25 185 78 184.3 77.875C186.7 74.875 189.8 74.25 190.7 74C189.5 73.875 188.5 74 187.5 74.375C189.8 71.125 188 65 182.5 65.125C175.6 65.25 173.5 73 176.4 76.75C177.3 77.625 178.4 78.125 179.3 78.375ZM176.2 72C176.4 69.625 177.7 67.25 180.1 66.25C186.9 63.625 189 71 186.8 74.75C185.5 75.5 184.6 76.625 184.1 77.75C182.9 77.5 181.5 77.625 180.3 78C179.4 78.125 175.9 76.25 176.2 72Z" fill="#483A35"/>
<path d="M165.6 64.75C166.9 65.625 168.5 65 169.1 63.375C169.7 61.875 169.1 60.125 167.8 59.25C166.5 58.375 164.9 58.75 164.3 60.375C163.7 62 164.3 64 165.6 64.75ZM164.9 60.75C165.4 59.375 166.7 58.875 167.8 59.5C168.8 60.125 169.3 61.75 168.7 63.125C168.2 64.5 166.9 65 165.8 64.375C164.7 63.75 164.3 62.125 164.9 60.75Z" fill="#483A35"/>
<path d="M183.7 71.5C185.2 71.5 186.4 70.25 186.4 68.75C186.4 67.25 185.2 66 183.7 66C182.2 66 181 67.25 181 68.75C181 70.25 182.2 71.5 183.7 71.5ZM183.7 66.125C184.9 66.125 185.8 67.25 185.8 68.625C185.8 70 184.8 71.125 183.7 71.125C182.6 71.125 181.6 70 181.6 68.625C181.5 67.25 182.5 66.125 183.7 66.125Z" fill="#483A35"/>
</g>
<g clip-path="url(#clip2)">
<path d="M254.8 22L210.1 32.5C209.5 38.4 211 43.4 211 43.4C213.3 44.3 215.6 43.8 216.4 48.8C217.2 53.8 215.2 54.8 211.1 56.4C211.4 59.3 212.5 63.4 212.5 63.4C224.7 62.4 240.9 62 276.5 62.6C279.6 48.6 274.8 36 274.8 36C268 27.8 254.8 22 254.8 22Z" fill="#483A35"/>
<path d="M249.2 52.7C246.4 52.1 243.3 54.2 241.5 60.5C243.5 60.5 245.6 60.5 247.8 60.5C250.2 57.7 252.2 53.4 249.2 52.7Z" fill="#BC9600"/>
<path d="M267.2 41.7C269.3 42 270.4 39.1 269.4 36.3C268.3 36.3 266.9 36.2 265.5 36.1C263.9 38.4 265.2 41.4 267.2 41.7Z" fill="#BC9600"/>
<path d="M222.9 41C226.1 40.7 228.1 38.2 227.8 34.7C224.2 34.6 221 34.4 218.3 34.3C218.1 37.7 219.7 41.3 222.9 41Z" fill="#BC9600"/>
<path d="M256.2 40.1C258.3 39.5 257.4 36.6 257.2 35.8C254.8 35.7 252.3 35.6 249.7 35.5C251 38.6 253.6 40.9 256.2 40.1Z" fill="#BC9600"/>
<path d="M259.6 48.2C264.2 44 269.9 45.7 272.4 48.5C274.8 51.2 273.1 58.2 268.5 61.2C270.9 61.3 273.3 61.5 275.9 61.7C277.2 50 274.2 36.4 274.2 36.4C266 29.3 254.8 23 254.8 23C254.8 23 235 29.2 211.1 33.2C210.5 34.9 212.1 42.4 212.1 42.4C214.2 42.7 217.5 43.6 218.2 48.4C219 53.2 216.7 56.2 212.4 57.2C212.7 60 213.2 62.3 213.2 62.3C219.9 61.8 228.2 60.7 240.6 60.5C242.3 53.8 245.8 50.4 249.9 51.4C253.9 52.4 251.1 57.9 249.2 60.5C251.8 60.5 254.5 60.6 257.4 60.7C255.3 56.9 255.3 52.2 259.6 48.2ZM230.6 54.2C225.8 53.3 229.9 39.2 234.9 40.7C240.5 42.3 235.4 55 230.6 54.2ZM245.6 47.8C242.6 48.9 240.7 42.4 243.2 41.4C245.6 40.4 248.6 46.7 245.6 47.8ZM256.7 41.4C253.5 42.4 249.7 39.4 248.1 35.5C245.4 35.4 242.6 35.3 239.9 35.2C236.1 35.1 232.3 34.9 228.9 34.8C229.5 38.3 227.1 42.2 222.8 42.3C218.5 42.4 217.4 37.9 217.5 34.3C214 34.1 211.7 33.9 211.5 33.5C211.5 33.5 245.9 32.3 273.7 36.4C273.7 36.4 272.4 36.3 270.1 36.3C271.8 39.8 270.3 43.2 267.1 42.7C264.2 42.2 263 38.6 264.2 36.1C262.3 36 260.3 35.9 258.1 35.9C258.6 37.2 259.3 40.5 256.7 41.4Z" fill="#FFE91A"/>
<path d="M259.7 48.2C261.5 46.6 263.7 45.6 266.1 45.7C268 45.8 269.9 46.4 271.4 47.6C272.6 48.6 273.3 49.8 273.4 51.3C273.5 53 273.1 54.7 272.4 56.2C271.5 58.1 270.2 59.9 268.4 61.1C268.3 61.1 268.5 61.2 268.5 61.2C271 61.4 273.4 61.5 275.9 61.7H276C276.8 54.1 276.1 46.4 274.8 39C274.7 38.2 274.5 37.4 274.4 36.7C274.4 36.6 274.4 36.5 274.3 36.4C274.2 36.2 273.9 36.1 273.8 35.9C273.6 35.7 273.4 35.5 273.2 35.4C272.8 35 272.3 34.7 271.9 34.4C268.7 31.9 265.4 29.6 262 27.4C259.9 26 257.7 24.7 255.5 23.4C255.3 23.3 255 23 254.7 23.1C254.5 23.1 254.2 23.3 254 23.3C249.5 24.7 245 25.9 240.4 27C231.9 29.2 223.3 31 214.7 32.6C213.5 32.8 212.2 33 211 33.2H210.9C210.7 33.9 210.8 34.6 210.8 35.3C210.9 36.3 211 37.4 211.2 38.4C211.4 39.7 211.6 41.1 211.9 42.4C211.9 42.4 212 42.4 212 42.5C214.4 42.9 216.5 44 217.5 46.3C218.6 48.9 218.6 52.5 216.7 54.8C215.6 56.1 214 56.8 212.4 57.2H212.3C212.5 58.9 212.7 60.6 213.1 62.3C213.1 62.4 213.2 62.4 213.3 62.4C219.9 61.9 226.5 61.2 233.1 60.9C235.6 60.8 238.2 60.7 240.7 60.6H240.8C241.7 57.3 243.2 53.1 246.7 51.7C248 51.2 250.1 51.1 251.2 52.1C252.2 53.1 252 54.7 251.6 55.9C251.1 57.5 250.2 59.1 249.2 60.5L249.3 60.6C252 60.6 254.8 60.7 257.5 60.8C257.5 60.8 257.7 60.8 257.6 60.7C256.6 58.8 256 56.7 256.3 54.6C256.5 52 257.9 49.9 259.7 48.2C259.7 48.2 259.5 48.1 259.5 48.2C257.7 49.9 256.3 52 256 54.5C255.7 56.6 256.3 58.8 257.3 60.6C257.3 60.6 257.4 60.6 257.4 60.5C254.7 60.4 251.9 60.3 249.2 60.3C249.2 60.3 249.3 60.3 249.3 60.4C250.2 59.2 250.9 57.9 251.4 56.5C251.9 55.3 252.3 53.7 251.7 52.5C251.1 51.4 249.8 51.1 248.6 51C247.3 51 246.1 51.4 245 52.1C243.7 53.1 242.7 54.4 242 55.9C241.6 56.8 241.2 57.7 240.9 58.6C240.8 59 240.7 59.9 240.3 60.2C240.1 60.4 239.6 60.3 239.3 60.3C238.9 60.3 238.6 60.3 238.2 60.3C233.6 60.4 229.1 60.7 224.6 61C220.7 61.3 216.9 61.7 213 62C213.1 62 213.1 62 213.2 62.1C213 61.1 212.8 60 212.7 58.8C212.7 58.4 212.4 57.6 212.6 57.3C212.7 57 213.2 57 213.5 56.9C214.1 56.7 214.8 56.4 215.3 56.1C217.7 54.6 218.6 52 218.4 49.3C218.2 46.6 217 44.1 214.4 43C214 42.8 213.5 42.7 213 42.6C212.8 42.6 212.2 42.5 212.1 42.4C212 42.3 212 41.9 212 41.7C211.9 41.2 211.8 40.8 211.7 40.3C211.5 39.1 211.3 37.9 211.1 36.7C211 35.7 210.8 34.6 211 33.6C211 33.3 211.1 33.3 211.4 33.2C212 33.1 212.6 33 213.2 32.9C214.3 32.7 215.4 32.5 216.5 32.3C218.6 31.9 220.7 31.5 222.8 31.1C229.8 29.7 236.9 28 243.8 26.2C247.4 25.3 250.9 24.3 254.5 23.2C254.6 23.2 254.8 23.1 254.9 23.1C255 23 254.9 23.1 254.7 23C255 23.2 255.4 23.4 255.8 23.6C258 24.9 260.1 26.2 262.2 27.6C265.3 29.6 268.3 31.7 271.2 34C272 34.6 272.7 35.2 273.4 35.8C273.7 36 274 36.2 274.1 36.5C274.3 37 274.3 37.7 274.4 38.3C275.5 44.6 276.2 51.1 276 57.6C276 58.6 275.9 59.6 275.8 60.6C275.8 60.8 275.8 61 275.7 61.2C275.7 61.6 275.6 61.6 275.3 61.6C274.7 61.6 274.1 61.5 273.6 61.5C272.5 61.4 271.4 61.3 270.3 61.3C270 61.3 269.8 61.3 269.5 61.2C269.3 61.2 268.9 61.2 268.8 61.2C268.6 61.1 268.7 61.3 268.8 61.1L269 61C269.2 60.9 269.3 60.7 269.5 60.6C271.6 58.8 273.1 56.1 273.5 53.4C273.7 52.2 273.7 51 273.3 49.9C272.9 48.8 272.1 48.1 271.2 47.4C269 45.9 266.2 45.3 263.6 46C262 46.4 260.6 47.2 259.4 48.3C259.4 48.2 259.6 48.3 259.7 48.2Z" fill="#483A35"/>
<path d="M230.7 54.1C228.6 53.7 228.5 50.7 228.7 49.1C229 46.7 229.8 44.2 231.4 42.4C232 41.6 232.9 40.9 233.9 40.7C235 40.5 236.1 41.2 236.7 42.1C237.9 44.1 237.2 47 236.4 49.1C235.4 51.1 233.4 54.5 230.7 54.1C230.6 54.1 230.4 54.2 230.7 54.1C233 54.6 234.9 52.2 235.9 50.3C237.1 48.1 238.1 44.9 237.1 42.4C236.2 40.4 233.9 39.9 232.2 41.2C230.1 42.8 229.1 45.6 228.6 48.1C228.3 50.1 228 53.7 230.7 54.1C230.7 54.2 230.8 54.1 230.7 54.1Z" fill="#483A35"/>
<path d="M245.5 47.7C244.3 48.1 243.3 47.2 242.8 46.2C242.3 45.2 242 43.9 242.2 42.8C242.4 41.8 243.3 41 244.4 41.5C245.5 42.1 246.2 43.3 246.5 44.4C246.9 45.6 246.9 47.2 245.5 47.7C245.4 47.7 245.6 47.8 245.7 47.8C247 47.3 247.2 45.9 246.9 44.7C246.6 43.5 245.8 42.1 244.7 41.5C243.7 41 242.6 41.3 242.2 42.4C241.7 43.6 242 45.1 242.6 46.2C243.2 47.4 244.4 48.4 245.8 47.9C245.8 47.8 245.6 47.7 245.5 47.7Z" fill="#483A35"/>
<path d="M256.6 41.3C252.9 42.4 249.5 38.5 248.2 35.4H248.1C241.7 35.2 235.3 34.9 228.8 34.7H228.7C229.1 37.4 227.8 40.3 225.3 41.6C223.8 42.3 221.9 42.5 220.5 41.7C219.4 41.1 218.7 40 218.2 38.8C217.7 37.4 217.5 35.8 217.5 34.3L217.4 34.2C215.8 34.1 214.3 34 212.7 33.8C212.3 33.7 212 33.7 211.6 33.6C211.5 33.6 211.3 33.6 211.4 33.6C211.9 33.5 212.6 33.6 213.2 33.6C216.4 33.5 219.6 33.5 222.9 33.5C234.4 33.5 245.9 33.9 257.3 34.8C261 35.1 264.6 35.5 268.3 35.9C269.2 36 270.1 36.1 271 36.2C271.5 36.3 271.9 36.3 272.4 36.4C272.6 36.4 272.8 36.5 273 36.5C273.1 36.5 273.3 36.5 273.4 36.6C273.5 36.6 273.6 36.6 273.6 36.5C273.4 36.4 272.9 36.5 272.6 36.5C271.7 36.5 270.8 36.4 269.9 36.4C269.9 36.4 269.7 36.4 269.8 36.5C270.4 37.8 270.8 39.5 270.2 40.9C269.6 42.4 268.2 43.1 266.7 42.8C264 42.1 263.1 38.6 264.1 36.3C264.1 36.2 264 36.2 264 36.2C262 36.1 259.9 36 257.9 36C257.9 36 257.8 36 257.8 36.1C258.6 37.7 259 40.5 256.6 41.3C256.5 41.3 256.7 41.4 256.8 41.4C259.2 40.6 258.8 37.8 258.2 35.8C258.2 35.8 258.1 35.8 258.1 35.9C260.1 36 262.2 36.1 264.2 36.1C264.2 36.1 264.1 36.1 264.1 36C262.9 38.6 264.1 42.3 267.2 42.7C268.5 42.9 269.8 42.4 270.4 41.2C271.3 39.7 270.9 37.8 270.2 36.2C270.2 36.2 270.1 36.2 270.1 36.3C271.3 36.3 272.5 36.4 273.7 36.4C273.8 36.4 273.9 36.3 273.7 36.3C262.7 34.7 251.6 33.9 240.6 33.5C232.4 33.2 224.2 33.1 216 33.2C214.5 33.2 212.9 33.2 211.4 33.3C211.4 33.3 211.3 33.3 211.3 33.4C211.5 33.6 211.9 33.7 212.2 33.7C213 34 213.8 34.1 214.6 34.1C215.1 34.1 215.7 34.2 216.2 34.2C216.4 34.2 217 34.1 217.1 34.3C217.3 34.5 217.2 34.8 217.2 35C217.2 35.9 217.3 36.8 217.5 37.6C217.8 39.1 218.5 40.6 219.8 41.5C221.1 42.4 222.8 42.4 224.2 42.1C225.9 41.7 227.2 40.6 228.1 39.1C228.5 38.4 228.8 37.5 228.9 36.7C229 36.3 229 35.8 228.9 35.4C228.9 35.2 228.8 35 228.9 34.8C229 34.7 229.8 34.8 230 34.8C235.6 35 241.1 35.2 246.7 35.4C247 35.4 247.6 35.3 247.9 35.6C248.1 35.8 248.2 36.2 248.3 36.5C248.6 37 248.9 37.5 249.3 38C250 38.9 250.8 39.7 251.7 40.3C253.2 41.3 254.9 41.8 256.7 41.3C256.9 41.4 256.7 41.3 256.6 41.3Z" fill="#483A35"/>
<path d="M271.7 49.3C269.2 46.5 263.7 46.1 260.4 49.3C257.2 52.3 256.3 56.5 258.2 60.7C261 60.8 264 60.9 267.1 61.1C271.9 57.7 273.8 51.6 271.7 49.3Z" fill="#BC9600"/>
<path d="M234.7 41.6C230.7 40.4 227.4 52.1 231.2 52.8C235.1 53.4 239.2 42.9 234.7 41.6Z" fill="#BC9600"/>
<path d="M243.4 42.1C241.7 42.8 243 47.4 245.2 46.6C247.4 45.8 245.2 41.3 243.4 42.1Z" fill="#BC9600"/>
</g>
<g clip-path="url(#clip3)">
<path d="M257 58.25C252.8 60 248.9 62.875 245.9 67.25C244.6 69.25 243.5 70.75 242.9 73.75C242.2 77.375 242.4 81.25 243.5 85.375C244.2 87.75 245.2 90.125 246.3 92.25C247.9 95.75 250.1 98.875 252.4 101.75C255.8 105.875 260 108.625 264.1 110.875C269.3 113.5 275 115.25 280.7 115.125C283 115.125 285 114.875 287.2 114.875C289.2 114.625 288.9 113.5 288.8 113C290 112.875 291.1 112.75 292.3 112.375C294.7 111.625 296.9 110.625 299.2 109.5C300.1 108.875 301 108.5 301.8 107.75C302.2 107.5 302.6 107.125 303 106.875C304.1 106 305.1 105 306 103.875C308 101.5 309.1 98.75 309.6 95.375C309.9 94.125 309.9 92.75 309.9 91.375C309.9 86.125 308.1 81.75 305.9 77.75C303.8 73.875 300.7 70.75 297.7 68C291.4 62.5 284.3 60.25 277 58.875C273.8 58.25 270.5 58 267.2 58C267.5 57.625 267.6 57.5 267.7 57.125C266.5 56.625 264.9 56.625 263.5 56.75C261.2 56.875 259 57.375 257 58.25ZM277.5 79.25C280.9 80.375 284.1 82.25 287 85C287.7 85.875 288.6 87 288.5 88.375C287.9 88.5 285.9 88.875 284.8 88.75C284.9 88 284.5 87.75 284.1 87.75C281.9 87.5 279.8 87.125 277.8 86.375C274.3 85.125 271.1 83.25 268 80.75C267.3 80.125 266.7 79.5 266 78.75C268.4 76.5 273.5 79 275.5 79.5C276.2 79.75 277 79.875 277.5 79.25Z" fill="#483A35" stroke="#483A35" stroke-miterlimit="10"/>
<path d="M245.5 68.75C247.5 65.375 250.2 63.125 253 61.25C256.1 59.375 259.6 58.125 263.2 57.625C264.4 57.5 265.7 57.125 266.9 57.375C265.3 58.125 264.3 58.875 264.1 60C264.5 61.625 265.9 61.875 267 62.25C270.3 63.25 274.1 64 277.2 66.625C277.5 66.875 277.8 67.25 277.8 67.625C277.8 68.375 277.2 68.625 276.7 68.875C275.5 69.25 273.3 68.75 273.6 70.625C273.7 71.25 274 71.5 274.4 71.875C275.8 73.125 277.3 74.375 278.4 76.25C278.5 76.5 278.6 77 278.5 77.25C278.2 77.875 277.7 77.625 277.5 78.125C276.9 79.125 276.1 78.5 275.3 78.25C270.4 76.375 267 77 265.9 78.5C265.7 78.25 265.5 78 265.2 77.875C266.3 80.375 268.5 81.75 270.3 83.25C274 86 277.9 87.875 282.2 88.375C282.9 88.375 283.5 88.5 284.1 88.625C284.8 88.75 284.5 89.25 283.9 89.75C283.3 90.25 282.5 90.625 282.5 91.375C282.5 92.25 284.4 93 284.6 93.375C285.6 94.75 281.5 95.125 281.6 96.25C281.6 97.375 283.2 97.875 284.3 98.25C286 99 287.8 99.375 289.5 100.375C290.2 100.75 289.8 102.25 287.6 102.375C286 102.625 284.4 102.5 282.7 102.5C281.7 102.625 280.7 102.5 280.4 103.5C280.3 104.25 280.8 104.75 281.3 105.125C283.2 106.625 285.5 107.125 287.6 108C288.4 108.25 289 108.75 288.8 109.25C288.4 110.375 287.2 110.625 287.3 111.25C287.6 112.25 289.1 112.375 288.4 113.625C287.8 114.375 286.8 114.25 286 114.25C281.4 114.5 276.9 114.375 272.3 113C269.2 112 266.1 110.875 263.2 109.125C259.8 107 256.4 104.75 253.5 101.5C249 96.125 244.6 90 243.4 82.25C242.8 78.125 242.7 73.75 244.5 70.375C244.8 69.875 245.1 69.375 245.5 68.75Z" fill="#F6BBAA"/>
<path d="M245.8 84.5C248.7 91.75 254.6 101.25 267.3 107.375C260.7 106.375 248.5 94.875 245.8 84.5Z" fill="#483A35"/>
<path d="M266.4 58.625C268.8 58.375 271.2 58.75 273.5 59C277 59.5 280.4 60.25 283.7 61.25C291 63.625 298.1 68.5 303.7 75.5C305.4 77.75 306.8 80.25 307.9 82.875C308.4 84.5 309.2 86 309.3 87.875C309.8 91.375 309.5 94.875 308.5 98C307.8 100.25 306.5 102.25 305 104C302.2 107.25 298.4 109.375 294.9 110.875C292.9 111.625 291 112.5 288.8 112.75C288.5 111.625 287.6 111.75 287.6 111.125C287.6 110.5 289.2 110.5 289 108.75C288.8 107.875 288.1 107.625 287.5 107.25C285.8 106.5 284 106 282.3 105.375C279.5 104.125 280.8 103 281.8 103.125C283.8 103 285.8 103.375 287.8 103.25C291 102.75 290.3 100.625 289.6 100C289.1 99.5 288.5 99.375 288 99.25C286.5 98.75 285 98.25 283.5 97.75C282.8 97.5 281.9 97.25 281.7 96.5C281.6 95.625 286.4 95.625 284.9 93.25C284.4 92.5 282.7 92.125 282.7 91.5C282.7 90.75 284.7 90.5 284.8 89.5C286.7 89.5 289.3 89.25 290.6 87.875C290 88.125 289.3 88.5 288.7 88.625C289 87.625 288.6 86.625 288.1 85.875C286.2 82.75 283.2 81.125 280.5 80C279.6 79.625 278.7 79.375 277.8 79.125C277.9 78.875 278.1 78.75 278.3 78.625C278.6 78.375 278.9 78 278.9 77.625C278.9 76 277.7 75 276.8 74.125C275.9 73.25 275 72.625 274.1 71.875C273.3 71.125 273.8 70.25 274.2 70.125C275.5 70 277.1 70.5 277.9 69.125C278.1 68.75 278.3 68.375 278.1 67.625C277.5 66.375 276.4 65.625 275.4 65C272.1 63.25 268.4 63.25 265 61.625C264.6 61.375 264.2 61 264.1 60.375C264.7 59.125 265.5 59.125 266.4 58.625Z" fill="#AC4E00"/>
<path d="M249.9 75C251 76.5 251.4 78.25 250.8 78.875C250.2 79.5 249.1 79.5 247.8 77.375C246.8 75.875 246.5 73.875 247 73.25C247.6 72.625 248.6 73.25 249.9 75Z" fill="black"/>
<path d="M249.7 75.25C250.6 76.5 251.1 78 250.6 78.625C250 79.125 249 78.875 248 77.25C247.2 76 246.8 74.125 247.2 73.625C247.7 73 248.7 73.875 249.7 75.25Z" fill="#AC4E00"/>
<path d="M285.7 66.75C287.1 67.5 288 68.625 287.7 69.375C287.3 70.125 286.3 70.625 284.6 69.625C283.3 68.875 282.4 67.375 282.7 66.75C283 65.875 284.1 66 285.7 66.75Z" fill="black"/>
<path d="M285.6 67.125C286.8 67.75 287.6 68.75 287.4 69.375C287.1 70 286.1 70.25 284.7 69.375C283.6 68.75 282.7 67.5 282.9 67C283.2 66.25 284.3 66.375 285.6 67.125Z" fill="#D99B00"/>
<path d="M303 79.875C302.2 78.875 301.3 78.375 300.9 78.875C300.5 79.375 300.4 80.375 301.5 81.625C302.3 82.5 303.5 82.875 303.9 82.5C304.1 81.875 303.8 81 303 79.875Z" fill="black"/>
<path d="M302.8 80C302.1 79.125 301.3 78.625 301 79.125C300.7 79.5 300.8 80.375 301.6 81.375C302.3 82.125 303.3 82.625 303.6 82.25C303.9 81.875 303.5 80.875 302.8 80Z" fill="#D99B00"/>
</g>
<defs>
<clipPath id="clip0">
<rect width="148.6" height="100.1" fill="white"/>
</clipPath>
<clipPath id="clip1">
<rect width="86" height="66.75" fill="white" transform="translate(126 55)"/>
</clipPath>
<clipPath id="clip2">
<rect width="67.8" height="52" fill="white" transform="translate(209 19)"/>
</clipPath>
<clipPath id="clip3">
<rect width="68.5" height="59.75" fill="white" transform="translate(242 56)"/>
</clipPath>
</defs>
</svg>
