<svg width="375" height="85" viewBox="0 0 375 85" fill="none" xmlns="http://www.w3.org/2000/svg">
<g clip-path="url(#clip0)">
<path d="M299.006 16.1484C331.032 16.328 362.825 10.0629 393.576 -2.43135L393.369 -3.03834C331.334 22.2602 266.397 21.8547 205.521 -4.04927L205.286 -3.4655C235.468 9.36622 266.985 16.0137 299.006 16.1484Z" fill="#EDBE75"/>
<path d="M390.181 -1.36486L388.813 22.0301L374.925 4.2607L390.181 -1.36486Z" fill="#59BFF8"/>
<path d="M389.821 0.649452L376.165 5.67813L374.92 4.11317L389.974 -1.36483L389.821 0.649452Z" fill="#3493B7"/>
<path d="M354.492 10.0388L350.285 33.9359L338.679 13.2004L354.492 10.0388Z" fill="#E6F16B"/>
<path d="M353.878 12.0052L339.629 14.7294L338.677 13.0597L354.252 10.0388L353.878 12.0052Z" fill="#7CB750"/>
<path d="M336.082 13.2695L329.448 30.7232L320.143 15.2025L336.082 13.2695Z" fill="#59BFF8"/>
<path d="M335.137 15.2291L321.233 16.8363L320.142 15.0986L335.905 13.2438L335.137 15.2291Z" fill="#3493B7"/>
<path d="M317.76 15.145L309.933 39.0368L301.733 15.8779L317.76 15.145Z" fill="#57D570"/>
<path d="M316.834 17.0322L302.4 17.6603L301.733 15.7911L317.521 15.0831L316.834 17.0322Z" fill="#57AF59"/>
<path d="M298.858 15.6636L289.909 32.0248L282.881 15.1477L298.858 15.6636Z" fill="#E6F16B"/>
<path d="M297.644 17.4293L283.688 17.0355L282.881 15.086L298.698 15.5893L297.644 17.4293Z" fill="#7CB750"/>
<path d="M280.389 14.4681L269.173 36.1706L264.491 12.5768L280.389 14.4681Z" fill="#59BFF8"/>
<path d="M279.205 16.1673L264.905 14.5034L264.491 12.5235L280.179 14.3741L279.205 16.1673Z" fill="#3493B7"/>
<path d="M261.878 11.8311L250.833 26.7357L246.228 8.94199L261.878 11.8311Z" fill="#E6F16B"/>
<path d="M260.443 13.4597L246.733 10.9199L246.227 8.90292L261.737 11.7463L260.443 13.4597Z" fill="#7CB750"/>
<path d="M243.66 7.87537L229.718 27.5953L228.296 3.62479L243.66 7.87537Z" fill="#57D570"/>
<path d="M242.266 9.48937L228.384 5.63494L228.273 3.59182L243.476 7.78304L242.266 9.48937Z" fill="#57AF59"/>
<path d="M225.697 2.38532L212.541 15.3204L210.75 -3.12535L225.697 2.38532Z" fill="#59BFF8"/>
<path d="M224.08 3.79243L210.953 -1.0226L210.744 -3.14732L225.583 2.30977L224.08 3.79243Z" fill="#3493B7"/>
<path d="M372.386 5.16533L368.418 23.3992L356.878 9.66699L372.386 5.16533Z" fill="#57D570"/>
<path d="M371.766 7.21324L358.206 11.0704L356.876 9.53084L372.222 5.16595L371.766 7.21324Z" fill="#57AF59"/>
<path d="M75.2647 11.8994C43.2383 12.0789 11.4458 5.81381 -19.3057 -6.6804L-19.0982 -7.28739C42.9367 18.0112 107.873 17.6056 168.75 -8.29832L168.984 -7.71456C138.802 5.11716 107.286 11.7646 75.2647 11.8994Z" fill="#EDBE75"/>
<path d="M19.7793 5.78964L23.9855 29.6868L35.5925 8.95129L19.7793 5.78964Z" fill="#E6F16B"/>
<path d="M20.3933 7.75607L34.6422 10.4802L35.5935 8.81051L20.0193 5.78964L20.3933 7.75607Z" fill="#7CB750"/>
<path d="M38.1894 9.02044L44.8228 26.4741L54.1279 10.9534L38.1894 9.02044Z" fill="#59BFF8"/>
<path d="M39.1337 10.98L53.0377 12.5872L54.1289 10.8495L38.3664 8.99473L39.1337 10.98Z" fill="#3493B7"/>
<path d="M56.5112 10.896L64.3381 34.7877L72.5374 11.6289L56.5112 10.896Z" fill="#57D570"/>
<path d="M57.4368 12.7832L71.871 13.4112L72.5374 11.5421L56.7498 10.8341L57.4368 12.7832Z" fill="#57AF59"/>
<path d="M75.4125 11.4151L84.3615 27.7763L91.3892 10.8991L75.4125 11.4151Z" fill="#E6F16B"/>
<path d="M76.6268 13.1801L90.5821 12.7863L91.3892 10.8368L75.5721 11.3402L76.6268 13.1801Z" fill="#7CB750"/>
<path d="M93.8825 10.219L105.098 31.9215L109.78 8.32776L93.8825 10.219Z" fill="#59BFF8"/>
<path d="M95.0662 11.9183L109.366 10.2544L109.78 8.27441L94.0916 10.125L95.0662 11.9183Z" fill="#3493B7"/>
<path d="M112.395 7.58181L123.439 22.4864L128.044 4.69266L112.395 7.58181Z" fill="#E6F16B"/>
<path d="M113.828 9.21071L127.538 6.67086L128.044 4.6539L112.534 7.49732L113.828 9.21071Z" fill="#7CB750"/>
<path d="M130.611 3.62631L144.553 23.3463L145.975 -0.624264L130.611 3.62631Z" fill="#57D570"/>
<path d="M132.005 5.24031L145.887 1.38589L145.998 -0.657235L130.795 3.53398L132.005 5.24031Z" fill="#57AF59"/>
<path d="M148.574 -1.86373L161.73 11.0714L163.521 -7.3744L148.574 -1.86373Z" fill="#59BFF8"/>
<path d="M150.191 -0.45659L163.318 -5.27162L163.527 -7.39635L148.688 -1.93925L150.191 -0.45659Z" fill="#3493B7"/>
<path d="M1.88435 0.916854L5.85186 19.1507L17.3924 5.41851L1.88435 0.916854Z" fill="#57D570"/>
<path d="M2.50512 2.96382L16.0652 6.821L17.395 5.28142L2.04963 0.916529L2.50512 2.96382Z" fill="#57AF59"/>
<path d="M356.302 36.1516C388.301 35.6612 419.911 28.7033 450.223 15.3927L449.994 14.8013C388.854 41.6653 323.901 42.6243 262.212 17.5908L262.007 18.1933C292.567 30.6024 324.304 36.642 356.302 36.1516Z" fill="#EDBE75"/>
<path d="M374.748 34.3052L367.869 58.4395L358.899 35.2942L374.748 34.3052Z" fill="#FFE359"/>
<path d="M374.08 36.3312L359.673 37.1755L358.899 35.2789L374.694 34.306L374.08 36.3312Z" fill="#E3BD61"/>
<path d="M355.863 35.4076L347.634 51.9999L340.052 35.1433L355.863 35.4076Z" fill="#FF949D"/>
<path d="M354.863 37.2961L340.914 37.078L340.052 35.137L355.827 35.3973L354.863 37.2961Z" fill="#EEA984"/>
<path d="M337.364 34.7328L327.088 56.7321L321.597 33.1207L337.364 34.7328Z" fill="#96DA6E"/>
<path d="M336.392 36.5744L322.069 35.0789L321.598 33.1165L337.314 34.7121L336.392 36.5744Z" fill="#58B05E"/>
<path d="M318.848 32.6602L308.458 47.8771L303.207 29.9795L318.848 32.6602Z" fill="#FF949D"/>
<path d="M317.586 34.3748L303.81 32.0323L303.207 29.9769L318.814 32.638L317.586 34.3748Z" fill="#EEA984"/>
<path d="M300.508 29.286L287.49 49.2735L285.129 25.2032L300.508 29.286Z" fill="#FFE359"/>
<path d="M299.319 30.9524L285.341 27.2719L285.129 25.2012L300.462 29.2602L299.319 30.9524Z" fill="#E3BD61"/>
<path d="M282.495 24.2703L269.931 37.5086L267.499 18.9737L282.495 24.2703Z" fill="#96DA6E"/>
<path d="M280.973 25.813L267.756 21.0906L267.499 18.9723L282.466 24.2477L280.973 25.813Z" fill="#58B05E"/>
<path d="M261.436 17.7231C261.454 18.605 262.119 19.2846 262.945 19.2634C263.771 19.2423 264.409 18.5293 264.392 17.6474C264.375 16.7655 263.709 16.0859 262.883 16.1071C262.101 16.1271 261.419 16.8412 261.436 17.7231Z" fill="#E29653"/>
<path d="M17.9689 31.9026C-14.0298 31.4122 -45.64 24.4542 -75.952 11.1436L-75.7232 10.5522C-14.5828 37.4162 50.3704 38.3753 112.059 13.3418L112.264 13.9442C81.7044 26.3533 49.9675 32.393 17.9689 31.9026Z" fill="#EDBE75"/>
<path d="M-0.477272 30.0561L6.40215 54.1904L15.3721 31.0451L-0.477272 30.0561Z" fill="#FFE359"/>
<path d="M0.191276 32.0821L14.5982 32.9264L15.3721 31.0298L-0.422603 30.0569L0.191276 32.0821Z" fill="#E3BD61"/>
<path d="M18.4082 31.1587L26.6379 47.751L34.22 30.8944L18.4082 31.1587Z" fill="#FF949D"/>
<path d="M19.4097 33.0471L33.3589 32.829L34.2205 30.8879L18.4459 31.1482L19.4097 33.0471Z" fill="#EEA984"/>
<path d="M36.9074 30.484L47.1827 52.4833L52.6738 28.8719L36.9074 30.484Z" fill="#96DA6E"/>
<path d="M37.8793 32.3253L52.2027 30.8298L52.6736 28.8675L36.9578 30.463L37.8793 32.3253Z" fill="#58B05E"/>
<path d="M55.4226 28.4111L65.8134 43.6281L71.0642 25.7305L55.4226 28.4111Z" fill="#FF949D"/>
<path d="M56.6848 30.1257L70.4612 27.7833L71.0642 25.7279L55.4566 28.389L56.6848 30.1257Z" fill="#EEA984"/>
<path d="M73.7635 25.037L86.7808 45.0245L89.1421 20.9542L73.7635 25.037Z" fill="#FFE359"/>
<path d="M74.9518 26.7034L88.93 23.0228L89.1421 20.9521L73.8093 25.0112L74.9518 26.7034Z" fill="#E3BD61"/>
<path d="M91.7757 20.0212L104.34 33.2595L106.772 14.7246L91.7757 20.0212Z" fill="#96DA6E"/>
<path d="M93.2978 21.5639L106.516 16.8415L106.772 14.7232L91.8049 19.9986L93.2978 21.5639Z" fill="#58B05E"/>
<path d="M112.835 13.474C112.817 14.3559 112.152 15.0355 111.326 15.0143C110.5 14.9931 109.862 14.2802 109.879 13.3983C109.896 12.5164 110.562 11.8368 111.388 11.858C112.17 11.878 112.852 12.5921 112.835 13.474Z" fill="#E29653"/>
</g>
<defs>
<clipPath id="clip0">
<rect width="375" height="85" fill="white"/>
</clipPath>
</defs>
</svg>
