<svg id="圖層_1" data-name="圖層 1" xmlns="http://www.w3.org/2000/svg" viewBox="0 0 443.83 111.51"><defs><style>.cls-1{fill:#483a35;}.cls-2{fill:#120605;fill-rule:evenodd;}.cls-3{fill:#fff;}.cls-4{fill:#231815;}.cls-5{fill:#434343;}</style></defs><path class="cls-1" d="M930.45,271c-2.53-1.59-5.1-2.88-7.59-4.13-5.17-2.6-10.08-5.07-14-9.9l11-9.08a2,2,0,0,0,.21-.2c.87-.86,4.64-4.75,4.8-4.91a3,3,0,0,0-.17-4.35l-7.22-6.33,9.23.32h.1a3,3,0,0,0,2.82-4l-7.16-19.5a3,3,0,0,0-2.77-2L892,206.48v-.29c.07-3.9.08-4.6-.92-5.6a3,3,0,0,0-2-.88l-12.38-.36h-.09a3,3,0,0,0-3,3v4.13l-26.58.41a3,3,0,0,0-2.83,2.15l-5.55,18.8a3,3,0,0,0,2.88,3.85H853a3.32,3.32,0,0,0,.77-.1v1.59a3,3,0,0,0,1.1,2.31,25.19,25.19,0,0,1-4.05.36,10.1,10.1,0,0,1-2.07-.17,3.05,3.05,0,0,0-.6-.06,3,3,0,0,0-2.84,4s1,3.09,2.13,6.1c.64,1.79,1.18,3.22,1.59,4.26a12.17,12.17,0,0,0,1.11,2.35c-1.88.21-3.81.45-5.66.83a3,3,0,0,0-1.86,4.65L849.73,268a1.84,1.84,0,0,0,.27.34c-2.09.39-4.14.71-6,1-2.67.41-5,.76-6.84,1.23a3,3,0,0,0-1.69,1.14l.28-18.48a3,3,0,0,0-3-3,2.89,2.89,0,0,0-.5,0l-25.65,4.32-.23-1.38,19.25-4a3,3,0,0,0,2.35-2.5l1.48-10.08a3.55,3.55,0,0,0,0-.57,3,3,0,0,0-3-3h-.15a3.43,3.43,0,0,0-.56.08l-22,4.63-.23-1.45,17.63-3a3,3,0,0,0,2.08-1.43,3,3,0,0,0,.24-2.52l-9-25.84a3,3,0,0,0-2.83-2,3.05,3.05,0,0,0-.6.06L754.54,213a3,3,0,0,0-1.93,1.32,3,3,0,0,0-.39,2.31c1.68,7,2.28,15.78,1.77,26a206,206,0,0,1-4.74,34.88c-1.82,7.71-3.94,10.79-5.82,13.5a30.41,30.41,0,0,0-2,3.18,3,3,0,0,0,2.55,4.39l18.42.65h.11a3,3,0,0,0,2.9-2.25,129.24,129.24,0,0,0,2.92-15l6.81,15.93a3,3,0,0,0,2.76,1.82,4,4,0,0,0,.49,0l11.08-1.83a3,3,0,0,0,2.47-3.44l0-.19,26.25-4.32,0,.09a3,3,0,0,0,1.21,1.95,3,3,0,0,0,1.75.56,2.77,2.77,0,0,0,.49,0l11.08-1.82a3,3,0,0,0,2.51-2.92l.19-12.51,0,0,10.22,14.36a3,3,0,0,0,3.43,1.1c3.66-1.27,7-3.25,11.18-5.75,2-1.23,4.38-2.61,7-4.09l4.06,9.37a3,3,0,0,0,2.76,1.8c7.34,0,14.92,0,19.67-4.87,3.09-3.17,4.5-8,4.33-14.77,0-1.14-.09-2.25-.17-3.32a64.22,64.22,0,0,0,15.86,17.12,3,3,0,0,0,3.59-.06l13.29-10.26a3,3,0,0,0-.24-4.91Zm-18.54-39.1h0l0,0Zm-97.06,37.74.7,4.32-26.25,4.32-.7-4.32Zm-43.85-44,31.39-6.67.4,2.29-32,6.2Zm-.53,16.25,15.34-2.6.28,1.72-15.9,3.61Zm18.13,14.42.22,1.39-19.36,4c0-.75,0-1.51-.07-2.26ZM766.39,269.8a126.92,126.92,0,0,1-3.88,26.41,127.36,127.36,0,0,0,3.86-26.46l0,.05h0l11.51,26.92Zm.1-4.46h0c0-2.82,0-5.64-.21-8.46q.25,4.23.23,8.46L792.25,260Zm54.15,21.11-32.17,5.29,32.17-5.29Zm11.58,1.23-11.08,1.82h0l11.08-1.82.52-34.47Zm15.88.19h0A30.5,30.5,0,0,0,852,286.2,30.5,30.5,0,0,1,848.1,287.87Zm4.57-37.13,0,0,0,0Zm19,6.36c2-1.35,4.15-2.89,6.41-4.67h0C875.84,254.21,873.73,255.75,871.69,257.1Zm7.21,18.38a2.85,2.85,0,0,1-1.16.16,8,8,0,0,1-1.49-.21c1-.65,1.93-1.33,2.87-2A5.24,5.24,0,0,1,878.9,275.48Zm4.53-37.83.58-.52c.14.5.29,1,.43,1.51Zm13-4.48a38.83,38.83,0,0,0,1.53,8.26A38.83,38.83,0,0,1,896.38,233.17Zm5,9.14a38.59,38.59,0,0,1-1.56-6.14h7.94C905.63,238.24,903.44,240.34,901.33,242.31Z" transform="translate(-738.09 -194.67)"/><path class="cls-1" d="M876.6,199.35h.09l12.38.36a3,3,0,0,1,2,.88c1,1,1,1.7.92,5.6v.29l27.67.41a3,3,0,0,1,2.77,2l7.16,19.5a3,3,0,0,1-2.82,4h-.1l-9.23-.32,7.22,6.33a3,3,0,0,1,.17,4.35c-.16.16-3.93,4.05-4.8,4.91a2,2,0,0,1-.21.2l-11,9.08c3.95,4.83,8.86,7.3,14,9.9,2.49,1.25,5.06,2.54,7.59,4.13a3,3,0,0,1,.24,4.91L917.4,286.14a3,3,0,0,1-3.59.06A64,64,0,0,1,898,269.08c.07,1.07.13,2.18.16,3.32.17,6.77-1.24,11.6-4.33,14.77C889,292,881.46,292,874.12,292a3,3,0,0,1-2.76-1.8l-4.06-9.37c-2.66,1.48-5,2.86-7,4.09-4.2,2.5-7.52,4.48-11.18,5.75a3,3,0,0,1-3.43-1.1l-10.22-14.36,0,0-.19,12.51a3,3,0,0,1-2.51,2.92l-11.08,1.82a2.77,2.77,0,0,1-.49,0,3,3,0,0,1-3-2.51l0-.09-26.25,4.32,0,.19a3,3,0,0,1-2.47,3.44l-11.08,1.83a4,4,0,0,1-.49,0,3,3,0,0,1-2.76-1.82L768.33,282a131.35,131.35,0,0,1-2.91,15,3,3,0,0,1-2.91,2.25h-.11L744,298.56a3,3,0,0,1-2.55-4.39,30.41,30.41,0,0,1,2-3.18c1.88-2.71,4-5.79,5.82-13.5A206,206,0,0,0,754,242.61c.51-10.2-.09-18.94-1.77-26a3,3,0,0,1,.39-2.31,3,3,0,0,1,1.93-1.32l56.55-11.49a3.13,3.13,0,0,1,.6-.06,3,3,0,0,1,2.83,2l9,25.84a3,3,0,0,1-.24,2.52,3,3,0,0,1-2.08,1.43l-17.63,3,.24,1.45,22-4.63a3.43,3.43,0,0,1,.56-.08h.15a3,3,0,0,1,3,3,3.55,3.55,0,0,1,0,.57L828,246.65a3,3,0,0,1-2.35,2.5l-19.25,4,.23,1.38,25.65-4.32a2.89,2.89,0,0,1,.5,0,3,3,0,0,1,3,3l-.28,18.48a3,3,0,0,1,1.69-1.14c1.87-.47,4.17-.82,6.84-1.23,1.87-.28,3.92-.6,6-1a1.84,1.84,0,0,1-.27-.34l-7.16-10.26a3,3,0,0,1,1.86-4.65c1.85-.38,3.78-.62,5.66-.83A12.17,12.17,0,0,1,849,250c-.41-1-1-2.47-1.59-4.26-1.08-3-2.12-6.07-2.13-6.1a3,3,0,0,1,2.84-4,3.05,3.05,0,0,1,.6.06,10.1,10.1,0,0,0,2.07.17,25.19,25.19,0,0,0,4.05-.36,3,3,0,0,1-1.1-2.31v-1.59a3.32,3.32,0,0,1-.77.1H841.52a3,3,0,0,1-2.88-3.85l5.55-18.8a3,3,0,0,1,2.83-2.15l26.58-.41v-4.13a3,3,0,0,1,3-3m-105.79,28,32-6.2-.4-2.29L771,225.57l-.19,1.82m141.1,4.52,0,0h0v0m-14,9.52a38.83,38.83,0,0,1-1.53-8.26,38.83,38.83,0,0,0,1.53,8.26m3.42.88c2.11-2,4.3-4.07,6.38-6.14h-7.94a38.59,38.59,0,0,0,1.56,6.14m-16.89-3.67c-.14-.51-.29-1-.43-1.51l-.58.52,1,1m-114.25,5.91,15.9-3.61-.28-1.72-15.34,2.6-.28,2.73m82.46,6.17,0,0h0l0,0h0m19,6.38c2-1.35,4.15-2.89,6.41-4.67h0c-2.26,1.78-4.37,3.32-6.41,4.67m-50.55,32.4,11.08-1.82.52-34.47-.52,34.47-11.08,1.82h0m-51.68-27.84,19.36-4-.22-1.39-19.21,3.16c0,.75.05,1.51.07,2.26m-3,3.68h0L792.25,260l-25.76,5.36q0-4.23-.23-8.46c.17,2.82.23,5.64.21,8.46m22.83,12.91,26.25-4.32-.7-4.32-26.25,4.32.7,4.32m-26.66,17.47c0,.16-.09.33-.13.49,0-.16.08-.33.13-.49a127,127,0,0,0,3.75-25.92l11.51,26.92L766.39,269.8h0l0-.05a127.39,127.39,0,0,1-3.73,26m115.1-20.08a2.85,2.85,0,0,0,1.16-.16,5.24,5.24,0,0,0,.22-2.07c-.94.69-1.9,1.37-2.87,2a8,8,0,0,0,1.49.21M848.1,287.87A30.5,30.5,0,0,0,852,286.2a30.5,30.5,0,0,1-3.85,1.67h0m-59.63,3.87,32.17-5.29h0l-32.17,5.29m88.13-95.39a6,6,0,0,0-6,6v1.17l-23.62.37a6,6,0,0,0-5.66,4.3L835.76,227a6,6,0,0,0,5.76,7.7h2.05a6,6,0,0,0-1.15,5.86s1.06,3.12,2.15,6.16c.43,1.2.82,2.25,1.15,3.14-.63.1-1.27.21-1.9.34a6,6,0,0,0-3.71,9.31l4.68,6.71-1.25.2c-1.84.28-3.51.53-5,.82l.21-13.93a6,6,0,0,0-6-6.09,6.61,6.61,0,0,0-1,.08l-.89.15c0-.12,0-.24.07-.36l1.47-10a6.32,6.32,0,0,0,.09-1.06,6,6,0,0,0-5.77-6,6.32,6.32,0,0,0-.33-1.7l-9-25.84a6,6,0,0,0-5.67-4,5.93,5.93,0,0,0-1.19.12L754,210.06a6,6,0,0,0-4.65,7.27c1.62,6.76,2.19,15.21,1.69,25.13a201.06,201.06,0,0,1-4.67,34.37c-1.68,7.13-3.55,9.84-5.36,12.46a34.38,34.38,0,0,0-2.19,3.49,6,6,0,0,0,5.11,8.78l18.42.65h.21a6,6,0,0,0,5.81-4.5q.67-2.61,1.23-5.26l2.84,6.62a6,6,0,0,0,5.51,3.65,6.48,6.48,0,0,0,1-.08L790,300.81a6,6,0,0,0,4.72-4l21.76-3.58a6,6,0,0,0,4.71,2.28,6.35,6.35,0,0,0,1-.08l11.09-1.82a6,6,0,0,0,5-5.83l0-3.35,4.94,6.93a6,6,0,0,0,4.89,2.52,5.93,5.93,0,0,0,2-.33c4-1.37,7.38-3.41,11.73-6,1.25-.74,2.61-1.55,4.09-2.4l2.73,6.3a6,6,0,0,0,5.51,3.61c7.59,0,16.19,0,21.82-5.77,2.68-2.76,4.31-6.46,4.92-11.21a61.52,61.52,0,0,0,11.19,10.57,6,6,0,0,0,7.18-.11l13.29-10.26a6,6,0,0,0-.48-9.84c-2.65-1.66-5.28-3-7.83-4.26-4.17-2.09-7.87-4-11-6.93,3.75-3.08,8.28-6.81,8.57-7.06s.29-.25.42-.38c.91-.91,4.8-4.92,4.84-5a6,6,0,0,0-.35-8.69l-.9-.78.83,0h.2a6,6,0,0,0,5.64-8.07l-7.16-19.5a6,6,0,0,0-5.54-3.93l-24.7-.37c0-2.36-.39-3.62-1.82-5.05a6,6,0,0,0-4.07-1.76l-12.39-.36Z" transform="translate(-738.09 -194.67)"/><path class="cls-1" d="M1163.56,263.75a3.07,3.07,0,0,0,1.07.2,3,3,0,0,0,2.19-.95l11.28-12.07a3,3,0,0,0-1.28-4.9,53.93,53.93,0,0,0-6.45-1.4c-1.25-.23-2.57-.47-3.94-.75l5-8.93a3,3,0,0,0-1.45-4.22,39.36,39.36,0,0,0-5.34-1.69,30.74,30.74,0,0,0,9.41-7.33,3,3,0,0,0,.38-3.34l-2.93-5.62a3,3,0,0,0-2.18-1.58l-28.46-4.58a2.59,2.59,0,0,0-.48,0,3.11,3.11,0,0,0-1.4.34,3,3,0,0,0-2.23-1.68l-9-1.45c0-.55-.08-1.09-.16-1.63a3,3,0,0,0-2.37-2.52l-9.16-1.88a3,3,0,0,0-3.59,2.7l-.49,6-5.8-2.55a2.87,2.87,0,0,0-1.21-.26,3,3,0,0,0-2.57,1.46c-2.69,4.49-8.71,10.4-13.7,13.45a3,3,0,0,0-.37,4.86l4.82,4h-1a3,3,0,0,0-2.24,5l6,7c-2.48.23-4.86.27-7.37.27h-1a3,3,0,0,0-1.77.59l-2.29-4.13a3,3,0,0,0-2.62-1.54h0l-5,.08a3,3,0,0,0-.7-3.46,50.34,50.34,0,0,0-4.31-3.54,63.56,63.56,0,0,1,6.15-4.32,24.39,24.39,0,0,0,6-4.77,3,3,0,0,0,.67-2.55l-2-9.93a3,3,0,0,0-2.92-2.41l-31.42-.22h0a3,3,0,0,0-1.71.54,3,3,0,0,0-3-3.34h-.23L986,205a3,3,0,0,0-2.63,3.9l13.57,42.58a3,3,0,0,0,.37.76h-1a3,3,0,0,0-2.77,4.15l4.85,11.72a3,3,0,0,0,2.77,1.85l.45,0,8.74-1.31,0,1.6c-4.8.64-7.56,1-14.91,1.69a3,3,0,0,0-2.51,4.06l5.65,14.75a3.1,3.1,0,0,0,3,2.1c.94,0,1.87-.33,4.63-1.33,3-1.08,8-2.89,14.78-4.78,4.56-1.28,14.91-5.24,18.52-6.66a3,3,0,0,0,1.9-2.84l-.13-8.78a3,3,0,0,0-1.16-2.32,3,3,0,0,0-1.84-.63,3.43,3.43,0,0,0-.71.08c-2.23.55-5.45,1.25-12.34,2.41v-1.55l11.74-1.8a3,3,0,0,0,2.53-2.69l.61-6.61a3,3,0,0,0-3-3.27h0l-12,.17v-1.28l12-.18a3,3,0,0,0,1.84-.65,3,3,0,0,0,1.8.6h0l10.07-.15-.41,6.29a1.93,1.93,0,0,0,0,.24c0,2,0,7.8-.22,15.38l-5.19-.5-.29,0a3,3,0,0,0-2.34,1.12,3,3,0,0,0-.51,2.8l3.84,11.88a3,3,0,0,0,2.43,2.05c1.79.25,3.44.57,5,.88a36.41,36.41,0,0,0,6.61.91c3.32,0,7.37-1.39,7.79-8a.62.62,0,0,0,0-.13l.42-19.3,8.65.67h.23a3,3,0,0,0,2.88-2.16l.75-2.58c1.62-5.58,3-10.16,4.56-14.36l3.07,12.16a3,3,0,0,0,1.42,1.87,3,3,0,0,0,1.49.4,3,3,0,0,0,.84-.12c1.94-.57,5.21-1.53,8.57-2.87l-2.61,15.9-2.52,0c-3,0-5.57-.07-7.67-.22h-.21a3,3,0,0,0-2.83,4l4.62,13.1h0c.31.89,1.18,2.18,3.64,2.18,3.21,0,12.94-1.69,24.38-3.74,3.73-.66,7-1.24,8.14-1.4a3,3,0,0,0,2.51-2.25l.4-1.62a54.84,54.84,0,0,0,9.93,10.22c4.73,3.89,11.85,8.53,17.58,9.82a2.95,2.95,0,0,0,3.1-1.18l8.89-12.45a3,3,0,0,0,.35-2.85,3,3,0,0,0-2.22-1.84,83.66,83.66,0,0,1-8.5-2.1l2.14-1.08a4.15,4.15,0,0,1,.79-.07,5.07,5.07,0,0,1,.55,0,2.31,2.31,0,0,0,.37,0h.32c3.32-.19,4-2.55,4.08-3.27.27-1.62-.51-3.24-2.37-4.94l-6.16-5.92a2.92,2.92,0,0,0-.92-.6l1-5.92A65.44,65.44,0,0,0,1163.56,263.75Zm8.16-44h0c-.44.51-.89,1-1.34,1.45C1170.83,220.76,1171.28,220.27,1171.72,219.76Zm-8.08,23,5.11-9.24-5.11,9.24Zm-71.56-12.32h0Zm-90.47,59.35h0Zm4.94-70,3.23-.1,0,1.08-3,.19Zm3.46,15.63,0,1.13-1,0-.18-1.11Zm-3.22,16.93,3.46-.64v.67ZM1003,216.83l1.23,7.22-1.23-7.22,9.73-.3Zm23.32,19.27-1.46,0,0-1.22,1.63-.08Zm2-16.12-3.7.22,0-1.29,4.11-.72Zm8.71,27.72,5.34-44h0Zm4.54-12.55,2.6-21.42,0,2a3,3,0,0,0,2.93,2.95h.06a2.8,2.8,0,0,0-.39.67l-2.7,6.37a3,3,0,0,0,.71,3.35,57.54,57.54,0,0,1,4.48,5.09l.7.84Zm15.53-15c-1.06-.46-2.13-.9-3.22-1.31l4.45.11Q1057.75,219.52,1057.12,220.11Zm2.67,68.42h0Zm5-72.46-17.6-.43,17.6.43Zm12.07,45.7h0c1.76-6,3.12-10.9,4.7-15.33C1080,250.87,1078.65,255.72,1076.89,261.77Zm14.17-4.67h0c1.09-.32,2.61-.77,4.31-1.33C1093.67,256.33,1092.15,256.78,1091.06,257.1Zm5.68-30.53A29,29,0,0,0,1100,224,29,29,0,0,1,1096.74,226.57Zm-3.85,62.51h0Zm59.62-65h0a17.25,17.25,0,0,1-1.93-4.07A17.25,17.25,0,0,0,1152.51,224Zm-4.08,12.7c.86.7,1.74,1.38,2.63,2-1.29-.64-2.33-1.18-3.18-1.67Zm-9.73-17,.18,0a43.9,43.9,0,0,0,1.63,4.59,37.72,37.72,0,0,1-4,.33,3,3,0,0,0-2.18,1l-1.76-1.4.14-.15c.58-.62,1.14-1.22,1.69-1.79a3,3,0,0,0,.25-3.87l-.72-1,.74.12a2.59,2.59,0,0,0,.48,0,3.14,3.14,0,0,0,1.09-.2A3,3,0,0,0,1138.7,219.7Zm-7.19,17.93h0a67.48,67.48,0,0,1-8,5.08l15.61,2.51-15.61-2.51A67.48,67.48,0,0,0,1131.51,237.63Zm-14.6-4.71c7.66-3.69,11.67-8.83,15.36-12.65C1128.58,224.09,1124.57,229.23,1116.91,232.92Zm19.31-24.75-1,6.5h0l1-6.5-11.58-1.86ZM1118,221.91h0l-7.77-1.25ZM1104.35,252c-1.09.62-2.28,1.19-3.48,1.72,1.2-.53,2.39-1.1,3.48-1.72Zm.53-45.37,7.24,3.19-7.24-3.19Zm3.13,13.7a50.17,50.17,0,0,1,3,6.15h0a50.17,50.17,0,0,0-3-6.15Zm6.15,36.46.44-2.76h0Zm-3.27-8.51a63.33,63.33,0,0,0,5.94-2.37,63.33,63.33,0,0,1-5.94,2.37L1152.7,255Zm50.94,27.85c.46.5,1,1.2.91,1.72-.11.69-.82.74-1.27.77.45,0,1.16-.08,1.27-.77C1162.83,277.3,1162.29,276.6,1161.83,276.1Z" transform="translate(-738.09 -194.67)"/><path class="cls-1" d="M1115.37,197.67a3.05,3.05,0,0,1,.6.06l9.16,1.88a3,3,0,0,1,2.37,2.52c.08.54.13,1.08.16,1.63l9,1.45a2.5,2.5,0,0,0,3.63,1.34,2.59,2.59,0,0,1,.48,0l28.46,4.58a3,3,0,0,1,2.18,1.58l2.93,5.62a3,3,0,0,1-.38,3.34,30.74,30.74,0,0,1-9.41,7.33,39.36,39.36,0,0,1,5.34,1.69,3,3,0,0,1,1.45,4.22l-5,8.93c1.37.28,2.69.52,3.94.75a53.93,53.93,0,0,1,6.45,1.4,3,3,0,0,1,1.28,4.9L1166.82,263a3,3,0,0,1-2.19.95,3.07,3.07,0,0,1-1.07-.2,65.44,65.44,0,0,1-6.36-2.82l-1,5.92a2.92,2.92,0,0,1,.92.6l6.16,5.92c1.86,1.7,2.64,3.32,2.37,4.94-.12.72-.76,3.08-4.08,3.27h-.32a2.31,2.31,0,0,1-.37,0,5.07,5.07,0,0,0-.55,0,4.15,4.15,0,0,0-.79.07l-2.14,1.08a83.66,83.66,0,0,0,8.5,2.1,3,3,0,0,1,2.22,1.84,3,3,0,0,1-.35,2.85l-8.89,12.45a2.95,2.95,0,0,1-3.1,1.18c-5.73-1.29-12.85-5.93-17.58-9.82a54.84,54.84,0,0,1-9.93-10.22l-.4,1.62a3,3,0,0,1-2.51,2.25c-1.18.16-4.41.74-8.14,1.4-11.44,2.05-21.17,3.74-24.38,3.74-2.46,0-3.33-1.29-3.64-2.18h0l-4.62-13.1a3,3,0,0,1,2.83-4h.21c2.1.15,4.69.22,7.67.22l2.52,0,2.61-15.9c-3.36,1.34-6.63,2.3-8.57,2.87a3,3,0,0,1-.84.12,3,3,0,0,1-1.49-.4,3,3,0,0,1-1.42-1.87l-3.06-12.16c-1.62,4.2-2.95,8.78-4.57,14.36l-.75,2.58a3,3,0,0,1-2.88,2.16h-.23l-8.65-.67-.42,19.3a.62.62,0,0,1,0,.13c-.42,6.62-4.47,8-7.79,8a36.41,36.41,0,0,1-6.61-.91c-1.59-.31-3.24-.63-5-.88a3,3,0,0,1-2.43-2.05l-3.84-11.88a3,3,0,0,1,.51-2.8,3,3,0,0,1,2.34-1.12l.29,0,5.19.5c.2-7.58.25-13.41.22-15.38a1.93,1.93,0,0,1,0-.24l.41-6.29-10.07.15h0a3,3,0,0,1-1.8-.6,3,3,0,0,1-1.84.65l-12,.18,0,1.28,12-.17h0a3,3,0,0,1,3,3.27l-.61,6.61a3,3,0,0,1-2.53,2.69l-11.74,1.8v1.55c6.89-1.16,10.11-1.86,12.34-2.41a3.43,3.43,0,0,1,.71-.08,3,3,0,0,1,1.84.63,3,3,0,0,1,1.16,2.32l.13,8.78a3,3,0,0,1-1.9,2.84c-3.61,1.42-14,5.38-18.52,6.66-6.78,1.89-11.79,3.7-14.78,4.78-2.76,1-3.69,1.33-4.63,1.33a3.1,3.1,0,0,1-3-2.1L993,275.91a3,3,0,0,1,2.51-4.06c7.35-.7,10.11-1.05,14.91-1.69l0-1.6-8.74,1.31-.45,0a3,3,0,0,1-2.77-1.85l-4.85-11.72a3,3,0,0,1,2.77-4.15h1a3.35,3.35,0,0,1-.37-.76l-13.57-42.58A3,3,0,0,1,986,205l56.21-4.29h.23a3,3,0,0,1,3,3.34,3,3,0,0,1,1.71-.54h0l31.42.22a3,3,0,0,1,2.92,2.41l2,9.93a3,3,0,0,1-.67,2.55,24.39,24.39,0,0,1-6,4.77,63.56,63.56,0,0,0-6.15,4.32,50.34,50.34,0,0,1,4.31,3.54,3,3,0,0,1,.7,3.46l5-.08h0a3,3,0,0,1,2.62,1.54l2.29,4.13a3,3,0,0,1,1.77-.59h1c2.51,0,4.89,0,7.37-.27l-6-7a3,3,0,0,1,2.24-5h1l-4.81-4a3,3,0,0,1,.36-4.86c5-3,11-9,13.7-13.45a3,3,0,0,1,2.57-1.46,2.87,2.87,0,0,1,1.21.26l5.8,2.55.49-6a3,3,0,0,1,3-2.76m-78.32,50,5.34-44h0l-5.34,44m98.13-33,1-6.5-11.58-1.86,11.58,1.86-1,6.5h0m-23.06-4.88-7.24-3.19h0l7.24,3.19m-70.53,25.36L1050,235l-.7-.84a57.54,57.54,0,0,0-4.48-5.09,3,3,0,0,1-.71-3.35l2.7-6.37a2.8,2.8,0,0,1,.39-.67h-.06a3,3,0,0,1-2.93-2.95l0-2-2.6,21.42m23.23-19.08h0l-17.6-.43,17.6.43m-60.58,8-1.23-7.22,9.73-.3-9.73.3,1.23,7.22m130.94-6.38a2.59,2.59,0,0,1-.48,0l-.74-.12.72,1a3,3,0,0,1-.25,3.87c-.55.57-1.11,1.17-1.69,1.79l-.14.15,1.76,1.4a3,3,0,0,1,2.18-1,37.72,37.72,0,0,0,4-.33,43.9,43.9,0,0,1-1.63-4.59l-.18,0a3,3,0,0,1-2.43-2.23,3.14,3.14,0,0,1-1.09.2m-110.54,2.53,3.7-.22.39-1.79-4.11.72,0,1.29m32.48-.09q.63-.59,1.23-1.2l-4.45-.11c1.09.41,2.16.85,3.22,1.31m-50.37.78,3-.19,0-1.08-3.23.1.2,1.17m163.63.32c.45-.45.9-.94,1.34-1.45h0c-.44.51-.89,1-1.34,1.45M1152.51,224h0a17.25,17.25,0,0,1-1.93-4.07,17.25,17.25,0,0,0,1.93,4.07m-35.59,8.89c7.65-3.69,11.66-8.83,15.35-12.65-3.69,3.82-7.7,9-15.35,12.65m-5.87-6.47h0a50.17,50.17,0,0,0-3-6.15h0a50.17,50.17,0,0,1,3,6.15m7-4.54h0l-7.77-1.25,7.77,1.25m-21.28,4.66A29,29,0,0,0,1100,224a29,29,0,0,1-3.23,2.61m-4.66,3.84h0m71.56,12.32,5.11-9.24-5.11,9.24h0m-138.77-6.59,1.46,0,.15-1.26-1.63.08,0,1.22m-15.82.38,1,0,0-1.13-1.14.06.18,1.11m142,2.25c-.89-.66-1.77-1.34-2.63-2l-.55.37c.85.49,1.89,1,3.18,1.67m-11.9,6.45-15.61-2.51a67.48,67.48,0,0,0,8-5.08h0a67.48,67.48,0,0,1-8,5.08l15.61,2.51M1152.7,255l-41.81-6.73a63.33,63.33,0,0,0,5.94-2.37,63.33,63.33,0,0,1-5.94,2.37L1152.7,255m-75.81,6.79c1.76-6,3.12-10.9,4.7-15.33-1.58,4.43-2.94,9.28-4.7,15.33h0m-66.63-9.46v-.67l-3.46.64,3.47,0m90.61,1.38c1.2-.53,2.39-1.1,3.48-1.72h0c-1.09.62-2.28,1.19-3.48,1.72m13.29,3.07.44-2.76h0l-.44,2.76m-23.1.34c1.09-.32,2.61-.77,4.31-1.33-1.7.56-3.22,1-4.31,1.33h0m70.41,21.49c.45,0,1.16-.08,1.27-.77.09-.52-.45-1.22-.91-1.72.46.5,1,1.2.91,1.72-.11.69-.82.74-1.27.77m-101.68,9.94h0m33.09.55h0m-91.28.68h0m113.77-95.09a6,6,0,0,0-6,5.51l-.15,1.79-1.94-.86a5.94,5.94,0,0,0-2.42-.51,6,6,0,0,0-5.15,2.92c-2.43,4.06-8.12,9.64-12.69,12.43a4.91,4.91,0,0,0-.55.38,5.53,5.53,0,0,0-.11-.9l-2-9.93a6,6,0,0,0-5.84-4.82l-31.07-.21a6.15,6.15,0,0,0-.74-1,6,6,0,0,0-4.34-1.85h-.46L985.72,202a6,6,0,0,0-5.26,7.8L993.29,250a5.84,5.84,0,0,0-1.95,1.82,6,6,0,0,0-.57,5.65l4.7,11.37-.28,0a6,6,0,0,0-5,8.12l5.63,14.71a6.12,6.12,0,0,0,5.82,4.07c1.46,0,2.6-.41,5.65-1.51s7.89-2.85,14.56-4.71c4.69-1.31,15.17-5.32,18.82-6.76l.29-.13,1.93,6a6,6,0,0,0,4.87,4.1c1.71.24,3.32.55,4.88.86a38.25,38.25,0,0,0,7.18,1c6.32,0,10.35-4,10.79-10.82,0-.07,0-.16,0-.25l.35-16.13,5.49.42.46,0a6,6,0,0,0,5.76-4.32l.75-2.58c.45-1.54.88-3,1.3-4.45l.54,2.14a6,6,0,0,0,2.84,3.75,6,6,0,0,0,4.67.54c1-.29,2.38-.69,3.94-1.2l-1.38,8.38c-2.9,0-5.41-.07-7.44-.21l-.41,0a6,6,0,0,0-5.66,8l4.62,13.1,0,.12c.94,2.55,3.33,4.06,6.42,4.06,3.46,0,12.91-1.64,24.91-3.78,3.55-.64,6.9-1.24,8-1.39a6,6,0,0,0,3.09-1.37,58.23,58.23,0,0,0,7.46,7.09c2.4,2,10.94,8.64,18.8,10.41a5.87,5.87,0,0,0,1.32.15,6,6,0,0,0,4.88-2.52l8.89-12.44a6,6,0,0,0-3.07-9.21,7,7,0,0,0,1.47-3.23c.44-2.65-.67-5.21-3.28-7.61l-5.88-5.65,0-.19c1,.43,2,.84,3,1.21a5.81,5.81,0,0,0,2.14.4,6,6,0,0,0,4.38-1.9L1180.29,253a6,6,0,0,0-2.56-9.81,58.23,58.23,0,0,0-6.67-1.47l2.94-5.3a6,6,0,0,0-2.47-8.22,31.89,31.89,0,0,0,4.75-4.52A6,6,0,0,0,1177,217l-2.93-5.62a6,6,0,0,0-4.37-3.15l-28.46-4.58a5,5,0,0,0-1-.08h-.28a5.9,5.9,0,0,0-2.88-1.31l-6.8-1.1a6,6,0,0,0-4.63-4.48l-9.16-1.87a5.53,5.53,0,0,0-1.21-.13Zm-39.8,33.06c1-.71,2-1.31,2.84-1.86a30.34,30.34,0,0,0,5.77-4.4,6,6,0,0,0,2.14,4.2l1.12.94a5.84,5.84,0,0,0-.83,1.33,6,6,0,0,0,.91,6.36l2,2.36h-2.42l-1.11-2a6,6,0,0,0-5.25-3.09h-.09l-2,0A6,6,0,0,0,1077,229c-.46-.43-.94-.85-1.42-1.26ZM1043,253.62l4.64-.07-.2,3.05c0,.16,0,.32,0,.49,0,1.75,0,6.35-.14,12l-2-.19a5.63,5.63,0,0,0-.58,0l-.41,0v-.58a6,6,0,0,0-2.18-4.53,5.76,5.76,0,0,0,.39-1.65l.62-6.61a5.88,5.88,0,0,0-.14-1.92Z" transform="translate(-738.09 -194.67)"/><path id="居_拷貝" data-name="居 拷貝" class="cls-2" d="M825,246.21l1.5-10.21-25.11,5.29-1.22-7.48,20.56-3.52-9-25.84-56.55,11.49c1,4,2.56,12.48,1.84,26.82a208,208,0,0,1-4.8,35.39c-2.65,11.21-6.1,13.62-8.09,17.41l18.42.65a127.08,127.08,0,0,0,3.75-39.33l24.81-4.08,1.18,7.18-27.6,5.74,13.25,31L789,294.89l-.51-3.15,32.17-5.29.5,3.05,11.08-1.82.52-34.47L804.11,258l-1.17-7.18Zm-18.74-22.64-38.84,7.54.83-8,36.56-7.77Zm-16.74,19.68-22.73,5.16.94-9.17,20.57-3.48ZM819,276.41l-32.17,5.29-1.68-10.24,32.18-5.3Z" transform="translate(-738.09 -194.67)"/><path id="居_拷貝-2" data-name="居 拷貝" class="cls-3" d="M811.69,204.45l9,25.84-20.56,3.52,1.22,7.48L826.49,236,825,246.21l-22,4.64,1.17,7.18,28.63-4.82-.52,34.47-11.08,1.82-.5-3.05-32.17,5.29.51,3.15-11.08,1.83L766.39,269.8c.06-1.49.1-3,.1-4.46L792.25,260l-1.18-7.18-24.81,4.08q.25,4.23.23,8.46l-1.84.38,1.74,4.08a126.92,126.92,0,0,1-3.88,26.41l-18.42-.65c2-3.79,5.44-6.2,8.09-17.41a208,208,0,0,0,4.8-35.39c.72-14.34-.89-22.84-1.84-26.82l56.55-11.49m-44.28,26.66,38.84-7.54-1.45-8.25-36.56,7.77-.83,8m-.63,17.3,22.73-5.16-1.22-7.49-20.57,3.48-.94,9.17m20.05,33.29L819,276.41l-1.67-10.25-32.18,5.3,1.68,10.24M826.49,236h0m-14.8-34.55a3.05,3.05,0,0,0-.6.06L754.54,213a3,3,0,0,0-1.93,1.32,3,3,0,0,0-.39,2.31c1.68,7,2.28,15.78,1.77,26a206,206,0,0,1-4.74,34.88c-1.82,7.71-3.94,10.79-5.82,13.5a30.41,30.41,0,0,0-2,3.18,3,3,0,0,0,2.55,4.39l18.42.65h.11a3,3,0,0,0,2.9-2.25,129.24,129.24,0,0,0,2.92-15l6.81,15.93a3,3,0,0,0,2.76,1.82,4,4,0,0,0,.49,0l11.08-1.83a3,3,0,0,0,2.47-3.44l0-.19,26.25-4.32,0,.09a3,3,0,0,0,1.21,1.95,3,3,0,0,0,1.75.56,2.77,2.77,0,0,0,.49,0l11.08-1.82a3,3,0,0,0,2.51-2.92l.52-34.46a3,3,0,0,0-3-3,2.89,2.89,0,0,0-.5,0l-25.65,4.32-.23-1.38,19.25-4a3,3,0,0,0,2.35-2.5l1.48-10.08a3.55,3.55,0,0,0,0-.57,3,3,0,0,0-3-3h-.15a3.43,3.43,0,0,0-.56.08l-22,4.63-.23-1.45,17.63-3a3,3,0,0,0,2.08-1.43,3,3,0,0,0,.24-2.52l-9-25.84a3,3,0,0,0-2.83-2ZM771,225.57l31.39-6.67.4,2.29-32,6.2.19-1.82Zm-.53,16.25,15.34-2.6.28,1.72-15.9,3.61.28-2.73Zm-1.08,17.58,19.21-3.16.22,1.39-19.36,4c0-.75,0-1.51-.07-2.26Zm19.21,14.53,26.25-4.32.7,4.32-26.25,4.32-.7-4.32Z" transform="translate(-738.09 -194.67)"/><path id="家_拷貝" data-name="家 拷貝" class="cls-2" d="M889,206.74v2.69l30.63.46,7.15,19.5-14.52-.5-3.88-9.76H856.27L853,228.69H841.52l5.55-18.8,29.53-.46v-7.08l12.39.36C889.11,202.83,889,206.24,889,206.74ZM918,245.55s-11.13,9.17-13.22,10.87c6.46,9.78,15.68,11.8,24.13,17.09l-13.29,10.26c-12.43-9-23-25.53-29.53-50.6h-2.39a23,23,0,0,1-4.77,4.19c5.17,5.49,15.63,12.3,16.24,35.12.42,16.09-8.68,16.56-21,16.56l-5.37-12.37c1.59.2,6.7,2,9,2,5.77,0,4.23-4.86,4.13-11.15a99.48,99.48,0,0,1-15.7,10.58c-8.15,4.49-12.9,8-18.07,9.8l-10.23-14.36c5.27-1.3,15.49-1.87,23.52-5.13,11.2-4.56,14-8,18.5-12a25.06,25.06,0,0,0-1.79-4c-9.34,7.38-16.16,10.52-25.91,13.9L845,256.07c4.38-.9,9.4-1,13.29-2,8.91-2.55,10.93-6.18,14.61-9-.7-.8-1.59-1.8-2.29-2.49-10.66,5.76-13.76,6.95-18,8.18-.43.07-4.57-12.12-4.57-12.12,4.47.92,14.88-.92,20.56-5.44H856.72v-9h52.19v9H896.38c.3,3.4.8,7.19,3.68,14.37,4.67-4.19,10.21-9.56,14.48-14l8.18,7.17S918.81,244.68,918,245.55Z" transform="translate(-738.09 -194.67)"/><path id="家_拷貝-2" data-name="家 拷貝" class="cls-3" d="M876.6,202.35l12.39.36c.12.12,0,3.53,0,4v2.69l30.63.46,7.15,19.5-14.52-.5-3.88-9.76H856.27L853,228.69H841.52l5.55-18.8,29.53-.46v-7.08m32.31,21.84v9H896.38c.3,3.4.8,7.19,3.68,14.37,4.67-4.19,10.21-9.56,14.48-14l8.18,7.17s-3.91,4-4.77,4.89c0,0-11.13,9.17-13.22,10.87,6.46,9.78,15.68,11.8,24.13,17.09l-13.29,10.26c-12.43-9-23-25.53-29.53-50.6h-2.39a23,23,0,0,1-4.77,4.19c5.17,5.49,15.63,12.3,16.24,35.12.42,16.09-8.68,16.56-21,16.56l-5.37-12.37c1.59.2,6.7,2,9,2,5.77,0,4.23-4.86,4.13-11.15a99.48,99.48,0,0,1-15.7,10.58c-8.15,4.49-12.9,8-18.07,9.8l-10.23-14.36c5.27-1.3,15.49-1.87,23.52-5.13,11.2-4.56,14-8,18.5-12a25.06,25.06,0,0,0-1.79-4c-9.34,7.38-16.16,10.52-25.91,13.9L845,256.07c4.38-.9,9.4-1,13.29-2,8.91-2.55,10.93-6.18,14.61-9-.7-.8-1.59-1.8-2.29-2.49-10.66,5.76-13.76,6.95-18,8.18h0c-.45,0-4.57-12.12-4.57-12.12a13.76,13.76,0,0,0,2.67.23c5.13,0,13.15-1.9,17.89-5.67H856.72v-9h52.19M876.6,199.35a3,3,0,0,0-3,3v4.13l-26.58.41a3,3,0,0,0-2.83,2.15l-5.55,18.8a3,3,0,0,0,2.88,3.85H853a3.32,3.32,0,0,0,.77-.1v1.59a3,3,0,0,0,1.1,2.31,25.19,25.19,0,0,1-4.05.36,10.1,10.1,0,0,1-2.07-.17,3.05,3.05,0,0,0-.6-.06,3,3,0,0,0-2.84,4s1,3.09,2.13,6.1c.64,1.79,1.18,3.22,1.59,4.26a12.17,12.17,0,0,0,1.11,2.35c-1.88.21-3.81.45-5.66.83a3,3,0,0,0-1.86,4.65L849.73,268a1.84,1.84,0,0,0,.27.34c-2.09.39-4.14.71-6,1-2.67.41-5,.76-6.84,1.23a3,3,0,0,0-1.72,4.65l10.22,14.36a3,3,0,0,0,3.43,1.1c3.66-1.27,7-3.25,11.18-5.75,2-1.23,4.38-2.61,7-4.09l4.06,9.37a3,3,0,0,0,2.76,1.8c7.34,0,14.92,0,19.67-4.87,3.09-3.17,4.5-8,4.33-14.77,0-1.14-.09-2.25-.17-3.32a64.22,64.22,0,0,0,15.86,17.12,3,3,0,0,0,3.59-.06l13.29-10.26a3,3,0,0,0-.24-4.91c-2.53-1.59-5.1-2.88-7.59-4.13-5.17-2.6-10.08-5.07-14-9.9l11-9.08a2,2,0,0,0,.21-.2c.87-.86,4.64-4.75,4.8-4.91a3,3,0,0,0-.17-4.35l-7.22-6.33,9.23.32h.1a3,3,0,0,0,2.82-4l-7.16-19.5a3,3,0,0,0-2.77-2L892,206.48v-.29c.07-3.9.08-4.6-.92-5.6a3,3,0,0,0-2-.88l-12.38-.36Zm35.31,32.56v0h0l0,0Zm-12.14,4.26h7.94c-2.08,2.07-4.27,4.17-6.38,6.14a38.59,38.59,0,0,1-1.56-6.14Zm-16.34,1.48.58-.52c.14.5.29,1,.43,1.51l-1-1Zm-7.18,37.78c1-.65,1.93-1.33,2.87-2a5.24,5.24,0,0,1-.22,2.07,2.85,2.85,0,0,1-1.16.16,8,8,0,0,1-1.49-.21Z" transform="translate(-738.09 -194.67)"/><path id="野_拷貝" data-name="野 拷貝" class="cls-2" d="M1020.21,283.76c4.17-1.17,13.75-4.8,18.23-6.56l-.13-8.78c-3.07.74-7.23,1.6-16.06,3l0-7.66,14.27-2.19.61-6.61-15,.22-.11-7.28,15-.23,5.34-44-56.21,4.28,13.57,42.58,13.45-2.46.11,7.28-17-.16,4.85,11.72,12.13-1.82.13,7.7c-6.74.9-9,1.23-17.66,2.05l5.69,14.86C1001.56,290.28,1007.85,287.21,1020.21,283.76Zm10.57-60.92-9.09.55-.11-7,11.05-1.94Zm-17.94.68-8.6.53-1.23-7.22,9.73-.3ZM1029,239l-7.07.24-.11-7.18,8.09-.4Zm-15.92.37-6.57.23-1.12-7,7.59-.38Zm70.2,2.76-2.53-4.56-10.63.16,2.82-4.33a47,47,0,0,0-7.24-5.48c8-7.1,11.59-7.58,14.81-11.31l-2-9.94-31.42-.22.14,9.18,17.6.43a51.81,51.81,0,0,1-7.15,7.58,63.11,63.11,0,0,0-8.09-3.17l-2.7,6.37c3.33,3.12,7.09,8.81,9.9,11l-16.19.36.14,9.48,13.32-.2-.62,9.54c0,2.49,0,10-.31,18.72l-8.39-.82,3.84,11.88c9.38,1.33,15.51,4.52,16-3.44l.49-22.47,11.81.91c2.35-8.06,4-14,6.38-19.63Zm-10.94,5a57.25,57.25,0,0,1-7.27,12.48l-.18-12.37Z" transform="translate(-738.09 -194.67)"/><path id="野_拷貝-2" data-name="野 拷貝" class="cls-3" d="M1042.39,203.66l-5.34,44-15,.23.11,7.28,15-.22-.61,6.61-14.27,2.19,0,7.66c8.83-1.43,13-2.29,16.06-3l.13,8.78c-4.48,1.76-14.06,5.39-18.23,6.56-11.32,3.16-17.54,6-18.6,6-.1,0-.15,0-.16-.07l-5.69-14.86c8.64-.82,10.92-1.15,17.66-2.05l-.13-7.7-12.13,1.82-4.85-11.72,17,.16-.11-7.28-13.45,2.46-13.57-42.58,56.21-4.28m-20.7,19.73,9.09-.55,1.85-8.38-11.05,1.94.11,7m-17.45.66,8.6-.53-.1-7-9.73.3,1.23,7.22m17.68,15.2L1029,239l.91-7.34-8.09.4.11,7.18m-15.42.36,6.57-.23-.1-7.18-7.59.38,1.12,7m40.58-33.15,31.42.22,2,9.94c-3.22,3.73-6.86,4.21-14.81,11.31a47,47,0,0,1,7.24,5.48l-2.82,4.33,10.63-.16,2.53,4.56c-2.4,5.62-4,11.57-6.38,19.63l-11.81-.91-.49,22.47c-.26,4-2,5.2-4.8,5.2s-6.59-1.11-11.22-1.76l-3.84-11.88,8.39.82c.26-8.68.35-16.23.31-18.72l.62-9.54-13.32.2-.14-9.48,16.19-.36c-2.81-2.15-6.57-7.84-9.9-11l2.7-6.37a63.11,63.11,0,0,1,8.09,3.17,51.81,51.81,0,0,0,7.15-7.58l-17.6-.43-.14-9.18m18,53.2a57.25,57.25,0,0,0,7.27-12.48l-7.45.11.18,12.37m-22.67-59h-.23L986,205a3,3,0,0,0-2.63,3.9l13.57,42.58a3,3,0,0,0,.37.76h-1a3,3,0,0,0-2.77,4.15l4.85,11.72a3,3,0,0,0,2.77,1.85l.45,0,8.74-1.31,0,1.6c-4.8.64-7.56,1-14.91,1.69a3,3,0,0,0-2.51,4.06l5.65,14.75a3.1,3.1,0,0,0,3,2.1c.94,0,1.87-.33,4.63-1.33,3-1.08,8-2.89,14.78-4.78,4.56-1.28,14.91-5.24,18.52-6.66a3,3,0,0,0,1.9-2.84l-.13-8.78a3,3,0,0,0-1.16-2.32,3,3,0,0,0-1.84-.63,3.43,3.43,0,0,0-.71.08c-2.23.55-5.45,1.25-12.34,2.41v-1.55l11.74-1.8a3,3,0,0,0,2.53-2.69l.61-6.61a3,3,0,0,0-3-3.27h0l-12,.17v-1.28l12-.18a3,3,0,0,0,1.84-.65,3,3,0,0,0,1.8.6h0l10.07-.15-.41,6.29a1.93,1.93,0,0,0,0,.24c0,2,0,7.8-.22,15.38l-5.19-.5-.29,0a3,3,0,0,0-2.34,1.12,3,3,0,0,0-.51,2.8l3.84,11.88a3,3,0,0,0,2.43,2.05c1.79.25,3.44.57,5,.88a36.41,36.41,0,0,0,6.61.91c3.32,0,7.37-1.39,7.79-8a.62.62,0,0,0,0-.13l.42-19.3,8.65.67h.23a3,3,0,0,0,2.88-2.16l.75-2.58a146.19,146.19,0,0,1,5.51-16.71,3,3,0,0,0-.14-2.64l-2.53-4.56a3,3,0,0,0-2.62-1.54h0l-5,.08a3,3,0,0,0-.7-3.46,50.34,50.34,0,0,0-4.31-3.54,63.56,63.56,0,0,1,6.15-4.32,24.39,24.39,0,0,0,6-4.77,3,3,0,0,0,.67-2.55l-2-9.93a3,3,0,0,0-2.92-2.41l-31.42-.22h0a3,3,0,0,0-1.71.54,3,3,0,0,0-3-3.34Zm0,6h0Zm-.8,28.49,2.6-21.42,0,2a3,3,0,0,0,2.93,2.95h.06a2.8,2.8,0,0,0-.39.67l-2.7,6.37a3,3,0,0,0,.71,3.35,57.54,57.54,0,0,1,4.48,5.09l.7.84-8.42.19Zm-17-16.24,4.11-.72-.39,1.79-3.7.22,0-1.29Zm32.5,1.2c-1.06-.46-2.13-.9-3.22-1.31l4.45.11q-.6.61-1.23,1.2Zm-50.57-.39,3.23-.1,0,1.08-3,.19-.2-1.17Zm18.3,15.2,1.63-.08-.15,1.26-1.46,0,0-1.22Zm-16,.49,1.14-.06,0,1.13-1,0-.18-1.11Zm-2.08,16.87,3.46-.64v.67l-3.47,0Z" transform="translate(-738.09 -194.67)"/><path id="餐_拷貝" data-name="餐 拷貝" class="cls-2" d="M1125,284l1.83-7.38c3.73,3.73,5.3,7.93,13.29,14.36,5.26,4.33,11.69,8.18,16.36,9.24l8.89-12.45a87,87,0,0,1-16-4.69c1.29-.5,4.85-2.05,9.14-4.29a7.44,7.44,0,0,1,2.74-.16c.41,0,1.31,0,1.44-.78s-1.19-2-1.46-2.26l-6.19-5.95a12.83,12.83,0,0,1-2.67,2.2l2.49-15.56a63.53,63.53,0,0,0,9.72,4.7l11.28-12.06c-4.5-1.44-14.69-2-23.51-6.16-6.13-2.86-8.63-4.34-10.11-6.39,3.56-.85,4.56-2.56,6.48-3.26a62.22,62.22,0,0,0,14.87,9.65l5.11-9.24c-3.69-1.57-8.48-2-11.75-4,4.72-2.48,10-4.2,14.72-9.7l-2.93-5.63-28.46-4.58-1.15,7.19,8.54,1.38-6,.54a42.38,42.38,0,0,0,3.17,7.89,40.13,40.13,0,0,1-8.23,1.1l1.45,4.82-7.42-5.89c-4.78,4.08-10.81,9.07-21.38,12.83-9.28,3.25-15.52,3.26-21.86,3.25l3.64,14.44c2.9-.85,8.87-2.6,13.29-5.13l-3.93,24c-3.34.07-8.58.14-13-.17l4.62,13.1C1092.18,290.13,1120.58,284.57,1125,284Zm18.11-15.07L1113,264.05l.44-2.76,30.13,4.85Zm1.17-7.29-30.13-4.85.44-2.76,30.13,4.85Zm8.41-6.63-41.81-6.73a67.67,67.67,0,0,0,7.87-3.28l-.31,2,23.84,3.84.43-2.66Q1147.54,251.8,1152.7,255Zm-29.2,19.55c-2.07.37-4.26.83-12.37,1.14l1-6.4,9.32,1.5a17.92,17.92,0,0,0,2,3.76Zm35.11-54.67a22.77,22.77,0,0,1-6.1,4.17,17.57,17.57,0,0,1-2.34-5.53Zm-19.45,25.36-15.61-2.51a67.48,67.48,0,0,0,8-5.08,74.08,74.08,0,0,0,7.65,7.59Zm7.84,29.66a48.32,48.32,0,0,1-7.22,3A19.79,19.79,0,0,1,1135,273Zm-36.26-61.48,3.53.57,1.1-13.3,9.16,1.88a16.9,16.9,0,0,1,.11,3.76l11.58,1.86-1,6.5-11.58-1.86-.44,2.76,6.38,1,2.73,3.68c-4.22,4.37-8.85,10.45-18.87,14.14-7.24,2.66-9.29,2.82-15.19,3.18l-6.13-7.18c5.75-.09,5.75.68,11.13-.88A20.06,20.06,0,0,0,1100,224a29,29,0,0,1-3.23,2.61l-6.57-5.5c5.24-3.2,11.68-9.4,14.71-14.47l7.24,3.19a17.93,17.93,0,0,1-1.38,3.61Zm7.28,8.51a52.38,52.38,0,0,1-7,4.54,50.17,50.17,0,0,0-3-6.15Z" transform="translate(-738.09 -194.67)"/><path id="餐_拷貝-2" data-name="餐 拷貝" class="cls-3" d="M1115.37,200.67l9.16,1.88a16.9,16.9,0,0,1,.11,3.76l11.58,1.86-1,6.5-11.58-1.86-.44,2.76,6.38,1,2.73,3.68c-4.22,4.37-8.85,10.45-18.87,14.14-7.24,2.66-9.29,2.82-15.19,3.18l-6.13-7.18h.91c2.18,0,3.44.12,4.63.12a18.5,18.5,0,0,0,5.59-1A20.06,20.06,0,0,0,1100,224a29,29,0,0,1-3.23,2.61l-6.57-5.5c5.24-3.2,11.68-9.4,14.71-14.47l7.24,3.19a17.93,17.93,0,0,1-1.38,3.61h0l3.53.57,1.1-13.3m-4.32,25.78a52.38,52.38,0,0,0,7-4.54l-10-1.61a50.17,50.17,0,0,1,3,6.15m29.28-16.9,28.46,4.58,2.93,5.63c-4.71,5.5-10,7.22-14.72,9.7,3.27,2,8.06,2.46,11.75,4l-5.11,9.24a62.22,62.22,0,0,1-14.87-9.65c-1.92.7-2.92,2.41-6.48,3.26,1.48,2,4,3.53,10.11,6.39,8.82,4.11,19,4.72,23.51,6.16L1164.63,261a63.53,63.53,0,0,1-9.72-4.7l-2.49,15.56a12.83,12.83,0,0,0,2.67-2.2l6.19,5.95c.27.25,1.59,1.47,1.46,2.26s-1,.74-1.44.78a7.22,7.22,0,0,0-.92-.06,7.43,7.43,0,0,0-1.82.22c-4.29,2.24-7.85,3.79-9.14,4.29a87,87,0,0,0,16,4.69l-8.89,12.45c-4.67-1.06-11.1-4.91-16.36-9.24-8-6.43-9.56-10.63-13.29-14.36L1125,284c-4,.54-27.46,5.11-32.12,5.11-.51,0-.8-.05-.81-.18l-4.62-13.1c2.52.18,5.32.23,7.88.23,1.9,0,3.66,0,5.08-.06l3.93-24c-4.42,2.53-10.39,4.28-13.29,5.13l-3.64-14.44h1a56.47,56.47,0,0,0,20.84-3.25c10.57-3.76,16.6-8.75,21.38-12.83l7.42,5.89-1.45-4.82a40.13,40.13,0,0,0,8.23-1.1,42.38,42.38,0,0,1-3.17-7.89l6-.54-8.54-1.38,1.15-7.19M1152.51,224a22.77,22.77,0,0,0,6.1-4.17l-8.44-1.36a17.57,17.57,0,0,0,2.34,5.53m-13.35,21.19h0a74.08,74.08,0,0,1-7.65-7.59,67.48,67.48,0,0,1-8,5.08l15.61,2.51m-20.4-.25a67.67,67.67,0,0,1-7.87,3.28L1152.7,255q-5.16-3.18-10-6.86l-.43,2.66-23.84-3.84.31-2m25.53,16.64.44-2.76L1114.6,254l-.44,2.76,30.13,4.85m-1.17,7.29.44-2.76-30.13-4.85-.44,2.76,30.13,4.85m-32,6.77c8.11-.31,10.3-.77,12.37-1.14h0a17.92,17.92,0,0,1-2-3.76l-9.32-1.5-1,6.4m28.65,2.19a48.32,48.32,0,0,0,7.22-3L1135,273a19.79,19.79,0,0,0,4.75,4.91m-24.41-80.19a3,3,0,0,0-3,2.76l-.49,6-5.8-2.55a2.87,2.87,0,0,0-1.21-.26,3,3,0,0,0-2.57,1.46c-2.69,4.49-8.71,10.4-13.7,13.45a3,3,0,0,0-.37,4.86l4.82,4h-1a3,3,0,0,0-2.24,5l6,7c-2.48.23-4.86.27-7.37.27h-1a3,3,0,0,0-2.91,3.73l3.64,14.44a3,3,0,0,0,1.42,1.87,3,3,0,0,0,1.49.4,3,3,0,0,0,.84-.12c1.94-.57,5.21-1.53,8.57-2.87l-2.61,15.9-2.52,0c-3,0-5.57-.07-7.67-.22h-.21a3,3,0,0,0-2.83,4l4.62,13.1h0c.31.89,1.18,2.18,3.64,2.18,3.21,0,12.94-1.69,24.38-3.74,3.73-.66,7-1.24,8.14-1.4a3,3,0,0,0,2.51-2.25l.4-1.62a54.84,54.84,0,0,0,9.93,10.22c4.73,3.89,11.85,8.53,17.58,9.82a2.95,2.95,0,0,0,3.1-1.18l8.89-12.45a3,3,0,0,0,.35-2.85,3,3,0,0,0-2.22-1.84,83.66,83.66,0,0,1-8.5-2.1l2.14-1.08a4.15,4.15,0,0,1,.79-.07,5.07,5.07,0,0,1,.55,0,2.31,2.31,0,0,0,.37,0h.32c3.32-.19,4-2.55,4.08-3.27.27-1.62-.51-3.24-2.37-4.94l-6.16-5.92a2.92,2.92,0,0,0-.92-.6l1-5.92a65.44,65.44,0,0,0,6.36,2.82,3.07,3.07,0,0,0,1.07.2,3,3,0,0,0,2.19-.95l11.28-12.07a3,3,0,0,0-1.28-4.9,53.93,53.93,0,0,0-6.45-1.4c-1.25-.23-2.57-.47-3.94-.75l5-8.93a3,3,0,0,0-1.45-4.22,39.36,39.36,0,0,0-5.34-1.69,30.74,30.74,0,0,0,9.41-7.33,3,3,0,0,0,.38-3.34l-2.93-5.62a3,3,0,0,0-2.18-1.58l-28.46-4.58a2.59,2.59,0,0,0-.48,0,3.11,3.11,0,0,0-1.4.34,3,3,0,0,0-2.23-1.68l-9-1.45c0-.55-.08-1.09-.16-1.63a3,3,0,0,0-2.37-2.52l-9.16-1.88a3.05,3.05,0,0,0-.6-.06Zm19.81,20a3.14,3.14,0,0,0,1.09-.2,3,3,0,0,0,2.43,2.23l.18,0a43.9,43.9,0,0,0,1.63,4.59,37.72,37.72,0,0,1-4,.33,3,3,0,0,0-2.18,1l-1.76-1.4.14-.15c.58-.62,1.14-1.22,1.69-1.79a3,3,0,0,0,.25-3.87l-.72-1,.74.12a2.59,2.59,0,0,0,.48,0Zm12.7,19.43.55-.37c.86.7,1.74,1.38,2.63,2-1.29-.64-2.33-1.18-3.18-1.67Z" transform="translate(-738.09 -194.67)"/><path class="cls-4" d="M957.43,213.17a4.14,4.14,0,0,0-5.33-2.44l-.34.14a5.29,5.29,0,0,0-.3-1.34,5.16,5.16,0,0,0-9.58-.21,4.66,4.66,0,0,0-6.62,5.72c0,.11.09.23.14.34h0a4.67,4.67,0,0,0,2.08,9l.06.18a4.12,4.12,0,0,0,5.29,2.42,4.37,4.37,0,0,0,1-.54c2.33,7,3.67,9.64,6,16.69l3.21-.84c-1.27-7.32-1.54-10.21-2.81-17.53a4.29,4.29,0,0,0,4.87-6.33A4.15,4.15,0,0,0,957.43,213.17Z" transform="translate(-738.09 -194.67)"/><path class="cls-4" d="M947,205.34a6,6,0,0,1,5.3,3.9,4.48,4.48,0,0,1,.16.52,5,5,0,0,1,3.8,9.07l0,0a5.15,5.15,0,0,1-3,6.61,5.17,5.17,0,0,1-1.94.32c.52,3.07.87,5.39,1.21,7.63.37,2.5.76,5.09,1.4,8.74a.85.85,0,0,1-.62,1L950,244a.84.84,0,0,1-1-.55c-1.16-3.5-2.09-5.95-3-8.31-.82-2.16-1.67-4.38-2.69-7.41l-.24.1a4.94,4.94,0,0,1-6.2-2.53A5.51,5.51,0,0,1,934.34,215a5.51,5.51,0,0,1,7.16-6.72,6,6,0,0,1,5.45-2.89Zm4.77,6.37a.84.84,0,0,1-.8-.76,4,4,0,0,0-.25-1.13,4.33,4.33,0,0,0-5.55-2.54,4.25,4.25,0,0,0-2.46,2.37.84.84,0,0,1-.5.46.85.85,0,0,1-.68-.05,3.82,3.82,0,0,0-5.43,4.68,1.48,1.48,0,0,0,.12.29.88.88,0,0,1,0,.71.84.84,0,0,1-.52.44,3.83,3.83,0,0,0,1.74,7.39.85.85,0,0,1,.88.58l.05.15a3.26,3.26,0,0,0,4.2,1.92,2.94,2.94,0,0,0,.8-.43.84.84,0,0,1,.75-.12.85.85,0,0,1,.55.53c1.16,3.5,2.09,6,3,8.31s1.71,4.49,2.76,7.63h0l1.69-.44c-.56-3.28-.92-5.69-1.28-8-.37-2.51-.76-5.09-1.39-8.74a.84.84,0,0,1,.26-.77.81.81,0,0,1,.8-.18,3.45,3.45,0,0,0,4.18-4.53,3.29,3.29,0,0,0-.27-.57.83.83,0,0,1-.08-.7.84.84,0,0,1,.48-.51,3.3,3.3,0,0,0,1.87-4.22h0a3.32,3.32,0,0,0-4.25-2l-.28.12A.82.82,0,0,1,951.72,211.71Z" transform="translate(-738.09 -194.67)"/><path class="cls-4" d="M953.35,242.52a.4.4,0,0,1-.22.16l-3.21.84a.39.39,0,0,1-.45-.25L943.62,227a5.86,5.86,0,0,1-.67.32,4.48,4.48,0,0,1-5.73-2.56,5,5,0,0,1-2.31-9.62h0a5,5,0,0,1,6.8-6.35,5.52,5.52,0,0,1,7.22-2.52,5.55,5.55,0,0,1,2.88,3.1,6.24,6.24,0,0,1,.26.94,4.52,4.52,0,0,1,5.71,2.7h0a4.49,4.49,0,0,1-2.17,5.59,3,3,0,0,1,.18.41,4.66,4.66,0,0,1-2.75,6,4.71,4.71,0,0,1-2.35.24l2.72,17A.4.4,0,0,1,953.35,242.52Zm-3.28.19,2.54-.67-2.74-17.18a.35.35,0,0,1,.11-.34.36.36,0,0,1,.36-.08A3.93,3.93,0,0,0,955,222.3a3.95,3.95,0,0,0-.2-3.65.37.37,0,0,1,.18-.54,3.74,3.74,0,0,0,2.12-4.81h0a3.77,3.77,0,0,0-4.85-2.22,2.58,2.58,0,0,0-.31.13.34.34,0,0,1-.34,0,.35.35,0,0,1-.19-.29,4.84,4.84,0,0,0-.28-1.24,4.78,4.78,0,0,0-8.88-.19.43.43,0,0,1-.22.2.37.37,0,0,1-.31,0,4.29,4.29,0,0,0-6.09,5.26c0,.09.08.2.13.31a.39.39,0,0,1,0,.3.35.35,0,0,1-.22.21h0a4.3,4.3,0,0,0,1.93,8.3.38.38,0,0,1,.39.25,1.09,1.09,0,0,0,0,.17,3.75,3.75,0,0,0,4.81,2.2,4,4,0,0,0,.91-.49.36.36,0,0,1,.57.18Zm7.36-29.54Z" transform="translate(-738.09 -194.67)"/><path class="cls-1" d="M947,205a6.28,6.28,0,0,1,2.3.57,6.36,6.36,0,0,1,3.32,3.57c0,.07,0,.14.07.22a5.36,5.36,0,0,1,4,9.65,5.49,5.49,0,0,1-5,7.18l2.54,16a1.13,1.13,0,0,1-.19.87h0a1.22,1.22,0,0,1-.7.49l-3.21.84a1.2,1.2,0,0,1-1.45-.8l-5.54-15.35a5.32,5.32,0,0,1-6.46-2.55,5.88,5.88,0,0,1-2.77-10.86,5.89,5.89,0,0,1,7.43-7,6.39,6.39,0,0,1,3.07-2.42A6.29,6.29,0,0,1,947,205Zm4.72,7.11a1.29,1.29,0,0,1-.54-.15,1.25,1.25,0,0,1-.61-1,3.66,3.66,0,0,0-.23-1,3.9,3.9,0,0,0-2.05-2.21,3.94,3.94,0,0,0-5.27,2,1.21,1.21,0,0,1-1.7.6,3.45,3.45,0,0,0-4.91,4.22l.11.26a1.22,1.22,0,0,1-.68,1.65,3.45,3.45,0,0,0,1.53,6.68,1.24,1.24,0,0,1,1.28.83l0,.13a2.89,2.89,0,0,0,3.72,1.71,2.7,2.7,0,0,0,.71-.38,1.21,1.21,0,0,1,1.87.59l5.63,15.62,1.06-.28L949,225a1.21,1.21,0,0,1,.38-1.1,1.19,1.19,0,0,1,1.14-.26,3.11,3.11,0,0,0,1.93-.08,3.06,3.06,0,0,0,1.81-4,2.63,2.63,0,0,0-.24-.51,1.17,1.17,0,0,1-.11-1,1.18,1.18,0,0,1,.69-.74,2.93,2.93,0,0,0-2.12-5.47l-.24.11A1.28,1.28,0,0,1,951.7,212.08Z" transform="translate(-738.09 -194.67)"/><path class="cls-4" d="M936.6,213.72l-.19.1-.18.11-.18.12-.17.14a2.77,2.77,0,0,0-.56.67,2.68,2.68,0,0,0-.4,1.67,3,3,0,0,0,.55,1.55,6.19,6.19,0,0,1-.06-1.54,3.12,3.12,0,0,1,.44-1.36,2.93,2.93,0,0,1,.44-.56,4.41,4.41,0,0,1,.56-.48,10.82,10.82,0,0,1,1.34-.81A3.69,3.69,0,0,0,936.6,213.72Z" transform="translate(-738.09 -194.67)"/><path class="cls-4" d="M938.24,212.49a.85.85,0,0,1,.76.62.83.83,0,0,1-.4.95l-.13.07a9,9,0,0,0-1.12.69,4.22,4.22,0,0,0-.48.4,3,3,0,0,0-.31.4,2.36,2.36,0,0,0-.32,1,5.14,5.14,0,0,0,.06,1.33.84.84,0,0,1-1.5.63,3.83,3.83,0,0,1-.72-2,3.66,3.66,0,0,1,.52-2.19,4,4,0,0,1,.73-.85.79.79,0,0,1,.15-.12,2.21,2.21,0,0,1,.31-.23l.42-.24h0a4.71,4.71,0,0,1,1.95-.48Z" transform="translate(-738.09 -194.67)"/><path class="cls-4" d="M950,217.79a3.28,3.28,0,0,1-.66,1.22,3.71,3.71,0,0,1-.5.47,6.49,6.49,0,0,1-.62.39c-.43.24-.92.42-1.43.64a3.6,3.6,0,0,0,1.66-.07l.21-.06.2-.09a.82.82,0,0,0,.19-.09l.2-.1a3.12,3.12,0,0,0,.68-.58,2.81,2.81,0,0,0,.67-1.63,2.92,2.92,0,0,0-.36-1.63A7.2,7.2,0,0,1,950,217.79Z" transform="translate(-738.09 -194.67)"/><path class="cls-4" d="M950.33,215.42a.85.85,0,0,1,.67.41,3.75,3.75,0,0,1,.48,2.11,3.66,3.66,0,0,1-.88,2.14,3.6,3.6,0,0,1-.88.73,1,1,0,0,1-.17.1,2.43,2.43,0,0,1-.34.16l-.48.17a4.24,4.24,0,0,1-2.06.09.82.82,0,0,1-.67-.73.83.83,0,0,1,.5-.86l.33-.14c.37-.16.72-.3,1-.47a3.59,3.59,0,0,0,.52-.33,3,3,0,0,0,.37-.34,2.47,2.47,0,0,0,.48-.91,6.08,6.08,0,0,0,.21-1.34.84.84,0,0,1,.64-.77A1.06,1.06,0,0,1,950.33,215.42Z" transform="translate(-738.09 -194.67)"/><path class="cls-4" d="M947.16,208.2a2.79,2.79,0,0,0-1.94.4,2.48,2.48,0,0,0-1.13,1.53,3.39,3.39,0,0,1,1.36-1.1,2.89,2.89,0,0,1,1.61-.22,3,3,0,0,1,1.48.7,3.45,3.45,0,0,1,1,1.45,2.49,2.49,0,0,0-.61-1.79A2.85,2.85,0,0,0,947.16,208.2Z" transform="translate(-738.09 -194.67)"/><path class="cls-4" d="M946.93,207.33l.35,0a3.68,3.68,0,0,1,2.25,1.26,3.33,3.33,0,0,1,.81,2.4.84.84,0,0,1-.73.76.83.83,0,0,1-.9-.55,2.67,2.67,0,0,0-.72-1.1,2,2,0,0,0-2.21-.34,2.66,2.66,0,0,0-1,.83.84.84,0,0,1-1.49-.69,3.34,3.34,0,0,1,1.5-2.05A3.71,3.71,0,0,1,946.93,207.33Z" transform="translate(-738.09 -194.67)"/><path class="cls-4" d="M955.74,241.73a10.9,10.9,0,0,0-9.45,3.67A10,10,0,0,0,944,250a14.16,14.16,0,0,1,2.93-4,12.28,12.28,0,0,1,8.77-3.41,14.21,14.21,0,0,1,4.85.94A9.93,9.93,0,0,0,955.74,241.73Z" transform="translate(-738.09 -194.67)"/><path class="cls-4" d="M955.18,240.84l.65,0h0a10.83,10.83,0,0,1,5.19,2,.84.84,0,0,1-.79,1.46,13.32,13.32,0,0,0-4.56-.88,11.38,11.38,0,0,0-8.18,3.18,13.12,13.12,0,0,0-2.76,3.73.84.84,0,0,1-1.58-.54,10.86,10.86,0,0,1,2.51-5,11.67,11.67,0,0,1,9.52-4Z" transform="translate(-738.09 -194.67)"/><path class="cls-4" d="M946.44,227.13a.16.16,0,0,0-.11.19l3.76,13.32a.14.14,0,0,0,.19.11.15.15,0,0,0,.09-.06.19.19,0,0,0,0-.13l-3.76-13.32A.15.15,0,0,0,946.44,227.13Z" transform="translate(-738.09 -194.67)"/><path class="cls-4" d="M946.54,226.29a1,1,0,0,1,.44.13,1,1,0,0,1,.47.6l3.75,13.32a1,1,0,0,1-.13.81,1,1,0,0,1-.57.41.92.92,0,0,1-.76-.1,1,1,0,0,1-.47-.6l-3.75-13.31a1,1,0,0,1,.7-1.23A.89.89,0,0,1,946.54,226.29Zm-.71,1.19h0Zm5.07,12.94v0Z" transform="translate(-738.09 -194.67)"/><path class="cls-4" d="M948.72,226a.17.17,0,0,0-.13.19l2.67,14.09a.15.15,0,0,0,.18.12.14.14,0,0,0,.1-.07.14.14,0,0,0,0-.11l-2.66-14.09A.16.16,0,0,0,948.72,226Z" transform="translate(-738.09 -194.67)"/><path class="cls-4" d="M948.8,225.18a1,1,0,0,1,.5.17,1,1,0,0,1,.42.63l2.67,14.1a1,1,0,0,1-.15.74,1,1,0,0,1-.63.42,1,1,0,0,1-1.18-.78l-2.66-14.1a1,1,0,0,1,.78-1.16h0A1.06,1.06,0,0,1,948.8,225.18Zm.62.87h0Zm1.32,14.35h0Z" transform="translate(-738.09 -194.67)"/><path class="cls-1" d="M969.23,233.44c-3.51-1.4-5.34-2.1-8-2.09-5.24,0-8.53,1.19-11.67,4.57a15.66,15.66,0,0,0-9.08-3.49,15.83,15.83,0,0,0-14.24,24.29,16.12,16.12,0,0,0-1.46,23h0v0h0v0h0v0h0l0,0h0v0h0l0,0h0v0h0v0h0l0,0h0v0h0v0h0v0h0v0h0v0h0v0h0v0h0v0h0v0h0l0,0h0v0h0l0,0h0v0h0v0h0v0h0v0h0l0,0h0v0h0v0h0v0h0v0h0v0h0v0h0v0h0v0h0a16.09,16.09,0,0,0,11.13,5.36,15.37,15.37,0,0,0,2.25,0,14.68,14.68,0,0,0,2.76,4.7h0l0,0h0v0h0l0,0h0v0h0v0h0l0,0h0v0h0v0h0v0h0v0h0l0,0h0v0h0v0h0v0h0v0h0l0,0h0v0h0v0h0v0h0v0h0v0h0v0h0l0,0h0v0h0v0h0l0,0h0v0h0v0h0v0h0v0h0v0h0v0h0l0,0h0v0h0a14.52,14.52,0,0,0,22.41-.71,13,13,0,0,0,8.74,4,13.13,13.13,0,0,0,13.79-12.08,13.8,13.8,0,0,0,8.42-23h0l0,0h0v0h0l0,0h0v0l0,0v0h0v0l0,0v0h0l0,0h0v0h0l0,0h0v0l0,0v0h0l0,0h0v0h0l0,0h0v0h0l0,0h0l0,0,0,0v0h0l0,0h0v0h0l0,0h0a14,14,0,0,0-2.26-15.3h0v0h0l0,0h0v0h0v0h0v0h0v0h0l0,0h0v0h0v0h0v0h0v0h0l0,0h0v0h0v0h0v0h0v0h0v0h0v0h0v0h0v0h0v0h0l0,0h0v0h0v0h0v0h0v0h0v0h0v0h0l0,0h0v0h0v0h0v0h0v0h0v0h0a13.92,13.92,0,0,0-9.43-4.63s-5.79-.27-7.4.6A12.9,12.9,0,0,0,969.23,233.44Zm4.9,8.23c1.6-.79,7.61-.69,7.61-.69a11.9,11.9,0,0,1,2.15-.07,11.82,11.82,0,0,1,9.52,17.38l-.21.4h.18v0h0v0h0l0,0h0v0h.23v0h0v0h0l0,0h0v0h.23v0h0v0h0l0,0h0v0h.19l0,0h0l.34.29.53.49a12.57,12.57,0,0,1,2.62,8.43,12.72,12.72,0,0,1-11.48,11.91l-.5,0,0,.56s0,.09,0,.13a12,12,0,0,1-20.39,7.81h0v0h0v0h0v0h0v0h0v0h0v0h0v0h0v0h0v0h0v0h0l0,0h0v0h0v0h0v0h0v0h0v0h0v0h0v0h0l0,0h0v0h0v0h0l0,0h0v0h0v0h0v0h0v0h0v0h0v0h0v0h0l0,0h0v0h0v0h0v0h0v0h0l-.43.61a12.26,12.26,0,0,1-22.85-3.58L941,285h0v0h0v0h0v0h0v0h0v0h0v0h0v0h0v0h0v0h0v0h0v0h0v0h0v0h0v0h0v0h0v0h0v0h0v0h0v0h0v0h0v0h0v0h0v0h0v0h0v0h0v0h0v0h0v0h0v0h0v0h0v0h0v0h0v0h0v0h0v0h0v0h0v0h0v0h0v0h0v0h0v0h0v0h0v0h0v0h0v0h0v0h0v0h0v0h0l-.55.09a15.26,15.26,0,0,1-3.31.18A13,13,0,0,1,923,269.45a15,15,0,0,1,5.54-10.83l.41-.33-.3-.44a14.54,14.54,0,0,1-2.53-9.07,14.71,14.71,0,0,1,15.47-13.86,14.52,14.52,0,0,1,8.82,3.58l.44.38.38-.44a14.22,14.22,0,0,1,11.62-4.93c2.62.14,7.66,2.72,7.66,2.72C973.1,237.42,974.13,241.67,974.13,241.67Z" transform="translate(-738.09 -194.67)"/><path class="cls-3" d="M975.46,240.4c-3.49-6.69-9.83-7-12.65-7.19a14.86,14.86,0,0,0-12.1,5.13,15.26,15.26,0,0,0-22.61,20.11A15.55,15.55,0,0,0,937,286.07a15.06,15.06,0,0,0,3.44-.19A13.93,13.93,0,0,0,965.56,291a12.53,12.53,0,0,0,22-7.48,1.28,1.28,0,0,0,0-.19A13.23,13.23,0,0,0,995,260.17a13.44,13.44,0,0,0,1.47-5.42c.4-7.4-4.46-13.62-11.82-14.55a28.42,28.42,0,0,0-9.23.2" transform="translate(-738.09 -194.67)"/><path class="cls-1" d="M981.47,239c.49,0,2.37.13,2.86.16,7.7.42,13.24,7.93,12.82,15.64a14,14,0,0,1-1.33,5.25,13.72,13.72,0,0,1,4.42,10.89,13.81,13.81,0,0,1-12,12.94,13.13,13.13,0,0,1-13.79,12.07,13,13,0,0,1-8.74-4,14.5,14.5,0,0,1-25.58-5.4,15.31,15.31,0,0,1-3,.12,16.13,16.13,0,0,1-9.66-28.31,15.83,15.83,0,0,1,23.32-20.8,15.51,15.51,0,0,1,19.69-2.48s4.18,2,4.61,4.47A27.06,27.06,0,0,1,981.47,239Zm-7.88,2.32c-1.42-3.72-5.32-6.89-10.74-7.53a13.52,13.52,0,0,0-11.63,4.94.58.58,0,0,1-.39.19.57.57,0,0,1-.42-.14,14.54,14.54,0,0,0-8.83-3.57,14.69,14.69,0,0,0-15.46,13.86,14.53,14.53,0,0,0,2.52,9.07.57.57,0,0,1-.11.77,15,15,0,0,0,8.61,26.6,14.66,14.66,0,0,0,3.31-.18.58.58,0,0,1,.66.45,13.35,13.35,0,0,0,24,4.93.58.58,0,0,1,.44-.25.57.57,0,0,1,.47.2,12,12,0,0,0,21-7.14s0-.09,0-.13v-.05a.58.58,0,0,1,.52-.55,12.72,12.72,0,0,0,11.48-11.91,12.57,12.57,0,0,0-4.36-10.26.58.58,0,0,1-.13-.7,12.78,12.78,0,0,0,1.4-5.19c.39-7.07-5.22-11.93-12.12-13.53a9.77,9.77,0,0,0-3.69-.31,30,30,0,0,0-6.27,1.15Z" transform="translate(-738.09 -194.67)"/><polygon class="cls-1" points="261.25 104.45 264.13 104.2 252.61 91.72 261.25 104.45"/><path class="cls-1" d="M919.73,296l14.36-6.88-16.64,4.29Z" transform="translate(-738.09 -194.67)"/><polygon class="cls-1" points="186.79 106.76 195.95 96.48 183.98 105.1 186.79 106.76"/><polygon class="cls-1" points="265.74 98.33 266.3 95.12 253.45 90.19 265.74 98.33"/><path class="cls-1" d="M927.31,274.39A11.47,11.47,0,0,0,929,277a11.32,11.32,0,0,0,1.11,1.08c.19.17.4.32.6.48a3.62,3.62,0,0,0,.32.22,3.53,3.53,0,0,0,.32.21,10.58,10.58,0,0,0,5.77,1.69,13,13,0,0,1-5.38-2.26,12.32,12.32,0,0,1-2.1-2c-.15-.19-.31-.37-.45-.56l-.21-.29-.2-.3-.1-.15-.09-.16-.19-.3-.17-.32c0-.11-.11-.21-.16-.32a11.29,11.29,0,0,1-1.16-5.58c0-.24,0-.48.06-.72s0-.24,0-.36,0-.24.05-.36.08-.48.14-.72.13-.47.19-.7a13.33,13.33,0,0,1,1.18-2.72,10,10,0,0,0-1.59,2.57,10.34,10.34,0,0,0-.77,3A10.64,10.64,0,0,0,927.31,274.39Z" transform="translate(-738.09 -194.67)"/><path class="cls-1" d="M946.6,298.29a14,14,0,0,0,5.14,1.48,14.29,14.29,0,0,0,5.33-.54,13,13,0,0,0,4.66-2.48,18.74,18.74,0,0,1-4.84,1.8,16.64,16.64,0,0,1-5.07.33,17,17,0,0,1-4.93-1.22,18.94,18.94,0,0,1-4.44-2.64A12.87,12.87,0,0,0,946.6,298.29Z" transform="translate(-738.09 -194.67)"/><path class="cls-1" d="M1003,270.62a13.53,13.53,0,0,1-1,4,15.76,15.76,0,0,1-2.16,3.62,10.18,10.18,0,0,0,2.8-3.31,11.24,11.24,0,0,0,.87-8.58,10.07,10.07,0,0,0-2.07-3.8,15.39,15.39,0,0,1,1.39,4A13.59,13.59,0,0,1,1003,270.62Z" transform="translate(-738.09 -194.67)"/><polygon class="cls-1" points="228.3 27.4 230.35 28.89 230.29 26.36 232.34 24.87 229.91 24.15 229.13 21.74 227.69 23.82 225.16 23.82 226.7 25.83 225.91 28.24 228.3 27.4"/><path class="cls-3" d="M957.8,213.76a4.15,4.15,0,0,0-5.33-2.44,2.07,2.07,0,0,0-.34.15,5.29,5.29,0,0,0-.3-1.34,5.16,5.16,0,0,0-9.58-.22,4.67,4.67,0,0,0-6.62,5.72c0,.12.09.23.14.35h0a4.67,4.67,0,0,0,2.08,9l.06.18a4.11,4.11,0,0,0,5.28,2.42,3.91,3.91,0,0,0,1-.54c2.33,7,3.67,9.65,6,16.69l3.22-.84c-1.27-7.32-1.54-10.2-2.81-17.52a4.28,4.28,0,0,0,4.86-6.34A4.15,4.15,0,0,0,957.8,213.76Z" transform="translate(-738.09 -194.67)"/><path class="cls-1" d="M953.71,243.12a.36.36,0,0,1-.21.15l-3.21.84a.38.38,0,0,1-.45-.24L944,227.63a4.22,4.22,0,0,1-.68.32,4.5,4.5,0,0,1-5.73-2.56,5,5,0,0,1-2.3-9.62h0a5,5,0,0,1,6.79-6.35,5.53,5.53,0,0,1,10.11.59,5,5,0,0,1,.25.94,4.53,4.53,0,0,1,5.72,2.69h0a4.49,4.49,0,0,1-2.17,5.59,3.65,3.65,0,0,1,.18.41,4.7,4.7,0,0,1-.13,3.57,4.63,4.63,0,0,1-2.62,2.43,4.71,4.71,0,0,1-2.35.24l2.71,17A.33.33,0,0,1,953.71,243.12Zm-3.27.18,2.54-.66-2.75-17.19a.39.39,0,0,1,.12-.34.35.35,0,0,1,.35-.08,3.94,3.94,0,0,0,4.65-2.14,4,4,0,0,0,.11-3,4.29,4.29,0,0,0-.31-.65.38.38,0,0,1,0-.31.38.38,0,0,1,.22-.23,3.74,3.74,0,0,0,2.12-4.81h0a3.77,3.77,0,0,0-4.85-2.22l-.31.13a.37.37,0,0,1-.34,0,.37.37,0,0,1-.19-.29,4.77,4.77,0,0,0-2.77-3.93,4.79,4.79,0,0,0-6.4,2.49.38.38,0,0,1-.22.21.39.39,0,0,1-.3,0,4.3,4.3,0,0,0-6.1,5.26c0,.1.08.2.14.32a.39.39,0,0,1-.21.51h0a4.3,4.3,0,0,0,1.92,8.3.36.36,0,0,1,.39.26l.06.16a3.73,3.73,0,0,0,4.8,2.2,3.54,3.54,0,0,0,.92-.49.35.35,0,0,1,.33,0,.37.37,0,0,1,.24.23Zm7.36-29.54Z" transform="translate(-738.09 -194.67)"/><path class="cls-1" d="M937,214.32l-.19.09-.18.12a.66.66,0,0,0-.17.12l-.17.13a3.07,3.07,0,0,0-.57.67,2.84,2.84,0,0,0-.4,1.67,3,3,0,0,0,.56,1.56,5.85,5.85,0,0,1-.07-1.55,3,3,0,0,1,.45-1.35,3.87,3.87,0,0,1,.43-.57,5.28,5.28,0,0,1,.57-.47,12.22,12.22,0,0,1,1.34-.82A3.94,3.94,0,0,0,937,214.32Z" transform="translate(-738.09 -194.67)"/><path class="cls-1" d="M950.4,218.38a3.18,3.18,0,0,1-.65,1.22,2.85,2.85,0,0,1-.51.47,4.22,4.22,0,0,1-.61.39,14.62,14.62,0,0,1-1.43.64,3.47,3.47,0,0,0,1.66-.07l.2-.06.2-.08.2-.09.2-.11a2.87,2.87,0,0,0,.68-.58,2.78,2.78,0,0,0,.67-1.63,2.94,2.94,0,0,0-.36-1.63A7.19,7.19,0,0,1,950.4,218.38Z" transform="translate(-738.09 -194.67)"/><path class="cls-1" d="M947.52,208.79a2.92,2.92,0,0,0-1.94.4,2.55,2.55,0,0,0-1.12,1.53,3.41,3.41,0,0,1,1.36-1.1,2.89,2.89,0,0,1,3.08.48,3.44,3.44,0,0,1,1,1.45,2.52,2.52,0,0,0-.61-1.79A2.85,2.85,0,0,0,947.52,208.79Z" transform="translate(-738.09 -194.67)"/><path class="cls-5" d="M946.81,227.73a.15.15,0,0,0-.11.19l3.75,13.32a.17.17,0,0,0,.2.11.18.18,0,0,0,.08-.07.13.13,0,0,0,0-.12L947,227.84A.15.15,0,0,0,946.81,227.73Z" transform="translate(-738.09 -194.67)"/><path class="cls-5" d="M949.08,226.62a.15.15,0,0,0-.12.18l2.66,14.09a.17.17,0,0,0,.29.06.17.17,0,0,0,0-.12l-2.66-14.09A.15.15,0,0,0,949.08,226.62Z" transform="translate(-738.09 -194.67)"/><path id="偽_拷貝" data-name="偽 拷貝" class="cls-2" d="M968.64,251.19,981,252.53,977.35,260l4.44.6-2.9,7.72,3.59.49c1.93,14.69-3.22,18.52-5.3,20.19l-9.82-7.4a17.06,17.06,0,0,0,2.73.69c2.66.36,7.4-1.48,5.7-9.53l-2.93-.4a47.07,47.07,0,0,1,1.7,5.57l-3.08,1.56c-.56-2.16-.87-3.43-1.8-6.39l2.24-.87-12.53-1.7a54.44,54.44,0,0,1-10,10.39l-4-2.68-1,7.14-8.63-2.48,6.23-23.48a18.42,18.42,0,0,1-2.9,3l-7.29-5.21c8.14-4.45,17.56-15.32,19.52-20l3.2,3.1s1.15.37.32,2a58.2,58.2,0,0,1-3.65,5.8s-2.56,5.84-2.59,6.1L946,273.35c1.72-1,6-2.19,9.92-7.75a42.16,42.16,0,0,0,5.19-10.48l-4.74-.25-1.77-5.63,3.72.54a34.25,34.25,0,0,0-3.91-4.91l4.21-3.22a50.59,50.59,0,0,1,4.74,5.88l-3,2.52,2.3.32a52.36,52.36,0,0,0,1.92-8.77l6.79.77A51.13,51.13,0,0,1,968.64,251.19Zm3.83,5.49-1.07,2.47-5.38-.73c.18-.51.73-1.88,1-2.49Zm2,7.86-1.36,3L962.34,266c.94-1.84,1.23-2.4,1.46-2.95Zm-4,15.36a39.84,39.84,0,0,0-1.67-6.53l-3,1a45.2,45.2,0,0,1,.88,6.85Zm-5.53,2a41.33,41.33,0,0,0,.3-7.38l-3.54.27a38.81,38.81,0,0,1-.51,7.3Zm-4.23-7.3-3.77-.78a29.26,29.26,0,0,1-3.64,8.8l4.17,2.22a33.39,33.39,0,0,0,3.19-8.64,1.34,1.34,0,0,0,.91-.84c.06-.47-.86-.76-.86-.76Z" transform="translate(-738.09 -194.67)"/></svg>