<svg width="126" height="158" viewBox="0 0 126 158" fill="none" xmlns="http://www.w3.org/2000/svg">
<g clip-path="url(#clip0)">
<path fill-rule="evenodd" clip-rule="evenodd" d="M62.9 157.625C74.3 158.375 85 126.75 63.3 126.75C45 126.625 51.2 156.75 62.9 157.625Z" fill="#FAF8C6"/>
<path d="M62.5 157.875C67.5 158.125 71.8 153.75 74.3 148.625C76.7 143.625 78 136.375 74.9 131.375C73.2 128.625 70.5 127.25 67.8 126.625C64.5 125.875 60.8 126 57.6 127.625C52.4 130.125 50.3 136.625 51.3 143.25C52.3 150.25 56.4 157.375 62.5 157.875C62.8 157.875 64.1 157.25 63.4 157.125C54.2 156.375 48.5 137.625 55.6 129.75C58 127.125 61.2 126.75 64.3 126.875C67.1 127.125 70.1 127.875 72.3 130.25C75.8 134 75.7 140.375 74.1 145.5C72.4 150.75 68.5 157.375 63.4 157C63.1 157.25 61.8 157.875 62.5 157.875Z" fill="#483A35"/>
<path fill-rule="evenodd" clip-rule="evenodd" d="M61.1 -51.375C60.8 -7 61 80.5 61 123.25H63.8C63.8 86.75 63.7 -23.375 63.7 -51.5H61.1V-51.375Z" fill="#8B613E"/>
<path d="M60.4 -51.25C60.3 -29.125 60.3 -6.875 60.2 15.25C60.2 40 60.2 64.875 60.2 89.625C60.2 100.875 60.2 112.125 60.2 123.375C60.2 123.75 60.4 123.875 60.7 123.875C61.6 123.875 62.6 123.875 63.5 123.875C63.8 123.875 64.5 123.75 64.5 123.125C64.5 113.625 64.5 104.125 64.5 94.625C64.5 81.75 64.5 68.875 64.5 56C64.5 42.25 64.5 28.375 64.5 14.625C64.5 2.125 64.5 -10.375 64.5 -22.875C64.5 -31.625 64.5 -40.5 64.5 -49.25C64.5 -50 64.5 -50.75 64.5 -51.5C64.5 -51.75 64.2 -52 64 -52C63.1 -52 62.2 -52 61.4 -52C60.8 -52 59.9 -50.75 60.9 -50.75C61.8 -50.75 62.7 -50.75 63.5 -50.75C63.3 -50.875 63.2 -51.125 63 -51.25C63 -43 63 -34.875 63 -26.625C63 -14.5 63 -2.25 63 9.875C63 23.625 63 37.375 63 51.125C63 64.25 63 77.375 63 90.5C63 100.5 63 110.625 63 120.625C63 121.625 63 122.5 63 123.5C63.3 123.25 63.7 123 64 122.75C63.1 122.75 62.1 122.75 61.2 122.75C61.4 122.875 61.5 123.125 61.7 123.25C61.7 101.5 61.6 79.625 61.6 57.875C61.6 33 61.6 8.125 61.6 -16.875C61.6 -28.375 61.7 -39.875 61.7 -51.375C61.8 -52.375 60.4 -52 60.4 -51.25Z" fill="#483A35"/>
<path fill-rule="evenodd" clip-rule="evenodd" d="M72.5 37.875C72.3 63.125 74 98.625 90.6 100.625C108.9 102.75 123.7 124.875 124.4 145.25C124.5 146.875 0.7 147.125 0.8 145.375C1.5 125 16.3 102.875 34.6 100.75C51.2 98.75 52.9 63.25 52.7 38H72.5V37.875Z" fill="#F5B635"/>
<path d="M71.8 38.125C71.7 47.75 71.9 57.375 72.9 66.875C73.8 75.25 75.2 84.125 78.8 91.5C80.2 94.5 82.1 97.125 84.5 98.875C87.3 101 90.3 101 93.4 101.75C101.7 103.875 109.1 110 114.5 118C117.2 122 119.4 126.375 121 131.125C121.8 133.375 122.4 135.75 122.8 138.125C123 139.25 123.2 140.375 123.3 141.5C123.4 142 123.4 142.625 123.5 143.125C123.5 143.625 123.4 144.75 123.6 145.125C123.8 145.5 123.5 145.25 123.9 145.125L124.2 145C124.1 145.125 124.3 145 124.1 145C123.9 145 123.6 145.125 123.4 145.125C122.6 145.25 121.9 145.25 121 145.25C113.8 145.625 106.5 145.75 99.2 145.875C88.3 146 77.5 146.125 66.6 146.125C55.3 146.125 44.1 146.125 32.8 146C24.5 145.875 16.2 145.875 8 145.5C6 145.375 3.9 145.375 2.1 145.125C1.9 145.125 1.7 145.125 1.5 145C1.5 145 1.6 145.125 1.5 145C1.7 145.25 1.6 144.375 1.6 144C1.9 139.125 2.9 134.5 4.5 130C7.9 120.5 13.7 112.125 21 106.75C24.7 104 28.8 102.125 33.1 101.375C36 100.875 38.7 100.375 41.3 98.25C46.4 94 48.9 86.5 50.4 79.375C52.4 70.125 53.1 60.5 53.3 51C53.4 46.5 53.4 42 53.4 37.625C53.1 37.875 52.7 38.125 52.4 38.375C59 38.375 65.6 38.375 72.3 38.375C72.8 38.375 73.8 37.375 72.9 37.375C66.3 37.375 59.7 37.375 53 37.375C52.7 37.375 52 37.625 52 38.125C52.1 48 51.9 57.75 50.9 67.5C50 76 48.5 85.375 44.5 92.5C42.8 95.375 40.7 98 38 99.25C36.4 100 34.7 100.125 33.1 100.375C31.1 100.75 29.2 101.375 27.3 102.125C19.5 105.375 12.8 112 7.9 120.125C5.5 124.125 3.5 128.625 2.2 133.25C1.5 135.625 1 138 0.7 140.5C0.5 141.625 0.4 142.75 0.4 143.875C0.4 144.25 0.2 145.125 0.4 145.5C0.6 145.875 1.2 145.75 1.5 145.875C2.3 146 3.2 146 4 146.125C11.2 146.625 18.4 146.625 25.6 146.75C36.6 146.875 47.7 147 58.7 146.875C70.1 146.875 81.6 146.875 93 146.625C101.3 146.5 109.7 146.375 118 146.125C119.9 146 121.9 146 123.9 145.75C124.4 145.625 125.1 145.625 125.4 145C125.6 144.5 125.4 143.375 125.3 142.75C125.2 141.5 125.1 140.375 124.9 139.125C124.5 136.625 124 134.25 123.2 131.875C120.3 122.375 114.9 113.875 108.3 108C105 105 101.3 102.75 97.4 101.375C95.4 100.625 93.3 100.25 91.3 99.875C89.9 99.625 88.5 99.25 87.2 98.5C81.5 95.25 78.6 87.25 76.9 80.125C74.7 70.875 74 61 73.7 51.375C73.6 46.75 73.5 42.125 73.6 37.5C73.2 37.125 71.8 37.375 71.8 38.125Z" fill="#483A35"/>
<path fill-rule="evenodd" clip-rule="evenodd" d="M72.7 42.5C67.4 42.125 56.9 42.375 51.8 42.375V45.875C56.2 45.875 69.3 45.75 72.7 45.75V42.5Z" fill="white"/>
<path fill-rule="evenodd" clip-rule="evenodd" d="M121.4 138.5C91.3 138.125 32 138.25 2.9 138.375V141.875C27.7 141.875 102.4 141.875 121.4 141.75V138.5Z" fill="white"/>
</g>
<defs>
<clipPath id="clip0">
<rect width="125.2" height="209.875" fill="white" transform="translate(0 -52)"/>
</clipPath>
</defs>
</svg>
