<svg width="756" height="138" viewBox="0 0 756 138" fill="none" xmlns="http://www.w3.org/2000/svg">
<g clip-path="url(#clip0)">
<path d="M755.2 68.9C755.2 71.2 754.6 73.5 753.3 75.8L753.2 75.9C752.8 76.7 752.3 77.5 751.7 78.2C751.1 79 750.4 79.8 749.6 80.6C749.3 80.9 749 81.2 748.7 81.5C748.4 81.8 748.1 82.1 747.7 82.4C747 83 746.3 83.6 745.6 84.2C744.9 84.8 744.1 85.4 743.3 86C741.6 87.2 739.8 88.3 737.8 89.5C736.3 90.4 734.7 91.2 733.1 92.1C731.4 93 729.7 93.8 727.8 94.6C727.2 94.9 726.6 95.1 725.9 95.4C724.6 95.9 723.3 96.5 722 97C721.3 97.3 720.6 97.5 720 97.8C718.5 98.4 717.1 98.9 715.7 99.4C714.3 99.9 712.8 100.4 711.3 101C710.3 101.4 709.2 101.7 708.2 102C705 103 701.8 104.1 698.3 105.1C697.2 105.4 696 105.8 694.8 106.1C694.3 106.2 693.8 106.4 693.2 106.5C691.4 107 689.5 107.5 687.5 108C679 110.2 669.9 112.3 660.1 114.3C659.1 114.5 658.1 114.7 657.1 114.9C655.1 115.3 653 115.7 651 116.1C650.8 116.1 650.6 116.2 650.5 116.2C647.6 116.7 644.7 117.3 641.7 117.8C638.4 118.4 635 119 631.6 119.5C627.1 120.2 622.6 121 617.9 121.7C617.8 121.7 617.8 121.7 617.7 121.7C611 122.7 604.2 123.7 597.2 124.6C593.7 125.1 590.1 125.5 586.5 125.9C582.9 126.3 579.2 126.8 575.6 127.2C573.8 127.4 572.1 127.6 570.3 127.8C560.9 128.8 551.3 129.8 541.4 130.6C537.5 131 533.5 131.3 529.5 131.6C529.1 131.6 528.7 131.6 528.3 131.6C526.3 131.6 524.3 131.2 522.2 130.7C521.5 130.5 520.8 130.3 520 130.1C516.6 129 513.2 127.6 509.8 126.7C509.7 126.7 509.6 126.6 509.5 126.6C506 125.5 502.6 124.7 499.6 124.9C491.7 125.4 487.1 133.2 479.5 134.7C479 134.8 478.4 134.9 477.9 134.9C477.8 134.9 477.7 134.9 477.6 134.9C469.3 135.3 461 135.7 452.5 136C448.9 136.1 445.2 136.2 441.5 136.4C441.2 136.4 440.9 136.4 440.6 136.4C436.7 136.5 432.8 136.6 428.8 136.7C424.7 136.8 420.7 136.9 416.5 137C412.2 137.1 407.9 137.1 403.6 137.2C399.4 137.3 395.1 137.3 390.8 137.3C386.5 137.3 382.2 137.3 377.9 137.3C362.1 137.3 346.5 137.1 331.2 136.8C328.2 136.7 325.2 136.7 322.2 136.6C321.6 136.6 321.1 136.6 320.5 136.6C315.8 136.5 311.1 136.3 306.5 136.2C302.7 136.1 298.8 135.9 295 135.8C293 135.7 290.9 135.6 288.9 135.6C287.1 135.5 285.4 135.4 283.6 135.4C280.6 135.3 277.6 135.1 274.6 135C269.7 134.8 264.9 134.5 260.1 134.2C257.2 134 254.4 133.8 251.6 133.7C248.8 133.5 246 133.3 243.2 133.1C241.9 133 240.6 132.9 239.4 132.8C237 132.6 234.6 132.5 232.2 132.3C230.4 132.2 228.5 132 226.7 131.9C224.1 131.7 221.4 131.5 218.8 131.3C208 130.4 197.4 129.4 187.1 128.3C184.6 128 182 127.8 179.5 127.5C176.3 127.1 173.2 126.8 170.1 126.4C168.3 126.2 166.5 126 164.7 125.7C162.3 125.4 160 125.1 157.7 124.8C155.2 124.5 152.8 124.1 150.4 123.8C146.2 123.2 142 122.6 137.9 122C137.4 121.9 137 121.9 136.5 121.8C134.2 121.4 132 121.1 129.8 120.8C120.9 119.4 112.5 117.9 104.4 116.4C102.4 116 100.5 115.6 98.6 115.3C96.6 114.9 94.6 114.5 92.6 114.1C86.8 112.9 81.3 111.6 76 110.4C75.1 110.2 74.2 110 73.4 109.8C71.7 109.4 69.9 108.9 68.3 108.5C68.1 108.4 67.8 108.4 67.6 108.3C66.1 107.9 64.7 107.5 63.3 107.1C62.2 106.8 61.1 106.5 60 106.2C57.5 105.5 55.2 104.8 52.8 104.1C52.4 104 51.9 103.8 51.5 103.7C48.5 102.8 45.7 101.9 42.9 100.9C39.7 99.8 36.6 98.7 33.8 97.5C33.6 97.4 33.4 97.3 33.2 97.3C31.4 96.6 29.6 95.8 27.9 95.1C26.8 94.6 25.7 94.1 24.6 93.6C22.5 92.6 20.5 91.6 18.7 90.6C18.2 90.3 17.7 90 17.3 89.8C15.9 89 14.7 88.2 13.5 87.5C10.7 85.6 8.4 83.7 6.5 81.8C6.3 81.6 6 81.3 5.8 81.1C5.5 80.8 5.3 80.5 5 80.2C4.8 79.9 4.5 79.6 4.3 79.4C3.9 78.8 3.5 78.3 3.1 77.7C2.9 77.5 2.8 77.2 2.6 77C2.4 76.7 2.2 76.4 2.1 76C2 75.7 1.8 75.5 1.7 75.2C1.6 74.9 1.4 74.6 1.3 74.3C1.2 74 1.1 73.7 0.999997 73.4C0.899997 73.1 0.799997 72.8 0.799997 72.6C0.899997 71 0.699997 70 0.699997 68.9C0.699997 31 169.6 0.299999 378 0.299999C586.3 0.299999 755.2 31 755.2 68.9Z" fill="#0092A9"/>
<path d="M754.5 69.1C754.1 77.1 747.5 82.9 741.3 87C734.6 91.4 727.3 94.7 719.8 97.6C706.4 102.8 692.4 106.7 678.4 110C648.2 117.2 617.5 121.9 586.7 125.7C569.8 127.8 552.8 129.4 535.8 130.9C531.3 131.3 527.2 131.7 522.8 130.5C519 129.5 515.4 128 511.7 126.9C506.8 125.4 501.6 123.8 496.5 125.4C491 127.1 487.1 131.8 481.8 133.8C477.9 135.3 473.3 134.9 469.2 135.1C464.8 135.3 460.3 135.5 455.9 135.7C439.8 136.3 423.8 136.7 407.7 136.9C342.2 137.7 276.6 135.9 211.4 130C179.3 127.1 147.3 123.3 115.5 117.7C85.6 112.4 54.4 106.3 26.8 93.3C17 88.8 0.599993 80.7 1.49999 67.9C1.69999 64.3 3.59999 61 5.89999 58.3C13 49.9 24.2 45 34.3 40.9C50.6 34.4 67.6 29.9 84.7 26C107.5 20.9 130.6 17.1 153.8 14C213 6 272.8 2.4 332.5 1.1C397.7 -0.3 463 1.1 527.9 6.3C577.9 10.3 628.3 15.9 677.2 27.6C693.5 31.5 709.7 36 725.1 42.6C734.4 46.6 745.1 51.6 751.2 60C753.1 62.7 754.4 65.8 754.5 69.1C754.5 69.4 756 69.2 755.9 68.7C755.8 60.5 748.5 54.4 742.3 50.3C730.7 42.6 717.1 37.9 703.8 33.8C659.3 20.1 612.2 13.8 566 9C502 2.4 437.5 -0.2 373.1 6.79865e-08C309.3 0.2 245.4 3 182 10C137.3 15 91.7 21.2 48.8 35.1C36.2 39.2 23.2 43.9 12.3 51.6C5.99999 56 -1.20001 62.7 0.199993 71.2C1.19999 77.3 6.19999 82 11 85.6C16.5 89.7 22.7 92.8 29 95.6C42.9 101.7 57.7 105.9 72.4 109.6C103.9 117.5 136.2 122.5 168.5 126.4C234.2 134.3 300.5 137.5 366.7 137.9C400.7 138.1 434.7 137.5 468.6 135.9C474.2 135.6 479.8 136 484.9 133.2C487.2 131.9 489.3 130.3 491.5 128.8C496.8 125.2 501.8 125 507.8 126.7C514.2 128.5 520.7 131.9 527.5 132.1C535.7 132.4 544.2 130.9 552.4 130.1C584.5 127.1 616.5 123 648.2 117.1C676.1 111.9 704.9 105.9 730.7 93.7C740.7 89 755.6 81.4 756.2 68.7C755.9 68.4 754.5 68.6 754.5 69.1Z" fill="#483A35"/>
<path d="M377.3 122.3C277.1 122.3 183.1 115.2 112.4 102.4C28.8 87.2 10.4 69.6 10.4 64.1C10.4 58.6 28.7 41 112.4 25.8C183 13 277.1 5.9 377.3 5.9C477.5 5.9 571.5 13 642.2 25.8C725.8 41 744.2 58.6 744.2 64.1C744.2 69.6 725.9 87.2 642.2 102.4C608.2 108.6 568.8 113.4 526 116.8C518.3 117.4 505 108 497.1 108.6C487.7 109.2 483.7 119.6 474 120.1C442.8 121.5 410.4 122.3 377.3 122.3Z" fill="#FCE7D6"/>
<path d="M377 122.1C310 122.1 242.8 119.2 176.2 111.5C147 108.1 117.9 103.8 89.2 97.6C68.3 92.9 46.7 87.7 27.4 78C23 75.8 18.5 73.3 14.8 70C13.3 68.6 11.1 66.7 11 64.5C10.5 59.1 20.3 54.2 23.9 52.2C40.7 42.8 60 37.7 78.6 33.2C106.8 26.4 135.6 21.8 164.4 18.2C229.8 9.9 295.8 6.7 361.7 6.2C429.4 5.7 497.2 8.1 564.6 15.2C593.4 18.2 622.2 22.1 650.7 27.6C674.7 32.3 699.2 37.7 721.7 47.5C727.1 49.8 732.4 52.5 737.2 55.9C739.5 57.5 742.2 59.6 743.4 62.3C745.5 66.9 738.3 71.4 735.2 73.4C721.1 82.7 703.9 87.6 687.8 92C658.5 99.9 628.4 104.9 598.3 108.9C581.3 111.2 564.3 113 547.3 114.6C543.1 115 538.8 115.4 534.6 115.7C530.7 116 526.4 116.9 522.5 116.1C516.3 114.8 510.7 111.5 504.7 109.5C500.8 108.2 496.9 107.6 493 109.1C488 111 484.5 115.5 479.8 118C476.3 119.9 472.4 119.7 468.5 119.9C464.1 120.1 459.7 120.3 455.3 120.4C446.6 120.7 437.9 121 429.2 121.2C411.7 121.8 394.4 122 377 122.1C376.4 122.1 377.1 122.5 377.4 122.5C395.9 122.5 414.4 122.3 432.9 121.8C441.8 121.6 450.7 121.3 459.6 120.9C466.1 120.6 474.3 121.7 480.3 118.5C485.2 116 488.7 111.2 493.9 109.4C500.9 107 508.6 111.8 514.9 114.3C519.7 116.2 523.8 117.1 528.9 116.7C537.9 116 546.8 115.2 555.8 114.3C588.3 111.1 620.7 106.9 652.8 100.6C676.3 96 700.4 90.6 722.4 80.8C727.7 78.5 732.9 75.9 737.6 72.5C739.9 70.8 742.6 68.8 743.9 66.1C746.1 61.7 740.3 57.6 737.2 55.4C724.7 46.5 709.1 41.7 694.6 37.5C666.6 29.3 637.7 24.3 608.8 20.1C543.9 10.9 478.1 7.1 412.4 6C342.5 4.8 272.5 6.8 202.9 13.5C173.9 16.3 144.9 19.9 116.1 24.9C90.2 29.5 63.9 34.9 39.2 44.4C32.6 46.9 26.1 49.8 20.1 53.5C17 55.4 13.7 57.6 11.5 60.5C8.4 64.5 11 67.6 14.4 70.6C24.3 79.1 37.9 83.7 50 87.6C76.7 96.4 104.6 101.6 132.3 106C196.2 116.1 261 120.3 325.7 121.9C342.9 122.3 360.2 122.5 377.4 122.5C378.1 122.5 377.3 122.1 377 122.1Z" fill="#483A35"/>
<g opacity="0.5">
<path opacity="0.5" d="M490.9 79L497.4 98.4L499.1 119.7L527.4 130L511.8 87.8L492.1 75L490.9 79Z" fill="#F3D9B4"/>
</g>
<path d="M640.7 61.6C640.7 74.2 590.1 85.3 512.8 91.3H512.7C506.2 91.8 498.5 80.7 491.6 81.2C487.7 81.4 481 90.8 476.4 93.1C475.8 93.4 475.2 93.6 474.7 93.6C444.1 95.2 414.1 95.7 379 95.7C234.5 95.7 117.3 80.4 117.3 61.6C117.3 42.8 239 27.2 383.5 27.2C528 27.2 640.7 42.8 640.7 61.6Z" fill="#0092A9"/>
<path d="M640.2 61.6C640.1 64.6 637.5 66.8 635.1 68.4C630.8 71.3 625.8 73.1 620.9 74.6C604.1 80 586.5 82.8 569.1 85.2C557.2 86.9 545.2 88.2 533.1 89.3C526.5 89.9 519.8 90.7 513.2 91C508.3 91.2 504.5 87.4 500.8 84.7C498.3 82.9 495.3 80.9 492.1 80.9C489.2 80.9 486.8 83.4 484.9 85.3C483.3 86.8 481.7 88.4 480.1 90C477.8 92.1 476.1 93.2 472.9 93.5C466.9 94.1 460.8 94.1 454.8 94.3C402.7 96.3 350.5 96 298.4 93.8C256.6 92 214.5 89.3 173.2 82.4C160.3 80.3 147.3 77.8 135 73.6C131.1 72.3 127.1 70.7 123.5 68.5C121.5 67.2 119.1 65.6 118.2 63.2C116.2 57.8 123.9 54.2 127.6 52.5C138.1 47.7 149.9 45.2 161.2 43C200.2 35.3 240.2 32.3 279.8 30C332.6 27 385.5 26.4 438.3 28C482.3 29.3 526.5 31.8 570.2 37.9C584.8 40 599.3 42.4 613.6 46.2C621.5 48.3 630.9 50.7 637.2 56.1C638.7 57.6 640.2 59.4 640.2 61.6C640.2 61.9 641.2 61.9 641.2 61.7C641.1 56.3 633.6 53.1 629.5 51.3C619 46.7 607.5 44.3 596.3 42.1C557.1 34.4 516.8 31.4 477 29.3C423.4 26.5 369.6 26.3 316 28.1C271.2 29.7 226.2 32.4 181.8 39.1C167.5 41.3 153 43.7 139.1 47.8C134.6 49.1 130 50.6 125.7 52.7C123 54 120.1 55.5 118.2 57.9C108.8 69.3 143.8 76.9 148.8 78.1C164.5 81.8 180.5 84.2 196.4 86.3C217.5 89 238.6 90.8 259.8 92.2C312.3 95.7 365.1 96.4 417.7 95.7C430.3 95.5 443 95.2 455.6 94.7C461.9 94.5 468.4 94.7 474.6 93.8C478 93.4 480.8 90.1 483.1 87.8C484.8 86.2 486.4 84.5 488.3 83C490.8 81.1 493.1 81 495.9 82.4C499.9 84.4 503 87.6 506.9 89.8C510.8 92 514.5 91.3 518.9 90.9C525.2 90.4 531.4 89.8 537.6 89.2C559.3 87 581.1 84.4 602.5 79.8C609.6 78.3 616.8 76.5 623.7 74.1C628.2 72.5 632.9 70.7 636.8 67.9C638.9 66.4 641 64.3 641.1 61.6C641.2 61.4 640.2 61.3 640.2 61.6Z" fill="#483A35"/>
<path d="M512.8 91.3H512.7C506.2 91.8 498.5 80.7 491.6 81.2C491.6 81.2 488.3 65.3 465.5 62.1C465.4 62.1 504.1 65.7 512.8 91.3Z" fill="#184E58"/>
<g opacity="0.35">
<path opacity="0.35" d="M476.4 93.1C478.1 90.5 484.3 78.3 465.5 62.1C465.5 62.1 485.1 63.5 491.6 81.2C487.7 81.4 481 90.8 476.4 93.1Z" fill="white"/>
<g opacity="0.35">
<path opacity="0.35" d="M476.8 93.1C478.2 91 478.9 88.5 479.1 85.9C479.5 80.9 477.7 76.1 475 72C472.5 68.2 469.3 64.9 465.9 61.9C465.7 62 465.4 62.1 465.2 62.2C467.5 62.4 469.9 63 472.1 63.7C477 65.3 481.7 67.9 485.3 71.7C487.9 74.4 489.8 77.6 491.1 81.1C491.3 81 491.4 80.9 491.6 80.9C489.4 81.1 487.5 82.9 486 84.2C483.8 86.2 481.8 88.4 479.5 90.4C478.4 91.3 477.3 92.3 476.1 92.9C475.9 93 476 93.1 476.1 93.2C476.3 93.3 476.6 93.2 476.8 93.1C479 92 480.9 90.1 482.7 88.3C484.7 86.4 486.6 84.3 488.8 82.7C489.6 82.1 490.6 81.3 491.7 81.3C491.8 81.3 492.2 81.2 492.2 81.1C490 75.2 485.9 70.2 480.5 66.9C476.8 64.6 472.6 63.1 468.3 62.3C467.5 62.1 466.6 62 465.7 61.9C465.6 61.9 464.8 62 465 62.2C470.2 66.7 475.3 72.2 477.4 79C478.5 82.6 478.7 86.5 477.4 90.1C477 91.2 476.5 92.2 475.9 93.1C475.7 93.3 476.7 93.4 476.8 93.1Z" fill="#040000"/>
</g>
</g>
</g>
<defs>
<clipPath id="clip0">
<rect width="755.9" height="137.8" fill="white"/>
</clipPath>
</defs>
</svg>
