<svg id="ewotqpOeNCc1" xmlns="http://www.w3.org/2000/svg" xmlns:xlink="http://www.w3.org/1999/xlink" viewBox="0 0 268 183" shape-rendering="geometricPrecision" text-rendering="geometricPrecision" width="268" height="183"><g id="ewotqpOeNCc2" clip-path="url(#ewotqpOeNCc40)"><g id="ewotqpOeNCc3" transform="matrix(1 0 0 1 0 -0.07075499999999)"><g id="ewotqpOeNCc4"><path id="ewotqpOeNCc5" d="M152.100000,78.100000C146.900000,75.200000,139.100000,75.900000,133.500000,76.200000C130.800000,76.300000,128.500000,76.500000,127.200000,76.200000C125.700000,75.900000,125.200000,74.500000,124.500000,72.200000C123.600000,69.200000,122.700000,65.200000,117.700000,64.500000C115.800000,64.200000,114.200000,64.400000,112.800000,64.800000C112.800000,64.800000,109.600000,65.900000,108.600000,67.900000C107.600000,69.900000,108.400000,72.300000,110,73.100000C111.600000,73.900000,113.600000,73.900000,113.600000,73.900000C113.600000,73.900000,114.600000,77.900000,112.600000,80.900000C112.600000,80.900000,110.600000,82.900000,111.600000,85.900000C111.600000,85.900000,112.600000,87.900000,113.900000,88.500000C115.900000,89.400000,121,86.600000,122.800000,86.700000C124.600000,86.900000,138.200000,87,141.900000,89.900000C141.900000,89.900000,148.300000,91.900000,148.900000,94.400000C149.600000,96.800000,159,89.900000,159,89.900000C159,89.900000,159.600000,80.300000,152.100000,78.100000Z" fill="rgb(72,58,53)" stroke="none" stroke-width="1" stroke-miterlimit="1"/><path id="ewotqpOeNCc6" d="M121.400000,85.400000C124,85.300000,138.600000,84,150.600000,93C154.300000,90.600000,153.900000,87.300000,155.300000,86.700000C154.700000,85.500000,157.400000,87.400000,156.600000,85C153.600000,77,139.500000,77.300000,133.900000,77.600000C131.100000,77.700000,128.800000,77.900000,127.200000,77.600000C124.700000,77.100000,124,74.800000,123.300000,72.500000C122.400000,69.700000,121.500000,66.800000,117.500000,66.200000C113.300000,65.600000,110.800000,67.400000,110.200000,69.400000C110,70.300000,110,71.400000,111.100000,71.900000C113.800000,73.100000,116.900000,69.700000,117,69.600000C117,69.600000,116.400000,70.900000,115.300000,72C115.500000,73.100000,115.600000,74.200000,115.600000,75.300000C116.300000,76.400000,117.800000,78.200000,121.200000,79.100000C121.200000,79.100000,118.800000,79.800000,115.500000,77C115.400000,78.400000,115.100000,79.800000,114.600000,81.200000C114.600000,81.200000,112.400000,85.700000,114.600000,86.900000C116.600000,87.900000,121.400000,85.400000,121.400000,85.400000Z" fill="rgb(218,147,0)" stroke="none" stroke-width="1" stroke-miterlimit="1"/></g><g id="ewotqpOeNCc7" transform="matrix(0.94318026714316 0 0 0.96081218327772 6.57858961912819 3.08159656300653)"><path id="ewotqpOeNCc8" d="M114.200000,82.300000C117.600000,72.900000,113.100000,64.800000,113.100000,64.800000C106.600000,52.100000,89.800000,39.900000,68.800000,32.900000C37.600000,22.400000,6.800000,26.900000,0.999998,43C-0.700002,47.700000,-0.200002,53.100000,2.500000,58.600000C8.700000,71.600000,25.800000,84.100000,47,91.200000C64.800000,97.200000,83.900000,98.600000,97.200000,94.800000C103.600000,92.900000,111.400000,89.900000,114.200000,82.300000Z" fill="rgb(72,58,53)" stroke="none" stroke-width="1" stroke-miterlimit="1"/><path id="ewotqpOeNCc9" d="M114,73.100000C114.300000,75.700000,114.100000,78.200000,113.200000,80.600000C112.400000,82.900000,110.900000,85,109,86.900000C109,86.900000,102.700000,91.900000,96.100000,93.500000C83.200000,97,65.300000,95.600000,48.100000,89.800000C27.300000,82.700000,10.600000,70.600000,4.600040,58C2.100040,52.800000,1.600040,48,3.200040,43.600000C8.700040,28.400000,37.900000,24.200000,68.300000,34.400000C88.800000,41.300000,105.300000,53.100000,111.600000,65.400000C111.600000,65.500000,113.600000,68.900000,114,73.100000Z" fill="rgb(177,219,203)" stroke="none" stroke-width="1" stroke-miterlimit="1"/><path id="ewotqpOeNCc10" d="M101.800000,71.400000C103.100000,68.200000,102.800000,64.800000,101,61.100000C96.500000,51.900000,83.500000,43.100000,67,38.100000C43.400000,30.900000,20.700000,34,16.300000,45.200000C15,48.400000,15.300000,51.800000,17.100000,55.500000C21.600000,64.700000,34.600000,73.500000,51.100000,78.500000C74.600000,85.700000,97.400000,82.500000,101.800000,71.400000Z" fill="rgb(72,58,53)" stroke="none" stroke-width="1" stroke-miterlimit="1"/><path id="ewotqpOeNCc11" d="M51.500000,77.400000C35.800000,72.500000,22.900000,63.700000,18.600000,54.900000C17,51.500000,16.700000,48.400000,17.800000,45.500000C21.900000,34.900000,43.800000,32.100000,66.500000,39.100000C82.300000,44,95.200000,52.900000,99.400000,61.600000C101,65,101.300000,68.100000,100.200000,71C96.100000,81.600000,74.200000,84.500000,51.500000,77.400000Z" transform="matrix(1 0 0 1 0.52423859000001 -0.43307877000000)" fill="rgb(177,219,203)" stroke="none" stroke-width="1" stroke-miterlimit="1"/></g><g id="ewotqpOeNCc12" transform="matrix(0.99998490904584 -0.00549378563308 0.00549378563308 0.99998490904584 -0.95472205536876 0.63825831611032)"><path id="ewotqpOeNCc13" d="M137.100000,101C133.700000,106,130,109.700000,130,109.700000C128.400000,112.800000,127.200000,116.300000,126.400000,120.100000C125.800000,123,125.500000,125.700000,125.400000,128.200000C121.800000,128.100000,119,128.900000,116.800000,129.900000C118.200000,127.800000,120.100000,123.900000,117.600000,121.100000C115.300000,118.500000,112.800000,119.400000,111.100000,120.300000C110.600000,119.900000,110,119.700000,109.400000,119.600000C107.800000,119.400000,106.500000,119.700000,105.400000,120.600000C103.800000,122,103,124.900000,103.100000,128.600000C103.100000,130.200000,102.300000,132.300000,101.500000,134.500000C99.900000,138.700000,98.100000,143.500000,101.600000,146.300000C103.700000,148,106.500000,147.400000,110.100000,146.700000C115.200000,145.600000,123.500000,145.600000,132.100000,150.400000C133.400000,152.100000,134.700000,153.400000,135.700000,154.200000C133.800000,155.700000,132,157.800000,130.300000,160.500000C130.500000,156.700000,129.400000,154.400000,128.300000,153.400000C127,152.200000,125.100000,151.800000,122.900000,152.300000C122.700000,152.300000,122.500000,152.400000,122.300000,152.500000C121.800000,151.700000,121,150.900000,119.900000,150.700000C118.300000,150.400000,115.900000,151,114.700000,153.700000C113.500000,156.200000,113.800000,158.500000,114.300000,160.200000C113.400000,163.300000,109,180,115.900000,182.200000C119.400000,183.300000,123.400000,181.800000,128.900000,179.700000C134.700000,177.600000,143.400000,175.600000,153.100000,174.600000C167.400000,173.100000,176,171.600000,180.700000,165.500000C183.800000,165.800000,191.400000,166.400000,200.400000,165.600000C206,165.100000,219.700000,163.700000,223.400000,167.500000C224.200000,168.300000,224.500000,169.200000,224.300000,170.400000C224.200000,171.700000,223.500000,172.800000,222.400000,173.600000C216.300000,178.100000,198.200000,174.900000,198,174.900000C198,174.900000,208.700000,178,216.700000,177.100000C216.800000,177.100000,216.900000,177.100000,217,177.100000C220.400000,176.800000,225.200000,175.400000,227.500000,172.500000C228.800000,170.900000,229.200000,169,228.700000,166.800000C226.900000,159.100000,211,159.400000,199.400000,159.700000C191,159.900000,186,159.100000,183.800000,158.500000C183.900000,158.100000,184,157.600000,184.100000,157.100000C186.800000,144.800000,175.900000,137.400000,174.100000,136.200000C173.500000,127.100000,176.900000,114.100000,178.800000,107.700000L179.300000,106.100000C184.500000,107.600000,189,108,192.900000,107.700000C203.900000,127.100000,219,138.700000,237.200000,137.200000C250.300000,136.100000,262.800000,127.700000,266.200000,118.400000C271,105,262.800000,100.900000,250.300000,94.700000L245.100000,92.100000C237.800000,88.400000,232.200000,84.700000,228.400000,81.800000C230.700000,78.200000,231.600000,73.700000,232.100000,69.700000C235.400000,68.300000,252.400000,60.900000,252,54.700000C251.700000,50.600000,244.600000,48.800000,238.900000,48C242.200000,38,241.400000,29.600000,241.400000,29.600000C240,39.300000,236.600000,44.800000,234.300000,47.500000C233.500000,47.400000,232.800000,47.400000,232.400000,47.400000C232.500000,30.400000,219.900000,19.900000,219.900000,19.900000C226.100000,29.900000,227.400000,40,227.600000,45.100000C226.100000,42.100000,220.700000,35.200000,211.600000,31.500000C212,31.400000,212.300000,31.300000,212.700000,31.300000C212.700000,31.300000,212,31.200000,211,31.300000C208.500000,30.300000,205.800000,29.600000,202.800000,29.300000C203.300000,29,203.900000,28.600000,204.600000,28.300000C204.600000,28.300000,203.300000,28.500000,202,29.200000C201.100000,29.100000,200.300000,29.100000,199.400000,29.100000C185.300000,29,176,38.300000,172.900000,42C172.900000,39.300000,172.300000,36.500000,170.400000,35.200000C169.700000,34.700000,168.800000,34.600000,167.800000,34.700000C165.800000,33.400000,161.300000,33.500000,158.700000,35.200000C155.300000,37.500000,151,42.700000,149.700000,54.800000C148.800000,63.900000,150.300000,72,152.100000,78C152.100000,78,153.100000,84.200000,155.300000,86.500000C155.400000,86.600000,142.500000,93,137.100000,101Z" fill="rgb(72,58,53)" stroke="none" stroke-width="1" stroke-miterlimit="1"/><path id="ewotqpOeNCc14" d="M172.700000,45.700000C173.900000,44.700000,178.900000,40.300000,185.800000,37.500000C185.800000,37.600000,185.800000,37.700000,185.900000,37.800000C187.100000,40.100000,200.200000,37,198.800000,35C200.300000,35.100000,201.200000,35.500000,201.400000,35.900000L201.400000,36.100000C201.100000,37,198.700000,38.900000,192.300000,41.200000C179.100000,46,174,46.200000,172.700000,46.300000C172.600000,46.200000,172.700000,46,172.700000,45.700000Z" fill="rgb(255,255,255)" stroke="none" stroke-width="1" stroke-miterlimit="1"/><path id="ewotqpOeNCc15" d="M201.700000,35.500000C201.500000,35,201,34.600000,200.300000,34.300000C200.200000,33.800000,200.100000,32.600000,200.800000,31.400000C203,31.500000,205,31.800000,206.900000,32.200000C205.200000,32.800000,203.400000,33.800000,201.700000,35.500000Z" fill="rgb(218,147,0)" stroke="none" stroke-width="1" stroke-miterlimit="1"/><path id="ewotqpOeNCc16" d="M199.700000,31.300000C199.800000,31.300000,199.800000,31.300000,199.700000,31.300000C199.400000,32,199.200000,32.900000,199.400000,34C197.400000,33.500000,194.200000,33.700000,190.500000,34.600000C180.900000,37,174.200000,43.400000,172.700000,44.900000C172.700000,44.700000,172.700000,44.500000,172.800000,44.200000C174.300000,42.400000,184.200000,31.200000,199.700000,31.300000Z" fill="rgb(218,147,0)" stroke="none" stroke-width="1" stroke-miterlimit="1"/><path id="ewotqpOeNCc17" d="M169.600000,36.700000C171.500000,38,171.700000,42.100000,171.600000,44.900000C171.200000,44.600000,170.800000,44.400000,170.300000,44.400000C166.600000,44.300000,165.200000,51.800000,165.200000,51.800000C165.200000,51.800000,171.700000,52.200000,173.700000,53.800000C176.500000,56.100000,182.800000,62,185.400000,71.500000C184.400000,72.200000,183.800000,73.200000,183.300000,74.400000C180.100000,73.800000,163.800000,69.800000,163.900000,51.300000C163.900000,51.300000,160.500000,50,160.500000,45.900000C160.500000,42.700000,163.900000,38.600000,166.700000,37.100000C167.400000,36.500000,168.600000,36.100000,169.600000,36.700000Z" fill="rgb(254,235,200)" stroke="none" stroke-width="1" stroke-miterlimit="1"/><path id="ewotqpOeNCc18" d="M201.700000,56.700000C202.400000,59.600000,213.500000,59.300000,216.400000,56.900000C216.700000,57.200000,217,57.600000,217.100000,58.100000C217.100000,59.400000,215.300000,64,198.400000,71.600000C195.100000,70.200000,190.600000,69.100000,186.500000,70.600000C186.400000,70.600000,186.300000,70.700000,186.200000,70.700000C186.100000,69.800000,185.900000,68.500000,185.400000,67C191.400000,59.500000,199,56.800000,201.700000,56.100000C201.700000,56.300000,201.700000,56.500000,201.700000,56.700000Z" fill="rgb(255,255,255)" stroke="none" stroke-width="1" stroke-miterlimit="1"/><path id="ewotqpOeNCc19" d="M164.100000,88.600000C164.200000,87.500000,164.900000,85.200000,168.800000,83.900000C171.600000,83,173.200000,84,174,84.800000C172,85.200000,169.900000,86.700000,169.900000,86.700000C175.700000,84.300000,176.300000,87.500000,176.300000,88.900000C175,89.400000,173.600000,89.700000,172.100000,89.800000C168.500000,90.200000,165.900000,89.600000,164.100000,88.600000Z" fill="rgb(234,87,83)" stroke="none" stroke-width="1" stroke-miterlimit="1"/><path id="ewotqpOeNCc20" d="M175.400000,84.800000C174.500000,83.200000,172.300000,81,168.300000,82.300000C164,83.700000,163.200000,86.300000,163.200000,88C162.700000,87.700000,162.300000,87.300000,162,86.900000C161.200000,85.900000,161,84.900000,161.300000,83.800000L162,81.800000C163.300000,78,165.300000,72,165.800000,64.700000C170.700000,73.800000,180.200000,75.300000,183,75.500000C182.400000,78.100000,182.900000,80.700000,184.800000,82.500000C184.900000,82.600000,185.100000,82.800000,185.200000,82.900000C184.100000,84,181.300000,86.800000,177.500000,88.500000C177.400000,86.100000,176.500000,85.100000,175.400000,84.800000Z" fill="rgb(126,14,0)" stroke="none" stroke-width="1" stroke-miterlimit="1"/><path id="ewotqpOeNCc21" d="M151.900000,55.800000C153.100000,44.300000,157,39.400000,160.200000,37.400000C161.800000,36.300000,163.600000,35.800000,165.400000,35.800000C162.300000,37.700000,159.100000,42.100000,159.100000,45.900000C159.100000,47.300000,159.400000,48.300000,159.700000,49.200000C151.100000,68.600000,155.600000,81.900000,156.700000,84.600000C156.500000,85,156.300000,85.400000,156.200000,85.800000C154.500000,81.700000,150.500000,70.100000,151.900000,55.800000Z" fill="rgb(218,147,0)" stroke="none" stroke-width="1" stroke-miterlimit="1"/><path id="ewotqpOeNCc22" d="M162.300000,94.500000C162.800000,95,163.400000,95.500000,164,96C159.200000,96.200000,152.100000,96.400000,144.700000,95.800000C149.300000,91.900000,153.700000,89.600000,155.700000,88.600000C155.800000,89.500000,156,90.400000,156.700000,91.200000C158.100000,93.100000,160.200000,94.100000,162.300000,94.500000Z" fill="rgb(247,203,131)" stroke="none" stroke-width="1" stroke-miterlimit="1"/><path id="ewotqpOeNCc23" d="M109.800000,145.100000C106.500000,145.800000,104.200000,146.300000,102.700000,145.100000C100.200000,143,101.700000,139,103.100000,135.200000C104,132.800000,104.900000,130.600000,104.800000,128.700000C104.700000,125.600000,105.300000,123.400000,106.500000,122.300000C107.200000,121.700000,108,121.500000,109.200000,121.700000C109.900000,121.800000,110.300000,122.100000,110.600000,122.600000C111.900000,124.300000,111.900000,127.200000,111.600000,128.100000C111.600000,128.100000,113.700000,124.100000,112,121.300000C113.200000,121,115,121.100000,116.600000,122.800000C118.700000,125.200000,116,129.600000,115,131.100000C113,132.500000,112,133.800000,112,133.800000C118.200000,130.600000,123.300000,130.400000,125.500000,130.500000C125.600000,137.400000,127.400000,142.700000,129.600000,146.600000C121.300000,142.700000,114.700000,144,109.800000,145.100000Z" fill="rgb(218,147,0)" stroke="none" stroke-width="1" stroke-miterlimit="1"/><path id="ewotqpOeNCc24" d="M129.600000,120.500000C130.300000,117.100000,131.400000,114.100000,132.700000,111.300000C139.500000,114.900000,145.400000,116.500000,150.200000,117.100000C149.600000,119,148.500000,124,149.500000,130.400000L149.800000,132.200000C150.900000,139.300000,152.100000,146.700000,151.500000,150.900000C147.500000,150,142.300000,150,137.300000,153.200000C134.500000,150.500000,125.600000,140.500000,129.600000,120.500000Z" fill="rgb(247,203,131)" stroke="none" stroke-width="1" stroke-miterlimit="1"/><path id="ewotqpOeNCc25" d="M199.600000,161.100000C210.300000,160.800000,226,159.800000,227.700000,166.900000C228.100000,168.800000,227.800000,170.500000,226.600000,171.900000C225.900000,172.800000,225,173.500000,224.100000,174.100000C224.900000,173.200000,225.400000,172.100000,225.500000,170.900000C225.700000,169.200000,225.200000,167.800000,224.100000,166.600000C220.300000,162.700000,210,163.100000,200.400000,164C192.300000,164.700000,185.500000,164.200000,182.100000,163.800000C182.700000,162.700000,183.200000,161.600000,183.600000,160.300000C185.900000,160.600000,191.100000,161.300000,199.600000,161.100000Z" fill="rgb(218,147,0)" stroke="none" stroke-width="1" stroke-miterlimit="1"/><path id="ewotqpOeNCc26" d="M143.600000,96.900000C152.600000,97.900000,156,98.500000,163.700000,98.100000C170,97.800000,174.900000,99.100000,176.800000,101.500000C177.800000,102.700000,178,104.200000,177.400000,106L176.600000,107.800000C168.300000,130.200000,174.900000,140.200000,174.900000,140.200000C174.700000,139.400000,174.500000,138.500000,174.400000,137.600000C175.800000,138.600000,184.200000,145.100000,181.700000,156.500000C179,168.800000,170.500000,170.100000,151.400000,172.100000C141.400000,173.100000,134.200000,175.800000,128.300000,178C123.100000,179.900000,119.300000,181.300000,116.400000,180.400000C116.100000,180.300000,115.900000,180.200000,115.700000,180.100000C121.700000,177.300000,124.200000,167.900000,123.700000,162.400000C123.400000,159.700000,122.500000,158,121,157.700000C120.800000,157.700000,120.600000,157.600000,120.400000,157.600000C120.900000,155.800000,121.900000,154.500000,123.200000,154.200000C124.300000,153.900000,125.900000,153.800000,127.100000,154.900000C128.400000,156.100000,128.900000,158.600000,128.400000,162C127.500000,168.700000,122.900000,174.100000,122.800000,174.200000C122.800000,174.200000,127.700000,170.400000,129.500000,164.500000C139.300000,147.600000,157.200000,152.800000,158,153C158,153,155.800000,151.700000,152.600000,150.800000C153.100000,146.400000,151.700000,138.800000,150.600000,131.700000L150.300000,129.900000C149.300000,123.500000,150.500000,118.500000,151.100000,116.800000C153.200000,117,155.100000,116.900000,156.700000,116.800000C158.700000,119.200000,161.100000,119.500000,161.100000,119.500000C159.600000,118.600000,157.200000,115.400000,156.700000,114.700000C156.700000,114.700000,155,117,152.300000,115.300000C152.300000,115.300000,151.400000,113.300000,153.500000,111C153.500000,111,151.400000,110.100000,151,114.400000C151,114.400000,137.100000,112.400000,133.900000,109C133.900000,109,135.900000,103.500000,138.800000,101.100000C141.700000,98.700000,143.600000,96.900000,143.600000,96.900000Z" fill="rgb(218,147,0)" stroke="none" stroke-width="1" stroke-miterlimit="1"/><path id="ewotqpOeNCc27" d="M166.600000,96C165.900000,95.600000,165.200000,95.200000,164.700000,94.900000C168.800000,95.100000,172.600000,94,172.600000,94C165,94.400000,160.200000,93,158.400000,90C156.100000,86.200000,159.200000,80.800000,159.300000,80.800000C159.300000,80.800000,158.100000,82,157.200000,83.700000C154,65.700000,158.900000,52.900000,160.200000,50C161,51.200000,162.100000,51.700000,162.800000,52C162.900000,56.100000,163.600000,59.600000,164.700000,62.400000C164.500000,70.600000,161.600000,77.500000,160.200000,81.600000L159.500000,83.700000C159,85.300000,159.400000,86.900000,160.500000,88.300000C162.600000,90.900000,166.900000,92.300000,172,91.900000C179.600000,91.300000,185,85.200000,186.100000,83.800000C189.700000,86.500000,194,87.100000,197.200000,87.100000C197.100000,87.900000,195.700000,96,179.500000,101.400000C179.300000,101,179.100000,100.500000,178.700000,100.100000C176.700000,97.500000,172.300000,96.100000,166.600000,96Z" fill="rgb(254,235,200)" stroke="none" stroke-width="1" stroke-miterlimit="1"/><path id="ewotqpOeNCc28" d="M170,45.900000C171.800000,45.600000,173.400000,52.200000,171.600000,52.100000C169.700000,51.900000,169.300000,45.900000,170,45.900000Z" fill="rgb(255,255,255)" stroke="none" stroke-width="1" stroke-miterlimit="1"/><path id="ewotqpOeNCc29" d="M238.200000,133.600000C221.200000,135,205.600000,125.600000,195,107.600000C200.100000,106.900000,204.100000,105,206.900000,103C208.500000,105.200000,214.100000,111.700000,225.600000,113.100000C225.600000,113.100000,218.400000,107.800000,217.100000,101.800000C216.700000,99.700000,217.200000,97.600000,218.700000,95.600000C222.800000,90.300000,242.400000,96,255,104.300000C258.300000,106.400000,265,111.800000,265.100000,116.400000C265,116.900000,264.800000,117.300000,264.600000,117.800000C261.800000,126,250.200000,132.600000,238.200000,133.600000Z" fill="rgb(246,187,170)" stroke="none" stroke-width="1" stroke-miterlimit="1"/><path id="ewotqpOeNCc30" d="M265.600000,114.600000C264.900000,110.700000,261.500000,106.100000,255.400000,102.100000C243.500000,94.300000,222.600000,87.800000,217.500000,94.600000C216.100000,96.400000,215.400000,98.300000,215.400000,100.300000C215.400000,100.900000,215.500000,101.500000,215.600000,102.100000C216.400000,106.200000,220,109.700000,222.800000,111.900000C214.300000,109.500000,209.800000,103.400000,208.800000,101.700000C211.200000,99.700000,212.400000,98,212.400000,98C198.300000,108.200000,184.100000,105.300000,179.900000,104.100000C179.900000,103.400000,179.900000,102.700000,179.700000,102.100000C183.600000,101.200000,196.400000,97.400000,197.900000,87C200.200000,86.900000,201.800000,86.600000,201.800000,86.600000C195.600000,87.100000,189.200000,85,186.400000,81.600000C184.900000,79.800000,184.500000,77.800000,185.100000,75.500000C185.500000,73.900000,186.300000,72.800000,187.700000,72.300000C194.200000,69.800000,203.200000,74.200000,203.300000,74.200000C203.300000,74.200000,201.900000,73.200000,199.800000,72.200000C213,66.300000,218.700000,62.100000,218.600000,58.400000C218.600000,58,218.500000,57.600000,218.300000,57.200000C219.600000,55.800000,222.800000,53.300000,228.800000,54.400000C228.800000,54.400000,222.700000,51.400000,217.900000,56.500000C217.700000,56.300000,217.500000,56.100000,217.300000,55.900000C217.300000,55.700000,217.300000,55.600000,217.300000,55.400000C217.300000,55.300000,217.200000,55.200000,217.200000,55.100000C217.300000,53.500000,218.300000,50.300000,223.400000,48.600000C223.400000,48.600000,217.100000,48.600000,216.300000,53.900000C213.200000,51.800000,204.700000,53,202.500000,55.200000C192.300000,57.300000,186.900000,63.800000,185.400000,66C183.900000,62.300000,180.700000,57.400000,174,52.700000C174,51.500000,173.900000,49.100000,173.300000,47.200000C174.800000,47.100000,179.900000,47,193,42.200000C197.100000,40.700000,201.800000,38.500000,202.200000,36.200000C203.100000,35.200000,205,33.600000,208.600000,32.200000C219.900000,35.300000,226.900000,43.800000,228,46.500000C228,47.600000,228,48.200000,228,48.200000C230.700000,37.700000,223.600000,24.300000,223.600000,24.300000C233.100000,37.800000,232.100000,53.800000,232.100000,53.800000C232.200000,53.200000,232.300000,52.700000,232.400000,52.100000C233.400000,51.200000,238.100000,46.700000,241.100000,36.800000C239.800000,43.200000,237.300000,51.400000,232,58.900000C231.700000,59.300000,231.700000,60,231.500000,62.100000C231.500000,62.500000,231.400000,62.900000,231.400000,63.300000C230.100000,65.500000,227.200000,69.600000,221.200000,72.500000C221.200000,72.500000,227.800000,70.900000,231.300000,64.700000C230.900000,69.200000,230,75.400000,227,80.100000C224,77.800000,222.400000,76.300000,222.400000,76.200000C222.400000,76.200000,228.700000,85.800000,244.500000,93.900000L249.700000,96.500000C260.600000,102.600000,267.400000,105.800000,265.600000,114.600000Z" fill="rgb(218,147,0)" stroke="none" stroke-width="1" stroke-miterlimit="1"/><path id="ewotqpOeNCc31" d="M165,41.900000C165,41.900000,156.300000,26.700000,137.100000,9.299990C137.100000,9.299990,155.400000,21.700000,165,41.900000Z" fill="rgb(72,58,53)" stroke="none" stroke-width="1" stroke-miterlimit="1"/><path id="ewotqpOeNCc32" d="M168.100000,40.600000C168.100000,40.600000,162.700000,17,153.500000,0C153.500000,0,163.900000,12.400000,168.100000,40.600000Z" fill="rgb(72,58,53)" stroke="none" stroke-width="1" stroke-miterlimit="1"/><path id="ewotqpOeNCc33" d="M172.800000,64.700000C172.800000,64.700000,192.100000,95.800000,194,137.200000C194,137.200000,195.500000,96.400000,172.800000,64.700000Z" fill="rgb(72,58,53)" stroke="none" stroke-width="1" stroke-miterlimit="1"/><path id="ewotqpOeNCc34" d="M173.200000,61.500000C173.200000,61.500000,198,82.300000,206.900000,105.700000C207,105.700000,203.300000,85,173.200000,61.500000Z" fill="rgb(72,58,53)" stroke="none" stroke-width="1" stroke-miterlimit="1"/><path id="ewotqpOeNCc35" d="M228.500000,69.300000C228.500000,69.300000,226.400000,72.600000,218.400000,75.100000C218.400000,75.100000,225.400000,75,228.500000,69.300000Z" fill="rgb(0,0,0)" stroke="none" stroke-width="1" stroke-miterlimit="1"/><path id="ewotqpOeNCc36" d="M250.200000,54.700000C250.400000,58.500000,240,64.500000,232.600000,67.800000C232.800000,65.700000,232.800000,63.900000,232.900000,62.500000C233,61.400000,233.100000,60.300000,233.100000,60C235.600000,56.500000,237.400000,52.800000,238.700000,49.300000C244.400000,50.200000,250,52,250.200000,54.700000Z" fill="rgb(218,147,0)" stroke="none" stroke-width="1" stroke-miterlimit="1"/></g><g id="ewotqpOeNCc37"><path id="ewotqpOeNCc38" d="M170.600000,106.900000C167.600000,103.900000,167.600000,100.900000,173.600000,101.900000C179.600000,102.900000,175.600000,116.900000,175.600000,116.900000C178.600000,104.900000,181.600000,104.900000,177.600000,99.900000C174.900000,96.600000,167.600000,94.900000,157.600000,95.900000C147.600000,96.900000,134.600000,94.900000,128.600000,92.900000C122.600000,90.900000,120.600000,88.900000,120.600000,84.900000C120.600000,80.900000,118.600000,80.900000,114.600000,80.900000C110.600000,80.900000,111.600000,82.900000,111.600000,84.900000C111.600000,86.300000,111.400000,86.600000,109,86.700000C106.600000,86.900000,100.600000,84.900000,97.600000,86.900000C97.600000,86.900000,96.100000,88,96.300000,89.500000C96.300000,89.500000,94.600000,89.900000,94.600000,91.900000C94.600000,93.900000,95.900000,94.800000,95.900000,94.800000C96.500000,95.300000,97.200000,95.800000,98.300000,96.300000C103.700000,104.700000,114.400000,101.800000,116.600000,101.100000C121,104.700000,125.100000,107.500000,129,109.700000C129,109.700000,137.700000,114.900000,148.700000,116.900000C156.600000,118.300000,162.700000,116.900000,165.700000,112.900000C165.600000,112.900000,173.600000,109.900000,170.600000,106.900000Z" fill="rgb(72,58,53)" stroke="none" stroke-width="1" stroke-miterlimit="1"/><path id="ewotqpOeNCc39" d="M175.600000,110.900000L176.600000,107.900000C177.600000,105.900000,176.600000,102.100000,175.600000,100.900000C173.700000,98.500000,169,97.800000,162.700000,98.100000C155.100000,98.400000,142.100000,97.900000,130.700000,95.200000C118.800000,92.400000,118.900000,86.400000,119,85.200000C119.100000,84.100000,119,83.400000,118.500000,82.900000C117.900000,82.300000,116.800000,82.100000,115.300000,82.300000C114.400000,82.400000,113.800000,82.600000,113.500000,83C113.100000,83.500000,113.300000,84.400000,113.400000,85.100000C113.500000,85.900000,113.700000,86.600000,113.300000,87.200000C112.700000,88.100000,110.700000,88.300000,108.400000,88.300000C106.100000,88.300000,103.500000,88,101.900000,87.800000C99.499900,87.500000,98.499900,88,98.399900,88.300000C98.299900,88.500000,98.599900,89.300000,99.999900,90C103,91.600000,109.900000,92.400000,110,92.400000C110,92.400000,103.700000,93.200000,99.099900,90.900000C97.799900,90.600000,96.499900,91.100000,96.299900,91.800000C95.999900,92.700000,96.799900,94.200000,99.399900,95.200000C105,97.500000,111.600000,96.700000,111.600000,96.600000C111.600000,96.600000,106.100000,98.400000,100.500000,96.900000C106.800000,102.700000,117.100000,99.300000,117.100000,99.300000C147.900000,123.100000,165.500000,113.400000,165.700000,113.300000" fill="rgb(218,147,0)" stroke="none" stroke-width="1" stroke-miterlimit="1"/></g></g><clipPath id="ewotqpOeNCc40"><rect id="ewotqpOeNCc41" width="267.800000" height="182.500000" rx="0" ry="0" fill="rgb(255,255,255)" stroke="none" stroke-width="1" stroke-miterlimit="1"/></clipPath></g><script><![CDATA[!function(t,n){"object"==typeof exports&&"undefined"!=typeof module?module.exports=n():"function"==typeof define&&define.amd?define(n):(t="undefined"!=typeof globalThis?globalThis:t||self).__SVGATOR_PLAYER__=n()}(this,(function(){"use strict";function t(n){return(t="function"==typeof Symbol&&"symbol"==typeof Symbol.iterator?function(t){return typeof t}:function(t){return t&&"function"==typeof Symbol&&t.constructor===Symbol&&t!==Symbol.prototype?"symbol":typeof t})(n)}function n(t,n){if(!(t instanceof n))throw new TypeError("Cannot call a class as a function")}function r(t,n){for(var r=0;r<n.length;r++){var e=n[r];e.enumerable=e.enumerable||!1,e.configurable=!0,"value"in e&&(e.writable=!0),Object.defineProperty(t,e.key,e)}}function e(t,n,e){return n&&r(t.prototype,n),e&&r(t,e),t}function i(t){return(i=Object.setPrototypeOf?Object.getPrototypeOf:function(t){return t.__proto__||Object.getPrototypeOf(t)})(t)}function o(t,n){return(o=Object.setPrototypeOf||function(t,n){return t.__proto__=n,t})(t,n)}function u(t,n){return!n||"object"!=typeof n&&"function"!=typeof n?function(t){if(void 0===t)throw new ReferenceError("this hasn't been initialised - super() hasn't been called");return t}(t):n}function a(t){var n=function(){if("undefined"==typeof Reflect||!Reflect.construct)return!1;if(Reflect.construct.sham)return!1;if("function"==typeof Proxy)return!0;try{return Boolean.prototype.valueOf.call(Reflect.construct(Boolean,[],(function(){}))),!0}catch(t){return!1}}();return function(){var r,e=i(t);if(n){var o=i(this).constructor;r=Reflect.construct(e,arguments,o)}else r=e.apply(this,arguments);return u(this,r)}}function l(t,n,r){return(l="undefined"!=typeof Reflect&&Reflect.get?Reflect.get:function(t,n,r){var e=function(t,n){for(;!Object.prototype.hasOwnProperty.call(t,n)&&null!==(t=i(t)););return t}(t,n);if(e){var o=Object.getOwnPropertyDescriptor(e,n);return o.get?o.get.call(r):o.value}})(t,n,r||t)}var f=Math.abs;function s(t){return t}function c(t,n,r){var e=1-r;return 3*r*e*(t*e+n*r)+r*r*r}function h(){var t=arguments.length>0&&void 0!==arguments[0]?arguments[0]:0,n=arguments.length>1&&void 0!==arguments[1]?arguments[1]:0,r=arguments.length>2&&void 0!==arguments[2]?arguments[2]:1,e=arguments.length>3&&void 0!==arguments[3]?arguments[3]:1;return t<0||t>1||r<0||r>1?null:f(t-n)<=1e-5&&f(r-e)<=1e-5?s:function(i){if(i<=0)return t>0?i*n/t:0===n&&r>0?i*e/r:0;if(i>=1)return r<1?1+(i-1)*(e-1)/(r-1):1===r&&t<1?1+(i-1)*(n-1)/(t-1):1;for(var o,u=0,a=1;u<a;){var l=c(t,r,o=(u+a)/2);if(f(i-l)<1e-5)break;l<i?u=o:a=o}return c(n,e,o)}}function v(){return 1}function y(t){return 1===t?1:0}function d(){var t=arguments.length>0&&void 0!==arguments[0]?arguments[0]:1,n=arguments.length>1&&void 0!==arguments[1]?arguments[1]:0;if(1===t){if(0===n)return y;if(1===n)return v}var r=1/t;return function(t){return t>=1?1:(t+=n*r)-t%r}}function g(t){var n=arguments.length>1&&void 0!==arguments[1]?arguments[1]:2;if(Number.isInteger(t))return t;var r=Math.pow(10,n);return Math.round(t*r)/r}var p=Math.PI/180;function m(t,n,r){return t>=.5?r:n}function b(t,n,r){return 0===t||n===r?n:t*(r-n)+n}function w(t,n,r){var e=b(t,n,r);return e<=0?0:e}function x(t,n,r){return 0===t?n:1===t?r:{x:b(t,n.x,r.x),y:b(t,n.y,r.y)}}function k(t,n,r){var e=function(t,n,r){return Math.round(b(t,n,r))}(t,n,r);return e<=0?0:e>=255?255:e}function A(t,n,r){return 0===t?n:1===t?r:{r:k(t,n.r,r.r),g:k(t,n.g,r.g),b:k(t,n.b,r.b),a:b(t,null==n.a?1:n.a,null==r.a?1:r.a)}}function _(t,n,r){if(0===t)return n;if(1===t)return r;var e=n.length;if(e!==r.length)return m(t,n,r);for(var i=[],o=0;o<e;o++)i.push(A(t,n[o],r[o]));return i}function S(t,n){for(var r=[],e=0;e<t;e++)r.push(n);return r}function O(t,n){if(--n<=0)return t;var r=(t=Object.assign([],t)).length;do{for(var e=0;e<r;e++)t.push(t[e])}while(--n>0);return t}var M,j=function(){function t(r){n(this,t),this.list=r,this.length=r.length}return e(t,[{key:"setAttribute",value:function(t,n){for(var r=this.list,e=0;e<this.length;e++)r[e].setAttribute(t,n)}},{key:"removeAttribute",value:function(t){for(var n=this.list,r=0;r<this.length;r++)n[r].removeAttribute(t)}},{key:"style",value:function(t,n){for(var r=this.list,e=0;e<this.length;e++)r[e].style[t]=n}}]),t}(),F=/-./g,P=function(t,n){return n.toUpperCase()};function B(t){return"function"==typeof t?t:m}function I(t){return t?"function"==typeof t?t:Array.isArray(t)?function(t){var n=arguments.length>1&&void 0!==arguments[1]?arguments[1]:s;if(!Array.isArray(t))return n;switch(t.length){case 1:return d(t[0])||n;case 2:return d(t[0],t[1])||n;case 4:return h(t[0],t[1],t[2],t[3])||n}return n}(t,null):function(t,n){var r=arguments.length>2&&void 0!==arguments[2]?arguments[2]:s;switch(t){case"linear":return s;case"steps":return d(n.steps||1,n.jump||0)||r;case"bezier":case"cubic-bezier":return h(n.x1||0,n.y1||0,n.x2||0,n.y2||0)||r}return r}(t.type,t.value,null):null}function R(t,n,r){var e=arguments.length>3&&void 0!==arguments[3]&&arguments[3],i=n.length-1;if(t<=n[0].t)return e?[0,0,n[0].v]:n[0].v;if(t>=n[i].t)return e?[i,1,n[i].v]:n[i].v;var o,u=n[0],a=null;for(o=1;o<=i;o++){if(!(t>n[o].t)){a=n[o];break}u=n[o]}return null==a?e?[i,1,n[i].v]:n[i].v:u.t===a.t?e?[o,1,a.v]:a.v:(t=(t-u.t)/(a.t-u.t),u.e&&(t=u.e(t)),e?[o,t,r(t,u.v,a.v)]:r(t,u.v,a.v))}function q(t,n){var r=arguments.length>2&&void 0!==arguments[2]?arguments[2]:null;return t&&t.length?"function"!=typeof n?null:("function"!=typeof r&&(r=null),function(e){var i=R(e,t,n);return null!=i&&r&&(i=r(i)),i}):null}function E(t,n){return t.t-n.t}function T(n,r,e,i,o){var u,a="@"===e[0],l="#"===e[0],f=M[e],s=m;switch(a?(u=e.substr(1),e=u.replace(F,P)):l&&(e=e.substr(1)),t(f)){case"function":if(s=f(i,o,R,I,e,a,r,n),l)return s;break;case"string":s=q(i,B(f));break;case"object":if((s=q(i,B(f.i),f.f))&&"function"==typeof f.u)return f.u(r,s,e,a,n)}return s?function(t,n,r){var e=arguments.length>3&&void 0!==arguments[3]&&arguments[3];if(e)return t instanceof j?function(e){return t.style(n,r(e))}:function(e){return t.style[n]=r(e)};if(Array.isArray(n)){var i=n.length;return function(e){var o=r(e);if(null==o)for(var u=0;u<i;u++)t[u].removeAttribute(n);else for(var a=0;a<i;a++)t[a].setAttribute(n,o)}}return function(e){var i=r(e);null==i?t.removeAttribute(n):t.setAttribute(n,i)}}(r,e,s,a):null}function N(n,r,e,i){if(!i||"object"!==t(i))return null;var o=null,u=null;return Array.isArray(i)?u=function(t){if(!t||!t.length)return null;for(var n=0;n<t.length;n++)t[n].e&&(t[n].e=I(t[n].e));return t.sort(E)}(i):(u=i.keys,o=i.data||null),u?T(n,r,e,u,o):null}function C(t,n,r){if(!r)return null;var e=[];for(var i in r)if(r.hasOwnProperty(i)){var o=N(t,n,i,r[i]);o&&e.push(o)}return e.length?e:null}function z(t,n){if(!n.duration||n.duration<0)return null;var r=function(t,n){if(!n)return null;var r=[];if(Array.isArray(n))for(var e=n.length,i=0;i<e;i++){var o=n[i];if(2===o.length){var u=null;if("string"==typeof o[0])u=t.getElementById(o[0]);else if(Array.isArray(o[0])){u=[];for(var a=0;a<o[0].length;a++)if("string"==typeof o[0][a]){var l=t.getElementById(o[0][a]);l&&u.push(l)}u=u.length?1===u.length?u[0]:new j(u):null}if(u){var f=C(t,u,o[1]);f&&(r=r.concat(f))}}}else for(var s in n)if(n.hasOwnProperty(s)){var c=t.getElementById(s);if(c){var h=C(t,c,n[s]);h&&(r=r.concat(h))}}return r.length?r:null}(t,n.elements);return r?function(t,n){var r=arguments.length>2&&void 0!==arguments[2]?arguments[2]:1/0,e=arguments.length>3&&void 0!==arguments[3]?arguments[3]:1,i=arguments.length>4&&void 0!==arguments[4]&&arguments[4],o=arguments.length>5&&void 0!==arguments[5]?arguments[5]:1,u=t.length,a=e>0?n:0;i&&r%2==0&&(a=n-a);var l=null;return function(f,s){var c=f%n,h=1+(f-c)/n;s*=e,i&&h%2==0&&(s=-s);var v=!1;if(h>r)c=a,v=!0,-1===o&&(c=e>0?0:n);else if(s<0&&(c=n-c),c===l)return!1;l=c;for(var y=0;y<u;y++)t[y](c);return v}}(r,n.duration,n.iterations||1/0,n.direction||1,!!n.alternate,n.fill||1):null}var L=function(){function t(r,e){var i=arguments.length>2&&void 0!==arguments[2]?arguments[2]:{};n(this,t),this._id=0,this._running=!1,this._rollingBack=!1,this._animations=r,this.duration=e.duration,this.alternate=e.alternate,this.fill=e.fill,this.iterations=e.iterations,this.direction=i.direction||1,this.speed=i.speed||1,this.fps=i.fps||100,this.offset=i.offset||0,this.rollbackStartOffset=0}return e(t,[{key:"_rollback",value:function(){var t=this,n=1/0,r=null;this.rollbackStartOffset=this.offset,this._rollingBack||(this._rollingBack=!0,this._running=!0);this._id=window.requestAnimationFrame((function e(i){if(t._rollingBack){null==r&&(r=i);var o=i-r,u=t.rollbackStartOffset-o,a=Math.round(u*t.speed);if(a>t.duration&&n!=1/0){var l=!!t.alternate&&a/t.duration%2>1,f=a%t.duration;a=(f+=l?t.duration:0)||t.duration}var s=t.fps?1e3/t.fps:0,c=Math.max(0,a);if(c<n-s){t.offset=c,n=c;for(var h=t._animations,v=h.length,y=0;y<v;y++)h[y](c,t.direction)}var d=!1;if(t.iterations>0&&-1===t.fill){var g=t.iterations*t.duration,p=g==a;a=p?0:a,t.offset=p?0:t.offset,d=a>g}a>0&&t.offset>=a&&!d?t._id=window.requestAnimationFrame(e):t.stop()}}))}},{key:"_start",value:function(){var t=this,n=arguments.length>0&&void 0!==arguments[0]?arguments[0]:0,r=-1/0,e=null,i={},o=function o(u){t._running=!0,null==e&&(e=u);var a=Math.round((u-e+n)*t.speed),l=t.fps?1e3/t.fps:0;if(a>r+l&&!t._rollingBack){t.offset=a,r=a;for(var f=t._animations,s=f.length,c=0,h=0;h<s;h++)i[h]?c++:(i[h]=f[h](a,t.direction),i[h]&&c++);if(c===s)return void t._stop()}t._id=window.requestAnimationFrame(o)};this._id=window.requestAnimationFrame(o)}},{key:"_stop",value:function(){this._id&&window.cancelAnimationFrame(this._id),this._running=!1,this._rollingBack=!1}},{key:"play",value:function(){!this._rollingBack&&this._running||(this._rollingBack=!1,this.rollbackStartOffset>this.duration&&(this.offset=this.rollbackStartOffset-(this.rollbackStartOffset-this.offset)%this.duration,this.rollbackStartOffset=0),this._start(this.offset))}},{key:"stop",value:function(){this._stop(),this.offset=0,this.rollbackStartOffset=0;var t=this.direction,n=this._animations;window.requestAnimationFrame((function(){for(var r=0;r<n.length;r++)n[r](0,t)}))}},{key:"reachedToEnd",value:function(){return this.iterations>0&&this.offset>=this.iterations*this.duration}},{key:"restart",value:function(){this._stop(),this.offset=0,this._start()}},{key:"pause",value:function(){this._stop()}},{key:"reverse",value:function(){this.direction=-this.direction}}],[{key:"build",value:function(n,r){return(n=function(t,n){if(M=n,!t||!t.root||!Array.isArray(t.animations))return null;for(var r=document.getElementsByTagName("svg"),e=!1,i=0;i<r.length;i++)if(r[i].id===t.root&&!r[i].svgatorAnimation){(e=r[i]).svgatorAnimation=!0;break}if(!e)return null;var o=t.animations.map((function(t){return z(e,t)})).filter((function(t){return!!t}));return o.length?{element:e,animations:o,animationSettings:t.animationSettings,options:t.options||void 0}:null}(n,r))?{el:n.element,options:n.options||{},player:new t(n.animations,n.animationSettings,n.options)}:null}}]),t}();!function(){for(var t=0,n=["ms","moz","webkit","o"],r=0;r<n.length&&!window.requestAnimationFrame;++r)window.requestAnimationFrame=window[n[r]+"RequestAnimationFrame"],window.cancelAnimationFrame=window[n[r]+"CancelAnimationFrame"]||window[n[r]+"CancelRequestAnimationFrame"];window.requestAnimationFrame||(window.requestAnimationFrame=function(n){var r=Date.now(),e=Math.max(0,16-(r-t)),i=window.setTimeout((function(){n(r+e)}),e);return t=r+e,i},window.cancelAnimationFrame=window.clearTimeout)}();var D=/\.0+$/g;function Q(t){return Number.isInteger(t)?t+"":t.toFixed(6).replace(D,"")}function U(t){var n=arguments.length>1&&void 0!==arguments[1]?arguments[1]:" ";return t&&t.length?t.map(Q).join(n):""}function V(t){return t?null==t.a||t.a>=1?"rgb("+t.r+","+t.g+","+t.b+")":"rgba("+t.r+","+t.g+","+t.b+","+t.a+")":"transparent"}var $={f:null,i:function(t,n,r){return 0===t?n:1===t?r:{x:w(t,n.x,r.x),y:w(t,n.y,r.y)}},u:function(t,n){return function(r){var e=n(r);t.setAttribute("rx",Q(e.x)),t.setAttribute("ry",Q(e.y))}}},G={f:null,i:function(t,n,r){return 0===t?n:1===t?r:{width:w(t,n.width,r.width),height:w(t,n.height,r.height)}},u:function(t,n){return function(r){var e=n(r);t.setAttribute("width",Q(e.width)),t.setAttribute("height",Q(e.height))}}},H=Math.sin,Y=Math.cos,Z=Math.acos,J=Math.asin,K=Math.tan,W=Math.atan2,X=Math.PI/180,tt=180/Math.PI,nt=Math.sqrt,rt=function(){function t(){var r=arguments.length>0&&void 0!==arguments[0]?arguments[0]:1,e=arguments.length>1&&void 0!==arguments[1]?arguments[1]:0,i=arguments.length>2&&void 0!==arguments[2]?arguments[2]:0,o=arguments.length>3&&void 0!==arguments[3]?arguments[3]:1,u=arguments.length>4&&void 0!==arguments[4]?arguments[4]:0,a=arguments.length>5&&void 0!==arguments[5]?arguments[5]:0;n(this,t),this.m=[r,e,i,o,u,a],this.i=null,this.w=null,this.s=null}return e(t,[{key:"determinant",get:function(){var t=this.m;return t[0]*t[3]-t[1]*t[2]}},{key:"isIdentity",get:function(){if(null===this.i){var t=this.m;this.i=1===t[0]&&0===t[1]&&0===t[2]&&1===t[3]&&0===t[4]&&0===t[5]}return this.i}},{key:"point",value:function(t,n){var r=this.m;return{x:r[0]*t+r[2]*n+r[4],y:r[1]*t+r[3]*n+r[5]}}},{key:"translateSelf",value:function(){var t=arguments.length>0&&void 0!==arguments[0]?arguments[0]:0,n=arguments.length>1&&void 0!==arguments[1]?arguments[1]:0;if(!t&&!n)return this;var r=this.m;return r[4]+=r[0]*t+r[2]*n,r[5]+=r[1]*t+r[3]*n,this.w=this.s=this.i=null,this}},{key:"rotateSelf",value:function(){var t=arguments.length>0&&void 0!==arguments[0]?arguments[0]:0;if(t%=360){var n=H(t*=X),r=Y(t),e=this.m,i=e[0],o=e[1];e[0]=i*r+e[2]*n,e[1]=o*r+e[3]*n,e[2]=e[2]*r-i*n,e[3]=e[3]*r-o*n,this.w=this.s=this.i=null}return this}},{key:"scaleSelf",value:function(){var t=arguments.length>0&&void 0!==arguments[0]?arguments[0]:1,n=arguments.length>1&&void 0!==arguments[1]?arguments[1]:1;if(1!==t||1!==n){var r=this.m;r[0]*=t,r[1]*=t,r[2]*=n,r[3]*=n,this.w=this.s=this.i=null}return this}},{key:"skewSelf",value:function(t,n){if(n%=360,(t%=360)||n){var r=this.m,e=r[0],i=r[1],o=r[2],u=r[3];t&&(t=K(t*X),r[2]+=e*t,r[3]+=i*t),n&&(n=K(n*X),r[0]+=o*n,r[1]+=u*n),this.w=this.s=this.i=null}return this}},{key:"resetSelf",value:function(){var t=arguments.length>0&&void 0!==arguments[0]?arguments[0]:1,n=arguments.length>1&&void 0!==arguments[1]?arguments[1]:0,r=arguments.length>2&&void 0!==arguments[2]?arguments[2]:0,e=arguments.length>3&&void 0!==arguments[3]?arguments[3]:1,i=arguments.length>4&&void 0!==arguments[4]?arguments[4]:0,o=arguments.length>5&&void 0!==arguments[5]?arguments[5]:0,u=this.m;return u[0]=t,u[1]=n,u[2]=r,u[3]=e,u[4]=i,u[5]=o,this.w=this.s=this.i=null,this}},{key:"recomposeSelf",value:function(){var t=arguments.length>0&&void 0!==arguments[0]?arguments[0]:null,n=arguments.length>1&&void 0!==arguments[1]?arguments[1]:null,r=arguments.length>2&&void 0!==arguments[2]?arguments[2]:null,e=arguments.length>3&&void 0!==arguments[3]?arguments[3]:null,i=arguments.length>4&&void 0!==arguments[4]?arguments[4]:null;return this.isIdentity||this.resetSelf(),t&&(t.x||t.y)&&this.translateSelf(t.x,t.y),n&&this.rotateSelf(n),r&&(r.x&&this.skewSelf(r.x,0),r.y&&this.skewSelf(0,r.y)),!e||1===e.x&&1===e.y||this.scaleSelf(e.x,e.y),i&&(i.x||i.y)&&this.translateSelf(i.x,i.y),this}},{key:"decompose",value:function(){var t=arguments.length>0&&void 0!==arguments[0]?arguments[0]:0,n=arguments.length>1&&void 0!==arguments[1]?arguments[1]:0,r=this.m,e=r[0]*r[0]+r[1]*r[1],i=[[r[0],r[1]],[r[2],r[3]]],o=nt(e);if(0===o)return{origin:{x:r[4],y:r[5]},translate:{x:t,y:n},scale:{x:0,y:0},skew:{x:0,y:0},rotate:0};i[0][0]/=o,i[0][1]/=o;var u=r[0]*r[3]-r[1]*r[2]<0;u&&(o=-o);var a=i[0][0]*i[1][0]+i[0][1]*i[1][1];i[1][0]-=i[0][0]*a,i[1][1]-=i[0][1]*a;var l=nt(i[1][0]*i[1][0]+i[1][1]*i[1][1]);if(0===l)return{origin:{x:r[4],y:r[5]},translate:{x:t,y:n},scale:{x:o,y:0},skew:{x:0,y:0},rotate:0};i[1][0]/=l,i[1][1]/=l,a/=l;var f=0;return i[1][1]<0?(f=Z(i[1][1])*tt,i[0][1]<0&&(f=360-f)):f=J(i[0][1])*tt,u&&(f=-f),a=W(a,nt(i[0][0]*i[0][0]+i[0][1]*i[0][1]))*tt,u&&(a=-a),{origin:{x:r[4],y:r[5]},translate:{x:t,y:n},scale:{x:o,y:l},skew:{x:a,y:0},rotate:f}}},{key:"toString",value:function(){return null===this.s&&(this.s="matrix("+this.m.map(it).join(" ")+")"),this.s}}]),t}(),et=/\.0+$/;function it(t){return Number.isInteger(t)?t:t.toFixed(14).replace(et,"")}Object.freeze({M:2,L:2,Z:0,H:1,V:1,C:6,Q:4,T:2,S:4,A:7});var ot={},ut=null;function at(n){var r=function(){if(ut)return ut;if("object"!==("undefined"==typeof document?"undefined":t(document)))return{};var n=document.createElementNS("http://www.w3.org/2000/svg","svg");return n.style.position="absolute",n.style.opacity="0.01",n.style.zIndex="-9999",n.style.left="-9999px",n.style.width="1px",n.style.height="1px",ut={svg:n}}().svg;if(!r)return function(t){return null};var e=document.createElementNS(r.namespaceURI,"path");e.setAttributeNS(null,"d",n),e.setAttributeNS(null,"fill","none"),e.setAttributeNS(null,"stroke","none"),r.appendChild(e);var i=e.getTotalLength();return function(t){var n=e.getPointAtLength(i*t);return{x:n.x,y:n.y}}}function lt(t){return ot[t]?ot[t]:ot[t]=at(t)}function ft(t,n,r,e){if(!t||!e)return!1;var i=["M",t.x,t.y];if(n&&r&&(i.push("C"),i.push(n.x),i.push(n.y),i.push(r.x),i.push(r.y)),n?!r:r){var o=n||r;i.push("Q"),i.push(o.x),i.push(o.y)}return n||r||i.push("L"),i.push(e.x),i.push(e.y),i.join(" ")}function st(t,n,r,e){var i=arguments.length>4&&void 0!==arguments[4]?arguments[4]:1,o=ft(t,n,r,e),u=lt(o);try{return u(i)}catch(t){return null}}function ct(t,n,r,e){var i=1-e;return i*i*t+2*i*e*n+e*e*r}function ht(t,n,r,e){return 2*(1-e)*(n-t)+2*e*(r-n)}function vt(t,n,r,e){var i=arguments.length>4&&void 0!==arguments[4]&&arguments[4],o=st(t,n,null,r,e);return o||(o={x:ct(t.x,n.x,r.x,e),y:ct(t.y,n.y,r.y,e)}),i&&(o.a=yt(t,n,r,e)),o}function yt(t,n,r,e){return Math.atan2(ht(t.y,n.y,r.y,e),ht(t.x,n.x,r.x,e))}function dt(t,n,r,e,i){var o=i*i;return i*o*(e-t+3*(n-r))+3*o*(t+r-2*n)+3*i*(n-t)+t}function gt(t,n,r,e,i){var o=1-i;return 3*(o*o*(n-t)+2*o*i*(r-n)+i*i*(e-r))}function pt(t,n,r,e,i){var o=arguments.length>5&&void 0!==arguments[5]&&arguments[5],u=st(t,n,r,e,i);return u||(u={x:dt(t.x,n.x,r.x,e.x,i),y:dt(t.y,n.y,r.y,e.y,i)}),o&&(u.a=mt(t,n,r,e,i)),u}function mt(t,n,r,e,i){return Math.atan2(gt(t.y,n.y,r.y,e.y,i),gt(t.x,n.x,r.x,e.x,i))}function bt(t,n,r){return t+(n-t)*r}function wt(t,n,r){var e=arguments.length>3&&void 0!==arguments[3]&&arguments[3],i={x:bt(t.x,n.x,r),y:bt(t.y,n.y,r)};return e&&(i.a=xt(t,n)),i}function xt(t,n){return Math.atan2(n.y-t.y,n.x-t.x)}function kt(t,n,r){var e=arguments.length>3&&void 0!==arguments[3]&&arguments[3];if(_t(n)){if(St(r))return vt(n,r.start,r,t,e)}else if(_t(r)){if(n.end)return vt(n,n.end,r,t,e)}else{if(n.end)return r.start?pt(n,n.end,r.start,r,t,e):vt(n,n.end,r,t,e);if(r.start)return vt(n,r.start,r,t,e)}return wt(n,r,t,e)}function At(t,n,r){var e=kt(t,n,r,!0);return e.a=function(t){var n=arguments.length>1&&void 0!==arguments[1]&&arguments[1];return n?t+Math.PI:t}(e.a)/p,e}function _t(t){return!t.type||"corner"===t.type}function St(t){return null!=t.start&&!_t(t)}var Ot=new rt;var Mt={f:Q,i:b},jt={f:Q,i:function(t,n,r){var e=b(t,n,r);return e<=0?0:e>=1?1:e}};function Ft(t,n,r,e,i,o,u,a){return n=function(t,n,r){for(var e,i,o,u=t.length-1,a={},l=0;l<=u;l++)(e=t[l]).e&&(e.e=n(e.e)),e.v&&"g"===(i=e.v).t&&i.r&&(o=r.getElementById(i.r))&&(a[i.r]=o.querySelectorAll("stop"));return a}(t,e,a),function(e){var i,o=r(e,t,Pt);return o?"c"===o.t?V(o.v):"g"===o.t?(n[o.r]&&function(t,n){for(var r=0,e=t.length;r<e;r++)t[r].setAttribute("stop-color",V(n[r]))}(n[o.r],o.v),(i=o.r)?"url(#"+i+")":"none"):"none":"none"}}function Pt(t,n,r){if(0===t)return n;if(1===t)return r;if(n&&r){var e=n.t;if(e===r.t)switch(n.t){case"c":return{t:e,v:A(t,n.v,r.v)};case"g":if(n.r===r.r)return{t:e,v:_(t,n.v,r.v),r:n.r}}}return m(t,n,r)}var Bt={fill:Ft,"fill-opacity":jt,stroke:Ft,"stroke-opacity":jt,"stroke-width":Mt,"stroke-dashoffset":{f:Q,i:b},"stroke-dasharray":{f:function(t){var n=arguments.length>1&&void 0!==arguments[1]?arguments[1]:" ";return t&&t.length>0&&(t=t.map((function(t){return Math.floor(1e4*t)/1e4}))),U(t,n)},i:function(t,n,r){var e,i,o,u=n.length,a=r.length;if(u!==a)if(0===u)n=S(u=a,0);else if(0===a)a=u,r=S(u,0);else{var l=(o=(e=u)*(i=a)/function(t,n){for(var r;n;)r=n,n=t%n,t=r;return t||1}(e,i))<0?-o:o;n=O(n,Math.floor(l/u)),r=O(r,Math.floor(l/a)),u=a=l}for(var f=[],s=0;s<u;s++)f.push(g(w(t,n[s],r[s]),6));return f}},opacity:jt,transform:function(n,r,e,i){if(!(n=function(n,r){if(!n||"object"!==t(n))return null;var e=!1;for(var i in n)n.hasOwnProperty(i)&&(n[i]&&n[i].length?(n[i].forEach((function(t){t.e&&(t.e=r(t.e))})),e=!0):delete n[i]);return e?n:null}(n,i)))return null;var o=function(t,i,o){var u=arguments.length>3&&void 0!==arguments[3]?arguments[3]:null;return n[t]?e(i,n[t],o):r&&r[t]?r[t]:u};return r&&r.a&&n.o?function(t){var r=e(t,n.o,At);return Ot.recomposeSelf(r,o("r",t,b,0)+r.a,o("k",t,x),o("s",t,x),o("t",t,x)).toString()}:function(t){return Ot.recomposeSelf(o("o",t,kt,null),o("r",t,b,0),o("k",t,x),o("s",t,x),o("t",t,x)).toString()}},r:Mt,"#size":G,"#radius":$,_:function(t,n){if(Array.isArray(t))for(var r=0;r<t.length;r++)this[t[r]]=n;else this[t]=n}};return function(t){!function(t,n){if("function"!=typeof n&&null!==n)throw new TypeError("Super expression must either be null or a function");t.prototype=Object.create(n&&n.prototype,{constructor:{value:t,writable:!0,configurable:!0}}),n&&o(t,n)}(u,t);var r=a(u);function u(){return n(this,u),r.apply(this,arguments)}return e(u,null,[{key:"build",value:function(t){var n=l(i(u),"build",this).call(this,t,Bt);n.el,n.options;var r=n.player;return function(t,n,r){t.play()}(r),r}}]),u}(L)}));
__SVGATOR_PLAYER__.build({"root":"ewotqpOeNCc1","animations":[{"duration":6000,"direction":1,"iterations":0,"fill":1,"alternate":false,"speed":1,"elements":{"ewotqpOeNCc4":{"transform":{"data":{"t":{"x":-153.5,"y":-85.8}},"keys":{"o":[{"t":0,"v":{"x":153.5,"y":85.8,"type":"corner"}},{"t":300,"v":{"x":154.5,"y":88.959693925,"type":"corner"}},{"t":700,"v":{"x":153.94840692499994,"y":87.60953943999989,"type":"corner"}}],"r":[{"t":0,"v":0},{"t":300,"v":-1.6346109516883551},{"t":700,"v":-0.31477231373146075}]}}},"ewotqpOeNCc7":{"transform":{"data":{"s":{"x":0.9431802671431598,"y":0.960812183277717},"t":{"x":-57.742672205,"y":-62.07260895}},"keys":{"o":[{"t":0,"v":{"x":61.040338615,"y":62.72171548999999,"type":"corner"}},{"t":300,"v":{"x":60.226295065,"y":73.2696284100001,"type":"corner"}},{"t":700,"v":{"x":61.040338615,"y":62.72171548999999,"type":"corner"}}],"r":[{"t":0,"v":0},{"t":300,"v":-12.02260915211855},{"t":700,"v":-0.31477231373146075}]}}},"ewotqpOeNCc12":{"transform":{"data":{"o":{"x":115.69999695,"y":174.1,"type":"corner"},"t":{"x":-115.69999695,"y":-174.1}},"keys":{"r":[{"t":0,"v":-0.31477231373146075},{"t":300,"v":-1.4577062913555499},{"t":700,"v":-0.31477231373146075}],"s":[{"t":0,"v":{"x":1,"y":1}},{"t":300,"v":{"x":1,"y":0.9970527315095408}},{"t":700,"v":{"x":1,"y":1}}]}}},"ewotqpOeNCc37":{"transform":{"data":{"t":{"x":-137.063961025,"y":-99.16408539}},"keys":{"o":[{"t":0,"v":{"x":137.063961025,"y":99.16408539,"type":"corner"}},{"t":300,"v":{"x":135.063961025,"y":100.16408539,"type":"corner"}},{"t":700,"v":{"x":136.37339859000014,"y":98.86706123999997,"type":"corner"}}],"r":[{"t":0,"v":0},{"t":300,"v":-4.815583371926996},{"t":700,"v":-0.31477231373146075}]}}}}}],"options":{"start":"load","hover":"freeze","click":"freeze","scroll":25,"font":"embed","exportedIds":"unique","svgFormat":"animated","title":"header-Jerry"},"animationSettings":{"duration":6000,"direction":1,"iterations":0,"fill":1,"alternate":false,"speed":1}})]]></script></svg>