<svg cache-id="359aacfc55ae46b5a4e3fc01bee6bb7a" id="ePmcfxuYE0e1" xmlns="http://www.w3.org/2000/svg" xmlns:xlink="http://www.w3.org/1999/xlink" viewBox="0 0 143 185" shape-rendering="geometricPrecision" text-rendering="geometricPrecision" width="143" height="185"><g id="ePmcfxuYE0e2" clip-path="url(#ePmcfxuYE0e68)"><g id="ePmcfxuYE0e3"><path id="ePmcfxuYE0e4" d="M8.300000,113.400000C8.300000,113.400000,8.200000,98.400000,30.900000,93C53.600000,87.700000,126.200000,80.100000,137.800000,102C137.800000,102,142.800000,103.800000,140.200000,115.300000C137.700000,126.800000,110.300000,143.500000,110.300000,143.500000L47.300000,143.500000L21.900000,134.200000C21.800000,134.200000,7,124.500000,8.300000,113.400000Z" fill="rgb(72,58,53)" stroke="none" stroke-width="1" stroke-miterlimit="1"/><path id="ePmcfxuYE0e5" d="M67.400000,88.700000C67.400000,88.800000,65.300000,88.600000,65.300000,88.700000C61.300000,88.900000,56.200000,89.400000,54.700000,89.700000C54.600000,89.100000,53.800000,88.300000,53.700000,87.700000C53.600000,86.900000,54,86.400000,53.700000,85.700000C57.100000,85.300000,64.400000,85,68.400000,84.700000C67.900000,85.800000,67.600000,87.300000,67.400000,88.700000Z" fill="rgb(240,128,0)" stroke="none" stroke-width="1" stroke-miterlimit="1"/><path id="ePmcfxuYE0e6" d="M66.900000,88.500000C67.700000,88,67.700000,88.400000,67.400000,88.300000C67.300000,88.300000,67.200000,88.300000,67,88.300000C66.700000,88.300000,66.400000,88.300000,66.200000,88.300000C65.700000,88.300000,65.300000,88.300000,64.800000,88.500000C65,88.400000,65.300000,88.400000,65.500000,88.300000C61.900000,88.500000,58.200000,88.600000,54.700000,89.300000C54.900000,89.400000,55.100000,89.400000,55.300000,89.500000C55.100000,88.800000,54.500000,88.300000,54.400000,87.700000C54.200000,87,54.600000,86.300000,54.400000,85.600000C54.100000,85.800000,53.800000,86,53.600000,86.200000C58.500000,85.600000,63.400000,85.600000,68.300000,85.200000C68.100000,85.100000,67.900000,85,67.700000,84.900000C67.200000,86.200000,66.900000,87.500000,66.700000,88.800000C66.600000,89.300000,68.100000,89.100000,68.100000,88.600000C68.300000,87.300000,68.600000,85.900000,69.100000,84.700000C69.200000,84.400000,68.600000,84.400000,68.500000,84.400000C63.600000,84.700000,58.700000,84.800000,53.800000,85.400000C53.600000,85.400000,52.800000,85.600000,53,86C53.300000,86.700000,52.800000,87.400000,53,88.100000C53.200000,88.800000,53.800000,89.200000,53.900000,89.900000C54,90.100000,54.400000,90.100000,54.500000,90.100000C57,89.600000,59.600000,89.500000,62.100000,89.300000C62.900000,89.200000,63.700000,89.200000,64.500000,89.100000C64.900000,89.100000,65.200000,89.100000,65.500000,89C66.100000,88.800000,64.800000,89,65.100000,89.100000C65.200000,89.100000,65.300000,89.100000,65.300000,89.100000C66,89.100000,67.100000,89.300000,67.700000,88.900000C67.900000,88.800000,68.100000,88.500000,67.800000,88.400000C67.700000,88.200000,67.200000,88.400000,66.900000,88.500000Z" fill="rgb(72,58,53)" stroke="none" stroke-width="1" stroke-miterlimit="1"/><path id="ePmcfxuYE0e7" d="M67.900000,115C67.900000,115,65.600000,115.400000,62.200000,115C62.200000,115,64.800000,116.400000,67.900000,115Z" fill="rgb(0,0,0)" stroke="none" stroke-width="1" stroke-miterlimit="1"/><path id="ePmcfxuYE0e8" d="M95.200000,105.900000C95.200000,105.900000,93,107.500000,91.400000,107.800000C91.300000,107.800000,93.600000,108.300000,95.200000,105.900000Z" fill="rgb(0,0,0)" stroke="none" stroke-width="1" stroke-miterlimit="1"/><path id="ePmcfxuYE0e9" d="M140.400000,103.100000C140.700000,104.200000,140.700000,105.300000,140.500000,106.400000C138.400000,103.400000,130.300000,94.400000,104.900000,90.700000C103.700000,90.200000,102.900000,89.900000,102.700000,89.900000C102.300000,90,102,90.100000,101.800000,90.300000C96.400000,89.600000,88,88.800000,81,88.700000C80.900000,88.400000,81.100000,88.100000,81,87.700000C80.700000,86.500000,80.600000,86,80,84.800000C113.600000,84.900000,134.800000,94.100000,140.400000,103.100000Z" fill="rgb(240,128,0)" stroke="none" stroke-width="1" stroke-miterlimit="1"/><path id="ePmcfxuYE0e10" d="M139.700000,103.300000C140,104.400000,140,105.400000,139.800000,106.500000C140.300000,106.400000,140.700000,106.300000,141.200000,106.100000C138.500000,102.200000,134.300000,99.500000,130.100000,97.400000C125.900000,95.300000,121.500000,93.800000,117,92.600000C114.100000,91.800000,111.100000,91.200000,108.100000,90.700000C106.700000,90.500000,105.400000,90.200000,104,89.700000C102.900000,89.300000,102.600000,89.600000,101.600000,89.800000C102.100000,89.700000,101.100000,89.600000,101.100000,89.700000C100.800000,89.700000,100.400000,89.600000,100.100000,89.600000C99.200000,89.500000,98.400000,89.400000,97.500000,89.300000C95.900000,89.100000,94.200000,89,92.500000,88.900000C88.800000,88.600000,85,88.400000,81.300000,88.300000C81.500000,88.400000,81.600000,88.500000,81.800000,88.600000C81.700000,87.900000,81.700000,87.300000,81.500000,86.600000C81.300000,85.900000,81.100000,85.300000,80.800000,84.700000C80.500000,84.900000,80.100000,85.100000,79.800000,85.400000C90.900000,85.400000,102.200000,86.400000,113,89.100000C120.300000,90.900000,127.700000,93.400000,133.900000,97.800000C136.200000,99.400000,138.300000,101.300000,139.800000,103.600000C140.100000,104.100000,141.500000,103.600000,141.100000,103C138,98.200000,132.400000,95.100000,127.300000,92.800000C119,89.100000,110,87.100000,101,85.900000C94.100000,85,87.200000,84.600000,80.300000,84.600000C80,84.600000,79.100000,84.800000,79.300000,85.300000C79.600000,85.900000,79.800000,86.600000,80,87.200000C80.200000,87.900000,80.200000,88.500000,80.300000,89.200000C80.300000,89.400000,80.600000,89.500000,80.800000,89.500000C86.900000,89.600000,93.100000,90.100000,99.200000,90.800000C100.100000,90.900000,101.200000,91.200000,102.200000,91C102.500000,90.900000,102.500000,90.800000,102.800000,90.800000C102.900000,90.800000,103.100000,90.900000,103.300000,91C104.100000,91.300000,104.700000,91.600000,105.500000,91.700000C108.600000,92.200000,111.800000,92.800000,114.800000,93.500000C122.300000,95.300000,130.100000,98.100000,136.100000,103C137.500000,104.200000,138.900000,105.500000,140,107.100000C140.300000,107.500000,141.300000,107.200000,141.400000,106.700000C141.600000,105.500000,141.500000,104.400000,141.200000,103.300000C141,102.300000,139.600000,102.700000,139.700000,103.300000Z" fill="rgb(72,58,53)" stroke="none" stroke-width="1" stroke-miterlimit="1"/><g id="ePmcfxuYE0e11"><path id="ePmcfxuYE0e12" d="M14,118.400000C12.700000,116.400000,11.800000,113.900000,11.800000,111.900000L45,129.100000C29.200000,126.500000,19.200000,121.600000,14,118.400000Z" fill="rgb(189,10,10)" stroke="none" stroke-width="1" stroke-miterlimit="1"/><path id="ePmcfxuYE0e13" d="M54.200000,130.300000C51.100000,128.600000,41.800000,123.300000,33.100000,118.600000C21,112.100000,15.400000,109.300000,12.800000,108.100000C13.800000,106.100000,15.600000,104.200000,18.200000,102.400000L72.400000,131C65.700000,131,59.700000,130.800000,54.200000,130.300000Z" transform="matrix(1 0 0 1 0 0.09999999999999)" fill="rgb(189,10,10)" stroke="none" stroke-width="1" stroke-miterlimit="1"/><path id="ePmcfxuYE0e14" d="M39.600000,100.200000C39.700000,101.100000,39.900000,102.100000,40.200000,103C41.200000,106.500000,43,109.600000,45.500000,112C35.400000,106.800000,26.300000,102.100000,21.900000,100C24.700000,98.500000,28,97,31.700000,95.700000L31.700000,95.800000L39.600000,100.200000Z" fill="rgb(189,10,10)" stroke="none" stroke-width="1" stroke-miterlimit="1"/><path id="ePmcfxuYE0e15" d="M67.100000,98.500000L56.800000,92.900000C56.700000,92.400000,56.500000,91.900000,56.400000,91.300000C58.100000,90.900000,63.200000,90.400000,65.100000,90.200000C65,93,65.700000,95.900000,67.100000,98.500000Z" fill="rgb(189,10,10)" stroke="none" stroke-width="1" stroke-miterlimit="1"/><path id="ePmcfxuYE0e16" d="M80.600000,130.500000C75.700000,127.900000,67.200000,123.400000,58,118.600000C64,120.300000,67.200000,119.500000,68.300000,119.100000C68.600000,120.500000,68.900000,121.900000,69,122.600000C69,122.700000,69,122.700000,69,122.800000C69,123.100000,69.100000,123.300000,69.200000,123.500000C70.300000,124.900000,75.200000,122.300000,76.800000,121.200000C77.300000,120.800000,77.700000,120.500000,78,120.200000L77.900000,120.400000L94.400000,129C90.100000,129.700000,85.500000,130.200000,80.600000,130.500000Z" fill="rgb(189,10,10)" stroke="none" stroke-width="1" stroke-miterlimit="1"/><path id="ePmcfxuYE0e17" d="M116.200000,124.200000L89.600000,110.700000C93.500000,110.400000,95.800000,109.300000,96.900000,108.500000C97.200000,109.500000,97.300000,110.500000,97.400000,111C97.400000,111.100000,97.400000,111.100000,97.400000,111.200000C97.400000,111.400000,97.500000,111.700000,97.700000,111.900000C98.800000,113.200000,103.900000,110.300000,105.600000,109.100000C105.700000,109,105.800000,109,105.800000,108.900000L126.900000,119.900000C123.900000,121.400000,120.300000,122.800000,116.200000,124.200000Z" transform="matrix(1 0 0 1 0 0.34999999999999)" fill="rgb(189,10,10)" stroke="none" stroke-width="1" stroke-miterlimit="1"/><path id="ePmcfxuYE0e18" d="M130.200000,118.100000L107.600000,106.700000C107.600000,106.600000,107.600000,106.500000,107.500000,106.400000C106.800000,105.500000,105,105.800000,104,106.100000C104.100000,105.800000,104.100000,105.300000,104.100000,104.900000C104.100000,104.500000,104,104,103.700000,103.700000C103.500000,103.500000,103.200000,103.200000,102.500000,103.300000L102.400000,103.300000C102.100000,103.200000,101.700000,103.200000,101.300000,103.100000C102.500000,100.800000,102.800000,98.700000,101.800000,97C99.600000,93.100000,92.700000,91.800000,88.700000,91.900000C87.300000,91.900000,86,91.900000,85,91.900000C84.600000,91.400000,84.200000,90.800000,83.800000,90.100000C90.200000,90.300000,95.900000,90.800000,101,91.500000C101,91.600000,100.900000,91.800000,100.900000,91.900000L100.900000,92.200000L137.900000,111.900000C136.100000,114.100000,133.600000,116.100000,130.200000,118.100000Z" fill="rgb(189,10,10)" stroke="none" stroke-width="1" stroke-miterlimit="1"/><path id="ePmcfxuYE0e19" d="M139.900000,108.700000C132.400000,104.700000,118.500000,97.300000,110,93.100000C133,97.800000,139.500000,106.400000,140.300000,107.700000C140.200000,108,140.100000,108.300000,139.900000,108.700000Z" fill="rgb(189,10,10)" stroke="none" stroke-width="1" stroke-miterlimit="1"/><path id="ePmcfxuYE0e20" d="M100.100000,128.200000L75.200000,115.800000L75.200000,115.700000C75,115.500000,74.700000,115.200000,74.100000,115.200000L74,115.200000C73.800000,115.200000,73.700000,115.100000,73.500000,115.100000C74.500000,113,74.800000,110.700000,74,108.900000C72.300000,104.900000,66.500000,102.800000,62,101.400000C61.600000,101.300000,61.300000,101.200000,61,101.100000C60,100.100000,59.100000,98.800000,58.400000,97.300000L71.200000,104.100000C74.300000,107.200000,78.400000,109.500000,82.900000,110.300000L111.600000,125.600000C108,126.500000,104.200000,127.400000,100.100000,128.200000Z" fill="rgb(189,10,10)" stroke="none" stroke-width="1" stroke-miterlimit="1"/></g><g id="ePmcfxuYE0e21"><path id="ePmcfxuYE0e22" d="M14,118.400000C12.700000,116.400000,11.800000,113.900000,11.800000,111.900000L45,129.100000C29.200000,126.500000,19.200000,121.600000,14,118.400000Z" fill="rgb(75,87,94)" stroke="none" stroke-width="1" stroke-miterlimit="1"/><path id="ePmcfxuYE0e23" d="M54.200000,130.300000C51.100000,128.600000,41.800000,123.300000,33.100000,118.600000C21,112.100000,15.400000,109.300000,12.800000,108.100000C13.800000,106.100000,15.600000,104.200000,18.200000,102.400000L72.400000,131C65.700000,131,59.700000,130.800000,54.200000,130.300000Z" fill="rgb(75,87,94)" stroke="none" stroke-width="1" stroke-miterlimit="1"/><path id="ePmcfxuYE0e24" d="M39.600000,100.200000C39.700000,101.100000,39.900000,102.100000,40.200000,103C41.200000,106.500000,43,109.600000,45.500000,112C35.400000,106.800000,26.300000,102.100000,21.900000,100C24.700000,98.500000,28,97,31.700000,95.700000L31.700000,95.800000L39.600000,100.200000Z" fill="rgb(75,87,94)" stroke="none" stroke-width="1" stroke-miterlimit="1"/><path id="ePmcfxuYE0e25" d="M67.100000,98.500000L56.800000,92.900000C56.700000,92.400000,56.500000,91.900000,56.400000,91.300000C58.100000,90.900000,63.200000,90.400000,65.100000,90.200000C65,93,65.700000,95.900000,67.100000,98.500000Z" fill="rgb(75,87,94)" stroke="none" stroke-width="1" stroke-miterlimit="1"/><path id="ePmcfxuYE0e26" d="M80.600000,130.500000C75.700000,127.900000,67.200000,123.400000,58,118.600000C64,120.300000,67.200000,119.500000,68.300000,119.100000C68.600000,120.500000,68.900000,121.900000,69,122.600000C69,122.700000,69,122.700000,69,122.800000C69,123.100000,69.100000,123.300000,69.200000,123.500000C70.300000,124.900000,75.200000,122.300000,76.800000,121.200000C77.300000,120.800000,77.700000,120.500000,78,120.200000L77.900000,120.400000L94.400000,129C90.100000,129.700000,85.500000,130.200000,80.600000,130.500000Z" fill="rgb(75,87,94)" stroke="none" stroke-width="1" stroke-miterlimit="1"/><path id="ePmcfxuYE0e27" d="M116.200000,124.200000L89.600000,110.700000C93.500000,110.400000,95.800000,109.300000,96.900000,108.500000C97.200000,109.500000,97.300000,110.500000,97.400000,111C97.400000,111.100000,97.400000,111.100000,97.400000,111.200000C97.400000,111.400000,97.500000,111.700000,97.700000,111.900000C98.800000,113.200000,103.900000,110.300000,105.600000,109.100000C105.700000,109,105.800000,109,105.800000,108.900000L126.900000,119.900000C123.900000,121.400000,120.300000,122.800000,116.200000,124.200000Z" transform="matrix(1 0 0 1 0 0.34999999999999)" fill="rgb(75,87,94)" stroke="none" stroke-width="1" stroke-miterlimit="1"/><path id="ePmcfxuYE0e28" d="M130.200000,118.100000L107.600000,106.700000C107.600000,106.600000,107.600000,106.500000,107.500000,106.400000C106.800000,105.500000,105,105.800000,104,106.100000C104.100000,105.800000,104.100000,105.300000,104.100000,104.900000C104.100000,104.500000,104,104,103.700000,103.700000C103.500000,103.500000,103.200000,103.200000,102.500000,103.300000L102.400000,103.300000C102.100000,103.200000,101.700000,103.200000,101.300000,103.100000C102.500000,100.800000,102.800000,98.700000,101.800000,97C99.600000,93.100000,92.700000,91.800000,88.700000,91.900000C87.300000,91.900000,86,91.900000,85,91.900000C84.600000,91.400000,84.200000,90.800000,83.800000,90.100000C90.200000,90.300000,95.900000,90.800000,101,91.500000C101,91.600000,100.900000,91.800000,100.900000,91.900000L100.900000,92.200000L137.900000,111.900000C136.100000,114.100000,133.600000,116.100000,130.200000,118.100000Z" fill="rgb(75,87,94)" stroke="none" stroke-width="1" stroke-miterlimit="1"/><path id="ePmcfxuYE0e29" d="M139.900000,108.700000C132.400000,104.700000,118.500000,97.300000,110,93.100000C133,97.800000,139.500000,106.400000,140.300000,107.700000C140.200000,108,140.100000,108.300000,139.900000,108.700000Z" fill="rgb(75,87,94)" stroke="none" stroke-width="1" stroke-miterlimit="1"/><path id="ePmcfxuYE0e30" d="M100.100000,128.200000L75.200000,115.800000L75.200000,115.700000C75,115.500000,74.700000,115.200000,74.100000,115.200000L74,115.200000C73.800000,115.200000,73.700000,115.100000,73.500000,115.100000C74.500000,113,74.800000,110.700000,74,108.900000C72.300000,104.900000,66.500000,102.800000,62,101.400000C61.600000,101.300000,61.300000,101.200000,61,101.100000C60,100.100000,59.100000,98.800000,58.400000,97.300000L71.200000,104.100000C74.300000,107.200000,78.400000,109.500000,82.900000,110.300000L111.600000,125.600000C108,126.500000,104.200000,127.400000,100.100000,128.200000Z" fill="rgb(75,87,94)" stroke="none" stroke-width="1" stroke-miterlimit="1"/></g><path id="ePmcfxuYE0e31" d="M48,129.600000C43,127,10.200000,110.200000,9.899990,110C9.799990,109.800000,9.799990,109.500000,9.799990,109.200000C9.799990,108.800000,9.899990,108.400000,10.300000,108.200000C12.400000,108.400000,35.900000,121,52.200000,130.100000C50.700000,129.900000,49.400000,129.700000,48,129.600000Z" fill="rgb(240,128,0)" stroke="rgb(72,58,53)" stroke-width="1" stroke-miterlimit="1"/><path id="ePmcfxuYE0e32" d="M74.900000,130.800000C71.500000,129,18.900000,101.600000,18.400000,101.400000C18.400000,101,18.500000,100.200000,18.800000,99.800000C18.900000,99.700000,19.100000,99.600000,19.300000,99.600000C19.500000,99.600000,20,99.900000,20.900000,100.300000L21,100.500000C21.100000,100.500000,21.100000,100.400000,21.200000,100.400000C25.500000,102.500000,36.500000,108.200000,48.900000,114.800000C49.700000,115.300000,50.600000,115.800000,51.500000,116.200000C51.600000,116.300000,51.800000,116.300000,51.900000,116.400000C60.900000,121.200000,70.500000,126.300000,78.800000,130.600000C77.500000,130.700000,76.200000,130.800000,74.900000,130.800000Z" fill="rgb(240,128,0)" stroke="rgb(72,58,53)" stroke-width="1" stroke-miterlimit="1"/><path id="ePmcfxuYE0e33" d="M43.300000,88C45.500000,84.600000,48.400000,83,51,83.600000C53,84.100000,54.500000,85.900000,54.800000,88.400000C55.400000,93.300000,55.900000,97.300000,58.500000,100.200000C54.800000,98.400000,54.500000,96.800000,54.500000,96.800000C54.500000,96.800000,53.900000,100.300000,61.600000,102.700000C65.900000,104,71.200000,106.300000,72.700000,109.900000C73.400000,111.500000,73.200000,113.100000,72.300000,115C71.600000,114.800000,70.800000,114.700000,70.300000,114.600000C71,113,70.500000,111.100000,70.500000,111.100000C70.400000,112.400000,69.900000,113.900000,69.600000,114.600000C69.600000,114.600000,69.600000,114.600000,69.500000,114.600000C68.900000,110.900000,66.700000,110,66.700000,110C68.300000,111.600000,68.800000,113.900000,69,114.800000C68.200000,115.400000,67.300000,116.500000,67.300000,116.500000C67.600000,116.800000,67.800000,117.400000,68,118.200000C67,118.500000,62.400000,119.600000,52.300000,115C47,112.600000,43.200000,108.200000,41.600000,102.600000C40.100000,97.200000,40.800000,91.700000,43.300000,88Z" fill="rgb(231,36,16)" stroke="none" stroke-width="1" stroke-miterlimit="1"/><path id="ePmcfxuYE0e34" d="M43.700000,88C45.500000,85.400000,49.200000,81.900000,52.400000,84.500000C53.900000,85.700000,54.200000,87.600000,54.400000,89.400000C54.700000,91.300000,54.900000,93.200000,55.400000,95C55.900000,96.900000,56.700000,98.600000,58,100.100000C58.300000,100.100000,58.600000,100,58.800000,100C57.600000,99.400000,56.400000,98.700000,55.500000,97.700000C55.300000,97.400000,55,97,54.900000,96.700000C54.800000,96.400000,54,96.300000,53.900000,96.600000C53.600000,98.400000,55.600000,100,56.900000,100.800000C58.900000,102.100000,61.200000,102.600000,63.400000,103.400000C65.700000,104.300000,68.100000,105.300000,70,106.900000C70.900000,107.700000,71.700000,108.600000,72.200000,109.700000C72.900000,111.400000,72.600000,113.100000,71.800000,114.700000C72,114.700000,72.300000,114.600000,72.500000,114.600000C71.800000,114.400000,71.100000,114.300000,70.400000,114.200000C70.500000,114.300000,70.600000,114.400000,70.700000,114.500000C71.200000,113.400000,71.200000,112.100000,70.900000,110.900000C70.800000,110.600000,69.900000,110.500000,69.900000,110.800000C69.800000,112,69.500000,113.200000,69,114.300000C69.100000,114.300000,69.100000,114.200000,69.200000,114.200000C69.200000,114.200000,69.200000,114.200000,69.100000,114.200000C69.400000,114.300000,69.700000,114.300000,69.900000,114.400000C69.600000,112.700000,68.800000,110.400000,67,109.700000C66.900000,109.600000,65.900000,109.600000,66.200000,109.900000C67.200000,111,67.900000,112.400000,68.200000,113.800000C68.200000,114,68.400000,114.300000,68.300000,114.500000C68.300000,114.700000,67.800000,115,67.700000,115.100000C67.300000,115.500000,67,115.800000,66.700000,116.300000L66.700000,116.400000C67.100000,116.900000,67.300000,117.500000,67.400000,118.100000C67.400000,118,67.500000,118,67.500000,117.900000C66.600000,118.200000,65.300000,118.200000,64.300000,118.200000C61.400000,118,58.500000,117.200000,55.700000,116.100000C52.200000,114.800000,48.800000,113.100000,46.300000,110.300000C43.900000,107.600000,42.300000,104.300000,41.600000,100.800000C40.900000,96.500000,41.300000,91.700000,43.700000,88C43.900000,87.800000,42.900000,87.600000,42.700000,87.800000C38.400000,94.400000,40,103.900000,45,109.700000C47.500000,112.700000,50.800000,114.500000,54.400000,115.900000C57.400000,117.100000,60.600000,118.100000,63.800000,118.400000C65.300000,118.500000,66.900000,118.600000,68.300000,118.100000C68.400000,118.100000,68.500000,118,68.400000,117.900000C68.300000,117.500000,68.200000,117.100000,68,116.800000C67.900000,116.700000,67.800000,116.500000,67.800000,116.400000C67.800000,116.300000,67.700000,116.400000,67.800000,116.300000C67.900000,116.100000,68.200000,115.800000,68.300000,115.700000C68.600000,115.400000,68.900000,115.100000,69.300000,114.800000L69.400000,114.700000C69.100000,112.900000,68.400000,111.100000,67.100000,109.800000C66.800000,109.900000,66.600000,109.900000,66.300000,110C67.900000,110.600000,68.700000,112.900000,68.900000,114.400000C68.900000,114.700000,69.500000,114.700000,69.700000,114.600000C70.100000,114.500000,70.200000,113.600000,70.300000,113.300000C70.500000,112.500000,70.700000,111.700000,70.700000,110.900000C70.400000,110.900000,70,110.900000,69.700000,110.800000C70,111.900000,70,113.200000,69.500000,114.300000C69.400000,114.500000,69.700000,114.500000,69.800000,114.600000C70.400000,114.700000,71.100000,114.800000,71.700000,115C71.800000,115,72.300000,115.100000,72.400000,114.900000C73,113.700000,73.400000,112.300000,73.200000,110.900000C73,109.800000,72.500000,108.800000,71.800000,108C70.300000,106.200000,68.200000,105,66.100000,104.100000C63.800000,103,61.300000,102.500000,58.900000,101.400000C57.400000,100.700000,55.900000,99.800000,55,98.300000C54.700000,97.800000,54.500000,97.200000,54.600000,96.700000C54.300000,96.700000,53.900000,96.700000,53.600000,96.600000C53.700000,97,54,97.400000,54.300000,97.800000C55.200000,98.900000,56.500000,99.600000,57.800000,100.200000C57.900000,100.300000,58.800000,100.300000,58.600000,100.100000C55.800000,96.900000,55.500000,92.400000,54.900000,88.400000C54.600000,86.600000,53.800000,84.900000,52.200000,84C50.800000,83.200000,49.100000,83.100000,47.500000,83.600000C45.300000,84.300000,43.600000,86.100000,42.400000,87.900000C42.600000,88.100000,43.600000,88.300000,43.700000,88Z" fill="rgb(72,58,53)" stroke="none" stroke-width="1" stroke-miterlimit="1"/><path id="ePmcfxuYE0e35" d="M57.800000,96C57.600000,95.400000,57.400000,94.800000,57.200000,94.100000L68,100C68.400000,100.700000,68.900000,101.400000,69.400000,102L57.800000,96Z" fill="rgb(240,128,0)" stroke="rgb(72,58,53)" stroke-width="1" stroke-miterlimit="1"/><path id="ePmcfxuYE0e36" d="M77.900000,119.100000C77.700000,119.800000,73.800000,122.300000,71.200000,123C70.100000,123.300000,69.900000,123.100000,69.900000,123.100000C69.800000,123,69.800000,122.900000,69.800000,122.800000C70,122,73,119.300000,73,119.300000C71.700000,118.900000,71,118.300000,71,117.800000C71.100000,117,73,116.100000,73.900000,116C74.100000,116,74.200000,116.100000,74.300000,116.100000C74.600000,116.500000,74.700000,119.100000,74.700000,119.100000C75.700000,118.900000,77.400000,118.500000,77.900000,119.100000Z" fill="rgb(231,36,16)" stroke="none" stroke-width="1" stroke-miterlimit="1"/><path id="ePmcfxuYE0e37" d="M77.400000,119.100000C77.300000,119.300000,77,119.600000,76.900000,119.700000C76.500000,120,76.100000,120.300000,75.700000,120.600000C74.700000,121.300000,73.600000,121.900000,72.400000,122.400000C71.800000,122.600000,71.300000,122.800000,70.700000,123C70.600000,123,70.400000,123,70.300000,123.100000C70.200000,123.100000,70.300000,123.100000,70.300000,123.100000C70.400000,123.100000,70.300000,123.200000,70.400000,123.100000C70.400000,123,70.400000,122.900000,70.400000,122.900000C70.500000,122.600000,70.800000,122.300000,71,122C71.300000,121.600000,71.700000,121.300000,72,121C72.500000,120.500000,73,120,73.600000,119.600000C73.700000,119.500000,73.400000,119.400000,73.400000,119.400000C72.900000,119.200000,71.300000,118.700000,71.700000,117.900000C72,117.200000,73.100000,116.800000,73.800000,116.600000C73.800000,116.600000,74,116.600000,74.100000,116.600000C74.200000,116.500000,74,116.500000,74,116.600000L74.100000,116.900000C74.200000,117.200000,74.200000,117.600000,74.200000,117.900000C74.200000,118.400000,74.300000,118.900000,74.300000,119.400000C74.300000,119.700000,75,119.600000,75.100000,119.600000C75.500000,119.500000,75.900000,119.400000,76.300000,119.300000C76.700000,119,77.200000,118.900000,77.400000,119.100000C77.600000,119.300000,77.800000,119.300000,78,119.300000C78.100000,119.300000,78.500000,119.200000,78.400000,119.100000C78,118.600000,77.200000,118.600000,76.600000,118.600000C75.900000,118.600000,75.200000,118.800000,74.500000,119C74.800000,119.100000,75.100000,119.100000,75.300000,119.200000C75.300000,118.700000,75.200000,118.200000,75.200000,117.700000C75.200000,117.200000,75.200000,116.400000,74.700000,116.100000C74,115.700000,72.800000,116.100000,72.100000,116.400000C71.600000,116.700000,70.600000,117.200000,70.500000,117.900000C70.500000,118.800000,72.100000,119.300000,72.700000,119.500000C72.600000,119.400000,72.600000,119.300000,72.500000,119.300000C71.900000,119.800000,71.400000,120.300000,70.900000,120.800000C70.500000,121.200000,70.100000,121.600000,69.800000,122C69.600000,122.300000,69.200000,122.600000,69.200000,123C69.200000,123.400000,69.700000,123.500000,70,123.500000C70.700000,123.500000,71.400000,123.300000,72,123.100000C73.300000,122.700000,74.600000,122,75.800000,121.300000C76.400000,120.900000,76.900000,120.600000,77.500000,120.100000C77.800000,119.900000,78.100000,119.600000,78.200000,119.200000C78.500000,118.900000,77.500000,118.800000,77.400000,119.100000Z" fill="rgb(72,58,53)" stroke="none" stroke-width="1" stroke-miterlimit="1"/><path id="ePmcfxuYE0e38" d="M69.600000,121.600000C69.500000,118.900000,68.300000,116.400000,68.300000,116.400000C68.300000,116.400000,69.600000,114.900000,70.100000,114.800000C70.400000,114.800000,71.600000,115.300000,72.300000,115.700000C71.300000,116.100000,70.300000,116.900000,70.200000,117.800000C70.200000,117.900000,70.200000,117.900000,70.200000,118C70.200000,118.700000,70.800000,119.300000,71.900000,119.800000C71.200000,120.200000,70.300000,120.800000,69.600000,121.600000Z" fill="rgb(231,36,16)" stroke="none" stroke-width="1" stroke-miterlimit="1"/><path id="ePmcfxuYE0e39" d="M70.100000,121.700000C70,120,69.600000,118.400000,69,116.900000C69,116.800000,68.900000,116.600000,68.800000,116.500000C68.800000,116.500000,68.700000,116.600000,68.800000,116.500000C68.900000,116.500000,68.900000,116.400000,69,116.300000C69.400000,115.900000,69.800000,115.400000,70.300000,115.100000C70.300000,115.100000,70.400000,115.100000,70.400000,115C70.400000,115,70.500000,115,70.400000,115C70.400000,115,70.200000,115,70.300000,115C70.400000,115.100000,70.600000,115.100000,70.800000,115.200000C71.200000,115.400000,71.700000,115.600000,72.100000,115.800000C72.100000,115.700000,72,115.600000,72,115.500000C71.100000,115.900000,69.800000,116.700000,69.800000,117.900000C69.800000,118.900000,70.900000,119.600000,71.700000,120C71.700000,119.900000,71.600000,119.800000,71.600000,119.700000C70.700000,120.200000,69.900000,120.800000,69.200000,121.500000C69,121.600000,69.900000,121.900000,70.100000,121.700000C70.700000,121,71.500000,120.500000,72.300000,120C72.500000,119.900000,72.300000,119.800000,72.200000,119.700000C71.500000,119.400000,70.600000,118.800000,70.700000,117.900000C70.800000,116.900000,71.900000,116.300000,72.700000,115.900000C72.900000,115.800000,72.700000,115.700000,72.600000,115.600000C72,115.300000,71.400000,115,70.800000,114.800000C70.400000,114.600000,69.900000,114.500000,69.400000,114.700000C68.800000,115,68.200000,115.700000,67.700000,116.200000L67.700000,116.300000C68.500000,117.900000,68.900000,119.700000,69,121.400000C69.100000,121.800000,70.100000,121.900000,70.100000,121.700000Z" fill="rgb(72,58,53)" stroke="none" stroke-width="1" stroke-miterlimit="1"/><path id="ePmcfxuYE0e40" d="M39.500000,96.400000C38.700000,95.900000,37.500000,95,36.300000,94.300000C37.800000,93.900000,39.100000,93.500000,39.900000,93.300000C39.600000,94.400000,39.500000,95.400000,39.500000,96.400000Z" fill="rgb(75,87,94)" stroke="none" stroke-width="1" stroke-miterlimit="1"/><path id="ePmcfxuYE0e41" d="M39.400000,97.500000C39.400000,98,39.400000,98.500000,39.500000,99.100000C37.500000,98,33,95.600000,32.600000,95.400000C32.600000,95,32.700000,93.900000,33.300000,93.900000C34,93.800000,36.900000,95.800000,39.400000,97.500000Z" fill="rgb(240,128,0)" stroke="rgb(72,58,53)" stroke-width="1" stroke-miterlimit="1"/><path id="ePmcfxuYE0e42" d="M96,128.900000L78.500000,119.800000C78.800000,119.400000,78.800000,119,78.600000,118.700000C78,117.700000,76.300000,117.900000,75.200000,118.200000C75.300000,117.800000,75.300000,117.400000,75.300000,117C75.300000,116.900000,75.300000,116.900000,75.300000,116.800000L98.400000,128.500000C97.700000,128.600000,96.900000,128.700000,96,128.900000Z" fill="rgb(240,128,0)" stroke="rgb(72,58,53)" stroke-width="1" stroke-miterlimit="1"/><path id="ePmcfxuYE0e43" d="M112.800000,125.200000L85.200000,110.600000C86.100000,110.700000,86.900000,110.700000,87.700000,110.800000L114.700000,124.700000C114,124.900000,113.400000,125,112.800000,125.200000Z" fill="rgb(240,128,0)" stroke="rgb(72,58,53)" stroke-width="1" stroke-miterlimit="1"/><path id="ePmcfxuYE0e44" d="M98.500000,103.300000C98.700000,103.300000,99.200000,103.400000,99.800000,103.600000C99.700000,103.800000,99.600000,104,99.400000,104.200000L99.900000,104.500000C99.300000,104.900000,98.800000,105.500000,98.700000,106.100000C98.700000,106.200000,98.700000,106.200000,98.700000,106.300000C98.700000,107,99.300000,107.500000,100.500000,107.900000C99.800000,108.400000,98.800000,109.100000,98.100000,109.800000C98.100000,109.100000,97.900000,108.400000,97.800000,107.700000L97.700000,107.600000C97.300000,106,96.600000,104.900000,96.600000,104.900000C96.600000,104.900000,98,103.400000,98.500000,103.300000Z" fill="rgb(231,36,16)" stroke="none" stroke-width="1" stroke-miterlimit="1"/><path id="ePmcfxuYE0e45" d="M98.800000,103.600000C99.100000,103.600000,99.500000,103.700000,99.700000,103.800000C99.600000,103.700000,99.400000,103.600000,99.300000,103.400000C99.200000,103.600000,99.100000,103.800000,98.900000,104C98.800000,104.100000,99,104.200000,99.100000,104.200000C99.300000,104.300000,99.400000,104.400000,99.600000,104.500000C99.600000,104.400000,99.500000,104.300000,99.500000,104.200000C98.800000,104.700000,98,105.600000,98.400000,106.500000C98.700000,107.300000,99.700000,107.800000,100.500000,108C100.400000,107.900000,100.300000,107.700000,100.100000,107.600000C99.200000,108.100000,98.400000,108.700000,97.700000,109.500000C98,109.600000,98.300000,109.700000,98.600000,109.800000C98.600000,109.400000,98.500000,109.100000,98.500000,108.700000C98.500000,108.500000,98.400000,108.400000,98.400000,108.200000L98.300000,107.700000C98.400000,107.600000,98.300000,107.500000,98.200000,107.500000C98.100000,107.400000,98.200000,107.300000,98.100000,107.200000C98,107,98,106.800000,97.900000,106.600000C97.800000,106.300000,97.700000,106,97.500000,105.700000C97.400000,105.400000,97.200000,105.100000,97.100000,104.800000C97.100000,104.900000,97.100000,104.900000,97.100000,105C97.300000,104.700000,97.600000,104.500000,97.800000,104.200000C98.100000,104.100000,98.500000,103.700000,98.800000,103.600000C99.100000,103.500000,98.900000,103.300000,98.800000,103.300000C98.600000,103.200000,98.300000,103.100000,98.100000,103.100000C97.600000,103.200000,97.300000,103.700000,96.900000,104C96.600000,104.300000,96.400000,104.500000,96.100000,104.800000C96,104.900000,96.100000,104.900000,96.100000,105C96.300000,105.300000,96.400000,105.600000,96.600000,105.900000C96.700000,106.200000,96.900000,106.600000,97,106.900000C97.100000,107.200000,97.100000,107.600000,97.400000,107.800000C97.400000,107.700000,97.400000,107.600000,97.300000,107.600000C97.200000,107.700000,97.200000,107.800000,97.300000,108C97.300000,108.200000,97.400000,108.400000,97.400000,108.600000C97.500000,109,97.500000,109.400000,97.500000,109.800000C97.500000,110,98.300000,110.300000,98.400000,110.100000C99.100000,109.300000,99.900000,108.800000,100.800000,108.200000C101,108.100000,100.500000,107.800000,100.400000,107.800000C99.800000,107.600000,99.200000,107.300000,99,106.700000C98.800000,105.900000,99.500000,105.200000,100.100000,104.800000C100.200000,104.700000,100,104.600000,100,104.500000C99.800000,104.400000,99.700000,104.300000,99.500000,104.200000C99.600000,104.300000,99.600000,104.400000,99.700000,104.400000C99.800000,104.200000,100,104,100.100000,103.800000C100.200000,103.600000,99.800000,103.500000,99.700000,103.400000C99.200000,103.200000,98.600000,103,98.100000,103.100000C97.900000,103.100000,97.900000,103.200000,98,103.400000C98.300000,103.500000,98.600000,103.600000,98.800000,103.600000Z" fill="rgb(72,58,53)" stroke="none" stroke-width="1" stroke-miterlimit="1"/><path id="ePmcfxuYE0e46" d="M99.800000,111.100000C98.700000,111.500000,98.500000,111.300000,98.500000,111.300000C98.400000,111.200000,98.400000,111.100000,98.400000,111C98.600000,110.200000,101.700000,107.400000,101.700000,107.400000C100.300000,107.100000,99.600000,106.600000,99.600000,106.200000C99.700000,105.400000,101.600000,104.400000,102.600000,104.300000C102.800000,104.300000,102.900000,104.300000,103,104.400000C103.300000,104.800000,103.500000,107.200000,103.500000,107.200000C104.300000,106.900000,106.200000,106.400000,106.700000,106.900000C106.500000,107.600000,102.500000,110.300000,99.800000,111.100000Z" fill="rgb(231,36,16)" stroke="none" stroke-width="1" stroke-miterlimit="1"/><path id="ePmcfxuYE0e47" d="M99.400000,110.900000C99.200000,111,98.900000,111,98.700000,111.100000C98.700000,111.100000,98.600000,111.100000,98.500000,111.100000C98.400000,111.100000,98.500000,111.100000,98.500000,111.100000L98.800000,111.200000C98.800000,111.200000,98.800000,111.100000,98.900000,111C98.900000,110.900000,99,110.800000,99,110.800000C99.300000,110.300000,99.700000,109.900000,100.100000,109.500000C100.700000,108.800000,101.400000,108.200000,102.100000,107.600000C102.300000,107.400000,101.800000,107.200000,101.700000,107.200000C101.200000,107.100000,99.700000,106.800000,100.100000,106C100.500000,105.300000,101.500000,104.800000,102.300000,104.600000C102.300000,104.600000,102.900000,104.400000,102.900000,104.500000C102.800000,104.500000,102.700000,104.400000,102.600000,104.400000C102.600000,104.400000,102.600000,104.400000,102.600000,104.500000C102.600000,104.500000,102.600000,104.600000,102.700000,104.700000C102.800000,105,102.800000,105.300000,102.900000,105.700000C103,106.200000,103,106.700000,103,107.200000C103,107.500000,103.700000,107.600000,103.900000,107.500000C104.300000,107.300000,104.800000,107.200000,105.200000,107.100000C105.500000,107,105.700000,107,106,107C106.100000,107,106.200000,107,106.300000,107C106.400000,107,106.200000,106.900000,106.300000,107C106.300000,106.900000,106.200000,106.900000,106.200000,106.800000C106.100000,107.100000,105.700000,107.400000,105.400000,107.600000C104.900000,108,104.300000,108.400000,103.700000,108.800000C102.400000,109.600000,100.900000,110.400000,99.400000,110.900000C99.200000,111,99.400000,111.200000,99.500000,111.200000C99.700000,111.300000,100,111.400000,100.200000,111.300000C101.800000,110.800000,103.300000,110,104.700000,109.100000C105.300000,108.700000,105.900000,108.300000,106.400000,107.900000C106.700000,107.700000,107.100000,107.400000,107.200000,107C107.200000,106.900000,107.100000,106.900000,107.100000,106.800000C106.100000,105.900000,104.200000,106.500000,103.200000,106.900000C103.500000,107,103.800000,107.100000,104.100000,107.200000C104.100000,106.700000,104,106.100000,104,105.600000C103.900000,105,103.900000,104.200000,103.200000,104C102.400000,103.700000,101.400000,104.200000,100.700000,104.600000C100.200000,104.900000,99.200000,105.500000,99.300000,106.200000C99.400000,106.500000,99.700000,106.800000,100,107C100.500000,107.300000,101.200000,107.500000,101.800000,107.600000C101.700000,107.500000,101.500000,107.300000,101.400000,107.200000C100.500000,108,99.600000,108.900000,98.700000,109.800000C98.400000,110.100000,97.700000,110.800000,98.200000,111.300000C98.700000,111.800000,99.700000,111.500000,100.300000,111.300000C100.500000,111.200000,100.300000,111,100.200000,111C99.900000,110.900000,99.600000,110.900000,99.400000,110.900000Z" fill="rgb(72,58,53)" stroke="none" stroke-width="1" stroke-miterlimit="1"/><path id="ePmcfxuYE0e48" d="M128,119.300000L106.400000,108.400000C106.800000,108.100000,107.100000,107.800000,107.300000,107.500000L129.500000,118.400000C129,118.800000,128.500000,119,128,119.300000Z" fill="rgb(240,128,0)" stroke="none" stroke-width="1" stroke-miterlimit="1"/><path id="ePmcfxuYE0e49" d="M138.700000,111C135.300000,109.200000,102.500000,92.100000,101.900000,91.800000C102,91.500000,102.200000,91,102.900000,90.800000C104.300000,91,125.500000,102,139.500000,109.500000C139.300000,110,139,110.500000,138.700000,111Z" fill="rgb(240,128,0)" stroke="rgb(72,58,53)" stroke-width="1" stroke-miterlimit="1"/><path id="ePmcfxuYE0e50" d="M69.300000,78.500000C72.200000,79.100000,74.200000,76.200000,74.200000,76.200000C74.100000,79.300000,77.100000,78.100000,77.100000,78.100000L76.300000,79.900000C74.600000,79.300000,72.600000,79.400000,70.800000,80.400000C70.700000,80.400000,70.700000,80.500000,70.600000,80.500000L69.300000,78.500000Z" fill="rgb(231,36,16)" stroke="none" stroke-width="1" stroke-miterlimit="1"/><path id="ePmcfxuYE0e51" d="M69.400000,78.700000C71.400000,79.100000,73.500000,78,74.700000,76.300000C74.400000,76.200000,74.100000,76.100000,73.800000,76C73.800000,76.600000,73.800000,77.300000,74.300000,77.700000C74.600000,78.100000,75.200000,78.300000,75.700000,78.400000C76.300000,78.500000,77,78.400000,77.600000,78.200000C77.300000,78.100000,77,78,76.700000,77.900000C76.400000,78.500000,76.100000,79.100000,75.900000,79.700000C76.100000,79.700000,76.300000,79.700000,76.600000,79.700000C74.500000,79,72.200000,79.200000,70.300000,80.300000C70.600000,80.400000,70.900000,80.400000,71.200000,80.500000C70.700000,79.800000,70.300000,79.200000,69.800000,78.500000C69.600000,78.300000,68.700000,78.200000,68.900000,78.500000C69.400000,79.200000,69.800000,79.800000,70.300000,80.500000C70.500000,80.700000,71,80.800000,71.200000,80.700000C72.700000,79.800000,74.600000,79.500000,76.200000,80.100000C76.300000,80.100000,76.800000,80.300000,76.900000,80.100000C77.200000,79.500000,77.500000,78.900000,77.700000,78.300000C77.800000,78,77,77.900000,76.800000,78C76.400000,78.100000,76,78.200000,75.600000,78.200000C75.500000,78.200000,75.400000,78.200000,75.400000,78.100000C75.300000,78.100000,75.200000,78,75.100000,77.900000C74.800000,77.500000,74.700000,76.900000,74.700000,76.400000C74.700000,76.100000,73.900000,75.900000,73.800000,76.100000C72.800000,77.500000,71,78.700000,69.200000,78.400000C69.100000,78.400000,68.800000,78.400000,68.800000,78.600000C68.900000,78.600000,69.300000,78.700000,69.400000,78.700000Z" fill="rgb(72,58,53)" stroke="none" stroke-width="1" stroke-miterlimit="1"/><path id="ePmcfxuYE0e52" d="M71.400000,80.400000C73.300000,79.400000,75.100000,79.600000,76.300000,80.100000C79.800000,81.700000,80.700000,85.100000,81.500000,88.100000C82,89.800000,82.400000,91,83.100000,91.900000C81.200000,91.700000,80.400000,91.400000,80.400000,91.400000C80.400000,91.400000,82.200000,93.500000,88.300000,93.300000C91.900000,93.200000,98.400000,94.300000,100.400000,97.800000C101.200000,99.300000,101.100000,101,100.100000,103.100000C99.700000,103,99.200000,103,98.900000,103C99.900000,101,98.700000,98.900000,98.700000,98.900000C99.300000,100.400000,98.600000,102.300000,98.300000,103C98.100000,103,97.900000,103.100000,97.600000,103.300000C97.200000,100.700000,94.700000,99,94.700000,99C96.100000,100.600000,96.900000,102.800000,97.100000,103.600000C96.700000,103.900000,96.400000,104.300000,96.100000,104.600000C95.100000,104.800000,92.700000,105.100000,90.400000,104C90.400000,104,92.700000,105.800000,95.800000,105.400000C96.100000,105.800000,96.400000,106.600000,96.600000,107.300000C95.500000,108.200000,91.700000,110.500000,83.300000,108.900000C73.200000,107.100000,65.300000,97.300000,66.800000,88.500000C67.600000,83.500000,69.700000,81.300000,71.400000,80.400000Z" fill="rgb(231,36,16)" stroke="none" stroke-width="1" stroke-miterlimit="1"/><path id="ePmcfxuYE0e53" d="M71.800000,80.600000C73.500000,79.700000,75.300000,79.700000,76.900000,80.800000C78.100000,81.600000,79,82.800000,79.700000,84.100000C80.300000,85.300000,80.700000,86.600000,81,88C81.400000,89.400000,81.800000,90.900000,82.700000,92C82.900000,91.900000,83,91.800000,83.200000,91.800000C82.300000,91.700000,81.400000,91.600000,80.600000,91.400000C80.500000,91.400000,79.700000,91.300000,80,91.600000C80.400000,92.100000,81,92.400000,81.600000,92.600000C83.300000,93.300000,85.100000,93.600000,86.900000,93.700000C88.900000,93.800000,90.800000,93.700000,92.800000,94.100000C94.800000,94.500000,96.900000,95.100000,98.500000,96.400000C99.300000,97,100,97.900000,100.300000,98.900000C100.700000,100.400000,100.200000,101.900000,99.600000,103.200000C99.800000,103.200000,99.900000,103.100000,100.100000,103.100000C99.600000,103,99.200000,103,98.700000,103C98.900000,103.100000,99.100000,103.200000,99.300000,103.300000C99.900000,102,99.800000,100.400000,99.100000,99.100000C99,98.900000,98,98.700000,98.100000,99.100000C98.600000,100.400000,98.200000,101.900000,97.700000,103.100000C97.800000,103.100000,97.800000,103,97.900000,103C97.600000,103.100000,97.400000,103.200000,97.100000,103.300000C97.400000,103.400000,97.700000,103.400000,98,103.500000C97.700000,101.700000,96.500000,100.100000,95,99.100000C94.900000,99,93.900000,98.900000,94.200000,99.200000C94.900000,100,95.400000,100.900000,95.900000,101.900000C96.100000,102.300000,96.200000,102.700000,96.400000,103C96.500000,103.100000,96.500000,103.300000,96.600000,103.500000C96.600000,103.700000,96.700000,103.700000,96.500000,103.900000C96.200000,104.200000,96,104.500000,95.600000,104.700000C95.200000,104.800000,94.800000,104.800000,94.400000,104.800000C93.200000,104.900000,92,104.600000,90.800000,104.100000C90.700000,104,89.800000,104,90.100000,104.300000C91.800000,105.600000,94.100000,106.200000,96.100000,105.900000C95.900000,105.800000,95.600000,105.700000,95.400000,105.700000C95.700000,106.100000,95.800000,106.600000,96,107C96.100000,107.300000,96.300000,107.500000,96,107.700000C95.700000,107.900000,95.400000,108.100000,95.100000,108.200000C94,108.700000,92.900000,109.100000,91.700000,109.300000C89.800000,109.600000,87.800000,109.600000,85.900000,109.400000C83.700000,109.200000,81.600000,108.700000,79.500000,107.900000C72.700000,105.100000,66.800000,98.100000,67.100000,90.500000C67.200000,86.700000,68.500000,82.400000,71.800000,80.600000C72.100000,80.400000,71.200000,80.100000,71,80.300000C68,81.900000,66.700000,85.400000,66.200000,88.600000C65.600000,92.300000,66.700000,96,68.600000,99.200000C70.700000,102.500000,73.700000,105.300000,77.200000,107.100000C81,109.100000,85.400000,109.900000,89.700000,109.700000C92.200000,109.600000,95,109.100000,97.100000,107.500000L97.100000,107.400000C96.900000,106.700000,96.700000,106.100000,96.300000,105.500000C96.200000,105.300000,95.800000,105.200000,95.600000,105.300000C94,105.500000,92.100000,105,90.900000,104.100000C90.700000,104.200000,90.400000,104.200000,90.200000,104.300000C91.600000,104.900000,93.100000,105.200000,94.600000,105.200000C95.100000,105.200000,95.700000,105.100000,96.200000,105C96.800000,104.900000,97.100000,104.300000,97.600000,103.900000L97.600000,103.800000C97.100000,102.100000,96.300000,100.500000,95.100000,99.100000C94.800000,99.100000,94.600000,99.200000,94.300000,99.200000C95.600000,100.100000,96.800000,101.700000,97.100000,103.400000C97.100000,103.600000,97.800000,103.700000,98,103.600000C98.400000,103.400000,98.700000,103.400000,98.900000,103C99,102.600000,99.200000,102.300000,99.300000,101.900000C99.500000,101,99.600000,100,99.300000,99.100000C99,99.100000,98.700000,99.100000,98.300000,99.100000C99,100.300000,99.100000,101.900000,98.500000,103.200000C98.400000,103.400000,99,103.500000,99.100000,103.500000C99.500000,103.500000,99.800000,103.600000,100.200000,103.600000C100.400000,103.600000,100.600000,103.700000,100.700000,103.500000C101.700000,101.400000,102,99,100.300000,97.200000C99,95.800000,97.200000,95,95.400000,94.500000C93.500000,93.900000,91.500000,93.600000,89.500000,93.500000C87.400000,93.400000,85.200000,93.600000,83.200000,93C82.500000,92.800000,81.500000,92.400000,81,91.800000C80.800000,91.900000,80.600000,91.900000,80.400000,92C81.300000,92.300000,82.300000,92.400000,83.300000,92.500000C83.400000,92.500000,84,92.500000,83.800000,92.300000C82.700000,90.900000,82.400000,89.100000,81.900000,87.500000C81.500000,86,80.900000,84.500000,80,83.100000C78,80.300000,74.400000,79,71.200000,80.700000C70.700000,80.400000,71.600000,80.700000,71.800000,80.600000Z" fill="rgb(72,58,53)" stroke="none" stroke-width="1" stroke-miterlimit="1"/><path id="ePmcfxuYE0e54" d="M43.200000,82.100000C48.300000,82.500000,47.900000,79.400000,47.900000,79.400000C49.100000,82.200000,51.500000,81.200000,51.500000,81.200000L50.500000,83.200000C49,83.100000,47.400000,83.600000,45.900000,84.600000L43.200000,82.100000Z" fill="rgb(231,36,16)" stroke="none" stroke-width="1" stroke-miterlimit="1"/><path id="ePmcfxuYE0e55" d="M43,82.400000C44.600000,82.500000,46.700000,82.400000,47.800000,81.100000C48.200000,80.700000,48.400000,80,48.300000,79.500000C48,79.500000,47.700000,79.600000,47.300000,79.600000C47.800000,80.700000,48.600000,81.500000,49.800000,81.600000C50.400000,81.700000,51,81.600000,51.600000,81.400000C51.300000,81.300000,51.100000,81.300000,50.800000,81.200000C50.500000,81.900000,50.100000,82.500000,49.800000,83.200000C50,83.100000,50.200000,83.100000,50.400000,83C48.500000,82.900000,46.700000,83.500000,45.200000,84.500000C45.500000,84.500000,45.800000,84.500000,46.100000,84.500000C45.200000,83.700000,44.400000,82.800000,43.500000,82C43.300000,81.800000,42.400000,82,42.600000,82.200000C43.500000,83,44.300000,83.900000,45.200000,84.700000C45.400000,84.900000,45.900000,84.800000,46.100000,84.700000C47.300000,83.900000,48.700000,83.300000,50.200000,83.400000C50.400000,83.400000,50.700000,83.400000,50.800000,83.200000C51.100000,82.500000,51.500000,81.900000,51.800000,81.200000C51.900000,80.900000,51.100000,81,51,81L50.900000,81C50.900000,81,50.800000,81,50.900000,81C50.900000,81,50.800000,81,50.700000,81C50.600000,81,50.300000,81,50.100000,81C49.100000,80.800000,48.500000,80,48.100000,79.200000C48,79,47.100000,79.100000,47.100000,79.300000C47.200000,79.800000,47,80.200000,46.700000,80.600000C45.900000,81.800000,44.200000,81.800000,43,81.700000C42.900000,81.700000,42.400000,81.700000,42.400000,81.900000C42.600000,82.300000,42.900000,82.300000,43,82.400000Z" fill="rgb(72,58,53)" stroke="none" stroke-width="1" stroke-miterlimit="1"/><path id="ePmcfxuYE0e56" d="M3.699990,137.200000C1.199990,135.300000,0.099987,132.200000,0.599987,128.800000C1.199990,125,3.899990,121.800000,7.899990,120.300000C8.199990,121.100000,8.399990,121.800000,8.699990,122.500000C6.999990,123.600000,2.799990,126.900000,4.499990,131.300000C4.899990,132.300000,5.499990,133,6.199990,133.300000C8.199990,134.100000,10.900000,132.700000,13.400000,131.500000C14.800000,130.800000,16.100000,130.100000,17,130C18.200000,129.900000,19.200000,130.500000,19.700000,131.600000C20.200000,132.800000,19.900000,134.300000,18.800000,135.500000C16.100000,138.700000,8.099990,140.700000,3.699990,137.200000Z" fill="rgb(240,128,0)" stroke="none" stroke-width="1" stroke-miterlimit="1"/><path id="ePmcfxuYE0e57" d="M4.099990,137.200000C1.199990,134.900000,0.399990,131,1.499990,127.500000C2.499990,124.200000,5.199990,121.800000,8.299990,120.600000C7.999990,120.500000,7.699990,120.400000,7.399990,120.300000C7.599990,120.800000,7.799990,121.300000,7.899990,121.800000C7.999990,122,8.099990,122.300000,8.099990,122.400000C8.099990,122.500000,7.899990,122.600000,7.799990,122.600000C7.299990,122.900000,6.899990,123.300000,6.499990,123.700000C5.499990,124.600000,4.599990,125.700000,4.099990,126.900000C2.899990,129.700000,4.099990,133.700000,7.599990,133.800000C9.499990,133.900000,11.300000,133,12.900000,132.200000C13.900000,131.700000,14.900000,131.200000,15.900000,130.700000C16.800000,130.300000,17.800000,130,18.600000,130.600000C20.300000,131.900000,19.400000,134.400000,18.100000,135.600000C17.100000,136.600000,15.900000,137.200000,14.600000,137.700000C11.300000,139.100000,6.999990,139.500000,4.099990,137.200000C3.899990,137.100000,3.599990,136.900000,3.399990,137C3.199990,137,3.099990,137.100000,3.299990,137.300000C5.799990,139.200000,9.199990,139.700000,12.300000,139.200000C15,138.800000,18.300000,137.600000,19.800000,135.200000C20.700000,133.800000,20.600000,131.800000,19.200000,130.700000C17.800000,129.600000,16.200000,129.900000,14.800000,130.500000C12.800000,131.400000,10.900000,132.600000,8.799990,133.200000C7.899990,133.500000,6.699990,133.700000,5.899990,133C5.199990,132.400000,4.799990,131.500000,4.699990,130.600000C4.099990,127.300000,6.599990,124.500000,9.199990,122.900000L9.199990,122.800000C8.899990,122.100000,8.699990,121.300000,8.399990,120.600000C8.299990,120.400000,7.799990,120.200000,7.499990,120.300000C4.199990,121.600000,1.499990,124.100000,0.399990,127.500000C-0.700010,131.100000,0.299990,135,3.299990,137.400000C3.499990,137.500000,3.799990,137.700000,3.999990,137.600000C4.199990,137.400000,4.299990,137.400000,4.099990,137.200000Z" fill="rgb(72,58,53)" stroke="none" stroke-width="1" stroke-miterlimit="1"/><path id="ePmcfxuYE0e58" d="M44.100000,174.200000L52,157.700000C53.500000,158.100000,56.900000,159,58,159.200000L44.700000,174.500000L44.100000,174.200000Z" fill="rgb(240,128,0)" stroke="none" stroke-width="1" stroke-miterlimit="1"/><path id="ePmcfxuYE0e59" d="M44.800000,174.100000C47.100000,169.300000,49.400000,164.400000,51.700000,159.600000C52,158.900000,52.400000,158.200000,52.700000,157.600000C52.300000,157.700000,51.800000,157.900000,51.400000,158C53.400000,158.500000,55.400000,159.200000,57.400000,159.500000C57.400000,159.400000,57.400000,159.400000,57.300000,159.300000C53.400000,163.800000,49.500000,168.300000,45.600000,172.700000C45.100000,173.300000,44.500000,174,44,174.600000C44.400000,174.500000,44.900000,174.400000,45.300000,174.300000C45.100000,174.200000,44.900000,174.100000,44.700000,174C44.400000,173.900000,44,174,43.800000,174.100000C43.700000,174.100000,43.100000,174.400000,43.400000,174.500000C43.600000,174.600000,43.800000,174.700000,44,174.800000C44.300000,174.900000,45.100000,174.800000,45.300000,174.500000C49.200000,170,53.100000,165.500000,57,161.100000C57.500000,160.500000,58.100000,159.800000,58.600000,159.200000C58.700000,159.100000,58.700000,159,58.500000,159C56.500000,158.800000,54.400000,158.100000,52.500000,157.500000C52.200000,157.400000,51.300000,157.600000,51.200000,157.900000C48.900000,162.700000,46.600000,167.600000,44.300000,172.400000C44,173.100000,43.600000,173.800000,43.300000,174.400000C43.300000,174.500000,44.600000,174.500000,44.800000,174.100000Z" fill="rgb(72,58,53)" stroke="none" stroke-width="1" stroke-miterlimit="1"/><path id="ePmcfxuYE0e60" d="M91.700000,183.600000C91.200000,183.400000,83,166.100000,80.300000,160.300000C82.100000,160.400000,86.300000,160.400000,88.200000,159.500000C89.300000,166.100000,92.200000,183.800000,91.700000,183.600000Z" fill="rgb(240,128,0)" stroke="none" stroke-width="1" stroke-miterlimit="1"/><path id="ePmcfxuYE0e61" d="M92.200000,183.300000C92.300000,183.400000,92.100000,183.100000,92.100000,183C92,182.800000,91.900000,182.600000,91.700000,182.400000C91.300000,181.700000,90.900000,180.900000,90.500000,180.200000C89.400000,178,88.400000,175.900000,87.300000,173.700000C85.200000,169.200000,83,164.700000,80.900000,160.200000C80.600000,160.400000,80.200000,160.600000,79.900000,160.800000C82.700000,160.900000,85.800000,161,88.400000,159.900000C88.100000,159.900000,87.700000,159.800000,87.400000,159.800000C88.200000,164.500000,88.900000,169.100000,89.700000,173.800000C90,176,90.400000,178.300000,90.700000,180.500000C90.800000,181.200000,90.900000,182,91,182.700000C91,182.900000,91,183.200000,91,183.400000C91,183.400000,91,183.500000,91,183.600000L91,183.700000C90.900000,184.100000,91.200000,183.900000,92,183.300000C91.400000,183.200000,90.500000,184,91.400000,184.100000C92.900000,184.300000,92.400000,182.600000,92.400000,181.800000C92.200000,179.600000,91.800000,177.300000,91.500000,175.100000C90.700000,169.900000,89.900000,164.700000,89,159.500000C88.900000,159.100000,88.200000,159.300000,88,159.400000C85.800000,160.300000,83,160.200000,80.700000,160.100000C80.500000,160.100000,79.500000,160.300000,79.700000,160.700000C81.900000,165.400000,84.100000,170,86.300000,174.700000C87.400000,176.900000,88.400000,179.100000,89.500000,181.300000C89.900000,182,90.400000,183.700000,91.200000,184.200000C91.500000,184.200000,92.900000,183.600000,92.200000,183.300000Z" fill="rgb(72,58,53)" stroke="none" stroke-width="1" stroke-miterlimit="1"/><path id="ePmcfxuYE0e62" d="M119.300000,168.900000L102.900000,155.300000C105.100000,154.800000,109.200000,153.900000,110,153.200000L119.700000,167.700000L119.300000,168.900000Z" fill="rgb(240,128,0)" stroke="none" stroke-width="1" stroke-miterlimit="1"/><path id="ePmcfxuYE0e63" d="M120,168.700000C115.200000,164.700000,110.400000,160.800000,105.600000,156.800000C104.900000,156.200000,104.200000,155.700000,103.600000,155.100000C103.300000,155.300000,103.100000,155.500000,102.800000,155.600000C104.300000,155.300000,105.800000,154.900000,107.300000,154.500000C108.400000,154.200000,109.700000,153.900000,110.600000,153.200000C110.200000,153.300000,109.700000,153.300000,109.300000,153.400000C112.300000,157.900000,115.300000,162.300000,118.200000,166.800000C118.400000,167.100000,118.700000,167.400000,118.900000,167.800000C119,168.100000,118.800000,168.600000,118.600000,169C118.500000,169.300000,119.900000,169.100000,120,168.800000C120.100000,168.500000,120.400000,167.900000,120.400000,167.500000C120.400000,167.300000,120.100000,167,119.900000,166.800000C119.200000,165.700000,118.500000,164.600000,117.700000,163.600000C115.800000,160.800000,113.900000,157.900000,112,155.100000C111.500000,154.400000,111.100000,153.700000,110.600000,153C110.400000,152.700000,109.600000,153,109.300000,153.200000C108.500000,153.700000,107.400000,153.900000,106.500000,154.200000C105.300000,154.500000,104.100000,154.800000,102.800000,155.100000C102.700000,155.100000,101.700000,155.400000,102,155.600000C106.800000,159.600000,111.600000,163.500000,116.400000,167.500000C117.100000,168.100000,117.800000,168.600000,118.400000,169.200000C119,169.500000,120.300000,168.900000,120,168.700000Z" fill="rgb(72,58,53)" stroke="none" stroke-width="1" stroke-miterlimit="1"/><path id="ePmcfxuYE0e64" d="M129.800000,138.800000C119.600000,151.200000,104.300000,158.700000,85.600000,160.400000C61.400000,162.600000,44.200000,156.100000,33.900000,150.200000C24.900000,145,19.600000,139.400000,17.900000,137.500000C18.100000,137.400000,18.200000,137.200000,18.300000,137.100000C19.700000,135.700000,20,133.900000,19.300000,132.500000C18.600000,131.100000,17.200000,130.400000,15.600000,130.500000C14.900000,130.600000,14,130.900000,13,131.300000C11.600000,128.900000,5.200000,117.400000,6.900000,108.300000C7.600000,104.400000,13.400000,93.500000,42.800000,87.800000C42.100000,89,41.300000,90.200000,40.800000,91.700000C39.900000,91.900000,37.200000,92.800000,34.700000,93.600000L34.700000,93.700000C34,93.400000,33.400000,93.200000,33.100000,93.200000C32.300000,93.200000,31.800000,93.900000,31.600000,94.600000C27.200000,96.100000,23.400000,97.800000,20.300000,99.500000C19.600000,99.200000,19.100000,99,19,99C18.500000,99,18.200000,99.200000,17.900000,99.500000C17.400000,100.100000,17.300000,101,17.300000,101.400000C14.600000,103.400000,12.700000,105.400000,11.600000,107.600000C10.500000,107.200000,10.300000,107.200000,10.100000,107.300000C8.600000,108,8.900000,109.700000,9.200000,110.500000L9.300000,110.700000L10.500000,111.300000C10.300000,113.400000,11,115.200000,12.300000,117.400000C10.300000,116.100000,9.300000,115.200000,9.300000,115.100000C9.300000,115.100000,26.200000,133.900000,74.800000,132.500000C112.400000,131.400000,136.600000,119.300000,140.800000,109.200000C141.400000,107.900000,140.600000,104.800000,140.400000,103.500000C140.700000,104.300000,141.900000,106.800000,142,107.500000C142.700000,113.300000,139.600000,126.800000,129.800000,138.800000Z" fill="rgb(240,128,0)" stroke="none" stroke-width="1" stroke-miterlimit="1"/><path id="ePmcfxuYE0e65" d="M129.100000,138.800000C118,152.300000,101.300000,158.800000,84.200000,160.200000C68.100000,161.500000,51.500000,158.900000,37,151.400000C30.200000,147.800000,23.600000,143.200000,18.600000,137.300000C18.600000,137.400000,18.500000,137.600000,18.500000,137.700000C20.300000,136.100000,21.300000,133.400000,19.500000,131.400000C17.700000,129.400000,15,130.100000,12.900000,131C13.200000,131,13.500000,131,13.900000,131C11.500000,126.900000,9.599990,122.400000,8.399990,117.800000C7.499990,114.200000,6.899990,109.800000,8.399990,106.300000C10.800000,100.700000,16.900000,97,22.200000,94.500000C28.800000,91.400000,36,89.500000,43.100000,88.100000C42.800000,88,42.600000,87.800000,42.300000,87.700000C41.500000,89,40.700000,90.300000,40.300000,91.700000C40.500000,91.500000,40.700000,91.400000,40.900000,91.200000C38.900000,91.700000,36.900000,92.500000,34.800000,93.100000C34.600000,93.200000,34.100000,93.400000,34.200000,93.700000L34.200000,93.800000C34.600000,93.600000,35.100000,93.400000,35.500000,93.200000C33.700000,92.400000,31.900000,92.400000,31.100000,94.500000C31.300000,94.300000,31.500000,94.200000,31.700000,94C27.700000,95.400000,23.700000,97,20,99.100000C20.300000,99.100000,20.700000,99,21,99C20,98.600000,19.200000,98.200000,18.200000,98.700000C17.800000,98.900000,17.500000,99.200000,17.200000,99.500000C16.800000,100,16.900000,100.500000,16.700000,101.100000C16.500000,101.700000,15.800000,102,15.400000,102.400000C14.700000,102.900000,14.100000,103.500000,13.500000,104.100000C12.500000,105.100000,11.700000,106.300000,11,107.500000C11.400000,107.400000,11.800000,107.300000,12.300000,107.200000C11.200000,106.800000,10.400000,106.600000,9.399990,107.300000C8.399990,108,8.099990,109.400000,8.599990,110.500000C8.799990,110.900000,8.799990,111,9.199990,111.200000C9.399990,111.300000,9.699990,111.400000,9.799990,111.500000C10.100000,111.800000,9.999990,111.600000,9.899990,112.200000C9.699990,114.100000,10.800000,116.200000,11.800000,117.700000C12.200000,117.500000,12.600000,117.300000,13,117.100000C12,116.400000,11,115.700000,10.100000,114.900000C9.699990,114.600000,8.399990,115,8.799990,115.500000C10.800000,117.700000,13.600000,119.500000,16.100000,121.100000C23.600000,125.600000,32.100000,128.500000,40.700000,130.300000C55.300000,133.400000,70.500000,133.700000,85.400000,132.400000C98.900000,131.200000,112.600000,128.500000,125,122.900000C129.100000,121,133.100000,118.800000,136.500000,115.900000C138.700000,114,141.900000,111,141.900000,107.900000C141.900000,106.400000,141.500000,105,141.300000,103.600000C140.800000,103.700000,140.300000,103.900000,139.900000,104C140.400000,105.200000,141.100000,106.400000,141.400000,107.700000C141.600000,108.600000,141.600000,109.600000,141.500000,110.500000C141.400000,113.200000,140.800000,115.800000,140,118.400000C137.800000,125.700000,134,132.700000,129.100000,138.800000C128.700000,139.300000,130.100000,139.200000,130.500000,138.800000C135.500000,132.700000,139.300000,125.600000,141.500000,118C142.300000,115.400000,142.800000,112.600000,143,109.900000C143,109,143.100000,108,142.900000,107.100000C142.600000,105.800000,141.900000,104.700000,141.400000,103.400000C141.200000,102.900000,139.900000,103.300000,140,103.800000C140.200000,105.200000,140.500000,106.600000,140.500000,108.100000C140.500000,109.100000,140.200000,109.800000,139.700000,110.600000C138.900000,111.900000,138,113.100000,136.900000,114.100000C133.900000,117,130.300000,119.300000,126.600000,121.100000C115.200000,126.900000,102.200000,129.600000,89.600000,131.100000C74.700000,132.800000,59.300000,132.700000,44.500000,130C35.600000,128.300000,26.800000,125.600000,18.900000,121.200000C16.800000,120,14.700000,118.700000,12.700000,117.100000C11.900000,116.500000,11.100000,115.500000,10.300000,114.900000L10.200000,114.800000C9.799990,115,9.299990,115.200000,8.899990,115.400000C9.899990,116.300000,10.900000,117,12,117.700000C12.300000,117.900000,13.600000,117.600000,13.200000,117.100000C12.100000,115.300000,11.300000,113.400000,11.400000,111.200000C11.400000,111.100000,11.400000,111,11.200000,110.900000C10.600000,110.600000,10.100000,110.500000,9.999990,110.100000C9.899990,109.700000,9.799990,109.200000,9.799990,108.700000C9.899990,107.700000,10.200000,107.600000,11.100000,107.900000C11.500000,108,12.100000,108,12.400000,107.600000C13.600000,105.400000,15.300000,103.600000,17.300000,102.100000C17.800000,101.700000,18,101.700000,18.200000,101.200000C18.400000,100.700000,18.300000,100.200000,18.600000,99.700000C19.100000,98.900000,19.500000,99.700000,20.200000,99.800000C20.500000,99.800000,20.700000,99.800000,21,99.700000C22.100000,99.300000,23.100000,98.500000,24.200000,98C25.300000,97.400000,26.500000,96.900000,27.700000,96.500000C29,96,30.300000,95.500000,31.700000,95C32,94.900000,32.400000,94.800000,32.600000,94.500000C32.700000,94.400000,32.700000,94.100000,32.800000,93.900000C33.300000,93.300000,33.900000,93.700000,34.400000,94C34.700000,94.100000,35.900000,94,35.700000,93.400000L35.700000,93.300000C35.500000,93.500000,35.300000,93.700000,35.100000,93.900000C37,93.300000,39,92.700000,40.900000,92.100000C41.700000,91.900000,41.700000,91.700000,42,91C42.400000,89.900000,43.100000,88.800000,43.700000,87.800000C44,87.300000,43.200000,87.400000,42.900000,87.400000C32.300000,89.500000,20.600000,92.600000,12.200000,99.800000C10.200000,101.500000,8.399990,103.500000,7.299990,105.800000C5.799990,108.800000,5.899990,112.300000,6.399990,115.600000C7.299990,121.300000,9.599990,126.800000,12.500000,131.700000C12.700000,132,13.300000,131.800000,13.500000,131.700000C15.400000,130.900000,17.600000,130.500000,18.700000,132.800000C19.500000,134.500000,18.700000,136.300000,17.400000,137.500000C17.300000,137.600000,17.200000,137.800000,17.300000,137.900000C26.500000,148.500000,40.100000,155.400000,53.600000,158.700000C62.600000,160.900000,72,161.700000,81.300000,161.200000C90.600000,160.700000,99.800000,159,108.400000,155.300000C117,151.600000,124.600000,146.100000,130.600000,138.900000C130.900000,138.300000,129.400000,138.400000,129.100000,138.800000Z" fill="rgb(72,58,53)" stroke="none" stroke-width="1" stroke-miterlimit="1"/><path id="ePmcfxuYE0e66" d="M49.800000,57.200000C53.900000,55,55.600000,53.800000,55.600000,52.600000L55.600000,52.500000C55.500000,51.100000,52.700000,49.800000,47.500000,47.300000C43.800000,45.600000,39.600000,43.600000,36.900000,41.600000C35.200000,40.300000,34.300000,38.900000,34.300000,37.600000C34.300000,37.300000,34.300000,37,34.400000,36.700000C35.100000,34.400000,38.700000,32.800000,43.400000,32.700000C51.900000,32.500000,52.600000,39.700000,52.600000,40C52.600000,40,52.600000,31.200000,43,31.400000C37.700000,31.500000,33.900000,33.400000,33,36.200000C32.300000,38.300000,33.800000,40.700000,36.300000,42.600000C39.100000,44.700000,43.400000,46.700000,47.100000,48.400000C50.200000,49.800000,55,51.800000,55.100000,52.600000C54.900000,53.200000,51,55.100000,48.800000,56.200000C44.300000,58.600000,41.500000,60.100000,41.200000,61.700000C41.100000,62.100000,41.200000,62.500000,41.500000,62.800000C42.600000,64,45.100000,64.800000,47.500000,65.500000C49,65.900000,51.400000,66.700000,51.500000,67.200000C51.200000,67.900000,49.400000,69.300000,48.100000,70.300000C46,71.900000,45,72.700000,45,73.500000C45,73.800000,45.200000,74,45.500000,74.200000C46,74.500000,46.800000,74.800000,47.600000,74.700000C49.900000,74.300000,50.200000,76.100000,50.200000,76.600000C50.300000,76.200000,50.500000,74.800000,50.400000,74.600000C49.900000,73.800000,48.800000,73.700000,47.700000,73.600000C47.200000,73.500000,46.700000,73.500000,46.300000,73.400000C46.700000,72.900000,47.900000,72,48.800000,71.300000C50.900000,69.700000,52.300000,68.600000,52.600000,67.700000C52.600000,67.600000,52.700000,67.400000,52.700000,67.300000C52.700000,67.100000,52.700000,66.900000,52.600000,66.800000C52.100000,65.900000,50.500000,65.300000,47.900000,64.500000C45.800000,63.800000,43,63,42,62C42,61.900000,41.900000,61.900000,41.900000,61.900000C42,60.700000,47.100000,58.600000,49.800000,57.200000Z" transform="matrix(1 0 0 1 -1 0)" fill="rgb(72,58,53)" stroke="none" stroke-width="1" stroke-miterlimit="1"/><path id="ePmcfxuYE0e67" d="M69,9.099990C69,9.099990,66,10.400000,66.600000,12.100000C66.900000,13.200000,68.100000,13.800000,69.900000,14.100000C74.100000,14.700000,78.700000,13.300000,80.700000,10.900000C81.900000,9.399990,82.100000,7.699990,81.400000,5.899990C80.400000,3.399990,77.500000,1.399990,73.900000,0.399987C68.200000,-1.000010,61.700000,0.599987,56.900000,4.699990C52.400000,8.599990,52.100000,12.500000,52.700000,15.200000C53.800000,20.400000,59,24.500000,63.400000,25.800000C65.200000,26.300000,66.900000,26.800000,68.400000,27.200000C71.700000,28,74.800000,28.700000,75.500000,30C75.700000,30.400000,75.700000,30.900000,75.500000,31.500000C74.900000,33.200000,69.800000,35.400000,65.700000,37.400000C59.400000,40.400000,55.600000,42.400000,56.400000,44.500000C57.200000,46.500000,60.500000,47.700000,63.600000,48.800000C65.500000,49.500000,68.500000,50.100000,68.600000,50.800000C68.700000,51.500000,66.100000,53.600000,64.700000,54.800000C62.700000,56.400000,61,57.800000,61,59C61,59.400000,61.200000,59.700000,61.500000,60C62.600000,60.900000,64.100000,61.300000,65.500000,61.700000C66.600000,62,67.800000,62.300000,68.200000,62.800000C68.500000,63.200000,68.400000,64,68.400000,64.800000C68.300000,66,68.200000,67.500000,69.300000,68.600000L70.400000,69.500000C71,70,71,70,70.700000,70.700000C70.600000,71.100000,70.200000,71.300000,70.100000,71.700000C69.100000,73.800000,71,73.900000,71,73.900000C70.400000,73.200000,70.500000,73.100000,71,72.500000C71.300000,72.200000,71.600000,71.800000,71.800000,71.300000C72.400000,69.900000,71.900000,69.500000,71,68.800000L70,67.900000C69.300000,67.200000,69.400000,66.200000,69.400000,65.100000C69.500000,64.100000,69.500000,63.100000,69,62.400000C68.400000,61.600000,67.100000,61.300000,65.700000,60.900000C64.400000,60.600000,62.700000,60.200000,61.900000,59.500000C61.800000,59.500000,61.800000,59.400000,61.800000,59.400000C61.800000,58.700000,64,57.200000,65.400000,56.100000C67.600000,54.300000,69.600000,52.700000,69.400000,51.300000C69.200000,49.900000,66.900000,49.100000,64,48.100000C61.300000,47.200000,57.700000,46.100000,57.100000,44.600000C56.600000,43.400000,62.500000,40.700000,66.200000,39C71,36.700000,75.500000,34.500000,76.300000,32.400000C76.600000,31.500000,76.600000,30.600000,76.200000,29.900000C75.300000,28.200000,72.500000,27.500000,68.700000,26.600000C67.200000,26.200000,65.500000,25.800000,63.700000,25.300000C59.800000,24.100000,55,20.200000,54,15.500000C53.300000,12.100000,54.600000,8.899990,57.800000,6.099990C62.300000,2.199990,68.200000,0.699987,73.500000,2.099990C76.800000,2.899990,79.400000,4.799990,80.200000,6.899990C80.800000,8.299990,80.600000,9.599990,79.700000,10.700000C78,12.800000,73.700000,14.100000,70,13.500000C69,13.400000,67.800000,13,67.600000,12.300000C67.500000,10.900000,68.600000,9.599990,69,9.099990Z" fill="rgb(72,58,53)" stroke="none" stroke-width="1" stroke-miterlimit="1"/></g><clipPath id="ePmcfxuYE0e68"><rect id="ePmcfxuYE0e69" width="143" height="184.100000" rx="0" ry="0" fill="rgb(255,255,255)" stroke="none" stroke-width="1" stroke-miterlimit="1"/></clipPath></g><script><![CDATA[!function(t,n){"object"==typeof exports&&"undefined"!=typeof module?module.exports=n():"function"==typeof define&&define.amd?define(n):(t="undefined"!=typeof globalThis?globalThis:t||self).__SVGATOR_PLAYER__=n()}(this,(function(){"use strict";function t(n){return(t="function"==typeof Symbol&&"symbol"==typeof Symbol.iterator?function(t){return typeof t}:function(t){return t&&"function"==typeof Symbol&&t.constructor===Symbol&&t!==Symbol.prototype?"symbol":typeof t})(n)}function n(t,n){if(!(t instanceof n))throw new TypeError("Cannot call a class as a function")}function r(t,n){for(var r=0;r<n.length;r++){var e=n[r];e.enumerable=e.enumerable||!1,e.configurable=!0,"value"in e&&(e.writable=!0),Object.defineProperty(t,e.key,e)}}function e(t,n,e){return n&&r(t.prototype,n),e&&r(t,e),t}function i(t){return(i=Object.setPrototypeOf?Object.getPrototypeOf:function(t){return t.__proto__||Object.getPrototypeOf(t)})(t)}function o(t,n){return(o=Object.setPrototypeOf||function(t,n){return t.__proto__=n,t})(t,n)}function u(t,n){return!n||"object"!=typeof n&&"function"!=typeof n?function(t){if(void 0===t)throw new ReferenceError("this hasn't been initialised - super() hasn't been called");return t}(t):n}function a(t){var n=function(){if("undefined"==typeof Reflect||!Reflect.construct)return!1;if(Reflect.construct.sham)return!1;if("function"==typeof Proxy)return!0;try{return Boolean.prototype.valueOf.call(Reflect.construct(Boolean,[],(function(){}))),!0}catch(t){return!1}}();return function(){var r,e=i(t);if(n){var o=i(this).constructor;r=Reflect.construct(e,arguments,o)}else r=e.apply(this,arguments);return u(this,r)}}function l(t,n,r){return(l="undefined"!=typeof Reflect&&Reflect.get?Reflect.get:function(t,n,r){var e=function(t,n){for(;!Object.prototype.hasOwnProperty.call(t,n)&&null!==(t=i(t)););return t}(t,n);if(e){var o=Object.getOwnPropertyDescriptor(e,n);return o.get?o.get.call(r):o.value}})(t,n,r||t)}var f=Math.abs;function s(t){return t}function c(t,n,r){var e=1-r;return 3*r*e*(t*e+n*r)+r*r*r}function h(){var t=arguments.length>0&&void 0!==arguments[0]?arguments[0]:0,n=arguments.length>1&&void 0!==arguments[1]?arguments[1]:0,r=arguments.length>2&&void 0!==arguments[2]?arguments[2]:1,e=arguments.length>3&&void 0!==arguments[3]?arguments[3]:1;return t<0||t>1||r<0||r>1?null:f(t-n)<=1e-5&&f(r-e)<=1e-5?s:function(i){if(i<=0)return t>0?i*n/t:0===n&&r>0?i*e/r:0;if(i>=1)return r<1?1+(i-1)*(e-1)/(r-1):1===r&&t<1?1+(i-1)*(n-1)/(t-1):1;for(var o,u=0,a=1;u<a;){var l=c(t,r,o=(u+a)/2);if(f(i-l)<1e-5)break;l<i?u=o:a=o}return c(n,e,o)}}function v(){return 1}function y(t){return 1===t?1:0}function d(){var t=arguments.length>0&&void 0!==arguments[0]?arguments[0]:1,n=arguments.length>1&&void 0!==arguments[1]?arguments[1]:0;if(1===t){if(0===n)return y;if(1===n)return v}var r=1/t;return function(t){return t>=1?1:(t+=n*r)-t%r}}function g(t){var n=arguments.length>1&&void 0!==arguments[1]?arguments[1]:2;if(Number.isInteger(t))return t;var r=Math.pow(10,n);return Math.round(t*r)/r}var p=Math.PI/180;function m(t,n,r){return t>=.5?r:n}function b(t,n,r){return 0===t||n===r?n:t*(r-n)+n}function w(t,n,r){var e=b(t,n,r);return e<=0?0:e}function x(t,n,r){return 0===t?n:1===t?r:{x:b(t,n.x,r.x),y:b(t,n.y,r.y)}}function k(t,n,r){var e=function(t,n,r){return Math.round(b(t,n,r))}(t,n,r);return e<=0?0:e>=255?255:e}function A(t,n,r){return 0===t?n:1===t?r:{r:k(t,n.r,r.r),g:k(t,n.g,r.g),b:k(t,n.b,r.b),a:b(t,null==n.a?1:n.a,null==r.a?1:r.a)}}function _(t,n,r){if(0===t)return n;if(1===t)return r;var e=n.length;if(e!==r.length)return m(t,n,r);for(var i=[],o=0;o<e;o++)i.push(A(t,n[o],r[o]));return i}function S(t,n){for(var r=[],e=0;e<t;e++)r.push(n);return r}function O(t,n){if(--n<=0)return t;var r=(t=Object.assign([],t)).length;do{for(var e=0;e<r;e++)t.push(t[e])}while(--n>0);return t}var M,j=function(){function t(r){n(this,t),this.list=r,this.length=r.length}return e(t,[{key:"setAttribute",value:function(t,n){for(var r=this.list,e=0;e<this.length;e++)r[e].setAttribute(t,n)}},{key:"removeAttribute",value:function(t){for(var n=this.list,r=0;r<this.length;r++)n[r].removeAttribute(t)}},{key:"style",value:function(t,n){for(var r=this.list,e=0;e<this.length;e++)r[e].style[t]=n}}]),t}(),F=/-./g,P=function(t,n){return n.toUpperCase()};function B(t){return"function"==typeof t?t:m}function I(t){return t?"function"==typeof t?t:Array.isArray(t)?function(t){var n=arguments.length>1&&void 0!==arguments[1]?arguments[1]:s;if(!Array.isArray(t))return n;switch(t.length){case 1:return d(t[0])||n;case 2:return d(t[0],t[1])||n;case 4:return h(t[0],t[1],t[2],t[3])||n}return n}(t,null):function(t,n){var r=arguments.length>2&&void 0!==arguments[2]?arguments[2]:s;switch(t){case"linear":return s;case"steps":return d(n.steps||1,n.jump||0)||r;case"bezier":case"cubic-bezier":return h(n.x1||0,n.y1||0,n.x2||0,n.y2||0)||r}return r}(t.type,t.value,null):null}function R(t,n,r){var e=arguments.length>3&&void 0!==arguments[3]&&arguments[3],i=n.length-1;if(t<=n[0].t)return e?[0,0,n[0].v]:n[0].v;if(t>=n[i].t)return e?[i,1,n[i].v]:n[i].v;var o,u=n[0],a=null;for(o=1;o<=i;o++){if(!(t>n[o].t)){a=n[o];break}u=n[o]}return null==a?e?[i,1,n[i].v]:n[i].v:u.t===a.t?e?[o,1,a.v]:a.v:(t=(t-u.t)/(a.t-u.t),u.e&&(t=u.e(t)),e?[o,t,r(t,u.v,a.v)]:r(t,u.v,a.v))}function q(t,n){var r=arguments.length>2&&void 0!==arguments[2]?arguments[2]:null;return t&&t.length?"function"!=typeof n?null:("function"!=typeof r&&(r=null),function(e){var i=R(e,t,n);return null!=i&&r&&(i=r(i)),i}):null}function E(t,n){return t.t-n.t}function T(n,r,e,i,o){var u,a="@"===e[0],l="#"===e[0],f=M[e],s=m;switch(a?(u=e.substr(1),e=u.replace(F,P)):l&&(e=e.substr(1)),t(f)){case"function":if(s=f(i,o,R,I,e,a,r,n),l)return s;break;case"string":s=q(i,B(f));break;case"object":if((s=q(i,B(f.i),f.f))&&"function"==typeof f.u)return f.u(r,s,e,a,n)}return s?function(t,n,r){var e=arguments.length>3&&void 0!==arguments[3]&&arguments[3];if(e)return t instanceof j?function(e){return t.style(n,r(e))}:function(e){return t.style[n]=r(e)};if(Array.isArray(n)){var i=n.length;return function(e){var o=r(e);if(null==o)for(var u=0;u<i;u++)t[u].removeAttribute(n);else for(var a=0;a<i;a++)t[a].setAttribute(n,o)}}return function(e){var i=r(e);null==i?t.removeAttribute(n):t.setAttribute(n,i)}}(r,e,s,a):null}function N(n,r,e,i){if(!i||"object"!==t(i))return null;var o=null,u=null;return Array.isArray(i)?u=function(t){if(!t||!t.length)return null;for(var n=0;n<t.length;n++)t[n].e&&(t[n].e=I(t[n].e));return t.sort(E)}(i):(u=i.keys,o=i.data||null),u?T(n,r,e,u,o):null}function C(t,n,r){if(!r)return null;var e=[];for(var i in r)if(r.hasOwnProperty(i)){var o=N(t,n,i,r[i]);o&&e.push(o)}return e.length?e:null}function z(t,n){if(!n.duration||n.duration<0)return null;var r=function(t,n){if(!n)return null;var r=[];if(Array.isArray(n))for(var e=n.length,i=0;i<e;i++){var o=n[i];if(2===o.length){var u=null;if("string"==typeof o[0])u=t.getElementById(o[0]);else if(Array.isArray(o[0])){u=[];for(var a=0;a<o[0].length;a++)if("string"==typeof o[0][a]){var l=t.getElementById(o[0][a]);l&&u.push(l)}u=u.length?1===u.length?u[0]:new j(u):null}if(u){var f=C(t,u,o[1]);f&&(r=r.concat(f))}}}else for(var s in n)if(n.hasOwnProperty(s)){var c=t.getElementById(s);if(c){var h=C(t,c,n[s]);h&&(r=r.concat(h))}}return r.length?r:null}(t,n.elements);return r?function(t,n){var r=arguments.length>2&&void 0!==arguments[2]?arguments[2]:1/0,e=arguments.length>3&&void 0!==arguments[3]?arguments[3]:1,i=arguments.length>4&&void 0!==arguments[4]&&arguments[4],o=arguments.length>5&&void 0!==arguments[5]?arguments[5]:1,u=t.length,a=e>0?n:0;i&&r%2==0&&(a=n-a);var l=null;return function(f,s){var c=f%n,h=1+(f-c)/n;s*=e,i&&h%2==0&&(s=-s);var v=!1;if(h>r)c=a,v=!0,-1===o&&(c=e>0?0:n);else if(s<0&&(c=n-c),c===l)return!1;l=c;for(var y=0;y<u;y++)t[y](c);return v}}(r,n.duration,n.iterations||1/0,n.direction||1,!!n.alternate,n.fill||1):null}var L=function(){function t(r,e){var i=arguments.length>2&&void 0!==arguments[2]?arguments[2]:{};n(this,t),this._id=0,this._running=!1,this._rollingBack=!1,this._animations=r,this.duration=e.duration,this.alternate=e.alternate,this.fill=e.fill,this.iterations=e.iterations,this.direction=i.direction||1,this.speed=i.speed||1,this.fps=i.fps||100,this.offset=i.offset||0,this.rollbackStartOffset=0}return e(t,[{key:"_rollback",value:function(){var t=this,n=1/0,r=null;this.rollbackStartOffset=this.offset,this._rollingBack||(this._rollingBack=!0,this._running=!0);this._id=window.requestAnimationFrame((function e(i){if(t._rollingBack){null==r&&(r=i);var o=i-r,u=t.rollbackStartOffset-o,a=Math.round(u*t.speed);if(a>t.duration&&n!=1/0){var l=!!t.alternate&&a/t.duration%2>1,f=a%t.duration;a=(f+=l?t.duration:0)||t.duration}var s=t.fps?1e3/t.fps:0,c=Math.max(0,a);if(c<n-s){t.offset=c,n=c;for(var h=t._animations,v=h.length,y=0;y<v;y++)h[y](c,t.direction)}var d=!1;if(t.iterations>0&&-1===t.fill){var g=t.iterations*t.duration,p=g==a;a=p?0:a,t.offset=p?0:t.offset,d=a>g}a>0&&t.offset>=a&&!d?t._id=window.requestAnimationFrame(e):t.stop()}}))}},{key:"_start",value:function(){var t=this,n=arguments.length>0&&void 0!==arguments[0]?arguments[0]:0,r=-1/0,e=null,i={},o=function o(u){t._running=!0,null==e&&(e=u);var a=Math.round((u-e+n)*t.speed),l=t.fps?1e3/t.fps:0;if(a>r+l&&!t._rollingBack){t.offset=a,r=a;for(var f=t._animations,s=f.length,c=0,h=0;h<s;h++)i[h]?c++:(i[h]=f[h](a,t.direction),i[h]&&c++);if(c===s)return void t._stop()}t._id=window.requestAnimationFrame(o)};this._id=window.requestAnimationFrame(o)}},{key:"_stop",value:function(){this._id&&window.cancelAnimationFrame(this._id),this._running=!1,this._rollingBack=!1}},{key:"play",value:function(){!this._rollingBack&&this._running||(this._rollingBack=!1,this.rollbackStartOffset>this.duration&&(this.offset=this.rollbackStartOffset-(this.rollbackStartOffset-this.offset)%this.duration,this.rollbackStartOffset=0),this._start(this.offset))}},{key:"stop",value:function(){this._stop(),this.offset=0,this.rollbackStartOffset=0;var t=this.direction,n=this._animations;window.requestAnimationFrame((function(){for(var r=0;r<n.length;r++)n[r](0,t)}))}},{key:"reachedToEnd",value:function(){return this.iterations>0&&this.offset>=this.iterations*this.duration}},{key:"restart",value:function(){this._stop(),this.offset=0,this._start()}},{key:"pause",value:function(){this._stop()}},{key:"reverse",value:function(){this.direction=-this.direction}}],[{key:"build",value:function(n,r){return(n=function(t,n){if(M=n,!t||!t.root||!Array.isArray(t.animations))return null;for(var r=document.getElementsByTagName("svg"),e=!1,i=0;i<r.length;i++)if(r[i].id===t.root&&!r[i].svgatorAnimation){(e=r[i]).svgatorAnimation=!0;break}if(!e)return null;var o=t.animations.map((function(t){return z(e,t)})).filter((function(t){return!!t}));return o.length?{element:e,animations:o,animationSettings:t.animationSettings,options:t.options||void 0}:null}(n,r))?{el:n.element,options:n.options||{},player:new t(n.animations,n.animationSettings,n.options)}:null}}]),t}();!function(){for(var t=0,n=["ms","moz","webkit","o"],r=0;r<n.length&&!window.requestAnimationFrame;++r)window.requestAnimationFrame=window[n[r]+"RequestAnimationFrame"],window.cancelAnimationFrame=window[n[r]+"CancelAnimationFrame"]||window[n[r]+"CancelRequestAnimationFrame"];window.requestAnimationFrame||(window.requestAnimationFrame=function(n){var r=Date.now(),e=Math.max(0,16-(r-t)),i=window.setTimeout((function(){n(r+e)}),e);return t=r+e,i},window.cancelAnimationFrame=window.clearTimeout)}();var D=/\.0+$/g;function Q(t){return Number.isInteger(t)?t+"":t.toFixed(6).replace(D,"")}function U(t){var n=arguments.length>1&&void 0!==arguments[1]?arguments[1]:" ";return t&&t.length?t.map(Q).join(n):""}function V(t){return t?null==t.a||t.a>=1?"rgb("+t.r+","+t.g+","+t.b+")":"rgba("+t.r+","+t.g+","+t.b+","+t.a+")":"transparent"}var $={f:null,i:function(t,n,r){return 0===t?n:1===t?r:{x:w(t,n.x,r.x),y:w(t,n.y,r.y)}},u:function(t,n){return function(r){var e=n(r);t.setAttribute("rx",Q(e.x)),t.setAttribute("ry",Q(e.y))}}},G={f:null,i:function(t,n,r){return 0===t?n:1===t?r:{width:w(t,n.width,r.width),height:w(t,n.height,r.height)}},u:function(t,n){return function(r){var e=n(r);t.setAttribute("width",Q(e.width)),t.setAttribute("height",Q(e.height))}}},H=Math.sin,Y=Math.cos,Z=Math.acos,J=Math.asin,K=Math.tan,W=Math.atan2,X=Math.PI/180,tt=180/Math.PI,nt=Math.sqrt,rt=function(){function t(){var r=arguments.length>0&&void 0!==arguments[0]?arguments[0]:1,e=arguments.length>1&&void 0!==arguments[1]?arguments[1]:0,i=arguments.length>2&&void 0!==arguments[2]?arguments[2]:0,o=arguments.length>3&&void 0!==arguments[3]?arguments[3]:1,u=arguments.length>4&&void 0!==arguments[4]?arguments[4]:0,a=arguments.length>5&&void 0!==arguments[5]?arguments[5]:0;n(this,t),this.m=[r,e,i,o,u,a],this.i=null,this.w=null,this.s=null}return e(t,[{key:"determinant",get:function(){var t=this.m;return t[0]*t[3]-t[1]*t[2]}},{key:"isIdentity",get:function(){if(null===this.i){var t=this.m;this.i=1===t[0]&&0===t[1]&&0===t[2]&&1===t[3]&&0===t[4]&&0===t[5]}return this.i}},{key:"point",value:function(t,n){var r=this.m;return{x:r[0]*t+r[2]*n+r[4],y:r[1]*t+r[3]*n+r[5]}}},{key:"translateSelf",value:function(){var t=arguments.length>0&&void 0!==arguments[0]?arguments[0]:0,n=arguments.length>1&&void 0!==arguments[1]?arguments[1]:0;if(!t&&!n)return this;var r=this.m;return r[4]+=r[0]*t+r[2]*n,r[5]+=r[1]*t+r[3]*n,this.w=this.s=this.i=null,this}},{key:"rotateSelf",value:function(){var t=arguments.length>0&&void 0!==arguments[0]?arguments[0]:0;if(t%=360){var n=H(t*=X),r=Y(t),e=this.m,i=e[0],o=e[1];e[0]=i*r+e[2]*n,e[1]=o*r+e[3]*n,e[2]=e[2]*r-i*n,e[3]=e[3]*r-o*n,this.w=this.s=this.i=null}return this}},{key:"scaleSelf",value:function(){var t=arguments.length>0&&void 0!==arguments[0]?arguments[0]:1,n=arguments.length>1&&void 0!==arguments[1]?arguments[1]:1;if(1!==t||1!==n){var r=this.m;r[0]*=t,r[1]*=t,r[2]*=n,r[3]*=n,this.w=this.s=this.i=null}return this}},{key:"skewSelf",value:function(t,n){if(n%=360,(t%=360)||n){var r=this.m,e=r[0],i=r[1],o=r[2],u=r[3];t&&(t=K(t*X),r[2]+=e*t,r[3]+=i*t),n&&(n=K(n*X),r[0]+=o*n,r[1]+=u*n),this.w=this.s=this.i=null}return this}},{key:"resetSelf",value:function(){var t=arguments.length>0&&void 0!==arguments[0]?arguments[0]:1,n=arguments.length>1&&void 0!==arguments[1]?arguments[1]:0,r=arguments.length>2&&void 0!==arguments[2]?arguments[2]:0,e=arguments.length>3&&void 0!==arguments[3]?arguments[3]:1,i=arguments.length>4&&void 0!==arguments[4]?arguments[4]:0,o=arguments.length>5&&void 0!==arguments[5]?arguments[5]:0,u=this.m;return u[0]=t,u[1]=n,u[2]=r,u[3]=e,u[4]=i,u[5]=o,this.w=this.s=this.i=null,this}},{key:"recomposeSelf",value:function(){var t=arguments.length>0&&void 0!==arguments[0]?arguments[0]:null,n=arguments.length>1&&void 0!==arguments[1]?arguments[1]:null,r=arguments.length>2&&void 0!==arguments[2]?arguments[2]:null,e=arguments.length>3&&void 0!==arguments[3]?arguments[3]:null,i=arguments.length>4&&void 0!==arguments[4]?arguments[4]:null;return this.isIdentity||this.resetSelf(),t&&(t.x||t.y)&&this.translateSelf(t.x,t.y),n&&this.rotateSelf(n),r&&(r.x&&this.skewSelf(r.x,0),r.y&&this.skewSelf(0,r.y)),!e||1===e.x&&1===e.y||this.scaleSelf(e.x,e.y),i&&(i.x||i.y)&&this.translateSelf(i.x,i.y),this}},{key:"decompose",value:function(){var t=arguments.length>0&&void 0!==arguments[0]?arguments[0]:0,n=arguments.length>1&&void 0!==arguments[1]?arguments[1]:0,r=this.m,e=r[0]*r[0]+r[1]*r[1],i=[[r[0],r[1]],[r[2],r[3]]],o=nt(e);if(0===o)return{origin:{x:r[4],y:r[5]},translate:{x:t,y:n},scale:{x:0,y:0},skew:{x:0,y:0},rotate:0};i[0][0]/=o,i[0][1]/=o;var u=r[0]*r[3]-r[1]*r[2]<0;u&&(o=-o);var a=i[0][0]*i[1][0]+i[0][1]*i[1][1];i[1][0]-=i[0][0]*a,i[1][1]-=i[0][1]*a;var l=nt(i[1][0]*i[1][0]+i[1][1]*i[1][1]);if(0===l)return{origin:{x:r[4],y:r[5]},translate:{x:t,y:n},scale:{x:o,y:0},skew:{x:0,y:0},rotate:0};i[1][0]/=l,i[1][1]/=l,a/=l;var f=0;return i[1][1]<0?(f=Z(i[1][1])*tt,i[0][1]<0&&(f=360-f)):f=J(i[0][1])*tt,u&&(f=-f),a=W(a,nt(i[0][0]*i[0][0]+i[0][1]*i[0][1]))*tt,u&&(a=-a),{origin:{x:r[4],y:r[5]},translate:{x:t,y:n},scale:{x:o,y:l},skew:{x:a,y:0},rotate:f}}},{key:"toString",value:function(){return null===this.s&&(this.s="matrix("+this.m.map(it).join(" ")+")"),this.s}}]),t}(),et=/\.0+$/;function it(t){return Number.isInteger(t)?t:t.toFixed(14).replace(et,"")}Object.freeze({M:2,L:2,Z:0,H:1,V:1,C:6,Q:4,T:2,S:4,A:7});var ot={},ut=null;function at(n){var r=function(){if(ut)return ut;if("object"!==("undefined"==typeof document?"undefined":t(document)))return{};var n=document.createElementNS("http://www.w3.org/2000/svg","svg");return n.style.position="absolute",n.style.opacity="0.01",n.style.zIndex="-9999",n.style.left="-9999px",n.style.width="1px",n.style.height="1px",ut={svg:n}}().svg;if(!r)return function(t){return null};var e=document.createElementNS(r.namespaceURI,"path");e.setAttributeNS(null,"d",n),e.setAttributeNS(null,"fill","none"),e.setAttributeNS(null,"stroke","none"),r.appendChild(e);var i=e.getTotalLength();return function(t){var n=e.getPointAtLength(i*t);return{x:n.x,y:n.y}}}function lt(t){return ot[t]?ot[t]:ot[t]=at(t)}function ft(t,n,r,e){if(!t||!e)return!1;var i=["M",t.x,t.y];if(n&&r&&(i.push("C"),i.push(n.x),i.push(n.y),i.push(r.x),i.push(r.y)),n?!r:r){var o=n||r;i.push("Q"),i.push(o.x),i.push(o.y)}return n||r||i.push("L"),i.push(e.x),i.push(e.y),i.join(" ")}function st(t,n,r,e){var i=arguments.length>4&&void 0!==arguments[4]?arguments[4]:1,o=ft(t,n,r,e),u=lt(o);try{return u(i)}catch(t){return null}}function ct(t,n,r,e){var i=1-e;return i*i*t+2*i*e*n+e*e*r}function ht(t,n,r,e){return 2*(1-e)*(n-t)+2*e*(r-n)}function vt(t,n,r,e){var i=arguments.length>4&&void 0!==arguments[4]&&arguments[4],o=st(t,n,null,r,e);return o||(o={x:ct(t.x,n.x,r.x,e),y:ct(t.y,n.y,r.y,e)}),i&&(o.a=yt(t,n,r,e)),o}function yt(t,n,r,e){return Math.atan2(ht(t.y,n.y,r.y,e),ht(t.x,n.x,r.x,e))}function dt(t,n,r,e,i){var o=i*i;return i*o*(e-t+3*(n-r))+3*o*(t+r-2*n)+3*i*(n-t)+t}function gt(t,n,r,e,i){var o=1-i;return 3*(o*o*(n-t)+2*o*i*(r-n)+i*i*(e-r))}function pt(t,n,r,e,i){var o=arguments.length>5&&void 0!==arguments[5]&&arguments[5],u=st(t,n,r,e,i);return u||(u={x:dt(t.x,n.x,r.x,e.x,i),y:dt(t.y,n.y,r.y,e.y,i)}),o&&(u.a=mt(t,n,r,e,i)),u}function mt(t,n,r,e,i){return Math.atan2(gt(t.y,n.y,r.y,e.y,i),gt(t.x,n.x,r.x,e.x,i))}function bt(t,n,r){return t+(n-t)*r}function wt(t,n,r){var e=arguments.length>3&&void 0!==arguments[3]&&arguments[3],i={x:bt(t.x,n.x,r),y:bt(t.y,n.y,r)};return e&&(i.a=xt(t,n)),i}function xt(t,n){return Math.atan2(n.y-t.y,n.x-t.x)}function kt(t,n,r){var e=arguments.length>3&&void 0!==arguments[3]&&arguments[3];if(_t(n)){if(St(r))return vt(n,r.start,r,t,e)}else if(_t(r)){if(n.end)return vt(n,n.end,r,t,e)}else{if(n.end)return r.start?pt(n,n.end,r.start,r,t,e):vt(n,n.end,r,t,e);if(r.start)return vt(n,r.start,r,t,e)}return wt(n,r,t,e)}function At(t,n,r){var e=kt(t,n,r,!0);return e.a=function(t){var n=arguments.length>1&&void 0!==arguments[1]&&arguments[1];return n?t+Math.PI:t}(e.a)/p,e}function _t(t){return!t.type||"corner"===t.type}function St(t){return null!=t.start&&!_t(t)}var Ot=new rt;var Mt={f:Q,i:b},jt={f:Q,i:function(t,n,r){var e=b(t,n,r);return e<=0?0:e>=1?1:e}};function Ft(t,n,r,e,i,o,u,a){return n=function(t,n,r){for(var e,i,o,u=t.length-1,a={},l=0;l<=u;l++)(e=t[l]).e&&(e.e=n(e.e)),e.v&&"g"===(i=e.v).t&&i.r&&(o=r.getElementById(i.r))&&(a[i.r]=o.querySelectorAll("stop"));return a}(t,e,a),function(e){var i,o=r(e,t,Pt);return o?"c"===o.t?V(o.v):"g"===o.t?(n[o.r]&&function(t,n){for(var r=0,e=t.length;r<e;r++)t[r].setAttribute("stop-color",V(n[r]))}(n[o.r],o.v),(i=o.r)?"url(#"+i+")":"none"):"none":"none"}}function Pt(t,n,r){if(0===t)return n;if(1===t)return r;if(n&&r){var e=n.t;if(e===r.t)switch(n.t){case"c":return{t:e,v:A(t,n.v,r.v)};case"g":if(n.r===r.r)return{t:e,v:_(t,n.v,r.v),r:n.r}}}return m(t,n,r)}var Bt={fill:Ft,"fill-opacity":jt,stroke:Ft,"stroke-opacity":jt,"stroke-width":Mt,"stroke-dashoffset":{f:Q,i:b},"stroke-dasharray":{f:function(t){var n=arguments.length>1&&void 0!==arguments[1]?arguments[1]:" ";return t&&t.length>0&&(t=t.map((function(t){return Math.floor(1e4*t)/1e4}))),U(t,n)},i:function(t,n,r){var e,i,o,u=n.length,a=r.length;if(u!==a)if(0===u)n=S(u=a,0);else if(0===a)a=u,r=S(u,0);else{var l=(o=(e=u)*(i=a)/function(t,n){for(var r;n;)r=n,n=t%n,t=r;return t||1}(e,i))<0?-o:o;n=O(n,Math.floor(l/u)),r=O(r,Math.floor(l/a)),u=a=l}for(var f=[],s=0;s<u;s++)f.push(g(w(t,n[s],r[s]),6));return f}},opacity:jt,transform:function(n,r,e,i){if(!(n=function(n,r){if(!n||"object"!==t(n))return null;var e=!1;for(var i in n)n.hasOwnProperty(i)&&(n[i]&&n[i].length?(n[i].forEach((function(t){t.e&&(t.e=r(t.e))})),e=!0):delete n[i]);return e?n:null}(n,i)))return null;var o=function(t,i,o){var u=arguments.length>3&&void 0!==arguments[3]?arguments[3]:null;return n[t]?e(i,n[t],o):r&&r[t]?r[t]:u};return r&&r.a&&n.o?function(t){var r=e(t,n.o,At);return Ot.recomposeSelf(r,o("r",t,b,0)+r.a,o("k",t,x),o("s",t,x),o("t",t,x)).toString()}:function(t){return Ot.recomposeSelf(o("o",t,kt,null),o("r",t,b,0),o("k",t,x),o("s",t,x),o("t",t,x)).toString()}},r:Mt,"#size":G,"#radius":$,_:function(t,n){if(Array.isArray(t))for(var r=0;r<t.length;r++)this[t[r]]=n;else this[t]=n}};return function(t){!function(t,n){if("function"!=typeof n&&null!==n)throw new TypeError("Super expression must either be null or a function");t.prototype=Object.create(n&&n.prototype,{constructor:{value:t,writable:!0,configurable:!0}}),n&&o(t,n)}(u,t);var r=a(u);function u(){return n(this,u),r.apply(this,arguments)}return e(u,null,[{key:"build",value:function(t){var n=l(i(u),"build",this).call(this,t,Bt);n.el,n.options;var r=n.player;return function(t,n,r){t.play()}(r),r}}]),u}(L)}));
__SVGATOR_PLAYER__.build({"root":"ePmcfxuYE0e1","animations":[{"duration":1300,"direction":1,"iterations":0,"fill":1,"alternate":false,"speed":1,"elements":{"ePmcfxuYE0e21":{"opacity":[{"t":50,"v":1},{"t":700,"v":0},{"t":1300,"v":1}]},"ePmcfxuYE0e66":{"transform":{"data":{"o":{"x":44.1,"y":71.11446932,"type":"corner"},"t":{"x":-45.1,"y":-71.11446932}},"keys":{"s":[{"t":0,"v":{"x":1,"y":1}},{"t":600,"v":{"x":1,"y":0.7122600740659286}},{"t":1300,"v":{"x":1,"y":1}}]}}},"ePmcfxuYE0e67":{"transform":{"data":{"o":{"x":67.14889336,"y":64.453418,"type":"corner"},"t":{"x":-67.14889336,"y":-64.453418}},"keys":{"s":[{"t":0,"v":{"x":1,"y":1}},{"t":600,"v":{"x":1,"y":0.7051281961001759}},{"t":1300,"v":{"x":1,"y":1}}]}}}}}],"options":{"start":"load","hover":"freeze","click":"freeze","scroll":25,"font":"embed","exportedIds":"unique","svgFormat":"animated","title":"header-bbq"},"animationSettings":{"duration":1300,"direction":1,"iterations":0,"fill":1,"alternate":false,"speed":1}})]]></script></svg>