<svg width="226" height="172" viewBox="0 0 226 172" fill="none" xmlns="http://www.w3.org/2000/svg">
<g clip-path="url(#clip0)">
<path d="M120.2 81.2L219.5 84L225 0.5L117.7 2.3L120.2 81.2Z" fill="#DA7C3A"/>
<path d="M119.9 81.6C123.2 81.7 126.5 81.8 129.8 81.9C137.7 82.1 145.6 82.3 153.5 82.6C163.1 82.9 172.6 83.1 182.2 83.4C190.5 83.6 198.7 83.9 207 84.1C211 84.2 215.1 84.5 219.1 84.4C219.2 84.4 219.2 84.4 219.3 84.4C219.6 84.4 220.3 84.3 220.3 83.8C220.9 74.4 221.5 65 222.1 55.6C223.1 40.6 224.1 25.6 225 10.6C225.2 7.19999 225.4 3.79999 225.7 0.299994C225.7 -0.100006 225.3 -0.100006 225 -0.100006C221.4 -6.10203e-06 217.9 -6.10203e-06 214.3 0.0999939C205.8 0.199994 197.2 0.399994 188.7 0.499994C178.4 0.699994 168.1 0.899994 157.8 0.999994C148.9 1.19999 139.9 1.29999 131 1.49999C128.1 1.49999 125.1 1.59999 122.2 1.59999C120.8 1.59999 119.4 1.49999 118 1.69999C117.9 1.69999 117.9 1.69999 117.8 1.69999C117.6 1.69999 117 1.89999 117 2.29999C117.3 11.2 117.6 20.1 117.8 29C118.2 43.2 118.7 57.3 119.1 71.5C119.2 74.7 119.3 78 119.4 81.2C119.4 81.9 120.9 81.6 120.9 81.1C120.6 72.2 120.3 63.3 120.1 54.4C119.7 40.2 119.2 26.1 118.8 11.9C118.7 8.69999 118.6 5.39999 118.5 2.19999C118.2 2.39999 118 2.59999 117.7 2.79999C121.3 2.69999 124.8 2.69999 128.4 2.59999C136.9 2.49999 145.5 2.29999 154 2.19999C164.3 1.99999 174.6 1.79999 184.9 1.69999C193.8 1.49999 202.8 1.39999 211.7 1.19999C214.6 1.19999 217.6 1.09999 220.5 1.09999C221.4 1.09999 222.3 1.09999 223.3 1.09999C223.7 1.09999 224.3 1.19999 224.7 1.09999C224.8 1.09999 224.8 1.09999 224.9 1.09999C224.7 0.999994 224.5 0.799994 224.2 0.699994C223.6 10.1 223 19.5 222.4 28.9C221.4 43.9 220.4 58.9 219.5 73.9C219.3 77.3 219.1 80.7 218.8 84.2C219.1 84 219.5 83.8 219.8 83.6C216.5 83.5 213.2 83.4 209.9 83.3C202 83.1 194.1 82.9 186.2 82.6C176.6 82.3 167.1 82.1 157.5 81.8C149.2 81.6 141 81.3 132.7 81.1C128.7 81 124.6 80.7 120.6 80.8C120.5 80.8 120.5 80.8 120.4 80.8C119.8 80.7 119 81.6 119.9 81.6Z" fill="#483A35"/>
<path d="M216.5 8.5L125.9 10.1L127.9 73.5L212.1 75.8L216.5 8.5Z" fill="#FAEBB1"/>
<path d="M216.3 8.29999C215.5 8.29999 214.7 8.29999 213.9 8.29999C211.7 8.29999 209.5 8.39999 207.3 8.39999C204.1 8.49999 200.8 8.49999 197.6 8.59999C193.6 8.69999 189.6 8.69999 185.7 8.79999C181.4 8.89999 177 8.89999 172.7 8.99999C168.3 9.09999 163.9 9.09999 159.6 9.19999C155.5 9.29999 151.4 9.29999 147.3 9.39999C143.8 9.49999 140.4 9.49999 136.9 9.59999C134.4 9.59999 131.9 9.69999 129.4 9.69999C128.2 9.69999 127 9.69999 125.9 9.79999C125.8 9.79999 125.8 9.79999 125.7 9.79999C125.6 9.79999 125.4 9.79999 125.4 9.89999C125.5 12 125.5 14.1 125.6 16.2C125.8 21.2 125.9 26.3 126.1 31.3C126.3 37.4 126.5 43.5 126.7 49.7C126.9 55 127 60.2 127.2 65.5C127.3 67.2 127.3 69 127.4 70.7C127.4 71.5 127.3 72.4 127.5 73.2V73.3C127.5 73.6 128 73.6 128.2 73.7C131 73.8 133.8 73.9 136.6 73.9C143.3 74.1 150 74.3 156.7 74.5C164.8 74.7 173 75 181.1 75.2C188.1 75.4 195.1 75.6 202.1 75.8C205.5 75.9 208.9 76.1 212.3 76.1H212.4C212.5 76.1 212.7 76.1 212.7 76C212.8 73.8 213 71.5 213.1 69.3C213.4 63.9 213.8 58.6 214.1 53.2C214.5 46.7 214.9 40.2 215.4 33.7C215.8 28.1 216.1 22.5 216.5 16.9C216.6 15.1 216.7 13.2 216.9 11.4C217 10.6 217.1 9.59999 217.1 8.79999V8.69999C217.1 8.39999 216.1 8.19999 216.1 8.49999C216 10.7 215.8 13 215.7 15.2C215.4 20.6 215 25.9 214.7 31.3C214.3 37.8 213.9 44.3 213.4 50.8C213 56.4 212.7 62 212.3 67.6C212.2 69.4 212.1 71.3 211.9 73.1C211.9 73.7 211.8 74.2 211.8 74.8C211.8 75 211.7 75.5 211.7 75.7V75.8C211.8 75.8 211.9 75.7 212 75.7C209.2 75.6 206.4 75.5 203.6 75.5C196.9 75.3 190.2 75.1 183.5 74.9C175.4 74.7 167.2 74.4 159.1 74.2C152.1 74 145.1 73.8 138.1 73.6C135.8 73.5 133.5 73.5 131.1 73.4C130 73.4 128.9 73.2 127.8 73.3H127.7C127.9 73.4 128.2 73.5 128.4 73.7C128.3 71.6 128.3 69.5 128.2 67.4C128 62.4 127.9 57.3 127.7 52.3C127.5 46.2 127.3 40.1 127.1 33.9C126.9 28.6 126.8 23.4 126.6 18.1C126.5 16.4 126.5 14.6 126.4 12.9C126.4 12.4 126.4 11.8 126.3 11.3C126.3 11.1 126.4 10.6 126.3 10.4V10.3C126.2 10.3 126.1 10.4 126 10.4C126.8 10.4 127.6 10.4 128.4 10.4C130.6 10.4 132.8 10.3 135 10.3C138.2 10.2 141.5 10.2 144.7 10.1C148.7 9.99999 152.7 9.99999 156.6 9.89999C160.9 9.79999 165.3 9.79999 169.6 9.69999C174 9.59999 178.4 9.59999 182.7 9.49999C186.8 9.39999 190.9 9.39999 195 9.29999C198.5 9.19999 201.9 9.19999 205.4 9.09999C207.9 9.09999 210.4 8.99999 212.9 8.99999C214.1 8.99999 215.3 8.99999 216.4 8.89999C216.5 8.89999 216.5 8.89999 216.6 8.89999C217.4 8.79999 216.6 8.29999 216.3 8.29999Z" fill="#483A35"/>
<path d="M202.4 22L139.5 23L140.7 60.6L199.8 62.3L202.4 22Z" fill="#ECBD80"/>
<path opacity="0.2" d="M174.4 11.1L186.2 74L174.4 73L152.5 11.1H174.4ZM128.2 11.1L156.1 71.8L169.8 72.1L150.1 11.1H128.2Z" fill="white"/>
<path d="M114.7 169.5L163.8 171.1L166.9 109.3L113.2 110.4L114.7 169.5Z" fill="#DA7C3A"/>
<path d="M114.2 169.8C119.7 170 125.3 170.2 130.8 170.3C139.6 170.6 148.4 170.9 157.2 171.2C159.2 171.3 161.3 171.3 163.3 171.4C163.6 171.4 164.5 171.3 164.5 170.9C164.8 164 165.2 157 165.5 150.1C166.1 139 166.6 127.9 167.2 116.9C167.3 114.3 167.5 111.8 167.6 109.2C167.6 109.1 167.4 109.1 167.3 109.1C161.3 109.2 155.2 109.3 149.2 109.5C139.6 109.7 130 109.9 120.3 110.1C118.1 110.1 115.9 110.2 113.6 110.2C113.3 110.2 112.4 110.3 112.4 110.7C112.6 117.4 112.7 124 112.9 130.7C113.2 141.3 113.4 151.9 113.7 162.5C113.8 164.9 113.8 167.4 113.9 169.8C113.9 170 115.4 169.8 115.3 169.4C115.1 162.7 115 156.1 114.8 149.4C114.5 138.8 114.3 128.2 114 117.6C113.9 115.2 113.9 112.7 113.8 110.3C113.4 110.5 113 110.6 112.6 110.8C119.4 110.7 126.3 110.5 133.1 110.4C142.9 110.2 152.7 110 162.6 109.8C163.7 109.8 164.8 109.8 165.8 109.7C165.9 109.7 166.2 109.6 166.3 109.7C165.9 109.5 166.1 109.7 166 110C165.8 110.8 165.9 111.9 165.9 112.8C165.8 114.5 165.7 116.2 165.6 117.8C165.1 128.2 164.6 138.5 164 148.9C163.8 153.7 163.5 158.6 163.3 163.4C163.2 165 163.1 166.7 163.1 168.3C163.1 169.2 162.9 170.2 163 171C163 171.1 163 171.3 163 171.4C163.4 171.2 163.8 171.1 164.2 170.9C158.7 170.7 153.1 170.5 147.6 170.4C138.8 170.1 130 169.8 121.2 169.5C119.2 169.4 117.1 169.4 115.1 169.3C114.8 169.2 113.5 169.8 114.2 169.8Z" fill="#483A35"/>
<path d="M162.1 113.9L117.9 114.8L119 165.1L159.6 166.5L162.1 113.9Z" fill="#FAEBB1"/>
<path d="M162.1 113.7C160.6 113.7 159.2 113.8 157.7 113.8C154.2 113.9 150.7 113.9 147.2 114C142.9 114.1 138.7 114.2 134.4 114.3C130.7 114.4 127.1 114.4 123.4 114.5C121.6 114.5 119.8 114.5 118 114.6H117.9C117.8 114.6 117.4 114.6 117.4 114.8C117.4 116.5 117.5 118.1 117.5 119.8C117.6 123.8 117.7 127.8 117.8 131.8C117.9 136.6 118 141.5 118.1 146.3C118.2 150.5 118.3 154.7 118.4 158.9C118.4 160.3 118.5 161.7 118.5 163.1C118.5 163.5 118.5 164 118.5 164.4C118.5 164.6 118.5 164.9 118.5 165.1V165.2C118.5 165.4 118.9 165.4 119 165.4C123.6 165.6 128.2 165.7 132.8 165.9C140.1 166.1 147.3 166.4 154.6 166.6C156.3 166.7 157.9 166.7 159.6 166.8C159.7 166.8 160.1 166.8 160.1 166.6C160.2 164.9 160.3 163.1 160.3 161.4C160.5 157.2 160.7 153 160.9 148.8C161.1 143.8 161.4 138.7 161.6 133.7C161.8 129.3 162 124.9 162.2 120.6C162.3 119.2 162.3 117.7 162.4 116.3C162.4 115.8 162.4 115.4 162.5 114.9C162.5 114.7 162.6 114.4 162.5 114.2V114.1C162.5 113.8 161.5 113.8 161.5 114.1C161.4 115.8 161.3 117.6 161.3 119.3C161.1 123.5 160.9 127.7 160.7 131.9C160.5 136.9 160.2 142 160 147C159.8 151.4 159.6 155.8 159.4 160.1C159.3 161.5 159.3 163 159.2 164.4C159.2 164.9 159.2 165.3 159.1 165.8C159.1 166 159 166.3 159.1 166.5V166.6C159.3 166.5 159.4 166.5 159.6 166.4C155 166.2 150.4 166.1 145.8 165.9C138.5 165.7 131.3 165.4 124 165.2C122.3 165.1 120.7 165.1 119 165C119.2 165.1 119.3 165.1 119.5 165.2C119.5 163.5 119.4 161.9 119.4 160.2C119.3 156.2 119.2 152.2 119.1 148.2C119 143.4 118.9 138.5 118.8 133.7C118.7 129.5 118.6 125.3 118.5 121.1C118.5 119.7 118.4 118.3 118.4 116.9C118.4 116.5 118.4 116 118.4 115.6C118.4 115.4 118.4 115.1 118.4 114.9V114.8C118.2 114.9 118.1 114.9 117.9 115C119.4 115 120.8 114.9 122.3 114.9C125.8 114.8 129.3 114.8 132.8 114.7C137.1 114.6 141.3 114.5 145.6 114.4C149.3 114.3 152.9 114.3 156.6 114.2C158.4 114.2 160.2 114.2 162 114.1H162.1C162.7 114.1 162.7 113.7 162.1 113.7Z" fill="#483A35"/>
<path d="M154.1 121.5L125.6 122.2L126.3 157.8L152.6 158.8L154.1 121.5Z" fill="#ECBD80"/>
<path opacity="0.2" d="M145.5 115.4L152.2 165.5L145.5 164.9L133 115.4H145.5ZM119.2 115.4L135 164.2L142.8 164.3L131.6 115.3H119.2V115.4Z" fill="white"/>
<path d="M178.8 141.5L217.1 142.8L219.5 94.6L177.7 95.4L178.8 141.5Z" fill="#DF9E40"/>
<path d="M178.6 142C189.8 142.4 200.9 142.7 212.1 143.1C213.7 143.2 215.3 143.2 216.9 143.3C217.2 143.3 217.9 143.2 217.9 142.8C218.2 137.4 218.4 132 218.7 126.6C219.1 118 219.6 109.3 220 100.7C220.1 98.7 220.2 96.7 220.3 94.7C220.3 94.5 220.1 94.4 219.9 94.4C207.7 94.6 195.5 94.9 183.2 95.1C181.5 95.1 179.8 95.2 178.1 95.2C177.7 95.2 177.1 95.4 177.1 95.8C177.2 101 177.3 106.2 177.5 111.4C177.7 119.7 177.9 127.9 178.1 136.2C178.1 138.1 178.2 140 178.2 141.9C178.2 142.4 179.7 142.1 179.6 141.5C179.5 136.3 179.4 131.1 179.2 125.9C179 117.6 178.8 109.4 178.6 101.1C178.6 99.2 178.5 97.3 178.5 95.4C178.2 95.6 177.8 95.8 177.5 96C189.7 95.8 201.9 95.5 214.2 95.3C215.9 95.3 217.6 95.2 219.3 95.2C219.2 95.1 219 95 218.9 94.9C218.6 100.3 218.4 105.7 218.1 111.1C217.7 119.7 217.2 128.4 216.8 137C216.7 139 216.6 141 216.5 143C216.8 142.8 217.2 142.7 217.5 142.5C206.3 142.1 195.2 141.8 184 141.4C182.4 141.3 180.8 141.3 179.2 141.2C178.5 141.1 177.6 141.9 178.6 142Z" fill="#483A35"/>
<path d="M215.8 98.2L181.3 98.9L182.2 138.1L213.8 139.2L215.8 98.2Z" fill="#FAEBB1"/>
<path d="M215.9 98C212 98.1 208.1 98.2 204.2 98.2C198 98.3 191.9 98.4 185.7 98.6C184.3 98.6 182.9 98.7 181.4 98.7C181.3 98.7 180.8 98.7 180.8 98.9C180.9 103.3 181 107.8 181.1 112.2C181.3 119.2 181.4 126.3 181.6 133.3C181.6 134.9 181.7 136.5 181.7 138.1C181.7 138.2 182 138.3 182.1 138.3C185.7 138.4 189.2 138.5 192.8 138.7C198.5 138.9 204.1 139.1 209.8 139.3C211.1 139.3 212.4 139.4 213.7 139.4C213.8 139.4 214.3 139.4 214.3 139.2C214.5 134.6 214.7 129.9 215 125.3C215.3 118 215.7 110.6 216 103.3C216.1 101.6 216.2 99.9 216.2 98.3C216.2 98 215.2 98.1 215.2 98.4C215 103 214.8 107.7 214.5 112.3C214.2 119.6 213.8 127 213.5 134.3C213.4 136 213.3 137.7 213.3 139.3C213.5 139.2 213.7 139.1 213.9 139.1C210.3 139 206.8 138.9 203.2 138.7C197.5 138.5 191.9 138.3 186.2 138.1C184.9 138.1 183.6 138 182.3 138C182.4 138.1 182.6 138.1 182.7 138.2C182.6 133.8 182.5 129.3 182.4 124.9C182.2 117.9 182.1 110.8 181.9 103.8C181.9 102.2 181.8 100.6 181.8 99C181.6 99.1 181.4 99.2 181.2 99.2C185.1 99.1 189 99 192.9 99C199.1 98.9 205.2 98.8 211.4 98.6C212.8 98.6 214.2 98.5 215.7 98.5C215.8 98.5 216.3 98.5 216.3 98.3C216.3 98 216 98 215.9 98Z" fill="#483A35"/>
<path d="M209.5 104.1L187.4 104.6L187.9 132.4L208.4 133.2L209.5 104.1Z" fill="#ECBD80"/>
<path opacity="0.2" d="M202.8 99.4L208 138.4L202.8 138L193.1 99.4H202.8ZM182.4 99.4L194.7 137.5L200.8 137.6L192.1 99.4H182.4Z" fill="white"/>
<path d="M6.29999 158.2L12.3 119.1L84.5 67C85.1 100.9 84.8 132.4 82.7 158.3" fill="#34839F"/>
<path d="M0.700012 153.4C26.6 156.2 49.8 156 78.3 153.4C81.4 132.3 84.9 81.5 84.4 32.5L2.10001 34.3C2.30001 82.5 2.70001 134 0.700012 153.4Z" fill="#F7F4D9"/>
<path d="M0.3 153.7C20.1 155.8 39.9 156.2 59.7 155.1C65.8 154.8 71.9 154.3 78.1 153.7C78.3 153.7 79.1 153.6 79.1 153.3C80.9 141.3 81.8 129.1 82.6 117C83.8 99.6 84.6 82.1 85 64.7C85.2 53.9 85.3 43.1 85.2 32.4C85.2 32.3 84.8 32.3 84.8 32.3C75.5 32.5 66.3 32.7 57 32.9C42.2 33.2 27.4 33.6 12.7 33.9C9.3 33.9 5.9 33.9 2.4 34C2.2 34 1.4 34.2 1.4 34.5C1.5 53.1 1.6 71.7 1.6 90.3C1.6 105.7 1.5 121.1 1 136.5C0.8 142.2 0.6 147.9 0 153.5C0 153.7 1.4 153.6 1.4 153.1C2.6 141.4 2.6 129.6 2.8 117.8C3.1 100.6 3 83.3 3 65.9C3 55.3 2.9 44.7 2.9 34.1C2.6 34.3 2.2 34.4 1.9 34.6C11.2 34.4 20.4 34.2 29.7 34C44.5 33.7 59.3 33.3 74 33C77.4 32.9 80.8 32.8 84.2 32.8C84.1 32.8 83.9 32.7 83.8 32.7C84 51.4 83.6 70.1 82.8 88.8C82.1 104.4 81.2 119.9 79.7 135.5C79.1 141.5 78.5 147.6 77.6 153.5C77.9 153.4 78.3 153.2 78.6 153.1C58.4 155 38.1 155.8 17.9 154.5C12.3 154.2 6.7 153.7 1.1 153.1C0.9 153 -0.5 153.6 0.3 153.7Z" fill="#483A35"/>
<path d="M74 44.7C74.1 72.9 73.1 100.4 70.6 127C50.6 129 30.7 129.3 10.9 127.8C12.4 98.3 13 70.2 11.8 44.7H74Z" fill="#EDD09E"/>
<path d="M69.4 132.7C49.9 133.7 30.4 133.9 10.9 133.3L10.5 137C30.3 137.4 50 137 69.4 135.9V132.7Z" fill="#EDD09E"/>
<path d="M69.4 139.2C49.7 140.2 29.9 140.4 9.99998 139.8L9.59998 143.5C29.7 143.9 49.7 143.5 69.4 142.4V139.2Z" fill="#EDD09E"/>
</g>
<defs>
<clipPath id="clip0">
<rect width="225.7" height="171.4" fill="white"/>
</clipPath>
</defs>
</svg>
