<svg width="143" height="185" viewBox="0 0 143 185" fill="none" xmlns="http://www.w3.org/2000/svg">
<g clip-path="url(#clip0)">
<path d="M8.3 113.4C8.3 113.4 8.2 98.4 30.9 93C53.6 87.7 126.2 80.1 137.8 102C137.8 102 142.8 103.8 140.2 115.3C137.7 126.8 110.3 143.5 110.3 143.5H47.3L21.9 134.2C21.8 134.2 7 124.5 8.3 113.4Z" fill="#483A35"/>
<path d="M67.4 88.7C67.4 88.8 65.3 88.6 65.3 88.7C61.3 88.9 56.2 89.4 54.7 89.7C54.6 89.1 53.8 88.3 53.7 87.7C53.6 86.9 54 86.4 53.7 85.7C57.1 85.3 64.4 85 68.4 84.7C67.9 85.8 67.6 87.3 67.4 88.7Z" fill="#F08000"/>
<path d="M66.9 88.5C67.7 88 67.7 88.4 67.4 88.3C67.3 88.3 67.2 88.3 67 88.3C66.7 88.3 66.4 88.3 66.2 88.3C65.7 88.3 65.3 88.3 64.8 88.5C65 88.4 65.3 88.4 65.5 88.3C61.9 88.5 58.2 88.6 54.7 89.3C54.9 89.4 55.1 89.4 55.3 89.5C55.1 88.8 54.5 88.3 54.4 87.7C54.2 87 54.6 86.3 54.4 85.6C54.1 85.8 53.8 86 53.6 86.2C58.5 85.6 63.4 85.6 68.3 85.2C68.1 85.1 67.9 85 67.7 84.9C67.2 86.2 66.9 87.5 66.7 88.8C66.6 89.3 68.1 89.1 68.1 88.6C68.3 87.3 68.6 85.9 69.1 84.7C69.2 84.4 68.6 84.4 68.5 84.4C63.6 84.7 58.7 84.8 53.8 85.4C53.6 85.4 52.8 85.6 53 86C53.3 86.7 52.8 87.4 53 88.1C53.2 88.8 53.8 89.2 53.9 89.9C54 90.1 54.4 90.1 54.5 90.1C57 89.6 59.6 89.5 62.1 89.3C62.9 89.2 63.7 89.2 64.5 89.1C64.9 89.1 65.2 89.1 65.5 89C66.1 88.8 64.8 89 65.1 89.1C65.2 89.1 65.3 89.1 65.3 89.1C66 89.1 67.1 89.3 67.7 88.9C67.9 88.8 68.1 88.5 67.8 88.4C67.7 88.2 67.2 88.4 66.9 88.5Z" fill="#483A35"/>
<path d="M67.9 115C67.9 115 65.6 115.4 62.2 115C62.2 115 64.8 116.4 67.9 115Z" fill="black"/>
<path d="M95.2 105.9C95.2 105.9 93 107.5 91.4 107.8C91.3 107.8 93.6 108.3 95.2 105.9Z" fill="black"/>
<path d="M140.4 103.1C140.7 104.2 140.7 105.3 140.5 106.4C138.4 103.4 130.3 94.4 104.9 90.7C103.7 90.2 102.9 89.9 102.7 89.9C102.3 90 102 90.1 101.8 90.3C96.4 89.6 88 88.8 81 88.7C80.9 88.4 81.1 88.1 81 87.7C80.7 86.5 80.6 86 80 84.8C113.6 84.9 134.8 94.1 140.4 103.1Z" fill="#F08000"/>
<path d="M139.7 103.3C140 104.4 140 105.4 139.8 106.5C140.3 106.4 140.7 106.3 141.2 106.1C138.5 102.2 134.3 99.5 130.1 97.4C125.9 95.3 121.5 93.8 117 92.6C114.1 91.8 111.1 91.2 108.1 90.7C106.7 90.5 105.4 90.2 104 89.7C102.9 89.3 102.6 89.6 101.6 89.8C102.1 89.7 101.1 89.6 101.1 89.7C100.8 89.7 100.4 89.6 100.1 89.6C99.2 89.5 98.4 89.4 97.5 89.3C95.9 89.1 94.2 89 92.5 88.9C88.8 88.6 85 88.4 81.3 88.3C81.5 88.4 81.6 88.5 81.8 88.6C81.7 87.9 81.7 87.3 81.5 86.6C81.3 85.9 81.1 85.3 80.8 84.7C80.5 84.9 80.1 85.1 79.8 85.4C90.9 85.4 102.2 86.4 113 89.1C120.3 90.9 127.7 93.4 133.9 97.8C136.2 99.4 138.3 101.3 139.8 103.6C140.1 104.1 141.5 103.6 141.1 103C138 98.2 132.4 95.1 127.3 92.8C119 89.1 110 87.1 101 85.9C94.1 85 87.2 84.6 80.3 84.6C80 84.6 79.1 84.8 79.3 85.3C79.6 85.9 79.8 86.6 80 87.2C80.2 87.9 80.2 88.5 80.3 89.2C80.3 89.4 80.6 89.5 80.8 89.5C86.9 89.6 93.1 90.1 99.2 90.8C100.1 90.9 101.2 91.2 102.2 91C102.5 90.9 102.5 90.8 102.8 90.8C102.9 90.8 103.1 90.9 103.3 91C104.1 91.3 104.7 91.6 105.5 91.7C108.6 92.2 111.8 92.8 114.8 93.5C122.3 95.3 130.1 98.1 136.1 103C137.5 104.2 138.9 105.5 140 107.1C140.3 107.5 141.3 107.2 141.4 106.7C141.6 105.5 141.5 104.4 141.2 103.3C141 102.3 139.6 102.7 139.7 103.3Z" fill="#483A35"/>
<path d="M14 118.4C12.7 116.4 11.8 113.9 11.8 111.9L45 129.1C29.2 126.5 19.2 121.6 14 118.4Z" fill="#4B575E"/>
<path d="M48 129.6C43 127 10.2 110.2 9.89999 110C9.79999 109.8 9.79999 109.5 9.79999 109.2C9.79999 108.8 9.89999 108.4 10.3 108.2C12.4 108.4 35.9 121 52.2 130.1C50.7 129.9 49.4 129.7 48 129.6Z" fill="#F08000" stroke="#483A35"/>
<path d="M54.2 130.3C51.1 128.6 41.8 123.3 33.1 118.6C21 112.1 15.4 109.3 12.8 108.1C13.8 106.1 15.6 104.2 18.2 102.4L72.4 131C65.7 131 59.7 130.8 54.2 130.3Z" fill="#4B575E"/>
<path d="M74.9 130.8C71.5 129 18.9 101.6 18.4 101.4C18.4 101 18.5 100.2 18.8 99.8C18.9 99.7 19.1 99.6 19.3 99.6C19.5 99.6 20 99.9 20.9 100.3L21 100.5C21.1 100.5 21.1 100.4 21.2 100.4C25.5 102.5 36.5 108.2 48.9 114.8C49.7 115.3 50.6 115.8 51.5 116.2C51.6 116.3 51.8 116.3 51.9 116.4C60.9 121.2 70.5 126.3 78.8 130.6C77.5 130.7 76.2 130.8 74.9 130.8Z" fill="#F08000" stroke="#483A35"/>
<path d="M39.6 100.2C39.7 101.1 39.9 102.1 40.2 103C41.2 106.5 43 109.6 45.5 112C35.4 106.8 26.3 102.1 21.9 100C24.7 98.5 28 97 31.7 95.7V95.8L39.6 100.2Z" fill="#4B575E"/>
<path d="M43.3 88C45.5 84.6 48.4 83 51 83.6C53 84.1 54.5 85.9 54.8 88.4C55.4 93.3 55.9 97.3 58.5 100.2C54.8 98.4 54.5 96.8 54.5 96.8C54.5 96.8 53.9 100.3 61.6 102.7C65.9 104 71.2 106.3 72.7 109.9C73.4 111.5 73.2 113.1 72.3 115C71.6 114.8 70.8 114.7 70.3 114.6C71 113 70.5 111.1 70.5 111.1C70.4 112.4 69.9 113.9 69.6 114.6C69.6 114.6 69.6 114.6 69.5 114.6C68.9 110.9 66.7 110 66.7 110C68.3 111.6 68.8 113.9 69 114.8C68.2 115.4 67.3 116.5 67.3 116.5C67.6 116.8 67.8 117.4 68 118.2C67 118.5 62.4 119.6 52.3 115C47 112.6 43.2 108.2 41.6 102.6C40.1 97.2 40.8 91.7 43.3 88Z" fill="#E72410"/>
<path d="M43.7 88C45.5 85.4 49.2 81.9 52.4 84.5C53.9 85.7 54.2 87.6 54.4 89.4C54.7 91.3 54.9 93.2 55.4 95C55.9 96.9 56.7 98.6 58 100.1C58.3 100.1 58.6 100 58.8 100C57.6 99.4 56.4 98.7 55.5 97.7C55.3 97.4 55 97 54.9 96.7C54.8 96.4 54 96.3 53.9 96.6C53.6 98.4 55.6 100 56.9 100.8C58.9 102.1 61.2 102.6 63.4 103.4C65.7 104.3 68.1 105.3 70 106.9C70.9 107.7 71.7 108.6 72.2 109.7C72.9 111.4 72.6 113.1 71.8 114.7C72 114.7 72.3 114.6 72.5 114.6C71.8 114.4 71.1 114.3 70.4 114.2C70.5 114.3 70.6 114.4 70.7 114.5C71.2 113.4 71.2 112.1 70.9 110.9C70.8 110.6 69.9 110.5 69.9 110.8C69.8 112 69.5 113.2 69 114.3C69.1 114.3 69.1 114.2 69.2 114.2C69.2 114.2 69.2 114.2 69.1 114.2C69.4 114.3 69.7 114.3 69.9 114.4C69.6 112.7 68.8 110.4 67 109.7C66.9 109.6 65.9 109.6 66.2 109.9C67.2 111 67.9 112.4 68.2 113.8C68.2 114 68.4 114.3 68.3 114.5C68.3 114.7 67.8 115 67.7 115.1C67.3 115.5 67 115.8 66.7 116.3V116.4C67.1 116.9 67.3 117.5 67.4 118.1C67.4 118 67.5 118 67.5 117.9C66.6 118.2 65.3 118.2 64.3 118.2C61.4 118 58.5 117.2 55.7 116.1C52.2 114.8 48.8 113.1 46.3 110.3C43.9 107.6 42.3 104.3 41.6 100.8C40.9 96.5 41.3 91.7 43.7 88C43.9 87.8 42.9 87.6 42.7 87.8C38.4 94.4 40 103.9 45 109.7C47.5 112.7 50.8 114.5 54.4 115.9C57.4 117.1 60.6 118.1 63.8 118.4C65.3 118.5 66.9 118.6 68.3 118.1C68.4 118.1 68.5 118 68.4 117.9C68.3 117.5 68.2 117.1 68 116.8C67.9 116.7 67.8 116.5 67.8 116.4C67.8 116.3 67.7 116.4 67.8 116.3C67.9 116.1 68.2 115.8 68.3 115.7C68.6 115.4 68.9 115.1 69.3 114.8L69.4 114.7C69.1 112.9 68.4 111.1 67.1 109.8C66.8 109.9 66.6 109.9 66.3 110C67.9 110.6 68.7 112.9 68.9 114.4C68.9 114.7 69.5 114.7 69.7 114.6C70.1 114.5 70.2 113.6 70.3 113.3C70.5 112.5 70.7 111.7 70.7 110.9C70.4 110.9 70 110.9 69.7 110.8C70 111.9 70 113.2 69.5 114.3C69.4 114.5 69.7 114.5 69.8 114.6C70.4 114.7 71.1 114.8 71.7 115C71.8 115 72.3 115.1 72.4 114.9C73 113.7 73.4 112.3 73.2 110.9C73 109.8 72.5 108.8 71.8 108C70.3 106.2 68.2 105 66.1 104.1C63.8 103 61.3 102.5 58.9 101.4C57.4 100.7 55.9 99.8 55 98.3C54.7 97.8 54.5 97.2 54.6 96.7C54.3 96.7 53.9 96.7 53.6 96.6C53.7 97 54 97.4 54.3 97.8C55.2 98.9 56.5 99.6 57.8 100.2C57.9 100.3 58.8 100.3 58.6 100.1C55.8 96.9 55.5 92.4 54.9 88.4C54.6 86.6 53.8 84.9 52.2 84C50.8 83.2 49.1 83.1 47.5 83.6C45.3 84.3 43.6 86.1 42.4 87.9C42.6 88.1 43.6 88.3 43.7 88Z" fill="#483A35"/>
<path d="M67.1 98.5L56.8 92.9C56.7 92.4 56.5 91.9 56.4 91.3C58.1 90.9 63.2 90.4 65.1 90.2C65 93 65.7 95.9 67.1 98.5Z" fill="#4B575E"/>
<path d="M57.8 96C57.6 95.4 57.4 94.8 57.2 94.1L68 100C68.4 100.7 68.9 101.4 69.4 102L57.8 96Z" fill="#F08000" stroke="#483A35"/>
<path d="M77.9 119.1C77.7 119.8 73.8 122.3 71.2 123C70.1 123.3 69.9 123.1 69.9 123.1C69.8 123 69.8 122.9 69.8 122.8C70 122 73 119.3 73 119.3C71.7 118.9 71 118.3 71 117.8C71.1 117 73 116.1 73.9 116C74.1 116 74.2 116.1 74.3 116.1C74.6 116.5 74.7 119.1 74.7 119.1C75.7 118.9 77.4 118.5 77.9 119.1Z" fill="#E72410"/>
<path d="M77.4 119.1C77.3 119.3 77 119.6 76.9 119.7C76.5 120 76.1 120.3 75.7 120.6C74.7 121.3 73.6 121.9 72.4 122.4C71.8 122.6 71.3 122.8 70.7 123C70.6 123 70.4 123 70.3 123.1C70.2 123.1 70.3 123.1 70.3 123.1C70.4 123.1 70.3 123.2 70.4 123.1C70.4 123 70.4 122.9 70.4 122.9C70.5 122.6 70.8 122.3 71 122C71.3 121.6 71.7 121.3 72 121C72.5 120.5 73 120 73.6 119.6C73.7 119.5 73.4 119.4 73.4 119.4C72.9 119.2 71.3 118.7 71.7 117.9C72 117.2 73.1 116.8 73.8 116.6C73.8 116.6 74 116.6 74.1 116.6C74.2 116.5 74 116.5 74 116.6L74.1 116.9C74.2 117.2 74.2 117.6 74.2 117.9C74.2 118.4 74.3 118.9 74.3 119.4C74.3 119.7 75 119.6 75.1 119.6C75.5 119.5 75.9 119.4 76.3 119.3C76.7 119 77.2 118.9 77.4 119.1C77.6 119.3 77.8 119.3 78 119.3C78.1 119.3 78.5 119.2 78.4 119.1C78 118.6 77.2 118.6 76.6 118.6C75.9 118.6 75.2 118.8 74.5 119C74.8 119.1 75.1 119.1 75.3 119.2C75.3 118.7 75.2 118.2 75.2 117.7C75.2 117.2 75.2 116.4 74.7 116.1C74 115.7 72.8 116.1 72.1 116.4C71.6 116.7 70.6 117.2 70.5 117.9C70.5 118.8 72.1 119.3 72.7 119.5C72.6 119.4 72.6 119.3 72.5 119.3C71.9 119.8 71.4 120.3 70.9 120.8C70.5 121.2 70.1 121.6 69.8 122C69.6 122.3 69.2 122.6 69.2 123C69.2 123.4 69.7 123.5 70 123.5C70.7 123.5 71.4 123.3 72 123.1C73.3 122.7 74.6 122 75.8 121.3C76.4 120.9 76.9 120.6 77.5 120.1C77.8 119.9 78.1 119.6 78.2 119.2C78.5 118.9 77.5 118.8 77.4 119.1Z" fill="#483A35"/>
<path d="M69.6 121.6C69.5 118.9 68.3 116.4 68.3 116.4C68.3 116.4 69.6 114.9 70.1 114.8C70.4 114.8 71.6 115.3 72.3 115.7C71.3 116.1 70.3 116.9 70.2 117.8C70.2 117.9 70.2 117.9 70.2 118C70.2 118.7 70.8 119.3 71.9 119.8C71.2 120.2 70.3 120.8 69.6 121.6Z" fill="#E72410"/>
<path d="M70.1 121.7C70 120 69.6 118.4 69 116.9C69 116.8 68.9 116.6 68.8 116.5C68.8 116.5 68.7 116.6 68.8 116.5C68.9 116.5 68.9 116.4 69 116.3C69.4 115.9 69.8 115.4 70.3 115.1C70.3 115.1 70.4 115.1 70.4 115C70.4 115 70.5 115 70.4 115C70.4 115 70.2 115 70.3 115C70.4 115.1 70.6 115.1 70.8 115.2C71.2 115.4 71.7 115.6 72.1 115.8C72.1 115.7 72 115.6 72 115.5C71.1 115.9 69.8 116.7 69.8 117.9C69.8 118.9 70.9 119.6 71.7 120C71.7 119.9 71.6 119.8 71.6 119.7C70.7 120.2 69.9 120.8 69.2 121.5C69 121.6 69.9 121.9 70.1 121.7C70.7 121 71.5 120.5 72.3 120C72.5 119.9 72.3 119.8 72.2 119.7C71.5 119.4 70.6 118.8 70.7 117.9C70.8 116.9 71.9 116.3 72.7 115.9C72.9 115.8 72.7 115.7 72.6 115.6C72 115.3 71.4 115 70.8 114.8C70.4 114.6 69.9 114.5 69.4 114.7C68.8 115 68.2 115.7 67.7 116.2V116.3C68.5 117.9 68.9 119.7 69 121.4C69.1 121.8 70.1 121.9 70.1 121.7Z" fill="#483A35"/>
<path d="M39.5 96.4C38.7 95.9 37.5 95 36.3 94.3C37.8 93.9 39.1 93.5 39.9 93.3C39.6 94.4 39.5 95.4 39.5 96.4Z" fill="#4B575E"/>
<path d="M39.4 97.5C39.4 98 39.4 98.5 39.5 99.1C37.5 98 33 95.6 32.6 95.4C32.6 95 32.7 93.9 33.3 93.9C34 93.8 36.9 95.8 39.4 97.5Z" fill="#F08000" stroke="#483A35"/>
<path d="M80.6 130.5C75.7 127.9 67.2 123.4 58 118.6C64 120.3 67.2 119.5 68.3 119.1C68.6 120.5 68.9 121.9 69 122.6C69 122.7 69 122.7 69 122.8C69 123.1 69.1 123.3 69.2 123.5C70.3 124.9 75.2 122.3 76.8 121.2C77.3 120.8 77.7 120.5 78 120.2L77.9 120.4L94.4 129C90.1 129.7 85.5 130.2 80.6 130.5Z" fill="#4B575E"/>
<path d="M96 128.9L78.5 119.8C78.8 119.4 78.8 119 78.6 118.7C78 117.7 76.3 117.9 75.2 118.2C75.3 117.8 75.3 117.4 75.3 117C75.3 116.9 75.3 116.9 75.3 116.8L98.4 128.5C97.7 128.6 96.9 128.7 96 128.9Z" fill="#F08000" stroke="#483A35"/>
<path d="M100.1 128.2L75.2 115.8V115.7C75 115.5 74.7 115.2 74.1 115.2H74C73.8 115.2 73.7 115.1 73.5 115.1C74.5 113 74.8 110.7 74 108.9C72.3 104.9 66.5 102.8 62 101.4C61.6 101.3 61.3 101.2 61 101.1C60 100.1 59.1 98.8 58.4 97.3L71.2 104.1C74.3 107.2 78.4 109.5 82.9 110.3L111.6 125.6C108 126.5 104.2 127.4 100.1 128.2Z" fill="#4B575E"/>
<path d="M112.8 125.2L85.2 110.6C86.1 110.7 86.9 110.7 87.7 110.8L114.7 124.7C114 124.9 113.4 125 112.8 125.2Z" fill="#F08000" stroke="#483A35"/>
<path d="M116.2 124.2L89.6 110.7C93.5 110.4 95.8 109.3 96.9 108.5C97.2 109.5 97.3 110.5 97.4 111C97.4 111.1 97.4 111.1 97.4 111.2C97.4 111.4 97.5 111.7 97.7 111.9C98.8 113.2 103.9 110.3 105.6 109.1C105.7 109 105.8 109 105.8 108.9L126.9 119.9C123.9 121.4 120.3 122.8 116.2 124.2Z" fill="#4B575E"/>
<path d="M98.5 103.3C98.7 103.3 99.2 103.4 99.8 103.6C99.7 103.8 99.6 104 99.4 104.2L99.9 104.5C99.3 104.9 98.8 105.5 98.7 106.1C98.7 106.2 98.7 106.2 98.7 106.3C98.7 107 99.3 107.5 100.5 107.9C99.8 108.4 98.8 109.1 98.1 109.8C98.1 109.1 97.9 108.4 97.8 107.7L97.7 107.6C97.3 106 96.6 104.9 96.6 104.9C96.6 104.9 98 103.4 98.5 103.3Z" fill="#E72410"/>
<path d="M98.8 103.6C99.1 103.6 99.5 103.7 99.7 103.8C99.6 103.7 99.4 103.6 99.3 103.4C99.2 103.6 99.1 103.8 98.9 104C98.8 104.1 99 104.2 99.1 104.2C99.3 104.3 99.4 104.4 99.6 104.5C99.6 104.4 99.5 104.3 99.5 104.2C98.8 104.7 98 105.6 98.4 106.5C98.7 107.3 99.7 107.8 100.5 108C100.4 107.9 100.3 107.7 100.1 107.6C99.2 108.1 98.4 108.7 97.7 109.5C98 109.6 98.3 109.7 98.6 109.8C98.6 109.4 98.5 109.1 98.5 108.7C98.5 108.5 98.4 108.4 98.4 108.2L98.3 107.7C98.4 107.6 98.3 107.5 98.2 107.5C98.1 107.4 98.2 107.3 98.1 107.2C98 107 98 106.8 97.9 106.6C97.8 106.3 97.7 106 97.5 105.7C97.4 105.4 97.2 105.1 97.1 104.8C97.1 104.9 97.1 104.9 97.1 105C97.3 104.7 97.6 104.5 97.8 104.2C98.1 104.1 98.5 103.7 98.8 103.6C99.1 103.5 98.9 103.3 98.8 103.3C98.6 103.2 98.3 103.1 98.1 103.1C97.6 103.2 97.3 103.7 96.9 104C96.6 104.3 96.4 104.5 96.1 104.8C96 104.9 96.1 104.9 96.1 105C96.3 105.3 96.4 105.6 96.6 105.9C96.7 106.2 96.9 106.6 97 106.9C97.1 107.2 97.1 107.6 97.4 107.8C97.4 107.7 97.4 107.6 97.3 107.6C97.2 107.7 97.2 107.8 97.3 108C97.3 108.2 97.4 108.4 97.4 108.6C97.5 109 97.5 109.4 97.5 109.8C97.5 110 98.3 110.3 98.4 110.1C99.1 109.3 99.9 108.8 100.8 108.2C101 108.1 100.5 107.8 100.4 107.8C99.8 107.6 99.2 107.3 99 106.7C98.8 105.9 99.5 105.2 100.1 104.8C100.2 104.7 100 104.6 100 104.5C99.8 104.4 99.7 104.3 99.5 104.2C99.6 104.3 99.6 104.4 99.7 104.4C99.8 104.2 100 104 100.1 103.8C100.2 103.6 99.8 103.5 99.7 103.4C99.2 103.2 98.6 103 98.1 103.1C97.9 103.1 97.9 103.2 98 103.4C98.3 103.5 98.6 103.6 98.8 103.6Z" fill="#483A35"/>
<path d="M99.8 111.1C98.7 111.5 98.5 111.3 98.5 111.3C98.4 111.2 98.4 111.1 98.4 111C98.6 110.2 101.7 107.4 101.7 107.4C100.3 107.1 99.6 106.6 99.6 106.2C99.7 105.4 101.6 104.4 102.6 104.3C102.8 104.3 102.9 104.3 103 104.4C103.3 104.8 103.5 107.2 103.5 107.2C104.3 106.9 106.2 106.4 106.7 106.9C106.5 107.6 102.5 110.3 99.8 111.1Z" fill="#E72410"/>
<path d="M99.4 110.9C99.2 111 98.9 111 98.7 111.1C98.7 111.1 98.6 111.1 98.5 111.1C98.4 111.1 98.5 111.1 98.5 111.1L98.8 111.2C98.8 111.2 98.8 111.1 98.9 111C98.9 110.9 99 110.8 99 110.8C99.3 110.3 99.7 109.9 100.1 109.5C100.7 108.8 101.4 108.2 102.1 107.6C102.3 107.4 101.8 107.2 101.7 107.2C101.2 107.1 99.7 106.8 100.1 106C100.5 105.3 101.5 104.8 102.3 104.6C102.3 104.6 102.9 104.4 102.9 104.5C102.8 104.5 102.7 104.4 102.6 104.4C102.6 104.4 102.6 104.4 102.6 104.5C102.6 104.5 102.6 104.6 102.7 104.7C102.8 105 102.8 105.3 102.9 105.7C103 106.2 103 106.7 103 107.2C103 107.5 103.7 107.6 103.9 107.5C104.3 107.3 104.8 107.2 105.2 107.1C105.5 107 105.7 107 106 107C106.1 107 106.2 107 106.3 107C106.4 107 106.2 106.9 106.3 107C106.3 106.9 106.2 106.9 106.2 106.8C106.1 107.1 105.7 107.4 105.4 107.6C104.9 108 104.3 108.4 103.7 108.8C102.4 109.6 100.9 110.4 99.4 110.9C99.2 111 99.4 111.2 99.5 111.2C99.7 111.3 100 111.4 100.2 111.3C101.8 110.8 103.3 110 104.7 109.1C105.3 108.7 105.9 108.3 106.4 107.9C106.7 107.7 107.1 107.4 107.2 107C107.2 106.9 107.1 106.9 107.1 106.8C106.1 105.9 104.2 106.5 103.2 106.9C103.5 107 103.8 107.1 104.1 107.2C104.1 106.7 104 106.1 104 105.6C103.9 105 103.9 104.2 103.2 104C102.4 103.7 101.4 104.2 100.7 104.6C100.2 104.9 99.2 105.5 99.3 106.2C99.4 106.5 99.7 106.8 100 107C100.5 107.3 101.2 107.5 101.8 107.6C101.7 107.5 101.5 107.3 101.4 107.2C100.5 108 99.6 108.9 98.7 109.8C98.4 110.1 97.7 110.8 98.2 111.3C98.7 111.8 99.7 111.5 100.3 111.3C100.5 111.2 100.3 111 100.2 111C99.9 110.9 99.6 110.9 99.4 110.9Z" fill="#483A35"/>
<path d="M128 119.3L106.4 108.4C106.8 108.1 107.1 107.8 107.3 107.5L129.5 118.4C129 118.8 128.5 119 128 119.3Z" fill="#F08000"/>
<path d="M130.2 118.1L107.6 106.7C107.6 106.6 107.6 106.5 107.5 106.4C106.8 105.5 105 105.8 104 106.1C104.1 105.8 104.1 105.3 104.1 104.9C104.1 104.5 104 104 103.7 103.7C103.5 103.5 103.2 103.2 102.5 103.3H102.4C102.1 103.2 101.7 103.2 101.3 103.1C102.5 100.8 102.8 98.7 101.8 97C99.6 93.1 92.7 91.8 88.7 91.9C87.3 91.9 86 91.9 85 91.9C84.6 91.4 84.2 90.8 83.8 90.1C90.2 90.3 95.9 90.8 101 91.5C101 91.6 100.9 91.8 100.9 91.9V92.2L137.9 111.9C136.1 114.1 133.6 116.1 130.2 118.1Z" fill="#4B575E"/>
<path d="M138.7 111C135.3 109.2 102.5 92.1 101.9 91.8C102 91.5 102.2 91 102.9 90.8C104.3 91 125.5 102 139.5 109.5C139.3 110 139 110.5 138.7 111Z" fill="#F08000" stroke="#483A35"/>
<path d="M139.9 108.7C132.4 104.7 118.5 97.3 110 93.1C133 97.8 139.5 106.4 140.3 107.7C140.2 108 140.1 108.3 139.9 108.7Z" fill="#4B575E"/>
<path d="M69.3 78.5C72.2 79.1 74.2 76.2 74.2 76.2C74.1 79.3 77.1 78.1 77.1 78.1L76.3 79.9C74.6 79.3 72.6 79.4 70.8 80.4C70.7 80.4 70.7 80.5 70.6 80.5L69.3 78.5Z" fill="#E72410"/>
<path d="M69.4 78.7C71.4 79.1 73.5 78 74.7 76.3C74.4 76.2 74.1 76.1 73.8 76C73.8 76.6 73.8 77.3 74.3 77.7C74.6 78.1 75.2 78.3 75.7 78.4C76.3 78.5 77 78.4 77.6 78.2C77.3 78.1 77 78 76.7 77.9C76.4 78.5 76.1 79.1 75.9 79.7C76.1 79.7 76.3 79.7 76.6 79.7C74.5 79 72.2 79.2 70.3 80.3C70.6 80.4 70.9 80.4 71.2 80.5C70.7 79.8 70.3 79.2 69.8 78.5C69.6 78.3 68.7 78.2 68.9 78.5C69.4 79.2 69.8 79.8 70.3 80.5C70.5 80.7 71 80.8 71.2 80.7C72.7 79.8 74.6 79.5 76.2 80.1C76.3 80.1 76.8 80.3 76.9 80.1C77.2 79.5 77.5 78.9 77.7 78.3C77.8 78 77 77.9 76.8 78C76.4 78.1 76 78.2 75.6 78.2C75.5 78.2 75.4 78.2 75.4 78.1C75.3 78.1 75.2 78 75.1 77.9C74.8 77.5 74.7 76.9 74.7 76.4C74.7 76.1 73.9 75.9 73.8 76.1C72.8 77.5 71 78.7 69.2 78.4C69.1 78.4 68.8 78.4 68.8 78.6C68.9 78.6 69.3 78.7 69.4 78.7Z" fill="#483A35"/>
<path d="M71.4 80.4C73.3 79.4 75.1 79.6 76.3 80.1C79.8 81.7 80.7 85.1 81.5 88.1C82 89.8 82.4 91 83.1 91.9C81.2 91.7 80.4 91.4 80.4 91.4C80.4 91.4 82.2 93.5 88.3 93.3C91.9 93.2 98.4 94.3 100.4 97.8C101.2 99.3 101.1 101 100.1 103.1C99.7 103 99.2 103 98.9 103C99.9 101 98.7 98.9 98.7 98.9C99.3 100.4 98.6 102.3 98.3 103C98.1 103 97.9 103.1 97.6 103.3C97.2 100.7 94.7 99 94.7 99C96.1 100.6 96.9 102.8 97.1 103.6C96.7 103.9 96.4 104.3 96.1 104.6C95.1 104.8 92.7 105.1 90.4 104C90.4 104 92.7 105.8 95.8 105.4C96.1 105.8 96.4 106.6 96.6 107.3C95.5 108.2 91.7 110.5 83.3 108.9C73.2 107.1 65.3 97.3 66.8 88.5C67.6 83.5 69.7 81.3 71.4 80.4Z" fill="#E72410"/>
<path d="M71.8 80.6C73.5 79.7 75.3 79.7 76.9 80.8C78.1 81.6 79 82.8 79.7 84.1C80.3 85.3 80.7 86.6 81 88C81.4 89.4 81.8 90.9 82.7 92C82.9 91.9 83 91.8 83.2 91.8C82.3 91.7 81.4 91.6 80.6 91.4C80.5 91.4 79.7 91.3 80 91.6C80.4 92.1 81 92.4 81.6 92.6C83.3 93.3 85.1 93.6 86.9 93.7C88.9 93.8 90.8 93.7 92.8 94.1C94.8 94.5 96.9 95.1 98.5 96.4C99.3 97 100 97.9 100.3 98.9C100.7 100.4 100.2 101.9 99.6 103.2C99.8 103.2 99.9 103.1 100.1 103.1C99.6 103 99.2 103 98.7 103C98.9 103.1 99.1 103.2 99.3 103.3C99.9 102 99.8 100.4 99.1 99.1C99 98.9 98 98.7 98.1 99.1C98.6 100.4 98.2 101.9 97.7 103.1C97.8 103.1 97.8 103 97.9 103C97.6 103.1 97.4 103.2 97.1 103.3C97.4 103.4 97.7 103.4 98 103.5C97.7 101.7 96.5 100.1 95 99.1C94.9 99 93.9 98.9 94.2 99.2C94.9 100 95.4 100.9 95.9 101.9C96.1 102.3 96.2 102.7 96.4 103C96.5 103.1 96.5 103.3 96.6 103.5C96.6 103.7 96.7 103.7 96.5 103.9C96.2 104.2 96 104.5 95.6 104.7C95.2 104.8 94.8 104.8 94.4 104.8C93.2 104.9 92 104.6 90.8 104.1C90.7 104 89.8 104 90.1 104.3C91.8 105.6 94.1 106.2 96.1 105.9C95.9 105.8 95.6 105.7 95.4 105.7C95.7 106.1 95.8 106.6 96 107C96.1 107.3 96.3 107.5 96 107.7C95.7 107.9 95.4 108.1 95.1 108.2C94 108.7 92.9 109.1 91.7 109.3C89.8 109.6 87.8 109.6 85.9 109.4C83.7 109.2 81.6 108.7 79.5 107.9C72.7 105.1 66.8 98.1 67.1 90.5C67.2 86.7 68.5 82.4 71.8 80.6C72.1 80.4 71.2 80.1 71 80.3C68 81.9 66.7 85.4 66.2 88.6C65.6 92.3 66.7 96 68.6 99.2C70.7 102.5 73.7 105.3 77.2 107.1C81 109.1 85.4 109.9 89.7 109.7C92.2 109.6 95 109.1 97.1 107.5V107.4C96.9 106.7 96.7 106.1 96.3 105.5C96.2 105.3 95.8 105.2 95.6 105.3C94 105.5 92.1 105 90.9 104.1C90.7 104.2 90.4 104.2 90.2 104.3C91.6 104.9 93.1 105.2 94.6 105.2C95.1 105.2 95.7 105.1 96.2 105C96.8 104.9 97.1 104.3 97.6 103.9V103.8C97.1 102.1 96.3 100.5 95.1 99.1C94.8 99.1 94.6 99.2 94.3 99.2C95.6 100.1 96.8 101.7 97.1 103.4C97.1 103.6 97.8 103.7 98 103.6C98.4 103.4 98.7 103.4 98.9 103C99 102.6 99.2 102.3 99.3 101.9C99.5 101 99.6 100 99.3 99.1C99 99.1 98.7 99.1 98.3 99.1C99 100.3 99.1 101.9 98.5 103.2C98.4 103.4 99 103.5 99.1 103.5C99.5 103.5 99.8 103.6 100.2 103.6C100.4 103.6 100.6 103.7 100.7 103.5C101.7 101.4 102 99 100.3 97.2C99 95.8 97.2 95 95.4 94.5C93.5 93.9 91.5 93.6 89.5 93.5C87.4 93.4 85.2 93.6 83.2 93C82.5 92.8 81.5 92.4 81 91.8C80.8 91.9 80.6 91.9 80.4 92C81.3 92.3 82.3 92.4 83.3 92.5C83.4 92.5 84 92.5 83.8 92.3C82.7 90.9 82.4 89.1 81.9 87.5C81.5 86 80.9 84.5 80 83.1C78 80.3 74.4 79 71.2 80.7C70.7 80.4 71.6 80.7 71.8 80.6Z" fill="#483A35"/>
<path d="M43.2 82.1C48.3 82.5 47.9 79.4 47.9 79.4C49.1 82.2 51.5 81.2 51.5 81.2L50.5 83.2C49 83.1 47.4 83.6 45.9 84.6L43.2 82.1Z" fill="#E72410"/>
<path d="M43 82.4C44.6 82.5 46.7 82.4 47.8 81.1C48.2 80.7 48.4 80 48.3 79.5C48 79.5 47.7 79.6 47.3 79.6C47.8 80.7 48.6 81.5 49.8 81.6C50.4 81.7 51 81.6 51.6 81.4C51.3 81.3 51.1 81.3 50.8 81.2C50.5 81.9 50.1 82.5 49.8 83.2C50 83.1 50.2 83.1 50.4 83C48.5 82.9 46.7 83.5 45.2 84.5C45.5 84.5 45.8 84.5 46.1 84.5C45.2 83.7 44.4 82.8 43.5 82C43.3 81.8 42.4 82 42.6 82.2C43.5 83 44.3 83.9 45.2 84.7C45.4 84.9 45.9 84.8 46.1 84.7C47.3 83.9 48.7 83.3 50.2 83.4C50.4 83.4 50.7 83.4 50.8 83.2C51.1 82.5 51.5 81.9 51.8 81.2C51.9 80.9 51.1 81 51 81H50.9C50.9 81 50.8 81 50.9 81C50.9 81 50.8 81 50.7 81C50.6 81 50.3 81 50.1 81C49.1 80.8 48.5 80 48.1 79.2C48 79 47.1 79.1 47.1 79.3C47.2 79.8 47 80.2 46.7 80.6C45.9 81.8 44.2 81.8 43 81.7C42.9 81.7 42.4 81.7 42.4 81.9C42.6 82.3 42.9 82.3 43 82.4Z" fill="#483A35"/>
<path d="M3.69999 137.2C1.19999 135.3 0.099987 132.2 0.599987 128.8C1.19999 125 3.89999 121.8 7.89999 120.3C8.19999 121.1 8.39999 121.8 8.69999 122.5C6.99999 123.6 2.79999 126.9 4.49999 131.3C4.89999 132.3 5.49999 133 6.19999 133.3C8.19999 134.1 10.9 132.7 13.4 131.5C14.8 130.8 16.1 130.1 17 130C18.2 129.9 19.2 130.5 19.7 131.6C20.2 132.8 19.9 134.3 18.8 135.5C16.1 138.7 8.09999 140.7 3.69999 137.2Z" fill="#F08000"/>
<path d="M4.09999 137.2C1.19999 134.9 0.39999 131 1.49999 127.5C2.49999 124.2 5.19999 121.8 8.29999 120.6C7.99999 120.5 7.69999 120.4 7.39999 120.3C7.59999 120.8 7.79999 121.3 7.89999 121.8C7.99999 122 8.09999 122.3 8.09999 122.4C8.09999 122.5 7.89999 122.6 7.79999 122.6C7.29999 122.9 6.89999 123.3 6.49999 123.7C5.49999 124.6 4.59999 125.7 4.09999 126.9C2.89999 129.7 4.09999 133.7 7.59999 133.8C9.49999 133.9 11.3 133 12.9 132.2C13.9 131.7 14.9 131.2 15.9 130.7C16.8 130.3 17.8 130 18.6 130.6C20.3 131.9 19.4 134.4 18.1 135.6C17.1 136.6 15.9 137.2 14.6 137.7C11.3 139.1 6.99999 139.5 4.09999 137.2C3.89999 137.1 3.59999 136.9 3.39999 137C3.19999 137 3.09999 137.1 3.29999 137.3C5.79999 139.2 9.19999 139.7 12.3 139.2C15 138.8 18.3 137.6 19.8 135.2C20.7 133.8 20.6 131.8 19.2 130.7C17.8 129.6 16.2 129.9 14.8 130.5C12.8 131.4 10.9 132.6 8.79999 133.2C7.89999 133.5 6.69999 133.7 5.89999 133C5.19999 132.4 4.79999 131.5 4.69999 130.6C4.09999 127.3 6.59999 124.5 9.19999 122.9V122.8C8.89999 122.1 8.69999 121.3 8.39999 120.6C8.29999 120.4 7.79999 120.2 7.49999 120.3C4.19999 121.6 1.49999 124.1 0.39999 127.5C-0.70001 131.1 0.29999 135 3.29999 137.4C3.49999 137.5 3.79999 137.7 3.99999 137.6C4.19999 137.4 4.29999 137.4 4.09999 137.2Z" fill="#483A35"/>
<path d="M44.1 174.2L52 157.7C53.5 158.1 56.9 159 58 159.2L44.7 174.5L44.1 174.2Z" fill="#F08000"/>
<path d="M44.8 174.1C47.1 169.3 49.4 164.4 51.7 159.6C52 158.9 52.4 158.2 52.7 157.6C52.3 157.7 51.8 157.9 51.4 158C53.4 158.5 55.4 159.2 57.4 159.5C57.4 159.4 57.4 159.4 57.3 159.3C53.4 163.8 49.5 168.3 45.6 172.7C45.1 173.3 44.5 174 44 174.6C44.4 174.5 44.9 174.4 45.3 174.3C45.1 174.2 44.9 174.1 44.7 174C44.4 173.9 44 174 43.8 174.1C43.7 174.1 43.1 174.4 43.4 174.5C43.6 174.6 43.8 174.7 44 174.8C44.3 174.9 45.1 174.8 45.3 174.5C49.2 170 53.1 165.5 57 161.1C57.5 160.5 58.1 159.8 58.6 159.2C58.7 159.1 58.7 159 58.5 159C56.5 158.8 54.4 158.1 52.5 157.5C52.2 157.4 51.3 157.6 51.2 157.9C48.9 162.7 46.6 167.6 44.3 172.4C44 173.1 43.6 173.8 43.3 174.4C43.3 174.5 44.6 174.5 44.8 174.1Z" fill="#483A35"/>
<path d="M91.7 183.6C91.2 183.4 83 166.1 80.3 160.3C82.1 160.4 86.3 160.4 88.2 159.5C89.3 166.1 92.2 183.8 91.7 183.6Z" fill="#F08000"/>
<path d="M92.2 183.3C92.3 183.4 92.1 183.1 92.1 183C92 182.8 91.9 182.6 91.7 182.4C91.3 181.7 90.9 180.9 90.5 180.2C89.4 178 88.4 175.9 87.3 173.7C85.2 169.2 83 164.7 80.9 160.2C80.6 160.4 80.2 160.6 79.9 160.8C82.7 160.9 85.8 161 88.4 159.9C88.1 159.9 87.7 159.8 87.4 159.8C88.2 164.5 88.9 169.1 89.7 173.8C90 176 90.4 178.3 90.7 180.5C90.8 181.2 90.9 182 91 182.7C91 182.9 91 183.2 91 183.4C91 183.4 91 183.5 91 183.6V183.7C90.9 184.1 91.2 183.9 92 183.3C91.4 183.2 90.5 184 91.4 184.1C92.9 184.3 92.4 182.6 92.4 181.8C92.2 179.6 91.8 177.3 91.5 175.1C90.7 169.9 89.9 164.7 89 159.5C88.9 159.1 88.2 159.3 88 159.4C85.8 160.3 83 160.2 80.7 160.1C80.5 160.1 79.5 160.3 79.7 160.7C81.9 165.4 84.1 170 86.3 174.7C87.4 176.9 88.4 179.1 89.5 181.3C89.9 182 90.4 183.7 91.2 184.2C91.5 184.2 92.9 183.6 92.2 183.3Z" fill="#483A35"/>
<path d="M119.3 168.9L102.9 155.3C105.1 154.8 109.2 153.9 110 153.2L119.7 167.7L119.3 168.9Z" fill="#F08000"/>
<path d="M120 168.7C115.2 164.7 110.4 160.8 105.6 156.8C104.9 156.2 104.2 155.7 103.6 155.1C103.3 155.3 103.1 155.5 102.8 155.6C104.3 155.3 105.8 154.9 107.3 154.5C108.4 154.2 109.7 153.9 110.6 153.2C110.2 153.3 109.7 153.3 109.3 153.4C112.3 157.9 115.3 162.3 118.2 166.8C118.4 167.1 118.7 167.4 118.9 167.8C119 168.1 118.8 168.6 118.6 169C118.5 169.3 119.9 169.1 120 168.8C120.1 168.5 120.4 167.9 120.4 167.5C120.4 167.3 120.1 167 119.9 166.8C119.2 165.7 118.5 164.6 117.7 163.6C115.8 160.8 113.9 157.9 112 155.1C111.5 154.4 111.1 153.7 110.6 153C110.4 152.7 109.6 153 109.3 153.2C108.5 153.7 107.4 153.9 106.5 154.2C105.3 154.5 104.1 154.8 102.8 155.1C102.7 155.1 101.7 155.4 102 155.6C106.8 159.6 111.6 163.5 116.4 167.5C117.1 168.1 117.8 168.6 118.4 169.2C119 169.5 120.3 168.9 120 168.7Z" fill="#483A35"/>
<path d="M129.8 138.8C119.6 151.2 104.3 158.7 85.6 160.4C61.4 162.6 44.2 156.1 33.9 150.2C24.9 145 19.6 139.4 17.9 137.5C18.1 137.4 18.2 137.2 18.3 137.1C19.7 135.7 20 133.9 19.3 132.5C18.6 131.1 17.2 130.4 15.6 130.5C14.9 130.6 14 130.9 13 131.3C11.6 128.9 5.2 117.4 6.9 108.3C7.6 104.4 13.4 93.5 42.8 87.8C42.1 89 41.3 90.2 40.8 91.7C39.9 91.9 37.2 92.8 34.7 93.6V93.7C34 93.4 33.4 93.2 33.1 93.2C32.3 93.2 31.8 93.9 31.6 94.6C27.2 96.1 23.4 97.8 20.3 99.5C19.6 99.2 19.1 99 19 99C18.5 99 18.2 99.2 17.9 99.5C17.4 100.1 17.3 101 17.3 101.4C14.6 103.4 12.7 105.4 11.6 107.6C10.5 107.2 10.3 107.2 10.1 107.3C8.6 108 8.9 109.7 9.2 110.5L9.3 110.7L10.5 111.3C10.3 113.4 11 115.2 12.3 117.4C10.3 116.1 9.3 115.2 9.3 115.1C9.3 115.1 26.2 133.9 74.8 132.5C112.4 131.4 136.6 119.3 140.8 109.2C141.4 107.9 140.6 104.8 140.4 103.5C140.7 104.3 141.9 106.8 142 107.5C142.7 113.3 139.6 126.8 129.8 138.8Z" fill="#F08000"/>
<path d="M129.1 138.8C118 152.3 101.3 158.8 84.2 160.2C68.1 161.5 51.5 158.9 37 151.4C30.2 147.8 23.6 143.2 18.6 137.3C18.6 137.4 18.5 137.6 18.5 137.7C20.3 136.1 21.3 133.4 19.5 131.4C17.7 129.4 15 130.1 12.9 131C13.2 131 13.5 131 13.9 131C11.5 126.9 9.59999 122.4 8.39999 117.8C7.49999 114.2 6.89999 109.8 8.39999 106.3C10.8 100.7 16.9 97 22.2 94.5C28.8 91.4 36 89.5 43.1 88.1C42.8 88 42.6 87.8 42.3 87.7C41.5 89 40.7 90.3 40.3 91.7C40.5 91.5 40.7 91.4 40.9 91.2C38.9 91.7 36.9 92.5 34.8 93.1C34.6 93.2 34.1 93.4 34.2 93.7V93.8C34.6 93.6 35.1 93.4 35.5 93.2C33.7 92.4 31.9 92.4 31.1 94.5C31.3 94.3 31.5 94.2 31.7 94C27.7 95.4 23.7 97 20 99.1C20.3 99.1 20.7 99 21 99C20 98.6 19.2 98.2 18.2 98.7C17.8 98.9 17.5 99.2 17.2 99.5C16.8 100 16.9 100.5 16.7 101.1C16.5 101.7 15.8 102 15.4 102.4C14.7 102.9 14.1 103.5 13.5 104.1C12.5 105.1 11.7 106.3 11 107.5C11.4 107.4 11.8 107.3 12.3 107.2C11.2 106.8 10.4 106.6 9.39999 107.3C8.39999 108 8.09999 109.4 8.59999 110.5C8.79999 110.9 8.79999 111 9.19999 111.2C9.39999 111.3 9.69999 111.4 9.79999 111.5C10.1 111.8 9.99999 111.6 9.89999 112.2C9.69999 114.1 10.8 116.2 11.8 117.7C12.2 117.5 12.6 117.3 13 117.1C12 116.4 11 115.7 10.1 114.9C9.69999 114.6 8.39999 115 8.79999 115.5C10.8 117.7 13.6 119.5 16.1 121.1C23.6 125.6 32.1 128.5 40.7 130.3C55.3 133.4 70.5 133.7 85.4 132.4C98.9 131.2 112.6 128.5 125 122.9C129.1 121 133.1 118.8 136.5 115.9C138.7 114 141.9 111 141.9 107.9C141.9 106.4 141.5 105 141.3 103.6C140.8 103.7 140.3 103.9 139.9 104C140.4 105.2 141.1 106.4 141.4 107.7C141.6 108.6 141.6 109.6 141.5 110.5C141.4 113.2 140.8 115.8 140 118.4C137.8 125.7 134 132.7 129.1 138.8C128.7 139.3 130.1 139.2 130.5 138.8C135.5 132.7 139.3 125.6 141.5 118C142.3 115.4 142.8 112.6 143 109.9C143 109 143.1 108 142.9 107.1C142.6 105.8 141.9 104.7 141.4 103.4C141.2 102.9 139.9 103.3 140 103.8C140.2 105.2 140.5 106.6 140.5 108.1C140.5 109.1 140.2 109.8 139.7 110.6C138.9 111.9 138 113.1 136.9 114.1C133.9 117 130.3 119.3 126.6 121.1C115.2 126.9 102.2 129.6 89.6 131.1C74.7 132.8 59.3 132.7 44.5 130C35.6 128.3 26.8 125.6 18.9 121.2C16.8 120 14.7 118.7 12.7 117.1C11.9 116.5 11.1 115.5 10.3 114.9L10.2 114.8C9.79999 115 9.29999 115.2 8.89999 115.4C9.89999 116.3 10.9 117 12 117.7C12.3 117.9 13.6 117.6 13.2 117.1C12.1 115.3 11.3 113.4 11.4 111.2C11.4 111.1 11.4 111 11.2 110.9C10.6 110.6 10.1 110.5 9.99999 110.1C9.89999 109.7 9.79999 109.2 9.79999 108.7C9.89999 107.7 10.2 107.6 11.1 107.9C11.5 108 12.1 108 12.4 107.6C13.6 105.4 15.3 103.6 17.3 102.1C17.8 101.7 18 101.7 18.2 101.2C18.4 100.7 18.3 100.2 18.6 99.7C19.1 98.9 19.5 99.7 20.2 99.8C20.5 99.8 20.7 99.8 21 99.7C22.1 99.3 23.1 98.5 24.2 98C25.3 97.4 26.5 96.9 27.7 96.5C29 96 30.3 95.5 31.7 95C32 94.9 32.4 94.8 32.6 94.5C32.7 94.4 32.7 94.1 32.8 93.9C33.3 93.3 33.9 93.7 34.4 94C34.7 94.1 35.9 94 35.7 93.4V93.3C35.5 93.5 35.3 93.7 35.1 93.9C37 93.3 39 92.7 40.9 92.1C41.7 91.9 41.7 91.7 42 91C42.4 89.9 43.1 88.8 43.7 87.8C44 87.3 43.2 87.4 42.9 87.4C32.3 89.5 20.6 92.6 12.2 99.8C10.2 101.5 8.39999 103.5 7.29999 105.8C5.79999 108.8 5.89999 112.3 6.39999 115.6C7.29999 121.3 9.59999 126.8 12.5 131.7C12.7 132 13.3 131.8 13.5 131.7C15.4 130.9 17.6 130.5 18.7 132.8C19.5 134.5 18.7 136.3 17.4 137.5C17.3 137.6 17.2 137.8 17.3 137.9C26.5 148.5 40.1 155.4 53.6 158.7C62.6 160.9 72 161.7 81.3 161.2C90.6 160.7 99.8 159 108.4 155.3C117 151.6 124.6 146.1 130.6 138.9C130.9 138.3 129.4 138.4 129.1 138.8Z" fill="#483A35"/>
<path d="M49.8 57.2C53.9 55 55.6 53.8 55.6 52.6V52.5C55.5 51.1 52.7 49.8 47.5 47.3C43.8 45.6 39.6 43.6 36.9 41.6C35.2 40.3 34.3 38.9 34.3 37.6C34.3 37.3 34.3 37 34.4 36.7C35.1 34.4 38.7 32.8 43.4 32.7C51.9 32.5 52.6 39.7 52.6 40C52.6 40 52.6 31.2 43 31.4C37.7 31.5 33.9 33.4 33 36.2C32.3 38.3 33.8 40.7 36.3 42.6C39.1 44.7 43.4 46.7 47.1 48.4C50.2 49.8 55 51.8 55.1 52.6C54.9 53.2 51 55.1 48.8 56.2C44.3 58.6 41.5 60.1 41.2 61.7C41.1 62.1 41.2 62.5 41.5 62.8C42.6 64 45.1 64.8 47.5 65.5C49 65.9 51.4 66.7 51.5 67.2C51.2 67.9 49.4 69.3 48.1 70.3C46 71.9 45 72.7 45 73.5C45 73.8 45.2 74 45.5 74.2C46 74.5 46.8 74.8 47.6 74.7C49.9 74.3 50.2 76.1 50.2 76.6C50.3 76.2 50.5 74.8 50.4 74.6C49.9 73.8 48.8 73.7 47.7 73.6C47.2 73.5 46.7 73.5 46.3 73.4C46.7 72.9 47.9 72 48.8 71.3C50.9 69.7 52.3 68.6 52.6 67.7C52.6 67.6 52.7 67.4 52.7 67.3C52.7 67.1 52.7 66.9 52.6 66.8C52.1 65.9 50.5 65.3 47.9 64.5C45.8 63.8 43 63 42 62C42 61.9 41.9 61.9 41.9 61.9C42 60.7 47.1 58.6 49.8 57.2Z" fill="#483A35"/>
<path d="M69 9.1C69 9.1 66 10.4 66.6 12.1C66.9 13.2 68.1 13.8 69.9 14.1C74.1 14.7 78.7 13.3 80.7 10.9C81.9 9.4 82.1 7.7 81.4 5.9C80.4 3.4 77.5 1.4 73.9 0.399998C68.2 -1 61.7 0.599998 56.9 4.7C52.4 8.6 52.1 12.5 52.7 15.2C53.8 20.4 59 24.5 63.4 25.8C65.2 26.3 66.9 26.8 68.4 27.2C71.7 28 74.8 28.7 75.5 30C75.7 30.4 75.7 30.9 75.5 31.5C74.9 33.2 69.8 35.4 65.7 37.4C59.4 40.4 55.6 42.4 56.4 44.5C57.2 46.5 60.5 47.7 63.6 48.8C65.5 49.5 68.5 50.1 68.6 50.8C68.7 51.5 66.1 53.6 64.7 54.8C62.7 56.4 61 57.8 61 59C61 59.4 61.2 59.7 61.5 60C62.6 60.9 64.1 61.3 65.5 61.7C66.6 62 67.8 62.3 68.2 62.8C68.5 63.2 68.4 64 68.4 64.8C68.3 66 68.2 67.5 69.3 68.6L70.4 69.5C71 70 71 70 70.7 70.7C70.6 71.1 70.2 71.3 70.1 71.7C69.1 73.8 71 73.9 71 73.9C70.4 73.2 70.5 73.1 71 72.5C71.3 72.2 71.6 71.8 71.8 71.3C72.4 69.9 71.9 69.5 71 68.8L70 67.9C69.3 67.2 69.4 66.2 69.4 65.1C69.5 64.1 69.5 63.1 69 62.4C68.4 61.6 67.1 61.3 65.7 60.9C64.4 60.6 62.7 60.2 61.9 59.5C61.8 59.5 61.8 59.4 61.8 59.4C61.8 58.7 64 57.2 65.4 56.1C67.6 54.3 69.6 52.7 69.4 51.3C69.2 49.9 66.9 49.1 64 48.1C61.3 47.2 57.7 46.1 57.1 44.6C56.6 43.4 62.5 40.7 66.2 39C71 36.7 75.5 34.5 76.3 32.4C76.6 31.5 76.6 30.6 76.2 29.9C75.3 28.2 72.5 27.5 68.7 26.6C67.2 26.2 65.5 25.8 63.7 25.3C59.8 24.1 55 20.2 54 15.5C53.3 12.1 54.6 8.9 57.8 6.1C62.3 2.2 68.2 0.699998 73.5 2.1C76.8 2.9 79.4 4.8 80.2 6.9C80.8 8.3 80.6 9.6 79.7 10.7C78 12.8 73.7 14.1 70 13.5C69 13.4 67.8 13 67.6 12.3C67.5 10.9 68.6 9.6 69 9.1Z" fill="#483A35"/>
</g>
<defs>
<clipPath id="clip0">
<rect width="143" height="184.1" fill="white"/>
</clipPath>
</defs>
</svg>
