<svg id="eKkthuEpLwb1" xmlns="http://www.w3.org/2000/svg" xmlns:xlink="http://www.w3.org/1999/xlink" viewBox="0 0 347 385" shape-rendering="geometricPrecision" text-rendering="geometricPrecision" width="347" height="385"><g id="eKkthuEpLwb2"><g id="eKkthuEpLwb3" clip-path="url(#eKkthuEpLwb64)"><g id="eKkthuEpLwb4"><g id="eKkthuEpLwb5"><path id="eKkthuEpLwb6" d="M195.200000,214.200000C195.300000,214.100000,195.300000,213.900000,195.400000,213.800000C195.400000,213.800000,195.300000,213.900000,195.200000,214.200000Z" fill="rgb(0,0,0)" stroke="none" stroke-width="1" stroke-miterlimit="1"/><path id="eKkthuEpLwb7" d="M203.700000,190.900000C202.500000,188.700000,200.600000,183.900000,198.300000,173.900000C195.300000,160.900000,184.300000,160.600000,181.500000,160.700000C181.700000,157.500000,182.500000,154.800000,182.800000,153.700000C194.300000,145,218.100000,125.600000,220.900000,111.300000C224.100000,114,225.800000,118.700000,225.800000,118.700000C226.600000,111.100000,224.400000,106.400000,222,103.500000C224.200000,103.800000,227.200000,104.200000,227.200000,104.200000C222.800000,94.300000,212.900000,91.900000,205,92.900000C202.800000,93.200000,201.200000,92.800000,200,91.900000C198.800000,90.900000,198.100000,88.600000,197.900000,87.900000C197.700000,84.400000,196.800000,79.900000,194.500000,74.800000C194.200000,74.100000,193.900000,73.500000,193.600000,72.900000C192,67.500000,187.900000,55.600000,180.200000,47.600000C180,46,178.800000,44.100000,175.300000,42.500000C175.300000,42.500000,177.900000,41.900000,179.400000,42.600000C179.400000,42.600000,177.700000,39.300000,173.100000,39C172.500000,39,171.900000,39,171.400000,39.100000C166.400000,26.400000,168.700000,10.800000,169.600000,4.200030C170.300000,-0.899971,168.300000,0.000029,168.300000,0.000029C162.100000,2.600030,155.600000,18.200000,151.900000,28.100000C147.200000,29.200000,143.700000,31.100000,141.100000,33C142.100000,30.500000,143.400000,25.400000,140.500000,19.100000C140.500000,19.100000,138.700000,31.400000,131.800000,35.700000C129.100000,37.400000,126.300000,38.700000,123.500000,39.900000C118.800000,42,114.800000,44.300000,111.100000,48.300000C101.600000,37.200000,80.100000,16.800000,50,16.800000C50,16.800000,48,17.400000,50.900000,21C56.600000,27.800000,74.400000,48.600000,69.900000,69.900000L68.500000,76.500000C63.900000,97.900000,62,106.300000,72.100000,113.700000C81,120.200000,93.300000,113,96.100000,111.200000C96.700000,113.300000,97.700000,115.500000,99,117.700000C92.200000,126.300000,83.200000,139.800000,80.200000,154.100000L85.600000,150.600000C83.900000,154.800000,82.600000,159.800000,82.500000,164.900000C82.500000,164.900000,94.900000,156,105.700000,150.700000C104.100000,152.800000,100.600000,157.400000,99.700000,160.300000C99.700000,160.300000,119.900000,154.800000,142.900000,158.700000C144.400000,160.400000,147.200000,163.500000,148.900000,165.900000C147.300000,165.600000,145.400000,165.600000,143.200000,165.900000C130.700000,167.800000,120.800000,182.700000,121.600000,200.700000C121.600000,200.700000,121.800000,223,124.800000,233C122.300000,237.400000,117.200000,244.800000,108.300000,250.400000C108.300000,250.400000,111.100000,250.800000,112.500000,250.900000C108.900000,253.500000,104.700000,257.200000,102.700000,261L106.600000,258.900000C102.900000,264.100000,91.900000,273.300000,77.700000,284C75.500000,285.600000,73.600000,287.200000,71.900000,288.800000C61,283.600000,59.900000,264.400000,59.500000,242.800000L59.200000,231.400000C58.200000,204.100000,45.100000,198.200000,44.500000,197.900000L45.500000,202.700000C42.200000,198.100000,37.100000,193.200000,30.100000,192.300000C29.600000,192.200000,30.100000,193.300000,30.700000,194.600000C25.400000,190.800000,15.900000,187.400000,-0.199997,190.700000C-0.199997,190.700000,34,204.800000,32.900000,238.500000C32.700000,245.900000,31.900000,253.700000,31.300000,261.200000C28.700000,289.400000,23.500000,318.600000,48.700000,332.300000C49.200000,336.300000,50.800000,341.200000,55,345.400000C63.300000,353.600000,76.400000,358.200000,94.100000,356.600000C90.700000,360,88.400000,363.700000,87.700000,367.700000C87.200000,370.400000,88.400000,372.900000,91,375.100000C104.400000,386.600000,145.900000,386.900000,159.500000,382.300000C163.600000,383.900000,169.300000,385.200000,173.300000,381.900000C174.300000,381,175.200000,380,175.800000,378.800000C180.400000,379,185.600000,377.300000,188.600000,374.300000C190.200000,372.700000,191.900000,370.300000,192.500000,366.700000C194.500000,365.700000,197.300000,363.700000,198.900000,360.700000C200.300000,358.100000,201.500000,353.800000,199.200000,348.300000C198.900000,347.700000,198.600000,347.100000,198.300000,346.500000C203,346.300000,208.100000,344.300000,211.300000,340.700000C211.400000,340.500000,211.600000,340.400000,211.700000,340.200000C215.500000,340.200000,224.400000,339.600000,227.400000,330.900000C227.400000,330.900000,227.400000,330.900000,227.400000,330.800000C230.400000,329.400000,234.500000,326,235.800000,321.900000C237.400000,316.900000,236.800000,312.100000,234.100000,308.200000C230.400000,302.700000,221.600000,303.800000,215.300000,305.500000C223.700000,298.300000,225.500000,290.700000,226,287.900000L227.400000,290.400000C228.500000,287.200000,227.900000,284.400000,227.100000,282.300000L230.300000,283.400000C229.800000,280.200000,228.200000,277.800000,226.500000,276.100000L229.400000,274.700000C229.100000,274.300000,222.300000,263,203.100000,270.100000C202.900000,268.300000,202.500000,266.400000,201.900000,264.500000L203.700000,190.900000ZM149.600000,35.400000C148.100000,35.500000,146.800000,35.800000,145.600000,36C147.100000,34.600000,148.900000,33.400000,150.600000,32.400000C150.200000,33.700000,149.800000,34.700000,149.600000,35.400000Z" fill="rgb(72,58,53)" stroke="none" stroke-width="1" stroke-miterlimit="1"/><path id="eKkthuEpLwb8" d="M164.700000,267.900000C163.600000,270.200000,162.200000,273.600000,160.400000,275.600000C161.800000,274.700000,163.300000,273.600000,164.400000,272.200000C164.400000,272.200000,163.600000,276.100000,160.400000,279.600000C161.500000,278.900000,163.100000,277.800000,164.100000,276.700000C164.100000,276.700000,163.200000,280.800000,159.800000,284.400000C181.600000,286.400000,187.600000,298.200000,189.300000,304.600000C191.800000,301.400000,204.800000,283.700000,200.300000,265.600000C199.600000,259.200000,200,248,200,248C201,239,200,223,200,223C200,202,191.400000,182.100000,188,179.300000C187.300000,178.700000,187,178.700000,186.800000,178.700000C185.300000,178.900000,183.400000,193,183.400000,193C182.300000,189.900000,178.500000,182.300000,175,183.100000C170.800000,184.100000,171.100000,210.800000,171.900000,224C172,224,171.400000,253.700000,164.700000,267.900000Z" fill="rgb(221,223,225)" stroke="none" stroke-width="1" stroke-miterlimit="1"/><path id="eKkthuEpLwb9" d="M150.600000,149.400000C150.600000,149.400000,151.500000,154.500000,154.500000,159.100000C153.700000,158.800000,152.600000,158.500000,151.500000,158.100000C130.600000,143.500000,128.400000,123.700000,128.100000,120.200000C131.400000,119.600000,134.900000,119.400000,138.200000,119.400000C142.600000,122.900000,146.600000,130.800000,149.800000,138C153.900000,147,158,156.200000,163.900000,157.400000C173.400000,159.400000,175.500000,152.900000,179,144.200000C182.800000,134.900000,192,120.300000,193.800000,117.500000C196.600000,117.400000,199,117.100000,201.100000,116.500000C199.900000,120.700000,193.400000,140.500000,179.200000,153.800000C180.700000,149.800000,181.200000,146.400000,181.200000,146.400000C181.200000,146.600000,176.300000,163.200000,165.800000,163C155.400000,162.800000,150.700000,149.600000,150.600000,149.400000Z" fill="rgb(255,255,255)" stroke="none" stroke-width="1" stroke-miterlimit="1"/><path id="eKkthuEpLwb10" d="M152.500000,101.600000C152.500000,100.600000,152.200000,96.400000,147.800000,88.400000C145.100000,83.500000,140.100000,71.500000,142,65.400000C142.500000,63.900000,143.300000,62.900000,144.600000,62.300000C146.400000,61.500000,149.300000,62.600000,152.200000,65.100000C156.500000,68.600000,161.500000,75.700000,164.100000,84.900000C163.400000,83.300000,162.700000,81.900000,161.900000,80.900000C160.400000,79,159,78.800000,158.200000,79C154.100000,79.700000,153.200000,87.100000,154.100000,93.700000C155,100.400000,157.900000,107,162.300000,106.500000C163.300000,106.400000,164.700000,105.800000,165.600000,103.900000C165.400000,105.100000,165.200000,106.400000,164.900000,107.700000L165,107.700000C163.100000,108.900000,161.500000,110.200000,160.400000,111.200000C160.500000,109.400000,160,107.700000,158.900000,106.200000C157.500000,104.300000,155.200000,102.800000,152.500000,101.600000Z" fill="rgb(255,237,149)" stroke="none" stroke-width="1" stroke-miterlimit="1"/><path id="eKkthuEpLwb11" d="M156.900000,57.600000C157.100000,57.400000,157.300000,57.300000,157.500000,57.300000C159.700000,57.300000,162.500000,61,163.200000,62.300000C163.200000,62.300000,162.400000,51.900000,165,49.200000C165.400000,48.700000,165.900000,48.500000,166.500000,48.600000C170.400000,48.800000,173.700000,59.100000,174.500000,62.900000C174.500000,62.900000,175.900000,58,177.300000,56.900000C177.700000,56.600000,178.100000,56.500000,178.500000,56.600000C180.800000,57,182.800000,62.400000,183.500000,64.900000C181.200000,66.900000,181.400000,75.700000,184,82.400000C186.900000,89.900000,189.100000,98.400000,189,100.600000C186,101,182.900000,102.100000,180.900000,103.800000C175.100000,103.200000,170.100000,104.900000,166.300000,107.100000C169.900000,87.100000,162.500000,73.300000,155.400000,66.300000C155.400000,63.600000,155.600000,58.900000,156.900000,57.600000Z" fill="rgb(221,223,225)" stroke="none" stroke-width="1" stroke-miterlimit="1"/><path id="eKkthuEpLwb12" d="M164.600000,103.700000C164,105,163.200000,105.700000,162.200000,105.800000C158.800000,106.200000,156.100000,100,155.200000,93.700000C154.200000,86.500000,155.500000,80.500000,158.300000,80C159.200000,79.800000,160.100000,80.700000,160.700000,81.400000C164.300000,85.800000,166.900000,98.200000,164.600000,103.700000Z" fill="rgb(121,189,40)" stroke="none" stroke-width="1" stroke-miterlimit="1"/><path id="eKkthuEpLwb13" d="M160.100000,113.200000C168.300000,106.700000,175.300000,104.900000,180,104.700000C179.700000,105.100000,179.400000,105.600000,179.200000,106C176.600000,112.100000,189.700000,111.400000,191.700000,113.200000C191.700000,113.200000,199.400000,105.800000,197.500000,102.200000C197.200000,101.500000,196.400000,101.100000,195.400000,100.700000C196.800000,99.700000,204.800000,94.200000,209.400000,97.300000C211.600000,98.800000,212.400000,102.700000,211.100000,106.400000C208.900000,112.900000,200.800000,116.600000,190.900000,116.100000C191.600000,114.600000,191.800000,113.600000,191.800000,113.600000C191.800000,113.700000,185.600000,125,173.700000,126.900000C164.900000,128.300000,158.300000,124.500000,152.500000,121.200000C150.900000,120.300000,149.600000,119.600000,148.300000,119C154,119,158.600000,117.800000,160.100000,113.200000Z" fill="rgb(255,255,255)" stroke="none" stroke-width="1" stroke-miterlimit="1"/><path id="eKkthuEpLwb14" d="M144.700000,119.300000C146.700000,120,148.600000,121.200000,151.100000,122.700000C156.800000,126,164.700000,130.800000,174,129.200000C183.600000,127.600000,188.200000,121.400000,190.300000,117.400000C190.800000,117.400000,191.300000,117.400000,191.800000,117.500000C189.700000,120.800000,181.400000,134.500000,177.700000,143.600000C177.100000,145.100000,176.500000,146.500000,175.900000,147.700000C175.200000,144.700000,172.800000,139.700000,164.200000,141.600000C162.100000,139.400000,158.400000,137.800000,152.100000,139.300000C151.800000,138.700000,151.500000,138,151.200000,137.400000C148.100000,130.500000,144.800000,123.300000,140.500000,119.400000C140.800000,119.400000,141.200000,119.400000,141.500000,119.400000C142.700000,119.400000,143.700000,119.400000,144.700000,119.300000Z" fill="rgb(126,14,0)" stroke="none" stroke-width="1" stroke-miterlimit="1"/><path id="eKkthuEpLwb15" d="M167.200000,149C167.200000,149,167.200000,145.400000,165,142.500000C167,142.300000,174,142.100000,174.900000,149.700000C172.400000,154.500000,169.800000,156.400000,164,155.200000C159.600000,154.300000,156.100000,147.800000,152.800000,140.700000C155.300000,140.500000,165,140.300000,167.200000,149Z" fill="rgb(234,87,83)" stroke="none" stroke-width="1" stroke-miterlimit="1"/><path id="eKkthuEpLwb16" d="M197.500000,95.400100C197.500000,95.400100,197.800000,94.100100,198,91.800100C198.200000,92.300100,198.500000,92.800100,199.100000,93.300100C200.600000,94.500100,202.600000,95.000100,205.300000,94.700100C211.100000,94.000100,220.500000,96.300100,225.300000,103.300000C223.700000,102.800000,221.600000,102.100000,220.400000,102.100000C218.400000,100.500000,216.700000,99.900100,216.700000,99.900100C222.200000,104.100000,225.300000,115.100000,225.300000,115.100000C222.500000,108.600000,218,109.800000,218,109.800000C218.300000,109.900000,218.600000,110,218.900000,110.100000C216.800000,123.100000,195.500000,141.600000,184.300000,150.600000C190.800000,143.700000,200.200000,131.500000,202.100000,116.500000C210.100000,114.200000,212.700000,109,213.400000,107C214.900000,102.600000,214,97.900100,211.100000,96.100100C205.100000,92.400100,196.600000,99.000100,194.700000,100.700000C193.400000,100.400000,191.800000,100.300000,190.100000,100.500000C190.300000,97.600100,188.200000,88.400100,185.700000,81.800100C182.700000,74.300100,183.700000,65.900100,185,65.400100C186.100000,64.900100,188.500000,66.100100,193.400000,75.800100C198,85.300100,197.500000,95.300100,197.500000,95.400100Z" fill="rgb(255,237,149)" stroke="none" stroke-width="1" stroke-miterlimit="1"/><path id="eKkthuEpLwb17" d="M225.100000,115C225.100000,115,222,104.100000,216.500000,99.800000C216.500000,99.800000,218.200000,100.400000,220.200000,102C221.400000,102,223.500000,102.700000,225.100000,103.200000C220.400000,96.200000,210.900000,93.900000,205.100000,94.600000C202.500000,94.900000,200.400000,94.500000,198.900000,93.200000C198.400000,92.800000,198,92.200000,197.800000,91.700000C197.700000,93.700000,197.400000,95,197.300000,95.300000C197.200000,96.400000,197.100000,97.500000,196.900000,98.600000C200.400000,96.200000,206.200000,93.200000,210.700000,96C213.600000,97.800000,214.500000,102.500000,213,106.900000C212.300000,108.900000,209.700000,114,201.700000,116.400000C199.700000,131.400000,190.400000,143.600000,183.900000,150.500000C195.100000,141.500000,216.300000,123,218.500000,110C218.200000,109.900000,217.900000,109.800000,217.600000,109.700000C217.800000,109.700000,222.300000,108.500000,225.100000,115Z" fill="rgb(164,168,171)" stroke="none" stroke-width="1" stroke-miterlimit="1"/><path id="eKkthuEpLwb18" d="M168.600000,1.400020C168.600000,1.500020,168.600000,1.700020,168.500000,1.800020C167.800000,5.600020,165.700000,14.200000,165.700000,21.500000C165.700000,27.500000,166.500000,34.100000,168.900000,40.200000C168.300000,40.500000,167.800000,40.800000,167.300000,41.200000C163.800000,40.400000,156.900000,39.300000,149.400000,40.500000C153.900000,37.700000,159.500000,36.400000,159.500000,36.400000C156.900000,35.700000,154.500000,35.400000,152.300000,35.400000C152.700000,34.100000,153.300000,32.500000,153.900000,30.800000C158.800000,28.500000,163.300000,27.500000,163.300000,27.500000C160.300000,27.300000,157.500000,27.400000,155,27.800000C158.600000,18.200000,164,5.600020,168.600000,1.400020Z" fill="rgb(164,168,171)" stroke="none" stroke-width="1" stroke-miterlimit="1"/><path id="eKkthuEpLwb19" d="M95.500000,108.900000C95.400000,109,82.900000,117.500000,74.300000,111.200000C69.700000,107.800000,67.900000,104.200000,67.900000,98.500000C67.900000,93.300000,69.400000,86.200000,71.600000,76L73,69.400100C73.500000,67.000100,73.700000,64.600100,73.700000,62.200100C73.700000,46.300100,62.600000,31.500000,55.500000,23.300000C63.100000,27.500000,88.100000,42.300100,100.600000,62.700100C95.700000,70.600100,95.100000,78.700000,95.300000,83.500000C94.700000,85.100000,91.700000,89.900100,77.700000,88.400100C77.700000,88.400100,78,92.400100,84.500000,93.900100C81.700000,95.100100,79,97.100000,77.700000,100.500000C77.700000,100.500000,87.900000,98.300100,88.400000,98.100100C88.900000,97.800100,85.100000,100,88,104.900000C88,104.900000,91.300000,99.100100,95.100000,99.600100C94.800000,102.200000,94.800000,105.500000,95.700000,109.300000L95.500000,108.900000Z" fill="rgb(246,187,170)" stroke="none" stroke-width="1" stroke-miterlimit="1"/><path id="eKkthuEpLwb20" d="M102.500000,158.100000L108.600000,149.400000C109.500000,149,110.400000,148.600000,111.300000,148.300000C111.300000,148.300000,95.600000,150.700000,84.700000,161.700000C84.700000,161.700000,87.400000,148.100000,93.200000,137.500000C93.200000,137.500000,89.700000,141.900000,86.800000,148.400000L82.500000,151.500000C82.500000,151.500000,96.500000,122.200000,107.800000,107.900000C107.800000,107.900000,104.700000,110.900000,100.600000,116C99.500000,113.400000,96.200000,104.900000,96.600000,94.100000C96.600000,94.100000,96,95.400000,95.500000,97.800000C94.300000,97.700000,91,97.900000,88.600000,102.800000C88.600000,102.800000,88,99.700000,90,97.400000C90,97.400000,84.100000,98,80,99.200000C80,99.200000,85.400000,93.900000,93,92.400000C93,92.400000,90.100000,92.400000,86.800000,93.300000C85.100000,92.900000,82.100000,91.900000,79.500000,89.800000C79.500000,89.800000,92.800000,91.600000,95.500000,85C95.700000,86.900000,95.900000,88.100000,95.900000,88.100000C95.700000,75.800000,100.100000,66.500000,101.300000,64C102.400000,66,103.500000,68,104.300000,70.100000C104.300000,70.100000,99.400000,42.900000,54.100000,21.900000C53.100000,20.700000,52.100000,19.700000,51.400000,18.900000C51.300000,18.800000,51.300000,18.700000,51.200000,18.700000C83.500000,19.800000,116.200000,55.300000,116.500000,55.600000C116.500000,55.600000,115,53.300000,112.100000,49.800000C115.600000,45.900000,120,44,124.600000,41.900000C127.400000,40.600000,130.300000,39.300000,133.100000,37.600000C138.200000,34.400000,140,27.100000,140.600000,22.400000C140.800000,23.400000,140.900000,24.500000,140.900000,25.500000C140.900000,29.500000,139.700000,33.400000,139.100000,35C137.100000,36.800000,136.200000,38.300000,136.200000,38.300000C146.400000,29.400000,159,28.300000,159,28.300000C151.300000,29.700000,145.300000,34.800000,143.100000,36.900000C140.800000,37.700000,139.500000,38.500000,139.500000,38.500000C147.300000,36.500000,155.900000,36.800000,155.900000,36.800000C147.500000,38.800000,146.300000,42.900000,146.300000,42.900000C146.600000,42.600000,146.800000,42.400000,147.100000,42.200000C147.100000,42.200000,155.900000,41.500000,165.200000,43.100000C165.200000,43.100000,175.900000,44.300000,179,51.800000C179,51.800000,179.600000,51,180,49.900000C181.400000,52.200000,185.900000,59.400000,188.600000,65.900000C187.100000,64.500000,185.700000,64,184.400000,64.400000C183.800000,62.300000,181.700000,55.700000,178.700000,55.200000C178,55.100000,177.300000,55.300000,176.700000,55.700000C175.600000,56.500000,174.900000,58.700000,174.500000,60.100000C173.400000,56,170.700000,47.600000,166.400000,47.400000C165.500000,47.400000,164.700000,47.700000,164.100000,48.400000C162.500000,50.100000,162.200000,54.200000,162.200000,57.300000C162.200000,58.300000,162.200000,59.200000,162.300000,60C161.200000,58.400000,159.400000,56,157.400000,56C156.900000,56,156.500000,56.200000,156.100000,56.600000C154.700000,58.100000,154.400000,62.600000,154.400000,65.300000C154.100000,65,153.800000,64.700000,153.400000,64.500000C149.900000,61.600000,146.600000,60.500000,144.200000,61.500000C142.500000,62.200000,141.300000,63.600000,140.700000,65.500000C138.600000,72.100000,143.500000,84.200000,146.400000,89.400000C149.900000,95.700000,151.900000,100.600000,152.300000,101.700000C143.900000,98,132.100000,97.900000,132.100000,97.900000C132.300000,97.900000,151.900000,100.200000,157,107.100000C158.100000,108.600000,158.500000,110.200000,158.100000,111.900000C156.800000,117.800000,150,117.900000,141.500000,117.900000C123,117.800000,119.400000,123.400000,119.400000,123.400000C121.800000,122,124.400000,121.100000,127.200000,120.500000C127.800000,143,143.800000,154.400000,148.900000,157.500000C138.800000,154.800000,120.800000,151.900000,102.500000,158.100000Z" fill="rgb(164,168,171)" stroke="none" stroke-width="1" stroke-miterlimit="1"/><path id="eKkthuEpLwb21" d="M125.300000,235.900000C120.900000,243,111.200000,250,111.200000,250L114.200000,249.800000C116.700000,248,118.600000,247,118.600000,247L106,258.300000C109.900000,255.600000,114.200000,254.800000,114.200000,254.800000L111.900000,256.100000C108.500000,261.500000,95.300000,275.800000,79.100000,286.900000C63.900000,297.100000,59,310.500000,59,310.600000C59,310.600000,58.700000,302.300000,69.400000,291.300000C57.700000,285.200000,57.800000,264.900000,57.300000,242.800000L57,231.300000C56.900000,228.500000,56.700000,226,56.300000,223.700000C55.900000,224.100000,55.500000,224.300000,55.100000,224.300000C52.900000,224.500000,50.100000,220.800000,48.200000,217.500000C49.200000,221.100000,50.500000,225.900000,50.500000,228.700000C50.500000,230,50.300000,231,49.600000,231.300000C49.400000,231.400000,49.100000,231.500000,48.600000,231.300000C46.700000,230.600000,43.500000,224.400000,41.600000,220.100000C41.800000,221.400000,42,223.300000,42,224.500000C42,225.500000,41.900000,226.400000,41.500000,226.800000C41.300000,227.100000,41,227.200000,40.700000,227.200000C39.700000,227.200000,38.800000,225.500000,38.200000,224.100000C38.200000,224.700000,38.300000,225.300000,38.300000,225.800000C38.300000,226.800000,38.200000,227.500000,38,227.800000L37.500000,228C37.300000,228,36.800000,228,35,224.600000C35.900000,228.100000,36.400000,231.900000,36.400000,236C36.400000,236.500000,36.400000,237.100000,36.400000,237.600000C36.200000,245,35.400000,252.900000,34.700000,260.500000C33.800000,269.800000,33,279.100000,33,288C33,305.300000,35.800000,320.400000,48.800000,329.400000C48.700000,326.100000,49.300000,323.800000,49.300000,323.800000C49.300000,323.900000,49.200000,333.800000,57.600000,342.100000C65.800000,350.300000,79.200000,354.200000,97.200000,353.700000C114.500000,339,149.300000,329.700000,149.300000,329.700000C149,329.800000,133.400000,335.300000,118.300000,343.200000C121.400000,342.300000,124.200000,342,124.800000,343.100000C124.900000,343.200000,124.900000,343.400000,124.900000,343.600000C124.900000,345.600000,120.700000,349.900000,117.400000,353.100000C120.800000,351.300000,125.500000,349.100000,126.800000,349.400000L127.300000,349.800000C127.400000,349.900000,127.400000,350.100000,127.400000,350.200000C127.400000,351.100000,125.800000,352.700000,124.300000,354.100000C126.400000,353,128.600000,352.100000,129.500000,352.300000L130,352.700000C130.200000,353.200000,130,353.800000,129.600000,354.400000C183.200000,338.300000,183.200000,317,183.200000,316.800000C183.200000,316.800000,183.600000,318.100000,183.300000,320.300000L183.800000,322C183.800000,322,185.400000,315.700000,185,310.100000C185,310.100000,185.600000,311.700000,185.800000,314L186.800000,315.400000C186.800000,315.400000,187.500000,309.100000,184.500000,302.800000C184.500000,302.800000,185.200000,303.500000,185.900000,304.800000C186.200000,305,187.800000,306.100000,188.200000,306.400000C186.200000,300.500000,179.400000,288.600000,156.400000,287.300000C129.700000,285.800000,109.300000,301.500000,109.100000,301.600000C109.100000,301.600000,114.900000,296.200000,124.500000,291.400000C122.900000,290.500000,118.800000,289,111.500000,290.700000C111.500000,290.700000,119,286.900000,126.200000,290.500000C134.500000,286.600000,145.200000,283.300000,157.300000,284C157.500000,284,157.700000,284,158,284C159.300000,282.600000,161.100000,280.500000,162.600000,278.200000C162.600000,278.200000,160.800000,280,158.900000,280.500000C158.400000,281,157.900000,281.400000,157.200000,281.800000C157.200000,281.800000,161.400000,276.600000,162.600000,274.300000C162.600000,274.300000,159.100000,277.400000,156.200000,277.300000C156.200000,277.300000,157.100000,277,158.300000,276.300000C158.800000,275.700000,161.300000,272.100000,163.100000,268.100000C169.400000,254.600000,170.800000,223.600000,170.800000,223.600000C170.800000,223.600000,170.800000,219.600000,170.200000,215.200000C169.700000,207.500000,168.400000,182.800000,174.400000,181.400000C178.100000,180.600000,181.500000,186.800000,183,190.100000C183.200000,185.500000,184,177.400000,186.500000,177C187.100000,176.900000,187.700000,177.200000,188.400000,177.800000C190,179.100000,191.900000,181.900000,193.700000,186C193.200000,180.100000,194.500000,177.900000,194.500000,177.900000C194.200000,181.400000,194.700000,186.300000,195.400000,190.400000C196.700000,194.100000,200.700000,207.600000,200.700000,217.600000C201.300000,214.300000,206.700000,205.300000,208.700000,201.600000C207,199.900000,199.700000,192.600000,195.600000,174.700000C193,163.200000,183.500000,161.900000,181.100000,161.700000C181.100000,163.500000,181.300000,165.400000,181.900000,167.300000C181.900000,167.300000,178.700000,162.900000,179.500000,155.600000C178.700000,156.200000,178,156.700000,177.500000,157.100000C175.100000,161.600000,171.400000,165.800000,165.700000,165.700000C161.900000,165.600000,159,164,156.800000,161.800000C153.300000,160.600000,149.700000,159.600000,146.200000,158.900000C147.600000,161,149.600000,164,150.800000,166C156.500000,167.900000,157.700000,172.900000,157.700000,172.900000C157.600000,172.600000,154.100000,166.200000,143.500000,167.800000C132.800000,169.400000,124.500000,183.200000,124.500000,199C124.500000,199.600000,124.500000,200.200000,124.500000,200.900000C124.500000,200.900000,124.700000,221.700000,126.700000,232.700000C127,233,126.600000,233.700000,125.300000,235.900000Z" fill="rgb(164,168,171)" stroke="none" stroke-width="1" stroke-miterlimit="1"/><path id="eKkthuEpLwb22" d="M4.100010,191.400000C23.900000,189.200000,36.700000,201.100000,36.900000,201.200000C36.900000,201.200000,36.600000,200.400000,35.800000,199.300000L35.900000,199.400000L32.700000,193.900000C32.700000,193.900000,45.300000,201,50.400000,211C50.400000,211,49.500000,208.800000,47.800000,205.900000C47.600000,204.600000,47.200000,202.600000,46.600000,201.400000C49.800000,204.900000,54.200000,211.300000,56.100000,222.300000C55.800000,222.900000,55.500000,223.300000,55,223.300000C52.800000,223.500000,45.800000,213.100000,45.800000,213.100000C48.600000,221.700000,50.100000,229.500000,48.900000,230.100000C48.900000,230.100000,48.800000,230.100000,48.700000,230.100000C46.800000,229.400000,39.600000,215.800000,39.600000,215.800000C40.500000,219.400000,41.400000,224.800000,40.600000,225.800000C39.500000,225.800000,37,220.600000,37,220.600000C37.300000,223.200000,37.200000,224.700000,37.200000,226.200000C37.200000,226.400000,37.200000,226.500000,37.200000,226.600000C36.600000,225.700000,35.100000,223.300000,33.600000,220.600000C27.200000,203.700000,11.500000,194.700000,4.100010,191.400000Z" fill="rgb(255,255,255)" stroke="none" stroke-width="1" stroke-miterlimit="1"/><path id="eKkthuEpLwb23" d="M196.700000,359.700000C195.700000,361.600000,194.200000,363,193,363.900000C193,363.100000,193,362.200000,192.900000,361.200000C192.600000,358.100000,191.200000,355.500000,188.900000,353.700000C183.200000,349.200000,172.700000,353,172.700000,353C172.800000,353,181.800000,351.800000,186.700000,355.600000C188.500000,357,189.600000,359,189.800000,361.500000C190.300000,366,189.100000,369.700000,186.400000,372.400000C183.600000,375.100000,180,376.100000,176.900000,376.200000C177.600000,373.800000,177.800000,371,177.300000,367.900000C176.800000,364.700000,175.400000,362.300000,172.900000,361C165.200000,356.900000,156.400000,362.700000,156.400000,362.700000C156.500000,362.700000,164.900000,359.500000,171.200000,363C173,364,174.100000,365.800000,174.500000,368.200000C175.300000,373.400000,174.200000,377.500000,171.400000,379.700000C168.100000,382.400000,161.100000,381.900000,154.400000,379.300000C154.400000,379.300000,154.900000,379.600000,155.800000,380.100000C146.500000,383.100000,103.700000,382,92.600000,373C90.600000,371.400000,89.800000,369.700000,90.100000,367.800000C91.300000,360.200000,101.600000,352.400000,113.200000,345.900000C118.600000,344,123.100000,343.100000,123.500000,343.900000C124,344.800000,119.500000,350,113.600000,355.300000C113.600000,355.300000,124.800000,350.400000,126,350.500000C126,351.300000,123.400000,353.900000,120.400000,356.400000C120.400000,356.400000,128.200000,353.400000,129.200000,353.300000C129,353.900000,127,356,124.600000,357.800000C124.600000,357.800000,126.100000,357.100000,127.600000,356.200000C136.400000,354,143.900000,351.600000,150.100000,349.200000C154.100000,348.600000,162.100000,347.200000,170.400000,345C183.600000,341.400000,193.200000,340.800000,196.900000,349.400000C198.900000,354,197.900000,357.600000,196.700000,359.700000Z" fill="rgb(255,255,255)" stroke="none" stroke-width="1" stroke-miterlimit="1"/><path id="eKkthuEpLwb24" d="M231.500000,309.700000C234.500000,314.100000,233.600000,318.900000,232.900000,321.400000C231.900000,324.400000,230.100000,327.100000,228.200000,328.500000C229.200000,323.500000,227.600000,318.300000,224.100000,315.700000C216.300000,309.700000,208.200000,318.800000,208.200000,318.800000C208.500000,318.500000,215.900000,312.600000,222.200000,317.500000C225.400000,319.900000,226.500000,325.300000,224.900000,329.900000C223.200000,334.800000,219,337.700000,213.200000,338.100000C215.200000,334.800000,215.700000,331,214.600000,327.200000C213.700000,324.300000,212.100000,322.200000,209.700000,321.400000C202.700000,319.100000,195.300000,325.900000,195.300000,325.900000C195.400000,325.900000,203.100000,321.700000,208.100000,323.700000C209.900000,324.400000,211,325.800000,211.700000,328C212.900000,331.900000,211.900000,335.800000,209.100000,339.100000C206.100000,342.400000,201.500000,344.500000,197.300000,344.600000C191.600000,338.100000,180.700000,340,169.900000,342.900000C165.700000,344,161.900000,344.900000,158.800000,345.600000C176.600000,337,181.800000,328.100000,183.100000,322.500000L183.900000,324.800000C185.600000,322,186.100000,319,186.100000,316.400000L187.700000,318.100000C187.700000,317.900000,187.800000,317.800000,187.800000,317.600000C190.500000,317,193,316.400000,195.400000,315.700000C191.300000,319.300000,189.900000,323.900000,189.900000,323.900000C192.300000,319.900000,196.600000,316.400000,200,314.200000C204.400000,312.500000,208.100000,310.600000,211.200000,308.600000C217.200000,306.800000,227.900000,304.600000,231.500000,309.700000Z" fill="rgb(255,255,255)" stroke="none" stroke-width="1" stroke-miterlimit="1"/><path id="eKkthuEpLwb25" d="M227.200000,274.700000C226.600000,274.800000,225.800000,274.900000,225.300000,275C223,273.200000,220.800000,272.600000,220.800000,272.600000C226.600000,275.800000,229.400000,281.800000,229.400000,281.800000L226.700000,281C226,279.600000,225.300000,278.900000,225.300000,278.900000C226.300000,280.700000,227.500000,288.500000,227.500000,288.500000C226.700000,286.100000,224.100000,284.200000,224.100000,284.200000L225.100000,285.900000C224.700000,287.800000,219.800000,306.600000,188.200000,316C188.700000,312.600000,188.200000,309.900000,187.400000,307.800000L190.100000,308.900000C190.100000,308.900000,190.100000,308.100000,189.900000,306.900000C190.700000,306,205.200000,291.500000,203.400000,271.900000C217.300000,268.200000,224.600000,272.600000,227.200000,274.700000Z" fill="rgb(164,168,171)" stroke="none" stroke-width="1" stroke-miterlimit="1"/><path id="eKkthuEpLwb26" d="M194.300000,103C195.400000,105.100000,186.900000,108.300000,185.800000,106.600000C184.600000,105,193.300000,101,194.300000,103Z" fill="rgb(255,255,255)" stroke="none" stroke-width="1" stroke-miterlimit="1"/><path id="eKkthuEpLwb27" d="M203.500000,103.900000C203.500000,103.900000,232.300000,84.600000,259.300000,74.800000C259.400000,74.800000,228.200000,83,203.500000,103.900000Z" fill="rgb(72,58,53)" stroke="none" stroke-width="1" stroke-miterlimit="1"/><path id="eKkthuEpLwb28" d="M203.500000,108.800000C203.500000,108.800000,225.600000,102.600000,259.600000,98.500000C259.600000,98.500000,235.200000,97.500000,203.500000,108.800000Z" fill="rgb(72,58,53)" stroke="none" stroke-width="1" stroke-miterlimit="1"/><path id="eKkthuEpLwb29" d="M171.600000,122.200000C171.600000,122.200000,142.300000,146.100000,126,167.200000C126.100000,167.200000,144.100000,139.900000,171.600000,122.200000Z" fill="rgb(72,58,53)" stroke="none" stroke-width="1" stroke-miterlimit="1"/><path id="eKkthuEpLwb30" d="M169.300000,116.800000C169.300000,116.800000,122.500000,135.300000,97.200000,151.500000C97.200000,151.500000,123.200000,131.200000,169.300000,116.800000Z" fill="rgb(72,58,53)" stroke="none" stroke-width="1" stroke-miterlimit="1"/><path id="eKkthuEpLwb31" d="M125.500000,58C125.500000,58,127.400000,54.800000,128.800000,54C128.800000,54,126.900000,62.300000,132.800000,66C132.800000,66,128.200000,50.900000,142.100000,43.200000C142.100000,43.200000,133.200000,36.300000,126.800000,45.900000C126.800000,45.900000,130,44.700000,131.800000,45C131.700000,44.900000,125.100000,48.400000,125.500000,58Z" fill="rgb(72,58,53)" stroke="none" stroke-width="1" stroke-miterlimit="1"/><path id="eKkthuEpLwb32" d="M125,46.100000C117.100000,55.800000,124,67,124,67C119.900000,54.600000,125,46.100000,125,46.100000Z" fill="rgb(72,58,53)" stroke="none" stroke-width="1" stroke-miterlimit="1"/><path id="eKkthuEpLwb33" d="M161,102.500000C164.200000,102.700000,163.500000,86.300000,160.300000,86.300000C156.100000,86.300000,157.900000,102.300000,161,102.500000Z" fill="rgb(72,58,53)" stroke="none" stroke-width="1" stroke-miterlimit="1"/><path id="eKkthuEpLwb34" d="M190.600000,75.700000C188.400000,76,187.400000,79.100000,187.800000,84.400000C188.300000,90.700000,190.900000,99.300000,194.100000,99.200000C194.600000,99.200000,195.300000,98.900000,195.800000,97.900000C197.800000,94,196.100000,81.400000,193.100000,77.200000C192.400000,76,191.500000,75.500000,190.600000,75.700000Z" fill="rgb(121,189,40)" stroke="none" stroke-width="1" stroke-miterlimit="1"/><path id="eKkthuEpLwb35" d="M195,97.600000C194.600000,98.400000,194.200000,98.400100,194.100000,98.400100C192,98.500100,189.200000,91.200000,188.700000,84.200000C188.300000,79.600000,189.100000,76.700100,190.700000,76.400100C191.200000,76.300100,191.800000,76.700000,192.300000,77.500000C195.100000,81.500000,196.800000,94,195,97.600000Z" fill="rgb(121,189,40)" stroke="none" stroke-width="1" stroke-miterlimit="1"/><path id="eKkthuEpLwb36" d="M194,95.700000C196.200000,95.800000,195.300000,81.600000,192.100000,82.300000C189.400000,82.800000,191.700000,95.500000,194,95.700000Z" fill="rgb(72,58,53)" stroke="none" stroke-width="1" stroke-miterlimit="1"/><path id="eKkthuEpLwb37" d="M164.200000,85C163.500000,83.400000,162.800000,82,162,81C160.500000,79.100000,159.100000,78.900000,158.300000,79.100000C154.200000,79.800000,153.300000,87.200000,154.200000,93.800000C155.100000,100.500000,158,107.100000,162.400000,106.600000C163.400000,106.500000,164.800000,105.900000,165.700000,104C166.500000,97.100000,165.800000,90.600000,164.200000,85ZM162.200000,105.800000C158.800000,106.200000,156.100000,100,155.200000,93.700000C154.200000,86.500000,155.500000,80.500000,158.300000,80C159.200000,79.800000,160.100000,80.700000,160.700000,81.400000C164.200000,85.800000,166.900000,98.200000,164.600000,103.600000C164,105,163.200000,105.700000,162.200000,105.800000Z" fill="rgb(121,189,40)" stroke="none" stroke-width="1" stroke-miterlimit="1"/></g><g id="eKkthuEpLwb38"><path id="eKkthuEpLwb39" d="M146,165.600000C144.400000,165.300000,142.500000,165.300000,140.300000,165.600000C127.800000,167.500000,117.900000,182.400000,118.700000,200.400000C119,207.400000,119.700000,213.900000,120.400000,220.200000C120.900000,224.400000,121.500000,228.600000,121.900000,232.700000C121.900000,232.700000,122.400000,238.400000,121.600000,246.600000C120.900000,254.700000,121.900000,261.700000,124.900000,267.700000C124.900000,267.700000,127,271.100000,128.900000,271.900000C128.900000,271.900000,128.900000,267.700000,128.900000,266.700000C128.900000,266.700000,131.900000,272.700000,136.900000,274.700000C136.900000,274.700000,135.900000,272.700000,136.900000,270.700000C136.900000,270.700000,140.100000,274.700000,144.500000,274.700000C144.500000,274.700000,143.900000,271.700000,143.900000,270.700000C143.900000,270.700000,147.900000,273.700000,158.900000,268.700000C169.900000,263.700000,186.900000,253.700000,190.900000,251.700000C194.900000,249.700000,196.900000,245.700000,195.900000,243.700000C194.900000,241.700000,189.900000,237.700000,189.900000,233.700000C189.900000,229.700000,188.900000,226.700000,188.900000,226.700000C188.900000,226.700000,176.900000,223.700000,158.900000,222.700000C158.900000,222.700000,156.900000,206.700000,159.900000,202.700000" fill="rgb(72,58,53)" stroke="none" stroke-width="1" stroke-miterlimit="1"/><path id="eKkthuEpLwb40" d="M160,202.700000C160,202.700000,154.300000,210.900000,156.900000,222.800000C145.300000,223.600000,139.200000,233.500000,139.200000,233.500000C154.400000,221,157.400000,224,187.400000,228C188.300000,243.500000,197.400000,241,191.400000,249C166.400000,265,151.400000,272,141.400000,268C141,267.200000,140.600000,266.600000,140.200000,266.200000C140.200000,266.200000,140.800000,270.400000,141.900000,272.200000C141.900000,272.200000,138.500000,270,134.900000,266.800000L134.800000,266.600000L134.800000,266.700000C133.800000,265.900000,132.800000,264.900000,131.900000,264C131.900000,264,132.900000,266.200000,135,268.700000L135.100000,270.300000C135.100000,270.300000,128.400000,262.600000,126.500000,257.600000C126.500000,257.600000,126.700000,259.600000,127.800000,262.300000C127.800000,263.300000,127.800000,265.300000,127.900000,266.400000C125.800000,262.900000,124.800000,258.300000,124.800000,252.500000C124.800000,250.700000,124.900000,248.700000,125.100000,246.600000C125.300000,244.600000,125.400000,242.500000,125.400000,240.300000C125.400000,234.100000,124.700000,227.600000,123.900000,220.800000C123.200000,214.500000,122.500000,208.100000,122.200000,201.100000C122.200000,200.500000,122.200000,199.800000,122.200000,199.200000C122.200000,183.400000,130.500000,169.700000,141.200000,168C141.200000,168,150.500000,164.800000,164,173.100000" fill="rgb(164,168,171)" stroke="none" stroke-width="1" stroke-miterlimit="1"/></g><path id="eKkthuEpLwb41" display="none" d="M196.200000,208.200000C196.300000,208.100000,196.300000,207.900000,196.400000,207.800000C196.400000,207.800000,196.300000,207.900000,196.200000,208.200000Z" fill="rgb(0,0,0)" stroke="none" stroke-width="1" stroke-miterlimit="1"/><g id="eKkthuEpLwb42"><path id="eKkthuEpLwb43" d="M203,258.500000C212.200000,252.300000,225.700000,241.600000,229.300000,238.600000C235.400000,239.400000,243.100000,239.200000,251.100000,235.600000C268.500000,227.700000,268,208,267.700000,204.600000C270.600000,200.400000,272.700000,195.100000,272.100000,189C271.500000,183.300000,268.100000,178.700000,262.300000,177C260.200000,176.400000,258.200000,176,256.300000,175.900000C265.400000,167,276,155.300000,282.900000,142.800000L283,142.800000C284,142.400000,307.900000,132.800000,310.900000,131.400000C314.200000,129.800000,334.600000,96.500000,339.700000,81.300000C339.700000,81.300000,314.600000,82.400000,292.600000,76.300000C292.600000,76.300000,280.500000,105.100000,274.600000,112.900000L274.400000,113.100000L274.400000,113.400000C274.400000,113.600000,276.800000,135.900000,276.600000,140.100000L276.600000,140.700000L277.100000,140.900000C275,144.300000,264,161.200000,246.900000,177.200000C242.400000,178.700000,238.700000,181.200000,236.100000,183.500000C235,182.100000,226.600000,171.800000,213.300000,177.500000C209.400000,179.100000,206.600000,181.900000,204.600000,185C204.600000,185,199.400000,191.800000,197.800000,203.500000L169,210C169,210,167.200000,228.500000,172,241C177,254,184.100000,261.900000,192,264.400000C192,264.400000,195,264.900000,198,262.400000C201,259.900000,203,258.500000,203,258.500000ZM286,122.800000C286.500000,121.100000,296.700000,90.500000,297,89.500000C297.800000,89.500000,302.200000,89,303.800000,89C299.600000,99.900000,291.600000,119.500000,289.900000,122.900000C289.100000,122.900000,287,123,286,122.800000ZM303.100000,125.400000C302.600000,125.400000,300.400000,124.800000,299.200000,124.800000C299.900000,122.900000,310.600000,93.300000,311,92.200000C311.900000,92.300000,317.900000,93.200000,319.600000,93.400000C313.300000,105.600000,304.600000,123.500000,303.100000,125.400000Z" fill="rgb(72,58,53)" stroke="none" stroke-width="1" stroke-miterlimit="1"/><path id="eKkthuEpLwb44" d="M293.500000,77.800000C291.800000,82,281.900000,105.600000,276.200000,113.200000C276.400000,115.700000,278.200000,134.400000,278.200000,139.500000C279,139.800000,282.400000,141.300000,282.800000,141.500000C285.400000,140.400000,307.500000,130.900000,310.300000,129.600000C312.900000,128.400000,330.800000,98.900000,336.600000,83C331.900000,83.100000,312.700000,83,293.500000,77.800000ZM290.600000,124.600000L284.600000,123.900000L295.800000,88L305.500000,88L305.100000,89.100000C304.600000,90.400000,292.600000,121.500000,290.900000,124.200000L290.600000,124.600000ZM321.400000,93.100000C304.500000,126.300000,303.700000,126.400000,303.200000,126.500000L303.100000,126.500000L296.900000,126.300000L310.200000,91L322,92.100000L321.400000,93.100000Z" transform="matrix(1 0 0 1 0 -1.41336516999999)" fill="rgb(230,230,230)" stroke="none" stroke-width="1" stroke-miterlimit="1"/><path id="eKkthuEpLwb45" d="M278.500000,141.300000L281.500000,142.400000C278.400000,146.900000,257.900000,175.300000,236.600000,191C235.600000,190.900000,234.600000,190.800000,233.700000,190.700000C238.900000,186.700000,263.700000,167.100000,278.500000,141.300000Z" fill="rgb(240,128,0)" stroke="none" stroke-width="1" stroke-miterlimit="1"/><path id="eKkthuEpLwb46" d="M209.800000,206.600000C213.200000,208.200000,217.700000,210,223.200000,211.300000C223.400000,217.200000,224.500000,222.200000,225.800000,226C219.800000,225.500000,214,224.400000,208.800000,223.100000C208.600000,217.100000,209.100000,211.500000,209.800000,206.600000Z" fill="rgb(240,128,0)" stroke="none" stroke-width="1" stroke-miterlimit="1"/><path id="eKkthuEpLwb47" d="M210,205.300000C210.900000,199.700000,212.100000,194.900000,213.300000,191.300000C217.200000,193.300000,221.100000,194.700000,225,195.700000C223.800000,200.400000,223.300000,204.900000,223.200000,208.900000C219,208.100000,214.600000,206.900000,210,205.300000Z" fill="rgb(240,128,0)" stroke="none" stroke-width="1" stroke-miterlimit="1"/><path id="eKkthuEpLwb48" d="M224.700000,211.600000C229.700000,212.700000,235.400000,213.300000,241.700000,213.100000C242.300000,218.200000,243.400000,222.400000,244.600000,225.500000C238.600000,226.400000,232.600000,226.500000,226.800000,226.100000C225.400000,221,224.800000,216.100000,224.700000,211.600000Z" fill="rgb(240,128,0)" stroke="none" stroke-width="1" stroke-miterlimit="1"/><path id="eKkthuEpLwb49" d="M224.600000,209.200000C224.600000,204.200000,225.100000,199.600000,225.800000,195.900000C231.500000,197.300000,237,197.800000,242,197.800000C241.300000,202.600000,241.200000,207,241.500000,210.900000C236.500000,210.900000,230.800000,210.400000,224.600000,209.200000Z" fill="rgb(240,128,0)" stroke="none" stroke-width="1" stroke-miterlimit="1"/><path id="eKkthuEpLwb50" d="M243,192.300000C242.700000,193.600000,242.400000,194.900000,242.200000,196.200000C236.100000,196.100000,230.700000,195.400000,226,194.500000C226.300000,193.200000,226.600000,192,226.800000,190.900000C231.800000,194,238.300000,193.400000,243,192.300000Z" fill="rgb(240,128,0)" stroke="none" stroke-width="1" stroke-miterlimit="1"/><path id="eKkthuEpLwb51" d="M239,191C240.100000,190.100000,242.100000,188.500000,244.700000,186.400000C244.200000,188,243.800000,189.500000,243.400000,191C241.800000,191.100000,240.400000,191.100000,239,191Z" fill="rgb(240,128,0)" stroke="none" stroke-width="1" stroke-miterlimit="1"/><path id="eKkthuEpLwb52" d="M243.700000,197.800000C249.500000,197.600000,254.500000,196.700000,258.300000,195.800000C257.800000,201.100000,258,205.600000,258.500000,209.100000C254.700000,210,249.500000,210.800000,243.200000,210.900000C243,206,243.200000,201.600000,243.700000,197.800000Z" fill="rgb(240,128,0)" stroke="none" stroke-width="1" stroke-miterlimit="1"/><path id="eKkthuEpLwb53" d="M243.900000,196.200000C244.100000,194.700000,244.300000,193.200000,244.600000,191.900000C247.300000,191.200000,249.100000,190.400000,249.100000,190.400000C247.600000,190.600000,246.200000,190.700000,244.800000,190.800000C245.400000,188,245.900000,186,246.300000,185C247.100000,184.300000,248,183.500000,249,182.700000C250.800000,182.900000,255.600000,183.400000,260.900000,183.400000C259.600000,187.600000,258.900000,191.400000,258.500000,194.900000C253.200000,195.800000,248.400000,196.200000,243.900000,196.200000Z" fill="rgb(240,128,0)" stroke="none" stroke-width="1" stroke-miterlimit="1"/><path id="eKkthuEpLwb54" d="M214.300000,180.300000C226.900000,174.900000,234.700000,184.100000,235.100000,184.500000L235.300000,184.400000C233,186.600000,231.700000,188.300000,231.700000,188.300000C235.300000,184.800000,239.300000,182.400000,243.200000,180.800000C239.500000,184.100000,235.500000,187.300000,231.300000,190.300000C229.800000,190,228.500000,189.700000,227.500000,189.400000C228.400000,186.300000,229.100000,184.600000,229.100000,184.600000C228.300000,186.200000,227.700000,187.800000,227.100000,189.300000C225.200000,188.800000,224.300000,188.300000,224.300000,188.300000C225,189.200000,225.800000,189.900000,226.700000,190.500000C226.300000,191.800000,225.900000,193,225.500000,194.200000C220.500000,193.100000,216.500000,191.800000,213.600000,190.700000C215.100000,186,216.400000,183.300000,216.400000,183.300000C215,185.700000,213.900000,188,212.800000,190.400000C210,189.300000,208.500000,188.500000,208.500000,188.500000C209.900000,189.300000,211.300000,190.100000,212.600000,190.800000C210.600000,195.500000,209.200000,200.100000,208.400000,204.600000C206.600000,203.900000,204.700000,203.200000,202.900000,202.400000C202.900000,202.400000,204.800000,203.800000,208.300000,205.600000C207.200000,211.700000,207,217.400000,207.300000,222.500000C202.100000,221.100000,197.400000,219.500000,193.400000,217.900000C194.500000,212.500000,196,209.200000,196.500000,208.100000C194.800000,211.300000,193.600000,214.500000,192.700000,217.600000C189.100000,216.100000,186.100000,214.800000,184,213.700000C185.100000,211.200000,186,209.500000,186.400000,208.700000C191.300000,207.600000,196.600000,206.500000,200.900000,205.600000C200.500000,205.700000,201.600000,185.700000,214.300000,180.300000Z" fill="rgb(240,128,0)" stroke="none" stroke-width="1" stroke-miterlimit="1"/><path id="eKkthuEpLwb55" d="M192.800000,250.300000C193.900000,253.900000,195,256.100000,195,256.100000C194.500000,254.200000,194.100000,252.300000,193.700000,250.500000C198,251.300000,203.300000,251.600000,209.700000,250.800000C202.700000,256.400000,196.500000,261,194.700000,261.300000C193.500000,261.500000,190.100000,260.600000,186.100000,257.100000C180.600000,252.300000,171.500000,240.200000,171.500000,215.800000C171.500000,214.700000,171.500000,213.500000,171.600000,212.400000C173.200000,211.800000,178.400000,210.600000,184.400000,209.300000C183.600000,210.600000,182.900000,211.900000,182.200000,213.300000C180.700000,212.500000,179.900000,212.100000,179.900000,212.100000C180.600000,212.600000,181.400000,213,182.100000,213.500000C179.100000,219.800000,178.200000,226.100000,178.100000,230.900000C175.800000,229.700000,174.600000,228.900000,174.600000,228.900000C175.700000,230,176.900000,230.900000,178.100000,231.700000C178,236.500000,178.700000,239.700000,178.700000,239.700000C178.600000,237.100000,178.700000,234.600000,178.900000,232.300000C182.400000,234.500000,186.300000,235.800000,190.100000,236.600000C190.400000,241.500000,191.300000,245.800000,192.200000,249.100000C187.900000,248.300000,183.300000,246.800000,179.100000,244.400000C179.200000,244.100000,183.200000,248.300000,192.800000,250.300000Z" fill="rgb(240,128,0)" stroke="none" stroke-width="1" stroke-miterlimit="1"/><path id="eKkthuEpLwb56" d="M179.100000,231.100000C179.900000,224.100000,181.900000,218.200000,183.600000,214.100000C186.500000,215.800000,189.400000,217.400000,192.200000,218.700000C190.600000,224.400000,190.100000,229.900000,190.300000,234.700000C185.400000,233.700000,181.700000,232.300000,179.100000,231.100000Z" fill="rgb(240,128,0)" stroke="none" stroke-width="1" stroke-miterlimit="1"/><path id="eKkthuEpLwb57" d="M192.900000,219.100000C197.800000,221.400000,202.600000,223.200000,207.200000,224.400000C207.600000,229,208.300000,232.900000,209,236.100000C202.300000,236.500000,196.600000,235.900000,191.800000,235C191.600000,228.700000,192.100000,223.400000,192.900000,219.100000Z" fill="rgb(240,128,0)" stroke="none" stroke-width="1" stroke-miterlimit="1"/><path id="eKkthuEpLwb58" d="M249,233.100000C231.800000,240.900000,216.300000,234.800000,216.100000,234.700000C216.100000,234.700000,219.600000,236.600000,225.200000,237.900000C221.200000,241.300000,216.300000,245.400000,211.500000,249.200000C208.800000,249.600000,201.500000,250.300000,193.300000,248.900000C192.400000,244.500000,192,240.300000,191.800000,236.500000C198.700000,237.600000,205.300000,237,209,236.500000C210.200000,241.500000,211.500000,244.500000,211.500000,244.500000C210.800000,241.700000,210.300000,239,209.800000,236.300000C211.300000,236,212.200000,235.800000,212.200000,235.800000C211.400000,235.900000,210.500000,235.900000,209.700000,236C209.100000,232.100000,208.800000,228.400000,208.600000,224.800000C214.900000,226.400000,220.800000,227.200000,226.200000,227.400000C227.700000,231.500000,229.200000,233.700000,229.200000,233.700000C228.300000,231.600000,227.600000,229.500000,227,227.400000C233.900000,227.600000,239.900000,226.900000,244.600000,225.900000C245.900000,229.300000,247.100000,231.100000,247.100000,231.100000C246.400000,229.300000,245.800000,227.500000,245.300000,225.700000C252.500000,224.100000,256.600000,222.100000,256.600000,222.100000C252.800000,223.500000,249,224.400000,245.100000,225C244,220.800000,243.300000,216.600000,243,212.700000C247.800000,212.400000,252.900000,211.600000,258.400000,210.200000C258.600000,211.200000,258.800000,212,259,212.800000C257.600000,214.200000,256.600000,215,256.500000,215C256.500000,215,257.500000,214.400000,259.100000,213.200000C259.800000,215.800000,260.500000,217.300000,260.500000,217.300000C260.200000,215.800000,259.900000,214.300000,259.600000,212.800000C261.400000,211.400000,263.600000,209.300000,265.800000,206.600000C265.700000,212,263.500000,226.600000,249,233.100000Z" fill="rgb(240,128,0)" stroke="none" stroke-width="1" stroke-miterlimit="1"/><path id="eKkthuEpLwb59" d="M259.500000,210.200000C260.500000,209.900000,261.600000,209.600000,262.700000,209.200000C261.700000,210.500000,260.700000,211.600000,259.800000,212.500000C259.700000,211.700000,259.600000,210.900000,259.500000,210.200000Z" fill="rgb(240,128,0)" stroke="none" stroke-width="1" stroke-miterlimit="1"/><path id="eKkthuEpLwb60" d="M269.400000,189.800000C270.200000,196.800000,267.200000,203,264,207.500000C262.900000,207.900000,261.400000,208.400000,259.400000,208.800000C259,204,259,199.500000,259.300000,195.500000C263.300000,194.500000,265.700000,193.400000,265.700000,193.400000C263.500000,193.900000,261.400000,194.400000,259.300000,194.700000C259.700000,189.200000,260.500000,185,260.900000,183.300000C262.800000,183.300000,264.700000,183.200000,266.600000,183.100000C268.100000,185,269.100000,187.200000,269.400000,189.800000Z" fill="rgb(240,128,0)" stroke="none" stroke-width="1" stroke-miterlimit="1"/><path id="eKkthuEpLwb61" d="M261.200000,179.700000C263.100000,180.400000,264.700000,181.300000,265.900000,182.600000C261.900000,182.600000,253.300000,182.700000,249.500000,182.300000C250.800000,181.200000,252.100000,179.900000,253.500000,178.600000C256.300000,178.500000,259,178.900000,261.200000,179.700000Z" fill="rgb(240,128,0)" stroke="none" stroke-width="1" stroke-miterlimit="1"/><path id="eKkthuEpLwb62" d="M310.200000,91L297,126.300000L303.200000,126.500000L303.300000,126.500000C303.800000,126.400000,304.600000,126.300000,321.500000,93.100000L322,92.100000L310.200000,91ZM303.100000,125.400000C302.600000,125.400000,300.400000,124.800000,299.200000,124.800000C299.900000,122.900000,310.600000,93.300000,311,92.200000C311.900000,92.300000,317.900000,93.200000,319.600000,93.400000C313.300000,105.600000,304.600000,123.500000,303.100000,125.400000Z" fill="rgb(72,58,53)" stroke="none" stroke-width="1" stroke-miterlimit="1"/><path id="eKkthuEpLwb63" d="M295.800000,88L284.500000,123.900000L290.500000,124.600000L290.800000,124.200000C292.500000,121.500000,304.500000,90.400000,305,89.100000L305.400000,88L295.800000,88ZM289.800000,122.900000C289.200000,122.800000,287,122.900000,286,122.800000C286.500000,121.100000,296.700000,90.500000,297,89.500000C297.800000,89.500000,302.200000,89,303.800000,89C299.500000,99.900000,291.500000,119.500000,289.800000,122.900000Z" fill="rgb(72,58,53)" stroke="none" stroke-width="1" stroke-miterlimit="1"/></g></g><clipPath id="eKkthuEpLwb64" transform="matrix(1.08186075236749 0 0 0.99403722062811 -13.90814132759741 1.14753687192308)"><rect id="eKkthuEpLwb65" width="339.800000" height="384.900000" rx="0" ry="0" fill="rgb(255,255,255)" stroke="none" stroke-width="1" stroke-miterlimit="1"/></clipPath></g></g><script><![CDATA[!function(t,n){"object"==typeof exports&&"undefined"!=typeof module?module.exports=n():"function"==typeof define&&define.amd?define(n):(t="undefined"!=typeof globalThis?globalThis:t||self).__SVGATOR_PLAYER__=n()}(this,(function(){"use strict";function t(n){return(t="function"==typeof Symbol&&"symbol"==typeof Symbol.iterator?function(t){return typeof t}:function(t){return t&&"function"==typeof Symbol&&t.constructor===Symbol&&t!==Symbol.prototype?"symbol":typeof t})(n)}function n(t,n){if(!(t instanceof n))throw new TypeError("Cannot call a class as a function")}function r(t,n){for(var r=0;r<n.length;r++){var e=n[r];e.enumerable=e.enumerable||!1,e.configurable=!0,"value"in e&&(e.writable=!0),Object.defineProperty(t,e.key,e)}}function e(t,n,e){return n&&r(t.prototype,n),e&&r(t,e),t}function i(t){return(i=Object.setPrototypeOf?Object.getPrototypeOf:function(t){return t.__proto__||Object.getPrototypeOf(t)})(t)}function o(t,n){return(o=Object.setPrototypeOf||function(t,n){return t.__proto__=n,t})(t,n)}function u(t,n){return!n||"object"!=typeof n&&"function"!=typeof n?function(t){if(void 0===t)throw new ReferenceError("this hasn't been initialised - super() hasn't been called");return t}(t):n}function a(t){var n=function(){if("undefined"==typeof Reflect||!Reflect.construct)return!1;if(Reflect.construct.sham)return!1;if("function"==typeof Proxy)return!0;try{return Boolean.prototype.valueOf.call(Reflect.construct(Boolean,[],(function(){}))),!0}catch(t){return!1}}();return function(){var r,e=i(t);if(n){var o=i(this).constructor;r=Reflect.construct(e,arguments,o)}else r=e.apply(this,arguments);return u(this,r)}}function l(t,n,r){return(l="undefined"!=typeof Reflect&&Reflect.get?Reflect.get:function(t,n,r){var e=function(t,n){for(;!Object.prototype.hasOwnProperty.call(t,n)&&null!==(t=i(t)););return t}(t,n);if(e){var o=Object.getOwnPropertyDescriptor(e,n);return o.get?o.get.call(r):o.value}})(t,n,r||t)}var f=Math.abs;function s(t){return t}function c(t,n,r){var e=1-r;return 3*r*e*(t*e+n*r)+r*r*r}function h(){var t=arguments.length>0&&void 0!==arguments[0]?arguments[0]:0,n=arguments.length>1&&void 0!==arguments[1]?arguments[1]:0,r=arguments.length>2&&void 0!==arguments[2]?arguments[2]:1,e=arguments.length>3&&void 0!==arguments[3]?arguments[3]:1;return t<0||t>1||r<0||r>1?null:f(t-n)<=1e-5&&f(r-e)<=1e-5?s:function(i){if(i<=0)return t>0?i*n/t:0===n&&r>0?i*e/r:0;if(i>=1)return r<1?1+(i-1)*(e-1)/(r-1):1===r&&t<1?1+(i-1)*(n-1)/(t-1):1;for(var o,u=0,a=1;u<a;){var l=c(t,r,o=(u+a)/2);if(f(i-l)<1e-5)break;l<i?u=o:a=o}return c(n,e,o)}}function v(){return 1}function y(t){return 1===t?1:0}function d(){var t=arguments.length>0&&void 0!==arguments[0]?arguments[0]:1,n=arguments.length>1&&void 0!==arguments[1]?arguments[1]:0;if(1===t){if(0===n)return y;if(1===n)return v}var r=1/t;return function(t){return t>=1?1:(t+=n*r)-t%r}}function g(t){var n=arguments.length>1&&void 0!==arguments[1]?arguments[1]:2;if(Number.isInteger(t))return t;var r=Math.pow(10,n);return Math.round(t*r)/r}var p=Math.PI/180;function m(t,n,r){return t>=.5?r:n}function b(t,n,r){return 0===t||n===r?n:t*(r-n)+n}function w(t,n,r){var e=b(t,n,r);return e<=0?0:e}function x(t,n,r){return 0===t?n:1===t?r:{x:b(t,n.x,r.x),y:b(t,n.y,r.y)}}function k(t,n,r){var e=function(t,n,r){return Math.round(b(t,n,r))}(t,n,r);return e<=0?0:e>=255?255:e}function A(t,n,r){return 0===t?n:1===t?r:{r:k(t,n.r,r.r),g:k(t,n.g,r.g),b:k(t,n.b,r.b),a:b(t,null==n.a?1:n.a,null==r.a?1:r.a)}}function _(t,n,r){if(0===t)return n;if(1===t)return r;var e=n.length;if(e!==r.length)return m(t,n,r);for(var i=[],o=0;o<e;o++)i.push(A(t,n[o],r[o]));return i}function S(t,n){for(var r=[],e=0;e<t;e++)r.push(n);return r}function O(t,n){if(--n<=0)return t;var r=(t=Object.assign([],t)).length;do{for(var e=0;e<r;e++)t.push(t[e])}while(--n>0);return t}var M,j=function(){function t(r){n(this,t),this.list=r,this.length=r.length}return e(t,[{key:"setAttribute",value:function(t,n){for(var r=this.list,e=0;e<this.length;e++)r[e].setAttribute(t,n)}},{key:"removeAttribute",value:function(t){for(var n=this.list,r=0;r<this.length;r++)n[r].removeAttribute(t)}},{key:"style",value:function(t,n){for(var r=this.list,e=0;e<this.length;e++)r[e].style[t]=n}}]),t}(),F=/-./g,P=function(t,n){return n.toUpperCase()};function B(t){return"function"==typeof t?t:m}function I(t){return t?"function"==typeof t?t:Array.isArray(t)?function(t){var n=arguments.length>1&&void 0!==arguments[1]?arguments[1]:s;if(!Array.isArray(t))return n;switch(t.length){case 1:return d(t[0])||n;case 2:return d(t[0],t[1])||n;case 4:return h(t[0],t[1],t[2],t[3])||n}return n}(t,null):function(t,n){var r=arguments.length>2&&void 0!==arguments[2]?arguments[2]:s;switch(t){case"linear":return s;case"steps":return d(n.steps||1,n.jump||0)||r;case"bezier":case"cubic-bezier":return h(n.x1||0,n.y1||0,n.x2||0,n.y2||0)||r}return r}(t.type,t.value,null):null}function R(t,n,r){var e=arguments.length>3&&void 0!==arguments[3]&&arguments[3],i=n.length-1;if(t<=n[0].t)return e?[0,0,n[0].v]:n[0].v;if(t>=n[i].t)return e?[i,1,n[i].v]:n[i].v;var o,u=n[0],a=null;for(o=1;o<=i;o++){if(!(t>n[o].t)){a=n[o];break}u=n[o]}return null==a?e?[i,1,n[i].v]:n[i].v:u.t===a.t?e?[o,1,a.v]:a.v:(t=(t-u.t)/(a.t-u.t),u.e&&(t=u.e(t)),e?[o,t,r(t,u.v,a.v)]:r(t,u.v,a.v))}function q(t,n){var r=arguments.length>2&&void 0!==arguments[2]?arguments[2]:null;return t&&t.length?"function"!=typeof n?null:("function"!=typeof r&&(r=null),function(e){var i=R(e,t,n);return null!=i&&r&&(i=r(i)),i}):null}function E(t,n){return t.t-n.t}function T(n,r,e,i,o){var u,a="@"===e[0],l="#"===e[0],f=M[e],s=m;switch(a?(u=e.substr(1),e=u.replace(F,P)):l&&(e=e.substr(1)),t(f)){case"function":if(s=f(i,o,R,I,e,a,r,n),l)return s;break;case"string":s=q(i,B(f));break;case"object":if((s=q(i,B(f.i),f.f))&&"function"==typeof f.u)return f.u(r,s,e,a,n)}return s?function(t,n,r){var e=arguments.length>3&&void 0!==arguments[3]&&arguments[3];if(e)return t instanceof j?function(e){return t.style(n,r(e))}:function(e){return t.style[n]=r(e)};if(Array.isArray(n)){var i=n.length;return function(e){var o=r(e);if(null==o)for(var u=0;u<i;u++)t[u].removeAttribute(n);else for(var a=0;a<i;a++)t[a].setAttribute(n,o)}}return function(e){var i=r(e);null==i?t.removeAttribute(n):t.setAttribute(n,i)}}(r,e,s,a):null}function N(n,r,e,i){if(!i||"object"!==t(i))return null;var o=null,u=null;return Array.isArray(i)?u=function(t){if(!t||!t.length)return null;for(var n=0;n<t.length;n++)t[n].e&&(t[n].e=I(t[n].e));return t.sort(E)}(i):(u=i.keys,o=i.data||null),u?T(n,r,e,u,o):null}function C(t,n,r){if(!r)return null;var e=[];for(var i in r)if(r.hasOwnProperty(i)){var o=N(t,n,i,r[i]);o&&e.push(o)}return e.length?e:null}function z(t,n){if(!n.duration||n.duration<0)return null;var r=function(t,n){if(!n)return null;var r=[];if(Array.isArray(n))for(var e=n.length,i=0;i<e;i++){var o=n[i];if(2===o.length){var u=null;if("string"==typeof o[0])u=t.getElementById(o[0]);else if(Array.isArray(o[0])){u=[];for(var a=0;a<o[0].length;a++)if("string"==typeof o[0][a]){var l=t.getElementById(o[0][a]);l&&u.push(l)}u=u.length?1===u.length?u[0]:new j(u):null}if(u){var f=C(t,u,o[1]);f&&(r=r.concat(f))}}}else for(var s in n)if(n.hasOwnProperty(s)){var c=t.getElementById(s);if(c){var h=C(t,c,n[s]);h&&(r=r.concat(h))}}return r.length?r:null}(t,n.elements);return r?function(t,n){var r=arguments.length>2&&void 0!==arguments[2]?arguments[2]:1/0,e=arguments.length>3&&void 0!==arguments[3]?arguments[3]:1,i=arguments.length>4&&void 0!==arguments[4]&&arguments[4],o=arguments.length>5&&void 0!==arguments[5]?arguments[5]:1,u=t.length,a=e>0?n:0;i&&r%2==0&&(a=n-a);var l=null;return function(f,s){var c=f%n,h=1+(f-c)/n;s*=e,i&&h%2==0&&(s=-s);var v=!1;if(h>r)c=a,v=!0,-1===o&&(c=e>0?0:n);else if(s<0&&(c=n-c),c===l)return!1;l=c;for(var y=0;y<u;y++)t[y](c);return v}}(r,n.duration,n.iterations||1/0,n.direction||1,!!n.alternate,n.fill||1):null}var L=function(){function t(r,e){var i=arguments.length>2&&void 0!==arguments[2]?arguments[2]:{};n(this,t),this._id=0,this._running=!1,this._rollingBack=!1,this._animations=r,this.duration=e.duration,this.alternate=e.alternate,this.fill=e.fill,this.iterations=e.iterations,this.direction=i.direction||1,this.speed=i.speed||1,this.fps=i.fps||100,this.offset=i.offset||0,this.rollbackStartOffset=0}return e(t,[{key:"_rollback",value:function(){var t=this,n=1/0,r=null;this.rollbackStartOffset=this.offset,this._rollingBack||(this._rollingBack=!0,this._running=!0);this._id=window.requestAnimationFrame((function e(i){if(t._rollingBack){null==r&&(r=i);var o=i-r,u=t.rollbackStartOffset-o,a=Math.round(u*t.speed);if(a>t.duration&&n!=1/0){var l=!!t.alternate&&a/t.duration%2>1,f=a%t.duration;a=(f+=l?t.duration:0)||t.duration}var s=t.fps?1e3/t.fps:0,c=Math.max(0,a);if(c<n-s){t.offset=c,n=c;for(var h=t._animations,v=h.length,y=0;y<v;y++)h[y](c,t.direction)}var d=!1;if(t.iterations>0&&-1===t.fill){var g=t.iterations*t.duration,p=g==a;a=p?0:a,t.offset=p?0:t.offset,d=a>g}a>0&&t.offset>=a&&!d?t._id=window.requestAnimationFrame(e):t.stop()}}))}},{key:"_start",value:function(){var t=this,n=arguments.length>0&&void 0!==arguments[0]?arguments[0]:0,r=-1/0,e=null,i={},o=function o(u){t._running=!0,null==e&&(e=u);var a=Math.round((u-e+n)*t.speed),l=t.fps?1e3/t.fps:0;if(a>r+l&&!t._rollingBack){t.offset=a,r=a;for(var f=t._animations,s=f.length,c=0,h=0;h<s;h++)i[h]?c++:(i[h]=f[h](a,t.direction),i[h]&&c++);if(c===s)return void t._stop()}t._id=window.requestAnimationFrame(o)};this._id=window.requestAnimationFrame(o)}},{key:"_stop",value:function(){this._id&&window.cancelAnimationFrame(this._id),this._running=!1,this._rollingBack=!1}},{key:"play",value:function(){!this._rollingBack&&this._running||(this._rollingBack=!1,this.rollbackStartOffset>this.duration&&(this.offset=this.rollbackStartOffset-(this.rollbackStartOffset-this.offset)%this.duration,this.rollbackStartOffset=0),this._start(this.offset))}},{key:"stop",value:function(){this._stop(),this.offset=0,this.rollbackStartOffset=0;var t=this.direction,n=this._animations;window.requestAnimationFrame((function(){for(var r=0;r<n.length;r++)n[r](0,t)}))}},{key:"reachedToEnd",value:function(){return this.iterations>0&&this.offset>=this.iterations*this.duration}},{key:"restart",value:function(){this._stop(),this.offset=0,this._start()}},{key:"pause",value:function(){this._stop()}},{key:"reverse",value:function(){this.direction=-this.direction}}],[{key:"build",value:function(n,r){return(n=function(t,n){if(M=n,!t||!t.root||!Array.isArray(t.animations))return null;for(var r=document.getElementsByTagName("svg"),e=!1,i=0;i<r.length;i++)if(r[i].id===t.root&&!r[i].svgatorAnimation){(e=r[i]).svgatorAnimation=!0;break}if(!e)return null;var o=t.animations.map((function(t){return z(e,t)})).filter((function(t){return!!t}));return o.length?{element:e,animations:o,animationSettings:t.animationSettings,options:t.options||void 0}:null}(n,r))?{el:n.element,options:n.options||{},player:new t(n.animations,n.animationSettings,n.options)}:null}}]),t}();!function(){for(var t=0,n=["ms","moz","webkit","o"],r=0;r<n.length&&!window.requestAnimationFrame;++r)window.requestAnimationFrame=window[n[r]+"RequestAnimationFrame"],window.cancelAnimationFrame=window[n[r]+"CancelAnimationFrame"]||window[n[r]+"CancelRequestAnimationFrame"];window.requestAnimationFrame||(window.requestAnimationFrame=function(n){var r=Date.now(),e=Math.max(0,16-(r-t)),i=window.setTimeout((function(){n(r+e)}),e);return t=r+e,i},window.cancelAnimationFrame=window.clearTimeout)}();var D=/\.0+$/g;function Q(t){return Number.isInteger(t)?t+"":t.toFixed(6).replace(D,"")}function U(t){var n=arguments.length>1&&void 0!==arguments[1]?arguments[1]:" ";return t&&t.length?t.map(Q).join(n):""}function V(t){return t?null==t.a||t.a>=1?"rgb("+t.r+","+t.g+","+t.b+")":"rgba("+t.r+","+t.g+","+t.b+","+t.a+")":"transparent"}var $={f:null,i:function(t,n,r){return 0===t?n:1===t?r:{x:w(t,n.x,r.x),y:w(t,n.y,r.y)}},u:function(t,n){return function(r){var e=n(r);t.setAttribute("rx",Q(e.x)),t.setAttribute("ry",Q(e.y))}}},G={f:null,i:function(t,n,r){return 0===t?n:1===t?r:{width:w(t,n.width,r.width),height:w(t,n.height,r.height)}},u:function(t,n){return function(r){var e=n(r);t.setAttribute("width",Q(e.width)),t.setAttribute("height",Q(e.height))}}},H=Math.sin,Y=Math.cos,Z=Math.acos,J=Math.asin,K=Math.tan,W=Math.atan2,X=Math.PI/180,tt=180/Math.PI,nt=Math.sqrt,rt=function(){function t(){var r=arguments.length>0&&void 0!==arguments[0]?arguments[0]:1,e=arguments.length>1&&void 0!==arguments[1]?arguments[1]:0,i=arguments.length>2&&void 0!==arguments[2]?arguments[2]:0,o=arguments.length>3&&void 0!==arguments[3]?arguments[3]:1,u=arguments.length>4&&void 0!==arguments[4]?arguments[4]:0,a=arguments.length>5&&void 0!==arguments[5]?arguments[5]:0;n(this,t),this.m=[r,e,i,o,u,a],this.i=null,this.w=null,this.s=null}return e(t,[{key:"determinant",get:function(){var t=this.m;return t[0]*t[3]-t[1]*t[2]}},{key:"isIdentity",get:function(){if(null===this.i){var t=this.m;this.i=1===t[0]&&0===t[1]&&0===t[2]&&1===t[3]&&0===t[4]&&0===t[5]}return this.i}},{key:"point",value:function(t,n){var r=this.m;return{x:r[0]*t+r[2]*n+r[4],y:r[1]*t+r[3]*n+r[5]}}},{key:"translateSelf",value:function(){var t=arguments.length>0&&void 0!==arguments[0]?arguments[0]:0,n=arguments.length>1&&void 0!==arguments[1]?arguments[1]:0;if(!t&&!n)return this;var r=this.m;return r[4]+=r[0]*t+r[2]*n,r[5]+=r[1]*t+r[3]*n,this.w=this.s=this.i=null,this}},{key:"rotateSelf",value:function(){var t=arguments.length>0&&void 0!==arguments[0]?arguments[0]:0;if(t%=360){var n=H(t*=X),r=Y(t),e=this.m,i=e[0],o=e[1];e[0]=i*r+e[2]*n,e[1]=o*r+e[3]*n,e[2]=e[2]*r-i*n,e[3]=e[3]*r-o*n,this.w=this.s=this.i=null}return this}},{key:"scaleSelf",value:function(){var t=arguments.length>0&&void 0!==arguments[0]?arguments[0]:1,n=arguments.length>1&&void 0!==arguments[1]?arguments[1]:1;if(1!==t||1!==n){var r=this.m;r[0]*=t,r[1]*=t,r[2]*=n,r[3]*=n,this.w=this.s=this.i=null}return this}},{key:"skewSelf",value:function(t,n){if(n%=360,(t%=360)||n){var r=this.m,e=r[0],i=r[1],o=r[2],u=r[3];t&&(t=K(t*X),r[2]+=e*t,r[3]+=i*t),n&&(n=K(n*X),r[0]+=o*n,r[1]+=u*n),this.w=this.s=this.i=null}return this}},{key:"resetSelf",value:function(){var t=arguments.length>0&&void 0!==arguments[0]?arguments[0]:1,n=arguments.length>1&&void 0!==arguments[1]?arguments[1]:0,r=arguments.length>2&&void 0!==arguments[2]?arguments[2]:0,e=arguments.length>3&&void 0!==arguments[3]?arguments[3]:1,i=arguments.length>4&&void 0!==arguments[4]?arguments[4]:0,o=arguments.length>5&&void 0!==arguments[5]?arguments[5]:0,u=this.m;return u[0]=t,u[1]=n,u[2]=r,u[3]=e,u[4]=i,u[5]=o,this.w=this.s=this.i=null,this}},{key:"recomposeSelf",value:function(){var t=arguments.length>0&&void 0!==arguments[0]?arguments[0]:null,n=arguments.length>1&&void 0!==arguments[1]?arguments[1]:null,r=arguments.length>2&&void 0!==arguments[2]?arguments[2]:null,e=arguments.length>3&&void 0!==arguments[3]?arguments[3]:null,i=arguments.length>4&&void 0!==arguments[4]?arguments[4]:null;return this.isIdentity||this.resetSelf(),t&&(t.x||t.y)&&this.translateSelf(t.x,t.y),n&&this.rotateSelf(n),r&&(r.x&&this.skewSelf(r.x,0),r.y&&this.skewSelf(0,r.y)),!e||1===e.x&&1===e.y||this.scaleSelf(e.x,e.y),i&&(i.x||i.y)&&this.translateSelf(i.x,i.y),this}},{key:"decompose",value:function(){var t=arguments.length>0&&void 0!==arguments[0]?arguments[0]:0,n=arguments.length>1&&void 0!==arguments[1]?arguments[1]:0,r=this.m,e=r[0]*r[0]+r[1]*r[1],i=[[r[0],r[1]],[r[2],r[3]]],o=nt(e);if(0===o)return{origin:{x:r[4],y:r[5]},translate:{x:t,y:n},scale:{x:0,y:0},skew:{x:0,y:0},rotate:0};i[0][0]/=o,i[0][1]/=o;var u=r[0]*r[3]-r[1]*r[2]<0;u&&(o=-o);var a=i[0][0]*i[1][0]+i[0][1]*i[1][1];i[1][0]-=i[0][0]*a,i[1][1]-=i[0][1]*a;var l=nt(i[1][0]*i[1][0]+i[1][1]*i[1][1]);if(0===l)return{origin:{x:r[4],y:r[5]},translate:{x:t,y:n},scale:{x:o,y:0},skew:{x:0,y:0},rotate:0};i[1][0]/=l,i[1][1]/=l,a/=l;var f=0;return i[1][1]<0?(f=Z(i[1][1])*tt,i[0][1]<0&&(f=360-f)):f=J(i[0][1])*tt,u&&(f=-f),a=W(a,nt(i[0][0]*i[0][0]+i[0][1]*i[0][1]))*tt,u&&(a=-a),{origin:{x:r[4],y:r[5]},translate:{x:t,y:n},scale:{x:o,y:l},skew:{x:a,y:0},rotate:f}}},{key:"toString",value:function(){return null===this.s&&(this.s="matrix("+this.m.map(it).join(" ")+")"),this.s}}]),t}(),et=/\.0+$/;function it(t){return Number.isInteger(t)?t:t.toFixed(14).replace(et,"")}Object.freeze({M:2,L:2,Z:0,H:1,V:1,C:6,Q:4,T:2,S:4,A:7});var ot={},ut=null;function at(n){var r=function(){if(ut)return ut;if("object"!==("undefined"==typeof document?"undefined":t(document)))return{};var n=document.createElementNS("http://www.w3.org/2000/svg","svg");return n.style.position="absolute",n.style.opacity="0.01",n.style.zIndex="-9999",n.style.left="-9999px",n.style.width="1px",n.style.height="1px",ut={svg:n}}().svg;if(!r)return function(t){return null};var e=document.createElementNS(r.namespaceURI,"path");e.setAttributeNS(null,"d",n),e.setAttributeNS(null,"fill","none"),e.setAttributeNS(null,"stroke","none"),r.appendChild(e);var i=e.getTotalLength();return function(t){var n=e.getPointAtLength(i*t);return{x:n.x,y:n.y}}}function lt(t){return ot[t]?ot[t]:ot[t]=at(t)}function ft(t,n,r,e){if(!t||!e)return!1;var i=["M",t.x,t.y];if(n&&r&&(i.push("C"),i.push(n.x),i.push(n.y),i.push(r.x),i.push(r.y)),n?!r:r){var o=n||r;i.push("Q"),i.push(o.x),i.push(o.y)}return n||r||i.push("L"),i.push(e.x),i.push(e.y),i.join(" ")}function st(t,n,r,e){var i=arguments.length>4&&void 0!==arguments[4]?arguments[4]:1,o=ft(t,n,r,e),u=lt(o);try{return u(i)}catch(t){return null}}function ct(t,n,r,e){var i=1-e;return i*i*t+2*i*e*n+e*e*r}function ht(t,n,r,e){return 2*(1-e)*(n-t)+2*e*(r-n)}function vt(t,n,r,e){var i=arguments.length>4&&void 0!==arguments[4]&&arguments[4],o=st(t,n,null,r,e);return o||(o={x:ct(t.x,n.x,r.x,e),y:ct(t.y,n.y,r.y,e)}),i&&(o.a=yt(t,n,r,e)),o}function yt(t,n,r,e){return Math.atan2(ht(t.y,n.y,r.y,e),ht(t.x,n.x,r.x,e))}function dt(t,n,r,e,i){var o=i*i;return i*o*(e-t+3*(n-r))+3*o*(t+r-2*n)+3*i*(n-t)+t}function gt(t,n,r,e,i){var o=1-i;return 3*(o*o*(n-t)+2*o*i*(r-n)+i*i*(e-r))}function pt(t,n,r,e,i){var o=arguments.length>5&&void 0!==arguments[5]&&arguments[5],u=st(t,n,r,e,i);return u||(u={x:dt(t.x,n.x,r.x,e.x,i),y:dt(t.y,n.y,r.y,e.y,i)}),o&&(u.a=mt(t,n,r,e,i)),u}function mt(t,n,r,e,i){return Math.atan2(gt(t.y,n.y,r.y,e.y,i),gt(t.x,n.x,r.x,e.x,i))}function bt(t,n,r){return t+(n-t)*r}function wt(t,n,r){var e=arguments.length>3&&void 0!==arguments[3]&&arguments[3],i={x:bt(t.x,n.x,r),y:bt(t.y,n.y,r)};return e&&(i.a=xt(t,n)),i}function xt(t,n){return Math.atan2(n.y-t.y,n.x-t.x)}function kt(t,n,r){var e=arguments.length>3&&void 0!==arguments[3]&&arguments[3];if(_t(n)){if(St(r))return vt(n,r.start,r,t,e)}else if(_t(r)){if(n.end)return vt(n,n.end,r,t,e)}else{if(n.end)return r.start?pt(n,n.end,r.start,r,t,e):vt(n,n.end,r,t,e);if(r.start)return vt(n,r.start,r,t,e)}return wt(n,r,t,e)}function At(t,n,r){var e=kt(t,n,r,!0);return e.a=function(t){var n=arguments.length>1&&void 0!==arguments[1]&&arguments[1];return n?t+Math.PI:t}(e.a)/p,e}function _t(t){return!t.type||"corner"===t.type}function St(t){return null!=t.start&&!_t(t)}var Ot=new rt;var Mt={f:Q,i:b},jt={f:Q,i:function(t,n,r){var e=b(t,n,r);return e<=0?0:e>=1?1:e}};function Ft(t,n,r,e,i,o,u,a){return n=function(t,n,r){for(var e,i,o,u=t.length-1,a={},l=0;l<=u;l++)(e=t[l]).e&&(e.e=n(e.e)),e.v&&"g"===(i=e.v).t&&i.r&&(o=r.getElementById(i.r))&&(a[i.r]=o.querySelectorAll("stop"));return a}(t,e,a),function(e){var i,o=r(e,t,Pt);return o?"c"===o.t?V(o.v):"g"===o.t?(n[o.r]&&function(t,n){for(var r=0,e=t.length;r<e;r++)t[r].setAttribute("stop-color",V(n[r]))}(n[o.r],o.v),(i=o.r)?"url(#"+i+")":"none"):"none":"none"}}function Pt(t,n,r){if(0===t)return n;if(1===t)return r;if(n&&r){var e=n.t;if(e===r.t)switch(n.t){case"c":return{t:e,v:A(t,n.v,r.v)};case"g":if(n.r===r.r)return{t:e,v:_(t,n.v,r.v),r:n.r}}}return m(t,n,r)}var Bt={fill:Ft,"fill-opacity":jt,stroke:Ft,"stroke-opacity":jt,"stroke-width":Mt,"stroke-dashoffset":{f:Q,i:b},"stroke-dasharray":{f:function(t){var n=arguments.length>1&&void 0!==arguments[1]?arguments[1]:" ";return t&&t.length>0&&(t=t.map((function(t){return Math.floor(1e4*t)/1e4}))),U(t,n)},i:function(t,n,r){var e,i,o,u=n.length,a=r.length;if(u!==a)if(0===u)n=S(u=a,0);else if(0===a)a=u,r=S(u,0);else{var l=(o=(e=u)*(i=a)/function(t,n){for(var r;n;)r=n,n=t%n,t=r;return t||1}(e,i))<0?-o:o;n=O(n,Math.floor(l/u)),r=O(r,Math.floor(l/a)),u=a=l}for(var f=[],s=0;s<u;s++)f.push(g(w(t,n[s],r[s]),6));return f}},opacity:jt,transform:function(n,r,e,i){if(!(n=function(n,r){if(!n||"object"!==t(n))return null;var e=!1;for(var i in n)n.hasOwnProperty(i)&&(n[i]&&n[i].length?(n[i].forEach((function(t){t.e&&(t.e=r(t.e))})),e=!0):delete n[i]);return e?n:null}(n,i)))return null;var o=function(t,i,o){var u=arguments.length>3&&void 0!==arguments[3]?arguments[3]:null;return n[t]?e(i,n[t],o):r&&r[t]?r[t]:u};return r&&r.a&&n.o?function(t){var r=e(t,n.o,At);return Ot.recomposeSelf(r,o("r",t,b,0)+r.a,o("k",t,x),o("s",t,x),o("t",t,x)).toString()}:function(t){return Ot.recomposeSelf(o("o",t,kt,null),o("r",t,b,0),o("k",t,x),o("s",t,x),o("t",t,x)).toString()}},r:Mt,"#size":G,"#radius":$,_:function(t,n){if(Array.isArray(t))for(var r=0;r<t.length;r++)this[t[r]]=n;else this[t]=n}};return function(t){!function(t,n){if("function"!=typeof n&&null!==n)throw new TypeError("Super expression must either be null or a function");t.prototype=Object.create(n&&n.prototype,{constructor:{value:t,writable:!0,configurable:!0}}),n&&o(t,n)}(u,t);var r=a(u);function u(){return n(this,u),r.apply(this,arguments)}return e(u,null,[{key:"build",value:function(t){var n=l(i(u),"build",this).call(this,t,Bt);n.el,n.options;var r=n.player;return function(t,n,r){t.play()}(r),r}}]),u}(L)}));
__SVGATOR_PLAYER__.build({"root":"eKkthuEpLwb1","animations":[{"duration":6000,"direction":1,"iterations":0,"fill":1,"alternate":false,"speed":1,"elements":{"eKkthuEpLwb2":{"transform":{"data":{"o":{"x":172.98146943,"y":373.350983,"type":"corner"},"t":{"x":-172.98146943,"y":-373.350983}},"keys":{"s":[{"t":4790,"v":{"x":1,"y":1}},{"t":4890,"v":{"x":1,"y":0.993992674838695}},{"t":5090,"v":{"x":1,"y":1}},{"t":5190,"v":{"x":1,"y":0.9877802214875704}},{"t":5290,"v":{"x":1,"y":1}},{"t":5390,"v":{"x":1,"y":0.9877507319811042}},{"t":5490,"v":{"x":1,"y":1}},{"t":5590,"v":{"x":1,"y":0.9877802214875704}},{"t":5690,"v":{"x":1,"y":1}},{"t":5790,"v":{"x":1,"y":0.9877507319811042}},{"t":5890,"v":{"x":1,"y":1}}]}}},"eKkthuEpLwb5":{"transform":{"data":{"o":{"x":129.700012145,"y":192.507263185,"type":"corner"},"t":{"x":-129.700012145,"y":-192.507263185}},"keys":{"r":[{"t":3710,"v":0},{"t":3910,"v":0.5286237242686789},{"t":4110,"v":0},{"t":4300,"v":0.12254993964708877},{"t":4310,"v":0.5286237242686789},{"t":4500,"v":0}],"s":[{"t":3710,"v":{"x":1,"y":1}},{"t":3910,"v":{"x":1,"y":0.9940390006729357}},{"t":4110,"v":{"x":1,"y":1}},{"t":4310,"v":{"x":1,"y":0.9940390006729357}},{"t":4500,"v":{"x":1,"y":1}}]}}},"eKkthuEpLwb38":{"transform":{"data":{"t":{"x":-157.40475463500002,"y":-220.037506105}},"keys":{"o":[{"t":3710,"v":{"x":157.40475463500002,"y":220.037506105,"type":"corner"}},{"t":3910,"v":{"x":155.40475463500002,"y":220.037506105,"type":"corner"}},{"t":4110,"v":{"x":157.40475463500002,"y":220.037506105,"type":"corner"}},{"t":4310,"v":{"x":155.40475463500002,"y":220.037506105,"type":"corner"}},{"t":4510,"v":{"x":157.40475463500002,"y":220.037506105,"type":"corner"}}],"r":[{"t":3710,"v":0},{"t":3910,"v":5.862440669565444},{"t":4110,"v":0},{"t":4300,"v":3.766964192310448},{"t":4310,"v":5.862440669565444},{"t":4510,"v":0}]}}},"eKkthuEpLwb42":{"transform":{"data":{"t":{"x":-254.184700015,"y":-170.370399475}},"keys":{"o":[{"t":3710,"v":{"x":254.184700015,"y":170.370399475,"type":"corner"}},{"t":3910,"v":{"x":254.184700015,"y":181.370399475,"type":"corner"}},{"t":4110,"v":{"x":254.184700015,"y":170.370399475,"type":"corner"}},{"t":4310,"v":{"x":254.184700015,"y":179.370399475,"type":"corner"}},{"t":4510,"v":{"x":254.184700015,"y":170.370399475,"type":"corner"}}],"r":[{"t":3710,"v":0},{"t":3910,"v":5.947882137895717},{"t":4110,"v":0},{"t":4310,"v":3.9461378996390533},{"t":4510,"v":0}]}}}}}],"options":{"start":"load","hover":"freeze","click":"freeze","scroll":25,"font":"embed","exportedIds":"unique","svgFormat":"animated","title":"header-Tom"},"animationSettings":{"duration":6000,"direction":1,"iterations":0,"fill":1,"alternate":false,"speed":1}})]]></script></svg>