<svg id="圖層_1" data-name="圖層 1" xmlns="http://www.w3.org/2000/svg" viewBox="0 0 633.38 136.38"><defs><style>.cls-1{fill:#fff;}.cls-2{fill:#0c0103;}.cls-3{fill:#e1002a;}.cls-4{fill:#fffbc7;}</style></defs><path class="cls-1" d="M1252.37,312.82a3.51,3.51,0,0,1-1.8-.5,3.47,3.47,0,0,1-1.54.38l-2.13,0a3.51,3.51,0,0,1-3.49-4l1.72-11.17a3.49,3.49,0,0,1,3.43-3l1.51,0a3.6,3.6,0,0,1,2.63,1.16,3.48,3.48,0,0,1,2.6-1.2l1.53,0a3.53,3.53,0,0,1,3.49,3l1.72,11.14a3.51,3.51,0,0,1-3.43,4l-2.13,0a3.86,3.86,0,0,1-1.54-.34,3.53,3.53,0,0,1-1.81.52h-.76Z" transform="translate(-643.51 -183.28)"/><path class="cls-1" d="M1111.7,319.66a9.06,9.06,0,0,1-8.19-5.15l-2-4.11a9.53,9.53,0,0,1-4.72,2.81,9,9,0,0,1-9.77,6l-28.45-3.92a9.08,9.08,0,0,1-5.42-2.85l-21.1,4.31a9.12,9.12,0,0,1-6.89-1.39,9,9,0,0,1-3.8-5.94l-2-11.71c-.53.67-1.06,1.32-1.61,1.94a31.55,31.55,0,0,1-5.89,5.15c-.23.28-.47.56-.71.83-5.45,6.09-12.09,9.29-19.74,9.48-27.09.67-39.73-17-42.64-26.39a9,9,0,0,1,3.19-9.87l2.54-1.92a9.46,9.46,0,0,1,3.36-4.82l17.75-13.42a9.53,9.53,0,0,1,7.78-1.71c.08-2.54.12-5,.15-7,.14-10.92-.49-24.67-.87-31.89l-.13-2.4c-.22-3.74-.33-5.54-.36-5.9,0,0,0-.11,0-.17a9,9,0,0,1,5.93-9.09,9.44,9.44,0,0,1,7.23-7.16l27.06-6a9.51,9.51,0,0,1,7.71,1.62,9.68,9.68,0,0,1,2.82,3.29L1063,185a9.53,9.53,0,0,1,11.25,6.15c.28-.13.56-.25.85-.36a9.49,9.49,0,0,1,8.83-7.37c4.49-.22,23.88.69,41.41,8.62a9.4,9.4,0,0,1,4.08-3.06c13.13-5.15,40.2-8,59.28,1.86q1.53.8,3,1.68l10.68-7.54a9.56,9.56,0,0,1,13.25,2.23l12.84,17.89L1242.25,190a9.54,9.54,0,0,1,13.77-.36l18,17.87h0a9.54,9.54,0,0,1,.06,13.5L1247,248.36l-3.54,46.53,2.67,0a3.54,3.54,0,0,1,3.53,3.47l0,1.84a3.51,3.51,0,0,1-2.16,3.26l0,5.78a3.5,3.5,0,0,1-3.47,3.53l-2.12,0h0a3.5,3.5,0,0,1-3.5-3.47v-.89a9.5,9.5,0,0,1-2.64,1.12,9.09,9.09,0,0,1-9.13,6.08l-23.38-1.53a9,9,0,0,1-7.31-4.67,9.13,9.13,0,0,1-6,1.77,9,9,0,0,1-6.21-3.13l-2.54-3a9.31,9.31,0,0,1-3.43,1.64,9,9,0,0,1-6.58,5.88l-23.32,5.11a9,9,0,0,1-10.81-7.2l-.21-1.12-21.59,9.5A8.79,8.79,0,0,1,1111.7,319.66Zm-10.54-21.78a3.5,3.5,0,0,1,3.16,2l5.52,11.63a2,2,0,0,0,2.64,1l21.71-9.56a2,2,0,0,0,1.15-1.64,3.5,3.5,0,0,1,2.07-2.81l.2-.09a3.5,3.5,0,0,1,4.85,2.57l1.52,8.29a2,2,0,0,0,2.44,1.62l23.31-5.11a2,2,0,0,0,1.57-2,3.51,3.51,0,0,1,2.75-3.41l2-.43a2.52,2.52,0,0,0,1.81-1.6,3.51,3.51,0,0,1,5.93-1l5.3,6.16a2,2,0,0,0,2.85.22l4.3-3.73a3.5,3.5,0,0,1,5.79,2.86l-.13,2.12a2,2,0,0,0,1.87,2.13l23.39,1.53a2,2,0,0,0,2.16-1.87l.06-.73a3.5,3.5,0,0,1,3.71-3.23l.25,0a2.53,2.53,0,0,0,2.7-2.34l.16-2.1a.41.41,0,0,1,0-.11v-.1l3.92-51.61a3.57,3.57,0,0,1,1-2.2l28-28.25a2.54,2.54,0,0,0,0-3.6h0l-18-17.87a2.55,2.55,0,0,0-3.67.1l-16.68,18.33a3.51,3.51,0,0,1-5.43-.32L1210,191.33a2.55,2.55,0,0,0-3.53-.59l-12.63,8.92a3.5,3.5,0,0,1-4,0,37,37,0,0,0-4.22-2.56c-17.15-8.83-41.62-6.24-53.52-1.57a2.53,2.53,0,0,0-1.56,1.89,3.54,3.54,0,0,1-1.91,2.49,3.48,3.48,0,0,1-3.13,0c-16.75-8.58-37-9.61-41.11-9.42a2.53,2.53,0,0,0-2.38,2.11l-.31,1.82a3.5,3.5,0,0,1-3.33,2.91h-.15a2.06,2.06,0,0,0-1.91,1.69l-.24,1.41a3.51,3.51,0,0,1-6.89.09l-1.33-6.66a2.58,2.58,0,0,0-1.13-1.65,2.55,2.55,0,0,0-2-.32l-33.34,8a3.51,3.51,0,0,1-4.31-3.11l0-.32a2.56,2.56,0,0,0-3.08-2.24l-27.06,6a2.53,2.53,0,0,0-2,2.65h0c0,.06,0,.14,0,.24a3.51,3.51,0,0,1-2.74,3.63l-1.39.31a2.05,2.05,0,0,0-1.59,2.12h0c.06.67.15,2.17.38,6.15l.13,2.41c.39,7.32,1,21.24.88,32.35-.06,3.7-.14,8.73-.44,13.45a3.5,3.5,0,0,1-6.53,1.51,2.54,2.54,0,0,0-3.73-.77l-17.76,13.43a2.52,2.52,0,0,0-1,1.7,3.5,3.5,0,0,1-1.36,2.34l-3.57,2.7a2,2,0,0,0-.71,2.22c2.36,7.67,12.89,22,35.77,21.45,5.64-.14,10.59-2.55,14.7-7.15.29-.32.57-.66.85-1a3.64,3.64,0,0,1,.83-.74,24.26,24.26,0,0,0,4.92-4.24,37.5,37.5,0,0,0,5.56-8.55,3.5,3.5,0,0,1,6.59.94l3.59,20.87a2,2,0,0,0,2.42,1.65l23.38-4.77a3.49,3.49,0,0,1,3.89,2,2.21,2.21,0,0,0,.22.41,2,2,0,0,0,1.36.82l28.46,3.93a2,2,0,0,0,2.26-1.62l.25-1.36a3.49,3.49,0,0,1,3.75-2.83,2.55,2.55,0,0,0,2.73-2.06l.7-3.69a3.49,3.49,0,0,1,3-2.82A3.4,3.4,0,0,1,1101.16,297.88Z" transform="translate(-643.51 -183.28)"/><path class="cls-1" d="M691.25,318.55a8.4,8.4,0,0,1-8.22-6.67l-12.88-59-16.56,3.21a8.47,8.47,0,0,1-9.93-9.91L649,218.71a8.35,8.35,0,0,1,3.87-5.59l.15-.76a9.54,9.54,0,0,1,7.26-7.48l54.31-12.26a9.59,9.59,0,0,1,10.45,4.69l2.14,3.88a43.63,43.63,0,0,1,22.7-7h.84a44.53,44.53,0,0,1,26.48,9l.06-.23a8.5,8.5,0,0,1,3.77-5.24l.27-1.14a9.54,9.54,0,0,1,17.92-1.9l7.6,16.13,4.07-10.65a8.4,8.4,0,0,1,3.09-3.93l1-2.57a9.54,9.54,0,0,1,18,.58h0L860.17,282a9.52,9.52,0,0,1-5.37,11.6l-.94.4a8.45,8.45,0,0,1-4.56,4.74L827,308.28a8.46,8.46,0,0,1-11.28-4.9l-.86-2.38a10,10,0,0,1-2,.94l-.5,1a8.46,8.46,0,0,1-13.75,1.84,8.58,8.58,0,0,1-1.27.5,8.49,8.49,0,0,1-9.54,5.36l-17.54-3.37a43,43,0,0,1-23.14,7.48A42.53,42.53,0,0,1,725,308.94a8.19,8.19,0,0,1-.59,1,8.43,8.43,0,0,1-5.53,3.63l-26.1,4.8A9.26,9.26,0,0,1,691.25,318.55Zm-18.41-73.26a3.5,3.5,0,0,1,3.42,2.76l13.61,62.34a1.46,1.46,0,0,0,1.68,1.13l26.12-4.8a1.44,1.44,0,0,0,1-.61,1.58,1.58,0,0,0,.25-.82,3.48,3.48,0,0,1,2.86-3.42l1.21-.22a3,3,0,0,0,.53-.17,3.47,3.47,0,0,1,3.26.3,35.17,35.17,0,0,0,40.66-1.1,3.48,3.48,0,0,1,2.71-.6l19,3.65a1.47,1.47,0,0,0,1.68-1l.5-1.59a3.51,3.51,0,0,1,3.25-2.45,2.52,2.52,0,0,0,2.05-1.16,3.5,3.5,0,0,1,6.11.41l.8,1.7a1.46,1.46,0,0,0,1.3.85,1.49,1.49,0,0,0,1.34-.8l1.24-2.41a3.5,3.5,0,0,1,2.75-1.88,2.56,2.56,0,0,0,2-1.35l.82-1.6a3.5,3.5,0,0,1,6.4.41l3,8.14a1.45,1.45,0,0,0,1.94.85l22.29-9.52a1.44,1.44,0,0,0,.87-1.2,3.51,3.51,0,0,1,2.11-2.86l2.52-1.08a2.53,2.53,0,0,0,1.43-3.09l-27.13-87.78h0a2.54,2.54,0,0,0-4.81-.16l-1.42,3.74a3.53,3.53,0,0,1-1.87,2,1.44,1.44,0,0,0-.78.81l-7,18.33a3.49,3.49,0,0,1-6.43.24l-11.11-23.56a2.54,2.54,0,0,0-4.78.5l-.65,2.77a3.49,3.49,0,0,1-2.37,2.55,1.47,1.47,0,0,0-1,1.08l-1.34,5.74a3.5,3.5,0,0,1-5.81,1.76c-7.77-7.31-17.12-11.06-26.91-10.9a37.15,37.15,0,0,0-21.88,7.9,3.45,3.45,0,0,1-2.84.65A3.5,3.5,0,0,1,723,208l-4-7.29a2.55,2.55,0,0,0-2.78-1.25l-54.3,12.26a2.53,2.53,0,0,0-1.94,2l-.49,2.53a3.52,3.52,0,0,1-2.49,2.7,1.43,1.43,0,0,0-1,1.12l-5.37,27.45a1.5,1.5,0,0,0,.41,1.33,1.44,1.44,0,0,0,1.31.39l19.91-3.86A3.11,3.11,0,0,1,672.84,245.29Z" transform="translate(-643.51 -183.28)"/><path class="cls-1" d="M872.62,305a8.63,8.63,0,0,1-8.19-11.37l3-9a15.4,15.4,0,0,1-8.4-5.14c-7.64-8.8-1.33-23,1.74-28.75a32.48,32.48,0,0,1,7.44-9.5C875,230.8,883.6,229.11,887,228.87a15.46,15.46,0,0,1,3.32.13,9.42,9.42,0,0,1,6.82-2.37l5,.26a9.63,9.63,0,0,1,3.23-1.28l6.43-1.26a9,9,0,0,1,1.71-.17,14.83,14.83,0,0,1,3.72-1.75,14,14,0,0,1,8.9.2,22.22,22.22,0,0,1,4.94-4.69,17.42,17.42,0,0,1,6.09-2.66l1.59-3.46a8.61,8.61,0,0,1,4.75-4.46l1-2.14a9.6,9.6,0,0,1,7.61-5.49l10.58-1.17a9.54,9.54,0,0,1,9.82,13.26c-3.87,9-7.66,19-9.74,25.62a9.57,9.57,0,0,1,5.37,7.25,26.79,26.79,0,0,1,.19,6.21,36.85,36.85,0,0,1-1,5.69,9.58,9.58,0,0,1-3.77,5.37c-.19.13-1.83,1.27-4.76,3.11a8.83,8.83,0,0,1-2.33,2.39c-1.25.88-32.08,22.3-81.43,37.17A8.52,8.52,0,0,1,872.62,305Zm-.45-27.08a3.5,3.5,0,0,1,3.33,4.6l-4.44,13.33a1.64,1.64,0,0,0,2.06,2.08c48.25-14.54,79.13-36,79.43-36.22a1.55,1.55,0,0,0,.56-.64,3.57,3.57,0,0,1,1.31-1.47c3.31-2,5.13-3.32,5.21-3.37a2.58,2.58,0,0,0,1-1.43,28.81,28.81,0,0,0,.78-4.49,20.1,20.1,0,0,0-.13-4.49,2.58,2.58,0,0,0-1.62-2.1,2.69,2.69,0,0,0-1-.15,3.5,3.5,0,0,1-3.61-4.37c1.71-6.55,6.28-18.94,11.11-30.14a2.55,2.55,0,0,0-2.61-3.54l-10.59,1.18a2.57,2.57,0,0,0-2,1.46l-1.67,3.64a3.5,3.5,0,0,1-2.74,2,1.63,1.63,0,0,0-1.32.95l-2.37,5.16a3.5,3.5,0,0,1-2.86,2,10.3,10.3,0,0,0-4.87,1.79,17.18,17.18,0,0,0-4.74,5.19,3.51,3.51,0,0,1-4.81,1.13,7.39,7.39,0,0,0-6.18-.92,8.53,8.53,0,0,0-2.62,1.39,3.47,3.47,0,0,1-2.66.69,2.77,2.77,0,0,0-.86,0l-6.43,1.26a2.49,2.49,0,0,0-1.18.59,3.49,3.49,0,0,1-2.5.87l-6.29-.32a2.52,2.52,0,0,0-2.2,1.06l-.16.22a3.47,3.47,0,0,1-3.83,1.31,8.8,8.8,0,0,0-3.09-.36c-2.42.17-8.58,1.45-13.71,9.61a3.48,3.48,0,0,1-.76.86,25,25,0,0,0-6.13,7.76c-1.86,3.46-7.54,15.18-2.62,20.85a8.4,8.4,0,0,0,6.21,3.11c.32,0,.77-.05,1.26-.11A2.68,2.68,0,0,1,872.17,277.91Z" transform="translate(-643.51 -183.28)"/><path class="cls-2" d="M1244,309.25l-2.12,0-.08-9-2.19,0,0-1.83,6.5-.06,0,1.84-2.19,0Z" transform="translate(-643.51 -183.28)"/><path class="cls-2" d="M1255.47,302.41h0l-2.4,6.91h-.73l-2.44-6.87h0l-.9,6.74-2.13,0,1.72-11.17H1250l2.74,7.13,2.49-7.18h1.53l1.72,11.14-2.13,0Z" transform="translate(-643.51 -183.28)"/><path class="cls-2" d="M986.13,217.94c.46,8.49,1,21.71.88,32.12-.13,8.28-.37,23.69-3,25.64h0c-1.66.1-3.17-3.31-3.5-4.51a5.56,5.56,0,0,0-8.67-3L954,281.66a5.56,5.56,0,0,0-1.95,6c2.64,8.54,14.22,24.55,39.21,23.92,6.65-.17,12.44-3,17.22-8.32,5.16-5.76,8.72-14.37,11.17-24.16l5.12,29.7a5.53,5.53,0,0,0,2.32,3.64,5.63,5.63,0,0,0,4.22.85l23.4-4.77a5.43,5.43,0,0,0,.59,1.05,5.56,5.56,0,0,0,3.71,2.22l28.45,3.92a5.51,5.51,0,0,0,6.18-4.45l3.46-18.28,9.49,20a5.5,5.5,0,0,0,7.21,2.69l21.71-9.56a5.53,5.53,0,0,0,3.25-5.43l1.69,9.18a5.54,5.54,0,0,0,6.62,4.41l23.32-5.11a5.53,5.53,0,0,0,4.28-6.16l-1.76-12.86,13.43,15.59a5.52,5.52,0,0,0,7.81.57l4.29-3.71-.12,2.11a5.51,5.51,0,0,0,5.14,5.85l23.38,1.52a5.54,5.54,0,0,0,5.88-5.09l4.1-54.11L1265,224.52a5.43,5.43,0,0,0,1.6-3.9,5.49,5.49,0,0,0-1.63-3.91l-18-17.87a5.53,5.53,0,0,0-8,.21l-17.11,18.8-15.73-21.92a5.52,5.52,0,0,0-7.68-1.29l-13,9.15a39.9,39.9,0,0,0-4.81-3c-18-9.26-43.57-6.56-56-1.69a5.47,5.47,0,0,0-3.43,4.86c-17-9-37.75-10.42-43.32-10.14a5.54,5.54,0,0,0-5.18,4.58l-4,23.64a5.89,5.89,0,0,0,0-1.45l-4.22-21a5.56,5.56,0,0,0-6.72-4.3l-33.91,8.19c0-.43-.07-.76-.08-.9a5.46,5.46,0,0,0-2.23-4,5.54,5.54,0,0,0-4.48-1l-27,6a5.54,5.54,0,0,0-4.32,5.77c0,.07.16,2.42.37,6.12Zm210.33,31.37,4.78,7.1-.65,10.91-8.62-9.24A40.87,40.87,0,0,0,1196.46,249.31ZM1059.74,274l-.11,0-.5-2.36,1.07-.35Zm8.73-50.83L1066,237.84a5.47,5.47,0,0,0-7.32-3.21l-6.14,2.61-1.08-6,13.5-4.31A5.52,5.52,0,0,0,1068.47,223.18Zm70,76.05L1129,272.81a49.77,49.77,0,0,0,3.91-4l5.63,30.63A1.21,1.21,0,0,1,1138.5,299.23Z" transform="translate(-643.51 -183.28)"/><path class="cls-2" d="M996.08,305.53c-24.13,0-35.38-15.65-38-24.09a5.76,5.76,0,0,1,2-6.28l17.76-13.42a5.74,5.74,0,0,1,9,3.11c.36,1.27,1.79,4.35,3.21,4.31,2.56-2.26,2.77-17.31,2.89-25.43h0c.24-16.59-1.35-40.39-1.36-40.62a5.75,5.75,0,0,1,4.48-6l27.06-6a5.74,5.74,0,0,1,7,5.11c.27,3.12,6.37,76.74-15.26,100.91-4.82,5.4-10.67,8.22-17.38,8.39Zm-25.32-24c3,4.83,10.33,12.94,26.45,12.53,3.51-.09,6.41-1.54,9.11-4.56,13.78-15.41,14.16-62.22,12.83-85.72l-15.76,3.5c.46,8,1.27,24.06,1.08,36.63h0c-.26,18.45-.51,35.88-13.6,36.73-5.24.34-9-2.31-11.53-5.59Z" transform="translate(-643.51 -183.28)"/><path class="cls-3" d="M998.73,243.81c.25-17-1.37-41.09-1.37-41.09l27.06-6s8.84,102.17-27.06,103.07c-27.39.68-33.78-20-33.78-20l17.76-13.42s2.38,9,9.16,8.57C998.14,274.39,998.49,260.83,998.73,243.81Z" transform="translate(-643.51 -183.28)"/><path class="cls-4" d="M996.05,302c-27.56,0-34.46-21.35-34.53-21.57a2.16,2.16,0,0,1,.76-2.35L980,264.6a2.16,2.16,0,0,1,3.38,1.17c0,.07,2,7.3,6.94,7,5.81-.38,6-14.91,6.22-29h0c.24-16.75-1.35-40.68-1.37-40.92a2.15,2.15,0,0,1,1.68-2.24l27.06-6a2.16,2.16,0,0,1,1.74.37,2.12,2.12,0,0,1,.87,1.55c.27,3.06,6.25,75.18-14.35,98.21-4.14,4.63-9.12,7.05-14.8,7.19Zm-29.88-21.46c1.93,4.4,9.54,17.67,31.13,17.13,4.51-.11,8.33-2,11.7-5.75,17.33-19.38,14.32-79.58,13.45-92.51l-22.83,5.06c.37,6,1.47,25.23,1.27,39.42-.26,17.47-.47,32.56-10.25,33.19-5.67.38-8.8-4.13-10.29-7.27Z" transform="translate(-643.51 -183.28)"/><path class="cls-2" d="M1233.45,306l-.38,0-23.37-1.51a5.74,5.74,0,0,1-5.36-6.08l2.88-48.27-26.08-38.62a5.75,5.75,0,0,1,1.45-7.9l21.93-15.49a5.73,5.73,0,0,1,8,1.35l15.58,21.69,16.93-18.6a5.75,5.75,0,0,1,4.1-1.87,5.69,5.69,0,0,1,4.19,1.66l18,17.87a5.72,5.72,0,0,1,0,8.12l-28.1,28.34-4.1,54A5.74,5.74,0,0,1,1233.45,306Zm-17.31-12.63,12,.78,3.83-50.46a5.74,5.74,0,0,1,1.65-3.61l25.54-25.75-9.71-9.62-17.67,19.42a5.74,5.74,0,0,1-8.91-.51l-16.39-22.84-12.68,8.95,24,35.58a5.66,5.66,0,0,1,1,3.55Z" transform="translate(-643.51 -183.28)"/><polygon class="cls-3" points="564.31 9.54 542.39 25.02 569.56 65.26 566.56 115.47 589.93 116.99 594.19 60.86 623.78 31.03 605.73 13.16 584.03 37 564.31 9.54"/><path class="cls-4" d="M1233.44,302.43h-.14l-23.37-1.52a2.15,2.15,0,0,1-2-2.27l3-49.49-26.76-39.63a2.14,2.14,0,0,1,.54-3l21.93-15.48a2.15,2.15,0,0,1,3,.5l18.16,25.3L1247.65,195a2.16,2.16,0,0,1,1.54-.7,2.12,2.12,0,0,1,1.57.62l18,17.87a2.15,2.15,0,0,1,0,3.05l-29,29.27-4.2,55.34A2.16,2.16,0,0,1,1233.44,302.43Zm-21.09-5.69,19.11,1.25,4.1-54a2.15,2.15,0,0,1,.62-1.35l28.07-28.31-14.92-14.77-20.19,22.19a2.16,2.16,0,0,1-3.35-.2l-18.46-25.72-18.46,13,26,38.49a2.16,2.16,0,0,1,.36,1.33Z" transform="translate(-643.51 -183.28)"/><path class="cls-2" d="M1117.82,310.07a5.75,5.75,0,0,1-5.19-3.28l-9.19-19.39L1100.1,305a5.75,5.75,0,0,1-6.43,4.62l-28.44-3.92a5.75,5.75,0,0,1-4.88-6.66l18.37-107a5.75,5.75,0,0,1,5.38-4.77c7.26-.35,40.27,2.15,57.17,20.39,7.67,8.28,10.81,18.4,9.35,30.1h0c-1.84,14.57-10.27,24.29-15.14,28.8l9.44,26.27a5.75,5.75,0,0,1-3.09,7.2l-21.69,9.56A5.76,5.76,0,0,1,1117.82,310.07Zm-45.14-14.91,17.15,2.36,5.6-29.58a5.74,5.74,0,0,1,10.83-1.39l14.36,30.27,11.68-5.15-9-25a5.75,5.75,0,0,1,2.13-6.66c.1-.07,11.87-8.55,13.78-23.68h0c1-8.29-1-15.11-6.37-20.86-10.93-11.79-32.61-15.94-43.64-16.64ZM1144.92,237h0Zm-40.32,13.32a5.75,5.75,0,0,1-5.68-6.62l3.41-22.24a5.75,5.75,0,0,1,7.59-4.54c4.11,1.45,11.66,6.85,10.83,16.92h0c-1,12.23-10.75,16.11-15.76,16.45ZM1115,233.4h0Z" transform="translate(-643.51 -183.28)"/><path class="cls-3" d="M1144.92,237c4.84-38.54-50-44.55-60.54-44L1066,300l28.45,3.92,6.61-34.95,16.75,35.32,21.69-9.57-10.8-30S1142.65,255.07,1144.92,237ZM1115,233.4c-.88,10.55-10.43,11.2-10.43,11.2l3.41-22.24S1115.72,225.08,1115,233.4Z" transform="translate(-643.51 -183.28)"/><path class="cls-4" d="M1117.82,306.48a2.13,2.13,0,0,1-1.94-1.23L1102,275.91l-5.39,28.45a2.14,2.14,0,0,1-2.41,1.73l-28.44-3.92a2.16,2.16,0,0,1-1.83-2.5l18.36-107a2.15,2.15,0,0,1,2-1.79c9.33-.46,39.55,3.25,54.37,19.24,6.91,7.46,9.75,16.62,8.41,27.21h0c-2,15.62-12.08,25.16-15.78,28.17L1141.54,294a2.16,2.16,0,0,1-1.16,2.7l-21.69,9.56A2.22,2.22,0,0,1,1117.82,306.48Zm-49.31-8.27,24.21,3.34,6.23-32.94a2.17,2.17,0,0,1,1.84-1.74,2.13,2.13,0,0,1,2.22,1.22l15.86,33.42,17.94-7.91-10.12-28.15a2.15,2.15,0,0,1,.8-2.5c.13-.09,13.17-9.37,15.29-26.19h0c1.17-9.27-1.29-17.26-7.3-23.74-12.8-13.82-39.17-17.82-49.28-17.9ZM1144.92,237h0Zm-40.32,9.73a2.15,2.15,0,0,1-2.13-2.48l3.41-22.24a2.16,2.16,0,0,1,2.84-1.71,12.94,12.94,0,0,1,8.45,13.25h0c-.81,9.8-8.48,12.9-12.42,13.17Zm5.06-21-2.44,16c2.3-1,5.22-3.24,5.66-8.52h0A8.19,8.19,0,0,0,1109.66,225.78Zm5.37,7.62h0Z" transform="translate(-643.51 -183.28)"/><path class="cls-2" d="M1152.13,308.33a5.74,5.74,0,0,1-5.65-4.71L1127.24,199a5.74,5.74,0,0,1,3.55-6.39c12.46-4.89,38.12-7.59,56.15,1.71,8.92,4.6,14.8,11.71,17,20.56,4.51,18.08-1.29,30.68-5.48,36.91l17.38,18.65a5.72,5.72,0,0,1,1.53,4.28l-.58,9.13a5.72,5.72,0,0,1-2,4l-14.29,12.42a5.71,5.71,0,0,1-4.18,1.4,5.79,5.79,0,0,1-3.94-2l-13-15,1.68,12.14a5.75,5.75,0,0,1-4.47,6.39l-23.32,5.11A5.62,5.62,0,0,1,1152.13,308.33Zm-12.69-106.51,17.26,93.89L1169,293l-3.6-26.15a5.74,5.74,0,0,1,10-4.53l21.89,25.4,8.13-7.06.27-4.26-19-20.44a5.75,5.75,0,0,1,.23-8.07c.4-.4,10.7-10.91,5.87-30.29-1.43-5.71-5.07-10-11.13-13.13C1169.39,198.14,1150.94,198.79,1139.44,201.82Zm71.63,81.61h0ZM1166.71,246a5.9,5.9,0,0,1-2-.36,5.74,5.74,0,0,1-3.61-4.27l-3.93-20a5.74,5.74,0,0,1,5.77-6.85c5.17.12,14.36,2.75,16,11.87,1.77,10.05-7.59,17.61-8.67,18.44A5.79,5.79,0,0,1,1166.71,246Z" transform="translate(-643.51 -183.28)"/><path class="cls-3" d="M1211.07,283.43l.58-9.13-20.74-22.25s13.24-12.69,7.47-35.83c-6.43-25.76-47.83-25.24-65.5-18.31l19.25,104.68,23.32-5.11-4.33-31.4,25.65,29.77Zm-44.36-43.13-3.92-20s9.23.21,10.45,7.13S1166.71,240.3,1166.71,240.3Z" transform="translate(-643.51 -183.28)"/><path class="cls-4" d="M1152.13,304.74A2.14,2.14,0,0,1,1150,303L1130.77,198.3a2.15,2.15,0,0,1,1.33-2.4c13.71-5.37,37.94-6.31,53.2,1.56,8.08,4.17,13.19,10.3,15.17,18.24,4.9,19.65-3.19,32.1-6.64,36.32l19.4,20.82a2.14,2.14,0,0,1,.57,1.6l-.58,9.13a2.16,2.16,0,0,1-.74,1.48l-14.3,12.42a2.13,2.13,0,0,1-1.56.53,2.16,2.16,0,0,1-1.48-.74L1174.25,273l3.33,24.18a2.15,2.15,0,0,1-1.67,2.39l-23.32,5.11A2.49,2.49,0,0,1,1152.13,304.74Zm-16.8-105.43L1153.84,300l19.2-4.21-4-29.43a2.15,2.15,0,0,1,3.76-1.7L1197,292.81l12-10.42.46-7.3-20.11-21.57a2.15,2.15,0,0,1,.09-3c.5-.49,12.25-12.2,6.87-33.76-1.67-6.68-6-11.88-13-15.45C1168.42,193.6,1146.68,195.47,1135.33,199.31Zm75.74,84.12h0Zm-44.36-41a2.27,2.27,0,0,1-.76-.14,2.17,2.17,0,0,1-1.35-1.6l-3.93-20a2.16,2.16,0,0,1,2.17-2.57c.44,0,11,.34,12.52,8.9,1.42,8.11-7,14.7-7.33,15A2.19,2.19,0,0,1,1166.71,242.46Zm-1.22-19.61,2.57,13.12c1.74-2.05,3.6-5.08,3.06-8.19S1167.72,223.41,1165.49,222.85Z" transform="translate(-643.51 -183.28)"/><path class="cls-2" d="M1036.46,307.33a5.74,5.74,0,0,1-5.66-4.77l-16.58-96.33a5.75,5.75,0,0,1,4.31-6.55l45.34-10.94a5.75,5.75,0,0,1,7,4.46l4.22,21a5.73,5.73,0,0,1-3.88,6.6l-13.31,4.25,1,5.53,5.89-2.5a5.75,5.75,0,0,1,7.84,4L1078,256a5.74,5.74,0,0,1-3.86,6.74l-8.55,2.72.42,2,13.54-2.87a5.76,5.76,0,0,1,6.81,4.44l4.5,21.44a5.74,5.74,0,0,1-4.47,6.81l-48.79,10A5.67,5.67,0,0,1,1036.46,307.33Zm-10-97.75,14.66,85.2,37.34-7.61L1076.31,277l-13.52,2.86a5.73,5.73,0,0,1-6.8-4.41l-2.72-12.67a5.75,5.75,0,0,1,3.88-6.68l8.49-2.7-2.72-12-6.17,2.61a5.75,5.75,0,0,1-7.9-4.26l-3.18-17.56a5.72,5.72,0,0,1,3.9-6.49l13.22-4.22-2-10.14Z" transform="translate(-643.51 -183.28)"/><polygon class="cls-3" points="392.94 118.31 441.74 108.36 437.23 86.92 418.09 90.97 415.37 78.3 428.89 74 423.49 50.11 410.99 55.41 407.8 37.85 425.92 32.07 421.7 11.04 376.37 21.98 392.94 118.31"/><path class="cls-4" d="M1036.46,303.74a2.21,2.21,0,0,1-1.22-.37,2.12,2.12,0,0,1-.9-1.41l-16.58-96.33a2.15,2.15,0,0,1,1.62-2.46l45.33-10.94a2.17,2.17,0,0,1,2.62,1.67l4.22,21a2.17,2.17,0,0,1-1.46,2.48l-16.32,5.2,2.37,13,10-4.25a2.16,2.16,0,0,1,2.94,1.51l5.41,23.89a2.15,2.15,0,0,1-1.45,2.53l-11.66,3.71,1.86,8.65,17-3.61a2.15,2.15,0,0,1,1.62.3,2.21,2.21,0,0,1,.94,1.37l4.5,21.44a2.15,2.15,0,0,1-1.68,2.55l-48.79,9.95A2.09,2.09,0,0,1,1036.46,303.74Zm-14.11-96.86L1038.2,299l44.5-9.07-3.62-17.22-17,3.61a2.15,2.15,0,0,1-2.55-1.66L1056.78,262a2.16,2.16,0,0,1,1.46-2.51l11.63-3.7-4.4-19.45-10.13,4.3a2.16,2.16,0,0,1-3-1.6l-3.18-17.56a2.14,2.14,0,0,1,1.46-2.43l16.28-5.2-3.4-16.95Z" transform="translate(-643.51 -183.28)"/><path class="cls-2" d="M823.52,201.73a5,5,0,0,0-9.38-.31L803,230.5,790,202.77a5,5,0,0,0-9.33,1l-3.78,16.17c-1-1.08-1.9-2.16-2.94-3.16-8.2-7.87-18.51-12.1-29-11.88a39.81,39.81,0,0,0-24.3,9.17l-4.63-8.4a5,5,0,0,0-5.45-2.44l-54.3,12.27a5,5,0,0,0-3.78,3.89L647,246.84a5,5,0,0,0,1.37,4.46,5,5,0,0,0,4.46,1.37l19.91-3.87,13.61,62.35a5,5,0,0,0,5.74,3.82l26.11-4.79a5,5,0,0,0,4-5.93l-.35-1.59a38.86,38.86,0,0,0,47.53.87l19,3.65a5,5,0,0,0,5.68-3.4l3-9.53,3.22,6.88a5,5,0,0,0,8.91.17l5.58-10.81,4.22,11.7a5,5,0,0,0,2.69,2.87,5,5,0,0,0,3.93,0l22.28-9.52a5,5,0,0,0,2.8-6Zm-69.93,55.85c.17,8.56-2.2,14.92-4.63,17.44a2.71,2.71,0,0,1-1.58,1,2.66,2.66,0,0,1-1.64-.93c-2.52-2.42-5.14-8.69-5.31-17.25-.23-11.89,4.31-18.39,6.22-18.44S753.35,245.68,753.59,257.58Z" transform="translate(-643.51 -183.28)"/><path class="cls-2" d="M696.32,309.7a5.73,5.73,0,0,1-5.6-4.52l-13.45-61.61-19.16,3.72a5.74,5.74,0,0,1-6.73-6.74l5.35-27.45a5.74,5.74,0,0,1,4.37-4.5l54.3-12.26a5.73,5.73,0,0,1,6.29,2.82L735,223.29a5.73,5.73,0,0,1-3.81,8.39L714.5,235.3,728,297.94a5.73,5.73,0,0,1-4.57,6.86l-26.09,4.8A6.22,6.22,0,0,1,696.32,309.7Zm-14.63-78.59a5.74,5.74,0,0,1,5.6,4.52l13.46,61.67,14.81-2.72-13.5-62.47a5.74,5.74,0,0,1,4.4-6.82l14.78-3.2-7.51-13.6L667.29,219l-3,15.42,16.31-3.17A5.86,5.86,0,0,1,681.69,231.11Z" transform="translate(-643.51 -183.28)"/><polygon class="cls-3" points="18.85 30.91 73.15 18.66 86.48 42.78 64.16 47.62 78.91 115.87 52.81 120.67 38.17 53.58 13.5 58.37 18.85 30.91"/><path class="cls-4" d="M696.33,306.11a2.16,2.16,0,0,1-2.11-1.7l-14.19-65-22.61,4.39a2.15,2.15,0,0,1-2.52-2.52l5.35-27.45a2.16,2.16,0,0,1,1.64-1.69l54.3-12.26a2.15,2.15,0,0,1,2.36,1.06L731.88,225a2.15,2.15,0,0,1-1.43,3.15l-20.22,4.38,14.29,66.15a2.14,2.14,0,0,1-1.71,2.57l-26.09,4.8A2.72,2.72,0,0,1,696.33,306.11ZM681.68,234.7a2.16,2.16,0,0,1,2.11,1.7L698,301.46l21.86-4-14.28-66.09a2.15,2.15,0,0,1,1.65-2.56l19.49-4.22-11.15-20.18L664.21,216l-4.47,22.94,21.53-4.19A3,3,0,0,1,681.68,234.7Z" transform="translate(-643.51 -183.28)"/><path class="cls-2" d="M794.39,301.9a5.64,5.64,0,0,1-1.08-.1l-25.46-4.89a5.73,5.73,0,0,1-4.51-6.94L785,197.45a5.75,5.75,0,0,1,10.79-1.14l12.29,26.07L818.49,195a5.74,5.74,0,0,1,10.85.35l27.14,87.78a5.75,5.75,0,0,1-3.23,7L831,299.65a5.75,5.75,0,0,1-7.66-3.33l-3.63-10-4.76,9.23a5.75,5.75,0,0,1-10.31-.2l-2.36-5.05-2.39,7.62A5.74,5.74,0,0,1,794.39,301.9Zm-18.51-15.14,14.56,2.79,5.28-16.83A5.74,5.74,0,0,1,806.4,272l3.68,7.86,5.44-10.54A5.74,5.74,0,0,1,826,270l6,16.7L844,281.6l-20.69-66.93L814,239.07a5.74,5.74,0,0,1-10.56.41l-11-23.36Z" transform="translate(-643.51 -183.28)"/><polygon class="cls-3" points="125.42 107.99 150.87 112.88 157.69 91.15 166.31 109.6 177.1 88.67 185.21 111.08 207.48 101.57 180.34 13.78 165.1 53.74 147.05 15.48 125.42 107.99"/><path class="cls-4" d="M794.39,298.31a2,2,0,0,1-.41,0l-25.45-4.88a2.17,2.17,0,0,1-1.41-.94,2.23,2.23,0,0,1-.29-1.67l21.64-92.51a2.15,2.15,0,0,1,4-.43l15.89,33.69,13.45-35.23a2.14,2.14,0,0,1,4.06.13l27.14,87.78a2.15,2.15,0,0,1-1.21,2.62l-22.27,9.51a2.12,2.12,0,0,1-1.71,0,2.22,2.22,0,0,1-1.17-1.24l-6.42-17.78-8.53,16.55a2.16,2.16,0,0,1-3.87-.08l-6.27-13.42-5.16,16.43A2.15,2.15,0,0,1,794.39,298.31Zm-22.85-8.73,21.37,4.1,6.24-19.89a2.15,2.15,0,0,1,4-.27L809.92,288l8.79-17a2.15,2.15,0,0,1,3.93.26L830,291.49l18.39-7.86-24.72-80-13,34.13a2.16,2.16,0,0,1-4,.15l-15.41-32.68Z" transform="translate(-643.51 -183.28)"/><path class="cls-2" d="M751.3,305.86c-24.76,0-45.23-23.61-45.81-53-.58-29.75,19.36-54.35,44.45-54.84h0c25.07-.47,46,23.3,46.56,53s-19.35,54.34-44.44,54.84Zm-.59-96.4h-.55c-18.75.37-33.64,19.72-33.18,43.13.45,23.18,15.79,41.79,34.31,41.79h.54c18.76-.37,33.65-19.72,33.19-43.12C784.56,228.07,769.22,209.46,750.71,209.46Zm-.66-5.74h0Zm1.7,30.32h0c-.31,0-1.64.92-2.94,3.68a36.11,36.11,0,0,0,.55,27.81c1.41,2.71,2.77,3.62,3.09,3.57s1.64-.93,2.94-3.69a32.52,32.52,0,0,0,2.51-14h0C757.67,240.17,753.21,234,751.75,234Zm.67,46.54c-5.28,0-10-3.45-13.26-9.74a47.45,47.45,0,0,1-.75-38c3.07-6.51,7.73-10.16,13.11-10.26,9.9-.2,17.53,12.13,17.85,28.66a43.64,43.64,0,0,1-3.6,19.09c-3.07,6.52-7.73,10.17-13.11,10.27Z" transform="translate(-643.51 -183.28)"/><path class="cls-3" d="M750.05,203.72c-22,.43-39.34,22.37-38.82,49s18.76,47.84,40.71,47.41,39.34-22.35,38.82-49S772,203.29,750.05,203.72Zm13.58,47.62c.26,12.85-4.7,23.38-11.08,23.5s-11.75-10.19-12-23,4.7-23.37,11.08-23.49S763.38,238.48,763.63,251.34Z" transform="translate(-643.51 -183.28)"/><path class="cls-4" d="M751.3,302.27c-22.81,0-41.68-22-42.22-49.52C708.54,225,726.9,202,750,201.57h0c23.11-.46,42.36,21.76,42.91,49.52S775.1,301.81,752,302.27Zm-1.21-96.39c-20.73.4-37.2,21.39-36.7,46.78s17.78,45.73,38.51,45.3,37.2-21.4,36.71-46.78-17.77-45.73-38.52-45.3Zm0-2.16h0ZM752.43,277c-3.88,0-7.46-2.76-10.09-7.81a44,44,0,0,1-.69-34.83c2.47-5.21,6-8.13,9.94-8.21,7.67-.11,13.92,10.9,14.2,25.15a40.13,40.13,0,0,1-3.26,17.49c-2.46,5.22-6,8.14-9.94,8.21Zm-.69-46.54h-.07c-2.19,0-4.42,2.14-6.12,5.74a39.66,39.66,0,0,0,.61,31c1.85,3.54,4.13,5.55,6.35,5.5s4.42-2.14,6.12-5.75a35.77,35.77,0,0,0,2.85-15.56h0C761.24,239,756.17,230.45,751.74,230.45Z" transform="translate(-643.51 -183.28)"/><path class="cls-2" d="M961.93,212.28a6.26,6.26,0,0,0-.59-1.07,5.19,5.19,0,0,0-4.7-2.06l-10.59,1.17a5.18,5.18,0,0,0-4.12,3l-5.74,12.49a12.35,12.35,0,0,0-9.19,2,20.58,20.58,0,0,0-6,6.86,5.19,5.19,0,0,0-.81-.66,10,10,0,0,0-8.21-1.15A11.15,11.15,0,0,0,908.2,235a5.29,5.29,0,0,0-2.1-.08l-6.43,1.26a5.16,5.16,0,0,0-2.59,1.44h0l-6.73-.35a5.17,5.17,0,0,0-4.45,2.15l-.54.75a11.56,11.56,0,0,0-4.61-.66c-3.89.27-11.26,2.32-17,12.94-2.73,5.08-8.39,17.65-2.17,24.81a12,12,0,0,0,8.71,4.3,13.27,13.27,0,0,0,1.8-.12l-4.43,13.32a5.14,5.14,0,0,0,6.36,6.55c48.42-14.59,79.18-35.81,80.46-36.71a5.13,5.13,0,0,0,2-2.88,29.44,29.44,0,0,0,.84-4.93,23.77,23.77,0,0,0-.12-5.14,5.07,5.07,0,0,0-6.68-4c1.38-6.27,6.44-19.92,11.34-31.27a5.27,5.27,0,0,0,.19-.68Z" transform="translate(-643.51 -183.28)"/><path class="cls-2" d="M879.1,295.89a5.74,5.74,0,0,1-5.45-7.56l4.13-12.41c-.32,0-.64,0-1,0a12.52,12.52,0,0,1-9.13-4.49c-6.47-7.48-.68-20.33,2.1-25.51,6-11.27,14.21-13,17.44-13.24a12,12,0,0,1,4.43.54l.27-.38a5.73,5.73,0,0,1,5-2.4l6.4.33a5.75,5.75,0,0,1,2.79-1.41l6.43-1.26a5.55,5.55,0,0,1,2.07,0,11.69,11.69,0,0,1,3.75-2,10.52,10.52,0,0,1,8.69,1.19l.35.22a20.53,20.53,0,0,1,5.82-6.39,13.13,13.13,0,0,1,9.21-2.29l5.52-12a5.72,5.72,0,0,1,4.58-3.3l10.58-1.18a5.74,5.74,0,0,1,5.91,8c-4.61,10.67-9.38,23.46-11,30.07a6,6,0,0,1,2.67.26,5.77,5.77,0,0,1,3.75,4.65,23.38,23.38,0,0,1,.15,5.29,32.71,32.71,0,0,1-.86,5,5.77,5.77,0,0,1-2.27,3.24c-1.29.9-32.13,22.18-80.64,36.79A5.62,5.62,0,0,1,879.1,295.89Zm9.25-15.36-.23.69c2-.67,4-1.36,5.87-2.05C892.11,279.65,890.23,280.11,888.35,280.53Zm-11.43-22.1c-.9,3.13-.78,5-.5,5.53s.64.47.86.48a7.25,7.25,0,0,0,3.41-1.22A8,8,0,0,1,876.92,258.43ZM892,261a4.72,4.72,0,0,1,.41.48,10,10,0,0,0,1.14-1.88,5.46,5.46,0,0,1,.43-.79,6.49,6.49,0,0,1-.36-.55A13.12,13.12,0,0,1,892,261Zm21-12.89a6.13,6.13,0,0,1,.74.05,5.73,5.73,0,0,1,3.76,2.11,32.49,32.49,0,0,1,1.17-8.2c.09-.42.2-.9.31-1.42a5.72,5.72,0,0,1-3.34,1.35,5.59,5.59,0,0,1-3.33-.81,56.08,56.08,0,0,1-1.55,7.38A5.68,5.68,0,0,1,913,248.13Zm21.17,2.12h0Zm0,0h0Zm-.48-.7a8.37,8.37,0,0,0,2.08-.12,7.11,7.11,0,0,0,1.08-.28l-.17-.07a8.27,8.27,0,0,1-3.21-2.12,13.43,13.43,0,0,0,.2,2.47A.5.5,0,0,0,933.69,249.55Zm7-11.22h0Z" transform="translate(-643.51 -183.28)"/><path class="cls-3" d="M951.86,245.61c-2.32-4.68,11.88-37.56,11.88-37.56l-10.59,1.17-7.68,16.68c-11.83-7.35-19.3,14.43-17.45,24.56-2.79,2.22-3.44,2.08-4.29,1.09-2.33-2.69,4.59-16.82.36-19.36-5.41-3.24-8.82,4.08-8.82,4.08l-1.64-2.54L907.2,235s-1.28,21-8.53,20.47c-2.9-7.47,4.65-19,4.65-19l-6.71-.35-3.18,4.46s-2.81-2.44-5.8-2.22c-3.84.27-8.83,2.85-12.78,10.23s-6,15.39-2.82,19c6,7,15.84-2.69,15.84-2.69s.33,2.79,4.35,2.91,6.63-6,6.63-6l1.64,3.09,8.16-2.64,4.37-8.49s1.67,7.49,7.7,6.11a16.79,16.79,0,0,0,9.21-5.86s1.65,1.82,6.78,1,7.89-4.66,9.28-5.82a6.32,6.32,0,0,1,.72,2,5,5,0,0,1-.21,2.31s-33,16-62.56,22.06l-4.84,14.55c48.2-14.53,79-36,79-36a27.76,27.76,0,0,0,.69-4,18,18,0,0,0-.1-3.89S954.18,250.29,951.86,245.61Zm-68.21,12.68c-3.77-1.67.87-12.18,6.84-8.91C888.57,257,887.2,259.84,883.65,258.29Zm55-14.58c-4.44-1.66.38-11.59,5.69-10.13C943.21,239.91,942.31,245.06,938.69,243.71Z" transform="translate(-643.51 -183.28)"/><path class="cls-4" d="M879.1,291.68a1.53,1.53,0,0,1-1.1-.46,1.55,1.55,0,0,1-.36-1.56l4.84-14.54a1.56,1.56,0,0,1,1.15-1c19.16-3.91,39.92-12.12,52-17.32a10.64,10.64,0,0,1-5.34-.66,18.48,18.48,0,0,1-9.19,5.35,6.75,6.75,0,0,1-5.34-.81,8.8,8.8,0,0,1-2.86-3.12L910,263.06a1.53,1.53,0,0,1-.89.76L901,266.46a1.53,1.53,0,0,1-1.83-.74l-.32-.6c-1.35,2-3.6,4.37-6.64,4.29a6.23,6.23,0,0,1-4.78-2c-2.16,1.72-6.27,4.47-10.41,4.3a8.31,8.31,0,0,1-6.12-3c-4.89-5.66.77-17.33,2.63-20.77,4.87-9.09,10.88-10.82,14-11a9.7,9.7,0,0,1,5.54,1.62l2.29-3.21a1.51,1.51,0,0,1,1.33-.64l6.71.35a1.53,1.53,0,0,1,1.2,2.38c-.06.1-6.31,9.72-4.85,16.39a3.16,3.16,0,0,0,.74-.49c3.51-3.09,4.93-14.31,5.18-18.37a1.52,1.52,0,0,1,1.24-1.41l6.43-1.26a1.53,1.53,0,0,1,1.58.67l.33.51a9.15,9.15,0,0,1,4.33-3.31,6.45,6.45,0,0,1,5.3.78c3.33,2,2.09,7.49.9,12.81-.51,2.28-1.37,6.1-.87,6.87a.53.53,0,0,0,.09.11,7.29,7.29,0,0,0,1.36-.86c-1-8.1,2.84-20.9,9.22-25.24a9,9,0,0,1,9.18-.78l7-15.2a1.52,1.52,0,0,1,1.22-.88l10.59-1.18a1.55,1.55,0,0,1,1.58,2.14c-6.68,15.47-13.13,33.73-11.92,36.27.61,1.21,1.22,1.33,1.42,1.36,1.15.22,2.68-.9,3-1.22a1.57,1.57,0,0,1,1.54-.31,1.52,1.52,0,0,1,1,1.21,18.35,18.35,0,0,1,.12,4.26,27.58,27.58,0,0,1-.74,4.3,1.57,1.57,0,0,1-.6.87c-.31.22-31.58,21.79-79.46,36.22A1.61,1.61,0,0,1,879.1,291.68Zm6-14.75L881.5,287.8c42.62-13.27,71.27-31.92,75.26-34.6a23.42,23.42,0,0,0,.52-3.23c0-.38.05-.75.05-1.1a5.59,5.59,0,0,1-3.25.44,5.06,5.06,0,0,1-3.6-3h0c-2.23-4.5,6.66-26.63,10.81-36.42l-7.1.79-7.32,15.89a1.55,1.55,0,0,1-1,.83,1.57,1.57,0,0,1-1.25-.17c-2.64-1.64-5-1.67-7.35-.11-5.64,3.84-9,16.11-7.78,23.08a1.55,1.55,0,0,1-.56,1.48c-2.33,1.85-4.41,3.2-6.4.89-1.53-1.76-.76-5.2.21-9.54.73-3.24,1.94-8.65.52-9.5a3.39,3.39,0,0,0-2.82-.48c-2.28.7-3.8,3.85-3.82,3.89a1.54,1.54,0,0,1-1.29.88,1.52,1.52,0,0,1-1.39-.7l-1.07-1.67-4.26.84c-.34,3.92-1.68,15.38-6.13,19.29a5.28,5.28,0,0,1-4,1.43,1.55,1.55,0,0,1-1.33-1c-2.36-6.08,1.34-14.21,3.47-18.09l-3.33-.18-2.69,3.77a1.53,1.53,0,0,1-2.26.27c-.65-.56-2.77-2-4.68-1.85s-7.21,1.34-11.54,9.43c-4.12,7.66-5.33,14.61-3,17.3a5.27,5.27,0,0,0,3.92,2c3.81.14,8.28-3.39,9.68-4.77a1.55,1.55,0,0,1,2.61.91c0,.22.39,1.49,2.86,1.56s4.61-3.71,5.18-5a1.53,1.53,0,0,1,1.35-.93,1.51,1.51,0,0,1,1.42.81l1,1.95,6.32-2.05,4.08-7.92a1.53,1.53,0,0,1,1.56-.82,1.56,1.56,0,0,1,1.31,1.19,10,10,0,0,0,1.39,3.09,3.93,3.93,0,0,0,4.46,1.85,15.23,15.23,0,0,0,8.31-5.26,1.58,1.58,0,0,1,1.16-.64,1.54,1.54,0,0,1,1.23.51s.77.69,3.1.69a14.88,14.88,0,0,0,2.29-.2c3.64-.61,5.95-2.94,7.48-4.47.4-.4.74-.75,1.06-1a1.58,1.58,0,0,1,1.24-.33,1.54,1.54,0,0,1,1.06.71,7.87,7.87,0,0,1,.92,2.49,6.49,6.49,0,0,1-.27,3.1,1.53,1.53,0,0,1-.78.86C946.84,255.08,914.36,270.78,885.12,276.93Zm60.11-24.77-.63.58.59-.27C945.2,252.37,945.22,252.26,945.23,252.16Zm-59.9,8.07a5.79,5.79,0,0,1-2.29-.53h0a3.91,3.91,0,0,1-2.26-3.47,9.47,9.47,0,0,1,4.08-8,6,6,0,0,1,6.38-.22,1.55,1.55,0,0,1,.75,1.73c-1.47,5.8-2.63,9-4.91,10.07A3.83,3.83,0,0,1,885.33,260.23Zm-1.06-3.35c1,.43,1.33.25,1.45.19,1.19-.58,2.27-4.18,2.94-6.74a2.87,2.87,0,0,0-2.14.5,6.43,6.43,0,0,0-2.69,5.14c0,.5.19.8.44.91Zm55.51-11.42a4.51,4.51,0,0,1-1.62-.32h0c-2.45-.91-3.36-3.56-2.33-6.74,1.25-3.87,5-7.37,9-6.3a1.53,1.53,0,0,1,1.1,1.76l0,.25c-1,5.28-1.75,9.46-4.26,10.88A3.69,3.69,0,0,1,939.78,245.46Zm2.76-10.36a6.62,6.62,0,0,0-3.79,4.25c-.13.41-.73,2.46.48,2.92h0c.56.21.77.09.85,0C941.17,241.7,941.9,238.42,942.54,235.1Z" transform="translate(-643.51 -183.28)"/></svg>