<svg width="50" height="51" viewBox="0 0 50 51" fill="none" xmlns="http://www.w3.org/2000/svg">
<g clip-path="url(#clip0_18_4826)">
<path d="M49.3889 18.8626C47.6148 13.2733 42.4305 9.80658 36.9702 10.0997C35.5509 4.67215 30.7313 0.689941 24.995 0.689941C19.2588 0.689941 14.449 4.67215 13.0297 10.0896C7.56946 9.79647 2.38515 13.2733 0.611051 18.8525C-1.16305 24.4417 1.04472 30.3746 5.63766 33.4269C3.68615 38.6624 5.2927 44.7975 9.93492 48.244C14.5673 51.7006 20.7569 51.3772 25.0049 47.8498C29.2529 51.3772 35.4425 51.7006 40.0749 48.244C44.7072 44.7874 46.3236 38.6624 44.3721 33.4269C48.9552 30.3645 51.163 24.4316 49.3987 18.8525L49.3889 18.8626Z" fill="#E51C12"/>
<path d="M29.4895 26.2509C29.4895 26.2509 31.717 26.5743 32.811 27.8579C33.5995 28.7777 32.9884 30.2129 31.9338 29.5357C31.5396 29.283 31.1946 28.7676 30.9285 28.2218C30.485 27.3121 29.4895 26.2509 29.4895 26.2509Z" fill="white"/>
<path d="M25.1035 25.7152C25.1035 25.7152 27.0649 25.9982 28.0209 27.1302C28.7108 27.9388 27.8238 28.8787 26.9565 28.4138C26.5918 28.2218 26.4735 27.7973 26.237 27.3121C25.8427 26.5137 25.1035 25.7152 25.1035 25.7152Z" fill="white"/>
<path d="M33.1855 18.9737H20.6781V17.9226H31.1256L32.052 16.8108L33.491 18.2966C33.7276 18.5594 33.5403 18.9636 33.1855 18.9636V18.9737Z" fill="white"/>
<path d="M34.2204 25.9578H21.1709V24.9066H32.1605L33.0869 23.7949L34.5259 25.2806C34.7625 25.5434 34.5752 25.9477 34.2204 25.9477V25.9578Z" fill="white"/>
<path d="M30.0316 23.1379H23.014V23.997H30.0316V23.1379Z" fill="white"/>
<path d="M29.9231 19.9845H22.9055V20.8436H29.9231V19.9845Z" fill="white"/>
<path d="M30.0316 21.5814H23.014V22.4405H30.0316V21.5814Z" fill="white"/>
<path d="M29.1839 30.9103H23.6941V31.7694H29.1839V30.9103Z" fill="white"/>
<path d="M17.5932 16.5986C17.5932 16.5986 16.3513 23.2592 13.1086 29.6166L13.7789 30.2028C13.7789 30.2028 17.603 25.3109 19.9882 18.6503L20.6486 17.9731C20.8654 17.7508 20.757 17.3869 20.4712 17.3061L17.603 16.5885L17.5932 16.5986Z" fill="white"/>
<path d="M16.2528 25.4019V37.0049C16.2528 37.1666 16.4105 37.2677 16.5485 37.1868L18.2339 36.2873C18.362 36.2165 18.4408 36.075 18.4408 35.9335V21.4904L16.2429 25.412L16.2528 25.4019Z" fill="white"/>
<path d="M21.9791 19.6307V25.2806H23.7039V20.227L21.9791 19.6307Z" fill="white"/>
<path d="M29.2924 19.6307V25.2806H31.027V21.4904L31.3424 21.1266C31.4508 21.0053 31.4114 20.8132 31.2734 20.7324L29.3022 19.6408L29.2924 19.6307Z" fill="white"/>
<path d="M25.4879 18.5897L25.0936 20.227H26.3946L27.4295 18.7211L25.4879 18.5897Z" fill="white"/>
<path d="M19.8403 24.7146H21.4567V26.0285C21.4567 26.0285 21.2399 27.5244 19.8403 28.8383L18.9927 28.3633C18.9927 28.3633 19.8699 27.4536 19.8699 26.2105C19.8699 25.4423 19.8304 24.7146 19.8304 24.7146H19.8403Z" fill="white"/>
<path d="M34.4667 25.8365L32.5744 27.6356L32.052 27.4435L32.8799 25.412L34.4667 25.8365Z" fill="white"/>
<path d="M22.0678 26.6653H22.531C22.531 26.6653 22.7085 28.4643 22.3241 29.6469C21.9397 30.8294 20.8456 30.6879 20.4908 30.3443C20.136 30.0006 20.1754 29.2123 20.9245 28.6058C21.8017 27.9085 22.0579 26.6653 22.0579 26.6653H22.0678Z" fill="white"/>
<path d="M23.2899 26.2004L25.3597 27.0999L24.8078 27.4739V28.3026C24.8078 28.5957 25.0443 28.8383 25.3498 28.8383H28.4447C28.4447 28.8383 28.9572 28.0601 29.105 27.3324C29.1444 27.1403 29.4106 27.1201 29.4795 27.302C29.726 27.9691 29.6668 28.7271 29.6668 28.7271L29.7949 28.8686C29.9526 29.0506 29.9526 29.3235 29.7949 29.5054L29.6471 29.6671C29.4598 29.8692 29.2036 29.9804 28.9276 29.9804H24.246C23.6842 29.9804 23.2308 29.5155 23.2406 28.9596L23.2998 26.2206L23.2899 26.2004Z" fill="white"/>
<path d="M24.1771 29.5559C24.1771 29.5559 23.0141 31.9311 19.7812 34.6499L20.0178 34.8925C20.0178 34.8925 23.6646 33.8717 25.9512 29.7682L24.1771 29.566V29.5559Z" fill="white"/>
<path d="M29.1544 30.0714C29.1544 30.0714 26.5327 34.5185 20.3529 36.4187L20.4219 37.0251C20.4219 37.0251 25.8428 36.823 30.14 32.2747L30.7609 32.0625C31.0073 31.9816 31.0665 31.6582 30.8694 31.4864L29.1544 30.0714Z" fill="white"/>
<path d="M23.8813 31.7593C25.0542 32.8812 30.889 35.5292 33.8557 35.2766L33.3727 35.6707C32.9095 36.0548 32.4955 36.4894 32.1407 36.9746L32.0027 37.1565C32.0027 37.1565 26.6804 36.2367 23.1027 32.2141L23.8714 31.7593H23.8813Z" fill="white"/>
</g>
<defs>
<clipPath id="clip0_18_4826">
<rect width="50" height="50" fill="white" transform="translate(0 0.689941)"/>
</clipPath>
</defs>
</svg>
