<svg width="50" height="50" viewBox="0 0 50 50" fill="none" xmlns="http://www.w3.org/2000/svg">
<g clip-path="url(#clip0_18_4802)">
<path d="M49.9589 21.8075C49.9795 21.7131 49.9897 21.6293 49.9897 21.5349C49.9897 21.4196 49.9692 21.3147 49.9384 21.2099L49.6203 21.3147L49.9282 21.2099C49.8358 20.9268 49.6203 20.6752 49.3329 20.5599L47.6396 19.8679L48.5735 18.3581C48.6864 18.1799 48.7377 17.9807 48.7377 17.792C48.7377 17.6767 48.7171 17.5718 48.6864 17.467C48.6248 17.2678 48.5119 17.0895 48.3477 16.9637C46.9212 15.8104 43.5858 13.7555 38.0131 13.766C36.9355 13.766 35.7861 13.8394 34.5443 14.0176C33.0665 5.86077 28.8793 2.41141 27.4323 1.45733C27.2681 1.342 27.0731 1.28958 26.8781 1.28958C26.5805 1.28958 26.2828 1.41539 26.0878 1.66702L24.9179 3.10338L23.7993 1.72993C23.6043 1.4783 23.3066 1.342 22.9988 1.35249C22.8038 1.35249 22.5985 1.40491 22.4343 1.53072C20.6281 2.75739 16.8001 6.22772 15.4146 14.0281C14.2139 13.8708 13.0952 13.7974 12.0484 13.7974C6.08579 13.7974 2.6683 16.1145 1.52914 17.0686C1.36493 17.2049 1.26231 17.3726 1.20073 17.5613C1.16994 17.6662 1.14942 17.771 1.14942 17.8864C1.14942 18.0751 1.20073 18.2743 1.31362 18.4525L2.28858 20.0252L0.667068 20.6857C0.369449 20.801 0.153932 21.0526 0.0615675 21.3357C0.0307794 21.4406 0.0102539 21.5454 0.0102539 21.6607C0.0102539 21.7551 0.0205166 21.8494 0.0513048 21.9438C0.626017 24.0721 2.68883 28.8635 9.51354 32.6169C7.74835 36.3808 7.23521 39.5995 7.23521 42.0738C7.23521 44.5481 7.73809 46.2256 8.04597 47.0434C8.11781 47.2321 8.25122 47.3999 8.40516 47.5152C8.57963 47.641 8.79515 47.7144 9.01066 47.7144C9.09277 47.7144 9.17487 47.7144 9.25697 47.683L11.0324 47.2216L11.1453 49.004C11.1658 49.329 11.33 49.6121 11.5661 49.7903C11.7303 49.9056 11.9253 49.979 12.1305 49.9895C12.2742 49.9895 12.4179 49.9895 12.5718 49.9895H12.5924C14.963 49.9895 19.7557 49.2032 24.9897 44.0868C30.3777 49.3185 35.3346 49.9895 37.4589 49.9895C37.6539 49.9895 37.8284 49.9895 37.9721 49.979C38.1773 49.9685 38.3723 49.8952 38.5263 49.7798C38.7726 49.6016 38.9265 49.3185 38.947 48.9935L39.0702 47.1378L40.7635 47.5781C40.8456 47.5991 40.938 47.6096 41.0201 47.6096C41.2356 47.6096 41.4511 47.5362 41.6256 47.4104C41.7898 47.2846 41.913 47.1273 41.9848 46.9281C42.344 45.9425 42.775 44.286 42.775 42.0424C42.775 39.5576 42.2414 36.3598 40.4659 32.6064C47.6088 28.6538 49.5176 23.5165 49.9589 21.818V21.8075Z" fill="#E51C12"/>
<path d="M17.1899 20.6018V19.7001H27.2781L28.4891 18.5154L30.3775 20.0986C30.6854 20.3816 30.4391 20.8115 29.9772 20.8115H17.1899C17.0462 20.8115 17.2515 20.7276 17.1899 20.5913V20.6018Z" fill="white"/>
<path d="M20.3915 20.476L19.8066 21.0736V35.6679C19.8066 35.8985 19.6526 36.1082 19.4371 36.1711L17.98 36.5381C17.6516 36.6324 17.3335 36.3808 17.3335 36.0348V19.2808L20.4017 20.476H20.3915Z" fill="white"/>
<path d="M15.507 35.8042L23.706 33.3613C24.2089 33.2145 24.6604 33.7073 24.4859 34.2105C24.4346 34.3678 24.3217 34.4936 24.1781 34.567L17.5798 38.1002L17.0975 38.5196C16.7794 38.8027 16.2868 38.6454 16.174 38.2365L15.507 35.8042Z" fill="white"/>
<path d="M22.6703 16.5968V20.9268H25.0818V18.8929L25.5846 17.9493L22.6703 16.5968Z" fill="white"/>
<path d="M28.0377 20.4341V29.2409C28.0377 29.5135 28.3045 29.7127 28.5611 29.6289L30.285 29.0417V20.0881L28.0377 20.4236V20.4341Z" fill="white"/>
<path d="M29.0948 24.1455H18.791V25.2674H29.0948V24.1455Z" fill="white"/>
<path d="M29.0948 28.1506H18.791V29.2724H29.0948V28.1506Z" fill="white"/>
<path d="M23.5837 29.7756C23.5837 29.7756 26.0365 35.2485 32.3892 39.0858L34.9138 36.58C34.9138 36.58 29.7106 34.7033 24.805 29.849" fill="white"/>
<path d="M27.2578 32.7427L31.9269 28.6748L33.6919 31.0233L32.3886 30.866C32.3886 30.866 28.7868 33.2879 28.4071 33.529C28.0274 33.7702 27.2578 32.7427 27.2578 32.7427Z" fill="white"/>
</g>
<defs>
<clipPath id="clip0_18_4802">
<rect width="50" height="50" fill="white"/>
</clipPath>
</defs>
</svg>
