<svg width="50" height="50" viewBox="0 0 50 50" fill="none" xmlns="http://www.w3.org/2000/svg">
<g clip-path="url(#clip0_18_5823)">
<g clip-path="url(#clip1_18_5823)">
<path d="M5.0099 47.0773L6.75296 28.7514L15.4979 27.243L18.786 21.6502L18.479 10.7096L24.1043 10.6802L26.6198 13.1093L27.422 24.0304L38.7816 23.8834C39.5541 23.8932 40.1879 24.4907 40.2374 25.2547L40.4157 28.007C40.4454 28.487 40.1681 28.9375 39.7224 29.1236L37.8011 29.9366L40.0691 30.7789C40.5345 30.9552 40.8316 31.396 40.8118 31.8857L40.693 34.9906C40.6732 35.4804 40.3464 35.9015 39.871 36.0387L36.2858 37.0867L39.9205 37.3218C40.5345 37.361 41 37.8703 41 38.4678L40.9505 41.7784C40.8911 42.5619 40.3166 43.2182 39.5442 43.3847L37.5238 43.8157L37.296 46.0978C37.2069 46.9598 36.5235 47.6356 35.652 47.7238L27.8083 48.5269C25.8473 48.7228 23.8666 48.7326 21.8957 48.5465L15.29 46.8716L5 47.0773H5.0099Z" fill="#E51C12"/>
<path d="M3 6.52016L8.13 15.1102L8.99 14.2202L4.3 5.54016L3 6.52016Z" fill="#E51C12"/>
<path d="M45.99 5.65018L40.86 14.2502L40 13.3602L44.68 4.68018L45.99 5.65018Z" fill="#E51C12"/>
<path d="M10.14 10.071C9.93 10.011 9.77 9.86095 9.58 9.76095C9.4 9.66095 9.26 9.54095 9.1 9.41095C8.94 9.28095 8.78 9.18095 8.65 9.02095L8.56 9.09095C8.27 8.72095 8.01 8.78095 8 8.31095C8 7.99095 8.34 8.20095 8.61 8.03095C8.89 7.86095 8.86 7.81095 9.13 7.65095C9.41 7.48095 9.34 7.29095 9.64 7.40095C10.09 7.56095 9.96 7.68095 10.25 8.05095C10.32 8.14095 10.48 8.11095 10.6 8.18095C10.72 8.24095 10.79 8.41095 10.9 8.42095C11 8.42095 11.09 8.44095 11.16 8.42095C11.23 8.39095 11.33 8.35095 11.41 8.26095C11.47 8.19095 11.4 8.02095 11.45 7.89095C11.53 7.71095 11.8 7.51095 11.83 7.17095C11.83 7.09095 11.72 7.03095 11.73 6.95095C11.46 6.99095 11.2 6.91095 10.94 6.88095C10.73 6.86095 10.52 6.91095 10.33 6.86095C10.13 6.81095 9.93 6.75095 9.75 6.67095C9.57 6.59095 9.35 6.54095 9.18 6.42095C9.02 6.30095 8.91 6.10095 8.78 5.95095C8.61 5.74095 8.53 5.46095 8.46 5.18095C8.4 4.91095 8.34 4.66095 8.32 4.42095C8.3 4.18095 8.29 3.94095 8.31 3.71095C8.33 3.45095 8.37 3.21095 8.43 2.97095C8.49 2.73095 8.65 2.52095 8.74 2.28095C8.83 2.03095 8.98 1.83095 9.13 1.63095C9.29 1.42095 9.4 1.16095 9.61 1.01095C9.81 0.860954 10.08 0.860954 10.31 0.770954C10.54 0.670954 10.73 0.470955 10.97 0.430955C11.29 0.370955 11.62 0.300955 11.93 0.320955C12.23 0.350955 12.57 0.370955 12.86 0.480955C12.95 0.520955 12.98 0.660955 13.07 0.710955C13.37 0.500955 13.44 0.580955 13.71 0.330955C13.98 0.0809546 13.79 -0.299045 14.15 -0.319045C14.47 -0.339045 14.33 0.0309545 14.58 0.240955C14.83 0.450955 14.86 0.410955 15.1 0.630955C15.35 0.840954 15.73 0.690955 15.73 1.01095C15.73 1.35095 15.31 1.17095 15.06 1.41095C14.81 1.64095 14.82 1.65095 14.57 1.88095C14.32 2.11095 14.35 2.15095 14.11 2.39095C14.11 2.42095 14.15 2.47095 14.14 2.50095C14.14 2.50095 14.08 2.63095 14.06 2.88095C14.05 3.02095 14.19 3.21095 14.18 3.42095C14.17 3.58095 14 3.74095 13.98 3.93095C13.96 4.13095 13.98 4.35095 13.95 4.59095C13.93 4.80095 13.99 5.00095 13.97 5.23095C13.97 5.28095 14.05 5.32095 14.03 5.34095C13.99 5.40095 13.89 5.34095 13.87 5.41095C13.85 5.62095 13.93 5.84095 13.91 6.07095C13.89 6.28095 13.84 6.49095 13.82 6.71095C13.8 6.93095 13.76 7.14095 13.74 7.35095C13.72 7.60095 13.6 7.83095 13.54 8.05095C13.48 8.30095 13.43 8.52095 13.33 8.74095C13.24 8.94095 13.12 9.11095 12.99 9.28095C12.85 9.45095 12.67 9.55095 12.49 9.67095C12.26 9.84095 12.07 10.061 11.81 10.151" fill="#E51C12"/>
<path d="M21.4 5.46012C21.34 5.68012 21.18 5.88012 21.07 6.09012C20.96 6.31012 20.84 6.52012 20.68 6.72012C20.53 6.91012 20.34 7.06012 20.13 7.21012C19.98 7.32012 19.82 7.40012 19.64 7.48012C19.47 7.55012 19.33 7.74012 19.14 7.78012C18.91 7.83012 18.65 7.89012 18.41 7.87012V7.67012C18.41 7.67012 18.36 7.81012 18.33 7.81012C18.15 7.80012 18 7.65012 17.83 7.60012C17.66 7.55012 17.53 7.44012 17.38 7.35012C17.08 7.19012 16.85 7.03012 16.66 6.80012C16.54 6.64012 16.34 6.55012 16.26 6.38012C16.15 6.16012 16.01 5.93012 15.96 5.70012C15.9 5.39012 16.07 5.06012 16.09 4.75012C16.11 4.52012 16.12 4.29012 16.18 4.06012C16.24 3.83012 16.31 3.61012 16.41 3.40012C16.52 3.18012 16.67 2.99012 16.84 2.79012C17 2.60012 17.2 2.49012 17.41 2.34012C17.56 2.23012 17.65 2.00012 17.83 1.92012C18 1.85012 18.21 1.89012 18.41 1.85012C18.64 1.81012 18.87 1.77012 19.12 1.79012C19.3 1.80012 19.5 1.72012 19.66 1.77012C19.83 1.82012 19.95 2.02012 20.1 2.10012C20.4 2.25012 20.72 2.38012 20.91 2.62012C21.04 2.77012 21.15 2.95012 21.23 3.12012C21.34 3.34012 21.27 3.62012 21.31 3.85012C21.37 4.16012 21.54 4.46012 21.51 4.77012C21.49 5.00012 21.43 5.24012 21.37 5.47012L21.4 5.46012Z" fill="#E51C12"/>
<path d="M27.91 5.11012C27.89 5.34012 27.93 5.58012 27.86 5.81012C27.8 6.03012 27.68 6.24012 27.57 6.45012C27.46 6.67012 27.3 6.84012 27.14 7.04012C26.99 7.23012 26.91 7.51012 26.7 7.66012C26.55 7.77012 26.36 7.84012 26.18 7.92012C26.01 7.99012 25.83 8.07012 25.63 8.11012C25.4 8.16012 25.16 8.11012 24.92 8.11012V8.13012C24.92 8.13012 24.87 8.10012 24.84 8.10012C24.66 8.09012 24.45 8.18012 24.29 8.14012C24.12 8.09012 24.02 7.84012 23.87 7.76012C23.57 7.60012 23.27 7.47012 23.08 7.24012C22.95 7.08012 22.93 6.88012 22.85 6.71012C22.74 6.49012 22.63 6.28012 22.59 6.05012C22.53 5.74012 22.47 5.43012 22.5 5.12012C22.52 4.89012 22.66 4.68012 22.72 4.45012C22.78 4.22012 22.9 4.04012 23.01 3.83012C23.12 3.61012 23.19 3.38012 23.36 3.18012C23.52 2.99012 23.61 2.72012 23.82 2.57012C23.97 2.46012 24.18 2.41012 24.36 2.34012C24.53 2.27012 24.74 2.28012 24.93 2.25012C25.16 2.21012 25.39 2.19012 25.63 2.21012C25.81 2.22012 25.98 2.25012 26.14 2.30012C26.31 2.35012 26.47 2.40012 26.63 2.48012C26.93 2.63012 27.19 2.82012 27.38 3.06012C27.51 3.21012 27.51 3.43012 27.59 3.59012C27.7 3.81012 27.9 3.99012 27.95 4.22012C28.01 4.53012 27.91 4.84012 27.88 5.15012L27.91 5.11012Z" fill="#E51C12"/>
<path d="M35.0617 2.97335C35.0417 3.20335 34.9017 3.41335 34.8817 3.64335C34.8617 3.87335 35.0117 4.11335 34.9917 4.34335C34.9717 4.57335 35.0317 4.80335 35.0117 5.03335C34.9917 5.26335 34.9717 5.46335 34.9517 5.68335C34.9617 5.75335 34.9617 5.78335 34.9017 5.82335C34.8617 5.85335 34.8617 5.82335 34.8417 5.87335C34.8217 6.11335 34.8917 6.34335 34.8817 6.56335C34.8617 6.80335 34.8417 7.03335 34.8217 7.25335C34.8017 7.51335 34.7317 7.74335 34.7117 7.93335C34.6717 8.36335 34.6417 8.61335 34.6417 8.61335C34.6117 8.94335 34.4617 9.27335 34.2617 9.53335C34.0617 9.79335 33.7817 10.0134 33.4917 10.1434C33.3017 10.2234 33.1017 10.3534 32.9017 10.3934C32.6317 10.4434 32.3417 10.2834 32.0717 10.2634C31.8317 10.2434 31.5617 10.3334 31.3317 10.2634C31.1017 10.1934 30.9317 9.96335 30.7217 9.85335C30.5017 9.73335 30.2917 9.61335 30.1017 9.44335C29.9117 9.28335 29.7817 9.08335 29.6317 8.87335C29.5317 8.72335 29.4217 8.60335 29.3517 8.43335C29.2817 8.27335 29.1917 8.12335 29.1617 7.94335C29.1117 7.68335 29.1917 7.43335 29.1617 7.18335C29.1417 6.93335 28.9817 6.69335 29.0017 6.43335C29.0217 6.20335 29.0817 5.97335 29.1417 5.73335C29.2017 5.49335 29.4117 5.30335 29.5117 5.04335C29.6217 4.77335 29.7217 4.53335 29.9217 4.35335C30.1217 4.17335 30.3617 4.07335 30.6017 3.97335C30.8517 3.87335 31.0817 3.71335 31.3517 3.67335C31.6117 3.63335 31.8917 3.65335 32.1617 3.67335C32.4217 3.69335 32.7217 3.83335 32.9717 3.92335C32.9917 3.71335 33.0017 3.43335 33.0217 3.23335C33.0417 3.03335 32.9917 2.81335 33.0217 2.60335C33.0517 2.39335 33.0817 2.18335 33.1017 1.98335C33.1217 1.77335 33.1017 1.56335 33.1317 1.36335C33.1517 1.14335 33.2917 0.953354 33.3017 0.753354H33.3117C33.3517 0.303354 32.9017 0.103354 33.2017 -0.226646C33.4217 -0.476646 33.6217 -0.146646 33.9617 -0.126646C34.3017 -0.106646 34.3017 -0.146646 34.6417 -0.126646C34.9817 -0.106646 35.1717 -0.306646 35.3517 -0.0266461C35.5917 0.353354 35.3917 0.453354 35.3517 0.913354C35.3317 1.12335 35.2217 1.34335 35.2017 1.59335C35.1817 1.81335 35.0417 2.03335 35.0217 2.26335C35.0017 2.48335 35.0817 2.72335 35.0617 2.95335V2.97335Z" fill="#E51C12"/>
<path d="M40.6272 2.66374C40.5872 3.00374 40.4372 2.99374 40.3972 3.33374C40.3572 3.67374 40.5472 3.70374 40.5072 4.04374C40.4672 4.38374 40.3972 4.37374 40.3472 4.72374C40.3072 5.06374 40.3672 5.07374 40.3272 5.42374C40.2872 5.76374 40.2272 5.76373 40.1872 6.10373C40.1472 6.44373 40.3172 6.58374 40.0472 6.79374C39.7872 7.00374 39.7072 6.71374 39.3672 6.67374C39.0272 6.63374 39.0472 6.53374 38.7072 6.49374C38.3772 6.45374 38.2872 6.76374 38.0872 6.49374C37.8772 6.21374 38.1072 6.20373 38.1472 5.85373C38.1872 5.51373 38.0572 5.49374 38.1072 5.14374C38.1472 4.80374 38.2372 4.81374 38.2872 4.46374C38.3272 4.12374 38.2872 4.11374 38.3372 3.77374C38.3772 3.43374 38.5172 3.44374 38.5672 3.10374C38.6072 2.76374 38.4972 2.74374 38.5372 2.40374C38.5772 2.06374 38.4172 1.98374 38.6872 1.76374C38.9472 1.55374 38.9672 1.79374 39.2872 1.89374C39.6072 1.99374 39.6472 1.89374 39.9772 1.94374C40.3072 1.98374 40.5072 1.64374 40.7072 1.91374C40.9172 2.19374 40.6772 2.30374 40.6372 2.65374L40.6272 2.66374Z" fill="#E51C12"/>
<path d="M25.94 4.42018C25.9 4.27018 25.74 4.23018 25.69 4.17018C25.65 4.12018 25.76 3.96018 25.73 3.94018C25.69 3.92018 25.61 3.98018 25.5 3.97018C25.44 3.97018 25.38 3.88018 25.33 3.89018C25.28 3.89018 25.24 3.96018 25.2 3.98018C25.1 4.03018 25.01 4.16018 24.9 4.32018C24.83 4.42018 24.67 4.51018 24.62 4.65018C24.55 4.83018 24.45 5.06018 24.43 5.25018C24.41 5.45018 24.49 5.66018 24.53 5.82018C24.57 5.98018 24.75 6.03018 24.8 6.10018C24.84 6.15018 24.82 6.20018 24.84 6.22018C24.88 6.24018 24.89 6.33018 24.99 6.34018H25.01C25.07 6.34018 25.12 6.33018 25.17 6.32018C25.22 6.31018 25.26 6.28018 25.32 6.25018C25.42 6.19018 25.53 6.07018 25.64 5.91018C25.71 5.80018 25.88 5.72018 25.94 5.58018C26.01 5.40018 25.94 5.15018 25.95 4.96018C25.97 4.77018 25.98 4.58018 25.95 4.43018L25.94 4.42018Z" fill="white"/>
<path d="M12.0501 2.30097L12.0101 2.32097L12.0401 2.28097C12.0401 2.28097 12.0401 2.28097 12.0401 2.31097L12.0801 2.29097C12.0801 2.29097 12.0901 2.12097 12.0501 2.10097C11.9901 2.08097 11.8601 2.24097 11.7701 2.24097C11.6101 2.23097 11.3801 2.08097 11.2001 2.14097C11.0201 2.20097 10.8601 2.35097 10.7401 2.48097C10.6601 2.56097 10.7401 2.74097 10.6801 2.87097C10.6001 3.09097 10.3501 3.21097 10.3001 3.38097C10.2601 3.55097 10.2301 3.71097 10.2201 3.86097C10.2101 3.99097 10.2601 4.14097 10.2801 4.29097C10.2901 4.45097 10.3701 4.62097 10.4201 4.83097L10.3801 4.85097L10.5301 4.78097C10.5301 4.78097 10.4701 4.94097 10.5301 4.98097C10.6501 5.06097 10.8801 5.11097 11.0801 5.12097C11.2301 5.13097 11.3501 5.04097 11.4501 5.01097C11.5601 4.97097 11.7201 5.05097 11.8001 4.95097C11.8801 4.85097 11.9501 4.86097 12.0001 4.74097C12.0201 4.50097 11.9301 4.24097 11.9501 4.03097C11.9701 3.78097 12.1201 3.57097 12.1401 3.37097C12.1601 3.10097 12.0401 2.86097 12.0501 2.69097C12.0701 2.50097 12.0501 2.38097 12.0301 2.33097L12.0501 2.30097Z" fill="white"/>
<path d="M19.32 3.69023C19.32 3.69023 19.27 3.55023 19.24 3.53023C19.2 3.51023 19.11 3.50023 19 3.49023C18.94 3.49023 18.89 3.60023 18.84 3.61023C18.79 3.61023 18.79 3.70023 18.74 3.72023C18.64 3.77023 18.41 3.74023 18.3 3.89023C18.23 3.99023 18.18 4.15023 18.13 4.28023C18.06 4.46023 18.03 4.68023 18.01 4.88023C17.99 5.08023 17.98 5.28023 18.01 5.44023C18.05 5.60023 18.07 5.77023 18.13 5.84023C18.17 5.89023 18.31 5.80023 18.34 5.82023C18.38 5.84023 18.38 5.95023 18.48 5.96023L18.5 5.93023C18.56 5.93023 18.58 5.82023 18.63 5.80023C18.68 5.79023 18.77 5.91023 18.82 5.88023C18.92 5.82023 18.97 5.64023 19.08 5.48023C19.15 5.37023 19.21 5.26023 19.26 5.12023C19.33 4.94023 19.52 4.76023 19.53 4.57023C19.55 4.38023 19.39 4.20023 19.35 4.05023C19.31 3.90023 19.36 3.74023 19.31 3.67023L19.32 3.69023Z" fill="white"/>
<path d="M32.7316 5.7734C32.6716 5.6634 32.4516 5.7534 32.3516 5.7034C32.2516 5.6534 32.1716 5.5334 32.0216 5.5234C31.8916 5.5134 31.7616 5.5634 31.6416 5.5934C31.5216 5.6234 31.4316 5.63339 31.3916 5.67339C31.3616 5.69339 31.4316 5.7134 31.4316 5.7234C31.3516 5.9234 31.2116 6.0534 31.1716 6.2034C31.1316 6.3534 30.9816 6.4734 30.9716 6.6034C30.9616 6.7534 31.0616 6.9034 31.0816 7.0734C31.1016 7.2434 31.0116 7.4634 31.0516 7.6934C31.0916 7.9034 31.3316 7.9834 31.4516 8.1134C31.5716 8.2334 31.7416 8.2534 31.9216 8.3234C32.0416 8.3634 32.1316 8.3834 32.2416 8.3934C32.3416 8.3934 32.4216 8.5034 32.4816 8.4934C32.5416 8.4834 32.6216 8.5434 32.6416 8.5334L32.6216 8.4534C32.6216 8.4534 32.5816 8.22339 32.6116 7.84339C32.6216 7.67339 32.6716 7.4734 32.6916 7.2434C32.7116 7.0634 32.6916 6.8534 32.7116 6.6434C32.7316 6.4534 32.8616 6.2334 32.8816 6.0234C32.8516 5.8934 32.8216 5.8834 32.7516 5.7734H32.7316Z" fill="white"/>
<path d="M39.0757 10.2065C38.8557 10.4265 38.7257 10.1065 38.4057 10.0865C38.0857 10.0665 38.0957 10.0865 37.7757 10.0565C37.4557 10.0265 37.2957 10.2865 37.1157 10.0365C36.8957 9.73649 37.0357 9.64649 37.1557 9.25649C37.2657 8.90649 37.2957 8.90649 37.3257 8.53649C37.3557 8.16649 37.0857 8.06649 37.3457 7.80649C37.5657 7.58649 37.6557 7.71649 37.9657 7.73649C38.2757 7.75649 38.2757 7.75649 38.5957 7.77649C38.9157 7.79649 39.0457 7.67649 39.2257 7.92649C39.4457 8.22649 39.1957 8.30649 39.1657 8.67649C39.1357 9.04649 39.1157 9.04649 39.0857 9.40649C39.0557 9.76649 39.3357 9.92649 39.0757 10.1865V10.2065Z" fill="#E51C12"/>
</g>
</g>
<defs>
<clipPath id="clip0_18_5823">
<rect width="50" height="50" fill="white"/>
</clipPath>
<clipPath id="clip1_18_5823">
<rect width="43.13" height="50.09" fill="white" transform="translate(3 -1.31982)"/>
</clipPath>
</defs>
</svg>
