<svg width="545" height="125" viewBox="0 0 545 125" fill="none" xmlns="http://www.w3.org/2000/svg">
<circle cx="58.7814" cy="62.1818" r="55.6237" stroke="#1F1F1F" stroke-width="5.56237"/>
<circle cx="201.178" cy="62.1818" r="55.6237" stroke="#1F1F1F" stroke-width="5.56237"/>
<circle cx="343.575" cy="62.1818" r="55.6237" stroke="#1F1F1F" stroke-width="5.56237"/>
<circle cx="485.972" cy="62.1818" r="55.6237" stroke="#1F1F1F" stroke-width="5.56237"/>
<line x1="114.961" y1="59.9566" x2="142.773" y2="59.9566" stroke="#1F1F1F" stroke-width="5.56237"/>
<line x1="257.358" y1="59.9566" x2="285.17" y2="59.9566" stroke="#1F1F1F" stroke-width="5.56237"/>
<line x1="399.755" y1="59.9566" x2="427.566" y2="59.9566" stroke="#1F1F1F" stroke-width="5.56237"/>
<path d="M35.4806 85.9406C34.5832 85.9406 33.8082 85.5939 33.1555 84.9005C32.5029 84.2478 32.1765 83.4728 32.1765 82.5754C32.1765 81.6372 32.5029 80.8622 33.1555 80.2503C33.8082 79.5977 34.5832 79.2714 35.4806 79.2714H56.9569V67.9519H43.9854C43.088 67.9519 42.2926 67.6256 41.5992 66.973C40.9465 66.3203 40.6202 65.5249 40.6202 64.5867C40.6202 63.6485 40.9465 62.8735 41.5992 62.2616C42.2926 61.609 43.088 61.2826 43.9854 61.2826H56.9569V51.7988H44.0466C43.2716 53.1857 42.4558 54.5318 41.5992 55.8371C40.7426 57.1016 39.9064 58.2641 39.0906 59.3247C38.4379 60.1813 37.5813 60.7524 36.5207 61.0379C35.4602 61.2826 34.4608 61.0787 33.5226 60.426C32.7068 59.8958 32.2173 59.1411 32.0542 58.1622C31.891 57.1832 32.0949 56.3062 32.666 55.5312C33.8897 53.9811 35.1543 52.1047 36.4596 49.902C37.8056 47.6993 39.0702 45.4355 40.2531 43.1104C41.436 40.7853 42.3742 38.6642 43.0677 36.747C43.4756 35.6049 44.1282 34.8707 45.0256 34.5443C45.9638 34.1772 46.9428 34.1568 47.9625 34.4831C48.9007 34.7687 49.5738 35.3601 49.9817 36.2575C50.4304 37.1549 50.4508 38.1339 50.0429 39.1945C49.3086 41.1524 48.452 43.1716 47.4731 45.2519H56.9569V36.2575C56.9569 35.0746 57.324 34.1364 58.0582 33.443C58.8333 32.7495 59.7511 32.4028 60.8116 32.4028C61.8722 32.4028 62.7696 32.7495 63.5038 33.443C64.2788 34.1364 64.6663 35.0746 64.6663 36.2575V45.2519H81.982C82.9202 45.2519 83.6952 45.5782 84.3071 46.2309C84.9597 46.8427 85.2861 47.5974 85.2861 48.4948C85.2861 49.3922 84.9597 50.1672 84.3071 50.8198C83.6952 51.4725 82.9202 51.7988 81.982 51.7988H64.6663V61.2826H77.3319C78.27 61.2826 79.0655 61.609 79.7181 62.2616C80.3708 62.8735 80.6971 63.6485 80.6971 64.5867C80.6971 65.5249 80.3708 66.3203 79.7181 66.973C79.0655 67.6256 78.27 67.9519 77.3319 67.9519H64.6663V79.2714H84.1847C85.1229 79.2714 85.8979 79.5977 86.5098 80.2503C87.1624 80.8622 87.4888 81.6372 87.4888 82.5754C87.4888 83.4728 87.1624 84.2478 86.5098 84.9005C85.8979 85.5939 85.1229 85.9406 84.1847 85.9406H35.4806Z" fill="#1F1F1F"/>
<path d="M208.164 87.2867C204.82 87.2867 202.189 86.94 200.271 86.2466C198.354 85.5531 196.988 84.3498 196.172 82.6366C195.397 80.9234 195.009 78.5779 195.009 75.6002C195.009 72.7041 195.356 70.4198 196.05 68.7474C196.784 67.0749 197.987 65.8716 199.66 65.1374C201.373 64.4031 203.718 63.9952 206.696 63.9137V55.8983H193.296C192.276 55.8983 191.481 55.5923 190.91 54.9805C190.339 54.3278 190.053 53.5528 190.053 52.6554C190.053 51.758 190.339 51.0034 190.91 50.3915C191.481 49.7389 192.276 49.4125 193.296 49.4125H206.696V42.1314C204.942 42.2946 203.208 42.4373 201.495 42.5597C199.782 42.6821 198.211 42.7841 196.784 42.8656C195.642 42.9064 194.724 42.6821 194.03 42.1926C193.337 41.6623 192.949 40.8669 192.868 39.8063C192.827 38.8681 193.113 38.0931 193.725 37.4813C194.377 36.8694 195.213 36.5431 196.233 36.5023C198.069 36.4615 200.108 36.3595 202.352 36.1964C204.636 35.9924 206.941 35.768 209.266 35.5233C211.591 35.2378 213.794 34.9318 215.874 34.6055C217.954 34.2792 219.749 33.9325 221.258 33.5653C222.4 33.3206 223.4 33.3818 224.256 33.7489C225.113 34.0752 225.664 34.7075 225.908 35.6457C226.112 36.5431 226.01 37.4201 225.602 38.2767C225.195 39.0925 224.46 39.6024 223.4 39.8063C222.135 40.0919 220.687 40.3774 219.056 40.6629C217.424 40.9077 215.711 41.132 213.916 41.336V49.4125H227.499C228.519 49.4125 229.314 49.7389 229.885 50.3915C230.457 51.0034 230.742 51.758 230.742 52.6554C230.742 53.5528 230.457 54.3278 229.885 54.9805C229.314 55.5923 228.519 55.8983 227.499 55.8983H213.916V63.9137C216.894 63.9544 219.239 64.3623 220.952 65.1374C222.666 65.8716 223.889 67.0749 224.623 68.7474C225.358 70.4198 225.725 72.7041 225.725 75.6002C225.725 78.5779 225.317 80.9234 224.501 82.6366C223.726 84.3498 222.38 85.5531 220.463 86.2466C218.586 86.94 215.976 87.2867 212.631 87.2867H208.164ZM177.449 86.7972C176.511 86.267 175.899 85.4715 175.613 84.411C175.369 83.3504 175.532 82.3715 176.103 81.4741C176.878 80.2095 177.735 78.7207 178.673 77.0075C179.652 75.2535 180.59 73.4791 181.487 71.6843C182.385 69.8895 183.099 68.3394 183.629 67.0341C183.996 66.096 184.649 65.4433 185.587 65.0762C186.525 64.6683 187.504 64.6887 188.524 65.1374C189.462 65.5453 190.053 66.2387 190.298 67.2177C190.584 68.1559 190.563 69.0941 190.237 70.0323C189.87 71.0112 189.38 72.1534 188.768 73.4587C188.197 74.764 187.545 76.1305 186.81 77.5581C186.117 78.945 185.424 80.3115 184.73 81.6576C184.037 82.9629 183.425 84.1051 182.895 85.084C182.364 86.0222 181.548 86.6749 180.447 87.042C179.387 87.4091 178.387 87.3275 177.449 86.7972ZM208.164 80.8622H212.631C214.181 80.8622 215.384 80.7398 216.241 80.4951C217.098 80.2095 217.689 79.6793 218.015 78.9042C218.382 78.1292 218.566 77.0075 218.566 75.539C218.566 73.3771 218.158 71.9698 217.342 71.3172C216.527 70.6237 214.956 70.277 212.631 70.277H208.164C205.799 70.277 204.208 70.6237 203.392 71.3172C202.617 72.0106 202.229 73.3975 202.229 75.4778C202.229 76.9871 202.393 78.1292 202.719 78.9042C203.045 79.6793 203.637 80.2095 204.493 80.4951C205.391 80.7398 206.614 80.8622 208.164 80.8622ZM185.77 44.7012C185.199 44.2933 184.445 43.8038 183.506 43.2328C182.609 42.6617 181.732 42.111 180.875 41.5807C180.019 41.0097 179.325 40.5814 178.795 40.2958C177.938 39.8471 177.408 39.1741 177.204 38.2767C177.041 37.3385 177.163 36.4411 177.571 35.5845C178.02 34.7279 178.754 34.1772 179.774 33.9325C180.835 33.6877 181.814 33.8101 182.711 34.2996C183.241 34.5443 183.935 34.9318 184.791 35.4621C185.689 35.9924 186.586 36.5431 187.484 37.1141C188.422 37.6444 189.176 38.1135 189.747 38.5214C190.604 39.0925 191.134 39.8879 191.338 40.9077C191.583 41.8867 191.42 42.8248 190.849 43.7222C190.278 44.5381 189.482 45.0479 188.462 45.2519C187.484 45.4151 186.586 45.2315 185.77 44.7012ZM182.956 58.5905C182.385 58.1826 181.65 57.6931 180.753 57.122C179.856 56.5509 178.958 56.0002 178.061 55.47C177.204 54.9397 176.511 54.5318 175.981 54.2462C175.165 53.7975 174.655 53.1041 174.451 52.1659C174.247 51.2277 174.369 50.3507 174.818 49.5349C175.267 48.6375 176.001 48.0868 177.021 47.8829C178.04 47.6382 178.999 47.7401 179.896 48.1888C180.427 48.4744 181.141 48.8823 182.038 49.4125C182.935 49.902 183.833 50.4323 184.73 51.0034C185.628 51.5337 186.362 52.0028 186.933 52.4107C187.789 52.9817 188.32 53.7772 188.524 54.7969C188.768 55.8167 188.605 56.7549 188.034 57.6115C187.463 58.4681 186.668 58.9984 185.648 59.2023C184.669 59.3655 183.772 59.1615 182.956 58.5905Z" fill="#1F1F1F"/>
<path d="M331.104 88.9388C330.247 88.9388 329.513 88.6532 328.901 88.0822C328.289 87.5519 327.983 86.7972 327.983 85.8183V75.7226C327.045 77.1095 326.046 78.4759 324.985 79.822C323.966 81.1681 322.987 82.3715 322.048 83.432C321.437 84.1255 320.662 84.513 319.723 84.5945C318.826 84.6761 318.051 84.4314 317.398 83.8603C316.786 83.2892 316.44 82.6162 316.358 81.8412C316.277 81.0254 316.521 80.3319 317.092 79.7608C318.438 78.4148 319.907 76.7831 321.498 74.866C323.089 72.908 324.455 71.052 325.597 69.298H319.54C318.683 69.298 318.01 69.0329 317.521 68.5026C317.031 67.9723 316.786 67.3197 316.786 66.5447C316.786 65.7696 317.031 65.117 317.521 64.5867C318.01 64.0564 318.683 63.7913 319.54 63.7913H327.983V62.5064C327.983 62.0577 328.065 61.6498 328.228 61.2826C328.391 60.9155 328.595 60.5892 328.84 60.3037C328.31 59.855 327.983 59.3043 327.861 58.6516C327.739 57.999 327.861 57.3871 328.228 56.8161C328.187 56.7753 328.147 56.7549 328.106 56.7549C328.106 56.7549 328.085 56.7345 328.045 56.6937C327.759 56.4897 327.249 56.143 326.515 55.6535C325.822 55.164 325.189 54.7153 324.618 54.3074C323.598 56.1022 322.681 57.5911 321.865 58.774C321.375 59.4675 320.702 59.8958 319.846 60.0589C319.03 60.2221 318.275 60.0793 317.582 59.6306C316.929 59.2635 316.521 58.6924 316.358 57.9174C316.195 57.1016 316.358 56.3878 316.848 55.7759C317.786 54.4706 318.744 52.9002 319.723 51.0646C320.743 49.1882 321.559 47.5158 322.171 46.0473C322.334 45.517 322.681 45.0887 323.211 44.7624H319.356C318.459 44.7624 317.765 44.4973 317.276 43.967C316.786 43.3959 316.542 42.7229 316.542 41.9478C316.542 41.132 316.786 40.459 317.276 39.9287C317.765 39.3576 318.459 39.0721 319.356 39.0721H327.494V35.095C327.494 34.0752 327.82 33.2798 328.473 32.7087C329.126 32.0969 329.901 31.791 330.798 31.791C331.736 31.791 332.511 32.0969 333.123 32.7087C333.776 33.2798 334.102 34.0752 334.102 35.095V39.0721H341.812C342.709 39.0721 343.402 39.3576 343.892 39.9287C344.422 40.459 344.687 41.132 344.687 41.9478C344.687 42.7229 344.422 43.3959 343.892 43.967C343.402 44.4973 342.709 44.7624 341.812 44.7624H326.576C327.147 45.0887 327.514 45.5578 327.678 46.1697C327.882 46.7815 327.861 47.4138 327.616 48.0665C327.535 48.2704 327.433 48.4948 327.31 48.7395C327.229 48.9435 327.147 49.1678 327.066 49.4125C327.514 49.6981 328.167 50.1264 329.024 50.6975C329.88 51.2277 330.553 51.656 331.043 51.9824C331.491 51.0442 331.92 50.106 332.328 49.1678C332.736 48.2296 333.082 47.373 333.368 46.598C333.694 45.823 334.224 45.2927 334.959 45.0071C335.734 44.7216 336.509 44.7216 337.284 45.0071C338.1 45.2927 338.671 45.7822 338.997 46.4756C339.323 47.1691 339.344 47.9033 339.058 48.6783C338.977 48.9231 338.875 49.1678 338.752 49.4125C338.671 49.6573 338.569 49.902 338.446 50.1468C338.773 50.3507 339.242 50.6771 339.854 51.1258C340.506 51.5337 341.138 51.9416 341.75 52.3495C342.892 50.5955 343.994 48.6987 345.054 46.6592C346.156 44.5788 347.135 42.4985 347.991 40.4182C348.889 38.3379 349.582 36.4207 350.072 34.6667C350.316 33.8101 350.826 33.1574 351.601 32.7087C352.417 32.26 353.274 32.1785 354.171 32.464C355.191 32.7495 355.864 33.2798 356.19 34.0548C356.517 34.8299 356.537 35.6253 356.251 36.4411C355.844 37.5832 355.395 38.807 354.905 40.1123C354.416 41.3768 353.886 42.6617 353.315 43.967H357.965C358.291 43.2328 358.699 42.2946 359.188 41.1524C359.678 39.9695 360.147 38.8274 360.596 37.726C361.044 36.6247 361.371 35.7884 361.575 35.2174C361.86 34.3608 362.39 33.7489 363.165 33.3818C363.981 32.9739 364.838 32.9127 365.735 33.1982C366.673 33.5246 367.306 34.0752 367.632 34.8503C367.958 35.6253 367.958 36.4207 367.632 37.2365C367.306 38.0523 366.837 39.1129 366.225 40.4182C365.613 41.7235 365.042 42.9064 364.512 43.967H369.957C371.956 43.967 372.955 44.946 372.955 46.9039C372.955 48.8619 371.956 49.8408 369.957 49.8408H364.083V56.143H368.672C369.61 56.143 370.324 56.4489 370.814 57.0608C371.344 57.6319 371.609 58.3253 371.609 59.1411C371.609 59.9569 371.344 60.6708 370.814 61.2826C370.324 61.8537 369.61 62.1393 368.672 62.1393H364.083V68.319H368.672C369.61 68.319 370.324 68.625 370.814 69.2368C371.344 69.8079 371.609 70.5014 371.609 71.3172C371.609 72.133 371.344 72.8468 370.814 73.4587C370.324 74.0298 369.61 74.3153 368.672 74.3153H364.083V81.2293H370.447C371.385 81.2293 372.119 81.5148 372.649 82.0859C373.18 82.657 373.445 83.3708 373.445 84.2274C373.445 85.084 373.18 85.7979 372.649 86.3689C372.119 86.94 371.385 87.2256 370.447 87.2256H356.68C352.927 87.2256 350.235 86.5525 348.603 85.2064C347.012 83.8603 346.217 81.6168 346.217 78.4759V57.0608C346.054 57.3463 345.85 57.6319 345.605 57.9174C345.401 58.2029 345.197 58.4885 344.993 58.774C344.463 59.4675 343.749 59.8754 342.852 59.9977C341.954 60.1201 341.159 59.9366 340.465 59.4471C339.731 58.9984 339.323 58.3253 339.242 57.4279C338.793 57.1016 338.263 56.7345 337.651 56.3266C337.08 55.9187 336.57 55.5516 336.121 55.2252C335.713 56.0002 335.305 56.7549 334.898 57.4891C334.49 58.1826 334.102 58.8148 333.735 59.3859C333.653 59.5083 333.551 59.6306 333.429 59.753C333.347 59.8754 333.245 59.9773 333.123 60.0589C333.857 60.6708 334.224 61.4866 334.224 62.5064V63.7913H341.567C342.423 63.7913 343.096 64.0564 343.586 64.5867C344.075 65.117 344.32 65.7696 344.32 66.5447C344.32 67.3197 344.075 67.9723 343.586 68.5026C343.096 69.0329 342.423 69.298 341.567 69.298H335.203C335.897 70.0323 336.713 70.8481 337.651 71.7455C338.589 72.6429 339.527 73.4995 340.465 74.3153C341.404 75.1311 342.199 75.8041 342.852 76.3344C343.545 76.8647 343.933 77.5581 344.014 78.4148C344.096 79.2306 343.871 79.9648 343.341 80.6175C342.77 81.3109 342.036 81.6984 341.138 81.78C340.241 81.8208 339.446 81.5352 338.752 80.9234C337.447 79.7405 335.938 78.2312 334.224 76.3956V85.8183C334.224 86.7972 333.919 87.5519 333.307 88.0822C332.695 88.6532 331.961 88.9388 331.104 88.9388ZM356.68 81.2293H357.659V74.3153H352.641V77.6805C352.641 79.0674 352.927 80.0056 353.498 80.4951C354.11 80.9846 355.171 81.2293 356.68 81.2293ZM352.641 56.143H357.659V49.8408H352.641V56.143ZM352.641 68.319H357.659V62.1393H352.641V68.319Z" fill="#1F1F1F"/>
<path d="M466.403 88.6328C465.343 88.9184 464.404 88.9184 463.589 88.6328C462.814 88.3473 462.263 87.7354 461.937 86.7972C461.651 85.9814 461.692 85.1452 462.059 84.2886C462.426 83.4728 463.058 82.9833 463.956 82.8202C465.506 82.453 467.362 81.882 469.524 81.1069C471.686 80.3319 473.643 79.5365 475.397 78.7207C473.032 78.3536 471.359 77.5174 470.38 76.2121C469.401 74.9068 468.912 72.9284 468.912 70.277V62.4452C468.912 60.1609 469.258 58.3865 469.952 57.122C470.686 55.8575 471.869 54.9805 473.501 54.491C475.173 53.9607 477.396 53.6956 480.17 53.6956H494.182C496.996 53.6956 499.219 53.9607 500.851 54.491C502.483 54.9805 503.645 55.8575 504.338 57.122C505.073 58.3865 505.44 60.1609 505.44 62.4452V70.277C505.44 72.9284 504.95 74.9068 503.971 76.2121C502.992 77.5174 501.32 78.3536 498.954 78.7207C500.667 79.4957 502.584 80.2707 504.706 81.0458C506.827 81.8208 508.642 82.3918 510.151 82.759C511.13 83.0037 511.824 83.5136 512.231 84.2886C512.639 85.1044 512.701 85.9406 512.415 86.7972C512.13 87.6946 511.579 88.2861 510.763 88.5716C509.947 88.898 509.009 88.9184 507.948 88.6328C506.643 88.2657 505.134 87.7558 503.421 87.1032C501.748 86.4913 500.096 85.8183 498.465 85.084C496.833 84.3906 495.446 83.7379 494.304 83.1261C493.529 82.7182 493.039 82.1267 492.836 81.3517C492.672 80.5767 492.795 79.8424 493.203 79.149L493.264 79.0878H481.088L481.149 79.149C481.598 79.8424 481.72 80.5767 481.516 81.3517C481.353 82.1267 480.863 82.7182 480.048 83.1261C478.905 83.7379 477.519 84.3906 475.887 85.084C474.255 85.8183 472.603 86.4913 470.931 87.1032C469.258 87.7558 467.749 88.2657 466.403 88.6328ZM495.528 51.86C492.55 51.86 490.225 51.6356 488.552 51.1869C486.88 50.6975 485.697 49.8816 485.004 48.7395C484.351 47.5566 484.025 45.9657 484.025 43.967V35.2786C484.025 34.2588 484.331 33.4634 484.943 32.8923C485.595 32.2804 486.37 31.9745 487.268 31.9745C488.206 31.9745 488.981 32.2804 489.593 32.8923C490.205 33.4634 490.51 34.2588 490.51 35.2786V37.5424C492.101 37.2569 493.855 36.9102 495.772 36.5023C497.69 36.0944 499.546 35.6661 501.34 35.2174C503.135 34.7279 504.624 34.2996 505.807 33.9325C506.745 33.6061 507.602 33.6061 508.377 33.9325C509.193 34.218 509.702 34.7483 509.906 35.5233C510.151 36.3799 510.131 37.1549 509.845 37.8484C509.56 38.5418 508.887 39.0313 507.826 39.3168C506.317 39.7247 504.522 40.1734 502.442 40.6629C500.361 41.1116 498.261 41.5399 496.14 41.9478C494.059 42.315 492.183 42.6005 490.51 42.8044C490.551 44.1098 490.857 44.9664 491.428 45.3743C492.04 45.7822 493.407 45.9861 495.528 45.9861H502.686C504.481 45.9861 505.827 45.7618 506.725 45.3131C507.622 44.8644 508.275 44.069 508.683 42.9268C509.009 42.111 509.56 41.5399 510.335 41.2136C511.11 40.8465 511.885 40.7649 512.66 40.9689C513.598 41.2544 514.271 41.7643 514.679 42.4985C515.087 43.192 515.189 44.0078 514.985 44.946C514.373 47.5566 513.108 49.3718 511.191 50.3915C509.274 51.3705 506.439 51.86 502.686 51.86H495.528ZM473.011 53.2061C472.073 53.2061 471.257 52.9002 470.564 52.2883C469.911 51.6356 469.585 50.7994 469.585 49.7797V45.2519C468.647 45.823 467.688 46.3736 466.709 46.9039C465.771 47.3934 464.894 47.8421 464.078 48.25C463.058 48.7395 462.059 48.8823 461.08 48.6783C460.142 48.4336 459.448 47.8625 459 46.9651C458.592 46.1493 458.531 45.3335 458.816 44.5177C459.102 43.6611 459.673 43.0288 460.529 42.6209C462.202 41.8867 463.976 40.9893 465.852 39.9287C467.729 38.8274 469.524 37.6648 471.237 36.4411C472.991 35.2174 474.459 34.0752 475.642 33.0147C476.336 32.4028 477.131 32.1173 478.028 32.1581C478.967 32.1989 479.742 32.566 480.354 33.2594C480.965 33.9121 481.251 34.6667 481.21 35.5233C481.169 36.3391 480.802 37.0734 480.109 37.726C479.579 38.1747 478.987 38.6438 478.334 39.1333C477.723 39.6228 477.07 40.1327 476.376 40.6629V49.7797C476.376 50.7994 476.05 51.6356 475.397 52.2883C474.745 52.9002 473.949 53.2061 473.011 53.2061ZM476.071 67.4624H498.22V65.0762H476.071V67.4624ZM480.292 74.0705H494.059C495.609 74.0705 496.67 73.9278 497.241 73.6422C497.812 73.3567 498.138 72.6837 498.22 71.6231H476.132C476.213 72.6837 476.54 73.3567 477.111 73.6422C477.723 73.9278 478.783 74.0705 480.292 74.0705ZM476.132 60.9155H498.22C498.098 59.9366 497.751 59.3247 497.18 59.0799C496.609 58.8352 495.568 58.7128 494.059 58.7128H480.292C478.783 58.7128 477.743 58.8352 477.172 59.0799C476.601 59.3247 476.254 59.9366 476.132 60.9155Z" fill="#1F1F1F"/>
</svg>
