<svg width="70" height="615" viewBox="0 0 70 615" fill="none" xmlns="http://www.w3.org/2000/svg">
<circle cx="34.9924" cy="35.4519" r="32.8178" stroke="#1F1F1F" stroke-width="3.28178"/>
<path d="M33.8853 48.9661C31.8396 48.9661 30.143 48.8217 28.7952 48.5329C27.4475 48.2682 26.3766 47.7869 25.5824 47.089C24.8123 46.367 24.2587 45.3802 23.9218 44.1288C23.5849 42.8773 23.4164 41.2769 23.4164 39.3275V29.725C23.4164 27.7757 23.5849 26.1753 23.9218 24.9238C24.2587 23.6723 24.8123 22.6977 25.5824 21.9997C26.3766 21.2777 27.4475 20.7844 28.7952 20.5196C30.143 20.2309 31.8396 20.0865 33.8853 20.0865H36.6289C38.6745 20.0865 40.3712 20.2309 41.7189 20.5196C43.0666 20.7844 44.1255 21.2777 44.8957 21.9997C45.6899 22.6977 46.2554 23.6723 46.5923 24.9238C46.9293 26.1753 47.0977 27.7757 47.0977 29.725V39.3275C47.0977 41.2769 46.9293 42.8773 46.5923 44.1288C46.2554 45.3802 45.6899 46.367 44.8957 47.089C44.1255 47.7869 43.0666 48.2682 41.7189 48.5329C40.3712 48.8217 38.6745 48.9661 36.6289 48.9661H33.8853ZM33.8853 44.923H36.6289C38.3376 44.923 39.6131 44.7906 40.4554 44.5259C41.3218 44.2371 41.8994 43.6956 42.1882 42.9014C42.5011 42.1072 42.6575 40.9159 42.6575 39.3275V36.223H27.8567V39.3275C27.8567 40.9159 28.0011 42.1072 28.2899 42.9014C28.6027 43.6956 29.1923 44.2371 30.0587 44.5259C30.9251 44.7906 32.2006 44.923 33.8853 44.923ZM27.8567 32.2881H42.6575V29.725C42.6575 28.1367 42.5011 26.9454 42.1882 26.1512C41.8994 25.3329 41.3218 24.7914 40.4554 24.5267C39.6131 24.262 38.3376 24.1296 36.6289 24.1296H33.8853C32.2006 24.1296 30.9251 24.262 30.0587 24.5267C29.1923 24.7914 28.6027 25.3329 28.2899 26.1512C28.0011 26.9454 27.8567 28.1367 27.8567 29.725V32.2881Z" fill="#1F1F1F"/>
<g clip-path="url(#clip0_45_558)">
<path d="M16.4615 526.767C7.82981 515.3 7.82981 499.294 16.4615 487.827C23.8976 477.937 23.8976 464.106 16.4615 454.215C7.82981 442.749 7.82981 426.743 16.4615 415.276C23.8976 405.386 23.8976 391.554 16.4615 381.664C7.82981 370.197 7.82981 354.192 16.4615 342.725C23.8976 332.835 23.8976 319.003 16.4615 309.113C7.82981 297.646 7.82981 281.641 16.4615 270.174C23.8976 260.284 23.8976 246.452 16.4615 236.562C7.82981 225.095 7.82981 209.089 16.4615 197.623C23.8976 187.732 23.8976 173.901 16.4615 164.011C7.82981 152.544 7.82981 136.538 16.4615 125.071C23.8976 115.181 23.8976 101.349 16.4615 91.4593L20.0002 88.8076C28.6319 100.274 28.6319 116.28 20.0002 127.747C12.5641 137.637 12.5641 151.469 20.0002 161.359C28.6319 172.826 28.6319 188.831 20.0002 200.298C12.5641 210.188 12.5641 224.02 20.0002 233.91C28.6319 245.377 28.6319 261.383 20.0002 272.849C12.5641 282.739 12.5641 296.571 20.0002 306.461C28.6319 317.928 28.6319 333.934 20.0002 345.401C12.5641 355.291 12.5641 369.122 20.0002 379.013C28.6319 390.479 28.6319 406.485 20.0002 417.952C12.5641 427.842 12.5641 441.674 20.0002 451.564C28.6319 463.031 28.6319 479.036 20.0002 490.503C12.5641 500.393 12.5641 514.225 20.0002 524.115L16.4615 526.767Z" fill="#1F1F1F"/>
<path d="M33.223 526.767C24.5913 515.3 24.5913 499.294 33.223 487.827C40.6592 477.937 40.6592 464.106 33.223 454.215C24.5913 442.749 24.5913 426.743 33.223 415.276C40.6592 405.386 40.6592 391.554 33.223 381.664C24.5913 370.197 24.5913 354.192 33.223 342.725C40.6592 332.835 40.6592 319.003 33.223 309.113C24.5913 297.646 24.5913 281.641 33.223 270.174C40.6592 260.284 40.6592 246.452 33.223 236.562C24.5913 225.095 24.5913 209.089 33.223 197.623C40.6592 187.732 40.6592 173.901 33.223 164.011C24.5913 152.544 24.5913 136.538 33.223 125.071C40.6592 115.181 40.6592 101.349 33.223 91.4593L36.7618 88.8076C45.3935 100.274 45.3935 116.28 36.7618 127.747C29.3256 137.637 29.3256 151.469 36.7618 161.359C45.3935 172.826 45.3935 188.831 36.7618 200.298C29.3256 210.188 29.3256 224.02 36.7618 233.91C45.3935 245.377 45.3935 261.383 36.7618 272.849C29.3256 282.739 29.3256 296.571 36.7618 306.461C45.3935 317.928 45.3935 333.934 36.7618 345.401C29.3256 355.291 29.3256 369.122 36.7618 379.013C45.3935 390.479 45.3935 406.485 36.7618 417.952C29.3256 427.842 29.3256 441.674 36.7618 451.564C45.3935 463.031 45.3935 479.036 36.7618 490.503C29.3256 500.393 29.3256 514.225 36.7618 524.115L33.223 526.767Z" fill="#1F1F1F"/>
<path d="M51.2248 523.754L50.3523 524.407C43.1454 513.655 43.4668 499.258 51.3164 488.83L51.3169 488.829C59.1993 478.346 59.1993 463.697 51.3169 453.213L51.3164 453.213C43.1317 442.34 43.1317 427.152 51.3164 416.279L51.3169 416.278C59.1993 405.795 59.1993 391.146 51.3169 380.662L51.3164 380.661C43.1317 369.788 43.1317 354.601 51.3164 343.728L51.3169 343.727C59.1993 333.243 59.1993 318.595 51.3169 308.111L51.3164 308.11C43.1317 297.237 43.1317 282.049 51.3164 271.176L51.3169 271.176C59.1993 260.692 59.1993 246.043 51.3169 235.56L51.3164 235.559C43.1317 224.686 43.1317 209.498 51.3164 198.625L51.3169 198.625C59.1993 188.141 59.1993 173.492 51.3169 163.009L51.3164 163.008C43.1317 152.135 43.1317 136.947 51.3164 126.074L51.3169 126.073C58.8632 116.037 59.185 102.183 52.2825 91.8207L53.155 91.1669C60.3619 101.92 60.0405 116.316 52.1909 126.744L52.1903 126.745C44.3079 137.228 44.3079 151.877 52.1903 162.361L52.1909 162.362C60.3756 173.235 60.3756 188.422 52.1909 199.295L52.1903 199.296C44.3079 209.78 44.3079 224.429 52.1903 234.912L52.1909 234.913C60.3756 245.786 60.3756 260.974 52.1909 271.847L52.1903 271.847C44.3079 282.331 44.3079 296.98 52.1903 307.463L52.1909 307.464C60.3756 318.337 60.3756 333.525 52.1909 344.398L52.1903 344.399C44.3079 354.882 44.3079 369.531 52.1903 380.015L52.1909 380.015C60.3756 390.888 60.3756 406.076 52.1909 416.949L52.1903 416.95C44.3079 427.433 44.3079 442.082 52.1903 452.566L52.1909 452.567C60.3756 463.44 60.3756 478.627 52.1909 489.5L52.1903 489.501C44.6441 499.537 44.3223 513.391 51.2248 523.754Z" fill="#1F1F1F" stroke="#1F1F1F" stroke-width="3.33471"/>
</g>
<circle cx="34.9924" cy="580.122" r="32.8178" stroke="#1F1F1F" stroke-width="3.28178"/>
<path d="M35.2571 596.163C34.6554 596.163 34.138 595.958 33.7048 595.549C33.2716 595.164 33.055 594.635 33.055 593.961V586.2H29.6616C28.7471 586.2 28.1334 586.332 27.8206 586.597C27.5318 586.837 27.3874 587.355 27.3874 588.149V592.409C27.3874 593.058 27.1708 593.576 26.7376 593.961C26.3284 594.346 25.8351 594.539 25.2575 594.539C24.6558 594.539 24.1384 594.346 23.7052 593.961C23.2961 593.576 23.0915 593.058 23.0915 592.409V588.113C23.0915 586.115 23.5488 584.719 24.4633 583.925C25.3778 583.131 26.9542 582.734 29.1923 582.734H33.055V581.326H31.1778C29.3488 581.326 28.0733 581.025 27.3513 580.424C26.6293 579.822 26.2683 578.751 26.2683 577.211C26.2683 575.646 26.6293 574.575 27.3513 573.998C28.0733 573.396 29.3488 573.095 31.1778 573.095H39.3002C41.1533 573.095 42.4289 573.396 43.1268 573.998C43.8488 574.575 44.2098 575.646 44.2098 577.211C44.2098 578.751 43.8488 579.822 43.1268 580.424C42.4289 581.025 41.1533 581.326 39.3002 581.326H37.4231V582.734H41.5745C43.8127 582.734 45.389 583.131 46.3036 583.925C47.2181 584.719 47.6753 586.115 47.6753 588.113V589.665C47.6753 591.35 47.2301 592.577 46.3397 593.347C45.4492 594.141 44.0654 594.539 42.1882 594.539C41.5865 594.539 41.0811 594.37 40.672 594.033C40.2629 593.72 40.0343 593.263 39.9861 592.661C39.938 592.036 40.0583 591.518 40.3471 591.109C40.66 590.7 41.1293 590.459 41.755 590.387C42.477 590.315 42.9222 590.195 43.0907 590.026C43.2592 589.834 43.3434 589.449 43.3434 588.871V588.077C43.3434 587.283 43.187 586.777 42.8741 586.561C42.5853 586.32 41.9836 586.2 41.0691 586.2H37.4231V593.961C37.4231 594.635 37.2065 595.164 36.7733 595.549C36.3641 595.958 35.8587 596.163 35.2571 596.163ZM21.5392 577.391C20.9376 577.391 20.4322 577.199 20.023 576.814C19.638 576.429 19.4455 575.923 19.4455 575.297V573.529C19.4455 571.555 19.9268 570.183 20.8894 569.413C21.8762 568.619 23.5608 568.222 25.9434 568.222H26.4127C26.3164 568.053 26.16 567.813 25.9434 567.5C25.7268 567.187 25.5102 566.874 25.2936 566.561C25.1011 566.224 24.9567 565.984 24.8604 565.839C24.5475 565.382 24.4513 564.901 24.5716 564.395C24.716 563.866 25.0289 563.445 25.5102 563.132C25.9674 562.867 26.4969 562.783 27.0986 562.879C27.7002 562.975 28.1695 563.276 28.5065 563.782C28.6027 563.902 28.7591 564.119 28.9757 564.431C29.1923 564.744 29.4089 565.057 29.6255 565.37C29.8421 565.683 29.9745 565.9 30.0226 566.02C30.2633 566.381 30.3716 566.754 30.3475 567.139C30.3475 567.524 30.2513 567.885 30.0587 568.222H33.055V564.468C33.055 563.794 33.2716 563.264 33.7048 562.879C34.138 562.494 34.6554 562.302 35.2571 562.302C35.8587 562.302 36.3641 562.494 36.7733 562.879C37.2065 563.264 37.4231 563.794 37.4231 564.468V568.222H40.4554C40.2388 567.933 40.1185 567.596 40.0944 567.211C40.0704 566.826 40.1546 566.477 40.3471 566.164C40.4434 566.02 40.5757 565.803 40.7442 565.514C40.9127 565.226 41.0811 564.937 41.2496 564.648C41.4421 564.359 41.5745 564.143 41.6467 563.998C41.9355 563.493 42.3446 563.156 42.8741 562.987C43.4036 562.795 43.933 562.831 44.4625 563.096C45.016 563.361 45.377 563.758 45.5455 564.287C45.7139 564.817 45.6538 565.322 45.365 565.803C45.2928 565.948 45.1604 566.176 44.9679 566.489C44.7994 566.778 44.6309 567.067 44.4625 567.356C44.294 567.644 44.1616 567.849 44.0654 567.969C44.0413 568.041 43.9811 568.126 43.8849 568.222H44.6069C46.9894 568.222 48.6621 568.619 49.6247 569.413C50.6114 570.183 51.1048 571.555 51.1048 573.529V575.189C51.1048 575.791 50.9123 576.284 50.5272 576.669C50.1421 577.054 49.6367 577.247 49.011 577.247C48.3853 577.247 47.8799 577.054 47.4948 576.669C47.1098 576.284 46.9172 575.791 46.9172 575.189V573.673C46.9172 572.879 46.7488 572.361 46.4119 572.121C46.099 571.856 45.4492 571.724 44.4625 571.724H26.1239C25.1612 571.724 24.5114 571.856 24.1745 572.121C23.8376 572.361 23.6691 572.879 23.6691 573.673V575.297C23.6691 575.923 23.4645 576.429 23.0554 576.814C22.6703 577.199 22.165 577.391 21.5392 577.391ZM31.9359 578.294H38.5782C39.2762 578.294 39.7334 578.234 39.95 578.113C40.1666 577.969 40.2749 577.668 40.2749 577.211C40.2749 576.753 40.1666 576.465 39.95 576.344C39.7334 576.2 39.2762 576.128 38.5782 576.128H31.9359C31.2621 576.128 30.8048 576.2 30.5641 576.344C30.3475 576.465 30.2392 576.753 30.2392 577.211C30.2392 577.668 30.3475 577.969 30.5641 578.113C30.8048 578.234 31.2621 578.294 31.9359 578.294Z" fill="#1F1F1F"/>
<defs>
<clipPath id="clip0_45_558">
<rect width="50.0207" height="437.959" fill="white" transform="translate(9.98206 88.8076)"/>
</clipPath>
</defs>
</svg>
