<svg width="70" height="615" viewBox="0 0 70 615" fill="none" xmlns="http://www.w3.org/2000/svg">
<circle cx="34.896" cy="35.4519" r="32.8178" stroke="#1F1F1F" stroke-width="3.28178"/>
<path d="M21.1902 51.3848C20.5163 51.4811 19.9387 51.3848 19.4574 51.096C18.976 50.8313 18.6752 50.362 18.5549 49.6881C18.4586 49.0865 18.591 48.569 18.952 48.1358C19.337 47.7026 19.8665 47.4379 20.5404 47.3417C23.2599 46.9807 25.5341 46.367 27.3632 45.5006C29.1922 44.6342 30.5761 43.467 31.5146 41.9989H21.6234C21.142 41.9989 20.7209 41.8304 20.3599 41.4935C20.0229 41.1325 19.8545 40.7234 19.8545 40.2661C19.8545 39.7848 20.0229 39.3757 20.3599 39.0387C20.7209 38.6777 21.142 38.4972 21.6234 38.4972H32.8503C32.8985 38.1603 32.9346 37.8234 32.9586 37.4865C33.0068 37.1495 33.0308 36.8006 33.0308 36.4396H20.4321C19.9748 36.4396 19.5777 36.2711 19.2408 35.9342C18.9038 35.5972 18.7354 35.1881 18.7354 34.7068C18.7354 34.2255 18.9038 33.8284 19.2408 33.5155C19.5777 33.1786 19.9748 33.0101 20.4321 33.0101H33.0308V31.0607H24.2586C23.8014 31.0607 23.4043 30.8923 23.0673 30.5553C22.7304 30.2184 22.5619 29.8093 22.5619 29.3279C22.5619 28.8466 22.7304 28.4495 23.0673 28.1367C23.4043 27.7997 23.8014 27.6313 24.2586 27.6313H33.0308V25.7541H21.5512C21.0939 25.7541 20.6848 25.5856 20.3238 25.2487C19.9868 24.9118 19.8184 24.5026 19.8184 24.0213C19.8184 23.54 19.9868 23.1429 20.3238 22.83C20.6848 22.4931 21.0939 22.3246 21.5512 22.3246H28.2657L27.0022 20.5918C26.6893 20.1827 26.569 19.7134 26.6412 19.184C26.7375 18.6304 27.0142 18.1972 27.4715 17.8844C27.9528 17.5474 28.4702 17.403 29.0238 17.4512C29.5773 17.4993 30.0466 17.752 30.4317 18.2093C30.6483 18.474 30.9009 18.823 31.1897 19.2562C31.5026 19.6653 31.7914 20.0744 32.0561 20.4835C32.3209 20.8686 32.5254 21.1694 32.6698 21.386C32.8864 21.6989 33.0068 22.0118 33.0308 22.3246H37.3628C37.6034 21.9636 37.8682 21.5425 38.157 21.0611C38.4698 20.5557 38.7707 20.0624 39.0595 19.5811C39.3723 19.0997 39.613 18.7026 39.7814 18.3898C40.0943 17.8844 40.5275 17.5835 41.081 17.4873C41.6586 17.391 42.2001 17.4993 42.7055 17.8122C43.1868 18.125 43.4997 18.5342 43.6441 19.0396C43.8126 19.545 43.7644 20.0383 43.4997 20.5196C43.3553 20.7122 43.1748 20.9769 42.9582 21.3138C42.7416 21.6267 42.501 21.9636 42.2362 22.3246H48.6981C49.1794 22.3246 49.5885 22.4931 49.9254 22.83C50.2624 23.1429 50.4308 23.54 50.4308 24.0213C50.4308 24.5026 50.2624 24.9118 49.9254 25.2487C49.5885 25.5856 49.1794 25.7541 48.6981 25.7541H37.3267V27.6313H45.7018C46.1831 27.6313 46.5922 27.7997 46.9292 28.1367C47.2661 28.4495 47.4346 28.8466 47.4346 29.3279C47.4346 29.8093 47.2661 30.2184 46.9292 30.5553C46.5922 30.8923 46.1831 31.0607 45.7018 31.0607H37.3267V33.0101H49.9976C50.479 33.0101 50.8881 33.1786 51.225 33.5155C51.562 33.8284 51.7304 34.2255 51.7304 34.7068C51.7304 35.1881 51.562 35.5972 51.225 35.9342C50.8881 36.2711 50.479 36.4396 49.9976 36.4396H37.3267C37.3026 36.8006 37.2785 37.1495 37.2545 37.4865C37.2545 37.8234 37.2304 38.1603 37.1823 38.4972H48.7702C49.2516 38.4972 49.6607 38.6777 49.9976 39.0387C50.3586 39.3757 50.5391 39.7848 50.5391 40.2661C50.5391 40.7234 50.3586 41.1325 49.9976 41.4935C49.6607 41.8304 49.2516 41.9989 48.7702 41.9989H39.0234C41.3337 44.6943 45.04 46.379 50.142 47.0529C50.864 47.1491 51.3935 47.4499 51.7304 47.9553C52.0914 48.4607 52.1877 49.0383 52.0192 49.6881C51.8507 50.2898 51.5259 50.7109 51.0445 50.9516C50.5632 51.2163 49.9736 51.3006 49.2756 51.2043C46.4117 50.8192 43.7524 49.9769 41.2976 48.6773C38.8429 47.3778 36.8935 45.669 35.4495 43.5512C34.2221 45.5968 32.4171 47.2815 30.0346 48.6051C27.652 49.9288 24.7038 50.8553 21.1902 51.3848Z" fill="#1F1F1F"/>
<g clip-path="url(#clip0_45_569)">
<path d="M16.3651 526.767C7.73344 515.3 7.73344 499.294 16.3651 487.827C23.8013 477.937 23.8013 464.106 16.3651 454.215C7.73344 442.749 7.73344 426.743 16.3651 415.276C23.8013 405.386 23.8013 391.554 16.3651 381.664C7.73344 370.197 7.73344 354.192 16.3651 342.725C23.8013 332.835 23.8013 319.003 16.3651 309.113C7.73344 297.646 7.73344 281.641 16.3651 270.174C23.8013 260.284 23.8013 246.452 16.3651 236.562C7.73344 225.095 7.73344 209.089 16.3651 197.623C23.8013 187.732 23.8013 173.901 16.3651 164.011C7.73344 152.544 7.73344 136.538 16.3651 125.071C23.8013 115.181 23.8013 101.349 16.3651 91.4593L19.9039 88.8076C28.5355 100.274 28.5355 116.28 19.9039 127.747C12.4677 137.637 12.4677 151.469 19.9039 161.359C28.5355 172.826 28.5355 188.831 19.9039 200.298C12.4677 210.188 12.4677 224.02 19.9039 233.91C28.5355 245.377 28.5355 261.383 19.9039 272.849C12.4677 282.739 12.4677 296.571 19.9039 306.461C28.5355 317.928 28.5355 333.934 19.9039 345.401C12.4677 355.291 12.4677 369.122 19.9039 379.013C28.5355 390.479 28.5355 406.485 19.9039 417.952C12.4677 427.842 12.4677 441.674 19.9039 451.564C28.5355 463.031 28.5355 479.036 19.9039 490.503C12.4677 500.393 12.4677 514.225 19.9039 524.115L16.3651 526.767Z" fill="#1F1F1F"/>
<path d="M33.1266 526.767C24.4949 515.3 24.4949 499.294 33.1266 487.827C40.5627 477.937 40.5627 464.106 33.1266 454.215C24.4949 442.749 24.4949 426.743 33.1266 415.276C40.5627 405.386 40.5627 391.554 33.1266 381.664C24.4949 370.197 24.4949 354.192 33.1266 342.725C40.5627 332.835 40.5627 319.003 33.1266 309.113C24.4949 297.646 24.4949 281.641 33.1266 270.174C40.5627 260.284 40.5627 246.452 33.1266 236.562C24.4949 225.095 24.4949 209.089 33.1266 197.623C40.5627 187.732 40.5627 173.901 33.1266 164.011C24.4949 152.544 24.4949 136.538 33.1266 125.071C40.5627 115.181 40.5627 101.349 33.1266 91.4593L36.6653 88.8076C45.297 100.274 45.297 116.28 36.6653 127.747C29.2292 137.637 29.2292 151.469 36.6653 161.359C45.297 172.826 45.297 188.831 36.6653 200.298C29.2292 210.188 29.2292 224.02 36.6653 233.91C45.297 245.377 45.297 261.383 36.6653 272.849C29.2292 282.739 29.2292 296.571 36.6653 306.461C45.297 317.928 45.297 333.934 36.6653 345.401C29.2292 355.291 29.2292 369.122 36.6653 379.013C45.297 390.479 45.297 406.485 36.6653 417.952C29.2292 427.842 29.2292 441.674 36.6653 451.564C45.297 463.031 45.297 479.036 36.6653 490.503C29.2292 500.393 29.2292 514.225 36.6653 524.115L33.1266 526.767Z" fill="#1F1F1F"/>
<path d="M51.1284 523.754L50.2559 524.407C43.049 513.655 43.3704 499.258 51.22 488.83L51.2206 488.829C59.103 478.346 59.103 463.697 51.2206 453.213L51.22 453.213C43.0353 442.34 43.0353 427.152 51.22 416.279L51.2206 416.278C59.103 405.795 59.103 391.146 51.2206 380.662L51.22 380.661C43.0353 369.788 43.0353 354.601 51.22 343.728L51.2206 343.727C59.103 333.243 59.103 318.595 51.2206 308.111L51.22 308.11C43.0353 297.237 43.0353 282.049 51.22 271.176L51.2206 271.176C59.103 260.692 59.103 246.043 51.2206 235.56L51.22 235.559C43.0353 224.686 43.0353 209.498 51.22 198.625L51.2206 198.625C59.103 188.141 59.103 173.492 51.2206 163.009L51.22 163.008C43.0353 152.135 43.0353 136.947 51.22 126.074L51.2206 126.073C58.7668 116.037 59.0886 102.183 52.1861 91.8207L53.0586 91.1669C60.2655 101.92 59.9441 116.316 52.0945 126.744L52.094 126.745C44.2116 137.228 44.2116 151.877 52.094 162.361L52.0945 162.362C60.2792 173.235 60.2792 188.422 52.0945 199.295L52.094 199.296C44.2116 209.78 44.2116 224.429 52.094 234.912L52.0945 234.913C60.2792 245.786 60.2792 260.974 52.0945 271.847L52.094 271.847C44.2116 282.331 44.2116 296.98 52.094 307.463L52.0945 307.464C60.2792 318.337 60.2792 333.525 52.0945 344.398L52.094 344.399C44.2116 354.882 44.2116 369.531 52.094 380.015L52.0945 380.015C60.2792 390.888 60.2792 406.076 52.0945 416.949L52.094 416.95C44.2116 427.433 44.2116 442.082 52.094 452.566L52.0945 452.567C60.2792 463.44 60.2792 478.627 52.0945 489.5L52.094 489.501C44.5477 499.537 44.2259 513.391 51.1284 523.754Z" fill="#1F1F1F" stroke="#1F1F1F" stroke-width="3.33471"/>
</g>
<circle cx="34.896" cy="580.122" r="32.8178" stroke="#1F1F1F" stroke-width="3.28178"/>
<path d="M22.5619 595.152C22.0565 595.513 21.503 595.694 20.9014 595.694C20.2997 595.718 19.7823 595.465 19.3491 594.936C18.964 594.478 18.8076 593.961 18.8798 593.383C18.976 592.806 19.2648 592.349 19.7462 592.012C22.1047 590.423 23.9578 588.63 25.3055 586.633L24.3308 585.983C23.0312 585.165 22.0806 584.419 21.479 583.745C20.9014 583.071 20.5885 582.313 20.5404 581.47C20.4922 580.628 20.6246 579.557 20.9375 578.258C21.1059 577.632 21.2624 576.982 21.4068 576.308C21.5752 575.61 21.7316 574.924 21.876 574.251H19.8545C19.3491 574.251 18.9159 574.07 18.5549 573.709C18.1939 573.324 18.0134 572.879 18.0134 572.373C18.0134 571.868 18.1939 571.435 18.5549 571.074C18.9159 570.689 19.3491 570.496 19.8545 570.496H22.6341C22.8267 569.437 23.0072 568.414 23.1756 567.428C23.3441 566.417 23.4885 565.466 23.6088 564.576C23.7051 563.926 23.9698 563.457 24.403 563.168C24.8362 562.855 25.3536 562.735 25.9553 562.807C26.5329 562.903 27.0022 563.18 27.3632 563.637C27.7242 564.07 27.8445 564.6 27.7242 565.226C27.6039 565.996 27.4595 566.838 27.291 567.753C27.1225 568.643 26.942 569.558 26.7495 570.496H27.0383C29.3968 570.496 30.9972 570.978 31.8395 571.94C32.6819 572.879 32.9947 574.371 32.7781 576.417C32.6097 578.101 32.3329 579.69 31.9478 581.182C31.5868 582.674 31.1175 584.082 30.54 585.405C31.2619 585.911 31.9599 586.428 32.6337 586.958C33.3076 587.487 33.9333 588.029 34.5109 588.582C34.9922 588.967 35.2329 589.485 35.2329 590.134C35.257 590.76 35.0404 591.278 34.5831 591.687C34.1258 592.096 33.5964 592.288 32.9947 592.264C32.4171 592.24 31.8997 592.024 31.4424 591.614C30.9852 591.157 30.5039 590.712 29.9985 590.279C29.5171 589.846 29.0238 589.436 28.5184 589.051C27.7482 590.207 26.8578 591.29 25.847 592.3C24.8603 593.287 23.7653 594.238 22.5619 595.152ZM38.3736 595.585C37.7238 595.609 37.1823 595.441 36.7491 595.08C36.3159 594.743 36.0752 594.262 36.0271 593.636C36.003 593.058 36.1715 592.553 36.5325 592.12C36.8935 591.687 37.4109 591.434 38.0848 591.362C38.7586 591.29 39.3362 591.169 39.8175 591.001C40.3229 590.832 40.7321 590.519 41.0449 590.062C41.3578 589.605 41.5864 588.943 41.7308 588.077C41.8752 587.21 41.9474 586.043 41.9474 584.575C41.9474 583.949 41.9234 583.348 41.8752 582.77C41.8271 582.168 41.7549 581.591 41.6586 581.037H35.0163C34.4628 581.037 33.9935 580.845 33.6084 580.46C33.2234 580.075 33.0308 579.605 33.0308 579.052C33.0308 578.498 33.2234 578.029 33.6084 577.644C33.9935 577.259 34.4628 577.066 35.0163 577.066H40.5395C40.2989 576.441 40.0341 575.827 39.7454 575.225C39.4566 574.624 39.1557 574.058 38.8429 573.529C38.6022 573.071 38.5781 572.59 38.7707 572.085C38.9632 571.555 39.3001 571.17 39.7814 570.929C40.2628 570.689 40.7682 570.653 41.2976 570.821C41.8512 570.966 42.2844 571.278 42.5972 571.76V571.796C43.0785 571.459 43.5599 571.122 44.0412 570.785C44.5225 570.424 44.8474 570.183 45.0159 570.063C45.4972 569.654 45.7138 569.293 45.6657 568.98C45.6176 568.667 45.2686 568.511 44.6188 568.511H35.2329C34.7034 568.511 34.2582 568.33 33.8972 567.969C33.5362 567.608 33.3557 567.163 33.3557 566.634C33.3557 566.128 33.5362 565.695 33.8972 565.334C34.2582 564.973 34.7034 564.792 35.2329 564.792H45.8101C47.1337 564.792 48.1686 565.057 48.9146 565.587C49.6607 566.116 50.118 566.79 50.2864 567.608C50.479 568.402 50.3707 569.245 49.9615 570.135C49.5765 571.002 48.8785 571.784 47.8678 572.482C47.2661 572.867 46.6283 573.3 45.9545 573.781C45.3047 574.263 44.7391 574.672 44.2578 575.009C44.5466 575.683 44.7993 576.368 45.0159 577.066H50.3225C50.8761 577.066 51.3454 577.259 51.7304 577.644C52.1155 578.029 52.308 578.498 52.308 579.052C52.308 579.605 52.1155 580.075 51.7304 580.46C51.3454 580.845 50.8761 581.037 50.3225 581.037H45.8823C45.9545 581.591 46.0146 582.168 46.0628 582.77C46.1109 583.372 46.135 583.985 46.135 584.611C46.135 587.523 45.8462 589.761 45.2686 591.326C44.7151 592.89 43.8607 593.973 42.7055 594.575C41.5744 595.2 40.1304 595.537 38.3736 595.585ZM27.1827 583.167C27.6159 582.108 27.9648 580.989 28.2296 579.81C28.4943 578.631 28.6748 577.403 28.7711 576.128C28.8433 575.358 28.7229 574.852 28.4101 574.612C28.0972 574.371 27.5317 574.251 26.7134 574.251H25.9914C25.7989 575.165 25.6063 576.044 25.4138 576.886C25.2453 577.704 25.0648 578.438 24.8723 579.088C24.6557 580.002 24.6196 580.7 24.764 581.182C24.9325 581.663 25.4499 582.156 26.3163 582.662C26.4607 582.758 26.6051 582.842 26.7495 582.914C26.8939 582.987 27.0383 583.071 27.1827 583.167Z" fill="#1F1F1F"/>
<defs>
<clipPath id="clip0_45_569">
<rect width="50.0207" height="437.959" fill="white" transform="translate(9.88568 88.8076)"/>
</clipPath>
</defs>
</svg>
