<svg id="title_icon" data-name="title icon" xmlns="http://www.w3.org/2000/svg" width="101.34" height="56.968" viewBox="0 0 101.34 56.968">
  <defs>
    <style>
      .cls-1 {
        fill: #fff;
      }

      .cls-1, .cls-2, .cls-3 {
        fill-rule: evenodd;
      }

      .cls-2 {
        fill: #fcde69;
      }

      .cls-3 {
        fill: #f76962;
      }
    </style>
  </defs>
  <path id="居_拷貝" data-name="居 拷貝" class="cls-1" d="M1867.05,616.975l0.44-2.977-7.33,1.542-0.35-2.182,5.99-1.025-2.63-7.535-16.49,3.348a27.177,27.177,0,0,1,.54,7.821,60.573,60.573,0,0,1-1.41,10.321,13.3,13.3,0,0,1-2.35,5.08l5.37,0.189a37.208,37.208,0,0,0,1.09-11.471l7.24-1.191,0.34,2.1-8.05,1.674,3.87,9.038,3.23-.532-0.15-.919,9.38-1.543,0.15,0.89,3.23-.532,0.15-10.052-8.35,1.406-0.34-2.1Zm-5.46-6.6-11.33,2.2,0.24-2.338,10.66-2.267Zm-4.89,5.738-6.63,1.5,0.28-2.672,6-1.015Zm8.6,9.67-9.38,1.544-0.49-2.986,9.38-1.544Z" transform="translate(-1818.66 -604.188)"/>
  <path id="家_拷貝" data-name="家 拷貝" class="cls-1" d="M1886.81,605.463v0.786l8.93,0.133,2.09,5.686-4.24-.146-1.13-2.846h-15.2l-0.97,2.788h-3.34l1.62-5.482,8.61-.133v-2.066l3.62,0.105C1886.83,604.325,1886.81,605.318,1886.81,605.463Zm8.43,11.318s-3.24,2.677-3.85,3.171c1.88,2.851,4.57,3.442,7.03,4.984l-3.87,2.992c-3.63-2.618-6.7-7.444-8.61-14.755h-0.7a6.784,6.784,0,0,1-1.39,1.222c1.51,1.6,4.56,3.585,4.74,10.241,0.12,4.692-2.54,4.83-6.13,4.83l-1.57-3.608a24.277,24.277,0,0,0,2.63.574c1.68,0,1.23-1.418,1.2-3.25a29.248,29.248,0,0,1-4.58,3.084,42.583,42.583,0,0,1-5.27,2.859l-2.98-4.189c1.54-.379,4.52-0.545,6.86-1.5a14.337,14.337,0,0,0,5.39-3.487,7.284,7.284,0,0,0-.52-1.164,22.752,22.752,0,0,1-7.56,4.053l-2.08-2.993c1.27-.262,2.74-0.278,3.87-0.6,2.6-.744,3.19-1.8,4.26-2.615-0.2-.232-0.46-0.523-0.66-0.727a24.225,24.225,0,0,1-5.24,2.386,37,37,0,0,1-1.34-3.532,9.116,9.116,0,0,0,6-1.589h-3.48v-2.618h15.22v2.618h-3.66a13.289,13.289,0,0,0,1.08,4.19c1.36-1.222,2.97-2.789,4.22-4.1l2.38,2.09S1895.49,616.529,1895.24,616.781Z" transform="translate(-1818.66 -604.188)"/>
  <path id="野_拷貝" data-name="野 拷貝" class="cls-1" d="M1854.73,657.466c1.22-.341,4.01-1.4,5.31-1.914l-0.03-2.56c-0.9.217-2.11,0.468-4.69,0.884l0.01-2.235,4.16-.639,0.18-1.928-4.38.065-0.03-2.123,4.38-.065,1.56-12.846-16.4,1.249,3.96,12.417,3.92-.718,0.03,2.124-4.95-.045,1.41,3.419,3.54-.531,0.04,2.243c-1.97.262-2.63,0.359-5.15,0.6l1.66,4.331C1849.29,659.368,1851.12,658.473,1854.73,657.466Zm3.08-17.766-2.65.159-0.03-2.036,3.22-.568Zm-5.23.2-2.51.157-0.36-2.108,2.84-.085Zm4.71,4.517-2.06.071-0.03-2.1,2.35-.115Zm-4.64.109-1.92.068-0.33-2.051,2.22-.112Zm20.47,0.8L1872.38,644l-3.1.045,0.82-1.263a13.947,13.947,0,0,0-2.11-1.6c2.32-2.071,3.38-2.208,4.32-3.3l-0.58-2.9-9.17-.064,0.04,2.676,5.14,0.124a15.17,15.17,0,0,1-2.09,2.213,18.2,18.2,0,0,0-2.36-.925l-0.78,1.856c0.97,0.912,2.06,2.57,2.88,3.2l-4.72.105,0.04,2.764,3.89-.057-0.18,2.78c0.01,0.728-.02,2.929-0.09,5.461l-2.45-.239,1.12,3.464c2.74,0.388,4.52,1.319,4.67-1l0.14-6.552,3.45,0.265A50.159,50.159,0,0,1,1873.12,645.328Zm-3.19,1.471a17.039,17.039,0,0,1-2.12,3.639l-0.05-3.607Z" transform="translate(-1818.66 -604.188)"/>
  <path id="餐_拷貝" data-name="餐 拷貝" class="cls-1" d="M1884.47,656.441l0.54-2.153c1.09,1.089,1.54,2.314,3.87,4.19a13.517,13.517,0,0,0,4.77,2.693l2.6-3.63a25.479,25.479,0,0,1-4.66-1.368c0.38-.146,1.42-0.6,2.67-1.251a2.209,2.209,0,0,1,.8-0.047,0.373,0.373,0,0,0,.42-0.228,1.182,1.182,0,0,0-.43-0.658l-1.8-1.734a3.906,3.906,0,0,1-.78.64l0.72-4.538a18.7,18.7,0,0,0,2.84,1.37l3.29-3.518c-1.31-.418-4.28-0.6-6.86-1.8-1.79-.835-2.51-1.264-2.95-1.864a8.206,8.206,0,0,0,1.89-.949,18.251,18.251,0,0,0,4.34,2.813l1.49-2.693c-1.08-.46-2.47-0.58-3.43-1.177a12.028,12.028,0,0,0,4.3-2.83l-0.86-1.64-8.3-1.337-0.33,2.1,2.49,0.4-1.76.158a12.1,12.1,0,0,0,.92,2.3,11.606,11.606,0,0,1-2.4.321l0.43,1.406-2.17-1.716a18.316,18.316,0,0,1-6.23,3.741,16.938,16.938,0,0,1-6.38.947l1.06,4.211a19.137,19.137,0,0,0,3.88-1.5l-1.15,7c-0.97.02-2.5,0.039-3.78-.048l1.35,3.82C1874.9,658.238,1883.18,656.616,1884.47,656.441Zm5.29-4.395-8.79-1.415,0.13-.8,8.79,1.415Zm0.34-2.125-8.79-1.415,0.13-.8,8.79,1.415Zm2.45-1.933-12.19-1.964a19.757,19.757,0,0,0,2.29-.956l-0.09.574,6.96,1.121,0.12-.776A34.807,34.807,0,0,0,1892.55,647.988Zm-8.52,5.7a21.224,21.224,0,0,1-3.6.332l0.3-1.867,2.72,0.438A5.2,5.2,0,0,0,1884.03,653.689Zm10.24-15.943a6.509,6.509,0,0,1-1.78,1.216,5.308,5.308,0,0,1-.68-1.612Zm-5.67,7.4-4.55-.733a19.146,19.146,0,0,0,2.32-1.483A22.012,22.012,0,0,0,1888.6,645.142Zm2.29,8.648a13.821,13.821,0,0,1-2.11.869,5.767,5.767,0,0,1-1.38-1.431Zm-10.58-17.927,1.03,0.165,0.32-3.878,2.68,0.548a5.227,5.227,0,0,1,.03,1.1l3.37,0.544-0.3,1.9-3.38-.544-0.13.805,1.86,0.3,0.8,1.072a13.4,13.4,0,0,1-5.5,4.123,11.865,11.865,0,0,1-4.43.929l-1.79-2.1c1.68-.024,1.68.2,3.25-0.256a5.851,5.851,0,0,0-.95-1.625,8.171,8.171,0,0,1-.94.762l-1.92-1.606a14.426,14.426,0,0,0,4.29-4.219l2.12,0.929A5.059,5.059,0,0,1,1880.31,635.863Zm2.13,2.481a15.522,15.522,0,0,1-2.04,1.323,14.693,14.693,0,0,0-.88-1.793Z" transform="translate(-1818.66 -604.188)"/>
  <path id="偽_拷貝" data-name="偽 拷貝" class="cls-1" d="M1838.06,644.781l4.52-.333-0.55,2.933,1.71-.127-0.47,3.131,1.39-.1c1.89,5.362.26,7.21-.39,8.006l-4.27-2a6.428,6.428,0,0,0,1.08.044c1.03-.077,2.66-1.144,1.38-4.033l-1.13.083a19.006,19.006,0,0,1,1.08,1.957l-1.03.83c-0.39-.766-0.6-1.219-1.19-2.255l0.78-.5-4.84.357a20.951,20.951,0,0,1-2.94,4.7l-1.69-.69,0.2,2.755-3.43-.241,0.47-9.316a7.284,7.284,0,0,1-.85,1.366l-3.15-1.375c2.7-2.32,5.37-7.15,5.73-9.071l1.45,0.909s0.46,0.048.28,0.729a22.244,22.244,0,0,1-.91,2.47s-0.49,2.4-.49,2.5l0.52,7.411a8.363,8.363,0,0,0,3.11-3.7,15.968,15.968,0,0,0,1.11-4.349l-1.8.283-1.11-1.972,1.44-.1a13.035,13.035,0,0,0-1.86-1.533l1.33-1.543a19.472,19.472,0,0,1,2.24,1.83l-0.92,1.188,0.89-.065a20.712,20.712,0,0,0,.02-3.444l2.61-.251A18.847,18.847,0,0,1,1838.06,644.781Zm1.88,1.756-0.21,1.013-2.08.154c0.03-.206.13-0.763,0.17-1.011Zm1.38,2.79-0.27,1.222-4.17.307c0.2-.768.27-1,0.31-1.224Zm-0.29,6.09a14.3,14.3,0,0,0-1.15-2.318l-1.03.625a16.809,16.809,0,0,1,.88,2.5Zm-1.92,1.18a16.133,16.133,0,0,0-.47-2.8l-1.31.382a14.6,14.6,0,0,1,.39,2.782Zm-2.17-2.406-1.48.008a11.2,11.2,0,0,1-.66,3.592l1.74,0.5a13.229,13.229,0,0,0,.51-3.5,0.509,0.509,0,0,0,.27-0.388A0.434,0.434,0,0,0,1836.94,654.191Z" transform="translate(-1818.66 -604.188)"/>
  <path id="形狀_3" data-name="形狀 3" class="cls-2" d="M1906.37,611.035l9.57,1.969a0.84,0.84,0,0,1,.7,1.006l-2.19,10.629a5.778,5.778,0,0,1-3.92,4.338,3.673,3.673,0,0,0-2.54,2.827l-1.75,8.512,0.73,0.15a0.887,0.887,0,0,1-.35,1.74l-1.46,14.934c-0.46,4.659-7.73,3.161-6.31-1.3l4.55-14.3a0.888,0.888,0,0,1,.36-1.74l0.74,0.152,1.75-8.512a3.69,3.69,0,0,0-1.22-3.6,5.8,5.8,0,0,1-1.89-5.533l2.19-10.63A0.829,0.829,0,0,1,1906.37,611.035Zm-3.34,35.333-2.9,9.4a1.752,1.752,0,0,0,.29,1.823,2.489,2.489,0,0,0,2.52.61,0.2,0.2,0,0,0,.12-0.185,0.193,0.193,0,0,0-.14-0.172,2.313,2.313,0,0,1-1.1-.642,1.758,1.758,0,0,1-.29-1.827l1.86-8.912a0.193,0.193,0,0,0-.13-0.222A0.19,0.19,0,0,0,1903.03,646.368Zm9.05-22.69a0.736,0.736,0,0,0,.87-0.575l1.6-7.766a0.74,0.74,0,0,0-1.45-.3l-1.6,7.766A0.747,0.747,0,0,0,1912.08,623.678Zm9.72,1.187c0.39,0.083-12.46-.385-12.37-0.784l1.94-9.448a0.74,0.74,0,0,0-1.45-.3l-1.94,9.449C1907.89,624.182,1921.4,624.783,1921.8,624.865Zm-15.08-11.14-1.6,7.766a0.746,0.746,0,0,0,.58.874,0.737,0.737,0,0,0,.87-0.575l1.6-7.768A0.74,0.74,0,1,0,1906.72,613.725Z" transform="translate(-1818.66 -604.188)"/>
  <path id="形狀_4" data-name="形狀 4" class="cls-3" d="M1842.53,610.914l-1.35-.212-3.18-.211a0.336,0.336,0,0,0-.33.137,0.351,0.351,0,0,0-.02.357l1.57,2.213a2.8,2.8,0,0,0-2.45,1.964,10.9,10.9,0,0,1-1.78,3.4,4.826,4.826,0,0,1-1.96,1.622,10.559,10.559,0,0,1-7.43,1.367,2.8,2.8,0,0,0-2.87,1.262l-1.76-2.1a0.34,0.34,0,0,0-.33-0.141,0.35,0.35,0,0,0-.28.229l-0.44,2.207-0.82,1.282a5.431,5.431,0,0,0-.45,1.276,0.34,0.34,0,0,0,.35.09l3.29-1.358a2.829,2.829,0,0,0,2.32,2.813,16.333,16.333,0,0,0,5.87-.007,16.144,16.144,0,0,0,5.47-2.077,9.887,9.887,0,0,0,3.47-2.97,16.359,16.359,0,0,0,2.73-5.193,2.836,2.836,0,0,0-1.41-3.365l1.98-2.006a0.328,0.328,0,0,0,.09-0.348A0.357,0.357,0,0,0,1842.53,610.914Z" transform="translate(-1818.66 -604.188)"/>
  <path id="形狀_8_拷貝" data-name="形狀 8 拷貝" class="cls-2" d="M1840.3,628a19.154,19.154,0,0,1-11.85,3.721S1838.11,634.7,1840.3,628Zm0.7,4.5a23.385,23.385,0,0,1-13,2.177S1836.28,638.77,1841,632.5Z" transform="translate(-1818.66 -604.188)"/>
</svg>
