<svg width="59" height="15" viewBox="0 0 59 15" fill="none" xmlns="http://www.w3.org/2000/svg">
<g clip-path="url(#clip0)">
<path fill-rule="evenodd" clip-rule="evenodd" d="M23.6801 14.063H26.35V2.95398H30.13V0.721008H19.9399V2.95398H23.6801V14.063ZM38.48 14.315C42.01 14.315 44.4399 11.668 44.4399 7.34698C44.4399 3.02598 42.01 0.487 38.48 0.487C34.95 0.487 32.52 3.00798 32.52 7.34698C32.52 11.668 34.95 14.315 38.48 14.315ZM38.48 12.015C36.5 12.015 35.24 10.197 35.24 7.35199C35.24 4.48899 36.5 2.77899 38.48 2.77899C40.46 2.77899 41.72 4.48899 41.72 7.35199C41.72 10.192 40.46 12.01 38.48 12.01V12.015ZM47.95 14.068H50.61V9.33099H52.39C55.26 9.33099 57.54 7.96201 57.54 4.91901C57.54 1.76801 55.2799 0.723999 52.3199 0.723999H47.95V14.066V14.068ZM50.61 7.22601V2.85101H52.12C53.96 2.85101 54.9301 3.37302 54.9301 4.92102C54.9301 6.45202 54.05 7.22601 52.21 7.22601H50.61Z" fill="white"/>
<path fill-rule="evenodd" clip-rule="evenodd" d="M16 10.707C15.9988 10.5309 15.9618 10.3568 15.8914 10.1954C15.8209 10.034 15.7184 9.88858 15.59 9.76801L8.94995 3.41498C8.68968 3.16736 8.34423 3.0293 7.98499 3.0293C7.62574 3.0293 7.28029 3.16736 7.02002 3.41498L0.369995 9.76801C0.243162 9.88869 0.142244 10.0339 0.0732422 10.1948C0.0042404 10.3557 -0.0313721 10.5289 -0.0313721 10.704C-0.0313721 10.8791 0.0042404 11.0523 0.0732422 11.2132C0.142244 11.3741 0.243162 11.5193 0.369995 11.64C0.630926 11.8896 0.977697 12.0293 1.33875 12.0305C1.69979 12.0316 2.04759 11.8939 2.31006 11.646L7.97998 6.21899L13.66 11.646C13.9225 11.8939 14.2702 12.0316 14.6312 12.0305C14.9923 12.0293 15.339 11.8896 15.6 11.64C15.7267 11.5199 15.8275 11.3752 15.8962 11.2148C15.965 11.0543 16.0004 10.8816 16 10.707Z" fill="white"/>
</g>
<defs>
<clipPath id="clip0">
<rect width="58.03" height="14.812" fill="white"/>
</clipPath>
</defs>
</svg>
