<?xml version="1.0" encoding="utf-8"?>
<!-- Generator: Adobe Illustrator 26.5.0, SVG Export Plug-In . SVG Version: 6.00 Build 0)  -->
<svg version="1.1" id="_圖層_1" xmlns="http://www.w3.org/2000/svg" xmlns:xlink="http://www.w3.org/1999/xlink" x="0px" y="0px"
	 viewBox="0 0 482 24.7" style="enable-background:new 0 0 482 24.7;" xml:space="preserve">
<style type="text/css">
	.st0{fill:none;}
	.st1{fill:#5B301D;}
	.st2{fill:none;stroke:#5B301D;stroke-miterlimit:10;}
	.st3{fill:none;stroke:#5B301D;stroke-width:1.42;stroke-miterlimit:10;}
</style>
<g>
	<path class="st0" d="M0,24.7V0h24.7v24.7H0z"/>
	<g>
		<path class="st1" d="M22.1,4.7L22.1,4.7c0,0.2-0.1,0.5-0.4,0.5C19.9,5.9,17,8.4,17,12.3c0,0.7,0.1,1,0.4,1c0.3,0,0.8-0.5,2.2-0.5
			c1.7,0,3.6,1.4,3.6,3.6c0,2-1.5,4.1-4.1,4.1c-2.1,0-5.1-1.6-5.1-6.2c0-6.4,4.8-9.1,7.4-10.2C21.7,4,22.1,4.3,22.1,4.7L22.1,4.7
			C22.1,4.7,22.1,4.7,22.1,4.7z"/>
		<path class="st1" d="M9.8,4.7L9.8,4.7c0,0.2-0.1,0.5-0.4,0.5c-1.9,0.7-4.8,3.1-4.8,7.1c0,0.7,0.1,1,0.4,1c0.3,0,0.8-0.5,2.2-0.5
			c1.7,0,3.6,1.4,3.6,3.6c0,2-1.5,4.1-4.1,4.1c-2.1,0-5.2-1.6-5.2-6.2C1.5,7.9,6.4,5.2,9,4.2C9.4,4,9.8,4.3,9.8,4.7L9.8,4.7L9.8,4.7
			z"/>
	</g>
</g>
<line class="st2" x1="28.5" y1="12.4" x2="482" y2="12.4"/>
<line class="st3" x1="482" y1="12.4" x2="28.5" y2="12.4"/>
</svg>
