<svg width="195" height="195" fill="none" xmlns="http://www.w3.org/2000/svg"><g clip-path="url(#a)"><path d="m6.357.287 188.349 183.592v-57.483L65.329.287H6.357Z" fill="#fff"/><mask id="b" style="mask-type:luminance" maskUnits="userSpaceOnUse" x="6" y="0" width="189" height="185"><path d="M195 0H6.062v184.167H195V0Z" fill="#fff"/></mask><g mask="url(#b)" fill="#000"><path d="M194.41 184.167 6.062.575l.59-.576 188.349 183.592-.591.576ZM194.41 126.684 65.034.574l.59-.575 129.377 126.109-.591.576Z"/></g><path d="M56.349 28.776a.489.489 0 0 1-.149-.335c0-.126.052-.237.152-.335l1.88-1.811-1.903-1.874a.448.448 0 0 1-.138-.305c.001-.125.048-.233.142-.323a.411.411 0 0 1 .323-.124c.129 0 .236.043.321.127l1.902 1.874 3.52-3.394c-.788.177-1.656.298-2.601.363-.946.064-1.909.077-2.89.036a24.323 24.323 0 0 1-2.823-.298.728.728 0 0 1-.375-.2.455.455 0 0 1 .1-.701.517.517 0 0 1 .409-.061c.944.2 1.931.324 2.962.372 1.031.047 2.03.028 2.998-.057a17.198 17.198 0 0 0 2.58-.384l-3.73-3.674a.468.468 0 0 1-.148-.315.468.468 0 0 1 .152-.314.471.471 0 0 1 .312-.134.46.46 0 0 1 .333.138l4.028 3.969 1.911-1.843a.479.479 0 0 1 .344-.145c.136.008.25.058.343.149.093.091.139.2.138.325a.456.456 0 0 1-.152.334L64.38 21.68l4.039 3.98a.42.42 0 0 1 .127.315.42.42 0 0 1-.13.313.46.46 0 0 1-.335.134.47.47 0 0 1-.31-.137l-3.73-3.675a16.512 16.512 0 0 0-.422 2.678 23.407 23.407 0 0 0-.005 2.922c.074.984.197 1.913.372 2.787a.36.36 0 0 1-.088.334.478.478 0 0 1-.323.187.614.614 0 0 1-.397-.096.47.47 0 0 1-.213-.337 26.82 26.82 0 0 1-.308-2.724 22.91 22.91 0 0 1 .037-2.805c.07-.928.207-1.81.412-2.647l-3.553 3.425 1.966 1.938a.39.39 0 0 1 .127.314.391.391 0 0 1-.13.314.46.46 0 0 1-.334.134.437.437 0 0 1-.31-.138l-1.967-1.937-1.878 1.812a.479.479 0 0 1-.677.006Zm15.969 12.62a.468.468 0 0 1-.149-.315.53.53 0 0 1 .141-.324.393.393 0 0 1 .291-.134.463.463 0 0 1 .332.117c.385.35.67.54.857.57.2.029.426-.079.678-.321l5.01-4.831c.36-.348.534-.654.52-.92-.005-.271-.196-.593-.574-.965l-2.361-2.327c-.37-.365-.699-.555-.985-.57-.272-.016-.588.15-.948.496l-1.825 1.76c-.677.653-1.285 1.176-1.824 1.571a8.36 8.36 0 0 1-1.562.924c-.489.22-1.012.4-1.572.536a.496.496 0 0 1-.343-.044.42.42 0 0 1-.224-.242.346.346 0 0 1 .023-.314.424.424 0 0 1 .27-.198 7.356 7.356 0 0 0 1.442-.515 8.49 8.49 0 0 0 1.465-.893 15.998 15.998 0 0 0 1.694-1.446l1.9-1.833c.534-.513 1.026-.758 1.477-.735.465.023.972.305 1.52.846l2.522 2.485c.548.54.828 1.034.84 1.48.026.447-.227.928-.76 1.441l-5.15 4.967c-.417.402-.834.596-1.25.58-.407-.01-.893-.292-1.455-.846Zm-2.577-.182a18.485 18.485 0 0 1-1.687-1.872c-.441-.561-.768-1.108-.98-1.64a4.957 4.957 0 0 1-.378-1.635c-.214-.043-.475-.09-.783-.14-.3-.044-.587-.094-.858-.151-.272-.044-.48-.08-.623-.108a.483.483 0 0 1-.332-.222.445.445 0 0 1-.084-.377.478.478 0 0 1 .615-.343l.557.15c.25.064.515.129.794.193l.772.192 2.69-2.592c.2-.194.302-.368.303-.522.008-.146-.092-.321-.298-.525l-.759-.747a.416.416 0 0 1-.138-.305.448.448 0 0 1 .141-.303.437.437 0 0 1 .313-.134.412.412 0 0 1 .321.127l.92.906c.355.35.529.683.52.997.006.314-.172.645-.532.992l-2.764 2.665c.04.531.152 1.034.336 1.51.19.468.492.962.905 1.481.412.519.964 1.119 1.655 1.8a97.534 97.534 0 0 0 1.827 1.758c.57.52 1.07.962 1.497 1.327a.478.478 0 0 1 .18.347.414.414 0 0 1-.13.355c-.223.215-.467.207-.73-.025a42.21 42.21 0 0 1-.898-.863 77.834 77.834 0 0 1-1.144-1.106c-.413-.393-.822-.79-1.228-1.19Zm2.365-2.3c-.535-.527-.815-.965-.842-1.314-.02-.356.197-.753.651-1.19.302-.292.575-.479.82-.561.258-.083.522-.06.794.067.271.127.585.366.941.717.364.358.609.67.736.936.128.266.144.52.05.764-.087.237-.282.501-.584.793-.303.291-.58.482-.83.571-.252.09-.513.07-.784-.056-.272-.127-.59-.37-.953-.728Zm1.398-4.454a.333.333 0 0 1-.105-.272.39.39 0 0 1 .12-.262.374.374 0 0 1 .268-.113c.108-.007.2.029.279.106l1.293 1.274.82-.791-.993-.98a.333.333 0 0 1-.106-.272.39.39 0 0 1 .12-.261.375.375 0 0 1 .269-.114c.107-.007.2.029.278.106l.994.98.691-.667c.1-.097.205-.142.312-.135a.51.51 0 0 1 .3.149.429.429 0 0 1 .138.283c.014.112-.03.216-.13.313l-.691.667 1.079 1.063a.334.334 0 0 1 .106.273c0 .098-.04.185-.12.261a.41.41 0 0 1-.269.114.352.352 0 0 1-.279-.107L76.8 35.012l-.82.791 1.324 1.306a.333.333 0 0 1 .106.273c0 .098-.04.184-.12.26a.41.41 0 0 1-.268.115.352.352 0 0 1-.28-.107l-3.237-3.19Zm-.837 3.912c.335.33.592.498.77.507.18.007.392-.107.636-.343.252-.243.372-.448.358-.615-.013-.168-.188-.417-.522-.747-.328-.322-.581-.495-.76-.517-.172-.015-.384.1-.636.342-.245.236-.364.442-.358.616.014.182.184.434.512.757Zm.428-7.683a.46.46 0 0 1-.332-.138.416.416 0 0 1-.106-.336c.03-.237.05-.526.059-.868.023-.342.032-.684.027-1.026.002-.335-.007-.625-.028-.87a.36.36 0 0 1 .11-.292.477.477 0 0 1 .612-.007.443.443 0 0 1 .16.304c.026.266.039.573.037.922.013.349.018.691.016 1.026.005.342-.003.628-.026.858a.436.436 0 0 1-.163.324.474.474 0 0 1-.366.103Zm7.131 20.078c-.555-.547-.979-1.034-1.27-1.462-.284-.434-.432-.847-.444-1.238-.005-.398.13-.812.404-1.243.282-.439.71-.935 1.286-1.49l2.85-2.75c.577-.555 1.087-.964 1.533-1.227.452-.27.879-.396 1.28-.38.408.01.83.158 1.265.447.443.281.942.696 1.497 1.243l.844.832c.556.547.976 1.038 1.26 1.472.291.428.44.84.444 1.238.012.391-.126.802-.415 1.234-.274.43-.7.924-1.275 1.48l-2.85 2.748c-.577.556-1.09.968-1.544 1.238-.438.27-.861.4-1.27.39-.4-.015-.822-.164-1.264-.446-.436-.288-.93-.706-1.487-1.254l-.844-.831Zm.66-.635.843.832c.442.435.823.762 1.144.98.328.225.636.338.922.34.3.002.62-.105.958-.32.338-.214.733-.54 1.187-.977l1.177-1.135-5.054-4.98-1.177 1.135c-.454.437-.792.82-1.016 1.146-.224.327-.336.637-.338.93.013.294.133.601.36.924.228.322.559.697.993 1.125Zm1.825-5.884 5.054 4.98 1.025-.99c.454-.437.792-.82 1.016-1.146.224-.327.333-.633.328-.92.008-.286-.101-.59-.329-.912-.22-.316-.55-.69-.993-1.126l-.843-.832c-.435-.428-.816-.755-1.145-.98-.328-.225-.646-.342-.954-.35-.293-.009-.609.094-.947.309-.337.214-.733.54-1.186.977l-1.026.99Zm8.897 19.271a.488.488 0 0 1-.149-.336c.001-.126.052-.237.153-.334l1.878-1.812-1.901-1.874a.448.448 0 0 1-.138-.304c0-.126.047-.234.14-.324a.412.412 0 0 1 .324-.124c.129 0 .236.043.321.128l1.902 1.874 3.52-3.395c-.788.178-1.656.298-2.601.363-.946.065-1.909.077-2.89.037a24.318 24.318 0 0 1-2.823-.298.729.729 0 0 1-.375-.201.456.456 0 0 1 .1-.701.517.517 0 0 1 .409-.06 18.3 18.3 0 0 0 2.963.371c1.03.048 2.03.029 2.997-.057a17.212 17.212 0 0 0 2.58-.384l-3.73-3.674a.468.468 0 0 1-.148-.315.468.468 0 0 1 .152-.313.47.47 0 0 1 .313-.135.46.46 0 0 1 .332.138l4.028 3.97 1.911-1.843a.48.48 0 0 1 .345-.145c.136.008.25.057.343.148a.452.452 0 0 1-.015.66l-1.911 1.843 4.039 3.98c.085.084.128.188.127.314a.42.42 0 0 1-.131.313.457.457 0 0 1-.333.135.47.47 0 0 1-.311-.138L99.3 57.352a16.508 16.508 0 0 0-.423 2.678 23.386 23.386 0 0 0-.005 2.921c.074.985.198 1.914.372 2.787a.36.36 0 0 1-.088.335.478.478 0 0 1-.323.186.614.614 0 0 1-.397-.096.47.47 0 0 1-.213-.336 26.764 26.764 0 0 1-.308-2.724 22.888 22.888 0 0 1 .037-2.806c.07-.928.207-1.81.412-2.647l-3.553 3.426 1.966 1.937a.39.39 0 0 1 .127.315.39.39 0 0 1-.13.313.46.46 0 0 1-.334.135.436.436 0 0 1-.31-.138L94.163 61.7l-1.88 1.811a.479.479 0 0 1-.676.007Zm16.93 5.777c-.542-.534-.912-1.01-1.11-1.43-.191-.413-.21-.818-.058-1.215.153-.397.474-.831.963-1.303.49-.472.939-.78 1.348-.925.409-.144.824-.121 1.246.07.428.197.913.563 1.455 1.096l.79.78c.542.533.908 1.006 1.099 1.419.198.42.221.828.068 1.225-.152.397-.473.832-.963 1.304-.489.472-.938.78-1.347.924-.409.145-.828.118-1.257-.08-.421-.19-.902-.553-1.444-1.086l-.79-.78Zm-2.245 7.788c-.747-.737-1.141-1.378-1.181-1.922-.033-.538.26-1.105.879-1.702l.712-.687c.62-.597 1.205-.877 1.756-.839.558.045 1.211.436 1.959 1.173.741.73 1.131 1.367 1.171 1.912.04.544-.249 1.115-.868 1.712l-.713.687c-.619.597-1.208.873-1.766.828-.558-.044-1.208-.432-1.949-1.162Zm-4.957-4.885c-.741-.73-1.128-1.364-1.161-1.901-.033-.538.26-1.105.879-1.702l.713-.687c.619-.597 1.204-.877 1.756-.839.551.038 1.197.422 1.938 1.152.498.491.836.936 1.013 1.335.184.392.21.769.08 1.131-.117.363-.384.745-.801 1.148l-.713.687c-.41.395-.806.652-1.186.768-.373.124-.759.094-1.159-.09-.408-.176-.861-.51-1.359-1.002Zm7.882-3.559.79.78c.378.371.699.624.963.758a.89.89 0 0 0 .773.046c.259-.096.557-.307.895-.634.339-.326.559-.614.66-.865.109-.244.096-.495-.039-.754-.134-.26-.391-.575-.768-.947l-.791-.779c-.37-.365-.691-.618-.962-.759a.94.94 0 0 0-.784-.056c-.251.103-.546.318-.884.644-.339.326-.562.611-.671.855a.873.873 0 0 0 .05.764c.141.267.397.582.768.947Zm-2.255 7.799c.499.49.912.751 1.242.781.336.037.702-.136 1.098-.517l.691-.667c.403-.389.584-.743.543-1.065-.027-.321-.29-.727-.788-1.219-.499-.491-.916-.755-1.253-.792-.322-.036-.684.14-1.088.528l-.691.667c-.395.382-.58.733-.553 1.054.034.328.3.738.799 1.23Zm-4.958-4.885c.499.49.913.751 1.242.781.329.03.692-.146 1.088-.528l.691-.666c.403-.39.587-.74.553-1.055-.027-.321-.289-.727-.788-1.219-.499-.491-.912-.752-1.242-.781-.315-.03-.674.15-1.077.538l-.691.667c-.396.382-.584.73-.564 1.044.027.321.29.727.788 1.219Zm15.62 17.664a.435.435 0 0 1-.138-.326c0-.111.047-.212.141-.303l2.041-1.967-3.163-3.117a.397.397 0 0 1-.127-.294.45.45 0 0 1 .141-.302.399.399 0 0 1 .291-.114.397.397 0 0 1 .311.117l.833.821c.194-.048.412-.106.656-.174.258-.069.509-.144.753-.227.251-.075.459-.144.624-.206a.42.42 0 0 1 .355.013.45.45 0 0 1 .256.252.388.388 0 0 1-.002.356.461.461 0 0 1-.28.23c-.208.06-.47.133-.786.215-.315.082-.609.157-.882.225l1.635 1.611 1.62-1.562-1.069-1.052c-.584-.576-.892-1.098-.926-1.566-.026-.46.245-.965.814-1.513l1.156-1.114c.547-.528 1.056-.784 1.529-.767.473.017.987.292 1.542.825.201-.083.442-.182.722-.3.294-.117.52-.21.678-.279a.545.545 0 0 1 .376-.03.453.453 0 0 1 .278.233c.078.119.095.234.052.346a.381.381 0 0 1-.238.25c-.151.062-.341.134-.57.216-.216.083-.424.159-.625.227l1.015 1c.585.576.886 1.098.905 1.566.033.467-.231.972-.792 1.513l-1.156 1.114c-.547.528-1.053.787-1.518.777-.459-.016-.969-.287-1.532-.814l-1.62 1.562 1.849 1.821a.392.392 0 0 1 .127.315.382.382 0 0 1-.12.282.469.469 0 0 1-.312.134.437.437 0 0 1-.311-.137l-1.848-1.822-2.041 1.968a.412.412 0 0 1-.323.124.44.44 0 0 1-.321-.127Zm-7.168-7.484a.392.392 0 0 1 .013-.345.514.514 0 0 1 .27-.218 9.877 9.877 0 0 0 2.682-1.337c.474-.318.988-.71 1.542-1.174a36.955 36.955 0 0 0 1.867-1.697l3.661-3.53a.438.438 0 0 1 .312-.134.492.492 0 0 1 .322.148.397.397 0 0 1 .127.294.392.392 0 0 1-.131.314l-2.613 2.52 1.079 1.063 2.613-2.52a.438.438 0 0 1 .313-.134c.129 0 .236.043.321.127.086.084.128.19.127.315a.39.39 0 0 1-.13.313l-2.613 2.52.694.684c.093.091.132.193.117.304a.397.397 0 0 1-.131.293.417.417 0 0 1-.301.124.385.385 0 0 1-.3-.127l-2.404-2.37-.432.417-.475.458c-.151.146-.303.285-.454.417l.802.79c.42.413.626.799.616 1.154.006.356-.2.736-.618 1.138l-3.131 3.02a.414.414 0 0 1-.323.124.472.472 0 0 1-.449-.442.392.392 0 0 1 .131-.314l3.001-2.894c.252-.243.379-.462.38-.658.008-.188-.112-.405-.362-.651l-.694-.684a21.353 21.353 0 0 1-1.823 1.424c-.539.367-1.049.672-1.531.913-.473.235-.954.435-1.442.6a.473.473 0 0 1-.365-.002.414.414 0 0 1-.268-.243Zm12.051 2.233.47.463c.385.38.72.576 1.007.592.293.023.62-.14.98-.487l.356-.343-1.506-1.485-1.307 1.26Zm-1.079-1.063.449.442 1.306-1.26-1.485-1.463-.356.343c-.36.347-.534.66-.521.94.02.286.222.619.607.998Zm2.936-.728 1.507 1.485.27-.26c.36-.348.526-.66.499-.94-.013-.28-.212-.609-.596-.988l-.47-.463-1.21 1.166Zm-2.115-2.084 1.485 1.463 1.209-1.166-.448-.442c-.385-.38-.724-.58-1.018-.603-.279-.022-.598.14-.958.487l-.27.26Zm.569 13.865a.669.669 0 0 1-.353-.263.474.474 0 0 1-.051-.43.512.512 0 0 1 .281-.313.636.636 0 0 1 .451.024c.779.318 1.594.539 2.445.662.859.117 1.715.132 2.567.046a9.647 9.647 0 0 0 2.442-.584 7.14 7.14 0 0 0 2.069-1.182l-4.007-3.948a.435.435 0 0 1-.138-.326.44.44 0 0 1 .141-.324.462.462 0 0 1 .334-.134c.129 0 .24.047.332.138l4.028 3.97 2.689-2.594a.498.498 0 0 1 .355-.155c.136.008.254.061.354.16.1.098.149.21.149.335a.451.451 0 0 1-.153.355l-2.688 2.593 4.038 3.98c.093.09.139.2.138.325a.437.437 0 0 1-.141.324.462.462 0 0 1-.334.134.459.459 0 0 1-.332-.138l-4.028-3.969a6.901 6.901 0 0 0-1.203 1.951 9.762 9.762 0 0 0-.593 2.364 11.159 11.159 0 0 0-.003 2.544c.11.852.324 1.673.642 2.464a.43.43 0 0 1-.013.387.48.48 0 0 1-.313.26.469.469 0 0 1-.44-.055.59.59 0 0 1-.277-.336 12.865 12.865 0 0 1-.607-2.935 11.283 11.283 0 0 1 .123-2.952c.184-.97.508-1.885.971-2.748a10.223 10.223 0 0 1-4.335 1.096 12.644 12.644 0 0 1-4.54-.726Zm15.859 13.038c-.427-.421-.715-.789-.864-1.104-.148-.315-.168-.622-.059-.922.116-.292.361-.619.736-.98l.907-.875c.374-.361.712-.596 1.013-.706a1.24 1.24 0 0 1 .945.068c.321.148.696.433 1.123.854l2.864 2.821c.427.421.715.789.864 1.104.156.322.175.63.059.922-.109.3-.35.63-.725.991l-.907.874c-.374.361-.715.593-1.024.696-.301.11-.616.088-.945-.067-.321-.149-.696-.434-1.123-.855l-2.864-2.821Zm2.199-7.39a.488.488 0 0 1-.148-.337.456.456 0 0 1 .152-.334l.41-.395c.468-.452.931-.655 1.389-.61.466.037 1.022.375 1.671 1.013l.609.6c0-.055.004-.094.011-.115.051-.188.106-.421.165-.7.066-.272.121-.52.165-.743a.323.323 0 0 1 .195-.25.58.58 0 0 1 .344-.019.443.443 0 0 1 .34.546c-.037.23-.088.481-.154.753a5.937 5.937 0 0 1-.165.68.355.355 0 0 1-.162.219.441.441 0 0 1-.28.082l1.346 1.327 1.285-1.239a.411.411 0 0 1 .345-.124c.136.008.25.057.343.148a.44.44 0 0 1 .137.326.39.39 0 0 1-.13.334l-1.285 1.239 1.228 1.211c.037-.161.152-.265.346-.312.258-.055.52-.113.785-.174a8.3 8.3 0 0 0 .688-.164.482.482 0 0 1 .611.307c.07.28-.028.464-.293.553-.23.069-.491.134-.785.195-.28.061-.542.112-.785.153l.598.589c.648.639.989 1.185 1.022 1.639.041.447-.173.896-.641 1.347l-.399.386a.455.455 0 0 1-.355.134.477.477 0 0 1-.343-.149.488.488 0 0 1-.149-.335.462.462 0 0 1 .152-.335l.389-.374c.288-.278.422-.546.402-.804-.02-.259-.23-.585-.629-.978l-5.502-5.421c-.399-.394-.731-.601-.996-.624-.265-.022-.541.106-.829.383l-.399.385a.457.457 0 0 1-.356.135.481.481 0 0 1-.343-.149Zm1.992 3.203c-.385-.379-.584-.708-.596-.987-.013-.279.128-.561.423-.846.295-.284.586-.419.872-.403.287.015.622.212 1.007.591l2.992 2.948c.384.379.583.708.596.988.013.279-.129.561-.424.845-.295.285-.586.42-.872.404-.286-.015-.622-.213-1.007-.592l-2.991-2.948Zm-3.543 1.688 4.786 4.716.616-.593-4.787-4.717-.615.594Zm-.044 2.083 2.693 2.653c.384.379.688.601.909.665.229.057.484-.029.764-.258l-4.765-4.695c-.238.271-.329.518-.273.742.071.223.295.521.672.893Zm1.123-3.103 4.766 4.695c.216-.264.292-.504.229-.721-.063-.217-.283-.511-.661-.883l-2.693-2.653c-.37-.365-.67-.583-.898-.654-.222-.064-.469.008-.743.216Zm3.089-1.062 2.778 2.737c.185.183.331.285.439.306.107.022.229-.033.366-.165.144-.139.202-.257.174-.355-.021-.105-.124-.249-.31-.431l-2.778-2.738c-.185-.182-.331-.284-.438-.306-.1-.028-.222.027-.366.166-.137.132-.195.25-.174.355.021.105.124.248.309.431Zm-1.102 11.145a24.572 24.572 0 0 1-1.362-2.458 13.634 13.634 0 0 1-.477-1.122.391.391 0 0 1 .002-.336.524.524 0 0 1 .248-.218.377.377 0 0 1 .333.033.539.539 0 0 1 .234.295c.135.314.298.671.489 1.07.198.406.407.809.627 1.208.227.406.45.773.671 1.103.085.126.12.245.105.356a.35.35 0 0 1-.205.282.425.425 0 0 1-.366.04.52.52 0 0 1-.299-.253Zm-7.544-7.433c-.292-.176-.363-.393-.211-.65a.419.419 0 0 1 .291-.198.617.617 0 0 1 .365.107c.342.211.721.43 1.135.655.421.233.832.448 1.232.646.414.197.771.353 1.071.466a.515.515 0 0 1 .289.222.354.354 0 0 1 .041.335.38.38 0 0 1-.237.229.42.42 0 0 1-.355.008 23.812 23.812 0 0 1-1.821-.826 21.184 21.184 0 0 1-1.8-.994Zm12.297 10.39c-.221-.217-.212-.441.025-.67l6.846-6.601c.237-.229.467-.235.687-.017l.054.053a.674.674 0 0 1 .19.65l-2.073 9.914 6.014-5.799c.238-.229.47-.231.698-.007.214.211.202.431-.035.66l-6.846 6.601c-.238.229-.46.242-.666.038l-.065-.063a.62.62 0 0 1-.179-.64l2.106-10.008-6.079 5.861c-.238.23-.463.239-.677.028Zm10.945 11.059c-.676-.667-1.109-1.409-1.298-2.227-.189-.818-.134-1.655.164-2.512.305-.85.854-1.656 1.646-2.42.792-.764 1.621-1.286 2.489-1.568.883-.281 1.742-.325 2.579-.132.844.186 1.604.612 2.281 1.279.67.66 1.095 1.402 1.277 2.227.189.817.131 1.651-.175 2.501-.291.85-.832 1.657-1.624 2.42-.792.764-1.629 1.286-2.511 1.568-.875.288-1.731.336-2.568.143-.837-.193-1.59-.619-2.26-1.279Zm.648-.625c.534.527 1.134.865 1.799 1.015.68.15 1.378.102 2.096-.146.731-.247 1.436-.697 2.112-1.349.677-.653 1.143-1.331 1.397-2.035.262-.696.315-1.373.161-2.03-.139-.657-.476-1.248-1.01-1.775-.535-.526-1.142-.865-1.821-1.015-.672-.157-1.371-.115-2.095.125-.725.24-1.425.687-2.102 1.339-.677.653-1.146 1.334-1.408 2.045-.254.703-.308 1.387-.161 2.051.154.657.498 1.249 1.032 1.775Zm5.65 6.788a.792.792 0 0 1-.004-1.162.815.815 0 0 1 .592-.237.808.808 0 0 1 .611.244.752.752 0 0 1 .233.587.778.778 0 0 1-.25.575.846.846 0 0 1-.592.237.815.815 0 0 1-.59-.244Zm4.769 4.467c-.207-.203-.191-.419.046-.649l6.392-6.163-1.995-.472c-.336-.064-.471-.24-.405-.526.066-.271.267-.375.603-.31l2.457.568c.207.05.393.155.557.317.156.154.116.346-.122.575l-6.867 6.622c-.238.229-.46.242-.666.038Z" fill="#000"/></g><defs><clipPath id="a"><path fill="#fff" d="M0 0h195v195H0z"/></clipPath></defs></svg>