<svg width="195" height="195" viewBox="0 0 195 195" fill="none" xmlns="http://www.w3.org/2000/svg">
<g clip-path="url(#clip0_76_63289)">
<path d="M194.695 194.696L0.303835 0.304594L0.303829 61.1687L133.831 194.696L194.695 194.696Z" fill="white"/>
<mask id="mask0_76_63289" style="mask-type:luminance" maskUnits="userSpaceOnUse" x="0" y="0" width="195" height="195">
<path d="M-1.52588e-05 195L195 195L195 1.52588e-05L1.78865e-06 -1.78865e-06L-1.52588e-05 195Z" fill="white"/>
</mask>
<g mask="url(#mask0_76_63289)">
<path d="M0.608553 0.000105076L195 194.392L194.391 195.001L-0.000868016 0.609526L0.608553 0.000105076Z" fill="black"/>
<path d="M0.608532 60.8639L134.136 194.391L133.527 195.001L-0.000873336 61.4733L0.608532 60.8639Z" fill="black"/>
</g>
<path d="M29.2438 67.8558C29.1524 67.7634 29.1035 67.65 29.0971 67.5156C29.0978 67.3883 29.1479 67.2755 29.2475 67.177L31.103 65.3415L29.2252 63.4433C29.1408 63.358 29.0954 63.2552 29.089 63.135C29.0897 63.0077 29.1363 62.8984 29.2287 62.8069C29.3211 62.7155 29.4274 62.6737 29.5476 62.6814C29.6748 62.6821 29.7807 62.7251 29.8651 62.8104L31.7428 64.7085L35.2192 61.2695C34.4404 61.4492 33.5841 61.5718 32.6504 61.6375C31.7166 61.7031 30.7655 61.7157 29.797 61.6751C28.8355 61.6275 27.9062 61.527 27.009 61.3736C26.8677 61.3446 26.7444 61.2767 26.6389 61.1701C26.5405 61.0564 26.5023 60.9254 26.5243 60.777C26.5534 60.6358 26.6247 60.5301 26.7382 60.46C26.8588 60.3828 26.9933 60.3624 27.1416 60.3985C28.0739 60.6015 29.049 60.727 30.067 60.775C31.085 60.8229 32.0715 60.8035 33.0266 60.7167C33.9887 60.6371 34.8379 60.5073 35.5743 60.3274L31.8927 56.6058C31.8013 56.5134 31.7523 56.407 31.7459 56.2868C31.7536 56.1666 31.8037 56.0608 31.8961 55.9694C31.9814 55.885 32.0842 55.8396 32.2045 55.8332C32.3317 55.8339 32.4411 55.8804 32.5325 55.9728L36.5095 59.9931L38.397 58.1259C38.4965 58.0274 38.6099 57.9786 38.7372 57.9793C38.8715 57.987 38.9844 58.0372 39.0758 58.1296C39.1673 58.222 39.2126 58.3318 39.2119 58.4591C39.2112 58.5864 39.1611 58.6993 39.0616 58.7977L37.1741 60.6649L41.1617 64.6958C41.2461 64.7811 41.2879 64.8874 41.2872 65.0147C41.2865 65.142 41.2435 65.2478 41.1582 65.3322C41.0658 65.4236 40.956 65.469 40.8287 65.4683C40.7085 65.4606 40.6062 65.4141 40.5218 65.3288L36.8402 61.6071C36.6377 62.4404 36.4985 63.3448 36.4225 64.3202C36.3606 65.2957 36.3588 66.2821 36.4171 67.2794C36.4895 68.2769 36.6117 69.218 36.7836 70.1028C36.8112 70.2302 36.7823 70.3432 36.697 70.4418C36.6186 70.5474 36.5122 70.6105 36.3777 70.631C36.2362 70.6443 36.1056 70.6118 35.9858 70.5334C35.8731 70.4621 35.803 70.3485 35.7755 70.1928C35.6318 69.3081 35.5307 68.3884 35.4722 67.4334C35.4279 66.4786 35.4401 65.5311 35.5088 64.591C35.5776 63.6509 35.7132 62.7571 35.9158 61.9097L32.4074 65.3804L34.3484 67.3425C34.4398 67.4349 34.4817 67.5412 34.474 67.6614C34.4804 67.7816 34.4374 67.8875 34.345 67.9789C34.2526 68.0703 34.1427 68.1157 34.0154 68.115C33.9023 68.1144 33.8 68.0679 33.7086 67.9754L31.7676 66.0133L29.9121 67.8488C29.8125 67.9473 29.6991 67.9962 29.5718 67.9955C29.4446 67.9948 29.3352 67.9482 29.2438 67.8558ZM45.0105 80.6374C44.9191 80.545 44.8702 80.4386 44.8638 80.3184C44.8715 80.1982 44.9181 80.0889 45.0034 79.9903C45.0746 79.9059 45.1703 79.8604 45.2906 79.854C45.4108 79.8476 45.5202 79.8871 45.6187 79.9725C45.9986 80.3281 46.2805 80.5205 46.4641 80.5498C46.662 80.5792 46.8853 80.4708 47.1341 80.2246L52.0821 75.3298C52.4376 74.9782 52.609 74.668 52.5963 74.3992C52.5907 74.1234 52.4016 73.7971 52.0288 73.4203L49.6975 71.0636C49.3318 70.6939 49.0075 70.5013 48.7248 70.4856C48.4562 70.47 48.1441 70.638 47.7887 70.9897L45.9865 72.7725C45.3182 73.4335 44.7178 73.9642 44.1853 74.3643C43.6528 74.7645 43.1385 75.0764 42.6423 75.3C42.1602 75.5237 41.6431 75.7047 41.0908 75.8432C40.9775 75.8708 40.8644 75.8561 40.7516 75.7989C40.6458 75.7488 40.572 75.6671 40.5302 75.5537C40.4884 75.4404 40.496 75.3343 40.5531 75.2357C40.6173 75.1299 40.7061 75.0632 40.8194 75.0356C41.315 74.911 41.7897 74.7368 42.2435 74.5129C42.7114 74.2892 43.1939 73.9877 43.6909 73.6086C44.2021 73.2295 44.7598 72.7411 45.3641 72.1433L47.2409 70.2867C47.767 69.7662 48.2527 69.5178 48.6981 69.5415C49.1576 69.5652 49.6581 69.8507 50.1996 70.3981L52.6892 72.9148C53.2307 73.4622 53.5073 73.9622 53.519 74.4148C53.5448 74.8675 53.2947 75.3541 52.7686 75.8745L47.682 80.9064C47.2697 81.3143 46.8585 81.5101 46.4484 81.4937C46.0454 81.4845 45.5661 81.199 45.0105 80.6374ZM42.4659 80.4539C41.7908 79.7714 41.2356 79.1391 40.8003 78.5569C40.365 77.9889 40.0427 77.4356 39.8335 76.897C39.6171 76.3655 39.4928 75.8133 39.4606 75.2404C39.2487 75.1968 38.9908 75.1494 38.6871 75.0983C38.3903 75.0543 38.1077 75.0032 37.8393 74.9452C37.5709 74.9013 37.366 74.8649 37.2247 74.8358C37.0905 74.8139 36.9813 74.739 36.8972 74.6113C36.8129 74.4977 36.7853 74.3703 36.8144 74.229C36.8433 74.1019 36.9181 73.9998 37.0388 73.9226C37.1664 73.8526 37.2938 73.8392 37.4208 73.8823C37.555 73.9183 37.7386 73.9688 37.9716 74.0337C38.2187 74.0987 38.48 74.1638 38.7554 74.2289C39.0379 74.3011 39.2921 74.3662 39.518 74.4239L42.1733 71.7972C42.3724 71.6003 42.4723 71.4241 42.4732 71.2685C42.481 71.1201 42.383 70.9427 42.1791 70.7366L41.4301 69.9795C41.3386 69.887 41.2932 69.7843 41.2939 69.6711C41.3016 69.5509 41.3481 69.4487 41.4334 69.3643C41.5258 69.2729 41.6286 69.2274 41.7417 69.2281C41.862 69.2216 41.9678 69.2646 42.0592 69.3571L42.9665 70.2741C43.3181 70.6296 43.4895 70.9664 43.4807 71.2846C43.4861 71.6028 43.311 71.9377 42.9556 72.2894L40.2256 74.9899C40.2651 75.5276 40.3755 76.0373 40.5568 76.5191C40.7451 76.9939 41.0429 77.494 41.4502 78.0195C41.8575 78.545 42.4022 79.1525 43.0844 79.8421C43.7385 80.5032 44.3398 81.0969 44.8885 81.6232C45.4514 82.1495 45.9439 82.5976 46.3662 82.9676C46.4788 83.0672 46.5383 83.1842 46.5446 83.3186C46.558 83.4601 46.5149 83.5801 46.4154 83.6785C46.195 83.8965 45.9546 83.8882 45.6943 83.6534C45.4551 83.4258 45.1597 83.1343 44.808 82.7789C44.4563 82.4375 44.08 82.0643 43.6792 81.659C43.2712 81.2609 42.8668 80.8591 42.4659 80.4539ZM44.8014 78.1225C44.274 77.5893 43.997 77.1458 43.9707 76.7921C43.9514 76.4314 44.1657 76.0295 44.6136 75.5864C44.9122 75.2911 45.1819 75.1016 45.4228 75.018C45.6778 74.9346 45.9393 74.9572 46.2073 75.0859C46.4753 75.2147 46.7851 75.4568 47.1368 75.8122C47.4955 76.1748 47.7377 76.4908 47.8635 76.7601C47.9893 77.0295 48.0056 77.2877 47.9124 77.5347C47.8262 77.7747 47.6338 78.0423 47.3353 78.3377C47.0367 78.6331 46.7634 78.826 46.5154 78.9166C46.2674 79.0072 46.0094 78.9881 45.7414 78.8594C45.4734 78.7307 45.1601 78.485 44.8014 78.1225ZM46.1835 73.6115C46.1061 73.5333 46.0713 73.4411 46.0789 73.3351C46.0865 73.2291 46.1259 73.1409 46.197 73.0706C46.2752 72.9932 46.3638 72.9548 46.4628 72.9553C46.5689 72.9489 46.6606 72.9847 46.738 73.0629L48.0144 74.3532L48.8249 73.5515L47.8438 72.5598C47.7665 72.4816 47.7316 72.3894 47.7392 72.2834C47.7469 72.1774 47.7863 72.0892 47.8573 72.0189C47.9355 71.9415 48.0241 71.9031 48.1231 71.9037C48.2292 71.8972 48.321 71.933 48.3983 72.0112L49.3794 73.0029L50.0619 72.3278C50.1614 72.2293 50.2642 72.1839 50.3702 72.1916C50.4833 72.2063 50.582 72.2564 50.6664 72.3417C50.7508 72.427 50.7962 72.5227 50.8027 72.6288C50.8163 72.742 50.7733 72.8478 50.6737 72.9463L49.9912 73.6214L51.0567 74.6985C51.1341 74.7767 51.1689 74.8688 51.1613 74.9748C51.1607 75.0738 51.1214 75.162 51.0432 75.2394C50.9721 75.3097 50.8835 75.3481 50.7774 75.3546C50.6713 75.3611 50.5795 75.3252 50.5022 75.247L49.4367 74.17L48.6263 74.9717L49.9344 76.294C50.0117 76.3722 50.0466 76.4644 50.0389 76.5704C50.0384 76.6694 49.999 76.7576 49.9208 76.8349C49.8497 76.9052 49.7611 76.9437 49.655 76.9501C49.5489 76.9566 49.4572 76.9208 49.3798 76.8426L46.1835 73.6115ZM45.3559 77.5739C45.6865 77.908 45.9401 78.0791 46.1168 78.0871C46.2936 78.0952 46.5028 77.9796 46.7445 77.7405C46.9933 77.4944 47.1111 77.2864 47.0979 77.1166C47.0847 76.9469 46.9128 76.6949 46.5823 76.3608C46.2588 76.0337 46.0087 75.8591 45.832 75.837C45.6624 75.8219 45.4532 75.9375 45.2043 76.1836C44.9626 76.4227 44.8448 76.6307 44.8509 76.8075C44.8641 76.9914 45.0324 77.2469 45.3559 77.5739ZM45.7799 69.7908C45.6526 69.7902 45.5432 69.7436 45.4518 69.6512C45.3675 69.5517 45.3328 69.4384 45.3476 69.3112C45.3772 69.0709 45.3964 68.7776 45.4054 68.4312C45.4285 68.0848 45.4374 67.7383 45.4322 67.3918C45.434 67.0524 45.425 66.7589 45.4052 66.5113C45.3987 66.3911 45.4346 66.2923 45.5128 66.2149C45.6052 66.1376 45.7079 66.0993 45.821 66.0999C45.9342 66.1005 46.033 66.1364 46.1174 66.2076C46.209 66.2859 46.2614 66.3887 46.2749 66.516C46.3017 66.7849 46.3142 67.0961 46.3123 67.4496C46.3245 67.8033 46.3297 68.1498 46.3279 68.4892C46.333 68.8357 46.3244 69.1256 46.3019 69.3588C46.2941 69.4931 46.2405 69.6024 46.1411 69.6867C46.0416 69.771 45.9212 69.8057 45.7799 69.7908ZM52.8188 90.1302C52.2703 89.5757 51.8522 89.082 51.5646 88.6491C51.2842 88.2092 51.1379 87.7912 51.1259 87.3952C51.121 86.9921 51.2541 86.5721 51.5252 86.1351C51.8034 85.6911 52.2268 85.1878 52.7956 84.6252L55.6108 81.8403C56.1795 81.2776 56.6838 80.8632 57.1237 80.5968C57.5706 80.3235 57.9921 80.1949 58.388 80.2112C58.791 80.2205 59.2074 80.3712 59.6371 80.6635C60.074 80.9487 60.5667 81.3685 61.1153 81.9231L61.9486 82.7655C62.4972 83.32 62.9117 83.8172 63.1922 84.2572C63.4797 84.6901 63.626 85.1081 63.6309 85.5111C63.6429 85.9072 63.5063 86.3237 63.2211 86.7605C62.95 87.1975 62.5301 87.6973 61.9613 88.2599L59.1461 91.0448C58.5774 91.6074 58.0695 92.0254 57.6226 92.2988C57.1897 92.5722 56.7718 92.7043 56.3688 92.6951C55.9729 92.6788 55.5565 92.528 55.1197 92.2428C54.6899 91.9506 54.2007 91.5272 53.6522 90.9727L52.8188 90.1302ZM53.4693 89.4868L54.3027 90.3292C54.7387 90.77 55.1152 91.1008 55.4322 91.3217C55.7563 91.5498 56.0597 91.6645 56.3426 91.6661C56.6395 91.6677 56.9548 91.5598 57.2883 91.3424C57.6218 91.125 58.0125 90.7947 58.4604 90.3517L59.6228 89.2018L54.633 84.1578L53.4707 85.3077C53.0228 85.7508 52.6884 86.1379 52.4674 86.469C52.2464 86.8002 52.1351 87.1142 52.1335 87.4112C52.146 87.7083 52.2645 88.02 52.489 88.3465C52.7136 88.673 53.0403 89.0531 53.4693 89.4868ZM55.2729 83.5249L60.2626 88.5689L61.2757 87.5667C61.7235 87.1237 62.058 86.7366 62.279 86.4054C62.5 86.0743 62.6077 85.7637 62.6022 85.4738C62.6109 85.1839 62.5029 84.8757 62.2784 84.5492C62.0609 84.2298 61.7342 83.8498 61.2981 83.409L60.4648 82.5666C60.0358 82.1329 59.6593 81.802 59.3352 81.574C59.0112 81.346 58.6971 81.2276 58.3931 81.2189C58.1033 81.2103 57.7916 81.3146 57.458 81.532C57.1245 81.7494 56.7338 82.0797 56.2859 82.5227L55.2729 83.5249ZM64.0558 103.046C63.9643 102.954 63.9154 102.841 63.9091 102.706C63.9098 102.579 63.9599 102.466 64.0594 102.368L65.9149 100.532L64.0372 98.6339C63.9528 98.5486 63.9074 98.4458 63.901 98.3256C63.9017 98.1983 63.9482 98.0889 64.0406 97.9975C64.1331 97.9061 64.2394 97.8642 64.3595 97.872C64.4868 97.8726 64.5926 97.9156 64.677 98.001L66.5548 99.8991L70.0312 96.4601C69.2524 96.6398 68.3961 96.7624 67.4623 96.8281C66.5286 96.8937 65.5774 96.9063 64.6089 96.8657C63.6475 96.818 62.7182 96.7176 61.821 96.5642C61.6797 96.5352 61.5563 96.4673 61.4508 96.3607C61.3525 96.247 61.3143 96.116 61.3363 95.9676C61.3653 95.8263 61.4366 95.7207 61.5501 95.6506C61.6708 95.5734 61.8052 95.5529 61.9535 95.5891C62.8858 95.7921 63.861 95.9176 64.879 95.9656C65.8969 96.0135 66.8835 95.9941 67.8386 95.9073C68.8007 95.8277 69.6499 95.6979 70.3863 95.518L66.7047 91.7964C66.6132 91.7039 66.5643 91.5976 66.5579 91.4774C66.5656 91.3572 66.6157 91.2514 66.7081 91.16C66.7934 91.0756 66.8962 91.0302 67.0164 91.0238C67.1437 91.0244 67.2531 91.071 67.3445 91.1634L71.3215 95.1837L73.209 93.3165C73.3085 93.218 73.4219 93.1691 73.5492 93.1698C73.6835 93.1776 73.7964 93.2277 73.8878 93.3202C73.9792 93.4126 74.0246 93.5224 74.0239 93.6497C74.0232 93.777 73.9731 93.8899 73.8736 93.9883L71.9861 95.8555L75.9736 99.8864C76.058 99.9717 76.0999 100.078 76.0992 100.205C76.0985 100.333 76.0555 100.438 75.9702 100.523C75.8778 100.614 75.7679 100.66 75.6406 100.659C75.5205 100.651 75.4182 100.605 75.3338 100.519L71.6522 96.7977C71.4497 97.631 71.3104 98.5354 71.2344 99.5108C71.1726 100.486 71.1708 101.473 71.229 102.47C71.3014 103.467 71.4236 104.409 71.5956 105.293C71.6232 105.421 71.5943 105.534 71.5089 105.632C71.4306 105.738 71.3242 105.801 71.1897 105.822C71.0482 105.835 70.9176 105.802 70.7978 105.724C70.685 105.653 70.6149 105.539 70.5875 105.383C70.4438 104.499 70.3427 103.579 70.2842 102.624C70.2399 101.669 70.2521 100.722 70.3208 99.7816C70.3895 98.8415 70.5252 97.9477 70.7277 97.1003L67.2194 100.571L69.1604 102.533C69.2518 102.625 69.2937 102.732 69.2859 102.852C69.2924 102.972 69.2494 103.078 69.1569 103.169C69.0645 103.261 68.9547 103.306 68.8274 103.306C68.7143 103.305 68.612 103.258 68.5206 103.166L66.5795 101.204L64.724 103.039C64.6245 103.138 64.5111 103.187 64.3838 103.186C64.2565 103.185 64.1472 103.139 64.0558 103.046ZM80.7722 108.896C80.2377 108.356 79.8726 107.873 79.6769 107.448C79.4883 107.03 79.4693 106.619 79.6199 106.217C79.7706 105.815 80.0877 105.375 80.5711 104.896C81.0545 104.418 81.4981 104.106 81.902 103.96C82.3058 103.813 82.7158 103.837 83.132 104.03C83.5552 104.23 84.034 104.601 84.5685 105.141L85.3491 105.93C85.8836 106.47 86.2452 106.95 86.4339 107.368C86.6295 107.793 86.6521 108.207 86.5014 108.609C86.3507 109.011 86.0337 109.452 85.5502 109.93C85.0668 110.408 84.6232 110.72 84.2193 110.867C83.8155 111.013 83.402 110.986 82.9788 110.786C82.5626 110.592 82.0873 110.226 81.5528 109.685L80.7722 108.896ZM78.5551 116.786C77.8167 116.04 77.4278 115.391 77.3883 114.839C77.3559 114.294 77.6454 113.72 78.2568 113.115L78.9606 112.419C79.572 111.814 80.1498 111.53 80.6941 111.569C81.2454 111.614 81.8903 112.01 82.6287 112.757C83.3601 113.496 83.7455 114.142 83.785 114.693C83.8244 115.245 83.5384 115.823 82.927 116.428L82.2232 117.124C81.6118 117.729 81.0305 118.009 80.4792 117.963C79.9279 117.918 79.2865 117.526 78.5551 116.786ZM73.6604 111.838C72.9289 111.099 72.547 110.457 72.5146 109.912C72.4822 109.368 72.7717 108.793 73.3831 108.188L74.0869 107.492C74.6983 106.887 75.2761 106.604 75.8204 106.642C76.3647 106.68 77.0025 107.069 77.7339 107.809C78.2262 108.306 78.5597 108.757 78.7343 109.161C78.916 109.558 78.9422 109.94 78.8129 110.307C78.6978 110.674 78.4341 111.062 78.0217 111.469L77.3179 112.166C76.9127 112.567 76.5224 112.826 76.147 112.944C75.7786 113.07 75.3969 113.039 75.0019 112.853C74.5998 112.674 74.1526 112.336 73.6604 111.838ZM81.444 108.232L82.2246 109.021C82.5974 109.398 82.9142 109.654 83.1751 109.79C83.436 109.925 83.6905 109.941 83.9385 109.836C84.1936 109.739 84.4882 109.525 84.8224 109.194C85.1565 108.863 85.3737 108.571 85.4741 108.317C85.5815 108.07 85.5688 107.816 85.4358 107.553C85.3029 107.291 85.0501 106.971 84.6773 106.595L83.8967 105.805C83.531 105.436 83.2142 105.179 82.9462 105.037C82.6853 104.901 82.4273 104.882 82.1723 104.979C81.9242 105.084 81.6331 105.302 81.299 105.632C80.9648 105.963 80.7441 106.252 80.6367 106.498C80.5363 106.752 80.5526 107.011 80.6855 107.273C80.8255 107.542 81.0783 107.862 81.444 108.232ZM79.2163 116.132C79.7086 116.63 80.1173 116.894 80.4424 116.924C80.7745 116.961 81.1361 116.786 81.5271 116.399L82.2096 115.724C82.6077 115.33 82.7864 114.971 82.7458 114.645C82.7192 114.32 82.4598 113.908 81.9675 113.411C81.4753 112.913 81.063 112.646 80.7309 112.608C80.4129 112.571 80.0548 112.75 79.6567 113.144L78.9742 113.819C78.5832 114.206 78.401 114.562 78.4275 114.887C78.4611 115.22 78.724 115.635 79.2163 116.132ZM74.3215 111.184C74.8138 111.682 75.2225 111.946 75.5476 111.976C75.8727 112.006 76.2308 111.827 76.6218 111.441L77.3043 110.766C77.7024 110.372 77.8846 110.016 77.851 109.697C77.8245 109.372 77.5651 108.96 77.0728 108.463C76.5805 107.965 76.1718 107.701 75.8467 107.671C75.5357 107.641 75.1812 107.823 74.783 108.217L74.1006 108.892C73.7096 109.279 73.5238 109.631 73.5433 109.95C73.5698 110.275 73.8292 110.687 74.3215 111.184ZM89.7424 129.076C89.651 128.984 89.6056 128.874 89.6063 128.747C89.6069 128.634 89.6534 128.531 89.7459 128.44L91.7613 126.446L88.6388 123.29C88.5544 123.204 88.5125 123.105 88.5131 122.992C88.5208 122.872 88.5674 122.77 88.6527 122.685C88.7309 122.608 88.8265 122.57 88.9397 122.57C89.0599 122.564 89.1622 122.603 89.2466 122.688L90.0695 123.52C90.2606 123.472 90.4766 123.413 90.7174 123.343C90.9724 123.274 91.2203 123.198 91.4611 123.114C91.7091 123.038 91.9145 122.968 92.0775 122.905C92.1979 122.856 92.3146 122.861 92.4274 122.918C92.5474 122.968 92.6318 123.053 92.6806 123.174C92.7365 123.301 92.7358 123.422 92.6787 123.534C92.6286 123.64 92.5362 123.717 92.4016 123.766C92.1962 123.829 91.9377 123.902 91.6261 123.985C91.3146 124.068 91.0242 124.144 90.7552 124.213L92.3692 125.845L93.9687 124.263L92.9138 123.196C92.3371 122.613 92.0324 122.085 91.9996 121.611C91.9739 121.144 92.2418 120.633 92.8034 120.077L93.9444 118.949C94.4847 118.414 94.9882 118.155 95.4548 118.172C95.9214 118.188 96.429 118.467 96.9777 119.007C97.1761 118.924 97.4135 118.822 97.69 118.704C97.9805 118.585 98.2038 118.491 98.3597 118.421C98.4873 118.365 98.6111 118.355 98.7311 118.391C98.8511 118.427 98.9426 118.505 99.0056 118.626C99.0827 118.746 99.0998 118.863 99.0568 118.976C99.0207 119.096 98.9425 119.181 98.822 119.229C98.6732 119.292 98.4854 119.366 98.2587 119.449C98.0461 119.533 97.8406 119.61 97.6423 119.679L98.6444 120.692C99.2211 121.275 99.5188 121.804 99.5374 122.277C99.5702 122.751 99.3093 123.263 98.7548 123.811L97.6138 124.94C97.0735 125.474 96.5736 125.737 96.114 125.727C95.6615 125.711 95.1574 125.436 94.6017 124.902L93.0021 126.485L94.8271 128.33C94.9185 128.422 94.9604 128.528 94.9527 128.649C94.952 128.762 94.9126 128.857 94.8344 128.934C94.7491 129.019 94.6463 129.064 94.5261 129.07C94.413 129.07 94.3107 129.023 94.2193 128.931L92.3943 127.086L90.3788 129.08C90.2864 129.171 90.1801 129.213 90.0599 129.205C89.9327 129.205 89.8268 129.162 89.7424 129.076ZM82.6663 121.497C82.6174 121.376 82.6216 121.26 82.6788 121.147C82.743 121.041 82.8318 120.967 82.9452 120.926C83.3914 120.779 83.8308 120.598 84.2633 120.381C84.6958 120.164 85.1393 119.894 85.5936 119.572C86.062 119.249 86.5697 118.852 87.1168 118.381C87.6638 117.91 88.2785 117.337 88.961 116.662L92.5761 113.086C92.6685 112.995 92.7713 112.949 92.8844 112.95C93.0046 112.958 93.1104 113.008 93.2018 113.1C93.2862 113.185 93.3281 113.285 93.3275 113.398C93.3339 113.518 93.2909 113.624 93.1985 113.715L90.6178 116.268L91.6833 117.345L94.2639 114.792C94.3563 114.701 94.4591 114.656 94.5722 114.656C94.6995 114.657 94.8054 114.7 94.8898 114.785C94.9741 114.87 95.016 114.977 95.0153 115.104C95.0217 115.224 94.9787 115.33 94.8863 115.422L92.3057 117.974L92.9914 118.668C93.0828 118.76 93.1211 118.863 93.1064 118.976C93.1058 119.089 93.0628 119.188 92.9775 119.272C92.8922 119.356 92.7929 119.398 92.6798 119.398C92.5737 119.404 92.4749 119.361 92.3835 119.269L90.01 116.87L89.5834 117.291C89.427 117.446 89.2706 117.601 89.1142 117.756C88.9649 117.903 88.8157 118.044 88.6664 118.177L89.4576 118.977C89.8726 119.397 90.0755 119.787 90.0665 120.147C90.0716 120.508 89.868 120.892 89.4557 121.3L86.3632 124.359C86.2707 124.451 86.1645 124.493 86.0443 124.485C85.9241 124.477 85.8218 124.431 85.7374 124.345C85.6531 124.26 85.6076 124.157 85.6012 124.037C85.5948 123.917 85.6378 123.811 85.7302 123.72L88.6948 120.787C88.9436 120.541 89.0685 120.319 89.0696 120.121C89.0777 119.93 88.9587 119.71 88.7125 119.461L88.0268 118.768C87.3661 119.351 86.766 119.832 86.2265 120.211C85.6942 120.583 85.1904 120.892 84.7153 121.137C84.2474 121.374 83.7725 121.577 83.2907 121.744C83.1703 121.793 83.0501 121.792 82.9301 121.742C82.8101 121.706 82.7222 121.624 82.6663 121.497ZM94.5655 123.757L95.0296 124.226C95.4094 124.61 95.7406 124.81 96.0234 124.825C96.3132 124.848 96.6358 124.684 96.9913 124.332L97.3432 123.984L95.8558 122.48L94.5655 123.757ZM93.5 122.68L93.9431 123.128L95.2334 121.851L93.7671 120.369L93.4151 120.717C93.0597 121.069 92.8883 121.386 92.9009 121.669C92.9205 121.959 93.1202 122.296 93.5 122.68ZM96.3996 121.942L97.887 123.446L98.1536 123.182C98.5091 122.831 98.6735 122.513 98.6467 122.23C98.6341 121.947 98.4379 121.614 98.0581 121.23L97.594 120.761L96.3996 121.942ZM94.3109 119.831L95.7772 121.313L96.9716 120.132L96.5285 119.684C96.1487 119.3 95.814 119.096 95.5242 119.074C95.2485 119.051 94.933 119.215 94.5775 119.567L94.3109 119.831ZM94.8713 133.877C94.7231 133.827 94.6069 133.738 94.5228 133.61C94.4386 133.482 94.4217 133.337 94.4721 133.175C94.5224 133.027 94.6149 132.921 94.7496 132.858C94.8842 132.81 95.0326 132.817 95.1949 132.882C95.9639 133.204 96.7688 133.428 97.6096 133.553C98.4575 133.67 99.3025 133.686 100.144 133.598C100.993 133.504 101.797 133.307 102.555 133.007C103.321 132.714 104.002 132.314 104.598 131.808L100.642 127.81C100.551 127.717 100.506 127.607 100.506 127.48C100.507 127.353 100.554 127.243 100.646 127.152C100.738 127.061 100.848 127.015 100.976 127.016C101.103 127.017 101.212 127.063 101.304 127.156L105.281 131.176L107.936 128.549C108.043 128.444 108.159 128.391 108.287 128.392C108.421 128.4 108.537 128.453 108.636 128.553C108.734 128.652 108.783 128.766 108.783 128.893C108.789 129.027 108.739 129.147 108.632 129.253L105.977 131.88L109.964 135.91C110.056 136.003 110.101 136.113 110.1 136.24C110.1 136.367 110.053 136.477 109.961 136.568C109.868 136.66 109.759 136.705 109.631 136.704C109.504 136.704 109.395 136.657 109.303 136.565L105.326 132.544C104.835 133.114 104.439 133.773 104.138 134.521C103.851 135.269 103.656 136.067 103.552 136.915C103.456 137.77 103.455 138.63 103.549 139.493C103.658 140.356 103.869 141.188 104.183 141.989C104.238 142.13 104.234 142.261 104.17 142.381C104.106 142.515 104.003 142.603 103.861 142.645C103.705 142.7 103.56 142.682 103.426 142.589C103.292 142.511 103.201 142.397 103.152 142.248C102.839 141.278 102.64 140.287 102.553 139.275C102.467 138.264 102.508 137.267 102.676 136.285C102.858 135.303 103.177 134.375 103.635 133.5C102.294 134.193 100.868 134.564 99.354 134.612C97.8476 134.653 96.3534 134.409 94.8713 133.877ZM110.53 147.082C110.108 146.656 109.823 146.283 109.677 145.964C109.53 145.645 109.51 145.334 109.618 145.03C109.733 144.734 109.975 144.403 110.345 144.037L111.24 143.151C111.61 142.786 111.944 142.547 112.241 142.435C112.546 142.331 112.857 142.354 113.174 142.504C113.492 142.654 113.861 142.943 114.283 143.369L117.111 146.227C117.533 146.654 117.817 147.026 117.964 147.345C118.117 147.672 118.137 147.983 118.022 148.279C117.915 148.583 117.676 148.917 117.306 149.283L116.41 150.169C116.041 150.535 115.704 150.77 115.399 150.874C115.101 150.986 114.79 150.963 114.466 150.806C114.149 150.655 113.779 150.367 113.357 149.94L110.53 147.082ZM112.702 139.595C112.611 139.503 112.562 139.389 112.556 139.255C112.556 139.128 112.606 139.015 112.706 138.916L113.111 138.516C113.573 138.058 114.03 137.852 114.483 137.897C114.942 137.935 115.492 138.277 116.132 138.924L116.733 139.532C116.733 139.476 116.737 139.437 116.744 139.416C116.795 139.225 116.849 138.988 116.907 138.706C116.972 138.43 117.027 138.18 117.07 137.954C117.092 137.834 117.156 137.749 117.263 137.7C117.376 137.658 117.489 137.652 117.602 137.681C117.729 137.71 117.824 137.777 117.888 137.884C117.951 137.99 117.968 138.107 117.939 138.234C117.902 138.467 117.851 138.722 117.786 138.997C117.735 139.272 117.681 139.502 117.623 139.686C117.602 139.777 117.548 139.851 117.463 139.907C117.392 139.964 117.3 139.991 117.187 139.991L118.516 141.334L119.785 140.079C119.884 139.981 119.998 139.939 120.125 139.954C120.259 139.961 120.372 140.012 120.464 140.104C120.555 140.196 120.6 140.306 120.6 140.433C120.613 140.561 120.57 140.674 120.471 140.772L119.202 142.028L120.415 143.254C120.451 143.091 120.565 142.986 120.756 142.938C121.011 142.882 121.269 142.824 121.531 142.761C121.8 142.706 122.027 142.651 122.211 142.595C122.338 142.554 122.459 142.561 122.571 142.619C122.691 142.683 122.772 142.779 122.814 142.906C122.883 143.189 122.786 143.376 122.524 143.467C122.298 143.536 122.039 143.602 121.749 143.664C121.473 143.726 121.214 143.778 120.974 143.819L121.565 144.416C122.205 145.063 122.541 145.617 122.574 146.076C122.614 146.529 122.403 146.984 121.941 147.441L121.546 147.831C121.447 147.93 121.33 147.975 121.195 147.967C121.068 147.967 120.955 147.917 120.857 147.817C120.765 147.725 120.716 147.611 120.71 147.477C120.711 147.35 120.761 147.237 120.86 147.138L121.244 146.759C121.529 146.477 121.661 146.206 121.641 145.944C121.621 145.682 121.415 145.352 121.021 144.954L115.588 139.462C115.194 139.064 114.866 138.854 114.605 138.831C114.343 138.809 114.07 138.938 113.786 139.219L113.392 139.61C113.292 139.708 113.175 139.753 113.041 139.746C112.914 139.745 112.801 139.695 112.702 139.595ZM114.668 142.841C114.288 142.457 114.092 142.124 114.08 141.841C114.067 141.558 114.206 141.272 114.498 140.984C114.789 140.695 115.076 140.559 115.359 140.575C115.642 140.591 115.973 140.79 116.353 141.174L119.307 144.16C119.686 144.544 119.883 144.877 119.895 145.16C119.908 145.443 119.768 145.729 119.477 146.017C119.186 146.305 118.898 146.442 118.616 146.426C118.333 146.41 118.002 146.211 117.622 145.827L114.668 142.841ZM111.169 144.551L115.895 149.328L116.503 148.727L111.777 143.95L111.169 144.551ZM111.126 146.661L113.784 149.349C114.164 149.733 114.463 149.957 114.682 150.022C114.908 150.08 115.16 149.993 115.437 149.761L110.732 145.005C110.497 145.279 110.407 145.53 110.463 145.756C110.532 145.983 110.753 146.285 111.126 146.661ZM112.235 143.517L116.94 148.273C117.154 148.006 117.23 147.762 117.167 147.543C117.105 147.323 116.887 147.025 116.514 146.648L113.856 143.961C113.49 143.591 113.194 143.37 112.969 143.298C112.75 143.234 112.505 143.307 112.235 143.517ZM115.285 142.441L118.028 145.214C118.211 145.399 118.355 145.502 118.461 145.524C118.567 145.546 118.688 145.49 118.823 145.356C118.965 145.215 119.022 145.095 118.995 144.996C118.974 144.89 118.872 144.745 118.689 144.56L115.947 141.787C115.764 141.602 115.619 141.499 115.513 141.477C115.415 141.448 115.294 141.504 115.152 141.645C115.017 141.779 114.96 141.899 114.98 142.005C115.001 142.111 115.103 142.256 115.285 142.441ZM114.196 153.732C113.978 153.384 113.751 152.99 113.512 152.55C113.274 152.111 113.054 151.675 112.851 151.242C112.656 150.817 112.499 150.438 112.38 150.105C112.331 149.984 112.332 149.871 112.382 149.765C112.446 149.66 112.528 149.586 112.627 149.544C112.741 149.502 112.85 149.513 112.956 149.578C113.069 149.649 113.146 149.748 113.188 149.876C113.32 150.195 113.481 150.556 113.67 150.96C113.865 151.372 114.072 151.779 114.289 152.183C114.513 152.595 114.734 152.967 114.951 153.301C115.035 153.428 115.07 153.549 115.055 153.662C115.04 153.789 114.973 153.884 114.852 153.947C114.738 154.017 114.618 154.031 114.491 153.988C114.371 153.952 114.273 153.866 114.196 153.732ZM106.748 146.203C106.459 146.025 106.389 145.805 106.539 145.544C106.611 145.431 106.706 145.365 106.827 145.344C106.947 145.338 107.067 145.374 107.187 145.452C107.525 145.666 107.899 145.887 108.308 146.116C108.723 146.351 109.129 146.569 109.524 146.769C109.933 146.97 110.286 147.127 110.582 147.242C110.709 147.285 110.804 147.36 110.867 147.466C110.937 147.58 110.951 147.693 110.908 147.806C110.872 147.912 110.794 147.989 110.673 148.038C110.56 148.094 110.443 148.097 110.323 148.047C109.78 147.824 109.18 147.545 108.524 147.21C107.876 146.881 107.283 146.545 106.748 146.203ZM118.889 156.727C118.671 156.506 118.679 156.28 118.914 156.048L125.674 149.36C125.909 149.128 126.135 149.122 126.353 149.342L126.406 149.396C126.582 149.573 126.644 149.793 126.594 150.054L124.545 160.099L130.485 154.223C130.719 153.991 130.949 153.988 131.174 154.216C131.385 154.429 131.374 154.652 131.139 154.884L124.378 161.572C124.143 161.804 123.924 161.817 123.72 161.611L123.657 161.547C123.474 161.362 123.415 161.146 123.48 160.899L125.561 150.759L119.557 156.699C119.323 156.931 119.1 156.94 118.889 156.727ZM129.695 167.928C129.027 167.253 128.6 166.501 128.413 165.673C128.227 164.844 128.281 163.996 128.576 163.128C128.877 162.267 129.419 161.449 130.201 160.676C130.983 159.902 131.803 159.373 132.66 159.088C133.531 158.802 134.38 158.757 135.206 158.953C136.04 159.141 136.79 159.573 137.459 160.248C138.12 160.917 138.54 161.668 138.719 162.504C138.906 163.332 138.848 164.177 138.546 165.038C138.259 165.899 137.724 166.716 136.942 167.49C136.16 168.264 135.333 168.793 134.462 169.078C133.598 169.371 132.753 169.419 131.926 169.224C131.1 169.028 130.356 168.596 129.695 167.928ZM130.335 167.295C130.863 167.828 131.455 168.171 132.111 168.323C132.782 168.475 133.472 168.426 134.181 168.175C134.903 167.924 135.599 167.469 136.267 166.808C136.935 166.146 137.395 165.46 137.646 164.747C137.905 164.041 137.958 163.355 137.806 162.69C137.668 162.024 137.335 161.425 136.808 160.892C136.281 160.359 135.681 160.016 135.01 159.864C134.347 159.705 133.657 159.747 132.941 159.991C132.226 160.234 131.534 160.687 130.866 161.348C130.198 162.009 129.734 162.699 129.476 163.419C129.224 164.132 129.171 164.825 129.316 165.497C129.468 166.163 129.808 166.762 130.335 167.295ZM135.913 174.171C135.745 174.001 135.661 173.802 135.662 173.576C135.67 173.343 135.753 173.149 135.909 172.994C136.073 172.832 136.268 172.752 136.494 172.753C136.727 172.747 136.928 172.83 137.097 173C137.259 173.164 137.336 173.362 137.327 173.595C137.326 173.822 137.244 174.016 137.08 174.178C136.924 174.332 136.729 174.412 136.495 174.418C136.269 174.417 136.075 174.335 135.913 174.171ZM140.621 178.696C140.417 178.49 140.433 178.27 140.667 178.038L146.98 171.793L145.01 171.316C144.678 171.25 144.545 171.073 144.61 170.783C144.675 170.508 144.873 170.403 145.205 170.468L147.631 171.044C147.836 171.094 148.019 171.201 148.181 171.365C148.336 171.521 148.296 171.716 148.061 171.948L141.279 178.657C141.044 178.889 140.825 178.902 140.621 178.696Z" fill="black"/>
</g>
<defs>
<clipPath id="clip0_76_63289">
<rect width="195" height="195" fill="white" transform="translate(195 195) rotate(-180)"/>
</clipPath>
</defs>
</svg>
