<svg width="195" height="195" viewBox="0 0 195 195" fill="none" xmlns="http://www.w3.org/2000/svg">
<g clip-path="url(#clip0_76_63311)">
<path d="M6.35742 0.286987L194.706 183.879V126.396L65.3293 0.286987H6.35742Z" fill="white"/>
<mask id="mask0_76_63311" style="mask-type:luminance" maskUnits="userSpaceOnUse" x="6" y="0" width="189" height="185">
<path d="M195 0H6.06219V184.167H195V0Z" fill="white"/>
</mask>
<g mask="url(#mask0_76_63311)">
<path d="M194.41 184.167L6.06219 0.574582L6.65266 -0.000976562L195.001 183.591L194.41 184.167Z" fill="black"/>
<path d="M194.41 126.684L65.0341 0.574704L65.6246 -0.000854492L195.001 126.108L194.41 126.684Z" fill="black"/>
</g>
<path d="M56.3488 28.7765C56.2562 28.6853 56.2067 28.5733 56.2002 28.4406C56.2009 28.315 56.2517 28.2036 56.3524 28.1064L58.2313 26.2947L56.3294 24.4208C56.2439 24.3365 56.1979 24.2351 56.1914 24.1164C56.1921 23.9907 56.2392 23.8828 56.3328 23.7926C56.4264 23.7023 56.534 23.661 56.6557 23.6687C56.7846 23.6694 56.8918 23.7118 56.9773 23.796L58.8791 25.67L62.3992 22.2758C61.6105 22.453 60.7434 22.5739 59.7978 22.6386C58.8522 22.7033 57.889 22.7156 56.9081 22.6754C55.9345 22.6282 54.9934 22.5289 54.0847 22.3774C53.9417 22.3487 53.8167 22.2817 53.7099 22.1764C53.6102 22.0642 53.5715 21.9349 53.5938 21.7884C53.6232 21.649 53.6954 21.5446 53.8103 21.4755C53.9325 21.3993 54.0686 21.3791 54.2188 21.4148C55.163 21.6154 56.1505 21.7394 57.1815 21.7869C58.2124 21.8343 59.2115 21.8153 60.1787 21.7298C61.153 21.6513 62.013 21.5233 62.7587 21.3458L59.0298 17.6716C58.9372 17.5803 58.8876 17.4753 58.8811 17.3566C58.8889 17.238 58.9396 17.1336 59.0332 17.0434C59.1196 16.9601 59.2236 16.9153 59.3454 16.9089C59.4743 16.9096 59.5851 16.9556 59.6777 17.0468L63.7057 21.0159L65.617 19.173C65.7177 19.0758 65.8326 19.0276 65.9615 19.0283C66.0975 19.036 66.2118 19.0855 66.3044 19.1767C66.397 19.268 66.4429 19.3764 66.4423 19.5021C66.4416 19.6277 66.3909 19.7391 66.2901 19.8363L64.3789 21.6792L68.4176 25.6588C68.5031 25.743 68.5455 25.8479 68.5448 25.9736C68.5442 26.0992 68.5006 26.2037 68.4142 26.287C68.3207 26.3772 68.2094 26.422 68.0805 26.4213C67.9588 26.4137 67.8553 26.3677 67.7698 26.2835L64.0409 22.6092C63.8359 23.4318 63.695 24.3245 63.6182 25.2873C63.5557 26.2502 63.554 27.224 63.6131 28.2085C63.6866 29.1931 63.8105 30.1221 63.9848 30.9956C64.0127 31.1214 63.9835 31.2329 63.897 31.3302C63.8177 31.4344 63.7099 31.4967 63.5738 31.5169C63.4305 31.5301 63.2982 31.4979 63.1769 31.4205C63.0627 31.3501 62.9917 31.238 62.9638 31.0843C62.8182 30.211 62.7157 29.303 62.6563 28.3604C62.6113 27.4178 62.6235 26.4825 62.693 25.5545C62.7624 24.6266 62.8997 23.7443 63.1047 22.9078L59.5523 26.3333L61.5182 28.2705C61.6108 28.3617 61.6532 28.4666 61.6454 28.5853C61.6519 28.704 61.6084 28.8084 61.5148 28.8987C61.4212 28.9889 61.31 29.0337 61.1811 29.033C61.0665 29.0324 60.9629 28.9864 60.8703 28.8952L58.9044 26.958L57.0256 28.7697C56.9248 28.8669 56.8099 28.9151 56.6811 28.9144C56.5522 28.9137 56.4414 28.8677 56.3488 28.7765ZM72.3177 41.3958C72.2251 41.3045 72.1755 41.1995 72.169 41.0808C72.1768 40.9622 72.2239 40.8543 72.3104 40.757C72.3824 40.6737 72.4793 40.6288 72.6011 40.6225C72.7229 40.6162 72.8337 40.6552 72.9335 40.7395C73.3183 41.0905 73.6037 41.2806 73.7897 41.3095C73.9901 41.3385 74.2162 41.2315 74.4682 40.9886L79.4783 36.1575C79.8383 35.8104 80.0118 35.5042 79.9989 35.2389C79.9932 34.9666 79.8016 34.6445 79.4241 34.2725L77.0628 31.9458C76.6924 31.5808 76.364 31.3906 76.0777 31.3751C75.8056 31.3597 75.4896 31.5255 75.1297 31.8725L73.3049 33.6321C72.6282 34.2846 72.0203 34.8083 71.4811 35.2033C70.9419 35.5983 70.421 35.9061 69.9186 36.1267C69.4304 36.3474 68.9067 36.5261 68.3474 36.6627C68.2327 36.69 68.1182 36.6754 68.0039 36.6189C67.8968 36.5695 67.822 36.4888 67.7796 36.3769C67.7373 36.265 67.745 36.1603 67.8028 36.0629C67.8678 35.9586 67.9577 35.8927 68.0724 35.8654C68.5744 35.7425 69.0551 35.5706 69.5146 35.3497C69.9884 35.1289 70.477 34.8314 70.9803 34.4572C71.4979 34.0831 72.0626 33.601 72.6745 33.011L74.5749 31.1785C75.1076 30.6648 75.5995 30.4197 76.0505 30.4431C76.5158 30.4665 77.0227 30.7485 77.5712 31.2889L80.0927 33.7736C80.6412 34.314 80.9214 34.8076 80.9333 35.2544C80.9595 35.7013 80.7063 36.1815 80.1736 36.6952L75.0231 41.6617C74.6056 42.0643 74.1892 42.2575 73.7739 42.2413C73.3658 42.2321 72.8804 41.9502 72.3177 41.3958ZM69.7407 41.2143C69.0569 40.5405 68.4945 39.9162 68.0536 39.3415C67.6127 38.7807 67.2862 38.2344 67.0743 37.7028C66.8551 37.1781 66.7292 36.633 66.6964 36.0674C66.4818 36.0244 66.2207 35.9776 65.9131 35.9271C65.6125 35.8835 65.3264 35.8331 65.0546 35.7758C64.7827 35.7325 64.5752 35.6965 64.4321 35.6678C64.2962 35.6461 64.1856 35.5722 64.1003 35.4461C64.015 35.3339 63.9871 35.2082 64.0165 35.0687C64.0458 34.9432 64.1215 34.8424 64.2437 34.7663C64.3729 34.6972 64.5019 34.6839 64.6306 34.7265C64.7664 34.7621 64.9524 34.812 65.1883 34.8761C65.4386 34.9403 65.7032 35.0045 65.9821 35.0689C66.2682 35.1402 66.5257 35.2044 66.7545 35.2615L69.4431 32.6689C69.6447 32.4746 69.7459 32.3006 69.7467 32.1471C69.7547 32.0005 69.6554 31.8255 69.4488 31.6219L68.6902 30.8745C68.5976 30.7832 68.5516 30.6818 68.5522 30.5701C68.56 30.4515 68.6071 30.3505 68.6935 30.2672C68.7871 30.177 68.8911 30.1322 69.0057 30.1328C69.1275 30.1265 69.2347 30.1689 69.3273 30.2602L70.2461 31.1656C70.6023 31.5165 70.7759 31.849 70.7671 32.1631C70.7726 32.4772 70.5953 32.8078 70.2354 33.1549L67.4712 35.8203C67.5113 36.351 67.6231 36.8542 67.8067 37.3298C67.9975 37.7985 68.2992 38.2923 68.7117 38.811C69.1243 39.3298 69.676 39.9296 70.3669 40.6104C71.0294 41.2631 71.6385 41.8493 72.1942 42.3688C72.7643 42.8884 73.2632 43.3309 73.6909 43.6962C73.8049 43.7945 73.8652 43.91 73.8716 44.0427C73.8852 44.1823 73.8416 44.3008 73.7408 44.3979C73.5176 44.6131 73.2742 44.6048 73.0105 44.3731C72.7682 44.1484 72.469 43.8606 72.1129 43.5096C71.7566 43.1727 71.3755 42.8041 70.9695 42.4041C70.5563 42.011 70.1467 41.6144 69.7407 41.2143ZM72.1055 38.9132C71.5713 38.3867 71.2908 37.949 71.264 37.5998C71.2445 37.2437 71.4614 36.847 71.915 36.4097C72.2173 36.1182 72.4904 35.9312 72.7343 35.8488C72.9926 35.7664 73.2574 35.7888 73.5288 35.9159C73.8003 36.043 74.1141 36.282 74.4702 36.6329C74.8335 36.9909 75.0789 37.3028 75.2063 37.5688C75.3338 37.8347 75.3503 38.0896 75.2559 38.3334C75.1687 38.5702 74.9739 38.8344 74.6716 39.126C74.3692 39.4175 74.0925 39.608 73.8414 39.6973C73.5903 39.7867 73.329 39.7679 73.0576 39.6407C72.7861 39.5136 72.4688 39.2711 72.1055 38.9132ZM73.5045 34.4604C73.4261 34.3832 73.3908 34.2922 73.3986 34.1876C73.4063 34.0829 73.4461 33.9959 73.5181 33.9265C73.5973 33.8501 73.687 33.8122 73.7873 33.8128C73.8947 33.8064 73.9876 33.8418 74.066 33.919L75.3588 35.1929L76.1794 34.4015L75.1858 33.4224C75.1074 33.3452 75.0721 33.2543 75.0798 33.1496C75.0876 33.045 75.1274 32.9579 75.1994 32.8885C75.2786 32.8122 75.3683 32.7743 75.4686 32.7748C75.576 32.7684 75.6689 32.8038 75.7473 32.881L76.7409 33.8601L77.432 33.1938C77.5328 33.0966 77.6368 33.0518 77.7442 33.0593C77.8587 33.0739 77.9587 33.1233 78.0442 33.2076C78.1297 33.2918 78.1757 33.3863 78.1823 33.491C78.196 33.6028 78.1525 33.7072 78.0517 33.8044L77.3606 34.4708L78.4398 35.5341C78.5181 35.6113 78.5534 35.7022 78.5457 35.8069C78.5452 35.9046 78.5053 35.9916 78.4262 36.068C78.3542 36.1374 78.2644 36.1753 78.157 36.1817C78.0495 36.1881 77.9566 36.1527 77.8783 36.0755L76.7992 35.0122L75.9785 35.8035L77.3034 37.109C77.3818 37.1862 77.4171 37.2771 77.4093 37.3818C77.4088 37.4795 77.369 37.5665 77.2898 37.6429C77.2178 37.7123 77.1281 37.7502 77.0206 37.7566C76.9132 37.763 76.8203 37.7276 76.7419 37.6504L73.5045 34.4604ZM72.667 38.3717C73.0018 38.7016 73.2587 38.8705 73.4376 38.8785C73.6166 38.8864 73.8285 38.7724 74.0732 38.5364C74.3252 38.2934 74.4445 38.0882 74.431 37.9206C74.4176 37.753 74.2435 37.5042 73.9087 37.1744C73.5811 36.8515 73.3278 36.6791 73.1489 36.6572C72.9771 36.6423 72.7652 36.7564 72.5133 36.9993C72.2685 37.2353 72.1493 37.4406 72.1555 37.6151C72.1688 37.7967 72.3393 38.0489 72.667 38.3717ZM73.0952 30.6889C72.9663 30.6882 72.8556 30.6422 72.763 30.551C72.6776 30.4528 72.6424 30.3409 72.6574 30.2153C72.6873 29.9782 72.7068 29.6886 72.7158 29.3466C72.7391 29.0047 72.7481 28.6627 72.7428 28.3207C72.7446 27.9856 72.7355 27.6959 72.7153 27.4515C72.7088 27.3328 72.7451 27.2353 72.8243 27.1589C72.9178 27.0826 73.0218 27.0448 73.1364 27.0454C73.251 27.0461 73.351 27.0815 73.4366 27.1518C73.5293 27.229 73.5824 27.3305 73.5961 27.4563C73.6233 27.7217 73.6359 28.0289 73.6341 28.3779C73.6465 28.7269 73.6518 29.069 73.65 29.404C73.6553 29.7461 73.6466 30.0322 73.6239 30.2624C73.616 30.395 73.5617 30.5029 73.461 30.5861C73.3603 30.6694 73.2384 30.7036 73.0952 30.6889ZM80.2264 50.7675C79.6708 50.2201 79.2474 49.7327 78.9561 49.3053C78.672 48.871 78.5239 48.4584 78.5117 48.0674C78.5066 47.6695 78.6414 47.2549 78.9158 46.8236C79.1975 46.3854 79.6262 45.8886 80.2021 45.3333L83.0527 42.5846C83.6286 42.0293 84.1393 41.6202 84.5847 41.3574C85.0373 41.0876 85.464 40.9608 85.865 40.9769C86.2731 40.9861 86.6948 41.1349 87.13 41.4235C87.5725 41.7051 88.0715 42.1196 88.6271 42.6671L89.4712 43.4988C90.0268 44.0463 90.4467 44.5371 90.7307 44.9714C91.022 45.3988 91.1702 45.8114 91.1752 46.2093C91.1874 46.6003 91.0491 47.0114 90.7603 47.4426C90.4859 47.8739 90.0607 48.3672 89.4849 48.9225L86.6342 51.6712C86.0583 52.2265 85.5441 52.639 85.0915 52.9088C84.6532 53.1787 84.23 53.309 83.8219 53.2998C83.421 53.2837 82.9993 53.1348 82.5568 52.8532C82.1215 52.5647 81.6261 52.1467 81.0705 51.5992L80.2264 50.7675ZM80.8851 50.1324L81.7292 50.9641C82.1708 51.3993 82.5522 51.7259 82.8732 51.944C83.2014 52.1692 83.5087 52.2825 83.7952 52.2841C84.0959 52.2857 84.4152 52.1792 84.7529 51.9647C85.0906 51.7501 85.4862 51.4242 85.9397 50.9869L87.1167 49.852L82.0629 44.8722L80.8859 46.0071C80.4324 46.4444 80.0938 46.8265 79.87 47.1534C79.6463 47.4802 79.5336 47.7902 79.532 48.0834C79.5447 48.3766 79.6648 48.6844 79.8922 49.0067C80.1196 49.329 80.4506 49.7043 80.8851 50.1324ZM82.7108 44.2475L87.7646 49.2273L88.7904 48.2381C89.2439 47.8008 89.5825 47.4188 89.8063 47.0919C90.03 46.765 90.1391 46.4585 90.1335 46.1723C90.1422 45.8862 90.0328 45.5819 89.8054 45.2596C89.5851 44.9443 89.2542 44.5691 88.8125 44.1339L87.9685 43.3022C87.534 42.8741 87.1526 42.5474 86.8244 42.3223C86.4962 42.0971 86.1782 41.9802 85.8703 41.9716C85.5768 41.963 85.2611 42.066 84.9234 42.2806C84.5857 42.4952 84.1901 42.8211 83.7365 43.2584L82.7108 44.2475ZM91.6079 63.519C91.5153 63.4278 91.4658 63.3158 91.4594 63.1832C91.4601 63.0575 91.5108 62.9461 91.6116 62.849L93.4904 61.0373L91.5885 59.1633C91.503 59.0791 91.457 58.9776 91.4505 58.8589C91.4512 58.7333 91.4983 58.6253 91.5919 58.5351C91.6855 58.4449 91.7931 58.4036 91.9148 58.4112C92.0437 58.4119 92.1509 58.4544 92.2364 58.5386L94.1382 60.4126L97.6583 57.0183C96.8697 57.1955 96.0025 57.3165 95.0569 57.3812C94.1113 57.4459 93.1481 57.4581 92.1673 57.4179C91.1936 57.3707 90.2525 57.2714 89.3439 57.1199C89.2008 57.0912 89.0758 57.0242 88.969 56.919C88.8693 56.8067 88.8307 56.6774 88.8529 56.5309C88.8823 56.3915 88.9545 56.2872 89.0695 56.218C89.1916 56.1419 89.3278 56.1217 89.478 56.1574C90.4221 56.3579 91.4097 56.4819 92.4406 56.5294C93.4715 56.5769 94.4706 56.5578 95.4378 56.4723C96.4121 56.3938 97.2721 56.2658 98.0178 56.0884L94.2889 52.4141C94.1963 52.3229 94.1467 52.2179 94.1402 52.0992C94.148 51.9806 94.1987 51.8761 94.2923 51.7859C94.3787 51.7026 94.4828 51.6578 94.6045 51.6515C94.7334 51.6522 94.8442 51.6981 94.9368 51.7894L98.9649 55.7585L100.876 53.9156C100.977 53.8184 101.092 53.7701 101.221 53.7708C101.357 53.7786 101.471 53.828 101.564 53.9193C101.656 54.0105 101.702 54.119 101.701 54.2446C101.701 54.3702 101.65 54.4816 101.549 54.5788L99.638 56.4217L103.677 60.4013C103.762 60.4856 103.805 60.5905 103.804 60.7161C103.803 60.8418 103.76 60.9462 103.673 61.0295C103.58 61.1198 103.469 61.1645 103.34 61.1638C103.218 61.1562 103.114 61.1103 103.029 61.026L99.3 57.3518C99.095 58.1743 98.9541 59.067 98.8773 60.0299C98.8148 60.9928 98.8131 61.9665 98.8723 62.951C98.9457 63.9356 99.0696 64.8647 99.2439 65.7381C99.2719 65.8639 99.2426 65.9755 99.1562 66.0727C99.0768 66.177 98.9691 66.2392 98.8329 66.2594C98.6896 66.2726 98.5573 66.2405 98.436 66.1631C98.3218 66.0926 98.2508 65.9806 98.223 65.8269C98.0773 64.9535 97.9748 64.0456 97.9155 63.1029C97.8704 62.1604 97.8826 61.2251 97.9521 60.2971C98.0216 59.3691 98.1588 58.4868 98.3639 57.6503L94.8114 61.0758L96.7773 63.013C96.8699 63.1042 96.9123 63.2092 96.9045 63.3278C96.9111 63.4465 96.8675 63.551 96.7739 63.6412C96.6804 63.7314 96.5691 63.7762 96.4402 63.7755C96.3257 63.7749 96.2221 63.729 96.1295 63.6377L94.1635 61.7006L92.2847 63.5122C92.1839 63.6094 92.0691 63.6576 91.9402 63.6569C91.8113 63.6563 91.7005 63.6103 91.6079 63.519ZM108.538 69.2959C107.996 68.7625 107.626 68.2859 107.428 67.866C107.237 67.4531 107.218 67.0482 107.37 66.6511C107.523 66.2541 107.844 65.8195 108.333 65.3475C108.823 64.8755 109.272 64.5673 109.681 64.423C110.09 64.2786 110.505 64.3018 110.927 64.4925C111.355 64.6903 111.84 65.0559 112.382 65.5893L113.172 66.3684C113.714 66.9018 114.08 67.3749 114.271 67.7878C114.469 68.2077 114.492 68.6161 114.339 69.0132C114.187 69.4102 113.866 69.8448 113.376 70.3168C112.887 70.7888 112.438 71.097 112.029 71.2413C111.62 71.3857 111.201 71.359 110.772 71.1613C110.351 70.9705 109.87 70.6084 109.328 70.075L108.538 69.2959ZM106.293 77.0842C105.546 76.3472 105.152 75.7064 105.112 75.1617C105.079 74.6241 105.372 74.0568 105.991 73.4598L106.703 72.7726C107.323 72.1757 107.908 71.8961 108.459 71.934C109.017 71.9789 109.67 72.3698 110.418 73.1068C111.159 73.8368 111.549 74.4741 111.589 75.0187C111.629 75.5634 111.34 76.1342 110.721 76.7312L110.008 77.4183C109.389 78.0153 108.8 78.2913 108.242 78.2464C107.684 78.2015 107.034 77.8141 106.293 77.0842ZM101.336 72.1991C100.595 71.4692 100.208 70.8354 100.175 70.2977C100.142 69.7601 100.435 69.1928 101.054 68.5958L101.767 67.9087C102.386 67.3117 102.971 67.0322 103.523 67.0701C104.074 67.1079 104.72 67.4919 105.461 68.2218C105.959 68.7131 106.297 69.1582 106.474 69.557C106.658 69.9489 106.684 70.326 106.554 70.6882C106.437 71.0506 106.17 71.433 105.753 71.8356L105.04 72.5228C104.63 72.9185 104.234 73.1746 103.854 73.2912C103.481 73.4148 103.095 73.3848 102.695 73.2012C102.287 73.0245 101.834 72.6904 101.336 72.1991ZM109.218 68.64L110.008 69.4191C110.386 69.791 110.707 70.0441 110.971 70.1781C111.235 70.3122 111.493 70.3275 111.744 70.2242C112.003 70.1279 112.301 69.9166 112.639 69.5903C112.978 69.2641 113.198 68.9756 113.299 68.7249C113.408 68.4812 113.395 68.2298 113.26 67.9708C113.126 67.7118 112.869 67.3963 112.492 67.0243L111.701 66.2452C111.331 65.8803 111.01 65.6273 110.739 65.4862C110.474 65.3521 110.213 65.3333 109.955 65.4296C109.704 65.5329 109.409 65.7477 109.071 66.074C108.732 66.4002 108.509 66.6852 108.4 66.9289C108.298 67.1796 108.315 67.4345 108.45 67.6935C108.591 67.9595 108.847 68.275 109.218 68.64ZM106.963 76.4386C107.462 76.9299 107.875 77.1904 108.205 77.2201C108.541 77.2568 108.907 77.0843 109.303 76.7026L109.994 76.0362C110.397 75.6475 110.578 75.2925 110.537 74.9712C110.51 74.6499 110.247 74.2437 109.749 73.7523C109.25 73.261 108.833 72.997 108.496 72.9603C108.174 72.9237 107.812 73.0997 107.408 73.4884L106.717 74.1548C106.322 74.5365 106.137 74.888 106.164 75.2093C106.198 75.5375 106.464 75.9473 106.963 76.4386ZM102.005 71.5536C102.504 72.0449 102.918 72.3054 103.247 72.3351C103.576 72.3648 103.939 72.1888 104.335 71.807L105.026 71.1407C105.429 70.7519 105.613 70.4004 105.579 70.0861C105.552 69.7649 105.29 69.3586 104.791 68.8673C104.292 68.376 103.879 68.1155 103.549 68.0858C103.234 68.0562 102.875 68.2357 102.472 68.6245L101.781 69.2908C101.385 69.6726 101.197 70.0206 101.217 70.3348C101.244 70.656 101.507 71.0623 102.005 71.5536ZM117.625 89.2176C117.532 89.1264 117.486 89.018 117.487 88.8923C117.487 88.7806 117.534 88.6797 117.628 88.5894L119.669 86.6216L116.506 83.5053C116.421 83.4211 116.378 83.3231 116.379 83.2114C116.387 83.0928 116.434 82.9919 116.52 82.9086C116.599 82.8322 116.696 82.7943 116.811 82.795C116.932 82.7886 117.036 82.8276 117.122 82.9118L117.955 83.733C118.149 83.6852 118.367 83.627 118.611 83.5586C118.869 83.4902 119.12 83.4147 119.364 83.3323C119.615 83.2569 119.823 83.1882 119.988 83.1263C120.11 83.0781 120.229 83.0822 120.343 83.1386C120.464 83.1882 120.55 83.2724 120.599 83.3913C120.656 83.5173 120.655 83.6359 120.597 83.7473C120.547 83.8517 120.453 83.928 120.317 83.9761C120.109 84.0378 119.847 84.1097 119.531 84.1918C119.216 84.2738 118.922 84.349 118.649 84.4173L120.284 86.0281L121.904 84.4663L120.835 83.4135C120.251 82.838 119.943 82.3163 119.909 81.8485C119.883 81.3876 120.154 80.883 120.723 80.3347L121.879 79.2206C122.426 78.6931 122.935 78.4375 123.408 78.4541C123.881 78.4706 124.395 78.7456 124.95 79.2791C125.151 79.1964 125.392 79.0965 125.672 78.9793C125.966 78.8623 126.192 78.7693 126.35 78.7003C126.479 78.6452 126.604 78.6354 126.726 78.6709C126.847 78.7065 126.94 78.7838 127.004 78.9028C127.082 79.0219 127.099 79.1371 127.056 79.2486C127.019 79.3671 126.94 79.4504 126.818 79.4986C126.667 79.5606 126.477 79.6329 126.248 79.7154C126.032 79.798 125.824 79.8736 125.623 79.9423L126.638 80.9425C127.223 81.518 127.524 82.0397 127.543 82.5075C127.576 82.9753 127.312 83.48 126.751 84.0214L125.595 85.1355C125.048 85.663 124.542 85.922 124.077 85.9125C123.618 85.8961 123.108 85.6246 122.545 85.098L120.925 86.6598L122.774 88.4812C122.866 88.5724 122.909 88.6773 122.901 88.796C122.9 88.9076 122.86 89.0016 122.781 89.078C122.695 89.1613 122.591 89.2061 122.469 89.2124C122.354 89.2118 122.251 89.1659 122.158 89.0746L120.31 87.2533L118.269 89.2211C118.175 89.3114 118.068 89.3527 117.946 89.345C117.817 89.3443 117.71 89.3019 117.625 89.2176ZM110.457 81.7345C110.408 81.6156 110.412 81.5004 110.47 81.3891C110.535 81.2847 110.625 81.2119 110.74 81.1707C111.192 81.0265 111.637 80.8474 112.075 80.6334C112.513 80.4194 112.962 80.1531 113.422 79.8345C113.896 79.516 114.41 79.1244 114.964 78.6597C115.518 78.195 116.14 77.6295 116.831 76.9631L120.492 73.4335C120.586 73.3433 120.69 73.2985 120.804 73.2991C120.926 73.3067 121.033 73.3562 121.126 73.4474C121.211 73.5316 121.254 73.6296 121.253 73.7413C121.259 73.86 121.216 73.9644 121.122 74.0547L118.509 76.5743L119.588 77.6377L122.201 75.118C122.295 75.0278 122.399 74.9829 122.514 74.9836C122.643 74.9843 122.75 75.0267 122.835 75.1109C122.921 75.1952 122.963 75.3001 122.962 75.4257C122.969 75.5444 122.925 75.6489 122.832 75.7391L120.219 78.2588L120.913 78.9431C121.006 79.0344 121.045 79.1358 121.03 79.2474C121.029 79.3591 120.986 79.4566 120.899 79.5399C120.813 79.6232 120.712 79.6645 120.598 79.6639C120.49 79.6703 120.39 79.6279 120.298 79.5366L117.894 77.1678L117.462 77.5843C117.304 77.737 117.145 77.8897 116.987 78.0424C116.836 78.1882 116.684 78.327 116.533 78.4588L117.335 79.2484C117.755 79.6625 117.961 80.0475 117.951 80.4034C117.957 80.7595 117.751 81.1388 117.333 81.5414L114.202 84.5608C114.108 84.651 114 84.6923 113.879 84.6847C113.757 84.6771 113.654 84.6311 113.568 84.5469C113.483 84.4627 113.437 84.3612 113.43 84.2425C113.424 84.1238 113.467 84.0194 113.561 83.9291L116.562 81.0346C116.814 80.7917 116.941 80.5725 116.942 80.377C116.95 80.1886 116.83 79.9716 116.58 79.7259L115.886 79.0416C115.217 79.6173 114.609 80.0922 114.063 80.4662C113.524 80.8332 113.014 81.1376 112.532 81.3793C112.059 81.6141 111.578 81.8139 111.09 81.9788C110.968 82.027 110.846 82.0263 110.725 81.9768C110.603 81.9412 110.514 81.8605 110.457 81.7345ZM122.508 83.967L122.978 84.4303C123.363 84.8093 123.698 85.0065 123.985 85.022C124.278 85.0446 124.605 84.8823 124.965 84.5352L125.321 84.1916L123.815 82.7072L122.508 83.967ZM121.429 82.9037L121.878 83.3459L123.184 82.086L121.699 80.6226L121.343 80.9662C120.983 81.3133 120.809 81.6265 120.822 81.9057C120.842 82.192 121.044 82.5247 121.429 82.9037ZM124.365 82.1762L125.872 83.6606L126.142 83.4003C126.502 83.0533 126.668 82.7401 126.641 82.4607C126.628 82.1814 126.429 81.8523 126.045 81.4733L125.575 81.0101L124.365 82.1762ZM122.25 80.0916L123.735 81.555L124.944 80.3889L124.496 79.9467C124.111 79.5677 123.772 79.3669 123.478 79.3444C123.199 79.322 122.88 79.4843 122.52 79.8313L122.25 80.0916ZM122.819 93.9574C122.669 93.9077 122.552 93.8198 122.466 93.6937C122.381 93.5676 122.364 93.4244 122.415 93.2641C122.466 93.1178 122.559 93.0136 122.696 92.9515C122.832 92.9034 122.983 92.9112 123.147 92.9749C123.926 93.2932 124.741 93.514 125.592 93.6373C126.451 93.7536 127.307 93.7687 128.159 93.6826C129.019 93.5895 129.833 93.395 130.601 93.099C131.376 92.81 132.065 92.4159 132.67 91.9166L128.663 87.9685C128.57 87.8773 128.524 87.7689 128.525 87.6432C128.526 87.5176 128.573 87.4096 128.666 87.3194C128.76 87.2292 128.871 87.1844 129 87.1851C129.129 87.1858 129.24 87.2318 129.332 87.323L133.36 91.2921L136.049 88.6995C136.157 88.5954 136.275 88.5437 136.404 88.5444C136.54 88.5521 136.658 88.6051 136.758 88.7033C136.858 88.8016 136.907 88.9136 136.907 89.0392C136.913 89.1719 136.862 89.2902 136.754 89.3944L134.066 91.9869L138.104 95.9665C138.197 96.0578 138.243 96.1662 138.242 96.2919C138.242 96.4175 138.194 96.5254 138.101 96.6157C138.007 96.7059 137.896 96.7507 137.767 96.75C137.638 96.7493 137.527 96.7033 137.435 96.6121L133.407 92.643C132.91 93.2057 132.509 93.8562 132.204 94.5944C131.914 95.3328 131.716 96.1205 131.611 96.9575C131.513 97.8016 131.512 98.6497 131.608 99.5018C131.718 100.354 131.932 101.175 132.25 101.966C132.307 102.106 132.302 102.235 132.237 102.353C132.172 102.485 132.068 102.572 131.924 102.613C131.766 102.668 131.62 102.65 131.484 102.558C131.349 102.481 131.256 102.369 131.207 102.222C130.89 101.264 130.687 100.286 130.6 99.2869C130.512 98.2883 130.553 97.3043 130.723 96.335C130.907 95.3657 131.231 94.4496 131.694 93.5865C130.337 94.2702 128.892 94.6359 127.359 94.6834C125.834 94.724 124.32 94.482 122.819 93.9574ZM138.678 106.995C138.251 106.574 137.963 106.206 137.814 105.891C137.666 105.576 137.646 105.269 137.755 104.969C137.871 104.677 138.116 104.35 138.491 103.989L139.398 103.114C139.772 102.753 140.11 102.518 140.411 102.408C140.72 102.305 141.035 102.327 141.356 102.476C141.677 102.624 142.052 102.909 142.479 103.33L145.343 106.151C145.77 106.572 146.058 106.94 146.207 107.255C146.363 107.577 146.382 107.885 146.266 108.177C146.157 108.477 145.916 108.807 145.541 109.168L144.634 110.042C144.26 110.403 143.919 110.635 143.61 110.738C143.309 110.848 142.994 110.826 142.665 110.671C142.344 110.522 141.969 110.237 141.542 109.816L138.678 106.995ZM140.877 99.6042C140.785 99.513 140.735 99.401 140.729 99.2684C140.73 99.1427 140.78 99.0313 140.881 98.9342L141.291 98.5385C141.759 98.0873 142.222 97.8839 142.68 97.9283C143.146 97.9657 143.702 98.3037 144.351 98.9424L144.96 99.5425C144.96 99.4867 144.964 99.4483 144.971 99.4274C145.022 99.2392 145.077 99.0057 145.136 98.7268C145.202 98.4549 145.257 98.2074 145.301 97.9843C145.323 97.8658 145.388 97.7824 145.496 97.7341C145.61 97.6928 145.725 97.6865 145.84 97.715C145.968 97.7436 146.065 97.8105 146.128 97.9155C146.192 98.0205 146.21 98.1358 146.18 98.2613C146.143 98.4914 146.092 98.7425 146.026 99.0143C145.974 99.2863 145.919 99.5128 145.861 99.694C145.839 99.7846 145.785 99.8576 145.699 99.913C145.627 99.9685 145.534 99.9959 145.419 99.9953L146.765 101.322L148.05 100.083C148.151 99.9856 148.266 99.9443 148.395 99.959C148.531 99.9667 148.645 100.016 148.738 100.107C148.83 100.199 148.876 100.307 148.875 100.433C148.889 100.558 148.845 100.67 148.745 100.767L147.46 102.006L148.688 103.217C148.725 103.056 148.84 102.952 149.034 102.905C149.292 102.85 149.554 102.792 149.819 102.731C150.091 102.676 150.321 102.622 150.507 102.567C150.636 102.526 150.758 102.533 150.872 102.59C150.994 102.653 151.076 102.748 151.118 102.874C151.188 103.154 151.09 103.338 150.825 103.427C150.595 103.496 150.334 103.561 150.04 103.622C149.76 103.683 149.498 103.734 149.255 103.775L149.853 104.364C150.501 105.003 150.842 105.549 150.875 106.003C150.916 106.45 150.702 106.899 150.234 107.35L149.835 107.736C149.734 107.833 149.616 107.878 149.48 107.87C149.351 107.869 149.236 107.82 149.137 107.721C149.044 107.63 148.995 107.518 148.988 107.386C148.989 107.26 149.04 107.149 149.14 107.051L149.529 106.677C149.817 106.399 149.951 106.131 149.931 105.873C149.911 105.614 149.701 105.288 149.302 104.895L143.8 99.4735C143.401 99.0804 143.069 98.8727 142.804 98.8503C142.539 98.828 142.263 98.9556 141.975 99.2332L141.576 99.6185C141.475 99.7157 141.356 99.7604 141.22 99.7527C141.092 99.752 140.977 99.7025 140.877 99.6042ZM142.869 102.808C142.484 102.429 142.285 102.1 142.273 101.821C142.26 101.542 142.401 101.26 142.696 100.975C142.991 100.691 143.282 100.556 143.568 100.572C143.855 100.587 144.19 100.784 144.575 101.163L147.567 104.111C147.951 104.49 148.15 104.819 148.163 105.099C148.176 105.378 148.034 105.66 147.739 105.944C147.444 106.229 147.153 106.364 146.867 106.348C146.581 106.333 146.245 106.135 145.86 105.756L142.869 102.808ZM139.326 104.496L144.112 109.212L144.728 108.619L139.941 103.902L139.326 104.496ZM139.282 106.579L141.975 109.232C142.359 109.611 142.663 109.833 142.884 109.897C143.113 109.954 143.368 109.868 143.648 109.639L138.883 104.944C138.645 105.215 138.554 105.462 138.61 105.686C138.681 105.909 138.905 106.207 139.282 106.579ZM140.405 103.476L145.171 108.171C145.387 107.907 145.463 107.667 145.4 107.45C145.337 107.233 145.117 106.939 144.739 106.567L142.046 103.914C141.676 103.549 141.376 103.331 141.148 103.26C140.926 103.196 140.679 103.268 140.405 103.476ZM143.494 102.414L146.272 105.151C146.457 105.334 146.603 105.436 146.711 105.457C146.818 105.479 146.94 105.424 147.077 105.292C147.221 105.153 147.279 105.035 147.251 104.937C147.23 104.832 147.127 104.688 146.941 104.506L144.163 101.768C143.978 101.586 143.832 101.484 143.725 101.462C143.625 101.434 143.503 101.489 143.359 101.628C143.222 101.76 143.164 101.878 143.185 101.983C143.206 102.088 143.309 102.231 143.494 102.414ZM142.392 113.559C142.172 113.216 141.941 112.827 141.7 112.393C141.459 111.959 141.235 111.528 141.03 111.101C140.832 110.682 140.673 110.307 140.553 109.979C140.503 109.86 140.504 109.748 140.555 109.643C140.62 109.539 140.702 109.466 140.803 109.425C140.918 109.384 141.029 109.395 141.136 109.458C141.25 109.529 141.328 109.627 141.37 109.753C141.505 110.067 141.668 110.424 141.859 110.823C142.057 111.229 142.266 111.632 142.486 112.031C142.713 112.437 142.936 112.804 143.157 113.134C143.242 113.26 143.277 113.379 143.262 113.49C143.247 113.616 143.179 113.71 143.057 113.772C142.942 113.841 142.82 113.854 142.691 113.812C142.57 113.776 142.47 113.692 142.392 113.559ZM134.848 106.126C134.556 105.95 134.485 105.733 134.637 105.476C134.709 105.364 134.806 105.299 134.928 105.278C135.05 105.272 135.172 105.308 135.293 105.385C135.635 105.596 136.014 105.815 136.428 106.04C136.849 106.273 137.26 106.488 137.66 106.686C138.074 106.883 138.431 107.039 138.731 107.152C138.86 107.195 138.956 107.269 139.02 107.374C139.091 107.486 139.105 107.597 139.061 107.709C139.025 107.813 138.946 107.89 138.824 107.938C138.709 107.993 138.591 107.996 138.469 107.946C137.919 107.727 137.312 107.452 136.648 107.12C135.991 106.795 135.391 106.464 134.848 106.126ZM147.145 116.516C146.924 116.299 146.933 116.075 147.17 115.846L154.016 109.245C154.253 109.016 154.483 109.01 154.703 109.228L154.757 109.281C154.935 109.456 154.998 109.673 154.947 109.931L152.874 119.845L158.888 114.046C159.126 113.817 159.358 113.815 159.586 114.039C159.8 114.25 159.788 114.47 159.551 114.699L152.705 121.3C152.467 121.529 152.245 121.542 152.039 121.338L151.974 121.275C151.789 121.092 151.73 120.879 151.795 120.635L153.901 110.627L147.822 116.488C147.584 116.718 147.359 116.727 147.145 116.516ZM158.09 127.575C157.414 126.908 156.981 126.166 156.792 125.348C156.603 124.53 156.658 123.693 156.956 122.836C157.261 121.986 157.81 121.18 158.602 120.416C159.394 119.652 160.223 119.13 161.091 118.848C161.974 118.567 162.833 118.523 163.67 118.716C164.514 118.902 165.274 119.328 165.951 119.995C166.621 120.655 167.046 121.397 167.228 122.222C167.417 123.039 167.359 123.873 167.053 124.723C166.762 125.573 166.221 126.38 165.429 127.143C164.637 127.907 163.8 128.429 162.918 128.711C162.043 128.999 161.187 129.047 160.35 128.854C159.513 128.661 158.76 128.235 158.09 127.575ZM158.738 126.95C159.272 127.477 159.872 127.815 160.537 127.965C161.217 128.115 161.915 128.067 162.633 127.819C163.364 127.572 164.069 127.122 164.745 126.47C165.422 125.817 165.888 125.139 166.142 124.435C166.404 123.739 166.457 123.062 166.303 122.405C166.164 121.748 165.827 121.157 165.293 120.63C164.758 120.104 164.151 119.765 163.472 119.615C162.8 119.458 162.101 119.5 161.377 119.74C160.652 119.98 159.952 120.427 159.275 121.079C158.598 121.732 158.129 122.413 157.867 123.124C157.613 123.827 157.559 124.511 157.706 125.175C157.86 125.832 158.204 126.424 158.738 126.95ZM164.388 133.738C164.217 133.57 164.133 133.374 164.134 133.151C164.142 132.92 164.226 132.729 164.384 132.576C164.549 132.417 164.747 132.337 164.976 132.339C165.212 132.333 165.416 132.414 165.587 132.583C165.751 132.744 165.828 132.94 165.82 133.17C165.819 133.394 165.735 133.585 165.57 133.745C165.412 133.898 165.214 133.977 164.978 133.982C164.749 133.981 164.552 133.9 164.388 133.738ZM169.157 138.205C168.95 138.002 168.966 137.786 169.203 137.556L175.595 131.393L173.6 130.921C173.264 130.857 173.129 130.681 173.195 130.395C173.261 130.124 173.462 130.02 173.798 130.085L176.255 130.653C176.462 130.703 176.648 130.808 176.812 130.97C176.968 131.124 176.928 131.316 176.69 131.545L169.823 138.167C169.585 138.396 169.363 138.409 169.157 138.205Z" fill="black"/>
</g>
<defs>
<clipPath id="clip0_76_63311">
<rect width="195" height="195" fill="white"/>
</clipPath>
</defs>
</svg>
