<svg width="195" height="195" fill="none" xmlns="http://www.w3.org/2000/svg"><g clip-path="url(#a)"><path d="M194.695 194.696.304.305v60.864L133.83 194.696h60.864Z" fill="#fff"/><mask id="b" style="mask-type:luminance" maskUnits="userSpaceOnUse" x="0" y="0" width="195" height="195"><path d="M0 195h195V0H0v195Z" fill="#fff"/></mask><g mask="url(#b)" fill="#000"><path d="M.609 0 195 194.392l-.609.609L-.001.61.61 0ZM.609 60.864 134.136 194.39l-.609.61L-.001 61.473l.61-.61Z"/></g><path d="M29.244 67.856a.5.5 0 0 1-.147-.34c0-.128.05-.24.15-.339l1.856-1.836-1.878-1.898a.46.46 0 0 1-.136-.308.45.45 0 0 1 .14-.328.401.401 0 0 1 .319-.126c.127.001.233.044.317.13l1.878 1.898 3.476-3.44a16.65 16.65 0 0 1-2.569.369 25.47 25.47 0 0 1-2.853.037 23.4 23.4 0 0 1-2.788-.301.713.713 0 0 1-.37-.204.47.47 0 0 1 .1-.71.5.5 0 0 1 .403-.062c.932.203 1.907.329 2.925.377 1.018.048 2.005.029 2.96-.058.962-.08 1.81-.21 2.547-.39l-3.681-3.721a.48.48 0 0 1-.147-.32.479.479 0 0 1 .15-.317.46.46 0 0 1 .309-.136c.127 0 .236.047.328.14l3.977 4.02 1.887-1.867a.467.467 0 0 1 .34-.147.5.5 0 0 1 .339.15.448.448 0 0 1 .136.33c0 .127-.05.24-.15.339l-1.888 1.867 3.988 4.03a.432.432 0 0 1 .125.32.432.432 0 0 1-.129.317.449.449 0 0 1-.33.136.46.46 0 0 1-.306-.14l-3.682-3.72a17.137 17.137 0 0 0-.418 2.712 24.298 24.298 0 0 0-.005 2.96c.072.997.195 1.938.367 2.823a.372.372 0 0 1-.087.339.47.47 0 0 1-.32.189.595.595 0 0 1-.391-.098.478.478 0 0 1-.21-.34 27.82 27.82 0 0 1-.304-2.76 23.82 23.82 0 0 1 .037-2.842c.069-.94.204-1.834.407-2.681l-3.509 3.47 1.941 1.963a.401.401 0 0 1 .126.318.401.401 0 0 1-.129.318.449.449 0 0 1-.33.136.426.426 0 0 1-.306-.14l-1.941-1.962-1.856 1.836a.467.467 0 0 1-.34.147.449.449 0 0 1-.328-.14ZM45.01 80.637a.479.479 0 0 1-.147-.319.545.545 0 0 1 .14-.328.385.385 0 0 1 .287-.136.45.45 0 0 1 .328.118c.38.356.662.549.845.578.198.03.421-.08.67-.325l4.948-4.895c.356-.352.527-.662.514-.93-.005-.277-.194-.603-.567-.98l-2.332-2.356c-.365-.37-.69-.563-.972-.578-.269-.016-.58.152-.936.504l-1.803 1.782c-.668.661-1.268 1.192-1.8 1.592-.533.4-1.047.712-1.544.936a8.71 8.71 0 0 1-1.551.543.48.48 0 0 1-.34-.044.421.421 0 0 1-.22-.245.358.358 0 0 1 .022-.318.42.42 0 0 1 .266-.2c.496-.125.97-.3 1.424-.523.468-.224.95-.525 1.448-.904.511-.38 1.069-.868 1.673-1.466l1.877-1.856c.526-.52 1.012-.77 1.457-.746.46.024.96.31 1.502.857l2.49 2.517c.54.547.817 1.047.829 1.5.026.453-.224.94-.75 1.46l-5.087 5.031c-.412.408-.824.604-1.234.588-.403-.01-.882-.295-1.438-.857Zm-2.545-.183a18.562 18.562 0 0 1-1.666-1.897c-.435-.568-.757-1.121-.966-1.66a5.126 5.126 0 0 1-.373-1.657c-.212-.043-.47-.09-.774-.142a13.14 13.14 0 0 1-.848-.153c-.268-.044-.473-.08-.614-.11a.476.476 0 0 1-.328-.224.459.459 0 0 1-.083-.382.483.483 0 0 1 .225-.306.458.458 0 0 1 .382-.04c.134.035.318.086.55.15.248.066.509.13.784.196l.763.195 2.655-2.627c.2-.197.3-.373.3-.528.008-.149-.09-.326-.294-.532l-.749-.757a.425.425 0 0 1-.136-.309.46.46 0 0 1 .14-.307.426.426 0 0 1 .308-.136.4.4 0 0 1 .317.13l.908.916c.351.356.523.692.514 1.01.005.319-.17.654-.525 1.005l-2.73 2.7c.04.539.15 1.048.33 1.53.19.475.487.975.894 1.5.407.526.952 1.133 1.634 1.823a97.68 97.68 0 0 0 1.804 1.781c.563.526 1.056.975 1.478 1.345.113.1.172.216.179.35a.426.426 0 0 1-.13.36c-.22.219-.46.21-.72-.025-.24-.227-.535-.519-.887-.874a78.062 78.062 0 0 1-1.129-1.12c-.408-.398-.812-.8-1.213-1.205Zm2.335-2.331c-.527-.534-.804-.977-.83-1.33-.02-.362.195-.764.643-1.207.298-.295.568-.484.809-.568.255-.083.516-.06.784.068.268.129.578.37.93.726.358.363.6.679.727.948.125.27.142.528.048.775-.086.24-.278.507-.577.803-.298.295-.572.488-.82.579-.248.09-.506.071-.774-.058-.268-.128-.58-.374-.94-.736Zm1.383-4.511a.343.343 0 0 1-.105-.277.4.4 0 0 1 .118-.264.366.366 0 0 1 .266-.116.343.343 0 0 1 .275.108l1.276 1.29.81-.801-.98-.992a.343.343 0 0 1-.105-.277.4.4 0 0 1 .118-.264.365.365 0 0 1 .266-.115.342.342 0 0 1 .275.107l.981.992.683-.675c.1-.099.202-.144.308-.136a.498.498 0 0 1 .296.15c.085.085.13.18.137.287.013.113-.03.219-.13.317l-.682.675 1.066 1.078c.077.078.112.17.104.276 0 .099-.04.187-.118.264a.4.4 0 0 1-.266.116.342.342 0 0 1-.275-.108l-1.065-1.077-.81.802 1.307 1.322c.078.078.113.17.105.276 0 .1-.04.188-.118.265a.4.4 0 0 1-.266.115.342.342 0 0 1-.275-.107l-3.197-3.231Zm-.828 3.962c.33.334.584.505.76.513.178.008.387-.107.629-.347.248-.246.366-.454.353-.623-.013-.17-.185-.422-.516-.756-.323-.327-.573-.502-.75-.524-.17-.015-.379.1-.628.347-.241.239-.36.447-.353.624.013.183.181.439.505.766Zm.424-7.783a.449.449 0 0 1-.328-.14.43.43 0 0 1-.104-.34c.03-.24.048-.533.057-.88.023-.346.032-.693.027-1.04a10.54 10.54 0 0 0-.027-.88.37.37 0 0 1 .108-.296.465.465 0 0 1 .604-.007.452.452 0 0 1 .158.308c.027.269.04.58.037.934.013.353.018.7.016 1.04.005.346-.004.636-.026.869a.46.46 0 0 1-.522.432Zm7.039 20.34c-.549-.555-.967-1.049-1.254-1.482-.28-.44-.427-.858-.44-1.254-.004-.403.13-.823.4-1.26.278-.444.702-.947 1.27-1.51l2.816-2.785c.569-.562 1.073-.977 1.513-1.243.447-.273.868-.402 1.264-.386.403.01.82.16 1.25.453.436.285.929.704 1.477 1.26l.834.841c.548.555.963 1.052 1.243 1.492.288.433.434.851.439 1.254.012.396-.125.813-.41 1.25-.271.437-.69.936-1.26 1.499l-2.815 2.785c-.569.562-1.077.98-1.523 1.254-.433.273-.851.405-1.254.396-.396-.016-.813-.167-1.25-.452-.43-.292-.918-.716-1.467-1.27l-.833-.843Zm.65-.644.834.842c.436.441.812.772 1.13.993.323.228.627.343.91.344.296.002.612-.106.945-.324.334-.217.725-.547 1.172-.99l1.163-1.15-4.99-5.044-1.162 1.15c-.448.443-.783.83-1.004 1.161-.22.331-.332.645-.334.942.013.297.131.609.356.936.225.326.551.706.98 1.14Zm1.804-5.962 4.99 5.044 1.013-1.002c.447-.443.782-.83 1.003-1.162.221-.33.329-.641.323-.931.009-.29-.1-.598-.324-.925-.217-.32-.544-.7-.98-1.14l-.833-.842c-.43-.434-.806-.765-1.13-.993-.324-.228-.638-.346-.942-.355-.29-.009-.601.096-.935.313-.334.217-.724.548-1.172.99l-1.013 1.003Zm8.783 19.521a.498.498 0 0 1-.147-.34c0-.127.05-.24.15-.338l1.856-1.836-1.878-1.898a.46.46 0 0 1-.136-.308c0-.128.047-.237.14-.328a.401.401 0 0 1 .319-.126c.127 0 .233.044.317.129l1.878 1.898 3.476-3.439a16.65 16.65 0 0 1-2.569.368 25.47 25.47 0 0 1-2.853.038 23.421 23.421 0 0 1-2.788-.302.714.714 0 0 1-.37-.203.464.464 0 0 1 .1-.71.499.499 0 0 1 .402-.062c.933.203 1.908.329 2.926.377 1.018.047 2.004.028 2.96-.059.962-.08 1.81-.21 2.547-.389l-3.681-3.722a.479.479 0 0 1-.147-.319.479.479 0 0 1 .15-.317.46.46 0 0 1 .308-.136c.128 0 .237.047.328.14l3.978 4.02 1.887-1.867a.467.467 0 0 1 .34-.147.5.5 0 0 1 .339.15.449.449 0 0 1 .136.33c0 .127-.05.24-.15.338l-1.888 1.868 3.988 4.03a.431.431 0 0 1 .125.319.433.433 0 0 1-.129.318.45.45 0 0 1-.33.136.458.458 0 0 1-.306-.14l-3.682-3.721a17.136 17.136 0 0 0-.418 2.713 24.338 24.338 0 0 0-.005 2.959c.072.997.195 1.939.367 2.823a.371.371 0 0 1-.087.339.47.47 0 0 1-.32.19.599.599 0 0 1-.391-.098.477.477 0 0 1-.21-.341 27.788 27.788 0 0 1-.304-2.759 23.82 23.82 0 0 1 .037-2.842c.069-.94.204-1.834.407-2.682l-3.509 3.471 1.941 1.962a.401.401 0 0 1 .126.319.4.4 0 0 1-.13.317.45.45 0 0 1-.329.137.43.43 0 0 1-.306-.14l-1.942-1.962-1.855 1.835a.464.464 0 0 1-.668.007Zm16.716 5.85c-.534-.54-.9-1.023-1.095-1.448-.189-.418-.208-.829-.057-1.231.15-.402.468-.842.951-1.321.484-.478.927-.79 1.331-.936.404-.147.814-.123 1.23.07.423.2.902.571 1.436 1.111l.781.789c.535.54.896 1.02 1.085 1.438.195.425.218.839.067 1.241-.15.402-.467.843-.95 1.321-.484.478-.928.79-1.332.937-.403.146-.817.119-1.24-.081-.416-.194-.892-.56-1.426-1.101l-.78-.789Zm-2.217 7.89c-.738-.746-1.127-1.395-1.167-1.947-.032-.545.257-1.119.869-1.724l.704-.696c.611-.605 1.189-.889 1.733-.85.551.045 1.196.441 1.935 1.188.731.739 1.117 1.385 1.156 1.936.04.552-.247 1.13-.858 1.735l-.704.696c-.611.605-1.192.885-1.744.839-.551-.045-1.192-.437-1.924-1.177Zm-4.895-4.948c-.731-.739-1.113-1.381-1.145-1.926-.033-.544.257-1.119.868-1.724l.704-.696c.611-.605 1.19-.888 1.733-.85.545.038 1.183.427 1.914 1.167.492.497.826.948 1 1.352.182.397.208.779.079 1.146-.115.367-.379.755-.791 1.162l-.704.697c-.405.401-.796.66-1.171.778-.368.126-.75.095-1.145-.091-.402-.179-.85-.517-1.342-1.015Zm7.784-3.606.78.789c.373.377.69.633.951.769.261.135.516.151.764.046.255-.097.55-.311.883-.642.334-.331.552-.623.652-.877.108-.247.095-.501-.038-.764-.133-.262-.386-.582-.759-.958l-.78-.79c-.366-.369-.683-.626-.95-.768a.909.909 0 0 0-.775-.058c-.248.105-.539.323-.873.653-.334.331-.555.62-.662.866a.908.908 0 0 0 .049.775c.14.269.392.589.758.959Zm-2.228 7.9c.493.498.901.762 1.226.792.333.037.694-.138 1.085-.525l.683-.675c.398-.394.576-.753.536-1.079-.027-.325-.286-.737-.778-1.234-.493-.498-.905-.765-1.237-.803-.318-.037-.676.142-1.074.536l-.683.675c-.39.387-.573.743-.547 1.068.034.333.297.748.79 1.245Zm-4.894-4.948c.492.498.9.762 1.226.792.325.03.683-.149 1.074-.535l.682-.675c.398-.394.58-.75.547-1.069-.026-.325-.286-.737-.778-1.234-.492-.498-.901-.762-1.226-.792-.311-.03-.666.152-1.064.546l-.682.675c-.391.387-.577.739-.558 1.058.027.325.286.737.778 1.234Zm15.42 17.892a.448.448 0 0 1-.136-.329c0-.113.047-.216.14-.307l2.015-1.994-3.122-3.156a.41.41 0 0 1-.126-.298.461.461 0 0 1 .14-.307.393.393 0 0 1 .287-.115.387.387 0 0 1 .307.118l.823.832c.19-.048.407-.107.647-.177.255-.069.503-.145.744-.229.248-.076.454-.146.617-.209a.405.405 0 0 1 .35.013c.12.05.204.135.253.256a.403.403 0 0 1-.002.36.461.461 0 0 1-.277.232c-.206.063-.464.136-.776.219-.311.083-.602.159-.87.228l1.613 1.632 1.6-1.582-1.055-1.067c-.577-.583-.882-1.111-.914-1.585-.026-.467.242-.978.803-1.534l1.141-1.128c.54-.535 1.044-.794 1.51-.777.467.016.975.295 1.524.835.198-.083.436-.185.712-.303.29-.119.514-.213.67-.283a.525.525 0 0 1 .371-.03c.12.036.212.114.275.235.077.12.094.237.05.35a.379.379 0 0 1-.234.253c-.149.063-.337.137-.563.22a15.93 15.93 0 0 1-.617.23l1.002 1.013c.577.583.875 1.112.893 1.585.033.474-.228.986-.782 1.534l-1.141 1.129c-.54.534-1.04.797-1.5.787-.453-.016-.957-.291-1.512-.825l-1.6 1.583 1.825 1.845a.4.4 0 0 1 .126.319c-.001.113-.04.208-.119.285a.454.454 0 0 1-.308.136.424.424 0 0 1-.307-.139l-1.825-1.845-2.015 1.994a.401.401 0 0 1-.32.125.427.427 0 0 1-.317-.129Zm-7.076-7.579a.404.404 0 0 1 .013-.35.506.506 0 0 1 .266-.221 9.71 9.71 0 0 0 1.318-.545 10.31 10.31 0 0 0 1.33-.809c.469-.323.977-.72 1.524-1.191a37.1 37.1 0 0 0 1.844-1.719l3.615-3.576a.426.426 0 0 1 .308-.136c.12.008.226.058.318.15a.408.408 0 0 1 .126.298.4.4 0 0 1-.13.317l-2.58 2.553 1.065 1.077 2.58-2.553a.434.434 0 0 1 .751.312.403.403 0 0 1-.128.318l-2.58 2.552.685.694c.092.092.13.195.115.308a.406.406 0 0 1-.128.296.411.411 0 0 1-.298.126.38.38 0 0 1-.297-.129l-2.373-2.399-.427.421-.469.465c-.15.147-.298.288-.448.421l.792.8c.415.42.618.81.609 1.17.005.361-.199.745-.611 1.153l-3.093 3.059a.399.399 0 0 1-.319.126.458.458 0 0 1-.307-.14.459.459 0 0 1-.136-.308.4.4 0 0 1 .13-.317l2.964-2.933c.249-.246.374-.468.375-.666.008-.191-.111-.411-.357-.66l-.686-.693c-.66.583-1.261 1.064-1.8 1.443-.533.372-1.037.681-1.512.926-.468.237-.943.44-1.424.607a.456.456 0 0 1-.36-.002.412.412 0 0 1-.265-.245Zm11.9 2.26.464.469c.38.384.71.584.993.599.29.023.613-.141.968-.493l.352-.348-1.487-1.504-1.29 1.277ZM93.5 122.68l.443.448 1.29-1.277-1.466-1.482-.352.348c-.355.352-.527.669-.514.952.02.29.22.627.599 1.011Zm2.9-.738 1.487 1.504.267-.264c.355-.351.52-.669.493-.952-.013-.283-.21-.616-.589-1l-.464-.469-1.194 1.181Zm-2.09-2.111 1.467 1.482 1.195-1.181-.444-.448c-.38-.384-.714-.588-1.004-.61-.275-.023-.591.141-.947.493l-.266.264Zm.561 14.046a.656.656 0 0 1-.348-.267.49.49 0 0 1-.05-.435.517.517 0 0 1 .277-.317.614.614 0 0 1 .445.024c.769.322 1.574.546 2.415.671.847.117 1.692.133 2.534.045a9.304 9.304 0 0 0 2.411-.591 6.984 6.984 0 0 0 2.043-1.199l-3.956-3.998a.456.456 0 0 1-.136-.33.452.452 0 0 1 .14-.328.448.448 0 0 1 .33-.136.45.45 0 0 1 .328.14l3.977 4.02 2.655-2.627a.487.487 0 0 1 .351-.157.52.52 0 0 1 .349.161.471.471 0 0 1 .147.34.463.463 0 0 1-.151.36l-2.655 2.627 3.987 4.03a.448.448 0 0 1 .136.33.447.447 0 0 1-.139.328.446.446 0 0 1-.33.136.448.448 0 0 1-.328-.139l-3.977-4.021a7.012 7.012 0 0 0-1.188 1.977 10.083 10.083 0 0 0-.586 2.394 11.695 11.695 0 0 0-.003 2.578c.109.863.32 1.695.634 2.496a.45.45 0 0 1-.013.392.48.48 0 0 1-.309.264.457.457 0 0 1-.435-.056.597.597 0 0 1-.274-.341 13.382 13.382 0 0 1-.599-2.973 11.755 11.755 0 0 1 .123-2.99c.182-.982.501-1.91.959-2.785a9.89 9.89 0 0 1-4.281 1.112c-1.506.041-3-.203-4.483-.735Zm15.659 13.205c-.422-.426-.707-.799-.853-1.118a1.198 1.198 0 0 1-.059-.934c.115-.296.357-.627.727-.993l.895-.886c.37-.365.704-.604 1.001-.716.305-.104.616-.081.933.069.318.15.687.439 1.109.865l2.828 2.858c.422.427.706.799.853 1.118.153.327.173.638.058.934-.107.304-.346.638-.716 1.004l-.896.886c-.369.366-.706.601-1.011.705-.298.112-.609.089-.933-.068-.317-.151-.687-.439-1.109-.866l-2.827-2.858Zm2.172-7.487a.5.5 0 0 1-.146-.34c0-.127.05-.24.15-.339l.405-.4c.462-.458.919-.664 1.372-.619.459.038 1.009.38 1.649 1.027l.601.608c0-.056.004-.095.011-.116.051-.191.105-.428.163-.71.065-.276.12-.526.163-.752a.327.327 0 0 1 .193-.254.555.555 0 0 1 .339-.019.428.428 0 0 1 .286.203.46.46 0 0 1 .051.35c-.037.233-.088.488-.153.763a5.973 5.973 0 0 1-.163.689.356.356 0 0 1-.16.221.427.427 0 0 1-.276.084l1.329 1.343 1.269-1.255a.4.4 0 0 1 .34-.125.501.501 0 0 1 .339.15.452.452 0 0 1 .136.329.402.402 0 0 1-.129.339l-1.269 1.256 1.213 1.226c.036-.163.15-.268.341-.316.255-.056.513-.114.775-.177.269-.055.496-.11.68-.166a.453.453 0 0 1 .36.024.49.49 0 0 1 .243.287c.069.283-.028.47-.29.561a9.426 9.426 0 0 1-.775.197c-.276.062-.535.114-.775.155l.591.597c.64.647.976 1.201 1.009 1.66.04.453-.171.908-.633 1.365l-.395.39a.44.44 0 0 1-.351.136.46.46 0 0 1-.338-.15.496.496 0 0 1-.147-.34.472.472 0 0 1 .15-.339l.384-.379c.285-.282.417-.553.397-.815-.02-.262-.226-.592-.62-.99l-5.433-5.492c-.394-.398-.722-.608-.983-.631-.262-.022-.535.107-.819.388l-.394.391a.45.45 0 0 1-.351.136.47.47 0 0 1-.339-.151Zm1.966 3.246c-.38-.384-.576-.717-.588-1-.013-.283.126-.569.418-.857.291-.289.578-.425.861-.409.283.016.614.215.994.599l2.954 2.986c.379.384.576.717.588 1 .013.283-.127.569-.418.857-.291.288-.579.425-.861.409-.283-.016-.614-.215-.994-.599l-2.954-2.986Zm-3.499 1.71 4.726 4.777.608-.601-4.726-4.777-.608.601Zm-.043 2.11 2.658 2.688c.38.384.679.608.898.673.226.058.478-.029.755-.261l-4.705-4.756c-.235.274-.325.525-.269.751.069.227.29.529.663.905Zm1.109-3.144 4.705 4.756c.214-.267.29-.511.227-.73-.062-.22-.28-.518-.653-.895l-2.658-2.687c-.366-.37-.662-.591-.887-.663-.219-.064-.464.009-.734.219Zm3.05-1.076 2.743 2.773c.183.185.327.288.433.31.106.022.227-.034.362-.168.142-.141.199-.261.172-.36-.021-.106-.123-.251-.306-.436l-2.742-2.773c-.183-.185-.328-.288-.434-.31-.098-.029-.219.027-.361.168-.135.134-.192.254-.172.36.021.106.123.251.305.436Zm-1.089 11.291a25.095 25.095 0 0 1-1.345-2.49 14.36 14.36 0 0 1-.471-1.137.407.407 0 0 1 .002-.34.53.53 0 0 1 .245-.221.36.36 0 0 1 .329.034.54.54 0 0 1 .232.298c.132.319.293.68.482 1.084.195.412.402.819.619 1.223.224.412.445.784.662 1.118a.53.53 0 0 1 .104.361.354.354 0 0 1-.203.285.408.408 0 0 1-.361.041.515.515 0 0 1-.295-.256Zm-7.448-7.529c-.289-.178-.359-.398-.209-.659a.415.415 0 0 1 .288-.2.6.6 0 0 1 .36.108c.338.214.712.435 1.121.664.415.235.821.453 1.216.653.409.201.762.358 1.058.473a.508.508 0 0 1 .285.224.37.37 0 0 1 .041.34.38.38 0 0 1-.235.232.405.405 0 0 1-.35.009 24.289 24.289 0 0 1-1.799-.837 20.713 20.713 0 0 1-1.776-1.007Zm12.141 10.524c-.218-.221-.21-.447.025-.679l6.76-6.688c.235-.232.461-.238.679-.018l.053.054a.694.694 0 0 1 .188.658l-2.049 10.045 5.94-5.876c.234-.232.464-.235.689-.007.211.213.2.436-.035.668l-6.761 6.688c-.235.232-.454.245-.658.039l-.063-.064a.636.636 0 0 1-.177-.648l2.081-10.14-6.004 5.94c-.234.232-.457.241-.668.028Zm10.806 11.201c-.668-.675-1.095-1.427-1.282-2.255-.186-.829-.132-1.677.163-2.545.301-.861.843-1.679 1.625-2.452.782-.774 1.602-1.303 2.459-1.588.871-.286 1.72-.331 2.546-.135.834.188 1.584.62 2.253 1.295.661.669 1.081 1.42 1.26 2.256.187.828.129 1.673-.173 2.534-.287.861-.822 1.678-1.604 2.452-.782.774-1.609 1.303-2.48 1.588-.864.293-1.709.341-2.536.146-.826-.196-1.57-.628-2.231-1.296Zm.64-.633c.528.533 1.12.876 1.776 1.028.671.152 1.361.103 2.07-.148.722-.251 1.418-.706 2.086-1.367.668-.662 1.128-1.348 1.379-2.061.259-.706.312-1.392.16-2.057-.138-.666-.471-1.265-.998-1.798-.527-.533-1.127-.876-1.798-1.028-.663-.159-1.353-.117-2.069.127-.715.243-1.407.696-2.075 1.357-.668.661-1.132 1.351-1.39 2.071-.252.713-.305 1.406-.16 2.078.152.666.492 1.265 1.019 1.798Zm5.578 6.876a.816.816 0 0 1-.004-1.177.798.798 0 0 1 .585-.241.791.791 0 0 1 .603.247.77.77 0 0 1 .23.595.795.795 0 0 1-.247.583.831.831 0 0 1-.585.24.794.794 0 0 1-.582-.247Zm4.708 4.525c-.204-.206-.188-.426.046-.658l6.313-6.245-1.97-.477c-.332-.066-.465-.243-.4-.533.065-.275.263-.38.595-.315l2.426.576c.205.05.388.157.55.321.155.156.115.351-.12.583l-6.782 6.709c-.235.232-.454.245-.658.039Z" fill="#000"/></g><defs><clipPath id="a"><path fill="#fff" transform="rotate(-180 97.5 97.5)" d="M0 0h195v195H0z"/></clipPath></defs></svg>