<svg width="69" height="614" fill="none" xmlns="http://www.w3.org/2000/svg"><circle cx="34.459" cy="34.459" r="32.818" stroke="#F4F2EE" stroke-width="3.282"/><path d="M47.503 49.67a30.687 30.687 0 0 1-5.27-3.394 26.937 26.937 0 0 1-4.441-4.476 22.349 22.349 0 0 1-3.105-5.307c-1.083 2.696-2.731 5.198-4.945 7.509-2.215 2.286-4.838 4.163-7.87 5.631-.626.313-1.264.422-1.913.325-.65-.096-1.155-.481-1.517-1.155-.337-.626-.385-1.24-.144-1.84.265-.627.734-1.084 1.408-1.373a21.813 21.813 0 0 0 5.992-3.718c1.781-1.564 3.237-3.321 4.369-5.27 1.13-1.95 1.853-3.983 2.166-6.101H20.428c-.578 0-1.071-.205-1.48-.614a2.017 2.017 0 0 1-.614-1.48c0-.578.205-1.071.614-1.48.409-.41.902-.614 1.48-.614h11.985v-7.111c0-.699.229-1.252.686-1.661a2.31 2.31 0 0 1 1.588-.614c.626 0 1.156.205 1.589.614.457.409.686.962.686 1.66v7.112h12.057c.577 0 1.07.205 1.48.614.409.409.614.902.614 1.48s-.205 1.07-.614 1.48c-.41.41-.903.614-1.48.614h-11.84c.36 2.07 1.118 4.079 2.273 6.028 1.156 1.95 2.624 3.718 4.405 5.307a23.955 23.955 0 0 0 6.064 3.827c.65.288 1.06.734 1.228 1.335.192.578.132 1.167-.18 1.769-.338.65-.843 1.035-1.517 1.155a2.888 2.888 0 0 1-1.95-.252Z" fill="#F4F2EE"/><g clip-path="url(#a)" fill="#F4F2EE"><path d="M15.928 525.773c-8.632-11.467-8.632-27.472 0-38.939 7.436-9.89 7.436-23.722 0-33.612-8.632-11.467-8.632-27.472 0-38.939 7.436-9.89 7.436-23.722 0-33.612-8.632-11.467-8.632-27.473 0-38.939 7.436-9.891 7.436-23.722 0-33.612-8.632-11.467-8.632-27.473 0-38.94 7.436-9.89 7.436-23.722 0-33.612-8.632-11.466-8.632-27.472 0-38.939 7.436-9.89 7.436-23.722 0-33.612-8.632-11.467-8.632-27.472 0-38.939 7.436-9.89 7.436-23.722 0-33.612l3.539-2.652c8.631 11.467 8.631 27.473 0 38.939-7.437 9.891-7.437 23.722 0 33.612 8.631 11.467 8.631 27.473 0 38.94-7.437 9.89-7.437 23.722 0 33.612 8.631 11.466 8.631 27.472 0 38.939-7.437 9.89-7.437 23.722 0 33.612 8.631 11.467 8.631 27.472 0 38.939-7.437 9.89-7.437 23.722 0 33.612 8.631 11.467 8.631 27.473 0 38.939-7.437 9.89-7.437 23.722 0 33.612 8.631 11.467 8.631 27.473 0 38.94-7.437 9.89-7.437 23.721 0 33.612l-3.54 2.651Z"/><path d="M32.69 525.773c-8.632-11.467-8.632-27.472 0-38.939 7.436-9.89 7.436-23.722 0-33.612-8.632-11.467-8.632-27.472 0-38.939 7.436-9.89 7.436-23.722 0-33.612-8.632-11.467-8.632-27.473 0-38.939 7.436-9.891 7.436-23.722 0-33.612-8.632-11.467-8.632-27.473 0-38.94 7.436-9.89 7.436-23.722 0-33.612-8.632-11.466-8.632-27.472 0-38.939 7.436-9.89 7.436-23.722 0-33.612-8.632-11.467-8.632-27.472 0-38.939 7.436-9.89 7.436-23.722 0-33.612l3.538-2.652c8.632 11.467 8.632 27.473 0 38.939-7.436 9.891-7.436 23.722 0 33.612 8.632 11.467 8.632 27.473 0 38.94-7.436 9.89-7.436 23.722 0 33.612 8.632 11.466 8.632 27.472 0 38.939-7.436 9.89-7.436 23.722 0 33.612 8.632 11.467 8.632 27.472 0 38.939-7.436 9.89-7.436 23.722 0 33.612 8.632 11.467 8.632 27.473 0 38.939-7.436 9.89-7.436 23.722 0 33.612 8.632 11.467 8.632 27.473 0 38.94-7.436 9.89-7.436 23.721 0 33.612l-3.539 2.651Z"/><path d="m50.691 522.76-.872.654c-7.207-10.753-6.886-25.149.964-35.577v-.001c7.883-10.484 7.883-25.132 0-35.616v-.001c-8.185-10.873-8.185-26.06 0-36.933v-.001c7.883-10.484 7.883-25.133 0-35.616v-.001c-8.185-10.873-8.185-26.061 0-36.934 7.883-10.484 7.883-25.133 0-35.616v-.001c-8.185-10.873-8.185-26.061 0-36.934v-.001c7.883-10.483 7.883-25.132 0-35.616-8.185-10.873-8.185-26.061 0-36.934v-.001c7.883-10.483 7.883-25.132 0-35.616v-.001c-8.185-10.873-8.185-26.06 0-36.933v-.001c7.547-10.037 7.868-23.891.966-34.253l.872-.653c7.207 10.752 6.886 25.149-.964 35.577-7.883 10.484-7.883 25.133 0 35.616v.001c8.185 10.873 8.185 26.061 0 36.934v.001c-7.883 10.483-7.883 25.132 0 35.616 8.185 10.873 8.185 26.061 0 36.934v.001c-7.883 10.483-7.883 25.132 0 35.616v.001c8.185 10.873 8.185 26.06 0 36.933v.001c-7.883 10.484-7.883 25.133 0 35.616v.001c8.185 10.873 8.185 26.061 0 36.934-7.883 10.484-7.883 25.133 0 35.616v.001c8.185 10.873 8.185 26.061 0 36.934v.001c-7.547 10.036-7.868 23.89-.966 34.252Z" stroke="#F4F2EE" stroke-width="3.335"/></g><circle cx="34.459" cy="579.129" r="32.818" stroke="#F4F2EE" stroke-width="3.282"/><path d="M43.46 595.17c-.53 0-.987-.181-1.372-.542-.385-.337-.578-.806-.578-1.408v-5.126h-9.097c-.553 0-.999-.168-1.336-.505a1.918 1.918 0 0 1-.469-1.3c0-.505.157-.926.47-1.263.336-.361.782-.542 1.335-.542h1.3c.168-.313.373-.71.613-1.191.265-.506.518-.999.758-1.48l.542-1.083c.385-.794.987-1.167 1.805-1.119-1.685-.121-2.912-.59-3.682-1.408-.746-.843-1.12-2.154-1.12-3.935v-4.079c0-1.926.434-3.285 1.3-4.08.867-.818 2.274-1.239 4.224-1.263.144-.385.3-.818.47-1.3.192-.481.324-.806.396-.974.193-.602.518-1.023.975-1.264.481-.265 1.047-.325 1.697-.18.577.144.998.445 1.263.902.265.433.289.927.072 1.48-.072.169-.156.373-.252.614-.097.217-.205.445-.325.686h1.913c2.118 0 3.634.409 4.548 1.227.94.794 1.408 2.178 1.408 4.152v4.079c0 1.781-.385 3.092-1.155 3.935-.77.818-2.01 1.287-3.718 1.408v4.873h4.837c.554 0 .987.181 1.3.542.337.337.505.758.505 1.263 0 .506-.168.939-.505 1.3-.313.337-.746.505-1.3.505h-4.837v5.126c0 .602-.193 1.071-.578 1.408a1.983 1.983 0 0 1-1.407.542Zm-15.198-.903c-.506 0-.951-.168-1.336-.505-.385-.313-.578-.758-.578-1.336v-9.133c0-.602-.108-1.023-.325-1.264-.216-.264-.637-.397-1.263-.397h-1.155c-.169 2.431-.445 4.561-.83 6.39-.386 1.829-.879 3.453-1.48 4.873a2.43 2.43 0 0 1-1.12 1.228c-.481.289-1.023.325-1.624.108-.578-.217-.939-.578-1.083-1.083-.145-.481-.096-.987.144-1.516.89-1.974 1.504-4.248 1.841-6.823.361-2.599.542-5.704.542-9.314v-12.021c0-.577.18-1.035.541-1.372a1.937 1.937 0 0 1 1.372-.541c.53 0 .975.18 1.336.541.385.337.577.795.577 1.372v7.292h2.202v-7.22c0-.577.18-1.034.542-1.371a1.938 1.938 0 0 1 1.372-.542c.53 0 .974.181 1.335.542.361.337.542.794.542 1.371v7.22h.47c.553 0 .986.181 1.299.542.337.337.505.758.505 1.263 0 .506-.168.939-.505 1.3-.313.337-.746.505-1.3.505h-6.462v1.119c0 .409-.012.819-.036 1.228v1.227h2.347c1.444 0 2.478.325 3.104.975.65.626.975 1.66.975 3.104v10.397c0 .578-.193 1.023-.578 1.336a2.014 2.014 0 0 1-1.371.505Zm9.602-9.783h3.646v-4.837h-3.502a2.866 2.866 0 0 0-.469-.036c.193 0 .41.06.65.18.505.217.842.566 1.01 1.047.17.481.121.963-.144 1.444a7.726 7.726 0 0 1-.505.975c-.217.409-.445.818-.686 1.227Zm5.451-8.05h.83c.939 0 1.577-.144 1.914-.433.337-.289.505-.843.505-1.661v-.65h-3.249v2.744Zm-4.512 0h.794v-2.744h-3.213v.65c0 .818.168 1.372.505 1.661.337.289.975.433 1.914.433Zm4.512-5.776h3.25v-.505c0-.819-.17-1.372-.506-1.661-.337-.313-.975-.469-1.914-.469h-.83v2.635Zm-6.931 0h3.213v-2.635h-.794c-.939 0-1.577.156-1.914.469-.337.289-.505.842-.505 1.661v.505Z" fill="#F4F2EE"/><defs><clipPath id="a"><path fill="#fff" transform="translate(9.448 87.814)" d="M0 0h50.021v437.959H0z"/></clipPath></defs></svg>