<svg width="69" height="614" fill="none" xmlns="http://www.w3.org/2000/svg"><circle cx="34.459" cy="34.459" r="32.818" stroke="#F4F2EE" stroke-width="3.282"/><path d="M34.723 50.355c-.601 0-1.107-.192-1.516-.577-.409-.385-.614-.903-.614-1.553v-4.223h-4.368c-.529 0-.998-.193-1.407-.578-.386-.409-.578-.878-.578-1.408 0-.553.193-1.022.578-1.407.409-.386.878-.578 1.407-.578h4.368v-8.664a57.463 57.463 0 0 1-3.32 4.44 54.5 54.5 0 0 1-3.9 4.26 50.234 50.234 0 0 1-4.043 3.646 2.809 2.809 0 0 1-1.696.614 1.95 1.95 0 0 1-1.589-.758c-.385-.482-.53-1.011-.433-1.589.12-.577.433-1.047.939-1.408a46.46 46.46 0 0 0 4.404-3.79 64.18 64.18 0 0 0 4.296-4.585c1.348-1.612 2.49-3.14 3.43-4.584H20.174c-.53 0-.986-.193-1.372-.578a1.874 1.874 0 0 1-.577-1.372c0-.553.192-1.01.578-1.372a1.874 1.874 0 0 1 1.371-.577h12.418v-4.946c0-.626.205-1.13.614-1.516.41-.409.915-.614 1.516-.614.578 0 1.071.205 1.48.614.41.385.614.89.614 1.516v4.946h12.418c.554 0 1.011.192 1.372.578.385.36.578.818.578 1.371 0 .53-.193.987-.578 1.372-.36.385-.818.578-1.372.578H38.84c.962 1.492 2.13 3.032 3.501 4.62a64.254 64.254 0 0 0 4.368 4.513 61.602 61.602 0 0 0 4.513 3.862c.457.338.686.795.686 1.372.024.578-.133 1.071-.47 1.48a2.36 2.36 0 0 1-1.48.83c-.601.097-1.155-.06-1.66-.469a66.394 66.394 0 0 1-4.007-3.646 61.663 61.663 0 0 1-3.971-4.295 56.505 56.505 0 0 1-3.502-4.694v8.845h4.513c.553 0 1.022.193 1.407.578.386.385.578.854.578 1.407 0 .53-.192 1-.578 1.408a1.916 1.916 0 0 1-1.407.578h-4.513v4.223c0 .65-.204 1.168-.614 1.553-.409.385-.902.577-1.48.577Z" fill="#F4F2EE"/><g clip-path="url(#a)" fill="#F4F2EE"><path d="M15.928 525.773c-8.632-11.467-8.632-27.472 0-38.939 7.436-9.89 7.436-23.722 0-33.612-8.632-11.467-8.632-27.472 0-38.939 7.436-9.89 7.436-23.722 0-33.612-8.632-11.467-8.632-27.473 0-38.939 7.436-9.891 7.436-23.722 0-33.612-8.632-11.467-8.632-27.473 0-38.94 7.436-9.89 7.436-23.722 0-33.612-8.632-11.466-8.632-27.472 0-38.939 7.436-9.89 7.436-23.722 0-33.612-8.632-11.467-8.632-27.472 0-38.939 7.436-9.89 7.436-23.722 0-33.612l3.539-2.652c8.631 11.467 8.631 27.473 0 38.939-7.437 9.891-7.437 23.722 0 33.612 8.631 11.467 8.631 27.473 0 38.94-7.437 9.89-7.437 23.722 0 33.612 8.631 11.466 8.631 27.472 0 38.939-7.437 9.89-7.437 23.722 0 33.612 8.631 11.467 8.631 27.472 0 38.939-7.437 9.89-7.437 23.722 0 33.612 8.631 11.467 8.631 27.473 0 38.939-7.437 9.89-7.437 23.722 0 33.612 8.631 11.467 8.631 27.473 0 38.94-7.437 9.89-7.437 23.721 0 33.612l-3.54 2.651Z"/><path d="M32.69 525.773c-8.632-11.467-8.632-27.472 0-38.939 7.435-9.89 7.435-23.722 0-33.612-8.632-11.467-8.632-27.472 0-38.939 7.435-9.89 7.435-23.722 0-33.612-8.632-11.467-8.632-27.473 0-38.939 7.435-9.891 7.435-23.722 0-33.612-8.632-11.467-8.632-27.473 0-38.94 7.435-9.89 7.435-23.722 0-33.612-8.632-11.466-8.632-27.472 0-38.939 7.435-9.89 7.435-23.722 0-33.612-8.632-11.467-8.632-27.472 0-38.939 7.435-9.89 7.435-23.722 0-33.612l3.538-2.652c8.632 11.467 8.632 27.473 0 38.939-7.436 9.891-7.436 23.722 0 33.612 8.632 11.467 8.632 27.473 0 38.94-7.436 9.89-7.436 23.722 0 33.612 8.632 11.466 8.632 27.472 0 38.939-7.436 9.89-7.436 23.722 0 33.612 8.632 11.467 8.632 27.472 0 38.939-7.436 9.89-7.436 23.722 0 33.612 8.632 11.467 8.632 27.473 0 38.939-7.436 9.89-7.436 23.722 0 33.612 8.632 11.467 8.632 27.473 0 38.94-7.436 9.89-7.436 23.721 0 33.612l-3.539 2.651Z"/><path d="m50.691 522.76-.872.654c-7.207-10.753-6.886-25.149.964-35.577v-.001c7.883-10.484 7.883-25.132 0-35.616v-.001c-8.185-10.873-8.185-26.06 0-36.933v-.001c7.883-10.484 7.883-25.133 0-35.616v-.001c-8.185-10.873-8.185-26.061 0-36.934 7.883-10.484 7.883-25.133 0-35.616v-.001c-8.185-10.873-8.185-26.061 0-36.934v-.001c7.883-10.483 7.883-25.132 0-35.616-8.185-10.873-8.185-26.061 0-36.934v-.001c7.883-10.483 7.883-25.132 0-35.616v-.001c-8.185-10.873-8.185-26.06 0-36.933v-.001c7.547-10.037 7.868-23.891.966-34.253l.872-.653c7.207 10.752 6.886 25.149-.964 35.577-7.883 10.484-7.883 25.133 0 35.616v.001c8.185 10.873 8.185 26.061 0 36.934v.001c-7.883 10.483-7.883 25.132 0 35.616 8.185 10.873 8.185 26.061 0 36.934v.001c-7.883 10.483-7.883 25.132 0 35.616v.001c8.185 10.873 8.185 26.06 0 36.933v.001c-7.883 10.484-7.883 25.133 0 35.616v.001c8.185 10.873 8.185 26.061 0 36.934-7.883 10.484-7.883 25.133 0 35.616v.001c8.185 10.873 8.185 26.061 0 36.934v.001c-7.547 10.036-7.868 23.89-.966 34.252Z" stroke="#F4F2EE" stroke-width="3.335"/></g><circle cx="34.459" cy="579.129" r="32.818" stroke="#F4F2EE" stroke-width="3.282"/><path d="M44.181 589.213c-.529 0-.986-.168-1.371-.505-.361-.361-.566-.818-.614-1.372a1.943 1.943 0 0 1 .397-1.3c.313-.409.758-.637 1.336-.685.77-.073 1.263-.217 1.48-.434.217-.216.325-.589.325-1.119v-14.945c0-1.083-.193-1.805-.578-2.166-.385-.385-1.131-.578-2.238-.578h-2.13a.687.687 0 0 1 .036.217v2.13h2.202c.482 0 .855.156 1.12.469.264.313.396.674.396 1.083 0 .409-.132.77-.397 1.083-.264.289-.637.433-1.119.433h-2.202v1.661h2.852c.481 0 .854.156 1.12.469.264.313.396.674.396 1.083 0 .409-.132.77-.397 1.083-.265.313-.638.47-1.119.47h-9.133c-.457 0-.83-.157-1.12-.47a1.628 1.628 0 0 1-.396-1.083c0-.409.132-.77.397-1.083.289-.313.662-.469 1.119-.469h2.671v-1.661h-1.95c-.48 0-.854-.144-1.118-.433a1.628 1.628 0 0 1-.397-1.083c0-.409.132-.77.397-1.083.264-.313.638-.469 1.119-.469h1.95v-2.13c0-.072.011-.144.035-.217h-1.877c-1.107 0-1.853.193-2.238.578-.361.361-.541 1.083-.541 2.166v5.126c0 1.998-.097 3.755-.29 5.271-.168 1.492-.445 2.852-.83 4.079a22.868 22.868 0 0 1-1.407 3.61c-.241.481-.614.818-1.12 1.011a2 2 0 0 1-1.444-.036c-.529-.217-.866-.566-1.01-1.047a1.99 1.99 0 0 1 .108-1.444c.481-.963.878-1.974 1.191-3.033.337-1.083.59-2.298.758-3.646.169-1.371.253-2.96.253-4.765v-5.92c0-1.974.433-3.345 1.3-4.116.89-.794 2.358-1.191 4.404-1.191h9.205c2.07 0 3.538.397 4.404 1.191.867.771 1.3 2.142 1.3 4.116v16.461c0 1.661-.397 2.864-1.191 3.61-.795.722-2.142 1.083-4.044 1.083Zm-5.812 4.91c-3.345 0-6.112-.241-8.302-.722-2.19-.458-3.935-1.276-5.235-2.455-.337.241-.746.529-1.227.866-.482.313-.939.614-1.372.903-.433.313-.758.541-.975.686-.481.313-1.035.409-1.66.289-.602-.097-1.047-.41-1.336-.939a2.047 2.047 0 0 1-.217-1.588 1.853 1.853 0 0 1 1.011-1.264c.361-.192.866-.445 1.516-.758.674-.337 1.276-.65 1.805-.939v-8.05c0-.577-.096-.975-.288-1.191-.169-.217-.542-.325-1.12-.325h-1.3c-.577 0-1.034-.18-1.37-.541-.338-.361-.506-.807-.506-1.336 0-.53.168-.975.505-1.336.337-.361.794-.541 1.372-.541h2.888c2.527 0 3.79 1.263 3.79 3.79v8.989c.65.65 1.468 1.179 2.455 1.588.987.385 2.25.674 3.79.867 1.54.168 3.466.252 5.776.252 2.022 0 3.983-.024 5.885-.072a134.9 134.9 0 0 0 4.8-.253c.699-.048 1.276.109 1.734.47.481.337.722.818.722 1.444 0 .625-.193 1.131-.578 1.516-.385.385-.975.59-1.769.614h-5.667c-1.011.024-1.962.036-2.852.036h-2.275Zm.506-7.906c-1.276 0-2.286-.132-3.032-.397-.723-.265-1.228-.71-1.517-1.336-.288-.626-.433-1.48-.433-2.563 0-1.083.145-1.937.433-2.563.29-.626.794-1.071 1.517-1.336.745-.264 1.756-.397 3.032-.397 1.3 0 2.31.133 3.032.397.722.265 1.228.71 1.516 1.336.29.626.434 1.48.434 2.563 0 1.083-.145 1.937-.434 2.563-.288.626-.794 1.071-1.516 1.336-.722.265-1.733.397-3.032.397Zm-12.382-16.461c-.41.385-.89.577-1.444.577-.554 0-1.023-.217-1.408-.65a20.243 20.243 0 0 0-1.12-1.263 37.993 37.993 0 0 0-1.407-1.408 17.5 17.5 0 0 0-1.3-1.191c-.385-.337-.565-.77-.541-1.3.024-.529.216-.975.577-1.336a1.99 1.99 0 0 1 1.3-.649c.53-.049 1.023.108 1.48.469.41.361.866.782 1.372 1.263.505.458.986.915 1.444 1.372.481.457.878.855 1.191 1.191.41.434.59.927.542 1.481-.024.553-.253 1.034-.686 1.444Zm12.382 13.429c.674 0 1.107-.073 1.3-.217.216-.169.324-.517.324-1.047 0-.505-.108-.83-.325-.975-.192-.168-.625-.252-1.3-.252-.673 0-1.118.084-1.335.252-.192.145-.289.47-.289.975 0 .53.097.878.29 1.047.216.144.661.217 1.335.217Z" fill="#F4F2EE"/><defs><clipPath id="a"><path fill="#fff" transform="translate(9.448 87.814)" d="M0 0h50.021v437.959H0z"/></clipPath></defs></svg>