<?xml version="1.0" encoding="utf-8"?>
<!-- Generator: Adobe Illustrator 26.5.0, SVG Export Plug-In . SVG Version: 6.00 Build 0)  -->
<svg version="1.1" id="_圖層_2" xmlns="http://www.w3.org/2000/svg" xmlns:xlink="http://www.w3.org/1999/xlink" x="0px" y="0px"
	 viewBox="0 0 160.2 21.1" style="enable-background:new 0 0 160.2 21.1;" xml:space="preserve">
<style type="text/css">
	.st0{fill:#336CF6;}
</style>
<g id="base">
	<g>
		<g>
			<g>
				<path class="st0" d="M5.2,9.8h0.6c1.4,0,2.5,0,2.2,1.8c-0.3,1.8-1.5,1.8-2.8,1.8H4.7L5.2,9.8L5.2,9.8z M0,21.1h3.5l0.7-4.8h2
					c3.1,0,5-1.5,5.5-4.9c0.5-3.3-1.3-4.7-4.2-4.7H2.1L0,21.1z"/>
				<path class="st0" d="M26.4,7.5l-0.9,6h0c0.8-0.9,1.6-1.3,2.6-1.3c1.9,0,2.7,1.4,2.4,3.4l-0.7,4.9H27l0.6-4.1
					c0.1-0.9,0.1-1.9-0.9-1.9s-1.5,1-1.7,1.9l-0.6,4.1h-2.7l2-13L26.4,7.5L26.4,7.5z"/>
				<path class="st0" d="M36.1,14.7c1.1,0,1.6,0.8,1.5,1.8c-0.2,1-0.9,1.8-2,1.8s-1.6-0.8-1.5-1.8C34.3,15.5,35,14.7,36.1,14.7z
					 M36.5,12.2c-2.4,0-4.8,1.6-5.2,4.3s1.5,4.3,3.9,4.3s4.8-1.5,5.2-4.3C40.8,13.7,38.9,12.2,36.5,12.2L36.5,12.2z"/>
				<path class="st0" d="M44.5,13.4L44.5,13.4c0.8-0.9,1.6-1.3,2.6-1.3c1.1,0,2,0.5,2.4,1.5c0.7-1,1.8-1.5,2.8-1.5
					c1.9,0,2.4,1.3,2.1,3.2l-0.8,5.1h-2.7l0.6-3.8c0.1-0.8,0.4-2.2-0.8-2.2c-1.2,0-1.5,1.2-1.6,2.2l-0.6,3.8h-2.7l0.6-3.8
					c0.1-0.9,0.3-2.3-0.9-2.3s-1.4,1.4-1.5,2.3l-0.6,3.8h-2.7l1.2-8.1h2.7L44.5,13.4L44.5,13.4z"/>
				<path class="st0" d="M58,15.3c0.3-0.8,1-1.3,1.8-1.3c0.7,0,1.3,0.5,1.3,1.3L58,15.3L58,15.3z M63.4,16.6
					c0.4-2.8-0.9-4.5-3.5-4.5c-2.5,0-4.5,1.6-4.8,4.3c-0.4,2.8,1.2,4.3,3.8,4.3c1.7,0,3.6-0.9,4.3-2.8h-2.6
					c-0.4,0.5-0.8,0.7-1.4,0.7c-1.1,0-1.6-0.6-1.4-1.8h5.7L63.4,16.6L63.4,16.6z"/>
				<g>
					<path class="st0" d="M22.1,11.7l0.6-4.2c-0.7-0.3-1.4-0.6-2.2-0.7L20,10.2C20.9,10.4,21.6,10.9,22.1,11.7L22.1,11.7z"/>
					<path class="st0" d="M21.4,16.2c-0.7,0.7-1.6,1.2-2.5,1.4l-0.5,3.5c0.8-0.1,1.5-0.3,2.4-0.6L21.4,16.2L21.4,16.2z"/>
				</g>
				<path class="st0" d="M18.3,21.1l0.5-3.5c-0.2,0-0.4,0-0.6,0c-2.1,0-3.2-1.6-2.9-3.7c0.3-2.1,2-3.8,4-3.8c0.2,0,0.4,0,0.6,0.1
					l0.5-3.4c-0.2,0-0.5,0-0.8,0c-1.8,0-3.8,0.8-5.2,2.2c-1.4,1.3-2.4,3.1-2.6,5c-0.3,2,0.1,3.8,1.3,5.2c1.1,1.3,2.7,2,4.5,2
					C17.9,21.1,18.1,21.1,18.3,21.1L18.3,21.1z"/>
			</g>
			<path class="st0" d="M41.6,7.3c0.5,0,0.8,0.5,0.8,1c-0.1,0.5-0.5,1.1-1.1,1.1s-0.8-0.6-0.8-1.1C40.6,7.8,41.1,7.3,41.6,7.3
				L41.6,7.3z M41.2,10c0.9,0,1.6-0.7,1.8-1.6c0.1-0.9-0.4-1.6-1.3-1.6S40.1,7.5,40,8.3C39.8,9.2,40.3,10,41.2,10z"/>
			<path class="st0" d="M45.6,6.7H46l1.3,2.1l0,0l0.3-2.1h0.6l-0.5,3.1h-0.4L46,7.8l0,0l-0.3,2.1h-0.6L45.6,6.7L45.6,6.7z"/>
			<path class="st0" d="M50.9,9.4h0.8l-0.1,0.5h-1.5l0.5-3.1h0.6C51.3,6.8,50.9,9.4,50.9,9.4z"/>
			<path class="st0" d="M54.5,9.9h-0.6l0.5-3.1h0.6L54.5,9.9z"/>
			<path class="st0" d="M57.4,6.7h0.4l1.3,2.1l0,0l0.3-2.1h0.6l-0.5,3.1h-0.4l-1.3-2.2l0,0l-0.3,2.1H57L57.4,6.7L57.4,6.7z"/>
			<path class="st0" d="M63.1,7.3L63,8h1l-0.1,0.5h-1l-0.1,0.8h1l-0.1,0.5h-1.6l0.5-3.1h1.6L64,7.3L63.1,7.3L63.1,7.3z"/>
		</g>
		<g>
			<path class="st0" d="M122.8,14.5c-0.2,1.1-0.6,2.4-1.2,3.8l-1.6-0.5c0.6-1.5,1.1-2.8,1.2-3.8L122.8,14.5L122.8,14.5z M125.5,13.5
				h-4.8c-0.2,0-0.2-0.1-0.2-0.2V0.8c0-0.1,0.1-0.2,0.2-0.2h4.8c0.2,0,0.2,0.1,0.2,0.2v12.4C125.8,13.4,125.7,13.5,125.5,13.5z
				 M124.2,4.4V2.2c0,0,0-0.1-0.1-0.1h-1.9c0,0-0.1,0-0.1,0.1v2.2C122.1,4.4,124.2,4.4,124.2,4.4z M124.2,8.2V5.9h-2v2.2H124.2z
				 M122.1,9.7v2.2c0,0.1,0,0.1,0.1,0.1h1.9c0.1,0,0.1,0,0.1-0.1V9.7H122.1z M124.9,14.2c0.5,0.8,0.9,1.9,1.2,3.1l-1.5,0.5
				c-0.4-1.3-0.8-2.3-1.2-3C123.5,14.7,124.9,14.2,124.9,14.2z M129,18.2h-1.6v-2.7h-1.1v-1.4h1.1V9.1c0-0.2,0.1-0.4,0.4-0.4h4.3
				V7.6h-5.5V6.2h3.1V5.1h-2.3V3.8h2.3v-1h-2.9V1.3h2.9V0.1h1.6v1.3h3.4V0h1.6v1.4h2.8v1.4h-2.8v1h2.4v1.4h-2.4v1.1h3.1v1.4h-5.7
				v1.1h4.4c0.3,0,0.4,0.1,0.4,0.4v5.1h1v1.4h-1v1c0,0.6-0.2,1.1-0.8,1.4c-0.7,0.4-1.8,0.5-3.5,0.2l-0.1-1.7c1.2,0.3,2,0.4,2.3,0.2
				c0.3-0.2,0.4-0.4,0.4-0.7v-0.4H129L129,18.2L129,18.2z M132.1,10.1h-2.9c-0.1,0-0.1,0-0.1,0.1v1.3h3V10.1z M132.1,14.2v-1.3h-3
				v1.3H132.1z M134.7,2.7h-3.4v1h3.4V2.7z M134.7,6.2V5.1h-3.4v1.1H134.7z M133.7,11.5h3.1v-1.3c0-0.1-0.1-0.1-0.1-0.1h-3
				C133.7,10.1,133.7,11.5,133.7,11.5z M136.8,14.2v-1.3h-3.1v1.3H136.8z"/>
			<path class="st0" d="M144.6,5.4h-1.4c-0.3,1.7-0.5,2.9-0.7,3.5l-1.7-0.2c0.7-2,1-4.3,1-6.9v-1h1.7v1c0,0.5-0.1,1.1-0.1,1.9h1.2V0
				h1.8v3.7h1.8v1.7h-1.8v4.8c0.6-0.4,1.1-0.7,1.6-0.9l1,1.4c-0.8,0.5-1.6,0.9-2.6,1.4v6.4h-1.8v-5.6c-0.9,0.4-1.8,0.7-2.8,1.1
				l-1-1.5c1.5-0.5,2.8-1,3.8-1.4L144.6,5.4L144.6,5.4z M154.2,4c-0.1,0.8-0.2,1.6-0.4,2.3c-0.6,2.7-2.3,5.4-5.1,8.1l-1.5-0.9
				c2-1.9,3.4-3.6,4.1-5.1c0.5-1,0.9-2.5,1.1-4.4H151c-0.6,1.7-1.3,3.1-2,4.1l-1.7-0.6c1.6-2.3,2.6-4.8,2.9-7.5l1.8,0.2
				c-0.1,0.7-0.3,1.4-0.4,2h8c0.1,0,0.2,0,0.4,0.1c0.2,0.1,0.3,0.4,0.3,0.9c0,2.9-0.1,5.5-0.1,7.7c-0.1,3.7-0.8,6-2.1,6.9
				c-0.8,0.5-2.3,0.5-4.6-0.1l-0.1-2c1.9,0.6,3.1,0.8,3.6,0.4c0.4-0.3,0.7-0.8,1-1.5c0.3-0.8,0.4-2.1,0.4-4c0.1-4.2,0.1-6.4,0-6.6
				c-0.1-0.1-0.1-0.1-0.2-0.1h-0.9c-0.1,2.6-0.7,5.3-1.9,8c-1.2,2.2-2.9,4.2-5.2,5.7l-1.4-1.2c4.3-2.4,6.5-6.5,6.7-12.4H154.2
				L154.2,4z"/>
		</g>
		<g>
			<g>
				<polygon class="st0" points="118.3,13.9 100.1,13.9 100.3,12.9 118.6,12.9 				"/>
				<polygon class="st0" points="117.8,16 99.5,16 99.8,14.9 118.1,14.9 				"/>
				<polygon class="st0" points="117.2,18 99,18 99.2,17 117.5,17 				"/>
			</g>
			<path class="st0" d="M79,4c0.1-0.3,0.1-0.6-0.1-0.8S78.5,3,78.2,3c-0.4,0-0.7,0.1-0.9,0.2S77,3.6,76.9,4l-0.6,2.6h-6.2l0.3-1.2
				c0.5-1.9,1.4-3.2,2.8-4s3.3-1.2,5.9-1.2c2.4,0,4.2,0.4,5.2,1.2c1,0.8,1.3,1.9,0.9,3.5C84.6,6.6,82.5,9,78.7,12
				c-0.7,0.6-1.3,1-1.7,1.3c-1.4,1.1-2.7,2.2-3.2,2.9c-0.4,0.6-0.6,1-0.6,1h8.6l-1,3.6H66.1l0.9-3.3c0.2-0.8,0.7-1.6,1.3-2.5
				c0.7-0.8,1.9-1.9,3.7-3.3c0.4-0.3,1-0.8,1.7-1.3c3-2.3,4.6-3.9,4.8-4.8L79,4L79,4z"/>
			<polygon class="st0" points="89,20.8 90.3,16 81.3,16 82.1,12.9 91.1,0.6 99.6,0.6 96.5,11.9 91.4,11.9 94.2,3.8 93.6,3.8 
				87.7,12.9 99.3,12.9 98.4,16 95.4,16 94.2,20.8 			"/>
			<path class="st0" d="M100.6,11.9l3-11.3h5.5L107.7,6h0.1c0.6-0.6,1.2-1,1.9-1.3c0.7-0.3,1.5-0.4,2.4-0.4c1.2,0,2.1,0.2,2.5,0.7
				c0.5,0.5,0.6,1.2,0.3,2.1l-1.3,4.8h-5.6l1-3.6c0.1-0.4,0.1-0.6,0-0.8c-0.1-0.1-0.4-0.2-0.7-0.2c-0.3,0-0.6,0.1-0.8,0.2
				c-0.2,0.2-0.3,0.4-0.4,0.7l-1,3.6L100.6,11.9L100.6,11.9z"/>
		</g>
	</g>
</g>
</svg>
