<?xml version="1.0" encoding="UTF-8"?><svg id="_圖層_2" xmlns="http://www.w3.org/2000/svg" viewBox="0 0 160 80"><defs><style>.cls-1{fill:none;}.cls-2{fill:#336cf6;fill-rule:evenodd;}</style></defs><g id="OBJECTS"><path class="cls-2" d="M153.06,34.39c-2.15,4.79-8.48,14.97-19,30.52h20.55v12.8h-41.24v-10.71c12.23-19.98,19.49-32.34,21.79-37.09,2.3-4.75,3.46-8.45,3.46-11.11,0-2.04-.35-3.56-1.04-4.57-.7-1-1.76-1.51-3.18-1.51s-2.49,.56-3.18,1.67c-.7,1.11-1.04,3.33-1.04,6.63v7.14h-16.79v-2.74c0-4.21,.22-7.52,.65-9.95s1.5-4.82,3.2-7.17c1.7-2.35,3.91-4.13,6.63-5.33,2.72-1.21,5.98-1.81,9.79-1.81,7.45,0,13.09,1.85,16.91,5.54,3.82,3.7,5.73,8.37,5.73,14.03,0,4.3-1.07,8.85-3.22,13.64Zm-45.91,25c-1.53,.68-3.53,1.02-6,1.02h-3.03v17.51h-11.31V34.43h11.39c3.08,0,5.45,.24,7.1,.72,1.66,.48,2.9,1.18,3.73,2.1,.83,.91,1.4,2.02,1.69,3.32,.3,1.3,.44,3.31,.44,6.03v3.79c0,2.77-.29,4.8-.86,6.07-.57,1.27-1.62,2.25-3.15,2.93Zm-5.44-13.94c0-1.49-.23-2.45-.7-2.9-.47-.45-1.43-.67-2.9-.67v11.06c.32,.02,.6,.03,.83,.03,1.04,0,1.76-.26,2.16-.76,.4-.51,.6-1.57,.6-3.18v-3.57Zm-39.36-11.01h18.85v8.7h-7.55v8.24h7.06v8.27h-7.06v9.56h8.3v8.7h-19.6V34.43Zm-11.24,43.48h-11.31V43.13h-6.69v-8.7h24.71v8.7h-6.71v34.78ZM18.08,50.17c5.03,2.99,8.2,5.44,9.51,7.36,1.31,1.92,1.96,5,1.96,9.26,0,3.1-.36,5.38-1.09,6.85-.73,1.47-2.13,2.7-4.2,3.69-2.08,.99-4.49,1.49-7.25,1.49-3.03,0-5.61-.57-7.75-1.72-2.14-1.15-3.54-2.61-4.2-4.38-.66-1.77-.99-4.29-.99-7.55v-2.85H14.56v5.29c0,1.63,.15,2.68,.44,3.14,.3,.47,.82,.7,1.57,.7s1.31-.3,1.68-.89c.37-.59,.55-1.47,.55-2.63,0-2.56-.35-4.23-1.05-5.02-.72-.79-2.48-2.1-5.29-3.95-2.81-1.86-4.67-3.21-5.59-4.06-.91-.84-1.67-2-2.27-3.49-.6-1.49-.9-3.38-.9-5.69,0-3.33,.43-5.76,1.28-7.31,.85-1.54,2.22-2.74,4.12-3.61,1.9-.87,4.19-1.3,6.88-1.3,2.94,0,5.44,.47,7.51,1.42,2.07,.95,3.44,2.14,4.11,3.58,.67,1.44,1.01,3.89,1.01,7.35v1.72h-10.5v-3.22c0-1.5-.13-2.46-.4-2.87-.27-.41-.72-.62-1.34-.62-.68,0-1.2,.28-1.54,.83-.35,.56-.52,1.4-.52,2.53,0,1.45,.2,2.54,.59,3.28,.38,.74,1.44,1.62,3.19,2.66Z"/><rect class="cls-1" width="160" height="80"/></g></svg>