<?xml version="1.0" encoding="UTF-8"?><svg id="_圖層_2" xmlns="http://www.w3.org/2000/svg" viewBox="0 0 160 80"><defs><style>.cls-1{fill:none;}.cls-2{fill:#336cf6;fill-rule:evenodd;}</style></defs><g id="OBJECTS"><path class="cls-2" d="M148.46,34.99c2.84,.96,4.96,2.53,6.35,4.71,1.39,2.18,2.09,7.29,2.09,15.34,0,5.97-.68,10.61-2.04,13.9-1.36,3.29-3.71,5.8-7.05,7.52-3.34,1.72-7.62,2.58-12.85,2.58-5.94,0-10.6-1-13.99-2.99-3.39-2-5.61-4.44-6.68-7.33-1.07-2.89-1.6-7.91-1.6-15.05v-5.94h18.74v12.2c0,3.25,.19,5.31,.58,6.19,.39,.88,1.24,1.32,2.57,1.32,1.45,0,2.41-.56,2.88-1.67,.46-1.11,.7-4.02,.7-8.72v-5.19c0-2.88-.32-4.98-.97-6.31-.65-1.33-1.61-2.2-2.88-2.62-1.27-.42-3.73-.66-7.38-.72v-10.9c4.45,0,7.21-.17,8.26-.51,1.05-.34,1.81-1.08,2.27-2.23,.46-1.14,.7-2.94,.7-5.38v-4.17c0-2.63-.27-4.36-.81-5.19-.54-.84-1.38-1.25-2.53-1.25-1.3,0-2.19,.44-2.67,1.32-.48,.88-.72,2.76-.72,5.64v6.17h-18.74v-6.4c0-7.17,1.64-12.02,4.92-14.54,3.28-2.52,8.49-3.78,15.63-3.78,8.94,0,15,1.75,18.18,5.24,3.18,3.49,4.78,8.34,4.78,14.56,0,4.2-.57,7.24-1.72,9.11-1.15,1.87-3.15,3.58-6.03,5.12Zm-41.92,24.23c-1.53,.68-3.53,1.02-6,1.02h-3.03v17.51h-11.31V34.27h11.39c3.08,0,5.45,.24,7.1,.72,1.66,.48,2.9,1.18,3.73,2.1,.83,.91,1.4,2.02,1.69,3.32,.3,1.3,.44,3.31,.44,6.03v3.79c0,2.77-.29,4.8-.86,6.07-.57,1.27-1.62,2.25-3.15,2.93Zm-5.44-13.94c0-1.49-.23-2.45-.7-2.9-.47-.45-1.43-.67-2.9-.67v11.06c.32,.02,.6,.03,.83,.03,1.04,0,1.76-.26,2.16-.76,.4-.51,.6-1.57,.6-3.18v-3.57Zm-39.36-11.01h18.85v8.7h-7.55v8.24h7.06v8.27h-7.06v9.56h8.3v8.7h-19.6V34.27Zm-11.24,43.48h-11.31V42.97h-6.69v-8.7h24.71v8.7h-6.71v34.78ZM17.46,50.01c5.03,2.99,8.2,5.44,9.51,7.36,1.31,1.92,1.96,5,1.96,9.26,0,3.1-.36,5.38-1.09,6.85-.73,1.47-2.13,2.7-4.2,3.69-2.08,.99-4.49,1.49-7.25,1.49-3.03,0-5.61-.57-7.75-1.72-2.14-1.15-3.54-2.61-4.2-4.38-.66-1.77-.99-4.29-.99-7.55v-2.85H13.95v5.29c0,1.63,.15,2.68,.44,3.14,.3,.47,.82,.7,1.57,.7s1.31-.3,1.68-.89c.37-.59,.55-1.47,.55-2.63,0-2.56-.35-4.23-1.05-5.02-.72-.79-2.48-2.1-5.29-3.95-2.81-1.86-4.67-3.21-5.59-4.06-.91-.84-1.67-2-2.27-3.49-.6-1.49-.9-3.38-.9-5.69,0-3.33,.43-5.76,1.28-7.31,.85-1.54,2.22-2.74,4.12-3.61,1.9-.87,4.19-1.3,6.88-1.3,2.94,0,5.44,.47,7.51,1.42,2.07,.95,3.44,2.14,4.11,3.58,.67,1.44,1.01,3.89,1.01,7.35v1.72h-10.5v-3.22c0-1.5-.13-2.46-.4-2.87-.27-.41-.72-.62-1.34-.62-.68,0-1.2,.28-1.54,.83-.35,.56-.52,1.4-.52,2.53,0,1.45,.2,2.54,.59,3.28,.38,.74,1.44,1.62,3.19,2.66Z"/><rect class="cls-1" width="160" height="80"/></g></svg>