<svg width="545" height="125" viewBox="0 0 545 125" fill="none" xmlns="http://www.w3.org/2000/svg">
<circle cx="58.7814" cy="62.1818" r="55.6237" stroke="#1F1F1F" stroke-width="5.56237"/>
<circle cx="201.178" cy="62.1818" r="55.6237" stroke="#1F1F1F" stroke-width="5.56237"/>
<circle cx="343.575" cy="62.1818" r="55.6237" stroke="#1F1F1F" stroke-width="5.56237"/>
<circle cx="485.972" cy="62.1818" r="55.6237" stroke="#1F1F1F" stroke-width="5.56237"/>
<line x1="114.961" y1="59.9566" x2="142.773" y2="59.9566" stroke="#1F1F1F" stroke-width="5.56237"/>
<line x1="257.358" y1="59.9566" x2="285.17" y2="59.9566" stroke="#1F1F1F" stroke-width="5.56237"/>
<line x1="399.755" y1="59.9566" x2="427.566" y2="59.9566" stroke="#1F1F1F" stroke-width="5.56237"/>
<path d="M57.5688 84.9005C54.1015 84.9005 51.2258 84.6557 48.9415 84.1662C46.6572 83.7175 44.842 82.9017 43.496 81.7188C42.1907 80.4951 41.2525 78.8227 40.6814 76.7015C40.1103 74.5804 39.8248 71.8678 39.8248 68.5638V52.2883C39.8248 48.9842 40.1103 46.2717 40.6814 44.1505C41.2525 42.0294 42.1907 40.3774 43.496 39.1945C44.842 37.9707 46.6572 37.1345 48.9415 36.6858C51.2258 36.1964 54.1015 35.9516 57.5688 35.9516H62.2189C65.6861 35.9516 68.5619 36.1964 70.8461 36.6858C73.1304 37.1345 74.9252 37.9707 76.2305 39.1945C77.5766 40.3774 78.5352 42.0294 79.1063 44.1505C79.6773 46.2717 79.9629 48.9842 79.9629 52.2883V68.5638C79.9629 71.8678 79.6773 74.5804 79.1063 76.7015C78.5352 78.8227 77.5766 80.4951 76.2305 81.7188C74.9252 82.9017 73.1304 83.7175 70.8461 84.1662C68.5619 84.6557 65.6861 84.9005 62.2189 84.9005H57.5688ZM57.5688 78.0476H62.2189C65.115 78.0476 67.2769 77.8233 68.7046 77.3746C70.1731 76.8851 71.1521 75.9673 71.6416 74.6212C72.1718 73.2751 72.437 71.256 72.437 68.5638V63.3018H47.3507V68.5638C47.3507 71.256 47.5954 73.2751 48.0849 74.6212C48.6152 75.9673 49.6146 76.8851 51.083 77.3746C52.5515 77.8233 54.7134 78.0476 57.5688 78.0476ZM47.3507 56.6325H72.437V52.2883C72.437 49.5961 72.1718 47.577 71.6416 46.2309C71.1521 44.844 70.1731 43.9262 68.7046 43.4775C67.2769 43.0288 65.115 42.8044 62.2189 42.8044H57.5688C54.7134 42.8044 52.5515 43.0288 51.083 43.4775C49.6146 43.9262 48.6152 44.844 48.0849 46.2309C47.5954 47.577 47.3507 49.5961 47.3507 52.2883V56.6325Z" fill="#1F1F1F"/>
<path d="M202.291 88.9388C201.271 88.9388 200.414 88.6124 199.721 87.9598C199.027 87.3071 198.681 86.4301 198.681 85.3288V78.17H191.277C190.38 78.17 189.584 77.8437 188.891 77.191C188.238 76.4976 187.912 75.7022 187.912 74.8048C187.912 73.8666 188.238 73.0712 188.891 72.4185C189.584 71.7659 190.38 71.4395 191.277 71.4395H198.681V56.7549C197.008 59.2431 195.132 61.7517 193.051 64.2808C190.971 66.8098 188.768 69.2164 186.443 71.5007C184.159 73.785 181.875 75.8449 179.591 77.6805C178.775 78.3332 177.816 78.6799 176.715 78.7207C175.613 78.7207 174.716 78.2924 174.023 77.4358C173.37 76.62 173.125 75.7226 173.288 74.7436C173.492 73.7646 174.023 72.9692 174.879 72.3573C177.327 70.5217 179.815 68.3802 182.344 65.9328C184.914 63.4446 187.341 60.8543 189.625 58.1622C191.909 55.4292 193.847 52.839 195.438 50.3915H177.633C176.735 50.3915 175.96 50.0652 175.307 49.4125C174.655 48.7599 174.329 47.9849 174.329 47.0875C174.329 46.1493 174.655 45.3743 175.307 44.7624C175.96 44.1098 176.735 43.7834 177.633 43.7834H198.681V35.4009C198.681 34.3404 199.027 33.4838 199.721 32.8311C200.414 32.1377 201.271 31.791 202.291 31.791C203.27 31.791 204.106 32.1377 204.799 32.8311C205.493 33.4838 205.839 34.3404 205.839 35.4009V43.7834H226.887C227.826 43.7834 228.601 44.1098 229.212 44.7624C229.865 45.3743 230.191 46.1493 230.191 47.0875C230.191 47.9849 229.865 48.7599 229.212 49.4125C228.601 50.0652 227.826 50.3915 226.887 50.3915H209.266C210.897 52.9205 212.876 55.5312 215.201 58.2233C217.526 60.8747 219.994 63.4242 222.604 65.8716C225.215 68.319 227.764 70.5014 230.253 72.4185C231.028 72.9896 231.415 73.7646 231.415 74.7436C231.456 75.7226 231.191 76.5588 230.62 77.2522C229.967 78.0272 229.131 78.4963 228.111 78.6595C227.091 78.8227 226.153 78.5575 225.297 77.8641C223.094 76.0285 220.83 73.9686 218.505 71.6843C216.18 69.4 213.936 66.973 211.774 64.4031C209.612 61.7925 207.634 59.1411 205.839 56.4489V71.4395H213.488C214.426 71.4395 215.221 71.7659 215.874 72.4185C216.527 73.0712 216.853 73.8666 216.853 74.8048C216.853 75.7022 216.527 76.4976 215.874 77.191C215.221 77.8437 214.426 78.17 213.488 78.17H205.839V85.3288C205.839 86.4301 205.493 87.3071 204.799 87.9598C204.106 88.6124 203.27 88.9388 202.291 88.9388Z" fill="#1F1F1F"/>
<path d="M345.483 78.6595C342.179 78.6595 339.609 78.3536 337.773 77.7417C335.938 77.1298 334.653 76.0489 333.919 74.4988C333.225 72.9488 332.878 70.7869 332.878 68.0131V58.101C332.878 55.6535 333.144 53.6956 333.674 52.2271C334.204 50.7586 335.142 49.6573 336.488 48.9231C337.834 48.1888 339.69 47.7401 342.056 47.577L342.607 43.9058H319.662C318.765 43.9058 318.031 43.5999 317.459 42.988C316.929 42.3761 316.664 41.6623 316.664 40.8465C316.664 40.0307 316.929 39.3168 317.459 38.705C318.031 38.0931 318.765 37.7872 319.662 37.7872H343.464L343.892 34.7891C344.096 33.6061 344.585 32.7495 345.36 32.2193C346.176 31.6482 347.155 31.4238 348.297 31.5462C349.358 31.6278 350.214 32.0561 350.867 32.8311C351.52 33.6061 351.744 34.5443 351.54 35.6457L351.234 37.7872H369.59C370.528 37.7872 371.262 38.0931 371.793 38.705C372.323 39.3168 372.588 40.0307 372.588 40.8465C372.588 41.6623 372.323 42.3761 371.793 42.988C371.262 43.5999 370.528 43.9058 369.59 43.9058H350.255L349.705 47.4546H352.03C355.334 47.4546 357.883 47.7605 359.678 48.3724C361.513 48.9842 362.778 50.0652 363.471 51.6152C364.206 53.1653 364.573 55.3272 364.573 58.101V68.0131C364.573 70.7869 364.206 72.9488 363.471 74.4988C362.778 76.0489 361.513 77.1298 359.678 77.7417C357.883 78.3536 355.334 78.6595 352.03 78.6595H345.483ZM335.509 87.9598C331.593 87.9598 328.595 87.5519 326.515 86.7361C324.435 85.961 322.987 84.6557 322.171 82.8202C321.396 80.9438 321.008 78.4555 321.008 75.3554V51.9212C321.008 50.8606 321.355 50.004 322.048 49.3514C322.742 48.6579 323.578 48.3112 324.557 48.3112C325.577 48.3112 326.433 48.6579 327.127 49.3514C327.82 50.004 328.167 50.8606 328.167 51.9212V75.2331C328.167 76.8647 328.371 78.1496 328.779 79.0878C329.187 79.9852 329.921 80.6175 330.982 80.9846C332.083 81.3109 333.613 81.4741 335.571 81.4741H368.795C369.774 81.4741 370.549 81.8004 371.12 82.453C371.691 83.0649 371.976 83.8195 371.976 84.7169C371.976 85.6143 371.691 86.3689 371.12 86.9808C370.549 87.6335 369.774 87.9598 368.795 87.9598H335.509ZM340.343 64.6479H357.169V61.405H340.343V64.6479ZM346.095 72.9692H351.357C353.6 72.9692 355.089 72.7856 355.823 72.4185C356.598 72.0106 357.026 71.0928 357.108 69.6651H340.343C340.425 71.0928 340.833 72.0106 341.567 72.4185C342.342 72.7856 343.851 72.9692 346.095 72.9692ZM340.343 56.3266H357.108C356.986 54.9397 356.537 54.0627 355.762 53.6956C355.028 53.3285 353.559 53.1449 351.357 53.1449H346.095C343.892 53.1449 342.403 53.3285 341.628 53.6956C340.894 54.0627 340.465 54.9397 340.343 56.3266Z" fill="#1F1F1F"/>
<path d="M485.677 88.8776C484.739 88.8776 483.923 88.5512 483.229 87.8986C482.577 87.2867 482.25 86.4709 482.25 85.4512V63.2406H476.009C475.969 68.5434 475.132 73.1324 473.501 77.0075C471.869 80.8826 469.197 84.3294 465.485 87.3479C464.67 88.0006 463.711 88.3065 462.61 88.2657C461.549 88.2249 460.672 87.7762 459.979 86.9196C459.367 86.1854 459.122 85.3696 459.244 84.4722C459.408 83.5748 459.897 82.7998 460.713 82.1471C463.731 79.7405 465.873 77.0279 467.137 74.0094C468.402 70.9501 469.055 67.3605 469.095 63.2406H462.242C461.345 63.2406 460.55 62.9143 459.856 62.2616C459.204 61.609 458.877 60.834 458.877 59.9366C458.877 58.9984 459.204 58.2029 459.856 57.5503C460.55 56.8976 461.345 56.5713 462.242 56.5713H469.095V51.5541C468.32 51.758 467.525 51.962 466.709 52.1659C465.934 52.3291 465.179 52.5126 464.445 52.7166C461.998 53.3692 460.488 52.6554 459.917 50.5751C459.632 49.6369 459.734 48.8007 460.223 48.0665C460.754 47.3322 461.549 46.8427 462.61 46.598C463.915 46.3125 465.383 45.9453 467.015 45.4966C468.687 45.0479 470.299 44.5584 471.849 44.0282C473.44 43.4979 474.745 43.0084 475.765 42.5597C476.703 42.1518 477.559 42.0702 478.334 42.315C479.15 42.5597 479.762 43.0696 480.17 43.8446C480.619 44.742 480.659 45.5986 480.292 46.4144C479.966 47.2302 479.436 47.8013 478.702 48.1276C478.294 48.3316 477.845 48.5355 477.355 48.7395C476.907 48.9027 476.458 49.0862 476.009 49.2902V56.5713H482.25V46.0473C482.25 44.9868 482.577 44.1505 483.229 43.5387C483.923 42.9268 484.739 42.6209 485.677 42.6209C486.656 42.6209 487.472 42.9268 488.124 43.5387C488.818 44.1505 489.164 44.9868 489.164 46.0473V56.5713H489.531C492.224 56.5713 494.324 56.8569 495.834 57.4279C497.384 57.999 498.485 58.978 499.138 60.3649C499.831 61.711 500.239 63.5873 500.361 65.994C500.525 69.0941 501.136 71.8678 502.197 74.3153C503.258 76.7627 504.685 78.8227 506.48 80.4951C507.5 81.4741 508.275 81.3721 508.805 80.1892C509.009 79.7812 509.193 79.3733 509.356 78.9654C509.56 78.5575 509.723 78.2108 509.845 77.9253C509.927 77.7213 510.029 77.5378 510.151 77.3746C510.314 77.1706 510.477 76.9871 510.641 76.8239C509.784 77.1502 508.948 77.0891 508.132 76.6404C507.439 76.2732 506.664 75.8653 505.807 75.4166C504.991 74.9271 504.237 74.5192 503.543 74.1929C502.809 73.8666 502.299 73.3159 502.013 72.5409C501.769 71.7659 501.809 71.0112 502.136 70.277C502.381 69.8283 502.686 69.4612 503.054 69.1757C502.238 69.0533 501.626 68.625 501.218 67.8907C500.769 67.1973 500.627 66.4835 500.79 65.7492C500.953 64.9742 501.361 64.3623 502.013 63.9137C502.584 63.5057 503.339 62.9755 504.277 62.3228C505.256 61.6294 506.092 61.0175 506.786 60.4872C506.256 60.2833 505.705 60.0181 505.134 59.6918C504.563 59.3655 503.971 58.978 503.36 58.5293C501.402 56.9384 499.668 54.8581 498.159 52.2883C496.69 49.7185 495.691 47.0671 495.161 44.3341C494.875 42.9064 494.467 41.9478 493.937 41.4584C493.447 40.9281 492.428 40.6629 490.878 40.6629H464.629C463.772 40.6629 463.038 40.357 462.426 39.7451C461.814 39.0925 461.508 38.3379 461.508 37.4813C461.508 36.6247 461.814 35.8904 462.426 35.2786C463.038 34.6667 463.772 34.3608 464.629 34.3608H490.878C493.203 34.3608 495.059 34.6259 496.445 35.1562C497.873 35.6865 498.954 36.5635 499.688 37.7872C500.463 39.0109 501.034 40.6629 501.402 42.7433C501.809 44.8644 502.483 46.7611 503.421 48.4336C504.359 50.106 505.623 51.5949 507.214 52.9002C507.745 53.3081 508.152 53.4712 508.438 53.3896C508.764 53.3081 509.07 52.9817 509.356 52.4107C509.519 52.0435 509.682 51.656 509.845 51.2481C510.049 50.7994 510.212 50.4527 510.335 50.208C509.764 50.208 509.233 50.0856 508.744 49.8408C508.05 49.4737 507.296 49.0658 506.48 48.6171C505.664 48.1276 504.889 47.7197 504.155 47.3934C503.461 47.0671 502.972 46.5164 502.686 45.7414C502.401 44.9664 502.442 44.2321 502.809 43.5387C502.931 43.2124 503.135 42.9064 503.421 42.6209C502.809 42.4169 502.319 42.0294 501.952 41.4584C501.504 40.7649 501.361 40.0307 501.524 39.2557C501.687 38.4806 502.095 37.8892 502.748 37.4813C503.4 37.0326 504.237 36.4411 505.256 35.7069C506.317 34.9318 507.173 34.2996 507.826 33.8101C508.479 33.3206 509.213 33.137 510.029 33.2594C510.885 33.3818 511.558 33.7897 512.048 34.4831C512.537 35.1358 512.741 35.8496 512.66 36.6247C512.619 37.3997 512.272 38.0319 511.62 38.5214C511.008 39.0109 510.212 39.6024 509.233 40.2958C508.254 40.9893 507.418 41.5603 506.725 42.009C506.725 42.009 506.806 42.0498 506.969 42.1314C507.622 42.4169 508.438 42.8248 509.417 43.3551C510.437 43.8854 511.273 44.3137 511.926 44.64C512.619 45.0479 513.068 45.6394 513.272 46.4144C513.476 47.1895 513.374 47.9237 512.966 48.6171C513.496 48.6171 513.945 48.6987 514.312 48.8619C515.087 49.229 515.617 49.7797 515.903 50.5139C516.229 51.2073 516.229 51.9416 515.903 52.7166C515.658 53.2877 515.352 53.9403 514.985 54.6745C514.659 55.368 514.312 56.0614 513.945 56.7549C512.966 58.5089 511.905 59.6918 510.763 60.3037C511.008 60.5076 511.191 60.7116 511.314 60.9155C511.803 61.5682 512.007 62.282 511.926 63.057C511.885 63.8321 511.538 64.4643 510.885 64.9538C510.233 65.4841 509.376 66.1367 508.316 66.9118C507.255 67.646 506.378 68.2375 505.685 68.6862C505.766 68.727 505.868 68.7677 505.991 68.8085C506.113 68.8085 506.215 68.8493 506.296 68.9309C506.99 69.2164 507.826 69.6244 508.805 70.1546C509.825 70.6849 510.641 71.1132 511.253 71.4395C512.028 71.8474 512.497 72.4593 512.66 73.2751C512.864 74.0501 512.741 74.7844 512.293 75.4778C512.13 75.7634 511.885 76.0489 511.558 76.3344C512.415 76.0081 513.251 76.0285 514.067 76.3956C514.883 76.8035 515.454 77.395 515.78 78.17C516.107 78.945 516.107 79.7405 515.78 80.5563C515.495 81.2089 515.148 81.9432 514.74 82.759C514.332 83.534 513.904 84.3294 513.455 85.1452C512.191 87.3887 510.6 88.6124 508.683 88.8164C506.806 89.0203 504.808 88.1841 502.686 86.3078C500.443 84.3906 498.526 81.8616 496.935 78.7207C495.385 75.539 494.447 71.6639 494.12 67.0953C493.998 65.6269 493.631 64.6275 493.019 64.0972C492.448 63.5261 491.285 63.2406 489.531 63.2406H489.164V85.4512C489.164 86.4709 488.818 87.2867 488.124 87.8986C487.472 88.5512 486.656 88.8776 485.677 88.8776Z" fill="#1F1F1F"/>
</svg>
