<svg width="70" height="614" viewBox="0 0 70 614" fill="none" xmlns="http://www.w3.org/2000/svg">
<circle cx="34.896" cy="34.7527" r="32.8178" stroke="#1F1F1F" stroke-width="3.28178"/>
<path d="M31.1536 38.5561V42.4188H52.0914V38.5561H31.1536ZM41.803 21.6976H46.1711V25.8852H41.803V21.6976ZM37.9765 18.2681V29.3507H50.2503V18.2681H37.9765ZM32.7059 20.3619V36.354H36.4964V20.3619H32.7059ZM34.6914 31.2279V34.9823H45.5213V40.325H49.6005V31.2279H34.6914ZM39.0595 35.9209C38.6263 41.7329 37.6516 45.4872 29.9985 47.5088C30.7926 48.2669 31.8395 49.7831 32.2366 50.7939C41.0449 48.1586 42.5972 43.213 43.1748 35.9209H39.0595ZM43.3192 40.3611L39.6371 40.8665C41.2976 46.137 44.1495 49.4221 49.8171 50.7939C50.3586 49.6026 51.5138 47.8698 52.4524 47.0034C47.5068 46.2092 44.6549 43.8989 43.3192 40.3611ZM18.2661 24.0802V28.0511H29.2404V24.0802H18.2661ZM22.5258 16.8964C21.5512 24.008 19.8545 33.3578 18.4466 38.9532L21.9121 41.0109C23.5005 34.4769 25.3777 24.9105 26.6412 17.2935L22.5258 16.8964ZM19.9989 38.0507C23.4644 40.8665 27.7964 44.9819 29.7097 47.7615L32.4893 44.2599C30.5039 41.5524 25.9914 37.6897 22.5619 35.0184L19.9989 38.0507ZM27.7242 24.0802V24.8383C27.2188 36.4623 24.3308 44.2599 18.4105 47.3283C19.2769 48.1947 20.3599 49.747 20.9375 50.83C27.9408 46.5341 31.0092 38.6644 31.659 24.2968L29.1682 24.008L28.4462 24.0802H27.7242Z" fill="#1F1F1F"/>
<g clip-path="url(#clip0_95_63316)">
<path d="M16.3651 526.067C7.73344 514.601 7.73344 498.595 16.3651 487.128C23.8013 477.238 23.8013 463.406 16.3651 453.516C7.73344 442.049 7.73344 426.044 16.3651 414.577C23.8013 404.687 23.8013 390.855 16.3651 380.965C7.73344 369.498 7.73344 353.493 16.3651 342.026C23.8013 332.136 23.8013 318.304 16.3651 308.414C7.73344 296.947 7.73344 280.941 16.3651 269.475C23.8013 259.584 23.8013 245.753 16.3651 235.863C7.73344 224.396 7.73344 208.39 16.3651 196.923C23.8013 187.033 23.8013 173.201 16.3651 163.311C7.73344 151.845 7.73344 135.839 16.3651 124.372C23.8013 114.482 23.8013 100.65 16.3651 90.7601L19.9039 88.1084C28.5355 99.5752 28.5355 115.581 19.9039 127.048C12.4677 136.938 12.4677 150.77 19.9039 160.66C28.5355 172.126 28.5355 188.132 19.9039 199.599C12.4677 209.489 12.4677 223.321 19.9039 233.211C28.5355 244.678 28.5355 260.683 19.9039 272.15C12.4677 282.04 12.4677 295.872 19.9039 305.762C28.5355 317.229 28.5355 333.235 19.9039 344.701C12.4677 354.591 12.4677 368.423 19.9039 378.313C28.5355 389.78 28.5355 405.786 19.9039 417.253C12.4677 427.143 12.4677 440.974 19.9039 450.865C28.5355 462.331 28.5355 478.337 19.9039 489.804C12.4677 499.694 12.4677 513.526 19.9039 523.416L16.3651 526.067Z" fill="#1F1F1F"/>
<path d="M33.1266 526.067C24.4949 514.601 24.4949 498.595 33.1266 487.128C40.5627 477.238 40.5627 463.406 33.1266 453.516C24.4949 442.049 24.4949 426.044 33.1266 414.577C40.5627 404.687 40.5627 390.855 33.1266 380.965C24.4949 369.498 24.4949 353.493 33.1266 342.026C40.5627 332.136 40.5627 318.304 33.1266 308.414C24.4949 296.947 24.4949 280.941 33.1266 269.475C40.5627 259.584 40.5627 245.753 33.1266 235.863C24.4949 224.396 24.4949 208.39 33.1266 196.923C40.5627 187.033 40.5627 173.201 33.1266 163.311C24.4949 151.845 24.4949 135.839 33.1266 124.372C40.5627 114.482 40.5627 100.65 33.1266 90.7601L36.6653 88.1084C45.297 99.5752 45.297 115.581 36.6653 127.048C29.2292 136.938 29.2292 150.77 36.6653 160.66C45.297 172.126 45.297 188.132 36.6653 199.599C29.2292 209.489 29.2292 223.321 36.6653 233.211C45.297 244.678 45.297 260.683 36.6653 272.15C29.2292 282.04 29.2292 295.872 36.6653 305.762C45.297 317.229 45.297 333.235 36.6653 344.701C29.2292 354.591 29.2292 368.423 36.6653 378.313C45.297 389.78 45.297 405.786 36.6653 417.253C29.2292 427.143 29.2292 440.974 36.6653 450.865C45.297 462.331 45.297 478.337 36.6653 489.804C29.2292 499.694 29.2292 513.526 36.6653 523.416L33.1266 526.067Z" fill="#1F1F1F"/>
<path d="M51.1284 523.054L50.2559 523.708C43.049 512.955 43.3704 498.559 51.22 488.131L51.2206 488.13C59.103 477.647 59.103 462.998 51.2206 452.514L51.22 452.513C43.0353 441.641 43.0353 426.453 51.22 415.58L51.2206 415.579C59.103 405.095 59.103 390.447 51.2206 379.963L51.22 379.962C43.0353 369.089 43.0353 353.901 51.22 343.029L51.2206 343.028C59.103 332.544 59.103 317.895 51.2206 307.412L51.22 307.411C43.0353 296.538 43.0353 281.35 51.22 270.477L51.2206 270.477C59.103 259.993 59.103 245.344 51.2206 234.861L51.22 234.86C43.0353 223.987 43.0353 208.799 51.22 197.926L51.2206 197.925C59.103 187.442 59.103 172.793 51.2206 162.309L51.22 162.309C43.0353 151.436 43.0353 136.248 51.22 125.375L51.2206 125.374C58.7668 115.338 59.0886 101.484 52.1861 91.1215L53.0586 90.4677C60.2655 101.22 59.9441 115.617 52.0945 126.045L52.094 126.046C44.2116 136.529 44.2116 151.178 52.094 161.662L52.0945 161.662C60.2792 172.535 60.2792 187.723 52.0945 198.596L52.094 198.597C44.2116 209.08 44.2116 223.729 52.094 234.213L52.0945 234.214C60.2792 245.087 60.2792 260.274 52.0945 271.147L52.094 271.148C44.2116 281.632 44.2116 296.281 52.094 306.764L52.0945 306.765C60.2792 317.638 60.2792 332.826 52.0945 343.699L52.094 343.699C44.2116 354.183 44.2116 368.832 52.094 379.315L52.0945 379.316C60.2792 390.189 60.2792 405.377 52.0945 416.25L52.094 416.251C44.2116 426.734 44.2116 441.383 52.094 451.867L52.0945 451.867C60.2792 462.74 60.2792 477.928 52.0945 488.801L52.094 488.802C44.5477 498.838 44.2259 512.692 51.1284 523.054Z" fill="#1F1F1F" stroke="#1F1F1F" stroke-width="3.33471"/>
</g>
<circle cx="34.896" cy="579.423" r="32.8178" stroke="#1F1F1F" stroke-width="3.28178"/>
<path d="M35.1246 595.644C34.5711 595.644 34.1018 595.464 33.7167 595.103C33.3317 594.766 33.1391 594.297 33.1391 593.695V587.45C32.1524 588.268 31.0213 589.098 29.7458 589.941C28.4943 590.759 27.1827 591.529 25.8109 592.251C24.4391 592.973 23.1034 593.599 21.8038 594.128C21.2503 594.345 20.7088 594.369 20.1794 594.2C19.674 594.056 19.2889 593.671 19.0242 593.045C18.8076 592.564 18.8076 592.07 19.0242 591.565C19.2648 591.06 19.6499 590.711 20.1794 590.518C21.1902 590.157 22.2852 589.7 23.4644 589.146C24.6437 588.593 25.8109 587.991 26.9661 587.341C28.1453 586.692 29.1922 586.066 30.1068 585.464H20.8292C20.3719 585.464 19.9628 585.296 19.6018 584.959C19.2648 584.622 19.0964 584.225 19.0964 583.768C19.0964 583.286 19.2648 582.889 19.6018 582.576C19.9628 582.239 20.3719 582.071 20.8292 582.071H33.1391V579.869C31.647 579.652 30.6603 579.123 30.179 578.28C30.2993 578.714 30.2632 579.111 30.0707 579.472C29.9022 579.833 29.6014 580.097 29.1682 580.266C28.735 580.434 28.3138 580.434 27.9047 580.266C27.4956 580.073 27.2308 579.773 27.1105 579.363C27.0864 579.267 27.0624 579.171 27.0383 579.075C27.0142 578.954 26.9781 578.846 26.93 578.75C26.2321 578.87 25.4258 579.002 24.5113 579.147C23.5968 579.291 22.6943 579.436 21.8038 579.58C20.9375 579.7 20.2155 579.809 19.6379 579.905C19.0603 579.977 18.579 579.893 18.1939 579.652C17.8329 579.387 17.6283 578.99 17.5802 578.461C17.5561 578.004 17.6765 577.607 17.9412 577.27C18.23 576.909 18.6632 576.716 19.2408 576.692L19.7101 576.656C20.0711 576.175 20.4682 575.609 20.9014 574.959C21.3586 574.309 21.8159 573.648 22.2731 572.974C21.864 572.589 21.3827 572.168 20.8292 571.71C20.2997 571.229 19.7943 570.784 19.313 570.375C18.8316 569.941 18.4586 569.629 18.1939 569.436C17.857 569.147 17.6644 568.786 17.6163 568.353C17.5922 567.896 17.7246 567.499 18.0134 567.162C18.3503 566.777 18.7354 566.572 19.1686 566.548C19.6258 566.5 20.047 566.632 20.4321 566.945L20.6487 567.09C21.0337 566.464 21.4549 565.778 21.9121 565.032C22.3694 564.262 22.7184 563.648 22.959 563.191C23.2238 562.758 23.5968 562.481 24.0781 562.36C24.5595 562.24 25.0287 562.312 25.486 562.577C25.8951 562.818 26.1478 563.167 26.2441 563.624C26.3644 564.081 26.2922 564.514 26.0275 564.924C25.6906 565.429 25.2333 566.103 24.6557 566.945C24.1022 567.763 23.5848 568.497 23.1034 569.147C23.296 569.316 23.4765 569.484 23.6449 569.653C23.8375 569.797 24.018 569.953 24.1864 570.122C24.4512 569.713 24.7039 569.328 24.9445 568.967C25.1852 568.606 25.3897 568.269 25.5582 567.956C25.8229 567.547 26.196 567.294 26.6773 567.198C27.1586 567.102 27.5918 567.186 27.9769 567.451C28.3619 567.715 28.5906 568.076 28.6628 568.534C28.759 568.967 28.6748 569.376 28.4101 569.761C27.7843 570.627 27.0263 571.662 26.1358 572.865C25.2694 574.069 24.4271 575.2 23.6088 576.259C24.018 576.211 24.4271 576.163 24.8362 576.114C25.2453 576.066 25.6304 576.03 25.9914 576.006L25.7748 575.429C25.6063 574.971 25.6063 574.562 25.7748 574.201C25.9673 573.84 26.2682 573.587 26.6773 573.443C27.1105 573.299 27.5196 573.299 27.9047 573.443C28.2897 573.587 28.5665 573.888 28.735 574.346C28.8553 574.682 29.0117 575.104 29.2043 575.609C29.4209 576.114 29.6134 576.608 29.7819 577.089C29.6856 576.68 29.6375 576.151 29.6375 575.501V570.122C29.6375 568.846 29.842 567.884 30.2512 567.234C30.6603 566.56 31.3943 566.103 32.4532 565.862C32.5736 565.525 32.718 565.14 32.8864 564.707C33.0549 564.25 33.2113 563.829 33.3557 563.443C33.5001 563.034 33.5844 562.77 33.6084 562.649C33.8009 562.12 34.1258 561.759 34.5831 561.566C35.0644 561.35 35.5698 561.338 36.0993 561.53C36.6288 561.699 36.9777 561.999 37.1462 562.433C37.3387 562.866 37.3387 563.311 37.1462 563.768C37.098 563.937 36.9777 564.202 36.7852 564.563C36.6167 564.924 36.4362 565.297 36.2437 565.682C38.1449 565.778 39.3844 566.283 39.9619 567.198C40.2748 566.813 40.6478 566.596 41.081 566.548C41.5142 566.5 41.9113 566.62 42.2723 566.909L42.3806 566.981C42.7657 566.355 43.1748 565.67 43.608 564.924C44.0653 564.153 44.4142 563.552 44.6549 563.119C44.8956 562.661 45.2566 562.373 45.7379 562.252C46.2192 562.132 46.6885 562.204 47.1458 562.469C47.5549 562.709 47.8196 563.058 47.94 563.516C48.0603 563.949 47.9881 564.37 47.7234 564.779C47.4105 565.26 46.9773 565.91 46.4238 566.729C45.8702 567.547 45.3649 568.293 44.9076 568.967C45.1001 569.135 45.2927 569.304 45.4852 569.472C45.6777 569.641 45.8582 569.797 46.0267 569.941C46.2914 569.484 46.5441 569.063 46.7848 568.678C47.0495 568.293 47.2661 567.944 47.4346 567.631C47.6752 567.222 48.0362 566.957 48.5176 566.837C49.0229 566.692 49.4682 566.753 49.8532 567.017C50.2383 567.258 50.479 567.607 50.5752 568.064C50.6715 568.497 50.5873 568.907 50.3225 569.292C49.9134 569.893 49.4321 570.591 48.8785 571.385C48.3491 572.18 47.7835 572.998 47.1819 573.84C46.6043 574.682 46.0387 575.477 45.4852 576.223L48.0483 575.97L47.7595 575.32C47.591 574.935 47.5549 574.538 47.6512 574.129C47.7715 573.72 48.0483 573.419 48.4815 573.226C48.8906 573.034 49.2877 572.986 49.6727 573.082C50.0578 573.178 50.3586 573.431 50.5752 573.84C50.7437 574.153 50.9483 574.562 51.1889 575.068C51.4296 575.573 51.6703 576.09 51.9109 576.62C52.1516 577.125 52.3321 577.534 52.4524 577.847C52.6449 578.28 52.657 578.702 52.4885 579.111C52.3441 579.496 52.0553 579.785 51.6221 579.977C51.213 580.17 50.7918 580.206 50.3586 580.085C49.9495 579.941 49.6607 579.664 49.4922 579.255C49.4682 579.183 49.4321 579.099 49.3839 579.002C49.3358 578.906 49.2877 578.81 49.2395 578.714C48.5898 578.81 47.8317 578.93 46.9653 579.075C46.0989 579.195 45.2445 579.315 44.4022 579.436C43.5839 579.556 42.874 579.664 42.2723 579.76C41.6707 579.857 41.1893 579.773 40.8283 579.508C40.4673 579.243 40.2628 578.858 40.2146 578.353C40.2146 578.256 40.2146 578.16 40.2146 578.064C40.2146 577.968 40.2267 577.883 40.2507 577.811C39.8416 578.942 38.7947 579.628 37.1101 579.869V582.071H49.4561C49.9375 582.071 50.3346 582.239 50.6474 582.576C50.9844 582.889 51.1528 583.286 51.1528 583.768C51.1528 584.225 50.9844 584.622 50.6474 584.959C50.3346 585.296 49.9375 585.464 49.4561 585.464H40.2868C41.7308 586.451 43.3312 587.39 45.0881 588.28C46.869 589.17 48.5296 589.892 50.0698 590.446C50.6956 590.663 51.0927 591.012 51.2611 591.493C51.4537 591.95 51.4416 592.48 51.225 593.081C51.0325 593.635 50.6474 593.984 50.0698 594.128C49.5163 594.297 48.9267 594.26 48.301 594.02C46.9292 593.466 45.5454 592.817 44.1495 592.07C42.7777 591.3 41.4781 590.506 40.2507 589.688C39.0474 588.87 38.0005 588.087 37.1101 587.341V593.695C37.1101 594.297 36.9175 594.766 36.5325 595.103C36.1474 595.464 35.6781 595.644 35.1246 595.644ZM40.359 577.522C40.5516 577.017 40.9968 576.704 41.6947 576.584C42.0317 576.102 42.4167 575.537 42.8499 574.887C43.2831 574.237 43.7283 573.563 44.1856 572.865C43.6561 572.408 43.0424 571.879 42.3445 571.277C41.6466 570.675 41.057 570.182 40.5756 569.797V575.501C40.5756 576.295 40.5034 576.969 40.359 577.522ZM35.0885 576.836C35.8105 576.836 36.2918 576.716 36.5325 576.475C36.7972 576.235 36.9296 575.814 36.9296 575.212V574.237H33.2835V575.212C33.2835 575.814 33.4039 576.235 33.6445 576.475C33.9092 576.716 34.3906 576.836 35.0885 576.836ZM33.2835 571.133H36.9296V570.411C36.9296 569.785 36.7972 569.364 36.5325 569.147C36.2918 568.907 35.8105 568.786 35.0885 568.786C34.3906 568.786 33.9092 568.907 33.6445 569.147C33.4039 569.364 33.2835 569.785 33.2835 570.411V571.133Z" fill="#1F1F1F"/>
<defs>
<clipPath id="clip0_95_63316">
<rect width="50.0207" height="437.959" fill="white" transform="translate(9.88568 88.1084)"/>
</clipPath>
</defs>
</svg>
