<svg width="70" height="614" viewBox="0 0 70 614" fill="none" xmlns="http://www.w3.org/2000/svg">
<circle cx="34.9924" cy="34.7527" r="32.8178" stroke="#1F1F1F" stroke-width="3.28178"/>
<path d="M25.5463 50.7939C24.9928 50.7939 24.5235 50.6134 24.1384 50.2524C23.7774 49.9155 23.5969 49.4462 23.5969 48.8445V19.0262C23.5969 18.4005 23.7774 17.9192 24.1384 17.5823C24.5235 17.2453 24.9928 17.0769 25.5463 17.0769C26.1239 17.0769 26.5932 17.2453 26.9542 17.5823C27.3392 17.9192 27.5318 18.4005 27.5318 19.0262V24.8383C27.7243 24.5254 27.977 24.2968 28.2899 24.1524C28.7712 23.9117 29.2405 23.8636 29.6977 24.008C30.1791 24.1524 30.5521 24.4652 30.8168 24.9466L30.9973 25.3076C31.0455 24.8262 31.238 24.4171 31.5749 24.0802C31.9359 23.7433 32.3932 23.5748 32.9467 23.5748H36.9899V19.315C36.9899 18.6893 37.1824 18.208 37.5674 17.8711C37.9525 17.5101 38.4338 17.3296 39.0114 17.3296C39.589 17.3296 40.0704 17.5101 40.4554 17.8711C40.8405 18.208 41.033 18.6893 41.033 19.315V23.5748H42.2243C44.5587 23.5748 46.2073 24.0441 47.1699 24.9827C48.1567 25.8972 48.65 27.4976 48.65 29.7839V33.3217H50.455C51.0567 33.3217 51.526 33.5022 51.8629 33.8632C52.1998 34.2242 52.3683 34.6814 52.3683 35.235C52.3683 35.7644 52.1998 36.2096 51.8629 36.5706C51.526 36.9316 51.0567 37.1121 50.455 37.1121H41.8994C42.9102 39.0374 44.1376 40.7462 45.5816 42.2383C47.0255 43.7304 48.65 45.0059 50.455 46.0648C51.0326 46.4018 51.3936 46.859 51.538 47.4366C51.6824 48.0142 51.5982 48.5677 51.2853 49.0972C50.9724 49.6748 50.467 50.0238 49.7691 50.1441C49.0953 50.2885 48.4695 50.1802 47.8919 49.8192C46.4239 48.9287 44.9318 47.6893 43.4156 46.1009C41.8994 44.4885 40.6118 42.6715 39.5529 40.6499C38.0608 44.4283 35.5459 47.4727 32.0081 49.7831C31.5027 50.12 30.9251 50.2765 30.2753 50.2524C29.6496 50.2283 29.1442 49.9516 28.7591 49.4221C28.4222 48.9408 28.2899 48.4113 28.3621 47.8337C28.4583 47.2802 28.7712 46.847 29.3006 46.5341C33.1513 44.1275 35.5579 40.9868 36.5206 37.1121H30.528C29.9504 37.1121 29.4811 36.9316 29.1201 36.5706C28.7832 36.2096 28.6147 35.7644 28.6147 35.235C28.6147 34.6814 28.7832 34.2242 29.1201 33.8632C29.4811 33.5022 29.9504 33.3217 30.528 33.3217H36.9899V27.3652H32.9467C32.5857 27.3652 32.2728 27.293 32.0081 27.1486C32.1525 27.4374 32.2849 27.7142 32.4052 27.9789C32.5496 28.2196 32.6699 28.4362 32.7662 28.6287C33.0309 29.1582 33.067 29.6636 32.8745 30.1449C32.706 30.6022 32.3932 30.9511 31.9359 31.1918C31.4305 31.4325 30.9251 31.4806 30.4197 31.3362C29.9384 31.1677 29.5894 30.8188 29.3728 30.2893C29.2525 29.9765 29.072 29.5914 28.8313 29.1341C28.6147 28.6769 28.3861 28.2196 28.1455 27.7623C27.9048 27.281 27.7002 26.8839 27.5318 26.5711V48.8445C27.5318 49.4462 27.3392 49.9155 26.9542 50.2524C26.5932 50.6134 26.1239 50.7939 25.5463 50.7939ZM19.2289 35.993C18.7235 35.8727 18.3384 35.62 18.0737 35.235C17.833 34.8258 17.7728 34.3325 17.8932 33.7549C18.0376 33.1051 18.194 32.347 18.3625 31.4806C18.5309 30.5901 18.6874 29.6997 18.8318 28.8092C18.9762 27.8947 19.0845 27.1005 19.1567 26.4267C19.2048 25.8731 19.4334 25.452 19.8425 25.1632C20.2517 24.8503 20.721 24.73 21.2504 24.8022C22.4297 24.9947 22.9591 25.6806 22.8388 26.8599C22.7185 28.0632 22.538 29.3868 22.2973 30.8308C22.0567 32.2748 21.804 33.5262 21.5392 34.5852C21.4189 35.1387 21.1542 35.5358 20.745 35.7765C20.3359 36.0171 19.8305 36.0893 19.2289 35.993ZM40.9969 33.3217H44.6069V29.82C44.6069 28.8333 44.4384 28.1835 44.1015 27.8706C43.7886 27.5337 43.1027 27.3652 42.0438 27.3652H41.033V32.8885L40.9969 33.3217Z" fill="#1F1F1F"/>
<g clip-path="url(#clip0_95_63305)">
<path d="M16.4615 526.067C7.82981 514.601 7.82981 498.595 16.4615 487.128C23.8976 477.238 23.8976 463.406 16.4615 453.516C7.82981 442.049 7.82981 426.044 16.4615 414.577C23.8976 404.687 23.8976 390.855 16.4615 380.965C7.82981 369.498 7.82981 353.493 16.4615 342.026C23.8976 332.136 23.8976 318.304 16.4615 308.414C7.82981 296.947 7.82981 280.941 16.4615 269.475C23.8976 259.584 23.8976 245.753 16.4615 235.863C7.82981 224.396 7.82981 208.39 16.4615 196.923C23.8976 187.033 23.8976 173.201 16.4615 163.311C7.82981 151.845 7.82981 135.839 16.4615 124.372C23.8976 114.482 23.8976 100.65 16.4615 90.7601L20.0002 88.1084C28.6319 99.5752 28.6319 115.581 20.0002 127.048C12.5641 136.938 12.5641 150.77 20.0002 160.66C28.6319 172.126 28.6319 188.132 20.0002 199.599C12.5641 209.489 12.5641 223.321 20.0002 233.211C28.6319 244.678 28.6319 260.683 20.0002 272.15C12.5641 282.04 12.5641 295.872 20.0002 305.762C28.6319 317.229 28.6319 333.235 20.0002 344.701C12.5641 354.591 12.5641 368.423 20.0002 378.313C28.6319 389.78 28.6319 405.786 20.0002 417.253C12.5641 427.143 12.5641 440.974 20.0002 450.865C28.6319 462.331 28.6319 478.337 20.0002 489.804C12.5641 499.694 12.5641 513.526 20.0002 523.416L16.4615 526.067Z" fill="#1F1F1F"/>
<path d="M33.223 526.067C24.5913 514.601 24.5913 498.595 33.223 487.128C40.6592 477.238 40.6592 463.406 33.223 453.516C24.5913 442.049 24.5913 426.044 33.223 414.577C40.6592 404.687 40.6592 390.855 33.223 380.965C24.5913 369.498 24.5913 353.493 33.223 342.026C40.6592 332.136 40.6592 318.304 33.223 308.414C24.5913 296.947 24.5913 280.941 33.223 269.475C40.6592 259.584 40.6592 245.753 33.223 235.863C24.5913 224.396 24.5913 208.39 33.223 196.923C40.6592 187.033 40.6592 173.201 33.223 163.311C24.5913 151.845 24.5913 135.839 33.223 124.372C40.6592 114.482 40.6592 100.65 33.223 90.7601L36.7618 88.1084C45.3935 99.5752 45.3935 115.581 36.7618 127.048C29.3256 136.938 29.3256 150.77 36.7618 160.66C45.3935 172.126 45.3935 188.132 36.7618 199.599C29.3256 209.489 29.3256 223.321 36.7618 233.211C45.3935 244.678 45.3935 260.683 36.7618 272.15C29.3256 282.04 29.3256 295.872 36.7618 305.762C45.3935 317.229 45.3935 333.235 36.7618 344.701C29.3256 354.591 29.3256 368.423 36.7618 378.313C45.3935 389.78 45.3935 405.786 36.7618 417.253C29.3256 427.143 29.3256 440.974 36.7618 450.865C45.3935 462.331 45.3935 478.337 36.7618 489.804C29.3256 499.694 29.3256 513.526 36.7618 523.416L33.223 526.067Z" fill="#1F1F1F"/>
<path d="M51.2248 523.054L50.3523 523.708C43.1454 512.955 43.4668 498.559 51.3164 488.131L51.3169 488.13C59.1993 477.647 59.1993 462.998 51.3169 452.514L51.3164 452.513C43.1317 441.641 43.1317 426.453 51.3164 415.58L51.3169 415.579C59.1993 405.095 59.1993 390.447 51.3169 379.963L51.3164 379.962C43.1317 369.089 43.1317 353.901 51.3164 343.029L51.3169 343.028C59.1993 332.544 59.1993 317.895 51.3169 307.412L51.3164 307.411C43.1317 296.538 43.1317 281.35 51.3164 270.477L51.3169 270.477C59.1993 259.993 59.1993 245.344 51.3169 234.861L51.3164 234.86C43.1317 223.987 43.1317 208.799 51.3164 197.926L51.3169 197.925C59.1993 187.442 59.1993 172.793 51.3169 162.309L51.3164 162.309C43.1317 151.436 43.1317 136.248 51.3164 125.375L51.3169 125.374C58.8632 115.338 59.185 101.484 52.2825 91.1215L53.155 90.4677C60.3619 101.22 60.0405 115.617 52.1909 126.045L52.1903 126.046C44.3079 136.529 44.3079 151.178 52.1903 161.662L52.1909 161.662C60.3756 172.535 60.3756 187.723 52.1909 198.596L52.1903 198.597C44.3079 209.08 44.3079 223.729 52.1903 234.213L52.1909 234.214C60.3756 245.087 60.3756 260.274 52.1909 271.147L52.1903 271.148C44.3079 281.632 44.3079 296.281 52.1903 306.764L52.1909 306.765C60.3756 317.638 60.3756 332.826 52.1909 343.699L52.1903 343.699C44.3079 354.183 44.3079 368.832 52.1903 379.315L52.1909 379.316C60.3756 390.189 60.3756 405.377 52.1909 416.25L52.1903 416.251C44.3079 426.734 44.3079 441.383 52.1903 451.867L52.1909 451.867C60.3756 462.74 60.3756 477.928 52.1909 488.801L52.1903 488.802C44.6441 498.838 44.3223 512.692 51.2248 523.054Z" fill="#1F1F1F" stroke="#1F1F1F" stroke-width="3.33471"/>
</g>
<circle cx="34.9924" cy="579.423" r="32.8178" stroke="#1F1F1F" stroke-width="3.28178"/>
<path d="M39.4446 594.742C36.9177 594.742 34.7517 594.646 32.9467 594.453C31.1658 594.285 29.6496 593.972 28.3982 593.514C27.1467 593.057 26.0757 592.431 25.1853 591.637C24.8724 591.854 24.4753 592.119 23.994 592.431C23.5367 592.768 23.0915 593.081 22.6583 593.37C22.2492 593.683 21.9363 593.912 21.7197 594.056C21.2625 594.369 20.745 594.477 20.1674 594.381C19.6139 594.285 19.2048 594.008 18.9401 593.551C18.6753 593.069 18.6031 592.576 18.7235 592.07C18.8679 591.565 19.1687 591.192 19.6259 590.951C19.9629 590.759 20.4442 590.506 21.0699 590.193C21.7197 589.856 22.3094 589.543 22.8388 589.255V583.768C22.8388 583.214 22.7425 582.841 22.55 582.648C22.3816 582.456 22.0206 582.36 21.467 582.36H20.0591C19.5297 582.36 19.1085 582.191 18.7957 581.854C18.4828 581.493 18.3264 581.084 18.3264 580.627C18.3264 580.146 18.4828 579.736 18.7957 579.399C19.1085 579.063 19.5297 578.894 20.0591 578.894H22.8388C25.1973 578.894 26.3766 580.073 26.3766 582.432V585.175C27.1948 583.13 27.7484 580.928 28.0372 578.569C28.35 576.211 28.5065 573.515 28.5065 570.483V568.75C28.5065 566.897 28.9517 565.561 29.8421 564.743C30.7567 563.901 32.1886 563.455 34.138 563.407C35.6301 563.359 37.2065 563.275 38.867 563.155C40.5517 563.01 42.2123 562.842 43.8488 562.649C45.4853 562.433 46.9774 562.204 48.3251 561.963C48.8787 561.843 49.348 561.891 49.733 562.108C50.1181 562.324 50.3587 562.637 50.455 563.046C50.5513 563.48 50.5031 563.889 50.3106 564.274C50.1181 564.635 49.7571 564.863 49.2276 564.96C48.1687 565.128 47.0616 565.285 45.9065 565.429C44.7753 565.549 43.6081 565.67 42.4048 565.79V566.729H49.5164C49.8533 566.729 50.1421 566.861 50.3828 567.126C50.6475 567.39 50.7799 567.691 50.7799 568.028C50.7799 568.365 50.6475 568.666 50.3828 568.931C50.1421 569.195 49.8533 569.328 49.5164 569.328H42.4048V570.447H46.8089C48.3733 570.447 49.4683 570.736 50.094 571.313C50.7438 571.891 51.0687 572.853 51.0687 574.201C51.0687 574.803 50.9002 575.248 50.5633 575.537C50.2264 575.826 49.8172 575.97 49.3359 575.97C48.8065 575.97 48.3733 575.838 48.0363 575.573C47.7235 575.284 47.567 574.875 47.567 574.346C47.567 573.72 47.4587 573.323 47.2421 573.154C47.0255 572.962 46.5923 572.865 45.9426 572.865H42.3326V574.382L45.726 574.093C46.0629 574.069 46.3517 574.165 46.5923 574.382C46.8571 574.598 47.0015 574.875 47.0255 575.212C47.0496 575.525 46.9533 575.814 46.7367 576.078C46.5442 576.343 46.2915 576.487 45.9787 576.512L42.3326 576.8C42.3567 577.354 42.489 577.703 42.7297 577.847C42.9944 577.992 43.4998 578.064 44.2459 578.064H45.2206C45.9666 578.064 46.46 577.992 46.7006 577.847C46.9654 577.703 47.2181 577.414 47.4587 576.981C47.6753 576.596 47.9882 576.355 48.3973 576.259C48.8065 576.138 49.2276 576.187 49.6608 576.403C50.0699 576.596 50.3467 576.885 50.4911 577.27C50.6355 577.631 50.6235 578.04 50.455 578.497C50.094 579.387 49.5645 580.013 48.8666 580.374C48.1687 580.711 47.0255 580.88 45.4372 580.88H43.6322C41.8031 580.88 40.5396 580.615 39.8417 580.085C39.1679 579.556 38.8309 578.629 38.8309 577.306V577.089L36.0513 577.306C35.9791 579.448 35.7384 581.541 35.3293 583.587C34.9442 585.633 34.3065 587.51 33.416 589.219C33.1994 589.628 32.8745 589.904 32.4413 590.049C32.0081 590.193 31.5869 590.169 31.1778 589.977C30.7446 589.784 30.4558 589.483 30.3114 589.074C30.1911 588.641 30.2392 588.232 30.4558 587.847C31.2982 586.186 31.9239 584.309 32.333 582.215C32.7421 580.121 32.9467 578.016 32.9467 575.898V575.068C32.9467 573.431 33.3558 572.252 34.1741 571.53C35.0164 570.808 36.3401 570.447 38.145 570.447H38.7948V566.079C38.0728 566.127 37.3388 566.175 36.5928 566.223C35.8708 566.247 35.1608 566.283 34.4629 566.331C33.5002 566.355 32.8143 566.548 32.4052 566.909C31.9961 567.27 31.7915 567.944 31.7915 568.931V570.483C31.7915 573.202 31.7073 575.561 31.5388 577.558C31.3704 579.532 31.1056 581.289 30.7446 582.829C30.3836 584.345 29.8903 585.789 29.2645 587.161C29.0479 587.642 28.711 587.967 28.2538 588.136C27.8206 588.304 27.3633 588.292 26.882 588.099C26.7857 588.051 26.6894 588.003 26.5932 587.955C26.521 587.883 26.4488 587.811 26.3766 587.738V588.533C27.1467 589.279 28.0492 589.868 29.084 590.302C30.143 590.735 31.4907 591.048 33.1272 591.24C34.7878 591.409 36.8936 591.493 39.4446 591.493C40.287 591.493 41.2135 591.481 42.2243 591.457C43.2351 591.433 44.2459 591.409 45.2567 591.385C46.2675 591.36 47.194 591.336 48.0363 591.312C48.9027 591.264 49.6006 591.228 50.1301 591.204C50.7558 591.156 51.2612 591.288 51.6463 591.601C52.0314 591.914 52.2239 592.335 52.2239 592.865C52.2239 593.394 52.0554 593.827 51.7185 594.164C51.4056 594.501 50.9002 594.67 50.2023 594.67C49.5285 594.67 48.6982 594.67 47.7114 594.67C46.7247 594.694 45.7019 594.706 44.643 594.706C43.584 594.73 42.5973 594.742 41.6828 594.742C40.7683 594.742 40.0222 594.742 39.4446 594.742ZM46.3758 590.229C44.7152 590.229 43.56 590.013 42.9102 589.58C42.2845 589.122 41.9716 588.256 41.9716 586.98V582.973C41.9716 582.468 42.128 582.071 42.4409 581.782C42.7778 581.493 43.1749 581.349 43.6322 581.349C44.0894 581.349 44.4745 581.493 44.7874 581.782C45.1002 582.071 45.2567 582.468 45.2567 582.973V586.258C45.2567 586.643 45.3529 586.908 45.5455 587.053C45.738 587.173 46.099 587.233 46.6284 587.233C47.2542 587.233 47.6633 587.149 47.8558 586.98C48.0724 586.812 48.265 586.463 48.4334 585.934C48.5778 585.573 48.8426 585.308 49.2276 585.139C49.6127 584.947 50.0218 584.935 50.455 585.103C51.4177 585.464 51.7666 586.15 51.5019 587.161C51.2853 587.907 50.9965 588.509 50.6355 588.966C50.2745 589.423 49.7571 589.748 49.0832 589.941C48.4334 590.133 47.5309 590.229 46.3758 590.229ZM35.6181 590.229C35.233 589.965 35.0044 589.628 34.9322 589.219C34.86 588.809 34.9562 588.448 35.221 588.136C35.8708 587.317 36.4002 586.463 36.8094 585.573C37.2426 584.682 37.5795 583.623 37.8201 582.396C37.9164 581.914 38.145 581.577 38.506 581.385C38.867 581.168 39.2521 581.096 39.6612 581.168C40.0944 581.241 40.4193 581.421 40.6359 581.71C40.8766 581.999 40.9608 582.384 40.8886 582.865C40.6961 584.189 40.3351 585.452 39.8056 586.656C39.2762 587.835 38.6625 588.858 37.9645 589.724C37.6757 590.109 37.3148 590.35 36.8816 590.446C36.4484 590.542 36.0272 590.47 35.6181 590.229ZM24.5355 568.245C24.0782 567.908 23.5127 567.523 22.8388 567.09C22.165 566.656 21.5753 566.307 21.0699 566.043C20.6608 565.826 20.3961 565.489 20.2757 565.032C20.1795 564.575 20.2517 564.153 20.4923 563.768C20.733 563.335 21.094 563.034 21.5753 562.866C22.0807 562.673 22.562 562.697 23.0193 562.938C23.5006 563.179 24.0903 563.516 24.7882 563.949C25.4861 564.382 26.0637 564.743 26.521 565.032C26.9542 565.321 27.2069 565.718 27.2791 566.223C27.3753 566.729 27.2911 567.198 27.0264 567.631C26.7616 568.064 26.3766 568.353 25.8712 568.497C25.3899 568.642 24.9446 568.558 24.5355 568.245ZM23.7413 575.681C23.284 575.344 22.7064 574.971 22.0085 574.562C21.3347 574.153 20.745 573.816 20.2396 573.551C19.8305 573.335 19.5658 572.998 19.4455 572.541C19.3492 572.083 19.4094 571.662 19.6259 571.277C19.8666 570.844 20.2276 570.543 20.7089 570.375C21.2143 570.182 21.6957 570.206 22.1529 570.447C22.6342 570.687 23.2239 571.012 23.9218 571.421C24.6438 571.831 25.2334 572.168 25.6907 572.432C26.1479 572.721 26.4127 573.118 26.4849 573.624C26.5811 574.129 26.4969 574.598 26.2322 575.031C25.9674 575.465 25.5824 575.753 25.077 575.898C24.5957 576.042 24.1504 575.97 23.7413 575.681ZM36.0513 574.851L38.8309 574.634V572.865H38.4338C37.6156 572.865 37.026 573.022 36.665 573.335C36.304 573.624 36.0994 574.129 36.0513 574.851Z" fill="#1F1F1F"/>
<defs>
<clipPath id="clip0_95_63305">
<rect width="50.0207" height="437.959" fill="white" transform="translate(9.98206 88.1084)"/>
</clipPath>
</defs>
</svg>
