<?xml version="1.0" encoding="utf-8"?>
<!-- Generator: Adobe Illustrator 26.3.1, SVG Export Plug-In . SVG Version: 6.00 Build 0)  -->
<svg version="1.1" id="圖層_1" xmlns="http://www.w3.org/2000/svg" xmlns:xlink="http://www.w3.org/1999/xlink" x="0px" y="0px"
	 viewBox="0 0 168 168" style="enable-background:new 0 0 168 168;" xml:space="preserve">
<style type="text/css">
	.st0{fill:#939393;}
	.st1{fill:#000819;}
	.st2{fill:#1BACB8;}
	.st3{fill:#FFFFFF;}
	.st4{fill:#FFFFFF;stroke:#020917;stroke-width:1.8824;stroke-linecap:round;stroke-linejoin:round;}
	.st5{fill:#FF8080;stroke:#020917;stroke-width:1.8824;stroke-linecap:round;stroke-linejoin:round;stroke-miterlimit:10;}
	.st6{fill:#FFFFFF;stroke:#010918;stroke-width:2.3983;stroke-linecap:round;stroke-linejoin:round;stroke-miterlimit:10;}
	.st7{fill:#00FDFF;stroke:#010918;stroke-width:2.3983;stroke-linecap:round;stroke-linejoin:round;stroke-miterlimit:10;}
</style>
<g>
	<path class="st0" d="M70.8,112.2l-11.4,22.2c-0.4,0.8-0.4,1.8,0.1,2.5c0.5,0.8,1.3,1.2,2.2,1.2H144c0.9,0,1.7-0.5,2.2-1.2
		c0.5-0.8,0.5-1.7,0.1-2.5l-11.4-22.2H70.8z"/>
	<g>
		<g>
			<path class="st1" d="M135.5,112.2H70.1c-0.6,0-1-0.5-1-1V74.8c0-2.6,2.1-4.7,4.7-4.7h22.6c0.6,0,1,0.5,1,1c0,0.6-0.5,1-1,1H73.8
				c-1.4,0-2.6,1.2-2.6,2.6v35.3h63.3V99.7c0-0.6,0.5-1,1-1c0.6,0,1,0.5,1,1v11.4C136.5,111.7,136.1,112.2,135.5,112.2z"/>
		</g>
		<g>
			<path class="st1" d="M144,140.2H61.6c-1.6,0-3.1-0.8-4-2.2s-0.9-3.1-0.2-4.6l11.7-22.8c0.2-0.3,0.5-0.6,0.9-0.6h65.4
				c0.4,0,0.7,0.2,0.9,0.6l11.7,22.8c0.8,1.5,0.7,3.2-0.2,4.6C147.1,139.4,145.6,140.2,144,140.2z M70.8,112.2l-11.4,22.2
				c-0.4,0.8-0.4,1.8,0.1,2.5c0.5,0.8,1.3,1.2,2.2,1.2H144c0.9,0,1.7-0.5,2.2-1.2c0.5-0.8,0.5-1.7,0.1-2.5l-11.4-22.2H70.8z"/>
		</g>
		<g>
			<path class="st1" d="M80.8,119.8H75c-0.6,0-1-0.5-1-1c0-0.6,0.5-1,1-1h5.8c0.6,0,1,0.5,1,1C81.9,119.4,81.4,119.8,80.8,119.8z"/>
		</g>
		<g>
			<path class="st1" d="M93.3,119.8h-5.8c-0.6,0-1-0.5-1-1c0-0.6,0.5-1,1-1h5.8c0.6,0,1,0.5,1,1C94.3,119.4,93.9,119.8,93.3,119.8z"
				/>
		</g>
		<g>
			<path class="st1" d="M105.7,119.8h-5.8c-0.6,0-1-0.5-1-1c0-0.6,0.5-1,1-1h5.8c0.6,0,1,0.5,1,1
				C106.8,119.4,106.3,119.8,105.7,119.8z"/>
		</g>
		<g>
			<path class="st1" d="M118.2,119.8h-5.8c-0.6,0-1-0.5-1-1c0-0.6,0.5-1,1-1h5.8c0.6,0,1,0.5,1,1
				C119.2,119.4,118.8,119.8,118.2,119.8z"/>
		</g>
		<g>
			<path class="st1" d="M130.7,119.8h-5.8c-0.6,0-1-0.5-1-1c0-0.6,0.5-1,1-1h5.8c0.6,0,1,0.5,1,1
				C131.7,119.4,131.2,119.8,130.7,119.8z"/>
		</g>
		<g>
			<path class="st1" d="M86.3,126.2h-5.8c-0.6,0-1-0.5-1-1s0.5-1,1-1h5.8c0.6,0,1,0.5,1,1S86.9,126.2,86.3,126.2z"/>
		</g>
		<g>
			<path class="st1" d="M99.3,126.2h-5.8c-0.6,0-1-0.5-1-1s0.5-1,1-1h5.8c0.6,0,1,0.5,1,1S99.9,126.2,99.3,126.2z"/>
		</g>
		<g>
			<path class="st1" d="M112.2,126.2h-5.8c-0.6,0-1-0.5-1-1s0.5-1,1-1h5.8c0.6,0,1,0.5,1,1S112.8,126.2,112.2,126.2z"/>
		</g>
		<g>
			<path class="st1" d="M125.2,126.2h-5.8c-0.6,0-1-0.5-1-1s0.5-1,1-1h5.8c0.6,0,1,0.5,1,1S125.7,126.2,125.2,126.2z"/>
		</g>
		<g>
			<path class="st1" d="M114.1,140.2H91.5c-0.3,0-0.7-0.2-0.8-0.4c-0.2-0.3-0.2-0.6-0.1-0.9l2.1-6c0.6-1.8,2.3-3,4.2-3h12
				c1.9,0,3.6,1.2,4.2,3l2.1,6c0.1,0.3,0.1,0.7-0.1,0.9C114.8,140,114.5,140.2,114.1,140.2z M93,138.1h19.7l-1.6-4.6
				c-0.3-1-1.2-1.6-2.3-1.6h-12c-1,0-1.9,0.6-2.3,1.6L93,138.1z"/>
		</g>
	</g>
	<g>
		<path class="st2" d="M130.9,52.7c-14.5,0-26.2,9-26.2,20.1c0,4.6,2.1,9.1,5.9,12.7c0.9,0.8,1.7,2.6-1.4,9.1
			c11.1-3.4,12.4-3,13-2.9c2.8,0.8,5.8,1.2,8.8,1.2c14.5,0,26.2-9,26.2-20.1C157.1,61.7,145.4,52.7,130.9,52.7z"/>
		<g>
			<g>
				<path class="st1" d="M142,76.6c-2.2,0-4-1.8-4-4c0-2.2,1.8-4,4-4c2.2,0,4,1.8,4,4C146,74.7,144.2,76.6,142,76.6z M142,70.5
					c-1.1,0-2,0.9-2,2c0,1.1,0.9,2,2,2c1.1,0,2-0.9,2-2C143.9,71.4,143.1,70.5,142,70.5z"/>
			</g>
			<g>
				<path class="st1" d="M130.9,76.6c-2.2,0-4-1.8-4-4c0-2.2,1.8-4,4-4c2.2,0,4,1.8,4,4C135,74.7,133.2,76.6,130.9,76.6z
					 M130.9,70.5c-1.1,0-2,0.9-2,2c0,1.1,0.9,2,2,2c1.1,0,2-0.9,2-2C132.9,71.4,132,70.5,130.9,70.5z"/>
			</g>
			<g>
				<path class="st1" d="M119.9,76.6c-2.2,0-4-1.8-4-4c0-2.2,1.8-4,4-4c2.2,0,4,1.8,4,4C123.9,74.7,122.1,76.6,119.9,76.6z
					 M119.9,70.5c-1.1,0-2,0.9-2,2c0,1.1,0.9,2,2,2c1.1,0,2-0.9,2-2C121.9,71.4,121,70.5,119.9,70.5z"/>
			</g>
			<circle class="st3" cx="119.9" cy="72.5" r="2"/>
			<circle class="st3" cx="130.9" cy="72.5" r="2"/>
			<circle class="st3" cx="142" cy="72.5" r="2"/>
		</g>
		<g>
			<path class="st1" d="M109,96.7c-0.6,0-1.1-0.2-1.5-0.7c-0.5-0.6-0.6-1.4-0.3-2.2c2.4-4.9,2.2-6.7,2-6.9c-4.2-4-6.6-9-6.6-14.2
				c0-12.2,12.7-22.1,28.3-22.1c15.6,0,28.3,9.9,28.3,22.1c0,12.2-12.7,22.1-28.3,22.1c-3.2,0-6.3-0.4-9.3-1.2
				c-0.7-0.1-4.2,0.6-12,3C109.4,96.6,109.2,96.7,109,96.7z M130.9,52.7c-14.5,0-26.2,9-26.2,20.1c0,4.6,2.1,9.1,5.9,12.7
				c0.9,0.8,1.7,2.6-1.4,9.1c11.1-3.4,12.4-3,13-2.9c2.8,0.8,5.8,1.2,8.8,1.2c14.5,0,26.2-9,26.2-20.1
				C157.1,61.7,145.4,52.7,130.9,52.7z"/>
		</g>
	</g>
</g>
<g>
	<path class="st4" d="M37.3,73.4H25.6c-6.1,0-11-4.9-11-11V24.9c0-6.1,4.9-11,11-11h43.1c6.1,0,11,4.9,11,11v37.6
		c0,6.1-4.9,11-11,11H49L35.5,86.4c-2,1.9-5.3,0.5-5.3-2.3V73.4"/>
	<g>
		<path class="st5" d="M46.7,52.4c-1.7,0-3.1-1.4-3.1-3.1v-1.4c0-3.4,1.6-6.7,4.3-8.7c3.2-2.4,4.1-3.4,4.1-5.2
			c0-1.5-0.5-2.8-1.5-3.7c-0.9-0.9-2.3-1.4-3.7-1.4c-0.1,0-0.2,0-0.2,0c-2.7,0.1-5,2.3-5.2,5c-0.1,0.9,0.1,1.7,0.4,2.5
			c0.3,0.8,0.3,1.6,0,2.4c-0.3,0.8-0.9,1.4-1.7,1.7c-0.4,0.1-0.8,0.2-1.2,0.2c-1.3,0-2.4-0.8-2.9-2c-0.7-1.7-0.9-3.4-0.8-5.3
			c0.4-5.9,5.4-10.6,11.3-10.8c0.2,0,0.3,0,0.5,0c3.1,0,5.9,1.1,8.1,3.2c2.2,2.1,3.4,5,3.4,8.2c0,5.3-3.7,8-6.6,10.2
			c-1.1,0.8-1.8,2.2-1.8,3.7v1.4C49.8,51,48.4,52.4,46.7,52.4z"/>
	</g>
	<path class="st5" d="M46.7,63.2c-2,0-3.7-1.7-3.7-3.7s1.7-3.7,3.7-3.7c2,0,3.7,1.7,3.7,3.7S48.7,63.2,46.7,63.2z"/>
</g>
<g>
	<g>
		<g>
			<g>
				<g>
					<path class="st6" d="M12.1,150.9L81,151c1.9,0,3.4-1.7,3.4-3.7l0-46.2c0-2.1-1.5-3.7-3.4-3.7l-68.9-0.1c-1.9,0-3.4,1.7-3.4,3.7
						l0,46.2C8.7,149.2,10.2,150.9,12.1,150.9z"/>
					<path class="st6" d="M83.3,98.4l-27.3,26.5c-0.8,0.8-1.9,1.3-3,1.3l-12.5,0c-1.1,0-2.2-0.4-3-1.2L9.8,98.3"/>
				</g>
				<line class="st6" x1="83.3" y1="149.9" x2="54.8" y2="126.1"/>
				<line class="st6" x1="38.8" y1="126.1" x2="10.4" y2="149.3"/>
			</g>
		</g>
	</g>
	<ellipse class="st7" cx="46.6" cy="125.9" rx="8.1" ry="8.1"/>
</g>
</svg>
