<?xml version="1.0" encoding="utf-8"?>
<!-- Generator: Adobe Illustrator 26.3.1, SVG Export Plug-In . SVG Version: 6.00 Build 0)  -->
<svg version="1.1" id="圖層_1" xmlns="http://www.w3.org/2000/svg" xmlns:xlink="http://www.w3.org/1999/xlink" x="0px" y="0px"
	 viewBox="0 0 168 168" style="enable-background:new 0 0 168 168;" xml:space="preserve">
<style type="text/css">
	
		.st0{fill:none;stroke:#010918;stroke-width:1.8358;stroke-linecap:round;stroke-linejoin:round;stroke-miterlimit:10;stroke-dasharray:7.3433;}
	.st1{fill:#FFFFFF;stroke:#010918;stroke-width:2.5538;stroke-linecap:round;stroke-linejoin:round;stroke-miterlimit:10;}
	.st2{fill:none;stroke:#010918;stroke-width:2.5538;stroke-linecap:round;stroke-linejoin:round;stroke-miterlimit:10;}
	.st3{fill:#FFFFFF;stroke:#010918;stroke-width:1.8358;stroke-linecap:round;stroke-linejoin:round;stroke-miterlimit:10;}
	.st4{fill:none;stroke:#010918;stroke-width:1.8358;stroke-linecap:round;stroke-linejoin:round;stroke-miterlimit:10;}
	.st5{fill:#1BACB8;stroke:#010918;stroke-width:1.8358;stroke-linecap:round;stroke-linejoin:round;stroke-miterlimit:10;}
	.st6{fill:#3DEBDC;stroke:#010918;stroke-width:1.8358;stroke-linecap:round;stroke-linejoin:round;stroke-miterlimit:10;}
	.st7{fill:#010918;}
	.st8{fill:#FF8080;stroke:#010918;stroke-width:1.8358;stroke-linecap:round;stroke-linejoin:round;stroke-miterlimit:10;}
</style>
<g>
	<g>
		<path class="st0" d="M152.2,56.2c-8.6-20-26.1-35.4-47.4-41.3"/>
		<path class="st0" d="M53.3,150c9.7,4.8,20.6,7.5,32.2,7.5c12.5,0,24.3-3.2,34.6-8.8"/>
		<path class="st0" d="M40.6,27.9C27.4,38.3,18,53.1,14.4,70"/>
	</g>
	<g>
		<g>
			<circle class="st1" cx="74.5" cy="27.9" r="23.6"/>
			<g>
				<path class="st1" d="M67,32.7c0,0,0.6,7.3,7.8,7.4c0,0,6.5,0.2,7.2-5.6c0,0,0.9-4.2-4.1-6.6c-0.6-0.3-1.2-0.5-1.8-0.7l-0.9-0.3
					c-1.9-0.4-8.1-2.2-6.8-7.2c0,0,0.9-6.3,7.9-5.1c2.2,0.4,4.1,1.7,5,3.7c0.3,0.7,0.5,1.6,0.5,2.6"/>
				<line class="st2" x1="74.8" y1="11.5" x2="74.8" y2="44.3"/>
			</g>
		</g>
	</g>
	<g>
		<path class="st3" d="M104.3,137.9V69.1c0-0.4,0.3-0.8,0.8-0.8h53.5c0.4,0,0.8,0.3,0.8,0.8v68.8c0,0.4-0.3,0.8-0.8,0.8H105
			C104.6,138.7,104.3,138.4,104.3,137.9z"/>
		<line class="st4" x1="126.9" y1="80.9" x2="110.9" y2="80.9"/>
		<line class="st4" x1="126.9" y1="88.7" x2="110.9" y2="88.7"/>
		<line class="st4" x1="126.9" y1="96.4" x2="110.9" y2="96.4"/>
		<line class="st4" x1="148.9" y1="104.1" x2="110.9" y2="104.1"/>
		<line class="st4" x1="148.9" y1="111.8" x2="110.9" y2="111.8"/>
		<line class="st4" x1="148.9" y1="119.5" x2="110.9" y2="119.5"/>
		<line class="st4" x1="148.9" y1="127.2" x2="110.9" y2="127.2"/>
		<circle class="st5" cx="142.6" cy="88.7" r="6.2"/>
		<g>
			<g>
				<g>
					<path class="st3" d="M114.3,131.1h-27c-1.4,0-2.6-1.2-2.6-2.6V87.8c0-1.4,1.2-2.6,2.6-2.6h26.9c1.4,0,2.6,1.2,2.6,2.6v40.7
						C116.9,129.9,115.7,131.1,114.3,131.1z"/>
					<rect x="88.1" y="88.9" class="st6" width="25.5" height="9.9"/>
					<g>
						<path class="st6" d="M92,112.6h-2.2c-0.5,0-0.9-0.4-0.9-0.9v-2.2c0-0.5,0.4-0.9,0.9-0.9H92c0.5,0,0.9,0.4,0.9,0.9v2.2
							C92.9,112.2,92.5,112.6,92,112.6z"/>
						<path class="st6" d="M101.9,112.6h-2.2c-0.5,0-0.9-0.4-0.9-0.9v-2.2c0-0.5,0.4-0.9,0.9-0.9h2.2c0.5,0,0.9,0.4,0.9,0.9v2.2
							C102.8,112.2,102.4,112.6,101.9,112.6z"/>
						<path class="st6" d="M111.8,112.6h-2.2c-0.5,0-0.9-0.4-0.9-0.9v-2.2c0-0.5,0.4-0.9,0.9-0.9h2.2c0.5,0,0.9,0.4,0.9,0.9v2.2
							C112.7,112.2,112.3,112.6,111.8,112.6z"/>
						<path class="st3" d="M92,119.6h-2.2c-0.5,0-0.9-0.4-0.9-0.9v-2.2c0-0.5,0.4-0.9,0.9-0.9H92c0.5,0,0.9,0.4,0.9,0.9v2.2
							C92.9,119.3,92.5,119.6,92,119.6z"/>
						<path class="st3" d="M101.9,119.6h-2.2c-0.5,0-0.9-0.4-0.9-0.9v-2.2c0-0.5,0.4-0.9,0.9-0.9h2.2c0.5,0,0.9,0.4,0.9,0.9v2.2
							C102.8,119.3,102.4,119.6,101.9,119.6z"/>
						<path class="st3" d="M111.8,119.6h-2.2c-0.5,0-0.9-0.4-0.9-0.9v-2.2c0-0.5,0.4-0.9,0.9-0.9h2.2c0.5,0,0.9,0.4,0.9,0.9v2.2
							C112.7,119.3,112.3,119.6,111.8,119.6z"/>
						<path class="st3" d="M92,126.7h-2.2c-0.5,0-0.9-0.4-0.9-0.9v-2.2c0-0.5,0.4-0.9,0.9-0.9H92c0.5,0,0.9,0.4,0.9,0.9v2.2
							C92.9,126.3,92.5,126.7,92,126.7z"/>
						<path class="st3" d="M101.9,126.7h-2.2c-0.5,0-0.9-0.4-0.9-0.9v-2.2c0-0.5,0.4-0.9,0.9-0.9h2.2c0.5,0,0.9,0.4,0.9,0.9v2.2
							C102.8,126.3,102.4,126.7,101.9,126.7z"/>
						<path class="st3" d="M111.8,126.7h-2.2c-0.5,0-0.9-0.4-0.9-0.9v-2.2c0-0.5,0.4-0.9,0.9-0.9h2.2c0.5,0,0.9,0.4,0.9,0.9v2.2
							C112.7,126.3,112.3,126.7,111.8,126.7z"/>
					</g>
					<path class="st7" d="M91.9,104.7h-2c-0.5,0-1-0.4-1-1v-0.1c0-0.5,0.4-1,1-1h2c0.5,0,1,0.4,1,1v0.1
						C92.9,104.2,92.4,104.7,91.9,104.7z"/>
					<path class="st7" d="M101.8,104.7h-2c-0.5,0-1-0.4-1-1v-0.1c0-0.5,0.4-1,1-1h2c0.5,0,1,0.4,1,1v0.1
						C102.8,104.2,102.3,104.7,101.8,104.7z"/>
					<path class="st7" d="M111.7,104.7h-2c-0.5,0-1-0.4-1-1v-0.1c0-0.5,0.4-1,1-1h2c0.5,0,1,0.4,1,1v0.1
						C112.7,104.2,112.3,104.7,111.7,104.7z"/>
				</g>
			</g>
		</g>
	</g>
	<g>
		<g>
			<g>
				<path class="st3" d="M13.2,92.4c0-2.1,1.7-3.8,3.8-3.8h38.9c2.1,0,3.8,1.7,3.8,3.8v40.7H13.2V92.4z"/>
				<rect x="30.1" y="88.6" class="st8" width="13" height="8.9"/>
				<line class="st4" x1="40.9" y1="120.4" x2="42.7" y2="120.4"/>
				<line class="st4" x1="46.9" y1="120.4" x2="48.7" y2="120.4"/>
				<line class="st4" x1="52.9" y1="120.4" x2="54.7" y2="120.4"/>
				<g>
					<g>
						<g>
							<path class="st3" d="M71.3,127.7l-15.7,12.4c-0.8,0.6-1.7,1.1-2.6,1.4l-15.4,4.8c-3,1.1-6.2,1.3-9.3,0.6
								c-6.1-1.4-16.5-3.7-22.1-5c-2.3-0.5-4-2.4-4.2-4.7l-0.5-5.1c-0.4-3.7,1-6.6,3.6-8.4c1.6-1.1,3.5-1.8,5.8-2l12.2-1.2
								c1.7-0.2,3.5,0.1,5.1,0.7l16.6,5.6c0,0,3,0.9,3,4.6l1.2-0.1c1.3-0.2,2-0.3,3.1-1.1l13.5-9.8"/>
						</g>
						<path class="st3" d="M71.3,127.7c2-1.9,1.8-4.8,0-6.6c-1.7-1.7-4-2-5.8-0.7"/>
					</g>
				</g>
				<line class="st4" x1="41.7" y1="136.1" x2="26.8" y2="131.4"/>
				<path class="st3" d="M44.8,126.8c2.5,1.1,3.7,3.9,2.6,6.4c-1,2.3-3.4,3.5-5.7,2.9"/>
			</g>
			<g>
				<path class="st8" d="M48.2,70.6l2.3,2.6c0.5,0.6,0.7,1.3,0.7,2.1l-0.5,5.1c0,0.3-0.1,0.5-0.3,0.7l-2.5,2.2
					c-0.2,0.2-0.4,0.3-0.7,0.3L42,83.4c-0.8,0-1.5-0.4-2-0.9l-2.3-2.6L26.8,67.5c-0.5-0.6-0.4-1.5,0.2-2l8.2-7.2
					c0.6-0.6,1.5-0.5,2,0L48.2,70.6z"/>
				<path class="st3" d="M44,79.5c-0.7-0.8-0.7-2.1,0.2-2.9c0.8-0.7,2.1-0.7,2.9,0.2c0.7,0.8,0.7,2.1-0.2,2.9
					C46,80.4,44.7,80.3,44,79.5z"/>
				<path class="st4" d="M45.8,78.8c0,0,4.5,3.8,4.5,9.8"/>
			</g>
		</g>
		<circle class="st8" cx="25.1" cy="107.3" r="5.1"/>
	</g>
</g>
</svg>
