<?xml version="1.0" encoding="utf-8"?>
<!-- Generator: Adobe Illustrator 24.3.0, SVG Export Plug-In . SVG Version: 6.00 Build 0)  -->
<svg version="1.1" id="群組_13" xmlns="http://www.w3.org/2000/svg" xmlns:xlink="http://www.w3.org/1999/xlink" x="0px" y="0px"
	 viewBox="0 0 600 180" style="enable-background:new 0 0 600 180;" xml:space="preserve">
<style type="text/css">
	.st0{fill-rule:evenodd;clip-rule:evenodd;fill:#1C1D1D;}
	.st1{fill:#1C1D1D;}
	.st2{fill:#FFFBF6;}
	.st3{fill-rule:evenodd;clip-rule:evenodd;fill:#FFFFFF;}
	.st4{fill-rule:evenodd;clip-rule:evenodd;fill:#040000;}
	.st5{fill:#040000;}
	.st6{fill:#FFFFFF;}
	.st7{fill:#C1C4C6;}
	.st8{fill:#FEF0CA;}
	.st9{fill:#F6BBAA;}
	.st10{fill:#0C0103;}
</style>
<path id="形狀_512" class="st0" d="M555.1,78.3c0.3-3.4,7.7-7.8,7.7-7.8c-2.2,0.7-4.6,0.9-6.9,0.7c-1-0.1-2-0.3-3-0.6
	c0.6-1,1.1-2.1,1.5-3.2c1.3-3.8,1.6-7.9,0.8-11.8c-1-4.5-3.7-8.3-7.5-10.8c-2.6-1.7-5.5-2.9-8.6-3.5c0.6-3.6,0.2-7.3-1.2-10.7
	c-1.4-3.6-4.1-6.5-7.6-8.3c-2.2-1-4.5-1.7-6.9-1.9c-0.8-0.1-1.7-0.1-2.5-0.1c-1.6,0.1-3.2,0.4-4.8,0.9C511,18.6,517.2,8,517.2,8
	s-9,9.6-12.5,9.3l0,0c-4.6-0.5-9.1-5.5-16-16.3c0,0,5,10.4,4.6,14.1c-0.3,3-4.4,4.2-7.9,3.9l-0.1,0c0,0,3.7,2.4,5,4.6
	c0.3,0.6,0.4,1.2,0.2,1.8c-1.6,0.8-3.2,1.7-4.5,2.9c-5.1,4.3-7.4,10.9-6.1,17.4c-2.1,1-4,2.2-5.8,3.6c-1.8,1.4-3.3,3.1-4.6,5
	c-2.2,3.3-3.1,7.2-2.7,11.1c0.2,1.7,0.6,3.3,1.3,4.8c-1,1.9-3.7,4.6-10.6,6.5c1-0.1,2-0.1,3.1,0c2,0.2,4.4,0.7,5.4,2.2
	c1.4,2.2-1.4,6.2-10.1,11.7c0,0,13.6-7.1,18.8-6.7c0.5,0,1,0.2,1.4,0.4c2.6,1.9,2.3,6-1.3,19c0,0,5.2-8.8,7.5-8.8c0,0,0.1,0,0.1,0
	c1.6,0.1,3.6,3.6,5.8,9.1c0,0-1.6-9.1,0.1-10.6c0.3-0.3,0.7-0.5,1.2-0.7c1.4,1.1,2.9,2,4.5,2.6c1.6,0.6,3.3,1,5,1.2
	c0.9,0.1,1.8,0.1,2.7,0c2.2-0.1,4.5-0.6,6.6-1.4c1.9-0.7,3.8-1.6,5.5-2.7c2.8,2,6.2,3.3,9.7,3.6c0.6,0.1,1.2,0.1,1.8,0.1
	c3.4,0,6.7-0.8,9.7-2.4c2-1,3.8-2.4,5.2-4.2c0.5-0.2,1.1-0.2,1.6-0.2c0.5,0,1,0.2,1.5,0.5c2.8,1.5,5.5,10.7,5.5,10.7
	c-0.8-9-0.7-11.9,1.8-13.8c0.5-0.3,1-0.4,1.5-0.3c4.5,0.4,15.3,7.7,15.3,7.7C558.2,85.8,554.8,81,555.1,78.3z M487.5,92.3
	c-0.6,0.5-1.2,1.5-1.2,4.6c-1.7-2.8-2.9-3.4-3.8-3.5l-0.2,0c-0.9,0-1.8,0.6-3,1.7c-0.6,0.6-1.1,1.2-1.6,1.8c0.6-2.3,1-4.7,1.3-7.1
	c0.1-1.3,0-2.6-0.3-3.9c-0.3-1-1-1.9-1.8-2.5c-0.6-0.4-1.3-0.6-2-0.7c-1.9,0-3.8,0.3-5.6,0.9c-1.3,0.4-2.7,0.9-4.3,1.5
	c1.2-1.1,2-2.6,2.5-4.1c0.2-0.9,0.1-1.9-0.4-2.8c-0.9-1.3-2.3-2.1-3.8-2.4c0.6-0.3,1.2-0.6,1.8-1c1.4-0.8,2.7-1.9,3.7-3.2
	c0.1-0.1,0.1-0.2,0.2-0.2c0.5,0.9,1,1.7,1.6,2.5c1.6,2,3.6,3.6,5.9,4.8c2.1,1.1,4.4,1.9,6.8,2.3c0.6,4,2.4,7.6,5.3,10.4
	C488.1,91.8,487.8,92.1,487.5,92.3z M513.4,22.4c-2.1,1-4.1,2.3-5.8,3.9c-2.4-1.3-5-2.1-7.7-2.3c-0.2,0-0.4,0-0.6,0
	c-2.5-0.1-5.1,0.2-7.5,1.1c0-0.7-0.1-1.3-0.5-1.9c-0.7-1.1-1.6-2.1-2.6-2.9c0.8-0.1,1.6-0.3,2.3-0.7c1.9-0.6,3.2-2.2,3.5-4.2
	c0-1.7-0.3-3.4-0.9-5c1,1.2,2,2.4,3.1,3.6c2.8,2.9,5.3,4.4,7.8,4.6l0.1,0c1.1,0.1,2.5-0.4,4.2-1.5c1.5-1,2.9-2.1,4.3-3.3
	c0.2-0.2,0.3-0.3,0.5-0.4c-0.9,3-1,5.4-0.1,7.1c0.3,0.5,0.7,1,1.1,1.4l-0.1,0l0.1,0.1C514.3,22,513.8,22.2,513.4,22.4L513.4,22.4z
	 M549.9,85.6c-1.6,1.2-2.6,3.1-2.6,5.1c-0.1,0.7-0.1,1.4-0.1,2.1c-1.1-2.2-2.2-3.6-3.3-4.2c-0.6-0.3-1.3-0.5-2-0.6
	c-0.2,0-0.5,0-0.7,0c1.1-1.6,1.8-3.3,2.3-5.1c0.5-1.7,0.7-3.5,0.7-5.3c3.2-1.1,5.9-3.1,7.9-5.8c1.1,0.4,2.3,0.6,3.6,0.7
	c0.7,0.1,1.4,0.1,2.1,0.1c-0.9,0.7-1.7,1.5-2.4,2.4c-0.9,0.9-1.4,2.1-1.6,3.3c-0.1,1,0.2,2.1,0.6,3c0.6,1.3,1.4,2.5,2.3,3.6
	c0.7,0.9,1.5,1.8,2.4,2.8c-2.1-1.2-4.5-2.1-6.9-2.5C551.5,85,550.6,85.2,549.9,85.6z M556.6,28.4c0.4-0.3,0.5-0.8,0.2-1.2
	c0,0,0,0,0,0l0-0.1c-0.3-0.4-0.8-0.4-1.2-0.1c0,0,0,0,0,0l-7.1,6.7L556.6,28.4z M550.7,23.1L550.7,23.1c-0.4-0.3-0.9-0.2-1.2,0.2
	c0,0,0,0,0,0.1l-5.6,9.7l7-8.8C551.2,24,551.1,23.5,550.7,23.1C550.7,23.2,550.7,23.1,550.7,23.1L550.7,23.1z M559.5,34.4
	c0.4-0.2,0.6-0.7,0.4-1.1c0,0,0,0,0,0l0-0.1c-0.2-0.4-0.8-0.5-1.2-0.3c0,0,0,0,0,0l-12.6,5.5L559.5,34.4z M458.9,38.6
	c-0.5-0.1-1,0.1-1.1,0.6c0,0,0,0,0,0l0,0c-0.1,0.5,0.1,0.9,0.6,1.1c0,0,0,0,0,0l13.1,2.2L458.9,38.6z M459.2,34.3l15.7,6.4l-14.8-8
	c-0.4-0.2-0.9-0.1-1.2,0.3c0,0,0,0,0,0l0,0C458.6,33.6,458.8,34.1,459.2,34.3C459.2,34.3,459.2,34.3,459.2,34.3L459.2,34.3z
	 M467.6,32.6l5.3,3.2l-3.7-4.2c-0.4-0.3-0.9-0.3-1.2,0.1c0,0,0,0,0,0c-0.3,0-0.5,0.2-0.5,0.5C467.4,32.4,467.5,32.5,467.6,32.6
	L467.6,32.6z M516.2,98.2l0.3,13.2c0.1,0.5,0.5,0.8,0.9,0.8c0.4,0.1,0.8-0.2,0.8-0.6c0,0,0-0.1,0-0.1L516.2,98.2z M511.5,106.3
	c0.5,0.1,0.9-0.3,1-0.8c0,0,0,0,0-0.1l1.4-7.2l-3.1,7C510.7,105.8,511,106.3,511.5,106.3C511.5,106.3,511.5,106.3,511.5,106.3z
	 M519.5,96.9l4.8,7.9c0.2,0.5,0.7,0.7,1.1,0.5c0.5-0.2,0.7-0.7,0.5-1.1c0,0,0-0.1,0-0.1L519.5,96.9z"/>
<g>
	<path id="野餐用不到_但就是想_拷貝_3_" class="st0" d="M48.8,56.5h2.1l-0.2,2.4h-2.1L48.8,56.5z M49.2,49.7h2.1L51.1,52
		h-2.1L49.2,49.7z M58.3,52h-2l0.2-2.3h2L58.3,52z M57.8,58.9h-2l0.2-2.4h2L57.8,58.9z M55.3,72.1h6.8l0.4-5.6h-6.8l0.2-2.8h6.8
		l1.3-19H44.5l-1.3,19h6.7l-0.2,2.8h-6.5l-0.4,5.6h6.5L49,75.9c-3,0.3-5.7,0.5-8,0.6l0.3,6.1c5.8-0.7,13.6-1.6,20.9-2.5l0.3-5.5
		c-2.4,0.2-4.9,0.5-7.4,0.7L55.3,72.1z M79.3,58.8L78.4,59h-0.1l1.4-1.5c-1-0.8-2.1-1.5-3.2-2.1c2.7-2.4,5-5.2,7.1-8.2l-3.8-2.8
		l-1.4,0.3h-13L65,50.3h9c-0.6,0.9-1.4,1.7-2.1,2.5c-1-0.6-2.1-1-3.1-1.5l-4.1,3.9c2.4,1.1,4.6,2.3,6.8,3.8h-7.6l-0.4,5.9h5L67.7,77
		c0,0.5-0.3,0.6-0.9,0.6c-1.5,0-2.9,0-4.4-0.1c0.7,2,1.2,4,1.3,6.1c3.1,0,5.5-0.1,7.4-1c2-0.9,2.5-2.7,2.7-5.5l0.9-12.3h1.7
		c-0.4,2-0.9,3.8-1.3,5.2l5,1c1.3-3.7,2.5-7.5,3.3-11.4L79.3,58.8z M102.8,52.1c-1.1,1-2.2,1.9-3.5,2.8c-0.8-0.7-1.6-1.3-2.5-1.8
		c0.3-0.3,0.6-0.6,1-0.9H102.8z M106.6,48.7l-0.9,0.2h-2.1l0.1-1h6.7l0.2-3.6h-6.7l0.1-1.5h-5.2l-0.4,5.7l-2.5-0.5
		c-1.8,2.1-4,3.8-6.4,5c1.1,0.9,2.1,2,2.9,3.2c0.4-0.3,0.9-0.5,1.3-0.8c0.6,0.5,1.3,1,1.9,1.6c-1.7,0.8-3.6,1.5-5.4,2
		c1.1,1.1,2,2.4,2.7,3.7c6.8-2.2,13.5-6.1,17-12.2L106.6,48.7z M99.8,65.9c1.5-0.6,3-1.4,4.4-2.1l-0.1,1.6h10.6l0.1-1.5
		c1.4,0.7,2.8,1.4,4.3,2L99.8,65.9L99.8,65.9z M120.3,75.7c-0.5,0.4-1,0.8-1.5,1.2c-1.1-0.4-2.3-0.8-3.5-1.2H120.3L120.3,75.7z
		 M102.3,77.9l0.2-2.2h6.7l-1.6,1.7l0.4,0.1L102.3,77.9z M102.8,71.8h13l-0.1,0.8h-13L102.8,71.8z M103,69h13l-0.1,0.7h-13L103,69z
		 M106.3,62.5c1-0.6,2-1.3,3-2c0.9,0.7,2,1.3,3,2H106.3L106.3,62.5z M121.5,48.3c-0.7,0.8-1.4,1.5-2.3,2.2c-1.6-0.8-3.2-1.6-4.7-2.2
		H121.5L121.5,48.3z M129,56.5c-1.6-1.3-3.3-2.5-5.2-3.6c2.2-2.2,3.9-4.7,5.1-7.6l-3.3-1.4l-1,0.2h-12.8l-0.3,4.1h2.8l-3.6,3.3
		c1.2,0.6,2.5,1.2,3.7,1.9c-0.9,0.4-1.8,0.7-2.7,1c0.3,0.3,0.6,0.7,0.9,1.1l-2.6-1.4c-4.7,4.9-13.2,8.5-20.9,10.4
		c1.2,1.3,2.1,2.8,2.9,4.4c1.8-0.6,3.5-1.2,5.3-1.8l-0.7,9.7c0.1,1.2-0.6,2.2-1.6,2.8c0.8,1.3,1.3,2.7,1.5,4.2
		c1.2-0.5,3-0.9,13.4-1.9c0-1.2,0.1-2.4,0.3-3.6c4.7,1.5,9.3,3.4,13.6,5.8l3.2-3.5c-1.2-0.7-2.5-1.3-3.8-1.9c1.3-0.9,2.7-1.9,4-2.8
		l-4.1-2.7c-0.5,0.5-1,1-1.6,1.5L122,67c1.6,0.6,3.1,1.1,4.6,1.5c1.1-1.6,2.3-3.1,3.7-4.4c-6-1.3-13.1-3.8-17.5-6.4
		c0.2-0.3,0.5-0.5,0.8-0.8c0.3,0.5,0.6,1.1,0.8,1.6c1.7-0.6,3.4-1.4,5-2.3c2,1.2,3.8,2.5,5.5,4L129,56.5z M160.4,65.5l0.3-4.3h7.6
		l-0.3,4.3H160.4L160.4,65.5z M147,65.5c0.2-1.5,0.3-2.9,0.4-4.3h6.9l-0.3,4.3H147L147,65.5z M155.1,51.6l-0.3,3.9h-6.9l0.3-3.9
		H155.1z M168.7,55.5h-7.6l0.3-3.9h7.6L168.7,55.5z M175.7,45.7h-33.3L141.3,61c-0.4,6.1-1.3,13.8-6.3,18.9c1.7,1.1,3.3,2.5,4.7,4
		c3.2-3.2,5.2-7.8,6.3-12.5h7.7L152.9,83h6.3l0.8-11.6h7.6l-0.4,5.1c0,0.5-0.3,1-0.9,1c-0.1,0-0.2,0-0.3,0c-0.8,0-3.6,0-5.7-0.1
		c0.8,1.9,1.3,3.9,1.6,6c3.8,0,6.5-0.1,8.5-1.1c2-0.9,2.7-2.6,2.9-5.7L175.7,45.7z M207.8,59.7l0.3-4.1c0.9-1.2,1.7-2.4,2.4-3.6
		h13.2l0.4-6.4h-37.7l-0.4,6.4h16.2c-4.7,6.9-11.2,12.4-18.8,15.9c1.5,1.8,2.8,3.7,3.9,5.7c4.9-2.5,9.4-5.7,13.3-9.5l-1.4,19.4h6.9
		l1.5-21c4,3.6,8.9,8.2,11.1,11.2l5.7-4.8c-2.8-3.5-9.2-8.5-13.3-11.9L207.8,59.7z M246.1,70.4h7.3l0.4-5.4h-7.3l0.2-3.4h-5.9
		l-0.2,3.4H233l-0.4,5.4h7.6l-0.3,5c-3.4,0.5-6.5,1-9.1,1.3l0.9,5.7c6-1,14.3-2.4,21.9-3.9l0-5.3c-2.6,0.4-5.3,0.9-7.9,1.3
		L246.1,70.4z M241,55.6c1.2-1.6,2.4-3.3,3.4-5h3.8l-3,1.8c0.6,0.9,1.2,1.9,1.8,3L241,55.6z M233.1,50.6h4.6
		c-0.6,1.3-1.4,2.6-2.2,3.8c-0.5,0.8-1.3,1.4-2.1,1.8c0.5,1.6,1.3,4.4,1.6,5.6c1.5-0.6,3.4-0.7,14.5-1.5c0.2,0.6,0.4,1.2,0.6,1.8
		l5-3.1c-1.2-3-2.7-5.8-4.6-8.4h5.3l0.4-5.3h-22.6L233.1,50.6z M263,47h-5.8l-1.8,26.1h5.8L263,47z M265.6,43.2l-2.3,33.1
		c0.1,0.5-0.3,0.9-0.8,1c-0.1,0-0.2,0-0.3,0c-0.7,0-3,0-5.2-0.1c0.8,1.9,1.4,3.8,1.7,5.9c3.5,0,6-0.2,7.9-1.2
		c1.9-0.9,2.5-2.5,2.8-5.6l2.3-33.2L265.6,43.2L265.6,43.2z M323.9,56.3h-9.2l0.4-5.1h9.2L323.9,56.3z M323.2,67.3h-9.2l0.4-5.3h9.2
		L323.2,67.3z M331.5,45.4H309l-1.9,27.6h22.5L331.5,45.4z M302.8,43c-2.5,5.8-6.2,11.1-10.8,15.5c1.2,2.2,2.1,4.5,2.9,6.8
		c0.8-0.7,1.5-1.6,2.3-2.4l-1.4,20.6h6.2l2.1-29.9c1.7-2.8,3.3-5.7,4.7-8.7L302.8,43z M304.1,76.6l-0.4,5.8h28l0.4-5.8H304.1
		L304.1,76.6z M361.1,47.5h-6c-0.4-1.6-0.9-3.2-1.5-4.8l-5.8,1.2c0.4,1.2,0.7,2.4,1,3.6h-7.4l-0.4,5.4h19.8L361.1,47.5z M347.4,59.2
		h5.8L353,62h-5.8L347.4,59.2z M358.4,66.7l0.9-12.2h-16.8l-0.9,12.2h6l-0.8,11c0,0.3-0.2,0.5-0.4,0.6c-0.1,0-0.1,0-0.2,0
		c-0.4,0-1.6,0-2.7,0c1.6-3.2,2.9-6.5,3.8-9.9l-4.9-1.1c-0.9,3.8-2.3,7.7-4.2,10.3c1.4,0.9,2.7,1.9,4,3c0.4-0.6,0.8-1.3,1.2-1.9
		c0.6,1.5,1,3.2,1.2,4.8c2.4,0,4.2-0.1,5.7-0.9c1.6-0.9,2-2.3,2.2-4.6l0.8-11.2L358.4,66.7L358.4,66.7z M353,68.7
		c1.2,2.5,1.9,5.2,2.4,7.9l4.7-2.1c-0.5-2.7-1.4-5.3-2.6-7.7L353,68.7z M373.6,78.4c-0.2,0-0.3-0.1-0.4-0.2c-0.1-0.4-0.1-0.8,0-1.2
		l1.1-16.2H371l0.3-1.5h9.1l0.4-5.5H372c0.3-2.2,0.5-4.5,0.7-6.6c1.4,2,2.5,4.1,3.4,6.4l4.4-2.6c-1.1-2.4-2.5-4.7-4.2-6.8l-3.6,2
		l0.3-3.1h-5.8c-0.3,3.6-0.5,7.2-0.9,10.8h-5.2l-0.4,5.5h4.8c-1.3,7.9-3.9,15.3-9.8,20.6c1.6,1,3,2.4,4,3.9
		c3.9-3.7,6.8-8.3,8.5-13.3l-0.4,6.3c-0.2,3.2,0.1,4.2,0.8,5c0.8,0.8,2,1.2,3.1,1.2h2.7c0.9,0,1.8-0.2,2.7-0.6
		c0.9-0.5,1.6-1.3,2-2.2c0.5-1.8,0.9-3.6,1-5.4c-1.7-0.6-3.2-1.5-4.6-2.6c-0.2,2.2-0.3,4.1-0.5,4.9c0,0.5-0.1,0.9-0.4,1.2
		c-0.1,0.1-0.3,0.2-0.4,0.2H373.6L373.6,78.4z M417,49.9h-18.2l0.1-1.4h18.2L417,49.9z M416.6,55.2h-18.2l0.1-1.4h18.2L416.6,55.2z
		 M423.8,44.2h-30.6l-1.1,15.4h30.6L423.8,44.2z M410,74h12.7l0.4-5.4h-12.7l0.2-2.3H426l0.4-5.4h-38.1l-0.4,5.4h16.3l-0.7,9.8
		c-2.2-0.7-4-2.4-4.9-4.6c0.5-1.2,0.9-2.5,1.3-3.7l-6.2-0.9c-1.3,5.4-4.2,9.9-8.6,12.4c1.6,1.3,3.1,2.8,4.4,4.4
		c2.4-1.7,4.5-3.8,6.2-6.2c3.3,4.6,8.4,5.5,15.9,5.5h12.6c0.5-2.1,1.4-4.1,2.5-5.9c-3.6,0.1-11.5,0.2-14.3,0.1c-0.9,0-1.8,0-2.6,0
		L410,74z M460.3,62.1h6.3l-0.1,1.7h-6.3L460.3,62.1z M460.7,56h6.3l-0.1,1.7h-6.4L460.7,56z M461.2,49.8h6.3l-0.1,1.6H461
		L461.2,49.8z M449.6,70.5c1.9,1.8,3.6,3.8,5.2,5.8l4.8-3.9c-1.2-1.4-2.4-2.7-3.7-3.9h16.4l1.7-23.6h-18l-1.6,22.2l-0.2-0.2
		L449.6,70.5z M441,69.2h5.9l0.6-8c1.1,1.1,2.2,2.2,3.2,3.4l3.6-5c-1-0.8-4.7-3.5-6.3-4.5l0.1-1.1h5.6l0.4-5.2h-5.6l0.4-5.9h-5.9
		l-0.4,5.9h-6.7l-0.4,5.2h5.8c-1.9,3.4-4.4,6.4-7.5,8.8c1.4,1.3,2.7,2.7,3.7,4.3c1.6-1.4,2.9-3,4.1-4.7L441,69.2z M438.3,81.2
		c1.7-3,3.1-6.2,4.1-9.6l-5.4-2.1c-1,3.2-2.4,6.2-4.2,8.9L438.3,81.2z M474.2,77.6c-1.1-2.3-3.4-5.9-5-8.5l-5.6,2.6l1.6,2.9
		c-1.8-0.4-3.4-1.1-5-2.1c-0.6,4.3-0.9,4.9-2.8,4.9h-6c-2.3,0-2.7-0.1-2.6-1.5l0.4-5.3H443l-0.4,5.4c-0.4,5.1,1.2,6.9,7.7,6.9h7.1
		c5.1,0,6.9-1.6,8.1-7.6c1,1.8,1.9,3.6,2.6,5.4L474.2,77.6z"/>
	<path id="野餐用不到_但就是想_拷貝_1_" class="st1" d="M353.5,42.8c0.6,1.5,1.1,3.1,1.5,4.8h6l-0.4,5.4h-19.8l0.4-5.4
		h7.4c-0.3-1.2-0.6-2.4-1-3.6L353.5,42.8 M104,42.9l-0.1,1.5h6.7l-0.2,3.6h-6.7l-0.1,1h2.1l0.9-0.2l3.3,1.8
		c-3.6,6.1-10.3,10.1-17,12.2c-0.7-1.4-1.6-2.6-2.7-3.7c1.9-0.5,3.7-1.2,5.4-2c-0.6-0.5-1.3-1.1-1.9-1.6c-0.4,0.3-0.8,0.6-1.3,0.8
		c-0.8-1.2-1.8-2.3-2.9-3.2c2.5-1.2,4.7-2.9,6.4-5l2.5,0.5l0.4-5.7H104 M99.3,54.9c1.2-0.8,2.4-1.7,3.5-2.8h-5
		c-0.3,0.3-0.6,0.6-1,0.9C97.7,53.6,98.5,54.2,99.3,54.9 M448.8,42.9l-0.4,5.9h5.6l-0.4,5.2H448l-0.1,1.1c1.6,1,5.4,3.7,6.4,4.5
		l-3.6,5c-1-1.2-2-2.3-3.2-3.4l-0.6,8H441l0.5-6.7c-1.2,1.7-2.6,3.3-4.1,4.7c-1-1.6-2.3-3.1-3.7-4.3c3.1-2.4,5.6-5.3,7.5-8.7h-5.8
		l0.4-5.2h6.7l0.4-5.9H448.8 M373.1,43l-0.3,3.1l3.6-2c1.7,2.1,3.1,4.4,4.2,6.8l-4.4,2.6c-0.9-2.3-2-4.4-3.4-6.4
		c-0.2,2.2-0.4,4.4-0.7,6.6h8.7l-0.4,5.5h-9.1l-0.3,1.5h3.3l-1.1,16.2c-0.1,0.4-0.1,0.8,0,1.2c0.1,0.1,0.2,0.2,0.4,0.2c0,0,0,0,0,0
		h0h0.6c0,0,0,0,0,0c0.2,0,0.3-0.1,0.4-0.2c0.3-0.4,0.4-0.8,0.4-1.2c0.1-0.8,0.3-2.6,0.5-4.9c1.3,1.2,2.9,2.1,4.6,2.6
		c-0.2,1.8-0.5,3.7-1,5.4c-0.3,1-1,1.8-2,2.2c-0.8,0.4-1.6,0.6-2.5,0.6c-0.1,0-0.1,0-0.2,0h-2.7c0,0-0.1,0-0.1,0
		c-1.1,0-2.2-0.4-3-1.2c-0.8-0.8-1.1-1.9-0.9-5l0.4-6.3c-1.8,5-4.7,9.6-8.5,13.3c-1-1.6-2.4-2.9-4-3.9c6-5.3,8.5-12.7,9.8-20.6h-4.8
		l0.4-5.5h5.1c0.4-3.6,0.6-7.2,0.9-10.8H373.1 M302.8,43l5.9,2c-1.4,3-2.9,5.9-4.7,8.7l-2.1,29.9h-6.2l1.4-20.6
		c-0.8,0.8-1.5,1.7-2.3,2.4c-0.7-2.4-1.7-4.6-2.9-6.8C296.6,54.2,300.2,48.9,302.8,43 M271.7,43.2l-2.3,33.2
		c-0.2,3.1-0.9,4.6-2.8,5.6c-1.9,0.9-4.5,1.2-7.9,1.2c-0.3-2-0.8-4-1.7-5.9c2.1,0.1,4.5,0.1,5.2,0.1c0.1,0,0.1,0,0.2,0
		c0,0,0.1,0,0.1,0c0.5-0.1,0.8-0.5,0.8-1l2.3-33.1l0,0H271.7 M125.6,44l3.3,1.4c-1.2,2.9-2.9,5.4-5.1,7.6c1.8,1,3.5,2.2,5.2,3.6
		l-4,3.8c-1.7-1.5-3.6-2.9-5.5-4c-1.6,0.9-3.3,1.7-5,2.3c-0.2-0.6-0.5-1.1-0.8-1.6c-0.3,0.2-0.5,0.5-0.8,0.8
		c4.3,2.6,11.4,5.1,17.5,6.4c-1.4,1.3-2.6,2.8-3.7,4.4c-1.5-0.4-3-0.9-4.6-1.5l-0.5,7.6c0.6-0.5,1.1-1,1.6-1.5l4.1,2.7
		c-1.3,0.9-2.7,1.9-4,2.8c1.3,0.5,2.6,1.1,3.8,1.9l-3.2,3.5c-4.3-2.4-8.9-4.4-13.6-5.8c-0.2,1.2-0.3,2.4-0.3,3.6
		c-10.4,1-12.2,1.3-13.4,1.9c-0.2-1.5-0.7-2.9-1.5-4.2c1-0.5,1.7-1.6,1.6-2.8l0.7-9.7c-1.8,0.7-3.5,1.3-5.3,1.8
		c-0.7-1.6-1.7-3.1-2.9-4.4c7.7-1.9,16.2-5.5,20.9-10.4l2.6,1.4c-0.3-0.4-0.6-0.8-0.9-1.1c0.9-0.3,1.8-0.6,2.7-1
		c-1.3-0.7-2.5-1.3-3.7-1.9l3.6-3.3h-2.8l0.3-4.1h12.8L125.6,44 M119.2,50.5c0.8-0.7,1.6-1.4,2.3-2.2h0h-6.9
		C116,48.9,117.7,49.6,119.2,50.5 M106.3,62.5h6c-1.1-0.6-2.1-1.3-3-2C108.4,61.2,107.4,61.9,106.3,62.5L106.3,62.5 M99.8,65.9h19.3
		c-1.5-0.6-2.9-1.3-4.3-2l-0.1,1.5h-10.6l0.1-1.6C102.8,64.5,101.3,65.2,99.8,65.9L99.8,65.9 M102.9,69.7h13l0.1-0.7h-13L102.9,69.7
		 M102.7,72.6h13l0.1-0.8h-13L102.7,72.6 M118.8,76.9c0.5-0.4,1-0.8,1.5-1.2h0h-5C116.5,76.1,117.6,76.4,118.8,76.9 M102.3,77.9
		l5.7-0.4l-0.4-0.1l1.6-1.7h-6.7L102.3,77.9 M423.8,44.2l-1.1,15.4h-30.6l1.1-15.4H423.8 M398.8,49.9H417l0.1-1.4h-18.2L398.8,49.9
		 M398.4,55.2h18.2l0.1-1.4h-18.2L398.4,55.2 M79.8,44.5l3.8,2.8c-2,3-4.4,5.7-7.1,8.2c1.1,0.7,2.2,1.4,3.2,2.1L78.3,59h0.1l0.9-0.2
		l4.2,0.8c-0.9,3.9-2,7.7-3.3,11.4l-5-1c0.4-1.4,0.9-3.2,1.3-5.2h-1.7l-0.9,12.3c-0.2,2.8-0.8,4.5-2.7,5.5c-1.9,0.9-4.3,1-7.4,1
		c-0.1-2.1-0.6-4.1-1.3-6.1c1,0.1,2,0.1,3,0.1c0.4,0,0.9,0,1.3,0c0.6,0,0.8-0.1,0.9-0.6l0.8-12.1h-5l0.4-5.9h7.6
		c-2.2-1.4-4.4-2.7-6.8-3.8l4.1-3.9c1,0.4,2,0.9,3.1,1.5c0.8-0.8,1.5-1.6,2.1-2.5h-9l0.4-5.5h13L79.8,44.5 M64,44.8l-1.3,19h-6.8
		l-0.2,2.7h6.8l-0.4,5.6h-6.8l-0.2,3.3c2.5-0.2,5-0.5,7.4-0.7l-0.3,5.5c-7.3,0.9-15.2,1.8-20.9,2.5L41,76.5c2.2-0.2,5-0.4,8-0.6
		l0.3-3.8h-6.5l0.4-5.6h6.5l0.2-2.7h-6.7l1.3-19H64 M56.3,52h2l0.2-2.3h-2L56.3,52 M49.1,52h2.1l0.2-2.3h-2.1L49.1,52 M55.8,58.9h2
		l0.2-2.4h-2L55.8,58.9 M48.6,58.9h2.1l0.2-2.4h-2.1L48.6,58.9 M473.8,45l-1.6,23.6h-16.4c1.3,1.2,2.6,2.5,3.7,3.9l-4.8,3.9
		c-1.6-2.1-3.3-4-5.2-5.8l4.5-3.5l0.2,0.2l1.6-22.2H473.8 M461,51.5h6.4l0.1-1.6h-6.4L461,51.5 M460.6,57.6h6.4l0.1-1.7h-6.3
		L460.6,57.6 M460.2,63.8h6.3l0.1-1.7h-6.3L460.2,63.8 M256.1,45.2l-0.4,5.3h-5.3c1.9,2.6,3.4,5.4,4.6,8.4l-5,3.1
		c-0.2-0.6-0.4-1.2-0.6-1.8c-11.1,0.8-13,0.9-14.5,1.5c-0.3-1.2-1.1-4-1.6-5.6c0.9-0.4,1.6-1,2.1-1.8c0.8-1.2,1.6-2.5,2.2-3.8h-4.6
		l0.4-5.3H256.1 M241,55.6l6-0.3c-0.6-1.1-1.2-2.1-1.8-3l3-1.8h-3.8C243.4,52.3,242.3,54,241,55.6 M331.5,45.4l-1.9,27.6h-22.5
		l1.9-27.6H331.5 M314.7,56.3h9.2l0.4-5.1h-9.2L314.7,56.3 M313.9,67.3h9.2l0.4-5.3h-9.2L313.9,67.3 M224.2,45.7l-0.4,6.4h-13.2
		c-0.8,1.2-1.6,2.4-2.4,3.6l-0.3,4.1l3.4-2.7c4.1,3.4,10.4,8.4,13.3,11.9l-5.7,4.8c-2.2-3.1-7.1-7.6-11.1-11.2l-1.5,21h-6.9
		l1.4-19.4c-3.9,3.8-8.4,7-13.3,9.5c-1.1-2-2.4-3.9-3.9-5.7c7.6-3.5,14.1-9,18.8-15.9H186l0.4-6.4H224.2 M175.7,45.7l-2.2,31
		c-0.2,3.1-1,4.7-2.9,5.7c-1.8,0.9-4.2,1.1-7.4,1.1c-0.4,0-0.7,0-1.1,0c-0.2-2.1-0.7-4.1-1.6-6c1.4,0.1,3.2,0.1,4.4,0.1
		c0.6,0,1,0,1.3,0c0.1,0,0.1,0,0.2,0c0,0,0.1,0,0.1,0c0.5,0,0.9-0.5,0.9-1l0.4-5.1H160L159.2,83h-6.3l0.8-11.6H146
		c-1.1,4.7-3.1,9.3-6.3,12.5c-1.4-1.6-2.9-2.9-4.7-4c5-5.1,5.9-12.8,6.3-18.9l1.1-15.3H175.7 M161.1,55.5h7.6l0.3-3.9h-7.6
		L161.1,55.5 M147.9,55.5h6.9l0.3-3.9h-6.9L147.9,55.5 M160.4,65.5h7.6l0.3-4.2h-7.6L160.4,65.5L160.4,65.5 M147,65.5L147,65.5h7
		l0.3-4.2h-6.9C147.4,62.6,147.2,64,147,65.5 M263,47l-1.8,26.1h-5.8l1.8-26.1H263 M359.2,54.5l-0.9,12.2v0h-5.3l-0.8,11.2
		c-0.2,2.4-0.6,3.8-2.2,4.6c-1.6,0.8-3.4,0.9-5.7,0.9c-0.2-1.6-0.6-3.3-1.2-4.8c-0.4,0.7-0.7,1.3-1.2,1.9c-1.2-1.1-2.6-2.1-4-3
		c1.9-2.5,3.3-6.5,4.2-10.3l4.9,1.1c-0.9,3.4-2.2,6.7-3.8,9.9c1.1,0,2.3,0,2.7,0c0,0,0.1,0,0.1,0c0,0,0,0,0.1,0
		c0.3,0,0.5-0.3,0.4-0.6l0.8-11h-6l0.9-12.2H359.2 M347.2,62h5.8l0.2-2.8h-5.8L347.2,62 M426.4,60.9l-0.4,5.5h-15.4l-0.2,2.3h12.7
		l-0.4,5.4H410l-0.2,3.2c0.8,0,1.7,0,2.6,0c0.7,0,1.7,0,2.8,0c3.6,0,8.7,0,11.4-0.1c-1.1,1.8-2,3.8-2.5,5.9h-12.6
		c-7.5,0-12.6-1-15.9-5.5c-1.6,2.5-3.7,4.6-6.2,6.2c-1.3-1.6-2.8-3.1-4.4-4.4c4.5-2.5,7.3-6.9,8.6-12.4l6.2,0.9
		c-0.3,1.3-0.8,2.5-1.3,3.7c0.9,2.2,2.7,3.8,4.9,4.6l0.7-9.8h-16.3l0.4-5.5H426.4 M246.7,61.6l-0.2,3.4h7.3l-0.4,5.4h-7.3l-0.3,4
		c2.6-0.4,5.3-0.8,7.9-1.3l0,5.3c-7.6,1.4-15.9,2.8-21.9,3.9l-0.9-5.7c2.6-0.3,5.7-0.8,9.1-1.3l0.3-5h-7.6L233,65h7.6l0.2-3.4H246.7
		 M357.3,66.8c1.2,2.4,2.1,5,2.6,7.7l-4.7,2.1c-0.4-2.7-1.2-5.4-2.4-7.9L357.3,66.8 M469.3,69c1.6,2.6,3.9,6.3,5,8.5l-6,3
		c-0.8-1.8-1.7-3.6-2.6-5.4c-1.2,6.1-3,7.6-8.1,7.6h-7.1c-6.5,0-8-1.7-7.7-6.9l0.4-5.4h6.2l-0.4,5.3c-0.1,1.3,0.3,1.5,2.6,1.5h6
		c1.9,0,2.3-0.6,2.8-4.9c1.5,1,3.2,1.7,5,2.1l-1.6-2.9L469.3,69 M436.9,69.5l5.4,2.1c-1,3.3-2.4,6.5-4.1,9.6l-5.6-2.8
		C434.6,75.7,436,72.7,436.9,69.5 M332.1,76.6l-0.4,5.8h-28l0.4-5.8h0H332.1 M300.5,38.1l-1.5,3.4c-2.3,5.4-5.6,10.2-9.9,14.2
		l-2.2,2.1l1.4,2.7c1,2,1.9,4,2.6,6.2l1.5,4.8l-0.8,11.9l-0.3,4.3h4.3h6.2h3.7l0.1-1.2h26h3.7l0.3-3.7l0.1-1.8l0.1,0.1
		c1.2,0.8,2.4,1.6,3.4,2.6l1.1,1l0.3,2.9h3.6c2.6,0,5.2-0.1,7.6-1.3l0,0l0,0c1.1-0.6,1.9-1.3,2.5-2.1c0.8,0.6,1.4,1.3,2,2.2l2.6,4
		l3.5-3.3c0.9-0.9,1.8-1.9,2.7-2.9c0.2,0.2,0.4,0.5,0.6,0.7l0.1,0.1l0.1,0.1c1.6,1.4,3.6,2.2,5.7,2.2l0.1,0h2.6c0.1,0,0.2,0,0.2,0
		c1.4,0,2.9-0.3,4.2-1l0,0l0,0c1.6-0.8,2.8-2,3.6-3.6l0.1,0.1c1.4,1.1,2.6,2.4,3.7,3.7l2.3,2.9l3.1-2.1c1.6-1.1,3-2.3,4.3-3.6
		c4.6,3.3,10.3,3.6,15.6,3.6h12.6h3.1l0.8-3c0.3-1,0.6-2,1-2.9l1.8,0.9l5.6,2.8l3.4,1.7l1.3-2.3c2.4,2.3,6,2.6,9.2,2.6h7.1
		c3.7,0,6.2-0.9,8-2.4l0.7,1.6l3.8-1.9l6-3l3.5-1.8l-1.7-3.6c-0.5-1-1.2-2.3-1.9-3.5l0.2-3.4l1.7-23.6l0.3-4.3h-4.3h-18h-2.9
		l0.1-2.1h-4.3h-5.9h-3.7l-0.3,3.7l-0.2,2.2h-2.9H432l-0.3,3.7l-0.4,5.2l-0.3,4.3h2c-0.6,0.6-1.2,1.1-1.9,1.6l-0.8,0.6l0.2-3.4h-3.8
		l0.9-12.5l0.3-4.3h-4.3h-30.6h-3.7l-0.3,3.7l-0.9,13h-3.7l-0.3,3.7l-0.4,5.4l-0.3,4.3h4.3h0.4c-1.1,2.1-2.4,3.7-4.2,4.9
		c0-0.1,0-0.1,0-0.2l0.3-3.1l-3-1c-1.2-0.4-2.3-1-3.2-1.8l-0.4-0.4l0.4-5.4h2.1h3.7l0.3-3.7l0.4-5.5l0.1-1l0.9-0.5l-0.8-1.7l0.1-1.1
		h-0.6l-0.2-0.5c-1.2-2.7-2.8-5.3-4.7-7.7l-2.1-2.6l-0.1,0h-4.3h-5.8h-3.7l-0.3,3.7c0,0.3,0,0.6-0.1,0.9h-2.1h-3
		c-0.2-0.8-0.5-1.5-0.8-2.2l-1.2-3.1l-3.3,0.7l-5.8,1.2l-4.4,0.9l0.8,2.6h-2.1h-3.7l-0.3,3.7l-0.4,5.4l-0.3,4.3h1.6l-0.7,9.5
		l-0.3,3.7c-0.3,0.9-0.6,1.7-1,2.4h-2.7l1.9-26.8l0.3-4.3h-4.3h-20.9l-0.7-0.2l-5.9-2L300.5,38.1L300.5,38.1z M427,70.3h2.7l0.3-3.7
		l0.1-1.6l0.9,0.8c0.8,0.7,1.5,1.5,2.2,2.3l-0.1,0.2c-0.5,1.6-1.1,3.1-1.8,4.6l-4.4,0.2L427,70.3L427,70.3z M108.3,38.9H104h-5.2
		h-3.7l-0.3,3.7l-0.1,1.2l-0.4-0.1l-1.5,1.8c-1.4,1.7-3.1,3-5.1,4l-1.3,0.6c0.1-0.2,0.3-0.4,0.4-0.6l2.2-3.2L85.9,44l-3.8-2.8
		l-1.5-1.1l-1.8,0.4L78,40.8H65.4h-3.7l0,0H44.5h-3.7l-0.3,3.7l-1.3,19l-0.3,4.3h0.1l-0.3,4.1l-0.1,0.9l-1.8,0.1l0.2,3.9l0.3,6.1
		l0.2,4.3l4.3-0.5c1.9-0.2,4.1-0.5,6.4-0.7c3.6-0.4,7.7-0.9,11.7-1.4l0.2,3.2h3.7c3.4,0,6.4-0.1,9.1-1.4c4.5-2.2,4.8-6.8,5-8.8
		l0.2-2.7l1.3,0.3l3.4,0.7l1.2-3.2c0.7-1.9,1.3-3.8,1.9-5.7l0.3,0.4c0.9,1,1.6,2.1,2.2,3.3l1.5,3.2l3-1l-0.2,3.4l-3.3,1.6l2.2,3.7
		c0.5,0.8,0.8,1.7,0.9,2.6l0.7,5.2l4.8-2.1c0.8-0.4,4.1-0.8,12.2-1.5l3.6-0.3l0-1.7c2.7,1.1,5.4,2.4,8,3.8l2.8,1.5l2.1-2.4l3.2-3.5
		l1-1.1l1.9,1.2c1.4,0.9,2.7,2,3.8,3.3l2.8,3.2l3-3c2.8-2.8,5-6.6,6.5-11.3h0.4l-0.5,7.4l-0.3,4.3h4.3h5.5l0,0.3l3.6,0
		c0.4,0,0.8,0,1.1,0c3.8,0,6.6-0.2,9.2-1.5c4.2-2,5-5.9,5.2-9l0.6-9.1l2.2,2.7c1.3,1.6,2.5,3.3,3.5,5.1l1.9,3.4l3.5-1.8
		c2.4-1.2,4.7-2.6,6.8-4.1l-0.7,10.1l-0.3,4.3h4.3h6.9h3.7l0.3-3.7l0.9-12.7c2.1,2.1,3.6,3.7,4.5,4.9l2.5,3.5l3.3-2.8L227,72
		l1.7-1.4l-0.2,2.3l-2.3,0.3l0.7,4.1l0.9,5.7l0.6,4l4-0.7c6.7-1.1,14.6-2.5,22-3.9l0.1,0c0.1,0.4,0.2,0.8,0.2,1.3l0.5,3.5h3.5
		c3.9,0,7.1-0.3,9.7-1.6c4-2,4.7-5.8,5-8.9l2.3-33.2l0.3-4.3h-4.3h-6.1l-0.1,3.8H263l-1.4-0.1l0,0.1h-1.3l0.1-1.8h-4.3h-22.6h-3.7
		l-0.3,3.7l-0.4,5.3l-0.2,3.4l-0.5,0.2l1.2,3.5c0.3,1,0.8,2.4,1.1,3.6h-1.3l-0.3,3.7l-0.2,3.3l-1.3-1.6c-2.5-3.1-7.2-7-11.2-10.3
		h7.5h3.7l0.3-3.7l0.4-6.4l0.3-4.3h-4.3h-37.7h-3.7l-0.3,3.7l-0.4,6.4l-0.3,4.3h4.3h7.6c-3.5,3.4-7.5,6.2-11.9,8.3l-3.5,1.6
		l1.4-20.1l0.3-4.3h-4.3h-33.3h-3.7l-0.3,3.7l-1.1,15.3c0,0.3,0,0.6-0.1,0.9l-6.1-1.3c-0.1,0-0.2,0-0.2-0.1l0.8-0.8l3.3-3.1
		l-3.5-2.9c-0.6-0.5-1.1-0.9-1.7-1.3c1.1-1.6,2.1-3.4,2.8-5.2l1.5-3.7l-3.7-1.5l-3.3-1.4l-1.1-0.4l-1.2,0.2l-0.6,0.1h-12.5h-3.6
		L108.3,38.9L108.3,38.9z M82.7,54.8c0.3-0.4,0.7-0.8,1-1.2l2.8,2.2L85.8,56l-1.5-0.3l-0.4-0.1L82.7,54.8L82.7,54.8z M128.9,72.2
		l1-1.5c0.9-1.3,1.9-2.6,3.1-3.7l4.1-3.8c-0.4,4.5-1.3,8.8-3.5,12l-4.3-2.8L128.9,72.2L128.9,72.2z M130.8,78l1.3-0.9l-1,1L130.8,78
		L130.8,78z"/>
</g>
<g>
	<path id="野餐用不到_但就是想__3_" class="st0" d="M48.8,57h2.1l-0.2,2.4h-2.1L48.8,57z M49.2,50.1h2.1l-0.2,2.3h-2.1
		L49.2,50.1z M58.3,52.5h-2l0.2-2.3h2L58.3,52.5z M57.8,59.3h-2L56,57h2L57.8,59.3z M55.3,72.5h6.8l0.4-5.6h-6.8l0.2-2.8h6.8l1.3-19
		H44.5l-1.3,19h6.7L49.7,67h-6.5l-0.4,5.6h6.5L49,76.3c-3,0.3-5.7,0.5-8,0.6l0.3,6.1c5.8-0.7,13.6-1.6,20.9-2.5l0.3-5.5
		c-2.4,0.2-4.9,0.5-7.4,0.7L55.3,72.5z M79.3,59.3l-0.9,0.2h-0.1l1.4-1.5c-1-0.8-2.1-1.5-3.2-2.1c2.7-2.4,5-5.2,7.1-8.2l-3.8-2.8
		l-1.4,0.3h-13L65,50.7h9c-0.6,0.9-1.4,1.7-2.1,2.5c-1-0.6-2.1-1-3.1-1.5l-4.1,3.9c2.4,1.1,4.6,2.3,6.8,3.8h-7.6l-0.4,5.9h5
		l-0.8,12.1c0,0.5-0.3,0.6-0.9,0.6c-1.5,0-2.9,0-4.4-0.1c0.7,2,1.2,4,1.3,6.1c3.1,0,5.5-0.1,7.4-1c2-0.9,2.5-2.7,2.7-5.5l0.9-12.3
		h1.7c-0.4,2-0.9,3.8-1.3,5.2l5,1c1.3-3.7,2.5-7.5,3.3-11.4L79.3,59.3z M102.8,52.6c-1.1,1-2.2,1.9-3.5,2.8
		c-0.8-0.7-1.6-1.3-2.5-1.8c0.3-0.3,0.6-0.6,1-0.9H102.8z M106.6,49.1l-0.9,0.2h-2.1l0.1-1h6.7l0.2-3.6h-6.7l0.1-1.5h-5.2L98.4,49
		l-2.5-0.5c-1.8,2.1-4,3.8-6.4,5c1.1,0.9,2.1,2,2.9,3.2c0.4-0.3,0.9-0.5,1.3-0.8c0.6,0.5,1.3,1,1.9,1.6c-1.7,0.8-3.6,1.5-5.4,2
		c1.1,1.1,2,2.4,2.7,3.7c6.8-2.2,13.5-6.1,17-12.2L106.6,49.1z M99.8,66.3c1.5-0.6,3-1.4,4.4-2.1l-0.1,1.6h10.6l0.1-1.5
		c1.4,0.7,2.8,1.4,4.3,2L99.8,66.3L99.8,66.3z M120.3,76.1c-0.5,0.4-1,0.8-1.5,1.2c-1.1-0.4-2.3-0.8-3.5-1.2H120.3L120.3,76.1z
		 M102.3,78.3l0.2-2.2h6.7l-1.6,1.7l0.4,0.1L102.3,78.3z M102.8,72.2h13l-0.1,0.8h-13L102.8,72.2z M103,69.4h13l-0.1,0.7h-13
		L103,69.4z M106.3,62.9c1-0.6,2-1.3,3-2c0.9,0.7,2,1.3,3,2H106.3L106.3,62.9z M121.5,48.7c-0.7,0.8-1.4,1.5-2.3,2.2
		c-1.6-0.8-3.2-1.6-4.7-2.2H121.5L121.5,48.7z M129,57c-1.6-1.3-3.3-2.5-5.2-3.6c2.2-2.2,3.9-4.7,5.1-7.6l-3.3-1.4l-1,0.2h-12.8
		l-0.3,4.1h2.8l-3.6,3.3c1.2,0.6,2.5,1.2,3.7,1.9c-0.9,0.4-1.8,0.7-2.7,1c0.3,0.3,0.6,0.7,0.9,1.1l-2.6-1.4
		c-4.7,4.9-13.2,8.5-20.9,10.4c1.2,1.3,2.1,2.8,2.9,4.4c1.8-0.6,3.5-1.2,5.3-1.8l-0.7,9.7c0.1,1.2-0.6,2.2-1.6,2.8
		c0.8,1.3,1.3,2.7,1.5,4.2c1.2-0.5,3-0.9,13.4-1.9c0-1.2,0.1-2.4,0.3-3.6c4.7,1.5,9.3,3.4,13.6,5.8l3.2-3.5
		c-1.2-0.7-2.5-1.3-3.8-1.9c1.3-0.9,2.7-1.9,4-2.8l-4.1-2.7c-0.5,0.5-1,1-1.6,1.5l0.5-7.6c1.6,0.6,3.1,1.1,4.6,1.5
		c1.1-1.6,2.3-3.1,3.7-4.4c-6-1.3-13.1-3.8-17.5-6.4c0.2-0.3,0.5-0.5,0.8-0.8c0.3,0.5,0.6,1.1,0.8,1.6c1.7-0.6,3.4-1.4,5-2.3
		c2,1.2,3.8,2.5,5.5,4L129,57z M160.4,66l0.3-4.3h7.6L168,66H160.4L160.4,66z M147,66c0.2-1.5,0.3-2.9,0.4-4.3h6.9l-0.3,4.3H147
		L147,66z M155.1,52l-0.3,3.9h-6.9l0.3-3.9H155.1z M168.7,55.9h-7.6l0.3-3.9h7.6L168.7,55.9z M175.7,46.1h-33.3l-1.1,15.3
		c-0.4,6.1-1.3,13.8-6.3,18.9c1.7,1.1,3.3,2.5,4.7,4c3.2-3.2,5.2-7.8,6.3-12.5h7.7l-0.8,11.6h6.3l0.8-11.6h7.6l-0.4,5.1
		c0,0.5-0.3,1-0.9,1c-0.1,0-0.2,0-0.3,0c-0.8,0-3.6,0-5.7-0.1c0.8,1.9,1.3,3.9,1.6,6c3.8,0,6.5-0.1,8.5-1.1c2-0.9,2.7-2.6,2.9-5.7
		L175.7,46.1z M207.8,60.1l0.3-4.1c0.9-1.2,1.7-2.4,2.4-3.6h13.2l0.4-6.4h-37.7l-0.4,6.4h16.2c-4.7,6.9-11.2,12.4-18.8,15.9
		c1.5,1.8,2.8,3.7,3.9,5.7c4.9-2.5,9.4-5.7,13.3-9.5L199.2,84h6.9l1.5-21c4,3.6,8.9,8.2,11.1,11.2l5.7-4.8
		c-2.8-3.5-9.2-8.5-13.3-11.9L207.8,60.1z M246.1,70.8h7.3l0.4-5.4h-7.3l0.2-3.4h-5.9l-0.2,3.4H233l-0.4,5.4h7.6l-0.3,5
		c-3.4,0.5-6.5,1-9.1,1.3l0.9,5.7c6-1,14.3-2.4,21.9-3.9l0-5.3c-2.6,0.4-5.3,0.9-7.9,1.3L246.1,70.8z M241,56c1.2-1.6,2.4-3.3,3.4-5
		h3.8l-3,1.8c0.6,0.9,1.2,1.9,1.8,3L241,56z M233.1,51h4.6c-0.6,1.3-1.4,2.6-2.2,3.8c-0.5,0.8-1.3,1.4-2.1,1.8
		c0.5,1.6,1.3,4.4,1.6,5.6c1.5-0.6,3.4-0.7,14.5-1.5c0.2,0.6,0.4,1.2,0.6,1.8l5-3.1c-1.2-3-2.7-5.8-4.6-8.4h5.3l0.4-5.3h-22.6
		L233.1,51z M263,47.5h-5.8l-1.8,26.1h5.8L263,47.5z M265.6,43.7l-2.3,33.1c0.1,0.5-0.3,0.9-0.8,1c-0.1,0-0.2,0-0.3,0
		c-0.7,0-3,0-5.2-0.1c0.8,1.9,1.4,3.8,1.7,5.9c3.5,0,6-0.2,7.9-1.2c1.9-0.9,2.5-2.5,2.8-5.6l2.3-33.2L265.6,43.7L265.6,43.7z
		 M323.9,56.7h-9.2l0.4-5.1h9.2L323.9,56.7z M323.2,67.8h-9.2l0.4-5.3h9.2L323.2,67.8z M331.5,45.9H309l-1.9,27.6h22.5L331.5,45.9z
		 M302.8,43.5c-2.5,5.8-6.2,11.1-10.8,15.5c1.2,2.2,2.1,4.5,2.9,6.8c0.8-0.7,1.5-1.6,2.3-2.4L295.7,84h6.2l2.1-29.9
		c1.7-2.8,3.3-5.7,4.7-8.7L302.8,43.5z M304.1,77l-0.4,5.8h28l0.4-5.8H304.1L304.1,77z M361.1,48h-6c-0.4-1.6-0.9-3.2-1.5-4.8
		l-5.8,1.2c0.4,1.2,0.7,2.4,1,3.6h-7.4l-0.4,5.4h19.8L361.1,48z M347.4,59.7h5.8l-0.2,2.8h-5.8L347.4,59.7z M358.4,67.1l0.9-12.2
		h-16.8l-0.9,12.2h6l-0.8,11c0,0.3-0.2,0.5-0.4,0.6c-0.1,0-0.1,0-0.2,0c-0.4,0-1.6,0-2.7,0c1.6-3.2,2.9-6.5,3.8-9.9l-4.9-1.1
		c-0.9,3.8-2.3,7.7-4.2,10.3c1.4,0.9,2.7,1.9,4,3c0.4-0.6,0.8-1.3,1.2-1.9c0.6,1.5,1,3.2,1.2,4.8c2.4,0,4.2-0.1,5.7-0.9
		c1.6-0.9,2-2.3,2.2-4.6l0.8-11.2L358.4,67.1L358.4,67.1z M353,69.2c1.2,2.5,1.9,5.2,2.4,7.9l4.7-2.1c-0.5-2.7-1.4-5.3-2.6-7.7
		L353,69.2z M373.6,78.8c-0.2,0-0.3-0.1-0.4-0.2c-0.1-0.4-0.1-0.8,0-1.2l1.1-16.2H371l0.3-1.5h9.1l0.4-5.5H372
		c0.3-2.2,0.5-4.5,0.7-6.6c1.4,2,2.5,4.1,3.4,6.4l4.4-2.6c-1.1-2.4-2.5-4.7-4.2-6.8l-3.6,2l0.3-3.1h-5.8c-0.3,3.6-0.5,7.2-0.9,10.8
		h-5.2l-0.4,5.5h4.8c-1.3,7.9-3.9,15.3-9.8,20.6c1.6,1,3,2.4,4,3.9c3.9-3.7,6.8-8.3,8.5-13.3l-0.4,6.3c-0.2,3.2,0.1,4.2,0.8,5
		c0.8,0.8,2,1.2,3.1,1.2h2.7c0.9,0,1.8-0.2,2.7-0.6c0.9-0.5,1.6-1.3,2-2.2c0.5-1.8,0.9-3.6,1-5.4c-1.7-0.6-3.2-1.5-4.6-2.6
		c-0.2,2.2-0.3,4.1-0.5,4.9c0,0.5-0.1,0.9-0.4,1.2c-0.1,0.1-0.3,0.2-0.4,0.2H373.6L373.6,78.8z M417,50.3h-18.2l0.1-1.4h18.2
		L417,50.3z M416.6,55.7h-18.2l0.1-1.4h18.2L416.6,55.7z M423.8,44.6h-30.6L392.1,60h30.6L423.8,44.6z M410,74.5h12.7l0.4-5.4h-12.7
		l0.2-2.3H426l0.4-5.4h-38.1l-0.4,5.4h16.3l-0.7,9.8c-2.2-0.7-4-2.4-4.9-4.6c0.5-1.2,0.9-2.5,1.3-3.7l-6.2-0.9
		c-1.3,5.4-4.2,9.9-8.6,12.4c1.6,1.3,3.1,2.8,4.4,4.4c2.4-1.7,4.5-3.8,6.2-6.2c3.3,4.6,8.4,5.5,15.9,5.5h12.6
		c0.5-2.1,1.4-4.1,2.5-5.9c-3.6,0.1-11.5,0.2-14.3,0.1c-0.9,0-1.8,0-2.6,0L410,74.5z M460.3,62.5h6.3l-0.1,1.7h-6.3L460.3,62.5z
		 M460.7,56.4h6.3l-0.1,1.7h-6.4L460.7,56.4z M461.2,50.3h6.3l-0.1,1.6H461L461.2,50.3z M449.6,71c1.9,1.8,3.6,3.8,5.2,5.8l4.8-3.9
		c-1.2-1.4-2.4-2.7-3.7-3.9h16.4l1.7-23.6h-18l-1.6,22.2l-0.2-0.2L449.6,71z M441,69.6h5.9l0.6-8c1.1,1.1,2.2,2.2,3.2,3.4l3.6-5
		c-1-0.8-4.7-3.5-6.3-4.5l0.1-1.1h5.6l0.4-5.2h-5.6l0.4-5.9h-5.9l-0.4,5.9h-6.7l-0.4,5.2h5.8c-1.9,3.4-4.4,6.4-7.5,8.8
		c1.4,1.3,2.7,2.7,3.7,4.3c1.6-1.4,2.9-3,4.1-4.7L441,69.6z M438.3,81.6c1.7-3,3.1-6.2,4.1-9.6l-5.4-2.1c-1,3.2-2.4,6.2-4.2,8.9
		L438.3,81.6z M474.2,78c-1.1-2.3-3.4-5.9-5-8.5l-5.6,2.6l1.6,2.9c-1.8-0.4-3.4-1.1-5-2.1c-0.6,4.3-0.9,4.9-2.8,4.9h-6
		c-2.3,0-2.7-0.1-2.6-1.5l0.4-5.3H443l-0.4,5.4c-0.4,5.1,1.2,6.9,7.7,6.9h7.1c5.1,0,6.9-1.6,8.1-7.6c1,1.8,1.9,3.6,2.6,5.4L474.2,78
		z"/>
	<path id="野餐用不到_但就是想__1_" class="st2" d="M353.5,43.2c0.6,1.5,1.1,3.1,1.5,4.8h6l-0.4,5.4h-19.8l0.4-5.4h7.4
		c-0.3-1.2-0.6-2.4-1-3.6L353.5,43.2 M104,43.3l-0.1,1.5h6.7l-0.2,3.6h-6.7l-0.1,1h2.1l0.9-0.2l3.3,1.8c-3.6,6.1-10.3,10-17,12.2
		c-0.7-1.4-1.6-2.6-2.7-3.7c1.9-0.5,3.7-1.2,5.4-2c-0.6-0.5-1.3-1.1-1.9-1.6c-0.4,0.3-0.8,0.6-1.3,0.8c-0.8-1.2-1.8-2.3-2.9-3.2
		c2.5-1.2,4.7-2.9,6.4-5l2.5,0.5l0.4-5.7H104 M99.3,55.3c1.2-0.8,2.4-1.7,3.5-2.8h-5c-0.3,0.3-0.6,0.6-1,0.9
		C97.7,54,98.5,54.6,99.3,55.3 M448.8,43.3l-0.4,5.9h5.6l-0.4,5.2H448l-0.1,1.1c1.6,1,5.4,3.7,6.3,4.5l-3.6,5c-1-1.2-2-2.3-3.2-3.4
		l-0.6,8H441l0.5-6.7c-1.2,1.7-2.6,3.3-4.1,4.7c-1-1.6-2.3-3.1-3.7-4.3c3.1-2.4,5.6-5.3,7.5-8.7h-5.8l0.4-5.2h6.6l0.4-5.9H448.8
		 M373.1,43.4l-0.3,3.1l3.6-2c1.7,2.1,3.1,4.4,4.2,6.8l-4.4,2.6c-0.9-2.3-2-4.4-3.4-6.4c-0.2,2.2-0.4,4.4-0.7,6.6h8.7l-0.4,5.5h-9.1
		l-0.3,1.5h3.3l-1.1,16.2c-0.1,0.4-0.1,0.8,0,1.2c0.1,0.1,0.2,0.2,0.4,0.2c0,0,0,0,0,0h0h0.6c0,0,0,0,0,0c0.2,0,0.3-0.1,0.4-0.2
		c0.3-0.4,0.4-0.8,0.4-1.2c0.1-0.8,0.3-2.6,0.5-4.9c1.3,1.2,2.9,2.1,4.6,2.6c-0.2,1.8-0.5,3.7-1,5.4c-0.3,1-1,1.8-2,2.2
		c-0.8,0.4-1.6,0.6-2.5,0.6c-0.1,0-0.1,0-0.2,0h-2.7c0,0-0.1,0-0.1,0c-1.1,0-2.2-0.4-3-1.2c-0.8-0.8-1.1-1.9-0.9-5l0.4-6.3
		c-1.8,5-4.7,9.6-8.5,13.3c-1-1.6-2.4-2.9-4-3.9c5.9-5.3,8.5-12.7,9.8-20.6h-4.8l0.4-5.5h5.1c0.4-3.6,0.6-7.2,0.9-10.8H373.1
		 M302.8,43.5l5.9,2c-1.4,3-2.9,5.9-4.7,8.7L301.9,84h-6.2l1.4-20.6c-0.8,0.8-1.5,1.7-2.3,2.4c-0.7-2.4-1.7-4.6-2.9-6.8
		C296.6,54.6,300.2,49.3,302.8,43.5 M271.7,43.7l-2.3,33.2c-0.2,3.1-0.9,4.6-2.8,5.6c-1.9,0.9-4.5,1.2-7.9,1.2c-0.3-2-0.8-4-1.7-5.9
		c2.1,0.1,4.5,0.1,5.2,0.1c0.1,0,0.1,0,0.2,0c0,0,0.1,0,0.1,0c0.5-0.1,0.8-0.5,0.8-1l2.3-33.1l0,0H271.7 M125.6,44.4l3.3,1.4
		c-1.2,2.9-2.9,5.4-5.1,7.6c1.8,1,3.5,2.2,5.2,3.6l-4,3.8c-1.7-1.5-3.6-2.9-5.5-4c-1.6,0.9-3.3,1.7-5,2.3c-0.2-0.6-0.5-1.1-0.8-1.6
		c-0.3,0.2-0.5,0.5-0.8,0.8c4.3,2.6,11.4,5.1,17.5,6.4c-1.4,1.3-2.6,2.8-3.7,4.4c-1.5-0.4-3-0.9-4.6-1.5l-0.5,7.6
		c0.6-0.5,1.1-1,1.6-1.5l4.1,2.7c-1.3,0.9-2.7,1.9-4,2.8c1.3,0.5,2.6,1.1,3.8,1.9l-3.2,3.5c-4.3-2.4-8.9-4.4-13.6-5.8
		c-0.2,1.2-0.3,2.4-0.3,3.6c-10.4,1-12.2,1.3-13.4,1.9c-0.2-1.5-0.7-2.9-1.5-4.2c1-0.5,1.7-1.6,1.6-2.8l0.7-9.7
		c-1.8,0.7-3.5,1.3-5.3,1.8c-0.7-1.6-1.7-3.1-2.9-4.4c7.7-1.9,16.2-5.5,20.9-10.4l2.6,1.4c-0.3-0.4-0.6-0.8-0.9-1.1
		c0.9-0.3,1.8-0.6,2.7-1c-1.3-0.7-2.5-1.3-3.7-1.9l3.6-3.3h-2.8l0.3-4.1h12.8L125.6,44.4 M119.2,50.9c0.8-0.7,1.6-1.4,2.3-2.2h0
		h-6.9C116,49.4,117.7,50.1,119.2,50.9 M106.3,62.9h6c-1.1-0.6-2.1-1.3-3-2C108.4,61.6,107.4,62.3,106.3,62.9L106.3,62.9 M99.8,66.3
		h19.3c-1.5-0.6-2.9-1.3-4.3-2l-0.1,1.5h-10.6l0.1-1.6C102.8,64.9,101.3,65.7,99.8,66.3L99.8,66.3 M102.9,70.1h13l0.1-0.7h-13
		L102.9,70.1 M102.7,73.1h13l0.1-0.8h-13L102.7,73.1 M118.8,77.3c0.5-0.4,1-0.8,1.5-1.2h0h-5C116.5,76.5,117.6,76.9,118.8,77.3
		 M102.3,78.3l5.7-0.4l-0.4-0.1l1.6-1.7h-6.7L102.3,78.3 M423.8,44.6L422.7,60h-30.6l1.1-15.4H423.8 M398.8,50.3H417l0.1-1.4h-18.2
		L398.8,50.3 M398.4,55.7h18.2l0.1-1.4h-18.2L398.4,55.7 M79.8,44.9l3.8,2.8c-2,3-4.4,5.7-7.1,8.2c1.1,0.7,2.2,1.4,3.2,2.1l-1.4,1.5
		h0.1l0.9-0.2l4.2,0.8c-0.9,3.9-2,7.7-3.3,11.4l-5-1c0.4-1.4,0.9-3.2,1.3-5.2h-1.7l-0.9,12.3c-0.2,2.8-0.8,4.5-2.7,5.5
		c-1.9,0.9-4.3,1-7.4,1C63.6,82,63.2,80,62.4,78c1,0.1,2,0.1,3,0.1c0.4,0,0.9,0,1.3,0c0.6,0,0.8-0.1,0.9-0.6l0.8-12.1h-5l0.4-5.9
		h7.6c-2.2-1.4-4.4-2.7-6.8-3.8l4.1-3.9c1,0.4,2,0.9,3.1,1.5c0.8-0.8,1.5-1.6,2.1-2.5h-9l0.4-5.5h13L79.8,44.9 M64,45.2l-1.3,19
		h-6.8L55.7,67h6.8l-0.4,5.6h-6.8l-0.2,3.3c2.5-0.2,5-0.5,7.4-0.7l-0.3,5.5c-7.3,0.9-15.2,1.8-20.9,2.5L41,77c2.2-0.2,5-0.4,8-0.6
		l0.3-3.8h-6.5l0.4-5.6h6.5l0.2-2.8h-6.7l1.3-19H64 M56.3,52.5h2l0.2-2.3h-2L56.3,52.5 M49.1,52.5h2.1l0.2-2.3h-2.1L49.1,52.5
		 M55.8,59.3h2l0.2-2.4h-2L55.8,59.3 M48.6,59.3h2.1l0.2-2.4h-2.1L48.6,59.3 M473.8,45.4l-1.6,23.6h-16.4c1.3,1.2,2.6,2.5,3.7,3.9
		l-4.8,3.9c-1.6-2.1-3.3-4-5.2-5.8l4.5-3.5l0.2,0.2l1.6-22.2H473.8 M461,51.9h6.4l0.1-1.6h-6.3L461,51.9 M460.6,58.1h6.4l0.1-1.7
		h-6.3L460.6,58.1 M460.2,64.3h6.3l0.1-1.7h-6.3L460.2,64.3 M256.1,45.7l-0.4,5.3h-5.3c1.9,2.6,3.4,5.4,4.6,8.4l-5,3.1
		c-0.2-0.6-0.4-1.2-0.6-1.8c-11.1,0.8-13,0.9-14.5,1.5c-0.3-1.2-1.1-4-1.6-5.6c0.9-0.4,1.6-1,2.1-1.8c0.8-1.2,1.6-2.5,2.2-3.8h-4.6
		l0.4-5.3H256.1 M241,56l6-0.3c-0.6-1.1-1.2-2.1-1.8-3l3-1.8h-3.8C243.4,52.7,242.3,54.4,241,56 M331.5,45.9l-1.9,27.6h-22.5
		l1.9-27.6H331.5 M314.7,56.7h9.2l0.4-5.1h-9.2L314.7,56.7 M313.9,67.8h9.2l0.4-5.3h-9.2L313.9,67.8 M224.2,46.1l-0.4,6.4h-13.2
		c-0.8,1.2-1.6,2.4-2.4,3.6l-0.3,4.1l3.4-2.7c4.1,3.4,10.4,8.4,13.3,11.9l-5.7,4.8c-2.2-3.1-7.1-7.6-11.1-11.2l-1.5,21h-6.9
		l1.4-19.4c-3.9,3.8-8.4,7-13.3,9.5c-1.1-2-2.4-3.9-3.9-5.7c7.6-3.5,14.1-9,18.8-15.9H186l0.4-6.4H224.2 M175.7,46.1l-2.2,31
		c-0.2,3.1-1,4.7-2.9,5.7c-1.8,0.9-4.2,1.1-7.4,1.1c-0.4,0-0.7,0-1.1,0c-0.2-2.1-0.7-4.1-1.6-6c1.4,0.1,3.2,0.1,4.4,0.1
		c0.6,0,1,0,1.3,0c0.1,0,0.1,0,0.2,0c0,0,0.1,0,0.1,0c0.5,0,0.9-0.5,0.9-1l0.4-5.1H160l-0.8,11.6h-6.3l0.8-11.6H146
		c-1.1,4.7-3.1,9.3-6.3,12.5c-1.4-1.6-2.9-2.9-4.7-4c5-5.1,5.9-12.8,6.3-18.9l1.1-15.3H175.7 M161.1,55.9h7.6L169,52h-7.6
		L161.1,55.9 M147.9,55.9h6.9l0.3-3.9h-6.9L147.9,55.9 M160.4,66h7.6l0.3-4.2h-7.6L160.4,66L160.4,66 M147,66L147,66h7l0.3-4.2h-6.9
		C147.4,63.1,147.2,64.5,147,66 M263,47.5l-1.8,26.1h-5.8l1.8-26.1H263 M359.2,54.9l-0.9,12.2v0h-5.3l-0.8,11.2
		c-0.2,2.4-0.6,3.8-2.2,4.6c-1.6,0.8-3.4,0.9-5.7,0.9c-0.2-1.6-0.6-3.3-1.2-4.8c-0.4,0.7-0.7,1.3-1.2,1.9c-1.2-1.1-2.6-2.1-4-3
		c1.9-2.5,3.3-6.5,4.2-10.3l4.9,1.1c-0.9,3.4-2.2,6.7-3.8,9.9c1.1,0,2.3,0,2.7,0c0,0,0.1,0,0.1,0c0,0,0,0,0.1,0
		c0.3,0,0.5-0.3,0.4-0.6l0.8-11h-6l0.9-12.2H359.2 M347.2,62.4h5.8l0.2-2.8h-5.8L347.2,62.4 M426.4,61.3l-0.4,5.4h-15.4l-0.2,2.3
		h12.7l-0.4,5.4H410l-0.2,3.2c0.8,0,1.7,0,2.6,0c0.7,0,1.7,0,2.8,0c3.6,0,8.7,0,11.4-0.1c-1.1,1.8-2,3.8-2.5,5.9h-12.6
		c-7.5,0-12.6-1-15.9-5.5c-1.6,2.5-3.7,4.6-6.2,6.2c-1.3-1.6-2.8-3.1-4.4-4.4c4.5-2.5,7.3-6.9,8.6-12.4l6.2,0.9
		c-0.3,1.3-0.8,2.5-1.3,3.7c0.9,2.2,2.7,3.8,4.9,4.6l0.7-9.8h-16.3l0.4-5.4H426.4 M246.7,62.1l-0.2,3.4h7.3l-0.4,5.4h-7.3l-0.3,4
		c2.6-0.4,5.3-0.8,7.9-1.3l0,5.3c-7.6,1.4-15.9,2.8-21.9,3.9l-0.9-5.7c2.6-0.3,5.7-0.8,9.1-1.3l0.3-5h-7.6l0.4-5.4h7.6l0.2-3.4
		H246.7 M357.3,67.2c1.2,2.4,2.1,5,2.6,7.7l-4.7,2.1c-0.4-2.7-1.2-5.4-2.4-7.9L357.3,67.2 M469.3,69.5c1.6,2.6,3.9,6.3,5,8.5l-6,3
		c-0.8-1.8-1.7-3.6-2.6-5.4c-1.2,6.1-3,7.6-8.1,7.6h-7.1c-6.5,0-8-1.7-7.7-6.9L443,71h6.2l-0.4,5.3c-0.1,1.3,0.3,1.5,2.6,1.5h6
		c1.9,0,2.3-0.6,2.8-4.9c1.5,1,3.2,1.7,5,2.1l-1.6-2.9L469.3,69.5 M436.9,69.9l5.4,2.1c-1,3.3-2.4,6.5-4.1,9.6l-5.6-2.8
		C434.6,76.1,436,73.1,436.9,69.9 M332.1,77l-0.4,5.8h-28l0.4-5.8h0H332.1 M354.8,40.9l-1.6,0.3l-5.8,1.2l-2.2,0.5l0.7,2.1
		c0.1,0.3,0.2,0.6,0.3,0.9h-4.8h-1.9l-0.1,1.9l-0.4,5.4l-0.2,2.1h1.6L339.6,67l-0.2,2.1h0.4c-0.9,3.2-2.1,6-3.4,7.7l-1.3,1.7
		l1.8,1.1c1.3,0.8,2.5,1.7,3.7,2.8l1.7,1.5c0,0,0,0.1,0,0.1l0.2,1.8h1.8c2.5,0,4.6-0.1,6.7-1.1l0,0l0,0c1.5-0.8,2.3-2,2.7-3.3
		l0.9,0.6c1.4,0.9,2.5,2,3.4,3.4l1.3,2l1.7-1.7c1.7-1.7,3.3-3.5,4.7-5.5c0.1,1.4,0.5,2.5,1.4,3.4l0.1,0.1l0.1,0.1
		c1.2,1.1,2.7,1.7,4.4,1.7l0.1,0l2.6,0c0.1,0,0.1,0,0.2,0c1.2,0,2.3-0.3,3.3-0.8c1.4-0.7,2.5-1.9,3-3.4l0,0l0,0
		c0.6-1.9,0.9-3.9,1.1-5.9l0.1-1.6l-1.5-0.5c-1.4-0.5-2.8-1.2-3.9-2.2l-1.2-1l0.6-8.3h4h1.9l0.1-1.9l0.4-5.5l0.1-2l0.3-0.2l-0.7-1.6
		c-1.2-2.6-2.7-5-4.4-7.2l-1.1-1.3l-1.5,0.8l-0.3,0.2l0.1-1.6h-2.2h-5.8h-1.8l-0.1,1.8c-0.1,1.2-0.2,2.4-0.3,3.5
		c-0.1,1.8-0.3,3.6-0.4,5.4h-1.8l0.3-4l0.2-2.1h-2.1h-4.5c-0.3-1.2-0.7-2.4-1.2-3.5L354.8,40.9L354.8,40.9z M360.8,61.7L360.8,61.7
		h2.4c-0.6,3.1-1.5,5.9-2.5,8.3c-0.1-0.4-0.3-0.8-0.4-1.1l0.1-1.6L360.8,61.7L360.8,61.7z M301.7,41l-0.7,1.7
		c-2.4,5.6-5.9,10.6-10.3,14.9l-1.1,1l0.7,1.3c1.1,2.1,2,4.3,2.7,6.5l1,3l0.9-0.8l-1.1,15.3l-0.1,2.1h2.1h6.2h1.9l0.1-1.2h27.9h1.9
		l0.1-1.9l0.4-5.8l0.1-2.1h-2.1h-0.6l0.1-1.3l1.9-27.6l0.1-2.1h-2.1h-21.2l-1-0.3l-5.9-2L301.7,41L301.7,41z M316.9,53.6h5.2
		l-0.1,1.1h-5.2L316.9,53.6L316.9,53.6z M306,54.8c0.2-0.3,0.3-0.5,0.5-0.8l-1.4,19.4L305,75h-0.4L306,54.8L306,54.8z M316.2,64.5
		h5.2l-0.1,1.3h-5.2L316.2,64.5L316.2,64.5z M106.2,41.3H104h-5.2H97l-0.1,1.9l-0.2,3.4l-0.3-0.1l-1.2-0.2l-0.8,0.9
		c-1.6,1.9-3.5,3.4-5.8,4.5l-2.9,1.4l2.5,2c0.8,0.6,1.5,1.4,2.1,2.2c-0.3,0.1-0.5,0.2-0.8,0.2l-3.2,0.9l2.3,2.4
		c0.5,0.5,1,1.1,1.4,1.7c-0.5,0.1-1,0.3-1.5,0.4l-3.2,0.8l2.2,2.5c1,1.1,1.9,2.4,2.5,3.9l0.7,1.6l1.7-0.5c0.9-0.3,1.7-0.5,2.5-0.8
		L94.5,77l0,0.1l0,0.1c0,0.4-0.2,0.7-0.5,0.9l-1.9,1l1.1,1.9c0.6,1,1,2.2,1.2,3.4l0.4,2.6l2.4-1c1-0.4,3.1-0.8,12.8-1.7l1.8-0.2
		l0-1.8c0-0.3,0-0.6,0-0.9c3.8,1.3,7.4,3,10.9,4.9l1.4,0.8l1.1-1.2l3.2-3.5l1.7-1.8l-2.2-1.2c-0.3-0.2-0.5-0.3-0.8-0.5
		c0.4-0.3,0.8-0.5,1.2-0.8l2.4-1.7l-2.4-1.6l-4.1-2.7l-0.4-0.3l0.1-1.4c0.8,0.3,1.5,0.5,2.2,0.7l1.4,0.4l0.8-1.2
		c1-1.5,2.1-2.8,3.4-4l2.8-2.6l-3.7-0.8c-1.3-0.3-2.6-0.6-3.8-0.9l3.5-3.3l1.7-1.6l-1.8-1.4c-1.1-0.9-2.2-1.7-3.3-2.4
		c1.6-1.9,2.9-4.1,3.8-6.4l0.7-1.8l-1.8-0.8l-3.3-1.4l-0.5-0.2l-0.6,0.1l-0.8,0.1h-12.7h-1.9l0,0.2h-3.8L106.2,41.3L106.2,41.3z
		 M119.2,59.1c0,0,0.1,0,0.1-0.1c0.1,0.1,0.2,0.2,0.4,0.2C119.6,59.2,119.4,59.2,119.2,59.1L119.2,59.1z M450.9,41.3h-2.1h-5.9H441
		l-0.1,1.9l-0.3,4.1h-4.8h-1.9l-0.1,1.9l-0.4,5.2l-0.2,2.1h2.1h2.1c-1.4,1.9-3.1,3.7-5.1,5.2l-1.9,1.5l1.8,1.6c1.1,1,2.2,2.2,3,3.5
		l-0.3,1.1c-0.9,3-2.2,5.8-4,8.4l-1.3,1.9l2,1l5.6,2.8l1.7,0.9l0.9-1.7c0.4-0.6,0.7-1.3,1-1.9c0.3,0.8,0.7,1.5,1.3,2.2
		c1.5,1.6,3.9,2.3,8,2.3h7.1c4.4,0,6.9-1.2,8.5-4.3c0.1,0.3,0.3,0.6,0.4,0.9l0.8,2l1.9-0.9l6-3l1.8-0.9l-0.9-1.8
		c-0.8-1.7-2.2-3.9-3.5-6.1h1.4l0.1-1.9l1.6-23.6l0.1-2.1h-2.1h-18H454l-0.1,1.9l-0.1,2h-3.2l0.3-3.8L450.9,41.3L450.9,41.3z
		 M452.8,56.5h0.3l0,0.2C452.9,56.6,452.9,56.6,452.8,56.5L452.8,56.5z M452.1,66.5l0.2-0.2l0.1-0.2l0,0.2L452.1,66.5L452.1,66.5z
		 M449,68.9l0.2-2.5l1.2,1.4L449,68.9L449,68.9z M450.9,75.7l0-0.4c0.1,0.1,0.3,0.3,0.4,0.4C451.2,75.7,451,75.7,450.9,75.7
		L450.9,75.7z M273.8,41.7h-2.1h-6.1l-0.1,2l-1.9-0.1l-0.1,2H263h-4.9l0.1-1.8h-2.1h-22.6h-1.9l-0.1,1.9l-0.4,5.3L231,53h2.1h1.2
		c-0.1,0.2-0.3,0.5-0.5,0.7l0,0l0,0c-0.3,0.5-0.7,0.8-1.2,1l-1.7,0.7l0.6,1.8c0.5,1.5,1.3,4.2,1.5,5.4l0.2,0.8H233h-1.9l-0.1,1.9
		l-0.4,5.4l-0.1,2.1h2.1h5.4l-0.1,1.2c-2.6,0.4-5.3,0.8-7.4,1l-2.1,0.2l0.3,2.1l0.9,5.7l0.3,2l2-0.3c6.7-1.1,14.6-2.5,21.9-3.9
		l1.6-0.3l0-0.8c0.5,1.3,0.8,2.7,1,4.1l0.2,1.7h1.7c3.7,0,6.5-0.2,8.8-1.4c3.1-1.5,3.7-4.4,3.9-7.2l2.3-33.2L273.8,41.7L273.8,41.7z
		 M254.1,53h0.7l-0.1,1.1C254.6,53.7,254.3,53.4,254.1,53L254.1,53z M252.2,63.5l2-1.2l-0.1,1.2h-0.4H252.2L252.2,63.5z M255.7,75.6
		h5.5h0.2l0,0.2c-1,0-2.7,0-4.3-0.1L255.7,75.6L255.7,75.6L255.7,75.6z M425.9,42.6h-2.1h-30.6h-1.9l-0.1,1.9l-1,14.9h-1.8h-1.9
		l-0.1,1.9l-0.4,5.4l-0.1,2.1h2.1h3.4c-1.4,4.2-3.8,7.4-7.1,9.3l-2.6,1.5l2.3,1.8c1.5,1.2,2.9,2.6,4.1,4.1l1.2,1.5l1.5-1
		c2-1.3,3.7-2.9,5.2-4.7c3.8,3.6,9.1,4.4,15.8,4.4h12.6h1.6l0.4-1.5c0.5-1.9,1.2-3.7,2.2-5.4l1.9-3.2l-3.7,0.1c-0.5,0-1.2,0-1.9,0.1
		l0.1-1l0.4-5.4l0-0.5h0.8h1.9l0.1-1.9l0.4-5.4l0.2-2.1h-2.1h-1.6l1-14.6L425.9,42.6L425.9,42.6z M401.9,68.8h0.2l-0.3,4.4
		c-0.4-0.4-0.7-0.8-0.9-1.2C401.3,70.9,401.6,69.9,401.9,68.8L401.9,68.8L401.9,68.8z M80.2,42.7l-0.9,0.2l-1.1,0.3H65.4h-1.9l0,0
		h-19h-1.9l-0.1,1.9l-1.3,19l-0.1,2.1h0.1l0,0.6l-0.4,5.6l-0.1,2.1h2.1h3.5c-2,0.2-3.8,0.3-5.4,0.4L39,75.1l0.1,1.9l0.3,6.1l0.1,2.2
		l2.1-0.3c1.9-0.2,4.1-0.5,6.4-0.7c4.3-0.5,9.1-1,13.7-1.6c0.1,0.5,0.1,1,0.2,1.6l0.1,1.9h1.9c3.3,0,5.9-0.1,8.3-1.2
		c3.1-1.5,3.7-4.3,3.9-7.1l0.3-5l3.5,0.7l1.7,0.3l0.6-1.6c1.4-3.8,2.5-7.7,3.4-11.7l0.5-2l-2-0.4l-1.3-0.3l0.1-0.1l-1.8-1.3
		c-0.4-0.3-0.8-0.6-1.2-0.9c2-2.1,3.9-4.3,5.5-6.7l1.1-1.6l-1.5-1.1L81,43.3L80.2,42.7L80.2,42.7z M64.5,67.3h1.9l-0.6,8.8
		c-0.1,0-0.2,0-0.3,0c-0.3,0-0.7,0-1,0l0-0.9l0.1-2.3l-0.5,0l0-0.3L64.5,67.3L64.5,67.3z M226.3,44.1h-2.1h-37.7h-1.9l-0.1,1.9
		l-0.4,6.4l-0.1,2.1h2.1h12.2c-4.2,5.1-9.6,9.3-15.6,12.1l-2.4,1.1l1.7,2c1.4,1.7,2.6,3.5,3.7,5.4l0.9,1.7l1.7-0.9
		c3.6-1.8,6.9-4,10-6.5l-1,14.5l-0.1,2.1h2.1h6.9h1.9l0.1-1.9l1.2-16.9c3.9,3.6,6.4,6.3,7.8,8.1l1.3,1.8l1.7-1.4l5.7-4.8l1.5-1.3
		l-1.2-1.5c-2.6-3.2-7.8-7.5-11.9-10.9c-0.6-0.5-1.1-0.9-1.6-1.3l-1.2-1c0.1-0.2,0.2-0.3,0.3-0.5h12.1h1.9l0.1-1.9l0.4-6.4
		L226.3,44.1L226.3,44.1z M177.8,44.1h-2.1h-33.3h-1.9l-0.1,1.9l-1.1,15.3c-0.5,6.6-1.5,13.3-5.8,17.6l-1.7,1.7l2.1,1.3
		c1.6,1,3,2.3,4.2,3.7l1.4,1.6l1.5-1.5c2.9-2.8,5-6.8,6.5-11.9h4l-0.7,9.5l-0.1,2.1h2.1h6.3h1l0,0.3l1.8,0c0.4,0,0.8,0,1.1,0
		c3.5,0,6.1-0.2,8.3-1.3c3.2-1.6,3.9-4.6,4.1-7.3l2.2-31L177.8,44.1L177.8,44.1z M162.6,63.7h3.6l0,0.3h-3.6L162.6,63.7L162.6,63.7z
		 M149.3,63.7h2.9l0,0.3h-2.9C149.3,63.9,149.3,63.8,149.3,63.7L149.3,63.7z M161.9,73.9h3.6l-0.1,2.1l-0.5,0c-1.2,0-2.3,0-3.1-0.1
		L161.9,73.9L161.9,73.9z"/>
</g>
<path id="買_拷貝" class="st3" d="M523.4,44.3l-5.1,0.5l-0.2-2.5l5.1-0.5L523.4,44.3z M512.2,45.4l-4.9,0.5l-0.2-2.5l4.9-0.5
	L512.2,45.4z M501.1,46.4l-4.8,0.4l-0.2-2.5l4.9-0.4L501.1,46.4z M529.9,35.7l-41.2,3.9l1.3,13.3l41.2-3.9L529.9,35.7z M501.8,70.1
	l20.6-1.9l0.2,1.8l-20.6,1.9L501.8,70.1z M501.2,64.2l20.6-1.9l0.2,1.7l-20.6,1.9L501.2,64.2z M500.6,58.2l20.6-1.9l0.2,1.7
	l-20.6,1.9L500.6,58.2z M530.7,73.8L528.6,51l-35.8,3.4l2.1,22.8l6.8-0.6c-4.1,2.1-8.5,3.7-12.9,4.9c2.1,1.5,4.1,3.1,6,4.9
	c5.3-2,11.9-5.2,16-8.6l-4.7-1.6l13.1-1.2L515,78c5,1.2,9.9,2.8,14.7,4.8l7.8-4.4c-3.4-1.1-8.9-2.7-14-4L530.7,73.8z"/>
<g>
	<path id="矩形_11_拷貝_3_" class="st4" d="M98.6,114.2l452.8-7.7l-20,50l-425.9-4.5L98.6,114.2z"/>
	<path id="矩形_11_拷貝_1_" class="st5" d="M547,109.5l-17.6,43.9l-421.4-4.5l-5.8-31.8L547,109.5 M551.4,106.4l-452.8,7.7
		l6.9,37.8l425.9,4.5L551.4,106.4L551.4,106.4z"/>
</g>
<g>
	<path id="矩形_11_3_" class="st3" d="M96.4,110.2l453.9-3.8l-19.1,47l-425.9-4.5L96.4,110.2z"/>
	<path id="矩形_11_1_" class="st5" d="M545.8,109.5l-16.6,41L107.7,146l-7.6-32.8L545.8,109.5 M550.3,106.4l-453.9,3.8l8.9,38.8
		l425.9,4.5L550.3,106.4L550.3,106.4z"/>
</g>
<path id="偷偷說...放在那邊沒用啦_至少看了開心ㄚ_拷貝" class="st4" d="M131.6,122.4c-1.1,2.4-2.5,4.6-4.3,6.6
	c0.3,0.7,0.5,1.4,0.6,2.2c0.4-0.4,0.7-0.8,1.1-1.2l-1.5,8.3h1.9l2.1-11.9c0.7-1.1,1.3-2.3,1.9-3.4L131.6,122.4z M133.2,133.6
	c0.1-0.3,0.1-0.6,0.2-1h1.7l-0.2,1H133.2z M135.5,130.3l-0.2,0.9h-1.7l0.2-0.9H135.5L135.5,130.3z M137.4,128.8h-5.1l-0.6,3.6
	c-0.2,1.7-0.8,3.4-1.8,4.9c0.5,0.3,0.9,0.6,1.3,1c0.7-1,1.3-2.1,1.6-3.3h1.9l-0.2,1.3c0,0.1-0.1,0.2-0.2,0.2c0,0,0,0,0,0
	c-0.1,0-0.5,0-1,0c0.2,0.5,0.2,1.1,0.2,1.7c0.6,0.1,1.3,0,1.8-0.3c0.5-0.3,0.8-0.9,0.8-1.5L137.4,128.8z M139.4,136.2
	c0,0.2-0.1,0.3-0.3,0.3c0,0,0,0,0,0c-0.2,0-1,0-1.7,0c0.2,0.5,0.2,1.1,0.2,1.7c0.8,0.1,1.7,0,2.5-0.3c0.6-0.3,1-0.9,1-1.6l1.4-7.7
	h-1.7L139.4,136.2z M139.8,129.2h-1.6l-1.1,6.2h1.5L139.8,129.2z M135.4,126.4c1-0.6,1.9-1.2,2.8-1.9c0.7,0.7,1.5,1.4,2.3,1.9H135.4
	z M138.5,122.2c-1.8,1.8-4.1,3.1-6.5,3.9c0.4,0.5,0.7,1,1,1.5c0.5-0.2,0.9-0.4,1.4-0.6l-0.2,1h6.6l0.2-1.3c0.5,0.3,0.9,0.5,1.4,0.8
	c0.4-0.6,0.9-1.1,1.4-1.6c-1.6-0.5-3.1-1.3-4.3-2.5c0.1-0.2,0.3-0.3,0.4-0.4L138.5,122.2z M149,122.4c-1.1,2.4-2.5,4.6-4.3,6.6
	c0.3,0.7,0.5,1.4,0.6,2.2c0.4-0.4,0.7-0.8,1.1-1.2l-1.5,8.3h1.9l2.1-11.9c0.7-1.1,1.3-2.3,1.9-3.4L149,122.4z M150.6,133.6
	c0.1-0.3,0.1-0.6,0.2-1h1.7l-0.2,1H150.6L150.6,133.6z M152.9,130.3l-0.2,0.9h-1.7l0.2-0.9H152.9z M154.9,128.8h-5.1l-0.6,3.6
	c-0.2,1.7-0.8,3.4-1.8,4.9c0.5,0.3,0.9,0.6,1.3,1c0.7-1,1.3-2.1,1.6-3.3h1.9l-0.2,1.3c0,0.1-0.1,0.2-0.2,0.2c0,0,0,0,0,0
	c-0.1,0-0.5,0-1,0c0.2,0.5,0.2,1.1,0.2,1.7c0.6,0.1,1.3,0,1.8-0.3c0.5-0.3,0.8-0.9,0.8-1.5L154.9,128.8z M156.8,136.2
	c0,0.2-0.1,0.3-0.3,0.3c0,0,0,0,0,0c-0.2,0-1,0-1.7,0c0.2,0.5,0.2,1.1,0.2,1.7c0.8,0.1,1.7,0,2.5-0.3c0.6-0.3,1-0.9,1-1.6l1.4-7.7
	h-1.7L156.8,136.2z M157.2,129.2h-1.5l-1.1,6.2h1.5L157.2,129.2z M152.8,126.4c1-0.6,1.9-1.2,2.8-1.9c0.7,0.7,1.5,1.4,2.3,1.9H152.8
	L152.8,126.4z M155.9,122.2c-1.8,1.8-4.1,3.1-6.5,3.9c0.4,0.5,0.7,1,1,1.5c0.5-0.2,0.9-0.4,1.4-0.6l-0.2,1h6.6l0.2-1.3
	c0.5,0.3,0.9,0.5,1.4,0.8c0.4-0.6,0.9-1.1,1.4-1.6c-1.6-0.5-3.1-1.3-4.3-2.5c0.1-0.2,0.3-0.3,0.4-0.4L155.9,122.2z M171.4,128.7h3
	l-0.3,1.9h-3L171.4,128.7z M165.1,135.7h-1.6l0.3-1.9h1.6L165.1,135.7z M174.3,136.2c-0.2,0-0.3-0.1-0.2-0.5l0.6-3.4h1.1l0.9-4.9
	c0.1,0.2,0.2,0.4,0.2,0.6l1.7-1.1c-0.7-1.6-1.7-3.1-2.8-4.5l-1.6,0.9c0.8,1.1,1.5,2.3,2.2,3.5h-5.8c1.1-1.1,2.2-2.4,3-3.7l-1.8-0.6
	c-0.8,1.3-1.8,2.5-3,3.5l0.2-0.9h-3l1.4-0.5c-0.1-0.8-0.3-1.5-0.5-2.2L165,123c0.2,0.7,0.4,1.4,0.4,2.1h-2.5l-0.3,1.6h5.3l-0.1,0.1
	c0.4,0.4,0.8,0.9,1.2,1.4c0.2-0.2,0.5-0.4,0.7-0.6l-0.8,4.6h1.1c-0.5,2-1.2,3.5-3.4,4.4l0.8-4.6h-5l-1,5.9h1.7l0.1-0.7h3.3l0.1-0.4
	c0.3,0.4,0.6,0.9,0.8,1.4c3-1.2,4-3.3,4.7-6h0.8l-0.6,3.4c-0.3,1.8-0.1,2.4,1.5,2.4h1.1c1.2,0,1.8-0.6,2.4-2.9
	c-0.6-0.1-1.1-0.4-1.6-0.8c-0.3,1.6-0.4,1.8-0.7,1.8H174.3L174.3,136.2z M162.5,131.3h4.8l0.3-1.5h-4.8L162.5,131.3z M168,127.5
	h-4.8l-0.3,1.5h4.8L168,127.5z M180.4,137c0.9,0,1.7-0.7,1.9-1.6c0.2-0.7-0.2-1.4-0.9-1.6c-0.1,0-0.3-0.1-0.4,0
	c-0.9,0-1.7,0.7-1.8,1.6c-0.2,0.7,0.2,1.4,0.9,1.6C180.2,137,180.3,137,180.4,137L180.4,137z M186.4,137c0.9,0,1.7-0.7,1.9-1.6
	c0.2-0.7-0.2-1.4-0.9-1.6c-0.1,0-0.3-0.1-0.4,0c-0.9,0-1.7,0.7-1.8,1.6c-0.2,0.7,0.2,1.4,0.9,1.6C186.1,137,186.2,137,186.4,137
	L186.4,137z M192.3,137c0.9,0,1.7-0.7,1.9-1.6c0.2-0.7-0.2-1.4-0.9-1.6c-0.1,0-0.3-0.1-0.4,0c-0.9,0-1.7,0.7-1.8,1.6
	c-0.2,0.7,0.2,1.4,0.9,1.6C192.1,137,192.2,137,192.3,137L192.3,137z M211.3,125h2.8c-0.5,1.8-1.3,3.5-2.2,5.2
	C211.4,128.5,211.2,126.8,211.3,125L211.3,125z M218.1,125l0.4-2.3h-6.1c0.5-1.1,0.9-2.3,1.3-3.4l-2.5-0.4c-0.9,3.2-2.5,6.2-4.6,8.8
	l0-0.2c0.1-0.3,0.2-1,0.2-1h-4.2l0.4-2.1h4.9l0.4-2.3h-4.6l1.8-0.5c-0.1-0.9-0.3-1.9-0.5-2.8l-2.3,0.5c0.2,0.9,0.3,1.8,0.4,2.8H199
	l-0.4,2.3h2.1l-0.7,4.1c-0.4,3.2-1.8,6.1-4.1,8.4c0.6,0.5,1.1,1,1.5,1.6c3.1-2.9,4.2-6.4,4.8-9.8h1.8c-1,4.9-1.4,6.7-1.8,7.2
	c-0.1,0.2-0.4,0.3-0.6,0.3c-0.3,0-0.9,0-1.6-0.1c0.2,0.7,0.3,1.5,0.3,2.3c0.8,0,1.5,0,2.3-0.1c0.6-0.1,1.2-0.4,1.6-0.9
	c0.7-0.7,1.2-3,2.3-8.9c0.4,0.5,0.8,1,1.2,1.6c0.5-0.5,1-1.1,1.5-1.7c0.1,1.5,0.4,2.9,0.8,4.4c-1.4,1.6-3.2,2.8-5.2,3.6
	c0.4,0.7,0.8,1.4,1,2.2c1.9-0.9,3.6-2.1,5.1-3.6c0.8,1.4,1.9,2.6,3.4,3.4c0.6-0.8,1.3-1.5,2.1-2.2c-1.5-0.8-2.8-2-3.5-3.5
	c1.6-2.4,2.9-5,3.7-7.8L218.1,125L218.1,125z M233.2,130.9h4.2l0.4-2.3h-4.2l0.6-3.5h-2.5l-0.6,3.5h-4.3l-0.4,2.3h4.3l-0.8,4.8h-5.1
	l-0.4,2.3h12.7l0.4-2.3h-5L233.2,130.9z M229.5,121.8c0.4-0.8,0.8-1.5,1.2-2.3l-2.5-0.6c-0.4,1-0.9,1.9-1.4,2.9h-5.7l-0.4,2.4h4.6
	c-1.7,2.5-3.8,4.5-6.3,6.1c0.3,0.8,0.6,1.6,0.8,2.4c0.7-0.4,1.4-0.9,2.1-1.5l-1.3,7.4h2.6l1.8-10.2c1.2-1.3,2.3-2.7,3.2-4.2h11.3
	l0.4-2.4L229.5,121.8L229.5,121.8z M246,129.4c0.2-0.8,0.5-1.6,0.7-2.5h2.1c-0.2,0.9-0.3,1.7-0.5,2.5H246L246,129.4z M249.7,122.2
	l-0.5,2.5h-2c0.2-0.8,0.4-1.7,0.5-2.5H249.7z M242.9,119.9l-0.4,2.3h2.7c-0.2,0.9-0.3,1.7-0.5,2.5h-2.5l-0.4,2.2h2.3
	c-0.2,0.9-0.4,1.7-0.7,2.5h-2.4l-0.4,2.2h2c-0.7,1.9-1.8,3.7-3.3,5.1c0.7,0.5,1.2,1.2,1.7,1.9c1.8-2,3.3-4.4,4.1-6.9h2.6
	c-0.2,1.2-0.5,2.5-1,3.6c-0.1,0.3-0.4,0.4-0.7,0.4c-0.4,0-1.1,0-1.9-0.1c0.3,0.9,0.4,1.8,0.3,2.7c0.9,0.1,1.7,0,2.6-0.1
	c0.7-0.1,1.4-0.6,1.8-1.2c0.8-1.1,1.5-4.8,3.4-15.8c0.1-0.3,0.2-1.3,0.2-1.3L242.9,119.9L242.9,119.9z M260.6,119.8l-0.4,0.1h-6.3
	l-3.3,18.7h2.4l2.9-16.4h2.8c-0.9,1.6-2,3.7-2.9,5.2c1.6,1.6,1.9,3.1,1.7,4.3c0,0.6-0.3,1.1-0.8,1.4c-0.3,0.1-0.7,0.2-1,0.2
	c-0.5,0-1,0-1.5,0c0.3,0.8,0.4,1.6,0.3,2.4c0.7,0,1.3,0,2-0.1c0.6-0.1,1.1-0.2,1.6-0.5c1-0.7,1.7-1.8,1.8-3.1
	c0.3-1.8-0.2-3.6-1.5-4.9c1.3-1.9,2.7-4.2,3.8-6.2L260.6,119.8z M272.9,124.2h6l-0.1,0.7h-6L272.9,124.2z M273.2,122.7h6l-0.1,0.6
	h-6L273.2,122.7z M273.5,121h6l-0.1,0.6h-6L273.5,121z M268.8,126.5l-0.4,2.1h2.2l0.2-0.9h2c-0.6,0.8-1.7,1.2-4.1,1.4
	c0.3,0.3,0.6,0.8,0.7,1.2c3.3-0.4,4.8-1.1,5.7-2.6h1.4l-0.1,0.7c-0.2,1-0.1,1.7,1.2,1.7h2.3c0.5,0,1.1,0,1.6-0.1
	c0-0.4,0-0.8,0.1-1.2c-0.5,0.1-1,0.2-1.5,0.1h-1.2c-0.5,0-0.5-0.2-0.4-0.5l0.1-0.7h1.4l-0.1,0.8h2.3l0.4-2H277
	c-0.1-0.2-0.1-0.4-0.2-0.6h4.3l1-5.9h-5c0.3-0.3,0.6-0.6,0.9-1l-2.6-0.2c-0.2,0.4-0.5,0.8-0.7,1.2h-3.5l-1,5.9h4
	c0.1,0.2,0.1,0.4,0.1,0.6L268.8,126.5L268.8,126.5z M269.1,122c-0.6-1.1-1.3-2.2-2.1-3.2L265,120c0.7,1.1,1.4,2.2,1.9,3.4L269.1,122
	z M276.7,133.7c-0.1,0.2-0.2,0.4-0.4,0.6c-0.2,0.1-0.4,0.2-0.6,0.1c-0.6,0-1.2,0-1.8-0.1c0.1,0.4,0.2,0.9,0.2,1.4
	c0.8,0.1,1.5,0.1,2.3,0c0.5,0,1-0.1,1.5-0.4c0.6-0.6,1.1-1.4,1.3-2.2c0.1-0.2,0.2-0.4,0.2-0.7h-5.7l0.2-0.5h7.5l0.2-1.4H276
	c-0.1-0.4-0.3-0.9-0.4-1.3l-2.1,0.4c0.1,0.3,0.2,0.6,0.2,0.9h-5.5l-0.2,1.4h3.8c-0.5,1.1-1.5,1.8-3.8,2.3c0.3,0.4,0.6,0.9,0.8,1.4
	c-1-0.3-1.7-1.1-2-2c0.7-1.4,1.3-2.8,1.7-4.2l-1-0.4l-0.4,0.1h-1.2c1.3-1.5,2.8-3.5,3.7-4.7l-1.4-0.6l-0.4,0.1h-3.9l-0.4,2h2.5
	c-0.9,1.1-1.8,2.3-2.2,2.7c-0.3,0.3-0.7,0.6-1.2,0.7c0.2,0.7,0.4,1.3,0.4,2c0.4-0.2,0.9-0.3,1.3-0.3h1.2c-0.8,2.5-2.4,4.6-4.5,6.2
	c0.5,0.5,1,1,1.4,1.6c1.2-0.8,2.2-1.9,2.9-3c1.2,2.2,3.6,2.6,7.5,2.6c2.5,0,5.1-0.1,7.4-0.2c0.3-0.8,0.7-1.6,1.2-2.3
	c-2.4,0.2-5.9,0.4-8.2,0.4c-1.4,0.1-2.8-0.1-4.2-0.4c1.4-0.3,2.7-1,3.6-2H276.7L276.7,133.7z M301.3,122.9c-0.1,0.9-0.5,1.8-1,2.6
	c-0.2,0.2-0.5,0.2-0.8,0.2c-0.8,0-1.5,0-2.3-0.1c0.3,0.7,0.4,1.5,0.3,2.3c0.9,0,1.8,0,2.8,0c0.7,0,1.3-0.3,1.8-0.8
	c0.7-0.6,1.2-2.1,2-5.6c0.1-0.3,0.2-0.9,0.2-0.9h-6.9c0.2-0.5,0.4-1,0.5-1.5l-2.5-0.3c-1,3.5-2.7,6.4-5.1,8.1c0.7,0.5,1.3,1,1.9,1.6
	c1.8-1.5,3.3-3.4,4.2-5.6H301.3L301.3,122.9z M292.2,121.1c-1.1-0.9-2.3-1.7-3.6-2.2l-1.7,1.9c1.3,0.6,2.4,1.4,3.4,2.4L292.2,121.1z
	 M290,126.7c-1.1-0.9-2.3-1.6-3.6-2.1l-1.6,1.9c1.3,0.6,2.5,1.4,3.5,2.3L290,126.7z M288.6,130c-1.7,2.4-3.6,5.1-5,6.6l1.9,1.6
	c1.6-2,3.3-4.4,4.7-6.7L288.6,130z M299.2,130.9c-0.7,1-1.6,1.8-2.6,2.5c-0.8-0.7-1.4-1.5-1.8-2.5H299.2z M301.4,128.5l-0.5,0.1
	h-9.4l-0.4,2.2h2.9l-1.7,0.6c0.5,1.2,1.1,2.3,2,3.3c-1.8,0.8-3.7,1.3-5.6,1.6c0.4,0.7,0.7,1.5,0.8,2.3c2.3-0.4,4.5-1.2,6.6-2.2
	c1.5,1,3.1,1.8,4.9,2.2c0.6-0.8,1.3-1.6,2-2.3c-1.6-0.3-3.1-0.8-4.5-1.6c1.9-1.5,3.4-3.4,4.4-5.5L301.4,128.5z M317.1,130.1l0.5-2.6
	h4.5l-0.5,2.6H317.1z M310.5,130.1c0.2-0.8,0.3-1.6,0.5-2.2l0.1-0.4h4l-0.5,2.6L310.5,130.1L310.5,130.1z M315.9,122.7l-0.4,2.4h-4
	l0.4-2.4H315.9L315.9,122.7z M322.4,125.1H318l0.4-2.4h4.5L322.4,125.1z M325.8,120.3h-16l-1.3,7.6c-0.5,2.9-1.4,6.7-4.1,9.3
	c0.7,0.4,1.2,1,1.7,1.6c1.8-1.7,3.1-3.9,3.8-6.3h4.3l-1,5.9h2.5l1-5.9h4.5l-0.6,3.2c0,0.3-0.3,0.5-0.5,0.5c0,0-0.1,0-0.1,0
	c-0.4,0-1.8,0-3,0c0.2,0.8,0.4,1.6,0.4,2.4c1.4,0.1,2.8,0,4.1-0.4c0.9-0.4,1.3-1.1,1.6-2.4L325.8,120.3z M348.2,122.4h-4.4l2-0.6
	c0-1.1-0.2-2.2-0.4-3.3l-2.2,0.6c0.2,1.1,0.3,2.2,0.3,3.3h-3l-0.4,2.2h7.8L348.2,122.4z M341.6,134.6c0.5-3.1,0.7-6.2,0.7-9.3
	l-2,0.4c-0.1,3.2-0.4,6.3-0.9,9.4L341.6,134.6z M332.5,123l-1.4,7.8h-1.3l1.4-7.8H332.5L332.5,123z M334.8,120.7h-5.1l-2.5,14.3h1.9
	l0.3-1.9h3.2L334.8,120.7z M339.1,127.8l-1.4,0.4l0.5-3h1.4l0.4-2.2h-1.4l0.7-4.1h-2.2l-0.7,4.1H335l-0.4,2.2h1.5l-0.7,3.8
	c-0.7,0.2-1.4,0.4-1.9,0.6l0.3,2.3l1.2-0.4l-0.8,4.7c0,0.2-0.1,0.3-0.3,0.3c0,0,0,0,0,0c-0.2,0-0.9,0-1.5,0c0.2,0.7,0.3,1.5,0.3,2.2
	c0.9,0.1,1.8-0.1,2.6-0.5c0.7-0.5,1.1-1.2,1.2-2.1l1-5.6c0.6-0.2,1.2-0.5,1.8-0.7L339.1,127.8z M343.9,135.7
	c1.1-2.9,2.5-6.9,3.5-10.2l-2.3-0.4c-0.9,3.6-2,7.1-3.3,10.6h-4.4l-0.4,2.2h8.8l0.4-2.2L343.9,135.7L343.9,135.7z M374,127.3
	c-1.3-1.8-2.9-3.5-4.6-5l-2.3,1.4c0.6,0.5,1.1,1.1,1.7,1.7l-7.8,0.2c1.3-1.1,2.4-2.2,3.6-3.4h9.9l0.4-2.3h-17.9l-0.4,2.3h4.7
	c-0.9,1-1.8,1.9-2.9,2.7c-0.5,0.4-1,0.8-1.7,0.9c0.2,0.8,0.3,1.6,0.4,2.4c1-0.3,2.5-0.3,13.3-0.8c0.3,0.4,0.6,0.9,0.9,1.4L374,127.3
	z M364.6,135.6l0.5-3h6.4l0.4-2.3h-6.4l0.4-2.1h-2.6l-0.4,2.1h-6.2l-0.4,2.3h6.2l-0.5,3h-8.2l-0.4,2.4h19.1l0.4-2.4H364.6
	L364.6,135.6z M381.4,122c-1.3,2.5-2.9,4.8-4.9,6.8c0.7,0.3,1.4,0.8,2,1.2c2-2.3,3.7-4.8,5.2-7.4L381.4,122z M391,122.9
	c1,2.3,1.9,4.6,2.6,7l2.4-1.3c-0.7-2.3-1.6-4.6-2.7-6.8L391,122.9z M391,129.7c-3.4,4.3-8.9,5.8-16.1,6.4c0.4,0.8,0.6,1.6,0.7,2.4
	c7.7-0.9,13.6-2.8,17.5-7.8L391,129.7z M386.4,118.9l-2.3,13.1h2.5l2.3-13.1H386.4L386.4,118.9z M412.3,131h-7.6l0.2-0.9h7.7
	L412.3,131z M403.8,136l0.2-1h7.7l-0.2,1H403.8z M411.9,133.5h-7.7l0.2-0.9h7.7L411.9,133.5z M417.5,127.3l0.3-2h-10.5
	c0.2-0.3,0.4-0.6,0.5-0.9h9l0.3-1.9h-8.3c0.2-0.3,0.3-0.7,0.5-1c2.7-0.1,5.4-0.4,8-0.8l-1.2-1.8c-5,0.6-10,0.9-15,0.8
	c0.1,0.6,0.2,1.2,0.1,1.9c1.6,0,3.4,0,5.2-0.1c-0.1,0.3-0.3,0.6-0.4,0.9H401l-0.3,1.9h4.5c-0.2,0.3-0.4,0.6-0.6,0.9h-5.6l-0.3,2h4.5
	c-1.6,2.1-3.7,3.7-6,4.9c0.5,0.6,0.9,1.3,1.2,2c1.3-0.7,2.6-1.6,3.7-2.5l-1.2,7h2.4l0.1-0.8h7.7l-0.1,0.8h2.5l1.9-10.5h-9.9
	c0.2-0.3,0.4-0.6,0.6-0.9L417.5,127.3L417.5,127.3z M437.7,120.2l-0.6,0.1h-14.7l-0.4,2.5h12.2c-1.7,1.3-3.5,2.5-5.5,3.5l-1.7,9.4
	c0,0.3-0.3,0.5-0.6,0.5c0,0-0.1,0-0.1,0c-0.5,0-2.2,0-3.7,0c0.3,0.8,0.5,1.7,0.6,2.5c1.6,0.1,3.1,0,4.7-0.4c1.1-0.4,1.6-1.1,1.8-2.5
	l1.4-8.2c3-1.6,5.8-3.6,8.3-5.9L437.7,120.2z M449.4,121.4l-0.2,1.1h-3.3l0.2-1.1H449.4z M445.4,125.3l0.2-1.1h3.3l-0.2,1.1H445.4
	L445.4,125.3z M450.7,127.1l1.3-7.5h-8.1l-3.3,18.9h2.5l2-11.4H450.7L450.7,127.1z M449.6,131.8l0.3-1.6h2l-0.3,1.6H449.6z
	 M455.7,133.8l0.4-2.1h-2.3l0.3-1.6h2l0.3-2h-10.2l-0.3,2h1.9l-0.3,1.6h-2.2l-0.4,2.1h2.1c-0.5,1.4-1.5,2.6-2.7,3.3
	c0.5,0.4,1,0.9,1.4,1.4c1.7-1.1,3-2.8,3.5-4.7h2l-0.8,4.4h2.2l0.8-4.4H455.7L455.7,133.8z M454.8,125.4l0.2-1.2h3.4l-0.2,1.2H454.8z
	 M459,121.4l-0.2,1.1h-3.4l0.2-1.1H459z M461.7,119.7h-8.3l-1.3,7.5h5.8l-1.5,8.4c0,0.2-0.2,0.4-0.5,0.4c0,0,0,0-0.1,0
	c-0.3,0-1.4,0-2.3,0c0.2,0.8,0.3,1.6,0.3,2.5c1.2,0.1,2.4-0.1,3.6-0.5c0.8-0.4,1.2-1.1,1.4-2.4L461.7,119.7z M470.6,120.9
	c1.8,1.3,3.4,2.9,4.9,4.6l2.2-2c-1.5-1.6-3.2-3.1-5.1-4.4L470.6,120.9z M478.2,126.4c0.7,2.6,1.1,5.3,1.1,8l2.7-1.1
	c-0.1-2.7-0.6-5.3-1.3-7.9L478.2,126.4z M465.2,126.1c-0.8,2.8-1.8,5.6-3.1,8.2l2.4,1c1.2-2.8,2.3-5.8,3.1-8.8L465.2,126.1z
	 M469.2,124.9l-1.7,9.8c-0.5,2.7,0.1,3.5,2.9,3.5h3.5c2.6,0,3.5-1.3,4.5-5.3c-0.8-0.2-1.5-0.6-2.2-1.1c-0.7,3.3-1,4-2.1,4h-3
	c-1,0-1.2-0.2-1-1.2l1.7-9.8H469.2z M502.3,119.7c-2.2,2.1-4.5,4.1-7,5.9c-1.5-1.8-3.7-4-5.6-5.8l-2.2,1.7c2.1,2.1,4,4.3,5.8,6.6
	l-1.6,9.2h2.7l1.7-9.5c2.9-2,5.6-4.2,8.2-6.6L502.3,119.7z M508,131.4h2l1.8-7.8l0.6-2.9h-3.1l-0.4,2.9L508,131.4z M508.1,137
	c1.1-0.1,2.1-0.9,2.3-2c0.2-0.9-0.3-1.7-1.1-2c-0.2,0-0.3-0.1-0.5-0.1c-1.1,0-2.1,0.9-2.3,2c-0.2,0.9,0.3,1.7,1.1,2
	C507.7,137,507.9,137,508.1,137L508.1,137z"/>
<g>
	<g>
		<g>
			<path class="st6" d="M109.1,132.2c-0.1,1-0.9,1.4-2.5,0.8c-1.7-0.7-2.7-2.7-5.1-4.4c-1.7-1.2-3.4-1.7-4.4-2.5
				c-1.2-1-1.2-2.7-0.1-2.6c1.5,0.4,2.7,1.5,3,1.7c-0.4-0.7-1.3-1.4-2.2-1.8c-1-0.8-1.3-1.7-1.2-2.4c0.1-1.1,0.9-1.2,1.8-1.1v0
				c1.8,0.4,3.7,1.4,5.2,2.5C106.6,124.8,109.1,129.3,109.1,132.2z"/>
			<path class="st7" d="M95.3,119.9c0.5-0.2,1-0.3,1.6-0.3c-0.5,0.2-0.7,0.7-0.7,1.3c0,0.6,0.3,1.3,1.1,2.1c-0.1,0-0.2-0.1-0.4-0.1
				c-1.2-0.4-2.2-0.3-2.9,0.1C93.5,121.7,94,120.4,95.3,119.9z"/>
			<path class="st7" d="M52.8,103.4c3.6,0.7,8.3,1.9,12.1,3.3c-0.1,0.3-0.3,0.5-0.5,0.7c-1.3,1.2-5.5,0.3-7.2,0.5
				c-0.6,0.1-1.2,0.4-1.4,0.6c0.7-0.4,2.1-0.4,3.6-0.3c0.1,0,0.2,0,0.4,0c0.2,0.2,0.3,0.7,0.5,1.6c-2.7,0.6-5.6,1.4-7.9,2.2
				c-0.8-1.6-1.3-3.2-1.2-4.7C51.2,106.4,51.6,104.9,52.8,103.4z"/>
			<path class="st8" d="M73.3,110c1.6,0.8,3.1,0.3,4.5-0.7c0.7-0.5,1.5-1.1,2-1.7c1.5-0.1,3.4-0.1,5.5-0.1c0,0.5-0.1,1-0.2,1.5
				c-0.3,1.4-0.8,3.1-1.5,4.6c-0.6,1.2-1.2,2.3-2.1,3.4c-1.4,1.8-3.8,4.2-7.1,4.5c-5.6,0.6-8.9-2-10.9-5c-1.5-2.2-2.3-4.9-2.8-6.6
				c1.1-0.2,2.4-0.4,3.7-0.6c0.8,0.4,1.8,0.9,2.9,1.3c1.6,0.6,3.4,0.8,4.8,0.3C72.9,110.7,73.2,110.3,73.3,110z"/>
			<path class="st7" d="M79.7,104.7c2.3-1.1,5.9-2.6,9.8-4.1c1.7,1,2.9,3,2.6,6.5c0,0.2,0,0.4-0.1,0.7c-1.4-0.1-2.8-0.3-4.2-0.4
				c-0.7,0-1.4-0.1-2-0.1c0-0.5-0.1-1-0.2-1.3c1.9-0.5,3.6-1.2,4.3-1.2c-0.9-0.6-4.8,1.4-7.7,1.4c-1.3,0-2.5-0.2-2.5-1.1
				C79.6,104.9,79.6,104.8,79.7,104.7z"/>
			<path class="st8" d="M84.1,106.2c0.4-0.1,0.8-0.2,1.2-0.3c0.1,0.2,0.1,0.7,0.1,1.2c-2.1-0.1-3.8-0.1-5.1,0
				c0.3-0.3,0.5-0.6,0.6-0.8C81.9,106.6,83.1,106.4,84.1,106.2z"/>
			<path class="st8" d="M60.6,109.8c-0.2-0.5-0.3-0.9-0.4-1.2c-0.1-0.1-0.1-0.2-0.2-0.3c0.7,0,1.5,0.1,2.1,0
				c0.5,0.1,1.1,0.4,1.8,0.8C62.9,109.3,61.8,109.5,60.6,109.8z"/>
			<path class="st7" d="M60.4,110c0.5,1.7,1.2,4.4,2.8,6.8c1.9,2.7,4.9,5.1,9.6,5.1c0.5,0,1.1,0,1.7-0.1c2.7-0.3,5.3-2,7.4-4.7
				c1.5-2,2.6-4.3,3.2-6.5c0.3-1.1,0.5-2.2,0.6-3.1c1.9,0,4,0.2,6.2,0.4c-0.5,3-2.3,6.1-5.1,8.9c-1.2,1.2-3,2.8-5.1,4
				c-3.4,2.1-7.7,3.7-11.9,3.1c-3.6-0.5-6.8-2.5-9.7-4.3c-3.6-2.3-6.2-4.9-7.7-7.5C54.7,111.4,57.2,110.7,60.4,110z"/>
			<path class="st9" d="M90.9,113c1.1-1.8,1.7-3.5,2-5c1.1,0.1,2.1,0.2,3.2,0.4C94.2,110.7,92.3,112.4,90.9,113z"/>
			<path class="st9" d="M101,76.4c1.4,4.4,2.2,10.7,1.2,16.9c-0.7,4.6-2.2,9.2-4.7,13c-0.4,0.7-0.9,1.3-1.4,1.9
				c-1-0.2-2.2-0.3-3.3-0.4c0.2-1.3,0.2-2.5,0.1-3.3c-0.4-2-1.5-3.4-2.8-4.2c3.5-1.4,7.3-2.7,10.6-3.6c-2.7,0.5-6.9,1.9-11,3.4
				c-0.1,0-0.1-0.1-0.2-0.1c-0.4-1.4-1.6-3.5-2.1-4.2c0.8-0.6,2-2.3,2.8-4.7c1.6-4.8,0.4-9.8,0.3-9.2c0.4,6.3-2.4,12.4-4.9,10.7
				c-3.5-2.3-5.2-16.4-0.3-23.3c1.3-1.9,2.9-3,4.7-3.3C95.4,64.9,99.3,71.2,101,76.4z"/>
			<path class="st7" d="M34.5,74.8c2.8-2.6,8-3.6,13.7,1.1c3.6,2.9,8.3,10.2,10.5,9.8c-0.4-0.1-1-0.5-1.6-1.1
				c0.8-1.5,3.1-4.1,5.8-6.2c-2.2,2.1-4.5,4.9-4.1,6.2c1.2-1.6,6.3-5.6,12.9-7.9c-1.6,0.8-6.1,3-7.1,5.2c0.1-0.1,0.2-0.2,0.3-0.2
				c3.2-0.9,9.1-1,13.7,2.2c-0.6-0.9-1.8-1.7-3.3-2.4c2.6-2.4,3.4-10.5,7.3-14.1c2.5-2.3,6-3,8.7-2.3c-2.9,0.1-5.2,2.2-6.7,4.6
				c-3.6,5.9-3.4,19.3,0.9,23c1.8,1.5,4.2-0.7,5.3-4.9c-0.2,2.7-1.8,5.9-3.5,8c0.2,0.4,1.2,2.1,1.6,3.8c-1.2-0.3-2.3-0.3-3.1,0.2
				c1.1-0.1,2.4,0,3.5,0.6c-3.5,1.4-7,2.8-9.3,3.9c0.8-2.1,3.8-3.9,4.6-4.1c-1.5-0.2-4.7,2.4-5.1,4.3c-0.6,0.3-1,0.5-1.4,0.7
				c-1.3,0.6-1.1,0.9-0.7,0.7c0.4-0.2,1.1-0.5,2-1c0,0.7,0.4,1.2,1.4,1.4c0,0,0.1,0,0.1,0c-0.2,0.2-0.5,0.5-0.9,0.9
				c-2.3,0.1-3.3,0.4-2.9,0.6c0,0,0.1,0,0.2,0c0.5-0.1,1.3-0.1,2.2-0.2c-0.7,0.6-1.5,1.3-2.3,1.7c-1.7,1-3.1,0.7-3.7,0.4
				c0-0.1,0-0.2,0-0.4c-0.4,1.2-2.6,1.9-5.6,1.1c-1.1-0.3-2-0.7-2.9-1.2c1-0.1,2-0.3,3-0.4c0.3,0,0.4-0.1,0.4-0.1c0,0,0-0.1-0.2-0.1
				c-0.9,0-2.2,0.1-3.8,0.3c-0.1,0-0.1-0.1-0.2-0.1c-0.6-0.3-1.2-0.6-1.6-0.7c0.4,0,0.7-0.1,1.1-0.2c0.7-0.2,1.2-0.7,1.5-1.3
				c0.5,0.2,1,0.4,1.5,0.6c1,0.5,1.1,0.6,1.3,0.6c0.3,0.1,0.3-0.2-0.6-0.6c-0.6-0.3-1.3-0.6-2.1-0.9c0.1-0.4,0.1-0.8-0.1-1.3
				c0.5-0.7,1.9-1.6,3.2-1.8c0.6-0.1,1.4,0,1.9,0.5c-1.2,0.4-1.9,1-1.9,1.7c0.1,0.7,2,1.2,3.2,1.5c0.4,0.1,0.8,0.3,0.9,0.3
				c0,0.2,0.1,0.4,0.1,0.6c0.1-0.2,0.1-0.4,0.1-0.6c0.7-0.4,3.4-2,3.5-2.9c0.1-0.7-1.1-1.2-2.7-1.2c0.4-0.4,1.3-0.8,2.4-0.8
				c0.8,0.1,1.8,0.3,2.9,1.1c-0.4-0.6-2-1.8-3.9-1.4c0.7-1.3,2.1-2.7,3.8-2.8c1.1,0,2.2,0.4,2.9,1.2c-0.2-0.7-0.7-1.4-1.3-1.8
				c0.2-0.2,0.3-0.5,0.5-0.7c0.2,0.5,0.4,1,0.4,1.4c0.1-0.4,0-1.1-0.3-1.7c1-2,1.7-4.8,1.4-5.9c0,0.3-0.4,3.3-1.6,5.5
				c-0.3-0.6-0.8-1.2-1.5-1.5c0.1-1.4,0-2.7-0.5-3.3c0.2,0.5,0.4,1.9,0.2,3.2c-0.6-0.2-1.3-0.1-2.1,0.4c-1.9,1.1-3,3.8-3,5
				c0.6-2.3,2.7-5.6,4.9-5c0,0,0.1,0,0.1,0c-0.1,0.8-0.4,1.6-0.8,2.2c-1.4,0.3-2.8,1.6-3.3,3.7c0,0-0.1,0-0.1,0
				c-0.8,0.2-1.4,0.7-1.5,1c-0.3,0-0.7,0.1-1.1,0.1c-0.6,0.1-1.1,0.2-1.6,0.4c-0.5-0.7-1.3-1-2.2-0.9c-1.4,0.2-2.7,1.1-3.2,2
				c-0.2-0.5-0.7-1.1-1.4-1.7c-2.2-1.7-6-2.7-7.1-2.2c1.5,0,3.7,0.6,5.5,1.6c1.7,1,3,2.4,2.8,3.6c-3.6-1.3-8.3-2.5-12-3.2
				c0.6-0.6,1.4-1.2,2.3-1.7c-0.8,0-2,0.6-3.1,1.6c-0.1,0-0.1,0-0.2,0c-0.2-1.5-0.1-3.7,0-3.9c-0.4,0.6-0.6,1.6-0.6,2.8
				c-2.3-0.3-7.7-3.8-9.2-10.3c1.7,4.1,5.4,8.1,8.2,6.4c1.7-1.1,1.3-4.6,0.7-7.3c-0.7-3-2-6.3-2.8-7.9c-1.9-3.5-4.1-6-6.6-7.3
				c-2.2-1.2-4.7-1.3-6.8-0.5c-0.6,0.2-1.1,0.6-1.6,1C33.8,75.5,34.1,75.2,34.5,74.8z"/>
			<path class="st6" d="M73.8,103.8c1.1-0.1,1.6,0.2,1.7,0.6c0.1,0.4-0.4,0.9-1.5,1c-0.9,0.1-1.9-0.1-1.9-0.6
				C72.1,104.2,72.9,103.9,73.8,103.8z"/>
			<path class="st7" d="M79.5,98.7c-0.2-0.1-0.5-0.1-0.7-0.1c0.3-0.6,0.4-1.3,0.5-2c0.5,0.3,1,0.8,1.3,1.4c-0.2,0.3-0.4,0.6-0.7,0.9
				C79.8,98.8,79.6,98.7,79.5,98.7z"/>
			<path class="st9" d="M44.8,114.1c-8.1-6.4-14.6-17.4-14.4-28.7c0.1-3.9,1.3-8.6,4.8-10.1c1.9-0.8,4.3-0.7,6.4,0.4
				c2.4,1.2,4.6,3.7,6.4,7.1c0.7,1.2,2,4.4,2.7,7.8c0.9,3.7,0.7,5.9-0.5,6.7c-2.5,1.6-5.9-2.3-7.3-5.3c-0.6-1.3-1-2.5-1.2-3.4
				c-0.3-0.4-0.2,3.1,1.3,6.3c2.2,4.4,6.1,7.2,8.4,7.3c0,0.2,0,0.4,0,0.6c-2.3-0.4-3.9-0.5-4.1-0.2c0.4-0.1,1.9,0.1,4.1,0.4
				c0,0.3,0,0.5,0,0.8c-0.7,0.9-1.2,2-1.2,3.4c-0.1,1.7,0.4,3.4,1.3,5c-1.1,0.4-2.1,0.9-2.9,1.3c1-0.4,1.9-0.8,2.9-1.1
				c1.3,2.3,3.5,4.6,6.4,6.7C53.8,119.7,49,117.5,44.8,114.1z"/>
			<path class="st7" d="M59,126.7c-0.9-2.3-1.2-5.2,0.8-6.3c3.3,2.1,6.5,3.7,9.9,4.1c7.6,1.1,15.1-4.5,18-7.4
				c0.1-0.1,0.2-0.2,0.2-0.2c0.8,0.7,2.2,2.5,2.3,6.2c0.2,6.6-3.8,15.2-4.6,20.4c-0.9,0.1-1.9,0.1-2.9-0.1c-0.2-0.6-0.6-1-1.3-1.1
				c-0.3,0-0.6,0-0.9,0.1c-0.1-0.1-0.3-0.3-0.4-0.4c0.4-2.4,1.1-14.3,1.5-18.3c-0.3,0.5-0.7,2.7-1,5.5c-0.4-1.4-1.3-3.2-2.5-3.3
				c-0.4,0-0.8,0.2-1.1,0.7c-0.9,1.4-1.2,4-1.2,6c-0.8-2.8-3.8-7.2-5.1-5.8c-0.4,0.5-0.6,1.4-0.5,2.4c-0.6-1.8-1.1-3.1-1.5-3.6
				c0.5,1.4,3.1,12,6.9,18.8c-2.8-0.1-4.8-1.3-6.6-2.2c-0.8-0.4-1.4-0.7-2-0.9C65.9,139.4,60.6,130.8,59,126.7z"/>
			<path class="st7" d="M85,145.8c0.2,0.2,0.7,0.3,1.4,0.4c2.1,2.1,4.7,2.4,5.6,3.1c0.4,0.3,0.3,0.9,0.2,1c-0.2,0.6-1,1.2-2,1.1
				c-3-0.4-4.4-3-5.9-3.2c0.2,0.1,0.5,0.3,0.7,0.6c-0.4,1.1,1.1,3.1,1.4,4.5c0.2,1-0.3,1.5-1,1.5c-2.3-0.1-3.3-5.3-3-6.5
				c-0.1,0.4-0.2,0.8-0.3,1.2c-1.3-0.4-1.8-1.8-1.8-2.3c1.5-0.7,2.4-2,2.5-3c0-0.2,0-0.4,0-0.5c3,0.6,5.4,0,7.8-1.4
				c0.5-0.3,0.8-0.5,1.1-0.3c0.5,0.2,0.7,0.8,0.5,1.5C91.9,144.7,89.2,146.2,85,145.8z"/>
			<path class="st7" d="M76.9,147.5c0.8,0.1,1.5,0.1,2.2,0c-0.5,1.3-3.2,2.1-4.6,2.2c1,0.2,2.1,0.1,3-0.3c-0.9,1.4-3.5,2.1-3.6,2.1
				c0.1,0,0.2,0,0.3,0c-0.2,1-1.4,3-3,3.7c-1.1,0.4-2.2,0.3-2.6-0.3c-0.8-1.2,2.2-1.8,3.6-4.4c0.2-0.4,0.4-0.9-1.2-0.3
				c-1.1,0.4-2.6,1-3.9,1c-2.2-0.1-4.2-1.8-3.4-2.8c0.4-0.5,1.6-0.4,2.9-0.3c1.7,0.1,3.7,0.1,5-1c0.3,0,0.5-0.1,0.7-0.2
				c-4,0.1-6.8-2.2-7.2-3.8c-0.1-0.4-0.1-1,0.6-1.3c0.7-0.3,1.8,0.2,3.1,0.9c2.1,1.1,5,2.5,8.8,2c1.5-0.2,2.6-2.1,3.8-2
				c0.7,0.1,1.1,0.9,0.8,1.9C81.7,146.3,78.6,147.5,76.9,147.5z"/>
			<path class="st6" d="M70.6,130.3c-0.2-1.2-0.3-2.8,0.2-3.4c1-1.4,4.6,4.1,5.1,6.3l0,0c0,0.3,0,0.5,0.1,0.8c0,0.1,0.2-0.2,0.2-0.2
				c0-1.8,0-5.6,1.2-7.3c1.3-2,2.8,1.8,3.2,3.3c-0.3,2.9-0.5,6.1-0.6,8.5c-0.3,0.3-1,0.8-1.5,0.9c-0.3-0.4-0.6-0.6-0.9-0.8
				c-0.9-0.4-1.6,0.2-1.8,1.2c-0.6,0.1-1.5-0.1-1.8-0.2C72.6,136.2,71.5,132.9,70.6,130.3z"/>
			<path class="st7" d="M78.1,144c-2.8-2.1-1.9-4.9-1.2-5.1c0.2-0.1,0.5,0,0.7,0.2c0.8,0.6,1.5,2.3,2.6,3.3
				C79.5,142.8,78.7,143.6,78.1,144z"/>
			<path class="st6" d="M78.6,139.6c0.3-0.1,0.9-0.4,1.3-0.8c-0.1,1.3-0.1,2.3-0.1,2.8C79.5,140.9,79.1,140.2,78.6,139.6z"/>
			<path class="st6" d="M75.7,140c-0.1,0.8,0,1.8,0.5,2.6c0.4,0.6,0.9,1,1.7,1.5c-0.1,0-0.2,0.1-0.3,0.1c-0.5,0.1-1,0.1-1.5,0.1
				c-0.7-1.5-1.4-3-2-4.6C74.4,139.9,75.1,140,75.7,140z"/>
			<path class="st7" d="M51.6,126.1c1.2,0,2.3,0.6,2.5,2.1c-0.5,0-1.1,0.1-1.6,0.3c-0.2,0.1-0.4,0.2-0.7,0.3c0.5-0.8,0.5-1.6,0-2.1
				c-0.2-0.2-0.5-0.4-0.9-0.4C51.2,126.1,51.4,126.1,51.6,126.1z"/>
			<path class="st6" d="M43.3,134.7c1.3-4.3,4-7.1,6.5-8.1c0.9-0.2,1.5-0.1,1.8,0.3c0.4,0.5,0.3,1.3-0.3,2.2
				c-1.5,0.9-2.2,2.2-2.3,2.9c0.8-1.7,2.8-3.2,4.3-2.5c0.5,0.2,0.6,0.7,0.5,1.4c-0.2,1-1.2,2.3-2.4,3.8c-0.2,0.2-0.4,0.5-0.6,0.7
				c-0.5,0.6-0.9,1.2-1.3,1.8c-0.9,1.4-1.8,2.7-3.4,3.5c-1,0.4-2,0.5-2.6,0.1C42.1,139.6,42.8,136.3,43.3,134.7z"/>
			<path class="st7" d="M46.2,143.8c0.7,0.1,1.5,0,2-0.4c-0.7,0.3-3.9-0.1-5-2.7c0.7,0.7,2,0.6,3,0.1c1.7-0.8,2.6-2.1,3.5-3.6
				c0.4-0.6,0.8-1.2,1.3-1.8c0.2-0.3,0.4-0.5,0.6-0.7c1.2-1.5,2.3-2.8,2.5-3.9c0.2-0.8-0.1-1.3-0.7-1.6c-0.4-0.2-0.9-0.2-1.4-0.1
				c1.8-0.7,3.6-0.5,4.4,1.2c0.3,0.7,0.2,1.6-0.3,2.5c-1.7,3.1-6.2,6.3-6.6,8.4c0.3-0.6,1-1.4,1.9-2.2c2.5,1.2,5.5,2,8.1,1.7
				c-0.4,1.5-0.5,3.2-0.3,5c0.3,2.9,1.6,6.2,3.8,9C54.4,150.8,47.9,145.6,46.2,143.8z"/>
			<path class="st7" d="M67.9,168.2c-1.4,3.2-1.6,5.9-0.8,8.6c-1-1.1-1.5-3.1-1.7-5.1c-0.2-2.8,0.2-4.8,0.9-6.5
				c1.1-2.7,2.8-4.5,3.6-6.3c1.7,0.5,3.5,0.7,5.4,0.8C73.7,161.7,69.4,164.9,67.9,168.2z"/>
			<path class="st6" d="M63.3,154.1c-2.3-2.8-4.4-8.3-3.1-13.5c0,0,0,0,0,0l0,0c0.3-1.2,0.8-2.5,1.5-3.6c-0.8,0.6-1.4,1.7-1.9,2.9
				c-0.2,0-0.4,0.1-0.6,0.1c0.4-1.4,1.7-3.8,3.2-5c1.6,2.6,3.3,5.1,4,6.1c-0.4,0-0.7,0-1,0.1c-0.8,0.4-1.1,1.1-0.9,2
				c0.6,2.6,4.1,3.9,6.3,3.9c-1.1,0.7-2.8,0.4-4.3,0.4c-1.5-0.1-2.8-0.2-3.4,0.5c-1,1.2,0.7,3,2.8,3.5c1.2,0.3,2.3,0.1,3.3-0.3
				c1.2-0.4,2.6-1.3,2.8-1.1c0.1,0.1-0.6,0.9-1.4,1.6c-1.4,1.3-2.9,2-2.9,2.9c0,1,1.2,1.5,2.4,1.3c2.2-0.3,3.9-2.7,4.1-4.5
				c1.5,0,3.2-0.8,3.6-2.3c0.9-0.5,1.5-1.1,1.7-1.8c0.1,0,0.2-0.1,0.3-0.1c0,1,0.7,2.1,2.2,2.5c-0.1,2.5,1.3,5.5,3.3,5.5
				c1.2,0,1.8-0.8,1.7-1.7c-0.1-1.3-2.1-3.9-1.8-4.6c1,1,2.5,2.6,4.7,2.9c1.3,0.2,2.4-0.5,2.7-1.4c0.3-0.7,0.1-1.3-0.4-1.7
				c-1.2-0.8-3.8-1-5.5-2.6c1.3,0.1,3.1-0.1,4.4-0.8c2.7-1.5,1.8-4.9-0.4-3.9c-1,0.4-2.7,1.5-4.9,1.8c0.2-1.1,0.6-2.3,1-3.5
				c0.5-1.5,1.2-3.3,1.8-5.3c0.9,1.9,5.6,6.7,5.2,12.2c-0.2,2.6-0.8,4.6-2.7,6.5C85.2,159.3,69.2,161.3,63.3,154.1z"/>
			<path class="st7" d="M105.7,136c0.3,0,0.7,0,1,0c-2.4,2.7-5.6,9-13.6,15.7c1.8-2.9,2-5.9,1.2-8.6c-0.6-2-1.6-3.7-2.5-5.2
				c2.4-0.5,7.2-3.2,8.7-5.9c0.7,0.4,1.2,0.9,1.6,1.5c-0.2-1.6-2.3-2.7-4.2-3.5c-0.9-0.4-2-0.8-2.8-1.2c-1.2-0.7-2-2-1.8-3.5
				c0.1-1,0.6-1.6,1.4-1.9c0.6-0.2,1.2-0.2,1.8-0.1c-0.9,0.3-0.8,2,0.4,3c1,0.8,2.6,1.4,4.3,2.6c2.4,1.7,3.5,3.6,5.2,4.4
				c0.6,0.2,1.1,0.4,1.5,0.4c0.4,0,0.7-0.1,0.9-0.3c0,0,0.1,0,0.1-0.1C108.5,134.3,107.2,135.5,105.7,136z"/>
			<path class="st8" d="M76,102.7c-1.2-0.1-2.1,0.4-2.4,0.8c1.6,0,2.8,0.4,2.7,1.2c-0.1,0.9-2.8,2.5-3.5,2.9c0,0.2,0,0.5-0.1,0.6
				c0-0.2-0.1-0.4-0.1-0.6c-0.1-0.1-0.5-0.2-0.9-0.3c-1.2-0.3-3.1-0.7-3.2-1.5c-0.1-0.8,0.7-1.3,1.9-1.7c-0.6-0.6-1.4-0.6-1.9-0.5
				c-1.3,0.1-2.7,1-3.2,1.8c0.2,0.5,0.2,0.9,0.1,1.3c0.8,0.3,1.5,0.6,2.1,0.9c0.9,0.4,0.9,0.7,0.6,0.6c-0.2,0-0.3-0.1-1.3-0.6
				c-0.5-0.2-0.9-0.4-1.5-0.6c-0.3,0.6-0.8,1-1.5,1.3c-0.3,0.1-0.7,0.2-1.1,0.2c0.4,0.1,1,0.4,1.6,0.7c0.1,0,0.1,0.1,0.2,0.1
				c1.6-0.2,2.9-0.4,3.8-0.3c0.2,0,0.2,0.1,0.2,0.1c0,0-0.1,0.1-0.4,0.1c-1.1,0.1-2.1,0.2-3,0.4c0.9,0.4,1.9,0.8,2.9,1.2
				c3,0.9,5.2,0.2,5.6-1.1c0,0.1,0,0.2,0,0.4c0.6,0.3,2,0.7,3.7-0.4c0.8-0.5,1.6-1.1,2.3-1.7c-0.9,0.1-1.7,0.1-2.2,0.2
				c-0.1,0-0.2,0-0.2,0c-0.4-0.2,0.7-0.5,2.9-0.6c0.4-0.4,0.7-0.7,0.9-0.9c0,0-0.1,0-0.1,0c-1-0.2-1.4-0.8-1.4-1.4
				c-1,0.5-1.7,0.8-2,1c-0.4,0.2-0.6,0,0.7-0.7c0.4-0.2,0.9-0.4,1.4-0.7c0-0.1,0-0.2,0.1-0.3c-0.1-0.1-0.3-0.3-0.4-0.4
				C77.8,103,76.8,102.8,76,102.7z"/>
		</g>
		<g>
			<path class="st10" d="M59.5,101c-1.1-1.2-4.5-1.8-4.1-0.8C56.1,99.9,58.2,100.2,59.5,101z"/>
			<path class="st1" d="M61.9,101.7c0,0.1,0,0.3,0,0.4c0.9-1.8,2.2-1.9,3.4-1.5c1.2,0.4,2.5,1.2,3.5,2.2c-0.8-1.3-3.4-3.7-5.3-3.3
				c-0.2,0-0.4,0.1-0.6,0.3c-0.6-0.3-1.2-0.7-1.7-1.1c0.6-1.3,1.9-2.3,3.7-1.3c2.1,1.1,4.1,4.7,4.1,4.7c-0.6-2.5-3.8-6.1-6.2-5.2
				c-0.8,0.3-1.4,1-1.7,1.7c-0.8-0.6-1.4-1.3-1.8-1.9c-0.1-2.5,1.2-6.5,2.9-7.3c1.8-0.9,3.7,0.9,4.3,2.2c0.1-1.1-2.9-5.6-5.5-2.6
				c-1.6,1.7-2.2,5.4-1.9,7.3c-0.8-1.1-1.1-2-1.1-2.1c0,0.5,0.5,1.5,1.2,2.7c0.1,0.2,0.1,0.4,0.2,0.5c0-0.1,0-0.2,0-0.2
				c0.4,0.6,1,1.2,1.6,1.8c-0.2,0.7-0.3,1.3-0.2,1.6c0-0.4,0.2-0.9,0.4-1.4c0.4,0.4,0.9,0.8,1.5,1.1c-0.3,0.3-0.5,0.7-0.6,1.1
				c-3.8-0.8-6.1-5-6.2-5.3C55.8,96.5,58.1,100.8,61.9,101.7z"/>
			<path class="st1" d="M77,87.5c-4-2.9-4.6,2.8-4.2,3.4c0.2-1.2,1.5-4.3,4.4-2.1c1.7,1.3,3.4,3.6,4.1,5.6
				C81.6,93.6,79.5,89.2,77,87.5z"/>
			<path class="st1" d="M63.3,86.5c-0.5-0.6-1.8-1-3.4,0.6c-1.4,1.5-2.4,4.1-2.4,6C57.7,91.7,60,85.2,63.3,86.5z"/>
			<path class="st1" d="M77,86.2c1.1,0.8,2.4,2.1,3.7,4.4c-0.3-1-1.5-3-3.1-4.4c-3.3-2.8-5.1-0.6-4.9,0.5
				C73.2,85.3,74.8,84.6,77,86.2z"/>
			<path class="st10" d="M82,100.2c1.4-1.3,3.3-1.7,3.5-1.6C86.2,97.5,82.9,98.8,82,100.2z"/>
			<path class="st10" d="M67.3,112.2c1.3,1.1,4.4,1.7,7.6,0.9c2.2-0.6,4.6-2.1,5.8-3.9c-0.2,0.2-2.5,2.7-6.4,3.6
				C72.3,113.2,69.3,113.1,67.3,112.2z"/>
			<path class="st1" d="M103.7,121.8c-1.2-0.9-5.5-3.9-8.7-2.6c-1.7,0.7-2.4,2.3-1.7,4.2c-1.6,1.4-1.4,4.5,1.7,6.1
				c1.6,0.8,3.5,1.5,5,2.3c-2.5,3-7.8,5.3-8.9,5.4c-1-1.5-2-2.6-2.2-3.2c1.1-3.3,2.2-7,2.2-10.1c0-2.8-0.7-5.7-2.9-7.4
				c0.8-0.9,1.6-1.8,2.1-2.7c1.9-0.3,4.2-2.1,6.5-5.1c2,0.3,3.9,0.7,5.7,1.2c-0.8-0.5-2.9-1-5.5-1.4c0.4-0.5,0.8-1,1.1-1.6
				c3-4.5,4.8-9.9,5.4-15.6c0.5-5-0.1-10.3-1.5-14.8c-1.1-3.2-2.8-6.4-5-8.6c-4.8-4.8-11.8-5-16.5,1.2c-3.4,4.5-4,11.1-5.7,12.6
				c-2.4-1-5.6-1.5-8.3-1.1c2.8-2.1,6.4-3.8,9.3-4.7c0.4-0.2-1.7,0-3.6,0.5c-4,1.2-9.2,3.6-12.7,7.1c1.4-2.6,4.9-6.1,8.2-7.6
				c-2.3-0.4-9.2,5.6-11.1,8.5c-2.2-2.3-5.1-6.5-8.1-9c-2.7-2.2-5.5-3.4-8.2-3.4c-2.4,0-4.6,0.8-6.4,2.4c-2.7,2.5-4.5,6.8-4.5,11.1
				c-0.2,8.1,3,14.8,4.8,18c2.6,4.4,6.3,8.9,10.5,12c3.9,2.9,9.6,5.4,14,4.3c0.2,0.1,0.3,0.2,0.5,0.3c-3.7,2-1.1,7.7,1.1,11.5
				c0.5,0.9,1.2,2,1.8,3c-1.4,1-3,3.4-3.4,5.6c-2.5,0.1-5.8-0.8-6.8-1.3c0.8-0.7,1.7-1.5,2.6-2.4c1.6-1.6,2.5-3,2.8-4.2
				c0.5-2.1-0.7-3.5-2.1-3.9c-0.2,0-0.4-0.1-0.6-0.1c0-1.8-1-2.7-2.6-2.9c-3.2-0.3-7.7,3.3-9.4,9.2c-0.9,3-0.6,5.1,0.1,6.5
				c0.5,1,1.4,2.1,2.6,2.6c0.2,0.1,0.3,0.1,0.5,0.2c1.8,2.4,9.9,9.2,18.5,12.1c1.3,1.2,3,2.2,4.9,2.8c-0.6,1.4-2.5,3.8-3.5,6.5
				c-2,5.4,0,12,2.7,13.5c0.3,0.1,0.4,0.1,0.3,0.1c-0.3-0.3-0.5-0.7-0.7-1.1c-1.5-3.1-0.3-6.9,0.5-8.7c1.8-4,6.2-6.4,7.7-9.2
				c5.7,0,11.7-2,15.5-6.1c9.1-5.5,13.4-15.1,15.5-17.7C111.3,134.7,110.1,126.8,103.7,121.8z M109.1,132.2c-0.1,1-0.9,1.4-2.5,0.8
				c-1.7-0.7-2.7-2.7-5.1-4.4c-1.7-1.2-3.4-1.7-4.4-2.5c-1.2-1-1.2-2.7-0.1-2.6c1.5,0.4,2.7,1.5,3,1.7c-0.4-0.7-1.3-1.4-2.2-1.8
				c-1-0.8-1.3-1.7-1.2-2.4c0.1-1.1,0.9-1.2,1.8-1.1v0c1.8,0.4,3.7,1.4,5.2,2.5C106.6,124.8,109.1,129.3,109.1,132.2z M95.3,119.9
				c0.5-0.2,1-0.3,1.6-0.3c-0.5,0.2-0.7,0.7-0.7,1.3c0,0.6,0.3,1.3,1.1,2.1c-0.1,0-0.2-0.1-0.4-0.1c-1.2-0.4-2.2-0.3-2.9,0.1
				C93.5,121.7,94,120.4,95.3,119.9z M52.8,103.4c3.6,0.7,8.3,1.9,12.1,3.3c-0.1,0.3-0.3,0.5-0.5,0.7c-1.3,1.2-5.5,0.3-7.2,0.5
				c-0.6,0.1-1.2,0.4-1.4,0.6c0.7-0.4,2.1-0.4,3.6-0.3c0.1,0,0.2,0,0.4,0c0.2,0.2,0.3,0.7,0.5,1.6c-2.7,0.6-5.6,1.4-7.9,2.2
				c-0.8-1.6-1.3-3.2-1.2-4.7C51.2,106.4,51.6,104.9,52.8,103.4z M73.3,110c1.6,0.8,3.1,0.3,4.5-0.7c0.7-0.5,1.5-1.1,2-1.7
				c1.5-0.1,3.4-0.1,5.5-0.1c0,0.5-0.1,1-0.2,1.5c-0.3,1.4-0.8,3.1-1.5,4.6c-0.6,1.2-1.2,2.3-2.1,3.4c-1.4,1.8-3.8,4.2-7.1,4.5
				c-5.6,0.6-8.9-2-10.9-5c-1.5-2.2-2.3-4.9-2.8-6.6c1.1-0.2,2.4-0.4,3.7-0.6c0.8,0.4,1.8,0.9,2.9,1.3c1.6,0.6,3.4,0.8,4.8,0.3
				C72.9,110.7,73.2,110.3,73.3,110z M79.7,104.7c2.3-1.1,5.9-2.6,9.8-4.1c1.7,1,2.9,3,2.6,6.5c0,0.2,0,0.4-0.1,0.7
				c-1.4-0.1-2.8-0.3-4.2-0.4c-0.7,0-1.4-0.1-2-0.1c0-0.5-0.1-1-0.2-1.3c1.9-0.5,3.6-1.2,4.3-1.2c-0.9-0.6-4.8,1.4-7.7,1.4
				C80.7,106.2,79.4,106,79.7,104.7z M84.1,106.2c0.4-0.1,0.8-0.2,1.2-0.3c0.1,0.2,0.1,0.7,0.1,1.2c-2.1-0.1-3.8-0.1-5.1,0
				c0.3-0.3,0.5-0.6,0.6-0.8C81.9,106.6,83.1,106.4,84.1,106.2z M60.6,109.8c-0.2-0.5-0.3-0.9-0.4-1.2c-0.1-0.1-0.1-0.2-0.2-0.3
				c0.7,0,1.5,0.1,2.1,0c0.5,0.1,1.1,0.4,1.8,0.8C62.9,109.3,61.8,109.5,60.6,109.8z M60.4,110c0.5,1.7,1.2,4.4,2.8,6.8
				c1.9,2.7,4.9,5.1,9.6,5.1c0.5,0,1.1,0,1.7-0.1c2.7-0.3,5.3-2,7.4-4.7c1.5-2,2.6-4.3,3.2-6.5c0.3-1.1,0.5-2.2,0.6-3.1
				c1.9,0,4,0.2,6.2,0.4c-0.5,3-2.3,6.1-5.1,8.9c-1.2,1.2-3,2.8-5.1,4c-3.4,2.1-7.7,3.7-11.9,3.1c-3.6-0.5-6.8-2.5-9.7-4.3
				c-3.6-2.3-6.2-4.9-7.7-7.5C54.7,111.4,57.2,110.7,60.4,110z M90.9,113c1.1-1.8,1.7-3.5,2-5c1.1,0.1,2.1,0.2,3.2,0.4
				C94.2,110.7,92.3,112.4,90.9,113z M101,76.4c1.4,4.4,2.2,10.7,1.2,16.9c-0.7,4.6-2.2,9.2-4.7,13c-0.4,0.7-0.9,1.3-1.4,1.9
				c-1-0.2-2.2-0.3-3.3-0.4c0.2-1.3,0.2-2.5,0.1-3.3c-0.4-2-1.5-3.4-2.8-4.2c3.5-1.4,7.3-2.7,10.6-3.6c-2.7,0.5-6.9,1.9-11,3.4
				c-0.1,0-0.1-0.1-0.2-0.1c-0.4-1.4-1.6-3.5-2.1-4.2c0.8-0.6,2-2.3,2.8-4.7c1.6-4.8,0.4-9.8,0.3-9.2c0.4,6.3-2.4,12.4-4.9,10.7
				c-3.5-2.3-5.2-16.4-0.3-23.3c1.3-1.9,2.9-3,4.7-3.3C95.4,64.9,99.3,71.2,101,76.4z M34.5,74.8c2.8-2.6,8-3.6,13.7,1.1
				c3.6,2.9,8.3,10.2,10.5,9.8c-0.4-0.1-1-0.5-1.6-1.1c0.8-1.5,3.1-4.1,5.8-6.2c-2.2,2.1-4.5,4.9-4.1,6.2c1.2-1.6,6.3-5.6,12.9-7.9
				c-1.6,0.8-6.1,3-7.1,5.2c0.1-0.1,0.2-0.2,0.3-0.2c3.2-0.9,9.1-1,13.7,2.2c-0.6-0.9-1.8-1.7-3.3-2.4c2.6-2.4,3.4-10.5,7.3-14.1
				c2.5-2.3,6-3,8.7-2.3c-2.9,0.1-5.2,2.2-6.7,4.6c-3.6,5.9-3.4,19.3,0.9,23c1.8,1.5,4.2-0.7,5.3-4.9c-0.2,2.7-1.8,5.9-3.5,8
				c0.2,0.4,1.2,2.1,1.6,3.8c-1.2-0.3-2.3-0.3-3.1,0.2c1.1-0.1,2.4,0,3.5,0.6c-3.5,1.4-7,2.8-9.3,3.9c0.8-2.1,3.8-3.9,4.6-4.1
				c-1.5-0.2-4.7,2.4-5.1,4.3c-0.6,0.3-1,0.5-1.4,0.7c-1.3,0.6-1.1,0.9-0.7,0.7c0.4-0.2,1.1-0.5,2-1c0,0.7,0.4,1.2,1.4,1.4
				c0,0,0.1,0,0.1,0c-0.2,0.2-0.5,0.5-0.9,0.9c-2.3,0.1-3.3,0.4-2.9,0.6c0,0,0.1,0,0.2,0c0.5-0.1,1.3-0.1,2.2-0.2
				c-0.7,0.6-1.5,1.3-2.3,1.7c-1.7,1-3.1,0.7-3.7,0.4c0-0.1,0-0.2,0-0.4c-0.4,1.2-2.6,1.9-5.6,1.1c-1.1-0.3-2-0.7-2.9-1.2
				c1-0.1,2-0.3,3-0.4c0.3,0,0.4-0.1,0.4-0.1c0,0,0-0.1-0.2-0.1c-0.9,0-2.2,0.1-3.8,0.3c-0.1,0-0.1-0.1-0.2-0.1
				c-0.6-0.3-1.2-0.6-1.6-0.7c0.4,0,0.7-0.1,1.1-0.2c0.7-0.2,1.2-0.7,1.5-1.3c0.5,0.2,1,0.4,1.5,0.6c1,0.5,1.1,0.6,1.3,0.6
				c0.3,0.1,0.3-0.2-0.6-0.6c-0.6-0.3-1.3-0.6-2.1-0.9c0.1-0.4,0.1-0.8-0.1-1.3c0.5-0.7,1.9-1.6,3.2-1.8c0.6-0.1,1.4,0,1.9,0.5
				c-1.2,0.4-1.9,1-1.9,1.7c0.1,0.7,2,1.2,3.2,1.5c0.4,0.1,0.8,0.3,0.9,0.3c0,0.2,0.1,0.4,0.1,0.6c0.1-0.2,0.1-0.4,0.1-0.6
				c0.7-0.4,3.4-2,3.5-2.9c0.1-0.7-1.1-1.2-2.7-1.2c0.4-0.4,1.3-0.8,2.4-0.8c0.8,0.1,1.8,0.3,2.9,1.1c-0.4-0.6-2-1.8-3.9-1.4
				c0.7-1.3,2.1-2.7,3.8-2.8c1.1,0,2.2,0.4,2.9,1.2c-0.2-0.7-0.7-1.4-1.3-1.8c0.2-0.2,0.3-0.5,0.5-0.7c0.2,0.5,0.4,1,0.4,1.4
				c0.1-0.4,0-1.1-0.3-1.7c1-2,1.7-4.8,1.4-5.9c0,0.3-0.4,3.3-1.6,5.5c-0.3-0.6-0.8-1.2-1.5-1.5c0.1-1.4,0-2.7-0.5-3.3
				c0.2,0.5,0.4,1.9,0.2,3.2c-0.6-0.2-1.3-0.1-2.1,0.4c-1.9,1.1-3,3.8-3,5c0.6-2.3,2.7-5.6,4.9-5c0,0,0.1,0,0.1,0
				c-0.1,0.8-0.4,1.6-0.8,2.2c-1.4,0.3-2.8,1.6-3.3,3.7c0,0-0.1,0-0.1,0c-0.8,0.2-1.4,0.7-1.5,1c-0.3,0-0.7,0.1-1.1,0.1
				c-0.6,0.1-1.1,0.2-1.6,0.4c-0.5-0.7-1.3-1-2.2-0.9c-1.4,0.2-2.7,1.1-3.2,2c-0.2-0.5-0.7-1.1-1.4-1.7c-2.2-1.7-6-2.7-7.1-2.2
				c1.5,0,3.7,0.6,5.5,1.6c1.7,1,3,2.4,2.8,3.6c-3.6-1.3-8.3-2.5-12-3.2c0.6-0.6,1.4-1.2,2.3-1.7c-0.8,0-2,0.6-3.1,1.6
				c-0.1,0-0.1,0-0.2,0c-0.2-1.5-0.1-3.7,0-3.9c-0.4,0.6-0.6,1.6-0.6,2.8c-2.3-0.3-7.7-3.8-9.2-10.3c1.7,4.1,5.4,8.1,8.2,6.4
				c1.7-1.1,1.3-4.6,0.7-7.3c-0.7-3-2-6.3-2.8-7.9c-1.9-3.5-4.1-6-6.6-7.3c-2.2-1.2-4.7-1.3-6.8-0.5c-0.6,0.2-1.1,0.6-1.6,1
				C33.8,75.5,34.1,75.2,34.5,74.8z M73.8,103.8c1.1-0.1,1.6,0.2,1.7,0.6c0.1,0.4-0.4,0.9-1.5,1c-0.9,0.1-1.9-0.1-1.9-0.6
				C72.1,104.2,72.9,103.9,73.8,103.8z M79.5,98.7c-0.2-0.1-0.5-0.1-0.7-0.1c0.3-0.6,0.4-1.3,0.5-2c0.5,0.3,1,0.8,1.3,1.4
				c-0.2,0.3-0.4,0.6-0.7,0.9C79.8,98.8,79.6,98.7,79.5,98.7z M44.8,114.1c-8.1-6.4-14.6-17.4-14.4-28.7c0.1-3.9,1.3-8.6,4.8-10.1
				c1.9-0.8,4.3-0.7,6.4,0.4c2.4,1.2,4.6,3.7,6.4,7.1c0.7,1.2,2,4.4,2.7,7.8c0.9,3.7,0.7,5.9-0.5,6.7c-2.5,1.6-5.9-2.3-7.3-5.3
				c-0.6-1.3-1-2.5-1.2-3.4c-0.3-0.4-0.2,3.1,1.3,6.3c2.2,4.4,6.1,7.2,8.4,7.3c0,0.2,0,0.4,0,0.6c-2.3-0.4-3.9-0.5-4.1-0.2
				c0.4-0.1,1.9,0.1,4.1,0.4c0,0.3,0,0.5,0,0.8c-0.7,0.9-1.2,2-1.2,3.4c-0.1,1.7,0.4,3.4,1.3,5c-1.1,0.4-2.1,0.9-2.9,1.3
				c1-0.4,1.9-0.8,2.9-1.1c1.3,2.3,3.5,4.6,6.4,6.7C53.8,119.7,49,117.5,44.8,114.1z M59,126.7c-0.9-2.3-1.2-5.2,0.8-6.3
				c3.3,2.1,6.5,3.7,9.9,4.1c7.6,1.1,15.1-4.5,18-7.4c0.1-0.1,0.2-0.2,0.2-0.2c0.8,0.7,2.2,2.5,2.3,6.2c0.2,6.6-3.8,15.2-4.6,20.4
				c-0.9,0.1-1.9,0.1-2.9-0.1c-0.2-0.6-0.6-1-1.3-1.1c-0.3,0-0.6,0-0.9,0.1c-0.1-0.1-0.3-0.3-0.4-0.4c0.4-2.4,1.1-14.3,1.5-18.3
				c-0.3,0.5-0.7,2.7-1,5.5c-0.4-1.4-1.3-3.2-2.5-3.3c-0.4,0-0.8,0.2-1.1,0.7c-0.9,1.4-1.2,4-1.2,6c-0.8-2.8-3.8-7.2-5.1-5.8
				c-0.4,0.5-0.6,1.4-0.5,2.4c-0.6-1.8-1.1-3.1-1.5-3.6c0.5,1.4,3.1,12,6.9,18.8c-2.8-0.1-4.8-1.3-6.6-2.2c-0.8-0.4-1.4-0.7-2-0.9
				C65.9,139.4,60.6,130.8,59,126.7z M85,145.8c0.2,0.2,0.7,0.3,1.4,0.4c2.1,2.1,4.7,2.4,5.6,3.1c0.4,0.3,0.3,0.9,0.2,1
				c-0.2,0.6-1,1.2-2,1.1c-3-0.4-4.4-3-5.9-3.2c0.2,0.1,0.5,0.3,0.7,0.6c-0.4,1.1,1.1,3.1,1.4,4.5c0.2,1-0.3,1.5-1,1.5
				c-2.3-0.1-3.3-5.3-3-6.5c-0.1,0.4-0.2,0.8-0.3,1.2c-1.3-0.4-1.8-1.8-1.8-2.3c1.5-0.7,2.4-2,2.5-3c0-0.2,0-0.4,0-0.5
				c3,0.6,5.4,0,7.8-1.4c0.5-0.3,0.8-0.5,1.1-0.3c0.5,0.2,0.7,0.8,0.5,1.5C91.9,144.7,89.2,146.2,85,145.8z M76.9,147.5
				c0.8,0.1,1.5,0.1,2.2,0c-0.5,1.3-3.2,2.1-4.6,2.2c1,0.2,2.1,0.1,3-0.3c-0.9,1.4-3.5,2.1-3.6,2.1c0.1,0,0.2,0,0.3,0
				c-0.2,1-1.4,3-3,3.7c-1.1,0.4-2.2,0.3-2.6-0.3c-0.8-1.2,2.2-1.8,3.6-4.4c0.2-0.4,0.4-0.9-1.2-0.3c-1.1,0.4-2.6,1-3.9,1
				c-2.2-0.1-4.2-1.8-3.4-2.8c0.4-0.5,1.6-0.4,2.9-0.3c1.7,0.1,3.7,0.1,5-1c0.3,0,0.5-0.1,0.7-0.2c-4,0.1-6.8-2.2-7.2-3.8
				c-0.1-0.4-0.1-1,0.6-1.3c0.7-0.3,1.8,0.2,3.1,0.9c2.1,1.1,5,2.5,8.8,2c1.5-0.2,2.6-2.1,3.8-2c0.7,0.1,1.1,0.9,0.8,1.9
				C81.7,146.3,78.6,147.5,76.9,147.5z M70.6,130.3c-0.2-1.2-0.3-2.8,0.2-3.4c1-1.4,4.6,4.1,5.1,6.3l0,0c0,0.3,0,0.5,0.1,0.8
				c0,0.1,0.2-0.2,0.2-0.2c0-1.8,0-5.6,1.2-7.3c1.3-2,2.8,1.8,3.2,3.3c-0.3,2.9-0.5,6.1-0.6,8.5c-0.3,0.3-1,0.8-1.5,0.9
				c-0.3-0.4-0.6-0.6-0.9-0.8c-0.9-0.4-1.6,0.2-1.8,1.2c-0.6,0.1-1.5-0.1-1.8-0.2C72.6,136.2,71.5,132.9,70.6,130.3z M78.1,144
				c-2.8-2.1-1.9-4.9-1.2-5.1c0.2-0.1,0.5,0,0.7,0.2c0.8,0.6,1.5,2.3,2.6,3.3C79.5,142.8,78.7,143.6,78.1,144z M78.6,139.6
				c0.3-0.1,0.9-0.4,1.3-0.8c-0.1,1.3-0.1,2.3-0.1,2.8C79.5,140.9,79.1,140.2,78.6,139.6z M75.7,140c-0.1,0.8,0,1.8,0.5,2.6
				c0.4,0.6,0.9,1,1.7,1.5c-0.1,0-0.2,0.1-0.3,0.1c-0.5,0.1-1,0.1-1.5,0.1c-0.7-1.5-1.4-3-2-4.6C74.4,139.9,75.1,140,75.7,140z
				 M51.6,126.1c1.2,0,2.3,0.6,2.5,2.1c-0.5,0-1.1,0.1-1.6,0.3c-0.2,0.1-0.4,0.2-0.7,0.3c0.5-0.8,0.5-1.6,0-2.1
				c-0.2-0.2-0.5-0.4-0.9-0.4C51.2,126.1,51.4,126.1,51.6,126.1z M43.3,134.7c1.3-4.3,4-7.1,6.5-8.1c0.9-0.2,1.5-0.1,1.8,0.3
				c0.4,0.5,0.3,1.3-0.3,2.2c-1.5,0.9-2.2,2.2-2.3,2.9c0.8-1.7,2.8-3.2,4.3-2.5c0.5,0.2,0.6,0.7,0.5,1.4c-0.2,1-1.2,2.3-2.4,3.8
				c-0.2,0.2-0.4,0.5-0.6,0.7c-0.5,0.6-0.9,1.2-1.3,1.8c-0.9,1.4-1.8,2.7-3.4,3.5c-1,0.4-2,0.5-2.6,0.1
				C42.1,139.6,42.8,136.3,43.3,134.7z M46.2,143.8c0.7,0.1,1.5,0,2-0.4c-0.7,0.3-3.9-0.1-5-2.7c0.7,0.7,2,0.6,3,0.1
				c1.7-0.8,2.6-2.1,3.5-3.6c0.4-0.6,0.8-1.2,1.3-1.8c0.2-0.3,0.4-0.5,0.6-0.7c1.2-1.5,2.3-2.8,2.5-3.9c0.2-0.8-0.1-1.3-0.7-1.6
				c-0.4-0.2-0.9-0.2-1.4-0.1c1.8-0.7,3.6-0.5,4.4,1.2c0.3,0.7,0.2,1.6-0.3,2.5c-1.7,3.1-6.2,6.3-6.6,8.4c0.3-0.6,1-1.4,1.9-2.2
				c2.5,1.2,5.5,2,8.1,1.7c-0.4,1.5-0.5,3.2-0.3,5c0.3,2.9,1.6,6.2,3.8,9C54.4,150.8,47.9,145.6,46.2,143.8z M67.9,168.2
				c-1.4,3.2-1.6,5.9-0.8,8.6c-1-1.1-1.5-3.1-1.7-5.1c-0.2-2.8,0.2-4.8,0.9-6.5c1.1-2.7,2.8-4.5,3.6-6.3c1.7,0.5,3.5,0.7,5.4,0.8
				C73.7,161.7,69.4,164.9,67.9,168.2z M63.3,154.1c-2.3-2.8-4.4-8.3-3.1-13.5c0,0,0,0,0,0l0,0c0.3-1.2,0.8-2.5,1.5-3.6
				c-0.8,0.6-1.4,1.7-1.9,2.9c-0.2,0-0.4,0.1-0.6,0.1c0.4-1.4,1.7-3.8,3.2-5c1.6,2.6,3.3,5.1,4,6.1c-0.4,0-0.7,0-1,0.1
				c-0.8,0.4-1.1,1.1-0.9,2c0.6,2.6,4.1,3.9,6.3,3.9c-1.1,0.7-2.8,0.4-4.3,0.4c-1.5-0.1-2.8-0.2-3.4,0.5c-1,1.2,0.7,3,2.8,3.5
				c1.2,0.3,2.3,0.1,3.3-0.3c1.2-0.4,2.6-1.3,2.8-1.1c0.1,0.1-0.6,0.9-1.4,1.6c-1.4,1.3-2.9,2-2.9,2.9c0,1,1.2,1.5,2.4,1.3
				c2.2-0.3,3.9-2.7,4.1-4.5c1.5,0,3.2-0.8,3.6-2.3c0.9-0.5,1.5-1.1,1.7-1.8c0.1,0,0.2-0.1,0.3-0.1c0,1,0.7,2.1,2.2,2.5
				c-0.1,2.5,1.3,5.5,3.3,5.5c1.2,0,1.8-0.8,1.7-1.7c-0.1-1.3-2.1-3.9-1.8-4.6c1,1,2.5,2.6,4.7,2.9c1.3,0.2,2.4-0.5,2.7-1.4
				c0.3-0.7,0.1-1.3-0.4-1.7c-1.2-0.8-3.8-1-5.5-2.6c1.3,0.1,3.1-0.1,4.4-0.8c2.7-1.5,1.8-4.9-0.4-3.9c-1,0.4-2.7,1.5-4.9,1.8
				c0.2-1.1,0.6-2.3,1-3.5c0.5-1.5,1.2-3.3,1.8-5.3c0.9,1.9,5.6,6.7,5.2,12.2c-0.2,2.6-0.8,4.6-2.7,6.5
				C85.2,159.3,69.2,161.3,63.3,154.1z M105.7,136c0.3,0,0.7,0,1,0c-2.4,2.7-5.6,9-13.6,15.7c1.8-2.9,2-5.9,1.2-8.6
				c-0.6-2-1.6-3.7-2.5-5.2c2.4-0.5,7.2-3.2,8.7-5.9c0.7,0.4,1.2,0.9,1.6,1.5c-0.2-1.6-2.3-2.7-4.2-3.5c-0.9-0.4-2-0.8-2.8-1.2
				c-1.2-0.7-2-2-1.8-3.5c0.1-1,0.6-1.6,1.4-1.9c0.6-0.2,1.2-0.2,1.8-0.1c-0.9,0.3-0.8,2,0.4,3c1,0.8,2.6,1.4,4.3,2.6
				c2.4,1.7,3.5,3.6,5.2,4.4c0.6,0.2,1.1,0.4,1.5,0.4c0.4,0,0.7-0.1,0.9-0.3c0,0,0.1,0,0.1-0.1C108.5,134.3,107.2,135.5,105.7,136z"
				/>
		</g>
	</g>
</g>
</svg>
