<?xml version="1.0" encoding="utf-8"?>
<!-- Generator: Adobe Illustrator 24.3.0, SVG Export Plug-In . SVG Version: 6.00 Build 0)  -->
<svg version="1.1" id="群組_13" xmlns="http://www.w3.org/2000/svg" xmlns:xlink="http://www.w3.org/1999/xlink" x="0px" y="0px"
	 viewBox="0 0 390 160" style="enable-background:new 0 0 390 160;" xml:space="preserve">
<style type="text/css">
	.st0{fill-rule:evenodd;clip-rule:evenodd;fill:#1E1E1E;}
	.st1{fill:#1E1E1E;}
	.st2{fill:#FEFCF7;}
	.st3{fill-rule:evenodd;clip-rule:evenodd;fill:#FFFFFF;}
	.st4{fill-rule:evenodd;clip-rule:evenodd;}
	.st5{fill:#FFFFFF;}
	.st6{fill:#C1C4C6;}
	.st7{fill:#FEF0CA;}
	.st8{fill:#F6BBAA;}
	.st9{fill:#0C0103;}
	.st10{fill:#1C1D1D;}
</style>
<g>
	<path id="形狀_512" class="st0" d="M375.8,56c0-2.4,4.9-5.9,4.9-5.9c-1.5,0.6-3.1,0.9-4.8,0.9c-0.7,0-1.4-0.1-2.1-0.2
		c0.4-0.7,0.6-1.5,0.8-2.3c0.7-2.7,0.6-5.6-0.2-8.3c-1-3-3.1-5.6-5.9-7.1c-1.9-1-4-1.7-6.2-1.9c0.2-2.6-0.3-5.1-1.5-7.4
		c-1.2-2.4-3.3-4.3-5.8-5.3c-1.6-0.6-3.3-0.9-4.9-0.9c-0.6,0-1.2,0-1.7,0.1c-1.1,0.2-2.2,0.5-3.3,0.9c-3.7-1.6,0-9.4,0-9.4
		s-5.7,7.3-8.2,7.3h0c-3.2-0.1-6.7-3.3-12.1-10.4c0,0,4.1,7,4.1,9.6c0,2.1-2.8,3.2-5.3,3.2h-0.1c0,0,2.7,1.4,3.8,2.9
		c0.3,0.4,0.4,0.8,0.3,1.3c-1.1,0.6-2.1,1.4-3,2.3c-3.3,3.3-4.5,8.1-3.2,12.5c-1.4,0.8-2.6,1.8-3.8,2.8c-1.1,1.1-2.1,2.3-2.9,3.7
		c-1.3,2.4-1.8,5.2-1.2,7.9c0.2,1.1,0.6,2.3,1.2,3.3c-0.6,1.4-2.3,3.4-7,5.2c0.7-0.1,1.4-0.2,2.1-0.2c1.4,0,3.1,0.2,3.9,1.2
		c1.1,1.4-0.6,4.4-6.3,8.7c0,0,9-5.8,12.7-5.8c0.3,0,0.7,0.1,1,0.2c1.9,1.2,2,4.1,0.2,13.3c0,0,3.1-6.4,4.7-6.6c0,0,0,0,0.1,0
		c1.1,0,2.8,2.3,4.6,6c0,0-1.7-6.2-0.6-7.4c0.2-0.2,0.5-0.4,0.8-0.5c1,0.7,2.1,1.2,3.3,1.5c1.2,0.4,2.4,0.5,3.6,0.5
		c0.6,0,1.3,0,1.9-0.1c1.6-0.2,3.1-0.7,4.5-1.4c1.3-0.6,2.5-1.4,3.7-2.2c2.1,1.2,4.5,1.9,7,1.9c0.4,0,0.8,0,1.3-0.1
		c2.4-0.2,4.6-1,6.7-2.2c1.3-0.8,2.5-1.9,3.4-3.2c0.4-0.1,0.7-0.2,1.1-0.2c0.4,0,0.7,0.1,1.1,0.2c2,0.9,4.5,7.1,4.5,7.1
		c-1.1-6.2-1.2-8.3,0.4-9.7c0.3-0.2,0.7-0.3,1-0.3c3.2,0,11.2,4.4,11.2,4.4C378.4,61,375.8,57.9,375.8,56z M329.5,69.8
		c-0.4,0.4-0.7,1.1-0.5,3.3c-1.4-1.9-2.2-2.2-2.9-2.2h-0.1c-0.6,0.1-1.3,0.5-2,1.4c-0.4,0.4-0.7,0.9-1,1.4c0.3-1.7,0.4-3.3,0.4-5
		c0-0.9-0.1-1.8-0.5-2.7c-0.3-0.7-0.8-1.3-1.4-1.7c-0.4-0.2-0.9-0.4-1.4-0.3c-1.3,0.1-2.6,0.4-3.8,1c-0.9,0.3-1.9,0.8-2.9,1.3
		c0.8-0.9,1.3-1.9,1.5-3c0.1-0.7-0.1-1.4-0.5-1.9c-0.7-0.8-1.7-1.3-2.8-1.4c0.4-0.2,0.8-0.5,1.2-0.8c0.9-0.7,1.7-1.5,2.4-2.5
		c0-0.1,0.1-0.1,0.1-0.2c0.4,0.6,0.8,1.2,1.3,1.7c1.2,1.3,2.7,2.3,4.4,3c1.6,0.7,3.2,1.1,4.9,1.2c0.6,2.7,2.2,5.2,4.3,6.9
		C329.9,69.5,329.7,69.6,329.5,69.8z M343.3,19.5c-1.4,0.8-2.7,1.9-3.8,3.1c-1.7-0.8-3.6-1.2-5.5-1.2c-0.1,0-0.3,0-0.4,0
		c-1.8,0-3.5,0.5-5.1,1.2c0-0.5-0.2-0.9-0.4-1.3c-0.6-0.7-1.2-1.4-2-1.9c0.6-0.1,1.1-0.3,1.6-0.6c1.3-0.5,2.1-1.8,2.2-3.1
		c-0.1-1.2-0.4-2.3-0.9-3.4c0.7,0.8,1.5,1.6,2.3,2.3c2.1,1.8,3.9,2.7,5.8,2.8h0c0.8,0,1.7-0.4,2.8-1.3c1-0.8,1.9-1.6,2.8-2.6
		c0.1-0.1,0.2-0.2,0.3-0.3c-0.5,2.2-0.4,3.8,0.4,5c0.2,0.4,0.5,0.7,0.9,0.9l0,0l0.1,0C343.9,19.2,343.6,19.3,343.3,19.5L343.3,19.5z
		 M372.6,61.4c-1,0.9-1.6,2.3-1.5,3.7c0,0.5,0,1,0.1,1.5c-0.9-1.5-1.8-2.4-2.5-2.8c-0.4-0.2-0.9-0.3-1.4-0.3c-0.2,0-0.3,0-0.5,0
		c0.6-1.2,1.1-2.4,1.3-3.7c0.2-1.2,0.3-2.5,0.2-3.7c2.2-0.9,4-2.5,5.1-4.5c0.8,0.2,1.7,0.3,2.5,0.3c0.5,0,1,0,1.5-0.1
		c-0.6,0.6-1.1,1.2-1.6,1.8c-0.5,0.7-0.9,1.5-0.9,2.4c0,0.7,0.2,1.4,0.6,2.1c0.5,0.8,1.1,1.6,1.8,2.4c0.5,0.6,1.1,1.2,1.8,1.8
		c-1.6-0.7-3.2-1.2-5-1.3C373.6,60.9,373.1,61,372.6,61.4z M373.8,21.1c0.3-0.2,0.3-0.6,0.1-0.8c0,0,0,0,0,0l0,0
		c-0.2-0.2-0.6-0.3-0.8,0c0,0,0,0,0,0l-4.6,5.1L373.8,21.1z M369.4,17.8L369.4,17.8c-0.3-0.2-0.7-0.1-0.8,0.2c0,0,0,0,0,0l-3.3,7.1
		l4.4-6.6C369.7,18.3,369.7,18,369.4,17.8C369.4,17.8,369.4,17.8,369.4,17.8L369.4,17.8z M376.2,25.1c0.3-0.2,0.4-0.5,0.2-0.8
		c0,0,0,0,0,0l0,0c-0.2-0.3-0.6-0.3-0.8-0.1c0,0,0,0,0,0l-8.4,4.6L376.2,25.1z M306.3,34.1c-0.3-0.1-0.7,0.1-0.7,0.5c0,0,0,0,0,0v0
		c-0.1,0.3,0.2,0.6,0.5,0.7c0,0,0,0,0,0l9.2,0.8L306.3,34.1z M306.2,31.1l11.3,3.5L306.7,30c-0.3-0.1-0.7,0-0.8,0.3c0,0,0,0,0,0l0,0
		C305.8,30.6,305.9,31,306.2,31.1C306.2,31.1,306.2,31.1,306.2,31.1L306.2,31.1z M312,29.4l3.9,1.9l-2.8-2.7
		c-0.3-0.2-0.7-0.1-0.9,0.1c0,0,0,0,0,0c-0.2,0-0.3,0.2-0.3,0.4C311.9,29.3,311.9,29.4,312,29.4L312,29.4z M349.9,72.2l1,9.2
		c0.1,0.3,0.4,0.5,0.7,0.5c0.3,0,0.5-0.2,0.5-0.5c0,0,0-0.1,0-0.1L349.9,72.2z M347.1,78.2c0.3,0,0.6-0.3,0.6-0.6c0,0,0,0,0,0
		l0.5-5.1l-1.7,5.1C346.5,77.8,346.7,78.1,347.1,78.2C347.1,78.2,347.1,78.2,347.1,78.2z M352.1,71.1l3.8,5.2
		c0.1,0.3,0.5,0.4,0.8,0.3c0.3-0.1,0.4-0.5,0.3-0.8c0,0,0,0,0-0.1L352.1,71.1z"/>
	<g>
		<path id="野餐用不到_但就是想_拷貝_3_" class="st0" d="M20.2,43.3h1.4l-0.1,1.7h-1.4L20.2,43.3z M20.5,38.5H22
			l-0.1,1.6h-1.4L20.5,38.5z M26.8,40.1h-1.4l0.1-1.6H27L26.8,40.1z M26.5,44.9h-1.4l0.1-1.7h1.4L26.5,44.9z M24.8,54.2h4.8l0.3-3.9
			h-4.8l0.1-1.9h4.7l0.9-13.3H17.2l-0.9,13.3H21l-0.1,1.9h-4.6L16,54.2h4.6l-0.2,2.6c-2.1,0.2-4,0.3-5.6,0.4l0.2,4.3
			c4-0.5,9.5-1.1,14.6-1.7l0.2-3.8c-1.7,0.2-3.4,0.3-5.2,0.5L24.8,54.2z M41.6,44.9L40.9,45h-0.1l1-1c-0.7-0.5-1.5-1-2.2-1.5
			c1.9-1.7,3.5-3.6,4.9-5.7l-2.6-2L41,35.1h-9.1l-0.3,3.9h6.3c-0.5,0.6-0.9,1.2-1.5,1.8c-0.7-0.4-1.5-0.7-2.2-1l-2.9,2.7
			c1.6,0.8,3.2,1.6,4.7,2.6h-5.3l-0.3,4.1H34l-0.6,8.5c0,0.4-0.2,0.5-0.6,0.5c-1,0-2,0-3.1-0.1c0.5,1.4,0.8,2.8,0.9,4.3
			c2.2,0,3.8-0.1,5.2-0.7c1.4-0.7,1.8-1.9,1.9-3.8l0.6-8.6h1.2c-0.3,1.4-0.6,2.7-0.9,3.6l3.5,0.7c0.9-2.6,1.7-5.3,2.3-8L41.6,44.9z
			 M58,40.2c-0.7,0.7-1.6,1.4-2.4,1.9c-0.5-0.5-1.1-0.9-1.7-1.3c0.2-0.2,0.5-0.4,0.7-0.6H58z M60.7,37.8L60,38h-1.4l0-0.7h4.7
			l0.2-2.5h-4.7l0.1-1h-3.6l-0.3,4l-1.8-0.3c-1.2,1.5-2.8,2.7-4.5,3.5c0.8,0.6,1.5,1.4,2,2.3c0.3-0.2,0.6-0.4,0.9-0.6
			c0.4,0.3,0.9,0.7,1.3,1.1c-1.2,0.6-2.5,1-3.8,1.4c0.7,0.8,1.4,1.7,1.9,2.6c4.7-1.5,9.4-4.3,11.9-8.6L60.7,37.8z M55.9,49.8
			c1-0.4,2.1-1,3.1-1.5l-0.1,1.1h7.5l0.1-1c1,0.5,2,1,3,1.4L55.9,49.8L55.9,49.8z M70.3,56.7c-0.3,0.3-0.7,0.6-1,0.8
			c-0.8-0.3-1.6-0.6-2.4-0.8H70.3L70.3,56.7z M57.7,58.3l0.1-1.6h4.7l-1.1,1.2l0.3,0.1L57.7,58.3z M58,54h9.1l0,0.6H58L58,54z
			 M58.1,52h9.1l0,0.5h-9.1L58.1,52z M60.5,47.5c0.7-0.4,1.4-0.9,2.1-1.4c0.7,0.5,1.4,0.9,2.1,1.4H60.5L60.5,47.5z M71.1,37.5
			c-0.5,0.6-1,1.1-1.6,1.5c-1.1-0.6-2.2-1.1-3.3-1.5H71.1L71.1,37.5z M76.3,43.3c-1.1-0.9-2.3-1.8-3.6-2.5c1.5-1.5,2.8-3.3,3.6-5.3
			l-2.3-1l-0.7,0.1h-9l-0.2,2.9h2l-2.5,2.3c0.8,0.4,1.7,0.8,2.6,1.3c-0.6,0.3-1.3,0.5-1.9,0.7c0.2,0.2,0.4,0.5,0.6,0.7l-1.9-1
			c-3.3,3.4-9.2,5.9-14.6,7.3c0.8,0.9,1.5,1.9,2,3.1c1.2-0.4,2.5-0.8,3.7-1.3l-0.5,6.8c0,0.8-0.4,1.6-1.1,1.9c0.5,0.9,0.9,1.9,1,2.9
			c0.8-0.4,2.1-0.6,9.4-1.3c0-0.8,0.1-1.7,0.2-2.5c3.3,1,6.5,2.4,9.5,4.1l2.2-2.5c-0.9-0.5-1.8-0.9-2.7-1.3c0.9-0.6,1.9-1.3,2.8-2
			l-2.8-1.9c-0.3,0.3-0.7,0.7-1.1,1.1l0.4-5.3c1.1,0.4,2.2,0.7,3.2,1c0.7-1.1,1.6-2.1,2.6-3.1c-4.2-0.9-9.2-2.6-12.2-4.5
			c0.2-0.2,0.4-0.4,0.5-0.5c0.2,0.4,0.4,0.7,0.6,1.1c1.2-0.4,2.4-1,3.5-1.6c1.4,0.8,2.7,1.8,3.9,2.8L76.3,43.3z M98.3,49.6l0.2-3
			h5.3l-0.2,3H98.3L98.3,49.6z M89,49.6c0.1-1,0.2-2,0.3-3h4.8l-0.2,3H89L89,49.6z M94.6,39.8l-0.2,2.7h-4.8l0.2-2.7H94.6z
			 M104.2,42.6h-5.3l0.2-2.7h5.3L104.2,42.6z M109,35.7H85.7L85,46.4c-0.3,4.2-0.9,9.6-4.4,13.2c1.2,0.8,2.3,1.7,3.3,2.8
			c2.3-2.3,3.6-5.5,4.4-8.7h5.4l-0.6,8.1h4.4l0.6-8.1h5.3l-0.3,3.6c0,0.4-0.2,0.7-0.6,0.7c-0.1,0-0.1,0-0.2,0c-0.5,0-2.5,0-4-0.1
			c0.6,1.3,0.9,2.7,1.1,4.2c2.7,0,4.5-0.1,6-0.7c1.4-0.7,1.9-1.8,2.1-4L109,35.7z M131.5,45.5l0.2-2.9c0.6-0.8,1.2-1.7,1.7-2.5h9.3
			l0.3-4.5h-26.4l-0.3,4.5h11.3c-3.3,4.8-7.9,8.7-13.2,11.2c1,1.2,1.9,2.6,2.7,4c3.4-1.7,6.6-4,9.3-6.7l-0.9,13.6h4.8l1-14.7
			c2.8,2.5,6.2,5.7,7.8,7.8l4-3.4c-2-2.4-6.4-6-9.3-8.3L131.5,45.5z M158.3,53h5.1l0.3-3.8h-5.1l0.2-2.4h-4.1l-0.2,2.4h-5.3
			l-0.3,3.8h5.3l-0.2,3.5c-2.4,0.4-4.6,0.7-6.3,0.9l0.7,4c4.2-0.7,10-1.7,15.3-2.7l0-3.7c-1.8,0.3-3.7,0.6-5.5,0.9L158.3,53z
			 M154.8,42.6c0.9-1.1,1.7-2.3,2.4-3.5h2.7l-2.1,1.2c0.4,0.7,0.8,1.4,1.3,2.1L154.8,42.6z M149.2,39.1h3.2c-0.5,0.9-1,1.8-1.6,2.7
			c-0.4,0.6-0.9,1-1.5,1.3c0.4,1.1,0.9,3.1,1.1,3.9c1-0.4,2.4-0.5,10.1-1.1c0.2,0.4,0.3,0.8,0.4,1.2l3.5-2.1c-0.8-2.1-1.9-4-3.2-5.9
			h3.7l0.3-3.7h-15.8L149.2,39.1z M170.2,36.7h-4l-1.3,18.3h4L170.2,36.7z M172,34l-1.6,23.2c0,0.3-0.2,0.7-0.5,0.7
			c-0.1,0-0.2,0-0.2,0c-0.5,0-2.1,0-3.6-0.1c0.6,1.3,1,2.7,1.2,4.1c2.4,0,4.2-0.1,5.6-0.8c1.3-0.7,1.8-1.8,1.9-3.9l1.6-23.2L172,34
			L172,34z M212.8,43.1h-6.5l0.3-3.6h6.5L212.8,43.1z M212.3,50.9h-6.5l0.3-3.7h6.5L212.3,50.9z M218.1,35.5h-15.8L201,54.9h15.8
			L218.1,35.5z M198,33.9c-1.8,4.1-4.3,7.8-7.6,10.9c0.8,1.5,1.5,3.1,2,4.8c0.5-0.5,1.1-1.1,1.6-1.7l-1,14.4h4.3l1.5-20.9
			c1.2-2,2.3-4,3.3-6.1L198,33.9z M198.9,57.3l-0.3,4.1h19.6l0.3-4.1H198.9L198.9,57.3z M238.8,37h-4.2c-0.3-1.1-0.6-2.2-1.1-3.3
			l-4.1,0.8c0.3,0.8,0.5,1.7,0.7,2.5H225l-0.3,3.8h13.8L238.8,37z M229.2,45.2h4.1l-0.1,1.9h-4.1L229.2,45.2z M236.9,50.4l0.6-8.6
			h-11.8l-0.6,8.6h4.2l-0.5,7.7c0,0.2-0.1,0.4-0.3,0.4c0,0-0.1,0-0.1,0c-0.3,0-1.1,0-1.9,0c1.1-2.2,2-4.5,2.6-6.9l-3.4-0.7
			c-0.6,2.6-1.6,5.4-2.9,7.2c1,0.6,1.9,1.3,2.8,2.1c0.3-0.4,0.6-0.9,0.8-1.4c0.4,1.1,0.7,2.2,0.8,3.4c1.7,0,2.9-0.1,4-0.6
			c1.1-0.6,1.4-1.6,1.5-3.2l0.5-7.8L236.9,50.4L236.9,50.4z M233.1,51.8c0.8,1.8,1.4,3.6,1.7,5.5l3.3-1.5c-0.4-1.9-1-3.7-1.8-5.4
			L233.1,51.8z M247.6,58.6c-0.1,0-0.2-0.1-0.3-0.2c0-0.3,0-0.6,0-0.9l0.8-11.3h-2.3l0.2-1h6.3l0.3-3.9h-6.1
			c0.2-1.6,0.3-3.1,0.5-4.7c1,1.4,1.8,2.9,2.4,4.5l3.1-1.8c-0.8-1.7-1.7-3.3-2.9-4.8L247,36l0.2-2.2h-4.1c-0.2,2.5-0.3,5-0.6,7.5
			h-3.6l-0.3,3.9h3.4c-0.9,5.6-2.7,10.7-6.9,14.4c1.1,0.7,2.1,1.7,2.8,2.8c2.7-2.6,4.7-5.8,6-9.3l-0.3,4.4c-0.2,2.2,0.1,2.9,0.6,3.5
			c0.6,0.5,1.4,0.8,2.2,0.8h1.9c0.6,0,1.3-0.1,1.9-0.4c0.6-0.3,1.1-0.9,1.4-1.6c0.4-1.2,0.6-2.5,0.7-3.8c-1.2-0.4-2.3-1-3.2-1.8
			c-0.1,1.6-0.2,2.9-0.3,3.4c0,0.3-0.1,0.6-0.3,0.9c-0.1,0.1-0.2,0.1-0.3,0.1H247.6L247.6,58.6z M278,38.6h-12.7l0.1-1H278L278,38.6
			z M277.7,42.4H265l0.1-1h12.7L277.7,42.4z M282.7,34.6h-21.4l-0.8,10.8h21.4L282.7,34.6z M273.1,55.6h8.9l0.3-3.8h-8.9l0.1-1.6
			h10.8l0.3-3.8h-26.7l-0.3,3.8h11.4l-0.5,6.9c-1.5-0.5-2.8-1.7-3.4-3.2c0.3-0.9,0.6-1.7,0.9-2.6l-4.3-0.6c-0.9,3.8-2.9,6.9-6,8.7
			c1.1,0.9,2.2,1.9,3.1,3.1c1.7-1.2,3.2-2.6,4.3-4.4c2.3,3.2,5.9,3.9,11.1,3.9h8.8c0.4-1.5,0.9-2.9,1.7-4.1c-2.5,0.1-8,0.1-10,0.1
			c-0.6,0-1.2,0-1.8,0L273.1,55.6z M308.3,47.2h4.4l-0.1,1.2h-4.4L308.3,47.2z M308.6,42.9h4.4l-0.1,1.2h-4.5L308.6,42.9z
			 M308.9,38.6h4.4l-0.1,1.1h-4.5L308.9,38.6z M300.8,53.1c1.3,1.3,2.5,2.6,3.6,4.1l3.3-2.7c-0.8-1-1.7-1.9-2.6-2.7h11.5l1.2-16.6
			h-12.6l-1.1,15.6l-0.1-0.1L300.8,53.1z M294.8,52.2h4.2l0.4-5.6c0.8,0.8,1.5,1.6,2.2,2.4l2.5-3.5c-0.7-0.5-3.3-2.4-4.4-3.1
			l0.1-0.8h3.9l0.3-3.7h-3.9l0.3-4.2h-4.1l-0.3,4.2h-4.7l-0.3,3.7h4c-1.3,2.4-3.1,4.5-5.2,6.1c1,0.9,1.9,1.9,2.6,3
			c1.1-1,2.1-2.1,2.9-3.3L294.8,52.2z M292.9,60.6c1.2-2.1,2.2-4.4,2.9-6.7l-3.8-1.5c-0.7,2.2-1.7,4.3-3,6.3L292.9,60.6z M318,58
			c-0.8-1.6-2.4-4.1-3.5-6l-3.9,1.8l1.1,2c-1.2-0.3-2.4-0.8-3.5-1.5c-0.4,3-0.6,3.4-2,3.4h-4.2c-1.6,0-1.9-0.1-1.8-1l0.3-3.7h-4.3
			l-0.3,3.8c-0.3,3.6,0.8,4.8,5.4,4.8h5c3.5,0,4.8-1.1,5.7-5.3c0.7,1.2,1.3,2.5,1.8,3.8L318,58z"/>
		<path id="野餐用不到_但就是想_拷貝_1_" class="st1" d="M233.5,33.7c0.4,1.1,0.8,2.2,1.1,3.3h4.2l-0.3,3.8h-13.8L225,37
			h5.2c-0.2-0.8-0.4-1.7-0.7-2.5L233.5,33.7 M58.9,33.7l-0.1,1.1h4.7l-0.2,2.5h-4.7l0,0.7H60l0.6-0.1l2.3,1.3
			c-2.5,4.3-7.2,7-11.9,8.6c-0.5-1-1.1-1.8-1.9-2.6c1.3-0.4,2.6-0.8,3.8-1.4c-0.4-0.4-0.9-0.7-1.3-1.1c-0.3,0.2-0.6,0.4-0.9,0.6
			c-0.5-0.9-1.2-1.6-2-2.3c1.7-0.8,3.3-2,4.5-3.5l1.8,0.3l0.3-4H58.9 M55.6,42.2c0.9-0.6,1.7-1.2,2.4-1.9h-3.5
			c-0.2,0.2-0.5,0.4-0.7,0.6C54.5,41.2,55,41.7,55.6,42.2 M300.2,33.8l-0.3,4.2h3.9l-0.3,3.7h-3.9l-0.1,0.8c1.1,0.7,3.8,2.6,4.4,3.1
			l-2.5,3.5c-0.7-0.8-1.4-1.6-2.2-2.4l-0.4,5.6h-4.2l0.3-4.7c-0.8,1.2-1.8,2.3-2.9,3.3c-0.7-1.1-1.6-2.1-2.6-3
			c2.2-1.7,3.9-3.7,5.2-6.1h-4l0.3-3.7h4.7l0.3-4.2H300.2 M247.2,33.8L247,36l2.5-1.4c1.2,1.5,2.1,3.1,2.9,4.8l-3.1,1.8
			c-0.6-1.6-1.4-3.1-2.4-4.5c-0.1,1.5-0.3,3.1-0.5,4.7h6.1l-0.3,3.9H246l-0.2,1h2.3l-0.8,11.3c0,0.3,0,0.6,0,0.9
			c0.1,0.1,0.2,0.2,0.3,0.2c0,0,0,0,0,0h0h0.4c0,0,0,0,0,0c0.1,0,0.2,0,0.3-0.1c0.2-0.2,0.3-0.6,0.3-0.9c0.1-0.5,0.2-1.8,0.3-3.4
			c0.9,0.8,2,1.4,3.2,1.8c-0.1,1.3-0.3,2.6-0.7,3.8c-0.2,0.7-0.7,1.2-1.4,1.6c-0.5,0.3-1.1,0.4-1.7,0.4c0,0-0.1,0-0.1,0h-1.9
			c0,0,0,0-0.1,0c-0.8,0-1.5-0.3-2.1-0.8c-0.5-0.6-0.7-1.3-0.6-3.5l0.3-4.4c-1.2,3.5-3.3,6.7-6,9.3c-0.7-1.1-1.7-2.1-2.8-2.8
			c4.2-3.7,5.9-8.9,6.9-14.4h-3.4l0.3-3.9h3.6c0.3-2.5,0.4-5,0.6-7.5H247.2 M198,33.9l4.1,1.4c-1,2.1-2.1,4.1-3.3,6.1l-1.5,20.9
			h-4.3l1-14.4c-0.6,0.6-1.1,1.2-1.6,1.7c-0.5-1.7-1.2-3.3-2-4.8C193.7,41.7,196.2,38,198,33.9 M176.2,34l-1.6,23.2
			c-0.1,2.1-0.6,3.2-1.9,3.9c-1.3,0.7-3.1,0.8-5.6,0.8c-0.2-1.4-0.6-2.8-1.2-4.1c1.5,0.1,3.1,0.1,3.6,0.1c0,0,0.1,0,0.1,0
			c0,0,0.1,0,0.1,0c0.3,0,0.6-0.4,0.5-0.7L172,34l0,0H176.2 M74,34.5l2.3,1c-0.8,2-2,3.8-3.6,5.3c1.3,0.7,2.5,1.6,3.6,2.5L73.5,46
			c-1.2-1.1-2.5-2-3.9-2.8c-1.1,0.6-2.3,1.2-3.5,1.6c-0.2-0.4-0.4-0.8-0.6-1.1c-0.2,0.2-0.4,0.4-0.5,0.5c3,1.8,8,3.6,12.2,4.5
			c-1,0.9-1.8,1.9-2.6,3.1c-1-0.3-2.1-0.6-3.2-1.1L71.1,56c0.4-0.4,0.8-0.7,1.1-1l2.8,1.9c-0.9,0.7-1.9,1.3-2.8,2
			c0.9,0.4,1.8,0.8,2.7,1.3l-2.2,2.5c-3-1.7-6.2-3.1-9.5-4.1c-0.1,0.8-0.2,1.7-0.2,2.5c-7.3,0.7-8.6,0.9-9.4,1.3c-0.1-1-0.5-2-1-2.9
			c0.7-0.4,1.2-1.1,1.1-1.9l0.5-6.8c-1.2,0.5-2.5,0.9-3.7,1.3c-0.5-1.1-1.2-2.2-2-3.1c5.4-1.4,11.4-3.9,14.6-7.3l1.9,1
			c-0.2-0.3-0.4-0.5-0.6-0.7c0.7-0.2,1.3-0.4,1.9-0.7c-0.9-0.5-1.8-0.9-2.6-1.3l2.5-2.3h-2l0.2-2.9h9L74,34.5 M69.5,39.1
			c0.6-0.5,1.1-1,1.6-1.5h0h-4.8C67.3,38,68.4,38.5,69.5,39.1 M60.5,47.5h4.2c-0.8-0.4-1.5-0.9-2.1-1.4
			C61.9,46.6,61.2,47.1,60.5,47.5L60.5,47.5 M55.9,49.8h13.5c-1-0.4-2-0.9-3-1.4l-0.1,1h-7.5l0.1-1.1C58,48.9,57,49.4,55.9,49.8
			L55.9,49.8 M58.1,52.5h9.1l0-0.5h-9.1L58.1,52.5 M58,54.6H67l0-0.6H58L58,54.6 M69.2,57.5c0.4-0.3,0.7-0.5,1.1-0.8h0h-3.5
			C67.6,57,68.4,57.2,69.2,57.5 M57.7,58.3l4-0.3l-0.3-0.1l1.1-1.2h-4.7L57.7,58.3 M282.7,34.6l-0.8,10.8h-21.4l0.8-10.8H282.7
			 M265.2,38.6H278l0.1-1h-12.7L265.2,38.6 M265,42.4h12.7l0.1-1H265L265,42.4 M41.9,34.9l2.6,2c-1.4,2.1-3.1,4-4.9,5.7
			c0.8,0.5,1.5,1,2.2,1.5l-1,1h0.1l0.6-0.1l2.9,0.6c-0.6,2.7-1.4,5.4-2.3,8l-3.5-0.7c0.3-1,0.6-2.3,0.9-3.6h-1.2l-0.6,8.6
			c-0.1,2-0.6,3.2-1.9,3.8c-1.3,0.7-3,0.7-5.2,0.7c-0.1-1.5-0.4-2.9-0.9-4.3c0.7,0.1,1.4,0.1,2.1,0.1c0.3,0,0.6,0,0.9,0
			c0.4,0,0.6-0.1,0.6-0.5l0.6-8.5h-3.5l0.3-4.1h5.3c-1.5-1-3.1-1.9-4.7-2.6l2.9-2.7c0.7,0.3,1.4,0.6,2.2,1c0.5-0.6,1-1.1,1.5-1.8
			h-6.3l0.3-3.9H41L41.9,34.9 M30.9,35.1l-0.9,13.3h-4.7l-0.1,1.9h4.8l-0.3,3.9h-4.8l-0.2,2.3c1.7-0.1,3.5-0.3,5.2-0.5l-0.2,3.8
			C24.5,60.5,19,61.1,15,61.6l-0.2-4.3c1.6-0.1,3.5-0.3,5.6-0.4l0.2-2.6H16l0.3-3.9h4.6l0.1-1.9h-4.7l0.9-13.3H30.9 M25.5,40.1h1.4
			l0.1-1.6h-1.4L25.5,40.1 M20.4,40.1h1.4l0.1-1.6h-1.4L20.4,40.1 M25.1,44.9h1.4l0.1-1.7h-1.4L25.1,44.9 M20.1,44.9h1.4l0.1-1.7
			h-1.4L20.1,44.9 M317.7,35.2l-1.2,16.6h-11.5c0.9,0.8,1.8,1.7,2.6,2.7l-3.3,2.7c-1.1-1.4-2.3-2.8-3.6-4.1l3.1-2.4l0.1,0.1
			l1.1-15.6H317.7 M308.8,39.8h4.5l0.1-1.1h-4.4L308.8,39.8 M308.5,44.1h4.5l0.1-1.2h-4.4L308.5,44.1 M308.2,48.4h4.4l0.1-1.2h-4.4
			L308.2,48.4 M165.3,35.4l-0.3,3.7h-3.7c1.3,1.8,2.4,3.8,3.2,5.9l-3.5,2.1c-0.1-0.4-0.3-0.8-0.4-1.2c-7.8,0.6-9.1,0.7-10.1,1.1
			c-0.2-0.8-0.7-2.8-1.1-3.9c0.6-0.3,1.1-0.7,1.5-1.3c0.6-0.8,1.1-1.7,1.6-2.7h-3.2l0.3-3.7H165.3 M154.8,42.6l4.2-0.2
			c-0.4-0.7-0.9-1.4-1.3-2.1l2.1-1.2h-2.7C156.4,40.3,155.7,41.5,154.8,42.6 M218.1,35.5l-1.4,19.3H201l1.4-19.3H218.1 M206.4,43.1
			h6.5l0.2-3.6h-6.5L206.4,43.1 M205.8,50.9h6.5l0.3-3.7h-6.5L205.8,50.9 M143,35.7l-0.3,4.5h-9.3c-0.5,0.8-1.1,1.7-1.7,2.5
			l-0.2,2.9l2.4-1.9c2.9,2.4,7.3,5.9,9.3,8.3l-4,3.4c-1.5-2.1-4.9-5.3-7.8-7.8l-1,14.7h-4.8l0.9-13.6c-2.7,2.7-5.9,4.9-9.3,6.7
			c-0.8-1.4-1.7-2.8-2.7-4c5.3-2.5,9.8-6.3,13.2-11.2h-11.3l0.3-4.5H143 M109,35.7l-1.5,21.7c-0.2,2.2-0.7,3.3-2.1,4
			c-1.3,0.6-2.9,0.8-5.2,0.8c-0.2,0-0.5,0-0.8,0c-0.2-1.4-0.5-2.8-1.1-4.2c1,0.1,2.2,0.1,3.1,0.1c0.4,0,0.7,0,0.9,0c0,0,0.1,0,0.1,0
			c0,0,0,0,0.1,0c0.4,0,0.6-0.3,0.6-0.7l0.3-3.6h-5.3l-0.6,8.1h-4.4l0.6-8.1h-5.4c-0.8,3.3-2.2,6.5-4.4,8.7c-1-1.1-2-2-3.3-2.8
			c3.5-3.6,4.1-9,4.4-13.2l0.8-10.7H109 M98.8,42.6h5.3l0.2-2.7H99L98.8,42.6 M89.6,42.6h4.8l0.2-2.7h-4.8L89.6,42.6 M98.3,49.6h5.3
			l0.2-3h-5.3L98.3,49.6L98.3,49.6 M89,49.6L89,49.6h4.9l0.2-3h-4.8C89.2,47.6,89.1,48.6,89,49.6 M170.2,36.7l-1.3,18.3h-4l1.3-18.3
			H170.2 M237.5,41.9l-0.6,8.6v0h-3.7l-0.5,7.8c-0.1,1.7-0.4,2.6-1.5,3.2c-1.1,0.6-2.4,0.6-4,0.6c-0.1-1.2-0.4-2.3-0.8-3.4
			c-0.2,0.5-0.5,0.9-0.8,1.4c-0.9-0.8-1.8-1.5-2.8-2.1c1.3-1.8,2.3-4.5,2.9-7.2l3.4,0.7c-0.6,2.4-1.5,4.7-2.6,6.9c0.8,0,1.6,0,1.9,0
			c0,0,0.1,0,0.1,0c0,0,0,0,0,0c0.2,0,0.3-0.2,0.3-0.4l0.5-7.7h-4.2l0.6-8.6H237.5 M229.1,47.1h4.1l0.1-1.9h-4.1L229.1,47.1
			 M284.5,46.4l-0.3,3.8h-10.8l-0.1,1.6h8.9l-0.3,3.8h-8.9l-0.2,2.2c0.6,0,1.2,0,1.8,0c0.5,0,1.2,0,2,0c2.5,0,6.1,0,8-0.1
			c-0.8,1.3-1.4,2.7-1.7,4.1h-8.8c-5.2,0-8.8-0.7-11.1-3.9c-1.1,1.7-2.6,3.2-4.3,4.4c-0.9-1.1-1.9-2.2-3.1-3.1
			c3.1-1.8,5.1-4.9,6-8.7l4.3,0.6c-0.2,0.9-0.5,1.8-0.9,2.6c0.6,1.5,1.9,2.7,3.4,3.2l0.5-6.9h-11.4l0.3-3.8H284.5 M158.8,46.9
			l-0.2,2.4h5.1l-0.3,3.8h-5.1l-0.2,2.8c1.8-0.3,3.7-0.6,5.5-0.9l0,3.7c-5.3,1-11.1,2-15.3,2.7l-0.7-4c1.8-0.2,4-0.5,6.3-0.9
			l0.2-3.5h-5.3l0.3-3.8h5.3l0.2-2.4H158.8 M236.2,50.5c0.9,1.7,1.5,3.5,1.8,5.4l-3.3,1.5c-0.3-1.9-0.9-3.8-1.7-5.5L236.2,50.5
			 M314.5,52c1.1,1.8,2.7,4.4,3.5,6l-4.2,2.1c-0.5-1.3-1.2-2.6-1.8-3.8c-0.8,4.3-2.1,5.3-5.7,5.3h-5c-4.6,0-5.6-1.2-5.4-4.8l0.3-3.8
			h4.3l-0.3,3.7c-0.1,0.9,0.2,1,1.8,1h4.2c1.4,0,1.6-0.4,2-3.4c1.1,0.7,2.2,1.2,3.5,1.5l-1.1-2L314.5,52 M291.9,52.4l3.8,1.5
			c-0.7,2.3-1.7,4.6-2.9,6.7l-3.9-2C290.3,56.7,291.3,54.6,291.9,52.4 M218.6,57.3l-0.3,4.1h-19.6l0.3-4.1h0H218.6 M196.3,30.1
			l-1.1,2.5c-1.6,3.7-3.9,7.1-6.9,9.9l-1.6,1.6l1.1,2c0.7,1.4,1.3,2.8,1.8,4.3l1.1,3.3l-0.6,8.3l-0.2,3.2h3.2h4.3h2.8l0.1-0.9h18
			h2.8l0.2-2.8l0.1-0.9c0.8,0.5,1.5,1,2.2,1.6l0.7,0.6l0.2,2.1h2.7c1.9,0,3.7-0.1,5.4-1l0,0l0,0c0.7-0.4,1.2-0.9,1.7-1.4
			c0.5,0.4,0.8,0.8,1.2,1.3l2,3l2.6-2.5c0.6-0.6,1.2-1.2,1.7-1.8c0.1,0.1,0.2,0.2,0.3,0.3l0.1,0.1l0.1,0.1c1.1,1,2.6,1.6,4.1,1.6
			l0.1,0h1.8c0.1,0,0.1,0,0.2,0c1,0,2.1-0.2,3-0.7l0,0l0,0c1.1-0.5,1.9-1.4,2.5-2.4c0.9,0.7,1.7,1.6,2.5,2.5l1.7,2.2l2.3-1.6
			c1.1-0.7,2-1.5,2.9-2.4c3.2,2.2,7.2,2.5,10.9,2.5h8.8h2.3l0.6-2.3c0.2-0.6,0.4-1.2,0.6-1.8l1.1,0.5l3.9,2l2.5,1.3l0.9-1.6
			c1.7,1.5,4.2,1.7,6.4,1.7h5c2.5,0,4.2-0.6,5.5-1.6l0.5,1.1l2.9-1.4l4.2-2.1l2.6-1.3l-1.3-2.7c-0.3-0.7-0.8-1.6-1.3-2.4l0.2-2.3
			l1.2-16.6l0.2-3.2h-3.2h-12.6h-1.8l0.1-1.4h-3.2h-4.1h-2.8l-0.2,2.8l-0.1,1.4h-1.9h-2.8l-0.2,2.8l-0.3,3.7l-0.1,2h-2.6l0.6-8.5
			l0.2-3.2h-3.2h-21.4h-2.8l-0.2,2.8l-0.6,8.9h-2.2l0.1-1.8l0-0.6l0.7-0.4l-0.6-1.3l0.1-0.9h-0.5l-0.1-0.2c-0.9-1.9-2-3.8-3.3-5.4
			l-1.4-1.8l0-0.1h-0.1l-0.1-0.1l-0.1,0.1h-3h-4.1h-2.8l-0.2,2.8c0,0.2,0,0.3,0,0.5h-1.3h-1.9c-0.2-0.5-0.3-1-0.5-1.4l-0.9-2.3
			l-2.5,0.5l-4.1,0.8l-3.3,0.7l0.6,1.7H225h-2.8l-0.2,2.8l-0.3,3.8l-0.2,3.2h1.1l-0.5,6.4l-0.2,2.6c-0.2,0.6-0.4,1.1-0.6,1.5h-1.5
			l1.3-18.6l0.2-3.2h-3.2h-14.6l-0.4-0.1L199,31L196.3,30.1L196.3,30.1z M287.7,44.6h1c-0.3,0.3-0.6,0.5-0.9,0.7l-0.2,0.2
			L287.7,44.6L287.7,44.6z M251,48.2h1.3h2.4l-0.1,1.7l-0.2,3.2h3.2c-0.6,1.1-1.4,2.1-2.4,2.8l0.2-2l-2.2-0.7
			c-0.8-0.3-1.6-0.7-2.2-1.3l-0.2-0.2L251,48.2L251,48.2z M285.2,53.2h1.9l0.2-2.8l0.1-0.7l0.3,0.3c0.5,0.5,1,1,1.4,1.5l0,0
			c-0.3,1.1-0.7,2.1-1.2,3.1l-2.8,0.1L285.2,53.2L285.2,53.2z M62.1,30.7h-3.2h-3.6h-2.8l-0.2,2.8l0,0.6l-0.2,0l-1.1,1.4
			c-1,1.2-2.1,2.1-3.5,2.7l-0.3,0.1l1.5-2.2l-2.3-1.7l-2.6-2l-1.1-0.8l-1.3,0.3l-0.6,0.1h-8.8h-2.8l0,0H17.2h-2.8l-0.2,2.8
			l-0.9,13.3l-0.2,3.2h0.1L13,54l0,0.4l-1.3,0.1l0.1,2.9l0.2,4.3l0.1,3.2l3.2-0.4c1.3-0.2,2.9-0.3,4.5-0.5c2.5-0.3,5.2-0.6,8-0.9
			l0.2,2.2h2.8c2.4,0,4.5-0.1,6.5-1c3.3-1.6,3.5-4.9,3.6-6.3l0.1-1.7l0.7,0.1l2.5,0.5l0.9-2.4c0.4-1.2,0.8-2.4,1.2-3.7l0,0
			c0.6,0.7,1.1,1.4,1.5,2.3l1.1,2.4l2-0.6l-0.1,2l-2.4,1.2l1.7,2.8c0.3,0.5,0.5,1.1,0.6,1.8l0.5,3.9l3.6-1.6
			c0.6-0.3,3.8-0.6,8.5-1.1l2.7-0.3l0-1.1c1.8,0.7,3.6,1.6,5.3,2.5l2.1,1.2l1.6-1.8l2.2-2.5l0.6-0.7l1.2,0.8c1,0.6,1.9,1.4,2.6,2.3
			l2.1,2.4l2.3-2.3c1.9-1.9,3.4-4.5,4.5-7.6l-0.3,4.7l-0.2,3.2h3.2h3.7l0,0.2l2.7,0c0.3,0,0.5,0,0.8,0c2.7,0,4.7-0.2,6.5-1
			c3-1.5,3.6-4.2,3.7-6.5l0.4-5.8l1.2,1.5c0.9,1.1,1.7,2.3,2.4,3.5l1.4,2.6l2.6-1.3c1.5-0.8,3-1.7,4.5-2.6l-0.5,6.7l-0.2,3.2h3.2
			h4.8h2.8l0.2-2.8l0.6-8.4c1.3,1.3,2.2,2.3,2.8,3.1l1.9,2.6l2.5-2.1l3.1-2.6l0.5,2.9l0.7,4l0.5,3l3-0.5c4.7-0.8,10.1-1.7,15.2-2.7
			c0,0.2,0.1,0.5,0.1,0.7l0.4,2.6h2.6c2.8,0,5-0.2,6.9-1.1c2.9-1.5,3.4-4.2,3.6-6.4l1.6-23.2l0.2-3.2h-3.2H172l-0.1,2.7h-1.7h-1.7
			l0.1-1.3h-3.2h-15.8h-2.8l-0.2,2.8l-0.3,3.7l-0.2,2.3l-0.4,0.2l0.9,2.6c0.2,0.6,0.5,1.5,0.7,2.2h-0.8l-0.2,2.8l-0.1,1.8l-0.6-0.8
			c-1.7-2.1-4.7-4.7-7.5-6.9h4.7h2.8l0.2-2.8l0.3-4.5l0.2-3.2H143h-26.4h-2.8l-0.2,2.8l-0.3,4.5l-0.2,3.2h3.2h4.9
			c-2.3,2.2-5,4.1-8,5.4l-2.1,1l1-13.7l0.2-3.2H109H85.7h-2.8l-0.2,2.8L82,46.2c0,0.1,0,0.3,0,0.4l-3.9-0.8l0.3-0.3l2.5-2.3L78.2,41
			c-0.3-0.3-0.7-0.6-1.1-0.8c0.8-1.1,1.4-2.3,1.9-3.5l1.1-2.8l-2.7-1.1l-2.3-1l-0.8-0.3l-0.9,0.2L73,31.6h-8.7H62L62.1,30.7
			L62.1,30.7z M44.2,42.1c0.1-0.2,0.3-0.3,0.4-0.5l1.5,1.2l-0.1,0l-1-0.2l-0.2,0L44.2,42.1L44.2,42.1z M76.6,54.2l0.6-0.9
			c0.6-0.9,1.3-1.8,2.1-2.5l2.5-2.3c-0.3,2.8-0.9,5.5-2.3,7.6L76.6,54.2L76.6,54.2L76.6,54.2z M144.5,54.7l0.5-0.5l0.8-0.7l-0.1,1
			L144.5,54.7L144.5,54.7z"/>
	</g>
	<g>
		<path id="野餐用不到_但就是想__3_" class="st0" d="M20.2,43.3h1.4l-0.1,1.7h-1.4L20.2,43.3z M20.5,38.5H22l-0.1,1.6h-1.4
			L20.5,38.5z M26.8,40.1h-1.4l0.1-1.6H27L26.8,40.1z M26.5,44.9h-1.4l0.1-1.7h1.4L26.5,44.9z M24.8,54.2h4.8l0.3-3.9h-4.8l0.1-1.9
			h4.7l0.9-13.3H17.2l-0.9,13.3H21l-0.1,1.9h-4.6L16,54.2h4.6l-0.2,2.6c-2.1,0.2-4,0.3-5.6,0.4l0.2,4.3c4-0.5,9.5-1.1,14.6-1.7
			l0.2-3.8c-1.7,0.2-3.4,0.3-5.2,0.5L24.8,54.2z M41.6,44.9L40.9,45h-0.1l1-1c-0.7-0.5-1.5-1-2.2-1.5c1.9-1.7,3.5-3.6,4.9-5.7
			l-2.6-2L41,35.1h-9.1l-0.3,3.9h6.3c-0.5,0.6-0.9,1.2-1.5,1.8c-0.7-0.4-1.5-0.7-2.2-1l-2.9,2.7c1.6,0.8,3.2,1.6,4.7,2.6h-5.3
			l-0.3,4.1H34l-0.6,8.5c0,0.4-0.2,0.5-0.6,0.5c-1,0-2,0-3.1-0.1c0.5,1.4,0.8,2.8,0.9,4.3c2.2,0,3.8-0.1,5.2-0.7
			c1.4-0.7,1.8-1.9,1.9-3.8l0.6-8.6h1.2c-0.3,1.4-0.6,2.7-0.9,3.6l3.5,0.7c0.9-2.6,1.7-5.3,2.3-8L41.6,44.9z M58,40.2
			c-0.7,0.7-1.6,1.4-2.4,1.9c-0.5-0.5-1.1-0.9-1.7-1.3c0.2-0.2,0.5-0.4,0.7-0.6H58z M60.7,37.8L60,38h-1.4l0-0.7h4.7l0.2-2.5h-4.7
			l0.1-1h-3.6l-0.3,4l-1.8-0.3c-1.2,1.5-2.8,2.7-4.5,3.5c0.8,0.6,1.5,1.4,2,2.3c0.3-0.2,0.6-0.4,0.9-0.6c0.4,0.3,0.9,0.7,1.3,1.1
			c-1.2,0.6-2.5,1-3.8,1.4c0.7,0.8,1.4,1.7,1.9,2.6c4.7-1.5,9.4-4.3,11.9-8.6L60.7,37.8z M55.9,49.8c1-0.4,2.1-1,3.1-1.5l-0.1,1.1
			h7.5l0.1-1c1,0.5,2,1,3,1.4L55.9,49.8L55.9,49.8z M70.3,56.7c-0.3,0.3-0.7,0.6-1,0.8c-0.8-0.3-1.6-0.6-2.4-0.8H70.3L70.3,56.7z
			 M57.7,58.3l0.1-1.6h4.7l-1.1,1.2l0.3,0.1L57.7,58.3z M58,54h9.1l0,0.6H58L58,54z M58.1,52h9.1l0,0.5h-9.1L58.1,52z M60.5,47.5
			c0.7-0.4,1.4-0.9,2.1-1.4c0.7,0.5,1.4,0.9,2.1,1.4H60.5L60.5,47.5z M71.1,37.5c-0.5,0.6-1,1.1-1.6,1.5c-1.1-0.6-2.2-1.1-3.3-1.5
			H71.1L71.1,37.5z M76.3,43.3c-1.1-0.9-2.3-1.8-3.6-2.5c1.5-1.5,2.8-3.3,3.6-5.3l-2.3-1l-0.7,0.1h-9l-0.2,2.9h2l-2.5,2.3
			c0.8,0.4,1.7,0.8,2.6,1.3c-0.6,0.3-1.3,0.5-1.9,0.7c0.2,0.2,0.4,0.5,0.6,0.7l-1.9-1c-3.3,3.4-9.2,5.9-14.6,7.3
			c0.8,0.9,1.5,1.9,2,3.1c1.2-0.4,2.5-0.8,3.7-1.3l-0.5,6.8c0,0.8-0.4,1.6-1.1,1.9c0.5,0.9,0.9,1.9,1,2.9c0.8-0.4,2.1-0.6,9.4-1.3
			c0-0.8,0.1-1.7,0.2-2.5c3.3,1,6.5,2.4,9.5,4.1l2.2-2.5c-0.9-0.5-1.8-0.9-2.7-1.3c0.9-0.6,1.9-1.3,2.8-2l-2.8-1.9
			c-0.3,0.3-0.7,0.7-1.1,1.1l0.4-5.3c1.1,0.4,2.2,0.7,3.2,1c0.7-1.1,1.6-2.1,2.6-3.1c-4.2-0.9-9.2-2.6-12.2-4.5
			c0.2-0.2,0.4-0.4,0.5-0.5c0.2,0.4,0.4,0.7,0.6,1.1c1.2-0.4,2.4-1,3.5-1.6c1.4,0.8,2.7,1.8,3.9,2.8L76.3,43.3z M98.3,49.6l0.2-3
			h5.3l-0.2,3H98.3L98.3,49.6z M89,49.6c0.1-1,0.2-2,0.3-3h4.8l-0.2,3H89L89,49.6z M94.6,39.8l-0.2,2.7h-4.8l0.2-2.7H94.6z
			 M104.2,42.6h-5.3l0.2-2.7h5.3L104.2,42.6z M109,35.7H85.7L85,46.4c-0.3,4.2-0.9,9.6-4.4,13.2c1.2,0.8,2.3,1.7,3.3,2.8
			c2.3-2.3,3.6-5.5,4.4-8.7h5.4l-0.6,8.1h4.4l0.6-8.1h5.3l-0.3,3.6c0,0.4-0.2,0.7-0.6,0.7c-0.1,0-0.1,0-0.2,0c-0.5,0-2.5,0-4-0.1
			c0.6,1.3,0.9,2.7,1.1,4.2c2.7,0,4.5-0.1,6-0.7c1.4-0.7,1.9-1.8,2.1-4L109,35.7z M131.5,45.5l0.2-2.9c0.6-0.8,1.2-1.7,1.7-2.5h9.3
			l0.3-4.5h-26.4l-0.3,4.5h11.3c-3.3,4.8-7.9,8.7-13.2,11.2c1,1.2,1.9,2.6,2.7,4c3.4-1.7,6.6-4,9.3-6.7l-0.9,13.6h4.8l1-14.7
			c2.8,2.5,6.2,5.7,7.8,7.8l4-3.4c-2-2.4-6.4-6-9.3-8.3L131.5,45.5z M158.3,53h5.1l0.3-3.8h-5.1l0.2-2.4h-4.1l-0.2,2.4h-5.3
			l-0.3,3.8h5.3l-0.2,3.5c-2.4,0.4-4.6,0.7-6.3,0.9l0.7,4c4.2-0.7,10-1.7,15.3-2.7l0-3.7c-1.8,0.3-3.7,0.6-5.5,0.9L158.3,53z
			 M154.8,42.6c0.9-1.1,1.7-2.3,2.4-3.5h2.7l-2.1,1.2c0.4,0.7,0.8,1.4,1.3,2.1L154.8,42.6z M149.2,39.1h3.2c-0.5,0.9-1,1.8-1.6,2.7
			c-0.4,0.6-0.9,1-1.5,1.3c0.4,1.1,0.9,3.1,1.1,3.9c1-0.4,2.4-0.5,10.1-1.1c0.2,0.4,0.3,0.8,0.4,1.2l3.5-2.1c-0.8-2.1-1.9-4-3.2-5.9
			h3.7l0.3-3.7h-15.8L149.2,39.1z M170.2,36.7h-4l-1.3,18.3h4L170.2,36.7z M172,34l-1.6,23.2c0,0.3-0.2,0.7-0.5,0.7
			c-0.1,0-0.2,0-0.2,0c-0.5,0-2.1,0-3.6-0.1c0.6,1.3,1,2.7,1.2,4.1c2.4,0,4.2-0.1,5.6-0.8c1.3-0.7,1.8-1.8,1.9-3.9l1.6-23.2L172,34
			L172,34z M212.8,43.1h-6.5l0.3-3.6h6.5L212.8,43.1z M212.3,50.9h-6.5l0.3-3.7h6.5L212.3,50.9z M218.1,35.5h-15.8L201,54.9h15.8
			L218.1,35.5z M198,33.9c-1.8,4.1-4.3,7.8-7.6,10.9c0.8,1.5,1.5,3.1,2,4.8c0.5-0.5,1.1-1.1,1.6-1.7l-1,14.4h4.3l1.5-20.9
			c1.2-2,2.3-4,3.3-6.1L198,33.9z M198.9,57.3l-0.3,4.1h19.6l0.3-4.1H198.9L198.9,57.3z M238.8,37h-4.2c-0.3-1.1-0.6-2.2-1.1-3.3
			l-4.1,0.8c0.3,0.8,0.5,1.7,0.7,2.5H225l-0.3,3.8h13.8L238.8,37z M229.2,45.2h4.1l-0.1,1.9h-4.1L229.2,45.2z M236.9,50.4l0.6-8.6
			h-11.8l-0.6,8.6h4.2l-0.5,7.7c0,0.2-0.1,0.4-0.3,0.4c0,0-0.1,0-0.1,0c-0.3,0-1.1,0-1.9,0c1.1-2.2,2-4.5,2.6-6.9l-3.4-0.7
			c-0.6,2.6-1.6,5.4-2.9,7.2c1,0.6,1.9,1.3,2.8,2.1c0.3-0.4,0.6-0.9,0.8-1.4c0.4,1.1,0.7,2.2,0.8,3.4c1.7,0,2.9-0.1,4-0.6
			c1.1-0.6,1.4-1.6,1.5-3.2l0.5-7.8L236.9,50.4L236.9,50.4z M233.1,51.8c0.8,1.8,1.4,3.6,1.7,5.5l3.3-1.5c-0.4-1.9-1-3.7-1.8-5.4
			L233.1,51.8z M247.6,58.6c-0.1,0-0.2-0.1-0.3-0.2c0-0.3,0-0.6,0-0.9l0.8-11.3h-2.3l0.2-1h6.3l0.3-3.9h-6.1
			c0.2-1.6,0.3-3.1,0.5-4.7c1,1.4,1.8,2.9,2.4,4.5l3.1-1.8c-0.8-1.7-1.7-3.3-2.9-4.8L247,36l0.2-2.2h-4.1c-0.2,2.5-0.3,5-0.6,7.5
			h-3.6l-0.3,3.9h3.4c-0.9,5.6-2.7,10.7-6.9,14.4c1.1,0.7,2.1,1.7,2.8,2.8c2.7-2.6,4.7-5.8,6-9.3l-0.3,4.4c-0.2,2.2,0.1,2.9,0.6,3.5
			c0.6,0.5,1.4,0.8,2.2,0.8h1.9c0.6,0,1.3-0.1,1.9-0.4c0.6-0.3,1.1-0.9,1.4-1.6c0.4-1.2,0.6-2.5,0.7-3.8c-1.2-0.4-2.3-1-3.2-1.8
			c-0.1,1.6-0.2,2.9-0.3,3.4c0,0.3-0.1,0.6-0.3,0.9c-0.1,0.1-0.2,0.1-0.3,0.1H247.6L247.6,58.6z M278,38.6h-12.7l0.1-1H278L278,38.6
			z M277.7,42.4H265l0.1-1h12.7L277.7,42.4z M282.7,34.6h-21.4l-0.8,10.8h21.4L282.7,34.6z M273.1,55.6h8.9l0.3-3.8h-8.9l0.1-1.6
			h10.8l0.3-3.8h-26.7l-0.3,3.8h11.4l-0.5,6.9c-1.5-0.5-2.8-1.7-3.4-3.2c0.3-0.9,0.6-1.7,0.9-2.6l-4.3-0.6c-0.9,3.8-2.9,6.9-6,8.7
			c1.1,0.9,2.2,1.9,3.1,3.1c1.7-1.2,3.2-2.6,4.3-4.4c2.3,3.2,5.9,3.9,11.1,3.9h8.8c0.4-1.5,0.9-2.9,1.7-4.1c-2.5,0.1-8,0.1-10,0.1
			c-0.6,0-1.2,0-1.8,0L273.1,55.6z M308.3,47.2h4.4l-0.1,1.2h-4.4L308.3,47.2z M308.6,42.9h4.4l-0.1,1.2h-4.5L308.6,42.9z
			 M308.9,38.6h4.4l-0.1,1.1h-4.5L308.9,38.6z M300.8,53.1c1.3,1.3,2.5,2.6,3.6,4.1l3.3-2.7c-0.8-1-1.7-1.9-2.6-2.7h11.5l1.2-16.6
			h-12.6l-1.1,15.6l-0.1-0.1L300.8,53.1z M294.8,52.2h4.2l0.4-5.6c0.8,0.8,1.5,1.6,2.2,2.4l2.5-3.5c-0.7-0.5-3.3-2.4-4.4-3.1
			l0.1-0.8h3.9l0.3-3.7h-3.9l0.3-4.2h-4.1l-0.3,4.2h-4.7l-0.3,3.7h4c-1.3,2.4-3.1,4.5-5.2,6.1c1,0.9,1.9,1.9,2.6,3
			c1.1-1,2.1-2.1,2.9-3.3L294.8,52.2z M292.9,60.6c1.2-2.1,2.2-4.4,2.9-6.7l-3.8-1.5c-0.7,2.2-1.7,4.3-3,6.3L292.9,60.6z M318,58
			c-0.8-1.6-2.4-4.1-3.5-6l-3.9,1.8l1.1,2c-1.2-0.3-2.4-0.8-3.5-1.5c-0.4,3-0.6,3.4-2,3.4h-4.2c-1.6,0-1.9-0.1-1.8-1l0.3-3.7h-4.3
			l-0.3,3.8c-0.3,3.6,0.8,4.8,5.4,4.8h5c3.5,0,4.8-1.1,5.7-5.3c0.7,1.2,1.3,2.5,1.8,3.8L318,58z"/>
		<path id="野餐用不到_但就是想__1_" class="st2" d="M233.5,33.7c0.4,1.1,0.8,2.2,1.1,3.3h4.2l-0.3,3.8h-13.8L225,37h5.2
			c-0.2-0.8-0.4-1.7-0.7-2.5L233.5,33.7 M58.9,33.7l-0.1,1h4.7l-0.2,2.5h-4.7l0,0.7H60l0.6-0.1l2.3,1.3c-2.5,4.3-7.2,7-11.9,8.6
			c-0.5-1-1.1-1.8-1.9-2.6c1.3-0.4,2.6-0.8,3.8-1.4c-0.4-0.4-0.9-0.7-1.3-1.1c-0.3,0.2-0.6,0.4-0.9,0.6c-0.5-0.9-1.2-1.6-2-2.3
			c1.7-0.8,3.3-2,4.5-3.5l1.8,0.3l0.3-4H58.9 M55.6,42.2c0.9-0.6,1.7-1.2,2.4-1.9h-3.5c-0.2,0.2-0.5,0.4-0.7,0.6
			C54.5,41.2,55,41.7,55.6,42.2 M300.2,33.8l-0.3,4.2h3.9l-0.3,3.7h-3.9l-0.1,0.8c1.1,0.7,3.8,2.6,4.4,3.1l-2.5,3.5
			c-0.7-0.8-1.4-1.6-2.2-2.4l-0.4,5.6h-4.2l0.3-4.7c-0.8,1.2-1.8,2.3-2.9,3.3c-0.7-1.1-1.6-2.1-2.6-3c2.2-1.7,3.9-3.7,5.2-6.1h-4
			l0.3-3.7h4.7l0.3-4.2H300.2 M247.2,33.8L247,36l2.5-1.4c1.2,1.5,2.1,3.1,2.9,4.8l-3.1,1.8c-0.6-1.6-1.4-3.1-2.4-4.5
			c-0.1,1.5-0.3,3.1-0.5,4.7h6.1l-0.3,3.9H246l-0.2,1h2.3l-0.8,11.3c0,0.3,0,0.6,0,0.9c0.1,0.1,0.2,0.2,0.3,0.2c0,0,0,0,0,0h0h0.4
			c0,0,0,0,0,0c0.1,0,0.2,0,0.3-0.1c0.2-0.2,0.3-0.6,0.3-0.9c0.1-0.5,0.2-1.8,0.3-3.4c0.9,0.8,2,1.4,3.2,1.8
			c-0.1,1.3-0.3,2.6-0.7,3.8c-0.2,0.7-0.7,1.2-1.4,1.6c-0.5,0.3-1.1,0.4-1.7,0.4c0,0-0.1,0-0.1,0h-1.9c0,0,0,0-0.1,0
			c-0.8,0-1.5-0.3-2.1-0.8c-0.5-0.6-0.7-1.3-0.6-3.5l0.3-4.4c-1.2,3.5-3.3,6.7-6,9.3c-0.7-1.1-1.7-2.1-2.8-2.8
			c4.2-3.7,5.9-8.9,6.9-14.4h-3.4l0.3-3.9h3.6c0.3-2.5,0.4-5,0.6-7.5H247.2 M198,33.9l4.1,1.4c-1,2.1-2.1,4.1-3.3,6.1l-1.5,20.9
			h-4.3l1-14.4c-0.6,0.6-1.1,1.2-1.6,1.7c-0.5-1.7-1.2-3.3-2-4.8C193.7,41.7,196.2,38,198,33.9 M176.2,34l-1.6,23.2
			c-0.1,2.1-0.6,3.2-1.9,3.9c-1.3,0.7-3.1,0.8-5.6,0.8c-0.2-1.4-0.6-2.8-1.2-4.1c1.5,0.1,3.1,0.1,3.6,0.1c0,0,0.1,0,0.1,0
			c0,0,0.1,0,0.1,0c0.3,0,0.6-0.4,0.5-0.7L172,34l0,0H176.2 M74,34.5l2.3,1c-0.8,2-2,3.8-3.6,5.3c1.3,0.7,2.5,1.6,3.6,2.5L73.5,46
			c-1.2-1.1-2.5-2-3.9-2.8c-1.1,0.6-2.3,1.2-3.5,1.6c-0.2-0.4-0.4-0.8-0.6-1.1c-0.2,0.2-0.4,0.4-0.5,0.5c3,1.8,8,3.6,12.2,4.5
			c-1,0.9-1.8,1.9-2.6,3.1c-1-0.3-2.1-0.6-3.2-1L71.1,56c0.4-0.4,0.8-0.7,1.1-1.1l2.8,1.9c-0.9,0.7-1.9,1.3-2.8,2
			c0.9,0.4,1.8,0.8,2.7,1.3l-2.2,2.5c-3-1.7-6.2-3.1-9.5-4.1c-0.1,0.8-0.2,1.7-0.2,2.5c-7.3,0.7-8.6,0.9-9.4,1.3c-0.1-1-0.5-2-1-2.9
			c0.7-0.4,1.2-1.1,1.1-1.9l0.5-6.8c-1.2,0.5-2.5,0.9-3.7,1.3c-0.5-1.1-1.2-2.2-2-3.1c5.4-1.4,11.4-3.9,14.6-7.3l1.9,1
			c-0.2-0.3-0.4-0.5-0.6-0.7c0.7-0.2,1.3-0.4,1.9-0.7c-0.9-0.5-1.8-0.9-2.6-1.3l2.5-2.3h-2l0.2-2.9h9L74,34.5 M69.5,39.1
			c0.6-0.5,1.1-1,1.6-1.5h0h-4.8C67.3,38,68.4,38.5,69.5,39.1 M60.5,47.5h4.2c-0.8-0.4-1.5-0.9-2.1-1.4
			C61.9,46.6,61.2,47.1,60.5,47.5L60.5,47.5 M55.9,49.8h13.5c-1-0.4-2-0.9-3-1.4l-0.1,1h-7.5l0.1-1.1C58,48.9,57,49.4,55.9,49.8
			L55.9,49.8 M58.1,52.5h9.1l0-0.5h-9.1L58.1,52.5 M58,54.6H67l0-0.6H58L58,54.6 M69.2,57.5c0.4-0.3,0.7-0.5,1.1-0.8h0h-3.5
			C67.6,57,68.4,57.2,69.2,57.5 M57.7,58.3l4-0.3l-0.3-0.1l1.1-1.2h-4.7L57.7,58.3 M282.7,34.6l-0.8,10.8h-21.4l0.8-10.8H282.7
			 M265.2,38.6H278l0.1-1h-12.7L265.2,38.6 M265,42.4h12.7l0.1-1H265L265,42.4 M41.9,34.9l2.6,2c-1.4,2.1-3.1,4-4.9,5.7
			c0.8,0.5,1.5,1,2.2,1.5l-1,1h0.1l0.6-0.1l2.9,0.6c-0.6,2.7-1.4,5.4-2.3,8l-3.5-0.7c0.3-1,0.6-2.3,0.9-3.6h-1.2l-0.6,8.6
			c-0.1,2-0.6,3.2-1.9,3.8c-1.3,0.7-3,0.7-5.2,0.7c-0.1-1.5-0.4-2.9-0.9-4.3c0.7,0.1,1.4,0.1,2.1,0.1c0.3,0,0.6,0,0.9,0
			c0.4,0,0.6-0.1,0.6-0.5l0.6-8.5h-3.5l0.3-4.1h5.3c-1.5-1-3.1-1.9-4.7-2.6l2.9-2.7c0.7,0.3,1.4,0.6,2.2,1c0.5-0.6,1-1.1,1.5-1.8
			h-6.3l0.3-3.9H41L41.9,34.9 M30.9,35.1l-0.9,13.3h-4.7l-0.1,1.9h4.8l-0.3,3.9h-4.8l-0.2,2.3c1.7-0.1,3.5-0.3,5.2-0.5l-0.2,3.8
			C24.5,60.5,19,61.1,15,61.6l-0.2-4.3c1.6-0.1,3.5-0.3,5.6-0.4l0.2-2.6H16l0.3-3.9h4.6l0.1-1.9h-4.7l0.9-13.3H30.9 M25.5,40.1h1.4
			l0.1-1.6h-1.4L25.5,40.1 M20.4,40.1h1.4l0.1-1.6h-1.4L20.4,40.1 M25.1,44.9h1.4l0.1-1.7h-1.4L25.1,44.9 M20.1,44.9h1.4l0.1-1.7
			h-1.4L20.1,44.9 M317.7,35.2l-1.2,16.6h-11.5c0.9,0.8,1.8,1.7,2.6,2.7l-3.3,2.7c-1.1-1.4-2.3-2.8-3.6-4.1l3.1-2.4l0.1,0.1
			l1.1-15.6H317.7 M308.8,39.8h4.5l0.1-1.1h-4.4L308.8,39.8 M308.5,44.1h4.5l0.1-1.2h-4.4L308.5,44.1 M308.2,48.4h4.4l0.1-1.2h-4.4
			L308.2,48.4 M165.3,35.4l-0.3,3.7h-3.7c1.3,1.8,2.4,3.8,3.2,5.9l-3.5,2.1c-0.1-0.4-0.3-0.8-0.4-1.2c-7.8,0.6-9.1,0.7-10.1,1.1
			c-0.2-0.8-0.7-2.8-1.1-3.9c0.6-0.3,1.1-0.7,1.5-1.3c0.6-0.8,1.1-1.7,1.6-2.7h-3.2l0.3-3.7H165.3 M154.8,42.6l4.2-0.2
			c-0.4-0.7-0.9-1.4-1.3-2.1l2.1-1.2h-2.7C156.4,40.3,155.7,41.5,154.8,42.6 M218.1,35.5l-1.4,19.3H201l1.4-19.3H218.1 M206.4,43.1
			h6.5l0.2-3.6h-6.5L206.4,43.1 M205.8,50.9h6.5l0.3-3.7h-6.5L205.8,50.9 M143,35.7l-0.3,4.5h-9.3c-0.5,0.8-1.1,1.7-1.7,2.5
			l-0.2,2.9l2.4-1.9c2.9,2.4,7.3,5.9,9.3,8.3l-4,3.4c-1.5-2.1-4.9-5.3-7.8-7.8l-1,14.7h-4.8l0.9-13.6c-2.7,2.7-5.9,4.9-9.3,6.7
			c-0.8-1.4-1.7-2.8-2.7-4c5.3-2.5,9.8-6.3,13.2-11.2h-11.3l0.3-4.5H143 M109,35.7l-1.5,21.7c-0.2,2.2-0.7,3.3-2.1,4
			c-1.3,0.6-2.9,0.8-5.2,0.8c-0.2,0-0.5,0-0.8,0c-0.2-1.4-0.5-2.8-1.1-4.2c1,0.1,2.2,0.1,3.1,0.1c0.4,0,0.7,0,0.9,0c0,0,0.1,0,0.1,0
			c0,0,0,0,0.1,0c0.4,0,0.6-0.3,0.6-0.7l0.3-3.6h-5.3l-0.6,8.1h-4.4l0.6-8.1h-5.4c-0.8,3.3-2.2,6.5-4.4,8.7c-1-1.1-2-2-3.3-2.8
			c3.5-3.6,4.1-9,4.4-13.2l0.8-10.7H109 M98.8,42.6h5.3l0.2-2.7H99L98.8,42.6 M89.6,42.6h4.8l0.2-2.7h-4.8L89.6,42.6 M98.3,49.6h5.3
			l0.2-3h-5.3L98.3,49.6L98.3,49.6 M89,49.6L89,49.6h4.9l0.2-3h-4.8C89.2,47.6,89.1,48.6,89,49.6 M170.2,36.7l-1.3,18.3h-4l1.3-18.3
			H170.2 M237.5,41.9l-0.6,8.6v0h-3.7l-0.5,7.8c-0.1,1.7-0.4,2.6-1.5,3.2c-1.1,0.6-2.4,0.6-4,0.6c-0.1-1.2-0.4-2.3-0.8-3.4
			c-0.2,0.5-0.5,0.9-0.8,1.4c-0.9-0.8-1.8-1.5-2.8-2.1c1.3-1.8,2.3-4.5,2.9-7.2l3.4,0.7c-0.6,2.4-1.5,4.7-2.6,6.9c0.8,0,1.6,0,1.9,0
			c0,0,0.1,0,0.1,0c0,0,0,0,0,0c0.2,0,0.3-0.2,0.3-0.4l0.5-7.7h-4.2l0.6-8.6H237.5 M229.1,47.1h4.1l0.1-1.9h-4.1L229.1,47.1
			 M284.5,46.4l-0.3,3.8h-10.8l-0.1,1.6h8.9l-0.3,3.8h-8.9l-0.2,2.2c0.6,0,1.2,0,1.8,0c0.5,0,1.2,0,2,0c2.5,0,6.1,0,8-0.1
			c-0.8,1.3-1.4,2.7-1.7,4.1h-8.8c-5.2,0-8.8-0.7-11.1-3.9c-1.1,1.7-2.6,3.2-4.3,4.4c-0.9-1.1-1.9-2.2-3.1-3.1
			c3.1-1.8,5.1-4.9,6-8.7l4.3,0.6c-0.2,0.9-0.5,1.8-0.9,2.6c0.6,1.5,1.9,2.7,3.4,3.2l0.5-6.9h-11.4l0.3-3.8H284.5 M158.8,46.9
			l-0.2,2.4h5.1l-0.3,3.8h-5.1l-0.2,2.8c1.8-0.3,3.7-0.6,5.5-0.9l0,3.7c-5.3,1-11.1,2-15.3,2.7l-0.7-4c1.8-0.2,4-0.5,6.3-0.9
			l0.2-3.5h-5.3l0.3-3.8h5.3l0.2-2.4H158.8 M236.2,50.5c0.9,1.7,1.5,3.5,1.8,5.4l-3.3,1.5c-0.3-1.9-0.9-3.8-1.7-5.5L236.2,50.5
			 M314.5,52c1.1,1.8,2.7,4.4,3.5,6l-4.2,2.1c-0.5-1.3-1.2-2.6-1.8-3.8c-0.8,4.3-2.1,5.3-5.7,5.3h-5c-4.6,0-5.6-1.2-5.4-4.8l0.3-3.8
			h4.3l-0.3,3.7c-0.1,0.9,0.2,1,1.8,1h4.2c1.4,0,1.6-0.4,2-3.4c1.1,0.7,2.2,1.2,3.5,1.5l-1.1-2L314.5,52 M291.9,52.4l3.8,1.5
			c-0.7,2.3-1.7,4.6-2.9,6.7l-3.9-2C290.3,56.7,291.3,54.6,291.9,52.4 M218.6,57.3l-0.3,4.1h-19.6l0.3-4.1h0H218.6 M234.6,31.7
			l-1.4,0.3l-4.1,0.8l-1.9,0.4l0.6,1.9c0,0.1,0,0.1,0.1,0.2H225h-1.6l-0.1,1.6l-0.3,3.8l-0.1,1.9h1.1l-0.5,7.7l-0.1,1.9h0.2
			c-0.6,2-1.4,3.7-2.2,4.8l-1.1,1.5l0.1-1l0.1-1.9h-1.9h-0.1l0-0.6l1.4-19.3l0.1-1.9h-1.9h-14.8l-0.6-0.2l-4.1-1.4l-1.5-0.5
			l-0.6,1.5c-1.7,3.9-4.1,7.4-7.2,10.3l-1,0.9l0.6,1.2c0.8,1.4,1.4,2.9,1.9,4.5l0.8,2.6l0.4-0.4l-0.7,9.8l-0.1,1.9h1.9h4.3h1.6
			l0.1-0.9h19.2h1.6l0.1-1.6l0.2-3l1.6,1c0.9,0.6,1.7,1.2,2.5,1.9l1.1,0.9l0.2,1.5h1.6c1.8,0,3.3-0.1,4.8-0.8c1-0.5,1.6-1.3,1.9-2.1
			l0.3,0.2c0.9,0.6,1.7,1.3,2.3,2.3l1.2,1.8l1.5-1.5c1-1,2-2.1,2.8-3.2c0.2,0.7,0.5,1.2,0.9,1.7l0.1,0.1l0.1,0.1
			c0.9,0.8,2.1,1.3,3.3,1.3l0.1,0l1.8,0c0,0,0.1,0,0.1,0c0.9,0,1.7-0.2,2.5-0.6c1.1-0.5,1.9-1.4,2.3-2.6l0,0l0,0
			c0.1-0.2,0.1-0.5,0.2-0.7l1.2,1c1,0.8,2,1.8,2.8,2.8l1,1.3l1.3-0.9c1.3-0.9,2.4-1.9,3.5-3.1c2.7,2.4,6.4,2.9,11,2.9h8.8h1.4
			l0.3-1.3c0.3-1.3,0.8-2.5,1.5-3.7l1.7-2.8l-3.3,0.1c-0.3,0-0.6,0-1,0l0-0.3l0.3-3.8h0.3h1.6l0.1-1.6l0.3-3.8l0.1-1.9h-1.9h-0.8
			l0.7-9.8l0.1-1.9h-1.9h-21.4h-1.6l-0.1,1.6l-0.7,10.1h-0.9h-1.6l-0.1,1.6l-0.3,3.8l-0.1,1.9h1.9h1.9c-1,2.6-2.6,4.6-4.7,5.8
			l-1.2,0.7c0.1-0.7,0.2-1.5,0.3-2.2l0.1-1.4l-1.3-0.4c-1-0.3-1.9-0.8-2.6-1.5l-0.7-0.6l0.4-5.3h2.5h1.6l0.1-1.6l0.3-3.9l0.1-1.2
			l0.3-0.2l-0.6-1.4c-0.8-1.8-1.9-3.6-3.1-5.1l-0.9-1.2l-1,0.5l0.1-0.8h-1.9h-4.1h-1.6l-0.1,1.6c-0.1,0.8-0.1,1.7-0.2,2.5
			c-0.1,1.1-0.2,2.3-0.3,3.4h-0.5l0.2-2.5l0.1-1.9h-1.9h-2.9c-0.2-0.8-0.5-1.5-0.8-2.2L234.6,31.7L234.6,31.7z M208.2,41.3h3l0,0.1
			L208.2,41.3L208.2,41.3L208.2,41.3z M238.9,47h0.9c-0.3,1.6-0.8,3-1.2,4.3l0.1-0.8L238.9,47L238.9,47z M207.7,48.9h3l0,0.2h-3
			L207.7,48.9L207.7,48.9z M60.8,32h-1.9h-3.6h-1.6l-0.1,1.6l-0.1,2l-0.8-0.2l-0.7,0.8c-1.1,1.3-2.4,2.3-3.9,3.1l-2.5,1.2l2.2,1.7
			c0.4,0.3,0.8,0.7,1.1,1.1c0,0,0,0,0,0L46.1,44l-1.3-0.3l-0.5-0.1l-1.4-1.1c-0.2-0.1-0.3-0.2-0.5-0.4c1.3-1.4,2.5-2.9,3.6-4.5
			l0.9-1.4l-1.3-1l-2.6-2L42.3,33l-0.8,0.2l-0.8,0.2h-8.9h-1.6l0,0h-13h-1.6L15.5,35l-0.9,13.3l-0.1,1.9h0.1l0,0.1l-0.3,3.9
			l-0.1,1.5L13,55.7l0.1,1.7l0.2,4.3l0.1,1.9l1.9-0.2c1.3-0.2,2.9-0.3,4.5-0.5c2.9-0.3,6.1-0.7,9.2-1.1c0,0.2,0.1,0.5,0.1,0.7
			l0.1,1.6h1.6c2.3,0,4.2-0.1,5.9-0.9c2.3-1.1,2.8-3.3,2.9-5.3l0.2-3.1l2.1,0.4l1.5,0.3l0.5-1.4c0.7-1.9,1.3-3.8,1.8-5.8l1.5,1.7
			c0.7,0.8,1.3,1.7,1.7,2.6l0.6,1.4l1.5-0.5c0.4-0.1,0.8-0.3,1.2-0.4l-0.3,4.1l0,0.1l0,0.1c0,0.1-0.1,0.2-0.2,0.3L50,58.6l1,1.6
			c0.4,0.7,0.7,1.4,0.8,2.2l0.3,2.3l2.1-0.9c0.6-0.3,2.1-0.5,8.9-1.2l1.6-0.1l0-1.6c0-0.1,0-0.1,0-0.2c2.5,0.9,4.9,2,7.1,3.3
			l1.2,0.7l0.9-1l2.2-2.5l1.5-1.6l-1.9-1.1c0,0-0.1,0-0.1-0.1c0.1-0.1,0.2-0.2,0.4-0.3l2.1-1.5L76,55.3l-2.8-1.9L73,53.4l0-0.3
			c0.4,0.1,0.8,0.2,1.2,0.3l1.2,0.4l0.7-1.1c0.7-1,1.4-1.9,2.3-2.8l2.4-2.3l-3.3-0.7c-0.7-0.1-1.4-0.3-2.1-0.5l2-1.9l1.4-1.4
			l-1.5-1.3c-0.7-0.5-1.3-1-2-1.5c1-1.3,1.9-2.7,2.5-4.3l0.6-1.6l-1.6-0.7l-2.3-1l-0.5-0.2l-0.5,0.1l-0.5,0.1h-8.8h-1.6l0,0.1h-2
			L60.8,32L60.8,32z M45.7,47.7c0.2-0.6,0.3-1.2,0.4-1.8l0.3-1.1l1.4,1.5c0.2,0.2,0.4,0.5,0.6,0.7c-0.2,0-0.4,0.1-0.5,0.1L45.7,47.7
			L45.7,47.7z M31.5,50.9h0.6l-0.4,5.4c-0.1,0-0.2,0-0.2,0l0-0.3l0.1-2l-0.3,0L31.5,50.9L31.5,50.9z M302.1,32h-1.9h-4.1h-1.6
			l-0.1,1.6l-0.2,2.5h-3h-1.6l-0.1,1.6l-0.3,3.7l-0.1,1.9h1.9h0.8c-0.9,1.1-1.9,2.1-3,3l-1.7,1.3l1.6,1.4c0.7,0.7,1.4,1.4,2,2.2
			l-0.2,0.6c-0.6,2.1-1.5,4-2.7,5.8l-1.1,1.6l1.8,0.9l3.9,2l1.5,0.7l0.8-1.4c0.1-0.2,0.3-0.5,0.4-0.7c0.2,0.3,0.4,0.7,0.7,1
			c1.4,1.5,3.8,1.7,5.9,1.7h5c2.9,0,4.7-0.7,5.9-2.6l0.7,1.7l1.7-0.8l4.2-2.1l1.5-0.8l-0.7-1.6c-0.5-1-1.3-2.4-2.1-3.7h0.7l0.1-1.6
			l1.2-16.6l0.1-1.9h-1.9h-12.6h-1.6l-0.1,1.6l-0.1,1.1h-1.5l0.2-2.3L302.1,32L302.1,32z M300.8,50.9L300.8,50.9L300.8,50.9
			L300.8,50.9L300.8,50.9z M178.1,32.2h-1.9H172l0,1.7l-1.7-0.1l-0.1,1h-3l0.1-1.3h-1.9h-15.8h-1.6l-0.1,1.6l-0.3,3.7l-0.1,1.9h1.9
			h0.2c-0.2,0.3-0.4,0.5-0.7,0.6l-1.5,0.6l0.5,1.5c0.4,1.1,0.9,2.9,1.1,3.7l0,0.2h-1.3l-0.1,1.6l-0.3,3.8l-0.1,1.9h1.9h3.4l0,0.2
			c-1.7,0.3-3.5,0.5-4.9,0.7l-1.8,0.2l0.3,1.8l0.7,4l0.3,1.7l1.7-0.3c4.7-0.8,10.2-1.8,15.4-2.7l1-0.2c0.2,0.6,0.3,1.3,0.4,2
			l0.2,1.5h1.5c2.7,0,4.7-0.2,6.3-1c2.3-1.2,2.7-3.3,2.9-5.4l1.6-23.2L178.1,32.2L178.1,32.2z M144.9,33.9H143h-26.4H115l-0.1,1.6
			l-0.3,4.5l-0.1,1.9h1.9h7.8c-2.9,3.3-6.4,6-10.3,7.8l-2.1,1l1.5,1.7c1,1.1,1.8,2.4,2.5,3.7l0.8,1.5l1.5-0.8
			c2.3-1.2,4.5-2.5,6.5-4.1l-0.7,9.4l-0.1,1.9h1.9h4.8h1.6l0.1-1.6l0.8-11.1c2.4,2.3,4,3.9,4.9,5.1l1.1,1.5l1.4-1.2l4-3.4l1.3-1.1
			l-1.1-1.3c-1.9-2.3-5.5-5.3-8.4-7.7l-1.1-0.9l-0.5-0.4h8.2h1.6l0.1-1.6l0.3-4.5L144.9,33.9L144.9,33.9z M110.9,33.9H109H85.7h-1.6
			L84,35.6l-0.8,10.7c-0.3,4.5-1,9.1-3.9,12.1l-1.5,1.5l1.8,1.2c1.1,0.7,2,1.5,2.9,2.5l1.2,1.4l1.3-1.3c2-2,3.5-4.8,4.5-8.2h2.2
			l-0.4,6.3l-0.1,1.9h1.9h4.4h0.4l0,0.2l1.6,0c0.3,0,0.5,0,0.8,0c2.5,0,4.4-0.2,6-0.9c2.4-1.2,2.9-3.4,3-5.4l1.5-21.7L110.9,33.9
			L110.9,33.9z M99.7,55.5h1.8l-0.1,0.8l0,0c-0.7,0-1.3,0-1.8,0L99.7,55.5L99.7,55.5z"/>
	</g>
	<path id="買_拷貝" class="st3" d="M352.5,34.2l-3.6,0.3l-0.2-1.8l3.6-0.3L352.5,34.2z M344.6,34.9l-3.4,0.3l-0.2-1.8l3.4-0.3
		L344.6,34.9z M336.9,35.6l-3.4,0.3l-0.2-1.8l3.4-0.3L336.9,35.6z M357,28.2l-28.8,2.7l0.9,9.3l28.8-2.7L357,28.2z M337.3,52.2
		l14.4-1.3l0.1,1.3l-14.4,1.3L337.3,52.2z M336.9,48l14.4-1.3l0.1,1.2L337,49.3L336.9,48z M336.5,43.9l14.4-1.3l0.1,1.2l-14.4,1.4
		L336.5,43.9z M357.6,54.8l-1.5-16L331,41.2l1.5,16l4.8-0.4c-2.9,1.5-5.9,2.6-9.1,3.4c1.5,1,2.9,2.2,4.2,3.4c3.7-1.4,8.4-3.7,11.2-6
		l-3.3-1.1l9.2-0.9l-2.9,2.2c3.5,0.8,6.9,2,10.3,3.3l5.5-3.1c-2.4-0.8-6.2-1.9-9.8-2.8L357.6,54.8z"/>
</g>
<g>
	<path id="矩形_11_拷貝_3_" class="st4" d="M88.6,93.3l259.6-8.4l-10.3,55.6l-244.2-4.9L88.6,93.3z"/>
	<path id="矩形_11_拷貝_1_" d="M347,85.9l-9.9,53.5l-242.4-4.9l-4.9-40.3L347,85.9 M348.2,84.9L88.6,93.3l5.1,42.2l244.2,4.9
		L348.2,84.9L348.2,84.9z"/>
</g>
<g>
	<path id="矩形_11_3_" class="st3" d="M87.3,87.3L351.1,83L340,136.8l-247.5-5.2L87.3,87.3z"/>
	<path id="矩形_11_1_" d="M349,84.7L338.6,135L94,129.9L89.3,89L349,84.7 M351.1,83L87.3,87.3l5.2,44.4l247.5,5.2L351.1,83
		L351.1,83z"/>
</g>
<path id="偷偷說...放在那邊沒用啦_至少看了開心ㄚ_拷貝" class="st4" d="M112.6,94.4c-0.8,1.7-1.8,3.3-3.1,4.7
	c0.2,0.5,0.3,1,0.4,1.6c0.3-0.3,0.5-0.5,0.8-0.8l-1,5.9h1.4l1.5-8.5c0.5-0.8,1-1.7,1.4-2.5L112.6,94.4z M113.8,102.5
	c0.1-0.2,0.1-0.5,0.1-0.7h1.2l-0.1,0.7H113.8z M115.5,100.1l-0.1,0.6h-1.2l0.1-0.6H115.5L115.5,100.1z M116.9,99h-3.7l-0.5,2.6
	c-0.1,1.3-0.6,2.5-1.3,3.5c0.3,0.2,0.7,0.4,0.9,0.7c0.5-0.7,0.9-1.5,1.1-2.4h1.3l-0.2,0.9c0,0.1-0.1,0.2-0.1,0.2c0,0,0,0,0,0
	c-0.1,0-0.4,0-0.7,0c0.1,0.4,0.2,0.8,0.1,1.2c0.5,0,0.9,0,1.3-0.2c0.4-0.2,0.6-0.6,0.6-1.1L116.9,99z M118.3,104.4
	c0,0.1-0.1,0.2-0.2,0.2c0,0,0,0,0,0c-0.2,0-0.7,0-1.2,0c0.1,0.4,0.2,0.8,0.1,1.2c0.6,0,1.2,0,1.8-0.2c0.4-0.2,0.7-0.7,0.7-1.2l1-5.5
	h-1.2L118.3,104.4z M118.6,99.3h-1.1l-0.8,4.5h1.1L118.6,99.3z M115.4,97.4c0.7-0.4,1.4-0.9,2-1.4c0.5,0.5,1,1,1.7,1.4H115.4z
	 M117.6,94.3c-1.3,1.3-2.9,2.2-4.7,2.8c0.3,0.3,0.5,0.7,0.7,1.1c0.3-0.1,0.7-0.3,1-0.4l-0.1,0.7h4.8l0.2-1c0.3,0.2,0.7,0.4,1,0.5
	c0.3-0.4,0.6-0.8,1-1.1c-1.2-0.3-2.2-1-3.1-1.8c0.1-0.1,0.2-0.2,0.3-0.3L117.6,94.3z M125.2,94.4c-0.8,1.7-1.8,3.3-3.1,4.7
	c0.2,0.5,0.3,1,0.4,1.6c0.3-0.3,0.5-0.5,0.8-0.8l-1,5.9h1.4l1.5-8.5c0.5-0.8,1-1.7,1.4-2.5L125.2,94.4z M126.3,102.5
	c0.1-0.2,0.1-0.5,0.1-0.7h1.2l-0.1,0.7H126.3L126.3,102.5z M128,100.1l-0.1,0.6h-1.2l0.1-0.6H128z M129.4,99h-3.7l-0.5,2.6
	c-0.1,1.3-0.6,2.5-1.3,3.5c0.3,0.2,0.7,0.4,0.9,0.7c0.5-0.7,0.9-1.5,1.1-2.4h1.3l-0.2,0.9c0,0.1-0.1,0.2-0.1,0.2c0,0,0,0,0,0
	c-0.1,0-0.4,0-0.7,0c0.1,0.4,0.2,0.8,0.1,1.2c0.5,0,0.9,0,1.3-0.2c0.4-0.2,0.6-0.6,0.6-1.1L129.4,99z M130.8,104.4
	c0,0.1-0.1,0.2-0.2,0.2c0,0,0,0,0,0c-0.2,0-0.7,0-1.2,0c0.1,0.4,0.2,0.8,0.1,1.2c0.6,0,1.2,0,1.8-0.2c0.4-0.2,0.7-0.7,0.7-1.2l1-5.5
	h-1.2L130.8,104.4z M131.1,99.3H130l-0.8,4.5h1.1L131.1,99.3z M128,97.4c0.7-0.4,1.4-0.9,2-1.4c0.5,0.5,1,1,1.7,1.4H128L128,97.4z
	 M130.1,94.3c-1.3,1.3-2.9,2.2-4.7,2.8c0.3,0.3,0.5,0.7,0.7,1.1c0.3-0.1,0.7-0.3,1-0.4l-0.1,0.7h4.8l0.2-1c0.3,0.2,0.7,0.4,1,0.5
	c0.3-0.4,0.6-0.8,1-1.1c-1.2-0.3-2.2-1-3.1-1.8c0.1-0.1,0.2-0.2,0.3-0.3L130.1,94.3z M141.3,99h2.2l-0.2,1.4h-2.2L141.3,99z
	 M136.8,104h-1.2l0.2-1.4h1.2L136.8,104z M143.4,104.4c-0.2,0-0.2,0-0.1-0.4l0.4-2.4h0.8l0.6-3.5c0.1,0.1,0.1,0.3,0.2,0.4l1.2-0.8
	c-0.5-1.2-1.2-2.2-2-3.2l-1.1,0.7c0.6,0.8,1.1,1.7,1.6,2.5h-4.2c0.8-0.8,1.5-1.7,2.2-2.7l-1.3-0.4c-0.6,1-1.3,1.8-2.2,2.5l0.1-0.7
	h-2.2l1-0.3c-0.1-0.5-0.2-1.1-0.4-1.6l-1.3,0.4c0.1,0.5,0.3,1,0.3,1.5h-1.8l-0.2,1.2h3.8l-0.1,0c0.3,0.3,0.6,0.7,0.8,1
	c0.2-0.1,0.3-0.3,0.5-0.4l-0.6,3.3h0.8c-0.4,1.4-0.8,2.5-2.5,3.2l0.6-3.3h-3.6l-0.7,4.2h1.2l0.1-0.5h2.4l0-0.3
	c0.2,0.3,0.4,0.7,0.5,1c2.1-0.9,2.8-2.4,3.4-4.3h0.6l-0.4,2.4c-0.2,1.3-0.1,1.7,1,1.7h0.8c0.9,0,1.3-0.5,1.7-2.1
	c-0.4-0.1-0.8-0.3-1.2-0.6c-0.2,1.2-0.3,1.3-0.5,1.3H143.4L143.4,104.4z M134.9,100.9h3.5l0.2-1.1h-3.5L134.9,100.9z M138.8,98.1
	h-3.5l-0.2,1.1h3.5L138.8,98.1z M147.8,104.9c0.7,0,1.2-0.5,1.3-1.2c0.1-0.5-0.1-1-0.6-1.1c-0.1,0-0.2,0-0.3,0
	c-0.7,0-1.2,0.5-1.3,1.2c-0.1,0.5,0.1,1,0.6,1.1C147.6,104.9,147.7,105,147.8,104.9L147.8,104.9z M152.1,104.9
	c0.7,0,1.2-0.5,1.3-1.2c0.1-0.5-0.1-1-0.6-1.1c-0.1,0-0.2,0-0.3,0c-0.7,0-1.2,0.5-1.3,1.2c-0.1,0.5,0.1,1,0.6,1.1
	C151.9,104.9,152,105,152.1,104.9L152.1,104.9z M156.4,104.9c0.7,0,1.2-0.5,1.3-1.2c0.1-0.5-0.1-1-0.6-1.1c-0.1,0-0.2,0-0.3,0
	c-0.7,0-1.2,0.5-1.3,1.2c-0.1,0.5,0.1,1,0.6,1.1C156.2,104.9,156.3,105,156.4,104.9L156.4,104.9z M117.7,114.2h2
	c-0.4,1.3-0.9,2.5-1.6,3.7C117.8,116.7,117.7,115.5,117.7,114.2L117.7,114.2z M122.6,114.2l0.3-1.7h-4.4c0.4-0.8,0.7-1.6,1-2.5
	l-1.8-0.3c-0.7,2.3-1.8,4.5-3.3,6.3l0-0.1c0.1-0.2,0.1-0.7,0.1-0.7h-3l0.3-1.5h3.5l0.3-1.7h-3.3l1.3-0.4c-0.1-0.7-0.2-1.3-0.4-2
	l-1.7,0.4c0.1,0.7,0.2,1.3,0.3,2h-2.9l-0.3,1.7h1.5l-0.5,2.9c-0.3,2.3-1.3,4.4-2.9,6c0.4,0.3,0.8,0.7,1.1,1.2c2.3-2.1,3-4.6,3.5-7
	h1.3c-0.7,3.6-1,4.8-1.3,5.2c-0.1,0.2-0.3,0.2-0.5,0.2c-0.2,0-0.7,0-1.2-0.1c0.2,0.5,0.2,1.1,0.2,1.6c0.5,0,1.1,0,1.6-0.1
	c0.4-0.1,0.9-0.3,1.1-0.7c0.5-0.5,0.8-2.2,1.7-6.4c0.3,0.4,0.6,0.8,0.9,1.2c0.4-0.4,0.7-0.8,1.1-1.2c0.1,1.1,0.3,2.1,0.6,3.1
	c-1,1.1-2.3,2-3.7,2.6c0.3,0.5,0.6,1,0.7,1.6c1.4-0.6,2.6-1.5,3.7-2.6c0.6,1,1.4,1.9,2.4,2.5c0.4-0.6,1-1.1,1.5-1.6
	c-1.1-0.5-2-1.4-2.6-2.5c1.2-1.7,2.1-3.6,2.7-5.6L122.6,114.2L122.6,114.2z M133.5,118.4h3l0.3-1.7h-3l0.4-2.5h-1.8l-0.4,2.5h-3.1
	l-0.3,1.7h3.1l-0.6,3.5h-3.7l-0.3,1.7h9.1l0.3-1.7h-3.6L133.5,118.4z M130.9,111.9c0.3-0.5,0.6-1.1,0.9-1.7l-1.8-0.5
	c-0.3,0.7-0.7,1.4-1,2.1h-4.1l-0.3,1.7h3.3c-1.2,1.8-2.7,3.3-4.6,4.4c0.2,0.6,0.4,1.1,0.6,1.7c0.5-0.3,1-0.7,1.5-1.1l-0.9,5.3h1.8
	l1.3-7.4c0.9-0.9,1.6-1.9,2.3-3h8.1l0.3-1.7L130.9,111.9L130.9,111.9z M142.7,117.4c0.2-0.6,0.3-1.2,0.5-1.8h1.5
	c-0.1,0.7-0.2,1.2-0.3,1.8H142.7L142.7,117.4z M145.3,112.2L145,114h-1.4c0.1-0.6,0.3-1.2,0.4-1.8H145.3z M140.4,110.5l-0.3,1.6h2
	c-0.1,0.6-0.2,1.2-0.4,1.8H140l-0.3,1.6h1.7c-0.2,0.6-0.3,1.2-0.5,1.8h-1.7L139,119h1.4c-0.5,1.4-1.3,2.6-2.4,3.7
	c0.5,0.4,0.9,0.8,1.2,1.3c1.3-1.4,2.3-3.1,3-5h1.9c-0.1,0.9-0.4,1.8-0.7,2.6c-0.1,0.2-0.3,0.3-0.5,0.3c-0.3,0-0.8,0-1.3-0.1
	c0.2,0.6,0.3,1.3,0.2,1.9c0.6,0,1.2,0,1.8-0.1c0.5-0.1,1-0.4,1.3-0.9c0.6-0.8,1.1-3.5,2.5-11.3c0-0.2,0.2-0.9,0.2-0.9L140.4,110.5
	L140.4,110.5z M153.2,110.4l-0.3,0.1h-4.5L146,124h1.7l2.1-11.8h2c-0.6,1.2-1.4,2.7-2.1,3.8c1.2,1.2,1.4,2.3,1.2,3.1
	c0,0.4-0.2,0.8-0.6,1c-0.2,0.1-0.5,0.1-0.7,0.1c-0.4,0-0.7,0-1.1,0c0.2,0.5,0.3,1.1,0.2,1.7c0.5,0,1,0,1.5,0c0.4,0,0.8-0.2,1.2-0.4
	c0.7-0.5,1.2-1.3,1.3-2.2c0.2-1.3-0.2-2.6-1.1-3.5c0.9-1.3,1.9-3,2.8-4.5L153.2,110.4z M162.1,113.6h4.4l-0.1,0.5H162L162.1,113.6z
	 M162.3,112.5h4.4l-0.1,0.4h-4.4L162.3,112.5z M162.5,111.3h4.4l-0.1,0.4h-4.4L162.5,111.3z M159.1,115.3l-0.3,1.5h1.6l0.1-0.7h1.4
	c-0.4,0.5-1.2,0.9-3,1c0.2,0.2,0.4,0.5,0.5,0.9c2.4-0.3,3.4-0.8,4.1-1.9h1l-0.1,0.5c-0.1,0.7-0.1,1.2,0.9,1.2h1.7
	c0.4,0,0.8,0,1.1-0.1c0-0.3,0-0.6,0-0.9c-0.4,0.1-0.7,0.1-1.1,0.1h-0.9c-0.3,0-0.3-0.1-0.3-0.4l0.1-0.5h1l-0.1,0.6h1.6l0.3-1.5H165
	c0-0.1-0.1-0.3-0.1-0.4h3.1l0.7-4.2h-3.6c0.2-0.2,0.4-0.5,0.7-0.7l-1.8-0.1c-0.2,0.3-0.3,0.6-0.5,0.8h-2.5l-0.7,4.2h2.9
	c0,0.1,0.1,0.3,0.1,0.4L159.1,115.3L159.1,115.3z M159.3,112.1c-0.4-0.8-0.9-1.6-1.5-2.3l-1.5,0.8c0.5,0.8,1,1.6,1.4,2.4
	L159.3,112.1z M164.8,120.5c-0.1,0.2-0.2,0.3-0.3,0.4c-0.1,0.1-0.3,0.1-0.4,0.1c-0.4,0-0.9,0-1.3-0.1c0.1,0.3,0.1,0.6,0.1,1
	c0.6,0.1,1.1,0.1,1.7,0c0.4,0,0.7-0.1,1.1-0.3c0.5-0.4,0.8-1,0.9-1.6c0.1-0.2,0.1-0.3,0.1-0.5h-4.1l0.2-0.4h5.4l0.2-1h-4
	c-0.1-0.3-0.2-0.7-0.3-0.9l-1.5,0.3c0.1,0.2,0.1,0.4,0.2,0.6h-4l-0.2,1h2.7c-0.4,0.8-1.1,1.3-2.8,1.6c0.2,0.3,0.4,0.6,0.6,1
	c-0.7-0.2-1.2-0.8-1.5-1.5c0.5-1,0.9-2,1.2-3l-0.7-0.3l-0.3,0h-0.9c0.9-1.1,2-2.5,2.7-3.4l-1-0.4l-0.3,0.1h-2.8l-0.3,1.4h1.8
	c-0.6,0.8-1.3,1.7-1.6,1.9c-0.2,0.2-0.5,0.4-0.8,0.5c0.2,0.5,0.3,1,0.3,1.4c0.3-0.2,0.6-0.2,1-0.2h0.9c-0.6,1.8-1.7,3.3-3.2,4.4
	c0.4,0.3,0.7,0.7,1,1.2c0.8-0.6,1.6-1.3,2.1-2.2c0.9,1.6,2.6,1.9,5.4,1.9c1.8,0,3.7,0,5.3-0.1c0.2-0.6,0.5-1.2,0.9-1.7
	c-1.7,0.2-4.2,0.3-5.9,0.3c-1,0-2-0.1-3-0.3c1-0.2,1.9-0.7,2.6-1.4H164.8L164.8,120.5z M182.5,112.7c-0.1,0.7-0.4,1.3-0.7,1.9
	c-0.2,0.1-0.4,0.2-0.6,0.2c-0.6,0-1.1,0-1.7-0.1c0.2,0.5,0.3,1.1,0.2,1.7c0.7,0,1.3,0,2,0c0.5,0,1-0.2,1.3-0.5
	c0.5-0.5,0.9-1.5,1.5-4c0.1-0.2,0.2-0.7,0.2-0.7h-5c0.1-0.4,0.3-0.7,0.4-1.1l-1.8-0.2c-0.7,2.5-1.9,4.6-3.7,5.8
	c0.5,0.3,1,0.7,1.4,1.1c1.3-1.1,2.3-2.5,3.1-4H182.5L182.5,112.7z M176,111.4c-0.8-0.7-1.6-1.2-2.6-1.6l-1.2,1.3
	c0.9,0.4,1.8,1,2.5,1.7L176,111.4z M174.4,115.4c-0.8-0.6-1.7-1.2-2.6-1.5l-1.2,1.4c0.9,0.4,1.8,1,2.5,1.7L174.4,115.4z
	 M173.4,117.8c-1.2,1.7-2.6,3.6-3.6,4.8l1.3,1.2c1.1-1.5,2.4-3.2,3.4-4.8L173.4,117.8z M181,118.4c-0.5,0.7-1.2,1.3-1.9,1.8
	c-0.5-0.5-1-1.1-1.3-1.8H181z M182.6,116.7l-0.3,0.1h-6.8l-0.3,1.6h2.1l-1.2,0.4c0.3,0.9,0.8,1.6,1.4,2.3c-1.3,0.6-2.6,1-4,1.2
	c0.3,0.5,0.5,1.1,0.6,1.6c1.6-0.3,3.2-0.8,4.7-1.6c1.1,0.8,2.3,1.3,3.5,1.6c0.4-0.6,0.9-1.1,1.5-1.6c-1.1-0.2-2.2-0.6-3.2-1.1
	c1.3-1.1,2.4-2.4,3.2-4L182.6,116.7z M193.9,117.8l0.3-1.9h3.2l-0.3,1.9H193.9z M189.2,117.8c0.1-0.6,0.2-1.1,0.3-1.6l0-0.3h2.9
	l-0.3,1.9L189.2,117.8L189.2,117.8z M193,112.5l-0.3,1.8h-2.9l0.3-1.8H193L193,112.5z M197.7,114.3h-3.2l0.3-1.8h3.2L197.7,114.3z
	 M200.2,110.8h-11.5l-1,5.4c-0.4,2.1-1,4.8-3,6.7c0.5,0.3,0.9,0.7,1.2,1.2c1.3-1.3,2.2-2.8,2.7-4.5h3.1l-0.7,4.2h1.8l0.7-4.2h3.2
	l-0.4,2.3c0,0.2-0.2,0.4-0.4,0.4c0,0,0,0-0.1,0c-0.3,0-1.3,0-2.1,0c0.2,0.6,0.3,1.1,0.3,1.7c1,0.1,2,0,3-0.3c0.7-0.3,1-0.8,1.1-1.7
	L200.2,110.8z M216.3,112.3h-3.2l1.5-0.4c0-0.8-0.1-1.6-0.3-2.3l-1.6,0.4c0.1,0.8,0.2,1.6,0.2,2.3h-2.2l-0.3,1.6h5.6L216.3,112.3z
	 M211.5,121.1c0.3-2.2,0.5-4.4,0.5-6.7l-1.4,0.3c0,2.3-0.3,4.5-0.6,6.8L211.5,121.1z M205,112.7l-1,5.6h-0.9l1-5.6H205L205,112.7z
	 M206.6,111.1H203l-1.8,10.3h1.4l0.2-1.4h2.3L206.6,111.1z M209.7,116.2l-1,0.3l0.4-2.2h1l0.3-1.6h-1l0.5-3h-1.6l-0.5,3h-1.1
	l-0.3,1.6h1l-0.5,2.7c-0.5,0.2-1,0.3-1.4,0.4l0.2,1.7l0.9-0.3l-0.6,3.4c0,0.1-0.1,0.2-0.2,0.2c0,0,0,0,0,0c-0.2,0-0.6,0-1.1,0
	c0.1,0.5,0.2,1,0.2,1.6c0.7,0.1,1.3,0,1.9-0.3c0.5-0.3,0.8-0.9,0.8-1.5l0.7-4c0.4-0.2,0.9-0.3,1.3-0.5L209.7,116.2z M213.2,121.9
	c0.8-2.1,1.8-4.9,2.5-7.3l-1.6-0.3c-0.6,2.6-1.4,5.1-2.3,7.6h-3.2l-0.3,1.6h6.3l0.3-1.6L213.2,121.9L213.2,121.9z M234.8,115.8
	c-0.9-1.3-2.1-2.5-3.3-3.6l-1.6,1c0.4,0.4,0.8,0.8,1.2,1.2l-5.6,0.1c0.9-0.8,1.8-1.6,2.6-2.4h7.1l0.3-1.7h-12.9l-0.3,1.7h3.4
	c-0.6,0.7-1.3,1.3-2.1,1.9c-0.3,0.3-0.7,0.5-1.2,0.7c0.1,0.6,0.2,1.1,0.3,1.7c0.8-0.2,1.8-0.2,9.6-0.6c0.2,0.3,0.5,0.7,0.6,1
	L234.8,115.8z M228.1,121.8l0.4-2.1h4.6l0.3-1.7h-4.6l0.3-1.5h-1.9l-0.3,1.5h-4.5l-0.3,1.7h4.5l-0.4,2.1h-5.9l-0.3,1.7h13.8l0.3-1.7
	H228.1L228.1,121.8z M240.2,112c-0.9,1.8-2.1,3.4-3.5,4.9c0.5,0.2,1,0.5,1.4,0.9c1.4-1.7,2.7-3.5,3.7-5.4L240.2,112z M247.1,112.7
	c0.7,1.6,1.4,3.3,1.9,5.1l1.7-0.9c-0.5-1.7-1.2-3.3-2-4.9L247.1,112.7z M247.1,117.6c-2.4,3.1-6.4,4.2-11.6,4.6
	c0.3,0.5,0.5,1.1,0.5,1.7c5.5-0.6,9.8-2,12.6-5.6L247.1,117.6z M243.8,109.8l-1.7,9.5h1.8l1.7-9.5H243.8L243.8,109.8z M262.5,118.5
	h-5.5l0.1-0.6h5.5L262.5,118.5z M256.3,122.1l0.1-0.7h5.5l-0.1,0.7H256.3z M262.1,120.3h-5.5l0.1-0.7h5.5L262.1,120.3z M266.2,115.8
	l0.3-1.4h-7.5c0.1-0.2,0.3-0.4,0.4-0.7h6.5l0.2-1.4h-6c0.1-0.2,0.2-0.5,0.3-0.7c1.9-0.1,3.9-0.3,5.8-0.6l-0.8-1.3
	c-3.6,0.4-7.2,0.6-10.8,0.6c0.1,0.4,0.1,0.9,0.1,1.4c1.2,0,2.4,0,3.7,0c-0.1,0.2-0.2,0.4-0.3,0.7h-3.7l-0.2,1.4h3.2
	c-0.1,0.2-0.3,0.4-0.4,0.7h-4l-0.3,1.4h3.2c-1.2,1.5-2.7,2.7-4.3,3.5c0.3,0.5,0.6,0.9,0.9,1.5c1-0.5,1.8-1.1,2.7-1.8l-0.9,5h1.7
	l0.1-0.5h5.5l-0.1,0.5h1.8l1.3-7.6h-7.1c0.2-0.2,0.3-0.4,0.5-0.6L266.2,115.8L266.2,115.8z M280.7,110.7l-0.4,0.1h-10.6l-0.3,1.8
	h8.8c-1.2,1-2.5,1.8-3.9,2.5l-1.2,6.7c0,0.2-0.2,0.4-0.5,0.4c0,0,0,0-0.1,0c-0.3,0-1.6,0-2.7,0c0.2,0.6,0.4,1.2,0.4,1.8
	c1.1,0.1,2.3,0,3.4-0.3c0.8-0.3,1.1-0.8,1.3-1.8l1-5.9c2.1-1.2,4.2-2.6,6-4.2L280.7,110.7z M289.1,111.6l-0.1,0.8h-2.4l0.1-0.8
	H289.1z M286.3,114.4l0.2-0.8h2.4l-0.1,0.8H286.3L286.3,114.4z M290.1,115.7l1-5.4h-5.9l-2.4,13.6h1.8l1.4-8.2H290.1L290.1,115.7z
	 M289.3,119.1l0.2-1.1h1.4l-0.2,1.1H289.3z M293.7,120.6l0.3-1.5h-1.7l0.2-1.1h1.4l0.3-1.4h-7.4l-0.3,1.4h1.4l-0.2,1.1h-1.6
	l-0.3,1.5h1.5c-0.4,1-1.1,1.8-2,2.4c0.4,0.3,0.7,0.6,1,1c1.2-0.8,2.1-2,2.5-3.4h1.5l-0.5,3.1h1.6l0.5-3.1H293.7L293.7,120.6z
	 M293.1,114.4l0.2-0.8h2.5l-0.2,0.8H293.1z M296,111.6l-0.1,0.8h-2.5l0.1-0.8H296z M298,110.3h-6l-1,5.4h4.2l-1.1,6.1
	c0,0.2-0.2,0.3-0.3,0.3c0,0,0,0,0,0c-0.2,0-1,0-1.7,0c0.2,0.6,0.2,1.2,0.2,1.8c0.9,0.1,1.7,0,2.6-0.4c0.6-0.3,0.9-0.8,1-1.7
	L298,110.3z M304.4,111.2c1.3,1,2.5,2.1,3.5,3.3l1.6-1.4c-1.1-1.2-2.3-2.2-3.7-3.2L304.4,111.2z M309.9,115.2
	c0.5,1.9,0.8,3.8,0.8,5.7l2-0.8c-0.1-1.9-0.4-3.8-1-5.7L309.9,115.2z M300.5,115c-0.6,2-1.3,4-2.2,5.9l1.7,0.7
	c0.9-2,1.6-4.2,2.2-6.3L300.5,115z M303.4,114.1l-1.2,7.1c-0.3,1.9,0.1,2.5,2.1,2.5h2.5c1.9,0,2.5-0.9,3.2-3.8
	c-0.6-0.1-1.1-0.4-1.6-0.8c-0.5,2.4-0.7,2.9-1.5,2.9h-2.2c-0.7,0-0.8-0.1-0.7-0.8l1.2-7.1H303.4z M327.2,110.4c-1.6,1.5-3.2,3-5,4.2
	c-1.1-1.3-2.7-2.9-4-4.2l-1.6,1.2c1.5,1.5,2.9,3.1,4.2,4.8l-1.2,6.7h1.9l1.2-6.8c2.1-1.4,4-3,5.9-4.7L327.2,110.4z M331.4,118.8h1.5
	l1.3-5.6l0.4-2.1h-2.2l-0.3,2.1L331.4,118.8z M331.4,122.9c0.8,0,1.5-0.6,1.7-1.5c0.2-0.6-0.2-1.2-0.8-1.4c-0.1,0-0.2,0-0.3,0
	c-0.8,0-1.5,0.6-1.6,1.5c-0.2,0.6,0.2,1.2,0.8,1.4C331.2,122.9,331.3,122.9,331.4,122.9L331.4,122.9z"/>
<g>
	<g>
		<g>
			<path class="st5" d="M101.1,120.5c-0.1,0.8-0.7,1.1-2,0.6c-1.3-0.6-2.2-2.2-4.1-3.5c-1.4-1-2.7-1.4-3.5-2c-1-0.8-1-2.1-0.1-2.1
				c1.2,0.3,2.2,1.2,2.4,1.4c-0.4-0.6-1-1.1-1.8-1.5c-0.8-0.6-1-1.4-1-1.9c0-0.9,0.7-1,1.4-0.8v0c1.4,0.3,3,1.1,4.1,2
				C99.1,114.6,101.2,118.2,101.1,120.5z"/>
			<path class="st6" d="M90.1,110.6c0.4-0.2,0.8-0.2,1.3-0.2c-0.4,0.2-0.6,0.5-0.6,1.1c0,0.5,0.3,1.1,0.9,1.6
				c-0.1,0-0.2-0.1-0.3-0.1c-1-0.3-1.7-0.2-2.3,0C88.7,112.1,89.1,111,90.1,110.6z"/>
			<path class="st6" d="M56.2,97.5c2.9,0.6,6.7,1.5,9.7,2.6c-0.1,0.2-0.2,0.4-0.4,0.6c-1.1,0.9-4.4,0.3-5.8,0.4
				c-0.5,0.1-1,0.3-1.1,0.5c0.6-0.4,1.7-0.3,2.9-0.2c0.1,0,0.2,0,0.3,0c0.1,0.1,0.3,0.6,0.4,1.2c-2.2,0.5-4.5,1.1-6.3,1.8
				c-0.7-1.3-1-2.6-1-3.8C54.9,99.9,55.1,98.6,56.2,97.5z"/>
			<path class="st7" d="M72.5,102.7c1.3,0.6,2.5,0.3,3.6-0.5c0.6-0.4,1.2-0.9,1.6-1.4c1.2-0.1,2.7-0.1,4.4,0c0,0.4-0.1,0.8-0.2,1.2
				c-0.2,1.2-0.6,2.4-1.2,3.7c-0.4,0.9-1,1.9-1.6,2.7c-1.1,1.5-3.1,3.3-5.7,3.6c-4.5,0.5-7.1-1.6-8.8-4c-1.2-1.8-1.8-3.9-2.3-5.3
				c0.9-0.2,1.9-0.3,3-0.5c0.7,0.4,1.4,0.8,2.4,1.1c1.3,0.4,2.7,0.7,3.9,0.2C72.2,103.3,72.4,103,72.5,102.7z"/>
			<path class="st6" d="M77.6,98.5c1.9-0.9,4.7-2.1,7.8-3.3c1.3,0.8,2.3,2.4,2.1,5.2c0,0.2,0,0.3-0.1,0.5c-1.1-0.1-2.2-0.2-3.4-0.3
				c-0.6,0-1.1-0.1-1.6-0.1c0-0.4,0-0.8-0.2-1.1c1.5-0.4,2.9-0.9,3.4-0.9c-0.7-0.5-3.9,1.1-6.2,1.1c-1,0-2-0.2-2-0.9
				C77.6,98.7,77.6,98.6,77.6,98.5z"/>
			<path class="st7" d="M81.1,99.7c0.3-0.1,0.6-0.1,1-0.2c0.1,0.2,0.1,0.6,0.1,1c-1.6-0.1-3,0-4.1,0c0.2-0.3,0.4-0.5,0.5-0.7
				C79.4,100,80.4,99.9,81.1,99.7z"/>
			<path class="st7" d="M62.4,102.5c-0.1-0.4-0.2-0.7-0.3-0.9c0-0.1-0.1-0.2-0.1-0.2c0.6,0,1.2,0,1.7,0c0.4,0.1,0.9,0.4,1.4,0.6
				C64.2,102.2,63.3,102.3,62.4,102.5z"/>
			<path class="st6" d="M62.2,102.8c0.4,1.4,1,3.5,2.3,5.4c1.5,2.2,3.9,4.1,7.7,4.1c0.4,0,0.9,0,1.3-0.1c2.2-0.2,4.3-1.6,5.9-3.7
				c1.2-1.6,2.1-3.4,2.6-5.2c0.2-0.8,0.4-1.7,0.5-2.5c1.6,0,3.2,0.1,5,0.3c-0.4,2.4-1.9,4.9-4.1,7.1c-0.9,0.9-2.4,2.2-4.1,3.2
				c-2.8,1.7-6.2,3-9.5,2.5c-2.9-0.4-5.4-2-7.7-3.4c-2.9-1.8-5-3.9-6.2-6C57.6,103.9,59.6,103.3,62.2,102.8z"/>
			<path class="st8" d="M86.5,105.2c0.8-1.4,1.3-2.8,1.6-4c0.9,0.1,1.7,0.2,2.6,0.3C89.2,103.3,87.7,104.7,86.5,105.2z"/>
			<path class="st8" d="M94.7,75.9c1.2,3.5,1.7,8.6,1,13.5c-0.6,3.7-1.8,7.3-3.8,10.4c-0.4,0.5-0.7,1.1-1.1,1.5
				c-0.8-0.1-1.7-0.2-2.6-0.3c0.2-1.1,0.2-2,0.1-2.6C87.9,96.7,87,95.6,86,95c2.8-1.1,5.8-2.1,8.5-2.9c-2.2,0.4-5.5,1.5-8.8,2.7
				c0,0-0.1-0.1-0.1-0.1c-0.3-1.2-1.3-2.8-1.6-3.3c0.6-0.5,1.6-1.8,2.3-3.8c1.2-3.8,0.3-7.8,0.2-7.4c0.3,5.1-1.9,9.9-3.9,8.6
				c-2.8-1.9-4.2-13.2-0.2-18.6c1.1-1.5,2.3-2.4,3.8-2.7C90.2,66.7,93.3,71.7,94.7,75.9z"/>
			<path class="st6" d="M41.5,74.6c2.2-2.1,6.4-2.9,11,0.9c2.9,2.4,6.6,8.2,8.4,7.9c-0.4-0.1-0.8-0.4-1.3-0.9
				c0.6-1.2,2.5-3.2,4.6-4.9c-1.8,1.7-3.6,3.9-3.3,5c1-1.3,5-4.5,10.3-6.3c-1.3,0.6-4.9,2.4-5.7,4.1c0.1-0.1,0.1-0.1,0.2-0.2
				c2.5-0.7,7.3-0.8,11,1.8c-0.5-0.7-1.4-1.4-2.6-1.9c2.1-1.9,2.7-8.4,5.8-11.3c2-1.9,4.8-2.4,6.9-1.9c-2.3,0.1-4.1,1.7-5.3,3.7
				c-2.8,4.7-2.7,15.5,0.7,18.4c1.4,1.2,3.3-0.5,4.2-3.9c-0.1,2.1-1.5,4.7-2.8,6.4c0.2,0.3,0.9,1.7,1.2,3c-0.9-0.3-1.8-0.2-2.5,0.1
				c0.9-0.1,1.9,0,2.8,0.5c-2.8,1.1-5.6,2.3-7.5,3.1c0.6-1.7,3-3.1,3.6-3.2c-1.2-0.2-3.7,1.9-4.1,3.4c-0.4,0.2-0.8,0.4-1.1,0.6
				c-1,0.5-0.9,0.7-0.5,0.6c0.3-0.2,0.9-0.4,1.6-0.8c0,0.5,0.3,1,1.1,1.1c0,0,0.1,0,0.1,0c-0.1,0.2-0.4,0.4-0.7,0.7
				c-1.8,0.1-2.6,0.3-2.3,0.5c0,0,0.1,0,0.2,0c0.4-0.1,1-0.1,1.8-0.2c-0.5,0.5-1.2,1-1.8,1.4c-1.4,0.8-2.5,0.5-3,0.3
				c0-0.1,0-0.2,0-0.3c-0.3,1-2.1,1.5-4.5,0.8c-0.8-0.2-1.6-0.6-2.3-0.9c0.8-0.1,1.6-0.2,2.4-0.3c0.3,0,0.3-0.1,0.3-0.1
				c0,0,0-0.1-0.2-0.1c-0.7,0-1.8,0.1-3,0.3c0,0-0.1,0-0.1-0.1c-0.5-0.3-0.9-0.4-1.3-0.6c0.3,0,0.6-0.1,0.9-0.2c0.6-0.2,1-0.6,1.2-1
				c0.4,0.2,0.8,0.3,1.2,0.5c0.8,0.4,0.9,0.4,1.1,0.5c0.2,0,0.2-0.1-0.5-0.5c-0.5-0.2-1.1-0.5-1.7-0.7c0.1-0.3,0.1-0.7,0-1
				c0.4-0.6,1.5-1.3,2.5-1.4c0.5-0.1,1.1,0,1.6,0.4c-1,0.3-1.6,0.8-1.5,1.4c0.1,0.6,1.6,0.9,2.5,1.2c0.4,0.1,0.6,0.2,0.7,0.3
				c0,0.2,0.1,0.3,0.1,0.5c0.1-0.2,0.1-0.4,0.1-0.5c0.6-0.3,2.7-1.6,2.8-2.3c0-0.6-0.9-0.9-2.2-0.9c0.3-0.3,1-0.7,2-0.6
				c0.6,0,1.5,0.3,2.3,0.9c-0.3-0.5-1.6-1.4-3.1-1.2c0.6-1.1,1.7-2.2,3-2.2c0.8,0,1.8,0.3,2.3,1c-0.2-0.6-0.6-1.1-1-1.4
				c0.1-0.2,0.3-0.4,0.4-0.6c0.2,0.4,0.3,0.8,0.3,1.1c0.1-0.4,0-0.9-0.2-1.4c0.8-1.6,1.3-3.9,1.1-4.7c0,0.2-0.3,2.6-1.3,4.4
				c-0.3-0.5-0.7-1-1.2-1.2c0.1-1.1,0-2.2-0.4-2.7c0.2,0.4,0.3,1.5,0.2,2.6c-0.5-0.1-1-0.1-1.7,0.3c-1.5,0.9-2.4,3-2.4,4
				c0.5-1.9,2.2-4.5,3.9-4c0,0,0.1,0,0.1,0c-0.1,0.6-0.3,1.3-0.6,1.8c-1.1,0.3-2.2,1.3-2.6,3c0,0-0.1,0-0.1,0
				c-0.6,0.1-1.1,0.5-1.2,0.8c-0.3,0-0.6,0-0.9,0.1c-0.5,0.1-0.9,0.2-1.3,0.3c-0.4-0.5-1-0.8-1.8-0.7c-1.1,0.1-2.1,0.9-2.6,1.6
				c-0.2-0.4-0.5-0.9-1.1-1.3c-1.7-1.4-4.8-2.2-5.6-1.8c1.2,0,3,0.5,4.4,1.3c1.4,0.8,2.4,1.9,2.2,2.9c-2.9-1-6.6-2-9.6-2.6
				c0.5-0.5,1.1-1,1.9-1.4c-0.7,0-1.6,0.5-2.5,1.3c-0.1,0-0.1,0-0.2,0c-0.1-1.2-0.1-3,0-3.2c-0.3,0.5-0.4,1.3-0.5,2.2
				c-1.8-0.2-6.2-3-7.3-8.2c1.4,3.3,4.3,6.5,6.6,5.1c1.4-0.9,1.1-3.7,0.6-5.9c-0.6-2.4-1.6-5-2.2-6.3c-1.5-2.8-3.3-4.8-5.3-5.8
				c-1.8-0.9-3.8-1.1-5.4-0.4c-0.5,0.2-0.9,0.5-1.3,0.8C40.9,75.2,41.2,74.9,41.5,74.6z"/>
			<path class="st5" d="M72.9,97.8c0.9,0,1.3,0.2,1.4,0.4c0.1,0.3-0.3,0.7-1.2,0.8c-0.7,0.1-1.5-0.1-1.5-0.5
				C71.6,98.1,72.2,97.8,72.9,97.8z"/>
			<path class="st6" d="M77.4,93.7c-0.2,0-0.4-0.1-0.6-0.1c0.2-0.4,0.4-1,0.4-1.6c0.4,0.2,0.8,0.6,1.1,1.1c-0.2,0.3-0.3,0.5-0.5,0.7
				C77.7,93.8,77.6,93.7,77.4,93.7z"/>
			<path class="st8" d="M49.7,106c-6.5-5.1-11.7-13.9-11.5-22.9c0.1-3.1,1-6.9,3.9-8.1c1.5-0.7,3.4-0.5,5.1,0.4c1.9,1,3.7,3,5.1,5.7
				c0.5,1,1.6,3.5,2.2,6.2c0.7,2.9,0.5,4.8-0.4,5.4c-2,1.3-4.7-1.9-5.9-4.2c-0.5-1.1-0.8-2-1-2.7c-0.2-0.3-0.2,2.5,1.1,5
				c1.7,3.6,4.9,5.8,6.7,5.8c0,0.2,0,0.3,0,0.5c-1.8-0.3-3.1-0.4-3.2-0.2c0.3-0.1,1.5,0.1,3.3,0.4c0,0.2,0,0.4,0,0.6
				c-0.5,0.7-0.9,1.6-1,2.7c0,1.3,0.3,2.7,1,4c-0.9,0.3-1.7,0.7-2.3,1c0.8-0.3,1.5-0.6,2.4-0.9c1,1.9,2.8,3.7,5.2,5.4
				C56.9,110.5,53.1,108.7,49.7,106z"/>
			<path class="st6" d="M61.1,116.1c-0.7-1.8-1-4.1,0.7-5.1c2.7,1.7,5.2,2.9,7.9,3.3c6.1,0.9,12.1-3.6,14.4-5.9
				c0.1-0.1,0.1-0.1,0.2-0.2c0.7,0.5,1.7,2,1.8,4.9c0.2,5.3-3,12.2-3.7,16.3c-0.7,0.1-1.5,0.1-2.3-0.1c-0.1-0.5-0.5-0.8-1.1-0.9
				c-0.2,0-0.5,0-0.7,0.1c-0.1-0.1-0.2-0.2-0.3-0.3c0.3-1.9,0.9-11.5,1.2-14.6c-0.3,0.4-0.5,2.2-0.8,4.4c-0.3-1.1-1-2.5-2-2.6
				c-0.3,0-0.6,0.2-0.9,0.6c-0.7,1.1-1,3.2-0.9,4.8c-0.6-2.3-3.1-5.8-4.1-4.7c-0.4,0.4-0.5,1.2-0.4,2c-0.5-1.4-0.9-2.5-1.2-2.9
				c0.4,1.1,2.5,9.6,5.6,15.1c-2.2,0-3.9-1.1-5.3-1.8c-0.6-0.3-1.1-0.6-1.6-0.7C66.6,126.3,62.4,119.4,61.1,116.1z"/>
			<path class="st6" d="M81.8,131.4c0.2,0.1,0.6,0.2,1.1,0.3c1.6,1.7,3.8,2,4.5,2.5c0.4,0.3,0.2,0.7,0.2,0.8c-0.2,0.5-0.8,1-1.6,0.9
				c-2.4-0.3-3.5-2.4-4.7-2.6c0.2,0.1,0.4,0.3,0.6,0.5c-0.3,0.9,0.9,2.5,1.1,3.6c0.2,0.8-0.3,1.2-0.8,1.2c-1.9-0.1-2.6-4.2-2.4-5.2
				c-0.1,0.3-0.2,0.6-0.2,1c-1-0.3-1.5-1.4-1.5-1.8c1.2-0.6,1.9-1.6,2-2.4c0-0.2,0-0.3,0-0.4c2.4,0.5,4.3,0,6.2-1.1
				c0.4-0.2,0.7-0.4,0.9-0.3c0.4,0.2,0.6,0.7,0.4,1.2C87.4,130.5,85.2,131.7,81.8,131.4z"/>
			<path class="st6" d="M75.4,132.7c0.6,0.1,1.2,0.1,1.8,0c-0.4,1.1-2.6,1.7-3.7,1.7c0.8,0.2,1.7,0.1,2.4-0.2
				c-0.7,1.2-2.8,1.7-2.9,1.7c0.1,0,0.2,0,0.2,0c-0.2,0.8-1.1,2.4-2.4,3c-0.9,0.3-1.7,0.2-2.1-0.3c-0.6-0.9,1.8-1.5,2.9-3.5
				c0.2-0.3,0.3-0.7-0.9-0.3c-0.9,0.3-2.1,0.8-3.2,0.8c-1.8-0.1-3.4-1.4-2.8-2.2c0.3-0.4,1.3-0.3,2.3-0.3c1.4,0.1,3,0,4-0.8
				c0.2,0,0.4-0.1,0.6-0.2c-3.2,0.1-5.4-1.8-5.7-3c-0.1-0.3-0.1-0.8,0.5-1c0.6-0.3,1.4,0.2,2.5,0.7c1.7,0.9,4,2,7,1.6
				c1.2-0.2,2.1-1.7,3-1.6c0.5,0.1,0.9,0.8,0.7,1.5C79.2,131.8,76.8,132.7,75.4,132.7z"/>
			<path class="st5" d="M70.4,119c-0.1-0.9-0.2-2.2,0.2-2.7c0.8-1.1,3.7,3.3,4.1,5l0,0c0,0.2,0,0.4,0.1,0.6c0,0.1,0.2-0.1,0.2-0.2
				c0-1.4,0-4.5,0.9-5.8c1.1-1.6,2.2,1.4,2.6,2.7c-0.2,2.3-0.4,4.9-0.5,6.8c-0.2,0.3-0.8,0.6-1.2,0.7c-0.2-0.3-0.4-0.5-0.7-0.6
				c-0.7-0.4-1.3,0.2-1.5,0.9c-0.5,0-1.2-0.1-1.4-0.1C72,123.7,71.1,121.1,70.4,119z"/>
			<path class="st6" d="M76.3,130c-2.2-1.7-1.5-3.9-0.9-4.1c0.2,0,0.4,0,0.6,0.1c0.7,0.5,1.2,1.8,2.1,2.7
				C77.5,129,76.9,129.6,76.3,130z"/>
			<path class="st5" d="M76.8,126.4c0.3-0.1,0.7-0.3,1.1-0.7c-0.1,1.1-0.1,1.9-0.1,2.2C77.4,127.5,77.1,126.9,76.8,126.4z"/>
			<path class="st5" d="M74.4,126.8c-0.1,0.7,0,1.5,0.4,2.1c0.3,0.5,0.7,0.8,1.3,1.2c-0.1,0-0.1,0.1-0.2,0.1
				c-0.4,0.1-0.8,0.1-1.2,0.1c-0.6-1.2-1.1-2.4-1.6-3.7C73.4,126.7,73.9,126.8,74.4,126.8z"/>
			<path class="st6" d="M55.2,115.6c1,0,1.9,0.5,2,1.6c-0.4,0-0.9,0.1-1.3,0.2c-0.2,0.1-0.4,0.1-0.5,0.2c0.4-0.7,0.4-1.3,0-1.7
				c-0.2-0.2-0.4-0.3-0.7-0.3C54.8,115.6,55,115.6,55.2,115.6z"/>
			<path class="st5" d="M48.5,122.5c1-3.5,3.2-5.7,5.2-6.5c0.7-0.2,1.2,0,1.5,0.2c0.3,0.4,0.2,1.1-0.3,1.8c-1.2,0.7-1.7,1.8-1.8,2.3
				c0.7-1.3,2.2-2.6,3.4-2c0.4,0.2,0.5,0.6,0.4,1.1c-0.2,0.8-1,1.8-1.9,3c-0.2,0.2-0.3,0.4-0.5,0.6c-0.4,0.5-0.7,1-1,1.5
				c-0.7,1.1-1.4,2.2-2.7,2.8c-0.8,0.4-1.6,0.4-2.1,0C47.5,126.4,48.1,123.8,48.5,122.5z"/>
			<path class="st6" d="M50.8,129.8c0.6,0.1,1.2,0,1.6-0.3c-0.5,0.2-3.1,0-4-2.2c0.6,0.6,1.6,0.5,2.4,0.1c1.3-0.6,2-1.7,2.8-2.9
				c0.3-0.5,0.6-1,1-1.5c0.2-0.2,0.3-0.4,0.5-0.6c1-1.2,1.8-2.2,2-3.1c0.1-0.6-0.1-1.1-0.5-1.3c-0.3-0.1-0.7-0.2-1.1-0.1
				c1.4-0.6,2.9-0.4,3.5,1c0.2,0.6,0.2,1.3-0.2,2c-1.4,2.5-5,5-5.3,6.7c0.2-0.5,0.8-1.1,1.5-1.8c2,1,4.4,1.6,6.5,1.4
				c-0.3,1.2-0.4,2.5-0.2,4c0.3,2.3,1.3,5,3,7.2C57.4,135.4,52.2,131.2,50.8,129.8z"/>
			<path class="st6" d="M68.2,149.3c-1.2,2.6-1.3,4.8-0.7,6.9c-0.8-0.9-1.2-2.5-1.4-4.1c-0.2-2.2,0.1-3.8,0.7-5.2
				c0.8-2.2,2.2-3.6,2.9-5.1c1.3,0.4,2.8,0.6,4.3,0.6C72.9,144.1,69.4,146.7,68.2,149.3z"/>
			<path class="st5" d="M64.5,138c-1.8-2.3-3.5-6.6-2.5-10.8c0,0,0,0,0,0l0,0c0.2-1,0.6-2,1.2-2.9c-0.6,0.5-1.2,1.3-1.5,2.3
				c-0.2,0-0.3,0.1-0.5,0.1c0.3-1.1,1.4-3,2.6-4c1.3,2.1,2.6,4.1,3.2,4.9c-0.3,0-0.6,0-0.8,0.1c-0.6,0.3-0.9,0.9-0.8,1.6
				c0.5,2.1,3.3,3.1,5.1,3.1c-0.9,0.6-2.2,0.4-3.4,0.3c-1.2-0.1-2.2-0.1-2.7,0.4c-0.8,1,0.5,2.4,2.3,2.8c1,0.2,1.9,0.1,2.6-0.2
				c1-0.4,2.1-1,2.3-0.9c0.1,0.1-0.5,0.7-1.1,1.3c-1.1,1-2.3,1.6-2.3,2.3c0,0.8,0.9,1.2,2,1.1c1.8-0.2,3.1-2.2,3.3-3.6
				c1.2,0,2.5-0.7,2.9-1.8c0.7-0.4,1.2-0.9,1.3-1.5c0.1,0,0.1,0,0.2-0.1c0,0.8,0.6,1.7,1.8,2c0,2,1.1,4.4,2.6,4.4
				c1,0,1.4-0.6,1.4-1.4c-0.1-1-1.7-3.1-1.4-3.7c0.8,0.8,2,2.1,3.7,2.3c1,0.1,1.9-0.4,2.2-1.1c0.2-0.5,0.1-1.1-0.4-1.4
				c-0.9-0.7-3-0.8-4.4-2.1c1.1,0.1,2.5,0,3.5-0.6c2.2-1.2,1.4-3.9-0.3-3.2c-0.8,0.3-2.1,1.2-3.9,1.5c0.2-0.9,0.5-1.8,0.8-2.8
				c0.4-1.2,0.9-2.7,1.5-4.2c0.7,1.5,4.4,5.4,4.1,9.8c-0.1,2.1-0.7,3.7-2.1,5.2C82,142.2,69.2,143.8,64.5,138z"/>
			<path class="st6" d="M98.4,123.5c0.3,0,0.5,0,0.8,0c-1.9,2.1-4.5,7.2-10.9,12.6c1.4-2.3,1.6-4.8,1-6.9c-0.4-1.6-1.2-3-2-4.2
				c1.9-0.4,5.7-2.6,7-4.7c0.5,0.3,1,0.7,1.3,1.2c-0.2-1.3-1.8-2.2-3.3-2.8c-0.7-0.3-1.6-0.6-2.3-1c-0.9-0.6-1.6-1.6-1.4-2.8
				c0.1-0.8,0.5-1.3,1.1-1.5c0.5-0.1,1-0.1,1.5-0.1c-0.7,0.3-0.7,1.6,0.4,2.4c0.8,0.7,2.1,1.1,3.5,2.1c1.9,1.3,2.8,2.9,4.2,3.5
				c0.5,0.2,0.8,0.3,1.2,0.3c0.3,0,0.6-0.1,0.8-0.2c0,0,0,0,0.1-0.1C100.7,122.2,99.6,123.2,98.4,123.5z"/>
			<path class="st7" d="M74.7,96.9c-1-0.1-1.7,0.3-2,0.6c1.3,0,2.2,0.3,2.2,0.9c0,0.7-2.2,2-2.8,2.3c0,0.2,0,0.4-0.1,0.5
				c0-0.2-0.1-0.3-0.1-0.5c-0.1-0.1-0.4-0.2-0.7-0.3c-1-0.2-2.5-0.6-2.5-1.2c-0.1-0.6,0.5-1.1,1.5-1.4c-0.5-0.5-1.1-0.5-1.6-0.4
				c-1.1,0.1-2.2,0.8-2.5,1.4c0.1,0.4,0.1,0.7,0,1c0.6,0.2,1.2,0.5,1.7,0.7c0.8,0.3,0.7,0.5,0.5,0.5c-0.2,0-0.2-0.1-1.1-0.5
				c-0.4-0.2-0.8-0.3-1.2-0.5c-0.2,0.5-0.6,0.8-1.2,1c-0.3,0.1-0.5,0.1-0.9,0.2c0.3,0.1,0.8,0.3,1.3,0.6c0,0,0.1,0,0.1,0.1
				c1.3-0.2,2.3-0.3,3-0.3c0.1,0,0.2,0,0.2,0.1c0,0-0.1,0.1-0.3,0.1c-0.9,0.1-1.7,0.2-2.4,0.3c0.7,0.3,1.5,0.7,2.3,0.9
				c2.4,0.7,4.1,0.1,4.5-0.8c0,0.1,0,0.2,0,0.3c0.5,0.2,1.6,0.5,3-0.3c0.6-0.4,1.3-0.9,1.8-1.4c-0.7,0-1.4,0.1-1.8,0.2
				c-0.1,0-0.2,0-0.2,0c-0.3-0.1,0.5-0.4,2.3-0.5c0.3-0.3,0.5-0.5,0.7-0.7c0,0-0.1,0-0.1,0c-0.8-0.2-1.1-0.6-1.1-1.1
				c-0.8,0.4-1.4,0.6-1.6,0.8c-0.4,0.2-0.5,0,0.5-0.6c0.3-0.2,0.7-0.3,1.1-0.6c0-0.1,0-0.1,0.1-0.2c-0.1-0.1-0.2-0.2-0.4-0.3
				C76.1,97.2,75.3,96.9,74.7,96.9z"/>
		</g>
		<g>
			<path class="st9" d="M61.5,95.5c-0.9-0.9-3.6-1.4-3.3-0.6C58.7,94.6,60.4,94.9,61.5,95.5z"/>
			<path class="st10" d="M63.4,96.1c0,0.1,0,0.2,0,0.4c0.8-1.4,1.8-1.5,2.7-1.2c0.9,0.3,2,1,2.8,1.7c-0.6-1-2.7-3-4.3-2.7
				c-0.2,0-0.3,0.1-0.5,0.2c-0.5-0.3-1-0.6-1.4-0.9c0.5-1,1.5-1.8,2.9-1.1c1.7,0.9,3.3,3.8,3.3,3.8c-0.5-2-3-4.9-5-4.2
				c-0.7,0.2-1.1,0.8-1.3,1.4c-0.6-0.5-1.1-1-1.5-1.5c-0.1-2,0.9-5.2,2.3-5.8c1.4-0.7,2.9,0.7,3.4,1.8c0.1-0.9-2.3-4.5-4.4-2.1
				c-1.3,1.4-1.8,4.3-1.5,5.9c-0.6-0.9-0.9-1.6-0.9-1.7c0,0.4,0.4,1.2,1,2.1c0,0.2,0.1,0.3,0.2,0.4c0-0.1,0-0.1,0-0.2
				c0.4,0.5,0.8,1,1.3,1.5c-0.2,0.5-0.2,1-0.2,1.3c0-0.3,0.1-0.8,0.3-1.2c0.4,0.3,0.8,0.6,1.2,0.9c-0.2,0.3-0.4,0.6-0.5,0.9
				c-3.1-0.6-4.9-4-4.9-4.2C58.5,92,60.4,95.3,63.4,96.1z"/>
			<path class="st10" d="M75.5,84.7c-3.2-2.3-3.7,2.3-3.4,2.7c0.2-1,1.2-3.5,3.5-1.7c1.4,1.1,2.7,2.9,3.3,4.5
				C79.1,89.6,77.5,86.1,75.5,84.7z"/>
			<path class="st10" d="M64.5,84c-0.4-0.5-1.5-0.8-2.7,0.5c-1.1,1.2-1.9,3.3-1.9,4.8C60,88.1,61.9,82.9,64.5,84z"/>
			<path class="st10" d="M75.5,83.7c0.9,0.6,2,1.7,3,3.5c-0.2-0.8-1.2-2.4-2.5-3.5c-2.7-2.3-4-0.5-4,0.4
				C72.5,83,73.7,82.4,75.5,83.7z"/>
			<path class="st9" d="M79.4,94.9c1.1-1,2.6-1.4,2.8-1.3C82.8,92.8,80.2,93.7,79.4,94.9z"/>
			<path class="st9" d="M67.7,104.5c1,0.9,3.5,1.4,6.1,0.7c1.7-0.4,3.7-1.6,4.6-3.1c-0.1,0.1-2,2.2-5.1,2.9
				C71.7,105.3,69.3,105.2,67.7,104.5z"/>
			<path class="st10" d="M96.9,112.1c-0.9-0.7-4.4-3.1-6.9-2.1c-1.3,0.5-1.9,1.8-1.3,3.3c-1.3,1.1-1.1,3.6,1.4,4.8
				c1.3,0.7,2.8,1.2,4,1.9c-2,2.4-6.2,4.2-7.1,4.3c-0.8-1.2-1.6-2.1-1.8-2.6c0.9-2.7,1.7-5.6,1.8-8.1c0-2.2-0.6-4.6-2.3-5.9
				c0.7-0.7,1.2-1.5,1.7-2.2c1.5-0.2,3.4-1.7,5.2-4.1c1.6,0.3,3.1,0.6,4.5,1c-0.6-0.4-2.3-0.8-4.4-1.2c0.3-0.4,0.6-0.8,0.9-1.3
				c2.4-3.6,3.8-7.9,4.3-12.5c0.4-4-0.1-8.2-1.2-11.8c-0.8-2.6-2.2-5.1-4-6.9c-3.8-3.8-9.5-4-13.2,0.9c-2.7,3.6-3.2,8.9-4.5,10.1
				c-1.9-0.8-4.5-1.2-6.6-0.9c2.2-1.7,5.1-3.1,7.4-3.8c0.4-0.1-1.4,0-2.9,0.4c-3.2,0.9-7.3,2.9-10.2,5.7c1.2-2.1,3.9-4.9,6.6-6.1
				c-1.8-0.3-7.4,4.4-8.9,6.8c-1.7-1.8-4.1-5.2-6.5-7.2c-2.1-1.8-4.4-2.7-6.6-2.8c-1.9,0-3.7,0.7-5.1,1.9c-2.2,2-3.6,5.4-3.6,8.9
				c-0.1,6.5,2.4,11.8,3.9,14.4c2.1,3.5,5,7.1,8.4,9.6c3.1,2.3,7.6,4.3,11.2,3.4c0.1,0.1,0.3,0.2,0.4,0.3c-3,1.6-0.9,6.1,0.9,9.2
				c0.4,0.8,0.9,1.6,1.4,2.4c-1.1,0.8-2.4,2.7-2.7,4.5c-2,0.1-4.6-0.7-5.5-1.1c0.7-0.6,1.4-1.2,2.1-1.9c1.3-1.3,2-2.4,2.2-3.4
				c0.4-1.7-0.5-2.8-1.7-3.1c-0.2,0-0.3-0.1-0.5-0.1c0-1.4-0.8-2.2-2.1-2.3c-2.5-0.2-6.2,2.7-7.5,7.3c-0.7,2.4-0.5,4.1,0.1,5.2
				c0.4,0.8,1.2,1.7,2.1,2.1c0.1,0.1,0.3,0.1,0.4,0.1c1.4,2,7.9,7.3,14.8,9.7c1,1,2.4,1.7,3.9,2.2c-0.5,1.1-2,3-2.8,5.2
				c-1.6,4.3,0,9.6,2.1,10.8c0.2,0.1,0.3,0.1,0.3,0c-0.2-0.3-0.4-0.6-0.6-0.9c-1.2-2.5-0.3-5.5,0.4-6.9c1.5-3.2,5-5.1,6.2-7.4
				c4.5,0,9.4-1.6,12.4-4.9c7.3-4.4,10.8-12.1,12.4-14.2C102.9,122.5,102,116.2,96.9,112.1z M101.1,120.5c-0.1,0.8-0.7,1.1-2,0.6
				c-1.3-0.6-2.2-2.2-4.1-3.5c-1.4-1-2.7-1.4-3.5-2c-1-0.8-1-2.1-0.1-2.1c1.2,0.3,2.2,1.2,2.4,1.4c-0.4-0.6-1-1.1-1.8-1.5
				c-0.8-0.6-1-1.4-1-1.9c0-0.9,0.7-1,1.4-0.8v0c1.4,0.3,3,1.1,4.1,2C99.1,114.6,101.2,118.2,101.1,120.5z M90.1,110.6
				c0.4-0.2,0.8-0.2,1.3-0.2c-0.4,0.2-0.6,0.5-0.6,1.1c0,0.5,0.3,1.1,0.9,1.6c-0.1,0-0.2-0.1-0.3-0.1c-1-0.3-1.7-0.2-2.3,0
				C88.7,112.1,89.1,111,90.1,110.6z M56.2,97.5c2.9,0.6,6.7,1.5,9.7,2.6c-0.1,0.2-0.2,0.4-0.4,0.6c-1.1,0.9-4.4,0.3-5.8,0.4
				c-0.5,0.1-1,0.3-1.1,0.5c0.6-0.4,1.7-0.3,2.9-0.2c0.1,0,0.2,0,0.3,0c0.1,0.1,0.3,0.6,0.4,1.2c-2.2,0.5-4.5,1.1-6.3,1.8
				c-0.7-1.3-1-2.6-1-3.8C54.9,99.9,55.1,98.6,56.2,97.5z M72.5,102.7c1.3,0.6,2.5,0.3,3.6-0.5c0.6-0.4,1.2-0.9,1.6-1.4
				c1.2-0.1,2.7-0.1,4.4,0c0,0.4-0.1,0.8-0.2,1.2c-0.2,1.2-0.6,2.4-1.2,3.7c-0.4,0.9-1,1.9-1.6,2.7c-1.1,1.5-3.1,3.3-5.7,3.6
				c-4.5,0.5-7.1-1.6-8.8-4c-1.2-1.8-1.8-3.9-2.3-5.3c0.9-0.2,1.9-0.3,3-0.5c0.7,0.4,1.4,0.8,2.4,1.1c1.3,0.4,2.7,0.7,3.9,0.2
				C72.2,103.3,72.4,103,72.5,102.7z M77.6,98.5c1.9-0.9,4.7-2.1,7.8-3.3c1.3,0.8,2.3,2.4,2.1,5.2c0,0.2,0,0.3-0.1,0.5
				c-1.1-0.1-2.2-0.2-3.4-0.3c-0.6,0-1.1-0.1-1.6-0.1c0-0.4,0-0.8-0.2-1.1c1.5-0.4,2.9-0.9,3.4-0.9c-0.7-0.5-3.9,1.1-6.2,1.1
				C78.5,99.7,77.4,99.5,77.6,98.5z M81.1,99.7c0.3-0.1,0.6-0.1,1-0.2c0.1,0.2,0.1,0.6,0.1,1c-1.6-0.1-3,0-4.1,0
				c0.2-0.3,0.4-0.5,0.5-0.7C79.4,100,80.4,99.9,81.1,99.7z M62.4,102.5c-0.1-0.4-0.2-0.7-0.3-0.9c0-0.1-0.1-0.2-0.1-0.2
				c0.6,0,1.2,0,1.7,0c0.4,0.1,0.9,0.4,1.4,0.6C64.2,102.2,63.3,102.3,62.4,102.5z M62.2,102.8c0.4,1.4,1,3.5,2.3,5.4
				c1.5,2.2,3.9,4.1,7.7,4.1c0.4,0,0.9,0,1.3-0.1c2.2-0.2,4.3-1.6,5.9-3.7c1.2-1.6,2.1-3.4,2.6-5.2c0.2-0.8,0.4-1.7,0.5-2.5
				c1.6,0,3.2,0.1,5,0.3c-0.4,2.4-1.9,4.9-4.1,7.1c-0.9,0.9-2.4,2.2-4.1,3.2c-2.8,1.7-6.2,3-9.5,2.5c-2.9-0.4-5.4-2-7.7-3.4
				c-2.9-1.8-5-3.9-6.2-6C57.6,103.9,59.6,103.3,62.2,102.8z M86.5,105.2c0.8-1.4,1.3-2.8,1.6-4c0.9,0.1,1.7,0.2,2.6,0.3
				C89.2,103.3,87.7,104.7,86.5,105.2z M94.7,75.9c1.2,3.5,1.7,8.6,1,13.5c-0.6,3.7-1.8,7.3-3.8,10.4c-0.4,0.5-0.7,1.1-1.1,1.5
				c-0.8-0.1-1.7-0.2-2.6-0.3c0.2-1.1,0.2-2,0.1-2.6C87.9,96.7,87,95.6,86,95c2.8-1.1,5.8-2.1,8.5-2.9c-2.2,0.4-5.5,1.5-8.8,2.7
				c0,0-0.1-0.1-0.1-0.1c-0.3-1.2-1.3-2.8-1.6-3.3c0.6-0.5,1.6-1.8,2.3-3.8c1.2-3.8,0.3-7.8,0.2-7.4c0.3,5.1-1.9,9.9-3.9,8.6
				c-2.8-1.9-4.2-13.2-0.2-18.6c1.1-1.5,2.3-2.4,3.8-2.7C90.2,66.7,93.3,71.7,94.7,75.9z M41.5,74.6c2.2-2.1,6.4-2.9,11,0.9
				c2.9,2.4,6.6,8.2,8.4,7.9c-0.4-0.1-0.8-0.4-1.3-0.9c0.6-1.2,2.5-3.2,4.6-4.9c-1.8,1.7-3.6,3.9-3.3,5c1-1.3,5-4.5,10.3-6.3
				c-1.3,0.6-4.9,2.4-5.7,4.1c0.1-0.1,0.1-0.1,0.2-0.2c2.5-0.7,7.3-0.8,11,1.8c-0.5-0.7-1.4-1.4-2.6-1.9c2.1-1.9,2.7-8.4,5.8-11.3
				c2-1.9,4.8-2.4,6.9-1.9c-2.3,0.1-4.1,1.7-5.3,3.7c-2.8,4.7-2.7,15.5,0.7,18.4c1.4,1.2,3.3-0.5,4.2-3.9c-0.1,2.1-1.5,4.7-2.8,6.4
				c0.2,0.3,0.9,1.7,1.2,3c-0.9-0.3-1.8-0.2-2.5,0.1c0.9-0.1,1.9,0,2.8,0.5c-2.8,1.1-5.6,2.3-7.5,3.1c0.6-1.7,3-3.1,3.6-3.2
				c-1.2-0.2-3.7,1.9-4.1,3.4c-0.4,0.2-0.8,0.4-1.1,0.6c-1,0.5-0.9,0.7-0.5,0.6c0.3-0.2,0.9-0.4,1.6-0.8c0,0.5,0.3,1,1.1,1.1
				c0,0,0.1,0,0.1,0c-0.1,0.2-0.4,0.4-0.7,0.7c-1.8,0.1-2.6,0.3-2.3,0.5c0,0,0.1,0,0.2,0c0.4-0.1,1-0.1,1.8-0.2
				c-0.5,0.5-1.2,1-1.8,1.4c-1.4,0.8-2.5,0.5-3,0.3c0-0.1,0-0.2,0-0.3c-0.3,1-2.1,1.5-4.5,0.8c-0.8-0.2-1.6-0.6-2.3-0.9
				c0.8-0.1,1.6-0.2,2.4-0.3c0.3,0,0.3-0.1,0.3-0.1c0,0,0-0.1-0.2-0.1c-0.7,0-1.8,0.1-3,0.3c0,0-0.1,0-0.1-0.1
				c-0.5-0.3-0.9-0.4-1.3-0.6c0.3,0,0.6-0.1,0.9-0.2c0.6-0.2,1-0.6,1.2-1c0.4,0.2,0.8,0.3,1.2,0.5c0.8,0.4,0.9,0.4,1.1,0.5
				c0.2,0,0.2-0.1-0.5-0.5c-0.5-0.2-1.1-0.5-1.7-0.7c0.1-0.3,0.1-0.7,0-1c0.4-0.6,1.5-1.3,2.5-1.4c0.5-0.1,1.1,0,1.6,0.4
				c-1,0.3-1.6,0.8-1.5,1.4c0.1,0.6,1.6,0.9,2.5,1.2c0.4,0.1,0.6,0.2,0.7,0.3c0,0.2,0.1,0.3,0.1,0.5c0.1-0.2,0.1-0.4,0.1-0.5
				c0.6-0.3,2.7-1.6,2.8-2.3c0-0.6-0.9-0.9-2.2-0.9c0.3-0.3,1-0.7,2-0.6c0.6,0,1.5,0.3,2.3,0.9c-0.3-0.5-1.6-1.4-3.1-1.2
				c0.6-1.1,1.7-2.2,3-2.2c0.8,0,1.8,0.3,2.3,1c-0.2-0.6-0.6-1.1-1-1.4c0.1-0.2,0.3-0.4,0.4-0.6c0.2,0.4,0.3,0.8,0.3,1.1
				c0.1-0.4,0-0.9-0.2-1.4c0.8-1.6,1.3-3.9,1.1-4.7c0,0.2-0.3,2.6-1.3,4.4c-0.3-0.5-0.7-1-1.2-1.2c0.1-1.1,0-2.2-0.4-2.7
				c0.2,0.4,0.3,1.5,0.2,2.6c-0.5-0.1-1-0.1-1.7,0.3c-1.5,0.9-2.4,3-2.4,4c0.5-1.9,2.2-4.5,3.9-4c0,0,0.1,0,0.1,0
				c-0.1,0.6-0.3,1.3-0.6,1.8c-1.1,0.3-2.2,1.3-2.6,3c0,0-0.1,0-0.1,0c-0.6,0.1-1.1,0.5-1.2,0.8c-0.3,0-0.6,0-0.9,0.1
				c-0.5,0.1-0.9,0.2-1.3,0.3c-0.4-0.5-1-0.8-1.8-0.7c-1.1,0.1-2.1,0.9-2.6,1.6c-0.2-0.4-0.5-0.9-1.1-1.3c-1.7-1.4-4.8-2.2-5.6-1.8
				c1.2,0,3,0.5,4.4,1.3c1.4,0.8,2.4,1.9,2.2,2.9c-2.9-1-6.6-2-9.6-2.6c0.5-0.5,1.1-1,1.9-1.4c-0.7,0-1.6,0.5-2.5,1.3
				c-0.1,0-0.1,0-0.2,0c-0.1-1.2-0.1-3,0-3.2c-0.3,0.5-0.4,1.3-0.5,2.2c-1.8-0.2-6.2-3-7.3-8.2c1.4,3.3,4.3,6.5,6.6,5.1
				c1.4-0.9,1.1-3.7,0.6-5.9c-0.6-2.4-1.6-5-2.2-6.3c-1.5-2.8-3.3-4.8-5.3-5.8c-1.8-0.9-3.8-1.1-5.4-0.4c-0.5,0.2-0.9,0.5-1.3,0.8
				C40.9,75.2,41.2,74.9,41.5,74.6z M72.9,97.8c0.9,0,1.3,0.2,1.4,0.4c0.1,0.3-0.3,0.7-1.2,0.8c-0.7,0.1-1.5-0.1-1.5-0.5
				C71.6,98.1,72.2,97.8,72.9,97.8z M77.4,93.7c-0.2,0-0.4-0.1-0.6-0.1c0.2-0.4,0.4-1,0.4-1.6c0.4,0.2,0.8,0.6,1.1,1.1
				c-0.2,0.3-0.3,0.5-0.5,0.7C77.7,93.8,77.6,93.7,77.4,93.7z M49.7,106c-6.5-5.1-11.7-13.9-11.5-22.9c0.1-3.1,1-6.9,3.9-8.1
				c1.5-0.7,3.4-0.5,5.1,0.4c1.9,1,3.7,3,5.1,5.7c0.5,1,1.6,3.5,2.2,6.2c0.7,2.9,0.5,4.8-0.4,5.4c-2,1.3-4.7-1.9-5.9-4.2
				c-0.5-1.1-0.8-2-1-2.7c-0.2-0.3-0.2,2.5,1.1,5c1.7,3.6,4.9,5.8,6.7,5.8c0,0.2,0,0.3,0,0.5c-1.8-0.3-3.1-0.4-3.2-0.2
				c0.3-0.1,1.5,0.1,3.3,0.4c0,0.2,0,0.4,0,0.6c-0.5,0.7-0.9,1.6-1,2.7c0,1.3,0.3,2.7,1,4c-0.9,0.3-1.7,0.7-2.3,1
				c0.8-0.3,1.5-0.6,2.4-0.9c1,1.9,2.8,3.7,5.2,5.4C56.9,110.5,53.1,108.7,49.7,106z M61.1,116.1c-0.7-1.8-1-4.1,0.7-5.1
				c2.7,1.7,5.2,2.9,7.9,3.3c6.1,0.9,12.1-3.6,14.4-5.9c0.1-0.1,0.1-0.1,0.2-0.2c0.7,0.5,1.7,2,1.8,4.9c0.2,5.3-3,12.2-3.7,16.3
				c-0.7,0.1-1.5,0.1-2.3-0.1c-0.1-0.5-0.5-0.8-1.1-0.9c-0.2,0-0.5,0-0.7,0.1c-0.1-0.1-0.2-0.2-0.3-0.3c0.3-1.9,0.9-11.5,1.2-14.6
				c-0.3,0.4-0.5,2.2-0.8,4.4c-0.3-1.1-1-2.5-2-2.6c-0.3,0-0.6,0.2-0.9,0.6c-0.7,1.1-1,3.2-0.9,4.8c-0.6-2.3-3.1-5.8-4.1-4.7
				c-0.4,0.4-0.5,1.2-0.4,2c-0.5-1.4-0.9-2.5-1.2-2.9c0.4,1.1,2.5,9.6,5.6,15.1c-2.2,0-3.9-1.1-5.3-1.8c-0.6-0.3-1.1-0.6-1.6-0.7
				C66.6,126.3,62.4,119.4,61.1,116.1z M81.8,131.4c0.2,0.1,0.6,0.2,1.1,0.3c1.6,1.7,3.8,2,4.5,2.5c0.4,0.3,0.2,0.7,0.2,0.8
				c-0.2,0.5-0.8,1-1.6,0.9c-2.4-0.3-3.5-2.4-4.7-2.6c0.2,0.1,0.4,0.3,0.6,0.5c-0.3,0.9,0.9,2.5,1.1,3.6c0.2,0.8-0.3,1.2-0.8,1.2
				c-1.9-0.1-2.6-4.2-2.4-5.2c-0.1,0.3-0.2,0.6-0.2,1c-1-0.3-1.5-1.4-1.5-1.8c1.2-0.6,1.9-1.6,2-2.4c0-0.2,0-0.3,0-0.4
				c2.4,0.5,4.3,0,6.2-1.1c0.4-0.2,0.7-0.4,0.9-0.3c0.4,0.2,0.6,0.7,0.4,1.2C87.4,130.5,85.2,131.7,81.8,131.4z M75.4,132.7
				c0.6,0.1,1.2,0.1,1.8,0c-0.4,1.1-2.6,1.7-3.7,1.7c0.8,0.2,1.7,0.1,2.4-0.2c-0.7,1.2-2.8,1.7-2.9,1.7c0.1,0,0.2,0,0.2,0
				c-0.2,0.8-1.1,2.4-2.4,3c-0.9,0.3-1.7,0.2-2.1-0.3c-0.6-0.9,1.8-1.5,2.9-3.5c0.2-0.3,0.3-0.7-0.9-0.3c-0.9,0.3-2.1,0.8-3.2,0.8
				c-1.8-0.1-3.4-1.4-2.8-2.2c0.3-0.4,1.3-0.3,2.3-0.3c1.4,0.1,3,0,4-0.8c0.2,0,0.4-0.1,0.6-0.2c-3.2,0.1-5.4-1.8-5.7-3
				c-0.1-0.3-0.1-0.8,0.5-1c0.6-0.3,1.4,0.2,2.5,0.7c1.7,0.9,4,2,7,1.6c1.2-0.2,2.1-1.7,3-1.6c0.5,0.1,0.9,0.8,0.7,1.5
				C79.2,131.8,76.8,132.7,75.4,132.7z M70.4,119c-0.1-0.9-0.2-2.2,0.2-2.7c0.8-1.1,3.7,3.3,4.1,5l0,0c0,0.2,0,0.4,0.1,0.6
				c0,0.1,0.2-0.1,0.2-0.2c0-1.4,0-4.5,0.9-5.8c1.1-1.6,2.2,1.4,2.6,2.7c-0.2,2.3-0.4,4.9-0.5,6.8c-0.2,0.3-0.8,0.6-1.2,0.7
				c-0.2-0.3-0.4-0.5-0.7-0.6c-0.7-0.4-1.3,0.2-1.5,0.9c-0.5,0-1.2-0.1-1.4-0.1C72,123.7,71.1,121.1,70.4,119z M76.3,130
				c-2.2-1.7-1.5-3.9-0.9-4.1c0.2,0,0.4,0,0.6,0.1c0.7,0.5,1.2,1.8,2.1,2.7C77.5,129,76.9,129.6,76.3,130z M76.8,126.4
				c0.3-0.1,0.7-0.3,1.1-0.7c-0.1,1.1-0.1,1.9-0.1,2.2C77.4,127.5,77.1,126.9,76.8,126.4z M74.4,126.8c-0.1,0.7,0,1.5,0.4,2.1
				c0.3,0.5,0.7,0.8,1.3,1.2c-0.1,0-0.1,0.1-0.2,0.1c-0.4,0.1-0.8,0.1-1.2,0.1c-0.6-1.2-1.1-2.4-1.6-3.7
				C73.4,126.7,73.9,126.8,74.4,126.8z M55.2,115.6c1,0,1.9,0.5,2,1.6c-0.4,0-0.9,0.1-1.3,0.2c-0.2,0.1-0.4,0.1-0.5,0.2
				c0.4-0.7,0.4-1.3,0-1.7c-0.2-0.2-0.4-0.3-0.7-0.3C54.8,115.6,55,115.6,55.2,115.6z M48.5,122.5c1-3.5,3.2-5.7,5.2-6.5
				c0.7-0.2,1.2,0,1.5,0.2c0.3,0.4,0.2,1.1-0.3,1.8c-1.2,0.7-1.7,1.8-1.8,2.3c0.7-1.3,2.2-2.6,3.4-2c0.4,0.2,0.5,0.6,0.4,1.1
				c-0.2,0.8-1,1.8-1.9,3c-0.2,0.2-0.3,0.4-0.5,0.6c-0.4,0.5-0.7,1-1,1.5c-0.7,1.1-1.4,2.2-2.7,2.8c-0.8,0.4-1.6,0.4-2.1,0
				C47.5,126.4,48.1,123.8,48.5,122.5z M50.8,129.8c0.6,0.1,1.2,0,1.6-0.3c-0.5,0.2-3.1,0-4-2.2c0.6,0.6,1.6,0.5,2.4,0.1
				c1.3-0.6,2-1.7,2.8-2.9c0.3-0.5,0.6-1,1-1.5c0.2-0.2,0.3-0.4,0.5-0.6c1-1.2,1.8-2.2,2-3.1c0.1-0.6-0.1-1.1-0.5-1.3
				c-0.3-0.1-0.7-0.2-1.1-0.1c1.4-0.6,2.9-0.4,3.5,1c0.2,0.6,0.2,1.3-0.2,2c-1.4,2.5-5,5-5.3,6.7c0.2-0.5,0.8-1.1,1.5-1.8
				c2,1,4.4,1.6,6.5,1.4c-0.3,1.2-0.4,2.5-0.2,4c0.3,2.3,1.3,5,3,7.2C57.4,135.4,52.2,131.2,50.8,129.8z M68.2,149.3
				c-1.2,2.6-1.3,4.8-0.7,6.9c-0.8-0.9-1.2-2.5-1.4-4.1c-0.2-2.2,0.1-3.8,0.7-5.2c0.8-2.2,2.2-3.6,2.9-5.1c1.3,0.4,2.8,0.6,4.3,0.6
				C72.9,144.1,69.4,146.7,68.2,149.3z M64.5,138c-1.8-2.3-3.5-6.6-2.5-10.8c0,0,0,0,0,0l0,0c0.2-1,0.6-2,1.2-2.9
				c-0.6,0.5-1.2,1.3-1.5,2.3c-0.2,0-0.3,0.1-0.5,0.1c0.3-1.1,1.4-3,2.6-4c1.3,2.1,2.6,4.1,3.2,4.9c-0.3,0-0.6,0-0.8,0.1
				c-0.6,0.3-0.9,0.9-0.8,1.6c0.5,2.1,3.3,3.1,5.1,3.1c-0.9,0.6-2.2,0.4-3.4,0.3c-1.2-0.1-2.2-0.1-2.7,0.4c-0.8,1,0.5,2.4,2.3,2.8
				c1,0.2,1.9,0.1,2.6-0.2c1-0.4,2.1-1,2.3-0.9c0.1,0.1-0.5,0.7-1.1,1.3c-1.1,1-2.3,1.6-2.3,2.3c0,0.8,0.9,1.2,2,1.1
				c1.8-0.2,3.1-2.2,3.3-3.6c1.2,0,2.5-0.7,2.9-1.8c0.7-0.4,1.2-0.9,1.3-1.5c0.1,0,0.1,0,0.2-0.1c0,0.8,0.6,1.7,1.8,2
				c0,2,1.1,4.4,2.6,4.4c1,0,1.4-0.6,1.4-1.4c-0.1-1-1.7-3.1-1.4-3.7c0.8,0.8,2,2.1,3.7,2.3c1,0.1,1.9-0.4,2.2-1.1
				c0.2-0.5,0.1-1.1-0.4-1.4c-0.9-0.7-3-0.8-4.4-2.1c1.1,0.1,2.5,0,3.5-0.6c2.2-1.2,1.4-3.9-0.3-3.2c-0.8,0.3-2.1,1.2-3.9,1.5
				c0.2-0.9,0.5-1.8,0.8-2.8c0.4-1.2,0.9-2.7,1.5-4.2c0.7,1.5,4.4,5.4,4.1,9.8c-0.1,2.1-0.7,3.7-2.1,5.2
				C82,142.2,69.2,143.8,64.5,138z M98.4,123.5c0.3,0,0.5,0,0.8,0c-1.9,2.1-4.5,7.2-10.9,12.6c1.4-2.3,1.6-4.8,1-6.9
				c-0.4-1.6-1.2-3-2-4.2c1.9-0.4,5.7-2.6,7-4.7c0.5,0.3,1,0.7,1.3,1.2c-0.2-1.3-1.8-2.2-3.3-2.8c-0.7-0.3-1.6-0.6-2.3-1
				c-0.9-0.6-1.6-1.6-1.4-2.8c0.1-0.8,0.5-1.3,1.1-1.5c0.5-0.1,1-0.1,1.5-0.1c-0.7,0.3-0.7,1.6,0.4,2.4c0.8,0.7,2.1,1.1,3.5,2.1
				c1.9,1.3,2.8,2.9,4.2,3.5c0.5,0.2,0.8,0.3,1.2,0.3c0.3,0,0.6-0.1,0.8-0.2c0,0,0,0,0.1-0.1C100.7,122.2,99.6,123.2,98.4,123.5z"/>
		</g>
	</g>
</g>
</svg>
