<?xml version="1.0" encoding="UTF-8"?><svg id="Capa_1" xmlns="http://www.w3.org/2000/svg" viewBox="0 0 502.3 434.42"><defs><style>.cls-1{fill:#fff;}.cls-2{fill:#34bbff;}</style></defs><path class="cls-2" d="m251.15,434.42c-2.54,0-5.08-.66-7.36-1.97-2.47-1.43-61.21-35.53-120.79-86.92-35.31-30.45-63.5-60.66-83.78-89.78C12.99,218.08-.21,181.84,0,148.04c.25-39.33,14.34-76.32,39.67-104.15C65.43,15.58,99.81,0,136.47,0c46.99,0,89.95,26.32,114.68,68.02C275.88,26.32,318.84,0,365.83,0c34.64,0,67.69,14.06,93.06,39.6,27.85,28.02,43.67,67.61,43.41,108.63-.21,33.74-13.66,69.93-39.96,107.55-20.34,29.1-48.49,59.3-83.66,89.74-59.36,51.38-117.68,85.48-120.13,86.91-2.29,1.33-4.84,1.99-7.4,1.99h0Z"/><path class="cls-1" d="m75.05,139.39c8.69-1.67,25.47-2.95,41.66-2.95,17.95,0,30.58,1.37,41.5,7.87,10.16,5.61,16.72,15.69,16.72,28.3,0,11.86-6.31,23.68-22.02,29.96v.62c17.02,4.71,26.74,17.8,26.74,33.82,0,12.85-5.65,22.86-14.23,29.89-10.03,8.35-26.8,13.35-56.07,13.35-15.11,0-26.84-.96-34.3-2.12v-138.74Zm35.94,53.29h6.9c13.78,0,20.97-6.23,20.97-15.64,0-8.57-5.73-14.38-17.19-14.38-5.26,0-8.45.32-10.68.84v29.18Zm0,60.31c2.45.42,5.23.42,9.21.42,11.45,0,21.49-5.22,21.49-17.7s-10.06-17.14-22.72-17.14h-7.99v34.41Z"/><path class="cls-1" d="m235.61,137.4v83.34c0,20.54,6.69,30.62,18.95,30.62s18.95-8.93,18.95-30.62v-83.34h36.25v80c0,41.46-19.16,63.49-55.98,63.49s-54.42-21.85-54.42-64.23v-79.25h36.25Z"/><path class="cls-1" d="m361.9,278.77v-55.45l-40.51-85.92h40.78l10.92,32.16c3.41,9.58,5.84,17.66,8.5,27.06h.42c2.36-8.98,4.81-17.5,7.9-27.25l10.12-31.97h39.95l-41.82,84.55v56.82h-36.25Z"/></svg>