<?xml version="1.0" encoding="utf-8"?>
<!-- Generator: $$$/GeneralStr/196=Adobe Illustrator 27.6.0, SVG Export Plug-In . SVG Version: 6.00 Build 0)  -->
<svg version="1.1" id="Layer" xmlns="http://www.w3.org/2000/svg" xmlns:xlink="http://www.w3.org/1999/xlink" x="0px" y="0px"
	 viewBox="0 0 512 512" style="enable-background:new 0 0 512 512;" xml:space="preserve">
<style type="text/css">
	.st0{fill:#3BB9EA;}
</style>
<path id="sparkle" class="st0" d="M447.9,245.7l-58.2-16.6c-53.3-15-94.9-56.6-109.9-109.9l-16.6-58.2c-2.3-5.7-8.8-8.4-14.5-6
	c-2.7,1.1-4.9,3.3-6,6l-16.6,58.2c-15,53.3-56.6,94.9-109.9,109.9l-58.2,16.6c-5.7,1.6-9,7.5-7.3,13.2c1,3.6,3.8,6.3,7.3,7.3
	l58.2,16.6c53.3,15,94.9,56.6,109.9,109.9l16.6,58.2c1.6,5.7,7.5,9,13.2,7.3c3.6-1,6.3-3.8,7.3-7.3l16.6-58.2
	c15-53.3,56.6-94.9,109.9-109.9l58.2-16.6c5.7-1.6,9-7.5,7.3-13.2C454.3,249.5,451.5,246.7,447.9,245.7L447.9,245.7z"/>
</svg>
