<?xml version="1.0" encoding="UTF-8"?><svg id="_圖層_2" xmlns="http://www.w3.org/2000/svg" viewBox="0 0 187.62 10.88"><defs><style>.cls-1{fill:#3bb9ea;}</style></defs><g id="PRINT_1"><path class="cls-1" d="m187.12,4.97l-1.1-1.5c-.7-.9-1.9-1.1-2.8-.4-3.4,2.6-8.2,2.6-11.7,0-5.5-4.1-13.2-4.1-18.7,0-3.4,2.6-8.2,2.6-11.7,0-5.5-4.1-13.2-4.1-18.7,0-3.4,2.6-8.2,2.6-11.7,0-5.5-4.1-13.2-4.1-18.7,0-3.4,2.6-8.2,2.6-11.7,0-5.5-4.1-13.2-4.1-18.7,0-3.4,2.6-8.2,2.6-11.7,0-5.5-4.1-13.2-4.1-18.7,0-3.4,2.6-8.2,2.6-11.7,0C14.02-1.03,6.32-1.03.82,3.08c-.9.7-1.1,1.9-.4,2.8l1.1,1.5c.3.4.8.7,1.3.8s1.1-.1,1.5-.4c3.4-2.6,8.2-2.6,11.7,0,5.5,4.1,13.2,4.1,18.7,0,3.4-2.6,8.2-2.6,11.7,0,2.8,2.1,6.1,3.1,9.4,3.1s6.6-1,9.4-3.1c3.4-2.6,8.2-2.6,11.7,0,5.5,4.1,13.2,4.1,18.7,0,3.4-2.6,8.2-2.6,11.7,0,5.5,4.1,13.2,4.1,18.7,0,3.4-2.6,8.2-2.6,11.7,0,5.5,4.1,13.2,4.1,18.7,0,3.4-2.6,8.2-2.6,11.7,0,5.5,4.1,13.2,4.1,18.7,0,.4-.3.7-.8.8-1.3,0-.5-.2-1-.5-1.5Z"/></g></svg>