<?xml version="1.0" encoding="UTF-8"?><svg id="_層_2" xmlns="http://www.w3.org/2000/svg" xmlns:xlink="http://www.w3.org/1999/xlink" viewBox="0 0 94.34 94.34"><defs><style>.cls-1{fill:#fff;}.cls-2{fill:url(#_命名漸層_54);}</style><linearGradient id="_命名漸層_54" x1="16.2" y1="16.2" x2="83.63" y2="83.63" gradientTransform="matrix(1, 0, 0, 1, 0, 0)" gradientUnits="userSpaceOnUse"><stop offset="0" stop-color="#a59aca"/><stop offset="1" stop-color="#4d53a2"/></linearGradient></defs><g id="_層_4"><circle class="cls-2" cx="47.17" cy="47.17" r="47.17"/><g><path class="cls-1" d="M15.1,55.23c-1.03,1.42-1.71,3.2-1.52,4.95,.12,1.05,.34,1.84,.59,2.43-.05-.05-.1-.09-.15-.14-2.12-1.95-5.13-2.86-8.01-2.72,1.2,1.4,2.42,2.83,3.97,3.83,.98,.63,2.54,1.3,3.94,1.17,.64-.06,1.52-.48,1.52-.48v-.02h0s1.26-1.56,.94-3.87c-.24-1.75-.76-3.45-1.3-5.14Z"/><path class="cls-1" d="M8.97,57.44c.54,.12,1.35,.02,1.48,0h.02c.17-.13,1.58-1.17,1.93-3.21,.29-1.64,.31-3.31,.31-4.97-1.33,.98-2.45,2.38-2.77,4-.19,.93-.22,1.68-.17,2.27-.02-.04-.04-.07-.06-.11-1.34-2.35-3.77-4.03-6.39-4.73,.67,1.6,1.36,3.23,2.46,4.56,.7,.85,1.9,1.9,3.19,2.17Z"/><path class="cls-1" d="M6.44,49.52c.49,.29,1.33,.45,1.4,.47h0c.06-.02,1.81-.53,2.82-2.4,.78-1.45,1.31-3.01,1.82-4.57-1.55,.5-3.03,1.47-3.84,2.89-.47,.83-.73,1.53-.87,2.11,0-.05-.02-.1-.03-.15-.53-2.62-2.29-4.95-4.53-6.41,.13,1.71,.27,3.44,.9,5.04,.39,1.01,1.2,2.37,2.32,3.02Z"/><path class="cls-1" d="M7.68,42.38h0s1.71,.07,3.13-1.31c1.08-1.05,1.97-2.26,2.85-3.48-1.49,.01-3.05,.45-4.15,1.47-.65,.6-1.07,1.14-1.34,1.61,0-.05,.01-.1,.02-.15,.26-2.43-.64-4.95-2.19-6.84-.35,1.53-.71,3.08-.61,4.65,.06,.99,.39,2.4,1.19,3.28,.36,.39,1.05,.77,1.09,.8Z"/><path class="cls-1" d="M12.37,32.38c-.78,.42-1.33,.84-1.72,1.22,.01-.04,.03-.07,.04-.11,.88-2.35,.65-5.09-.41-7.37-.75,1.43-1.5,2.88-1.8,4.46-.19,1-.23,2.48,.34,3.57,.24,.45,.78,.97,.87,1.06h.02c.18,.06,1.77,.45,3.43-.5,1.34-.77,2.55-1.74,3.73-2.73-1.49-.37-3.15-.34-4.5,.39Z"/><path class="cls-1" d="M15.13,29.47c1.91-1.45,3.1-3.79,3.41-6.17-1.33,.78-2.68,1.57-3.73,2.69-.66,.71-1.44,1.89-1.54,3.06-.04,.54,.17,1.32,.17,1.32,0,0,.88-.3,1.68-.9Z"/><path class="cls-1" d="M80.31,62.47c-.05,.05-.1,.09-.15,.14,.25-.59,.48-1.38,.59-2.43,.19-1.75-.48-3.53-1.52-4.95-.54,1.69-1.06,3.38-1.3,5.14-.32,2.31,.94,3.88,.94,3.88h0s.88,.43,1.52,.49c1.4,.14,2.96-.53,3.94-1.17,1.55-1,2.77-2.43,3.97-3.83-2.88-.14-5.89,.77-8.01,2.72Z"/><path class="cls-1" d="M84.63,55.44s-.04,.07-.06,.11c.05-.59,.02-1.34-.17-2.27-.33-1.62-1.44-3.02-2.77-4,0,1.66,.02,3.33,.3,4.97,.36,2.03,1.77,3.08,1.93,3.2h.02c.13,.03,.94,.12,1.48,0,1.29-.27,2.49-1.32,3.19-2.17,1.1-1.34,1.79-2.96,2.46-4.56-2.62,.7-5.05,2.38-6.39,4.73Z"/><path class="cls-1" d="M86.55,48.02c-.13-.57-.39-1.27-.87-2.11-.81-1.42-2.29-2.39-3.84-2.89,.51,1.56,1.05,3.12,1.82,4.57,1,1.87,2.75,2.38,2.82,2.4h0c.07-.01,.91-.18,1.4-.47,1.12-.66,1.93-2.01,2.32-3.02,.62-1.6,.76-3.33,.9-5.04-2.24,1.46-4,3.79-4.53,6.41-.01,.05-.02,.1-.03,.15Z"/><path class="cls-1" d="M86.16,40.66c-.27-.47-.69-1.01-1.34-1.61-1.1-1.01-2.65-1.45-4.15-1.47,.88,1.22,1.78,2.43,2.85,3.48,1.42,1.38,3.13,1.32,3.13,1.32h0s.74-.41,1.09-.8c.8-.88,1.13-2.29,1.19-3.28,.1-1.56-.25-3.12-.61-4.65-1.55,1.89-2.45,4.41-2.19,6.84,0,.05,.01,.1,.02,.15Z"/><path class="cls-1" d="M84.63,35.23h.02c.09-.1,.63-.62,.87-1.07,.57-1.08,.53-2.56,.34-3.57-.3-1.58-1.06-3.04-1.8-4.46-1.05,2.28-1.29,5.02-.41,7.37,.01,.04,.03,.07,.04,.11-.39-.39-.94-.81-1.72-1.22-1.35-.72-3.01-.76-4.5-.39,1.19,.98,2.39,1.96,3.73,2.73,1.67,.95,3.25,.56,3.43,.51Z"/><path class="cls-1" d="M79.21,29.47c.8,.61,1.68,.9,1.68,.9,0,0,.21-.79,.17-1.32-.09-1.17-.87-2.35-1.54-3.06-1.05-1.13-2.4-1.92-3.73-2.69,.31,2.38,1.5,4.72,3.41,6.17Z"/><path class="cls-1" d="M71.11,69.65c-.26,0-.48,.08-.64,.24-.17,.16-.25,.38-.25,.64v2.98c0,.3-.1,.55-.3,.76-.2,.21-.45,.31-.75,.31s-.55-.1-.76-.31c-.21-.21-.31-.46-.31-.76v-2.98c0-.59-.3-.88-.89-.88-.26,0-.48,.08-.64,.24-.16,.16-.24,.38-.24,.64v.91c-.15-.3-.35-.58-.61-.83-.64-.64-1.26-.96-2.22-.96-1.02,0-1.76,.54-1.76,.54v-3.4c0-.26-.08-.48-.25-.64s-.38-.24-.64-.24-.46,.08-.63,.25c-.17,.17-.25,.38-.25,.63v4.71c-.15-.3-.35-.58-.61-.83-.64-.64-1.44-.96-2.4-.96s-1.75,.32-2.39,.96c-.33,.33-.57,.69-.73,1.1-.16-.42-.41-.81-.75-1.14-.64-.64-1.26-.96-2.22-.96-1.02,0-1.76,.54-1.76,.54v-3.4c0-.26-.08-.48-.25-.64-.17-.16-.38-.24-.64-.24s-.46,.08-.63,.25c-.17,.17-.25,.38-.25,.63v4.68c-.13-.37-.34-.71-.64-1.01-.54-.54-1.03-.81-1.83-.81-.7,0-1.5,.23-2.02,.68-.53-.46-1.15-.68-1.84-.68-.81,0-1.66,.27-2.21,.81-.39,.38-.63,.84-.74,1.36-.16-.4-.4-.75-.72-1.07-.64-.64-1.44-.96-2.4-.96s-1.75,.32-2.39,.96c-.33,.33-.57,.69-.73,1.1-.1-.57-.35-1.1-.75-1.49-.6-.52-1.16-.71-1.83-.71s-1.5,.23-2.02,.68c-.53-.46-1.15-.68-1.84-.68-.81,0-1.66,.27-2.21,.81-.54,.54-.81,1.21-.81,2.02v2.99c0,.26,.08,.48,.25,.64s.38,.24,.64,.24,.48-.08,.64-.24,.24-.37,.24-.64v-2.98c0-.3,.1-.55,.31-.75s.46-.3,.76-.3,.54,.1,.75,.31c.21,.21,.32,.45,.32,.74v2.98c0,.26,.08,.48,.24,.64,.16,.16,.37,.24,.64,.24s.48-.08,.64-.24c.17-.16,.25-.37,.25-.64v-2.97c0-.74,.67-1.06,1.02-1.06,.29,0,.54,.1,.74,.31s.31,.45,.31,.74v2.99s.04,.9,.89,.9,.89-.9,.89-.9v-.9c.16,.36,.38,.68,.67,.97,.64,.65,1.44,.97,2.39,.97s1.75-.32,2.4-.97c.28-.28,.49-.59,.65-.92v.85c0,.26,.08,.48,.25,.64s.38,.24,.64,.24,.48-.08,.64-.24,.24-.37,.24-.64v-2.98c0-.3,.1-.55,.31-.75s.46-.3,.76-.3,.54,.1,.75,.31,.32,.45,.32,.74v2.98c0,.26,.08,.48,.24,.64s.37,.24,.64,.24,.48-.08,.64-.24,.25-.37,.25-.64v-2.97c0-.74,.67-1.06,1.02-1.06,.29,0,.54,.1,.74,.31,.21,.21,.31,.45,.31,.74v2.99s.04,.9,.89,.9,.89-.9,.89-.9v-1.37c.16,.48,.42,.91,.8,1.29,.64,.64,1.44,.97,2.39,.97s1.74-.32,2.39-.96c.33-.33,.57-.69,.74-1.1,.16,.43,.41,.81,.74,1.15,.64,.64,1.44,.96,2.39,.96,.88,0,1.64-.54,1.64-.54,.04,.11,.1,.22,.19,.3,.16,.16,.37,.24,.64,.24s.48-.08,.64-.24c.17-.16,.25-.38,.25-.64v-.97c.15,.3,.35,.58,.61,.83,.64,.64,1.44,.97,2.39,.97s1.74-.32,2.39-.96c.32-.32,.56-.67,.72-1.06,.12,.46,.36,.86,.7,1.21,.54,.54,1.22,.81,2.03,.81,.37,0,.72-.07,1.05-.2v.82c0,.29-.1,.54-.32,.75-.21,.21-.46,.32-.75,.32h-.05c-.26,0-.48,.08-.64,.25-.17,.17-.25,.38-.25,.64s.08,.48,.25,.64c.17,.16,.38,.24,.64,.24h.05c.81,0,1.48-.27,2.02-.82,.54-.54,.81-1.22,.81-2.03v-6.44c0-.26-.08-.48-.24-.64-.16-.16-.37-.24-.64-.24Zm-34.17,3.65c-.47,.74-.8,.61-2.01,1.67h0c-1.21-1.06-1.51-.94-1.96-1.67-.31-.56-.04-1.27,.53-1.51,.52-.22,1.07-.01,1.43,.55,.36-.56,.93-.77,1.47-.55,.58,.24,.82,.97,.53,1.51Zm14.89,.82c-.31,.31-.69,.46-1.12,.46s-.81-.15-1.12-.46c-.31-.31-.46-.61-.46-1.12,0-.93,.72-1.58,1.58-1.58,.44,0,.81,.16,1.12,.47,.31,.31,.47,.68,.47,1.12s-.16,.81-.47,1.11Zm5.14,.52c-.44,0-.81-.15-1.12-.46-.31-.31-.46-.68-.46-1.12s.15-.81,.46-1.11c.31-.3,.68-.46,1.12-.46s.81,.15,1.12,.46c.31,.31,.47,.68,.47,1.12,0,.89-.83,1.57-1.59,1.57Zm7.48-.52c-.31,.31-.69,.46-1.12,.46s-.81-.15-1.12-.46c-.31-.31-.46-.61-.46-1.12,0-.93,.72-1.58,1.58-1.58,.44,0,.81,.16,1.12,.47,.31,.31,.47,.68,.47,1.12s-.16,.81-.47,1.11Z"/><path class="cls-1" d="M61.83,86.13s-.53-.07-1.13-.2h.59c.06,0,.12-.02,.17-.07,.04-.04,.07-.1,.07-.17v-1.77h0v-.91c0-.13-.11-.23-.23-.23h-4.86c-.13,0-.23,.1-.23,.23v2.68c0,.06,.02,.12,.07,.17,.04,.04,.1,.07,.17,.07h.5c-.6,.14-1.12,.2-1.13,.2-.13,.02-.22,.13-.2,.26,.02,.12,.12,.2,.23,.2h.03s1.17-.15,2.07-.46c.09-.03,.15-.12,.16-.21h1.47c0,.09,.06,.18,.16,.21,.9,.3,2.02,.45,2.07,.46h.03c.12,0,.22-.08,.23-.2,.02-.13-.07-.24-.2-.26Zm-5.17-2.88h4.39v.44h-4.39v-.44Zm0,.9h4.39v.41h-4.39v-.41Zm0,1.31v-.44h4.39v.44h-4.39Z"/><path class="cls-1" d="M54,79.22h-2.5v-.22c0-.13-.1-.23-.23-.23s-.23,.1-.23,.23v.22h-2.51c-.19,0-.3,.08-.37,.15-.15,.15-.15,.35-.15,.38v.58c0,.13,.1,.23,.23,.23h1.25v.46l-.87,.02c-.13,0-.23,.11-.23,.24,0,.13,.11,.23,.23,.23h0l.86-.02v.49l-1,.16c-.13,.02-.21,.14-.19,.27,.02,.11,.12,.2,.23,.2,.01,0,.03,0,.04,0l2.14-.35c.13-.02,.21-.14,.19-.27-.02-.13-.14-.21-.27-.19l-.67,.11v-.42h.72c.13-.02,.23-.12,.23-.25,0-.13-.11-.23-.24-.23h-.71v-.43h.7c.13,0,.23-.1,.23-.23s-.1-.23-.23-.23h-.91s-.01,0-.02,0h-1.25v-.35s0-.04,.02-.05c0,0,.01,0,.04,0h2.83l-.27,.56c-.03,.07-.03,.16,.01,.23,.04,.07,.12,.11,.2,.11h1.11v.45h-.98c-.13,0-.23,.1-.23,.23v.93c0,.13,.1,.23,.23,.23h2.44c.13,0,.23-.1,.23-.23v-.93c0-.13-.1-.23-.23-.23h-.98v-.45h1.43c.13,0,.23-.1,.23-.23v-.62s0-.22-.15-.36c-.07-.07-.19-.15-.39-.15Zm-1.6,2.73h-.75v-.46h.75v.46Zm1.22-.46v.46h-.75v-.46h.75Zm.45-1.38h-2.4l.21-.43h2.13c.06,0,.06,.01,.07,.04v.38Z"/><path class="cls-1" d="M54.24,86.13s-.53-.07-1.13-.2h.59c.06,0,.12-.02,.17-.07,.04-.04,.07-.1,.07-.17v-1.77h0v-.91c0-.13-.11-.23-.23-.23h-4.86c-.13,0-.23,.1-.23,.23v2.68c0,.06,.02,.12,.07,.17,.04,.04,.1,.07,.17,.07h.5c-.6,.14-1.12,.2-1.13,.2-.13,.02-.22,.13-.2,.26,.02,.12,.12,.2,.23,.2h.03s1.17-.15,2.07-.46c.09-.03,.15-.12,.16-.21h1.47c0,.09,.06,.18,.16,.21,.9,.3,2.02,.45,2.07,.46h.03c.12,0,.22-.08,.23-.2,.02-.13-.07-.24-.2-.26Zm-5.17-2.88h4.39v.44h-4.39v-.44Zm0,.9h4.39v.41h-4.39v-.41Zm0,1.31v-.44h4.39v.44h-4.39Z"/><path class="cls-1" d="M37.59,85.57s.02,0,.03,0c.13-.02,.22-.14,.2-.26-.07-.53-.07-1-.07-1,0-.13-.1-.23-.23-.23h0c-.13,0-.23,.1-.23,.23,0,.02,0,.51,.08,1.07,.02,.12,.12,.2,.23,.2Z"/><path class="cls-1" d="M45.44,85.57s.02,0,.03,0c.13-.02,.22-.14,.2-.26-.07-.53-.07-1-.07-1,0-.13-.1-.23-.23-.23h0c-.13,0-.23,.1-.23,.23,0,.02,0,.51,.08,1.07,.02,.12,.12,.2,.23,.2Z"/><path class="cls-1" d="M61.6,79.22h-2.5v-.22c0-.13-.1-.23-.23-.23s-.23,.1-.23,.23v.22h-2.51c-.19,0-.3,.08-.37,.15-.15,.15-.15,.35-.15,.38v.58c0,.13,.1,.23,.23,.23h1.25v.46l-.87,.02c-.13,0-.23,.11-.23,.24,0,.13,.11,.23,.23,.23h0l.86-.02v.49l-1,.16c-.13,.02-.21,.14-.19,.27,.02,.11,.12,.2,.23,.2,.01,0,.03,0,.04,0l2.14-.35c.13-.02,.21-.14,.19-.27-.02-.13-.14-.21-.27-.19l-.67,.11v-.42h.72c.13-.02,.23-.12,.23-.25,0-.13-.11-.23-.24-.23h-.71v-.43h.7c.13,0,.23-.1,.23-.23s-.1-.23-.23-.23h-.91s-.01,0-.02,0h-1.25v-.35s0-.04,.02-.05c0,0,.01,0,.04,0h2.83l-.27,.56c-.04,.07-.03,.16,.01,.23,.04,.07,.12,.11,.2,.11h1.11v.45h-.98c-.13,0-.23,.1-.23,.23v.93c0,.13,.1,.23,.23,.23h2.44c.13,0,.23-.1,.23-.23v-.93c0-.13-.1-.23-.23-.23h-.98v-.45h1.43c.13,0,.23-.1,.23-.23v-.62s0-.22-.15-.36c-.07-.07-.19-.15-.39-.15Zm-1.6,2.73h-.75v-.46h.75v.46Zm1.22-.46v.46h-.75v-.46h.75Zm.45-1.38h-2.4l.21-.43h2.13c.06,0,.06,.01,.07,.04v.38Z"/><path class="cls-1" d="M38.19,83.17h-1.13v-1.04h1.24c.13,0,.23-.1,.23-.23s-.1-.23-.23-.23h-1.22v-.85h1.22c.13,0,.23-.1,.23-.23s-.1-.23-.23-.23h-1.21v-.69h1.29c.13,0,.23-.1,.23-.23s-.1-.23-.23-.23h-3.28c-.13,0-.23,.1-.23,.23,0,.14-.11,3.49-.12,3.76-.01,.27,.08,.47,.44,.47,0,0,2.56-.02,3.01,.01,.06,.39-.01,1.88-.1,2.26-.04,.16-.19,.21-.68,.19-.13,0-.24,.1-.24,.23s.1,.24,.23,.24c.07,0,.14,0,.21,0,.38,0,.82-.07,.94-.55,.11-.45,.18-1.76,.13-2.39-.02-.35-.09-.46-.49-.46Zm-1.6,0h-1.37s.01-.45,.03-1.04h1.35v1.04Zm0-1.51h-1.34c0-.28,.02-.57,.03-.85h1.33v.85Zm0-1.32h-1.32c0-.29,.02-.54,.02-.69h1.3v.69Z"/><path class="cls-1" d="M44.49,84.07c-.13,0-.23,.1-.23,.23,0,.01,0,.89-.03,1.53,0,.13,.09,.24,.22,.24,0,0,.02,0,.03,0,.12,0,.21-.1,.22-.22,.03-.66,.03-1.54,.03-1.55,0-.13-.1-.23-.23-.23Z"/><path class="cls-1" d="M42.12,84.83c-.09-.08-.15-.15-.15-.16-.07-.07-.15-.16-.23-.24,.42-1.21,.44-2.76,.46-3.65,0-.12,0-.22,0-.32,0-.13,0-.33,0-.33,0-.13-.11-.23-.23-.23h-.77c.03-.44,.06-.76,.06-.77,0-.13-.09-.24-.22-.25-.13,0-.24,.09-.25,.21,0,.04-.03,.36-.06,.8h-.44c-.13,0-.23,.1-.23,.23s.1,.23,.23,.23h.4c-.07,.95-.15,2.14-.15,2.58,0,.49,.22,1.01,.65,1.56-.03,.06-.05,.13-.08,.19-.35,.72-.65,1.06-1,1.42-.09,.09-.09,.24,0,.33,.05,.04,.1,.07,.16,.07,.06,0,.12-.02,.17-.07,.36-.38,.7-.76,1.08-1.54h0s.06,.06,.09,.09c0,0,.07,.07,.16,.16,.05,.05,.1,.07,.16,.07s.12-.02,.17-.07c.09-.09,.09-.24,0-.33Zm-.38-4.37c0,.09,0,.2,0,.32-.01,.78-.04,2.11-.34,3.2-.21-.32-.37-.67-.37-1.02,0-.43,.08-1.64,.15-2.58h.57s0,.06,0,.08Z"/><path class="cls-1" d="M42.82,84.1c-.13-.02-.25,.06-.27,.19,0,0-.16,.96-.46,1.55-.06,.12-.01,.26,.1,.31,.03,.02,.07,.02,.1,.02,.09,0,.17-.05,.21-.13,.33-.66,.5-1.64,.5-1.69,.02-.13-.06-.25-.19-.27Z"/><path class="cls-1" d="M43.68,84.08c-.13-.02-.25,.07-.26,.2,0,0-.13,.96-.32,1.63-.03,.12,.04,.25,.16,.29,.02,0,.04,0,.06,0,.1,0,.2-.07,.22-.17,.19-.69,.32-1.65,.33-1.69,.02-.13-.07-.25-.2-.26Z"/><path class="cls-1" d="M46.04,83.17h-1.13v-1.04h1.24c.13,0,.23-.1,.23-.23s-.1-.23-.23-.23h-1.22v-.85h1.22c.13,0,.23-.1,.23-.23s-.1-.23-.23-.23h-1.21v-.69h1.29c.13,0,.23-.1,.23-.23s-.1-.23-.23-.23h-3.28c-.13,0-.23,.1-.23,.23,0,.14-.11,3.49-.12,3.76-.01,.27,.08,.47,.44,.47,0,0,2.56-.02,3.01,.01,.06,.39-.01,1.88-.1,2.26-.04,.16-.19,.21-.68,.19-.13,0-.24,.1-.24,.23s.1,.24,.22,.24c.07,0,.14,0,.22,0,.38,0,.82-.07,.94-.55,.11-.45,.18-1.76,.13-2.39-.02-.35-.09-.46-.49-.46Zm-1.6,0h-1.37s.01-.45,.03-1.04h1.35v1.04Zm0-1.51h-1.34c0-.28,.02-.57,.03-.85h1.33v.85Zm0-1.32h-1.32c0-.29,.02-.54,.02-.69h1.3v.69Z"/><path class="cls-1" d="M34.26,84.83c-.09-.08-.15-.15-.15-.16-.07-.07-.15-.16-.23-.24,.42-1.21,.44-2.76,.46-3.65,0-.12,0-.22,0-.32,0-.13,0-.33,0-.33,0-.13-.11-.23-.23-.23h-.77c.03-.44,.06-.76,.06-.77,.01-.13-.09-.24-.21-.25-.13,0-.24,.09-.25,.21,0,.04-.03,.36-.06,.8h-.44c-.13,0-.23,.1-.23,.23s.1,.23,.23,.23h.4c-.07,.95-.15,2.14-.15,2.58,0,.49,.22,1.01,.65,1.56-.03,.06-.05,.13-.08,.19-.35,.72-.65,1.06-1,1.42-.09,.09-.09,.24,0,.33,.05,.04,.1,.07,.16,.07,.06,0,.12-.02,.17-.07,.36-.38,.7-.76,1.08-1.54h0s.06,.06,.09,.09c0,0,.07,.07,.16,.16,.05,.05,.1,.07,.16,.07s.12-.02,.17-.07c.09-.09,.09-.24,0-.33Zm-.38-4.37c0,.09,0,.2,0,.32-.01,.78-.04,2.11-.34,3.2-.21-.32-.37-.67-.37-1.02,0-.43,.08-1.64,.15-2.58h.57v.08Z"/><path class="cls-1" d="M34.97,84.1c-.13-.02-.25,.06-.27,.19,0,0-.16,.96-.46,1.55-.06,.12-.01,.26,.1,.31,.03,.02,.07,.02,.1,.02,.09,0,.17-.05,.21-.13,.33-.66,.5-1.64,.5-1.69,.02-.13-.06-.25-.19-.27Z"/><path class="cls-1" d="M36.64,84.07c-.13,0-.23,.1-.23,.23,0,.01,0,.89-.03,1.53,0,.13,.09,.24,.22,.24,0,0,.02,0,.03,0,.12,0,.21-.1,.22-.22,.03-.66,.03-1.54,.03-1.55,0-.13-.1-.23-.23-.23Z"/><path class="cls-1" d="M35.83,84.08c-.13-.02-.25,.07-.26,.2,0,0-.13,.96-.32,1.63-.03,.12,.04,.25,.16,.29,.02,0,.04,0,.06,0,.1,0,.2-.07,.22-.17,.19-.69,.32-1.65,.33-1.69,.02-.13-.07-.25-.2-.26Z"/><path class="cls-1" d="M26.64,53.05v.61c0,.07-.02,.12-.05,.14-.03,.02-.09,.04-.17,.05h-.82c-.09,0-.16,.04-.21,.12-.05,.08-.05,.16-.02,.25,.04,.1,.09,.2,.12,.3,.04,.12,.1,.21,.2,.29s.2,.11,.31,.11c.68,0,1.16-.05,1.44-.16,.21-.09,.36-.22,.44-.38,.08-.16,.12-.4,.12-.71v-3.02c0-.12-.04-.21-.12-.29s-.17-.12-.29-.12h-6.77c-.11,0-.21,.04-.29,.12-.08,.08-.12,.18-.12,.29v3.87c0,.11,.04,.21,.12,.29,.08,.08,.17,.12,.29,.12h.53c.11,0,.21-.04,.29-.12,.08-.08,.12-.18,.12-.29v-1.45s.02-.06,.05-.06h4.79s.04,.02,.04,.06Zm-3.14-1.14s-.02,.05-.06,.05h-1.64s-.05-.02-.05-.05v-.67s.02-.05,.05-.05h1.64s.06,.02,.06,.05v.67Zm1.28,0v-.67s.02-.05,.06-.05h1.75s.04,.02,.04,.05v.67s-.01,.05-.04,.05h-1.75s-.06-.02-.06-.05Z"/><path class="cls-1" d="M25.63,45.85c.08,.08,.17,.12,.28,.12h.54c.11,0,.21-.04,.29-.12s.12-.18,.12-.29v-.13s.01-.06,.04-.06h1.99c.11,0,.21-.04,.29-.12s.12-.18,.12-.29v-.29c0-.11-.04-.21-.12-.29s-.17-.12-.29-.12h-1.99s-.04-.02-.04-.06v-.07c0-.12-.04-.21-.12-.29s-.17-.12-.29-.12h-.54c-.1,0-.2,.04-.28,.12s-.12,.18-.12,.29v.07s-.02,.06-.06,.06h-2.62s-.06-.02-.06-.06v-.07c0-.12-.04-.21-.12-.29-.08-.08-.17-.12-.28-.12h-.54c-.11,0-.21,.04-.29,.12-.08,.08-.12,.18-.12,.29v.07s-.02,.06-.04,.06h-1.91c-.11,0-.21,.04-.29,.12-.08,.08-.12,.18-.12,.29v.29c0,.11,.04,.21,.12,.29,.08,.08,.17,.12,.29,.12h1.91s.04,.02,.04,.06v.13c0,.11,.04,.21,.12,.29,.08,.08,.17,.12,.29,.12h.54c.1,0,.2-.04,.28-.12,.08-.08,.12-.18,.12-.29v-.13s.02-.06,.06-.06h2.62s.06,.02,.06,.06v.13c0,.11,.04,.21,.12,.29Z"/><path class="cls-1" d="M29.22,49.72c.08-.08,.12-.18,.12-.3v-.15c0-.11-.04-.21-.12-.29s-.17-.12-.29-.12h-4.07s-.06-.02-.06-.06v-.3s.02-.06,.06-.06h3.03c.11,0,.21-.04,.29-.12,.08-.08,.12-.18,.12-.29v-.05c0-.12-.04-.22-.12-.3-.08-.08-.17-.12-.29-.12h-3.03s-.06-.02-.06-.05v-.29s.02-.05,.06-.05h3.43c.11,0,.21-.04,.28-.12,.07-.08,.11-.18,.11-.3v-.12c0-.12-.04-.21-.11-.29-.08-.08-.17-.12-.28-.12h-3.43s-.06-.02-.06-.06h0c0-.12-.04-.22-.11-.3s-.17-.12-.28-.12h-.54c-.11,0-.21,.04-.28,.12s-.11,.18-.11,.29h0c0,.05-.02,.07-.06,.07h-3.27c-.11,0-.2,.04-.28,.12-.08,.08-.12,.18-.12,.29v.12c0,.12,.04,.22,.12,.3,.08,.08,.17,.12,.28,.12h3.27s.06,.02,.06,.05v.29s-.02,.05-.06,.05h-2.87c-.11,0-.21,.04-.28,.12-.08,.08-.11,.18-.11,.3v.05c0,.11,.04,.21,.11,.29,.07,.08,.17,.12,.28,.12h2.87s.06,.02,.06,.06v.3s-.02,.06-.06,.06h-3.98c-.11,0-.21,.04-.29,.12-.08,.08-.12,.18-.12,.29v.15c0,.12,.04,.22,.12,.3,.08,.08,.17,.12,.29,.12h9.5c.11,0,.21-.04,.29-.12Z"/><path class="cls-1" d="M39.42,54.74c.08,.08,.17,.12,.29,.12h.58c.11,0,.21-.04,.28-.12s.11-.18,.11-.3v-4.51c0-.12-.04-.22-.11-.3s-.17-.12-.28-.12h-3.73c-.11,0-.2,.04-.28,.12-.08,.08-.12,.18-.12,.3v4.57c0,.11,.04,.21,.12,.29,.08,.08,.17,.12,.28,.12h.52c.11,0,.21-.04,.29-.12,.08-.08,.12-.18,.12-.29v-.14s.02-.05,.04-.05h1.73s.04,.02,.04,.05v.08c0,.12,.04,.22,.12,.3Zm-.16-1.8h-1.73s-.04-.02-.04-.05v-1.96s.02-.06,.04-.06h1.73s.04,.02,.04,.06v1.96s-.02,.05-.04,.05Z"/><path class="cls-1" d="M30.91,49.63c-.08,.08-.12,.18-.12,.3v4.57c0,.11,.04,.21,.12,.29,.08,.08,.17,.12,.28,.12h.51c.11,0,.21-.04,.28-.12s.11-.18,.11-.29v-.14s.02-.05,.06-.05h1.62s.04,.02,.04,.05v.07c0,.12,.04,.22,.12,.3,.08,.08,.17,.12,.29,.12h.56c.11,0,.21-.04,.29-.12,.08-.08,.12-.18,.12-.3v-4.5c0-.12-.04-.22-.12-.3-.08-.08-.17-.12-.29-.12h-3.59c-.11,0-.2,.04-.28,.12Zm1.18,1.31s.02-.06,.06-.06h1.62s.04,.02,.04,.06v1.96s-.02,.05-.04,.05h-1.62s-.06-.02-.06-.05v-1.96Z"/><path class="cls-1" d="M32.5,44.3c-.08,.08-.12,.18-.12,.29v3.52c0,.12,.04,.21,.12,.29,.08,.08,.17,.12,.29,.12h5.95c.1,0,.2-.04,.28-.12,.08-.08,.12-.18,.12-.29v-3.52c0-.12-.04-.21-.12-.29-.08-.08-.17-.12-.28-.12h-5.95c-.11,0-.21,.04-.29,.12Zm1.21,1.3s.01-.06,.04-.06h3.94s.04,.02,.04,.06v1.51s-.01,.06-.04,.06h-3.94s-.04-.02-.04-.06v-1.51Z"/><path class="cls-1" d="M46.49,53.14h-3.93c-.11,0-.21,.04-.29,.12s-.12,.18-.12,.29v.57c0,.12,.04,.21,.12,.29s.17,.12,.29,.12h9.51c.11,0,.21-.04,.29-.12s.12-.18,.12-.29v-.57c0-.12-.04-.21-.12-.29s-.17-.12-.29-.12h-3.97s-.04-.02-.04-.06v-2.21s.01-.05,.04-.05h2.86c.11,0,.21-.04,.28-.12,.07-.08,.11-.18,.11-.3v-.54c0-.12-.04-.22-.11-.3-.08-.08-.17-.12-.28-.12h-2.86s-.04-.02-.04-.05v-1.98s.01-.05,.04-.05h3.41c.11,0,.21-.04,.29-.12s.12-.18,.12-.3v-.55c0-.12-.04-.22-.12-.3s-.17-.12-.29-.12h-3.19s-.02,0-.02-.01,0-.01,.01-.01l.25-.2c.08-.06,.13-.15,.14-.26,0-.11-.03-.2-.1-.28-.41-.4-.95-.83-1.6-1.29-.1-.08-.21-.12-.33-.12-.11,0-.21,.04-.33,.13l-.48,.34c-.08,.05-.12,.13-.12,.24,0,.11,.04,.19,.12,.24,.58,.46,1.04,.86,1.37,1.18,0,0,0,.02,0,.02s-.01,.01-.03,.01h-4.15c-.11,0-.21,.04-.29,.12-.08,.08-.12,.18-.12,.3v.55c0,.12,.04,.22,.12,.3,.08,.08,.17,.12,.29,.12h3.44s.04,.02,.04,.05v1.98s-.01,.05-.04,.05h-2.83c-.11,0-.21,.04-.28,.12s-.11,.18-.11,.3v.54c0,.12,.04,.22,.11,.3s.17,.12,.28,.12h2.83s.04,.02,.04,.05v2.21s-.01,.06-.04,.06Z"/><path class="cls-1" d="M58,45.03v.6c0,.12,.04,.21,.12,.29,.08,.08,.17,.12,.29,.12h2.46s.04,.02,.04,.06v6.91c0,.12-.02,.2-.07,.24s-.13,.06-.24,.06c-.67,0-1.15,0-1.42-.01-.08,0-.15,.03-.2,.11s-.05,.16-.02,.25c.11,.27,.2,.52,.27,.77,.04,.12,.1,.21,.19,.29,.09,.08,.19,.12,.3,.12,.94,0,1.59-.1,1.97-.29,.26-.12,.45-.3,.55-.53,.11-.23,.16-.55,.16-.98v-6.94s.02-.06,.06-.06h1.38c.11,0,.2-.04,.28-.12,.08-.08,.12-.18,.12-.29v-.6c0-.12-.04-.22-.12-.3-.08-.08-.17-.12-.28-.12h-5.43c-.11,0-.21,.04-.29,.12-.08,.08-.12,.18-.12,.3Z"/><path class="cls-1" d="M56.57,47.33h.84c.11,0,.21-.04,.29-.12s.12-.18,.12-.3v-.5c0-.12-.04-.22-.12-.3s-.17-.12-.29-.12h-.84s-.06-.02-.06-.05v-1.8c0-.12-.04-.21-.12-.29-.08-.08-.17-.12-.28-.12h-.6c-.11,0-.21,.04-.29,.12s-.12,.18-.12,.29v1.8s-.01,.05-.04,.05h-1.04c-.11,0-.21,.04-.29,.12-.08,.08-.12,.18-.12,.3v.5c0,.12,.04,.22,.12,.3,.08,.08,.17,.12,.29,.12h1.04s.04,.02,.04,.05v1.97s-.01,.05-.04,.06c-.4,.11-.79,.21-1.17,.29-.11,.02-.2,.08-.25,.18-.04,.06-.06,.13-.06,.2,0,.03,0,.07,.01,.11l.17,.61c.03,.12,.09,.21,.19,.26s.2,.07,.3,.04l.8-.21s.04,0,.04,.04v2.33c0,.09-.01,.15-.04,.18s-.09,.05-.17,.05h-.7c-.09,0-.16,.03-.21,.11s-.06,.16-.03,.26c.07,.2,.13,.38,.18,.55,.03,.12,.09,.21,.17,.29,.09,.08,.19,.12,.3,.12,.64-.02,1.1-.11,1.37-.27,.2-.1,.33-.25,.41-.45,.08-.2,.12-.47,.12-.83v-2.73s.02-.06,.06-.07c.28-.08,.63-.18,1.05-.29,.11-.03,.2-.1,.26-.2s.09-.21,.07-.33l-.07-.53c-.01-.11-.07-.2-.16-.26s-.19-.08-.29-.06l-.88,.23s-.04,0-.04-.04v-1.62s.02-.05,.06-.05Z"/><path class="cls-1" d="M74.74,53.38h-3.89s-.04-.02-.04-.05v-.71s.01-.06,.04-.06h2.63c.11,0,.21-.04,.29-.12,.08-.08,.12-.18,.12-.29v-.28c0-.12-.04-.22-.12-.3-.08-.08-.17-.12-.29-.12h-2.63s-.04-.02-.04-.05v-.63s.01-.05,.04-.05h3.17c.1,0,.2-.04,.28-.12s.12-.18,.12-.3v-.34c0-.12-.04-.22-.12-.3s-.17-.12-.28-.12h-3.17s-.04-.02-.04-.05v-.27c0-.11-.04-.21-.12-.29s-.17-.12-.29-.12h-.62c-.11,0-.21,.04-.28,.12-.08,.08-.11,.18-.11,.29v.27s-.02,.05-.06,.05h-1.56s-.05-.02-.03-.05c.04-.07,.09-.15,.13-.23,.04-.1,.05-.2,0-.3s-.11-.16-.21-.19l-.53-.15v-.02h6.45c.1,0,.2-.04,.28-.12,.08-.08,.12-.18,.12-.29v-3.63c0-.12-.04-.21-.12-.29-.08-.08-.17-.12-.28-.12h-7.09c-.11,0-.2,.04-.28,.12-.08,.08-.12,.18-.12,.29v3.63c0,.12,.04,.21,.12,.29,.08,.08,.17,.12,.28,.12h.09s.05,.02,.03,.05c-.37,.81-.89,1.53-1.58,2.14-.07,.06-.1,.14-.1,.22,0,.11,.04,.2,.12,.26,.17,.12,.33,.25,.51,.39,.09,.08,.19,.12,.31,.11s.21-.04,.29-.12c.25-.26,.5-.55,.74-.88,.02-.02,.05-.04,.08-.04h2.34s.06,.02,.06,.05v.63s-.02,.05-.06,.05h-2.52c-.11,0-.21,.04-.29,.12-.08,.08-.12,.18-.12,.3v.28c0,.12,.04,.21,.12,.29,.08,.08,.17,.12,.29,.12h2.52s.06,.02,.06,.06v.71s-.02,.05-.06,.05h-3.94c-.11,0-.21,.04-.29,.12-.08,.08-.12,.18-.12,.3v.4c0,.12,.04,.21,.12,.29,.08,.08,.17,.12,.29,.12h9.35c.11,0,.21-.04,.29-.12,.08-.08,.12-.18,.12-.29v-.4c0-.12-.04-.22-.12-.3-.08-.08-.17-.12-.29-.12Zm-7.28-8.12s.01-.05,.04-.05h5s.04,.02,.04,.05v.53s-.02,.06-.04,.06h-5s-.04-.02-.04-.06v-.53Zm0,1.64s.01-.05,.04-.05h5s.04,.02,.04,.05v.55s-.02,.05-.04,.05h-5s-.04-.02-.04-.05v-.55Z"/><path class="cls-1" d="M56.38,29.56h-18.42c-.22,0-.42,.11-.54,.29-.12,.18-.14,.41-.06,.61l1.2,2.91c.1,.24,.34,.4,.6,.4h1.16v3.71c0,.36,.29,.65,.65,.65h12.4c.36,0,.65-.29,.65-.65v-3.71h1.16c.26,0,.5-.16,.6-.4l1.2-2.91c.08-.2,.06-.43-.06-.61-.12-.18-.32-.29-.54-.29Zm-3.66,7.27h-11.1v-3.06h11.1v3.06Zm2.02-4.36h-15.15l-.67-1.61h16.48l-.67,1.61Z"/><path class="cls-1" d="M40.8,20.26c.1,.1,.15,.25,.13,.39l-.83,4.84c-.11,.66,.15,1.31,.69,1.7,.3,.22,.66,.33,1.02,.33,.28,0,.55-.07,.81-.2l4.34-2.29c.13-.07,.28-.07,.41,0l4.35,2.29c.59,.31,1.29,.26,1.83-.13,.54-.39,.81-1.05,.69-1.7l-.83-4.84c-.03-.14,.02-.29,.13-.39l3.51-3.43c.48-.47,.65-1.15,.44-1.78-.21-.64-.75-1.09-1.41-1.19l-4.86-.71c-.14-.02-.27-.11-.33-.24l-2.17-4.4c-.3-.6-.89-.97-1.56-.97s-1.27,.37-1.56,.97l-2.17,4.4c-.06,.13-.19,.22-.33,.24l-4.86,.71c-.66,.1-1.2,.55-1.41,1.19-.21,.63-.04,1.32,.44,1.78l3.52,3.43Zm-2.72-4.81c.03-.08,.11-.26,.36-.3l4.86-.71c.57-.08,1.06-.44,1.31-.95l2.17-4.4c.11-.22,.31-.25,.4-.25s.29,.02,.4,.25l2.17,4.4c.25,.51,.74,.87,1.31,.95l4.86,.71c.25,.04,.33,.22,.36,.3s.07,.28-.11,.45l-3.52,3.43c-.41,.4-.6,.98-.5,1.54l.83,4.84c.04,.24-.11,.38-.17,.43-.07,.05-.24,.15-.46,.03l-4.35-2.29c-.51-.27-1.11-.27-1.62,0l-4.35,2.29c-.22,.12-.4,.01-.46-.03-.07-.05-.22-.19-.17-.43l.83-4.84c.1-.57-.09-1.14-.5-1.54l-3.52-3.43c-.18-.17-.14-.37-.11-.45Z"/><path class="cls-1" d="M59.4,18.19h.58c.36,0,.65-.29,.65-.65s-.29-.65-.65-.65h-.58c-.36,0-.65,.29-.65,.65s.29,.65,.65,.65Z"/><path class="cls-1" d="M56.33,24.97c-.25,.25-.25,.67,0,.92l.87,.87c.13,.13,.29,.19,.46,.19s.33-.06,.46-.19c.25-.25,.25-.67,0-.92l-.87-.87c-.25-.26-.67-.25-.92,0Z"/><path class="cls-1" d="M55.72,9.74c.17,0,.33-.06,.46-.19l.89-.89c.25-.25,.25-.67,0-.92s-.67-.25-.92,0l-.89,.89c-.25,.25-.25,.67,0,.92,.13,.13,.29,.19,.46,.19Z"/><path class="cls-1" d="M34.36,18.19h.58c.36,0,.65-.29,.65-.65s-.29-.65-.65-.65h-.58c-.36,0-.65,.29-.65,.65s.29,.65,.65,.65Z"/><path class="cls-1" d="M36.68,26.95c.17,0,.33-.06,.46-.19l.87-.87c.25-.25,.25-.67,0-.92s-.67-.25-.92,0l-.87,.87c-.25,.25-.25,.67,0,.92,.13,.13,.29,.19,.46,.19Z"/><path class="cls-1" d="M38.16,9.55c.13,.13,.29,.19,.46,.19s.33-.06,.46-.19c.25-.25,.25-.67,0-.92l-.89-.89c-.25-.25-.67-.25-.92,0s-.25,.67,0,.92l.89,.89Z"/><path class="cls-1" d="M23.28,61.76c0,.28,.22,.5,.5,.5h46.78c.28,0,.5-.22,.5-.5s-.22-.5-.5-.5H23.78c-.28,0-.5,.22-.5,.5Z"/><path class="cls-1" d="M34.2,37.1c0-.28-.22-.5-.5-.5h-15.3c-.28,0-.5,.22-.5,.5s.22,.5,.5,.5h15.3c.28,0,.5-.22,.5-.5Z"/><path class="cls-1" d="M75.93,36.6h-15.3c-.28,0-.5,.22-.5,.5s.22,.5,.5,.5h15.3c.28,0,.5-.22,.5-.5s-.22-.5-.5-.5Z"/></g></g></svg>