<?xml version="1.0" encoding="UTF-8"?><svg xmlns="http://www.w3.org/2000/svg" xmlns:xlink="http://www.w3.org/1999/xlink" viewBox="0 0 94.34 94.34"><defs><style>.cls-1{fill:#f8b500;}.cls-2,.cls-3{fill:#fff;}.cls-4{mix-blend-mode:multiply;}.cls-3{fill-rule:evenodd;}.cls-5{fill:url(#_命名漸層_2);}.cls-6{isolation:isolate;}</style><linearGradient id="_命名漸層_2" x1="23.58" y1="6.31" x2="70.76" y2="88.03" gradientTransform="matrix(1, 0, 0, 1, 0, 0)" gradientUnits="userSpaceOnUse"><stop offset="0" stop-color="#fff" stop-opacity="0"/><stop offset="1" stop-color="#cd965a"/></linearGradient></defs><g class="cls-6"><g id="_層_2"><g id="_層_3"><circle class="cls-1" cx="47.17" cy="47.17" r="47.17"/><g class="cls-4"><circle class="cls-5" cx="47.17" cy="47.17" r="47.17"/></g></g><g id="_層_4"><g><path class="cls-3" d="M29.92,72.6s-.03-.04,0-.06c.16-.09,.32-.19,.47-.29,.09-.06,.14-.15,.15-.25,.01-.1-.02-.19-.09-.27l-.42-.49s-.05-.05-.08-.07c-.06-.04-.13-.06-.2-.07-.12-.02-.22,0-.31,.07-1.14,.79-2.28,1.28-3.42,1.47-.09,.02-.16,.07-.21,.15-.05,.08-.06,.17-.02,.27,.07,.19,.13,.4,.2,.64,.04,.11,.1,.19,.19,.25,.09,.06,.19,.08,.3,.05,.65-.16,1.33-.4,2.02-.73,.04-.01,.07,0,.09,0l1.92,1.33s.04,.05,.01,.08l-.72,1.03s-.05,.04-.08,.01l-2.37-1.64c-.09-.06-.18-.08-.29-.06s-.19,.07-.25,.16l-1.45,2.09s-.04,.03-.07,0l-1.11-.77c-.09-.06-.19-.09-.3-.07s-.19,.08-.26,.17l-.29,.41c-.06,.09-.08,.19-.07,.3s.08,.19,.17,.26l3.84,2.66s.04,.04,.02,.07l-1.14,1.65c-.06,.09-.08,.18-.06,.29,.02,.11,.07,.19,.16,.25l.5,.35c.09,.06,.19,.09,.3,.07,.11-.02,.19-.07,.25-.16l1.14-1.65s.04-.03,.06-.01l2.83,1.96c.09,.06,.19,.08,.3,.07,.11-.02,.19-.08,.26-.17l.29-.41c.06-.09,.09-.19,.07-.3-.02-.11-.08-.19-.17-.26l-2.83-1.96s-.03-.04-.01-.06l.93-1.34s.04-.03,.06-.01l2.11,1.46c.08,.06,.18,.08,.29,.06s.19-.08,.26-.17l.27-.38c.06-.09,.08-.18,.06-.29s-.07-.19-.16-.25l-2.11-1.46s-.03-.04,0-.07l.72-1.03s.04-.04,.07-.02l2.32,1.61c.09,.06,.19,.09,.3,.07,.11-.02,.19-.07,.25-.16l.3-.43c.06-.09,.09-.19,.07-.3-.02-.11-.08-.19-.17-.26l-4.92-3.41Zm-1.79,5.59s-.04,.03-.07,0l-1.54-1.06s-.03-.04-.01-.06l.93-1.34s.04-.03,.06-.01l1.54,1.07s.04,.04,.02,.07l-.93,1.34Z"/><path class="cls-3" d="M46.3,78.16l-3.55-.57s-.05-.03-.05-.06l.09-.56c.02-.11,0-.21-.07-.29-.07-.09-.15-.14-.25-.15l-.62-.1c-.11-.02-.21,0-.3,.06-.09,.06-.14,.15-.16,.26l-.09,.56s-.02,.05-.05,.05l-3.57-.58c-.1-.02-.2,0-.29,.07-.09,.06-.14,.15-.16,.25l-.45,2.77c-.08,.47-.15,.89-.23,1.26-.08,.37-.18,.8-.31,1.29-.13,.49-.29,.95-.48,1.38-.19,.44-.41,.82-.65,1.17-.03,.05-.05,.11-.06,.17,0,.04,0,.08,0,.12,.01,.11,.06,.19,.15,.26,.14,.12,.27,.24,.4,.37,.07,.08,.16,.12,.26,.12,.1,0,.18-.04,.24-.12,.89-1.25,1.54-3.19,1.96-5.8l.31-1.91s.03-.05,.06-.05l7.67,1.24c.11,.02,.21,0,.3-.06s.14-.15,.16-.26l.07-.42c.02-.1,0-.2-.07-.29-.06-.09-.15-.14-.26-.16Z"/><path class="cls-3" d="M45.9,80.28l-1.18-.19s-.05-.02-.05-.05l.05-.31c.02-.1,0-.2-.07-.29-.06-.09-.15-.14-.25-.16l-.55-.09c-.11-.02-.21,0-.3,.07-.09,.06-.14,.15-.16,.25l-.05,.31s-.02,.04-.05,.04l-1.96-.32s-.04-.02-.04-.05l.05-.31c.02-.1,0-.2-.07-.29-.06-.09-.15-.14-.26-.16l-.47-.08c-.11-.02-.21,0-.3,.07-.09,.06-.14,.15-.16,.25l-.05,.31s-.02,.04-.05,.04l-1.08-.17c-.11-.02-.21,0-.3,.07-.09,.06-.14,.15-.16,.26l-.04,.28c-.02,.11,0,.21,.07,.3,.06,.09,.15,.14,.26,.16l1.08,.17s.04,.02,.04,.05l-.21,1.32c-.02,.11,0,.21,.07,.29,.07,.09,.15,.14,.26,.16l3.86,.62c.1,.02,.2,0,.29-.07,.09-.06,.14-.15,.16-.26l.21-1.32s.03-.04,.06-.04l1.17,.19c.11,.02,.21,0,.3-.07,.09-.06,.14-.15,.16-.26l.04-.27c.02-.11,0-.21-.07-.3-.06-.09-.15-.14-.26-.16Zm-2.84,1.34s-.02,.04-.05,.04l-1.96-.32s-.04-.02-.04-.05l.1-.65s.02-.04,.05-.04l1.96,.32s.04,.02,.04,.05l-.1,.65Z"/><path class="cls-3" d="M45.18,86.53c-.86-.24-1.61-.5-2.26-.8-.01,0-.02,0-.02-.02s0-.02,.02-.03c.8-.37,1.46-.87,1.98-1.49,.07-.08,.1-.17,.08-.28-.02-.11-.07-.2-.16-.26l-.27-.19c-.07-.06-.16-.09-.25-.11-.04,0-.09,0-.14,0-.02,0-.04,0-.05,0l-5.65-.91c-.11-.02-.21,0-.3,.07s-.14,.15-.16,.26l-.04,.26c-.02,.11,0,.21,.07,.3,.06,.09,.15,.14,.26,.16l1.23,.2s.01,0,0,.01l-.13,.02c-.09,.01-.16,.07-.21,.16-.04,.09-.04,.18,.01,.26,.24,.38,.53,.74,.86,1.08,0,0,0,.02,0,.03,0,.01-.01,.02-.02,.01-.75,.09-1.6,.11-2.54,.05-.09,0-.16,.03-.22,.1-.02,.04-.04,.08-.04,.12,0,.04,0,.08,.01,.13,.05,.15,.09,.3,.13,.46,.03,.11,.08,.2,.17,.28s.19,.12,.3,.11c1.29,.03,2.43-.06,3.39-.27,.03-.01,.06,0,.09,.01,.8,.52,1.75,.95,2.86,1.3,.04,.01,.07,.02,.1,.03,.2,.03,.38-.04,.53-.22,.14-.16,.28-.31,.42-.45,.04-.04,.07-.08,.08-.12,0-.02,0-.05,0-.08-.02-.09-.06-.14-.14-.16Zm-3.66-1.61c-.47-.35-.83-.7-1.09-1.07,0,0,0-.02,0-.02s.01,0,.02,0l2.57,.42s.01,0,.01,.01c0,0,0,.01,0,.02-.41,.28-.88,.5-1.41,.66-.03,0-.06,0-.09-.01Z"/><path class="cls-3" d="M57.65,82.05c-.02-.11-.08-.19-.17-.25-.09-.06-.19-.08-.3-.06l-6.58,1.23c-.11,.02-.2,.08-.26,.16-.06,.09-.08,.19-.06,.29l.67,3.61c.02,.1,.07,.18,.17,.25s.19,.08,.3,.06l.51-.1c.11-.02,.2-.08,.26-.17s.08-.19,.06-.29l-.25-1.36s0-.06,.03-.06l4.66-.87s.05,.01,.05,.05l.11,.57c.01,.07,0,.11-.03,.14-.03,.03-.08,.05-.16,.08-.01,0-.08,.01-.18,.03l-.28,.05c-.08,.02-.2,.04-.33,.06-.09,.02-.15,.07-.18,.15-.03,.08-.03,.16,.03,.23,.06,.09,.12,.17,.17,.26,.06,.1,.14,.18,.24,.23,.1,.05,.21,.07,.32,.05,.66-.12,1.11-.26,1.37-.41,.19-.13,.31-.27,.36-.44s.05-.39,0-.68l-.53-2.82Zm-4.2,2.06l-1.6,.3s-.05,0-.05-.04l-.12-.62s0-.05,.04-.05l1.6-.3s.06,0,.06,.03l.12,.62s0,.05-.05,.05Zm3.06-.57l-1.71,.32s-.06,0-.06-.03l-.12-.62s0-.05,.05-.05l1.71-.32s.05,0,.05,.04l.12,.62s0,.05-.04,.05Z"/><path class="cls-3" d="M50.36,78.38l.02,.12c.02,.1,.07,.18,.17,.25,.09,.06,.19,.08,.3,.06l.53-.1c.1-.02,.18-.07,.25-.17,.06-.09,.08-.19,.07-.29l-.02-.12s0-.06,.04-.07l2.55-.48s.06,0,.06,.04l.02,.12c.02,.1,.07,.18,.17,.25,.09,.06,.19,.08,.29,.06l.53-.1c.11-.02,.2-.08,.26-.17,.06-.09,.08-.19,.06-.29l-.02-.12s0-.06,.03-.06l1.94-.36c.11-.02,.2-.08,.26-.17,.06-.09,.08-.19,.07-.29l-.05-.27c-.02-.1-.07-.18-.17-.25s-.19-.08-.3-.06l-1.94,.36s-.05,0-.05-.05v-.07c-.03-.11-.09-.19-.18-.25s-.19-.08-.3-.06l-.53,.1c-.1,.02-.18,.07-.25,.16-.06,.09-.08,.19-.06,.29v.07s0,.06-.03,.06l-2.55,.48s-.06,0-.07-.04v-.07c-.03-.11-.09-.19-.18-.25-.09-.06-.19-.08-.29-.06l-.52,.1c-.11,.02-.2,.07-.26,.16-.06,.09-.08,.18-.06,.29v.07s0,.06-.02,.06l-1.86,.35c-.11,.02-.2,.08-.26,.17-.06,.09-.08,.19-.06,.29l.05,.27c.02,.1,.07,.18,.17,.25s.19,.08,.3,.06l1.86-.35s.05,0,.05,.05Z"/><path class="cls-3" d="M58.55,80.28c-.09-.06-.19-.08-.3-.06l-3.96,.74s-.06,0-.06-.04l-.05-.28s0-.06,.04-.07l2.94-.55c.11-.02,.19-.08,.26-.17s.08-.19,.07-.29v-.04c-.03-.11-.08-.2-.18-.26-.09-.06-.19-.08-.3-.06l-2.94,.55s-.06,0-.06-.03l-.05-.27s0-.05,.05-.05l3.34-.62c.11-.02,.19-.08,.25-.17,.06-.09,.08-.19,.06-.3l-.02-.11c-.02-.11-.07-.19-.16-.25-.09-.06-.18-.08-.29-.06l-3.34,.62s-.06,0-.07-.04h0c-.02-.11-.07-.2-.16-.26-.09-.06-.19-.08-.29-.06l-.53,.1c-.11,.02-.19,.08-.25,.17-.06,.09-.08,.19-.06,.29h0s0,.07-.04,.08l-3.18,.59c-.1,.02-.18,.07-.25,.16-.06,.09-.08,.19-.06,.29l.02,.11c.02,.11,.08,.2,.17,.26,.09,.06,.19,.08,.29,.07l3.18-.59s.06,0,.06,.03l.05,.27s0,.05-.05,.05l-2.79,.52c-.11,.02-.19,.08-.25,.17s-.08,.19-.06,.3v.04c.03,.1,.08,.18,.17,.25,.09,.06,.19,.08,.29,.06l2.79-.52s.06,0,.07,.04l.05,.28s0,.06-.04,.06l-3.87,.72c-.11,.02-.2,.08-.26,.17s-.08,.19-.06,.29l.03,.14c.02,.11,.08,.2,.17,.26,.09,.06,.19,.08,.3,.06l9.23-1.72c.11-.02,.2-.08,.26-.17,.06-.09,.08-.19,.06-.3l-.03-.14c-.02-.1-.07-.18-.17-.25Z"/><path class="cls-3" d="M62.39,77.69c.11,.01,.21-.01,.29-.08l4.77-3.45c.08-.06,.14-.14,.16-.25s0-.2-.07-.29l-1.96-2.7c-.07-.09-.15-.14-.26-.16-.11-.01-.2,0-.29,.07l-4.77,3.45c-.09,.07-.14,.15-.16,.26-.02,.11,0,.2,.07,.29l1.96,2.7c.07,.09,.15,.14,.26,.16Zm-.59-2.93l3.15-2.28s.05-.01,.07,.02l.84,1.16s.02,.05,0,.07l-3.15,2.29s-.05,.01-.07-.02l-.84-1.16s-.02-.05,0-.07Z"/><path class="cls-3" d="M65.39,77.32c-.07-.09-.15-.14-.26-.16s-.21,0-.3,.07l-2.87,2.08c-.08,.06-.13,.15-.15,.25-.02,.11,0,.21,.07,.3l2.55,3.51c.06,.08,.15,.13,.25,.15,.11,.02,.21,0,.29-.06l.41-.29c.09-.07,.14-.15,.16-.26,.01-.11,0-.2-.07-.29l-.08-.11s-.01-.05,.02-.07l1.3-.94s.04-.01,.06,.01l.04,.05c.07,.09,.15,.14,.26,.16,.11,.02,.21,0,.3-.07l.45-.33c.09-.07,.14-.15,.16-.26,.02-.11,0-.21-.07-.3l-2.51-3.46Zm.54,3.14l-1.3,.94s-.05,.02-.07,0l-1.09-1.5s-.02-.06,.01-.08l1.3-.94s.05-.01,.07,.02l1.09,1.5s.01,.04,0,.06Z"/><path class="cls-3" d="M69.8,74.13c-.07-.09-.15-.15-.26-.17-.11-.02-.2,0-.29,.07l-2.99,2.17c-.08,.06-.13,.15-.15,.25-.02,.11,0,.21,.07,.3l2.55,3.51c.06,.08,.15,.13,.25,.15,.11,.02,.21,0,.29-.07l.41-.3c.09-.07,.14-.15,.16-.26,.02-.11,0-.21-.07-.29l-.08-.11s-.01-.04,0-.06l1.39-1.01s.04-.01,.06,.01l.05,.06c.06,.09,.15,.14,.26,.16,.11,.02,.21,0,.3-.07l.47-.34c.09-.07,.14-.15,.16-.26,.01-.11-.01-.21-.08-.29l-2.51-3.47Zm.53,3.14l-1.39,1s-.04,.01-.06,0l-1.09-1.5s-.02-.05,0-.07l1.39-1s.05-.01,.07,.02l1.09,1.5s.01,.04,0,.06Z"/><path class="cls-3" d="M40.34,48.51c0-1.05-.85-1.9-1.9-1.9s-1.9,.85-1.9,1.9,.85,1.9,1.9,1.9,1.9-.85,1.9-1.9Z"/><circle class="cls-2" cx="55.9" cy="48.51" r="1.9"/><path class="cls-3" d="M51.75,56.9v-5.05c0-2.52-2.06-4.58-4.58-4.58h0c-2.52,0-4.58,2.06-4.58,4.58v5.05c0,2.52,2.06,4.58,4.58,4.58h0c2.52,0,4.58-2.06,4.58-4.58Z"/><path class="cls-3" d="M42.75,26.42c-.47,.23-.66,.79-.44,1.26,.23,.47,.79,.66,1.26,.44s.66-.79,.44-1.26c-.23-.47-.79-.66-1.26-.44Z"/><path class="cls-3" d="M51.36,24.34c.47-.23,.66-.79,.44-1.26-.23-.47-.79-.66-1.26-.44-.47,.23-.66,.79-.44,1.26,.23,.47,.79,.66,1.26,.44Z"/><path class="cls-3" d="M46.88,24.78l-.18,.09c-1.07,.52-1.53,1.82-1.01,2.9l.91,1.88c.52,1.07,1.82,1.53,2.9,1.01l.18-.09c1.07-.52,1.53-1.82,1.01-2.9l-.91-1.88c-.52-1.07-1.82-1.53-2.9-1.01Z"/><path class="cls-3" d="M66.17,24c.7,0,1.38,.08,2.04,.23,4.15,.93,7.27,4.64,7.27,9.07,0,5.13-4.17,9.31-9.24,9.31-.9-.06-1.72,.65-1.72,1.54s.66,1.54,1.51,1.54c.04,0,.11,0,.15,0,.22,0,.43-.02,.65-.03,2.61-.14,5.01-1.08,6.95-2.59,2.91-2.27,4.79-5.8,4.79-9.77,0-6.83-5.56-12.39-12.39-12.39-.12,0-.25,.01-.37,.01-1.22-1.34-2.81-2.65-4.73-3.33-.72-.25-1.45-.39-2.17-.44,0-.03,.02-.05,.03-.08,.61-1.75,.5-3.62-.31-5.28-1.66-3.43-5.81-4.87-9.24-3.21-2.15,1.04-3.56,3.12-3.83,5.44-3.01,.66-5.23,2.13-6.45,3.12-1.99-1.23-4.51-1.39-6.66-.35-1.78,.86-3.02,2.39-3.57,4.15-.23-.01-.46-.03-.7-.03-6.83,0-12.39,5.56-12.39,12.39,0,6.26,4.67,11.44,10.7,12.26l-.39,3.27c-1,6.86,2.19,13.65,8.33,17.7,.26,.17,.56,.26,.85,.26,.5,0,.99-.24,1.29-.69,.47-.71,.27-1.67-.44-2.14-5.13-3.39-7.8-9.01-6.97-14.71l.48-3.96c.04-.29,.09-.57,.14-.85,.15-.84-.4-1.64-1.24-1.8-.12-.02-.24-.03-.35-.02h0c-5.13,0-9.3-4.18-9.3-9.31s4.17-9.31,9.31-9.31c.15,0,.3,.01,.44,.02,.1,.68,.3,1.36,.62,2.02,.81,1.66,2.21,2.91,3.95,3.52,.74,.26,1.51,.39,2.27,.39,.44,0,.88-.05,1.31-.14,.04,.09,.08,.19,.12,.28,.04,.12,.11,.23,.18,.33l.07,.21c.84,2.65,2.74,4.73,5.36,5.86,1.35,.58,2.8,.87,4.29,.87,1.82,0,3.68-.43,5.44-1.28,.77-.37,1.09-1.3,.71-2.06-.37-.77-1.3-1.08-2.06-.71-2.39,1.16-5,1.29-7.16,.36-1.78-.77-3.08-2.17-3.65-3.99l-.64-1.85c-.04-.13-.08-.26-.11-.39-.13-.46-.45-.8-.85-.99-.32-.15-.68-.19-1.05-.09-.08,.02-.16,.06-.23,.09h0s-.03,.01-.05,.02h-.02l-.03,.02c-.75,.36-1.56,.44-2.32,.3-1.08-.2-2.06-.86-2.64-1.87-.04-.07-.09-.14-.13-.21-.5-1.04-.48-2.19-.06-3.17,.35-.82,.97-1.52,1.83-1.94,1.43-.69,3.17-.42,4.32,.69,.3,.28,.66,.41,1.11,.43,.41-.01,.8-.19,1.09-.49,.03-.03,2.69-2.81,6.93-3.34h0c.83-.11,1.43-.85,1.34-1.68-.15-1.59,.7-3.12,2.14-3.82,1.9-.92,4.2-.12,5.12,1.78,.45,.92,.51,1.96,.17,2.93-.33,.96-1.01,1.73-1.92,2.18-.04,.02-.09,.04-.13,.06-.75,.4-1.03,1.34-.63,2.09,.28,.52,.81,.81,1.36,.81,.22,0,.45-.05,.67-.15l.04-.02c.1-.05,.19-.1,.29-.16,.03-.01,.05-.02,.08-.03,1.47-.71,2.87-.82,4.26-.34,.73,.25,1.4,.65,2.01,1.12-3.4,1.21-6.2,3.88-7.49,7.38-.3,.8,.11,1.69,.91,1.98,.8,.3,1.69-.11,1.98-.91,1.15-3.1,3.86-5.32,7.02-5.92,.55-.1,1.12-.16,1.7-.16Z"/><path class="cls-3" d="M75.35,69.49c-.06,.03-.12,.06-.18,.09,.41-.5,.84-1.19,1.24-2.17,.67-1.63,.51-3.53-.09-5.18-.98,1.47-1.95,2.96-2.67,4.58-.94,2.13-.17,3.99-.17,3.99h0s.73,.66,1.33,.9c1.3,.52,2.99,.3,4.11-.03,1.77-.53,3.33-1.57,4.87-2.59-2.73-.93-5.87-.88-8.45,.41Z"/><path class="cls-3" d="M81.36,64c.21-.55,.39-1.28,.46-2.23,.13-1.65-.55-3.3-1.56-4.61-.46,1.6-.9,3.21-1.08,4.86-.22,2.05,.85,3.45,.98,3.6h.01v.02h0c.12,.05,.87,.36,1.43,.4,1.31,.09,2.76-.58,3.67-1.2,1.43-.98,2.54-2.36,3.62-3.71-2.71-.05-5.51,.89-7.45,2.78-.03,.03-.06,.06-.08,.09Z"/><path class="cls-3" d="M85.41,57.18s-.05,.09-.07,.14c.03-.59-.03-1.33-.25-2.26-.39-1.58-1.54-2.93-2.89-3.84,.06,1.64,.15,3.29,.49,4.89,.45,2.08,1.99,3.05,2.05,3.08h0c.07,0,.92,.08,1.47-.06,1.26-.32,2.41-1.4,3.07-2.26,1.04-1.36,1.65-2.99,2.25-4.6-2.56,.79-4.89,2.54-6.12,4.91Z"/><path class="cls-3" d="M86.99,50.14c-.14-.52-.39-1.16-.85-1.91-.77-1.28-2.15-2.13-3.58-2.55,.51,1.41,1.04,2.83,1.78,4.13,.98,1.72,2.64,2.13,2.64,2.13h0s.82-.19,1.27-.47c1.01-.63,1.72-1.89,2.05-2.82,.53-1.48,.62-3.07,.7-4.63-2.01,1.39-3.57,3.57-3.99,5.98,0,.05-.02,.1-.02,.15Z"/><path class="cls-3" d="M87.01,44.5h.02c.11-.07,.78-.42,1.13-.79,.84-.89,1.22-2.32,1.31-3.33,.14-1.6-.18-3.21-.5-4.79-1.64,1.91-2.63,4.47-2.42,6.97,0,.04,0,.08,.01,.12-.27-.48-.68-1.04-1.32-1.65-1.1-1.07-2.69-1.56-4.22-1.61,.87,1.27,1.76,2.54,2.84,3.65,1.34,1.37,2.97,1.43,3.16,1.44Z"/><path class="cls-3" d="M84.75,38.8s.42-.7,.53-1.22c.23-1.15-.19-2.49-.63-3.36-.7-1.37-1.78-2.5-2.84-3.62-.36,2.38,.14,4.95,1.58,6.87,.6,.8,1.36,1.33,1.36,1.33Z"/><path class="cls-3" d="M18.02,62.23c-.6,1.65-.76,3.55-.09,5.18,.4,.98,.83,1.68,1.24,2.17-.06-.03-.12-.06-.18-.09-2.58-1.29-5.72-1.34-8.45-.41,1.54,1.02,3.11,2.05,4.87,2.59,1.12,.34,2.8,.55,4.11,.03,.6-.24,1.33-.88,1.33-.88l-.02-.02h.02s.77-1.85-.17-3.99c-.71-1.62-1.68-3.11-2.67-4.58Z"/><path class="cls-3" d="M12.74,66.05c.55-.04,1.3-.35,1.43-.4h.02c.13-.17,1.2-1.57,.98-3.62-.18-1.65-.62-3.26-1.08-4.86-1.01,1.31-1.69,2.96-1.56,4.61,.08,.95,.25,1.67,.46,2.23-.03-.03-.06-.06-.08-.09-1.94-1.89-4.74-2.83-7.45-2.78,1.09,1.35,2.19,2.73,3.62,3.71,.91,.62,2.35,1.3,3.67,1.2Z"/><path class="cls-3" d="M8.12,59.13c.56,.14,1.41,.07,1.47,.06h0c.06-.04,1.6-1.01,2.05-3.09,.35-1.6,.43-3.25,.49-4.89-1.35,.91-2.51,2.25-2.89,3.84-.23,.93-.28,1.67-.25,2.26-.02-.05-.04-.09-.07-.14-1.23-2.37-3.57-4.12-6.12-4.91,.6,1.6,1.21,3.23,2.25,4.6,.66,.86,1.8,1.94,3.07,2.26Z"/><path class="cls-3" d="M6.08,51.47c.45,.28,1.22,.45,1.27,.46h0s1.66-.4,2.64-2.12c.74-1.31,1.27-2.72,1.78-4.13-1.43,.42-2.81,1.28-3.58,2.55-.46,.75-.71,1.39-.85,1.91,0-.05-.01-.1-.02-.15-.42-2.41-1.98-4.58-3.99-5.98,.08,1.57,.17,3.16,.7,4.63,.34,.94,1.04,2.19,2.05,2.82Z"/><path class="cls-3" d="M6.17,43.71c.35,.37,1.02,.72,1.13,.78h.02c.19,0,1.82-.06,3.16-1.43,1.08-1.1,1.97-2.38,2.84-3.65-1.53,.05-3.12,.54-4.22,1.61-.63,.62-1.05,1.17-1.32,1.65,0-.04,0-.08,.01-.12,.2-2.5-.78-5.07-2.42-6.97-.32,1.58-.65,3.18-.5,4.79,.09,1.02,.47,2.45,1.31,3.33Z"/><path class="cls-3" d="M9.58,38.8s.77-.53,1.36-1.33c1.43-1.92,1.94-4.5,1.58-6.87-1.06,1.11-2.14,2.25-2.84,3.62-.44,.87-.87,2.22-.63,3.36,.11,.53,.53,1.22,.53,1.22Z"/></g></g></g></g></svg>