<svg width="60" height="60" viewBox="0 0 60 60" fill="none" xmlns="http://www.w3.org/2000/svg">
<path d="M42.03 19.25C42.67 19.25 43.18 18.73 43.18 18.1V17.34C43.18 16.7 42.66 16.19 42.03 16.19C41.4 16.19 40.88 16.71 40.88 17.34V18.1C40.88 18.74 41.4 19.25 42.03 19.25Z" fill="#363636"/>
<path d="M51.79 39.96C51.67 39.92 51.54 39.9 51.41 39.9C50.92 39.9 50.48 40.21 50.32 40.68C48.47 46.06 41.06 49.14 30 49.14C18.94 49.14 11.36 45.99 9.69 40.71C9.54 40.23 9.1 39.9 8.59 39.9C8.47 39.9 8.36 39.92 8.24 39.95C7.95 40.04 7.71 40.24 7.56 40.52C7.42 40.79 7.39 41.11 7.48 41.4C9.5 47.78 17.7 51.44 29.99 51.44C42.28 51.44 50.29 47.79 52.49 41.42C52.7 40.82 52.38 40.16 51.78 39.95L51.79 39.96ZM8.32 40.18C8.41 40.15 8.5 40.14 8.59 40.14C8.61 40.14 8.62 40.14 8.64 40.14C8.53 40.14 8.42 40.14 8.32 40.17V40.18ZM9.47 40.78C9.43 40.67 9.38 40.57 9.31 40.49C9.38 40.58 9.44 40.67 9.47 40.78C9.68 41.45 9.99 42.09 10.38 42.7C9.99 42.1 9.68 41.46 9.47 40.78ZM50.55 40.76C50.12 42 49.4 43.12 48.42 44.12C49.4 43.13 50.13 42.01 50.55 40.76C50.59 40.65 50.65 40.56 50.72 40.47C50.65 40.55 50.59 40.65 50.55 40.76ZM51.38 40.15C51.38 40.15 51.4 40.15 51.42 40.15C51.52 40.15 51.62 40.17 51.72 40.2C51.61 40.16 51.5 40.15 51.39 40.16L51.38 40.15Z" fill="#363636"/>
<path d="M18.89 46.03C19.53 46.03 20.04 45.51 20.04 44.88C20.04 39.74 24.13 36.15 30 36.15C35.87 36.15 39.96 39.74 39.96 44.88C39.96 45.52 40.48 46.03 41.11 46.03C41.74 46.03 42.26 45.51 42.26 44.88C42.26 38.38 37.22 33.84 30 33.84C22.78 33.84 17.74 38.38 17.74 44.88C17.74 45.52 18.26 46.03 18.89 46.03V46.03ZM41.11 45.79C41.35 45.79 41.56 45.69 41.72 45.54C41.56 45.69 41.34 45.79 41.11 45.79C40.83 45.79 40.57 45.66 40.4 45.46C40.57 45.66 40.82 45.79 41.11 45.79ZM33.17 36.28C32.19 36.03 31.13 35.9 30 35.9C31.13 35.9 32.19 36.03 33.17 36.28ZM18.89 45.79C19.13 45.79 19.34 45.69 19.5 45.54C19.34 45.69 19.12 45.79 18.89 45.79C18.51 45.79 18.18 45.56 18.05 45.23C18.19 45.56 18.52 45.79 18.89 45.79Z" fill="#363636"/>
<path d="M18.02 26.99C17.94 26.97 17.86 26.96 17.78 26.96C17.24 26.96 16.77 27.35 16.65 27.88L13.47 43.04C13.34 43.66 13.74 44.27 14.36 44.4C14.44 44.42 14.52 44.42 14.6 44.42C15.14 44.42 15.62 44.03 15.73 43.5L18.91 28.34C19.04 27.72 18.64 27.11 18.02 26.98V26.99ZM13.71 43.09C13.63 43.46 13.79 43.83 14.08 44.03C13.79 43.83 13.63 43.46 13.71 43.09L16.22 31.1L13.71 43.09V43.09ZM17.68 27.22C17.68 27.22 17.75 27.2 17.78 27.2C17.84 27.2 17.91 27.2 17.97 27.22C17.87 27.2 17.77 27.21 17.68 27.22V27.22Z" fill="#363636"/>
<path d="M10.12 34.92C10.25 34.92 10.38 34.9 10.51 34.85C10.68 34.79 14.73 33.26 15.53 26.63C15.74 24.93 17.2 23.65 18.93 23.65H22.14C22.42 30.96 25.51 31.56 29.21 31.56C32.91 31.56 35.66 30.91 35.66 22.5V16.7C35.66 13.95 37.64 11.54 40.31 10.99L40.25 13.47C40.24 14 40.58 14.47 41.09 14.61L48.57 16.73C49 16.87 49.42 17.15 49.42 18.83C49.42 19.99 48.25 21.04 46.96 21.04H46.9L41.12 21.36C40.79 21.38 40.48 21.54 40.27 21.81C40.06 22.08 39.99 22.42 40.05 22.74L44.29 43.52C44.4 44.05 44.87 44.44 45.42 44.44C45.5 44.44 45.58 44.44 45.65 44.42C45.95 44.36 46.21 44.18 46.38 43.93C46.55 43.67 46.61 43.37 46.55 43.06L42.58 23.59L47 23.34C49.51 23.32 51.73 21.21 51.73 18.82C51.73 17.86 51.73 15.33 49.24 14.52L42.58 12.63L42.65 9.74C42.65 9.43 42.54 9.13 42.32 8.91C42.1 8.69 41.8 8.56 41.49 8.56C37 8.56 33.35 12.21 33.35 16.7V21.35H18.93C16.03 21.35 13.59 23.5 13.24 26.36C12.62 31.52 9.83999 32.65 9.71999 32.69C9.12999 32.91 8.81999 33.57 9.03999 34.16C9.19999 34.62 9.63999 34.93 10.13 34.93L10.12 34.92ZM40.43 21.94C40.43 21.94 40.52 21.86 40.57 21.83C40.52 21.87 40.47 21.9 40.43 21.94C40.27 22.15 40.21 22.42 40.26 22.68C40.21 22.42 40.27 22.15 40.43 21.94ZM42.27 23.36L46.71 23.11L42.27 23.36ZM46.89 21.27L44 21.43L46.89 21.27C46.89 21.27 46.92 21.27 46.94 21.27C46.92 21.27 46.91 21.27 46.89 21.27ZM40.52 13.78C40.61 14.07 40.84 14.3 41.14 14.38L48.62 16.5L41.14 14.38C40.84 14.29 40.61 14.06 40.52 13.78C40.49 13.68 40.47 13.58 40.48 13.48L40.55 10.71L40.48 13.48C40.48 13.58 40.49 13.69 40.52 13.78ZM22.37 23.43C22.38 23.89 22.41 24.32 22.44 24.72C22.41 24.31 22.38 23.88 22.37 23.43ZM23.56 28.99C23.83 29.45 24.13 29.82 24.48 30.12C24.14 29.82 23.83 29.45 23.56 28.99ZM29.22 29.27C26.39 29.27 24.66 29.27 24.46 23.67H33.35C33.2 29.27 31.94 29.27 29.22 29.27V29.27ZM32.4 28.75C32.58 28.56 32.74 28.32 32.88 28.03C32.74 28.33 32.58 28.56 32.4 28.75ZM33.38 26.25C33.5 25.5 33.57 24.57 33.59 23.44C33.57 24.58 33.49 25.5 33.38 26.25ZM18.95 21.6H33.61V16.71C33.61 15.74 33.78 14.82 34.1 13.96C34.26 13.53 34.46 13.12 34.68 12.73C34.45 13.12 34.26 13.53 34.1 13.96C33.78 14.82 33.61 15.74 33.61 16.71V21.6H18.95C18.6 21.6 18.26 21.63 17.93 21.69C18.26 21.63 18.6 21.6 18.95 21.6V21.6ZM9.27999 34.09C9.34999 34.28 9.46999 34.43 9.61999 34.53C9.46999 34.42 9.34999 34.27 9.27999 34.09ZM9.86999 34.66C9.95999 34.69 10.05 34.7 10.14 34.7C10.05 34.7 9.94999 34.69 9.86999 34.66ZM13.36 27.34C13.21 28.12 13.01 28.79 12.78 29.38C13.01 28.79 13.21 28.12 13.36 27.34ZM9.82999 32.92C9.82999 32.92 9.97999 32.86 10.17 32.75C9.97999 32.86 9.85999 32.91 9.82999 32.92C9.70999 32.96 9.60999 33.03 9.51999 33.11C9.60999 33.03 9.70999 32.96 9.82999 32.92Z" fill="#363636"/>
</svg>
