<svg width="60" height="60" viewBox="0 0 60 60" fill="none" xmlns="http://www.w3.org/2000/svg">
<path d="M41.64 7.92999H35.57C32.92 7.92999 30.77 10.08 30.77 12.73C30.77 15.38 32.92 17.53 35.57 17.53H38.41C38.94 17.53 39.37 17.96 39.37 18.49C39.37 21.46 36.95 23.88 33.98 23.88H26C23.03 23.88 20.61 21.46 20.61 18.49C20.61 17.96 21.04 17.53 21.57 17.53H24.41C27.06 17.53 29.21 15.38 29.21 12.73C29.21 10.08 27.06 7.92999 24.41 7.92999H18.34C13.53 7.92999 9.62 11.84 9.62 16.65V36.91C9.62 45.28 16.43 52.08 24.79 52.08H35.16C43.53 52.08 50.33 45.27 50.33 36.91V16.65C50.33 11.84 46.42 7.92999 41.61 7.92999H41.64ZM48.48 16.65V36.91C48.48 37.25 48.47 37.59 48.44 37.93C48.36 38.94 48.17 39.92 47.88 40.86C48.17 39.92 48.36 38.94 48.44 37.93C48.47 37.59 48.48 37.25 48.48 36.91V16.65C48.48 14.06 47.03 11.79 44.9 10.63C47.03 11.79 48.48 14.05 48.48 16.65ZM44.3 10.35C43.69 10.09 43.03 9.91999 42.34 9.84999C43.03 9.91999 43.69 10.09 44.3 10.35ZM38.98 17.15C39.24 17.26 39.47 17.45 39.62 17.68C39.78 17.91 39.87 18.2 39.87 18.5C39.87 18.8 39.85 19.1 39.8 19.4C39.84 19.11 39.87 18.81 39.87 18.5C39.87 18.19 39.78 17.92 39.62 17.68C39.46 17.45 39.24 17.26 38.98 17.15ZM38.87 21.79C38.61 22.18 38.3 22.53 37.95 22.84C38.29 22.53 38.61 22.18 38.87 21.79ZM23.85 25.44C23.4 25.3 22.96 25.11 22.55 24.89C22.96 25.11 23.4 25.3 23.85 25.44ZM20.85 17.24C21.07 17.11 21.31 17.04 21.58 17.04C21.31 17.04 21.07 17.12 20.85 17.24ZM26.06 10.31C25.71 10.07 25.31 9.90999 24.87 9.83999C25.31 9.90999 25.71 10.07 26.06 10.31ZM18.36 10.31H24.43C25.77 10.31 26.85 11.4 26.85 12.73C26.85 14.06 25.76 15.15 24.43 15.15H21.59C19.75 15.15 18.25 16.65 18.25 18.49C18.25 22.77 21.73 26.25 26.01 26.25H33.99C38.27 26.25 41.75 22.77 41.75 18.49C41.75 16.65 40.25 15.15 38.41 15.15H35.57C34.23 15.15 33.15 14.06 33.15 12.73C33.15 11.4 34.24 10.31 35.57 10.31H41.64C45.14 10.31 47.98 13.16 47.98 16.65V36.91C47.98 43.97 42.24 49.71 35.18 49.71H24.81C17.75 49.71 12.01 43.97 12.01 36.91V16.65C12.01 13.15 14.86 10.31 18.35 10.31H18.36ZM35.18 51.58H24.81C21.97 51.58 19.31 50.77 17.06 49.36C16.16 48.8 15.32 48.14 14.57 47.4C15.33 48.14 16.16 48.8 17.06 49.36C19.31 50.77 21.97 51.58 24.81 51.58H35.18C37.87 51.58 40.39 50.85 42.56 49.58C40.39 50.85 37.87 51.58 35.18 51.58ZM48.1 43.83C48.4 43.29 48.66 42.73 48.88 42.15C48.65 42.73 48.39 43.29 48.1 43.83Z" fill="#363636"/>
<path d="M29.38 44.28C29.57 44.39 29.78 44.46 30 44.46C30.22 44.46 30.43 44.4 30.62 44.29C37.63 40 37.87 36.01 37.84 35.26C37.83 32.78 35.68 30.77 33.06 30.77C31.7 30.77 30.64 31.45 30 32.02C29.35 31.45 28.3 30.77 26.94 30.77C24.32 30.77 22.17 32.78 22.16 35.26C22.14 35.7 22.18 39.88 29.38 44.3V44.28ZM30 43.96C29.88 43.96 29.75 43.93 29.64 43.86C29.75 43.93 29.87 43.96 30 43.96ZM30.08 43.94C30.18 43.93 30.27 43.91 30.36 43.86C30.27 43.91 30.18 43.93 30.08 43.94ZM35.91 34.74C35.83 34.4 35.68 34.08 35.47 33.8C35.68 34.08 35.83 34.4 35.91 34.74ZM30 34.49C30.23 34.49 30.45 34.37 30.57 34.18C30.44 34.37 30.23 34.49 30 34.49C29.88 34.49 29.77 34.46 29.67 34.41C29.77 34.46 29.88 34.49 30 34.49ZM24.53 35.27C24.53 34.09 25.61 33.14 26.94 33.14C27.76 33.14 28.58 33.81 29.01 34.47C29.23 34.8 29.6 35 30 35C30.4 35 30.77 34.8 30.99 34.47C31.43 33.81 32.24 33.14 33.06 33.14C34.39 33.14 35.46 34.1 35.46 35.27C35.46 35.28 35.46 35.34 35.46 35.36C35.46 35.36 35.44 38.33 29.99 41.87C24.55 38.33 24.52 35.37 24.52 35.34C24.52 35.34 24.52 35.3 24.52 35.27H24.53ZM25.61 40.78C24.63 39.81 23.97 38.91 23.53 38.13C23.97 38.91 24.63 39.81 25.61 40.78Z" fill="#363636"/>
<path d="M35.94 11.75C35.38 11.75 34.93 12.21 34.93 12.76C34.93 13.31 35.39 13.77 35.94 13.77C36.49 13.77 36.95 13.31 36.95 12.76C36.95 12.21 36.49 11.75 35.94 11.75Z" fill="#363636"/>
</svg>
