<svg width="60" height="60" viewBox="0 0 60 60" fill="none" xmlns="http://www.w3.org/2000/svg">
<path d="M53.18 24.01C52.75 21.02 51.17 18.38 48.75 16.57C46.78 15.1 44.45 14.32 42.01 14.32C41.46 14.32 40.91 14.36 40.36 14.44C37.37 14.87 34.73 16.45 32.92 18.87C31.11 21.29 30.36 24.27 30.79 27.26C30.81 27.41 30.84 27.56 30.87 27.72C29.38 27.9 26.34 28.5 24.46 30.47C23.87 28.59 23.67 26.61 23.86 24.59C23.99 23.3 24.27 22.36 24.55 21.45C24.86 20.44 25.15 19.48 25.14 18.28C25.1 12.14 21.18 9.46001 20.39 8.99001C20.21 8.88001 20 8.82001 19.79 8.82001C19.38 8.82001 19.01 9.03001 18.79 9.38001C18.63 9.65001 18.58 9.96001 18.66 10.26C18.73 10.56 18.92 10.82 19.19 10.98C19.79 11.34 22.78 13.4 22.82 18.3C22.82 19.15 22.61 19.86 22.33 20.77C22.03 21.74 21.7 22.84 21.55 24.36C21.4 25.92 21.46 27.47 21.72 28.99C20.93 28.59 20.04 28.39 19.09 28.39C18.98 28.39 18.87 28.39 18.76 28.39C16.24 28.51 14.02 29.64 12.75 31.43C12.12 30.69 11.28 30.27 10.39 30.27C8.59 30.27 6.72 32.01 6.71 34.9C6.71 36.89 6.72 37.25 6.82 38.73L6.86 39.29C6.94 40.46 7.46 41.52 8.34 42.29C9.14 42.99 10.16 43.37 11.21 43.37C11.3 43.37 11.39 43.37 11.48 43.37H13.45C14.09 43.37 14.61 42.86 14.62 42.22C14.62 41.58 14.1 41.06 13.46 41.05H11.36C11.36 41.05 11.26 41.05 11.21 41.05C10.72 41.05 10.25 40.87 9.87 40.54C9.46 40.18 9.21 39.68 9.18 39.14L9.14 38.58C9.04 37.13 9.02 36.83 9.03 34.91C9.03 33.53 9.74 32.6 10.38 32.6C10.92 32.6 11.53 33.48 11.63 35.17V36.44C11.63 37.08 12.14 37.6 12.78 37.61C13.42 37.61 13.94 37.09 13.95 36.45V35.85C13.97 35.77 13.98 35.69 13.98 35.62C13.98 35.45 13.97 35.28 13.96 35.12C13.84 32.39 16.34 30.84 18.87 30.72C18.95 30.72 19.02 30.72 19.1 30.72C20.19 30.72 21.08 31.12 21.73 31.9C22.42 32.72 22.83 33.96 22.9 35.4V35.47C23.11 37.32 23.91 38.71 25.29 39.59C26.34 40.26 27.71 40.6 29.35 40.6C31.58 40.6 33.55 39.97 33.77 39.9C34.38 39.7 34.71 39.04 34.51 38.43C34.35 37.95 33.91 37.63 33.41 37.63C33.29 37.63 33.16 37.65 33.05 37.69C32.98 37.71 31.19 38.28 29.33 38.28C28.17 38.28 27.23 38.06 26.55 37.62C25.79 37.13 25.36 36.34 25.23 35.21L24.98 35.17C24.98 35.17 24.98 35.22 24.98 35.24C24.98 35.22 24.98 35.19 24.98 35.17C24.95 34.85 24.94 34.55 24.96 34.26C25.02 33.4 25.32 32.66 25.87 32.03C26.28 31.55 26.8 31.17 27.37 30.87C26.81 31.17 26.29 31.55 25.87 32.03C25.32 32.66 25.02 33.4 24.96 34.26C24.94 34.55 24.95 34.85 24.98 35.17L25.23 35.14C25.11 33.94 25.38 32.97 26.06 32.19C27.56 30.46 30.62 30.06 31.58 29.97C31.97 30.91 32.48 31.78 33.1 32.57L31.31 32.83C30.68 32.92 30.23 33.51 30.33 34.15C30.41 34.72 30.91 35.15 31.48 35.15C31.54 35.15 31.59 35.15 31.65 35.14L35.35 34.6C35.53 34.57 35.7 34.5 35.85 34.39C36.02 34.32 36.17 34.21 36.28 34.08C36.7 33.59 36.64 32.86 36.15 32.44C34.5 31.03 33.42 29.07 33.11 26.91C32.76 24.53 33.37 22.17 34.8 20.24C36.24 18.32 38.33 17.07 40.71 16.72C41.15 16.66 41.59 16.62 42.02 16.62C43.96 16.62 45.81 17.24 47.37 18.41C49.29 19.85 50.54 21.94 50.89 24.32C51.24 26.7 50.63 29.06 49.2 30.99C47.76 32.91 45.67 34.16 43.29 34.51C43.28 34.51 43.24 34.52 43.23 34.52C43.18 34.53 43.12 34.54 43.07 34.56L43.02 34.58C42.96 34.6 42.91 34.63 42.87 34.65C42.87 34.65 42.83 34.68 42.82 34.68C42.77 34.72 42.73 34.74 42.69 34.78C42.69 34.78 42.65 34.82 42.64 34.83C42.59 34.88 42.56 34.91 42.54 34.94C42.52 34.96 42.51 34.98 42.5 35.01C42.46 35.07 42.44 35.1 42.43 35.13C42.42 35.16 42.4 35.19 42.39 35.22C42.37 35.28 42.36 35.31 42.35 35.34C42.34 35.38 42.33 35.42 42.33 35.46C42.33 35.51 42.32 35.53 42.31 35.56C42.27 36.1 41.07 48.81 28.36 48.81C27.86 48.81 27.34 48.79 26.81 48.75C22.57 48.43 19.82 47.19 18.61 45.07C16.86 41.98 18.92 37.75 18.94 37.7C19.08 37.43 19.1 37.11 19.01 36.82C18.91 36.52 18.71 36.28 18.43 36.14C18.27 36.06 18.09 36.01 17.91 36.01C17.47 36.01 17.07 36.25 16.87 36.65C16.76 36.87 14.21 41.98 16.59 46.2C18.2 49.05 21.58 50.68 26.64 51.07C27.23 51.11 27.82 51.14 28.38 51.14C33.91 51.14 38.21 49.05 41.16 44.92C43.44 41.73 44.25 38.18 44.51 36.63C47.14 36.04 49.47 34.53 51.08 32.37C52.89 29.95 53.64 26.97 53.21 23.98L53.18 24.01ZM50.9 19.08C50.47 18.5 49.99 17.96 49.45 17.47C49.99 17.96 50.47 18.5 50.9 19.08ZM42.36 14.59C42.13 14.59 41.9 14.59 41.67 14.59C41.78 14.59 41.9 14.58 42.01 14.58C42.12 14.58 42.24 14.59 42.36 14.59V14.59ZM48.6 16.77C48.33 16.57 48.05 16.38 47.76 16.21C48.05 16.39 48.33 16.57 48.6 16.77ZM47.48 16.05C47.28 15.94 47.08 15.82 46.87 15.72C47.08 15.82 47.28 15.93 47.48 16.05ZM46.55 15.57C46.35 15.48 46.15 15.39 45.94 15.31C46.15 15.39 46.35 15.47 46.55 15.57ZM45.62 15.19C45.38 15.11 45.13 15.03 44.89 14.96C45.14 15.03 45.38 15.1 45.62 15.19ZM44.67 14.9C44.35 14.82 44.03 14.76 43.7 14.71C44.02 14.76 44.35 14.83 44.67 14.9ZM43.44 14.67C43.2 14.64 42.96 14.61 42.71 14.6C42.95 14.62 43.2 14.64 43.44 14.67ZM41.37 14.59C41.04 14.61 40.72 14.64 40.39 14.68C40.72 14.63 41.04 14.6 41.37 14.59ZM31.47 22.2C31.28 22.78 31.13 23.37 31.04 23.97C31.13 23.37 31.28 22.78 31.47 22.2ZM30.93 25.04C30.89 25.76 30.93 26.49 31.03 27.22C31.06 27.46 31.12 27.69 31.17 27.93C31.12 27.69 31.07 27.46 31.03 27.22C30.92 26.49 30.89 25.76 30.93 25.04ZM24.47 30.83C24.59 30.7 24.72 30.59 24.85 30.46C24.72 30.58 24.59 30.69 24.47 30.83C24.45 30.85 24.43 30.88 24.41 30.9C24.43 30.87 24.45 30.85 24.47 30.83ZM23.62 24.56C23.69 23.82 23.82 23.19 23.96 22.62C23.81 23.19 23.69 23.81 23.62 24.56ZM24.47 20.85C24.56 20.53 24.65 20.21 24.72 19.89C24.65 20.22 24.56 20.54 24.47 20.85ZM20.27 9.19001C20.17 9.13001 20.07 9.10001 19.97 9.08001C20.07 9.10001 20.18 9.13001 20.27 9.19001ZM19.88 9.07001C19.78 9.07001 19.68 9.07001 19.59 9.08001C19.66 9.06001 19.73 9.05001 19.79 9.05001C19.82 9.05001 19.85 9.05001 19.88 9.06001V9.07001ZM19.57 9.09001C19.47 9.12001 19.38 9.16001 19.29 9.22001C19.38 9.16001 19.47 9.12001 19.57 9.09001ZM19.23 9.26001C19.15 9.33001 19.07 9.40001 19.01 9.50001C19.07 9.40001 19.15 9.33001 19.23 9.26001ZM21.73 13.25C21.52 12.91 21.31 12.61 21.09 12.34C20.87 12.07 20.66 11.84 20.46 11.65C19.95 11.16 19.52 10.87 19.32 10.75C19.1 10.62 18.96 10.41 18.91 10.19C18.97 10.42 19.11 10.62 19.32 10.75C19.51 10.87 19.95 11.16 20.46 11.65C20.66 11.85 20.88 12.08 21.09 12.34C21.31 12.61 21.52 12.91 21.73 13.25C21.94 13.59 22.13 13.96 22.31 14.38C22.13 13.96 21.94 13.59 21.73 13.25V13.25ZM22.57 20.83C22.85 19.9 23.08 19.16 23.07 18.28C23.07 17.97 23.05 17.66 23.03 17.37C22.98 16.84 22.9 16.34 22.79 15.88C22.9 16.34 22.98 16.83 23.03 17.37C23.05 17.66 23.07 17.97 23.07 18.28C23.07 19.16 22.85 19.9 22.57 20.83C22.42 21.31 22.27 21.82 22.13 22.4C22.27 21.82 22.42 21.31 22.57 20.83ZM22.61 32.94C22.42 32.48 22.2 32.06 21.91 31.72C22.19 32.06 22.42 32.48 22.61 32.94ZM22.07 29.46C21.81 28.22 21.7 26.96 21.73 25.67C21.7 26.96 21.82 28.23 22.07 29.46ZM22.06 29.46C21.84 29.32 21.61 29.2 21.37 29.09C21.61 29.2 21.84 29.32 22.06 29.46ZM18.77 28.64C18.88 28.64 18.99 28.64 19.09 28.64C19.2 28.64 19.31 28.66 19.43 28.66C19.21 28.65 19 28.63 18.77 28.65C18.1 28.68 17.46 28.78 16.86 28.95C17.46 28.79 18.1 28.68 18.77 28.65V28.64ZM21.11 29C20.94 28.94 20.78 28.87 20.6 28.83C20.78 28.88 20.94 28.94 21.11 29ZM20.28 28.76C20.12 28.73 19.95 28.69 19.78 28.68C19.95 28.7 20.11 28.73 20.28 28.76ZM21.31 31.15C21.24 31.1 21.16 31.06 21.08 31.01C21.15 31.06 21.24 31.09 21.31 31.15ZM20.62 30.75C20.52 30.71 20.41 30.69 20.31 30.65C20.41 30.68 20.52 30.71 20.62 30.75ZM19.83 30.52C19.71 30.5 19.59 30.5 19.46 30.49C19.58 30.5 19.71 30.5 19.83 30.52ZM12.75 31.85C12.42 31.38 12.03 31.04 11.62 30.82C12.03 31.04 12.42 31.37 12.75 31.85V31.85ZM10.04 40.97C10.04 40.97 10.12 41.01 10.16 41.03C10.12 41.01 10.08 40.99 10.04 40.97ZM10.43 41.15C10.48 41.17 10.54 41.18 10.59 41.19C10.54 41.18 10.48 41.16 10.43 41.15ZM10.85 41.25C10.91 41.25 10.97 41.26 11.03 41.27C10.97 41.27 10.91 41.27 10.85 41.25ZM8.91 39.14L8.87 38.58L8.91 39.14C8.91 39.29 8.94 39.44 8.98 39.59C8.94 39.45 8.92 39.3 8.91 39.14ZM7.05 38.7C7 37.96 6.97 37.5 6.95 36.98C6.97 37.5 7 37.96 7.05 38.7L7.09 39.26L7.05 38.7ZM7.22 40.07C7.36 40.59 7.6 41.08 7.93 41.5C7.6 41.07 7.36 40.59 7.22 40.07ZM14.2 42.68C14.29 42.54 14.35 42.39 14.35 42.21C14.35 42.39 14.29 42.54 14.2 42.68ZM9.08 33.4C9.2 33.13 9.36 32.91 9.53 32.74C9.36 32.91 9.2 33.13 9.08 33.4ZM10.87 32.51C10.71 32.4 10.54 32.34 10.37 32.34C10.54 32.34 10.71 32.4 10.87 32.51C11.03 32.62 11.19 32.79 11.33 33.02C11.19 32.79 11.04 32.62 10.87 32.51ZM11.52 33.41C11.7 33.85 11.83 34.42 11.87 35.14C11.87 35.15 11.87 35.16 11.87 35.17V36.43V35.17C11.87 35.17 11.87 35.15 11.87 35.14C11.82 34.42 11.7 33.84 11.52 33.41ZM12.78 37.35C12.65 37.35 12.53 37.32 12.43 37.28C12.54 37.33 12.66 37.35 12.78 37.35C13.03 37.35 13.26 37.25 13.42 37.08C13.25 37.24 13.03 37.35 12.78 37.35ZM15.23 31.75C15.47 31.55 15.74 31.38 16.02 31.23C15.74 31.38 15.47 31.56 15.23 31.75ZM23.14 35.43C23.14 35.43 23.14 35.39 23.14 35.38C23.12 35 23.08 34.64 23.02 34.3C23.08 34.64 23.12 35 23.14 35.38C23.14 35.38 23.14 35.42 23.14 35.44C23.19 35.88 23.27 36.3 23.39 36.68C23.27 36.29 23.19 35.88 23.14 35.44V35.43ZM25.41 39.36C25.99 39.73 26.63 39.97 27.3 40.13C26.63 39.98 25.99 39.74 25.41 39.36ZM27.16 38.18C27.33 38.24 27.5 38.29 27.67 38.33C27.49 38.29 27.32 38.24 27.16 38.18ZM27.82 38.37C28.04 38.42 28.27 38.45 28.49 38.47C28.26 38.45 28.04 38.41 27.82 38.37ZM28.65 38.48C28.83 38.49 29.02 38.5 29.2 38.5C29.02 38.5 28.83 38.49 28.65 38.48ZM29.4 38.51C29.57 38.51 29.75 38.51 29.92 38.49C29.75 38.5 29.58 38.51 29.4 38.51ZM33.53 37.89C33.6 37.9 33.67 37.92 33.74 37.95C33.67 37.92 33.6 37.9 33.53 37.89ZM33.84 38C33.9 38.04 33.96 38.08 34.01 38.14C33.96 38.09 33.9 38.04 33.84 38ZM34.25 38.49C34.21 38.38 34.16 38.29 34.09 38.2C34.16 38.28 34.22 38.38 34.25 38.49ZM33.39 37.86C33.39 37.86 33.42 37.86 33.43 37.86C33.32 37.86 33.21 37.86 33.1 37.9L33.02 37.92L33.1 37.9C33.2 37.87 33.29 37.85 33.39 37.85V37.86ZM30.05 38.48C30.26 38.46 30.47 38.44 30.67 38.42C30.47 38.44 30.26 38.47 30.05 38.48ZM30.83 38.4C30.98 38.38 31.12 38.36 31.26 38.34C31.12 38.36 30.98 38.38 30.83 38.4ZM31.44 38.3C31.58 38.28 31.71 38.25 31.83 38.23C31.71 38.26 31.58 38.28 31.44 38.3ZM31.95 38.2C32.11 38.17 32.25 38.13 32.38 38.1C32.25 38.13 32.1 38.17 31.95 38.2ZM32.46 38.08C32.56 38.05 32.66 38.03 32.74 38.01C32.66 38.03 32.57 38.06 32.46 38.08ZM32.82 37.98C32.88 37.96 32.94 37.94 32.99 37.93C32.95 37.94 32.89 37.96 32.82 37.98ZM26.98 38.1C26.77 38.02 26.58 37.92 26.39 37.8C26.35 37.78 26.33 37.74 26.29 37.72C26.32 37.74 26.35 37.78 26.39 37.8C26.57 37.92 26.77 38.01 26.98 38.1ZM26.56 29.21C27.03 28.96 27.51 28.75 27.99 28.58C27.51 28.74 27.03 28.96 26.56 29.21ZM31.31 33.06L33.53 32.74C32.95 32.06 32.46 31.31 32.07 30.51C32.46 31.31 32.95 32.06 33.53 32.74L31.31 33.06C31.19 33.08 31.07 33.12 30.97 33.18C31.07 33.12 31.19 33.08 31.31 33.06V33.06ZM30.64 34.41C30.59 34.32 30.55 34.21 30.53 34.1C30.55 34.21 30.58 34.32 30.64 34.41C30.8 34.69 31.1 34.88 31.44 34.88C31.11 34.88 30.8 34.7 30.64 34.41ZM35.5 34.27C35.57 34.24 35.63 34.2 35.69 34.16C35.72 34.15 35.74 34.12 35.78 34.1C35.75 34.12 35.73 34.15 35.69 34.16C35.63 34.2 35.57 34.24 35.5 34.27ZM35.96 32.62C35.96 32.62 36.02 32.7 36.06 32.75C36.03 32.71 36 32.66 35.96 32.62C35.45 32.18 34.99 31.68 34.59 31.15C34.99 31.68 35.44 32.18 35.96 32.62ZM40.65 16.47C40.04 16.56 39.45 16.71 38.88 16.91C38.03 17.21 37.23 17.64 36.5 18.17C37.22 17.64 38.02 17.21 38.88 16.91C39.45 16.71 40.04 16.56 40.65 16.47C41.05 16.41 41.45 16.39 41.85 16.38C41.45 16.38 41.05 16.41 40.65 16.47ZM42.29 16.38C42.39 16.38 42.48 16.38 42.58 16.39C42.48 16.39 42.39 16.39 42.29 16.38ZM43.2 16.45C43.27 16.45 43.34 16.46 43.41 16.48C43.34 16.47 43.27 16.46 43.2 16.45ZM44.22 16.64C44.28 16.65 44.34 16.67 44.39 16.69C44.33 16.67 44.28 16.65 44.22 16.64ZM45.01 16.88C45.1 16.91 45.19 16.95 45.28 16.98C45.19 16.95 45.1 16.91 45.01 16.88ZM45.79 17.2C45.88 17.24 45.97 17.28 46.06 17.33C45.97 17.29 45.88 17.24 45.79 17.2ZM46.57 17.6C46.65 17.64 46.72 17.69 46.8 17.73C46.72 17.68 46.65 17.64 46.57 17.6ZM50.68 22.51C50.48 21.94 50.22 21.4 49.92 20.88C49.31 19.85 48.49 18.94 47.5 18.21C48.49 18.95 49.3 19.86 49.92 20.88C50.23 21.39 50.48 21.94 50.68 22.51C50.88 23.08 51.03 23.67 51.12 24.28C51.16 24.59 51.19 24.89 51.21 25.19C51.2 24.89 51.17 24.58 51.12 24.28C51.03 23.67 50.88 23.08 50.68 22.51V22.51ZM48.15 32.48C48.6 32.08 49.01 31.62 49.38 31.13C49.56 30.88 49.74 30.63 49.89 30.37C49.73 30.63 49.56 30.88 49.38 31.13C49.01 31.62 48.6 32.08 48.15 32.48C47.7 32.88 47.22 33.24 46.7 33.55C47.21 33.24 47.7 32.89 48.15 32.48ZM46.65 35.61C45.96 35.93 45.25 36.18 44.5 36.35C45.25 36.18 45.97 35.93 46.65 35.61ZM43.2 34.77C43.2 34.77 43.15 34.78 43.12 34.79C43.12 34.79 43.1 34.79 43.09 34.8C43.09 34.8 43.11 34.8 43.12 34.79C43.14 34.79 43.17 34.78 43.2 34.77ZM42.82 34.97C42.82 34.97 42.85 34.95 42.86 34.94C42.85 34.94 42.83 34.96 42.82 34.97C42.8 34.99 42.79 35 42.77 35.02C42.79 35 42.8 34.99 42.82 34.97ZM42.55 35.41C42.55 35.41 42.57 35.36 42.58 35.33C42.59 35.3 42.6 35.27 42.62 35.24C42.63 35.21 42.65 35.19 42.67 35.16C42.65 35.19 42.63 35.21 42.62 35.24C42.61 35.27 42.6 35.3 42.58 35.33C42.58 35.36 42.56 35.38 42.55 35.41C42.55 35.44 42.54 35.48 42.53 35.52C42.53 35.52 42.54 35.45 42.55 35.41ZM42.52 35.61C42.52 35.61 42.52 35.69 42.51 35.75C42.51 35.69 42.52 35.64 42.52 35.61ZM42.47 36.05C42.47 36.05 42.46 36.14 42.45 36.18C42.45 36.14 42.46 36.09 42.47 36.05ZM42.5 35.82C42.5 35.82 42.5 35.89 42.49 35.92C42.49 35.89 42.49 35.85 42.5 35.82ZM42.43 36.33C42.43 36.38 42.41 36.44 42.4 36.49C42.4 36.44 42.42 36.38 42.43 36.33ZM42.37 36.67C42.36 36.73 42.35 36.8 42.33 36.86C42.34 36.8 42.36 36.73 42.37 36.67ZM42.3 37.06C42.29 37.13 42.27 37.21 42.25 37.28C42.27 37.21 42.28 37.13 42.3 37.06ZM38 45.43C38.1 45.33 38.19 45.24 38.28 45.14C38.19 45.24 38.09 45.34 38 45.43ZM42.21 37.49C42.19 37.57 42.17 37.65 42.15 37.73C42.17 37.65 42.19 37.57 42.21 37.49ZM42.09 37.97C42.07 38.06 42.04 38.14 42.02 38.23C42.04 38.14 42.07 38.05 42.09 37.97ZM41.95 38.48C41.92 38.57 41.9 38.67 41.87 38.76C41.9 38.66 41.93 38.57 41.95 38.48ZM41.79 39.03C41.76 39.13 41.73 39.23 41.69 39.33C41.72 39.23 41.76 39.13 41.79 39.03ZM41.6 39.6C41.56 39.7 41.52 39.81 41.48 39.92C41.52 39.81 41.56 39.71 41.6 39.6ZM41.38 40.19C41.34 40.3 41.29 40.4 41.25 40.51C41.29 40.4 41.34 40.29 41.38 40.19ZM41.13 40.8C41.08 40.91 41.03 41.02 40.98 41.13C41.03 41.02 41.08 40.91 41.13 40.8ZM40.84 41.42C40.79 41.53 40.73 41.64 40.67 41.75C40.73 41.64 40.78 41.53 40.84 41.42ZM40.52 42.05C40.46 42.16 40.4 42.27 40.34 42.38C40.4 42.27 40.46 42.16 40.52 42.05ZM40.16 42.68C40.09 42.79 40.03 42.9 39.96 43.01C40.03 42.9 40.1 42.79 40.16 42.68ZM39.76 43.31C39.69 43.42 39.61 43.53 39.54 43.64C39.62 43.53 39.69 43.42 39.76 43.31ZM39.32 43.93C39.24 44.04 39.16 44.14 39.08 44.25C39.16 44.15 39.24 44.04 39.32 43.93ZM38.83 44.54C38.74 44.64 38.66 44.75 38.56 44.85C38.65 44.75 38.74 44.65 38.83 44.54ZM37.71 45.7C37.61 45.79 37.51 45.89 37.41 45.97C37.52 45.88 37.61 45.79 37.71 45.7ZM37.07 46.24C36.96 46.32 36.86 46.41 36.75 46.49C36.86 46.41 36.97 46.32 37.07 46.24ZM36.38 46.75C36.27 46.83 36.16 46.91 36.04 46.98C36.16 46.91 36.27 46.83 36.38 46.75ZM35.62 47.23C35.51 47.3 35.4 47.36 35.28 47.43C35.4 47.37 35.51 47.3 35.62 47.23ZM34.76 47.69C34.66 47.74 34.57 47.79 34.46 47.84C34.56 47.79 34.66 47.74 34.76 47.69ZM33.58 48.19C33.51 48.21 33.44 48.23 33.38 48.26C33.45 48.24 33.52 48.22 33.58 48.19ZM32.64 48.49C32.52 48.52 32.4 48.55 32.28 48.58C32.4 48.55 32.53 48.53 32.64 48.49ZM31.63 48.73C31.49 48.76 31.34 48.78 31.2 48.8C31.34 48.78 31.49 48.76 31.63 48.73ZM30.56 48.9C30.4 48.92 30.24 48.93 30.08 48.95C30.24 48.93 30.41 48.92 30.56 48.9ZM29.42 49C29.25 49.01 29.07 49.01 28.89 49.02C29.07 49.02 29.24 49.02 29.42 49ZM28.23 49.03C27.76 49.03 27.29 49.01 26.79 48.97C27.29 49.01 27.76 49.02 28.23 49.03ZM18.8 37.22C18.82 36.98 18.74 36.75 18.59 36.57C18.74 36.75 18.82 36.99 18.8 37.22ZM17.92 36.25C17.82 36.25 17.72 36.25 17.62 36.29C17.71 36.26 17.8 36.25 17.89 36.25C17.89 36.25 17.91 36.25 17.92 36.25ZM17.57 36.31C17.49 36.34 17.42 36.38 17.35 36.43C17.42 36.38 17.49 36.34 17.57 36.31ZM17.08 36.74C17.13 36.64 17.2 36.56 17.28 36.49C17.2 36.56 17.13 36.64 17.08 36.74C17.06 36.78 16.96 36.99 16.82 37.33C16.96 36.99 17.06 36.78 17.08 36.74ZM16.14 44.49C15.91 43.7 15.82 42.9 15.82 42.13C15.82 42.9 15.91 43.7 16.14 44.49C16.29 45.02 16.51 45.54 16.79 46.06C16.5 45.55 16.29 45.02 16.14 44.49ZM17.46 47.04C18.46 48.28 19.89 49.22 21.75 49.86C19.89 49.22 18.46 48.28 17.46 47.04ZM23.22 50.29C24.25 50.54 25.39 50.71 26.64 50.8C25.4 50.71 24.26 50.54 23.22 50.29ZM47.58 35.12C48.27 34.72 48.92 34.25 49.52 33.7C48.93 34.25 48.28 34.72 47.58 35.12ZM50.86 32.2C50.46 32.74 50.01 33.24 49.53 33.69C50.01 33.24 50.46 32.74 50.86 32.2C51.3 31.61 51.68 30.98 51.99 30.33C51.68 30.98 51.3 31.61 50.86 32.2Z" fill="#363636"/>
<path d="M39.34 24.96C39.53 24.71 39.6 24.4 39.56 24.1C39.48 23.53 38.99 23.1 38.42 23.1C38.36 23.1 38.3 23.1 38.24 23.11C38.22 23.11 38.19 23.11 38.16 23.11C37.78 23.11 37.45 22.71 37.45 22.7C37.24 22.41 36.88 22.23 36.52 22.23C36.28 22.23 36.04 22.31 35.84 22.45C35.32 22.82 35.2 23.55 35.57 24.07C36.02 24.7 36.97 25.43 38.15 25.43C38.29 25.43 38.43 25.43 38.57 25.4C38.88 25.36 39.15 25.19 39.33 24.94L39.34 24.96ZM39.29 24.5C39.32 24.39 39.33 24.26 39.31 24.14C39.33 24.26 39.32 24.39 39.29 24.5ZM39.19 23.81C39.25 23.91 39.29 24.02 39.31 24.14C39.29 24.02 39.25 23.91 39.19 23.81ZM39.12 23.72C39.07 23.66 39.03 23.6 38.97 23.56C39.03 23.61 39.07 23.66 39.12 23.72ZM38.41 23.35C38.41 23.35 38.5 23.37 38.54 23.37C38.45 23.36 38.36 23.34 38.27 23.36C38.32 23.36 38.36 23.35 38.41 23.35V23.35ZM38.86 23.49C38.8 23.46 38.74 23.42 38.68 23.4C38.75 23.42 38.8 23.45 38.86 23.49ZM38.13 23.37C38.02 23.37 37.92 23.34 37.82 23.3C37.91 23.34 38.02 23.36 38.13 23.37ZM37.78 23.28C37.69 23.24 37.6 23.19 37.53 23.13C37.6 23.18 37.69 23.23 37.78 23.28ZM37.5 23.11C37.43 23.06 37.37 23 37.33 22.96C37.37 23 37.43 23.06 37.5 23.11ZM37.32 22.94C37.32 22.94 37.26 22.87 37.25 22.87C37.25 22.87 37.28 22.91 37.32 22.94ZM36.95 22.61C36.95 22.61 36.87 22.58 36.83 22.57C36.87 22.58 36.91 22.59 36.95 22.61ZM36.58 22.51C36.51 22.51 36.45 22.51 36.39 22.51C36.43 22.51 36.48 22.49 36.52 22.49C36.54 22.49 36.56 22.5 36.58 22.5V22.51ZM36.29 22.53C36.19 22.56 36.08 22.6 35.99 22.67C36.08 22.6 36.19 22.56 36.29 22.53ZM38.16 25.2C37.01 25.2 36.14 24.44 35.78 23.94C35.63 23.74 35.58 23.49 35.62 23.26C35.58 23.49 35.63 23.74 35.78 23.94C36.14 24.43 37.01 25.2 38.16 25.2C38.28 25.2 38.41 25.2 38.54 25.17C38.79 25.13 39 25 39.14 24.81C39 25 38.79 25.13 38.54 25.17C38.41 25.19 38.28 25.2 38.16 25.2Z" fill="#363636"/>
</svg>
