<svg width="60" height="60" viewBox="0 0 60 60" fill="none" xmlns="http://www.w3.org/2000/svg">
<path d="M35.48 23.36V22.1C35.48 21.45 34.95 20.91 34.29 20.91C33.63 20.91 33.1 21.44 33.1 22.1V23.36C33.1 24.01 33.63 24.55 34.29 24.55C34.95 24.55 35.48 24.02 35.48 23.36ZM35.25 23.36C35.25 23.49 35.22 23.62 35.17 23.73C35.22 23.62 35.25 23.49 35.25 23.36ZM33.33 23.36V22.1C33.33 21.7 33.57 21.36 33.92 21.22C33.58 21.37 33.33 21.71 33.33 22.1V23.36C33.33 23.76 33.57 24.1 33.92 24.24C33.58 24.09 33.33 23.75 33.33 23.36Z" fill="#363636"/>
<path d="M24.32 22.1V23.36C24.32 24.01 24.85 24.55 25.51 24.55C26.17 24.55 26.7 24.02 26.7 23.36V22.1C26.7 21.45 26.17 20.91 25.51 20.91C24.85 20.91 24.32 21.44 24.32 22.1ZM24.55 23.36V22.1C24.55 21.7 24.79 21.36 25.14 21.22C24.8 21.37 24.55 21.71 24.55 22.1V23.36C24.55 23.76 24.79 24.1 25.14 24.24C24.8 24.09 24.55 23.75 24.55 23.36Z" fill="#363636"/>
<path d="M30 5.21001C21.14 5.21001 13.94 12.41 13.94 21.27V38.74C13.94 47.6 21.14 54.8 30 54.8C38.86 54.8 46.06 47.6 46.06 38.74V21.27C46.06 12.41 38.86 5.21001 30 5.21001V5.21001ZM43.29 17.14C42.88 15.83 42.29 14.61 41.54 13.5C39.04 9.80001 34.8 7.36001 30 7.36001C25.2 7.36001 20.97 9.80001 18.47 13.5C17.72 14.61 17.12 15.83 16.72 17.14C16.45 18.01 16.26 18.92 16.17 19.85C16.27 18.92 16.45 18.01 16.72 17.14C17.13 15.83 17.72 14.61 18.47 13.5C20.97 9.80001 25.21 7.36001 30.01 7.36001C34.81 7.36001 39.04 9.80001 41.54 13.5C42.29 14.61 42.89 15.83 43.29 17.14C43.56 18.01 43.75 18.92 43.84 19.85C43.74 18.92 43.56 18.01 43.29 17.14ZM43.69 21.27V38.74C43.69 46.29 37.55 52.43 30 52.43C22.45 52.43 16.31 46.29 16.31 38.74V21.27C16.31 13.72 22.45 7.58001 30 7.58001C37.55 7.58001 43.69 13.72 43.69 21.27ZM21.97 7.65001C22.28 7.47001 22.59 7.29001 22.91 7.13001C22.59 7.29001 22.27 7.46001 21.97 7.65001ZM16.16 40.16C16.3 41.56 16.65 42.9 17.18 44.15C16.65 42.9 16.3 41.56 16.16 40.16ZM34.14 52.03C35.01 51.76 35.85 51.4 36.63 50.97C35.84 51.4 35.01 51.75 34.14 52.03C32.83 52.44 31.45 52.66 30.01 52.66C31.45 52.66 32.84 52.44 34.14 52.03ZM43.85 40.16C43.71 41.56 43.36 42.9 42.83 44.15C43.36 42.9 43.71 41.56 43.85 40.16ZM23.85 53.33C22.9 52.93 22 52.44 21.16 51.87C22 52.44 22.9 52.93 23.85 53.33C25.74 54.13 27.82 54.58 30.01 54.58C27.83 54.58 25.75 54.14 23.85 53.33Z" fill="#363636"/>
<path d="M30 11.14C25.67 11.14 21.83 13.86 20.39 17.93C18.75 18.22 17.52 19.66 17.52 21.34C17.52 23.02 18.74 24.46 20.38 24.75C21.64 28.31 24.72 30.86 28.47 31.42C28.53 31.42 28.59 31.43 28.65 31.43C29.23 31.43 29.74 31 29.82 30.42C29.87 30.11 29.79 29.79 29.6 29.54C29.41 29.28 29.14 29.12 28.82 29.07C25.72 28.6 23.2 26.34 22.42 23.3C22.42 23.29 22.41 23.26 22.4 23.25C22.4 23.22 22.37 23.17 22.36 23.13C22.34 23.09 22.33 23.06 22.32 23.04C22.3 23 22.27 22.96 22.25 22.92C22.23 22.89 22.22 22.87 22.2 22.85C22.17 22.81 22.13 22.77 22.09 22.74L22.04 22.69C22.04 22.69 21.96 22.62 21.91 22.6L21.85 22.57C21.85 22.57 21.76 22.52 21.71 22.5C21.68 22.49 21.66 22.48 21.64 22.47C21.6 22.46 21.55 22.45 21.51 22.44C21.48 22.44 21.44 22.43 21.41 22.42C21.37 22.42 21.33 22.42 21.29 22.42H21.27C21.22 22.42 21.19 22.42 21.16 22.42C21.07 22.42 21.03 22.43 20.98 22.43C20.38 22.43 19.89 21.94 19.89 21.34C19.89 20.74 20.38 20.25 20.98 20.25C21.03 20.25 21.07 20.25 21.12 20.26H21.17C21.17 20.26 21.22 20.26 21.25 20.26C21.33 20.26 21.36 20.26 21.4 20.26C21.43 20.26 21.47 20.25 21.5 20.24C21.55 20.24 21.59 20.22 21.63 20.21C21.65 20.21 21.68 20.19 21.7 20.18C21.76 20.16 21.8 20.14 21.84 20.11L21.89 20.08C21.94 20.05 21.98 20.02 22.02 19.98C22.04 19.97 22.05 19.95 22.07 19.94C22.12 19.89 22.15 19.86 22.18 19.82C22.2 19.8 22.21 19.78 22.23 19.76C22.26 19.71 22.29 19.67 22.31 19.63C22.32 19.6 22.34 19.57 22.35 19.54C22.37 19.49 22.39 19.45 22.4 19.41C23.3 15.92 26.42 13.51 29.99 13.51C30.98 13.51 31.6 14.77 31.6 15.93C31.6 16.68 30.99 17.28 30.25 17.28C29.78 17.28 29.41 16.9 29.41 16.44C29.41 15.79 28.88 15.25 28.22 15.25C27.56 15.25 27.03 15.78 27.03 16.44C27.03 18.21 28.47 19.66 30.25 19.66C32.3 19.66 33.98 17.99 33.98 15.93C33.98 15.46 33.92 14.97 33.79 14.5C35.67 15.54 37.03 17.29 37.57 19.37C37.57 19.39 37.59 19.42 37.6 19.43C37.62 19.51 37.67 19.61 37.73 19.71L37.76 19.76C37.83 19.86 37.91 19.95 38 20.01C38.09 20.08 38.19 20.13 38.31 20.18L38.36 20.2C38.47 20.23 38.58 20.25 38.69 20.26C38.71 20.26 38.73 20.26 38.74 20.26C38.76 20.26 38.78 20.26 38.79 20.26C38.79 20.26 38.86 20.26 38.87 20.26C38.92 20.26 38.96 20.25 39.01 20.25C39.61 20.25 40.1 20.74 40.1 21.34C40.1 21.94 39.61 22.43 39.01 22.43C38.97 22.43 38.93 22.43 38.89 22.43H38.83C38.83 22.43 38.78 22.43 38.76 22.43C38.75 22.43 38.72 22.43 38.7 22.43C38.66 22.43 38.62 22.43 38.57 22.44C38.53 22.44 38.5 22.45 38.46 22.46C38.42 22.47 38.38 22.48 38.35 22.5C38.31 22.51 38.28 22.53 38.24 22.54C38.21 22.56 38.18 22.57 38.15 22.59C38.11 22.61 38.08 22.63 38.05 22.66C38.02 22.68 38 22.7 37.97 22.72C37.94 22.75 37.91 22.78 37.88 22.81C37.86 22.83 37.84 22.86 37.82 22.89C37.79 22.92 37.77 22.96 37.75 22.99C37.73 23.02 37.72 23.05 37.7 23.08C37.68 23.12 37.66 23.16 37.65 23.2C37.64 23.23 37.63 23.27 37.62 23.3C37.61 23.34 37.6 23.38 37.59 23.42V23.47C37.59 23.47 37.58 23.51 37.58 23.53C37.58 23.55 37.58 23.58 37.58 23.6C37.58 26.3 34.88 28.46 31.75 30.97C27.43 34.43 22.54 38.34 22.54 45.29C22.54 45.94 23.07 46.48 23.73 46.48C24.39 46.48 24.92 45.95 24.92 45.29C24.92 39.48 29.15 36.1 33.24 32.82C36.36 30.32 39.3 27.97 39.86 24.7C41.39 24.32 42.49 22.93 42.49 21.34C42.49 19.66 41.27 18.22 39.62 17.93C38.18 13.86 34.34 11.14 30.01 11.14H30ZM31.74 11.53C32.2 11.61 32.66 11.72 33.1 11.87C32.66 11.73 32.2 11.62 31.74 11.53V11.53ZM31.84 15.94C31.84 15.62 31.8 15.3 31.71 14.99C31.79 15.3 31.84 15.62 31.84 15.94ZM30 11.38C28.39 11.38 26.85 11.77 25.48 12.46C26.85 11.77 28.39 11.38 30 11.38ZM28.51 31.21C25.73 30.79 23.31 29.24 21.78 27C21.27 26.25 20.86 25.43 20.56 24.56C20.16 24.51 19.79 24.38 19.45 24.2C19.11 24.02 18.81 23.78 18.56 23.49C18.81 23.78 19.11 24.02 19.45 24.2C19.79 24.38 20.16 24.51 20.56 24.56C20.86 25.44 21.27 26.26 21.78 27C23.31 29.23 25.72 30.79 28.51 31.21C28.56 31.21 28.61 31.22 28.65 31.22C28.6 31.22 28.55 31.22 28.51 31.21ZM22.06 23.07C22.06 23.07 22.03 23.03 22.02 23.01C22.01 22.99 21.99 22.98 21.98 22.96C21.99 22.97 22.01 22.99 22.02 23.01C22.03 23.03 22.05 23.05 22.06 23.07ZM21.26 22.66H21.29C21.29 22.66 21.22 22.66 21.19 22.66C21.21 22.66 21.24 22.66 21.26 22.66ZM21.17 22.66H21.18C21.18 22.66 21.17 22.66 21.16 22.66H21.17V22.66ZM20.48 22.57C20.24 22.47 20.04 22.3 19.9 22.09C19.76 21.88 19.67 21.63 19.67 21.35C19.67 21.62 19.75 21.88 19.9 22.09C20.05 22.3 20.24 22.47 20.48 22.57ZM21.16 20.05C21.11 20.05 21.05 20.04 20.99 20.04C20.9 20.04 20.81 20.04 20.72 20.07C20.55 20.11 20.39 20.17 20.25 20.27C20.39 20.17 20.55 20.11 20.72 20.07C20.81 20.05 20.89 20.04 20.99 20.04C21.05 20.04 21.1 20.04 21.16 20.05C21.16 20.05 21.17 20.05 21.18 20.05H21.16ZM21.39 20.05C21.39 20.05 21.33 20.05 21.3 20.05H21.27C21.27 20.05 21.22 20.05 21.2 20.05C21.23 20.05 21.27 20.05 21.3 20.05C21.33 20.05 21.36 20.05 21.39 20.05C21.41 20.05 21.44 20.05 21.46 20.04C21.44 20.04 21.41 20.04 21.39 20.05ZM21.5 20.03C21.5 20.03 21.55 20.02 21.58 20.01C21.59 20.01 21.61 20 21.62 19.99C21.61 19.99 21.59 20 21.58 20.01C21.55 20.01 21.53 20.02 21.5 20.03ZM22.07 19.64C22.07 19.64 22.11 19.58 22.13 19.55C22.13 19.55 22.09 19.61 22.07 19.64ZM30.01 13.31C30.29 13.31 30.55 13.4 30.78 13.54C30.55 13.39 30.3 13.31 30.01 13.31ZM31.09 13.81C31.28 14.02 31.44 14.27 31.57 14.56C31.45 14.27 31.29 14.02 31.09 13.81ZM31.79 16.34C31.72 16.62 31.58 16.87 31.38 17.07C31.58 16.87 31.72 16.62 31.79 16.34ZM29.1 19.21C28.74 19.06 28.42 18.84 28.15 18.57C28.42 18.84 28.74 19.06 29.1 19.21C29.46 19.36 29.85 19.45 30.26 19.45C29.85 19.45 29.45 19.37 29.1 19.21ZM33.16 17.9C33.41 17.53 33.59 17.1 33.69 16.65C33.6 17.11 33.41 17.53 33.16 17.9ZM33.42 14.06C33.69 14.18 33.94 14.32 34.19 14.47C33.94 14.32 33.68 14.18 33.42 14.06ZM36.17 16.17C36.55 16.62 36.88 17.11 37.15 17.64C36.88 17.11 36.55 16.62 36.17 16.17ZM38.14 19.84C38.06 19.78 38 19.71 37.95 19.63C37.95 19.62 37.93 19.61 37.92 19.59C37.87 19.51 37.83 19.43 37.81 19.33C37.81 19.33 37.81 19.32 37.81 19.31C37.81 19.31 37.81 19.32 37.81 19.33C37.84 19.42 37.87 19.51 37.92 19.59C37.92 19.6 37.94 19.61 37.95 19.63C38.01 19.71 38.07 19.78 38.14 19.84ZM40.33 21.34C40.33 20.7 39.88 20.17 39.28 20.05C39.19 20.03 39.11 20.02 39.01 20.02C38.95 20.02 38.9 20.02 38.84 20.03C38.83 20.03 38.82 20.03 38.81 20.03H38.77C38.77 20.03 38.74 20.03 38.72 20.03C38.72 20.03 38.7 20.03 38.69 20.03C38.6 20.03 38.51 20.01 38.42 19.99C38.41 19.99 38.39 19.98 38.38 19.97C38.39 19.97 38.41 19.98 38.42 19.99C38.51 20.02 38.59 20.03 38.69 20.03C38.69 20.03 38.71 20.03 38.72 20.03C38.74 20.03 38.75 20.03 38.77 20.03C38.79 20.03 38.82 20.03 38.84 20.03C38.89 20.03 38.95 20.02 39.01 20.02C39.1 20.02 39.19 20.02 39.28 20.05C39.88 20.17 40.33 20.71 40.33 21.34C40.33 21.89 40 22.36 39.52 22.56C39.99 22.36 40.33 21.89 40.33 21.34ZM38.86 22.65C38.86 22.65 38.96 22.65 39.01 22.65C38.96 22.65 38.91 22.65 38.86 22.65C38.85 22.65 38.84 22.65 38.82 22.65H38.86ZM38.71 22.65C38.71 22.65 38.64 22.65 38.61 22.66C38.64 22.66 38.68 22.66 38.71 22.65ZM38.27 22.78C38.27 22.78 38.23 22.8 38.21 22.82C38.23 22.81 38.25 22.79 38.27 22.78ZM37.86 23.27C37.86 23.27 37.88 23.23 37.89 23.2C37.89 23.22 37.87 23.24 37.86 23.27C37.85 23.3 37.84 23.32 37.83 23.35C37.83 23.32 37.85 23.29 37.86 23.27ZM23.72 46.25C23.32 46.25 22.98 46.01 22.84 45.66C22.99 46 23.33 46.25 23.72 46.25C24.11 46.25 24.46 46.01 24.6 45.66C24.45 46 24.11 46.25 23.72 46.25ZM33.08 32.65C31.53 33.89 29.96 35.15 28.6 36.54C29.96 35.14 31.53 33.89 33.08 32.65C34.06 31.87 35.02 31.1 35.89 30.31C35.02 31.1 34.06 31.87 33.08 32.65ZM36.41 29.83C36.74 29.51 37.06 29.19 37.36 28.86C37.06 29.19 36.74 29.51 36.41 29.83ZM39.65 24.51C39.53 25.32 39.26 26.08 38.86 26.8C39.25 26.08 39.53 25.32 39.65 24.51C40.21 24.4 40.71 24.14 41.12 23.79C40.71 24.15 40.2 24.4 39.65 24.51Z" fill="#363636"/>
</svg>
