<svg width="60" height="60" viewBox="0 0 60 60" fill="none" xmlns="http://www.w3.org/2000/svg">
<path d="M23.4 39.88C24.1953 39.88 24.84 39.2353 24.84 38.44C24.84 37.6447 24.1953 37 23.4 37C22.6047 37 21.96 37.6447 21.96 38.44C21.96 39.2353 22.6047 39.88 23.4 39.88Z" fill="#363636"/>
<path d="M36.6 39.88C37.3953 39.88 38.04 39.2353 38.04 38.44C38.04 37.6447 37.3953 37 36.6 37C35.8047 37 35.16 37.6447 35.16 38.44C35.16 39.2353 35.8047 39.88 36.6 39.88Z" fill="#363636"/>
<path d="M30.01 37.5H30C28.0891 37.5 26.54 39.0491 26.54 40.96V44.79C26.54 46.7009 28.0891 48.25 30 48.25H30.01C31.9209 48.25 33.47 46.7009 33.47 44.79V40.96C33.47 39.0491 31.9209 37.5 30.01 37.5Z" fill="#363636"/>
<path d="M16.17 17.6C15.99 17.59 15.82 17.58 15.64 17.58C10.48 17.58 6.26999 21.78 6.26999 26.95C6.26999 31.68 9.79999 35.59 14.36 36.22L14.42 35.7C14.46 35.43 14.5 35.18 14.54 34.93C14.64 34.39 15.09 34 15.63 33.98C11.75 33.98 8.59999 30.82 8.59999 26.95C8.59999 23.08 11.76 19.92 15.63 19.92C15.74 19.92 15.85 19.92 15.96 19.93C15.85 19.14 15.92 18.35 16.15 17.61L16.17 17.6Z" fill="#363636"/>
<path d="M22.14 24.3C22.17 24.37 22.2 24.44 22.23 24.51C22.26 24.6 22.31 24.68 22.36 24.76L22.2 24.29C22.2 24.29 22.16 24.29 22.14 24.29V24.3Z" fill="#363636"/>
<path d="M16.84 35.15C16.84 35.78 16.37 36.3 15.74 36.31C15.71 36.31 15.67 36.31 15.65 36.31C15.22 36.31 14.79 36.27 14.37 36.21L14.07 38.68C13.31 43.87 15.72 48.99 20.36 52.06C20.56 52.19 20.78 52.25 21 52.25C21.38 52.25 21.75 52.07 21.97 51.73C22.32 51.19 22.18 50.47 21.64 50.11C17.76 47.55 15.74 43.3 16.37 38.99L16.73 36C16.76 35.78 16.8 35.57 16.84 35.35C16.96 34.72 16.54 34.11 15.91 33.99C15.82 33.97 15.73 33.97 15.64 33.97C16.28 33.97 16.84 34.49 16.84 35.13V35.15Z" fill="#363636"/>
<path d="M14.55 34.93C14.5 35.18 14.46 35.42 14.43 35.7L14.37 36.22C14.79 36.28 15.21 36.32 15.65 36.32C15.67 36.32 15.71 36.32 15.74 36.32C16.37 36.3 16.84 35.79 16.84 35.16C16.84 34.53 16.29 34 15.64 34C15.11 34.02 14.65 34.41 14.55 34.95V34.93Z" fill="#363636"/>
<path d="M26.66 21.74C26.31 21.91 26.16 22.34 26.33 22.69C26.5 23.04 26.93 23.19 27.28 23.02C27.63 22.85 27.78 22.42 27.61 22.07C27.44 21.72 27.01 21.57 26.66 21.74Z" fill="#363636"/>
<path d="M33.17 20.17C33.52 20 33.67 19.57 33.5 19.22C33.33 18.87 32.9 18.72 32.55 18.89C32.2 19.06 32.05 19.49 32.22 19.84C32.39 20.19 32.82 20.34 33.17 20.17Z" fill="#363636"/>
<path d="M29.7775 20.5086L29.6425 20.5739C28.8271 20.9682 28.4858 21.9489 28.8801 22.7643L29.5637 24.1777C29.958 24.9931 30.9387 25.3344 31.7541 24.94L31.8891 24.8747C32.7045 24.4804 33.0459 23.4997 32.6515 22.6843L31.9679 21.2709C31.5736 20.4555 30.5929 20.1142 29.7775 20.5086Z" fill="#363636"/>
<path d="M34.94 16.99C34.66 16.41 34.9 15.71 35.48 15.43C36.61 14.88 37.74 14.66 38.85 14.74C38.85 14.72 38.87 14.7 38.87 14.68C39.33 13.36 39.25 11.94 38.64 10.69C37.38 8.1 34.25 7.01 31.66 8.27C30.04 9.06 28.97 10.63 28.77 12.38C29.09 12.31 29.42 12.25 29.76 12.21L30.05 14.52C30.67 14.44 31.13 13.88 31.07 13.25C30.95 12.05 31.6 10.89 32.68 10.36C34.12 9.67 35.85 10.27 36.55 11.7C36.89 12.4 36.93 13.18 36.68 13.91C36.43 14.63 35.92 15.21 35.23 15.55C35.2 15.56 35.16 15.58 35.13 15.6C34.56 15.91 34.35 16.61 34.66 17.18C34.87 17.57 35.27 17.79 35.69 17.79C35.86 17.79 36.03 17.75 36.19 17.67H36.22C36.29 17.62 36.36 17.58 36.44 17.54C35.87 17.78 35.21 17.54 34.94 16.98V16.99Z" fill="#363636"/>
<path d="M40.5 15.08C39.96 14.89 39.41 14.78 38.86 14.74C38.42 15.95 37.57 16.94 36.44 17.55C36.46 17.55 36.48 17.54 36.5 17.53C37.61 16.99 38.67 16.91 39.72 17.27C40.27 17.46 40.78 17.76 41.24 18.12C42.14 17.8 43.09 17.62 44.07 17.59C43.15 16.58 41.95 15.59 40.5 15.08Z" fill="#363636"/>
<path d="M38.86 14.74C37.74 14.66 36.61 14.89 35.49 15.43C34.91 15.71 34.67 16.41 34.95 16.99C35.22 17.55 35.88 17.79 36.45 17.55C37.58 16.94 38.43 15.95 38.87 14.74H38.86Z" fill="#363636"/>
<path d="M28.75 13.48C28.71 13.11 28.73 12.74 28.77 12.38C26.49 12.88 24.82 13.99 23.9 14.73C22.4 13.8 20.49 13.68 18.87 14.47C17.53 15.12 16.59 16.28 16.17 17.6C16.97 17.65 17.75 17.79 18.5 18.03C18.77 17.41 19.23 16.88 19.88 16.56C20.96 16.04 22.28 16.24 23.15 17.08C23.37 17.29 23.65 17.39 23.99 17.4C24.3 17.4 24.6 17.26 24.81 17.03C24.83 17.01 26.84 14.91 30.05 14.51C30.05 14.51 30.03 14.51 30.02 14.51C29.38 14.58 28.81 14.1 28.75 13.46V13.48Z" fill="#363636"/>
<path d="M18.64 20.6C17.82 20.21 16.91 19.97 15.97 19.93C16.05 20.45 16.2 20.96 16.44 21.45C17.05 22.71 18.11 23.65 19.43 24.11C19.99 24.31 20.57 24.4 21.15 24.4C21.48 24.4 21.81 24.36 22.14 24.3C21.79 23.43 21.27 22.66 20.63 22.02C19.81 21.87 19.07 21.37 18.64 20.6V20.6Z" fill="#363636"/>
<path d="M21.94 23.53C21.89 23.38 21.85 23.25 21.82 23.13C21.67 22.59 21.93 22.03 22.41 21.78H22.39C21.82 22.06 21.21 22.12 20.64 22.01C21.28 22.66 21.8 23.43 22.15 24.29C22.17 24.29 22.19 24.29 22.21 24.29L21.95 23.53H21.94Z" fill="#363636"/>
<path d="M22.45 21.75L22.42 21.77C22.42 21.77 22.44 21.77 22.46 21.76L22.45 21.75Z" fill="#363636"/>
<path d="M15.98 19.93C16.92 19.98 17.82 20.21 18.65 20.6C18.62 20.54 18.58 20.5 18.55 20.44C18.17 19.66 18.19 18.79 18.51 18.04C17.76 17.8 16.98 17.65 16.18 17.61C15.95 18.35 15.87 19.15 15.99 19.93H15.98Z" fill="#363636"/>
<path d="M28.77 12.38C28.73 12.74 28.71 13.11 28.75 13.48C28.81 14.12 29.38 14.6 30.02 14.53C30.03 14.53 30.04 14.53 30.05 14.53L29.76 12.22C29.42 12.26 29.09 12.32 28.77 12.39V12.38Z" fill="#363636"/>
<path d="M23.73 25.2C23.22 25.39 22.66 25.2 22.36 24.76L22.41 24.92C23.04 26.92 24.48 28.5 26.46 29.35C27.48 29.79 28.58 30 29.7 30C31.07 30 32.48 29.67 33.81 29.03C34.39 28.75 34.63 28.05 34.35 27.47C34.07 26.89 33.37 26.65 32.79 26.93C30.99 27.81 29.01 27.91 27.37 27.2C26.02 26.62 25.04 25.56 24.61 24.19L24.13 22.79C24.1 22.69 24.07 22.6 24.04 22.5C23.94 22.15 23.7 21.89 23.4 21.76C23.8 22.36 24.14 23.01 24.39 23.71C24.61 24.31 24.3 24.98 23.7 25.21L23.73 25.2Z" fill="#363636"/>
<path d="M22.63 21.69C22.57 21.71 22.51 21.73 22.45 21.76L22.94 22.82L23.51 23.83C23.51 23.83 23.45 23.87 23.42 23.88C23.03 24.07 22.61 24.21 22.2 24.29L22.36 24.76C22.65 25.19 23.21 25.39 23.73 25.2C24.33 24.98 24.64 24.31 24.42 23.7C24.16 23 23.83 22.35 23.43 21.75C23.19 21.64 22.91 21.61 22.64 21.68L22.63 21.69Z" fill="#363636"/>
<path d="M21.82 23.12C21.85 23.25 21.89 23.37 21.94 23.52L22.2 24.28C22.62 24.19 23.03 24.06 23.42 23.87C23.45 23.86 23.48 23.84 23.51 23.82L22.94 22.81L23.43 23.87L22.94 22.81L22.45 21.75C22.45 21.75 22.43 21.75 22.41 21.76H22.39C21.91 22.02 21.66 22.57 21.8 23.11L21.82 23.12Z" fill="#363636"/>
<path d="M43.82 35.14C43.82 34.5 44.34 33.97 44.99 33.97C46.8 33.97 48.5 34.09 50.1 34.33C52.3 32.61 53.72 29.95 53.72 26.95C53.72 21.79 49.52 17.58 44.35 17.58C44.26 17.58 44.16 17.58 44.07 17.59C44.92 18.52 45.53 19.47 45.89 20.09C49.03 20.8 51.38 23.6 51.38 26.95C51.38 30.83 48.22 33.98 44.4 33.98C43.72 33.93 43.1 34.47 43.1 35.14C43.1 35.81 43.6 36.31 44.24 36.31C44.27 36.31 44.32 36.31 44.35 36.31C44.52 36.31 44.68 36.29 44.84 36.29C44.26 36.22 43.81 35.73 43.81 35.14H43.82Z" fill="#363636"/>
<path d="M41.25 18.13C38.68 19.05 36.56 21.06 35.59 23.71C35.37 24.31 35.68 24.98 36.28 25.21C36.89 25.44 37.55 25.13 37.78 24.52C38.65 22.18 40.69 20.5 43.09 20.05C42.61 19.41 42 18.71 41.26 18.14L41.25 18.13Z" fill="#363636"/>
<path d="M44.99 33.97C44.35 33.97 43.82 34.49 43.82 35.14C43.82 35.74 44.27 36.22 44.85 36.29C46.82 36.19 48.64 35.48 50.1 34.33C48.5 34.09 46.8 33.97 44.99 33.97Z" fill="#363636"/>
<path d="M41.25 18.13C41.99 18.7 42.6 19.4 43.08 20.04C43.5 19.96 43.93 19.92 44.36 19.92C44.89 19.92 45.4 19.98 45.9 20.1C45.54 19.48 44.93 18.54 44.08 17.6C43.1 17.63 42.15 17.81 41.25 18.13Z" fill="#363636"/>
</svg>
