<?xml version="1.0" encoding="utf-8"?>
<!-- Generator: Adobe Illustrator 23.0.3, SVG Export Plug-In . SVG Version: 6.00 Build 0)  -->
<svg version="1.1" id="圖層_1" xmlns="http://www.w3.org/2000/svg" xmlns:xlink="http://www.w3.org/1999/xlink" x="0px" y="0px"
	 viewBox="0 0 90.7 90.7" style="enable-background:new 0 0 90.7 90.7;" xml:space="preserve">
<style type="text/css">
	.st0{fill:#3C5A99;}
	.st1{fill:#A2B1CE;}
	.st2{fill:#E8ECF3;}
	.st3{fill:#A7B5D1;}
	.st4{fill-rule:evenodd;clip-rule:evenodd;fill:#FFFFFF;}
</style>
<g>
	<ellipse class="st0" cx="45.4" cy="45.4" rx="40.1" ry="40.1"/>
	<path class="st1" d="M44.5,47.6c0-0.2-0.1-0.4-0.1-0.6c0.1-1.2-0.1-2.4,0.5-3.5c0.2,0.2,0.4,0.3,0.6,0.5c1.3,1,0.2,2.4,0.5,3.6
		c-0.2,0-0.3,0-0.5,0C45.2,47.6,44.9,47.6,44.5,47.6z"/>
	<path class="st2" d="M46.2,44.6c-0.3,0.7-0.5,1.3-0.8,2c-0.4-0.7-2.3-1.4,0-2.1C45.7,44.5,46,44.6,46.2,44.6z"/>
	<path class="st3" d="M44.6,43.5h1c0.2,0.5,0.3,1,0.5,1.5c-0.5,0.4,0,0.7,0,1c-0.2,0.2-0.4,0.4-0.5,0.5c-0.4,0.2-0.5,0.6-0.5,1
		C44,46.3,44.8,44.9,44.6,43.5z"/>
	<path class="st4" d="M38.7,45.7v24.6c0,0.4,0.3,0.6,0.6,0.6h9.1c0.4,0,0.6-0.3,0.6-0.6v-25h6.6c0.3,0,0.6-0.3,0.6-0.6l0.6-7.5
		c0-0.4-0.3-0.7-0.6-0.7H49v-5.3c0-1.3,1-2.3,2.3-2.3h5.1c0.4,0,0.6-0.3,0.6-0.6v-7.5c0-0.4-0.3-0.6-0.6-0.6h-8.6
		c-5.1,0-9.2,4.1-9.2,9.2v7.3H34c-0.4,0-0.6,0.3-0.6,0.6v7.5c0,0.4,0.3,0.6,0.6,0.6h4.6L38.7,45.7L38.7,45.7z"/>
</g>
</svg>
