<?xml version="1.0" encoding="utf-8"?>
<!-- Generator: Adobe Illustrator 21.1.0, SVG Export Plug-In . SVG Version: 6.00 Build 0)  -->
<svg version="1.1" id="圖層_1" xmlns="http://www.w3.org/2000/svg" xmlns:xlink="http://www.w3.org/1999/xlink" x="0px" y="0px"
	 viewBox="0 0 128.5 66.5" style="enable-background:new 0 0 128.5 66.5;" xml:space="preserve">
<style type="text/css">
	.st0{fill:#4B4E53;}
	.st1{fill:#00A4AE;}
</style>
<g>
	<g>
		<path class="st0" d="M46,64.7h-5v-8.8h4.8V57h-3.4v2.5h3.2v1.1h-3.2v2.9H46V64.7z"/>
		<path class="st0" d="M51.5,57.3c-0.3-0.2-0.9-0.4-1.6-0.4c-1.1,0-1.5,0.6-1.5,1.2c0,0.7,0.5,1.1,1.7,1.6c1.5,0.6,2.2,1.4,2.2,2.6
			c0,1.5-1.1,2.6-3.2,2.6c-0.9,0-1.8-0.2-2.2-0.5l0.3-1.1c0.5,0.3,1.2,0.5,2,0.5c1.1,0,1.7-0.5,1.7-1.3c0-0.7-0.5-1.2-1.6-1.6
			c-1.4-0.5-2.3-1.3-2.3-2.5c0-1.4,1.2-2.4,3-2.4c0.9,0,1.5,0.2,1.9,0.4L51.5,57.3z"/>
		<path class="st0" d="M58.8,57h-2.5v7.6H55V57h-2.5v-1.1h6.3V57z"/>
		<path class="st0" d="M59.3,63.9c0-0.5,0.4-0.9,0.9-0.9c0.5,0,0.9,0.4,0.9,0.9c0,0.5-0.3,0.9-0.9,0.9
			C59.7,64.8,59.3,64.4,59.3,63.9z"/>
		<path class="st0" d="M66.8,64.7v-7.4h0l-1.5,0.8l-0.3-1l2-1h1.2v8.6H66.8z"/>
		<path class="st0" d="M75.1,60.8c-0.4,0.5-1.1,0.8-1.9,0.8c-1.5,0-2.5-1.1-2.5-2.6c0-1.6,1.1-3,2.9-3c1.8,0,2.9,1.5,2.9,3.6
			c0,2.8-1.4,4.9-4.1,5.2c-0.4,0.1-0.7,0.1-1,0.1v-1.1c0.3,0,0.5,0,0.9,0C74.3,63.4,74.9,61.8,75.1,60.8L75.1,60.8z M72.1,58.9
			c0,1,0.5,1.8,1.5,1.8c0.7,0,1.2-0.4,1.4-0.8c0.1-0.1,0.1-0.3,0.1-0.5c0-1.4-0.5-2.4-1.5-2.4C72.7,56.9,72.1,57.7,72.1,58.9z"/>
		<path class="st0" d="M82,64.7h-1.3v-2.3H77v-0.9l3.5-5.5H82v5.3h1.1v1H82V64.7z M78.3,61.4h2.5v-2.6c0-0.5,0-1,0.1-1.5h0
			c-0.3,0.6-0.5,1-0.8,1.4L78.3,61.4L78.3,61.4z"/>
		<path class="st0" d="M83.9,56h5.4v0.8l-3.6,7.8h-1.4l3.6-7.5v0h-4V56z"/>
	</g>
	<g>
		<path class="st1" d="M123,44.5c-0.1-0.1-0.2-0.2-0.4-0.3c0.4,0,0.8-0.2,1.1-0.5c0.3-0.3,0.4-0.6,0.4-1c0-0.3-0.1-0.5-0.2-0.7
			c-0.2-0.2-0.4-0.4-0.6-0.5c-0.3-0.1-0.7-0.1-1.3-0.1h-1.7v5.1h0.8v-2.2h0.5c0.3,0,0.5,0.1,0.7,0.2c0.2,0.2,0.5,0.6,0.9,1.2
			l0.4,0.8h1l-0.6-1C123.4,45,123.2,44.7,123,44.5z M121.9,43.6h-1v-1.5h0.9c0.4,0,0.7,0,0.8,0.1c0.1,0.1,0.3,0.2,0.3,0.3
			c0.1,0.1,0.1,0.2,0.1,0.4c0,0.2-0.1,0.4-0.3,0.6C122.7,43.5,122.4,43.6,121.9,43.6z"/>
		<path class="st1" d="M126,41.5c-0.4-0.8-1-1.3-1.8-1.7c-0.8-0.4-1.5-0.6-2.3-0.6c-0.8,0-1.6,0.2-2.3,0.6c-0.8,0.4-1.3,1-1.8,1.7
			c-0.4,0.8-0.6,1.5-0.6,2.4c0,0.8,0.2,1.6,0.6,2.3c0.4,0.8,1,1.3,1.7,1.8c0.8,0.4,1.5,0.6,2.4,0.6c0.8,0,1.6-0.2,2.4-0.6
			c0.7-0.4,1.3-1,1.7-1.8c0.4-0.7,0.6-1.5,0.6-2.3C126.6,43,126.4,42.2,126,41.5z M125.3,45.8c-0.3,0.6-0.8,1.1-1.5,1.5
			c-0.6,0.3-1.3,0.5-2,0.5c-0.7,0-1.3-0.2-2-0.5c-0.6-0.4-1.1-0.8-1.5-1.5c-0.4-0.6-0.5-1.3-0.5-2c0-0.7,0.2-1.3,0.5-2
			c0.4-0.6,0.8-1.1,1.5-1.5c0.6-0.3,1.3-0.5,1.9-0.5c0.6,0,1.3,0.2,1.9,0.5c0.6,0.4,1.1,0.8,1.5,1.5c0.4,0.6,0.5,1.3,0.5,2
			C125.9,44.5,125.7,45.2,125.3,45.8z"/>
		<path class="st1" d="M117.2,15.2V1.7h-0.8c-3.8,0-6.8,3-6.8,6.8V11c0,0-11.5,0-11.5,0c-10.4,0-18.9,8.5-18.9,18.9
			c0,10.4,8.5,18.9,18.9,18.9c0,0,0.1,0,0.2,0c10.4,0,18.9-8.5,18.9-18.9V15.2z M109.6,30.9c-0.5,5.8-5.4,10.5-11.3,10.5
			c0,0-0.1,0-0.2,0c-6.3,0-11.4-5.1-11.4-11.4c0-6.3,5.1-11.4,11.4-11.4c0,0,11.5,0,11.5,0V30.9z"/>
		<path class="st1" d="M37.3,11C37.3,11,37.3,11,37.3,11H20.6C10.3,11,1.9,19.4,1.9,29.8c0,9.6,7.2,17.5,16.5,18.6l0,0
			c0,0,0.1,0,0.4,0c0.6,0.1,1.2,0.1,1.8,0.1c1.6,0.1,8.6,0,8.6,0c0.3,0,0.5,0,0.5,0c1.3,0,2.5-0.7,3.1-1.7l3.2-4.2l0-0.1
			c0.1-0.1,0.1-0.2,0.1-0.4c0-0.5-0.4-0.9-0.9-0.9c0,0-14.6-0.3-14.6-0.3C13.7,40.8,9.3,36,9.3,29.8c0-6.2,5.1-11.3,11.3-11.3
			c0,0,10.8,0,10.8,0h0c1.2,0,2.3-0.6,3-1.5l3.6-4.7v0c0.1-0.1,0.2-0.3,0.2-0.5C38.1,11.4,37.7,11,37.3,11z"/>
		<path class="st1" d="M64.6,24h-1.8l-3.9,7.4h5.7c2.8,0,5,2.2,5,5c0,2.8-2.2,5-5,5l-21.3,0c-2,0-3.7,1.7-3.7,3.7V48
			c0,0.5,0.4,0.9,0.9,0.9l2.8,0c0,0,21.3,0,21.3,0l0,0c0,0,5.3,0.2,8.8-3.5c0,0,0,0,0,0c2.3-2.3,3.7-5.4,3.7-8.8
			C77.1,29.6,72,24,64.6,24z"/>
		<path class="st1" d="M53.5,35.8h0.9l3.9-7.5c-4.9,0.2-5.6-0.1-5.6-0.1c-2.5-0.5-4.1-2.3-4.1-4.8c0-2.7,2.2-4.9,4.9-4.9h16.8
			c0,0,0,0,0.1,0c1.3,0,2.5-0.7,3.2-1.7l0,0l3-4.4l0,0c0.1-0.1,0.1-0.3,0.1-0.5c0-0.5-0.4-0.8-0.9-0.9c0,0-0.1,0-0.1,0
			c0,0-5.4,0-5.5,0H54c-0.2,0-0.3,0-0.5,0c-6.8,0-12.4,5.6-12.4,12.4C41.1,30.2,46.6,35.8,53.5,35.8z"/>
	</g>
</g>
</svg>
