<?xml version="1.0" encoding="utf-8"?>
<!-- Generator: Adobe Illustrator 26.2.1, SVG Export Plug-In . SVG Version: 6.00 Build 0)  -->
<svg version="1.1" id="圖層_1" xmlns="http://www.w3.org/2000/svg" xmlns:xlink="http://www.w3.org/1999/xlink" x="0px" y="0px"
	 viewBox="0 0 1280 760" style="enable-background:new 0 0 1280 760;" xml:space="preserve">
<style type="text/css">
	.st0{fill:none;stroke:#FFFBDF;stroke-width:2;}
	.st1{fill:none;stroke:#FFFBDF;stroke-width:2.0001;stroke-miterlimit:4.0001;}
	.st2{fill:none;stroke:#FFFBDF;stroke-width:1.9999;stroke-miterlimit:3.9999;}
	.st3{fill:none;stroke:#FFFBDF;stroke-width:2;stroke-miterlimit:4.0001;}
	.st4{fill:none;stroke:#FFFBDF;stroke-width:2.0001;}
	.st5{fill:none;stroke:#FFFBDF;stroke-width:1.9999;stroke-miterlimit:3.9998;}
	.st6{fill:none;stroke:#FFFBDF;stroke-width:2;stroke-miterlimit:3.9999;}
	.st7{fill:none;stroke:#FFFBDF;stroke-width:2.0001;stroke-miterlimit:4.0002;}
</style>
<ellipse class="st0" cx="640.1" cy="407.3" rx="91.4" ry="91.6"/>
<ellipse class="st0" cx="640.1" cy="407.3" rx="86.4" ry="86.6"/>
<path class="st0" d="M653,260.3l-2.1,55.4 M640.6,233.6v80.5 M669.9,254.2l-11.6,63.3 M683,271.9l-15.6,47.9 M736.6,295.5
	l-34.2,43.6 M742.3,266.7l-48.2,66.4 M753.9,300.6L707.4,345 M754,322.6l-40.6,29.6 M783.6,373.3l-53.3,15.1 M805.1,353.3
	l-77.9,25.4 M794.6,388.6l-63.7,8.6 M781.8,406.5h-50.3 M706.3,258.7l-28,64.1 M705.1,295.9L685.2,328 M780.7,325.6L720.4,361
	 M757.9,355l-35,14.3"/>
<ellipse transform="matrix(0.9849 -0.1733 0.1733 0.9849 -57.497 130.2755)" class="st1" cx="717.3" cy="394.4" rx="2.6" ry="2.6"/>
<ellipse class="st0" cx="716.4" cy="394.6" rx="1.8" ry="1.8"/>
<ellipse transform="matrix(0.8664 -0.4993 0.4993 0.8664 -89.7851 402.9417)" class="st2" cx="708.2" cy="369.3" rx="2.6" ry="2.6"/>
<ellipse class="st0" cx="707.4" cy="369.8" rx="1.8" ry="1.8"/>
<ellipse transform="matrix(0.6435 -0.7654 0.7654 0.6435 -20.6603 653.2275)" class="st2" cx="691" cy="348.8" rx="2.6" ry="2.6"/>
<ellipse class="st0" cx="690.4" cy="349.5" rx="1.8" ry="1.8"/>
<ellipse transform="matrix(0.3426 -0.9395 0.9395 0.3426 123.8742 847.9326)" class="st3" cx="667.8" cy="335.5" rx="2.6" ry="2.6"/>
<ellipse class="st0" cx="667.6" cy="336.2" rx="1.8" ry="1.8"/>
<ellipse class="st0" cx="724.2" cy="393.2" rx="1" ry="1"/>
<ellipse class="st0" cx="695.5" cy="343.4" rx="1" ry="1"/>
<path class="st4" d="M699.4,374.3l0.5-1.7l1.7,0.5l-0.5,1.7L699.4,374.3z"/>
<ellipse class="st0" cx="793.3" cy="378" rx="1.3" ry="1.3"/>
<ellipse class="st0" cx="768.1" cy="318.7" rx="1.3" ry="1.3"/>
<ellipse class="st0" cx="721" cy="274.9" rx="1.3" ry="1.3"/>
<ellipse transform="matrix(0.4074 -0.9132 0.9132 0.4074 159.2288 753.3718)" class="st5" cx="660.1" cy="254" rx="1.3" ry="1.3"/>
<path class="st0" d="M626.7,260.3l2.1,55.4 M609.8,254.2l11.6,63.3 M596.7,271.9l15.6,47.9 M543.1,295.5l34.2,43.6 M537.4,266.7
	l48.2,66.4 M525.8,300.6l46.6,44.4 M525.7,322.6l40.6,29.6 M496.1,373.3l53.3,15.1 M474.6,353.3l77.9,25.4 M485.1,388.6l63.7,8.6
	 M497.9,406.5h50.3 M573.4,258.7l28,64.1 M574.7,295.9l19.8,32.1 M499,325.6l60.3,35.4 M521.9,355l34.9,14.3"/>
<ellipse transform="matrix(0.1733 -0.9849 0.9849 0.1733 78.0896 881.7677)" class="st1" cx="564.3" cy="394.4" rx="2.6" ry="2.6"/>
<ellipse class="st0" cx="565.3" cy="394.5" rx="1.8" ry="1.8"/>
<ellipse transform="matrix(0.4993 -0.8664 0.8664 0.4993 -32.8113 681.8171)" class="st2" cx="573.5" cy="369.3" rx="2.6" ry="2.6"/>
<ellipse class="st0" cx="574.4" cy="369.7" rx="1.8" ry="1.8"/>
<ellipse transform="matrix(0.7654 -0.6435 0.6435 0.7654 -85.9224 461.8594)" class="st2" cx="590.6" cy="348.8" rx="2.6" ry="2.6"/>
<ellipse class="st0" cx="591.2" cy="349.5" rx="1.8" ry="1.8"/>
<ellipse transform="matrix(0.9395 -0.3425 0.3425 0.9395 -77.7677 230.4781)" class="st6" cx="613.7" cy="335.4" rx="2.6" ry="2.6"/>
<ellipse class="st0" cx="614" cy="336.3" rx="1.8" ry="1.8"/>
<ellipse transform="matrix(0.1042 -0.9946 0.9946 0.1042 244.2403 933.0325)" class="st7" cx="640.1" cy="330.9" rx="2.6" ry="2.6"/>
<ellipse class="st0" cx="640.1" cy="331.8" rx="1.8" ry="1.8"/>
<ellipse class="st0" cx="557.4" cy="393.2" rx="1" ry="1"/>
<ellipse class="st0" cx="586.1" cy="343.4" rx="1" ry="1"/>
<ellipse class="st0" cx="640.1" cy="322.8" rx="1" ry="1"/>
<path class="st4" d="M580,373.1l1.7-0.5l0.5,1.7l-1.7,0.5L580,373.1z"/>
<path class="st0" d="M639.8,341.5l1.2-1.3l-1.4-1.2l-1.2,1.3L639.8,341.5z"/>
<ellipse class="st0" cx="488.3" cy="378" rx="1.3" ry="1.3"/>
<ellipse class="st0" cx="513.5" cy="318.8" rx="1.3" ry="1.3"/>
<ellipse class="st0" cx="560.6" cy="274.9" rx="1.3" ry="1.3"/>
<ellipse transform="matrix(0.9132 -0.4074 0.4074 0.9132 -49.5756 275.1944)" class="st5" cx="621.4" cy="254" rx="1.3" ry="1.3"/>
<path class="st0" d="M627,553.1l2.1-55.4 M639.4,579.7v-80.4 M610.1,559.1l11.6-63.3 M597,541.4l15.6-47.9 M543.4,517.8l34.2-43.6
	 M537.7,546.7l48.2-66.4 M526.1,512.7l46.5-44.4 M526,490.7l40.6-29.6 M496.4,440l53.3-15.1 M474.9,460l77.9-25.3 M485.4,424.7
	l63.7-8.5 M573.7,554.7l28-64.2 M574.9,517.5l19.9-32.2 M499.3,487.7l60.3-35.4 M522.1,458.4l35-14.4"/>
<ellipse transform="matrix(0.9849 -0.1733 0.1733 0.9849 -64.0819 103.8539)" class="st1" cx="562.7" cy="418.9" rx="2.6" ry="2.6"/>
<ellipse class="st0" cx="563.6" cy="418.8" rx="1.8" ry="1.8"/>
<ellipse transform="matrix(0.8664 -0.4993 0.4993 0.8664 -145.3315 344.9318)" class="st2" cx="572" cy="444.1" rx="2.6" ry="2.6"/>
<ellipse class="st0" cx="572.7" cy="443.6" rx="1.8" ry="1.8"/>
<ellipse transform="matrix(0.6435 -0.7654 0.7654 0.6435 -145.6817 616.3757)" class="st2" cx="588.9" cy="464.6" rx="2.6" ry="2.6"/>
<ellipse class="st0" cx="589.6" cy="463.8" rx="1.8" ry="1.8"/>
<ellipse transform="matrix(0.3426 -0.9395 0.9395 0.3426 -46.5797 889.2584)" class="st3" cx="612.1" cy="477.9" rx="2.6" ry="2.6"/>
<ellipse class="st0" cx="612.4" cy="477" rx="1.8" ry="1.8"/>
<ellipse class="st0" cx="555.8" cy="420.2" rx="1" ry="1"/>
<ellipse class="st0" cx="584.4" cy="470" rx="1" ry="1"/>
<path class="st4" d="M578.4,440.2l0.5-1.7l1.7,0.5l-0.5,1.7L578.4,440.2z"/>
<ellipse class="st0" cx="486.7" cy="435.4" rx="1.3" ry="1.3"/>
<path class="st0" d="M511.5,493.4c0.7-0.2,1.4,0.2,1.6,0.8s-0.2,1.4-0.8,1.6c-0.7,0.2-1.4-0.2-1.6-0.8S510.8,493.6,511.5,493.4z"/>
<ellipse class="st0" cx="559" cy="538.5" rx="1.3" ry="1.3"/>
<ellipse class="st0" cx="619.8" cy="559.4" rx="1.3" ry="1.3"/>
<path class="st0" d="M653.3,553.1l-2.1-55.4 M670.2,559.1l-11.6-63.3 M683.3,541.4l-15.6-47.9 M736.9,517.8l-34.2-43.6 M742.6,546.7
	l-48.2-66.4 M754.2,512.7l-46.6-44.4 M754.3,490.7l-40.6-29.6 M783.9,440l-53.3-15.1 M805.4,460l-77.9-25.3 M794.9,424.7l-63.7-8.5
	 M706.6,554.7l-28-64.2 M705.3,517.5l-19.8-32.2 M781,487.7l-60.3-35.4 M758.1,458.4L723.2,444"/>
<ellipse transform="matrix(0.1733 -0.9849 0.9849 0.1733 179.1987 1051.1425)" class="st1" cx="715.7" cy="418.8" rx="2.6" ry="2.6"/>
<ellipse class="st0" cx="714.8" cy="418.7" rx="1.8" ry="1.8"/>
<ellipse transform="matrix(0.4993 -0.8664 0.8664 0.4993 -31.0718 834.6536)" class="st2" cx="706.6" cy="444.2" rx="2.6" ry="2.6"/>
<ellipse class="st0" cx="705.8" cy="443.6" rx="1.8" ry="1.8"/>
<ellipse transform="matrix(0.7654 -0.6435 0.6435 0.7654 -137.2496 552.5046)" class="st2" cx="689.2" cy="464.5" rx="2.6" ry="2.6"/>
<ellipse class="st0" cx="688.8" cy="463.8" rx="1.8" ry="1.8"/>
<ellipse transform="matrix(0.9395 -0.3425 0.3425 0.9395 -123.3957 257.1108)" class="st6" cx="666.3" cy="477.9" rx="2.6" ry="2.6"/>
<ellipse class="st0" cx="666" cy="477" rx="1.8" ry="1.8"/>
<ellipse transform="matrix(0.1042 -0.9946 0.9946 0.1042 93.531 1068.344)" class="st7" cx="639.8" cy="482.3" rx="2.6" ry="2.6"/>
<ellipse class="st0" cx="640" cy="481.3" rx="1.8" ry="1.8"/>
<ellipse class="st0" cx="722.6" cy="420.1" rx="1" ry="1"/>
<ellipse class="st0" cx="693.8" cy="470" rx="1" ry="1"/>
<ellipse class="st0" cx="639.8" cy="490.5" rx="1" ry="1"/>
<path class="st4" d="M697.8,439.1l1.7-0.5l0.5,1.7l-1.7,0.5L697.8,439.1z"/>
<path class="st0" d="M640.2,471.8l-1.2,1.4l1.4,1.2l1.2-1.4L640.2,471.8z"/>
<ellipse class="st0" cx="791.7" cy="435.4" rx="1.3" ry="1.3"/>
<ellipse class="st0" cx="766.4" cy="494.6" rx="1.3" ry="1.3"/>
<ellipse class="st0" cx="719.4" cy="538.5" rx="1.3" ry="1.3"/>
<ellipse class="st0" cx="658.6" cy="559.3" rx="1.3" ry="1.3"/>
</svg>
